ISO-10303-21;
HEADER;
FILE_DESCRIPTION (( 'STEP AP203', 'EW_ACAD_SW_ABQ_05', 'FROM_stage1_profile.dxf', 'SOLIDWORKS_TO_ABAQUS' ),
    '1' );
FILE_NAME ('stage2_geometry.step',
    '2026-08-01T03:30:35',
    ( '' ),
    ( 'Administrator' ),
    'SwSTEP 2.0',
    'SolidWorks 2025',
    '' );
FILE_SCHEMA (( 'CONFIG_CONTROL_DESIGN' ));
ENDSEC;

DATA;
#1 = VERTEX_POINT ( 'NONE', #382 ) ;
#2 = LINE ( 'NONE', #248, #252 ) ;
#3 = CARTESIAN_POINT ( 'NONE',  ( 180.0000000000000000, 47.00000000000000000, 5.000000000000000000 ) ) ;
#4 = CALENDAR_DATE ( 2026, 1, 8 ) ;
#5 = VECTOR ( 'NONE', #338, 1000.000000000000000 ) ;
#6 = ADVANCED_FACE ( 'NONE', ( #70 ), #227, .T. ) ;
#7 = ORIENTED_EDGE ( 'NONE', *, *, #485, .T. ) ;
#8 = CARTESIAN_POINT ( 'NONE',  ( 180.0000000000000000, 35.00000000000000000, 0.000000000000000000 ) ) ;
#9 = VECTOR ( 'NONE', #196, 1000.000000000000000 ) ;
#10 = PERSON ( 'UNSPECIFIED', 'UNSPECIFIED', 'UNSPECIFIED', ('UNSPECIFIED'), ('UNSPECIFIED'), ('UNSPECIFIED') ) ;
#11 = PLANE ( 'NONE',  #108 ) ;
#12 = LINE ( 'NONE', #362, #54 ) ;
#13 = AXIS2_PLACEMENT_3D ( 'NONE', #191, #261, #420 ) ;
#14 = DIRECTION ( 'NONE',  ( 1.000000000000000000, 0.000000000000000000, 0.000000000000000000 ) ) ;
#15 = DIRECTION ( 'NONE',  ( 0.000000000000000000, -1.000000000000000000, -0.000000000000000000 ) ) ;
#16 = VECTOR ( 'NONE', #72, 1000.000000000000000 ) ;
#17 = VECTOR ( 'NONE', #387, 1000.000000000000000 ) ;
#18 = VECTOR ( 'NONE', #389, 1000.000000000000000 ) ;
#19 = CC_DESIGN_PERSON_AND_ORGANIZATION_ASSIGNMENT ( #43, #475, ( #35 ) ) ;
#20 = ORIENTED_EDGE ( 'NONE', *, *, #173, .T. ) ;
#21 = DIRECTION ( 'NONE',  ( 0.000000000000000000, 0.000000000000000000, -1.000000000000000000 ) ) ;
#22 = LINE ( 'NONE', #309, #48 ) ;
#23 = VECTOR ( 'NONE', #206, 1000.000000000000000 ) ;
#24 = EDGE_CURVE ( 'NONE', #421, #118, #153, .T. ) ;
#25 = FACE_OUTER_BOUND ( 'NONE', #310, .T. ) ;
#26 = CARTESIAN_POINT ( 'NONE',  ( 0.000000000000000000, 35.00000000000000000, 2.000000000000000000 ) ) ;
#27 = CARTESIAN_POINT ( 'NONE',  ( 90.00000000000000000, 20.99999999999999645, 1.899999999999999911 ) ) ;
#28 = DIRECTION ( 'NONE',  ( -1.000000000000000000, -0.000000000000000000, 0.000000000000000000 ) ) ;
#29 = VERTEX_POINT ( 'NONE', #500 ) ;
#30 = CARTESIAN_POINT ( 'NONE',  ( 180.0000000000000000, 70.00000000000000000, 0.000000000000000000 ) ) ;
#31 = ORIENTED_EDGE ( 'NONE', *, *, #351, .T. ) ;
#32 = PLANE ( 'NONE',  #455 ) ;
#33 = ADVANCED_FACE ( 'NONE', ( #279 ), #315, .T. ) ;
#34 = VERTEX_POINT ( 'NONE', #494 ) ;
#35 = PRODUCT_DEFINITION_FORMATION_WITH_SPECIFIED_SOURCE ( 'ANY', '', #426, .NOT_KNOWN. ) ;
#36 = ORIENTED_EDGE ( 'NONE', *, *, #66, .F. ) ;
#37 = CARTESIAN_POINT ( 'NONE',  ( 180.0000000000000000, 25.00000000000000000, 1.899999999999999911 ) ) ;
#38 = EDGE_LOOP ( 'NONE', ( #76, #272, #74, #341 ) ) ;
#39 = COORDINATED_UNIVERSAL_TIME_OFFSET ( 8, 0, .AHEAD. ) ;
#40 = ORIENTED_EDGE ( 'NONE', *, *, #94, .F. ) ;
#41 = CARTESIAN_POINT ( 'NONE',  ( 180.0000000000000000, 20.99999999999999645, 2.000000000000000000 ) ) ;
#42 = ORIENTED_EDGE ( 'NONE', *, *, #205, .F. ) ;
#43 = PERSON_AND_ORGANIZATION ( #10, #235 ) ;
#44 = ADVANCED_FACE ( 'NONE', ( #342 ), #113, .T. ) ;
#45 = ORIENTED_EDGE ( 'NONE', *, *, #476, .T. ) ;
#46 = LINE ( 'NONE', #324, #121 ) ;
#47 = PERSON_AND_ORGANIZATION ( #10, #235 ) ;
#48 = VECTOR ( 'NONE', #385, 1000.000000000000000 ) ;
#49 = DIRECTION ( 'NONE',  ( 1.000000000000000000, 0.000000000000000000, -0.000000000000000000 ) ) ;
#50 = LINE ( 'NONE', #171, #209 ) ;
#51 = CALENDAR_DATE ( 2026, 1, 8 ) ;
#52 = AXIS2_PLACEMENT_3D ( 'NONE', #439, #119, #470 ) ;
#53 = APPROVAL_ROLE ( '' ) ;
#54 = VECTOR ( 'NONE', #364, 1000.000000000000000 ) ;
#55 = MECHANICAL_CONTEXT ( 'NONE', #365, 'mechanical' ) ;
#56 = ADVANCED_FACE ( 'NONE', ( #180 ), #105, .T. ) ;
#57 = VECTOR ( 'NONE', #132, 1000.000000000000000 ) ;
#58 = EDGE_LOOP ( 'NONE', ( #277, #366, #255, #158 ) ) ;
#59 = LINE ( 'NONE', #335, #168 ) ;
#60 = DIRECTION ( 'NONE',  ( 0.000000000000000000, 0.000000000000000000, 1.000000000000000000 ) ) ;
#61 = PLANE ( 'NONE',  #290 ) ;
#62 = DIRECTION ( 'NONE',  ( 0.000000000000000000, 0.000000000000000000, 1.000000000000000000 ) ) ;
#63 = CARTESIAN_POINT ( 'NONE',  ( 90.00000000000000000, 20.99999999999999645, 2.000000000000000000 ) ) ;
#64 = DIRECTION ( 'NONE',  ( 0.000000000000000000, 0.000000000000000000, 1.000000000000000000 ) ) ;
#65 = EDGE_LOOP ( 'NONE', ( #464, #86, #184, #284 ) ) ;
#66 = EDGE_CURVE ( 'NONE', #380, #80, #409, .T. ) ;
#67 = LINE ( 'NONE', #372, #202 ) ;
#68 = VERTEX_POINT ( 'NONE', #456 ) ;
#69 = FACE_OUTER_BOUND ( 'NONE', #160, .T. ) ;
#70 = FACE_OUTER_BOUND ( 'NONE', #462, .T. ) ;
#71 = COORDINATED_UNIVERSAL_TIME_OFFSET ( 8, 0, .AHEAD. ) ;
#72 = DIRECTION ( 'NONE',  ( 0.000000000000000000, 0.000000000000000000, 1.000000000000000000 ) ) ;
#73 = CC_DESIGN_DATE_AND_TIME_ASSIGNMENT ( #154, #350, ( #403 ) ) ;
#74 = ORIENTED_EDGE ( 'NONE', *, *, #134, .F. ) ;
#75 = LINE ( 'NONE', #176, #140 ) ;
#76 = ORIENTED_EDGE ( 'NONE', *, *, #375, .F. ) ;
#77 = APPROVAL_ROLE ( '' ) ;
#78 = VECTOR ( 'NONE', #371, 1000.000000000000000 ) ;
#79 = LOCAL_TIME ( 11, 30, 35.00000000000000000, #39 ) ;
#80 = VERTEX_POINT ( 'NONE', #337 ) ;
#81 = CARTESIAN_POINT ( 'NONE',  ( 180.0000000000000000, 49.00000000000000000, 5.000000000000000000 ) ) ;
#82 = DIRECTION ( 'NONE',  ( 1.000000000000000000, 0.000000000000000000, -0.000000000000000000 ) ) ;
#83 = EDGE_CURVE ( 'NONE', #437, #368, #415, .T. ) ;
#84 = ORIENTED_EDGE ( 'NONE', *, *, #431, .T. ) ;
#85 = DIRECTION ( 'NONE',  ( -1.000000000000000000, -0.000000000000000000, 0.000000000000000000 ) ) ;
#86 = ORIENTED_EDGE ( 'NONE', *, *, #482, .T. ) ;
#87 = EDGE_CURVE ( 'NONE', #423, #428, #59, .T. ) ;
#88 = ORIENTED_EDGE ( 'NONE', *, *, #104, .F. ) ;
#89 = CARTESIAN_POINT ( 'NONE',  ( 0.000000000000000000, 45.00000000000000000, 2.000000000000000000 ) ) ;
#90 = PERSON_AND_ORGANIZATION ( #10, #235 ) ;
#91 = VECTOR ( 'NONE', #496, 1000.000000000000000 ) ;
#92 = CARTESIAN_POINT ( 'NONE',  ( 180.0000000000000000, 20.99999999999999645, 5.000000000000000000 ) ) ;
#93 = PERSON_AND_ORGANIZATION_ROLE ( 'design_owner' ) ;
#94 = EDGE_CURVE ( 'NONE', #29, #80, #459, .T. ) ;
#95 = APPROVAL_STATUS ( 'not_yet_approved' ) ;
#96 = CARTESIAN_POINT ( 'NONE',  ( 0.000000000000000000, 47.00000000000000000, 5.000000000000000000 ) ) ;
#97 = CC_DESIGN_APPROVAL ( #356, ( #276 ) ) ;
#98 = EDGE_CURVE ( 'NONE', #1, #421, #271, .T. ) ;
#99 = ADVANCED_FACE ( 'NONE', ( #422 ), #418, .T. ) ;
#100 = VECTOR ( 'NONE', #142, 1000.000000000000000 ) ;
#101 = LINE ( 'NONE', #416, #483 ) ;
#102 = DIRECTION ( 'NONE',  ( -0.000000000000000000, 1.000000000000000000, 0.000000000000000000 ) ) ;
#103 = PLANE ( 'NONE',  #13 ) ;
#104 = EDGE_CURVE ( 'NONE', #472, #118, #146, .T. ) ;
#105 = PLANE ( 'NONE',  #212 ) ;
#106 = CARTESIAN_POINT ( 'NONE',  ( 180.0000000000000000, 70.00000000000000000, 2.000000000000000000 ) ) ;
#107 = ORIENTED_EDGE ( 'NONE', *, *, #452, .F. ) ;
#108 = AXIS2_PLACEMENT_3D ( 'NONE', #285, #245, #243 ) ;
#109 = CARTESIAN_POINT ( 'NONE',  ( 180.0000000000000000, 45.00000000000000000, 1.899999999999999911 ) ) ;
#110 = CARTESIAN_POINT ( 'NONE',  ( 180.0000000000000000, 35.00000000000000000, 2.000000000000000000 ) ) ;
#111 = ORIENTED_EDGE ( 'NONE', *, *, #66, .T. ) ;
#112 = ADVANCED_FACE ( 'NONE', ( #229 ), #61, .T. ) ;
#113 = PLANE ( 'NONE',  #440 ) ;
#114 = VERTEX_POINT ( 'NONE', #491 ) ;
#115 = DIRECTION ( 'NONE',  ( 1.000000000000000000, 0.000000000000000000, -0.000000000000000000 ) ) ;
#116 = ORIENTED_EDGE ( 'NONE', *, *, #134, .T. ) ;
#117 = APPROVAL_DATE_TIME ( #204, #445 ) ;
#118 = VERTEX_POINT ( 'NONE', #303 ) ;
#119 = DIRECTION ( 'NONE',  ( 0.000000000000000000, 0.000000000000000000, 1.000000000000000000 ) ) ;
#120 = ORIENTED_EDGE ( 'NONE', *, *, #124, .F. ) ;
#121 = VECTOR ( 'NONE', #353, 1000.000000000000000 ) ;
#122 = ORIENTED_EDGE ( 'NONE', *, *, #501, .T. ) ;
#123 = CARTESIAN_POINT ( 'NONE',  ( 0.000000000000000000, 20.99999999999999645, 2.000000000000000000 ) ) ;
#124 = EDGE_CURVE ( 'NONE', #188, #68, #370, .T. ) ;
#125 = ORIENTED_EDGE ( 'NONE', *, *, #452, .T. ) ;
#126 = SECURITY_CLASSIFICATION_LEVEL ( 'unclassified' ) ;
#127 = EDGE_LOOP ( 'NONE', ( #270, #45, #434, #88, #498, #20, #190, #357, #344, #195, #323, #442 ) ) ;
#128 = CARTESIAN_POINT ( 'NONE',  ( 90.00000000000000000, 70.00000000000000000, 2.000000000000000000 ) ) ;
#129 = DATE_AND_TIME ( #233, #332 ) ;
#130 = DIRECTION ( 'NONE',  ( 0.000000000000000000, 0.000000000000000000, 1.000000000000000000 ) ) ;
#131 = CALENDAR_DATE ( 2026, 1, 8 ) ;
#132 = DIRECTION ( 'NONE',  ( 0.000000000000000000, 0.000000000000000000, 1.000000000000000000 ) ) ;
#133 = DIRECTION ( 'NONE',  ( -0.000000000000000000, 1.000000000000000000, 0.000000000000000000 ) ) ;
#134 = EDGE_CURVE ( 'NONE', #257, #242, #67, .T. ) ;
#135 = CC_DESIGN_PERSON_AND_ORGANIZATION_ASSIGNMENT ( #47, #246, ( #403 ) ) ;
#136 = EDGE_LOOP ( 'NONE', ( #107, #347, #473, #495 ) ) ;
#137 = EDGE_CURVE ( 'NONE', #320, #188, #379, .T. ) ;
#138 = ADVANCED_FACE ( 'NONE', ( #25 ), #185, .T. ) ;
#139 = LINE ( 'NONE', #298, #5 ) ;
#140 = VECTOR ( 'NONE', #60, 1000.000000000000000 ) ;
#141 = APPROVAL_PERSON_ORGANIZATION ( #207, #356, #53 ) ;
#142 = DIRECTION ( 'NONE',  ( 0.000000000000000000, 0.000000000000000000, 1.000000000000000000 ) ) ;
#143 = DIRECTION ( 'NONE',  ( 1.000000000000000000, 0.000000000000000000, -0.000000000000000000 ) ) ;
#144 = CARTESIAN_POINT ( 'NONE',  ( 0.000000000000000000, 23.00000000000000000, 5.000000000000000000 ) ) ;
#145 = CARTESIAN_POINT ( 'NONE',  ( 180.0000000000000000, 0.000000000000000000, 0.000000000000000000 ) ) ;
#146 = LINE ( 'NONE', #109, #16 ) ;
#147 = CARTESIAN_POINT ( 'NONE',  ( 180.0000000000000000, 25.00000000000000000, 5.000000000000000000 ) ) ;
#148 = ORIENTED_EDGE ( 'NONE', *, *, #330, .T. ) ;
#149 = VECTOR ( 'NONE', #62, 1000.000000000000000 ) ;
#150 = DIRECTION ( 'NONE',  ( 0.000000000000000000, -0.000000000000000000, 1.000000000000000000 ) ) ;
#151 = EDGE_LOOP ( 'NONE', ( #333, #42, #313, #230 ) ) ;
#152 = DIRECTION ( 'NONE',  ( 0.000000000000000000, -0.000000000000000000, 1.000000000000000000 ) ) ;
#153 = LINE ( 'NONE', #3, #17 ) ;
#154 = DATE_AND_TIME ( #275, #484 ) ;
#155 = ORIENTED_EDGE ( 'NONE', *, *, #83, .F. ) ;
#156 = CARTESIAN_POINT ( 'NONE',  ( 180.0000000000000000, 0.000000000000000000, 2.000000000000000000 ) ) ;
#157 = DIRECTION ( 'NONE',  ( 0.000000000000000000, 0.000000000000000000, 1.000000000000000000 ) ) ;
#158 = ORIENTED_EDGE ( 'NONE', *, *, #253, .T. ) ;
#159 = PLANE ( 'NONE',  #52 ) ;
#160 = EDGE_LOOP ( 'NONE', ( #238, #148, #396, #388 ) ) ;
#161 = CC_DESIGN_APPROVAL ( #312, ( #403 ) ) ;
#162 = VERTEX_POINT ( 'NONE', #302 ) ;
#163 = FACE_OUTER_BOUND ( 'NONE', #391, .T. ) ;
#164 = LINE ( 'NONE', #327, #360 ) ;
#165 = EDGE_CURVE ( 'NONE', #354, #380, #22, .T. ) ;
#166 = LINE ( 'NONE', #96, #471 ) ;
#167 = CC_DESIGN_PERSON_AND_ORGANIZATION_ASSIGNMENT ( #443, #93, ( #426 ) ) ;
#168 = VECTOR ( 'NONE', #260, 1000.000000000000000 ) ;
#169 = CC_DESIGN_APPROVAL ( #445, ( #35 ) ) ;
#170 = ADVANCED_FACE ( 'NONE', ( #461 ), #103, .T. ) ;
#171 = CARTESIAN_POINT ( 'NONE',  ( 180.0000000000000000, 35.00000000000000000, 2.000000000000000000 ) ) ;
#172 = CARTESIAN_POINT ( 'NONE',  ( 180.0000000000000000, 25.00000000000000000, 2.000000000000000000 ) ) ;
#173 = EDGE_CURVE ( 'NONE', #493, #306, #269, .T. ) ;
#174 = EDGE_CURVE ( 'NONE', #242, #162, #75, .T. ) ;
#175 = DIRECTION ( 'NONE',  ( -1.000000000000000000, -0.000000000000000000, 0.000000000000000000 ) ) ;
#176 = CARTESIAN_POINT ( 'NONE',  ( 0.000000000000000000, 0.000000000000000000, 0.000000000000000000 ) ) ;
#177 = CLOSED_SHELL ( 'NONE', ( #33, #138, #6, #363, #56, #170, #112, #216, #400, #99, #44, #317, #254, #179 ) ) ;
#178 = LOCAL_TIME ( 11, 30, 35.00000000000000000, #71 ) ;
#179 = ADVANCED_FACE ( 'NONE', ( #69 ), #454, .T. ) ;
#180 = FACE_OUTER_BOUND ( 'NONE', #436, .T. ) ;
#181 = CARTESIAN_POINT ( 'NONE',  ( 90.00000000000000000, 45.00000000000000000, 1.899999999999999911 ) ) ;
#182 = DIRECTION ( 'NONE',  ( 0.000000000000000000, -1.000000000000000000, 0.000000000000000000 ) ) ;
#183 = DIRECTION ( 'NONE',  ( -0.000000000000000000, 1.000000000000000000, 0.000000000000000000 ) ) ;
#184 = ORIENTED_EDGE ( 'NONE', *, *, #104, .T. ) ;
#185 = PLANE ( 'NONE',  #234 ) ;
#186 = ORIENTED_EDGE ( 'NONE', *, *, #489, .F. ) ;
#187 = DIRECTION ( 'NONE',  ( 0.000000000000000000, -1.000000000000000000, -0.000000000000000000 ) ) ;
#188 = VERTEX_POINT ( 'NONE', #106 ) ;
#189 = UNCERTAINTY_MEASURE_WITH_UNIT (LENGTH_MEASURE( 1.000000000000000082E-05 ), #441, 'distance_accuracy_value', 'NONE');
#190 = ORIENTED_EDGE ( 'NONE', *, *, #199, .T. ) ;
#191 = CARTESIAN_POINT ( 'NONE',  ( 90.00000000000000000, 70.00000000000000000, 0.000000000000000000 ) ) ;
#192 = ORIENTED_EDGE ( 'NONE', *, *, #501, .F. ) ;
#193 = APPROVAL_DATE_TIME ( #359, #312 ) ;
#194 = PRODUCT_DEFINITION_SHAPE ( 'NONE', 'NONE',  #276 ) ;
#195 = ORIENTED_EDGE ( 'NONE', *, *, #259, .F. ) ;
#196 = DIRECTION ( 'NONE',  ( -0.000000000000000000, 1.000000000000000000, 0.000000000000000000 ) ) ;
#197 = ORIENTED_EDGE ( 'NONE', *, *, #259, .T. ) ;
#198 = PERSON_AND_ORGANIZATION_ROLE ( 'design_supplier' ) ;
#199 = EDGE_CURVE ( 'NONE', #306, #354, #457, .T. ) ;
#200 = EDGE_LOOP ( 'NONE', ( #378, #297, #419, #352 ) ) ;
#201 = CARTESIAN_POINT ( 'NONE',  ( 180.0000000000000000, 70.00000000000000000, 0.000000000000000000 ) ) ;
#202 = VECTOR ( 'NONE', #224, 1000.000000000000000 ) ;
#203 = DIRECTION ( 'NONE',  ( 1.000000000000000000, 0.000000000000000000, -0.000000000000000000 ) ) ;
#204 = DATE_AND_TIME ( #4, #178 ) ;
#205 = EDGE_CURVE ( 'NONE', #29, #423, #381, .T. ) ;
#206 = DIRECTION ( 'NONE',  ( -1.000000000000000000, -0.000000000000000000, 0.000000000000000000 ) ) ;
#207 = PERSON_AND_ORGANIZATION ( #10, #235 ) ;
#208 = VECTOR ( 'NONE', #410, 1000.000000000000000 ) ;
#209 = VECTOR ( 'NONE', #15, 1000.000000000000000 ) ;
#210 = APPLICATION_PROTOCOL_DEFINITION ( 'international standard', 'config_control_design', 1994, #288 ) ;
#211 = ORIENTED_EDGE ( 'NONE', *, *, #174, .F. ) ;
#212 = AXIS2_PLACEMENT_3D ( 'NONE', #263, #175, #339 ) ;
#213 = MANIFOLD_SOLID_BREP ( 'EW_ACAD_SW_ABQ_05_SOLIDWORKS_TO_ABAQUS', #177 ) ;
#214 = DIRECTION ( 'NONE',  ( 1.000000000000000000, 0.000000000000000000, -0.000000000000000000 ) ) ;
#215 = PLANE ( 'NONE',  #321 ) ;
#216 = ADVANCED_FACE ( 'NONE', ( #226 ), #32, .T. ) ;
#217 = DIRECTION ( 'NONE',  ( -0.000000000000000000, 0.000000000000000000, -1.000000000000000000 ) ) ;
#218 = FACE_OUTER_BOUND ( 'NONE', #200, .T. ) ;
#219 = CC_DESIGN_PERSON_AND_ORGANIZATION_ASSIGNMENT ( #433, #198, ( #35 ) ) ;
#220 = DIRECTION ( 'NONE',  ( -0.000000000000000000, 1.000000000000000000, 0.000000000000000000 ) ) ;
#221 = DIRECTION ( 'NONE',  ( -0.000000000000000000, 0.000000000000000000, -1.000000000000000000 ) ) ;
#222 = ORIENTED_EDGE ( 'NONE', *, *, #262, .F. ) ;
#223 = DESIGN_CONTEXT ( 'detailed design', #288, 'design' ) ;
#224 = DIRECTION ( 'NONE',  ( 0.000000000000000000, -1.000000000000000000, -0.000000000000000000 ) ) ;
#225 = ORIENTED_EDGE ( 'NONE', *, *, #411, .T. ) ;
#226 = FACE_OUTER_BOUND ( 'NONE', #127, .T. ) ;
#227 = PLANE ( 'NONE',  #480 ) ;
#228 = SHAPE_DEFINITION_REPRESENTATION ( #194, #402 ) ;
#229 = FACE_OUTER_BOUND ( 'NONE', #38, .T. ) ;
#230 = ORIENTED_EDGE ( 'NONE', *, *, #241, .F. ) ;
#231 = DIRECTION ( 'NONE',  ( 0.000000000000000000, 0.000000000000000000, -1.000000000000000000 ) ) ;
#232 = DIRECTION ( 'NONE',  ( 1.000000000000000000, 0.000000000000000000, -0.000000000000000000 ) ) ;
#233 = CALENDAR_DATE ( 2026, 1, 8 ) ;
#234 = AXIS2_PLACEMENT_3D ( 'NONE', #299, #450, #143 ) ;
#235 = ORGANIZATION ( 'UNSPECIFIED', 'UNSPECIFIED', '' ) ;
#236 = ORIENTED_EDGE ( 'NONE', *, *, #351, .F. ) ;
#237 = LINE ( 'NONE', #398, #18 ) ;
#238 = ORIENTED_EDGE ( 'NONE', *, *, #476, .F. ) ;
#239 = APPROVAL_STATUS ( 'not_yet_approved' ) ;
#240 = PRODUCT_RELATED_PRODUCT_CATEGORY ( 'detail', '', ( #426 ) ) ;
#241 = EDGE_CURVE ( 'NONE', #472, #493, #273, .T. ) ;
#242 = VERTEX_POINT ( 'NONE', #487 ) ;
#243 = DIRECTION ( 'NONE',  ( 0.000000000000000000, 0.000000000000000000, -1.000000000000000000 ) ) ;
#244 = ORIENTED_EDGE ( 'NONE', *, *, #369, .F. ) ;
#245 = DIRECTION ( 'NONE',  ( 0.000000000000000000, -1.000000000000000000, 0.000000000000000000 ) ) ;
#246 = PERSON_AND_ORGANIZATION_ROLE ( 'classification_officer' ) ;
#247 = VECTOR ( 'NONE', #214, 1000.000000000000000 ) ;
#248 = CARTESIAN_POINT ( 'NONE',  ( 0.000000000000000000, 20.99999999999999645, 1.899999999999999911 ) ) ;
#249 = COORDINATED_UNIVERSAL_TIME_OFFSET ( 8, 0, .AHEAD. ) ;
#250 =( NAMED_UNIT ( * ) SI_UNIT ( $, .STERADIAN. ) SOLID_ANGLE_UNIT ( ) );
#251 = VECTOR ( 'NONE', #203, 1000.000000000000000 ) ;
#252 = VECTOR ( 'NONE', #499, 1000.000000000000000 ) ;
#253 = EDGE_CURVE ( 'NONE', #80, #306, #264, .T. ) ;
#254 = ADVANCED_FACE ( 'NONE', ( #345 ), #215, .T. ) ;
#255 = ORIENTED_EDGE ( 'NONE', *, *, #94, .T. ) ;
#256 = EDGE_CURVE ( 'NONE', #320, #257, #139, .T. ) ;
#257 = VERTEX_POINT ( 'NONE', #490 ) ;
#258 = DIRECTION ( 'NONE',  ( 0.000000000000000000, -1.000000000000000000, -0.000000000000000000 ) ) ;
#259 = EDGE_CURVE ( 'NONE', #34, #458, #449, .T. ) ;
#260 = DIRECTION ( 'NONE',  ( 0.000000000000000000, 0.000000000000000000, 1.000000000000000000 ) ) ;
#261 = DIRECTION ( 'NONE',  ( -0.000000000000000000, 1.000000000000000000, 0.000000000000000000 ) ) ;
#262 = EDGE_CURVE ( 'NONE', #114, #1, #101, .T. ) ;
#263 = CARTESIAN_POINT ( 'NONE',  ( 0.000000000000000000, 35.00000000000000000, 0.000000000000000000 ) ) ;
#264 = LINE ( 'NONE', #340, #91 ) ;
#265 = AXIS2_PLACEMENT_3D ( 'NONE', #27, #182, #21 ) ;
#266 = ORIENTED_EDGE ( 'NONE', *, *, #431, .F. ) ;
#267 = AXIS2_PLACEMENT_3D ( 'NONE', #319, #130, #49 ) ;
#268 = DIRECTION ( 'NONE',  ( 0.000000000000000000, -1.000000000000000000, -0.000000000000000000 ) ) ;
#269 = LINE ( 'NONE', #37, #78 ) ;
#270 = ORIENTED_EDGE ( 'NONE', *, *, #124, .T. ) ;
#271 = LINE ( 'NONE', #376, #247 ) ;
#272 = ORIENTED_EDGE ( 'NONE', *, *, #411, .F. ) ;
#273 = LINE ( 'NONE', #110, #427 ) ;
#274 = ORIENTED_EDGE ( 'NONE', *, *, #87, .T. ) ;
#275 = CALENDAR_DATE ( 2026, 1, 8 ) ;
#276 = PRODUCT_DEFINITION ( 'UNKNOWN', '', #35, #223 ) ;
#277 = ORIENTED_EDGE ( 'NONE', *, *, #173, .F. ) ;
#278 = LINE ( 'NONE', #429, #334 ) ;
#279 = FACE_OUTER_BOUND ( 'NONE', #151, .T. ) ;
#280 = VECTOR ( 'NONE', #268, 1000.000000000000000 ) ;
#281 = VERTEX_POINT ( 'NONE', #377 ) ;
#282 = CARTESIAN_POINT ( 'NONE',  ( 0.000000000000000000, 35.00000000000000000, 2.000000000000000000 ) ) ;
#283 = ORIENTED_EDGE ( 'NONE', *, *, #414, .T. ) ;
#284 = ORIENTED_EDGE ( 'NONE', *, *, #481, .T. ) ;
#285 = CARTESIAN_POINT ( 'NONE',  ( 90.00000000000000000, 0.000000000000000000, 0.000000000000000000 ) ) ;
#286 = PERSON_AND_ORGANIZATION ( #10, #235 ) ;
#287 = DIRECTION ( 'NONE',  ( -1.000000000000000000, -0.000000000000000000, 0.000000000000000000 ) ) ;
#288 = APPLICATION_CONTEXT ( 'configuration controlled 3d designs of mechanical parts and assemblies' ) ;
#289 = DATE_TIME_ROLE ( 'creation_date' ) ;
#290 = AXIS2_PLACEMENT_3D ( 'NONE', #488, #217, #383 ) ;
#291 = CARTESIAN_POINT ( 'NONE',  ( 0.000000000000000000, 35.00000000000000000, 2.000000000000000000 ) ) ;
#292 = DIRECTION ( 'NONE',  ( -0.000000000000000000, 1.000000000000000000, 0.000000000000000000 ) ) ;
#293 = EDGE_CURVE ( 'NONE', #493, #29, #300, .T. ) ;
#294 = APPLICATION_PROTOCOL_DEFINITION ( 'international standard', 'config_control_design', 1994, #365 ) ;
#295 =( GEOMETRIC_REPRESENTATION_CONTEXT ( 3 ) GLOBAL_UNCERTAINTY_ASSIGNED_CONTEXT ( ( #189 ) ) GLOBAL_UNIT_ASSIGNED_CONTEXT ( ( #441, #401, #250 ) ) REPRESENTATION_CONTEXT ( 'NONE', 'WORKASPACE' ) );
#296 = EDGE_CURVE ( 'NONE', #368, #354, #492, .T. ) ;
#297 = ORIENTED_EDGE ( 'NONE', *, *, #24, .F. ) ;
#298 = CARTESIAN_POINT ( 'NONE',  ( 90.00000000000000000, 70.00000000000000000, 0.000000000000000000 ) ) ;
#299 = CARTESIAN_POINT ( 'NONE',  ( 90.00000000000000000, 35.00000000000000000, 2.000000000000000000 ) ) ;
#300 = LINE ( 'NONE', #451, #367 ) ;
#301 = CARTESIAN_POINT ( 'NONE',  ( 0.000000000000000000, 25.00000000000000000, 1.899999999999999911 ) ) ;
#302 = CARTESIAN_POINT ( 'NONE',  ( 0.000000000000000000, 0.000000000000000000, 2.000000000000000000 ) ) ;
#303 = CARTESIAN_POINT ( 'NONE',  ( 180.0000000000000000, 45.00000000000000000, 5.000000000000000000 ) ) ;
#304 = VECTOR ( 'NONE', #183, 1000.000000000000000 ) ;
#305 = CARTESIAN_POINT ( 'NONE',  ( 90.00000000000000000, 49.00000000000000000, 1.899999999999999911 ) ) ;
#306 = VERTEX_POINT ( 'NONE', #147 ) ;
#307 = DIRECTION ( 'NONE',  ( 1.000000000000000000, 0.000000000000000000, 0.000000000000000000 ) ) ;
#308 = ORIENTED_EDGE ( 'NONE', *, *, #137, .F. ) ;
#309 = CARTESIAN_POINT ( 'NONE',  ( 90.00000000000000000, 20.99999999999999645, 5.000000000000000000 ) ) ;
#310 = EDGE_LOOP ( 'NONE', ( #155, #266, #244, #186 ) ) ;
#311 = APPROVAL_DATE_TIME ( #399, #356 ) ;
#312 = APPROVAL ( #239, 'UNSPECIFIED' ) ;
#313 = ORIENTED_EDGE ( 'NONE', *, *, #293, .F. ) ;
#314 = CARTESIAN_POINT ( 'NONE',  ( 180.0000000000000000, 45.00000000000000000, 2.000000000000000000 ) ) ;
#315 = PLANE ( 'NONE',  #447 ) ;
#316 = APPROVAL_STATUS ( 'not_yet_approved' ) ;
#317 = ADVANCED_FACE ( 'NONE', ( #218 ), #159, .T. ) ;
#318 = ORIENTED_EDGE ( 'NONE', *, *, #174, .T. ) ;
#319 = CARTESIAN_POINT ( 'NONE',  ( 90.00000000000000000, 23.00000000000000000, 5.000000000000000000 ) ) ;
#320 = VERTEX_POINT ( 'NONE', #201 ) ;
#321 = AXIS2_PLACEMENT_3D ( 'NONE', #181, #424, #231 ) ;
#322 = VECTOR ( 'NONE', #133, 1000.000000000000000 ) ;
#323 = ORIENTED_EDGE ( 'NONE', *, *, #375, .T. ) ;
#324 = CARTESIAN_POINT ( 'NONE',  ( 90.00000000000000000, 0.000000000000000000, 0.000000000000000000 ) ) ;
#325 = CC_DESIGN_DATE_AND_TIME_ASSIGNMENT ( #129, #289, ( #276 ) ) ;
#326 = PERSON_AND_ORGANIZATION ( #10, #235 ) ;
#327 = CARTESIAN_POINT ( 'NONE',  ( 90.00000000000000000, 0.000000000000000000, 2.000000000000000000 ) ) ;
#328 = VECTOR ( 'NONE', #412, 1000.000000000000000 ) ;
#329 = LINE ( 'NONE', #291, #322 ) ;
#330 = EDGE_CURVE ( 'NONE', #68, #114, #278, .T. ) ;
#331 = VECTOR ( 'NONE', #258, 1000.000000000000000 ) ;
#332 = LOCAL_TIME ( 11, 30, 35.00000000000000000, #463 ) ;
#333 = ORIENTED_EDGE ( 'NONE', *, *, #482, .F. ) ;
#334 = VECTOR ( 'NONE', #287, 1000.000000000000000 ) ;
#335 = CARTESIAN_POINT ( 'NONE',  ( 0.000000000000000000, 45.00000000000000000, 1.899999999999999911 ) ) ;
#336 = DIRECTION ( 'NONE',  ( -0.000000000000000000, 1.000000000000000000, 0.000000000000000000 ) ) ;
#337 = CARTESIAN_POINT ( 'NONE',  ( 0.000000000000000000, 25.00000000000000000, 5.000000000000000000 ) ) ;
#338 = DIRECTION ( 'NONE',  ( -1.000000000000000000, -0.000000000000000000, 0.000000000000000000 ) ) ;
#339 = DIRECTION ( 'NONE',  ( 0.000000000000000000, 0.000000000000000000, 1.000000000000000000 ) ) ;
#340 = CARTESIAN_POINT ( 'NONE',  ( 90.00000000000000000, 25.00000000000000000, 5.000000000000000000 ) ) ;
#341 = ORIENTED_EDGE ( 'NONE', *, *, #256, .F. ) ;
#342 = FACE_OUTER_BOUND ( 'NONE', #58, .T. ) ;
#343 = VECTOR ( 'NONE', #307, 1000.000000000000000 ) ;
#344 = ORIENTED_EDGE ( 'NONE', *, *, #489, .T. ) ;
#345 = FACE_OUTER_BOUND ( 'NONE', #65, .T. ) ;
#346 = ORIENTED_EDGE ( 'NONE', *, *, #253, .F. ) ;
#347 = ORIENTED_EDGE ( 'NONE', *, *, #83, .T. ) ;
#348 = CARTESIAN_POINT ( 'NONE',  ( 180.0000000000000000, 35.00000000000000000, 0.000000000000000000 ) ) ;
#349 = CARTESIAN_POINT ( 'NONE',  ( 180.0000000000000000, 49.00000000000000000, 1.899999999999999911 ) ) ;
#350 = DATE_TIME_ROLE ( 'classification_date' ) ;
#351 = EDGE_CURVE ( 'NONE', #281, #188, #474, .T. ) ;
#352 = ORIENTED_EDGE ( 'NONE', *, *, #485, .F. ) ;
#353 = DIRECTION ( 'NONE',  ( 1.000000000000000000, 0.000000000000000000, -0.000000000000000000 ) ) ;
#354 = VERTEX_POINT ( 'NONE', #92 ) ;
#355 = COORDINATED_UNIVERSAL_TIME_OFFSET ( 8, 0, .AHEAD. ) ;
#356 = APPROVAL ( #95, 'UNSPECIFIED' ) ;
#357 = ORIENTED_EDGE ( 'NONE', *, *, #296, .F. ) ;
#358 = DIRECTION ( 'NONE',  ( -0.000000000000000000, 1.000000000000000000, 0.000000000000000000 ) ) ;
#359 = DATE_AND_TIME ( #131, #79 ) ;
#360 = VECTOR ( 'NONE', #85, 1000.000000000000000 ) ;
#361 = FACE_OUTER_BOUND ( 'NONE', #393, .T. ) ;
#362 = CARTESIAN_POINT ( 'NONE',  ( 90.00000000000000000, 45.00000000000000000, 2.000000000000000000 ) ) ;
#363 = ADVANCED_FACE ( 'NONE', ( #361 ), #11, .T. ) ;
#364 = DIRECTION ( 'NONE',  ( 1.000000000000000000, 0.000000000000000000, 0.000000000000000000 ) ) ;
#365 = APPLICATION_CONTEXT ( 'configuration controlled 3d designs of mechanical parts and assemblies' ) ;
#366 = ORIENTED_EDGE ( 'NONE', *, *, #293, .T. ) ;
#367 = VECTOR ( 'NONE', #28, 1000.000000000000000 ) ;
#368 = VERTEX_POINT ( 'NONE', #41 ) ;
#369 = EDGE_CURVE ( 'NONE', #458, #162, #164, .T. ) ;
#370 = LINE ( 'NONE', #486, #280 ) ;
#371 = DIRECTION ( 'NONE',  ( 0.000000000000000000, 0.000000000000000000, 1.000000000000000000 ) ) ;
#372 = CARTESIAN_POINT ( 'NONE',  ( 0.000000000000000000, 35.00000000000000000, 0.000000000000000000 ) ) ;
#373 = APPROVAL_PERSON_ORGANIZATION ( #286, #312, #467 ) ;
#374 = CARTESIAN_POINT ( 'NONE',  ( 180.0000000000000000, 23.00000000000000000, 5.000000000000000000 ) ) ;
#375 = EDGE_CURVE ( 'NONE', #34, #320, #392, .T. ) ;
#376 = CARTESIAN_POINT ( 'NONE',  ( 90.00000000000000000, 49.00000000000000000, 5.000000000000000000 ) ) ;
#377 = CARTESIAN_POINT ( 'NONE',  ( 0.000000000000000000, 70.00000000000000000, 2.000000000000000000 ) ) ;
#378 = ORIENTED_EDGE ( 'NONE', *, *, #481, .F. ) ;
#379 = LINE ( 'NONE', #30, #100 ) ;
#380 = VERTEX_POINT ( 'NONE', #435 ) ;
#381 = LINE ( 'NONE', #26, #304 ) ;
#382 = CARTESIAN_POINT ( 'NONE',  ( 0.000000000000000000, 49.00000000000000000, 5.000000000000000000 ) ) ;
#383 = DIRECTION ( 'NONE',  ( -1.000000000000000000, 0.000000000000000000, 0.000000000000000000 ) ) ;
#384 = ORIENTED_EDGE ( 'NONE', *, *, #205, .T. ) ;
#385 = DIRECTION ( 'NONE',  ( -1.000000000000000000, -0.000000000000000000, 0.000000000000000000 ) ) ;
#386 = VECTOR ( 'NONE', #358, 1000.000000000000000 ) ;
#387 = DIRECTION ( 'NONE',  ( 0.000000000000000000, -1.000000000000000000, -0.000000000000000000 ) ) ;
#388 = ORIENTED_EDGE ( 'NONE', *, *, #98, .T. ) ;
#389 = DIRECTION ( 'NONE',  ( 0.000000000000000000, 0.000000000000000000, 1.000000000000000000 ) ) ;
#390 = ORIENTED_EDGE ( 'NONE', *, *, #256, .T. ) ;
#391 = EDGE_LOOP ( 'NONE', ( #460, #417, #346, #36 ) ) ;
#392 = LINE ( 'NONE', #8, #386 ) ;
#393 = EDGE_LOOP ( 'NONE', ( #197, #425, #211, #225 ) ) ;
#394 = LINE ( 'NONE', #282, #9 ) ;
#395 = PERSON_AND_ORGANIZATION_ROLE ( 'creator' ) ;
#396 = ORIENTED_EDGE ( 'NONE', *, *, #262, .T. ) ;
#397 = LOCAL_TIME ( 11, 30, 35.00000000000000000, #249 ) ;
#398 = CARTESIAN_POINT ( 'NONE',  ( 0.000000000000000000, 70.00000000000000000, 0.000000000000000000 ) ) ;
#399 = DATE_AND_TIME ( #51, #397 ) ;
#400 = ADVANCED_FACE ( 'NONE', ( #163 ), #438, .T. ) ;
#401 =( NAMED_UNIT ( * ) PLANE_ANGLE_UNIT ( ) SI_UNIT ( $, .RADIAN. ) );
#402 = ADVANCED_BREP_SHAPE_REPRESENTATION ( 'stage2_geometry', ( #213, #448 ), #295 ) ;
#403 = SECURITY_CLASSIFICATION ( '', '', #126 ) ;
#404 = DIRECTION ( 'NONE',  ( 0.000000000000000000, 0.000000000000000000, 1.000000000000000000 ) ) ;
#405 = CC_DESIGN_PERSON_AND_ORGANIZATION_ASSIGNMENT ( #90, #395, ( #276 ) ) ;
#406 = ORIENTED_EDGE ( 'NONE', *, *, #330, .F. ) ;
#407 = VECTOR ( 'NONE', #220, 1000.000000000000000 ) ;
#408 = EDGE_LOOP ( 'NONE', ( #283, #31, #308, #390 ) ) ;
#409 = LINE ( 'NONE', #144, #407 ) ;
#410 = DIRECTION ( 'NONE',  ( 0.000000000000000000, 0.000000000000000000, 1.000000000000000000 ) ) ;
#411 = EDGE_CURVE ( 'NONE', #242, #34, #46, .T. ) ;
#412 = DIRECTION ( 'NONE',  ( 0.000000000000000000, 0.000000000000000000, 1.000000000000000000 ) ) ;
#413 = CARTESIAN_POINT ( 'NONE',  ( 180.0000000000000000, 20.99999999999999645, 1.899999999999999911 ) ) ;
#414 = EDGE_CURVE ( 'NONE', #257, #281, #237, .T. ) ;
#415 = LINE ( 'NONE', #63, #343 ) ;
#416 = CARTESIAN_POINT ( 'NONE',  ( 0.000000000000000000, 49.00000000000000000, 1.899999999999999911 ) ) ;
#417 = ORIENTED_EDGE ( 'NONE', *, *, #199, .F. ) ;
#418 = PLANE ( 'NONE',  #265 ) ;
#419 = ORIENTED_EDGE ( 'NONE', *, *, #98, .F. ) ;
#420 = DIRECTION ( 'NONE',  ( 0.000000000000000000, -0.000000000000000000, 1.000000000000000000 ) ) ;
#421 = VERTEX_POINT ( 'NONE', #81 ) ;
#422 = FACE_OUTER_BOUND ( 'NONE', #136, .T. ) ;
#423 = VERTEX_POINT ( 'NONE', #89 ) ;
#424 = DIRECTION ( 'NONE',  ( 0.000000000000000000, -1.000000000000000000, 0.000000000000000000 ) ) ;
#425 = ORIENTED_EDGE ( 'NONE', *, *, #369, .T. ) ;
#426 = PRODUCT ( 'stage2_geometry', 'stage2_geometry', '', ( #55 ) ) ;
#427 = VECTOR ( 'NONE', #187, 1000.000000000000000 ) ;
#428 = VERTEX_POINT ( 'NONE', #477 ) ;
#429 = CARTESIAN_POINT ( 'NONE',  ( 90.00000000000000000, 49.00000000000000000, 2.000000000000000000 ) ) ;
#430 = APPROVAL_PERSON_ORGANIZATION ( #326, #445, #77 ) ;
#431 = EDGE_CURVE ( 'NONE', #162, #437, #394, .T. ) ;
#432 = DIRECTION ( 'NONE',  ( 0.000000000000000000, 0.000000000000000000, 1.000000000000000000 ) ) ;
#433 = PERSON_AND_ORGANIZATION ( #10, #235 ) ;
#434 = ORIENTED_EDGE ( 'NONE', *, *, #24, .T. ) ;
#435 = CARTESIAN_POINT ( 'NONE',  ( 0.000000000000000000, 20.99999999999999645, 5.000000000000000000 ) ) ;
#436 = EDGE_LOOP ( 'NONE', ( #384, #274, #7, #222, #122, #469, #116, #318, #84, #125, #111, #40 ) ) ;
#437 = VERTEX_POINT ( 'NONE', #123 ) ;
#438 = PLANE ( 'NONE',  #267 ) ;
#439 = CARTESIAN_POINT ( 'NONE',  ( 90.00000000000000000, 47.00000000000000000, 5.000000000000000000 ) ) ;
#440 = AXIS2_PLACEMENT_3D ( 'NONE', #453, #102, #150 ) ;
#441 =( LENGTH_UNIT ( ) NAMED_UNIT ( * ) SI_UNIT ( .MILLI., .METRE. ) );
#442 = ORIENTED_EDGE ( 'NONE', *, *, #137, .T. ) ;
#443 = PERSON_AND_ORGANIZATION ( #10, #235 ) ;
#444 = LINE ( 'NONE', #479, #23 ) ;
#445 = APPROVAL ( #316, 'UNSPECIFIED' ) ;
#446 = CC_DESIGN_SECURITY_CLASSIFICATION ( #403, ( #35 ) ) ;
#447 = AXIS2_PLACEMENT_3D ( 'NONE', #466, #432, #82 ) ;
#448 = AXIS2_PLACEMENT_3D ( 'NONE', #478, #404, #14 ) ;
#449 = LINE ( 'NONE', #145, #208 ) ;
#450 = DIRECTION ( 'NONE',  ( 0.000000000000000000, 0.000000000000000000, 1.000000000000000000 ) ) ;
#451 = CARTESIAN_POINT ( 'NONE',  ( 90.00000000000000000, 25.00000000000000000, 2.000000000000000000 ) ) ;
#452 = EDGE_CURVE ( 'NONE', #437, #380, #2, .T. ) ;
#453 = CARTESIAN_POINT ( 'NONE',  ( 90.00000000000000000, 25.00000000000000000, 1.899999999999999911 ) ) ;
#454 = PLANE ( 'NONE',  #468 ) ;
#455 = AXIS2_PLACEMENT_3D ( 'NONE', #348, #115, #221 ) ;
#456 = CARTESIAN_POINT ( 'NONE',  ( 180.0000000000000000, 49.00000000000000000, 2.000000000000000000 ) ) ;
#457 = LINE ( 'NONE', #374, #331 ) ;
#458 = VERTEX_POINT ( 'NONE', #156 ) ;
#459 = LINE ( 'NONE', #301, #328 ) ;
#460 = ORIENTED_EDGE ( 'NONE', *, *, #165, .F. ) ;
#461 = FACE_OUTER_BOUND ( 'NONE', #408, .T. ) ;
#462 = EDGE_LOOP ( 'NONE', ( #406, #120, #236, #192 ) ) ;
#463 = COORDINATED_UNIVERSAL_TIME_OFFSET ( 8, 0, .AHEAD. ) ;
#464 = ORIENTED_EDGE ( 'NONE', *, *, #87, .F. ) ;
#465 = LINE ( 'NONE', #349, #57 ) ;
#466 = CARTESIAN_POINT ( 'NONE',  ( 90.00000000000000000, 35.00000000000000000, 2.000000000000000000 ) ) ;
#467 = APPROVAL_ROLE ( '' ) ;
#468 = AXIS2_PLACEMENT_3D ( 'NONE', #305, #336, #152 ) ;
#469 = ORIENTED_EDGE ( 'NONE', *, *, #414, .F. ) ;
#470 = DIRECTION ( 'NONE',  ( 1.000000000000000000, 0.000000000000000000, -0.000000000000000000 ) ) ;
#471 = VECTOR ( 'NONE', #292, 1000.000000000000000 ) ;
#472 = VERTEX_POINT ( 'NONE', #314 ) ;
#473 = ORIENTED_EDGE ( 'NONE', *, *, #296, .T. ) ;
#474 = LINE ( 'NONE', #128, #251 ) ;
#475 = PERSON_AND_ORGANIZATION_ROLE ( 'creator' ) ;
#476 = EDGE_CURVE ( 'NONE', #68, #421, #465, .T. ) ;
#477 = CARTESIAN_POINT ( 'NONE',  ( 0.000000000000000000, 45.00000000000000000, 5.000000000000000000 ) ) ;
#478 = CARTESIAN_POINT ( 'NONE',  ( 0.000000000000000000, 0.000000000000000000, 0.000000000000000000 ) ) ;
#479 = CARTESIAN_POINT ( 'NONE',  ( 90.00000000000000000, 45.00000000000000000, 5.000000000000000000 ) ) ;
#480 = AXIS2_PLACEMENT_3D ( 'NONE', #497, #157, #232 ) ;
#481 = EDGE_CURVE ( 'NONE', #118, #428, #444, .T. ) ;
#482 = EDGE_CURVE ( 'NONE', #423, #472, #12, .T. ) ;
#483 = VECTOR ( 'NONE', #64, 1000.000000000000000 ) ;
#484 = LOCAL_TIME ( 11, 30, 35.00000000000000000, #355 ) ;
#485 = EDGE_CURVE ( 'NONE', #428, #1, #166, .T. ) ;
#486 = CARTESIAN_POINT ( 'NONE',  ( 180.0000000000000000, 35.00000000000000000, 2.000000000000000000 ) ) ;
#487 = CARTESIAN_POINT ( 'NONE',  ( 0.000000000000000000, 0.000000000000000000, 0.000000000000000000 ) ) ;
#488 = CARTESIAN_POINT ( 'NONE',  ( 90.00000000000000000, 35.00000000000000000, 0.000000000000000000 ) ) ;
#489 = EDGE_CURVE ( 'NONE', #368, #458, #50, .T. ) ;
#490 = CARTESIAN_POINT ( 'NONE',  ( 0.000000000000000000, 70.00000000000000000, 0.000000000000000000 ) ) ;
#491 = CARTESIAN_POINT ( 'NONE',  ( 0.000000000000000000, 49.00000000000000000, 2.000000000000000000 ) ) ;
#492 = LINE ( 'NONE', #413, #149 ) ;
#493 = VERTEX_POINT ( 'NONE', #172 ) ;
#494 = CARTESIAN_POINT ( 'NONE',  ( 180.0000000000000000, 0.000000000000000000, 0.000000000000000000 ) ) ;
#495 = ORIENTED_EDGE ( 'NONE', *, *, #165, .T. ) ;
#496 = DIRECTION ( 'NONE',  ( 1.000000000000000000, 0.000000000000000000, -0.000000000000000000 ) ) ;
#497 = CARTESIAN_POINT ( 'NONE',  ( 90.00000000000000000, 35.00000000000000000, 2.000000000000000000 ) ) ;
#498 = ORIENTED_EDGE ( 'NONE', *, *, #241, .T. ) ;
#499 = DIRECTION ( 'NONE',  ( 0.000000000000000000, 0.000000000000000000, 1.000000000000000000 ) ) ;
#500 = CARTESIAN_POINT ( 'NONE',  ( 0.000000000000000000, 25.00000000000000000, 2.000000000000000000 ) ) ;
#501 = EDGE_CURVE ( 'NONE', #114, #281, #329, .T. ) ;
ENDSEC;
END-ISO-10303-21;
