ISO-10303-21;
HEADER;
FILE_DESCRIPTION(('ViewDefinition[DesignTransferView]'),'2;1');
FILE_NAME('/dev/null','2026-04-21T16:33:35+00:00',(''),(''),'IfcOpenShell 0.8.5','IfcOpenShell 0.8.5','Nobody');
FILE_SCHEMA(('IFC4'));
ENDSEC;
DATA;
#1=IFCPROJECT('0KDllaIVb8deO2kzffj$KO',$,'c15 result',$,$,$,$,(#10),#5);
#2=IFCSIUNIT(*,.LENGTHUNIT.,.MILLI.,.METRE.);
#3=IFCSIUNIT(*,.AREAUNIT.,$,.SQUARE_METRE.);
#4=IFCSIUNIT(*,.VOLUMEUNIT.,$,.CUBIC_METRE.);
#5=IFCUNITASSIGNMENT((#4,#2,#3));
#6=IFCCARTESIANPOINT((0.,0.,0.));
#7=IFCDIRECTION((0.,0.,1.));
#8=IFCDIRECTION((1.,0.,0.));
#9=IFCAXIS2PLACEMENT3D(#6,#7,#8);
#10=IFCGEOMETRICREPRESENTATIONCONTEXT($,'Model',3,1.0000000000000001E-05,#9,$);
#11=IFCGEOMETRICREPRESENTATIONSUBCONTEXT('Body','Model',*,*,*,*,#10,$,.MODEL_VIEW.,$);
#12=IFCSITE('0wcfdgBXr4zhTJ9uLri7te',$,'Site',$,$,$,$,$,$,$,$,$,$,$);
#13=IFCBUILDING('1SaVTFgzL5_OMmZ4wrf8YP',$,'Building',$,$,$,$,$,$,$,$,$);
#14=IFCRELAGGREGATES('0ElrKbNsPAD9f7UF6PSrOw',$,$,$,#1,(#12));
#15=IFCRELAGGREGATES('2pi_tYfBH4Y8r1RyJSVPim',$,$,$,#12,(#13));
#16=IFCBUILDINGSTOREY('3ItvZ9cYv4uxHOXPACv9hS',$,'Ground Floor',$,$,#27,$,$,$,0.);
#22=IFCRELAGGREGATES('0$VLua9dnDKfhYUV_bV975',$,$,$,#13,(#28,#16));
#23=IFCCARTESIANPOINT((0.,0.,0.));
#24=IFCDIRECTION((0.,0.,1.));
#25=IFCDIRECTION((1.,0.,0.));
#26=IFCAXIS2PLACEMENT3D(#23,#24,#25);
#27=IFCLOCALPLACEMENT($,#26);
#28=IFCBUILDINGSTOREY('28IrxhqvH6Bhkf$dEX8fyD',$,'Level 1',$,$,#38,$,$,$,3.3999999999999999);
#34=IFCCARTESIANPOINT((0.,0.,3400.));
#35=IFCDIRECTION((0.,0.,1.));
#36=IFCDIRECTION((1.,0.,0.));
#37=IFCAXIS2PLACEMENT3D(#34,#35,#36);
#38=IFCLOCALPLACEMENT($,#37);
#39=IFCCLASSIFICATION($,$,$,'Uniclass 2015',$,$,$);
#40=IFCRELASSOCIATESCLASSIFICATION('0e46tpqxz5g9o6ztJvL_Nw',$,$,$,(#1),#39);
#41=IFCSPACE('3Iv2VOuEvA7w6evc9$ct1Q',$,'ATRIUM',$,$,#59,#48,$,$,$,$);
#42=IFCCARTESIANPOINTLIST2D(((0.,0.),(5000.,0.),(5000.,4000.),(0.,4000.),(0.,0.)));
#43=IFCINDEXEDPOLYCURVE(#42,$,$);
#44=IFCDIRECTION((0.,0.,1.));
#45=IFCARBITRARYCLOSEDPROFILEDEF(.AREA.,$,#43);
#46=IFCEXTRUDEDAREASOLID(#45,$,#44,6900.);
#47=IFCSHAPEREPRESENTATION(#11,'Body','SweptSolid',(#46));
#48=IFCPRODUCTDEFINITIONSHAPE($,$,(#47));
#54=IFCRELAGGREGATES('0l0wdvPbv56w4UWRRbFsBe',$,$,$,#16,(#134,#157,#65,#88,#111,#41));
#55=IFCCARTESIANPOINT((7000.,2000.,0.));
#56=IFCDIRECTION((0.,0.,1.));
#57=IFCDIRECTION((1.,0.,0.));
#58=IFCAXIS2PLACEMENT3D(#55,#56,#57);
#59=IFCLOCALPLACEMENT(#27,#58);
#60=IFCPROPERTYSET('2rzn74H8D8vwU7OLTyOM7L',$,'Pset_EngiWorld',$,(#62,#63,#64));
#61=IFCRELDEFINESBYPROPERTIES('2w92z9eA9AS8VkYH1$ETaP',$,$,$,(#41),#60);
#62=IFCPROPERTYSINGLEVALUE('ZoneNumber',$,IFCLABEL('ATRIUM'),$);
#63=IFCPROPERTYSINGLEVALUE('Area',$,IFCINTEGER(20),$);
#64=IFCPROPERTYSINGLEVALUE('Outdoor',$,IFCBOOLEAN(.F.),$);
#65=IFCSPACE('01QTupXBn5yg3kxCeyL$6r',$,'LAB-1',$,$,#82,#72,$,$,$,$);
#66=IFCCARTESIANPOINTLIST2D(((0.,0.),(7000.,0.),(7000.,4000.),(0.,4000.),(0.,0.)));
#67=IFCINDEXEDPOLYCURVE(#66,$,$);
#68=IFCDIRECTION((0.,0.,1.));
#69=IFCARBITRARYCLOSEDPROFILEDEF(.AREA.,$,#67);
#70=IFCEXTRUDEDAREASOLID(#69,$,#68,3000.);
#71=IFCSHAPEREPRESENTATION(#11,'Body','SweptSolid',(#70));
#72=IFCPRODUCTDEFINITIONSHAPE($,$,(#71));
#78=IFCCARTESIANPOINT((0.,0.,0.));
#79=IFCDIRECTION((0.,0.,1.));
#80=IFCDIRECTION((1.,0.,0.));
#81=IFCAXIS2PLACEMENT3D(#78,#79,#80);
#82=IFCLOCALPLACEMENT(#27,#81);
#83=IFCPROPERTYSET('0wc4oRlNT7AucIb1akr$Bo',$,'Pset_EngiWorld',$,(#85,#86,#87));
#84=IFCRELDEFINESBYPROPERTIES('22OIrpAX5ARhFX_IYC4R7M',$,$,$,(#65),#83);
#85=IFCPROPERTYSINGLEVALUE('ZoneNumber',$,IFCLABEL('LAB-1'),$);
#86=IFCPROPERTYSINGLEVALUE('Area',$,IFCINTEGER(28),$);
#87=IFCPROPERTYSINGLEVALUE('Outdoor',$,IFCBOOLEAN(.F.),$);
#88=IFCSPACE('2mW8dZ$BbBPOKTtapeaekd',$,'LAB-2',$,$,#105,#95,$,$,$,$);
#89=IFCCARTESIANPOINTLIST2D(((0.,0.),(7000.,0.),(7000.,4000.),(0.,4000.),(0.,0.)));
#90=IFCINDEXEDPOLYCURVE(#89,$,$);
#91=IFCDIRECTION((0.,0.,1.));
#92=IFCARBITRARYCLOSEDPROFILEDEF(.AREA.,$,#90);
#93=IFCEXTRUDEDAREASOLID(#92,$,#91,3000.);
#94=IFCSHAPEREPRESENTATION(#11,'Body','SweptSolid',(#93));
#95=IFCPRODUCTDEFINITIONSHAPE($,$,(#94));
#101=IFCCARTESIANPOINT((12000.,0.,0.));
#102=IFCDIRECTION((0.,0.,1.));
#103=IFCDIRECTION((1.,0.,0.));
#104=IFCAXIS2PLACEMENT3D(#101,#102,#103);
#105=IFCLOCALPLACEMENT(#27,#104);
#106=IFCPROPERTYSET('2gXiXOU_P8NhEur_x4VEco',$,'Pset_EngiWorld',$,(#108,#109,#110));
#107=IFCRELDEFINESBYPROPERTIES('3R47FmubT7eg9RDAvlYzgV',$,$,$,(#88),#106);
#108=IFCPROPERTYSINGLEVALUE('ZoneNumber',$,IFCLABEL('LAB-2'),$);
#109=IFCPROPERTYSINGLEVALUE('Area',$,IFCINTEGER(28),$);
#110=IFCPROPERTYSINGLEVALUE('Outdoor',$,IFCBOOLEAN(.F.),$);
#111=IFCSPACE('3bWNOmbD912ASYCum0ePsS',$,'PREP',$,$,#128,#118,$,$,$,$);
#112=IFCCARTESIANPOINTLIST2D(((0.,0.),(4000.,0.),(4000.,4000.),(0.,4000.),(0.,0.)));
#113=IFCINDEXEDPOLYCURVE(#112,$,$);
#114=IFCDIRECTION((0.,0.,1.));
#115=IFCARBITRARYCLOSEDPROFILEDEF(.AREA.,$,#113);
#116=IFCEXTRUDEDAREASOLID(#115,$,#114,3000.);
#117=IFCSHAPEREPRESENTATION(#11,'Body','SweptSolid',(#116));
#118=IFCPRODUCTDEFINITIONSHAPE($,$,(#117));
#124=IFCCARTESIANPOINT((0.,4000.,0.));
#125=IFCDIRECTION((0.,0.,1.));
#126=IFCDIRECTION((1.,0.,0.));
#127=IFCAXIS2PLACEMENT3D(#124,#125,#126);
#128=IFCLOCALPLACEMENT(#27,#127);
#129=IFCPROPERTYSET('16kNjduyfFOAbuJk5atIqO',$,'Pset_EngiWorld',$,(#131,#132,#133));
#130=IFCRELDEFINESBYPROPERTIES('2ZQsvHN310xPV8G1a12uki',$,$,$,(#111),#129);
#131=IFCPROPERTYSINGLEVALUE('ZoneNumber',$,IFCLABEL('PREP'),$);
#132=IFCPROPERTYSINGLEVALUE('Area',$,IFCINTEGER(16),$);
#133=IFCPROPERTYSINGLEVALUE('Outdoor',$,IFCBOOLEAN(.F.),$);
#134=IFCSPACE('0TjLU4s7PDd9Yyef5pFTTt',$,'STORAGE',$,$,#151,#141,$,$,$,$);
#135=IFCCARTESIANPOINTLIST2D(((0.,0.),(3000.,0.),(3000.,4000.),(0.,4000.),(0.,0.)));
#136=IFCINDEXEDPOLYCURVE(#135,$,$);
#137=IFCDIRECTION((0.,0.,1.));
#138=IFCARBITRARYCLOSEDPROFILEDEF(.AREA.,$,#136);
#139=IFCEXTRUDEDAREASOLID(#138,$,#137,3000.);
#140=IFCSHAPEREPRESENTATION(#11,'Body','SweptSolid',(#139));
#141=IFCPRODUCTDEFINITIONSHAPE($,$,(#140));
#147=IFCCARTESIANPOINT((4000.,4000.,0.));
#148=IFCDIRECTION((0.,0.,1.));
#149=IFCDIRECTION((1.,0.,0.));
#150=IFCAXIS2PLACEMENT3D(#147,#148,#149);
#151=IFCLOCALPLACEMENT(#27,#150);
#152=IFCPROPERTYSET('3W1Xr7Qgb2lA5cvTGvkY1Q',$,'Pset_EngiWorld',$,(#154,#155,#156));
#153=IFCRELDEFINESBYPROPERTIES('0sGXgoEqH0l8hug$xIVVtJ',$,$,$,(#134),#152);
#154=IFCPROPERTYSINGLEVALUE('ZoneNumber',$,IFCLABEL('STORAGE'),$);
#155=IFCPROPERTYSINGLEVALUE('Area',$,IFCINTEGER(12),$);
#156=IFCPROPERTYSINGLEVALUE('Outdoor',$,IFCBOOLEAN(.F.),$);
#157=IFCSPACE('2CMr_9eQ92fvn__aoAqAQr',$,'STAIR',$,$,#174,#164,$,$,$,$);
#158=IFCCARTESIANPOINTLIST2D(((0.,0.),(3000.,0.),(3000.,4000.),(0.,4000.),(0.,0.)));
#159=IFCINDEXEDPOLYCURVE(#158,$,$);
#160=IFCDIRECTION((0.,0.,1.));
#161=IFCARBITRARYCLOSEDPROFILEDEF(.AREA.,$,#159);
#162=IFCEXTRUDEDAREASOLID(#161,$,#160,6900.);
#163=IFCSHAPEREPRESENTATION(#11,'Body','SweptSolid',(#162));
#164=IFCPRODUCTDEFINITIONSHAPE($,$,(#163));
#170=IFCCARTESIANPOINT((12000.,4000.,0.));
#171=IFCDIRECTION((0.,0.,1.));
#172=IFCDIRECTION((1.,0.,0.));
#173=IFCAXIS2PLACEMENT3D(#170,#171,#172);
#174=IFCLOCALPLACEMENT(#27,#173);
#175=IFCPROPERTYSET('2_0_5FcZr8hg9SbAlO5BAA',$,'Pset_EngiWorld',$,(#177,#178,#179));
#176=IFCRELDEFINESBYPROPERTIES('1SiKJfdHn2Rfoix0R5Y0$T',$,$,$,(#157),#175);
#177=IFCPROPERTYSINGLEVALUE('ZoneNumber',$,IFCLABEL('STAIR'),$);
#178=IFCPROPERTYSINGLEVALUE('Area',$,IFCINTEGER(12),$);
#179=IFCPROPERTYSINGLEVALUE('Outdoor',$,IFCBOOLEAN(.F.),$);
#180=IFCSPACE('3gWFxGu9j6bAJlwA6K4zg1',$,'LAB-3',$,$,#198,#187,$,$,$,$);
#181=IFCCARTESIANPOINTLIST2D(((0.,0.),(7000.,0.),(7000.,4000.),(0.,4000.),(0.,0.)));
#182=IFCINDEXEDPOLYCURVE(#181,$,$);
#183=IFCDIRECTION((0.,0.,1.));
#184=IFCARBITRARYCLOSEDPROFILEDEF(.AREA.,$,#182);
#185=IFCEXTRUDEDAREASOLID(#184,$,#183,3000.);
#186=IFCSHAPEREPRESENTATION(#11,'Body','SweptSolid',(#185));
#187=IFCPRODUCTDEFINITIONSHAPE($,$,(#186));
#193=IFCRELAGGREGATES('3C97qAmbbFdw4Yxw_5SkG1',$,$,$,#28,(#180,#204));
#194=IFCCARTESIANPOINT((12000.,0.,0.));
#195=IFCDIRECTION((0.,0.,1.));
#196=IFCDIRECTION((1.,0.,0.));
#197=IFCAXIS2PLACEMENT3D(#194,#195,#196);
#198=IFCLOCALPLACEMENT(#38,#197);
#199=IFCPROPERTYSET('33zxvNQk117gJnupB2NQL3',$,'Pset_EngiWorld',$,(#201,#202,#203));
#200=IFCRELDEFINESBYPROPERTIES('0D6kuvIa9738XMflVww3zG',$,$,$,(#180),#199);
#201=IFCPROPERTYSINGLEVALUE('ZoneNumber',$,IFCLABEL('LAB-3'),$);
#202=IFCPROPERTYSINGLEVALUE('Area',$,IFCINTEGER(28),$);
#203=IFCPROPERTYSINGLEVALUE('Outdoor',$,IFCBOOLEAN(.F.),$);
#204=IFCSPACE('2sgOleMrjCMwihm5FHKmiI',$,'SEMINAR',$,$,#221,#211,$,$,$,$);
#205=IFCCARTESIANPOINTLIST2D(((0.,0.),(7000.,0.),(7000.,4000.),(0.,4000.),(0.,0.)));
#206=IFCINDEXEDPOLYCURVE(#205,$,$);
#207=IFCDIRECTION((0.,0.,1.));
#208=IFCARBITRARYCLOSEDPROFILEDEF(.AREA.,$,#206);
#209=IFCEXTRUDEDAREASOLID(#208,$,#207,3000.);
#210=IFCSHAPEREPRESENTATION(#11,'Body','SweptSolid',(#209));
#211=IFCPRODUCTDEFINITIONSHAPE($,$,(#210));
#217=IFCCARTESIANPOINT((0.,0.,0.));
#218=IFCDIRECTION((0.,0.,1.));
#219=IFCDIRECTION((1.,0.,0.));
#220=IFCAXIS2PLACEMENT3D(#217,#218,#219);
#221=IFCLOCALPLACEMENT(#38,#220);
#222=IFCPROPERTYSET('2mQGb1Cx5E0Bwv8V6dGJ1O',$,'Pset_EngiWorld',$,(#224,#225,#226));
#223=IFCRELDEFINESBYPROPERTIES('33bvvOrPHFhe5Y_Mu8EnPk',$,$,$,(#204),#222);
#224=IFCPROPERTYSINGLEVALUE('ZoneNumber',$,IFCLABEL('SEMINAR'),$);
#225=IFCPROPERTYSINGLEVALUE('Area',$,IFCINTEGER(28),$);
#226=IFCPROPERTYSINGLEVALUE('Outdoor',$,IFCBOOLEAN(.F.),$);
#227=IFCSLAB('1y15yqJ8j51f55I4SJooiZ',$,'LabSlab-G',$,$,#245,#234,$,$);
#228=IFCCARTESIANPOINTLIST2D(((0.,0.),(19000.,0.),(19000.,8000.),(0.,8000.),(0.,0.)));
#229=IFCINDEXEDPOLYCURVE(#228,$,$);
#230=IFCDIRECTION((0.,0.,1.));
#231=IFCARBITRARYCLOSEDPROFILEDEF(.AREA.,$,#229);
#232=IFCEXTRUDEDAREASOLID(#231,$,#230,200.);
#233=IFCSHAPEREPRESENTATION(#11,'Body','SweptSolid',(#232));
#234=IFCPRODUCTDEFINITIONSHAPE($,$,(#233));
#240=IFCRELCONTAINEDINSPATIALSTRUCTURE('0rlAALizn0VQvyHi$VbQ6C',$,$,$,(#283,#327,#227,#349,#305),#16);
#241=IFCCARTESIANPOINT((0.,0.,0.));
#242=IFCDIRECTION((0.,0.,1.));
#243=IFCDIRECTION((1.,0.,0.));
#244=IFCAXIS2PLACEMENT3D(#241,#242,#243);
#245=IFCLOCALPLACEMENT(#27,#244);
#246=IFCSLAB('3vPaL3vlDBFeWM28efdIA6',$,'LabSlab-1',$,$,#264,#253,$,$);
#247=IFCCARTESIANPOINTLIST2D(((0.,0.),(19000.,0.),(19000.,8000.),(0.,8000.),(0.,0.)));
#248=IFCINDEXEDPOLYCURVE(#247,$,$);
#249=IFCDIRECTION((0.,0.,1.));
#250=IFCARBITRARYCLOSEDPROFILEDEF(.AREA.,$,#248);
#251=IFCEXTRUDEDAREASOLID(#250,$,#249,200.);
#252=IFCSHAPEREPRESENTATION(#11,'Body','SweptSolid',(#251));
#253=IFCPRODUCTDEFINITIONSHAPE($,$,(#252));
#259=IFCRELCONTAINEDINSPATIALSTRUCTURE('0fcWCQzyTB4xQ7oqpZWarx',$,$,$,(#265,#415,#371,#393,#437,#246),#28);
#260=IFCCARTESIANPOINT((0.,0.,0.));
#261=IFCDIRECTION((0.,0.,1.));
#262=IFCDIRECTION((1.,0.,0.));
#263=IFCAXIS2PLACEMENT3D(#260,#261,#262);
#264=IFCLOCALPLACEMENT(#38,#263);
#265=IFCROOF('1eIdFPG8nF08oYSEW4WaOm',$,'LabRoof',$,$,#282,#272,$,$);
#266=IFCCARTESIANPOINTLIST2D(((0.,0.),(19000.,0.),(19000.,8000.),(0.,8000.),(0.,0.)));
#267=IFCINDEXEDPOLYCURVE(#266,$,$);
#268=IFCDIRECTION((0.,0.,1.));
#269=IFCARBITRARYCLOSEDPROFILEDEF(.AREA.,$,#267);
#270=IFCEXTRUDEDAREASOLID(#269,$,#268,250.);
#271=IFCSHAPEREPRESENTATION(#11,'Body','SweptSolid',(#270));
#272=IFCPRODUCTDEFINITIONSHAPE($,$,(#271));
#278=IFCCARTESIANPOINT((0.,0.,3000.0000000000005));
#279=IFCDIRECTION((0.,0.,1.));
#280=IFCDIRECTION((1.,0.,0.));
#281=IFCAXIS2PLACEMENT3D(#278,#279,#280);
#282=IFCLOCALPLACEMENT(#38,#281);
#283=IFCWALL('1B7wIMFCT6DAhY2p1L6pHP',$,'archicad-c-15-result-0-A',$,$,#304,#294,$,$);
#284=IFCCARTESIANPOINTLIST2D(((0.,0.),(0.,200.),(19000.,200.),(19000.,0.),(0.,0.)));
#285=IFCINDEXEDPOLYCURVE(#284,$,.F.);
#286=IFCDIRECTION((0.,0.,1.));
#287=IFCARBITRARYCLOSEDPROFILEDEF(.AREA.,$,#285);
#288=IFCCARTESIANPOINT((0.,0.,0.));
#289=IFCDIRECTION((0.,0.,1.));
#290=IFCDIRECTION((1.,0.,0.));
#291=IFCAXIS2PLACEMENT3D(#288,#289,#290);
#292=IFCEXTRUDEDAREASOLID(#287,#291,#286,3000.);
#293=IFCSHAPEREPRESENTATION(#11,'Body','SweptSolid',(#292));
#294=IFCPRODUCTDEFINITIONSHAPE($,$,(#293));
#300=IFCCARTESIANPOINT((0.,0.,0.));
#301=IFCDIRECTION((0.,0.,1.));
#302=IFCDIRECTION((1.,0.,0.));
#303=IFCAXIS2PLACEMENT3D(#300,#301,#302);
#304=IFCLOCALPLACEMENT(#27,#303);
#305=IFCWALL('1z8Hg_jNX2hQ_oKHxdlNlH',$,'archicad-c-15-result-0-B',$,$,#326,#316,$,$);
#306=IFCCARTESIANPOINTLIST2D(((0.,0.),(0.,200.),(8000.,200.),(8000.,0.),(0.,0.)));
#307=IFCINDEXEDPOLYCURVE(#306,$,.F.);
#308=IFCDIRECTION((0.,0.,1.));
#309=IFCARBITRARYCLOSEDPROFILEDEF(.AREA.,$,#307);
#310=IFCCARTESIANPOINT((0.,0.,0.));
#311=IFCDIRECTION((0.,0.,1.));
#312=IFCDIRECTION((1.,0.,0.));
#313=IFCAXIS2PLACEMENT3D(#310,#311,#312);
#314=IFCEXTRUDEDAREASOLID(#309,#313,#308,3000.);
#315=IFCSHAPEREPRESENTATION(#11,'Body','SweptSolid',(#314));
#316=IFCPRODUCTDEFINITIONSHAPE($,$,(#315));
#322=IFCCARTESIANPOINT((19000.,0.,0.));
#323=IFCDIRECTION((0.,0.,1.));
#324=IFCDIRECTION((6.123233995736766E-17,1.,0.));
#325=IFCAXIS2PLACEMENT3D(#322,#323,#324);
#326=IFCLOCALPLACEMENT(#27,#325);
#327=IFCWALL('0IXzL11MTCw8P7hol4i5W1',$,'archicad-c-15-result-0-C',$,$,#348,#338,$,$);
#328=IFCCARTESIANPOINTLIST2D(((0.,0.),(0.,200.),(19000.,200.),(19000.,0.),(0.,0.)));
#329=IFCINDEXEDPOLYCURVE(#328,$,.F.);
#330=IFCDIRECTION((0.,0.,1.));
#331=IFCARBITRARYCLOSEDPROFILEDEF(.AREA.,$,#329);
#332=IFCCARTESIANPOINT((0.,0.,0.));
#333=IFCDIRECTION((0.,0.,1.));
#334=IFCDIRECTION((1.,0.,0.));
#335=IFCAXIS2PLACEMENT3D(#332,#333,#334);
#336=IFCEXTRUDEDAREASOLID(#331,#335,#330,3000.);
#337=IFCSHAPEREPRESENTATION(#11,'Body','SweptSolid',(#336));
#338=IFCPRODUCTDEFINITIONSHAPE($,$,(#337));
#344=IFCCARTESIANPOINT((19000.,8000.,0.));
#345=IFCDIRECTION((0.,0.,1.));
#346=IFCDIRECTION((-1.,1.2246467991473532E-16,0.));
#347=IFCAXIS2PLACEMENT3D(#344,#345,#346);
#348=IFCLOCALPLACEMENT(#27,#347);
#349=IFCWALL('2Whmh7MSbBovFnps7k9NHj',$,'archicad-c-15-result-0-D',$,$,#370,#360,$,$);
#350=IFCCARTESIANPOINTLIST2D(((0.,0.),(0.,200.),(8000.,200.),(8000.,0.),(0.,0.)));
#351=IFCINDEXEDPOLYCURVE(#350,$,.F.);
#352=IFCDIRECTION((0.,0.,1.));
#353=IFCARBITRARYCLOSEDPROFILEDEF(.AREA.,$,#351);
#354=IFCCARTESIANPOINT((0.,0.,0.));
#355=IFCDIRECTION((0.,0.,1.));
#356=IFCDIRECTION((1.,0.,0.));
#357=IFCAXIS2PLACEMENT3D(#354,#355,#356);
#358=IFCEXTRUDEDAREASOLID(#353,#357,#352,3000.);
#359=IFCSHAPEREPRESENTATION(#11,'Body','SweptSolid',(#358));
#360=IFCPRODUCTDEFINITIONSHAPE($,$,(#359));
#366=IFCCARTESIANPOINT((0.,8000.,0.));
#367=IFCDIRECTION((0.,0.,1.));
#368=IFCDIRECTION((6.123233995736766E-17,-1.,0.));
#369=IFCAXIS2PLACEMENT3D(#366,#367,#368);
#370=IFCLOCALPLACEMENT(#27,#369);
#371=IFCWALL('02UVkLjpXCQAu2jlHsH2ac',$,'archicad-c-15-result-1-A',$,$,#392,#382,$,$);
#372=IFCCARTESIANPOINTLIST2D(((0.,0.),(0.,200.),(19000.,200.),(19000.,0.),(0.,0.)));
#373=IFCINDEXEDPOLYCURVE(#372,$,.F.);
#374=IFCDIRECTION((0.,0.,1.));
#375=IFCARBITRARYCLOSEDPROFILEDEF(.AREA.,$,#373);
#376=IFCCARTESIANPOINT((0.,0.,0.));
#377=IFCDIRECTION((0.,0.,1.));
#378=IFCDIRECTION((1.,0.,0.));
#379=IFCAXIS2PLACEMENT3D(#376,#377,#378);
#380=IFCEXTRUDEDAREASOLID(#375,#379,#374,3000.);
#381=IFCSHAPEREPRESENTATION(#11,'Body','SweptSolid',(#380));
#382=IFCPRODUCTDEFINITIONSHAPE($,$,(#381));
#388=IFCCARTESIANPOINT((0.,0.,0.));
#389=IFCDIRECTION((0.,0.,1.));
#390=IFCDIRECTION((1.,0.,0.));
#391=IFCAXIS2PLACEMENT3D(#388,#389,#390);
#392=IFCLOCALPLACEMENT(#38,#391);
#393=IFCWALL('1DNqbP$YrDHvr6qKvj7j2S',$,'archicad-c-15-result-1-B',$,$,#414,#404,$,$);
#394=IFCCARTESIANPOINTLIST2D(((0.,0.),(0.,200.),(8000.,200.),(8000.,0.),(0.,0.)));
#395=IFCINDEXEDPOLYCURVE(#394,$,.F.);
#396=IFCDIRECTION((0.,0.,1.));
#397=IFCARBITRARYCLOSEDPROFILEDEF(.AREA.,$,#395);
#398=IFCCARTESIANPOINT((0.,0.,0.));
#399=IFCDIRECTION((0.,0.,1.));
#400=IFCDIRECTION((1.,0.,0.));
#401=IFCAXIS2PLACEMENT3D(#398,#399,#400);
#402=IFCEXTRUDEDAREASOLID(#397,#401,#396,3000.);
#403=IFCSHAPEREPRESENTATION(#11,'Body','SweptSolid',(#402));
#404=IFCPRODUCTDEFINITIONSHAPE($,$,(#403));
#410=IFCCARTESIANPOINT((19000.,0.,0.));
#411=IFCDIRECTION((0.,0.,1.));
#412=IFCDIRECTION((6.123233995736766E-17,1.,0.));
#413=IFCAXIS2PLACEMENT3D(#410,#411,#412);
#414=IFCLOCALPLACEMENT(#38,#413);
#415=IFCWALL('0K63BMuNL5wOj67tiXXm2A',$,'archicad-c-15-result-1-C',$,$,#436,#426,$,$);
#416=IFCCARTESIANPOINTLIST2D(((0.,0.),(0.,200.),(19000.,200.),(19000.,0.),(0.,0.)));
#417=IFCINDEXEDPOLYCURVE(#416,$,.F.);
#418=IFCDIRECTION((0.,0.,1.));
#419=IFCARBITRARYCLOSEDPROFILEDEF(.AREA.,$,#417);
#420=IFCCARTESIANPOINT((0.,0.,0.));
#421=IFCDIRECTION((0.,0.,1.));
#422=IFCDIRECTION((1.,0.,0.));
#423=IFCAXIS2PLACEMENT3D(#420,#421,#422);
#424=IFCEXTRUDEDAREASOLID(#419,#423,#418,3000.);
#425=IFCSHAPEREPRESENTATION(#11,'Body','SweptSolid',(#424));
#426=IFCPRODUCTDEFINITIONSHAPE($,$,(#425));
#432=IFCCARTESIANPOINT((19000.,8000.,0.));
#433=IFCDIRECTION((0.,0.,1.));
#434=IFCDIRECTION((-1.,1.2246467991473532E-16,0.));
#435=IFCAXIS2PLACEMENT3D(#432,#433,#434);
#436=IFCLOCALPLACEMENT(#38,#435);
#437=IFCWALL('2dJN6QawvBDh0T0IsihM_k',$,'archicad-c-15-result-1-D',$,$,#458,#448,$,$);
#438=IFCCARTESIANPOINTLIST2D(((0.,0.),(0.,200.),(8000.,200.),(8000.,0.),(0.,0.)));
#439=IFCINDEXEDPOLYCURVE(#438,$,.F.);
#440=IFCDIRECTION((0.,0.,1.));
#441=IFCARBITRARYCLOSEDPROFILEDEF(.AREA.,$,#439);
#442=IFCCARTESIANPOINT((0.,0.,0.));
#443=IFCDIRECTION((0.,0.,1.));
#444=IFCDIRECTION((1.,0.,0.));
#445=IFCAXIS2PLACEMENT3D(#442,#443,#444);
#446=IFCEXTRUDEDAREASOLID(#441,#445,#440,3000.);
#447=IFCSHAPEREPRESENTATION(#11,'Body','SweptSolid',(#446));
#448=IFCPRODUCTDEFINITIONSHAPE($,$,(#447));
#454=IFCCARTESIANPOINT((0.,8000.,0.));
#455=IFCDIRECTION((0.,0.,1.));
#456=IFCDIRECTION((6.123233995736766E-17,-1.,0.));
#457=IFCAXIS2PLACEMENT3D(#454,#455,#456);
#458=IFCLOCALPLACEMENT(#38,#457);
ENDSEC;
END-ISO-10303-21;
