ISO-10303-21;
HEADER;
FILE_DESCRIPTION(('ViewDefinition[DesignTransferView]'),'2;1');
FILE_NAME('/dev/null','2026-04-21T15:07:12+00:00',(''),(''),'IfcOpenShell 0.8.5','IfcOpenShell 0.8.5','Nobody');
FILE_SCHEMA(('IFC4'));
ENDSEC;
DATA;
#1=IFCPROJECT('37K2AJefH01QnI24E2uWYC',$,'Semantic Office',$,$,$,$,(#10),#5);
#2=IFCSIUNIT(*,.LENGTHUNIT.,.MILLI.,.METRE.);
#3=IFCSIUNIT(*,.AREAUNIT.,$,.SQUARE_METRE.);
#4=IFCSIUNIT(*,.VOLUMEUNIT.,$,.CUBIC_METRE.);
#5=IFCUNITASSIGNMENT((#4,#2,#3));
#6=IFCCARTESIANPOINT((0.,0.,0.));
#7=IFCDIRECTION((0.,0.,1.));
#8=IFCDIRECTION((1.,0.,0.));
#9=IFCAXIS2PLACEMENT3D(#6,#7,#8);
#10=IFCGEOMETRICREPRESENTATIONCONTEXT($,'Model',3,1.0000000000000001E-05,#9,$);
#11=IFCGEOMETRICREPRESENTATIONSUBCONTEXT('Body','Model',*,*,*,*,#10,$,.MODEL_VIEW.,$);
#12=IFCSITE('3AK_K4ecj6Hhd23WQ6Zr_1',$,'Default Site',$,$,$,$,$,$,$,$,$,$,$);
#13=IFCBUILDING('1s_G9wfaP07hAaxxTGokCf',$,'Default Building',$,$,$,$,$,$,$,$,$);
#14=IFCRELAGGREGATES('2S5tcC7h5Ar8afb$7zt0Nb',$,$,$,#1,(#12));
#15=IFCRELAGGREGATES('0OasacyWz8Fe$lT$GFtwJs',$,$,$,#12,(#13));
#16=IFCBUILDINGSTOREY('0HYyx0zD10wwtahOeVHDFP',$,'Ground Floor',$,$,#30,$,$,$,$);
#22=IFCPROPERTYSET('2AKuta0tH5iACSaHQiE5cx',$,'EPset_StoreyMeta',$,(#24));
#23=IFCRELDEFINESBYPROPERTIES('3vvriexozFWfKNX75nkwzF',$,$,$,(#16),#22);
#24=IFCPROPERTYSINGLEVALUE('ElevationM',$,IFCREAL(0.),$);
#25=IFCRELAGGREGATES('3VSXLLwPbAmwyl$KIVG3pe',$,$,$,#13,(#16));
#26=IFCCARTESIANPOINT((0.,0.,0.));
#27=IFCDIRECTION((0.,0.,1.));
#28=IFCDIRECTION((1.,0.,0.));
#29=IFCAXIS2PLACEMENT3D(#26,#27,#28);
#30=IFCLOCALPLACEMENT($,#29);
#31=IFCSLAB('37cKaHIN5CieiuYVMi7CjD',$,'Office Slab',$,$,#49,#38,$,$);
#32=IFCCARTESIANPOINTLIST2D(((0.,0.),(12000.,0.),(12000.,10000.),(0.,10000.),(0.,0.)));
#33=IFCINDEXEDPOLYCURVE(#32,$,$);
#34=IFCDIRECTION((0.,0.,1.));
#35=IFCARBITRARYCLOSEDPROFILEDEF(.AREA.,$,#33);
#36=IFCEXTRUDEDAREASOLID(#35,$,#34,200.);
#37=IFCSHAPEREPRESENTATION(#11,'Body','SweptSolid',(#36));
#38=IFCPRODUCTDEFINITIONSHAPE($,$,(#37));
#44=IFCRELCONTAINEDINSPATIALSTRUCTURE('302PEds0r7uuxe6k0l_1UH',$,$,$,(#322,#163,#807,#229,#522,#922,#260,#198,#692,#128,#58,#31,#607,#437,#93),#16);
#45=IFCCARTESIANPOINT((0.,0.,0.));
#46=IFCDIRECTION((0.,0.,1.));
#47=IFCDIRECTION((1.,0.,0.));
#48=IFCAXIS2PLACEMENT3D(#45,#46,#47);
#49=IFCLOCALPLACEMENT(#30,#48);
#50=IFCPROPERTYSET('3qI6lLc8n28BS6vs6l6RBD',$,'EPset_Plan',$,(#52,#53));
#51=IFCRELDEFINESBYPROPERTIES('3IayerIhv7pu$TJDKpmwxL',$,$,$,(#31),#50);
#52=IFCPROPERTYSINGLEVALUE('Polygon2D',$,IFCLABEL('0.0000,0.0000;12.0000,0.0000;12.0000,10.0000;0.0000,10.0000'),$);
#53=IFCPROPERTYSINGLEVALUE('Category',$,IFCLABEL('IfcSlab'),$);
#54=IFCELEMENTQUANTITY('29SUh9JBf4C8pslRIA4HXj',$,'Qto_SlabBaseQuantities',$,'BaseQuantities',(#56,#57));
#55=IFCRELDEFINESBYPROPERTIES('2a$QnNB_T9vfWJkUvdarHD',$,$,$,(#31),#54);
#56=IFCQUANTITYAREA('NetArea',$,$,120.,$);
#57=IFCQUANTITYVOLUME('NetVolume',$,$,24.,$);
#58=IFCWALL('2kjH0Qy9n2kRaiWEpJ_Zzx',$,'Wall-S',$,$,#75,#65,$,$);
#59=IFCCARTESIANPOINTLIST2D(((0.,0.),(12000.,0.),(12000.,200.),(0.,200.),(0.,0.)));
#60=IFCINDEXEDPOLYCURVE(#59,$,$);
#61=IFCDIRECTION((0.,0.,1.));
#62=IFCARBITRARYCLOSEDPROFILEDEF(.AREA.,$,#60);
#63=IFCEXTRUDEDAREASOLID(#62,$,#61,3000.);
#64=IFCSHAPEREPRESENTATION(#11,'Body','SweptSolid',(#63));
#65=IFCPRODUCTDEFINITIONSHAPE($,$,(#64));
#71=IFCCARTESIANPOINT((0.,0.,200.));
#72=IFCDIRECTION((0.,0.,1.));
#73=IFCDIRECTION((1.,0.,0.));
#74=IFCAXIS2PLACEMENT3D(#71,#72,#73);
#75=IFCLOCALPLACEMENT(#30,#74);
#76=IFCPROPERTYSET('1H1FtqKTP77feeZ6$iqN3J',$,'EPset_Plan',$,(#78,#79));
#77=IFCRELDEFINESBYPROPERTIES('0iYMPXMLLBM9PxgpM36iTI',$,$,$,(#58),#76);
#78=IFCPROPERTYSINGLEVALUE('Polygon2D',$,IFCLABEL('0.0000,0.0000;12.0000,0.0000;12.0000,0.2000;0.0000,0.2000'),$);
#79=IFCPROPERTYSINGLEVALUE('Category',$,IFCLABEL('IfcWall'),$);
#80=IFCELEMENTQUANTITY('2kozabGgXDt9FbFVJCWDpV',$,'Qto_WallBaseQuantities',$,'BaseQuantities',(#82,#83));
#81=IFCRELDEFINESBYPROPERTIES('1LMk336M54DxQ9C2f8stPf',$,$,$,(#58),#80);
#82=IFCQUANTITYAREA('NetArea',$,$,36.,$);
#83=IFCQUANTITYVOLUME('NetVolume',$,$,7.2000000000000002,$);
#84=IFCPROPERTYSET('2_iUtiOPH8oebR0qJml7o0',$,'EPset_WallAxis',$,(#86,#87,#88,#89,#90,#91,#92));
#85=IFCRELDEFINESBYPROPERTIES('2ybhAO235CFfXTIC8Xm7nT',$,$,$,(#58),#84);
#86=IFCPROPERTYSINGLEVALUE('StartX',$,IFCINTEGER(0),$);
#87=IFCPROPERTYSINGLEVALUE('StartY',$,IFCINTEGER(0),$);
#88=IFCPROPERTYSINGLEVALUE('EndX',$,IFCINTEGER(12),$);
#89=IFCPROPERTYSINGLEVALUE('EndY',$,IFCINTEGER(0),$);
#90=IFCPROPERTYSINGLEVALUE('Thickness',$,IFCREAL(0.20000000000000001),$);
#91=IFCPROPERTYSINGLEVALUE('Height',$,IFCREAL(3.),$);
#92=IFCPROPERTYSINGLEVALUE('IsExternal',$,IFCBOOLEAN(.T.),$);
#93=IFCWALL('3YbG5UoRX5mfnPWPbvTqpj',$,'Wall-N',$,$,#110,#100,$,$);
#94=IFCCARTESIANPOINTLIST2D(((0.,9800.),(12000.,9800.),(12000.,10000.),(0.,10000.),(0.,9800.)));
#95=IFCINDEXEDPOLYCURVE(#94,$,$);
#96=IFCDIRECTION((0.,0.,1.));
#97=IFCARBITRARYCLOSEDPROFILEDEF(.AREA.,$,#95);
#98=IFCEXTRUDEDAREASOLID(#97,$,#96,3000.);
#99=IFCSHAPEREPRESENTATION(#11,'Body','SweptSolid',(#98));
#100=IFCPRODUCTDEFINITIONSHAPE($,$,(#99));
#106=IFCCARTESIANPOINT((0.,0.,200.));
#107=IFCDIRECTION((0.,0.,1.));
#108=IFCDIRECTION((1.,0.,0.));
#109=IFCAXIS2PLACEMENT3D(#106,#107,#108);
#110=IFCLOCALPLACEMENT(#30,#109);
#111=IFCPROPERTYSET('2iFSJC9S14r9hKCtBQcQ0u',$,'EPset_Plan',$,(#113,#114));
#112=IFCRELDEFINESBYPROPERTIES('2teNMf5MfBze0JlLoUxOIu',$,$,$,(#93),#111);
#113=IFCPROPERTYSINGLEVALUE('Polygon2D',$,IFCLABEL('0.0000,9.8000;12.0000,9.8000;12.0000,10.0000;0.0000,10.0000'),$);
#114=IFCPROPERTYSINGLEVALUE('Category',$,IFCLABEL('IfcWall'),$);
#115=IFCELEMENTQUANTITY('2PcQuNrRb4Af0JOBYLy3Bj',$,'Qto_WallBaseQuantities',$,'BaseQuantities',(#117,#118));
#116=IFCRELDEFINESBYPROPERTIES('3Nac8lWa56sfTrnrQAUsLg',$,$,$,(#93),#115);
#117=IFCQUANTITYAREA('NetArea',$,$,36.,$);
#118=IFCQUANTITYVOLUME('NetVolume',$,$,7.2000000000000002,$);
#119=IFCPROPERTYSET('18Zas_h5f8juey80ovipLP',$,'EPset_WallAxis',$,(#121,#122,#123,#124,#125,#126,#127));
#120=IFCRELDEFINESBYPROPERTIES('2PhI36ISnAYADzf8cwDN$2',$,$,$,(#93),#119);
#121=IFCPROPERTYSINGLEVALUE('StartX',$,IFCINTEGER(0),$);
#122=IFCPROPERTYSINGLEVALUE('StartY',$,IFCREAL(9.8000000000000007),$);
#123=IFCPROPERTYSINGLEVALUE('EndX',$,IFCINTEGER(12),$);
#124=IFCPROPERTYSINGLEVALUE('EndY',$,IFCREAL(9.8000000000000007),$);
#125=IFCPROPERTYSINGLEVALUE('Thickness',$,IFCREAL(0.20000000000000001),$);
#126=IFCPROPERTYSINGLEVALUE('Height',$,IFCREAL(3.),$);
#127=IFCPROPERTYSINGLEVALUE('IsExternal',$,IFCBOOLEAN(.T.),$);
#128=IFCWALL('1YrLmCLpbDQxGiBHfNC$Wz',$,'Wall-W',$,$,#145,#135,$,$);
#129=IFCCARTESIANPOINTLIST2D(((0.,0.),(6.1232339957367665E-13,10000.),(-199.9999999999994,10000.),(-200.,1.2246467991473532E-14),(0.,0.)));
#130=IFCINDEXEDPOLYCURVE(#129,$,$);
#131=IFCDIRECTION((0.,0.,1.));
#132=IFCARBITRARYCLOSEDPROFILEDEF(.AREA.,$,#130);
#133=IFCEXTRUDEDAREASOLID(#132,$,#131,3000.);
#134=IFCSHAPEREPRESENTATION(#11,'Body','SweptSolid',(#133));
#135=IFCPRODUCTDEFINITIONSHAPE($,$,(#134));
#141=IFCCARTESIANPOINT((0.,0.,200.));
#142=IFCDIRECTION((0.,0.,1.));
#143=IFCDIRECTION((1.,0.,0.));
#144=IFCAXIS2PLACEMENT3D(#141,#142,#143);
#145=IFCLOCALPLACEMENT(#30,#144);
#146=IFCPROPERTYSET('2r4byWQQH25RGAlI4SdCjP',$,'EPset_Plan',$,(#148,#149));
#147=IFCRELDEFINESBYPROPERTIES('3oZDr3KnXCrQ6a3uLZopqn',$,$,$,(#128),#146);
#148=IFCPROPERTYSINGLEVALUE('Polygon2D',$,IFCLABEL('0.0000,0.0000;0.0000,10.0000;-0.2000,10.0000;-0.2000,0.0000'),$);
#149=IFCPROPERTYSINGLEVALUE('Category',$,IFCLABEL('IfcWall'),$);
#150=IFCELEMENTQUANTITY('0KWFLlPs52ygIJEl2c2ThC',$,'Qto_WallBaseQuantities',$,'BaseQuantities',(#152,#153));
#151=IFCRELDEFINESBYPROPERTIES('0zVj4uZF51YgKrkAnpavug',$,$,$,(#128),#150);
#152=IFCQUANTITYAREA('NetArea',$,$,30.,$);
#153=IFCQUANTITYVOLUME('NetVolume',$,$,6.,$);
#154=IFCPROPERTYSET('19zLmF99f7exCw5VfSHYb4',$,'EPset_WallAxis',$,(#156,#157,#158,#159,#160,#161,#162));
#155=IFCRELDEFINESBYPROPERTIES('1BdBenyWDE_Q6AvyPJJK3t',$,$,$,(#128),#154);
#156=IFCPROPERTYSINGLEVALUE('StartX',$,IFCINTEGER(0),$);
#157=IFCPROPERTYSINGLEVALUE('StartY',$,IFCINTEGER(0),$);
#158=IFCPROPERTYSINGLEVALUE('EndX',$,IFCINTEGER(0),$);
#159=IFCPROPERTYSINGLEVALUE('EndY',$,IFCINTEGER(10),$);
#160=IFCPROPERTYSINGLEVALUE('Thickness',$,IFCREAL(0.20000000000000001),$);
#161=IFCPROPERTYSINGLEVALUE('Height',$,IFCREAL(3.),$);
#162=IFCPROPERTYSINGLEVALUE('IsExternal',$,IFCBOOLEAN(.T.),$);
#163=IFCWALL('0b4ZsQ1av4AP8DmMyhWmho',$,'Wall-E',$,$,#180,#170,$,$);
#164=IFCCARTESIANPOINTLIST2D(((11800.,0.),(11800.,10000.),(11600.000000000002,10000.),(11600.000000000002,1.2246467991473532E-14),(11800.,0.)));
#165=IFCINDEXEDPOLYCURVE(#164,$,$);
#166=IFCDIRECTION((0.,0.,1.));
#167=IFCARBITRARYCLOSEDPROFILEDEF(.AREA.,$,#165);
#168=IFCEXTRUDEDAREASOLID(#167,$,#166,3000.);
#169=IFCSHAPEREPRESENTATION(#11,'Body','SweptSolid',(#168));
#170=IFCPRODUCTDEFINITIONSHAPE($,$,(#169));
#176=IFCCARTESIANPOINT((0.,0.,200.));
#177=IFCDIRECTION((0.,0.,1.));
#178=IFCDIRECTION((1.,0.,0.));
#179=IFCAXIS2PLACEMENT3D(#176,#177,#178);
#180=IFCLOCALPLACEMENT(#30,#179);
#181=IFCPROPERTYSET('0D0t9NJdvD7QBAiPTTBK6E',$,'EPset_Plan',$,(#183,#184));
#182=IFCRELDEFINESBYPROPERTIES('1zRRi6CXf8wvJdtEOhp6$C',$,$,$,(#163),#181);
#183=IFCPROPERTYSINGLEVALUE('Polygon2D',$,IFCLABEL('11.8000,0.0000;11.8000,10.0000;11.6000,10.0000;11.6000,0.0000'),$);
#184=IFCPROPERTYSINGLEVALUE('Category',$,IFCLABEL('IfcWall'),$);
#185=IFCELEMENTQUANTITY('2VCI8WbiP0QwpxxtraObqs',$,'Qto_WallBaseQuantities',$,'BaseQuantities',(#187,#188));
#186=IFCRELDEFINESBYPROPERTIES('2RAfSU1uvDTQq31ZBbl$5g',$,$,$,(#163),#185);
#187=IFCQUANTITYAREA('NetArea',$,$,30.,$);
#188=IFCQUANTITYVOLUME('NetVolume',$,$,6.,$);
#189=IFCPROPERTYSET('1Cd117NCv7oxxBQDmmhXn$',$,'EPset_WallAxis',$,(#191,#192,#193,#194,#195,#196,#197));
#190=IFCRELDEFINESBYPROPERTIES('0hpJmrMjP5$xMvgu0AD8x_',$,$,$,(#163),#189);
#191=IFCPROPERTYSINGLEVALUE('StartX',$,IFCREAL(11.800000000000001),$);
#192=IFCPROPERTYSINGLEVALUE('StartY',$,IFCINTEGER(0),$);
#193=IFCPROPERTYSINGLEVALUE('EndX',$,IFCREAL(11.800000000000001),$);
#194=IFCPROPERTYSINGLEVALUE('EndY',$,IFCINTEGER(10),$);
#195=IFCPROPERTYSINGLEVALUE('Thickness',$,IFCREAL(0.20000000000000001),$);
#196=IFCPROPERTYSINGLEVALUE('Height',$,IFCREAL(3.),$);
#197=IFCPROPERTYSINGLEVALUE('IsExternal',$,IFCBOOLEAN(.T.),$);
#198=IFCWALL('2ULhBoLCT1QQdyK4e8SNst',$,'Part-1',$,$,#215,#205,$,$);
#199=IFCCARTESIANPOINTLIST2D(((4000.,200.),(4000.0000000000009,9800.),(3800.0000000000005,9800.),(3799.9999999999995,200.),(4000.,200.)));
#200=IFCINDEXEDPOLYCURVE(#199,$,$);
#201=IFCDIRECTION((0.,0.,1.));
#202=IFCARBITRARYCLOSEDPROFILEDEF(.AREA.,$,#200);
#203=IFCEXTRUDEDAREASOLID(#202,$,#201,3000.);
#204=IFCSHAPEREPRESENTATION(#11,'Body','SweptSolid',(#203));
#205=IFCPRODUCTDEFINITIONSHAPE($,$,(#204));
#211=IFCCARTESIANPOINT((0.,0.,200.));
#212=IFCDIRECTION((0.,0.,1.));
#213=IFCDIRECTION((1.,0.,0.));
#214=IFCAXIS2PLACEMENT3D(#211,#212,#213);
#215=IFCLOCALPLACEMENT(#30,#214);
#216=IFCPROPERTYSET('3BdwzNTSP3IAwV1Vth_mUG',$,'EPset_Plan',$,(#218,#219));
#217=IFCRELDEFINESBYPROPERTIES('0$NM3oQF15IgNrl$RxOxeJ',$,$,$,(#198),#216);
#218=IFCPROPERTYSINGLEVALUE('Polygon2D',$,IFCLABEL('4.0000,0.2000;4.0000,9.8000;3.8000,9.8000;3.8000,0.2000'),$);
#219=IFCPROPERTYSINGLEVALUE('Category',$,IFCLABEL('IfcWall'),$);
#220=IFCPROPERTYSET('3zCJ54pXP63fZ3DBwmLydR',$,'EPset_WallAxis',$,(#222,#223,#224,#225,#226,#227,#228));
#221=IFCRELDEFINESBYPROPERTIES('3OydPzdejDaeYitVeDr$3K',$,$,$,(#198),#220);
#222=IFCPROPERTYSINGLEVALUE('StartX',$,IFCREAL(4.),$);
#223=IFCPROPERTYSINGLEVALUE('StartY',$,IFCREAL(0.20000000000000001),$);
#224=IFCPROPERTYSINGLEVALUE('EndX',$,IFCREAL(4.),$);
#225=IFCPROPERTYSINGLEVALUE('EndY',$,IFCREAL(9.8000000000000007),$);
#226=IFCPROPERTYSINGLEVALUE('Thickness',$,IFCREAL(0.20000000000000001),$);
#227=IFCPROPERTYSINGLEVALUE('Height',$,IFCREAL(3.),$);
#228=IFCPROPERTYSINGLEVALUE('IsExternal',$,IFCBOOLEAN(.F.),$);
#229=IFCWALL('31ucEWG_r10AY_Wamxznwm',$,'Part-2',$,$,#246,#236,$,$);
#230=IFCCARTESIANPOINTLIST2D(((8000.,200.),(8000.,9800.),(7800.0000000000009,9800.),(7800.,200.),(8000.,200.)));
#231=IFCINDEXEDPOLYCURVE(#230,$,$);
#232=IFCDIRECTION((0.,0.,1.));
#233=IFCARBITRARYCLOSEDPROFILEDEF(.AREA.,$,#231);
#234=IFCEXTRUDEDAREASOLID(#233,$,#232,3000.);
#235=IFCSHAPEREPRESENTATION(#11,'Body','SweptSolid',(#234));
#236=IFCPRODUCTDEFINITIONSHAPE($,$,(#235));
#242=IFCCARTESIANPOINT((0.,0.,200.));
#243=IFCDIRECTION((0.,0.,1.));
#244=IFCDIRECTION((1.,0.,0.));
#245=IFCAXIS2PLACEMENT3D(#242,#243,#244);
#246=IFCLOCALPLACEMENT(#30,#245);
#247=IFCPROPERTYSET('1izjAMHmv3V9PKrtmHw2_S',$,'EPset_Plan',$,(#249,#250));
#248=IFCRELDEFINESBYPROPERTIES('1CFazhU$n7og_ogXVrnzoZ',$,$,$,(#229),#247);
#249=IFCPROPERTYSINGLEVALUE('Polygon2D',$,IFCLABEL('8.0000,0.2000;8.0000,9.8000;7.8000,9.8000;7.8000,0.2000'),$);
#250=IFCPROPERTYSINGLEVALUE('Category',$,IFCLABEL('IfcWall'),$);
#251=IFCPROPERTYSET('3iwn0mi1TAZx$8pbQPwU0u',$,'EPset_WallAxis',$,(#253,#254,#255,#256,#257,#258,#259));
#252=IFCRELDEFINESBYPROPERTIES('3H4Sq9fk58O8i5PXTpqI8z',$,$,$,(#229),#251);
#253=IFCPROPERTYSINGLEVALUE('StartX',$,IFCREAL(8.),$);
#254=IFCPROPERTYSINGLEVALUE('StartY',$,IFCREAL(0.20000000000000001),$);
#255=IFCPROPERTYSINGLEVALUE('EndX',$,IFCREAL(8.),$);
#256=IFCPROPERTYSINGLEVALUE('EndY',$,IFCREAL(9.8000000000000007),$);
#257=IFCPROPERTYSINGLEVALUE('Thickness',$,IFCREAL(0.20000000000000001),$);
#258=IFCPROPERTYSINGLEVALUE('Height',$,IFCREAL(3.),$);
#259=IFCPROPERTYSINGLEVALUE('IsExternal',$,IFCBOOLEAN(.F.),$);
#260=IFCWALL('0Y_NmUYqXCm8dsXel0pSGk',$,'Part-3',$,$,#277,#267,$,$);
#261=IFCCARTESIANPOINTLIST2D(((8000.,5000.),(11800.,5000.),(11800.,5200.),(8000.,5200.),(8000.,5000.)));
#262=IFCINDEXEDPOLYCURVE(#261,$,$);
#263=IFCDIRECTION((0.,0.,1.));
#264=IFCARBITRARYCLOSEDPROFILEDEF(.AREA.,$,#262);
#265=IFCEXTRUDEDAREASOLID(#264,$,#263,3000.);
#266=IFCSHAPEREPRESENTATION(#11,'Body','SweptSolid',(#265));
#267=IFCPRODUCTDEFINITIONSHAPE($,$,(#266));
#273=IFCCARTESIANPOINT((0.,0.,200.));
#274=IFCDIRECTION((0.,0.,1.));
#275=IFCDIRECTION((1.,0.,0.));
#276=IFCAXIS2PLACEMENT3D(#273,#274,#275);
#277=IFCLOCALPLACEMENT(#30,#276);
#278=IFCPROPERTYSET('15pzlOhZP6hwRrt2skyNvT',$,'EPset_Plan',$,(#280,#281));
#279=IFCRELDEFINESBYPROPERTIES('0fpEGAUML7SOmKInWuaRwk',$,$,$,(#260),#278);
#280=IFCPROPERTYSINGLEVALUE('Polygon2D',$,IFCLABEL('8.0000,5.0000;11.8000,5.0000;11.8000,5.2000;8.0000,5.2000'),$);
#281=IFCPROPERTYSINGLEVALUE('Category',$,IFCLABEL('IfcWall'),$);
#282=IFCPROPERTYSET('1ib5kOqr5FY9VZcMT9iw7H',$,'EPset_WallAxis',$,(#284,#285,#286,#287,#288,#289,#290));
#283=IFCRELDEFINESBYPROPERTIES('1CtQb2C7L60wxI3sM4tOBP',$,$,$,(#260),#282);
#284=IFCPROPERTYSINGLEVALUE('StartX',$,IFCREAL(8.),$);
#285=IFCPROPERTYSINGLEVALUE('StartY',$,IFCREAL(5.),$);
#286=IFCPROPERTYSINGLEVALUE('EndX',$,IFCREAL(11.800000000000001),$);
#287=IFCPROPERTYSINGLEVALUE('EndY',$,IFCREAL(5.),$);
#288=IFCPROPERTYSINGLEVALUE('Thickness',$,IFCREAL(0.20000000000000001),$);
#289=IFCPROPERTYSINGLEVALUE('Height',$,IFCREAL(3.),$);
#290=IFCPROPERTYSINGLEVALUE('IsExternal',$,IFCBOOLEAN(.F.),$);
#291=IFCELEMENTQUANTITY('1IsBzleHr6RxCVdQqS_BnX',$,'Qto_WallBaseQuantities',$,'BaseQuantities',(#293,#294));
#292=IFCRELDEFINESBYPROPERTIES('2cU3fm5RDBpxN_BoIjZS0L',$,$,$,(#198),#291);
#293=IFCQUANTITYAREA('NetArea',$,$,5.7599999999999998,$);
#294=IFCQUANTITYVOLUME('NetVolume',$,$,5.7599999999999998,$);
#295=IFCELEMENTQUANTITY('2aJ8jI5gL8jeVzMrGSC$lf',$,'Qto_WallBaseQuantities',$,'BaseQuantities',(#297,#298));
#296=IFCRELDEFINESBYPROPERTIES('1Z7M6RNv50F9o6RD$suj07',$,$,$,(#229),#295);
#297=IFCQUANTITYAREA('NetArea',$,$,5.7599999999999998,$);
#298=IFCQUANTITYVOLUME('NetVolume',$,$,5.7599999999999998,$);
#299=IFCELEMENTQUANTITY('3mp454DK90tfzOiO8Mpwv8',$,'Qto_WallBaseQuantities',$,'BaseQuantities',(#301,#302));
#300=IFCRELDEFINESBYPROPERTIES('3BmuximAH10eBng5azNJ2l',$,$,$,(#260),#299);
#301=IFCQUANTITYAREA('NetArea',$,$,2.2799999999999998,$);
#302=IFCQUANTITYVOLUME('NetVolume',$,$,2.2799999999999998,$);
#303=IFCOPENINGELEMENT('3t$7JZ4b9EgeBdm$p9qJDu',$,'Entry Door-Opening',$,$,#321,#310,$,$);
#304=IFCCARTESIANPOINTLIST2D(((1200.,0.),(2300.,0.),(2300.,200.),(1200.,200.),(1200.,0.)));
#305=IFCINDEXEDPOLYCURVE(#304,$,$);
#306=IFCDIRECTION((0.,0.,1.));
#307=IFCARBITRARYCLOSEDPROFILEDEF(.AREA.,$,#305);
#308=IFCEXTRUDEDAREASOLID(#307,$,#306,2100.);
#309=IFCSHAPEREPRESENTATION(#11,'Body','SweptSolid',(#308));
#310=IFCPRODUCTDEFINITIONSHAPE($,$,(#309));
#316=IFCRELVOIDSELEMENT('2D_Qmf7IX0RP30SM4gAhiA',$,$,$,#58,#303);
#317=IFCCARTESIANPOINT((0.,0.,0.));
#318=IFCDIRECTION((0.,0.,1.));
#319=IFCDIRECTION((1.,0.,0.));
#320=IFCAXIS2PLACEMENT3D(#317,#318,#319);
#321=IFCLOCALPLACEMENT(#75,#320);
#322=IFCDOOR('2NyMqoP3D4DBWsEwmjWmnU',$,'Entry Door',$,$,#406,#396,$,$,$,$,$,$);
#323=IFCCARTESIANPOINTLIST2D(((0.,0.),(0.,2.1000000000000001),(1.1000000000000001,2.1000000000000001),(1.1000000000000001,0.),(-23.899999999999999,0.),(-23.899999999999999,-22.899999999999999),(25.,-22.899999999999999),(25.,0.)));
#324=IFCINDEXEDPOLYCURVE(#323,(IFCLINEINDEX((1,2,3,4,5,6,7,8,1))),$);
#325=IFCARBITRARYCLOSEDPROFILEDEF(.AREA.,$,#324);
#326=IFCCARTESIANPOINT((0.,25.,0.));
#327=IFCDIRECTION((0.,-1.,0.));
#328=IFCDIRECTION((1.,0.,0.));
#329=IFCAXIS2PLACEMENT3D(#326,#327,#328);
#330=IFCDIRECTION((0.,0.,-1.));
#331=IFCEXTRUDEDAREASOLID(#325,#329,#330,25.);
#332=IFCCARTESIANPOINTLIST2D(((0.,0.),(0.,2.1000000000000001),(1.1000000000000001,2.1000000000000001),(1.1000000000000001,0.),(-48.899999999999999,0.),(-48.899999999999999,-47.899999999999999),(50.,-47.899999999999999),(50.,0.)));
#333=IFCINDEXEDPOLYCURVE(#332,(IFCLINEINDEX((1,2,3,4,5,6,7,8,1))),$);
#334=IFCARBITRARYCLOSEDPROFILEDEF(.AREA.,$,#333);
#335=IFCCARTESIANPOINT((0.,0.,0.));
#336=IFCDIRECTION((0.,-1.,0.));
#337=IFCDIRECTION((1.,0.,0.));
#338=IFCAXIS2PLACEMENT3D(#335,#336,#337);
#339=IFCDIRECTION((0.,0.,-1.));
#340=IFCEXTRUDEDAREASOLID(#334,#338,#339,25.);
#341=IFCCARTESIANPOINTLIST2D(((0.,0.),(-98.900000000000006,0.),(-98.900000000000006,100.),(0.,100.)));
#342=IFCINDEXEDPOLYCURVE(#341,(IFCLINEINDEX((1,2,3,4,1))),$);
#343=IFCARBITRARYCLOSEDPROFILEDEF(.AREA.,$,#342);
#344=IFCCARTESIANPOINT((50.,0.,0.));
#345=IFCDIRECTION((0.,0.,1.));
#346=IFCDIRECTION((1.,0.,0.));
#347=IFCAXIS2PLACEMENT3D(#344,#345,#346);
#348=IFCDIRECTION((0.,0.,1.));
#349=IFCEXTRUDEDAREASOLID(#343,#347,#348,25.);
#350=IFCCARTESIANPOINTLIST2D(((0.,0.),(0.,27.100000000000001),(51.100000000000001,27.100000000000001),(51.100000000000001,0.),(-23.899999999999999,0.),(-23.899999999999999,-47.899999999999999),(75.,-47.899999999999999),(75.,0.)));
#351=IFCINDEXEDPOLYCURVE(#350,(IFCLINEINDEX((1,2,3,4,5,6,7,8,1))),$);
#352=IFCARBITRARYCLOSEDPROFILEDEF(.AREA.,$,#351);
#353=IFCCARTESIANPOINT((-25.,-5.,0.));
#354=IFCDIRECTION((0.,-1.,0.));
#355=IFCDIRECTION((1.,0.,0.));
#356=IFCAXIS2PLACEMENT3D(#353,#354,#355);
#357=IFCDIRECTION((0.,0.,-1.));
#358=IFCEXTRUDEDAREASOLID(#352,#356,#357,5.);
#359=IFCCARTESIANPOINTLIST2D(((0.,0.),(0.,27.100000000000001),(51.100000000000001,27.100000000000001),(51.100000000000001,0.),(1.1000000000000014,0.),(1.1000000000000014,-22.899999999999999),(50.,-22.899999999999999),(50.,0.)));
#360=IFCINDEXEDPOLYCURVE(#359,(IFCLINEINDEX((1,2,3,4,5,6,7,8,1))),$);
#361=IFCARBITRARYCLOSEDPROFILEDEF(.AREA.,$,#360);
#362=IFCCARTESIANPOINT((-25.,50.,0.));
#363=IFCDIRECTION((0.,-1.,0.));
#364=IFCDIRECTION((1.,0.,0.));
#365=IFCAXIS2PLACEMENT3D(#362,#363,#364);
#366=IFCDIRECTION((0.,0.,-1.));
#367=IFCEXTRUDEDAREASOLID(#361,#365,#366,5.);
#368=IFCCARTESIANPOINTLIST2D(((0.,0.),(-48.899999999999999,0.),(-48.899999999999999,35.),(0.,35.)));
#369=IFCINDEXEDPOLYCURVE(#368,(IFCLINEINDEX((1,2,3,4,1))),$);
#370=IFCARBITRARYCLOSEDPROFILEDEF(.AREA.,$,#369);
#371=IFCCARTESIANPOINT((25.,25.,25.));
#372=IFCDIRECTION((0.,0.,1.));
#373=IFCDIRECTION((1.,0.,0.));
#374=IFCAXIS2PLACEMENT3D(#371,#372,#373);
#375=IFCDIRECTION((0.,0.,1.));
#376=IFCEXTRUDEDAREASOLID(#370,#374,#375,-47.899999999999999);
#377=IFCCARTESIANPOINTLIST2D(((0.,0.),(0.,-40.),(-119.99999999999997,-40.),(-119.99999999999997,-20.),(-20.,-20.),(-20.,0.)));
#378=IFCINDEXEDPOLYCURVE(#377,(IFCLINEINDEX((1,2,3,4,5,6,1))),$);
#379=IFCARBITRARYCLOSEDPROFILEDEF(.AREA.,$,#378);
#380=IFCCARTESIANPOINT((-73.900000000000006,25.,1015.));
#381=IFCDIRECTION((0.,0.,1.));
#382=IFCDIRECTION((1.,0.,0.));
#383=IFCAXIS2PLACEMENT3D(#380,#381,#382);
#384=IFCDIRECTION((0.,0.,1.));
#385=IFCEXTRUDEDAREASOLID(#379,#383,#384,20.);
#386=IFCEXTRUDEDAREASOLID(#387,#390,#394,20.);
#387=IFCARBITRARYCLOSEDPROFILEDEF(.AREA.,$,#388);
#388=IFCINDEXEDPOLYCURVE(#389,(IFCLINEINDEX((1,2,3,4,5,6,1))),$);
#389=IFCCARTESIANPOINTLIST2D(((0.,0.),(0.,40.),(-119.99999999999997,40.),(-119.99999999999997,20.),(-20.,20.),(-20.,0.)));
#390=IFCAXIS2PLACEMENT3D(#391,#392,#393);
#391=IFCCARTESIANPOINT((-73.900000000000006,60.,1015.));
#392=IFCDIRECTION((0.,0.,1.));
#393=IFCDIRECTION((1.,0.,0.));
#394=IFCDIRECTION((0.,0.,1.));
#395=IFCSHAPEREPRESENTATION(#11,'Body','SweptSolid',(#331,#340,#376,#385,#386,#349,#358,#367));
#396=IFCPRODUCTDEFINITIONSHAPE($,$,(#395));
#402=IFCCARTESIANPOINT((1200.,0.,200.));
#403=IFCDIRECTION((0.,0.,1.));
#404=IFCDIRECTION((1.,0.,0.));
#405=IFCAXIS2PLACEMENT3D(#402,#403,#404);
#406=IFCLOCALPLACEMENT(#30,#405);
#407=IFCRELFILLSELEMENT('1D2191XCvFgAbRSxunLJgh',$,$,$,#303,#322);
#408=IFCPROPERTYSET('1DKxI2nW11rBr8_D2nWQ2N',$,'EPset_Plan',$,(#410,#411));
#409=IFCRELDEFINESBYPROPERTIES('1LHwyj3pLBb8qm3OcOouFv',$,$,$,(#322),#408);
#410=IFCPROPERTYSINGLEVALUE('Polygon2D',$,IFCLABEL('1.2000,0.0000;2.3000,0.0000;2.3000,0.2000;1.2000,0.2000'),$);
#411=IFCPROPERTYSINGLEVALUE('Category',$,IFCLABEL('IfcDoor'),$);
#412=IFCPROPERTYSET('2gcBNm96P4PfcXNcWRJgSL',$,'EPset_OpeningMeta',$,(#414,#415,#416,#417));
#413=IFCRELDEFINESBYPROPERTIES('1JHAg26Pz2IhgasVgf0pDM',$,$,$,(#322),#412);
#414=IFCPROPERTYSINGLEVALUE('Width',$,IFCREAL(1.1000000000000001),$);
#415=IFCPROPERTYSINGLEVALUE('Height',$,IFCREAL(2.1000000000000001),$);
#416=IFCPROPERTYSINGLEVALUE('HostWall',$,IFCLABEL('Wall-S'),$);
#417=IFCPROPERTYSINGLEVALUE('TypeName',$,IFCLABEL('DoorType-900'),$);
#418=IFCOPENINGELEMENT('1CnKImsEnAigpkwHeZ7cam',$,'Win A-Opening',$,$,#436,#425,$,$);
#419=IFCCARTESIANPOINTLIST2D(((1200.,9800.),(2599.9999999999995,9800.),(2599.9999999999995,10000.),(1200.,10000.),(1200.,9800.)));
#420=IFCINDEXEDPOLYCURVE(#419,$,$);
#421=IFCDIRECTION((0.,0.,1.));
#422=IFCARBITRARYCLOSEDPROFILEDEF(.AREA.,$,#420);
#423=IFCEXTRUDEDAREASOLID(#422,$,#421,1200.);
#424=IFCSHAPEREPRESENTATION(#11,'Body','SweptSolid',(#423));
#425=IFCPRODUCTDEFINITIONSHAPE($,$,(#424));
#431=IFCRELVOIDSELEMENT('33SnS6Tpf8FeS3zMAxDqZU',$,$,$,#93,#418);
#432=IFCCARTESIANPOINT((0.,0.,900.00000000000011));
#433=IFCDIRECTION((0.,0.,1.));
#434=IFCDIRECTION((1.,0.,0.));
#435=IFCAXIS2PLACEMENT3D(#432,#433,#434);
#436=IFCLOCALPLACEMENT(#110,#435);
#437=IFCWINDOW('2UTfl4jXH16PbEdyCKJUhO',$,'Win A',$,$,#491,#481,$,$,$,$,$,$);
#438=IFCCARTESIANPOINTLIST2D(((0.,0.),(1.3999999999999999,0.),(1.3999999999999999,1.2),(0.,1.2)));
#439=IFCINDEXEDPOLYCURVE(#438,(IFCLINEINDEX((1,2,3,4,1))),$);
#440=IFCCARTESIANPOINTLIST2D(((25.,25.),(-23.600000000000001,25.),(-23.600000000000001,-23.799999999999997),(25.,-23.799999999999997)));
#441=IFCINDEXEDPOLYCURVE(#440,(IFCLINEINDEX((1,2,3,4,1))),$);
#442=IFCARBITRARYPROFILEDEFWITHVOIDS(.AREA.,$,#439,(#441));
#443=IFCCARTESIANPOINT((0.,90.,0.));
#444=IFCDIRECTION((0.,-1.,0.));
#445=IFCDIRECTION((1.,0.,0.));
#446=IFCAXIS2PLACEMENT3D(#443,#444,#445);
#447=IFCDIRECTION((0.,0.,-1.));
#448=IFCEXTRUDEDAREASOLID(#442,#446,#447,10.);
#449=IFCCARTESIANPOINTLIST2D(((0.,0.),(1.3999999999999999,0.),(1.3999999999999999,1.2),(0.,1.2)));
#450=IFCINDEXEDPOLYCURVE(#449,(IFCLINEINDEX((1,2,3,4,1))),$);
#451=IFCCARTESIANPOINTLIST2D(((50.,50.),(-48.599999999999994,50.),(-48.599999999999994,-48.799999999999997),(50.,-48.799999999999997)));
#452=IFCINDEXEDPOLYCURVE(#451,(IFCLINEINDEX((1,2,3,4,1))),$);
#453=IFCARBITRARYPROFILEDEFWITHVOIDS(.AREA.,$,#450,(#452));
#454=IFCCARTESIANPOINT((0.,50.,0.));
#455=IFCDIRECTION((0.,-1.,0.));
#456=IFCDIRECTION((1.,0.,0.));
#457=IFCAXIS2PLACEMENT3D(#454,#455,#456);
#458=IFCDIRECTION((0.,0.,-1.));
#459=IFCEXTRUDEDAREASOLID(#453,#457,#458,40.);
#460=IFCCARTESIANPOINTLIST2D(((0.,0.),(-48.600000000000001,0.),(-48.600000000000001,-48.799999999999997),(0.,-48.799999999999997)));
#461=IFCINDEXEDPOLYCURVE(#460,(IFCLINEINDEX((1,2,3,4,1))),$);
#462=IFCCARTESIANPOINTLIST2D(((35.,35.),(-83.599999999999994,35.),(-83.599999999999994,-83.799999999999997),(35.,-83.799999999999997)));
#463=IFCINDEXEDPOLYCURVE(#462,(IFCLINEINDEX((1,2,3,4,1))),$);
#464=IFCARBITRARYPROFILEDEFWITHVOIDS(.AREA.,$,#461,(#463));
#465=IFCCARTESIANPOINT((25.,90.,25.));
#466=IFCDIRECTION((0.,-1.,0.));
#467=IFCDIRECTION((1.,0.,0.));
#468=IFCAXIS2PLACEMENT3D(#465,#466,#467);
#469=IFCDIRECTION((0.,0.,-1.));
#470=IFCEXTRUDEDAREASOLID(#464,#468,#469,35.);
#471=IFCINDEXEDPOLYCURVE(#472,(IFCLINEINDEX((1,2,3,4,1))),$);
#472=IFCCARTESIANPOINTLIST2D(((35.,35.),(-83.599999999999994,35.),(-83.599999999999994,-83.799999999999997),(35.,-83.799999999999997)));
#473=IFCARBITRARYCLOSEDPROFILEDEF(.AREA.,$,#471);
#474=IFCCARTESIANPOINT((25.,102.5,25.));
#475=IFCDIRECTION((0.,-1.,0.));
#476=IFCDIRECTION((1.,0.,0.));
#477=IFCAXIS2PLACEMENT3D(#474,#475,#476);
#478=IFCDIRECTION((0.,0.,-1.));
#479=IFCEXTRUDEDAREASOLID(#473,#477,#478,10.);
#480=IFCSHAPEREPRESENTATION(#11,'Body','SweptSolid',(#448,#459,#470,#479));
#481=IFCPRODUCTDEFINITIONSHAPE($,$,(#480));
#487=IFCCARTESIANPOINT((1200.,9800.,1100.));
#488=IFCDIRECTION((0.,0.,1.));
#489=IFCDIRECTION((1.,0.,0.));
#490=IFCAXIS2PLACEMENT3D(#487,#488,#489);
#491=IFCLOCALPLACEMENT(#30,#490);
#492=IFCRELFILLSELEMENT('2MDcnTHBz3DfrwBuorWcZu',$,$,$,#418,#437);
#493=IFCPROPERTYSET('2gAGnesxPAqgojO395kHur',$,'EPset_Plan',$,(#495,#496));
#494=IFCRELDEFINESBYPROPERTIES('3pjdB50C95GfM7xN$3XCRb',$,$,$,(#437),#493);
#495=IFCPROPERTYSINGLEVALUE('Polygon2D',$,IFCLABEL('1.2000,9.8000;2.6000,9.8000;2.6000,10.0000;1.2000,10.0000'),$);
#496=IFCPROPERTYSINGLEVALUE('Category',$,IFCLABEL('IfcWindow'),$);
#497=IFCPROPERTYSET('2UO6u36Gf0tPoCCeSoaSSI',$,'EPset_OpeningMeta',$,(#499,#500,#501,#502));
#498=IFCRELDEFINESBYPROPERTIES('0niMB_JX1CVOM9v_m7v9Ob',$,$,$,(#437),#497);
#499=IFCPROPERTYSINGLEVALUE('Width',$,IFCREAL(1.3999999999999999),$);
#500=IFCPROPERTYSINGLEVALUE('Height',$,IFCREAL(1.2),$);
#501=IFCPROPERTYSINGLEVALUE('HostWall',$,IFCLABEL('Wall-N'),$);
#502=IFCPROPERTYSINGLEVALUE('TypeName',$,IFCLABEL('WindowType-1400'),$);
#503=IFCOPENINGELEMENT('3NsMHybs53igiKjNdFpE$m',$,'Win B-Opening',$,$,#521,#510,$,$);
#504=IFCCARTESIANPOINTLIST2D(((5000.,9800.),(6400.,9800.),(6400.,10000.),(5000.,10000.),(5000.,9800.)));
#505=IFCINDEXEDPOLYCURVE(#504,$,$);
#506=IFCDIRECTION((0.,0.,1.));
#507=IFCARBITRARYCLOSEDPROFILEDEF(.AREA.,$,#505);
#508=IFCEXTRUDEDAREASOLID(#507,$,#506,1200.);
#509=IFCSHAPEREPRESENTATION(#11,'Body','SweptSolid',(#508));
#510=IFCPRODUCTDEFINITIONSHAPE($,$,(#509));
#516=IFCRELVOIDSELEMENT('0hWpXj_gXFhPD3hR7kvXBR',$,$,$,#93,#503);
#517=IFCCARTESIANPOINT((0.,0.,900.00000000000011));
#518=IFCDIRECTION((0.,0.,1.));
#519=IFCDIRECTION((1.,0.,0.));
#520=IFCAXIS2PLACEMENT3D(#517,#518,#519);
#521=IFCLOCALPLACEMENT(#110,#520);
#522=IFCWINDOW('3MdXFFyeHEVfOKhfPqL8Kf',$,'Win B',$,$,#576,#566,$,$,$,$,$,$);
#523=IFCCARTESIANPOINTLIST2D(((0.,0.),(1.3999999999999999,0.),(1.3999999999999999,1.2),(0.,1.2)));
#524=IFCINDEXEDPOLYCURVE(#523,(IFCLINEINDEX((1,2,3,4,1))),$);
#525=IFCCARTESIANPOINTLIST2D(((25.,25.),(-23.600000000000001,25.),(-23.600000000000001,-23.799999999999997),(25.,-23.799999999999997)));
#526=IFCINDEXEDPOLYCURVE(#525,(IFCLINEINDEX((1,2,3,4,1))),$);
#527=IFCARBITRARYPROFILEDEFWITHVOIDS(.AREA.,$,#524,(#526));
#528=IFCCARTESIANPOINT((0.,90.,0.));
#529=IFCDIRECTION((0.,-1.,0.));
#530=IFCDIRECTION((1.,0.,0.));
#531=IFCAXIS2PLACEMENT3D(#528,#529,#530);
#532=IFCDIRECTION((0.,0.,-1.));
#533=IFCEXTRUDEDAREASOLID(#527,#531,#532,10.);
#534=IFCCARTESIANPOINTLIST2D(((0.,0.),(1.3999999999999999,0.),(1.3999999999999999,1.2),(0.,1.2)));
#535=IFCINDEXEDPOLYCURVE(#534,(IFCLINEINDEX((1,2,3,4,1))),$);
#536=IFCCARTESIANPOINTLIST2D(((50.,50.),(-48.599999999999994,50.),(-48.599999999999994,-48.799999999999997),(50.,-48.799999999999997)));
#537=IFCINDEXEDPOLYCURVE(#536,(IFCLINEINDEX((1,2,3,4,1))),$);
#538=IFCARBITRARYPROFILEDEFWITHVOIDS(.AREA.,$,#535,(#537));
#539=IFCCARTESIANPOINT((0.,50.,0.));
#540=IFCDIRECTION((0.,-1.,0.));
#541=IFCDIRECTION((1.,0.,0.));
#542=IFCAXIS2PLACEMENT3D(#539,#540,#541);
#543=IFCDIRECTION((0.,0.,-1.));
#544=IFCEXTRUDEDAREASOLID(#538,#542,#543,40.);
#545=IFCCARTESIANPOINTLIST2D(((0.,0.),(-48.600000000000001,0.),(-48.600000000000001,-48.799999999999997),(0.,-48.799999999999997)));
#546=IFCINDEXEDPOLYCURVE(#545,(IFCLINEINDEX((1,2,3,4,1))),$);
#547=IFCCARTESIANPOINTLIST2D(((35.,35.),(-83.599999999999994,35.),(-83.599999999999994,-83.799999999999997),(35.,-83.799999999999997)));
#548=IFCINDEXEDPOLYCURVE(#547,(IFCLINEINDEX((1,2,3,4,1))),$);
#549=IFCARBITRARYPROFILEDEFWITHVOIDS(.AREA.,$,#546,(#548));
#550=IFCCARTESIANPOINT((25.,90.,25.));
#551=IFCDIRECTION((0.,-1.,0.));
#552=IFCDIRECTION((1.,0.,0.));
#553=IFCAXIS2PLACEMENT3D(#550,#551,#552);
#554=IFCDIRECTION((0.,0.,-1.));
#555=IFCEXTRUDEDAREASOLID(#549,#553,#554,35.);
#556=IFCINDEXEDPOLYCURVE(#557,(IFCLINEINDEX((1,2,3,4,1))),$);
#557=IFCCARTESIANPOINTLIST2D(((35.,35.),(-83.599999999999994,35.),(-83.599999999999994,-83.799999999999997),(35.,-83.799999999999997)));
#558=IFCARBITRARYCLOSEDPROFILEDEF(.AREA.,$,#556);
#559=IFCCARTESIANPOINT((25.,102.5,25.));
#560=IFCDIRECTION((0.,-1.,0.));
#561=IFCDIRECTION((1.,0.,0.));
#562=IFCAXIS2PLACEMENT3D(#559,#560,#561);
#563=IFCDIRECTION((0.,0.,-1.));
#564=IFCEXTRUDEDAREASOLID(#558,#562,#563,10.);
#565=IFCSHAPEREPRESENTATION(#11,'Body','SweptSolid',(#533,#544,#555,#564));
#566=IFCPRODUCTDEFINITIONSHAPE($,$,(#565));
#572=IFCCARTESIANPOINT((5000.,9800.,1100.));
#573=IFCDIRECTION((0.,0.,1.));
#574=IFCDIRECTION((1.,0.,0.));
#575=IFCAXIS2PLACEMENT3D(#572,#573,#574);
#576=IFCLOCALPLACEMENT(#30,#575);
#577=IFCRELFILLSELEMENT('2qE8QZNZDBlwqHA42WRMPT',$,$,$,#503,#522);
#578=IFCPROPERTYSET('0n4QH7Z2f6VxE5njNFkYoR',$,'EPset_Plan',$,(#580,#581));
#579=IFCRELDEFINESBYPROPERTIES('2XYpmsf8L2whbrQyw$kgiO',$,$,$,(#522),#578);
#580=IFCPROPERTYSINGLEVALUE('Polygon2D',$,IFCLABEL('5.0000,9.8000;6.4000,9.8000;6.4000,10.0000;5.0000,10.0000'),$);
#581=IFCPROPERTYSINGLEVALUE('Category',$,IFCLABEL('IfcWindow'),$);
#582=IFCPROPERTYSET('2THK7OLdz4heuENv61Iib4',$,'EPset_OpeningMeta',$,(#584,#585,#586,#587));
#583=IFCRELDEFINESBYPROPERTIES('1FicrC4QnEDeCYkUhVxDdi',$,$,$,(#522),#582);
#584=IFCPROPERTYSINGLEVALUE('Width',$,IFCREAL(1.3999999999999999),$);
#585=IFCPROPERTYSINGLEVALUE('Height',$,IFCREAL(1.2),$);
#586=IFCPROPERTYSINGLEVALUE('HostWall',$,IFCLABEL('Wall-N'),$);
#587=IFCPROPERTYSINGLEVALUE('TypeName',$,IFCLABEL('WindowType-1400'),$);
#588=IFCOPENINGELEMENT('3$zuvvo$99lw0gJ$YricsC',$,'Win C-Opening',$,$,#606,#595,$,$);
#589=IFCCARTESIANPOINTLIST2D(((9200.,9800.),(10600.,9800.),(10600.,10000.),(9200.,10000.),(9200.,9800.)));
#590=IFCINDEXEDPOLYCURVE(#589,$,$);
#591=IFCDIRECTION((0.,0.,1.));
#592=IFCARBITRARYCLOSEDPROFILEDEF(.AREA.,$,#590);
#593=IFCEXTRUDEDAREASOLID(#592,$,#591,1200.);
#594=IFCSHAPEREPRESENTATION(#11,'Body','SweptSolid',(#593));
#595=IFCPRODUCTDEFINITIONSHAPE($,$,(#594));
#601=IFCRELVOIDSELEMENT('2feCTHsWH4UxLM5haROM74',$,$,$,#93,#588);
#602=IFCCARTESIANPOINT((0.,0.,900.00000000000011));
#603=IFCDIRECTION((0.,0.,1.));
#604=IFCDIRECTION((1.,0.,0.));
#605=IFCAXIS2PLACEMENT3D(#602,#603,#604);
#606=IFCLOCALPLACEMENT(#110,#605);
#607=IFCWINDOW('2OFGeoyXr7fuEkosaQiuNj',$,'Win C',$,$,#661,#651,$,$,$,$,$,$);
#608=IFCCARTESIANPOINTLIST2D(((0.,0.),(1.3999999999999999,0.),(1.3999999999999999,1.2),(0.,1.2)));
#609=IFCINDEXEDPOLYCURVE(#608,(IFCLINEINDEX((1,2,3,4,1))),$);
#610=IFCCARTESIANPOINTLIST2D(((25.,25.),(-23.600000000000001,25.),(-23.600000000000001,-23.799999999999997),(25.,-23.799999999999997)));
#611=IFCINDEXEDPOLYCURVE(#610,(IFCLINEINDEX((1,2,3,4,1))),$);
#612=IFCARBITRARYPROFILEDEFWITHVOIDS(.AREA.,$,#609,(#611));
#613=IFCCARTESIANPOINT((0.,90.,0.));
#614=IFCDIRECTION((0.,-1.,0.));
#615=IFCDIRECTION((1.,0.,0.));
#616=IFCAXIS2PLACEMENT3D(#613,#614,#615);
#617=IFCDIRECTION((0.,0.,-1.));
#618=IFCEXTRUDEDAREASOLID(#612,#616,#617,10.);
#619=IFCCARTESIANPOINTLIST2D(((0.,0.),(1.3999999999999999,0.),(1.3999999999999999,1.2),(0.,1.2)));
#620=IFCINDEXEDPOLYCURVE(#619,(IFCLINEINDEX((1,2,3,4,1))),$);
#621=IFCCARTESIANPOINTLIST2D(((50.,50.),(-48.599999999999994,50.),(-48.599999999999994,-48.799999999999997),(50.,-48.799999999999997)));
#622=IFCINDEXEDPOLYCURVE(#621,(IFCLINEINDEX((1,2,3,4,1))),$);
#623=IFCARBITRARYPROFILEDEFWITHVOIDS(.AREA.,$,#620,(#622));
#624=IFCCARTESIANPOINT((0.,50.,0.));
#625=IFCDIRECTION((0.,-1.,0.));
#626=IFCDIRECTION((1.,0.,0.));
#627=IFCAXIS2PLACEMENT3D(#624,#625,#626);
#628=IFCDIRECTION((0.,0.,-1.));
#629=IFCEXTRUDEDAREASOLID(#623,#627,#628,40.);
#630=IFCCARTESIANPOINTLIST2D(((0.,0.),(-48.600000000000001,0.),(-48.600000000000001,-48.799999999999997),(0.,-48.799999999999997)));
#631=IFCINDEXEDPOLYCURVE(#630,(IFCLINEINDEX((1,2,3,4,1))),$);
#632=IFCCARTESIANPOINTLIST2D(((35.,35.),(-83.599999999999994,35.),(-83.599999999999994,-83.799999999999997),(35.,-83.799999999999997)));
#633=IFCINDEXEDPOLYCURVE(#632,(IFCLINEINDEX((1,2,3,4,1))),$);
#634=IFCARBITRARYPROFILEDEFWITHVOIDS(.AREA.,$,#631,(#633));
#635=IFCCARTESIANPOINT((25.,90.,25.));
#636=IFCDIRECTION((0.,-1.,0.));
#637=IFCDIRECTION((1.,0.,0.));
#638=IFCAXIS2PLACEMENT3D(#635,#636,#637);
#639=IFCDIRECTION((0.,0.,-1.));
#640=IFCEXTRUDEDAREASOLID(#634,#638,#639,35.);
#641=IFCINDEXEDPOLYCURVE(#642,(IFCLINEINDEX((1,2,3,4,1))),$);
#642=IFCCARTESIANPOINTLIST2D(((35.,35.),(-83.599999999999994,35.),(-83.599999999999994,-83.799999999999997),(35.,-83.799999999999997)));
#643=IFCARBITRARYCLOSEDPROFILEDEF(.AREA.,$,#641);
#644=IFCCARTESIANPOINT((25.,102.5,25.));
#645=IFCDIRECTION((0.,-1.,0.));
#646=IFCDIRECTION((1.,0.,0.));
#647=IFCAXIS2PLACEMENT3D(#644,#645,#646);
#648=IFCDIRECTION((0.,0.,-1.));
#649=IFCEXTRUDEDAREASOLID(#643,#647,#648,10.);
#650=IFCSHAPEREPRESENTATION(#11,'Body','SweptSolid',(#618,#629,#640,#649));
#651=IFCPRODUCTDEFINITIONSHAPE($,$,(#650));
#657=IFCCARTESIANPOINT((9200.,9800.,1100.));
#658=IFCDIRECTION((0.,0.,1.));
#659=IFCDIRECTION((1.,0.,0.));
#660=IFCAXIS2PLACEMENT3D(#657,#658,#659);
#661=IFCLOCALPLACEMENT(#30,#660);
#662=IFCRELFILLSELEMENT('3n0UaJ7xr3YgjHqsutJmMX',$,$,$,#588,#607);
#663=IFCPROPERTYSET('3r2oqgSkTAXga37JN2xpxS',$,'EPset_Plan',$,(#665,#666));
#664=IFCRELDEFINESBYPROPERTIES('2D1B5A5sjFfQBxfMuEC5dx',$,$,$,(#607),#663);
#665=IFCPROPERTYSINGLEVALUE('Polygon2D',$,IFCLABEL('9.2000,9.8000;10.6000,9.8000;10.6000,10.0000;9.2000,10.0000'),$);
#666=IFCPROPERTYSINGLEVALUE('Category',$,IFCLABEL('IfcWindow'),$);
#667=IFCPROPERTYSET('315K1OFZ51bxktU_PUO_0f',$,'EPset_OpeningMeta',$,(#669,#670,#671,#672));
#668=IFCRELDEFINESBYPROPERTIES('21Wlzrdyz4qPXOzuio8EkF',$,$,$,(#607),#667);
#669=IFCPROPERTYSINGLEVALUE('Width',$,IFCREAL(1.3999999999999999),$);
#670=IFCPROPERTYSINGLEVALUE('Height',$,IFCREAL(1.2),$);
#671=IFCPROPERTYSINGLEVALUE('HostWall',$,IFCLABEL('Wall-N'),$);
#672=IFCPROPERTYSINGLEVALUE('TypeName',$,IFCLABEL('WindowType-1400'),$);
#673=IFCOPENINGELEMENT('30r1i1dunC3QgIiPA2vzss',$,'Door A-Opening',$,$,#691,#680,$,$);
#674=IFCCARTESIANPOINTLIST2D(((4000.,2000.),(4200.,2000.),(4200.,2900.),(4000.,2900.),(4000.,2000.)));
#675=IFCINDEXEDPOLYCURVE(#674,$,$);
#676=IFCDIRECTION((0.,0.,1.));
#677=IFCARBITRARYCLOSEDPROFILEDEF(.AREA.,$,#675);
#678=IFCEXTRUDEDAREASOLID(#677,$,#676,2100.);
#679=IFCSHAPEREPRESENTATION(#11,'Body','SweptSolid',(#678));
#680=IFCPRODUCTDEFINITIONSHAPE($,$,(#679));
#686=IFCRELVOIDSELEMENT('3KUwNA29L1xg8Z3HlrvLRM',$,$,$,#198,#673);
#687=IFCCARTESIANPOINT((0.,0.,0.));
#688=IFCDIRECTION((0.,0.,1.));
#689=IFCDIRECTION((1.,0.,0.));
#690=IFCAXIS2PLACEMENT3D(#687,#688,#689);
#691=IFCLOCALPLACEMENT(#215,#690);
#692=IFCDOOR('2Vw8mFmaj8m8XJfFF7kfux',$,'Door A',$,$,#776,#766,$,$,$,$,$,$);
#693=IFCCARTESIANPOINTLIST2D(((0.,0.),(0.,2.1000000000000001),(0.90000000000000002,2.1000000000000001),(0.90000000000000002,0.),(-24.100000000000001,0.),(-24.100000000000001,-22.899999999999999),(25.,-22.899999999999999),(25.,0.)));
#694=IFCINDEXEDPOLYCURVE(#693,(IFCLINEINDEX((1,2,3,4,5,6,7,8,1))),$);
#695=IFCARBITRARYCLOSEDPROFILEDEF(.AREA.,$,#694);
#696=IFCCARTESIANPOINT((0.,25.,0.));
#697=IFCDIRECTION((0.,-1.,0.));
#698=IFCDIRECTION((1.,0.,0.));
#699=IFCAXIS2PLACEMENT3D(#696,#697,#698);
#700=IFCDIRECTION((0.,0.,-1.));
#701=IFCEXTRUDEDAREASOLID(#695,#699,#700,25.);
#702=IFCCARTESIANPOINTLIST2D(((0.,0.),(0.,2.1000000000000001),(0.90000000000000002,2.1000000000000001),(0.90000000000000002,0.),(-49.100000000000001,0.),(-49.100000000000001,-47.899999999999999),(50.,-47.899999999999999),(50.,0.)));
#703=IFCINDEXEDPOLYCURVE(#702,(IFCLINEINDEX((1,2,3,4,5,6,7,8,1))),$);
#704=IFCARBITRARYCLOSEDPROFILEDEF(.AREA.,$,#703);
#705=IFCCARTESIANPOINT((0.,0.,0.));
#706=IFCDIRECTION((0.,-1.,0.));
#707=IFCDIRECTION((1.,0.,0.));
#708=IFCAXIS2PLACEMENT3D(#705,#706,#707);
#709=IFCDIRECTION((0.,0.,-1.));
#710=IFCEXTRUDEDAREASOLID(#704,#708,#709,25.);
#711=IFCCARTESIANPOINTLIST2D(((0.,0.),(-99.099999999999994,0.),(-99.099999999999994,100.),(0.,100.)));
#712=IFCINDEXEDPOLYCURVE(#711,(IFCLINEINDEX((1,2,3,4,1))),$);
#713=IFCARBITRARYCLOSEDPROFILEDEF(.AREA.,$,#712);
#714=IFCCARTESIANPOINT((50.,0.,0.));
#715=IFCDIRECTION((0.,0.,1.));
#716=IFCDIRECTION((1.,0.,0.));
#717=IFCAXIS2PLACEMENT3D(#714,#715,#716);
#718=IFCDIRECTION((0.,0.,1.));
#719=IFCEXTRUDEDAREASOLID(#713,#717,#718,25.);
#720=IFCCARTESIANPOINTLIST2D(((0.,0.),(0.,27.100000000000001),(50.899999999999999,27.100000000000001),(50.899999999999999,0.),(-24.100000000000001,0.),(-24.100000000000001,-47.899999999999999),(75.,-47.899999999999999),(75.,0.)));
#721=IFCINDEXEDPOLYCURVE(#720,(IFCLINEINDEX((1,2,3,4,5,6,7,8,1))),$);
#722=IFCARBITRARYCLOSEDPROFILEDEF(.AREA.,$,#721);
#723=IFCCARTESIANPOINT((-25.,-5.,0.));
#724=IFCDIRECTION((0.,-1.,0.));
#725=IFCDIRECTION((1.,0.,0.));
#726=IFCAXIS2PLACEMENT3D(#723,#724,#725);
#727=IFCDIRECTION((0.,0.,-1.));
#728=IFCEXTRUDEDAREASOLID(#722,#726,#727,5.);
#729=IFCCARTESIANPOINTLIST2D(((0.,0.),(0.,27.100000000000001),(50.899999999999999,27.100000000000001),(50.899999999999999,0.),(0.89999999999999858,0.),(0.89999999999999858,-22.899999999999999),(50.,-22.899999999999999),(50.,0.)));
#730=IFCINDEXEDPOLYCURVE(#729,(IFCLINEINDEX((1,2,3,4,5,6,7,8,1))),$);
#731=IFCARBITRARYCLOSEDPROFILEDEF(.AREA.,$,#730);
#732=IFCCARTESIANPOINT((-25.,50.,0.));
#733=IFCDIRECTION((0.,-1.,0.));
#734=IFCDIRECTION((1.,0.,0.));
#735=IFCAXIS2PLACEMENT3D(#732,#733,#734);
#736=IFCDIRECTION((0.,0.,-1.));
#737=IFCEXTRUDEDAREASOLID(#731,#735,#736,5.);
#738=IFCCARTESIANPOINTLIST2D(((0.,0.),(-49.100000000000001,0.),(-49.100000000000001,35.),(0.,35.)));
#739=IFCINDEXEDPOLYCURVE(#738,(IFCLINEINDEX((1,2,3,4,1))),$);
#740=IFCARBITRARYCLOSEDPROFILEDEF(.AREA.,$,#739);
#741=IFCCARTESIANPOINT((25.,25.,25.));
#742=IFCDIRECTION((0.,0.,1.));
#743=IFCDIRECTION((1.,0.,0.));
#744=IFCAXIS2PLACEMENT3D(#741,#742,#743);
#745=IFCDIRECTION((0.,0.,1.));
#746=IFCEXTRUDEDAREASOLID(#740,#744,#745,-47.899999999999999);
#747=IFCCARTESIANPOINTLIST2D(((0.,0.),(0.,-40.),(-120.00000000000003,-40.),(-120.00000000000003,-20.),(-20.,-20.),(-20.,0.)));
#748=IFCINDEXEDPOLYCURVE(#747,(IFCLINEINDEX((1,2,3,4,5,6,1))),$);
#749=IFCARBITRARYCLOSEDPROFILEDEF(.AREA.,$,#748);
#750=IFCCARTESIANPOINT((-74.099999999999994,25.,1015.));
#751=IFCDIRECTION((0.,0.,1.));
#752=IFCDIRECTION((1.,0.,0.));
#753=IFCAXIS2PLACEMENT3D(#750,#751,#752);
#754=IFCDIRECTION((0.,0.,1.));
#755=IFCEXTRUDEDAREASOLID(#749,#753,#754,20.);
#756=IFCEXTRUDEDAREASOLID(#757,#760,#764,20.);
#757=IFCARBITRARYCLOSEDPROFILEDEF(.AREA.,$,#758);
#758=IFCINDEXEDPOLYCURVE(#759,(IFCLINEINDEX((1,2,3,4,5,6,1))),$);
#759=IFCCARTESIANPOINTLIST2D(((0.,0.),(0.,40.),(-120.00000000000003,40.),(-120.00000000000003,20.),(-20.,20.),(-20.,0.)));
#760=IFCAXIS2PLACEMENT3D(#761,#762,#763);
#761=IFCCARTESIANPOINT((-74.099999999999994,60.,1015.));
#762=IFCDIRECTION((0.,0.,1.));
#763=IFCDIRECTION((1.,0.,0.));
#764=IFCDIRECTION((0.,0.,1.));
#765=IFCSHAPEREPRESENTATION(#11,'Body','SweptSolid',(#701,#710,#746,#755,#756,#719,#728,#737));
#766=IFCPRODUCTDEFINITIONSHAPE($,$,(#765));
#772=IFCCARTESIANPOINT((4000.,2000.,200.));
#773=IFCDIRECTION((0.,0.,1.));
#774=IFCDIRECTION((6.123233995736766E-17,1.,0.));
#775=IFCAXIS2PLACEMENT3D(#772,#773,#774);
#776=IFCLOCALPLACEMENT(#30,#775);
#777=IFCRELFILLSELEMENT('1LtqatDiHEZOqEvNDdRFV6',$,$,$,#673,#692);
#778=IFCPROPERTYSET('3WYEEQVoD1VeHAiJsIvOiy',$,'EPset_Plan',$,(#780,#781));
#779=IFCRELDEFINESBYPROPERTIES('2ghNMvkJb77Qdzj1jTah2O',$,$,$,(#692),#778);
#780=IFCPROPERTYSINGLEVALUE('Polygon2D',$,IFCLABEL('4.0000,2.0000;4.2000,2.0000;4.2000,2.9000;4.0000,2.9000'),$);
#781=IFCPROPERTYSINGLEVALUE('Category',$,IFCLABEL('IfcDoor'),$);
#782=IFCPROPERTYSET('1ALKt3B1TCiQLne0bBaqXD',$,'EPset_OpeningMeta',$,(#784,#785,#786,#787));
#783=IFCRELDEFINESBYPROPERTIES('06i4zfIvP0Vgv8ullYFsjX',$,$,$,(#692),#782);
#784=IFCPROPERTYSINGLEVALUE('Width',$,IFCREAL(0.90000000000000002),$);
#785=IFCPROPERTYSINGLEVALUE('Height',$,IFCREAL(2.1000000000000001),$);
#786=IFCPROPERTYSINGLEVALUE('HostWall',$,IFCLABEL('Part-1'),$);
#787=IFCPROPERTYSINGLEVALUE('TypeName',$,IFCLABEL('DoorType-900'),$);
#788=IFCOPENINGELEMENT('3bywyeJ$rCOgyvL9O1vPC$',$,'Door B-Opening',$,$,#806,#795,$,$);
#789=IFCCARTESIANPOINTLIST2D(((8000.,7000.),(8200.,7000.),(8200.,7900.),(8000.,7900.),(8000.,7000.)));
#790=IFCINDEXEDPOLYCURVE(#789,$,$);
#791=IFCDIRECTION((0.,0.,1.));
#792=IFCARBITRARYCLOSEDPROFILEDEF(.AREA.,$,#790);
#793=IFCEXTRUDEDAREASOLID(#792,$,#791,2100.);
#794=IFCSHAPEREPRESENTATION(#11,'Body','SweptSolid',(#793));
#795=IFCPRODUCTDEFINITIONSHAPE($,$,(#794));
#801=IFCRELVOIDSELEMENT('0_HNdrsS1C6On5Tj50F9LF',$,$,$,#229,#788);
#802=IFCCARTESIANPOINT((0.,0.,0.));
#803=IFCDIRECTION((0.,0.,1.));
#804=IFCDIRECTION((1.,0.,0.));
#805=IFCAXIS2PLACEMENT3D(#802,#803,#804);
#806=IFCLOCALPLACEMENT(#246,#805);
#807=IFCDOOR('3QDxlTd0z0ERxZN7VWHcQb',$,'Door B',$,$,#891,#881,$,$,$,$,$,$);
#808=IFCCARTESIANPOINTLIST2D(((0.,0.),(0.,2.1000000000000001),(0.90000000000000002,2.1000000000000001),(0.90000000000000002,0.),(-24.100000000000001,0.),(-24.100000000000001,-22.899999999999999),(25.,-22.899999999999999),(25.,0.)));
#809=IFCINDEXEDPOLYCURVE(#808,(IFCLINEINDEX((1,2,3,4,5,6,7,8,1))),$);
#810=IFCARBITRARYCLOSEDPROFILEDEF(.AREA.,$,#809);
#811=IFCCARTESIANPOINT((0.,25.,0.));
#812=IFCDIRECTION((0.,-1.,0.));
#813=IFCDIRECTION((1.,0.,0.));
#814=IFCAXIS2PLACEMENT3D(#811,#812,#813);
#815=IFCDIRECTION((0.,0.,-1.));
#816=IFCEXTRUDEDAREASOLID(#810,#814,#815,25.);
#817=IFCCARTESIANPOINTLIST2D(((0.,0.),(0.,2.1000000000000001),(0.90000000000000002,2.1000000000000001),(0.90000000000000002,0.),(-49.100000000000001,0.),(-49.100000000000001,-47.899999999999999),(50.,-47.899999999999999),(50.,0.)));
#818=IFCINDEXEDPOLYCURVE(#817,(IFCLINEINDEX((1,2,3,4,5,6,7,8,1))),$);
#819=IFCARBITRARYCLOSEDPROFILEDEF(.AREA.,$,#818);
#820=IFCCARTESIANPOINT((0.,0.,0.));
#821=IFCDIRECTION((0.,-1.,0.));
#822=IFCDIRECTION((1.,0.,0.));
#823=IFCAXIS2PLACEMENT3D(#820,#821,#822);
#824=IFCDIRECTION((0.,0.,-1.));
#825=IFCEXTRUDEDAREASOLID(#819,#823,#824,25.);
#826=IFCCARTESIANPOINTLIST2D(((0.,0.),(-99.099999999999994,0.),(-99.099999999999994,100.),(0.,100.)));
#827=IFCINDEXEDPOLYCURVE(#826,(IFCLINEINDEX((1,2,3,4,1))),$);
#828=IFCARBITRARYCLOSEDPROFILEDEF(.AREA.,$,#827);
#829=IFCCARTESIANPOINT((50.,0.,0.));
#830=IFCDIRECTION((0.,0.,1.));
#831=IFCDIRECTION((1.,0.,0.));
#832=IFCAXIS2PLACEMENT3D(#829,#830,#831);
#833=IFCDIRECTION((0.,0.,1.));
#834=IFCEXTRUDEDAREASOLID(#828,#832,#833,25.);
#835=IFCCARTESIANPOINTLIST2D(((0.,0.),(0.,27.100000000000001),(50.899999999999999,27.100000000000001),(50.899999999999999,0.),(-24.100000000000001,0.),(-24.100000000000001,-47.899999999999999),(75.,-47.899999999999999),(75.,0.)));
#836=IFCINDEXEDPOLYCURVE(#835,(IFCLINEINDEX((1,2,3,4,5,6,7,8,1))),$);
#837=IFCARBITRARYCLOSEDPROFILEDEF(.AREA.,$,#836);
#838=IFCCARTESIANPOINT((-25.,-5.,0.));
#839=IFCDIRECTION((0.,-1.,0.));
#840=IFCDIRECTION((1.,0.,0.));
#841=IFCAXIS2PLACEMENT3D(#838,#839,#840);
#842=IFCDIRECTION((0.,0.,-1.));
#843=IFCEXTRUDEDAREASOLID(#837,#841,#842,5.);
#844=IFCCARTESIANPOINTLIST2D(((0.,0.),(0.,27.100000000000001),(50.899999999999999,27.100000000000001),(50.899999999999999,0.),(0.89999999999999858,0.),(0.89999999999999858,-22.899999999999999),(50.,-22.899999999999999),(50.,0.)));
#845=IFCINDEXEDPOLYCURVE(#844,(IFCLINEINDEX((1,2,3,4,5,6,7,8,1))),$);
#846=IFCARBITRARYCLOSEDPROFILEDEF(.AREA.,$,#845);
#847=IFCCARTESIANPOINT((-25.,50.,0.));
#848=IFCDIRECTION((0.,-1.,0.));
#849=IFCDIRECTION((1.,0.,0.));
#850=IFCAXIS2PLACEMENT3D(#847,#848,#849);
#851=IFCDIRECTION((0.,0.,-1.));
#852=IFCEXTRUDEDAREASOLID(#846,#850,#851,5.);
#853=IFCCARTESIANPOINTLIST2D(((0.,0.),(-49.100000000000001,0.),(-49.100000000000001,35.),(0.,35.)));
#854=IFCINDEXEDPOLYCURVE(#853,(IFCLINEINDEX((1,2,3,4,1))),$);
#855=IFCARBITRARYCLOSEDPROFILEDEF(.AREA.,$,#854);
#856=IFCCARTESIANPOINT((25.,25.,25.));
#857=IFCDIRECTION((0.,0.,1.));
#858=IFCDIRECTION((1.,0.,0.));
#859=IFCAXIS2PLACEMENT3D(#856,#857,#858);
#860=IFCDIRECTION((0.,0.,1.));
#861=IFCEXTRUDEDAREASOLID(#855,#859,#860,-47.899999999999999);
#862=IFCCARTESIANPOINTLIST2D(((0.,0.),(0.,-40.),(-120.00000000000003,-40.),(-120.00000000000003,-20.),(-20.,-20.),(-20.,0.)));
#863=IFCINDEXEDPOLYCURVE(#862,(IFCLINEINDEX((1,2,3,4,5,6,1))),$);
#864=IFCARBITRARYCLOSEDPROFILEDEF(.AREA.,$,#863);
#865=IFCCARTESIANPOINT((-74.099999999999994,25.,1015.));
#866=IFCDIRECTION((0.,0.,1.));
#867=IFCDIRECTION((1.,0.,0.));
#868=IFCAXIS2PLACEMENT3D(#865,#866,#867);
#869=IFCDIRECTION((0.,0.,1.));
#870=IFCEXTRUDEDAREASOLID(#864,#868,#869,20.);
#871=IFCEXTRUDEDAREASOLID(#872,#875,#879,20.);
#872=IFCARBITRARYCLOSEDPROFILEDEF(.AREA.,$,#873);
#873=IFCINDEXEDPOLYCURVE(#874,(IFCLINEINDEX((1,2,3,4,5,6,1))),$);
#874=IFCCARTESIANPOINTLIST2D(((0.,0.),(0.,40.),(-120.00000000000003,40.),(-120.00000000000003,20.),(-20.,20.),(-20.,0.)));
#875=IFCAXIS2PLACEMENT3D(#876,#877,#878);
#876=IFCCARTESIANPOINT((-74.099999999999994,60.,1015.));
#877=IFCDIRECTION((0.,0.,1.));
#878=IFCDIRECTION((1.,0.,0.));
#879=IFCDIRECTION((0.,0.,1.));
#880=IFCSHAPEREPRESENTATION(#11,'Body','SweptSolid',(#816,#825,#861,#870,#871,#834,#843,#852));
#881=IFCPRODUCTDEFINITIONSHAPE($,$,(#880));
#887=IFCCARTESIANPOINT((8000.,7000.,200.));
#888=IFCDIRECTION((0.,0.,1.));
#889=IFCDIRECTION((6.123233995736766E-17,1.,0.));
#890=IFCAXIS2PLACEMENT3D(#887,#888,#889);
#891=IFCLOCALPLACEMENT(#30,#890);
#892=IFCRELFILLSELEMENT('0392qSvabDkfuyjJEAG0cr',$,$,$,#788,#807);
#893=IFCPROPERTYSET('3QkZ5e8qf9eO9lmjTLdCyR',$,'EPset_Plan',$,(#895,#896));
#894=IFCRELDEFINESBYPROPERTIES('0D9IvCex542vknHL3miDLe',$,$,$,(#807),#893);
#895=IFCPROPERTYSINGLEVALUE('Polygon2D',$,IFCLABEL('8.0000,7.0000;8.2000,7.0000;8.2000,7.9000;8.0000,7.9000'),$);
#896=IFCPROPERTYSINGLEVALUE('Category',$,IFCLABEL('IfcDoor'),$);
#897=IFCPROPERTYSET('24PghzEO1BvAQ7pyKMucwe',$,'EPset_OpeningMeta',$,(#899,#900,#901,#902));
#898=IFCRELDEFINESBYPROPERTIES('3vWB7wWYv6fP6WuHcI9asa',$,$,$,(#807),#897);
#899=IFCPROPERTYSINGLEVALUE('Width',$,IFCREAL(0.90000000000000002),$);
#900=IFCPROPERTYSINGLEVALUE('Height',$,IFCREAL(2.1000000000000001),$);
#901=IFCPROPERTYSINGLEVALUE('HostWall',$,IFCLABEL('Part-2'),$);
#902=IFCPROPERTYSINGLEVALUE('TypeName',$,IFCLABEL('DoorType-900'),$);
#903=IFCOPENINGELEMENT('2Fk6y$Q3j6hAO2hsjj15IM',$,'Door C-Opening',$,$,#921,#910,$,$);
#904=IFCCARTESIANPOINTLIST2D(((9600.,5000.),(10500.,5000.),(10500.,5200.),(9600.,5200.),(9600.,5000.)));
#905=IFCINDEXEDPOLYCURVE(#904,$,$);
#906=IFCDIRECTION((0.,0.,1.));
#907=IFCARBITRARYCLOSEDPROFILEDEF(.AREA.,$,#905);
#908=IFCEXTRUDEDAREASOLID(#907,$,#906,2100.);
#909=IFCSHAPEREPRESENTATION(#11,'Body','SweptSolid',(#908));
#910=IFCPRODUCTDEFINITIONSHAPE($,$,(#909));
#916=IFCRELVOIDSELEMENT('3Pn6VJ$fLCGAcCDIulbrmV',$,$,$,#260,#903);
#917=IFCCARTESIANPOINT((0.,0.,0.));
#918=IFCDIRECTION((0.,0.,1.));
#919=IFCDIRECTION((1.,0.,0.));
#920=IFCAXIS2PLACEMENT3D(#917,#918,#919);
#921=IFCLOCALPLACEMENT(#277,#920);
#922=IFCDOOR('0AA9$OYKXDoQKkj4o5kz4j',$,'Door C',$,$,#1006,#996,$,$,$,$,$,$);
#923=IFCCARTESIANPOINTLIST2D(((0.,0.),(0.,2.1000000000000001),(0.90000000000000002,2.1000000000000001),(0.90000000000000002,0.),(-24.100000000000001,0.),(-24.100000000000001,-22.899999999999999),(25.,-22.899999999999999),(25.,0.)));
#924=IFCINDEXEDPOLYCURVE(#923,(IFCLINEINDEX((1,2,3,4,5,6,7,8,1))),$);
#925=IFCARBITRARYCLOSEDPROFILEDEF(.AREA.,$,#924);
#926=IFCCARTESIANPOINT((0.,25.,0.));
#927=IFCDIRECTION((0.,-1.,0.));
#928=IFCDIRECTION((1.,0.,0.));
#929=IFCAXIS2PLACEMENT3D(#926,#927,#928);
#930=IFCDIRECTION((0.,0.,-1.));
#931=IFCEXTRUDEDAREASOLID(#925,#929,#930,25.);
#932=IFCCARTESIANPOINTLIST2D(((0.,0.),(0.,2.1000000000000001),(0.90000000000000002,2.1000000000000001),(0.90000000000000002,0.),(-49.100000000000001,0.),(-49.100000000000001,-47.899999999999999),(50.,-47.899999999999999),(50.,0.)));
#933=IFCINDEXEDPOLYCURVE(#932,(IFCLINEINDEX((1,2,3,4,5,6,7,8,1))),$);
#934=IFCARBITRARYCLOSEDPROFILEDEF(.AREA.,$,#933);
#935=IFCCARTESIANPOINT((0.,0.,0.));
#936=IFCDIRECTION((0.,-1.,0.));
#937=IFCDIRECTION((1.,0.,0.));
#938=IFCAXIS2PLACEMENT3D(#935,#936,#937);
#939=IFCDIRECTION((0.,0.,-1.));
#940=IFCEXTRUDEDAREASOLID(#934,#938,#939,25.);
#941=IFCCARTESIANPOINTLIST2D(((0.,0.),(-99.099999999999994,0.),(-99.099999999999994,100.),(0.,100.)));
#942=IFCINDEXEDPOLYCURVE(#941,(IFCLINEINDEX((1,2,3,4,1))),$);
#943=IFCARBITRARYCLOSEDPROFILEDEF(.AREA.,$,#942);
#944=IFCCARTESIANPOINT((50.,0.,0.));
#945=IFCDIRECTION((0.,0.,1.));
#946=IFCDIRECTION((1.,0.,0.));
#947=IFCAXIS2PLACEMENT3D(#944,#945,#946);
#948=IFCDIRECTION((0.,0.,1.));
#949=IFCEXTRUDEDAREASOLID(#943,#947,#948,25.);
#950=IFCCARTESIANPOINTLIST2D(((0.,0.),(0.,27.100000000000001),(50.899999999999999,27.100000000000001),(50.899999999999999,0.),(-24.100000000000001,0.),(-24.100000000000001,-47.899999999999999),(75.,-47.899999999999999),(75.,0.)));
#951=IFCINDEXEDPOLYCURVE(#950,(IFCLINEINDEX((1,2,3,4,5,6,7,8,1))),$);
#952=IFCARBITRARYCLOSEDPROFILEDEF(.AREA.,$,#951);
#953=IFCCARTESIANPOINT((-25.,-5.,0.));
#954=IFCDIRECTION((0.,-1.,0.));
#955=IFCDIRECTION((1.,0.,0.));
#956=IFCAXIS2PLACEMENT3D(#953,#954,#955);
#957=IFCDIRECTION((0.,0.,-1.));
#958=IFCEXTRUDEDAREASOLID(#952,#956,#957,5.);
#959=IFCCARTESIANPOINTLIST2D(((0.,0.),(0.,27.100000000000001),(50.899999999999999,27.100000000000001),(50.899999999999999,0.),(0.89999999999999858,0.),(0.89999999999999858,-22.899999999999999),(50.,-22.899999999999999),(50.,0.)));
#960=IFCINDEXEDPOLYCURVE(#959,(IFCLINEINDEX((1,2,3,4,5,6,7,8,1))),$);
#961=IFCARBITRARYCLOSEDPROFILEDEF(.AREA.,$,#960);
#962=IFCCARTESIANPOINT((-25.,50.,0.));
#963=IFCDIRECTION((0.,-1.,0.));
#964=IFCDIRECTION((1.,0.,0.));
#965=IFCAXIS2PLACEMENT3D(#962,#963,#964);
#966=IFCDIRECTION((0.,0.,-1.));
#967=IFCEXTRUDEDAREASOLID(#961,#965,#966,5.);
#968=IFCCARTESIANPOINTLIST2D(((0.,0.),(-49.100000000000001,0.),(-49.100000000000001,35.),(0.,35.)));
#969=IFCINDEXEDPOLYCURVE(#968,(IFCLINEINDEX((1,2,3,4,1))),$);
#970=IFCARBITRARYCLOSEDPROFILEDEF(.AREA.,$,#969);
#971=IFCCARTESIANPOINT((25.,25.,25.));
#972=IFCDIRECTION((0.,0.,1.));
#973=IFCDIRECTION((1.,0.,0.));
#974=IFCAXIS2PLACEMENT3D(#971,#972,#973);
#975=IFCDIRECTION((0.,0.,1.));
#976=IFCEXTRUDEDAREASOLID(#970,#974,#975,-47.899999999999999);
#977=IFCCARTESIANPOINTLIST2D(((0.,0.),(0.,-40.),(-120.00000000000003,-40.),(-120.00000000000003,-20.),(-20.,-20.),(-20.,0.)));
#978=IFCINDEXEDPOLYCURVE(#977,(IFCLINEINDEX((1,2,3,4,5,6,1))),$);
#979=IFCARBITRARYCLOSEDPROFILEDEF(.AREA.,$,#978);
#980=IFCCARTESIANPOINT((-74.099999999999994,25.,1015.));
#981=IFCDIRECTION((0.,0.,1.));
#982=IFCDIRECTION((1.,0.,0.));
#983=IFCAXIS2PLACEMENT3D(#980,#981,#982);
#984=IFCDIRECTION((0.,0.,1.));
#985=IFCEXTRUDEDAREASOLID(#979,#983,#984,20.);
#986=IFCEXTRUDEDAREASOLID(#987,#990,#994,20.);
#987=IFCARBITRARYCLOSEDPROFILEDEF(.AREA.,$,#988);
#988=IFCINDEXEDPOLYCURVE(#989,(IFCLINEINDEX((1,2,3,4,5,6,1))),$);
#989=IFCCARTESIANPOINTLIST2D(((0.,0.),(0.,40.),(-120.00000000000003,40.),(-120.00000000000003,20.),(-20.,20.),(-20.,0.)));
#990=IFCAXIS2PLACEMENT3D(#991,#992,#993);
#991=IFCCARTESIANPOINT((-74.099999999999994,60.,1015.));
#992=IFCDIRECTION((0.,0.,1.));
#993=IFCDIRECTION((1.,0.,0.));
#994=IFCDIRECTION((0.,0.,1.));
#995=IFCSHAPEREPRESENTATION(#11,'Body','SweptSolid',(#931,#940,#976,#985,#986,#949,#958,#967));
#996=IFCPRODUCTDEFINITIONSHAPE($,$,(#995));
#1002=IFCCARTESIANPOINT((9600.,5000.,200.));
#1003=IFCDIRECTION((0.,0.,1.));
#1004=IFCDIRECTION((1.,0.,0.));
#1005=IFCAXIS2PLACEMENT3D(#1002,#1003,#1004);
#1006=IFCLOCALPLACEMENT(#30,#1005);
#1007=IFCRELFILLSELEMENT('2QjbmQDEPBWRzR4axmLi8Q',$,$,$,#903,#922);
#1008=IFCPROPERTYSET('3CYNR$GlH5y8DfHCY4R49E',$,'EPset_Plan',$,(#1010,#1011));
#1009=IFCRELDEFINESBYPROPERTIES('3DCZvGCRXCf8HBclc2X3XN',$,$,$,(#922),#1008);
#1010=IFCPROPERTYSINGLEVALUE('Polygon2D',$,IFCLABEL('9.6000,5.0000;10.5000,5.0000;10.5000,5.2000;9.6000,5.2000'),$);
#1011=IFCPROPERTYSINGLEVALUE('Category',$,IFCLABEL('IfcDoor'),$);
#1012=IFCPROPERTYSET('16CQxgR_5AZP4cScTLVyOP',$,'EPset_OpeningMeta',$,(#1014,#1015,#1016,#1017));
#1013=IFCRELDEFINESBYPROPERTIES('1DElBzmbz5_8PxmB_5Eyna',$,$,$,(#922),#1012);
#1014=IFCPROPERTYSINGLEVALUE('Width',$,IFCREAL(0.90000000000000002),$);
#1015=IFCPROPERTYSINGLEVALUE('Height',$,IFCREAL(2.1000000000000001),$);
#1016=IFCPROPERTYSINGLEVALUE('HostWall',$,IFCLABEL('Part-3'),$);
#1017=IFCPROPERTYSINGLEVALUE('TypeName',$,IFCLABEL('DoorType-900'),$);
#1018=IFCSPACE('3EwO18pmn1Vu2J1gB_y7P3',$,'Lobby',$,$,#1036,#1025,$,$,$,$);
#1019=IFCCARTESIANPOINTLIST2D(((200.,200.),(3799.9999999999995,200.),(3799.9999999999995,3000.),(200.,3000.),(200.,200.)));
#1020=IFCINDEXEDPOLYCURVE(#1019,$,$);
#1021=IFCDIRECTION((0.,0.,1.));
#1022=IFCARBITRARYCLOSEDPROFILEDEF(.AREA.,$,#1020);
#1023=IFCEXTRUDEDAREASOLID(#1022,$,#1021,2799.9999999999995);
#1024=IFCSHAPEREPRESENTATION(#11,'Body','SweptSolid',(#1023));
#1025=IFCPRODUCTDEFINITIONSHAPE($,$,(#1024));
#1031=IFCRELAGGREGATES('1w6OVTrXb3hRPQasXBXVjM',$,$,$,#16,(#1075,#1018,#1047,#1131,#1103));
#1032=IFCCARTESIANPOINT((0.,0.,200.));
#1033=IFCDIRECTION((0.,0.,1.));
#1034=IFCDIRECTION((1.,0.,0.));
#1035=IFCAXIS2PLACEMENT3D(#1032,#1033,#1034);
#1036=IFCLOCALPLACEMENT(#30,#1035);
#1037=IFCPROPERTYSET('1vCA$5$W5AZ8dTTZQBiBqU',$,'EPset_Plan',$,(#1039,#1040,#1041,#1042,#1043));
#1038=IFCRELDEFINESBYPROPERTIES('0xc358UYfBARCFwqCU5wzt',$,$,$,(#1018),#1037);
#1039=IFCPROPERTYSINGLEVALUE('Polygon2D',$,IFCLABEL('0.2000,0.2000;3.8000,0.2000;3.8000,3.0000;0.2000,3.0000'),$);
#1040=IFCPROPERTYSINGLEVALUE('Category',$,IFCLABEL('IfcSpace'),$);
#1041=IFCPROPERTYSINGLEVALUE('Label',$,IFCLABEL('Lobby'),$);
#1042=IFCPROPERTYSINGLEVALUE('LabelX',$,IFCREAL(2.),$);
#1043=IFCPROPERTYSINGLEVALUE('LabelY',$,IFCREAL(1.6000000000000001),$);
#1044=IFCELEMENTQUANTITY('1UfkZQGv17nRxmw62zNvBb',$,'Qto_SpaceBaseQuantities',$,'BaseQuantities',(#1046));
#1045=IFCRELDEFINESBYPROPERTIES('2vQKcyLSP2IOCdsdbgJXAO',$,$,$,(#1018),#1044);
#1046=IFCQUANTITYAREA('NetFloorArea',$,$,10.08,$);
#1047=IFCSPACE('1dqC$_sAv5HAbRMyxcZc5T',$,'Office A',$,$,#1064,#1054,$,$,$,$);
#1048=IFCCARTESIANPOINTLIST2D(((200.,3200.),(3799.9999999999995,3200.),(3799.9999999999995,9600.),(200.,9600.),(200.,3200.)));
#1049=IFCINDEXEDPOLYCURVE(#1048,$,$);
#1050=IFCDIRECTION((0.,0.,1.));
#1051=IFCARBITRARYCLOSEDPROFILEDEF(.AREA.,$,#1049);
#1052=IFCEXTRUDEDAREASOLID(#1051,$,#1050,2799.9999999999995);
#1053=IFCSHAPEREPRESENTATION(#11,'Body','SweptSolid',(#1052));
#1054=IFCPRODUCTDEFINITIONSHAPE($,$,(#1053));
#1060=IFCCARTESIANPOINT((0.,0.,200.));
#1061=IFCDIRECTION((0.,0.,1.));
#1062=IFCDIRECTION((1.,0.,0.));
#1063=IFCAXIS2PLACEMENT3D(#1060,#1061,#1062);
#1064=IFCLOCALPLACEMENT(#30,#1063);
#1065=IFCPROPERTYSET('0fXYD1ftDERvfhNLgjtY1q',$,'EPset_Plan',$,(#1067,#1068,#1069,#1070,#1071));
#1066=IFCRELDEFINESBYPROPERTIES('0nsu5XeRPDp84$hT324rcP',$,$,$,(#1047),#1065);
#1067=IFCPROPERTYSINGLEVALUE('Polygon2D',$,IFCLABEL('0.2000,3.2000;3.8000,3.2000;3.8000,9.6000;0.2000,9.6000'),$);
#1068=IFCPROPERTYSINGLEVALUE('Category',$,IFCLABEL('IfcSpace'),$);
#1069=IFCPROPERTYSINGLEVALUE('Label',$,IFCLABEL('Office A'),$);
#1070=IFCPROPERTYSINGLEVALUE('LabelX',$,IFCREAL(2.),$);
#1071=IFCPROPERTYSINGLEVALUE('LabelY',$,IFCREAL(6.4000000000000004),$);
#1072=IFCELEMENTQUANTITY('2aDZ0vsp57uhgjLYAPoSs3',$,'Qto_SpaceBaseQuantities',$,'BaseQuantities',(#1074));
#1073=IFCRELDEFINESBYPROPERTIES('1aVIlSYCP3rgR6Rice_ULz',$,$,$,(#1047),#1072);
#1074=IFCQUANTITYAREA('NetFloorArea',$,$,23.039999999999999,$);
#1075=IFCSPACE('3ouTfQHtT018O8BjjPE3Ce',$,'Office B',$,$,#1092,#1082,$,$,$,$);
#1076=IFCCARTESIANPOINTLIST2D(((4200.,200.),(7800.,200.),(7800.,9600.),(4200.,9600.),(4200.,200.)));
#1077=IFCINDEXEDPOLYCURVE(#1076,$,$);
#1078=IFCDIRECTION((0.,0.,1.));
#1079=IFCARBITRARYCLOSEDPROFILEDEF(.AREA.,$,#1077);
#1080=IFCEXTRUDEDAREASOLID(#1079,$,#1078,2799.9999999999995);
#1081=IFCSHAPEREPRESENTATION(#11,'Body','SweptSolid',(#1080));
#1082=IFCPRODUCTDEFINITIONSHAPE($,$,(#1081));
#1088=IFCCARTESIANPOINT((0.,0.,200.));
#1089=IFCDIRECTION((0.,0.,1.));
#1090=IFCDIRECTION((1.,0.,0.));
#1091=IFCAXIS2PLACEMENT3D(#1088,#1089,#1090);
#1092=IFCLOCALPLACEMENT(#30,#1091);
#1093=IFCPROPERTYSET('023EBDQAzFPfYsEjY7v8Za',$,'EPset_Plan',$,(#1095,#1096,#1097,#1098,#1099));
#1094=IFCRELDEFINESBYPROPERTIES('311R66jQ58avqMBF9PXAb1',$,$,$,(#1075),#1093);
#1095=IFCPROPERTYSINGLEVALUE('Polygon2D',$,IFCLABEL('4.2000,0.2000;7.8000,0.2000;7.8000,9.6000;4.2000,9.6000'),$);
#1096=IFCPROPERTYSINGLEVALUE('Category',$,IFCLABEL('IfcSpace'),$);
#1097=IFCPROPERTYSINGLEVALUE('Label',$,IFCLABEL('Office B'),$);
#1098=IFCPROPERTYSINGLEVALUE('LabelX',$,IFCREAL(6.),$);
#1099=IFCPROPERTYSINGLEVALUE('LabelY',$,IFCREAL(4.9000000000000004),$);
#1100=IFCELEMENTQUANTITY('11VQj1999F1f5tH_bexOOL',$,'Qto_SpaceBaseQuantities',$,'BaseQuantities',(#1102));
#1101=IFCRELDEFINESBYPROPERTIES('0IBRRpqgrCYPIp8YOlSDwr',$,$,$,(#1075),#1100);
#1102=IFCQUANTITYAREA('NetFloorArea',$,$,33.840000000000003,$);
#1103=IFCSPACE('1gIW_9l$DEGf8sb37w4vi3',$,'Meeting',$,$,#1120,#1110,$,$,$,$);
#1104=IFCCARTESIANPOINTLIST2D(((8200.,5200.),(11600.,5200.),(11600.,9600.),(8200.,9600.),(8200.,5200.)));
#1105=IFCINDEXEDPOLYCURVE(#1104,$,$);
#1106=IFCDIRECTION((0.,0.,1.));
#1107=IFCARBITRARYCLOSEDPROFILEDEF(.AREA.,$,#1105);
#1108=IFCEXTRUDEDAREASOLID(#1107,$,#1106,2799.9999999999995);
#1109=IFCSHAPEREPRESENTATION(#11,'Body','SweptSolid',(#1108));
#1110=IFCPRODUCTDEFINITIONSHAPE($,$,(#1109));
#1116=IFCCARTESIANPOINT((0.,0.,200.));
#1117=IFCDIRECTION((0.,0.,1.));
#1118=IFCDIRECTION((1.,0.,0.));
#1119=IFCAXIS2PLACEMENT3D(#1116,#1117,#1118);
#1120=IFCLOCALPLACEMENT(#30,#1119);
#1121=IFCPROPERTYSET('2GQPxr0aTBXhRFrK44FYmG',$,'EPset_Plan',$,(#1123,#1124,#1125,#1126,#1127));
#1122=IFCRELDEFINESBYPROPERTIES('2yaxys4Lr92A3kv3NTe2jA',$,$,$,(#1103),#1121);
#1123=IFCPROPERTYSINGLEVALUE('Polygon2D',$,IFCLABEL('8.2000,5.2000;11.6000,5.2000;11.6000,9.6000;8.2000,9.6000'),$);
#1124=IFCPROPERTYSINGLEVALUE('Category',$,IFCLABEL('IfcSpace'),$);
#1125=IFCPROPERTYSINGLEVALUE('Label',$,IFCLABEL('Meeting'),$);
#1126=IFCPROPERTYSINGLEVALUE('LabelX',$,IFCREAL(9.9000000000000004),$);
#1127=IFCPROPERTYSINGLEVALUE('LabelY',$,IFCREAL(7.4000000000000004),$);
#1128=IFCELEMENTQUANTITY('1vzRWGarvB8Pfmubk99P1n',$,'Qto_SpaceBaseQuantities',$,'BaseQuantities',(#1130));
#1129=IFCRELDEFINESBYPROPERTIES('0BvDJa8ir6VfpWhsKAVjEk',$,$,$,(#1103),#1128);
#1130=IFCQUANTITYAREA('NetFloorArea',$,$,14.960000000000001,$);
#1131=IFCSPACE('3wqHFZLpv69vyEQJCnNktN',$,'WC',$,$,#1148,#1138,$,$,$,$);
#1132=IFCCARTESIANPOINTLIST2D(((8200.,200.),(11600.,200.),(11600.,4800.),(8200.,4800.),(8200.,200.)));
#1133=IFCINDEXEDPOLYCURVE(#1132,$,$);
#1134=IFCDIRECTION((0.,0.,1.));
#1135=IFCARBITRARYCLOSEDPROFILEDEF(.AREA.,$,#1133);
#1136=IFCEXTRUDEDAREASOLID(#1135,$,#1134,2799.9999999999995);
#1137=IFCSHAPEREPRESENTATION(#11,'Body','SweptSolid',(#1136));
#1138=IFCPRODUCTDEFINITIONSHAPE($,$,(#1137));
#1144=IFCCARTESIANPOINT((0.,0.,200.));
#1145=IFCDIRECTION((0.,0.,1.));
#1146=IFCDIRECTION((1.,0.,0.));
#1147=IFCAXIS2PLACEMENT3D(#1144,#1145,#1146);
#1148=IFCLOCALPLACEMENT(#30,#1147);
#1149=IFCPROPERTYSET('3tqWA$6Of1oAeVSZ71YGYA',$,'EPset_Plan',$,(#1151,#1152,#1153,#1154,#1155));
#1150=IFCRELDEFINESBYPROPERTIES('1$u55Jt0nFn8sih2MOVW7Y',$,$,$,(#1131),#1149);
#1151=IFCPROPERTYSINGLEVALUE('Polygon2D',$,IFCLABEL('8.2000,0.2000;11.6000,0.2000;11.6000,4.8000;8.2000,4.8000'),$);
#1152=IFCPROPERTYSINGLEVALUE('Category',$,IFCLABEL('IfcSpace'),$);
#1153=IFCPROPERTYSINGLEVALUE('Label',$,IFCLABEL('WC'),$);
#1154=IFCPROPERTYSINGLEVALUE('LabelX',$,IFCREAL(9.9000000000000004),$);
#1155=IFCPROPERTYSINGLEVALUE('LabelY',$,IFCREAL(2.5),$);
#1156=IFCELEMENTQUANTITY('3yYuL4IIj9jQUYTru2KrnU',$,'Qto_SpaceBaseQuantities',$,'BaseQuantities',(#1158));
#1157=IFCRELDEFINESBYPROPERTIES('1OHZI2GDj8gBYaZgzmNJyL',$,$,$,(#1131),#1156);
#1158=IFCQUANTITYAREA('NetFloorArea',$,$,15.640000000000001,$);
#1159=IFCWALLTYPE('2ocKfx3IXDMenqZNbQMwY3',$,'OfficeWallType',$,$,(#1168),$,$,$,.NOTDEFINED.);
#1160=IFCMATERIALLAYERSET((#1162,#1164,#1166),'OfficeWallType Layers',$);
#1161=IFCMATERIAL('Brick',$,$);
#1162=IFCMATERIALLAYER(#1161,120.,$,$,$,$,$);
#1163=IFCMATERIAL('Insulation',$,$);
#1164=IFCMATERIALLAYER(#1163,50.,$,$,$,$,$);
#1165=IFCMATERIAL('Gypsum',$,$);
#1166=IFCMATERIALLAYER(#1165,15.,$,$,$,$,$);
#1167=IFCRELASSOCIATESMATERIAL('3xtKSHKhH0sh9xHs9uVXju',$,$,$,(#1159),#1160);
#1168=IFCPROPERTYSET('3LP9nGm3H2xeno$kENlVZG',$,'EPset_MaterialMeta',$,(#1169,#1170));
#1169=IFCPROPERTYSINGLEVALUE('LayerSummary',$,IFCLABEL('Brick:0.120m | Insulation:0.050m | Gypsum:0.015m'),$);
#1170=IFCPROPERTYSINGLEVALUE('TotalThicknessM',$,IFCREAL(0.185),$);
#1171=IFCSLABTYPE('14PVzcLfDAv8kpTKcerxgs',$,'OfficeSlabType',$,$,(#1176),$,$,$,.NOTDEFINED.);
#1172=IFCMATERIALLAYERSET((#1174),'OfficeSlabType Layers',$);
#1173=IFCMATERIAL('Concrete',$,$);
#1174=IFCMATERIALLAYER(#1173,200.,$,$,$,$,$);
#1175=IFCRELASSOCIATESMATERIAL('2Pd4IbooDEFeeMraAJtpC2',$,$,$,(#1171),#1172);
#1176=IFCPROPERTYSET('1Qvia9AAT6hv77uDdCdMXi',$,'EPset_MaterialMeta',$,(#1177,#1178));
#1177=IFCPROPERTYSINGLEVALUE('LayerSummary',$,IFCLABEL('Concrete:0.200m'),$);
#1178=IFCPROPERTYSINGLEVALUE('TotalThicknessM',$,IFCREAL(0.20000000000000001),$);
#1179=IFCDOORTYPE('11jdKlf$164AixronvtT2X',$,'DoorType-900',$,$,$,$,$,$,.NOTDEFINED.,.NOTDEFINED.,$,$);
#1180=IFCWINDOWTYPE('2XwHvAcuv6kB92QgH$4Qqe',$,'WindowType-1400',$,$,$,$,$,$,.NOTDEFINED.,.NOTDEFINED.,$,$);
#1181=IFCRELDEFINESBYTYPE('0nxgdpEaHCTwgy0lZz8fOO',$,$,$,(#163,#229,#260,#198,#128,#58,#93),#1159);
#1182=IFCRELDEFINESBYTYPE('0gJIjdgPDEBPNzDjZ9T$VP',$,$,$,(#31),#1171);
#1183=IFCRELDEFINESBYTYPE('1LYC$X61DBeQch2Cscfscx',$,$,$,(#922,#322,#692,#807),#1179);
#1184=IFCRELDEFINESBYTYPE('20aO9htXXE5RBiTC2N9WWg',$,$,$,(#437,#522,#607),#1180);
ENDSEC;
END-ISO-10303-21;
