<COLLADA xmlns="http://www.collada.org/2005/11/COLLADASchema" version="1.4.1">
  <asset>
    <created>2026-04-23T23:13:34.872315</created>
    <modified>2026-04-23T23:13:34.872326</modified>
    <up_axis>Y_UP</up_axis>
  </asset>
  <library_effects>
    <effect id="eff-wood" name="eff-wood">
      <profile_COMMON>
        <technique sid="common">
          <lambert>
            <emission>
              <color>0.0 0.0 0.0 1.0</color>
            </emission>
            <ambient>
              <color>0.0 0.0 0.0 1.0</color>
            </ambient>
            <diffuse>
              <color>0.7 0.5 0.3 1.0</color>
            </diffuse>
            <specular>
              <color>0 0 0 1.0</color>
            </specular>
            <shininess>
              <float>0.0</float>
            </shininess>
            <reflective>
              <color>0.0 0.0 0.0 1.0</color>
            </reflective>
            <reflectivity>
              <float>0.0</float>
            </reflectivity>
            <transparent>
              <color>0.0 0.0 0.0 1.0</color>
            </transparent>
            <transparency>
              <float>1.0</float>
            </transparency>
          </lambert>
        </technique>
        <extra>
          <technique profile="GOOGLEEARTH">
            <double_sided>0</double_sided>
          </technique>
        </extra>
      </profile_COMMON>
    </effect>
  </library_effects>
  <library_geometries>
    <geometry id="stair-geom" name="LStaircase">
      <mesh>
        <source id="stair-verts-array">
          <float_array count="504" id="stair-verts-array-array">0 0 0.1375 0.28 0 0.1375 0.28 1 0.1375 0 1 0.1375 0 0 0.1875 0.28 0 0.1875 0.28 1 0.1875 0 1 0.1875 0.28 0 0.325 0.56 0 0.325 0.56 1 0.325 0.28 1 0.325 0.28 0 0.375 0.56 0 0.375 0.56 1 0.375 0.28 1 0.375 0.56 0 0.5125 0.84 0 0.5125 0.84 1 0.5125 0.56 1 0.5125 0.56 0 0.5625 0.84 0 0.5625 0.84 1 0.5625 0.56 1 0.5625 0.84 0 0.7 1.12 0 0.7 1.12 1 0.7 0.84 1 0.7 0.84 0 0.75 1.12 0 0.75 1.12 1 0.75 0.84 1 0.75 1.12 0 0.8875 1.4 0 0.8875 1.4 1 0.8875 1.12 1 0.8875 1.12 0 0.9375 1.4 0 0.9375 1.4 1 0.9375 1.12 1 0.9375 1.4 0 1.075 1.68 0 1.075 1.68 1 1.075 1.4 1 1.075 1.4 0 1.125 1.68 0 1.125 1.68 1 1.125 1.4 1 1.125 1.68 0 1.2625 1.96 0 1.2625 1.96 1 1.2625 1.68 1 1.2625 1.68 0 1.3125 1.96 0 1.3125 1.96 1 1.3125 1.68 1 1.3125 1.96 0 1.45 2.24 0 1.45 2.24 1 1.45 1.96 1 1.45 1.96 0 1.5 2.24 0 1.5 2.24 1 1.5 1.96 1 1.5 2.24 0 1.45 3.44 0 1.45 3.44 1.2 1.45 2.24 1.2 1.45 2.24 0 1.5 3.44 0 1.5 3.44 1.2 1.5 2.24 1.2 1.5 2.44 1.2 1.6375 3.44 1.2 1.6375 3.44 1.48 1.6375 2.44 1.48 1.6375 2.44 1.2 1.6875 3.44 1.2 1.6875 3.44 1.48 1.6875 2.44 1.48 1.6875 2.44 1.48 1.825 3.44 1.48 1.825 3.44 1.76 1.825 2.44 1.76 1.825 2.44 1.48 1.875 3.44 1.48 1.875 3.44 1.76 1.875 2.44 1.76 1.875 2.44 1.76 2.0125 3.44 1.76 2.0125 3.44 2.04 2.0125 2.44 2.04 2.0125 2.44 1.76 2.0625 3.44 1.76 2.0625 3.44 2.04 2.0625 2.44 2.04 2.0625 2.44 2.04 2.2 3.44 2.04 2.2 3.44 2.32 2.2 2.44 2.32 2.2 2.44 2.04 2.25 3.44 2.04 2.25 3.44 2.32 2.25 2.44 2.32 2.25 2.44 2.32 2.3875 3.44 2.32 2.3875 3.44 2.6 2.3875 2.44 2.6 2.3875 2.44 2.32 2.4375 3.44 2.32 2.4375 3.44 2.6 2.4375 2.44 2.6 2.4375 2.44 2.6 2.575 3.44 2.6 2.575 3.44 2.88 2.575 2.44 2.88 2.575 2.44 2.6 2.625 3.44 2.6 2.625 3.44 2.88 2.625 2.44 2.88 2.625 2.44 2.88 2.7625 3.44 2.88 2.7625 3.44 3.16 2.7625 2.44 3.16 2.7625 2.44 2.88 2.8125 3.44 2.88 2.8125 3.44 3.16 2.8125 2.44 3.16 2.8125 2.44 3.16 2.95 3.44 3.16 2.95 3.44 3.44 2.95 2.44 3.44 2.95 2.44 3.16 3 3.44 3.16 3 3.44 3.44 3 2.44 3.44 3 0 -0.04 0 2.24 -0.04 0 2.24 0 0 0 0 0 0 -0.04 1.5 2.24 -0.04 1.5 2.24 0 1.5 0 0 1.5 0 1 0 2.24 1 0 2.24 1.04 0 0 1.04 0 0 1 1.5 2.24 1 1.5 2.24 1.04 1.5 0 1.04 1.5 2.4 1.2 1.45 2.44 1.2 1.45 2.44 3.44 1.45 2.4 3.44 1.45 2.4 1.2 3 2.44 1.2 3 2.44 3.44 3 2.4 3.44 3 3.44 1.2 1.45 3.48 1.2 1.45 3.48 3.44 1.45 3.44 3.44 1.45 3.44 1.2 3 3.48 1.2 3 3.48 3.44 3 3.44 3.44 3</float_array>
          <technique_common>
            <accessor count="168" source="#stair-verts-array-array" stride="3">
              <param type="float" name="X" />
              <param type="float" name="Y" />
              <param type="float" name="Z" />
            </accessor>
          </technique_common>
        </source>
        <vertices id="stair-verts-array-vertices">
          <input semantic="POSITION" source="#stair-verts-array" />
        </vertices>
        <triangles count="252" material="materialref">
          <input offset="0" semantic="VERTEX" source="#stair-verts-array-vertices" />
          <p>0 1 2 0 2 3 4 6 5 4 7 6 0 4 5 0 5 1 1 5 6 1 6 2 2 6 7 2 7 3 3 7 4 3 4 0 8 9 10 8 10 11 12 14 13 12 15 14 8 12 13 8 13 9 9 13 14 9 14 10 10 14 15 10 15 11 11 15 12 11 12 8 16 17 18 16 18 19 20 22 21 20 23 22 16 20 21 16 21 17 17 21 22 17 22 18 18 22 23 18 23 19 19 23 20 19 20 16 24 25 26 24 26 27 28 30 29 28 31 30 24 28 29 24 29 25 25 29 30 25 30 26 26 30 31 26 31 27 27 31 28 27 28 24 32 33 34 32 34 35 36 38 37 36 39 38 32 36 37 32 37 33 33 37 38 33 38 34 34 38 39 34 39 35 35 39 36 35 36 32 40 41 42 40 42 43 44 46 45 44 47 46 40 44 45 40 45 41 41 45 46 41 46 42 42 46 47 42 47 43 43 47 44 43 44 40 48 49 50 48 50 51 52 54 53 52 55 54 48 52 53 48 53 49 49 53 54 49 54 50 50 54 55 50 55 51 51 55 52 51 52 48 56 57 58 56 58 59 60 62 61 60 63 62 56 60 61 56 61 57 57 61 62 57 62 58 58 62 63 58 63 59 59 63 60 59 60 56 64 65 66 64 66 67 68 70 69 68 71 70 64 68 69 64 69 65 65 69 70 65 70 66 66 70 71 66 71 67 67 71 68 67 68 64 72 73 74 72 74 75 76 78 77 76 79 78 72 76 77 72 77 73 73 77 78 73 78 74 74 78 79 74 79 75 75 79 76 75 76 72 80 81 82 80 82 83 84 86 85 84 87 86 80 84 85 80 85 81 81 85 86 81 86 82 82 86 87 82 87 83 83 87 84 83 84 80 88 89 90 88 90 91 92 94 93 92 95 94 88 92 93 88 93 89 89 93 94 89 94 90 90 94 95 90 95 91 91 95 92 91 92 88 96 97 98 96 98 99 100 102 101 100 103 102 96 100 101 96 101 97 97 101 102 97 102 98 98 102 103 98 103 99 99 103 100 99 100 96 104 105 106 104 106 107 108 110 109 108 111 110 104 108 109 104 109 105 105 109 110 105 110 106 106 110 111 106 111 107 107 111 108 107 108 104 112 113 114 112 114 115 116 118 117 116 119 118 112 116 117 112 117 113 113 117 118 113 118 114 114 118 119 114 119 115 115 119 116 115 116 112 120 121 122 120 122 123 124 126 125 124 127 126 120 124 125 120 125 121 121 125 126 121 126 122 122 126 127 122 127 123 123 127 124 123 124 120 128 129 130 128 130 131 132 134 133 132 135 134 128 132 133 128 133 129 129 133 134 129 134 130 130 134 135 130 135 131 131 135 132 131 132 128 136 137 138 136 138 139 140 142 141 140 143 142 136 140 141 136 141 137 137 141 142 137 142 138 138 142 143 138 143 139 139 143 140 139 140 136 144 145 146 144 146 147 148 150 149 148 151 150 144 148 149 144 149 145 145 149 150 145 150 146 146 150 151 146 151 147 147 151 148 147 148 144 152 153 154 152 154 155 156 158 157 156 159 158 152 156 157 152 157 153 153 157 158 153 158 154 154 158 159 154 159 155 155 159 156 155 156 152 160 161 162 160 162 163 164 166 165 164 167 166 160 164 165 160 165 161 161 165 166 161 166 162 162 166 167 162 167 163 163 167 164 163 164 160</p>
        </triangles>
      </mesh>
    </geometry>
  </library_geometries>
  <library_materials>
    <material id="mat-wood" name="Wood">
      <instance_effect url="#eff-wood" />
    </material>
  </library_materials>
  <library_visual_scenes>
    <visual_scene id="scene">
      <node id="LStaircase" name="LStaircase">
        <instance_geometry url="#stair-geom">
          <bind_material>
            <technique_common>
              <instance_material symbol="materialref" target="#mat-wood" />
            </technique_common>
          </bind_material>
        </instance_geometry>
      </node>
    </visual_scene>
  </library_visual_scenes>
  <scene>
    <instance_visual_scene url="#scene" />
  </scene>
</COLLADA>
