ISO-10303-21;
HEADER;
FILE_DESCRIPTION(('ViewDefinition[DesignTransferView]'),'2;1');
FILE_NAME('/dev/null','2026-05-22T18:01:46+08:00',(''),(''),'IfcOpenShell 0.8.5','IfcOpenShell 0.8.5','Nobody');
FILE_SCHEMA(('IFC4'));
ENDSEC;
DATA;
#1=IFCPROJECT('3zz$8j23L2ZOCNKon7p7Q_',$,'Bonsai Task Project',$,$,$,$,(#10),#5);
#2=IFCSIUNIT(*,.LENGTHUNIT.,.MILLI.,.METRE.);
#3=IFCSIUNIT(*,.AREAUNIT.,$,.SQUARE_METRE.);
#4=IFCSIUNIT(*,.VOLUMEUNIT.,$,.CUBIC_METRE.);
#5=IFCUNITASSIGNMENT((#4,#2,#3));
#6=IFCCARTESIANPOINT((0.,0.,0.));
#7=IFCDIRECTION((0.,0.,1.));
#8=IFCDIRECTION((1.,0.,0.));
#9=IFCAXIS2PLACEMENT3D(#6,#7,#8);
#10=IFCGEOMETRICREPRESENTATIONCONTEXT($,'Model',3,1.0000000000000001E-05,#9,$);
#11=IFCGEOMETRICREPRESENTATIONSUBCONTEXT('Body','Model',*,*,*,*,#10,$,.MODEL_VIEW.,$);
#12=IFCSITE('1z0z38U714PhbogmgWbcyA',$,'Default Site',$,$,$,$,$,$,$,$,$,$,$);
#13=IFCBUILDING('3HZQcvzVrBl85V64GfP2sD',$,'Bonsai Building',$,$,$,$,$,$,$,$,$);
#14=IFCRELAGGREGATES('0o5be5jCb1Af$MH1pRdnnq',$,$,$,#1,(#12));
#15=IFCRELAGGREGATES('0ZZX06hfj7oPyHltX$R3IC',$,$,$,#12,(#13));
#16=IFCBUILDINGSTOREY('259db46rX82BeQPj7FFpFp',$,'Ground Floor',$,$,$,$,$,$,0.);
#17=IFCRELAGGREGATES('2wBRZfYpPF5fBR84nIXOgJ',$,$,$,#13,(#18,#16));
#18=IFCBUILDINGSTOREY('1lP7Pax7n3_8bsov0mxi87',$,'Level 2',$,$,$,$,$,$,3.2000000000000002);
#19=IFCWALL('342v9KL6T3VOnjYPmL1AF5',$,'South Wall',$,$,#652,#30,$,$);
#20=IFCCARTESIANPOINTLIST2D(((0.,0.),(0.,200.),(12000.,200.),(12000.,0.),(0.,0.)));
#21=IFCINDEXEDPOLYCURVE(#20,$,.F.);
#22=IFCDIRECTION((0.,0.,1.));
#23=IFCARBITRARYCLOSEDPROFILEDEF(.AREA.,$,#21);
#24=IFCCARTESIANPOINT((0.,0.,0.));
#25=IFCDIRECTION((0.,0.,1.));
#26=IFCDIRECTION((1.,0.,0.));
#27=IFCAXIS2PLACEMENT3D(#24,#25,#26);
#28=IFCEXTRUDEDAREASOLID(#23,#27,#22,6400.);
#29=IFCSHAPEREPRESENTATION(#11,'Body','SweptSolid',(#28));
#30=IFCPRODUCTDEFINITIONSHAPE($,$,(#29));
#36=IFCWALL('0xQ0nSqFH0JPa5hL6iIbGR',$,'North Wall',$,$,#657,#47,$,$);
#37=IFCCARTESIANPOINTLIST2D(((0.,0.),(0.,200.),(12000.,200.),(12000.,0.),(0.,0.)));
#38=IFCINDEXEDPOLYCURVE(#37,$,.F.);
#39=IFCDIRECTION((0.,0.,1.));
#40=IFCARBITRARYCLOSEDPROFILEDEF(.AREA.,$,#38);
#41=IFCCARTESIANPOINT((0.,0.,0.));
#42=IFCDIRECTION((0.,0.,1.));
#43=IFCDIRECTION((1.,0.,0.));
#44=IFCAXIS2PLACEMENT3D(#41,#42,#43);
#45=IFCEXTRUDEDAREASOLID(#40,#44,#39,6400.);
#46=IFCSHAPEREPRESENTATION(#11,'Body','SweptSolid',(#45));
#47=IFCPRODUCTDEFINITIONSHAPE($,$,(#46));
#53=IFCWALL('0k7ZKbZl97w9ftsnlPwNFR',$,'West Wall',$,$,#662,#64,$,$);
#54=IFCCARTESIANPOINTLIST2D(((0.,0.),(0.,200.),(7000.,200.),(7000.,0.),(0.,0.)));
#55=IFCINDEXEDPOLYCURVE(#54,$,.F.);
#56=IFCDIRECTION((0.,0.,1.));
#57=IFCARBITRARYCLOSEDPROFILEDEF(.AREA.,$,#55);
#58=IFCCARTESIANPOINT((0.,0.,0.));
#59=IFCDIRECTION((0.,0.,1.));
#60=IFCDIRECTION((1.,0.,0.));
#61=IFCAXIS2PLACEMENT3D(#58,#59,#60);
#62=IFCEXTRUDEDAREASOLID(#57,#61,#56,6400.);
#63=IFCSHAPEREPRESENTATION(#11,'Body','SweptSolid',(#62));
#64=IFCPRODUCTDEFINITIONSHAPE($,$,(#63));
#70=IFCWALL('01_EUMhMv9iAo8rCIdjWlT',$,'East Wall',$,$,#667,#81,$,$);
#71=IFCCARTESIANPOINTLIST2D(((0.,0.),(0.,200.),(7000.,200.),(7000.,0.),(0.,0.)));
#72=IFCINDEXEDPOLYCURVE(#71,$,.F.);
#73=IFCDIRECTION((0.,0.,1.));
#74=IFCARBITRARYCLOSEDPROFILEDEF(.AREA.,$,#72);
#75=IFCCARTESIANPOINT((0.,0.,0.));
#76=IFCDIRECTION((0.,0.,1.));
#77=IFCDIRECTION((1.,0.,0.));
#78=IFCAXIS2PLACEMENT3D(#75,#76,#77);
#79=IFCEXTRUDEDAREASOLID(#74,#78,#73,6400.);
#80=IFCSHAPEREPRESENTATION(#11,'Body','SweptSolid',(#79));
#81=IFCPRODUCTDEFINITIONSHAPE($,$,(#80));
#87=IFCWALL('3HVJf6mkr2xQCRo1Vvkosc',$,'Interior Partition 1',$,$,#672,#98,$,$);
#88=IFCCARTESIANPOINTLIST2D(((0.,0.),(0.,200.),(7000.,200.),(7000.,0.),(0.,0.)));
#89=IFCINDEXEDPOLYCURVE(#88,$,.F.);
#90=IFCDIRECTION((0.,0.,1.));
#91=IFCARBITRARYCLOSEDPROFILEDEF(.AREA.,$,#89);
#92=IFCCARTESIANPOINT((0.,0.,0.));
#93=IFCDIRECTION((0.,0.,1.));
#94=IFCDIRECTION((1.,0.,0.));
#95=IFCAXIS2PLACEMENT3D(#92,#93,#94);
#96=IFCEXTRUDEDAREASOLID(#91,#95,#90,6400.);
#97=IFCSHAPEREPRESENTATION(#11,'Body','SweptSolid',(#96));
#98=IFCPRODUCTDEFINITIONSHAPE($,$,(#97));
#104=IFCWALL('1I0IgrMYb2bBsibgrHNKVe',$,'Interior Partition 2',$,$,#677,#115,$,$);
#105=IFCCARTESIANPOINTLIST2D(((0.,0.),(0.,200.),(7000.,200.),(7000.,0.),(0.,0.)));
#106=IFCINDEXEDPOLYCURVE(#105,$,.F.);
#107=IFCDIRECTION((0.,0.,1.));
#108=IFCARBITRARYCLOSEDPROFILEDEF(.AREA.,$,#106);
#109=IFCCARTESIANPOINT((0.,0.,0.));
#110=IFCDIRECTION((0.,0.,1.));
#111=IFCDIRECTION((1.,0.,0.));
#112=IFCAXIS2PLACEMENT3D(#109,#110,#111);
#113=IFCEXTRUDEDAREASOLID(#108,#112,#107,6400.);
#114=IFCSHAPEREPRESENTATION(#11,'Body','SweptSolid',(#113));
#115=IFCPRODUCTDEFINITIONSHAPE($,$,(#114));
#121=IFCWALL('1VbthVJd9CteFQehzTm0Kh',$,'Interior Partition 3',$,$,#682,#132,$,$);
#122=IFCCARTESIANPOINTLIST2D(((0.,0.),(0.,200.),(7000.,200.),(7000.,0.),(0.,0.)));
#123=IFCINDEXEDPOLYCURVE(#122,$,.F.);
#124=IFCDIRECTION((0.,0.,1.));
#125=IFCARBITRARYCLOSEDPROFILEDEF(.AREA.,$,#123);
#126=IFCCARTESIANPOINT((0.,0.,0.));
#127=IFCDIRECTION((0.,0.,1.));
#128=IFCDIRECTION((1.,0.,0.));
#129=IFCAXIS2PLACEMENT3D(#126,#127,#128);
#130=IFCEXTRUDEDAREASOLID(#125,#129,#124,6400.);
#131=IFCSHAPEREPRESENTATION(#11,'Body','SweptSolid',(#130));
#132=IFCPRODUCTDEFINITIONSHAPE($,$,(#131));
#138=IFCWALL('1gz_gF$1DCIRhJKpTVbeeC',$,'Interior Partition 4',$,$,#687,#149,$,$);
#139=IFCCARTESIANPOINTLIST2D(((0.,0.),(0.,200.),(7000.,200.),(7000.,0.),(0.,0.)));
#140=IFCINDEXEDPOLYCURVE(#139,$,.F.);
#141=IFCDIRECTION((0.,0.,1.));
#142=IFCARBITRARYCLOSEDPROFILEDEF(.AREA.,$,#140);
#143=IFCCARTESIANPOINT((0.,0.,0.));
#144=IFCDIRECTION((0.,0.,1.));
#145=IFCDIRECTION((1.,0.,0.));
#146=IFCAXIS2PLACEMENT3D(#143,#144,#145);
#147=IFCEXTRUDEDAREASOLID(#142,#146,#141,6400.);
#148=IFCSHAPEREPRESENTATION(#11,'Body','SweptSolid',(#147));
#149=IFCPRODUCTDEFINITIONSHAPE($,$,(#148));
#155=IFCWALL('3qqOeE6k5Cjfi3a7Hcn8yS',$,'Interior Partition 5',$,$,#692,#166,$,$);
#156=IFCCARTESIANPOINTLIST2D(((0.,0.),(0.,200.),(7000.,200.),(7000.,0.),(0.,0.)));
#157=IFCINDEXEDPOLYCURVE(#156,$,.F.);
#158=IFCDIRECTION((0.,0.,1.));
#159=IFCARBITRARYCLOSEDPROFILEDEF(.AREA.,$,#157);
#160=IFCCARTESIANPOINT((0.,0.,0.));
#161=IFCDIRECTION((0.,0.,1.));
#162=IFCDIRECTION((1.,0.,0.));
#163=IFCAXIS2PLACEMENT3D(#160,#161,#162);
#164=IFCEXTRUDEDAREASOLID(#159,#163,#158,6400.);
#165=IFCSHAPEREPRESENTATION(#11,'Body','SweptSolid',(#164));
#166=IFCPRODUCTDEFINITIONSHAPE($,$,(#165));
#172=IFCWALL('0PYSWoEUX8OeVuW07fVjQa',$,'Interior Partition 6',$,$,#697,#183,$,$);
#173=IFCCARTESIANPOINTLIST2D(((0.,0.),(0.,200.),(7000.,200.),(7000.,0.),(0.,0.)));
#174=IFCINDEXEDPOLYCURVE(#173,$,.F.);
#175=IFCDIRECTION((0.,0.,1.));
#176=IFCARBITRARYCLOSEDPROFILEDEF(.AREA.,$,#174);
#177=IFCCARTESIANPOINT((0.,0.,0.));
#178=IFCDIRECTION((0.,0.,1.));
#179=IFCDIRECTION((1.,0.,0.));
#180=IFCAXIS2PLACEMENT3D(#177,#178,#179);
#181=IFCEXTRUDEDAREASOLID(#176,#180,#175,6400.);
#182=IFCSHAPEREPRESENTATION(#11,'Body','SweptSolid',(#181));
#183=IFCPRODUCTDEFINITIONSHAPE($,$,(#182));
#189=IFCWALL('1P2yIkO0T6MeuhWtacqIYz',$,'Interior Partition 7',$,$,#702,#200,$,$);
#190=IFCCARTESIANPOINTLIST2D(((0.,0.),(0.,200.),(7000.,200.),(7000.,0.),(0.,0.)));
#191=IFCINDEXEDPOLYCURVE(#190,$,.F.);
#192=IFCDIRECTION((0.,0.,1.));
#193=IFCARBITRARYCLOSEDPROFILEDEF(.AREA.,$,#191);
#194=IFCCARTESIANPOINT((0.,0.,0.));
#195=IFCDIRECTION((0.,0.,1.));
#196=IFCDIRECTION((1.,0.,0.));
#197=IFCAXIS2PLACEMENT3D(#194,#195,#196);
#198=IFCEXTRUDEDAREASOLID(#193,#197,#192,6400.);
#199=IFCSHAPEREPRESENTATION(#11,'Body','SweptSolid',(#198));
#200=IFCPRODUCTDEFINITIONSHAPE($,$,(#199));
#206=IFCWALL('2RMlOW7CXB1woCiIrm7vgl',$,'Interior Partition 8',$,$,#707,#217,$,$);
#207=IFCCARTESIANPOINTLIST2D(((0.,0.),(0.,200.),(7000.,200.),(7000.,0.),(0.,0.)));
#208=IFCINDEXEDPOLYCURVE(#207,$,.F.);
#209=IFCDIRECTION((0.,0.,1.));
#210=IFCARBITRARYCLOSEDPROFILEDEF(.AREA.,$,#208);
#211=IFCCARTESIANPOINT((0.,0.,0.));
#212=IFCDIRECTION((0.,0.,1.));
#213=IFCDIRECTION((1.,0.,0.));
#214=IFCAXIS2PLACEMENT3D(#211,#212,#213);
#215=IFCEXTRUDEDAREASOLID(#210,#214,#209,6400.);
#216=IFCSHAPEREPRESENTATION(#11,'Body','SweptSolid',(#215));
#217=IFCPRODUCTDEFINITIONSHAPE($,$,(#216));
#223=IFCSLAB('1furtujxP3DOv1kIuMDan_',$,'Slab 1',$,$,#712,#230,$,$);
#224=IFCCARTESIANPOINTLIST2D(((0.,0.),(12000.,0.),(12000.,7000.),(0.,7000.),(0.,0.)));
#225=IFCINDEXEDPOLYCURVE(#224,$,$);
#226=IFCDIRECTION((0.,0.,1.));
#227=IFCARBITRARYCLOSEDPROFILEDEF(.AREA.,$,#225);
#228=IFCEXTRUDEDAREASOLID(#227,$,#226,200.);
#229=IFCSHAPEREPRESENTATION(#11,'Body','SweptSolid',(#228));
#230=IFCPRODUCTDEFINITIONSHAPE($,$,(#229));
#236=IFCSLAB('2zeDXGX6f5O8GD$MXZh1r9',$,'Slab 2',$,$,#717,#243,$,$);
#237=IFCCARTESIANPOINTLIST2D(((0.,0.),(12000.,0.),(12000.,7000.),(0.,7000.),(0.,0.)));
#238=IFCINDEXEDPOLYCURVE(#237,$,$);
#239=IFCDIRECTION((0.,0.,1.));
#240=IFCARBITRARYCLOSEDPROFILEDEF(.AREA.,$,#238);
#241=IFCEXTRUDEDAREASOLID(#240,$,#239,200.);
#242=IFCSHAPEREPRESENTATION(#11,'Body','SweptSolid',(#241));
#243=IFCPRODUCTDEFINITIONSHAPE($,$,(#242));
#249=IFCSPACE('1SaW6Aq8L8ShvIn9xmPNgQ',$,'Lobby',$,$,#337,#256,$,$,$,$);
#250=IFCCARTESIANPOINTLIST2D(((0.,0.),(4000.,0.),(4000.,7000.),(0.,7000.),(0.,0.)));
#251=IFCINDEXEDPOLYCURVE(#250,$,$);
#252=IFCDIRECTION((0.,0.,1.));
#253=IFCARBITRARYCLOSEDPROFILEDEF(.AREA.,$,#251);
#254=IFCEXTRUDEDAREASOLID(#253,$,#252,3200.);
#255=IFCSHAPEREPRESENTATION(#11,'Body','SweptSolid',(#254));
#256=IFCPRODUCTDEFINITIONSHAPE($,$,(#255));
#262=IFCSPACE('3uXkhsGDDByfRev0PXEita',$,'Classroom 1',$,$,#353,#269,$,$,$,$);
#263=IFCCARTESIANPOINTLIST2D(((0.,0.),(4000.,0.),(4000.,7000.),(0.,7000.),(0.,0.)));
#264=IFCINDEXEDPOLYCURVE(#263,$,$);
#265=IFCDIRECTION((0.,0.,1.));
#266=IFCARBITRARYCLOSEDPROFILEDEF(.AREA.,$,#264);
#267=IFCEXTRUDEDAREASOLID(#266,$,#265,3200.);
#268=IFCSHAPEREPRESENTATION(#11,'Body','SweptSolid',(#267));
#269=IFCPRODUCTDEFINITIONSHAPE($,$,(#268));
#275=IFCSPACE('2a0ucr9gj1lAfC5h4iNPmB',$,'Classroom 2',$,$,#332,#282,$,$,$,$);
#276=IFCCARTESIANPOINTLIST2D(((4000.,0.),(8000.,0.),(8000.,7000.),(4000.,7000.),(4000.,0.)));
#277=IFCINDEXEDPOLYCURVE(#276,$,$);
#278=IFCDIRECTION((0.,0.,1.));
#279=IFCARBITRARYCLOSEDPROFILEDEF(.AREA.,$,#277);
#280=IFCEXTRUDEDAREASOLID(#279,$,#278,3200.);
#281=IFCSHAPEREPRESENTATION(#11,'Body','SweptSolid',(#280));
#282=IFCPRODUCTDEFINITIONSHAPE($,$,(#281));
#288=IFCSPACE('1lw2$HA6r4tvykt$mc22Oh',$,'Staff',$,$,#358,#295,$,$,$,$);
#289=IFCCARTESIANPOINTLIST2D(((4000.,0.),(8000.,0.),(8000.,7000.),(4000.,7000.),(4000.,0.)));
#290=IFCINDEXEDPOLYCURVE(#289,$,$);
#291=IFCDIRECTION((0.,0.,1.));
#292=IFCARBITRARYCLOSEDPROFILEDEF(.AREA.,$,#290);
#293=IFCEXTRUDEDAREASOLID(#292,$,#291,3200.);
#294=IFCSHAPEREPRESENTATION(#11,'Body','SweptSolid',(#293));
#295=IFCPRODUCTDEFINITIONSHAPE($,$,(#294));
#301=IFCSPACE('1Qn4gzaz1FjggdG53kkE_l',$,'Upper Studio',$,$,#342,#308,$,$,$,$);
#302=IFCCARTESIANPOINTLIST2D(((8000.,0.),(12000.,0.),(12000.,7000.),(8000.,7000.),(8000.,0.)));
#303=IFCINDEXEDPOLYCURVE(#302,$,$);
#304=IFCDIRECTION((0.,0.,1.));
#305=IFCARBITRARYCLOSEDPROFILEDEF(.AREA.,$,#303);
#306=IFCEXTRUDEDAREASOLID(#305,$,#304,3200.);
#307=IFCSHAPEREPRESENTATION(#11,'Body','SweptSolid',(#306));
#308=IFCPRODUCTDEFINITIONSHAPE($,$,(#307));
#314=IFCSPACE('3g2iqGW6520RARziXkQIWY',$,'Upper Store',$,$,#348,#321,$,$,$,$);
#315=IFCCARTESIANPOINTLIST2D(((8000.,0.),(12000.,0.),(12000.,7000.),(8000.,7000.),(8000.,0.)));
#316=IFCINDEXEDPOLYCURVE(#315,$,$);
#317=IFCDIRECTION((0.,0.,1.));
#318=IFCARBITRARYCLOSEDPROFILEDEF(.AREA.,$,#316);
#319=IFCEXTRUDEDAREASOLID(#318,$,#317,3200.);
#320=IFCSHAPEREPRESENTATION(#11,'Body','SweptSolid',(#319));
#321=IFCPRODUCTDEFINITIONSHAPE($,$,(#320));
#327=IFCRELAGGREGATES('0m60XAqkfBUvFlwbrExVAP',$,$,$,#16,(#275,#249,#301));
#328=IFCCARTESIANPOINT((0.,0.,0.));
#329=IFCDIRECTION((0.,0.,1.));
#330=IFCDIRECTION((1.,0.,0.));
#331=IFCAXIS2PLACEMENT3D(#328,#329,#330);
#332=IFCLOCALPLACEMENT($,#331);
#333=IFCCARTESIANPOINT((0.,0.,0.));
#334=IFCDIRECTION((0.,0.,1.));
#335=IFCDIRECTION((1.,0.,0.));
#336=IFCAXIS2PLACEMENT3D(#333,#334,#335);
#337=IFCLOCALPLACEMENT($,#336);
#338=IFCCARTESIANPOINT((0.,0.,0.));
#339=IFCDIRECTION((0.,0.,1.));
#340=IFCDIRECTION((1.,0.,0.));
#341=IFCAXIS2PLACEMENT3D(#338,#339,#340);
#342=IFCLOCALPLACEMENT($,#341);
#343=IFCRELAGGREGATES('01WIZI6W9ECRwM9FTql96Q',$,$,$,#18,(#314,#262,#288));
#344=IFCCARTESIANPOINT((0.,0.,3200.));
#345=IFCDIRECTION((0.,0.,1.));
#346=IFCDIRECTION((1.,0.,0.));
#347=IFCAXIS2PLACEMENT3D(#344,#345,#346);
#348=IFCLOCALPLACEMENT($,#347);
#349=IFCCARTESIANPOINT((0.,0.,3200.));
#350=IFCDIRECTION((0.,0.,1.));
#351=IFCDIRECTION((1.,0.,0.));
#352=IFCAXIS2PLACEMENT3D(#349,#350,#351);
#353=IFCLOCALPLACEMENT($,#352);
#354=IFCCARTESIANPOINT((0.,0.,3200.));
#355=IFCDIRECTION((0.,0.,1.));
#356=IFCDIRECTION((1.,0.,0.));
#357=IFCAXIS2PLACEMENT3D(#354,#355,#356);
#358=IFCLOCALPLACEMENT($,#357);
#359=IFCDOOR('0rOzMcyCvA_9UzozQa$xIi',$,'Door 1',$,$,#722,#369,$,2.1000000000000001,0.90000000000000002,$,$,$);
#360=IFCCARTESIANPOINTLIST3D(((0.,0.,0.),(900.,0.,0.),(900.,80.,0.),(0.,80.,0.),(0.,0.,2100.),(900.,0.,2100.),(900.,80.,2100.),(0.,80.,2100.)));
#361=IFCINDEXEDPOLYGONALFACE((1,2,3,4));
#362=IFCINDEXEDPOLYGONALFACE((5,8,7,6));
#363=IFCINDEXEDPOLYGONALFACE((1,5,6,2));
#364=IFCINDEXEDPOLYGONALFACE((2,6,7,3));
#365=IFCINDEXEDPOLYGONALFACE((3,7,8,4));
#366=IFCINDEXEDPOLYGONALFACE((4,8,5,1));
#367=IFCPOLYGONALFACESET(#360,$,(#361,#362,#363,#364,#365,#366),$);
#368=IFCSHAPEREPRESENTATION(#11,'Body','Tessellation',(#367));
#369=IFCPRODUCTDEFINITIONSHAPE($,$,(#368));
#375=IFCDOOR('06HbcG_GjDWuYwc8ujv5_Y',$,'Door 2',$,$,#727,#385,$,2.1000000000000001,0.90000000000000002,$,$,$);
#376=IFCCARTESIANPOINTLIST3D(((0.,0.,0.),(900.,0.,0.),(900.,80.,0.),(0.,80.,0.),(0.,0.,2100.),(900.,0.,2100.),(900.,80.,2100.),(0.,80.,2100.)));
#377=IFCINDEXEDPOLYGONALFACE((1,2,3,4));
#378=IFCINDEXEDPOLYGONALFACE((5,8,7,6));
#379=IFCINDEXEDPOLYGONALFACE((1,5,6,2));
#380=IFCINDEXEDPOLYGONALFACE((2,6,7,3));
#381=IFCINDEXEDPOLYGONALFACE((3,7,8,4));
#382=IFCINDEXEDPOLYGONALFACE((4,8,5,1));
#383=IFCPOLYGONALFACESET(#376,$,(#377,#378,#379,#380,#381,#382),$);
#384=IFCSHAPEREPRESENTATION(#11,'Body','Tessellation',(#383));
#385=IFCPRODUCTDEFINITIONSHAPE($,$,(#384));
#391=IFCDOOR('236MyuJ69FGOnCvPvO501Z',$,'Door 3',$,$,#732,#401,$,2.1000000000000001,0.90000000000000002,$,$,$);
#392=IFCCARTESIANPOINTLIST3D(((0.,0.,0.),(900.,0.,0.),(900.,80.,0.),(0.,80.,0.),(0.,0.,2100.),(900.,0.,2100.),(900.,80.,2100.),(0.,80.,2100.)));
#393=IFCINDEXEDPOLYGONALFACE((1,2,3,4));
#394=IFCINDEXEDPOLYGONALFACE((5,8,7,6));
#395=IFCINDEXEDPOLYGONALFACE((1,5,6,2));
#396=IFCINDEXEDPOLYGONALFACE((2,6,7,3));
#397=IFCINDEXEDPOLYGONALFACE((3,7,8,4));
#398=IFCINDEXEDPOLYGONALFACE((4,8,5,1));
#399=IFCPOLYGONALFACESET(#392,$,(#393,#394,#395,#396,#397,#398),$);
#400=IFCSHAPEREPRESENTATION(#11,'Body','Tessellation',(#399));
#401=IFCPRODUCTDEFINITIONSHAPE($,$,(#400));
#407=IFCDOOR('3Qgj7f00XFH8R275Q5XWmu',$,'Door 4',$,$,#738,#417,$,2.1000000000000001,0.90000000000000002,$,$,$);
#408=IFCCARTESIANPOINTLIST3D(((0.,0.,0.),(900.,0.,0.),(900.,80.,0.),(0.,80.,0.),(0.,0.,2100.),(900.,0.,2100.),(900.,80.,2100.),(0.,80.,2100.)));
#409=IFCINDEXEDPOLYGONALFACE((1,2,3,4));
#410=IFCINDEXEDPOLYGONALFACE((5,8,7,6));
#411=IFCINDEXEDPOLYGONALFACE((1,5,6,2));
#412=IFCINDEXEDPOLYGONALFACE((2,6,7,3));
#413=IFCINDEXEDPOLYGONALFACE((3,7,8,4));
#414=IFCINDEXEDPOLYGONALFACE((4,8,5,1));
#415=IFCPOLYGONALFACESET(#408,$,(#409,#410,#411,#412,#413,#414),$);
#416=IFCSHAPEREPRESENTATION(#11,'Body','Tessellation',(#415));
#417=IFCPRODUCTDEFINITIONSHAPE($,$,(#416));
#423=IFCDOOR('0JBsAwM391pBPj23guO1Cs',$,'Door 5',$,$,#743,#433,$,2.1000000000000001,0.90000000000000002,$,$,$);
#424=IFCCARTESIANPOINTLIST3D(((0.,0.,0.),(900.,0.,0.),(900.,80.,0.),(0.,80.,0.),(0.,0.,2100.),(900.,0.,2100.),(900.,80.,2100.),(0.,80.,2100.)));
#425=IFCINDEXEDPOLYGONALFACE((1,2,3,4));
#426=IFCINDEXEDPOLYGONALFACE((5,8,7,6));
#427=IFCINDEXEDPOLYGONALFACE((1,5,6,2));
#428=IFCINDEXEDPOLYGONALFACE((2,6,7,3));
#429=IFCINDEXEDPOLYGONALFACE((3,7,8,4));
#430=IFCINDEXEDPOLYGONALFACE((4,8,5,1));
#431=IFCPOLYGONALFACESET(#424,$,(#425,#426,#427,#428,#429,#430),$);
#432=IFCSHAPEREPRESENTATION(#11,'Body','Tessellation',(#431));
#433=IFCPRODUCTDEFINITIONSHAPE($,$,(#432));
#439=IFCDOOR('2PJpOyUnr9zP4GxBEnCCRy',$,'Door 6',$,$,#748,#449,$,2.1000000000000001,0.90000000000000002,$,$,$);
#440=IFCCARTESIANPOINTLIST3D(((0.,0.,0.),(900.,0.,0.),(900.,80.,0.),(0.,80.,0.),(0.,0.,2100.),(900.,0.,2100.),(900.,80.,2100.),(0.,80.,2100.)));
#441=IFCINDEXEDPOLYGONALFACE((1,2,3,4));
#442=IFCINDEXEDPOLYGONALFACE((5,8,7,6));
#443=IFCINDEXEDPOLYGONALFACE((1,5,6,2));
#444=IFCINDEXEDPOLYGONALFACE((2,6,7,3));
#445=IFCINDEXEDPOLYGONALFACE((3,7,8,4));
#446=IFCINDEXEDPOLYGONALFACE((4,8,5,1));
#447=IFCPOLYGONALFACESET(#440,$,(#441,#442,#443,#444,#445,#446),$);
#448=IFCSHAPEREPRESENTATION(#11,'Body','Tessellation',(#447));
#449=IFCPRODUCTDEFINITIONSHAPE($,$,(#448));
#455=IFCWINDOW('3xTsaH75r3Lxnp_QHgZTYO',$,'Window 1',$,$,#753,#465,$,1.,1.2,$,$,$);
#456=IFCCARTESIANPOINTLIST3D(((0.,0.,0.),(1200.,0.,0.),(1200.,80.,0.),(0.,80.,0.),(0.,0.,1000.),(1200.,0.,1000.),(1200.,80.,1000.),(0.,80.,1000.)));
#457=IFCINDEXEDPOLYGONALFACE((1,2,3,4));
#458=IFCINDEXEDPOLYGONALFACE((5,8,7,6));
#459=IFCINDEXEDPOLYGONALFACE((1,5,6,2));
#460=IFCINDEXEDPOLYGONALFACE((2,6,7,3));
#461=IFCINDEXEDPOLYGONALFACE((3,7,8,4));
#462=IFCINDEXEDPOLYGONALFACE((4,8,5,1));
#463=IFCPOLYGONALFACESET(#456,$,(#457,#458,#459,#460,#461,#462),$);
#464=IFCSHAPEREPRESENTATION(#11,'Body','Tessellation',(#463));
#465=IFCPRODUCTDEFINITIONSHAPE($,$,(#464));
#471=IFCWINDOW('0fhpAwqkfEXfJXkCufbQ3j',$,'Window 2',$,$,#758,#481,$,1.,1.2,$,$,$);
#472=IFCCARTESIANPOINTLIST3D(((0.,0.,0.),(1200.,0.,0.),(1200.,80.,0.),(0.,80.,0.),(0.,0.,1000.),(1200.,0.,1000.),(1200.,80.,1000.),(0.,80.,1000.)));
#473=IFCINDEXEDPOLYGONALFACE((1,2,3,4));
#474=IFCINDEXEDPOLYGONALFACE((5,8,7,6));
#475=IFCINDEXEDPOLYGONALFACE((1,5,6,2));
#476=IFCINDEXEDPOLYGONALFACE((2,6,7,3));
#477=IFCINDEXEDPOLYGONALFACE((3,7,8,4));
#478=IFCINDEXEDPOLYGONALFACE((4,8,5,1));
#479=IFCPOLYGONALFACESET(#472,$,(#473,#474,#475,#476,#477,#478),$);
#480=IFCSHAPEREPRESENTATION(#11,'Body','Tessellation',(#479));
#481=IFCPRODUCTDEFINITIONSHAPE($,$,(#480));
#487=IFCWINDOW('3cVULnL211Axb$CHxKPfX4',$,'Window 3',$,$,#763,#497,$,1.,1.2,$,$,$);
#488=IFCCARTESIANPOINTLIST3D(((0.,0.,0.),(1200.,0.,0.),(1200.,80.,0.),(0.,80.,0.),(0.,0.,1000.),(1200.,0.,1000.),(1200.,80.,1000.),(0.,80.,1000.)));
#489=IFCINDEXEDPOLYGONALFACE((1,2,3,4));
#490=IFCINDEXEDPOLYGONALFACE((5,8,7,6));
#491=IFCINDEXEDPOLYGONALFACE((1,5,6,2));
#492=IFCINDEXEDPOLYGONALFACE((2,6,7,3));
#493=IFCINDEXEDPOLYGONALFACE((3,7,8,4));
#494=IFCINDEXEDPOLYGONALFACE((4,8,5,1));
#495=IFCPOLYGONALFACESET(#488,$,(#489,#490,#491,#492,#493,#494),$);
#496=IFCSHAPEREPRESENTATION(#11,'Body','Tessellation',(#495));
#497=IFCPRODUCTDEFINITIONSHAPE($,$,(#496));
#503=IFCWINDOW('2v71F3PqX2Dg8Lt5GwEym$',$,'Window 4',$,$,#768,#513,$,1.,1.2,$,$,$);
#504=IFCCARTESIANPOINTLIST3D(((0.,0.,0.),(1200.,0.,0.),(1200.,80.,0.),(0.,80.,0.),(0.,0.,1000.),(1200.,0.,1000.),(1200.,80.,1000.),(0.,80.,1000.)));
#505=IFCINDEXEDPOLYGONALFACE((1,2,3,4));
#506=IFCINDEXEDPOLYGONALFACE((5,8,7,6));
#507=IFCINDEXEDPOLYGONALFACE((1,5,6,2));
#508=IFCINDEXEDPOLYGONALFACE((2,6,7,3));
#509=IFCINDEXEDPOLYGONALFACE((3,7,8,4));
#510=IFCINDEXEDPOLYGONALFACE((4,8,5,1));
#511=IFCPOLYGONALFACESET(#504,$,(#505,#506,#507,#508,#509,#510),$);
#512=IFCSHAPEREPRESENTATION(#11,'Body','Tessellation',(#511));
#513=IFCPRODUCTDEFINITIONSHAPE($,$,(#512));
#519=IFCWINDOW('0Mlk4W4j52FxUq3FtvxEia',$,'Window 5',$,$,#773,#529,$,1.,1.2,$,$,$);
#520=IFCCARTESIANPOINTLIST3D(((0.,0.,0.),(1200.,0.,0.),(1200.,80.,0.),(0.,80.,0.),(0.,0.,1000.),(1200.,0.,1000.),(1200.,80.,1000.),(0.,80.,1000.)));
#521=IFCINDEXEDPOLYGONALFACE((1,2,3,4));
#522=IFCINDEXEDPOLYGONALFACE((5,8,7,6));
#523=IFCINDEXEDPOLYGONALFACE((1,5,6,2));
#524=IFCINDEXEDPOLYGONALFACE((2,6,7,3));
#525=IFCINDEXEDPOLYGONALFACE((3,7,8,4));
#526=IFCINDEXEDPOLYGONALFACE((4,8,5,1));
#527=IFCPOLYGONALFACESET(#520,$,(#521,#522,#523,#524,#525,#526),$);
#528=IFCSHAPEREPRESENTATION(#11,'Body','Tessellation',(#527));
#529=IFCPRODUCTDEFINITIONSHAPE($,$,(#528));
#535=IFCWINDOW('25nWOZ92j0MRdnzfTB4jMl',$,'Window 6',$,$,#778,#545,$,1.,1.2,$,$,$);
#536=IFCCARTESIANPOINTLIST3D(((0.,0.,0.),(1200.,0.,0.),(1200.,80.,0.),(0.,80.,0.),(0.,0.,1000.),(1200.,0.,1000.),(1200.,80.,1000.),(0.,80.,1000.)));
#537=IFCINDEXEDPOLYGONALFACE((1,2,3,4));
#538=IFCINDEXEDPOLYGONALFACE((5,8,7,6));
#539=IFCINDEXEDPOLYGONALFACE((1,5,6,2));
#540=IFCINDEXEDPOLYGONALFACE((2,6,7,3));
#541=IFCINDEXEDPOLYGONALFACE((3,7,8,4));
#542=IFCINDEXEDPOLYGONALFACE((4,8,5,1));
#543=IFCPOLYGONALFACESET(#536,$,(#537,#538,#539,#540,#541,#542),$);
#544=IFCSHAPEREPRESENTATION(#11,'Body','Tessellation',(#543));
#545=IFCPRODUCTDEFINITIONSHAPE($,$,(#544));
#551=IFCOPENINGELEMENT('040MxEEmHAUxiSN0fjJU4C',$,'Opening 1',$,$,#572,#561,$,$);
#552=IFCCARTESIANPOINTLIST3D(((0.,0.,0.),(1100.,0.,0.),(1100.,240.,0.),(0.,240.,0.),(0.,0.,2200.),(1100.,0.,2200.),(1100.,240.,2200.),(0.,240.,2200.)));
#553=IFCINDEXEDPOLYGONALFACE((1,2,3,4));
#554=IFCINDEXEDPOLYGONALFACE((5,8,7,6));
#555=IFCINDEXEDPOLYGONALFACE((1,5,6,2));
#556=IFCINDEXEDPOLYGONALFACE((2,6,7,3));
#557=IFCINDEXEDPOLYGONALFACE((3,7,8,4));
#558=IFCINDEXEDPOLYGONALFACE((4,8,5,1));
#559=IFCPOLYGONALFACESET(#552,$,(#553,#554,#555,#556,#557,#558),$);
#560=IFCSHAPEREPRESENTATION(#11,'Body','Tessellation',(#559));
#561=IFCPRODUCTDEFINITIONSHAPE($,$,(#560));
#567=IFCRELVOIDSELEMENT('3f0I4bOt5AguKedQrOZTNR',$,$,$,#19,#551);
#568=IFCCARTESIANPOINT((400.,-120.,0.));
#569=IFCDIRECTION((0.,0.,1.));
#570=IFCDIRECTION((1.,0.,0.));
#571=IFCAXIS2PLACEMENT3D(#568,#569,#570);
#572=IFCLOCALPLACEMENT(#652,#571);
#573=IFCRELFILLSELEMENT('2OouFCPmb8DAbNUm0H2s0s',$,$,$,#551,#359);
#574=IFCOPENINGELEMENT('1aZRhZtpbDye7rIb1NVpyL',$,'Opening 2',$,$,#595,#584,$,$);
#575=IFCCARTESIANPOINTLIST3D(((0.,0.,0.),(1100.,0.,0.),(1100.,240.,0.),(0.,240.,0.),(0.,0.,2200.),(1100.,0.,2200.),(1100.,240.,2200.),(0.,240.,2200.)));
#576=IFCINDEXEDPOLYGONALFACE((1,2,3,4));
#577=IFCINDEXEDPOLYGONALFACE((5,8,7,6));
#578=IFCINDEXEDPOLYGONALFACE((1,5,6,2));
#579=IFCINDEXEDPOLYGONALFACE((2,6,7,3));
#580=IFCINDEXEDPOLYGONALFACE((3,7,8,4));
#581=IFCINDEXEDPOLYGONALFACE((4,8,5,1));
#582=IFCPOLYGONALFACESET(#575,$,(#576,#577,#578,#579,#580,#581),$);
#583=IFCSHAPEREPRESENTATION(#11,'Body','Tessellation',(#582));
#584=IFCPRODUCTDEFINITIONSHAPE($,$,(#583));
#590=IFCRELVOIDSELEMENT('3uxjVhhcTAOwOxNEv_ywfx',$,$,$,#36,#574);
#591=IFCCARTESIANPOINT((800.,-7120.,0.));
#592=IFCDIRECTION((0.,0.,1.));
#593=IFCDIRECTION((1.,0.,0.));
#594=IFCAXIS2PLACEMENT3D(#591,#592,#593);
#595=IFCLOCALPLACEMENT(#657,#594);
#596=IFCRELFILLSELEMENT('23rxXyZ318eggzuIVAM4Xc',$,$,$,#574,#375);
#597=IFCOPENINGELEMENT('1S8ZKuKQH1QvFvVZDN5IG2',$,'Opening 3',$,$,#618,#607,$,$);
#598=IFCCARTESIANPOINTLIST3D(((0.,0.,0.),(1100.,0.,0.),(1100.,240.,0.),(0.,240.,0.),(0.,0.,2200.),(1100.,0.,2200.),(1100.,240.,2200.),(0.,240.,2200.)));
#599=IFCINDEXEDPOLYGONALFACE((1,2,3,4));
#600=IFCINDEXEDPOLYGONALFACE((5,8,7,6));
#601=IFCINDEXEDPOLYGONALFACE((1,5,6,2));
#602=IFCINDEXEDPOLYGONALFACE((2,6,7,3));
#603=IFCINDEXEDPOLYGONALFACE((3,7,8,4));
#604=IFCINDEXEDPOLYGONALFACE((4,8,5,1));
#605=IFCPOLYGONALFACESET(#598,$,(#599,#600,#601,#602,#603,#604),$);
#606=IFCSHAPEREPRESENTATION(#11,'Body','Tessellation',(#605));
#607=IFCPRODUCTDEFINITIONSHAPE($,$,(#606));
#613=IFCRELVOIDSELEMENT('1G$_LvlQz8N8KoQrdgrWZS',$,$,$,#53,#597);
#614=IFCCARTESIANPOINT((-119.99999999999993,-1200.0000000000002,0.));
#615=IFCDIRECTION((0.,0.,1.));
#616=IFCDIRECTION((6.123233995736766E-17,-1.,0.));
#617=IFCAXIS2PLACEMENT3D(#614,#615,#616);
#618=IFCLOCALPLACEMENT(#662,#617);
#619=IFCRELFILLSELEMENT('3Oypcq0i1ET96J5Nlmv499',$,$,$,#597,#391);
#620=IFCOPENINGELEMENT('1LnidkF2LCxQLqS53HwkS1',$,'Opening 4',$,$,#641,#630,$,$);
#621=IFCCARTESIANPOINTLIST3D(((0.,0.,0.),(1100.,0.,0.),(1100.,240.,0.),(0.,240.,0.),(0.,0.,2200.),(1100.,0.,2200.),(1100.,240.,2200.),(0.,240.,2200.)));
#622=IFCINDEXEDPOLYGONALFACE((1,2,3,4));
#623=IFCINDEXEDPOLYGONALFACE((5,8,7,6));
#624=IFCINDEXEDPOLYGONALFACE((1,5,6,2));
#625=IFCINDEXEDPOLYGONALFACE((2,6,7,3));
#626=IFCINDEXEDPOLYGONALFACE((3,7,8,4));
#627=IFCINDEXEDPOLYGONALFACE((4,8,5,1));
#628=IFCPOLYGONALFACESET(#621,$,(#622,#623,#624,#625,#626,#627),$);
#629=IFCSHAPEREPRESENTATION(#11,'Body','Tessellation',(#628));
#630=IFCPRODUCTDEFINITIONSHAPE($,$,(#629));
#636=IFCRELVOIDSELEMENT('2RzI_MHUH1BeXf6ivZ$wzw',$,$,$,#70,#620);
#637=IFCCARTESIANPOINT((-120.00000000000063,10400.,0.));
#638=IFCDIRECTION((0.,0.,1.));
#639=IFCDIRECTION((6.123233995736766E-17,-1.,0.));
#640=IFCAXIS2PLACEMENT3D(#637,#638,#639);
#641=IFCLOCALPLACEMENT(#667,#640);
#642=IFCRELFILLSELEMENT('3EAMbc8TjAhxnc3LM1wHSt',$,$,$,#620,#407);
#643=IFCMATERIAL('Concrete',$,$);
#644=IFCMATERIAL('Glass',$,$);
#645=IFCRELASSOCIATESMATERIAL('1rLBGp73989OkuMO8pDdfF',$,$,$,(#359,#487,#121,#423,#455,#391,#155,#189,#53,#19,#223,#519,#87),#643);
#646=IFCRELASSOCIATESMATERIAL('1qus4KazD3IBOl7QHmTXOF',$,$,$,(#104,#471,#70,#236,#138,#375,#36,#172,#407,#439,#206,#503,#535),#644);
#647=IFCRELCONTAINEDINSPATIALSTRUCTURE('1iLeuj30DFwBEPVikoCGdY',$,$,$,(#359,#471,#121,#155,#36,#375,#189,#223,#104,#487,#455,#70,#138,#391,#236,#172,#53,#206,#19,#87),#16);
#648=IFCCARTESIANPOINT((0.,0.,0.));
#649=IFCDIRECTION((0.,0.,1.));
#650=IFCDIRECTION((1.,0.,0.));
#651=IFCAXIS2PLACEMENT3D(#648,#649,#650);
#652=IFCLOCALPLACEMENT($,#651);
#653=IFCCARTESIANPOINT((0.,7000.,0.));
#654=IFCDIRECTION((0.,0.,1.));
#655=IFCDIRECTION((1.,0.,0.));
#656=IFCAXIS2PLACEMENT3D(#653,#654,#655);
#657=IFCLOCALPLACEMENT($,#656);
#658=IFCCARTESIANPOINT((0.,0.,0.));
#659=IFCDIRECTION((0.,0.,1.));
#660=IFCDIRECTION((6.123233995736766E-17,1.,0.));
#661=IFCAXIS2PLACEMENT3D(#658,#659,#660);
#662=IFCLOCALPLACEMENT($,#661);
#663=IFCCARTESIANPOINT((12000.,0.,0.));
#664=IFCDIRECTION((0.,0.,1.));
#665=IFCDIRECTION((6.123233995736766E-17,1.,0.));
#666=IFCAXIS2PLACEMENT3D(#663,#664,#665);
#667=IFCLOCALPLACEMENT($,#666);
#668=IFCCARTESIANPOINT((1333.3333333333333,0.,0.));
#669=IFCDIRECTION((0.,0.,1.));
#670=IFCDIRECTION((6.123233995736766E-17,1.,0.));
#671=IFCAXIS2PLACEMENT3D(#668,#669,#670);
#672=IFCLOCALPLACEMENT($,#671);
#673=IFCCARTESIANPOINT((2666.6666666666665,0.,0.));
#674=IFCDIRECTION((0.,0.,1.));
#675=IFCDIRECTION((6.123233995736766E-17,1.,0.));
#676=IFCAXIS2PLACEMENT3D(#673,#674,#675);
#677=IFCLOCALPLACEMENT($,#676);
#678=IFCCARTESIANPOINT((4000.,0.,0.));
#679=IFCDIRECTION((0.,0.,1.));
#680=IFCDIRECTION((6.123233995736766E-17,1.,0.));
#681=IFCAXIS2PLACEMENT3D(#678,#679,#680);
#682=IFCLOCALPLACEMENT($,#681);
#683=IFCCARTESIANPOINT((5333.333333333333,0.,0.));
#684=IFCDIRECTION((0.,0.,1.));
#685=IFCDIRECTION((6.123233995736766E-17,1.,0.));
#686=IFCAXIS2PLACEMENT3D(#683,#684,#685);
#687=IFCLOCALPLACEMENT($,#686);
#688=IFCCARTESIANPOINT((6666.666666666667,0.,0.));
#689=IFCDIRECTION((0.,0.,1.));
#690=IFCDIRECTION((6.123233995736766E-17,1.,0.));
#691=IFCAXIS2PLACEMENT3D(#688,#689,#690);
#692=IFCLOCALPLACEMENT($,#691);
#693=IFCCARTESIANPOINT((8000.,0.,0.));
#694=IFCDIRECTION((0.,0.,1.));
#695=IFCDIRECTION((6.123233995736766E-17,1.,0.));
#696=IFCAXIS2PLACEMENT3D(#693,#694,#695);
#697=IFCLOCALPLACEMENT($,#696);
#698=IFCCARTESIANPOINT((9333.3333333333339,0.,0.));
#699=IFCDIRECTION((0.,0.,1.));
#700=IFCDIRECTION((6.123233995736766E-17,1.,0.));
#701=IFCAXIS2PLACEMENT3D(#698,#699,#700);
#702=IFCLOCALPLACEMENT($,#701);
#703=IFCCARTESIANPOINT((10666.666666666666,0.,0.));
#704=IFCDIRECTION((0.,0.,1.));
#705=IFCDIRECTION((6.123233995736766E-17,1.,0.));
#706=IFCAXIS2PLACEMENT3D(#703,#704,#705);
#707=IFCLOCALPLACEMENT($,#706);
#708=IFCCARTESIANPOINT((0.,0.,0.));
#709=IFCDIRECTION((0.,0.,1.));
#710=IFCDIRECTION((1.,0.,0.));
#711=IFCAXIS2PLACEMENT3D(#708,#709,#710);
#712=IFCLOCALPLACEMENT($,#711);
#713=IFCCARTESIANPOINT((0.,0.,3200.));
#714=IFCDIRECTION((0.,0.,1.));
#715=IFCDIRECTION((1.,0.,0.));
#716=IFCAXIS2PLACEMENT3D(#713,#714,#715);
#717=IFCLOCALPLACEMENT($,#716);
#718=IFCCARTESIANPOINT((864.28571428571422,79.999999999999986,0.));
#719=IFCDIRECTION((0.,0.,1.));
#720=IFCDIRECTION((1.,0.,0.));
#721=IFCAXIS2PLACEMENT3D(#718,#719,#720);
#722=IFCLOCALPLACEMENT(#572,#721);
#723=IFCCARTESIANPOINT((2178.571428571428,79.999999999999986,0.));
#724=IFCDIRECTION((0.,0.,1.));
#725=IFCDIRECTION((1.,0.,0.));
#726=IFCAXIS2PLACEMENT3D(#723,#724,#725);
#727=IFCLOCALPLACEMENT(#595,#726);
#728=IFCCARTESIANPOINT((3492.8571428571418,79.999999999999986,0.));
#729=IFCDIRECTION((0.,0.,1.));
#730=IFCDIRECTION((1.,0.,0.));
#731=IFCAXIS2PLACEMENT3D(#728,#729,#730);
#732=IFCLOCALPLACEMENT(#618,#731);
#733=IFCRELCONTAINEDINSPATIALSTRUCTURE('0gdGXj6sTDUB6ZYwsRdKXN',$,$,$,(#535,#423,#439,#407,#519,#503),#18);
#734=IFCCARTESIANPOINT((4807.1428571428569,79.999999999999986,3200.));
#735=IFCDIRECTION((0.,0.,1.));
#736=IFCDIRECTION((1.,0.,0.));
#737=IFCAXIS2PLACEMENT3D(#734,#735,#736);
#738=IFCLOCALPLACEMENT(#641,#737);
#739=IFCCARTESIANPOINT((8121.4285714285716,-40.,3200.));
#740=IFCDIRECTION((0.,0.,1.));
#741=IFCDIRECTION((1.,0.,0.));
#742=IFCAXIS2PLACEMENT3D(#739,#740,#741);
#743=IFCLOCALPLACEMENT($,#742);
#744=IFCCARTESIANPOINT((9835.7142857142844,-40.,3200.));
#745=IFCDIRECTION((0.,0.,1.));
#746=IFCDIRECTION((1.,0.,0.));
#747=IFCAXIS2PLACEMENT3D(#744,#745,#746);
#748=IFCLOCALPLACEMENT($,#747);
#749=IFCCARTESIANPOINT((1114.2857142857142,6960.,1100.));
#750=IFCDIRECTION((0.,0.,1.));
#751=IFCDIRECTION((1.,0.,0.));
#752=IFCAXIS2PLACEMENT3D(#749,#750,#751);
#753=IFCLOCALPLACEMENT($,#752);
#754=IFCCARTESIANPOINT((11960.,1399.9999999999998,1100.));
#755=IFCDIRECTION((0.,0.,1.));
#756=IFCDIRECTION((6.123233995736766E-17,1.,0.));
#757=IFCAXIS2PLACEMENT3D(#754,#755,#756);
#758=IFCLOCALPLACEMENT($,#757);
#759=IFCCARTESIANPOINT((4542.8571428571422,6960.,1100.));
#760=IFCDIRECTION((0.,0.,1.));
#761=IFCDIRECTION((1.,0.,0.));
#762=IFCAXIS2PLACEMENT3D(#759,#760,#761);
#763=IFCLOCALPLACEMENT($,#762);
#764=IFCCARTESIANPOINT((11960.,3400.,4300.0000000000009));
#765=IFCDIRECTION((0.,0.,1.));
#766=IFCDIRECTION((6.123233995736766E-17,1.,0.));
#767=IFCAXIS2PLACEMENT3D(#764,#765,#766);
#768=IFCLOCALPLACEMENT($,#767);
#769=IFCCARTESIANPOINT((7971.4285714285716,6960.,4300.0000000000009));
#770=IFCDIRECTION((0.,0.,1.));
#771=IFCDIRECTION((1.,0.,0.));
#772=IFCAXIS2PLACEMENT3D(#769,#770,#771);
#773=IFCLOCALPLACEMENT($,#772);
#774=IFCCARTESIANPOINT((11960.,5400.,4300.0000000000009));
#775=IFCDIRECTION((0.,0.,1.));
#776=IFCDIRECTION((6.123233995736766E-17,1.,0.));
#777=IFCAXIS2PLACEMENT3D(#774,#775,#776);
#778=IFCLOCALPLACEMENT($,#777);
ENDSEC;
END-ISO-10303-21;
