solid task_09_openscad_enclosure
  facet normal 0 0 0
    outer loop
      vertex -65.5000 -52.5000 0.0000
      vertex 65.5000 -52.5000 0.0000
      vertex 65.5000 52.5000 0.0000
    endloop
  endfacet
  facet normal 0 0 0
    outer loop
      vertex -65.5000 -52.5000 0.0000
      vertex 65.5000 52.5000 0.0000
      vertex -65.5000 52.5000 0.0000
    endloop
  endfacet
  facet normal 0 0 0
    outer loop
      vertex -65.5000 -52.5000 25.1000
      vertex 65.5000 52.5000 25.1000
      vertex 65.5000 -52.5000 25.1000
    endloop
  endfacet
  facet normal 0 0 0
    outer loop
      vertex -65.5000 -52.5000 25.1000
      vertex -65.5000 52.5000 25.1000
      vertex 65.5000 52.5000 25.1000
    endloop
  endfacet
  facet normal 0 0 0
    outer loop
      vertex -65.5000 -52.5000 0.0000
      vertex -65.5000 -52.5000 25.1000
      vertex 65.5000 -52.5000 25.1000
    endloop
  endfacet
  facet normal 0 0 0
    outer loop
      vertex -65.5000 -52.5000 0.0000
      vertex 65.5000 -52.5000 25.1000
      vertex 65.5000 -52.5000 0.0000
    endloop
  endfacet
  facet normal 0 0 0
    outer loop
      vertex 65.5000 -52.5000 0.0000
      vertex 65.5000 -52.5000 25.1000
      vertex 65.5000 52.5000 25.1000
    endloop
  endfacet
  facet normal 0 0 0
    outer loop
      vertex 65.5000 -52.5000 0.0000
      vertex 65.5000 52.5000 25.1000
      vertex 65.5000 52.5000 0.0000
    endloop
  endfacet
  facet normal 0 0 0
    outer loop
      vertex 65.5000 52.5000 0.0000
      vertex 65.5000 52.5000 25.1000
      vertex -65.5000 52.5000 25.1000
    endloop
  endfacet
  facet normal 0 0 0
    outer loop
      vertex 65.5000 52.5000 0.0000
      vertex -65.5000 52.5000 25.1000
      vertex -65.5000 52.5000 0.0000
    endloop
  endfacet
  facet normal 0 0 0
    outer loop
      vertex -65.5000 52.5000 0.0000
      vertex -65.5000 52.5000 25.1000
      vertex -65.5000 -52.5000 25.1000
    endloop
  endfacet
  facet normal 0 0 0
    outer loop
      vertex -65.5000 52.5000 0.0000
      vertex -65.5000 -52.5000 25.1000
      vertex -65.5000 -52.5000 0.0000
    endloop
  endfacet
endsolid task_09_openscad_enclosure
