999
FreeCAD v1.1 20260725 (Git shallow)
  0
SECTION
  2
HEADER
  9
$ACADVER
  1
AC1014
  9
$ACADMAINTVER
 70
     9
  9
$DWGCODEPAGE
  3
ANSI_1252
  9
$TEXTSTYLE
  7
STANDARD
  9
$DIMSTYLE
  2
STANDARD
  9
$DIMTXSTY
  7
STANDARD
  9
$CMLSTYLE
  2
STANDARD
  9
$LUNITS
 70
2
  9
$INSUNITS
 70
4
  9
$PEXTMAX
 10
50
 20
50
 30
50
  9
$PEXTMIN
 10
0
 20
0
 30
0
  9
$HANDSEED
  5
FFFF
  0
ENDSEC
  0
SECTION
  2
CLASSES
  0
CLASS
  1
ACDBDICTIONARYWDFLT
  2
AcDbDictionaryWithDefault
  3
ObjectDBX Classes
 90
        0
280
     0
281
     0
  0
CLASS
  1
XRECORD
  2
AcDbXrecord
  3
ObjectDBX Classes
 90
        0
280
     0
281
     0
  0
CLASS
  1
LWPOLYLINE
  2
AcDbPolyline
  3
ObjectDBX Classes
 90
        0
280
     0
281
     1
  0
ENDSEC
  0
SECTION
  2
TABLES
  0
TABLE
  2
VPORT
  5
20
330
0
100
AcDbSymbolTable
 70
     1
  0
VPORT
  5
21
330
20
100
AcDbSymbolTableRecord
100
AcDbViewportTableRecord
  2
*ACTIVE
 70
     0
  0
ENDTAB
  0
TABLE
  2
LTYPE
  5
22
330
0
100
AcDbSymbolTable
 70
     1
  0
LTYPE
  5
23
330
21
100
AcDbSymbolTableRecord
100
AcDbLinetypeTableRecord
  2
BYBLOCK
 70
     0
  3

 72
    65
 73
     0
 40
0.0
  0
LTYPE
  5
24
330
21
100
AcDbSymbolTableRecord
100
AcDbLinetypeTableRecord
  2
BYLAYER
 70
     0
  3

 72
    65
 73
     0
 40
0.0
  0
LTYPE
  5
25
330
21
100
AcDbSymbolTableRecord
100
AcDbLinetypeTableRecord
  2
CONTINUOUS
 70
     0
  3
Solid line
 72
    65
 73
     0
 40
0.0
  0
ENDTAB
  0
TABLE
  2
LAYER
  5
A93
330
0
100
AcDbSymbolTable
 70
7
  0
LAYER
  5
A94
330
A93
100
AcDbSymbolTableRecord
100
AcDbLayerTableRecord
  2
0
 70
   0
 62
   7
  6
CONTINUOUS
  0
LAYER
  5
A95
330
A93
100
AcDbSymbolTableRecord
100
AcDbLayerTableRecord
  2
ProjItem
 70
    0
 62
    7
  6
CONTINUOUS
  0
LAYER
  5
A96
330
A93
100
AcDbSymbolTableRecord
100
AcDbLayerTableRecord
  2
ProjItem001
 70
    0
 62
    7
  6
CONTINUOUS
  0
LAYER
  5
A97
330
A93
100
AcDbSymbolTableRecord
100
AcDbLayerTableRecord
  2
ProjItem002
 70
    0
 62
    7
  6
CONTINUOUS
  0
LAYER
  5
A98
330
A93
100
AcDbSymbolTableRecord
100
AcDbLayerTableRecord
  2
DimDia14
 70
    0
 62
    7
  6
CONTINUOUS
  0
LAYER
  5
A99
330
A93
100
AcDbSymbolTableRecord
100
AcDbLayerTableRecord
  2
DimWidth
 70
    0
 62
    7
  6
CONTINUOUS
  0
LAYER
  5
A9A
330
A93
100
AcDbSymbolTableRecord
100
AcDbLayerTableRecord
  2
DimHeight
 70
    0
 62
    7
  6
CONTINUOUS
  0
ENDTAB
  0
TABLE
  2
STYLE
  5
70
330
0
100
AcDbSymbolTable
 70
     2
  0
STYLE
  5
71
330
70
100
AcDbSymbolTableRecord
100
AcDbTextStyleTableRecord
  2
STANDARD
 70
     0
 40
0.0
 41
1.0
 50
0.0
 71
     0
 42
2.5
  3
arial.ttf
  4

  0
STYLE
  5
72
330
70
100
AcDbSymbolTableRecord
100
AcDbTextStyleTableRecord
  2
ANNOTATIVE
 70
     0
 40
0.0
 41
1.0
 50
0.0
 71
     0
 42
2.5
  3
arial.ttf
  4

  0
ENDTAB
  0
TABLE
  2
VIEW
  5
73
330
0
100
AcDbSymbolTable
 70
     0
  0
ENDTAB
  0
TABLE
  2
UCS
  5
74
330
0
100
AcDbSymbolTable
 70
     0
  0
ENDTAB
  0
TABLE
  2
APPID
  5
75
330
0
100
AcDbSymbolTable
 70
     2
  0
APPID
  5
76
330
75
100
AcDbSymbolTableRecord
100
AcDbRegAppTableRecord
  2
ACAD
 70
     0
  0
APPID
  5
77
330
75
100
AcDbSymbolTableRecord
100
AcDbRegAppTableRecord
  2
ACADANNOTATIVE
 70
     0
  0
ENDTAB
  0
TABLE
  2
DIMSTYLE
  5
78
330
0
100
AcDbSymbolTable
 70
     2
  0
DIMSTYLE
105
79
330
78
100
AcDbSymbolTableRecord
100
AcDbDimStyleTableRecord
  2
STANDARD
 70
     0
  3

  4

  5

  6

  7

 40
0.0
 41
2.5
 42
0.625
 43
3.75
 44
1.25
 45
0.0
 46
0.0
 47
0.0
 48
0.0
140
2.5
141
2.5
142
0.0
143
0.03937007874016
144
1.0
145
0.0
146
1.0
147
0.625
 71
     0
 72
     0
 73
     0
 74
     0
 75
     0
 76
     0
 77
     1
 78
     8
170
     0
171
     3
172
     1
173
     0
174
     0
175
     0
176
     0
177
     0
178
     0
270
     2
271
     2
272
     2
273
     2
274
     3
340
71
275
     0
280
     0
281
     0
282
     0
283
     0
284
     8
285
     0
286
     0
287
     3
288
     0
  0
ENDTAB
  0
TABLE
  2
BLOCK_RECORD
  5
A01
330
0
100
AcDbSymbolTable
  70
5
  0
BLOCK_RECORD
  5
A02
330
A01
100
AcDbSymbolTableRecord
100
AcDbBlockTableRecord
  2
*MODEL_SPACE
  0
BLOCK_RECORD
  5
A03
330
A01
100
AcDbSymbolTableRecord
100
AcDbBlockTableRecord
  2
*PAPER_SPACE
  0
BLOCK_RECORD
  5
A78
330
A01
100
AcDbSymbolTableRecord
100
AcDbBlockTableRecord
  2
*DimDia14
  0
BLOCK_RECORD
  5
A80
330
A01
100
AcDbSymbolTableRecord
100
AcDbBlockTableRecord
  2
*DimWidth
  0
BLOCK_RECORD
  5
A8A
330
A01
100
AcDbSymbolTableRecord
100
AcDbBlockTableRecord
  2
*DimHeight
  0
ENDTAB
  0
ENDSEC
  0
SECTION
  2
BLOCKS
  0
BLOCK
  5
A04
330
A02
100
AcDbEntity
  8
0
100
AcDbBlockBegin
  2
*MODEL_SPACE
 70
   0
 10
0
 20
0
 30
0
  3
*MODEL_SPACE
  1
 
  0
ENDBLK
  5
A05
330
A02
100
AcDbEntity
  8
0
100
AcDbBlockEnd
  0
BLOCK
  5
A06
330
A03
100
AcDbEntity
 67
1
  8
0
100
AcDbBlockBegin
  2
*PAPER_SPACE
 70
   0
 10
0
 20
0
 30
0
  3
*PAPER_SPACE
  1
 
  0
ENDBLK
  5
A07
330
A03
100
AcDbEntity
 67
    1
  8
0
100
AcDbBlockEnd
  0
BLOCK
  5
A79
330
A78
100
AcDbEntity
  8
DimDia14
100
AcDbBlockBegin
  2
*DimDia14
 70
   1
 10
0
 20
0
 30
0
  3
*DimDia14
  1
 
  0
LINE
  5
A7A
330
A78
100
AcDbEntity
  8
DimDia14
100
AcDbLine
 10
143.842
 20
98.3748
 30
0
 11
139.158
 21
96.6252
 31
0
  0
TEXT
  5
A7B
330
A78
100
AcDbEntity
  8
DimDia14
100
AcDbText
 10
156
 20
108
 30
0
 40
3.5
  1
⌀10
  7
STANDARD
 72
1
 11
156
 21
108
 31
0
100
AcDbText
  0
SOLID
  5
A7C
330
A78
100
AcDbEntity
  8
0
 62
     0
100
AcDbTrace
 10
139.304
 20
96.2349
 30
0
 11
139.012
 21
97.0155
 31
0
 12
143.842
 22
98.3748
 32
0
 13
143.842
 23
98.3748
 33
0
  0
SOLID
  5
A7D
330
A78
100
AcDbEntity
  8
0
 62
     0
100
AcDbTrace
 10
143.988
 20
97.9845
 30
0
 11
143.696
 21
98.7651
 31
0
 12
139.158
 22
96.6252
 32
0
 13
139.158
 23
96.6252
 33
0
  0
ENDBLK
  5
A7E
330
A78
100
AcDbEntity
  8
DimDia14
100
AcDbBlockEnd
  0
BLOCK
  5
A81
330
A80
100
AcDbEntity
  8
DimWidth
100
AcDbBlockBegin
  2
*DimWidth
 70
   1
 10
0
 20
0
 30
0
  3
*DimWidth
  1
 
  0
LINE
  5
A82
330
A80
100
AcDbEntity
  8
DimWidth
100
AcDbLine
 10
179
 20
130.5
 30
0
 11
179
 21
166.5
 31
0
  0
LINE
  5
A83
330
A80
100
AcDbEntity
  8
DimWidth
100
AcDbLine
 10
129
 20
130.5
 30
0
 11
129
 21
166.5
 31
0
  0
LINE
  5
A84
330
A80
100
AcDbEntity
  8
DimWidth
100
AcDbLine
 10
129
 20
166.5
 30
0
 11
179
 21
166.5
 31
0
  0
TEXT
  5
A85
330
A80
100
AcDbEntity
  8
DimWidth
100
AcDbText
 10
154
 20
171.5
 30
0
 40
3.5
  1
100
  7
STANDARD
 72
1
 11
154
 21
166.5
 31
0
100
AcDbText
  0
SOLID
  5
A86
330
A80
100
AcDbEntity
  8
0
 62
     0
100
AcDbTrace
 10
124
 20
166.917
 30
0
 11
124
 21
166.083
 31
0
 12
129
 22
166.5
 32
0
 13
129
 23
166.5
 33
0
  0
SOLID
  5
A87
330
A80
100
AcDbEntity
  8
0
 62
     0
100
AcDbTrace
 10
184
 20
166.917
 30
0
 11
184
 21
166.083
 31
0
 12
179
 22
166.5
 32
0
 13
179
 23
166.5
 33
0
  0
ENDBLK
  5
A88
330
A80
100
AcDbEntity
  8
DimWidth
100
AcDbBlockEnd
  0
BLOCK
  5
A8B
330
A8A
100
AcDbEntity
  8
DimHeight
100
AcDbBlockBegin
  2
*DimHeight
 70
   1
 10
0
 20
0
 30
0
  3
*DimHeight
  1
 
  0
LINE
  5
A8C
330
A8A
100
AcDbEntity
  8
DimHeight
100
AcDbLine
 10
129
 20
159.5
 30
0
 11
186
 21
159.5
 31
0
  0
LINE
  5
A8D
330
A8A
100
AcDbEntity
  8
DimHeight
100
AcDbLine
 10
129
 20
130.5
 30
0
 11
186
 21
130.5
 31
0
  0
LINE
  5
A8E
330
A8A
100
AcDbEntity
  8
DimHeight
100
AcDbLine
 10
186
 20
130.5
 30
0
 11
186
 21
159.5
 31
0
  0
TEXT
  5
A8F
330
A8A
100
AcDbEntity
  8
DimHeight
100
AcDbText
 10
191
 20
145
 30
0
 40
3.5
  1
58
  7
STANDARD
 72
1
 11
186
 21
145
 31
0
100
AcDbText
  0
SOLID
  5
A90
330
A8A
100
AcDbEntity
  8
0
 62
     0
100
AcDbTrace
 10
186.417
 20
125.5
 30
0
 11
185.583
 21
125.5
 31
0
 12
186
 22
130.5
 32
0
 13
186
 23
130.5
 33
0
  0
SOLID
  5
A91
330
A8A
100
AcDbEntity
  8
0
 62
     0
100
AcDbTrace
 10
186.417
 20
164.5
 30
0
 11
185.583
 21
164.5
 31
0
 12
186
 22
159.5
 32
0
 13
186
 23
159.5
 33
0
  0
ENDBLK
  5
A92
330
A8A
100
AcDbEntity
  8
DimHeight
100
AcDbBlockEnd
  0
ENDSEC
  0
SECTION
  2
ENTITIES
  0
LINE
  5
A08
330
A02
100
AcDbEntity
  8
ProjItem
100
AcDbLine
 10
129.000000000
 20
130.500000000
 30
0.000000000
 11
129.000000000
 21
159.500000000
 31
0.000000000
  0
LINE
  5
A09
330
A02
100
AcDbEntity
  8
ProjItem
100
AcDbLine
 10
129.000000000
 20
130.500000000
 30
0.000000000
 11
179.000000000
 21
130.500000000
 31
0.000000000
  0
LINE
  5
A0A
330
A02
100
AcDbEntity
  8
ProjItem
100
AcDbLine
 10
129.000000000
 20
159.500000000
 30
0.000000000
 11
133.000000000
 21
159.500000000
 31
0.000000000
  0
LINE
  5
A0B
330
A02
100
AcDbEntity
  8
ProjItem
100
AcDbLine
 10
133.000000000
 20
134.500000000
 30
0.000000000
 11
133.000000000
 21
159.500000000
 31
0.000000000
  0
LINE
  5
A0C
330
A02
100
AcDbEntity
  8
ProjItem
100
AcDbLine
 10
133.000000000
 20
134.500000000
 30
0.000000000
 11
179.000000000
 21
134.500000000
 31
0.000000000
  0
LINE
  5
A0D
330
A02
100
AcDbEntity
  8
ProjItem
100
AcDbLine
 10
179.000000000
 20
130.500000000
 30
0.000000000
 11
179.000000000
 21
134.500000000
 31
0.000000000
  0
LINE
  5
A0E
330
A02
100
AcDbEntity
  8
ProjItem
100
AcDbLine
 10
170.000000000
 20
134.500000000
 30
0.000000000
 11
133.000000000
 21
153.000000000
 31
0.000000000
  0
LINE
  5
A0F
330
A02
100
AcDbEntity
  8
ProjItem
100
AcDbLine
 10
129.000000000
 20
159.500000000
 30
0.000000000
 11
129.000000000
 21
130.500000000
 31
0.000000000
  0
LINE
  5
A10
330
A02
100
AcDbEntity
  8
ProjItem
100
AcDbLine
 10
179.000000000
 20
130.500000000
 30
0.000000000
 11
129.000000000
 21
130.500000000
 31
0.000000000
  0
SPLINE
  5
A11
330
A02
100
AcDbEntity
  8
ProjItem
100
AcDbSpline
210
0
220
0
230
1
 70
8
 71
1
 72
17
 73
15
 74
0
 40
0.000000000
 40
0.000000000
 40
0.224399475
 40
0.448798951
 40
0.673198426
 40
0.897597901
 40
1.121997376
 40
1.346396852
 40
1.570796327
 40
1.795195802
 40
2.019595277
 40
2.243994753
 40
2.468394228
 40
2.692793703
 40
2.917193178
 40
3.141592654
 40
3.141592654
 10
144.000000000
 20
130.500000000
 30
0.000000000
 10
143.937319780
 20
130.500000000
 30
0.000000000
 10
143.752422170
 20
130.500000000
 30
0.000000000
 10
143.454578706
 20
130.500000000
 30
0.000000000
 10
143.058724505
 20
130.500000000
 30
0.000000000
 10
142.584709348
 20
130.500000000
 30
0.000000000
 10
142.056302335
 20
130.500000000
 30
0.000000000
 10
141.500000000
 20
130.500000000
 30
0.000000000
 10
140.943697665
 20
130.500000000
 30
0.000000000
 10
140.415290652
 20
130.500000000
 30
0.000000000
 10
139.941275495
 20
130.500000000
 30
0.000000000
 10
139.545421294
 20
130.500000000
 30
0.000000000
 10
139.247577830
 20
130.500000000
 30
0.000000000
 10
139.062680220
 20
130.500000000
 30
0.000000000
 10
139.000000000
 20
130.500000000
 30
0.000000000
  0
SPLINE
  5
A12
330
A02
100
AcDbEntity
  8
ProjItem
100
AcDbSpline
210
0
220
0
230
1
 70
8
 71
1
 72
17
 73
15
 74
0
 40
3.141592654
 40
3.141592654
 40
3.365992129
 40
3.590391604
 40
3.814791079
 40
4.039190555
 40
4.263590030
 40
4.487989505
 40
4.712388980
 40
4.936788456
 40
5.161187931
 40
5.385587406
 40
5.609986881
 40
5.834386357
 40
6.058785832
 40
6.283185307
 40
6.283185307
 10
139.000000000
 20
130.500000000
 30
0.000000000
 10
139.062680220
 20
130.500000000
 30
0.000000000
 10
139.247577830
 20
130.500000000
 30
0.000000000
 10
139.545421294
 20
130.500000000
 30
0.000000000
 10
139.941275495
 20
130.500000000
 30
0.000000000
 10
140.415290652
 20
130.500000000
 30
0.000000000
 10
140.943697665
 20
130.500000000
 30
0.000000000
 10
141.500000000
 20
130.500000000
 30
0.000000000
 10
142.056302335
 20
130.500000000
 30
0.000000000
 10
142.584709348
 20
130.500000000
 30
0.000000000
 10
143.058724505
 20
130.500000000
 30
0.000000000
 10
143.454578706
 20
130.500000000
 30
0.000000000
 10
143.752422170
 20
130.500000000
 30
0.000000000
 10
143.937319780
 20
130.500000000
 30
0.000000000
 10
144.000000000
 20
130.500000000
 30
0.000000000
  0
SPLINE
  5
A13
330
A02
100
AcDbEntity
  8
ProjItem
100
AcDbSpline
210
0
220
0
230
1
 70
8
 71
1
 72
17
 73
15
 74
0
 40
0.000000000
 40
0.000000000
 40
0.224399475
 40
0.448798951
 40
0.673198426
 40
0.897597901
 40
1.121997376
 40
1.346396852
 40
1.570796327
 40
1.795195802
 40
2.019595277
 40
2.243994753
 40
2.468394228
 40
2.692793703
 40
2.917193178
 40
3.141592654
 40
3.141592654
 10
169.000000000
 20
130.500000000
 30
0.000000000
 10
168.937319780
 20
130.500000000
 30
0.000000000
 10
168.752422170
 20
130.500000000
 30
0.000000000
 10
168.454578706
 20
130.500000000
 30
0.000000000
 10
168.058724505
 20
130.500000000
 30
0.000000000
 10
167.584709348
 20
130.500000000
 30
0.000000000
 10
167.056302335
 20
130.500000000
 30
0.000000000
 10
166.500000000
 20
130.500000000
 30
0.000000000
 10
165.943697665
 20
130.500000000
 30
0.000000000
 10
165.415290652
 20
130.500000000
 30
0.000000000
 10
164.941275495
 20
130.500000000
 30
0.000000000
 10
164.545421294
 20
130.500000000
 30
0.000000000
 10
164.247577830
 20
130.500000000
 30
0.000000000
 10
164.062680220
 20
130.500000000
 30
0.000000000
 10
164.000000000
 20
130.500000000
 30
0.000000000
  0
SPLINE
  5
A14
330
A02
100
AcDbEntity
  8
ProjItem
100
AcDbSpline
210
0
220
0
230
1
 70
8
 71
1
 72
17
 73
15
 74
0
 40
3.141592654
 40
3.141592654
 40
3.365992129
 40
3.590391604
 40
3.814791079
 40
4.039190555
 40
4.263590030
 40
4.487989505
 40
4.712388980
 40
4.936788456
 40
5.161187931
 40
5.385587406
 40
5.609986881
 40
5.834386357
 40
6.058785832
 40
6.283185307
 40
6.283185307
 10
164.000000000
 20
130.500000000
 30
0.000000000
 10
164.062680220
 20
130.500000000
 30
0.000000000
 10
164.247577830
 20
130.500000000
 30
0.000000000
 10
164.545421294
 20
130.500000000
 30
0.000000000
 10
164.941275495
 20
130.500000000
 30
0.000000000
 10
165.415290652
 20
130.500000000
 30
0.000000000
 10
165.943697665
 20
130.500000000
 30
0.000000000
 10
166.500000000
 20
130.500000000
 30
0.000000000
 10
167.056302335
 20
130.500000000
 30
0.000000000
 10
167.584709348
 20
130.500000000
 30
0.000000000
 10
168.058724505
 20
130.500000000
 30
0.000000000
 10
168.454578706
 20
130.500000000
 30
0.000000000
 10
168.752422170
 20
130.500000000
 30
0.000000000
 10
168.937319780
 20
130.500000000
 30
0.000000000
 10
169.000000000
 20
130.500000000
 30
0.000000000
  0
LINE
  5
A15
330
A02
100
AcDbEntity
  8
ProjItem
100
AcDbLine
 10
129.000000000
 20
159.500000000
 30
0.000000000
 11
133.000000000
 21
159.500000000
 31
0.000000000
  0
LINE
  5
A16
330
A02
100
AcDbEntity
  8
ProjItem
100
AcDbLine
 10
133.000000000
 20
134.500000000
 30
0.000000000
 11
133.000000000
 21
159.500000000
 31
0.000000000
  0
LINE
  5
A17
330
A02
100
AcDbEntity
  8
ProjItem
100
AcDbLine
 10
133.000000000
 20
134.500000000
 30
0.000000000
 11
179.000000000
 21
134.500000000
 31
0.000000000
  0
LINE
  5
A18
330
A02
100
AcDbEntity
  8
ProjItem
100
AcDbLine
 10
179.000000000
 20
130.500000000
 30
0.000000000
 11
179.000000000
 21
134.500000000
 31
0.000000000
  0
LINE
  5
A19
330
A02
100
AcDbEntity
  8
ProjItem
100
AcDbLine
 10
133.000000000
 20
153.000000000
 30
0.000000000
 11
133.000000000
 21
134.500000000
 31
0.000000000
  0
LINE
  5
A1A
330
A02
100
AcDbEntity
  8
ProjItem
100
AcDbLine
 10
133.000000000
 20
153.000000000
 30
0.000000000
 11
133.000000000
 21
134.500000000
 31
0.000000000
  0
LINE
  5
A1B
330
A02
100
AcDbEntity
  8
ProjItem
100
AcDbLine
 10
133.000000000
 20
134.500000000
 30
0.000000000
 11
141.500000000
 21
134.500000000
 31
0.000000000
  0
LINE
  5
A1C
330
A02
100
AcDbEntity
  8
ProjItem
100
AcDbLine
 10
141.500000000
 20
134.500000000
 30
0.000000000
 11
166.500000000
 21
134.500000000
 31
0.000000000
  0
LINE
  5
A1D
330
A02
100
AcDbEntity
  8
ProjItem
100
AcDbLine
 10
166.500000000
 20
134.500000000
 30
0.000000000
 11
170.000000000
 21
134.500000000
 31
0.000000000
  0
LINE
  5
A1E
330
A02
100
AcDbEntity
  8
ProjItem
100
AcDbLine
 10
166.500000000
 20
134.500000000
 30
0.000000000
 11
170.000000000
 21
134.500000000
 31
0.000000000
  0
LINE
  5
A1F
330
A02
100
AcDbEntity
  8
ProjItem
100
AcDbLine
 10
141.500000000
 20
134.500000000
 30
0.000000000
 11
166.500000000
 21
134.500000000
 31
0.000000000
  0
LINE
  5
A20
330
A02
100
AcDbEntity
  8
ProjItem
100
AcDbLine
 10
133.000000000
 20
134.500000000
 30
0.000000000
 11
141.500000000
 21
134.500000000
 31
0.000000000
  0
LINE
  5
A21
330
A02
100
AcDbEntity
  8
ProjItem
100
AcDbLine
 10
144.000000000
 20
130.500000000
 30
0.000000000
 11
144.000000000
 21
135.000000000
 31
0.000000000
  0
SPLINE
  5
A22
330
A02
100
AcDbEntity
  8
ProjItem
100
AcDbSpline
210
0
220
0
230
1
 70
8
 71
2
 72
30
 73
27
 74
0
 40
4.712388980
 40
4.712388980
 40
4.712388980
 40
4.936788456
 40
4.936788456
 40
5.048988193
 40
5.048988193
 40
5.161187931
 40
5.161187931
 40
5.273387669
 40
5.273387669
 40
5.385587406
 40
5.385587406
 40
5.497787144
 40
5.497787144
 40
5.609986881
 40
5.609986881
 40
5.722186619
 40
5.722186619
 40
5.834386357
 40
5.834386357
 40
5.946586094
 40
5.946586094
 40
6.058785832
 40
6.058785832
 40
6.170985570
 40
6.170985570
 40
6.283185307
 40
6.283185307
 40
6.283185307
 10
141.500000000
 20
135.000000000
 30
0.000000000
 10
141.780898277
 20
135.000000000
 30
0.000000000
 10
142.056302335
 20
135.000000000
 30
0.000000000
 10
142.190999995
 20
135.000000000
 30
0.000000000
 10
142.325697655
 20
135.000000000
 30
0.000000000
 10
142.455203501
 20
135.000000000
 30
0.000000000
 10
142.584709348
 20
135.000000000
 30
0.000000000
 10
142.707394770
 20
135.000000000
 30
0.000000000
 10
142.830080191
 20
135.000000000
 30
0.000000000
 10
142.944402348
 20
135.000000000
 30
0.000000000
 10
143.058724505
 20
135.000000000
 30
0.000000000
 10
143.163245729
 20
135.000000000
 30
0.000000000
 10
143.267766953
 20
135.000000000
 30
0.000000000
 10
143.361172830
 20
135.000000000
 30
0.000000000
 10
143.454578706
 20
135.000000000
 30
0.000000000
 10
143.535694602
 20
135.000000000
 30
0.000000000
 10
143.616810498
 20
135.000000000
 30
0.000000000
 10
143.684616334
 20
135.000000000
 30
0.000000000
 10
143.752422170
 20
135.000000000
 30
0.000000000
 10
143.806065248
 20
135.000000000
 30
0.000000000
 10
143.859708326
 20
135.000000000
 30
0.000000000
 10
143.898514053
 20
135.000000000
 30
0.000000000
 10
143.937319780
 20
135.000000000
 30
0.000000000
 10
143.960800153
 20
135.000000000
 30
0.000000000
 10
143.984280525
 20
135.000000000
 30
0.000000000
 10
143.992140262
 20
135.000000000
 30
0.000000000
 10
144.000000000
 20
135.000000000
 30
0.000000000
  0
SPLINE
  5
A23
330
A02
100
AcDbEntity
  8
ProjItem
100
AcDbSpline
210
0
220
0
230
1
 70
8
 71
2
 72
30
 73
27
 74
0
 40
1.570796327
 40
1.570796327
 40
1.570796327
 40
1.682996064
 40
1.682996064
 40
1.907395540
 40
1.907395540
 40
2.019595277
 40
2.019595277
 40
2.131795015
 40
2.131795015
 40
2.243994753
 40
2.243994753
 40
2.356194490
 40
2.356194490
 40
2.468394228
 40
2.468394228
 40
2.580593965
 40
2.580593965
 40
2.692793703
 40
2.692793703
 40
2.804993441
 40
2.804993441
 40
2.917193178
 40
2.917193178
 40
3.029392916
 40
3.029392916
 40
3.141592654
 40
3.141592654
 40
3.141592654
 10
141.500000000
 20
135.000000000
 30
0.000000000
 10
141.360044405
 20
135.000000000
 30
0.000000000
 10
141.220088810
 20
135.000000000
 30
0.000000000
 10
140.941735905
 20
135.000000000
 30
0.000000000
 10
140.674302345
 20
135.000000000
 30
0.000000000
 10
140.544796499
 20
135.000000000
 30
0.000000000
 10
140.415290652
 20
135.000000000
 30
0.000000000
 10
140.292605230
 20
135.000000000
 30
0.000000000
 10
140.169919809
 20
135.000000000
 30
0.000000000
 10
140.055597652
 20
135.000000000
 30
0.000000000
 10
139.941275495
 20
135.000000000
 30
0.000000000
 10
139.836754271
 20
135.000000000
 30
0.000000000
 10
139.732233047
 20
135.000000000
 30
0.000000000
 10
139.638827170
 20
135.000000000
 30
0.000000000
 10
139.545421294
 20
135.000000000
 30
0.000000000
 10
139.464305398
 20
135.000000000
 30
0.000000000
 10
139.383189502
 20
135.000000000
 30
0.000000000
 10
139.315383666
 20
135.000000000
 30
0.000000000
 10
139.247577830
 20
135.000000000
 30
0.000000000
 10
139.193934752
 20
135.000000000
 30
0.000000000
 10
139.140291674
 20
135.000000000
 30
0.000000000
 10
139.101485947
 20
135.000000000
 30
0.000000000
 10
139.062680220
 20
135.000000000
 30
0.000000000
 10
139.039199847
 20
135.000000000
 30
0.000000000
 10
139.015719475
 20
135.000000000
 30
0.000000000
 10
139.007859738
 20
135.000000000
 30
0.000000000
 10
139.000000000
 20
135.000000000
 30
0.000000000
  0
SPLINE
  5
A24
330
A02
100
AcDbEntity
  8
ProjItem
100
AcDbSpline
210
0
220
0
230
1
 70
8
 71
2
 72
30
 73
27
 74
0
 40
3.141592654
 40
3.141592654
 40
3.141592654
 40
3.253792391
 40
3.253792391
 40
3.365992129
 40
3.365992129
 40
3.478191866
 40
3.478191866
 40
3.590391604
 40
3.590391604
 40
3.702591342
 40
3.702591342
 40
3.814791079
 40
3.814791079
 40
3.926990817
 40
3.926990817
 40
4.039190555
 40
4.039190555
 40
4.151390292
 40
4.151390292
 40
4.263590030
 40
4.263590030
 40
4.375789768
 40
4.375789768
 40
4.487989505
 40
4.487989505
 40
4.712388980
 40
4.712388980
 40
4.712388980
 10
139.000000000
 20
135.000000000
 30
0.000000000
 10
139.007859738
 20
135.000000000
 30
0.000000000
 10
139.015719475
 20
135.000000000
 30
0.000000000
 10
139.039199847
 20
135.000000000
 30
0.000000000
 10
139.062680220
 20
135.000000000
 30
0.000000000
 10
139.101485947
 20
135.000000000
 30
0.000000000
 10
139.140291674
 20
135.000000000
 30
0.000000000
 10
139.193934752
 20
135.000000000
 30
0.000000000
 10
139.247577830
 20
135.000000000
 30
0.000000000
 10
139.315383666
 20
135.000000000
 30
0.000000000
 10
139.383189502
 20
135.000000000
 30
0.000000000
 10
139.464305398
 20
135.000000000
 30
0.000000000
 10
139.545421294
 20
135.000000000
 30
0.000000000
 10
139.638827170
 20
135.000000000
 30
0.000000000
 10
139.732233047
 20
135.000000000
 30
0.000000000
 10
139.836754271
 20
135.000000000
 30
0.000000000
 10
139.941275495
 20
135.000000000
 30
0.000000000
 10
140.055597652
 20
135.000000000
 30
0.000000000
 10
140.169919809
 20
135.000000000
 30
0.000000000
 10
140.292605230
 20
135.000000000
 30
0.000000000
 10
140.415290652
 20
135.000000000
 30
0.000000000
 10
140.544796499
 20
135.000000000
 30
0.000000000
 10
140.674302345
 20
135.000000000
 30
0.000000000
 10
140.809000005
 20
135.000000000
 30
0.000000000
 10
140.943697665
 20
135.000000000
 30
0.000000000
 10
141.219101723
 20
135.000000000
 30
0.000000000
 10
141.500000000
 20
135.000000000
 30
0.000000000
  0
SPLINE
  5
A25
330
A02
100
AcDbEntity
  8
ProjItem
100
AcDbSpline
210
0
220
0
230
1
 70
8
 71
2
 72
30
 73
27
 74
0
 40
0.000000000
 40
0.000000000
 40
0.000000000
 40
0.112199738
 40
0.112199738
 40
0.224399475
 40
0.224399475
 40
0.336599213
 40
0.336599213
 40
0.448798951
 40
0.448798951
 40
0.560998688
 40
0.560998688
 40
0.673198426
 40
0.673198426
 40
0.785398163
 40
0.785398163
 40
0.897597901
 40
0.897597901
 40
1.009797639
 40
1.009797639
 40
1.121997376
 40
1.121997376
 40
1.234197114
 40
1.234197114
 40
1.346396852
 40
1.346396852
 40
1.570796327
 40
1.570796327
 40
1.570796327
 10
144.000000000
 20
135.000000000
 30
0.000000000
 10
143.992140262
 20
135.000000000
 30
0.000000000
 10
143.984280525
 20
135.000000000
 30
0.000000000
 10
143.960800153
 20
135.000000000
 30
0.000000000
 10
143.937319780
 20
135.000000000
 30
0.000000000
 10
143.898514053
 20
135.000000000
 30
0.000000000
 10
143.859708326
 20
135.000000000
 30
0.000000000
 10
143.806065248
 20
135.000000000
 30
0.000000000
 10
143.752422170
 20
135.000000000
 30
0.000000000
 10
143.684616334
 20
135.000000000
 30
0.000000000
 10
143.616810498
 20
135.000000000
 30
0.000000000
 10
143.535694602
 20
135.000000000
 30
0.000000000
 10
143.454578706
 20
135.000000000
 30
0.000000000
 10
143.361172830
 20
135.000000000
 30
0.000000000
 10
143.267766953
 20
135.000000000
 30
0.000000000
 10
143.163245729
 20
135.000000000
 30
0.000000000
 10
143.058724505
 20
135.000000000
 30
0.000000000
 10
142.944402348
 20
135.000000000
 30
0.000000000
 10
142.830080191
 20
135.000000000
 30
0.000000000
 10
142.707394770
 20
135.000000000
 30
0.000000000
 10
142.584709348
 20
135.000000000
 30
0.000000000
 10
142.455203501
 20
135.000000000
 30
0.000000000
 10
142.325697655
 20
135.000000000
 30
0.000000000
 10
142.190999995
 20
135.000000000
 30
0.000000000
 10
142.056302335
 20
135.000000000
 30
0.000000000
 10
141.780898277
 20
135.000000000
 30
0.000000000
 10
141.500000000
 20
135.000000000
 30
0.000000000
  0
LINE
  5
A26
330
A02
100
AcDbEntity
  8
ProjItem
100
AcDbLine
 10
169.000000000
 20
130.500000000
 30
0.000000000
 11
169.000000000
 21
135.000000000
 31
0.000000000
  0
SPLINE
  5
A27
330
A02
100
AcDbEntity
  8
ProjItem
100
AcDbSpline
210
0
220
0
230
1
 70
8
 71
2
 72
30
 73
27
 74
0
 40
4.712388980
 40
4.712388980
 40
4.712388980
 40
4.936788456
 40
4.936788456
 40
5.048988193
 40
5.048988193
 40
5.161187931
 40
5.161187931
 40
5.273387669
 40
5.273387669
 40
5.385587406
 40
5.385587406
 40
5.497787144
 40
5.497787144
 40
5.609986881
 40
5.609986881
 40
5.722186619
 40
5.722186619
 40
5.834386357
 40
5.834386357
 40
5.946586094
 40
5.946586094
 40
6.058785832
 40
6.058785832
 40
6.170985570
 40
6.170985570
 40
6.283185307
 40
6.283185307
 40
6.283185307
 10
166.500000000
 20
135.000000000
 30
0.000000000
 10
166.780898277
 20
135.000000000
 30
0.000000000
 10
167.056302335
 20
135.000000000
 30
0.000000000
 10
167.190999995
 20
135.000000000
 30
0.000000000
 10
167.325697655
 20
135.000000000
 30
0.000000000
 10
167.455203501
 20
135.000000000
 30
0.000000000
 10
167.584709348
 20
135.000000000
 30
0.000000000
 10
167.707394770
 20
135.000000000
 30
0.000000000
 10
167.830080191
 20
135.000000000
 30
0.000000000
 10
167.944402348
 20
135.000000000
 30
0.000000000
 10
168.058724505
 20
135.000000000
 30
0.000000000
 10
168.163245729
 20
135.000000000
 30
0.000000000
 10
168.267766953
 20
135.000000000
 30
0.000000000
 10
168.361172830
 20
135.000000000
 30
0.000000000
 10
168.454578706
 20
135.000000000
 30
0.000000000
 10
168.535694602
 20
135.000000000
 30
0.000000000
 10
168.616810498
 20
135.000000000
 30
0.000000000
 10
168.684616334
 20
135.000000000
 30
0.000000000
 10
168.752422170
 20
135.000000000
 30
0.000000000
 10
168.806065248
 20
135.000000000
 30
0.000000000
 10
168.859708326
 20
135.000000000
 30
0.000000000
 10
168.898514053
 20
135.000000000
 30
0.000000000
 10
168.937319780
 20
135.000000000
 30
0.000000000
 10
168.960800153
 20
135.000000000
 30
0.000000000
 10
168.984280525
 20
135.000000000
 30
0.000000000
 10
168.992140262
 20
135.000000000
 30
0.000000000
 10
169.000000000
 20
135.000000000
 30
0.000000000
  0
SPLINE
  5
A28
330
A02
100
AcDbEntity
  8
ProjItem
100
AcDbSpline
210
0
220
0
230
1
 70
8
 71
2
 72
30
 73
27
 74
0
 40
1.570796327
 40
1.570796327
 40
1.570796327
 40
1.682996064
 40
1.682996064
 40
1.907395540
 40
1.907395540
 40
2.019595277
 40
2.019595277
 40
2.131795015
 40
2.131795015
 40
2.243994753
 40
2.243994753
 40
2.356194490
 40
2.356194490
 40
2.468394228
 40
2.468394228
 40
2.580593965
 40
2.580593965
 40
2.692793703
 40
2.692793703
 40
2.804993441
 40
2.804993441
 40
2.917193178
 40
2.917193178
 40
3.029392916
 40
3.029392916
 40
3.141592654
 40
3.141592654
 40
3.141592654
 10
166.500000000
 20
135.000000000
 30
0.000000000
 10
166.360044405
 20
135.000000000
 30
0.000000000
 10
166.220088810
 20
135.000000000
 30
0.000000000
 10
165.941735905
 20
135.000000000
 30
0.000000000
 10
165.674302345
 20
135.000000000
 30
0.000000000
 10
165.544796499
 20
135.000000000
 30
0.000000000
 10
165.415290652
 20
135.000000000
 30
0.000000000
 10
165.292605230
 20
135.000000000
 30
0.000000000
 10
165.169919809
 20
135.000000000
 30
0.000000000
 10
165.055597652
 20
135.000000000
 30
0.000000000
 10
164.941275495
 20
135.000000000
 30
0.000000000
 10
164.836754271
 20
135.000000000
 30
0.000000000
 10
164.732233047
 20
135.000000000
 30
0.000000000
 10
164.638827170
 20
135.000000000
 30
0.000000000
 10
164.545421294
 20
135.000000000
 30
0.000000000
 10
164.464305398
 20
135.000000000
 30
0.000000000
 10
164.383189502
 20
135.000000000
 30
0.000000000
 10
164.315383666
 20
135.000000000
 30
0.000000000
 10
164.247577830
 20
135.000000000
 30
0.000000000
 10
164.193934752
 20
135.000000000
 30
0.000000000
 10
164.140291674
 20
135.000000000
 30
0.000000000
 10
164.101485947
 20
135.000000000
 30
0.000000000
 10
164.062680220
 20
135.000000000
 30
0.000000000
 10
164.039199847
 20
135.000000000
 30
0.000000000
 10
164.015719475
 20
135.000000000
 30
0.000000000
 10
164.007859738
 20
135.000000000
 30
0.000000000
 10
164.000000000
 20
135.000000000
 30
0.000000000
  0
SPLINE
  5
A29
330
A02
100
AcDbEntity
  8
ProjItem
100
AcDbSpline
210
0
220
0
230
1
 70
8
 71
2
 72
30
 73
27
 74
0
 40
3.141592654
 40
3.141592654
 40
3.141592654
 40
3.253792391
 40
3.253792391
 40
3.365992129
 40
3.365992129
 40
3.478191866
 40
3.478191866
 40
3.590391604
 40
3.590391604
 40
3.702591342
 40
3.702591342
 40
3.814791079
 40
3.814791079
 40
3.926990817
 40
3.926990817
 40
4.039190555
 40
4.039190555
 40
4.151390292
 40
4.151390292
 40
4.263590030
 40
4.263590030
 40
4.375789768
 40
4.375789768
 40
4.487989505
 40
4.487989505
 40
4.712388980
 40
4.712388980
 40
4.712388980
 10
164.000000000
 20
135.000000000
 30
0.000000000
 10
164.007859738
 20
135.000000000
 30
0.000000000
 10
164.015719475
 20
135.000000000
 30
0.000000000
 10
164.039199847
 20
135.000000000
 30
0.000000000
 10
164.062680220
 20
135.000000000
 30
0.000000000
 10
164.101485947
 20
135.000000000
 30
0.000000000
 10
164.140291674
 20
135.000000000
 30
0.000000000
 10
164.193934752
 20
135.000000000
 30
0.000000000
 10
164.247577830
 20
135.000000000
 30
0.000000000
 10
164.315383666
 20
135.000000000
 30
0.000000000
 10
164.383189502
 20
135.000000000
 30
0.000000000
 10
164.464305398
 20
135.000000000
 30
0.000000000
 10
164.545421294
 20
135.000000000
 30
0.000000000
 10
164.638827170
 20
135.000000000
 30
0.000000000
 10
164.732233047
 20
135.000000000
 30
0.000000000
 10
164.836754271
 20
135.000000000
 30
0.000000000
 10
164.941275495
 20
135.000000000
 30
0.000000000
 10
165.055597652
 20
135.000000000
 30
0.000000000
 10
165.169919809
 20
135.000000000
 30
0.000000000
 10
165.292605230
 20
135.000000000
 30
0.000000000
 10
165.415290652
 20
135.000000000
 30
0.000000000
 10
165.544796499
 20
135.000000000
 30
0.000000000
 10
165.674302345
 20
135.000000000
 30
0.000000000
 10
165.809000005
 20
135.000000000
 30
0.000000000
 10
165.943697665
 20
135.000000000
 30
0.000000000
 10
166.219101723
 20
135.000000000
 30
0.000000000
 10
166.500000000
 20
135.000000000
 30
0.000000000
  0
SPLINE
  5
A2A
330
A02
100
AcDbEntity
  8
ProjItem
100
AcDbSpline
210
0
220
0
230
1
 70
8
 71
2
 72
30
 73
27
 74
0
 40
0.000000000
 40
0.000000000
 40
0.000000000
 40
0.112199738
 40
0.112199738
 40
0.224399475
 40
0.224399475
 40
0.336599213
 40
0.336599213
 40
0.448798951
 40
0.448798951
 40
0.560998688
 40
0.560998688
 40
0.673198426
 40
0.673198426
 40
0.785398163
 40
0.785398163
 40
0.897597901
 40
0.897597901
 40
1.009797639
 40
1.009797639
 40
1.121997376
 40
1.121997376
 40
1.234197114
 40
1.234197114
 40
1.346396852
 40
1.346396852
 40
1.570796327
 40
1.570796327
 40
1.570796327
 10
169.000000000
 20
135.000000000
 30
0.000000000
 10
168.992140262
 20
135.000000000
 30
0.000000000
 10
168.984280525
 20
135.000000000
 30
0.000000000
 10
168.960800153
 20
135.000000000
 30
0.000000000
 10
168.937319780
 20
135.000000000
 30
0.000000000
 10
168.898514053
 20
135.000000000
 30
0.000000000
 10
168.859708326
 20
135.000000000
 30
0.000000000
 10
168.806065248
 20
135.000000000
 30
0.000000000
 10
168.752422170
 20
135.000000000
 30
0.000000000
 10
168.684616334
 20
135.000000000
 30
0.000000000
 10
168.616810498
 20
135.000000000
 30
0.000000000
 10
168.535694602
 20
135.000000000
 30
0.000000000
 10
168.454578706
 20
135.000000000
 30
0.000000000
 10
168.361172830
 20
135.000000000
 30
0.000000000
 10
168.267766953
 20
135.000000000
 30
0.000000000
 10
168.163245729
 20
135.000000000
 30
0.000000000
 10
168.058724505
 20
135.000000000
 30
0.000000000
 10
167.944402348
 20
135.000000000
 30
0.000000000
 10
167.830080191
 20
135.000000000
 30
0.000000000
 10
167.707394770
 20
135.000000000
 30
0.000000000
 10
167.584709348
 20
135.000000000
 30
0.000000000
 10
167.455203501
 20
135.000000000
 30
0.000000000
 10
167.325697655
 20
135.000000000
 30
0.000000000
 10
167.190999995
 20
135.000000000
 30
0.000000000
 10
167.056302335
 20
135.000000000
 30
0.000000000
 10
166.780898277
 20
135.000000000
 30
0.000000000
 10
166.500000000
 20
135.000000000
 30
0.000000000
  0
LINE
  5
A2B
330
A02
100
AcDbEntity
  8
ProjItem
100
AcDbLine
 10
170.000000000
 20
134.500000000
 30
0.000000000
 11
133.000000000
 21
153.000000000
 31
0.000000000
  0
LINE
  5
A2C
330
A02
100
AcDbEntity
  8
ProjItem
100
AcDbLine
 10
139.000000000
 20
130.500000000
 30
0.000000000
 11
139.000000000
 21
135.000000000
 31
0.000000000
  0
LINE
  5
A2D
330
A02
100
AcDbEntity
  8
ProjItem
100
AcDbLine
 10
164.000000000
 20
130.500000000
 30
0.000000000
 11
164.000000000
 21
135.000000000
 31
0.000000000
  0
LINE
  5
A2E
330
A02
100
AcDbEntity
  8
ProjItem
100
AcDbLine
 10
141.500000000
 20
130.000000000
 30
0.000000000
 11
141.500000000
 21
135.000000000
 31
0.000000000
  0
LINE
  5
A2F
330
A02
100
AcDbEntity
  8
ProjItem
100
AcDbLine
 10
166.500000000
 20
130.000000000
 30
0.000000000
 11
166.500000000
 21
135.000000000
 31
0.000000000
  0
LINE
  5
A30
330
A02
100
AcDbEntity
  8
ProjItem001
100
AcDbLine
 10
129.000000000
 20
82.500000000
 30
0.000000000
 11
129.000000000
 21
112.500000000
 31
0.000000000
  0
LINE
  5
A31
330
A02
100
AcDbEntity
  8
ProjItem001
100
AcDbLine
 10
129.000000000
 20
82.500000000
 30
0.000000000
 11
133.000000000
 21
82.500000000
 31
0.000000000
  0
LINE
  5
A32
330
A02
100
AcDbEntity
  8
ProjItem001
100
AcDbLine
 10
133.000000000
 20
82.500000000
 30
0.000000000
 11
179.000000000
 21
82.500000000
 31
0.000000000
  0
LINE
  5
A33
330
A02
100
AcDbEntity
  8
ProjItem001
100
AcDbLine
 10
129.000000000
 20
112.500000000
 30
0.000000000
 11
133.000000000
 21
112.500000000
 31
0.000000000
  0
LINE
  5
A34
330
A02
100
AcDbEntity
  8
ProjItem001
100
AcDbLine
 10
133.000000000
 20
112.500000000
 30
0.000000000
 11
179.000000000
 21
112.500000000
 31
0.000000000
  0
LINE
  5
A35
330
A02
100
AcDbEntity
  8
ProjItem001
100
AcDbLine
 10
133.000000000
 20
82.500000000
 30
0.000000000
 11
133.000000000
 21
112.500000000
 31
0.000000000
  0
LINE
  5
A36
330
A02
100
AcDbEntity
  8
ProjItem001
100
AcDbLine
 10
170.000000000
 20
100.000000000
 30
0.000000000
 11
170.000000000
 21
95.000000000
 31
0.000000000
  0
LINE
  5
A37
330
A02
100
AcDbEntity
  8
ProjItem001
100
AcDbLine
 10
179.000000000
 20
82.500000000
 30
0.000000000
 11
179.000000000
 21
112.500000000
 31
0.000000000
  0
LINE
  5
A38
330
A02
100
AcDbEntity
  8
ProjItem001
100
AcDbLine
 10
170.000000000
 20
100.000000000
 30
0.000000000
 11
133.000000000
 21
100.000000000
 31
0.000000000
  0
LINE
  5
A39
330
A02
100
AcDbEntity
  8
ProjItem001
100
AcDbLine
 10
170.000000000
 20
95.000000000
 30
0.000000000
 11
133.000000000
 21
95.000000000
 31
0.000000000
  0
LINE
  5
A3A
330
A02
100
AcDbEntity
  8
ProjItem001
100
AcDbLine
 10
129.000000000
 20
82.500000000
 30
0.000000000
 11
129.000000000
 21
112.500000000
 31
0.000000000
  0
LINE
  5
A3B
330
A02
100
AcDbEntity
  8
ProjItem001
100
AcDbLine
 10
129.000000000
 20
82.500000000
 30
0.000000000
 11
179.000000000
 21
82.500000000
 31
0.000000000
  0
LINE
  5
A3C
330
A02
100
AcDbEntity
  8
ProjItem001
100
AcDbLine
 10
179.000000000
 20
82.500000000
 30
0.000000000
 11
179.000000000
 21
112.500000000
 31
0.000000000
  0
LINE
  5
A3D
330
A02
100
AcDbEntity
  8
ProjItem001
100
AcDbLine
 10
179.000000000
 20
112.500000000
 30
0.000000000
 11
129.000000000
 21
112.500000000
 31
0.000000000
  0
CIRCLE
  5
A3E
330
A02
100
AcDbEntity
  8
ProjItem001
100
AcDbCircle
 10
141.500000000
 20
97.500000000
 30
0.000000000
 40
2.500000000
  0
CIRCLE
  5
A3F
330
A02
100
AcDbEntity
  8
ProjItem001
100
AcDbCircle
 10
166.500000000
 20
97.500000000
 30
0.000000000
 40
2.500000000
  0
LINE
  5
A40
330
A02
100
AcDbEntity
  8
ProjItem001
100
AcDbLine
 10
133.000000000
 20
82.500000000
 30
0.000000000
 11
133.000000000
 21
95.000000000
 31
0.000000000
  0
LINE
  5
A41
330
A02
100
AcDbEntity
  8
ProjItem001
100
AcDbLine
 10
133.000000000
 20
100.000000000
 30
0.000000000
 11
133.000000000
 21
95.000000000
 31
0.000000000
  0
LINE
  5
A42
330
A02
100
AcDbEntity
  8
ProjItem001
100
AcDbLine
 10
133.000000000
 20
100.000000000
 30
0.000000000
 11
133.000000000
 21
112.500000000
 31
0.000000000
  0
LINE
  5
A43
330
A02
100
AcDbEntity
  8
ProjItem001
100
AcDbLine
 10
133.000000000
 20
100.000000000
 30
0.000000000
 11
141.500000000
 21
100.000000000
 31
0.000000000
  0
LINE
  5
A44
330
A02
100
AcDbEntity
  8
ProjItem001
100
AcDbLine
 10
141.500000000
 20
100.000000000
 30
0.000000000
 11
166.500000000
 21
100.000000000
 31
0.000000000
  0
LINE
  5
A45
330
A02
100
AcDbEntity
  8
ProjItem001
100
AcDbLine
 10
166.500000000
 20
100.000000000
 30
0.000000000
 11
170.000000000
 21
100.000000000
 31
0.000000000
  0
LINE
  5
A46
330
A02
100
AcDbEntity
  8
ProjItem001
100
AcDbLine
 10
166.500000000
 20
95.000000000
 30
0.000000000
 11
170.000000000
 21
95.000000000
 31
0.000000000
  0
LINE
  5
A47
330
A02
100
AcDbEntity
  8
ProjItem001
100
AcDbLine
 10
141.500000000
 20
95.000000000
 30
0.000000000
 11
166.500000000
 21
95.000000000
 31
0.000000000
  0
LINE
  5
A48
330
A02
100
AcDbEntity
  8
ProjItem001
100
AcDbLine
 10
133.000000000
 20
95.000000000
 30
0.000000000
 11
141.500000000
 21
95.000000000
 31
0.000000000
  0
ARC
  5
A49
330
A02
100
AcDbEntity
  8
ProjItem001
100
AcDbCircle
 10
141.500000000
 20
97.500000000
 30
0.000000000
 40
2.500000000
100
AcDbArc
 50
-90.000000000
 51
0.000000000
  0
ARC
  5
A4A
330
A02
100
AcDbEntity
  8
ProjItem001
100
AcDbCircle
 10
141.500000000
 20
97.500000000
 30
0.000000000
 40
2.500000000
100
AcDbArc
 50
90.000000000
 51
-90.000000000
  0
ARC
  5
A4B
330
A02
100
AcDbEntity
  8
ProjItem001
100
AcDbCircle
 10
141.500000000
 20
97.500000000
 30
0.000000000
 40
2.500000000
100
AcDbArc
 50
0.000000000
 51
90.000000000
  0
ARC
  5
A4C
330
A02
100
AcDbEntity
  8
ProjItem001
100
AcDbCircle
 10
166.500000000
 20
97.500000000
 30
0.000000000
 40
2.500000000
100
AcDbArc
 50
-90.000000000
 51
0.000000000
  0
ARC
  5
A4D
330
A02
100
AcDbEntity
  8
ProjItem001
100
AcDbCircle
 10
166.500000000
 20
97.500000000
 30
0.000000000
 40
2.500000000
100
AcDbArc
 50
90.000000000
 51
-90.000000000
  0
ARC
  5
A4E
330
A02
100
AcDbEntity
  8
ProjItem001
100
AcDbCircle
 10
166.500000000
 20
97.500000000
 30
0.000000000
 40
2.500000000
100
AcDbArc
 50
0.000000000
 51
90.000000000
  0
LINE
  5
A4F
330
A02
100
AcDbEntity
  8
ProjItem001
100
AcDbLine
 10
138.375000000
 20
97.500000000
 30
0.000000000
 11
144.625000000
 21
97.500000000
 31
0.000000000
  0
LINE
  5
A50
330
A02
100
AcDbEntity
  8
ProjItem001
100
AcDbLine
 10
141.500000000
 20
94.375000000
 30
0.000000000
 11
141.500000000
 21
100.625000000
 31
0.000000000
  0
LINE
  5
A51
330
A02
100
AcDbEntity
  8
ProjItem001
100
AcDbLine
 10
163.375000000
 20
97.500000000
 30
0.000000000
 11
169.625000000
 21
97.500000000
 31
0.000000000
  0
LINE
  5
A52
330
A02
100
AcDbEntity
  8
ProjItem001
100
AcDbLine
 10
166.500000000
 20
94.375000000
 30
0.000000000
 11
166.500000000
 21
100.625000000
 31
0.000000000
  0
LINE
  5
A53
330
A02
100
AcDbEntity
  8
ProjItem002
100
AcDbLine
 10
81.000000000
 20
134.500000000
 30
0.000000000
 11
81.000000000
 21
159.500000000
 31
0.000000000
  0
LINE
  5
A54
330
A02
100
AcDbEntity
  8
ProjItem002
100
AcDbLine
 10
81.000000000
 20
130.500000000
 30
0.000000000
 11
81.000000000
 21
134.500000000
 31
0.000000000
  0
LINE
  5
A55
330
A02
100
AcDbEntity
  8
ProjItem002
100
AcDbLine
 10
81.000000000
 20
130.500000000
 30
0.000000000
 11
111.000000000
 21
130.500000000
 31
0.000000000
  0
LINE
  5
A56
330
A02
100
AcDbEntity
  8
ProjItem002
100
AcDbLine
 10
111.000000000
 20
134.500000000
 30
0.000000000
 11
111.000000000
 21
159.500000000
 31
0.000000000
  0
LINE
  5
A57
330
A02
100
AcDbEntity
  8
ProjItem002
100
AcDbLine
 10
111.000000000
 20
130.500000000
 30
0.000000000
 11
111.000000000
 21
134.500000000
 31
0.000000000
  0
LINE
  5
A58
330
A02
100
AcDbEntity
  8
ProjItem002
100
AcDbLine
 10
81.000000000
 20
159.500000000
 30
0.000000000
 11
111.000000000
 21
159.500000000
 31
0.000000000
  0
LINE
  5
A59
330
A02
100
AcDbEntity
  8
ProjItem002
100
AcDbLine
 10
98.500000000
 20
153.000000000
 30
0.000000000
 11
93.500000000
 21
153.000000000
 31
0.000000000
  0
LINE
  5
A5A
330
A02
100
AcDbEntity
  8
ProjItem002
100
AcDbLine
 10
81.000000000
 20
134.500000000
 30
0.000000000
 11
111.000000000
 21
134.500000000
 31
0.000000000
  0
LINE
  5
A5B
330
A02
100
AcDbEntity
  8
ProjItem002
100
AcDbLine
 10
98.500000000
 20
134.500000000
 30
0.000000000
 11
98.500000000
 21
153.000000000
 31
0.000000000
  0
LINE
  5
A5C
330
A02
100
AcDbEntity
  8
ProjItem002
100
AcDbLine
 10
93.500000000
 20
134.500000000
 30
0.000000000
 11
93.500000000
 21
153.000000000
 31
0.000000000
  0
LINE
  5
A5D
330
A02
100
AcDbEntity
  8
ProjItem002
100
AcDbLine
 10
81.000000000
 20
130.500000000
 30
0.000000000
 11
81.000000000
 21
159.500000000
 31
0.000000000
  0
LINE
  5
A5E
330
A02
100
AcDbEntity
  8
ProjItem002
100
AcDbLine
 10
81.000000000
 20
130.500000000
 30
0.000000000
 11
111.000000000
 21
130.500000000
 31
0.000000000
  0
LINE
  5
A5F
330
A02
100
AcDbEntity
  8
ProjItem002
100
AcDbLine
 10
111.000000000
 20
159.500000000
 30
0.000000000
 11
111.000000000
 21
130.500000000
 31
0.000000000
  0
LINE
  5
A60
330
A02
100
AcDbEntity
  8
ProjItem002
100
AcDbLine
 10
81.000000000
 20
159.500000000
 30
0.000000000
 11
111.000000000
 21
159.500000000
 31
0.000000000
  0
SPLINE
  5
A61
330
A02
100
AcDbEntity
  8
ProjItem002
100
AcDbSpline
210
0
220
0
230
1
 70
8
 71
2
 72
30
 73
27
 74
0
 40
0.000000000
 40
0.000000000
 40
0.000000000
 40
0.112199738
 40
0.112199738
 40
0.336599213
 40
0.336599213
 40
0.448798951
 40
0.448798951
 40
0.560998688
 40
0.560998688
 40
0.673198426
 40
0.673198426
 40
0.785398163
 40
0.785398163
 40
0.897597901
 40
0.897597901
 40
1.009797639
 40
1.009797639
 40
1.121997376
 40
1.121997376
 40
1.234197114
 40
1.234197114
 40
1.346396852
 40
1.346396852
 40
1.458596589
 40
1.458596589
 40
1.570796327
 40
1.570796327
 40
1.570796327
 10
96.000000000
 20
130.500000000
 30
0.000000000
 10
96.139955595
 20
130.500000000
 30
0.000000000
 10
96.279911190
 20
130.500000000
 30
0.000000000
 10
96.558264095
 20
130.500000000
 30
0.000000000
 10
96.825697655
 20
130.500000000
 30
0.000000000
 10
96.955203501
 20
130.500000000
 30
0.000000000
 10
97.084709348
 20
130.500000000
 30
0.000000000
 10
97.207394770
 20
130.500000000
 30
0.000000000
 10
97.330080191
 20
130.500000000
 30
0.000000000
 10
97.444402348
 20
130.500000000
 30
0.000000000
 10
97.558724505
 20
130.500000000
 30
0.000000000
 10
97.663245729
 20
130.500000000
 30
0.000000000
 10
97.767766953
 20
130.500000000
 30
0.000000000
 10
97.861172830
 20
130.500000000
 30
0.000000000
 10
97.954578706
 20
130.500000000
 30
0.000000000
 10
98.035694602
 20
130.500000000
 30
0.000000000
 10
98.116810498
 20
130.500000000
 30
0.000000000
 10
98.184616334
 20
130.500000000
 30
0.000000000
 10
98.252422170
 20
130.500000000
 30
0.000000000
 10
98.306065248
 20
130.500000000
 30
0.000000000
 10
98.359708326
 20
130.500000000
 30
0.000000000
 10
98.398514053
 20
130.500000000
 30
0.000000000
 10
98.437319780
 20
130.500000000
 30
0.000000000
 10
98.460800153
 20
130.500000000
 30
0.000000000
 10
98.484280525
 20
130.500000000
 30
0.000000000
 10
98.492140262
 20
130.500000000
 30
0.000000000
 10
98.500000000
 20
130.500000000
 30
0.000000000
  0
SPLINE
  5
A62
330
A02
100
AcDbEntity
  8
ProjItem002
100
AcDbSpline
210
0
220
0
230
1
 70
8
 71
1
 72
17
 73
15
 74
0
 40
1.570796327
 40
1.570796327
 40
1.795195802
 40
2.019595277
 40
2.243994753
 40
2.468394228
 40
2.692793703
 40
2.917193178
 40
3.141592654
 40
3.365992129
 40
3.590391604
 40
3.814791079
 40
4.039190555
 40
4.263590030
 40
4.487989505
 40
4.712388980
 40
4.712388980
 10
98.500000000
 20
130.500000000
 30
0.000000000
 10
98.437319780
 20
130.500000000
 30
0.000000000
 10
98.252422170
 20
130.500000000
 30
0.000000000
 10
97.954578706
 20
130.500000000
 30
0.000000000
 10
97.558724505
 20
130.500000000
 30
0.000000000
 10
97.084709348
 20
130.500000000
 30
0.000000000
 10
96.556302335
 20
130.500000000
 30
0.000000000
 10
96.000000000
 20
130.500000000
 30
0.000000000
 10
95.443697665
 20
130.500000000
 30
0.000000000
 10
94.915290652
 20
130.500000000
 30
0.000000000
 10
94.441275495
 20
130.500000000
 30
0.000000000
 10
94.045421294
 20
130.500000000
 30
0.000000000
 10
93.747577830
 20
130.500000000
 30
0.000000000
 10
93.562680220
 20
130.500000000
 30
0.000000000
 10
93.500000000
 20
130.500000000
 30
0.000000000
  0
SPLINE
  5
A63
330
A02
100
AcDbEntity
  8
ProjItem002
100
AcDbSpline
210
0
220
0
230
1
 70
8
 71
2
 72
30
 73
27
 74
0
 40
4.712388980
 40
4.712388980
 40
4.712388980
 40
4.824588718
 40
4.824588718
 40
4.936788456
 40
4.936788456
 40
5.048988193
 40
5.048988193
 40
5.161187931
 40
5.161187931
 40
5.273387669
 40
5.273387669
 40
5.385587406
 40
5.385587406
 40
5.497787144
 40
5.497787144
 40
5.609986881
 40
5.609986881
 40
5.722186619
 40
5.722186619
 40
5.834386357
 40
5.834386357
 40
5.946586094
 40
5.946586094
 40
6.058785832
 40
6.058785832
 40
6.283185307
 40
6.283185307
 40
6.283185307
 10
93.500000000
 20
130.500000000
 30
0.000000000
 10
93.507859738
 20
130.500000000
 30
0.000000000
 10
93.515719475
 20
130.500000000
 30
0.000000000
 10
93.539199847
 20
130.500000000
 30
0.000000000
 10
93.562680220
 20
130.500000000
 30
0.000000000
 10
93.601485947
 20
130.500000000
 30
0.000000000
 10
93.640291674
 20
130.500000000
 30
0.000000000
 10
93.693934752
 20
130.500000000
 30
0.000000000
 10
93.747577830
 20
130.500000000
 30
0.000000000
 10
93.815383666
 20
130.500000000
 30
0.000000000
 10
93.883189502
 20
130.500000000
 30
0.000000000
 10
93.964305398
 20
130.500000000
 30
0.000000000
 10
94.045421294
 20
130.500000000
 30
0.000000000
 10
94.138827170
 20
130.500000000
 30
0.000000000
 10
94.232233047
 20
130.500000000
 30
0.000000000
 10
94.336754271
 20
130.500000000
 30
0.000000000
 10
94.441275495
 20
130.500000000
 30
0.000000000
 10
94.555597652
 20
130.500000000
 30
0.000000000
 10
94.669919809
 20
130.500000000
 30
0.000000000
 10
94.792605230
 20
130.500000000
 30
0.000000000
 10
94.915290652
 20
130.500000000
 30
0.000000000
 10
95.044796499
 20
130.500000000
 30
0.000000000
 10
95.174302345
 20
130.500000000
 30
0.000000000
 10
95.309000005
 20
130.500000000
 30
0.000000000
 10
95.443697665
 20
130.500000000
 30
0.000000000
 10
95.719101723
 20
130.500000000
 30
0.000000000
 10
96.000000000
 20
130.500000000
 30
0.000000000
  0
SPLINE
  5
A64
330
A02
100
AcDbEntity
  8
ProjItem002
100
AcDbSpline
210
0
220
0
230
1
 70
8
 71
2
 72
30
 73
27
 74
0
 40
0.000000000
 40
0.000000000
 40
0.000000000
 40
0.112199738
 40
0.112199738
 40
0.336599213
 40
0.336599213
 40
0.448798951
 40
0.448798951
 40
0.560998688
 40
0.560998688
 40
0.673198426
 40
0.673198426
 40
0.785398163
 40
0.785398163
 40
0.897597901
 40
0.897597901
 40
1.009797639
 40
1.009797639
 40
1.121997376
 40
1.121997376
 40
1.234197114
 40
1.234197114
 40
1.346396852
 40
1.346396852
 40
1.458596589
 40
1.458596589
 40
1.570796327
 40
1.570796327
 40
1.570796327
 10
96.000000000
 20
130.500000000
 30
0.000000000
 10
96.139955595
 20
130.500000000
 30
0.000000000
 10
96.279911190
 20
130.500000000
 30
0.000000000
 10
96.558264095
 20
130.500000000
 30
0.000000000
 10
96.825697655
 20
130.500000000
 30
0.000000000
 10
96.955203501
 20
130.500000000
 30
0.000000000
 10
97.084709348
 20
130.500000000
 30
0.000000000
 10
97.207394770
 20
130.500000000
 30
0.000000000
 10
97.330080191
 20
130.500000000
 30
0.000000000
 10
97.444402348
 20
130.500000000
 30
0.000000000
 10
97.558724505
 20
130.500000000
 30
0.000000000
 10
97.663245729
 20
130.500000000
 30
0.000000000
 10
97.767766953
 20
130.500000000
 30
0.000000000
 10
97.861172830
 20
130.500000000
 30
0.000000000
 10
97.954578706
 20
130.500000000
 30
0.000000000
 10
98.035694602
 20
130.500000000
 30
0.000000000
 10
98.116810498
 20
130.500000000
 30
0.000000000
 10
98.184616334
 20
130.500000000
 30
0.000000000
 10
98.252422170
 20
130.500000000
 30
0.000000000
 10
98.306065248
 20
130.500000000
 30
0.000000000
 10
98.359708326
 20
130.500000000
 30
0.000000000
 10
98.398514053
 20
130.500000000
 30
0.000000000
 10
98.437319780
 20
130.500000000
 30
0.000000000
 10
98.460800153
 20
130.500000000
 30
0.000000000
 10
98.484280525
 20
130.500000000
 30
0.000000000
 10
98.492140262
 20
130.500000000
 30
0.000000000
 10
98.500000000
 20
130.500000000
 30
0.000000000
  0
SPLINE
  5
A65
330
A02
100
AcDbEntity
  8
ProjItem002
100
AcDbSpline
210
0
220
0
230
1
 70
8
 71
1
 72
17
 73
15
 74
0
 40
1.570796327
 40
1.570796327
 40
1.795195802
 40
2.019595277
 40
2.243994753
 40
2.468394228
 40
2.692793703
 40
2.917193178
 40
3.141592654
 40
3.365992129
 40
3.590391604
 40
3.814791079
 40
4.039190555
 40
4.263590030
 40
4.487989505
 40
4.712388980
 40
4.712388980
 10
98.500000000
 20
130.500000000
 30
0.000000000
 10
98.437319780
 20
130.500000000
 30
0.000000000
 10
98.252422170
 20
130.500000000
 30
0.000000000
 10
97.954578706
 20
130.500000000
 30
0.000000000
 10
97.558724505
 20
130.500000000
 30
0.000000000
 10
97.084709348
 20
130.500000000
 30
0.000000000
 10
96.556302335
 20
130.500000000
 30
0.000000000
 10
96.000000000
 20
130.500000000
 30
0.000000000
 10
95.443697665
 20
130.500000000
 30
0.000000000
 10
94.915290652
 20
130.500000000
 30
0.000000000
 10
94.441275495
 20
130.500000000
 30
0.000000000
 10
94.045421294
 20
130.500000000
 30
0.000000000
 10
93.747577830
 20
130.500000000
 30
0.000000000
 10
93.562680220
 20
130.500000000
 30
0.000000000
 10
93.500000000
 20
130.500000000
 30
0.000000000
  0
SPLINE
  5
A66
330
A02
100
AcDbEntity
  8
ProjItem002
100
AcDbSpline
210
0
220
0
230
1
 70
8
 71
2
 72
30
 73
27
 74
0
 40
4.712388980
 40
4.712388980
 40
4.712388980
 40
4.824588718
 40
4.824588718
 40
4.936788456
 40
4.936788456
 40
5.048988193
 40
5.048988193
 40
5.161187931
 40
5.161187931
 40
5.273387669
 40
5.273387669
 40
5.385587406
 40
5.385587406
 40
5.497787144
 40
5.497787144
 40
5.609986881
 40
5.609986881
 40
5.722186619
 40
5.722186619
 40
5.834386357
 40
5.834386357
 40
5.946586094
 40
5.946586094
 40
6.058785832
 40
6.058785832
 40
6.283185307
 40
6.283185307
 40
6.283185307
 10
93.500000000
 20
130.500000000
 30
0.000000000
 10
93.507859738
 20
130.500000000
 30
0.000000000
 10
93.515719475
 20
130.500000000
 30
0.000000000
 10
93.539199847
 20
130.500000000
 30
0.000000000
 10
93.562680220
 20
130.500000000
 30
0.000000000
 10
93.601485947
 20
130.500000000
 30
0.000000000
 10
93.640291674
 20
130.500000000
 30
0.000000000
 10
93.693934752
 20
130.500000000
 30
0.000000000
 10
93.747577830
 20
130.500000000
 30
0.000000000
 10
93.815383666
 20
130.500000000
 30
0.000000000
 10
93.883189502
 20
130.500000000
 30
0.000000000
 10
93.964305398
 20
130.500000000
 30
0.000000000
 10
94.045421294
 20
130.500000000
 30
0.000000000
 10
94.138827170
 20
130.500000000
 30
0.000000000
 10
94.232233047
 20
130.500000000
 30
0.000000000
 10
94.336754271
 20
130.500000000
 30
0.000000000
 10
94.441275495
 20
130.500000000
 30
0.000000000
 10
94.555597652
 20
130.500000000
 30
0.000000000
 10
94.669919809
 20
130.500000000
 30
0.000000000
 10
94.792605230
 20
130.500000000
 30
0.000000000
 10
94.915290652
 20
130.500000000
 30
0.000000000
 10
95.044796499
 20
130.500000000
 30
0.000000000
 10
95.174302345
 20
130.500000000
 30
0.000000000
 10
95.309000005
 20
130.500000000
 30
0.000000000
 10
95.443697665
 20
130.500000000
 30
0.000000000
 10
95.719101723
 20
130.500000000
 30
0.000000000
 10
96.000000000
 20
130.500000000
 30
0.000000000
  0
LINE
  5
A67
330
A02
100
AcDbEntity
  8
ProjItem002
100
AcDbLine
 10
81.000000000
 20
134.500000000
 30
0.000000000
 11
93.500000000
 21
134.500000000
 31
0.000000000
  0
LINE
  5
A68
330
A02
100
AcDbEntity
  8
ProjItem002
100
AcDbLine
 10
93.500000000
 20
153.000000000
 30
0.000000000
 11
93.500000000
 21
134.500000000
 31
0.000000000
  0
LINE
  5
A69
330
A02
100
AcDbEntity
  8
ProjItem002
100
AcDbLine
 10
98.500000000
 20
153.000000000
 30
0.000000000
 11
98.500000000
 21
134.500000000
 31
0.000000000
  0
LINE
  5
A6A
330
A02
100
AcDbEntity
  8
ProjItem002
100
AcDbLine
 10
98.500000000
 20
134.500000000
 30
0.000000000
 11
111.000000000
 21
134.500000000
 31
0.000000000
  0
LINE
  5
A6B
330
A02
100
AcDbEntity
  8
ProjItem002
100
AcDbLine
 10
98.500000000
 20
134.500000000
 30
0.000000000
 11
93.500000000
 21
134.500000000
 31
0.000000000
  0
SPLINE
  5
A6C
330
A02
100
AcDbEntity
  8
ProjItem002
100
AcDbSpline
210
0
220
0
230
1
 70
8
 71
2
 72
30
 73
27
 74
0
 40
4.712388980
 40
4.712388980
 40
4.712388980
 40
4.824588718
 40
4.824588718
 40
4.936788456
 40
4.936788456
 40
5.048988193
 40
5.048988193
 40
5.161187931
 40
5.161187931
 40
5.273387669
 40
5.273387669
 40
5.385587406
 40
5.385587406
 40
5.497787144
 40
5.497787144
 40
5.609986881
 40
5.609986881
 40
5.722186619
 40
5.722186619
 40
5.834386357
 40
5.834386357
 40
5.946586094
 40
5.946586094
 40
6.058785832
 40
6.058785832
 40
6.283185307
 40
6.283185307
 40
6.283185307
 10
93.500000000
 20
135.000000000
 30
0.000000000
 10
93.507859738
 20
135.000000000
 30
0.000000000
 10
93.515719475
 20
135.000000000
 30
0.000000000
 10
93.539199847
 20
135.000000000
 30
0.000000000
 10
93.562680220
 20
135.000000000
 30
0.000000000
 10
93.601485947
 20
135.000000000
 30
0.000000000
 10
93.640291674
 20
135.000000000
 30
0.000000000
 10
93.693934752
 20
135.000000000
 30
0.000000000
 10
93.747577830
 20
135.000000000
 30
0.000000000
 10
93.815383666
 20
135.000000000
 30
0.000000000
 10
93.883189502
 20
135.000000000
 30
0.000000000
 10
93.964305398
 20
135.000000000
 30
0.000000000
 10
94.045421294
 20
135.000000000
 30
0.000000000
 10
94.138827170
 20
135.000000000
 30
0.000000000
 10
94.232233047
 20
135.000000000
 30
0.000000000
 10
94.336754271
 20
135.000000000
 30
0.000000000
 10
94.441275495
 20
135.000000000
 30
0.000000000
 10
94.555597652
 20
135.000000000
 30
0.000000000
 10
94.669919809
 20
135.000000000
 30
0.000000000
 10
94.792605230
 20
135.000000000
 30
0.000000000
 10
94.915290652
 20
135.000000000
 30
0.000000000
 10
95.044796499
 20
135.000000000
 30
0.000000000
 10
95.174302345
 20
135.000000000
 30
0.000000000
 10
95.309000005
 20
135.000000000
 30
0.000000000
 10
95.443697665
 20
135.000000000
 30
0.000000000
 10
95.719101723
 20
135.000000000
 30
0.000000000
 10
96.000000000
 20
135.000000000
 30
0.000000000
  0
SPLINE
  5
A6D
330
A02
100
AcDbEntity
  8
ProjItem002
100
AcDbSpline
210
0
220
0
230
1
 70
8
 71
1
 72
17
 73
15
 74
0
 40
1.570796327
 40
1.570796327
 40
1.795195802
 40
2.019595277
 40
2.243994753
 40
2.468394228
 40
2.692793703
 40
2.917193178
 40
3.141592654
 40
3.365992129
 40
3.590391604
 40
3.814791079
 40
4.039190555
 40
4.263590030
 40
4.487989505
 40
4.712388980
 40
4.712388980
 10
98.500000000
 20
135.000000000
 30
0.000000000
 10
98.437319780
 20
135.000000000
 30
0.000000000
 10
98.252422170
 20
135.000000000
 30
0.000000000
 10
97.954578706
 20
135.000000000
 30
0.000000000
 10
97.558724505
 20
135.000000000
 30
0.000000000
 10
97.084709348
 20
135.000000000
 30
0.000000000
 10
96.556302335
 20
135.000000000
 30
0.000000000
 10
96.000000000
 20
135.000000000
 30
0.000000000
 10
95.443697665
 20
135.000000000
 30
0.000000000
 10
94.915290652
 20
135.000000000
 30
0.000000000
 10
94.441275495
 20
135.000000000
 30
0.000000000
 10
94.045421294
 20
135.000000000
 30
0.000000000
 10
93.747577830
 20
135.000000000
 30
0.000000000
 10
93.562680220
 20
135.000000000
 30
0.000000000
 10
93.500000000
 20
135.000000000
 30
0.000000000
  0
SPLINE
  5
A6E
330
A02
100
AcDbEntity
  8
ProjItem002
100
AcDbSpline
210
0
220
0
230
1
 70
8
 71
2
 72
30
 73
27
 74
0
 40
0.000000000
 40
0.000000000
 40
0.000000000
 40
0.112199738
 40
0.112199738
 40
0.336599213
 40
0.336599213
 40
0.448798951
 40
0.448798951
 40
0.560998688
 40
0.560998688
 40
0.673198426
 40
0.673198426
 40
0.785398163
 40
0.785398163
 40
0.897597901
 40
0.897597901
 40
1.009797639
 40
1.009797639
 40
1.121997376
 40
1.121997376
 40
1.234197114
 40
1.234197114
 40
1.346396852
 40
1.346396852
 40
1.458596589
 40
1.458596589
 40
1.570796327
 40
1.570796327
 40
1.570796327
 10
96.000000000
 20
135.000000000
 30
0.000000000
 10
96.139955595
 20
135.000000000
 30
0.000000000
 10
96.279911190
 20
135.000000000
 30
0.000000000
 10
96.558264095
 20
135.000000000
 30
0.000000000
 10
96.825697655
 20
135.000000000
 30
0.000000000
 10
96.955203501
 20
135.000000000
 30
0.000000000
 10
97.084709348
 20
135.000000000
 30
0.000000000
 10
97.207394770
 20
135.000000000
 30
0.000000000
 10
97.330080191
 20
135.000000000
 30
0.000000000
 10
97.444402348
 20
135.000000000
 30
0.000000000
 10
97.558724505
 20
135.000000000
 30
0.000000000
 10
97.663245729
 20
135.000000000
 30
0.000000000
 10
97.767766953
 20
135.000000000
 30
0.000000000
 10
97.861172830
 20
135.000000000
 30
0.000000000
 10
97.954578706
 20
135.000000000
 30
0.000000000
 10
98.035694602
 20
135.000000000
 30
0.000000000
 10
98.116810498
 20
135.000000000
 30
0.000000000
 10
98.184616334
 20
135.000000000
 30
0.000000000
 10
98.252422170
 20
135.000000000
 30
0.000000000
 10
98.306065248
 20
135.000000000
 30
0.000000000
 10
98.359708326
 20
135.000000000
 30
0.000000000
 10
98.398514053
 20
135.000000000
 30
0.000000000
 10
98.437319780
 20
135.000000000
 30
0.000000000
 10
98.460800153
 20
135.000000000
 30
0.000000000
 10
98.484280525
 20
135.000000000
 30
0.000000000
 10
98.492140262
 20
135.000000000
 30
0.000000000
 10
98.500000000
 20
135.000000000
 30
0.000000000
  0
SPLINE
  5
A6F
330
A02
100
AcDbEntity
  8
ProjItem002
100
AcDbSpline
210
0
220
0
230
1
 70
8
 71
2
 72
30
 73
27
 74
0
 40
4.712388980
 40
4.712388980
 40
4.712388980
 40
4.824588718
 40
4.824588718
 40
4.936788456
 40
4.936788456
 40
5.048988193
 40
5.048988193
 40
5.161187931
 40
5.161187931
 40
5.273387669
 40
5.273387669
 40
5.385587406
 40
5.385587406
 40
5.497787144
 40
5.497787144
 40
5.609986881
 40
5.609986881
 40
5.722186619
 40
5.722186619
 40
5.834386357
 40
5.834386357
 40
5.946586094
 40
5.946586094
 40
6.058785832
 40
6.058785832
 40
6.283185307
 40
6.283185307
 40
6.283185307
 10
93.500000000
 20
135.000000000
 30
0.000000000
 10
93.507859738
 20
135.000000000
 30
0.000000000
 10
93.515719475
 20
135.000000000
 30
0.000000000
 10
93.539199847
 20
135.000000000
 30
0.000000000
 10
93.562680220
 20
135.000000000
 30
0.000000000
 10
93.601485947
 20
135.000000000
 30
0.000000000
 10
93.640291674
 20
135.000000000
 30
0.000000000
 10
93.693934752
 20
135.000000000
 30
0.000000000
 10
93.747577830
 20
135.000000000
 30
0.000000000
 10
93.815383666
 20
135.000000000
 30
0.000000000
 10
93.883189502
 20
135.000000000
 30
0.000000000
 10
93.964305398
 20
135.000000000
 30
0.000000000
 10
94.045421294
 20
135.000000000
 30
0.000000000
 10
94.138827170
 20
135.000000000
 30
0.000000000
 10
94.232233047
 20
135.000000000
 30
0.000000000
 10
94.336754271
 20
135.000000000
 30
0.000000000
 10
94.441275495
 20
135.000000000
 30
0.000000000
 10
94.555597652
 20
135.000000000
 30
0.000000000
 10
94.669919809
 20
135.000000000
 30
0.000000000
 10
94.792605230
 20
135.000000000
 30
0.000000000
 10
94.915290652
 20
135.000000000
 30
0.000000000
 10
95.044796499
 20
135.000000000
 30
0.000000000
 10
95.174302345
 20
135.000000000
 30
0.000000000
 10
95.309000005
 20
135.000000000
 30
0.000000000
 10
95.443697665
 20
135.000000000
 30
0.000000000
 10
95.719101723
 20
135.000000000
 30
0.000000000
 10
96.000000000
 20
135.000000000
 30
0.000000000
  0
SPLINE
  5
A70
330
A02
100
AcDbEntity
  8
ProjItem002
100
AcDbSpline
210
0
220
0
230
1
 70
8
 71
1
 72
17
 73
15
 74
0
 40
1.570796327
 40
1.570796327
 40
1.795195802
 40
2.019595277
 40
2.243994753
 40
2.468394228
 40
2.692793703
 40
2.917193178
 40
3.141592654
 40
3.365992129
 40
3.590391604
 40
3.814791079
 40
4.039190555
 40
4.263590030
 40
4.487989505
 40
4.712388980
 40
4.712388980
 10
98.500000000
 20
135.000000000
 30
0.000000000
 10
98.437319780
 20
135.000000000
 30
0.000000000
 10
98.252422170
 20
135.000000000
 30
0.000000000
 10
97.954578706
 20
135.000000000
 30
0.000000000
 10
97.558724505
 20
135.000000000
 30
0.000000000
 10
97.084709348
 20
135.000000000
 30
0.000000000
 10
96.556302335
 20
135.000000000
 30
0.000000000
 10
96.000000000
 20
135.000000000
 30
0.000000000
 10
95.443697665
 20
135.000000000
 30
0.000000000
 10
94.915290652
 20
135.000000000
 30
0.000000000
 10
94.441275495
 20
135.000000000
 30
0.000000000
 10
94.045421294
 20
135.000000000
 30
0.000000000
 10
93.747577830
 20
135.000000000
 30
0.000000000
 10
93.562680220
 20
135.000000000
 30
0.000000000
 10
93.500000000
 20
135.000000000
 30
0.000000000
  0
SPLINE
  5
A71
330
A02
100
AcDbEntity
  8
ProjItem002
100
AcDbSpline
210
0
220
0
230
1
 70
8
 71
2
 72
30
 73
27
 74
0
 40
0.000000000
 40
0.000000000
 40
0.000000000
 40
0.112199738
 40
0.112199738
 40
0.336599213
 40
0.336599213
 40
0.448798951
 40
0.448798951
 40
0.560998688
 40
0.560998688
 40
0.673198426
 40
0.673198426
 40
0.785398163
 40
0.785398163
 40
0.897597901
 40
0.897597901
 40
1.009797639
 40
1.009797639
 40
1.121997376
 40
1.121997376
 40
1.234197114
 40
1.234197114
 40
1.346396852
 40
1.346396852
 40
1.458596589
 40
1.458596589
 40
1.570796327
 40
1.570796327
 40
1.570796327
 10
96.000000000
 20
135.000000000
 30
0.000000000
 10
96.139955595
 20
135.000000000
 30
0.000000000
 10
96.279911190
 20
135.000000000
 30
0.000000000
 10
96.558264095
 20
135.000000000
 30
0.000000000
 10
96.825697655
 20
135.000000000
 30
0.000000000
 10
96.955203501
 20
135.000000000
 30
0.000000000
 10
97.084709348
 20
135.000000000
 30
0.000000000
 10
97.207394770
 20
135.000000000
 30
0.000000000
 10
97.330080191
 20
135.000000000
 30
0.000000000
 10
97.444402348
 20
135.000000000
 30
0.000000000
 10
97.558724505
 20
135.000000000
 30
0.000000000
 10
97.663245729
 20
135.000000000
 30
0.000000000
 10
97.767766953
 20
135.000000000
 30
0.000000000
 10
97.861172830
 20
135.000000000
 30
0.000000000
 10
97.954578706
 20
135.000000000
 30
0.000000000
 10
98.035694602
 20
135.000000000
 30
0.000000000
 10
98.116810498
 20
135.000000000
 30
0.000000000
 10
98.184616334
 20
135.000000000
 30
0.000000000
 10
98.252422170
 20
135.000000000
 30
0.000000000
 10
98.306065248
 20
135.000000000
 30
0.000000000
 10
98.359708326
 20
135.000000000
 30
0.000000000
 10
98.398514053
 20
135.000000000
 30
0.000000000
 10
98.437319780
 20
135.000000000
 30
0.000000000
 10
98.460800153
 20
135.000000000
 30
0.000000000
 10
98.484280525
 20
135.000000000
 30
0.000000000
 10
98.492140262
 20
135.000000000
 30
0.000000000
 10
98.500000000
 20
135.000000000
 30
0.000000000
  0
LINE
  5
A72
330
A02
100
AcDbEntity
  8
ProjItem002
100
AcDbLine
 10
98.500000000
 20
130.500000000
 30
0.000000000
 11
98.500000000
 21
135.000000000
 31
0.000000000
  0
LINE
  5
A73
330
A02
100
AcDbEntity
  8
ProjItem002
100
AcDbLine
 10
93.500000000
 20
130.500000000
 30
0.000000000
 11
93.500000000
 21
135.000000000
 31
0.000000000
  0
LINE
  5
A74
330
A02
100
AcDbEntity
  8
ProjItem002
100
AcDbLine
 10
98.500000000
 20
130.500000000
 30
0.000000000
 11
98.500000000
 21
135.000000000
 31
0.000000000
  0
LINE
  5
A75
330
A02
100
AcDbEntity
  8
ProjItem002
100
AcDbLine
 10
93.500000000
 20
130.500000000
 30
0.000000000
 11
93.500000000
 21
135.000000000
 31
0.000000000
  0
LINE
  5
A76
330
A02
100
AcDbEntity
  8
ProjItem002
100
AcDbLine
 10
96.000000000
 20
130.000000000
 30
0.000000000
 11
96.000000000
 21
135.000000000
 31
0.000000000
  0
DIMENSION
  5
A77
330
A02
100
AcDbEntity
  8
DimDia14
100
AcDbDimension
  2
*DimDia14
 10
143.841956790
 20
98.374779055
 30
0.000000000
 11
156.000000000
 21
108.000000000
 31
0.000000000
 70
3
  1
⌀10
  3
STANDARD
100
AcDbDiametricDimension
 15
139.158043210
 25
96.625220945
 35
0.000000000
 40
0
  0
DIMENSION
  5
A7F
330
A02
100
AcDbEntity
  8
DimWidth
100
AcDbDimension
  2
*DimWidth
 10
154.000000000
 20
166.500000000
 30
0.000000000
 11
154.000000000
 21
171.500000000
 31
0.000000000
 70
32
  1
100
  3
STANDARD
100
AcDbAlignedDimension
 13
129.000000000
 23
130.500000000
 33
0.000000000
 14
179.000000000
 24
130.500000000
 34
0.000000000
100
AcDbRotatedDimension
  0
DIMENSION
  5
A89
330
A02
100
AcDbEntity
  8
DimHeight
100
AcDbDimension
  2
*DimHeight
 10
186.000000000
 20
145.000000000
 30
0.000000000
 11
191.000000000
 21
145.000000000
 31
0.000000000
 70
32
  1
58
  3
STANDARD
100
AcDbAlignedDimension
 13
129.000000000
 23
130.500000000
 33
0.000000000
 14
129.000000000
 24
159.500000000
 34
0.000000000
 50
90
100
AcDbRotatedDimension
  0
ENDSEC
  0
SECTION
  2
OBJECTS
  0
DICTIONARY
  5
F000
330
0
100
AcDbDictionary
  3
ACAD_GROUP
350
F001
  0
DICTIONARY
  5
F001
330
F000
100
AcDbDictionary
  0
ENDSEC
  0
EOF