(0 "Python generated Fluent mesh for task-09 lid-driven cavity")
(0 "Dimension:")
(2 2)
(0 "Grid:")
(12 (0 1 190 0))
(13 (0 1 348 0))
(10 (0 1 1b9 0 2))

(12 (2 1 190 1 3))

(10 (1 1 1b9 1 2)(
 0.000000000000e+00 0.000000000000e+00
 5.000000000000e-05 0.000000000000e+00
 1.000000000000e-04 0.000000000000e+00
 1.500000000000e-04 0.000000000000e+00
 2.000000000000e-04 0.000000000000e+00
 2.500000000000e-04 0.000000000000e+00
 3.000000000000e-04 0.000000000000e+00
 3.500000000000e-04 0.000000000000e+00
 4.000000000000e-04 0.000000000000e+00
 4.500000000000e-04 0.000000000000e+00
 5.000000000000e-04 0.000000000000e+00
 5.500000000000e-04 0.000000000000e+00
 6.000000000000e-04 0.000000000000e+00
 6.500000000000e-04 0.000000000000e+00
 7.000000000000e-04 0.000000000000e+00
 7.500000000000e-04 0.000000000000e+00
 8.000000000000e-04 0.000000000000e+00
 8.500000000000e-04 0.000000000000e+00
 9.000000000000e-04 0.000000000000e+00
 9.500000000000e-04 0.000000000000e+00
 1.000000000000e-03 0.000000000000e+00
 0.000000000000e+00 5.000000000000e-05
 5.000000000000e-05 5.000000000000e-05
 1.000000000000e-04 5.000000000000e-05
 1.500000000000e-04 5.000000000000e-05
 2.000000000000e-04 5.000000000000e-05
 2.500000000000e-04 5.000000000000e-05
 3.000000000000e-04 5.000000000000e-05
 3.500000000000e-04 5.000000000000e-05
 4.000000000000e-04 5.000000000000e-05
 4.500000000000e-04 5.000000000000e-05
 5.000000000000e-04 5.000000000000e-05
 5.500000000000e-04 5.000000000000e-05
 6.000000000000e-04 5.000000000000e-05
 6.500000000000e-04 5.000000000000e-05
 7.000000000000e-04 5.000000000000e-05
 7.500000000000e-04 5.000000000000e-05
 8.000000000000e-04 5.000000000000e-05
 8.500000000000e-04 5.000000000000e-05
 9.000000000000e-04 5.000000000000e-05
 9.500000000000e-04 5.000000000000e-05
 1.000000000000e-03 5.000000000000e-05
 0.000000000000e+00 1.000000000000e-04
 5.000000000000e-05 1.000000000000e-04
 1.000000000000e-04 1.000000000000e-04
 1.500000000000e-04 1.000000000000e-04
 2.000000000000e-04 1.000000000000e-04
 2.500000000000e-04 1.000000000000e-04
 3.000000000000e-04 1.000000000000e-04
 3.500000000000e-04 1.000000000000e-04
 4.000000000000e-04 1.000000000000e-04
 4.500000000000e-04 1.000000000000e-04
 5.000000000000e-04 1.000000000000e-04
 5.500000000000e-04 1.000000000000e-04
 6.000000000000e-04 1.000000000000e-04
 6.500000000000e-04 1.000000000000e-04
 7.000000000000e-04 1.000000000000e-04
 7.500000000000e-04 1.000000000000e-04
 8.000000000000e-04 1.000000000000e-04
 8.500000000000e-04 1.000000000000e-04
 9.000000000000e-04 1.000000000000e-04
 9.500000000000e-04 1.000000000000e-04
 1.000000000000e-03 1.000000000000e-04
 0.000000000000e+00 1.500000000000e-04
 5.000000000000e-05 1.500000000000e-04
 1.000000000000e-04 1.500000000000e-04
 1.500000000000e-04 1.500000000000e-04
 2.000000000000e-04 1.500000000000e-04
 2.500000000000e-04 1.500000000000e-04
 3.000000000000e-04 1.500000000000e-04
 3.500000000000e-04 1.500000000000e-04
 4.000000000000e-04 1.500000000000e-04
 4.500000000000e-04 1.500000000000e-04
 5.000000000000e-04 1.500000000000e-04
 5.500000000000e-04 1.500000000000e-04
 6.000000000000e-04 1.500000000000e-04
 6.500000000000e-04 1.500000000000e-04
 7.000000000000e-04 1.500000000000e-04
 7.500000000000e-04 1.500000000000e-04
 8.000000000000e-04 1.500000000000e-04
 8.500000000000e-04 1.500000000000e-04
 9.000000000000e-04 1.500000000000e-04
 9.500000000000e-04 1.500000000000e-04
 1.000000000000e-03 1.500000000000e-04
 0.000000000000e+00 2.000000000000e-04
 5.000000000000e-05 2.000000000000e-04
 1.000000000000e-04 2.000000000000e-04
 1.500000000000e-04 2.000000000000e-04
 2.000000000000e-04 2.000000000000e-04
 2.500000000000e-04 2.000000000000e-04
 3.000000000000e-04 2.000000000000e-04
 3.500000000000e-04 2.000000000000e-04
 4.000000000000e-04 2.000000000000e-04
 4.500000000000e-04 2.000000000000e-04
 5.000000000000e-04 2.000000000000e-04
 5.500000000000e-04 2.000000000000e-04
 6.000000000000e-04 2.000000000000e-04
 6.500000000000e-04 2.000000000000e-04
 7.000000000000e-04 2.000000000000e-04
 7.500000000000e-04 2.000000000000e-04
 8.000000000000e-04 2.000000000000e-04
 8.500000000000e-04 2.000000000000e-04
 9.000000000000e-04 2.000000000000e-04
 9.500000000000e-04 2.000000000000e-04
 1.000000000000e-03 2.000000000000e-04
 0.000000000000e+00 2.500000000000e-04
 5.000000000000e-05 2.500000000000e-04
 1.000000000000e-04 2.500000000000e-04
 1.500000000000e-04 2.500000000000e-04
 2.000000000000e-04 2.500000000000e-04
 2.500000000000e-04 2.500000000000e-04
 3.000000000000e-04 2.500000000000e-04
 3.500000000000e-04 2.500000000000e-04
 4.000000000000e-04 2.500000000000e-04
 4.500000000000e-04 2.500000000000e-04
 5.000000000000e-04 2.500000000000e-04
 5.500000000000e-04 2.500000000000e-04
 6.000000000000e-04 2.500000000000e-04
 6.500000000000e-04 2.500000000000e-04
 7.000000000000e-04 2.500000000000e-04
 7.500000000000e-04 2.500000000000e-04
 8.000000000000e-04 2.500000000000e-04
 8.500000000000e-04 2.500000000000e-04
 9.000000000000e-04 2.500000000000e-04
 9.500000000000e-04 2.500000000000e-04
 1.000000000000e-03 2.500000000000e-04
 0.000000000000e+00 3.000000000000e-04
 5.000000000000e-05 3.000000000000e-04
 1.000000000000e-04 3.000000000000e-04
 1.500000000000e-04 3.000000000000e-04
 2.000000000000e-04 3.000000000000e-04
 2.500000000000e-04 3.000000000000e-04
 3.000000000000e-04 3.000000000000e-04
 3.500000000000e-04 3.000000000000e-04
 4.000000000000e-04 3.000000000000e-04
 4.500000000000e-04 3.000000000000e-04
 5.000000000000e-04 3.000000000000e-04
 5.500000000000e-04 3.000000000000e-04
 6.000000000000e-04 3.000000000000e-04
 6.500000000000e-04 3.000000000000e-04
 7.000000000000e-04 3.000000000000e-04
 7.500000000000e-04 3.000000000000e-04
 8.000000000000e-04 3.000000000000e-04
 8.500000000000e-04 3.000000000000e-04
 9.000000000000e-04 3.000000000000e-04
 9.500000000000e-04 3.000000000000e-04
 1.000000000000e-03 3.000000000000e-04
 0.000000000000e+00 3.500000000000e-04
 5.000000000000e-05 3.500000000000e-04
 1.000000000000e-04 3.500000000000e-04
 1.500000000000e-04 3.500000000000e-04
 2.000000000000e-04 3.500000000000e-04
 2.500000000000e-04 3.500000000000e-04
 3.000000000000e-04 3.500000000000e-04
 3.500000000000e-04 3.500000000000e-04
 4.000000000000e-04 3.500000000000e-04
 4.500000000000e-04 3.500000000000e-04
 5.000000000000e-04 3.500000000000e-04
 5.500000000000e-04 3.500000000000e-04
 6.000000000000e-04 3.500000000000e-04
 6.500000000000e-04 3.500000000000e-04
 7.000000000000e-04 3.500000000000e-04
 7.500000000000e-04 3.500000000000e-04
 8.000000000000e-04 3.500000000000e-04
 8.500000000000e-04 3.500000000000e-04
 9.000000000000e-04 3.500000000000e-04
 9.500000000000e-04 3.500000000000e-04
 1.000000000000e-03 3.500000000000e-04
 0.000000000000e+00 4.000000000000e-04
 5.000000000000e-05 4.000000000000e-04
 1.000000000000e-04 4.000000000000e-04
 1.500000000000e-04 4.000000000000e-04
 2.000000000000e-04 4.000000000000e-04
 2.500000000000e-04 4.000000000000e-04
 3.000000000000e-04 4.000000000000e-04
 3.500000000000e-04 4.000000000000e-04
 4.000000000000e-04 4.000000000000e-04
 4.500000000000e-04 4.000000000000e-04
 5.000000000000e-04 4.000000000000e-04
 5.500000000000e-04 4.000000000000e-04
 6.000000000000e-04 4.000000000000e-04
 6.500000000000e-04 4.000000000000e-04
 7.000000000000e-04 4.000000000000e-04
 7.500000000000e-04 4.000000000000e-04
 8.000000000000e-04 4.000000000000e-04
 8.500000000000e-04 4.000000000000e-04
 9.000000000000e-04 4.000000000000e-04
 9.500000000000e-04 4.000000000000e-04
 1.000000000000e-03 4.000000000000e-04
 0.000000000000e+00 4.500000000000e-04
 5.000000000000e-05 4.500000000000e-04
 1.000000000000e-04 4.500000000000e-04
 1.500000000000e-04 4.500000000000e-04
 2.000000000000e-04 4.500000000000e-04
 2.500000000000e-04 4.500000000000e-04
 3.000000000000e-04 4.500000000000e-04
 3.500000000000e-04 4.500000000000e-04
 4.000000000000e-04 4.500000000000e-04
 4.500000000000e-04 4.500000000000e-04
 5.000000000000e-04 4.500000000000e-04
 5.500000000000e-04 4.500000000000e-04
 6.000000000000e-04 4.500000000000e-04
 6.500000000000e-04 4.500000000000e-04
 7.000000000000e-04 4.500000000000e-04
 7.500000000000e-04 4.500000000000e-04
 8.000000000000e-04 4.500000000000e-04
 8.500000000000e-04 4.500000000000e-04
 9.000000000000e-04 4.500000000000e-04
 9.500000000000e-04 4.500000000000e-04
 1.000000000000e-03 4.500000000000e-04
 0.000000000000e+00 5.000000000000e-04
 5.000000000000e-05 5.000000000000e-04
 1.000000000000e-04 5.000000000000e-04
 1.500000000000e-04 5.000000000000e-04
 2.000000000000e-04 5.000000000000e-04
 2.500000000000e-04 5.000000000000e-04
 3.000000000000e-04 5.000000000000e-04
 3.500000000000e-04 5.000000000000e-04
 4.000000000000e-04 5.000000000000e-04
 4.500000000000e-04 5.000000000000e-04
 5.000000000000e-04 5.000000000000e-04
 5.500000000000e-04 5.000000000000e-04
 6.000000000000e-04 5.000000000000e-04
 6.500000000000e-04 5.000000000000e-04
 7.000000000000e-04 5.000000000000e-04
 7.500000000000e-04 5.000000000000e-04
 8.000000000000e-04 5.000000000000e-04
 8.500000000000e-04 5.000000000000e-04
 9.000000000000e-04 5.000000000000e-04
 9.500000000000e-04 5.000000000000e-04
 1.000000000000e-03 5.000000000000e-04
 0.000000000000e+00 5.500000000000e-04
 5.000000000000e-05 5.500000000000e-04
 1.000000000000e-04 5.500000000000e-04
 1.500000000000e-04 5.500000000000e-04
 2.000000000000e-04 5.500000000000e-04
 2.500000000000e-04 5.500000000000e-04
 3.000000000000e-04 5.500000000000e-04
 3.500000000000e-04 5.500000000000e-04
 4.000000000000e-04 5.500000000000e-04
 4.500000000000e-04 5.500000000000e-04
 5.000000000000e-04 5.500000000000e-04
 5.500000000000e-04 5.500000000000e-04
 6.000000000000e-04 5.500000000000e-04
 6.500000000000e-04 5.500000000000e-04
 7.000000000000e-04 5.500000000000e-04
 7.500000000000e-04 5.500000000000e-04
 8.000000000000e-04 5.500000000000e-04
 8.500000000000e-04 5.500000000000e-04
 9.000000000000e-04 5.500000000000e-04
 9.500000000000e-04 5.500000000000e-04
 1.000000000000e-03 5.500000000000e-04
 0.000000000000e+00 6.000000000000e-04
 5.000000000000e-05 6.000000000000e-04
 1.000000000000e-04 6.000000000000e-04
 1.500000000000e-04 6.000000000000e-04
 2.000000000000e-04 6.000000000000e-04
 2.500000000000e-04 6.000000000000e-04
 3.000000000000e-04 6.000000000000e-04
 3.500000000000e-04 6.000000000000e-04
 4.000000000000e-04 6.000000000000e-04
 4.500000000000e-04 6.000000000000e-04
 5.000000000000e-04 6.000000000000e-04
 5.500000000000e-04 6.000000000000e-04
 6.000000000000e-04 6.000000000000e-04
 6.500000000000e-04 6.000000000000e-04
 7.000000000000e-04 6.000000000000e-04
 7.500000000000e-04 6.000000000000e-04
 8.000000000000e-04 6.000000000000e-04
 8.500000000000e-04 6.000000000000e-04
 9.000000000000e-04 6.000000000000e-04
 9.500000000000e-04 6.000000000000e-04
 1.000000000000e-03 6.000000000000e-04
 0.000000000000e+00 6.500000000000e-04
 5.000000000000e-05 6.500000000000e-04
 1.000000000000e-04 6.500000000000e-04
 1.500000000000e-04 6.500000000000e-04
 2.000000000000e-04 6.500000000000e-04
 2.500000000000e-04 6.500000000000e-04
 3.000000000000e-04 6.500000000000e-04
 3.500000000000e-04 6.500000000000e-04
 4.000000000000e-04 6.500000000000e-04
 4.500000000000e-04 6.500000000000e-04
 5.000000000000e-04 6.500000000000e-04
 5.500000000000e-04 6.500000000000e-04
 6.000000000000e-04 6.500000000000e-04
 6.500000000000e-04 6.500000000000e-04
 7.000000000000e-04 6.500000000000e-04
 7.500000000000e-04 6.500000000000e-04
 8.000000000000e-04 6.500000000000e-04
 8.500000000000e-04 6.500000000000e-04
 9.000000000000e-04 6.500000000000e-04
 9.500000000000e-04 6.500000000000e-04
 1.000000000000e-03 6.500000000000e-04
 0.000000000000e+00 7.000000000000e-04
 5.000000000000e-05 7.000000000000e-04
 1.000000000000e-04 7.000000000000e-04
 1.500000000000e-04 7.000000000000e-04
 2.000000000000e-04 7.000000000000e-04
 2.500000000000e-04 7.000000000000e-04
 3.000000000000e-04 7.000000000000e-04
 3.500000000000e-04 7.000000000000e-04
 4.000000000000e-04 7.000000000000e-04
 4.500000000000e-04 7.000000000000e-04
 5.000000000000e-04 7.000000000000e-04
 5.500000000000e-04 7.000000000000e-04
 6.000000000000e-04 7.000000000000e-04
 6.500000000000e-04 7.000000000000e-04
 7.000000000000e-04 7.000000000000e-04
 7.500000000000e-04 7.000000000000e-04
 8.000000000000e-04 7.000000000000e-04
 8.500000000000e-04 7.000000000000e-04
 9.000000000000e-04 7.000000000000e-04
 9.500000000000e-04 7.000000000000e-04
 1.000000000000e-03 7.000000000000e-04
 0.000000000000e+00 7.500000000000e-04
 5.000000000000e-05 7.500000000000e-04
 1.000000000000e-04 7.500000000000e-04
 1.500000000000e-04 7.500000000000e-04
 2.000000000000e-04 7.500000000000e-04
 2.500000000000e-04 7.500000000000e-04
 3.000000000000e-04 7.500000000000e-04
 3.500000000000e-04 7.500000000000e-04
 4.000000000000e-04 7.500000000000e-04
 4.500000000000e-04 7.500000000000e-04
 5.000000000000e-04 7.500000000000e-04
 5.500000000000e-04 7.500000000000e-04
 6.000000000000e-04 7.500000000000e-04
 6.500000000000e-04 7.500000000000e-04
 7.000000000000e-04 7.500000000000e-04
 7.500000000000e-04 7.500000000000e-04
 8.000000000000e-04 7.500000000000e-04
 8.500000000000e-04 7.500000000000e-04
 9.000000000000e-04 7.500000000000e-04
 9.500000000000e-04 7.500000000000e-04
 1.000000000000e-03 7.500000000000e-04
 0.000000000000e+00 8.000000000000e-04
 5.000000000000e-05 8.000000000000e-04
 1.000000000000e-04 8.000000000000e-04
 1.500000000000e-04 8.000000000000e-04
 2.000000000000e-04 8.000000000000e-04
 2.500000000000e-04 8.000000000000e-04
 3.000000000000e-04 8.000000000000e-04
 3.500000000000e-04 8.000000000000e-04
 4.000000000000e-04 8.000000000000e-04
 4.500000000000e-04 8.000000000000e-04
 5.000000000000e-04 8.000000000000e-04
 5.500000000000e-04 8.000000000000e-04
 6.000000000000e-04 8.000000000000e-04
 6.500000000000e-04 8.000000000000e-04
 7.000000000000e-04 8.000000000000e-04
 7.500000000000e-04 8.000000000000e-04
 8.000000000000e-04 8.000000000000e-04
 8.500000000000e-04 8.000000000000e-04
 9.000000000000e-04 8.000000000000e-04
 9.500000000000e-04 8.000000000000e-04
 1.000000000000e-03 8.000000000000e-04
 0.000000000000e+00 8.500000000000e-04
 5.000000000000e-05 8.500000000000e-04
 1.000000000000e-04 8.500000000000e-04
 1.500000000000e-04 8.500000000000e-04
 2.000000000000e-04 8.500000000000e-04
 2.500000000000e-04 8.500000000000e-04
 3.000000000000e-04 8.500000000000e-04
 3.500000000000e-04 8.500000000000e-04
 4.000000000000e-04 8.500000000000e-04
 4.500000000000e-04 8.500000000000e-04
 5.000000000000e-04 8.500000000000e-04
 5.500000000000e-04 8.500000000000e-04
 6.000000000000e-04 8.500000000000e-04
 6.500000000000e-04 8.500000000000e-04
 7.000000000000e-04 8.500000000000e-04
 7.500000000000e-04 8.500000000000e-04
 8.000000000000e-04 8.500000000000e-04
 8.500000000000e-04 8.500000000000e-04
 9.000000000000e-04 8.500000000000e-04
 9.500000000000e-04 8.500000000000e-04
 1.000000000000e-03 8.500000000000e-04
 0.000000000000e+00 9.000000000000e-04
 5.000000000000e-05 9.000000000000e-04
 1.000000000000e-04 9.000000000000e-04
 1.500000000000e-04 9.000000000000e-04
 2.000000000000e-04 9.000000000000e-04
 2.500000000000e-04 9.000000000000e-04
 3.000000000000e-04 9.000000000000e-04
 3.500000000000e-04 9.000000000000e-04
 4.000000000000e-04 9.000000000000e-04
 4.500000000000e-04 9.000000000000e-04
 5.000000000000e-04 9.000000000000e-04
 5.500000000000e-04 9.000000000000e-04
 6.000000000000e-04 9.000000000000e-04
 6.500000000000e-04 9.000000000000e-04
 7.000000000000e-04 9.000000000000e-04
 7.500000000000e-04 9.000000000000e-04
 8.000000000000e-04 9.000000000000e-04
 8.500000000000e-04 9.000000000000e-04
 9.000000000000e-04 9.000000000000e-04
 9.500000000000e-04 9.000000000000e-04
 1.000000000000e-03 9.000000000000e-04
 0.000000000000e+00 9.500000000000e-04
 5.000000000000e-05 9.500000000000e-04
 1.000000000000e-04 9.500000000000e-04
 1.500000000000e-04 9.500000000000e-04
 2.000000000000e-04 9.500000000000e-04
 2.500000000000e-04 9.500000000000e-04
 3.000000000000e-04 9.500000000000e-04
 3.500000000000e-04 9.500000000000e-04
 4.000000000000e-04 9.500000000000e-04
 4.500000000000e-04 9.500000000000e-04
 5.000000000000e-04 9.500000000000e-04
 5.500000000000e-04 9.500000000000e-04
 6.000000000000e-04 9.500000000000e-04
 6.500000000000e-04 9.500000000000e-04
 7.000000000000e-04 9.500000000000e-04
 7.500000000000e-04 9.500000000000e-04
 8.000000000000e-04 9.500000000000e-04
 8.500000000000e-04 9.500000000000e-04
 9.000000000000e-04 9.500000000000e-04
 9.500000000000e-04 9.500000000000e-04
 1.000000000000e-03 9.500000000000e-04
 0.000000000000e+00 1.000000000000e-03
 5.000000000000e-05 1.000000000000e-03
 1.000000000000e-04 1.000000000000e-03
 1.500000000000e-04 1.000000000000e-03
 2.000000000000e-04 1.000000000000e-03
 2.500000000000e-04 1.000000000000e-03
 3.000000000000e-04 1.000000000000e-03
 3.500000000000e-04 1.000000000000e-03
 4.000000000000e-04 1.000000000000e-03
 4.500000000000e-04 1.000000000000e-03
 5.000000000000e-04 1.000000000000e-03
 5.500000000000e-04 1.000000000000e-03
 6.000000000000e-04 1.000000000000e-03
 6.500000000000e-04 1.000000000000e-03
 7.000000000000e-04 1.000000000000e-03
 7.500000000000e-04 1.000000000000e-03
 8.000000000000e-04 1.000000000000e-03
 8.500000000000e-04 1.000000000000e-03
 9.000000000000e-04 1.000000000000e-03
 9.500000000000e-04 1.000000000000e-03
 1.000000000000e-03 1.000000000000e-03
))

(13 (8 1 2f8 2 2)(
 17 2 2 1
 18 3 3 2
 19 4 4 3
 1a 5 5 4
 1b 6 6 5
 1c 7 7 6
 1d 8 8 7
 1e 9 9 8
 1f a a 9
 20 b b a
 21 c c b
 22 d d c
 23 e e d
 24 f f e
 25 10 10 f
 26 11 11 10
 27 12 12 11
 28 13 13 12
 29 14 14 13
 2c 17 16 15
 2d 18 17 16
 2e 19 18 17
 2f 1a 19 18
 30 1b 1a 19
 31 1c 1b 1a
 32 1d 1c 1b
 33 1e 1d 1c
 34 1f 1e 1d
 35 20 1f 1e
 36 21 20 1f
 37 22 21 20
 38 23 22 21
 39 24 23 22
 3a 25 24 23
 3b 26 25 24
 3c 27 26 25
 3d 28 27 26
 3e 29 28 27
 41 2c 2a 29
 42 2d 2b 2a
 43 2e 2c 2b
 44 2f 2d 2c
 45 30 2e 2d
 46 31 2f 2e
 47 32 30 2f
 48 33 31 30
 49 34 32 31
 4a 35 33 32
 4b 36 34 33
 4c 37 35 34
 4d 38 36 35
 4e 39 37 36
 4f 3a 38 37
 50 3b 39 38
 51 3c 3a 39
 52 3d 3b 3a
 53 3e 3c 3b
 56 41 3e 3d
 57 42 3f 3e
 58 43 40 3f
 59 44 41 40
 5a 45 42 41
 5b 46 43 42
 5c 47 44 43
 5d 48 45 44
 5e 49 46 45
 5f 4a 47 46
 60 4b 48 47
 61 4c 49 48
 62 4d 4a 49
 63 4e 4b 4a
 64 4f 4c 4b
 65 50 4d 4c
 66 51 4e 4d
 67 52 4f 4e
 68 53 50 4f
 6b 56 52 51
 6c 57 53 52
 6d 58 54 53
 6e 59 55 54
 6f 5a 56 55
 70 5b 57 56
 71 5c 58 57
 72 5d 59 58
 73 5e 5a 59
 74 5f 5b 5a
 75 60 5c 5b
 76 61 5d 5c
 77 62 5e 5d
 78 63 5f 5e
 79 64 60 5f
 7a 65 61 60
 7b 66 62 61
 7c 67 63 62
 7d 68 64 63
 80 6b 66 65
 81 6c 67 66
 82 6d 68 67
 83 6e 69 68
 84 6f 6a 69
 85 70 6b 6a
 86 71 6c 6b
 87 72 6d 6c
 88 73 6e 6d
 89 74 6f 6e
 8a 75 70 6f
 8b 76 71 70
 8c 77 72 71
 8d 78 73 72
 8e 79 74 73
 8f 7a 75 74
 90 7b 76 75
 91 7c 77 76
 92 7d 78 77
 95 80 7a 79
 96 81 7b 7a
 97 82 7c 7b
 98 83 7d 7c
 99 84 7e 7d
 9a 85 7f 7e
 9b 86 80 7f
 9c 87 81 80
 9d 88 82 81
 9e 89 83 82
 9f 8a 84 83
 a0 8b 85 84
 a1 8c 86 85
 a2 8d 87 86
 a3 8e 88 87
 a4 8f 89 88
 a5 90 8a 89
 a6 91 8b 8a
 a7 92 8c 8b
 aa 95 8e 8d
 ab 96 8f 8e
 ac 97 90 8f
 ad 98 91 90
 ae 99 92 91
 af 9a 93 92
 b0 9b 94 93
 b1 9c 95 94
 b2 9d 96 95
 b3 9e 97 96
 b4 9f 98 97
 b5 a0 99 98
 b6 a1 9a 99
 b7 a2 9b 9a
 b8 a3 9c 9b
 b9 a4 9d 9c
 ba a5 9e 9d
 bb a6 9f 9e
 bc a7 a0 9f
 bf aa a2 a1
 c0 ab a3 a2
 c1 ac a4 a3
 c2 ad a5 a4
 c3 ae a6 a5
 c4 af a7 a6
 c5 b0 a8 a7
 c6 b1 a9 a8
 c7 b2 aa a9
 c8 b3 ab aa
 c9 b4 ac ab
 ca b5 ad ac
 cb b6 ae ad
 cc b7 af ae
 cd b8 b0 af
 ce b9 b1 b0
 cf ba b2 b1
 d0 bb b3 b2
 d1 bc b4 b3
 d4 bf b6 b5
 d5 c0 b7 b6
 d6 c1 b8 b7
 d7 c2 b9 b8
 d8 c3 ba b9
 d9 c4 bb ba
 da c5 bc bb
 db c6 bd bc
 dc c7 be bd
 dd c8 bf be
 de c9 c0 bf
 df ca c1 c0
 e0 cb c2 c1
 e1 cc c3 c2
 e2 cd c4 c3
 e3 ce c5 c4
 e4 cf c6 c5
 e5 d0 c7 c6
 e6 d1 c8 c7
 e9 d4 ca c9
 ea d5 cb ca
 eb d6 cc cb
 ec d7 cd cc
 ed d8 ce cd
 ee d9 cf ce
 ef da d0 cf
 f0 db d1 d0
 f1 dc d2 d1
 f2 dd d3 d2
 f3 de d4 d3
 f4 df d5 d4
 f5 e0 d6 d5
 f6 e1 d7 d6
 f7 e2 d8 d7
 f8 e3 d9 d8
 f9 e4 da d9
 fa e5 db da
 fb e6 dc db
 fe e9 de dd
 ff ea df de
 100 eb e0 df
 101 ec e1 e0
 102 ed e2 e1
 103 ee e3 e2
 104 ef e4 e3
 105 f0 e5 e4
 106 f1 e6 e5
 107 f2 e7 e6
 108 f3 e8 e7
 109 f4 e9 e8
 10a f5 ea e9
 10b f6 eb ea
 10c f7 ec eb
 10d f8 ed ec
 10e f9 ee ed
 10f fa ef ee
 110 fb f0 ef
 113 fe f2 f1
 114 ff f3 f2
 115 100 f4 f3
 116 101 f5 f4
 117 102 f6 f5
 118 103 f7 f6
 119 104 f8 f7
 11a 105 f9 f8
 11b 106 fa f9
 11c 107 fb fa
 11d 108 fc fb
 11e 109 fd fc
 11f 10a fe fd
 120 10b ff fe
 121 10c 100 ff
 122 10d 101 100
 123 10e 102 101
 124 10f 103 102
 125 110 104 103
 128 113 106 105
 129 114 107 106
 12a 115 108 107
 12b 116 109 108
 12c 117 10a 109
 12d 118 10b 10a
 12e 119 10c 10b
 12f 11a 10d 10c
 130 11b 10e 10d
 131 11c 10f 10e
 132 11d 110 10f
 133 11e 111 110
 134 11f 112 111
 135 120 113 112
 136 121 114 113
 137 122 115 114
 138 123 116 115
 139 124 117 116
 13a 125 118 117
 13d 128 11a 119
 13e 129 11b 11a
 13f 12a 11c 11b
 140 12b 11d 11c
 141 12c 11e 11d
 142 12d 11f 11e
 143 12e 120 11f
 144 12f 121 120
 145 130 122 121
 146 131 123 122
 147 132 124 123
 148 133 125 124
 149 134 126 125
 14a 135 127 126
 14b 136 128 127
 14c 137 129 128
 14d 138 12a 129
 14e 139 12b 12a
 14f 13a 12c 12b
 152 13d 12e 12d
 153 13e 12f 12e
 154 13f 130 12f
 155 140 131 130
 156 141 132 131
 157 142 133 132
 158 143 134 133
 159 144 135 134
 15a 145 136 135
 15b 146 137 136
 15c 147 138 137
 15d 148 139 138
 15e 149 13a 139
 15f 14a 13b 13a
 160 14b 13c 13b
 161 14c 13d 13c
 162 14d 13e 13d
 163 14e 13f 13e
 164 14f 140 13f
 167 152 142 141
 168 153 143 142
 169 154 144 143
 16a 155 145 144
 16b 156 146 145
 16c 157 147 146
 16d 158 148 147
 16e 159 149 148
 16f 15a 14a 149
 170 15b 14b 14a
 171 15c 14c 14b
 172 15d 14d 14c
 173 15e 14e 14d
 174 15f 14f 14e
 175 160 150 14f
 176 161 151 150
 177 162 152 151
 178 163 153 152
 179 164 154 153
 17c 167 156 155
 17d 168 157 156
 17e 169 158 157
 17f 16a 159 158
 180 16b 15a 159
 181 16c 15b 15a
 182 16d 15c 15b
 183 16e 15d 15c
 184 16f 15e 15d
 185 170 15f 15e
 186 171 160 15f
 187 172 161 160
 188 173 162 161
 189 174 163 162
 18a 175 164 163
 18b 176 165 164
 18c 177 166 165
 18d 178 167 166
 18e 179 168 167
 191 17c 16a 169
 192 17d 16b 16a
 193 17e 16c 16b
 194 17f 16d 16c
 195 180 16e 16d
 196 181 16f 16e
 197 182 170 16f
 198 183 171 170
 199 184 172 171
 19a 185 173 172
 19b 186 174 173
 19c 187 175 174
 19d 188 176 175
 19e 189 177 176
 19f 18a 178 177
 1a0 18b 179 178
 1a1 18c 17a 179
 1a2 18d 17b 17a
 1a3 18e 17c 17b
 1a6 191 17e 17d
 1a7 192 17f 17e
 1a8 193 180 17f
 1a9 194 181 180
 1aa 195 182 181
 1ab 196 183 182
 1ac 197 184 183
 1ad 198 185 184
 1ae 199 186 185
 1af 19a 187 186
 1b0 19b 188 187
 1b1 19c 189 188
 1b2 19d 18a 189
 1b3 19e 18b 18a
 1b4 19f 18c 18b
 1b5 1a0 18d 18c
 1b6 1a1 18e 18d
 1b7 1a2 18f 18e
 1b8 1a3 190 18f
 17 16 1 15
 18 17 2 16
 19 18 3 17
 1a 19 4 18
 1b 1a 5 19
 1c 1b 6 1a
 1d 1c 7 1b
 1e 1d 8 1c
 1f 1e 9 1d
 20 1f a 1e
 21 20 b 1f
 22 21 c 20
 23 22 d 21
 24 23 e 22
 25 24 f 23
 26 25 10 24
 27 26 11 25
 28 27 12 26
 29 28 13 27
 2a 29 14 28
 2c 2b 15 29
 2d 2c 16 2a
 2e 2d 17 2b
 2f 2e 18 2c
 30 2f 19 2d
 31 30 1a 2e
 32 31 1b 2f
 33 32 1c 30
 34 33 1d 31
 35 34 1e 32
 36 35 1f 33
 37 36 20 34
 38 37 21 35
 39 38 22 36
 3a 39 23 37
 3b 3a 24 38
 3c 3b 25 39
 3d 3c 26 3a
 3e 3d 27 3b
 3f 3e 28 3c
 41 40 29 3d
 42 41 2a 3e
 43 42 2b 3f
 44 43 2c 40
 45 44 2d 41
 46 45 2e 42
 47 46 2f 43
 48 47 30 44
 49 48 31 45
 4a 49 32 46
 4b 4a 33 47
 4c 4b 34 48
 4d 4c 35 49
 4e 4d 36 4a
 4f 4e 37 4b
 50 4f 38 4c
 51 50 39 4d
 52 51 3a 4e
 53 52 3b 4f
 54 53 3c 50
 56 55 3d 51
 57 56 3e 52
 58 57 3f 53
 59 58 40 54
 5a 59 41 55
 5b 5a 42 56
 5c 5b 43 57
 5d 5c 44 58
 5e 5d 45 59
 5f 5e 46 5a
 60 5f 47 5b
 61 60 48 5c
 62 61 49 5d
 63 62 4a 5e
 64 63 4b 5f
 65 64 4c 60
 66 65 4d 61
 67 66 4e 62
 68 67 4f 63
 69 68 50 64
 6b 6a 51 65
 6c 6b 52 66
 6d 6c 53 67
 6e 6d 54 68
 6f 6e 55 69
 70 6f 56 6a
 71 70 57 6b
 72 71 58 6c
 73 72 59 6d
 74 73 5a 6e
 75 74 5b 6f
 76 75 5c 70
 77 76 5d 71
 78 77 5e 72
 79 78 5f 73
 7a 79 60 74
 7b 7a 61 75
 7c 7b 62 76
 7d 7c 63 77
 7e 7d 64 78
 80 7f 65 79
 81 80 66 7a
 82 81 67 7b
 83 82 68 7c
 84 83 69 7d
 85 84 6a 7e
 86 85 6b 7f
 87 86 6c 80
 88 87 6d 81
 89 88 6e 82
 8a 89 6f 83
 8b 8a 70 84
 8c 8b 71 85
 8d 8c 72 86
 8e 8d 73 87
 8f 8e 74 88
 90 8f 75 89
 91 90 76 8a
 92 91 77 8b
 93 92 78 8c
 95 94 79 8d
 96 95 7a 8e
 97 96 7b 8f
 98 97 7c 90
 99 98 7d 91
 9a 99 7e 92
 9b 9a 7f 93
 9c 9b 80 94
 9d 9c 81 95
 9e 9d 82 96
 9f 9e 83 97
 a0 9f 84 98
 a1 a0 85 99
 a2 a1 86 9a
 a3 a2 87 9b
 a4 a3 88 9c
 a5 a4 89 9d
 a6 a5 8a 9e
 a7 a6 8b 9f
 a8 a7 8c a0
 aa a9 8d a1
 ab aa 8e a2
 ac ab 8f a3
 ad ac 90 a4
 ae ad 91 a5
 af ae 92 a6
 b0 af 93 a7
 b1 b0 94 a8
 b2 b1 95 a9
 b3 b2 96 aa
 b4 b3 97 ab
 b5 b4 98 ac
 b6 b5 99 ad
 b7 b6 9a ae
 b8 b7 9b af
 b9 b8 9c b0
 ba b9 9d b1
 bb ba 9e b2
 bc bb 9f b3
 bd bc a0 b4
 bf be a1 b5
 c0 bf a2 b6
 c1 c0 a3 b7
 c2 c1 a4 b8
 c3 c2 a5 b9
 c4 c3 a6 ba
 c5 c4 a7 bb
 c6 c5 a8 bc
 c7 c6 a9 bd
 c8 c7 aa be
 c9 c8 ab bf
 ca c9 ac c0
 cb ca ad c1
 cc cb ae c2
 cd cc af c3
 ce cd b0 c4
 cf ce b1 c5
 d0 cf b2 c6
 d1 d0 b3 c7
 d2 d1 b4 c8
 d4 d3 b5 c9
 d5 d4 b6 ca
 d6 d5 b7 cb
 d7 d6 b8 cc
 d8 d7 b9 cd
 d9 d8 ba ce
 da d9 bb cf
 db da bc d0
 dc db bd d1
 dd dc be d2
 de dd bf d3
 df de c0 d4
 e0 df c1 d5
 e1 e0 c2 d6
 e2 e1 c3 d7
 e3 e2 c4 d8
 e4 e3 c5 d9
 e5 e4 c6 da
 e6 e5 c7 db
 e7 e6 c8 dc
 e9 e8 c9 dd
 ea e9 ca de
 eb ea cb df
 ec eb cc e0
 ed ec cd e1
 ee ed ce e2
 ef ee cf e3
 f0 ef d0 e4
 f1 f0 d1 e5
 f2 f1 d2 e6
 f3 f2 d3 e7
 f4 f3 d4 e8
 f5 f4 d5 e9
 f6 f5 d6 ea
 f7 f6 d7 eb
 f8 f7 d8 ec
 f9 f8 d9 ed
 fa f9 da ee
 fb fa db ef
 fc fb dc f0
 fe fd dd f1
 ff fe de f2
 100 ff df f3
 101 100 e0 f4
 102 101 e1 f5
 103 102 e2 f6
 104 103 e3 f7
 105 104 e4 f8
 106 105 e5 f9
 107 106 e6 fa
 108 107 e7 fb
 109 108 e8 fc
 10a 109 e9 fd
 10b 10a ea fe
 10c 10b eb ff
 10d 10c ec 100
 10e 10d ed 101
 10f 10e ee 102
 110 10f ef 103
 111 110 f0 104
 113 112 f1 105
 114 113 f2 106
 115 114 f3 107
 116 115 f4 108
 117 116 f5 109
 118 117 f6 10a
 119 118 f7 10b
 11a 119 f8 10c
 11b 11a f9 10d
 11c 11b fa 10e
 11d 11c fb 10f
 11e 11d fc 110
 11f 11e fd 111
 120 11f fe 112
 121 120 ff 113
 122 121 100 114
 123 122 101 115
 124 123 102 116
 125 124 103 117
 126 125 104 118
 128 127 105 119
 129 128 106 11a
 12a 129 107 11b
 12b 12a 108 11c
 12c 12b 109 11d
 12d 12c 10a 11e
 12e 12d 10b 11f
 12f 12e 10c 120
 130 12f 10d 121
 131 130 10e 122
 132 131 10f 123
 133 132 110 124
 134 133 111 125
 135 134 112 126
 136 135 113 127
 137 136 114 128
 138 137 115 129
 139 138 116 12a
 13a 139 117 12b
 13b 13a 118 12c
 13d 13c 119 12d
 13e 13d 11a 12e
 13f 13e 11b 12f
 140 13f 11c 130
 141 140 11d 131
 142 141 11e 132
 143 142 11f 133
 144 143 120 134
 145 144 121 135
 146 145 122 136
 147 146 123 137
 148 147 124 138
 149 148 125 139
 14a 149 126 13a
 14b 14a 127 13b
 14c 14b 128 13c
 14d 14c 129 13d
 14e 14d 12a 13e
 14f 14e 12b 13f
 150 14f 12c 140
 152 151 12d 141
 153 152 12e 142
 154 153 12f 143
 155 154 130 144
 156 155 131 145
 157 156 132 146
 158 157 133 147
 159 158 134 148
 15a 159 135 149
 15b 15a 136 14a
 15c 15b 137 14b
 15d 15c 138 14c
 15e 15d 139 14d
 15f 15e 13a 14e
 160 15f 13b 14f
 161 160 13c 150
 162 161 13d 151
 163 162 13e 152
 164 163 13f 153
 165 164 140 154
 167 166 141 155
 168 167 142 156
 169 168 143 157
 16a 169 144 158
 16b 16a 145 159
 16c 16b 146 15a
 16d 16c 147 15b
 16e 16d 148 15c
 16f 16e 149 15d
 170 16f 14a 15e
 171 170 14b 15f
 172 171 14c 160
 173 172 14d 161
 174 173 14e 162
 175 174 14f 163
 176 175 150 164
 177 176 151 165
 178 177 152 166
 179 178 153 167
 17a 179 154 168
 17c 17b 155 169
 17d 17c 156 16a
 17e 17d 157 16b
 17f 17e 158 16c
 180 17f 159 16d
 181 180 15a 16e
 182 181 15b 16f
 183 182 15c 170
 184 183 15d 171
 185 184 15e 172
 186 185 15f 173
 187 186 160 174
 188 187 161 175
 189 188 162 176
 18a 189 163 177
 18b 18a 164 178
 18c 18b 165 179
 18d 18c 166 17a
 18e 18d 167 17b
 18f 18e 168 17c
 191 190 169 17d
 192 191 16a 17e
 193 192 16b 17f
 194 193 16c 180
 195 194 16d 181
 196 195 16e 182
 197 196 16f 183
 198 197 170 184
 199 198 171 185
 19a 199 172 186
 19b 19a 173 187
 19c 19b 174 188
 19d 19c 175 189
 19e 19d 176 18a
 19f 19e 177 18b
 1a0 19f 178 18c
 1a1 1a0 179 18d
 1a2 1a1 17a 18e
 1a3 1a2 17b 18f
 1a4 1a3 17c 190
))

(13 (3 2f9 30c 3 2)(
 1 2 1 0
 2 3 2 0
 3 4 3 0
 4 5 4 0
 5 6 5 0
 6 7 6 0
 7 8 7 0
 8 9 8 0
 9 a 9 0
 a b a 0
 b c b 0
 c d c 0
 d e d 0
 e f e 0
 f 10 f 0
 10 11 10 0
 11 12 11 0
 12 13 12 0
 13 14 13 0
 14 15 14 0
))

(13 (4 30d 320 3 2)(
 1a6 1a5 17d 0
 1a7 1a6 17e 0
 1a8 1a7 17f 0
 1a9 1a8 180 0
 1aa 1a9 181 0
 1ab 1aa 182 0
 1ac 1ab 183 0
 1ad 1ac 184 0
 1ae 1ad 185 0
 1af 1ae 186 0
 1b0 1af 187 0
 1b1 1b0 188 0
 1b2 1b1 189 0
 1b3 1b2 18a 0
 1b4 1b3 18b 0
 1b5 1b4 18c 0
 1b6 1b5 18d 0
 1b7 1b6 18e 0
 1b8 1b7 18f 0
 1b9 1b8 190 0
))

(13 (5 321 334 3 2)(
 16 1 1 0
 2b 16 15 0
 40 2b 29 0
 55 40 3d 0
 6a 55 51 0
 7f 6a 65 0
 94 7f 79 0
 a9 94 8d 0
 be a9 a1 0
 d3 be b5 0
 e8 d3 c9 0
 fd e8 dd 0
 112 fd f1 0
 127 112 105 0
 13c 127 119 0
 151 13c 12d 0
 166 151 141 0
 17b 166 155 0
 190 17b 169 0
 1a5 190 17d 0
))

(13 (6 335 348 3 2)(
 15 2a 14 0
 2a 3f 28 0
 3f 54 3c 0
 54 69 50 0
 69 7e 64 0
 7e 93 78 0
 93 a8 8c 0
 a8 bd a0 0
 bd d2 b4 0
 d2 e7 c8 0
 e7 fc dc 0
 fc 111 f0 0
 111 126 104 0
 126 13b 118 0
 13b 150 12c 0
 150 165 140 0
 165 17a 154 0
 17a 18f 168 0
 18f 1a4 17c 0
 1a4 1b9 190 0
))

(0 "Zones:")
(45 (2 fluid fluid)())
(45 (8 interior default-interior)())
(45 (3 wall bottom)())
(45 (4 wall top)())
(45 (5 wall left)())
(45 (6 wall right)())
