M48
; DRILL file KiCad 10.0.0 date 2026-04-30T00:37:30
; FORMAT={-:-/ absolute / metric / decimal}
; #@! TF.CreationDate,2026-04-30T00:37:30+08:00
; #@! TF.GenerationSoftware,Kicad,Pcbnew,10.0.0
; #@! TF.FileFunction,MixedPlating,1,4
FMAT,2
METRIC
; #@! TA.AperFunction,Plated,PTH,ViaDrill
T1C0.400
%
G90
G05
T1
X1.0Y-1.0
X1.0Y-5.0
X1.0Y-20.0
X1.0Y-25.0
X1.0Y-40.0
X1.0Y-45.0
X5.0Y-49.0
X6.0Y-1.0
X10.0Y-49.0
X11.0Y-1.0
X15.0Y-49.0
X16.0Y-1.0
X20.0Y-49.0
X21.0Y-1.0
X25.0Y-49.0
X26.0Y-1.0
X30.0Y-49.0
X31.0Y-1.0
X35.0Y-49.0
X36.0Y-1.0
X40.0Y-49.0
X41.0Y-1.0
X45.0Y-49.0
X46.0Y-1.0
X50.0Y-49.0
X51.0Y-1.0
X55.0Y-49.0
X56.0Y-1.0
X60.0Y-49.0
X61.0Y-1.0
X65.0Y-49.0
X66.0Y-1.0
X70.0Y-49.0
X71.0Y-1.0
X75.0Y-49.0
X76.0Y-1.0
X79.0Y-5.0
X79.0Y-10.0
X79.0Y-15.0
X79.0Y-20.0
X79.0Y-25.0
X79.0Y-30.0
X79.0Y-35.0
X79.0Y-40.0
X79.0Y-45.0
M30
