0
SECTION
2
ENTITIES
0
LWPOLYLINE
8
OUTLINE
90
4
70
1
10
-50.000000
20
-17.500000
10
50.000000
20
-17.500000
10
50.000000
20
17.500000
10
-50.000000
20
17.500000
0
LWPOLYLINE
8
WINDOW
90
4
70
1
10
-30.000000
20
-10.000000
10
30.000000
20
-10.000000
10
30.000000
20
10.000000
10
-30.000000
20
10.000000
0
LWPOLYLINE
8
ROUNDED_SLOT
90
26
70
1
10
6.000000
20
-10.000000
10
6.776457
20
-10.102223
10
7.500000
20
-10.401924
10
8.121320
20
-10.878680
10
8.598076
20
-11.500000
10
8.897777
20
-12.223543
10
9.000000
20
-13.000000
10
8.897777
20
-13.776457
10
8.598076
20
-14.500000
10
8.121320
20
-15.121320
10
7.500000
20
-15.598076
10
6.776457
20
-15.897777
10
6.000000
20
-16.000000
10
-6.000000
20
-16.000000
10
-6.776457
20
-15.897777
10
-7.500000
20
-15.598076
10
-8.121320
20
-15.121320
10
-8.598076
20
-14.500000
10
-8.897777
20
-13.776457
10
-9.000000
20
-13.000000
10
-8.897777
20
-12.223543
10
-8.598076
20
-11.500000
10
-8.121320
20
-10.878680
10
-7.500000
20
-10.401924
10
-6.776457
20
-10.102223
10
-6.000000
20
-10.000000
0
LWPOLYLINE
8
ROUNDED_SLOT
90
26
70
1
10
6.000000
20
16.000000
10
6.776457
20
15.897777
10
7.500000
20
15.598076
10
8.121320
20
15.121320
10
8.598076
20
14.500000
10
8.897777
20
13.776457
10
9.000000
20
13.000000
10
8.897777
20
12.223543
10
8.598076
20
11.500000
10
8.121320
20
10.878680
10
7.500000
20
10.401924
10
6.776457
20
10.102223
10
6.000000
20
10.000000
10
-6.000000
20
10.000000
10
-6.776457
20
10.102223
10
-7.500000
20
10.401924
10
-8.121320
20
10.878680
10
-8.598076
20
11.500000
10
-8.897777
20
12.223543
10
-9.000000
20
13.000000
10
-8.897777
20
13.776457
10
-8.598076
20
14.500000
10
-8.121320
20
15.121320
10
-7.500000
20
15.598076
10
-6.776457
20
15.897777
10
-6.000000
20
16.000000
0
CIRCLE
8
HOLE
10
-40.000000
20
0.000000
30
0
40
4.000000
0
CIRCLE
8
HOLE
10
40.000000
20
0.000000
30
0
40
4.000000
0
CIRCLE
8
HOLE
10
-25.000000
20
-13.000000
30
0
40
2.000000
0
CIRCLE
8
HOLE
10
-25.000000
20
13.000000
30
0
40
2.000000
0
CIRCLE
8
HOLE
10
25.000000
20
-13.000000
30
0
40
2.000000
0
CIRCLE
8
HOLE
10
25.000000
20
13.000000
30
0
40
2.000000
0
ENDSEC
0
EOF
