# generated by make_answer.py
o BumpyBall
v 0.000000 1.000000 0.000000
v 0.130526 0.991445 0.000000
v 0.134205 1.028187 0.017668
v 0.133492 1.049744 0.035769
v 0.127373 1.047206 0.052760
v 0.116480 1.021623 0.067250
v 0.102731 0.983567 0.078828
v 0.088323 0.948767 0.088323
v 0.074664 0.931606 0.097303
v 0.061822 0.939176 0.107080
v 0.048787 0.968348 0.117781
v 0.034315 1.007066 0.128065
v 0.017860 1.039328 0.135660
v 0.000000 1.051800 0.138472
v -0.017860 1.039328 0.135660
v -0.034315 1.007066 0.128065
v -0.048787 0.968348 0.117781
v -0.061822 0.939176 0.107080
v -0.074664 0.931606 0.097303
v -0.088323 0.948767 0.088323
v -0.102731 0.983567 0.078828
v -0.116480 1.021623 0.067250
v -0.127373 1.047206 0.052760
v -0.133492 1.049744 0.035769
v -0.134205 1.028187 0.017668
v -0.130526 0.991445 0.000000
v -0.124614 0.954703 -0.016406
v -0.118665 0.933146 -0.031796
v -0.113808 0.935684 -0.047141
v -0.109598 0.961267 -0.063277
v -0.104376 0.999323 -0.080091
v -0.096269 1.034123 -0.096269
v -0.084255 1.051284 -0.109803
v -0.068704 1.043714 -0.118998
v -0.051114 1.014542 -0.123400
v -0.033250 0.975824 -0.124092
v -0.016214 0.943562 -0.123160
v -0.000000 0.931090 -0.122580
v 0.016214 0.943562 -0.123160
v 0.033250 0.975824 -0.124092
v 0.051114 1.014542 -0.123400
v 0.068704 1.043714 -0.118998
v 0.084255 1.051284 -0.109803
v 0.096269 1.034123 -0.096269
v 0.104376 0.999323 -0.080091
v 0.109598 0.961267 -0.063277
v 0.113808 0.935684 -0.047141
v 0.118665 0.933146 -0.031796
v 0.124614 0.954703 -0.016406
v 0.258819 0.965926 0.000000
v 0.271694 1.022724 0.035769
v 0.273325 1.056048 0.073237
v 0.260456 1.052125 0.107885
v 0.234969 1.012576 0.135660
v 0.202746 0.953748 0.155573
v 0.170513 0.899952 0.170513
v 0.142470 0.873423 0.185671
v 0.118584 0.885125 0.205394
v 0.095385 0.930221 0.230279
v 0.068662 0.990074 0.256250
v 0.036371 1.039947 0.276269
v 0.000000 1.059227 0.283819
v -0.036371 1.039947 0.276269
v -0.068662 0.990074 0.256250
v -0.095385 0.930221 0.230279
v -0.118584 0.885125 0.205394
v -0.142470 0.873423 0.185671
v -0.170513 0.899952 0.170513
v -0.202746 0.953748 0.155573
v -0.234969 1.012576 0.135660
v -0.260456 1.052125 0.107885
v -0.273325 1.056048 0.073237
v -0.271694 1.022724 0.035769
v -0.258819 0.965926 0.000000
v -0.241516 0.909128 -0.031796
v -0.226675 0.875804 -0.060737
v -0.217779 0.879727 -0.090207
v -0.213319 0.919275 -0.123160
v -0.207924 0.978104 -0.159546
v -0.195513 1.031900 -0.195513
v -0.172648 1.058429 -0.224999
v -0.140235 1.046727 -0.242894
v -0.102707 1.001631 -0.247956
v -0.065313 0.941778 -0.243750
v -0.031194 0.891905 -0.236941
v -0.000000 0.872625 -0.233819
v 0.031194 0.891905 -0.236941
v 0.065313 0.941778 -0.243750
v 0.102707 1.001631 -0.247956
v 0.140235 1.046727 -0.242894
v 0.172648 1.058429 -0.224999
v 0.195513 1.031900 -0.195513
v 0.207924 0.978104 -0.159546
v 0.213319 0.919275 -0.123160
v 0.217779 0.879727 -0.090207
v 0.226675 0.875804 -0.060737
v 0.241516 0.909128 -0.031796
v 0.382683 0.923880 0.000000
v 0.400748 0.975841 0.052760
v 0.402631 1.006326 0.107885
v 0.383731 1.002738 0.158947
v 0.346723 0.966557 0.200181
v 0.299942 0.912738 0.230154
v 0.252920 0.863524 0.252920
v 0.211624 0.839254 0.275794
v 0.176032 0.849960 0.304897
v 0.141269 0.891215 0.341053
v 0.101414 0.945971 0.378483
v 0.053611 0.991596 0.407219
v 0.000000 1.009235 0.418039
v -0.053611 0.991596 0.407219
v -0.101414 0.945971 0.378483
v -0.141269 0.891215 0.341053
v -0.176032 0.849960 0.304897
v -0.211624 0.839254 0.275794
v -0.252920 0.863524 0.252920
v -0.299942 0.912738 0.230154
v -0.346723 0.966557 0.200181
v -0.383731 1.002738 0.158947
v -0.402631 1.006326 0.107885
v -0.400748 0.975841 0.052760
v -0.382683 0.923880 0.000000
v -0.358071 0.871918 -0.047141
v -0.336657 0.841433 -0.090207
v -0.323376 0.845021 -0.133947
v -0.316104 0.881202 -0.182503
v -0.307264 0.935021 -0.235772
v -0.288276 0.984235 -0.288276
v -0.254302 1.008505 -0.331412
v -0.206651 0.997799 -0.357930
v -0.151624 0.956544 -0.366053
v -0.096677 0.901788 -0.360805
v -0.046289 0.856163 -0.351600
v -0.000000 0.838524 -0.347328
v 0.046289 0.856163 -0.351600
v 0.096677 0.901788 -0.360805
v 0.151624 0.956544 -0.366053
v 0.206651 0.997799 -0.357930
v 0.254302 1.008505 -0.331412
v 0.288276 0.984235 -0.288276
v 0.307264 0.935021 -0.235772
v 0.316104 0.881202 -0.182503
v 0.323376 0.845021 -0.133947
v 0.336657 0.841433 -0.090207
v 0.358071 0.871918 -0.047141
v 0.500000 0.866025 0.000000
v 0.510811 0.892386 0.067250
v 0.506288 0.907851 0.135660
v 0.483279 0.906031 0.200181
v 0.443838 0.887676 0.256250
v 0.394088 0.860373 0.302394
v 0.341053 0.835407 0.341053
v 0.289292 0.823095 0.377013
v 0.239175 0.828525 0.414263
v 0.187681 0.849455 0.453101
v 0.131084 0.877233 0.489213
v 0.067852 0.900379 0.515387
v 0.000000 0.909327 0.525000
v -0.067852 0.900379 0.515387
v -0.131084 0.877233 0.489213
v -0.187681 0.849455 0.453101
v -0.239175 0.828525 0.414263
v -0.289292 0.823095 0.377013
v -0.341053 0.835407 0.341053
v -0.394088 0.860373 0.302394
v -0.443838 0.887676 0.256250
v -0.483279 0.906031 0.200181
v -0.506288 0.907851 0.135660
v -0.510811 0.892386 0.067250
v -0.500000 0.866025 0.000000
v -0.480634 0.839665 -0.063277
v -0.459638 0.824200 -0.123160
v -0.440601 0.826020 -0.182503
v -0.422187 0.844375 -0.243750
v -0.399266 0.871677 -0.306367
v -0.366053 0.896644 -0.366053
v -0.319470 0.908956 -0.416341
v -0.260825 0.903525 -0.451763
v -0.195003 0.882596 -0.470779
v -0.127735 0.854818 -0.476713
v -0.062674 0.831672 -0.476058
v -0.000000 0.822724 -0.475000
v 0.062674 0.831672 -0.476058
v 0.127735 0.854818 -0.476713
v 0.195003 0.882596 -0.470779
v 0.260825 0.903525 -0.451763
v 0.319470 0.908956 -0.416341
v 0.366053 0.896644 -0.366053
v 0.399266 0.871677 -0.306367
v 0.422187 0.844375 -0.243750
v 0.440601 0.826020 -0.182503
v 0.459638 0.824200 -0.123160
v 0.480634 0.839665 -0.063277
v 0.608761 0.793353 0.000000
v 0.598758 0.787049 0.078828
v 0.580605 0.783351 0.155573
v 0.555640 0.783786 0.230154
v 0.523762 0.788176 0.302394
v 0.483786 0.794705 0.371222
v 0.434432 0.800676 0.434432
v 0.375386 0.803620 0.489213
v 0.307821 0.802321 0.533162
v 0.234127 0.797316 0.565232
v 0.157027 0.790673 0.586032
v 0.078636 0.785138 0.597303
v 0.000000 0.782998 0.600815
v -0.078636 0.785138 0.597303
v -0.157027 0.790673 0.586032
v -0.234127 0.797316 0.565232
v -0.307821 0.802321 0.533162
v -0.375386 0.803620 0.489213
v -0.434432 0.800676 0.434432
v -0.483786 0.794705 0.371222
v -0.523762 0.788176 0.302394
v -0.555640 0.783786 0.230154
v -0.580605 0.783351 0.155573
v -0.598758 0.787049 0.078828
v -0.608761 0.793353 0.000000
v -0.608349 0.799657 -0.080091
v -0.595432 0.803356 -0.159546
v -0.569205 0.802920 -0.235772
v -0.530644 0.798531 -0.306367
v -0.482140 0.792002 -0.369959
v -0.426486 0.786031 -0.426486
v -0.365795 0.783087 -0.476713
v -0.300940 0.784385 -0.521243
v -0.231799 0.789391 -0.559613
v -0.158091 0.796033 -0.590005
v -0.080282 0.801569 -0.609803
v -0.000000 0.803709 -0.616707
v 0.080282 0.801569 -0.609803
v 0.158091 0.796033 -0.590005
v 0.231799 0.789391 -0.559613
v 0.300940 0.784385 -0.521243
v 0.365795 0.783087 -0.476713
v 0.426486 0.786031 -0.426486
v 0.482140 0.792002 -0.369959
v 0.530644 0.798531 -0.306367
v 0.569205 0.802920 -0.235772
v 0.595432 0.803356 -0.159546
v 0.608349 0.799657 -0.080091
v 0.707107 0.707107 0.000000
v 0.670880 0.676669 0.088323
v 0.636362 0.658810 0.170513
v 0.610604 0.660913 0.252920
v 0.590722 0.682107 0.341053
v 0.566163 0.713633 0.434432
v 0.525000 0.742462 0.525000
v 0.460637 0.756679 0.600314
v 0.375204 0.750408 0.649872
v 0.277920 0.726241 0.670959
v 0.179663 0.694166 0.670513
v 0.087118 0.667439 0.661729
v 0.000000 0.657107 0.657107
v -0.087118 0.667439 0.661729
v -0.179663 0.694166 0.670513
v -0.277920 0.726241 0.670959
v -0.375204 0.750408 0.649872
v -0.460637 0.756679 0.600314
v -0.525000 0.742462 0.525000
v -0.566163 0.713633 0.434432
v -0.590722 0.682107 0.341053
v -0.610604 0.660913 0.252920
v -0.636362 0.658810 0.170513
v -0.670880 0.676669 0.088323
v -0.707107 0.707107 0.000000
v -0.731235 0.737545 -0.096269
v -0.729663 0.755403 -0.195513
v -0.695959 0.753301 -0.288276
v -0.634023 0.732107 -0.366053
v -0.555808 0.700580 -0.426486
v -0.475000 0.671751 -0.475000
v -0.400282 0.657535 -0.521657
v -0.331903 0.663806 -0.574872
v -0.263276 0.687973 -0.635604
v -0.186362 0.720048 -0.695513
v -0.097474 0.746774 -0.740386
v -0.000000 0.757107 -0.757107
v 0.097474 0.746774 -0.740386
v 0.186362 0.720048 -0.695513
v 0.263276 0.687973 -0.635604
v 0.331903 0.663806 -0.574872
v 0.400282 0.657535 -0.521657
v 0.475000 0.671751 -0.475000
v 0.555808 0.700580 -0.426486
v 0.634023 0.732107 -0.366053
v 0.695959 0.753301 -0.288276
v 0.729663 0.755403 -0.195513
v 0.731235 0.737545 -0.096269
v 0.793353 0.608761 0.000000
v 0.739093 0.572019 0.097303
v 0.692933 0.550463 0.185671
v 0.665825 0.553000 0.275794
v 0.653005 0.578584 0.377013
v 0.637555 0.616639 0.489213
v 0.600314 0.651439 0.600314
v 0.530436 0.668600 0.691278
v 0.430736 0.661031 0.746057
v 0.315122 0.631858 0.760772
v 0.200066 0.593140 0.746656
v 0.095408 0.560878 0.724697
v 0.000000 0.548406 0.714697
v -0.095408 0.560878 0.724697
v -0.200066 0.593140 0.746656
v -0.315122 0.631858 0.760772
v -0.430736 0.661031 0.746057
v -0.530436 0.668600 0.691278
v -0.600314 0.651439 0.600314
v -0.637555 0.616639 0.489213
v -0.653005 0.578584 0.377013
v -0.665825 0.553000 0.275794
v -0.692933 0.550463 0.185671
v -0.739093 0.572019 0.097303
v -0.793353 0.608761 0.000000
v -0.834040 0.645503 -0.109803
v -0.839708 0.667060 -0.224999
v -0.800101 0.664522 -0.331412
v -0.721123 0.638939 -0.416341
v -0.621264 0.600883 -0.476713
v -0.521657 0.566084 -0.521657
v -0.435489 0.548922 -0.567541
v -0.362617 0.556492 -0.628072
v -0.292084 0.585664 -0.705154
v -0.210604 0.624383 -0.785985
v -0.111699 0.656645 -0.848435
v -0.000000 0.669117 -0.872010
v 0.111699 0.656645 -0.848435
v 0.210604 0.624383 -0.785985
v 0.292084 0.585664 -0.705154
v 0.362617 0.556492 -0.628072
v 0.435489 0.548922 -0.567541
v 0.521657 0.566084 -0.521657
v 0.621264 0.600883 -0.476713
v 0.721123 0.638939 -0.416341
v 0.800101 0.664522 -0.331412
v 0.839708 0.667060 -0.224999
v 0.834040 0.645503 -0.109803
v 0.866025 0.500000 0.000000
v 0.813350 0.473640 0.107080
v 0.766540 0.458174 0.205394
v 0.736087 0.459995 0.304897
v 0.717524 0.478349 0.414263
v 0.694831 0.505652 0.533162
v 0.649872 0.530619 0.649872
v 0.572469 0.542931 0.746057
v 0.465489 0.537500 0.806250
v 0.342397 0.516571 0.826620
v 0.219120 0.488793 0.817766
v 0.105272 0.465647 0.799624
v 0.000000 0.456699 0.791025
v -0.105272 0.465647 0.799624
v -0.219120 0.488793 0.817766
v -0.342397 0.516571 0.826620
v -0.465489 0.537500 0.806250
v -0.572469 0.542931 0.746057
v -0.649872 0.530619 0.649872
v -0.694831 0.505652 0.533162
v -0.717524 0.478349 0.414263
v -0.736087 0.459995 0.304897
v -0.766540 0.458174 0.205394
v -0.813350 0.473640 0.107080
v -0.866025 0.500000 0.000000
v -0.903883 0.526360 -0.118998
v -0.906492 0.541826 -0.242894
v -0.864120 0.540005 -0.357930
v -0.782476 0.521651 -0.451763
v -0.679298 0.494348 -0.521243
v -0.574872 0.469381 -0.574872
v -0.481936 0.457069 -0.628072
v -0.400537 0.462500 -0.693750
v -0.320430 0.483429 -0.773587
v -0.229168 0.511207 -0.855266
v -0.120806 0.534353 -0.917609
v -0.000000 0.543301 -0.941025
v 0.120806 0.534353 -0.917609
v 0.229168 0.511207 -0.855266
v 0.320430 0.483429 -0.773587
v 0.400537 0.462500 -0.693750
v 0.481936 0.457069 -0.628072
v 0.574872 0.469381 -0.574872
v 0.679298 0.494348 -0.521243
v 0.782476 0.521651 -0.451763
v 0.864120 0.540005 -0.357930
v 0.906492 0.541826 -0.242894
v 0.903883 0.526360 -0.118998
v 0.923880 0.382683 0.000000
v 0.894637 0.373768 0.117781
v 0.859412 0.368538 0.230279
v 0.823376 0.369154 0.341053
v 0.784794 0.375361 0.453101
v 0.736624 0.384595 0.565232
v 0.670959 0.393039 0.670959
v 0.583761 0.397203 0.760772
v 0.477249 0.395366 0.826620
v 0.358731 0.388288 0.866053
v 0.236749 0.378893 0.883560
v 0.116929 0.371065 0.888166
v 0.000000 0.368039 0.888524
v -0.116929 0.371065 0.888166
v -0.236749 0.378893 0.883560
v -0.358731 0.388288 0.866053
v -0.477249 0.395366 0.826620
v -0.583761 0.397203 0.760772
v -0.670959 0.393039 0.670959
v -0.736624 0.384595 0.565232
v -0.784794 0.375361 0.453101
v -0.823376 0.369154 0.341053
v -0.859412 0.368538 0.230279
v -0.894637 0.373768 0.117781
v -0.923880 0.382683 0.000000
v -0.937314 0.391599 -0.123400
v -0.925386 0.396829 -0.247956
v -0.883731 0.396213 -0.366053
v -0.815412 0.390006 -0.470779
v -0.729302 0.380772 -0.559613
v -0.635604 0.372328 -0.635604
v -0.541083 0.368164 -0.705154
v -0.446630 0.370001 -0.773587
v -0.348376 0.377079 -0.841053
v -0.241486 0.386474 -0.901238
v -0.124252 0.394302 -0.943785
v -0.000000 0.397328 -0.959235
v 0.124252 0.394302 -0.943785
v 0.241486 0.386474 -0.901238
v 0.348376 0.377079 -0.841053
v 0.446630 0.370001 -0.773587
v 0.541083 0.368164 -0.705154
v 0.635604 0.372328 -0.635604
v 0.729302 0.380772 -0.559613
v 0.815412 0.390006 -0.470779
v 0.883731 0.396213 -0.366053
v 0.925386 0.396829 -0.247956
v 0.937314 0.391599 -0.123400
v 0.965926 0.258819 0.000000
v 0.972751 0.262897 0.128065
v 0.956338 0.265290 0.256250
v 0.913738 0.265008 0.378483
v 0.847342 0.262168 0.489213
v 0.763732 0.257945 0.586032
v 0.670513 0.254082 0.670513
v 0.572930 0.252178 0.746656
v 0.472138 0.253018 0.817766
v 0.365983 0.256256 0.883560
v 0.251675 0.260553 0.939263
v 0.128667 0.264134 0.977326
v 0.000000 0.265518 0.990926
v -0.128667 0.264134 0.977326
v -0.251675 0.260553 0.939263
v -0.365983 0.256256 0.883560
v -0.472138 0.253018 0.817766
v -0.572930 0.252178 0.746656
v -0.670513 0.254082 0.670513
v -0.763732 0.257945 0.586032
v -0.847342 0.262168 0.489213
v -0.913738 0.265008 0.378483
v -0.956338 0.265290 0.256250
v -0.972751 0.262897 0.128065
v -0.965926 0.258819 0.000000
v -0.942573 0.254741 -0.124092
v -0.909687 0.252349 -0.243750
v -0.871060 0.252630 -0.360805
v -0.825691 0.255470 -0.476713
v -0.768909 0.259693 -0.590005
v -0.695513 0.263556 -0.695513
v -0.603107 0.265460 -0.785985
v -0.493788 0.264620 -0.855266
v -0.373305 0.261383 -0.901238
v -0.248325 0.257085 -0.926763
v -0.123490 0.253505 -0.937998
v -0.000000 0.252120 -0.940926
v 0.123490 0.253505 -0.937998
v 0.248325 0.257085 -0.926763
v 0.373305 0.261383 -0.901238
v 0.493788 0.264620 -0.855266
v 0.603107 0.265460 -0.785985
v 0.695513 0.263556 -0.695513
v 0.768909 0.259693 -0.590005
v 0.825691 0.255470 -0.476713
v 0.871060 0.252630 -0.360805
v 0.909687 0.252349 -0.243750
v 0.942573 0.254741 -0.124092
v 0.991445 0.130526 0.000000
v 1.030436 0.136830 0.135660
v 1.031050 0.140529 0.276269
v 0.983113 0.140093 0.407219
v 0.892676 0.135704 0.515387
v 0.778421 0.129175 0.597303
v 0.661729 0.123204 0.661729
v 0.556080 0.120259 0.724697
v 0.461663 0.121558 0.799624
v 0.367891 0.126563 0.888166
v 0.261874 0.133206 0.977326
v 0.137555 0.138742 1.044832
v 0.000000 0.140882 1.070101
v -0.137555 0.138742 1.044832
v -0.261874 0.133206 0.977326
v -0.367891 0.126563 0.888166
v -0.461663 0.121558 0.799624
v -0.556080 0.120259 0.724697
v -0.661729 0.123204 0.661729
v -0.778421 0.129175 0.597303
v -0.892676 0.135704 0.515387
v -0.983113 0.140093 0.407219
v -1.031050 0.140529 0.276269
v -1.030436 0.136830 0.135660
v -0.991445 0.130526 0.000000
v -0.935489 0.124222 -0.123160
v -0.884275 0.120524 -0.236941
v -0.848838 0.120959 -0.351600
v -0.824557 0.125349 -0.476058
v -0.794711 0.131878 -0.609803
v -0.740386 0.137849 -0.740386
v -0.651027 0.140793 -0.848435
v -0.529782 0.139494 -0.917609
v -0.390929 0.134489 -0.943785
v -0.251336 0.127846 -0.937998
v -0.121264 0.122311 -0.921094
v -0.000000 0.120171 -0.912788
v 0.121264 0.122311 -0.921094
v 0.251336 0.127846 -0.937998
v 0.390929 0.134489 -0.943785
v 0.529782 0.139494 -0.917609
v 0.651027 0.140793 -0.848435
v 0.740386 0.137849 -0.740386
v 0.794711 0.131878 -0.609803
v 0.824557 0.125349 -0.476058
v 0.848838 0.120959 -0.351600
v 0.884275 0.120524 -0.236941
v 0.935489 0.124222 -0.123160
v 1.000000 0.000000 0.000000
v 1.051800 0.000000 0.138472
v 1.059227 0.000000 0.283819
v 1.009235 0.000000 0.418039
v 0.909327 0.000000 0.525000
v 0.782998 0.000000 0.600815
v 0.657107 0.000000 0.657107
v 0.548406 0.000000 0.714697
v 0.456699 0.000000 0.791025
v 0.368039 0.000000 0.888524
v 0.265518 0.000000 0.990926
v 0.140882 0.000000 1.070101
v 0.000000 0.000000 1.100000
v -0.140882 0.000000 1.070101
v -0.265518 0.000000 0.990926
v -0.368039 0.000000 0.888524
v -0.456699 0.000000 0.791025
v -0.548406 0.000000 0.714697
v -0.657107 0.000000 0.657107
v -0.782998 0.000000 0.600815
v -0.909327 0.000000 0.525000
v -1.009235 0.000000 0.418039
v -1.059227 0.000000 0.283819
v -1.051800 0.000000 0.138472
v -1.000000 0.000000 0.000000
v -0.931090 0.000000 -0.122580
v -0.872625 0.000000 -0.233819
v -0.838524 0.000000 -0.347328
v -0.822724 0.000000 -0.475000
v -0.803709 0.000000 -0.616707
v -0.757107 0.000000 -0.757107
v -0.669117 0.000000 -0.872010
v -0.543301 0.000000 -0.941025
v -0.397328 0.000000 -0.959235
v -0.252120 0.000000 -0.940926
v -0.120171 0.000000 -0.912788
v -0.000000 0.000000 -0.900000
v 0.120171 0.000000 -0.912788
v 0.252120 0.000000 -0.940926
v 0.397328 0.000000 -0.959235
v 0.543301 0.000000 -0.941025
v 0.669117 0.000000 -0.872010
v 0.757107 0.000000 -0.757107
v 0.803709 0.000000 -0.616707
v 0.822724 0.000000 -0.475000
v 0.838524 0.000000 -0.347328
v 0.872625 0.000000 -0.233819
v 0.931090 0.000000 -0.122580
v 0.991445 -0.130526 0.000000
v 1.030436 -0.136830 0.135660
v 1.031050 -0.140529 0.276269
v 0.983113 -0.140093 0.407219
v 0.892676 -0.135704 0.515387
v 0.778421 -0.129175 0.597303
v 0.661729 -0.123204 0.661729
v 0.556080 -0.120259 0.724697
v 0.461663 -0.121558 0.799624
v 0.367891 -0.126563 0.888166
v 0.261874 -0.133206 0.977326
v 0.137555 -0.138742 1.044832
v 0.000000 -0.140882 1.070101
v -0.137555 -0.138742 1.044832
v -0.261874 -0.133206 0.977326
v -0.367891 -0.126563 0.888166
v -0.461663 -0.121558 0.799624
v -0.556080 -0.120259 0.724697
v -0.661729 -0.123204 0.661729
v -0.778421 -0.129175 0.597303
v -0.892676 -0.135704 0.515387
v -0.983113 -0.140093 0.407219
v -1.031050 -0.140529 0.276269
v -1.030436 -0.136830 0.135660
v -0.991445 -0.130526 0.000000
v -0.935489 -0.124222 -0.123160
v -0.884275 -0.120524 -0.236941
v -0.848838 -0.120959 -0.351600
v -0.824557 -0.125349 -0.476058
v -0.794711 -0.131878 -0.609803
v -0.740386 -0.137849 -0.740386
v -0.651027 -0.140793 -0.848435
v -0.529782 -0.139494 -0.917609
v -0.390929 -0.134489 -0.943785
v -0.251336 -0.127846 -0.937998
v -0.121264 -0.122311 -0.921094
v -0.000000 -0.120171 -0.912788
v 0.121264 -0.122311 -0.921094
v 0.251336 -0.127846 -0.937998
v 0.390929 -0.134489 -0.943785
v 0.529782 -0.139494 -0.917609
v 0.651027 -0.140793 -0.848435
v 0.740386 -0.137849 -0.740386
v 0.794711 -0.131878 -0.609803
v 0.824557 -0.125349 -0.476058
v 0.848838 -0.120959 -0.351600
v 0.884275 -0.120524 -0.236941
v 0.935489 -0.124222 -0.123160
v 0.965926 -0.258819 0.000000
v 0.972751 -0.262897 0.128065
v 0.956338 -0.265290 0.256250
v 0.913738 -0.265008 0.378483
v 0.847342 -0.262168 0.489213
v 0.763732 -0.257945 0.586032
v 0.670513 -0.254082 0.670513
v 0.572930 -0.252178 0.746656
v 0.472138 -0.253018 0.817766
v 0.365983 -0.256256 0.883560
v 0.251675 -0.260553 0.939263
v 0.128667 -0.264134 0.977326
v 0.000000 -0.265518 0.990926
v -0.128667 -0.264134 0.977326
v -0.251675 -0.260553 0.939263
v -0.365983 -0.256256 0.883560
v -0.472138 -0.253018 0.817766
v -0.572930 -0.252178 0.746656
v -0.670513 -0.254082 0.670513
v -0.763732 -0.257945 0.586032
v -0.847342 -0.262168 0.489213
v -0.913738 -0.265008 0.378483
v -0.956338 -0.265290 0.256250
v -0.972751 -0.262897 0.128065
v -0.965926 -0.258819 0.000000
v -0.942573 -0.254741 -0.124092
v -0.909687 -0.252349 -0.243750
v -0.871060 -0.252630 -0.360805
v -0.825691 -0.255470 -0.476713
v -0.768909 -0.259693 -0.590005
v -0.695513 -0.263556 -0.695513
v -0.603107 -0.265460 -0.785985
v -0.493788 -0.264620 -0.855266
v -0.373305 -0.261383 -0.901238
v -0.248325 -0.257085 -0.926763
v -0.123490 -0.253505 -0.937998
v -0.000000 -0.252120 -0.940926
v 0.123490 -0.253505 -0.937998
v 0.248325 -0.257085 -0.926763
v 0.373305 -0.261383 -0.901238
v 0.493788 -0.264620 -0.855266
v 0.603107 -0.265460 -0.785985
v 0.695513 -0.263556 -0.695513
v 0.768909 -0.259693 -0.590005
v 0.825691 -0.255470 -0.476713
v 0.871060 -0.252630 -0.360805
v 0.909687 -0.252349 -0.243750
v 0.942573 -0.254741 -0.124092
v 0.923880 -0.382683 0.000000
v 0.894637 -0.373768 0.117781
v 0.859412 -0.368538 0.230279
v 0.823376 -0.369154 0.341053
v 0.784794 -0.375361 0.453101
v 0.736624 -0.384595 0.565232
v 0.670959 -0.393039 0.670959
v 0.583761 -0.397203 0.760772
v 0.477249 -0.395366 0.826620
v 0.358731 -0.388288 0.866053
v 0.236749 -0.378893 0.883560
v 0.116929 -0.371065 0.888166
v 0.000000 -0.368039 0.888524
v -0.116929 -0.371065 0.888166
v -0.236749 -0.378893 0.883560
v -0.358731 -0.388288 0.866053
v -0.477249 -0.395366 0.826620
v -0.583761 -0.397203 0.760772
v -0.670959 -0.393039 0.670959
v -0.736624 -0.384595 0.565232
v -0.784794 -0.375361 0.453101
v -0.823376 -0.369154 0.341053
v -0.859412 -0.368538 0.230279
v -0.894637 -0.373768 0.117781
v -0.923880 -0.382683 0.000000
v -0.937314 -0.391599 -0.123400
v -0.925386 -0.396829 -0.247956
v -0.883731 -0.396213 -0.366053
v -0.815412 -0.390006 -0.470779
v -0.729302 -0.380772 -0.559613
v -0.635604 -0.372328 -0.635604
v -0.541083 -0.368164 -0.705154
v -0.446630 -0.370001 -0.773587
v -0.348376 -0.377079 -0.841053
v -0.241486 -0.386474 -0.901238
v -0.124252 -0.394302 -0.943785
v -0.000000 -0.397328 -0.959235
v 0.124252 -0.394302 -0.943785
v 0.241486 -0.386474 -0.901238
v 0.348376 -0.377079 -0.841053
v 0.446630 -0.370001 -0.773587
v 0.541083 -0.368164 -0.705154
v 0.635604 -0.372328 -0.635604
v 0.729302 -0.380772 -0.559613
v 0.815412 -0.390006 -0.470779
v 0.883731 -0.396213 -0.366053
v 0.925386 -0.396829 -0.247956
v 0.937314 -0.391599 -0.123400
v 0.866025 -0.500000 0.000000
v 0.813350 -0.473640 0.107080
v 0.766540 -0.458174 0.205394
v 0.736087 -0.459995 0.304897
v 0.717524 -0.478349 0.414263
v 0.694831 -0.505652 0.533162
v 0.649872 -0.530619 0.649872
v 0.572469 -0.542931 0.746057
v 0.465489 -0.537500 0.806250
v 0.342397 -0.516571 0.826620
v 0.219120 -0.488793 0.817766
v 0.105272 -0.465647 0.799624
v 0.000000 -0.456699 0.791025
v -0.105272 -0.465647 0.799624
v -0.219120 -0.488793 0.817766
v -0.342397 -0.516571 0.826620
v -0.465489 -0.537500 0.806250
v -0.572469 -0.542931 0.746057
v -0.649872 -0.530619 0.649872
v -0.694831 -0.505652 0.533162
v -0.717524 -0.478349 0.414263
v -0.736087 -0.459995 0.304897
v -0.766540 -0.458174 0.205394
v -0.813350 -0.473640 0.107080
v -0.866025 -0.500000 0.000000
v -0.903883 -0.526360 -0.118998
v -0.906492 -0.541826 -0.242894
v -0.864120 -0.540005 -0.357930
v -0.782476 -0.521651 -0.451763
v -0.679298 -0.494348 -0.521243
v -0.574872 -0.469381 -0.574872
v -0.481936 -0.457069 -0.628072
v -0.400537 -0.462500 -0.693750
v -0.320430 -0.483429 -0.773587
v -0.229168 -0.511207 -0.855266
v -0.120806 -0.534353 -0.917609
v -0.000000 -0.543301 -0.941025
v 0.120806 -0.534353 -0.917609
v 0.229168 -0.511207 -0.855266
v 0.320430 -0.483429 -0.773587
v 0.400537 -0.462500 -0.693750
v 0.481936 -0.457069 -0.628072
v 0.574872 -0.469381 -0.574872
v 0.679298 -0.494348 -0.521243
v 0.782476 -0.521651 -0.451763
v 0.864120 -0.540005 -0.357930
v 0.906492 -0.541826 -0.242894
v 0.903883 -0.526360 -0.118998
v 0.793353 -0.608761 0.000000
v 0.739093 -0.572019 0.097303
v 0.692933 -0.550463 0.185671
v 0.665825 -0.553000 0.275794
v 0.653005 -0.578584 0.377013
v 0.637555 -0.616639 0.489213
v 0.600314 -0.651439 0.600314
v 0.530436 -0.668600 0.691278
v 0.430736 -0.661031 0.746057
v 0.315122 -0.631858 0.760772
v 0.200066 -0.593140 0.746656
v 0.095408 -0.560878 0.724697
v 0.000000 -0.548406 0.714697
v -0.095408 -0.560878 0.724697
v -0.200066 -0.593140 0.746656
v -0.315122 -0.631858 0.760772
v -0.430736 -0.661031 0.746057
v -0.530436 -0.668600 0.691278
v -0.600314 -0.651439 0.600314
v -0.637555 -0.616639 0.489213
v -0.653005 -0.578584 0.377013
v -0.665825 -0.553000 0.275794
v -0.692933 -0.550463 0.185671
v -0.739093 -0.572019 0.097303
v -0.793353 -0.608761 0.000000
v -0.834040 -0.645503 -0.109803
v -0.839708 -0.667060 -0.224999
v -0.800101 -0.664522 -0.331412
v -0.721123 -0.638939 -0.416341
v -0.621264 -0.600883 -0.476713
v -0.521657 -0.566084 -0.521657
v -0.435489 -0.548922 -0.567541
v -0.362617 -0.556492 -0.628072
v -0.292084 -0.585664 -0.705154
v -0.210604 -0.624383 -0.785985
v -0.111699 -0.656645 -0.848435
v -0.000000 -0.669117 -0.872010
v 0.111699 -0.656645 -0.848435
v 0.210604 -0.624383 -0.785985
v 0.292084 -0.585664 -0.705154
v 0.362617 -0.556492 -0.628072
v 0.435489 -0.548922 -0.567541
v 0.521657 -0.566084 -0.521657
v 0.621264 -0.600883 -0.476713
v 0.721123 -0.638939 -0.416341
v 0.800101 -0.664522 -0.331412
v 0.839708 -0.667060 -0.224999
v 0.834040 -0.645503 -0.109803
v 0.707107 -0.707107 0.000000
v 0.670880 -0.676669 0.088323
v 0.636362 -0.658810 0.170513
v 0.610604 -0.660913 0.252920
v 0.590722 -0.682107 0.341053
v 0.566163 -0.713633 0.434432
v 0.525000 -0.742462 0.525000
v 0.460637 -0.756679 0.600314
v 0.375204 -0.750408 0.649872
v 0.277920 -0.726241 0.670959
v 0.179663 -0.694166 0.670513
v 0.087118 -0.667439 0.661729
v 0.000000 -0.657107 0.657107
v -0.087118 -0.667439 0.661729
v -0.179663 -0.694166 0.670513
v -0.277920 -0.726241 0.670959
v -0.375204 -0.750408 0.649872
v -0.460637 -0.756679 0.600314
v -0.525000 -0.742462 0.525000
v -0.566163 -0.713633 0.434432
v -0.590722 -0.682107 0.341053
v -0.610604 -0.660913 0.252920
v -0.636362 -0.658810 0.170513
v -0.670880 -0.676669 0.088323
v -0.707107 -0.707107 0.000000
v -0.731235 -0.737545 -0.096269
v -0.729663 -0.755403 -0.195513
v -0.695959 -0.753301 -0.288276
v -0.634023 -0.732107 -0.366053
v -0.555808 -0.700580 -0.426486
v -0.475000 -0.671751 -0.475000
v -0.400282 -0.657535 -0.521657
v -0.331903 -0.663806 -0.574872
v -0.263276 -0.687973 -0.635604
v -0.186362 -0.720048 -0.695513
v -0.097474 -0.746774 -0.740386
v -0.000000 -0.757107 -0.757107
v 0.097474 -0.746774 -0.740386
v 0.186362 -0.720048 -0.695513
v 0.263276 -0.687973 -0.635604
v 0.331903 -0.663806 -0.574872
v 0.400282 -0.657535 -0.521657
v 0.475000 -0.671751 -0.475000
v 0.555808 -0.700580 -0.426486
v 0.634023 -0.732107 -0.366053
v 0.695959 -0.753301 -0.288276
v 0.729663 -0.755403 -0.195513
v 0.731235 -0.737545 -0.096269
v 0.608761 -0.793353 0.000000
v 0.598758 -0.787049 0.078828
v 0.580605 -0.783351 0.155573
v 0.555640 -0.783786 0.230154
v 0.523762 -0.788176 0.302394
v 0.483786 -0.794705 0.371222
v 0.434432 -0.800676 0.434432
v 0.375386 -0.803620 0.489213
v 0.307821 -0.802321 0.533162
v 0.234127 -0.797316 0.565232
v 0.157027 -0.790673 0.586032
v 0.078636 -0.785138 0.597303
v 0.000000 -0.782998 0.600815
v -0.078636 -0.785138 0.597303
v -0.157027 -0.790673 0.586032
v -0.234127 -0.797316 0.565232
v -0.307821 -0.802321 0.533162
v -0.375386 -0.803620 0.489213
v -0.434432 -0.800676 0.434432
v -0.483786 -0.794705 0.371222
v -0.523762 -0.788176 0.302394
v -0.555640 -0.783786 0.230154
v -0.580605 -0.783351 0.155573
v -0.598758 -0.787049 0.078828
v -0.608761 -0.793353 0.000000
v -0.608349 -0.799657 -0.080091
v -0.595432 -0.803356 -0.159546
v -0.569205 -0.802920 -0.235772
v -0.530644 -0.798531 -0.306367
v -0.482140 -0.792002 -0.369959
v -0.426486 -0.786031 -0.426486
v -0.365795 -0.783087 -0.476713
v -0.300940 -0.784385 -0.521243
v -0.231799 -0.789391 -0.559613
v -0.158091 -0.796033 -0.590005
v -0.080282 -0.801569 -0.609803
v -0.000000 -0.803709 -0.616707
v 0.080282 -0.801569 -0.609803
v 0.158091 -0.796033 -0.590005
v 0.231799 -0.789391 -0.559613
v 0.300940 -0.784385 -0.521243
v 0.365795 -0.783087 -0.476713
v 0.426486 -0.786031 -0.426486
v 0.482140 -0.792002 -0.369959
v 0.530644 -0.798531 -0.306367
v 0.569205 -0.802920 -0.235772
v 0.595432 -0.803356 -0.159546
v 0.608349 -0.799657 -0.080091
v 0.500000 -0.866025 0.000000
v 0.510811 -0.892386 0.067250
v 0.506288 -0.907851 0.135660
v 0.483279 -0.906031 0.200181
v 0.443838 -0.887676 0.256250
v 0.394088 -0.860373 0.302394
v 0.341053 -0.835407 0.341053
v 0.289292 -0.823095 0.377013
v 0.239175 -0.828525 0.414263
v 0.187681 -0.849455 0.453101
v 0.131084 -0.877233 0.489213
v 0.067852 -0.900379 0.515387
v 0.000000 -0.909327 0.525000
v -0.067852 -0.900379 0.515387
v -0.131084 -0.877233 0.489213
v -0.187681 -0.849455 0.453101
v -0.239175 -0.828525 0.414263
v -0.289292 -0.823095 0.377013
v -0.341053 -0.835407 0.341053
v -0.394088 -0.860373 0.302394
v -0.443838 -0.887676 0.256250
v -0.483279 -0.906031 0.200181
v -0.506288 -0.907851 0.135660
v -0.510811 -0.892386 0.067250
v -0.500000 -0.866025 0.000000
v -0.480634 -0.839665 -0.063277
v -0.459638 -0.824200 -0.123160
v -0.440601 -0.826020 -0.182503
v -0.422187 -0.844375 -0.243750
v -0.399266 -0.871677 -0.306367
v -0.366053 -0.896644 -0.366053
v -0.319470 -0.908956 -0.416341
v -0.260825 -0.903525 -0.451763
v -0.195003 -0.882596 -0.470779
v -0.127735 -0.854818 -0.476713
v -0.062674 -0.831672 -0.476058
v -0.000000 -0.822724 -0.475000
v 0.062674 -0.831672 -0.476058
v 0.127735 -0.854818 -0.476713
v 0.195003 -0.882596 -0.470779
v 0.260825 -0.903525 -0.451763
v 0.319470 -0.908956 -0.416341
v 0.366053 -0.896644 -0.366053
v 0.399266 -0.871677 -0.306367
v 0.422187 -0.844375 -0.243750
v 0.440601 -0.826020 -0.182503
v 0.459638 -0.824200 -0.123160
v 0.480634 -0.839665 -0.063277
v 0.382683 -0.923880 0.000000
v 0.400748 -0.975841 0.052760
v 0.402631 -1.006326 0.107885
v 0.383731 -1.002738 0.158947
v 0.346723 -0.966557 0.200181
v 0.299942 -0.912738 0.230154
v 0.252920 -0.863524 0.252920
v 0.211624 -0.839254 0.275794
v 0.176032 -0.849960 0.304897
v 0.141269 -0.891215 0.341053
v 0.101414 -0.945971 0.378483
v 0.053611 -0.991596 0.407219
v 0.000000 -1.009235 0.418039
v -0.053611 -0.991596 0.407219
v -0.101414 -0.945971 0.378483
v -0.141269 -0.891215 0.341053
v -0.176032 -0.849960 0.304897
v -0.211624 -0.839254 0.275794
v -0.252920 -0.863524 0.252920
v -0.299942 -0.912738 0.230154
v -0.346723 -0.966557 0.200181
v -0.383731 -1.002738 0.158947
v -0.402631 -1.006326 0.107885
v -0.400748 -0.975841 0.052760
v -0.382683 -0.923880 0.000000
v -0.358071 -0.871918 -0.047141
v -0.336657 -0.841433 -0.090207
v -0.323376 -0.845021 -0.133947
v -0.316104 -0.881202 -0.182503
v -0.307264 -0.935021 -0.235772
v -0.288276 -0.984235 -0.288276
v -0.254302 -1.008505 -0.331412
v -0.206651 -0.997799 -0.357930
v -0.151624 -0.956544 -0.366053
v -0.096677 -0.901788 -0.360805
v -0.046289 -0.856163 -0.351600
v -0.000000 -0.838524 -0.347328
v 0.046289 -0.856163 -0.351600
v 0.096677 -0.901788 -0.360805
v 0.151624 -0.956544 -0.366053
v 0.206651 -0.997799 -0.357930
v 0.254302 -1.008505 -0.331412
v 0.288276 -0.984235 -0.288276
v 0.307264 -0.935021 -0.235772
v 0.316104 -0.881202 -0.182503
v 0.323376 -0.845021 -0.133947
v 0.336657 -0.841433 -0.090207
v 0.358071 -0.871918 -0.047141
v 0.258819 -0.965926 0.000000
v 0.271694 -1.022724 0.035769
v 0.273325 -1.056048 0.073237
v 0.260456 -1.052125 0.107885
v 0.234969 -1.012576 0.135660
v 0.202746 -0.953748 0.155573
v 0.170513 -0.899952 0.170513
v 0.142470 -0.873423 0.185671
v 0.118584 -0.885125 0.205394
v 0.095385 -0.930221 0.230279
v 0.068662 -0.990074 0.256250
v 0.036371 -1.039947 0.276269
v 0.000000 -1.059227 0.283819
v -0.036371 -1.039947 0.276269
v -0.068662 -0.990074 0.256250
v -0.095385 -0.930221 0.230279
v -0.118584 -0.885125 0.205394
v -0.142470 -0.873423 0.185671
v -0.170513 -0.899952 0.170513
v -0.202746 -0.953748 0.155573
v -0.234969 -1.012576 0.135660
v -0.260456 -1.052125 0.107885
v -0.273325 -1.056048 0.073237
v -0.271694 -1.022724 0.035769
v -0.258819 -0.965926 0.000000
v -0.241516 -0.909128 -0.031796
v -0.226675 -0.875804 -0.060737
v -0.217779 -0.879727 -0.090207
v -0.213319 -0.919275 -0.123160
v -0.207924 -0.978104 -0.159546
v -0.195513 -1.031900 -0.195513
v -0.172648 -1.058429 -0.224999
v -0.140235 -1.046727 -0.242894
v -0.102707 -1.001631 -0.247956
v -0.065313 -0.941778 -0.243750
v -0.031194 -0.891905 -0.236941
v -0.000000 -0.872625 -0.233819
v 0.031194 -0.891905 -0.236941
v 0.065313 -0.941778 -0.243750
v 0.102707 -1.001631 -0.247956
v 0.140235 -1.046727 -0.242894
v 0.172648 -1.058429 -0.224999
v 0.195513 -1.031900 -0.195513
v 0.207924 -0.978104 -0.159546
v 0.213319 -0.919275 -0.123160
v 0.217779 -0.879727 -0.090207
v 0.226675 -0.875804 -0.060737
v 0.241516 -0.909128 -0.031796
v 0.130526 -0.991445 0.000000
v 0.134205 -1.028187 0.017668
v 0.133492 -1.049744 0.035769
v 0.127373 -1.047206 0.052760
v 0.116480 -1.021623 0.067250
v 0.102731 -0.983567 0.078828
v 0.088323 -0.948767 0.088323
v 0.074664 -0.931606 0.097303
v 0.061822 -0.939176 0.107080
v 0.048787 -0.968348 0.117781
v 0.034315 -1.007066 0.128065
v 0.017860 -1.039328 0.135660
v 0.000000 -1.051800 0.138472
v -0.017860 -1.039328 0.135660
v -0.034315 -1.007066 0.128065
v -0.048787 -0.968348 0.117781
v -0.061822 -0.939176 0.107080
v -0.074664 -0.931606 0.097303
v -0.088323 -0.948767 0.088323
v -0.102731 -0.983567 0.078828
v -0.116480 -1.021623 0.067250
v -0.127373 -1.047206 0.052760
v -0.133492 -1.049744 0.035769
v -0.134205 -1.028187 0.017668
v -0.130526 -0.991445 0.000000
v -0.124614 -0.954703 -0.016406
v -0.118665 -0.933146 -0.031796
v -0.113808 -0.935684 -0.047141
v -0.109598 -0.961267 -0.063277
v -0.104376 -0.999323 -0.080091
v -0.096269 -1.034123 -0.096269
v -0.084255 -1.051284 -0.109803
v -0.068704 -1.043714 -0.118998
v -0.051114 -1.014542 -0.123400
v -0.033250 -0.975824 -0.124092
v -0.016214 -0.943562 -0.123160
v -0.000000 -0.931090 -0.122580
v 0.016214 -0.943562 -0.123160
v 0.033250 -0.975824 -0.124092
v 0.051114 -1.014542 -0.123400
v 0.068704 -1.043714 -0.118998
v 0.084255 -1.051284 -0.109803
v 0.096269 -1.034123 -0.096269
v 0.104376 -0.999323 -0.080091
v 0.109598 -0.961267 -0.063277
v 0.113808 -0.935684 -0.047141
v 0.118665 -0.933146 -0.031796
v 0.124614 -0.954703 -0.016406
v 0.000000 -1.000000 0.000000
g default
f 1 3 2
f 1 4 3
f 1 5 4
f 1 6 5
f 1 7 6
f 1 8 7
f 1 9 8
f 1 10 9
f 1 11 10
f 1 12 11
f 1 13 12
f 1 14 13
f 1 15 14
f 1 16 15
f 1 17 16
f 1 18 17
f 1 19 18
f 1 20 19
f 1 21 20
f 1 22 21
f 1 23 22
f 1 24 23
f 1 25 24
f 1 26 25
f 1 27 26
f 1 28 27
f 1 29 28
f 1 30 29
f 1 31 30
f 1 32 31
f 1 33 32
f 1 34 33
f 1 35 34
f 1 36 35
f 1 37 36
f 1 38 37
f 1 39 38
f 1 40 39
f 1 41 40
f 1 42 41
f 1 43 42
f 1 44 43
f 1 45 44
f 1 46 45
f 1 47 46
f 1 48 47
f 1 49 48
f 1 2 49
f 2 3 51 50
f 3 4 52 51
f 4 5 53 52
f 5 6 54 53
f 6 7 55 54
f 7 8 56 55
f 8 9 57 56
f 9 10 58 57
f 10 11 59 58
f 11 12 60 59
f 12 13 61 60
f 13 14 62 61
f 14 15 63 62
f 15 16 64 63
f 16 17 65 64
f 17 18 66 65
f 18 19 67 66
f 19 20 68 67
f 20 21 69 68
f 21 22 70 69
f 22 23 71 70
f 23 24 72 71
f 24 25 73 72
f 25 26 74 73
f 26 27 75 74
f 27 28 76 75
f 28 29 77 76
f 29 30 78 77
f 30 31 79 78
f 31 32 80 79
f 32 33 81 80
f 33 34 82 81
f 34 35 83 82
f 35 36 84 83
f 36 37 85 84
f 37 38 86 85
f 38 39 87 86
f 39 40 88 87
f 40 41 89 88
f 41 42 90 89
f 42 43 91 90
f 43 44 92 91
f 44 45 93 92
f 45 46 94 93
f 46 47 95 94
f 47 48 96 95
f 48 49 97 96
f 49 2 50 97
f 50 51 99 98
f 51 52 100 99
f 52 53 101 100
f 53 54 102 101
f 54 55 103 102
f 55 56 104 103
f 56 57 105 104
f 57 58 106 105
f 58 59 107 106
f 59 60 108 107
f 60 61 109 108
f 61 62 110 109
f 62 63 111 110
f 63 64 112 111
f 64 65 113 112
f 65 66 114 113
f 66 67 115 114
f 67 68 116 115
f 68 69 117 116
f 69 70 118 117
f 70 71 119 118
f 71 72 120 119
f 72 73 121 120
f 73 74 122 121
f 74 75 123 122
f 75 76 124 123
f 76 77 125 124
f 77 78 126 125
f 78 79 127 126
f 79 80 128 127
f 80 81 129 128
f 81 82 130 129
f 82 83 131 130
f 83 84 132 131
f 84 85 133 132
f 85 86 134 133
f 86 87 135 134
f 87 88 136 135
f 88 89 137 136
f 89 90 138 137
f 90 91 139 138
f 91 92 140 139
f 92 93 141 140
f 93 94 142 141
f 94 95 143 142
f 95 96 144 143
f 96 97 145 144
f 97 50 98 145
f 98 99 147 146
f 99 100 148 147
f 100 101 149 148
f 101 102 150 149
f 102 103 151 150
f 103 104 152 151
f 104 105 153 152
f 105 106 154 153
f 106 107 155 154
f 107 108 156 155
f 108 109 157 156
f 109 110 158 157
f 110 111 159 158
f 111 112 160 159
f 112 113 161 160
f 113 114 162 161
f 114 115 163 162
f 115 116 164 163
f 116 117 165 164
f 117 118 166 165
f 118 119 167 166
f 119 120 168 167
f 120 121 169 168
f 121 122 170 169
f 122 123 171 170
f 123 124 172 171
f 124 125 173 172
f 125 126 174 173
f 126 127 175 174
f 127 128 176 175
f 128 129 177 176
f 129 130 178 177
f 130 131 179 178
f 131 132 180 179
f 132 133 181 180
f 133 134 182 181
f 134 135 183 182
f 135 136 184 183
f 136 137 185 184
f 137 138 186 185
f 138 139 187 186
f 139 140 188 187
f 140 141 189 188
f 141 142 190 189
f 142 143 191 190
f 143 144 192 191
f 144 145 193 192
f 145 98 146 193
f 146 147 195 194
f 147 148 196 195
f 148 149 197 196
f 149 150 198 197
f 150 151 199 198
f 151 152 200 199
f 152 153 201 200
f 153 154 202 201
f 154 155 203 202
f 155 156 204 203
f 156 157 205 204
f 157 158 206 205
f 158 159 207 206
f 159 160 208 207
f 160 161 209 208
f 161 162 210 209
f 162 163 211 210
f 163 164 212 211
f 164 165 213 212
f 165 166 214 213
f 166 167 215 214
f 167 168 216 215
f 168 169 217 216
f 169 170 218 217
f 170 171 219 218
f 171 172 220 219
f 172 173 221 220
f 173 174 222 221
f 174 175 223 222
f 175 176 224 223
f 176 177 225 224
f 177 178 226 225
f 178 179 227 226
f 179 180 228 227
f 180 181 229 228
f 181 182 230 229
f 182 183 231 230
f 183 184 232 231
f 184 185 233 232
f 185 186 234 233
f 186 187 235 234
f 187 188 236 235
f 188 189 237 236
f 189 190 238 237
f 190 191 239 238
f 191 192 240 239
f 192 193 241 240
f 193 146 194 241
f 194 195 243 242
f 195 196 244 243
f 196 197 245 244
f 197 198 246 245
f 198 199 247 246
f 199 200 248 247
f 200 201 249 248
f 201 202 250 249
f 202 203 251 250
f 203 204 252 251
f 204 205 253 252
f 205 206 254 253
f 206 207 255 254
f 207 208 256 255
f 208 209 257 256
f 209 210 258 257
f 210 211 259 258
f 211 212 260 259
f 212 213 261 260
f 213 214 262 261
f 214 215 263 262
f 215 216 264 263
f 216 217 265 264
f 217 218 266 265
f 218 219 267 266
f 219 220 268 267
f 220 221 269 268
f 221 222 270 269
f 222 223 271 270
f 223 224 272 271
f 224 225 273 272
f 225 226 274 273
f 226 227 275 274
f 227 228 276 275
f 228 229 277 276
f 229 230 278 277
f 230 231 279 278
f 231 232 280 279
f 232 233 281 280
f 233 234 282 281
f 234 235 283 282
f 235 236 284 283
f 236 237 285 284
f 237 238 286 285
f 238 239 287 286
f 239 240 288 287
f 240 241 289 288
f 241 194 242 289
f 242 243 291 290
f 243 244 292 291
f 244 245 293 292
f 245 246 294 293
f 246 247 295 294
f 247 248 296 295
f 248 249 297 296
f 249 250 298 297
f 250 251 299 298
f 251 252 300 299
f 252 253 301 300
f 253 254 302 301
f 254 255 303 302
f 255 256 304 303
f 256 257 305 304
f 257 258 306 305
f 258 259 307 306
f 259 260 308 307
f 260 261 309 308
f 261 262 310 309
f 262 263 311 310
f 263 264 312 311
f 264 265 313 312
f 265 266 314 313
f 266 267 315 314
f 267 268 316 315
f 268 269 317 316
f 269 270 318 317
f 270 271 319 318
f 271 272 320 319
f 272 273 321 320
f 273 274 322 321
f 274 275 323 322
f 275 276 324 323
f 276 277 325 324
f 277 278 326 325
f 278 279 327 326
f 279 280 328 327
f 280 281 329 328
f 281 282 330 329
f 282 283 331 330
f 283 284 332 331
f 284 285 333 332
f 285 286 334 333
f 286 287 335 334
f 287 288 336 335
f 288 289 337 336
f 289 242 290 337
f 290 291 339 338
f 291 292 340 339
f 292 293 341 340
f 293 294 342 341
f 294 295 343 342
f 295 296 344 343
f 296 297 345 344
f 297 298 346 345
f 298 299 347 346
f 299 300 348 347
f 300 301 349 348
f 301 302 350 349
f 302 303 351 350
f 303 304 352 351
f 304 305 353 352
f 305 306 354 353
f 306 307 355 354
f 307 308 356 355
f 308 309 357 356
f 309 310 358 357
f 310 311 359 358
f 311 312 360 359
f 312 313 361 360
f 313 314 362 361
f 314 315 363 362
f 315 316 364 363
f 316 317 365 364
f 317 318 366 365
f 318 319 367 366
f 319 320 368 367
f 320 321 369 368
f 321 322 370 369
f 322 323 371 370
f 323 324 372 371
f 324 325 373 372
f 325 326 374 373
f 326 327 375 374
f 327 328 376 375
f 328 329 377 376
f 329 330 378 377
f 330 331 379 378
f 331 332 380 379
f 332 333 381 380
f 333 334 382 381
f 334 335 383 382
f 335 336 384 383
f 336 337 385 384
f 337 290 338 385
f 338 339 387 386
f 339 340 388 387
f 340 341 389 388
f 341 342 390 389
f 342 343 391 390
f 343 344 392 391
f 344 345 393 392
f 345 346 394 393
f 346 347 395 394
f 347 348 396 395
f 348 349 397 396
f 349 350 398 397
f 350 351 399 398
f 351 352 400 399
f 352 353 401 400
f 353 354 402 401
f 354 355 403 402
f 355 356 404 403
f 356 357 405 404
f 357 358 406 405
f 358 359 407 406
f 359 360 408 407
f 360 361 409 408
f 361 362 410 409
f 362 363 411 410
f 363 364 412 411
f 364 365 413 412
f 365 366 414 413
f 366 367 415 414
f 367 368 416 415
f 368 369 417 416
f 369 370 418 417
f 370 371 419 418
f 371 372 420 419
f 372 373 421 420
f 373 374 422 421
f 374 375 423 422
f 375 376 424 423
f 376 377 425 424
f 377 378 426 425
f 378 379 427 426
f 379 380 428 427
f 380 381 429 428
f 381 382 430 429
f 382 383 431 430
f 383 384 432 431
f 384 385 433 432
f 385 338 386 433
f 386 387 435 434
f 387 388 436 435
f 388 389 437 436
f 389 390 438 437
f 390 391 439 438
f 391 392 440 439
f 392 393 441 440
f 393 394 442 441
f 394 395 443 442
f 395 396 444 443
f 396 397 445 444
f 397 398 446 445
f 398 399 447 446
f 399 400 448 447
f 400 401 449 448
f 401 402 450 449
f 402 403 451 450
f 403 404 452 451
f 404 405 453 452
f 405 406 454 453
f 406 407 455 454
f 407 408 456 455
f 408 409 457 456
f 409 410 458 457
f 410 411 459 458
f 411 412 460 459
f 412 413 461 460
f 413 414 462 461
f 414 415 463 462
f 415 416 464 463
f 416 417 465 464
f 417 418 466 465
f 418 419 467 466
f 419 420 468 467
f 420 421 469 468
f 421 422 470 469
f 422 423 471 470
f 423 424 472 471
f 424 425 473 472
f 425 426 474 473
f 426 427 475 474
f 427 428 476 475
f 428 429 477 476
f 429 430 478 477
f 430 431 479 478
f 431 432 480 479
f 432 433 481 480
f 433 386 434 481
f 434 435 483 482
f 435 436 484 483
f 436 437 485 484
f 437 438 486 485
f 438 439 487 486
f 439 440 488 487
f 440 441 489 488
f 441 442 490 489
f 442 443 491 490
f 443 444 492 491
f 444 445 493 492
f 445 446 494 493
f 446 447 495 494
f 447 448 496 495
f 448 449 497 496
f 449 450 498 497
f 450 451 499 498
f 451 452 500 499
f 452 453 501 500
f 453 454 502 501
f 454 455 503 502
f 455 456 504 503
f 456 457 505 504
f 457 458 506 505
f 458 459 507 506
f 459 460 508 507
f 460 461 509 508
f 461 462 510 509
f 462 463 511 510
f 463 464 512 511
f 464 465 513 512
f 465 466 514 513
f 466 467 515 514
f 467 468 516 515
f 468 469 517 516
f 469 470 518 517
f 470 471 519 518
f 471 472 520 519
f 472 473 521 520
f 473 474 522 521
f 474 475 523 522
f 475 476 524 523
f 476 477 525 524
f 477 478 526 525
f 478 479 527 526
f 479 480 528 527
f 480 481 529 528
f 481 434 482 529
f 482 483 531 530
f 483 484 532 531
f 484 485 533 532
f 485 486 534 533
f 486 487 535 534
f 487 488 536 535
f 488 489 537 536
f 489 490 538 537
f 490 491 539 538
f 491 492 540 539
f 492 493 541 540
f 493 494 542 541
f 494 495 543 542
f 495 496 544 543
f 496 497 545 544
f 497 498 546 545
f 498 499 547 546
f 499 500 548 547
f 500 501 549 548
f 501 502 550 549
f 502 503 551 550
f 503 504 552 551
f 504 505 553 552
f 505 506 554 553
f 506 507 555 554
f 507 508 556 555
f 508 509 557 556
f 509 510 558 557
f 510 511 559 558
f 511 512 560 559
f 512 513 561 560
f 513 514 562 561
f 514 515 563 562
f 515 516 564 563
f 516 517 565 564
f 517 518 566 565
f 518 519 567 566
f 519 520 568 567
f 520 521 569 568
f 521 522 570 569
f 522 523 571 570
f 523 524 572 571
f 524 525 573 572
f 525 526 574 573
f 526 527 575 574
f 527 528 576 575
f 528 529 577 576
f 529 482 530 577
f 530 531 579 578
f 531 532 580 579
f 532 533 581 580
f 533 534 582 581
f 534 535 583 582
f 535 536 584 583
f 536 537 585 584
f 537 538 586 585
f 538 539 587 586
f 539 540 588 587
f 540 541 589 588
f 541 542 590 589
f 542 543 591 590
f 543 544 592 591
f 544 545 593 592
f 545 546 594 593
f 546 547 595 594
f 547 548 596 595
f 548 549 597 596
f 549 550 598 597
f 550 551 599 598
f 551 552 600 599
f 552 553 601 600
f 553 554 602 601
f 554 555 603 602
f 555 556 604 603
f 556 557 605 604
f 557 558 606 605
f 558 559 607 606
f 559 560 608 607
f 560 561 609 608
f 561 562 610 609
f 562 563 611 610
f 563 564 612 611
f 564 565 613 612
f 565 566 614 613
f 566 567 615 614
f 567 568 616 615
f 568 569 617 616
f 569 570 618 617
f 570 571 619 618
f 571 572 620 619
f 572 573 621 620
f 573 574 622 621
f 574 575 623 622
f 575 576 624 623
f 576 577 625 624
f 577 530 578 625
f 578 579 627 626
f 579 580 628 627
f 580 581 629 628
f 581 582 630 629
f 582 583 631 630
f 583 584 632 631
f 584 585 633 632
f 585 586 634 633
f 586 587 635 634
f 587 588 636 635
f 588 589 637 636
f 589 590 638 637
f 590 591 639 638
f 591 592 640 639
f 592 593 641 640
f 593 594 642 641
f 594 595 643 642
f 595 596 644 643
f 596 597 645 644
f 597 598 646 645
f 598 599 647 646
f 599 600 648 647
f 600 601 649 648
f 601 602 650 649
f 602 603 651 650
f 603 604 652 651
f 604 605 653 652
f 605 606 654 653
f 606 607 655 654
f 607 608 656 655
f 608 609 657 656
f 609 610 658 657
f 610 611 659 658
f 611 612 660 659
f 612 613 661 660
f 613 614 662 661
f 614 615 663 662
f 615 616 664 663
f 616 617 665 664
f 617 618 666 665
f 618 619 667 666
f 619 620 668 667
f 620 621 669 668
f 621 622 670 669
f 622 623 671 670
f 623 624 672 671
f 624 625 673 672
f 625 578 626 673
f 626 627 675 674
f 627 628 676 675
f 628 629 677 676
f 629 630 678 677
f 630 631 679 678
f 631 632 680 679
f 632 633 681 680
f 633 634 682 681
f 634 635 683 682
f 635 636 684 683
f 636 637 685 684
f 637 638 686 685
f 638 639 687 686
f 639 640 688 687
f 640 641 689 688
f 641 642 690 689
f 642 643 691 690
f 643 644 692 691
f 644 645 693 692
f 645 646 694 693
f 646 647 695 694
f 647 648 696 695
f 648 649 697 696
f 649 650 698 697
f 650 651 699 698
f 651 652 700 699
f 652 653 701 700
f 653 654 702 701
f 654 655 703 702
f 655 656 704 703
f 656 657 705 704
f 657 658 706 705
f 658 659 707 706
f 659 660 708 707
f 660 661 709 708
f 661 662 710 709
f 662 663 711 710
f 663 664 712 711
f 664 665 713 712
f 665 666 714 713
f 666 667 715 714
f 667 668 716 715
f 668 669 717 716
f 669 670 718 717
f 670 671 719 718
f 671 672 720 719
f 672 673 721 720
f 673 626 674 721
f 674 675 723 722
f 675 676 724 723
f 676 677 725 724
f 677 678 726 725
f 678 679 727 726
f 679 680 728 727
f 680 681 729 728
f 681 682 730 729
f 682 683 731 730
f 683 684 732 731
f 684 685 733 732
f 685 686 734 733
f 686 687 735 734
f 687 688 736 735
f 688 689 737 736
f 689 690 738 737
f 690 691 739 738
f 691 692 740 739
f 692 693 741 740
f 693 694 742 741
f 694 695 743 742
f 695 696 744 743
f 696 697 745 744
f 697 698 746 745
f 698 699 747 746
f 699 700 748 747
f 700 701 749 748
f 701 702 750 749
f 702 703 751 750
f 703 704 752 751
f 704 705 753 752
f 705 706 754 753
f 706 707 755 754
f 707 708 756 755
f 708 709 757 756
f 709 710 758 757
f 710 711 759 758
f 711 712 760 759
f 712 713 761 760
f 713 714 762 761
f 714 715 763 762
f 715 716 764 763
f 716 717 765 764
f 717 718 766 765
f 718 719 767 766
f 719 720 768 767
f 720 721 769 768
f 721 674 722 769
f 722 723 771 770
f 723 724 772 771
f 724 725 773 772
f 725 726 774 773
f 726 727 775 774
f 727 728 776 775
f 728 729 777 776
f 729 730 778 777
f 730 731 779 778
f 731 732 780 779
f 732 733 781 780
f 733 734 782 781
f 734 735 783 782
f 735 736 784 783
f 736 737 785 784
f 737 738 786 785
f 738 739 787 786
f 739 740 788 787
f 740 741 789 788
f 741 742 790 789
f 742 743 791 790
f 743 744 792 791
f 744 745 793 792
f 745 746 794 793
f 746 747 795 794
f 747 748 796 795
f 748 749 797 796
f 749 750 798 797
f 750 751 799 798
f 751 752 800 799
f 752 753 801 800
f 753 754 802 801
f 754 755 803 802
f 755 756 804 803
f 756 757 805 804
f 757 758 806 805
f 758 759 807 806
f 759 760 808 807
f 760 761 809 808
f 761 762 810 809
f 762 763 811 810
f 763 764 812 811
f 764 765 813 812
f 765 766 814 813
f 766 767 815 814
f 767 768 816 815
f 768 769 817 816
f 769 722 770 817
f 770 771 819 818
f 771 772 820 819
f 772 773 821 820
f 773 774 822 821
f 774 775 823 822
f 775 776 824 823
f 776 777 825 824
f 777 778 826 825
f 778 779 827 826
f 779 780 828 827
f 780 781 829 828
f 781 782 830 829
f 782 783 831 830
f 783 784 832 831
f 784 785 833 832
f 785 786 834 833
f 786 787 835 834
f 787 788 836 835
f 788 789 837 836
f 789 790 838 837
f 790 791 839 838
f 791 792 840 839
f 792 793 841 840
f 793 794 842 841
f 794 795 843 842
f 795 796 844 843
f 796 797 845 844
f 797 798 846 845
f 798 799 847 846
f 799 800 848 847
f 800 801 849 848
f 801 802 850 849
f 802 803 851 850
f 803 804 852 851
f 804 805 853 852
f 805 806 854 853
f 806 807 855 854
f 807 808 856 855
f 808 809 857 856
f 809 810 858 857
f 810 811 859 858
f 811 812 860 859
f 812 813 861 860
f 813 814 862 861
f 814 815 863 862
f 815 816 864 863
f 816 817 865 864
f 817 770 818 865
f 818 819 867 866
f 819 820 868 867
f 820 821 869 868
f 821 822 870 869
f 822 823 871 870
f 823 824 872 871
f 824 825 873 872
f 825 826 874 873
f 826 827 875 874
f 827 828 876 875
f 828 829 877 876
f 829 830 878 877
f 830 831 879 878
f 831 832 880 879
f 832 833 881 880
f 833 834 882 881
f 834 835 883 882
f 835 836 884 883
f 836 837 885 884
f 837 838 886 885
f 838 839 887 886
f 839 840 888 887
f 840 841 889 888
f 841 842 890 889
f 842 843 891 890
f 843 844 892 891
f 844 845 893 892
f 845 846 894 893
f 846 847 895 894
f 847 848 896 895
f 848 849 897 896
f 849 850 898 897
f 850 851 899 898
f 851 852 900 899
f 852 853 901 900
f 853 854 902 901
f 854 855 903 902
f 855 856 904 903
f 856 857 905 904
f 857 858 906 905
f 858 859 907 906
f 859 860 908 907
f 860 861 909 908
f 861 862 910 909
f 862 863 911 910
f 863 864 912 911
f 864 865 913 912
f 865 818 866 913
f 866 867 915 914
f 867 868 916 915
f 868 869 917 916
f 869 870 918 917
f 870 871 919 918
f 871 872 920 919
f 872 873 921 920
f 873 874 922 921
f 874 875 923 922
f 875 876 924 923
f 876 877 925 924
f 877 878 926 925
f 878 879 927 926
f 879 880 928 927
f 880 881 929 928
f 881 882 930 929
f 882 883 931 930
f 883 884 932 931
f 884 885 933 932
f 885 886 934 933
f 886 887 935 934
f 887 888 936 935
f 888 889 937 936
f 889 890 938 937
f 890 891 939 938
f 891 892 940 939
f 892 893 941 940
f 893 894 942 941
f 894 895 943 942
f 895 896 944 943
f 896 897 945 944
f 897 898 946 945
f 898 899 947 946
f 899 900 948 947
f 900 901 949 948
f 901 902 950 949
f 902 903 951 950
f 903 904 952 951
f 904 905 953 952
f 905 906 954 953
f 906 907 955 954
f 907 908 956 955
f 908 909 957 956
f 909 910 958 957
f 910 911 959 958
f 911 912 960 959
f 912 913 961 960
f 913 866 914 961
f 914 915 963 962
f 915 916 964 963
f 916 917 965 964
f 917 918 966 965
f 918 919 967 966
f 919 920 968 967
f 920 921 969 968
f 921 922 970 969
f 922 923 971 970
f 923 924 972 971
f 924 925 973 972
f 925 926 974 973
f 926 927 975 974
f 927 928 976 975
f 928 929 977 976
f 929 930 978 977
f 930 931 979 978
f 931 932 980 979
f 932 933 981 980
f 933 934 982 981
f 934 935 983 982
f 935 936 984 983
f 936 937 985 984
f 937 938 986 985
f 938 939 987 986
f 939 940 988 987
f 940 941 989 988
f 941 942 990 989
f 942 943 991 990
f 943 944 992 991
f 944 945 993 992
f 945 946 994 993
f 946 947 995 994
f 947 948 996 995
f 948 949 997 996
f 949 950 998 997
f 950 951 999 998
f 951 952 1000 999
f 952 953 1001 1000
f 953 954 1002 1001
f 954 955 1003 1002
f 955 956 1004 1003
f 956 957 1005 1004
f 957 958 1006 1005
f 958 959 1007 1006
f 959 960 1008 1007
f 960 961 1009 1008
f 961 914 962 1009
f 962 963 1011 1010
f 963 964 1012 1011
f 964 965 1013 1012
f 965 966 1014 1013
f 966 967 1015 1014
f 967 968 1016 1015
f 968 969 1017 1016
f 969 970 1018 1017
f 970 971 1019 1018
f 971 972 1020 1019
f 972 973 1021 1020
f 973 974 1022 1021
f 974 975 1023 1022
f 975 976 1024 1023
f 976 977 1025 1024
f 977 978 1026 1025
f 978 979 1027 1026
f 979 980 1028 1027
f 980 981 1029 1028
f 981 982 1030 1029
f 982 983 1031 1030
f 983 984 1032 1031
f 984 985 1033 1032
f 985 986 1034 1033
f 986 987 1035 1034
f 987 988 1036 1035
f 988 989 1037 1036
f 989 990 1038 1037
f 990 991 1039 1038
f 991 992 1040 1039
f 992 993 1041 1040
f 993 994 1042 1041
f 994 995 1043 1042
f 995 996 1044 1043
f 996 997 1045 1044
f 997 998 1046 1045
f 998 999 1047 1046
f 999 1000 1048 1047
f 1000 1001 1049 1048
f 1001 1002 1050 1049
f 1002 1003 1051 1050
f 1003 1004 1052 1051
f 1004 1005 1053 1052
f 1005 1006 1054 1053
f 1006 1007 1055 1054
f 1007 1008 1056 1055
f 1008 1009 1057 1056
f 1009 962 1010 1057
f 1010 1011 1059 1058
f 1011 1012 1060 1059
f 1012 1013 1061 1060
f 1013 1014 1062 1061
f 1014 1015 1063 1062
f 1015 1016 1064 1063
f 1016 1017 1065 1064
f 1017 1018 1066 1065
f 1018 1019 1067 1066
f 1019 1020 1068 1067
f 1020 1021 1069 1068
f 1021 1022 1070 1069
f 1022 1023 1071 1070
f 1023 1024 1072 1071
f 1024 1025 1073 1072
f 1025 1026 1074 1073
f 1026 1027 1075 1074
f 1027 1028 1076 1075
f 1028 1029 1077 1076
f 1029 1030 1078 1077
f 1030 1031 1079 1078
f 1031 1032 1080 1079
f 1032 1033 1081 1080
f 1033 1034 1082 1081
f 1034 1035 1083 1082
f 1035 1036 1084 1083
f 1036 1037 1085 1084
f 1037 1038 1086 1085
f 1038 1039 1087 1086
f 1039 1040 1088 1087
f 1040 1041 1089 1088
f 1041 1042 1090 1089
f 1042 1043 1091 1090
f 1043 1044 1092 1091
f 1044 1045 1093 1092
f 1045 1046 1094 1093
f 1046 1047 1095 1094
f 1047 1048 1096 1095
f 1048 1049 1097 1096
f 1049 1050 1098 1097
f 1050 1051 1099 1098
f 1051 1052 1100 1099
f 1052 1053 1101 1100
f 1053 1054 1102 1101
f 1054 1055 1103 1102
f 1055 1056 1104 1103
f 1056 1057 1105 1104
f 1057 1010 1058 1105
f 1106 1058 1059
f 1106 1059 1060
f 1106 1060 1061
f 1106 1061 1062
f 1106 1062 1063
f 1106 1063 1064
f 1106 1064 1065
f 1106 1065 1066
f 1106 1066 1067
f 1106 1067 1068
f 1106 1068 1069
f 1106 1069 1070
f 1106 1070 1071
f 1106 1071 1072
f 1106 1072 1073
f 1106 1073 1074
f 1106 1074 1075
f 1106 1075 1076
f 1106 1076 1077
f 1106 1077 1078
f 1106 1078 1079
f 1106 1079 1080
f 1106 1080 1081
f 1106 1081 1082
f 1106 1082 1083
f 1106 1083 1084
f 1106 1084 1085
f 1106 1085 1086
f 1106 1086 1087
f 1106 1087 1088
f 1106 1088 1089
f 1106 1089 1090
f 1106 1090 1091
f 1106 1091 1092
f 1106 1092 1093
f 1106 1093 1094
f 1106 1094 1095
f 1106 1095 1096
f 1106 1096 1097
f 1106 1097 1098
f 1106 1098 1099
f 1106 1099 1100
f 1106 1100 1101
f 1106 1101 1102
f 1106 1102 1103
f 1106 1103 1104
f 1106 1104 1105
f 1106 1105 1058
