ISO-10303-21;
HEADER;
FILE_DESCRIPTION(('ViewDefinition[DesignTransferView]'),'2;1');
FILE_NAME('result.ifc','2026-06-08T12:13:39+08:00',(''),(''),'IfcOpenShell 0.8.5','Bonsai 0.8.5','Nobody');
FILE_SCHEMA(('IFC4'));
ENDSEC;
DATA;
#1=IFCPROJECT('2uKV9GsaT5pvRJs1N71sRY',$,'Geometry Only Office',$,$,$,$,(#10),#5);
#2=IFCSIUNIT(*,.LENGTHUNIT.,.MILLI.,.METRE.);
#3=IFCSIUNIT(*,.AREAUNIT.,$,.SQUARE_METRE.);
#4=IFCSIUNIT(*,.VOLUMEUNIT.,$,.CUBIC_METRE.);
#5=IFCUNITASSIGNMENT((#3,#4,#2));
#6=IFCCARTESIANPOINT((0.,0.,0.));
#7=IFCDIRECTION((0.,0.,1.));
#8=IFCDIRECTION((1.,0.,0.));
#9=IFCAXIS2PLACEMENT3D(#6,#7,#8);
#10=IFCGEOMETRICREPRESENTATIONCONTEXT($,'Model',3,1.0000000000000001E-05,#9,$);
#11=IFCGEOMETRICREPRESENTATIONSUBCONTEXT('Body','Model',*,*,*,*,#10,$,.MODEL_VIEW.,$);
#12=IFCSITE('01FVCNfZ190hG4b3KcCB3o',$,'Default Site',$,$,$,$,$,$,$,$,$,$,$);
#13=IFCBUILDING('23iCQClxb6rQQ2KSMp9J9B',$,'Default Building',$,$,$,$,$,$,$,$,$);
#14=IFCRELAGGREGATES('0dIvf5roX0DuUF147g0beS',$,$,$,#1,(#12));
#15=IFCRELAGGREGATES('2TG8M7fGr40QMXkeK0NBu$',$,$,$,#12,(#13));
#16=IFCBUILDINGSTOREY('2_4bipH$f6ufSQW4Myo8FN',$,'Ground Floor',$,$,#30,$,$,$,$);
#22=IFCPROPERTYSET('2LNa4g06P1RhsirHvf5cO$',$,'EPset_StoreyMeta',$,(#24));
#23=IFCRELDEFINESBYPROPERTIES('3hTsQ864r4hQvK58lMz7XG',$,$,$,(#16),#22);
#24=IFCPROPERTYSINGLEVALUE('ElevationM',$,IFCREAL(0.),$);
#25=IFCRELAGGREGATES('0ExLNEzUD8uQR48RSgBG7W',$,$,$,#13,(#16));
#26=IFCCARTESIANPOINT((0.,0.,0.));
#27=IFCDIRECTION((0.,0.,1.));
#28=IFCDIRECTION((1.,0.,0.));
#29=IFCAXIS2PLACEMENT3D(#26,#27,#28);
#30=IFCLOCALPLACEMENT($,#29);
#31=IFCSLAB('3l5Fdj28rANgOi6egGptu_',$,'Office Slab',$,$,#49,#38,$,$);
#32=IFCCARTESIANPOINTLIST2D(((0.,0.),(12000.,0.),(12000.,10000.),(0.,10000.),(0.,0.)));
#33=IFCINDEXEDPOLYCURVE(#32,$,$);
#34=IFCDIRECTION((0.,0.,1.));
#35=IFCARBITRARYCLOSEDPROFILEDEF(.AREA.,$,#33);
#36=IFCEXTRUDEDAREASOLID(#35,$,#34,200.);
#37=IFCSHAPEREPRESENTATION(#11,'Body','SweptSolid',(#36));
#38=IFCPRODUCTDEFINITIONSHAPE($,$,(#37));
#44=IFCRELCONTAINEDINSPATIALSTRUCTURE('2CxmohGtD8MRjQ_1k2lvNi',$,$,$,(#120,#492,#213,#89,#182,#576,#408,#58,#151,#244,#294,#31),#16);
#45=IFCCARTESIANPOINT((0.,0.,0.));
#46=IFCDIRECTION((0.,0.,1.));
#47=IFCDIRECTION((1.,0.,0.));
#48=IFCAXIS2PLACEMENT3D(#45,#46,#47);
#49=IFCLOCALPLACEMENT(#30,#48);
#50=IFCPROPERTYSET('28mjm9FZX3ugVK$5CgPYpK',$,'EPset_Plan',$,(#52,#53));
#51=IFCRELDEFINESBYPROPERTIES('3xP3URZ3PD9OIwEXzY5m47',$,$,$,(#31),#50);
#52=IFCPROPERTYSINGLEVALUE('Polygon2D',$,IFCLABEL('0.0000,0.0000;12.0000,0.0000;12.0000,10.0000;0.0000,10.0000'),$);
#53=IFCPROPERTYSINGLEVALUE('Category',$,IFCLABEL('IfcSlab'),$);
#54=IFCELEMENTQUANTITY('2jnEHOTlD2$9FSwSNaN00q',$,'Qto_SlabBaseQuantities',$,'BaseQuantities',(#56,#57));
#55=IFCRELDEFINESBYPROPERTIES('0E5_WgN_13DxwvjYGP9i2b',$,$,$,(#31),#54);
#56=IFCQUANTITYAREA('NetArea',$,$,120.,$);
#57=IFCQUANTITYVOLUME('NetVolume',$,$,24.,$);
#58=IFCWALL('0vyLtPpqn7o8LA_$Rcemtu',$,'Wall-S',$,$,#75,#65,$,$);
#59=IFCCARTESIANPOINTLIST2D(((0.,0.),(12000.,0.),(12000.,200.),(0.,200.),(0.,0.)));
#60=IFCINDEXEDPOLYCURVE(#59,$,$);
#61=IFCDIRECTION((0.,0.,1.));
#62=IFCARBITRARYCLOSEDPROFILEDEF(.AREA.,$,#60);
#63=IFCEXTRUDEDAREASOLID(#62,$,#61,3000.);
#64=IFCSHAPEREPRESENTATION(#11,'Body','SweptSolid',(#63));
#65=IFCPRODUCTDEFINITIONSHAPE($,$,(#64));
#71=IFCCARTESIANPOINT((0.,0.,200.));
#72=IFCDIRECTION((0.,0.,1.));
#73=IFCDIRECTION((1.,0.,0.));
#74=IFCAXIS2PLACEMENT3D(#71,#72,#73);
#75=IFCLOCALPLACEMENT(#30,#74);
#76=IFCPROPERTYSET('27Ms2LhIn1XRm2yXS525AO',$,'EPset_Plan',$,(#78,#79));
#77=IFCRELDEFINESBYPROPERTIES('2sIL2nVKrCbhISxajTDjK3',$,$,$,(#58),#76);
#78=IFCPROPERTYSINGLEVALUE('Polygon2D',$,IFCLABEL('0.0000,0.0000;12.0000,0.0000;12.0000,0.2000;0.0000,0.2000'),$);
#79=IFCPROPERTYSINGLEVALUE('Category',$,IFCLABEL('IfcWall'),$);
#80=IFCPROPERTYSET('3L3XOMDX55kepkgEV7Z6Ag',$,'EPset_WallAxis',$,(#82,#83,#84,#85,#86,#87,#88));
#81=IFCRELDEFINESBYPROPERTIES('3i$f9OACPDJgHkDP8WHEQc',$,$,$,(#58),#80);
#82=IFCPROPERTYSINGLEVALUE('StartX',$,IFCINTEGER(0),$);
#83=IFCPROPERTYSINGLEVALUE('StartY',$,IFCINTEGER(0),$);
#84=IFCPROPERTYSINGLEVALUE('EndX',$,IFCINTEGER(12),$);
#85=IFCPROPERTYSINGLEVALUE('EndY',$,IFCINTEGER(0),$);
#86=IFCPROPERTYSINGLEVALUE('Thickness',$,IFCREAL(0.20000000000000001),$);
#87=IFCPROPERTYSINGLEVALUE('Height',$,IFCREAL(3.),$);
#88=IFCPROPERTYSINGLEVALUE('IsExternal',$,IFCBOOLEAN(.T.),$);
#89=IFCWALL('049E6YbaX1P9_DA5oO1di8',$,'Wall-N',$,$,#106,#96,$,$);
#90=IFCCARTESIANPOINTLIST2D(((0.,9800.),(12000.,9800.),(12000.,10000.),(0.,10000.),(0.,9800.)));
#91=IFCINDEXEDPOLYCURVE(#90,$,$);
#92=IFCDIRECTION((0.,0.,1.));
#93=IFCARBITRARYCLOSEDPROFILEDEF(.AREA.,$,#91);
#94=IFCEXTRUDEDAREASOLID(#93,$,#92,3000.);
#95=IFCSHAPEREPRESENTATION(#11,'Body','SweptSolid',(#94));
#96=IFCPRODUCTDEFINITIONSHAPE($,$,(#95));
#102=IFCCARTESIANPOINT((0.,0.,200.));
#103=IFCDIRECTION((0.,0.,1.));
#104=IFCDIRECTION((1.,0.,0.));
#105=IFCAXIS2PLACEMENT3D(#102,#103,#104);
#106=IFCLOCALPLACEMENT(#30,#105);
#107=IFCPROPERTYSET('1T7WWW8yn0IPQGooq328bS',$,'EPset_Plan',$,(#109,#110));
#108=IFCRELDEFINESBYPROPERTIES('1vfbeFNB1B$wnRAWEM6XE9',$,$,$,(#89),#107);
#109=IFCPROPERTYSINGLEVALUE('Polygon2D',$,IFCLABEL('0.0000,9.8000;12.0000,9.8000;12.0000,10.0000;0.0000,10.0000'),$);
#110=IFCPROPERTYSINGLEVALUE('Category',$,IFCLABEL('IfcWall'),$);
#111=IFCPROPERTYSET('1tjF3HPQj9XwoUdqt80Eqc',$,'EPset_WallAxis',$,(#113,#114,#115,#116,#117,#118,#119));
#112=IFCRELDEFINESBYPROPERTIES('0eRmON_pj8_QC91$OW7wCu',$,$,$,(#89),#111);
#113=IFCPROPERTYSINGLEVALUE('StartX',$,IFCINTEGER(0),$);
#114=IFCPROPERTYSINGLEVALUE('StartY',$,IFCREAL(9.8000000000000007),$);
#115=IFCPROPERTYSINGLEVALUE('EndX',$,IFCINTEGER(12),$);
#116=IFCPROPERTYSINGLEVALUE('EndY',$,IFCREAL(9.8000000000000007),$);
#117=IFCPROPERTYSINGLEVALUE('Thickness',$,IFCREAL(0.20000000000000001),$);
#118=IFCPROPERTYSINGLEVALUE('Height',$,IFCREAL(3.),$);
#119=IFCPROPERTYSINGLEVALUE('IsExternal',$,IFCBOOLEAN(.T.),$);
#120=IFCWALL('0WshdyWxrCRfU1irmedqJ2',$,'Wall-W',$,$,#137,#127,$,$);
#121=IFCCARTESIANPOINTLIST2D(((0.,0.),(6.1232339957367665E-13,10000.),(-199.9999999999994,10000.),(-200.,1.2246467991473532E-14),(0.,0.)));
#122=IFCINDEXEDPOLYCURVE(#121,$,$);
#123=IFCDIRECTION((0.,0.,1.));
#124=IFCARBITRARYCLOSEDPROFILEDEF(.AREA.,$,#122);
#125=IFCEXTRUDEDAREASOLID(#124,$,#123,3000.);
#126=IFCSHAPEREPRESENTATION(#11,'Body','SweptSolid',(#125));
#127=IFCPRODUCTDEFINITIONSHAPE($,$,(#126));
#133=IFCCARTESIANPOINT((0.,0.,200.));
#134=IFCDIRECTION((0.,0.,1.));
#135=IFCDIRECTION((1.,0.,0.));
#136=IFCAXIS2PLACEMENT3D(#133,#134,#135);
#137=IFCLOCALPLACEMENT(#30,#136);
#138=IFCPROPERTYSET('3jzhDzTd51Xg4tBHtvc5a_',$,'EPset_Plan',$,(#140,#141));
#139=IFCRELDEFINESBYPROPERTIES('0BBMFOnbP1uOjhXV2rxfYh',$,$,$,(#120),#138);
#140=IFCPROPERTYSINGLEVALUE('Polygon2D',$,IFCLABEL('0.0000,0.0000;0.0000,10.0000;-0.2000,10.0000;-0.2000,0.0000'),$);
#141=IFCPROPERTYSINGLEVALUE('Category',$,IFCLABEL('IfcWall'),$);
#142=IFCPROPERTYSET('3I0MlEQbz3zAQPeSF2n_86',$,'EPset_WallAxis',$,(#144,#145,#146,#147,#148,#149,#150));
#143=IFCRELDEFINESBYPROPERTIES('0FJ95fgCP1a8qfnhJRVRdd',$,$,$,(#120),#142);
#144=IFCPROPERTYSINGLEVALUE('StartX',$,IFCINTEGER(0),$);
#145=IFCPROPERTYSINGLEVALUE('StartY',$,IFCINTEGER(0),$);
#146=IFCPROPERTYSINGLEVALUE('EndX',$,IFCINTEGER(0),$);
#147=IFCPROPERTYSINGLEVALUE('EndY',$,IFCINTEGER(10),$);
#148=IFCPROPERTYSINGLEVALUE('Thickness',$,IFCREAL(0.20000000000000001),$);
#149=IFCPROPERTYSINGLEVALUE('Height',$,IFCREAL(3.),$);
#150=IFCPROPERTYSINGLEVALUE('IsExternal',$,IFCBOOLEAN(.T.),$);
#151=IFCWALL('2OfNl$liH7Txhu_z2KhIKB',$,'Wall-E',$,$,#168,#158,$,$);
#152=IFCCARTESIANPOINTLIST2D(((11800.,0.),(11800.,10000.),(11600.000000000002,10000.),(11600.000000000002,1.2246467991473532E-14),(11800.,0.)));
#153=IFCINDEXEDPOLYCURVE(#152,$,$);
#154=IFCDIRECTION((0.,0.,1.));
#155=IFCARBITRARYCLOSEDPROFILEDEF(.AREA.,$,#153);
#156=IFCEXTRUDEDAREASOLID(#155,$,#154,3000.);
#157=IFCSHAPEREPRESENTATION(#11,'Body','SweptSolid',(#156));
#158=IFCPRODUCTDEFINITIONSHAPE($,$,(#157));
#164=IFCCARTESIANPOINT((0.,0.,200.));
#165=IFCDIRECTION((0.,0.,1.));
#166=IFCDIRECTION((1.,0.,0.));
#167=IFCAXIS2PLACEMENT3D(#164,#165,#166);
#168=IFCLOCALPLACEMENT(#30,#167);
#169=IFCPROPERTYSET('1H03F9ygTCSwZE3VV1ine_',$,'EPset_Plan',$,(#171,#172));
#170=IFCRELDEFINESBYPROPERTIES('32f9w0NL9Fju0qj0LF8E$w',$,$,$,(#151),#169);
#171=IFCPROPERTYSINGLEVALUE('Polygon2D',$,IFCLABEL('11.8000,0.0000;11.8000,10.0000;11.6000,10.0000;11.6000,0.0000'),$);
#172=IFCPROPERTYSINGLEVALUE('Category',$,IFCLABEL('IfcWall'),$);
#173=IFCPROPERTYSET('26amuHMFT8EBAFRTd22XKx',$,'EPset_WallAxis',$,(#175,#176,#177,#178,#179,#180,#181));
#174=IFCRELDEFINESBYPROPERTIES('2NnV1nYZD7u9VrOkTfU8IV',$,$,$,(#151),#173);
#175=IFCPROPERTYSINGLEVALUE('StartX',$,IFCREAL(11.800000000000001),$);
#176=IFCPROPERTYSINGLEVALUE('StartY',$,IFCINTEGER(0),$);
#177=IFCPROPERTYSINGLEVALUE('EndX',$,IFCREAL(11.800000000000001),$);
#178=IFCPROPERTYSINGLEVALUE('EndY',$,IFCINTEGER(10),$);
#179=IFCPROPERTYSINGLEVALUE('Thickness',$,IFCREAL(0.20000000000000001),$);
#180=IFCPROPERTYSINGLEVALUE('Height',$,IFCREAL(3.),$);
#181=IFCPROPERTYSINGLEVALUE('IsExternal',$,IFCBOOLEAN(.T.),$);
#182=IFCWALL('1L4gLK6if2GwkqPMxrt5_R',$,'Part-1',$,$,#199,#189,$,$);
#183=IFCCARTESIANPOINTLIST2D(((4000.,200.),(4000.0000000000009,9800.),(3800.0000000000005,9800.),(3799.9999999999995,200.),(4000.,200.)));
#184=IFCINDEXEDPOLYCURVE(#183,$,$);
#185=IFCDIRECTION((0.,0.,1.));
#186=IFCARBITRARYCLOSEDPROFILEDEF(.AREA.,$,#184);
#187=IFCEXTRUDEDAREASOLID(#186,$,#185,3000.);
#188=IFCSHAPEREPRESENTATION(#11,'Body','SweptSolid',(#187));
#189=IFCPRODUCTDEFINITIONSHAPE($,$,(#188));
#195=IFCCARTESIANPOINT((0.,0.,200.));
#196=IFCDIRECTION((0.,0.,1.));
#197=IFCDIRECTION((1.,0.,0.));
#198=IFCAXIS2PLACEMENT3D(#195,#196,#197);
#199=IFCLOCALPLACEMENT(#30,#198);
#200=IFCPROPERTYSET('2OdOxjAYj5W9fWXQXaB_dX',$,'EPset_Plan',$,(#202,#203));
#201=IFCRELDEFINESBYPROPERTIES('383nedTz1BIfikaXFPBLiM',$,$,$,(#182),#200);
#202=IFCPROPERTYSINGLEVALUE('Polygon2D',$,IFCLABEL('4.0000,0.2000;4.0000,9.8000;3.8000,9.8000;3.8000,0.2000'),$);
#203=IFCPROPERTYSINGLEVALUE('Category',$,IFCLABEL('IfcWall'),$);
#204=IFCPROPERTYSET('2MHpc$4s5Dr84uP5VUGudg',$,'EPset_WallAxis',$,(#206,#207,#208,#209,#210,#211,#212));
#205=IFCRELDEFINESBYPROPERTIES('1dEcND249D5wJ87FissaEC',$,$,$,(#182),#204);
#206=IFCPROPERTYSINGLEVALUE('StartX',$,IFCREAL(4.),$);
#207=IFCPROPERTYSINGLEVALUE('StartY',$,IFCREAL(0.20000000000000001),$);
#208=IFCPROPERTYSINGLEVALUE('EndX',$,IFCREAL(4.),$);
#209=IFCPROPERTYSINGLEVALUE('EndY',$,IFCREAL(9.8000000000000007),$);
#210=IFCPROPERTYSINGLEVALUE('Thickness',$,IFCREAL(0.20000000000000001),$);
#211=IFCPROPERTYSINGLEVALUE('Height',$,IFCREAL(3.),$);
#212=IFCPROPERTYSINGLEVALUE('IsExternal',$,IFCBOOLEAN(.F.),$);
#213=IFCWALL('2ePYIUi69BvvIRCn24LPiL',$,'Part-2',$,$,#230,#220,$,$);
#214=IFCCARTESIANPOINTLIST2D(((8000.,200.),(8000.,9800.),(7800.0000000000009,9800.),(7800.,200.),(8000.,200.)));
#215=IFCINDEXEDPOLYCURVE(#214,$,$);
#216=IFCDIRECTION((0.,0.,1.));
#217=IFCARBITRARYCLOSEDPROFILEDEF(.AREA.,$,#215);
#218=IFCEXTRUDEDAREASOLID(#217,$,#216,3000.);
#219=IFCSHAPEREPRESENTATION(#11,'Body','SweptSolid',(#218));
#220=IFCPRODUCTDEFINITIONSHAPE($,$,(#219));
#226=IFCCARTESIANPOINT((0.,0.,200.));
#227=IFCDIRECTION((0.,0.,1.));
#228=IFCDIRECTION((1.,0.,0.));
#229=IFCAXIS2PLACEMENT3D(#226,#227,#228);
#230=IFCLOCALPLACEMENT(#30,#229);
#231=IFCPROPERTYSET('0HKuSNrGL21f8fJE7Oq2sj',$,'EPset_Plan',$,(#233,#234));
#232=IFCRELDEFINESBYPROPERTIES('0NpbzpP_PEdhlg8ppK3NT3',$,$,$,(#213),#231);
#233=IFCPROPERTYSINGLEVALUE('Polygon2D',$,IFCLABEL('8.0000,0.2000;8.0000,9.8000;7.8000,9.8000;7.8000,0.2000'),$);
#234=IFCPROPERTYSINGLEVALUE('Category',$,IFCLABEL('IfcWall'),$);
#235=IFCPROPERTYSET('3qd9Xhmmf27exs_GvTQt1b',$,'EPset_WallAxis',$,(#237,#238,#239,#240,#241,#242,#243));
#236=IFCRELDEFINESBYPROPERTIES('0i_InIuwP01v634bVrLyh0',$,$,$,(#213),#235);
#237=IFCPROPERTYSINGLEVALUE('StartX',$,IFCREAL(8.),$);
#238=IFCPROPERTYSINGLEVALUE('StartY',$,IFCREAL(0.20000000000000001),$);
#239=IFCPROPERTYSINGLEVALUE('EndX',$,IFCREAL(8.),$);
#240=IFCPROPERTYSINGLEVALUE('EndY',$,IFCREAL(9.8000000000000007),$);
#241=IFCPROPERTYSINGLEVALUE('Thickness',$,IFCREAL(0.20000000000000001),$);
#242=IFCPROPERTYSINGLEVALUE('Height',$,IFCREAL(3.),$);
#243=IFCPROPERTYSINGLEVALUE('IsExternal',$,IFCBOOLEAN(.F.),$);
#244=IFCWALL('01aqjV6XjAwQCoz_8b7B$H',$,'Part-3',$,$,#261,#251,$,$);
#245=IFCCARTESIANPOINTLIST2D(((8000.,5000.),(11800.,5000.),(11800.,5200.),(8000.,5200.),(8000.,5000.)));
#246=IFCINDEXEDPOLYCURVE(#245,$,$);
#247=IFCDIRECTION((0.,0.,1.));
#248=IFCARBITRARYCLOSEDPROFILEDEF(.AREA.,$,#246);
#249=IFCEXTRUDEDAREASOLID(#248,$,#247,3000.);
#250=IFCSHAPEREPRESENTATION(#11,'Body','SweptSolid',(#249));
#251=IFCPRODUCTDEFINITIONSHAPE($,$,(#250));
#257=IFCCARTESIANPOINT((0.,0.,200.));
#258=IFCDIRECTION((0.,0.,1.));
#259=IFCDIRECTION((1.,0.,0.));
#260=IFCAXIS2PLACEMENT3D(#257,#258,#259);
#261=IFCLOCALPLACEMENT(#30,#260);
#262=IFCPROPERTYSET('2UyrB$cBP149E_gMJOejI9',$,'EPset_Plan',$,(#264,#265));
#263=IFCRELDEFINESBYPROPERTIES('2$z1i__E576fCtKb$WqQKS',$,$,$,(#244),#262);
#264=IFCPROPERTYSINGLEVALUE('Polygon2D',$,IFCLABEL('8.0000,5.0000;11.8000,5.0000;11.8000,5.2000;8.0000,5.2000'),$);
#265=IFCPROPERTYSINGLEVALUE('Category',$,IFCLABEL('IfcWall'),$);
#266=IFCPROPERTYSET('160FoYnNj3FxGpfLO_3mL8',$,'EPset_WallAxis',$,(#268,#269,#270,#271,#272,#273,#274));
#267=IFCRELDEFINESBYPROPERTIES('254mSqXvfESfV1qj9lIP8$',$,$,$,(#244),#266);
#268=IFCPROPERTYSINGLEVALUE('StartX',$,IFCREAL(8.),$);
#269=IFCPROPERTYSINGLEVALUE('StartY',$,IFCREAL(5.),$);
#270=IFCPROPERTYSINGLEVALUE('EndX',$,IFCREAL(11.800000000000001),$);
#271=IFCPROPERTYSINGLEVALUE('EndY',$,IFCREAL(5.),$);
#272=IFCPROPERTYSINGLEVALUE('Thickness',$,IFCREAL(0.20000000000000001),$);
#273=IFCPROPERTYSINGLEVALUE('Height',$,IFCREAL(3.),$);
#274=IFCPROPERTYSINGLEVALUE('IsExternal',$,IFCBOOLEAN(.F.),$);
#275=IFCOPENINGELEMENT('0bDiX7xxvDCBlnO2QWQg0B',$,'Entry Door-Opening',$,$,#293,#282,$,$);
#276=IFCCARTESIANPOINTLIST2D(((1200.,0.),(2300.,0.),(2300.,200.),(1200.,200.),(1200.,0.)));
#277=IFCINDEXEDPOLYCURVE(#276,$,$);
#278=IFCDIRECTION((0.,0.,1.));
#279=IFCARBITRARYCLOSEDPROFILEDEF(.AREA.,$,#277);
#280=IFCEXTRUDEDAREASOLID(#279,$,#278,2100.);
#281=IFCSHAPEREPRESENTATION(#11,'Body','SweptSolid',(#280));
#282=IFCPRODUCTDEFINITIONSHAPE($,$,(#281));
#288=IFCRELVOIDSELEMENT('3U57kHHp5CB9nyGe$WzeGB',$,$,$,#58,#275);
#289=IFCCARTESIANPOINT((0.,0.,0.));
#290=IFCDIRECTION((0.,0.,1.));
#291=IFCDIRECTION((1.,0.,0.));
#292=IFCAXIS2PLACEMENT3D(#289,#290,#291);
#293=IFCLOCALPLACEMENT(#75,#292);
#294=IFCDOOR('0gSxFBRIrElOduouNg6nKf',$,'Entry Door',$,$,#378,#368,$,$,$,$,$,$);
#295=IFCCARTESIANPOINTLIST2D(((0.,0.),(0.,2.1000000000000001),(1.1000000000000001,2.1000000000000001),(1.1000000000000001,0.),(-23.899999999999999,0.),(-23.899999999999999,-22.899999999999999),(25.,-22.899999999999999),(25.,0.)));
#296=IFCINDEXEDPOLYCURVE(#295,(IFCLINEINDEX((1,2,3,4,5,6,7,8,1))),$);
#297=IFCARBITRARYCLOSEDPROFILEDEF(.AREA.,$,#296);
#298=IFCCARTESIANPOINT((0.,25.,0.));
#299=IFCDIRECTION((0.,-1.,0.));
#300=IFCDIRECTION((1.,0.,0.));
#301=IFCAXIS2PLACEMENT3D(#298,#299,#300);
#302=IFCDIRECTION((0.,0.,-1.));
#303=IFCEXTRUDEDAREASOLID(#297,#301,#302,25.);
#304=IFCCARTESIANPOINTLIST2D(((0.,0.),(0.,2.1000000000000001),(1.1000000000000001,2.1000000000000001),(1.1000000000000001,0.),(-48.899999999999999,0.),(-48.899999999999999,-47.899999999999999),(50.,-47.899999999999999),(50.,0.)));
#305=IFCINDEXEDPOLYCURVE(#304,(IFCLINEINDEX((1,2,3,4,5,6,7,8,1))),$);
#306=IFCARBITRARYCLOSEDPROFILEDEF(.AREA.,$,#305);
#307=IFCCARTESIANPOINT((0.,0.,0.));
#308=IFCDIRECTION((0.,-1.,0.));
#309=IFCDIRECTION((1.,0.,0.));
#310=IFCAXIS2PLACEMENT3D(#307,#308,#309);
#311=IFCDIRECTION((0.,0.,-1.));
#312=IFCEXTRUDEDAREASOLID(#306,#310,#311,25.);
#313=IFCCARTESIANPOINTLIST2D(((0.,0.),(-98.900000000000006,0.),(-98.900000000000006,100.),(0.,100.)));
#314=IFCINDEXEDPOLYCURVE(#313,(IFCLINEINDEX((1,2,3,4,1))),$);
#315=IFCARBITRARYCLOSEDPROFILEDEF(.AREA.,$,#314);
#316=IFCCARTESIANPOINT((50.,0.,0.));
#317=IFCDIRECTION((0.,0.,1.));
#318=IFCDIRECTION((1.,0.,0.));
#319=IFCAXIS2PLACEMENT3D(#316,#317,#318);
#320=IFCDIRECTION((0.,0.,1.));
#321=IFCEXTRUDEDAREASOLID(#315,#319,#320,25.);
#322=IFCCARTESIANPOINTLIST2D(((0.,0.),(0.,27.100000000000001),(51.100000000000001,27.100000000000001),(51.100000000000001,0.),(-23.899999999999999,0.),(-23.899999999999999,-47.899999999999999),(75.,-47.899999999999999),(75.,0.)));
#323=IFCINDEXEDPOLYCURVE(#322,(IFCLINEINDEX((1,2,3,4,5,6,7,8,1))),$);
#324=IFCARBITRARYCLOSEDPROFILEDEF(.AREA.,$,#323);
#325=IFCCARTESIANPOINT((-25.,-5.,0.));
#326=IFCDIRECTION((0.,-1.,0.));
#327=IFCDIRECTION((1.,0.,0.));
#328=IFCAXIS2PLACEMENT3D(#325,#326,#327);
#329=IFCDIRECTION((0.,0.,-1.));
#330=IFCEXTRUDEDAREASOLID(#324,#328,#329,5.);
#331=IFCCARTESIANPOINTLIST2D(((0.,0.),(0.,27.100000000000001),(51.100000000000001,27.100000000000001),(51.100000000000001,0.),(1.1000000000000014,0.),(1.1000000000000014,-22.899999999999999),(50.,-22.899999999999999),(50.,0.)));
#332=IFCINDEXEDPOLYCURVE(#331,(IFCLINEINDEX((1,2,3,4,5,6,7,8,1))),$);
#333=IFCARBITRARYCLOSEDPROFILEDEF(.AREA.,$,#332);
#334=IFCCARTESIANPOINT((-25.,50.,0.));
#335=IFCDIRECTION((0.,-1.,0.));
#336=IFCDIRECTION((1.,0.,0.));
#337=IFCAXIS2PLACEMENT3D(#334,#335,#336);
#338=IFCDIRECTION((0.,0.,-1.));
#339=IFCEXTRUDEDAREASOLID(#333,#337,#338,5.);
#340=IFCCARTESIANPOINTLIST2D(((0.,0.),(-48.899999999999999,0.),(-48.899999999999999,35.),(0.,35.)));
#341=IFCINDEXEDPOLYCURVE(#340,(IFCLINEINDEX((1,2,3,4,1))),$);
#342=IFCARBITRARYCLOSEDPROFILEDEF(.AREA.,$,#341);
#343=IFCCARTESIANPOINT((25.,25.,25.));
#344=IFCDIRECTION((0.,0.,1.));
#345=IFCDIRECTION((1.,0.,0.));
#346=IFCAXIS2PLACEMENT3D(#343,#344,#345);
#347=IFCDIRECTION((0.,0.,1.));
#348=IFCEXTRUDEDAREASOLID(#342,#346,#347,-47.899999999999999);
#349=IFCCARTESIANPOINTLIST2D(((0.,0.),(0.,-40.),(-119.99999999999997,-40.),(-119.99999999999997,-20.),(-20.,-20.),(-20.,0.)));
#350=IFCINDEXEDPOLYCURVE(#349,(IFCLINEINDEX((1,2,3,4,5,6,1))),$);
#351=IFCARBITRARYCLOSEDPROFILEDEF(.AREA.,$,#350);
#352=IFCCARTESIANPOINT((-73.900000000000006,25.,1015.));
#353=IFCDIRECTION((0.,0.,1.));
#354=IFCDIRECTION((1.,0.,0.));
#355=IFCAXIS2PLACEMENT3D(#352,#353,#354);
#356=IFCDIRECTION((0.,0.,1.));
#357=IFCEXTRUDEDAREASOLID(#351,#355,#356,20.);
#358=IFCEXTRUDEDAREASOLID(#359,#362,#366,20.);
#359=IFCARBITRARYCLOSEDPROFILEDEF(.AREA.,$,#360);
#360=IFCINDEXEDPOLYCURVE(#361,(IFCLINEINDEX((1,2,3,4,5,6,1))),$);
#361=IFCCARTESIANPOINTLIST2D(((0.,0.),(0.,40.),(-119.99999999999997,40.),(-119.99999999999997,20.),(-20.,20.),(-20.,0.)));
#362=IFCAXIS2PLACEMENT3D(#363,#364,#365);
#363=IFCCARTESIANPOINT((-73.900000000000006,60.,1015.));
#364=IFCDIRECTION((0.,0.,1.));
#365=IFCDIRECTION((1.,0.,0.));
#366=IFCDIRECTION((0.,0.,1.));
#367=IFCSHAPEREPRESENTATION(#11,'Body','SweptSolid',(#303,#312,#348,#357,#358,#321,#330,#339));
#368=IFCPRODUCTDEFINITIONSHAPE($,$,(#367));
#374=IFCCARTESIANPOINT((1200.,0.,200.));
#375=IFCDIRECTION((0.,0.,1.));
#376=IFCDIRECTION((1.,0.,0.));
#377=IFCAXIS2PLACEMENT3D(#374,#375,#376);
#378=IFCLOCALPLACEMENT(#30,#377);
#379=IFCRELFILLSELEMENT('1WU$7CLMzE_u3rd8mvQVkC',$,$,$,#275,#294);
#380=IFCPROPERTYSET('2eqPoqlRL2a8PTNZy8Yv_V',$,'EPset_Plan',$,(#382,#383));
#381=IFCRELDEFINESBYPROPERTIES('1i9rDrqnX6P9nGaq0Rj3qL',$,$,$,(#294),#380);
#382=IFCPROPERTYSINGLEVALUE('Polygon2D',$,IFCLABEL('1.2000,0.0000;2.3000,0.0000;2.3000,0.2000;1.2000,0.2000'),$);
#383=IFCPROPERTYSINGLEVALUE('Category',$,IFCLABEL('IfcDoor'),$);
#384=IFCPROPERTYSET('3elnRSqx968e6uAEDMmxKK',$,'EPset_OpeningMeta',$,(#386,#387,#388));
#385=IFCRELDEFINESBYPROPERTIES('0eVVr9QXT9gg4m_bkB2pzm',$,$,$,(#294),#384);
#386=IFCPROPERTYSINGLEVALUE('Width',$,IFCREAL(1.1000000000000001),$);
#387=IFCPROPERTYSINGLEVALUE('Height',$,IFCREAL(2.1000000000000001),$);
#388=IFCPROPERTYSINGLEVALUE('HostWall',$,IFCLABEL('Wall-S'),$);
#389=IFCOPENINGELEMENT('0Yx5I_GCH0heFJpar6QfaE',$,'Win A-Opening',$,$,#407,#396,$,$);
#390=IFCCARTESIANPOINTLIST2D(((1200.,9800.),(2599.9999999999995,9800.),(2599.9999999999995,10000.),(1200.,10000.),(1200.,9800.)));
#391=IFCINDEXEDPOLYCURVE(#390,$,$);
#392=IFCDIRECTION((0.,0.,1.));
#393=IFCARBITRARYCLOSEDPROFILEDEF(.AREA.,$,#391);
#394=IFCEXTRUDEDAREASOLID(#393,$,#392,1200.);
#395=IFCSHAPEREPRESENTATION(#11,'Body','SweptSolid',(#394));
#396=IFCPRODUCTDEFINITIONSHAPE($,$,(#395));
#402=IFCRELVOIDSELEMENT('29jbSZ7BvF9Oi7wxAOZ9e1',$,$,$,#89,#389);
#403=IFCCARTESIANPOINT((0.,0.,900.00000000000011));
#404=IFCDIRECTION((0.,0.,1.));
#405=IFCDIRECTION((1.,0.,0.));
#406=IFCAXIS2PLACEMENT3D(#403,#404,#405);
#407=IFCLOCALPLACEMENT(#106,#406);
#408=IFCWINDOW('17oJ$yQkz33goLBhULuSxO',$,'Win A',$,$,#462,#452,$,$,$,$,$,$);
#409=IFCCARTESIANPOINTLIST2D(((0.,0.),(1.3999999999999999,0.),(1.3999999999999999,1.2),(0.,1.2)));
#410=IFCINDEXEDPOLYCURVE(#409,(IFCLINEINDEX((1,2,3,4,1))),$);
#411=IFCCARTESIANPOINTLIST2D(((25.,25.),(-23.600000000000001,25.),(-23.600000000000001,-23.799999999999997),(25.,-23.799999999999997)));
#412=IFCINDEXEDPOLYCURVE(#411,(IFCLINEINDEX((1,2,3,4,1))),$);
#413=IFCARBITRARYPROFILEDEFWITHVOIDS(.AREA.,$,#410,(#412));
#414=IFCCARTESIANPOINT((0.,90.,0.));
#415=IFCDIRECTION((0.,-1.,0.));
#416=IFCDIRECTION((1.,0.,0.));
#417=IFCAXIS2PLACEMENT3D(#414,#415,#416);
#418=IFCDIRECTION((0.,0.,-1.));
#419=IFCEXTRUDEDAREASOLID(#413,#417,#418,10.);
#420=IFCCARTESIANPOINTLIST2D(((0.,0.),(1.3999999999999999,0.),(1.3999999999999999,1.2),(0.,1.2)));
#421=IFCINDEXEDPOLYCURVE(#420,(IFCLINEINDEX((1,2,3,4,1))),$);
#422=IFCCARTESIANPOINTLIST2D(((50.,50.),(-48.599999999999994,50.),(-48.599999999999994,-48.799999999999997),(50.,-48.799999999999997)));
#423=IFCINDEXEDPOLYCURVE(#422,(IFCLINEINDEX((1,2,3,4,1))),$);
#424=IFCARBITRARYPROFILEDEFWITHVOIDS(.AREA.,$,#421,(#423));
#425=IFCCARTESIANPOINT((0.,50.,0.));
#426=IFCDIRECTION((0.,-1.,0.));
#427=IFCDIRECTION((1.,0.,0.));
#428=IFCAXIS2PLACEMENT3D(#425,#426,#427);
#429=IFCDIRECTION((0.,0.,-1.));
#430=IFCEXTRUDEDAREASOLID(#424,#428,#429,40.);
#431=IFCCARTESIANPOINTLIST2D(((0.,0.),(-48.600000000000001,0.),(-48.600000000000001,-48.799999999999997),(0.,-48.799999999999997)));
#432=IFCINDEXEDPOLYCURVE(#431,(IFCLINEINDEX((1,2,3,4,1))),$);
#433=IFCCARTESIANPOINTLIST2D(((35.,35.),(-83.599999999999994,35.),(-83.599999999999994,-83.799999999999997),(35.,-83.799999999999997)));
#434=IFCINDEXEDPOLYCURVE(#433,(IFCLINEINDEX((1,2,3,4,1))),$);
#435=IFCARBITRARYPROFILEDEFWITHVOIDS(.AREA.,$,#432,(#434));
#436=IFCCARTESIANPOINT((25.,90.,25.));
#437=IFCDIRECTION((0.,-1.,0.));
#438=IFCDIRECTION((1.,0.,0.));
#439=IFCAXIS2PLACEMENT3D(#436,#437,#438);
#440=IFCDIRECTION((0.,0.,-1.));
#441=IFCEXTRUDEDAREASOLID(#435,#439,#440,35.);
#442=IFCINDEXEDPOLYCURVE(#443,(IFCLINEINDEX((1,2,3,4,1))),$);
#443=IFCCARTESIANPOINTLIST2D(((35.,35.),(-83.599999999999994,35.),(-83.599999999999994,-83.799999999999997),(35.,-83.799999999999997)));
#444=IFCARBITRARYCLOSEDPROFILEDEF(.AREA.,$,#442);
#445=IFCCARTESIANPOINT((25.,102.5,25.));
#446=IFCDIRECTION((0.,-1.,0.));
#447=IFCDIRECTION((1.,0.,0.));
#448=IFCAXIS2PLACEMENT3D(#445,#446,#447);
#449=IFCDIRECTION((0.,0.,-1.));
#450=IFCEXTRUDEDAREASOLID(#444,#448,#449,10.);
#451=IFCSHAPEREPRESENTATION(#11,'Body','SweptSolid',(#419,#430,#441,#450));
#452=IFCPRODUCTDEFINITIONSHAPE($,$,(#451));
#458=IFCCARTESIANPOINT((1200.,9800.,1100.));
#459=IFCDIRECTION((0.,0.,1.));
#460=IFCDIRECTION((1.,0.,0.));
#461=IFCAXIS2PLACEMENT3D(#458,#459,#460);
#462=IFCLOCALPLACEMENT(#30,#461);
#463=IFCRELFILLSELEMENT('1qedDxmmXFJOBpW3juuJjZ',$,$,$,#389,#408);
#464=IFCPROPERTYSET('1Bw8yiELL4ZvX_$PrTp5RB',$,'EPset_Plan',$,(#466,#467));
#465=IFCRELDEFINESBYPROPERTIES('2XChyq8Lr5UeoU5xcHwOLE',$,$,$,(#408),#464);
#466=IFCPROPERTYSINGLEVALUE('Polygon2D',$,IFCLABEL('1.2000,9.8000;2.6000,9.8000;2.6000,10.0000;1.2000,10.0000'),$);
#467=IFCPROPERTYSINGLEVALUE('Category',$,IFCLABEL('IfcWindow'),$);
#468=IFCPROPERTYSET('3dN$N9zBf5N9t87iDMHFf_',$,'EPset_OpeningMeta',$,(#470,#471,#472));
#469=IFCRELDEFINESBYPROPERTIES('1Nj89e0Qj3j8mM_C_k6ijj',$,$,$,(#408),#468);
#470=IFCPROPERTYSINGLEVALUE('Width',$,IFCREAL(1.3999999999999999),$);
#471=IFCPROPERTYSINGLEVALUE('Height',$,IFCREAL(1.2),$);
#472=IFCPROPERTYSINGLEVALUE('HostWall',$,IFCLABEL('Wall-N'),$);
#473=IFCOPENINGELEMENT('2RIqaA72DCW98FSU9FMXyZ',$,'Win B-Opening',$,$,#491,#480,$,$);
#474=IFCCARTESIANPOINTLIST2D(((5000.,9800.),(6400.,9800.),(6400.,10000.),(5000.,10000.),(5000.,9800.)));
#475=IFCINDEXEDPOLYCURVE(#474,$,$);
#476=IFCDIRECTION((0.,0.,1.));
#477=IFCARBITRARYCLOSEDPROFILEDEF(.AREA.,$,#475);
#478=IFCEXTRUDEDAREASOLID(#477,$,#476,1200.);
#479=IFCSHAPEREPRESENTATION(#11,'Body','SweptSolid',(#478));
#480=IFCPRODUCTDEFINITIONSHAPE($,$,(#479));
#486=IFCRELVOIDSELEMENT('1HoZBcWvvDKglVSNBFuDix',$,$,$,#89,#473);
#487=IFCCARTESIANPOINT((0.,0.,900.00000000000011));
#488=IFCDIRECTION((0.,0.,1.));
#489=IFCDIRECTION((1.,0.,0.));
#490=IFCAXIS2PLACEMENT3D(#487,#488,#489);
#491=IFCLOCALPLACEMENT(#106,#490);
#492=IFCWINDOW('3IFJD1hJP0AQKhI61InfHf',$,'Win B',$,$,#546,#536,$,$,$,$,$,$);
#493=IFCCARTESIANPOINTLIST2D(((0.,0.),(1.3999999999999999,0.),(1.3999999999999999,1.2),(0.,1.2)));
#494=IFCINDEXEDPOLYCURVE(#493,(IFCLINEINDEX((1,2,3,4,1))),$);
#495=IFCCARTESIANPOINTLIST2D(((25.,25.),(-23.600000000000001,25.),(-23.600000000000001,-23.799999999999997),(25.,-23.799999999999997)));
#496=IFCINDEXEDPOLYCURVE(#495,(IFCLINEINDEX((1,2,3,4,1))),$);
#497=IFCARBITRARYPROFILEDEFWITHVOIDS(.AREA.,$,#494,(#496));
#498=IFCCARTESIANPOINT((0.,90.,0.));
#499=IFCDIRECTION((0.,-1.,0.));
#500=IFCDIRECTION((1.,0.,0.));
#501=IFCAXIS2PLACEMENT3D(#498,#499,#500);
#502=IFCDIRECTION((0.,0.,-1.));
#503=IFCEXTRUDEDAREASOLID(#497,#501,#502,10.);
#504=IFCCARTESIANPOINTLIST2D(((0.,0.),(1.3999999999999999,0.),(1.3999999999999999,1.2),(0.,1.2)));
#505=IFCINDEXEDPOLYCURVE(#504,(IFCLINEINDEX((1,2,3,4,1))),$);
#506=IFCCARTESIANPOINTLIST2D(((50.,50.),(-48.599999999999994,50.),(-48.599999999999994,-48.799999999999997),(50.,-48.799999999999997)));
#507=IFCINDEXEDPOLYCURVE(#506,(IFCLINEINDEX((1,2,3,4,1))),$);
#508=IFCARBITRARYPROFILEDEFWITHVOIDS(.AREA.,$,#505,(#507));
#509=IFCCARTESIANPOINT((0.,50.,0.));
#510=IFCDIRECTION((0.,-1.,0.));
#511=IFCDIRECTION((1.,0.,0.));
#512=IFCAXIS2PLACEMENT3D(#509,#510,#511);
#513=IFCDIRECTION((0.,0.,-1.));
#514=IFCEXTRUDEDAREASOLID(#508,#512,#513,40.);
#515=IFCCARTESIANPOINTLIST2D(((0.,0.),(-48.600000000000001,0.),(-48.600000000000001,-48.799999999999997),(0.,-48.799999999999997)));
#516=IFCINDEXEDPOLYCURVE(#515,(IFCLINEINDEX((1,2,3,4,1))),$);
#517=IFCCARTESIANPOINTLIST2D(((35.,35.),(-83.599999999999994,35.),(-83.599999999999994,-83.799999999999997),(35.,-83.799999999999997)));
#518=IFCINDEXEDPOLYCURVE(#517,(IFCLINEINDEX((1,2,3,4,1))),$);
#519=IFCARBITRARYPROFILEDEFWITHVOIDS(.AREA.,$,#516,(#518));
#520=IFCCARTESIANPOINT((25.,90.,25.));
#521=IFCDIRECTION((0.,-1.,0.));
#522=IFCDIRECTION((1.,0.,0.));
#523=IFCAXIS2PLACEMENT3D(#520,#521,#522);
#524=IFCDIRECTION((0.,0.,-1.));
#525=IFCEXTRUDEDAREASOLID(#519,#523,#524,35.);
#526=IFCINDEXEDPOLYCURVE(#527,(IFCLINEINDEX((1,2,3,4,1))),$);
#527=IFCCARTESIANPOINTLIST2D(((35.,35.),(-83.599999999999994,35.),(-83.599999999999994,-83.799999999999997),(35.,-83.799999999999997)));
#528=IFCARBITRARYCLOSEDPROFILEDEF(.AREA.,$,#526);
#529=IFCCARTESIANPOINT((25.,102.5,25.));
#530=IFCDIRECTION((0.,-1.,0.));
#531=IFCDIRECTION((1.,0.,0.));
#532=IFCAXIS2PLACEMENT3D(#529,#530,#531);
#533=IFCDIRECTION((0.,0.,-1.));
#534=IFCEXTRUDEDAREASOLID(#528,#532,#533,10.);
#535=IFCSHAPEREPRESENTATION(#11,'Body','SweptSolid',(#503,#514,#525,#534));
#536=IFCPRODUCTDEFINITIONSHAPE($,$,(#535));
#542=IFCCARTESIANPOINT((5000.,9800.,1100.));
#543=IFCDIRECTION((0.,0.,1.));
#544=IFCDIRECTION((1.,0.,0.));
#545=IFCAXIS2PLACEMENT3D(#542,#543,#544);
#546=IFCLOCALPLACEMENT(#30,#545);
#547=IFCRELFILLSELEMENT('0YE74a$sX3bxwQtRFaqlKM',$,$,$,#473,#492);
#548=IFCPROPERTYSET('18peoSfvn2iBYUIomipr2B',$,'EPset_Plan',$,(#550,#551));
#549=IFCRELDEFINESBYPROPERTIES('0EyxOAfm99qOeCPLTxtjMX',$,$,$,(#492),#548);
#550=IFCPROPERTYSINGLEVALUE('Polygon2D',$,IFCLABEL('5.0000,9.8000;6.4000,9.8000;6.4000,10.0000;5.0000,10.0000'),$);
#551=IFCPROPERTYSINGLEVALUE('Category',$,IFCLABEL('IfcWindow'),$);
#552=IFCPROPERTYSET('2iVSZS4jz5Lgd8MvsQ33W3',$,'EPset_OpeningMeta',$,(#554,#555,#556));
#553=IFCRELDEFINESBYPROPERTIES('0ZOXilJtb6ZQ09ahuzUwWc',$,$,$,(#492),#552);
#554=IFCPROPERTYSINGLEVALUE('Width',$,IFCREAL(1.3999999999999999),$);
#555=IFCPROPERTYSINGLEVALUE('Height',$,IFCREAL(1.2),$);
#556=IFCPROPERTYSINGLEVALUE('HostWall',$,IFCLABEL('Wall-N'),$);
#557=IFCOPENINGELEMENT('0iDLH6plT8gO5mj8$wypAK',$,'Win C-Opening',$,$,#575,#564,$,$);
#558=IFCCARTESIANPOINTLIST2D(((9200.,9800.),(10600.,9800.),(10600.,10000.),(9200.,10000.),(9200.,9800.)));
#559=IFCINDEXEDPOLYCURVE(#558,$,$);
#560=IFCDIRECTION((0.,0.,1.));
#561=IFCARBITRARYCLOSEDPROFILEDEF(.AREA.,$,#559);
#562=IFCEXTRUDEDAREASOLID(#561,$,#560,1200.);
#563=IFCSHAPEREPRESENTATION(#11,'Body','SweptSolid',(#562));
#564=IFCPRODUCTDEFINITIONSHAPE($,$,(#563));
#570=IFCRELVOIDSELEMENT('25nCSdQGz2RODymyGSfqqp',$,$,$,#89,#557);
#571=IFCCARTESIANPOINT((0.,0.,900.00000000000011));
#572=IFCDIRECTION((0.,0.,1.));
#573=IFCDIRECTION((1.,0.,0.));
#574=IFCAXIS2PLACEMENT3D(#571,#572,#573);
#575=IFCLOCALPLACEMENT(#106,#574);
#576=IFCWINDOW('3lAqKOnHP4EeX8ec1OB6EO',$,'Win C',$,$,#630,#620,$,$,$,$,$,$);
#577=IFCCARTESIANPOINTLIST2D(((0.,0.),(1.3999999999999999,0.),(1.3999999999999999,1.2),(0.,1.2)));
#578=IFCINDEXEDPOLYCURVE(#577,(IFCLINEINDEX((1,2,3,4,1))),$);
#579=IFCCARTESIANPOINTLIST2D(((25.,25.),(-23.600000000000001,25.),(-23.600000000000001,-23.799999999999997),(25.,-23.799999999999997)));
#580=IFCINDEXEDPOLYCURVE(#579,(IFCLINEINDEX((1,2,3,4,1))),$);
#581=IFCARBITRARYPROFILEDEFWITHVOIDS(.AREA.,$,#578,(#580));
#582=IFCCARTESIANPOINT((0.,90.,0.));
#583=IFCDIRECTION((0.,-1.,0.));
#584=IFCDIRECTION((1.,0.,0.));
#585=IFCAXIS2PLACEMENT3D(#582,#583,#584);
#586=IFCDIRECTION((0.,0.,-1.));
#587=IFCEXTRUDEDAREASOLID(#581,#585,#586,10.);
#588=IFCCARTESIANPOINTLIST2D(((0.,0.),(1.3999999999999999,0.),(1.3999999999999999,1.2),(0.,1.2)));
#589=IFCINDEXEDPOLYCURVE(#588,(IFCLINEINDEX((1,2,3,4,1))),$);
#590=IFCCARTESIANPOINTLIST2D(((50.,50.),(-48.599999999999994,50.),(-48.599999999999994,-48.799999999999997),(50.,-48.799999999999997)));
#591=IFCINDEXEDPOLYCURVE(#590,(IFCLINEINDEX((1,2,3,4,1))),$);
#592=IFCARBITRARYPROFILEDEFWITHVOIDS(.AREA.,$,#589,(#591));
#593=IFCCARTESIANPOINT((0.,50.,0.));
#594=IFCDIRECTION((0.,-1.,0.));
#595=IFCDIRECTION((1.,0.,0.));
#596=IFCAXIS2PLACEMENT3D(#593,#594,#595);
#597=IFCDIRECTION((0.,0.,-1.));
#598=IFCEXTRUDEDAREASOLID(#592,#596,#597,40.);
#599=IFCCARTESIANPOINTLIST2D(((0.,0.),(-48.600000000000001,0.),(-48.600000000000001,-48.799999999999997),(0.,-48.799999999999997)));
#600=IFCINDEXEDPOLYCURVE(#599,(IFCLINEINDEX((1,2,3,4,1))),$);
#601=IFCCARTESIANPOINTLIST2D(((35.,35.),(-83.599999999999994,35.),(-83.599999999999994,-83.799999999999997),(35.,-83.799999999999997)));
#602=IFCINDEXEDPOLYCURVE(#601,(IFCLINEINDEX((1,2,3,4,1))),$);
#603=IFCARBITRARYPROFILEDEFWITHVOIDS(.AREA.,$,#600,(#602));
#604=IFCCARTESIANPOINT((25.,90.,25.));
#605=IFCDIRECTION((0.,-1.,0.));
#606=IFCDIRECTION((1.,0.,0.));
#607=IFCAXIS2PLACEMENT3D(#604,#605,#606);
#608=IFCDIRECTION((0.,0.,-1.));
#609=IFCEXTRUDEDAREASOLID(#603,#607,#608,35.);
#610=IFCINDEXEDPOLYCURVE(#611,(IFCLINEINDEX((1,2,3,4,1))),$);
#611=IFCCARTESIANPOINTLIST2D(((35.,35.),(-83.599999999999994,35.),(-83.599999999999994,-83.799999999999997),(35.,-83.799999999999997)));
#612=IFCARBITRARYCLOSEDPROFILEDEF(.AREA.,$,#610);
#613=IFCCARTESIANPOINT((25.,102.5,25.));
#614=IFCDIRECTION((0.,-1.,0.));
#615=IFCDIRECTION((1.,0.,0.));
#616=IFCAXIS2PLACEMENT3D(#613,#614,#615);
#617=IFCDIRECTION((0.,0.,-1.));
#618=IFCEXTRUDEDAREASOLID(#612,#616,#617,10.);
#619=IFCSHAPEREPRESENTATION(#11,'Body','SweptSolid',(#587,#598,#609,#618));
#620=IFCPRODUCTDEFINITIONSHAPE($,$,(#619));
#626=IFCCARTESIANPOINT((9200.,9800.,1100.));
#627=IFCDIRECTION((0.,0.,1.));
#628=IFCDIRECTION((1.,0.,0.));
#629=IFCAXIS2PLACEMENT3D(#626,#627,#628);
#630=IFCLOCALPLACEMENT(#30,#629);
#631=IFCRELFILLSELEMENT('0bqxI6n9n4R9P97CpS9JvK',$,$,$,#557,#576);
#632=IFCPROPERTYSET('1ZTbNwGtHAOBSZP3RVOKsY',$,'EPset_Plan',$,(#634,#635));
#633=IFCRELDEFINESBYPROPERTIES('3aIb0QnoL6gf49rj8uTpzc',$,$,$,(#576),#632);
#634=IFCPROPERTYSINGLEVALUE('Polygon2D',$,IFCLABEL('9.2000,9.8000;10.6000,9.8000;10.6000,10.0000;9.2000,10.0000'),$);
#635=IFCPROPERTYSINGLEVALUE('Category',$,IFCLABEL('IfcWindow'),$);
#636=IFCPROPERTYSET('2ztk66vgb0kvzo5OW3qsT4',$,'EPset_OpeningMeta',$,(#638,#639,#640));
#637=IFCRELDEFINESBYPROPERTIES('2dWYVjK79E8PxKxrdnYSBQ',$,$,$,(#576),#636);
#638=IFCPROPERTYSINGLEVALUE('Width',$,IFCREAL(1.3999999999999999),$);
#639=IFCPROPERTYSINGLEVALUE('Height',$,IFCREAL(1.2),$);
#640=IFCPROPERTYSINGLEVALUE('HostWall',$,IFCLABEL('Wall-N'),$);
#641=IFCSPACE('1M1O4NkdnERAS4AdTEhQNz',$,'Lobby',$,$,$,$,$,$,$,$);
#642=IFCSPACE('23gtkdBvrBHQSjqkzrF0Zj',$,'Office A',$,$,$,$,$,$,$,$);
#643=IFCSPACE('2PSlS01bb4rPYpjPs_iutX',$,'Office B',$,$,$,$,$,$,$,$);
#644=IFCSPACE('25F_YQt3v7R9AJFRb1BO3I',$,'Meeting',$,$,$,$,$,$,$,$);
#645=IFCSPACE('2UrO4PTQ9BUxJkw6fIJN0a',$,'WC',$,$,$,$,$,$,$,$);
#646=IFCDOOR('0yozuW3Qv1ZAYGmeUSkAk0',$,'Door A',$,$,$,$,$,$,$,$,$,$);
#647=IFCDOOR('036nBgjPPAouIUWvPzXHUw',$,'Door B',$,$,$,$,$,$,$,$,$,$);
#648=IFCDOOR('3KYD510Tz5lP7pYQz1Zgki',$,'Door C',$,$,$,$,$,$,$,$,$,$);
#649=IFCPROPERTYSET('2ZnepgB8n8bxA$DVEimVkW',$,'Pset_BONSAI_CLI_16',$,(#651,#652));
#650=IFCRELDEFINESBYPROPERTIES('1YC8iKsg53Cgm7EIuNTCXS',$,$,$,(#641),#649);
#651=IFCPROPERTYSINGLEVALUE('TaskCode',$,IFCLABEL('BONSAI-CLI-16'),$);
#652=IFCPROPERTYSINGLEVALUE('AutomationStatus',$,IFCLABEL('CLI_UPDATED'),$);
#653=IFCPROPERTYSET('0QAiSV$M949hIptDoI881V',$,'Pset_BONSAI_CLI_16',$,(#655,#656));
#654=IFCRELDEFINESBYPROPERTIES('1MU32PLI1DZegwxbZfhPor',$,$,$,(#642),#653);
#655=IFCPROPERTYSINGLEVALUE('TaskCode',$,IFCLABEL('BONSAI-CLI-16'),$);
#656=IFCPROPERTYSINGLEVALUE('AutomationStatus',$,IFCLABEL('CLI_UPDATED'),$);
#657=IFCPROPERTYSET('0vSLTEopz2uu6g1Rfpjg3e',$,'Pset_BONSAI_CLI_16',$,(#659,#660));
#658=IFCRELDEFINESBYPROPERTIES('2c0vdmUHHAWB4K4Nx8xa1y',$,$,$,(#643),#657);
#659=IFCPROPERTYSINGLEVALUE('TaskCode',$,IFCLABEL('BONSAI-CLI-16'),$);
#660=IFCPROPERTYSINGLEVALUE('AutomationStatus',$,IFCLABEL('CLI_UPDATED'),$);
#661=IFCPROPERTYSET('19GGxlydr48gwS3hObq4O2',$,'Pset_BONSAI_CLI_16',$,(#663,#664));
#662=IFCRELDEFINESBYPROPERTIES('1zd04xhD1BLA1lSuPKMYHV',$,$,$,(#644),#661);
#663=IFCPROPERTYSINGLEVALUE('TaskCode',$,IFCLABEL('BONSAI-CLI-16'),$);
#664=IFCPROPERTYSINGLEVALUE('AutomationStatus',$,IFCLABEL('CLI_UPDATED'),$);
#665=IFCPROPERTYSET('3n4zbxutv2QO245N94Ua4O',$,'Pset_BONSAI_CLI_16',$,(#667,#668));
#666=IFCRELDEFINESBYPROPERTIES('05GBYRyuvB0hz4dXDgyxFX',$,$,$,(#645),#665);
#667=IFCPROPERTYSINGLEVALUE('TaskCode',$,IFCLABEL('BONSAI-CLI-16'),$);
#668=IFCPROPERTYSINGLEVALUE('AutomationStatus',$,IFCLABEL('CLI_UPDATED'),$);
#669=IFCPROPERTYSET('3sBSO0IDLFZ8VToDlFRd_U',$,'Pset_BONSAI_CLI_16',$,(#671,#672));
#670=IFCRELDEFINESBYPROPERTIES('28KA5UP0TFUgtv13DVVYrk',$,$,$,(#58),#669);
#671=IFCPROPERTYSINGLEVALUE('TaskCode',$,IFCLABEL('BONSAI-CLI-16'),$);
#672=IFCPROPERTYSINGLEVALUE('AutomationStatus',$,IFCLABEL('CLI_UPDATED'),$);
#673=IFCPROPERTYSET('1iejlzbjj6aw38peaAi92r',$,'Pset_BONSAI_CLI_16',$,(#675,#676));
#674=IFCRELDEFINESBYPROPERTIES('17eB$jWqbDCA69R91RCf9K',$,$,$,(#89),#673);
#675=IFCPROPERTYSINGLEVALUE('TaskCode',$,IFCLABEL('BONSAI-CLI-16'),$);
#676=IFCPROPERTYSINGLEVALUE('AutomationStatus',$,IFCLABEL('CLI_UPDATED'),$);
#677=IFCPROPERTYSET('2uVA2FGiHCQ86P3ZRYZFBD',$,'Pset_BONSAI_CLI_16',$,(#679,#680));
#678=IFCRELDEFINESBYPROPERTIES('2ors1jpsz2mAYva3pPmqwS',$,$,$,(#120),#677);
#679=IFCPROPERTYSINGLEVALUE('TaskCode',$,IFCLABEL('BONSAI-CLI-16'),$);
#680=IFCPROPERTYSINGLEVALUE('AutomationStatus',$,IFCLABEL('CLI_UPDATED'),$);
#681=IFCPROPERTYSET('3pcS3Va8LB9AOxcGbybUQD',$,'Pset_BONSAI_CLI_16',$,(#683,#684));
#682=IFCRELDEFINESBYPROPERTIES('1j7MefFKv0sATzBKXOVc$7',$,$,$,(#151),#681);
#683=IFCPROPERTYSINGLEVALUE('TaskCode',$,IFCLABEL('BONSAI-CLI-16'),$);
#684=IFCPROPERTYSINGLEVALUE('AutomationStatus',$,IFCLABEL('CLI_UPDATED'),$);
#685=IFCPROPERTYSET('1cyo4c2U55m87XlFfJfjU1',$,'Pset_BONSAI_CLI_16',$,(#687,#688));
#686=IFCRELDEFINESBYPROPERTIES('3U4v7k3OP9j9PSwYbPqSBo',$,$,$,(#182),#685);
#687=IFCPROPERTYSINGLEVALUE('TaskCode',$,IFCLABEL('BONSAI-CLI-16'),$);
#688=IFCPROPERTYSINGLEVALUE('AutomationStatus',$,IFCLABEL('CLI_UPDATED'),$);
#689=IFCPROPERTYSET('1GC3Eu$H13wvODd8Y0Ojek',$,'Pset_BONSAI_CLI_16',$,(#691,#692));
#690=IFCRELDEFINESBYPROPERTIES('0Bi7Eoco16p9ZRlFn25pX2',$,$,$,(#213),#689);
#691=IFCPROPERTYSINGLEVALUE('TaskCode',$,IFCLABEL('BONSAI-CLI-16'),$);
#692=IFCPROPERTYSINGLEVALUE('AutomationStatus',$,IFCLABEL('CLI_UPDATED'),$);
#693=IFCPROPERTYSET('0AuOXQVej7P82bTCj1IKPc',$,'Pset_BONSAI_CLI_16',$,(#695,#696));
#694=IFCRELDEFINESBYPROPERTIES('2McH_XsonCiglh7APCM1g4',$,$,$,(#244),#693);
#695=IFCPROPERTYSINGLEVALUE('TaskCode',$,IFCLABEL('BONSAI-CLI-16'),$);
#696=IFCPROPERTYSINGLEVALUE('AutomationStatus',$,IFCLABEL('CLI_UPDATED'),$);
#697=IFCPROPERTYSET('3i_FVZPP15tfHBt28YclMy',$,'Pset_BONSAI_CLI_16',$,(#699,#700));
#698=IFCRELDEFINESBYPROPERTIES('3gVR0yVMT9shsWOySaT_cV',$,$,$,(#31),#697);
#699=IFCPROPERTYSINGLEVALUE('TaskCode',$,IFCLABEL('BONSAI-CLI-16'),$);
#700=IFCPROPERTYSINGLEVALUE('AutomationStatus',$,IFCLABEL('CLI_UPDATED'),$);
#701=IFCPROPERTYSET('1IIHYV1IH1huVYvNmlDexs',$,'Pset_BONSAI_CLI_16',$,(#703,#704));
#702=IFCRELDEFINESBYPROPERTIES('3o8JWKK4P35PptoiR6YZli',$,$,$,(#294),#701);
#703=IFCPROPERTYSINGLEVALUE('TaskCode',$,IFCLABEL('BONSAI-CLI-16'),$);
#704=IFCPROPERTYSINGLEVALUE('AutomationStatus',$,IFCLABEL('CLI_UPDATED'),$);
#705=IFCPROPERTYSET('2XqMIk15n1Nw1KVfaWX6js',$,'Pset_BONSAI_CLI_16',$,(#707,#708));
#706=IFCRELDEFINESBYPROPERTIES('18RhLfEmv7rBMouzBVkGpq',$,$,$,(#646),#705);
#707=IFCPROPERTYSINGLEVALUE('TaskCode',$,IFCLABEL('BONSAI-CLI-16'),$);
#708=IFCPROPERTYSINGLEVALUE('AutomationStatus',$,IFCLABEL('CLI_UPDATED'),$);
#709=IFCPROPERTYSET('3bRKWrJCj3fe0CRB_CxZK8',$,'Pset_BONSAI_CLI_16',$,(#711,#712));
#710=IFCRELDEFINESBYPROPERTIES('1UWVbK4u51nfx1yefeOA13',$,$,$,(#647),#709);
#711=IFCPROPERTYSINGLEVALUE('TaskCode',$,IFCLABEL('BONSAI-CLI-16'),$);
#712=IFCPROPERTYSINGLEVALUE('AutomationStatus',$,IFCLABEL('CLI_UPDATED'),$);
#713=IFCPROPERTYSET('1uBkrKBqTEJO6ZHvShcZP9',$,'Pset_BONSAI_CLI_16',$,(#715,#716));
#714=IFCRELDEFINESBYPROPERTIES('1QWeeqtj50AAXiHL6fuDIc',$,$,$,(#648),#713);
#715=IFCPROPERTYSINGLEVALUE('TaskCode',$,IFCLABEL('BONSAI-CLI-16'),$);
#716=IFCPROPERTYSINGLEVALUE('AutomationStatus',$,IFCLABEL('CLI_UPDATED'),$);
#717=IFCPROPERTYSET('0g$m8oeXLFpuSQIcBntBhY',$,'Pset_BONSAI_CLI_16',$,(#719,#720));
#718=IFCRELDEFINESBYPROPERTIES('0ZuqIBGprE2RKUYaXgFJSF',$,$,$,(#408),#717);
#719=IFCPROPERTYSINGLEVALUE('TaskCode',$,IFCLABEL('BONSAI-CLI-16'),$);
#720=IFCPROPERTYSINGLEVALUE('AutomationStatus',$,IFCLABEL('CLI_UPDATED'),$);
#721=IFCPROPERTYSET('0LQMS$X6f6fwkJQywYTdDL',$,'Pset_BONSAI_CLI_16',$,(#723,#724));
#722=IFCRELDEFINESBYPROPERTIES('1QZmpd1uz7TPjL2ALdsedL',$,$,$,(#492),#721);
#723=IFCPROPERTYSINGLEVALUE('TaskCode',$,IFCLABEL('BONSAI-CLI-16'),$);
#724=IFCPROPERTYSINGLEVALUE('AutomationStatus',$,IFCLABEL('CLI_UPDATED'),$);
#725=IFCPROPERTYSET('3FmqScFhr37BLKpNfAAiFl',$,'Pset_BONSAI_CLI_16',$,(#727,#728));
#726=IFCRELDEFINESBYPROPERTIES('2Z1sTbhKz8uA9d4gYGQL$h',$,$,$,(#576),#725);
#727=IFCPROPERTYSINGLEVALUE('TaskCode',$,IFCLABEL('BONSAI-CLI-16'),$);
#728=IFCPROPERTYSINGLEVALUE('AutomationStatus',$,IFCLABEL('CLI_UPDATED'),$);
#729=IFCWALLTYPE('2adDzvAtz4cwkt9kBXS9mN',$,'OfficeWallType-16',$,$,(#731),$,$,$,.NOTDEFINED.);
#730=IFCRELDEFINESBYTYPE('1zD0Zo65DFvRADPuAaamRj',$,$,$,(#182,#120,#151,#89,#244,#58,#213),#729);
#731=IFCPROPERTYSET('1ekggaimbBLh7qjwTrrROv',$,'Pset_BONSAI_CLI_16',$,(#732,#733));
#732=IFCPROPERTYSINGLEVALUE('TaskCode',$,IFCLABEL('BONSAI-CLI-16'),$);
#733=IFCPROPERTYSINGLEVALUE('AutomationStatus',$,IFCLABEL('CLI_UPDATED'),$);
#734=IFCSLABTYPE('0RpnpowYvFYONXnrZBb7Kz',$,'OfficeSlabType-16',$,$,(#736),$,$,$,.NOTDEFINED.);
#735=IFCRELDEFINESBYTYPE('1CwWoAUzX2ufIzQj2chFxR',$,$,$,(#31),#734);
#736=IFCPROPERTYSET('0hZ6MoX$94Dfv_UCum4EsH',$,'Pset_BONSAI_CLI_16',$,(#737,#738));
#737=IFCPROPERTYSINGLEVALUE('TaskCode',$,IFCLABEL('BONSAI-CLI-16'),$);
#738=IFCPROPERTYSINGLEVALUE('AutomationStatus',$,IFCLABEL('CLI_UPDATED'),$);
#739=IFCDOORTYPE('2l8U4cEBj02h4MTKTNn74V',$,'OfficeDoorType-16',$,$,(#741),$,$,$,.NOTDEFINED.,.NOTDEFINED.,$,$);
#740=IFCRELDEFINESBYTYPE('00Y3hqSgn5MRAQ4lUpgMxZ',$,$,$,(#294,#647,#648,#646),#739);
#741=IFCPROPERTYSET('0IDd888x541vuCpRDIZLk6',$,'Pset_BONSAI_CLI_16',$,(#742,#743));
#742=IFCPROPERTYSINGLEVALUE('TaskCode',$,IFCLABEL('BONSAI-CLI-16'),$);
#743=IFCPROPERTYSINGLEVALUE('AutomationStatus',$,IFCLABEL('CLI_UPDATED'),$);
#744=IFCWINDOWTYPE('2rwRUfVVv3hhWr_oqDTB1b',$,'OfficeWindowType-16',$,$,(#746),$,$,$,.NOTDEFINED.,.NOTDEFINED.,$,$);
#745=IFCRELDEFINESBYTYPE('3cmZ22xrL4RwtKGCw3yoQU',$,$,$,(#408,#492,#576),#744);
#746=IFCPROPERTYSET('24nFX7kZL1AhDeNLRIQxAn',$,'Pset_BONSAI_CLI_16',$,(#747,#748));
#747=IFCPROPERTYSINGLEVALUE('TaskCode',$,IFCLABEL('BONSAI-CLI-16'),$);
#748=IFCPROPERTYSINGLEVALUE('AutomationStatus',$,IFCLABEL('CLI_UPDATED'),$);
#749=IFCPROPERTYSET('3jrTCWBIrAU8ZLVjXZHCgE',$,'Pset_BonsaiCliProperties',$,(#751,#752));
#750=IFCRELDEFINESBYPROPERTIES('3z7BCI$FfFCg6$FwkvGwMK',$,$,$,(#58),#749);
#751=IFCPROPERTYSINGLEVALUE('FireRating',$,IFCLABEL('60MIN'),$);
#752=IFCPROPERTYSINGLEVALUE('AcousticRating',$,IFCLABEL('STC45'),$);
#753=IFCPROPERTYSET('1AjupCEQD2NAaRzHvLwlVX',$,'Pset_BonsaiCliProperties',$,(#755,#756));
#754=IFCRELDEFINESBYPROPERTIES('0p_EpMq7f9seGTAyWSFNEQ',$,$,$,(#89),#753);
#755=IFCPROPERTYSINGLEVALUE('FireRating',$,IFCLABEL('60MIN'),$);
#756=IFCPROPERTYSINGLEVALUE('AcousticRating',$,IFCLABEL('STC45'),$);
#757=IFCPROPERTYSET('1SK408PWn9mOo6X$gJphcb',$,'Pset_BonsaiCliProperties',$,(#759,#760));
#758=IFCRELDEFINESBYPROPERTIES('3EDS7iL8L7n9_jqqNpCrJL',$,$,$,(#120),#757);
#759=IFCPROPERTYSINGLEVALUE('FireRating',$,IFCLABEL('60MIN'),$);
#760=IFCPROPERTYSINGLEVALUE('AcousticRating',$,IFCLABEL('STC45'),$);
#761=IFCPROPERTYSET('0K7QWiqtX2RAb3RgqjuLlz',$,'Pset_BonsaiCliProperties',$,(#763,#764));
#762=IFCRELDEFINESBYPROPERTIES('1sSpHvpsb1XumULiGa_fNG',$,$,$,(#151),#761);
#763=IFCPROPERTYSINGLEVALUE('FireRating',$,IFCLABEL('60MIN'),$);
#764=IFCPROPERTYSINGLEVALUE('AcousticRating',$,IFCLABEL('STC45'),$);
#765=IFCPROPERTYSET('311gZ9Ot95IgzlpqLj04M$',$,'Pset_BonsaiCliProperties',$,(#767,#768));
#766=IFCRELDEFINESBYPROPERTIES('0OvbbdQJHEoglnMpfKWguD',$,$,$,(#182),#765);
#767=IFCPROPERTYSINGLEVALUE('FireRating',$,IFCLABEL('60MIN'),$);
#768=IFCPROPERTYSINGLEVALUE('AcousticRating',$,IFCLABEL('STC45'),$);
#769=IFCPROPERTYSET('1lsPyhuCrCtA94bbWAmNPa',$,'Pset_BonsaiCliProperties',$,(#771,#772));
#770=IFCRELDEFINESBYPROPERTIES('1bzicsS619PgJt70hzCvYe',$,$,$,(#213),#769);
#771=IFCPROPERTYSINGLEVALUE('FireRating',$,IFCLABEL('60MIN'),$);
#772=IFCPROPERTYSINGLEVALUE('AcousticRating',$,IFCLABEL('STC45'),$);
#773=IFCPROPERTYSET('2jOKW8_Pz9xgv3hck7xxvK',$,'Pset_BonsaiCliProperties',$,(#775,#776));
#774=IFCRELDEFINESBYPROPERTIES('2QgU1uySH6sfaf$8nWDDRn',$,$,$,(#244),#773);
#775=IFCPROPERTYSINGLEVALUE('FireRating',$,IFCLABEL('60MIN'),$);
#776=IFCPROPERTYSINGLEVALUE('AcousticRating',$,IFCLABEL('STC45'),$);
#777=IFCGROUP('3_McTGQrvAMvXfSRx4y8gl',$,'Office Package 16',$,$);
#778=IFCRELASSIGNSTOGROUP('21EQpcq0H38xllHvi2GdFt',$,$,$,(#641,#642,#643,#644,#645,#294,#646,#647,#648,#408,#492,#576),$,#777);
#779=IFCPROPERTYSET('1w4qkhYfb3KRKRRFmBW0BH',$,'Pset_BONSAI_CLI_16',$,(#781,#782));
#780=IFCRELDEFINESBYPROPERTIES('2ZlINeK_n2W8aX1cGVrMsQ',$,$,$,(#777),#779);
#781=IFCPROPERTYSINGLEVALUE('TaskCode',$,IFCLABEL('BONSAI-CLI-16'),$);
#782=IFCPROPERTYSINGLEVALUE('AutomationStatus',$,IFCLABEL('CLI_UPDATED'),$);
ENDSEC;
END-ISO-10303-21;
