G75*
%MOIN*%
%OFA0B0*%
%FSLAX25Y25*%
%IPPOS*%
%LPD*%
%AMOC8*
5,1,8,0,0,1.08239X$1,22.5*
%
%ADD10C,0.00500*%
%ADD11C,0.00600*%
%ADD12C,0.00050*%
%ADD13C,0.01000*%
%ADD14C,0.00200*%
%ADD15R,0.03400X0.02400*%
%ADD16R,0.02000X0.08000*%
%ADD17R,0.07500X0.02000*%
D10*
X0074781Y0012450D02*
X0077033Y0012450D01*
X0077783Y0013200D01*
X0077783Y0016203D01*
X0077033Y0016953D01*
X0074781Y0016953D01*
X0074781Y0012450D01*
X0079385Y0012450D02*
X0082387Y0012450D01*
X0080886Y0012450D02*
X0080886Y0016953D01*
X0079385Y0015452D01*
X0084500Y0020480D02*
X0084500Y0026480D01*
X0084502Y0026540D01*
X0084507Y0026601D01*
X0084516Y0026660D01*
X0084529Y0026719D01*
X0084545Y0026778D01*
X0084565Y0026835D01*
X0084588Y0026890D01*
X0084615Y0026945D01*
X0084644Y0026997D01*
X0084677Y0027048D01*
X0084713Y0027097D01*
X0084751Y0027143D01*
X0084793Y0027187D01*
X0084837Y0027229D01*
X0084883Y0027267D01*
X0084932Y0027303D01*
X0084983Y0027336D01*
X0085035Y0027365D01*
X0085090Y0027392D01*
X0085145Y0027415D01*
X0085202Y0027435D01*
X0085261Y0027451D01*
X0085320Y0027464D01*
X0085379Y0027473D01*
X0085440Y0027478D01*
X0085500Y0027480D01*
X0101500Y0027480D01*
X0101560Y0027478D01*
X0101621Y0027473D01*
X0101680Y0027464D01*
X0101739Y0027451D01*
X0101798Y0027435D01*
X0101855Y0027415D01*
X0101910Y0027392D01*
X0101965Y0027365D01*
X0102017Y0027336D01*
X0102068Y0027303D01*
X0102117Y0027267D01*
X0102163Y0027229D01*
X0102207Y0027187D01*
X0102249Y0027143D01*
X0102287Y0027097D01*
X0102323Y0027048D01*
X0102356Y0026997D01*
X0102385Y0026945D01*
X0102412Y0026890D01*
X0102435Y0026835D01*
X0102455Y0026778D01*
X0102471Y0026719D01*
X0102484Y0026660D01*
X0102493Y0026601D01*
X0102498Y0026540D01*
X0102500Y0026480D01*
X0102500Y0020480D01*
X0102498Y0020420D01*
X0102493Y0020359D01*
X0102484Y0020300D01*
X0102471Y0020241D01*
X0102455Y0020182D01*
X0102435Y0020125D01*
X0102412Y0020070D01*
X0102385Y0020015D01*
X0102356Y0019963D01*
X0102323Y0019912D01*
X0102287Y0019863D01*
X0102249Y0019817D01*
X0102207Y0019773D01*
X0102163Y0019731D01*
X0102117Y0019693D01*
X0102068Y0019657D01*
X0102017Y0019624D01*
X0101965Y0019595D01*
X0101910Y0019568D01*
X0101855Y0019545D01*
X0101798Y0019525D01*
X0101739Y0019509D01*
X0101680Y0019496D01*
X0101621Y0019487D01*
X0101560Y0019482D01*
X0101500Y0019480D01*
X0085500Y0019480D01*
X0085440Y0019482D01*
X0085379Y0019487D01*
X0085320Y0019496D01*
X0085261Y0019509D01*
X0085202Y0019525D01*
X0085145Y0019545D01*
X0085090Y0019568D01*
X0085035Y0019595D01*
X0084983Y0019624D01*
X0084932Y0019657D01*
X0084883Y0019693D01*
X0084837Y0019731D01*
X0084793Y0019773D01*
X0084751Y0019817D01*
X0084713Y0019863D01*
X0084677Y0019912D01*
X0084644Y0019963D01*
X0084615Y0020015D01*
X0084588Y0020070D01*
X0084565Y0020125D01*
X0084545Y0020182D01*
X0084529Y0020241D01*
X0084516Y0020300D01*
X0084507Y0020359D01*
X0084502Y0020420D01*
X0084500Y0020480D01*
X0091000Y0023480D02*
X0093500Y0023480D01*
X0093500Y0020980D01*
X0093500Y0023480D02*
X0093500Y0025980D01*
X0093500Y0023480D02*
X0097500Y0025980D01*
X0097500Y0020980D01*
X0093500Y0023480D01*
X0099500Y0023480D01*
X0097821Y0017545D02*
X0097821Y0013041D01*
X0094818Y0017545D01*
X0094818Y0013041D01*
X0093217Y0013041D02*
X0090215Y0013041D01*
X0091716Y0013041D02*
X0091716Y0017545D01*
X0090215Y0016044D01*
X0099422Y0015293D02*
X0102425Y0015293D01*
X0104026Y0016044D02*
X0105528Y0017545D01*
X0105528Y0013041D01*
X0107029Y0013041D02*
X0104026Y0013041D01*
X0101674Y0013041D02*
X0101674Y0017545D01*
X0099422Y0015293D01*
X0108630Y0015293D02*
X0111633Y0015293D01*
X0113234Y0014543D02*
X0113985Y0015293D01*
X0115486Y0015293D01*
X0116237Y0014543D01*
X0116237Y0013792D01*
X0115486Y0013041D01*
X0113985Y0013041D01*
X0113234Y0013792D01*
X0113234Y0014543D01*
X0113985Y0015293D02*
X0113234Y0016044D01*
X0113234Y0016795D01*
X0113985Y0017545D01*
X0115486Y0017545D01*
X0116237Y0016795D01*
X0116237Y0016044D01*
X0115486Y0015293D01*
X0110882Y0013041D02*
X0110882Y0017545D01*
X0108630Y0015293D01*
X0123500Y0019980D02*
X0123500Y0036980D01*
X0123502Y0037040D01*
X0123507Y0037101D01*
X0123516Y0037160D01*
X0123529Y0037219D01*
X0123545Y0037278D01*
X0123565Y0037335D01*
X0123588Y0037390D01*
X0123615Y0037445D01*
X0123644Y0037497D01*
X0123677Y0037548D01*
X0123713Y0037597D01*
X0123751Y0037643D01*
X0123793Y0037687D01*
X0123837Y0037729D01*
X0123883Y0037767D01*
X0123932Y0037803D01*
X0123983Y0037836D01*
X0124035Y0037865D01*
X0124090Y0037892D01*
X0124145Y0037915D01*
X0124202Y0037935D01*
X0124261Y0037951D01*
X0124320Y0037964D01*
X0124379Y0037973D01*
X0124440Y0037978D01*
X0124500Y0037980D01*
X0132500Y0037980D01*
X0132560Y0037978D01*
X0132621Y0037973D01*
X0132680Y0037964D01*
X0132739Y0037951D01*
X0132798Y0037935D01*
X0132855Y0037915D01*
X0132910Y0037892D01*
X0132965Y0037865D01*
X0133017Y0037836D01*
X0133068Y0037803D01*
X0133117Y0037767D01*
X0133163Y0037729D01*
X0133207Y0037687D01*
X0133249Y0037643D01*
X0133287Y0037597D01*
X0133323Y0037548D01*
X0133356Y0037497D01*
X0133385Y0037445D01*
X0133412Y0037390D01*
X0133435Y0037335D01*
X0133455Y0037278D01*
X0133471Y0037219D01*
X0133484Y0037160D01*
X0133493Y0037101D01*
X0133498Y0037040D01*
X0133500Y0036980D01*
X0133500Y0019980D01*
X0133498Y0019920D01*
X0133493Y0019859D01*
X0133484Y0019800D01*
X0133471Y0019741D01*
X0133455Y0019682D01*
X0133435Y0019625D01*
X0133412Y0019570D01*
X0133385Y0019515D01*
X0133356Y0019463D01*
X0133323Y0019412D01*
X0133287Y0019363D01*
X0133249Y0019317D01*
X0133207Y0019273D01*
X0133163Y0019231D01*
X0133117Y0019193D01*
X0133068Y0019157D01*
X0133017Y0019124D01*
X0132965Y0019095D01*
X0132910Y0019068D01*
X0132855Y0019045D01*
X0132798Y0019025D01*
X0132739Y0019009D01*
X0132680Y0018996D01*
X0132621Y0018987D01*
X0132560Y0018982D01*
X0132500Y0018980D01*
X0124500Y0018980D01*
X0124440Y0018982D01*
X0124379Y0018987D01*
X0124320Y0018996D01*
X0124261Y0019009D01*
X0124202Y0019025D01*
X0124145Y0019045D01*
X0124090Y0019068D01*
X0124035Y0019095D01*
X0123983Y0019124D01*
X0123932Y0019157D01*
X0123883Y0019193D01*
X0123837Y0019231D01*
X0123793Y0019273D01*
X0123751Y0019317D01*
X0123713Y0019363D01*
X0123677Y0019412D01*
X0123644Y0019463D01*
X0123615Y0019515D01*
X0123588Y0019570D01*
X0123565Y0019625D01*
X0123545Y0019682D01*
X0123529Y0019741D01*
X0123516Y0019800D01*
X0123507Y0019859D01*
X0123502Y0019920D01*
X0123500Y0019980D01*
X0128500Y0026980D02*
X0128500Y0027480D01*
X0128500Y0029480D02*
X0128500Y0029980D01*
X0130708Y0039729D02*
X0130708Y0044233D01*
X0132960Y0044233D01*
X0133710Y0043482D01*
X0133710Y0041981D01*
X0132960Y0041230D01*
X0130708Y0041230D01*
X0129106Y0044984D02*
X0126104Y0041981D01*
X0126104Y0041230D01*
X0124503Y0041230D02*
X0121500Y0041230D01*
X0124503Y0044233D01*
X0124503Y0044984D01*
X0123752Y0045734D01*
X0122251Y0045734D01*
X0121500Y0044984D01*
X0122251Y0048480D02*
X0123752Y0048480D01*
X0124503Y0049231D01*
X0126104Y0049231D02*
X0126855Y0048480D01*
X0128356Y0048480D01*
X0129106Y0049231D01*
X0129106Y0049982D01*
X0128356Y0050732D01*
X0126104Y0050732D01*
X0126104Y0049231D01*
X0126104Y0050732D02*
X0127605Y0052234D01*
X0129106Y0052984D01*
X0124503Y0052234D02*
X0123752Y0052984D01*
X0122251Y0052984D01*
X0121500Y0052234D01*
X0121500Y0049231D01*
X0122251Y0048480D01*
X0126104Y0045734D02*
X0129106Y0045734D01*
X0129106Y0044984D01*
X0146250Y0044234D02*
X0146250Y0041231D01*
X0147001Y0040480D01*
X0148502Y0040480D01*
X0149253Y0041231D01*
X0149253Y0044234D01*
X0148502Y0044984D01*
X0147001Y0044984D01*
X0146250Y0044234D01*
X0147751Y0041982D02*
X0149253Y0040480D01*
X0150854Y0040480D02*
X0153856Y0040480D01*
X0152355Y0040480D02*
X0152355Y0044984D01*
X0150854Y0043483D01*
X0155250Y0048730D02*
X0158253Y0051733D01*
X0158253Y0052484D01*
X0157502Y0053234D01*
X0156001Y0053234D01*
X0155250Y0052484D01*
X0155250Y0048730D02*
X0158253Y0048730D01*
X0159854Y0048730D02*
X0159854Y0049481D01*
X0162856Y0052484D01*
X0162856Y0053234D01*
X0159854Y0053234D01*
X0160043Y0055230D02*
X0159292Y0055981D01*
X0159292Y0058984D01*
X0160043Y0059734D01*
X0161544Y0059734D01*
X0162295Y0058984D01*
X0163896Y0059734D02*
X0163896Y0057482D01*
X0165397Y0058233D01*
X0166148Y0058233D01*
X0166899Y0057482D01*
X0166899Y0055981D01*
X0166148Y0055230D01*
X0164647Y0055230D01*
X0163896Y0055981D01*
X0162295Y0055981D02*
X0161544Y0055230D01*
X0160043Y0055230D01*
X0164458Y0051733D02*
X0166710Y0051733D01*
X0167460Y0050982D01*
X0167460Y0049481D01*
X0166710Y0048730D01*
X0164458Y0048730D01*
X0164458Y0047229D02*
X0164458Y0051733D01*
X0173500Y0051980D02*
X0173500Y0052480D01*
X0173500Y0054480D02*
X0173500Y0054980D01*
X0166899Y0059734D02*
X0163896Y0059734D01*
X0168500Y0061980D02*
X0168500Y0044980D01*
X0168502Y0044920D01*
X0168507Y0044859D01*
X0168516Y0044800D01*
X0168529Y0044741D01*
X0168545Y0044682D01*
X0168565Y0044625D01*
X0168588Y0044570D01*
X0168615Y0044515D01*
X0168644Y0044463D01*
X0168677Y0044412D01*
X0168713Y0044363D01*
X0168751Y0044317D01*
X0168793Y0044273D01*
X0168837Y0044231D01*
X0168883Y0044193D01*
X0168932Y0044157D01*
X0168983Y0044124D01*
X0169035Y0044095D01*
X0169090Y0044068D01*
X0169145Y0044045D01*
X0169202Y0044025D01*
X0169261Y0044009D01*
X0169320Y0043996D01*
X0169379Y0043987D01*
X0169440Y0043982D01*
X0169500Y0043980D01*
X0177500Y0043980D01*
X0177560Y0043982D01*
X0177621Y0043987D01*
X0177680Y0043996D01*
X0177739Y0044009D01*
X0177798Y0044025D01*
X0177855Y0044045D01*
X0177910Y0044068D01*
X0177965Y0044095D01*
X0178017Y0044124D01*
X0178068Y0044157D01*
X0178117Y0044193D01*
X0178163Y0044231D01*
X0178207Y0044273D01*
X0178249Y0044317D01*
X0178287Y0044363D01*
X0178323Y0044412D01*
X0178356Y0044463D01*
X0178385Y0044515D01*
X0178412Y0044570D01*
X0178435Y0044625D01*
X0178455Y0044682D01*
X0178471Y0044741D01*
X0178484Y0044800D01*
X0178493Y0044859D01*
X0178498Y0044920D01*
X0178500Y0044980D01*
X0178500Y0061980D01*
X0178498Y0062040D01*
X0178493Y0062101D01*
X0178484Y0062160D01*
X0178471Y0062219D01*
X0178455Y0062278D01*
X0178435Y0062335D01*
X0178412Y0062390D01*
X0178385Y0062445D01*
X0178356Y0062497D01*
X0178323Y0062548D01*
X0178287Y0062597D01*
X0178249Y0062643D01*
X0178207Y0062687D01*
X0178163Y0062729D01*
X0178117Y0062767D01*
X0178068Y0062803D01*
X0178017Y0062836D01*
X0177965Y0062865D01*
X0177910Y0062892D01*
X0177855Y0062915D01*
X0177798Y0062935D01*
X0177739Y0062951D01*
X0177680Y0062964D01*
X0177621Y0062973D01*
X0177560Y0062978D01*
X0177500Y0062980D01*
X0169500Y0062980D01*
X0169440Y0062978D01*
X0169379Y0062973D01*
X0169320Y0062964D01*
X0169261Y0062951D01*
X0169202Y0062935D01*
X0169145Y0062915D01*
X0169090Y0062892D01*
X0169035Y0062865D01*
X0168983Y0062836D01*
X0168932Y0062803D01*
X0168883Y0062767D01*
X0168837Y0062729D01*
X0168793Y0062687D01*
X0168751Y0062643D01*
X0168713Y0062597D01*
X0168677Y0062548D01*
X0168644Y0062497D01*
X0168615Y0062445D01*
X0168588Y0062390D01*
X0168565Y0062335D01*
X0168545Y0062278D01*
X0168529Y0062219D01*
X0168516Y0062160D01*
X0168507Y0062101D01*
X0168502Y0062040D01*
X0168500Y0061980D01*
X0159500Y0063480D02*
X0159500Y0070980D01*
X0159402Y0070982D01*
X0159304Y0070988D01*
X0159206Y0070997D01*
X0159109Y0071011D01*
X0159012Y0071028D01*
X0158916Y0071049D01*
X0158821Y0071074D01*
X0158727Y0071102D01*
X0158635Y0071135D01*
X0158543Y0071170D01*
X0158453Y0071210D01*
X0158365Y0071252D01*
X0158278Y0071299D01*
X0158194Y0071348D01*
X0158111Y0071401D01*
X0158031Y0071457D01*
X0157952Y0071517D01*
X0157876Y0071579D01*
X0157803Y0071644D01*
X0157732Y0071712D01*
X0157664Y0071783D01*
X0157599Y0071856D01*
X0157537Y0071932D01*
X0157477Y0072011D01*
X0157421Y0072091D01*
X0157368Y0072174D01*
X0157319Y0072258D01*
X0157272Y0072345D01*
X0157230Y0072433D01*
X0157190Y0072523D01*
X0157155Y0072615D01*
X0157122Y0072707D01*
X0157094Y0072801D01*
X0157069Y0072896D01*
X0157048Y0072992D01*
X0157031Y0073089D01*
X0157017Y0073186D01*
X0157008Y0073284D01*
X0157002Y0073382D01*
X0157000Y0073480D01*
X0157002Y0073578D01*
X0157008Y0073676D01*
X0157017Y0073774D01*
X0157031Y0073871D01*
X0157048Y0073968D01*
X0157069Y0074064D01*
X0157094Y0074159D01*
X0157122Y0074253D01*
X0157155Y0074345D01*
X0157190Y0074437D01*
X0157230Y0074527D01*
X0157272Y0074615D01*
X0157319Y0074702D01*
X0157368Y0074786D01*
X0157421Y0074869D01*
X0157477Y0074949D01*
X0157537Y0075028D01*
X0157599Y0075104D01*
X0157664Y0075177D01*
X0157732Y0075248D01*
X0157803Y0075316D01*
X0157876Y0075381D01*
X0157952Y0075443D01*
X0158031Y0075503D01*
X0158111Y0075559D01*
X0158194Y0075612D01*
X0158278Y0075661D01*
X0158365Y0075708D01*
X0158453Y0075750D01*
X0158543Y0075790D01*
X0158635Y0075825D01*
X0158727Y0075858D01*
X0158821Y0075886D01*
X0158916Y0075911D01*
X0159012Y0075932D01*
X0159109Y0075949D01*
X0159206Y0075963D01*
X0159304Y0075972D01*
X0159402Y0075978D01*
X0159500Y0075980D01*
X0159500Y0083480D01*
X0067500Y0083480D01*
X0067500Y0063480D01*
X0159500Y0063480D01*
X0166250Y0068730D02*
X0166250Y0069481D01*
X0169253Y0072484D01*
X0169253Y0073234D01*
X0166250Y0073234D01*
X0170854Y0072484D02*
X0170854Y0071733D01*
X0171605Y0070982D01*
X0173106Y0070982D01*
X0173856Y0070232D01*
X0173856Y0069481D01*
X0173106Y0068730D01*
X0171605Y0068730D01*
X0170854Y0069481D01*
X0170854Y0070232D01*
X0171605Y0070982D01*
X0173106Y0070982D02*
X0173856Y0071733D01*
X0173856Y0072484D01*
X0173106Y0073234D01*
X0171605Y0073234D01*
X0170854Y0072484D01*
X0175458Y0073234D02*
X0175458Y0068730D01*
X0178460Y0068730D01*
X0180062Y0069481D02*
X0183064Y0072484D01*
X0183064Y0069481D01*
X0182314Y0068730D01*
X0180812Y0068730D01*
X0180062Y0069481D01*
X0180062Y0072484D01*
X0180812Y0073234D01*
X0182314Y0073234D01*
X0183064Y0072484D01*
X0184666Y0073234D02*
X0184666Y0070982D01*
X0186167Y0071733D01*
X0186918Y0071733D01*
X0187668Y0070982D01*
X0187668Y0069481D01*
X0186918Y0068730D01*
X0185416Y0068730D01*
X0184666Y0069481D01*
X0184666Y0073234D02*
X0187668Y0073234D01*
X0187355Y0076230D02*
X0187355Y0080734D01*
X0185854Y0079233D01*
X0184253Y0080734D02*
X0184253Y0076981D01*
X0183502Y0076230D01*
X0182001Y0076230D01*
X0181250Y0076981D01*
X0181250Y0080734D01*
X0185854Y0076230D02*
X0188856Y0076230D01*
X0192000Y0076726D02*
X0192000Y0060234D01*
X0197500Y0059607D02*
X0197500Y0058028D01*
X0207250Y0054484D02*
X0207250Y0051481D01*
X0208001Y0050730D01*
X0209502Y0050730D01*
X0210253Y0051481D01*
X0211854Y0050730D02*
X0214856Y0050730D01*
X0213355Y0050730D02*
X0213355Y0055234D01*
X0211854Y0053733D01*
X0210253Y0054484D02*
X0209502Y0055234D01*
X0208001Y0055234D01*
X0207250Y0054484D01*
X0193500Y0048480D02*
X0192000Y0048480D01*
X0192000Y0049980D01*
X0192000Y0048480D02*
X0192000Y0046980D01*
X0192000Y0048480D02*
X0190500Y0048480D01*
X0187500Y0043480D02*
X0187503Y0043750D01*
X0187513Y0044020D01*
X0187530Y0044289D01*
X0187553Y0044558D01*
X0187583Y0044827D01*
X0187619Y0045094D01*
X0187662Y0045361D01*
X0187711Y0045626D01*
X0187767Y0045890D01*
X0187830Y0046153D01*
X0187898Y0046414D01*
X0187974Y0046673D01*
X0188055Y0046930D01*
X0188143Y0047186D01*
X0188237Y0047439D01*
X0188337Y0047690D01*
X0188444Y0047938D01*
X0188556Y0048183D01*
X0188675Y0048426D01*
X0188799Y0048665D01*
X0188929Y0048902D01*
X0189065Y0049135D01*
X0189207Y0049365D01*
X0189354Y0049591D01*
X0189507Y0049814D01*
X0189665Y0050033D01*
X0189828Y0050248D01*
X0189997Y0050458D01*
X0190171Y0050665D01*
X0190350Y0050867D01*
X0190533Y0051065D01*
X0190722Y0051258D01*
X0190915Y0051447D01*
X0191113Y0051630D01*
X0191315Y0051809D01*
X0191522Y0051983D01*
X0191732Y0052152D01*
X0191947Y0052315D01*
X0192166Y0052473D01*
X0192389Y0052626D01*
X0192615Y0052773D01*
X0192845Y0052915D01*
X0193078Y0053051D01*
X0193315Y0053181D01*
X0193554Y0053305D01*
X0193797Y0053424D01*
X0194042Y0053536D01*
X0194290Y0053643D01*
X0194541Y0053743D01*
X0194794Y0053837D01*
X0195050Y0053925D01*
X0195307Y0054006D01*
X0195566Y0054082D01*
X0195827Y0054150D01*
X0196090Y0054213D01*
X0196354Y0054269D01*
X0196619Y0054318D01*
X0196886Y0054361D01*
X0197153Y0054397D01*
X0197422Y0054427D01*
X0197691Y0054450D01*
X0197960Y0054467D01*
X0198230Y0054477D01*
X0198500Y0054480D01*
X0198770Y0054477D01*
X0199040Y0054467D01*
X0199309Y0054450D01*
X0199578Y0054427D01*
X0199847Y0054397D01*
X0200114Y0054361D01*
X0200381Y0054318D01*
X0200646Y0054269D01*
X0200910Y0054213D01*
X0201173Y0054150D01*
X0201434Y0054082D01*
X0201693Y0054006D01*
X0201950Y0053925D01*
X0202206Y0053837D01*
X0202459Y0053743D01*
X0202710Y0053643D01*
X0202958Y0053536D01*
X0203203Y0053424D01*
X0203446Y0053305D01*
X0203685Y0053181D01*
X0203922Y0053051D01*
X0204155Y0052915D01*
X0204385Y0052773D01*
X0204611Y0052626D01*
X0204834Y0052473D01*
X0205053Y0052315D01*
X0205268Y0052152D01*
X0205478Y0051983D01*
X0205685Y0051809D01*
X0205887Y0051630D01*
X0206085Y0051447D01*
X0206278Y0051258D01*
X0206467Y0051065D01*
X0206650Y0050867D01*
X0206829Y0050665D01*
X0207003Y0050458D01*
X0207172Y0050248D01*
X0207335Y0050033D01*
X0207493Y0049814D01*
X0207646Y0049591D01*
X0207793Y0049365D01*
X0207935Y0049135D01*
X0208071Y0048902D01*
X0208201Y0048665D01*
X0208325Y0048426D01*
X0208444Y0048183D01*
X0208556Y0047938D01*
X0208663Y0047690D01*
X0208763Y0047439D01*
X0208857Y0047186D01*
X0208945Y0046930D01*
X0209026Y0046673D01*
X0209102Y0046414D01*
X0209170Y0046153D01*
X0209233Y0045890D01*
X0209289Y0045626D01*
X0209338Y0045361D01*
X0209381Y0045094D01*
X0209417Y0044827D01*
X0209447Y0044558D01*
X0209470Y0044289D01*
X0209487Y0044020D01*
X0209497Y0043750D01*
X0209500Y0043480D01*
X0209497Y0043210D01*
X0209487Y0042940D01*
X0209470Y0042671D01*
X0209447Y0042402D01*
X0209417Y0042133D01*
X0209381Y0041866D01*
X0209338Y0041599D01*
X0209289Y0041334D01*
X0209233Y0041070D01*
X0209170Y0040807D01*
X0209102Y0040546D01*
X0209026Y0040287D01*
X0208945Y0040030D01*
X0208857Y0039774D01*
X0208763Y0039521D01*
X0208663Y0039270D01*
X0208556Y0039022D01*
X0208444Y0038777D01*
X0208325Y0038534D01*
X0208201Y0038295D01*
X0208071Y0038058D01*
X0207935Y0037825D01*
X0207793Y0037595D01*
X0207646Y0037369D01*
X0207493Y0037146D01*
X0207335Y0036927D01*
X0207172Y0036712D01*
X0207003Y0036502D01*
X0206829Y0036295D01*
X0206650Y0036093D01*
X0206467Y0035895D01*
X0206278Y0035702D01*
X0206085Y0035513D01*
X0205887Y0035330D01*
X0205685Y0035151D01*
X0205478Y0034977D01*
X0205268Y0034808D01*
X0205053Y0034645D01*
X0204834Y0034487D01*
X0204611Y0034334D01*
X0204385Y0034187D01*
X0204155Y0034045D01*
X0203922Y0033909D01*
X0203685Y0033779D01*
X0203446Y0033655D01*
X0203203Y0033536D01*
X0202958Y0033424D01*
X0202710Y0033317D01*
X0202459Y0033217D01*
X0202206Y0033123D01*
X0201950Y0033035D01*
X0201693Y0032954D01*
X0201434Y0032878D01*
X0201173Y0032810D01*
X0200910Y0032747D01*
X0200646Y0032691D01*
X0200381Y0032642D01*
X0200114Y0032599D01*
X0199847Y0032563D01*
X0199578Y0032533D01*
X0199309Y0032510D01*
X0199040Y0032493D01*
X0198770Y0032483D01*
X0198500Y0032480D01*
X0198230Y0032483D01*
X0197960Y0032493D01*
X0197691Y0032510D01*
X0197422Y0032533D01*
X0197153Y0032563D01*
X0196886Y0032599D01*
X0196619Y0032642D01*
X0196354Y0032691D01*
X0196090Y0032747D01*
X0195827Y0032810D01*
X0195566Y0032878D01*
X0195307Y0032954D01*
X0195050Y0033035D01*
X0194794Y0033123D01*
X0194541Y0033217D01*
X0194290Y0033317D01*
X0194042Y0033424D01*
X0193797Y0033536D01*
X0193554Y0033655D01*
X0193315Y0033779D01*
X0193078Y0033909D01*
X0192845Y0034045D01*
X0192615Y0034187D01*
X0192389Y0034334D01*
X0192166Y0034487D01*
X0191947Y0034645D01*
X0191732Y0034808D01*
X0191522Y0034977D01*
X0191315Y0035151D01*
X0191113Y0035330D01*
X0190915Y0035513D01*
X0190722Y0035702D01*
X0190533Y0035895D01*
X0190350Y0036093D01*
X0190171Y0036295D01*
X0189997Y0036502D01*
X0189828Y0036712D01*
X0189665Y0036927D01*
X0189507Y0037146D01*
X0189354Y0037369D01*
X0189207Y0037595D01*
X0189065Y0037825D01*
X0188929Y0038058D01*
X0188799Y0038295D01*
X0188675Y0038534D01*
X0188556Y0038777D01*
X0188444Y0039022D01*
X0188337Y0039270D01*
X0188237Y0039521D01*
X0188143Y0039774D01*
X0188055Y0040030D01*
X0187974Y0040287D01*
X0187898Y0040546D01*
X0187830Y0040807D01*
X0187767Y0041070D01*
X0187711Y0041334D01*
X0187662Y0041599D01*
X0187619Y0041866D01*
X0187583Y0042133D01*
X0187553Y0042402D01*
X0187530Y0042671D01*
X0187513Y0042940D01*
X0187503Y0043210D01*
X0187500Y0043480D01*
X0172000Y0037480D02*
X0145000Y0037480D01*
X0144781Y0037477D01*
X0144562Y0037469D01*
X0144343Y0037456D01*
X0144125Y0037437D01*
X0143907Y0037413D01*
X0143690Y0037384D01*
X0143473Y0037350D01*
X0143258Y0037310D01*
X0143043Y0037265D01*
X0142830Y0037214D01*
X0142618Y0037159D01*
X0142407Y0037098D01*
X0142198Y0037033D01*
X0141991Y0036962D01*
X0141785Y0036886D01*
X0141581Y0036805D01*
X0141379Y0036720D01*
X0141180Y0036629D01*
X0140983Y0036534D01*
X0140788Y0036433D01*
X0140595Y0036328D01*
X0140405Y0036219D01*
X0140218Y0036105D01*
X0140034Y0035986D01*
X0139853Y0035863D01*
X0139675Y0035735D01*
X0139499Y0035603D01*
X0139328Y0035467D01*
X0139159Y0035327D01*
X0138994Y0035183D01*
X0138833Y0035035D01*
X0138675Y0034883D01*
X0138521Y0034727D01*
X0138371Y0034567D01*
X0138224Y0034404D01*
X0138082Y0034237D01*
X0137944Y0034067D01*
X0137810Y0033893D01*
X0137680Y0033717D01*
X0137555Y0033537D01*
X0137434Y0033354D01*
X0137318Y0033168D01*
X0137206Y0032980D01*
X0137099Y0032789D01*
X0136996Y0032595D01*
X0136898Y0032399D01*
X0136805Y0032201D01*
X0136717Y0032000D01*
X0136634Y0031797D01*
X0136555Y0031592D01*
X0136482Y0031386D01*
X0136414Y0031178D01*
X0136351Y0030968D01*
X0136293Y0030756D01*
X0136240Y0030544D01*
X0136192Y0030330D01*
X0136150Y0030115D01*
X0136113Y0029899D01*
X0136081Y0029682D01*
X0136054Y0029464D01*
X0136033Y0029246D01*
X0136017Y0029028D01*
X0136006Y0028809D01*
X0136001Y0028590D01*
X0136001Y0028370D01*
X0136006Y0028151D01*
X0136017Y0027932D01*
X0136033Y0027714D01*
X0136054Y0027496D01*
X0136081Y0027278D01*
X0136113Y0027061D01*
X0136150Y0026845D01*
X0136192Y0026630D01*
X0136240Y0026416D01*
X0136293Y0026204D01*
X0136351Y0025992D01*
X0136414Y0025782D01*
X0136482Y0025574D01*
X0136555Y0025368D01*
X0136634Y0025163D01*
X0136717Y0024960D01*
X0136805Y0024759D01*
X0136898Y0024561D01*
X0136996Y0024365D01*
X0137099Y0024171D01*
X0137206Y0023980D01*
X0137318Y0023792D01*
X0137434Y0023606D01*
X0137555Y0023423D01*
X0137680Y0023243D01*
X0137810Y0023067D01*
X0137944Y0022893D01*
X0138082Y0022723D01*
X0138224Y0022556D01*
X0138371Y0022393D01*
X0138521Y0022233D01*
X0138675Y0022077D01*
X0138833Y0021925D01*
X0138994Y0021777D01*
X0139159Y0021633D01*
X0139328Y0021493D01*
X0139499Y0021357D01*
X0139675Y0021225D01*
X0139853Y0021097D01*
X0140034Y0020974D01*
X0140218Y0020855D01*
X0140405Y0020741D01*
X0140595Y0020632D01*
X0140788Y0020527D01*
X0140983Y0020426D01*
X0141180Y0020331D01*
X0141379Y0020240D01*
X0141581Y0020155D01*
X0141785Y0020074D01*
X0141991Y0019998D01*
X0142198Y0019927D01*
X0142407Y0019862D01*
X0142618Y0019801D01*
X0142830Y0019746D01*
X0143043Y0019695D01*
X0143258Y0019650D01*
X0143473Y0019610D01*
X0143690Y0019576D01*
X0143907Y0019547D01*
X0144125Y0019523D01*
X0144343Y0019504D01*
X0144562Y0019491D01*
X0144781Y0019483D01*
X0145000Y0019480D01*
X0172000Y0019480D01*
X0172219Y0019483D01*
X0172438Y0019491D01*
X0172657Y0019504D01*
X0172875Y0019523D01*
X0173093Y0019547D01*
X0173310Y0019576D01*
X0173527Y0019610D01*
X0173742Y0019650D01*
X0173957Y0019695D01*
X0174170Y0019746D01*
X0174382Y0019801D01*
X0174593Y0019862D01*
X0174802Y0019927D01*
X0175009Y0019998D01*
X0175215Y0020074D01*
X0175419Y0020155D01*
X0175621Y0020240D01*
X0175820Y0020331D01*
X0176017Y0020426D01*
X0176212Y0020527D01*
X0176405Y0020632D01*
X0176595Y0020741D01*
X0176782Y0020855D01*
X0176966Y0020974D01*
X0177147Y0021097D01*
X0177325Y0021225D01*
X0177501Y0021357D01*
X0177672Y0021493D01*
X0177841Y0021633D01*
X0178006Y0021777D01*
X0178167Y0021925D01*
X0178325Y0022077D01*
X0178479Y0022233D01*
X0178629Y0022393D01*
X0178776Y0022556D01*
X0178918Y0022723D01*
X0179056Y0022893D01*
X0179190Y0023067D01*
X0179320Y0023243D01*
X0179445Y0023423D01*
X0179566Y0023606D01*
X0179682Y0023792D01*
X0179794Y0023980D01*
X0179901Y0024171D01*
X0180004Y0024365D01*
X0180102Y0024561D01*
X0180195Y0024759D01*
X0180283Y0024960D01*
X0180366Y0025163D01*
X0180445Y0025368D01*
X0180518Y0025574D01*
X0180586Y0025782D01*
X0180649Y0025992D01*
X0180707Y0026204D01*
X0180760Y0026416D01*
X0180808Y0026630D01*
X0180850Y0026845D01*
X0180887Y0027061D01*
X0180919Y0027278D01*
X0180946Y0027496D01*
X0180967Y0027714D01*
X0180983Y0027932D01*
X0180994Y0028151D01*
X0180999Y0028370D01*
X0180999Y0028590D01*
X0180994Y0028809D01*
X0180983Y0029028D01*
X0180967Y0029246D01*
X0180946Y0029464D01*
X0180919Y0029682D01*
X0180887Y0029899D01*
X0180850Y0030115D01*
X0180808Y0030330D01*
X0180760Y0030544D01*
X0180707Y0030756D01*
X0180649Y0030968D01*
X0180586Y0031178D01*
X0180518Y0031386D01*
X0180445Y0031592D01*
X0180366Y0031797D01*
X0180283Y0032000D01*
X0180195Y0032201D01*
X0180102Y0032399D01*
X0180004Y0032595D01*
X0179901Y0032789D01*
X0179794Y0032980D01*
X0179682Y0033168D01*
X0179566Y0033354D01*
X0179445Y0033537D01*
X0179320Y0033717D01*
X0179190Y0033893D01*
X0179056Y0034067D01*
X0178918Y0034237D01*
X0178776Y0034404D01*
X0178629Y0034567D01*
X0178479Y0034727D01*
X0178325Y0034883D01*
X0178167Y0035035D01*
X0178006Y0035183D01*
X0177841Y0035327D01*
X0177672Y0035467D01*
X0177501Y0035603D01*
X0177325Y0035735D01*
X0177147Y0035863D01*
X0176966Y0035986D01*
X0176782Y0036105D01*
X0176595Y0036219D01*
X0176405Y0036328D01*
X0176212Y0036433D01*
X0176017Y0036534D01*
X0175820Y0036629D01*
X0175621Y0036720D01*
X0175419Y0036805D01*
X0175215Y0036886D01*
X0175009Y0036962D01*
X0174802Y0037033D01*
X0174593Y0037098D01*
X0174382Y0037159D01*
X0174170Y0037214D01*
X0173957Y0037265D01*
X0173742Y0037310D01*
X0173527Y0037350D01*
X0173310Y0037384D01*
X0173093Y0037413D01*
X0172875Y0037437D01*
X0172657Y0037456D01*
X0172438Y0037469D01*
X0172219Y0037477D01*
X0172000Y0037480D01*
X0189000Y0027480D02*
X0189000Y0019480D01*
X0189002Y0019420D01*
X0189007Y0019359D01*
X0189016Y0019300D01*
X0189029Y0019241D01*
X0189045Y0019182D01*
X0189065Y0019125D01*
X0189088Y0019070D01*
X0189115Y0019015D01*
X0189144Y0018963D01*
X0189177Y0018912D01*
X0189213Y0018863D01*
X0189251Y0018817D01*
X0189293Y0018773D01*
X0189337Y0018731D01*
X0189383Y0018693D01*
X0189432Y0018657D01*
X0189483Y0018624D01*
X0189535Y0018595D01*
X0189590Y0018568D01*
X0189645Y0018545D01*
X0189702Y0018525D01*
X0189761Y0018509D01*
X0189820Y0018496D01*
X0189879Y0018487D01*
X0189940Y0018482D01*
X0190000Y0018480D01*
X0207000Y0018480D01*
X0207060Y0018482D01*
X0207121Y0018487D01*
X0207180Y0018496D01*
X0207239Y0018509D01*
X0207298Y0018525D01*
X0207355Y0018545D01*
X0207410Y0018568D01*
X0207465Y0018595D01*
X0207517Y0018624D01*
X0207568Y0018657D01*
X0207617Y0018693D01*
X0207663Y0018731D01*
X0207707Y0018773D01*
X0207749Y0018817D01*
X0207787Y0018863D01*
X0207823Y0018912D01*
X0207856Y0018963D01*
X0207885Y0019015D01*
X0207912Y0019070D01*
X0207935Y0019125D01*
X0207955Y0019182D01*
X0207971Y0019241D01*
X0207984Y0019300D01*
X0207993Y0019359D01*
X0207998Y0019420D01*
X0208000Y0019480D01*
X0208000Y0027480D01*
X0207998Y0027540D01*
X0207993Y0027601D01*
X0207984Y0027660D01*
X0207971Y0027719D01*
X0207955Y0027778D01*
X0207935Y0027835D01*
X0207912Y0027890D01*
X0207885Y0027945D01*
X0207856Y0027997D01*
X0207823Y0028048D01*
X0207787Y0028097D01*
X0207749Y0028143D01*
X0207707Y0028187D01*
X0207663Y0028229D01*
X0207617Y0028267D01*
X0207568Y0028303D01*
X0207517Y0028336D01*
X0207465Y0028365D01*
X0207410Y0028392D01*
X0207355Y0028415D01*
X0207298Y0028435D01*
X0207239Y0028451D01*
X0207180Y0028464D01*
X0207121Y0028473D01*
X0207060Y0028478D01*
X0207000Y0028480D01*
X0190000Y0028480D01*
X0189940Y0028478D01*
X0189879Y0028473D01*
X0189820Y0028464D01*
X0189761Y0028451D01*
X0189702Y0028435D01*
X0189645Y0028415D01*
X0189590Y0028392D01*
X0189535Y0028365D01*
X0189483Y0028336D01*
X0189432Y0028303D01*
X0189383Y0028267D01*
X0189337Y0028229D01*
X0189293Y0028187D01*
X0189251Y0028143D01*
X0189213Y0028097D01*
X0189177Y0028048D01*
X0189144Y0027997D01*
X0189115Y0027945D01*
X0189088Y0027890D01*
X0189065Y0027835D01*
X0189045Y0027778D01*
X0189029Y0027719D01*
X0189016Y0027660D01*
X0189007Y0027601D01*
X0189002Y0027540D01*
X0189000Y0027480D01*
X0197000Y0023480D02*
X0197500Y0023480D01*
X0199500Y0023480D02*
X0200000Y0023480D01*
X0202250Y0031230D02*
X0205253Y0031230D01*
X0203751Y0031230D02*
X0203751Y0035734D01*
X0202250Y0034233D01*
X0206854Y0034984D02*
X0206854Y0031981D01*
X0209856Y0034984D01*
X0209856Y0031981D01*
X0209106Y0031230D01*
X0207605Y0031230D01*
X0206854Y0031981D01*
X0206854Y0034984D02*
X0207605Y0035734D01*
X0209106Y0035734D01*
X0209856Y0034984D01*
X0211458Y0034233D02*
X0211458Y0031981D01*
X0212208Y0031230D01*
X0214460Y0031230D01*
X0214460Y0034233D01*
X0208356Y0015734D02*
X0206855Y0015734D01*
X0206104Y0014984D01*
X0206104Y0011981D01*
X0209106Y0014984D01*
X0209106Y0011981D01*
X0208356Y0011230D01*
X0206855Y0011230D01*
X0206104Y0011981D01*
X0204503Y0011230D02*
X0201500Y0011230D01*
X0203001Y0011230D02*
X0203001Y0015734D01*
X0201500Y0014233D01*
X0196606Y0013983D02*
X0195856Y0013232D01*
X0196606Y0012482D01*
X0196606Y0011731D01*
X0195856Y0010980D01*
X0194355Y0010980D01*
X0193604Y0011731D01*
X0192003Y0011731D02*
X0191252Y0010980D01*
X0189751Y0010980D01*
X0189000Y0011731D01*
X0189000Y0014734D01*
X0189751Y0015484D01*
X0191252Y0015484D01*
X0192003Y0014734D01*
X0193604Y0014734D02*
X0194355Y0015484D01*
X0195856Y0015484D01*
X0196606Y0014734D01*
X0196606Y0013983D01*
X0195856Y0013232D02*
X0195105Y0013232D01*
X0208356Y0015734D02*
X0209106Y0014984D01*
X0210708Y0014233D02*
X0212960Y0014233D01*
X0213710Y0013482D01*
X0213710Y0011230D01*
X0210708Y0011230D02*
X0210708Y0014233D01*
X0144418Y0066230D02*
X0144418Y0070734D01*
X0142166Y0068482D01*
X0145168Y0068482D01*
X0140564Y0067732D02*
X0140564Y0066981D01*
X0139814Y0066230D01*
X0138312Y0066230D01*
X0137562Y0066981D01*
X0137562Y0067732D01*
X0138312Y0068482D01*
X0139814Y0068482D01*
X0140564Y0067732D01*
X0139814Y0068482D02*
X0140564Y0069233D01*
X0140564Y0069984D01*
X0139814Y0070734D01*
X0138312Y0070734D01*
X0137562Y0069984D01*
X0137562Y0069233D01*
X0138312Y0068482D01*
X0135960Y0070734D02*
X0132958Y0070734D01*
X0132958Y0066230D01*
X0131356Y0066981D02*
X0131356Y0067732D01*
X0130606Y0068482D01*
X0128354Y0068482D01*
X0128354Y0066981D01*
X0129105Y0066230D01*
X0130606Y0066230D01*
X0131356Y0066981D01*
X0132958Y0068482D02*
X0134459Y0068482D01*
X0131356Y0070734D02*
X0129855Y0069984D01*
X0128354Y0068482D01*
X0125251Y0070734D02*
X0125251Y0066230D01*
X0123750Y0066230D02*
X0126753Y0066230D01*
X0123750Y0069233D02*
X0125251Y0070734D01*
X0125251Y0074430D02*
X0123750Y0074430D01*
X0124501Y0074430D02*
X0124501Y0078934D01*
X0125251Y0078934D02*
X0123750Y0078934D01*
X0126819Y0078184D02*
X0126819Y0075181D01*
X0127570Y0074430D01*
X0129071Y0074430D01*
X0129822Y0075181D01*
X0131423Y0074430D02*
X0134426Y0074430D01*
X0132924Y0074430D02*
X0132924Y0078934D01*
X0131423Y0077433D01*
X0129822Y0078184D02*
X0129071Y0078934D01*
X0127570Y0078934D01*
X0126819Y0078184D01*
X0100850Y0049435D02*
X0100850Y0044931D01*
X0100850Y0046432D02*
X0103102Y0047933D01*
X0100850Y0046432D02*
X0103102Y0044931D01*
X0103500Y0042980D02*
X0105000Y0042980D01*
X0105060Y0042978D01*
X0105121Y0042973D01*
X0105180Y0042964D01*
X0105239Y0042951D01*
X0105298Y0042935D01*
X0105355Y0042915D01*
X0105410Y0042892D01*
X0105465Y0042865D01*
X0105517Y0042836D01*
X0105568Y0042803D01*
X0105617Y0042767D01*
X0105663Y0042729D01*
X0105707Y0042687D01*
X0105749Y0042643D01*
X0105787Y0042597D01*
X0105823Y0042548D01*
X0105856Y0042497D01*
X0105885Y0042445D01*
X0105912Y0042390D01*
X0105935Y0042335D01*
X0105955Y0042278D01*
X0105971Y0042219D01*
X0105984Y0042160D01*
X0105993Y0042101D01*
X0105998Y0042040D01*
X0106000Y0041980D01*
X0106000Y0034980D01*
X0105998Y0034920D01*
X0105993Y0034859D01*
X0105984Y0034800D01*
X0105971Y0034741D01*
X0105955Y0034682D01*
X0105935Y0034625D01*
X0105912Y0034570D01*
X0105885Y0034515D01*
X0105856Y0034463D01*
X0105823Y0034412D01*
X0105787Y0034363D01*
X0105749Y0034317D01*
X0105707Y0034273D01*
X0105663Y0034231D01*
X0105617Y0034193D01*
X0105568Y0034157D01*
X0105517Y0034124D01*
X0105465Y0034095D01*
X0105410Y0034068D01*
X0105355Y0034045D01*
X0105298Y0034025D01*
X0105239Y0034009D01*
X0105180Y0033996D01*
X0105121Y0033987D01*
X0105060Y0033982D01*
X0105000Y0033980D01*
X0103500Y0033980D01*
X0103000Y0034480D01*
X0084000Y0034480D01*
X0083500Y0033980D01*
X0082000Y0033980D01*
X0081940Y0033982D01*
X0081879Y0033987D01*
X0081820Y0033996D01*
X0081761Y0034009D01*
X0081702Y0034025D01*
X0081645Y0034045D01*
X0081590Y0034068D01*
X0081535Y0034095D01*
X0081483Y0034124D01*
X0081432Y0034157D01*
X0081383Y0034193D01*
X0081337Y0034231D01*
X0081293Y0034273D01*
X0081251Y0034317D01*
X0081213Y0034363D01*
X0081177Y0034412D01*
X0081144Y0034463D01*
X0081115Y0034515D01*
X0081088Y0034570D01*
X0081065Y0034625D01*
X0081045Y0034682D01*
X0081029Y0034741D01*
X0081016Y0034800D01*
X0081007Y0034859D01*
X0081002Y0034920D01*
X0081000Y0034980D01*
X0081000Y0041980D01*
X0081002Y0042040D01*
X0081007Y0042101D01*
X0081016Y0042160D01*
X0081029Y0042219D01*
X0081045Y0042278D01*
X0081065Y0042335D01*
X0081088Y0042390D01*
X0081115Y0042445D01*
X0081144Y0042497D01*
X0081177Y0042548D01*
X0081213Y0042597D01*
X0081251Y0042643D01*
X0081293Y0042687D01*
X0081337Y0042729D01*
X0081383Y0042767D01*
X0081432Y0042803D01*
X0081483Y0042836D01*
X0081535Y0042865D01*
X0081590Y0042892D01*
X0081645Y0042915D01*
X0081702Y0042935D01*
X0081761Y0042951D01*
X0081820Y0042964D01*
X0081879Y0042973D01*
X0081940Y0042978D01*
X0082000Y0042980D01*
X0083500Y0042980D01*
X0084000Y0042480D01*
X0103000Y0042480D01*
X0103500Y0042980D01*
X0099249Y0044931D02*
X0096246Y0044931D01*
X0099249Y0047933D01*
X0099249Y0048684D01*
X0098498Y0049435D01*
X0096997Y0049435D01*
X0096246Y0048684D01*
X0092343Y0048684D02*
X0092343Y0047933D01*
X0089341Y0044931D01*
X0092343Y0044931D01*
X0093944Y0044931D02*
X0094695Y0044931D01*
X0094695Y0045681D01*
X0093944Y0045681D01*
X0093944Y0044931D01*
X0092343Y0048684D02*
X0091592Y0049435D01*
X0090091Y0049435D01*
X0089341Y0048684D01*
X0083463Y0045011D02*
X0080460Y0045011D01*
X0081962Y0045011D02*
X0081962Y0049515D01*
X0080460Y0048014D01*
X0078859Y0048764D02*
X0078859Y0047263D01*
X0078108Y0046512D01*
X0075856Y0046512D01*
X0075856Y0045011D02*
X0075856Y0049515D01*
X0078108Y0049515D01*
X0078859Y0048764D01*
X0077358Y0046512D02*
X0078859Y0045011D01*
X0177250Y0088730D02*
X0180253Y0088730D01*
X0178751Y0088730D02*
X0178751Y0093234D01*
X0177250Y0091733D01*
X0178001Y0095730D02*
X0179502Y0095730D01*
X0180253Y0096481D01*
X0181854Y0095730D02*
X0184856Y0098733D01*
X0184856Y0099484D01*
X0184106Y0100234D01*
X0182605Y0100234D01*
X0181854Y0099484D01*
X0180253Y0099484D02*
X0179502Y0100234D01*
X0178001Y0100234D01*
X0177250Y0099484D01*
X0177250Y0096481D01*
X0178001Y0095730D01*
X0181854Y0095730D02*
X0184856Y0095730D01*
X0184106Y0093234D02*
X0182605Y0093234D01*
X0181854Y0092484D01*
X0181854Y0089481D01*
X0184856Y0092484D01*
X0184856Y0089481D01*
X0184106Y0088730D01*
X0182605Y0088730D01*
X0181854Y0089481D01*
X0184856Y0092484D02*
X0184106Y0093234D01*
X0186458Y0091733D02*
X0186458Y0089481D01*
X0187208Y0088730D01*
X0189460Y0088730D01*
X0189460Y0091733D01*
X0192000Y0096980D02*
X0192000Y0098480D01*
X0192000Y0099980D01*
X0192000Y0098480D02*
X0193500Y0098480D01*
X0192000Y0098480D02*
X0190500Y0098480D01*
X0187500Y0093480D02*
X0187503Y0093750D01*
X0187513Y0094020D01*
X0187530Y0094289D01*
X0187553Y0094558D01*
X0187583Y0094827D01*
X0187619Y0095094D01*
X0187662Y0095361D01*
X0187711Y0095626D01*
X0187767Y0095890D01*
X0187830Y0096153D01*
X0187898Y0096414D01*
X0187974Y0096673D01*
X0188055Y0096930D01*
X0188143Y0097186D01*
X0188237Y0097439D01*
X0188337Y0097690D01*
X0188444Y0097938D01*
X0188556Y0098183D01*
X0188675Y0098426D01*
X0188799Y0098665D01*
X0188929Y0098902D01*
X0189065Y0099135D01*
X0189207Y0099365D01*
X0189354Y0099591D01*
X0189507Y0099814D01*
X0189665Y0100033D01*
X0189828Y0100248D01*
X0189997Y0100458D01*
X0190171Y0100665D01*
X0190350Y0100867D01*
X0190533Y0101065D01*
X0190722Y0101258D01*
X0190915Y0101447D01*
X0191113Y0101630D01*
X0191315Y0101809D01*
X0191522Y0101983D01*
X0191732Y0102152D01*
X0191947Y0102315D01*
X0192166Y0102473D01*
X0192389Y0102626D01*
X0192615Y0102773D01*
X0192845Y0102915D01*
X0193078Y0103051D01*
X0193315Y0103181D01*
X0193554Y0103305D01*
X0193797Y0103424D01*
X0194042Y0103536D01*
X0194290Y0103643D01*
X0194541Y0103743D01*
X0194794Y0103837D01*
X0195050Y0103925D01*
X0195307Y0104006D01*
X0195566Y0104082D01*
X0195827Y0104150D01*
X0196090Y0104213D01*
X0196354Y0104269D01*
X0196619Y0104318D01*
X0196886Y0104361D01*
X0197153Y0104397D01*
X0197422Y0104427D01*
X0197691Y0104450D01*
X0197960Y0104467D01*
X0198230Y0104477D01*
X0198500Y0104480D01*
X0198770Y0104477D01*
X0199040Y0104467D01*
X0199309Y0104450D01*
X0199578Y0104427D01*
X0199847Y0104397D01*
X0200114Y0104361D01*
X0200381Y0104318D01*
X0200646Y0104269D01*
X0200910Y0104213D01*
X0201173Y0104150D01*
X0201434Y0104082D01*
X0201693Y0104006D01*
X0201950Y0103925D01*
X0202206Y0103837D01*
X0202459Y0103743D01*
X0202710Y0103643D01*
X0202958Y0103536D01*
X0203203Y0103424D01*
X0203446Y0103305D01*
X0203685Y0103181D01*
X0203922Y0103051D01*
X0204155Y0102915D01*
X0204385Y0102773D01*
X0204611Y0102626D01*
X0204834Y0102473D01*
X0205053Y0102315D01*
X0205268Y0102152D01*
X0205478Y0101983D01*
X0205685Y0101809D01*
X0205887Y0101630D01*
X0206085Y0101447D01*
X0206278Y0101258D01*
X0206467Y0101065D01*
X0206650Y0100867D01*
X0206829Y0100665D01*
X0207003Y0100458D01*
X0207172Y0100248D01*
X0207335Y0100033D01*
X0207493Y0099814D01*
X0207646Y0099591D01*
X0207793Y0099365D01*
X0207935Y0099135D01*
X0208071Y0098902D01*
X0208201Y0098665D01*
X0208325Y0098426D01*
X0208444Y0098183D01*
X0208556Y0097938D01*
X0208663Y0097690D01*
X0208763Y0097439D01*
X0208857Y0097186D01*
X0208945Y0096930D01*
X0209026Y0096673D01*
X0209102Y0096414D01*
X0209170Y0096153D01*
X0209233Y0095890D01*
X0209289Y0095626D01*
X0209338Y0095361D01*
X0209381Y0095094D01*
X0209417Y0094827D01*
X0209447Y0094558D01*
X0209470Y0094289D01*
X0209487Y0094020D01*
X0209497Y0093750D01*
X0209500Y0093480D01*
X0209497Y0093210D01*
X0209487Y0092940D01*
X0209470Y0092671D01*
X0209447Y0092402D01*
X0209417Y0092133D01*
X0209381Y0091866D01*
X0209338Y0091599D01*
X0209289Y0091334D01*
X0209233Y0091070D01*
X0209170Y0090807D01*
X0209102Y0090546D01*
X0209026Y0090287D01*
X0208945Y0090030D01*
X0208857Y0089774D01*
X0208763Y0089521D01*
X0208663Y0089270D01*
X0208556Y0089022D01*
X0208444Y0088777D01*
X0208325Y0088534D01*
X0208201Y0088295D01*
X0208071Y0088058D01*
X0207935Y0087825D01*
X0207793Y0087595D01*
X0207646Y0087369D01*
X0207493Y0087146D01*
X0207335Y0086927D01*
X0207172Y0086712D01*
X0207003Y0086502D01*
X0206829Y0086295D01*
X0206650Y0086093D01*
X0206467Y0085895D01*
X0206278Y0085702D01*
X0206085Y0085513D01*
X0205887Y0085330D01*
X0205685Y0085151D01*
X0205478Y0084977D01*
X0205268Y0084808D01*
X0205053Y0084645D01*
X0204834Y0084487D01*
X0204611Y0084334D01*
X0204385Y0084187D01*
X0204155Y0084045D01*
X0203922Y0083909D01*
X0203685Y0083779D01*
X0203446Y0083655D01*
X0203203Y0083536D01*
X0202958Y0083424D01*
X0202710Y0083317D01*
X0202459Y0083217D01*
X0202206Y0083123D01*
X0201950Y0083035D01*
X0201693Y0082954D01*
X0201434Y0082878D01*
X0201173Y0082810D01*
X0200910Y0082747D01*
X0200646Y0082691D01*
X0200381Y0082642D01*
X0200114Y0082599D01*
X0199847Y0082563D01*
X0199578Y0082533D01*
X0199309Y0082510D01*
X0199040Y0082493D01*
X0198770Y0082483D01*
X0198500Y0082480D01*
X0198230Y0082483D01*
X0197960Y0082493D01*
X0197691Y0082510D01*
X0197422Y0082533D01*
X0197153Y0082563D01*
X0196886Y0082599D01*
X0196619Y0082642D01*
X0196354Y0082691D01*
X0196090Y0082747D01*
X0195827Y0082810D01*
X0195566Y0082878D01*
X0195307Y0082954D01*
X0195050Y0083035D01*
X0194794Y0083123D01*
X0194541Y0083217D01*
X0194290Y0083317D01*
X0194042Y0083424D01*
X0193797Y0083536D01*
X0193554Y0083655D01*
X0193315Y0083779D01*
X0193078Y0083909D01*
X0192845Y0084045D01*
X0192615Y0084187D01*
X0192389Y0084334D01*
X0192166Y0084487D01*
X0191947Y0084645D01*
X0191732Y0084808D01*
X0191522Y0084977D01*
X0191315Y0085151D01*
X0191113Y0085330D01*
X0190915Y0085513D01*
X0190722Y0085702D01*
X0190533Y0085895D01*
X0190350Y0086093D01*
X0190171Y0086295D01*
X0189997Y0086502D01*
X0189828Y0086712D01*
X0189665Y0086927D01*
X0189507Y0087146D01*
X0189354Y0087369D01*
X0189207Y0087595D01*
X0189065Y0087825D01*
X0188929Y0088058D01*
X0188799Y0088295D01*
X0188675Y0088534D01*
X0188556Y0088777D01*
X0188444Y0089022D01*
X0188337Y0089270D01*
X0188237Y0089521D01*
X0188143Y0089774D01*
X0188055Y0090030D01*
X0187974Y0090287D01*
X0187898Y0090546D01*
X0187830Y0090807D01*
X0187767Y0091070D01*
X0187711Y0091334D01*
X0187662Y0091599D01*
X0187619Y0091866D01*
X0187583Y0092133D01*
X0187553Y0092402D01*
X0187530Y0092671D01*
X0187513Y0092940D01*
X0187503Y0093210D01*
X0187500Y0093480D01*
X0184898Y0107730D02*
X0184898Y0112234D01*
X0182646Y0109982D01*
X0185649Y0109982D01*
X0189000Y0109480D02*
X0189000Y0117480D01*
X0189002Y0117540D01*
X0189007Y0117601D01*
X0189016Y0117660D01*
X0189029Y0117719D01*
X0189045Y0117778D01*
X0189065Y0117835D01*
X0189088Y0117890D01*
X0189115Y0117945D01*
X0189144Y0117997D01*
X0189177Y0118048D01*
X0189213Y0118097D01*
X0189251Y0118143D01*
X0189293Y0118187D01*
X0189337Y0118229D01*
X0189383Y0118267D01*
X0189432Y0118303D01*
X0189483Y0118336D01*
X0189535Y0118365D01*
X0189590Y0118392D01*
X0189645Y0118415D01*
X0189702Y0118435D01*
X0189761Y0118451D01*
X0189820Y0118464D01*
X0189879Y0118473D01*
X0189940Y0118478D01*
X0190000Y0118480D01*
X0207000Y0118480D01*
X0207060Y0118478D01*
X0207121Y0118473D01*
X0207180Y0118464D01*
X0207239Y0118451D01*
X0207298Y0118435D01*
X0207355Y0118415D01*
X0207410Y0118392D01*
X0207465Y0118365D01*
X0207517Y0118336D01*
X0207568Y0118303D01*
X0207617Y0118267D01*
X0207663Y0118229D01*
X0207707Y0118187D01*
X0207749Y0118143D01*
X0207787Y0118097D01*
X0207823Y0118048D01*
X0207856Y0117997D01*
X0207885Y0117945D01*
X0207912Y0117890D01*
X0207935Y0117835D01*
X0207955Y0117778D01*
X0207971Y0117719D01*
X0207984Y0117660D01*
X0207993Y0117601D01*
X0207998Y0117540D01*
X0208000Y0117480D01*
X0208000Y0109480D01*
X0207998Y0109420D01*
X0207993Y0109359D01*
X0207984Y0109300D01*
X0207971Y0109241D01*
X0207955Y0109182D01*
X0207935Y0109125D01*
X0207912Y0109070D01*
X0207885Y0109015D01*
X0207856Y0108963D01*
X0207823Y0108912D01*
X0207787Y0108863D01*
X0207749Y0108817D01*
X0207707Y0108773D01*
X0207663Y0108731D01*
X0207617Y0108693D01*
X0207568Y0108657D01*
X0207517Y0108624D01*
X0207465Y0108595D01*
X0207410Y0108568D01*
X0207355Y0108545D01*
X0207298Y0108525D01*
X0207239Y0108509D01*
X0207180Y0108496D01*
X0207121Y0108487D01*
X0207060Y0108482D01*
X0207000Y0108480D01*
X0190000Y0108480D01*
X0189940Y0108482D01*
X0189879Y0108487D01*
X0189820Y0108496D01*
X0189761Y0108509D01*
X0189702Y0108525D01*
X0189645Y0108545D01*
X0189590Y0108568D01*
X0189535Y0108595D01*
X0189483Y0108624D01*
X0189432Y0108657D01*
X0189383Y0108693D01*
X0189337Y0108731D01*
X0189293Y0108773D01*
X0189251Y0108817D01*
X0189213Y0108863D01*
X0189177Y0108912D01*
X0189144Y0108963D01*
X0189115Y0109015D01*
X0189088Y0109070D01*
X0189065Y0109125D01*
X0189045Y0109182D01*
X0189029Y0109241D01*
X0189016Y0109300D01*
X0189007Y0109359D01*
X0189002Y0109420D01*
X0189000Y0109480D01*
X0185649Y0113730D02*
X0185649Y0115982D01*
X0184898Y0116733D01*
X0182646Y0116733D01*
X0182646Y0113730D01*
X0181045Y0114481D02*
X0180294Y0113730D01*
X0178793Y0113730D01*
X0178042Y0114481D01*
X0181045Y0117484D01*
X0181045Y0114481D01*
X0178042Y0114481D02*
X0178042Y0117484D01*
X0178793Y0118234D01*
X0180294Y0118234D01*
X0181045Y0117484D01*
X0176441Y0113730D02*
X0173438Y0113730D01*
X0174939Y0113730D02*
X0174939Y0118234D01*
X0173438Y0116733D01*
X0178042Y0111484D02*
X0178042Y0108481D01*
X0178793Y0107730D01*
X0180294Y0107730D01*
X0181045Y0108481D01*
X0181045Y0111484D02*
X0180294Y0112234D01*
X0178793Y0112234D01*
X0178042Y0111484D01*
X0197000Y0113480D02*
X0197500Y0113480D01*
X0199500Y0113480D02*
X0200000Y0113480D01*
X0200593Y0126530D02*
X0201343Y0126530D01*
X0202094Y0127281D01*
X0202094Y0131034D01*
X0201343Y0131034D02*
X0202845Y0131034D01*
X0204446Y0129533D02*
X0205947Y0131034D01*
X0205947Y0126530D01*
X0204446Y0126530D02*
X0207449Y0126530D01*
X0200593Y0126530D02*
X0199842Y0127281D01*
X0201000Y0133480D02*
X0198500Y0135980D01*
X0196000Y0133480D01*
X0191000Y0133480D01*
X0188500Y0135980D01*
X0188500Y0140980D01*
X0191000Y0143480D01*
X0196000Y0143480D01*
X0198500Y0140980D01*
X0201000Y0143480D01*
X0206000Y0143480D01*
X0208500Y0140980D01*
X0208500Y0135980D01*
X0206000Y0133480D01*
X0201000Y0133480D01*
X0198500Y0135980D02*
X0198500Y0140980D01*
X0188500Y0140980D02*
X0186000Y0143480D01*
X0181000Y0143480D01*
X0178500Y0140980D01*
X0176000Y0143480D01*
X0171000Y0143480D01*
X0168500Y0140980D01*
X0166000Y0143480D01*
X0161000Y0143480D01*
X0158500Y0140980D01*
X0158500Y0135980D01*
X0161000Y0133480D01*
X0166000Y0133480D01*
X0168500Y0135980D01*
X0168500Y0140980D01*
X0168500Y0135980D02*
X0171000Y0133480D01*
X0176000Y0133480D01*
X0178500Y0135980D01*
X0178500Y0140980D01*
X0178500Y0135980D02*
X0181000Y0133480D01*
X0186000Y0133480D01*
X0188500Y0135980D01*
X0158500Y0135980D02*
X0156000Y0133480D01*
X0151000Y0133480D01*
X0148500Y0135980D01*
X0146000Y0133480D01*
X0141000Y0133480D01*
X0138500Y0135980D01*
X0136000Y0133480D01*
X0131000Y0133480D01*
X0128500Y0135980D01*
X0128500Y0140980D01*
X0131000Y0143480D01*
X0136000Y0143480D01*
X0138500Y0140980D01*
X0141000Y0143480D01*
X0146000Y0143480D01*
X0148500Y0140980D01*
X0151000Y0143480D01*
X0156000Y0143480D01*
X0158500Y0140980D01*
X0148500Y0140980D02*
X0148500Y0135980D01*
X0138500Y0135980D02*
X0138500Y0140980D01*
X0128500Y0140980D02*
X0126000Y0143480D01*
X0121000Y0143480D01*
X0118500Y0140980D01*
X0116000Y0143480D01*
X0111000Y0143480D01*
X0108500Y0140980D01*
X0106000Y0143480D01*
X0101000Y0143480D01*
X0098500Y0140980D01*
X0098500Y0135980D01*
X0101000Y0133480D01*
X0106000Y0133480D01*
X0108500Y0135980D01*
X0108500Y0140980D01*
X0108500Y0135980D02*
X0111000Y0133480D01*
X0116000Y0133480D01*
X0118500Y0135980D01*
X0118500Y0140980D01*
X0118500Y0135980D02*
X0121000Y0133480D01*
X0126000Y0133480D01*
X0128500Y0135980D01*
X0098500Y0135980D02*
X0096000Y0133480D01*
X0091000Y0133480D01*
X0088500Y0135980D01*
X0086000Y0133480D01*
X0081000Y0133480D01*
X0078500Y0135980D01*
X0076000Y0133480D01*
X0071000Y0133480D01*
X0068500Y0135980D01*
X0068500Y0140980D01*
X0071000Y0143480D01*
X0076000Y0143480D01*
X0078500Y0140980D01*
X0081000Y0143480D01*
X0086000Y0143480D01*
X0088500Y0140980D01*
X0091000Y0143480D01*
X0096000Y0143480D01*
X0098500Y0140980D01*
X0088500Y0140980D02*
X0088500Y0135980D01*
X0078500Y0135980D02*
X0078500Y0140980D01*
X0068500Y0140980D02*
X0066000Y0143480D01*
X0061000Y0143480D01*
X0058500Y0140980D01*
X0056000Y0143480D01*
X0051000Y0143480D01*
X0048500Y0140980D01*
X0046000Y0143480D01*
X0041000Y0143480D01*
X0038500Y0140980D01*
X0038500Y0135980D01*
X0041000Y0133480D01*
X0046000Y0133480D01*
X0048500Y0135980D01*
X0048500Y0140980D01*
X0048500Y0135980D02*
X0051000Y0133480D01*
X0056000Y0133480D01*
X0058500Y0135980D01*
X0058500Y0140980D01*
X0058500Y0135980D02*
X0061000Y0133480D01*
X0066000Y0133480D01*
X0068500Y0135980D01*
X0038500Y0135980D02*
X0036000Y0133480D01*
X0031000Y0133480D01*
X0028500Y0135980D01*
X0026000Y0133480D01*
X0021000Y0133480D01*
X0018500Y0135980D01*
X0016000Y0133480D01*
X0011000Y0133480D01*
X0008500Y0135980D01*
X0008500Y0140980D01*
X0011000Y0143480D01*
X0016000Y0143480D01*
X0018500Y0140980D01*
X0021000Y0143480D01*
X0026000Y0143480D01*
X0028500Y0140980D01*
X0031000Y0143480D01*
X0036000Y0143480D01*
X0038500Y0140980D01*
X0028500Y0140980D02*
X0028500Y0135980D01*
X0018500Y0135980D02*
X0018500Y0140980D01*
X0197500Y0078932D02*
X0197500Y0077353D01*
X0197500Y0069607D02*
X0197500Y0067353D01*
D11*
X0156232Y0067916D02*
X0155498Y0067182D01*
X0154030Y0067182D01*
X0153296Y0067916D01*
X0153296Y0068650D01*
X0154030Y0069384D01*
X0155498Y0069384D01*
X0156232Y0068650D01*
X0156232Y0067916D01*
X0155498Y0067182D02*
X0156232Y0066448D01*
X0156232Y0065714D01*
X0155498Y0064980D01*
X0154030Y0064980D01*
X0153296Y0065714D01*
X0153296Y0066448D01*
X0154030Y0067182D01*
X0151628Y0064980D02*
X0148692Y0064980D01*
X0150160Y0064980D02*
X0150160Y0069384D01*
X0148692Y0067916D01*
X0150396Y0077480D02*
X0153332Y0077480D01*
X0151864Y0077480D02*
X0151864Y0081884D01*
X0150396Y0080416D01*
X0074632Y0079682D02*
X0072430Y0079682D01*
X0071696Y0080416D01*
X0071696Y0081150D01*
X0072430Y0081884D01*
X0073898Y0081884D01*
X0074632Y0081150D01*
X0074632Y0078214D01*
X0073898Y0077480D01*
X0072430Y0077480D01*
X0071696Y0078214D01*
X0072930Y0069384D02*
X0072196Y0068650D01*
X0072196Y0065714D01*
X0075132Y0068650D01*
X0075132Y0065714D01*
X0074398Y0064980D01*
X0072930Y0064980D01*
X0072196Y0065714D01*
X0070528Y0064980D02*
X0067592Y0064980D01*
X0069060Y0064980D02*
X0069060Y0069384D01*
X0067592Y0067916D01*
X0072930Y0069384D02*
X0074398Y0069384D01*
X0075132Y0068650D01*
D12*
X0191881Y0060042D02*
X0192159Y0060396D01*
X0192159Y0060395D02*
X0192359Y0060242D01*
X0192562Y0060094D01*
X0192769Y0059952D01*
X0192980Y0059814D01*
X0193194Y0059681D01*
X0193411Y0059554D01*
X0193631Y0059432D01*
X0193854Y0059316D01*
X0194079Y0059205D01*
X0194308Y0059099D01*
X0194539Y0058999D01*
X0194772Y0058905D01*
X0195007Y0058817D01*
X0195245Y0058734D01*
X0195485Y0058657D01*
X0195726Y0058587D01*
X0195969Y0058522D01*
X0196213Y0058463D01*
X0196459Y0058410D01*
X0196707Y0058363D01*
X0196955Y0058322D01*
X0197204Y0058287D01*
X0197454Y0058258D01*
X0197704Y0058236D01*
X0197955Y0058219D01*
X0198207Y0058209D01*
X0198458Y0058205D01*
X0198710Y0058207D01*
X0198961Y0058215D01*
X0199212Y0058230D01*
X0199463Y0058250D01*
X0199713Y0058277D01*
X0199963Y0058310D01*
X0200211Y0058348D01*
X0200459Y0058393D01*
X0200705Y0058444D01*
X0200950Y0058501D01*
X0201194Y0058564D01*
X0201435Y0058633D01*
X0201676Y0058708D01*
X0201914Y0058789D01*
X0202150Y0058875D01*
X0202384Y0058967D01*
X0202616Y0059065D01*
X0202845Y0059169D01*
X0203072Y0059278D01*
X0203296Y0059393D01*
X0203517Y0059513D01*
X0203735Y0059638D01*
X0203950Y0059769D01*
X0204161Y0059905D01*
X0204369Y0060046D01*
X0204574Y0060193D01*
X0204775Y0060344D01*
X0204972Y0060500D01*
X0205166Y0060661D01*
X0205355Y0060826D01*
X0205541Y0060996D01*
X0205722Y0061171D01*
X0205898Y0061350D01*
X0206071Y0061533D01*
X0206239Y0061721D01*
X0206402Y0061912D01*
X0206560Y0062107D01*
X0206714Y0062307D01*
X0206862Y0062510D01*
X0207006Y0062716D01*
X0207145Y0062926D01*
X0207278Y0063139D01*
X0207406Y0063356D01*
X0207529Y0063575D01*
X0207646Y0063798D01*
X0207758Y0064023D01*
X0207864Y0064251D01*
X0207965Y0064482D01*
X0208060Y0064715D01*
X0208150Y0064950D01*
X0208233Y0065187D01*
X0208311Y0065426D01*
X0208740Y0065294D01*
X0208741Y0065294D01*
X0208660Y0065044D01*
X0208572Y0064796D01*
X0208479Y0064551D01*
X0208380Y0064308D01*
X0208275Y0064067D01*
X0208164Y0063829D01*
X0208047Y0063594D01*
X0207925Y0063361D01*
X0207797Y0063132D01*
X0207663Y0062906D01*
X0207524Y0062684D01*
X0207379Y0062464D01*
X0207229Y0062249D01*
X0207074Y0062037D01*
X0206914Y0061829D01*
X0206748Y0061625D01*
X0206578Y0061425D01*
X0206403Y0061229D01*
X0206223Y0061038D01*
X0206038Y0060851D01*
X0205849Y0060669D01*
X0205656Y0060491D01*
X0205458Y0060319D01*
X0205256Y0060151D01*
X0205050Y0059988D01*
X0204840Y0059830D01*
X0204627Y0059677D01*
X0204409Y0059530D01*
X0204189Y0059388D01*
X0203964Y0059251D01*
X0203737Y0059120D01*
X0203506Y0058995D01*
X0203272Y0058875D01*
X0203036Y0058761D01*
X0202796Y0058653D01*
X0202554Y0058551D01*
X0202310Y0058455D01*
X0202063Y0058364D01*
X0201815Y0058280D01*
X0201564Y0058202D01*
X0201311Y0058130D01*
X0201057Y0058064D01*
X0200801Y0058005D01*
X0200544Y0057952D01*
X0200286Y0057905D01*
X0200026Y0057864D01*
X0199766Y0057830D01*
X0199505Y0057802D01*
X0199243Y0057781D01*
X0198981Y0057766D01*
X0198719Y0057757D01*
X0198456Y0057755D01*
X0198193Y0057759D01*
X0197931Y0057770D01*
X0197669Y0057787D01*
X0197408Y0057811D01*
X0197147Y0057841D01*
X0196887Y0057877D01*
X0196627Y0057920D01*
X0196369Y0057969D01*
X0196113Y0058024D01*
X0195857Y0058086D01*
X0195604Y0058153D01*
X0195352Y0058227D01*
X0195102Y0058308D01*
X0194854Y0058394D01*
X0194608Y0058486D01*
X0194364Y0058584D01*
X0194123Y0058689D01*
X0193885Y0058799D01*
X0193649Y0058915D01*
X0193417Y0059036D01*
X0193187Y0059164D01*
X0192960Y0059296D01*
X0192737Y0059435D01*
X0192517Y0059579D01*
X0192301Y0059728D01*
X0192089Y0059882D01*
X0191880Y0060042D01*
X0191909Y0060079D01*
X0192117Y0059920D01*
X0192329Y0059766D01*
X0192544Y0059618D01*
X0192762Y0059474D01*
X0192985Y0059337D01*
X0193210Y0059204D01*
X0193439Y0059078D01*
X0193671Y0058957D01*
X0193905Y0058841D01*
X0194143Y0058732D01*
X0194383Y0058628D01*
X0194625Y0058530D01*
X0194870Y0058438D01*
X0195117Y0058352D01*
X0195366Y0058272D01*
X0195617Y0058199D01*
X0195869Y0058131D01*
X0196123Y0058070D01*
X0196379Y0058015D01*
X0196636Y0057966D01*
X0196894Y0057924D01*
X0197153Y0057887D01*
X0197412Y0057858D01*
X0197673Y0057834D01*
X0197934Y0057817D01*
X0198195Y0057806D01*
X0198456Y0057802D01*
X0198718Y0057804D01*
X0198979Y0057813D01*
X0199240Y0057828D01*
X0199501Y0057849D01*
X0199761Y0057877D01*
X0200020Y0057911D01*
X0200278Y0057951D01*
X0200535Y0057998D01*
X0200791Y0058051D01*
X0201046Y0058110D01*
X0201299Y0058175D01*
X0201551Y0058247D01*
X0201800Y0058325D01*
X0202048Y0058409D01*
X0202293Y0058499D01*
X0202537Y0058594D01*
X0202777Y0058696D01*
X0203016Y0058804D01*
X0203251Y0058917D01*
X0203484Y0059036D01*
X0203714Y0059161D01*
X0203940Y0059292D01*
X0204164Y0059428D01*
X0204383Y0059569D01*
X0204600Y0059716D01*
X0204813Y0059868D01*
X0205022Y0060025D01*
X0205227Y0060187D01*
X0205428Y0060354D01*
X0205625Y0060526D01*
X0205817Y0060703D01*
X0206005Y0060885D01*
X0206189Y0061071D01*
X0206368Y0061261D01*
X0206543Y0061456D01*
X0206712Y0061655D01*
X0206877Y0061858D01*
X0207036Y0062065D01*
X0207191Y0062276D01*
X0207340Y0062491D01*
X0207484Y0062709D01*
X0207623Y0062931D01*
X0207756Y0063156D01*
X0207883Y0063384D01*
X0208005Y0063615D01*
X0208122Y0063849D01*
X0208232Y0064086D01*
X0208337Y0064326D01*
X0208436Y0064568D01*
X0208528Y0064812D01*
X0208615Y0065059D01*
X0208696Y0065308D01*
X0208651Y0065321D01*
X0208571Y0065074D01*
X0208484Y0064828D01*
X0208392Y0064585D01*
X0208293Y0064344D01*
X0208189Y0064105D01*
X0208079Y0063870D01*
X0207963Y0063636D01*
X0207842Y0063406D01*
X0207715Y0063179D01*
X0207582Y0062955D01*
X0207444Y0062734D01*
X0207301Y0062517D01*
X0207153Y0062303D01*
X0206999Y0062093D01*
X0206840Y0061887D01*
X0206676Y0061685D01*
X0206507Y0061487D01*
X0206333Y0061293D01*
X0206155Y0061103D01*
X0205972Y0060918D01*
X0205785Y0060737D01*
X0205593Y0060561D01*
X0205397Y0060390D01*
X0205197Y0060224D01*
X0204993Y0060062D01*
X0204785Y0059906D01*
X0204573Y0059754D01*
X0204358Y0059608D01*
X0204139Y0059468D01*
X0203916Y0059332D01*
X0203691Y0059202D01*
X0203462Y0059078D01*
X0203230Y0058959D01*
X0202996Y0058846D01*
X0202759Y0058739D01*
X0202519Y0058638D01*
X0202277Y0058542D01*
X0202032Y0058453D01*
X0201786Y0058369D01*
X0201537Y0058292D01*
X0201287Y0058221D01*
X0201035Y0058156D01*
X0200781Y0058097D01*
X0200526Y0058044D01*
X0200270Y0057997D01*
X0200013Y0057957D01*
X0199755Y0057923D01*
X0199496Y0057896D01*
X0199237Y0057875D01*
X0198977Y0057860D01*
X0198717Y0057851D01*
X0198456Y0057849D01*
X0198196Y0057853D01*
X0197936Y0057864D01*
X0197676Y0057881D01*
X0197417Y0057904D01*
X0197159Y0057934D01*
X0196901Y0057970D01*
X0196644Y0058012D01*
X0196388Y0058061D01*
X0196134Y0058116D01*
X0195881Y0058177D01*
X0195629Y0058244D01*
X0195380Y0058317D01*
X0195132Y0058397D01*
X0194886Y0058482D01*
X0194642Y0058574D01*
X0194401Y0058671D01*
X0194162Y0058774D01*
X0193926Y0058884D01*
X0193692Y0058998D01*
X0193461Y0059119D01*
X0193234Y0059245D01*
X0193009Y0059377D01*
X0192788Y0059514D01*
X0192570Y0059657D01*
X0192356Y0059804D01*
X0192145Y0059957D01*
X0191938Y0060116D01*
X0191968Y0060152D01*
X0192173Y0059995D01*
X0192383Y0059843D01*
X0192596Y0059695D01*
X0192813Y0059554D01*
X0193033Y0059417D01*
X0193257Y0059286D01*
X0193484Y0059160D01*
X0193713Y0059040D01*
X0193946Y0058926D01*
X0194181Y0058817D01*
X0194419Y0058714D01*
X0194659Y0058617D01*
X0194902Y0058526D01*
X0195147Y0058441D01*
X0195393Y0058362D01*
X0195642Y0058289D01*
X0195892Y0058222D01*
X0196144Y0058161D01*
X0196398Y0058107D01*
X0196652Y0058059D01*
X0196908Y0058016D01*
X0197165Y0057981D01*
X0197422Y0057951D01*
X0197680Y0057928D01*
X0197939Y0057911D01*
X0198198Y0057900D01*
X0198457Y0057896D01*
X0198716Y0057898D01*
X0198975Y0057907D01*
X0199234Y0057921D01*
X0199492Y0057943D01*
X0199750Y0057970D01*
X0200006Y0058004D01*
X0200263Y0058044D01*
X0200517Y0058090D01*
X0200771Y0058143D01*
X0201024Y0058201D01*
X0201275Y0058266D01*
X0201524Y0058337D01*
X0201771Y0058414D01*
X0202017Y0058497D01*
X0202260Y0058586D01*
X0202501Y0058681D01*
X0202740Y0058782D01*
X0202976Y0058889D01*
X0203209Y0059001D01*
X0203440Y0059120D01*
X0203668Y0059243D01*
X0203892Y0059373D01*
X0204114Y0059507D01*
X0204332Y0059647D01*
X0204546Y0059793D01*
X0204757Y0059944D01*
X0204964Y0060099D01*
X0205167Y0060260D01*
X0205367Y0060426D01*
X0205562Y0060596D01*
X0205753Y0060772D01*
X0205939Y0060951D01*
X0206121Y0061136D01*
X0206299Y0061325D01*
X0206472Y0061518D01*
X0206640Y0061715D01*
X0206803Y0061916D01*
X0206961Y0062121D01*
X0207114Y0062331D01*
X0207262Y0062543D01*
X0207405Y0062760D01*
X0207542Y0062979D01*
X0207674Y0063202D01*
X0207801Y0063428D01*
X0207922Y0063658D01*
X0208037Y0063890D01*
X0208146Y0064125D01*
X0208250Y0064362D01*
X0208348Y0064602D01*
X0208440Y0064844D01*
X0208526Y0065089D01*
X0208606Y0065335D01*
X0208561Y0065349D01*
X0208481Y0065104D01*
X0208396Y0064860D01*
X0208304Y0064619D01*
X0208207Y0064380D01*
X0208103Y0064144D01*
X0207994Y0063910D01*
X0207880Y0063679D01*
X0207759Y0063451D01*
X0207633Y0063226D01*
X0207502Y0063004D01*
X0207365Y0062785D01*
X0207223Y0062570D01*
X0207076Y0062358D01*
X0206923Y0062150D01*
X0206766Y0061945D01*
X0206603Y0061745D01*
X0206436Y0061549D01*
X0206264Y0061356D01*
X0206087Y0061168D01*
X0205906Y0060985D01*
X0205720Y0060806D01*
X0205530Y0060631D01*
X0205336Y0060461D01*
X0205138Y0060297D01*
X0204935Y0060136D01*
X0204729Y0059981D01*
X0204519Y0059831D01*
X0204306Y0059687D01*
X0204089Y0059547D01*
X0203868Y0059413D01*
X0203645Y0059284D01*
X0203418Y0059161D01*
X0203188Y0059044D01*
X0202956Y0058932D01*
X0202721Y0058825D01*
X0202483Y0058725D01*
X0202243Y0058630D01*
X0202001Y0058542D01*
X0201757Y0058459D01*
X0201510Y0058382D01*
X0201262Y0058311D01*
X0201012Y0058247D01*
X0200761Y0058188D01*
X0200509Y0058136D01*
X0200255Y0058090D01*
X0200000Y0058050D01*
X0199744Y0058017D01*
X0199487Y0057989D01*
X0199230Y0057968D01*
X0198973Y0057954D01*
X0198715Y0057945D01*
X0198457Y0057943D01*
X0198199Y0057947D01*
X0197941Y0057958D01*
X0197684Y0057975D01*
X0197427Y0057998D01*
X0197171Y0058027D01*
X0196915Y0058063D01*
X0196660Y0058105D01*
X0196407Y0058153D01*
X0196155Y0058207D01*
X0195904Y0058268D01*
X0195655Y0058334D01*
X0195407Y0058407D01*
X0195162Y0058486D01*
X0194918Y0058571D01*
X0194676Y0058661D01*
X0194437Y0058758D01*
X0194200Y0058860D01*
X0193966Y0058968D01*
X0193735Y0059082D01*
X0193506Y0059202D01*
X0193280Y0059327D01*
X0193058Y0059457D01*
X0192839Y0059593D01*
X0192623Y0059734D01*
X0192410Y0059881D01*
X0192202Y0060033D01*
X0191997Y0060189D01*
X0192026Y0060226D01*
X0192230Y0060070D01*
X0192438Y0059919D01*
X0192649Y0059773D01*
X0192864Y0059633D01*
X0193082Y0059497D01*
X0193304Y0059367D01*
X0193528Y0059243D01*
X0193756Y0059124D01*
X0193986Y0059011D01*
X0194220Y0058903D01*
X0194455Y0058801D01*
X0194693Y0058705D01*
X0194934Y0058615D01*
X0195177Y0058530D01*
X0195421Y0058452D01*
X0195668Y0058380D01*
X0195916Y0058313D01*
X0196165Y0058253D01*
X0196416Y0058199D01*
X0196669Y0058151D01*
X0196922Y0058109D01*
X0197177Y0058074D01*
X0197432Y0058045D01*
X0197687Y0058022D01*
X0197944Y0058005D01*
X0198200Y0057994D01*
X0198457Y0057990D01*
X0198714Y0057992D01*
X0198971Y0058001D01*
X0199227Y0058015D01*
X0199483Y0058036D01*
X0199738Y0058063D01*
X0199993Y0058097D01*
X0200247Y0058136D01*
X0200500Y0058182D01*
X0200751Y0058234D01*
X0201001Y0058293D01*
X0201250Y0058357D01*
X0201497Y0058427D01*
X0201742Y0058504D01*
X0201985Y0058586D01*
X0202227Y0058674D01*
X0202466Y0058768D01*
X0202702Y0058868D01*
X0202936Y0058974D01*
X0203168Y0059086D01*
X0203396Y0059203D01*
X0203622Y0059325D01*
X0203844Y0059453D01*
X0204064Y0059587D01*
X0204280Y0059726D01*
X0204492Y0059870D01*
X0204701Y0060019D01*
X0204907Y0060174D01*
X0205108Y0060333D01*
X0205306Y0060497D01*
X0205499Y0060666D01*
X0205688Y0060840D01*
X0205873Y0061018D01*
X0206053Y0061201D01*
X0206229Y0061388D01*
X0206401Y0061579D01*
X0206567Y0061775D01*
X0206729Y0061974D01*
X0206886Y0062178D01*
X0207038Y0062385D01*
X0207184Y0062596D01*
X0207326Y0062810D01*
X0207462Y0063028D01*
X0207593Y0063249D01*
X0207718Y0063473D01*
X0207838Y0063700D01*
X0207952Y0063930D01*
X0208061Y0064163D01*
X0208163Y0064399D01*
X0208260Y0064636D01*
X0208352Y0064876D01*
X0208437Y0065119D01*
X0208516Y0065363D01*
X0208471Y0065377D01*
X0208392Y0065134D01*
X0208307Y0064892D01*
X0208217Y0064653D01*
X0208120Y0064417D01*
X0208018Y0064182D01*
X0207910Y0063951D01*
X0207796Y0063722D01*
X0207677Y0063496D01*
X0207552Y0063272D01*
X0207422Y0063052D01*
X0207286Y0062836D01*
X0207145Y0062622D01*
X0206999Y0062412D01*
X0206848Y0062206D01*
X0206692Y0062003D01*
X0206531Y0061805D01*
X0206365Y0061610D01*
X0206195Y0061420D01*
X0206020Y0061234D01*
X0205840Y0061052D01*
X0205656Y0060874D01*
X0205468Y0060701D01*
X0205275Y0060533D01*
X0205078Y0060369D01*
X0204878Y0060211D01*
X0204674Y0060057D01*
X0204465Y0059909D01*
X0204254Y0059765D01*
X0204039Y0059627D01*
X0203820Y0059494D01*
X0203599Y0059366D01*
X0203374Y0059244D01*
X0203147Y0059128D01*
X0202916Y0059017D01*
X0202683Y0058911D01*
X0202448Y0058812D01*
X0202210Y0058718D01*
X0201970Y0058630D01*
X0201728Y0058548D01*
X0201483Y0058472D01*
X0201238Y0058402D01*
X0200990Y0058338D01*
X0200741Y0058280D01*
X0200491Y0058228D01*
X0200239Y0058183D01*
X0199986Y0058143D01*
X0199733Y0058110D01*
X0199479Y0058083D01*
X0199224Y0058062D01*
X0198969Y0058048D01*
X0198713Y0058039D01*
X0198457Y0058037D01*
X0198202Y0058041D01*
X0197946Y0058052D01*
X0197691Y0058068D01*
X0197437Y0058091D01*
X0197182Y0058120D01*
X0196929Y0058156D01*
X0196677Y0058197D01*
X0196426Y0058245D01*
X0196176Y0058299D01*
X0195927Y0058359D01*
X0195680Y0058425D01*
X0195435Y0058497D01*
X0195191Y0058575D01*
X0194950Y0058659D01*
X0194711Y0058749D01*
X0194474Y0058844D01*
X0194239Y0058946D01*
X0194007Y0059053D01*
X0193777Y0059166D01*
X0193551Y0059284D01*
X0193327Y0059408D01*
X0193106Y0059538D01*
X0192889Y0059672D01*
X0192675Y0059812D01*
X0192465Y0059958D01*
X0192258Y0060108D01*
X0192055Y0060263D01*
X0192084Y0060300D01*
X0192286Y0060145D01*
X0192492Y0059996D01*
X0192702Y0059851D01*
X0192915Y0059712D01*
X0193131Y0059578D01*
X0193350Y0059449D01*
X0193573Y0059326D01*
X0193799Y0059208D01*
X0194027Y0059095D01*
X0194258Y0058989D01*
X0194492Y0058888D01*
X0194728Y0058793D01*
X0194966Y0058703D01*
X0195206Y0058620D01*
X0195449Y0058542D01*
X0195693Y0058470D01*
X0195939Y0058404D01*
X0196186Y0058345D01*
X0196435Y0058291D01*
X0196685Y0058244D01*
X0196936Y0058202D01*
X0197188Y0058167D01*
X0197441Y0058138D01*
X0197695Y0058115D01*
X0197949Y0058099D01*
X0198203Y0058088D01*
X0198458Y0058084D01*
X0198712Y0058086D01*
X0198967Y0058094D01*
X0199221Y0058109D01*
X0199474Y0058130D01*
X0199727Y0058157D01*
X0199980Y0058190D01*
X0200231Y0058229D01*
X0200482Y0058275D01*
X0200731Y0058326D01*
X0200979Y0058384D01*
X0201225Y0058448D01*
X0201470Y0058517D01*
X0201713Y0058593D01*
X0201954Y0058675D01*
X0202193Y0058762D01*
X0202430Y0058855D01*
X0202664Y0058955D01*
X0202896Y0059059D01*
X0203126Y0059170D01*
X0203352Y0059286D01*
X0203576Y0059407D01*
X0203796Y0059534D01*
X0204014Y0059667D01*
X0204228Y0059804D01*
X0204439Y0059947D01*
X0204646Y0060095D01*
X0204849Y0060248D01*
X0205049Y0060406D01*
X0205244Y0060569D01*
X0205436Y0060736D01*
X0205624Y0060908D01*
X0205807Y0061085D01*
X0205986Y0061266D01*
X0206160Y0061451D01*
X0206330Y0061641D01*
X0206495Y0061835D01*
X0206655Y0062033D01*
X0206811Y0062234D01*
X0206961Y0062439D01*
X0207106Y0062648D01*
X0207247Y0062861D01*
X0207382Y0063077D01*
X0207511Y0063296D01*
X0207635Y0063518D01*
X0207754Y0063743D01*
X0207867Y0063971D01*
X0207975Y0064202D01*
X0208077Y0064435D01*
X0208173Y0064671D01*
X0208263Y0064909D01*
X0208348Y0065149D01*
X0208426Y0065391D01*
X0208381Y0065405D01*
X0208303Y0065164D01*
X0208219Y0064925D01*
X0208129Y0064688D01*
X0208033Y0064453D01*
X0207932Y0064221D01*
X0207825Y0063991D01*
X0207712Y0063764D01*
X0207594Y0063540D01*
X0207470Y0063319D01*
X0207341Y0063101D01*
X0207207Y0062886D01*
X0207067Y0062675D01*
X0206923Y0062467D01*
X0206773Y0062262D01*
X0206618Y0062062D01*
X0206459Y0061865D01*
X0206294Y0061672D01*
X0206125Y0061483D01*
X0205952Y0061299D01*
X0205774Y0061118D01*
X0205591Y0060943D01*
X0205405Y0060771D01*
X0205214Y0060604D01*
X0205019Y0060442D01*
X0204820Y0060285D01*
X0204618Y0060133D01*
X0204412Y0059986D01*
X0204202Y0059844D01*
X0203989Y0059707D01*
X0203772Y0059575D01*
X0203553Y0059448D01*
X0203330Y0059327D01*
X0203105Y0059212D01*
X0202876Y0059102D01*
X0202646Y0058998D01*
X0202412Y0058899D01*
X0202176Y0058806D01*
X0201939Y0058719D01*
X0201699Y0058638D01*
X0201457Y0058562D01*
X0201213Y0058493D01*
X0200968Y0058430D01*
X0200721Y0058372D01*
X0200473Y0058321D01*
X0200223Y0058276D01*
X0199973Y0058236D01*
X0199722Y0058203D01*
X0199470Y0058177D01*
X0199217Y0058156D01*
X0198964Y0058141D01*
X0198711Y0058133D01*
X0198458Y0058131D01*
X0198205Y0058135D01*
X0197951Y0058146D01*
X0197699Y0058162D01*
X0197446Y0058185D01*
X0197194Y0058214D01*
X0196944Y0058249D01*
X0196694Y0058290D01*
X0196445Y0058337D01*
X0196197Y0058391D01*
X0195951Y0058450D01*
X0195706Y0058515D01*
X0195463Y0058587D01*
X0195221Y0058664D01*
X0194982Y0058747D01*
X0194745Y0058836D01*
X0194510Y0058931D01*
X0194277Y0059032D01*
X0194047Y0059138D01*
X0193820Y0059250D01*
X0193595Y0059367D01*
X0193374Y0059490D01*
X0193155Y0059618D01*
X0192940Y0059752D01*
X0192728Y0059890D01*
X0192519Y0060034D01*
X0192314Y0060183D01*
X0192113Y0060337D01*
X0192142Y0060374D01*
X0192342Y0060221D01*
X0192547Y0060072D01*
X0192754Y0059929D01*
X0192965Y0059791D01*
X0193180Y0059658D01*
X0193397Y0059531D01*
X0193618Y0059408D01*
X0193841Y0059292D01*
X0194068Y0059180D01*
X0194297Y0059075D01*
X0194528Y0058974D01*
X0194762Y0058880D01*
X0194998Y0058791D01*
X0195236Y0058709D01*
X0195477Y0058632D01*
X0195719Y0058561D01*
X0195962Y0058495D01*
X0196207Y0058436D01*
X0196454Y0058383D01*
X0196702Y0058336D01*
X0196951Y0058295D01*
X0197200Y0058260D01*
X0197451Y0058232D01*
X0197702Y0058209D01*
X0197954Y0058192D01*
X0198206Y0058182D01*
X0198458Y0058178D01*
X0198710Y0058180D01*
X0198962Y0058188D01*
X0199214Y0058203D01*
X0199466Y0058223D01*
X0199716Y0058250D01*
X0199966Y0058283D01*
X0200216Y0058322D01*
X0200464Y0058367D01*
X0200711Y0058418D01*
X0200956Y0058475D01*
X0201201Y0058538D01*
X0201443Y0058607D01*
X0201684Y0058682D01*
X0201923Y0058763D01*
X0202160Y0058850D01*
X0202394Y0058942D01*
X0202627Y0059041D01*
X0202857Y0059145D01*
X0203084Y0059254D01*
X0203308Y0059369D01*
X0203530Y0059489D01*
X0203748Y0059615D01*
X0203964Y0059746D01*
X0204176Y0059883D01*
X0204385Y0060024D01*
X0204590Y0060171D01*
X0204792Y0060322D01*
X0204990Y0060479D01*
X0205183Y0060640D01*
X0205373Y0060806D01*
X0205559Y0060977D01*
X0205741Y0061152D01*
X0205918Y0061331D01*
X0206091Y0061515D01*
X0206259Y0061703D01*
X0206423Y0061895D01*
X0206581Y0062091D01*
X0206735Y0062291D01*
X0206884Y0062494D01*
X0207028Y0062701D01*
X0207167Y0062912D01*
X0207301Y0063125D01*
X0207430Y0063342D01*
X0207553Y0063563D01*
X0207670Y0063786D01*
X0207782Y0064012D01*
X0207889Y0064240D01*
X0207990Y0064471D01*
X0208085Y0064705D01*
X0208175Y0064941D01*
X0208259Y0065179D01*
X0208337Y0065418D01*
X0208740Y0071666D02*
X0208310Y0071533D01*
X0208311Y0071534D02*
X0208233Y0071773D01*
X0208150Y0072010D01*
X0208060Y0072245D01*
X0207965Y0072478D01*
X0207864Y0072709D01*
X0207758Y0072937D01*
X0207646Y0073162D01*
X0207529Y0073385D01*
X0207406Y0073604D01*
X0207278Y0073821D01*
X0207145Y0074034D01*
X0207006Y0074244D01*
X0206862Y0074450D01*
X0206714Y0074653D01*
X0206560Y0074853D01*
X0206402Y0075048D01*
X0206239Y0075239D01*
X0206071Y0075427D01*
X0205898Y0075610D01*
X0205722Y0075789D01*
X0205541Y0075964D01*
X0205355Y0076134D01*
X0205166Y0076299D01*
X0204972Y0076460D01*
X0204775Y0076616D01*
X0204574Y0076767D01*
X0204369Y0076914D01*
X0204161Y0077055D01*
X0203950Y0077191D01*
X0203735Y0077322D01*
X0203517Y0077447D01*
X0203296Y0077567D01*
X0203072Y0077682D01*
X0202845Y0077791D01*
X0202616Y0077895D01*
X0202384Y0077993D01*
X0202150Y0078085D01*
X0201914Y0078171D01*
X0201676Y0078252D01*
X0201435Y0078327D01*
X0201194Y0078396D01*
X0200950Y0078459D01*
X0200705Y0078516D01*
X0200459Y0078567D01*
X0200211Y0078612D01*
X0199963Y0078650D01*
X0199713Y0078683D01*
X0199463Y0078710D01*
X0199212Y0078730D01*
X0198961Y0078745D01*
X0198710Y0078753D01*
X0198458Y0078755D01*
X0198207Y0078751D01*
X0197955Y0078741D01*
X0197704Y0078724D01*
X0197454Y0078702D01*
X0197204Y0078673D01*
X0196955Y0078638D01*
X0196707Y0078597D01*
X0196459Y0078550D01*
X0196213Y0078497D01*
X0195969Y0078438D01*
X0195726Y0078373D01*
X0195485Y0078303D01*
X0195245Y0078226D01*
X0195007Y0078143D01*
X0194772Y0078055D01*
X0194539Y0077961D01*
X0194308Y0077861D01*
X0194079Y0077755D01*
X0193854Y0077644D01*
X0193631Y0077528D01*
X0193411Y0077406D01*
X0193194Y0077279D01*
X0192980Y0077146D01*
X0192769Y0077008D01*
X0192562Y0076866D01*
X0192359Y0076718D01*
X0192159Y0076565D01*
X0191881Y0076918D01*
X0191880Y0076918D01*
X0192089Y0077078D01*
X0192301Y0077232D01*
X0192517Y0077381D01*
X0192737Y0077525D01*
X0192960Y0077664D01*
X0193187Y0077796D01*
X0193417Y0077924D01*
X0193649Y0078045D01*
X0193885Y0078161D01*
X0194123Y0078271D01*
X0194364Y0078376D01*
X0194608Y0078474D01*
X0194854Y0078566D01*
X0195102Y0078652D01*
X0195352Y0078733D01*
X0195604Y0078807D01*
X0195857Y0078874D01*
X0196113Y0078936D01*
X0196369Y0078991D01*
X0196627Y0079040D01*
X0196887Y0079083D01*
X0197147Y0079119D01*
X0197408Y0079149D01*
X0197669Y0079173D01*
X0197931Y0079190D01*
X0198193Y0079201D01*
X0198456Y0079205D01*
X0198719Y0079203D01*
X0198981Y0079194D01*
X0199243Y0079179D01*
X0199505Y0079158D01*
X0199766Y0079130D01*
X0200026Y0079096D01*
X0200286Y0079055D01*
X0200544Y0079008D01*
X0200801Y0078955D01*
X0201057Y0078896D01*
X0201311Y0078830D01*
X0201564Y0078758D01*
X0201815Y0078680D01*
X0202063Y0078596D01*
X0202310Y0078505D01*
X0202554Y0078409D01*
X0202796Y0078307D01*
X0203036Y0078199D01*
X0203272Y0078085D01*
X0203506Y0077965D01*
X0203737Y0077840D01*
X0203964Y0077709D01*
X0204189Y0077572D01*
X0204409Y0077430D01*
X0204627Y0077283D01*
X0204840Y0077130D01*
X0205050Y0076972D01*
X0205256Y0076809D01*
X0205458Y0076641D01*
X0205656Y0076469D01*
X0205849Y0076291D01*
X0206038Y0076109D01*
X0206223Y0075922D01*
X0206403Y0075731D01*
X0206578Y0075535D01*
X0206748Y0075335D01*
X0206914Y0075131D01*
X0207074Y0074923D01*
X0207229Y0074711D01*
X0207379Y0074496D01*
X0207524Y0074276D01*
X0207663Y0074054D01*
X0207797Y0073828D01*
X0207925Y0073599D01*
X0208047Y0073366D01*
X0208164Y0073131D01*
X0208275Y0072893D01*
X0208380Y0072652D01*
X0208479Y0072409D01*
X0208572Y0072164D01*
X0208660Y0071916D01*
X0208741Y0071666D01*
X0208696Y0071652D01*
X0208615Y0071901D01*
X0208528Y0072148D01*
X0208436Y0072392D01*
X0208337Y0072634D01*
X0208232Y0072874D01*
X0208122Y0073111D01*
X0208005Y0073345D01*
X0207883Y0073576D01*
X0207756Y0073804D01*
X0207623Y0074029D01*
X0207484Y0074251D01*
X0207340Y0074469D01*
X0207191Y0074684D01*
X0207036Y0074895D01*
X0206877Y0075102D01*
X0206712Y0075305D01*
X0206543Y0075504D01*
X0206368Y0075699D01*
X0206189Y0075889D01*
X0206005Y0076075D01*
X0205817Y0076257D01*
X0205625Y0076434D01*
X0205428Y0076606D01*
X0205227Y0076773D01*
X0205022Y0076935D01*
X0204813Y0077092D01*
X0204600Y0077244D01*
X0204383Y0077391D01*
X0204164Y0077532D01*
X0203940Y0077668D01*
X0203714Y0077799D01*
X0203484Y0077924D01*
X0203251Y0078043D01*
X0203016Y0078156D01*
X0202777Y0078264D01*
X0202537Y0078366D01*
X0202293Y0078461D01*
X0202048Y0078551D01*
X0201800Y0078635D01*
X0201551Y0078713D01*
X0201299Y0078785D01*
X0201046Y0078850D01*
X0200791Y0078909D01*
X0200535Y0078962D01*
X0200278Y0079009D01*
X0200020Y0079049D01*
X0199761Y0079083D01*
X0199501Y0079111D01*
X0199240Y0079132D01*
X0198979Y0079147D01*
X0198718Y0079156D01*
X0198456Y0079158D01*
X0198195Y0079154D01*
X0197934Y0079143D01*
X0197673Y0079126D01*
X0197412Y0079102D01*
X0197153Y0079073D01*
X0196894Y0079036D01*
X0196636Y0078994D01*
X0196379Y0078945D01*
X0196123Y0078890D01*
X0195869Y0078829D01*
X0195617Y0078761D01*
X0195366Y0078688D01*
X0195117Y0078608D01*
X0194870Y0078522D01*
X0194625Y0078430D01*
X0194383Y0078332D01*
X0194143Y0078228D01*
X0193905Y0078119D01*
X0193671Y0078003D01*
X0193439Y0077882D01*
X0193210Y0077756D01*
X0192985Y0077623D01*
X0192762Y0077486D01*
X0192544Y0077342D01*
X0192329Y0077194D01*
X0192117Y0077040D01*
X0191909Y0076881D01*
X0191938Y0076844D01*
X0192145Y0077003D01*
X0192356Y0077156D01*
X0192570Y0077303D01*
X0192788Y0077446D01*
X0193009Y0077583D01*
X0193234Y0077715D01*
X0193461Y0077841D01*
X0193692Y0077962D01*
X0193926Y0078076D01*
X0194162Y0078186D01*
X0194401Y0078289D01*
X0194642Y0078386D01*
X0194886Y0078478D01*
X0195132Y0078563D01*
X0195380Y0078643D01*
X0195629Y0078716D01*
X0195881Y0078783D01*
X0196134Y0078844D01*
X0196388Y0078899D01*
X0196644Y0078948D01*
X0196901Y0078990D01*
X0197159Y0079026D01*
X0197417Y0079056D01*
X0197676Y0079079D01*
X0197936Y0079096D01*
X0198196Y0079107D01*
X0198456Y0079111D01*
X0198717Y0079109D01*
X0198977Y0079100D01*
X0199237Y0079085D01*
X0199496Y0079064D01*
X0199755Y0079037D01*
X0200013Y0079003D01*
X0200270Y0078963D01*
X0200526Y0078916D01*
X0200781Y0078863D01*
X0201035Y0078804D01*
X0201287Y0078739D01*
X0201537Y0078668D01*
X0201786Y0078591D01*
X0202032Y0078507D01*
X0202277Y0078418D01*
X0202519Y0078322D01*
X0202759Y0078221D01*
X0202996Y0078114D01*
X0203230Y0078001D01*
X0203462Y0077882D01*
X0203691Y0077758D01*
X0203916Y0077628D01*
X0204139Y0077492D01*
X0204358Y0077352D01*
X0204573Y0077206D01*
X0204785Y0077054D01*
X0204993Y0076898D01*
X0205197Y0076736D01*
X0205397Y0076570D01*
X0205593Y0076399D01*
X0205785Y0076223D01*
X0205972Y0076042D01*
X0206155Y0075857D01*
X0206333Y0075667D01*
X0206507Y0075473D01*
X0206676Y0075275D01*
X0206840Y0075073D01*
X0206999Y0074867D01*
X0207153Y0074657D01*
X0207301Y0074443D01*
X0207444Y0074226D01*
X0207582Y0074005D01*
X0207715Y0073781D01*
X0207842Y0073554D01*
X0207963Y0073324D01*
X0208079Y0073090D01*
X0208189Y0072855D01*
X0208293Y0072616D01*
X0208392Y0072375D01*
X0208484Y0072132D01*
X0208571Y0071886D01*
X0208651Y0071639D01*
X0208606Y0071625D01*
X0208526Y0071871D01*
X0208440Y0072116D01*
X0208348Y0072358D01*
X0208250Y0072598D01*
X0208146Y0072835D01*
X0208037Y0073070D01*
X0207922Y0073302D01*
X0207801Y0073532D01*
X0207674Y0073758D01*
X0207542Y0073981D01*
X0207405Y0074200D01*
X0207262Y0074417D01*
X0207114Y0074629D01*
X0206961Y0074839D01*
X0206803Y0075044D01*
X0206640Y0075245D01*
X0206472Y0075442D01*
X0206299Y0075635D01*
X0206121Y0075824D01*
X0205939Y0076009D01*
X0205753Y0076188D01*
X0205562Y0076364D01*
X0205367Y0076534D01*
X0205167Y0076700D01*
X0204964Y0076861D01*
X0204757Y0077016D01*
X0204546Y0077167D01*
X0204332Y0077313D01*
X0204114Y0077453D01*
X0203892Y0077587D01*
X0203668Y0077717D01*
X0203440Y0077840D01*
X0203209Y0077959D01*
X0202976Y0078071D01*
X0202740Y0078178D01*
X0202501Y0078279D01*
X0202260Y0078374D01*
X0202017Y0078463D01*
X0201771Y0078546D01*
X0201524Y0078623D01*
X0201275Y0078694D01*
X0201024Y0078759D01*
X0200771Y0078817D01*
X0200517Y0078870D01*
X0200263Y0078916D01*
X0200006Y0078956D01*
X0199750Y0078990D01*
X0199492Y0079017D01*
X0199234Y0079039D01*
X0198975Y0079053D01*
X0198716Y0079062D01*
X0198457Y0079064D01*
X0198198Y0079060D01*
X0197939Y0079049D01*
X0197680Y0079032D01*
X0197422Y0079009D01*
X0197165Y0078979D01*
X0196908Y0078944D01*
X0196652Y0078901D01*
X0196398Y0078853D01*
X0196144Y0078799D01*
X0195892Y0078738D01*
X0195642Y0078671D01*
X0195393Y0078598D01*
X0195147Y0078519D01*
X0194902Y0078434D01*
X0194659Y0078343D01*
X0194419Y0078246D01*
X0194181Y0078143D01*
X0193946Y0078034D01*
X0193713Y0077920D01*
X0193484Y0077800D01*
X0193257Y0077674D01*
X0193033Y0077543D01*
X0192813Y0077406D01*
X0192596Y0077265D01*
X0192383Y0077117D01*
X0192173Y0076965D01*
X0191968Y0076808D01*
X0191997Y0076771D01*
X0192202Y0076927D01*
X0192410Y0077079D01*
X0192623Y0077226D01*
X0192839Y0077367D01*
X0193058Y0077503D01*
X0193280Y0077633D01*
X0193506Y0077758D01*
X0193735Y0077878D01*
X0193966Y0077992D01*
X0194200Y0078100D01*
X0194437Y0078202D01*
X0194676Y0078299D01*
X0194918Y0078389D01*
X0195162Y0078474D01*
X0195407Y0078553D01*
X0195655Y0078626D01*
X0195904Y0078692D01*
X0196155Y0078753D01*
X0196407Y0078807D01*
X0196660Y0078855D01*
X0196915Y0078897D01*
X0197171Y0078933D01*
X0197427Y0078962D01*
X0197684Y0078985D01*
X0197941Y0079002D01*
X0198199Y0079013D01*
X0198457Y0079017D01*
X0198715Y0079015D01*
X0198973Y0079006D01*
X0199230Y0078992D01*
X0199487Y0078971D01*
X0199744Y0078943D01*
X0200000Y0078910D01*
X0200255Y0078870D01*
X0200509Y0078824D01*
X0200761Y0078772D01*
X0201012Y0078713D01*
X0201262Y0078649D01*
X0201510Y0078578D01*
X0201757Y0078501D01*
X0202001Y0078418D01*
X0202243Y0078330D01*
X0202483Y0078235D01*
X0202721Y0078135D01*
X0202956Y0078028D01*
X0203188Y0077916D01*
X0203418Y0077799D01*
X0203645Y0077676D01*
X0203868Y0077547D01*
X0204089Y0077413D01*
X0204306Y0077273D01*
X0204519Y0077129D01*
X0204729Y0076979D01*
X0204935Y0076824D01*
X0205138Y0076663D01*
X0205336Y0076499D01*
X0205530Y0076329D01*
X0205720Y0076154D01*
X0205906Y0075975D01*
X0206087Y0075792D01*
X0206264Y0075604D01*
X0206436Y0075411D01*
X0206603Y0075215D01*
X0206766Y0075015D01*
X0206923Y0074810D01*
X0207076Y0074602D01*
X0207223Y0074390D01*
X0207365Y0074175D01*
X0207502Y0073956D01*
X0207633Y0073734D01*
X0207759Y0073509D01*
X0207880Y0073281D01*
X0207994Y0073050D01*
X0208103Y0072816D01*
X0208207Y0072580D01*
X0208304Y0072341D01*
X0208396Y0072100D01*
X0208481Y0071856D01*
X0208561Y0071611D01*
X0208516Y0071597D01*
X0208437Y0071841D01*
X0208352Y0072084D01*
X0208260Y0072324D01*
X0208163Y0072561D01*
X0208061Y0072797D01*
X0207952Y0073030D01*
X0207838Y0073260D01*
X0207718Y0073487D01*
X0207593Y0073711D01*
X0207462Y0073932D01*
X0207326Y0074150D01*
X0207184Y0074364D01*
X0207038Y0074575D01*
X0206886Y0074782D01*
X0206729Y0074986D01*
X0206567Y0075185D01*
X0206401Y0075381D01*
X0206229Y0075572D01*
X0206053Y0075759D01*
X0205873Y0075942D01*
X0205688Y0076120D01*
X0205499Y0076294D01*
X0205306Y0076463D01*
X0205108Y0076627D01*
X0204907Y0076786D01*
X0204701Y0076941D01*
X0204492Y0077090D01*
X0204280Y0077234D01*
X0204064Y0077373D01*
X0203844Y0077507D01*
X0203622Y0077635D01*
X0203396Y0077757D01*
X0203168Y0077874D01*
X0202936Y0077986D01*
X0202702Y0078092D01*
X0202466Y0078192D01*
X0202227Y0078286D01*
X0201985Y0078374D01*
X0201742Y0078456D01*
X0201497Y0078533D01*
X0201250Y0078603D01*
X0201001Y0078667D01*
X0200751Y0078726D01*
X0200500Y0078778D01*
X0200247Y0078824D01*
X0199993Y0078863D01*
X0199738Y0078897D01*
X0199483Y0078924D01*
X0199227Y0078945D01*
X0198971Y0078959D01*
X0198714Y0078968D01*
X0198457Y0078970D01*
X0198200Y0078966D01*
X0197944Y0078955D01*
X0197687Y0078938D01*
X0197432Y0078915D01*
X0197177Y0078886D01*
X0196922Y0078851D01*
X0196669Y0078809D01*
X0196416Y0078761D01*
X0196165Y0078707D01*
X0195916Y0078647D01*
X0195668Y0078580D01*
X0195421Y0078508D01*
X0195177Y0078430D01*
X0194934Y0078345D01*
X0194693Y0078255D01*
X0194455Y0078159D01*
X0194220Y0078057D01*
X0193986Y0077949D01*
X0193756Y0077836D01*
X0193528Y0077717D01*
X0193304Y0077593D01*
X0193082Y0077463D01*
X0192864Y0077327D01*
X0192649Y0077187D01*
X0192438Y0077041D01*
X0192230Y0076890D01*
X0192026Y0076734D01*
X0192055Y0076697D01*
X0192258Y0076852D01*
X0192465Y0077002D01*
X0192675Y0077148D01*
X0192889Y0077288D01*
X0193106Y0077422D01*
X0193327Y0077552D01*
X0193551Y0077676D01*
X0193777Y0077794D01*
X0194007Y0077907D01*
X0194239Y0078014D01*
X0194474Y0078116D01*
X0194711Y0078211D01*
X0194950Y0078301D01*
X0195191Y0078385D01*
X0195435Y0078463D01*
X0195680Y0078535D01*
X0195927Y0078601D01*
X0196176Y0078661D01*
X0196426Y0078715D01*
X0196677Y0078763D01*
X0196929Y0078804D01*
X0197182Y0078840D01*
X0197437Y0078869D01*
X0197691Y0078892D01*
X0197946Y0078908D01*
X0198202Y0078919D01*
X0198457Y0078923D01*
X0198713Y0078921D01*
X0198969Y0078912D01*
X0199224Y0078898D01*
X0199479Y0078877D01*
X0199733Y0078850D01*
X0199986Y0078817D01*
X0200239Y0078777D01*
X0200491Y0078732D01*
X0200741Y0078680D01*
X0200990Y0078622D01*
X0201238Y0078558D01*
X0201483Y0078488D01*
X0201728Y0078412D01*
X0201970Y0078330D01*
X0202210Y0078242D01*
X0202448Y0078148D01*
X0202683Y0078049D01*
X0202916Y0077943D01*
X0203147Y0077832D01*
X0203374Y0077716D01*
X0203599Y0077594D01*
X0203820Y0077466D01*
X0204039Y0077333D01*
X0204254Y0077195D01*
X0204465Y0077051D01*
X0204674Y0076903D01*
X0204878Y0076749D01*
X0205078Y0076591D01*
X0205275Y0076427D01*
X0205468Y0076259D01*
X0205656Y0076086D01*
X0205840Y0075908D01*
X0206020Y0075726D01*
X0206195Y0075540D01*
X0206365Y0075350D01*
X0206531Y0075155D01*
X0206692Y0074957D01*
X0206848Y0074754D01*
X0206999Y0074548D01*
X0207145Y0074338D01*
X0207286Y0074124D01*
X0207422Y0073908D01*
X0207552Y0073688D01*
X0207677Y0073464D01*
X0207796Y0073238D01*
X0207910Y0073009D01*
X0208018Y0072778D01*
X0208120Y0072543D01*
X0208217Y0072307D01*
X0208307Y0072068D01*
X0208392Y0071826D01*
X0208471Y0071583D01*
X0208426Y0071569D01*
X0208348Y0071811D01*
X0208263Y0072051D01*
X0208173Y0072289D01*
X0208077Y0072525D01*
X0207975Y0072758D01*
X0207867Y0072989D01*
X0207754Y0073217D01*
X0207635Y0073442D01*
X0207511Y0073664D01*
X0207382Y0073883D01*
X0207247Y0074099D01*
X0207106Y0074312D01*
X0206961Y0074521D01*
X0206811Y0074726D01*
X0206655Y0074927D01*
X0206495Y0075125D01*
X0206330Y0075319D01*
X0206160Y0075509D01*
X0205986Y0075694D01*
X0205807Y0075875D01*
X0205624Y0076052D01*
X0205436Y0076224D01*
X0205244Y0076391D01*
X0205049Y0076554D01*
X0204849Y0076712D01*
X0204646Y0076865D01*
X0204439Y0077013D01*
X0204228Y0077156D01*
X0204014Y0077293D01*
X0203796Y0077426D01*
X0203576Y0077553D01*
X0203352Y0077674D01*
X0203126Y0077790D01*
X0202896Y0077901D01*
X0202664Y0078005D01*
X0202430Y0078105D01*
X0202193Y0078198D01*
X0201954Y0078285D01*
X0201713Y0078367D01*
X0201470Y0078443D01*
X0201225Y0078512D01*
X0200979Y0078576D01*
X0200731Y0078634D01*
X0200482Y0078685D01*
X0200231Y0078731D01*
X0199980Y0078770D01*
X0199727Y0078803D01*
X0199474Y0078830D01*
X0199221Y0078851D01*
X0198967Y0078866D01*
X0198712Y0078874D01*
X0198458Y0078876D01*
X0198203Y0078872D01*
X0197949Y0078861D01*
X0197695Y0078845D01*
X0197441Y0078822D01*
X0197188Y0078793D01*
X0196936Y0078758D01*
X0196685Y0078716D01*
X0196435Y0078669D01*
X0196186Y0078615D01*
X0195939Y0078556D01*
X0195693Y0078490D01*
X0195449Y0078418D01*
X0195206Y0078340D01*
X0194966Y0078257D01*
X0194728Y0078167D01*
X0194492Y0078072D01*
X0194258Y0077971D01*
X0194027Y0077865D01*
X0193799Y0077752D01*
X0193573Y0077634D01*
X0193350Y0077511D01*
X0193131Y0077382D01*
X0192915Y0077248D01*
X0192702Y0077109D01*
X0192492Y0076964D01*
X0192286Y0076815D01*
X0192084Y0076660D01*
X0192113Y0076623D01*
X0192314Y0076777D01*
X0192519Y0076926D01*
X0192728Y0077070D01*
X0192940Y0077208D01*
X0193155Y0077342D01*
X0193374Y0077470D01*
X0193595Y0077593D01*
X0193820Y0077710D01*
X0194047Y0077822D01*
X0194277Y0077928D01*
X0194510Y0078029D01*
X0194745Y0078124D01*
X0194982Y0078213D01*
X0195221Y0078296D01*
X0195463Y0078373D01*
X0195706Y0078445D01*
X0195951Y0078510D01*
X0196197Y0078569D01*
X0196445Y0078623D01*
X0196694Y0078670D01*
X0196944Y0078711D01*
X0197194Y0078746D01*
X0197446Y0078775D01*
X0197699Y0078798D01*
X0197951Y0078814D01*
X0198205Y0078825D01*
X0198458Y0078829D01*
X0198711Y0078827D01*
X0198964Y0078819D01*
X0199217Y0078804D01*
X0199470Y0078783D01*
X0199722Y0078757D01*
X0199973Y0078724D01*
X0200223Y0078684D01*
X0200473Y0078639D01*
X0200721Y0078588D01*
X0200968Y0078530D01*
X0201213Y0078467D01*
X0201457Y0078398D01*
X0201699Y0078322D01*
X0201939Y0078241D01*
X0202176Y0078154D01*
X0202412Y0078061D01*
X0202646Y0077962D01*
X0202876Y0077858D01*
X0203105Y0077748D01*
X0203330Y0077633D01*
X0203553Y0077512D01*
X0203772Y0077385D01*
X0203989Y0077253D01*
X0204202Y0077116D01*
X0204412Y0076974D01*
X0204618Y0076827D01*
X0204820Y0076675D01*
X0205019Y0076518D01*
X0205214Y0076356D01*
X0205405Y0076189D01*
X0205591Y0076017D01*
X0205774Y0075842D01*
X0205952Y0075661D01*
X0206125Y0075477D01*
X0206294Y0075288D01*
X0206459Y0075095D01*
X0206618Y0074898D01*
X0206773Y0074698D01*
X0206923Y0074493D01*
X0207067Y0074285D01*
X0207207Y0074074D01*
X0207341Y0073859D01*
X0207470Y0073641D01*
X0207594Y0073420D01*
X0207712Y0073196D01*
X0207825Y0072969D01*
X0207932Y0072739D01*
X0208033Y0072507D01*
X0208129Y0072272D01*
X0208219Y0072035D01*
X0208303Y0071796D01*
X0208381Y0071555D01*
X0208337Y0071542D01*
X0208259Y0071781D01*
X0208175Y0072019D01*
X0208085Y0072255D01*
X0207990Y0072489D01*
X0207889Y0072720D01*
X0207782Y0072948D01*
X0207670Y0073174D01*
X0207553Y0073397D01*
X0207430Y0073618D01*
X0207301Y0073835D01*
X0207167Y0074048D01*
X0207028Y0074259D01*
X0206884Y0074466D01*
X0206735Y0074669D01*
X0206581Y0074869D01*
X0206423Y0075065D01*
X0206259Y0075257D01*
X0206091Y0075445D01*
X0205918Y0075629D01*
X0205741Y0075808D01*
X0205559Y0075983D01*
X0205373Y0076154D01*
X0205183Y0076320D01*
X0204990Y0076481D01*
X0204792Y0076638D01*
X0204590Y0076789D01*
X0204385Y0076936D01*
X0204176Y0077077D01*
X0203964Y0077214D01*
X0203748Y0077345D01*
X0203530Y0077471D01*
X0203308Y0077591D01*
X0203084Y0077706D01*
X0202857Y0077815D01*
X0202627Y0077919D01*
X0202394Y0078018D01*
X0202160Y0078110D01*
X0201923Y0078197D01*
X0201684Y0078278D01*
X0201443Y0078353D01*
X0201201Y0078422D01*
X0200956Y0078485D01*
X0200711Y0078542D01*
X0200464Y0078593D01*
X0200216Y0078638D01*
X0199966Y0078677D01*
X0199716Y0078710D01*
X0199466Y0078737D01*
X0199214Y0078757D01*
X0198962Y0078772D01*
X0198710Y0078780D01*
X0198458Y0078782D01*
X0198206Y0078778D01*
X0197954Y0078768D01*
X0197702Y0078751D01*
X0197451Y0078728D01*
X0197200Y0078700D01*
X0196951Y0078665D01*
X0196702Y0078624D01*
X0196454Y0078577D01*
X0196207Y0078524D01*
X0195962Y0078465D01*
X0195719Y0078399D01*
X0195477Y0078328D01*
X0195236Y0078251D01*
X0194998Y0078169D01*
X0194762Y0078080D01*
X0194528Y0077986D01*
X0194297Y0077885D01*
X0194068Y0077780D01*
X0193841Y0077668D01*
X0193618Y0077552D01*
X0193397Y0077429D01*
X0193180Y0077302D01*
X0192965Y0077169D01*
X0192754Y0077031D01*
X0192547Y0076888D01*
X0192342Y0076739D01*
X0192142Y0076586D01*
D13*
X0176500Y0054480D02*
X0173500Y0054480D01*
X0170500Y0054480D01*
X0170500Y0052480D02*
X0173500Y0052480D01*
X0176500Y0052480D01*
X0197500Y0026480D02*
X0197500Y0023480D01*
X0197500Y0020480D01*
X0199500Y0020480D02*
X0199500Y0023480D01*
X0199500Y0026480D01*
X0131500Y0027480D02*
X0128500Y0027480D01*
X0125500Y0027480D01*
X0125500Y0029480D02*
X0128500Y0029480D01*
X0131500Y0029480D01*
X0197500Y0110480D02*
X0197500Y0113480D01*
X0197500Y0116480D01*
X0199500Y0116480D02*
X0199500Y0113480D01*
X0199500Y0110480D01*
D14*
X0172000Y0035480D02*
X0145000Y0035480D01*
X0144830Y0035478D01*
X0144659Y0035472D01*
X0144489Y0035461D01*
X0144319Y0035447D01*
X0144150Y0035428D01*
X0143981Y0035405D01*
X0143812Y0035379D01*
X0143645Y0035348D01*
X0143478Y0035313D01*
X0143312Y0035273D01*
X0143147Y0035230D01*
X0142983Y0035183D01*
X0142821Y0035132D01*
X0142659Y0035077D01*
X0142499Y0035018D01*
X0142341Y0034955D01*
X0142184Y0034889D01*
X0142029Y0034818D01*
X0141875Y0034744D01*
X0141724Y0034666D01*
X0141574Y0034584D01*
X0141426Y0034499D01*
X0141281Y0034410D01*
X0141138Y0034318D01*
X0140997Y0034222D01*
X0140858Y0034123D01*
X0140722Y0034020D01*
X0140588Y0033915D01*
X0140457Y0033806D01*
X0140329Y0033693D01*
X0140203Y0033578D01*
X0140080Y0033460D01*
X0139961Y0033339D01*
X0139844Y0033214D01*
X0139730Y0033087D01*
X0139619Y0032958D01*
X0139512Y0032825D01*
X0139408Y0032690D01*
X0139307Y0032553D01*
X0139209Y0032413D01*
X0139115Y0032271D01*
X0139025Y0032127D01*
X0138938Y0031980D01*
X0138854Y0031831D01*
X0138775Y0031681D01*
X0138699Y0031528D01*
X0138626Y0031374D01*
X0138558Y0031218D01*
X0138493Y0031060D01*
X0138432Y0030901D01*
X0138375Y0030740D01*
X0138322Y0030578D01*
X0138273Y0030415D01*
X0138228Y0030251D01*
X0138187Y0030085D01*
X0138149Y0029919D01*
X0138116Y0029751D01*
X0138088Y0029583D01*
X0138063Y0029415D01*
X0138042Y0029246D01*
X0138025Y0029076D01*
X0138013Y0028906D01*
X0138005Y0028736D01*
X0138001Y0028565D01*
X0138001Y0028395D01*
X0138005Y0028224D01*
X0138013Y0028054D01*
X0138025Y0027884D01*
X0138042Y0027714D01*
X0138063Y0027545D01*
X0138088Y0027377D01*
X0138116Y0027209D01*
X0138149Y0027041D01*
X0138187Y0026875D01*
X0138228Y0026709D01*
X0138273Y0026545D01*
X0138322Y0026382D01*
X0138375Y0026220D01*
X0138432Y0026059D01*
X0138493Y0025900D01*
X0138558Y0025742D01*
X0138626Y0025586D01*
X0138699Y0025432D01*
X0138775Y0025279D01*
X0138854Y0025129D01*
X0138938Y0024980D01*
X0139025Y0024833D01*
X0139115Y0024689D01*
X0139209Y0024547D01*
X0139307Y0024407D01*
X0139408Y0024270D01*
X0139512Y0024135D01*
X0139619Y0024002D01*
X0139730Y0023873D01*
X0139844Y0023746D01*
X0139961Y0023621D01*
X0140080Y0023500D01*
X0140203Y0023382D01*
X0140329Y0023267D01*
X0140457Y0023154D01*
X0140588Y0023045D01*
X0140722Y0022940D01*
X0140858Y0022837D01*
X0140997Y0022738D01*
X0141138Y0022642D01*
X0141281Y0022550D01*
X0141426Y0022461D01*
X0141574Y0022376D01*
X0141724Y0022294D01*
X0141875Y0022216D01*
X0142029Y0022142D01*
X0142184Y0022071D01*
X0142341Y0022005D01*
X0142499Y0021942D01*
X0142659Y0021883D01*
X0142821Y0021828D01*
X0142983Y0021777D01*
X0143147Y0021730D01*
X0143312Y0021687D01*
X0143478Y0021647D01*
X0143645Y0021612D01*
X0143812Y0021581D01*
X0143981Y0021555D01*
X0144150Y0021532D01*
X0144319Y0021513D01*
X0144489Y0021499D01*
X0144659Y0021488D01*
X0144830Y0021482D01*
X0145000Y0021480D01*
X0172000Y0021480D01*
X0172170Y0021482D01*
X0172341Y0021488D01*
X0172511Y0021499D01*
X0172681Y0021513D01*
X0172850Y0021532D01*
X0173019Y0021555D01*
X0173188Y0021581D01*
X0173355Y0021612D01*
X0173522Y0021647D01*
X0173688Y0021687D01*
X0173853Y0021730D01*
X0174017Y0021777D01*
X0174179Y0021828D01*
X0174341Y0021883D01*
X0174501Y0021942D01*
X0174659Y0022005D01*
X0174816Y0022071D01*
X0174971Y0022142D01*
X0175125Y0022216D01*
X0175276Y0022294D01*
X0175426Y0022376D01*
X0175574Y0022461D01*
X0175719Y0022550D01*
X0175862Y0022642D01*
X0176003Y0022738D01*
X0176142Y0022837D01*
X0176278Y0022940D01*
X0176412Y0023045D01*
X0176543Y0023154D01*
X0176671Y0023267D01*
X0176797Y0023382D01*
X0176920Y0023500D01*
X0177039Y0023621D01*
X0177156Y0023746D01*
X0177270Y0023873D01*
X0177381Y0024002D01*
X0177488Y0024135D01*
X0177592Y0024270D01*
X0177693Y0024407D01*
X0177791Y0024547D01*
X0177885Y0024689D01*
X0177975Y0024833D01*
X0178062Y0024980D01*
X0178146Y0025129D01*
X0178225Y0025279D01*
X0178301Y0025432D01*
X0178374Y0025586D01*
X0178442Y0025742D01*
X0178507Y0025900D01*
X0178568Y0026059D01*
X0178625Y0026220D01*
X0178678Y0026382D01*
X0178727Y0026545D01*
X0178772Y0026709D01*
X0178813Y0026875D01*
X0178851Y0027041D01*
X0178884Y0027209D01*
X0178912Y0027377D01*
X0178937Y0027545D01*
X0178958Y0027714D01*
X0178975Y0027884D01*
X0178987Y0028054D01*
X0178995Y0028224D01*
X0178999Y0028395D01*
X0178999Y0028565D01*
X0178995Y0028736D01*
X0178987Y0028906D01*
X0178975Y0029076D01*
X0178958Y0029246D01*
X0178937Y0029415D01*
X0178912Y0029583D01*
X0178884Y0029751D01*
X0178851Y0029919D01*
X0178813Y0030085D01*
X0178772Y0030251D01*
X0178727Y0030415D01*
X0178678Y0030578D01*
X0178625Y0030740D01*
X0178568Y0030901D01*
X0178507Y0031060D01*
X0178442Y0031218D01*
X0178374Y0031374D01*
X0178301Y0031528D01*
X0178225Y0031681D01*
X0178146Y0031831D01*
X0178062Y0031980D01*
X0177975Y0032127D01*
X0177885Y0032271D01*
X0177791Y0032413D01*
X0177693Y0032553D01*
X0177592Y0032690D01*
X0177488Y0032825D01*
X0177381Y0032958D01*
X0177270Y0033087D01*
X0177156Y0033214D01*
X0177039Y0033339D01*
X0176920Y0033460D01*
X0176797Y0033578D01*
X0176671Y0033693D01*
X0176543Y0033806D01*
X0176412Y0033915D01*
X0176278Y0034020D01*
X0176142Y0034123D01*
X0176003Y0034222D01*
X0175862Y0034318D01*
X0175719Y0034410D01*
X0175574Y0034499D01*
X0175426Y0034584D01*
X0175276Y0034666D01*
X0175125Y0034744D01*
X0174971Y0034818D01*
X0174816Y0034889D01*
X0174659Y0034955D01*
X0174501Y0035018D01*
X0174341Y0035077D01*
X0174179Y0035132D01*
X0174017Y0035183D01*
X0173853Y0035230D01*
X0173688Y0035273D01*
X0173522Y0035313D01*
X0173355Y0035348D01*
X0173188Y0035379D01*
X0173019Y0035405D01*
X0172850Y0035428D01*
X0172681Y0035447D01*
X0172511Y0035461D01*
X0172341Y0035472D01*
X0172170Y0035478D01*
X0172000Y0035480D01*
D15*
X0107700Y0038480D03*
X0079300Y0038480D03*
D16*
X0087000Y0023480D03*
D17*
X0080750Y0023480D03*
X0106250Y0023480D03*
M02*
