0
SECTION
2
HEADER
9
$ACADVER
1
AC1009
0
ENDSEC
0
SECTION
2
TABLES
0
TABLE
2
LAYER
0
LAYER
2
OUTLINE
70
0
62
7
6
CONTINUOUS
0
LAYER
2
HOLE
70
0
62
7
6
CONTINUOUS
0
LAYER
2
CUTOUT
70
0
62
7
6
CONTINUOUS
0
LAYER
2
REFERENCE
70
0
62
7
6
CONTINUOUS
0
LAYER
2
BEND_REF
70
0
62
7
6
CONTINUOUS
0
LAYER
2
FIN_REF
70
0
62
7
6
CONTINUOUS
0
LAYER
2
SLOT
70
0
62
7
6
CONTINUOUS
0
LAYER
2
PRESSURE
70
0
62
7
6
CONTINUOUS
0
LAYER
2
LOAD
70
0
62
7
6
CONTINUOUS
0
LAYER
2
CHAIN
70
0
62
7
6
CONTINUOUS
0
ENDTAB
0
ENDSEC
0
SECTION
2
ENTITIES
0
LINE
8
OUTLINE
10
0
20
0
30
0
11
200
21
0
31
0
0
LINE
8
OUTLINE
10
200
20
0
30
0
11
200
21
60
31
0
0
LINE
8
OUTLINE
10
200
20
60
30
0
11
0
21
60
31
0
0
LINE
8
OUTLINE
10
0
20
60
30
0
11
0
21
0
31
0
0
LINE
8
REFERENCE
10
15
20
15.0
30
0
11
185
21
15.0
31
0
0
LINE
8
REFERENCE
10
15
20
30.0
30
0
11
185
21
30.0
31
0
0
LINE
8
REFERENCE
10
15
20
45.0
30
0
11
185
21
45.0
31
0
0
LINE
8
LOAD
10
0
20
30.0
30
0
11
10
21
30.0
31
0
0
LINE
8
LOAD
10
190
20
30.0
30
0
11
200
21
30.0
31
0
0
TEXT
8
CHAIN
10
0
20
0
30
0
40
3
1
EW_ACAD_SW_ABQ_10 AUTOCAD_TO_SOLIDWORKS
0
ENDSEC
0
EOF
