ISO-10303-21;
HEADER;
FILE_DESCRIPTION (( 'STEP AP203' ),
    '1' );
FILE_NAME ('two_sided_part_corrected.step',
    '2026-08-14T13:53:41',
    ( '' ),
    ( 'Administrator' ),
    'SwSTEP 2.0',
    'SolidWorks 2025',
    '' );
FILE_SCHEMA (( 'CONFIG_CONTROL_DESIGN' ));
ENDSEC;

DATA;
#1 = AXIS2_PLACEMENT_3D ( 'NONE', #6, #648, #473 ) ;
#2 = DIRECTION ( 'NONE',  ( -0.000000000000000000, -0.000000000000000000, -1.000000000000000000 ) ) ;
#3 = DIRECTION ( 'NONE',  ( 0.000000000000000000, 0.000000000000000000, -1.000000000000000000 ) ) ;
#4 = DIRECTION ( 'NONE',  ( -0.000000000000000000, -0.000000000000000000, -1.000000000000000000 ) ) ;
#5 = AXIS2_PLACEMENT_3D ( 'NONE', #302, #57, #141 ) ;
#6 = CARTESIAN_POINT ( 'NONE',  ( -1.181102362204724310, -0.7874015748031496509, 0.3149606299212598381 ) ) ;
#7 = FACE_BOUND ( 'NONE', #702, .T. ) ;
#8 = FACE_BOUND ( 'NONE', #784, .T. ) ;
#9 = CARTESIAN_POINT ( 'NONE',  ( -1.181102362204724310, -0.7874015748031496509, 0.1574803149606299191 ) ) ;
#10 = EDGE_CURVE ( 'NONE', #58, #287, #438, .T. ) ;
#11 = ORIENTED_EDGE ( 'NONE', *, *, #988, .F. ) ;
#12 = CYLINDRICAL_SURFACE ( 'NONE', #134, 0.2165354330708660624 ) ;
#13 = ADVANCED_FACE ( 'NONE', ( #385 ), #854, .T. ) ;
#14 = CARTESIAN_POINT ( 'NONE',  ( 0.9842519685039370358, 0.5511811023622047445, 0.7086614173228346081 ) ) ;
#15 = AXIS2_PLACEMENT_3D ( 'NONE', #81, #803, #164 ) ;
#16 = AXIS2_PLACEMENT_3D ( 'NONE', #924, #694, #138 ) ;
#17 = ADVANCED_FACE ( 'NONE', ( #715 ), #632, .F. ) ;
#18 = CARTESIAN_POINT ( 'NONE',  ( 0.9645669291338583307, 0.7874015748031496509, 0.1574803149606299191 ) ) ;
#19 = ORIENTED_EDGE ( 'NONE', *, *, #484, .F. ) ;
#20 = CARTESIAN_POINT ( 'NONE',  ( 1.397637795275590511, -0.7874015748031496509, 0.000000000000000000 ) ) ;
#21 = DIRECTION ( 'NONE',  ( -0.000000000000000000, -0.000000000000000000, 1.000000000000000000 ) ) ;
#22 = DIRECTION ( 'NONE',  ( -0.000000000000000000, -0.000000000000000000, 1.000000000000000000 ) ) ;
#23 = DIRECTION ( 'NONE',  ( -1.000000000000000000, 0.000000000000000000, 0.000000000000000000 ) ) ;
#24 = LINE ( 'NONE', #653, #744 ) ;
#25 = PLANE ( 'NONE',  #814 ) ;
#26 = FACE_OUTER_BOUND ( 'NONE', #756, .T. ) ;
#27 = DIRECTION ( 'NONE',  ( 1.000000000000000000, 0.000000000000000000, 0.000000000000000000 ) ) ;
#28 = AXIS2_PLACEMENT_3D ( 'NONE', #611, #677, #829 ) ;
#29 = AXIS2_PLACEMENT_3D ( 'NONE', #848, #448, #462 ) ;
#30 = DIRECTION ( 'NONE',  ( -1.000000000000000000, -0.000000000000000000, -0.000000000000000000 ) ) ;
#31 = EDGE_LOOP ( 'NONE', ( #227, #651 ) ) ;
#32 = ADVANCED_FACE ( 'NONE', ( #934 ), #546, .F. ) ;
#33 = FACE_OUTER_BOUND ( 'NONE', #752, .T. ) ;
#34 = CIRCLE ( 'NONE', #535, 0.2165354330708660624 ) ;
#35 = CARTESIAN_POINT ( 'NONE',  ( -1.181102362204724310, -0.7874015748031496509, 0.3149606299212598381 ) ) ;
#36 = VERTEX_POINT ( 'NONE', #620 ) ;
#37 =( NAMED_UNIT ( * ) SI_UNIT ( $, .STERADIAN. ) SOLID_ANGLE_UNIT ( ) );
#38 = DIRECTION ( 'NONE',  ( -1.000000000000000000, 0.000000000000000000, 0.000000000000000000 ) ) ;
#39 = ORIENTED_EDGE ( 'NONE', *, *, #813, .T. ) ;
#40 = DIRECTION ( 'NONE',  ( -1.000000000000000000, 0.000000000000000000, 0.000000000000000000 ) ) ;
#41 = COORDINATED_UNIVERSAL_TIME_OFFSET ( 8, 0, .AHEAD. ) ;
#42 = EDGE_CURVE ( 'NONE', #128, #613, #460, .T. ) ;
#43 = FACE_OUTER_BOUND ( 'NONE', #96, .T. ) ;
#44 = EDGE_LOOP ( 'NONE', ( #907, #700, #301, #927 ) ) ;
#45 = CARTESIAN_POINT ( 'NONE',  ( 0.000000000000000000, 0.000000000000000000, 0.000000000000000000 ) ) ;
#46 = EDGE_CURVE ( 'NONE', #539, #63, #1022, .T. ) ;
#47 = ORIENTED_EDGE ( 'NONE', *, *, #231, .T. ) ;
#48 = ORIENTED_EDGE ( 'NONE', *, *, #42, .F. ) ;
#49 = AXIS2_PLACEMENT_3D ( 'NONE', #35, #344, #428 ) ;
#50 = EDGE_LOOP ( 'NONE', ( #522, #293, #39, #456 ) ) ;
#51 = LINE ( 'NONE', #549, #320 ) ;
#52 = CARTESIAN_POINT ( 'NONE',  ( -2.362204724409448620, 1.574803149606299302, 0.7086614173228346081 ) ) ;
#53 = EDGE_CURVE ( 'NONE', #998, #672, #636, .T. ) ;
#54 = CARTESIAN_POINT ( 'NONE',  ( 1.181102362204724310, -0.7874015748031496509, 0.1574803149606299191 ) ) ;
#55 = ADVANCED_FACE ( 'NONE', ( #769 ), #553, .F. ) ;
#56 = ORIENTED_EDGE ( 'NONE', *, *, #189, .T. ) ;
#57 = DIRECTION ( 'NONE',  ( 0.000000000000000000, 0.000000000000000000, -1.000000000000000000 ) ) ;
#58 = VERTEX_POINT ( 'NONE', #160 ) ;
#59 = DIRECTION ( 'NONE',  ( 0.000000000000000000, 1.000000000000000000, 0.000000000000000000 ) ) ;
#60 = DIRECTION ( 'NONE',  ( -0.000000000000000000, -0.000000000000000000, -1.000000000000000000 ) ) ;
#61 = CIRCLE ( 'NONE', #697, 0.2165354330708660624 ) ;
#62 = CIRCLE ( 'NONE', #584, 0.2165354330708660624 ) ;
#63 = VERTEX_POINT ( 'NONE', #809 ) ;
#64 = EDGE_CURVE ( 'NONE', #274, #449, #905, .T. ) ;
#65 = ORIENTED_EDGE ( 'NONE', *, *, #573, .T. ) ;
#66 = DIRECTION ( 'NONE',  ( -0.000000000000000000, -0.000000000000000000, -1.000000000000000000 ) ) ;
#67 = FACE_OUTER_BOUND ( 'NONE', #219, .T. ) ;
#68 = APPLICATION_CONTEXT ( 'configuration controlled 3d designs of mechanical parts and assemblies' ) ;
#69 = VERTEX_POINT ( 'NONE', #101 ) ;
#70 = ORIENTED_EDGE ( 'NONE', *, *, #588, .F. ) ;
#71 = ORIENTED_EDGE ( 'NONE', *, *, #64, .T. ) ;
#72 = CIRCLE ( 'NONE', #49, 0.09842519685039378963 ) ;
#73 = PLANE ( 'NONE',  #202 ) ;
#74 = CARTESIAN_POINT ( 'NONE',  ( -0.9842519685039370358, -0.5511811023622047445, 0.2755905511811023167 ) ) ;
#75 = DIRECTION ( 'NONE',  ( -0.000000000000000000, -0.000000000000000000, 1.000000000000000000 ) ) ;
#76 = AXIS2_PLACEMENT_3D ( 'NONE', #536, #308, #640 ) ;
#77 = DIRECTION ( 'NONE',  ( -1.000000000000000000, 0.000000000000000000, -0.000000000000000000 ) ) ;
#78 = DIRECTION ( 'NONE',  ( -0.000000000000000000, -1.000000000000000000, -0.000000000000000000 ) ) ;
#79 = VECTOR ( 'NONE', #240, 39.37007874015748143 ) ;
#80 = ADVANCED_BREP_SHAPE_REPRESENTATION ( 'two_sided_part_corrected', ( #314, #218 ), #660 ) ;
#81 = CARTESIAN_POINT ( 'NONE',  ( 1.181102362204724310, 0.7874015748031496509, 0.000000000000000000 ) ) ;
#82 = VECTOR ( 'NONE', #786, 39.37007874015748143 ) ;
#83 = AXIS2_PLACEMENT_3D ( 'NONE', #701, #1008, #290 ) ;
#84 = DIRECTION ( 'NONE',  ( -1.000000000000000000, 0.000000000000000000, -0.000000000000000000 ) ) ;
#85 = CC_DESIGN_PERSON_AND_ORGANIZATION_ASSIGNMENT ( #624, #911, ( #347 ) ) ;
#86 = CARTESIAN_POINT ( 'NONE',  ( -1.279527559055118280, 0.7874015748031496509, 0.3149606299212598381 ) ) ;
#87 = FACE_BOUND ( 'NONE', #765, .T. ) ;
#88 = CIRCLE ( 'NONE', #104, 0.09842519685039365085 ) ;
#89 = DIRECTION ( 'NONE',  ( 0.000000000000000000, 0.000000000000000000, -1.000000000000000000 ) ) ;
#90 = ORIENTED_EDGE ( 'NONE', *, *, #579, .F. ) ;
#91 = EDGE_CURVE ( 'NONE', #832, #36, #572, .T. ) ;
#92 = DIRECTION ( 'NONE',  ( -0.000000000000000000, -1.000000000000000000, -0.000000000000000000 ) ) ;
#93 = ADVANCED_FACE ( 'NONE', ( #732 ), #323, .F. ) ;
#94 = DIRECTION ( 'NONE',  ( -0.000000000000000000, -0.000000000000000000, -1.000000000000000000 ) ) ;
#95 = FACE_OUTER_BOUND ( 'NONE', #427, .T. ) ;
#96 = EDGE_LOOP ( 'NONE', ( #961, #610, #48, #1002 ) ) ;
#97 = LINE ( 'NONE', #177, #946 ) ;
#98 = LINE ( 'NONE', #811, #407 ) ;
#99 = EDGE_CURVE ( 'NONE', #405, #922, #650, .T. ) ;
#100 = AXIS2_PLACEMENT_3D ( 'NONE', #663, #510, #260 ) ;
#101 = CARTESIAN_POINT ( 'NONE',  ( -1.397637795275590511, 0.7874015748031496509, 0.000000000000000000 ) ) ;
#102 = CARTESIAN_POINT ( 'NONE',  ( -1.397637795275590511, -0.7874015748031496509, 0.1574803149606299191 ) ) ;
#103 = DIRECTION ( 'NONE',  ( -1.000000000000000000, 0.000000000000000000, 0.000000000000000000 ) ) ;
#104 = AXIS2_PLACEMENT_3D ( 'NONE', #1020, #639, #526 ) ;
#105 = DIRECTION ( 'NONE',  ( -0.000000000000000000, -0.000000000000000000, -1.000000000000000000 ) ) ;
#106 = CARTESIAN_POINT ( 'NONE',  ( 1.181102362204724310, 0.7874015748031496509, 0.3149606299212598381 ) ) ;
#107 = CARTESIAN_POINT ( 'NONE',  ( 1.279527559055117836, 0.7874015748031496509, 0.3149606299212598381 ) ) ;
#108 = DIRECTION ( 'NONE',  ( 0.000000000000000000, -1.000000000000000000, 0.000000000000000000 ) ) ;
#109 = ORIENTED_EDGE ( 'NONE', *, *, #560, .T. ) ;
#110 = PLANE ( 'NONE',  #917 ) ;
#111 = DIRECTION ( 'NONE',  ( -0.000000000000000000, -0.000000000000000000, -1.000000000000000000 ) ) ;
#112 = AXIS2_PLACEMENT_3D ( 'NONE', #623, #374, #295 ) ;
#113 = ORIENTED_EDGE ( 'NONE', *, *, #91, .T. ) ;
#114 = CARTESIAN_POINT ( 'NONE',  ( 0.9645669291338583307, -0.7874015748031496509, 0.1574803149606299191 ) ) ;
#115 = VERTEX_POINT ( 'NONE', #317 ) ;
#116 = VERTEX_POINT ( 'NONE', #491 ) ;
#117 = AXIS2_PLACEMENT_3D ( 'NONE', #255, #170, #23 ) ;
#118 = FACE_OUTER_BOUND ( 'NONE', #883, .T. ) ;
#119 = ORIENTED_EDGE ( 'NONE', *, *, #42, .T. ) ;
#120 = EDGE_CURVE ( 'NONE', #634, #345, #62, .T. ) ;
#121 = LOCAL_TIME ( 21, 53, 41.00000000000000000, #606 ) ;
#122 = LINE ( 'NONE', #264, #721 ) ;
#123 = ORIENTED_EDGE ( 'NONE', *, *, #975, .T. ) ;
#124 = DIRECTION ( 'NONE',  ( -1.000000000000000000, -0.000000000000000000, -0.000000000000000000 ) ) ;
#125 = AXIS2_PLACEMENT_3D ( 'NONE', #397, #408, #725 ) ;
#126 = VERTEX_POINT ( 'NONE', #727 ) ;
#127 = VECTOR ( 'NONE', #78, 39.37007874015748143 ) ;
#128 = VERTEX_POINT ( 'NONE', #566 ) ;
#129 = ORIENTED_EDGE ( 'NONE', *, *, #646, .T. ) ;
#130 = FACE_OUTER_BOUND ( 'NONE', #612, .T. ) ;
#131 = APPROVAL_ROLE ( '' ) ;
#132 = CARTESIAN_POINT ( 'NONE',  ( -0.9842519685039370358, 0.5511811023622047445, 0.7086614173228346081 ) ) ;
#133 = DIRECTION ( 'NONE',  ( -1.000000000000000000, 0.000000000000000000, 0.000000000000000000 ) ) ;
#134 = AXIS2_PLACEMENT_3D ( 'NONE', #657, #815, #315 ) ;
#135 = EDGE_LOOP ( 'NONE', ( #373, #271 ) ) ;
#136 = DIRECTION ( 'NONE',  ( -0.000000000000000000, -0.000000000000000000, -1.000000000000000000 ) ) ;
#137 = DIRECTION ( 'NONE',  ( -0.000000000000000000, -1.000000000000000000, -0.000000000000000000 ) ) ;
#138 = DIRECTION ( 'NONE',  ( -1.000000000000000000, 0.000000000000000000, -0.000000000000000000 ) ) ;
#139 = EDGE_LOOP ( 'NONE', ( #1006, #521, #845, #583 ) ) ;
#140 = EDGE_LOOP ( 'NONE', ( #935, #555, #300, #455 ) ) ;
#141 = DIRECTION ( 'NONE',  ( -1.000000000000000000, 0.000000000000000000, 0.000000000000000000 ) ) ;
#142 = DATE_AND_TIME ( #678, #401 ) ;
#143 = CARTESIAN_POINT ( 'NONE',  ( -1.181102362204724310, -0.7874015748031496509, 0.1574803149606299191 ) ) ;
#144 = DIRECTION ( 'NONE',  ( -0.000000000000000000, -0.000000000000000000, -1.000000000000000000 ) ) ;
#145 = CIRCLE ( 'NONE', #15, 0.2165354330708660624 ) ;
#146 = ORIENTED_EDGE ( 'NONE', *, *, #492, .T. ) ;
#147 = ORIENTED_EDGE ( 'NONE', *, *, #886, .F. ) ;
#148 = FACE_OUTER_BOUND ( 'NONE', #594, .T. ) ;
#149 = APPROVAL ( #763, 'UNSPECIFIED' ) ;
#150 = DIRECTION ( 'NONE',  ( -1.000000000000000000, -0.000000000000000000, -0.000000000000000000 ) ) ;
#151 = VERTEX_POINT ( 'NONE', #804 ) ;
#152 = CARTESIAN_POINT ( 'NONE',  ( -1.082677165354330562, 0.7874015748031496509, 0.1574803149606299191 ) ) ;
#153 = ADVANCED_FACE ( 'NONE', ( #95 ), #236, .T. ) ;
#154 = DIRECTION ( 'NONE',  ( -0.000000000000000000, -0.000000000000000000, 1.000000000000000000 ) ) ;
#155 = CYLINDRICAL_SURFACE ( 'NONE', #733, 0.09842519685039365085 ) ;
#156 = CARTESIAN_POINT ( 'NONE',  ( -1.279527559055118280, -0.7874015748031496509, 0.1574803149606299191 ) ) ;
#157 = CIRCLE ( 'NONE', #28, 0.09842519685039365085 ) ;
#158 = AXIS2_PLACEMENT_3D ( 'NONE', #303, #452, #447 ) ;
#159 = DIRECTION ( 'NONE',  ( -1.000000000000000000, 0.000000000000000000, 0.000000000000000000 ) ) ;
#160 = CARTESIAN_POINT ( 'NONE',  ( 1.279527559055117836, -0.7874015748031496509, 0.1574803149606299191 ) ) ;
#161 = EDGE_CURVE ( 'NONE', #782, #710, #738, .T. ) ;
#162 = ORIENTED_EDGE ( 'NONE', *, *, #801, .T. ) ;
#163 = DIRECTION ( 'NONE',  ( -1.000000000000000000, 0.000000000000000000, -0.000000000000000000 ) ) ;
#164 = DIRECTION ( 'NONE',  ( -1.000000000000000000, 0.000000000000000000, 0.000000000000000000 ) ) ;
#165 = CARTESIAN_POINT ( 'NONE',  ( 0.9842519685039370358, -0.5511811023622047445, 0.2755905511811023167 ) ) ;
#166 = VERTEX_POINT ( 'NONE', #233 ) ;
#167 = DIRECTION ( 'NONE',  ( 1.000000000000000000, 0.000000000000000000, 0.000000000000000000 ) ) ;
#168 = CARTESIAN_POINT ( 'NONE',  ( 1.397637795275590511, 0.7874015748031496509, 0.1574803149606299191 ) ) ;
#169 = CARTESIAN_POINT ( 'NONE',  ( -1.181102362204724310, 0.7874015748031496509, 0.3149606299212598381 ) ) ;
#170 = DIRECTION ( 'NONE',  ( 0.000000000000000000, 0.000000000000000000, -1.000000000000000000 ) ) ;
#171 = AXIS2_PLACEMENT_3D ( 'NONE', #454, #304, #133 ) ;
#172 = LINE ( 'NONE', #890, #252 ) ;
#173 = ORIENTED_EDGE ( 'NONE', *, *, #646, .F. ) ;
#174 = LINE ( 'NONE', #569, #1012 ) ;
#175 = FACE_OUTER_BOUND ( 'NONE', #289, .T. ) ;
#176 = EDGE_CURVE ( 'NONE', #36, #495, #842, .T. ) ;
#177 = CARTESIAN_POINT ( 'NONE',  ( -0.9842519685039370358, 0.5511811023622047445, 0.2755905511811023167 ) ) ;
#178 = DIRECTION ( 'NONE',  ( 0.000000000000000000, 0.000000000000000000, -1.000000000000000000 ) ) ;
#179 = APPLICATION_PROTOCOL_DEFINITION ( 'international standard', 'config_control_design', 1994, #68 ) ;
#180 = LOCAL_TIME ( 21, 53, 41.00000000000000000, #938 ) ;
#181 = DIRECTION ( 'NONE',  ( 0.000000000000000000, -0.000000000000000000, -1.000000000000000000 ) ) ;
#182 = ORIENTED_EDGE ( 'NONE', *, *, #830, .F. ) ;
#183 = FACE_OUTER_BOUND ( 'NONE', #673, .T. ) ;
#184 = APPROVAL_DATE_TIME ( #903, #665 ) ;
#185 = AXIS2_PLACEMENT_3D ( 'NONE', #604, #664, #346 ) ;
#186 = AXIS2_PLACEMENT_3D ( 'NONE', #54, #364, #211 ) ;
#187 = EDGE_CURVE ( 'NONE', #220, #843, #568, .T. ) ;
#188 = ORIENTED_EDGE ( 'NONE', *, *, #688, .F. ) ;
#189 = EDGE_CURVE ( 'NONE', #345, #634, #891, .T. ) ;
#190 = CYLINDRICAL_SURFACE ( 'NONE', #706, 0.2165354330708660624 ) ;
#191 = EDGE_LOOP ( 'NONE', ( #119, #348 ) ) ;
#192 =( LENGTH_UNIT ( ) NAMED_UNIT ( * ) SI_UNIT ( $, .METRE. ) );
#193 = DIRECTION ( 'NONE',  ( -1.000000000000000000, 0.000000000000000000, 0.000000000000000000 ) ) ;
#194 = EDGE_LOOP ( 'NONE', ( #607, #278, #198, #918 ) ) ;
#195 = LENGTH_MEASURE_WITH_UNIT ( LENGTH_MEASURE( 0.02539999999999999897 ), #192 );
#196 = ORIENTED_EDGE ( 'NONE', *, *, #537, .T. ) ;
#197 = CC_DESIGN_APPROVAL ( #856, ( #347 ) ) ;
#198 = ORIENTED_EDGE ( 'NONE', *, *, #824, .F. ) ;
#199 = ORIENTED_EDGE ( 'NONE', *, *, #500, .T. ) ;
#200 = CARTESIAN_POINT ( 'NONE',  ( 1.181102362204724310, -0.7874015748031496509, 0.3149606299212598381 ) ) ;
#201 = VERTEX_POINT ( 'NONE', #874 ) ;
#202 = AXIS2_PLACEMENT_3D ( 'NONE', #382, #951, #582 ) ;
#203 = VECTOR ( 'NONE', #59, 39.37007874015748143 ) ;
#204 = AXIS2_PLACEMENT_3D ( 'NONE', #1001, #3, #558 ) ;
#205 = ORIENTED_EDGE ( 'NONE', *, *, #416, .F. ) ;
#206 = EDGE_CURVE ( 'NONE', #800, #835, #321, .T. ) ;
#207 = ORIENTED_EDGE ( 'NONE', *, *, #46, .F. ) ;
#208 = LINE ( 'NONE', #531, #523 ) ;
#209 = COORDINATED_UNIVERSAL_TIME_OFFSET ( 8, 0, .AHEAD. ) ;
#210 = CARTESIAN_POINT ( 'NONE',  ( 0.000000000000000000, 0.000000000000000000, 0.2755905511811023167 ) ) ;
#211 = DIRECTION ( 'NONE',  ( -1.000000000000000000, 0.000000000000000000, 0.000000000000000000 ) ) ;
#212 = AXIS2_PLACEMENT_3D ( 'NONE', #366, #457, #929 ) ;
#213 = EDGE_LOOP ( 'NONE', ( #633, #936, #267, #123 ) ) ;
#214 = ORIENTED_EDGE ( 'NONE', *, *, #795, .F. ) ;
#215 = PLANE ( 'NONE',  #590 ) ;
#216 = CARTESIAN_POINT ( 'NONE',  ( -1.181102362204724310, -0.7874015748031496509, 0.3149606299212598381 ) ) ;
#217 = EDGE_LOOP ( 'NONE', ( #538, #909, #695, #514 ) ) ;
#218 = AXIS2_PLACEMENT_3D ( 'NONE', #45, #684, #27 ) ;
#219 = EDGE_LOOP ( 'NONE', ( #508, #516, #941, #735 ) ) ;
#220 = VERTEX_POINT ( 'NONE', #156 ) ;
#221 = DIRECTION ( 'NONE',  ( -0.000000000000000000, -0.000000000000000000, -1.000000000000000000 ) ) ;
#222 = EDGE_CURVE ( 'NONE', #63, #201, #720, .T. ) ;
#223 = CARTESIAN_POINT ( 'NONE',  ( -2.362204724409448620, -1.574803149606299302, 0.7086614173228346081 ) ) ;
#224 = DIRECTION ( 'NONE',  ( -1.000000000000000000, 0.000000000000000000, 0.000000000000000000 ) ) ;
#225 = ADVANCED_FACE ( 'NONE', ( #363 ), #377, .F. ) ;
#226 = CIRCLE ( 'NONE', #919, 0.2165354330708660624 ) ;
#227 = ORIENTED_EDGE ( 'NONE', *, *, #617, .T. ) ;
#228 = LINE ( 'NONE', #867, #515 ) ;
#229 = LINE ( 'NONE', #467, #391 ) ;
#230 = CIRCLE ( 'NONE', #641, 0.2165354330708660624 ) ;
#231 = EDGE_CURVE ( 'NONE', #761, #747, #388, .T. ) ;
#232 = CARTESIAN_POINT ( 'NONE',  ( -2.362204724409448620, -1.574803149606299302, 0.000000000000000000 ) ) ;
#233 = CARTESIAN_POINT ( 'NONE',  ( 0.9842519685039370358, -0.5511811023622047445, 0.7086614173228346081 ) ) ;
#234 = DIRECTION ( 'NONE',  ( 0.000000000000000000, 0.000000000000000000, -1.000000000000000000 ) ) ;
#235 = EDGE_CURVE ( 'NONE', #274, #613, #461, .T. ) ;
#236 = PLANE ( 'NONE',  #877 ) ;
#237 = DIRECTION ( 'NONE',  ( 0.000000000000000000, 0.000000000000000000, -1.000000000000000000 ) ) ;
#238 = VECTOR ( 'NONE', #111, 39.37007874015748143 ) ;
#239 = AXIS2_PLACEMENT_3D ( 'NONE', #794, #410, #798 ) ;
#240 = DIRECTION ( 'NONE',  ( 0.000000000000000000, 1.000000000000000000, 0.000000000000000000 ) ) ;
#241 = CARTESIAN_POINT ( 'NONE',  ( 1.181102362204724310, 0.7874015748031496509, 0.3149606299212598381 ) ) ;
#242 = EDGE_CURVE ( 'NONE', #265, #979, #780, .T. ) ;
#243 = ORIENTED_EDGE ( 'NONE', *, *, #588, .T. ) ;
#244 = FACE_OUTER_BOUND ( 'NONE', #50, .T. ) ;
#245 = DIRECTION ( 'NONE',  ( 1.000000000000000000, 0.000000000000000000, 0.000000000000000000 ) ) ;
#246 = DIRECTION ( 'NONE',  ( 0.000000000000000000, 0.000000000000000000, -1.000000000000000000 ) ) ;
#247 = ORIENTED_EDGE ( 'NONE', *, *, #997, .T. ) ;
#248 = CARTESIAN_POINT ( 'NONE',  ( 1.082677165354330784, 0.7874015748031496509, 0.3149606299212598381 ) ) ;
#249 = DIRECTION ( 'NONE',  ( -0.000000000000000000, -0.000000000000000000, -1.000000000000000000 ) ) ;
#250 = CARTESIAN_POINT ( 'NONE',  ( -0.9645669291338583307, -0.7874015748031496509, 0.000000000000000000 ) ) ;
#251 = ADVANCED_FACE ( 'NONE', ( #67 ), #768, .F. ) ;
#252 = VECTOR ( 'NONE', #414, 39.37007874015748143 ) ;
#253 = VECTOR ( 'NONE', #528, 39.37007874015748143 ) ;
#254 = DIRECTION ( 'NONE',  ( -1.000000000000000000, 0.000000000000000000, 0.000000000000000000 ) ) ;
#255 = CARTESIAN_POINT ( 'NONE',  ( 1.181102362204724310, 0.7874015748031496509, 0.3149606299212598381 ) ) ;
#256 = CARTESIAN_POINT ( 'NONE',  ( -1.181102362204724310, 0.7874015748031496509, 0.000000000000000000 ) ) ;
#257 = AXIS2_PLACEMENT_3D ( 'NONE', #884, #237, #163 ) ;
#258 = CARTESIAN_POINT ( 'NONE',  ( 0.9842519685039370358, -0.5511811023622047445, 0.2755905511811023167 ) ) ;
#259 = ORIENTED_EDGE ( 'NONE', *, *, #795, .T. ) ;
#260 = DIRECTION ( 'NONE',  ( -1.000000000000000000, 0.000000000000000000, -0.000000000000000000 ) ) ;
#261 = EDGE_CURVE ( 'NONE', #513, #151, #226, .T. ) ;
#262 = PERSON_AND_ORGANIZATION ( #812, #805 ) ;
#263 = EDGE_CURVE ( 'NONE', #979, #864, #544, .T. ) ;
#264 = CARTESIAN_POINT ( 'NONE',  ( 1.082677165354330784, -0.7874015748031496509, 0.3149606299212598381 ) ) ;
#265 = VERTEX_POINT ( 'NONE', #384 ) ;
#266 = AXIS2_PLACEMENT_3D ( 'NONE', #577, #21, #791 ) ;
#267 = ORIENTED_EDGE ( 'NONE', *, *, #404, .T. ) ;
#268 = EDGE_CURVE ( 'NONE', #843, #220, #748, .T. ) ;
#269 = EDGE_LOOP ( 'NONE', ( #996, #775 ) ) ;
#270 = CARTESIAN_POINT ( 'NONE',  ( 2.362204724409448620, -1.574803149606299302, 0.7086614173228346081 ) ) ;
#271 = ORIENTED_EDGE ( 'NONE', *, *, #10, .T. ) ;
#272 = DIRECTION ( 'NONE',  ( -0.000000000000000000, -0.000000000000000000, -1.000000000000000000 ) ) ;
#273 = PERSON_AND_ORGANIZATION ( #812, #805 ) ;
#274 = VERTEX_POINT ( 'NONE', #939 ) ;
#275 = EDGE_LOOP ( 'NONE', ( #358, #916 ) ) ;
#276 = LINE ( 'NONE', #499, #1003 ) ;
#277 = EDGE_CURVE ( 'NONE', #285, #422, #713, .T. ) ;
#278 = ORIENTED_EDGE ( 'NONE', *, *, #789, .F. ) ;
#279 = ORIENTED_EDGE ( 'NONE', *, *, #609, .T. ) ;
#280 = CARTESIAN_POINT ( 'NONE',  ( 0.9842519685039370358, -0.5511811023622047445, 0.2755905511811023167 ) ) ;
#281 = PERSON_AND_ORGANIZATION ( #812, #805 ) ;
#282 = CIRCLE ( 'NONE', #459, 0.2165354330708660624 ) ;
#283 = AXIS2_PLACEMENT_3D ( 'NONE', #241, #887, #654 ) ;
#284 = CARTESIAN_POINT ( 'NONE',  ( -1.181102362204724310, 0.7874015748031496509, 0.1574803149606299191 ) ) ;
#285 = VERTEX_POINT ( 'NONE', #52 ) ;
#286 = VERTEX_POINT ( 'NONE', #868 ) ;
#287 = VERTEX_POINT ( 'NONE', #552 ) ;
#288 = CARTESIAN_POINT ( 'NONE',  ( 0.000000000000000000, 0.000000000000000000, 0.7086614173228346081 ) ) ;
#289 = EDGE_LOOP ( 'NONE', ( #530, #442, #709, #486 ) ) ;
#290 = DIRECTION ( 'NONE',  ( -1.000000000000000000, 0.000000000000000000, 0.000000000000000000 ) ) ;
#291 = ORIENTED_EDGE ( 'NONE', *, *, #176, .T. ) ;
#292 = VECTOR ( 'NONE', #92, 39.37007874015748143 ) ;
#293 = ORIENTED_EDGE ( 'NONE', *, *, #724, .T. ) ;
#294 = ORIENTED_EDGE ( 'NONE', *, *, #940, .F. ) ;
#295 = DIRECTION ( 'NONE',  ( -1.000000000000000000, 0.000000000000000000, 0.000000000000000000 ) ) ;
#296 = PERSON_AND_ORGANIZATION_ROLE ( 'classification_officer' ) ;
#297 = CARTESIAN_POINT ( 'NONE',  ( -0.9842519685039370358, -0.5511811023622047445, 0.2755905511811023167 ) ) ;
#298 = EDGE_CURVE ( 'NONE', #405, #116, #229, .T. ) ;
#299 = CARTESIAN_POINT ( 'NONE',  ( 2.362204724409448620, -1.574803149606299302, 0.7086614173228346081 ) ) ;
#300 = ORIENTED_EDGE ( 'NONE', *, *, #416, .T. ) ;
#301 = ORIENTED_EDGE ( 'NONE', *, *, #846, .T. ) ;
#302 = CARTESIAN_POINT ( 'NONE',  ( 1.181102362204724310, -0.7874015748031496509, 0.1574803149606299191 ) ) ;
#303 = CARTESIAN_POINT ( 'NONE',  ( -1.181102362204724310, -0.7874015748031496509, 0.1574803149606299191 ) ) ;
#304 = DIRECTION ( 'NONE',  ( 0.000000000000000000, 0.000000000000000000, -1.000000000000000000 ) ) ;
#305 = CIRCLE ( 'NONE', #117, 0.09842519685039365085 ) ;
#306 = CARTESIAN_POINT ( 'NONE',  ( -1.397637795275590511, 0.7874015748031496509, 0.1574803149606299191 ) ) ;
#307 = PRODUCT ( 'two_sided_part_corrected', 'two_sided_part_corrected', '', ( #336 ) ) ;
#308 = DIRECTION ( 'NONE',  ( -0.000000000000000000, -0.000000000000000000, -1.000000000000000000 ) ) ;
#309 = ADVANCED_FACE ( 'NONE', ( #790, #693 ), #1021, .T. ) ;
#310 = AXIS2_PLACEMENT_3D ( 'NONE', #576, #896, #659 ) ;
#311 = EDGE_CURVE ( 'NONE', #613, #128, #337, .T. ) ;
#312 = LINE ( 'NONE', #658, #904 ) ;
#313 = DIRECTION ( 'NONE',  ( -1.000000000000000000, 0.000000000000000000, 0.000000000000000000 ) ) ;
#314 = MANIFOLD_SOLID_BREP ( 'B_Four_D11_Counterbores_Depth4', #334 ) ;
#315 = DIRECTION ( 'NONE',  ( -1.000000000000000000, 0.000000000000000000, 0.000000000000000000 ) ) ;
#316 = FACE_OUTER_BOUND ( 'NONE', #982, .T. ) ;
#317 = CARTESIAN_POINT ( 'NONE',  ( 1.279527559055117836, -0.7874015748031496509, 0.3149606299212598381 ) ) ;
#318 = ORIENTED_EDGE ( 'NONE', *, *, #383, .F. ) ;
#319 = DIRECTION ( 'NONE',  ( 0.000000000000000000, 0.000000000000000000, -1.000000000000000000 ) ) ;
#320 = VECTOR ( 'NONE', #920, 39.37007874015748143 ) ;
#321 = CIRCLE ( 'NONE', #1, 0.09842519685039378963 ) ;
#322 = CARTESIAN_POINT ( 'NONE',  ( -1.279527559055118280, -0.7874015748031496509, 0.3149606299212598381 ) ) ;
#323 = PLANE ( 'NONE',  #239 ) ;
#324 = ORIENTED_EDGE ( 'NONE', *, *, #696, .F. ) ;
#325 = DIRECTION ( 'NONE',  ( 0.000000000000000000, -0.000000000000000000, -1.000000000000000000 ) ) ;
#326 = ADVANCED_FACE ( 'NONE', ( #923 ), #872, .F. ) ;
#327 = CARTESIAN_POINT ( 'NONE',  ( 1.181102362204724310, 0.7874015748031496509, 0.1574803149606299191 ) ) ;
#328 = EDGE_CURVE ( 'NONE', #710, #761, #853, .T. ) ;
#329 = CARTESIAN_POINT ( 'NONE',  ( -1.181102362204724310, 0.7874015748031496509, 0.1574803149606299191 ) ) ;
#330 = PLANE ( 'NONE',  #125 ) ;
#331 = EDGE_CURVE ( 'NONE', #151, #513, #542, .T. ) ;
#332 = DIRECTION ( 'NONE',  ( 0.000000000000000000, 1.000000000000000000, 0.000000000000000000 ) ) ;
#333 = AXIS2_PLACEMENT_3D ( 'NONE', #418, #894, #498 ) ;
#334 = CLOSED_SHELL ( 'NONE', ( #889, #534, #340, #964, #55, #441, #225, #409, #519, #375, #545, #430, #655, #912, #571, #525, #753, #93, #251, #453, #17, #925, #326, #309, #437, #931, #505, #754, #32, #895, #750, #153, #970, #13, #644 ) ) ;
#335 = FACE_BOUND ( 'NONE', #269, .T. ) ;
#336 = MECHANICAL_CONTEXT ( 'NONE', #68, 'mechanical' ) ;
#337 = CIRCLE ( 'NONE', #726, 0.09842519685039378963 ) ;
#338 = DIRECTION ( 'NONE',  ( -0.000000000000000000, -0.000000000000000000, -1.000000000000000000 ) ) ;
#339 = ORIENTED_EDGE ( 'NONE', *, *, #740, .F. ) ;
#340 = ADVANCED_FACE ( 'NONE', ( #626 ), #932, .F. ) ;
#341 = CYLINDRICAL_SURFACE ( 'NONE', #614, 0.09842519685039365085 ) ;
#342 = DIRECTION ( 'NONE',  ( -0.000000000000000000, -0.000000000000000000, -1.000000000000000000 ) ) ;
#343 = CIRCLE ( 'NONE', #625, 0.2165354330708660624 ) ;
#344 = DIRECTION ( 'NONE',  ( 0.000000000000000000, 0.000000000000000000, -1.000000000000000000 ) ) ;
#345 = VERTEX_POINT ( 'NONE', #20 ) ;
#346 = DIRECTION ( 'NONE',  ( -1.000000000000000000, 0.000000000000000000, 0.000000000000000000 ) ) ;
#347 = PRODUCT_DEFINITION_FORMATION_WITH_SPECIFIED_SOURCE ( 'ANY', '', #307, .NOT_KNOWN. ) ;
#348 = ORIENTED_EDGE ( 'NONE', *, *, #311, .T. ) ;
#349 = DIRECTION ( 'NONE',  ( -1.000000000000000000, 0.000000000000000000, 0.000000000000000000 ) ) ;
#350 = CC_DESIGN_PERSON_AND_ORGANIZATION_ASSIGNMENT ( #511, #685, ( #412 ) ) ;
#351 = ORIENTED_EDGE ( 'NONE', *, *, #1015, .F. ) ;
#352 =( NAMED_UNIT ( * ) PLANE_ANGLE_UNIT ( ) SI_UNIT ( $, .RADIAN. ) );
#353 = APPROVAL_ROLE ( '' ) ;
#354 = ORIENTED_EDGE ( 'NONE', *, *, #331, .T. ) ;
#355 = PLANE ( 'NONE',  #683 ) ;
#356 = ORIENTED_EDGE ( 'NONE', *, *, #500, .F. ) ;
#357 = AXIS2_PLACEMENT_3D ( 'NONE', #493, #739, #968 ) ;
#358 = ORIENTED_EDGE ( 'NONE', *, *, #176, .F. ) ;
#359 = VERTEX_POINT ( 'NONE', #406 ) ;
#360 = EDGE_LOOP ( 'NONE', ( #533, #622, #777, #365 ) ) ;
#361 = DIRECTION ( 'NONE',  ( -0.000000000000000000, -0.000000000000000000, -1.000000000000000000 ) ) ;
#362 = VECTOR ( 'NONE', #369, 39.37007874015748143 ) ;
#363 = FACE_OUTER_BOUND ( 'NONE', #44, .T. ) ;
#364 = DIRECTION ( 'NONE',  ( -0.000000000000000000, -0.000000000000000000, -1.000000000000000000 ) ) ;
#365 = ORIENTED_EDGE ( 'NONE', *, *, #579, .T. ) ;
#366 = CARTESIAN_POINT ( 'NONE',  ( 1.181102362204724310, 0.7874015748031496509, 0.1574803149606299191 ) ) ;
#367 = CC_DESIGN_DATE_AND_TIME_ASSIGNMENT ( #699, #376, ( #692 ) ) ;
#368 = CIRCLE ( 'NONE', #266, 0.09842519685039365085 ) ;
#369 = DIRECTION ( 'NONE',  ( -0.000000000000000000, -0.000000000000000000, 1.000000000000000000 ) ) ;
#370 = DIRECTION ( 'NONE',  ( -1.000000000000000000, 0.000000000000000000, 0.000000000000000000 ) ) ;
#371 = EDGE_CURVE ( 'NONE', #922, #405, #305, .T. ) ;
#372 = ORIENTED_EDGE ( 'NONE', *, *, #722, .T. ) ;
#373 = ORIENTED_EDGE ( 'NONE', *, *, #960, .T. ) ;
#374 = DIRECTION ( 'NONE',  ( -0.000000000000000000, -0.000000000000000000, -1.000000000000000000 ) ) ;
#375 = ADVANCED_FACE ( 'NONE', ( #736 ), #810, .F. ) ;
#376 = DATE_TIME_ROLE ( 'classification_date' ) ;
#377 = CYLINDRICAL_SURFACE ( 'NONE', #158, 0.2165354330708660624 ) ;
#378 = DIRECTION ( 'NONE',  ( -0.000000000000000000, -0.000000000000000000, -1.000000000000000000 ) ) ;
#379 = VERTEX_POINT ( 'NONE', #250 ) ;
#380 = EDGE_LOOP ( 'NONE', ( #711, #279 ) ) ;
#381 = ORIENTED_EDGE ( 'NONE', *, *, #714, .T. ) ;
#382 = CARTESIAN_POINT ( 'NONE',  ( -0.9842519685039370358, -0.5511811023622047445, 0.2755905511811023167 ) ) ;
#383 = EDGE_CURVE ( 'NONE', #681, #689, #34, .T. ) ;
#384 = CARTESIAN_POINT ( 'NONE',  ( -0.9842519685039370358, 0.5511811023622047445, 0.2755905511811023167 ) ) ;
#385 = FACE_OUTER_BOUND ( 'NONE', #380, .T. ) ;
#386 = CC_DESIGN_DATE_AND_TIME_ASSIGNMENT ( #930, #852, ( #412 ) ) ;
#387 = CARTESIAN_POINT ( 'NONE',  ( 1.397637795275590511, -0.7874015748031496509, 0.1574803149606299191 ) ) ;
#388 = LINE ( 'NONE', #132, #823 ) ;
#389 = VECTOR ( 'NONE', #94, 39.37007874015748143 ) ;
#390 = VECTOR ( 'NONE', #137, 39.37007874015748143 ) ;
#391 = VECTOR ( 'NONE', #944, 39.37007874015748143 ) ;
#392 = FACE_OUTER_BOUND ( 'NONE', #139, .T. ) ;
#393 = DIRECTION ( 'NONE',  ( -1.000000000000000000, 0.000000000000000000, 0.000000000000000000 ) ) ;
#394 = EDGE_CURVE ( 'NONE', #126, #834, #174, .T. ) ;
#395 = VECTOR ( 'NONE', #167, 39.37007874015748143 ) ;
#396 = FACE_OUTER_BOUND ( 'NONE', #140, .T. ) ;
#397 = CARTESIAN_POINT ( 'NONE',  ( 1.181102362204724310, 0.7874015748031496509, 0.3149606299212598381 ) ) ;
#398 = DIRECTION ( 'NONE',  ( -1.000000000000000000, 0.000000000000000000, 0.000000000000000000 ) ) ;
#399 = VERTEX_POINT ( 'NONE', #652 ) ;
#400 = LINE ( 'NONE', #730, #395 ) ;
#401 = LOCAL_TIME ( 21, 53, 41.00000000000000000, #209 ) ;
#402 = FACE_OUTER_BOUND ( 'NONE', #547, .T. ) ;
#403 = CARTESIAN_POINT ( 'NONE',  ( 1.181102362204724310, -0.7874015748031496509, 0.000000000000000000 ) ) ;
#404 = EDGE_CURVE ( 'NONE', #513, #286, #496, .T. ) ;
#405 = VERTEX_POINT ( 'NONE', #248 ) ;
#406 = CARTESIAN_POINT ( 'NONE',  ( -0.9645669291338583307, 0.7874015748031496509, 0.000000000000000000 ) ) ;
#407 = VECTOR ( 'NONE', #945, 39.37007874015748143 ) ;
#408 = DIRECTION ( 'NONE',  ( 0.000000000000000000, 0.000000000000000000, -1.000000000000000000 ) ) ;
#409 = ADVANCED_FACE ( 'NONE', ( #244 ), #12, .F. ) ;
#410 = DIRECTION ( 'NONE',  ( -0.000000000000000000, 1.000000000000000000, 0.000000000000000000 ) ) ;
#411 = DIRECTION ( 'NONE',  ( 0.000000000000000000, 0.000000000000000000, -1.000000000000000000 ) ) ;
#412 = PRODUCT_DEFINITION ( 'UNKNOWN', '', #347, #783 ) ;
#413 = AXIS2_PLACEMENT_3D ( 'NONE', #879, #645, #325 ) ;
#414 = DIRECTION ( 'NONE',  ( 0.000000000000000000, 1.000000000000000000, 0.000000000000000000 ) ) ;
#415 = ORIENTED_EDGE ( 'NONE', *, *, #46, .T. ) ;
#416 = EDGE_CURVE ( 'NONE', #689, #69, #477, .T. ) ;
#417 = DIRECTION ( 'NONE',  ( -1.000000000000000000, 0.000000000000000000, 0.000000000000000000 ) ) ;
#418 = CARTESIAN_POINT ( 'NONE',  ( 0.000000000000000000, 0.000000000000000000, 0.000000000000000000 ) ) ;
#419 = CARTESIAN_POINT ( 'NONE',  ( -2.362204724409448620, -1.574803149606299302, 0.7086614173228346081 ) ) ;
#420 = EDGE_CURVE ( 'NONE', #892, #832, #343, .T. ) ;
#421 = FACE_OUTER_BOUND ( 'NONE', #360, .T. ) ;
#422 = VERTEX_POINT ( 'NONE', #487 ) ;
#423 = CIRCLE ( 'NONE', #676, 0.2165354330708660624 ) ;
#424 = AXIS2_PLACEMENT_3D ( 'NONE', #9, #22, #485 ) ;
#425 = LINE ( 'NONE', #502, #866 ) ;
#426 = CALENDAR_DATE ( 2026, 14, 8 ) ;
#427 = EDGE_LOOP ( 'NONE', ( #199, #71 ) ) ;
#428 = DIRECTION ( 'NONE',  ( -1.000000000000000000, 0.000000000000000000, 0.000000000000000000 ) ) ;
#429 = ORIENTED_EDGE ( 'NONE', *, *, #863, .F. ) ;
#430 = ADVANCED_FACE ( 'NONE', ( #796 ), #25, .F. ) ;
#431 = CARTESIAN_POINT ( 'NONE',  ( -2.362204724409448620, 1.574803149606299302, 0.000000000000000000 ) ) ;
#432 = VECTOR ( 'NONE', #893, 39.37007874015748143 ) ;
#433 = LINE ( 'NONE', #674, #850 ) ;
#434 = ORIENTED_EDGE ( 'NONE', *, *, #298, .T. ) ;
#435 = CARTESIAN_POINT ( 'NONE',  ( -1.181102362204724310, 0.7874015748031496509, 0.3149606299212598381 ) ) ;
#436 = ORIENTED_EDGE ( 'NONE', *, *, #120, .T. ) ;
#437 = ADVANCED_FACE ( 'NONE', ( #396 ), #888, .F. ) ;
#438 = CIRCLE ( 'NONE', #524, 0.09842519685039365085 ) ;
#439 = DIRECTION ( 'NONE',  ( 0.000000000000000000, 0.000000000000000000, -1.000000000000000000 ) ) ;
#440 = SHAPE_DEFINITION_REPRESENTATION ( #638, #80 ) ;
#441 = ADVANCED_FACE ( 'NONE', ( #589 ), #807, .F. ) ;
#442 = ORIENTED_EDGE ( 'NONE', *, *, #537, .F. ) ;
#443 = ORIENTED_EDGE ( 'NONE', *, *, #1015, .T. ) ;
#444 = DIRECTION ( 'NONE',  ( -1.000000000000000000, -0.000000000000000000, -0.000000000000000000 ) ) ;
#445 = APPROVAL_DATE_TIME ( #142, #149 ) ;
#446 = AXIS2_PLACEMENT_3D ( 'NONE', #200, #361, #466 ) ;
#447 = DIRECTION ( 'NONE',  ( -1.000000000000000000, 0.000000000000000000, 0.000000000000000000 ) ) ;
#448 = DIRECTION ( 'NONE',  ( -0.000000000000000000, -0.000000000000000000, -1.000000000000000000 ) ) ;
#449 = VERTEX_POINT ( 'NONE', #86 ) ;
#450 = CARTESIAN_POINT ( 'NONE',  ( 0.9645669291338583307, -0.7874015748031496509, 0.000000000000000000 ) ) ;
#451 = ORIENTED_EDGE ( 'NONE', *, *, #824, .T. ) ;
#452 = DIRECTION ( 'NONE',  ( -0.000000000000000000, -0.000000000000000000, -1.000000000000000000 ) ) ;
#453 = ADVANCED_FACE ( 'NONE', ( #723, #7 ), #950, .T. ) ;
#454 = CARTESIAN_POINT ( 'NONE',  ( 1.181102362204724310, -0.7874015748031496509, 0.1574803149606299191 ) ) ;
#455 = ORIENTED_EDGE ( 'NONE', *, *, #933, .T. ) ;
#456 = ORIENTED_EDGE ( 'NONE', *, *, #91, .F. ) ;
#457 = DIRECTION ( 'NONE',  ( -0.000000000000000000, -0.000000000000000000, 1.000000000000000000 ) ) ;
#458 = SECURITY_CLASSIFICATION_LEVEL ( 'unclassified' ) ;
#459 = AXIS2_PLACEMENT_3D ( 'NONE', #880, #642, #561 ) ;
#460 = CIRCLE ( 'NONE', #476, 0.09842519685039378963 ) ;
#461 = LINE ( 'NONE', #707, #253 ) ;
#462 = DIRECTION ( 'NONE',  ( -1.000000000000000000, 0.000000000000000000, 0.000000000000000000 ) ) ;
#463 = ORIENTED_EDGE ( 'NONE', *, *, #696, .T. ) ;
#464 = ORIENTED_EDGE ( 'NONE', *, *, #1005, .T. ) ;
#465 = ORIENTED_EDGE ( 'NONE', *, *, #206, .T. ) ;
#466 = DIRECTION ( 'NONE',  ( -1.000000000000000000, 0.000000000000000000, 0.000000000000000000 ) ) ;
#467 = CARTESIAN_POINT ( 'NONE',  ( 1.082677165354330784, 0.7874015748031496509, 0.3149606299212598381 ) ) ;
#468 = CC_DESIGN_PERSON_AND_ORGANIZATION_ASSIGNMENT ( #1014, #532, ( #347 ) ) ;
#469 = ORIENTED_EDGE ( 'NONE', *, *, #722, .F. ) ;
#470 = FACE_OUTER_BOUND ( 'NONE', #955, .T. ) ;
#471 = DIRECTION ( 'NONE',  ( -1.000000000000000000, 0.000000000000000000, 0.000000000000000000 ) ) ;
#472 = CARTESIAN_POINT ( 'NONE',  ( 1.181102362204724310, -0.7874015748031496509, 0.3149606299212598381 ) ) ;
#473 = DIRECTION ( 'NONE',  ( -1.000000000000000000, 0.000000000000000000, 0.000000000000000000 ) ) ;
#474 = EDGE_CURVE ( 'NONE', #747, #864, #482, .T. ) ;
#475 = CIRCLE ( 'NONE', #952, 0.09842519685039365085 ) ;
#476 = AXIS2_PLACEMENT_3D ( 'NONE', #862, #708, #1017 ) ;
#477 = LINE ( 'NONE', #585, #575 ) ;
#478 = FACE_BOUND ( 'NONE', #275, .T. ) ;
#479 = DIRECTION ( 'NONE',  ( -0.000000000000000000, -0.000000000000000000, -1.000000000000000000 ) ) ;
#480 = EDGE_LOOP ( 'NONE', ( #196, #207, #469, #443 ) ) ;
#481 = VECTOR ( 'NONE', #2, 39.37007874015748143 ) ;
#482 = LINE ( 'NONE', #802, #292 ) ;
#483 = CARTESIAN_POINT ( 'NONE',  ( -0.9645669291338583307, -0.7874015748031496509, 0.1574803149606299191 ) ) ;
#484 = EDGE_CURVE ( 'NONE', #979, #782, #400, .T. ) ;
#485 = DIRECTION ( 'NONE',  ( -1.000000000000000000, 0.000000000000000000, 0.000000000000000000 ) ) ;
#486 = ORIENTED_EDGE ( 'NONE', *, *, #1005, .F. ) ;
#487 = CARTESIAN_POINT ( 'NONE',  ( -2.362204724409448620, -1.574803149606299302, 0.7086614173228346081 ) ) ;
#488 = APPROVAL_PERSON_ORGANIZATION ( #273, #856, #131 ) ;
#489 = EDGE_CURVE ( 'NONE', #710, #265, #97, .T. ) ;
#490 = CARTESIAN_POINT ( 'NONE',  ( 0.9842519685039370358, -0.5511811023622047445, 0.7086614173228346081 ) ) ;
#491 = CARTESIAN_POINT ( 'NONE',  ( 1.082677165354330784, 0.7874015748031496509, 0.1574803149606299191 ) ) ;
#492 = EDGE_CURVE ( 'NONE', #399, #287, #122, .T. ) ;
#493 = CARTESIAN_POINT ( 'NONE',  ( -1.181102362204724310, 0.7874015748031496509, 0.1574803149606299191 ) ) ;
#494 = LINE ( 'NONE', #957, #599 ) ;
#495 = VERTEX_POINT ( 'NONE', #818 ) ;
#496 = LINE ( 'NONE', #102, #432 ) ;
#497 = AXIS2_PLACEMENT_3D ( 'NONE', #836, #983, #512 ) ;
#498 = DIRECTION ( 'NONE',  ( -1.000000000000000000, 0.000000000000000000, -0.000000000000000000 ) ) ;
#499 = CARTESIAN_POINT ( 'NONE',  ( -1.279527559055118280, 0.7874015748031496509, 0.3149606299212598381 ) ) ;
#500 = EDGE_CURVE ( 'NONE', #449, #274, #991, .T. ) ;
#501 = CARTESIAN_POINT ( 'NONE',  ( -1.181102362204724310, 0.7874015748031496509, 0.3149606299212598381 ) ) ;
#502 = CARTESIAN_POINT ( 'NONE',  ( -0.9842519685039370358, 0.5511811023622047445, 0.2755905511811023167 ) ) ;
#503 = CC_DESIGN_APPROVAL ( #149, ( #692 ) ) ;
#504 = APPROVAL_ROLE ( '' ) ;
#505 = ADVANCED_FACE ( 'NONE', ( #908 ), #190, .F. ) ;
#506 = DIRECTION ( 'NONE',  ( 0.000000000000000000, 0.000000000000000000, -1.000000000000000000 ) ) ;
#507 = ORIENTED_EDGE ( 'NONE', *, *, #10, .F. ) ;
#508 = ORIENTED_EDGE ( 'NONE', *, *, #161, .T. ) ;
#509 = AXIS2_PLACEMENT_3D ( 'NONE', #578, #89, #393 ) ;
#510 = DIRECTION ( 'NONE',  ( 0.000000000000000000, 0.000000000000000000, -1.000000000000000000 ) ) ;
#511 = PERSON_AND_ORGANIZATION ( #812, #805 ) ;
#512 = DIRECTION ( 'NONE',  ( 0.000000000000000000, 0.000000000000000000, -1.000000000000000000 ) ) ;
#513 = VERTEX_POINT ( 'NONE', #517 ) ;
#514 = ORIENTED_EDGE ( 'NONE', *, *, #801, .F. ) ;
#515 = VECTOR ( 'NONE', #635, 39.37007874015748143 ) ;
#516 = ORIENTED_EDGE ( 'NONE', *, *, #489, .T. ) ;
#517 = CARTESIAN_POINT ( 'NONE',  ( -1.397637795275590511, -0.7874015748031496509, 0.1574803149606299191 ) ) ;
#518 = ORIENTED_EDGE ( 'NONE', *, *, #235, .F. ) ;
#519 = ADVANCED_FACE ( 'NONE', ( #757 ), #989, .F. ) ;
#520 = CARTESIAN_POINT ( 'NONE',  ( 0.9645669291338583307, -0.7874015748031496509, 0.1574803149606299191 ) ) ;
#521 = ORIENTED_EDGE ( 'NONE', *, *, #830, .T. ) ;
#522 = ORIENTED_EDGE ( 'NONE', *, *, #420, .F. ) ;
#523 = VECTOR ( 'NONE', #221, 39.37007874015748143 ) ;
#524 = AXIS2_PLACEMENT_3D ( 'NONE', #787, #75, #370 ) ;
#525 = ADVANCED_FACE ( 'NONE', ( #831 ), #355, .F. ) ;
#526 = DIRECTION ( 'NONE',  ( -1.000000000000000000, 0.000000000000000000, 0.000000000000000000 ) ) ;
#527 = EDGE_LOOP ( 'NONE', ( #985, #992, #214, #415 ) ) ;
#528 = DIRECTION ( 'NONE',  ( -0.000000000000000000, -0.000000000000000000, -1.000000000000000000 ) ) ;
#529 = ORIENTED_EDGE ( 'NONE', *, *, #53, .T. ) ;
#530 = ORIENTED_EDGE ( 'NONE', *, *, #222, .F. ) ;
#531 = CARTESIAN_POINT ( 'NONE',  ( -1.082677165354330562, -0.7874015748031496509, 0.3149606299212598381 ) ) ;
#532 = PERSON_AND_ORGANIZATION_ROLE ( 'creator' ) ;
#533 = ORIENTED_EDGE ( 'NONE', *, *, #789, .T. ) ;
#534 = ADVANCED_FACE ( 'NONE', ( #43 ), #602, .F. ) ;
#535 = AXIS2_PLACEMENT_3D ( 'NONE', #329, #319, #580 ) ;
#536 = CARTESIAN_POINT ( 'NONE',  ( -1.181102362204724310, -0.7874015748031496509, 0.1574803149606299191 ) ) ;
#537 = EDGE_CURVE ( 'NONE', #834, #63, #433, .T. ) ;
#538 = ORIENTED_EDGE ( 'NONE', *, *, #560, .F. ) ;
#539 = VERTEX_POINT ( 'NONE', #680 ) ;
#540 = EDGE_LOOP ( 'NONE', ( #47, #294, #840, #621 ) ) ;
#541 = CARTESIAN_POINT ( 'NONE',  ( -2.362204724409448620, 1.574803149606299302, 0.7086614173228346081 ) ) ;
#542 = CIRCLE ( 'NONE', #83, 0.2165354330708660624 ) ;
#543 = CALENDAR_DATE ( 2026, 14, 8 ) ;
#544 = LINE ( 'NONE', #297, #82 ) ;
#545 = ADVANCED_FACE ( 'NONE', ( #118 ), #972, .F. ) ;
#546 = CYLINDRICAL_SURFACE ( 'NONE', #615, 0.09842519685039365085 ) ;
#547 = EDGE_LOOP ( 'NONE', ( #826, #770 ) ) ;
#548 = ORIENTED_EDGE ( 'NONE', *, *, #394, .T. ) ;
#549 = CARTESIAN_POINT ( 'NONE',  ( 1.397637795275590511, 0.7874015748031496509, 0.1574803149606299191 ) ) ;
#550 = PERSON_AND_ORGANIZATION ( #812, #805 ) ;
#551 = VECTOR ( 'NONE', #859, 39.37007874015748143 ) ;
#552 = CARTESIAN_POINT ( 'NONE',  ( 1.082677165354330784, -0.7874015748031496509, 0.1574803149606299191 ) ) ;
#553 = CYLINDRICAL_SURFACE ( 'NONE', #186, 0.2165354330708660624 ) ;
#554 = ORIENTED_EDGE ( 'NONE', *, *, #846, .F. ) ;
#555 = ORIENTED_EDGE ( 'NONE', *, *, #617, .F. ) ;
#556 = LINE ( 'NONE', #937, #559 ) ;
#557 = APPLICATION_CONTEXT ( 'configuration controlled 3d designs of mechanical parts and assemblies' ) ;
#558 = DIRECTION ( 'NONE',  ( -1.000000000000000000, 0.000000000000000000, -0.000000000000000000 ) ) ;
#559 = VECTOR ( 'NONE', #136, 39.37007874015748143 ) ;
#560 = EDGE_CURVE ( 'NONE', #835, #800, #72, .T. ) ;
#561 = DIRECTION ( 'NONE',  ( -1.000000000000000000, 0.000000000000000000, 0.000000000000000000 ) ) ;
#562 = DIRECTION ( 'NONE',  ( -1.000000000000000000, 0.000000000000000000, 0.000000000000000000 ) ) ;
#563 = LOCAL_TIME ( 21, 53, 41.00000000000000000, #821 ) ;
#564 = LINE ( 'NONE', #483, #389 ) ;
#565 = CC_DESIGN_PERSON_AND_ORGANIZATION_ASSIGNMENT ( #281, #296, ( #692 ) ) ;
#566 = CARTESIAN_POINT ( 'NONE',  ( -1.279527559055118280, 0.7874015748031496509, 0.1574803149606299191 ) ) ;
#567 = VECTOR ( 'NONE', #272, 39.37007874015748143 ) ;
#568 = CIRCLE ( 'NONE', #424, 0.09842519685039378963 ) ;
#569 = CARTESIAN_POINT ( 'NONE',  ( -2.362204724409448620, -1.574803149606299302, 0.000000000000000000 ) ) ;
#570 = CARTESIAN_POINT ( 'NONE',  ( -1.082677165354330562, -0.7874015748031496509, 0.1574803149606299191 ) ) ;
#571 = ADVANCED_FACE ( 'NONE', ( #421 ), #666, .F. ) ;
#572 = LINE ( 'NONE', #18, #745 ) ;
#573 = EDGE_CURVE ( 'NONE', #998, #634, #825, .T. ) ;
#574 = ORIENTED_EDGE ( 'NONE', *, *, #986, .T. ) ;
#575 = VECTOR ( 'NONE', #105, 39.37007874015748143 ) ;
#576 = CARTESIAN_POINT ( 'NONE',  ( -1.181102362204724310, 0.7874015748031496509, 0.1574803149606299191 ) ) ;
#577 = CARTESIAN_POINT ( 'NONE',  ( 1.181102362204724310, 0.7874015748031496509, 0.1574803149606299191 ) ) ;
#578 = CARTESIAN_POINT ( 'NONE',  ( 1.181102362204724310, 0.7874015748031496509, 0.000000000000000000 ) ) ;
#579 = EDGE_CURVE ( 'NONE', #782, #166, #943, .T. ) ;
#580 = DIRECTION ( 'NONE',  ( -1.000000000000000000, 0.000000000000000000, 0.000000000000000000 ) ) ;
#581 = APPROVAL_PERSON_ORGANIZATION ( #262, #665, #504 ) ;
#582 = DIRECTION ( 'NONE',  ( 0.000000000000000000, 0.000000000000000000, 1.000000000000000000 ) ) ;
#583 = ORIENTED_EDGE ( 'NONE', *, *, #492, .F. ) ;
#584 = AXIS2_PLACEMENT_3D ( 'NONE', #958, #881, #398 ) ;
#585 = CARTESIAN_POINT ( 'NONE',  ( -1.397637795275590511, 0.7874015748031496509, 0.1574803149606299191 ) ) ;
#586 = AXIS2_PLACEMENT_3D ( 'NONE', #631, #154, #471 ) ;
#587 = DIRECTION ( 'NONE',  ( 0.000000000000000000, 0.000000000000000000, -1.000000000000000000 ) ) ;
#588 = EDGE_CURVE ( 'NONE', #672, #345, #228, .T. ) ;
#589 = FACE_OUTER_BOUND ( 'NONE', #687, .T. ) ;
#590 = AXIS2_PLACEMENT_3D ( 'NONE', #288, #1013, #77 ) ;
#591 = FACE_BOUND ( 'NONE', #135, .T. ) ;
#592 = APPLICATION_PROTOCOL_DEFINITION ( 'international standard', 'config_control_design', 1994, #557 ) ;
#593 = CARTESIAN_POINT ( 'NONE',  ( 1.181102362204724310, -0.7874015748031496509, 0.1574803149606299191 ) ) ;
#594 = EDGE_LOOP ( 'NONE', ( #339, #627, #162, #679 ) ) ;
#595 = DIRECTION ( 'NONE',  ( -0.000000000000000000, -0.000000000000000000, -1.000000000000000000 ) ) ;
#596 = APPROVAL_STATUS ( 'not_yet_approved' ) ;
#597 = DIRECTION ( 'NONE',  ( 0.000000000000000000, 0.000000000000000000, 1.000000000000000000 ) ) ;
#598 = ORIENTED_EDGE ( 'NONE', *, *, #189, .F. ) ;
#599 = VECTOR ( 'NONE', #245, 39.37007874015748143 ) ;
#600 = VECTOR ( 'NONE', #144, 39.37007874015748143 ) ;
#601 = EDGE_CURVE ( 'NONE', #681, #359, #556, .T. ) ;
#602 = CYLINDRICAL_SURFACE ( 'NONE', #971, 0.09842519685039378963 ) ;
#603 = ORIENTED_EDGE ( 'NONE', *, *, #277, .F. ) ;
#604 = CARTESIAN_POINT ( 'NONE',  ( -1.181102362204724310, 0.7874015748031496509, 0.3149606299212598381 ) ) ;
#605 = CC_DESIGN_PERSON_AND_ORGANIZATION_ASSIGNMENT ( #759, #839, ( #307 ) ) ;
#606 = COORDINATED_UNIVERSAL_TIME_OFFSET ( 8, 0, .AHEAD. ) ;
#607 = ORIENTED_EDGE ( 'NONE', *, *, #231, .F. ) ;
#608 = ORIENTED_EDGE ( 'NONE', *, *, #714, .F. ) ;
#609 = EDGE_CURVE ( 'NONE', #115, #399, #88, .T. ) ;
#610 = ORIENTED_EDGE ( 'NONE', *, *, #235, .T. ) ;
#611 = CARTESIAN_POINT ( 'NONE',  ( 1.181102362204724310, -0.7874015748031496509, 0.3149606299212598381 ) ) ;
#612 = EDGE_LOOP ( 'NONE', ( #182, #806, #146, #507 ) ) ;
#613 = VERTEX_POINT ( 'NONE', #152 ) ;
#614 = AXIS2_PLACEMENT_3D ( 'NONE', #106, #595, #902 ) ;
#615 = AXIS2_PLACEMENT_3D ( 'NONE', #781, #378, #224 ) ;
#616 = LINE ( 'NONE', #767, #551 ) ;
#617 = EDGE_CURVE ( 'NONE', #689, #681, #230, .T. ) ;
#618 = CALENDAR_DATE ( 2026, 14, 8 ) ;
#619 = DIRECTION ( 'NONE',  ( -0.000000000000000000, -0.000000000000000000, 1.000000000000000000 ) ) ;
#620 = CARTESIAN_POINT ( 'NONE',  ( 0.9645669291338583307, 0.7874015748031496509, 0.000000000000000000 ) ) ;
#621 = ORIENTED_EDGE ( 'NONE', *, *, #328, .T. ) ;
#622 = ORIENTED_EDGE ( 'NONE', *, *, #328, .F. ) ;
#623 = CARTESIAN_POINT ( 'NONE',  ( -1.181102362204724310, -0.7874015748031496509, 0.3149606299212598381 ) ) ;
#624 = PERSON_AND_ORGANIZATION ( #812, #805 ) ;
#625 = AXIS2_PLACEMENT_3D ( 'NONE', #962, #411, #742 ) ;
#626 = FACE_OUTER_BOUND ( 'NONE', #217, .T. ) ;
#627 = ORIENTED_EDGE ( 'NONE', *, *, #206, .F. ) ;
#628 = ORIENTED_EDGE ( 'NONE', *, *, #261, .T. ) ;
#629 = EDGE_LOOP ( 'NONE', ( #682, #990 ) ) ;
#630 = DIRECTION ( 'NONE',  ( 0.000000000000000000, 0.000000000000000000, -1.000000000000000000 ) ) ;
#631 = CARTESIAN_POINT ( 'NONE',  ( -1.181102362204724310, -0.7874015748031496509, 0.1574803149606299191 ) ) ;
#632 = CYLINDRICAL_SURFACE ( 'NONE', #29, 0.2165354330708660624 ) ;
#633 = ORIENTED_EDGE ( 'NONE', *, *, #898, .F. ) ;
#634 = VERTEX_POINT ( 'NONE', #450 ) ;
#635 = DIRECTION ( 'NONE',  ( -0.000000000000000000, -0.000000000000000000, -1.000000000000000000 ) ) ;
#636 = CIRCLE ( 'NONE', #171, 0.2165354330708660624 ) ;
#637 = DIRECTION ( 'NONE',  ( -1.000000000000000000, 0.000000000000000000, 0.000000000000000000 ) ) ;
#638 = PRODUCT_DEFINITION_SHAPE ( 'NONE', 'NONE',  #412 ) ;
#639 = DIRECTION ( 'NONE',  ( 0.000000000000000000, 0.000000000000000000, -1.000000000000000000 ) ) ;
#640 = DIRECTION ( 'NONE',  ( -1.000000000000000000, 0.000000000000000000, 0.000000000000000000 ) ) ;
#641 = AXIS2_PLACEMENT_3D ( 'NONE', #871, #630, #705 ) ;
#642 = DIRECTION ( 'NONE',  ( 0.000000000000000000, 0.000000000000000000, -1.000000000000000000 ) ) ;
#643 = DIRECTION ( 'NONE',  ( 0.000000000000000000, 0.000000000000000000, -1.000000000000000000 ) ) ;
#644 = ADVANCED_FACE ( 'NONE', ( #130 ), #690, .F. ) ;
#645 = DIRECTION ( 'NONE',  ( 0.000000000000000000, -1.000000000000000000, 0.000000000000000000 ) ) ;
#646 = EDGE_CURVE ( 'NONE', #672, #998, #766, .T. ) ;
#647 = FACE_BOUND ( 'NONE', #773, .T. ) ;
#648 = DIRECTION ( 'NONE',  ( 0.000000000000000000, 0.000000000000000000, -1.000000000000000000 ) ) ;
#649 = AXIS2_PLACEMENT_3D ( 'NONE', #256, #178, #661 ) ;
#650 = CIRCLE ( 'NONE', #283, 0.09842519685039365085 ) ;
#651 = ORIENTED_EDGE ( 'NONE', *, *, #383, .T. ) ;
#652 = CARTESIAN_POINT ( 'NONE',  ( 1.082677165354330784, -0.7874015748031496509, 0.3149606299212598381 ) ) ;
#653 = CARTESIAN_POINT ( 'NONE',  ( 2.362204724409448620, 1.574803149606299302, 0.7086614173228346081 ) ) ;
#654 = DIRECTION ( 'NONE',  ( -1.000000000000000000, 0.000000000000000000, 0.000000000000000000 ) ) ;
#655 = ADVANCED_FACE ( 'NONE', ( #788, #470 ), #215, .F. ) ;
#656 = ORIENTED_EDGE ( 'NONE', *, *, #263, .F. ) ;
#657 = CARTESIAN_POINT ( 'NONE',  ( 1.181102362204724310, 0.7874015748031496509, 0.1574803149606299191 ) ) ;
#658 = CARTESIAN_POINT ( 'NONE',  ( -1.279527559055118280, -0.7874015748031496509, 0.3149606299212598381 ) ) ;
#659 = DIRECTION ( 'NONE',  ( -1.000000000000000000, 0.000000000000000000, 0.000000000000000000 ) ) ;
#660 =( GEOMETRIC_REPRESENTATION_CONTEXT ( 3 ) GLOBAL_UNCERTAINTY_ASSIGNED_CONTEXT ( ( #857 ) ) GLOBAL_UNIT_ASSIGNED_CONTEXT ( ( #976, #352, #37 ) ) REPRESENTATION_CONTEXT ( 'NONE', 'WORKASPACE' ) );
#661 = DIRECTION ( 'NONE',  ( -1.000000000000000000, 0.000000000000000000, 0.000000000000000000 ) ) ;
#662 = DIRECTION ( 'NONE',  ( 0.000000000000000000, -0.000000000000000000, 1.000000000000000000 ) ) ;
#663 = CARTESIAN_POINT ( 'NONE',  ( 1.181102362204724310, -0.7874015748031496509, 0.1574803149606299191 ) ) ;
#664 = DIRECTION ( 'NONE',  ( -0.000000000000000000, -0.000000000000000000, -1.000000000000000000 ) ) ;
#665 = APPROVAL ( #596, 'UNSPECIFIED' ) ;
#666 = PLANE ( 'NONE',  #833 ) ;
#667 = ORIENTED_EDGE ( 'NONE', *, *, #242, .F. ) ;
#668 = CIRCLE ( 'NONE', #212, 0.09842519685039365085 ) ;
#669 = CARTESIAN_POINT ( 'NONE',  ( -1.181102362204724310, -0.7874015748031496509, 0.1574803149606299191 ) ) ;
#670 = DIRECTION ( 'NONE',  ( -1.000000000000000000, 0.000000000000000000, 0.000000000000000000 ) ) ;
#671 = ORIENTED_EDGE ( 'NONE', *, *, #120, .F. ) ;
#672 = VERTEX_POINT ( 'NONE', #387 ) ;
#673 = EDGE_LOOP ( 'NONE', ( #518, #356, #574, #675 ) ) ;
#674 = CARTESIAN_POINT ( 'NONE',  ( -2.362204724409448620, -1.574803149606299302, 0.000000000000000000 ) ) ;
#675 = ORIENTED_EDGE ( 'NONE', *, *, #311, .F. ) ;
#676 = AXIS2_PLACEMENT_3D ( 'NONE', #755, #987, #915 ) ;
#677 = DIRECTION ( 'NONE',  ( 0.000000000000000000, 0.000000000000000000, -1.000000000000000000 ) ) ;
#678 = CALENDAR_DATE ( 2026, 14, 8 ) ;
#679 = ORIENTED_EDGE ( 'NONE', *, *, #268, .F. ) ;
#680 = CARTESIAN_POINT ( 'NONE',  ( 2.362204724409448620, -1.574803149606299302, 0.7086614173228346081 ) ) ;
#681 = VERTEX_POINT ( 'NONE', #716 ) ;
#682 = ORIENTED_EDGE ( 'NONE', *, *, #886, .T. ) ;
#683 = AXIS2_PLACEMENT_3D ( 'NONE', #906, #108, #181 ) ;
#684 = DIRECTION ( 'NONE',  ( 0.000000000000000000, 0.000000000000000000, 1.000000000000000000 ) ) ;
#685 = PERSON_AND_ORGANIZATION_ROLE ( 'creator' ) ;
#686 = VERTEX_POINT ( 'NONE', #999 ) ;
#687 = EDGE_LOOP ( 'NONE', ( #318, #837, #855, #205 ) ) ;
#688 = EDGE_CURVE ( 'NONE', #819, #116, #668, .T. ) ;
#689 = VERTEX_POINT ( 'NONE', #306 ) ;
#690 = CYLINDRICAL_SURFACE ( 'NONE', #446, 0.09842519685039365085 ) ;
#691 = CALENDAR_DATE ( 2026, 14, 8 ) ;
#692 = SECURITY_CLASSIFICATION ( '', '', #458 ) ;
#693 = FACE_BOUND ( 'NONE', #191, .T. ) ;
#694 = DIRECTION ( 'NONE',  ( 0.000000000000000000, 0.000000000000000000, -1.000000000000000000 ) ) ;
#695 = ORIENTED_EDGE ( 'NONE', *, *, #187, .F. ) ;
#696 = EDGE_CURVE ( 'NONE', #285, #126, #779, .T. ) ;
#697 = AXIS2_PLACEMENT_3D ( 'NONE', #899, #439, #40 ) ;
#698 = CARTESIAN_POINT ( 'NONE',  ( -2.362204724409448620, 1.574803149606299302, 0.7086614173228346081 ) ) ;
#699 = DATE_AND_TIME ( #691, #838 ) ;
#700 = ORIENTED_EDGE ( 'NONE', *, *, #898, .T. ) ;
#701 = CARTESIAN_POINT ( 'NONE',  ( -1.181102362204724310, -0.7874015748031496509, 0.1574803149606299191 ) ) ;
#702 = EDGE_LOOP ( 'NONE', ( #901, #865 ) ) ;
#703 = ORIENTED_EDGE ( 'NONE', *, *, #99, .F. ) ;
#704 = EDGE_LOOP ( 'NONE', ( #464, #324, #608, #1010 ) ) ;
#705 = DIRECTION ( 'NONE',  ( -1.000000000000000000, 0.000000000000000000, 0.000000000000000000 ) ) ;
#706 = AXIS2_PLACEMENT_3D ( 'NONE', #593, #978, #38 ) ;
#707 = CARTESIAN_POINT ( 'NONE',  ( -1.082677165354330562, 0.7874015748031496509, 0.3149606299212598381 ) ) ;
#708 = DIRECTION ( 'NONE',  ( -0.000000000000000000, -0.000000000000000000, 1.000000000000000000 ) ) ;
#709 = ORIENTED_EDGE ( 'NONE', *, *, #394, .F. ) ;
#710 = VERTEX_POINT ( 'NONE', #771 ) ;
#711 = ORIENTED_EDGE ( 'NONE', *, *, #981, .T. ) ;
#712 = DIRECTION ( 'NONE',  ( -0.000000000000000000, -0.000000000000000000, 1.000000000000000000 ) ) ;
#713 = LINE ( 'NONE', #223, #127 ) ;
#714 = EDGE_CURVE ( 'NONE', #686, #285, #844, .T. ) ;
#715 = FACE_OUTER_BOUND ( 'NONE', #729, .T. ) ;
#716 = CARTESIAN_POINT ( 'NONE',  ( -0.9645669291338583307, 0.7874015748031496509, 0.1574803149606299191 ) ) ;
#717 = CIRCLE ( 'NONE', #792, 0.2165354330708660624 ) ;
#718 = DIRECTION ( 'NONE',  ( 0.000000000000000000, 0.000000000000000000, -1.000000000000000000 ) ) ;
#719 = PLANE ( 'NONE',  #841 ) ;
#720 = LINE ( 'NONE', #861, #203 ) ;
#721 = VECTOR ( 'NONE', #338, 39.37007874015748143 ) ;
#722 = EDGE_CURVE ( 'NONE', #422, #539, #616, .T. ) ;
#723 = FACE_OUTER_BOUND ( 'NONE', #629, .T. ) ;
#724 = EDGE_CURVE ( 'NONE', #892, #495, #51, .T. ) ;
#725 = DIRECTION ( 'NONE',  ( -1.000000000000000000, 0.000000000000000000, -0.000000000000000000 ) ) ;
#726 = AXIS2_PLACEMENT_3D ( 'NONE', #284, #619, #637 ) ;
#727 = CARTESIAN_POINT ( 'NONE',  ( -2.362204724409448620, 1.574803149606299302, 0.000000000000000000 ) ) ;
#728 = CC_DESIGN_SECURITY_CLASSIFICATION ( #692, ( #347 ) ) ;
#729 = EDGE_LOOP ( 'NONE', ( #849, #147, #113, #291 ) ) ;
#730 = CARTESIAN_POINT ( 'NONE',  ( -0.9842519685039370358, -0.5511811023622047445, 0.2755905511811023167 ) ) ;
#731 = CARTESIAN_POINT ( 'NONE',  ( 0.9842519685039370358, -0.5511811023622047445, 0.2755905511811023167 ) ) ;
#732 = FACE_OUTER_BOUND ( 'NONE', #540, .T. ) ;
#733 = AXIS2_PLACEMENT_3D ( 'NONE', #472, #249, #103 ) ;
#734 = VECTOR ( 'NONE', #878, 39.37007874015748143 ) ;
#735 = ORIENTED_EDGE ( 'NONE', *, *, #484, .T. ) ;
#736 = FACE_OUTER_BOUND ( 'NONE', #704, .T. ) ;
#737 = CARTESIAN_POINT ( 'NONE',  ( 0.9645669291338583307, 0.7874015748031496509, 0.1574803149606299191 ) ) ;
#738 = LINE ( 'NONE', #165, #734 ) ;
#739 = DIRECTION ( 'NONE',  ( -0.000000000000000000, -0.000000000000000000, -1.000000000000000000 ) ) ;
#740 = EDGE_CURVE ( 'NONE', #835, #843, #208, .T. ) ;
#741 = LINE ( 'NONE', #490, #79 ) ;
#742 = DIRECTION ( 'NONE',  ( -1.000000000000000000, 0.000000000000000000, 0.000000000000000000 ) ) ;
#743 = PLANE ( 'NONE',  #333 ) ;
#744 = VECTOR ( 'NONE', #4, 39.37007874015748143 ) ;
#745 = VECTOR ( 'NONE', #479, 39.37007874015748143 ) ;
#746 = DIRECTION ( 'NONE',  ( -0.000000000000000000, -0.000000000000000000, -1.000000000000000000 ) ) ;
#747 = VERTEX_POINT ( 'NONE', #1007 ) ;
#748 = CIRCLE ( 'NONE', #586, 0.09842519685039378963 ) ;
#749 = DIRECTION ( 'NONE',  ( -0.000000000000000000, -0.000000000000000000, 1.000000000000000000 ) ) ;
#750 = ADVANCED_FACE ( 'NONE', ( #148 ), #851, .F. ) ;
#751 = DIRECTION ( 'NONE',  ( 1.000000000000000000, 0.000000000000000000, 0.000000000000000000 ) ) ;
#752 = EDGE_LOOP ( 'NONE', ( #529, #129 ) ) ;
#753 = ADVANCED_FACE ( 'NONE', ( #785 ), #73, .F. ) ;
#754 = ADVANCED_FACE ( 'NONE', ( #402 ), #330, .T. ) ;
#755 = CARTESIAN_POINT ( 'NONE',  ( -1.181102362204724310, -0.7874015748031496509, 0.000000000000000000 ) ) ;
#756 = EDGE_LOOP ( 'NONE', ( #628, #354 ) ) ;
#757 = FACE_OUTER_BOUND ( 'NONE', #527, .T. ) ;
#758 = ORIENTED_EDGE ( 'NONE', *, *, #474, .T. ) ;
#759 = PERSON_AND_ORGANIZATION ( #812, #805 ) ;
#760 = DIRECTION ( 'NONE',  ( 0.000000000000000000, 0.000000000000000000, -1.000000000000000000 ) ) ;
#761 = VERTEX_POINT ( 'NONE', #14 ) ;
#762 = AXIS2_PLACEMENT_3D ( 'NONE', #169, #954, #313 ) ;
#763 = APPROVAL_STATUS ( 'not_yet_approved' ) ;
#764 = ORIENTED_EDGE ( 'NONE', *, *, #940, .T. ) ;
#765 = EDGE_LOOP ( 'NONE', ( #984, #554 ) ) ;
#766 = CIRCLE ( 'NONE', #5, 0.2165354330708660624 ) ;
#767 = CARTESIAN_POINT ( 'NONE',  ( -2.362204724409448620, -1.574803149606299302, 0.7086614173228346081 ) ) ;
#768 = PLANE ( 'NONE',  #793 ) ;
#769 = FACE_OUTER_BOUND ( 'NONE', #926, .T. ) ;
#770 = ORIENTED_EDGE ( 'NONE', *, *, #371, .T. ) ;
#771 = CARTESIAN_POINT ( 'NONE',  ( 0.9842519685039370358, 0.5511811023622047445, 0.2755905511811023167 ) ) ;
#772 = APPROVAL_PERSON_ORGANIZATION ( #550, #149, #353 ) ;
#773 = EDGE_LOOP ( 'NONE', ( #671, #598 ) ) ;
#774 = CARTESIAN_POINT ( 'NONE',  ( 0.9842519685039370358, 0.5511811023622047445, 0.2755905511811023167 ) ) ;
#775 = ORIENTED_EDGE ( 'NONE', *, *, #268, .T. ) ;
#776 = ORIENTED_EDGE ( 'NONE', *, *, #263, .T. ) ;
#777 = ORIENTED_EDGE ( 'NONE', *, *, #161, .F. ) ;
#778 = VECTOR ( 'NONE', #124, 39.37007874015748143 ) ;
#779 = LINE ( 'NONE', #541, #799 ) ;
#780 = LINE ( 'NONE', #74, #390 ) ;
#781 = CARTESIAN_POINT ( 'NONE',  ( 1.181102362204724310, 0.7874015748031496509, 0.3149606299212598381 ) ) ;
#782 = VERTEX_POINT ( 'NONE', #731 ) ;
#783 = DESIGN_CONTEXT ( 'detailed design', #557, 'design' ) ;
#784 = EDGE_LOOP ( 'NONE', ( #973, #11 ) ) ;
#785 = FACE_OUTER_BOUND ( 'NONE', #869, .T. ) ;
#786 = DIRECTION ( 'NONE',  ( -0.000000000000000000, -0.000000000000000000, 1.000000000000000000 ) ) ;
#787 = CARTESIAN_POINT ( 'NONE',  ( 1.181102362204724310, -0.7874015748031496509, 0.1574803149606299191 ) ) ;
#788 = FACE_BOUND ( 'NONE', #194, .T. ) ;
#789 = EDGE_CURVE ( 'NONE', #166, #761, #741, .T. ) ;
#790 = FACE_OUTER_BOUND ( 'NONE', #31, .T. ) ;
#791 = DIRECTION ( 'NONE',  ( -1.000000000000000000, 0.000000000000000000, 0.000000000000000000 ) ) ;
#792 = AXIS2_PLACEMENT_3D ( 'NONE', #327, #885, #159 ) ;
#793 = AXIS2_PLACEMENT_3D ( 'NONE', #210, #1016, #847 ) ;
#794 = CARTESIAN_POINT ( 'NONE',  ( -0.9842519685039370358, 0.5511811023622047445, 0.2755905511811023167 ) ) ;
#795 = EDGE_CURVE ( 'NONE', #539, #686, #172, .T. ) ;
#796 = FACE_OUTER_BOUND ( 'NONE', #480, .T. ) ;
#797 = CARTESIAN_POINT ( 'NONE',  ( 1.279527559055117836, 0.7874015748031496509, 0.1574803149606299191 ) ) ;
#798 = DIRECTION ( 'NONE',  ( 0.000000000000000000, -0.000000000000000000, 1.000000000000000000 ) ) ;
#799 = VECTOR ( 'NONE', #66, 39.37007874015748143 ) ;
#800 = VERTEX_POINT ( 'NONE', #322 ) ;
#801 = EDGE_CURVE ( 'NONE', #800, #220, #312, .T. ) ;
#802 = CARTESIAN_POINT ( 'NONE',  ( -0.9842519685039370358, -0.5511811023622047445, 0.7086614173228346081 ) ) ;
#803 = DIRECTION ( 'NONE',  ( 0.000000000000000000, 0.000000000000000000, -1.000000000000000000 ) ) ;
#804 = CARTESIAN_POINT ( 'NONE',  ( -0.9645669291338583307, -0.7874015748031496509, 0.1574803149606299191 ) ) ;
#805 = ORGANIZATION ( 'UNSPECIFIED', 'UNSPECIFIED', '' ) ;
#806 = ORIENTED_EDGE ( 'NONE', *, *, #981, .F. ) ;
#807 = CYLINDRICAL_SURFACE ( 'NONE', #310, 0.2165354330708660624 ) ;
#808 = DIRECTION ( 'NONE',  ( -0.000000000000000000, -0.000000000000000000, -1.000000000000000000 ) ) ;
#809 = CARTESIAN_POINT ( 'NONE',  ( 2.362204724409448620, -1.574803149606299302, 0.000000000000000000 ) ) ;
#810 = PLANE ( 'NONE',  #413 ) ;
#811 = CARTESIAN_POINT ( 'NONE',  ( 1.279527559055117836, -0.7874015748031496509, 0.3149606299212598381 ) ) ;
#812 = PERSON ( 'UNSPECIFIED', 'UNSPECIFIED', 'UNSPECIFIED', ('UNSPECIFIED'), ('UNSPECIFIED'), ('UNSPECIFIED') ) ;
#813 = EDGE_CURVE ( 'NONE', #495, #36, #145, .T. ) ;
#814 = AXIS2_PLACEMENT_3D ( 'NONE', #956, #332, #662 ) ;
#815 = DIRECTION ( 'NONE',  ( -0.000000000000000000, -0.000000000000000000, -1.000000000000000000 ) ) ;
#816 = FACE_OUTER_BOUND ( 'NONE', #858, .T. ) ;
#817 = LINE ( 'NONE', #107, #567 ) ;
#818 = CARTESIAN_POINT ( 'NONE',  ( 1.397637795275590511, 0.7874015748031496509, 0.000000000000000000 ) ) ;
#819 = VERTEX_POINT ( 'NONE', #797 ) ;
#820 = DIRECTION ( 'NONE',  ( -0.000000000000000000, -0.000000000000000000, 1.000000000000000000 ) ) ;
#821 = COORDINATED_UNIVERSAL_TIME_OFFSET ( 8, 0, .AHEAD. ) ;
#822 = EDGE_CURVE ( 'NONE', #686, #201, #24, .T. ) ;
#823 = VECTOR ( 'NONE', #150, 39.37007874015748143 ) ;
#824 = EDGE_CURVE ( 'NONE', #864, #166, #494, .T. ) ;
#825 = LINE ( 'NONE', #114, #481 ) ;
#826 = ORIENTED_EDGE ( 'NONE', *, *, #99, .T. ) ;
#827 = PRODUCT_RELATED_PRODUCT_CATEGORY ( 'detail', '', ( #307 ) ) ;
#828 = CYLINDRICAL_SURFACE ( 'NONE', #185, 0.09842519685039378963 ) ;
#829 = DIRECTION ( 'NONE',  ( -1.000000000000000000, 0.000000000000000000, 0.000000000000000000 ) ) ;
#830 = EDGE_CURVE ( 'NONE', #115, #58, #98, .T. ) ;
#831 = FACE_OUTER_BOUND ( 'NONE', #942, .T. ) ;
#832 = VERTEX_POINT ( 'NONE', #737 ) ;
#833 = AXIS2_PLACEMENT_3D ( 'NONE', #258, #900, #506 ) ;
#834 = VERTEX_POINT ( 'NONE', #232 ) ;
#835 = VERTEX_POINT ( 'NONE', #873 ) ;
#836 = CARTESIAN_POINT ( 'NONE',  ( -2.362204724409448620, -1.574803149606299302, 0.7086614173228346081 ) ) ;
#837 = ORIENTED_EDGE ( 'NONE', *, *, #601, .T. ) ;
#838 = LOCAL_TIME ( 21, 53, 41.00000000000000000, #41 ) ;
#839 = PERSON_AND_ORGANIZATION_ROLE ( 'design_owner' ) ;
#840 = ORIENTED_EDGE ( 'NONE', *, *, #489, .F. ) ;
#841 = AXIS2_PLACEMENT_3D ( 'NONE', #948, #234, #875 ) ;
#842 = CIRCLE ( 'NONE', #509, 0.2165354330708660624 ) ;
#843 = VERTEX_POINT ( 'NONE', #570 ) ;
#844 = LINE ( 'NONE', #698, #967 ) ;
#845 = ORIENTED_EDGE ( 'NONE', *, *, #960, .F. ) ;
#846 = EDGE_CURVE ( 'NONE', #379, #286, #282, .T. ) ;
#847 = DIRECTION ( 'NONE',  ( -1.000000000000000000, 0.000000000000000000, -0.000000000000000000 ) ) ;
#848 = CARTESIAN_POINT ( 'NONE',  ( 1.181102362204724310, 0.7874015748031496509, 0.1574803149606299191 ) ) ;
#849 = ORIENTED_EDGE ( 'NONE', *, *, #724, .F. ) ;
#850 = VECTOR ( 'NONE', #751, 39.37007874015748143 ) ;
#851 = CYLINDRICAL_SURFACE ( 'NONE', #112, 0.09842519685039378963 ) ;
#852 = DATE_TIME_ROLE ( 'creation_date' ) ;
#853 = LINE ( 'NONE', #774, #362 ) ;
#854 = PLANE ( 'NONE',  #16 ) ;
#855 = ORIENTED_EDGE ( 'NONE', *, *, #988, .T. ) ;
#856 = APPROVAL ( #1000, 'UNSPECIFIED' ) ;
#857 = UNCERTAINTY_MEASURE_WITH_UNIT (LENGTH_MEASURE( 1.000000000000000082E-05 ), #976, 'distance_accuracy_value', 'NONE');
#858 = EDGE_LOOP ( 'NONE', ( #1018, #247, #429, #914 ) ) ;
#859 = DIRECTION ( 'NONE',  ( 1.000000000000000000, 0.000000000000000000, 0.000000000000000000 ) ) ;
#860 = CC_DESIGN_APPROVAL ( #665, ( #412 ) ) ;
#861 = CARTESIAN_POINT ( 'NONE',  ( 2.362204724409448620, -1.574803149606299302, 0.000000000000000000 ) ) ;
#862 = CARTESIAN_POINT ( 'NONE',  ( -1.181102362204724310, 0.7874015748031496509, 0.1574803149606299191 ) ) ;
#863 = EDGE_CURVE ( 'NONE', #116, #819, #368, .T. ) ;
#864 = VERTEX_POINT ( 'NONE', #963 ) ;
#865 = ORIENTED_EDGE ( 'NONE', *, *, #688, .T. ) ;
#866 = VECTOR ( 'NONE', #820, 39.37007874015748143 ) ;
#867 = CARTESIAN_POINT ( 'NONE',  ( 1.397637795275590511, -0.7874015748031496509, 0.1574803149606299191 ) ) ;
#868 = CARTESIAN_POINT ( 'NONE',  ( -1.397637795275590511, -0.7874015748031496509, 0.000000000000000000 ) ) ;
#869 = EDGE_LOOP ( 'NONE', ( #758, #656, #667, #764 ) ) ;
#870 = ORIENTED_EDGE ( 'NONE', *, *, #53, .F. ) ;
#871 = CARTESIAN_POINT ( 'NONE',  ( -1.181102362204724310, 0.7874015748031496509, 0.1574803149606299191 ) ) ;
#872 = CYLINDRICAL_SURFACE ( 'NONE', #76, 0.2165354330708660624 ) ;
#873 = CARTESIAN_POINT ( 'NONE',  ( -1.082677165354330562, -0.7874015748031496509, 0.3149606299212598381 ) ) ;
#874 = CARTESIAN_POINT ( 'NONE',  ( 2.362204724409448620, 1.574803149606299302, 0.000000000000000000 ) ) ;
#875 = DIRECTION ( 'NONE',  ( -1.000000000000000000, 0.000000000000000000, -0.000000000000000000 ) ) ;
#876 = CIRCLE ( 'NONE', #649, 0.2165354330708660624 ) ;
#877 = AXIS2_PLACEMENT_3D ( 'NONE', #949, #643, #84 ) ;
#878 = DIRECTION ( 'NONE',  ( 0.000000000000000000, 1.000000000000000000, 0.000000000000000000 ) ) ;
#879 = CARTESIAN_POINT ( 'NONE',  ( -2.362204724409448620, 1.574803149606299302, 0.7086614173228346081 ) ) ;
#880 = CARTESIAN_POINT ( 'NONE',  ( -1.181102362204724310, -0.7874015748031496509, 0.000000000000000000 ) ) ;
#881 = DIRECTION ( 'NONE',  ( 0.000000000000000000, 0.000000000000000000, -1.000000000000000000 ) ) ;
#882 = AXIS2_PLACEMENT_3D ( 'NONE', #435, #760, #193 ) ;
#883 = EDGE_LOOP ( 'NONE', ( #548, #351, #603, #463 ) ) ;
#884 = CARTESIAN_POINT ( 'NONE',  ( 1.181102362204724310, 0.7874015748031496509, 0.1574803149606299191 ) ) ;
#885 = DIRECTION ( 'NONE',  ( 0.000000000000000000, 0.000000000000000000, -1.000000000000000000 ) ) ;
#886 = EDGE_CURVE ( 'NONE', #832, #892, #717, .T. ) ;
#887 = DIRECTION ( 'NONE',  ( 0.000000000000000000, 0.000000000000000000, -1.000000000000000000 ) ) ;
#888 = CYLINDRICAL_SURFACE ( 'NONE', #357, 0.2165354330708660624 ) ;
#889 = ADVANCED_FACE ( 'NONE', ( #392 ), #155, .F. ) ;
#890 = CARTESIAN_POINT ( 'NONE',  ( 2.362204724409448620, -1.574803149606299302, 0.7086614173228346081 ) ) ;
#891 = CIRCLE ( 'NONE', #1004, 0.2165354330708660624 ) ;
#892 = VERTEX_POINT ( 'NONE', #168 ) ;
#893 = DIRECTION ( 'NONE',  ( -0.000000000000000000, -0.000000000000000000, -1.000000000000000000 ) ) ;
#894 = DIRECTION ( 'NONE',  ( 0.000000000000000000, 0.000000000000000000, -1.000000000000000000 ) ) ;
#895 = ADVANCED_FACE ( 'NONE', ( #316 ), #719, .T. ) ;
#896 = DIRECTION ( 'NONE',  ( -0.000000000000000000, -0.000000000000000000, -1.000000000000000000 ) ) ;
#897 = PLANE ( 'NONE',  #100 ) ;
#898 = EDGE_CURVE ( 'NONE', #151, #379, #564, .T. ) ;
#899 = CARTESIAN_POINT ( 'NONE',  ( -1.181102362204724310, 0.7874015748031496509, 0.000000000000000000 ) ) ;
#900 = DIRECTION ( 'NONE',  ( 1.000000000000000000, -0.000000000000000000, 0.000000000000000000 ) ) ;
#901 = ORIENTED_EDGE ( 'NONE', *, *, #863, .T. ) ;
#902 = DIRECTION ( 'NONE',  ( -1.000000000000000000, 0.000000000000000000, 0.000000000000000000 ) ) ;
#903 = DATE_AND_TIME ( #426, #563 ) ;
#904 = VECTOR ( 'NONE', #808, 39.37007874015748143 ) ;
#905 = CIRCLE ( 'NONE', #762, 0.09842519685039378963 ) ;
#906 = CARTESIAN_POINT ( 'NONE',  ( -0.9842519685039370358, -0.5511811023622047445, 0.2755905511811023167 ) ) ;
#907 = ORIENTED_EDGE ( 'NONE', *, *, #331, .F. ) ;
#908 = FACE_OUTER_BOUND ( 'NONE', #1011, .T. ) ;
#909 = ORIENTED_EDGE ( 'NONE', *, *, #740, .T. ) ;
#910 = LINE ( 'NONE', #431, #778 ) ;
#911 = PERSON_AND_ORGANIZATION_ROLE ( 'design_supplier' ) ;
#912 = ADVANCED_FACE ( 'NONE', ( #478, #87, #8, #647, #175 ), #743, .T. ) ;
#913 = EDGE_LOOP ( 'NONE', ( #977, #703, #434, #188 ) ) ;
#914 = ORIENTED_EDGE ( 'NONE', *, *, #298, .F. ) ;
#915 = DIRECTION ( 'NONE',  ( -1.000000000000000000, 0.000000000000000000, 0.000000000000000000 ) ) ;
#916 = ORIENTED_EDGE ( 'NONE', *, *, #813, .F. ) ;
#917 = AXIS2_PLACEMENT_3D ( 'NONE', #669, #587, #974 ) ;
#918 = ORIENTED_EDGE ( 'NONE', *, *, #474, .F. ) ;
#919 = AXIS2_PLACEMENT_3D ( 'NONE', #143, #718, #947 ) ;
#920 = DIRECTION ( 'NONE',  ( -0.000000000000000000, -0.000000000000000000, -1.000000000000000000 ) ) ;
#921 = APPROVAL_DATE_TIME ( #994, #856 ) ;
#922 = VERTEX_POINT ( 'NONE', #969 ) ;
#923 = FACE_OUTER_BOUND ( 'NONE', #213, .T. ) ;
#924 = CARTESIAN_POINT ( 'NONE',  ( 1.181102362204724310, -0.7874015748031496509, 0.3149606299212598381 ) ) ;
#925 = ADVANCED_FACE ( 'NONE', ( #26, #335 ), #110, .T. ) ;
#926 = EDGE_LOOP ( 'NONE', ( #173, #243, #56, #1009 ) ) ;
#927 = ORIENTED_EDGE ( 'NONE', *, *, #404, .F. ) ;
#928 = AXIS2_PLACEMENT_3D ( 'NONE', #270, #670, #597 ) ;
#929 = DIRECTION ( 'NONE',  ( -1.000000000000000000, 0.000000000000000000, 0.000000000000000000 ) ) ;
#930 = DATE_AND_TIME ( #618, #121 ) ;
#931 = ADVANCED_FACE ( 'NONE', ( #33, #591 ), #897, .T. ) ;
#932 = CYLINDRICAL_SURFACE ( 'NONE', #953, 0.09842519685039378963 ) ;
#933 = EDGE_CURVE ( 'NONE', #69, #359, #876, .T. ) ;
#934 = FACE_OUTER_BOUND ( 'NONE', #913, .T. ) ;
#935 = ORIENTED_EDGE ( 'NONE', *, *, #601, .F. ) ;
#936 = ORIENTED_EDGE ( 'NONE', *, *, #261, .F. ) ;
#937 = CARTESIAN_POINT ( 'NONE',  ( -0.9645669291338583307, 0.7874015748031496509, 0.1574803149606299191 ) ) ;
#938 = COORDINATED_UNIVERSAL_TIME_OFFSET ( 8, 0, .AHEAD. ) ;
#939 = CARTESIAN_POINT ( 'NONE',  ( -1.082677165354330562, 0.7874015748031496509, 0.3149606299212598381 ) ) ;
#940 = EDGE_CURVE ( 'NONE', #265, #747, #425, .T. ) ;
#941 = ORIENTED_EDGE ( 'NONE', *, *, #242, .T. ) ;
#942 = EDGE_LOOP ( 'NONE', ( #451, #90, #19, #776 ) ) ;
#943 = LINE ( 'NONE', #280, #959 ) ;
#944 = DIRECTION ( 'NONE',  ( -0.000000000000000000, -0.000000000000000000, -1.000000000000000000 ) ) ;
#945 = DIRECTION ( 'NONE',  ( -0.000000000000000000, -0.000000000000000000, -1.000000000000000000 ) ) ;
#946 = VECTOR ( 'NONE', #30, 39.37007874015748143 ) ;
#947 = DIRECTION ( 'NONE',  ( -1.000000000000000000, 0.000000000000000000, 0.000000000000000000 ) ) ;
#948 = CARTESIAN_POINT ( 'NONE',  ( -1.181102362204724310, -0.7874015748031496509, 0.3149606299212598381 ) ) ;
#949 = CARTESIAN_POINT ( 'NONE',  ( -1.181102362204724310, 0.7874015748031496509, 0.3149606299212598381 ) ) ;
#950 = PLANE ( 'NONE',  #257 ) ;
#951 = DIRECTION ( 'NONE',  ( -1.000000000000000000, 0.000000000000000000, 0.000000000000000000 ) ) ;
#952 = AXIS2_PLACEMENT_3D ( 'NONE', #966, #749, #254 ) ;
#953 = AXIS2_PLACEMENT_3D ( 'NONE', #216, #60, #417 ) ;
#954 = DIRECTION ( 'NONE',  ( 0.000000000000000000, 0.000000000000000000, -1.000000000000000000 ) ) ;
#955 = EDGE_LOOP ( 'NONE', ( #259, #381, #1019, #372 ) ) ;
#956 = CARTESIAN_POINT ( 'NONE',  ( -2.362204724409448620, -1.574803149606299302, 0.7086614173228346081 ) ) ;
#957 = CARTESIAN_POINT ( 'NONE',  ( -0.9842519685039370358, -0.5511811023622047445, 0.7086614173228346081 ) ) ;
#958 = CARTESIAN_POINT ( 'NONE',  ( 1.181102362204724310, -0.7874015748031496509, 0.000000000000000000 ) ) ;
#959 = VECTOR ( 'NONE', #712, 39.37007874015748143 ) ;
#960 = EDGE_CURVE ( 'NONE', #287, #58, #475, .T. ) ;
#961 = ORIENTED_EDGE ( 'NONE', *, *, #64, .F. ) ;
#962 = CARTESIAN_POINT ( 'NONE',  ( 1.181102362204724310, 0.7874015748031496509, 0.1574803149606299191 ) ) ;
#963 = CARTESIAN_POINT ( 'NONE',  ( -0.9842519685039370358, -0.5511811023622047445, 0.7086614173228346081 ) ) ;
#964 = ADVANCED_FACE ( 'NONE', ( #816 ), #341, .F. ) ;
#965 = DIRECTION ( 'NONE',  ( -0.000000000000000000, -1.000000000000000000, -0.000000000000000000 ) ) ;
#966 = CARTESIAN_POINT ( 'NONE',  ( 1.181102362204724310, -0.7874015748031496509, 0.1574803149606299191 ) ) ;
#967 = VECTOR ( 'NONE', #444, 39.37007874015748143 ) ;
#968 = DIRECTION ( 'NONE',  ( -1.000000000000000000, 0.000000000000000000, 0.000000000000000000 ) ) ;
#969 = CARTESIAN_POINT ( 'NONE',  ( 1.279527559055117836, 0.7874015748031496509, 0.3149606299212598381 ) ) ;
#970 = ADVANCED_FACE ( 'NONE', ( #183 ), #828, .F. ) ;
#971 = AXIS2_PLACEMENT_3D ( 'NONE', #501, #746, #349 ) ;
#972 = PLANE ( 'NONE',  #497 ) ;
#973 = ORIENTED_EDGE ( 'NONE', *, *, #933, .F. ) ;
#974 = DIRECTION ( 'NONE',  ( -1.000000000000000000, 0.000000000000000000, -0.000000000000000000 ) ) ;
#975 = EDGE_CURVE ( 'NONE', #286, #379, #423, .T. ) ;
#976 =( CONVERSION_BASED_UNIT ( 'INCH', #195 ) LENGTH_UNIT ( ) NAMED_UNIT ( #995 ) );
#977 = ORIENTED_EDGE ( 'NONE', *, *, #997, .F. ) ;
#978 = DIRECTION ( 'NONE',  ( -0.000000000000000000, -0.000000000000000000, -1.000000000000000000 ) ) ;
#979 = VERTEX_POINT ( 'NONE', #980 ) ;
#980 = CARTESIAN_POINT ( 'NONE',  ( -0.9842519685039370358, -0.5511811023622047445, 0.2755905511811023167 ) ) ;
#981 = EDGE_CURVE ( 'NONE', #399, #115, #157, .T. ) ;
#982 = EDGE_LOOP ( 'NONE', ( #465, #109 ) ) ;
#983 = DIRECTION ( 'NONE',  ( 1.000000000000000000, 0.000000000000000000, 0.000000000000000000 ) ) ;
#984 = ORIENTED_EDGE ( 'NONE', *, *, #975, .F. ) ;
#985 = ORIENTED_EDGE ( 'NONE', *, *, #222, .T. ) ;
#986 = EDGE_CURVE ( 'NONE', #449, #128, #276, .T. ) ;
#987 = DIRECTION ( 'NONE',  ( 0.000000000000000000, 0.000000000000000000, -1.000000000000000000 ) ) ;
#988 = EDGE_CURVE ( 'NONE', #359, #69, #61, .T. ) ;
#989 = PLANE ( 'NONE',  #928 ) ;
#990 = ORIENTED_EDGE ( 'NONE', *, *, #420, .T. ) ;
#991 = CIRCLE ( 'NONE', #882, 0.09842519685039378963 ) ;
#992 = ORIENTED_EDGE ( 'NONE', *, *, #822, .F. ) ;
#993 = LINE ( 'NONE', #419, #238 ) ;
#994 = DATE_AND_TIME ( #543, #180 ) ;
#995 = DIMENSIONAL_EXPONENTS ( 1.000000000000000000, 0.000000000000000000, 0.000000000000000000, 0.000000000000000000, 0.000000000000000000, 0.000000000000000000, 0.000000000000000000 ) ;
#996 = ORIENTED_EDGE ( 'NONE', *, *, #187, .T. ) ;
#997 = EDGE_CURVE ( 'NONE', #922, #819, #817, .T. ) ;
#998 = VERTEX_POINT ( 'NONE', #520 ) ;
#999 = CARTESIAN_POINT ( 'NONE',  ( 2.362204724409448620, 1.574803149606299302, 0.7086614173228346081 ) ) ;
#1000 = APPROVAL_STATUS ( 'not_yet_approved' ) ;
#1001 = CARTESIAN_POINT ( 'NONE',  ( -1.181102362204724310, 0.7874015748031496509, 0.1574803149606299191 ) ) ;
#1002 = ORIENTED_EDGE ( 'NONE', *, *, #986, .F. ) ;
#1003 = VECTOR ( 'NONE', #342, 39.37007874015748143 ) ;
#1004 = AXIS2_PLACEMENT_3D ( 'NONE', #403, #246, #562 ) ;
#1005 = EDGE_CURVE ( 'NONE', #201, #126, #910, .T. ) ;
#1006 = ORIENTED_EDGE ( 'NONE', *, *, #609, .F. ) ;
#1007 = CARTESIAN_POINT ( 'NONE',  ( -0.9842519685039370358, 0.5511811023622047445, 0.7086614173228346081 ) ) ;
#1008 = DIRECTION ( 'NONE',  ( 0.000000000000000000, 0.000000000000000000, -1.000000000000000000 ) ) ;
#1009 = ORIENTED_EDGE ( 'NONE', *, *, #573, .F. ) ;
#1010 = ORIENTED_EDGE ( 'NONE', *, *, #822, .T. ) ;
#1011 = EDGE_LOOP ( 'NONE', ( #70, #870, #65, #436 ) ) ;
#1012 = VECTOR ( 'NONE', #965, 39.37007874015748143 ) ;
#1013 = DIRECTION ( 'NONE',  ( 0.000000000000000000, 0.000000000000000000, -1.000000000000000000 ) ) ;
#1014 = PERSON_AND_ORGANIZATION ( #812, #805 ) ;
#1015 = EDGE_CURVE ( 'NONE', #422, #834, #993, .T. ) ;
#1016 = DIRECTION ( 'NONE',  ( 0.000000000000000000, 0.000000000000000000, -1.000000000000000000 ) ) ;
#1017 = DIRECTION ( 'NONE',  ( -1.000000000000000000, 0.000000000000000000, 0.000000000000000000 ) ) ;
#1018 = ORIENTED_EDGE ( 'NONE', *, *, #371, .F. ) ;
#1019 = ORIENTED_EDGE ( 'NONE', *, *, #277, .T. ) ;
#1020 = CARTESIAN_POINT ( 'NONE',  ( 1.181102362204724310, -0.7874015748031496509, 0.3149606299212598381 ) ) ;
#1021 = PLANE ( 'NONE',  #204 ) ;
#1022 = LINE ( 'NONE', #299, #600 ) ;
ENDSEC;
END-ISO-10303-21;
