999
FreeCAD v1.1 20260725 (Git shallow)
  0
SECTION
  2
HEADER
  9
$ACADVER
  1
AC1014
  9
$ACADMAINTVER
 70
     9
  9
$DWGCODEPAGE
  3
ANSI_1252
  9
$TEXTSTYLE
  7
STANDARD
  9
$DIMSTYLE
  2
STANDARD
  9
$DIMTXSTY
  7
STANDARD
  9
$CMLSTYLE
  2
STANDARD
  9
$LUNITS
 70
2
  9
$INSUNITS
 70
4
  9
$PEXTMAX
 10
50
 20
50
 30
50
  9
$PEXTMIN
 10
0
 20
0
 30
0
  9
$HANDSEED
  5
FFFF
  0
ENDSEC
  0
SECTION
  2
CLASSES
  0
CLASS
  1
ACDBDICTIONARYWDFLT
  2
AcDbDictionaryWithDefault
  3
ObjectDBX Classes
 90
        0
280
     0
281
     0
  0
CLASS
  1
XRECORD
  2
AcDbXrecord
  3
ObjectDBX Classes
 90
        0
280
     0
281
     0
  0
CLASS
  1
LWPOLYLINE
  2
AcDbPolyline
  3
ObjectDBX Classes
 90
        0
280
     0
281
     1
  0
ENDSEC
  0
SECTION
  2
TABLES
  0
TABLE
  2
VPORT
  5
20
330
0
100
AcDbSymbolTable
 70
     1
  0
VPORT
  5
21
330
20
100
AcDbSymbolTableRecord
100
AcDbViewportTableRecord
  2
*ACTIVE
 70
     0
  0
ENDTAB
  0
TABLE
  2
LTYPE
  5
22
330
0
100
AcDbSymbolTable
 70
     1
  0
LTYPE
  5
23
330
21
100
AcDbSymbolTableRecord
100
AcDbLinetypeTableRecord
  2
BYBLOCK
 70
     0
  3

 72
    65
 73
     0
 40
0.0
  0
LTYPE
  5
24
330
21
100
AcDbSymbolTableRecord
100
AcDbLinetypeTableRecord
  2
BYLAYER
 70
     0
  3

 72
    65
 73
     0
 40
0.0
  0
LTYPE
  5
25
330
21
100
AcDbSymbolTableRecord
100
AcDbLinetypeTableRecord
  2
CONTINUOUS
 70
     0
  3
Solid line
 72
    65
 73
     0
 40
0.0
  0
ENDTAB
  0
TABLE
  2
LAYER
  5
A68
330
0
100
AcDbSymbolTable
 70
7
  0
LAYER
  5
A69
330
A68
100
AcDbSymbolTableRecord
100
AcDbLayerTableRecord
  2
0
 70
   0
 62
   7
  6
CONTINUOUS
  0
LAYER
  5
A6A
330
A68
100
AcDbSymbolTableRecord
100
AcDbLayerTableRecord
  2
ProjItem
 70
    0
 62
    7
  6
CONTINUOUS
  0
LAYER
  5
A6B
330
A68
100
AcDbSymbolTableRecord
100
AcDbLayerTableRecord
  2
ProjItem001
 70
    0
 62
    7
  6
CONTINUOUS
  0
LAYER
  5
A6C
330
A68
100
AcDbSymbolTableRecord
100
AcDbLayerTableRecord
  2
ProjItem002
 70
    0
 62
    7
  6
CONTINUOUS
  0
LAYER
  5
A6D
330
A68
100
AcDbSymbolTableRecord
100
AcDbLayerTableRecord
  2
DimDia8
 70
    0
 62
    7
  6
CONTINUOUS
  0
LAYER
  5
A6E
330
A68
100
AcDbSymbolTableRecord
100
AcDbLayerTableRecord
  2
DimWidth
 70
    0
 62
    7
  6
CONTINUOUS
  0
LAYER
  5
A6F
330
A68
100
AcDbSymbolTableRecord
100
AcDbLayerTableRecord
  2
DimHeight
 70
    0
 62
    7
  6
CONTINUOUS
  0
ENDTAB
  0
TABLE
  2
STYLE
  5
70
330
0
100
AcDbSymbolTable
 70
     2
  0
STYLE
  5
71
330
70
100
AcDbSymbolTableRecord
100
AcDbTextStyleTableRecord
  2
STANDARD
 70
     0
 40
0.0
 41
1.0
 50
0.0
 71
     0
 42
2.5
  3
arial.ttf
  4

  0
STYLE
  5
72
330
70
100
AcDbSymbolTableRecord
100
AcDbTextStyleTableRecord
  2
ANNOTATIVE
 70
     0
 40
0.0
 41
1.0
 50
0.0
 71
     0
 42
2.5
  3
arial.ttf
  4

  0
ENDTAB
  0
TABLE
  2
VIEW
  5
73
330
0
100
AcDbSymbolTable
 70
     0
  0
ENDTAB
  0
TABLE
  2
UCS
  5
74
330
0
100
AcDbSymbolTable
 70
     0
  0
ENDTAB
  0
TABLE
  2
APPID
  5
75
330
0
100
AcDbSymbolTable
 70
     2
  0
APPID
  5
76
330
75
100
AcDbSymbolTableRecord
100
AcDbRegAppTableRecord
  2
ACAD
 70
     0
  0
APPID
  5
77
330
75
100
AcDbSymbolTableRecord
100
AcDbRegAppTableRecord
  2
ACADANNOTATIVE
 70
     0
  0
ENDTAB
  0
TABLE
  2
DIMSTYLE
  5
78
330
0
100
AcDbSymbolTable
 70
     2
  0
DIMSTYLE
105
79
330
78
100
AcDbSymbolTableRecord
100
AcDbDimStyleTableRecord
  2
STANDARD
 70
     0
  3

  4

  5

  6

  7

 40
0.0
 41
2.5
 42
0.625
 43
3.75
 44
1.25
 45
0.0
 46
0.0
 47
0.0
 48
0.0
140
2.5
141
2.5
142
0.0
143
0.03937007874016
144
1.0
145
0.0
146
1.0
147
0.625
 71
     0
 72
     0
 73
     0
 74
     0
 75
     0
 76
     0
 77
     1
 78
     8
170
     0
171
     3
172
     1
173
     0
174
     0
175
     0
176
     0
177
     0
178
     0
270
     2
271
     2
272
     2
273
     2
274
     3
340
71
275
     0
280
     0
281
     0
282
     0
283
     0
284
     8
285
     0
286
     0
287
     3
288
     0
  0
ENDTAB
  0
TABLE
  2
BLOCK_RECORD
  5
A01
330
0
100
AcDbSymbolTable
  70
5
  0
BLOCK_RECORD
  5
A02
330
A01
100
AcDbSymbolTableRecord
100
AcDbBlockTableRecord
  2
*MODEL_SPACE
  0
BLOCK_RECORD
  5
A03
330
A01
100
AcDbSymbolTableRecord
100
AcDbBlockTableRecord
  2
*PAPER_SPACE
  0
BLOCK_RECORD
  5
A4D
330
A01
100
AcDbSymbolTableRecord
100
AcDbBlockTableRecord
  2
*DimDia8
  0
BLOCK_RECORD
  5
A55
330
A01
100
AcDbSymbolTableRecord
100
AcDbBlockTableRecord
  2
*DimWidth
  0
BLOCK_RECORD
  5
A5F
330
A01
100
AcDbSymbolTableRecord
100
AcDbBlockTableRecord
  2
*DimHeight
  0
ENDTAB
  0
ENDSEC
  0
SECTION
  2
BLOCKS
  0
BLOCK
  5
A04
330
A02
100
AcDbEntity
  8
0
100
AcDbBlockBegin
  2
*MODEL_SPACE
 70
   0
 10
0
 20
0
 30
0
  3
*MODEL_SPACE
  1
 
  0
ENDBLK
  5
A05
330
A02
100
AcDbEntity
  8
0
100
AcDbBlockEnd
  0
BLOCK
  5
A06
330
A03
100
AcDbEntity
 67
1
  8
0
100
AcDbBlockBegin
  2
*PAPER_SPACE
 70
   0
 10
0
 20
0
 30
0
  3
*PAPER_SPACE
  1
 
  0
ENDBLK
  5
A07
330
A03
100
AcDbEntity
 67
    1
  8
0
100
AcDbBlockEnd
  0
BLOCK
  5
A4E
330
A4D
100
AcDbEntity
  8
DimDia8
100
AcDbBlockBegin
  2
*DimDia8
 70
   1
 10
0
 20
0
 30
0
  3
*DimDia8
  1
 
  0
LINE
  5
A4F
330
A4D
100
AcDbEntity
  8
DimDia8
100
AcDbLine
 10
181.889
 20
100.331
 30
0
 11
166.111
 21
91.6691
 31
0
  0
TEXT
  5
A50
330
A4D
100
AcDbEntity
  8
DimDia8
100
AcDbText
 10
195
 20
113
 30
0
 40
3.5
  1
⌀18
  7
STANDARD
 72
1
 11
195
 21
113
 31
0
100
AcDbText
  0
SOLID
  5
A51
330
A4D
100
AcDbEntity
  8
0
 62
     0
100
AcDbTrace
 10
177.707
 20
97.5596
 30
0
 11
177.306
 21
98.2901
 31
0
 12
181.889
 22
100.331
 32
0
 13
181.889
 23
100.331
 33
0
  0
SOLID
  5
A52
330
A4D
100
AcDbEntity
  8
0
 62
     0
100
AcDbTrace
 10
170.694
 20
93.7099
 30
0
 11
170.293
 21
94.4404
 31
0
 12
166.111
 22
91.6691
 32
0
 13
166.111
 23
91.6691
 33
0
  0
ENDBLK
  5
A53
330
A4D
100
AcDbEntity
  8
DimDia8
100
AcDbBlockEnd
  0
BLOCK
  5
A56
330
A55
100
AcDbEntity
  8
DimWidth
100
AcDbBlockBegin
  2
*DimWidth
 70
   1
 10
0
 20
0
 30
0
  3
*DimWidth
  1
 
  0
LINE
  5
A57
330
A55
100
AcDbEntity
  8
DimWidth
100
AcDbLine
 10
229
 20
149
 30
0
 11
229
 21
188
 31
0
  0
LINE
  5
A58
330
A55
100
AcDbEntity
  8
DimWidth
100
AcDbLine
 10
119
 20
149
 30
0
 11
119
 21
188
 31
0
  0
LINE
  5
A59
330
A55
100
AcDbEntity
  8
DimWidth
100
AcDbLine
 10
119
 20
188
 30
0
 11
229
 21
188
 31
0
  0
TEXT
  5
A5A
330
A55
100
AcDbEntity
  8
DimWidth
100
AcDbText
 10
174
 20
193
 30
0
 40
3.5
  1
110
  7
STANDARD
 72
1
 11
174
 21
188
 31
0
100
AcDbText
  0
SOLID
  5
A5B
330
A55
100
AcDbEntity
  8
0
 62
     0
100
AcDbTrace
 10
114
 20
188.417
 30
0
 11
114
 21
187.583
 31
0
 12
119
 22
188
 32
0
 13
119
 23
188
 33
0
  0
SOLID
  5
A5C
330
A55
100
AcDbEntity
  8
0
 62
     0
100
AcDbTrace
 10
234
 20
188.417
 30
0
 11
234
 21
187.583
 31
0
 12
229
 22
188
 32
0
 13
229
 23
188
 33
0
  0
ENDBLK
  5
A5D
330
A55
100
AcDbEntity
  8
DimWidth
100
AcDbBlockEnd
  0
BLOCK
  5
A60
330
A5F
100
AcDbEntity
  8
DimHeight
100
AcDbBlockBegin
  2
*DimHeight
 70
   1
 10
0
 20
0
 30
0
  3
*DimHeight
  1
 
  0
LINE
  5
A61
330
A5F
100
AcDbEntity
  8
DimHeight
100
AcDbLine
 10
139
 20
181
 30
0
 11
236.76
 21
181
 31
0
  0
LINE
  5
A62
330
A5F
100
AcDbEntity
  8
DimHeight
100
AcDbLine
 10
119
 20
149
 30
0
 11
236.76
 21
149
 31
0
  0
LINE
  5
A63
330
A5F
100
AcDbEntity
  8
DimHeight
100
AcDbLine
 10
236.76
 20
149
 30
0
 11
236.76
 21
181
 31
0
  0
TEXT
  5
A64
330
A5F
100
AcDbEntity
  8
DimHeight
100
AcDbText
 10
241
 20
165
 30
0
 40
3.5
  1
32
  7
STANDARD
 72
1
 11
236.76
 21
162.35
 31
0
100
AcDbText
  0
SOLID
  5
A65
330
A5F
100
AcDbEntity
  8
0
 62
     0
100
AcDbTrace
 10
237.177
 20
144
 30
0
 11
236.343
 21
144
 31
0
 12
236.76
 22
149
 32
0
 13
236.76
 23
149
 33
0
  0
SOLID
  5
A66
330
A5F
100
AcDbEntity
  8
0
 62
     0
100
AcDbTrace
 10
237.177
 20
186
 30
0
 11
236.343
 21
186
 31
0
 12
236.76
 22
181
 32
0
 13
236.76
 23
181
 33
0
  0
ENDBLK
  5
A67
330
A5F
100
AcDbEntity
  8
DimHeight
100
AcDbBlockEnd
  0
ENDSEC
  0
SECTION
  2
ENTITIES
  0
LINE
  5
A08
330
A02
100
AcDbEntity
  8
ProjItem
100
AcDbLine
 10
119.000000000
 20
149.000000000
 30
0.000000000
 11
119.000000000
 21
159.000000000
 31
0.000000000
  0
LINE
  5
A09
330
A02
100
AcDbEntity
  8
ProjItem
100
AcDbLine
 10
119.000000000
 20
149.000000000
 30
0.000000000
 11
229.000000000
 21
149.000000000
 31
0.000000000
  0
LINE
  5
A0A
330
A02
100
AcDbEntity
  8
ProjItem
100
AcDbLine
 10
119.000000000
 20
159.000000000
 30
0.000000000
 11
229.000000000
 21
159.000000000
 31
0.000000000
  0
LINE
  5
A0B
330
A02
100
AcDbEntity
  8
ProjItem
100
AcDbLine
 10
229.000000000
 20
149.000000000
 30
0.000000000
 11
229.000000000
 21
159.000000000
 31
0.000000000
  0
LINE
  5
A0C
330
A02
100
AcDbEntity
  8
ProjItem
100
AcDbLine
 10
139.000000000
 20
159.000000000
 30
0.000000000
 11
139.000000000
 21
181.000000000
 31
0.000000000
  0
LINE
  5
A0D
330
A02
100
AcDbEntity
  8
ProjItem
100
AcDbLine
 10
139.000000000
 20
181.000000000
 30
0.000000000
 11
209.000000000
 21
181.000000000
 31
0.000000000
  0
LINE
  5
A0E
330
A02
100
AcDbEntity
  8
ProjItem
100
AcDbLine
 10
209.000000000
 20
159.000000000
 30
0.000000000
 11
209.000000000
 21
181.000000000
 31
0.000000000
  0
LINE
  5
A0F
330
A02
100
AcDbEntity
  8
ProjItem
100
AcDbLine
 10
119.000000000
 20
149.000000000
 30
0.000000000
 11
119.000000000
 21
159.000000000
 31
0.000000000
  0
LINE
  5
A10
330
A02
100
AcDbEntity
  8
ProjItem
100
AcDbLine
 10
119.000000000
 20
159.000000000
 30
0.000000000
 11
229.000000000
 21
159.000000000
 31
0.000000000
  0
LINE
  5
A11
330
A02
100
AcDbEntity
  8
ProjItem
100
AcDbLine
 10
139.000000000
 20
159.000000000
 30
0.000000000
 11
209.000000000
 21
159.000000000
 31
0.000000000
  0
LINE
  5
A12
330
A02
100
AcDbEntity
  8
ProjItem
100
AcDbLine
 10
139.000000000
 20
159.000000000
 30
0.000000000
 11
209.000000000
 21
159.000000000
 31
0.000000000
  0
LINE
  5
A13
330
A02
100
AcDbEntity
  8
ProjItem
100
AcDbLine
 10
119.000000000
 20
149.000000000
 30
0.000000000
 11
229.000000000
 21
149.000000000
 31
0.000000000
  0
LINE
  5
A14
330
A02
100
AcDbEntity
  8
ProjItem
100
AcDbLine
 10
229.000000000
 20
149.000000000
 30
0.000000000
 11
229.000000000
 21
159.000000000
 31
0.000000000
  0
LINE
  5
A15
330
A02
100
AcDbEntity
  8
ProjItem
100
AcDbLine
 10
139.000000000
 20
159.000000000
 30
0.000000000
 11
139.000000000
 21
181.000000000
 31
0.000000000
  0
LINE
  5
A16
330
A02
100
AcDbEntity
  8
ProjItem
100
AcDbLine
 10
209.000000000
 20
159.000000000
 30
0.000000000
 11
209.000000000
 21
181.000000000
 31
0.000000000
  0
LINE
  5
A17
330
A02
100
AcDbEntity
  8
ProjItem
100
AcDbLine
 10
139.000000000
 20
181.000000000
 30
0.000000000
 11
209.000000000
 21
181.000000000
 31
0.000000000
  0
SPLINE
  5
A18
330
A02
100
AcDbEntity
  8
ProjItem
100
AcDbSpline
210
0
220
0
230
1
 70
8
 71
1
 72
17
 73
15
 74
0
 40
0.000000000
 40
0.000000000
 40
0.224399475
 40
0.448798951
 40
0.673198426
 40
0.897597901
 40
1.121997376
 40
1.346396852
 40
1.570796327
 40
1.795195802
 40
2.019595277
 40
2.243994753
 40
2.468394228
 40
2.692793703
 40
2.917193178
 40
3.141592654
 40
3.141592654
 10
183.000000000
 20
181.000000000
 30
0.000000000
 10
182.774351210
 20
181.000000000
 30
0.000000000
 10
182.108719811
 20
181.000000000
 30
0.000000000
 10
181.036483342
 20
181.000000000
 30
0.000000000
 10
179.611408217
 20
181.000000000
 30
0.000000000
 10
177.904953652
 20
181.000000000
 30
0.000000000
 10
176.002688406
 20
181.000000000
 30
0.000000000
 10
174.000000000
 20
181.000000000
 30
0.000000000
 10
171.997311594
 20
181.000000000
 30
0.000000000
 10
170.095046348
 20
181.000000000
 30
0.000000000
 10
168.388591783
 20
181.000000000
 30
0.000000000
 10
166.963516658
 20
181.000000000
 30
0.000000000
 10
165.891280189
 20
181.000000000
 30
0.000000000
 10
165.225648790
 20
181.000000000
 30
0.000000000
 10
165.000000000
 20
181.000000000
 30
0.000000000
  0
SPLINE
  5
A19
330
A02
100
AcDbEntity
  8
ProjItem
100
AcDbSpline
210
0
220
0
230
1
 70
8
 71
1
 72
17
 73
15
 74
0
 40
3.141592654
 40
3.141592654
 40
3.365992129
 40
3.590391604
 40
3.814791079
 40
4.039190555
 40
4.263590030
 40
4.487989505
 40
4.712388980
 40
4.936788456
 40
5.161187931
 40
5.385587406
 40
5.609986881
 40
5.834386357
 40
6.058785832
 40
6.283185307
 40
6.283185307
 10
165.000000000
 20
181.000000000
 30
0.000000000
 10
165.225648790
 20
181.000000000
 30
0.000000000
 10
165.891280189
 20
181.000000000
 30
0.000000000
 10
166.963516658
 20
181.000000000
 30
0.000000000
 10
168.388591783
 20
181.000000000
 30
0.000000000
 10
170.095046348
 20
181.000000000
 30
0.000000000
 10
171.997311594
 20
181.000000000
 30
0.000000000
 10
174.000000000
 20
181.000000000
 30
0.000000000
 10
176.002688406
 20
181.000000000
 30
0.000000000
 10
177.904953652
 20
181.000000000
 30
0.000000000
 10
179.611408217
 20
181.000000000
 30
0.000000000
 10
181.036483342
 20
181.000000000
 30
0.000000000
 10
182.108719811
 20
181.000000000
 30
0.000000000
 10
182.774351210
 20
181.000000000
 30
0.000000000
 10
183.000000000
 20
181.000000000
 30
0.000000000
  0
LINE
  5
A1A
330
A02
100
AcDbEntity
  8
ProjItem
100
AcDbLine
 10
183.000000000
 20
167.000000000
 30
0.000000000
 11
183.000000000
 21
181.000000000
 31
0.000000000
  0
SPLINE
  5
A1B
330
A02
100
AcDbEntity
  8
ProjItem
100
AcDbSpline
210
0
220
0
230
1
 70
8
 71
1
 72
17
 73
15
 74
0
 40
0.000000000
 40
0.000000000
 40
0.224399475
 40
0.448798951
 40
0.673198426
 40
0.897597901
 40
1.121997376
 40
1.346396852
 40
1.570796327
 40
1.795195802
 40
2.019595277
 40
2.243994753
 40
2.468394228
 40
2.692793703
 40
2.917193178
 40
3.141592654
 40
3.141592654
 10
183.000000000
 20
167.000000000
 30
0.000000000
 10
182.774351210
 20
167.000000000
 30
0.000000000
 10
182.108719811
 20
167.000000000
 30
0.000000000
 10
181.036483342
 20
167.000000000
 30
0.000000000
 10
179.611408217
 20
167.000000000
 30
0.000000000
 10
177.904953652
 20
167.000000000
 30
0.000000000
 10
176.002688406
 20
167.000000000
 30
0.000000000
 10
174.000000000
 20
167.000000000
 30
0.000000000
 10
171.997311594
 20
167.000000000
 30
0.000000000
 10
170.095046348
 20
167.000000000
 30
0.000000000
 10
168.388591783
 20
167.000000000
 30
0.000000000
 10
166.963516658
 20
167.000000000
 30
0.000000000
 10
165.891280189
 20
167.000000000
 30
0.000000000
 10
165.225648790
 20
167.000000000
 30
0.000000000
 10
165.000000000
 20
167.000000000
 30
0.000000000
  0
SPLINE
  5
A1C
330
A02
100
AcDbEntity
  8
ProjItem
100
AcDbSpline
210
0
220
0
230
1
 70
8
 71
1
 72
17
 73
15
 74
0
 40
3.141592654
 40
3.141592654
 40
3.365992129
 40
3.590391604
 40
3.814791079
 40
4.039190555
 40
4.263590030
 40
4.487989505
 40
4.712388980
 40
4.936788456
 40
5.161187931
 40
5.385587406
 40
5.609986881
 40
5.834386357
 40
6.058785832
 40
6.283185307
 40
6.283185307
 10
165.000000000
 20
167.000000000
 30
0.000000000
 10
165.225648790
 20
167.000000000
 30
0.000000000
 10
165.891280189
 20
167.000000000
 30
0.000000000
 10
166.963516658
 20
167.000000000
 30
0.000000000
 10
168.388591783
 20
167.000000000
 30
0.000000000
 10
170.095046348
 20
167.000000000
 30
0.000000000
 10
171.997311594
 20
167.000000000
 30
0.000000000
 10
174.000000000
 20
167.000000000
 30
0.000000000
 10
176.002688406
 20
167.000000000
 30
0.000000000
 10
177.904953652
 20
167.000000000
 30
0.000000000
 10
179.611408217
 20
167.000000000
 30
0.000000000
 10
181.036483342
 20
167.000000000
 30
0.000000000
 10
182.108719811
 20
167.000000000
 30
0.000000000
 10
182.774351210
 20
167.000000000
 30
0.000000000
 10
183.000000000
 20
167.000000000
 30
0.000000000
  0
LINE
  5
A1D
330
A02
100
AcDbEntity
  8
ProjItem
100
AcDbLine
 10
165.000000000
 20
167.000000000
 30
0.000000000
 11
165.000000000
 21
181.000000000
 31
0.000000000
  0
LINE
  5
A1E
330
A02
100
AcDbEntity
  8
ProjItem
100
AcDbLine
 10
174.000000000
 20
167.000000000
 30
0.000000000
 11
174.000000000
 21
181.000000000
 31
0.000000000
  0
LINE
  5
A1F
330
A02
100
AcDbEntity
  8
ProjItem001
100
AcDbLine
 10
119.000000000
 20
61.000000000
 30
0.000000000
 11
119.000000000
 21
131.000000000
 31
0.000000000
  0
LINE
  5
A20
330
A02
100
AcDbEntity
  8
ProjItem001
100
AcDbLine
 10
119.000000000
 20
61.000000000
 30
0.000000000
 11
229.000000000
 21
61.000000000
 31
0.000000000
  0
LINE
  5
A21
330
A02
100
AcDbEntity
  8
ProjItem001
100
AcDbLine
 10
229.000000000
 20
61.000000000
 30
0.000000000
 11
229.000000000
 21
131.000000000
 31
0.000000000
  0
LINE
  5
A22
330
A02
100
AcDbEntity
  8
ProjItem001
100
AcDbLine
 10
119.000000000
 20
131.000000000
 30
0.000000000
 11
229.000000000
 21
131.000000000
 31
0.000000000
  0
LINE
  5
A23
330
A02
100
AcDbEntity
  8
ProjItem001
100
AcDbLine
 10
139.000000000
 20
73.500000000
 30
0.000000000
 11
139.000000000
 21
118.500000000
 31
0.000000000
  0
LINE
  5
A24
330
A02
100
AcDbEntity
  8
ProjItem001
100
AcDbLine
 10
139.000000000
 20
73.500000000
 30
0.000000000
 11
209.000000000
 21
73.500000000
 31
0.000000000
  0
LINE
  5
A25
330
A02
100
AcDbEntity
  8
ProjItem001
100
AcDbLine
 10
209.000000000
 20
73.500000000
 30
0.000000000
 11
209.000000000
 21
118.500000000
 31
0.000000000
  0
LINE
  5
A26
330
A02
100
AcDbEntity
  8
ProjItem001
100
AcDbLine
 10
139.000000000
 20
118.500000000
 30
0.000000000
 11
209.000000000
 21
118.500000000
 31
0.000000000
  0
CIRCLE
  5
A27
330
A02
100
AcDbEntity
  8
ProjItem001
100
AcDbCircle
 10
174.000000000
 20
96.000000000
 30
0.000000000
 40
9.000000000
  0
LINE
  5
A28
330
A02
100
AcDbEntity
  8
ProjItem001
100
AcDbLine
 10
119.000000000
 20
61.000000000
 30
0.000000000
 11
119.000000000
 21
131.000000000
 31
0.000000000
  0
LINE
  5
A29
330
A02
100
AcDbEntity
  8
ProjItem001
100
AcDbLine
 10
119.000000000
 20
61.000000000
 30
0.000000000
 11
229.000000000
 21
61.000000000
 31
0.000000000
  0
LINE
  5
A2A
330
A02
100
AcDbEntity
  8
ProjItem001
100
AcDbLine
 10
139.000000000
 20
73.500000000
 30
0.000000000
 11
139.000000000
 21
118.500000000
 31
0.000000000
  0
LINE
  5
A2B
330
A02
100
AcDbEntity
  8
ProjItem001
100
AcDbLine
 10
139.000000000
 20
118.500000000
 30
0.000000000
 11
209.000000000
 21
118.500000000
 31
0.000000000
  0
LINE
  5
A2C
330
A02
100
AcDbEntity
  8
ProjItem001
100
AcDbLine
 10
209.000000000
 20
73.500000000
 30
0.000000000
 11
209.000000000
 21
118.500000000
 31
0.000000000
  0
LINE
  5
A2D
330
A02
100
AcDbEntity
  8
ProjItem001
100
AcDbLine
 10
139.000000000
 20
73.500000000
 30
0.000000000
 11
209.000000000
 21
73.500000000
 31
0.000000000
  0
LINE
  5
A2E
330
A02
100
AcDbEntity
  8
ProjItem001
100
AcDbLine
 10
119.000000000
 20
131.000000000
 30
0.000000000
 11
229.000000000
 21
131.000000000
 31
0.000000000
  0
LINE
  5
A2F
330
A02
100
AcDbEntity
  8
ProjItem001
100
AcDbLine
 10
229.000000000
 20
61.000000000
 30
0.000000000
 11
229.000000000
 21
131.000000000
 31
0.000000000
  0
CIRCLE
  5
A30
330
A02
100
AcDbEntity
  8
ProjItem001
100
AcDbCircle
 10
174.000000000
 20
96.000000000
 30
0.000000000
 40
9.000000000
  0
LINE
  5
A31
330
A02
100
AcDbEntity
  8
ProjItem001
100
AcDbLine
 10
162.750000000
 20
96.000000000
 30
0.000000000
 11
185.250000000
 21
96.000000000
 31
0.000000000
  0
LINE
  5
A32
330
A02
100
AcDbEntity
  8
ProjItem001
100
AcDbLine
 10
174.000000000
 20
84.750000000
 30
0.000000000
 11
174.000000000
 21
107.250000000
 31
0.000000000
  0
LINE
  5
A33
330
A02
100
AcDbEntity
  8
ProjItem002
100
AcDbLine
 10
31.000000000
 20
149.000000000
 30
0.000000000
 11
31.000000000
 21
159.000000000
 31
0.000000000
  0
LINE
  5
A34
330
A02
100
AcDbEntity
  8
ProjItem002
100
AcDbLine
 10
31.000000000
 20
159.000000000
 30
0.000000000
 11
101.000000000
 21
159.000000000
 31
0.000000000
  0
LINE
  5
A35
330
A02
100
AcDbEntity
  8
ProjItem002
100
AcDbLine
 10
101.000000000
 20
149.000000000
 30
0.000000000
 11
101.000000000
 21
159.000000000
 31
0.000000000
  0
LINE
  5
A36
330
A02
100
AcDbEntity
  8
ProjItem002
100
AcDbLine
 10
31.000000000
 20
149.000000000
 30
0.000000000
 11
101.000000000
 21
149.000000000
 31
0.000000000
  0
LINE
  5
A37
330
A02
100
AcDbEntity
  8
ProjItem002
100
AcDbLine
 10
43.500000000
 20
159.000000000
 30
0.000000000
 11
43.500000000
 21
181.000000000
 31
0.000000000
  0
LINE
  5
A38
330
A02
100
AcDbEntity
  8
ProjItem002
100
AcDbLine
 10
88.500000000
 20
159.000000000
 30
0.000000000
 11
88.500000000
 21
181.000000000
 31
0.000000000
  0
LINE
  5
A39
330
A02
100
AcDbEntity
  8
ProjItem002
100
AcDbLine
 10
43.500000000
 20
181.000000000
 30
0.000000000
 11
88.500000000
 21
181.000000000
 31
0.000000000
  0
LINE
  5
A3A
330
A02
100
AcDbEntity
  8
ProjItem002
100
AcDbLine
 10
31.000000000
 20
149.000000000
 30
0.000000000
 11
31.000000000
 21
159.000000000
 31
0.000000000
  0
LINE
  5
A3B
330
A02
100
AcDbEntity
  8
ProjItem002
100
AcDbLine
 10
31.000000000
 20
149.000000000
 30
0.000000000
 11
101.000000000
 21
149.000000000
 31
0.000000000
  0
LINE
  5
A3C
330
A02
100
AcDbEntity
  8
ProjItem002
100
AcDbLine
 10
101.000000000
 20
149.000000000
 30
0.000000000
 11
101.000000000
 21
159.000000000
 31
0.000000000
  0
LINE
  5
A3D
330
A02
100
AcDbEntity
  8
ProjItem002
100
AcDbLine
 10
31.000000000
 20
159.000000000
 30
0.000000000
 11
101.000000000
 21
159.000000000
 31
0.000000000
  0
LINE
  5
A3E
330
A02
100
AcDbEntity
  8
ProjItem002
100
AcDbLine
 10
43.500000000
 20
159.000000000
 30
0.000000000
 11
88.500000000
 21
159.000000000
 31
0.000000000
  0
LINE
  5
A3F
330
A02
100
AcDbEntity
  8
ProjItem002
100
AcDbLine
 10
43.500000000
 20
159.000000000
 30
0.000000000
 11
88.500000000
 21
159.000000000
 31
0.000000000
  0
LINE
  5
A40
330
A02
100
AcDbEntity
  8
ProjItem002
100
AcDbLine
 10
43.500000000
 20
159.000000000
 30
0.000000000
 11
43.500000000
 21
181.000000000
 31
0.000000000
  0
LINE
  5
A41
330
A02
100
AcDbEntity
  8
ProjItem002
100
AcDbLine
 10
88.500000000
 20
159.000000000
 30
0.000000000
 11
88.500000000
 21
181.000000000
 31
0.000000000
  0
LINE
  5
A42
330
A02
100
AcDbEntity
  8
ProjItem002
100
AcDbLine
 10
43.500000000
 20
181.000000000
 30
0.000000000
 11
88.500000000
 21
181.000000000
 31
0.000000000
  0
SPLINE
  5
A43
330
A02
100
AcDbEntity
  8
ProjItem002
100
AcDbSpline
210
0
220
0
230
1
 70
8
 71
1
 72
17
 73
15
 74
0
 40
0.000000000
 40
0.000000000
 40
0.112199738
 40
0.224399475
 40
0.336599213
 40
0.448798951
 40
0.560998688
 40
0.673198426
 40
0.785398163
 40
0.897597901
 40
1.009797639
 40
1.121997376
 40
1.234197114
 40
1.346396852
 40
1.458596589
 40
1.570796327
 40
1.570796327
 10
66.000000000
 20
181.000000000
 30
0.000000000
 10
67.007680285
 20
181.000000000
 30
0.000000000
 10
68.002688406
 20
181.000000000
 30
0.000000000
 10
68.972511558
 20
181.000000000
 30
0.000000000
 10
69.904953652
 20
181.000000000
 30
0.000000000
 10
70.788288689
 20
181.000000000
 30
0.000000000
 10
71.611408217
 20
181.000000000
 30
0.000000000
 10
72.363961031
 20
181.000000000
 30
0.000000000
 10
73.036483342
 20
181.000000000
 30
0.000000000
 10
73.620517793
 20
181.000000000
 30
0.000000000
 10
74.108719811
 20
181.000000000
 30
0.000000000
 10
74.494949973
 20
181.000000000
 30
0.000000000
 10
74.774351210
 20
181.000000000
 30
0.000000000
 10
74.943409889
 20
181.000000000
 30
0.000000000
 10
75.000000000
 20
181.000000000
 30
0.000000000
  0
SPLINE
  5
A44
330
A02
100
AcDbEntity
  8
ProjItem002
100
AcDbSpline
210
0
220
0
230
1
 70
8
 71
1
 72
17
 73
15
 74
0
 40
1.570796327
 40
1.570796327
 40
1.795195802
 40
2.019595277
 40
2.243994753
 40
2.468394228
 40
2.692793703
 40
2.917193178
 40
3.141592654
 40
3.365992129
 40
3.590391604
 40
3.814791079
 40
4.039190555
 40
4.263590030
 40
4.487989505
 40
4.712388980
 40
4.712388980
 10
75.000000000
 20
181.000000000
 30
0.000000000
 10
74.774351210
 20
181.000000000
 30
0.000000000
 10
74.108719811
 20
181.000000000
 30
0.000000000
 10
73.036483342
 20
181.000000000
 30
0.000000000
 10
71.611408217
 20
181.000000000
 30
0.000000000
 10
69.904953652
 20
181.000000000
 30
0.000000000
 10
68.002688406
 20
181.000000000
 30
0.000000000
 10
66.000000000
 20
181.000000000
 30
0.000000000
 10
63.997311594
 20
181.000000000
 30
0.000000000
 10
62.095046348
 20
181.000000000
 30
0.000000000
 10
60.388591783
 20
181.000000000
 30
0.000000000
 10
58.963516658
 20
181.000000000
 30
0.000000000
 10
57.891280189
 20
181.000000000
 30
0.000000000
 10
57.225648790
 20
181.000000000
 30
0.000000000
 10
57.000000000
 20
181.000000000
 30
0.000000000
  0
SPLINE
  5
A45
330
A02
100
AcDbEntity
  8
ProjItem002
100
AcDbSpline
210
0
220
0
230
1
 70
8
 71
1
 72
17
 73
15
 74
0
 40
4.712388980
 40
4.712388980
 40
4.824588718
 40
4.936788456
 40
5.048988193
 40
5.161187931
 40
5.273387669
 40
5.385587406
 40
5.497787144
 40
5.609986881
 40
5.722186619
 40
5.834386357
 40
5.946586094
 40
6.058785832
 40
6.170985570
 40
6.283185307
 40
6.283185307
 10
57.000000000
 20
181.000000000
 30
0.000000000
 10
57.056590111
 20
181.000000000
 30
0.000000000
 10
57.225648790
 20
181.000000000
 30
0.000000000
 10
57.505050027
 20
181.000000000
 30
0.000000000
 10
57.891280189
 20
181.000000000
 30
0.000000000
 10
58.379482207
 20
181.000000000
 30
0.000000000
 10
58.963516658
 20
181.000000000
 30
0.000000000
 10
59.636038969
 20
181.000000000
 30
0.000000000
 10
60.388591783
 20
181.000000000
 30
0.000000000
 10
61.211711311
 20
181.000000000
 30
0.000000000
 10
62.095046348
 20
181.000000000
 30
0.000000000
 10
63.027488442
 20
181.000000000
 30
0.000000000
 10
63.997311594
 20
181.000000000
 30
0.000000000
 10
64.992319715
 20
181.000000000
 30
0.000000000
 10
66.000000000
 20
181.000000000
 30
0.000000000
  0
SPLINE
  5
A46
330
A02
100
AcDbEntity
  8
ProjItem002
100
AcDbSpline
210
0
220
0
230
1
 70
8
 71
1
 72
17
 73
15
 74
0
 40
0.000000000
 40
0.000000000
 40
0.112199738
 40
0.224399475
 40
0.336599213
 40
0.448798951
 40
0.560998688
 40
0.673198426
 40
0.785398163
 40
0.897597901
 40
1.009797639
 40
1.121997376
 40
1.234197114
 40
1.346396852
 40
1.458596589
 40
1.570796327
 40
1.570796327
 10
66.000000000
 20
167.000000000
 30
0.000000000
 10
67.007680285
 20
167.000000000
 30
0.000000000
 10
68.002688406
 20
167.000000000
 30
0.000000000
 10
68.972511558
 20
167.000000000
 30
0.000000000
 10
69.904953652
 20
167.000000000
 30
0.000000000
 10
70.788288689
 20
167.000000000
 30
0.000000000
 10
71.611408217
 20
167.000000000
 30
0.000000000
 10
72.363961031
 20
167.000000000
 30
0.000000000
 10
73.036483342
 20
167.000000000
 30
0.000000000
 10
73.620517793
 20
167.000000000
 30
0.000000000
 10
74.108719811
 20
167.000000000
 30
0.000000000
 10
74.494949973
 20
167.000000000
 30
0.000000000
 10
74.774351210
 20
167.000000000
 30
0.000000000
 10
74.943409889
 20
167.000000000
 30
0.000000000
 10
75.000000000
 20
167.000000000
 30
0.000000000
  0
SPLINE
  5
A47
330
A02
100
AcDbEntity
  8
ProjItem002
100
AcDbSpline
210
0
220
0
230
1
 70
8
 71
1
 72
17
 73
15
 74
0
 40
1.570796327
 40
1.570796327
 40
1.795195802
 40
2.019595277
 40
2.243994753
 40
2.468394228
 40
2.692793703
 40
2.917193178
 40
3.141592654
 40
3.365992129
 40
3.590391604
 40
3.814791079
 40
4.039190555
 40
4.263590030
 40
4.487989505
 40
4.712388980
 40
4.712388980
 10
75.000000000
 20
167.000000000
 30
0.000000000
 10
74.774351210
 20
167.000000000
 30
0.000000000
 10
74.108719811
 20
167.000000000
 30
0.000000000
 10
73.036483342
 20
167.000000000
 30
0.000000000
 10
71.611408217
 20
167.000000000
 30
0.000000000
 10
69.904953652
 20
167.000000000
 30
0.000000000
 10
68.002688406
 20
167.000000000
 30
0.000000000
 10
66.000000000
 20
167.000000000
 30
0.000000000
 10
63.997311594
 20
167.000000000
 30
0.000000000
 10
62.095046348
 20
167.000000000
 30
0.000000000
 10
60.388591783
 20
167.000000000
 30
0.000000000
 10
58.963516658
 20
167.000000000
 30
0.000000000
 10
57.891280189
 20
167.000000000
 30
0.000000000
 10
57.225648790
 20
167.000000000
 30
0.000000000
 10
57.000000000
 20
167.000000000
 30
0.000000000
  0
SPLINE
  5
A48
330
A02
100
AcDbEntity
  8
ProjItem002
100
AcDbSpline
210
0
220
0
230
1
 70
8
 71
1
 72
17
 73
15
 74
0
 40
4.712388980
 40
4.712388980
 40
4.824588718
 40
4.936788456
 40
5.048988193
 40
5.161187931
 40
5.273387669
 40
5.385587406
 40
5.497787144
 40
5.609986881
 40
5.722186619
 40
5.834386357
 40
5.946586094
 40
6.058785832
 40
6.170985570
 40
6.283185307
 40
6.283185307
 10
57.000000000
 20
167.000000000
 30
0.000000000
 10
57.056590111
 20
167.000000000
 30
0.000000000
 10
57.225648790
 20
167.000000000
 30
0.000000000
 10
57.505050027
 20
167.000000000
 30
0.000000000
 10
57.891280189
 20
167.000000000
 30
0.000000000
 10
58.379482207
 20
167.000000000
 30
0.000000000
 10
58.963516658
 20
167.000000000
 30
0.000000000
 10
59.636038969
 20
167.000000000
 30
0.000000000
 10
60.388591783
 20
167.000000000
 30
0.000000000
 10
61.211711311
 20
167.000000000
 30
0.000000000
 10
62.095046348
 20
167.000000000
 30
0.000000000
 10
63.027488442
 20
167.000000000
 30
0.000000000
 10
63.997311594
 20
167.000000000
 30
0.000000000
 10
64.992319715
 20
167.000000000
 30
0.000000000
 10
66.000000000
 20
167.000000000
 30
0.000000000
  0
LINE
  5
A49
330
A02
100
AcDbEntity
  8
ProjItem002
100
AcDbLine
 10
75.000000000
 20
167.000000000
 30
0.000000000
 11
75.000000000
 21
181.000000000
 31
0.000000000
  0
LINE
  5
A4A
330
A02
100
AcDbEntity
  8
ProjItem002
100
AcDbLine
 10
57.000000000
 20
167.000000000
 30
0.000000000
 11
57.000000000
 21
181.000000000
 31
0.000000000
  0
LINE
  5
A4B
330
A02
100
AcDbEntity
  8
ProjItem002
100
AcDbLine
 10
66.000000000
 20
181.000000000
 30
0.000000000
 11
66.000000000
 21
167.000000000
 31
0.000000000
  0
DIMENSION
  5
A4C
330
A02
100
AcDbEntity
  8
DimDia8
100
AcDbDimension
  2
*DimDia8
 10
181.889447168
 20
100.330891755
 30
0.000000000
 11
195.000000000
 21
113.000000000
 31
0.000000000
 70
3
  1
⌀18
  3
STANDARD
100
AcDbDiametricDimension
 15
166.110552832
 25
91.669108245
 35
0.000000000
 40
0
  0
DIMENSION
  5
A54
330
A02
100
AcDbEntity
  8
DimWidth
100
AcDbDimension
  2
*DimWidth
 10
174.000000000
 20
188.000000000
 30
0.000000000
 11
174.000000000
 21
193.000000000
 31
0.000000000
 70
32
  1
110
  3
STANDARD
100
AcDbAlignedDimension
 13
119.000000000
 23
149.000000000
 33
0.000000000
 14
229.000000000
 24
149.000000000
 34
0.000000000
100
AcDbRotatedDimension
  0
DIMENSION
  5
A5E
330
A02
100
AcDbEntity
  8
DimHeight
100
AcDbDimension
  2
*DimHeight
 10
236.760008480
 20
162.350005300
 30
0.000000000
 11
241.000000000
 21
165.000000000
 31
0.000000000
 70
32
  1
32
  3
STANDARD
100
AcDbAlignedDimension
 13
119.000000000
 23
149.000000000
 33
0.000000000
 14
139.000000000
 24
181.000000000
 34
0.000000000
 50
90
100
AcDbRotatedDimension
  0
ENDSEC
  0
SECTION
  2
OBJECTS
  0
DICTIONARY
  5
F000
330
0
100
AcDbDictionary
  3
ACAD_GROUP
350
F001
  0
DICTIONARY
  5
F001
330
F000
100
AcDbDictionary
  0
ENDSEC
  0
EOF