ISO-10303-21;
HEADER;
FILE_DESCRIPTION(('ViewDefinition [CoordinationView]'),'2;1');
FILE_NAME('','2026-05-22T00:34:59',(''),(''),'IfcOpenShell 0.8.5-1c5b825','IfcOpenShell 0.8.5-1c5b825','');
FILE_SCHEMA(('IFC4'));
ENDSEC;
DATA;
#1=IFCPROJECT('2FbWCYcvr0DgjtI4ElpPXG',$,'v-archicad-simple-task-19-windows init',$,$,$,$,(#10),#5);
#2=IFCSIUNIT(*,.LENGTHUNIT.,.MILLI.,.METRE.);
#3=IFCSIUNIT(*,.AREAUNIT.,$,.SQUARE_METRE.);
#4=IFCSIUNIT(*,.VOLUMEUNIT.,$,.CUBIC_METRE.);
#5=IFCUNITASSIGNMENT((#2,#3,#4));
#6=IFCCARTESIANPOINT((0.,0.,0.));
#7=IFCDIRECTION((0.,0.,1.));
#8=IFCDIRECTION((1.,0.,0.));
#9=IFCAXIS2PLACEMENT3D(#6,#7,#8);
#10=IFCGEOMETRICREPRESENTATIONCONTEXT($,'Model',3,1.0000000000000001E-05,#9,$);
#11=IFCGEOMETRICREPRESENTATIONSUBCONTEXT('Body','Model',*,*,*,*,#10,$,.MODEL_VIEW.,$);
#12=IFCSITE('0qah29Bhn88xUx_F7RUlZa',$,'Default Site',$,$,$,$,$,$,$,$,$,$,$);
#13=IFCBUILDING('21xEvFl$v4qwGthA6yqm0R',$,'Simple Building',$,$,$,$,$,$,$,$,$);
#14=IFCRELAGGREGATES('09Ff6ZSNDC7woxUEvdpJPe',$,$,$,#1,(#12));
#15=IFCRELAGGREGATES('2EctfNEDr5mPez1D6l0aFO',$,$,$,#12,(#13));
#16=IFCBUILDINGSTOREY('27F7gdUwr67QzMHmYfqQEo',$,'Ground Floor',$,$,#22,$,$,$,$);
#17=IFCRELAGGREGATES('2F9KHis2TBle2vGexAoorr',$,$,$,#13,(#16));
#18=IFCCARTESIANPOINT((0.,0.,0.));
#19=IFCDIRECTION((0.,0.,1.));
#20=IFCDIRECTION((1.,0.,0.));
#21=IFCAXIS2PLACEMENT3D(#18,#19,#20);
#22=IFCLOCALPLACEMENT($,#21);
#23=IFCWALL('1X59Rb9ef4mhEhP6q_PFEz',$,'Wall 1-1',$,$,#45,#34,$,$);
#24=IFCCARTESIANPOINTLIST2D(((0.,0.),(0.,200.),(14000.,200.),(14000.,0.),(0.,0.)));
#25=IFCINDEXEDPOLYCURVE(#24,$,.F.);
#26=IFCDIRECTION((0.,0.,1.));
#27=IFCARBITRARYCLOSEDPROFILEDEF(.AREA.,$,#25);
#28=IFCCARTESIANPOINT((0.,0.,0.));
#29=IFCDIRECTION((0.,0.,1.));
#30=IFCDIRECTION((1.,0.,0.));
#31=IFCAXIS2PLACEMENT3D(#28,#29,#30);
#32=IFCEXTRUDEDAREASOLID(#27,#31,#26,3000.);
#33=IFCSHAPEREPRESENTATION(#11,'Body','SweptSolid',(#32));
#34=IFCPRODUCTDEFINITIONSHAPE($,$,(#33));
#40=IFCRELCONTAINEDINSPATIALSTRUCTURE('0ynQkqNjH26wTuNfgshzGK',$,$,$,(#178,#46,#218,#134,#388,#473,#23,#303,#200,#156,#68,#90,#112,#528),#16);
#41=IFCCARTESIANPOINT((0.,0.,0.));
#42=IFCDIRECTION((0.,0.,1.));
#43=IFCDIRECTION((1.,0.,0.));
#44=IFCAXIS2PLACEMENT3D(#41,#42,#43);
#45=IFCLOCALPLACEMENT(#22,#44);
#46=IFCWALL('32y8gIXdnDWODjj4lp2TOg',$,'Wall 1-2',$,$,#67,#57,$,$);
#47=IFCCARTESIANPOINTLIST2D(((0.,0.),(0.,200.),(14000.,200.),(14000.,0.),(0.,0.)));
#48=IFCINDEXEDPOLYCURVE(#47,$,.F.);
#49=IFCDIRECTION((0.,0.,1.));
#50=IFCARBITRARYCLOSEDPROFILEDEF(.AREA.,$,#48);
#51=IFCCARTESIANPOINT((0.,0.,0.));
#52=IFCDIRECTION((0.,0.,1.));
#53=IFCDIRECTION((1.,0.,0.));
#54=IFCAXIS2PLACEMENT3D(#51,#52,#53);
#55=IFCEXTRUDEDAREASOLID(#50,#54,#49,3000.);
#56=IFCSHAPEREPRESENTATION(#11,'Body','SweptSolid',(#55));
#57=IFCPRODUCTDEFINITIONSHAPE($,$,(#56));
#63=IFCCARTESIANPOINT((0.,7000.,0.));
#64=IFCDIRECTION((0.,0.,1.));
#65=IFCDIRECTION((1.,0.,0.));
#66=IFCAXIS2PLACEMENT3D(#63,#64,#65);
#67=IFCLOCALPLACEMENT(#22,#66);
#68=IFCWALL('2P1vK8ApjDc86lCUiJWj2O',$,'Wall 1-3',$,$,#89,#79,$,$);
#69=IFCCARTESIANPOINTLIST2D(((0.,0.),(0.,200.),(7000.,200.),(7000.,0.),(0.,0.)));
#70=IFCINDEXEDPOLYCURVE(#69,$,.F.);
#71=IFCDIRECTION((0.,0.,1.));
#72=IFCARBITRARYCLOSEDPROFILEDEF(.AREA.,$,#70);
#73=IFCCARTESIANPOINT((0.,0.,0.));
#74=IFCDIRECTION((0.,0.,1.));
#75=IFCDIRECTION((1.,0.,0.));
#76=IFCAXIS2PLACEMENT3D(#73,#74,#75);
#77=IFCEXTRUDEDAREASOLID(#72,#76,#71,3000.);
#78=IFCSHAPEREPRESENTATION(#11,'Body','SweptSolid',(#77));
#79=IFCPRODUCTDEFINITIONSHAPE($,$,(#78));
#85=IFCCARTESIANPOINT((0.,0.,0.));
#86=IFCDIRECTION((0.,0.,1.));
#87=IFCDIRECTION((6.123233995736766E-17,1.,0.));
#88=IFCAXIS2PLACEMENT3D(#85,#86,#87);
#89=IFCLOCALPLACEMENT(#22,#88);
#90=IFCWALL('3LtQmzGS5Fo9$lAdkqe68K',$,'Wall 1-4',$,$,#111,#101,$,$);
#91=IFCCARTESIANPOINTLIST2D(((0.,0.),(0.,200.),(7000.,200.),(7000.,0.),(0.,0.)));
#92=IFCINDEXEDPOLYCURVE(#91,$,.F.);
#93=IFCDIRECTION((0.,0.,1.));
#94=IFCARBITRARYCLOSEDPROFILEDEF(.AREA.,$,#92);
#95=IFCCARTESIANPOINT((0.,0.,0.));
#96=IFCDIRECTION((0.,0.,1.));
#97=IFCDIRECTION((1.,0.,0.));
#98=IFCAXIS2PLACEMENT3D(#95,#96,#97);
#99=IFCEXTRUDEDAREASOLID(#94,#98,#93,3000.);
#100=IFCSHAPEREPRESENTATION(#11,'Body','SweptSolid',(#99));
#101=IFCPRODUCTDEFINITIONSHAPE($,$,(#100));
#107=IFCCARTESIANPOINT((14000.,0.,0.));
#108=IFCDIRECTION((0.,0.,1.));
#109=IFCDIRECTION((6.123233995736766E-17,1.,0.));
#110=IFCAXIS2PLACEMENT3D(#107,#108,#109);
#111=IFCLOCALPLACEMENT(#22,#110);
#112=IFCWALL('0kSm19YRX529bc15EpLF$B',$,'Partition 1',$,$,#133,#123,$,$);
#113=IFCCARTESIANPOINTLIST2D(((0.,0.),(0.,120.),(6599.9999999999991,120.),(6599.9999999999991,0.),(0.,0.)));
#114=IFCINDEXEDPOLYCURVE(#113,$,.F.);
#115=IFCDIRECTION((0.,0.,1.));
#116=IFCARBITRARYCLOSEDPROFILEDEF(.AREA.,$,#114);
#117=IFCCARTESIANPOINT((0.,0.,0.));
#118=IFCDIRECTION((0.,0.,1.));
#119=IFCDIRECTION((1.,0.,0.));
#120=IFCAXIS2PLACEMENT3D(#117,#118,#119);
#121=IFCEXTRUDEDAREASOLID(#116,#120,#115,3000.);
#122=IFCSHAPEREPRESENTATION(#11,'Body','SweptSolid',(#121));
#123=IFCPRODUCTDEFINITIONSHAPE($,$,(#122));
#129=IFCCARTESIANPOINT((2799.9999999999995,200.,0.));
#130=IFCDIRECTION((0.,0.,1.));
#131=IFCDIRECTION((6.123233995736766E-17,1.,0.));
#132=IFCAXIS2PLACEMENT3D(#129,#130,#131);
#133=IFCLOCALPLACEMENT(#22,#132);
#134=IFCWALL('0EDB3KIRz1WQc$3Mgvm7t4',$,'Partition 2',$,$,#155,#145,$,$);
#135=IFCCARTESIANPOINTLIST2D(((0.,0.),(0.,120.),(6599.9999999999991,120.),(6599.9999999999991,0.),(0.,0.)));
#136=IFCINDEXEDPOLYCURVE(#135,$,.F.);
#137=IFCDIRECTION((0.,0.,1.));
#138=IFCARBITRARYCLOSEDPROFILEDEF(.AREA.,$,#136);
#139=IFCCARTESIANPOINT((0.,0.,0.));
#140=IFCDIRECTION((0.,0.,1.));
#141=IFCDIRECTION((1.,0.,0.));
#142=IFCAXIS2PLACEMENT3D(#139,#140,#141);
#143=IFCEXTRUDEDAREASOLID(#138,#142,#137,3000.);
#144=IFCSHAPEREPRESENTATION(#11,'Body','SweptSolid',(#143));
#145=IFCPRODUCTDEFINITIONSHAPE($,$,(#144));
#151=IFCCARTESIANPOINT((5599.9999999999991,200.,0.));
#152=IFCDIRECTION((0.,0.,1.));
#153=IFCDIRECTION((6.123233995736766E-17,1.,0.));
#154=IFCAXIS2PLACEMENT3D(#151,#152,#153);
#155=IFCLOCALPLACEMENT(#22,#154);
#156=IFCWALL('0kSrVWOS52IfT0Al8txI7l',$,'Partition 3',$,$,#177,#167,$,$);
#157=IFCCARTESIANPOINTLIST2D(((0.,0.),(0.,120.),(6599.9999999999991,120.),(6599.9999999999991,0.),(0.,0.)));
#158=IFCINDEXEDPOLYCURVE(#157,$,.F.);
#159=IFCDIRECTION((0.,0.,1.));
#160=IFCARBITRARYCLOSEDPROFILEDEF(.AREA.,$,#158);
#161=IFCCARTESIANPOINT((0.,0.,0.));
#162=IFCDIRECTION((0.,0.,1.));
#163=IFCDIRECTION((1.,0.,0.));
#164=IFCAXIS2PLACEMENT3D(#161,#162,#163);
#165=IFCEXTRUDEDAREASOLID(#160,#164,#159,3000.);
#166=IFCSHAPEREPRESENTATION(#11,'Body','SweptSolid',(#165));
#167=IFCPRODUCTDEFINITIONSHAPE($,$,(#166));
#173=IFCCARTESIANPOINT((8400.,200.,0.));
#174=IFCDIRECTION((0.,0.,1.));
#175=IFCDIRECTION((6.123233995736766E-17,1.,0.));
#176=IFCAXIS2PLACEMENT3D(#173,#174,#175);
#177=IFCLOCALPLACEMENT(#22,#176);
#178=IFCWALL('12QujQAcr4f9mHkugZiNaD',$,'Partition 4',$,$,#199,#189,$,$);
#179=IFCCARTESIANPOINTLIST2D(((0.,0.),(0.,120.),(6599.9999999999991,120.),(6599.9999999999991,0.),(0.,0.)));
#180=IFCINDEXEDPOLYCURVE(#179,$,.F.);
#181=IFCDIRECTION((0.,0.,1.));
#182=IFCARBITRARYCLOSEDPROFILEDEF(.AREA.,$,#180);
#183=IFCCARTESIANPOINT((0.,0.,0.));
#184=IFCDIRECTION((0.,0.,1.));
#185=IFCDIRECTION((1.,0.,0.));
#186=IFCAXIS2PLACEMENT3D(#183,#184,#185);
#187=IFCEXTRUDEDAREASOLID(#182,#186,#181,3000.);
#188=IFCSHAPEREPRESENTATION(#11,'Body','SweptSolid',(#187));
#189=IFCPRODUCTDEFINITIONSHAPE($,$,(#188));
#195=IFCCARTESIANPOINT((11199.999999999998,200.,0.));
#196=IFCDIRECTION((0.,0.,1.));
#197=IFCDIRECTION((6.123233995736766E-17,1.,0.));
#198=IFCAXIS2PLACEMENT3D(#195,#196,#197);
#199=IFCLOCALPLACEMENT(#22,#198);
#200=IFCSLAB('2eyurVWK14$8m5qs4pokaR',$,'Slab 1',$,$,#217,#207,$,$);
#201=IFCCARTESIANPOINTLIST2D(((0.,0.),(14000.,0.),(14000.,7000.),(0.,7000.),(0.,0.)));
#202=IFCINDEXEDPOLYCURVE(#201,$,$);
#203=IFCDIRECTION((0.,0.,1.));
#204=IFCARBITRARYCLOSEDPROFILEDEF(.AREA.,$,#202);
#205=IFCEXTRUDEDAREASOLID(#204,$,#203,200.);
#206=IFCSHAPEREPRESENTATION(#11,'Body','SweptSolid',(#205));
#207=IFCPRODUCTDEFINITIONSHAPE($,$,(#206));
#213=IFCCARTESIANPOINT((0.,0.,0.));
#214=IFCDIRECTION((0.,0.,1.));
#215=IFCDIRECTION((1.,0.,0.));
#216=IFCAXIS2PLACEMENT3D(#213,#214,#215);
#217=IFCLOCALPLACEMENT(#22,#216);
#218=IFCDOOR('3bINLsCrX07f6IJWxL0oze',$,'Door 1',$,$,#302,#292,$,$,$,$,$,$);
#219=IFCCARTESIANPOINTLIST2D(((0.,0.),(0.,2.1000000000000001),(0.90000000000000002,2.1000000000000001),(0.90000000000000002,0.),(-24.100000000000001,0.),(-24.100000000000001,-22.899999999999999),(25.,-22.899999999999999),(25.,0.)));
#220=IFCINDEXEDPOLYCURVE(#219,(IFCLINEINDEX((1,2,3,4,5,6,7,8,1))),$);
#221=IFCARBITRARYCLOSEDPROFILEDEF(.AREA.,$,#220);
#222=IFCCARTESIANPOINT((0.,25.,0.));
#223=IFCDIRECTION((0.,-1.,0.));
#224=IFCDIRECTION((1.,0.,0.));
#225=IFCAXIS2PLACEMENT3D(#222,#223,#224);
#226=IFCDIRECTION((0.,0.,-1.));
#227=IFCEXTRUDEDAREASOLID(#221,#225,#226,25.);
#228=IFCCARTESIANPOINTLIST2D(((0.,0.),(0.,2.1000000000000001),(0.90000000000000002,2.1000000000000001),(0.90000000000000002,0.),(-49.100000000000001,0.),(-49.100000000000001,-47.899999999999999),(50.,-47.899999999999999),(50.,0.)));
#229=IFCINDEXEDPOLYCURVE(#228,(IFCLINEINDEX((1,2,3,4,5,6,7,8,1))),$);
#230=IFCARBITRARYCLOSEDPROFILEDEF(.AREA.,$,#229);
#231=IFCCARTESIANPOINT((0.,0.,0.));
#232=IFCDIRECTION((0.,-1.,0.));
#233=IFCDIRECTION((1.,0.,0.));
#234=IFCAXIS2PLACEMENT3D(#231,#232,#233);
#235=IFCDIRECTION((0.,0.,-1.));
#236=IFCEXTRUDEDAREASOLID(#230,#234,#235,25.);
#237=IFCCARTESIANPOINTLIST2D(((0.,0.),(-99.099999999999994,0.),(-99.099999999999994,100.),(0.,100.)));
#238=IFCINDEXEDPOLYCURVE(#237,(IFCLINEINDEX((1,2,3,4,1))),$);
#239=IFCARBITRARYCLOSEDPROFILEDEF(.AREA.,$,#238);
#240=IFCCARTESIANPOINT((50.,0.,0.));
#241=IFCDIRECTION((0.,0.,1.));
#242=IFCDIRECTION((1.,0.,0.));
#243=IFCAXIS2PLACEMENT3D(#240,#241,#242);
#244=IFCDIRECTION((0.,0.,1.));
#245=IFCEXTRUDEDAREASOLID(#239,#243,#244,25.);
#246=IFCCARTESIANPOINTLIST2D(((0.,0.),(0.,27.100000000000001),(50.899999999999999,27.100000000000001),(50.899999999999999,0.),(-24.100000000000001,0.),(-24.100000000000001,-47.899999999999999),(75.,-47.899999999999999),(75.,0.)));
#247=IFCINDEXEDPOLYCURVE(#246,(IFCLINEINDEX((1,2,3,4,5,6,7,8,1))),$);
#248=IFCARBITRARYCLOSEDPROFILEDEF(.AREA.,$,#247);
#249=IFCCARTESIANPOINT((-25.,-5.,0.));
#250=IFCDIRECTION((0.,-1.,0.));
#251=IFCDIRECTION((1.,0.,0.));
#252=IFCAXIS2PLACEMENT3D(#249,#250,#251);
#253=IFCDIRECTION((0.,0.,-1.));
#254=IFCEXTRUDEDAREASOLID(#248,#252,#253,5.);
#255=IFCCARTESIANPOINTLIST2D(((0.,0.),(0.,27.100000000000001),(50.899999999999999,27.100000000000001),(50.899999999999999,0.),(0.89999999999999858,0.),(0.89999999999999858,-22.899999999999999),(50.,-22.899999999999999),(50.,0.)));
#256=IFCINDEXEDPOLYCURVE(#255,(IFCLINEINDEX((1,2,3,4,5,6,7,8,1))),$);
#257=IFCARBITRARYCLOSEDPROFILEDEF(.AREA.,$,#256);
#258=IFCCARTESIANPOINT((-25.,50.,0.));
#259=IFCDIRECTION((0.,-1.,0.));
#260=IFCDIRECTION((1.,0.,0.));
#261=IFCAXIS2PLACEMENT3D(#258,#259,#260);
#262=IFCDIRECTION((0.,0.,-1.));
#263=IFCEXTRUDEDAREASOLID(#257,#261,#262,5.);
#264=IFCCARTESIANPOINTLIST2D(((0.,0.),(-49.100000000000001,0.),(-49.100000000000001,35.),(0.,35.)));
#265=IFCINDEXEDPOLYCURVE(#264,(IFCLINEINDEX((1,2,3,4,1))),$);
#266=IFCARBITRARYCLOSEDPROFILEDEF(.AREA.,$,#265);
#267=IFCCARTESIANPOINT((25.,25.,25.));
#268=IFCDIRECTION((0.,0.,1.));
#269=IFCDIRECTION((1.,0.,0.));
#270=IFCAXIS2PLACEMENT3D(#267,#268,#269);
#271=IFCDIRECTION((0.,0.,1.));
#272=IFCEXTRUDEDAREASOLID(#266,#270,#271,-47.899999999999999);
#273=IFCCARTESIANPOINTLIST2D(((0.,0.),(0.,-40.),(-120.00000000000003,-40.),(-120.00000000000003,-20.),(-20.,-20.),(-20.,0.)));
#274=IFCINDEXEDPOLYCURVE(#273,(IFCLINEINDEX((1,2,3,4,5,6,1))),$);
#275=IFCARBITRARYCLOSEDPROFILEDEF(.AREA.,$,#274);
#276=IFCCARTESIANPOINT((-74.099999999999994,25.,1015.));
#277=IFCDIRECTION((0.,0.,1.));
#278=IFCDIRECTION((1.,0.,0.));
#279=IFCAXIS2PLACEMENT3D(#276,#277,#278);
#280=IFCDIRECTION((0.,0.,1.));
#281=IFCEXTRUDEDAREASOLID(#275,#279,#280,20.);
#282=IFCEXTRUDEDAREASOLID(#283,#286,#290,20.);
#283=IFCARBITRARYCLOSEDPROFILEDEF(.AREA.,$,#284);
#284=IFCINDEXEDPOLYCURVE(#285,(IFCLINEINDEX((1,2,3,4,5,6,1))),$);
#285=IFCCARTESIANPOINTLIST2D(((0.,0.),(0.,40.),(-120.00000000000003,40.),(-120.00000000000003,20.),(-20.,20.),(-20.,0.)));
#286=IFCAXIS2PLACEMENT3D(#287,#288,#289);
#287=IFCCARTESIANPOINT((-74.099999999999994,60.,1015.));
#288=IFCDIRECTION((0.,0.,1.));
#289=IFCDIRECTION((1.,0.,0.));
#290=IFCDIRECTION((0.,0.,1.));
#291=IFCSHAPEREPRESENTATION(#11,'Body','SweptSolid',(#227,#236,#272,#281,#282,#245,#254,#263));
#292=IFCPRODUCTDEFINITIONSHAPE($,$,(#291));
#298=IFCCARTESIANPOINT((800.,-50.,0.));
#299=IFCDIRECTION((0.,0.,1.));
#300=IFCDIRECTION((1.,0.,0.));
#301=IFCAXIS2PLACEMENT3D(#298,#299,#300);
#302=IFCLOCALPLACEMENT(#22,#301);
#303=IFCDOOR('3xv7zh5_14ZPkLKsNpCjLU',$,'Door 2',$,$,#387,#377,$,$,$,$,$,$);
#304=IFCCARTESIANPOINTLIST2D(((0.,0.),(0.,2.1000000000000001),(0.90000000000000002,2.1000000000000001),(0.90000000000000002,0.),(-24.100000000000001,0.),(-24.100000000000001,-22.899999999999999),(25.,-22.899999999999999),(25.,0.)));
#305=IFCINDEXEDPOLYCURVE(#304,(IFCLINEINDEX((1,2,3,4,5,6,7,8,1))),$);
#306=IFCARBITRARYCLOSEDPROFILEDEF(.AREA.,$,#305);
#307=IFCCARTESIANPOINT((0.,25.,0.));
#308=IFCDIRECTION((0.,-1.,0.));
#309=IFCDIRECTION((1.,0.,0.));
#310=IFCAXIS2PLACEMENT3D(#307,#308,#309);
#311=IFCDIRECTION((0.,0.,-1.));
#312=IFCEXTRUDEDAREASOLID(#306,#310,#311,25.);
#313=IFCCARTESIANPOINTLIST2D(((0.,0.),(0.,2.1000000000000001),(0.90000000000000002,2.1000000000000001),(0.90000000000000002,0.),(-49.100000000000001,0.),(-49.100000000000001,-47.899999999999999),(50.,-47.899999999999999),(50.,0.)));
#314=IFCINDEXEDPOLYCURVE(#313,(IFCLINEINDEX((1,2,3,4,5,6,7,8,1))),$);
#315=IFCARBITRARYCLOSEDPROFILEDEF(.AREA.,$,#314);
#316=IFCCARTESIANPOINT((0.,0.,0.));
#317=IFCDIRECTION((0.,-1.,0.));
#318=IFCDIRECTION((1.,0.,0.));
#319=IFCAXIS2PLACEMENT3D(#316,#317,#318);
#320=IFCDIRECTION((0.,0.,-1.));
#321=IFCEXTRUDEDAREASOLID(#315,#319,#320,25.);
#322=IFCCARTESIANPOINTLIST2D(((0.,0.),(-99.099999999999994,0.),(-99.099999999999994,100.),(0.,100.)));
#323=IFCINDEXEDPOLYCURVE(#322,(IFCLINEINDEX((1,2,3,4,1))),$);
#324=IFCARBITRARYCLOSEDPROFILEDEF(.AREA.,$,#323);
#325=IFCCARTESIANPOINT((50.,0.,0.));
#326=IFCDIRECTION((0.,0.,1.));
#327=IFCDIRECTION((1.,0.,0.));
#328=IFCAXIS2PLACEMENT3D(#325,#326,#327);
#329=IFCDIRECTION((0.,0.,1.));
#330=IFCEXTRUDEDAREASOLID(#324,#328,#329,25.);
#331=IFCCARTESIANPOINTLIST2D(((0.,0.),(0.,27.100000000000001),(50.899999999999999,27.100000000000001),(50.899999999999999,0.),(-24.100000000000001,0.),(-24.100000000000001,-47.899999999999999),(75.,-47.899999999999999),(75.,0.)));
#332=IFCINDEXEDPOLYCURVE(#331,(IFCLINEINDEX((1,2,3,4,5,6,7,8,1))),$);
#333=IFCARBITRARYCLOSEDPROFILEDEF(.AREA.,$,#332);
#334=IFCCARTESIANPOINT((-25.,-5.,0.));
#335=IFCDIRECTION((0.,-1.,0.));
#336=IFCDIRECTION((1.,0.,0.));
#337=IFCAXIS2PLACEMENT3D(#334,#335,#336);
#338=IFCDIRECTION((0.,0.,-1.));
#339=IFCEXTRUDEDAREASOLID(#333,#337,#338,5.);
#340=IFCCARTESIANPOINTLIST2D(((0.,0.),(0.,27.100000000000001),(50.899999999999999,27.100000000000001),(50.899999999999999,0.),(0.89999999999999858,0.),(0.89999999999999858,-22.899999999999999),(50.,-22.899999999999999),(50.,0.)));
#341=IFCINDEXEDPOLYCURVE(#340,(IFCLINEINDEX((1,2,3,4,5,6,7,8,1))),$);
#342=IFCARBITRARYCLOSEDPROFILEDEF(.AREA.,$,#341);
#343=IFCCARTESIANPOINT((-25.,50.,0.));
#344=IFCDIRECTION((0.,-1.,0.));
#345=IFCDIRECTION((1.,0.,0.));
#346=IFCAXIS2PLACEMENT3D(#343,#344,#345);
#347=IFCDIRECTION((0.,0.,-1.));
#348=IFCEXTRUDEDAREASOLID(#342,#346,#347,5.);
#349=IFCCARTESIANPOINTLIST2D(((0.,0.),(-49.100000000000001,0.),(-49.100000000000001,35.),(0.,35.)));
#350=IFCINDEXEDPOLYCURVE(#349,(IFCLINEINDEX((1,2,3,4,1))),$);
#351=IFCARBITRARYCLOSEDPROFILEDEF(.AREA.,$,#350);
#352=IFCCARTESIANPOINT((25.,25.,25.));
#353=IFCDIRECTION((0.,0.,1.));
#354=IFCDIRECTION((1.,0.,0.));
#355=IFCAXIS2PLACEMENT3D(#352,#353,#354);
#356=IFCDIRECTION((0.,0.,1.));
#357=IFCEXTRUDEDAREASOLID(#351,#355,#356,-47.899999999999999);
#358=IFCCARTESIANPOINTLIST2D(((0.,0.),(0.,-40.),(-120.00000000000003,-40.),(-120.00000000000003,-20.),(-20.,-20.),(-20.,0.)));
#359=IFCINDEXEDPOLYCURVE(#358,(IFCLINEINDEX((1,2,3,4,5,6,1))),$);
#360=IFCARBITRARYCLOSEDPROFILEDEF(.AREA.,$,#359);
#361=IFCCARTESIANPOINT((-74.099999999999994,25.,1015.));
#362=IFCDIRECTION((0.,0.,1.));
#363=IFCDIRECTION((1.,0.,0.));
#364=IFCAXIS2PLACEMENT3D(#361,#362,#363);
#365=IFCDIRECTION((0.,0.,1.));
#366=IFCEXTRUDEDAREASOLID(#360,#364,#365,20.);
#367=IFCEXTRUDEDAREASOLID(#368,#371,#375,20.);
#368=IFCARBITRARYCLOSEDPROFILEDEF(.AREA.,$,#369);
#369=IFCINDEXEDPOLYCURVE(#370,(IFCLINEINDEX((1,2,3,4,5,6,1))),$);
#370=IFCCARTESIANPOINTLIST2D(((0.,0.),(0.,40.),(-120.00000000000003,40.),(-120.00000000000003,20.),(-20.,20.),(-20.,0.)));
#371=IFCAXIS2PLACEMENT3D(#372,#373,#374);
#372=IFCCARTESIANPOINT((-74.099999999999994,60.,1015.));
#373=IFCDIRECTION((0.,0.,1.));
#374=IFCDIRECTION((1.,0.,0.));
#375=IFCDIRECTION((0.,0.,1.));
#376=IFCSHAPEREPRESENTATION(#11,'Body','SweptSolid',(#312,#321,#357,#366,#367,#330,#339,#348));
#377=IFCPRODUCTDEFINITIONSHAPE($,$,(#376));
#383=IFCCARTESIANPOINT((2000.,-50.,0.));
#384=IFCDIRECTION((0.,0.,1.));
#385=IFCDIRECTION((1.,0.,0.));
#386=IFCAXIS2PLACEMENT3D(#383,#384,#385);
#387=IFCLOCALPLACEMENT(#22,#386);
#388=IFCDOOR('0fwaLoNKbA69w0mM67i9GF',$,'Door 3',$,$,#472,#462,$,$,$,$,$,$);
#389=IFCCARTESIANPOINTLIST2D(((0.,0.),(0.,2.1000000000000001),(0.90000000000000002,2.1000000000000001),(0.90000000000000002,0.),(-24.100000000000001,0.),(-24.100000000000001,-22.899999999999999),(25.,-22.899999999999999),(25.,0.)));
#390=IFCINDEXEDPOLYCURVE(#389,(IFCLINEINDEX((1,2,3,4,5,6,7,8,1))),$);
#391=IFCARBITRARYCLOSEDPROFILEDEF(.AREA.,$,#390);
#392=IFCCARTESIANPOINT((0.,25.,0.));
#393=IFCDIRECTION((0.,-1.,0.));
#394=IFCDIRECTION((1.,0.,0.));
#395=IFCAXIS2PLACEMENT3D(#392,#393,#394);
#396=IFCDIRECTION((0.,0.,-1.));
#397=IFCEXTRUDEDAREASOLID(#391,#395,#396,25.);
#398=IFCCARTESIANPOINTLIST2D(((0.,0.),(0.,2.1000000000000001),(0.90000000000000002,2.1000000000000001),(0.90000000000000002,0.),(-49.100000000000001,0.),(-49.100000000000001,-47.899999999999999),(50.,-47.899999999999999),(50.,0.)));
#399=IFCINDEXEDPOLYCURVE(#398,(IFCLINEINDEX((1,2,3,4,5,6,7,8,1))),$);
#400=IFCARBITRARYCLOSEDPROFILEDEF(.AREA.,$,#399);
#401=IFCCARTESIANPOINT((0.,0.,0.));
#402=IFCDIRECTION((0.,-1.,0.));
#403=IFCDIRECTION((1.,0.,0.));
#404=IFCAXIS2PLACEMENT3D(#401,#402,#403);
#405=IFCDIRECTION((0.,0.,-1.));
#406=IFCEXTRUDEDAREASOLID(#400,#404,#405,25.);
#407=IFCCARTESIANPOINTLIST2D(((0.,0.),(-99.099999999999994,0.),(-99.099999999999994,100.),(0.,100.)));
#408=IFCINDEXEDPOLYCURVE(#407,(IFCLINEINDEX((1,2,3,4,1))),$);
#409=IFCARBITRARYCLOSEDPROFILEDEF(.AREA.,$,#408);
#410=IFCCARTESIANPOINT((50.,0.,0.));
#411=IFCDIRECTION((0.,0.,1.));
#412=IFCDIRECTION((1.,0.,0.));
#413=IFCAXIS2PLACEMENT3D(#410,#411,#412);
#414=IFCDIRECTION((0.,0.,1.));
#415=IFCEXTRUDEDAREASOLID(#409,#413,#414,25.);
#416=IFCCARTESIANPOINTLIST2D(((0.,0.),(0.,27.100000000000001),(50.899999999999999,27.100000000000001),(50.899999999999999,0.),(-24.100000000000001,0.),(-24.100000000000001,-47.899999999999999),(75.,-47.899999999999999),(75.,0.)));
#417=IFCINDEXEDPOLYCURVE(#416,(IFCLINEINDEX((1,2,3,4,5,6,7,8,1))),$);
#418=IFCARBITRARYCLOSEDPROFILEDEF(.AREA.,$,#417);
#419=IFCCARTESIANPOINT((-25.,-5.,0.));
#420=IFCDIRECTION((0.,-1.,0.));
#421=IFCDIRECTION((1.,0.,0.));
#422=IFCAXIS2PLACEMENT3D(#419,#420,#421);
#423=IFCDIRECTION((0.,0.,-1.));
#424=IFCEXTRUDEDAREASOLID(#418,#422,#423,5.);
#425=IFCCARTESIANPOINTLIST2D(((0.,0.),(0.,27.100000000000001),(50.899999999999999,27.100000000000001),(50.899999999999999,0.),(0.89999999999999858,0.),(0.89999999999999858,-22.899999999999999),(50.,-22.899999999999999),(50.,0.)));
#426=IFCINDEXEDPOLYCURVE(#425,(IFCLINEINDEX((1,2,3,4,5,6,7,8,1))),$);
#427=IFCARBITRARYCLOSEDPROFILEDEF(.AREA.,$,#426);
#428=IFCCARTESIANPOINT((-25.,50.,0.));
#429=IFCDIRECTION((0.,-1.,0.));
#430=IFCDIRECTION((1.,0.,0.));
#431=IFCAXIS2PLACEMENT3D(#428,#429,#430);
#432=IFCDIRECTION((0.,0.,-1.));
#433=IFCEXTRUDEDAREASOLID(#427,#431,#432,5.);
#434=IFCCARTESIANPOINTLIST2D(((0.,0.),(-49.100000000000001,0.),(-49.100000000000001,35.),(0.,35.)));
#435=IFCINDEXEDPOLYCURVE(#434,(IFCLINEINDEX((1,2,3,4,1))),$);
#436=IFCARBITRARYCLOSEDPROFILEDEF(.AREA.,$,#435);
#437=IFCCARTESIANPOINT((25.,25.,25.));
#438=IFCDIRECTION((0.,0.,1.));
#439=IFCDIRECTION((1.,0.,0.));
#440=IFCAXIS2PLACEMENT3D(#437,#438,#439);
#441=IFCDIRECTION((0.,0.,1.));
#442=IFCEXTRUDEDAREASOLID(#436,#440,#441,-47.899999999999999);
#443=IFCCARTESIANPOINTLIST2D(((0.,0.),(0.,-40.),(-120.00000000000003,-40.),(-120.00000000000003,-20.),(-20.,-20.),(-20.,0.)));
#444=IFCINDEXEDPOLYCURVE(#443,(IFCLINEINDEX((1,2,3,4,5,6,1))),$);
#445=IFCARBITRARYCLOSEDPROFILEDEF(.AREA.,$,#444);
#446=IFCCARTESIANPOINT((-74.099999999999994,25.,1015.));
#447=IFCDIRECTION((0.,0.,1.));
#448=IFCDIRECTION((1.,0.,0.));
#449=IFCAXIS2PLACEMENT3D(#446,#447,#448);
#450=IFCDIRECTION((0.,0.,1.));
#451=IFCEXTRUDEDAREASOLID(#445,#449,#450,20.);
#452=IFCEXTRUDEDAREASOLID(#453,#456,#460,20.);
#453=IFCARBITRARYCLOSEDPROFILEDEF(.AREA.,$,#454);
#454=IFCINDEXEDPOLYCURVE(#455,(IFCLINEINDEX((1,2,3,4,5,6,1))),$);
#455=IFCCARTESIANPOINTLIST2D(((0.,0.),(0.,40.),(-120.00000000000003,40.),(-120.00000000000003,20.),(-20.,20.),(-20.,0.)));
#456=IFCAXIS2PLACEMENT3D(#457,#458,#459);
#457=IFCCARTESIANPOINT((-74.099999999999994,60.,1015.));
#458=IFCDIRECTION((0.,0.,1.));
#459=IFCDIRECTION((1.,0.,0.));
#460=IFCDIRECTION((0.,0.,1.));
#461=IFCSHAPEREPRESENTATION(#11,'Body','SweptSolid',(#397,#406,#442,#451,#452,#415,#424,#433));
#462=IFCPRODUCTDEFINITIONSHAPE($,$,(#461));
#468=IFCCARTESIANPOINT((3200.,-50.,0.));
#469=IFCDIRECTION((0.,0.,1.));
#470=IFCDIRECTION((1.,0.,0.));
#471=IFCAXIS2PLACEMENT3D(#468,#469,#470);
#472=IFCLOCALPLACEMENT(#22,#471);
#473=IFCWINDOW('16IrY9sQn8sfGrNEO2xpcr',$,'Window 1',$,$,#527,#517,$,$,$,$,$,$);
#474=IFCCARTESIANPOINTLIST2D(((0.,0.),(1.2,0.),(1.2,1.1000000000000001),(0.,1.1000000000000001)));
#475=IFCINDEXEDPOLYCURVE(#474,(IFCLINEINDEX((1,2,3,4,1))),$);
#476=IFCCARTESIANPOINTLIST2D(((25.,25.),(-23.799999999999997,25.),(-23.799999999999997,-23.899999999999999),(25.,-23.899999999999999)));
#477=IFCINDEXEDPOLYCURVE(#476,(IFCLINEINDEX((1,2,3,4,1))),$);
#478=IFCARBITRARYPROFILEDEFWITHVOIDS(.AREA.,$,#475,(#477));
#479=IFCCARTESIANPOINT((0.,90.,0.));
#480=IFCDIRECTION((0.,-1.,0.));
#481=IFCDIRECTION((1.,0.,0.));
#482=IFCAXIS2PLACEMENT3D(#479,#480,#481);
#483=IFCDIRECTION((0.,0.,-1.));
#484=IFCEXTRUDEDAREASOLID(#478,#482,#483,10.);
#485=IFCCARTESIANPOINTLIST2D(((0.,0.),(1.2,0.),(1.2,1.1000000000000001),(0.,1.1000000000000001)));
#486=IFCINDEXEDPOLYCURVE(#485,(IFCLINEINDEX((1,2,3,4,1))),$);
#487=IFCCARTESIANPOINTLIST2D(((50.,50.),(-48.799999999999997,50.),(-48.799999999999997,-48.900000000000006),(50.,-48.900000000000006)));
#488=IFCINDEXEDPOLYCURVE(#487,(IFCLINEINDEX((1,2,3,4,1))),$);
#489=IFCARBITRARYPROFILEDEFWITHVOIDS(.AREA.,$,#486,(#488));
#490=IFCCARTESIANPOINT((0.,50.,0.));
#491=IFCDIRECTION((0.,-1.,0.));
#492=IFCDIRECTION((1.,0.,0.));
#493=IFCAXIS2PLACEMENT3D(#490,#491,#492);
#494=IFCDIRECTION((0.,0.,-1.));
#495=IFCEXTRUDEDAREASOLID(#489,#493,#494,40.);
#496=IFCCARTESIANPOINTLIST2D(((0.,0.),(-48.799999999999997,0.),(-48.799999999999997,-48.899999999999999),(0.,-48.899999999999999)));
#497=IFCINDEXEDPOLYCURVE(#496,(IFCLINEINDEX((1,2,3,4,1))),$);
#498=IFCCARTESIANPOINTLIST2D(((35.,35.),(-83.799999999999997,35.),(-83.799999999999997,-83.900000000000006),(35.,-83.900000000000006)));
#499=IFCINDEXEDPOLYCURVE(#498,(IFCLINEINDEX((1,2,3,4,1))),$);
#500=IFCARBITRARYPROFILEDEFWITHVOIDS(.AREA.,$,#497,(#499));
#501=IFCCARTESIANPOINT((25.,90.,25.));
#502=IFCDIRECTION((0.,-1.,0.));
#503=IFCDIRECTION((1.,0.,0.));
#504=IFCAXIS2PLACEMENT3D(#501,#502,#503);
#505=IFCDIRECTION((0.,0.,-1.));
#506=IFCEXTRUDEDAREASOLID(#500,#504,#505,35.);
#507=IFCINDEXEDPOLYCURVE(#508,(IFCLINEINDEX((1,2,3,4,1))),$);
#508=IFCCARTESIANPOINTLIST2D(((35.,35.),(-83.799999999999997,35.),(-83.799999999999997,-83.900000000000006),(35.,-83.900000000000006)));
#509=IFCARBITRARYCLOSEDPROFILEDEF(.AREA.,$,#507);
#510=IFCCARTESIANPOINT((25.,102.5,25.));
#511=IFCDIRECTION((0.,-1.,0.));
#512=IFCDIRECTION((1.,0.,0.));
#513=IFCAXIS2PLACEMENT3D(#510,#511,#512);
#514=IFCDIRECTION((0.,0.,-1.));
#515=IFCEXTRUDEDAREASOLID(#509,#513,#514,10.);
#516=IFCSHAPEREPRESENTATION(#11,'Body','SweptSolid',(#484,#495,#506,#515));
#517=IFCPRODUCTDEFINITIONSHAPE($,$,(#516));
#523=IFCCARTESIANPOINT((1200.,7050.,1100.));
#524=IFCDIRECTION((0.,0.,1.));
#525=IFCDIRECTION((1.,0.,0.));
#526=IFCAXIS2PLACEMENT3D(#523,#524,#525);
#527=IFCLOCALPLACEMENT(#22,#526);
#528=IFCWINDOW('1UrQ8FLPz5PuBKa4wM_8Xs',$,'Window 2',$,$,#582,#572,$,$,$,$,$,$);
#529=IFCCARTESIANPOINTLIST2D(((0.,0.),(1.2,0.),(1.2,1.1000000000000001),(0.,1.1000000000000001)));
#530=IFCINDEXEDPOLYCURVE(#529,(IFCLINEINDEX((1,2,3,4,1))),$);
#531=IFCCARTESIANPOINTLIST2D(((25.,25.),(-23.799999999999997,25.),(-23.799999999999997,-23.899999999999999),(25.,-23.899999999999999)));
#532=IFCINDEXEDPOLYCURVE(#531,(IFCLINEINDEX((1,2,3,4,1))),$);
#533=IFCARBITRARYPROFILEDEFWITHVOIDS(.AREA.,$,#530,(#532));
#534=IFCCARTESIANPOINT((0.,90.,0.));
#535=IFCDIRECTION((0.,-1.,0.));
#536=IFCDIRECTION((1.,0.,0.));
#537=IFCAXIS2PLACEMENT3D(#534,#535,#536);
#538=IFCDIRECTION((0.,0.,-1.));
#539=IFCEXTRUDEDAREASOLID(#533,#537,#538,10.);
#540=IFCCARTESIANPOINTLIST2D(((0.,0.),(1.2,0.),(1.2,1.1000000000000001),(0.,1.1000000000000001)));
#541=IFCINDEXEDPOLYCURVE(#540,(IFCLINEINDEX((1,2,3,4,1))),$);
#542=IFCCARTESIANPOINTLIST2D(((50.,50.),(-48.799999999999997,50.),(-48.799999999999997,-48.900000000000006),(50.,-48.900000000000006)));
#543=IFCINDEXEDPOLYCURVE(#542,(IFCLINEINDEX((1,2,3,4,1))),$);
#544=IFCARBITRARYPROFILEDEFWITHVOIDS(.AREA.,$,#541,(#543));
#545=IFCCARTESIANPOINT((0.,50.,0.));
#546=IFCDIRECTION((0.,-1.,0.));
#547=IFCDIRECTION((1.,0.,0.));
#548=IFCAXIS2PLACEMENT3D(#545,#546,#547);
#549=IFCDIRECTION((0.,0.,-1.));
#550=IFCEXTRUDEDAREASOLID(#544,#548,#549,40.);
#551=IFCCARTESIANPOINTLIST2D(((0.,0.),(-48.799999999999997,0.),(-48.799999999999997,-48.899999999999999),(0.,-48.899999999999999)));
#552=IFCINDEXEDPOLYCURVE(#551,(IFCLINEINDEX((1,2,3,4,1))),$);
#553=IFCCARTESIANPOINTLIST2D(((35.,35.),(-83.799999999999997,35.),(-83.799999999999997,-83.900000000000006),(35.,-83.900000000000006)));
#554=IFCINDEXEDPOLYCURVE(#553,(IFCLINEINDEX((1,2,3,4,1))),$);
#555=IFCARBITRARYPROFILEDEFWITHVOIDS(.AREA.,$,#552,(#554));
#556=IFCCARTESIANPOINT((25.,90.,25.));
#557=IFCDIRECTION((0.,-1.,0.));
#558=IFCDIRECTION((1.,0.,0.));
#559=IFCAXIS2PLACEMENT3D(#556,#557,#558);
#560=IFCDIRECTION((0.,0.,-1.));
#561=IFCEXTRUDEDAREASOLID(#555,#559,#560,35.);
#562=IFCINDEXEDPOLYCURVE(#563,(IFCLINEINDEX((1,2,3,4,1))),$);
#563=IFCCARTESIANPOINTLIST2D(((35.,35.),(-83.799999999999997,35.),(-83.799999999999997,-83.900000000000006),(35.,-83.900000000000006)));
#564=IFCARBITRARYCLOSEDPROFILEDEF(.AREA.,$,#562);
#565=IFCCARTESIANPOINT((25.,102.5,25.));
#566=IFCDIRECTION((0.,-1.,0.));
#567=IFCDIRECTION((1.,0.,0.));
#568=IFCAXIS2PLACEMENT3D(#565,#566,#567);
#569=IFCDIRECTION((0.,0.,-1.));
#570=IFCEXTRUDEDAREASOLID(#564,#568,#569,10.);
#571=IFCSHAPEREPRESENTATION(#11,'Body','SweptSolid',(#539,#550,#561,#570));
#572=IFCPRODUCTDEFINITIONSHAPE($,$,(#571));
#578=IFCCARTESIANPOINT((2599.9999999999995,7050.,1100.));
#579=IFCDIRECTION((0.,0.,1.));
#580=IFCDIRECTION((1.,0.,0.));
#581=IFCAXIS2PLACEMENT3D(#578,#579,#580);
#582=IFCLOCALPLACEMENT(#22,#581);
#583=IFCSPACE('1nyPwgZ$XD9Q6vKjvub45c',$,'LOBBY',$,$,$,$,$,$,$,$);
#584=IFCRELAGGREGATES('1MQzKQYmr5EhqApVQMv2D6',$,$,$,#16,(#583,#586,#585));
#585=IFCSPACE('3EgRSGs9z5XfkdSgZGsoxS',$,'READING',$,$,$,$,$,$,$,$);
#586=IFCSPACE('33Spir16D23hDtSoLBw7iN',$,'UNCLASSIFIED',$,$,$,$,$,$,$,$);
ENDSEC;
END-ISO-10303-21;
