ISO-10303-21;
HEADER;
FILE_DESCRIPTION(('ViewDefinition[DesignTransferView]'),'2;1');
FILE_NAME('/dev/null','2026-07-06T19:03:30+08:00',(''),(''),'IfcOpenShell 0.8.4.post1','IfcOpenShell 0.8.4.post1','Nobody');
FILE_SCHEMA(('IFC4'));
ENDSEC;
DATA;
#1=IFCPROJECT('2rRFLOwHPFbhtrVinOkeev',$,'Studio flat privacy daylight tradeoff Project',$,$,$,$,(#10),#5);
#2=IFCSIUNIT(*,.LENGTHUNIT.,$,.METRE.);
#3=IFCSIUNIT(*,.AREAUNIT.,$,.SQUARE_METRE.);
#4=IFCSIUNIT(*,.VOLUMEUNIT.,$,.CUBIC_METRE.);
#5=IFCUNITASSIGNMENT((#4,#2,#3));
#6=IFCCARTESIANPOINT((0.,0.,0.));
#7=IFCDIRECTION((0.,0.,1.));
#8=IFCDIRECTION((1.,0.,0.));
#9=IFCAXIS2PLACEMENT3D(#6,#7,#8);
#10=IFCGEOMETRICREPRESENTATIONCONTEXT($,'Model',3,1.E-05,#9,$);
#11=IFCGEOMETRICREPRESENTATIONSUBCONTEXT('Body','Model',*,*,*,*,#10,$,.MODEL_VIEW.,$);
#12=IFCSITE('1OiLFBhH5Cw9JKgyJfs7ZZ',$,'Daylight Optimization Site',$,$,$,$,$,$,$,$,$,$,$);
#13=IFCBUILDING('0Ib6pIMb54LPyaxTSiIks1',$,'Benchmark Building',$,$,$,$,$,$,$,$,$);
#14=IFCRELAGGREGATES('3ViAG$Izj78RFshoy8iWjW',$,$,$,#1,(#12));
#15=IFCRELAGGREGATES('2fDHb2Uu96jODfafbnZYcL',$,$,$,#12,(#13));
#16=IFCBUILDINGSTOREY('3WCHbSu91B_PlVf_Vum7ol',$,'Level 1',$,$,$,$,$,$,0.);
#17=IFCRELAGGREGATES('1WASt505n8hPWfFnAkgvQX',$,$,$,#13,(#16));
#18=IFCWALL('3zBd0eK61DU8x8oLy07KPQ',$,'South Wall',$,$,$,#28,$,$);
#19=IFCCARTESIANPOINTLIST3D(((0.,0.,0.),(7.,0.,0.),(7.,0.2,0.),(0.,0.2,0.),(0.,0.,3.2),(7.,0.,3.2),(7.,0.2,3.2),(0.,0.2,3.2)));
#20=IFCINDEXEDPOLYGONALFACE((1,2,3,4));
#21=IFCINDEXEDPOLYGONALFACE((5,8,7,6));
#22=IFCINDEXEDPOLYGONALFACE((1,5,6,2));
#23=IFCINDEXEDPOLYGONALFACE((2,6,7,3));
#24=IFCINDEXEDPOLYGONALFACE((3,7,8,4));
#25=IFCINDEXEDPOLYGONALFACE((4,8,5,1));
#26=IFCPOLYGONALFACESET(#19,$,(#20,#21,#22,#23,#24,#25),$);
#27=IFCSHAPEREPRESENTATION(#11,'Body','Tessellation',(#26));
#28=IFCPRODUCTDEFINITIONSHAPE($,$,(#27));
#29=IFCRELCONTAINEDINSPATIALSTRUCTURE('2EXQslIPz7DBe0jSnJzN6H',$,$,$,(#163,#63,#196,#30,#41,#74,#96,#52,#18,#85,#107,#118,#174,#185,#207,#218),#16);
#30=IFCWALL('36su2KaO55pfl26gjrGPdq',$,'East Wall',$,$,$,#40,$,$);
#31=IFCCARTESIANPOINTLIST3D(((6.8,0.,0.),(7.,0.,0.),(7.,6.,0.),(6.8,6.,0.),(6.8,0.,3.2),(7.,0.,3.2),(7.,6.,3.2),(6.8,6.,3.2)));
#32=IFCINDEXEDPOLYGONALFACE((1,2,3,4));
#33=IFCINDEXEDPOLYGONALFACE((5,8,7,6));
#34=IFCINDEXEDPOLYGONALFACE((1,5,6,2));
#35=IFCINDEXEDPOLYGONALFACE((2,6,7,3));
#36=IFCINDEXEDPOLYGONALFACE((3,7,8,4));
#37=IFCINDEXEDPOLYGONALFACE((4,8,5,1));
#38=IFCPOLYGONALFACESET(#31,$,(#32,#33,#34,#35,#36,#37),$);
#39=IFCSHAPEREPRESENTATION(#11,'Body','Tessellation',(#38));
#40=IFCPRODUCTDEFINITIONSHAPE($,$,(#39));
#41=IFCWALL('1B91t7Lwf5Iegs53owN9a9',$,'North Wall',$,$,$,#51,$,$);
#42=IFCCARTESIANPOINTLIST3D(((0.,5.8,0.),(7.,5.8,0.),(7.,6.,0.),(0.,6.,0.),(0.,5.8,3.2),(7.,5.8,3.2),(7.,6.,3.2),(0.,6.,3.2)));
#43=IFCINDEXEDPOLYGONALFACE((1,2,3,4));
#44=IFCINDEXEDPOLYGONALFACE((5,8,7,6));
#45=IFCINDEXEDPOLYGONALFACE((1,5,6,2));
#46=IFCINDEXEDPOLYGONALFACE((2,6,7,3));
#47=IFCINDEXEDPOLYGONALFACE((3,7,8,4));
#48=IFCINDEXEDPOLYGONALFACE((4,8,5,1));
#49=IFCPOLYGONALFACESET(#42,$,(#43,#44,#45,#46,#47,#48),$);
#50=IFCSHAPEREPRESENTATION(#11,'Body','Tessellation',(#49));
#51=IFCPRODUCTDEFINITIONSHAPE($,$,(#50));
#52=IFCWALL('3R7uu5PeLCXRgTvSdWPJEm',$,'West Wall',$,$,$,#62,$,$);
#53=IFCCARTESIANPOINTLIST3D(((0.,0.,0.),(0.2,0.,0.),(0.2,6.,0.),(0.,6.,0.),(0.,0.,3.2),(0.2,0.,3.2),(0.2,6.,3.2),(0.,6.,3.2)));
#54=IFCINDEXEDPOLYGONALFACE((1,2,3,4));
#55=IFCINDEXEDPOLYGONALFACE((5,8,7,6));
#56=IFCINDEXEDPOLYGONALFACE((1,5,6,2));
#57=IFCINDEXEDPOLYGONALFACE((2,6,7,3));
#58=IFCINDEXEDPOLYGONALFACE((3,7,8,4));
#59=IFCINDEXEDPOLYGONALFACE((4,8,5,1));
#60=IFCPOLYGONALFACESET(#53,$,(#54,#55,#56,#57,#58,#59),$);
#61=IFCSHAPEREPRESENTATION(#11,'Body','Tessellation',(#60));
#62=IFCPRODUCTDEFINITIONSHAPE($,$,(#61));
#63=IFCWALL('34g7ecnJb2rPnvTOVtSo1c',$,'Studio Split Wall',$,$,$,#73,$,$);
#64=IFCCARTESIANPOINTLIST3D(((4.,0.2,0.),(4.2,0.2,0.),(4.2,5.8,0.),(4.,5.8,0.),(4.,0.2,3.2),(4.2,0.2,3.2),(4.2,5.8,3.2),(4.,5.8,3.2)));
#65=IFCINDEXEDPOLYGONALFACE((1,2,3,4));
#66=IFCINDEXEDPOLYGONALFACE((5,8,7,6));
#67=IFCINDEXEDPOLYGONALFACE((1,5,6,2));
#68=IFCINDEXEDPOLYGONALFACE((2,6,7,3));
#69=IFCINDEXEDPOLYGONALFACE((3,7,8,4));
#70=IFCINDEXEDPOLYGONALFACE((4,8,5,1));
#71=IFCPOLYGONALFACESET(#64,$,(#65,#66,#67,#68,#69,#70),$);
#72=IFCSHAPEREPRESENTATION(#11,'Body','Tessellation',(#71));
#73=IFCPRODUCTDEFINITIONSHAPE($,$,(#72));
#74=IFCWALL('2ozker5Ln1VRbgyf2O4nxo',$,'Bath Partition',$,$,$,#84,$,$);
#75=IFCCARTESIANPOINTLIST3D(((4.2,2.2,0.),(6.8,2.2,0.),(6.8,2.4,0.),(4.2,2.4,0.),(4.2,2.2,3.2),(6.8,2.2,3.2),(6.8,2.4,3.2),(4.2,2.4,3.2)));
#76=IFCINDEXEDPOLYGONALFACE((1,2,3,4));
#77=IFCINDEXEDPOLYGONALFACE((5,8,7,6));
#78=IFCINDEXEDPOLYGONALFACE((1,5,6,2));
#79=IFCINDEXEDPOLYGONALFACE((2,6,7,3));
#80=IFCINDEXEDPOLYGONALFACE((3,7,8,4));
#81=IFCINDEXEDPOLYGONALFACE((4,8,5,1));
#82=IFCPOLYGONALFACESET(#75,$,(#76,#77,#78,#79,#80,#81),$);
#83=IFCSHAPEREPRESENTATION(#11,'Body','Tessellation',(#82));
#84=IFCPRODUCTDEFINITIONSHAPE($,$,(#83));
#85=IFCSLAB('0duvFPPT55qRa1ukoQ1jUJ',$,'Studio Ground Slab',$,$,$,#95,$,$);
#86=IFCCARTESIANPOINTLIST3D(((0.,0.,0.),(7.,0.,0.),(7.,6.,0.),(0.,6.,0.),(0.,0.,0.18),(7.,0.,0.18),(7.,6.,0.18),(0.,6.,0.18)));
#87=IFCINDEXEDPOLYGONALFACE((1,2,3,4));
#88=IFCINDEXEDPOLYGONALFACE((5,8,7,6));
#89=IFCINDEXEDPOLYGONALFACE((1,5,6,2));
#90=IFCINDEXEDPOLYGONALFACE((2,6,7,3));
#91=IFCINDEXEDPOLYGONALFACE((3,7,8,4));
#92=IFCINDEXEDPOLYGONALFACE((4,8,5,1));
#93=IFCPOLYGONALFACESET(#86,$,(#87,#88,#89,#90,#91,#92),$);
#94=IFCSHAPEREPRESENTATION(#11,'Body','Tessellation',(#93));
#95=IFCPRODUCTDEFINITIONSHAPE($,$,(#94));
#96=IFCSLAB('1jsIC$GXH159pTRhUaAc9A',$,'Studio Roof Slab',$,$,$,#106,$,$);
#97=IFCCARTESIANPOINTLIST3D(((0.,0.,3.2),(7.,0.,3.2),(7.,6.,3.2),(0.,6.,3.2),(0.,0.,3.38),(7.,0.,3.38),(7.,6.,3.38),(0.,6.,3.38)));
#98=IFCINDEXEDPOLYGONALFACE((1,2,3,4));
#99=IFCINDEXEDPOLYGONALFACE((5,8,7,6));
#100=IFCINDEXEDPOLYGONALFACE((1,5,6,2));
#101=IFCINDEXEDPOLYGONALFACE((2,6,7,3));
#102=IFCINDEXEDPOLYGONALFACE((3,7,8,4));
#103=IFCINDEXEDPOLYGONALFACE((4,8,5,1));
#104=IFCPOLYGONALFACESET(#97,$,(#98,#99,#100,#101,#102,#103),$);
#105=IFCSHAPEREPRESENTATION(#11,'Body','Tessellation',(#104));
#106=IFCPRODUCTDEFINITIONSHAPE($,$,(#105));
#107=IFCDOOR('2rk8xmnH91HhsvUwspt7KW',$,'STUDIO ENTRY DOOR',$,$,$,#117,$,2.1,0.85,$,$,$);
#108=IFCCARTESIANPOINTLIST3D(((2.25,0.03,0.),(3.1,0.03,0.),(3.1,0.17,0.),(2.25,0.17,0.),(2.25,0.03,2.1),(3.1,0.03,2.1),(3.1,0.17,2.1),(2.25,0.17,2.1)));
#109=IFCINDEXEDPOLYGONALFACE((1,2,3,4));
#110=IFCINDEXEDPOLYGONALFACE((5,8,7,6));
#111=IFCINDEXEDPOLYGONALFACE((1,5,6,2));
#112=IFCINDEXEDPOLYGONALFACE((2,6,7,3));
#113=IFCINDEXEDPOLYGONALFACE((3,7,8,4));
#114=IFCINDEXEDPOLYGONALFACE((4,8,5,1));
#115=IFCPOLYGONALFACESET(#108,$,(#109,#110,#111,#112,#113,#114),$);
#116=IFCSHAPEREPRESENTATION(#11,'Body','Tessellation',(#115));
#117=IFCPRODUCTDEFINITIONSHAPE($,$,(#116));
#118=IFCDOOR('0oaAkcgPD6yPqFv_uaYdKd',$,'BATH DOOR',$,$,$,#128,$,2.1,0.85,$,$,$);
#119=IFCCARTESIANPOINTLIST3D(((4.03,0.85,0.),(4.17,0.85,0.),(4.17,1.7,0.),(4.03,1.7,0.),(4.03,0.85,2.1),(4.17,0.85,2.1),(4.17,1.7,2.1),(4.03,1.7,2.1)));
#120=IFCINDEXEDPOLYGONALFACE((1,2,3,4));
#121=IFCINDEXEDPOLYGONALFACE((5,8,7,6));
#122=IFCINDEXEDPOLYGONALFACE((1,5,6,2));
#123=IFCINDEXEDPOLYGONALFACE((2,6,7,3));
#124=IFCINDEXEDPOLYGONALFACE((3,7,8,4));
#125=IFCINDEXEDPOLYGONALFACE((4,8,5,1));
#126=IFCPOLYGONALFACESET(#119,$,(#120,#121,#122,#123,#124,#125),$);
#127=IFCSHAPEREPRESENTATION(#11,'Body','Tessellation',(#126));
#128=IFCPRODUCTDEFINITIONSHAPE($,$,(#127));
#129=IFCSPACE('3mR7iJhADFlAz_c1UnruxP',$,'LIVING',$,$,$,#139,$,$,$,$);
#130=IFCCARTESIANPOINTLIST3D(((0.2,0.2,0.2),(4.2,0.2,0.2),(4.2,5.8,0.2),(0.2,5.8,0.2),(0.2,0.2,3.),(4.2,0.2,3.),(4.2,5.8,3.),(0.2,5.8,3.)));
#131=IFCINDEXEDPOLYGONALFACE((1,2,3,4));
#132=IFCINDEXEDPOLYGONALFACE((5,8,7,6));
#133=IFCINDEXEDPOLYGONALFACE((1,5,6,2));
#134=IFCINDEXEDPOLYGONALFACE((2,6,7,3));
#135=IFCINDEXEDPOLYGONALFACE((3,7,8,4));
#136=IFCINDEXEDPOLYGONALFACE((4,8,5,1));
#137=IFCPOLYGONALFACESET(#130,$,(#131,#132,#133,#134,#135,#136),$);
#138=IFCSHAPEREPRESENTATION(#11,'Body','Tessellation',(#137));
#139=IFCPRODUCTDEFINITIONSHAPE($,$,(#138));
#140=IFCRELAGGREGATES('1xCLJ7LST7mvBQBVx4XyHb',$,$,$,#16,(#129,#152,#141));
#141=IFCSPACE('2Tfb_maZTCLuOTVXBAzNS_',$,'SLEEPING',$,$,$,#151,$,$,$,$);
#142=IFCCARTESIANPOINTLIST3D(((4.2,2.4,0.2),(6.8,2.4,0.2),(6.8,5.8,0.2),(4.2,5.8,0.2),(4.2,2.4,3.),(6.8,2.4,3.),(6.8,5.8,3.),(4.2,5.8,3.)));
#143=IFCINDEXEDPOLYGONALFACE((1,2,3,4));
#144=IFCINDEXEDPOLYGONALFACE((5,8,7,6));
#145=IFCINDEXEDPOLYGONALFACE((1,5,6,2));
#146=IFCINDEXEDPOLYGONALFACE((2,6,7,3));
#147=IFCINDEXEDPOLYGONALFACE((3,7,8,4));
#148=IFCINDEXEDPOLYGONALFACE((4,8,5,1));
#149=IFCPOLYGONALFACESET(#142,$,(#143,#144,#145,#146,#147,#148),$);
#150=IFCSHAPEREPRESENTATION(#11,'Body','Tessellation',(#149));
#151=IFCPRODUCTDEFINITIONSHAPE($,$,(#150));
#152=IFCSPACE('3ayLH_JFb9L8VUoYsGF1yO',$,'BATH',$,$,$,#162,$,$,$,$);
#153=IFCCARTESIANPOINTLIST3D(((4.2,0.2,0.2),(6.8,0.2,0.2),(6.8,2.4,0.2),(4.2,2.4,0.2),(4.2,0.2,3.),(6.8,0.2,3.),(6.8,2.4,3.),(4.2,2.4,3.)));
#154=IFCINDEXEDPOLYGONALFACE((1,2,3,4));
#155=IFCINDEXEDPOLYGONALFACE((5,8,7,6));
#156=IFCINDEXEDPOLYGONALFACE((1,5,6,2));
#157=IFCINDEXEDPOLYGONALFACE((2,6,7,3));
#158=IFCINDEXEDPOLYGONALFACE((3,7,8,4));
#159=IFCINDEXEDPOLYGONALFACE((4,8,5,1));
#160=IFCPOLYGONALFACESET(#153,$,(#154,#155,#156,#157,#158,#159),$);
#161=IFCSHAPEREPRESENTATION(#11,'Body','Tessellation',(#160));
#162=IFCPRODUCTDEFINITIONSHAPE($,$,(#161));
#163=IFCWALL('06pKYJ7MXFavEQ0gkEUC7I',$,'SITE-OBSTRUCTION-SOUTH PRIVACY WALL',$,$,$,#173,$,$);
#164=IFCCARTESIANPOINTLIST3D(((0.,-2.,0.),(7.,-2.,0.),(7.,-1.75,0.),(0.,-1.75,0.),(0.,-2.,2.2),(7.,-2.,2.2),(7.,-1.75,2.2),(0.,-1.75,2.2)));
#165=IFCINDEXEDPOLYGONALFACE((1,2,3,4));
#166=IFCINDEXEDPOLYGONALFACE((5,8,7,6));
#167=IFCINDEXEDPOLYGONALFACE((1,5,6,2));
#168=IFCINDEXEDPOLYGONALFACE((2,6,7,3));
#169=IFCINDEXEDPOLYGONALFACE((3,7,8,4));
#170=IFCINDEXEDPOLYGONALFACE((4,8,5,1));
#171=IFCPOLYGONALFACESET(#164,$,(#165,#166,#167,#168,#169,#170),$);
#172=IFCSHAPEREPRESENTATION(#11,'Body','Tessellation',(#171));
#173=IFCPRODUCTDEFINITIONSHAPE($,$,(#172));
#174=IFCWINDOW('0YD3a_JAjEWPUaR2bmdNZC',$,'LIVING SOUTH WINDOW',$,$,$,#184,$,1.3,1.95,$,$,$);
#175=IFCCARTESIANPOINTLIST3D(((0.75,0.04,0.9),(2.7,0.04,0.9),(2.7,0.16,0.9),(0.75,0.16,0.9),(0.75,0.04,2.2),(2.7,0.04,2.2),(2.7,0.16,2.2),(0.75,0.16,2.2)));
#176=IFCINDEXEDPOLYGONALFACE((1,2,3,4));
#177=IFCINDEXEDPOLYGONALFACE((5,8,7,6));
#178=IFCINDEXEDPOLYGONALFACE((1,5,6,2));
#179=IFCINDEXEDPOLYGONALFACE((2,6,7,3));
#180=IFCINDEXEDPOLYGONALFACE((3,7,8,4));
#181=IFCINDEXEDPOLYGONALFACE((4,8,5,1));
#182=IFCPOLYGONALFACESET(#175,$,(#176,#177,#178,#179,#180,#181),$);
#183=IFCSHAPEREPRESENTATION(#11,'Body','Tessellation',(#182));
#184=IFCPRODUCTDEFINITIONSHAPE($,$,(#183));
#185=IFCWINDOW('2XH9wUR8f8PAY_ylx6Bya3',$,'LIVING WEST WINDOW',$,$,$,#195,$,1.2,1.7,$,$,$);
#186=IFCCARTESIANPOINTLIST3D(((0.04,2.15,0.95),(0.16,2.15,0.95),(0.16,3.85,0.95),(0.04,3.85,0.95),(0.04,2.15,2.15),(0.16,2.15,2.15),(0.16,3.85,2.15),(0.04,3.85,2.15)));
#187=IFCINDEXEDPOLYGONALFACE((1,2,3,4));
#188=IFCINDEXEDPOLYGONALFACE((5,8,7,6));
#189=IFCINDEXEDPOLYGONALFACE((1,5,6,2));
#190=IFCINDEXEDPOLYGONALFACE((2,6,7,3));
#191=IFCINDEXEDPOLYGONALFACE((3,7,8,4));
#192=IFCINDEXEDPOLYGONALFACE((4,8,5,1));
#193=IFCPOLYGONALFACESET(#186,$,(#187,#188,#189,#190,#191,#192),$);
#194=IFCSHAPEREPRESENTATION(#11,'Body','Tessellation',(#193));
#195=IFCPRODUCTDEFINITIONSHAPE($,$,(#194));
#196=IFCWINDOW('21CO9hhFzAO97ysI809X1d',$,'SLEEPING NORTH WINDOW',$,$,$,#206,$,1.05,1.5,$,$,$);
#197=IFCCARTESIANPOINTLIST3D(((4.85,5.84,1.2),(6.35,5.84,1.2),(6.35,5.96,1.2),(4.85,5.96,1.2),(4.85,5.84,2.25),(6.35,5.84,2.25),(6.35,5.96,2.25),(4.85,5.96,2.25)));
#198=IFCINDEXEDPOLYGONALFACE((1,2,3,4));
#199=IFCINDEXEDPOLYGONALFACE((5,8,7,6));
#200=IFCINDEXEDPOLYGONALFACE((1,5,6,2));
#201=IFCINDEXEDPOLYGONALFACE((2,6,7,3));
#202=IFCINDEXEDPOLYGONALFACE((3,7,8,4));
#203=IFCINDEXEDPOLYGONALFACE((4,8,5,1));
#204=IFCPOLYGONALFACESET(#197,$,(#198,#199,#200,#201,#202,#203),$);
#205=IFCSHAPEREPRESENTATION(#11,'Body','Tessellation',(#204));
#206=IFCPRODUCTDEFINITIONSHAPE($,$,(#205));
#207=IFCWINDOW('1QFaHjQ9b0DPAN0HCSoYcF',$,'BATH EAST HIGH WINDOW',$,$,$,#217,$,0.55,0.8,$,$,$);
#208=IFCCARTESIANPOINTLIST3D(((6.84,0.85,1.75),(6.96,0.85,1.75),(6.96,1.65,1.75),(6.84,1.65,1.75),(6.84,0.85,2.3),(6.96,0.85,2.3),(6.96,1.65,2.3),(6.84,1.65,2.3)));
#209=IFCINDEXEDPOLYGONALFACE((1,2,3,4));
#210=IFCINDEXEDPOLYGONALFACE((5,8,7,6));
#211=IFCINDEXEDPOLYGONALFACE((1,5,6,2));
#212=IFCINDEXEDPOLYGONALFACE((2,6,7,3));
#213=IFCINDEXEDPOLYGONALFACE((3,7,8,4));
#214=IFCINDEXEDPOLYGONALFACE((4,8,5,1));
#215=IFCPOLYGONALFACESET(#208,$,(#209,#210,#211,#212,#213,#214),$);
#216=IFCSHAPEREPRESENTATION(#11,'Body','Tessellation',(#215));
#217=IFCPRODUCTDEFINITIONSHAPE($,$,(#216));
#218=IFCSHADINGDEVICE('33sOqghYb4dPPbwmpMAzSi',$,'SHD LIVING SOUTH',$,$,$,#228,$,$);
#219=IFCCARTESIANPOINTLIST3D(((0.6,-0.45,2.2),(2.85,-0.45,2.2),(2.85,0.02,2.2),(0.6,0.02,2.2),(0.6,-0.45,2.32),(2.85,-0.45,2.32),(2.85,0.02,2.32),(0.6,0.02,2.32)));
#220=IFCINDEXEDPOLYGONALFACE((1,2,3,4));
#221=IFCINDEXEDPOLYGONALFACE((5,8,7,6));
#222=IFCINDEXEDPOLYGONALFACE((1,5,6,2));
#223=IFCINDEXEDPOLYGONALFACE((2,6,7,3));
#224=IFCINDEXEDPOLYGONALFACE((3,7,8,4));
#225=IFCINDEXEDPOLYGONALFACE((4,8,5,1));
#226=IFCPOLYGONALFACESET(#219,$,(#220,#221,#222,#223,#224,#225),$);
#227=IFCSHAPEREPRESENTATION(#11,'Body','Tessellation',(#226));
#228=IFCPRODUCTDEFINITIONSHAPE($,$,(#227));
ENDSEC;
END-ISO-10303-21;
