ISO-10303-21;
HEADER;
FILE_DESCRIPTION(('ViewDefinition[DesignTransferView]'),'2;1');
FILE_NAME('/dev/null','2026-04-21T16:04:47+00:00',(''),(''),'IfcOpenShell 0.8.5','IfcOpenShell 0.8.5','Nobody');
FILE_SCHEMA(('IFC4'));
ENDSEC;
DATA;
#1=IFCPROJECT('2p$8Z7dcrF8OtP8hHmzSnK',$,'Georef Micro Office',$,$,$,$,(#10,#15),#5);
#2=IFCSIUNIT(*,.LENGTHUNIT.,.MILLI.,.METRE.);
#3=IFCSIUNIT(*,.AREAUNIT.,$,.SQUARE_METRE.);
#4=IFCSIUNIT(*,.VOLUMEUNIT.,$,.CUBIC_METRE.);
#5=IFCUNITASSIGNMENT((#3,#4,#2));
#10=IFCGEOMETRICREPRESENTATIONCONTEXT($,'Model',3,1.0000000000000001E-05,#28,$);
#11=IFCGEOMETRICREPRESENTATIONSUBCONTEXT('Body','Model',*,*,*,*,#10,$,.MODEL_VIEW.,$);
#15=IFCGEOMETRICREPRESENTATIONCONTEXT($,'Plan',2,1.0000000000000001E-05,#31,$);
#16=IFCGEOMETRICREPRESENTATIONSUBCONTEXT('Annotation','Plan',*,*,*,*,#15,$,.PLAN_VIEW.,$);
#17=IFCSITE('36Eq6SnaPDyxd8lVLCRicv',$,'Site',$,$,$,$,$,$,$,$,$,$,$);
#18=IFCBUILDING('1GI9ygYiz6AP6qNW7w5xXQ',$,'Building',$,$,$,$,$,$,$,$,$);
#19=IFCBUILDINGSTOREY('3UVhgTaTf7ZhJB$jvdBUj8',$,'Level 00',$,$,$,$,$,$,$);
#20=IFCRELAGGREGATES('1CldWcr8PFH9CYtHIMpq1E',$,$,$,#1,(#17));
#21=IFCRELAGGREGATES('0MxapJ3Rb6GegMURmSmA5F',$,$,$,#17,(#18));
#22=IFCRELAGGREGATES('0uPNne_w1FdPdUFVjVNJQb',$,$,$,#18,(#19));
#25=IFCCARTESIANPOINT((0.,0.,0.));
#26=IFCDIRECTION((0.,0.,1.));
#27=IFCDIRECTION((1.,0.,0.));
#28=IFCAXIS2PLACEMENT3D(#25,#26,#27);
#29=IFCCARTESIANPOINT((0.,0.));
#30=IFCDIRECTION((1.,0.));
#31=IFCAXIS2PLACEMENT2D(#29,#30);
#32=IFCWALL('18K7g_35L8Ewx6Qjc_O1Ob',$,'South Wall',$,$,#54,#48,$,$);
#33=IFCCARTESIANPOINTLIST2D(((0.,0.),(0.,200.),(8000.,200.),(8000.,0.),(0.,0.)));
#34=IFCINDEXEDPOLYCURVE(#33,$,.F.);
#35=IFCDIRECTION((0.,0.,1.));
#36=IFCARBITRARYCLOSEDPROFILEDEF(.AREA.,$,#34);
#37=IFCCARTESIANPOINT((0.,0.,0.));
#38=IFCDIRECTION((0.,0.,1.));
#39=IFCDIRECTION((1.,0.,0.));
#40=IFCAXIS2PLACEMENT3D(#37,#38,#39);
#41=IFCEXTRUDEDAREASOLID(#36,#40,#35,3000.);
#42=IFCSHAPEREPRESENTATION(#11,'Body','SweptSolid',(#41));
#48=IFCPRODUCTDEFINITIONSHAPE($,$,(#42));
#49=IFCRELCONTAINEDINSPATIALSTRUCTURE('1Nc3iybTn7nBb4cpCUvn0F',$,$,$,(#55,#77,#409,#221,#121,#99,#330,#143,#32),#19);
#50=IFCCARTESIANPOINT((0.,0.,0.));
#51=IFCDIRECTION((0.,0.,1.));
#52=IFCDIRECTION((1.,0.,0.));
#53=IFCAXIS2PLACEMENT3D(#50,#51,#52);
#54=IFCLOCALPLACEMENT($,#53);
#55=IFCWALL('3Fwx9U5n5FPBLrHxcXD7Pu',$,'East Wall',$,$,#76,#71,$,$);
#56=IFCCARTESIANPOINTLIST2D(((0.,0.),(0.,200.),(5000.,200.),(5000.,0.),(0.,0.)));
#57=IFCINDEXEDPOLYCURVE(#56,$,.F.);
#58=IFCDIRECTION((0.,0.,1.));
#59=IFCARBITRARYCLOSEDPROFILEDEF(.AREA.,$,#57);
#60=IFCCARTESIANPOINT((0.,0.,0.));
#61=IFCDIRECTION((0.,0.,1.));
#62=IFCDIRECTION((1.,0.,0.));
#63=IFCAXIS2PLACEMENT3D(#60,#61,#62);
#64=IFCEXTRUDEDAREASOLID(#59,#63,#58,3000.);
#65=IFCSHAPEREPRESENTATION(#11,'Body','SweptSolid',(#64));
#71=IFCPRODUCTDEFINITIONSHAPE($,$,(#65));
#72=IFCCARTESIANPOINT((8000.,0.,0.));
#73=IFCDIRECTION((0.,0.,1.));
#74=IFCDIRECTION((0.,1.,0.));
#75=IFCAXIS2PLACEMENT3D(#72,#73,#74);
#76=IFCLOCALPLACEMENT($,#75);
#77=IFCWALL('1oG3SinsD4rf5601jCt1iu',$,'North Wall',$,$,#98,#93,$,$);
#78=IFCCARTESIANPOINTLIST2D(((0.,0.),(0.,200.),(8000.,200.),(8000.,0.),(0.,0.)));
#79=IFCINDEXEDPOLYCURVE(#78,$,.F.);
#80=IFCDIRECTION((0.,0.,1.));
#81=IFCARBITRARYCLOSEDPROFILEDEF(.AREA.,$,#79);
#82=IFCCARTESIANPOINT((0.,0.,0.));
#83=IFCDIRECTION((0.,0.,1.));
#84=IFCDIRECTION((1.,0.,0.));
#85=IFCAXIS2PLACEMENT3D(#82,#83,#84);
#86=IFCEXTRUDEDAREASOLID(#81,#85,#80,3000.);
#87=IFCSHAPEREPRESENTATION(#11,'Body','SweptSolid',(#86));
#93=IFCPRODUCTDEFINITIONSHAPE($,$,(#87));
#94=IFCCARTESIANPOINT((8000.,5000.,0.));
#95=IFCDIRECTION((0.,0.,1.));
#96=IFCDIRECTION((-1.,0.,0.));
#97=IFCAXIS2PLACEMENT3D(#94,#95,#96);
#98=IFCLOCALPLACEMENT($,#97);
#99=IFCWALL('0C$R4tRiP46eXtvc65RInP',$,'West Wall',$,$,#120,#115,$,$);
#100=IFCCARTESIANPOINTLIST2D(((0.,0.),(0.,200.),(5000.,200.),(5000.,0.),(0.,0.)));
#101=IFCINDEXEDPOLYCURVE(#100,$,.F.);
#102=IFCDIRECTION((0.,0.,1.));
#103=IFCARBITRARYCLOSEDPROFILEDEF(.AREA.,$,#101);
#104=IFCCARTESIANPOINT((0.,0.,0.));
#105=IFCDIRECTION((0.,0.,1.));
#106=IFCDIRECTION((1.,0.,0.));
#107=IFCAXIS2PLACEMENT3D(#104,#105,#106);
#108=IFCEXTRUDEDAREASOLID(#103,#107,#102,3000.);
#109=IFCSHAPEREPRESENTATION(#11,'Body','SweptSolid',(#108));
#115=IFCPRODUCTDEFINITIONSHAPE($,$,(#109));
#116=IFCCARTESIANPOINT((0.,5000.,0.));
#117=IFCDIRECTION((0.,0.,1.));
#118=IFCDIRECTION((0.,-1.,0.));
#119=IFCAXIS2PLACEMENT3D(#116,#117,#118);
#120=IFCLOCALPLACEMENT($,#119);
#121=IFCWALL('16Lv_blcX23uOvs10sviMM',$,'WC Partition',$,$,#142,#137,$,$);
#122=IFCCARTESIANPOINTLIST2D(((0.,0.),(0.,120.),(2400.,120.),(2400.,0.),(0.,0.)));
#123=IFCINDEXEDPOLYCURVE(#122,$,.F.);
#124=IFCDIRECTION((0.,0.,1.));
#125=IFCARBITRARYCLOSEDPROFILEDEF(.AREA.,$,#123);
#126=IFCCARTESIANPOINT((0.,0.,0.));
#127=IFCDIRECTION((0.,0.,1.));
#128=IFCDIRECTION((1.,0.,0.));
#129=IFCAXIS2PLACEMENT3D(#126,#127,#128);
#130=IFCEXTRUDEDAREASOLID(#125,#129,#124,3000.);
#131=IFCSHAPEREPRESENTATION(#11,'Body','SweptSolid',(#130));
#137=IFCPRODUCTDEFINITIONSHAPE($,$,(#131));
#138=IFCCARTESIANPOINT((6000.,200.,0.));
#139=IFCDIRECTION((0.,0.,1.));
#140=IFCDIRECTION((0.,1.,0.));
#141=IFCAXIS2PLACEMENT3D(#138,#139,#140);
#142=IFCLOCALPLACEMENT($,#141);
#143=IFCSLAB('0vulVscJbFYwQfZBE$Lofd',$,'Floor Slab',$,$,#160,#150,$,$);
#144=IFCCARTESIANPOINTLIST2D(((0.,0.),(8000.,0.),(8000.,5000.),(0.,5000.),(0.,0.)));
#145=IFCINDEXEDPOLYCURVE(#144,$,$);
#146=IFCDIRECTION((0.,0.,1.));
#147=IFCARBITRARYCLOSEDPROFILEDEF(.AREA.,$,#145);
#148=IFCEXTRUDEDAREASOLID(#147,$,#146,200.);
#149=IFCSHAPEREPRESENTATION(#11,'Body','SweptSolid',(#148));
#150=IFCPRODUCTDEFINITIONSHAPE($,$,(#149));
#156=IFCCARTESIANPOINT((0.,0.,0.));
#157=IFCDIRECTION((0.,0.,1.));
#158=IFCDIRECTION((1.,0.,0.));
#159=IFCAXIS2PLACEMENT3D(#156,#157,#158);
#160=IFCLOCALPLACEMENT($,#159);
#161=IFCSPACE('36DVJ5SU1BkhtDQGFU_ZdT',$,'Office',$,$,#179,#168,$,.ELEMENT.,$,$);
#162=IFCCARTESIANPOINTLIST2D(((200.,200.),(5800.,200.),(5800.,4800.),(200.,4800.),(200.,200.)));
#163=IFCINDEXEDPOLYCURVE(#162,$,$);
#164=IFCDIRECTION((0.,0.,1.));
#165=IFCARBITRARYCLOSEDPROFILEDEF(.AREA.,$,#163);
#166=IFCEXTRUDEDAREASOLID(#165,$,#164,3000.);
#167=IFCSHAPEREPRESENTATION(#11,'Body','SweptSolid',(#166));
#168=IFCPRODUCTDEFINITIONSHAPE($,$,(#167));
#174=IFCRELAGGREGATES('0qbUUdf1nF_BnQorlFsn6v',$,$,$,#19,(#180,#161));
#175=IFCCARTESIANPOINT((0.,0.,0.));
#176=IFCDIRECTION((0.,0.,1.));
#177=IFCDIRECTION((1.,0.,0.));
#178=IFCAXIS2PLACEMENT3D(#175,#176,#177);
#179=IFCLOCALPLACEMENT($,#178);
#180=IFCSPACE('2bp53SsJH9NBYHcEhrBQI8',$,'WC',$,$,#197,#187,$,.ELEMENT.,$,$);
#181=IFCCARTESIANPOINTLIST2D(((6099.9999999999991,200.),(7800.,200.),(7800.,2400.),(6099.9999999999991,2400.),(6099.9999999999991,200.)));
#182=IFCINDEXEDPOLYCURVE(#181,$,$);
#183=IFCDIRECTION((0.,0.,1.));
#184=IFCARBITRARYCLOSEDPROFILEDEF(.AREA.,$,#182);
#185=IFCEXTRUDEDAREASOLID(#184,$,#183,3000.);
#186=IFCSHAPEREPRESENTATION(#11,'Body','SweptSolid',(#185));
#187=IFCPRODUCTDEFINITIONSHAPE($,$,(#186));
#193=IFCCARTESIANPOINT((0.,0.,0.));
#194=IFCDIRECTION((0.,0.,1.));
#195=IFCDIRECTION((1.,0.,0.));
#196=IFCAXIS2PLACEMENT3D(#193,#194,#195);
#197=IFCLOCALPLACEMENT($,#196);
#198=IFCOPENINGELEMENT('1dzsTBZx97B92bzcumB0Wj',$,'WC Door Opening',$,$,#220,#209,$,$);
#199=IFCCARTESIANPOINTLIST2D(((0.,0.),(0.,144.),(800.,144.),(800.,0.),(0.,0.)));
#200=IFCINDEXEDPOLYCURVE(#199,$,.F.);
#201=IFCDIRECTION((0.,0.,1.));
#202=IFCARBITRARYCLOSEDPROFILEDEF(.AREA.,$,#200);
#203=IFCCARTESIANPOINT((0.,0.,0.));
#204=IFCDIRECTION((0.,0.,1.));
#205=IFCDIRECTION((1.,0.,0.));
#206=IFCAXIS2PLACEMENT3D(#203,#204,#205);
#207=IFCEXTRUDEDAREASOLID(#202,#206,#201,2100.);
#208=IFCSHAPEREPRESENTATION(#11,'Body','SweptSolid',(#207));
#209=IFCPRODUCTDEFINITIONSHAPE($,$,(#208));
#215=IFCRELVOIDSELEMENT('1CC97Dryz2Dudgh$UGSift',$,$,$,#121,#198);
#216=IFCCARTESIANPOINT((750.,-11.999999999999567,0.));
#217=IFCDIRECTION((0.,0.,1.));
#218=IFCDIRECTION((1.,0.,0.));
#219=IFCAXIS2PLACEMENT3D(#216,#217,#218);
#220=IFCLOCALPLACEMENT(#142,#219);
#221=IFCDOOR('0DQP5mNCjBdftshMnUbeaE',$,'WC Door',$,$,#306,#295,$,2100.,800.,$,$,$);
#222=IFCCARTESIANPOINTLIST2D(((0.,0.),(0.,2.1000000000000001),(0.80000000000000004,2.1000000000000001),(0.80000000000000004,0.),(-24.199999999999999,0.),(-24.199999999999999,-22.899999999999999),(25.,-22.899999999999999),(25.,0.)));
#223=IFCINDEXEDPOLYCURVE(#222,(IFCLINEINDEX((1,2,3,4,5,6,7,8,1))),$);
#224=IFCARBITRARYCLOSEDPROFILEDEF(.AREA.,$,#223);
#225=IFCCARTESIANPOINT((0.,25.,0.));
#226=IFCDIRECTION((0.,-1.,0.));
#227=IFCDIRECTION((1.,0.,0.));
#228=IFCAXIS2PLACEMENT3D(#225,#226,#227);
#229=IFCDIRECTION((0.,0.,-1.));
#230=IFCEXTRUDEDAREASOLID(#224,#228,#229,25.);
#231=IFCCARTESIANPOINTLIST2D(((0.,0.),(0.,2.1000000000000001),(0.80000000000000004,2.1000000000000001),(0.80000000000000004,0.),(-49.200000000000003,0.),(-49.200000000000003,-47.899999999999999),(50.,-47.899999999999999),(50.,0.)));
#232=IFCINDEXEDPOLYCURVE(#231,(IFCLINEINDEX((1,2,3,4,5,6,7,8,1))),$);
#233=IFCARBITRARYCLOSEDPROFILEDEF(.AREA.,$,#232);
#234=IFCCARTESIANPOINT((0.,0.,0.));
#235=IFCDIRECTION((0.,-1.,0.));
#236=IFCDIRECTION((1.,0.,0.));
#237=IFCAXIS2PLACEMENT3D(#234,#235,#236);
#238=IFCDIRECTION((0.,0.,-1.));
#239=IFCEXTRUDEDAREASOLID(#233,#237,#238,25.);
#240=IFCCARTESIANPOINTLIST2D(((0.,0.),(-99.200000000000003,0.),(-99.200000000000003,100.),(0.,100.)));
#241=IFCINDEXEDPOLYCURVE(#240,(IFCLINEINDEX((1,2,3,4,1))),$);
#242=IFCARBITRARYCLOSEDPROFILEDEF(.AREA.,$,#241);
#243=IFCCARTESIANPOINT((50.,0.,0.));
#244=IFCDIRECTION((0.,0.,1.));
#245=IFCDIRECTION((1.,0.,0.));
#246=IFCAXIS2PLACEMENT3D(#243,#244,#245);
#247=IFCDIRECTION((0.,0.,1.));
#248=IFCEXTRUDEDAREASOLID(#242,#246,#247,25.);
#249=IFCCARTESIANPOINTLIST2D(((0.,0.),(0.,27.100000000000001),(50.799999999999997,27.100000000000001),(50.799999999999997,0.),(-24.200000000000003,0.),(-24.200000000000003,-47.899999999999999),(75.,-47.899999999999999),(75.,0.)));
#250=IFCINDEXEDPOLYCURVE(#249,(IFCLINEINDEX((1,2,3,4,5,6,7,8,1))),$);
#251=IFCARBITRARYCLOSEDPROFILEDEF(.AREA.,$,#250);
#252=IFCCARTESIANPOINT((-25.,-5.,0.));
#253=IFCDIRECTION((0.,-1.,0.));
#254=IFCDIRECTION((1.,0.,0.));
#255=IFCAXIS2PLACEMENT3D(#252,#253,#254);
#256=IFCDIRECTION((0.,0.,-1.));
#257=IFCEXTRUDEDAREASOLID(#251,#255,#256,5.);
#258=IFCCARTESIANPOINTLIST2D(((0.,0.),(0.,27.100000000000001),(50.799999999999997,27.100000000000001),(50.799999999999997,0.),(0.79999999999999716,0.),(0.79999999999999716,-22.899999999999999),(50.,-22.899999999999999),(50.,0.)));
#259=IFCINDEXEDPOLYCURVE(#258,(IFCLINEINDEX((1,2,3,4,5,6,7,8,1))),$);
#260=IFCARBITRARYCLOSEDPROFILEDEF(.AREA.,$,#259);
#261=IFCCARTESIANPOINT((-25.,50.,0.));
#262=IFCDIRECTION((0.,-1.,0.));
#263=IFCDIRECTION((1.,0.,0.));
#264=IFCAXIS2PLACEMENT3D(#261,#262,#263);
#265=IFCDIRECTION((0.,0.,-1.));
#266=IFCEXTRUDEDAREASOLID(#260,#264,#265,5.);
#267=IFCCARTESIANPOINTLIST2D(((0.,0.),(-49.200000000000003,0.),(-49.200000000000003,35.),(0.,35.)));
#268=IFCINDEXEDPOLYCURVE(#267,(IFCLINEINDEX((1,2,3,4,1))),$);
#269=IFCARBITRARYCLOSEDPROFILEDEF(.AREA.,$,#268);
#270=IFCCARTESIANPOINT((25.,25.,25.));
#271=IFCDIRECTION((0.,0.,1.));
#272=IFCDIRECTION((1.,0.,0.));
#273=IFCAXIS2PLACEMENT3D(#270,#271,#272);
#274=IFCDIRECTION((0.,0.,1.));
#275=IFCEXTRUDEDAREASOLID(#269,#273,#274,-47.899999999999999);
#276=IFCCARTESIANPOINTLIST2D(((0.,0.),(0.,-40.),(-120.,-40.),(-120.,-20.),(-20.,-20.),(-20.,0.)));
#277=IFCINDEXEDPOLYCURVE(#276,(IFCLINEINDEX((1,2,3,4,5,6,1))),$);
#278=IFCARBITRARYCLOSEDPROFILEDEF(.AREA.,$,#277);
#279=IFCCARTESIANPOINT((-74.199999999999989,25.,1015.));
#280=IFCDIRECTION((0.,0.,1.));
#281=IFCDIRECTION((1.,0.,0.));
#282=IFCAXIS2PLACEMENT3D(#279,#280,#281);
#283=IFCDIRECTION((0.,0.,1.));
#284=IFCEXTRUDEDAREASOLID(#278,#282,#283,20.);
#285=IFCEXTRUDEDAREASOLID(#286,#289,#293,20.);
#286=IFCARBITRARYCLOSEDPROFILEDEF(.AREA.,$,#287);
#287=IFCINDEXEDPOLYCURVE(#288,(IFCLINEINDEX((1,2,3,4,5,6,1))),$);
#288=IFCCARTESIANPOINTLIST2D(((0.,0.),(0.,40.),(-120.,40.),(-120.,20.),(-20.,20.),(-20.,0.)));
#289=IFCAXIS2PLACEMENT3D(#290,#291,#292);
#290=IFCCARTESIANPOINT((-74.199999999999989,60.,1015.));
#291=IFCDIRECTION((0.,0.,1.));
#292=IFCDIRECTION((1.,0.,0.));
#293=IFCDIRECTION((0.,0.,1.));
#294=IFCSHAPEREPRESENTATION(#11,'Body','SweptSolid',(#230,#239,#275,#284,#285,#248,#257,#266));
#295=IFCPRODUCTDEFINITIONSHAPE($,$,(#294));
#301=IFCRELFILLSELEMENT('3RqpxkmyT8QAekKtPerg$7',$,$,$,#198,#221);
#302=IFCCARTESIANPOINT((-1.1102230246251565E-13,47.000000000000597,0.));
#303=IFCDIRECTION((0.,0.,1.));
#304=IFCDIRECTION((1.,0.,0.));
#305=IFCAXIS2PLACEMENT3D(#302,#303,#304);
#306=IFCLOCALPLACEMENT(#220,#305);
#307=IFCOPENINGELEMENT('0naJaymmv9sASZzLfBFYib',$,'North Window Opening',$,$,#329,#318,$,$);
#308=IFCCARTESIANPOINTLIST2D(((0.,0.),(0.,240.),(1399.9999999999998,240.),(1399.9999999999998,0.),(0.,0.)));
#309=IFCINDEXEDPOLYCURVE(#308,$,.F.);
#310=IFCDIRECTION((0.,0.,1.));
#311=IFCARBITRARYCLOSEDPROFILEDEF(.AREA.,$,#309);
#312=IFCCARTESIANPOINT((0.,0.,0.));
#313=IFCDIRECTION((0.,0.,1.));
#314=IFCDIRECTION((1.,0.,0.));
#315=IFCAXIS2PLACEMENT3D(#312,#313,#314);
#316=IFCEXTRUDEDAREASOLID(#311,#315,#310,1200.);
#317=IFCSHAPEREPRESENTATION(#11,'Body','SweptSolid',(#316));
#318=IFCPRODUCTDEFINITIONSHAPE($,$,(#317));
#324=IFCRELVOIDSELEMENT('38aIOhOMP6He8Qp1FpPM2j',$,$,$,#77,#307);
#325=IFCCARTESIANPOINT((2500.,-19.999999999999574,1000.));
#326=IFCDIRECTION((0.,0.,1.));
#327=IFCDIRECTION((1.,0.,0.));
#328=IFCAXIS2PLACEMENT3D(#325,#326,#327);
#329=IFCLOCALPLACEMENT(#98,#328);
#330=IFCWINDOW('3jEfhXlLbDQPH$h3MAzgww',$,'North Window',$,$,#385,#374,$,1200.,1399.9999999999998,$,$,$);
#331=IFCCARTESIANPOINTLIST2D(((0.,0.),(1.3999999999999999,0.),(1.3999999999999999,1.2),(0.,1.2)));
#332=IFCINDEXEDPOLYCURVE(#331,(IFCLINEINDEX((1,2,3,4,1))),$);
#333=IFCCARTESIANPOINTLIST2D(((25.,25.),(-23.600000000000001,25.),(-23.600000000000001,-23.799999999999997),(25.,-23.799999999999997)));
#334=IFCINDEXEDPOLYCURVE(#333,(IFCLINEINDEX((1,2,3,4,1))),$);
#335=IFCARBITRARYPROFILEDEFWITHVOIDS(.AREA.,$,#332,(#334));
#336=IFCCARTESIANPOINT((0.,90.,0.));
#337=IFCDIRECTION((0.,-1.,0.));
#338=IFCDIRECTION((1.,0.,0.));
#339=IFCAXIS2PLACEMENT3D(#336,#337,#338);
#340=IFCDIRECTION((0.,0.,-1.));
#341=IFCEXTRUDEDAREASOLID(#335,#339,#340,10.);
#342=IFCCARTESIANPOINTLIST2D(((0.,0.),(1.3999999999999999,0.),(1.3999999999999999,1.2),(0.,1.2)));
#343=IFCINDEXEDPOLYCURVE(#342,(IFCLINEINDEX((1,2,3,4,1))),$);
#344=IFCCARTESIANPOINTLIST2D(((50.,50.),(-48.599999999999994,50.),(-48.599999999999994,-48.799999999999997),(50.,-48.799999999999997)));
#345=IFCINDEXEDPOLYCURVE(#344,(IFCLINEINDEX((1,2,3,4,1))),$);
#346=IFCARBITRARYPROFILEDEFWITHVOIDS(.AREA.,$,#343,(#345));
#347=IFCCARTESIANPOINT((0.,50.,0.));
#348=IFCDIRECTION((0.,-1.,0.));
#349=IFCDIRECTION((1.,0.,0.));
#350=IFCAXIS2PLACEMENT3D(#347,#348,#349);
#351=IFCDIRECTION((0.,0.,-1.));
#352=IFCEXTRUDEDAREASOLID(#346,#350,#351,40.);
#353=IFCCARTESIANPOINTLIST2D(((0.,0.),(-48.600000000000001,0.),(-48.600000000000001,-48.799999999999997),(0.,-48.799999999999997)));
#354=IFCINDEXEDPOLYCURVE(#353,(IFCLINEINDEX((1,2,3,4,1))),$);
#355=IFCCARTESIANPOINTLIST2D(((35.,35.),(-83.599999999999994,35.),(-83.599999999999994,-83.799999999999997),(35.,-83.799999999999997)));
#356=IFCINDEXEDPOLYCURVE(#355,(IFCLINEINDEX((1,2,3,4,1))),$);
#357=IFCARBITRARYPROFILEDEFWITHVOIDS(.AREA.,$,#354,(#356));
#358=IFCCARTESIANPOINT((25.,90.,25.));
#359=IFCDIRECTION((0.,-1.,0.));
#360=IFCDIRECTION((1.,0.,0.));
#361=IFCAXIS2PLACEMENT3D(#358,#359,#360);
#362=IFCDIRECTION((0.,0.,-1.));
#363=IFCEXTRUDEDAREASOLID(#357,#361,#362,35.);
#364=IFCINDEXEDPOLYCURVE(#365,(IFCLINEINDEX((1,2,3,4,1))),$);
#365=IFCCARTESIANPOINTLIST2D(((35.,35.),(-83.599999999999994,35.),(-83.599999999999994,-83.799999999999997),(35.,-83.799999999999997)));
#366=IFCARBITRARYCLOSEDPROFILEDEF(.AREA.,$,#364);
#367=IFCCARTESIANPOINT((25.,102.5,25.));
#368=IFCDIRECTION((0.,-1.,0.));
#369=IFCDIRECTION((1.,0.,0.));
#370=IFCAXIS2PLACEMENT3D(#367,#368,#369);
#371=IFCDIRECTION((0.,0.,-1.));
#372=IFCEXTRUDEDAREASOLID(#366,#370,#371,10.);
#373=IFCSHAPEREPRESENTATION(#11,'Body','SweptSolid',(#341,#352,#363,#372));
#374=IFCPRODUCTDEFINITIONSHAPE($,$,(#373));
#380=IFCRELFILLSELEMENT('0X0pt5ltf3v8YpzCXptjSF',$,$,$,#307,#330);
#381=IFCCARTESIANPOINT((0.,95.000000000000639,0.));
#382=IFCDIRECTION((0.,0.,1.));
#383=IFCDIRECTION((1.,0.,0.));
#384=IFCAXIS2PLACEMENT3D(#381,#382,#383);
#385=IFCLOCALPLACEMENT(#329,#384);
#386=IFCOPENINGELEMENT('253Q63dvj4KfnM$3hm_KbO',$,'East Window Opening',$,$,#408,#397,$,$);
#387=IFCCARTESIANPOINTLIST2D(((0.,0.),(0.,240.),(1000.,240.),(1000.,0.),(0.,0.)));
#388=IFCINDEXEDPOLYCURVE(#387,$,.F.);
#389=IFCDIRECTION((0.,0.,1.));
#390=IFCARBITRARYCLOSEDPROFILEDEF(.AREA.,$,#388);
#391=IFCCARTESIANPOINT((0.,0.,0.));
#392=IFCDIRECTION((0.,0.,1.));
#393=IFCDIRECTION((1.,0.,0.));
#394=IFCAXIS2PLACEMENT3D(#391,#392,#393);
#395=IFCEXTRUDEDAREASOLID(#390,#394,#389,1200.);
#396=IFCSHAPEREPRESENTATION(#11,'Body','SweptSolid',(#395));
#397=IFCPRODUCTDEFINITIONSHAPE($,$,(#396));
#403=IFCRELVOIDSELEMENT('12OmrbwI9EdeFAjasNYfhF',$,$,$,#55,#386);
#404=IFCCARTESIANPOINT((2000.,-19.999999999999574,1100.));
#405=IFCDIRECTION((0.,0.,1.));
#406=IFCDIRECTION((1.,0.,0.));
#407=IFCAXIS2PLACEMENT3D(#404,#405,#406);
#408=IFCLOCALPLACEMENT(#76,#407);
#409=IFCWINDOW('1qa5RFDy15oh3ldpfmoysQ',$,'East Window',$,$,#464,#453,$,1200.,1000.,$,$,$);
#410=IFCCARTESIANPOINTLIST2D(((0.,0.),(1.,0.),(1.,1.2),(0.,1.2)));
#411=IFCINDEXEDPOLYCURVE(#410,(IFCLINEINDEX((1,2,3,4,1))),$);
#412=IFCCARTESIANPOINTLIST2D(((25.,25.),(-24.,25.),(-24.,-23.799999999999997),(25.,-23.799999999999997)));
#413=IFCINDEXEDPOLYCURVE(#412,(IFCLINEINDEX((1,2,3,4,1))),$);
#414=IFCARBITRARYPROFILEDEFWITHVOIDS(.AREA.,$,#411,(#413));
#415=IFCCARTESIANPOINT((0.,90.,0.));
#416=IFCDIRECTION((0.,-1.,0.));
#417=IFCDIRECTION((1.,0.,0.));
#418=IFCAXIS2PLACEMENT3D(#415,#416,#417);
#419=IFCDIRECTION((0.,0.,-1.));
#420=IFCEXTRUDEDAREASOLID(#414,#418,#419,10.);
#421=IFCCARTESIANPOINTLIST2D(((0.,0.),(1.,0.),(1.,1.2),(0.,1.2)));
#422=IFCINDEXEDPOLYCURVE(#421,(IFCLINEINDEX((1,2,3,4,1))),$);
#423=IFCCARTESIANPOINTLIST2D(((50.,50.),(-49.,50.),(-49.,-48.799999999999997),(50.,-48.799999999999997)));
#424=IFCINDEXEDPOLYCURVE(#423,(IFCLINEINDEX((1,2,3,4,1))),$);
#425=IFCARBITRARYPROFILEDEFWITHVOIDS(.AREA.,$,#422,(#424));
#426=IFCCARTESIANPOINT((0.,50.,0.));
#427=IFCDIRECTION((0.,-1.,0.));
#428=IFCDIRECTION((1.,0.,0.));
#429=IFCAXIS2PLACEMENT3D(#426,#427,#428);
#430=IFCDIRECTION((0.,0.,-1.));
#431=IFCEXTRUDEDAREASOLID(#425,#429,#430,40.);
#432=IFCCARTESIANPOINTLIST2D(((0.,0.),(-49.,0.),(-49.,-48.799999999999997),(0.,-48.799999999999997)));
#433=IFCINDEXEDPOLYCURVE(#432,(IFCLINEINDEX((1,2,3,4,1))),$);
#434=IFCCARTESIANPOINTLIST2D(((35.,35.),(-84.,35.),(-84.,-83.799999999999997),(35.,-83.799999999999997)));
#435=IFCINDEXEDPOLYCURVE(#434,(IFCLINEINDEX((1,2,3,4,1))),$);
#436=IFCARBITRARYPROFILEDEFWITHVOIDS(.AREA.,$,#433,(#435));
#437=IFCCARTESIANPOINT((25.,90.,25.));
#438=IFCDIRECTION((0.,-1.,0.));
#439=IFCDIRECTION((1.,0.,0.));
#440=IFCAXIS2PLACEMENT3D(#437,#438,#439);
#441=IFCDIRECTION((0.,0.,-1.));
#442=IFCEXTRUDEDAREASOLID(#436,#440,#441,35.);
#443=IFCINDEXEDPOLYCURVE(#444,(IFCLINEINDEX((1,2,3,4,1))),$);
#444=IFCCARTESIANPOINTLIST2D(((35.,35.),(-84.,35.),(-84.,-83.799999999999997),(35.,-83.799999999999997)));
#445=IFCARBITRARYCLOSEDPROFILEDEF(.AREA.,$,#443);
#446=IFCCARTESIANPOINT((25.,102.5,25.));
#447=IFCDIRECTION((0.,-1.,0.));
#448=IFCDIRECTION((1.,0.,0.));
#449=IFCAXIS2PLACEMENT3D(#446,#447,#448);
#450=IFCDIRECTION((0.,0.,-1.));
#451=IFCEXTRUDEDAREASOLID(#445,#449,#450,10.);
#452=IFCSHAPEREPRESENTATION(#11,'Body','SweptSolid',(#420,#431,#442,#451));
#453=IFCPRODUCTDEFINITIONSHAPE($,$,(#452));
#459=IFCRELFILLSELEMENT('2PvbJNpwLEFuAkecO9qAdV',$,$,$,#386,#409);
#460=IFCCARTESIANPOINT((0.,94.999999999999744,0.));
#461=IFCDIRECTION((0.,0.,1.));
#462=IFCDIRECTION((1.,0.,0.));
#463=IFCAXIS2PLACEMENT3D(#460,#461,#462);
#464=IFCLOCALPLACEMENT(#408,#463);
ENDSEC;
END-ISO-10303-21;
