<COLLADA xmlns="http://www.collada.org/2005/11/COLLADASchema" version="1.4.1">
  <asset>
    <created>2026-04-23T23:23:09.072229</created>
    <modified>2026-04-23T23:23:09.072238</modified>
    <up_axis>Y_UP</up_axis>
  </asset>
  <library_effects>
    <effect id="steel-eff" name="steel-eff">
      <profile_COMMON>
        <technique sid="common">
          <lambert>
            <emission>
              <color>0.0 0.0 0.0 1.0</color>
            </emission>
            <ambient>
              <color>0.0 0.0 0.0 1.0</color>
            </ambient>
            <diffuse>
              <color>0.68 0.7 0.74 1.0</color>
            </diffuse>
            <specular>
              <color>0.0 0.0 0.0 1.0</color>
            </specular>
            <shininess>
              <float>0.0</float>
            </shininess>
            <reflective>
              <color>0.0 0.0 0.0 1.0</color>
            </reflective>
            <reflectivity>
              <float>0.0</float>
            </reflectivity>
            <transparent>
              <color>0.0 0.0 0.0 1.0</color>
            </transparent>
            <transparency>
              <float>1.0</float>
            </transparency>
          </lambert>
        </technique>
        <extra>
          <technique profile="GOOGLEEARTH">
            <double_sided>0</double_sided>
          </technique>
        </extra>
      </profile_COMMON>
    </effect>
    <effect id="alum-eff" name="alum-eff">
      <profile_COMMON>
        <technique sid="common">
          <lambert>
            <emission>
              <color>0.0 0.0 0.0 1.0</color>
            </emission>
            <ambient>
              <color>0.0 0.0 0.0 1.0</color>
            </ambient>
            <diffuse>
              <color>0.82 0.82 0.85 1.0</color>
            </diffuse>
            <specular>
              <color>0.0 0.0 0.0 1.0</color>
            </specular>
            <shininess>
              <float>0.0</float>
            </shininess>
            <reflective>
              <color>0.0 0.0 0.0 1.0</color>
            </reflective>
            <reflectivity>
              <float>0.0</float>
            </reflectivity>
            <transparent>
              <color>0.0 0.0 0.0 1.0</color>
            </transparent>
            <transparency>
              <float>1.0</float>
            </transparency>
          </lambert>
        </technique>
        <extra>
          <technique profile="GOOGLEEARTH">
            <double_sided>0</double_sided>
          </technique>
        </extra>
      </profile_COMMON>
    </effect>
    <effect id="pin-eff" name="pin-eff">
      <profile_COMMON>
        <technique sid="common">
          <lambert>
            <emission>
              <color>0.0 0.0 0.0 1.0</color>
            </emission>
            <ambient>
              <color>0.0 0.0 0.0 1.0</color>
            </ambient>
            <diffuse>
              <color>0.5 0.52 0.56 1.0</color>
            </diffuse>
            <specular>
              <color>0.0 0.0 0.0 1.0</color>
            </specular>
            <shininess>
              <float>0.0</float>
            </shininess>
            <reflective>
              <color>0.0 0.0 0.0 1.0</color>
            </reflective>
            <reflectivity>
              <float>0.0</float>
            </reflectivity>
            <transparent>
              <color>0.0 0.0 0.0 1.0</color>
            </transparent>
            <transparency>
              <float>1.0</float>
            </transparency>
          </lambert>
        </technique>
        <extra>
          <technique profile="GOOGLEEARTH">
            <double_sided>0</double_sided>
          </technique>
        </extra>
      </profile_COMMON>
    </effect>
  </library_effects>
  <library_geometries>
    <geometry id="geom-piston" name="Piston">
      <mesh>
        <source id="geom-piston-pos-array">
          <float_array count="630" id="geom-piston-pos-array-array">-27.76737 -21.30665 0 -21.30665 -27.76737 0 -24.74874 -24.74874 0 -32.33578 -13.39392 0 -33.8074 -9.058666 0 -30.31089 -17.5 0 -34.70057 -4.568417 0 -13.39392 -32.33578 0 -17.5 -30.31089 0 -9.058666 -33.8074 0 -4.568417 -34.70057 0 -6.429396e-15 -35 0 -7.933533 -34.03121 18.91239 -7.071068 -34.20276 17.92893 -6.087614 -34.39838 17.06647 -4.568417 -34.70057 16.12691 -5 -34.61472 16.33975 -3.826834 -34.74918 15.7612 -2.588191 -34.83036 15.34074 -1.305262 -34.91445 15.08555 -6.429396e-15 -35 15 -9.058666 -33.8074 20.8079 -9.238795 -33.74626 21.17317 -9.659258 -33.60353 22.41181 -9.914449 -33.51691 23.69474 -10 -33.48787 25 -9.914449 -33.51691 26.30526 -9.659258 -33.60353 27.58819 -9.238795 -33.74626 28.82683 -9.058666 -33.8074 29.1921 -8.660254 -33.88665 20 -7.933533 -34.03121 31.08761 -8.660254 -33.88665 30 -7.071068 -34.20276 32.07107 -6.087614 -34.39838 32.93353 -5 -34.61472 33.66026 -4.568417 -34.70057 33.87309 -3.826834 -34.74918 34.2388 -2.588191 -34.83036 34.65926 -1.305262 -34.91445 34.91445 -27.76737 -21.30665 80 -21.30665 -27.76737 80 -24.74874 -24.74874 80 -32.33578 -13.39392 80 -33.8074 -9.058666 80 -30.31089 -17.5 80 -34.70057 -4.568417 80 -13.39392 -32.33578 80 -17.5 -30.31089 80 -9.058666 -33.8074 80 -4.568417 -34.70057 80 -6.429396e-15 -35 80 -35 4.286264e-15 0 -34.70057 4.568417 0 -33.8074 9.058666 0 -32.33578 13.39392 0 -30.31089 17.5 0 -27.76737 21.30665 0 -24.74874 24.74874 0 -21.30665 27.76737 0 -17.5 30.31089 0 -13.39392 32.33578 0 -9.058666 33.8074 0 -4.568417 34.70057 0 -7.933533 34.03121 18.91239 -7.071068 34.20276 17.92893 -6.087614 34.39838 17.06647 -4.568417 34.70057 16.12691 -5 34.61472 16.33975 -3.826834 34.74918 15.7612 -2.588191 34.83036 15.34074 -1.305262 34.91445 15.08555 -9.058666 33.8074 20.8079 -9.238795 33.74626 21.17317 -9.659258 33.60353 22.41181 -9.914449 33.51691 23.69474 -10 33.48787 25 -9.914449 33.51691 26.30526 -9.659258 33.60353 27.58819 -9.238795 33.74626 28.82683 -9.058666 33.8074 29.1921 -8.660254 33.88665 20 -8.660254 33.88665 30 -7.933533 34.03121 31.08761 -7.071068 34.20276 32.07107 -6.087614 34.39838 32.93353 -5 34.61472 33.66026 -4.568417 34.70057 33.87309 -3.826834 34.74918 34.2388 -2.588191 34.83036 34.65926 -1.305262 34.91445 34.91445 -35 4.286264e-15 80 -34.70057 4.568417 80 -33.8074 9.058666 80 -32.33578 13.39392 80 -30.31089 17.5 80 -27.76737 21.30665 80 -24.74874 24.74874 80 -21.30665 27.76737 80 -17.5 30.31089 80 -13.39392 32.33578 80 -9.058666 33.8074 80 -4.568417 34.70057 80 4.568417 -34.70057 0 1.305262 -34.91445 15.08555 2.588191 -34.83036 15.34074 3.826834 -34.74918 15.7612 4.568417 -34.70057 16.12691 5 -34.61472 16.33975 6.087614 -34.39838 17.06647 7.071068 -34.20276 17.92893 7.933533 -34.03121 18.91239 9.058666 -33.8074 0 13.39392 -32.33578 0 8.660254 -33.88665 20 1.305262 -34.91445 34.91445 2.588191 -34.83036 34.65926 3.826834 -34.74918 34.2388 6.123234e-16 -35 35 5 -34.61472 33.66026 4.568417 -34.70057 33.87309 6.087614 -34.39838 32.93353 7.071068 -34.20276 32.07107 7.933533 -34.03121 31.08761 8.660254 -33.88665 30 9.058666 -33.8074 20.8079 9.238795 -33.74626 21.17317 9.659258 -33.60353 22.41181 9.914449 -33.51691 23.69474 10 -33.48787 25 9.914449 -33.51691 26.30526 9.659258 -33.60353 27.58819 9.238795 -33.74626 28.82683 9.058666 -33.8074 29.1921 17.5 -30.31089 0 21.30665 -27.76737 0 24.74874 -24.74874 0 27.76737 -21.30665 0 30.31089 -17.5 0 32.33578 -13.39392 0 33.8074 -9.058666 0 34.70057 -4.568417 0 4.568417 -34.70057 80 9.058666 -33.8074 80 13.39392 -32.33578 80 17.5 -30.31089 80 21.30665 -27.76737 80 24.74874 -24.74874 80 27.76737 -21.30665 80 30.31089 -17.5 80 32.33578 -13.39392 80 33.8074 -9.058666 80 34.70057 -4.568417 80 0 0 0 2.143132e-15 35 0 4.568417 34.70057 0 2.143132e-15 35 15 1.305262 34.91445 15.08555 2.588191 34.83036 15.34074 3.826834 34.74918 15.7612 4.568417 34.70057 16.12691 5 34.61472 16.33975 6.087614 34.39838 17.06647 7.071068 34.20276 17.92893 7.933533 34.03121 18.91239 9.058666 33.8074 0 13.39392 32.33578 0 8.660254 33.88665 20 1.305262 34.91445 34.91445 2.588191 34.83036 34.65926 3.826834 34.74918 34.2388 6.123234e-16 35 35 5 34.61472 33.66026 4.568417 34.70057 33.87309 6.087614 34.39838 32.93353 7.071068 34.20276 32.07107 8.660254 33.88665 30 7.933533 34.03121 31.08761 9.058666 33.8074 20.8079 9.238795 33.74626 21.17317 9.659258 33.60353 22.41181 9.914449 33.51691 23.69474 10 33.48787 25 9.914449 33.51691 26.30526 9.659258 33.60353 27.58819 9.238795 33.74626 28.82683 9.058666 33.8074 29.1921 35 0 0 34.70057 4.568417 0 33.8074 9.058666 0 32.33578 13.39392 0 24.74874 24.74874 0 17.5 30.31089 0 21.30665 27.76737 0 27.76737 21.30665 0 30.31089 17.5 0 0 0 80 2.143132e-15 35 80 4.568417 34.70057 80 9.058666 33.8074 80 13.39392 32.33578 80 35 0 80 34.70057 4.568417 80 33.8074 9.058666 80 32.33578 13.39392 80 24.74874 24.74874 80 17.5 30.31089 80 21.30665 27.76737 80 27.76737 21.30665 80 30.31089 17.5 80</float_array>
          <technique_common>
            <accessor count="210" source="#geom-piston-pos-array-array" stride="3">
              <param type="float" name="X" />
              <param type="float" name="Y" />
              <param type="float" name="Z" />
            </accessor>
          </technique_common>
        </source>
        <vertices id="geom-piston-pos-array-vertices">
          <input semantic="POSITION" source="#geom-piston-pos-array" />
        </vertices>
        <triangles count="420" material="matref-alum">
          <input offset="0" semantic="VERTEX" source="#geom-piston-pos-array-vertices" />
          <p>0 2 40 0 45 5 1 8 41 1 42 2 0 153 2 3 153 5 0 5 153 3 4 153 4 6 153 6 52 153 3 5 43 3 44 4 4 46 6 6 91 52 9 30 21 9 22 23 9 21 22 9 23 24 9 24 25 1 2 153 1 153 8 7 8 153 9 10 14 10 11 19 9 13 12 9 14 13 9 12 30 10 16 14 10 15 16 10 17 15 10 18 17 10 19 18 11 20 19 7 153 9 9 153 10 10 153 11 7 48 8 7 9 47 9 25 47 0 40 45 1 41 42 8 48 41 2 42 40 5 45 43 3 43 44 4 44 46 6 46 91 40 42 196 43 45 196 40 196 45 43 196 44 44 196 46 46 196 91 47 25 26 47 26 27 47 27 28 47 28 29 49 29 32 7 47 48 49 32 31 49 31 33 49 33 34 49 34 35 49 35 36 50 36 37 50 37 38 50 38 39 50 39 118 47 29 49 41 196 42 41 48 196 47 196 48 49 36 50 50 118 51 47 49 196 49 50 196 50 51 196 52 53 153 53 54 153 54 55 153 55 56 153 56 57 153 57 58 153 52 92 53 53 93 54 54 94 55 55 95 56 56 96 57 57 97 58 58 98 59 59 99 60 58 59 153 59 60 153 60 61 153 61 72 62 61 73 72 61 74 73 62 72 81 61 75 74 61 76 75 61 62 153 62 63 153 63 154 153 62 67 63 63 71 154 62 64 65 62 66 68 62 65 66 62 81 64 62 68 67 63 67 69 63 69 70 63 70 71 154 71 156 60 100 61 61 101 76 52 91 92 53 92 93 54 93 94 55 94 95 91 196 92 92 196 93 93 196 94 94 196 95 95 196 96 96 196 97 56 95 96 57 96 97 58 97 98 59 98 99 101 77 76 101 78 77 101 79 78 101 80 79 101 82 80 60 99 100 61 100 101 101 83 82 102 84 83 102 85 84 102 86 85 102 87 86 102 88 87 197 89 88 197 90 89 197 171 90 97 196 98 98 196 99 99 196 100 100 196 101 101 196 102 102 196 197 101 102 83 102 197 88 11 103 104 103 112 107 11 104 20 103 105 104 103 106 105 103 107 106 112 108 107 112 109 108 112 110 109 112 111 110 112 114 111 11 153 103 103 153 112 112 153 113 112 113 125 112 125 114 113 126 125 113 127 126 113 128 127 113 129 128 113 153 134 134 153 135 135 153 136 113 134 144 113 143 129 134 135 145 135 136 146 136 137 147 137 138 148 136 153 137 137 153 138 138 153 139 139 153 140 140 153 141 141 153 187 138 139 149 139 140 150 140 141 151 141 187 152 51 118 115 51 115 116 51 116 117 142 117 120 142 120 119 142 119 121 142 121 122 142 122 123 143 123 124 143 130 129 143 131 130 143 133 132 143 132 131 143 124 133 113 144 143 134 145 144 51 117 142 142 123 143 51 142 196 142 143 196 143 144 196 144 145 196 145 146 196 146 147 196 135 146 145 136 147 146 137 148 147 138 149 148 139 150 149 140 151 150 141 152 151 152 187 201 147 148 196 148 149 196 149 150 196 150 151 196 151 152 196 152 201 196 153 154 155 153 155 165 153 165 166 154 157 155 155 162 165 154 156 157 155 157 158 155 158 159 155 159 160 155 160 161 155 161 162 165 162 163 165 163 164 165 164 167 153 166 192 153 192 193 153 193 191 165 167 178 165 178 179 165 179 180 165 180 181 165 181 182 165 200 166 166 206 192 165 182 200 153 188 187 153 189 188 153 190 189 153 194 195 153 195 190 153 191 194 187 188 201 188 189 202 189 190 203 190 195 204 191 193 205 192 207 193 194 209 195 191 208 194 198 168 171 198 169 168 198 170 169 198 173 170 199 172 173 199 176 177 199 175 174 199 174 172 199 177 175 200 182 183 200 183 184 199 186 176 200 184 185 200 185 186 166 200 206 196 198 197 196 199 198 196 200 199 197 198 171 198 199 173 196 206 200 196 207 206 196 205 207 199 200 186 188 202 201 189 203 202 190 204 203 195 209 204 196 201 202 196 202 203 196 203 204 196 209 208 196 204 209 196 208 205 191 205 208 192 206 207 193 207 205 194 208 209 30 12 64 12 13 65 13 14 66 15 69 16 14 16 68 15 17 69 17 18 70 18 19 71 19 20 156 21 30 81 21 81 22 23 22 73 25 24 75 24 23 74 26 25 76 27 26 77 28 27 78 29 28 79 29 79 32 31 32 82 33 31 83 34 33 84 35 34 85 36 35 86 36 86 37 38 37 88 39 38 89 39 90 118 30 64 81 12 65 64 13 66 65 14 68 66 67 16 69 67 68 16 70 69 17 18 71 70 19 156 71 72 73 22 72 22 81 23 73 74 25 75 76 24 74 75 76 77 26 77 78 27 78 79 28 80 32 79 80 82 32 82 83 31 83 84 33 84 85 34 85 86 35 87 37 86 87 88 37 88 89 38 89 90 39 118 90 171 20 104 157 104 105 158 105 106 159 107 161 106 107 108 161 108 109 162 109 110 163 110 111 164 111 114 167 171 115 118 116 115 168 117 116 169 120 117 170 121 119 172 120 170 119 122 121 174 123 122 175 124 123 177 125 179 114 125 126 179 126 127 180 127 128 181 128 129 182 130 131 184 129 130 183 131 132 185 133 176 132 133 124 176 157 156 20 158 157 104 159 158 105 160 159 106 160 106 161 162 161 108 163 162 109 164 163 110 167 164 111 115 171 168 168 169 116 117 169 170 173 172 119 173 119 170 121 172 174 174 175 122 123 175 177 124 177 176 178 167 114 178 114 179 180 179 126 181 180 127 182 181 128 130 184 183 129 183 182 131 185 184 186 132 176 186 185 132</p>
        </triangles>
      </mesh>
    </geometry>
    <geometry id="geom-rod" name="ConnectingRod">
      <mesh>
        <source id="geom-rod-pos-array">
          <float_array count="660" id="geom-rod-pos-array-array">-8.503115 -7.5 18.02167 -9.146166 -7.5 18.88873 -9.701134 -7.5 19.81464 -10.16267 -7.5 20.79048 -10.52634 -7.5 21.80687 -10.78864 -7.5 22.85401 -10.94703 -7.5 23.92181 -11 -7.5 25 -10.94703 -7.5 26.07819 -10.78864 -7.5 27.14599 -10.52634 -7.5 28.19313 -10.16267 -7.5 29.20952 -9.701134 -7.5 30.18536 -9.146166 -7.5 31.11127 -8.503115 -7.5 31.97833 -7.778174 -7.5 32.77818 -6.978326 -7.5 33.50312 -6.111272 -7.5 34.14616 -5.185364 -7.5 34.70113 -4.209518 -7.5 35.16267 -3.193131 -7.5 35.52634 -2.145993 -7.5 35.78864 -1.078189 -7.5 35.94703 6.735557e-16 -7.5 36 1.078189 -7.5 35.94703 2.145993 -7.5 35.78864 3.193131 -7.5 35.52634 4.209518 -7.5 35.16267 5.185364 -7.5 34.70113 6.111272 -7.5 34.14616 6.978326 -7.5 33.50312 7.778174 -7.5 32.77818 8.503115 -7.5 31.97833 9.146166 -7.5 31.11127 9.701134 -7.5 30.18536 10.16267 -7.5 29.20952 10.52634 -7.5 28.19313 10.78864 -7.5 27.14599 10.94703 -7.5 26.07819 11 -7.5 25 10.94703 -7.5 23.92181 10.78864 -7.5 22.85401 10.52634 -7.5 21.80687 10.16267 -7.5 20.79048 9.701134 -7.5 19.81464 9.146166 -7.5 18.88873 8.503115 -7.5 18.02167 7.778174 -7.5 17.22182 7.5 -7.5 16.9697 7.5 -7.5 -91.1634 9.567086 -7.5 -91.90302 11.78492 -7.5 -92.95197 13.88926 -7.5 -94.21326 15.85983 -7.5 -95.67474 17.67767 -7.5 -97.32233 19.32526 -7.5 -99.14017 20.78674 -7.5 -101.1107 22.04803 -7.5 -103.2151 23.09699 -7.5 -105.4329 23.92351 -7.5 -107.7429 24.51963 -7.5 -110.1227 24.87962 -7.5 -112.5496 25 -7.5 -115 24.87962 -7.5 -117.4504 24.51963 -7.5 -119.8773 23.92351 -7.5 -122.2571 23.09699 -7.5 -124.5671 22.04803 -7.5 -126.7849 20.78674 -7.5 -128.8893 19.32526 -7.5 -130.8598 17.67767 -7.5 -132.6777 15.85983 -7.5 -134.3253 13.88926 -7.5 -135.7867 11.78492 -7.5 -137.048 9.567086 -7.5 -138.097 7.257117 -7.5 -138.9235 4.877258 -7.5 -139.5196 2.450428 -7.5 -139.8796 -4.592425e-15 -7.5 -140 -2.450428 -7.5 -139.8796 -4.877258 -7.5 -139.5196 -7.257117 -7.5 -138.9235 -9.567086 -7.5 -138.097 -11.78492 -7.5 -137.048 -13.88926 -7.5 -135.7867 -15.85983 -7.5 -134.3253 -17.67767 -7.5 -132.6777 -19.32526 -7.5 -130.8598 -20.78674 -7.5 -128.8893 -22.04803 -7.5 -126.7849 -23.09699 -7.5 -124.5671 -23.92351 -7.5 -122.2571 -24.51963 -7.5 -119.8773 -24.87962 -7.5 -117.4504 -25 -7.5 -115 -24.87962 -7.5 -112.5496 -24.51963 -7.5 -110.1227 -23.92351 -7.5 -107.7429 -23.09699 -7.5 -105.4329 -22.04803 -7.5 -103.2151 -20.78674 -7.5 -101.1107 -19.32526 -7.5 -99.14017 -17.67767 -7.5 -97.32233 -15.85983 -7.5 -95.67474 -13.88926 -7.5 -94.21326 -11.78492 -7.5 -92.95197 -9.567086 -7.5 -91.90302 -7.5 -7.5 -91.1634 -7.5 -7.5 16.9697 -7.778174 -7.5 17.22182 -8.503115 7.5 18.02167 -9.146166 7.5 18.88873 -9.701134 7.5 19.81464 -10.16267 7.5 20.79048 -10.52634 7.5 21.80687 -10.78864 7.5 22.85401 -10.94703 7.5 23.92181 -11 7.5 25 -10.94703 7.5 26.07819 -10.78864 7.5 27.14599 -10.52634 7.5 28.19313 -10.16267 7.5 29.20952 -9.701134 7.5 30.18536 -9.146166 7.5 31.11127 -8.503115 7.5 31.97833 -7.778174 7.5 32.77818 -6.978326 7.5 33.50312 -6.111272 7.5 34.14616 -5.185364 7.5 34.70113 -4.209518 7.5 35.16267 -3.193131 7.5 35.52634 -2.145993 7.5 35.78864 -1.078189 7.5 35.94703 6.735557e-16 7.5 36 1.078189 7.5 35.94703 2.145993 7.5 35.78864 3.193131 7.5 35.52634 4.209518 7.5 35.16267 5.185364 7.5 34.70113 6.111272 7.5 34.14616 6.978326 7.5 33.50312 7.778174 7.5 32.77818 8.503115 7.5 31.97833 9.146166 7.5 31.11127 9.701134 7.5 30.18536 10.16267 7.5 29.20952 10.52634 7.5 28.19313 10.78864 7.5 27.14599 10.94703 7.5 26.07819 11 7.5 25 10.94703 7.5 23.92181 10.78864 7.5 22.85401 10.52634 7.5 21.80687 10.16267 7.5 20.79048 9.701134 7.5 19.81464 9.146166 7.5 18.88873 8.503115 7.5 18.02167 7.778174 7.5 17.22182 7.5 7.5 16.9697 7.5 7.5 -91.1634 9.567086 7.5 -91.90302 11.78492 7.5 -92.95197 13.88926 7.5 -94.21326 15.85983 7.5 -95.67474 17.67767 7.5 -97.32233 19.32526 7.5 -99.14017 20.78674 7.5 -101.1107 22.04803 7.5 -103.2151 23.09699 7.5 -105.4329 23.92351 7.5 -107.7429 24.51963 7.5 -110.1227 24.87962 7.5 -112.5496 25 7.5 -115 24.87962 7.5 -117.4504 24.51963 7.5 -119.8773 23.92351 7.5 -122.2571 23.09699 7.5 -124.5671 22.04803 7.5 -126.7849 20.78674 7.5 -128.8893 19.32526 7.5 -130.8598 17.67767 7.5 -132.6777 15.85983 7.5 -134.3253 13.88926 7.5 -135.7867 11.78492 7.5 -137.048 9.567086 7.5 -138.097 7.257117 7.5 -138.9235 4.877258 7.5 -139.5196 2.450428 7.5 -139.8796 -4.592425e-15 7.5 -140 -2.450428 7.5 -139.8796 -4.877258 7.5 -139.5196 -7.257117 7.5 -138.9235 -9.567086 7.5 -138.097 -11.78492 7.5 -137.048 -13.88926 7.5 -135.7867 -15.85983 7.5 -134.3253 -17.67767 7.5 -132.6777 -19.32526 7.5 -130.8598 -20.78674 7.5 -128.8893 -22.04803 7.5 -126.7849 -23.09699 7.5 -124.5671 -23.92351 7.5 -122.2571 -24.51963 7.5 -119.8773 -24.87962 7.5 -117.4504 -25 7.5 -115 -24.87962 7.5 -112.5496 -24.51963 7.5 -110.1227 -23.92351 7.5 -107.7429 -23.09699 7.5 -105.4329 -22.04803 7.5 -103.2151 -20.78674 7.5 -101.1107 -19.32526 7.5 -99.14017 -17.67767 7.5 -97.32233 -15.85983 7.5 -95.67474 -13.88926 7.5 -94.21326 -11.78492 7.5 -92.95197 -9.567086 7.5 -91.90302 -7.5 7.5 -91.1634 -7.5 7.5 16.9697 -7.778174 7.5 17.22182</float_array>
          <technique_common>
            <accessor count="220" source="#geom-rod-pos-array-array" stride="3">
              <param type="float" name="X" />
              <param type="float" name="Y" />
              <param type="float" name="Z" />
            </accessor>
          </technique_common>
        </source>
        <vertices id="geom-rod-pos-array-vertices">
          <input semantic="POSITION" source="#geom-rod-pos-array" />
        </vertices>
        <triangles count="436" material="matref-steel">
          <input offset="0" semantic="VERTEX" source="#geom-rod-pos-array-vertices" />
          <p>0 109 108 107 106 105 105 104 103 103 102 101 101 100 99 99 98 97 97 96 95 95 94 93 93 92 91 91 90 89 89 88 87 87 86 85 85 84 83 83 82 81 81 80 79 79 78 77 77 76 75 75 74 73 73 72 71 71 70 69 69 68 67 67 66 65 65 64 63 63 62 61 61 60 59 59 58 57 57 56 55 55 54 53 53 52 51 51 50 49 48 47 46 46 45 44 44 43 42 42 41 40 40 39 38 38 37 36 36 35 34 34 33 32 32 31 30 30 29 28 28 27 26 26 25 24 24 23 22 22 21 20 20 19 18 18 17 16 16 15 14 14 13 12 12 11 10 10 9 8 8 7 6 6 5 4 4 3 2 2 1 0 107 105 103 103 101 99 99 97 95 95 93 91 91 89 87 87 85 83 83 81 79 79 77 75 75 73 71 71 69 67 67 65 63 63 61 59 59 57 55 55 53 51 48 46 44 44 42 40 40 38 36 36 34 32 32 30 28 28 26 24 24 22 20 20 18 16 16 14 12 12 10 8 8 6 4 4 2 0 107 103 99 99 95 91 91 87 83 83 79 75 75 71 67 67 63 59 59 55 51 48 44 40 40 36 32 32 28 24 24 20 16 16 12 8 8 4 0 107 99 91 91 83 75 75 67 59 59 51 49 48 40 32 32 24 16 16 8 0 107 91 75 75 59 49 48 32 16 16 0 108 108 107 75 75 49 48 48 16 108 108 75 48 218 219 110 215 216 217 213 214 215 211 212 213 209 210 211 207 208 209 205 206 207 203 204 205 201 202 203 199 200 201 197 198 199 195 196 197 193 194 195 191 192 193 189 190 191 187 188 189 185 186 187 183 184 185 181 182 183 179 180 181 177 178 179 175 176 177 173 174 175 171 172 173 169 170 171 167 168 169 165 166 167 163 164 165 161 162 163 159 160 161 156 157 158 154 155 156 152 153 154 150 151 152 148 149 150 146 147 148 144 145 146 142 143 144 140 141 142 138 139 140 136 137 138 134 135 136 132 133 134 130 131 132 128 129 130 126 127 128 124 125 126 122 123 124 120 121 122 118 119 120 116 117 118 114 115 116 112 113 114 110 111 112 213 215 217 209 211 213 205 207 209 201 203 205 197 199 201 193 195 197 189 191 193 185 187 189 181 183 185 177 179 181 173 175 177 169 171 173 165 167 169 161 163 165 154 156 158 150 152 154 146 148 150 142 144 146 138 140 142 134 136 138 130 132 134 126 128 130 122 124 126 118 120 122 114 116 118 110 112 114 209 213 217 201 205 209 193 197 201 185 189 193 177 181 185 169 173 177 161 165 169 150 154 158 142 146 150 134 138 142 126 130 134 118 122 126 110 114 118 201 209 217 185 193 201 169 177 185 159 161 169 142 150 158 126 134 142 110 118 126 185 201 217 159 169 185 126 142 158 218 110 126 185 217 218 158 159 185 218 126 158 158 185 218 0 111 110 1 111 0 1 112 111 2 112 1 2 113 112 3 113 2 3 114 113 4 114 3 4 115 114 5 115 4 5 116 115 6 116 5 6 117 116 7 117 6 7 118 117 8 118 7 8 119 118 9 119 8 9 120 119 10 120 9 10 121 120 11 121 10 11 122 121 12 122 11 12 123 122 13 123 12 13 124 123 14 124 13 14 125 124 15 125 14 15 126 125 16 126 15 16 127 126 17 127 16 17 128 127 18 128 17 18 129 128 19 129 18 19 130 129 20 130 19 20 131 130 21 131 20 21 132 131 22 132 21 22 133 132 23 133 22 23 134 133 24 134 23 24 135 134 25 135 24 25 136 135 26 136 25 26 137 136 27 137 26 27 138 137 28 138 27 28 139 138 29 139 28 29 140 139 30 140 29 30 141 140 31 141 30 31 142 141 32 142 31 32 143 142 33 143 32 33 144 143 34 144 33 34 145 144 35 145 34 35 146 145 36 146 35 36 147 146 37 147 36 37 148 147 38 148 37 38 149 148 39 149 38 39 150 149 40 150 39 40 151 150 41 151 40 41 152 151 42 152 41 42 153 152 43 153 42 43 154 153 44 154 43 44 155 154 45 155 44 45 156 155 46 156 45 46 157 156 47 157 46 47 158 157 48 158 47 48 159 158 49 159 48 49 160 159 50 160 49 50 161 160 51 161 50 51 162 161 52 162 51 52 163 162 53 163 52 53 164 163 54 164 53 54 165 164 55 165 54 55 166 165 56 166 55 56 167 166 57 167 56 57 168 167 58 168 57 58 169 168 59 169 58 59 170 169 60 170 59 60 171 170 61 171 60 61 172 171 62 172 61 62 173 172 63 173 62 63 174 173 64 174 63 64 175 174 65 175 64 65 176 175 66 176 65 66 177 176 67 177 66 67 178 177 68 178 67 68 179 178 69 179 68 69 180 179 70 180 69 70 181 180 71 181 70 71 182 181 72 182 71 72 183 182 73 183 72 73 184 183 74 184 73 74 185 184 75 185 74 75 186 185 76 186 75 76 187 186 77 187 76 77 188 187 78 188 77 78 189 188 79 189 78 79 190 189 80 190 79 80 191 190 81 191 80 81 192 191 82 192 81 82 193 192 83 193 82 83 194 193 84 194 83 84 195 194 85 195 84 85 196 195 86 196 85 86 197 196 87 197 86 87 198 197 88 198 87 88 199 198 89 199 88 89 200 199 90 200 89 90 201 200 91 201 90 91 202 201 92 202 91 92 203 202 93 203 92 93 204 203 94 204 93 94 205 204 95 205 94 95 206 205 96 206 95 96 207 206 97 207 96 97 208 207 98 208 97 98 209 208 99 209 98 99 210 209 100 210 99 100 211 210 101 211 100 101 212 211 102 212 101 102 213 212 103 213 102 103 214 213 104 214 103 104 215 214 105 215 104 105 216 215 106 216 105 106 217 216 107 217 106 107 218 217 108 218 107 109 110 219 0 110 109 108 219 218 109 219 108</p>
        </triangles>
      </mesh>
    </geometry>
    <geometry id="geom-wristpin" name="WristPin">
      <mesh>
        <source id="geom-wristpin-pos-array">
          <float_array count="198" id="geom-wristpin-pos-array-array">0 12.5 25 9 12.5 25 9 -12.5 25 0 -12.5 25 8.827067 12.5 26.75581 8.827067 -12.5 26.75581 8.314916 12.5 28.44415 8.314916 -12.5 28.44415 7.483226 12.5 30.00013 7.483226 -12.5 30.00013 6.363961 12.5 31.36396 6.363961 -12.5 31.36396 5.000132 12.5 32.48323 5.000132 -12.5 32.48323 3.444151 12.5 33.31491 3.444151 -12.5 33.31491 1.755813 12.5 33.82707 1.755813 -12.5 33.82707 5.510911e-16 12.5 34 5.510911e-16 -12.5 34 -1.755813 12.5 33.82707 -1.755813 -12.5 33.82707 -3.444151 12.5 33.31491 -3.444151 -12.5 33.31491 -5.000132 12.5 32.48323 -5.000132 -12.5 32.48323 -6.363961 12.5 31.36396 -6.363961 -12.5 31.36396 -7.483226 12.5 30.00013 -7.483226 -12.5 30.00013 -8.314916 12.5 28.44415 -8.314916 -12.5 28.44415 -8.827067 12.5 26.75581 -8.827067 -12.5 26.75581 -9 12.5 25 -9 -12.5 25 -8.827067 12.5 23.24419 -8.827067 -12.5 23.24419 -8.314916 12.5 21.55585 -8.314916 -12.5 21.55585 -7.483226 12.5 19.99987 -7.483226 -12.5 19.99987 -6.363961 12.5 18.63604 -6.363961 -12.5 18.63604 -5.000132 12.5 17.51677 -5.000132 -12.5 17.51677 -3.444151 12.5 16.68508 -3.444151 -12.5 16.68508 -1.755813 12.5 16.17293 -1.755813 -12.5 16.17293 -1.653273e-15 12.5 16 -1.653273e-15 -12.5 16 1.755813 12.5 16.17293 1.755813 -12.5 16.17293 3.444151 12.5 16.68508 3.444151 -12.5 16.68508 5.000132 12.5 17.51677 5.000132 -12.5 17.51677 6.363961 12.5 18.63604 6.363961 -12.5 18.63604 7.483226 12.5 19.99987 7.483226 -12.5 19.99987 8.314916 12.5 21.55585 8.314916 -12.5 21.55585 8.827067 12.5 23.24419 8.827067 -12.5 23.24419</float_array>
          <technique_common>
            <accessor count="66" source="#geom-wristpin-pos-array-array" stride="3">
              <param type="float" name="X" />
              <param type="float" name="Y" />
              <param type="float" name="Z" />
            </accessor>
          </technique_common>
        </source>
        <vertices id="geom-wristpin-pos-array-vertices">
          <input semantic="POSITION" source="#geom-wristpin-pos-array" />
        </vertices>
        <triangles count="128" material="matref-pin">
          <input offset="0" semantic="VERTEX" source="#geom-wristpin-pos-array-vertices" />
          <p>1 0 4 1 4 2 2 4 5 2 5 3 4 0 6 4 6 5 5 6 7 5 7 3 6 0 8 6 8 7 7 8 9 7 9 3 8 0 10 8 10 9 9 10 11 9 11 3 10 0 12 10 12 11 11 12 13 11 13 3 12 0 14 12 14 13 13 14 15 13 15 3 14 0 16 14 16 15 15 16 17 15 17 3 16 0 18 16 18 17 17 18 19 17 19 3 18 0 20 18 20 19 19 20 21 19 21 3 20 0 22 20 22 21 21 22 23 21 23 3 22 0 24 22 24 23 23 24 25 23 25 3 24 0 26 24 26 25 25 26 27 25 27 3 26 0 28 26 28 27 27 28 29 27 29 3 28 0 30 28 30 29 29 30 31 29 31 3 30 0 32 30 32 31 31 32 33 31 33 3 32 0 34 32 34 33 33 34 35 33 35 3 34 0 36 34 36 35 35 36 37 35 37 3 36 0 38 36 38 37 37 38 39 37 39 3 38 0 40 38 40 39 39 40 41 39 41 3 40 0 42 40 42 41 41 42 43 41 43 3 42 0 44 42 44 43 43 44 45 43 45 3 44 0 46 44 46 45 45 46 47 45 47 3 46 0 48 46 48 47 47 48 49 47 49 3 48 0 50 48 50 49 49 50 51 49 51 3 50 0 52 50 52 51 51 52 53 51 53 3 52 0 54 52 54 53 53 54 55 53 55 3 54 0 56 54 56 55 55 56 57 55 57 3 56 0 58 56 58 57 57 58 59 57 59 3 58 0 60 58 60 59 59 60 61 59 61 3 60 0 62 60 62 61 61 62 63 61 63 3 62 0 64 62 64 63 63 64 65 63 65 3 64 0 1 64 1 65 65 1 2 65 2 3</p>
        </triangles>
      </mesh>
    </geometry>
  </library_geometries>
  <library_materials>
    <material id="steel-mat" name="Steel">
      <instance_effect url="#steel-eff" />
    </material>
    <material id="alum-mat" name="Aluminium">
      <instance_effect url="#alum-eff" />
    </material>
    <material id="pin-mat" name="HardenedSteel">
      <instance_effect url="#pin-eff" />
    </material>
  </library_materials>
  <library_visual_scenes>
    <visual_scene id="scene">
      <node id="PistonNode" name="PistonNode">
        <instance_geometry url="#geom-piston">
          <bind_material>
            <technique_common>
              <instance_material symbol="matref-alum" target="#alum-mat" />
            </technique_common>
          </bind_material>
        </instance_geometry>
      </node>
      <node id="RodNode" name="RodNode">
        <instance_geometry url="#geom-rod">
          <bind_material>
            <technique_common>
              <instance_material symbol="matref-steel" target="#steel-mat" />
            </technique_common>
          </bind_material>
        </instance_geometry>
      </node>
      <node id="WristPinNode" name="WristPinNode">
        <instance_geometry url="#geom-wristpin">
          <bind_material>
            <technique_common>
              <instance_material symbol="matref-pin" target="#pin-mat" />
            </technique_common>
          </bind_material>
        </instance_geometry>
      </node>
    </visual_scene>
  </library_visual_scenes>
  <scene>
    <instance_visual_scene url="#scene" />
  </scene>
</COLLADA>
