solid OpenSCAD_Model
  facet normal 1 -0 0
    outer loop
      vertex 100 0 3
      vertex 100 55 0
      vertex 100 55 3
    endloop
  endfacet
  facet normal 1 0 0
    outer loop
      vertex 100 55 0
      vertex 100 0 3
      vertex 100 0 0
    endloop
  endfacet
  facet normal 0 0 1
    outer loop
      vertex 100 55 3
      vertex 97 5 3
      vertex 100 0 3
    endloop
  endfacet
  facet normal 0 0 1
    outer loop
      vertex 100 55 3
      vertex 94 53 3
      vertex 97 5 3
    endloop
  endfacet
  facet normal 0 0 1
    outer loop
      vertex 100 55 3
      vertex 90 53 3
      vertex 94 53 3
    endloop
  endfacet
  facet normal 0 0 1
    outer loop
      vertex 90 53 3
      vertex 82 53 3
      vertex 90 5 3
    endloop
  endfacet
  facet normal 0 0 1
    outer loop
      vertex 100 55 3
      vertex 82 53 3
      vertex 90 53 3
    endloop
  endfacet
  facet normal 0 0 1
    outer loop
      vertex 100 55 3
      vertex 78 53 3
      vertex 82 53 3
    endloop
  endfacet
  facet normal 0 0 1
    outer loop
      vertex 78 53 3
      vertex 70 53 3
      vertex 78 5 3
    endloop
  endfacet
  facet normal 0 0 1
    outer loop
      vertex 100 55 3
      vertex 70 53 3
      vertex 78 53 3
    endloop
  endfacet
  facet normal 0 0 1
    outer loop
      vertex 100 55 3
      vertex 66 53 3
      vertex 70 53 3
    endloop
  endfacet
  facet normal 0 0 1
    outer loop
      vertex 66 53 3
      vertex 58 53 3
      vertex 66 5 3
    endloop
  endfacet
  facet normal 0 0 1
    outer loop
      vertex 100 55 3
      vertex 58 53 3
      vertex 66 53 3
    endloop
  endfacet
  facet normal 0 0 1
    outer loop
      vertex 100 55 3
      vertex 54 53 3
      vertex 58 53 3
    endloop
  endfacet
  facet normal 0 0 1
    outer loop
      vertex 54 53 3
      vertex 46 53 3
      vertex 54 5 3
    endloop
  endfacet
  facet normal 0 0 1
    outer loop
      vertex 100 55 3
      vertex 46 53 3
      vertex 54 53 3
    endloop
  endfacet
  facet normal -0 0 1
    outer loop
      vertex 0 55 3
      vertex 46 53 3
      vertex 100 55 3
    endloop
  endfacet
  facet normal 0 0 1
    outer loop
      vertex 42 53 3
      vertex 34 53 3
      vertex 42 5 3
    endloop
  endfacet
  facet normal 0 0 1
    outer loop
      vertex 46 53 3
      vertex 0 55 3
      vertex 42 53 3
    endloop
  endfacet
  facet normal 0 0 1
    outer loop
      vertex 42 53 3
      vertex 0 55 3
      vertex 34 53 3
    endloop
  endfacet
  facet normal 0 0 1
    outer loop
      vertex 30 53 3
      vertex 22 53 3
      vertex 30 5 3
    endloop
  endfacet
  facet normal 0 0 1
    outer loop
      vertex 34 53 3
      vertex 0 55 3
      vertex 30 53 3
    endloop
  endfacet
  facet normal 0 0 1
    outer loop
      vertex 30 53 3
      vertex 0 55 3
      vertex 22 53 3
    endloop
  endfacet
  facet normal 0 0 1
    outer loop
      vertex 18 53 3
      vertex 10 53 3
      vertex 18 5 3
    endloop
  endfacet
  facet normal 0 0 1
    outer loop
      vertex 22 53 3
      vertex 0 55 3
      vertex 18 53 3
    endloop
  endfacet
  facet normal 0 0 1
    outer loop
      vertex 18 53 3
      vertex 0 55 3
      vertex 10 53 3
    endloop
  endfacet
  facet normal 0 0 1
    outer loop
      vertex 6 53 3
      vertex 3 5 3
      vertex 6 5 3
    endloop
  endfacet
  facet normal 0 0 1
    outer loop
      vertex 0 0 3
      vertex 3 5 3
      vertex 0 55 3
    endloop
  endfacet
  facet normal 0 0 1
    outer loop
      vertex 6 53 3
      vertex 0 55 3
      vertex 3 5 3
    endloop
  endfacet
  facet normal 0 0 1
    outer loop
      vertex 10 53 3
      vertex 0 55 3
      vertex 6 53 3
    endloop
  endfacet
  facet normal -0 0 1
    outer loop
      vertex 97 1 3
      vertex 100 0 3
      vertex 97 5 3
    endloop
  endfacet
  facet normal -0 0 1
    outer loop
      vertex 3 1 3
      vertex 100 0 3
      vertex 97 1 3
    endloop
  endfacet
  facet normal 0 0 1
    outer loop
      vertex 3 1 3
      vertex 0 0 3
      vertex 100 0 3
    endloop
  endfacet
  facet normal 0 0 1
    outer loop
      vertex 3 5 3
      vertex 0 0 3
      vertex 3 1 3
    endloop
  endfacet
  facet normal 0 0 1
    outer loop
      vertex 97 5 3
      vertex 94 53 3
      vertex 94 5 3
    endloop
  endfacet
  facet normal 0 0 1
    outer loop
      vertex 90 5 3
      vertex 82 53 3
      vertex 82 5 3
    endloop
  endfacet
  facet normal 0 0 1
    outer loop
      vertex 78 5 3
      vertex 70 53 3
      vertex 70 5 3
    endloop
  endfacet
  facet normal 0 0 1
    outer loop
      vertex 66 5 3
      vertex 58 53 3
      vertex 58 5 3
    endloop
  endfacet
  facet normal 0 0 1
    outer loop
      vertex 54 5 3
      vertex 46 53 3
      vertex 46 5 3
    endloop
  endfacet
  facet normal 0 0 1
    outer loop
      vertex 42 5 3
      vertex 34 53 3
      vertex 34 5 3
    endloop
  endfacet
  facet normal 0 0 1
    outer loop
      vertex 30 5 3
      vertex 22 53 3
      vertex 22 5 3
    endloop
  endfacet
  facet normal 0 0 1
    outer loop
      vertex 18 5 3
      vertex 10 53 3
      vertex 10 5 3
    endloop
  endfacet
  facet normal 0 0 -1
    outer loop
      vertex 0 0 0
      vertex 100 55 0
      vertex 100 0 0
    endloop
  endfacet
  facet normal -0 0 -1
    outer loop
      vertex 100 55 0
      vertex 0 0 0
      vertex 0 55 0
    endloop
  endfacet
  facet normal -1 0 0
    outer loop
      vertex 0 0 0
      vertex 0 55 3
      vertex 0 55 0
    endloop
  endfacet
  facet normal -1 -0 0
    outer loop
      vertex 0 55 3
      vertex 0 0 0
      vertex 0 0 3
    endloop
  endfacet
  facet normal 0 1 -0
    outer loop
      vertex 100 55 0
      vertex 0 55 3
      vertex 100 55 3
    endloop
  endfacet
  facet normal 0 1 0
    outer loop
      vertex 0 55 3
      vertex 100 55 0
      vertex 0 55 0
    endloop
  endfacet
  facet normal 0 -1 0
    outer loop
      vertex 0 0 0
      vertex 100 0 3
      vertex 0 0 3
    endloop
  endfacet
  facet normal 0 -1 -0
    outer loop
      vertex 100 0 3
      vertex 0 0 0
      vertex 100 0 0
    endloop
  endfacet
  facet normal 1 -0 0
    outer loop
      vertex 97 1 28
      vertex 97 5 3
      vertex 97 5 28
    endloop
  endfacet
  facet normal 1 0 0
    outer loop
      vertex 97 5 3
      vertex 97 1 28
      vertex 97 1 3
    endloop
  endfacet
  facet normal 0 0 1
    outer loop
      vertex 10 53 28
      vertex 6 53 28
      vertex 10 5 28
    endloop
  endfacet
  facet normal 0 0 1
    outer loop
      vertex 22 53 28
      vertex 18 53 28
      vertex 22 5 28
    endloop
  endfacet
  facet normal 0 0 1
    outer loop
      vertex 34 53 28
      vertex 30 53 28
      vertex 34 5 28
    endloop
  endfacet
  facet normal 0 0 1
    outer loop
      vertex 46 53 28
      vertex 42 53 28
      vertex 46 5 28
    endloop
  endfacet
  facet normal 0 0 1
    outer loop
      vertex 58 53 28
      vertex 54 53 28
      vertex 58 5 28
    endloop
  endfacet
  facet normal 0 0 1
    outer loop
      vertex 70 53 28
      vertex 66 53 28
      vertex 70 5 28
    endloop
  endfacet
  facet normal 0 0 1
    outer loop
      vertex 82 53 28
      vertex 78 53 28
      vertex 82 5 28
    endloop
  endfacet
  facet normal 0 0 1
    outer loop
      vertex 94 53 28
      vertex 90 53 28
      vertex 94 5 28
    endloop
  endfacet
  facet normal -0 0 1
    outer loop
      vertex 94 5 28
      vertex 97 1 28
      vertex 97 5 28
    endloop
  endfacet
  facet normal 0 0 1
    outer loop
      vertex 90 5 28
      vertex 94 5 28
      vertex 90 53 28
    endloop
  endfacet
  facet normal -0 0 1
    outer loop
      vertex 90 5 28
      vertex 97 1 28
      vertex 94 5 28
    endloop
  endfacet
  facet normal -0 0 1
    outer loop
      vertex 82 5 28
      vertex 97 1 28
      vertex 90 5 28
    endloop
  endfacet
  facet normal 0 0 1
    outer loop
      vertex 78 5 28
      vertex 82 5 28
      vertex 78 53 28
    endloop
  endfacet
  facet normal -0 0 1
    outer loop
      vertex 78 5 28
      vertex 97 1 28
      vertex 82 5 28
    endloop
  endfacet
  facet normal -0 0 1
    outer loop
      vertex 70 5 28
      vertex 97 1 28
      vertex 78 5 28
    endloop
  endfacet
  facet normal 0 0 1
    outer loop
      vertex 66 5 28
      vertex 70 5 28
      vertex 66 53 28
    endloop
  endfacet
  facet normal -0 0 1
    outer loop
      vertex 66 5 28
      vertex 97 1 28
      vertex 70 5 28
    endloop
  endfacet
  facet normal -0 0 1
    outer loop
      vertex 58 5 28
      vertex 97 1 28
      vertex 66 5 28
    endloop
  endfacet
  facet normal 0 0 1
    outer loop
      vertex 54 5 28
      vertex 58 5 28
      vertex 54 53 28
    endloop
  endfacet
  facet normal -0 0 1
    outer loop
      vertex 54 5 28
      vertex 97 1 28
      vertex 58 5 28
    endloop
  endfacet
  facet normal -0 0 1
    outer loop
      vertex 46 5 28
      vertex 97 1 28
      vertex 54 5 28
    endloop
  endfacet
  facet normal 0 0 1
    outer loop
      vertex 42 5 28
      vertex 46 5 28
      vertex 42 53 28
    endloop
  endfacet
  facet normal 0 0 1
    outer loop
      vertex 3 1 28
      vertex 46 5 28
      vertex 42 5 28
    endloop
  endfacet
  facet normal 0 0 1
    outer loop
      vertex 3 1 28
      vertex 42 5 28
      vertex 34 5 28
    endloop
  endfacet
  facet normal 0 0 1
    outer loop
      vertex 30 5 28
      vertex 34 5 28
      vertex 30 53 28
    endloop
  endfacet
  facet normal 0 0 1
    outer loop
      vertex 3 1 28
      vertex 34 5 28
      vertex 30 5 28
    endloop
  endfacet
  facet normal 0 0 1
    outer loop
      vertex 3 1 28
      vertex 30 5 28
      vertex 22 5 28
    endloop
  endfacet
  facet normal 0 0 1
    outer loop
      vertex 18 5 28
      vertex 22 5 28
      vertex 18 53 28
    endloop
  endfacet
  facet normal 0 0 1
    outer loop
      vertex 3 1 28
      vertex 22 5 28
      vertex 18 5 28
    endloop
  endfacet
  facet normal 0 0 1
    outer loop
      vertex 3 1 28
      vertex 18 5 28
      vertex 10 5 28
    endloop
  endfacet
  facet normal 0 0 1
    outer loop
      vertex 6 5 28
      vertex 10 5 28
      vertex 6 53 28
    endloop
  endfacet
  facet normal 0 0 1
    outer loop
      vertex 3 1 28
      vertex 10 5 28
      vertex 6 5 28
    endloop
  endfacet
  facet normal 0 0 1
    outer loop
      vertex 3 1 28
      vertex 6 5 28
      vertex 3 5 28
    endloop
  endfacet
  facet normal 0 0 1
    outer loop
      vertex 46 5 28
      vertex 3 1 28
      vertex 97 1 28
    endloop
  endfacet
  facet normal -1 0 0
    outer loop
      vertex 3 1 3
      vertex 3 5 28
      vertex 3 5 3
    endloop
  endfacet
  facet normal -1 -0 0
    outer loop
      vertex 3 5 28
      vertex 3 1 3
      vertex 3 1 28
    endloop
  endfacet
  facet normal 0 1 -0
    outer loop
      vertex 6 5 3
      vertex 3 5 28
      vertex 6 5 28
    endloop
  endfacet
  facet normal 0 1 0
    outer loop
      vertex 3 5 28
      vertex 6 5 3
      vertex 3 5 3
    endloop
  endfacet
  facet normal 0 1 -0
    outer loop
      vertex 97 5 3
      vertex 94 5 28
      vertex 97 5 28
    endloop
  endfacet
  facet normal 0 1 0
    outer loop
      vertex 94 5 28
      vertex 97 5 3
      vertex 94 5 3
    endloop
  endfacet
  facet normal 0 1 -0
    outer loop
      vertex 66 5 3
      vertex 58 5 28
      vertex 66 5 28
    endloop
  endfacet
  facet normal 0 1 0
    outer loop
      vertex 58 5 28
      vertex 66 5 3
      vertex 58 5 3
    endloop
  endfacet
  facet normal 0 1 -0
    outer loop
      vertex 78 5 3
      vertex 70 5 28
      vertex 78 5 28
    endloop
  endfacet
  facet normal 0 1 0
    outer loop
      vertex 70 5 28
      vertex 78 5 3
      vertex 70 5 3
    endloop
  endfacet
  facet normal 0 1 -0
    outer loop
      vertex 18 5 3
      vertex 10 5 28
      vertex 18 5 28
    endloop
  endfacet
  facet normal 0 1 0
    outer loop
      vertex 10 5 28
      vertex 18 5 3
      vertex 10 5 3
    endloop
  endfacet
  facet normal 0 1 -0
    outer loop
      vertex 54 5 3
      vertex 46 5 28
      vertex 54 5 28
    endloop
  endfacet
  facet normal 0 1 0
    outer loop
      vertex 46 5 28
      vertex 54 5 3
      vertex 46 5 3
    endloop
  endfacet
  facet normal 0 1 -0
    outer loop
      vertex 90 5 3
      vertex 82 5 28
      vertex 90 5 28
    endloop
  endfacet
  facet normal 0 1 0
    outer loop
      vertex 82 5 28
      vertex 90 5 3
      vertex 82 5 3
    endloop
  endfacet
  facet normal 0 1 -0
    outer loop
      vertex 30 5 3
      vertex 22 5 28
      vertex 30 5 28
    endloop
  endfacet
  facet normal 0 1 0
    outer loop
      vertex 22 5 28
      vertex 30 5 3
      vertex 22 5 3
    endloop
  endfacet
  facet normal 0 1 -0
    outer loop
      vertex 42 5 3
      vertex 34 5 28
      vertex 42 5 28
    endloop
  endfacet
  facet normal 0 1 0
    outer loop
      vertex 34 5 28
      vertex 42 5 3
      vertex 34 5 3
    endloop
  endfacet
  facet normal 0 -1 0
    outer loop
      vertex 3 1 3
      vertex 97 1 28
      vertex 3 1 28
    endloop
  endfacet
  facet normal 0 -1 -0
    outer loop
      vertex 97 1 28
      vertex 3 1 3
      vertex 97 1 3
    endloop
  endfacet
  facet normal 1 -0 0
    outer loop
      vertex 10 5 28
      vertex 10 53 3
      vertex 10 53 28
    endloop
  endfacet
  facet normal 1 0 0
    outer loop
      vertex 10 53 3
      vertex 10 5 28
      vertex 10 5 3
    endloop
  endfacet
  facet normal -1 0 0
    outer loop
      vertex 6 5 3
      vertex 6 53 28
      vertex 6 53 3
    endloop
  endfacet
  facet normal -1 -0 0
    outer loop
      vertex 6 53 28
      vertex 6 5 3
      vertex 6 5 28
    endloop
  endfacet
  facet normal 0 1 -0
    outer loop
      vertex 10 53 3
      vertex 6 53 28
      vertex 10 53 28
    endloop
  endfacet
  facet normal 0 1 0
    outer loop
      vertex 6 53 28
      vertex 10 53 3
      vertex 6 53 3
    endloop
  endfacet
  facet normal 1 -0 0
    outer loop
      vertex 22 5 28
      vertex 22 53 3
      vertex 22 53 28
    endloop
  endfacet
  facet normal 1 0 0
    outer loop
      vertex 22 53 3
      vertex 22 5 28
      vertex 22 5 3
    endloop
  endfacet
  facet normal -1 0 0
    outer loop
      vertex 18 5 3
      vertex 18 53 28
      vertex 18 53 3
    endloop
  endfacet
  facet normal -1 -0 0
    outer loop
      vertex 18 53 28
      vertex 18 5 3
      vertex 18 5 28
    endloop
  endfacet
  facet normal 0 1 -0
    outer loop
      vertex 22 53 3
      vertex 18 53 28
      vertex 22 53 28
    endloop
  endfacet
  facet normal 0 1 0
    outer loop
      vertex 18 53 28
      vertex 22 53 3
      vertex 18 53 3
    endloop
  endfacet
  facet normal 1 -0 0
    outer loop
      vertex 34 5 28
      vertex 34 53 3
      vertex 34 53 28
    endloop
  endfacet
  facet normal 1 0 0
    outer loop
      vertex 34 53 3
      vertex 34 5 28
      vertex 34 5 3
    endloop
  endfacet
  facet normal -1 0 0
    outer loop
      vertex 30 5 3
      vertex 30 53 28
      vertex 30 53 3
    endloop
  endfacet
  facet normal -1 -0 0
    outer loop
      vertex 30 53 28
      vertex 30 5 3
      vertex 30 5 28
    endloop
  endfacet
  facet normal 0 1 -0
    outer loop
      vertex 34 53 3
      vertex 30 53 28
      vertex 34 53 28
    endloop
  endfacet
  facet normal 0 1 0
    outer loop
      vertex 30 53 28
      vertex 34 53 3
      vertex 30 53 3
    endloop
  endfacet
  facet normal 1 -0 0
    outer loop
      vertex 46 5 28
      vertex 46 53 3
      vertex 46 53 28
    endloop
  endfacet
  facet normal 1 0 0
    outer loop
      vertex 46 53 3
      vertex 46 5 28
      vertex 46 5 3
    endloop
  endfacet
  facet normal -1 0 0
    outer loop
      vertex 42 5 3
      vertex 42 53 28
      vertex 42 53 3
    endloop
  endfacet
  facet normal -1 -0 0
    outer loop
      vertex 42 53 28
      vertex 42 5 3
      vertex 42 5 28
    endloop
  endfacet
  facet normal 0 1 -0
    outer loop
      vertex 46 53 3
      vertex 42 53 28
      vertex 46 53 28
    endloop
  endfacet
  facet normal 0 1 0
    outer loop
      vertex 42 53 28
      vertex 46 53 3
      vertex 42 53 3
    endloop
  endfacet
  facet normal 1 -0 0
    outer loop
      vertex 58 5 28
      vertex 58 53 3
      vertex 58 53 28
    endloop
  endfacet
  facet normal 1 0 0
    outer loop
      vertex 58 53 3
      vertex 58 5 28
      vertex 58 5 3
    endloop
  endfacet
  facet normal -1 0 0
    outer loop
      vertex 54 5 3
      vertex 54 53 28
      vertex 54 53 3
    endloop
  endfacet
  facet normal -1 -0 0
    outer loop
      vertex 54 53 28
      vertex 54 5 3
      vertex 54 5 28
    endloop
  endfacet
  facet normal 0 1 -0
    outer loop
      vertex 58 53 3
      vertex 54 53 28
      vertex 58 53 28
    endloop
  endfacet
  facet normal 0 1 0
    outer loop
      vertex 54 53 28
      vertex 58 53 3
      vertex 54 53 3
    endloop
  endfacet
  facet normal 1 -0 0
    outer loop
      vertex 70 5 28
      vertex 70 53 3
      vertex 70 53 28
    endloop
  endfacet
  facet normal 1 0 0
    outer loop
      vertex 70 53 3
      vertex 70 5 28
      vertex 70 5 3
    endloop
  endfacet
  facet normal -1 0 0
    outer loop
      vertex 66 5 3
      vertex 66 53 28
      vertex 66 53 3
    endloop
  endfacet
  facet normal -1 -0 0
    outer loop
      vertex 66 53 28
      vertex 66 5 3
      vertex 66 5 28
    endloop
  endfacet
  facet normal 0 1 -0
    outer loop
      vertex 70 53 3
      vertex 66 53 28
      vertex 70 53 28
    endloop
  endfacet
  facet normal 0 1 0
    outer loop
      vertex 66 53 28
      vertex 70 53 3
      vertex 66 53 3
    endloop
  endfacet
  facet normal 1 -0 0
    outer loop
      vertex 82 5 28
      vertex 82 53 3
      vertex 82 53 28
    endloop
  endfacet
  facet normal 1 0 0
    outer loop
      vertex 82 53 3
      vertex 82 5 28
      vertex 82 5 3
    endloop
  endfacet
  facet normal -1 0 0
    outer loop
      vertex 78 5 3
      vertex 78 53 28
      vertex 78 53 3
    endloop
  endfacet
  facet normal -1 -0 0
    outer loop
      vertex 78 53 28
      vertex 78 5 3
      vertex 78 5 28
    endloop
  endfacet
  facet normal 0 1 -0
    outer loop
      vertex 82 53 3
      vertex 78 53 28
      vertex 82 53 28
    endloop
  endfacet
  facet normal 0 1 0
    outer loop
      vertex 78 53 28
      vertex 82 53 3
      vertex 78 53 3
    endloop
  endfacet
  facet normal 1 -0 0
    outer loop
      vertex 94 5 28
      vertex 94 53 3
      vertex 94 53 28
    endloop
  endfacet
  facet normal 1 0 0
    outer loop
      vertex 94 53 3
      vertex 94 5 28
      vertex 94 5 3
    endloop
  endfacet
  facet normal -1 0 0
    outer loop
      vertex 90 5 3
      vertex 90 53 28
      vertex 90 53 3
    endloop
  endfacet
  facet normal -1 -0 0
    outer loop
      vertex 90 53 28
      vertex 90 5 3
      vertex 90 5 28
    endloop
  endfacet
  facet normal 0 1 -0
    outer loop
      vertex 94 53 3
      vertex 90 53 28
      vertex 94 53 28
    endloop
  endfacet
  facet normal 0 1 0
    outer loop
      vertex 90 53 28
      vertex 94 53 3
      vertex 90 53 3
    endloop
  endfacet
endsolid OpenSCAD_Model
