ISO-10303-21;
HEADER;
FILE_DESCRIPTION(('ViewDefinition[DesignTransferView]'),'2;1');
FILE_NAME('/dev/null','2026-04-21T15:09:59+00:00',(''),(''),'IfcOpenShell 0.8.5','IfcOpenShell 0.8.5','Nobody');
FILE_SCHEMA(('IFC4'));
ENDSEC;
DATA;
#1=IFCPROJECT('0lC4zp2893Hg9ImuJ$hU$C',$,'Terrace Overlap',$,$,$,$,(#10),#5);
#2=IFCSIUNIT(*,.LENGTHUNIT.,.MILLI.,.METRE.);
#3=IFCSIUNIT(*,.AREAUNIT.,$,.SQUARE_METRE.);
#4=IFCSIUNIT(*,.VOLUMEUNIT.,$,.CUBIC_METRE.);
#5=IFCUNITASSIGNMENT((#4,#2,#3));
#6=IFCCARTESIANPOINT((0.,0.,0.));
#7=IFCDIRECTION((0.,0.,1.));
#8=IFCDIRECTION((1.,0.,0.));
#9=IFCAXIS2PLACEMENT3D(#6,#7,#8);
#10=IFCGEOMETRICREPRESENTATIONCONTEXT($,'Model',3,1.0000000000000001E-05,#9,$);
#11=IFCGEOMETRICREPRESENTATIONSUBCONTEXT('Body','Model',*,*,*,*,#10,$,.MODEL_VIEW.,$);
#12=IFCSITE('1weFnBDXr0ZBulK45PzNSc',$,'Default Site',$,$,$,$,$,$,$,$,$,$,$);
#13=IFCBUILDING('2vkawqDRXCMxvsWAitcHOq',$,'Default Building',$,$,$,$,$,$,$,$,$);
#14=IFCRELAGGREGATES('0bNvowMmvEBuRSGEb3gQme',$,$,$,#1,(#12));
#15=IFCRELAGGREGATES('0p5$DfSjnB49E5au36EpeI',$,$,$,#12,(#13));
#16=IFCBUILDINGSTOREY('1JBHQHkwLDfxNMSVf0qDhg',$,'Ground Floor',$,$,#30,$,$,$,$);
#22=IFCPROPERTYSET('11OJpqX9TC9PIB$FVlAd6T',$,'EPset_StoreyMeta',$,(#24));
#23=IFCRELDEFINESBYPROPERTIES('2HhyyfLBb3VeQZ3OHGgnRv',$,$,$,(#16),#22);
#24=IFCPROPERTYSINGLEVALUE('ElevationM',$,IFCREAL(0.),$);
#25=IFCRELAGGREGATES('3JYRN66Rb4590XVClOs$j_',$,$,$,#13,(#16));
#26=IFCCARTESIANPOINT((0.,0.,0.));
#27=IFCDIRECTION((0.,0.,1.));
#28=IFCDIRECTION((1.,0.,0.));
#29=IFCAXIS2PLACEMENT3D(#26,#27,#28);
#30=IFCLOCALPLACEMENT($,#29);
#31=IFCSLAB('1TaPODTePBTOVCPTO_rmRr',$,'Terrace Slab',$,$,#49,#38,$,$);
#32=IFCCARTESIANPOINTLIST2D(((0.,0.),(15000.,0.),(15000.,6000.),(0.,6000.),(0.,0.)));
#33=IFCINDEXEDPOLYCURVE(#32,$,$);
#34=IFCDIRECTION((0.,0.,1.));
#35=IFCARBITRARYCLOSEDPROFILEDEF(.AREA.,$,#33);
#36=IFCEXTRUDEDAREASOLID(#35,$,#34,200.);
#37=IFCSHAPEREPRESENTATION(#11,'Body','SweptSolid',(#36));
#38=IFCPRODUCTDEFINITIONSHAPE($,$,(#37));
#44=IFCRELCONTAINEDINSPATIALSTRUCTURE('36eJZl2Ef4uv_PvbzDqs8B',$,$,$,(#120,#213,#182,#275,#151,#89,#244,#58,#31),#16);
#45=IFCCARTESIANPOINT((0.,0.,0.));
#46=IFCDIRECTION((0.,0.,1.));
#47=IFCDIRECTION((1.,0.,0.));
#48=IFCAXIS2PLACEMENT3D(#45,#46,#47);
#49=IFCLOCALPLACEMENT(#30,#48);
#50=IFCPROPERTYSET('3k6JFWEVD0wPzEPWupkZpz',$,'EPset_Plan',$,(#52,#53));
#51=IFCRELDEFINESBYPROPERTIES('1a$aKKgen8y9gDS3EfZOPJ',$,$,$,(#31),#50);
#52=IFCPROPERTYSINGLEVALUE('Polygon2D',$,IFCLABEL('0.0000,0.0000;15.0000,0.0000;15.0000,6.0000;0.0000,6.0000'),$);
#53=IFCPROPERTYSINGLEVALUE('Category',$,IFCLABEL('IfcSlab'),$);
#54=IFCELEMENTQUANTITY('01yaPyeEvE59D8A6KR9isQ',$,'Qto_SlabBaseQuantities',$,'BaseQuantities',(#56,#57));
#55=IFCRELDEFINESBYPROPERTIES('32q0pMc7X0ufdv4$gAJRhY',$,$,$,(#31),#54);
#56=IFCQUANTITYAREA('NetArea',$,$,90.,$);
#57=IFCQUANTITYVOLUME('NetVolume',$,$,18.,$);
#58=IFCWALL('2Ws9w88ivFTQk589HDQuAM',$,'Shell-S',$,$,#75,#65,$,$);
#59=IFCCARTESIANPOINTLIST2D(((0.,0.),(15000.,0.),(15000.,200.),(0.,200.),(0.,0.)));
#60=IFCINDEXEDPOLYCURVE(#59,$,$);
#61=IFCDIRECTION((0.,0.,1.));
#62=IFCARBITRARYCLOSEDPROFILEDEF(.AREA.,$,#60);
#63=IFCEXTRUDEDAREASOLID(#62,$,#61,3000.);
#64=IFCSHAPEREPRESENTATION(#11,'Body','SweptSolid',(#63));
#65=IFCPRODUCTDEFINITIONSHAPE($,$,(#64));
#71=IFCCARTESIANPOINT((0.,0.,200.));
#72=IFCDIRECTION((0.,0.,1.));
#73=IFCDIRECTION((1.,0.,0.));
#74=IFCAXIS2PLACEMENT3D(#71,#72,#73);
#75=IFCLOCALPLACEMENT(#30,#74);
#76=IFCPROPERTYSET('3ThSpBtnj609SKjs8kiSLs',$,'EPset_Plan',$,(#78,#79));
#77=IFCRELDEFINESBYPROPERTIES('3YqmZiaRrCrgPJIjVwm6c_',$,$,$,(#58),#76);
#78=IFCPROPERTYSINGLEVALUE('Polygon2D',$,IFCLABEL('0.0000,0.0000;15.0000,0.0000;15.0000,0.2000;0.0000,0.2000'),$);
#79=IFCPROPERTYSINGLEVALUE('Category',$,IFCLABEL('IfcWall'),$);
#80=IFCPROPERTYSET('0id8zIjKPF_ATecGjTWSES',$,'EPset_WallAxis',$,(#82,#83,#84,#85,#86,#87,#88));
#81=IFCRELDEFINESBYPROPERTIES('3VDxPA0J5Ce9SvD73oA1ek',$,$,$,(#58),#80);
#82=IFCPROPERTYSINGLEVALUE('StartX',$,IFCINTEGER(0),$);
#83=IFCPROPERTYSINGLEVALUE('StartY',$,IFCINTEGER(0),$);
#84=IFCPROPERTYSINGLEVALUE('EndX',$,IFCINTEGER(15),$);
#85=IFCPROPERTYSINGLEVALUE('EndY',$,IFCINTEGER(0),$);
#86=IFCPROPERTYSINGLEVALUE('Thickness',$,IFCREAL(0.20000000000000001),$);
#87=IFCPROPERTYSINGLEVALUE('Height',$,IFCREAL(3.),$);
#88=IFCPROPERTYSINGLEVALUE('IsExternal',$,IFCBOOLEAN(.T.),$);
#89=IFCWALL('0r0inzprX2tQQugyAtRjpc',$,'Shell-N',$,$,#106,#96,$,$);
#90=IFCCARTESIANPOINTLIST2D(((0.,5800.),(15000.,5800.),(15000.,6000.),(0.,6000.),(0.,5800.)));
#91=IFCINDEXEDPOLYCURVE(#90,$,$);
#92=IFCDIRECTION((0.,0.,1.));
#93=IFCARBITRARYCLOSEDPROFILEDEF(.AREA.,$,#91);
#94=IFCEXTRUDEDAREASOLID(#93,$,#92,3000.);
#95=IFCSHAPEREPRESENTATION(#11,'Body','SweptSolid',(#94));
#96=IFCPRODUCTDEFINITIONSHAPE($,$,(#95));
#102=IFCCARTESIANPOINT((0.,0.,200.));
#103=IFCDIRECTION((0.,0.,1.));
#104=IFCDIRECTION((1.,0.,0.));
#105=IFCAXIS2PLACEMENT3D(#102,#103,#104);
#106=IFCLOCALPLACEMENT(#30,#105);
#107=IFCPROPERTYSET('2zqB8VQI510OZc0kV_W9L4',$,'EPset_Plan',$,(#109,#110));
#108=IFCRELDEFINESBYPROPERTIES('3LDTVDq414veSlX5gC5aww',$,$,$,(#89),#107);
#109=IFCPROPERTYSINGLEVALUE('Polygon2D',$,IFCLABEL('0.0000,5.8000;15.0000,5.8000;15.0000,6.0000;0.0000,6.0000'),$);
#110=IFCPROPERTYSINGLEVALUE('Category',$,IFCLABEL('IfcWall'),$);
#111=IFCPROPERTYSET('1Fi1$pCxv1ihgEZF3pPYyL',$,'EPset_WallAxis',$,(#113,#114,#115,#116,#117,#118,#119));
#112=IFCRELDEFINESBYPROPERTIES('1Rlzao0O988RI5NaJX1eOp',$,$,$,(#89),#111);
#113=IFCPROPERTYSINGLEVALUE('StartX',$,IFCINTEGER(0),$);
#114=IFCPROPERTYSINGLEVALUE('StartY',$,IFCREAL(5.7999999999999998),$);
#115=IFCPROPERTYSINGLEVALUE('EndX',$,IFCINTEGER(15),$);
#116=IFCPROPERTYSINGLEVALUE('EndY',$,IFCREAL(5.7999999999999998),$);
#117=IFCPROPERTYSINGLEVALUE('Thickness',$,IFCREAL(0.20000000000000001),$);
#118=IFCPROPERTYSINGLEVALUE('Height',$,IFCREAL(3.),$);
#119=IFCPROPERTYSINGLEVALUE('IsExternal',$,IFCBOOLEAN(.T.),$);
#120=IFCWALL('376oaPy9bEqftfNH2V6MfC',$,'Shell-W',$,$,#137,#127,$,$);
#121=IFCCARTESIANPOINTLIST2D(((0.,0.),(3.6739403974420595E-13,6000.),(-199.99999999999966,6000.),(-200.,1.2246467991473532E-14),(0.,0.)));
#122=IFCINDEXEDPOLYCURVE(#121,$,$);
#123=IFCDIRECTION((0.,0.,1.));
#124=IFCARBITRARYCLOSEDPROFILEDEF(.AREA.,$,#122);
#125=IFCEXTRUDEDAREASOLID(#124,$,#123,3000.);
#126=IFCSHAPEREPRESENTATION(#11,'Body','SweptSolid',(#125));
#127=IFCPRODUCTDEFINITIONSHAPE($,$,(#126));
#133=IFCCARTESIANPOINT((0.,0.,200.));
#134=IFCDIRECTION((0.,0.,1.));
#135=IFCDIRECTION((1.,0.,0.));
#136=IFCAXIS2PLACEMENT3D(#133,#134,#135);
#137=IFCLOCALPLACEMENT(#30,#136);
#138=IFCPROPERTYSET('3R8OWmDCX9vhG8kHeA6p_q',$,'EPset_Plan',$,(#140,#141));
#139=IFCRELDEFINESBYPROPERTIES('18RCzkVx56sPkJXOg$eZIJ',$,$,$,(#120),#138);
#140=IFCPROPERTYSINGLEVALUE('Polygon2D',$,IFCLABEL('0.0000,0.0000;0.0000,6.0000;-0.2000,6.0000;-0.2000,0.0000'),$);
#141=IFCPROPERTYSINGLEVALUE('Category',$,IFCLABEL('IfcWall'),$);
#142=IFCPROPERTYSET('003iyL3EbAGBqf1rb8yXoN',$,'EPset_WallAxis',$,(#144,#145,#146,#147,#148,#149,#150));
#143=IFCRELDEFINESBYPROPERTIES('22xqOKGBn9PuiwkllRh1iC',$,$,$,(#120),#142);
#144=IFCPROPERTYSINGLEVALUE('StartX',$,IFCINTEGER(0),$);
#145=IFCPROPERTYSINGLEVALUE('StartY',$,IFCINTEGER(0),$);
#146=IFCPROPERTYSINGLEVALUE('EndX',$,IFCINTEGER(0),$);
#147=IFCPROPERTYSINGLEVALUE('EndY',$,IFCINTEGER(6),$);
#148=IFCPROPERTYSINGLEVALUE('Thickness',$,IFCREAL(0.20000000000000001),$);
#149=IFCPROPERTYSINGLEVALUE('Height',$,IFCREAL(3.),$);
#150=IFCPROPERTYSINGLEVALUE('IsExternal',$,IFCBOOLEAN(.T.),$);
#151=IFCWALL('0PR5KJPZ13dxDpMmEskguc',$,'Shell-E',$,$,#168,#158,$,$);
#152=IFCCARTESIANPOINTLIST2D(((14800.,0.),(14800.,6000.),(14600.000000000002,6000.),(14600.000000000002,1.2246467991473532E-14),(14800.,0.)));
#153=IFCINDEXEDPOLYCURVE(#152,$,$);
#154=IFCDIRECTION((0.,0.,1.));
#155=IFCARBITRARYCLOSEDPROFILEDEF(.AREA.,$,#153);
#156=IFCEXTRUDEDAREASOLID(#155,$,#154,3000.);
#157=IFCSHAPEREPRESENTATION(#11,'Body','SweptSolid',(#156));
#158=IFCPRODUCTDEFINITIONSHAPE($,$,(#157));
#164=IFCCARTESIANPOINT((0.,0.,200.));
#165=IFCDIRECTION((0.,0.,1.));
#166=IFCDIRECTION((1.,0.,0.));
#167=IFCAXIS2PLACEMENT3D(#164,#165,#166);
#168=IFCLOCALPLACEMENT(#30,#167);
#169=IFCPROPERTYSET('0ARPUBfub5HOBzMur5cEJ9',$,'EPset_Plan',$,(#171,#172));
#170=IFCRELDEFINESBYPROPERTIES('2FSDHFZKL1gQ_5qjFuCJxz',$,$,$,(#151),#169);
#171=IFCPROPERTYSINGLEVALUE('Polygon2D',$,IFCLABEL('14.8000,0.0000;14.8000,6.0000;14.6000,6.0000;14.6000,0.0000'),$);
#172=IFCPROPERTYSINGLEVALUE('Category',$,IFCLABEL('IfcWall'),$);
#173=IFCPROPERTYSET('2$5OcBtiv7sAp21g9cRHvv',$,'EPset_WallAxis',$,(#175,#176,#177,#178,#179,#180,#181));
#174=IFCRELDEFINESBYPROPERTIES('2y5EFvTf15Kva426I3bLtB',$,$,$,(#151),#173);
#175=IFCPROPERTYSINGLEVALUE('StartX',$,IFCREAL(14.800000000000001),$);
#176=IFCPROPERTYSINGLEVALUE('StartY',$,IFCINTEGER(0),$);
#177=IFCPROPERTYSINGLEVALUE('EndX',$,IFCREAL(14.800000000000001),$);
#178=IFCPROPERTYSINGLEVALUE('EndY',$,IFCINTEGER(6),$);
#179=IFCPROPERTYSINGLEVALUE('Thickness',$,IFCREAL(0.20000000000000001),$);
#180=IFCPROPERTYSINGLEVALUE('Height',$,IFCREAL(3.),$);
#181=IFCPROPERTYSINGLEVALUE('IsExternal',$,IFCBOOLEAN(.T.),$);
#182=IFCWALL('3upzu1REH2CfDp$MKiMSm6',$,'Party-AB-1',$,$,#199,#189,$,$);
#183=IFCCARTESIANPOINTLIST2D(((5000.,200.),(5000.,5800.),(4800.0000000000009,5800.),(4800.,200.),(5000.,200.)));
#184=IFCINDEXEDPOLYCURVE(#183,$,$);
#185=IFCDIRECTION((0.,0.,1.));
#186=IFCARBITRARYCLOSEDPROFILEDEF(.AREA.,$,#184);
#187=IFCEXTRUDEDAREASOLID(#186,$,#185,3000.);
#188=IFCSHAPEREPRESENTATION(#11,'Body','SweptSolid',(#187));
#189=IFCPRODUCTDEFINITIONSHAPE($,$,(#188));
#195=IFCCARTESIANPOINT((0.,0.,200.));
#196=IFCDIRECTION((0.,0.,1.));
#197=IFCDIRECTION((1.,0.,0.));
#198=IFCAXIS2PLACEMENT3D(#195,#196,#197);
#199=IFCLOCALPLACEMENT(#30,#198);
#200=IFCPROPERTYSET('2i5AygWmH8cQAizqTHbCO2',$,'EPset_Plan',$,(#202,#203));
#201=IFCRELDEFINESBYPROPERTIES('3wq_Z1vnnB7xYBuTFBUqkg',$,$,$,(#182),#200);
#202=IFCPROPERTYSINGLEVALUE('Polygon2D',$,IFCLABEL('5.0000,0.2000;5.0000,5.8000;4.8000,5.8000;4.8000,0.2000'),$);
#203=IFCPROPERTYSINGLEVALUE('Category',$,IFCLABEL('IfcWall'),$);
#204=IFCPROPERTYSET('1WFYhklEj6YR8QfXyMXEWl',$,'EPset_WallAxis',$,(#206,#207,#208,#209,#210,#211,#212));
#205=IFCRELDEFINESBYPROPERTIES('2IVXG0db18VfP$ww2XWncn',$,$,$,(#182),#204);
#206=IFCPROPERTYSINGLEVALUE('StartX',$,IFCREAL(5.),$);
#207=IFCPROPERTYSINGLEVALUE('StartY',$,IFCREAL(0.20000000000000001),$);
#208=IFCPROPERTYSINGLEVALUE('EndX',$,IFCREAL(5.),$);
#209=IFCPROPERTYSINGLEVALUE('EndY',$,IFCREAL(5.7999999999999998),$);
#210=IFCPROPERTYSINGLEVALUE('Thickness',$,IFCREAL(0.20000000000000001),$);
#211=IFCPROPERTYSINGLEVALUE('Height',$,IFCREAL(3.),$);
#212=IFCPROPERTYSINGLEVALUE('IsExternal',$,IFCBOOLEAN(.F.),$);
#213=IFCWALL('3nbYv8jqnC0vQlXQpOU2wR',$,'Party-AB-2',$,$,#230,#220,$,$);
#214=IFCCARTESIANPOINTLIST2D(((5019.9999999999991,200.),(5019.9999999999991,5800.),(4820.,5800.),(4819.9999999999991,200.),(5019.9999999999991,200.)));
#215=IFCINDEXEDPOLYCURVE(#214,$,$);
#216=IFCDIRECTION((0.,0.,1.));
#217=IFCARBITRARYCLOSEDPROFILEDEF(.AREA.,$,#215);
#218=IFCEXTRUDEDAREASOLID(#217,$,#216,3000.);
#219=IFCSHAPEREPRESENTATION(#11,'Body','SweptSolid',(#218));
#220=IFCPRODUCTDEFINITIONSHAPE($,$,(#219));
#226=IFCCARTESIANPOINT((0.,0.,200.));
#227=IFCDIRECTION((0.,0.,1.));
#228=IFCDIRECTION((1.,0.,0.));
#229=IFCAXIS2PLACEMENT3D(#226,#227,#228);
#230=IFCLOCALPLACEMENT(#30,#229);
#231=IFCPROPERTYSET('09GLukXwT37eLG_N81cyTt',$,'EPset_Plan',$,(#233,#234));
#232=IFCRELDEFINESBYPROPERTIES('3pLMT1i5L51wVkX_O$lFnl',$,$,$,(#213),#231);
#233=IFCPROPERTYSINGLEVALUE('Polygon2D',$,IFCLABEL('5.0200,0.2000;5.0200,5.8000;4.8200,5.8000;4.8200,0.2000'),$);
#234=IFCPROPERTYSINGLEVALUE('Category',$,IFCLABEL('IfcWall'),$);
#235=IFCPROPERTYSET('0CyII9Ag94heJ5y67ndhZa',$,'EPset_WallAxis',$,(#237,#238,#239,#240,#241,#242,#243));
#236=IFCRELDEFINESBYPROPERTIES('263_N01G19qBQQ6YpXS2GV',$,$,$,(#213),#235);
#237=IFCPROPERTYSINGLEVALUE('StartX',$,IFCREAL(5.0199999999999996),$);
#238=IFCPROPERTYSINGLEVALUE('StartY',$,IFCREAL(0.20000000000000001),$);
#239=IFCPROPERTYSINGLEVALUE('EndX',$,IFCREAL(5.0199999999999996),$);
#240=IFCPROPERTYSINGLEVALUE('EndY',$,IFCREAL(5.7999999999999998),$);
#241=IFCPROPERTYSINGLEVALUE('Thickness',$,IFCREAL(0.20000000000000001),$);
#242=IFCPROPERTYSINGLEVALUE('Height',$,IFCREAL(3.),$);
#243=IFCPROPERTYSINGLEVALUE('IsExternal',$,IFCBOOLEAN(.F.),$);
#244=IFCWALL('2LMwxzbQf9TezR99O46GJP',$,'Party-BC-1',$,$,#261,#251,$,$);
#245=IFCCARTESIANPOINTLIST2D(((10000.,200.),(10000.,5800.),(9800.,5800.),(9800.,200.),(10000.,200.)));
#246=IFCINDEXEDPOLYCURVE(#245,$,$);
#247=IFCDIRECTION((0.,0.,1.));
#248=IFCARBITRARYCLOSEDPROFILEDEF(.AREA.,$,#246);
#249=IFCEXTRUDEDAREASOLID(#248,$,#247,3000.);
#250=IFCSHAPEREPRESENTATION(#11,'Body','SweptSolid',(#249));
#251=IFCPRODUCTDEFINITIONSHAPE($,$,(#250));
#257=IFCCARTESIANPOINT((0.,0.,200.));
#258=IFCDIRECTION((0.,0.,1.));
#259=IFCDIRECTION((1.,0.,0.));
#260=IFCAXIS2PLACEMENT3D(#257,#258,#259);
#261=IFCLOCALPLACEMENT(#30,#260);
#262=IFCPROPERTYSET('3uHaQwTc51eAlmrZKJlVSj',$,'EPset_Plan',$,(#264,#265));
#263=IFCRELDEFINESBYPROPERTIES('1s4AvC9Eb8rQA07sl12Xvs',$,$,$,(#244),#262);
#264=IFCPROPERTYSINGLEVALUE('Polygon2D',$,IFCLABEL('10.0000,0.2000;10.0000,5.8000;9.8000,5.8000;9.8000,0.2000'),$);
#265=IFCPROPERTYSINGLEVALUE('Category',$,IFCLABEL('IfcWall'),$);
#266=IFCPROPERTYSET('00$UdwmazAqRSuiGTuVZJF',$,'EPset_WallAxis',$,(#268,#269,#270,#271,#272,#273,#274));
#267=IFCRELDEFINESBYPROPERTIES('1twLfH8Fn6tu$1QcSExNI0',$,$,$,(#244),#266);
#268=IFCPROPERTYSINGLEVALUE('StartX',$,IFCREAL(10.),$);
#269=IFCPROPERTYSINGLEVALUE('StartY',$,IFCREAL(0.20000000000000001),$);
#270=IFCPROPERTYSINGLEVALUE('EndX',$,IFCREAL(10.),$);
#271=IFCPROPERTYSINGLEVALUE('EndY',$,IFCREAL(5.7999999999999998),$);
#272=IFCPROPERTYSINGLEVALUE('Thickness',$,IFCREAL(0.20000000000000001),$);
#273=IFCPROPERTYSINGLEVALUE('Height',$,IFCREAL(3.),$);
#274=IFCPROPERTYSINGLEVALUE('IsExternal',$,IFCBOOLEAN(.F.),$);
#275=IFCWALL('3Upea9EBXChP1MrldPswV_',$,'Party-BC-2',$,$,#292,#282,$,$);
#276=IFCCARTESIANPOINTLIST2D(((10020.,200.),(10020.,5800.),(9820.,5800.),(9820.,200.),(10020.,200.)));
#277=IFCINDEXEDPOLYCURVE(#276,$,$);
#278=IFCDIRECTION((0.,0.,1.));
#279=IFCARBITRARYCLOSEDPROFILEDEF(.AREA.,$,#277);
#280=IFCEXTRUDEDAREASOLID(#279,$,#278,3000.);
#281=IFCSHAPEREPRESENTATION(#11,'Body','SweptSolid',(#280));
#282=IFCPRODUCTDEFINITIONSHAPE($,$,(#281));
#288=IFCCARTESIANPOINT((0.,0.,200.));
#289=IFCDIRECTION((0.,0.,1.));
#290=IFCDIRECTION((1.,0.,0.));
#291=IFCAXIS2PLACEMENT3D(#288,#289,#290);
#292=IFCLOCALPLACEMENT(#30,#291);
#293=IFCPROPERTYSET('3yN7XSe791tBdxF$QC8FJH',$,'EPset_Plan',$,(#295,#296));
#294=IFCRELDEFINESBYPROPERTIES('0wrSJSMFL38hYIuTEWkPjS',$,$,$,(#275),#293);
#295=IFCPROPERTYSINGLEVALUE('Polygon2D',$,IFCLABEL('10.0200,0.2000;10.0200,5.8000;9.8200,5.8000;9.8200,0.2000'),$);
#296=IFCPROPERTYSINGLEVALUE('Category',$,IFCLABEL('IfcWall'),$);
#297=IFCPROPERTYSET('19al$QE_15ogOBHSiY6NYD',$,'EPset_WallAxis',$,(#299,#300,#301,#302,#303,#304,#305));
#298=IFCRELDEFINESBYPROPERTIES('2EYx4EWj991g99iPnO0U0s',$,$,$,(#275),#297);
#299=IFCPROPERTYSINGLEVALUE('StartX',$,IFCREAL(10.02),$);
#300=IFCPROPERTYSINGLEVALUE('StartY',$,IFCREAL(0.20000000000000001),$);
#301=IFCPROPERTYSINGLEVALUE('EndX',$,IFCREAL(10.02),$);
#302=IFCPROPERTYSINGLEVALUE('EndY',$,IFCREAL(5.7999999999999998),$);
#303=IFCPROPERTYSINGLEVALUE('Thickness',$,IFCREAL(0.20000000000000001),$);
#304=IFCPROPERTYSINGLEVALUE('Height',$,IFCREAL(3.),$);
#305=IFCPROPERTYSINGLEVALUE('IsExternal',$,IFCBOOLEAN(.F.),$);
#306=IFCSPACE('36k_8V$vf3KBauAdSpANaq',$,'Terrace Block',$,$,#324,#313,$,$,$,$);
#307=IFCCARTESIANPOINTLIST2D(((200.,200.),(14600.,200.),(14600.,5599.9999999999991),(200.,5599.9999999999991),(200.,200.)));
#308=IFCINDEXEDPOLYCURVE(#307,$,$);
#309=IFCDIRECTION((0.,0.,1.));
#310=IFCARBITRARYCLOSEDPROFILEDEF(.AREA.,$,#308);
#311=IFCEXTRUDEDAREASOLID(#310,$,#309,2799.9999999999995);
#312=IFCSHAPEREPRESENTATION(#11,'Body','SweptSolid',(#311));
#313=IFCPRODUCTDEFINITIONSHAPE($,$,(#312));
#319=IFCRELAGGREGATES('0ijFiwUKXAgAdiRo$FPzyO',$,$,$,#16,(#306));
#320=IFCCARTESIANPOINT((0.,0.,200.));
#321=IFCDIRECTION((0.,0.,1.));
#322=IFCDIRECTION((1.,0.,0.));
#323=IFCAXIS2PLACEMENT3D(#320,#321,#322);
#324=IFCLOCALPLACEMENT(#30,#323);
#325=IFCPROPERTYSET('1WZSEYXnr61h$y_QF5WSTR',$,'EPset_Plan',$,(#327,#328,#329,#330,#331));
#326=IFCRELDEFINESBYPROPERTIES('2Z8252ccf58uNmCrRGxto2',$,$,$,(#306),#325);
#327=IFCPROPERTYSINGLEVALUE('Polygon2D',$,IFCLABEL('0.2000,0.2000;14.6000,0.2000;14.6000,5.6000;0.2000,5.6000'),$);
#328=IFCPROPERTYSINGLEVALUE('Category',$,IFCLABEL('IfcSpace'),$);
#329=IFCPROPERTYSINGLEVALUE('Label',$,IFCLABEL('Terrace Block'),$);
#330=IFCPROPERTYSINGLEVALUE('LabelX',$,IFCREAL(7.4000000000000004),$);
#331=IFCPROPERTYSINGLEVALUE('LabelY',$,IFCREAL(2.8999999999999999),$);
#332=IFCELEMENTQUANTITY('0EZN8L119BzAxpDae8aUES',$,'Qto_SpaceBaseQuantities',$,'BaseQuantities',(#334));
#333=IFCRELDEFINESBYPROPERTIES('0cak6bntPBcuETsWk7Cl4k',$,$,$,(#306),#332);
#334=IFCQUANTITYAREA('NetFloorArea',$,$,77.760000000000005,$);
ENDSEC;
END-ISO-10303-21;
