ISO-10303-21;
HEADER;
FILE_DESCRIPTION(('ViewDefinition [CoordinationView]'),'2;1');
FILE_NAME('','2026-05-22T17:03:02',(''),(''),'IfcOpenShell 0.8.5-1c5b825','IfcOpenShell 0.8.5-1c5b825','');
FILE_SCHEMA(('IFC2X3'));
ENDSEC;
DATA;
#1=IFCPERSON('EW','Engiworld','Task',$,$,$,$,$);
#2=IFCORGANIZATION('EW','Engiworld',$,$,$);
#3=IFCPERSONANDORGANIZATION(#1,#2,$);
#4=IFCACTORROLE(.USERDEFINED.,'CONTRIBUTOR',$);
#5=IFCORGANIZATION('IfcOpenShell','IfcOpenShell','IfcOpenShell is an open source software library that helps users and software developers to work with IFC data.',(#4),(#6));
#6=IFCTELECOMADDRESS(.USERDEFINED.,$,'WEBPAGE',$,$,$,$,'https://ifcopenshell.org');
#7=IFCAPPLICATION(#5,'0.8.5','Engiworld IFC Generator','Engiworld');
#8=IFCOWNERHISTORY(#3,#7,.READWRITE.,.ADDED.,1779440582,#3,#7,1779440582);
#9=IFCPROJECT('0Yhej8igXEbegMbLYKVD$_',#8,'v-archicad-simple-task-07-windows init',$,$,$,$,(#18),#13);
#10=IFCSIUNIT(*,.LENGTHUNIT.,.MILLI.,.METRE.);
#11=IFCSIUNIT(*,.AREAUNIT.,$,.SQUARE_METRE.);
#12=IFCSIUNIT(*,.VOLUMEUNIT.,$,.CUBIC_METRE.);
#13=IFCUNITASSIGNMENT((#11,#12,#10));
#14=IFCCARTESIANPOINT((0.,0.,0.));
#15=IFCDIRECTION((0.,0.,1.));
#16=IFCDIRECTION((1.,0.,0.));
#17=IFCAXIS2PLACEMENT3D(#14,#15,#16);
#18=IFCGEOMETRICREPRESENTATIONCONTEXT($,'Model',3,1.0000000000000001E-05,#17,$);
#19=IFCGEOMETRICREPRESENTATIONSUBCONTEXT('Body','Model',*,*,*,*,#18,$,.MODEL_VIEW.,$);
#20=IFCOWNERHISTORY(#3,#7,.READWRITE.,.ADDED.,1779440582,#3,#7,1779440582);
#21=IFCSITE('3so20IX2TFAPc8aR3S$i1n',#20,'Default Site',$,$,$,$,$,.ELEMENT.,$,$,$,$,$);
#22=IFCOWNERHISTORY(#3,#7,.READWRITE.,.ADDED.,1779440582,#3,#7,1779440582);
#23=IFCBUILDING('1GufD$Cz16jgPwclmCFQHB',#22,'Archicad Init Building',$,$,$,$,$,.ELEMENT.,$,$,$);
#24=IFCOWNERHISTORY(#3,#7,.READWRITE.,.ADDED.,1779440582,#3,#7,1779440582);
#25=IFCRELAGGREGATES('1rLW8fnhr3jfzQ2URqW9LD',#24,$,$,#9,(#21));
#26=IFCOWNERHISTORY(#3,#7,.READWRITE.,.ADDED.,1779440582,#3,#7,1779440582);
#27=IFCRELAGGREGATES('3A08uYYmb58u2rfSI$ofOw',#26,$,$,#21,(#23));
#28=IFCOWNERHISTORY(#3,#7,.READWRITE.,.MODIFIED.,1779440582,#3,#7,1779440582);
#29=IFCBUILDINGSTOREY('0kxmQ1NGzBLAbjaDYiKQ4o',#28,'Ground Floor',$,$,#36,$,$,.ELEMENT.,$);
#30=IFCOWNERHISTORY(#3,#7,.READWRITE.,.ADDED.,1779440582,#3,#7,1779440582);
#31=IFCRELAGGREGATES('3j$08IXnHCBOI7$FqdT_9v',#30,$,$,#23,(#29));
#32=IFCCARTESIANPOINT((0.,0.,0.));
#33=IFCDIRECTION((0.,0.,1.));
#34=IFCDIRECTION((1.,0.,0.));
#35=IFCAXIS2PLACEMENT3D(#32,#33,#34);
#36=IFCLOCALPLACEMENT($,#35);
#37=IFCOWNERHISTORY(#3,#7,.READWRITE.,.MODIFIED.,1779440582,#3,#7,1779440582);
#38=IFCWALL('2QEhDJ4KH5qglQBHl4Kglj',#37,'Exterior Wall 1',$,$,#65,#53,$);
#39=IFCCARTESIANPOINT((0.,0.));
#40=IFCCARTESIANPOINT((0.,200.));
#41=IFCCARTESIANPOINT((6000.,200.));
#42=IFCCARTESIANPOINT((6000.,0.));
#43=IFCCARTESIANPOINT((0.,0.));
#44=IFCPOLYLINE((#39,#40,#41,#42,#43));
#45=IFCDIRECTION((0.,0.,1.));
#46=IFCARBITRARYCLOSEDPROFILEDEF(.AREA.,$,#44);
#47=IFCCARTESIANPOINT((0.,0.,0.));
#48=IFCDIRECTION((0.,0.,1.));
#49=IFCDIRECTION((1.,0.,0.));
#50=IFCAXIS2PLACEMENT3D(#47,#48,#49);
#51=IFCEXTRUDEDAREASOLID(#46,#50,#45,3000.);
#52=IFCSHAPEREPRESENTATION(#19,'Body','SweptSolid',(#51));
#53=IFCPRODUCTDEFINITIONSHAPE($,$,(#52));
#59=IFCOWNERHISTORY(#3,#7,.READWRITE.,.MODIFIED.,1779440582,#3,#7,1779440582);
#60=IFCRELCONTAINEDINSPATIALSTRUCTURE('0hY4Ta9enEdgf$$XGk$DXd',#59,$,$,(#38,#94,#67,#148,#121),#29);
#61=IFCCARTESIANPOINT((0.,0.,0.));
#62=IFCDIRECTION((0.,0.,1.));
#63=IFCDIRECTION((1.,0.,0.));
#64=IFCAXIS2PLACEMENT3D(#61,#62,#63);
#65=IFCLOCALPLACEMENT(#36,#64);
#66=IFCOWNERHISTORY(#3,#7,.READWRITE.,.MODIFIED.,1779440582,#3,#7,1779440582);
#67=IFCWALL('2QVvdBOZX2jRb0fZ$qwnWT',#66,'Exterior Wall 2',$,$,#92,#82,$);
#68=IFCCARTESIANPOINT((0.,0.));
#69=IFCCARTESIANPOINT((0.,200.));
#70=IFCCARTESIANPOINT((6000.,200.));
#71=IFCCARTESIANPOINT((6000.,0.));
#72=IFCCARTESIANPOINT((0.,0.));
#73=IFCPOLYLINE((#68,#69,#70,#71,#72));
#74=IFCDIRECTION((0.,0.,1.));
#75=IFCARBITRARYCLOSEDPROFILEDEF(.AREA.,$,#73);
#76=IFCCARTESIANPOINT((0.,0.,0.));
#77=IFCDIRECTION((0.,0.,1.));
#78=IFCDIRECTION((1.,0.,0.));
#79=IFCAXIS2PLACEMENT3D(#76,#77,#78);
#80=IFCEXTRUDEDAREASOLID(#75,#79,#74,3000.);
#81=IFCSHAPEREPRESENTATION(#19,'Body','SweptSolid',(#80));
#82=IFCPRODUCTDEFINITIONSHAPE($,$,(#81));
#88=IFCCARTESIANPOINT((0.,4000.,0.));
#89=IFCDIRECTION((0.,0.,1.));
#90=IFCDIRECTION((1.,0.,0.));
#91=IFCAXIS2PLACEMENT3D(#88,#89,#90);
#92=IFCLOCALPLACEMENT(#36,#91);
#93=IFCOWNERHISTORY(#3,#7,.READWRITE.,.MODIFIED.,1779440582,#3,#7,1779440582);
#94=IFCWALL('35oWlkXOPBiuDRT1pxntAk',#93,'Exterior Wall 3',$,$,#119,#109,$);
#95=IFCCARTESIANPOINT((0.,0.));
#96=IFCCARTESIANPOINT((0.,200.));
#97=IFCCARTESIANPOINT((4000.,200.));
#98=IFCCARTESIANPOINT((4000.,0.));
#99=IFCCARTESIANPOINT((0.,0.));
#100=IFCPOLYLINE((#95,#96,#97,#98,#99));
#101=IFCDIRECTION((0.,0.,1.));
#102=IFCARBITRARYCLOSEDPROFILEDEF(.AREA.,$,#100);
#103=IFCCARTESIANPOINT((0.,0.,0.));
#104=IFCDIRECTION((0.,0.,1.));
#105=IFCDIRECTION((1.,0.,0.));
#106=IFCAXIS2PLACEMENT3D(#103,#104,#105);
#107=IFCEXTRUDEDAREASOLID(#102,#106,#101,3000.);
#108=IFCSHAPEREPRESENTATION(#19,'Body','SweptSolid',(#107));
#109=IFCPRODUCTDEFINITIONSHAPE($,$,(#108));
#115=IFCCARTESIANPOINT((0.,0.,0.));
#116=IFCDIRECTION((0.,0.,1.));
#117=IFCDIRECTION((6.123233995736766E-17,1.,0.));
#118=IFCAXIS2PLACEMENT3D(#115,#116,#117);
#119=IFCLOCALPLACEMENT(#36,#118);
#120=IFCOWNERHISTORY(#3,#7,.READWRITE.,.MODIFIED.,1779440582,#3,#7,1779440582);
#121=IFCWALL('082eSLC3LAeQPw3Q4dhPD2',#120,'Exterior Wall 4',$,$,#146,#136,$);
#122=IFCCARTESIANPOINT((0.,0.));
#123=IFCCARTESIANPOINT((0.,200.));
#124=IFCCARTESIANPOINT((4000.,200.));
#125=IFCCARTESIANPOINT((4000.,0.));
#126=IFCCARTESIANPOINT((0.,0.));
#127=IFCPOLYLINE((#122,#123,#124,#125,#126));
#128=IFCDIRECTION((0.,0.,1.));
#129=IFCARBITRARYCLOSEDPROFILEDEF(.AREA.,$,#127);
#130=IFCCARTESIANPOINT((0.,0.,0.));
#131=IFCDIRECTION((0.,0.,1.));
#132=IFCDIRECTION((1.,0.,0.));
#133=IFCAXIS2PLACEMENT3D(#130,#131,#132);
#134=IFCEXTRUDEDAREASOLID(#129,#133,#128,3000.);
#135=IFCSHAPEREPRESENTATION(#19,'Body','SweptSolid',(#134));
#136=IFCPRODUCTDEFINITIONSHAPE($,$,(#135));
#142=IFCCARTESIANPOINT((6000.,0.,0.));
#143=IFCDIRECTION((0.,0.,1.));
#144=IFCDIRECTION((6.123233995736766E-17,1.,0.));
#145=IFCAXIS2PLACEMENT3D(#142,#143,#144);
#146=IFCLOCALPLACEMENT(#36,#145);
#147=IFCOWNERHISTORY(#3,#7,.READWRITE.,.MODIFIED.,1779440582,#3,#7,1779440582);
#148=IFCSLAB('02FAioHyL4vg3g8gByJx0g',#147,'Floor Slab 1',$,$,#173,#163,$,$);
#149=IFCCARTESIANPOINT((0.,0.));
#150=IFCCARTESIANPOINT((6000.,0.));
#151=IFCCARTESIANPOINT((6000.,4000.));
#152=IFCCARTESIANPOINT((0.,4000.));
#153=IFCCARTESIANPOINT((0.,0.));
#154=IFCPOLYLINE((#149,#150,#151,#152,#153));
#155=IFCDIRECTION((0.,0.,1.));
#156=IFCCARTESIANPOINT((0.,0.,0.));
#157=IFCDIRECTION((0.,0.,1.));
#158=IFCDIRECTION((1.,0.,0.));
#159=IFCAXIS2PLACEMENT3D(#156,#157,#158);
#160=IFCARBITRARYCLOSEDPROFILEDEF(.AREA.,$,#154);
#161=IFCEXTRUDEDAREASOLID(#160,#159,#155,200.);
#162=IFCSHAPEREPRESENTATION(#19,'Body','SweptSolid',(#161));
#163=IFCPRODUCTDEFINITIONSHAPE($,$,(#162));
#169=IFCCARTESIANPOINT((0.,0.,0.));
#170=IFCDIRECTION((0.,0.,1.));
#171=IFCDIRECTION((1.,0.,0.));
#172=IFCAXIS2PLACEMENT3D(#169,#170,#171);
#173=IFCLOCALPLACEMENT(#36,#172);
#174=IFCOWNERHISTORY(#3,#7,.READWRITE.,.MODIFIED.,1779440582,#3,#7,1779440582);
#175=IFCSPACE('2niomsYHj9xO6$oBPYhANe',#174,'ROOM 101',$,$,#197,#192,$,.ELEMENT.,$,$);
#176=IFCOWNERHISTORY(#3,#7,.READWRITE.,.ADDED.,1779440582,#3,#7,1779440582);
#177=IFCRELAGGREGATES('3eXmonM3H3EBlBt2X_vfya',#176,$,$,#29,(#175));
#178=IFCCARTESIANPOINT((0.,0.));
#179=IFCCARTESIANPOINT((5750.,0.));
#180=IFCCARTESIANPOINT((5750.,3750.));
#181=IFCCARTESIANPOINT((0.,3750.));
#182=IFCCARTESIANPOINT((0.,0.));
#183=IFCPOLYLINE((#178,#179,#180,#181,#182));
#184=IFCDIRECTION((0.,0.,1.));
#185=IFCCARTESIANPOINT((0.,0.,0.));
#186=IFCDIRECTION((0.,0.,1.));
#187=IFCDIRECTION((1.,0.,0.));
#188=IFCAXIS2PLACEMENT3D(#185,#186,#187);
#189=IFCARBITRARYCLOSEDPROFILEDEF(.AREA.,$,#183);
#190=IFCEXTRUDEDAREASOLID(#189,#188,#184,2799.9999999999995);
#191=IFCSHAPEREPRESENTATION(#19,'Body','SweptSolid',(#190));
#192=IFCPRODUCTDEFINITIONSHAPE($,$,(#191));
#193=IFCCARTESIANPOINT((100.,100.,0.));
#194=IFCDIRECTION((0.,0.,1.));
#195=IFCDIRECTION((1.,0.,0.));
#196=IFCAXIS2PLACEMENT3D(#193,#194,#195);
#197=IFCLOCALPLACEMENT(#36,#196);
ENDSEC;
END-ISO-10303-21;
