ISO-10303-21;
HEADER;
FILE_DESCRIPTION(('ViewDefinition[DesignTransferView]'),'2;1');
FILE_NAME('/dev/null','2026-04-23T22:19:40+08:00',(''),(''),'IfcOpenShell 0.8.4','IfcOpenShell 0.8.4','Nobody');
FILE_SCHEMA(('IFC4'));
ENDSEC;
DATA;
#1=IFCPROJECT('314ypJ4DX3kuRsiBx33YVn',$,'SK-C-24 House',$,$,$,$,(#10),#5);
#2=IFCSIUNIT(*,.LENGTHUNIT.,$,.METRE.);
#3=IFCSIUNIT(*,.AREAUNIT.,$,.SQUARE_METRE.);
#4=IFCSIUNIT(*,.VOLUMEUNIT.,$,.CUBIC_METRE.);
#5=IFCUNITASSIGNMENT((#3,#4,#2));
#6=IFCCARTESIANPOINT((0.,0.,0.));
#7=IFCDIRECTION((0.,0.,1.));
#8=IFCDIRECTION((1.,0.,0.));
#9=IFCAXIS2PLACEMENT3D(#6,#7,#8);
#10=IFCGEOMETRICREPRESENTATIONCONTEXT($,'Model',3,1.E-05,#9,$);
#11=IFCGEOMETRICREPRESENTATIONSUBCONTEXT('Body','Model',*,*,*,*,#10,$,.MODEL_VIEW.,$);
#12=IFCSITE('3grc3llDfCIQl$9nqqE8Zz',$,'Site',$,$,$,$,$,$,$,$,$,$,$);
#13=IFCBUILDING('1IXNAuW2zEzvfIIGNQojP8',$,'House',$,$,$,$,$,$,$,$,$);
#14=IFCBUILDINGSTOREY('2hfcIWIBv0vA4ag_ioE1Fh',$,'Ground Floor',$,$,$,$,$,$,$);
#15=IFCRELAGGREGATES('2ESJG6g4nDSgf04u2yvzlO',$,$,$,#1,(#12));
#16=IFCRELAGGREGATES('3TyqGP2If4VAjKeI4Ec2sR',$,$,$,#12,(#13));
#17=IFCRELAGGREGATES('2zrs9v8O139fWy6K8tR83f',$,$,$,#13,(#14));
#18=IFCWALL('1KYf2yKz57XQACS9B$fAaM',$,'W_S',$,$,$,#50,$,$);
#19=IFCCARTESIANPOINTLIST3D(((0.,0.,0.),(2.,0.,0.),(3.,0.,0.),(0.,0.,3.),(2.,0.,2.),(3.,0.,2.),(0.,0.200000002980232,0.),(2.,0.200000002980232,0.),(3.,0.200000002980232,0.),(0.,0.200000002980232,3.),(2.,0.200000002980232,2.),(3.,0.200000002980232,2.),(8.,0.,0.),(8.,0.,3.),(8.,0.200000002980232,0.),(8.,0.200000002980232,3.)));
#20=IFCINDEXEDPOLYGONALFACE((1,2,5));
#21=IFCINDEXEDPOLYGONALFACE((1,7,2));
#22=IFCINDEXEDPOLYGONALFACE((1,5,4));
#23=IFCINDEXEDPOLYGONALFACE((4,5,6));
#24=IFCINDEXEDPOLYGONALFACE((1,4,10));
#25=IFCINDEXEDPOLYGONALFACE((4,6,14));
#26=IFCINDEXEDPOLYGONALFACE((7,8,2));
#27=IFCINDEXEDPOLYGONALFACE((1,10,7));
#28=IFCINDEXEDPOLYGONALFACE((7,10,8));
#29=IFCINDEXEDPOLYGONALFACE((10,11,8));
#30=IFCINDEXEDPOLYGONALFACE((4,16,10));
#31=IFCINDEXEDPOLYGONALFACE((10,16,11));
#32=IFCINDEXEDPOLYGONALFACE((13,3,9));
#33=IFCINDEXEDPOLYGONALFACE((13,14,3));
#34=IFCINDEXEDPOLYGONALFACE((13,15,14));
#35=IFCINDEXEDPOLYGONALFACE((14,6,3));
#36=IFCINDEXEDPOLYGONALFACE((4,14,16));
#37=IFCINDEXEDPOLYGONALFACE((15,9,12));
#38=IFCINDEXEDPOLYGONALFACE((13,9,15));
#39=IFCINDEXEDPOLYGONALFACE((16,12,11));
#40=IFCINDEXEDPOLYGONALFACE((14,15,16));
#41=IFCINDEXEDPOLYGONALFACE((15,12,16));
#42=IFCINDEXEDPOLYGONALFACE((2,8,5));
#43=IFCINDEXEDPOLYGONALFACE((12,3,6));
#44=IFCINDEXEDPOLYGONALFACE((5,11,6));
#45=IFCINDEXEDPOLYGONALFACE((9,3,12));
#46=IFCINDEXEDPOLYGONALFACE((5,8,11));
#47=IFCINDEXEDPOLYGONALFACE((11,12,6));
#48=IFCPOLYGONALFACESET(#19,$,(#20,#21,#22,#23,#24,#25,#26,#27,#28,#29,#30,#31,#32,#33,#34,#35,#36,#37,#38,#39,#40,#41,#42,#43,#44,#45,#46,#47),$);
#49=IFCSHAPEREPRESENTATION(#11,'Body','Tessellation',(#48));
#50=IFCPRODUCTDEFINITIONSHAPE($,$,(#49));
#51=IFCWALL('3IfODAZTX69BD0Vj5sKLnG',$,'W_E',$,$,$,#87,$,$);
#52=IFCCARTESIANPOINTLIST3D(((7.80000019073486,0.,0.),(7.80000019073486,2.5,0.899999976158142),(7.80000019073486,0.,3.),(7.80000019073486,2.5,2.40000009536743),(7.80000019073486,3.5,0.899999976158142),(7.80000019073486,6.,0.),(7.80000019073486,3.5,2.40000009536743),(7.80000019073486,6.,3.),(8.,0.,0.),(8.,2.5,0.899999976158142),(8.,0.,3.),(8.,2.5,2.40000009536743),(8.,3.5,0.899999976158142),(8.,6.,0.),(8.,3.5,2.40000009536743),(8.,6.,3.)));
#53=IFCINDEXEDPOLYGONALFACE((1,3,2));
#54=IFCINDEXEDPOLYGONALFACE((1,2,6));
#55=IFCINDEXEDPOLYGONALFACE((1,9,3));
#56=IFCINDEXEDPOLYGONALFACE((1,6,9));
#57=IFCINDEXEDPOLYGONALFACE((3,4,2));
#58=IFCINDEXEDPOLYGONALFACE((3,7,4));
#59=IFCINDEXEDPOLYGONALFACE((6,2,5));
#60=IFCINDEXEDPOLYGONALFACE((6,5,7));
#61=IFCINDEXEDPOLYGONALFACE((3,8,7));
#62=IFCINDEXEDPOLYGONALFACE((6,7,8));
#63=IFCINDEXEDPOLYGONALFACE((3,16,8));
#64=IFCINDEXEDPOLYGONALFACE((6,8,16));
#65=IFCINDEXEDPOLYGONALFACE((9,13,10));
#66=IFCINDEXEDPOLYGONALFACE((9,10,12));
#67=IFCINDEXEDPOLYGONALFACE((3,9,11));
#68=IFCINDEXEDPOLYGONALFACE((3,11,16));
#69=IFCINDEXEDPOLYGONALFACE((9,12,11));
#70=IFCINDEXEDPOLYGONALFACE((11,12,16));
#71=IFCINDEXEDPOLYGONALFACE((6,14,9));
#72=IFCINDEXEDPOLYGONALFACE((6,16,14));
#73=IFCINDEXEDPOLYGONALFACE((9,14,13));
#74=IFCINDEXEDPOLYGONALFACE((14,16,13));
#75=IFCINDEXEDPOLYGONALFACE((16,15,13));
#76=IFCINDEXEDPOLYGONALFACE((16,12,15));
#77=IFCINDEXEDPOLYGONALFACE((2,10,5));
#78=IFCINDEXEDPOLYGONALFACE((2,4,12));
#79=IFCINDEXEDPOLYGONALFACE((5,13,7));
#80=IFCINDEXEDPOLYGONALFACE((4,7,15));
#81=IFCINDEXEDPOLYGONALFACE((2,12,10));
#82=IFCINDEXEDPOLYGONALFACE((4,15,12));
#83=IFCINDEXEDPOLYGONALFACE((5,10,13));
#84=IFCINDEXEDPOLYGONALFACE((7,13,15));
#85=IFCPOLYGONALFACESET(#52,$,(#53,#54,#55,#56,#57,#58,#59,#60,#61,#62,#63,#64,#65,#66,#67,#68,#69,#70,#71,#72,#73,#74,#75,#76,#77,#78,#79,#80,#81,#82,#83,#84),$);
#86=IFCSHAPEREPRESENTATION(#11,'Body','Tessellation',(#85));
#87=IFCPRODUCTDEFINITIONSHAPE($,$,(#86));
#88=IFCWALL('387RWKuFvCy92nTNnV_lja',$,'W_N',$,$,$,#124,$,$);
#89=IFCCARTESIANPOINTLIST3D(((0.,5.80000019073486,0.),(0.,5.80000019073486,3.),(0.,6.,0.),(0.,6.,3.),(5.,5.80000019073486,0.899999976158142),(8.,5.80000019073486,0.),(6.,5.80000019073486,0.899999976158142),(5.,5.80000019073486,2.40000009536743),(6.,5.80000019073486,2.40000009536743),(8.,5.80000019073486,3.),(5.,6.,0.899999976158142),(8.,6.,0.),(6.,6.,0.899999976158142),(5.,6.,2.40000009536743),(6.,6.,2.40000009536743),(8.,6.,3.)));
#90=IFCINDEXEDPOLYGONALFACE((1,5,8));
#91=IFCINDEXEDPOLYGONALFACE((1,3,6));
#92=IFCINDEXEDPOLYGONALFACE((1,8,2));
#93=IFCINDEXEDPOLYGONALFACE((1,2,4));
#94=IFCINDEXEDPOLYGONALFACE((2,8,9));
#95=IFCINDEXEDPOLYGONALFACE((1,4,3));
#96=IFCINDEXEDPOLYGONALFACE((3,4,11));
#97=IFCINDEXEDPOLYGONALFACE((3,11,13));
#98=IFCINDEXEDPOLYGONALFACE((2,16,4));
#99=IFCINDEXEDPOLYGONALFACE((4,14,11));
#100=IFCINDEXEDPOLYGONALFACE((4,15,14));
#101=IFCINDEXEDPOLYGONALFACE((1,6,5));
#102=IFCINDEXEDPOLYGONALFACE((6,7,5));
#103=IFCINDEXEDPOLYGONALFACE((6,10,7));
#104=IFCINDEXEDPOLYGONALFACE((6,12,10));
#105=IFCINDEXEDPOLYGONALFACE((2,9,10));
#106=IFCINDEXEDPOLYGONALFACE((2,10,16));
#107=IFCINDEXEDPOLYGONALFACE((10,9,7));
#108=IFCINDEXEDPOLYGONALFACE((3,12,6));
#109=IFCINDEXEDPOLYGONALFACE((3,13,12));
#110=IFCINDEXEDPOLYGONALFACE((12,13,15));
#111=IFCINDEXEDPOLYGONALFACE((4,16,15));
#112=IFCINDEXEDPOLYGONALFACE((10,12,16));
#113=IFCINDEXEDPOLYGONALFACE((12,15,16));
#114=IFCINDEXEDPOLYGONALFACE((5,7,13));
#115=IFCINDEXEDPOLYGONALFACE((5,11,8));
#116=IFCINDEXEDPOLYGONALFACE((14,9,8));
#117=IFCINDEXEDPOLYGONALFACE((15,7,9));
#118=IFCINDEXEDPOLYGONALFACE((13,11,5));
#119=IFCINDEXEDPOLYGONALFACE((7,15,13));
#120=IFCINDEXEDPOLYGONALFACE((14,8,11));
#121=IFCINDEXEDPOLYGONALFACE((14,15,9));
#122=IFCPOLYGONALFACESET(#89,$,(#90,#91,#92,#93,#94,#95,#96,#97,#98,#99,#100,#101,#102,#103,#104,#105,#106,#107,#108,#109,#110,#111,#112,#113,#114,#115,#116,#117,#118,#119,#120,#121),$);
#123=IFCSHAPEREPRESENTATION(#11,'Body','Tessellation',(#122));
#124=IFCPRODUCTDEFINITIONSHAPE($,$,(#123));
#125=IFCWALL('2x8a8E8gP2RhQdm_k1GQbm',$,'W_W',$,$,$,#141,$,$);
#126=IFCCARTESIANPOINTLIST3D(((0.,0.,0.),(0.,0.,3.),(0.,6.,0.),(0.,6.,3.),(0.2,0.,0.),(0.2,0.,3.),(0.2,6.,0.),(0.2,6.,3.)));
#127=IFCINDEXEDPOLYGONALFACE((2,4,1));
#128=IFCINDEXEDPOLYGONALFACE((5,2,1));
#129=IFCINDEXEDPOLYGONALFACE((1,4,3));
#130=IFCINDEXEDPOLYGONALFACE((3,5,1));
#131=IFCINDEXEDPOLYGONALFACE((2,8,4));
#132=IFCINDEXEDPOLYGONALFACE((6,2,5));
#133=IFCINDEXEDPOLYGONALFACE((6,8,2));
#134=IFCINDEXEDPOLYGONALFACE((4,8,3));
#135=IFCINDEXEDPOLYGONALFACE((7,5,3));
#136=IFCINDEXEDPOLYGONALFACE((3,8,7));
#137=IFCINDEXEDPOLYGONALFACE((7,6,5));
#138=IFCINDEXEDPOLYGONALFACE((8,6,7));
#139=IFCPOLYGONALFACESET(#126,$,(#127,#128,#129,#130,#131,#132,#133,#134,#135,#136,#137,#138),$);
#140=IFCSHAPEREPRESENTATION(#11,'Body','Tessellation',(#139));
#141=IFCPRODUCTDEFINITIONSHAPE($,$,(#140));
#142=IFCDOOR('1FlDWtLPP1V8EzV6cJT7nO',$,'D1',$,$,$,#158,$,$,$,$,$,$);
#143=IFCCARTESIANPOINTLIST3D(((2.,0.08,0.),(2.,0.08,2.),(2.,0.12,0.),(2.,0.12,2.),(3.,0.08,0.),(3.,0.08,2.),(3.,0.12,0.),(3.,0.12,2.)));
#144=IFCINDEXEDPOLYGONALFACE((2,4,1));
#145=IFCINDEXEDPOLYGONALFACE((5,2,1));
#146=IFCINDEXEDPOLYGONALFACE((1,4,3));
#147=IFCINDEXEDPOLYGONALFACE((3,5,1));
#148=IFCINDEXEDPOLYGONALFACE((2,8,4));
#149=IFCINDEXEDPOLYGONALFACE((6,2,5));
#150=IFCINDEXEDPOLYGONALFACE((6,8,2));
#151=IFCINDEXEDPOLYGONALFACE((4,8,3));
#152=IFCINDEXEDPOLYGONALFACE((7,5,3));
#153=IFCINDEXEDPOLYGONALFACE((3,8,7));
#154=IFCINDEXEDPOLYGONALFACE((7,6,5));
#155=IFCINDEXEDPOLYGONALFACE((8,6,7));
#156=IFCPOLYGONALFACESET(#143,$,(#144,#145,#146,#147,#148,#149,#150,#151,#152,#153,#154,#155),$);
#157=IFCSHAPEREPRESENTATION(#11,'Body','Tessellation',(#156));
#158=IFCPRODUCTDEFINITIONSHAPE($,$,(#157));
#159=IFCWINDOW('2xKpSphMH4mg6DNSG2fBYP',$,'W1',$,$,$,#175,$,$,$,$,$,$);
#160=IFCCARTESIANPOINTLIST3D(((7.89,2.5,0.9),(7.89,2.5,2.4),(7.89,3.5,0.9),(7.89,3.5,2.4),(7.91,2.5,0.9),(7.91,2.5,2.4),(7.91,3.5,0.9),(7.91,3.5,2.4)));
#161=IFCINDEXEDPOLYGONALFACE((2,4,1));
#162=IFCINDEXEDPOLYGONALFACE((5,2,1));
#163=IFCINDEXEDPOLYGONALFACE((1,4,3));
#164=IFCINDEXEDPOLYGONALFACE((3,5,1));
#165=IFCINDEXEDPOLYGONALFACE((2,8,4));
#166=IFCINDEXEDPOLYGONALFACE((6,2,5));
#167=IFCINDEXEDPOLYGONALFACE((6,8,2));
#168=IFCINDEXEDPOLYGONALFACE((4,8,3));
#169=IFCINDEXEDPOLYGONALFACE((7,5,3));
#170=IFCINDEXEDPOLYGONALFACE((3,8,7));
#171=IFCINDEXEDPOLYGONALFACE((7,6,5));
#172=IFCINDEXEDPOLYGONALFACE((8,6,7));
#173=IFCPOLYGONALFACESET(#160,$,(#161,#162,#163,#164,#165,#166,#167,#168,#169,#170,#171,#172),$);
#174=IFCSHAPEREPRESENTATION(#11,'Body','Tessellation',(#173));
#175=IFCPRODUCTDEFINITIONSHAPE($,$,(#174));
#176=IFCWINDOW('2gS4fGfI9CmRna36JVRBQT',$,'W2',$,$,$,#192,$,$,$,$,$,$);
#177=IFCCARTESIANPOINTLIST3D(((5.,5.89,0.9),(5.,5.89,2.4),(5.,5.91,0.9),(5.,5.91,2.4),(6.,5.89,0.9),(6.,5.89,2.4),(6.,5.91,0.9),(6.,5.91,2.4)));
#178=IFCINDEXEDPOLYGONALFACE((2,4,1));
#179=IFCINDEXEDPOLYGONALFACE((5,2,1));
#180=IFCINDEXEDPOLYGONALFACE((1,4,3));
#181=IFCINDEXEDPOLYGONALFACE((3,5,1));
#182=IFCINDEXEDPOLYGONALFACE((2,8,4));
#183=IFCINDEXEDPOLYGONALFACE((6,2,5));
#184=IFCINDEXEDPOLYGONALFACE((6,8,2));
#185=IFCINDEXEDPOLYGONALFACE((4,8,3));
#186=IFCINDEXEDPOLYGONALFACE((7,5,3));
#187=IFCINDEXEDPOLYGONALFACE((3,8,7));
#188=IFCINDEXEDPOLYGONALFACE((7,6,5));
#189=IFCINDEXEDPOLYGONALFACE((8,6,7));
#190=IFCPOLYGONALFACESET(#177,$,(#178,#179,#180,#181,#182,#183,#184,#185,#186,#187,#188,#189),$);
#191=IFCSHAPEREPRESENTATION(#11,'Body','Tessellation',(#190));
#192=IFCPRODUCTDEFINITIONSHAPE($,$,(#191));
#193=IFCSLAB('3haxTHE8b3JQr$slfkiN6u',$,'FLOOR',$,$,$,#209,$,.FLOOR.);
#194=IFCCARTESIANPOINTLIST3D(((0.,0.,-0.1),(0.,0.,0.),(0.,6.,-0.1),(0.,6.,0.),(8.,0.,-0.1),(8.,0.,0.),(8.,6.,-0.1),(8.,6.,0.)));
#195=IFCINDEXEDPOLYGONALFACE((2,4,1));
#196=IFCINDEXEDPOLYGONALFACE((5,2,1));
#197=IFCINDEXEDPOLYGONALFACE((1,4,3));
#198=IFCINDEXEDPOLYGONALFACE((3,5,1));
#199=IFCINDEXEDPOLYGONALFACE((2,8,4));
#200=IFCINDEXEDPOLYGONALFACE((6,2,5));
#201=IFCINDEXEDPOLYGONALFACE((6,8,2));
#202=IFCINDEXEDPOLYGONALFACE((4,8,3));
#203=IFCINDEXEDPOLYGONALFACE((7,5,3));
#204=IFCINDEXEDPOLYGONALFACE((3,8,7));
#205=IFCINDEXEDPOLYGONALFACE((7,6,5));
#206=IFCINDEXEDPOLYGONALFACE((8,6,7));
#207=IFCPOLYGONALFACESET(#194,$,(#195,#196,#197,#198,#199,#200,#201,#202,#203,#204,#205,#206),$);
#208=IFCSHAPEREPRESENTATION(#11,'Body','Tessellation',(#207));
#209=IFCPRODUCTDEFINITIONSHAPE($,$,(#208));
#210=IFCSLAB('0lPIRjHgjBAAfSfBz$5S9Z',$,'ROOF',$,$,$,#226,$,.ROOF.);
#211=IFCCARTESIANPOINTLIST3D(((0.,0.,3.),(0.,0.,3.1),(0.,6.,3.),(0.,6.,3.1),(8.,0.,3.),(8.,0.,3.1),(8.,6.,3.),(8.,6.,3.1)));
#212=IFCINDEXEDPOLYGONALFACE((2,4,1));
#213=IFCINDEXEDPOLYGONALFACE((5,2,1));
#214=IFCINDEXEDPOLYGONALFACE((1,4,3));
#215=IFCINDEXEDPOLYGONALFACE((3,5,1));
#216=IFCINDEXEDPOLYGONALFACE((2,8,4));
#217=IFCINDEXEDPOLYGONALFACE((6,2,5));
#218=IFCINDEXEDPOLYGONALFACE((6,8,2));
#219=IFCINDEXEDPOLYGONALFACE((4,8,3));
#220=IFCINDEXEDPOLYGONALFACE((7,5,3));
#221=IFCINDEXEDPOLYGONALFACE((3,8,7));
#222=IFCINDEXEDPOLYGONALFACE((7,6,5));
#223=IFCINDEXEDPOLYGONALFACE((8,6,7));
#224=IFCPOLYGONALFACESET(#211,$,(#212,#213,#214,#215,#216,#217,#218,#219,#220,#221,#222,#223),$);
#225=IFCSHAPEREPRESENTATION(#11,'Body','Tessellation',(#224));
#226=IFCPRODUCTDEFINITIONSHAPE($,$,(#225));
#227=IFCRELCONTAINEDINSPATIALSTRUCTURE('1Cc6A2XK56eAZH08G_s4Ib',$,$,$,(#51,#193,#159,#125,#142,#88,#18,#176,#210),#14);
ENDSEC;
END-ISO-10303-21;
