solid OpenSCAD_Model
  facet normal 1 -0 0
    outer loop
      vertex 40 -15 4
      vertex 40 15 0
      vertex 40 15 4
    endloop
  endfacet
  facet normal 1 0 0
    outer loop
      vertex 40 15 0
      vertex 40 -15 4
      vertex 40 -15 0
    endloop
  endfacet
  facet normal 0 0 1
    outer loop
      vertex 10.9542 -3.7256 4
      vertex 7.31085 -3.755 4
      vertex 10.8972 -4.36754 4
    endloop
  endfacet
  facet normal 0 0 1
    outer loop
      vertex 11.0493 -3.07419 4
      vertex 7.31085 -3.755 4
      vertex 10.9542 -3.7256 4
    endloop
  endfacet
  facet normal 0 0 1
    outer loop
      vertex 11.1824 -2.41331 4
      vertex 7.31085 -3.755 4
      vertex 11.0493 -3.07419 4
    endloop
  endfacet
  facet normal 0 0 1
    outer loop
      vertex 11.3535 -1.74298 4
      vertex 7.31085 -3.755 4
      vertex 11.1824 -2.41331 4
    endloop
  endfacet
  facet normal 0 0 1
    outer loop
      vertex 11.5627 -1.06317 4
      vertex 7.31085 -3.755 4
      vertex 11.3535 -1.74298 4
    endloop
  endfacet
  facet normal 0 0 1
    outer loop
      vertex 7.31085 -3.755 4
      vertex 11.5627 -1.06317 4
      vertex 8.76233 5.22075 4
    endloop
  endfacet
  facet normal 0 0 1
    outer loop
      vertex 11.8098 -0.373886 4
      vertex 8.76233 5.22075 4
      vertex 11.5627 -1.06317 4
    endloop
  endfacet
  facet normal 0 0 1
    outer loop
      vertex 12.1016 0.335159 4
      vertex 8.76233 5.22075 4
      vertex 11.8098 -0.373886 4
    endloop
  endfacet
  facet normal 0 0 1
    outer loop
      vertex 12.4443 1.07426 4
      vertex 8.76233 5.22075 4
      vertex 12.1016 0.335159 4
    endloop
  endfacet
  facet normal 0 0 1
    outer loop
      vertex 12.8379 1.84343 4
      vertex 8.76233 5.22075 4
      vertex 12.4443 1.07426 4
    endloop
  endfacet
  facet normal 0 0 1
    outer loop
      vertex 13.2826 2.64267 4
      vertex 8.76233 5.22075 4
      vertex 12.8379 1.84343 4
    endloop
  endfacet
  facet normal 0 0 1
    outer loop
      vertex 13.7782 3.47197 4
      vertex 8.76233 5.22075 4
      vertex 13.2826 2.64267 4
    endloop
  endfacet
  facet normal 0 0 1
    outer loop
      vertex 14.3248 4.33133 4
      vertex 8.76233 5.22075 4
      vertex 13.7782 3.47197 4
    endloop
  endfacet
  facet normal -0 0 1
    outer loop
      vertex 8.76233 5.22075 4
      vertex 14.3248 4.33133 4
      vertex 14.9224 5.22075 4
    endloop
  endfacet
  facet normal 0 0 1
    outer loop
      vertex 16.3384 5.27763 4
      vertex 40 15 4
      vertex 16.3384 6.46576 4
    endloop
  endfacet
  facet normal 0 0 1
    outer loop
      vertex 40 15 4
      vertex 8.76233 6.46576 4
      vertex 16.3384 6.46576 4
    endloop
  endfacet
  facet normal -0 0 1
    outer loop
      vertex 4.51978 6.46576 4
      vertex 8.76233 5.22075 4
      vertex 8.76233 6.46576 4
    endloop
  endfacet
  facet normal 0 0 1
    outer loop
      vertex 4.51978 -3.755 4
      vertex 8.76233 5.22075 4
      vertex 4.51978 6.46576 4
    endloop
  endfacet
  facet normal 0 0 1
    outer loop
      vertex 40 15 4
      vertex 4.51978 6.46576 4
      vertex 8.76233 6.46576 4
    endloop
  endfacet
  facet normal 0 0 1
    outer loop
      vertex 40 15 4
      vertex 3.16893 6.46576 4
      vertex 4.51978 6.46576 4
    endloop
  endfacet
  facet normal 0 0 1
    outer loop
      vertex -5.52252 6.46576 4
      vertex 0.459091 3.21892 4
      vertex 0.459091 4.60228 4
    endloop
  endfacet
  facet normal 0 0 1
    outer loop
      vertex 0.125488 -3.755 4
      vertex -0.916687 -5 4
      vertex 0.125488 -5 4
    endloop
  endfacet
  facet normal 0 0 1
    outer loop
      vertex 0.459091 3.21892 4
      vertex -5.52252 6.46576 4
      vertex 0.125488 -3.755 4
    endloop
  endfacet
  facet normal 0 0 1
    outer loop
      vertex 0.125488 -3.755 4
      vertex -5.52252 6.46576 4
      vertex -0.916687 -5 4
    endloop
  endfacet
  facet normal 0 0 1
    outer loop
      vertex 3.16893 6.46576 4
      vertex -5.52252 6.46576 4
      vertex 0.459091 4.60228 4
    endloop
  endfacet
  facet normal -0 0 1
    outer loop
      vertex -40 15 4
      vertex 3.16893 6.46576 4
      vertex 40 15 4
    endloop
  endfacet
  facet normal 0 0 1
    outer loop
      vertex 3.16893 6.46576 4
      vertex -40 15 4
      vertex -5.52252 6.46576 4
    endloop
  endfacet
  facet normal 0 0 1
    outer loop
      vertex -7.28845 6.46576 4
      vertex -40 15 4
      vertex -11.9675 -5 4
    endloop
  endfacet
  facet normal 0 0 1
    outer loop
      vertex -5.52252 6.46576 4
      vertex -40 15 4
      vertex -7.28845 6.46576 4
    endloop
  endfacet
  facet normal 0 0 1
    outer loop
      vertex 40 15 4
      vertex 16.3384 5.27763 4
      vertex 40 -15 4
    endloop
  endfacet
  facet normal -0 0 1
    outer loop
      vertex 15.8573 4.53413 4
      vertex 40 -15 4
      vertex 16.3384 5.27763 4
    endloop
  endfacet
  facet normal -0 0 1
    outer loop
      vertex 15.4183 3.83813 4
      vertex 40 -15 4
      vertex 15.8573 4.53413 4
    endloop
  endfacet
  facet normal -0 0 1
    outer loop
      vertex 15.0216 3.18962 4
      vertex 40 -15 4
      vertex 15.4183 3.83813 4
    endloop
  endfacet
  facet normal -0 0 1
    outer loop
      vertex 14.667 2.58861 4
      vertex 40 -15 4
      vertex 15.0216 3.18962 4
    endloop
  endfacet
  facet normal -0 0 1
    outer loop
      vertex 14.3546 2.0351 4
      vertex 40 -15 4
      vertex 14.667 2.58861 4
    endloop
  endfacet
  facet normal -0 0 1
    outer loop
      vertex 14.0844 1.52908 4
      vertex 40 -15 4
      vertex 14.3546 2.0351 4
    endloop
  endfacet
  facet normal -0 0 1
    outer loop
      vertex 13.8564 1.07056 4
      vertex 40 -15 4
      vertex 14.0844 1.52908 4
    endloop
  endfacet
  facet normal -0 0 1
    outer loop
      vertex 13.6569 0.636612 4
      vertex 40 -15 4
      vertex 13.8564 1.07056 4
    endloop
  endfacet
  facet normal -0 0 1
    outer loop
      vertex 13.4722 0.204315 4
      vertex 40 -15 4
      vertex 13.6569 0.636612 4
    endloop
  endfacet
  facet normal -0 0 1
    outer loop
      vertex 13.3022 -0.226303 4
      vertex 40 -15 4
      vertex 13.4722 0.204315 4
    endloop
  endfacet
  facet normal -0 0 1
    outer loop
      vertex 13.147 -0.655273 4
      vertex 40 -15 4
      vertex 13.3022 -0.226303 4
    endloop
  endfacet
  facet normal -0 0 1
    outer loop
      vertex 13.0066 -1.08258 4
      vertex 40 -15 4
      vertex 13.147 -0.655273 4
    endloop
  endfacet
  facet normal -0 0 1
    outer loop
      vertex 12.881 -1.50822 4
      vertex 40 -15 4
      vertex 13.0066 -1.08258 4
    endloop
  endfacet
  facet normal -0 0 1
    outer loop
      vertex 12.7701 -1.93221 4
      vertex 40 -15 4
      vertex 12.881 -1.50822 4
    endloop
  endfacet
  facet normal -0 0 1
    outer loop
      vertex 12.674 -2.35751 4
      vertex 40 -15 4
      vertex 12.7701 -1.93221 4
    endloop
  endfacet
  facet normal -0 0 1
    outer loop
      vertex 12.5927 -2.78714 4
      vertex 40 -15 4
      vertex 12.674 -2.35751 4
    endloop
  endfacet
  facet normal -0 0 1
    outer loop
      vertex 12.5262 -3.22108 4
      vertex 40 -15 4
      vertex 12.5927 -2.78714 4
    endloop
  endfacet
  facet normal -0 0 1
    outer loop
      vertex 12.4744 -3.65935 4
      vertex 40 -15 4
      vertex 12.5262 -3.22108 4
    endloop
  endfacet
  facet normal -0 0 1
    outer loop
      vertex 12.4375 -4.10191 4
      vertex 40 -15 4
      vertex 12.4744 -3.65935 4
    endloop
  endfacet
  facet normal -0 0 1
    outer loop
      vertex 12.4153 -4.5488 4
      vertex 40 -15 4
      vertex 12.4375 -4.10191 4
    endloop
  endfacet
  facet normal -0 0 1
    outer loop
      vertex 12.4079 -5 4
      vertex 40 -15 4
      vertex 12.4153 -4.5488 4
    endloop
  endfacet
  facet normal -0 0 1
    outer loop
      vertex 10.8782 -5 4
      vertex 40 -15 4
      vertex 12.4079 -5 4
    endloop
  endfacet
  facet normal 0 0 1
    outer loop
      vertex 7.31085 -5 4
      vertex 10.8972 -4.36754 4
      vertex 7.31085 -3.755 4
    endloop
  endfacet
  facet normal 0 0 1
    outer loop
      vertex 10.8972 -4.36754 4
      vertex 7.31085 -5 4
      vertex 10.8782 -5 4
    endloop
  endfacet
  facet normal -0 0 1
    outer loop
      vertex 7.31085 -5 4
      vertex 40 -15 4
      vertex 10.8782 -5 4
    endloop
  endfacet
  facet normal -0 0 1
    outer loop
      vertex 0.125488 -5 4
      vertex 40 -15 4
      vertex 7.31085 -5 4
    endloop
  endfacet
  facet normal -0 0 1
    outer loop
      vertex -0.916687 -5 4
      vertex 40 -15 4
      vertex 0.125488 -5 4
    endloop
  endfacet
  facet normal 0 0 1
    outer loop
      vertex -40 -15 4
      vertex -0.916687 -5 4
      vertex -2.50357 -5 4
    endloop
  endfacet
  facet normal -0 0 1
    outer loop
      vertex -9.03793 -1.64732 4
      vertex -2.50357 -5 4
      vertex -3.81372 -1.64732 4
    endloop
  endfacet
  facet normal 0 0 1
    outer loop
      vertex -10.3562 -5 4
      vertex -2.50357 -5 4
      vertex -9.03793 -1.64732 4
    endloop
  endfacet
  facet normal 0 0 1
    outer loop
      vertex -40 -15 4
      vertex -2.50357 -5 4
      vertex -10.3562 -5 4
    endloop
  endfacet
  facet normal 0 0 1
    outer loop
      vertex -40 -15 4
      vertex -10.3562 -5 4
      vertex -11.9675 -5 4
    endloop
  endfacet
  facet normal 0 0 1
    outer loop
      vertex -0.916687 -5 4
      vertex -40 -15 4
      vertex 40 -15 4
    endloop
  endfacet
  facet normal 0 0 1
    outer loop
      vertex -40 -15 4
      vertex -11.9675 -5 4
      vertex -40 15 4
    endloop
  endfacet
  facet normal 0 0 1
    outer loop
      vertex 8.76233 5.22075 4
      vertex 4.51978 -3.755 4
      vertex 7.31085 -3.755 4
    endloop
  endfacet
  facet normal -0 0 1
    outer loop
      vertex 0.459091 3.21892 4
      vertex 3.04677 -3.755 4
      vertex 3.04677 5.06607 4
    endloop
  endfacet
  facet normal 0 0 1
    outer loop
      vertex 3.04677 -3.755 4
      vertex 0.459091 3.21892 4
      vertex 0.125488 -3.755 4
    endloop
  endfacet
  facet normal 0 0 1
    outer loop
      vertex -7.10124 3.33279 4
      vertex -5.75041 3.34911 4
      vertex -5.81552 3.51253 4
    endloop
  endfacet
  facet normal -0 0 1
    outer loop
      vertex -6.49908 5.06607 4
      vertex -6.20605 4.61847 4
      vertex -6.42577 5.29395 4
    endloop
  endfacet
  facet normal -0 0 1
    outer loop
      vertex -6.56119 4.86531 4
      vertex -6.20605 4.61847 4
      vertex -6.49908 5.06607 4
    endloop
  endfacet
  facet normal -0 0 1
    outer loop
      vertex -6.63127 4.64893 4
      vertex -6.20605 4.61847 4
      vertex -6.56119 4.86531 4
    endloop
  endfacet
  facet normal 0 0 1
    outer loop
      vertex -6.70932 4.41693 4
      vertex -6.20605 4.61847 4
      vertex -6.63127 4.64893 4
    endloop
  endfacet
  facet normal 0 0 1
    outer loop
      vertex -6.20605 4.61847 4
      vertex -6.70932 4.41693 4
      vertex -6.14098 4.4192 4
    endloop
  endfacet
  facet normal 0 0 1
    outer loop
      vertex -6.14098 4.4192 4
      vertex -6.70932 4.41693 4
      vertex -6.07588 4.22592 4
    endloop
  endfacet
  facet normal 0 0 1
    outer loop
      vertex -6.79533 4.16931 4
      vertex -6.07588 4.22592 4
      vertex -6.70932 4.41693 4
    endloop
  endfacet
  facet normal 0 0 1
    outer loop
      vertex -6.07588 4.22592 4
      vertex -6.79533 4.16931 4
      vertex -6.0108 4.0386 4
    endloop
  endfacet
  facet normal 0 0 1
    outer loop
      vertex -6.88933 3.90608 4
      vertex -6.0108 4.0386 4
      vertex -6.79533 4.16931 4
    endloop
  endfacet
  facet normal 0 0 1
    outer loop
      vertex -6.0108 4.0386 4
      vertex -6.88933 3.90608 4
      vertex -5.94571 3.85727 4
    endloop
  endfacet
  facet normal 0 0 1
    outer loop
      vertex -5.94571 3.85727 4
      vertex -6.88933 3.90608 4
      vertex -5.88062 3.68192 4
    endloop
  endfacet
  facet normal 0 0 1
    outer loop
      vertex -6.9913 3.62724 4
      vertex -5.88062 3.68192 4
      vertex -6.88933 3.90608 4
    endloop
  endfacet
  facet normal 0 0 1
    outer loop
      vertex -5.88062 3.68192 4
      vertex -6.9913 3.62724 4
      vertex -5.81552 3.51253 4
    endloop
  endfacet
  facet normal 0 0 1
    outer loop
      vertex -7.10124 3.33279 4
      vertex -5.81552 3.51253 4
      vertex -6.9913 3.62724 4
    endloop
  endfacet
  facet normal 0 0 1
    outer loop
      vertex -5.75041 3.34911 4
      vertex -7.10124 3.33279 4
      vertex -4.27753 -0.434845 4
    endloop
  endfacet
  facet normal 0 0 1
    outer loop
      vertex -4.27753 -0.434845 4
      vertex -7.10124 3.33279 4
      vertex -8.56596 -0.434845 4
    endloop
  endfacet
  facet normal 0 0 -1
    outer loop
      vertex -40 -15 0
      vertex 40 15 0
      vertex 40 -15 0
    endloop
  endfacet
  facet normal -0 0 -1
    outer loop
      vertex 40 15 0
      vertex -40 -15 0
      vertex -40 15 0
    endloop
  endfacet
  facet normal -1 0 0
    outer loop
      vertex -40 -15 0
      vertex -40 15 4
      vertex -40 15 0
    endloop
  endfacet
  facet normal -1 -0 0
    outer loop
      vertex -40 15 4
      vertex -40 -15 0
      vertex -40 -15 4
    endloop
  endfacet
  facet normal 0 1 -0
    outer loop
      vertex 40 15 0
      vertex -40 15 4
      vertex 40 15 4
    endloop
  endfacet
  facet normal 0 1 0
    outer loop
      vertex -40 15 4
      vertex 40 15 0
      vertex -40 15 0
    endloop
  endfacet
  facet normal 0 -1 0
    outer loop
      vertex -40 -15 0
      vertex 40 -15 4
      vertex -40 -15 4
    endloop
  endfacet
  facet normal 0 -1 -0
    outer loop
      vertex 40 -15 4
      vertex -40 -15 0
      vertex 40 -15 0
    endloop
  endfacet
  facet normal 0 0 1
    outer loop
      vertex -0.916687 -5 5.5
      vertex -3.81372 -1.64732 5.5
      vertex -2.50357 -5 5.5
    endloop
  endfacet
  facet normal 0 0 1
    outer loop
      vertex -0.916687 -5 5.5
      vertex -4.27753 -0.434845 5.5
      vertex -3.81372 -1.64732 5.5
    endloop
  endfacet
  facet normal 0 0 1
    outer loop
      vertex -5.52252 6.46576 5.5
      vertex -4.27753 -0.434845 5.5
      vertex -0.916687 -5 5.5
    endloop
  endfacet
  facet normal 0 0 1
    outer loop
      vertex -5.52252 6.46576 5.5
      vertex -5.75041 3.34911 5.5
      vertex -4.27753 -0.434845 5.5
    endloop
  endfacet
  facet normal 0 0 1
    outer loop
      vertex -5.52252 6.46576 5.5
      vertex -5.81552 3.51253 5.5
      vertex -5.75041 3.34911 5.5
    endloop
  endfacet
  facet normal 0 0 1
    outer loop
      vertex -5.52252 6.46576 5.5
      vertex -5.88062 3.68192 5.5
      vertex -5.81552 3.51253 5.5
    endloop
  endfacet
  facet normal 0 0 1
    outer loop
      vertex -5.52252 6.46576 5.5
      vertex -5.94571 3.85727 5.5
      vertex -5.88062 3.68192 5.5
    endloop
  endfacet
  facet normal 0 0 1
    outer loop
      vertex -5.52252 6.46576 5.5
      vertex -6.0108 4.0386 5.5
      vertex -5.94571 3.85727 5.5
    endloop
  endfacet
  facet normal 0 0 1
    outer loop
      vertex -5.52252 6.46576 5.5
      vertex -6.07588 4.22592 5.5
      vertex -6.0108 4.0386 5.5
    endloop
  endfacet
  facet normal 0 0 1
    outer loop
      vertex -5.52252 6.46576 5.5
      vertex -6.14098 4.4192 5.5
      vertex -6.07588 4.22592 5.5
    endloop
  endfacet
  facet normal 0 0 1
    outer loop
      vertex -5.52252 6.46576 5.5
      vertex -6.20605 4.61847 5.5
      vertex -6.14098 4.4192 5.5
    endloop
  endfacet
  facet normal 0 0 1
    outer loop
      vertex -5.52252 6.46576 5.5
      vertex -6.42577 5.29395 5.5
      vertex -6.20605 4.61847 5.5
    endloop
  endfacet
  facet normal 0 0 1
    outer loop
      vertex -7.28845 6.46576 5.5
      vertex -6.56119 4.86531 5.5
      vertex -6.49908 5.06607 5.5
    endloop
  endfacet
  facet normal 0 0 1
    outer loop
      vertex -6.56119 4.86531 5.5
      vertex -7.28845 6.46576 5.5
      vertex -6.63127 4.64893 5.5
    endloop
  endfacet
  facet normal 0 0 1
    outer loop
      vertex -7.28845 6.46576 5.5
      vertex -6.49908 5.06607 5.5
      vertex -6.42577 5.29395 5.5
    endloop
  endfacet
  facet normal 0 0 1
    outer loop
      vertex -6.63127 4.64893 5.5
      vertex -7.28845 6.46576 5.5
      vertex -6.70932 4.41693 5.5
    endloop
  endfacet
  facet normal 0 0 1
    outer loop
      vertex -6.70932 4.41693 5.5
      vertex -7.28845 6.46576 5.5
      vertex -6.79533 4.16931 5.5
    endloop
  endfacet
  facet normal 0 0 1
    outer loop
      vertex -6.79533 4.16931 5.5
      vertex -7.28845 6.46576 5.5
      vertex -6.88933 3.90608 5.5
    endloop
  endfacet
  facet normal 0 0 1
    outer loop
      vertex -6.88933 3.90608 5.5
      vertex -7.28845 6.46576 5.5
      vertex -6.9913 3.62724 5.5
    endloop
  endfacet
  facet normal -0 0 1
    outer loop
      vertex -7.28845 6.46576 5.5
      vertex -6.42577 5.29395 5.5
      vertex -5.52252 6.46576 5.5
    endloop
  endfacet
  facet normal 0 0 1
    outer loop
      vertex -6.9913 3.62724 5.5
      vertex -7.28845 6.46576 5.5
      vertex -7.10124 3.33279 5.5
    endloop
  endfacet
  facet normal 0 0 1
    outer loop
      vertex -7.28845 6.46576 5.5
      vertex -8.56596 -0.434845 5.5
      vertex -7.10124 3.33279 5.5
    endloop
  endfacet
  facet normal 0 0 1
    outer loop
      vertex -11.9675 -5 5.5
      vertex -8.56596 -0.434845 5.5
      vertex -7.28845 6.46576 5.5
    endloop
  endfacet
  facet normal 0 0 1
    outer loop
      vertex -8.56596 -0.434845 5.5
      vertex -11.9675 -5 5.5
      vertex -9.03793 -1.64732 5.5
    endloop
  endfacet
  facet normal 0 0 1
    outer loop
      vertex -9.03793 -1.64732 5.5
      vertex -11.9675 -5 5.5
      vertex -10.3562 -5 5.5
    endloop
  endfacet
  facet normal -0 0 1
    outer loop
      vertex -8.56596 -0.434845 5.5
      vertex -3.81372 -1.64732 5.5
      vertex -4.27753 -0.434845 5.5
    endloop
  endfacet
  facet normal 0 0 1
    outer loop
      vertex -3.81372 -1.64732 5.5
      vertex -8.56596 -0.434845 5.5
      vertex -9.03793 -1.64732 5.5
    endloop
  endfacet
  facet normal 0 0 1
    outer loop
      vertex 3.04677 5.06607 5.5
      vertex 4.51978 6.46576 5.5
      vertex 3.16893 6.46576 5.5
    endloop
  endfacet
  facet normal -0 0 1
    outer loop
      vertex 4.51978 -3.755 5.5
      vertex 7.31085 -5 5.5
      vertex 7.31085 -3.755 5.5
    endloop
  endfacet
  facet normal 0 0 1
    outer loop
      vertex 4.51978 6.46576 5.5
      vertex 3.04677 5.06607 5.5
      vertex 4.51978 -3.755 5.5
    endloop
  endfacet
  facet normal 0 0 1
    outer loop
      vertex 3.04677 -3.755 5.5
      vertex 4.51978 -3.755 5.5
      vertex 3.04677 5.06607 5.5
    endloop
  endfacet
  facet normal -0 0 1
    outer loop
      vertex 3.04677 -3.755 5.5
      vertex 7.31085 -5 5.5
      vertex 4.51978 -3.755 5.5
    endloop
  endfacet
  facet normal 0 0 1
    outer loop
      vertex 0.125488 -5 5.5
      vertex 3.04677 -3.755 5.5
      vertex 0.125488 -3.755 5.5
    endloop
  endfacet
  facet normal 0 0 1
    outer loop
      vertex 3.04677 -3.755 5.5
      vertex 0.125488 -5 5.5
      vertex 7.31085 -5 5.5
    endloop
  endfacet
  facet normal 0 0 1
    outer loop
      vertex 0.459091 4.60228 5.5
      vertex 3.04677 5.06607 5.5
      vertex 3.16893 6.46576 5.5
    endloop
  endfacet
  facet normal 0 0 1
    outer loop
      vertex 3.04677 5.06607 5.5
      vertex 0.459091 4.60228 5.5
      vertex 0.459091 3.21892 5.5
    endloop
  endfacet
  facet normal 0 0 1
    outer loop
      vertex 14.9224 5.22075 5.5
      vertex 16.3384 5.27763 5.5
      vertex 16.3384 6.46576 5.5
    endloop
  endfacet
  facet normal 0 0 1
    outer loop
      vertex 16.3384 5.27763 5.5
      vertex 14.9224 5.22075 5.5
      vertex 15.8573 4.53413 5.5
    endloop
  endfacet
  facet normal 0 0 1
    outer loop
      vertex 15.8573 4.53413 5.5
      vertex 14.9224 5.22075 5.5
      vertex 15.4183 3.83813 5.5
    endloop
  endfacet
  facet normal -0 0 1
    outer loop
      vertex 14.3248 4.33133 5.5
      vertex 15.4183 3.83813 5.5
      vertex 14.9224 5.22075 5.5
    endloop
  endfacet
  facet normal -0 0 1
    outer loop
      vertex 8.76233 6.46576 5.5
      vertex 14.9224 5.22075 5.5
      vertex 16.3384 6.46576 5.5
    endloop
  endfacet
  facet normal 0 0 1
    outer loop
      vertex 14.9224 5.22075 5.5
      vertex 8.76233 6.46576 5.5
      vertex 8.76233 5.22075 5.5
    endloop
  endfacet
  facet normal 0 0 1
    outer loop
      vertex 15.4183 3.83813 5.5
      vertex 14.3248 4.33133 5.5
      vertex 15.0216 3.18962 5.5
    endloop
  endfacet
  facet normal -0 0 1
    outer loop
      vertex 13.7782 3.47197 5.5
      vertex 15.0216 3.18962 5.5
      vertex 14.3248 4.33133 5.5
    endloop
  endfacet
  facet normal 0 0 1
    outer loop
      vertex 15.0216 3.18962 5.5
      vertex 13.7782 3.47197 5.5
      vertex 14.667 2.58861 5.5
    endloop
  endfacet
  facet normal -0 0 1
    outer loop
      vertex 13.2826 2.64267 5.5
      vertex 14.667 2.58861 5.5
      vertex 13.7782 3.47197 5.5
    endloop
  endfacet
  facet normal 0 0 1
    outer loop
      vertex 14.667 2.58861 5.5
      vertex 13.2826 2.64267 5.5
      vertex 14.3546 2.0351 5.5
    endloop
  endfacet
  facet normal 0 0 1
    outer loop
      vertex 14.3546 2.0351 5.5
      vertex 13.2826 2.64267 5.5
      vertex 14.0844 1.52908 5.5
    endloop
  endfacet
  facet normal -0 0 1
    outer loop
      vertex 12.8379 1.84343 5.5
      vertex 14.0844 1.52908 5.5
      vertex 13.2826 2.64267 5.5
    endloop
  endfacet
  facet normal 0 0 1
    outer loop
      vertex 14.0844 1.52908 5.5
      vertex 12.8379 1.84343 5.5
      vertex 13.8564 1.07056 5.5
    endloop
  endfacet
  facet normal -0 0 1
    outer loop
      vertex 12.4443 1.07426 5.5
      vertex 13.8564 1.07056 5.5
      vertex 12.8379 1.84343 5.5
    endloop
  endfacet
  facet normal 0 0 1
    outer loop
      vertex 13.8564 1.07056 5.5
      vertex 12.4443 1.07426 5.5
      vertex 13.6569 0.636612 5.5
    endloop
  endfacet
  facet normal 0 0 1
    outer loop
      vertex 13.6569 0.636612 5.5
      vertex 12.4443 1.07426 5.5
      vertex 13.4722 0.204315 5.5
    endloop
  endfacet
  facet normal -0 0 1
    outer loop
      vertex 12.1016 0.335159 5.5
      vertex 13.4722 0.204315 5.5
      vertex 12.4443 1.07426 5.5
    endloop
  endfacet
  facet normal 0 0 1
    outer loop
      vertex 13.4722 0.204315 5.5
      vertex 12.1016 0.335159 5.5
      vertex 13.3022 -0.226303 5.5
    endloop
  endfacet
  facet normal 0 0 1
    outer loop
      vertex 13.3022 -0.226303 5.5
      vertex 12.1016 0.335159 5.5
      vertex 13.147 -0.655273 5.5
    endloop
  endfacet
  facet normal -0 0 1
    outer loop
      vertex 11.8098 -0.373886 5.5
      vertex 13.147 -0.655273 5.5
      vertex 12.1016 0.335159 5.5
    endloop
  endfacet
  facet normal 0 0 1
    outer loop
      vertex 13.147 -0.655273 5.5
      vertex 11.8098 -0.373886 5.5
      vertex 13.0066 -1.08258 5.5
    endloop
  endfacet
  facet normal -0 0 1
    outer loop
      vertex 11.5627 -1.06317 5.5
      vertex 13.0066 -1.08258 5.5
      vertex 11.8098 -0.373886 5.5
    endloop
  endfacet
  facet normal 0 0 1
    outer loop
      vertex 13.0066 -1.08258 5.5
      vertex 11.5627 -1.06317 5.5
      vertex 12.881 -1.50822 5.5
    endloop
  endfacet
  facet normal 0 0 1
    outer loop
      vertex 12.881 -1.50822 5.5
      vertex 11.5627 -1.06317 5.5
      vertex 12.7701 -1.93221 5.5
    endloop
  endfacet
  facet normal -0 0 1
    outer loop
      vertex 11.3535 -1.74298 5.5
      vertex 12.7701 -1.93221 5.5
      vertex 11.5627 -1.06317 5.5
    endloop
  endfacet
  facet normal 0 0 1
    outer loop
      vertex 12.7701 -1.93221 5.5
      vertex 11.3535 -1.74298 5.5
      vertex 12.674 -2.35751 5.5
    endloop
  endfacet
  facet normal 0 0 1
    outer loop
      vertex 11.1824 -2.41331 5.5
      vertex 12.674 -2.35751 5.5
      vertex 11.3535 -1.74298 5.5
    endloop
  endfacet
  facet normal 0 0 1
    outer loop
      vertex 12.674 -2.35751 5.5
      vertex 11.1824 -2.41331 5.5
      vertex 12.5927 -2.78714 5.5
    endloop
  endfacet
  facet normal 0 0 1
    outer loop
      vertex 12.5927 -2.78714 5.5
      vertex 11.1824 -2.41331 5.5
      vertex 12.5262 -3.22108 5.5
    endloop
  endfacet
  facet normal -0 0 1
    outer loop
      vertex 11.0493 -3.07419 5.5
      vertex 12.5262 -3.22108 5.5
      vertex 11.1824 -2.41331 5.5
    endloop
  endfacet
  facet normal 0 0 1
    outer loop
      vertex 12.5262 -3.22108 5.5
      vertex 11.0493 -3.07419 5.5
      vertex 12.4744 -3.65935 5.5
    endloop
  endfacet
  facet normal 0 0 1
    outer loop
      vertex 10.9542 -3.7256 5.5
      vertex 12.4744 -3.65935 5.5
      vertex 11.0493 -3.07419 5.5
    endloop
  endfacet
  facet normal 0 0 1
    outer loop
      vertex 12.4744 -3.65935 5.5
      vertex 10.9542 -3.7256 5.5
      vertex 12.4375 -4.10191 5.5
    endloop
  endfacet
  facet normal 0 0 1
    outer loop
      vertex 10.8972 -4.36754 5.5
      vertex 12.4375 -4.10191 5.5
      vertex 10.9542 -3.7256 5.5
    endloop
  endfacet
  facet normal 0 0 1
    outer loop
      vertex 12.4375 -4.10191 5.5
      vertex 10.8972 -4.36754 5.5
      vertex 12.4153 -4.5488 5.5
    endloop
  endfacet
  facet normal 0 0 1
    outer loop
      vertex 10.8782 -5 5.5
      vertex 12.4153 -4.5488 5.5
      vertex 10.8972 -4.36754 5.5
    endloop
  endfacet
  facet normal 0 0 1
    outer loop
      vertex 12.4153 -4.5488 5.5
      vertex 10.8782 -5 5.5
      vertex 12.4079 -5 5.5
    endloop
  endfacet
  facet normal 0 -1 0
    outer loop
      vertex -9.03793 -1.64732 4
      vertex -3.81372 -1.64732 5.5
      vertex -9.03793 -1.64732 5.5
    endloop
  endfacet
  facet normal 0 -1 -0
    outer loop
      vertex -3.81372 -1.64732 5.5
      vertex -9.03793 -1.64732 4
      vertex -3.81372 -1.64732 4
    endloop
  endfacet
  facet normal -0.931409 -0.363973 0
    outer loop
      vertex -2.50357 -5 4
      vertex -3.81372 -1.64732 5.5
      vertex -3.81372 -1.64732 4
    endloop
  endfacet
  facet normal -0.931409 -0.363973 0
    outer loop
      vertex -3.81372 -1.64732 5.5
      vertex -2.50357 -5 4
      vertex -2.50357 -5 5.5
    endloop
  endfacet
  facet normal 0 -1 0
    outer loop
      vertex -2.50357 -5 4
      vertex -0.916687 -5 5.5
      vertex -2.50357 -5 5.5
    endloop
  endfacet
  facet normal 0 -1 -0
    outer loop
      vertex -0.916687 -5 5.5
      vertex -2.50357 -5 4
      vertex -0.916687 -5 4
    endloop
  endfacet
  facet normal 0.927931 0.372753 0
    outer loop
      vertex -0.916687 -5 5.5
      vertex -5.52252 6.46576 4
      vertex -5.52252 6.46576 5.5
    endloop
  endfacet
  facet normal 0.927931 0.372753 0
    outer loop
      vertex -5.52252 6.46576 4
      vertex -0.916687 -5 5.5
      vertex -0.916687 -5 4
    endloop
  endfacet
  facet normal 0 1 -0
    outer loop
      vertex -5.52252 6.46576 4
      vertex -7.28845 6.46576 5.5
      vertex -5.52252 6.46576 5.5
    endloop
  endfacet
  facet normal 0 1 0
    outer loop
      vertex -7.28845 6.46576 5.5
      vertex -5.52252 6.46576 4
      vertex -7.28845 6.46576 4
    endloop
  endfacet
  facet normal -0.925872 0.377838 0
    outer loop
      vertex -11.9675 -5 4
      vertex -7.28845 6.46576 5.5
      vertex -7.28845 6.46576 4
    endloop
  endfacet
  facet normal -0.925872 0.377838 0
    outer loop
      vertex -7.28845 6.46576 5.5
      vertex -11.9675 -5 4
      vertex -11.9675 -5 5.5
    endloop
  endfacet
  facet normal 0 -1 0
    outer loop
      vertex -11.9675 -5 4
      vertex -10.3562 -5 5.5
      vertex -11.9675 -5 5.5
    endloop
  endfacet
  facet normal 0 -1 -0
    outer loop
      vertex -10.3562 -5 5.5
      vertex -11.9675 -5 4
      vertex -10.3562 -5 4
    endloop
  endfacet
  facet normal 0.930643 -0.365928 0
    outer loop
      vertex -10.3562 -5 5.5
      vertex -9.03793 -1.64732 4
      vertex -9.03793 -1.64732 5.5
    endloop
  endfacet
  facet normal 0.930643 -0.365928 0
    outer loop
      vertex -9.03793 -1.64732 4
      vertex -10.3562 -5 5.5
      vertex -10.3562 -5 4
    endloop
  endfacet
  facet normal 0.932044 -0.362345 0
    outer loop
      vertex -8.56596 -0.434845 5.5
      vertex -7.10124 3.33279 4
      vertex -7.10124 3.33279 5.5
    endloop
  endfacet
  facet normal 0.932044 -0.362345 0
    outer loop
      vertex -7.10124 3.33279 4
      vertex -8.56596 -0.434845 5.5
      vertex -8.56596 -0.434845 4
    endloop
  endfacet
  facet normal 0.936829 -0.349788 0
    outer loop
      vertex -7.10124 3.33279 5.5
      vertex -6.9913 3.62724 4
      vertex -6.9913 3.62724 5.5
    endloop
  endfacet
  facet normal 0.936829 -0.349788 0
    outer loop
      vertex -6.9913 3.62724 4
      vertex -7.10124 3.33279 5.5
      vertex -7.10124 3.33279 4
    endloop
  endfacet
  facet normal 0.939171 -0.343449 0
    outer loop
      vertex -6.9913 3.62724 5.5
      vertex -6.88933 3.90608 4
      vertex -6.88933 3.90608 5.5
    endloop
  endfacet
  facet normal 0.939171 -0.343449 0
    outer loop
      vertex -6.88933 3.90608 4
      vertex -6.9913 3.62724 5.5
      vertex -6.9913 3.62724 4
    endloop
  endfacet
  facet normal 0.941754 -0.336302 0
    outer loop
      vertex -6.88933 3.90608 5.5
      vertex -6.79533 4.16931 4
      vertex -6.79533 4.16931 5.5
    endloop
  endfacet
  facet normal 0.941754 -0.336302 0
    outer loop
      vertex -6.79533 4.16931 4
      vertex -6.88933 3.90608 5.5
      vertex -6.88933 3.90608 4
    endloop
  endfacet
  facet normal 0.944637 -0.328117 0
    outer loop
      vertex -6.79533 4.16931 5.5
      vertex -6.70932 4.41693 4
      vertex -6.70932 4.41693 5.5
    endloop
  endfacet
  facet normal 0.944637 -0.328117 0
    outer loop
      vertex -6.70932 4.41693 4
      vertex -6.79533 4.16931 5.5
      vertex -6.79533 4.16931 4
    endloop
  endfacet
  facet normal 0.947801 -0.318862 0
    outer loop
      vertex -6.70932 4.41693 5.5
      vertex -6.63127 4.64893 4
      vertex -6.63127 4.64893 5.5
    endloop
  endfacet
  facet normal 0.947801 -0.318862 0
    outer loop
      vertex -6.63127 4.64893 4
      vertex -6.70932 4.41693 5.5
      vertex -6.70932 4.41693 4
    endloop
  endfacet
  facet normal 0.951348 -0.308118 0
    outer loop
      vertex -6.63127 4.64893 5.5
      vertex -6.56119 4.86531 4
      vertex -6.56119 4.86531 5.5
    endloop
  endfacet
  facet normal 0.951348 -0.308118 0
    outer loop
      vertex -6.56119 4.86531 4
      vertex -6.63127 4.64893 5.5
      vertex -6.63127 4.64893 4
    endloop
  endfacet
  facet normal 0.955326 -0.295553 0
    outer loop
      vertex -6.56119 4.86531 5.5
      vertex -6.49908 5.06607 4
      vertex -6.49908 5.06607 5.5
    endloop
  endfacet
  facet normal 0.955326 -0.295553 0
    outer loop
      vertex -6.49908 5.06607 4
      vertex -6.56119 4.86531 5.5
      vertex -6.56119 4.86531 4
    endloop
  endfacet
  facet normal 0.951952 -0.306247 0
    outer loop
      vertex -6.49908 5.06607 5.5
      vertex -6.42577 5.29395 4
      vertex -6.42577 5.29395 5.5
    endloop
  endfacet
  facet normal 0.951952 -0.306247 0
    outer loop
      vertex -6.42577 5.29395 4
      vertex -6.49908 5.06607 5.5
      vertex -6.49908 5.06607 4
    endloop
  endfacet
  facet normal -0.950956 -0.309327 0
    outer loop
      vertex -6.20605 4.61847 4
      vertex -6.42577 5.29395 5.5
      vertex -6.42577 5.29395 4
    endloop
  endfacet
  facet normal -0.950956 -0.309327 0
    outer loop
      vertex -6.42577 5.29395 5.5
      vertex -6.20605 4.61847 4
      vertex -6.20605 4.61847 5.5
    endloop
  endfacet
  facet normal -0.950602 -0.310411 0
    outer loop
      vertex -6.14098 4.4192 4
      vertex -6.20605 4.61847 5.5
      vertex -6.20605 4.61847 4
    endloop
  endfacet
  facet normal -0.950602 -0.310411 0
    outer loop
      vertex -6.20605 4.61847 5.5
      vertex -6.14098 4.4192 4
      vertex -6.14098 4.4192 5.5
    endloop
  endfacet
  facet normal -0.947688 -0.319198 0
    outer loop
      vertex -6.07588 4.22592 4
      vertex -6.14098 4.4192 5.5
      vertex -6.14098 4.4192 4
    endloop
  endfacet
  facet normal -0.947688 -0.319198 0
    outer loop
      vertex -6.14098 4.4192 5.5
      vertex -6.07588 4.22592 4
      vertex -6.07588 4.22592 5.5
    endloop
  endfacet
  facet normal -0.944614 -0.328184 0
    outer loop
      vertex -6.0108 4.0386 4
      vertex -6.07588 4.22592 5.5
      vertex -6.07588 4.22592 4
    endloop
  endfacet
  facet normal -0.944614 -0.328184 0
    outer loop
      vertex -6.07588 4.22592 5.5
      vertex -6.0108 4.0386 4
      vertex -6.0108 4.0386 5.5
    endloop
  endfacet
  facet normal -0.941199 -0.337852 0
    outer loop
      vertex -5.94571 3.85727 4
      vertex -6.0108 4.0386 5.5
      vertex -6.0108 4.0386 4
    endloop
  endfacet
  facet normal -0.941199 -0.337852 0
    outer loop
      vertex -6.0108 4.0386 5.5
      vertex -5.94571 3.85727 4
      vertex -5.94571 3.85727 5.5
    endloop
  endfacet
  facet normal -0.937495 -0.347999 0
    outer loop
      vertex -5.88062 3.68192 4
      vertex -5.94571 3.85727 5.5
      vertex -5.94571 3.85727 4
    endloop
  endfacet
  facet normal -0.937495 -0.347999 0
    outer loop
      vertex -5.94571 3.85727 5.5
      vertex -5.88062 3.68192 4
      vertex -5.88062 3.68192 5.5
    endloop
  endfacet
  facet normal -0.933438 -0.358739 0
    outer loop
      vertex -5.81552 3.51253 4
      vertex -5.88062 3.68192 5.5
      vertex -5.88062 3.68192 4
    endloop
  endfacet
  facet normal -0.933438 -0.358739 0
    outer loop
      vertex -5.88062 3.68192 5.5
      vertex -5.81552 3.51253 4
      vertex -5.81552 3.51253 5.5
    endloop
  endfacet
  facet normal -0.928982 -0.370126 0
    outer loop
      vertex -5.75041 3.34911 4
      vertex -5.81552 3.51253 5.5
      vertex -5.81552 3.51253 4
    endloop
  endfacet
  facet normal -0.928982 -0.370126 0
    outer loop
      vertex -5.81552 3.51253 5.5
      vertex -5.75041 3.34911 4
      vertex -5.75041 3.34911 5.5
    endloop
  endfacet
  facet normal -0.931893 -0.362733 0
    outer loop
      vertex -4.27753 -0.434845 4
      vertex -5.75041 3.34911 5.5
      vertex -5.75041 3.34911 4
    endloop
  endfacet
  facet normal -0.931893 -0.362733 0
    outer loop
      vertex -5.75041 3.34911 5.5
      vertex -4.27753 -0.434845 4
      vertex -4.27753 -0.434845 5.5
    endloop
  endfacet
  facet normal 0 1 -0
    outer loop
      vertex -4.27753 -0.434845 4
      vertex -8.56596 -0.434845 5.5
      vertex -4.27753 -0.434845 5.5
    endloop
  endfacet
  facet normal 0 1 0
    outer loop
      vertex -8.56596 -0.434845 5.5
      vertex -4.27753 -0.434845 4
      vertex -8.56596 -0.434845 4
    endloop
  endfacet
  facet normal 0 1 -0
    outer loop
      vertex 7.31085 -3.755 4
      vertex 4.51978 -3.755 5.5
      vertex 7.31085 -3.755 5.5
    endloop
  endfacet
  facet normal 0 1 0
    outer loop
      vertex 4.51978 -3.755 5.5
      vertex 7.31085 -3.755 4
      vertex 4.51978 -3.755 4
    endloop
  endfacet
  facet normal 1 -0 0
    outer loop
      vertex 4.51978 -3.755 5.5
      vertex 4.51978 6.46576 4
      vertex 4.51978 6.46576 5.5
    endloop
  endfacet
  facet normal 1 0 0
    outer loop
      vertex 4.51978 6.46576 4
      vertex 4.51978 -3.755 5.5
      vertex 4.51978 -3.755 4
    endloop
  endfacet
  facet normal 0 1 -0
    outer loop
      vertex 4.51978 6.46576 4
      vertex 3.16893 6.46576 5.5
      vertex 4.51978 6.46576 5.5
    endloop
  endfacet
  facet normal 0 1 0
    outer loop
      vertex 3.16893 6.46576 5.5
      vertex 4.51978 6.46576 4
      vertex 3.16893 6.46576 4
    endloop
  endfacet
  facet normal -0.566625 0.823976 0
    outer loop
      vertex 3.16893 6.46576 4
      vertex 0.459091 4.60228 5.5
      vertex 3.16893 6.46576 5.5
    endloop
  endfacet
  facet normal -0.566625 0.823976 0
    outer loop
      vertex 0.459091 4.60228 5.5
      vertex 3.16893 6.46576 4
      vertex 0.459091 4.60228 4
    endloop
  endfacet
  facet normal -1 0 0
    outer loop
      vertex 0.459091 3.21892 4
      vertex 0.459091 4.60228 5.5
      vertex 0.459091 4.60228 4
    endloop
  endfacet
  facet normal -1 -0 0
    outer loop
      vertex 0.459091 4.60228 5.5
      vertex 0.459091 3.21892 4
      vertex 0.459091 3.21892 5.5
    endloop
  endfacet
  facet normal 0.58099 -0.813911 0
    outer loop
      vertex 0.459091 3.21892 4
      vertex 3.04677 5.06607 5.5
      vertex 0.459091 3.21892 5.5
    endloop
  endfacet
  facet normal 0.58099 -0.813911 0
    outer loop
      vertex 3.04677 5.06607 5.5
      vertex 0.459091 3.21892 4
      vertex 3.04677 5.06607 4
    endloop
  endfacet
  facet normal -1 0 0
    outer loop
      vertex 3.04677 -3.755 4
      vertex 3.04677 5.06607 5.5
      vertex 3.04677 5.06607 4
    endloop
  endfacet
  facet normal -1 -0 0
    outer loop
      vertex 3.04677 5.06607 5.5
      vertex 3.04677 -3.755 4
      vertex 3.04677 -3.755 5.5
    endloop
  endfacet
  facet normal 0 1 -0
    outer loop
      vertex 3.04677 -3.755 4
      vertex 0.125488 -3.755 5.5
      vertex 3.04677 -3.755 5.5
    endloop
  endfacet
  facet normal 0 1 0
    outer loop
      vertex 0.125488 -3.755 5.5
      vertex 3.04677 -3.755 4
      vertex 0.125488 -3.755 4
    endloop
  endfacet
  facet normal -1 0 0
    outer loop
      vertex 0.125488 -5 4
      vertex 0.125488 -3.755 5.5
      vertex 0.125488 -3.755 4
    endloop
  endfacet
  facet normal -1 -0 0
    outer loop
      vertex 0.125488 -3.755 5.5
      vertex 0.125488 -5 4
      vertex 0.125488 -5 5.5
    endloop
  endfacet
  facet normal 0 -1 0
    outer loop
      vertex 0.125488 -5 4
      vertex 7.31085 -5 5.5
      vertex 0.125488 -5 5.5
    endloop
  endfacet
  facet normal 0 -1 -0
    outer loop
      vertex 7.31085 -5 5.5
      vertex 0.125488 -5 4
      vertex 7.31085 -5 4
    endloop
  endfacet
  facet normal 1 -0 0
    outer loop
      vertex 7.31085 -5 5.5
      vertex 7.31085 -3.755 4
      vertex 7.31085 -3.755 5.5
    endloop
  endfacet
  facet normal 1 0 0
    outer loop
      vertex 7.31085 -3.755 4
      vertex 7.31085 -5 5.5
      vertex 7.31085 -5 4
    endloop
  endfacet
  facet normal 0.998768 -0.0496155 0
    outer loop
      vertex 12.4153 -4.5488 5.5
      vertex 12.4375 -4.10191 4
      vertex 12.4375 -4.10191 5.5
    endloop
  endfacet
  facet normal 0.998768 -0.0496155 0
    outer loop
      vertex 12.4375 -4.10191 4
      vertex 12.4153 -4.5488 5.5
      vertex 12.4153 -4.5488 4
    endloop
  endfacet
  facet normal 0.996542 -0.0830902 0
    outer loop
      vertex 12.4375 -4.10191 5.5
      vertex 12.4744 -3.65935 4
      vertex 12.4744 -3.65935 5.5
    endloop
  endfacet
  facet normal 0.996542 -0.0830902 0
    outer loop
      vertex 12.4744 -3.65935 4
      vertex 12.4375 -4.10191 5.5
      vertex 12.4375 -4.10191 4
    endloop
  endfacet
  facet normal 0.993088 -0.117375 0
    outer loop
      vertex 12.4744 -3.65935 5.5
      vertex 12.5262 -3.22108 4
      vertex 12.5262 -3.22108 5.5
    endloop
  endfacet
  facet normal 0.993088 -0.117375 0
    outer loop
      vertex 12.5262 -3.22108 4
      vertex 12.4744 -3.65935 5.5
      vertex 12.4744 -3.65935 4
    endloop
  endfacet
  facet normal 0.988461 -0.151479 0
    outer loop
      vertex 12.5262 -3.22108 5.5
      vertex 12.5927 -2.78714 4
      vertex 12.5927 -2.78714 5.5
    endloop
  endfacet
  facet normal 0.988461 -0.151479 0
    outer loop
      vertex 12.5927 -2.78714 4
      vertex 12.5262 -3.22108 5.5
      vertex 12.5262 -3.22108 4
    endloop
  endfacet
  facet normal 0.982562 -0.185933 0
    outer loop
      vertex 12.5927 -2.78714 5.5
      vertex 12.674 -2.35751 4
      vertex 12.674 -2.35751 5.5
    endloop
  endfacet
  facet normal 0.982562 -0.185933 0
    outer loop
      vertex 12.674 -2.35751 4
      vertex 12.5927 -2.78714 5.5
      vertex 12.5927 -2.78714 4
    endloop
  endfacet
  facet normal 0.975409 -0.220402 0
    outer loop
      vertex 12.674 -2.35751 5.5
      vertex 12.7701 -1.93221 4
      vertex 12.7701 -1.93221 5.5
    endloop
  endfacet
  facet normal 0.975409 -0.220402 0
    outer loop
      vertex 12.7701 -1.93221 4
      vertex 12.674 -2.35751 5.5
      vertex 12.674 -2.35751 4
    endloop
  endfacet
  facet normal 0.967453 -0.25305 0
    outer loop
      vertex 12.7701 -1.93221 5.5
      vertex 12.881 -1.50822 4
      vertex 12.881 -1.50822 5.5
    endloop
  endfacet
  facet normal 0.967453 -0.25305 0
    outer loop
      vertex 12.881 -1.50822 4
      vertex 12.7701 -1.93221 5.5
      vertex 12.7701 -1.93221 4
    endloop
  endfacet
  facet normal 0.959114 -0.28302 0
    outer loop
      vertex 12.881 -1.50822 5.5
      vertex 13.0066 -1.08258 4
      vertex 13.0066 -1.08258 5.5
    endloop
  endfacet
  facet normal 0.959114 -0.28302 0
    outer loop
      vertex 13.0066 -1.08258 4
      vertex 12.881 -1.50822 5.5
      vertex 12.881 -1.50822 4
    endloop
  endfacet
  facet normal 0.950032 -0.312152 0
    outer loop
      vertex 13.0066 -1.08258 5.5
      vertex 13.147 -0.655273 4
      vertex 13.147 -0.655273 5.5
    endloop
  endfacet
  facet normal 0.950032 -0.312152 0
    outer loop
      vertex 13.147 -0.655273 4
      vertex 13.0066 -1.08258 5.5
      vertex 13.0066 -1.08258 4
    endloop
  endfacet
  facet normal 0.940348 -0.340215 0
    outer loop
      vertex 13.147 -0.655273 5.5
      vertex 13.3022 -0.226303 4
      vertex 13.3022 -0.226303 5.5
    endloop
  endfacet
  facet normal 0.940348 -0.340215 0
    outer loop
      vertex 13.3022 -0.226303 4
      vertex 13.147 -0.655273 5.5
      vertex 13.147 -0.655273 4
    endloop
  endfacet
  facet normal 0.930141 -0.367202 0
    outer loop
      vertex 13.3022 -0.226303 5.5
      vertex 13.4722 0.204315 4
      vertex 13.4722 0.204315 5.5
    endloop
  endfacet
  facet normal 0.930141 -0.367202 0
    outer loop
      vertex 13.4722 0.204315 4
      vertex 13.3022 -0.226303 5.5
      vertex 13.3022 -0.226303 4
    endloop
  endfacet
  facet normal 0.919584 -0.392894 0
    outer loop
      vertex 13.4722 0.204315 5.5
      vertex 13.6569 0.636612 4
      vertex 13.6569 0.636612 5.5
    endloop
  endfacet
  facet normal 0.919584 -0.392894 0
    outer loop
      vertex 13.6569 0.636612 4
      vertex 13.4722 0.204315 5.5
      vertex 13.4722 0.204315 4
    endloop
  endfacet
  facet normal 0.908583 -0.417705 0
    outer loop
      vertex 13.6569 0.636612 5.5
      vertex 13.8564 1.07056 4
      vertex 13.8564 1.07056 5.5
    endloop
  endfacet
  facet normal 0.908583 -0.417705 0
    outer loop
      vertex 13.8564 1.07056 4
      vertex 13.6569 0.636612 5.5
      vertex 13.6569 0.636612 4
    endloop
  endfacet
  facet normal 0.895409 -0.445244 0
    outer loop
      vertex 13.8564 1.07056 5.5
      vertex 14.0844 1.52908 4
      vertex 14.0844 1.52908 5.5
    endloop
  endfacet
  facet normal 0.895409 -0.445244 0
    outer loop
      vertex 14.0844 1.52908 4
      vertex 13.8564 1.07056 5.5
      vertex 13.8564 1.07056 4
    endloop
  endfacet
  facet normal 0.882119 -0.471026 0
    outer loop
      vertex 14.0844 1.52908 5.5
      vertex 14.3546 2.0351 4
      vertex 14.3546 2.0351 5.5
    endloop
  endfacet
  facet normal 0.882119 -0.471026 0
    outer loop
      vertex 14.3546 2.0351 4
      vertex 14.0844 1.52908 5.5
      vertex 14.0844 1.52908 4
    endloop
  endfacet
  facet normal 0.870868 -0.491516 0
    outer loop
      vertex 14.3546 2.0351 5.5
      vertex 14.667 2.58861 4
      vertex 14.667 2.58861 5.5
    endloop
  endfacet
  facet normal 0.870868 -0.491516 0
    outer loop
      vertex 14.667 2.58861 4
      vertex 14.3546 2.0351 5.5
      vertex 14.3546 2.0351 4
    endloop
  endfacet
  facet normal 0.861267 -0.508153 0
    outer loop
      vertex 14.667 2.58861 5.5
      vertex 15.0216 3.18962 4
      vertex 15.0216 3.18962 5.5
    endloop
  endfacet
  facet normal 0.861267 -0.508153 0
    outer loop
      vertex 15.0216 3.18962 4
      vertex 14.667 2.58861 5.5
      vertex 14.667 2.58861 4
    endloop
  endfacet
  facet normal 0.853054 -0.521822 0
    outer loop
      vertex 15.0216 3.18962 5.5
      vertex 15.4183 3.83813 4
      vertex 15.4183 3.83813 5.5
    endloop
  endfacet
  facet normal 0.853054 -0.521822 0
    outer loop
      vertex 15.4183 3.83813 4
      vertex 15.0216 3.18962 5.5
      vertex 15.0216 3.18962 4
    endloop
  endfacet
  facet normal 0.845806 -0.53349 0
    outer loop
      vertex 15.4183 3.83813 5.5
      vertex 15.8573 4.53413 4
      vertex 15.8573 4.53413 5.5
    endloop
  endfacet
  facet normal 0.845806 -0.53349 0
    outer loop
      vertex 15.8573 4.53413 4
      vertex 15.4183 3.83813 5.5
      vertex 15.4183 3.83813 4
    endloop
  endfacet
  facet normal 0.839564 -0.543261 0
    outer loop
      vertex 15.8573 4.53413 5.5
      vertex 16.3384 5.27763 4
      vertex 16.3384 5.27763 5.5
    endloop
  endfacet
  facet normal 0.839564 -0.543261 0
    outer loop
      vertex 16.3384 5.27763 4
      vertex 15.8573 4.53413 5.5
      vertex 15.8573 4.53413 4
    endloop
  endfacet
  facet normal 1 -0 0
    outer loop
      vertex 16.3384 5.27763 5.5
      vertex 16.3384 6.46576 4
      vertex 16.3384 6.46576 5.5
    endloop
  endfacet
  facet normal 1 0 0
    outer loop
      vertex 16.3384 6.46576 4
      vertex 16.3384 5.27763 5.5
      vertex 16.3384 5.27763 4
    endloop
  endfacet
  facet normal 0 1 -0
    outer loop
      vertex 16.3384 6.46576 4
      vertex 8.76233 6.46576 5.5
      vertex 16.3384 6.46576 5.5
    endloop
  endfacet
  facet normal 0 1 0
    outer loop
      vertex 8.76233 6.46576 5.5
      vertex 16.3384 6.46576 4
      vertex 8.76233 6.46576 4
    endloop
  endfacet
  facet normal -1 0 0
    outer loop
      vertex 8.76233 5.22075 4
      vertex 8.76233 6.46576 5.5
      vertex 8.76233 6.46576 4
    endloop
  endfacet
  facet normal -1 -0 0
    outer loop
      vertex 8.76233 6.46576 5.5
      vertex 8.76233 5.22075 4
      vertex 8.76233 5.22075 5.5
    endloop
  endfacet
  facet normal 0 -1 0
    outer loop
      vertex 8.76233 5.22075 4
      vertex 14.9224 5.22075 5.5
      vertex 8.76233 5.22075 5.5
    endloop
  endfacet
  facet normal 0 -1 -0
    outer loop
      vertex 14.9224 5.22075 5.5
      vertex 8.76233 5.22075 4
      vertex 14.9224 5.22075 4
    endloop
  endfacet
  facet normal -0.830041 0.557703 0
    outer loop
      vertex 14.3248 4.33133 4
      vertex 14.9224 5.22075 5.5
      vertex 14.9224 5.22075 4
    endloop
  endfacet
  facet normal -0.830041 0.557703 0
    outer loop
      vertex 14.9224 5.22075 5.5
      vertex 14.3248 4.33133 4
      vertex 14.3248 4.33133 5.5
    endloop
  endfacet
  facet normal -0.84378 0.53669 0
    outer loop
      vertex 13.7782 3.47197 4
      vertex 14.3248 4.33133 5.5
      vertex 14.3248 4.33133 4
    endloop
  endfacet
  facet normal -0.84378 0.53669 0
    outer loop
      vertex 14.3248 4.33133 5.5
      vertex 13.7782 3.47197 4
      vertex 13.7782 3.47197 5.5
    endloop
  endfacet
  facet normal -0.858396 0.512988 0
    outer loop
      vertex 13.2826 2.64267 4
      vertex 13.7782 3.47197 5.5
      vertex 13.7782 3.47197 4
    endloop
  endfacet
  facet normal -0.858396 0.512988 0
    outer loop
      vertex 13.7782 3.47197 5.5
      vertex 13.2826 2.64267 4
      vertex 13.2826 2.64267 5.5
    endloop
  endfacet
  facet normal -0.873842 0.486209 0
    outer loop
      vertex 12.8379 1.84343 4
      vertex 13.2826 2.64267 5.5
      vertex 13.2826 2.64267 4
    endloop
  endfacet
  facet normal -0.873842 0.486209 0
    outer loop
      vertex 13.2826 2.64267 5.5
      vertex 12.8379 1.84343 4
      vertex 12.8379 1.84343 5.5
    endloop
  endfacet
  facet normal -0.890215 0.455541 0
    outer loop
      vertex 12.4443 1.07426 4
      vertex 12.8379 1.84343 5.5
      vertex 12.8379 1.84343 4
    endloop
  endfacet
  facet normal -0.890215 0.455541 0
    outer loop
      vertex 12.8379 1.84343 5.5
      vertex 12.4443 1.07426 4
      vertex 12.4443 1.07426 5.5
    endloop
  endfacet
  facet normal -0.907222 0.420653 0
    outer loop
      vertex 12.1016 0.335159 4
      vertex 12.4443 1.07426 5.5
      vertex 12.4443 1.07426 4
    endloop
  endfacet
  facet normal -0.907222 0.420653 0
    outer loop
      vertex 12.4443 1.07426 5.5
      vertex 12.1016 0.335159 4
      vertex 12.1016 0.335159 5.5
    endloop
  endfacet
  facet normal -0.924751 0.380572 0
    outer loop
      vertex 11.8098 -0.373886 4
      vertex 12.1016 0.335159 5.5
      vertex 12.1016 0.335159 4
    endloop
  endfacet
  facet normal -0.924751 0.380572 0
    outer loop
      vertex 12.1016 0.335159 5.5
      vertex 11.8098 -0.373886 4
      vertex 11.8098 -0.373886 5.5
    endloop
  endfacet
  facet normal -0.94134 0.337459 0
    outer loop
      vertex 11.5627 -1.06317 4
      vertex 11.8098 -0.373886 5.5
      vertex 11.8098 -0.373886 4
    endloop
  endfacet
  facet normal -0.94134 0.337459 0
    outer loop
      vertex 11.8098 -0.373886 5.5
      vertex 11.5627 -1.06317 4
      vertex 11.5627 -1.06317 5.5
    endloop
  endfacet
  facet normal -0.955768 0.294121 0
    outer loop
      vertex 11.3535 -1.74298 4
      vertex 11.5627 -1.06317 5.5
      vertex 11.5627 -1.06317 4
    endloop
  endfacet
  facet normal -0.955768 0.294121 0
    outer loop
      vertex 11.5627 -1.06317 5.5
      vertex 11.3535 -1.74298 4
      vertex 11.3535 -1.74298 5.5
    endloop
  endfacet
  facet normal -0.968934 0.247318 0
    outer loop
      vertex 11.1824 -2.41331 4
      vertex 11.3535 -1.74298 5.5
      vertex 11.3535 -1.74298 4
    endloop
  endfacet
  facet normal -0.968934 0.247318 0
    outer loop
      vertex 11.3535 -1.74298 5.5
      vertex 11.1824 -2.41331 4
      vertex 11.1824 -2.41331 5.5
    endloop
  endfacet
  facet normal -0.980316 0.197434 0
    outer loop
      vertex 11.0493 -3.07419 4
      vertex 11.1824 -2.41331 5.5
      vertex 11.1824 -2.41331 4
    endloop
  endfacet
  facet normal -0.980316 0.197434 0
    outer loop
      vertex 11.1824 -2.41331 5.5
      vertex 11.0493 -3.07419 4
      vertex 11.0493 -3.07419 5.5
    endloop
  endfacet
  facet normal -0.989511 0.14446 0
    outer loop
      vertex 10.9542 -3.7256 4
      vertex 11.0493 -3.07419 5.5
      vertex 11.0493 -3.07419 4
    endloop
  endfacet
  facet normal -0.989511 0.14446 0
    outer loop
      vertex 11.0493 -3.07419 5.5
      vertex 10.9542 -3.7256 4
      vertex 10.9542 -3.7256 5.5
    endloop
  endfacet
  facet normal -0.996081 0.0884454 0
    outer loop
      vertex 10.8972 -4.36754 4
      vertex 10.9542 -3.7256 5.5
      vertex 10.9542 -3.7256 4
    endloop
  endfacet
  facet normal -0.996081 0.0884454 0
    outer loop
      vertex 10.9542 -3.7256 5.5
      vertex 10.8972 -4.36754 4
      vertex 10.8972 -4.36754 5.5
    endloop
  endfacet
  facet normal -0.999549 0.0300279 0
    outer loop
      vertex 10.8782 -5 4
      vertex 10.8972 -4.36754 5.5
      vertex 10.8972 -4.36754 4
    endloop
  endfacet
  facet normal -0.999549 0.0300279 0
    outer loop
      vertex 10.8972 -4.36754 5.5
      vertex 10.8782 -5 4
      vertex 10.8782 -5 5.5
    endloop
  endfacet
  facet normal 0 -1 0
    outer loop
      vertex 10.8782 -5 4
      vertex 12.4079 -5 5.5
      vertex 10.8782 -5 5.5
    endloop
  endfacet
  facet normal 0 -1 -0
    outer loop
      vertex 12.4079 -5 5.5
      vertex 10.8782 -5 4
      vertex 12.4079 -5 4
    endloop
  endfacet
  facet normal 0.999866 -0.0163985 0
    outer loop
      vertex 12.4079 -5 5.5
      vertex 12.4153 -4.5488 4
      vertex 12.4153 -4.5488 5.5
    endloop
  endfacet
  facet normal 0.999866 -0.0163985 0
    outer loop
      vertex 12.4153 -4.5488 4
      vertex 12.4079 -5 5.5
      vertex 12.4079 -5 4
    endloop
  endfacet
endsolid OpenSCAD_Model
