ISO-10303-21;
HEADER;
FILE_DESCRIPTION(('ViewDefinition [CoordinationView]'),'2;1');
FILE_NAME('','2026-05-22T17:03:03',(''),(''),'IfcOpenShell 0.8.5-1c5b825','IfcOpenShell 0.8.5-1c5b825','');
FILE_SCHEMA(('IFC2X3'));
ENDSEC;
DATA;
#1=IFCPERSON('EW','Engiworld','Task',$,$,$,$,$);
#2=IFCORGANIZATION('EW','Engiworld',$,$,$);
#3=IFCPERSONANDORGANIZATION(#1,#2,$);
#4=IFCACTORROLE(.USERDEFINED.,'CONTRIBUTOR',$);
#5=IFCORGANIZATION('IfcOpenShell','IfcOpenShell','IfcOpenShell is an open source software library that helps users and software developers to work with IFC data.',(#4),(#6));
#6=IFCTELECOMADDRESS(.USERDEFINED.,$,'WEBPAGE',$,$,$,$,'https://ifcopenshell.org');
#7=IFCAPPLICATION(#5,'0.8.5','Engiworld IFC Generator','Engiworld');
#8=IFCOWNERHISTORY(#3,#7,.READWRITE.,.ADDED.,1779440583,#3,#7,1779440583);
#9=IFCPROJECT('1x8xL47wTDmhcfIVETOWvu',#8,'v-archicad-simple-task-15-windows init',$,$,$,$,(#18),#13);
#10=IFCSIUNIT(*,.LENGTHUNIT.,.MILLI.,.METRE.);
#11=IFCSIUNIT(*,.AREAUNIT.,$,.SQUARE_METRE.);
#12=IFCSIUNIT(*,.VOLUMEUNIT.,$,.CUBIC_METRE.);
#13=IFCUNITASSIGNMENT((#10,#11,#12));
#14=IFCCARTESIANPOINT((0.,0.,0.));
#15=IFCDIRECTION((0.,0.,1.));
#16=IFCDIRECTION((1.,0.,0.));
#17=IFCAXIS2PLACEMENT3D(#14,#15,#16);
#18=IFCGEOMETRICREPRESENTATIONCONTEXT($,'Model',3,1.0000000000000001E-05,#17,$);
#19=IFCGEOMETRICREPRESENTATIONSUBCONTEXT('Body','Model',*,*,*,*,#18,$,.MODEL_VIEW.,$);
#20=IFCOWNERHISTORY(#3,#7,.READWRITE.,.ADDED.,1779440583,#3,#7,1779440583);
#21=IFCSITE('1BHSjsF8PBMPoWO_ickAlO',#20,'Default Site',$,$,$,$,$,.ELEMENT.,$,$,$,$,$);
#22=IFCOWNERHISTORY(#3,#7,.READWRITE.,.ADDED.,1779440583,#3,#7,1779440583);
#23=IFCBUILDING('0wULE9aHz6huEC8rD$Mfx5',#22,'Archicad Init Building',$,$,$,$,$,.ELEMENT.,$,$,$);
#24=IFCOWNERHISTORY(#3,#7,.READWRITE.,.ADDED.,1779440583,#3,#7,1779440583);
#25=IFCRELAGGREGATES('1R7_YPjb5CB97mHc4rFwpI',#24,$,$,#9,(#21));
#26=IFCOWNERHISTORY(#3,#7,.READWRITE.,.ADDED.,1779440583,#3,#7,1779440583);
#27=IFCRELAGGREGATES('2o1_zzg49BaO89EP5dJkVG',#26,$,$,#21,(#23));
#28=IFCOWNERHISTORY(#3,#7,.READWRITE.,.MODIFIED.,1779440583,#3,#7,1779440583);
#29=IFCBUILDINGSTOREY('1611yW_ozEvenxgcxiYJxI',#28,'Ground Floor',$,$,#36,$,$,.ELEMENT.,$);
#30=IFCOWNERHISTORY(#3,#7,.READWRITE.,.ADDED.,1779440583,#3,#7,1779440583);
#31=IFCRELAGGREGATES('1tbuIh3ev2_8meuIpfll$P',#30,$,$,#23,(#29));
#32=IFCCARTESIANPOINT((0.,0.,0.));
#33=IFCDIRECTION((0.,0.,1.));
#34=IFCDIRECTION((1.,0.,0.));
#35=IFCAXIS2PLACEMENT3D(#32,#33,#34);
#36=IFCLOCALPLACEMENT($,#35);
#37=IFCOWNERHISTORY(#3,#7,.READWRITE.,.MODIFIED.,1779440583,#3,#7,1779440583);
#38=IFCWALL('0$$GDn3mfEZBdyg7r1lVsI',#37,'Exterior Wall 1',$,$,#65,#53,$);
#39=IFCCARTESIANPOINT((0.,0.));
#40=IFCCARTESIANPOINT((0.,200.));
#41=IFCCARTESIANPOINT((12000.,200.));
#42=IFCCARTESIANPOINT((12000.,0.));
#43=IFCCARTESIANPOINT((0.,0.));
#44=IFCPOLYLINE((#39,#40,#41,#42,#43));
#45=IFCDIRECTION((0.,0.,1.));
#46=IFCARBITRARYCLOSEDPROFILEDEF(.AREA.,$,#44);
#47=IFCCARTESIANPOINT((0.,0.,0.));
#48=IFCDIRECTION((0.,0.,1.));
#49=IFCDIRECTION((1.,0.,0.));
#50=IFCAXIS2PLACEMENT3D(#47,#48,#49);
#51=IFCEXTRUDEDAREASOLID(#46,#50,#45,3000.);
#52=IFCSHAPEREPRESENTATION(#19,'Body','SweptSolid',(#51));
#53=IFCPRODUCTDEFINITIONSHAPE($,$,(#52));
#59=IFCOWNERHISTORY(#3,#7,.READWRITE.,.MODIFIED.,1779440583,#3,#7,1779440583);
#60=IFCRELCONTAINEDINSPATIALSTRUCTURE('3BVt3vx7L9T9RRyVuzw_RP',#59,$,$,(#94,#67,#673,#842,#256,#202,#148,#283,#229,#175,#121,#38,#413,#543),#29);
#61=IFCCARTESIANPOINT((0.,0.,0.));
#62=IFCDIRECTION((0.,0.,1.));
#63=IFCDIRECTION((1.,0.,0.));
#64=IFCAXIS2PLACEMENT3D(#61,#62,#63);
#65=IFCLOCALPLACEMENT(#36,#64);
#66=IFCOWNERHISTORY(#3,#7,.READWRITE.,.MODIFIED.,1779440583,#3,#7,1779440583);
#67=IFCWALL('1QHyKt5yX5ZP7rBu2K6LAi',#66,'Exterior Wall 2',$,$,#92,#82,$);
#68=IFCCARTESIANPOINT((0.,0.));
#69=IFCCARTESIANPOINT((0.,200.));
#70=IFCCARTESIANPOINT((12000.,200.));
#71=IFCCARTESIANPOINT((12000.,0.));
#72=IFCCARTESIANPOINT((0.,0.));
#73=IFCPOLYLINE((#68,#69,#70,#71,#72));
#74=IFCDIRECTION((0.,0.,1.));
#75=IFCARBITRARYCLOSEDPROFILEDEF(.AREA.,$,#73);
#76=IFCCARTESIANPOINT((0.,0.,0.));
#77=IFCDIRECTION((0.,0.,1.));
#78=IFCDIRECTION((1.,0.,0.));
#79=IFCAXIS2PLACEMENT3D(#76,#77,#78);
#80=IFCEXTRUDEDAREASOLID(#75,#79,#74,3000.);
#81=IFCSHAPEREPRESENTATION(#19,'Body','SweptSolid',(#80));
#82=IFCPRODUCTDEFINITIONSHAPE($,$,(#81));
#88=IFCCARTESIANPOINT((0.,6000.,0.));
#89=IFCDIRECTION((0.,0.,1.));
#90=IFCDIRECTION((1.,0.,0.));
#91=IFCAXIS2PLACEMENT3D(#88,#89,#90);
#92=IFCLOCALPLACEMENT(#36,#91);
#93=IFCOWNERHISTORY(#3,#7,.READWRITE.,.MODIFIED.,1779440583,#3,#7,1779440583);
#94=IFCWALL('0Kufw4uHL1If8iD0nFdNyf',#93,'Exterior Wall 3',$,$,#119,#109,$);
#95=IFCCARTESIANPOINT((0.,0.));
#96=IFCCARTESIANPOINT((0.,200.));
#97=IFCCARTESIANPOINT((6000.,200.));
#98=IFCCARTESIANPOINT((6000.,0.));
#99=IFCCARTESIANPOINT((0.,0.));
#100=IFCPOLYLINE((#95,#96,#97,#98,#99));
#101=IFCDIRECTION((0.,0.,1.));
#102=IFCARBITRARYCLOSEDPROFILEDEF(.AREA.,$,#100);
#103=IFCCARTESIANPOINT((0.,0.,0.));
#104=IFCDIRECTION((0.,0.,1.));
#105=IFCDIRECTION((1.,0.,0.));
#106=IFCAXIS2PLACEMENT3D(#103,#104,#105);
#107=IFCEXTRUDEDAREASOLID(#102,#106,#101,3000.);
#108=IFCSHAPEREPRESENTATION(#19,'Body','SweptSolid',(#107));
#109=IFCPRODUCTDEFINITIONSHAPE($,$,(#108));
#115=IFCCARTESIANPOINT((0.,0.,0.));
#116=IFCDIRECTION((0.,0.,1.));
#117=IFCDIRECTION((6.123233995736766E-17,1.,0.));
#118=IFCAXIS2PLACEMENT3D(#115,#116,#117);
#119=IFCLOCALPLACEMENT(#36,#118);
#120=IFCOWNERHISTORY(#3,#7,.READWRITE.,.MODIFIED.,1779440583,#3,#7,1779440583);
#121=IFCWALL('1WygOPvF18FwphdcXIZ7Hr',#120,'Exterior Wall 4',$,$,#146,#136,$);
#122=IFCCARTESIANPOINT((0.,0.));
#123=IFCCARTESIANPOINT((0.,200.));
#124=IFCCARTESIANPOINT((6000.,200.));
#125=IFCCARTESIANPOINT((6000.,0.));
#126=IFCCARTESIANPOINT((0.,0.));
#127=IFCPOLYLINE((#122,#123,#124,#125,#126));
#128=IFCDIRECTION((0.,0.,1.));
#129=IFCARBITRARYCLOSEDPROFILEDEF(.AREA.,$,#127);
#130=IFCCARTESIANPOINT((0.,0.,0.));
#131=IFCDIRECTION((0.,0.,1.));
#132=IFCDIRECTION((1.,0.,0.));
#133=IFCAXIS2PLACEMENT3D(#130,#131,#132);
#134=IFCEXTRUDEDAREASOLID(#129,#133,#128,3000.);
#135=IFCSHAPEREPRESENTATION(#19,'Body','SweptSolid',(#134));
#136=IFCPRODUCTDEFINITIONSHAPE($,$,(#135));
#142=IFCCARTESIANPOINT((12000.,0.,0.));
#143=IFCDIRECTION((0.,0.,1.));
#144=IFCDIRECTION((6.123233995736766E-17,1.,0.));
#145=IFCAXIS2PLACEMENT3D(#142,#143,#144);
#146=IFCLOCALPLACEMENT(#36,#145);
#147=IFCOWNERHISTORY(#3,#7,.READWRITE.,.MODIFIED.,1779440583,#3,#7,1779440583);
#148=IFCWALL('0BpJglJZ13Jwls_$$16Qdh',#147,'Interior Partition 1',$,$,#173,#163,$);
#149=IFCCARTESIANPOINT((0.,0.));
#150=IFCCARTESIANPOINT((0.,120.));
#151=IFCCARTESIANPOINT((5599.9999999999991,120.));
#152=IFCCARTESIANPOINT((5599.9999999999991,0.));
#153=IFCCARTESIANPOINT((0.,0.));
#154=IFCPOLYLINE((#149,#150,#151,#152,#153));
#155=IFCDIRECTION((0.,0.,1.));
#156=IFCARBITRARYCLOSEDPROFILEDEF(.AREA.,$,#154);
#157=IFCCARTESIANPOINT((0.,0.,0.));
#158=IFCDIRECTION((0.,0.,1.));
#159=IFCDIRECTION((1.,0.,0.));
#160=IFCAXIS2PLACEMENT3D(#157,#158,#159);
#161=IFCEXTRUDEDAREASOLID(#156,#160,#155,3000.);
#162=IFCSHAPEREPRESENTATION(#19,'Body','SweptSolid',(#161));
#163=IFCPRODUCTDEFINITIONSHAPE($,$,(#162));
#169=IFCCARTESIANPOINT((2400.,200.,0.));
#170=IFCDIRECTION((0.,0.,1.));
#171=IFCDIRECTION((6.123233995736766E-17,1.,0.));
#172=IFCAXIS2PLACEMENT3D(#169,#170,#171);
#173=IFCLOCALPLACEMENT(#36,#172);
#174=IFCOWNERHISTORY(#3,#7,.READWRITE.,.MODIFIED.,1779440583,#3,#7,1779440583);
#175=IFCWALL('3MmR$Ijn1FwvPNSEbvsQEL',#174,'Interior Partition 2',$,$,#200,#190,$);
#176=IFCCARTESIANPOINT((0.,0.));
#177=IFCCARTESIANPOINT((0.,120.));
#178=IFCCARTESIANPOINT((5599.9999999999991,120.));
#179=IFCCARTESIANPOINT((5599.9999999999991,0.));
#180=IFCCARTESIANPOINT((0.,0.));
#181=IFCPOLYLINE((#176,#177,#178,#179,#180));
#182=IFCDIRECTION((0.,0.,1.));
#183=IFCARBITRARYCLOSEDPROFILEDEF(.AREA.,$,#181);
#184=IFCCARTESIANPOINT((0.,0.,0.));
#185=IFCDIRECTION((0.,0.,1.));
#186=IFCDIRECTION((1.,0.,0.));
#187=IFCAXIS2PLACEMENT3D(#184,#185,#186);
#188=IFCEXTRUDEDAREASOLID(#183,#187,#182,3000.);
#189=IFCSHAPEREPRESENTATION(#19,'Body','SweptSolid',(#188));
#190=IFCPRODUCTDEFINITIONSHAPE($,$,(#189));
#196=IFCCARTESIANPOINT((4800.,200.,0.));
#197=IFCDIRECTION((0.,0.,1.));
#198=IFCDIRECTION((6.123233995736766E-17,1.,0.));
#199=IFCAXIS2PLACEMENT3D(#196,#197,#198);
#200=IFCLOCALPLACEMENT(#36,#199);
#201=IFCOWNERHISTORY(#3,#7,.READWRITE.,.MODIFIED.,1779440583,#3,#7,1779440583);
#202=IFCWALL('2XplYqaD5E7xKnRE03NEfu',#201,'Interior Partition 3',$,$,#227,#217,$);
#203=IFCCARTESIANPOINT((0.,0.));
#204=IFCCARTESIANPOINT((0.,120.));
#205=IFCCARTESIANPOINT((5599.9999999999991,120.));
#206=IFCCARTESIANPOINT((5599.9999999999991,0.));
#207=IFCCARTESIANPOINT((0.,0.));
#208=IFCPOLYLINE((#203,#204,#205,#206,#207));
#209=IFCDIRECTION((0.,0.,1.));
#210=IFCARBITRARYCLOSEDPROFILEDEF(.AREA.,$,#208);
#211=IFCCARTESIANPOINT((0.,0.,0.));
#212=IFCDIRECTION((0.,0.,1.));
#213=IFCDIRECTION((1.,0.,0.));
#214=IFCAXIS2PLACEMENT3D(#211,#212,#213);
#215=IFCEXTRUDEDAREASOLID(#210,#214,#209,3000.);
#216=IFCSHAPEREPRESENTATION(#19,'Body','SweptSolid',(#215));
#217=IFCPRODUCTDEFINITIONSHAPE($,$,(#216));
#223=IFCCARTESIANPOINT((7200.,200.,0.));
#224=IFCDIRECTION((0.,0.,1.));
#225=IFCDIRECTION((6.123233995736766E-17,1.,0.));
#226=IFCAXIS2PLACEMENT3D(#223,#224,#225);
#227=IFCLOCALPLACEMENT(#36,#226);
#228=IFCOWNERHISTORY(#3,#7,.READWRITE.,.MODIFIED.,1779440583,#3,#7,1779440583);
#229=IFCWALL('06tqmuf7fCZA2R7A8M7eCT',#228,'Interior Partition 4',$,$,#254,#244,$);
#230=IFCCARTESIANPOINT((0.,0.));
#231=IFCCARTESIANPOINT((0.,120.));
#232=IFCCARTESIANPOINT((5599.9999999999991,120.));
#233=IFCCARTESIANPOINT((5599.9999999999991,0.));
#234=IFCCARTESIANPOINT((0.,0.));
#235=IFCPOLYLINE((#230,#231,#232,#233,#234));
#236=IFCDIRECTION((0.,0.,1.));
#237=IFCARBITRARYCLOSEDPROFILEDEF(.AREA.,$,#235);
#238=IFCCARTESIANPOINT((0.,0.,0.));
#239=IFCDIRECTION((0.,0.,1.));
#240=IFCDIRECTION((1.,0.,0.));
#241=IFCAXIS2PLACEMENT3D(#238,#239,#240);
#242=IFCEXTRUDEDAREASOLID(#237,#241,#236,3000.);
#243=IFCSHAPEREPRESENTATION(#19,'Body','SweptSolid',(#242));
#244=IFCPRODUCTDEFINITIONSHAPE($,$,(#243));
#250=IFCCARTESIANPOINT((9600.,200.,0.));
#251=IFCDIRECTION((0.,0.,1.));
#252=IFCDIRECTION((6.123233995736766E-17,1.,0.));
#253=IFCAXIS2PLACEMENT3D(#250,#251,#252);
#254=IFCLOCALPLACEMENT(#36,#253);
#255=IFCOWNERHISTORY(#3,#7,.READWRITE.,.MODIFIED.,1779440583,#3,#7,1779440583);
#256=IFCSLAB('1ZumfI$k51dx7gN$S1JK90',#255,'Floor Slab 1',$,$,#281,#271,$,$);
#257=IFCCARTESIANPOINT((0.,0.));
#258=IFCCARTESIANPOINT((12000.,0.));
#259=IFCCARTESIANPOINT((12000.,6000.));
#260=IFCCARTESIANPOINT((0.,6000.));
#261=IFCCARTESIANPOINT((0.,0.));
#262=IFCPOLYLINE((#257,#258,#259,#260,#261));
#263=IFCDIRECTION((0.,0.,1.));
#264=IFCCARTESIANPOINT((0.,0.,0.));
#265=IFCDIRECTION((0.,0.,1.));
#266=IFCDIRECTION((1.,0.,0.));
#267=IFCAXIS2PLACEMENT3D(#264,#265,#266);
#268=IFCARBITRARYCLOSEDPROFILEDEF(.AREA.,$,#262);
#269=IFCEXTRUDEDAREASOLID(#268,#267,#263,200.);
#270=IFCSHAPEREPRESENTATION(#19,'Body','SweptSolid',(#269));
#271=IFCPRODUCTDEFINITIONSHAPE($,$,(#270));
#277=IFCCARTESIANPOINT((0.,0.,0.));
#278=IFCDIRECTION((0.,0.,1.));
#279=IFCDIRECTION((1.,0.,0.));
#280=IFCAXIS2PLACEMENT3D(#277,#278,#279);
#281=IFCLOCALPLACEMENT(#36,#280);
#282=IFCOWNERHISTORY(#3,#7,.READWRITE.,.MODIFIED.,1779440583,#3,#7,1779440583);
#283=IFCDOOR('3DIw3PEFvCt9x2lVwcwHiW',#282,'Door 1',$,$,#411,#401,$,$,$);
#284=IFCCARTESIANPOINT((0.,0.));
#285=IFCCARTESIANPOINT((0.,2.1000000000000001));
#286=IFCCARTESIANPOINT((0.90000000000000002,2.1000000000000001));
#287=IFCCARTESIANPOINT((0.90000000000000002,0.));
#288=IFCCARTESIANPOINT((-24.100000000000001,0.));
#289=IFCCARTESIANPOINT((-24.100000000000001,-22.899999999999999));
#290=IFCCARTESIANPOINT((25.,-22.899999999999999));
#291=IFCCARTESIANPOINT((25.,0.));
#292=IFCPOLYLINE((#284,#285,#286,#287,#288,#289,#290,#291,#284));
#293=IFCARBITRARYCLOSEDPROFILEDEF(.AREA.,$,#292);
#294=IFCCARTESIANPOINT((0.,25.,0.));
#295=IFCDIRECTION((0.,-1.,0.));
#296=IFCDIRECTION((1.,0.,0.));
#297=IFCAXIS2PLACEMENT3D(#294,#295,#296);
#298=IFCDIRECTION((0.,0.,-1.));
#299=IFCEXTRUDEDAREASOLID(#293,#297,#298,25.);
#300=IFCCARTESIANPOINT((0.,0.));
#301=IFCCARTESIANPOINT((0.,2.1000000000000001));
#302=IFCCARTESIANPOINT((0.90000000000000002,2.1000000000000001));
#303=IFCCARTESIANPOINT((0.90000000000000002,0.));
#304=IFCCARTESIANPOINT((-49.100000000000001,0.));
#305=IFCCARTESIANPOINT((-49.100000000000001,-47.899999999999999));
#306=IFCCARTESIANPOINT((50.,-47.899999999999999));
#307=IFCCARTESIANPOINT((50.,0.));
#308=IFCPOLYLINE((#300,#301,#302,#303,#304,#305,#306,#307,#300));
#309=IFCARBITRARYCLOSEDPROFILEDEF(.AREA.,$,#308);
#310=IFCCARTESIANPOINT((0.,0.,0.));
#311=IFCDIRECTION((0.,-1.,0.));
#312=IFCDIRECTION((1.,0.,0.));
#313=IFCAXIS2PLACEMENT3D(#310,#311,#312);
#314=IFCDIRECTION((0.,0.,-1.));
#315=IFCEXTRUDEDAREASOLID(#309,#313,#314,25.);
#316=IFCCARTESIANPOINT((0.,0.));
#317=IFCCARTESIANPOINT((-99.099999999999994,0.));
#318=IFCCARTESIANPOINT((-99.099999999999994,100.));
#319=IFCCARTESIANPOINT((0.,100.));
#320=IFCPOLYLINE((#316,#317,#318,#319,#316));
#321=IFCARBITRARYCLOSEDPROFILEDEF(.AREA.,$,#320);
#322=IFCCARTESIANPOINT((50.,0.,0.));
#323=IFCDIRECTION((0.,0.,1.));
#324=IFCDIRECTION((1.,0.,0.));
#325=IFCAXIS2PLACEMENT3D(#322,#323,#324);
#326=IFCDIRECTION((0.,0.,1.));
#327=IFCEXTRUDEDAREASOLID(#321,#325,#326,25.);
#328=IFCCARTESIANPOINT((0.,0.));
#329=IFCCARTESIANPOINT((0.,27.100000000000001));
#330=IFCCARTESIANPOINT((50.899999999999999,27.100000000000001));
#331=IFCCARTESIANPOINT((50.899999999999999,0.));
#332=IFCCARTESIANPOINT((-24.100000000000001,0.));
#333=IFCCARTESIANPOINT((-24.100000000000001,-47.899999999999999));
#334=IFCCARTESIANPOINT((75.,-47.899999999999999));
#335=IFCCARTESIANPOINT((75.,0.));
#336=IFCPOLYLINE((#328,#329,#330,#331,#332,#333,#334,#335,#328));
#337=IFCARBITRARYCLOSEDPROFILEDEF(.AREA.,$,#336);
#338=IFCCARTESIANPOINT((-25.,-5.,0.));
#339=IFCDIRECTION((0.,-1.,0.));
#340=IFCDIRECTION((1.,0.,0.));
#341=IFCAXIS2PLACEMENT3D(#338,#339,#340);
#342=IFCDIRECTION((0.,0.,-1.));
#343=IFCEXTRUDEDAREASOLID(#337,#341,#342,5.);
#344=IFCCARTESIANPOINT((0.,0.));
#345=IFCCARTESIANPOINT((0.,27.100000000000001));
#346=IFCCARTESIANPOINT((50.899999999999999,27.100000000000001));
#347=IFCCARTESIANPOINT((50.899999999999999,0.));
#348=IFCCARTESIANPOINT((0.89999999999999858,0.));
#349=IFCCARTESIANPOINT((0.89999999999999858,-22.899999999999999));
#350=IFCCARTESIANPOINT((50.,-22.899999999999999));
#351=IFCCARTESIANPOINT((50.,0.));
#352=IFCPOLYLINE((#344,#345,#346,#347,#348,#349,#350,#351,#344));
#353=IFCARBITRARYCLOSEDPROFILEDEF(.AREA.,$,#352);
#354=IFCCARTESIANPOINT((-25.,50.,0.));
#355=IFCDIRECTION((0.,-1.,0.));
#356=IFCDIRECTION((1.,0.,0.));
#357=IFCAXIS2PLACEMENT3D(#354,#355,#356);
#358=IFCDIRECTION((0.,0.,-1.));
#359=IFCEXTRUDEDAREASOLID(#353,#357,#358,5.);
#360=IFCCARTESIANPOINT((0.,0.));
#361=IFCCARTESIANPOINT((-49.100000000000001,0.));
#362=IFCCARTESIANPOINT((-49.100000000000001,35.));
#363=IFCCARTESIANPOINT((0.,35.));
#364=IFCPOLYLINE((#360,#361,#362,#363,#360));
#365=IFCARBITRARYCLOSEDPROFILEDEF(.AREA.,$,#364);
#366=IFCCARTESIANPOINT((25.,25.,25.));
#367=IFCDIRECTION((0.,0.,1.));
#368=IFCDIRECTION((1.,0.,0.));
#369=IFCAXIS2PLACEMENT3D(#366,#367,#368);
#370=IFCDIRECTION((0.,0.,1.));
#371=IFCEXTRUDEDAREASOLID(#365,#369,#370,-47.899999999999999);
#372=IFCCARTESIANPOINT((0.,0.));
#373=IFCCARTESIANPOINT((0.,-40.));
#374=IFCCARTESIANPOINT((-120.00000000000003,-40.));
#375=IFCCARTESIANPOINT((-120.00000000000003,-20.));
#376=IFCCARTESIANPOINT((-20.,-20.));
#377=IFCCARTESIANPOINT((-20.,0.));
#378=IFCPOLYLINE((#372,#373,#374,#375,#376,#377,#372));
#379=IFCARBITRARYCLOSEDPROFILEDEF(.AREA.,$,#378);
#380=IFCCARTESIANPOINT((-74.099999999999994,25.,1015.));
#381=IFCDIRECTION((0.,0.,1.));
#382=IFCDIRECTION((1.,0.,0.));
#383=IFCAXIS2PLACEMENT3D(#380,#381,#382);
#384=IFCDIRECTION((0.,0.,1.));
#385=IFCEXTRUDEDAREASOLID(#379,#383,#384,20.);
#386=IFCEXTRUDEDAREASOLID(#387,#395,#399,20.);
#387=IFCARBITRARYCLOSEDPROFILEDEF(.AREA.,$,#388);
#388=IFCPOLYLINE((#389,#390,#391,#392,#393,#394,#389));
#389=IFCCARTESIANPOINT((0.,0.));
#390=IFCCARTESIANPOINT((0.,40.));
#391=IFCCARTESIANPOINT((-120.00000000000003,40.));
#392=IFCCARTESIANPOINT((-120.00000000000003,20.));
#393=IFCCARTESIANPOINT((-20.,20.));
#394=IFCCARTESIANPOINT((-20.,0.));
#395=IFCAXIS2PLACEMENT3D(#396,#397,#398);
#396=IFCCARTESIANPOINT((-74.099999999999994,60.,1015.));
#397=IFCDIRECTION((0.,0.,1.));
#398=IFCDIRECTION((1.,0.,0.));
#399=IFCDIRECTION((0.,0.,1.));
#400=IFCSHAPEREPRESENTATION(#19,'Body','SweptSolid',(#299,#315,#371,#385,#386,#327,#343,#359));
#401=IFCPRODUCTDEFINITIONSHAPE($,$,(#400));
#407=IFCCARTESIANPOINT((800.,-50.,0.));
#408=IFCDIRECTION((0.,0.,1.));
#409=IFCDIRECTION((1.,0.,0.));
#410=IFCAXIS2PLACEMENT3D(#407,#408,#409);
#411=IFCLOCALPLACEMENT(#36,#410);
#412=IFCOWNERHISTORY(#3,#7,.READWRITE.,.MODIFIED.,1779440583,#3,#7,1779440583);
#413=IFCDOOR('31C8PghHL13h7mEzZsfMpw',#412,'Door 2',$,$,#541,#531,$,$,$);
#414=IFCCARTESIANPOINT((0.,0.));
#415=IFCCARTESIANPOINT((0.,2.1000000000000001));
#416=IFCCARTESIANPOINT((0.90000000000000002,2.1000000000000001));
#417=IFCCARTESIANPOINT((0.90000000000000002,0.));
#418=IFCCARTESIANPOINT((-24.100000000000001,0.));
#419=IFCCARTESIANPOINT((-24.100000000000001,-22.899999999999999));
#420=IFCCARTESIANPOINT((25.,-22.899999999999999));
#421=IFCCARTESIANPOINT((25.,0.));
#422=IFCPOLYLINE((#414,#415,#416,#417,#418,#419,#420,#421,#414));
#423=IFCARBITRARYCLOSEDPROFILEDEF(.AREA.,$,#422);
#424=IFCCARTESIANPOINT((0.,25.,0.));
#425=IFCDIRECTION((0.,-1.,0.));
#426=IFCDIRECTION((1.,0.,0.));
#427=IFCAXIS2PLACEMENT3D(#424,#425,#426);
#428=IFCDIRECTION((0.,0.,-1.));
#429=IFCEXTRUDEDAREASOLID(#423,#427,#428,25.);
#430=IFCCARTESIANPOINT((0.,0.));
#431=IFCCARTESIANPOINT((0.,2.1000000000000001));
#432=IFCCARTESIANPOINT((0.90000000000000002,2.1000000000000001));
#433=IFCCARTESIANPOINT((0.90000000000000002,0.));
#434=IFCCARTESIANPOINT((-49.100000000000001,0.));
#435=IFCCARTESIANPOINT((-49.100000000000001,-47.899999999999999));
#436=IFCCARTESIANPOINT((50.,-47.899999999999999));
#437=IFCCARTESIANPOINT((50.,0.));
#438=IFCPOLYLINE((#430,#431,#432,#433,#434,#435,#436,#437,#430));
#439=IFCARBITRARYCLOSEDPROFILEDEF(.AREA.,$,#438);
#440=IFCCARTESIANPOINT((0.,0.,0.));
#441=IFCDIRECTION((0.,-1.,0.));
#442=IFCDIRECTION((1.,0.,0.));
#443=IFCAXIS2PLACEMENT3D(#440,#441,#442);
#444=IFCDIRECTION((0.,0.,-1.));
#445=IFCEXTRUDEDAREASOLID(#439,#443,#444,25.);
#446=IFCCARTESIANPOINT((0.,0.));
#447=IFCCARTESIANPOINT((-99.099999999999994,0.));
#448=IFCCARTESIANPOINT((-99.099999999999994,100.));
#449=IFCCARTESIANPOINT((0.,100.));
#450=IFCPOLYLINE((#446,#447,#448,#449,#446));
#451=IFCARBITRARYCLOSEDPROFILEDEF(.AREA.,$,#450);
#452=IFCCARTESIANPOINT((50.,0.,0.));
#453=IFCDIRECTION((0.,0.,1.));
#454=IFCDIRECTION((1.,0.,0.));
#455=IFCAXIS2PLACEMENT3D(#452,#453,#454);
#456=IFCDIRECTION((0.,0.,1.));
#457=IFCEXTRUDEDAREASOLID(#451,#455,#456,25.);
#458=IFCCARTESIANPOINT((0.,0.));
#459=IFCCARTESIANPOINT((0.,27.100000000000001));
#460=IFCCARTESIANPOINT((50.899999999999999,27.100000000000001));
#461=IFCCARTESIANPOINT((50.899999999999999,0.));
#462=IFCCARTESIANPOINT((-24.100000000000001,0.));
#463=IFCCARTESIANPOINT((-24.100000000000001,-47.899999999999999));
#464=IFCCARTESIANPOINT((75.,-47.899999999999999));
#465=IFCCARTESIANPOINT((75.,0.));
#466=IFCPOLYLINE((#458,#459,#460,#461,#462,#463,#464,#465,#458));
#467=IFCARBITRARYCLOSEDPROFILEDEF(.AREA.,$,#466);
#468=IFCCARTESIANPOINT((-25.,-5.,0.));
#469=IFCDIRECTION((0.,-1.,0.));
#470=IFCDIRECTION((1.,0.,0.));
#471=IFCAXIS2PLACEMENT3D(#468,#469,#470);
#472=IFCDIRECTION((0.,0.,-1.));
#473=IFCEXTRUDEDAREASOLID(#467,#471,#472,5.);
#474=IFCCARTESIANPOINT((0.,0.));
#475=IFCCARTESIANPOINT((0.,27.100000000000001));
#476=IFCCARTESIANPOINT((50.899999999999999,27.100000000000001));
#477=IFCCARTESIANPOINT((50.899999999999999,0.));
#478=IFCCARTESIANPOINT((0.89999999999999858,0.));
#479=IFCCARTESIANPOINT((0.89999999999999858,-22.899999999999999));
#480=IFCCARTESIANPOINT((50.,-22.899999999999999));
#481=IFCCARTESIANPOINT((50.,0.));
#482=IFCPOLYLINE((#474,#475,#476,#477,#478,#479,#480,#481,#474));
#483=IFCARBITRARYCLOSEDPROFILEDEF(.AREA.,$,#482);
#484=IFCCARTESIANPOINT((-25.,50.,0.));
#485=IFCDIRECTION((0.,-1.,0.));
#486=IFCDIRECTION((1.,0.,0.));
#487=IFCAXIS2PLACEMENT3D(#484,#485,#486);
#488=IFCDIRECTION((0.,0.,-1.));
#489=IFCEXTRUDEDAREASOLID(#483,#487,#488,5.);
#490=IFCCARTESIANPOINT((0.,0.));
#491=IFCCARTESIANPOINT((-49.100000000000001,0.));
#492=IFCCARTESIANPOINT((-49.100000000000001,35.));
#493=IFCCARTESIANPOINT((0.,35.));
#494=IFCPOLYLINE((#490,#491,#492,#493,#490));
#495=IFCARBITRARYCLOSEDPROFILEDEF(.AREA.,$,#494);
#496=IFCCARTESIANPOINT((25.,25.,25.));
#497=IFCDIRECTION((0.,0.,1.));
#498=IFCDIRECTION((1.,0.,0.));
#499=IFCAXIS2PLACEMENT3D(#496,#497,#498);
#500=IFCDIRECTION((0.,0.,1.));
#501=IFCEXTRUDEDAREASOLID(#495,#499,#500,-47.899999999999999);
#502=IFCCARTESIANPOINT((0.,0.));
#503=IFCCARTESIANPOINT((0.,-40.));
#504=IFCCARTESIANPOINT((-120.00000000000003,-40.));
#505=IFCCARTESIANPOINT((-120.00000000000003,-20.));
#506=IFCCARTESIANPOINT((-20.,-20.));
#507=IFCCARTESIANPOINT((-20.,0.));
#508=IFCPOLYLINE((#502,#503,#504,#505,#506,#507,#502));
#509=IFCARBITRARYCLOSEDPROFILEDEF(.AREA.,$,#508);
#510=IFCCARTESIANPOINT((-74.099999999999994,25.,1015.));
#511=IFCDIRECTION((0.,0.,1.));
#512=IFCDIRECTION((1.,0.,0.));
#513=IFCAXIS2PLACEMENT3D(#510,#511,#512);
#514=IFCDIRECTION((0.,0.,1.));
#515=IFCEXTRUDEDAREASOLID(#509,#513,#514,20.);
#516=IFCEXTRUDEDAREASOLID(#517,#525,#529,20.);
#517=IFCARBITRARYCLOSEDPROFILEDEF(.AREA.,$,#518);
#518=IFCPOLYLINE((#519,#520,#521,#522,#523,#524,#519));
#519=IFCCARTESIANPOINT((0.,0.));
#520=IFCCARTESIANPOINT((0.,40.));
#521=IFCCARTESIANPOINT((-120.00000000000003,40.));
#522=IFCCARTESIANPOINT((-120.00000000000003,20.));
#523=IFCCARTESIANPOINT((-20.,20.));
#524=IFCCARTESIANPOINT((-20.,0.));
#525=IFCAXIS2PLACEMENT3D(#526,#527,#528);
#526=IFCCARTESIANPOINT((-74.099999999999994,60.,1015.));
#527=IFCDIRECTION((0.,0.,1.));
#528=IFCDIRECTION((1.,0.,0.));
#529=IFCDIRECTION((0.,0.,1.));
#530=IFCSHAPEREPRESENTATION(#19,'Body','SweptSolid',(#429,#445,#501,#515,#516,#457,#473,#489));
#531=IFCPRODUCTDEFINITIONSHAPE($,$,(#530));
#537=IFCCARTESIANPOINT((1550.,-50.,0.));
#538=IFCDIRECTION((0.,0.,1.));
#539=IFCDIRECTION((1.,0.,0.));
#540=IFCAXIS2PLACEMENT3D(#537,#538,#539);
#541=IFCLOCALPLACEMENT(#36,#540);
#542=IFCOWNERHISTORY(#3,#7,.READWRITE.,.MODIFIED.,1779440583,#3,#7,1779440583);
#543=IFCDOOR('01FrEx1LjFHhwquWLv$qFc',#542,'Door 3',$,$,#671,#661,$,$,$);
#544=IFCCARTESIANPOINT((0.,0.));
#545=IFCCARTESIANPOINT((0.,2.1000000000000001));
#546=IFCCARTESIANPOINT((0.90000000000000002,2.1000000000000001));
#547=IFCCARTESIANPOINT((0.90000000000000002,0.));
#548=IFCCARTESIANPOINT((-24.100000000000001,0.));
#549=IFCCARTESIANPOINT((-24.100000000000001,-22.899999999999999));
#550=IFCCARTESIANPOINT((25.,-22.899999999999999));
#551=IFCCARTESIANPOINT((25.,0.));
#552=IFCPOLYLINE((#544,#545,#546,#547,#548,#549,#550,#551,#544));
#553=IFCARBITRARYCLOSEDPROFILEDEF(.AREA.,$,#552);
#554=IFCCARTESIANPOINT((0.,25.,0.));
#555=IFCDIRECTION((0.,-1.,0.));
#556=IFCDIRECTION((1.,0.,0.));
#557=IFCAXIS2PLACEMENT3D(#554,#555,#556);
#558=IFCDIRECTION((0.,0.,-1.));
#559=IFCEXTRUDEDAREASOLID(#553,#557,#558,25.);
#560=IFCCARTESIANPOINT((0.,0.));
#561=IFCCARTESIANPOINT((0.,2.1000000000000001));
#562=IFCCARTESIANPOINT((0.90000000000000002,2.1000000000000001));
#563=IFCCARTESIANPOINT((0.90000000000000002,0.));
#564=IFCCARTESIANPOINT((-49.100000000000001,0.));
#565=IFCCARTESIANPOINT((-49.100000000000001,-47.899999999999999));
#566=IFCCARTESIANPOINT((50.,-47.899999999999999));
#567=IFCCARTESIANPOINT((50.,0.));
#568=IFCPOLYLINE((#560,#561,#562,#563,#564,#565,#566,#567,#560));
#569=IFCARBITRARYCLOSEDPROFILEDEF(.AREA.,$,#568);
#570=IFCCARTESIANPOINT((0.,0.,0.));
#571=IFCDIRECTION((0.,-1.,0.));
#572=IFCDIRECTION((1.,0.,0.));
#573=IFCAXIS2PLACEMENT3D(#570,#571,#572);
#574=IFCDIRECTION((0.,0.,-1.));
#575=IFCEXTRUDEDAREASOLID(#569,#573,#574,25.);
#576=IFCCARTESIANPOINT((0.,0.));
#577=IFCCARTESIANPOINT((-99.099999999999994,0.));
#578=IFCCARTESIANPOINT((-99.099999999999994,100.));
#579=IFCCARTESIANPOINT((0.,100.));
#580=IFCPOLYLINE((#576,#577,#578,#579,#576));
#581=IFCARBITRARYCLOSEDPROFILEDEF(.AREA.,$,#580);
#582=IFCCARTESIANPOINT((50.,0.,0.));
#583=IFCDIRECTION((0.,0.,1.));
#584=IFCDIRECTION((1.,0.,0.));
#585=IFCAXIS2PLACEMENT3D(#582,#583,#584);
#586=IFCDIRECTION((0.,0.,1.));
#587=IFCEXTRUDEDAREASOLID(#581,#585,#586,25.);
#588=IFCCARTESIANPOINT((0.,0.));
#589=IFCCARTESIANPOINT((0.,27.100000000000001));
#590=IFCCARTESIANPOINT((50.899999999999999,27.100000000000001));
#591=IFCCARTESIANPOINT((50.899999999999999,0.));
#592=IFCCARTESIANPOINT((-24.100000000000001,0.));
#593=IFCCARTESIANPOINT((-24.100000000000001,-47.899999999999999));
#594=IFCCARTESIANPOINT((75.,-47.899999999999999));
#595=IFCCARTESIANPOINT((75.,0.));
#596=IFCPOLYLINE((#588,#589,#590,#591,#592,#593,#594,#595,#588));
#597=IFCARBITRARYCLOSEDPROFILEDEF(.AREA.,$,#596);
#598=IFCCARTESIANPOINT((-25.,-5.,0.));
#599=IFCDIRECTION((0.,-1.,0.));
#600=IFCDIRECTION((1.,0.,0.));
#601=IFCAXIS2PLACEMENT3D(#598,#599,#600);
#602=IFCDIRECTION((0.,0.,-1.));
#603=IFCEXTRUDEDAREASOLID(#597,#601,#602,5.);
#604=IFCCARTESIANPOINT((0.,0.));
#605=IFCCARTESIANPOINT((0.,27.100000000000001));
#606=IFCCARTESIANPOINT((50.899999999999999,27.100000000000001));
#607=IFCCARTESIANPOINT((50.899999999999999,0.));
#608=IFCCARTESIANPOINT((0.89999999999999858,0.));
#609=IFCCARTESIANPOINT((0.89999999999999858,-22.899999999999999));
#610=IFCCARTESIANPOINT((50.,-22.899999999999999));
#611=IFCCARTESIANPOINT((50.,0.));
#612=IFCPOLYLINE((#604,#605,#606,#607,#608,#609,#610,#611,#604));
#613=IFCARBITRARYCLOSEDPROFILEDEF(.AREA.,$,#612);
#614=IFCCARTESIANPOINT((-25.,50.,0.));
#615=IFCDIRECTION((0.,-1.,0.));
#616=IFCDIRECTION((1.,0.,0.));
#617=IFCAXIS2PLACEMENT3D(#614,#615,#616);
#618=IFCDIRECTION((0.,0.,-1.));
#619=IFCEXTRUDEDAREASOLID(#613,#617,#618,5.);
#620=IFCCARTESIANPOINT((0.,0.));
#621=IFCCARTESIANPOINT((-49.100000000000001,0.));
#622=IFCCARTESIANPOINT((-49.100000000000001,35.));
#623=IFCCARTESIANPOINT((0.,35.));
#624=IFCPOLYLINE((#620,#621,#622,#623,#620));
#625=IFCARBITRARYCLOSEDPROFILEDEF(.AREA.,$,#624);
#626=IFCCARTESIANPOINT((25.,25.,25.));
#627=IFCDIRECTION((0.,0.,1.));
#628=IFCDIRECTION((1.,0.,0.));
#629=IFCAXIS2PLACEMENT3D(#626,#627,#628);
#630=IFCDIRECTION((0.,0.,1.));
#631=IFCEXTRUDEDAREASOLID(#625,#629,#630,-47.899999999999999);
#632=IFCCARTESIANPOINT((0.,0.));
#633=IFCCARTESIANPOINT((0.,-40.));
#634=IFCCARTESIANPOINT((-120.00000000000003,-40.));
#635=IFCCARTESIANPOINT((-120.00000000000003,-20.));
#636=IFCCARTESIANPOINT((-20.,-20.));
#637=IFCCARTESIANPOINT((-20.,0.));
#638=IFCPOLYLINE((#632,#633,#634,#635,#636,#637,#632));
#639=IFCARBITRARYCLOSEDPROFILEDEF(.AREA.,$,#638);
#640=IFCCARTESIANPOINT((-74.099999999999994,25.,1015.));
#641=IFCDIRECTION((0.,0.,1.));
#642=IFCDIRECTION((1.,0.,0.));
#643=IFCAXIS2PLACEMENT3D(#640,#641,#642);
#644=IFCDIRECTION((0.,0.,1.));
#645=IFCEXTRUDEDAREASOLID(#639,#643,#644,20.);
#646=IFCEXTRUDEDAREASOLID(#647,#655,#659,20.);
#647=IFCARBITRARYCLOSEDPROFILEDEF(.AREA.,$,#648);
#648=IFCPOLYLINE((#649,#650,#651,#652,#653,#654,#649));
#649=IFCCARTESIANPOINT((0.,0.));
#650=IFCCARTESIANPOINT((0.,40.));
#651=IFCCARTESIANPOINT((-120.00000000000003,40.));
#652=IFCCARTESIANPOINT((-120.00000000000003,20.));
#653=IFCCARTESIANPOINT((-20.,20.));
#654=IFCCARTESIANPOINT((-20.,0.));
#655=IFCAXIS2PLACEMENT3D(#656,#657,#658);
#656=IFCCARTESIANPOINT((-74.099999999999994,60.,1015.));
#657=IFCDIRECTION((0.,0.,1.));
#658=IFCDIRECTION((1.,0.,0.));
#659=IFCDIRECTION((0.,0.,1.));
#660=IFCSHAPEREPRESENTATION(#19,'Body','SweptSolid',(#559,#575,#631,#645,#646,#587,#603,#619));
#661=IFCPRODUCTDEFINITIONSHAPE($,$,(#660));
#667=IFCCARTESIANPOINT((2300.,-50.,0.));
#668=IFCDIRECTION((0.,0.,1.));
#669=IFCDIRECTION((1.,0.,0.));
#670=IFCAXIS2PLACEMENT3D(#667,#668,#669);
#671=IFCLOCALPLACEMENT(#36,#670);
#672=IFCOWNERHISTORY(#3,#7,.READWRITE.,.MODIFIED.,1779440583,#3,#7,1779440583);
#673=IFCDOOR('2vbjcCXZX7lgtRcaBxlbe1',#672,'Door 4',$,$,#801,#791,$,$,$);
#674=IFCCARTESIANPOINT((0.,0.));
#675=IFCCARTESIANPOINT((0.,2.1000000000000001));
#676=IFCCARTESIANPOINT((0.90000000000000002,2.1000000000000001));
#677=IFCCARTESIANPOINT((0.90000000000000002,0.));
#678=IFCCARTESIANPOINT((-24.100000000000001,0.));
#679=IFCCARTESIANPOINT((-24.100000000000001,-22.899999999999999));
#680=IFCCARTESIANPOINT((25.,-22.899999999999999));
#681=IFCCARTESIANPOINT((25.,0.));
#682=IFCPOLYLINE((#674,#675,#676,#677,#678,#679,#680,#681,#674));
#683=IFCARBITRARYCLOSEDPROFILEDEF(.AREA.,$,#682);
#684=IFCCARTESIANPOINT((0.,25.,0.));
#685=IFCDIRECTION((0.,-1.,0.));
#686=IFCDIRECTION((1.,0.,0.));
#687=IFCAXIS2PLACEMENT3D(#684,#685,#686);
#688=IFCDIRECTION((0.,0.,-1.));
#689=IFCEXTRUDEDAREASOLID(#683,#687,#688,25.);
#690=IFCCARTESIANPOINT((0.,0.));
#691=IFCCARTESIANPOINT((0.,2.1000000000000001));
#692=IFCCARTESIANPOINT((0.90000000000000002,2.1000000000000001));
#693=IFCCARTESIANPOINT((0.90000000000000002,0.));
#694=IFCCARTESIANPOINT((-49.100000000000001,0.));
#695=IFCCARTESIANPOINT((-49.100000000000001,-47.899999999999999));
#696=IFCCARTESIANPOINT((50.,-47.899999999999999));
#697=IFCCARTESIANPOINT((50.,0.));
#698=IFCPOLYLINE((#690,#691,#692,#693,#694,#695,#696,#697,#690));
#699=IFCARBITRARYCLOSEDPROFILEDEF(.AREA.,$,#698);
#700=IFCCARTESIANPOINT((0.,0.,0.));
#701=IFCDIRECTION((0.,-1.,0.));
#702=IFCDIRECTION((1.,0.,0.));
#703=IFCAXIS2PLACEMENT3D(#700,#701,#702);
#704=IFCDIRECTION((0.,0.,-1.));
#705=IFCEXTRUDEDAREASOLID(#699,#703,#704,25.);
#706=IFCCARTESIANPOINT((0.,0.));
#707=IFCCARTESIANPOINT((-99.099999999999994,0.));
#708=IFCCARTESIANPOINT((-99.099999999999994,100.));
#709=IFCCARTESIANPOINT((0.,100.));
#710=IFCPOLYLINE((#706,#707,#708,#709,#706));
#711=IFCARBITRARYCLOSEDPROFILEDEF(.AREA.,$,#710);
#712=IFCCARTESIANPOINT((50.,0.,0.));
#713=IFCDIRECTION((0.,0.,1.));
#714=IFCDIRECTION((1.,0.,0.));
#715=IFCAXIS2PLACEMENT3D(#712,#713,#714);
#716=IFCDIRECTION((0.,0.,1.));
#717=IFCEXTRUDEDAREASOLID(#711,#715,#716,25.);
#718=IFCCARTESIANPOINT((0.,0.));
#719=IFCCARTESIANPOINT((0.,27.100000000000001));
#720=IFCCARTESIANPOINT((50.899999999999999,27.100000000000001));
#721=IFCCARTESIANPOINT((50.899999999999999,0.));
#722=IFCCARTESIANPOINT((-24.100000000000001,0.));
#723=IFCCARTESIANPOINT((-24.100000000000001,-47.899999999999999));
#724=IFCCARTESIANPOINT((75.,-47.899999999999999));
#725=IFCCARTESIANPOINT((75.,0.));
#726=IFCPOLYLINE((#718,#719,#720,#721,#722,#723,#724,#725,#718));
#727=IFCARBITRARYCLOSEDPROFILEDEF(.AREA.,$,#726);
#728=IFCCARTESIANPOINT((-25.,-5.,0.));
#729=IFCDIRECTION((0.,-1.,0.));
#730=IFCDIRECTION((1.,0.,0.));
#731=IFCAXIS2PLACEMENT3D(#728,#729,#730);
#732=IFCDIRECTION((0.,0.,-1.));
#733=IFCEXTRUDEDAREASOLID(#727,#731,#732,5.);
#734=IFCCARTESIANPOINT((0.,0.));
#735=IFCCARTESIANPOINT((0.,27.100000000000001));
#736=IFCCARTESIANPOINT((50.899999999999999,27.100000000000001));
#737=IFCCARTESIANPOINT((50.899999999999999,0.));
#738=IFCCARTESIANPOINT((0.89999999999999858,0.));
#739=IFCCARTESIANPOINT((0.89999999999999858,-22.899999999999999));
#740=IFCCARTESIANPOINT((50.,-22.899999999999999));
#741=IFCCARTESIANPOINT((50.,0.));
#742=IFCPOLYLINE((#734,#735,#736,#737,#738,#739,#740,#741,#734));
#743=IFCARBITRARYCLOSEDPROFILEDEF(.AREA.,$,#742);
#744=IFCCARTESIANPOINT((-25.,50.,0.));
#745=IFCDIRECTION((0.,-1.,0.));
#746=IFCDIRECTION((1.,0.,0.));
#747=IFCAXIS2PLACEMENT3D(#744,#745,#746);
#748=IFCDIRECTION((0.,0.,-1.));
#749=IFCEXTRUDEDAREASOLID(#743,#747,#748,5.);
#750=IFCCARTESIANPOINT((0.,0.));
#751=IFCCARTESIANPOINT((-49.100000000000001,0.));
#752=IFCCARTESIANPOINT((-49.100000000000001,35.));
#753=IFCCARTESIANPOINT((0.,35.));
#754=IFCPOLYLINE((#750,#751,#752,#753,#750));
#755=IFCARBITRARYCLOSEDPROFILEDEF(.AREA.,$,#754);
#756=IFCCARTESIANPOINT((25.,25.,25.));
#757=IFCDIRECTION((0.,0.,1.));
#758=IFCDIRECTION((1.,0.,0.));
#759=IFCAXIS2PLACEMENT3D(#756,#757,#758);
#760=IFCDIRECTION((0.,0.,1.));
#761=IFCEXTRUDEDAREASOLID(#755,#759,#760,-47.899999999999999);
#762=IFCCARTESIANPOINT((0.,0.));
#763=IFCCARTESIANPOINT((0.,-40.));
#764=IFCCARTESIANPOINT((-120.00000000000003,-40.));
#765=IFCCARTESIANPOINT((-120.00000000000003,-20.));
#766=IFCCARTESIANPOINT((-20.,-20.));
#767=IFCCARTESIANPOINT((-20.,0.));
#768=IFCPOLYLINE((#762,#763,#764,#765,#766,#767,#762));
#769=IFCARBITRARYCLOSEDPROFILEDEF(.AREA.,$,#768);
#770=IFCCARTESIANPOINT((-74.099999999999994,25.,1015.));
#771=IFCDIRECTION((0.,0.,1.));
#772=IFCDIRECTION((1.,0.,0.));
#773=IFCAXIS2PLACEMENT3D(#770,#771,#772);
#774=IFCDIRECTION((0.,0.,1.));
#775=IFCEXTRUDEDAREASOLID(#769,#773,#774,20.);
#776=IFCEXTRUDEDAREASOLID(#777,#785,#789,20.);
#777=IFCARBITRARYCLOSEDPROFILEDEF(.AREA.,$,#778);
#778=IFCPOLYLINE((#779,#780,#781,#782,#783,#784,#779));
#779=IFCCARTESIANPOINT((0.,0.));
#780=IFCCARTESIANPOINT((0.,40.));
#781=IFCCARTESIANPOINT((-120.00000000000003,40.));
#782=IFCCARTESIANPOINT((-120.00000000000003,20.));
#783=IFCCARTESIANPOINT((-20.,20.));
#784=IFCCARTESIANPOINT((-20.,0.));
#785=IFCAXIS2PLACEMENT3D(#786,#787,#788);
#786=IFCCARTESIANPOINT((-74.099999999999994,60.,1015.));
#787=IFCDIRECTION((0.,0.,1.));
#788=IFCDIRECTION((1.,0.,0.));
#789=IFCDIRECTION((0.,0.,1.));
#790=IFCSHAPEREPRESENTATION(#19,'Body','SweptSolid',(#689,#705,#761,#775,#776,#717,#733,#749));
#791=IFCPRODUCTDEFINITIONSHAPE($,$,(#790));
#797=IFCCARTESIANPOINT((3049.9999999999995,-50.,0.));
#798=IFCDIRECTION((0.,0.,1.));
#799=IFCDIRECTION((1.,0.,0.));
#800=IFCAXIS2PLACEMENT3D(#797,#798,#799);
#801=IFCLOCALPLACEMENT(#36,#800);
#802=IFCOWNERHISTORY(#3,#7,.READWRITE.,.MODIFIED.,1779440583,#3,#7,1779440583);
#803=IFCOPENINGELEMENT('0NBghbWjzEKBGr7COeS8px',#802,'WD - 001',$,$,#838,#833,$);
#804=IFCCARTESIANPOINT((0.,0.,0.));
#805=IFCCARTESIANPOINT((900.,0.,0.));
#806=IFCCARTESIANPOINT((900.,202.,0.));
#807=IFCCARTESIANPOINT((0.,202.,0.));
#808=IFCCARTESIANPOINT((0.,0.,1500.));
#809=IFCCARTESIANPOINT((900.,0.,1500.));
#810=IFCCARTESIANPOINT((900.,202.,1500.));
#811=IFCCARTESIANPOINT((0.,202.,1500.));
#812=IFCPOLYLOOP((#804,#805,#806,#807));
#813=IFCFACEOUTERBOUND(#812,.T.);
#814=IFCFACE((#813));
#815=IFCPOLYLOOP((#808,#811,#810,#809));
#816=IFCFACEOUTERBOUND(#815,.T.);
#817=IFCFACE((#816));
#818=IFCPOLYLOOP((#804,#808,#809,#805));
#819=IFCFACEOUTERBOUND(#818,.T.);
#820=IFCFACE((#819));
#821=IFCPOLYLOOP((#805,#809,#810,#806));
#822=IFCFACEOUTERBOUND(#821,.T.);
#823=IFCFACE((#822));
#824=IFCPOLYLOOP((#806,#810,#811,#807));
#825=IFCFACEOUTERBOUND(#824,.T.);
#826=IFCFACE((#825));
#827=IFCPOLYLOOP((#807,#811,#808,#804));
#828=IFCFACEOUTERBOUND(#827,.T.);
#829=IFCFACE((#828));
#830=IFCCLOSEDSHELL((#814,#817,#820,#823,#826,#829));
#831=IFCFACETEDBREP(#830);
#832=IFCSHAPEREPRESENTATION(#19,'Body','Brep',(#831));
#833=IFCPRODUCTDEFINITIONSHAPE($,$,(#832));
#834=IFCCARTESIANPOINT((6000.,-1.,1000.));
#835=IFCDIRECTION((0.,0.,1.));
#836=IFCDIRECTION((1.,0.,0.));
#837=IFCAXIS2PLACEMENT3D(#834,#835,#836);
#838=IFCLOCALPLACEMENT($,#837);
#839=IFCOWNERHISTORY(#3,#7,.READWRITE.,.ADDED.,1779440583,#3,#7,1779440583);
#840=IFCRELVOIDSELEMENT('0_Oxi4xIL7vv5mzJkMGOGC',#839,$,$,#38,#803);
#841=IFCOWNERHISTORY(#3,#7,.READWRITE.,.MODIFIED.,1779440583,#3,#7,1779440583);
#842=IFCWINDOW('14eRp00KT1zglnLRGhZDGV',#841,'WD - 001',$,'WINDOW',#996,#984,$,1500.,900.);
#843=IFCCARTESIANPOINT((0.,0.,0.));
#844=IFCCARTESIANPOINT((60.,0.,0.));
#845=IFCCARTESIANPOINT((60.,75.,0.));
#846=IFCCARTESIANPOINT((0.,75.,0.));
#847=IFCCARTESIANPOINT((0.,0.,1500.));
#848=IFCCARTESIANPOINT((60.,0.,1500.));
#849=IFCCARTESIANPOINT((60.,75.,1500.));
#850=IFCCARTESIANPOINT((0.,75.,1500.));
#851=IFCPOLYLOOP((#843,#844,#845,#846));
#852=IFCFACEOUTERBOUND(#851,.T.);
#853=IFCFACE((#852));
#854=IFCPOLYLOOP((#847,#850,#849,#848));
#855=IFCFACEOUTERBOUND(#854,.T.);
#856=IFCFACE((#855));
#857=IFCPOLYLOOP((#843,#847,#848,#844));
#858=IFCFACEOUTERBOUND(#857,.T.);
#859=IFCFACE((#858));
#860=IFCPOLYLOOP((#844,#848,#849,#845));
#861=IFCFACEOUTERBOUND(#860,.T.);
#862=IFCFACE((#861));
#863=IFCPOLYLOOP((#845,#849,#850,#846));
#864=IFCFACEOUTERBOUND(#863,.T.);
#865=IFCFACE((#864));
#866=IFCPOLYLOOP((#846,#850,#847,#843));
#867=IFCFACEOUTERBOUND(#866,.T.);
#868=IFCFACE((#867));
#869=IFCCLOSEDSHELL((#853,#856,#859,#862,#865,#868));
#870=IFCFACETEDBREP(#869);
#871=IFCCARTESIANPOINT((840.,0.,0.));
#872=IFCCARTESIANPOINT((900.,0.,0.));
#873=IFCCARTESIANPOINT((900.,75.,0.));
#874=IFCCARTESIANPOINT((840.,75.,0.));
#875=IFCCARTESIANPOINT((840.,0.,1500.));
#876=IFCCARTESIANPOINT((900.,0.,1500.));
#877=IFCCARTESIANPOINT((900.,75.,1500.));
#878=IFCCARTESIANPOINT((840.,75.,1500.));
#879=IFCPOLYLOOP((#871,#872,#873,#874));
#880=IFCFACEOUTERBOUND(#879,.T.);
#881=IFCFACE((#880));
#882=IFCPOLYLOOP((#875,#878,#877,#876));
#883=IFCFACEOUTERBOUND(#882,.T.);
#884=IFCFACE((#883));
#885=IFCPOLYLOOP((#871,#875,#876,#872));
#886=IFCFACEOUTERBOUND(#885,.T.);
#887=IFCFACE((#886));
#888=IFCPOLYLOOP((#872,#876,#877,#873));
#889=IFCFACEOUTERBOUND(#888,.T.);
#890=IFCFACE((#889));
#891=IFCPOLYLOOP((#873,#877,#878,#874));
#892=IFCFACEOUTERBOUND(#891,.T.);
#893=IFCFACE((#892));
#894=IFCPOLYLOOP((#874,#878,#875,#871));
#895=IFCFACEOUTERBOUND(#894,.T.);
#896=IFCFACE((#895));
#897=IFCCLOSEDSHELL((#881,#884,#887,#890,#893,#896));
#898=IFCFACETEDBREP(#897);
#899=IFCCARTESIANPOINT((0.,0.,1440.));
#900=IFCCARTESIANPOINT((900.,0.,1440.));
#901=IFCCARTESIANPOINT((900.,75.,1440.));
#902=IFCCARTESIANPOINT((0.,75.,1440.));
#903=IFCCARTESIANPOINT((0.,0.,1500.));
#904=IFCCARTESIANPOINT((900.,0.,1500.));
#905=IFCCARTESIANPOINT((900.,75.,1500.));
#906=IFCCARTESIANPOINT((0.,75.,1500.));
#907=IFCPOLYLOOP((#899,#900,#901,#902));
#908=IFCFACEOUTERBOUND(#907,.T.);
#909=IFCFACE((#908));
#910=IFCPOLYLOOP((#903,#906,#905,#904));
#911=IFCFACEOUTERBOUND(#910,.T.);
#912=IFCFACE((#911));
#913=IFCPOLYLOOP((#899,#903,#904,#900));
#914=IFCFACEOUTERBOUND(#913,.T.);
#915=IFCFACE((#914));
#916=IFCPOLYLOOP((#900,#904,#905,#901));
#917=IFCFACEOUTERBOUND(#916,.T.);
#918=IFCFACE((#917));
#919=IFCPOLYLOOP((#901,#905,#906,#902));
#920=IFCFACEOUTERBOUND(#919,.T.);
#921=IFCFACE((#920));
#922=IFCPOLYLOOP((#902,#906,#903,#899));
#923=IFCFACEOUTERBOUND(#922,.T.);
#924=IFCFACE((#923));
#925=IFCCLOSEDSHELL((#909,#912,#915,#918,#921,#924));
#926=IFCFACETEDBREP(#925);
#927=IFCCARTESIANPOINT((0.,0.,0.));
#928=IFCCARTESIANPOINT((900.,0.,0.));
#929=IFCCARTESIANPOINT((900.,75.,0.));
#930=IFCCARTESIANPOINT((0.,75.,0.));
#931=IFCCARTESIANPOINT((0.,0.,60.));
#932=IFCCARTESIANPOINT((900.,0.,60.));
#933=IFCCARTESIANPOINT((900.,75.,60.));
#934=IFCCARTESIANPOINT((0.,75.,60.));
#935=IFCPOLYLOOP((#927,#928,#929,#930));
#936=IFCFACEOUTERBOUND(#935,.T.);
#937=IFCFACE((#936));
#938=IFCPOLYLOOP((#931,#934,#933,#932));
#939=IFCFACEOUTERBOUND(#938,.T.);
#940=IFCFACE((#939));
#941=IFCPOLYLOOP((#927,#931,#932,#928));
#942=IFCFACEOUTERBOUND(#941,.T.);
#943=IFCFACE((#942));
#944=IFCPOLYLOOP((#928,#932,#933,#929));
#945=IFCFACEOUTERBOUND(#944,.T.);
#946=IFCFACE((#945));
#947=IFCPOLYLOOP((#929,#933,#934,#930));
#948=IFCFACEOUTERBOUND(#947,.T.);
#949=IFCFACE((#948));
#950=IFCPOLYLOOP((#930,#934,#931,#927));
#951=IFCFACEOUTERBOUND(#950,.T.);
#952=IFCFACE((#951));
#953=IFCCLOSEDSHELL((#937,#940,#943,#946,#949,#952));
#954=IFCFACETEDBREP(#953);
#955=IFCCARTESIANPOINT((60.,27.5,60.));
#956=IFCCARTESIANPOINT((840.,27.5,60.));
#957=IFCCARTESIANPOINT((840.,47.5,60.));
#958=IFCCARTESIANPOINT((60.,47.5,60.));
#959=IFCCARTESIANPOINT((60.,27.5,1440.));
#960=IFCCARTESIANPOINT((840.,27.5,1440.));
#961=IFCCARTESIANPOINT((840.,47.5,1440.));
#962=IFCCARTESIANPOINT((60.,47.5,1440.));
#963=IFCPOLYLOOP((#955,#956,#957,#958));
#964=IFCFACEOUTERBOUND(#963,.T.);
#965=IFCFACE((#964));
#966=IFCPOLYLOOP((#959,#962,#961,#960));
#967=IFCFACEOUTERBOUND(#966,.T.);
#968=IFCFACE((#967));
#969=IFCPOLYLOOP((#955,#959,#960,#956));
#970=IFCFACEOUTERBOUND(#969,.T.);
#971=IFCFACE((#970));
#972=IFCPOLYLOOP((#956,#960,#961,#957));
#973=IFCFACEOUTERBOUND(#972,.T.);
#974=IFCFACE((#973));
#975=IFCPOLYLOOP((#957,#961,#962,#958));
#976=IFCFACEOUTERBOUND(#975,.T.);
#977=IFCFACE((#976));
#978=IFCPOLYLOOP((#958,#962,#959,#955));
#979=IFCFACEOUTERBOUND(#978,.T.);
#980=IFCFACE((#979));
#981=IFCCLOSEDSHELL((#965,#968,#971,#974,#977,#980));
#982=IFCFACETEDBREP(#981);
#983=IFCSHAPEREPRESENTATION(#19,'Body','SurfaceModel',(#870,#898,#926,#954,#982));
#984=IFCPRODUCTDEFINITIONSHAPE($,$,(#983));
#990=IFCOWNERHISTORY(#3,#7,.READWRITE.,.ADDED.,1779440583,#3,#7,1779440583);
#991=IFCRELFILLSELEMENT('0BySmPJyT1CeWfUb$A7G6L',#990,$,$,#803,#842);
#992=IFCCARTESIANPOINT((0.,1.,0.));
#993=IFCDIRECTION((0.,0.,1.));
#994=IFCDIRECTION((1.,0.,0.));
#995=IFCAXIS2PLACEMENT3D(#992,#993,#994);
#996=IFCLOCALPLACEMENT(#838,#995);
#997=IFCOWNERHISTORY(#3,#7,.READWRITE.,.ADDED.,1779440583,#3,#7,1779440583);
#998=IFCWINDOWSTYLE('0v54WQKtHB0emYWMhsYytb',#997,'Window Style 1',$,$,$,$,$,.NOTDEFINED.,.NOTDEFINED.,.F.,.F.);
#999=IFCOWNERHISTORY(#3,#7,.READWRITE.,.ADDED.,1779440583,#3,#7,1779440583);
#1000=IFCRELDEFINESBYTYPE('18pzdIvPv1JPyiEhsXMs5h',#999,$,$,(#842),#998);
#1001=IFCOWNERHISTORY(#3,#7,.READWRITE.,.MODIFIED.,1779440583,#3,#7,1779440583);
#1002=IFCSPACE('1uV6D7hZbA8f0ylNJScqmP',#1001,'RECEPTION',$,$,#1024,#1019,$,.ELEMENT.,$,$);
#1003=IFCOWNERHISTORY(#3,#7,.READWRITE.,.MODIFIED.,1779440583,#3,#7,1779440583);
#1004=IFCRELAGGREGATES('3c0ojoEDzBx9DHMJe8ijyV',#1003,$,$,#29,(#1070,#1026,#1048,#1002));
#1005=IFCCARTESIANPOINT((0.,0.));
#1006=IFCCARTESIANPOINT((5750.,0.));
#1007=IFCCARTESIANPOINT((5750.,2750.));
#1008=IFCCARTESIANPOINT((0.,2750.));
#1009=IFCCARTESIANPOINT((0.,0.));
#1010=IFCPOLYLINE((#1005,#1006,#1007,#1008,#1009));
#1011=IFCDIRECTION((0.,0.,1.));
#1012=IFCCARTESIANPOINT((0.,0.,0.));
#1013=IFCDIRECTION((0.,0.,1.));
#1014=IFCDIRECTION((1.,0.,0.));
#1015=IFCAXIS2PLACEMENT3D(#1012,#1013,#1014);
#1016=IFCARBITRARYCLOSEDPROFILEDEF(.AREA.,$,#1010);
#1017=IFCEXTRUDEDAREASOLID(#1016,#1015,#1011,2799.9999999999995);
#1018=IFCSHAPEREPRESENTATION(#19,'Body','SweptSolid',(#1017));
#1019=IFCPRODUCTDEFINITIONSHAPE($,$,(#1018));
#1020=IFCCARTESIANPOINT((100.,100.,0.));
#1021=IFCDIRECTION((0.,0.,1.));
#1022=IFCDIRECTION((1.,0.,0.));
#1023=IFCAXIS2PLACEMENT3D(#1020,#1021,#1022);
#1024=IFCLOCALPLACEMENT(#36,#1023);
#1025=IFCOWNERHISTORY(#3,#7,.READWRITE.,.MODIFIED.,1779440583,#3,#7,1779440583);
#1026=IFCSPACE('22QHmGPbv1GeH_vZQe0sKU',#1025,'EXAM',$,$,#1046,#1041,$,.ELEMENT.,$,$);
#1027=IFCCARTESIANPOINT((0.,0.));
#1028=IFCCARTESIANPOINT((5750.,0.));
#1029=IFCCARTESIANPOINT((5750.,2750.));
#1030=IFCCARTESIANPOINT((0.,2750.));
#1031=IFCCARTESIANPOINT((0.,0.));
#1032=IFCPOLYLINE((#1027,#1028,#1029,#1030,#1031));
#1033=IFCDIRECTION((0.,0.,1.));
#1034=IFCCARTESIANPOINT((0.,0.,0.));
#1035=IFCDIRECTION((0.,0.,1.));
#1036=IFCDIRECTION((1.,0.,0.));
#1037=IFCAXIS2PLACEMENT3D(#1034,#1035,#1036);
#1038=IFCARBITRARYCLOSEDPROFILEDEF(.AREA.,$,#1032);
#1039=IFCEXTRUDEDAREASOLID(#1038,#1037,#1033,2799.9999999999995);
#1040=IFCSHAPEREPRESENTATION(#19,'Body','SweptSolid',(#1039));
#1041=IFCPRODUCTDEFINITIONSHAPE($,$,(#1040));
#1042=IFCCARTESIANPOINT((6099.9999999999991,100.,0.));
#1043=IFCDIRECTION((0.,0.,1.));
#1044=IFCDIRECTION((1.,0.,0.));
#1045=IFCAXIS2PLACEMENT3D(#1042,#1043,#1044);
#1046=IFCLOCALPLACEMENT(#36,#1045);
#1047=IFCOWNERHISTORY(#3,#7,.READWRITE.,.MODIFIED.,1779440583,#3,#7,1779440583);
#1048=IFCSPACE('3EAnIFX4XCEOWlVZ8tfh8_',#1047,'STAFF',$,$,#1068,#1063,$,.ELEMENT.,$,$);
#1049=IFCCARTESIANPOINT((0.,0.));
#1050=IFCCARTESIANPOINT((5750.,0.));
#1051=IFCCARTESIANPOINT((5750.,2750.));
#1052=IFCCARTESIANPOINT((0.,2750.));
#1053=IFCCARTESIANPOINT((0.,0.));
#1054=IFCPOLYLINE((#1049,#1050,#1051,#1052,#1053));
#1055=IFCDIRECTION((0.,0.,1.));
#1056=IFCCARTESIANPOINT((0.,0.,0.));
#1057=IFCDIRECTION((0.,0.,1.));
#1058=IFCDIRECTION((1.,0.,0.));
#1059=IFCAXIS2PLACEMENT3D(#1056,#1057,#1058);
#1060=IFCARBITRARYCLOSEDPROFILEDEF(.AREA.,$,#1054);
#1061=IFCEXTRUDEDAREASOLID(#1060,#1059,#1055,2799.9999999999995);
#1062=IFCSHAPEREPRESENTATION(#19,'Body','SweptSolid',(#1061));
#1063=IFCPRODUCTDEFINITIONSHAPE($,$,(#1062));
#1064=IFCCARTESIANPOINT((100.,3100.,0.));
#1065=IFCDIRECTION((0.,0.,1.));
#1066=IFCDIRECTION((1.,0.,0.));
#1067=IFCAXIS2PLACEMENT3D(#1064,#1065,#1066);
#1068=IFCLOCALPLACEMENT(#36,#1067);
#1069=IFCOWNERHISTORY(#3,#7,.READWRITE.,.MODIFIED.,1779440583,#3,#7,1779440583);
#1070=IFCSPACE('0OdKtrOmL8Pxmge96h3c4J',#1069,'WC',$,$,#1090,#1085,$,.ELEMENT.,$,$);
#1071=IFCCARTESIANPOINT((0.,0.));
#1072=IFCCARTESIANPOINT((5750.,0.));
#1073=IFCCARTESIANPOINT((5750.,2750.));
#1074=IFCCARTESIANPOINT((0.,2750.));
#1075=IFCCARTESIANPOINT((0.,0.));
#1076=IFCPOLYLINE((#1071,#1072,#1073,#1074,#1075));
#1077=IFCDIRECTION((0.,0.,1.));
#1078=IFCCARTESIANPOINT((0.,0.,0.));
#1079=IFCDIRECTION((0.,0.,1.));
#1080=IFCDIRECTION((1.,0.,0.));
#1081=IFCAXIS2PLACEMENT3D(#1078,#1079,#1080);
#1082=IFCARBITRARYCLOSEDPROFILEDEF(.AREA.,$,#1076);
#1083=IFCEXTRUDEDAREASOLID(#1082,#1081,#1077,2799.9999999999995);
#1084=IFCSHAPEREPRESENTATION(#19,'Body','SweptSolid',(#1083));
#1085=IFCPRODUCTDEFINITIONSHAPE($,$,(#1084));
#1086=IFCCARTESIANPOINT((6099.9999999999991,3100.,0.));
#1087=IFCDIRECTION((0.,0.,1.));
#1088=IFCDIRECTION((1.,0.,0.));
#1089=IFCAXIS2PLACEMENT3D(#1086,#1087,#1088);
#1090=IFCLOCALPLACEMENT(#36,#1089);
ENDSEC;
END-ISO-10303-21;
