ISO-10303-21;
HEADER;
FILE_DESCRIPTION (( 'STEP AP203' ),
    '1' );
FILE_NAME ('stage1_geometry.step',
    '2026-08-01T02:41:57',
    ( '' ),
    ( 'Administrator' ),
    'SwSTEP 2.0',
    'SolidWorks 2025',
    '' );
FILE_SCHEMA (( 'CONFIG_CONTROL_DESIGN' ));
ENDSEC;

DATA;
#1 = DIRECTION ( 'NONE',  ( 0.000000000000000000, 0.000000000000000000, -1.000000000000000000 ) ) ;
#2 = DIRECTION ( 'NONE',  ( -1.000000000000000000, -0.000000000000000000, 0.000000000000000000 ) ) ;
#3 = EDGE_CURVE ( 'NONE', #607, #748, #375, .T. ) ;
#4 = CARTESIAN_POINT ( 'NONE',  ( 45.00000000000000000, 35.00000000000000000, 34.00000000000000000 ) ) ;
#5 = PLANE ( 'NONE',  #636 ) ;
#6 = CIRCLE ( 'NONE', #271, 2.999999999999999112 ) ;
#7 = AXIS2_PLACEMENT_3D ( 'NONE', #760, #443, #137 ) ;
#8 = VECTOR ( 'NONE', #353, 1000.000000000000000 ) ;
#9 = DIRECTION ( 'NONE',  ( 1.000000000000000000, 0.000000000000000000, -0.000000000000000000 ) ) ;
#10 = PLANE ( 'NONE',  #152 ) ;
#11 = APPLICATION_CONTEXT ( 'configuration controlled 3d designs of mechanical parts and assemblies' ) ;
#12 = EDGE_CURVE ( 'NONE', #43, #187, #542, .T. ) ;
#13 = CARTESIAN_POINT ( 'NONE',  ( 32.00000000000000000, 27.00000000000000000, 7.900000000000000355 ) ) ;
#14 = LINE ( 'NONE', #634, #299 ) ;
#15 = ADVANCED_FACE ( 'NONE', ( #234 ), #66, .T. ) ;
#16 = FACE_OUTER_BOUND ( 'NONE', #744, .T. ) ;
#17 = DIRECTION ( 'NONE',  ( 0.000000000000000000, 0.000000000000000000, 1.000000000000000000 ) ) ;
#18 = AXIS2_PLACEMENT_3D ( 'NONE', #323, #567, #527 ) ;
#19 = AXIS2_PLACEMENT_3D ( 'NONE', #197, #508, #73 ) ;
#20 = PLANE ( 'NONE',  #755 ) ;
#21 = CARTESIAN_POINT ( 'NONE',  ( 45.00000000000000000, 26.99999999999999645, 34.00000000000000000 ) ) ;
#22 = CARTESIAN_POINT ( 'NONE',  ( 0.000000000000000000, 0.000000000000000000, 0.000000000000000000 ) ) ;
#23 = ORIENTED_EDGE ( 'NONE', *, *, #248, .T. ) ;
#24 = LINE ( 'NONE', #578, #430 ) ;
#25 = SECURITY_CLASSIFICATION ( '', '', #281 ) ;
#26 = CARTESIAN_POINT ( 'NONE',  ( 32.00000000000000000, 13.00000000000000000, 46.00000000000000000 ) ) ;
#27 = MECHANICAL_CONTEXT ( 'NONE', #629, 'mechanical' ) ;
#28 = EDGE_CURVE ( 'NONE', #91, #651, #6, .T. ) ;
#29 = ORIENTED_EDGE ( 'NONE', *, *, #533, .F. ) ;
#30 = FACE_BOUND ( 'NONE', #492, .T. ) ;
#31 = FACE_BOUND ( 'NONE', #788, .T. ) ;
#32 = COORDINATED_UNIVERSAL_TIME_OFFSET ( 8, 0, .AHEAD. ) ;
#33 = VERTEX_POINT ( 'NONE', #433 ) ;
#34 = AXIS2_PLACEMENT_3D ( 'NONE', #143, #202, #1 ) ;
#35 = FACE_OUTER_BOUND ( 'NONE', #468, .T. ) ;
#36 = VECTOR ( 'NONE', #402, 1000.000000000000000 ) ;
#37 = CARTESIAN_POINT ( 'NONE',  ( 45.00000000000000000, 9.000000000000000000, 46.00000000000000000 ) ) ;
#38 = VERTEX_POINT ( 'NONE', #802 ) ;
#39 = CARTESIAN_POINT ( 'NONE',  ( 57.99999999999999289, 35.00000000000000000, 46.00000000000000000 ) ) ;
#40 = CC_DESIGN_PERSON_AND_ORGANIZATION_ASSIGNMENT ( #582, #587, ( #214 ) ) ;
#41 = CARTESIAN_POINT ( 'NONE',  ( 90.00000000000000000, 40.00000000000000000, 0.000000000000000000 ) ) ;
#42 = DIRECTION ( 'NONE',  ( 0.000000000000000000, 0.000000000000000000, 1.000000000000000000 ) ) ;
#43 = VERTEX_POINT ( 'NONE', #124 ) ;
#44 = ADVANCED_FACE ( 'NONE', ( #251 ), #680, .F. ) ;
#45 = CARTESIAN_POINT ( 'NONE',  ( 0.000000000000000000, 40.00000000000000000, 0.000000000000000000 ) ) ;
#46 = VERTEX_POINT ( 'NONE', #456 ) ;
#47 = ORIENTED_EDGE ( 'NONE', *, *, #448, .F. ) ;
#48 = ORIENTED_EDGE ( 'NONE', *, *, #777, .T. ) ;
#49 = VECTOR ( 'NONE', #196, 1000.000000000000000 ) ;
#50 = VECTOR ( 'NONE', #295, 1000.000000000000000 ) ;
#51 = PRODUCT_DEFINITION_SHAPE ( 'NONE', 'NONE',  #721 ) ;
#52 = CARTESIAN_POINT ( 'NONE',  ( 90.00000000000000000, 20.00000000000000000, 8.000000000000000000 ) ) ;
#53 = VERTEX_POINT ( 'NONE', #630 ) ;
#54 = ORIENTED_EDGE ( 'NONE', *, *, #642, .F. ) ;
#55 = ORIENTED_EDGE ( 'NONE', *, *, #76, .F. ) ;
#56 = DIRECTION ( 'NONE',  ( -0.000000000000000000, 1.000000000000000000, 0.000000000000000000 ) ) ;
#57 = EDGE_LOOP ( 'NONE', ( #113, #626, #804, #176 ) ) ;
#58 = LOCAL_TIME ( 10, 41, 57.00000000000000000, #222 ) ;
#59 = EDGE_CURVE ( 'NONE', #733, #440, #700, .T. ) ;
#60 = EDGE_LOOP ( 'NONE', ( #309, #99, #488, #487 ) ) ;
#61 = CARTESIAN_POINT ( 'NONE',  ( 45.00000000000000000, 35.00000000000000000, 7.900000000000000355 ) ) ;
#62 = EDGE_LOOP ( 'NONE', ( #189, #612, #369, #376 ) ) ;
#63 = VERTEX_POINT ( 'NONE', #198 ) ;
#64 = CARTESIAN_POINT ( 'NONE',  ( 32.00000000000000000, 20.00000000000000000, 8.000000000000000000 ) ) ;
#65 = AXIS2_PLACEMENT_3D ( 'NONE', #134, #391, #640 ) ;
#66 = PLANE ( 'NONE',  #339 ) ;
#67 = EDGE_LOOP ( 'NONE', ( #484, #681 ) ) ;
#68 = ADVANCED_FACE ( 'NONE', ( #697 ), #5, .T. ) ;
#69 = DIRECTION ( 'NONE',  ( 0.000000000000000000, 0.000000000000000000, 1.000000000000000000 ) ) ;
#70 = LINE ( 'NONE', #321, #385 ) ;
#71 = DIRECTION ( 'NONE',  ( 0.000000000000000000, 0.000000000000000000, 1.000000000000000000 ) ) ;
#72 = DIRECTION ( 'NONE',  ( 1.000000000000000000, 0.000000000000000000, 0.000000000000000000 ) ) ;
#73 = DIRECTION ( 'NONE',  ( -0.000000000000000000, 0.000000000000000000, -1.000000000000000000 ) ) ;
#74 = DIRECTION ( 'NONE',  ( 0.000000000000000000, 0.000000000000000000, 1.000000000000000000 ) ) ;
#75 = VECTOR ( 'NONE', #486, 1000.000000000000000 ) ;
#76 = EDGE_CURVE ( 'NONE', #738, #294, #14, .T. ) ;
#77 = CIRCLE ( 'NONE', #183, 3.000000000000002665 ) ;
#78 = CARTESIAN_POINT ( 'NONE',  ( 75.00000000000000000, 20.00000000000000000, -2.000000000000000000 ) ) ;
#79 = LINE ( 'NONE', #331, #49 ) ;
#80 = EDGE_CURVE ( 'NONE', #651, #217, #262, .T. ) ;
#81 = PLANE ( 'NONE',  #34 ) ;
#82 = DIRECTION ( 'NONE',  ( 0.000000000000000000, 0.000000000000000000, 1.000000000000000000 ) ) ;
#83 = LINE ( 'NONE', #337, #36 ) ;
#84 = CARTESIAN_POINT ( 'NONE',  ( 12.00000000000000000, 20.00000000000000000, 8.000000000000000000 ) ) ;
#85 = VERTEX_POINT ( 'NONE', #639 ) ;
#86 = CIRCLE ( 'NONE', #387, 8.000000000000000000 ) ;
#87 = CARTESIAN_POINT ( 'NONE',  ( 45.00000000000000000, 13.00000000000000000, 46.00000000000000000 ) ) ;
#88 = EDGE_CURVE ( 'NONE', #240, #815, #759, .T. ) ;
#89 = DIRECTION ( 'NONE',  ( -0.000000000000000000, -0.000000000000000000, -1.000000000000000000 ) ) ;
#90 = PERSON_AND_ORGANIZATION_ROLE ( 'creator' ) ;
#91 = VERTEX_POINT ( 'NONE', #267 ) ;
#92 = CARTESIAN_POINT ( 'NONE',  ( 15.00000000000000000, 20.00000000000000000, 8.000000000000000000 ) ) ;
#93 = CYLINDRICAL_SURFACE ( 'NONE', #476, 3.000000000000002665 ) ;
#94 =( NAMED_UNIT ( * ) SI_UNIT ( $, .STERADIAN. ) SOLID_ANGLE_UNIT ( ) );
#95 = ORIENTED_EDGE ( 'NONE', *, *, #80, .F. ) ;
#96 = CARTESIAN_POINT ( 'NONE',  ( 45.00000000000000000, 40.00000000000000000, 0.000000000000000000 ) ) ;
#97 = LINE ( 'NONE', #408, #794 ) ;
#98 = APPROVAL_STATUS ( 'not_yet_approved' ) ;
#99 = ORIENTED_EDGE ( 'NONE', *, *, #593, .T. ) ;
#100 = EDGE_CURVE ( 'NONE', #185, #439, #140, .T. ) ;
#101 = VECTOR ( 'NONE', #566, 1000.000000000000000 ) ;
#102 = CARTESIAN_POINT ( 'NONE',  ( 72.00000000000000000, 20.00000000000000000, 8.000000000000000000 ) ) ;
#103 = CARTESIAN_POINT ( 'NONE',  ( 45.00000000000000000, 4.999999999999999112, 26.00000000000000355 ) ) ;
#104 =( LENGTH_UNIT ( ) NAMED_UNIT ( * ) SI_UNIT ( .MILLI., .METRE. ) );
#105 = ORIENTED_EDGE ( 'NONE', *, *, #549, .F. ) ;
#106 = EDGE_CURVE ( 'NONE', #53, #244, #79, .T. ) ;
#107 = CARTESIAN_POINT ( 'NONE',  ( 45.00000000000000000, 13.00000000000000000, 34.00000000000000000 ) ) ;
#108 = DIRECTION ( 'NONE',  ( 0.000000000000000000, 0.000000000000000000, 1.000000000000000000 ) ) ;
#109 = ORIENTED_EDGE ( 'NONE', *, *, #510, .T. ) ;
#110 = ORIENTED_EDGE ( 'NONE', *, *, #403, .F. ) ;
#111 = CARTESIAN_POINT ( 'NONE',  ( 45.00000000000000000, 40.00000000000000000, 8.000000000000000000 ) ) ;
#112 = EDGE_LOOP ( 'NONE', ( #685, #286 ) ) ;
#113 = ORIENTED_EDGE ( 'NONE', *, *, #192, .T. ) ;
#114 = VERTEX_POINT ( 'NONE', #512 ) ;
#115 = AXIS2_PLACEMENT_3D ( 'NONE', #350, #649, #581 ) ;
#116 = VECTOR ( 'NONE', #69, 1000.000000000000000 ) ;
#117 = DIRECTION ( 'NONE',  ( 0.000000000000000000, 0.000000000000000000, -1.000000000000000000 ) ) ;
#118 = APPROVAL_PERSON_ORGANIZATION ( #519, #572, #290 ) ;
#119 = ADVANCED_FACE ( 'NONE', ( #764, #705, #138, #446, #571 ), #10, .T. ) ;
#120 = CARTESIAN_POINT ( 'NONE',  ( 45.00000000000000000, -2.000000000000000000, 34.00000000000000000 ) ) ;
#121 = ORIENTED_EDGE ( 'NONE', *, *, #80, .T. ) ;
#122 = ORIENTED_EDGE ( 'NONE', *, *, #315, .F. ) ;
#123 = FACE_OUTER_BOUND ( 'NONE', #401, .T. ) ;
#124 = CARTESIAN_POINT ( 'NONE',  ( 0.000000000000000000, 0.000000000000000000, 0.000000000000000000 ) ) ;
#125 = ORIENTED_EDGE ( 'NONE', *, *, #199, .T. ) ;
#126 = CARTESIAN_POINT ( 'NONE',  ( 75.00000000000000000, 20.00000000000000000, 8.000000000000000000 ) ) ;
#127 = ORIENTED_EDGE ( 'NONE', *, *, #463, .F. ) ;
#128 = ORIENTED_EDGE ( 'NONE', *, *, #403, .T. ) ;
#129 = ADVANCED_FACE ( 'NONE', ( #444 ), #449, .F. ) ;
#130 = LINE ( 'NONE', #378, #155 ) ;
#131 = AXIS2_PLACEMENT_3D ( 'NONE', #514, #220, #459 ) ;
#132 = CARTESIAN_POINT ( 'NONE',  ( 45.00000000000000000, -2.000000000000000000, 34.00000000000000000 ) ) ;
#133 = EDGE_CURVE ( 'NONE', #799, #406, #577, .T. ) ;
#134 = CARTESIAN_POINT ( 'NONE',  ( 57.99999999999999289, 31.00000000000000000, 7.900000000000000355 ) ) ;
#135 = APPROVAL_PERSON_ORGANIZATION ( #792, #287, #591 ) ;
#136 = CYLINDRICAL_SURFACE ( 'NONE', #556, 2.999999999999999112 ) ;
#137 = DIRECTION ( 'NONE',  ( 1.000000000000000000, 0.000000000000000000, -0.000000000000000000 ) ) ;
#138 = FACE_BOUND ( 'NONE', #583, .T. ) ;
#139 = CARTESIAN_POINT ( 'NONE',  ( 32.00000000000000000, 4.999999999999999112, 7.900000000000000355 ) ) ;
#140 = LINE ( 'NONE', #389, #398 ) ;
#141 = ADVANCED_FACE ( 'NONE', ( #766 ), #207, .F. ) ;
#142 = VECTOR ( 'NONE', #554, 1000.000000000000000 ) ;
#143 = CARTESIAN_POINT ( 'NONE',  ( 45.00000000000000000, 0.000000000000000000, 0.000000000000000000 ) ) ;
#144 = DIRECTION ( 'NONE',  ( 0.000000000000000000, 0.000000000000000000, 1.000000000000000000 ) ) ;
#145 = DIRECTION ( 'NONE',  ( 1.000000000000000000, 0.000000000000000000, 0.000000000000000000 ) ) ;
#146 = CARTESIAN_POINT ( 'NONE',  ( 32.00000000000000000, 35.00000000000000000, 8.000000000000000000 ) ) ;
#147 = ORIENTED_EDGE ( 'NONE', *, *, #229, .T. ) ;
#148 = EDGE_CURVE ( 'NONE', #33, #185, #70, .T. ) ;
#149 = LINE ( 'NONE', #711, #569 ) ;
#150 = LOCAL_TIME ( 10, 41, 57.00000000000000000, #153 ) ;
#151 = CARTESIAN_POINT ( 'NONE',  ( 45.00000000000000000, 13.00000000000000000, 8.000000000000000000 ) ) ;
#152 = AXIS2_PLACEMENT_3D ( 'NONE', #509, #201, #392 ) ;
#153 = COORDINATED_UNIVERSAL_TIME_OFFSET ( 8, 0, .AHEAD. ) ;
#154 = VERTEX_POINT ( 'NONE', #565 ) ;
#155 = VECTOR ( 'NONE', #266, 1000.000000000000000 ) ;
#156 = AXIS2_PLACEMENT_3D ( 'NONE', #22, #42, #461 ) ;
#157 = LINE ( 'NONE', #662, #8 ) ;
#158 = CARTESIAN_POINT ( 'NONE',  ( 75.00000000000000000, 20.00000000000000000, -2.000000000000000000 ) ) ;
#159 = ORIENTED_EDGE ( 'NONE', *, *, #100, .T. ) ;
#160 = FACE_OUTER_BOUND ( 'NONE', #304, .T. ) ;
#161 = DIRECTION ( 'NONE',  ( 1.000000000000000000, 0.000000000000000000, -0.000000000000000000 ) ) ;
#162 = ADVANCED_FACE ( 'NONE', ( #503 ), #136, .F. ) ;
#163 = APPROVAL_DATE_TIME ( #728, #287 ) ;
#164 = EDGE_LOOP ( 'NONE', ( #54, #423, #371, #479 ) ) ;
#165 = DIRECTION ( 'NONE',  ( 0.000000000000000000, -1.000000000000000000, -0.000000000000000000 ) ) ;
#166 = FACE_OUTER_BOUND ( 'NONE', #62, .T. ) ;
#167 = EDGE_CURVE ( 'NONE', #424, #305, #325, .T. ) ;
#168 = ORIENTED_EDGE ( 'NONE', *, *, #275, .T. ) ;
#169 = AXIS2_PLACEMENT_3D ( 'NONE', #4, #445, #383 ) ;
#170 = LINE ( 'NONE', #64, #637 ) ;
#171 = APPROVAL_DATE_TIME ( #604, #572 ) ;
#172 = ORIENTED_EDGE ( 'NONE', *, *, #798, .T. ) ;
#173 = CARTESIAN_POINT ( 'NONE',  ( 45.00000000000000000, 35.00000000000000000, 34.00000000000000000 ) ) ;
#174 = CARTESIAN_POINT ( 'NONE',  ( 0.000000000000000000, 20.00000000000000000, 0.000000000000000000 ) ) ;
#175 = EDGE_LOOP ( 'NONE', ( #313, #793, #656, #497 ) ) ;
#176 = ORIENTED_EDGE ( 'NONE', *, *, #767, .F. ) ;
#177 = ADVANCED_FACE ( 'NONE', ( #292 ), #644, .T. ) ;
#178 = CARTESIAN_POINT ( 'NONE',  ( 45.00000000000000000, 4.999999999999999112, 46.00000000000000000 ) ) ;
#179 = DIRECTION ( 'NONE',  ( 0.000000000000000000, 0.000000000000000000, 1.000000000000000000 ) ) ;
#180 = ORIENTED_EDGE ( 'NONE', *, *, #236, .F. ) ;
#181 = ORIENTED_EDGE ( 'NONE', *, *, #473, .T. ) ;
#182 = DIRECTION ( 'NONE',  ( 0.000000000000000000, -1.000000000000000000, 0.000000000000000000 ) ) ;
#183 = AXIS2_PLACEMENT_3D ( 'NONE', #657, #397, #145 ) ;
#184 = DIRECTION ( 'NONE',  ( -0.000000000000000000, -0.000000000000000000, -1.000000000000000000 ) ) ;
#185 = VERTEX_POINT ( 'NONE', #146 ) ;
#186 = DIRECTION ( 'NONE',  ( 0.000000000000000000, -1.000000000000000000, -0.000000000000000000 ) ) ;
#187 = VERTEX_POINT ( 'NONE', #221 ) ;
#188 = CC_DESIGN_PERSON_AND_ORGANIZATION_ASSIGNMENT ( #211, #90, ( #214 ) ) ;
#189 = ORIENTED_EDGE ( 'NONE', *, *, #593, .F. ) ;
#190 = CARTESIAN_POINT ( 'NONE',  ( 45.00000000000000000, 27.00000000000000000, 8.000000000000000000 ) ) ;
#191 = ORIENTED_EDGE ( 'NONE', *, *, #448, .T. ) ;
#192 = EDGE_CURVE ( 'NONE', #154, #607, #450, .T. ) ;
#193 = ORIENTED_EDGE ( 'NONE', *, *, #133, .F. ) ;
#194 = CARTESIAN_POINT ( 'NONE',  ( 45.00000000000000000, 35.00000000000000000, 46.00000000000000000 ) ) ;
#195 = AXIS2_PLACEMENT_3D ( 'NONE', #257, #749, #498 ) ;
#196 = DIRECTION ( 'NONE',  ( 0.000000000000000000, 1.000000000000000000, 0.000000000000000000 ) ) ;
#197 = CARTESIAN_POINT ( 'NONE',  ( 90.00000000000000000, 20.00000000000000000, 0.000000000000000000 ) ) ;
#198 = CARTESIAN_POINT ( 'NONE',  ( 18.00000000000000000, 20.00000000000000000, 8.000000000000000000 ) ) ;
#199 = EDGE_CURVE ( 'NONE', #33, #799, #343, .T. ) ;
#200 = LINE ( 'NONE', #190, #756 ) ;
#201 = DIRECTION ( 'NONE',  ( 0.000000000000000000, 0.000000000000000000, 1.000000000000000000 ) ) ;
#202 = DIRECTION ( 'NONE',  ( 0.000000000000000000, -1.000000000000000000, 0.000000000000000000 ) ) ;
#203 = CARTESIAN_POINT ( 'NONE',  ( 45.00000000000000000, -2.000000000000000000, 26.00000000000000355 ) ) ;
#204 = AXIS2_PLACEMENT_3D ( 'NONE', #395, #658, #534 ) ;
#205 = AXIS2_PLACEMENT_3D ( 'NONE', #472, #89, #725 ) ;
#206 = DIRECTION ( 'NONE',  ( -0.000000000000000000, 1.000000000000000000, 0.000000000000000000 ) ) ;
#207 = CYLINDRICAL_SURFACE ( 'NONE', #703, 8.000000000000000000 ) ;
#208 = ADVANCED_FACE ( 'NONE', ( #289 ), #93, .F. ) ;
#209 = DIRECTION ( 'NONE',  ( -0.000000000000000000, 1.000000000000000000, 0.000000000000000000 ) ) ;
#210 = CARTESIAN_POINT ( 'NONE',  ( 45.00000000000000000, 4.999999999999999112, 8.000000000000000000 ) ) ;
#211 = PERSON_AND_ORGANIZATION ( #308, #261 ) ;
#212 = VERTEX_POINT ( 'NONE', #103 ) ;
#213 = DIRECTION ( 'NONE',  ( 1.000000000000000000, 0.000000000000000000, -0.000000000000000000 ) ) ;
#214 = PRODUCT_DEFINITION_FORMATION_WITH_SPECIFIED_SOURCE ( 'ANY', '', #278, .NOT_KNOWN. ) ;
#215 = FACE_OUTER_BOUND ( 'NONE', #419, .T. ) ;
#216 = DATE_TIME_ROLE ( 'classification_date' ) ;
#217 = VERTEX_POINT ( 'NONE', #84 ) ;
#218 = VECTOR ( 'NONE', #653, 1000.000000000000000 ) ;
#219 = VECTOR ( 'NONE', #345, 1000.000000000000000 ) ;
#220 = DIRECTION ( 'NONE',  ( 0.000000000000000000, -1.000000000000000000, -0.000000000000000000 ) ) ;
#221 = CARTESIAN_POINT ( 'NONE',  ( 0.000000000000000000, 0.000000000000000000, 8.000000000000000000 ) ) ;
#222 = COORDINATED_UNIVERSAL_TIME_OFFSET ( 8, 0, .AHEAD. ) ;
#223 = CARTESIAN_POINT ( 'NONE',  ( 45.00000000000000000, 40.00000000000000000, 0.000000000000000000 ) ) ;
#224 = ADVANCED_FACE ( 'NONE', ( #166 ), #465, .F. ) ;
#225 = CARTESIAN_POINT ( 'NONE',  ( 57.99999999999999289, 35.00000000000000000, 7.900000000000000355 ) ) ;
#226 = ORIENTED_EDGE ( 'NONE', *, *, #3, .F. ) ;
#227 = CARTESIAN_POINT ( 'NONE',  ( 45.00000000000000000, -2.000000000000000000, 34.00000000000000000 ) ) ;
#228 = DIRECTION ( 'NONE',  ( 0.000000000000000000, 1.000000000000000000, 0.000000000000000000 ) ) ;
#229 = EDGE_CURVE ( 'NONE', #726, #738, #280, .T. ) ;
#230 = ORIENTED_EDGE ( 'NONE', *, *, #229, .F. ) ;
#231 = VECTOR ( 'NONE', #523, 1000.000000000000000 ) ;
#232 = AXIS2_PLACEMENT_3D ( 'NONE', #469, #349, #522 ) ;
#233 = DIRECTION ( 'NONE',  ( 0.000000000000000000, 0.000000000000000000, -1.000000000000000000 ) ) ;
#234 = FACE_OUTER_BOUND ( 'NONE', #237, .T. ) ;
#235 = ORIENTED_EDGE ( 'NONE', *, *, #601, .T. ) ;
#236 = EDGE_CURVE ( 'NONE', #314, #668, #709, .T. ) ;
#237 = EDGE_LOOP ( 'NONE', ( #410, #729, #255, #807 ) ) ;
#238 = FACE_OUTER_BOUND ( 'NONE', #175, .T. ) ;
#239 = VERTEX_POINT ( 'NONE', #41 ) ;
#240 = VERTEX_POINT ( 'NONE', #470 ) ;
#241 = ORIENTED_EDGE ( 'NONE', *, *, #767, .T. ) ;
#242 = LINE ( 'NONE', #684, #50 ) ;
#243 = ORIENTED_EDGE ( 'NONE', *, *, #454, .T. ) ;
#244 = VERTEX_POINT ( 'NONE', #718 ) ;
#245 = VECTOR ( 'NONE', #516, 1000.000000000000000 ) ;
#246 = VECTOR ( 'NONE', #758, 1000.000000000000000 ) ;
#247 = MANIFOLD_SOLID_BREP ( 'EW_SW_ABQ_06_SOLIDWORKS_TO_ABAQUS', #754 ) ;
#248 = EDGE_CURVE ( 'NONE', #46, #38, #97, .T. ) ;
#249 = DIRECTION ( 'NONE',  ( 0.000000000000000000, 0.000000000000000000, 1.000000000000000000 ) ) ;
#250 = DESIGN_CONTEXT ( 'detailed design', #11, 'design' ) ;
#251 = FACE_OUTER_BOUND ( 'NONE', #496, .T. ) ;
#252 = EDGE_LOOP ( 'NONE', ( #122, #600 ) ) ;
#253 = FACE_OUTER_BOUND ( 'NONE', #750, .T. ) ;
#254 = ADVANCED_FACE ( 'NONE', ( #773, #31, #215 ), #338, .T. ) ;
#255 = ORIENTED_EDGE ( 'NONE', *, *, #416, .F. ) ;
#256 = ORIENTED_EDGE ( 'NONE', *, *, #88, .F. ) ;
#257 = CARTESIAN_POINT ( 'NONE',  ( 15.00000000000000000, 20.00000000000000000, 0.000000000000000000 ) ) ;
#258 = DIRECTION ( 'NONE',  ( 0.000000000000000000, 1.000000000000000000, 0.000000000000000000 ) ) ;
#259 = CARTESIAN_POINT ( 'NONE',  ( 57.99999999999999289, 13.00000000000000000, 46.00000000000000000 ) ) ;
#260 = VECTOR ( 'NONE', #399, 1000.000000000000000 ) ;
#261 = ORGANIZATION ( 'UNSPECIFIED', 'UNSPECIFIED', '' ) ;
#262 = LINE ( 'NONE', #507, #442 ) ;
#263 = EDGE_CURVE ( 'NONE', #85, #406, #482, .T. ) ;
#264 = FACE_OUTER_BOUND ( 'NONE', #483, .T. ) ;
#265 = DIRECTION ( 'NONE',  ( 0.000000000000000000, 0.000000000000000000, 1.000000000000000000 ) ) ;
#266 = DIRECTION ( 'NONE',  ( 0.000000000000000000, 0.000000000000000000, 1.000000000000000000 ) ) ;
#267 = CARTESIAN_POINT ( 'NONE',  ( 18.00000000000000000, 20.00000000000000000, 0.000000000000000000 ) ) ;
#268 = PLANE ( 'NONE',  #232 ) ;
#269 = EDGE_CURVE ( 'NONE', #240, #53, #778, .T. ) ;
#270 = CARTESIAN_POINT ( 'NONE',  ( 57.99999999999999289, 31.00000000000000000, 46.00000000000000000 ) ) ;
#271 = AXIS2_PLACEMENT_3D ( 'NONE', #547, #184, #426 ) ;
#272 = AXIS2_PLACEMENT_3D ( 'NONE', #21, #596, #585 ) ;
#273 = LINE ( 'NONE', #708, #365 ) ;
#274 = LINE ( 'NONE', #664, #428 ) ;
#275 = EDGE_CURVE ( 'NONE', #607, #154, #557, .T. ) ;
#276 = EDGE_LOOP ( 'NONE', ( #110, #747, #434, #373 ) ) ;
#277 = DATE_AND_TIME ( #573, #816 ) ;
#278 = PRODUCT ( 'stage1_geometry', 'stage1_geometry', '', ( #27 ) ) ;
#279 = DIRECTION ( 'NONE',  ( 0.000000000000000000, 1.000000000000000000, 0.000000000000000000 ) ) ;
#280 = LINE ( 'NONE', #151, #231 ) ;
#281 = SECURITY_CLASSIFICATION_LEVEL ( 'unclassified' ) ;
#282 = ORIENTED_EDGE ( 'NONE', *, *, #647, .T. ) ;
#283 = CARTESIAN_POINT ( 'NONE',  ( 32.00000000000000000, 4.999999999999999112, 46.00000000000000000 ) ) ;
#284 = DIRECTION ( 'NONE',  ( 0.000000000000000000, -1.000000000000000000, -0.000000000000000000 ) ) ;
#285 = DATE_TIME_ROLE ( 'creation_date' ) ;
#286 = ORIENTED_EDGE ( 'NONE', *, *, #420, .F. ) ;
#287 = APPROVAL ( #409, 'UNSPECIFIED' ) ;
#288 = DIRECTION ( 'NONE',  ( 0.000000000000000000, -0.000000000000000000, 1.000000000000000000 ) ) ;
#289 = FACE_OUTER_BOUND ( 'NONE', #57, .T. ) ;
#290 = APPROVAL_ROLE ( '' ) ;
#291 = CARTESIAN_POINT ( 'NONE',  ( 78.00000000000000000, 20.00000000000000000, 8.000000000000000000 ) ) ;
#292 = FACE_OUTER_BOUND ( 'NONE', #276, .T. ) ;
#293 = PERSON_AND_ORGANIZATION ( #308, #261 ) ;
#294 = VERTEX_POINT ( 'NONE', #26 ) ;
#295 = DIRECTION ( 'NONE',  ( -0.000000000000000000, 1.000000000000000000, 0.000000000000000000 ) ) ;
#296 = EDGE_CURVE ( 'NONE', #239, #562, #274, .T. ) ;
#297 = ORIENTED_EDGE ( 'NONE', *, *, #478, .T. ) ;
#298 = ORIENTED_EDGE ( 'NONE', *, *, #730, .F. ) ;
#299 = VECTOR ( 'NONE', #761, 1000.000000000000000 ) ;
#300 = EDGE_LOOP ( 'NONE', ( #359, #501 ) ) ;
#301 = VECTOR ( 'NONE', #731, 1000.000000000000000 ) ;
#302 = LINE ( 'NONE', #546, #327 ) ;
#303 = CARTESIAN_POINT ( 'NONE',  ( 0.000000000000000000, 0.000000000000000000, 0.000000000000000000 ) ) ;
#304 = EDGE_LOOP ( 'NONE', ( #429, #147, #613, #172 ) ) ;
#305 = VERTEX_POINT ( 'NONE', #518 ) ;
#306 = LOCAL_TIME ( 10, 41, 57.00000000000000000, #32 ) ;
#307 = LINE ( 'NONE', #370, #75 ) ;
#308 = PERSON ( 'UNSPECIFIED', 'UNSPECIFIED', 'UNSPECIFIED', ('UNSPECIFIED'), ('UNSPECIFIED'), ('UNSPECIFIED') ) ;
#309 = ORIENTED_EDGE ( 'NONE', *, *, #315, .T. ) ;
#310 = ORIENTED_EDGE ( 'NONE', *, *, #148, .F. ) ;
#311 = EDGE_CURVE ( 'NONE', #114, #43, #460, .T. ) ;
#312 = PLANE ( 'NONE',  #568 ) ;
#313 = ORIENTED_EDGE ( 'NONE', *, *, #59, .T. ) ;
#314 = VERTEX_POINT ( 'NONE', #346 ) ;
#315 = EDGE_CURVE ( 'NONE', #462, #212, #611, .T. ) ;
#316 = VECTOR ( 'NONE', #762, 1000.000000000000000 ) ;
#317 = PLANE ( 'NONE',  #544 ) ;
#318 = ORIENTED_EDGE ( 'NONE', *, *, #785, .F. ) ;
#319 = VERTEX_POINT ( 'NONE', #623 ) ;
#320 = CARTESIAN_POINT ( 'NONE',  ( 72.00000000000000000, 20.00000000000000000, 0.000000000000000000 ) ) ;
#321 = CARTESIAN_POINT ( 'NONE',  ( 45.00000000000000000, 35.00000000000000000, 8.000000000000000000 ) ) ;
#322 = LINE ( 'NONE', #13, #101 ) ;
#323 = CARTESIAN_POINT ( 'NONE',  ( 45.00000000000000000, 13.00000000000000000, 34.00000000000000000 ) ) ;
#324 = ADVANCED_FACE ( 'NONE', ( #475, #491 ), #312, .T. ) ;
#325 = CIRCLE ( 'NONE', #18, 8.000000000000000000 ) ;
#326 = CARTESIAN_POINT ( 'NONE',  ( 45.00000000000000000, 0.000000000000000000, 0.000000000000000000 ) ) ;
#327 = VECTOR ( 'NONE', #801, 1000.000000000000000 ) ;
#328 = AXIS2_PLACEMENT_3D ( 'NONE', #96, #209, #288 ) ;
#329 = CARTESIAN_POINT ( 'NONE',  ( 32.00000000000000000, 31.00000000000000000, 7.900000000000000355 ) ) ;
#330 = PLANE ( 'NONE',  #65 ) ;
#331 = CARTESIAN_POINT ( 'NONE',  ( 45.00000000000000000, -2.000000000000000000, 42.00000000000000000 ) ) ;
#332 = APPROVAL_PERSON_ORGANIZATION ( #467, #500, #351 ) ;
#333 = CC_DESIGN_DATE_AND_TIME_ASSIGNMENT ( #670, #285, ( #721 ) ) ;
#334 = CARTESIAN_POINT ( 'NONE',  ( 90.00000000000000000, 40.00000000000000000, 8.000000000000000000 ) ) ;
#335 = DIRECTION ( 'NONE',  ( 1.000000000000000000, 0.000000000000000000, 0.000000000000000000 ) ) ;
#336 = EDGE_CURVE ( 'NONE', #187, #319, #242, .T. ) ;
#337 = CARTESIAN_POINT ( 'NONE',  ( 57.99999999999999289, 20.00000000000000000, 8.000000000000000000 ) ) ;
#338 = PLANE ( 'NONE',  #115 ) ;
#339 = AXIS2_PLACEMENT_3D ( 'NONE', #174, #422, #675 ) ;
#340 = AXIS2_PLACEMENT_3D ( 'NONE', #720, #213, #716 ) ;
#341 = ORIENTED_EDGE ( 'NONE', *, *, #355, .T. ) ;
#342 = FACE_BOUND ( 'NONE', #252, .T. ) ;
#343 = LINE ( 'NONE', #225, #513 ) ;
#344 = ORIENTED_EDGE ( 'NONE', *, *, #28, .F. ) ;
#345 = DIRECTION ( 'NONE',  ( 1.000000000000000000, 0.000000000000000000, -0.000000000000000000 ) ) ;
#346 = CARTESIAN_POINT ( 'NONE',  ( 32.00000000000000000, 4.999999999999999112, 8.000000000000000000 ) ) ;
#347 = APPROVAL_STATUS ( 'not_yet_approved' ) ;
#348 = EDGE_CURVE ( 'NONE', #726, #543, #740, .T. ) ;
#349 = DIRECTION ( 'NONE',  ( 0.000000000000000000, -1.000000000000000000, 0.000000000000000000 ) ) ;
#350 = CARTESIAN_POINT ( 'NONE',  ( 45.00000000000000000, 20.00000000000000000, 0.000000000000000000 ) ) ;
#351 = APPROVAL_ROLE ( '' ) ;
#352 = CIRCLE ( 'NONE', #452, 2.999999999999999112 ) ;
#353 = DIRECTION ( 'NONE',  ( -0.000000000000000000, 1.000000000000000000, 0.000000000000000000 ) ) ;
#354 = DIRECTION ( 'NONE',  ( 0.000000000000000000, 0.000000000000000000, 1.000000000000000000 ) ) ;
#355 = EDGE_CURVE ( 'NONE', #738, #314, #170, .T. ) ;
#356 = DIRECTION ( 'NONE',  ( 0.000000000000000000, 0.000000000000000000, 1.000000000000000000 ) ) ;
#357 = ORIENTED_EDGE ( 'NONE', *, *, #133, .T. ) ;
#358 = ORIENTED_EDGE ( 'NONE', *, *, #236, .T. ) ;
#359 = ORIENTED_EDGE ( 'NONE', *, *, #454, .F. ) ;
#360 = DIRECTION ( 'NONE',  ( 1.000000000000000000, 0.000000000000000000, -0.000000000000000000 ) ) ;
#361 = EDGE_LOOP ( 'NONE', ( #617, #683, #127, #545 ) ) ;
#362 = EDGE_LOOP ( 'NONE', ( #226, #168, #241, #671 ) ) ;
#363 = CIRCLE ( 'NONE', #741, 8.000000000000000000 ) ;
#364 = ORIENTED_EDGE ( 'NONE', *, *, #642, .T. ) ;
#365 = VECTOR ( 'NONE', #394, 1000.000000000000000 ) ;
#366 = DIRECTION ( 'NONE',  ( -1.000000000000000000, -0.000000000000000000, 0.000000000000000000 ) ) ;
#367 = ORIENTED_EDGE ( 'NONE', *, *, #296, .T. ) ;
#368 = ORIENTED_EDGE ( 'NONE', *, *, #106, .T. ) ;
#369 = ORIENTED_EDGE ( 'NONE', *, *, #791, .T. ) ;
#370 = CARTESIAN_POINT ( 'NONE',  ( 57.99999999999999289, 4.999999999999999112, 7.900000000000000355 ) ) ;
#371 = ORIENTED_EDGE ( 'NONE', *, *, #263, .T. ) ;
#372 = ADVANCED_FACE ( 'NONE', ( #123 ), #374, .T. ) ;
#373 = ORIENTED_EDGE ( 'NONE', *, *, #520, .F. ) ;
#374 = PLANE ( 'NONE',  #597 ) ;
#375 = LINE ( 'NONE', #812, #663 ) ;
#376 = ORIENTED_EDGE ( 'NONE', *, *, #167, .T. ) ;
#377 = CIRCLE ( 'NONE', #665, 3.000000000000002665 ) ;
#378 = CARTESIAN_POINT ( 'NONE',  ( 18.00000000000000000, 20.00000000000000000, -2.000000000000000000 ) ) ;
#379 = DIRECTION ( 'NONE',  ( 0.000000000000000000, 0.000000000000000000, 1.000000000000000000 ) ) ;
#380 = ADVANCED_FACE ( 'NONE', ( #560, #795 ), #317, .T. ) ;
#381 = LINE ( 'NONE', #506, #466 ) ;
#382 = CARTESIAN_POINT ( 'NONE',  ( 15.00000000000000000, 20.00000000000000000, -2.000000000000000000 ) ) ;
#383 = DIRECTION ( 'NONE',  ( 0.000000000000000000, 0.000000000000000000, 1.000000000000000000 ) ) ;
#384 = DIRECTION ( 'NONE',  ( -1.000000000000000000, -0.000000000000000000, 0.000000000000000000 ) ) ;
#385 = VECTOR ( 'NONE', #2, 1000.000000000000000 ) ;
#386 = CARTESIAN_POINT ( 'NONE',  ( 32.00000000000000000, 9.000000000000000000, 46.00000000000000000 ) ) ;
#387 = AXIS2_PLACEMENT_3D ( 'NONE', #173, #56, #421 ) ;
#388 = AXIS2_PLACEMENT_3D ( 'NONE', #227, #418, #108 ) ;
#389 = CARTESIAN_POINT ( 'NONE',  ( 32.00000000000000000, 20.00000000000000000, 8.000000000000000000 ) ) ;
#390 = EDGE_CURVE ( 'NONE', #668, #803, #307, .T. ) ;
#391 = DIRECTION ( 'NONE',  ( 1.000000000000000000, 0.000000000000000000, -0.000000000000000000 ) ) ;
#392 = DIRECTION ( 'NONE',  ( 1.000000000000000000, 0.000000000000000000, -0.000000000000000000 ) ) ;
#393 = EDGE_CURVE ( 'NONE', #305, #424, #363, .T. ) ;
#394 = DIRECTION ( 'NONE',  ( 0.000000000000000000, 0.000000000000000000, 1.000000000000000000 ) ) ;
#395 = CARTESIAN_POINT ( 'NONE',  ( 75.00000000000000000, 20.00000000000000000, 0.000000000000000000 ) ) ;
#396 = ORIENTED_EDGE ( 'NONE', *, *, #763, .F. ) ;
#397 = DIRECTION ( 'NONE',  ( 0.000000000000000000, 0.000000000000000000, 1.000000000000000000 ) ) ;
#398 = VECTOR ( 'NONE', #753, 1000.000000000000000 ) ;
#399 = DIRECTION ( 'NONE',  ( 0.000000000000000000, 0.000000000000000000, 1.000000000000000000 ) ) ;
#400 = VECTOR ( 'NONE', #576, 1000.000000000000000 ) ;
#401 = EDGE_LOOP ( 'NONE', ( #55, #341, #235, #540 ) ) ;
#402 = DIRECTION ( 'NONE',  ( -0.000000000000000000, 1.000000000000000000, 0.000000000000000000 ) ) ;
#403 = EDGE_CURVE ( 'NONE', #803, #736, #481, .T. ) ;
#404 = CARTESIAN_POINT ( 'NONE',  ( 0.000000000000000000, 20.00000000000000000, 0.000000000000000000 ) ) ;
#405 = CC_DESIGN_APPROVAL ( #287, ( #214 ) ) ;
#406 = VERTEX_POINT ( 'NONE', #688 ) ;
#407 = CARTESIAN_POINT ( 'NONE',  ( 57.99999999999999289, 13.00000000000000000, 8.000000000000000000 ) ) ;
#408 = CARTESIAN_POINT ( 'NONE',  ( 32.00000000000000000, 31.00000000000000000, 46.00000000000000000 ) ) ;
#409 = APPROVAL_STATUS ( 'not_yet_approved' ) ;
#410 = ORIENTED_EDGE ( 'NONE', *, *, #12, .T. ) ;
#411 = CARTESIAN_POINT ( 'NONE',  ( 90.00000000000000000, 0.000000000000000000, 0.000000000000000000 ) ) ;
#412 = CARTESIAN_POINT ( 'NONE',  ( 57.99999999999999289, 27.00000000000000000, 7.900000000000000355 ) ) ;
#413 = AXIS2_PLACEMENT_3D ( 'NONE', #120, #702, #144 ) ;
#414 = ORIENTED_EDGE ( 'NONE', *, *, #730, .T. ) ;
#415 = CIRCLE ( 'NONE', #195, 2.999999999999999112 ) ;
#416 = EDGE_CURVE ( 'NONE', #114, #319, #619, .T. ) ;
#417 = DIRECTION ( 'NONE',  ( 0.000000000000000000, 0.000000000000000000, 1.000000000000000000 ) ) ;
#418 = DIRECTION ( 'NONE',  ( 0.000000000000000000, 1.000000000000000000, 0.000000000000000000 ) ) ;
#419 = EDGE_LOOP ( 'NONE', ( #396, #620, #734, #693 ) ) ;
#420 = EDGE_CURVE ( 'NONE', #748, #806, #377, .T. ) ;
#421 = DIRECTION ( 'NONE',  ( 0.000000000000000000, 0.000000000000000000, 1.000000000000000000 ) ) ;
#422 = DIRECTION ( 'NONE',  ( -1.000000000000000000, -0.000000000000000000, 0.000000000000000000 ) ) ;
#423 = ORIENTED_EDGE ( 'NONE', *, *, #580, .T. ) ;
#424 = VERTEX_POINT ( 'NONE', #495 ) ;
#425 = CARTESIAN_POINT ( 'NONE',  ( 90.00000000000000000, 0.000000000000000000, 8.000000000000000000 ) ) ;
#426 = DIRECTION ( 'NONE',  ( -1.000000000000000000, 0.000000000000000000, 0.000000000000000000 ) ) ;
#427 = ORIENTED_EDGE ( 'NONE', *, *, #167, .F. ) ;
#428 = VECTOR ( 'NONE', #354, 1000.000000000000000 ) ;
#429 = ORIENTED_EDGE ( 'NONE', *, *, #348, .F. ) ;
#430 = VECTOR ( 'NONE', #517, 1000.000000000000000 ) ;
#431 = DIRECTION ( 'NONE',  ( 0.000000000000000000, -1.000000000000000000, 0.000000000000000000 ) ) ;
#432 = CC_DESIGN_PERSON_AND_ORGANIZATION_ASSIGNMENT ( #293, #539, ( #721 ) ) ;
#433 = CARTESIAN_POINT ( 'NONE',  ( 57.99999999999999289, 35.00000000000000000, 8.000000000000000000 ) ) ;
#434 = ORIENTED_EDGE ( 'NONE', *, *, #798, .F. ) ;
#435 = DIRECTION ( 'NONE',  ( -0.000000000000000000, 1.000000000000000000, 0.000000000000000000 ) ) ;
#436 = ORIENTED_EDGE ( 'NONE', *, *, #533, .T. ) ;
#437 = EDGE_LOOP ( 'NONE', ( #95, #608, #436, #553 ) ) ;
#438 = DIRECTION ( 'NONE',  ( 0.000000000000000000, 1.000000000000000000, 0.000000000000000000 ) ) ;
#439 = VERTEX_POINT ( 'NONE', #745 ) ;
#440 = VERTEX_POINT ( 'NONE', #425 ) ;
#441 = CC_DESIGN_PERSON_AND_ORGANIZATION_ASSIGNMENT ( #667, #477, ( #278 ) ) ;
#442 = VECTOR ( 'NONE', #74, 1000.000000000000000 ) ;
#443 = DIRECTION ( 'NONE',  ( 0.000000000000000000, 0.000000000000000000, 1.000000000000000000 ) ) ;
#444 = FACE_OUTER_BOUND ( 'NONE', #691, .T. ) ;
#445 = DIRECTION ( 'NONE',  ( -0.000000000000000000, 1.000000000000000000, 0.000000000000000000 ) ) ;
#446 = FACE_BOUND ( 'NONE', #719, .T. ) ;
#447 = DIRECTION ( 'NONE',  ( 1.000000000000000000, 0.000000000000000000, 0.000000000000000000 ) ) ;
#448 = EDGE_CURVE ( 'NONE', #53, #240, #811, .T. ) ;
#449 = CYLINDRICAL_SURFACE ( 'NONE', #504, 2.999999999999999112 ) ;
#450 = CIRCLE ( 'NONE', #204, 3.000000000000002665 ) ;
#451 = LINE ( 'NONE', #386, #400 ) ;
#452 = AXIS2_PLACEMENT_3D ( 'NONE', #574, #699, #631 ) ;
#453 = DIRECTION ( 'NONE',  ( 0.000000000000000000, 1.000000000000000000, 0.000000000000000000 ) ) ;
#454 = EDGE_CURVE ( 'NONE', #244, #815, #86, .T. ) ;
#455 = DIRECTION ( 'NONE',  ( 0.000000000000000000, -0.000000000000000000, 1.000000000000000000 ) ) ;
#456 = CARTESIAN_POINT ( 'NONE',  ( 32.00000000000000000, 27.00000000000000000, 46.00000000000000000 ) ) ;
#457 = ORIENTED_EDGE ( 'NONE', *, *, #59, .F. ) ;
#458 = SHAPE_DEFINITION_REPRESENTATION ( #51, #654 ) ;
#459 = DIRECTION ( 'NONE',  ( 0.000000000000000000, 0.000000000000000000, -1.000000000000000000 ) ) ;
#460 = LINE ( 'NONE', #404, #218 ) ;
#461 = DIRECTION ( 'NONE',  ( 1.000000000000000000, 0.000000000000000000, 0.000000000000000000 ) ) ;
#462 = VERTEX_POINT ( 'NONE', #551 ) ;
#463 = EDGE_CURVE ( 'NONE', #319, #562, #673, .T. ) ;
#464 = FACE_OUTER_BOUND ( 'NONE', #555, .T. ) ;
#465 = CYLINDRICAL_SURFACE ( 'NONE', #694, 8.000000000000000000 ) ;
#466 = VECTOR ( 'NONE', #438, 1000.000000000000000 ) ;
#467 = PERSON_AND_ORGANIZATION ( #308, #261 ) ;
#468 = EDGE_LOOP ( 'NONE', ( #800, #358, #783, #128 ) ) ;
#469 = CARTESIAN_POINT ( 'NONE',  ( 45.00000000000000000, 4.999999999999999112, 7.900000000000000355 ) ) ;
#470 = CARTESIAN_POINT ( 'NONE',  ( 45.00000000000000000, 26.99999999999999645, 26.00000000000000355 ) ) ;
#471 = CARTESIAN_POINT ( 'NONE',  ( 45.00000000000000000, 13.00000000000000000, 7.900000000000000355 ) ) ;
#472 = CARTESIAN_POINT ( 'NONE',  ( 75.00000000000000000, 20.00000000000000000, 0.000000000000000000 ) ) ;
#473 = EDGE_CURVE ( 'NONE', #562, #440, #609, .T. ) ;
#474 = ORIENTED_EDGE ( 'NONE', *, *, #510, .F. ) ;
#475 = FACE_BOUND ( 'NONE', #300, .T. ) ;
#476 = AXIS2_PLACEMENT_3D ( 'NONE', #158, #603, #722 ) ;
#477 = PERSON_AND_ORGANIZATION_ROLE ( 'design_owner' ) ;
#478 = EDGE_CURVE ( 'NONE', #185, #38, #302, .T. ) ;
#479 = ORIENTED_EDGE ( 'NONE', *, *, #785, .T. ) ;
#480 = CIRCLE ( 'NONE', #131, 8.000000000000000000 ) ;
#481 = LINE ( 'NONE', #178, #301 ) ;
#482 = LINE ( 'NONE', #412, #260 ) ;
#483 = EDGE_LOOP ( 'NONE', ( #592, #367, #181, #457 ) ) ;
#484 = ORIENTED_EDGE ( 'NONE', *, *, #192, .F. ) ;
#485 = CC_DESIGN_APPROVAL ( #500, ( #25 ) ) ;
#486 = DIRECTION ( 'NONE',  ( 0.000000000000000000, 0.000000000000000000, 1.000000000000000000 ) ) ;
#487 = ORIENTED_EDGE ( 'NONE', *, *, #791, .F. ) ;
#488 = ORIENTED_EDGE ( 'NONE', *, *, #393, .T. ) ;
#489 = ORIENTED_EDGE ( 'NONE', *, *, #28, .T. ) ;
#490 = ADVANCED_FACE ( 'NONE', ( #238 ), #81, .T. ) ;
#491 = FACE_OUTER_BOUND ( 'NONE', #732, .T. ) ;
#492 = EDGE_LOOP ( 'NONE', ( #427, #813 ) ) ;
#493 = VECTOR ( 'NONE', #9, 1000.000000000000000 ) ;
#494 = ORIENTED_EDGE ( 'NONE', *, *, #416, .T. ) ;
#495 = CARTESIAN_POINT ( 'NONE',  ( 45.00000000000000000, 13.00000000000000000, 42.00000000000000000 ) ) ;
#496 = EDGE_LOOP ( 'NONE', ( #191, #521, #282, #771 ) ) ;
#497 = ORIENTED_EDGE ( 'NONE', *, *, #660, .T. ) ;
#498 = DIRECTION ( 'NONE',  ( -1.000000000000000000, 0.000000000000000000, 0.000000000000000000 ) ) ;
#499 = ORIENTED_EDGE ( 'NONE', *, *, #710, .T. ) ;
#500 = APPROVAL ( #98, 'UNSPECIFIED' ) ;
#501 = ORIENTED_EDGE ( 'NONE', *, *, #647, .F. ) ;
#502 = PLANE ( 'NONE',  #19 ) ;
#503 = FACE_OUTER_BOUND ( 'NONE', #437, .T. ) ;
#504 = AXIS2_PLACEMENT_3D ( 'NONE', #641, #82, #335 ) ;
#505 = VECTOR ( 'NONE', #678, 1000.000000000000000 ) ;
#506 = CARTESIAN_POINT ( 'NONE',  ( 45.00000000000000000, -2.000000000000000000, 26.00000000000000355 ) ) ;
#507 = CARTESIAN_POINT ( 'NONE',  ( 12.00000000000000000, 20.00000000000000000, -2.000000000000000000 ) ) ;
#508 = DIRECTION ( 'NONE',  ( 1.000000000000000000, 0.000000000000000000, -0.000000000000000000 ) ) ;
#509 = CARTESIAN_POINT ( 'NONE',  ( 45.00000000000000000, 20.00000000000000000, 8.000000000000000000 ) ) ;
#510 = EDGE_CURVE ( 'NONE', #38, #799, #570, .T. ) ;
#511 = CARTESIAN_POINT ( 'NONE',  ( 12.00000000000000000, 20.00000000000000000, 0.000000000000000000 ) ) ;
#512 = CARTESIAN_POINT ( 'NONE',  ( 0.000000000000000000, 40.00000000000000000, 0.000000000000000000 ) ) ;
#513 = VECTOR ( 'NONE', #538, 1000.000000000000000 ) ;
#514 = CARTESIAN_POINT ( 'NONE',  ( 45.00000000000000000, 4.999999999999999112, 34.00000000000000000 ) ) ;
#515 = CIRCLE ( 'NONE', #169, 8.000000000000000000 ) ;
#516 = DIRECTION ( 'NONE',  ( 0.000000000000000000, -1.000000000000000000, -0.000000000000000000 ) ) ;
#517 = DIRECTION ( 'NONE',  ( -1.000000000000000000, -0.000000000000000000, 0.000000000000000000 ) ) ;
#518 = CARTESIAN_POINT ( 'NONE',  ( 45.00000000000000000, 13.00000000000000000, 26.00000000000000355 ) ) ;
#519 = PERSON_AND_ORGANIZATION ( #308, #261 ) ;
#520 = EDGE_CURVE ( 'NONE', #736, #294, #451, .T. ) ;
#521 = ORIENTED_EDGE ( 'NONE', *, *, #88, .T. ) ;
#522 = DIRECTION ( 'NONE',  ( 0.000000000000000000, 0.000000000000000000, -1.000000000000000000 ) ) ;
#523 = DIRECTION ( 'NONE',  ( -1.000000000000000000, -0.000000000000000000, 0.000000000000000000 ) ) ;
#524 = PERSON_AND_ORGANIZATION_ROLE ( 'classification_officer' ) ;
#525 = DIRECTION ( 'NONE',  ( 0.000000000000000000, 0.000000000000000000, 1.000000000000000000 ) ) ;
#526 = VECTOR ( 'NONE', #797, 1000.000000000000000 ) ;
#527 = DIRECTION ( 'NONE',  ( 0.000000000000000000, 0.000000000000000000, 1.000000000000000000 ) ) ;
#528 = AXIS2_PLACEMENT_3D ( 'NONE', #605, #186, #233 ) ;
#529 = CIRCLE ( 'NONE', #743, 2.999999999999999112 ) ;
#530 = CALENDAR_DATE ( 2026, 1, 8 ) ;
#531 = ORIENTED_EDGE ( 'NONE', *, *, #390, .F. ) ;
#532 = LINE ( 'NONE', #784, #780 ) ;
#533 = EDGE_CURVE ( 'NONE', #91, #63, #130, .T. ) ;
#534 = DIRECTION ( 'NONE',  ( -1.000000000000000000, 0.000000000000000000, 0.000000000000000000 ) ) ;
#535 = APPLICATION_PROTOCOL_DEFINITION ( 'international standard', 'config_control_design', 1994, #11 ) ;
#536 = CARTESIAN_POINT ( 'NONE',  ( 57.99999999999999289, 4.999999999999999112, 46.00000000000000000 ) ) ;
#537 = ADVANCED_FACE ( 'NONE', ( #264 ), #502, .T. ) ;
#538 = DIRECTION ( 'NONE',  ( 0.000000000000000000, 0.000000000000000000, 1.000000000000000000 ) ) ;
#539 = PERSON_AND_ORGANIZATION_ROLE ( 'creator' ) ;
#540 = ORIENTED_EDGE ( 'NONE', *, *, #520, .T. ) ;
#541 = CARTESIAN_POINT ( 'NONE',  ( 57.99999999999999289, 13.00000000000000000, 7.900000000000000355 ) ) ;
#542 = LINE ( 'NONE', #303, #526 ) ;
#543 = VERTEX_POINT ( 'NONE', #259 ) ;
#544 = AXIS2_PLACEMENT_3D ( 'NONE', #669, #431, #117 ) ;
#545 = ORIENTED_EDGE ( 'NONE', *, *, #336, .F. ) ;
#546 = CARTESIAN_POINT ( 'NONE',  ( 32.00000000000000000, 35.00000000000000000, 7.900000000000000355 ) ) ;
#547 = CARTESIAN_POINT ( 'NONE',  ( 15.00000000000000000, 20.00000000000000000, 0.000000000000000000 ) ) ;
#548 = ORIENTED_EDGE ( 'NONE', *, *, #635, .F. ) ;
#549 = EDGE_CURVE ( 'NONE', #651, #91, #415, .T. ) ;
#550 = ORIENTED_EDGE ( 'NONE', *, *, #355, .F. ) ;
#551 = CARTESIAN_POINT ( 'NONE',  ( 45.00000000000000000, 4.999999999999999112, 42.00000000000000000 ) ) ;
#552 = ORIENTED_EDGE ( 'NONE', *, *, #777, .F. ) ;
#553 = ORIENTED_EDGE ( 'NONE', *, *, #635, .T. ) ;
#554 = DIRECTION ( 'NONE',  ( 0.000000000000000000, 0.000000000000000000, 1.000000000000000000 ) ) ;
#555 = EDGE_LOOP ( 'NONE', ( #531, #48, #687, #499 ) ) ;
#556 = AXIS2_PLACEMENT_3D ( 'NONE', #382, #632, #72 ) ;
#557 = CIRCLE ( 'NONE', #205, 3.000000000000002665 ) ;
#558 = ORIENTED_EDGE ( 'NONE', *, *, #248, .F. ) ;
#559 = CC_DESIGN_DATE_AND_TIME_ASSIGNMENT ( #659, #216, ( #25 ) ) ;
#560 = FACE_BOUND ( 'NONE', #561, .T. ) ;
#561 = EDGE_LOOP ( 'NONE', ( #47, #661 ) ) ;
#562 = VERTEX_POINT ( 'NONE', #334 ) ;
#563 = CARTESIAN_POINT ( 'NONE',  ( 45.00000000000000000, 0.000000000000000000, 8.000000000000000000 ) ) ;
#564 = ADVANCED_FACE ( 'NONE', ( #253 ), #752, .T. ) ;
#565 = CARTESIAN_POINT ( 'NONE',  ( 78.00000000000000000, 20.00000000000000000, 0.000000000000000000 ) ) ;
#566 = DIRECTION ( 'NONE',  ( 0.000000000000000000, 0.000000000000000000, 1.000000000000000000 ) ) ;
#567 = DIRECTION ( 'NONE',  ( -0.000000000000000000, 1.000000000000000000, 0.000000000000000000 ) ) ;
#568 = AXIS2_PLACEMENT_3D ( 'NONE', #61, #727, #735 ) ;
#569 = VECTOR ( 'NONE', #279, 1000.000000000000000 ) ;
#570 = LINE ( 'NONE', #194, #493 ) ;
#571 = FACE_OUTER_BOUND ( 'NONE', #361, .T. ) ;
#572 = APPROVAL ( #347, 'UNSPECIFIED' ) ;
#573 = CALENDAR_DATE ( 2026, 1, 8 ) ;
#574 = CARTESIAN_POINT ( 'NONE',  ( 15.00000000000000000, 20.00000000000000000, 8.000000000000000000 ) ) ;
#575 = CARTESIAN_POINT ( 'NONE',  ( 90.00000000000000000, 0.000000000000000000, 0.000000000000000000 ) ) ;
#576 = DIRECTION ( 'NONE',  ( -0.000000000000000000, 1.000000000000000000, 0.000000000000000000 ) ) ;
#577 = LINE ( 'NONE', #270, #245 ) ;
#578 = CARTESIAN_POINT ( 'NONE',  ( 45.00000000000000000, 27.00000000000000000, 46.00000000000000000 ) ) ;
#579 = VECTOR ( 'NONE', #779, 1000.000000000000000 ) ;
#580 = EDGE_CURVE ( 'NONE', #439, #85, #200, .T. ) ;
#581 = DIRECTION ( 'NONE',  ( -1.000000000000000000, 0.000000000000000000, 0.000000000000000000 ) ) ;
#582 = PERSON_AND_ORGANIZATION ( #308, #261 ) ;
#583 = EDGE_LOOP ( 'NONE', ( #621, #624, #310, #298 ) ) ;
#584 = DIRECTION ( 'NONE',  ( 1.000000000000000000, 0.000000000000000000, 0.000000000000000000 ) ) ;
#585 = DIRECTION ( 'NONE',  ( 0.000000000000000000, 0.000000000000000000, -1.000000000000000000 ) ) ;
#586 = CC_DESIGN_SECURITY_CLASSIFICATION ( #25, ( #214 ) ) ;
#587 = PERSON_AND_ORGANIZATION_ROLE ( 'design_supplier' ) ;
#588 = ORIENTED_EDGE ( 'NONE', *, *, #148, .T. ) ;
#589 = PLANE ( 'NONE',  #340 ) ;
#590 = CARTESIAN_POINT ( 'NONE',  ( 45.00000000000000000, 4.999999999999999112, 34.00000000000000000 ) ) ;
#591 = APPROVAL_ROLE ( '' ) ;
#592 = ORIENTED_EDGE ( 'NONE', *, *, #763, .T. ) ;
#593 = EDGE_CURVE ( 'NONE', #212, #305, #381, .T. ) ;
#594 = CARTESIAN_POINT ( 'NONE',  ( 57.99999999999999289, 9.000000000000000000, 46.00000000000000000 ) ) ;
#595 = VECTOR ( 'NONE', #453, 1000.000000000000000 ) ;
#596 = DIRECTION ( 'NONE',  ( 0.000000000000000000, -1.000000000000000000, -0.000000000000000000 ) ) ;
#597 = AXIS2_PLACEMENT_3D ( 'NONE', #809, #366, #417 ) ;
#598 = UNCERTAINTY_MEASURE_WITH_UNIT (LENGTH_MEASURE( 1.000000000000000082E-05 ), #104, 'distance_accuracy_value', 'NONE');
#599 = COORDINATED_UNIVERSAL_TIME_OFFSET ( 8, 0, .AHEAD. ) ;
#600 = ORIENTED_EDGE ( 'NONE', *, *, #666, .F. ) ;
#601 = EDGE_CURVE ( 'NONE', #314, #736, #701, .T. ) ;
#602 = FACE_OUTER_BOUND ( 'NONE', #676, .T. ) ;
#603 = DIRECTION ( 'NONE',  ( 0.000000000000000000, 0.000000000000000000, 1.000000000000000000 ) ) ;
#604 = DATE_AND_TIME ( #770, #717 ) ;
#605 = CARTESIAN_POINT ( 'NONE',  ( 45.00000000000000000, 26.99999999999999645, 34.00000000000000000 ) ) ;
#606 = ORIENTED_EDGE ( 'NONE', *, *, #478, .F. ) ;
#607 = VERTEX_POINT ( 'NONE', #320 ) ;
#608 = ORIENTED_EDGE ( 'NONE', *, *, #549, .T. ) ;
#609 = LINE ( 'NONE', #52, #505 ) ;
#610 = EDGE_CURVE ( 'NONE', #440, #187, #704, .T. ) ;
#611 = CIRCLE ( 'NONE', #715, 8.000000000000000000 ) ;
#612 = ORIENTED_EDGE ( 'NONE', *, *, #666, .T. ) ;
#613 = ORIENTED_EDGE ( 'NONE', *, *, #76, .T. ) ;
#614 =( GEOMETRIC_REPRESENTATION_CONTEXT ( 3 ) GLOBAL_UNCERTAINTY_ASSIGNED_CONTEXT ( ( #598 ) ) GLOBAL_UNIT_ASSIGNED_CONTEXT ( ( #104, #723, #94 ) ) REPRESENTATION_CONTEXT ( 'NONE', 'WORKASPACE' ) );
#615 = ORIENTED_EDGE ( 'NONE', *, *, #263, .F. ) ;
#616 = DIRECTION ( 'NONE',  ( 1.000000000000000000, 0.000000000000000000, 0.000000000000000000 ) ) ;
#617 = ORIENTED_EDGE ( 'NONE', *, *, #610, .F. ) ;
#618 = ORIENTED_EDGE ( 'NONE', *, *, #199, .F. ) ;
#619 = LINE ( 'NONE', #45, #679 ) ;
#620 = ORIENTED_EDGE ( 'NONE', *, *, #660, .F. ) ;
#621 = ORIENTED_EDGE ( 'NONE', *, *, #580, .F. ) ;
#622 = ADVANCED_FACE ( 'NONE', ( #692 ), #638, .F. ) ;
#623 = CARTESIAN_POINT ( 'NONE',  ( 0.000000000000000000, 40.00000000000000000, 8.000000000000000000 ) ) ;
#624 = ORIENTED_EDGE ( 'NONE', *, *, #100, .F. ) ;
#625 = AXIS2_PLACEMENT_3D ( 'NONE', #78, #71, #696 ) ;
#626 = ORIENTED_EDGE ( 'NONE', *, *, #3, .T. ) ;
#627 = ADVANCED_FACE ( 'NONE', ( #628 ), #330, .T. ) ;
#628 = FACE_OUTER_BOUND ( 'NONE', #817, .T. ) ;
#629 = APPLICATION_CONTEXT ( 'configuration controlled 3d designs of mechanical parts and assemblies' ) ;
#630 = CARTESIAN_POINT ( 'NONE',  ( 45.00000000000000000, 26.99999999999999645, 42.00000000000000000 ) ) ;
#631 = DIRECTION ( 'NONE',  ( 1.000000000000000000, 0.000000000000000000, 0.000000000000000000 ) ) ;
#632 = DIRECTION ( 'NONE',  ( 0.000000000000000000, 0.000000000000000000, 1.000000000000000000 ) ) ;
#633 = LINE ( 'NONE', #326, #316 ) ;
#634 = CARTESIAN_POINT ( 'NONE',  ( 32.00000000000000000, 13.00000000000000000, 7.900000000000000355 ) ) ;
#635 = EDGE_CURVE ( 'NONE', #63, #217, #352, .T. ) ;
#636 = AXIS2_PLACEMENT_3D ( 'NONE', #329, #384, #17 ) ;
#637 = VECTOR ( 'NONE', #182, 1000.000000000000000 ) ;
#638 = CYLINDRICAL_SURFACE ( 'NONE', #625, 3.000000000000002665 ) ;
#639 = CARTESIAN_POINT ( 'NONE',  ( 57.99999999999999289, 26.99999999999999645, 8.000000000000000000 ) ) ;
#640 = DIRECTION ( 'NONE',  ( -0.000000000000000000, 0.000000000000000000, -1.000000000000000000 ) ) ;
#641 = CARTESIAN_POINT ( 'NONE',  ( 15.00000000000000000, 20.00000000000000000, -2.000000000000000000 ) ) ;
#642 = EDGE_CURVE ( 'NONE', #439, #46, #322, .T. ) ;
#643 = DIRECTION ( 'NONE',  ( -0.000000000000000000, 1.000000000000000000, 0.000000000000000000 ) ) ;
#644 = PLANE ( 'NONE',  #646 ) ;
#645 = ORIENTED_EDGE ( 'NONE', *, *, #463, .T. ) ;
#646 = AXIS2_PLACEMENT_3D ( 'NONE', #37, #781, #161 ) ;
#647 = EDGE_CURVE ( 'NONE', #815, #244, #515, .T. ) ;
#648 = LINE ( 'NONE', #87, #219 ) ;
#649 = DIRECTION ( 'NONE',  ( -0.000000000000000000, 0.000000000000000000, -1.000000000000000000 ) ) ;
#650 = CALENDAR_DATE ( 2026, 1, 8 ) ;
#651 = VERTEX_POINT ( 'NONE', #511 ) ;
#652 = PLANE ( 'NONE',  #328 ) ;
#653 = DIRECTION ( 'NONE',  ( 0.000000000000000000, -1.000000000000000000, -0.000000000000000000 ) ) ;
#654 = ADVANCED_BREP_SHAPE_REPRESENTATION ( 'stage1_geometry', ( #247, #156 ), #614 ) ;
#655 = APPLICATION_PROTOCOL_DEFINITION ( 'international standard', 'config_control_design', 1994, #629 ) ;
#656 = ORIENTED_EDGE ( 'NONE', *, *, #12, .F. ) ;
#657 = CARTESIAN_POINT ( 'NONE',  ( 75.00000000000000000, 20.00000000000000000, 8.000000000000000000 ) ) ;
#658 = DIRECTION ( 'NONE',  ( -0.000000000000000000, -0.000000000000000000, -1.000000000000000000 ) ) ;
#659 = DATE_AND_TIME ( #774, #58 ) ;
#660 = EDGE_CURVE ( 'NONE', #43, #733, #633, .T. ) ;
#661 = ORIENTED_EDGE ( 'NONE', *, *, #269, .F. ) ;
#662 = CARTESIAN_POINT ( 'NONE',  ( 57.99999999999999289, 20.00000000000000000, 8.000000000000000000 ) ) ;
#663 = VECTOR ( 'NONE', #179, 1000.000000000000000 ) ;
#664 = CARTESIAN_POINT ( 'NONE',  ( 90.00000000000000000, 40.00000000000000000, 0.000000000000000000 ) ) ;
#665 = AXIS2_PLACEMENT_3D ( 'NONE', #126, #249, #616 ) ;
#666 = EDGE_CURVE ( 'NONE', #212, #462, #480, .T. ) ;
#667 = PERSON_AND_ORGANIZATION ( #308, #261 ) ;
#668 = VERTEX_POINT ( 'NONE', #772 ) ;
#669 = CARTESIAN_POINT ( 'NONE',  ( 45.00000000000000000, 27.00000000000000000, 7.900000000000000355 ) ) ;
#670 = DATE_AND_TIME ( #650, #150 ) ;
#671 = ORIENTED_EDGE ( 'NONE', *, *, #746, .T. ) ;
#672 = ADVANCED_FACE ( 'NONE', ( #30, #160 ), #20, .T. ) ;
#673 = LINE ( 'NONE', #111, #695 ) ;
#674 = PRODUCT_RELATED_PRODUCT_CATEGORY ( 'detail', '', ( #278 ) ) ;
#675 = DIRECTION ( 'NONE',  ( 0.000000000000000000, 0.000000000000000000, 1.000000000000000000 ) ) ;
#676 = EDGE_LOOP ( 'NONE', ( #256, #677, #368, #243 ) ) ;
#677 = ORIENTED_EDGE ( 'NONE', *, *, #269, .T. ) ;
#678 = DIRECTION ( 'NONE',  ( 0.000000000000000000, -1.000000000000000000, -0.000000000000000000 ) ) ;
#679 = VECTOR ( 'NONE', #356, 1000.000000000000000 ) ;
#680 = CYLINDRICAL_SURFACE ( 'NONE', #413, 8.000000000000000000 ) ;
#681 = ORIENTED_EDGE ( 'NONE', *, *, #275, .F. ) ;
#682 = CC_DESIGN_APPROVAL ( #572, ( #721 ) ) ;
#683 = ORIENTED_EDGE ( 'NONE', *, *, #473, .F. ) ;
#684 = CARTESIAN_POINT ( 'NONE',  ( 0.000000000000000000, 20.00000000000000000, 8.000000000000000000 ) ) ;
#685 = ORIENTED_EDGE ( 'NONE', *, *, #746, .F. ) ;
#686 = EDGE_CURVE ( 'NONE', #239, #114, #768, .T. ) ;
#687 = ORIENTED_EDGE ( 'NONE', *, *, #348, .T. ) ;
#688 = CARTESIAN_POINT ( 'NONE',  ( 57.99999999999999289, 27.00000000000000000, 46.00000000000000000 ) ) ;
#689 = ORIENTED_EDGE ( 'NONE', *, *, #296, .F. ) ;
#690 = ADVANCED_FACE ( 'NONE', ( #342, #35 ), #268, .T. ) ;
#691 = EDGE_LOOP ( 'NONE', ( #489, #121, #751, #29 ) ) ;
#692 = FACE_OUTER_BOUND ( 'NONE', #362, .T. ) ;
#693 = ORIENTED_EDGE ( 'NONE', *, *, #686, .F. ) ;
#694 = AXIS2_PLACEMENT_3D ( 'NONE', #790, #228, #769 ) ;
#695 = VECTOR ( 'NONE', #360, 1000.000000000000000 ) ;
#696 = DIRECTION ( 'NONE',  ( 1.000000000000000000, 0.000000000000000000, 0.000000000000000000 ) ) ;
#697 = FACE_OUTER_BOUND ( 'NONE', #742, .T. ) ;
#698 = ADVANCED_FACE ( 'NONE', ( #464 ), #589, .T. ) ;
#699 = DIRECTION ( 'NONE',  ( 0.000000000000000000, 0.000000000000000000, 1.000000000000000000 ) ) ;
#700 = LINE ( 'NONE', #575, #810 ) ;
#701 = LINE ( 'NONE', #139, #116 ) ;
#702 = DIRECTION ( 'NONE',  ( 0.000000000000000000, 1.000000000000000000, 0.000000000000000000 ) ) ;
#703 = AXIS2_PLACEMENT_3D ( 'NONE', #132, #258, #379 ) ;
#704 = LINE ( 'NONE', #563, #246 ) ;
#705 = FACE_BOUND ( 'NONE', #775, .T. ) ;
#706 = CC_DESIGN_PERSON_AND_ORGANIZATION_ASSIGNMENT ( #782, #524, ( #25 ) ) ;
#707 = APPROVAL_DATE_TIME ( #277, #500 ) ;
#708 = CARTESIAN_POINT ( 'NONE',  ( 78.00000000000000000, 20.00000000000000000, -2.000000000000000000 ) ) ;
#709 = LINE ( 'NONE', #210, #776 ) ;
#710 = EDGE_CURVE ( 'NONE', #543, #803, #724, .T. ) ;
#711 = CARTESIAN_POINT ( 'NONE',  ( 45.00000000000000000, -2.000000000000000000, 42.00000000000000000 ) ) ;
#712 = DIRECTION ( 'NONE',  ( -0.000000000000000000, 1.000000000000000000, 0.000000000000000000 ) ) ;
#713 = COORDINATED_UNIVERSAL_TIME_OFFSET ( 8, 0, .AHEAD. ) ;
#714 = ORIENTED_EDGE ( 'NONE', *, *, #686, .T. ) ;
#715 = AXIS2_PLACEMENT_3D ( 'NONE', #590, #284, #805 ) ;
#716 = DIRECTION ( 'NONE',  ( -0.000000000000000000, 0.000000000000000000, -1.000000000000000000 ) ) ;
#717 = LOCAL_TIME ( 10, 41, 57.00000000000000000, #713 ) ;
#718 = CARTESIAN_POINT ( 'NONE',  ( 45.00000000000000000, 35.00000000000000000, 42.00000000000000000 ) ) ;
#719 = EDGE_LOOP ( 'NONE', ( #180, #550, #230, #552 ) ) ;
#720 = CARTESIAN_POINT ( 'NONE',  ( 57.99999999999999289, 9.000000000000000000, 7.900000000000000355 ) ) ;
#721 = PRODUCT_DEFINITION ( 'UNKNOWN', '', #214, #250 ) ;
#722 = DIRECTION ( 'NONE',  ( 1.000000000000000000, 0.000000000000000000, 0.000000000000000000 ) ) ;
#723 =( NAMED_UNIT ( * ) PLANE_ANGLE_UNIT ( ) SI_UNIT ( $, .RADIAN. ) );
#724 = LINE ( 'NONE', #594, #796 ) ;
#725 = DIRECTION ( 'NONE',  ( -1.000000000000000000, 0.000000000000000000, 0.000000000000000000 ) ) ;
#726 = VERTEX_POINT ( 'NONE', #407 ) ;
#727 = DIRECTION ( 'NONE',  ( -0.000000000000000000, 1.000000000000000000, 0.000000000000000000 ) ) ;
#728 = DATE_AND_TIME ( #530, #306 ) ;
#729 = ORIENTED_EDGE ( 'NONE', *, *, #336, .T. ) ;
#730 = EDGE_CURVE ( 'NONE', #85, #33, #157, .T. ) ;
#731 = DIRECTION ( 'NONE',  ( -1.000000000000000000, -0.000000000000000000, 0.000000000000000000 ) ) ;
#732 = EDGE_LOOP ( 'NONE', ( #618, #588, #297, #109 ) ) ;
#733 = VERTEX_POINT ( 'NONE', #411 ) ;
#734 = ORIENTED_EDGE ( 'NONE', *, *, #311, .F. ) ;
#735 = DIRECTION ( 'NONE',  ( 0.000000000000000000, -0.000000000000000000, 1.000000000000000000 ) ) ;
#736 = VERTEX_POINT ( 'NONE', #283 ) ;
#737 = ORIENTED_EDGE ( 'NONE', *, *, #739, .F. ) ;
#738 = VERTEX_POINT ( 'NONE', #765 ) ;
#739 = EDGE_CURVE ( 'NONE', #217, #63, #529, .T. ) ;
#740 = LINE ( 'NONE', #541, #142 ) ;
#741 = AXIS2_PLACEMENT_3D ( 'NONE', #107, #435, #814 ) ;
#742 = EDGE_LOOP ( 'NONE', ( #606, #159, #364, #23 ) ) ;
#743 = AXIS2_PLACEMENT_3D ( 'NONE', #92, #525, #584 ) ;
#744 = EDGE_LOOP ( 'NONE', ( #494, #645, #689, #714 ) ) ;
#745 = CARTESIAN_POINT ( 'NONE',  ( 32.00000000000000000, 26.99999999999999645, 8.000000000000000000 ) ) ;
#746 = EDGE_CURVE ( 'NONE', #806, #748, #77, .T. ) ;
#747 = ORIENTED_EDGE ( 'NONE', *, *, #710, .F. ) ;
#748 = VERTEX_POINT ( 'NONE', #102 ) ;
#749 = DIRECTION ( 'NONE',  ( -0.000000000000000000, -0.000000000000000000, -1.000000000000000000 ) ) ;
#750 = EDGE_LOOP ( 'NONE', ( #318, #193, #474, #558 ) ) ;
#751 = ORIENTED_EDGE ( 'NONE', *, *, #739, .T. ) ;
#752 = PLANE ( 'NONE',  #7 ) ;
#753 = DIRECTION ( 'NONE',  ( 0.000000000000000000, -1.000000000000000000, 0.000000000000000000 ) ) ;
#754 = CLOSED_SHELL ( 'NONE', ( #141, #44, #208, #129, #119, #490, #15, #757, #254, #537, #177, #690, #372, #672, #698, #564, #380, #68, #324, #627, #162, #622, #808, #224 ) ) ;
#755 = AXIS2_PLACEMENT_3D ( 'NONE', #471, #643, #455 ) ;
#756 = VECTOR ( 'NONE', #447, 1000.000000000000000 ) ;
#757 = ADVANCED_FACE ( 'NONE', ( #16 ), #652, .T. ) ;
#758 = DIRECTION ( 'NONE',  ( -1.000000000000000000, -0.000000000000000000, 0.000000000000000000 ) ) ;
#759 = LINE ( 'NONE', #203, #595 ) ;
#760 = CARTESIAN_POINT ( 'NONE',  ( 45.00000000000000000, 31.00000000000000000, 46.00000000000000000 ) ) ;
#761 = DIRECTION ( 'NONE',  ( 0.000000000000000000, 0.000000000000000000, 1.000000000000000000 ) ) ;
#762 = DIRECTION ( 'NONE',  ( 1.000000000000000000, 0.000000000000000000, -0.000000000000000000 ) ) ;
#763 = EDGE_CURVE ( 'NONE', #733, #239, #532, .T. ) ;
#764 = FACE_BOUND ( 'NONE', #112, .T. ) ;
#765 = CARTESIAN_POINT ( 'NONE',  ( 32.00000000000000000, 13.00000000000000000, 8.000000000000000000 ) ) ;
#766 = FACE_OUTER_BOUND ( 'NONE', #60, .T. ) ;
#767 = EDGE_CURVE ( 'NONE', #154, #806, #273, .T. ) ;
#768 = LINE ( 'NONE', #223, #579 ) ;
#769 = DIRECTION ( 'NONE',  ( 0.000000000000000000, 0.000000000000000000, 1.000000000000000000 ) ) ;
#770 = CALENDAR_DATE ( 2026, 1, 8 ) ;
#771 = ORIENTED_EDGE ( 'NONE', *, *, #106, .F. ) ;
#772 = CARTESIAN_POINT ( 'NONE',  ( 57.99999999999999289, 4.999999999999999112, 8.000000000000000000 ) ) ;
#773 = FACE_BOUND ( 'NONE', #67, .T. ) ;
#774 = CALENDAR_DATE ( 2026, 1, 8 ) ;
#775 = EDGE_LOOP ( 'NONE', ( #548, #737 ) ) ;
#776 = VECTOR ( 'NONE', #786, 1000.000000000000000 ) ;
#777 = EDGE_CURVE ( 'NONE', #668, #726, #83, .T. ) ;
#778 = CIRCLE ( 'NONE', #272, 8.000000000000000000 ) ;
#779 = DIRECTION ( 'NONE',  ( -1.000000000000000000, -0.000000000000000000, 0.000000000000000000 ) ) ;
#780 = VECTOR ( 'NONE', #206, 1000.000000000000000 ) ;
#781 = DIRECTION ( 'NONE',  ( 0.000000000000000000, 0.000000000000000000, 1.000000000000000000 ) ) ;
#782 = PERSON_AND_ORGANIZATION ( #308, #261 ) ;
#783 = ORIENTED_EDGE ( 'NONE', *, *, #390, .T. ) ;
#784 = CARTESIAN_POINT ( 'NONE',  ( 90.00000000000000000, 20.00000000000000000, 0.000000000000000000 ) ) ;
#785 = EDGE_CURVE ( 'NONE', #406, #46, #24, .T. ) ;
#786 = DIRECTION ( 'NONE',  ( 1.000000000000000000, 0.000000000000000000, 0.000000000000000000 ) ) ;
#787 = CARTESIAN_POINT ( 'NONE',  ( 45.00000000000000000, 35.00000000000000000, 26.00000000000000355 ) ) ;
#788 = EDGE_LOOP ( 'NONE', ( #344, #105 ) ) ;
#789 = CYLINDRICAL_SURFACE ( 'NONE', #388, 8.000000000000000000 ) ;
#790 = CARTESIAN_POINT ( 'NONE',  ( 45.00000000000000000, -2.000000000000000000, 34.00000000000000000 ) ) ;
#791 = EDGE_CURVE ( 'NONE', #462, #424, #149, .T. ) ;
#792 = PERSON_AND_ORGANIZATION ( #308, #261 ) ;
#793 = ORIENTED_EDGE ( 'NONE', *, *, #610, .T. ) ;
#794 = VECTOR ( 'NONE', #712, 1000.000000000000000 ) ;
#795 = FACE_OUTER_BOUND ( 'NONE', #164, .T. ) ;
#796 = VECTOR ( 'NONE', #165, 1000.000000000000000 ) ;
#797 = DIRECTION ( 'NONE',  ( 0.000000000000000000, 0.000000000000000000, 1.000000000000000000 ) ) ;
#798 = EDGE_CURVE ( 'NONE', #294, #543, #648, .T. ) ;
#799 = VERTEX_POINT ( 'NONE', #39 ) ;
#800 = ORIENTED_EDGE ( 'NONE', *, *, #601, .F. ) ;
#801 = DIRECTION ( 'NONE',  ( 0.000000000000000000, 0.000000000000000000, 1.000000000000000000 ) ) ;
#802 = CARTESIAN_POINT ( 'NONE',  ( 32.00000000000000000, 35.00000000000000000, 46.00000000000000000 ) ) ;
#803 = VERTEX_POINT ( 'NONE', #536 ) ;
#804 = ORIENTED_EDGE ( 'NONE', *, *, #420, .T. ) ;
#805 = DIRECTION ( 'NONE',  ( 0.000000000000000000, 0.000000000000000000, -1.000000000000000000 ) ) ;
#806 = VERTEX_POINT ( 'NONE', #291 ) ;
#807 = ORIENTED_EDGE ( 'NONE', *, *, #311, .T. ) ;
#808 = ADVANCED_FACE ( 'NONE', ( #602 ), #789, .F. ) ;
#809 = CARTESIAN_POINT ( 'NONE',  ( 32.00000000000000000, 9.000000000000000000, 7.900000000000000355 ) ) ;
#810 = VECTOR ( 'NONE', #265, 1000.000000000000000 ) ;
#811 = CIRCLE ( 'NONE', #528, 8.000000000000000000 ) ;
#812 = CARTESIAN_POINT ( 'NONE',  ( 72.00000000000000000, 20.00000000000000000, -2.000000000000000000 ) ) ;
#813 = ORIENTED_EDGE ( 'NONE', *, *, #393, .F. ) ;
#814 = DIRECTION ( 'NONE',  ( 0.000000000000000000, 0.000000000000000000, 1.000000000000000000 ) ) ;
#815 = VERTEX_POINT ( 'NONE', #787 ) ;
#816 = LOCAL_TIME ( 10, 41, 57.00000000000000000, #599 ) ;
#817 = EDGE_LOOP ( 'NONE', ( #615, #414, #125, #357 ) ) ;
ENDSEC;
END-ISO-10303-21;
