ISO-10303-21;
HEADER;
FILE_DESCRIPTION(('ViewDefinition[DesignTransferView]'),'2;1');
FILE_NAME('/dev/null','2026-04-21T14:56:02+00:00',(''),(''),'IfcOpenShell 0.8.5','IfcOpenShell 0.8.5','Nobody');
FILE_SCHEMA(('IFC4'));
ENDSEC;
DATA;
#1=IFCPROJECT('0ZB5ZktLHFARS$AAe12Pu2',$,'revit-c-20-answer',$,$,$,$,(#10),#5);
#2=IFCSIUNIT(*,.LENGTHUNIT.,.MILLI.,.METRE.);
#3=IFCSIUNIT(*,.AREAUNIT.,$,.SQUARE_METRE.);
#4=IFCSIUNIT(*,.VOLUMEUNIT.,$,.CUBIC_METRE.);
#5=IFCUNITASSIGNMENT((#3,#4,#2));
#6=IFCCARTESIANPOINT((0.,0.,0.));
#7=IFCDIRECTION((0.,0.,1.));
#8=IFCDIRECTION((1.,0.,0.));
#9=IFCAXIS2PLACEMENT3D(#6,#7,#8);
#10=IFCGEOMETRICREPRESENTATIONCONTEXT($,'Model',3,1.0000000000000001E-05,#9,$);
#11=IFCGEOMETRICREPRESENTATIONSUBCONTEXT('Body','Model',*,*,*,*,#10,$,.MODEL_VIEW.,$);
#12=IFCSITE('31UvIjmkD8IANnMymRJpQQ',$,'revit-c-20-answer Site',$,$,$,$,$,$,$,$,$,$,$);
#13=IFCBUILDING('3t9Z5ZGqr8Sf4PewLNjFkb',$,'revit-c-20-answer Building',$,$,$,$,$,$,$,$,$);
#14=IFCRELAGGREGATES('1M38MrRxTBKQtHWTYCMizT',$,$,$,#1,(#12));
#15=IFCRELAGGREGATES('0xz4eZfsLFUvv2UKnRDRJo',$,$,$,#12,(#13));
#16=IFCBUILDINGSTOREY('0r3aEGXjz9LxpXLMitPhJz',$,'Level 1',$,$,#27,$,$,$,$);
#22=IFCRELAGGREGATES('1JatrxtDvDIQIf6vmubmFX',$,$,$,#13,(#16,#28,#39));
#23=IFCCARTESIANPOINT((0.,0.,0.));
#24=IFCDIRECTION((0.,0.,1.));
#25=IFCDIRECTION((1.,0.,0.));
#26=IFCAXIS2PLACEMENT3D(#23,#24,#25);
#27=IFCLOCALPLACEMENT($,#26);
#28=IFCBUILDINGSTOREY('3upVwMta51fAEr_OEY2IGI',$,'Level 2',$,$,#38,$,$,$,$);
#34=IFCCARTESIANPOINT((0.,0.,3600.));
#35=IFCDIRECTION((0.,0.,1.));
#36=IFCDIRECTION((1.,0.,0.));
#37=IFCAXIS2PLACEMENT3D(#34,#35,#36);
#38=IFCLOCALPLACEMENT($,#37);
#39=IFCBUILDINGSTOREY('2O4mA5XXbF$hFbVnqkqm1U',$,'Level 3',$,$,#49,$,$,$,$);
#45=IFCCARTESIANPOINT((0.,0.,7200.));
#46=IFCDIRECTION((0.,0.,1.));
#47=IFCDIRECTION((1.,0.,0.));
#48=IFCAXIS2PLACEMENT3D(#45,#46,#47);
#49=IFCLOCALPLACEMENT($,#48);
#50=IFCSLAB('05JFt7Qiv8FOFUWJcHL_vH',$,'Level 1 Main Slab',$,$,#71,#60,$,$);
#51=IFCCARTESIANPOINTLIST3D(((0.,0.,0.),(24000.,0.,0.),(24000.,14000.,0.),(0.,14000.,0.),(0.,0.,250.),(24000.,0.,250.),(24000.,14000.,250.),(0.,14000.,250.)));
#52=IFCINDEXEDPOLYGONALFACE((1,2,3,4));
#53=IFCINDEXEDPOLYGONALFACE((5,6,7,8));
#54=IFCINDEXEDPOLYGONALFACE((1,2,6,5));
#55=IFCINDEXEDPOLYGONALFACE((2,3,7,6));
#56=IFCINDEXEDPOLYGONALFACE((3,4,8,7));
#57=IFCINDEXEDPOLYGONALFACE((4,1,5,8));
#58=IFCPOLYGONALFACESET(#51,$,(#52,#53,#54,#55,#56,#57),$);
#59=IFCSHAPEREPRESENTATION(#11,'Body','Tessellation',(#58));
#60=IFCPRODUCTDEFINITIONSHAPE($,$,(#59));
#66=IFCRELCONTAINEDINSPATIALSTRUCTURE('04h9wFNrP3cxkiMCaFUniL',$,$,$,(#114,#93,#72,#50,#602,#665,#581,#644,#560,#623,#135),#16);
#67=IFCCARTESIANPOINT((0.,0.,0.));
#68=IFCDIRECTION((0.,0.,1.));
#69=IFCDIRECTION((1.,0.,0.));
#70=IFCAXIS2PLACEMENT3D(#67,#68,#69);
#71=IFCLOCALPLACEMENT(#27,#70);
#72=IFCWALL('3wp9nrLUPDrRXqEMf8PdZ3',$,'Level 1 shell-south',$,$,#92,#82,$,$);
#73=IFCCARTESIANPOINTLIST3D(((0.,0.,250.),(24000.,0.,250.),(24000.,200.,250.),(0.,200.,250.),(0.,0.,3450.),(24000.,0.,3450.),(24000.,200.,3450.),(0.,200.,3450.)));
#74=IFCINDEXEDPOLYGONALFACE((1,2,3,4));
#75=IFCINDEXEDPOLYGONALFACE((5,6,7,8));
#76=IFCINDEXEDPOLYGONALFACE((1,2,6,5));
#77=IFCINDEXEDPOLYGONALFACE((2,3,7,6));
#78=IFCINDEXEDPOLYGONALFACE((3,4,8,7));
#79=IFCINDEXEDPOLYGONALFACE((4,1,5,8));
#80=IFCPOLYGONALFACESET(#73,$,(#74,#75,#76,#77,#78,#79),$);
#81=IFCSHAPEREPRESENTATION(#11,'Body','Tessellation',(#80));
#82=IFCPRODUCTDEFINITIONSHAPE($,$,(#81));
#88=IFCCARTESIANPOINT((0.,0.,0.));
#89=IFCDIRECTION((0.,0.,1.));
#90=IFCDIRECTION((1.,0.,0.));
#91=IFCAXIS2PLACEMENT3D(#88,#89,#90);
#92=IFCLOCALPLACEMENT(#27,#91);
#93=IFCWALL('0saqpvDtfC_hhnBazf8ech',$,'Level 1 shell-north',$,$,#113,#103,$,$);
#94=IFCCARTESIANPOINTLIST3D(((0.,14000.,250.),(24000.,14000.,250.),(24000.,14200.,250.),(0.,14200.,250.),(0.,14000.,3450.),(24000.,14000.,3450.),(24000.,14200.,3450.),(0.,14200.,3450.)));
#95=IFCINDEXEDPOLYGONALFACE((1,2,3,4));
#96=IFCINDEXEDPOLYGONALFACE((5,6,7,8));
#97=IFCINDEXEDPOLYGONALFACE((1,2,6,5));
#98=IFCINDEXEDPOLYGONALFACE((2,3,7,6));
#99=IFCINDEXEDPOLYGONALFACE((3,4,8,7));
#100=IFCINDEXEDPOLYGONALFACE((4,1,5,8));
#101=IFCPOLYGONALFACESET(#94,$,(#95,#96,#97,#98,#99,#100),$);
#102=IFCSHAPEREPRESENTATION(#11,'Body','Tessellation',(#101));
#103=IFCPRODUCTDEFINITIONSHAPE($,$,(#102));
#109=IFCCARTESIANPOINT((0.,0.,0.));
#110=IFCDIRECTION((0.,0.,1.));
#111=IFCDIRECTION((1.,0.,0.));
#112=IFCAXIS2PLACEMENT3D(#109,#110,#111);
#113=IFCLOCALPLACEMENT(#27,#112);
#114=IFCWALL('0NPrIEAobBvAr4kbPCQr5$',$,'Level 1 shell-west',$,$,#134,#124,$,$);
#115=IFCCARTESIANPOINTLIST3D(((0.,0.,250.),(200.,0.,250.),(200.,14000.,250.),(0.,14000.,250.),(0.,0.,3450.),(200.,0.,3450.),(200.,14000.,3450.),(0.,14000.,3450.)));
#116=IFCINDEXEDPOLYGONALFACE((1,2,3,4));
#117=IFCINDEXEDPOLYGONALFACE((5,6,7,8));
#118=IFCINDEXEDPOLYGONALFACE((1,2,6,5));
#119=IFCINDEXEDPOLYGONALFACE((2,3,7,6));
#120=IFCINDEXEDPOLYGONALFACE((3,4,8,7));
#121=IFCINDEXEDPOLYGONALFACE((4,1,5,8));
#122=IFCPOLYGONALFACESET(#115,$,(#116,#117,#118,#119,#120,#121),$);
#123=IFCSHAPEREPRESENTATION(#11,'Body','Tessellation',(#122));
#124=IFCPRODUCTDEFINITIONSHAPE($,$,(#123));
#130=IFCCARTESIANPOINT((0.,0.,0.));
#131=IFCDIRECTION((0.,0.,1.));
#132=IFCDIRECTION((1.,0.,0.));
#133=IFCAXIS2PLACEMENT3D(#130,#131,#132);
#134=IFCLOCALPLACEMENT(#27,#133);
#135=IFCWALL('0MyJKZcsf0q9$klaE3aho9',$,'Level 1 shell-east',$,$,#155,#145,$,$);
#136=IFCCARTESIANPOINTLIST3D(((24000.,0.,250.),(24200.,0.,250.),(24200.,14000.,250.),(24000.,14000.,250.),(24000.,0.,3450.),(24200.,0.,3450.),(24200.,14000.,3450.),(24000.,14000.,3450.)));
#137=IFCINDEXEDPOLYGONALFACE((1,2,3,4));
#138=IFCINDEXEDPOLYGONALFACE((5,6,7,8));
#139=IFCINDEXEDPOLYGONALFACE((1,2,6,5));
#140=IFCINDEXEDPOLYGONALFACE((2,3,7,6));
#141=IFCINDEXEDPOLYGONALFACE((3,4,8,7));
#142=IFCINDEXEDPOLYGONALFACE((4,1,5,8));
#143=IFCPOLYGONALFACESET(#136,$,(#137,#138,#139,#140,#141,#142),$);
#144=IFCSHAPEREPRESENTATION(#11,'Body','Tessellation',(#143));
#145=IFCPRODUCTDEFINITIONSHAPE($,$,(#144));
#151=IFCCARTESIANPOINT((0.,0.,0.));
#152=IFCDIRECTION((0.,0.,1.));
#153=IFCDIRECTION((1.,0.,0.));
#154=IFCAXIS2PLACEMENT3D(#151,#152,#153);
#155=IFCLOCALPLACEMENT(#27,#154);
#156=IFCSLAB('1B_QYNieDAqRI9diG4viGc',$,'Level 2 Main Slab',$,$,#177,#166,$,$);
#157=IFCCARTESIANPOINTLIST3D(((0.,0.,3600.),(24000.,0.,3600.),(24000.,14000.,3600.),(0.,14000.,3600.),(0.,0.,3850.),(24000.,0.,3850.),(24000.,14000.,3850.),(0.,14000.,3850.)));
#158=IFCINDEXEDPOLYGONALFACE((1,2,3,4));
#159=IFCINDEXEDPOLYGONALFACE((5,6,7,8));
#160=IFCINDEXEDPOLYGONALFACE((1,2,6,5));
#161=IFCINDEXEDPOLYGONALFACE((2,3,7,6));
#162=IFCINDEXEDPOLYGONALFACE((3,4,8,7));
#163=IFCINDEXEDPOLYGONALFACE((4,1,5,8));
#164=IFCPOLYGONALFACESET(#157,$,(#158,#159,#160,#161,#162,#163),$);
#165=IFCSHAPEREPRESENTATION(#11,'Body','Tessellation',(#164));
#166=IFCPRODUCTDEFINITIONSHAPE($,$,(#165));
#172=IFCRELCONTAINEDINSPATIALSTRUCTURE('0F1TDljTb9A80XdPSVPcuM',$,$,$,(#728,#707,#791,#686,#241,#220,#199,#156,#770,#178,#749),#28);
#173=IFCCARTESIANPOINT((0.,0.,-3600.));
#174=IFCDIRECTION((0.,0.,1.));
#175=IFCDIRECTION((1.,0.,0.));
#176=IFCAXIS2PLACEMENT3D(#173,#174,#175);
#177=IFCLOCALPLACEMENT(#38,#176);
#178=IFCWALL('0uODtYOtr5FAIuYIaGfanq',$,'Level 2 shell-south',$,$,#198,#188,$,$);
#179=IFCCARTESIANPOINTLIST3D(((0.,0.,3850.),(24000.,0.,3850.),(24000.,200.,3850.),(0.,200.,3850.),(0.,0.,7050.0000000000009),(24000.,0.,7050.0000000000009),(24000.,200.,7050.0000000000009),(0.,200.,7050.0000000000009)));
#180=IFCINDEXEDPOLYGONALFACE((1,2,3,4));
#181=IFCINDEXEDPOLYGONALFACE((5,6,7,8));
#182=IFCINDEXEDPOLYGONALFACE((1,2,6,5));
#183=IFCINDEXEDPOLYGONALFACE((2,3,7,6));
#184=IFCINDEXEDPOLYGONALFACE((3,4,8,7));
#185=IFCINDEXEDPOLYGONALFACE((4,1,5,8));
#186=IFCPOLYGONALFACESET(#179,$,(#180,#181,#182,#183,#184,#185),$);
#187=IFCSHAPEREPRESENTATION(#11,'Body','Tessellation',(#186));
#188=IFCPRODUCTDEFINITIONSHAPE($,$,(#187));
#194=IFCCARTESIANPOINT((0.,0.,-3600.));
#195=IFCDIRECTION((0.,0.,1.));
#196=IFCDIRECTION((1.,0.,0.));
#197=IFCAXIS2PLACEMENT3D(#194,#195,#196);
#198=IFCLOCALPLACEMENT(#38,#197);
#199=IFCWALL('37TbSPSKT9Rvj7mpSmu_wI',$,'Level 2 shell-north',$,$,#219,#209,$,$);
#200=IFCCARTESIANPOINTLIST3D(((0.,14000.,3850.),(24000.,14000.,3850.),(24000.,14200.,3850.),(0.,14200.,3850.),(0.,14000.,7050.0000000000009),(24000.,14000.,7050.0000000000009),(24000.,14200.,7050.0000000000009),(0.,14200.,7050.0000000000009)));
#201=IFCINDEXEDPOLYGONALFACE((1,2,3,4));
#202=IFCINDEXEDPOLYGONALFACE((5,6,7,8));
#203=IFCINDEXEDPOLYGONALFACE((1,2,6,5));
#204=IFCINDEXEDPOLYGONALFACE((2,3,7,6));
#205=IFCINDEXEDPOLYGONALFACE((3,4,8,7));
#206=IFCINDEXEDPOLYGONALFACE((4,1,5,8));
#207=IFCPOLYGONALFACESET(#200,$,(#201,#202,#203,#204,#205,#206),$);
#208=IFCSHAPEREPRESENTATION(#11,'Body','Tessellation',(#207));
#209=IFCPRODUCTDEFINITIONSHAPE($,$,(#208));
#215=IFCCARTESIANPOINT((0.,0.,-3600.));
#216=IFCDIRECTION((0.,0.,1.));
#217=IFCDIRECTION((1.,0.,0.));
#218=IFCAXIS2PLACEMENT3D(#215,#216,#217);
#219=IFCLOCALPLACEMENT(#38,#218);
#220=IFCWALL('23WeXT4b5CYgLWEGXFLeh1',$,'Level 2 shell-west',$,$,#240,#230,$,$);
#221=IFCCARTESIANPOINTLIST3D(((0.,0.,3850.),(200.,0.,3850.),(200.,14000.,3850.),(0.,14000.,3850.),(0.,0.,7050.0000000000009),(200.,0.,7050.0000000000009),(200.,14000.,7050.0000000000009),(0.,14000.,7050.0000000000009)));
#222=IFCINDEXEDPOLYGONALFACE((1,2,3,4));
#223=IFCINDEXEDPOLYGONALFACE((5,6,7,8));
#224=IFCINDEXEDPOLYGONALFACE((1,2,6,5));
#225=IFCINDEXEDPOLYGONALFACE((2,3,7,6));
#226=IFCINDEXEDPOLYGONALFACE((3,4,8,7));
#227=IFCINDEXEDPOLYGONALFACE((4,1,5,8));
#228=IFCPOLYGONALFACESET(#221,$,(#222,#223,#224,#225,#226,#227),$);
#229=IFCSHAPEREPRESENTATION(#11,'Body','Tessellation',(#228));
#230=IFCPRODUCTDEFINITIONSHAPE($,$,(#229));
#236=IFCCARTESIANPOINT((0.,0.,-3600.));
#237=IFCDIRECTION((0.,0.,1.));
#238=IFCDIRECTION((1.,0.,0.));
#239=IFCAXIS2PLACEMENT3D(#236,#237,#238);
#240=IFCLOCALPLACEMENT(#38,#239);
#241=IFCWALL('0zp11jiMvDS8d9s5EpU04r',$,'Level 2 shell-east',$,$,#261,#251,$,$);
#242=IFCCARTESIANPOINTLIST3D(((24000.,0.,3850.),(24200.,0.,3850.),(24200.,14000.,3850.),(24000.,14000.,3850.),(24000.,0.,7050.0000000000009),(24200.,0.,7050.0000000000009),(24200.,14000.,7050.0000000000009),(24000.,14000.,7050.0000000000009)));
#243=IFCINDEXEDPOLYGONALFACE((1,2,3,4));
#244=IFCINDEXEDPOLYGONALFACE((5,6,7,8));
#245=IFCINDEXEDPOLYGONALFACE((1,2,6,5));
#246=IFCINDEXEDPOLYGONALFACE((2,3,7,6));
#247=IFCINDEXEDPOLYGONALFACE((3,4,8,7));
#248=IFCINDEXEDPOLYGONALFACE((4,1,5,8));
#249=IFCPOLYGONALFACESET(#242,$,(#243,#244,#245,#246,#247,#248),$);
#250=IFCSHAPEREPRESENTATION(#11,'Body','Tessellation',(#249));
#251=IFCPRODUCTDEFINITIONSHAPE($,$,(#250));
#257=IFCCARTESIANPOINT((0.,0.,-3600.));
#258=IFCDIRECTION((0.,0.,1.));
#259=IFCDIRECTION((1.,0.,0.));
#260=IFCAXIS2PLACEMENT3D(#257,#258,#259);
#261=IFCLOCALPLACEMENT(#38,#260);
#262=IFCSLAB('17XyyfVsT76hCbTZghtfa_',$,'Level 3 Main Slab',$,$,#283,#272,$,$);
#263=IFCCARTESIANPOINTLIST3D(((0.,0.,7200.),(24000.,0.,7200.),(24000.,14000.,7200.),(0.,14000.,7200.),(0.,0.,7450.),(24000.,0.,7450.),(24000.,14000.,7450.),(0.,14000.,7450.)));
#264=IFCINDEXEDPOLYGONALFACE((1,2,3,4));
#265=IFCINDEXEDPOLYGONALFACE((5,6,7,8));
#266=IFCINDEXEDPOLYGONALFACE((1,2,6,5));
#267=IFCINDEXEDPOLYGONALFACE((2,3,7,6));
#268=IFCINDEXEDPOLYGONALFACE((3,4,8,7));
#269=IFCINDEXEDPOLYGONALFACE((4,1,5,8));
#270=IFCPOLYGONALFACESET(#263,$,(#264,#265,#266,#267,#268,#269),$);
#271=IFCSHAPEREPRESENTATION(#11,'Body','Tessellation',(#270));
#272=IFCPRODUCTDEFINITIONSHAPE($,$,(#271));
#278=IFCRELCONTAINEDINSPATIALSTRUCTURE('3ApRsIClv1IxcToQkPx$B5',$,$,$,(#812,#326,#305,#262,#284,#833,#347,#896,#854,#875,#917),#39);
#279=IFCCARTESIANPOINT((0.,0.,-7200.));
#280=IFCDIRECTION((0.,0.,1.));
#281=IFCDIRECTION((1.,0.,0.));
#282=IFCAXIS2PLACEMENT3D(#279,#280,#281);
#283=IFCLOCALPLACEMENT(#49,#282);
#284=IFCWALL('2uh3qZOpfC_gBZfbI9Wifv',$,'Level 3 shell-south',$,$,#304,#294,$,$);
#285=IFCCARTESIANPOINTLIST3D(((0.,0.,7450.),(24000.,0.,7450.),(24000.,200.,7450.),(0.,200.,7450.),(0.,0.,10650.),(24000.,0.,10650.),(24000.,200.,10650.),(0.,200.,10650.)));
#286=IFCINDEXEDPOLYGONALFACE((1,2,3,4));
#287=IFCINDEXEDPOLYGONALFACE((5,6,7,8));
#288=IFCINDEXEDPOLYGONALFACE((1,2,6,5));
#289=IFCINDEXEDPOLYGONALFACE((2,3,7,6));
#290=IFCINDEXEDPOLYGONALFACE((3,4,8,7));
#291=IFCINDEXEDPOLYGONALFACE((4,1,5,8));
#292=IFCPOLYGONALFACESET(#285,$,(#286,#287,#288,#289,#290,#291),$);
#293=IFCSHAPEREPRESENTATION(#11,'Body','Tessellation',(#292));
#294=IFCPRODUCTDEFINITIONSHAPE($,$,(#293));
#300=IFCCARTESIANPOINT((0.,0.,-7200.));
#301=IFCDIRECTION((0.,0.,1.));
#302=IFCDIRECTION((1.,0.,0.));
#303=IFCAXIS2PLACEMENT3D(#300,#301,#302);
#304=IFCLOCALPLACEMENT(#49,#303);
#305=IFCWALL('1L8mfnnRfF2AfuI08N4F$_',$,'Level 3 shell-north',$,$,#325,#315,$,$);
#306=IFCCARTESIANPOINTLIST3D(((0.,14000.,7450.),(24000.,14000.,7450.),(24000.,14200.,7450.),(0.,14200.,7450.),(0.,14000.,10650.),(24000.,14000.,10650.),(24000.,14200.,10650.),(0.,14200.,10650.)));
#307=IFCINDEXEDPOLYGONALFACE((1,2,3,4));
#308=IFCINDEXEDPOLYGONALFACE((5,6,7,8));
#309=IFCINDEXEDPOLYGONALFACE((1,2,6,5));
#310=IFCINDEXEDPOLYGONALFACE((2,3,7,6));
#311=IFCINDEXEDPOLYGONALFACE((3,4,8,7));
#312=IFCINDEXEDPOLYGONALFACE((4,1,5,8));
#313=IFCPOLYGONALFACESET(#306,$,(#307,#308,#309,#310,#311,#312),$);
#314=IFCSHAPEREPRESENTATION(#11,'Body','Tessellation',(#313));
#315=IFCPRODUCTDEFINITIONSHAPE($,$,(#314));
#321=IFCCARTESIANPOINT((0.,0.,-7200.));
#322=IFCDIRECTION((0.,0.,1.));
#323=IFCDIRECTION((1.,0.,0.));
#324=IFCAXIS2PLACEMENT3D(#321,#322,#323);
#325=IFCLOCALPLACEMENT(#49,#324);
#326=IFCWALL('2AiBO_r1f8B8f2zgXMjriK',$,'Level 3 shell-west',$,$,#346,#336,$,$);
#327=IFCCARTESIANPOINTLIST3D(((0.,0.,7450.),(200.,0.,7450.),(200.,14000.,7450.),(0.,14000.,7450.),(0.,0.,10650.),(200.,0.,10650.),(200.,14000.,10650.),(0.,14000.,10650.)));
#328=IFCINDEXEDPOLYGONALFACE((1,2,3,4));
#329=IFCINDEXEDPOLYGONALFACE((5,6,7,8));
#330=IFCINDEXEDPOLYGONALFACE((1,2,6,5));
#331=IFCINDEXEDPOLYGONALFACE((2,3,7,6));
#332=IFCINDEXEDPOLYGONALFACE((3,4,8,7));
#333=IFCINDEXEDPOLYGONALFACE((4,1,5,8));
#334=IFCPOLYGONALFACESET(#327,$,(#328,#329,#330,#331,#332,#333),$);
#335=IFCSHAPEREPRESENTATION(#11,'Body','Tessellation',(#334));
#336=IFCPRODUCTDEFINITIONSHAPE($,$,(#335));
#342=IFCCARTESIANPOINT((0.,0.,-7200.));
#343=IFCDIRECTION((0.,0.,1.));
#344=IFCDIRECTION((1.,0.,0.));
#345=IFCAXIS2PLACEMENT3D(#342,#343,#344);
#346=IFCLOCALPLACEMENT(#49,#345);
#347=IFCWALL('0KgQICC2DCYeKHOFWCpYD7',$,'Level 3 shell-east',$,$,#367,#357,$,$);
#348=IFCCARTESIANPOINTLIST3D(((24000.,0.,7450.),(24200.,0.,7450.),(24200.,14000.,7450.),(24000.,14000.,7450.),(24000.,0.,10650.),(24200.,0.,10650.),(24200.,14000.,10650.),(24000.,14000.,10650.)));
#349=IFCINDEXEDPOLYGONALFACE((1,2,3,4));
#350=IFCINDEXEDPOLYGONALFACE((5,6,7,8));
#351=IFCINDEXEDPOLYGONALFACE((1,2,6,5));
#352=IFCINDEXEDPOLYGONALFACE((2,3,7,6));
#353=IFCINDEXEDPOLYGONALFACE((3,4,8,7));
#354=IFCINDEXEDPOLYGONALFACE((4,1,5,8));
#355=IFCPOLYGONALFACESET(#348,$,(#349,#350,#351,#352,#353,#354),$);
#356=IFCSHAPEREPRESENTATION(#11,'Body','Tessellation',(#355));
#357=IFCPRODUCTDEFINITIONSHAPE($,$,(#356));
#363=IFCCARTESIANPOINT((0.,0.,-7200.));
#364=IFCDIRECTION((0.,0.,1.));
#365=IFCDIRECTION((1.,0.,0.));
#366=IFCAXIS2PLACEMENT3D(#363,#364,#365);
#367=IFCLOCALPLACEMENT(#49,#366);
#368=IFCSPACE('3bFc6w$WrBw8UZe3Il_QPX',$,'Retail',$,$,#389,#378,$,$,$,$);
#369=IFCCARTESIANPOINTLIST3D(((1000.,1000.,250.),(16000.,1000.,250.),(16000.,8500.,250.),(1000.,8500.,250.),(1000.,1000.,3200.),(16000.,1000.,3200.),(16000.,8500.,3200.),(1000.,8500.,3200.)));
#370=IFCINDEXEDPOLYGONALFACE((1,2,3,4));
#371=IFCINDEXEDPOLYGONALFACE((5,6,7,8));
#372=IFCINDEXEDPOLYGONALFACE((1,2,6,5));
#373=IFCINDEXEDPOLYGONALFACE((2,3,7,6));
#374=IFCINDEXEDPOLYGONALFACE((3,4,8,7));
#375=IFCINDEXEDPOLYGONALFACE((4,1,5,8));
#376=IFCPOLYGONALFACESET(#369,$,(#370,#371,#372,#373,#374,#375),$);
#377=IFCSHAPEREPRESENTATION(#11,'Body','Tessellation',(#376));
#378=IFCPRODUCTDEFINITIONSHAPE($,$,(#377));
#384=IFCRELAGGREGATES('1PfQwdkDPCfQqCgDy859VF',$,$,$,#16,(#368,#411,#390));
#385=IFCCARTESIANPOINT((0.,0.,0.));
#386=IFCDIRECTION((0.,0.,1.));
#387=IFCDIRECTION((1.,0.,0.));
#388=IFCAXIS2PLACEMENT3D(#385,#386,#387);
#389=IFCLOCALPLACEMENT(#27,#388);
#390=IFCSPACE('0kzD0sJQT0buZTwzmSJJ0V',$,'Lobby',$,$,#410,#400,$,$,$,$);
#391=IFCCARTESIANPOINTLIST3D(((17000.,1000.,250.),(23000.,1000.,250.),(23000.,8500.,250.),(17000.,8500.,250.),(17000.,1000.,3200.),(23000.,1000.,3200.),(23000.,8500.,3200.),(17000.,8500.,3200.)));
#392=IFCINDEXEDPOLYGONALFACE((1,2,3,4));
#393=IFCINDEXEDPOLYGONALFACE((5,6,7,8));
#394=IFCINDEXEDPOLYGONALFACE((1,2,6,5));
#395=IFCINDEXEDPOLYGONALFACE((2,3,7,6));
#396=IFCINDEXEDPOLYGONALFACE((3,4,8,7));
#397=IFCINDEXEDPOLYGONALFACE((4,1,5,8));
#398=IFCPOLYGONALFACESET(#391,$,(#392,#393,#394,#395,#396,#397),$);
#399=IFCSHAPEREPRESENTATION(#11,'Body','Tessellation',(#398));
#400=IFCPRODUCTDEFINITIONSHAPE($,$,(#399));
#406=IFCCARTESIANPOINT((0.,0.,0.));
#407=IFCDIRECTION((0.,0.,1.));
#408=IFCDIRECTION((1.,0.,0.));
#409=IFCAXIS2PLACEMENT3D(#406,#407,#408);
#410=IFCLOCALPLACEMENT(#27,#409);
#411=IFCSPACE('3RhwEjFYDCj8Fe6wezQXQc',$,'Back Service',$,$,#431,#421,$,$,$,$);
#412=IFCCARTESIANPOINTLIST3D(((1000.,9000.,250.),(6000.,9000.,250.),(6000.,13000.,250.),(1000.,13000.,250.),(1000.,9000.,3200.),(6000.,9000.,3200.),(6000.,13000.,3200.),(1000.,13000.,3200.)));
#413=IFCINDEXEDPOLYGONALFACE((1,2,3,4));
#414=IFCINDEXEDPOLYGONALFACE((5,6,7,8));
#415=IFCINDEXEDPOLYGONALFACE((1,2,6,5));
#416=IFCINDEXEDPOLYGONALFACE((2,3,7,6));
#417=IFCINDEXEDPOLYGONALFACE((3,4,8,7));
#418=IFCINDEXEDPOLYGONALFACE((4,1,5,8));
#419=IFCPOLYGONALFACESET(#412,$,(#413,#414,#415,#416,#417,#418),$);
#420=IFCSHAPEREPRESENTATION(#11,'Body','Tessellation',(#419));
#421=IFCPRODUCTDEFINITIONSHAPE($,$,(#420));
#427=IFCCARTESIANPOINT((0.,0.,0.));
#428=IFCDIRECTION((0.,0.,1.));
#429=IFCDIRECTION((1.,0.,0.));
#430=IFCAXIS2PLACEMENT3D(#427,#428,#429);
#431=IFCLOCALPLACEMENT(#27,#430);
#432=IFCSPACE('1Igm0rs6XCbxynaRJ7US2e',$,'Office 201',$,$,#453,#442,$,$,$,$);
#433=IFCCARTESIANPOINTLIST3D(((1000.,1000.,3850.),(7500.,1000.,3850.),(7500.,5700.,3850.),(1000.,5700.,3850.),(1000.,1000.,6800.),(7500.,1000.,6800.),(7500.,5700.,6800.),(1000.,5700.,6800.)));
#434=IFCINDEXEDPOLYGONALFACE((1,2,3,4));
#435=IFCINDEXEDPOLYGONALFACE((5,6,7,8));
#436=IFCINDEXEDPOLYGONALFACE((1,2,6,5));
#437=IFCINDEXEDPOLYGONALFACE((2,3,7,6));
#438=IFCINDEXEDPOLYGONALFACE((3,4,8,7));
#439=IFCINDEXEDPOLYGONALFACE((4,1,5,8));
#440=IFCPOLYGONALFACESET(#433,$,(#434,#435,#436,#437,#438,#439),$);
#441=IFCSHAPEREPRESENTATION(#11,'Body','Tessellation',(#440));
#442=IFCPRODUCTDEFINITIONSHAPE($,$,(#441));
#448=IFCRELAGGREGATES('28ZV4s2uPBsgHaz24MMgN7',$,$,$,#28,(#432,#454,#475));
#449=IFCCARTESIANPOINT((0.,0.,-3600.));
#450=IFCDIRECTION((0.,0.,1.));
#451=IFCDIRECTION((1.,0.,0.));
#452=IFCAXIS2PLACEMENT3D(#449,#450,#451);
#453=IFCLOCALPLACEMENT(#38,#452);
#454=IFCSPACE('3RmilHtJf7egiUju4qAA34',$,'Office 202',$,$,#474,#464,$,$,$,$);
#455=IFCCARTESIANPOINTLIST3D(((8200.,1000.,3850.),(15200.,1000.,3850.),(15200.,5700.,3850.),(8200.,5700.,3850.),(8200.,1000.,6800.),(15200.,1000.,6800.),(15200.,5700.,6800.),(8200.,5700.,6800.)));
#456=IFCINDEXEDPOLYGONALFACE((1,2,3,4));
#457=IFCINDEXEDPOLYGONALFACE((5,6,7,8));
#458=IFCINDEXEDPOLYGONALFACE((1,2,6,5));
#459=IFCINDEXEDPOLYGONALFACE((2,3,7,6));
#460=IFCINDEXEDPOLYGONALFACE((3,4,8,7));
#461=IFCINDEXEDPOLYGONALFACE((4,1,5,8));
#462=IFCPOLYGONALFACESET(#455,$,(#456,#457,#458,#459,#460,#461),$);
#463=IFCSHAPEREPRESENTATION(#11,'Body','Tessellation',(#462));
#464=IFCPRODUCTDEFINITIONSHAPE($,$,(#463));
#470=IFCCARTESIANPOINT((0.,0.,-3600.));
#471=IFCDIRECTION((0.,0.,1.));
#472=IFCDIRECTION((1.,0.,0.));
#473=IFCAXIS2PLACEMENT3D(#470,#471,#472);
#474=IFCLOCALPLACEMENT(#38,#473);
#475=IFCSPACE('2dmdRQ9APCeO9fwEJPjDu8',$,'Corridor 2',$,$,#495,#485,$,$,$,$);
#476=IFCCARTESIANPOINTLIST3D(((1000.,6300.,3850.),(23000.,6300.,3850.),(23000.,8300.,3850.),(1000.,8300.,3850.),(1000.,6300.,6800.),(23000.,6300.,6800.),(23000.,8300.,6800.),(1000.,8300.,6800.)));
#477=IFCINDEXEDPOLYGONALFACE((1,2,3,4));
#478=IFCINDEXEDPOLYGONALFACE((5,6,7,8));
#479=IFCINDEXEDPOLYGONALFACE((1,2,6,5));
#480=IFCINDEXEDPOLYGONALFACE((2,3,7,6));
#481=IFCINDEXEDPOLYGONALFACE((3,4,8,7));
#482=IFCINDEXEDPOLYGONALFACE((4,1,5,8));
#483=IFCPOLYGONALFACESET(#476,$,(#477,#478,#479,#480,#481,#482),$);
#484=IFCSHAPEREPRESENTATION(#11,'Body','Tessellation',(#483));
#485=IFCPRODUCTDEFINITIONSHAPE($,$,(#484));
#491=IFCCARTESIANPOINT((0.,0.,-3600.));
#492=IFCDIRECTION((0.,0.,1.));
#493=IFCDIRECTION((1.,0.,0.));
#494=IFCAXIS2PLACEMENT3D(#491,#492,#493);
#495=IFCLOCALPLACEMENT(#38,#494);
#496=IFCSPACE('3_Bt2BTf9Epf1z7Yunq5AM',$,'Office 301',$,$,#517,#506,$,$,$,$);
#497=IFCCARTESIANPOINTLIST3D(((1000.,1000.,7450.),(7500.,1000.,7450.),(7500.,5700.,7450.),(1000.,5700.,7450.),(1000.,1000.,10400.),(7500.,1000.,10400.),(7500.,5700.,10400.),(1000.,5700.,10400.)));
#498=IFCINDEXEDPOLYGONALFACE((1,2,3,4));
#499=IFCINDEXEDPOLYGONALFACE((5,6,7,8));
#500=IFCINDEXEDPOLYGONALFACE((1,2,6,5));
#501=IFCINDEXEDPOLYGONALFACE((2,3,7,6));
#502=IFCINDEXEDPOLYGONALFACE((3,4,8,7));
#503=IFCINDEXEDPOLYGONALFACE((4,1,5,8));
#504=IFCPOLYGONALFACESET(#497,$,(#498,#499,#500,#501,#502,#503),$);
#505=IFCSHAPEREPRESENTATION(#11,'Body','Tessellation',(#504));
#506=IFCPRODUCTDEFINITIONSHAPE($,$,(#505));
#512=IFCRELAGGREGATES('0EF7xbBCz99A6sTY$j7QQ_',$,$,$,#39,(#518,#539,#496));
#513=IFCCARTESIANPOINT((0.,0.,-7200.));
#514=IFCDIRECTION((0.,0.,1.));
#515=IFCDIRECTION((1.,0.,0.));
#516=IFCAXIS2PLACEMENT3D(#513,#514,#515);
#517=IFCLOCALPLACEMENT(#49,#516);
#518=IFCSPACE('35urZkeeT6tgU62wMaZNuO',$,'Office 302',$,$,#538,#528,$,$,$,$);
#519=IFCCARTESIANPOINTLIST3D(((8200.,1000.,7450.),(15200.,1000.,7450.),(15200.,5700.,7450.),(8200.,5700.,7450.),(8200.,1000.,10400.),(15200.,1000.,10400.),(15200.,5700.,10400.),(8200.,5700.,10400.)));
#520=IFCINDEXEDPOLYGONALFACE((1,2,3,4));
#521=IFCINDEXEDPOLYGONALFACE((5,6,7,8));
#522=IFCINDEXEDPOLYGONALFACE((1,2,6,5));
#523=IFCINDEXEDPOLYGONALFACE((2,3,7,6));
#524=IFCINDEXEDPOLYGONALFACE((3,4,8,7));
#525=IFCINDEXEDPOLYGONALFACE((4,1,5,8));
#526=IFCPOLYGONALFACESET(#519,$,(#520,#521,#522,#523,#524,#525),$);
#527=IFCSHAPEREPRESENTATION(#11,'Body','Tessellation',(#526));
#528=IFCPRODUCTDEFINITIONSHAPE($,$,(#527));
#534=IFCCARTESIANPOINT((0.,0.,-7200.));
#535=IFCDIRECTION((0.,0.,1.));
#536=IFCDIRECTION((1.,0.,0.));
#537=IFCAXIS2PLACEMENT3D(#534,#535,#536);
#538=IFCLOCALPLACEMENT(#49,#537);
#539=IFCSPACE('0NzpS_0HP0S9c0iyF71tCl',$,'Corridor 3',$,$,#559,#549,$,$,$,$);
#540=IFCCARTESIANPOINTLIST3D(((1000.,6300.,7450.),(23000.,6300.,7450.),(23000.,8300.,7450.),(1000.,8300.,7450.),(1000.,6300.,10400.),(23000.,6300.,10400.),(23000.,8300.,10400.),(1000.,8300.,10400.)));
#541=IFCINDEXEDPOLYGONALFACE((1,2,3,4));
#542=IFCINDEXEDPOLYGONALFACE((5,6,7,8));
#543=IFCINDEXEDPOLYGONALFACE((1,2,6,5));
#544=IFCINDEXEDPOLYGONALFACE((2,3,7,6));
#545=IFCINDEXEDPOLYGONALFACE((3,4,8,7));
#546=IFCINDEXEDPOLYGONALFACE((4,1,5,8));
#547=IFCPOLYGONALFACESET(#540,$,(#541,#542,#543,#544,#545,#546),$);
#548=IFCSHAPEREPRESENTATION(#11,'Body','Tessellation',(#547));
#549=IFCPRODUCTDEFINITIONSHAPE($,$,(#548));
#555=IFCCARTESIANPOINT((0.,0.,-7200.));
#556=IFCDIRECTION((0.,0.,1.));
#557=IFCDIRECTION((1.,0.,0.));
#558=IFCAXIS2PLACEMENT3D(#555,#556,#557);
#559=IFCLOCALPLACEMENT(#49,#558);
#560=IFCWINDOW('24qkjTHDr5euKVWsRQqVGN',$,'Level 1-FW-1',$,$,#580,#570,$,$,$,$,$,$);
#561=IFCCARTESIANPOINTLIST3D(((1450.,20.,1000.),(2550.,20.,1000.),(2550.,139.99999999999997,1000.),(1450.,139.99999999999997,1000.),(1450.,20.,2200.),(2550.,20.,2200.),(2550.,139.99999999999997,2200.),(1450.,139.99999999999997,2200.)));
#562=IFCINDEXEDPOLYGONALFACE((1,2,3,4));
#563=IFCINDEXEDPOLYGONALFACE((5,6,7,8));
#564=IFCINDEXEDPOLYGONALFACE((1,2,6,5));
#565=IFCINDEXEDPOLYGONALFACE((2,3,7,6));
#566=IFCINDEXEDPOLYGONALFACE((3,4,8,7));
#567=IFCINDEXEDPOLYGONALFACE((4,1,5,8));
#568=IFCPOLYGONALFACESET(#561,$,(#562,#563,#564,#565,#566,#567),$);
#569=IFCSHAPEREPRESENTATION(#11,'Body','Tessellation',(#568));
#570=IFCPRODUCTDEFINITIONSHAPE($,$,(#569));
#576=IFCCARTESIANPOINT((0.,0.,0.));
#577=IFCDIRECTION((0.,0.,1.));
#578=IFCDIRECTION((1.,0.,0.));
#579=IFCAXIS2PLACEMENT3D(#576,#577,#578);
#580=IFCLOCALPLACEMENT(#27,#579);
#581=IFCWINDOW('1ElOLtVBrAohKB8jHmSMCU',$,'Level 1-FW-2',$,$,#601,#591,$,$,$,$,$,$);
#582=IFCCARTESIANPOINTLIST3D(((5450.,20.,1000.),(6550.,20.,1000.),(6550.,139.99999999999997,1000.),(5450.,139.99999999999997,1000.),(5450.,20.,2200.),(6550.,20.,2200.),(6550.,139.99999999999997,2200.),(5450.,139.99999999999997,2200.)));
#583=IFCINDEXEDPOLYGONALFACE((1,2,3,4));
#584=IFCINDEXEDPOLYGONALFACE((5,6,7,8));
#585=IFCINDEXEDPOLYGONALFACE((1,2,6,5));
#586=IFCINDEXEDPOLYGONALFACE((2,3,7,6));
#587=IFCINDEXEDPOLYGONALFACE((3,4,8,7));
#588=IFCINDEXEDPOLYGONALFACE((4,1,5,8));
#589=IFCPOLYGONALFACESET(#582,$,(#583,#584,#585,#586,#587,#588),$);
#590=IFCSHAPEREPRESENTATION(#11,'Body','Tessellation',(#589));
#591=IFCPRODUCTDEFINITIONSHAPE($,$,(#590));
#597=IFCCARTESIANPOINT((0.,0.,0.));
#598=IFCDIRECTION((0.,0.,1.));
#599=IFCDIRECTION((1.,0.,0.));
#600=IFCAXIS2PLACEMENT3D(#597,#598,#599);
#601=IFCLOCALPLACEMENT(#27,#600);
#602=IFCWINDOW('0QwLx1zL5FtO_HMKTlDHLr',$,'Level 1-FW-3',$,$,#622,#612,$,$,$,$,$,$);
#603=IFCCARTESIANPOINTLIST3D(((9450.,20.,1000.),(10550.,20.,1000.),(10550.,139.99999999999997,1000.),(9450.,139.99999999999997,1000.),(9450.,20.,2200.),(10550.,20.,2200.),(10550.,139.99999999999997,2200.),(9450.,139.99999999999997,2200.)));
#604=IFCINDEXEDPOLYGONALFACE((1,2,3,4));
#605=IFCINDEXEDPOLYGONALFACE((5,6,7,8));
#606=IFCINDEXEDPOLYGONALFACE((1,2,6,5));
#607=IFCINDEXEDPOLYGONALFACE((2,3,7,6));
#608=IFCINDEXEDPOLYGONALFACE((3,4,8,7));
#609=IFCINDEXEDPOLYGONALFACE((4,1,5,8));
#610=IFCPOLYGONALFACESET(#603,$,(#604,#605,#606,#607,#608,#609),$);
#611=IFCSHAPEREPRESENTATION(#11,'Body','Tessellation',(#610));
#612=IFCPRODUCTDEFINITIONSHAPE($,$,(#611));
#618=IFCCARTESIANPOINT((0.,0.,0.));
#619=IFCDIRECTION((0.,0.,1.));
#620=IFCDIRECTION((1.,0.,0.));
#621=IFCAXIS2PLACEMENT3D(#618,#619,#620);
#622=IFCLOCALPLACEMENT(#27,#621);
#623=IFCWINDOW('1rLycQbanBLR91OZy1QtvU',$,'Level 1-FW-4',$,$,#643,#633,$,$,$,$,$,$);
#624=IFCCARTESIANPOINTLIST3D(((13450.,20.,1000.),(14550.,20.,1000.),(14550.,139.99999999999997,1000.),(13450.,139.99999999999997,1000.),(13450.,20.,2200.),(14550.,20.,2200.),(14550.,139.99999999999997,2200.),(13450.,139.99999999999997,2200.)));
#625=IFCINDEXEDPOLYGONALFACE((1,2,3,4));
#626=IFCINDEXEDPOLYGONALFACE((5,6,7,8));
#627=IFCINDEXEDPOLYGONALFACE((1,2,6,5));
#628=IFCINDEXEDPOLYGONALFACE((2,3,7,6));
#629=IFCINDEXEDPOLYGONALFACE((3,4,8,7));
#630=IFCINDEXEDPOLYGONALFACE((4,1,5,8));
#631=IFCPOLYGONALFACESET(#624,$,(#625,#626,#627,#628,#629,#630),$);
#632=IFCSHAPEREPRESENTATION(#11,'Body','Tessellation',(#631));
#633=IFCPRODUCTDEFINITIONSHAPE($,$,(#632));
#639=IFCCARTESIANPOINT((0.,0.,0.));
#640=IFCDIRECTION((0.,0.,1.));
#641=IFCDIRECTION((1.,0.,0.));
#642=IFCAXIS2PLACEMENT3D(#639,#640,#641);
#643=IFCLOCALPLACEMENT(#27,#642);
#644=IFCWINDOW('0IIWs$iN5ElA1zqsZ637Zr',$,'Level 1-FW-5',$,$,#664,#654,$,$,$,$,$,$);
#645=IFCCARTESIANPOINTLIST3D(((17450.,20.,1000.),(18550.,20.,1000.),(18550.,139.99999999999997,1000.),(17450.,139.99999999999997,1000.),(17450.,20.,2200.),(18550.,20.,2200.),(18550.,139.99999999999997,2200.),(17450.,139.99999999999997,2200.)));
#646=IFCINDEXEDPOLYGONALFACE((1,2,3,4));
#647=IFCINDEXEDPOLYGONALFACE((5,6,7,8));
#648=IFCINDEXEDPOLYGONALFACE((1,2,6,5));
#649=IFCINDEXEDPOLYGONALFACE((2,3,7,6));
#650=IFCINDEXEDPOLYGONALFACE((3,4,8,7));
#651=IFCINDEXEDPOLYGONALFACE((4,1,5,8));
#652=IFCPOLYGONALFACESET(#645,$,(#646,#647,#648,#649,#650,#651),$);
#653=IFCSHAPEREPRESENTATION(#11,'Body','Tessellation',(#652));
#654=IFCPRODUCTDEFINITIONSHAPE($,$,(#653));
#660=IFCCARTESIANPOINT((0.,0.,0.));
#661=IFCDIRECTION((0.,0.,1.));
#662=IFCDIRECTION((1.,0.,0.));
#663=IFCAXIS2PLACEMENT3D(#660,#661,#662);
#664=IFCLOCALPLACEMENT(#27,#663);
#665=IFCWINDOW('1HGqtZViDENelSrWg5h4ob',$,'Level 1-FW-6',$,$,#685,#675,$,$,$,$,$,$);
#666=IFCCARTESIANPOINTLIST3D(((21450.,20.,1000.),(22550.,20.,1000.),(22550.,139.99999999999997,1000.),(21450.,139.99999999999997,1000.),(21450.,20.,2200.),(22550.,20.,2200.),(22550.,139.99999999999997,2200.),(21450.,139.99999999999997,2200.)));
#667=IFCINDEXEDPOLYGONALFACE((1,2,3,4));
#668=IFCINDEXEDPOLYGONALFACE((5,6,7,8));
#669=IFCINDEXEDPOLYGONALFACE((1,2,6,5));
#670=IFCINDEXEDPOLYGONALFACE((2,3,7,6));
#671=IFCINDEXEDPOLYGONALFACE((3,4,8,7));
#672=IFCINDEXEDPOLYGONALFACE((4,1,5,8));
#673=IFCPOLYGONALFACESET(#666,$,(#667,#668,#669,#670,#671,#672),$);
#674=IFCSHAPEREPRESENTATION(#11,'Body','Tessellation',(#673));
#675=IFCPRODUCTDEFINITIONSHAPE($,$,(#674));
#681=IFCCARTESIANPOINT((0.,0.,0.));
#682=IFCDIRECTION((0.,0.,1.));
#683=IFCDIRECTION((1.,0.,0.));
#684=IFCAXIS2PLACEMENT3D(#681,#682,#683);
#685=IFCLOCALPLACEMENT(#27,#684);
#686=IFCWINDOW('0mUhTi6pbCUAUbyVTtE2OW',$,'Level 2-FW-1',$,$,#706,#696,$,$,$,$,$,$);
#687=IFCCARTESIANPOINTLIST3D(((1450.,20.,4600.),(2550.,20.,4600.),(2550.,139.99999999999997,4600.),(1450.,139.99999999999997,4600.),(1450.,20.,5800.),(2550.,20.,5800.),(2550.,139.99999999999997,5800.),(1450.,139.99999999999997,5800.)));
#688=IFCINDEXEDPOLYGONALFACE((1,2,3,4));
#689=IFCINDEXEDPOLYGONALFACE((5,6,7,8));
#690=IFCINDEXEDPOLYGONALFACE((1,2,6,5));
#691=IFCINDEXEDPOLYGONALFACE((2,3,7,6));
#692=IFCINDEXEDPOLYGONALFACE((3,4,8,7));
#693=IFCINDEXEDPOLYGONALFACE((4,1,5,8));
#694=IFCPOLYGONALFACESET(#687,$,(#688,#689,#690,#691,#692,#693),$);
#695=IFCSHAPEREPRESENTATION(#11,'Body','Tessellation',(#694));
#696=IFCPRODUCTDEFINITIONSHAPE($,$,(#695));
#702=IFCCARTESIANPOINT((0.,0.,-3600.));
#703=IFCDIRECTION((0.,0.,1.));
#704=IFCDIRECTION((1.,0.,0.));
#705=IFCAXIS2PLACEMENT3D(#702,#703,#704);
#706=IFCLOCALPLACEMENT(#38,#705);
#707=IFCWINDOW('2SEPBxbzv0$92zGv7BGAeY',$,'Level 2-FW-2',$,$,#727,#717,$,$,$,$,$,$);
#708=IFCCARTESIANPOINTLIST3D(((5450.,20.,4600.),(6550.,20.,4600.),(6550.,139.99999999999997,4600.),(5450.,139.99999999999997,4600.),(5450.,20.,5800.),(6550.,20.,5800.),(6550.,139.99999999999997,5800.),(5450.,139.99999999999997,5800.)));
#709=IFCINDEXEDPOLYGONALFACE((1,2,3,4));
#710=IFCINDEXEDPOLYGONALFACE((5,6,7,8));
#711=IFCINDEXEDPOLYGONALFACE((1,2,6,5));
#712=IFCINDEXEDPOLYGONALFACE((2,3,7,6));
#713=IFCINDEXEDPOLYGONALFACE((3,4,8,7));
#714=IFCINDEXEDPOLYGONALFACE((4,1,5,8));
#715=IFCPOLYGONALFACESET(#708,$,(#709,#710,#711,#712,#713,#714),$);
#716=IFCSHAPEREPRESENTATION(#11,'Body','Tessellation',(#715));
#717=IFCPRODUCTDEFINITIONSHAPE($,$,(#716));
#723=IFCCARTESIANPOINT((0.,0.,-3600.));
#724=IFCDIRECTION((0.,0.,1.));
#725=IFCDIRECTION((1.,0.,0.));
#726=IFCAXIS2PLACEMENT3D(#723,#724,#725);
#727=IFCLOCALPLACEMENT(#38,#726);
#728=IFCWINDOW('3AmyVjm0j5wOTmo3bA7oAh',$,'Level 2-FW-3',$,$,#748,#738,$,$,$,$,$,$);
#729=IFCCARTESIANPOINTLIST3D(((9450.,20.,4600.),(10550.,20.,4600.),(10550.,139.99999999999997,4600.),(9450.,139.99999999999997,4600.),(9450.,20.,5800.),(10550.,20.,5800.),(10550.,139.99999999999997,5800.),(9450.,139.99999999999997,5800.)));
#730=IFCINDEXEDPOLYGONALFACE((1,2,3,4));
#731=IFCINDEXEDPOLYGONALFACE((5,6,7,8));
#732=IFCINDEXEDPOLYGONALFACE((1,2,6,5));
#733=IFCINDEXEDPOLYGONALFACE((2,3,7,6));
#734=IFCINDEXEDPOLYGONALFACE((3,4,8,7));
#735=IFCINDEXEDPOLYGONALFACE((4,1,5,8));
#736=IFCPOLYGONALFACESET(#729,$,(#730,#731,#732,#733,#734,#735),$);
#737=IFCSHAPEREPRESENTATION(#11,'Body','Tessellation',(#736));
#738=IFCPRODUCTDEFINITIONSHAPE($,$,(#737));
#744=IFCCARTESIANPOINT((0.,0.,-3600.));
#745=IFCDIRECTION((0.,0.,1.));
#746=IFCDIRECTION((1.,0.,0.));
#747=IFCAXIS2PLACEMENT3D(#744,#745,#746);
#748=IFCLOCALPLACEMENT(#38,#747);
#749=IFCWINDOW('0qjl1bOAb35AUS_4SeKpHS',$,'Level 2-FW-4',$,$,#769,#759,$,$,$,$,$,$);
#750=IFCCARTESIANPOINTLIST3D(((13450.,20.,4600.),(14550.,20.,4600.),(14550.,139.99999999999997,4600.),(13450.,139.99999999999997,4600.),(13450.,20.,5800.),(14550.,20.,5800.),(14550.,139.99999999999997,5800.),(13450.,139.99999999999997,5800.)));
#751=IFCINDEXEDPOLYGONALFACE((1,2,3,4));
#752=IFCINDEXEDPOLYGONALFACE((5,6,7,8));
#753=IFCINDEXEDPOLYGONALFACE((1,2,6,5));
#754=IFCINDEXEDPOLYGONALFACE((2,3,7,6));
#755=IFCINDEXEDPOLYGONALFACE((3,4,8,7));
#756=IFCINDEXEDPOLYGONALFACE((4,1,5,8));
#757=IFCPOLYGONALFACESET(#750,$,(#751,#752,#753,#754,#755,#756),$);
#758=IFCSHAPEREPRESENTATION(#11,'Body','Tessellation',(#757));
#759=IFCPRODUCTDEFINITIONSHAPE($,$,(#758));
#765=IFCCARTESIANPOINT((0.,0.,-3600.));
#766=IFCDIRECTION((0.,0.,1.));
#767=IFCDIRECTION((1.,0.,0.));
#768=IFCAXIS2PLACEMENT3D(#765,#766,#767);
#769=IFCLOCALPLACEMENT(#38,#768);
#770=IFCWINDOW('2wk2AAyPnAwfTMkAZL4Gjc',$,'Level 2-FW-5',$,$,#790,#780,$,$,$,$,$,$);
#771=IFCCARTESIANPOINTLIST3D(((17450.,20.,4600.),(18550.,20.,4600.),(18550.,139.99999999999997,4600.),(17450.,139.99999999999997,4600.),(17450.,20.,5800.),(18550.,20.,5800.),(18550.,139.99999999999997,5800.),(17450.,139.99999999999997,5800.)));
#772=IFCINDEXEDPOLYGONALFACE((1,2,3,4));
#773=IFCINDEXEDPOLYGONALFACE((5,6,7,8));
#774=IFCINDEXEDPOLYGONALFACE((1,2,6,5));
#775=IFCINDEXEDPOLYGONALFACE((2,3,7,6));
#776=IFCINDEXEDPOLYGONALFACE((3,4,8,7));
#777=IFCINDEXEDPOLYGONALFACE((4,1,5,8));
#778=IFCPOLYGONALFACESET(#771,$,(#772,#773,#774,#775,#776,#777),$);
#779=IFCSHAPEREPRESENTATION(#11,'Body','Tessellation',(#778));
#780=IFCPRODUCTDEFINITIONSHAPE($,$,(#779));
#786=IFCCARTESIANPOINT((0.,0.,-3600.));
#787=IFCDIRECTION((0.,0.,1.));
#788=IFCDIRECTION((1.,0.,0.));
#789=IFCAXIS2PLACEMENT3D(#786,#787,#788);
#790=IFCLOCALPLACEMENT(#38,#789);
#791=IFCWINDOW('0bGwNel9H5zhL$l7zCt0Su',$,'Level 2-FW-6',$,$,#811,#801,$,$,$,$,$,$);
#792=IFCCARTESIANPOINTLIST3D(((21450.,20.,4600.),(22550.,20.,4600.),(22550.,139.99999999999997,4600.),(21450.,139.99999999999997,4600.),(21450.,20.,5800.),(22550.,20.,5800.),(22550.,139.99999999999997,5800.),(21450.,139.99999999999997,5800.)));
#793=IFCINDEXEDPOLYGONALFACE((1,2,3,4));
#794=IFCINDEXEDPOLYGONALFACE((5,6,7,8));
#795=IFCINDEXEDPOLYGONALFACE((1,2,6,5));
#796=IFCINDEXEDPOLYGONALFACE((2,3,7,6));
#797=IFCINDEXEDPOLYGONALFACE((3,4,8,7));
#798=IFCINDEXEDPOLYGONALFACE((4,1,5,8));
#799=IFCPOLYGONALFACESET(#792,$,(#793,#794,#795,#796,#797,#798),$);
#800=IFCSHAPEREPRESENTATION(#11,'Body','Tessellation',(#799));
#801=IFCPRODUCTDEFINITIONSHAPE($,$,(#800));
#807=IFCCARTESIANPOINT((0.,0.,-3600.));
#808=IFCDIRECTION((0.,0.,1.));
#809=IFCDIRECTION((1.,0.,0.));
#810=IFCAXIS2PLACEMENT3D(#807,#808,#809);
#811=IFCLOCALPLACEMENT(#38,#810);
#812=IFCWINDOW('2EwbjJNZb6gebE2JM_TCAY',$,'Level 3-FW-1',$,$,#832,#822,$,$,$,$,$,$);
#813=IFCCARTESIANPOINTLIST3D(((1450.,20.,8200.),(2550.,20.,8200.),(2550.,139.99999999999997,8200.),(1450.,139.99999999999997,8200.),(1450.,20.,9399.9999999999982),(2550.,20.,9399.9999999999982),(2550.,139.99999999999997,9399.9999999999982),(1450.,139.99999999999997,9399.9999999999982)));
#814=IFCINDEXEDPOLYGONALFACE((1,2,3,4));
#815=IFCINDEXEDPOLYGONALFACE((5,6,7,8));
#816=IFCINDEXEDPOLYGONALFACE((1,2,6,5));
#817=IFCINDEXEDPOLYGONALFACE((2,3,7,6));
#818=IFCINDEXEDPOLYGONALFACE((3,4,8,7));
#819=IFCINDEXEDPOLYGONALFACE((4,1,5,8));
#820=IFCPOLYGONALFACESET(#813,$,(#814,#815,#816,#817,#818,#819),$);
#821=IFCSHAPEREPRESENTATION(#11,'Body','Tessellation',(#820));
#822=IFCPRODUCTDEFINITIONSHAPE($,$,(#821));
#828=IFCCARTESIANPOINT((0.,0.,-7200.));
#829=IFCDIRECTION((0.,0.,1.));
#830=IFCDIRECTION((1.,0.,0.));
#831=IFCAXIS2PLACEMENT3D(#828,#829,#830);
#832=IFCLOCALPLACEMENT(#49,#831);
#833=IFCWINDOW('0DhQ_Mrwz5nBzW8n3HPr$v',$,'Level 3-FW-2',$,$,#853,#843,$,$,$,$,$,$);
#834=IFCCARTESIANPOINTLIST3D(((5450.,20.,8200.),(6550.,20.,8200.),(6550.,139.99999999999997,8200.),(5450.,139.99999999999997,8200.),(5450.,20.,9399.9999999999982),(6550.,20.,9399.9999999999982),(6550.,139.99999999999997,9399.9999999999982),(5450.,139.99999999999997,9399.9999999999982)));
#835=IFCINDEXEDPOLYGONALFACE((1,2,3,4));
#836=IFCINDEXEDPOLYGONALFACE((5,6,7,8));
#837=IFCINDEXEDPOLYGONALFACE((1,2,6,5));
#838=IFCINDEXEDPOLYGONALFACE((2,3,7,6));
#839=IFCINDEXEDPOLYGONALFACE((3,4,8,7));
#840=IFCINDEXEDPOLYGONALFACE((4,1,5,8));
#841=IFCPOLYGONALFACESET(#834,$,(#835,#836,#837,#838,#839,#840),$);
#842=IFCSHAPEREPRESENTATION(#11,'Body','Tessellation',(#841));
#843=IFCPRODUCTDEFINITIONSHAPE($,$,(#842));
#849=IFCCARTESIANPOINT((0.,0.,-7200.));
#850=IFCDIRECTION((0.,0.,1.));
#851=IFCDIRECTION((1.,0.,0.));
#852=IFCAXIS2PLACEMENT3D(#849,#850,#851);
#853=IFCLOCALPLACEMENT(#49,#852);
#854=IFCWINDOW('2s$0eKYrrAtgnAQ5$9lJxP',$,'Level 3-FW-3',$,$,#874,#864,$,$,$,$,$,$);
#855=IFCCARTESIANPOINTLIST3D(((9450.,20.,8200.),(10550.,20.,8200.),(10550.,139.99999999999997,8200.),(9450.,139.99999999999997,8200.),(9450.,20.,9399.9999999999982),(10550.,20.,9399.9999999999982),(10550.,139.99999999999997,9399.9999999999982),(9450.,139.99999999999997,9399.9999999999982)));
#856=IFCINDEXEDPOLYGONALFACE((1,2,3,4));
#857=IFCINDEXEDPOLYGONALFACE((5,6,7,8));
#858=IFCINDEXEDPOLYGONALFACE((1,2,6,5));
#859=IFCINDEXEDPOLYGONALFACE((2,3,7,6));
#860=IFCINDEXEDPOLYGONALFACE((3,4,8,7));
#861=IFCINDEXEDPOLYGONALFACE((4,1,5,8));
#862=IFCPOLYGONALFACESET(#855,$,(#856,#857,#858,#859,#860,#861),$);
#863=IFCSHAPEREPRESENTATION(#11,'Body','Tessellation',(#862));
#864=IFCPRODUCTDEFINITIONSHAPE($,$,(#863));
#870=IFCCARTESIANPOINT((0.,0.,-7200.));
#871=IFCDIRECTION((0.,0.,1.));
#872=IFCDIRECTION((1.,0.,0.));
#873=IFCAXIS2PLACEMENT3D(#870,#871,#872);
#874=IFCLOCALPLACEMENT(#49,#873);
#875=IFCWINDOW('2FG0tKdN5DKwu6t10dxfNf',$,'Level 3-FW-4',$,$,#895,#885,$,$,$,$,$,$);
#876=IFCCARTESIANPOINTLIST3D(((13450.,20.,8200.),(14550.,20.,8200.),(14550.,139.99999999999997,8200.),(13450.,139.99999999999997,8200.),(13450.,20.,9399.9999999999982),(14550.,20.,9399.9999999999982),(14550.,139.99999999999997,9399.9999999999982),(13450.,139.99999999999997,9399.9999999999982)));
#877=IFCINDEXEDPOLYGONALFACE((1,2,3,4));
#878=IFCINDEXEDPOLYGONALFACE((5,6,7,8));
#879=IFCINDEXEDPOLYGONALFACE((1,2,6,5));
#880=IFCINDEXEDPOLYGONALFACE((2,3,7,6));
#881=IFCINDEXEDPOLYGONALFACE((3,4,8,7));
#882=IFCINDEXEDPOLYGONALFACE((4,1,5,8));
#883=IFCPOLYGONALFACESET(#876,$,(#877,#878,#879,#880,#881,#882),$);
#884=IFCSHAPEREPRESENTATION(#11,'Body','Tessellation',(#883));
#885=IFCPRODUCTDEFINITIONSHAPE($,$,(#884));
#891=IFCCARTESIANPOINT((0.,0.,-7200.));
#892=IFCDIRECTION((0.,0.,1.));
#893=IFCDIRECTION((1.,0.,0.));
#894=IFCAXIS2PLACEMENT3D(#891,#892,#893);
#895=IFCLOCALPLACEMENT(#49,#894);
#896=IFCWINDOW('1vqGs$2EjDEwTSvewi5qyA',$,'Level 3-FW-5',$,$,#916,#906,$,$,$,$,$,$);
#897=IFCCARTESIANPOINTLIST3D(((17450.,20.,8200.),(18550.,20.,8200.),(18550.,139.99999999999997,8200.),(17450.,139.99999999999997,8200.),(17450.,20.,9399.9999999999982),(18550.,20.,9399.9999999999982),(18550.,139.99999999999997,9399.9999999999982),(17450.,139.99999999999997,9399.9999999999982)));
#898=IFCINDEXEDPOLYGONALFACE((1,2,3,4));
#899=IFCINDEXEDPOLYGONALFACE((5,6,7,8));
#900=IFCINDEXEDPOLYGONALFACE((1,2,6,5));
#901=IFCINDEXEDPOLYGONALFACE((2,3,7,6));
#902=IFCINDEXEDPOLYGONALFACE((3,4,8,7));
#903=IFCINDEXEDPOLYGONALFACE((4,1,5,8));
#904=IFCPOLYGONALFACESET(#897,$,(#898,#899,#900,#901,#902,#903),$);
#905=IFCSHAPEREPRESENTATION(#11,'Body','Tessellation',(#904));
#906=IFCPRODUCTDEFINITIONSHAPE($,$,(#905));
#912=IFCCARTESIANPOINT((0.,0.,-7200.));
#913=IFCDIRECTION((0.,0.,1.));
#914=IFCDIRECTION((1.,0.,0.));
#915=IFCAXIS2PLACEMENT3D(#912,#913,#914);
#916=IFCLOCALPLACEMENT(#49,#915);
#917=IFCWINDOW('2euuMZVcDBp8weS$7wrnzd',$,'Level 3-FW-6',$,$,#937,#927,$,$,$,$,$,$);
#918=IFCCARTESIANPOINTLIST3D(((21450.,20.,8200.),(22550.,20.,8200.),(22550.,139.99999999999997,8200.),(21450.,139.99999999999997,8200.),(21450.,20.,9399.9999999999982),(22550.,20.,9399.9999999999982),(22550.,139.99999999999997,9399.9999999999982),(21450.,139.99999999999997,9399.9999999999982)));
#919=IFCINDEXEDPOLYGONALFACE((1,2,3,4));
#920=IFCINDEXEDPOLYGONALFACE((5,6,7,8));
#921=IFCINDEXEDPOLYGONALFACE((1,2,6,5));
#922=IFCINDEXEDPOLYGONALFACE((2,3,7,6));
#923=IFCINDEXEDPOLYGONALFACE((3,4,8,7));
#924=IFCINDEXEDPOLYGONALFACE((4,1,5,8));
#925=IFCPOLYGONALFACESET(#918,$,(#919,#920,#921,#922,#923,#924),$);
#926=IFCSHAPEREPRESENTATION(#11,'Body','Tessellation',(#925));
#927=IFCPRODUCTDEFINITIONSHAPE($,$,(#926));
#933=IFCCARTESIANPOINT((0.,0.,-7200.));
#934=IFCDIRECTION((0.,0.,1.));
#935=IFCDIRECTION((1.,0.,0.));
#936=IFCAXIS2PLACEMENT3D(#933,#934,#935);
#937=IFCLOCALPLACEMENT(#49,#936);
ENDSEC;
END-ISO-10303-21;
