solid task_03_openscad_enclosure
  facet normal 0 0 0
    outer loop
      vertex -42.2000 -30.2000 0.0000
      vertex 42.2000 -30.2000 0.0000
      vertex 42.2000 30.2000 0.0000
    endloop
  endfacet
  facet normal 0 0 0
    outer loop
      vertex -42.2000 -30.2000 0.0000
      vertex 42.2000 30.2000 0.0000
      vertex -42.2000 30.2000 0.0000
    endloop
  endfacet
  facet normal 0 0 0
    outer loop
      vertex -42.2000 -30.2000 14.2000
      vertex 42.2000 30.2000 14.2000
      vertex 42.2000 -30.2000 14.2000
    endloop
  endfacet
  facet normal 0 0 0
    outer loop
      vertex -42.2000 -30.2000 14.2000
      vertex -42.2000 30.2000 14.2000
      vertex 42.2000 30.2000 14.2000
    endloop
  endfacet
  facet normal 0 0 0
    outer loop
      vertex -42.2000 -30.2000 0.0000
      vertex -42.2000 -30.2000 14.2000
      vertex 42.2000 -30.2000 14.2000
    endloop
  endfacet
  facet normal 0 0 0
    outer loop
      vertex -42.2000 -30.2000 0.0000
      vertex 42.2000 -30.2000 14.2000
      vertex 42.2000 -30.2000 0.0000
    endloop
  endfacet
  facet normal 0 0 0
    outer loop
      vertex 42.2000 -30.2000 0.0000
      vertex 42.2000 -30.2000 14.2000
      vertex 42.2000 30.2000 14.2000
    endloop
  endfacet
  facet normal 0 0 0
    outer loop
      vertex 42.2000 -30.2000 0.0000
      vertex 42.2000 30.2000 14.2000
      vertex 42.2000 30.2000 0.0000
    endloop
  endfacet
  facet normal 0 0 0
    outer loop
      vertex 42.2000 30.2000 0.0000
      vertex 42.2000 30.2000 14.2000
      vertex -42.2000 30.2000 14.2000
    endloop
  endfacet
  facet normal 0 0 0
    outer loop
      vertex 42.2000 30.2000 0.0000
      vertex -42.2000 30.2000 14.2000
      vertex -42.2000 30.2000 0.0000
    endloop
  endfacet
  facet normal 0 0 0
    outer loop
      vertex -42.2000 30.2000 0.0000
      vertex -42.2000 30.2000 14.2000
      vertex -42.2000 -30.2000 14.2000
    endloop
  endfacet
  facet normal 0 0 0
    outer loop
      vertex -42.2000 30.2000 0.0000
      vertex -42.2000 -30.2000 14.2000
      vertex -42.2000 -30.2000 0.0000
    endloop
  endfacet
endsolid task_03_openscad_enclosure
