  0
SECTION
  2
HEADER
  9
$ACADVER
  1
AC1009
  9
$INSBASE
 10
0.0
 20
0.0
 30
0.0
  9
$EXTMIN
 10
0.0
 20
0.0
 30
0.0
  9
$EXTMAX
 10
0.0
 20
0.0
 30
0.0
  0
ENDSEC
  0
SECTION
  2
TABLES
  0
TABLE
  2
VPORT
 70
0
  0
ENDTAB
  0
TABLE
  2
LTYPE
 70
1
  0
LTYPE
  2
CONTINUOUS
 70
0
  3
Solid line
 72
65
 73
0
 40
0.0
  0
ENDTAB
  0
TABLE
  2
LAYER
 70
1
  0
LAYER
  2
0
 70
64
 62
7
  6
continuous
  0
ENDTAB
  0
TABLE
  2
STYLE
 70
1
  0
STYLE
  2
STANDARD
 70
0
 40
0
 41
1.0
 50
0.0
 71
0
 42
1
 3
ARIAL.TTF
 4

  0
ENDTAB
  0
TABLE
  2
VIEW
 70
0
  0
ENDTAB
  0
ENDSEC
  0
SECTION
  2
BLOCKS
  0
BLOCK
  8
0
  2
SHAPESTRING
 70
0
 10
0.0
 20
0.0
 30
0.0
  3
SHAPESTRING
  0
POLYLINE
  8
0
 62
0
 70
1
 66
1
 10
0.0
 20
0.0
 30
0.0
  0
VERTEX
  8
0
 10
44.66526845637584
 20
22.328859060402685
 30
0.0
  0
VERTEX
  8
0
 10
43.01426174496644
 20
22.328859060402685
 30
0.0
  0
VERTEX
  8
0
 10
43.01426174496644
 20
21.22281879194631
 30
0.0
  0
VERTEX
  8
0
 10
44.50419463087248
 20
21.22281879194631
 30
0.0
  0
VERTEX
  8
0
 10
44.50419463087248
 20
20.79328859060403
 30
0.0
  0
VERTEX
  8
0
 10
43.01426174496644
 20
20.79328859060403
 30
0.0
  0
VERTEX
  8
0
 10
43.01426174496644
 20
19.0
 30
0.0
  0
VERTEX
  8
0
 10
42.505872483221474
 20
19.0
 30
0.0
  0
VERTEX
  8
0
 10
42.505872483221474
 20
22.758389261744966
 30
0.0
  0
VERTEX
  8
0
 10
44.66526845637584
 20
22.758389261744966
 30
0.0
  0
SEQEND
  8
0
  0
POLYLINE
  8
0
 62
0
 70
1
 66
1
 10
0.0
 20
0.0
 30
0.0
  0
VERTEX
  8
0
 10
47.88070469798657
 20
20.02768456375839
 30
0.0
  0
VERTEX
  8
0
 10
48.39664429530201
 20
19.0
 30
0.0
  0
VERTEX
  8
0
 10
47.850503355704696
 20
19.0
 30
0.0
  0
VERTEX
  8
0
 10
47.36979865771812
 20
19.96459731543624
 30
0.0
  0
VERTEX
  8
0
 10
47.00855704697987
 20
20.465771812080536
 30
0.0
  0
VERTEX
  8
0
 10
46.531711409395974
 20
20.589261744966443
 30
0.0
  0
VERTEX
  8
0
 10
45.97802013422819
 20
20.589261744966443
 30
0.0
  0
VERTEX
  8
0
 10
45.97802013422819
 20
19.0
 30
0.0
  0
VERTEX
  8
0
 10
45.46963087248322
 20
19.0
 30
0.0
  0
VERTEX
  8
0
 10
45.46963087248322
 20
22.758389261744966
 30
0.0
  0
VERTEX
  8
0
 10
46.61728187919463
 20
22.758389261744966
 30
0.0
  0
VERTEX
  8
0
 10
47.578691275167785
 20
22.489093959731544
 30
0.0
  0
VERTEX
  8
0
 10
47.895805369127515
 20
21.676510067114094
 30
0.0
  0
VERTEX
  8
0
 10
47.730872483221475
 20
21.08775167785235
 30
0.0
  0
VERTEX
  8
0
 10
47.2515100671141
 20
20.763255033557048
 30
0.0
  0
VERTEX
  8
0
 10
47.569798657718124
 20
20.526510067114096
 30
0.0
  0
SEQEND
  8
0
  0
POLYLINE
  8
0
 62
0
 70
1
 66
1
 10
0.0
 20
0.0
 30
0.0
  0
VERTEX
  8
0
 10
46.61728187919463
 20
21.00805369127517
 30
0.0
  0
VERTEX
  8
0
 10
47.17214765100671
 20
21.17751677852349
 30
0.0
  0
VERTEX
  8
0
 10
47.359731543624164
 20
21.676342281879194
 30
0.0
  0
VERTEX
  8
0
 10
47.17214765100671
 20
22.17248322147651
 30
0.0
  0
VERTEX
  8
0
 10
46.61728187919463
 20
22.33959731543624
 30
0.0
  0
VERTEX
  8
0
 10
45.97802013422819
 20
22.33959731543624
 30
0.0
  0
VERTEX
  8
0
 10
45.97802013422819
 20
21.00805369127517
 30
0.0
  0
SEQEND
  8
0
  0
POLYLINE
  8
0
 62
0
 70
1
 66
1
 10
0.0
 20
0.0
 30
0.0
  0
VERTEX
  8
0
 10
51.432046979865774
 20
22.328859060402685
 30
0.0
  0
VERTEX
  8
0
 10
49.56459731543624
 20
22.328859060402685
 30
0.0
  0
VERTEX
  8
0
 10
49.56459731543624
 20
21.21208053691275
 30
0.0
  0
VERTEX
  8
0
 10
51.354026845637584
 20
21.21208053691275
 30
0.0
  0
VERTEX
  8
0
 10
51.354026845637584
 20
20.78255033557047
 30
0.0
  0
VERTEX
  8
0
 10
49.56459731543624
 20
20.78255033557047
 30
0.0
  0
VERTEX
  8
0
 10
49.56459731543624
 20
19.42953020134228
 30
0.0
  0
VERTEX
  8
0
 10
51.47734899328859
 20
19.42953020134228
 30
0.0
  0
VERTEX
  8
0
 10
51.47734899328859
 20
19.0
 30
0.0
  0
VERTEX
  8
0
 10
49.05620805369127
 20
19.0
 30
0.0
  0
VERTEX
  8
0
 10
49.05620805369127
 20
22.758389261744966
 30
0.0
  0
VERTEX
  8
0
 10
51.432046979865774
 20
22.758389261744966
 30
0.0
  0
SEQEND
  8
0
  0
POLYLINE
  8
0
 62
0
 70
1
 66
1
 10
0.0
 20
0.0
 30
0.0
  0
VERTEX
  8
0
 10
54.685738255033556
 20
22.328859060402685
 30
0.0
  0
VERTEX
  8
0
 10
52.81828859060403
 20
22.328859060402685
 30
0.0
  0
VERTEX
  8
0
 10
52.81828859060403
 20
21.21208053691275
 30
0.0
  0
VERTEX
  8
0
 10
54.60771812080537
 20
21.21208053691275
 30
0.0
  0
VERTEX
  8
0
 10
54.60771812080537
 20
20.78255033557047
 30
0.0
  0
VERTEX
  8
0
 10
52.81828859060403
 20
20.78255033557047
 30
0.0
  0
VERTEX
  8
0
 10
52.81828859060403
 20
19.42953020134228
 30
0.0
  0
VERTEX
  8
0
 10
54.731040268456375
 20
19.42953020134228
 30
0.0
  0
VERTEX
  8
0
 10
54.731040268456375
 20
19.0
 30
0.0
  0
VERTEX
  8
0
 10
52.30989932885906
 20
19.0
 30
0.0
  0
VERTEX
  8
0
 10
52.30989932885906
 20
22.758389261744966
 30
0.0
  0
VERTEX
  8
0
 10
54.685738255033556
 20
22.758389261744966
 30
0.0
  0
SEQEND
  8
0
  0
POLYLINE
  8
0
 62
0
 70
1
 66
1
 10
0.0
 20
0.0
 30
0.0
  0
VERTEX
  8
0
 10
57.82986577181208
 20
22.286409395973156
 30
0.0
  0
VERTEX
  8
0
 10
57.21208053691275
 20
22.404026845637585
 30
0.0
  0
VERTEX
  8
0
 10
56.225503355704696
 20
22.010402684563758
 30
0.0
  0
VERTEX
  8
0
 10
55.883221476510066
 20
20.872651006711408
 30
0.0
  0
VERTEX
  8
0
 10
56.225503355704696
 20
19.737080536912753
 30
0.0
  0
VERTEX
  8
0
 10
57.21208053691275
 20
19.343624161073826
 30
0.0
  0
VERTEX
  8
0
 10
57.82986577181208
 20
19.461073825503355
 30
0.0
  0
VERTEX
  8
0
 10
58.37734899328859
 20
19.816107382550335
 30
0.0
  0
VERTEX
  8
0
 10
58.37734899328859
 20
19.28993288590604
 30
0.0
  0
VERTEX
  8
0
 10
57.81224832214765
 20
19.016107382550334
 30
0.0
  0
VERTEX
  8
0
 10
57.18187919463087
 20
18.9248322147651
 30
0.0
  0
VERTEX
  8
0
 10
55.837919463087246
 20
19.446979865771812
 30
0.0
  0
VERTEX
  8
0
 10
55.34714765100671
 20
20.872651006711408
 30
0.0
  0
VERTEX
  8
0
 10
55.837919463087246
 20
22.3006711409396
 30
0.0
  0
VERTEX
  8
0
 10
57.18187919463087
 20
22.822818791946307
 30
0.0
  0
VERTEX
  8
0
 10
57.81728187919463
 20
22.734228187919463
 30
0.0
  0
VERTEX
  8
0
 10
58.37734899328859
 20
22.468456375838926
 30
0.0
  0
VERTEX
  8
0
 10
58.37734899328859
 20
21.931543624161073
 30
0.0
  0
SEQEND
  8
0
  0
POLYLINE
  8
0
 62
0
 70
1
 66
1
 10
0.0
 20
0.0
 30
0.0
  0
VERTEX
  8
0
 10
62.138255033557044
 20
19.0
 30
0.0
  0
VERTEX
  8
0
 10
61.609731543624164
 20
19.0
 30
0.0
  0
VERTEX
  8
0
 10
61.267449664429535
 20
19.966442953020135
 30
0.0
  0
VERTEX
  8
0
 10
59.573657718120806
 20
19.966442953020135
 30
0.0
  0
VERTEX
  8
0
 10
59.231375838926176
 20
19.0
 30
0.0
  0
VERTEX
  8
0
 10
58.69530201342282
 20
19.0
 30
0.0
  0
VERTEX
  8
0
 10
60.12986577181208
 20
22.758389261744966
 30
0.0
  0
VERTEX
  8
0
 10
60.70620805369128
 20
22.758389261744966
 30
0.0
  0
SEQEND
  8
0
  0
POLYLINE
  8
0
 62
0
 70
1
 66
1
 10
0.0
 20
0.0
 30
0.0
  0
VERTEX
  8
0
 10
61.10889261744967
 20
20.385234899328857
 30
0.0
  0
VERTEX
  8
0
 10
60.41677852348994
 20
22.25704697986577
 30
0.0
  0
VERTEX
  8
0
 10
59.72718120805369
 20
20.385234899328857
 30
0.0
  0
SEQEND
  8
0
  0
POLYLINE
  8
0
 62
0
 70
1
 66
1
 10
0.0
 20
0.0
 30
0.0
  0
VERTEX
  8
0
 10
65.33070469798658
 20
22.304026845637583
 30
0.0
  0
VERTEX
  8
0
 10
65.84161073825503
 20
20.88288590604027
 30
0.0
  0
VERTEX
  8
0
 10
65.32818791946309
 20
19.45553691275168
 30
0.0
  0
VERTEX
  8
0
 10
63.72751677852349
 20
19.0
 30
0.0
  0
VERTEX
  8
0
 10
62.68305369127516
 20
19.0
 30
0.0
  0
VERTEX
  8
0
 10
62.68305369127516
 20
22.758389261744966
 30
0.0
  0
VERTEX
  8
0
 10
63.72751677852349
 20
22.758389261744966
 30
0.0
  0
SEQEND
  8
0
  0
POLYLINE
  8
0
 62
0
 70
1
 66
1
 10
0.0
 20
0.0
 30
0.0
  0
VERTEX
  8
0
 10
63.80553691275168
 20
19.418791946308726
 30
0.0
  0
VERTEX
  8
0
 10
64.94429530201342
 20
19.770973154362416
 30
0.0
  0
VERTEX
  8
0
 10
65.30553691275168
 20
20.88288590604027
 30
0.0
  0
VERTEX
  8
0
 10
64.94429530201342
 20
21.988590604026847
 30
0.0
  0
VERTEX
  8
0
 10
63.80553691275168
 20
22.33959731543624
 30
0.0
  0
VERTEX
  8
0
 10
63.19144295302013
 20
22.33959731543624
 30
0.0
  0
VERTEX
  8
0
 10
63.19144295302013
 20
19.418791946308726
 30
0.0
  0
SEQEND
  8
0
  0
POLYLINE
  8
0
 62
0
 70
1
 66
1
 10
0.0
 20
0.0
 30
0.0
  0
VERTEX
  8
0
 10
66.1
 20
17.786577181208052
 30
0.0
  0
VERTEX
  8
0
 10
66.1
 20
18.151677852348993
 30
0.0
  0
VERTEX
  8
0
 10
68.77785234899329
 20
18.151677852348993
 30
0.0
  0
VERTEX
  8
0
 10
68.77785234899329
 20
17.786577181208052
 30
0.0
  0
SEQEND
  8
0
  0
POLYLINE
  8
0
 62
0
 70
1
 66
1
 10
0.0
 20
0.0
 30
0.0
  0
VERTEX
  8
0
 10
71.89110738255033
 20
22.328859060402685
 30
0.0
  0
VERTEX
  8
0
 10
70.55721476510067
 20
22.328859060402685
 30
0.0
  0
VERTEX
  8
0
 10
70.55721476510067
 20
19.0
 30
0.0
  0
VERTEX
  8
0
 10
70.04630872483222
 20
19.0
 30
0.0
  0
VERTEX
  8
0
 10
70.04630872483222
 20
22.328859060402685
 30
0.0
  0
VERTEX
  8
0
 10
68.71241610738255
 20
22.328859060402685
 30
0.0
  0
VERTEX
  8
0
 10
68.71241610738255
 20
22.758389261744966
 30
0.0
  0
VERTEX
  8
0
 10
71.89110738255033
 20
22.758389261744966
 30
0.0
  0
SEQEND
  8
0
  0
POLYLINE
  8
0
 62
0
 70
1
 66
1
 10
0.0
 20
0.0
 30
0.0
  0
VERTEX
  8
0
 10
75.64144295302013
 20
20.872651006711408
 30
0.0
  0
VERTEX
  8
0
 10
75.16828859060402
 20
19.454530201342283
 30
0.0
  0
VERTEX
  8
0
 10
73.90486577181208
 20
18.9248322147651
 30
0.0
  0
VERTEX
  8
0
 10
72.63758389261744
 20
19.453187919463087
 30
0.0
  0
VERTEX
  8
0
 10
72.16325503355705
 20
20.872651006711408
 30
0.0
  0
VERTEX
  8
0
 10
72.63758389261744
 20
22.293120805369128
 30
0.0
  0
VERTEX
  8
0
 10
73.90486577181208
 20
22.822818791946307
 30
0.0
  0
VERTEX
  8
0
 10
75.16828859060402
 20
22.293120805369128
 30
0.0
  0
SEQEND
  8
0
  0
POLYLINE
  8
0
 62
0
 70
1
 66
1
 10
0.0
 20
0.0
 30
0.0
  0
VERTEX
  8
0
 10
72.6993288590604
 20
20.87248322147651
 30
0.0
  0
VERTEX
  8
0
 10
73.0251677852349
 20
19.746812080536913
 30
0.0
  0
VERTEX
  8
0
 10
73.90486577181208
 20
19.332885906040268
 30
0.0
  0
VERTEX
  8
0
 10
74.78187919463087
 20
19.746812080536913
 30
0.0
  0
VERTEX
  8
0
 10
75.10536912751678
 20
20.87248322147651
 30
0.0
  0
VERTEX
  8
0
 10
74.78187919463087
 20
22.000838926174495
 30
0.0
  0
VERTEX
  8
0
 10
73.90486577181208
 20
22.41476510067114
 30
0.0
  0
VERTEX
  8
0
 10
73.0251677852349
 20
22.000838926174495
 30
0.0
  0
SEQEND
  8
0
  0
POLYLINE
  8
0
 62
0
 70
1
 66
1
 10
0.0
 20
0.0
 30
0.0
  0
VERTEX
  8
0
 10
75.88255033557047
 20
17.786577181208052
 30
0.0
  0
VERTEX
  8
0
 10
75.88255033557047
 20
18.151677852348993
 30
0.0
  0
VERTEX
  8
0
 10
78.56040268456377
 20
18.151677852348993
 30
0.0
  0
VERTEX
  8
0
 10
78.56040268456377
 20
17.786577181208052
 30
0.0
  0
SEQEND
  8
0
  0
POLYLINE
  8
0
 62
0
 70
1
 66
1
 10
0.0
 20
0.0
 30
0.0
  0
VERTEX
  8
0
 10
79.5243288590604
 20
21.16996644295302
 30
0.0
  0
VERTEX
  8
0
 10
81.21057046979865
 20
22.758389261744966
 30
0.0
  0
VERTEX
  8
0
 10
81.86493288590603
 20
22.758389261744966
 30
0.0
  0
VERTEX
  8
0
 10
80.0
 20
21.006375838926175
 30
0.0
  0
VERTEX
  8
0
 10
81.99832214765101
 20
19.0
 30
0.0
  0
VERTEX
  8
0
 10
81.32885906040268
 20
19.0
 30
0.0
  0
VERTEX
  8
0
 10
79.5243288590604
 20
20.80989932885906
 30
0.0
  0
VERTEX
  8
0
 10
79.5243288590604
 20
19.0
 30
0.0
  0
VERTEX
  8
0
 10
79.01593959731542
 20
19.0
 30
0.0
  0
VERTEX
  8
0
 10
79.01593959731542
 20
22.758389261744966
 30
0.0
  0
VERTEX
  8
0
 10
79.5243288590604
 20
22.758389261744966
 30
0.0
  0
SEQEND
  8
0
  0
POLYLINE
  8
0
 62
0
 70
1
 66
1
 10
0.0
 20
0.0
 30
0.0
  0
VERTEX
  8
0
 10
82.90687919463087
 20
19.0
 30
0.0
  0
VERTEX
  8
0
 10
82.3984899328859
 20
19.0
 30
0.0
  0
VERTEX
  8
0
 10
82.3984899328859
 20
22.758389261744966
 30
0.0
  0
VERTEX
  8
0
 10
82.90687919463087
 20
22.758389261744966
 30
0.0
  0
SEQEND
  8
0
  0
POLYLINE
  8
0
 62
0
 70
1
 66
1
 10
0.0
 20
0.0
 30
0.0
  0
VERTEX
  8
0
 10
86.18959731543623
 20
22.286409395973156
 30
0.0
  0
VERTEX
  8
0
 10
85.57181208053692
 20
22.404026845637585
 30
0.0
  0
VERTEX
  8
0
 10
84.58523489932885
 20
22.010402684563758
 30
0.0
  0
VERTEX
  8
0
 10
84.24295302013422
 20
20.872651006711408
 30
0.0
  0
VERTEX
  8
0
 10
84.58523489932885
 20
19.737080536912753
 30
0.0
  0
VERTEX
  8
0
 10
85.57181208053692
 20
19.343624161073826
 30
0.0
  0
VERTEX
  8
0
 10
86.18959731543623
 20
19.461073825503355
 30
0.0
  0
VERTEX
  8
0
 10
86.73708053691274
 20
19.816107382550335
 30
0.0
  0
VERTEX
  8
0
 10
86.73708053691274
 20
19.28993288590604
 30
0.0
  0
VERTEX
  8
0
 10
86.17197986577182
 20
19.016107382550334
 30
0.0
  0
VERTEX
  8
0
 10
85.54161073825503
 20
18.9248322147651
 30
0.0
  0
VERTEX
  8
0
 10
84.1976510067114
 20
19.446979865771812
 30
0.0
  0
VERTEX
  8
0
 10
83.70687919463086
 20
20.872651006711408
 30
0.0
  0
VERTEX
  8
0
 10
84.1976510067114
 20
22.3006711409396
 30
0.0
  0
VERTEX
  8
0
 10
85.54161073825503
 20
22.822818791946307
 30
0.0
  0
VERTEX
  8
0
 10
86.17701342281879
 20
22.734228187919463
 30
0.0
  0
VERTEX
  8
0
 10
86.73708053691274
 20
22.468456375838926
 30
0.0
  0
VERTEX
  8
0
 10
86.73708053691274
 20
21.931543624161073
 30
0.0
  0
SEQEND
  8
0
  0
POLYLINE
  8
0
 62
0
 70
1
 66
1
 10
0.0
 20
0.0
 30
0.0
  0
VERTEX
  8
0
 10
90.49798657718121
 20
19.0
 30
0.0
  0
VERTEX
  8
0
 10
89.96946308724833
 20
19.0
 30
0.0
  0
VERTEX
  8
0
 10
89.62718120805368
 20
19.966442953020135
 30
0.0
  0
VERTEX
  8
0
 10
87.93338926174496
 20
19.966442953020135
 30
0.0
  0
VERTEX
  8
0
 10
87.59110738255033
 20
19.0
 30
0.0
  0
VERTEX
  8
0
 10
87.05503355704698
 20
19.0
 30
0.0
  0
VERTEX
  8
0
 10
88.48959731543624
 20
22.758389261744966
 30
0.0
  0
VERTEX
  8
0
 10
89.06593959731543
 20
22.758389261744966
 30
0.0
  0
SEQEND
  8
0
  0
POLYLINE
  8
0
 62
0
 70
1
 66
1
 10
0.0
 20
0.0
 30
0.0
  0
VERTEX
  8
0
 10
89.46862416107382
 20
20.385234899328857
 30
0.0
  0
VERTEX
  8
0
 10
88.77651006711409
 20
22.25704697986577
 30
0.0
  0
VERTEX
  8
0
 10
88.08691275167786
 20
20.385234899328857
 30
0.0
  0
SEQEND
  8
0
  0
POLYLINE
  8
0
 62
0
 70
1
 66
1
 10
0.0
 20
0.0
 30
0.0
  0
VERTEX
  8
0
 10
93.69043624161074
 20
22.304026845637583
 30
0.0
  0
VERTEX
  8
0
 10
94.20134228187919
 20
20.88288590604027
 30
0.0
  0
VERTEX
  8
0
 10
93.68791946308724
 20
19.45553691275168
 30
0.0
  0
VERTEX
  8
0
 10
92.08724832214764
 20
19.0
 30
0.0
  0
VERTEX
  8
0
 10
91.04278523489933
 20
19.0
 30
0.0
  0
VERTEX
  8
0
 10
91.04278523489933
 20
22.758389261744966
 30
0.0
  0
VERTEX
  8
0
 10
92.08724832214764
 20
22.758389261744966
 30
0.0
  0
SEQEND
  8
0
  0
POLYLINE
  8
0
 62
0
 70
1
 66
1
 10
0.0
 20
0.0
 30
0.0
  0
VERTEX
  8
0
 10
92.16526845637583
 20
19.418791946308726
 30
0.0
  0
VERTEX
  8
0
 10
93.30402684563758
 20
19.770973154362416
 30
0.0
  0
VERTEX
  8
0
 10
93.66526845637583
 20
20.88288590604027
 30
0.0
  0
VERTEX
  8
0
 10
93.30402684563758
 20
21.988590604026847
 30
0.0
  0
VERTEX
  8
0
 10
92.16526845637583
 20
22.33959731543624
 30
0.0
  0
VERTEX
  8
0
 10
91.55117449664428
 20
22.33959731543624
 30
0.0
  0
VERTEX
  8
0
 10
91.55117449664428
 20
19.418791946308726
 30
0.0
  0
SEQEND
  8
0
  0
ENDBLK
  0
BLOCK
  8
0
  2
SHAPESTRING001
 70
0
 10
0.0
 20
0.0
 30
0.0
  3
SHAPESTRING001
  0
POLYLINE
  8
0
 62
0
 70
1
 66
1
 10
0.0
 20
0.0
 30
0.0
  0
VERTEX
  8
0
 10
48.602139261744966
 20
72.16107382550335
 30
0.0
  0
VERTEX
  8
0
 10
46.267827181208055
 20
72.16107382550335
 30
0.0
  0
VERTEX
  8
0
 10
46.267827181208055
 20
70.76510067114094
 30
0.0
  0
VERTEX
  8
0
 10
48.50461409395973
 20
70.76510067114094
 30
0.0
  0
VERTEX
  8
0
 10
48.50461409395973
 20
70.22818791946308
 30
0.0
  0
VERTEX
  8
0
 10
46.267827181208055
 20
70.22818791946308
 30
0.0
  0
VERTEX
  8
0
 10
46.267827181208055
 20
68.53691275167785
 30
0.0
  0
VERTEX
  8
0
 10
48.65876677852349
 20
68.53691275167785
 30
0.0
  0
VERTEX
  8
0
 10
48.65876677852349
 20
68.0
 30
0.0
  0
VERTEX
  8
0
 10
45.632340604026844
 20
68.0
 30
0.0
  0
VERTEX
  8
0
 10
45.632340604026844
 20
72.69798657718121
 30
0.0
  0
VERTEX
  8
0
 10
48.602139261744966
 20
72.69798657718121
 30
0.0
  0
SEQEND
  8
0
  0
POLYLINE
  8
0
 62
0
 70
1
 66
1
 10
0.0
 20
0.0
 30
0.0
  0
VERTEX
  8
0
 10
50.91065436241611
 20
68.72692953020135
 30
0.0
  0
VERTEX
  8
0
 10
51.89534395973154
 20
72.69798657718121
 30
0.0
  0
VERTEX
  8
0
 10
52.60947986577181
 20
72.69798657718121
 30
0.0
  0
VERTEX
  8
0
 10
53.597315436241615
 20
68.72692953020135
 30
0.0
  0
VERTEX
  8
0
 10
54.582005033557046
 20
72.69798657718121
 30
0.0
  0
VERTEX
  8
0
 10
55.226929530201346
 20
72.69798657718121
 30
0.0
  0
VERTEX
  8
0
 10
54.04718959731544
 20
68.0
 30
0.0
  0
VERTEX
  8
0
 10
53.24811241610738
 20
68.0
 30
0.0
  0
VERTEX
  8
0
 10
52.25713087248322
 20
72.07802013422818
 30
0.0
  0
VERTEX
  8
0
 10
51.256711409395976
 20
68.0
 30
0.0
  0
VERTEX
  8
0
 10
50.45763422818792
 20
68.0
 30
0.0
  0
VERTEX
  8
0
 10
49.28104026845638
 20
72.69798657718121
 30
0.0
  0
VERTEX
  8
0
 10
49.92281879194631
 20
72.69798657718121
 30
0.0
  0
SEQEND
  8
0
  0
POLYLINE
  8
0
 62
0
 70
1
 66
1
 10
0.0
 20
0.0
 30
0.0
  0
VERTEX
  8
0
 10
58.510276845637584
 20
69.63758389261744
 30
0.0
  0
VERTEX
  8
0
 10
59.18036912751678
 20
69.63758389261744
 30
0.0
  0
VERTEX
  8
0
 10
59.18036912751678
 20
69.11409395973155
 30
0.0
  0
VERTEX
  8
0
 10
58.510276845637584
 20
69.11409395973155
 30
0.0
  0
VERTEX
  8
0
 10
58.510276845637584
 20
68.0
 30
0.0
  0
VERTEX
  8
0
 10
57.87793624161074
 20
68.0
 30
0.0
  0
VERTEX
  8
0
 10
57.87793624161074
 20
69.11409395973155
 30
0.0
  0
VERTEX
  8
0
 10
55.75755033557047
 20
69.11409395973155
 30
0.0
  0
VERTEX
  8
0
 10
55.75755033557047
 20
69.72651006711409
 30
0.0
  0
VERTEX
  8
0
 10
57.71119966442953
 20
72.69798657718121
 30
0.0
  0
VERTEX
  8
0
 10
58.510276845637584
 20
72.69798657718121
 30
0.0
  0
SEQEND
  8
0
  0
POLYLINE
  8
0
 62
0
 70
1
 66
1
 10
0.0
 20
0.0
 30
0.0
  0
VERTEX
  8
0
 10
57.87793624161074
 20
69.63758389261744
 30
0.0
  0
VERTEX
  8
0
 10
57.87793624161074
 20
72.14450503355705
 30
0.0
  0
VERTEX
  8
0
 10
56.27348993288591
 20
69.63758389261744
 30
0.0
  0
SEQEND
  8
0
  0
POLYLINE
  8
0
 62
0
 70
1
 66
1
 10
0.0
 20
0.0
 30
0.0
  0
VERTEX
  8
0
 10
62.33368288590604
 20
69.93288590604027
 30
0.0
  0
VERTEX
  8
0
 10
62.33368288590604
 20
70.45637583892618
 30
0.0
  0
VERTEX
  8
0
 10
64.00104865771812
 20
70.45637583892618
 30
0.0
  0
VERTEX
  8
0
 10
64.00104865771812
 20
68.43582214765101
 30
0.0
  0
VERTEX
  8
0
 10
63.18938758389262
 20
68.04005872483222
 30
0.0
  0
VERTEX
  8
0
 10
62.24244966442953
 20
67.90604026845638
 30
0.0
  0
VERTEX
  8
0
 10
60.51992449664429
 20
68.54928691275168
 30
0.0
  0
VERTEX
  8
0
 10
59.89869966442953
 20
70.34081375838926
 30
0.0
  0
VERTEX
  8
0
 10
60.51992449664429
 20
72.13527684563758
 30
0.0
  0
VERTEX
  8
0
 10
62.24244966442953
 20
72.77852348993288
 30
0.0
  0
VERTEX
  8
0
 10
63.115352348993284
 20
72.66610738255034
 30
0.0
  0
VERTEX
  8
0
 10
63.87835570469798
 20
72.33557046979865
 30
0.0
  0
VERTEX
  8
0
 10
63.87835570469798
 20
71.66442953020135
 30
0.0
  0
VERTEX
  8
0
 10
63.12961409395973
 20
72.10654362416108
 30
0.0
  0
VERTEX
  8
0
 10
62.29593120805369
 20
72.25503355704699
 30
0.0
  0
VERTEX
  8
0
 10
61.00125838926174
 20
71.77411912751678
 30
0.0
  0
VERTEX
  8
0
 10
60.56879194630872
 20
70.34081375838926
 30
0.0
  0
VERTEX
  8
0
 10
61.00125838926174
 20
68.91044463087249
 30
0.0
  0
VERTEX
  8
0
 10
62.29593120805369
 20
68.42953020134229
 30
0.0
  0
VERTEX
  8
0
 10
62.89681208053691
 20
68.4878355704698
 30
0.0
  0
VERTEX
  8
0
 10
63.37185402684564
 20
68.66904362416108
 30
0.0
  0
VERTEX
  8
0
 10
63.37185402684564
 20
69.93288590604027
 30
0.0
  0
SEQEND
  8
0
  0
POLYLINE
  8
0
 62
0
 70
1
 66
1
 10
0.0
 20
0.0
 30
0.0
  0
VERTEX
  8
0
 10
68.20155201342281
 20
70.34081375838926
 30
0.0
  0
VERTEX
  8
0
 10
67.78460570469798
 20
68.5304110738255
 30
0.0
  0
VERTEX
  8
0
 10
66.57822986577182
 20
67.90604026845638
 30
0.0
  0
VERTEX
  8
0
 10
65.37164429530202
 20
68.5304110738255
 30
0.0
  0
VERTEX
  8
0
 10
64.95490771812081
 20
70.34081375838926
 30
0.0
  0
VERTEX
  8
0
 10
65.37164429530202
 20
72.15415268456375
 30
0.0
  0
VERTEX
  8
0
 10
66.57822986577182
 20
72.77852348993288
 30
0.0
  0
VERTEX
  8
0
 10
67.78460570469798
 20
72.15415268456375
 30
0.0
  0
SEQEND
  8
0
  0
POLYLINE
  8
0
 62
0
 70
1
 66
1
 10
0.0
 20
0.0
 30
0.0
  0
VERTEX
  8
0
 10
65.59354026845637
 20
70.34081375838926
 30
0.0
  0
VERTEX
  8
0
 10
65.84039429530202
 20
68.89723154362416
 30
0.0
  0
VERTEX
  8
0
 10
66.57822986577182
 20
68.41610738255034
 30
0.0
  0
VERTEX
  8
0
 10
67.31900167785236
 20
68.89723154362416
 30
0.0
  0
VERTEX
  8
0
 10
67.56606543624162
 20
70.34081375838926
 30
0.0
  0
VERTEX
  8
0
 10
67.31900167785236
 20
71.7873322147651
 30
0.0
  0
VERTEX
  8
0
 10
66.57822986577182
 20
72.26845637583892
 30
0.0
  0
VERTEX
  8
0
 10
65.84039429530202
 20
71.7873322147651
 30
0.0
  0
SEQEND
  8
0
  0
POLYLINE
  8
0
 62
0
 70
1
 66
1
 10
0.0
 20
0.0
 30
0.0
  0
VERTEX
  8
0
 10
71.81417785234899
 20
72.16107382550335
 30
0.0
  0
VERTEX
  8
0
 10
69.90142617449663
 20
72.16107382550335
 30
0.0
  0
VERTEX
  8
0
 10
69.90142617449663
 20
71.00587248322148
 30
0.0
  0
VERTEX
  8
0
 10
70.17827181208054
 20
71.07697147651007
 30
0.0
  0
VERTEX
  8
0
 10
70.45511744966443
 20
71.1006711409396
 30
0.0
  0
VERTEX
  8
0
 10
71.70092281879195
 20
70.66988255033557
 30
0.0
  0
VERTEX
  8
0
 10
72.16023489932886
 20
69.50335570469798
 30
0.0
  0
VERTEX
  8
0
 10
71.6883389261745
 20
68.32571308724832
 30
0.0
  0
VERTEX
  8
0
 10
70.35759228187919
 20
67.90604026845638
 30
0.0
  0
VERTEX
  8
0
 10
69.75503355704697
 20
67.95637583892618
 30
0.0
  0
VERTEX
  8
0
 10
69.12122483221476
 20
68.10738255033557
 30
0.0
  0
VERTEX
  8
0
 10
69.12122483221476
 20
68.75167785234899
 30
0.0
  0
VERTEX
  8
0
 10
69.70637583892616
 20
68.51929530201342
 30
0.0
  0
VERTEX
  8
0
 10
70.34500838926175
 20
68.44295302013423
 30
0.0
  0
VERTEX
  8
0
 10
71.20700503355704
 20
68.72839765100672
 30
0.0
  0
VERTEX
  8
0
 10
71.52474832214764
 20
69.50335570469798
 30
0.0
  0
VERTEX
  8
0
 10
71.20700503355704
 20
70.27831375838926
 30
0.0
  0
VERTEX
  8
0
 10
70.34500838926175
 20
70.56375838926175
 30
0.0
  0
VERTEX
  8
0
 10
69.8368288590604
 20
70.50817953020135
 30
0.0
  0
VERTEX
  8
0
 10
69.3194211409396
 20
70.33557046979865
 30
0.0
  0
VERTEX
  8
0
 10
69.3194211409396
 20
72.69798657718121
 30
0.0
  0
VERTEX
  8
0
 10
71.81417785234899
 20
72.69798657718121
 30
0.0
  0
SEQEND
  8
0
  0
ENDBLK
  0
ENDSEC
  0
SECTION
  2
ENTITIES
  0
POLYLINE
  8
0
 62
0
 70
1
 66
1
 10
0.0
 20
0.0
 30
0.0
  0
VERTEX
  8
0
 10
0.0
 20
0.0
 30
0.0
  0
VERTEX
  8
0
 10
150.0
 20
0.0
 30
0.0
  0
VERTEX
  8
0
 10
150.0
 20
32.0
 30
0.0
  0
VERTEX
  8
0
 10
35.0
 20
32.0
 30
0.0
  0
VERTEX
  8
0
 10
35.0
 20
90.0
 30
0.0
  0
VERTEX
  8
0
 10
0.0
 20
90.0
 30
0.0
  0
SEQEND
  8
0
  0
CIRCLE
  8
0
 62
0
 10
12.0
 20
12.0
 30
0.0
 40
2.6
  0
CIRCLE
  8
0
 62
0
 10
138.0
 20
12.0
 30
0.0
 40
2.6
  0
CIRCLE
  8
0
 62
0
 10
12.0
 20
78.0
 30
0.0
 40
2.6
  0
CIRCLE
  8
0
 62
0
 10
52.0
 20
72.0
 30
0.0
 40
2.0
  0
CIRCLE
  8
0
 62
0
 10
78.0
 20
72.0
 30
0.0
 40
2.0
  0
CIRCLE
  8
0
 62
0
 10
104.0
 20
72.0
 30
0.0
 40
2.0
  0
INSERT
  2
SHAPESTRING
  8
0
 62
0
 10
0.0
 20
0.0
 30
0.0
  0
INSERT
  2
SHAPESTRING001
  8
0
 62
0
 10
0.0
 20
0.0
 30
0.0
  0
ENDSEC
  0
EOF
