999
FreeCAD v1.1 20260725 (Git shallow)
  0
SECTION
  2
HEADER
  9
$ACADVER
  1
AC1014
  9
$ACADMAINTVER
 70
     9
  9
$DWGCODEPAGE
  3
ANSI_1252
  9
$TEXTSTYLE
  7
STANDARD
  9
$DIMSTYLE
  2
STANDARD
  9
$DIMTXSTY
  7
STANDARD
  9
$CMLSTYLE
  2
STANDARD
  9
$LUNITS
 70
2
  9
$INSUNITS
 70
4
  9
$PEXTMAX
 10
50
 20
50
 30
50
  9
$PEXTMIN
 10
0
 20
0
 30
0
  9
$HANDSEED
  5
FFFF
  0
ENDSEC
  0
SECTION
  2
CLASSES
  0
CLASS
  1
ACDBDICTIONARYWDFLT
  2
AcDbDictionaryWithDefault
  3
ObjectDBX Classes
 90
        0
280
     0
281
     0
  0
CLASS
  1
XRECORD
  2
AcDbXrecord
  3
ObjectDBX Classes
 90
        0
280
     0
281
     0
  0
CLASS
  1
LWPOLYLINE
  2
AcDbPolyline
  3
ObjectDBX Classes
 90
        0
280
     0
281
     1
  0
ENDSEC
  0
SECTION
  2
TABLES
  0
TABLE
  2
VPORT
  5
20
330
0
100
AcDbSymbolTable
 70
     1
  0
VPORT
  5
21
330
20
100
AcDbSymbolTableRecord
100
AcDbViewportTableRecord
  2
*ACTIVE
 70
     0
  0
ENDTAB
  0
TABLE
  2
LTYPE
  5
22
330
0
100
AcDbSymbolTable
 70
     1
  0
LTYPE
  5
23
330
21
100
AcDbSymbolTableRecord
100
AcDbLinetypeTableRecord
  2
BYBLOCK
 70
     0
  3

 72
    65
 73
     0
 40
0.0
  0
LTYPE
  5
24
330
21
100
AcDbSymbolTableRecord
100
AcDbLinetypeTableRecord
  2
BYLAYER
 70
     0
  3

 72
    65
 73
     0
 40
0.0
  0
LTYPE
  5
25
330
21
100
AcDbSymbolTableRecord
100
AcDbLinetypeTableRecord
  2
CONTINUOUS
 70
     0
  3
Solid line
 72
    65
 73
     0
 40
0.0
  0
ENDTAB
  0
TABLE
  2
LAYER
  5
AA2
330
0
100
AcDbSymbolTable
 70
7
  0
LAYER
  5
AA3
330
AA2
100
AcDbSymbolTableRecord
100
AcDbLayerTableRecord
  2
0
 70
   0
 62
   7
  6
CONTINUOUS
  0
LAYER
  5
AA4
330
AA2
100
AcDbSymbolTableRecord
100
AcDbLayerTableRecord
  2
ProjItem
 70
    0
 62
    7
  6
CONTINUOUS
  0
LAYER
  5
AA5
330
AA2
100
AcDbSymbolTableRecord
100
AcDbLayerTableRecord
  2
ProjItem001
 70
    0
 62
    7
  6
CONTINUOUS
  0
LAYER
  5
AA6
330
AA2
100
AcDbSymbolTableRecord
100
AcDbLayerTableRecord
  2
ProjItem002
 70
    0
 62
    7
  6
CONTINUOUS
  0
LAYER
  5
AA7
330
AA2
100
AcDbSymbolTableRecord
100
AcDbLayerTableRecord
  2
DimDia0
 70
    0
 62
    7
  6
CONTINUOUS
  0
LAYER
  5
AA8
330
AA2
100
AcDbSymbolTableRecord
100
AcDbLayerTableRecord
  2
DimDia1
 70
    0
 62
    7
  6
CONTINUOUS
  0
LAYER
  5
AA9
330
AA2
100
AcDbSymbolTableRecord
100
AcDbLayerTableRecord
  2
DimHeight
 70
    0
 62
    7
  6
CONTINUOUS
  0
ENDTAB
  0
TABLE
  2
STYLE
  5
70
330
0
100
AcDbSymbolTable
 70
     2
  0
STYLE
  5
71
330
70
100
AcDbSymbolTableRecord
100
AcDbTextStyleTableRecord
  2
STANDARD
 70
     0
 40
0.0
 41
1.0
 50
0.0
 71
     0
 42
2.5
  3
arial.ttf
  4

  0
STYLE
  5
72
330
70
100
AcDbSymbolTableRecord
100
AcDbTextStyleTableRecord
  2
ANNOTATIVE
 70
     0
 40
0.0
 41
1.0
 50
0.0
 71
     0
 42
2.5
  3
arial.ttf
  4

  0
ENDTAB
  0
TABLE
  2
VIEW
  5
73
330
0
100
AcDbSymbolTable
 70
     0
  0
ENDTAB
  0
TABLE
  2
UCS
  5
74
330
0
100
AcDbSymbolTable
 70
     0
  0
ENDTAB
  0
TABLE
  2
APPID
  5
75
330
0
100
AcDbSymbolTable
 70
     2
  0
APPID
  5
76
330
75
100
AcDbSymbolTableRecord
100
AcDbRegAppTableRecord
  2
ACAD
 70
     0
  0
APPID
  5
77
330
75
100
AcDbSymbolTableRecord
100
AcDbRegAppTableRecord
  2
ACADANNOTATIVE
 70
     0
  0
ENDTAB
  0
TABLE
  2
DIMSTYLE
  5
78
330
0
100
AcDbSymbolTable
 70
     2
  0
DIMSTYLE
105
79
330
78
100
AcDbSymbolTableRecord
100
AcDbDimStyleTableRecord
  2
STANDARD
 70
     0
  3

  4

  5

  6

  7

 40
0.0
 41
2.5
 42
0.625
 43
3.75
 44
1.25
 45
0.0
 46
0.0
 47
0.0
 48
0.0
140
2.5
141
2.5
142
0.0
143
0.03937007874016
144
1.0
145
0.0
146
1.0
147
0.625
 71
     0
 72
     0
 73
     0
 74
     0
 75
     0
 76
     0
 77
     1
 78
     8
170
     0
171
     3
172
     1
173
     0
174
     0
175
     0
176
     0
177
     0
178
     0
270
     2
271
     2
272
     2
273
     2
274
     3
340
71
275
     0
280
     0
281
     0
282
     0
283
     0
284
     8
285
     0
286
     0
287
     3
288
     0
  0
ENDTAB
  0
TABLE
  2
BLOCK_RECORD
  5
A01
330
0
100
AcDbSymbolTable
  70
5
  0
BLOCK_RECORD
  5
A02
330
A01
100
AcDbSymbolTableRecord
100
AcDbBlockTableRecord
  2
*MODEL_SPACE
  0
BLOCK_RECORD
  5
A03
330
A01
100
AcDbSymbolTableRecord
100
AcDbBlockTableRecord
  2
*PAPER_SPACE
  0
BLOCK_RECORD
  5
A89
330
A01
100
AcDbSymbolTableRecord
100
AcDbBlockTableRecord
  2
*DimDia0
  0
BLOCK_RECORD
  5
A91
330
A01
100
AcDbSymbolTableRecord
100
AcDbBlockTableRecord
  2
*DimDia1
  0
BLOCK_RECORD
  5
A99
330
A01
100
AcDbSymbolTableRecord
100
AcDbBlockTableRecord
  2
*DimHeight
  0
ENDTAB
  0
ENDSEC
  0
SECTION
  2
BLOCKS
  0
BLOCK
  5
A04
330
A02
100
AcDbEntity
  8
0
100
AcDbBlockBegin
  2
*MODEL_SPACE
 70
   0
 10
0
 20
0
 30
0
  3
*MODEL_SPACE
  1
 
  0
ENDBLK
  5
A05
330
A02
100
AcDbEntity
  8
0
100
AcDbBlockEnd
  0
BLOCK
  5
A06
330
A03
100
AcDbEntity
 67
1
  8
0
100
AcDbBlockBegin
  2
*PAPER_SPACE
 70
   0
 10
0
 20
0
 30
0
  3
*PAPER_SPACE
  1
 
  0
ENDBLK
  5
A07
330
A03
100
AcDbEntity
 67
    1
  8
0
100
AcDbBlockEnd
  0
BLOCK
  5
A8A
330
A89
100
AcDbEntity
  8
DimDia0
100
AcDbBlockBegin
  2
*DimDia0
 70
   1
 10
0
 20
0
 30
0
  3
*DimDia0
  1
 
  0
LINE
  5
A8B
330
A89
100
AcDbEntity
  8
DimDia0
100
AcDbLine
 10
184.17
 20
116.271
 30
0
 11
143.83
 21
86.7288
 31
0
  0
TEXT
  5
A8C
330
A89
100
AcDbEntity
  8
DimDia0
100
AcDbText
 10
201
 20
134.5
 30
0
 40
3.5
  1
⌀100
  7
STANDARD
 72
1
 11
201
 21
134.5
 31
0
100
AcDbText
  0
SOLID
  5
A8D
330
A89
100
AcDbEntity
  8
0
 62
     0
100
AcDbTrace
 10
180.382
 20
112.981
 30
0
 11
179.889
 21
113.653
 31
0
 12
184.17
 22
116.271
 32
0
 13
184.17
 23
116.271
 33
0
  0
SOLID
  5
A8E
330
A89
100
AcDbEntity
  8
0
 62
     0
100
AcDbTrace
 10
148.111
 20
89.3469
 30
0
 11
147.618
 21
90.0192
 31
0
 12
143.83
 22
86.7288
 32
0
 13
143.83
 23
86.7288
 33
0
  0
ENDBLK
  5
A8F
330
A89
100
AcDbEntity
  8
DimDia0
100
AcDbBlockEnd
  0
BLOCK
  5
A92
330
A91
100
AcDbEntity
  8
DimDia1
100
AcDbBlockBegin
  2
*DimDia1
 70
   1
 10
0
 20
0
 30
0
  3
*DimDia1
  1
 
  0
LINE
  5
A93
330
A91
100
AcDbEntity
  8
DimDia1
100
AcDbLine
 10
153.23
 20
89.8802
 30
0
 11
149.314
 21
87.6639
 31
0
  0
TEXT
  5
A94
330
A91
100
AcDbEntity
  8
DimDia1
100
AcDbText
 10
191.522
 20
117.022
 30
0
 40
3.5
  1
⌀9
  7
STANDARD
 72
1
 11
191.522
 21
117.022
 31
0
100
AcDbText
  0
SOLID
  5
A95
330
A91
100
AcDbEntity
  8
0
 62
     0
100
AcDbTrace
 10
149.084
 20
87.055
 30
0
 11
148.674
 21
87.7803
 31
0
 12
153.23
 22
89.8802
 32
0
 13
153.23
 23
89.8802
 33
0
  0
SOLID
  5
A96
330
A91
100
AcDbEntity
  8
0
 62
     0
100
AcDbTrace
 10
153.871
 20
89.7639
 30
0
 11
153.46
 21
90.4891
 31
0
 12
149.314
 22
87.6639
 32
0
 13
149.314
 23
87.6639
 33
0
  0
ENDBLK
  5
A97
330
A91
100
AcDbEntity
  8
DimDia1
100
AcDbBlockEnd
  0
BLOCK
  5
A9A
330
A99
100
AcDbEntity
  8
DimHeight
100
AcDbBlockBegin
  2
*DimHeight
 70
   1
 10
0
 20
0
 30
0
  3
*DimHeight
  1
 
  0
LINE
  5
A9B
330
A99
100
AcDbEntity
  8
DimHeight
100
AcDbLine
 10
152.75
 20
165.5
 30
0
 11
198.494
 21
165.5
 31
0
  0
LINE
  5
A9C
330
A99
100
AcDbEntity
  8
DimHeight
100
AcDbLine
 10
189
 20
144.5
 30
0
 11
198.494
 21
144.5
 31
0
  0
LINE
  5
A9D
330
A99
100
AcDbEntity
  8
DimHeight
100
AcDbLine
 10
198.494
 20
144.5
 30
0
 11
198.494
 21
165.5
 31
0
  0
TEXT
  5
A9E
330
A99
100
AcDbEntity
  8
DimHeight
100
AcDbText
 10
201
 20
155
 30
0
 40
3.5
  1
42
  7
STANDARD
 72
1
 11
198.494
 21
159.326
 31
0
100
AcDbText
  0
SOLID
  5
A9F
330
A99
100
AcDbEntity
  8
0
 62
     0
100
AcDbTrace
 10
198.91
 20
139.5
 30
0
 11
198.077
 21
139.5
 31
0
 12
198.494
 22
144.5
 32
0
 13
198.494
 23
144.5
 33
0
  0
SOLID
  5
AA0
330
A99
100
AcDbEntity
  8
0
 62
     0
100
AcDbTrace
 10
198.91
 20
170.5
 30
0
 11
198.077
 21
170.5
 31
0
 12
198.494
 22
165.5
 32
0
 13
198.494
 23
165.5
 33
0
  0
ENDBLK
  5
AA1
330
A99
100
AcDbEntity
  8
DimHeight
100
AcDbBlockEnd
  0
ENDSEC
  0
SECTION
  2
ENTITIES
  0
SPLINE
  5
A08
330
A02
100
AcDbEntity
  8
ProjItem
100
AcDbSpline
210
0
220
0
230
1
 70
8
 71
1
 72
17
 73
15
 74
0
 40
3.141592654
 40
3.141592654
 40
3.365992129
 40
3.590391604
 40
3.814791079
 40
4.039190555
 40
4.263590030
 40
4.487989505
 40
4.712388980
 40
4.936788456
 40
5.161187931
 40
5.385587406
 40
5.609986881
 40
5.834386357
 40
6.058785832
 40
6.283185307
 40
6.283185307
 10
139.000000000
 20
150.500000000
 30
0.000000000
 10
139.626802195
 20
150.500000000
 30
0.000000000
 10
141.475778302
 20
150.500000000
 30
0.000000000
 10
144.454212938
 20
150.500000000
 30
0.000000000
 10
148.412754954
 20
150.500000000
 30
0.000000000
 10
153.152906522
 20
150.500000000
 30
0.000000000
 10
158.436976651
 20
150.500000000
 30
0.000000000
 10
164.000000000
 20
150.500000000
 30
0.000000000
 10
169.563023349
 20
150.500000000
 30
0.000000000
 10
174.847093478
 20
150.500000000
 30
0.000000000
 10
179.587245046
 20
150.500000000
 30
0.000000000
 10
183.545787062
 20
150.500000000
 30
0.000000000
 10
186.524221698
 20
150.500000000
 30
0.000000000
 10
188.373197805
 20
150.500000000
 30
0.000000000
 10
189.000000000
 20
150.500000000
 30
0.000000000
  0
LINE
  5
A09
330
A02
100
AcDbEntity
  8
ProjItem
100
AcDbLine
 10
189.000000000
 20
144.500000000
 30
0.000000000
 11
189.000000000
 21
150.500000000
 31
0.000000000
  0
SPLINE
  5
A0A
330
A02
100
AcDbEntity
  8
ProjItem
100
AcDbSpline
210
0
220
0
230
1
 70
8
 71
1
 72
17
 73
15
 74
0
 40
3.141592654
 40
3.141592654
 40
3.365992129
 40
3.590391604
 40
3.814791079
 40
4.039190555
 40
4.263590030
 40
4.487989505
 40
4.712388980
 40
4.936788456
 40
5.161187931
 40
5.385587406
 40
5.609986881
 40
5.834386357
 40
6.058785832
 40
6.283185307
 40
6.283185307
 10
139.000000000
 20
144.500000000
 30
0.000000000
 10
139.626802195
 20
144.500000000
 30
0.000000000
 10
141.475778302
 20
144.500000000
 30
0.000000000
 10
144.454212938
 20
144.500000000
 30
0.000000000
 10
148.412754954
 20
144.500000000
 30
0.000000000
 10
153.152906522
 20
144.500000000
 30
0.000000000
 10
158.436976651
 20
144.500000000
 30
0.000000000
 10
164.000000000
 20
144.500000000
 30
0.000000000
 10
169.563023349
 20
144.500000000
 30
0.000000000
 10
174.847093478
 20
144.500000000
 30
0.000000000
 10
179.587245046
 20
144.500000000
 30
0.000000000
 10
183.545787062
 20
144.500000000
 30
0.000000000
 10
186.524221698
 20
144.500000000
 30
0.000000000
 10
188.373197805
 20
144.500000000
 30
0.000000000
 10
189.000000000
 20
144.500000000
 30
0.000000000
  0
SPLINE
  5
A0B
330
A02
100
AcDbEntity
  8
ProjItem
100
AcDbSpline
210
0
220
0
230
1
 70
8
 71
1
 72
17
 73
15
 74
0
 40
3.141592654
 40
3.141592654
 40
3.365992129
 40
3.590391604
 40
3.814791079
 40
4.039190555
 40
4.263590030
 40
4.487989505
 40
4.712388980
 40
4.936788456
 40
5.161187931
 40
5.385587406
 40
5.609986881
 40
5.834386357
 40
6.058785832
 40
6.283185307
 40
6.283185307
 10
152.750000000
 20
165.500000000
 30
0.000000000
 10
153.032060988
 20
165.500000000
 30
0.000000000
 10
153.864100236
 20
165.500000000
 30
0.000000000
 10
155.204395822
 20
165.500000000
 30
0.000000000
 10
156.985739729
 20
165.500000000
 30
0.000000000
 10
159.118807935
 20
165.500000000
 30
0.000000000
 10
161.496639493
 20
165.500000000
 30
0.000000000
 10
164.000000000
 20
165.500000000
 30
0.000000000
 10
166.503360507
 20
165.500000000
 30
0.000000000
 10
168.881192065
 20
165.500000000
 30
0.000000000
 10
171.014260271
 20
165.500000000
 30
0.000000000
 10
172.795604178
 20
165.500000000
 30
0.000000000
 10
174.135899764
 20
165.500000000
 30
0.000000000
 10
174.967939012
 20
165.500000000
 30
0.000000000
 10
175.250000000
 20
165.500000000
 30
0.000000000
  0
LINE
  5
A0C
330
A02
100
AcDbEntity
  8
ProjItem
100
AcDbLine
 10
175.250000000
 20
150.500000000
 30
0.000000000
 11
175.250000000
 21
165.500000000
 31
0.000000000
  0
LINE
  5
A0D
330
A02
100
AcDbEntity
  8
ProjItem
100
AcDbLine
 10
139.000000000
 20
144.500000000
 30
0.000000000
 11
139.000000000
 21
150.500000000
 31
0.000000000
  0
LINE
  5
A0E
330
A02
100
AcDbEntity
  8
ProjItem
100
AcDbLine
 10
152.750000000
 20
150.500000000
 30
0.000000000
 11
152.750000000
 21
165.500000000
 31
0.000000000
  0
SPLINE
  5
A0F
330
A02
100
AcDbEntity
  8
ProjItem
100
AcDbSpline
210
0
220
0
230
1
 70
8
 71
1
 72
17
 73
15
 74
0
 40
0.000000000
 40
0.000000000
 40
0.224399475
 40
0.448798951
 40
0.673198426
 40
0.897597901
 40
1.121997376
 40
1.346396852
 40
1.570796327
 40
1.795195802
 40
2.019595277
 40
2.243994753
 40
2.468394228
 40
2.692793703
 40
2.917193178
 40
3.141592654
 40
3.141592654
 10
189.000000000
 20
150.500000000
 30
0.000000000
 10
188.373197805
 20
150.500000000
 30
0.000000000
 10
186.524221698
 20
150.500000000
 30
0.000000000
 10
183.545787062
 20
150.500000000
 30
0.000000000
 10
179.587245046
 20
150.500000000
 30
0.000000000
 10
174.847093478
 20
150.500000000
 30
0.000000000
 10
169.563023349
 20
150.500000000
 30
0.000000000
 10
164.000000000
 20
150.500000000
 30
0.000000000
 10
158.436976651
 20
150.500000000
 30
0.000000000
 10
153.152906522
 20
150.500000000
 30
0.000000000
 10
148.412754954
 20
150.500000000
 30
0.000000000
 10
144.454212938
 20
150.500000000
 30
0.000000000
 10
141.475778302
 20
150.500000000
 30
0.000000000
 10
139.626802195
 20
150.500000000
 30
0.000000000
 10
139.000000000
 20
150.500000000
 30
0.000000000
  0
SPLINE
  5
A10
330
A02
100
AcDbEntity
  8
ProjItem
100
AcDbSpline
210
0
220
0
230
1
 70
8
 71
1
 72
17
 73
15
 74
0
 40
0.000000000
 40
0.000000000
 40
0.224399475
 40
0.448798951
 40
0.673198426
 40
0.897597901
 40
1.121997376
 40
1.346396852
 40
1.570796327
 40
1.795195802
 40
2.019595277
 40
2.243994753
 40
2.468394228
 40
2.692793703
 40
2.917193178
 40
3.141592654
 40
3.141592654
 10
189.000000000
 20
144.500000000
 30
0.000000000
 10
188.373197805
 20
144.500000000
 30
0.000000000
 10
186.524221698
 20
144.500000000
 30
0.000000000
 10
183.545787062
 20
144.500000000
 30
0.000000000
 10
179.587245046
 20
144.500000000
 30
0.000000000
 10
174.847093478
 20
144.500000000
 30
0.000000000
 10
169.563023349
 20
144.500000000
 30
0.000000000
 10
164.000000000
 20
144.500000000
 30
0.000000000
 10
158.436976651
 20
144.500000000
 30
0.000000000
 10
153.152906522
 20
144.500000000
 30
0.000000000
 10
148.412754954
 20
144.500000000
 30
0.000000000
 10
144.454212938
 20
144.500000000
 30
0.000000000
 10
141.475778302
 20
144.500000000
 30
0.000000000
 10
139.626802195
 20
144.500000000
 30
0.000000000
 10
139.000000000
 20
144.500000000
 30
0.000000000
  0
SPLINE
  5
A11
330
A02
100
AcDbEntity
  8
ProjItem
100
AcDbSpline
210
0
220
0
230
1
 70
8
 71
1
 72
17
 73
15
 74
0
 40
0.000000000
 40
0.000000000
 40
0.224399475
 40
0.448798951
 40
0.673198426
 40
0.897597901
 40
1.121997376
 40
1.346396852
 40
1.570796327
 40
1.795195802
 40
2.019595277
 40
2.243994753
 40
2.468394228
 40
2.692793703
 40
2.917193178
 40
3.141592654
 40
3.141592654
 10
153.522077939
 20
150.500000000
 30
0.000000000
 10
153.465665741
 20
150.500000000
 30
0.000000000
 10
153.299257891
 20
150.500000000
 30
0.000000000
 10
153.031198774
 20
150.500000000
 30
0.000000000
 10
152.674929993
 20
150.500000000
 30
0.000000000
 10
152.248316352
 20
150.500000000
 30
0.000000000
 10
151.772750040
 20
150.500000000
 30
0.000000000
 10
151.272077939
 20
150.500000000
 30
0.000000000
 10
150.771405837
 20
150.500000000
 30
0.000000000
 10
150.295839526
 20
150.500000000
 30
0.000000000
 10
149.869225884
 20
150.500000000
 30
0.000000000
 10
149.512957103
 20
150.500000000
 30
0.000000000
 10
149.244897986
 20
150.500000000
 30
0.000000000
 10
149.078490136
 20
150.500000000
 30
0.000000000
 10
149.022077939
 20
150.500000000
 30
0.000000000
  0
SPLINE
  5
A12
330
A02
100
AcDbEntity
  8
ProjItem
100
AcDbSpline
210
0
220
0
230
1
 70
8
 71
1
 72
17
 73
15
 74
0
 40
3.141592654
 40
3.141592654
 40
3.365992129
 40
3.590391604
 40
3.814791079
 40
4.039190555
 40
4.263590030
 40
4.487989505
 40
4.712388980
 40
4.936788456
 40
5.161187931
 40
5.385587406
 40
5.609986881
 40
5.834386357
 40
6.058785832
 40
6.283185307
 40
6.283185307
 10
149.022077939
 20
150.500000000
 30
0.000000000
 10
149.078490136
 20
150.500000000
 30
0.000000000
 10
149.244897986
 20
150.500000000
 30
0.000000000
 10
149.512957103
 20
150.500000000
 30
0.000000000
 10
149.869225884
 20
150.500000000
 30
0.000000000
 10
150.295839526
 20
150.500000000
 30
0.000000000
 10
150.771405837
 20
150.500000000
 30
0.000000000
 10
151.272077939
 20
150.500000000
 30
0.000000000
 10
151.772750040
 20
150.500000000
 30
0.000000000
 10
152.248316352
 20
150.500000000
 30
0.000000000
 10
152.674929993
 20
150.500000000
 30
0.000000000
 10
153.031198774
 20
150.500000000
 30
0.000000000
 10
153.299257891
 20
150.500000000
 30
0.000000000
 10
153.465665741
 20
150.500000000
 30
0.000000000
 10
153.522077939
 20
150.500000000
 30
0.000000000
  0
SPLINE
  5
A13
330
A02
100
AcDbEntity
  8
ProjItem
100
AcDbSpline
210
0
220
0
230
1
 70
8
 71
1
 72
17
 73
15
 74
0
 40
0.000000000
 40
0.000000000
 40
0.224399475
 40
0.448798951
 40
0.673198426
 40
0.897597901
 40
1.121997376
 40
1.346396852
 40
1.570796327
 40
1.795195802
 40
2.019595277
 40
2.243994753
 40
2.468394228
 40
2.692793703
 40
2.917193178
 40
3.141592654
 40
3.141592654
 10
178.977922061
 20
150.500000000
 30
0.000000000
 10
178.921509864
 20
150.500000000
 30
0.000000000
 10
178.755102014
 20
150.500000000
 30
0.000000000
 10
178.487042897
 20
150.500000000
 30
0.000000000
 10
178.130774116
 20
150.500000000
 30
0.000000000
 10
177.704160474
 20
150.500000000
 30
0.000000000
 10
177.228594163
 20
150.500000000
 30
0.000000000
 10
176.727922061
 20
150.500000000
 30
0.000000000
 10
176.227249960
 20
150.500000000
 30
0.000000000
 10
175.751683648
 20
150.500000000
 30
0.000000000
 10
175.325070007
 20
150.500000000
 30
0.000000000
 10
174.968801226
 20
150.500000000
 30
0.000000000
 10
174.700742109
 20
150.500000000
 30
0.000000000
 10
174.534334259
 20
150.500000000
 30
0.000000000
 10
174.477922061
 20
150.500000000
 30
0.000000000
  0
SPLINE
  5
A14
330
A02
100
AcDbEntity
  8
ProjItem
100
AcDbSpline
210
0
220
0
230
1
 70
8
 71
1
 72
17
 73
15
 74
0
 40
3.141592654
 40
3.141592654
 40
3.365992129
 40
3.590391604
 40
3.814791079
 40
4.039190555
 40
4.263590030
 40
4.487989505
 40
4.712388980
 40
4.936788456
 40
5.161187931
 40
5.385587406
 40
5.609986881
 40
5.834386357
 40
6.058785832
 40
6.283185307
 40
6.283185307
 10
174.477922061
 20
150.500000000
 30
0.000000000
 10
174.534334259
 20
150.500000000
 30
0.000000000
 10
174.700742109
 20
150.500000000
 30
0.000000000
 10
174.968801226
 20
150.500000000
 30
0.000000000
 10
175.325070007
 20
150.500000000
 30
0.000000000
 10
175.751683648
 20
150.500000000
 30
0.000000000
 10
176.227249960
 20
150.500000000
 30
0.000000000
 10
176.727922061
 20
150.500000000
 30
0.000000000
 10
177.228594163
 20
150.500000000
 30
0.000000000
 10
177.704160474
 20
150.500000000
 30
0.000000000
 10
178.130774116
 20
150.500000000
 30
0.000000000
 10
178.487042897
 20
150.500000000
 30
0.000000000
 10
178.755102014
 20
150.500000000
 30
0.000000000
 10
178.921509864
 20
150.500000000
 30
0.000000000
 10
178.977922061
 20
150.500000000
 30
0.000000000
  0
SPLINE
  5
A15
330
A02
100
AcDbEntity
  8
ProjItem
100
AcDbSpline
210
0
220
0
230
1
 70
8
 71
1
 72
17
 73
15
 74
0
 40
0.000000000
 40
0.000000000
 40
0.224399475
 40
0.448798951
 40
0.673198426
 40
0.897597901
 40
1.121997376
 40
1.346396852
 40
1.570796327
 40
1.795195802
 40
2.019595277
 40
2.243994753
 40
2.468394228
 40
2.692793703
 40
2.917193178
 40
3.141592654
 40
3.141592654
 10
153.522077939
 20
150.500000000
 30
0.000000000
 10
153.465665741
 20
150.500000000
 30
0.000000000
 10
153.299257891
 20
150.500000000
 30
0.000000000
 10
153.031198774
 20
150.500000000
 30
0.000000000
 10
152.674929993
 20
150.500000000
 30
0.000000000
 10
152.248316352
 20
150.500000000
 30
0.000000000
 10
151.772750040
 20
150.500000000
 30
0.000000000
 10
151.272077939
 20
150.500000000
 30
0.000000000
 10
150.771405837
 20
150.500000000
 30
0.000000000
 10
150.295839526
 20
150.500000000
 30
0.000000000
 10
149.869225884
 20
150.500000000
 30
0.000000000
 10
149.512957103
 20
150.500000000
 30
0.000000000
 10
149.244897986
 20
150.500000000
 30
0.000000000
 10
149.078490136
 20
150.500000000
 30
0.000000000
 10
149.022077939
 20
150.500000000
 30
0.000000000
  0
SPLINE
  5
A16
330
A02
100
AcDbEntity
  8
ProjItem
100
AcDbSpline
210
0
220
0
230
1
 70
8
 71
1
 72
17
 73
15
 74
0
 40
3.141592654
 40
3.141592654
 40
3.365992129
 40
3.590391604
 40
3.814791079
 40
4.039190555
 40
4.263590030
 40
4.487989505
 40
4.712388980
 40
4.936788456
 40
5.161187931
 40
5.385587406
 40
5.609986881
 40
5.834386357
 40
6.058785832
 40
6.283185307
 40
6.283185307
 10
149.022077939
 20
150.500000000
 30
0.000000000
 10
149.078490136
 20
150.500000000
 30
0.000000000
 10
149.244897986
 20
150.500000000
 30
0.000000000
 10
149.512957103
 20
150.500000000
 30
0.000000000
 10
149.869225884
 20
150.500000000
 30
0.000000000
 10
150.295839526
 20
150.500000000
 30
0.000000000
 10
150.771405837
 20
150.500000000
 30
0.000000000
 10
151.272077939
 20
150.500000000
 30
0.000000000
 10
151.772750040
 20
150.500000000
 30
0.000000000
 10
152.248316352
 20
150.500000000
 30
0.000000000
 10
152.674929993
 20
150.500000000
 30
0.000000000
 10
153.031198774
 20
150.500000000
 30
0.000000000
 10
153.299257891
 20
150.500000000
 30
0.000000000
 10
153.465665741
 20
150.500000000
 30
0.000000000
 10
153.522077939
 20
150.500000000
 30
0.000000000
  0
SPLINE
  5
A17
330
A02
100
AcDbEntity
  8
ProjItem
100
AcDbSpline
210
0
220
0
230
1
 70
8
 71
1
 72
17
 73
15
 74
0
 40
0.000000000
 40
0.000000000
 40
0.224399475
 40
0.448798951
 40
0.673198426
 40
0.897597901
 40
1.121997376
 40
1.346396852
 40
1.570796327
 40
1.795195802
 40
2.019595277
 40
2.243994753
 40
2.468394228
 40
2.692793703
 40
2.917193178
 40
3.141592654
 40
3.141592654
 10
175.250000000
 20
150.500000000
 30
0.000000000
 10
174.967939012
 20
150.500000000
 30
0.000000000
 10
174.135899764
 20
150.500000000
 30
0.000000000
 10
172.795604178
 20
150.500000000
 30
0.000000000
 10
171.014260271
 20
150.500000000
 30
0.000000000
 10
168.881192065
 20
150.500000000
 30
0.000000000
 10
166.503360507
 20
150.500000000
 30
0.000000000
 10
164.000000000
 20
150.500000000
 30
0.000000000
 10
161.496639493
 20
150.500000000
 30
0.000000000
 10
159.118807935
 20
150.500000000
 30
0.000000000
 10
156.985739729
 20
150.500000000
 30
0.000000000
 10
155.204395822
 20
150.500000000
 30
0.000000000
 10
153.864100236
 20
150.500000000
 30
0.000000000
 10
153.032060988
 20
150.500000000
 30
0.000000000
 10
152.750000000
 20
150.500000000
 30
0.000000000
  0
SPLINE
  5
A18
330
A02
100
AcDbEntity
  8
ProjItem
100
AcDbSpline
210
0
220
0
230
1
 70
8
 71
1
 72
17
 73
15
 74
0
 40
3.141592654
 40
3.141592654
 40
3.365992129
 40
3.590391604
 40
3.814791079
 40
4.039190555
 40
4.263590030
 40
4.487989505
 40
4.712388980
 40
4.936788456
 40
5.161187931
 40
5.385587406
 40
5.609986881
 40
5.834386357
 40
6.058785832
 40
6.283185307
 40
6.283185307
 10
152.750000000
 20
150.500000000
 30
0.000000000
 10
153.032060988
 20
150.500000000
 30
0.000000000
 10
153.864100236
 20
150.500000000
 30
0.000000000
 10
155.204395822
 20
150.500000000
 30
0.000000000
 10
156.985739729
 20
150.500000000
 30
0.000000000
 10
159.118807935
 20
150.500000000
 30
0.000000000
 10
161.496639493
 20
150.500000000
 30
0.000000000
 10
164.000000000
 20
150.500000000
 30
0.000000000
 10
166.503360507
 20
150.500000000
 30
0.000000000
 10
168.881192065
 20
150.500000000
 30
0.000000000
 10
171.014260271
 20
150.500000000
 30
0.000000000
 10
172.795604178
 20
150.500000000
 30
0.000000000
 10
174.135899764
 20
150.500000000
 30
0.000000000
 10
174.967939012
 20
150.500000000
 30
0.000000000
 10
175.250000000
 20
150.500000000
 30
0.000000000
  0
SPLINE
  5
A19
330
A02
100
AcDbEntity
  8
ProjItem
100
AcDbSpline
210
0
220
0
230
1
 70
8
 71
1
 72
17
 73
15
 74
0
 40
0.000000000
 40
0.000000000
 40
0.224399475
 40
0.448798951
 40
0.673198426
 40
0.897597901
 40
1.121997376
 40
1.346396852
 40
1.570796327
 40
1.795195802
 40
2.019595277
 40
2.243994753
 40
2.468394228
 40
2.692793703
 40
2.917193178
 40
3.141592654
 40
3.141592654
 10
178.977922061
 20
150.500000000
 30
0.000000000
 10
178.921509864
 20
150.500000000
 30
0.000000000
 10
178.755102014
 20
150.500000000
 30
0.000000000
 10
178.487042897
 20
150.500000000
 30
0.000000000
 10
178.130774116
 20
150.500000000
 30
0.000000000
 10
177.704160474
 20
150.500000000
 30
0.000000000
 10
177.228594163
 20
150.500000000
 30
0.000000000
 10
176.727922061
 20
150.500000000
 30
0.000000000
 10
176.227249960
 20
150.500000000
 30
0.000000000
 10
175.751683648
 20
150.500000000
 30
0.000000000
 10
175.325070007
 20
150.500000000
 30
0.000000000
 10
174.968801226
 20
150.500000000
 30
0.000000000
 10
174.700742109
 20
150.500000000
 30
0.000000000
 10
174.534334259
 20
150.500000000
 30
0.000000000
 10
174.477922061
 20
150.500000000
 30
0.000000000
  0
SPLINE
  5
A1A
330
A02
100
AcDbEntity
  8
ProjItem
100
AcDbSpline
210
0
220
0
230
1
 70
8
 71
1
 72
17
 73
15
 74
0
 40
3.141592654
 40
3.141592654
 40
3.365992129
 40
3.590391604
 40
3.814791079
 40
4.039190555
 40
4.263590030
 40
4.487989505
 40
4.712388980
 40
4.936788456
 40
5.161187931
 40
5.385587406
 40
5.609986881
 40
5.834386357
 40
6.058785832
 40
6.283185307
 40
6.283185307
 10
174.477922061
 20
150.500000000
 30
0.000000000
 10
174.534334259
 20
150.500000000
 30
0.000000000
 10
174.700742109
 20
150.500000000
 30
0.000000000
 10
174.968801226
 20
150.500000000
 30
0.000000000
 10
175.325070007
 20
150.500000000
 30
0.000000000
 10
175.751683648
 20
150.500000000
 30
0.000000000
 10
176.227249960
 20
150.500000000
 30
0.000000000
 10
176.727922061
 20
150.500000000
 30
0.000000000
 10
177.228594163
 20
150.500000000
 30
0.000000000
 10
177.704160474
 20
150.500000000
 30
0.000000000
 10
178.130774116
 20
150.500000000
 30
0.000000000
 10
178.487042897
 20
150.500000000
 30
0.000000000
 10
178.755102014
 20
150.500000000
 30
0.000000000
 10
178.921509864
 20
150.500000000
 30
0.000000000
 10
178.977922061
 20
150.500000000
 30
0.000000000
  0
SPLINE
  5
A1B
330
A02
100
AcDbEntity
  8
ProjItem
100
AcDbSpline
210
0
220
0
230
1
 70
8
 71
1
 72
17
 73
15
 74
0
 40
0.000000000
 40
0.000000000
 40
0.224399475
 40
0.448798951
 40
0.673198426
 40
0.897597901
 40
1.121997376
 40
1.346396852
 40
1.570796327
 40
1.795195802
 40
2.019595277
 40
2.243994753
 40
2.468394228
 40
2.692793703
 40
2.917193178
 40
3.141592654
 40
3.141592654
 10
153.522077939
 20
144.500000000
 30
0.000000000
 10
153.465665741
 20
144.500000000
 30
0.000000000
 10
153.299257891
 20
144.500000000
 30
0.000000000
 10
153.031198774
 20
144.500000000
 30
0.000000000
 10
152.674929993
 20
144.500000000
 30
0.000000000
 10
152.248316352
 20
144.500000000
 30
0.000000000
 10
151.772750040
 20
144.500000000
 30
0.000000000
 10
151.272077939
 20
144.500000000
 30
0.000000000
 10
150.771405837
 20
144.500000000
 30
0.000000000
 10
150.295839526
 20
144.500000000
 30
0.000000000
 10
149.869225884
 20
144.500000000
 30
0.000000000
 10
149.512957103
 20
144.500000000
 30
0.000000000
 10
149.244897986
 20
144.500000000
 30
0.000000000
 10
149.078490136
 20
144.500000000
 30
0.000000000
 10
149.022077939
 20
144.500000000
 30
0.000000000
  0
SPLINE
  5
A1C
330
A02
100
AcDbEntity
  8
ProjItem
100
AcDbSpline
210
0
220
0
230
1
 70
8
 71
1
 72
17
 73
15
 74
0
 40
3.141592654
 40
3.141592654
 40
3.365992129
 40
3.590391604
 40
3.814791079
 40
4.039190555
 40
4.263590030
 40
4.487989505
 40
4.712388980
 40
4.936788456
 40
5.161187931
 40
5.385587406
 40
5.609986881
 40
5.834386357
 40
6.058785832
 40
6.283185307
 40
6.283185307
 10
149.022077939
 20
144.500000000
 30
0.000000000
 10
149.078490136
 20
144.500000000
 30
0.000000000
 10
149.244897986
 20
144.500000000
 30
0.000000000
 10
149.512957103
 20
144.500000000
 30
0.000000000
 10
149.869225884
 20
144.500000000
 30
0.000000000
 10
150.295839526
 20
144.500000000
 30
0.000000000
 10
150.771405837
 20
144.500000000
 30
0.000000000
 10
151.272077939
 20
144.500000000
 30
0.000000000
 10
151.772750040
 20
144.500000000
 30
0.000000000
 10
152.248316352
 20
144.500000000
 30
0.000000000
 10
152.674929993
 20
144.500000000
 30
0.000000000
 10
153.031198774
 20
144.500000000
 30
0.000000000
 10
153.299257891
 20
144.500000000
 30
0.000000000
 10
153.465665741
 20
144.500000000
 30
0.000000000
 10
153.522077939
 20
144.500000000
 30
0.000000000
  0
SPLINE
  5
A1D
330
A02
100
AcDbEntity
  8
ProjItem
100
AcDbSpline
210
0
220
0
230
1
 70
8
 71
1
 72
17
 73
15
 74
0
 40
0.000000000
 40
0.000000000
 40
0.224399475
 40
0.448798951
 40
0.673198426
 40
0.897597901
 40
1.121997376
 40
1.346396852
 40
1.570796327
 40
1.795195802
 40
2.019595277
 40
2.243994753
 40
2.468394228
 40
2.692793703
 40
2.917193178
 40
3.141592654
 40
3.141592654
 10
178.977922061
 20
144.500000000
 30
0.000000000
 10
178.921509864
 20
144.500000000
 30
0.000000000
 10
178.755102014
 20
144.500000000
 30
0.000000000
 10
178.487042897
 20
144.500000000
 30
0.000000000
 10
178.130774116
 20
144.500000000
 30
0.000000000
 10
177.704160474
 20
144.500000000
 30
0.000000000
 10
177.228594163
 20
144.500000000
 30
0.000000000
 10
176.727922061
 20
144.500000000
 30
0.000000000
 10
176.227249960
 20
144.500000000
 30
0.000000000
 10
175.751683648
 20
144.500000000
 30
0.000000000
 10
175.325070007
 20
144.500000000
 30
0.000000000
 10
174.968801226
 20
144.500000000
 30
0.000000000
 10
174.700742109
 20
144.500000000
 30
0.000000000
 10
174.534334259
 20
144.500000000
 30
0.000000000
 10
174.477922061
 20
144.500000000
 30
0.000000000
  0
SPLINE
  5
A1E
330
A02
100
AcDbEntity
  8
ProjItem
100
AcDbSpline
210
0
220
0
230
1
 70
8
 71
1
 72
17
 73
15
 74
0
 40
3.141592654
 40
3.141592654
 40
3.365992129
 40
3.590391604
 40
3.814791079
 40
4.039190555
 40
4.263590030
 40
4.487989505
 40
4.712388980
 40
4.936788456
 40
5.161187931
 40
5.385587406
 40
5.609986881
 40
5.834386357
 40
6.058785832
 40
6.283185307
 40
6.283185307
 10
174.477922061
 20
144.500000000
 30
0.000000000
 10
174.534334259
 20
144.500000000
 30
0.000000000
 10
174.700742109
 20
144.500000000
 30
0.000000000
 10
174.968801226
 20
144.500000000
 30
0.000000000
 10
175.325070007
 20
144.500000000
 30
0.000000000
 10
175.751683648
 20
144.500000000
 30
0.000000000
 10
176.227249960
 20
144.500000000
 30
0.000000000
 10
176.727922061
 20
144.500000000
 30
0.000000000
 10
177.228594163
 20
144.500000000
 30
0.000000000
 10
177.704160474
 20
144.500000000
 30
0.000000000
 10
178.130774116
 20
144.500000000
 30
0.000000000
 10
178.487042897
 20
144.500000000
 30
0.000000000
 10
178.755102014
 20
144.500000000
 30
0.000000000
 10
178.921509864
 20
144.500000000
 30
0.000000000
 10
178.977922061
 20
144.500000000
 30
0.000000000
  0
SPLINE
  5
A1F
330
A02
100
AcDbEntity
  8
ProjItem
100
AcDbSpline
210
0
220
0
230
1
 70
8
 71
1
 72
17
 73
15
 74
0
 40
0.000000000
 40
0.000000000
 40
0.224399475
 40
0.448798951
 40
0.673198426
 40
0.897597901
 40
1.121997376
 40
1.346396852
 40
1.570796327
 40
1.795195802
 40
2.019595277
 40
2.243994753
 40
2.468394228
 40
2.692793703
 40
2.917193178
 40
3.141592654
 40
3.141592654
 10
153.522077939
 20
144.500000000
 30
0.000000000
 10
153.465665741
 20
144.500000000
 30
0.000000000
 10
153.299257891
 20
144.500000000
 30
0.000000000
 10
153.031198774
 20
144.500000000
 30
0.000000000
 10
152.674929993
 20
144.500000000
 30
0.000000000
 10
152.248316352
 20
144.500000000
 30
0.000000000
 10
151.772750040
 20
144.500000000
 30
0.000000000
 10
151.272077939
 20
144.500000000
 30
0.000000000
 10
150.771405837
 20
144.500000000
 30
0.000000000
 10
150.295839526
 20
144.500000000
 30
0.000000000
 10
149.869225884
 20
144.500000000
 30
0.000000000
 10
149.512957103
 20
144.500000000
 30
0.000000000
 10
149.244897986
 20
144.500000000
 30
0.000000000
 10
149.078490136
 20
144.500000000
 30
0.000000000
 10
149.022077939
 20
144.500000000
 30
0.000000000
  0
SPLINE
  5
A20
330
A02
100
AcDbEntity
  8
ProjItem
100
AcDbSpline
210
0
220
0
230
1
 70
8
 71
1
 72
17
 73
15
 74
0
 40
3.141592654
 40
3.141592654
 40
3.365992129
 40
3.590391604
 40
3.814791079
 40
4.039190555
 40
4.263590030
 40
4.487989505
 40
4.712388980
 40
4.936788456
 40
5.161187931
 40
5.385587406
 40
5.609986881
 40
5.834386357
 40
6.058785832
 40
6.283185307
 40
6.283185307
 10
149.022077939
 20
144.500000000
 30
0.000000000
 10
149.078490136
 20
144.500000000
 30
0.000000000
 10
149.244897986
 20
144.500000000
 30
0.000000000
 10
149.512957103
 20
144.500000000
 30
0.000000000
 10
149.869225884
 20
144.500000000
 30
0.000000000
 10
150.295839526
 20
144.500000000
 30
0.000000000
 10
150.771405837
 20
144.500000000
 30
0.000000000
 10
151.272077939
 20
144.500000000
 30
0.000000000
 10
151.772750040
 20
144.500000000
 30
0.000000000
 10
152.248316352
 20
144.500000000
 30
0.000000000
 10
152.674929993
 20
144.500000000
 30
0.000000000
 10
153.031198774
 20
144.500000000
 30
0.000000000
 10
153.299257891
 20
144.500000000
 30
0.000000000
 10
153.465665741
 20
144.500000000
 30
0.000000000
 10
153.522077939
 20
144.500000000
 30
0.000000000
  0
SPLINE
  5
A21
330
A02
100
AcDbEntity
  8
ProjItem
100
AcDbSpline
210
0
220
0
230
1
 70
8
 71
1
 72
17
 73
15
 74
0
 40
0.000000000
 40
0.000000000
 40
0.224399475
 40
0.448798951
 40
0.673198426
 40
0.897597901
 40
1.121997376
 40
1.346396852
 40
1.570796327
 40
1.795195802
 40
2.019595277
 40
2.243994753
 40
2.468394228
 40
2.692793703
 40
2.917193178
 40
3.141592654
 40
3.141592654
 10
170.000000000
 20
144.500000000
 30
0.000000000
 10
169.849567473
 20
144.500000000
 30
0.000000000
 10
169.405813207
 20
144.500000000
 30
0.000000000
 10
168.690988895
 20
144.500000000
 30
0.000000000
 10
167.740938811
 20
144.500000000
 30
0.000000000
 10
166.603302435
 20
144.500000000
 30
0.000000000
 10
165.335125604
 20
144.500000000
 30
0.000000000
 10
164.000000000
 20
144.500000000
 30
0.000000000
 10
162.664874396
 20
144.500000000
 30
0.000000000
 10
161.396697565
 20
144.500000000
 30
0.000000000
 10
160.259061189
 20
144.500000000
 30
0.000000000
 10
159.309011105
 20
144.500000000
 30
0.000000000
 10
158.594186793
 20
144.500000000
 30
0.000000000
 10
158.150432527
 20
144.500000000
 30
0.000000000
 10
158.000000000
 20
144.500000000
 30
0.000000000
  0
SPLINE
  5
A22
330
A02
100
AcDbEntity
  8
ProjItem
100
AcDbSpline
210
0
220
0
230
1
 70
8
 71
1
 72
17
 73
15
 74
0
 40
3.141592654
 40
3.141592654
 40
3.365992129
 40
3.590391604
 40
3.814791079
 40
4.039190555
 40
4.263590030
 40
4.487989505
 40
4.712388980
 40
4.936788456
 40
5.161187931
 40
5.385587406
 40
5.609986881
 40
5.834386357
 40
6.058785832
 40
6.283185307
 40
6.283185307
 10
158.000000000
 20
144.500000000
 30
0.000000000
 10
158.150432527
 20
144.500000000
 30
0.000000000
 10
158.594186793
 20
144.500000000
 30
0.000000000
 10
159.309011105
 20
144.500000000
 30
0.000000000
 10
160.259061189
 20
144.500000000
 30
0.000000000
 10
161.396697565
 20
144.500000000
 30
0.000000000
 10
162.664874396
 20
144.500000000
 30
0.000000000
 10
164.000000000
 20
144.500000000
 30
0.000000000
 10
165.335125604
 20
144.500000000
 30
0.000000000
 10
166.603302435
 20
144.500000000
 30
0.000000000
 10
167.740938811
 20
144.500000000
 30
0.000000000
 10
168.690988895
 20
144.500000000
 30
0.000000000
 10
169.405813207
 20
144.500000000
 30
0.000000000
 10
169.849567473
 20
144.500000000
 30
0.000000000
 10
170.000000000
 20
144.500000000
 30
0.000000000
  0
SPLINE
  5
A23
330
A02
100
AcDbEntity
  8
ProjItem
100
AcDbSpline
210
0
220
0
230
1
 70
8
 71
1
 72
17
 73
15
 74
0
 40
0.000000000
 40
0.000000000
 40
0.224399475
 40
0.448798951
 40
0.673198426
 40
0.897597901
 40
1.121997376
 40
1.346396852
 40
1.570796327
 40
1.795195802
 40
2.019595277
 40
2.243994753
 40
2.468394228
 40
2.692793703
 40
2.917193178
 40
3.141592654
 40
3.141592654
 10
178.977922061
 20
144.500000000
 30
0.000000000
 10
178.921509864
 20
144.500000000
 30
0.000000000
 10
178.755102014
 20
144.500000000
 30
0.000000000
 10
178.487042897
 20
144.500000000
 30
0.000000000
 10
178.130774116
 20
144.500000000
 30
0.000000000
 10
177.704160474
 20
144.500000000
 30
0.000000000
 10
177.228594163
 20
144.500000000
 30
0.000000000
 10
176.727922061
 20
144.500000000
 30
0.000000000
 10
176.227249960
 20
144.500000000
 30
0.000000000
 10
175.751683648
 20
144.500000000
 30
0.000000000
 10
175.325070007
 20
144.500000000
 30
0.000000000
 10
174.968801226
 20
144.500000000
 30
0.000000000
 10
174.700742109
 20
144.500000000
 30
0.000000000
 10
174.534334259
 20
144.500000000
 30
0.000000000
 10
174.477922061
 20
144.500000000
 30
0.000000000
  0
SPLINE
  5
A24
330
A02
100
AcDbEntity
  8
ProjItem
100
AcDbSpline
210
0
220
0
230
1
 70
8
 71
1
 72
17
 73
15
 74
0
 40
3.141592654
 40
3.141592654
 40
3.365992129
 40
3.590391604
 40
3.814791079
 40
4.039190555
 40
4.263590030
 40
4.487989505
 40
4.712388980
 40
4.936788456
 40
5.161187931
 40
5.385587406
 40
5.609986881
 40
5.834386357
 40
6.058785832
 40
6.283185307
 40
6.283185307
 10
174.477922061
 20
144.500000000
 30
0.000000000
 10
174.534334259
 20
144.500000000
 30
0.000000000
 10
174.700742109
 20
144.500000000
 30
0.000000000
 10
174.968801226
 20
144.500000000
 30
0.000000000
 10
175.325070007
 20
144.500000000
 30
0.000000000
 10
175.751683648
 20
144.500000000
 30
0.000000000
 10
176.227249960
 20
144.500000000
 30
0.000000000
 10
176.727922061
 20
144.500000000
 30
0.000000000
 10
177.228594163
 20
144.500000000
 30
0.000000000
 10
177.704160474
 20
144.500000000
 30
0.000000000
 10
178.130774116
 20
144.500000000
 30
0.000000000
 10
178.487042897
 20
144.500000000
 30
0.000000000
 10
178.755102014
 20
144.500000000
 30
0.000000000
 10
178.921509864
 20
144.500000000
 30
0.000000000
 10
178.977922061
 20
144.500000000
 30
0.000000000
  0
LINE
  5
A25
330
A02
100
AcDbEntity
  8
ProjItem
100
AcDbLine
 10
153.522077939
 20
144.500000000
 30
0.000000000
 11
153.522077939
 21
150.500000000
 31
0.000000000
  0
LINE
  5
A26
330
A02
100
AcDbEntity
  8
ProjItem
100
AcDbLine
 10
178.977922061
 20
144.500000000
 30
0.000000000
 11
178.977922061
 21
150.500000000
 31
0.000000000
  0
LINE
  5
A27
330
A02
100
AcDbEntity
  8
ProjItem
100
AcDbLine
 10
153.522077939
 20
144.500000000
 30
0.000000000
 11
153.522077939
 21
150.500000000
 31
0.000000000
  0
SPLINE
  5
A28
330
A02
100
AcDbEntity
  8
ProjItem
100
AcDbSpline
210
0
220
0
230
1
 70
8
 71
1
 72
17
 73
15
 74
0
 40
0.000000000
 40
0.000000000
 40
0.224399475
 40
0.448798951
 40
0.673198426
 40
0.897597901
 40
1.121997376
 40
1.346396852
 40
1.570796327
 40
1.795195802
 40
2.019595277
 40
2.243994753
 40
2.468394228
 40
2.692793703
 40
2.917193178
 40
3.141592654
 40
3.141592654
 10
175.250000000
 20
165.500000000
 30
0.000000000
 10
174.967939012
 20
165.500000000
 30
0.000000000
 10
174.135899764
 20
165.500000000
 30
0.000000000
 10
172.795604178
 20
165.500000000
 30
0.000000000
 10
171.014260271
 20
165.500000000
 30
0.000000000
 10
168.881192065
 20
165.500000000
 30
0.000000000
 10
166.503360507
 20
165.500000000
 30
0.000000000
 10
164.000000000
 20
165.500000000
 30
0.000000000
 10
161.496639493
 20
165.500000000
 30
0.000000000
 10
159.118807935
 20
165.500000000
 30
0.000000000
 10
156.985739729
 20
165.500000000
 30
0.000000000
 10
155.204395822
 20
165.500000000
 30
0.000000000
 10
153.864100236
 20
165.500000000
 30
0.000000000
 10
153.032060988
 20
165.500000000
 30
0.000000000
 10
152.750000000
 20
165.500000000
 30
0.000000000
  0
LINE
  5
A29
330
A02
100
AcDbEntity
  8
ProjItem
100
AcDbLine
 10
178.977922061
 20
144.500000000
 30
0.000000000
 11
178.977922061
 21
150.500000000
 31
0.000000000
  0
SPLINE
  5
A2A
330
A02
100
AcDbEntity
  8
ProjItem
100
AcDbSpline
210
0
220
0
230
1
 70
8
 71
1
 72
17
 73
15
 74
0
 40
0.000000000
 40
0.000000000
 40
0.224399475
 40
0.448798951
 40
0.673198426
 40
0.897597901
 40
1.121997376
 40
1.346396852
 40
1.570796327
 40
1.795195802
 40
2.019595277
 40
2.243994753
 40
2.468394228
 40
2.692793703
 40
2.917193178
 40
3.141592654
 40
3.141592654
 10
170.000000000
 20
165.500000000
 30
0.000000000
 10
169.849567473
 20
165.500000000
 30
0.000000000
 10
169.405813207
 20
165.500000000
 30
0.000000000
 10
168.690988895
 20
165.500000000
 30
0.000000000
 10
167.740938811
 20
165.500000000
 30
0.000000000
 10
166.603302435
 20
165.500000000
 30
0.000000000
 10
165.335125604
 20
165.500000000
 30
0.000000000
 10
164.000000000
 20
165.500000000
 30
0.000000000
 10
162.664874396
 20
165.500000000
 30
0.000000000
 10
161.396697565
 20
165.500000000
 30
0.000000000
 10
160.259061189
 20
165.500000000
 30
0.000000000
 10
159.309011105
 20
165.500000000
 30
0.000000000
 10
158.594186793
 20
165.500000000
 30
0.000000000
 10
158.150432527
 20
165.500000000
 30
0.000000000
 10
158.000000000
 20
165.500000000
 30
0.000000000
  0
SPLINE
  5
A2B
330
A02
100
AcDbEntity
  8
ProjItem
100
AcDbSpline
210
0
220
0
230
1
 70
8
 71
1
 72
17
 73
15
 74
0
 40
3.141592654
 40
3.141592654
 40
3.365992129
 40
3.590391604
 40
3.814791079
 40
4.039190555
 40
4.263590030
 40
4.487989505
 40
4.712388980
 40
4.936788456
 40
5.161187931
 40
5.385587406
 40
5.609986881
 40
5.834386357
 40
6.058785832
 40
6.283185307
 40
6.283185307
 10
158.000000000
 20
165.500000000
 30
0.000000000
 10
158.150432527
 20
165.500000000
 30
0.000000000
 10
158.594186793
 20
165.500000000
 30
0.000000000
 10
159.309011105
 20
165.500000000
 30
0.000000000
 10
160.259061189
 20
165.500000000
 30
0.000000000
 10
161.396697565
 20
165.500000000
 30
0.000000000
 10
162.664874396
 20
165.500000000
 30
0.000000000
 10
164.000000000
 20
165.500000000
 30
0.000000000
 10
165.335125604
 20
165.500000000
 30
0.000000000
 10
166.603302435
 20
165.500000000
 30
0.000000000
 10
167.740938811
 20
165.500000000
 30
0.000000000
 10
168.690988895
 20
165.500000000
 30
0.000000000
 10
169.405813207
 20
165.500000000
 30
0.000000000
 10
169.849567473
 20
165.500000000
 30
0.000000000
 10
170.000000000
 20
165.500000000
 30
0.000000000
  0
LINE
  5
A2C
330
A02
100
AcDbEntity
  8
ProjItem
100
AcDbLine
 10
170.000000000
 20
144.500000000
 30
0.000000000
 11
170.000000000
 21
165.500000000
 31
0.000000000
  0
LINE
  5
A2D
330
A02
100
AcDbEntity
  8
ProjItem
100
AcDbLine
 10
149.022077939
 20
144.500000000
 30
0.000000000
 11
149.022077939
 21
150.500000000
 31
0.000000000
  0
LINE
  5
A2E
330
A02
100
AcDbEntity
  8
ProjItem
100
AcDbLine
 10
174.477922061
 20
144.500000000
 30
0.000000000
 11
174.477922061
 21
150.500000000
 31
0.000000000
  0
LINE
  5
A2F
330
A02
100
AcDbEntity
  8
ProjItem
100
AcDbLine
 10
149.022077939
 20
144.500000000
 30
0.000000000
 11
149.022077939
 21
150.500000000
 31
0.000000000
  0
LINE
  5
A30
330
A02
100
AcDbEntity
  8
ProjItem
100
AcDbLine
 10
174.477922061
 20
144.500000000
 30
0.000000000
 11
174.477922061
 21
150.500000000
 31
0.000000000
  0
LINE
  5
A31
330
A02
100
AcDbEntity
  8
ProjItem
100
AcDbLine
 10
158.000000000
 20
144.500000000
 30
0.000000000
 11
158.000000000
 21
165.500000000
 31
0.000000000
  0
LINE
  5
A32
330
A02
100
AcDbEntity
  8
ProjItem
100
AcDbLine
 10
164.000000000
 20
144.000000000
 30
0.000000000
 11
164.000000000
 21
166.000000000
 31
0.000000000
  0
LINE
  5
A33
330
A02
100
AcDbEntity
  8
ProjItem
100
AcDbLine
 10
151.272000000
 20
144.000000000
 30
0.000000000
 11
151.272000000
 21
151.000000000
 31
0.000000000
  0
LINE
  5
A34
330
A02
100
AcDbEntity
  8
ProjItem
100
AcDbLine
 10
176.728000000
 20
144.000000000
 30
0.000000000
 11
176.728000000
 21
151.000000000
 31
0.000000000
  0
CIRCLE
  5
A35
330
A02
100
AcDbEntity
  8
ProjItem001
100
AcDbCircle
 10
164.000000000
 20
101.500000000
 30
0.000000000
 40
25.000000000
  0
CIRCLE
  5
A36
330
A02
100
AcDbEntity
  8
ProjItem001
100
AcDbCircle
 10
151.272077939
 20
88.772077939
 30
0.000000000
 40
2.250000000
  0
CIRCLE
  5
A37
330
A02
100
AcDbEntity
  8
ProjItem001
100
AcDbCircle
 10
176.727922061
 20
88.772077939
 30
0.000000000
 40
2.250000000
  0
CIRCLE
  5
A38
330
A02
100
AcDbEntity
  8
ProjItem001
100
AcDbCircle
 10
151.272077939
 20
114.227922061
 30
0.000000000
 40
2.250000000
  0
CIRCLE
  5
A39
330
A02
100
AcDbEntity
  8
ProjItem001
100
AcDbCircle
 10
176.727922061
 20
114.227922061
 30
0.000000000
 40
2.250000000
  0
CIRCLE
  5
A3A
330
A02
100
AcDbEntity
  8
ProjItem001
100
AcDbCircle
 10
164.000000000
 20
101.500000000
 30
0.000000000
 40
11.250000000
  0
CIRCLE
  5
A3B
330
A02
100
AcDbEntity
  8
ProjItem001
100
AcDbCircle
 10
164.000000000
 20
101.500000000
 30
0.000000000
 40
6.000000000
  0
CIRCLE
  5
A3C
330
A02
100
AcDbEntity
  8
ProjItem001
100
AcDbCircle
 10
164.000000000
 20
101.500000000
 30
0.000000000
 40
25.000000000
  0
CIRCLE
  5
A3D
330
A02
100
AcDbEntity
  8
ProjItem001
100
AcDbCircle
 10
164.000000000
 20
101.500000000
 30
0.000000000
 40
11.250000000
  0
CIRCLE
  5
A3E
330
A02
100
AcDbEntity
  8
ProjItem001
100
AcDbCircle
 10
151.272077939
 20
88.772077939
 30
0.000000000
 40
2.250000000
  0
CIRCLE
  5
A3F
330
A02
100
AcDbEntity
  8
ProjItem001
100
AcDbCircle
 10
176.727922061
 20
88.772077939
 30
0.000000000
 40
2.250000000
  0
CIRCLE
  5
A40
330
A02
100
AcDbEntity
  8
ProjItem001
100
AcDbCircle
 10
151.272077939
 20
114.227922061
 30
0.000000000
 40
2.250000000
  0
CIRCLE
  5
A41
330
A02
100
AcDbEntity
  8
ProjItem001
100
AcDbCircle
 10
164.000000000
 20
101.500000000
 30
0.000000000
 40
6.000000000
  0
CIRCLE
  5
A42
330
A02
100
AcDbEntity
  8
ProjItem001
100
AcDbCircle
 10
176.727922061
 20
114.227922061
 30
0.000000000
 40
2.250000000
  0
LINE
  5
A43
330
A02
100
AcDbEntity
  8
ProjItem001
100
AcDbLine
 10
148.459600000
 20
88.772100000
 30
0.000000000
 11
154.084600000
 21
88.772100000
 31
0.000000000
  0
LINE
  5
A44
330
A02
100
AcDbEntity
  8
ProjItem001
100
AcDbLine
 10
151.272100000
 20
85.959600000
 30
0.000000000
 11
151.272100000
 21
91.584600000
 31
0.000000000
  0
LINE
  5
A45
330
A02
100
AcDbEntity
  8
ProjItem001
100
AcDbLine
 10
148.459600000
 20
114.227900000
 30
0.000000000
 11
154.084600000
 21
114.227900000
 31
0.000000000
  0
LINE
  5
A46
330
A02
100
AcDbEntity
  8
ProjItem001
100
AcDbLine
 10
151.272100000
 20
111.415400000
 30
0.000000000
 11
151.272100000
 21
117.040400000
 31
0.000000000
  0
LINE
  5
A47
330
A02
100
AcDbEntity
  8
ProjItem001
100
AcDbLine
 10
137.500000000
 20
101.500000000
 30
0.000000000
 11
190.500000000
 21
101.500000000
 31
0.000000000
  0
LINE
  5
A48
330
A02
100
AcDbEntity
  8
ProjItem001
100
AcDbLine
 10
164.000000000
 20
75.000000000
 30
0.000000000
 11
164.000000000
 21
128.000000000
 31
0.000000000
  0
LINE
  5
A49
330
A02
100
AcDbEntity
  8
ProjItem001
100
AcDbLine
 10
173.915400000
 20
88.772100000
 30
0.000000000
 11
179.540400000
 21
88.772100000
 31
0.000000000
  0
LINE
  5
A4A
330
A02
100
AcDbEntity
  8
ProjItem001
100
AcDbLine
 10
176.727900000
 20
85.959600000
 30
0.000000000
 11
176.727900000
 21
91.584600000
 31
0.000000000
  0
LINE
  5
A4B
330
A02
100
AcDbEntity
  8
ProjItem001
100
AcDbLine
 10
173.915400000
 20
114.227900000
 30
0.000000000
 11
179.540400000
 21
114.227900000
 31
0.000000000
  0
LINE
  5
A4C
330
A02
100
AcDbEntity
  8
ProjItem001
100
AcDbLine
 10
176.727900000
 20
111.415400000
 30
0.000000000
 11
176.727900000
 21
117.040400000
 31
0.000000000
  0
SPLINE
  5
A4D
330
A02
100
AcDbEntity
  8
ProjItem002
100
AcDbSpline
210
0
220
0
230
1
 70
8
 71
1
 72
17
 73
15
 74
0
 40
0.000000000
 40
0.000000000
 40
0.112199738
 40
0.224399475
 40
0.336599213
 40
0.448798951
 40
0.560998688
 40
0.673198426
 40
0.785398163
 40
0.897597901
 40
1.009797639
 40
1.121997376
 40
1.234197114
 40
1.346396852
 40
1.458596589
 40
1.570796327
 40
1.570796327
 10
96.000000000
 20
150.500000000
 30
0.000000000
 10
98.799111903
 20
150.500000000
 30
0.000000000
 10
101.563023349
 20
150.500000000
 30
0.000000000
 10
104.256976549
 20
150.500000000
 30
0.000000000
 10
106.847093478
 20
150.500000000
 30
0.000000000
 10
109.300801913
 20
150.500000000
 30
0.000000000
 10
111.587245046
 20
150.500000000
 30
0.000000000
 10
113.677669530
 20
150.500000000
 30
0.000000000
 10
115.545787062
 20
150.500000000
 30
0.000000000
 10
117.168104981
 20
150.500000000
 30
0.000000000
 10
118.524221698
 20
150.500000000
 30
0.000000000
 10
119.597083258
 20
150.500000000
 30
0.000000000
 10
120.373197805
 20
150.500000000
 30
0.000000000
 10
120.842805247
 20
150.500000000
 30
0.000000000
 10
121.000000000
 20
150.500000000
 30
0.000000000
  0
SPLINE
  5
A4E
330
A02
100
AcDbEntity
  8
ProjItem002
100
AcDbSpline
210
0
220
0
230
1
 70
8
 71
1
 72
17
 73
15
 74
0
 40
4.712388980
 40
4.712388980
 40
4.824588718
 40
4.936788456
 40
5.048988193
 40
5.161187931
 40
5.273387669
 40
5.385587406
 40
5.497787144
 40
5.609986881
 40
5.722186619
 40
5.834386357
 40
5.946586094
 40
6.058785832
 40
6.170985570
 40
6.283185307
 40
6.283185307
 10
71.000000000
 20
150.500000000
 30
0.000000000
 10
71.157194753
 20
150.500000000
 30
0.000000000
 10
71.626802195
 20
150.500000000
 30
0.000000000
 10
72.402916742
 20
150.500000000
 30
0.000000000
 10
73.475778302
 20
150.500000000
 30
0.000000000
 10
74.831895019
 20
150.500000000
 30
0.000000000
 10
76.454212938
 20
150.500000000
 30
0.000000000
 10
78.322330470
 20
150.500000000
 30
0.000000000
 10
80.412754954
 20
150.500000000
 30
0.000000000
 10
82.699198087
 20
150.500000000
 30
0.000000000
 10
85.152906522
 20
150.500000000
 30
0.000000000
 10
87.743023451
 20
150.500000000
 30
0.000000000
 10
90.436976651
 20
150.500000000
 30
0.000000000
 10
93.200888097
 20
150.500000000
 30
0.000000000
 10
96.000000000
 20
150.500000000
 30
0.000000000
  0
SPLINE
  5
A4F
330
A02
100
AcDbEntity
  8
ProjItem002
100
AcDbSpline
210
0
220
0
230
1
 70
8
 71
1
 72
17
 73
15
 74
0
 40
0.000000000
 40
0.000000000
 40
0.112199738
 40
0.224399475
 40
0.336599213
 40
0.448798951
 40
0.560998688
 40
0.673198426
 40
0.785398163
 40
0.897597901
 40
1.009797639
 40
1.121997376
 40
1.234197114
 40
1.346396852
 40
1.458596589
 40
1.570796327
 40
1.570796327
 10
96.000000000
 20
144.500000000
 30
0.000000000
 10
98.799111903
 20
144.500000000
 30
0.000000000
 10
101.563023349
 20
144.500000000
 30
0.000000000
 10
104.256976549
 20
144.500000000
 30
0.000000000
 10
106.847093478
 20
144.500000000
 30
0.000000000
 10
109.300801913
 20
144.500000000
 30
0.000000000
 10
111.587245046
 20
144.500000000
 30
0.000000000
 10
113.677669530
 20
144.500000000
 30
0.000000000
 10
115.545787062
 20
144.500000000
 30
0.000000000
 10
117.168104981
 20
144.500000000
 30
0.000000000
 10
118.524221698
 20
144.500000000
 30
0.000000000
 10
119.597083258
 20
144.500000000
 30
0.000000000
 10
120.373197805
 20
144.500000000
 30
0.000000000
 10
120.842805247
 20
144.500000000
 30
0.000000000
 10
121.000000000
 20
144.500000000
 30
0.000000000
  0
SPLINE
  5
A50
330
A02
100
AcDbEntity
  8
ProjItem002
100
AcDbSpline
210
0
220
0
230
1
 70
8
 71
1
 72
17
 73
15
 74
0
 40
4.712388980
 40
4.712388980
 40
4.824588718
 40
4.936788456
 40
5.048988193
 40
5.161187931
 40
5.273387669
 40
5.385587406
 40
5.497787144
 40
5.609986881
 40
5.722186619
 40
5.834386357
 40
5.946586094
 40
6.058785832
 40
6.170985570
 40
6.283185307
 40
6.283185307
 10
71.000000000
 20
144.500000000
 30
0.000000000
 10
71.157194753
 20
144.500000000
 30
0.000000000
 10
71.626802195
 20
144.500000000
 30
0.000000000
 10
72.402916742
 20
144.500000000
 30
0.000000000
 10
73.475778302
 20
144.500000000
 30
0.000000000
 10
74.831895019
 20
144.500000000
 30
0.000000000
 10
76.454212938
 20
144.500000000
 30
0.000000000
 10
78.322330470
 20
144.500000000
 30
0.000000000
 10
80.412754954
 20
144.500000000
 30
0.000000000
 10
82.699198087
 20
144.500000000
 30
0.000000000
 10
85.152906522
 20
144.500000000
 30
0.000000000
 10
87.743023451
 20
144.500000000
 30
0.000000000
 10
90.436976651
 20
144.500000000
 30
0.000000000
 10
93.200888097
 20
144.500000000
 30
0.000000000
 10
96.000000000
 20
144.500000000
 30
0.000000000
  0
SPLINE
  5
A51
330
A02
100
AcDbEntity
  8
ProjItem002
100
AcDbSpline
210
0
220
0
230
1
 70
8
 71
1
 72
17
 73
15
 74
0
 40
0.000000000
 40
0.000000000
 40
0.112199738
 40
0.224399475
 40
0.336599213
 40
0.448798951
 40
0.560998688
 40
0.673198426
 40
0.785398163
 40
0.897597901
 40
1.009797639
 40
1.121997376
 40
1.234197114
 40
1.346396852
 40
1.458596589
 40
1.570796327
 40
1.570796327
 10
96.000000000
 20
165.500000000
 30
0.000000000
 10
97.259600356
 20
165.500000000
 30
0.000000000
 10
98.503360507
 20
165.500000000
 30
0.000000000
 10
99.715639447
 20
165.500000000
 30
0.000000000
 10
100.881192065
 20
165.500000000
 30
0.000000000
 10
101.985360861
 20
165.500000000
 30
0.000000000
 10
103.014260271
 20
165.500000000
 30
0.000000000
 10
103.954951288
 20
165.500000000
 30
0.000000000
 10
104.795604178
 20
165.500000000
 30
0.000000000
 10
105.525647241
 20
165.500000000
 30
0.000000000
 10
106.135899764
 20
165.500000000
 30
0.000000000
 10
106.618687466
 20
165.500000000
 30
0.000000000
 10
106.967939012
 20
165.500000000
 30
0.000000000
 10
107.179262361
 20
165.500000000
 30
0.000000000
 10
107.250000000
 20
165.500000000
 30
0.000000000
  0
SPLINE
  5
A52
330
A02
100
AcDbEntity
  8
ProjItem002
100
AcDbSpline
210
0
220
0
230
1
 70
8
 71
1
 72
17
 73
15
 74
0
 40
4.712388980
 40
4.712388980
 40
4.824588718
 40
4.936788456
 40
5.048988193
 40
5.161187931
 40
5.273387669
 40
5.385587406
 40
5.497787144
 40
5.609986881
 40
5.722186619
 40
5.834386357
 40
5.946586094
 40
6.058785832
 40
6.170985570
 40
6.283185307
 40
6.283185307
 10
84.750000000
 20
165.500000000
 30
0.000000000
 10
84.820737639
 20
165.500000000
 30
0.000000000
 10
85.032060988
 20
165.500000000
 30
0.000000000
 10
85.381312534
 20
165.500000000
 30
0.000000000
 10
85.864100236
 20
165.500000000
 30
0.000000000
 10
86.474352759
 20
165.500000000
 30
0.000000000
 10
87.204395822
 20
165.500000000
 30
0.000000000
 10
88.045048712
 20
165.500000000
 30
0.000000000
 10
88.985739729
 20
165.500000000
 30
0.000000000
 10
90.014639139
 20
165.500000000
 30
0.000000000
 10
91.118807935
 20
165.500000000
 30
0.000000000
 10
92.284360553
 20
165.500000000
 30
0.000000000
 10
93.496639493
 20
165.500000000
 30
0.000000000
 10
94.740399644
 20
165.500000000
 30
0.000000000
 10
96.000000000
 20
165.500000000
 30
0.000000000
  0
LINE
  5
A53
330
A02
100
AcDbEntity
  8
ProjItem002
100
AcDbLine
 10
121.000000000
 20
144.500000000
 30
0.000000000
 11
121.000000000
 21
150.500000000
 31
0.000000000
  0
LINE
  5
A54
330
A02
100
AcDbEntity
  8
ProjItem002
100
AcDbLine
 10
71.000000000
 20
144.500000000
 30
0.000000000
 11
71.000000000
 21
150.500000000
 31
0.000000000
  0
LINE
  5
A55
330
A02
100
AcDbEntity
  8
ProjItem002
100
AcDbLine
 10
107.250000000
 20
150.500000000
 30
0.000000000
 11
107.250000000
 21
165.500000000
 31
0.000000000
  0
LINE
  5
A56
330
A02
100
AcDbEntity
  8
ProjItem002
100
AcDbLine
 10
84.750000000
 20
150.500000000
 30
0.000000000
 11
84.750000000
 21
165.500000000
 31
0.000000000
  0
SPLINE
  5
A57
330
A02
100
AcDbEntity
  8
ProjItem002
100
AcDbSpline
210
0
220
0
230
1
 70
8
 71
1
 72
17
 73
15
 74
0
 40
1.570796327
 40
1.570796327
 40
1.795195802
 40
2.019595277
 40
2.243994753
 40
2.468394228
 40
2.692793703
 40
2.917193178
 40
3.141592654
 40
3.365992129
 40
3.590391604
 40
3.814791079
 40
4.039190555
 40
4.263590030
 40
4.487989505
 40
4.712388980
 40
4.712388980
 10
121.000000000
 20
150.500000000
 30
0.000000000
 10
120.373197805
 20
150.500000000
 30
0.000000000
 10
118.524221698
 20
150.500000000
 30
0.000000000
 10
115.545787062
 20
150.500000000
 30
0.000000000
 10
111.587245046
 20
150.500000000
 30
0.000000000
 10
106.847093478
 20
150.500000000
 30
0.000000000
 10
101.563023349
 20
150.500000000
 30
0.000000000
 10
96.000000000
 20
150.500000000
 30
0.000000000
 10
90.436976651
 20
150.500000000
 30
0.000000000
 10
85.152906522
 20
150.500000000
 30
0.000000000
 10
80.412754954
 20
150.500000000
 30
0.000000000
 10
76.454212938
 20
150.500000000
 30
0.000000000
 10
73.475778302
 20
150.500000000
 30
0.000000000
 10
71.626802195
 20
150.500000000
 30
0.000000000
 10
71.000000000
 20
150.500000000
 30
0.000000000
  0
SPLINE
  5
A58
330
A02
100
AcDbEntity
  8
ProjItem002
100
AcDbSpline
210
0
220
0
230
1
 70
8
 71
1
 72
17
 73
15
 74
0
 40
1.570796327
 40
1.570796327
 40
1.795195802
 40
2.019595277
 40
2.243994753
 40
2.468394228
 40
2.692793703
 40
2.917193178
 40
3.141592654
 40
3.365992129
 40
3.590391604
 40
3.814791079
 40
4.039190555
 40
4.263590030
 40
4.487989505
 40
4.712388980
 40
4.712388980
 10
121.000000000
 20
144.500000000
 30
0.000000000
 10
120.373197805
 20
144.500000000
 30
0.000000000
 10
118.524221698
 20
144.500000000
 30
0.000000000
 10
115.545787062
 20
144.500000000
 30
0.000000000
 10
111.587245046
 20
144.500000000
 30
0.000000000
 10
106.847093478
 20
144.500000000
 30
0.000000000
 10
101.563023349
 20
144.500000000
 30
0.000000000
 10
96.000000000
 20
144.500000000
 30
0.000000000
 10
90.436976651
 20
144.500000000
 30
0.000000000
 10
85.152906522
 20
144.500000000
 30
0.000000000
 10
80.412754954
 20
144.500000000
 30
0.000000000
 10
76.454212938
 20
144.500000000
 30
0.000000000
 10
73.475778302
 20
144.500000000
 30
0.000000000
 10
71.626802195
 20
144.500000000
 30
0.000000000
 10
71.000000000
 20
144.500000000
 30
0.000000000
  0
SPLINE
  5
A59
330
A02
100
AcDbEntity
  8
ProjItem002
100
AcDbSpline
210
0
220
0
230
1
 70
8
 71
2
 72
30
 73
27
 74
0
 40
0.000000000
 40
0.000000000
 40
0.000000000
 40
0.112199738
 40
0.112199738
 40
0.336599213
 40
0.336599213
 40
0.448798951
 40
0.448798951
 40
0.560998688
 40
0.560998688
 40
0.673198426
 40
0.673198426
 40
0.785398163
 40
0.785398163
 40
0.897597901
 40
0.897597901
 40
1.009797639
 40
1.009797639
 40
1.121997376
 40
1.121997376
 40
1.234197114
 40
1.234197114
 40
1.346396852
 40
1.346396852
 40
1.458596589
 40
1.458596589
 40
1.570796327
 40
1.570796327
 40
1.570796327
 10
83.272077939
 20
150.500000000
 30
0.000000000
 10
83.398037974
 20
150.500000000
 30
0.000000000
 10
83.523998010
 20
150.500000000
 30
0.000000000
 10
83.774515625
 20
150.500000000
 30
0.000000000
 10
84.015205828
 20
150.500000000
 30
0.000000000
 10
84.131761090
 20
150.500000000
 30
0.000000000
 10
84.248316352
 20
150.500000000
 30
0.000000000
 10
84.358733231
 20
150.500000000
 30
0.000000000
 10
84.469150111
 20
150.500000000
 30
0.000000000
 10
84.572040052
 20
150.500000000
 30
0.000000000
 10
84.674929993
 20
150.500000000
 30
0.000000000
 10
84.768999095
 20
150.500000000
 30
0.000000000
 10
84.863068196
 20
150.500000000
 30
0.000000000
 10
84.947133485
 20
150.500000000
 30
0.000000000
 10
85.031198774
 20
150.500000000
 30
0.000000000
 10
85.104203081
 20
150.500000000
 30
0.000000000
 10
85.177207387
 20
150.500000000
 30
0.000000000
 10
85.238232639
 20
150.500000000
 30
0.000000000
 10
85.299257891
 20
150.500000000
 30
0.000000000
 10
85.347536662
 20
150.500000000
 30
0.000000000
 10
85.395815432
 20
150.500000000
 30
0.000000000
 10
85.430740586
 20
150.500000000
 30
0.000000000
 10
85.465665741
 20
150.500000000
 30
0.000000000
 10
85.486798076
 20
150.500000000
 30
0.000000000
 10
85.507930411
 20
150.500000000
 30
0.000000000
 10
85.515004175
 20
150.500000000
 30
0.000000000
 10
85.522077939
 20
150.500000000
 30
0.000000000
  0
SPLINE
  5
A5A
330
A02
100
AcDbEntity
  8
ProjItem002
100
AcDbSpline
210
0
220
0
230
1
 70
8
 71
1
 72
17
 73
15
 74
0
 40
1.570796327
 40
1.570796327
 40
1.795195802
 40
2.019595277
 40
2.243994753
 40
2.468394228
 40
2.692793703
 40
2.917193178
 40
3.141592654
 40
3.365992129
 40
3.590391604
 40
3.814791079
 40
4.039190555
 40
4.263590030
 40
4.487989505
 40
4.712388980
 40
4.712388980
 10
85.522077939
 20
150.500000000
 30
0.000000000
 10
85.465665741
 20
150.500000000
 30
0.000000000
 10
85.299257891
 20
150.500000000
 30
0.000000000
 10
85.031198774
 20
150.500000000
 30
0.000000000
 10
84.674929993
 20
150.500000000
 30
0.000000000
 10
84.248316352
 20
150.500000000
 30
0.000000000
 10
83.772750040
 20
150.500000000
 30
0.000000000
 10
83.272077939
 20
150.500000000
 30
0.000000000
 10
82.771405837
 20
150.500000000
 30
0.000000000
 10
82.295839526
 20
150.500000000
 30
0.000000000
 10
81.869225884
 20
150.500000000
 30
0.000000000
 10
81.512957103
 20
150.500000000
 30
0.000000000
 10
81.244897986
 20
150.500000000
 30
0.000000000
 10
81.078490136
 20
150.500000000
 30
0.000000000
 10
81.022077939
 20
150.500000000
 30
0.000000000
  0
SPLINE
  5
A5B
330
A02
100
AcDbEntity
  8
ProjItem002
100
AcDbSpline
210
0
220
0
230
1
 70
8
 71
2
 72
30
 73
27
 74
0
 40
4.712388980
 40
4.712388980
 40
4.712388980
 40
4.824588718
 40
4.824588718
 40
4.936788456
 40
4.936788456
 40
5.048988193
 40
5.048988193
 40
5.161187931
 40
5.161187931
 40
5.273387669
 40
5.273387669
 40
5.385587406
 40
5.385587406
 40
5.497787144
 40
5.497787144
 40
5.609986881
 40
5.609986881
 40
5.722186619
 40
5.722186619
 40
5.834386357
 40
5.834386357
 40
5.946586094
 40
5.946586094
 40
6.058785832
 40
6.058785832
 40
6.283185307
 40
6.283185307
 40
6.283185307
 10
81.022077939
 20
150.500000000
 30
0.000000000
 10
81.029151703
 20
150.500000000
 30
0.000000000
 10
81.036225466
 20
150.500000000
 30
0.000000000
 10
81.057357801
 20
150.500000000
 30
0.000000000
 10
81.078490136
 20
150.500000000
 30
0.000000000
 10
81.113415291
 20
150.500000000
 30
0.000000000
 10
81.148340445
 20
150.500000000
 30
0.000000000
 10
81.196619216
 20
150.500000000
 30
0.000000000
 10
81.244897986
 20
150.500000000
 30
0.000000000
 10
81.305923238
 20
150.500000000
 30
0.000000000
 10
81.366948490
 20
150.500000000
 30
0.000000000
 10
81.439952797
 20
150.500000000
 30
0.000000000
 10
81.512957103
 20
150.500000000
 30
0.000000000
 10
81.597022392
 20
150.500000000
 30
0.000000000
 10
81.681087681
 20
150.500000000
 30
0.000000000
 10
81.775156783
 20
150.500000000
 30
0.000000000
 10
81.869225884
 20
150.500000000
 30
0.000000000
 10
81.972115825
 20
150.500000000
 30
0.000000000
 10
82.075005766
 20
150.500000000
 30
0.000000000
 10
82.185422646
 20
150.500000000
 30
0.000000000
 10
82.295839526
 20
150.500000000
 30
0.000000000
 10
82.412394787
 20
150.500000000
 30
0.000000000
 10
82.528950049
 20
150.500000000
 30
0.000000000
 10
82.650177943
 20
150.500000000
 30
0.000000000
 10
82.771405837
 20
150.500000000
 30
0.000000000
 10
83.019269489
 20
150.500000000
 30
0.000000000
 10
83.272077939
 20
150.500000000
 30
0.000000000
  0
SPLINE
  5
A5C
330
A02
100
AcDbEntity
  8
ProjItem002
100
AcDbSpline
210
0
220
0
230
1
 70
8
 71
2
 72
30
 73
27
 74
0
 40
0.000000000
 40
0.000000000
 40
0.000000000
 40
0.112199738
 40
0.112199738
 40
0.336599213
 40
0.336599213
 40
0.448798951
 40
0.448798951
 40
0.560998688
 40
0.560998688
 40
0.673198426
 40
0.673198426
 40
0.785398163
 40
0.785398163
 40
0.897597901
 40
0.897597901
 40
1.009797639
 40
1.009797639
 40
1.121997376
 40
1.121997376
 40
1.234197114
 40
1.234197114
 40
1.346396852
 40
1.346396852
 40
1.458596589
 40
1.458596589
 40
1.570796327
 40
1.570796327
 40
1.570796327
 10
83.272077939
 20
150.500000000
 30
0.000000000
 10
83.398037974
 20
150.500000000
 30
0.000000000
 10
83.523998010
 20
150.500000000
 30
0.000000000
 10
83.774515625
 20
150.500000000
 30
0.000000000
 10
84.015205828
 20
150.500000000
 30
0.000000000
 10
84.131761090
 20
150.500000000
 30
0.000000000
 10
84.248316352
 20
150.500000000
 30
0.000000000
 10
84.358733231
 20
150.500000000
 30
0.000000000
 10
84.469150111
 20
150.500000000
 30
0.000000000
 10
84.572040052
 20
150.500000000
 30
0.000000000
 10
84.674929993
 20
150.500000000
 30
0.000000000
 10
84.768999095
 20
150.500000000
 30
0.000000000
 10
84.863068196
 20
150.500000000
 30
0.000000000
 10
84.947133485
 20
150.500000000
 30
0.000000000
 10
85.031198774
 20
150.500000000
 30
0.000000000
 10
85.104203081
 20
150.500000000
 30
0.000000000
 10
85.177207387
 20
150.500000000
 30
0.000000000
 10
85.238232639
 20
150.500000000
 30
0.000000000
 10
85.299257891
 20
150.500000000
 30
0.000000000
 10
85.347536662
 20
150.500000000
 30
0.000000000
 10
85.395815432
 20
150.500000000
 30
0.000000000
 10
85.430740586
 20
150.500000000
 30
0.000000000
 10
85.465665741
 20
150.500000000
 30
0.000000000
 10
85.486798076
 20
150.500000000
 30
0.000000000
 10
85.507930411
 20
150.500000000
 30
0.000000000
 10
85.515004175
 20
150.500000000
 30
0.000000000
 10
85.522077939
 20
150.500000000
 30
0.000000000
  0
SPLINE
  5
A5D
330
A02
100
AcDbEntity
  8
ProjItem002
100
AcDbSpline
210
0
220
0
230
1
 70
8
 71
1
 72
17
 73
15
 74
0
 40
1.570796327
 40
1.570796327
 40
1.795195802
 40
2.019595277
 40
2.243994753
 40
2.468394228
 40
2.692793703
 40
2.917193178
 40
3.141592654
 40
3.365992129
 40
3.590391604
 40
3.814791079
 40
4.039190555
 40
4.263590030
 40
4.487989505
 40
4.712388980
 40
4.712388980
 10
85.522077939
 20
150.500000000
 30
0.000000000
 10
85.465665741
 20
150.500000000
 30
0.000000000
 10
85.299257891
 20
150.500000000
 30
0.000000000
 10
85.031198774
 20
150.500000000
 30
0.000000000
 10
84.674929993
 20
150.500000000
 30
0.000000000
 10
84.248316352
 20
150.500000000
 30
0.000000000
 10
83.772750040
 20
150.500000000
 30
0.000000000
 10
83.272077939
 20
150.500000000
 30
0.000000000
 10
82.771405837
 20
150.500000000
 30
0.000000000
 10
82.295839526
 20
150.500000000
 30
0.000000000
 10
81.869225884
 20
150.500000000
 30
0.000000000
 10
81.512957103
 20
150.500000000
 30
0.000000000
 10
81.244897986
 20
150.500000000
 30
0.000000000
 10
81.078490136
 20
150.500000000
 30
0.000000000
 10
81.022077939
 20
150.500000000
 30
0.000000000
  0
SPLINE
  5
A5E
330
A02
100
AcDbEntity
  8
ProjItem002
100
AcDbSpline
210
0
220
0
230
1
 70
8
 71
2
 72
30
 73
27
 74
0
 40
4.712388980
 40
4.712388980
 40
4.712388980
 40
4.824588718
 40
4.824588718
 40
4.936788456
 40
4.936788456
 40
5.048988193
 40
5.048988193
 40
5.161187931
 40
5.161187931
 40
5.273387669
 40
5.273387669
 40
5.385587406
 40
5.385587406
 40
5.497787144
 40
5.497787144
 40
5.609986881
 40
5.609986881
 40
5.722186619
 40
5.722186619
 40
5.834386357
 40
5.834386357
 40
5.946586094
 40
5.946586094
 40
6.058785832
 40
6.058785832
 40
6.283185307
 40
6.283185307
 40
6.283185307
 10
81.022077939
 20
150.500000000
 30
0.000000000
 10
81.029151703
 20
150.500000000
 30
0.000000000
 10
81.036225466
 20
150.500000000
 30
0.000000000
 10
81.057357801
 20
150.500000000
 30
0.000000000
 10
81.078490136
 20
150.500000000
 30
0.000000000
 10
81.113415291
 20
150.500000000
 30
0.000000000
 10
81.148340445
 20
150.500000000
 30
0.000000000
 10
81.196619216
 20
150.500000000
 30
0.000000000
 10
81.244897986
 20
150.500000000
 30
0.000000000
 10
81.305923238
 20
150.500000000
 30
0.000000000
 10
81.366948490
 20
150.500000000
 30
0.000000000
 10
81.439952797
 20
150.500000000
 30
0.000000000
 10
81.512957103
 20
150.500000000
 30
0.000000000
 10
81.597022392
 20
150.500000000
 30
0.000000000
 10
81.681087681
 20
150.500000000
 30
0.000000000
 10
81.775156783
 20
150.500000000
 30
0.000000000
 10
81.869225884
 20
150.500000000
 30
0.000000000
 10
81.972115825
 20
150.500000000
 30
0.000000000
 10
82.075005766
 20
150.500000000
 30
0.000000000
 10
82.185422646
 20
150.500000000
 30
0.000000000
 10
82.295839526
 20
150.500000000
 30
0.000000000
 10
82.412394787
 20
150.500000000
 30
0.000000000
 10
82.528950049
 20
150.500000000
 30
0.000000000
 10
82.650177943
 20
150.500000000
 30
0.000000000
 10
82.771405837
 20
150.500000000
 30
0.000000000
 10
83.019269489
 20
150.500000000
 30
0.000000000
 10
83.272077939
 20
150.500000000
 30
0.000000000
  0
SPLINE
  5
A5F
330
A02
100
AcDbEntity
  8
ProjItem002
100
AcDbSpline
210
0
220
0
230
1
 70
8
 71
2
 72
30
 73
27
 74
0
 40
0.000000000
 40
0.000000000
 40
0.000000000
 40
0.112199738
 40
0.112199738
 40
0.336599213
 40
0.336599213
 40
0.448798951
 40
0.448798951
 40
0.560998688
 40
0.560998688
 40
0.673198426
 40
0.673198426
 40
0.785398163
 40
0.785398163
 40
0.897597901
 40
0.897597901
 40
1.009797639
 40
1.009797639
 40
1.121997376
 40
1.121997376
 40
1.234197114
 40
1.234197114
 40
1.346396852
 40
1.346396852
 40
1.458596589
 40
1.458596589
 40
1.570796327
 40
1.570796327
 40
1.570796327
 10
108.727922061
 20
150.500000000
 30
0.000000000
 10
108.853882097
 20
150.500000000
 30
0.000000000
 10
108.979842133
 20
150.500000000
 30
0.000000000
 10
109.230359747
 20
150.500000000
 30
0.000000000
 10
109.471049951
 20
150.500000000
 30
0.000000000
 10
109.587605213
 20
150.500000000
 30
0.000000000
 10
109.704160474
 20
150.500000000
 30
0.000000000
 10
109.814577354
 20
150.500000000
 30
0.000000000
 10
109.924994234
 20
150.500000000
 30
0.000000000
 10
110.027884175
 20
150.500000000
 30
0.000000000
 10
110.130774116
 20
150.500000000
 30
0.000000000
 10
110.224843217
 20
150.500000000
 30
0.000000000
 10
110.318912319
 20
150.500000000
 30
0.000000000
 10
110.402977608
 20
150.500000000
 30
0.000000000
 10
110.487042897
 20
150.500000000
 30
0.000000000
 10
110.560047203
 20
150.500000000
 30
0.000000000
 10
110.633051510
 20
150.500000000
 30
0.000000000
 10
110.694076762
 20
150.500000000
 30
0.000000000
 10
110.755102014
 20
150.500000000
 30
0.000000000
 10
110.803380784
 20
150.500000000
 30
0.000000000
 10
110.851659555
 20
150.500000000
 30
0.000000000
 10
110.886584709
 20
150.500000000
 30
0.000000000
 10
110.921509864
 20
150.500000000
 30
0.000000000
 10
110.942642199
 20
150.500000000
 30
0.000000000
 10
110.963774534
 20
150.500000000
 30
0.000000000
 10
110.970848297
 20
150.500000000
 30
0.000000000
 10
110.977922061
 20
150.500000000
 30
0.000000000
  0
SPLINE
  5
A60
330
A02
100
AcDbEntity
  8
ProjItem002
100
AcDbSpline
210
0
220
0
230
1
 70
8
 71
1
 72
17
 73
15
 74
0
 40
1.570796327
 40
1.570796327
 40
1.795195802
 40
2.019595277
 40
2.243994753
 40
2.468394228
 40
2.692793703
 40
2.917193178
 40
3.141592654
 40
3.365992129
 40
3.590391604
 40
3.814791079
 40
4.039190555
 40
4.263590030
 40
4.487989505
 40
4.712388980
 40
4.712388980
 10
110.977922061
 20
150.500000000
 30
0.000000000
 10
110.921509864
 20
150.500000000
 30
0.000000000
 10
110.755102014
 20
150.500000000
 30
0.000000000
 10
110.487042897
 20
150.500000000
 30
0.000000000
 10
110.130774116
 20
150.500000000
 30
0.000000000
 10
109.704160474
 20
150.500000000
 30
0.000000000
 10
109.228594163
 20
150.500000000
 30
0.000000000
 10
108.727922061
 20
150.500000000
 30
0.000000000
 10
108.227249960
 20
150.500000000
 30
0.000000000
 10
107.751683648
 20
150.500000000
 30
0.000000000
 10
107.325070007
 20
150.500000000
 30
0.000000000
 10
106.968801226
 20
150.500000000
 30
0.000000000
 10
106.700742109
 20
150.500000000
 30
0.000000000
 10
106.534334259
 20
150.500000000
 30
0.000000000
 10
106.477922061
 20
150.500000000
 30
0.000000000
  0
SPLINE
  5
A61
330
A02
100
AcDbEntity
  8
ProjItem002
100
AcDbSpline
210
0
220
0
230
1
 70
8
 71
2
 72
30
 73
27
 74
0
 40
4.712388980
 40
4.712388980
 40
4.712388980
 40
4.824588718
 40
4.824588718
 40
4.936788456
 40
4.936788456
 40
5.048988193
 40
5.048988193
 40
5.161187931
 40
5.161187931
 40
5.273387669
 40
5.273387669
 40
5.385587406
 40
5.385587406
 40
5.497787144
 40
5.497787144
 40
5.609986881
 40
5.609986881
 40
5.722186619
 40
5.722186619
 40
5.834386357
 40
5.834386357
 40
5.946586094
 40
5.946586094
 40
6.058785832
 40
6.058785832
 40
6.283185307
 40
6.283185307
 40
6.283185307
 10
106.477922061
 20
150.500000000
 30
0.000000000
 10
106.484995825
 20
150.500000000
 30
0.000000000
 10
106.492069589
 20
150.500000000
 30
0.000000000
 10
106.513201924
 20
150.500000000
 30
0.000000000
 10
106.534334259
 20
150.500000000
 30
0.000000000
 10
106.569259414
 20
150.500000000
 30
0.000000000
 10
106.604184568
 20
150.500000000
 30
0.000000000
 10
106.652463338
 20
150.500000000
 30
0.000000000
 10
106.700742109
 20
150.500000000
 30
0.000000000
 10
106.761767361
 20
150.500000000
 30
0.000000000
 10
106.822792613
 20
150.500000000
 30
0.000000000
 10
106.895796919
 20
150.500000000
 30
0.000000000
 10
106.968801226
 20
150.500000000
 30
0.000000000
 10
107.052866515
 20
150.500000000
 30
0.000000000
 10
107.136931804
 20
150.500000000
 30
0.000000000
 10
107.231000905
 20
150.500000000
 30
0.000000000
 10
107.325070007
 20
150.500000000
 30
0.000000000
 10
107.427959948
 20
150.500000000
 30
0.000000000
 10
107.530849889
 20
150.500000000
 30
0.000000000
 10
107.641266769
 20
150.500000000
 30
0.000000000
 10
107.751683648
 20
150.500000000
 30
0.000000000
 10
107.868238910
 20
150.500000000
 30
0.000000000
 10
107.984794172
 20
150.500000000
 30
0.000000000
 10
108.106022066
 20
150.500000000
 30
0.000000000
 10
108.227249960
 20
150.500000000
 30
0.000000000
 10
108.475113612
 20
150.500000000
 30
0.000000000
 10
108.727922061
 20
150.500000000
 30
0.000000000
  0
SPLINE
  5
A62
330
A02
100
AcDbEntity
  8
ProjItem002
100
AcDbSpline
210
0
220
0
230
1
 70
8
 71
1
 72
17
 73
15
 74
0
 40
0.000000000
 40
0.000000000
 40
0.112199738
 40
0.224399475
 40
0.336599213
 40
0.448798951
 40
0.560998688
 40
0.673198426
 40
0.785398163
 40
0.897597901
 40
1.009797639
 40
1.121997376
 40
1.234197114
 40
1.346396852
 40
1.458596589
 40
1.570796327
 40
1.570796327
 10
96.000000000
 20
150.500000000
 30
0.000000000
 10
97.259600356
 20
150.500000000
 30
0.000000000
 10
98.503360507
 20
150.500000000
 30
0.000000000
 10
99.715639447
 20
150.500000000
 30
0.000000000
 10
100.881192065
 20
150.500000000
 30
0.000000000
 10
101.985360861
 20
150.500000000
 30
0.000000000
 10
103.014260271
 20
150.500000000
 30
0.000000000
 10
103.954951288
 20
150.500000000
 30
0.000000000
 10
104.795604178
 20
150.500000000
 30
0.000000000
 10
105.525647241
 20
150.500000000
 30
0.000000000
 10
106.135899764
 20
150.500000000
 30
0.000000000
 10
106.618687466
 20
150.500000000
 30
0.000000000
 10
106.967939012
 20
150.500000000
 30
0.000000000
 10
107.179262361
 20
150.500000000
 30
0.000000000
 10
107.250000000
 20
150.500000000
 30
0.000000000
  0
SPLINE
  5
A63
330
A02
100
AcDbEntity
  8
ProjItem002
100
AcDbSpline
210
0
220
0
230
1
 70
8
 71
1
 72
17
 73
15
 74
0
 40
1.570796327
 40
1.570796327
 40
1.795195802
 40
2.019595277
 40
2.243994753
 40
2.468394228
 40
2.692793703
 40
2.917193178
 40
3.141592654
 40
3.365992129
 40
3.590391604
 40
3.814791079
 40
4.039190555
 40
4.263590030
 40
4.487989505
 40
4.712388980
 40
4.712388980
 10
107.250000000
 20
150.500000000
 30
0.000000000
 10
106.967939012
 20
150.500000000
 30
0.000000000
 10
106.135899764
 20
150.500000000
 30
0.000000000
 10
104.795604178
 20
150.500000000
 30
0.000000000
 10
103.014260271
 20
150.500000000
 30
0.000000000
 10
100.881192065
 20
150.500000000
 30
0.000000000
 10
98.503360507
 20
150.500000000
 30
0.000000000
 10
96.000000000
 20
150.500000000
 30
0.000000000
 10
93.496639493
 20
150.500000000
 30
0.000000000
 10
91.118807935
 20
150.500000000
 30
0.000000000
 10
88.985739729
 20
150.500000000
 30
0.000000000
 10
87.204395822
 20
150.500000000
 30
0.000000000
 10
85.864100236
 20
150.500000000
 30
0.000000000
 10
85.032060988
 20
150.500000000
 30
0.000000000
 10
84.750000000
 20
150.500000000
 30
0.000000000
  0
SPLINE
  5
A64
330
A02
100
AcDbEntity
  8
ProjItem002
100
AcDbSpline
210
0
220
0
230
1
 70
8
 71
1
 72
17
 73
15
 74
0
 40
4.712388980
 40
4.712388980
 40
4.824588718
 40
4.936788456
 40
5.048988193
 40
5.161187931
 40
5.273387669
 40
5.385587406
 40
5.497787144
 40
5.609986881
 40
5.722186619
 40
5.834386357
 40
5.946586094
 40
6.058785832
 40
6.170985570
 40
6.283185307
 40
6.283185307
 10
84.750000000
 20
150.500000000
 30
0.000000000
 10
84.820737639
 20
150.500000000
 30
0.000000000
 10
85.032060988
 20
150.500000000
 30
0.000000000
 10
85.381312534
 20
150.500000000
 30
0.000000000
 10
85.864100236
 20
150.500000000
 30
0.000000000
 10
86.474352759
 20
150.500000000
 30
0.000000000
 10
87.204395822
 20
150.500000000
 30
0.000000000
 10
88.045048712
 20
150.500000000
 30
0.000000000
 10
88.985739729
 20
150.500000000
 30
0.000000000
 10
90.014639139
 20
150.500000000
 30
0.000000000
 10
91.118807935
 20
150.500000000
 30
0.000000000
 10
92.284360553
 20
150.500000000
 30
0.000000000
 10
93.496639493
 20
150.500000000
 30
0.000000000
 10
94.740399644
 20
150.500000000
 30
0.000000000
 10
96.000000000
 20
150.500000000
 30
0.000000000
  0
SPLINE
  5
A65
330
A02
100
AcDbEntity
  8
ProjItem002
100
AcDbSpline
210
0
220
0
230
1
 70
8
 71
2
 72
30
 73
27
 74
0
 40
0.000000000
 40
0.000000000
 40
0.000000000
 40
0.112199738
 40
0.112199738
 40
0.336599213
 40
0.336599213
 40
0.448798951
 40
0.448798951
 40
0.560998688
 40
0.560998688
 40
0.673198426
 40
0.673198426
 40
0.785398163
 40
0.785398163
 40
0.897597901
 40
0.897597901
 40
1.009797639
 40
1.009797639
 40
1.121997376
 40
1.121997376
 40
1.234197114
 40
1.234197114
 40
1.346396852
 40
1.346396852
 40
1.458596589
 40
1.458596589
 40
1.570796327
 40
1.570796327
 40
1.570796327
 10
108.727922061
 20
150.500000000
 30
0.000000000
 10
108.853882097
 20
150.500000000
 30
0.000000000
 10
108.979842133
 20
150.500000000
 30
0.000000000
 10
109.230359747
 20
150.500000000
 30
0.000000000
 10
109.471049951
 20
150.500000000
 30
0.000000000
 10
109.587605213
 20
150.500000000
 30
0.000000000
 10
109.704160474
 20
150.500000000
 30
0.000000000
 10
109.814577354
 20
150.500000000
 30
0.000000000
 10
109.924994234
 20
150.500000000
 30
0.000000000
 10
110.027884175
 20
150.500000000
 30
0.000000000
 10
110.130774116
 20
150.500000000
 30
0.000000000
 10
110.224843217
 20
150.500000000
 30
0.000000000
 10
110.318912319
 20
150.500000000
 30
0.000000000
 10
110.402977608
 20
150.500000000
 30
0.000000000
 10
110.487042897
 20
150.500000000
 30
0.000000000
 10
110.560047203
 20
150.500000000
 30
0.000000000
 10
110.633051510
 20
150.500000000
 30
0.000000000
 10
110.694076762
 20
150.500000000
 30
0.000000000
 10
110.755102014
 20
150.500000000
 30
0.000000000
 10
110.803380784
 20
150.500000000
 30
0.000000000
 10
110.851659555
 20
150.500000000
 30
0.000000000
 10
110.886584709
 20
150.500000000
 30
0.000000000
 10
110.921509864
 20
150.500000000
 30
0.000000000
 10
110.942642199
 20
150.500000000
 30
0.000000000
 10
110.963774534
 20
150.500000000
 30
0.000000000
 10
110.970848297
 20
150.500000000
 30
0.000000000
 10
110.977922061
 20
150.500000000
 30
0.000000000
  0
SPLINE
  5
A66
330
A02
100
AcDbEntity
  8
ProjItem002
100
AcDbSpline
210
0
220
0
230
1
 70
8
 71
1
 72
17
 73
15
 74
0
 40
1.570796327
 40
1.570796327
 40
1.795195802
 40
2.019595277
 40
2.243994753
 40
2.468394228
 40
2.692793703
 40
2.917193178
 40
3.141592654
 40
3.365992129
 40
3.590391604
 40
3.814791079
 40
4.039190555
 40
4.263590030
 40
4.487989505
 40
4.712388980
 40
4.712388980
 10
110.977922061
 20
150.500000000
 30
0.000000000
 10
110.921509864
 20
150.500000000
 30
0.000000000
 10
110.755102014
 20
150.500000000
 30
0.000000000
 10
110.487042897
 20
150.500000000
 30
0.000000000
 10
110.130774116
 20
150.500000000
 30
0.000000000
 10
109.704160474
 20
150.500000000
 30
0.000000000
 10
109.228594163
 20
150.500000000
 30
0.000000000
 10
108.727922061
 20
150.500000000
 30
0.000000000
 10
108.227249960
 20
150.500000000
 30
0.000000000
 10
107.751683648
 20
150.500000000
 30
0.000000000
 10
107.325070007
 20
150.500000000
 30
0.000000000
 10
106.968801226
 20
150.500000000
 30
0.000000000
 10
106.700742109
 20
150.500000000
 30
0.000000000
 10
106.534334259
 20
150.500000000
 30
0.000000000
 10
106.477922061
 20
150.500000000
 30
0.000000000
  0
SPLINE
  5
A67
330
A02
100
AcDbEntity
  8
ProjItem002
100
AcDbSpline
210
0
220
0
230
1
 70
8
 71
2
 72
30
 73
27
 74
0
 40
4.712388980
 40
4.712388980
 40
4.712388980
 40
4.824588718
 40
4.824588718
 40
4.936788456
 40
4.936788456
 40
5.048988193
 40
5.048988193
 40
5.161187931
 40
5.161187931
 40
5.273387669
 40
5.273387669
 40
5.385587406
 40
5.385587406
 40
5.497787144
 40
5.497787144
 40
5.609986881
 40
5.609986881
 40
5.722186619
 40
5.722186619
 40
5.834386357
 40
5.834386357
 40
5.946586094
 40
5.946586094
 40
6.058785832
 40
6.058785832
 40
6.283185307
 40
6.283185307
 40
6.283185307
 10
106.477922061
 20
150.500000000
 30
0.000000000
 10
106.484995825
 20
150.500000000
 30
0.000000000
 10
106.492069589
 20
150.500000000
 30
0.000000000
 10
106.513201924
 20
150.500000000
 30
0.000000000
 10
106.534334259
 20
150.500000000
 30
0.000000000
 10
106.569259414
 20
150.500000000
 30
0.000000000
 10
106.604184568
 20
150.500000000
 30
0.000000000
 10
106.652463338
 20
150.500000000
 30
0.000000000
 10
106.700742109
 20
150.500000000
 30
0.000000000
 10
106.761767361
 20
150.500000000
 30
0.000000000
 10
106.822792613
 20
150.500000000
 30
0.000000000
 10
106.895796919
 20
150.500000000
 30
0.000000000
 10
106.968801226
 20
150.500000000
 30
0.000000000
 10
107.052866515
 20
150.500000000
 30
0.000000000
 10
107.136931804
 20
150.500000000
 30
0.000000000
 10
107.231000905
 20
150.500000000
 30
0.000000000
 10
107.325070007
 20
150.500000000
 30
0.000000000
 10
107.427959948
 20
150.500000000
 30
0.000000000
 10
107.530849889
 20
150.500000000
 30
0.000000000
 10
107.641266769
 20
150.500000000
 30
0.000000000
 10
107.751683648
 20
150.500000000
 30
0.000000000
 10
107.868238910
 20
150.500000000
 30
0.000000000
 10
107.984794172
 20
150.500000000
 30
0.000000000
 10
108.106022066
 20
150.500000000
 30
0.000000000
 10
108.227249960
 20
150.500000000
 30
0.000000000
 10
108.475113612
 20
150.500000000
 30
0.000000000
 10
108.727922061
 20
150.500000000
 30
0.000000000
  0
SPLINE
  5
A68
330
A02
100
AcDbEntity
  8
ProjItem002
100
AcDbSpline
210
0
220
0
230
1
 70
8
 71
2
 72
30
 73
27
 74
0
 40
0.000000000
 40
0.000000000
 40
0.000000000
 40
0.112199738
 40
0.112199738
 40
0.336599213
 40
0.336599213
 40
0.448798951
 40
0.448798951
 40
0.560998688
 40
0.560998688
 40
0.673198426
 40
0.673198426
 40
0.785398163
 40
0.785398163
 40
0.897597901
 40
0.897597901
 40
1.009797639
 40
1.009797639
 40
1.121997376
 40
1.121997376
 40
1.234197114
 40
1.234197114
 40
1.346396852
 40
1.346396852
 40
1.458596589
 40
1.458596589
 40
1.570796327
 40
1.570796327
 40
1.570796327
 10
83.272077939
 20
144.500000000
 30
0.000000000
 10
83.398037974
 20
144.500000000
 30
0.000000000
 10
83.523998010
 20
144.500000000
 30
0.000000000
 10
83.774515625
 20
144.500000000
 30
0.000000000
 10
84.015205828
 20
144.500000000
 30
0.000000000
 10
84.131761090
 20
144.500000000
 30
0.000000000
 10
84.248316352
 20
144.500000000
 30
0.000000000
 10
84.358733231
 20
144.500000000
 30
0.000000000
 10
84.469150111
 20
144.500000000
 30
0.000000000
 10
84.572040052
 20
144.500000000
 30
0.000000000
 10
84.674929993
 20
144.500000000
 30
0.000000000
 10
84.768999095
 20
144.500000000
 30
0.000000000
 10
84.863068196
 20
144.500000000
 30
0.000000000
 10
84.947133485
 20
144.500000000
 30
0.000000000
 10
85.031198774
 20
144.500000000
 30
0.000000000
 10
85.104203081
 20
144.500000000
 30
0.000000000
 10
85.177207387
 20
144.500000000
 30
0.000000000
 10
85.238232639
 20
144.500000000
 30
0.000000000
 10
85.299257891
 20
144.500000000
 30
0.000000000
 10
85.347536662
 20
144.500000000
 30
0.000000000
 10
85.395815432
 20
144.500000000
 30
0.000000000
 10
85.430740586
 20
144.500000000
 30
0.000000000
 10
85.465665741
 20
144.500000000
 30
0.000000000
 10
85.486798076
 20
144.500000000
 30
0.000000000
 10
85.507930411
 20
144.500000000
 30
0.000000000
 10
85.515004175
 20
144.500000000
 30
0.000000000
 10
85.522077939
 20
144.500000000
 30
0.000000000
  0
SPLINE
  5
A69
330
A02
100
AcDbEntity
  8
ProjItem002
100
AcDbSpline
210
0
220
0
230
1
 70
8
 71
1
 72
17
 73
15
 74
0
 40
1.570796327
 40
1.570796327
 40
1.795195802
 40
2.019595277
 40
2.243994753
 40
2.468394228
 40
2.692793703
 40
2.917193178
 40
3.141592654
 40
3.365992129
 40
3.590391604
 40
3.814791079
 40
4.039190555
 40
4.263590030
 40
4.487989505
 40
4.712388980
 40
4.712388980
 10
85.522077939
 20
144.500000000
 30
0.000000000
 10
85.465665741
 20
144.500000000
 30
0.000000000
 10
85.299257891
 20
144.500000000
 30
0.000000000
 10
85.031198774
 20
144.500000000
 30
0.000000000
 10
84.674929993
 20
144.500000000
 30
0.000000000
 10
84.248316352
 20
144.500000000
 30
0.000000000
 10
83.772750040
 20
144.500000000
 30
0.000000000
 10
83.272077939
 20
144.500000000
 30
0.000000000
 10
82.771405837
 20
144.500000000
 30
0.000000000
 10
82.295839526
 20
144.500000000
 30
0.000000000
 10
81.869225884
 20
144.500000000
 30
0.000000000
 10
81.512957103
 20
144.500000000
 30
0.000000000
 10
81.244897986
 20
144.500000000
 30
0.000000000
 10
81.078490136
 20
144.500000000
 30
0.000000000
 10
81.022077939
 20
144.500000000
 30
0.000000000
  0
SPLINE
  5
A6A
330
A02
100
AcDbEntity
  8
ProjItem002
100
AcDbSpline
210
0
220
0
230
1
 70
8
 71
2
 72
30
 73
27
 74
0
 40
4.712388980
 40
4.712388980
 40
4.712388980
 40
4.824588718
 40
4.824588718
 40
4.936788456
 40
4.936788456
 40
5.048988193
 40
5.048988193
 40
5.161187931
 40
5.161187931
 40
5.273387669
 40
5.273387669
 40
5.385587406
 40
5.385587406
 40
5.497787144
 40
5.497787144
 40
5.609986881
 40
5.609986881
 40
5.722186619
 40
5.722186619
 40
5.834386357
 40
5.834386357
 40
5.946586094
 40
5.946586094
 40
6.058785832
 40
6.058785832
 40
6.283185307
 40
6.283185307
 40
6.283185307
 10
81.022077939
 20
144.500000000
 30
0.000000000
 10
81.029151703
 20
144.500000000
 30
0.000000000
 10
81.036225466
 20
144.500000000
 30
0.000000000
 10
81.057357801
 20
144.500000000
 30
0.000000000
 10
81.078490136
 20
144.500000000
 30
0.000000000
 10
81.113415291
 20
144.500000000
 30
0.000000000
 10
81.148340445
 20
144.500000000
 30
0.000000000
 10
81.196619216
 20
144.500000000
 30
0.000000000
 10
81.244897986
 20
144.500000000
 30
0.000000000
 10
81.305923238
 20
144.500000000
 30
0.000000000
 10
81.366948490
 20
144.500000000
 30
0.000000000
 10
81.439952797
 20
144.500000000
 30
0.000000000
 10
81.512957103
 20
144.500000000
 30
0.000000000
 10
81.597022392
 20
144.500000000
 30
0.000000000
 10
81.681087681
 20
144.500000000
 30
0.000000000
 10
81.775156783
 20
144.500000000
 30
0.000000000
 10
81.869225884
 20
144.500000000
 30
0.000000000
 10
81.972115825
 20
144.500000000
 30
0.000000000
 10
82.075005766
 20
144.500000000
 30
0.000000000
 10
82.185422646
 20
144.500000000
 30
0.000000000
 10
82.295839526
 20
144.500000000
 30
0.000000000
 10
82.412394787
 20
144.500000000
 30
0.000000000
 10
82.528950049
 20
144.500000000
 30
0.000000000
 10
82.650177943
 20
144.500000000
 30
0.000000000
 10
82.771405837
 20
144.500000000
 30
0.000000000
 10
83.019269489
 20
144.500000000
 30
0.000000000
 10
83.272077939
 20
144.500000000
 30
0.000000000
  0
SPLINE
  5
A6B
330
A02
100
AcDbEntity
  8
ProjItem002
100
AcDbSpline
210
0
220
0
230
1
 70
8
 71
2
 72
30
 73
27
 74
0
 40
0.000000000
 40
0.000000000
 40
0.000000000
 40
0.112199738
 40
0.112199738
 40
0.336599213
 40
0.336599213
 40
0.448798951
 40
0.448798951
 40
0.560998688
 40
0.560998688
 40
0.673198426
 40
0.673198426
 40
0.785398163
 40
0.785398163
 40
0.897597901
 40
0.897597901
 40
1.009797639
 40
1.009797639
 40
1.121997376
 40
1.121997376
 40
1.234197114
 40
1.234197114
 40
1.346396852
 40
1.346396852
 40
1.458596589
 40
1.458596589
 40
1.570796327
 40
1.570796327
 40
1.570796327
 10
83.272077939
 20
144.500000000
 30
0.000000000
 10
83.398037974
 20
144.500000000
 30
0.000000000
 10
83.523998010
 20
144.500000000
 30
0.000000000
 10
83.774515625
 20
144.500000000
 30
0.000000000
 10
84.015205828
 20
144.500000000
 30
0.000000000
 10
84.131761090
 20
144.500000000
 30
0.000000000
 10
84.248316352
 20
144.500000000
 30
0.000000000
 10
84.358733231
 20
144.500000000
 30
0.000000000
 10
84.469150111
 20
144.500000000
 30
0.000000000
 10
84.572040052
 20
144.500000000
 30
0.000000000
 10
84.674929993
 20
144.500000000
 30
0.000000000
 10
84.768999095
 20
144.500000000
 30
0.000000000
 10
84.863068196
 20
144.500000000
 30
0.000000000
 10
84.947133485
 20
144.500000000
 30
0.000000000
 10
85.031198774
 20
144.500000000
 30
0.000000000
 10
85.104203081
 20
144.500000000
 30
0.000000000
 10
85.177207387
 20
144.500000000
 30
0.000000000
 10
85.238232639
 20
144.500000000
 30
0.000000000
 10
85.299257891
 20
144.500000000
 30
0.000000000
 10
85.347536662
 20
144.500000000
 30
0.000000000
 10
85.395815432
 20
144.500000000
 30
0.000000000
 10
85.430740586
 20
144.500000000
 30
0.000000000
 10
85.465665741
 20
144.500000000
 30
0.000000000
 10
85.486798076
 20
144.500000000
 30
0.000000000
 10
85.507930411
 20
144.500000000
 30
0.000000000
 10
85.515004175
 20
144.500000000
 30
0.000000000
 10
85.522077939
 20
144.500000000
 30
0.000000000
  0
SPLINE
  5
A6C
330
A02
100
AcDbEntity
  8
ProjItem002
100
AcDbSpline
210
0
220
0
230
1
 70
8
 71
1
 72
17
 73
15
 74
0
 40
1.570796327
 40
1.570796327
 40
1.795195802
 40
2.019595277
 40
2.243994753
 40
2.468394228
 40
2.692793703
 40
2.917193178
 40
3.141592654
 40
3.365992129
 40
3.590391604
 40
3.814791079
 40
4.039190555
 40
4.263590030
 40
4.487989505
 40
4.712388980
 40
4.712388980
 10
85.522077939
 20
144.500000000
 30
0.000000000
 10
85.465665741
 20
144.500000000
 30
0.000000000
 10
85.299257891
 20
144.500000000
 30
0.000000000
 10
85.031198774
 20
144.500000000
 30
0.000000000
 10
84.674929993
 20
144.500000000
 30
0.000000000
 10
84.248316352
 20
144.500000000
 30
0.000000000
 10
83.772750040
 20
144.500000000
 30
0.000000000
 10
83.272077939
 20
144.500000000
 30
0.000000000
 10
82.771405837
 20
144.500000000
 30
0.000000000
 10
82.295839526
 20
144.500000000
 30
0.000000000
 10
81.869225884
 20
144.500000000
 30
0.000000000
 10
81.512957103
 20
144.500000000
 30
0.000000000
 10
81.244897986
 20
144.500000000
 30
0.000000000
 10
81.078490136
 20
144.500000000
 30
0.000000000
 10
81.022077939
 20
144.500000000
 30
0.000000000
  0
SPLINE
  5
A6D
330
A02
100
AcDbEntity
  8
ProjItem002
100
AcDbSpline
210
0
220
0
230
1
 70
8
 71
2
 72
30
 73
27
 74
0
 40
4.712388980
 40
4.712388980
 40
4.712388980
 40
4.824588718
 40
4.824588718
 40
4.936788456
 40
4.936788456
 40
5.048988193
 40
5.048988193
 40
5.161187931
 40
5.161187931
 40
5.273387669
 40
5.273387669
 40
5.385587406
 40
5.385587406
 40
5.497787144
 40
5.497787144
 40
5.609986881
 40
5.609986881
 40
5.722186619
 40
5.722186619
 40
5.834386357
 40
5.834386357
 40
5.946586094
 40
5.946586094
 40
6.058785832
 40
6.058785832
 40
6.283185307
 40
6.283185307
 40
6.283185307
 10
81.022077939
 20
144.500000000
 30
0.000000000
 10
81.029151703
 20
144.500000000
 30
0.000000000
 10
81.036225466
 20
144.500000000
 30
0.000000000
 10
81.057357801
 20
144.500000000
 30
0.000000000
 10
81.078490136
 20
144.500000000
 30
0.000000000
 10
81.113415291
 20
144.500000000
 30
0.000000000
 10
81.148340445
 20
144.500000000
 30
0.000000000
 10
81.196619216
 20
144.500000000
 30
0.000000000
 10
81.244897986
 20
144.500000000
 30
0.000000000
 10
81.305923238
 20
144.500000000
 30
0.000000000
 10
81.366948490
 20
144.500000000
 30
0.000000000
 10
81.439952797
 20
144.500000000
 30
0.000000000
 10
81.512957103
 20
144.500000000
 30
0.000000000
 10
81.597022392
 20
144.500000000
 30
0.000000000
 10
81.681087681
 20
144.500000000
 30
0.000000000
 10
81.775156783
 20
144.500000000
 30
0.000000000
 10
81.869225884
 20
144.500000000
 30
0.000000000
 10
81.972115825
 20
144.500000000
 30
0.000000000
 10
82.075005766
 20
144.500000000
 30
0.000000000
 10
82.185422646
 20
144.500000000
 30
0.000000000
 10
82.295839526
 20
144.500000000
 30
0.000000000
 10
82.412394787
 20
144.500000000
 30
0.000000000
 10
82.528950049
 20
144.500000000
 30
0.000000000
 10
82.650177943
 20
144.500000000
 30
0.000000000
 10
82.771405837
 20
144.500000000
 30
0.000000000
 10
83.019269489
 20
144.500000000
 30
0.000000000
 10
83.272077939
 20
144.500000000
 30
0.000000000
  0
SPLINE
  5
A6E
330
A02
100
AcDbEntity
  8
ProjItem002
100
AcDbSpline
210
0
220
0
230
1
 70
8
 71
2
 72
30
 73
27
 74
0
 40
0.000000000
 40
0.000000000
 40
0.000000000
 40
0.112199738
 40
0.112199738
 40
0.336599213
 40
0.336599213
 40
0.448798951
 40
0.448798951
 40
0.560998688
 40
0.560998688
 40
0.673198426
 40
0.673198426
 40
0.785398163
 40
0.785398163
 40
0.897597901
 40
0.897597901
 40
1.009797639
 40
1.009797639
 40
1.121997376
 40
1.121997376
 40
1.234197114
 40
1.234197114
 40
1.346396852
 40
1.346396852
 40
1.458596589
 40
1.458596589
 40
1.570796327
 40
1.570796327
 40
1.570796327
 10
108.727922061
 20
144.500000000
 30
0.000000000
 10
108.853882097
 20
144.500000000
 30
0.000000000
 10
108.979842133
 20
144.500000000
 30
0.000000000
 10
109.230359747
 20
144.500000000
 30
0.000000000
 10
109.471049951
 20
144.500000000
 30
0.000000000
 10
109.587605213
 20
144.500000000
 30
0.000000000
 10
109.704160474
 20
144.500000000
 30
0.000000000
 10
109.814577354
 20
144.500000000
 30
0.000000000
 10
109.924994234
 20
144.500000000
 30
0.000000000
 10
110.027884175
 20
144.500000000
 30
0.000000000
 10
110.130774116
 20
144.500000000
 30
0.000000000
 10
110.224843217
 20
144.500000000
 30
0.000000000
 10
110.318912319
 20
144.500000000
 30
0.000000000
 10
110.402977608
 20
144.500000000
 30
0.000000000
 10
110.487042897
 20
144.500000000
 30
0.000000000
 10
110.560047203
 20
144.500000000
 30
0.000000000
 10
110.633051510
 20
144.500000000
 30
0.000000000
 10
110.694076762
 20
144.500000000
 30
0.000000000
 10
110.755102014
 20
144.500000000
 30
0.000000000
 10
110.803380784
 20
144.500000000
 30
0.000000000
 10
110.851659555
 20
144.500000000
 30
0.000000000
 10
110.886584709
 20
144.500000000
 30
0.000000000
 10
110.921509864
 20
144.500000000
 30
0.000000000
 10
110.942642199
 20
144.500000000
 30
0.000000000
 10
110.963774534
 20
144.500000000
 30
0.000000000
 10
110.970848297
 20
144.500000000
 30
0.000000000
 10
110.977922061
 20
144.500000000
 30
0.000000000
  0
SPLINE
  5
A6F
330
A02
100
AcDbEntity
  8
ProjItem002
100
AcDbSpline
210
0
220
0
230
1
 70
8
 71
1
 72
17
 73
15
 74
0
 40
1.570796327
 40
1.570796327
 40
1.795195802
 40
2.019595277
 40
2.243994753
 40
2.468394228
 40
2.692793703
 40
2.917193178
 40
3.141592654
 40
3.365992129
 40
3.590391604
 40
3.814791079
 40
4.039190555
 40
4.263590030
 40
4.487989505
 40
4.712388980
 40
4.712388980
 10
110.977922061
 20
144.500000000
 30
0.000000000
 10
110.921509864
 20
144.500000000
 30
0.000000000
 10
110.755102014
 20
144.500000000
 30
0.000000000
 10
110.487042897
 20
144.500000000
 30
0.000000000
 10
110.130774116
 20
144.500000000
 30
0.000000000
 10
109.704160474
 20
144.500000000
 30
0.000000000
 10
109.228594163
 20
144.500000000
 30
0.000000000
 10
108.727922061
 20
144.500000000
 30
0.000000000
 10
108.227249960
 20
144.500000000
 30
0.000000000
 10
107.751683648
 20
144.500000000
 30
0.000000000
 10
107.325070007
 20
144.500000000
 30
0.000000000
 10
106.968801226
 20
144.500000000
 30
0.000000000
 10
106.700742109
 20
144.500000000
 30
0.000000000
 10
106.534334259
 20
144.500000000
 30
0.000000000
 10
106.477922061
 20
144.500000000
 30
0.000000000
  0
SPLINE
  5
A70
330
A02
100
AcDbEntity
  8
ProjItem002
100
AcDbSpline
210
0
220
0
230
1
 70
8
 71
2
 72
30
 73
27
 74
0
 40
4.712388980
 40
4.712388980
 40
4.712388980
 40
4.824588718
 40
4.824588718
 40
4.936788456
 40
4.936788456
 40
5.048988193
 40
5.048988193
 40
5.161187931
 40
5.161187931
 40
5.273387669
 40
5.273387669
 40
5.385587406
 40
5.385587406
 40
5.497787144
 40
5.497787144
 40
5.609986881
 40
5.609986881
 40
5.722186619
 40
5.722186619
 40
5.834386357
 40
5.834386357
 40
5.946586094
 40
5.946586094
 40
6.058785832
 40
6.058785832
 40
6.283185307
 40
6.283185307
 40
6.283185307
 10
106.477922061
 20
144.500000000
 30
0.000000000
 10
106.484995825
 20
144.500000000
 30
0.000000000
 10
106.492069589
 20
144.500000000
 30
0.000000000
 10
106.513201924
 20
144.500000000
 30
0.000000000
 10
106.534334259
 20
144.500000000
 30
0.000000000
 10
106.569259414
 20
144.500000000
 30
0.000000000
 10
106.604184568
 20
144.500000000
 30
0.000000000
 10
106.652463338
 20
144.500000000
 30
0.000000000
 10
106.700742109
 20
144.500000000
 30
0.000000000
 10
106.761767361
 20
144.500000000
 30
0.000000000
 10
106.822792613
 20
144.500000000
 30
0.000000000
 10
106.895796919
 20
144.500000000
 30
0.000000000
 10
106.968801226
 20
144.500000000
 30
0.000000000
 10
107.052866515
 20
144.500000000
 30
0.000000000
 10
107.136931804
 20
144.500000000
 30
0.000000000
 10
107.231000905
 20
144.500000000
 30
0.000000000
 10
107.325070007
 20
144.500000000
 30
0.000000000
 10
107.427959948
 20
144.500000000
 30
0.000000000
 10
107.530849889
 20
144.500000000
 30
0.000000000
 10
107.641266769
 20
144.500000000
 30
0.000000000
 10
107.751683648
 20
144.500000000
 30
0.000000000
 10
107.868238910
 20
144.500000000
 30
0.000000000
 10
107.984794172
 20
144.500000000
 30
0.000000000
 10
108.106022066
 20
144.500000000
 30
0.000000000
 10
108.227249960
 20
144.500000000
 30
0.000000000
 10
108.475113612
 20
144.500000000
 30
0.000000000
 10
108.727922061
 20
144.500000000
 30
0.000000000
  0
SPLINE
  5
A71
330
A02
100
AcDbEntity
  8
ProjItem002
100
AcDbSpline
210
0
220
0
230
1
 70
8
 71
1
 72
17
 73
15
 74
0
 40
0.000000000
 40
0.000000000
 40
0.112199738
 40
0.224399475
 40
0.336599213
 40
0.448798951
 40
0.560998688
 40
0.673198426
 40
0.785398163
 40
0.897597901
 40
1.009797639
 40
1.121997376
 40
1.234197114
 40
1.346396852
 40
1.458596589
 40
1.570796327
 40
1.570796327
 10
96.000000000
 20
144.500000000
 30
0.000000000
 10
96.671786857
 20
144.500000000
 30
0.000000000
 10
97.335125604
 20
144.500000000
 30
0.000000000
 10
97.981674372
 20
144.500000000
 30
0.000000000
 10
98.603302435
 20
144.500000000
 30
0.000000000
 10
99.192192459
 20
144.500000000
 30
0.000000000
 10
99.740938811
 20
144.500000000
 30
0.000000000
 10
100.242640687
 20
144.500000000
 30
0.000000000
 10
100.690988895
 20
144.500000000
 30
0.000000000
 10
101.080345195
 20
144.500000000
 30
0.000000000
 10
101.405813207
 20
144.500000000
 30
0.000000000
 10
101.663299982
 20
144.500000000
 30
0.000000000
 10
101.849567473
 20
144.500000000
 30
0.000000000
 10
101.962273259
 20
144.500000000
 30
0.000000000
 10
102.000000000
 20
144.500000000
 30
0.000000000
  0
SPLINE
  5
A72
330
A02
100
AcDbEntity
  8
ProjItem002
100
AcDbSpline
210
0
220
0
230
1
 70
8
 71
1
 72
17
 73
15
 74
0
 40
1.570796327
 40
1.570796327
 40
1.795195802
 40
2.019595277
 40
2.243994753
 40
2.468394228
 40
2.692793703
 40
2.917193178
 40
3.141592654
 40
3.365992129
 40
3.590391604
 40
3.814791079
 40
4.039190555
 40
4.263590030
 40
4.487989505
 40
4.712388980
 40
4.712388980
 10
102.000000000
 20
144.500000000
 30
0.000000000
 10
101.849567473
 20
144.500000000
 30
0.000000000
 10
101.405813207
 20
144.500000000
 30
0.000000000
 10
100.690988895
 20
144.500000000
 30
0.000000000
 10
99.740938811
 20
144.500000000
 30
0.000000000
 10
98.603302435
 20
144.500000000
 30
0.000000000
 10
97.335125604
 20
144.500000000
 30
0.000000000
 10
96.000000000
 20
144.500000000
 30
0.000000000
 10
94.664874396
 20
144.500000000
 30
0.000000000
 10
93.396697565
 20
144.500000000
 30
0.000000000
 10
92.259061189
 20
144.500000000
 30
0.000000000
 10
91.309011105
 20
144.500000000
 30
0.000000000
 10
90.594186793
 20
144.500000000
 30
0.000000000
 10
90.150432527
 20
144.500000000
 30
0.000000000
 10
90.000000000
 20
144.500000000
 30
0.000000000
  0
SPLINE
  5
A73
330
A02
100
AcDbEntity
  8
ProjItem002
100
AcDbSpline
210
0
220
0
230
1
 70
8
 71
1
 72
17
 73
15
 74
0
 40
4.712388980
 40
4.712388980
 40
4.824588718
 40
4.936788456
 40
5.048988193
 40
5.161187931
 40
5.273387669
 40
5.385587406
 40
5.497787144
 40
5.609986881
 40
5.722186619
 40
5.834386357
 40
5.946586094
 40
6.058785832
 40
6.170985570
 40
6.283185307
 40
6.283185307
 10
90.000000000
 20
144.500000000
 30
0.000000000
 10
90.037726741
 20
144.500000000
 30
0.000000000
 10
90.150432527
 20
144.500000000
 30
0.000000000
 10
90.336700018
 20
144.500000000
 30
0.000000000
 10
90.594186793
 20
144.500000000
 30
0.000000000
 10
90.919654805
 20
144.500000000
 30
0.000000000
 10
91.309011105
 20
144.500000000
 30
0.000000000
 10
91.757359313
 20
144.500000000
 30
0.000000000
 10
92.259061189
 20
144.500000000
 30
0.000000000
 10
92.807807541
 20
144.500000000
 30
0.000000000
 10
93.396697565
 20
144.500000000
 30
0.000000000
 10
94.018325628
 20
144.500000000
 30
0.000000000
 10
94.664874396
 20
144.500000000
 30
0.000000000
 10
95.328213143
 20
144.500000000
 30
0.000000000
 10
96.000000000
 20
144.500000000
 30
0.000000000
  0
SPLINE
  5
A74
330
A02
100
AcDbEntity
  8
ProjItem002
100
AcDbSpline
210
0
220
0
230
1
 70
8
 71
2
 72
30
 73
27
 74
0
 40
0.000000000
 40
0.000000000
 40
0.000000000
 40
0.112199738
 40
0.112199738
 40
0.336599213
 40
0.336599213
 40
0.448798951
 40
0.448798951
 40
0.560998688
 40
0.560998688
 40
0.673198426
 40
0.673198426
 40
0.785398163
 40
0.785398163
 40
0.897597901
 40
0.897597901
 40
1.009797639
 40
1.009797639
 40
1.121997376
 40
1.121997376
 40
1.234197114
 40
1.234197114
 40
1.346396852
 40
1.346396852
 40
1.458596589
 40
1.458596589
 40
1.570796327
 40
1.570796327
 40
1.570796327
 10
108.727922061
 20
144.500000000
 30
0.000000000
 10
108.853882097
 20
144.500000000
 30
0.000000000
 10
108.979842133
 20
144.500000000
 30
0.000000000
 10
109.230359747
 20
144.500000000
 30
0.000000000
 10
109.471049951
 20
144.500000000
 30
0.000000000
 10
109.587605213
 20
144.500000000
 30
0.000000000
 10
109.704160474
 20
144.500000000
 30
0.000000000
 10
109.814577354
 20
144.500000000
 30
0.000000000
 10
109.924994234
 20
144.500000000
 30
0.000000000
 10
110.027884175
 20
144.500000000
 30
0.000000000
 10
110.130774116
 20
144.500000000
 30
0.000000000
 10
110.224843217
 20
144.500000000
 30
0.000000000
 10
110.318912319
 20
144.500000000
 30
0.000000000
 10
110.402977608
 20
144.500000000
 30
0.000000000
 10
110.487042897
 20
144.500000000
 30
0.000000000
 10
110.560047203
 20
144.500000000
 30
0.000000000
 10
110.633051510
 20
144.500000000
 30
0.000000000
 10
110.694076762
 20
144.500000000
 30
0.000000000
 10
110.755102014
 20
144.500000000
 30
0.000000000
 10
110.803380784
 20
144.500000000
 30
0.000000000
 10
110.851659555
 20
144.500000000
 30
0.000000000
 10
110.886584709
 20
144.500000000
 30
0.000000000
 10
110.921509864
 20
144.500000000
 30
0.000000000
 10
110.942642199
 20
144.500000000
 30
0.000000000
 10
110.963774534
 20
144.500000000
 30
0.000000000
 10
110.970848297
 20
144.500000000
 30
0.000000000
 10
110.977922061
 20
144.500000000
 30
0.000000000
  0
SPLINE
  5
A75
330
A02
100
AcDbEntity
  8
ProjItem002
100
AcDbSpline
210
0
220
0
230
1
 70
8
 71
1
 72
17
 73
15
 74
0
 40
1.570796327
 40
1.570796327
 40
1.795195802
 40
2.019595277
 40
2.243994753
 40
2.468394228
 40
2.692793703
 40
2.917193178
 40
3.141592654
 40
3.365992129
 40
3.590391604
 40
3.814791079
 40
4.039190555
 40
4.263590030
 40
4.487989505
 40
4.712388980
 40
4.712388980
 10
110.977922061
 20
144.500000000
 30
0.000000000
 10
110.921509864
 20
144.500000000
 30
0.000000000
 10
110.755102014
 20
144.500000000
 30
0.000000000
 10
110.487042897
 20
144.500000000
 30
0.000000000
 10
110.130774116
 20
144.500000000
 30
0.000000000
 10
109.704160474
 20
144.500000000
 30
0.000000000
 10
109.228594163
 20
144.500000000
 30
0.000000000
 10
108.727922061
 20
144.500000000
 30
0.000000000
 10
108.227249960
 20
144.500000000
 30
0.000000000
 10
107.751683648
 20
144.500000000
 30
0.000000000
 10
107.325070007
 20
144.500000000
 30
0.000000000
 10
106.968801226
 20
144.500000000
 30
0.000000000
 10
106.700742109
 20
144.500000000
 30
0.000000000
 10
106.534334259
 20
144.500000000
 30
0.000000000
 10
106.477922061
 20
144.500000000
 30
0.000000000
  0
SPLINE
  5
A76
330
A02
100
AcDbEntity
  8
ProjItem002
100
AcDbSpline
210
0
220
0
230
1
 70
8
 71
2
 72
30
 73
27
 74
0
 40
4.712388980
 40
4.712388980
 40
4.712388980
 40
4.824588718
 40
4.824588718
 40
4.936788456
 40
4.936788456
 40
5.048988193
 40
5.048988193
 40
5.161187931
 40
5.161187931
 40
5.273387669
 40
5.273387669
 40
5.385587406
 40
5.385587406
 40
5.497787144
 40
5.497787144
 40
5.609986881
 40
5.609986881
 40
5.722186619
 40
5.722186619
 40
5.834386357
 40
5.834386357
 40
5.946586094
 40
5.946586094
 40
6.058785832
 40
6.058785832
 40
6.283185307
 40
6.283185307
 40
6.283185307
 10
106.477922061
 20
144.500000000
 30
0.000000000
 10
106.484995825
 20
144.500000000
 30
0.000000000
 10
106.492069589
 20
144.500000000
 30
0.000000000
 10
106.513201924
 20
144.500000000
 30
0.000000000
 10
106.534334259
 20
144.500000000
 30
0.000000000
 10
106.569259414
 20
144.500000000
 30
0.000000000
 10
106.604184568
 20
144.500000000
 30
0.000000000
 10
106.652463338
 20
144.500000000
 30
0.000000000
 10
106.700742109
 20
144.500000000
 30
0.000000000
 10
106.761767361
 20
144.500000000
 30
0.000000000
 10
106.822792613
 20
144.500000000
 30
0.000000000
 10
106.895796919
 20
144.500000000
 30
0.000000000
 10
106.968801226
 20
144.500000000
 30
0.000000000
 10
107.052866515
 20
144.500000000
 30
0.000000000
 10
107.136931804
 20
144.500000000
 30
0.000000000
 10
107.231000905
 20
144.500000000
 30
0.000000000
 10
107.325070007
 20
144.500000000
 30
0.000000000
 10
107.427959948
 20
144.500000000
 30
0.000000000
 10
107.530849889
 20
144.500000000
 30
0.000000000
 10
107.641266769
 20
144.500000000
 30
0.000000000
 10
107.751683648
 20
144.500000000
 30
0.000000000
 10
107.868238910
 20
144.500000000
 30
0.000000000
 10
107.984794172
 20
144.500000000
 30
0.000000000
 10
108.106022066
 20
144.500000000
 30
0.000000000
 10
108.227249960
 20
144.500000000
 30
0.000000000
 10
108.475113612
 20
144.500000000
 30
0.000000000
 10
108.727922061
 20
144.500000000
 30
0.000000000
  0
SPLINE
  5
A77
330
A02
100
AcDbEntity
  8
ProjItem002
100
AcDbSpline
210
0
220
0
230
1
 70
8
 71
1
 72
17
 73
15
 74
0
 40
1.570796327
 40
1.570796327
 40
1.795195802
 40
2.019595277
 40
2.243994753
 40
2.468394228
 40
2.692793703
 40
2.917193178
 40
3.141592654
 40
3.365992129
 40
3.590391604
 40
3.814791079
 40
4.039190555
 40
4.263590030
 40
4.487989505
 40
4.712388980
 40
4.712388980
 10
107.250000000
 20
165.500000000
 30
0.000000000
 10
106.967939012
 20
165.500000000
 30
0.000000000
 10
106.135899764
 20
165.500000000
 30
0.000000000
 10
104.795604178
 20
165.500000000
 30
0.000000000
 10
103.014260271
 20
165.500000000
 30
0.000000000
 10
100.881192065
 20
165.500000000
 30
0.000000000
 10
98.503360507
 20
165.500000000
 30
0.000000000
 10
96.000000000
 20
165.500000000
 30
0.000000000
 10
93.496639493
 20
165.500000000
 30
0.000000000
 10
91.118807935
 20
165.500000000
 30
0.000000000
 10
88.985739729
 20
165.500000000
 30
0.000000000
 10
87.204395822
 20
165.500000000
 30
0.000000000
 10
85.864100236
 20
165.500000000
 30
0.000000000
 10
85.032060988
 20
165.500000000
 30
0.000000000
 10
84.750000000
 20
165.500000000
 30
0.000000000
  0
SPLINE
  5
A78
330
A02
100
AcDbEntity
  8
ProjItem002
100
AcDbSpline
210
0
220
0
230
1
 70
8
 71
1
 72
17
 73
15
 74
0
 40
0.000000000
 40
0.000000000
 40
0.112199738
 40
0.224399475
 40
0.336599213
 40
0.448798951
 40
0.560998688
 40
0.673198426
 40
0.785398163
 40
0.897597901
 40
1.009797639
 40
1.121997376
 40
1.234197114
 40
1.346396852
 40
1.458596589
 40
1.570796327
 40
1.570796327
 10
96.000000000
 20
165.500000000
 30
0.000000000
 10
96.671786857
 20
165.500000000
 30
0.000000000
 10
97.335125604
 20
165.500000000
 30
0.000000000
 10
97.981674372
 20
165.500000000
 30
0.000000000
 10
98.603302435
 20
165.500000000
 30
0.000000000
 10
99.192192459
 20
165.500000000
 30
0.000000000
 10
99.740938811
 20
165.500000000
 30
0.000000000
 10
100.242640687
 20
165.500000000
 30
0.000000000
 10
100.690988895
 20
165.500000000
 30
0.000000000
 10
101.080345195
 20
165.500000000
 30
0.000000000
 10
101.405813207
 20
165.500000000
 30
0.000000000
 10
101.663299982
 20
165.500000000
 30
0.000000000
 10
101.849567473
 20
165.500000000
 30
0.000000000
 10
101.962273259
 20
165.500000000
 30
0.000000000
 10
102.000000000
 20
165.500000000
 30
0.000000000
  0
SPLINE
  5
A79
330
A02
100
AcDbEntity
  8
ProjItem002
100
AcDbSpline
210
0
220
0
230
1
 70
8
 71
1
 72
17
 73
15
 74
0
 40
1.570796327
 40
1.570796327
 40
1.795195802
 40
2.019595277
 40
2.243994753
 40
2.468394228
 40
2.692793703
 40
2.917193178
 40
3.141592654
 40
3.365992129
 40
3.590391604
 40
3.814791079
 40
4.039190555
 40
4.263590030
 40
4.487989505
 40
4.712388980
 40
4.712388980
 10
102.000000000
 20
165.500000000
 30
0.000000000
 10
101.849567473
 20
165.500000000
 30
0.000000000
 10
101.405813207
 20
165.500000000
 30
0.000000000
 10
100.690988895
 20
165.500000000
 30
0.000000000
 10
99.740938811
 20
165.500000000
 30
0.000000000
 10
98.603302435
 20
165.500000000
 30
0.000000000
 10
97.335125604
 20
165.500000000
 30
0.000000000
 10
96.000000000
 20
165.500000000
 30
0.000000000
 10
94.664874396
 20
165.500000000
 30
0.000000000
 10
93.396697565
 20
165.500000000
 30
0.000000000
 10
92.259061189
 20
165.500000000
 30
0.000000000
 10
91.309011105
 20
165.500000000
 30
0.000000000
 10
90.594186793
 20
165.500000000
 30
0.000000000
 10
90.150432527
 20
165.500000000
 30
0.000000000
 10
90.000000000
 20
165.500000000
 30
0.000000000
  0
SPLINE
  5
A7A
330
A02
100
AcDbEntity
  8
ProjItem002
100
AcDbSpline
210
0
220
0
230
1
 70
8
 71
1
 72
17
 73
15
 74
0
 40
4.712388980
 40
4.712388980
 40
4.824588718
 40
4.936788456
 40
5.048988193
 40
5.161187931
 40
5.273387669
 40
5.385587406
 40
5.497787144
 40
5.609986881
 40
5.722186619
 40
5.834386357
 40
5.946586094
 40
6.058785832
 40
6.170985570
 40
6.283185307
 40
6.283185307
 10
90.000000000
 20
165.500000000
 30
0.000000000
 10
90.037726741
 20
165.500000000
 30
0.000000000
 10
90.150432527
 20
165.500000000
 30
0.000000000
 10
90.336700018
 20
165.500000000
 30
0.000000000
 10
90.594186793
 20
165.500000000
 30
0.000000000
 10
90.919654805
 20
165.500000000
 30
0.000000000
 10
91.309011105
 20
165.500000000
 30
0.000000000
 10
91.757359313
 20
165.500000000
 30
0.000000000
 10
92.259061189
 20
165.500000000
 30
0.000000000
 10
92.807807541
 20
165.500000000
 30
0.000000000
 10
93.396697565
 20
165.500000000
 30
0.000000000
 10
94.018325628
 20
165.500000000
 30
0.000000000
 10
94.664874396
 20
165.500000000
 30
0.000000000
 10
95.328213143
 20
165.500000000
 30
0.000000000
 10
96.000000000
 20
165.500000000
 30
0.000000000
  0
LINE
  5
A7B
330
A02
100
AcDbEntity
  8
ProjItem002
100
AcDbLine
 10
85.522077939
 20
144.500000000
 30
0.000000000
 11
85.522077939
 21
150.500000000
 31
0.000000000
  0
LINE
  5
A7C
330
A02
100
AcDbEntity
  8
ProjItem002
100
AcDbLine
 10
81.022077939
 20
144.500000000
 30
0.000000000
 11
81.022077939
 21
150.500000000
 31
0.000000000
  0
LINE
  5
A7D
330
A02
100
AcDbEntity
  8
ProjItem002
100
AcDbLine
 10
85.522077939
 20
144.500000000
 30
0.000000000
 11
85.522077939
 21
150.500000000
 31
0.000000000
  0
LINE
  5
A7E
330
A02
100
AcDbEntity
  8
ProjItem002
100
AcDbLine
 10
81.022077939
 20
144.500000000
 30
0.000000000
 11
81.022077939
 21
150.500000000
 31
0.000000000
  0
LINE
  5
A7F
330
A02
100
AcDbEntity
  8
ProjItem002
100
AcDbLine
 10
110.977922061
 20
144.500000000
 30
0.000000000
 11
110.977922061
 21
150.500000000
 31
0.000000000
  0
LINE
  5
A80
330
A02
100
AcDbEntity
  8
ProjItem002
100
AcDbLine
 10
106.477922061
 20
144.500000000
 30
0.000000000
 11
106.477922061
 21
150.500000000
 31
0.000000000
  0
LINE
  5
A81
330
A02
100
AcDbEntity
  8
ProjItem002
100
AcDbLine
 10
110.977922061
 20
144.500000000
 30
0.000000000
 11
110.977922061
 21
150.500000000
 31
0.000000000
  0
LINE
  5
A82
330
A02
100
AcDbEntity
  8
ProjItem002
100
AcDbLine
 10
106.477922061
 20
144.500000000
 30
0.000000000
 11
106.477922061
 21
150.500000000
 31
0.000000000
  0
LINE
  5
A83
330
A02
100
AcDbEntity
  8
ProjItem002
100
AcDbLine
 10
102.000000000
 20
144.500000000
 30
0.000000000
 11
102.000000000
 21
165.500000000
 31
0.000000000
  0
LINE
  5
A84
330
A02
100
AcDbEntity
  8
ProjItem002
100
AcDbLine
 10
90.000000000
 20
144.500000000
 30
0.000000000
 11
90.000000000
 21
165.500000000
 31
0.000000000
  0
LINE
  5
A85
330
A02
100
AcDbEntity
  8
ProjItem002
100
AcDbLine
 10
96.000000000
 20
144.000000000
 30
0.000000000
 11
96.000000000
 21
166.000000000
 31
0.000000000
  0
LINE
  5
A86
330
A02
100
AcDbEntity
  8
ProjItem002
100
AcDbLine
 10
83.272000000
 20
144.000000000
 30
0.000000000
 11
83.272000000
 21
151.000000000
 31
0.000000000
  0
LINE
  5
A87
330
A02
100
AcDbEntity
  8
ProjItem002
100
AcDbLine
 10
108.728000000
 20
144.000000000
 30
0.000000000
 11
108.728000000
 21
151.000000000
 31
0.000000000
  0
DIMENSION
  5
A88
330
A02
100
AcDbEntity
  8
DimDia0
100
AcDbDimension
  2
*DimDia0
 10
184.169584499
 20
116.271183472
 30
0.000000000
 11
201.000000000
 21
134.500000000
 31
0.000000000
 70
3
  1
⌀100
  3
STANDARD
100
AcDbDiametricDimension
 15
143.830415501
 25
86.728816528
 35
0.000000000
 40
0
  0
DIMENSION
  5
A90
330
A02
100
AcDbEntity
  8
DimDia1
100
AcDbDimension
  2
*DimDia1
 10
153.230265037
 20
89.880231037
 30
0.000000000
 11
191.522077939
 21
117.022077939
 31
0.000000000
 70
3
  1
⌀9
  3
STANDARD
100
AcDbDiametricDimension
 15
149.313890841
 25
87.663924840
 35
0.000000000
 40
0
  0
DIMENSION
  5
A98
330
A02
100
AcDbEntity
  8
DimHeight
100
AcDbDimension
  2
*DimHeight
 10
198.493642569
 20
159.326450327
 30
0.000000000
 11
201.000000000
 21
155.000000000
 31
0.000000000
 70
32
  1
42
  3
STANDARD
100
AcDbAlignedDimension
 13
189.000000000
 23
144.500000000
 33
0.000000000
 14
152.750000000
 24
165.500000000
 34
0.000000000
 50
90
100
AcDbRotatedDimension
  0
ENDSEC
  0
SECTION
  2
OBJECTS
  0
DICTIONARY
  5
F000
330
0
100
AcDbDictionary
  3
ACAD_GROUP
350
F001
  0
DICTIONARY
  5
F001
330
F000
100
AcDbDictionary
  0
ENDSEC
  0
EOF