# generated by make_answer.py
o BooleanResult
v 0.500000 0.866025 0.000000
v 0.482963 0.866025 0.129410
v 0.433013 0.866025 0.250000
v 0.353553 0.866025 0.353553
v 0.250000 0.866025 0.433013
v 0.129410 0.866025 0.482963
v 0.000000 0.866025 0.500000
v -0.129410 0.866025 0.482963
v -0.250000 0.866025 0.433013
v -0.353553 0.866025 0.353553
v -0.433013 0.866025 0.250000
v -0.482963 0.866025 0.129410
v -0.500000 0.866025 0.000000
v -0.482963 0.866025 -0.129410
v -0.433013 0.866025 -0.250000
v -0.353553 0.866025 -0.353553
v -0.250000 0.866025 -0.433013
v -0.129410 0.866025 -0.482963
v -0.000000 0.866025 -0.500000
v 0.129410 0.866025 -0.482963
v 0.250000 0.866025 -0.433013
v 0.353553 0.866025 -0.353553
v 0.433013 0.866025 -0.250000
v 0.482963 0.866025 -0.129410
v 0.707107 0.707107 0.000000
v 0.683013 0.707107 0.183013
v 0.612372 0.707107 0.353553
v 0.500000 0.707107 0.500000
v 0.353553 0.707107 0.612372
v 0.183013 0.707107 0.683013
v 0.000000 0.707107 0.707107
v -0.183013 0.707107 0.683013
v -0.353553 0.707107 0.612372
v -0.500000 0.707107 0.500000
v -0.612372 0.707107 0.353553
v -0.683013 0.707107 0.183013
v -0.707107 0.707107 0.000000
v -0.683013 0.707107 -0.183013
v -0.612372 0.707107 -0.353553
v -0.500000 0.707107 -0.500000
v -0.353553 0.707107 -0.612372
v -0.183013 0.707107 -0.683013
v -0.000000 0.707107 -0.707107
v 0.183013 0.707107 -0.683013
v 0.353553 0.707107 -0.612372
v 0.500000 0.707107 -0.500000
v 0.612372 0.707107 -0.353553
v 0.683013 0.707107 -0.183013
v 0.866025 0.500000 0.000000
v 0.836516 0.500000 0.224144
v 0.750000 0.500000 0.433013
v 0.612372 0.500000 0.612372
v 0.433013 0.500000 0.750000
v 0.224144 0.500000 0.836516
v 0.000000 0.500000 0.866025
v -0.224144 0.500000 0.836516
v -0.433013 0.500000 0.750000
v -0.612372 0.500000 0.612372
v -0.750000 0.500000 0.433013
v -0.836516 0.500000 0.224144
v -0.866025 0.500000 0.000000
v -0.836516 0.500000 -0.224144
v -0.750000 0.500000 -0.433013
v -0.612372 0.500000 -0.612372
v -0.433013 0.500000 -0.750000
v -0.224144 0.500000 -0.836516
v -0.000000 0.500000 -0.866025
v 0.224144 0.500000 -0.836516
v 0.433013 0.500000 -0.750000
v 0.612372 0.500000 -0.612372
v 0.750000 0.500000 -0.433013
v 0.836516 0.500000 -0.224144
v 0.965926 0.258819 0.000000
v 0.933013 0.258819 0.250000
v 0.836516 0.258819 0.482963
v 0.683013 0.258819 0.683013
v 0.482963 0.258819 0.836516
v 0.250000 0.258819 0.933013
v 0.000000 0.258819 0.965926
v -0.250000 0.258819 0.933013
v -0.482963 0.258819 0.836516
v -0.683013 0.258819 0.683013
v -0.836516 0.258819 0.482963
v -0.933013 0.258819 0.250000
v -0.965926 0.258819 0.000000
v -0.933013 0.258819 -0.250000
v -0.836516 0.258819 -0.482963
v -0.683013 0.258819 -0.683013
v -0.482963 0.258819 -0.836516
v -0.250000 0.258819 -0.933013
v -0.000000 0.258819 -0.965926
v 0.250000 0.258819 -0.933013
v 0.482963 0.258819 -0.836516
v 0.683013 0.258819 -0.683013
v 0.836516 0.258819 -0.482963
v 0.933013 0.258819 -0.250000
v 1.000000 0.000000 0.000000
v 0.965926 0.000000 0.258819
v 0.866025 0.000000 0.500000
v 0.707107 0.000000 0.707107
v 0.500000 0.000000 0.866025
v 0.258819 0.000000 0.965926
v 0.000000 0.000000 1.000000
v -0.258819 0.000000 0.965926
v -0.500000 0.000000 0.866025
v -0.707107 0.000000 0.707107
v -0.866025 0.000000 0.500000
v -0.965926 0.000000 0.258819
v -1.000000 0.000000 0.000000
v -0.965926 0.000000 -0.258819
v -0.866025 0.000000 -0.500000
v -0.707107 0.000000 -0.707107
v -0.500000 0.000000 -0.866025
v -0.258819 0.000000 -0.965926
v -0.000000 0.000000 -1.000000
v 0.258819 0.000000 -0.965926
v 0.500000 0.000000 -0.866025
v 0.707107 0.000000 -0.707107
v 0.866025 0.000000 -0.500000
v 0.965926 0.000000 -0.258819
v 0.965926 -0.258819 0.000000
v 0.933013 -0.258819 0.250000
v 0.836516 -0.258819 0.482963
v 0.683013 -0.258819 0.683013
v 0.482963 -0.258819 0.836516
v 0.250000 -0.258819 0.933013
v 0.000000 -0.258819 0.965926
v -0.250000 -0.258819 0.933013
v -0.482963 -0.258819 0.836516
v -0.683013 -0.258819 0.683013
v -0.836516 -0.258819 0.482963
v -0.933013 -0.258819 0.250000
v -0.965926 -0.258819 0.000000
v -0.933013 -0.258819 -0.250000
v -0.836516 -0.258819 -0.482963
v -0.683013 -0.258819 -0.683013
v -0.482963 -0.258819 -0.836516
v -0.250000 -0.258819 -0.933013
v -0.000000 -0.258819 -0.965926
v 0.250000 -0.258819 -0.933013
v 0.482963 -0.258819 -0.836516
v 0.683013 -0.258819 -0.683013
v 0.836516 -0.258819 -0.482963
v 0.933013 -0.258819 -0.250000
v 0.866025 -0.500000 0.000000
v 0.836516 -0.500000 0.224144
v 0.750000 -0.500000 0.433013
v 0.612372 -0.500000 0.612372
v 0.433013 -0.500000 0.750000
v 0.224144 -0.500000 0.836516
v 0.000000 -0.500000 0.866025
v -0.224144 -0.500000 0.836516
v -0.433013 -0.500000 0.750000
v -0.612372 -0.500000 0.612372
v -0.750000 -0.500000 0.433013
v -0.836516 -0.500000 0.224144
v -0.866025 -0.500000 0.000000
v -0.836516 -0.500000 -0.224144
v -0.750000 -0.500000 -0.433013
v -0.612372 -0.500000 -0.612372
v -0.433013 -0.500000 -0.750000
v -0.224144 -0.500000 -0.836516
v -0.000000 -0.500000 -0.866025
v 0.224144 -0.500000 -0.836516
v 0.433013 -0.500000 -0.750000
v 0.612372 -0.500000 -0.612372
v 0.750000 -0.500000 -0.433013
v 0.836516 -0.500000 -0.224144
v 0.707107 -0.707107 0.000000
v 0.683013 -0.707107 0.183013
v 0.612372 -0.707107 0.353553
v 0.500000 -0.707107 0.500000
v 0.353553 -0.707107 0.612372
v 0.183013 -0.707107 0.683013
v 0.000000 -0.707107 0.707107
v -0.183013 -0.707107 0.683013
v -0.353553 -0.707107 0.612372
v -0.500000 -0.707107 0.500000
v -0.612372 -0.707107 0.353553
v -0.683013 -0.707107 0.183013
v -0.707107 -0.707107 0.000000
v -0.683013 -0.707107 -0.183013
v -0.612372 -0.707107 -0.353553
v -0.500000 -0.707107 -0.500000
v -0.353553 -0.707107 -0.612372
v -0.183013 -0.707107 -0.683013
v -0.000000 -0.707107 -0.707107
v 0.183013 -0.707107 -0.683013
v 0.353553 -0.707107 -0.612372
v 0.500000 -0.707107 -0.500000
v 0.612372 -0.707107 -0.353553
v 0.683013 -0.707107 -0.183013
v 0.500000 -0.866025 0.000000
v 0.482963 -0.866025 0.129410
v 0.433013 -0.866025 0.250000
v 0.353553 -0.866025 0.353553
v 0.250000 -0.866025 0.433013
v 0.129410 -0.866025 0.482963
v 0.000000 -0.866025 0.500000
v -0.129410 -0.866025 0.482963
v -0.250000 -0.866025 0.433013
v -0.353553 -0.866025 0.353553
v -0.433013 -0.866025 0.250000
v -0.482963 -0.866025 0.129410
v -0.500000 -0.866025 0.000000
v -0.482963 -0.866025 -0.129410
v -0.433013 -0.866025 -0.250000
v -0.353553 -0.866025 -0.353553
v -0.250000 -0.866025 -0.433013
v -0.129410 -0.866025 -0.482963
v -0.000000 -0.866025 -0.500000
v 0.129410 -0.866025 -0.482963
v 0.250000 -0.866025 -0.433013
v 0.353553 -0.866025 -0.353553
v 0.433013 -0.866025 -0.250000
v 0.482963 -0.866025 -0.129410
v 0.400000 0.916515 0.000000
v 0.386370 0.916515 0.103528
v 0.346410 0.916515 0.200000
v 0.282843 0.916515 0.282843
v 0.200000 0.916515 0.346410
v 0.103528 0.916515 0.386370
v 0.000000 0.916515 0.400000
v -0.103528 0.916515 0.386370
v -0.200000 0.916515 0.346410
v -0.282843 0.916515 0.282843
v -0.346410 0.916515 0.200000
v -0.386370 0.916515 0.103528
v -0.400000 0.916515 0.000000
v -0.386370 0.916515 -0.103528
v -0.346410 0.916515 -0.200000
v -0.282843 0.916515 -0.282843
v -0.200000 0.916515 -0.346410
v -0.103528 0.916515 -0.386370
v -0.000000 0.916515 -0.400000
v 0.103528 0.916515 -0.386370
v 0.200000 0.916515 -0.346410
v 0.282843 0.916515 -0.282843
v 0.346410 0.916515 -0.200000
v 0.386370 0.916515 -0.103528
v 0.400000 -0.916515 0.000000
v 0.386370 -0.916515 0.103528
v 0.346410 -0.916515 0.200000
v 0.282843 -0.916515 0.282843
v 0.200000 -0.916515 0.346410
v 0.103528 -0.916515 0.386370
v 0.000000 -0.916515 0.400000
v -0.103528 -0.916515 0.386370
v -0.200000 -0.916515 0.346410
v -0.282843 -0.916515 0.282843
v -0.346410 -0.916515 0.200000
v -0.386370 -0.916515 0.103528
v -0.400000 -0.916515 0.000000
v -0.386370 -0.916515 -0.103528
v -0.346410 -0.916515 -0.200000
v -0.282843 -0.916515 -0.282843
v -0.200000 -0.916515 -0.346410
v -0.103528 -0.916515 -0.386370
v -0.000000 -0.916515 -0.400000
v 0.103528 -0.916515 -0.386370
v 0.200000 -0.916515 -0.346410
v 0.282843 -0.916515 -0.282843
v 0.346410 -0.916515 -0.200000
v 0.386370 -0.916515 -0.103528
g default
f 217 1 2 218
f 218 2 3 219
f 219 3 4 220
f 220 4 5 221
f 221 5 6 222
f 222 6 7 223
f 223 7 8 224
f 224 8 9 225
f 225 9 10 226
f 226 10 11 227
f 227 11 12 228
f 228 12 13 229
f 229 13 14 230
f 230 14 15 231
f 231 15 16 232
f 232 16 17 233
f 233 17 18 234
f 234 18 19 235
f 235 19 20 236
f 236 20 21 237
f 237 21 22 238
f 238 22 23 239
f 239 23 24 240
f 240 24 1 217
f 1 25 26 2
f 2 26 27 3
f 3 27 28 4
f 4 28 29 5
f 5 29 30 6
f 6 30 31 7
f 7 31 32 8
f 8 32 33 9
f 9 33 34 10
f 10 34 35 11
f 11 35 36 12
f 12 36 37 13
f 13 37 38 14
f 14 38 39 15
f 15 39 40 16
f 16 40 41 17
f 17 41 42 18
f 18 42 43 19
f 19 43 44 20
f 20 44 45 21
f 21 45 46 22
f 22 46 47 23
f 23 47 48 24
f 24 48 25 1
f 25 49 50 26
f 26 50 51 27
f 27 51 52 28
f 28 52 53 29
f 29 53 54 30
f 30 54 55 31
f 31 55 56 32
f 32 56 57 33
f 33 57 58 34
f 34 58 59 35
f 35 59 60 36
f 36 60 61 37
f 37 61 62 38
f 38 62 63 39
f 39 63 64 40
f 40 64 65 41
f 41 65 66 42
f 42 66 67 43
f 43 67 68 44
f 44 68 69 45
f 45 69 70 46
f 46 70 71 47
f 47 71 72 48
f 48 72 49 25
f 49 73 74 50
f 50 74 75 51
f 51 75 76 52
f 52 76 77 53
f 53 77 78 54
f 54 78 79 55
f 55 79 80 56
f 56 80 81 57
f 57 81 82 58
f 58 82 83 59
f 59 83 84 60
f 60 84 85 61
f 61 85 86 62
f 62 86 87 63
f 63 87 88 64
f 64 88 89 65
f 65 89 90 66
f 66 90 91 67
f 67 91 92 68
f 68 92 93 69
f 69 93 94 70
f 70 94 95 71
f 71 95 96 72
f 72 96 73 49
f 73 97 98 74
f 74 98 99 75
f 75 99 100 76
f 76 100 101 77
f 77 101 102 78
f 78 102 103 79
f 79 103 104 80
f 80 104 105 81
f 81 105 106 82
f 82 106 107 83
f 83 107 108 84
f 84 108 109 85
f 85 109 110 86
f 86 110 111 87
f 87 111 112 88
f 88 112 113 89
f 89 113 114 90
f 90 114 115 91
f 91 115 116 92
f 92 116 117 93
f 93 117 118 94
f 94 118 119 95
f 95 119 120 96
f 96 120 97 73
f 97 121 122 98
f 98 122 123 99
f 99 123 124 100
f 100 124 125 101
f 101 125 126 102
f 102 126 127 103
f 103 127 128 104
f 104 128 129 105
f 105 129 130 106
f 106 130 131 107
f 107 131 132 108
f 108 132 133 109
f 109 133 134 110
f 110 134 135 111
f 111 135 136 112
f 112 136 137 113
f 113 137 138 114
f 114 138 139 115
f 115 139 140 116
f 116 140 141 117
f 117 141 142 118
f 118 142 143 119
f 119 143 144 120
f 120 144 121 97
f 121 145 146 122
f 122 146 147 123
f 123 147 148 124
f 124 148 149 125
f 125 149 150 126
f 126 150 151 127
f 127 151 152 128
f 128 152 153 129
f 129 153 154 130
f 130 154 155 131
f 131 155 156 132
f 132 156 157 133
f 133 157 158 134
f 134 158 159 135
f 135 159 160 136
f 136 160 161 137
f 137 161 162 138
f 138 162 163 139
f 139 163 164 140
f 140 164 165 141
f 141 165 166 142
f 142 166 167 143
f 143 167 168 144
f 144 168 145 121
f 145 169 170 146
f 146 170 171 147
f 147 171 172 148
f 148 172 173 149
f 149 173 174 150
f 150 174 175 151
f 151 175 176 152
f 152 176 177 153
f 153 177 178 154
f 154 178 179 155
f 155 179 180 156
f 156 180 181 157
f 157 181 182 158
f 158 182 183 159
f 159 183 184 160
f 160 184 185 161
f 161 185 186 162
f 162 186 187 163
f 163 187 188 164
f 164 188 189 165
f 165 189 190 166
f 166 190 191 167
f 167 191 192 168
f 168 192 169 145
f 169 193 194 170
f 170 194 195 171
f 171 195 196 172
f 172 196 197 173
f 173 197 198 174
f 174 198 199 175
f 175 199 200 176
f 176 200 201 177
f 177 201 202 178
f 178 202 203 179
f 179 203 204 180
f 180 204 205 181
f 181 205 206 182
f 182 206 207 183
f 183 207 208 184
f 184 208 209 185
f 185 209 210 186
f 186 210 211 187
f 187 211 212 188
f 188 212 213 189
f 189 213 214 190
f 190 214 215 191
f 191 215 216 192
f 192 216 193 169
f 193 241 242 194
f 194 242 243 195
f 195 243 244 196
f 196 244 245 197
f 197 245 246 198
f 198 246 247 199
f 199 247 248 200
f 200 248 249 201
f 201 249 250 202
f 202 250 251 203
f 203 251 252 204
f 204 252 253 205
f 205 253 254 206
f 206 254 255 207
f 207 255 256 208
f 208 256 257 209
f 209 257 258 210
f 210 258 259 211
f 211 259 260 212
f 212 260 261 213
f 213 261 262 214
f 214 262 263 215
f 215 263 264 216
f 216 264 241 193
f 217 218 242 241
f 218 219 243 242
f 219 220 244 243
f 220 221 245 244
f 221 222 246 245
f 222 223 247 246
f 223 224 248 247
f 224 225 249 248
f 225 226 250 249
f 226 227 251 250
f 227 228 252 251
f 228 229 253 252
f 229 230 254 253
f 230 231 255 254
f 231 232 256 255
f 232 233 257 256
f 233 234 258 257
f 234 235 259 258
f 235 236 260 259
f 236 237 261 260
f 237 238 262 261
f 238 239 263 262
f 239 240 264 263
f 240 217 241 264
