ISO-10303-21;
HEADER;
FILE_DESCRIPTION(('ViewDefinition [CoordinationView_V2.0, QuantityTakeOffAddOnView]','RevitIdentifiers [VersionGUID: 0ef4e6d7-2712-47e1-8e34-f0daf272fe8a, NumberOfSaves: 0]'),'2;1');
FILE_NAME('result.ifc','2026-06-08T12:49:52+08:00',(''),(''),'ODA SDAI 24.12','Autodesk Revit 25.1.0.44 (ENU) - IFC 25.1.0.44','');
FILE_SCHEMA(('IFC4'));
ENDSEC;

DATA;
#1=IFCORGANIZATION($,'Autodesk Revit 2025 (ENU)',$,$,$);
#2=IFCAPPLICATION(#1,'2025','Autodesk Revit 2025 (ENU)','Revit');
#3=IFCCARTESIANPOINT((0.,0.,0.));
#4=IFCCARTESIANPOINT((0.,0.));
#5=IFCDIRECTION((1.,0.,0.));
#6=IFCDIRECTION((-1.,0.,0.));
#7=IFCDIRECTION((0.,1.,0.));
#8=IFCDIRECTION((0.,-1.,0.));
#9=IFCDIRECTION((0.,0.,1.));
#10=IFCDIRECTION((0.,0.,-1.));
#11=IFCDIRECTION((1.,0.));
#12=IFCDIRECTION((-1.,0.));
#13=IFCDIRECTION((0.,1.));
#14=IFCDIRECTION((0.,-1.));
#15=IFCPERSON($,'','user',$,$,$,$,$);
#16=IFCORGANIZATION($,'','',$,$);
#17=IFCPERSONANDORGANIZATION(#15,#16,$);
#18=IFCOWNERHISTORY(#17,#2,$,.NOCHANGE.,$,$,$,1780894192);
#19=IFCSIUNIT(*,.LENGTHUNIT.,.MILLI.,.METRE.);
#20=IFCAXIS2PLACEMENT3D(#3,$,$);
#21=IFCDIRECTION((6.123233995736766E-017,1.));
#22=IFCGEOMETRICREPRESENTATIONCONTEXT($,'Model',3,0.01,#20,#21);
#23=IFCGEOMETRICREPRESENTATIONSUBCONTEXT('Axis','Model',*,*,*,*,#22,$,.GRAPH_VIEW.,$);
#24=IFCGEOMETRICREPRESENTATIONSUBCONTEXT('Body','Model',*,*,*,*,#22,$,.MODEL_VIEW.,$);
#25=IFCGEOMETRICREPRESENTATIONSUBCONTEXT('Box','Model',*,*,*,*,#22,$,.MODEL_VIEW.,$);
#26=IFCGEOMETRICREPRESENTATIONSUBCONTEXT('FootPrint','Model',*,*,*,*,#22,$,.MODEL_VIEW.,$);
#27=IFCPROJECT('0AspZkvLj0GukejsXBB1PS',#18,'c-revit-task-11-result',$,$,'Training Centre Strip result','',(#22),#1031);
#28=IFCCLASSIFICATION('CSI (Construction Specifications Institute)','1998',$,'Uniformat','UniFormat Classification','https://www.csiresources.org/standards/uniformat',$);
#29=IFCAXIS2PLACEMENT3D(#3,$,$);
#30=IFCLOCALPLACEMENT(#37,#29);
#31=IFCPOSTALADDRESS($,$,$,$,$,$,'','','','');
#32=IFCBUILDING('0AspZkvLj0GukejsXBB1PT',#18,'',$,$,#30,$,'',.ELEMENT.,$,$,#31);
#33=IFCAXIS2PLACEMENT3D(#3,$,$);
#34=IFCLOCALPLACEMENT(#30,#33);
#35=IFCBUILDINGSTOREY('0EzERN9n97uOuqyDhoSlaL',#18,'Ground Floor',$,'Level:Level 1',#34,$,'Ground Floor',.ELEMENT.,0.);
#36=IFCAXIS2PLACEMENT3D(#3,$,$);
#37=IFCLOCALPLACEMENT($,#36);
#38=IFCSITE('0AspZkvLj0GukejsXBB1PU',#18,'Default',$,$,#37,$,$,.ELEMENT.,(42,24,53,508911),(-71,-15,-29,-58837),0.,$,$);
#39=IFCPROPERTYSINGLEVALUE('Reference',$,IFCIDENTIFIER('Project Information'),$);
#40=IFCPROPERTYSET('1xHdzDHf1IIETe6vancrRm',#18,'Pset_SiteCommon',$,(#39));
#41=IFCRELDEFINESBYPROPERTIES('1VcgWLceHwIJ9ntFz8wC8S',#18,$,$,(#38),#40);
#42=IFCSIUNIT(*,.AREAUNIT.,$,.SQUARE_METRE.);
#43=IFCPROPERTYSINGLEVALUE('Category',$,IFCLABEL('Project Information'),$);
#44=IFCPROPERTYSINGLEVALUE('Project Name',$,IFCTEXT('Training Centre Strip result'),$);
#45=IFCPROPERTYSINGLEVALUE('Project Number',$,IFCTEXT('c-revit-task-11-result'),$);
#46=IFCPROPERTYSET('0ryHFAVF1w35hMdFcMFt1R',#18,'Other',$,(#43,#44,#45));
#47=IFCAXIS2PLACEMENT3D(#3,$,$);
#48=IFCLOCALPLACEMENT(#34,#47);
#49=IFCCARTESIANPOINT((0.,0.));
#50=IFCAXIS2PLACEMENT2D(#49,#11);
#51=IFCRECTANGLEPROFILEDEF(.AREA.,$,#50,4800.,7799.9999999999991);
#52=IFCCARTESIANPOINT((2500.,4000.,0.));
#53=IFCAXIS2PLACEMENT3D(#52,$,$);
#54=IFCEXTRUDEDAREASOLID(#51,#53,#9,2438.4000000000001);
#55=IFCSIUNIT(*,.PLANEANGLEUNIT.,$,.RADIAN.);
#56=IFCDIMENSIONALEXPONENTS(0,0,0,0,0,0,0);
#57=IFCMEASUREWITHUNIT(IFCPLANEANGLEMEASURE(0.017453292519943278),#55);
#58=IFCCONVERSIONBASEDUNIT(#56,.PLANEANGLEUNIT.,'DEGREE',#57);
#59=IFCSHAPEREPRESENTATION(#24,'Body','SweptSolid',(#54));
#60=IFCPRODUCTDEFINITIONSHAPE($,$,(#59));
#61=IFCSPACE('0EzERN9n97uOuqyDhoSlH_',#18,'G01',$,$,#48,#60,'Foyer',.ELEMENT.,.NOTDEFINED.,$);
#62=IFCSPACETYPE('0EzERN9n97uOuq_DhoSlH_',#18,'Foyer G01:2804',$,$,$,$,'2804',$,.NOTDEFINED.,$);
#63=IFCCARTESIANPOINT((100.,100.,0.));
#64=IFCCARTESIANPOINT((7800.,0.));
#65=IFCCARTESIANPOINT((7800.,4800.));
#66=IFCCARTESIANPOINT((0.,4800.));
#67=IFCPOLYLINE((#4,#64,#65,#66,#4));
#68=IFCAXIS2PLACEMENT3D(#63,#10,#7);
#69=IFCPLANE(#68);
#70=IFCCURVEBOUNDEDPLANE(#69,#67,$);
#71=IFCCONNECTIONSURFACEGEOMETRY(#70,$);
#72=IFCCARTESIANPOINT((100.,100.));
#73=IFCCARTESIANPOINT((4900.,100.));
#74=IFCPOLYLINE((#72,#73));
#75=IFCARBITRARYOPENPROFILEDEF(.CURVE.,$,#74);
#76=IFCAXIS2PLACEMENT3D(#3,$,$);
#77=IFCSURFACEOFLINEAREXTRUSION(#75,#76,#9,2438.4000000000001);
#78=IFCCONNECTIONSURFACEGEOMETRY(#77,$);
#79=IFCCARTESIANPOINT((4900.,100.));
#80=IFCCARTESIANPOINT((4900.,7900.));
#81=IFCPOLYLINE((#79,#80));
#82=IFCARBITRARYOPENPROFILEDEF(.CURVE.,$,#81);
#83=IFCAXIS2PLACEMENT3D(#3,$,$);
#84=IFCSURFACEOFLINEAREXTRUSION(#82,#83,#9,2438.4000000000001);
#85=IFCCONNECTIONSURFACEGEOMETRY(#84,$);
#86=IFCCARTESIANPOINT((4900.,7900.));
#87=IFCCARTESIANPOINT((100.,7900.));
#88=IFCPOLYLINE((#86,#87));
#89=IFCARBITRARYOPENPROFILEDEF(.CURVE.,$,#88);
#90=IFCAXIS2PLACEMENT3D(#3,$,$);
#91=IFCSURFACEOFLINEAREXTRUSION(#89,#90,#9,2438.4000000000001);
#92=IFCCONNECTIONSURFACEGEOMETRY(#91,$);
#93=IFCCARTESIANPOINT((100.,7900.));
#94=IFCCARTESIANPOINT((100.,100.));
#95=IFCPOLYLINE((#93,#94));
#96=IFCARBITRARYOPENPROFILEDEF(.CURVE.,$,#95);
#97=IFCAXIS2PLACEMENT3D(#3,$,$);
#98=IFCSURFACEOFLINEAREXTRUSION(#96,#97,#9,2438.4000000000001);
#99=IFCCONNECTIONSURFACEGEOMETRY(#98,$);
#100=IFCPROPERTYSINGLEVALUE('Name',$,IFCLABEL('Foyer'),$);
#101=IFCPROPERTYSET('35NWLurgy6XoxijeEo$909',#18,'Pset_AirSideSystemInformation',$,(#100));
#102=IFCPROPERTYSINGLEVALUE('Reference',$,IFCIDENTIFIER('Foyer G01'),$);
#103=IFCPROPERTYSINGLEVALUE('IsExternal',$,IFCBOOLEAN(.F.),$);
#104=IFCPROPERTYSET('0OQ9k4NKbmwJGPH1T_vh23',#18,'Pset_SpaceCommon',$,(#102,#103));
#105=IFCPROPERTYSET('1FsUXYFJcQ8$4SQB1$xKqB',#18,'Pset_SpaceHeaterTypeCommon',$,(#102));
#106=IFCRELDEFINESBYPROPERTIES('1HeLbZD_9SuoISsgyuO6q6',#18,$,$,(#61),#101);
#107=IFCRELDEFINESBYPROPERTIES('0K31tl_732sOl0UicZ5Mpt',#18,$,$,(#61),#104);
#108=IFCRELDEFINESBYPROPERTIES('3m$b2yiRcquzLs8Byibyxd',#18,$,$,(#61),#105);
#109=IFCQUANTITYLENGTH('Height','',$,2438.4000000000001,$);
#110=IFCQUANTITYAREA('GrossFloorArea','',$,37.439999999999998,$);
#111=IFCQUANTITYAREA('NetFloorArea','',$,37.439999999999998,$);
#112=IFCQUANTITYAREA('GrossCeilingArea','',$,37.439999999999998,$);
#113=IFCSIUNIT(*,.VOLUMEUNIT.,$,.CUBIC_METRE.);
#114=IFCQUANTITYVOLUME('GrossVolume','',$,91.293696000000011,$);
#115=IFCQUANTITYVOLUME('NetVolume','',$,91.293696000000011,$);
#116=IFCELEMENTQUANTITY('2db7zjvIFcbxjbXI7cu6BW',#18,'Qto_SpaceBaseQuantities',$,$,(#109,#110,#111,#112,#114,#115));
#117=IFCRELDEFINESBYPROPERTIES('1UXf2IyEzPgCxfMLTNCJvd',#18,$,$,(#61),#116);
#118=IFCPROPERTYSINGLEVALUE('Category',$,IFCLABEL('Rooms'),$);
#119=IFCPROPERTYSINGLEVALUE('Phase Id',$,IFCLABEL('4'),$);
#120=IFCPROPERTYSINGLEVALUE('Base Offset',$,IFCLENGTHMEASURE(0.),$);
#121=IFCPROPERTYSINGLEVALUE('Level',$,IFCTEXT('Ground Floor'),$);
#122=IFCPROPERTYSINGLEVALUE('Limit Offset',$,IFCLENGTHMEASURE(0.026246719160104987),$);
#123=IFCPROPERTYSINGLEVALUE('Upper Limit',$,IFCLABEL('Ground Floor'),$);
#124=IFCPROPERTYSINGLEVALUE('Area',$,IFCAREAMEASURE(37.439999999999998),$);
#125=IFCPROPERTYSINGLEVALUE('Computation Height',$,IFCLENGTHMEASURE(0.),$);
#126=IFCPROPERTYSINGLEVALUE('Perimeter',$,IFCLENGTHMEASURE(25199.999999999996),$);
#127=IFCPROPERTYSINGLEVALUE('Unbounded Height',$,IFCLENGTHMEASURE(0.026246719160104987),$);
#128=IFCPROPERTYSINGLEVALUE('Volume',$,IFCVOLUMEMEASURE(91.293696000000011),$);
#129=IFCSIUNIT(*,.POWERUNIT.,$,.WATT.);
#130=IFCPROPERTYSINGLEVALUE('Actual Lighting Load',$,IFCPOWERMEASURE(0.),$);
#131=IFCSIUNIT(*,.MASSUNIT.,.KILO.,.GRAM.);
#132=IFCDERIVEDUNITELEMENT(#131,1);
#133=IFCSIUNIT(*,.TIMEUNIT.,$,.SECOND.);
#134=IFCDERIVEDUNITELEMENT(#133,-3);
#135=IFCDERIVEDUNIT((#132,#134),.USERDEFINED.,'Electrical Power Density');
#136=IFCPROPERTYSINGLEVALUE('Actual Lighting Load per area',$,IFCREAL(0.),#135);
#137=IFCPROPERTYSINGLEVALUE('Actual Power Load',$,IFCPOWERMEASURE(0.),$);
#138=IFCPROPERTYSINGLEVALUE('Actual Power Load per area',$,IFCREAL(0.),#135);
#139=IFCPROPERTYSINGLEVALUE('Area per Person',$,IFCAREAMEASURE(28.571428571428573),$);
#140=IFCPROPERTYSINGLEVALUE('Base Lighting Load on',$,IFCIDENTIFIER('By Space Type'),$);
#141=IFCPROPERTYSINGLEVALUE('Base Power Load on',$,IFCIDENTIFIER('By Space Type'),$);
#142=IFCPROPERTYSINGLEVALUE('Heat Load Values',$,IFCIDENTIFIER('By Space Type'),$);
#143=IFCPROPERTYSINGLEVALUE('Latent Heat Gain per person',$,IFCPOWERMEASURE(58.614214034444437),$);
#144=IFCPROPERTYSINGLEVALUE('Lighting Load Units',$,IFCIDENTIFIER('Power Density'),$);
#145=IFCPROPERTYSINGLEVALUE('Number of People',$,IFCREAL(0.),$);
#146=IFCPROPERTYSINGLEVALUE('Plenum Lighting Contribution',$,IFCPOSITIVERATIOMEASURE(0.20000000000000001),$);
#147=IFCPROPERTYSINGLEVALUE('Power Load Units',$,IFCIDENTIFIER('Power Density'),$);
#148=IFCPROPERTYSINGLEVALUE('Sensible Heat Gain per person',$,IFCPOWERMEASURE(73.267767543055555),$);
#149=IFCPROPERTYSINGLEVALUE('Specified Lighting Load',$,IFCPOWERMEASURE(0.),$);
#150=IFCPROPERTYSINGLEVALUE('Specified Lighting Load per area',$,IFCREAL(10.763910416709722),#135);
#151=IFCPROPERTYSINGLEVALUE('Specified Power Load',$,IFCPOWERMEASURE(0.),$);
#152=IFCPROPERTYSINGLEVALUE('Specified Power Load per area',$,IFCREAL(13.993083541722639),#135);
#153=IFCPROPERTYSINGLEVALUE('Total Heat Gain per person',$,IFCPOWERMEASURE(131.88198157749997),$);
#154=IFCPROPERTYSINGLEVALUE('Name',$,IFCTEXT('Foyer'),$);
#155=IFCPROPERTYSINGLEVALUE('Number',$,IFCTEXT('G01'),$);
#156=IFCPROPERTYSINGLEVALUE('Phase',$,IFCLABEL('New Construction'),$);
#157=IFCPROPERTYSET('3fUI$cKXj7v5VbqaPTYcVQ',#18,'Other',$,(#118,#119));
#158=IFCPROPERTYSET('3NeoYSKSV5$Ht2Rx51HpSk',#18,'Constraints',$,(#120,#121,#122,#123));
#159=IFCPROPERTYSET('0kwRaLARxsWuuwNBKClc0J',#18,'Dimensions',$,(#124,#125,#126,#127,#128));
#160=IFCPROPERTYSET('03IauSruAdNrdm31d2kd_h',#18,'Energy Analysis',$,(#130,#136,#137,#138,#139,#140,#141,#142,#143,#144,#145,#146,#147,#148,#149,#150,#151,#152,#153));
#161=IFCPROPERTYSET('0GvyKANM_M_eodrtQSeg3u',#18,'Identity Data',$,(#154,#155));
#162=IFCPROPERTYSET('1yref2pdWLY_12tqm9Re$x',#18,'Phasing',$,(#156));
#163=IFCAXIS2PLACEMENT3D(#3,$,$);
#164=IFCLOCALPLACEMENT(#34,#163);
#165=IFCCARTESIANPOINT((-6.8212102632969618E-013,0.));
#166=IFCAXIS2PLACEMENT2D(#165,#11);
#167=IFCRECTANGLEPROFILEDEF(.AREA.,$,#166,4800.0000000000018,7799.9999999999991);
#168=IFCCARTESIANPOINT((7500.,4000.,0.));
#169=IFCAXIS2PLACEMENT3D(#168,$,$);
#170=IFCEXTRUDEDAREASOLID(#167,#169,#9,2438.4000000000001);
#171=IFCSHAPEREPRESENTATION(#24,'Body','SweptSolid',(#170));
#172=IFCPRODUCTDEFINITIONSHAPE($,$,(#171));
#173=IFCSPACE('0EzERN9n97uOuqyDhoSlHy',#18,'G02',$,$,#164,#172,'Classroom A',.ELEMENT.,.NOTDEFINED.,$);
#174=IFCSPACETYPE('0EzERN9n97uOuq_DhoSlHy',#18,'Classroom A G02:2806',$,$,$,$,'2806',$,.NOTDEFINED.,$);
#175=IFCCARTESIANPOINT((5100.,100.,0.));
#176=IFCCARTESIANPOINT((7800.,0.));
#177=IFCCARTESIANPOINT((7800.,4800.));
#178=IFCCARTESIANPOINT((0.,4800.));
#179=IFCPOLYLINE((#4,#176,#177,#178,#4));
#180=IFCAXIS2PLACEMENT3D(#175,#10,#7);
#181=IFCPLANE(#180);
#182=IFCCURVEBOUNDEDPLANE(#181,#179,$);
#183=IFCCONNECTIONSURFACEGEOMETRY(#182,$);
#184=IFCCARTESIANPOINT((5100.,100.));
#185=IFCCARTESIANPOINT((9900.,100.));
#186=IFCPOLYLINE((#184,#185));
#187=IFCARBITRARYOPENPROFILEDEF(.CURVE.,$,#186);
#188=IFCAXIS2PLACEMENT3D(#3,$,$);
#189=IFCSURFACEOFLINEAREXTRUSION(#187,#188,#9,2438.4000000000001);
#190=IFCCONNECTIONSURFACEGEOMETRY(#189,$);
#191=IFCCARTESIANPOINT((9900.,100.));
#192=IFCCARTESIANPOINT((9900.,7900.));
#193=IFCPOLYLINE((#191,#192));
#194=IFCARBITRARYOPENPROFILEDEF(.CURVE.,$,#193);
#195=IFCAXIS2PLACEMENT3D(#3,$,$);
#196=IFCSURFACEOFLINEAREXTRUSION(#194,#195,#9,2438.4000000000001);
#197=IFCCONNECTIONSURFACEGEOMETRY(#196,$);
#198=IFCCARTESIANPOINT((9900.,7900.));
#199=IFCCARTESIANPOINT((5100.,7900.));
#200=IFCPOLYLINE((#198,#199));
#201=IFCARBITRARYOPENPROFILEDEF(.CURVE.,$,#200);
#202=IFCAXIS2PLACEMENT3D(#3,$,$);
#203=IFCSURFACEOFLINEAREXTRUSION(#201,#202,#9,2438.4000000000001);
#204=IFCCONNECTIONSURFACEGEOMETRY(#203,$);
#205=IFCCARTESIANPOINT((5100.,7900.));
#206=IFCCARTESIANPOINT((5100.,100.));
#207=IFCPOLYLINE((#205,#206));
#208=IFCARBITRARYOPENPROFILEDEF(.CURVE.,$,#207);
#209=IFCAXIS2PLACEMENT3D(#3,$,$);
#210=IFCSURFACEOFLINEAREXTRUSION(#208,#209,#9,2438.4000000000001);
#211=IFCCONNECTIONSURFACEGEOMETRY(#210,$);
#212=IFCPROPERTYSINGLEVALUE('Name',$,IFCLABEL('Classroom A'),$);
#213=IFCPROPERTYSET('30gtq8CYA6BpGD41N4D8DQ',#18,'Pset_AirSideSystemInformation',$,(#212));
#214=IFCPROPERTYSINGLEVALUE('Reference',$,IFCIDENTIFIER('Classroom A G02'),$);
#215=IFCPROPERTYSET('0WXQVbh3eOXBdvHg88jfiT',#18,'Pset_SpaceCommon',$,(#103,#214));
#216=IFCPROPERTYSET('1sCu7gokHJYeu31Qlk8xkH',#18,'Pset_SpaceHeaterTypeCommon',$,(#214));
#217=IFCRELDEFINESBYPROPERTIES('3tbWHOxgmqs54oJOJkZxPH',#18,$,$,(#173),#213);
#218=IFCRELDEFINESBYPROPERTIES('0MiZyfiV3FluboToebjh6K',#18,$,$,(#173),#215);
#219=IFCRELDEFINESBYPROPERTIES('17ZeBlcGHYmAos0Zi9YZ$N',#18,$,$,(#173),#216);
#220=IFCQUANTITYLENGTH('Height','',$,2438.4000000000001,$);
#221=IFCQUANTITYAREA('GrossFloorArea','',$,37.440000000000019,$);
#222=IFCQUANTITYAREA('NetFloorArea','',$,37.440000000000019,$);
#223=IFCQUANTITYAREA('GrossCeilingArea','',$,37.440000000000019,$);
#224=IFCQUANTITYVOLUME('GrossVolume','',$,91.293696000000054,$);
#225=IFCQUANTITYVOLUME('NetVolume','',$,91.29369600000004,$);
#226=IFCELEMENTQUANTITY('0DWJ1iiC58PO49K82oncGE',#18,'Qto_SpaceBaseQuantities',$,$,(#220,#221,#222,#223,#224,#225));
#227=IFCRELDEFINESBYPROPERTIES('2b6JfqGsdLANgB77snvUgn',#18,$,$,(#173),#226);
#228=IFCPROPERTYSINGLEVALUE('Level',$,IFCTEXT('Ground Floor'),$);
#229=IFCPROPERTYSINGLEVALUE('Area',$,IFCAREAMEASURE(37.440000000000019),$);
#230=IFCPROPERTYSINGLEVALUE('Perimeter',$,IFCLENGTHMEASURE(25200.),$);
#231=IFCPROPERTYSINGLEVALUE('Volume',$,IFCVOLUMEMEASURE(91.29369600000004),$);
#232=IFCPROPERTYSINGLEVALUE('Actual Lighting Load per area',$,IFCREAL(0.),#135);
#233=IFCPROPERTYSINGLEVALUE('Actual Power Load per area',$,IFCREAL(0.),#135);
#234=IFCPROPERTYSINGLEVALUE('Area per Person',$,IFCAREAMEASURE(28.571428571428573),$);
#235=IFCPROPERTYSINGLEVALUE('Latent Heat Gain per person',$,IFCPOWERMEASURE(58.614214034444437),$);
#236=IFCPROPERTYSINGLEVALUE('Sensible Heat Gain per person',$,IFCPOWERMEASURE(73.267767543055555),$);
#237=IFCPROPERTYSINGLEVALUE('Specified Lighting Load per area',$,IFCREAL(10.763910416709722),#135);
#238=IFCPROPERTYSINGLEVALUE('Specified Power Load per area',$,IFCREAL(13.993083541722639),#135);
#239=IFCPROPERTYSINGLEVALUE('Total Heat Gain per person',$,IFCPOWERMEASURE(131.88198157749997),$);
#240=IFCPROPERTYSINGLEVALUE('Name',$,IFCTEXT('Classroom A'),$);
#241=IFCPROPERTYSINGLEVALUE('Number',$,IFCTEXT('G02'),$);
#242=IFCPROPERTYSET('0JbaH$VppPJmIVata_nmQX',#18,'Other',$,(#118,#119));
#243=IFCPROPERTYSET('2H8jpvjGaQhQ6be2CJDqXN',#18,'Constraints',$,(#120,#122,#123,#228));
#244=IFCPROPERTYSET('0qI7eCbKwrqARM8iXNKkVK',#18,'Dimensions',$,(#125,#127,#229,#230,#231));
#245=IFCPROPERTYSET('04iC0OBtPsaaIIY4oVwlnG',#18,'Energy Analysis',$,(#130,#137,#140,#141,#142,#144,#145,#146,#147,#149,#151,#232,#233,#234,#235,#236,#237,#238,#239));
#246=IFCPROPERTYSET('2wSo5m_d_eX4NTDaeU4wCg',#18,'Identity Data',$,(#240,#241));
#247=IFCPROPERTYSET('3pL22ZSjbEmQ1qAcWfzf6w',#18,'Phasing',$,(#156));
#248=IFCAXIS2PLACEMENT3D(#3,$,$);
#249=IFCLOCALPLACEMENT(#34,#248);
#250=IFCCARTESIANPOINT((0.,0.));
#251=IFCAXIS2PLACEMENT2D(#250,#11);
#252=IFCRECTANGLEPROFILEDEF(.AREA.,$,#251,4800.,7799.9999999999991);
#253=IFCCARTESIANPOINT((12500.,4000.,0.));
#254=IFCAXIS2PLACEMENT3D(#253,$,$);
#255=IFCEXTRUDEDAREASOLID(#252,#254,#9,2438.4000000000001);
#256=IFCSHAPEREPRESENTATION(#24,'Body','SweptSolid',(#255));
#257=IFCPRODUCTDEFINITIONSHAPE($,$,(#256));
#258=IFCSPACE('0EzERN9n97uOuqyDhoSlHz',#18,'G03',$,$,#249,#257,'Classroom B',.ELEMENT.,.NOTDEFINED.,$);
#259=IFCSPACETYPE('0EzERN9n97uOuq_DhoSlHz',#18,'Classroom B G03:2807',$,$,$,$,'2807',$,.NOTDEFINED.,$);
#260=IFCCARTESIANPOINT((10100.,100.,0.));
#261=IFCCARTESIANPOINT((7800.,0.));
#262=IFCCARTESIANPOINT((7800.,4800.));
#263=IFCCARTESIANPOINT((0.,4800.));
#264=IFCPOLYLINE((#4,#261,#262,#263,#4));
#265=IFCAXIS2PLACEMENT3D(#260,#10,#7);
#266=IFCPLANE(#265);
#267=IFCCURVEBOUNDEDPLANE(#266,#264,$);
#268=IFCCONNECTIONSURFACEGEOMETRY(#267,$);
#269=IFCCARTESIANPOINT((10100.,100.));
#270=IFCCARTESIANPOINT((14900.,100.));
#271=IFCPOLYLINE((#269,#270));
#272=IFCARBITRARYOPENPROFILEDEF(.CURVE.,$,#271);
#273=IFCAXIS2PLACEMENT3D(#3,$,$);
#274=IFCSURFACEOFLINEAREXTRUSION(#272,#273,#9,2438.4000000000001);
#275=IFCCONNECTIONSURFACEGEOMETRY(#274,$);
#276=IFCCARTESIANPOINT((14900.,100.));
#277=IFCCARTESIANPOINT((14900.,7900.));
#278=IFCPOLYLINE((#276,#277));
#279=IFCARBITRARYOPENPROFILEDEF(.CURVE.,$,#278);
#280=IFCAXIS2PLACEMENT3D(#3,$,$);
#281=IFCSURFACEOFLINEAREXTRUSION(#279,#280,#9,2438.4000000000001);
#282=IFCCONNECTIONSURFACEGEOMETRY(#281,$);
#283=IFCCARTESIANPOINT((14900.,7900.));
#284=IFCCARTESIANPOINT((10100.,7900.));
#285=IFCPOLYLINE((#283,#284));
#286=IFCARBITRARYOPENPROFILEDEF(.CURVE.,$,#285);
#287=IFCAXIS2PLACEMENT3D(#3,$,$);
#288=IFCSURFACEOFLINEAREXTRUSION(#286,#287,#9,2438.4000000000001);
#289=IFCCONNECTIONSURFACEGEOMETRY(#288,$);
#290=IFCCARTESIANPOINT((10100.,7900.));
#291=IFCCARTESIANPOINT((10100.,100.));
#292=IFCPOLYLINE((#290,#291));
#293=IFCARBITRARYOPENPROFILEDEF(.CURVE.,$,#292);
#294=IFCAXIS2PLACEMENT3D(#3,$,$);
#295=IFCSURFACEOFLINEAREXTRUSION(#293,#294,#9,2438.4000000000001);
#296=IFCCONNECTIONSURFACEGEOMETRY(#295,$);
#297=IFCPROPERTYSINGLEVALUE('Name',$,IFCLABEL('Classroom B'),$);
#298=IFCPROPERTYSET('09mn8vu4PhDxaBgogre1fG',#18,'Pset_AirSideSystemInformation',$,(#297));
#299=IFCPROPERTYSINGLEVALUE('Reference',$,IFCIDENTIFIER('Classroom B G03'),$);
#300=IFCPROPERTYSET('3GYNY_skvpTTu9W$XL4DFB',#18,'Pset_SpaceCommon',$,(#103,#299));
#301=IFCPROPERTYSET('0NE_RnT35rVznqWIY$x$1R',#18,'Pset_SpaceHeaterTypeCommon',$,(#299));
#302=IFCRELDEFINESBYPROPERTIES('2WmFi4MV62o0qTHMinh3CD',#18,$,$,(#258),#298);
#303=IFCRELDEFINESBYPROPERTIES('1OtZzTfEcJWk0swCZbGwlq',#18,$,$,(#258),#300);
#304=IFCRELDEFINESBYPROPERTIES('2yGFA6sF29awsFJ6_4mFLy',#18,$,$,(#258),#301);
#305=IFCQUANTITYLENGTH('Height','',$,2438.4000000000001,$);
#306=IFCQUANTITYAREA('GrossFloorArea','',$,37.440000000000005,$);
#307=IFCQUANTITYAREA('NetFloorArea','',$,37.440000000000005,$);
#308=IFCQUANTITYAREA('GrossCeilingArea','',$,37.440000000000005,$);
#309=IFCQUANTITYVOLUME('GrossVolume','',$,91.293696000000025,$);
#310=IFCQUANTITYVOLUME('NetVolume','',$,91.293696000000011,$);
#311=IFCELEMENTQUANTITY('0zh5_QyNdNVq18qeV6ireH',#18,'Qto_SpaceBaseQuantities',$,$,(#305,#306,#307,#308,#309,#310));
#312=IFCRELDEFINESBYPROPERTIES('2bl6wmBA8K_RdQj0MqgwXL',#18,$,$,(#258),#311);
#313=IFCPROPERTYSINGLEVALUE('Level',$,IFCTEXT('Ground Floor'),$);
#314=IFCPROPERTYSINGLEVALUE('Area',$,IFCAREAMEASURE(37.440000000000005),$);
#315=IFCPROPERTYSINGLEVALUE('Perimeter',$,IFCLENGTHMEASURE(25199.999999999996),$);
#316=IFCPROPERTYSINGLEVALUE('Volume',$,IFCVOLUMEMEASURE(91.293696000000011),$);
#317=IFCPROPERTYSINGLEVALUE('Actual Lighting Load per area',$,IFCREAL(0.),#135);
#318=IFCPROPERTYSINGLEVALUE('Actual Power Load per area',$,IFCREAL(0.),#135);
#319=IFCPROPERTYSINGLEVALUE('Area per Person',$,IFCAREAMEASURE(28.571428571428573),$);
#320=IFCPROPERTYSINGLEVALUE('Latent Heat Gain per person',$,IFCPOWERMEASURE(58.614214034444437),$);
#321=IFCPROPERTYSINGLEVALUE('Sensible Heat Gain per person',$,IFCPOWERMEASURE(73.267767543055555),$);
#322=IFCPROPERTYSINGLEVALUE('Specified Lighting Load per area',$,IFCREAL(10.763910416709722),#135);
#323=IFCPROPERTYSINGLEVALUE('Specified Power Load per area',$,IFCREAL(13.993083541722639),#135);
#324=IFCPROPERTYSINGLEVALUE('Total Heat Gain per person',$,IFCPOWERMEASURE(131.88198157749997),$);
#325=IFCPROPERTYSINGLEVALUE('Name',$,IFCTEXT('Classroom B'),$);
#326=IFCPROPERTYSINGLEVALUE('Number',$,IFCTEXT('G03'),$);
#327=IFCPROPERTYSET('20LAAtmVFXxi26B50boOUx',#18,'Other',$,(#118,#119));
#328=IFCPROPERTYSET('2or8JwIcnLIytl7Ppetobd',#18,'Constraints',$,(#120,#122,#123,#313));
#329=IFCPROPERTYSET('3M20fhX23DA5eX45x2lIC2',#18,'Dimensions',$,(#125,#127,#314,#315,#316));
#330=IFCPROPERTYSET('2GDLjTd3CvxdyrE3Mb7T4A',#18,'Energy Analysis',$,(#130,#137,#140,#141,#142,#144,#145,#146,#147,#149,#151,#317,#318,#319,#320,#321,#322,#323,#324));
#331=IFCPROPERTYSET('0UxzkhBIp5aE8TphP6yEBh',#18,'Identity Data',$,(#325,#326));
#332=IFCPROPERTYSET('0xn5CUCZE3NL_UacyHOOvA',#18,'Phasing',$,(#156));
#333=IFCAXIS2PLACEMENT3D(#3,$,$);
#334=IFCLOCALPLACEMENT(#34,#333);
#335=IFCCARTESIANPOINT((0.,0.));
#336=IFCAXIS2PLACEMENT2D(#335,#11);
#337=IFCRECTANGLEPROFILEDEF(.AREA.,$,#336,4800.0000000000045,7799.9999999999991);
#338=IFCCARTESIANPOINT((17500.,4000.,0.));
#339=IFCAXIS2PLACEMENT3D(#338,$,$);
#340=IFCEXTRUDEDAREASOLID(#337,#339,#9,2438.4000000000001);
#341=IFCSHAPEREPRESENTATION(#24,'Body','SweptSolid',(#340));
#342=IFCPRODUCTDEFINITIONSHAPE($,$,(#341));
#343=IFCSPACE('0EzERN9n97uOuqyDhoSlHo',#18,'G04',$,$,#334,#342,'Store',.ELEMENT.,.NOTDEFINED.,$);
#344=IFCSPACETYPE('0EzERN9n97uOuq_DhoSlHo',#18,'Store G04:2808',$,$,$,$,'2808',$,.NOTDEFINED.,$);
#345=IFCCARTESIANPOINT((15100.,100.,0.));
#346=IFCCARTESIANPOINT((7800.,0.));
#347=IFCCARTESIANPOINT((7800.,4800.));
#348=IFCCARTESIANPOINT((0.,4800.));
#349=IFCPOLYLINE((#4,#346,#347,#348,#4));
#350=IFCAXIS2PLACEMENT3D(#345,#10,#7);
#351=IFCPLANE(#350);
#352=IFCCURVEBOUNDEDPLANE(#351,#349,$);
#353=IFCCONNECTIONSURFACEGEOMETRY(#352,$);
#354=IFCCARTESIANPOINT((15100.,100.));
#355=IFCCARTESIANPOINT((19900.,100.));
#356=IFCPOLYLINE((#354,#355));
#357=IFCARBITRARYOPENPROFILEDEF(.CURVE.,$,#356);
#358=IFCAXIS2PLACEMENT3D(#3,$,$);
#359=IFCSURFACEOFLINEAREXTRUSION(#357,#358,#9,2438.4000000000001);
#360=IFCCONNECTIONSURFACEGEOMETRY(#359,$);
#361=IFCCARTESIANPOINT((19900.,100.));
#362=IFCCARTESIANPOINT((19900.,7900.));
#363=IFCPOLYLINE((#361,#362));
#364=IFCARBITRARYOPENPROFILEDEF(.CURVE.,$,#363);
#365=IFCAXIS2PLACEMENT3D(#3,$,$);
#366=IFCSURFACEOFLINEAREXTRUSION(#364,#365,#9,2438.4000000000001);
#367=IFCCONNECTIONSURFACEGEOMETRY(#366,$);
#368=IFCCARTESIANPOINT((19900.,7900.));
#369=IFCCARTESIANPOINT((15100.,7900.));
#370=IFCPOLYLINE((#368,#369));
#371=IFCARBITRARYOPENPROFILEDEF(.CURVE.,$,#370);
#372=IFCAXIS2PLACEMENT3D(#3,$,$);
#373=IFCSURFACEOFLINEAREXTRUSION(#371,#372,#9,2438.4000000000001);
#374=IFCCONNECTIONSURFACEGEOMETRY(#373,$);
#375=IFCCARTESIANPOINT((15100.,7900.));
#376=IFCCARTESIANPOINT((15100.,100.));
#377=IFCPOLYLINE((#375,#376));
#378=IFCARBITRARYOPENPROFILEDEF(.CURVE.,$,#377);
#379=IFCAXIS2PLACEMENT3D(#3,$,$);
#380=IFCSURFACEOFLINEAREXTRUSION(#378,#379,#9,2438.4000000000001);
#381=IFCCONNECTIONSURFACEGEOMETRY(#380,$);
#382=IFCPROPERTYSINGLEVALUE('Name',$,IFCLABEL('Store'),$);
#383=IFCPROPERTYSET('05_i$hRX3hPaWWo5P0RjfI',#18,'Pset_AirSideSystemInformation',$,(#382));
#384=IFCPROPERTYSINGLEVALUE('Reference',$,IFCIDENTIFIER('Store G04'),$);
#385=IFCPROPERTYSET('1nZG9uHYlOH28rTpXJWZs3',#18,'Pset_SpaceCommon',$,(#103,#384));
#386=IFCPROPERTYSET('1nDKBqXb37$$X9370eUFSq',#18,'Pset_SpaceHeaterTypeCommon',$,(#384));
#387=IFCRELDEFINESBYPROPERTIES('1isuZ4Qm9zzP5vZ2ScoAF0',#18,$,$,(#343),#383);
#388=IFCRELDEFINESBYPROPERTIES('1s2ruQPZo7KNIyQuzHc7zS',#18,$,$,(#343),#385);
#389=IFCRELDEFINESBYPROPERTIES('0_VaoIBTG3_BRd$ZchuOcF',#18,$,$,(#343),#386);
#390=IFCQUANTITYLENGTH('Height','',$,2438.4000000000001,$);
#391=IFCQUANTITYAREA('GrossFloorArea','',$,37.44000000000004,$);
#392=IFCQUANTITYAREA('NetFloorArea','',$,37.44000000000004,$);
#393=IFCQUANTITYAREA('GrossCeilingArea','',$,37.44000000000004,$);
#394=IFCQUANTITYVOLUME('GrossVolume','',$,91.293696000000111,$);
#395=IFCQUANTITYVOLUME('NetVolume','',$,91.293696000000082,$);
#396=IFCELEMENTQUANTITY('0g35i9WBaAI9RgAj5gG6uM',#18,'Qto_SpaceBaseQuantities',$,$,(#390,#391,#392,#393,#394,#395));
#397=IFCRELDEFINESBYPROPERTIES('0Q6jjxZw_HVvepw__qDDgM',#18,$,$,(#343),#396);
#398=IFCPROPERTYSINGLEVALUE('Level',$,IFCTEXT('Ground Floor'),$);
#399=IFCPROPERTYSINGLEVALUE('Area',$,IFCAREAMEASURE(37.44000000000004),$);
#400=IFCPROPERTYSINGLEVALUE('Perimeter',$,IFCLENGTHMEASURE(25200.000000000007),$);
#401=IFCPROPERTYSINGLEVALUE('Volume',$,IFCVOLUMEMEASURE(91.293696000000082),$);
#402=IFCPROPERTYSINGLEVALUE('Actual Lighting Load per area',$,IFCREAL(0.),#135);
#403=IFCPROPERTYSINGLEVALUE('Actual Power Load per area',$,IFCREAL(0.),#135);
#404=IFCPROPERTYSINGLEVALUE('Area per Person',$,IFCAREAMEASURE(28.571428571428573),$);
#405=IFCPROPERTYSINGLEVALUE('Latent Heat Gain per person',$,IFCPOWERMEASURE(58.614214034444437),$);
#406=IFCPROPERTYSINGLEVALUE('Sensible Heat Gain per person',$,IFCPOWERMEASURE(73.267767543055555),$);
#407=IFCPROPERTYSINGLEVALUE('Specified Lighting Load per area',$,IFCREAL(10.763910416709722),#135);
#408=IFCPROPERTYSINGLEVALUE('Specified Power Load per area',$,IFCREAL(13.993083541722639),#135);
#409=IFCPROPERTYSINGLEVALUE('Total Heat Gain per person',$,IFCPOWERMEASURE(131.88198157749997),$);
#410=IFCPROPERTYSINGLEVALUE('Name',$,IFCTEXT('Store'),$);
#411=IFCPROPERTYSINGLEVALUE('Number',$,IFCTEXT('G04'),$);
#412=IFCPROPERTYSET('3WJ0JLvi6RhI2wJQ2Ga03r',#18,'Other',$,(#118,#119));
#413=IFCPROPERTYSET('2w007VgMItWgXq8fTCEGKS',#18,'Constraints',$,(#120,#122,#123,#398));
#414=IFCPROPERTYSET('2JPByKbbdo2JoSQUNrgXQS',#18,'Dimensions',$,(#125,#127,#399,#400,#401));
#415=IFCPROPERTYSET('0g7Kv0eLhV_g2LFF2YLFl1',#18,'Energy Analysis',$,(#130,#137,#140,#141,#142,#144,#145,#146,#147,#149,#151,#402,#403,#404,#405,#406,#407,#408,#409));
#416=IFCPROPERTYSET('1b6XGFLePqY89EJLWqMcPi',#18,'Identity Data',$,(#410,#411));
#417=IFCPROPERTYSET('1QZkSertRvfsoCILAOlkc$',#18,'Phasing',$,(#156));
#418=IFCCARTESIANPOINT((-100.,0.,0.));
#419=IFCAXIS2PLACEMENT3D(#418,$,$);
#420=IFCLOCALPLACEMENT(#34,#419);
#421=IFCCARTESIANPOINT((20200.,0.));
#422=IFCPOLYLINE((#4,#421));
#423=IFCSHAPEREPRESENTATION(#23,'Axis','Curve2D',(#422));
#424=IFCCARTESIANPOINT((10100.000000000002,0.));
#425=IFCAXIS2PLACEMENT2D(#424,#12);
#426=IFCRECTANGLEPROFILEDEF(.AREA.,$,#425,20200.000000000004,200.);
#427=IFCAXIS2PLACEMENT3D(#3,$,$);
#428=IFCEXTRUDEDAREASOLID(#426,#427,#9,3000.);
#429=IFCCOLOURRGB($,0.49803921568627452,0.49803921568627452,0.49803921568627452);
#430=IFCSURFACESTYLERENDERING(#429,0.,$,$,$,$,IFCNORMALISEDRATIOMEASURE(0.5),IFCSPECULAREXPONENT(64.),.NOTDEFINED.);
#431=IFCSURFACESTYLE('Default Wall',.BOTH.,(#430));
#432=IFCSTYLEDITEM(#428,(#431),$);
#433=IFCSHAPEREPRESENTATION(#24,'Body','SweptSolid',(#428));
#434=IFCPRODUCTDEFINITIONSHAPE($,$,(#423,#433));
#435=IFCWALL('0EzERN9n97uOuqyDhoSlHh',#18,'Basic Wall:Wall 1:2785',$,'Basic Wall:Wall 1',#420,#434,'2785',.NOTDEFINED.);
#436=IFCQUANTITYLENGTH('Height',$,$,3000.,$);
#437=IFCQUANTITYLENGTH('Length',$,$,20200.000000000004,$);
#438=IFCQUANTITYLENGTH('Width',$,$,200.,$);
#439=IFCQUANTITYAREA('GrossFootprintArea',$,$,4.0400000000000009,$);
#440=IFCQUANTITYVOLUME('GrossVolume',$,$,12.120000000000005,$);
#441=IFCQUANTITYAREA('GrossSideArea',$,$,60.600000000000016,$);
#442=IFCQUANTITYAREA('NetSideArea',$,$,60.600000000000016,$);
#443=IFCQUANTITYVOLUME('NetVolume',$,$,12.120000000000005,$);
#444=IFCELEMENTQUANTITY('37tWWO4BakuIGpBFQlP_cH',#18,'Qto_WallBaseQuantities',$,$,(#436,#437,#438,#439,#440,#441,#442,#443));
#445=IFCRELDEFINESBYPROPERTIES('3_g443I3GUWCF2Z9exoEBi',#18,$,$,(#435),#444);
#446=IFCMATERIAL('Default Wall',$,'Unassigned');
#447=IFCSTYLEDITEM($,(#431),$);
#448=IFCSTYLEDREPRESENTATION(#22,'Style','Material',(#447));
#449=IFCMATERIALDEFINITIONREPRESENTATION($,$,(#448),#446);
#450=IFCMATERIALLAYER(#446,200.,$,'Layer',$,'Unassigned',$);
#451=IFCMATERIALLAYERSET((#450),'Basic Wall:Wall 1',$);
#452=IFCMATERIALLAYERSETUSAGE(#451,.AXIS2.,.NEGATIVE.,100.,$);
#453=IFCWALLTYPE('0EzERN9n97uOuqyDhoSlaq',#18,'Basic Wall:Wall 1',$,$,(#504,#505,#506,#507,#508,#509),$,'1982',$,.STANDARD.);
#454=IFCPROPERTYSINGLEVALUE('Reference',$,IFCIDENTIFIER('Wall 1'),$);
#455=IFCPROPERTYSET('2RNW8iGJWC_XhUTNQjtsFu',#18,'Pset_EnvironmentalImpactIndicators',$,(#454));
#456=IFCPROPERTYSINGLEVALUE('Reference',$,IFCLABEL('Wall 1'),$);
#457=IFCPROPERTYSET('3Mer$$zl_4752dOf4CEzeD',#18,'Pset_ReinforcementBarPitchOfWall',$,(#456));
#458=IFCPROPERTYSINGLEVALUE('IsExternal',$,IFCBOOLEAN(.T.),$);
#459=IFCPROPERTYSINGLEVALUE('LoadBearing',$,IFCBOOLEAN(.F.),$);
#460=IFCPROPERTYSINGLEVALUE('ExtendToStructure',$,IFCBOOLEAN(.F.),$);
#461=IFCPROPERTYSET('2y4t6$MwKIHiRiKcKLlyua',#18,'Pset_WallCommon',$,(#454,#458,#459,#460));
#462=IFCRELDEFINESBYPROPERTIES('2TVi2tD2UB9vlR5JuTjGR4',#18,$,$,(#435),#455);
#463=IFCRELDEFINESBYPROPERTIES('0qw_rnDudqPCHJQpSqCCe8',#18,$,$,(#435),#457);
#464=IFCRELDEFINESBYPROPERTIES('1dDIca8UK266EvF2_ITeVC',#18,$,$,(#435),#461);
#465=IFCPROPERTYSINGLEVALUE('Category',$,IFCLABEL('Walls'),$);
#466=IFCPROPERTYSINGLEVALUE('Family',$,IFCLABEL('Basic Wall'),$);
#467=IFCPROPERTYSINGLEVALUE('Family and Type',$,IFCLABEL('Basic Wall: Wall 1'),$);
#468=IFCPROPERTYSINGLEVALUE('Type',$,IFCLABEL('Wall 1'),$);
#469=IFCPROPERTYSINGLEVALUE('Type Id',$,IFCLABEL('1982'),$);
#470=IFCPROPERTYSINGLEVALUE('Base Constraint',$,IFCLABEL('Ground Floor'),$);
#471=IFCPROPERTYSINGLEVALUE('Base Extension Distance',$,IFCLENGTHMEASURE(0.),$);
#472=IFCPROPERTYSINGLEVALUE('Base is Attached',$,IFCBOOLEAN(.F.),$);
#473=IFCPROPERTYSINGLEVALUE('Location Line',$,IFCIDENTIFIER('Wall Centerline'),$);
#474=IFCPROPERTYSINGLEVALUE('Related to Mass',$,IFCBOOLEAN(.F.),$);
#475=IFCPROPERTYSINGLEVALUE('Room Bounding',$,IFCBOOLEAN(.T.),$);
#476=IFCPROPERTYSINGLEVALUE('Top Extension Distance',$,IFCLENGTHMEASURE(0.),$);
#477=IFCPROPERTYSINGLEVALUE('Top is Attached',$,IFCBOOLEAN(.F.),$);
#478=IFCPROPERTYSINGLEVALUE('Top Offset',$,IFCLENGTHMEASURE(0.),$);
#479=IFCPROPERTYSINGLEVALUE('Unconnected Height',$,IFCLENGTHMEASURE(3000.),$);
#480=IFCPROPERTYSINGLEVALUE('Area',$,IFCAREAMEASURE(60.600000000000016),$);
#481=IFCPROPERTYSINGLEVALUE('Length',$,IFCLENGTHMEASURE(20000.),$);
#482=IFCPROPERTYSINGLEVALUE('Volume',$,IFCVOLUMEMEASURE(12.120000000000005),$);
#483=IFCPROPERTYSINGLEVALUE('Comments',$,IFCTEXT('perimeter 0 south'),$);
#484=IFCPROPERTYSINGLEVALUE('Phase Created',$,IFCLABEL('New Construction'),$);
#485=IFCPROPERTYSINGLEVALUE('Structural',$,IFCBOOLEAN(.F.),$);
#486=IFCPROPERTYSINGLEVALUE('Structural Usage',$,IFCIDENTIFIER('Non-bearing'),$);
#487=IFCPROPERTYSINGLEVALUE('Cross-Section',$,IFCIDENTIFIER('Vertical'),$);
#488=IFCPROPERTYSINGLEVALUE('Family Name',$,IFCTEXT('Basic Wall'),$);
#489=IFCPROPERTYSINGLEVALUE('Function',$,IFCIDENTIFIER('Exterior'),$);
#490=IFCPROPERTYSINGLEVALUE('Width',$,IFCLENGTHMEASURE(200.),$);
#491=IFCPROPERTYSINGLEVALUE('Wrapping at Ends',$,IFCIDENTIFIER('None'),$);
#492=IFCPROPERTYSINGLEVALUE('Wrapping at Inserts',$,IFCIDENTIFIER('Do not wrap'),$);
#493=IFCPROPERTYSINGLEVALUE('Coarse Scale Fill Color',$,IFCINTEGER(0),$);
#494=IFCPROPERTYSINGLEVALUE('Type Name',$,IFCTEXT('Wall 1'),$);
#495=IFCPROPERTYSINGLEVALUE('Absorptance',$,IFCREAL(0.10000000000000001),$);
#496=IFCPROPERTYSINGLEVALUE('Roughness',$,IFCINTEGER(1),$);
#497=IFCPROPERTYSET('0ltNC2HqyTOXQ1bFPYBd7e',#18,'Other',$,(#465,#466,#467,#468,#469));
#498=IFCPROPERTYSET('2eku8bWaPDC6T9oWLAmTF6',#18,'Constraints',$,(#120,#470,#471,#472,#473,#474,#475,#476,#477,#478,#479));
#499=IFCPROPERTYSET('2ePuUpg9EaMrQ95MwrhMZp',#18,'Dimensions',$,(#480,#481,#482));
#500=IFCPROPERTYSET('0A0Z1VCGe0lO_EVQIzmwFl',#18,'Identity Data',$,(#483));
#501=IFCPROPERTYSET('0MGMOq2ZzHhizt5BQu3_7l',#18,'Phasing',$,(#484));
#502=IFCPROPERTYSET('19YgmnMmQgFVEsBF8W9EPl',#18,'Structural',$,(#485,#486));
#503=IFCPROPERTYSET('13MecidIprKu6ukPDRNVNW',#18,'Cross-Section Definition',$,(#487));
#504=IFCPROPERTYSET('1zLijR2rguxYSOAb0TODof',#18,'Other',$,(#465,#488));
#505=IFCPROPERTYSET('1rTsGZTx_1qrnudpthd_9Y',#18,'Construction',$,(#489,#490,#491,#492));
#506=IFCPROPERTYSET('2mUEwngDkr79lABFSJD70N',#18,'Graphics',$,(#493));
#507=IFCPROPERTYSET('1SRRsvrk9DNL4fxDL$CypG',#18,'Identity Data',$,(#494));
#508=IFCPROPERTYSET('3RVImdX_pKuZsjp7bL0NGZ',#18,'Analytical Properties',$,(#495,#496));
#509=IFCPROPERTYSET('0mG1JKmK8NFwWM5KdxJCwF',#18,'Pset_WallCommon',$,(#458));
#510=IFCCARTESIANPOINT((20000.,100.,0.));
#511=IFCAXIS2PLACEMENT3D(#510,#9,#7);
#512=IFCLOCALPLACEMENT(#34,#511);
#513=IFCCARTESIANPOINT((8000.,0.));
#514=IFCPOLYLINE((#4,#513));
#515=IFCSHAPEREPRESENTATION(#23,'Axis','Curve2D',(#514));
#516=IFCCARTESIANPOINT((3999.9999999999995,0.));
#517=IFCAXIS2PLACEMENT2D(#516,#12);
#518=IFCRECTANGLEPROFILEDEF(.AREA.,$,#517,7999.9999999999991,199.99999999999784);
#519=IFCAXIS2PLACEMENT3D(#3,$,$);
#520=IFCEXTRUDEDAREASOLID(#518,#519,#9,3000.);
#521=IFCSTYLEDITEM(#520,(#431),$);
#522=IFCSHAPEREPRESENTATION(#24,'Body','SweptSolid',(#520));
#523=IFCPRODUCTDEFINITIONSHAPE($,$,(#515,#522));
#524=IFCWALL('0EzERN9n97uOuqyDhoSlHe',#18,'Basic Wall:Wall 1:2786',$,'Basic Wall:Wall 1',#512,#523,'2786',.NOTDEFINED.);
#525=IFCQUANTITYLENGTH('Height',$,$,3000.,$);
#526=IFCQUANTITYLENGTH('Length',$,$,7999.9999999999991,$);
#527=IFCQUANTITYLENGTH('Width',$,$,200.,$);
#528=IFCQUANTITYAREA('GrossFootprintArea',$,$,1.5999999999999828,$);
#529=IFCQUANTITYVOLUME('GrossVolume',$,$,4.7999999999999998,$);
#530=IFCQUANTITYAREA('GrossSideArea',$,$,23.999999999999996,$);
#531=IFCQUANTITYAREA('NetSideArea',$,$,23.999999999999996,$);
#532=IFCQUANTITYVOLUME('NetVolume',$,$,4.8000000000000513,$);
#533=IFCELEMENTQUANTITY('03i9yZmDNsYzGukAFka6Kr',#18,'Qto_WallBaseQuantities',$,$,(#525,#526,#527,#528,#529,#530,#531,#532));
#534=IFCRELDEFINESBYPROPERTIES('1_WqC5IDgoyFpEHMwfyMpo',#18,$,$,(#524),#533);
#535=IFCMATERIALLAYERSETUSAGE(#451,.AXIS2.,.NEGATIVE.,100.,$);
#536=IFCPROPERTYSET('3857U1BnKkP9FjEyrhauji',#18,'Pset_EnvironmentalImpactIndicators',$,(#454));
#537=IFCPROPERTYSINGLEVALUE('Reference',$,IFCLABEL('Wall 1'),$);
#538=IFCPROPERTYSET('2r9yPX4fPzCnrW_bUm2PBS',#18,'Pset_ReinforcementBarPitchOfWall',$,(#537));
#539=IFCPROPERTYSET('3Pt$BjDHWf5birhKxRxgnf',#18,'Pset_WallCommon',$,(#454,#458,#459,#460));
#540=IFCRELDEFINESBYPROPERTIES('1ESd_joyY58DlYry412fae',#18,$,$,(#524),#536);
#541=IFCRELDEFINESBYPROPERTIES('00sdyolNzJI$H$Itr02H8e',#18,$,$,(#524),#538);
#542=IFCRELDEFINESBYPROPERTIES('0jWzeba7rKLl9vd3MUz1$K',#18,$,$,(#524),#539);
#543=IFCPROPERTYSINGLEVALUE('Unconnected Height',$,IFCLENGTHMEASURE(3000.),$);
#544=IFCPROPERTYSINGLEVALUE('Area',$,IFCAREAMEASURE(24.),$);
#545=IFCPROPERTYSINGLEVALUE('Length',$,IFCLENGTHMEASURE(7999.9999999999991),$);
#546=IFCPROPERTYSINGLEVALUE('Volume',$,IFCVOLUMEMEASURE(4.8000000000000007),$);
#547=IFCPROPERTYSINGLEVALUE('Comments',$,IFCTEXT('perimeter 0 east'),$);
#548=IFCPROPERTYSET('2Ns4eauRbzGZMmMcK7ryeg',#18,'Other',$,(#465,#466,#467,#468,#469));
#549=IFCPROPERTYSET('0Buk7MTntEGKmEAtJYUl8p',#18,'Constraints',$,(#120,#470,#471,#472,#473,#474,#475,#476,#477,#478,#543));
#550=IFCPROPERTYSET('0SuH5BjfENkf95n_C5SR17',#18,'Dimensions',$,(#544,#545,#546));
#551=IFCPROPERTYSET('3ztSg72QghrCgrU9TVdB1t',#18,'Identity Data',$,(#547));
#552=IFCPROPERTYSET('1nUKfIbOXjYKwa1i9VTiHx',#18,'Phasing',$,(#484));
#553=IFCPROPERTYSET('3hhRiPoVugNFmsjtQU26lO',#18,'Structural',$,(#485,#486));
#554=IFCPROPERTYSET('3nWxpzMTiQPWENW4jF0w7R',#18,'Cross-Section Definition',$,(#487));
#555=IFCCARTESIANPOINT((19900.,8000.,0.));
#556=IFCAXIS2PLACEMENT3D(#555,#9,#6);
#557=IFCLOCALPLACEMENT(#34,#556);
#558=IFCCARTESIANPOINT((20000.,0.));
#559=IFCPOLYLINE((#4,#558));
#560=IFCSHAPEREPRESENTATION(#23,'Axis','Curve2D',(#559));
#561=IFCCARTESIANPOINT((10000.,0.));
#562=IFCAXIS2PLACEMENT2D(#561,#12);
#563=IFCRECTANGLEPROFILEDEF(.AREA.,$,#562,20000.,200.);
#564=IFCAXIS2PLACEMENT3D(#3,$,$);
#565=IFCEXTRUDEDAREASOLID(#563,#564,#9,3000.);
#566=IFCSTYLEDITEM(#565,(#431),$);
#567=IFCSHAPEREPRESENTATION(#24,'Body','SweptSolid',(#565));
#568=IFCPRODUCTDEFINITIONSHAPE($,$,(#560,#567));
#569=IFCWALL('0EzERN9n97uOuqyDhoSlHf',#18,'Basic Wall:Wall 1:2787',$,'Basic Wall:Wall 1',#557,#568,'2787',.NOTDEFINED.);
#570=IFCQUANTITYLENGTH('Height',$,$,3000.,$);
#571=IFCQUANTITYLENGTH('Length',$,$,20000.,$);
#572=IFCQUANTITYLENGTH('Width',$,$,200.,$);
#573=IFCQUANTITYAREA('GrossFootprintArea',$,$,4.0000000000000009,$);
#574=IFCQUANTITYVOLUME('GrossVolume',$,$,12.000000000000002,$);
#575=IFCQUANTITYAREA('GrossSideArea',$,$,60.000000000000007,$);
#576=IFCQUANTITYAREA('NetSideArea',$,$,60.000000000000007,$);
#577=IFCQUANTITYVOLUME('NetVolume',$,$,12.000000000000004,$);
#578=IFCELEMENTQUANTITY('0_TbF6wsc2AAkQSsaE9RHI',#18,'Qto_WallBaseQuantities',$,$,(#570,#571,#572,#573,#574,#575,#576,#577));
#579=IFCRELDEFINESBYPROPERTIES('0$k1N6hawI73wuaBCq1a_1',#18,$,$,(#569),#578);
#580=IFCMATERIALLAYERSETUSAGE(#451,.AXIS2.,.NEGATIVE.,100.,$);
#581=IFCPROPERTYSET('0XaioXwkmXrB9icXSU7Dqx',#18,'Pset_EnvironmentalImpactIndicators',$,(#454));
#582=IFCPROPERTYSINGLEVALUE('Reference',$,IFCLABEL('Wall 1'),$);
#583=IFCPROPERTYSET('3qV2JR93KJSNighF434U0m',#18,'Pset_ReinforcementBarPitchOfWall',$,(#582));
#584=IFCPROPERTYSET('1U3eom3071fm9XtqtU1Xq$',#18,'Pset_WallCommon',$,(#454,#458,#459,#460));
#585=IFCRELDEFINESBYPROPERTIES('0CVOcTGTXmhQ$gzVtrb29s',#18,$,$,(#569),#581);
#586=IFCRELDEFINESBYPROPERTIES('1U88MDCMQr_h03rsfjzvQR',#18,$,$,(#569),#583);
#587=IFCRELDEFINESBYPROPERTIES('2nKVFTRjkYo90qTqSiXgb9',#18,$,$,(#569),#584);
#588=IFCPROPERTYSINGLEVALUE('Unconnected Height',$,IFCLENGTHMEASURE(3000.),$);
#589=IFCPROPERTYSINGLEVALUE('Area',$,IFCAREAMEASURE(60.),$);
#590=IFCPROPERTYSINGLEVALUE('Length',$,IFCLENGTHMEASURE(20000.),$);
#591=IFCPROPERTYSINGLEVALUE('Volume',$,IFCVOLUMEMEASURE(12.),$);
#592=IFCPROPERTYSINGLEVALUE('Comments',$,IFCTEXT('perimeter 0 north'),$);
#593=IFCPROPERTYSET('2DzGBezWXdtJzoKp3JOXjF',#18,'Other',$,(#465,#466,#467,#468,#469));
#594=IFCPROPERTYSET('1_1hr6Kn$6u1liGCLawXVh',#18,'Constraints',$,(#120,#470,#471,#472,#473,#474,#475,#476,#477,#478,#588));
#595=IFCPROPERTYSET('0p6prjLW4K1V8dUN24DHp$',#18,'Dimensions',$,(#589,#590,#591));
#596=IFCPROPERTYSET('2c2_SSi0N8Vd0zP1XCu_4Y',#18,'Identity Data',$,(#592));
#597=IFCPROPERTYSET('2B$b6HqMUPeHefMsES3uHJ',#18,'Phasing',$,(#484));
#598=IFCPROPERTYSET('0jEoCYd1$AssKpu7snxGVI',#18,'Structural',$,(#485,#486));
#599=IFCPROPERTYSET('1bwTmuwvVnCGHxu54dSgum',#18,'Cross-Section Definition',$,(#487));
#600=IFCCARTESIANPOINT((0.,7900.,0.));
#601=IFCAXIS2PLACEMENT3D(#600,#9,#8);
#602=IFCLOCALPLACEMENT(#34,#601);
#603=IFCCARTESIANPOINT((7800.,0.));
#604=IFCPOLYLINE((#4,#603));
#605=IFCSHAPEREPRESENTATION(#23,'Axis','Curve2D',(#604));
#606=IFCCARTESIANPOINT((3899.9999999999995,0.));
#607=IFCAXIS2PLACEMENT2D(#606,#12);
#608=IFCRECTANGLEPROFILEDEF(.AREA.,$,#607,7799.9999999999991,200.);
#609=IFCAXIS2PLACEMENT3D(#3,$,$);
#610=IFCEXTRUDEDAREASOLID(#608,#609,#9,3000.);
#611=IFCSTYLEDITEM(#610,(#431),$);
#612=IFCSHAPEREPRESENTATION(#24,'Body','SweptSolid',(#610));
#613=IFCPRODUCTDEFINITIONSHAPE($,$,(#605,#612));
#614=IFCWALL('0EzERN9n97uOuqyDhoSlHk',#18,'Basic Wall:Wall 1:2788',$,'Basic Wall:Wall 1',#602,#613,'2788',.NOTDEFINED.);
#615=IFCQUANTITYLENGTH('Height',$,$,3000.,$);
#616=IFCQUANTITYLENGTH('Length',$,$,7799.9999999999991,$);
#617=IFCQUANTITYLENGTH('Width',$,$,200.,$);
#618=IFCQUANTITYAREA('GrossFootprintArea',$,$,1.5600000000000001,$);
#619=IFCQUANTITYVOLUME('GrossVolume',$,$,4.6799999999999997,$);
#620=IFCQUANTITYAREA('GrossSideArea',$,$,23.399999999999999,$);
#621=IFCQUANTITYAREA('NetSideArea',$,$,23.399999999999999,$);
#622=IFCQUANTITYVOLUME('NetVolume',$,$,4.6799999999999917,$);
#623=IFCELEMENTQUANTITY('23S5IBimjf6TdGLmQxp53V',#18,'Qto_WallBaseQuantities',$,$,(#615,#616,#617,#618,#619,#620,#621,#622));
#624=IFCRELDEFINESBYPROPERTIES('2XweeRV4NYLepihz1ybEwg',#18,$,$,(#614),#623);
#625=IFCMATERIALLAYERSETUSAGE(#451,.AXIS2.,.NEGATIVE.,100.,$);
#626=IFCPROPERTYSET('3hGl2VkcqB8iRFK773FtvP',#18,'Pset_EnvironmentalImpactIndicators',$,(#454));
#627=IFCPROPERTYSINGLEVALUE('Reference',$,IFCLABEL('Wall 1'),$);
#628=IFCPROPERTYSET('1r9NPp1XGpFXbLqkuZArqA',#18,'Pset_ReinforcementBarPitchOfWall',$,(#627));
#629=IFCPROPERTYSET('0XIzLGrrz6ihY_U$SIt7H_',#18,'Pset_WallCommon',$,(#454,#458,#459,#460));
#630=IFCRELDEFINESBYPROPERTIES('2ZTgBEWrozbvdiZSCYQrbX',#18,$,$,(#614),#626);
#631=IFCRELDEFINESBYPROPERTIES('27s$g_msatXAGPEUdX4Pj3',#18,$,$,(#614),#628);
#632=IFCRELDEFINESBYPROPERTIES('0wnCq3UNCgAEckc6FSUy3E',#18,$,$,(#614),#629);
#633=IFCPROPERTYSINGLEVALUE('Unconnected Height',$,IFCLENGTHMEASURE(3000.),$);
#634=IFCPROPERTYSINGLEVALUE('Area',$,IFCAREAMEASURE(23.399999999999999),$);
#635=IFCPROPERTYSINGLEVALUE('Length',$,IFCLENGTHMEASURE(7999.9999999999991),$);
#636=IFCPROPERTYSINGLEVALUE('Volume',$,IFCVOLUMEMEASURE(4.6799999999999917),$);
#637=IFCPROPERTYSINGLEVALUE('Comments',$,IFCTEXT('perimeter 0 west'),$);
#638=IFCPROPERTYSET('0UbId49x7xw39TCC8EGTUd',#18,'Other',$,(#465,#466,#467,#468,#469));
#639=IFCPROPERTYSET('1ir4lTa5eM1lGImDGn4_oK',#18,'Constraints',$,(#120,#470,#471,#472,#473,#474,#475,#476,#477,#478,#633));
#640=IFCPROPERTYSET('08t3c3D$wql8hKh0iWqsdI',#18,'Dimensions',$,(#634,#635,#636));
#641=IFCPROPERTYSET('2yKi_jefKIGdeZR8hnZoF0',#18,'Identity Data',$,(#637));
#642=IFCPROPERTYSET('2iKmUsrEeofjTL$5GEwPUA',#18,'Phasing',$,(#484));
#643=IFCPROPERTYSET('0heldi3_HrNk7PTLwcgaEY',#18,'Structural',$,(#485,#486));
#644=IFCPROPERTYSET('2bjB37e6ANWab$cjHu5ja8',#18,'Cross-Section Definition',$,(#487));
#645=IFCCARTESIANPOINT((5000.,100.,0.));
#646=IFCAXIS2PLACEMENT3D(#645,#9,#7);
#647=IFCLOCALPLACEMENT(#34,#646);
#648=IFCCARTESIANPOINT((7800.,0.));
#649=IFCPOLYLINE((#4,#648));
#650=IFCSHAPEREPRESENTATION(#23,'Axis','Curve2D',(#649));
#651=IFCCARTESIANPOINT((3899.9999999999995,0.));
#652=IFCAXIS2PLACEMENT2D(#651,#12);
#653=IFCRECTANGLEPROFILEDEF(.AREA.,$,#652,7799.9999999999991,200.);
#654=IFCAXIS2PLACEMENT3D(#3,$,$);
#655=IFCEXTRUDEDAREASOLID(#653,#654,#9,3000.);
#656=IFCSTYLEDITEM(#655,(#431),$);
#657=IFCSHAPEREPRESENTATION(#24,'Body','SweptSolid',(#655));
#658=IFCPRODUCTDEFINITIONSHAPE($,$,(#650,#657));
#659=IFCWALL('0EzERN9n97uOuqyDhoSlHl',#18,'Basic Wall:Wall 1:2789',$,'Basic Wall:Wall 1',#647,#658,'2789',.NOTDEFINED.);
#660=IFCQUANTITYLENGTH('Height',$,$,3000.,$);
#661=IFCQUANTITYLENGTH('Length',$,$,7799.9999999999991,$);
#662=IFCQUANTITYLENGTH('Width',$,$,200.,$);
#663=IFCQUANTITYAREA('GrossFootprintArea',$,$,1.5600000000000001,$);
#664=IFCQUANTITYVOLUME('GrossVolume',$,$,4.6800000000000006,$);
#665=IFCQUANTITYAREA('GrossSideArea',$,$,23.400000000000002,$);
#666=IFCQUANTITYAREA('NetSideArea',$,$,23.399999999999999,$);
#667=IFCQUANTITYVOLUME('NetVolume',$,$,4.6800000000000086,$);
#668=IFCELEMENTQUANTITY('0YvX3YDvgs7D4ULMgfTxkl',#18,'Qto_WallBaseQuantities',$,$,(#660,#661,#662,#663,#664,#665,#666,#667));
#669=IFCRELDEFINESBYPROPERTIES('2xqbaUqXkmjOIVCeIoYPd9',#18,$,$,(#659),#668);
#670=IFCMATERIALLAYERSETUSAGE(#451,.AXIS2.,.NEGATIVE.,100.,$);
#671=IFCPROPERTYSET('2v$UUyWjXeR4d7FemvRagd',#18,'Pset_EnvironmentalImpactIndicators',$,(#454));
#672=IFCPROPERTYSINGLEVALUE('Reference',$,IFCLABEL('Wall 1'),$);
#673=IFCPROPERTYSET('01X$$OoeqXD_F7llv$FxZH',#18,'Pset_ReinforcementBarPitchOfWall',$,(#672));
#674=IFCPROPERTYSET('0FwZeITtDl2Csb7KkwtkaD',#18,'Pset_WallCommon',$,(#454,#458,#459,#460));
#675=IFCRELDEFINESBYPROPERTIES('07rVJPxzNHbxGOP9RtG2dw',#18,$,$,(#659),#671);
#676=IFCRELDEFINESBYPROPERTIES('3_8mxxjuZocZ$8rAYbNPaH',#18,$,$,(#659),#673);
#677=IFCRELDEFINESBYPROPERTIES('3Q1coM2v1TGm4GqXIuWDNo',#18,$,$,(#659),#674);
#678=IFCPROPERTYSINGLEVALUE('Unconnected Height',$,IFCLENGTHMEASURE(3000.),$);
#679=IFCPROPERTYSINGLEVALUE('Area',$,IFCAREAMEASURE(23.399999999999999),$);
#680=IFCPROPERTYSINGLEVALUE('Length',$,IFCLENGTHMEASURE(7999.9999999999991),$);
#681=IFCPROPERTYSINGLEVALUE('Volume',$,IFCVOLUMEMEASURE(4.6800000000000086),$);
#682=IFCPROPERTYSINGLEVALUE('Comments',$,IFCTEXT('foyer classroom line'),$);
#683=IFCPROPERTYSET('3WtpIsBLbXk7SAxa9YdNOJ',#18,'Other',$,(#465,#466,#467,#468,#469));
#684=IFCPROPERTYSET('3Bj0OMHQOo9CtZaDMjkLnR',#18,'Constraints',$,(#120,#470,#471,#472,#473,#474,#475,#476,#477,#478,#678));
#685=IFCPROPERTYSET('0xaf_Z5Di8nclgxmIVPxpY',#18,'Dimensions',$,(#679,#680,#681));
#686=IFCPROPERTYSET('05_saOp1cb8Eua$qXrX4Cv',#18,'Identity Data',$,(#682));
#687=IFCPROPERTYSET('2VjxlzEte_wVK6X8UckPMN',#18,'Phasing',$,(#484));
#688=IFCPROPERTYSET('2ePkp6aDKH$bUmXYu7UEFb',#18,'Structural',$,(#485,#486));
#689=IFCPROPERTYSET('18FYyHLUPdFs6WlE6Gm5TD',#18,'Cross-Section Definition',$,(#487));
#690=IFCCARTESIANPOINT((10000.,100.,0.));
#691=IFCAXIS2PLACEMENT3D(#690,#9,#7);
#692=IFCLOCALPLACEMENT(#34,#691);
#693=IFCCARTESIANPOINT((7800.,0.));
#694=IFCPOLYLINE((#4,#693));
#695=IFCSHAPEREPRESENTATION(#23,'Axis','Curve2D',(#694));
#696=IFCCARTESIANPOINT((3899.9999999999995,0.));
#697=IFCAXIS2PLACEMENT2D(#696,#12);
#698=IFCRECTANGLEPROFILEDEF(.AREA.,$,#697,7799.9999999999991,199.99999999999784);
#699=IFCAXIS2PLACEMENT3D(#3,$,$);
#700=IFCEXTRUDEDAREASOLID(#698,#699,#9,3000.);
#701=IFCSTYLEDITEM(#700,(#431),$);
#702=IFCSHAPEREPRESENTATION(#24,'Body','SweptSolid',(#700));
#703=IFCPRODUCTDEFINITIONSHAPE($,$,(#695,#702));
#704=IFCWALL('0EzERN9n97uOuqyDhoSlHi',#18,'Basic Wall:Wall 1:2790',$,'Basic Wall:Wall 1',#692,#703,'2790',.NOTDEFINED.);
#705=IFCQUANTITYLENGTH('Height',$,$,3000.,$);
#706=IFCQUANTITYLENGTH('Length',$,$,7799.9999999999991,$);
#707=IFCQUANTITYLENGTH('Width',$,$,200.,$);
#708=IFCQUANTITYAREA('GrossFootprintArea',$,$,1.5599999999999832,$);
#709=IFCQUANTITYVOLUME('GrossVolume',$,$,4.6800000000000006,$);
#710=IFCQUANTITYAREA('GrossSideArea',$,$,23.400000000000002,$);
#711=IFCQUANTITYAREA('NetSideArea',$,$,23.399999999999999,$);
#712=IFCQUANTITYVOLUME('NetVolume',$,$,4.6800000000000006,$);
#713=IFCELEMENTQUANTITY('3idY5Jg6GlEd4Dw_nQL6gc',#18,'Qto_WallBaseQuantities',$,$,(#705,#706,#707,#708,#709,#710,#711,#712));
#714=IFCRELDEFINESBYPROPERTIES('3kQ4ED6O4hcl0c5aNWL8B0',#18,$,$,(#704),#713);
#715=IFCMATERIALLAYERSETUSAGE(#451,.AXIS2.,.NEGATIVE.,100.,$);
#716=IFCPROPERTYSET('0pjvUn25UN3qwCtGgF7DbX',#18,'Pset_EnvironmentalImpactIndicators',$,(#454));
#717=IFCPROPERTYSINGLEVALUE('Reference',$,IFCLABEL('Wall 1'),$);
#718=IFCPROPERTYSET('3XLbf80dVYqxmX7GzSeeRV',#18,'Pset_ReinforcementBarPitchOfWall',$,(#717));
#719=IFCPROPERTYSET('2LdB8aX$R2aGue_mdBtHma',#18,'Pset_WallCommon',$,(#454,#458,#459,#460));
#720=IFCRELDEFINESBYPROPERTIES('2xGV1BatckITsljXrav_k8',#18,$,$,(#704),#716);
#721=IFCRELDEFINESBYPROPERTIES('07E8_SzrlIB7P3FWAjHqfz',#18,$,$,(#704),#718);
#722=IFCRELDEFINESBYPROPERTIES('2EEnmIA4kQk1IsXJ28$OAu',#18,$,$,(#704),#719);
#723=IFCPROPERTYSINGLEVALUE('Unconnected Height',$,IFCLENGTHMEASURE(3000.),$);
#724=IFCPROPERTYSINGLEVALUE('Area',$,IFCAREAMEASURE(23.399999999999999),$);
#725=IFCPROPERTYSINGLEVALUE('Length',$,IFCLENGTHMEASURE(7999.9999999999991),$);
#726=IFCPROPERTYSINGLEVALUE('Volume',$,IFCVOLUMEMEASURE(4.6800000000000006),$);
#727=IFCPROPERTYSINGLEVALUE('Comments',$,IFCTEXT('classroom split'),$);
#728=IFCPROPERTYSET('0BY05u8X_nK$iYhq_m9Wv8',#18,'Other',$,(#465,#466,#467,#468,#469));
#729=IFCPROPERTYSET('14q8YO367b_inJXRUveL5y',#18,'Constraints',$,(#120,#470,#471,#472,#473,#474,#475,#476,#477,#478,#723));
#730=IFCPROPERTYSET('2zIF3cGtkASBRafRtbtkRV',#18,'Dimensions',$,(#724,#725,#726));
#731=IFCPROPERTYSET('3owBbjaxLTBhbuE9l5ghqs',#18,'Identity Data',$,(#727));
#732=IFCPROPERTYSET('3pIVe6c0QgPzDevS8f5UVW',#18,'Phasing',$,(#484));
#733=IFCPROPERTYSET('1WHlMD29J3a0BkbXewSS0_',#18,'Structural',$,(#485,#486));
#734=IFCPROPERTYSET('299rNtYKWueaRRMfygfnIz',#18,'Cross-Section Definition',$,(#487));
#735=IFCCARTESIANPOINT((15000.,100.,0.));
#736=IFCAXIS2PLACEMENT3D(#735,#9,#7);
#737=IFCLOCALPLACEMENT(#34,#736);
#738=IFCCARTESIANPOINT((7800.,0.));
#739=IFCPOLYLINE((#4,#738));
#740=IFCSHAPEREPRESENTATION(#23,'Axis','Curve2D',(#739));
#741=IFCCARTESIANPOINT((3899.9999999999995,0.));
#742=IFCAXIS2PLACEMENT2D(#741,#12);
#743=IFCRECTANGLEPROFILEDEF(.AREA.,$,#742,7799.9999999999991,199.99999999999784);
#744=IFCAXIS2PLACEMENT3D(#3,$,$);
#745=IFCEXTRUDEDAREASOLID(#743,#744,#9,3000.);
#746=IFCSTYLEDITEM(#745,(#431),$);
#747=IFCSHAPEREPRESENTATION(#24,'Body','SweptSolid',(#745));
#748=IFCPRODUCTDEFINITIONSHAPE($,$,(#740,#747));
#749=IFCWALL('0EzERN9n97uOuqyDhoSlHj',#18,'Basic Wall:Wall 1:2791',$,'Basic Wall:Wall 1',#737,#748,'2791',.NOTDEFINED.);
#750=IFCQUANTITYLENGTH('Height',$,$,3000.,$);
#751=IFCQUANTITYLENGTH('Length',$,$,7799.9999999999991,$);
#752=IFCQUANTITYLENGTH('Width',$,$,200.,$);
#753=IFCQUANTITYAREA('GrossFootprintArea',$,$,1.5599999999999832,$);
#754=IFCQUANTITYVOLUME('GrossVolume',$,$,4.6800000000000006,$);
#755=IFCQUANTITYAREA('GrossSideArea',$,$,23.400000000000002,$);
#756=IFCQUANTITYAREA('NetSideArea',$,$,23.399999999999999,$);
#757=IFCQUANTITYVOLUME('NetVolume',$,$,4.6800000000000006,$);
#758=IFCELEMENTQUANTITY('3myJCtYAcLoTW$CZfRs1DH',#18,'Qto_WallBaseQuantities',$,$,(#750,#751,#752,#753,#754,#755,#756,#757));
#759=IFCRELDEFINESBYPROPERTIES('3ucn1X0z8Wif9P6jB2DRyM',#18,$,$,(#749),#758);
#760=IFCMATERIALLAYERSETUSAGE(#451,.AXIS2.,.NEGATIVE.,100.,$);
#761=IFCPROPERTYSET('3R1FlUonoJr_n12YsbCBhk',#18,'Pset_EnvironmentalImpactIndicators',$,(#454));
#762=IFCPROPERTYSINGLEVALUE('Reference',$,IFCLABEL('Wall 1'),$);
#763=IFCPROPERTYSET('1bMiPbvoMY6y95VzKyGsck',#18,'Pset_ReinforcementBarPitchOfWall',$,(#762));
#764=IFCPROPERTYSET('3sYzjj67e4_EXptpPxtSbX',#18,'Pset_WallCommon',$,(#454,#458,#459,#460));
#765=IFCRELDEFINESBYPROPERTIES('1fyOFRbLDNLI4IuN3$ki9f',#18,$,$,(#749),#761);
#766=IFCRELDEFINESBYPROPERTIES('28Vs71fcwv91xPyM_a8_bT',#18,$,$,(#749),#763);
#767=IFCRELDEFINESBYPROPERTIES('05PxylwyXw3YrjajVwDSti',#18,$,$,(#749),#764);
#768=IFCPROPERTYSINGLEVALUE('Unconnected Height',$,IFCLENGTHMEASURE(3000.),$);
#769=IFCPROPERTYSINGLEVALUE('Area',$,IFCAREAMEASURE(23.399999999999999),$);
#770=IFCPROPERTYSINGLEVALUE('Length',$,IFCLENGTHMEASURE(7999.9999999999991),$);
#771=IFCPROPERTYSINGLEVALUE('Volume',$,IFCVOLUMEMEASURE(4.6800000000000006),$);
#772=IFCPROPERTYSINGLEVALUE('Comments',$,IFCTEXT('store line'),$);
#773=IFCPROPERTYSET('1wfD6KvtAtwrPZrkdD$3Ly',#18,'Other',$,(#465,#466,#467,#468,#469));
#774=IFCPROPERTYSET('00Wd0s4V7ndOk1J2hSmduc',#18,'Constraints',$,(#120,#470,#471,#472,#473,#474,#475,#476,#477,#478,#768));
#775=IFCPROPERTYSET('372MJHYLjgDWRtze_mZKGI',#18,'Dimensions',$,(#769,#770,#771));
#776=IFCPROPERTYSET('3l9D4VFyTQUTMEAVUDOQig',#18,'Identity Data',$,(#772));
#777=IFCPROPERTYSET('2rsg6$PeN_pUhyaMbYEQt9',#18,'Phasing',$,(#484));
#778=IFCPROPERTYSET('1YfTU2KD9niZfy$nubKeIs',#18,'Structural',$,(#485,#486));
#779=IFCPROPERTYSET('1hfqgxfYqZ2yAmkyKxdoTK',#18,'Cross-Section Definition',$,(#487));
#780=IFCAXIS2PLACEMENT3D(#3,$,$);
#781=IFCLOCALPLACEMENT(#34,#780);
#782=IFCCARTESIANPOINT((0.,0.));
#783=IFCAXIS2PLACEMENT2D(#782,#11);
#784=IFCRECTANGLEPROFILEDEF(.AREA.,$,#783,7999.9999999999991,20000.);
#785=IFCCARTESIANPOINT((10000.,4000.,0.));
#786=IFCAXIS2PLACEMENT3D(#785,#10,#7);
#787=IFCEXTRUDEDAREASOLID(#784,#786,#9,299.99999999999994);
#788=IFCSHAPEREPRESENTATION(#24,'Body','SweptSolid',(#787));
#789=IFCCARTESIANPOINT((0.,8000.));
#790=IFCCARTESIANPOINT((20000.,8000.));
#791=IFCCARTESIANPOINT((20000.,0.));
#792=IFCPOLYLINE((#4,#789,#790,#791,#4));
#793=IFCSHAPEREPRESENTATION(#26,'FootPrint','Curve2D',(#792));
#794=IFCPRODUCTDEFINITIONSHAPE($,$,(#788,#793));
#795=IFCSLAB('0EzERN9n97uOuqyDhoSlHW',#18,'Floor:Floor 1:2794',$,'Floor:Floor 1',#781,#794,'2794',.FLOOR.);
#796=IFCSLABTYPE('0EzERN9n97uOuqyDhoSlb2',#18,'Floor:Floor 1',$,$,(#845,#846,#847,#848,#849,#850),$,'1992',$,.FLOOR.);
#797=IFCMATERIAL('<Unnamed>',$,$);
#798=IFCMATERIALLAYER(#797,299.99999999999994,$,'Layer',$,$,$);
#799=IFCMATERIALLAYERSET((#798),'Floor:Floor 1',$);
#800=IFCMATERIALLAYERSETUSAGE(#799,.AXIS3.,.POSITIVE.,0.,$);
#801=IFCPROPERTYSINGLEVALUE('Reference',$,IFCIDENTIFIER('Floor 1'),$);
#802=IFCPROPERTYSET('2AriL9atpBurSjjL94dZvI',#18,'Pset_EnvironmentalImpactIndicators',$,(#801));
#803=IFCPROPERTYSINGLEVALUE('Reference',$,IFCLABEL('Floor 1'),$);
#804=IFCPROPERTYSET('2Wj7O6TGKY1gdE6YI_fFZB',#18,'Pset_ReinforcementBarPitchOfSlab',$,(#803));
#805=IFCPROPERTYSINGLEVALUE('PitchAngle',$,IFCPLANEANGLEMEASURE(0.),$);
#806=IFCPROPERTYSET('2xIyxubiKcgQqRk6MMcksu',#18,'Pset_SlabCommon',$,(#103,#459,#801,#805));
#807=IFCRELDEFINESBYPROPERTIES('2V$$fkGjphJZIFrQ5Bsnm8',#18,$,$,(#795),#802);
#808=IFCRELDEFINESBYPROPERTIES('3$FMVqj_bCHQiDdXLvKUKS',#18,$,$,(#795),#804);
#809=IFCRELDEFINESBYPROPERTIES('09Eir0u2IaoFC4LD56dIIQ',#18,$,$,(#795),#806);
#810=IFCQUANTITYLENGTH('Width','',$,20000.,$);
#811=IFCQUANTITYLENGTH('Length','',$,7999.9999999999991,$);
#812=IFCQUANTITYLENGTH('Depth','',$,299.99999999999994,$);
#813=IFCQUANTITYLENGTH('Perimeter','',$,183.72703412073491,$);
#814=IFCQUANTITYAREA('GrossArea','',$,159.99999999999997,$);
#815=IFCQUANTITYAREA('NetArea','',$,159.99999999999997,$);
#816=IFCQUANTITYVOLUME('GrossVolume','',$,47.999999999999993,$);
#817=IFCQUANTITYVOLUME('NetVolume','',$,47.999999999999993,$);
#818=IFCELEMENTQUANTITY('2Yd74BxNGFMSbNafTXaGWK',#18,'Qto_SlabBaseQuantities',$,$,(#810,#811,#812,#813,#814,#815,#816,#817));
#819=IFCRELDEFINESBYPROPERTIES('0U5DLG4WzTvQzGBgQpu_O_',#18,$,$,(#795),#818);
#820=IFCPROPERTYSINGLEVALUE('Category',$,IFCLABEL('Floors'),$);
#821=IFCPROPERTYSINGLEVALUE('Family',$,IFCLABEL('Floor'),$);
#822=IFCPROPERTYSINGLEVALUE('Family and Type',$,IFCLABEL('Floor: Floor 1'),$);
#823=IFCPROPERTYSINGLEVALUE('Type',$,IFCLABEL('Floor 1'),$);
#824=IFCPROPERTYSINGLEVALUE('Type Id',$,IFCLABEL('1992'),$);
#825=IFCPROPERTYSINGLEVALUE('Height Offset From Level',$,IFCLENGTHMEASURE(0.),$);
#826=IFCPROPERTYSINGLEVALUE('Level',$,IFCLABEL('Ground Floor'),$);
#827=IFCPROPERTYSINGLEVALUE('Area',$,IFCAREAMEASURE(160.),$);
#828=IFCPROPERTYSINGLEVALUE('Elevation at Bottom',$,IFCLENGTHMEASURE(-299.99999999999994),$);
#829=IFCPROPERTYSINGLEVALUE('Elevation at Bottom Core',$,IFCLENGTHMEASURE(-299.99999999999994),$);
#830=IFCPROPERTYSINGLEVALUE('Elevation at Top',$,IFCLENGTHMEASURE(0.),$);
#831=IFCPROPERTYSINGLEVALUE('Elevation at Top Core',$,IFCLENGTHMEASURE(0.),$);
#832=IFCPROPERTYSINGLEVALUE('Perimeter',$,IFCLENGTHMEASURE(56000.000000000007),$);
#833=IFCPROPERTYSINGLEVALUE('Thickness',$,IFCLENGTHMEASURE(299.99999999999994),$);
#834=IFCPROPERTYSINGLEVALUE('Volume',$,IFCVOLUMEMEASURE(48.),$);
#835=IFCPROPERTYSINGLEVALUE('Has Association',$,IFCBOOLEAN(.F.),$);
#836=IFCPROPERTYSINGLEVALUE('Family Name',$,IFCTEXT('Floor'),$);
#837=IFCPROPERTYSINGLEVALUE('Default Thickness',$,IFCLENGTHMEASURE(299.99999999999994),$);
#838=IFCPROPERTYSINGLEVALUE('Type Name',$,IFCTEXT('Floor 1'),$);
#839=IFCPROPERTYSET('37OvCWLwaHSb_CQMyBcEMQ',#18,'Other',$,(#820,#821,#822,#823,#824));
#840=IFCPROPERTYSET('0aw1KxTRMAmbl3PjTXvifd',#18,'Constraints',$,(#474,#475,#825,#826));
#841=IFCPROPERTYSET('1lMLe8KE2E331E3FyyK_GC',#18,'Dimensions',$,(#827,#828,#829,#830,#831,#832,#833,#834));
#842=IFCPROPERTYSET('2Ui$q9VFueLJQJ_RPL7IaP',#18,'Identity Data',$,(#835));
#843=IFCPROPERTYSET('3sXTXXZs$hzndwZdxlI1_z',#18,'Phasing',$,(#484));
#844=IFCPROPERTYSET('3BIOl4mRcgN5zcoZOgfhOm',#18,'Structural',$,(#485));
#845=IFCPROPERTYSET('11Zed3$81L3kz2Dlrzkwgo',#18,'Other',$,(#820,#836));
#846=IFCPROPERTYSET('3Fmyu8F75ZCpFPGU0PDWar',#18,'Construction',$,(#837));
#847=IFCPROPERTYSET('3a$dy$oQHY4902DDRNCvyu',#18,'Graphics',$,(#493));
#848=IFCPROPERTYSET('2gEFZQxrRJl4JwpteUKZnw',#18,'Identity Data',$,(#838));
#849=IFCPROPERTYSET('0xM8aJthkYXtK9rQhGC3us',#18,'Analytical Properties',$,(#495,#496));
#850=IFCPROPERTYSET('2_v_akYUc_TGGGkt7G6eNR',#18,'Pset_SlabCommon',$,(#103));
#851=IFCPROPERTYSINGLEVALUE('Reference',$,IFCIDENTIFIER('Level 1'),$);
#852=IFCPROPERTYSINGLEVALUE('AboveGround',$,IFCLOGICAL(.U.),$);
#853=IFCPROPERTYSET('0yNHTQmRaW6Hf3oJPksYf2',#18,'Pset_BuildingStoreyCommon',$,(#851,#852));
#854=IFCRELDEFINESBYPROPERTIES('2WA5uwBWOwWgx0NsnAYYhm',#18,$,$,(#35),#853);
#855=IFCPROPERTYSINGLEVALUE('Category',$,IFCLABEL('Levels'),$);
#856=IFCPROPERTYSINGLEVALUE('Family',$,IFCLABEL('Level'),$);
#857=IFCPROPERTYSINGLEVALUE('Family and Type',$,IFCLABEL('Level: Level 1'),$);
#858=IFCPROPERTYSINGLEVALUE('Type',$,IFCLABEL('Level 1'),$);
#859=IFCPROPERTYSINGLEVALUE('Type Id',$,IFCLABEL('1945'),$);
#860=IFCPROPERTYSINGLEVALUE('Elevation',$,IFCLENGTHMEASURE(0.),$);
#861=IFCPROPERTYSINGLEVALUE('Building Story',$,IFCBOOLEAN(.T.),$);
#862=IFCPROPERTYSINGLEVALUE('Name',$,IFCTEXT('Ground Floor'),$);
#863=IFCPROPERTYSINGLEVALUE('Family Name',$,IFCTEXT('Level'),$);
#864=IFCPROPERTYSINGLEVALUE('Elevation Base',$,IFCIDENTIFIER('Project Base Point'),$);
#865=IFCPROPERTYSINGLEVALUE('Color',$,IFCINTEGER(0),$);
#866=IFCPROPERTYSINGLEVALUE('Line Pattern',$,IFCLABEL('Solid'),$);
#867=IFCPROPERTYSINGLEVALUE('Line Weight',$,IFCIDENTIFIER('1'),$);
#868=IFCPROPERTYSINGLEVALUE('Symbol at End 1 Default',$,IFCBOOLEAN(.F.),$);
#869=IFCPROPERTYSINGLEVALUE('Symbol at End 2 Default',$,IFCBOOLEAN(.T.),$);
#870=IFCPROPERTYSINGLEVALUE('Type Name',$,IFCTEXT('Level 1'),$);
#871=IFCPROPERTYSET('3q98k3QO9sZlefxHMUU3sW',#18,'Other',$,(#855,#856,#857,#858,#859));
#872=IFCPROPERTYSET('0vxYLIC$XUrz$beu9Ls43v',#18,'Constraints',$,(#860));
#873=IFCPROPERTYSET('1lz64VaTbiOP1ff2flAJsu',#18,'Dimensions',$,(#125));
#874=IFCPROPERTYSET('1R0vEozVFWixbeH$yzLcPV',#18,'Identity Data',$,(#485,#861,#862));
#875=IFCPROPERTYSET('1u9Tvfadd9bZ4PGnI2xhzx',#18,'Other(Type)',$,(#855,#863));
#876=IFCPROPERTYSET('3qfNkqSxVdG$kBz4lAXYG_',#18,'Constraints(Type)',$,(#864));
#877=IFCPROPERTYSET('0HE52b5j6ykiWCcHH2FyzU',#18,'Graphics(Type)',$,(#865,#866,#867,#868,#869));
#878=IFCPROPERTYSET('1uNqtl17oCuLBFx9_l81ox',#18,'Identity Data(Type)',$,(#870));
#879=IFCRELCONTAINEDINSPATIALSTRUCTURE('0EzERN9n97uOuqyDloSlaL',#18,$,$,(#435,#524,#569,#614,#659,#704,#749,#795),#35);
#880=IFCRELAGGREGATES('1W_xj6dLKTFatnuQREnP0m',#18,$,$,#27,(#38));
#881=IFCRELAGGREGATES('1nJqJKF3ZmtG_GW7EAYhPn',#18,$,$,#38,(#32));
#882=IFCRELAGGREGATES('0EzERN9n97uOuqyDZoSlaL',#18,$,$,#35,(#61,#173,#258,#343));
#883=IFCRELAGGREGATES('0EzERN9n97uOuqyDdoSlWR',#18,$,$,#32,(#35));
#884=IFCPROPERTYSINGLEVALUE('NumberOfStoreys',$,IFCINTEGER(1),$);
#885=IFCPROPERTYSINGLEVALUE('IsLandmarked',$,IFCLOGICAL(.U.),$);
#886=IFCPROPERTYSET('2Hs4q_kGjDkDicw5WR47jg',#18,'Pset_BuildingCommon',$,(#39,#884,#885));
#887=IFCPROPERTYSET('2DNqb_RFOa8ZVQAZRNsRNj',#18,'Pset_BuildingElementProxyCommon',$,(#39,#103));
#888=IFCPROPERTYSET('3NfOkpZ7E5PRwV7uVZMwBd',#18,'Pset_BuildingStoreyCommon',$,(#39,#852));
#889=IFCPROPERTYSET('3atA_65vTC0mpWf$MqMQlc',#18,'Pset_BuildingSystemCommon',$,(#39));
#890=IFCRELDEFINESBYPROPERTIES('1_Ufiw4KOR2kvJU_bRflaj',#18,$,$,(#32),#886);
#891=IFCRELDEFINESBYPROPERTIES('16SeY8EwRYz_ItIflj8fh3',#18,$,$,(#32),#887);
#892=IFCRELDEFINESBYPROPERTIES('3iFfpFqpwCfc9etn0Z$MKn',#18,$,$,(#32),#888);
#893=IFCRELDEFINESBYPROPERTIES('1YNt0zF8nMk7O3GqlhZ3MA',#18,$,$,(#32),#889);
#894=IFCRELASSOCIATESMATERIAL('1cimMLFtF_fb6bBWu$c96A',#18,$,$,(#435),#452);
#895=IFCRELASSOCIATESMATERIAL('329q_oOegTfz0MRd2J7UCH',#18,$,$,(#524),#535);
#896=IFCRELASSOCIATESMATERIAL('09OI_wUpSniaMkst$zbe_9',#18,$,$,(#569),#580);
#897=IFCRELASSOCIATESMATERIAL('31CkLnM1Co_3pm6dr85ui0',#18,$,$,(#614),#625);
#898=IFCRELASSOCIATESMATERIAL('2dX46M3bBTIadlksT$_RW$',#18,$,$,(#659),#670);
#899=IFCRELASSOCIATESMATERIAL('3sBLrA9adawk3vQcKhw2lM',#18,$,$,(#704),#715);
#900=IFCRELASSOCIATESMATERIAL('23xXfmo5vIgiG6Z3eR$8Xt',#18,$,$,(#749),#760);
#901=IFCRELASSOCIATESMATERIAL('3AjZqshn5HYIKoUTSNpR7T',#18,$,$,(#795),#800);
#902=IFCRELASSOCIATESMATERIAL('3bDxf_McKja7sICr_1JWwy',#18,$,$,(#453),#451);
#903=IFCRELASSOCIATESMATERIAL('1vgi6mEFMre8oqU7x2fhz5',#18,$,$,(#796),#799);
#904=IFCRELDEFINESBYTYPE('0ocYSPyZtH6JjY75Gj4eLl',#18,$,$,(#61),#62);
#905=IFCRELDEFINESBYTYPE('1vOpfI0tgHcpXUI8vDXXiM',#18,$,$,(#173),#174);
#906=IFCRELDEFINESBYTYPE('2iW0xNROb4dqFQBDMQ7$v4',#18,$,$,(#258),#259);
#907=IFCRELDEFINESBYTYPE('1gpChzbzQaHX4EMfw5P3YJ',#18,$,$,(#343),#344);
#908=IFCRELDEFINESBYTYPE('3nA6OtdAayAJtqNj1hQ4l4',#18,$,$,(#435,#524,#569,#614,#659,#704,#749),#453);
#909=IFCRELDEFINESBYTYPE('2s4LwDT3m45E2I0YpVDcsy',#18,$,$,(#795),#796);
#910=IFCRELDEFINESBYPROPERTIES('01OH2ZO00Mte5FhlrMrQqd',#18,$,$,(#32,#38),#46);
#911=IFCRELDEFINESBYPROPERTIES('1iTUkhtpA5SFI$2h_u6H5C',#18,$,$,(#35),#871);
#912=IFCRELDEFINESBYPROPERTIES('2C6luF1EQIU4mtNj0Nt3$A',#18,$,$,(#35),#872);
#913=IFCRELDEFINESBYPROPERTIES('1fvs$XmJH8hsz8WrxEW1iz',#18,$,$,(#35),#873);
#914=IFCRELDEFINESBYPROPERTIES('2ehILcBJSSkdBWlKCaVIvS',#18,$,$,(#35),#874);
#915=IFCRELDEFINESBYPROPERTIES('17Ekr$_Us10SRL2hlbJMRJ',#18,$,$,(#435),#497);
#916=IFCRELDEFINESBYPROPERTIES('2MyQD1m7NK1NsGybZM4G8g',#18,$,$,(#435),#498);
#917=IFCRELDEFINESBYPROPERTIES('2pgsyB$HiRIJAM67bgemGX',#18,$,$,(#435),#499);
#918=IFCRELDEFINESBYPROPERTIES('3RcaAZQA8fD_uuKNcGfvX_',#18,$,$,(#435),#500);
#919=IFCRELDEFINESBYPROPERTIES('2OdX5FrI1Sp7BG$Xlwk6ZA',#18,$,$,(#435),#501);
#920=IFCRELDEFINESBYPROPERTIES('2TtiZ0rD0t7QP5akiQ$VaT',#18,$,$,(#435),#502);
#921=IFCRELDEFINESBYPROPERTIES('1Ytm$k_acdUCISy681K5I9',#18,$,$,(#435),#503);
#922=IFCRELDEFINESBYPROPERTIES('11f6qTblxH6Dzw$1DCFwMm',#18,$,$,(#524),#548);
#923=IFCRELDEFINESBYPROPERTIES('1$LtJA6Z2iJmtIJGfuDm9R',#18,$,$,(#524),#549);
#924=IFCRELDEFINESBYPROPERTIES('1OmHdsDiVR_rMyVzpwjHBS',#18,$,$,(#524),#550);
#925=IFCRELDEFINESBYPROPERTIES('3cfhXam$VJwF0ou0_QMK9r',#18,$,$,(#524),#551);
#926=IFCRELDEFINESBYPROPERTIES('1QVEindauN8cbMWgLqtC2I',#18,$,$,(#524),#552);
#927=IFCRELDEFINESBYPROPERTIES('3UHuWFXQLU9Shs$rvF7sUa',#18,$,$,(#524),#553);
#928=IFCRELDEFINESBYPROPERTIES('0fPex7lDNc_T$zkBaMJ3Bh',#18,$,$,(#524),#554);
#929=IFCRELDEFINESBYPROPERTIES('0yXEAOQOrnt$VrHZ7btOkJ',#18,$,$,(#569),#593);
#930=IFCRELDEFINESBYPROPERTIES('1fKh228OMmZXTILeIW68OU',#18,$,$,(#569),#594);
#931=IFCRELDEFINESBYPROPERTIES('1YrtribkiKval22NB2pM32',#18,$,$,(#569),#595);
#932=IFCRELDEFINESBYPROPERTIES('1$1GGJZxSiDJ9VlAVLWHYs',#18,$,$,(#569),#596);
#933=IFCRELDEFINESBYPROPERTIES('0SHN_7StahYaqFk4zwzc5a',#18,$,$,(#569),#597);
#934=IFCRELDEFINESBYPROPERTIES('2uM4G4y4DI86k6Vdq18JHz',#18,$,$,(#569),#598);
#935=IFCRELDEFINESBYPROPERTIES('0$uOGL71eQ$jB19BFxEbc1',#18,$,$,(#569),#599);
#936=IFCRELDEFINESBYPROPERTIES('0Zvyky3OdJvpvhJmMNKNz6',#18,$,$,(#614),#638);
#937=IFCRELDEFINESBYPROPERTIES('1hwlgRR44yoHxFH8w9DJbG',#18,$,$,(#614),#639);
#938=IFCRELDEFINESBYPROPERTIES('3u7jJ6pY0RwNjISm7KpNzH',#18,$,$,(#614),#640);
#939=IFCRELDEFINESBYPROPERTIES('1Ug$tKwzXa1hLK7M1DJl6l',#18,$,$,(#614),#641);
#940=IFCRELDEFINESBYPROPERTIES('3Nb5V9S4tcRHAfOQ44LAt4',#18,$,$,(#614),#642);
#941=IFCRELDEFINESBYPROPERTIES('1vTtF48Gm7Iep21gW0mLrz',#18,$,$,(#614),#643);
#942=IFCRELDEFINESBYPROPERTIES('1d$dthSKmmGzZ6XHM2hZYg',#18,$,$,(#614),#644);
#943=IFCRELDEFINESBYPROPERTIES('1Fi6GMl$pr7ykg87x8R$kP',#18,$,$,(#659),#683);
#944=IFCRELDEFINESBYPROPERTIES('3yOhvRnxn7YwEFryKOZjlD',#18,$,$,(#659),#684);
#945=IFCRELDEFINESBYPROPERTIES('1wkzZejQEC_QPEZ1NRcwVB',#18,$,$,(#659),#685);
#946=IFCRELDEFINESBYPROPERTIES('1HBbypeBzsYKTtygevY1_8',#18,$,$,(#659),#686);
#947=IFCRELDEFINESBYPROPERTIES('0jFJwlcHpEzEZHNXCpIDnz',#18,$,$,(#659),#687);
#948=IFCRELDEFINESBYPROPERTIES('3__nywagD6gxbSDrXLggjA',#18,$,$,(#659),#688);
#949=IFCRELDEFINESBYPROPERTIES('2doxnwK6p8u8zoZJrCX6Em',#18,$,$,(#659),#689);
#950=IFCRELDEFINESBYPROPERTIES('3aM$dbPsWwafAkH7V04BoZ',#18,$,$,(#704),#728);
#951=IFCRELDEFINESBYPROPERTIES('2OYkoEJS3TBbdN7qMmRoaf',#18,$,$,(#704),#729);
#952=IFCRELDEFINESBYPROPERTIES('2iqLeLihTIVm2hDy_pZW9E',#18,$,$,(#704),#730);
#953=IFCRELDEFINESBYPROPERTIES('0ERhw_aRrNj2iAa$NKAD9E',#18,$,$,(#704),#731);
#954=IFCRELDEFINESBYPROPERTIES('1wG4dqwz1ojuh$jXjjZrmL',#18,$,$,(#704),#732);
#955=IFCRELDEFINESBYPROPERTIES('0aswL5C_Q8zwajI2YuztTf',#18,$,$,(#704),#733);
#956=IFCRELDEFINESBYPROPERTIES('388Zos43LNhN_l1m2LW7PM',#18,$,$,(#704),#734);
#957=IFCRELDEFINESBYPROPERTIES('3YoZAs1ROQiOWIHx10Y$8R',#18,$,$,(#749),#773);
#958=IFCRELDEFINESBYPROPERTIES('1Hh$ZtdW9wRnX_1pzE$4CJ',#18,$,$,(#749),#774);
#959=IFCRELDEFINESBYPROPERTIES('1BrLYYcxnscSSvUkofO6bn',#18,$,$,(#749),#775);
#960=IFCRELDEFINESBYPROPERTIES('1WHrfUYktHqs54l$QNDMrk',#18,$,$,(#749),#776);
#961=IFCRELDEFINESBYPROPERTIES('25L1tfn6pZ7Z6ct_RyVKMr',#18,$,$,(#749),#777);
#962=IFCRELDEFINESBYPROPERTIES('1BdjC2Fh0QTrezl9Vd70uv',#18,$,$,(#749),#778);
#963=IFCRELDEFINESBYPROPERTIES('0otKoqdGJdCZikmcudpwLh',#18,$,$,(#749),#779);
#964=IFCRELDEFINESBYPROPERTIES('37fPXglg5pbOl4INGugYe0',#18,$,$,(#795),#839);
#965=IFCRELDEFINESBYPROPERTIES('3$aNsQYTl3NMHrQo9EUmOR',#18,$,$,(#795),#840);
#966=IFCRELDEFINESBYPROPERTIES('0g7mJ1rFanSVeHCoyh00sD',#18,$,$,(#795),#841);
#967=IFCRELDEFINESBYPROPERTIES('39aPaV9pgairp4$2_qAbv0',#18,$,$,(#795),#842);
#968=IFCRELDEFINESBYPROPERTIES('3Kq8VfE5sx2LKkwBrO569w',#18,$,$,(#795),#843);
#969=IFCRELDEFINESBYPROPERTIES('1LlH9mvlwpvVuxk9gugNhb',#18,$,$,(#795),#844);
#970=IFCRELDEFINESBYPROPERTIES('3jnZUCOfWB6CyA9Et9lzFh',#18,$,$,(#61),#157);
#971=IFCRELDEFINESBYPROPERTIES('2zQYq17mJvcspyb8Pvc93k',#18,$,$,(#61),#158);
#972=IFCRELDEFINESBYPROPERTIES('3Tb7miGjJCKEE37LPTZVak',#18,$,$,(#61),#159);
#973=IFCRELDEFINESBYPROPERTIES('37haJt2HaALXO_7H3obpL6',#18,$,$,(#61),#160);
#974=IFCRELDEFINESBYPROPERTIES('1FO$KNSvBHBME0S4FPn0D7',#18,$,$,(#61),#161);
#975=IFCRELDEFINESBYPROPERTIES('2dKSqow92vCnvvpROCay6g',#18,$,$,(#61),#162);
#976=IFCRELDEFINESBYPROPERTIES('1scSN6vVjq3GaTWYyadEqg',#18,$,$,(#173),#242);
#977=IFCRELDEFINESBYPROPERTIES('1cz9mne2mmxu_$FoLLU8eG',#18,$,$,(#173),#243);
#978=IFCRELDEFINESBYPROPERTIES('2ckNNghsUGGFj00xcLycWt',#18,$,$,(#173),#244);
#979=IFCRELDEFINESBYPROPERTIES('26cE65vSaXu_qPo3zYf2rJ',#18,$,$,(#173),#245);
#980=IFCRELDEFINESBYPROPERTIES('1Bp8XH33ve2CoLhNGYYqhD',#18,$,$,(#173),#246);
#981=IFCRELDEFINESBYPROPERTIES('1Wv24CEbhryBRhXg7mcoWj',#18,$,$,(#173),#247);
#982=IFCRELDEFINESBYPROPERTIES('26KwZ0D9jRmOoFJtlIQMGX',#18,$,$,(#258),#327);
#983=IFCRELDEFINESBYPROPERTIES('1UreB_ryQZUjfWjnPs_bx7',#18,$,$,(#258),#328);
#984=IFCRELDEFINESBYPROPERTIES('1azEqmC8jugqkp9yWtLaIm',#18,$,$,(#258),#329);
#985=IFCRELDEFINESBYPROPERTIES('29fjoWp30eeVIHE_P4ijJy',#18,$,$,(#258),#330);
#986=IFCRELDEFINESBYPROPERTIES('0si9dRBNMbPbwhUNBR_pLc',#18,$,$,(#258),#331);
#987=IFCRELDEFINESBYPROPERTIES('2jzWk0ZbYmkO4vZ2eNwLBR',#18,$,$,(#258),#332);
#988=IFCRELDEFINESBYPROPERTIES('0_2_A8umDX_tu6X16vCIhp',#18,$,$,(#343),#412);
#989=IFCRELDEFINESBYPROPERTIES('3z0w4pnWYUUTpZzsmuVXai',#18,$,$,(#343),#413);
#990=IFCRELDEFINESBYPROPERTIES('1jOC63PJmLz27FvJkkphmT',#18,$,$,(#343),#414);
#991=IFCRELDEFINESBYPROPERTIES('3Cxhk8EQwIYTIFG445t9RL',#18,$,$,(#343),#415);
#992=IFCRELDEFINESBYPROPERTIES('2PU0l5tQqccPElySO0EQl2',#18,$,$,(#343),#416);
#993=IFCRELDEFINESBYPROPERTIES('3Z0J46twABt7sP0x9IyyU1',#18,$,$,(#343),#417);
#994=IFCRELDEFINESBYPROPERTIES('0dJdGj$b08hv30CJv4vWPb',#18,$,$,(#35),#875);
#995=IFCRELDEFINESBYPROPERTIES('17Dh4GlT3f5KTILl7frc2l',#18,$,$,(#35),#876);
#996=IFCRELDEFINESBYPROPERTIES('3PpDvXOuqE0abYPQWgJYQB',#18,$,$,(#35),#877);
#997=IFCRELDEFINESBYPROPERTIES('21d0pmma4jtxtsqKenktd3',#18,$,$,(#35),#878);
#998=IFCRELSPACEBOUNDARY('3iudtYc6rvgPxIbnAse1Fy',#18,'1stLevel',$,#61,#795,#71,.PHYSICAL.,.INTERNAL.);
#999=IFCRELSPACEBOUNDARY('2DjqkKDUEvgxhANzg08Fhb',#18,'1stLevel',$,#61,#435,#78,.PHYSICAL.,.EXTERNAL.);
#1000=IFCRELSPACEBOUNDARY('3sZ8xS4GxquB63vJXiD9oD',#18,'1stLevel',$,#61,#659,#85,.PHYSICAL.,.EXTERNAL.);
#1001=IFCRELSPACEBOUNDARY('1doYvr40HHBhZmpq22$raz',#18,'1stLevel',$,#61,#569,#92,.PHYSICAL.,.EXTERNAL.);
#1002=IFCRELSPACEBOUNDARY('2YpKytCueVVgSkw7T_KYXi',#18,'1stLevel',$,#61,#614,#99,.PHYSICAL.,.EXTERNAL.);
#1003=IFCRELSPACEBOUNDARY('3JSyiDcTFWKJ1q2f2KXowf',#18,'1stLevel',$,#173,#795,#183,.PHYSICAL.,.INTERNAL.);
#1004=IFCRELSPACEBOUNDARY('1dQ4KLOAJvWiVm1wGKtHEt',#18,'1stLevel',$,#173,#435,#190,.PHYSICAL.,.EXTERNAL.);
#1005=IFCRELSPACEBOUNDARY('19xHhux2kCi4$PTe1RIIV9',#18,'1stLevel',$,#173,#704,#197,.PHYSICAL.,.EXTERNAL.);
#1006=IFCRELSPACEBOUNDARY('3UqD1SvzL7ogM5xEYo9SXF',#18,'1stLevel',$,#173,#569,#204,.PHYSICAL.,.EXTERNAL.);
#1007=IFCRELSPACEBOUNDARY('3voGpMAWshs1OykIFeuCvv',#18,'1stLevel',$,#173,#659,#211,.PHYSICAL.,.EXTERNAL.);
#1008=IFCRELSPACEBOUNDARY('1ieloZfcwXpwxUQ3Ai0www',#18,'1stLevel',$,#258,#795,#268,.PHYSICAL.,.INTERNAL.);
#1009=IFCRELSPACEBOUNDARY('07Lbye6HkIusKesKhWhW_B',#18,'1stLevel',$,#258,#435,#275,.PHYSICAL.,.EXTERNAL.);
#1010=IFCRELSPACEBOUNDARY('3ZM0Cr2giEHu$r3rEIPnx9',#18,'1stLevel',$,#258,#749,#282,.PHYSICAL.,.EXTERNAL.);
#1011=IFCRELSPACEBOUNDARY('0UwDam9k5Wv9iAbGDM7MEk',#18,'1stLevel',$,#258,#569,#289,.PHYSICAL.,.EXTERNAL.);
#1012=IFCRELSPACEBOUNDARY('3$WrF8OBk$BlL6FbMm5Mpd',#18,'1stLevel',$,#258,#704,#296,.PHYSICAL.,.EXTERNAL.);
#1013=IFCRELSPACEBOUNDARY('3p21HFMuEr3pgkq1aCpNJt',#18,'1stLevel',$,#343,#795,#353,.PHYSICAL.,.INTERNAL.);
#1014=IFCRELSPACEBOUNDARY('0y1yb1CXhjitvV_z0Ge2mD',#18,'1stLevel',$,#343,#435,#360,.PHYSICAL.,.EXTERNAL.);
#1015=IFCRELSPACEBOUNDARY('3Kz2_DzeEoGAw$g0tTJWjT',#18,'1stLevel',$,#343,#524,#367,.PHYSICAL.,.EXTERNAL.);
#1016=IFCRELSPACEBOUNDARY('0QYwWhvM3W046CSPjDIB9$',#18,'1stLevel',$,#343,#569,#374,.PHYSICAL.,.EXTERNAL.);
#1017=IFCRELSPACEBOUNDARY('12bMZIVbCoK8PegA0l_E1V',#18,'1stLevel',$,#343,#749,#381,.PHYSICAL.,.EXTERNAL.);
#1018=IFCRELCONNECTSPATHELEMENTS('3RDJ9BtK5e8IDFZeKEiaKJ',#18,'0EzERN9n97uOuqyDhoSlHh|0EzERN9n97uOuqyDhoSlHk','Structural',$,#435,#614,(),(),.ATEND.,.ATSTART.);
#1019=IFCRELCONNECTSPATHELEMENTS('2nkA4K6zw8se406NcGIQKr',#18,'0EzERN9n97uOuqyDhoSlHh|0EzERN9n97uOuqyDhoSlHe','Structural',$,#435,#524,(),(),.ATSTART.,.ATEND.);
#1020=IFCRELCONNECTSPATHELEMENTS('2KQHFchQKsaFyb3nHmKCjN',#18,'0EzERN9n97uOuqyDhoSlHe|0EzERN9n97uOuqyDhoSlHf','Structural',$,#524,#569,(),(),.ATSTART.,.ATEND.);
#1021=IFCRELCONNECTSPATHELEMENTS('0LHHSS2FABdJSkf5csLMqq',#18,'0EzERN9n97uOuqyDhoSlHf|0EzERN9n97uOuqyDhoSlHk','Structural',$,#569,#614,(),(),.ATSTART.,.ATEND.);
#1022=IFCRELCONNECTSPATHELEMENTS('25nzwtpNiEmKiwfJa_aQD2',#18,'0EzERN9n97uOuqyDhoSlHh|0EzERN9n97uOuqyDhoSlHl','Structural',$,#435,#659,(),(),.ATSTART.,.ATPATH.);
#1023=IFCRELCONNECTSPATHELEMENTS('0WKofrBMPcmaRd24MJsuRB',#18,'0EzERN9n97uOuqyDhoSlHf|0EzERN9n97uOuqyDhoSlHl','Structural',$,#569,#659,(),(),.ATEND.,.ATPATH.);
#1024=IFCRELCONNECTSPATHELEMENTS('1qfOhCHmIhi4Z4GF0jQiw5',#18,'0EzERN9n97uOuqyDhoSlHh|0EzERN9n97uOuqyDhoSlHi','Structural',$,#435,#704,(),(),.ATSTART.,.ATPATH.);
#1025=IFCRELCONNECTSPATHELEMENTS('3y5SDE$A5uBwCWxLO0qomr',#18,'0EzERN9n97uOuqyDhoSlHf|0EzERN9n97uOuqyDhoSlHi','Structural',$,#569,#704,(),(),.ATEND.,.ATPATH.);
#1026=IFCRELCONNECTSPATHELEMENTS('1OVrBXxz53Z9QjMt7TLIAd',#18,'0EzERN9n97uOuqyDhoSlHh|0EzERN9n97uOuqyDhoSlHj','Structural',$,#435,#749,(),(),.ATSTART.,.ATPATH.);
#1027=IFCRELCONNECTSPATHELEMENTS('2Kk1ZMm0zdnoT9XBTO9o__',#18,'0EzERN9n97uOuqyDhoSlHf|0EzERN9n97uOuqyDhoSlHj','Structural',$,#569,#749,(),(),.ATEND.,.ATPATH.);
#1028=IFCPRESENTATIONLAYERASSIGNMENT('A-AREA',$,(#59,#171,#256,#341),$);
#1029=IFCPRESENTATIONLAYERASSIGNMENT('A-WALL',$,(#423,#433,#515,#522,#560,#567,#605,#612,#650,#657,#695,#702,#740,#747),$);
#1030=IFCPRESENTATIONLAYERASSIGNMENT('A-FLOR',$,(#788),$);
#1031=IFCUNITASSIGNMENT((#19,#42,#58,#113,#129,#135));
ENDSEC;

END-ISO-10303-21;