ISO-10303-21;
HEADER;
FILE_DESCRIPTION(('ViewDefinition[DesignTransferView]'),'2;1');
FILE_NAME('/dev/null','2026-04-23T22:28:49+08:00',(''),(''),'IfcOpenShell 0.8.4','IfcOpenShell 0.8.4','Nobody');
FILE_SCHEMA(('IFC4'));
ENDSEC;
DATA;
#1=IFCPROJECT('10pjyjw7D4aRNRTrf4PVtx',$,'SK-C-34 Tagged Building',$,$,$,$,(#10),#5);
#2=IFCSIUNIT(*,.LENGTHUNIT.,$,.METRE.);
#3=IFCSIUNIT(*,.AREAUNIT.,$,.SQUARE_METRE.);
#4=IFCSIUNIT(*,.VOLUMEUNIT.,$,.CUBIC_METRE.);
#5=IFCUNITASSIGNMENT((#2,#3,#4));
#6=IFCCARTESIANPOINT((0.,0.,0.));
#7=IFCDIRECTION((0.,0.,1.));
#8=IFCDIRECTION((1.,0.,0.));
#9=IFCAXIS2PLACEMENT3D(#6,#7,#8);
#10=IFCGEOMETRICREPRESENTATIONCONTEXT($,'Model',3,1.E-05,#9,$);
#11=IFCGEOMETRICREPRESENTATIONSUBCONTEXT('Body','Model',*,*,*,*,#10,$,.MODEL_VIEW.,$);
#12=IFCSITE('0CcJgFNDHC4uA69twYZPgC',$,'Site',$,$,$,$,$,$,$,$,$,$,$);
#13=IFCBUILDING('0yqFLfuQH2t9gwZGbvI6iv',$,'Tagged Building',$,$,$,$,$,$,$,$,$);
#14=IFCBUILDINGSTOREY('3KJnBKqeH1og4BjVMx9Wwi',$,'Ground Floor',$,$,$,$,$,$,$);
#15=IFCRELAGGREGATES('3pqowAAXb0_xzQakd$OQve',$,$,$,#1,(#12));
#16=IFCRELAGGREGATES('3b0wbSSUTBtQ4qFCKicrno',$,$,$,#12,(#13));
#17=IFCRELAGGREGATES('2spqK6q6b0tvax4UF8XZDY',$,$,$,#13,(#14));
#18=IFCWALL('2NihM92gvD6BfwfvSNpB9k',$,'Wall_E',$,$,$,#34,$,$);
#19=IFCCARTESIANPOINTLIST3D(((11.8000001907349,0.,0.),(12.,0.,0.),(12.,6.,0.),(11.8000001907349,6.,0.),(11.8000001907349,0.,3.),(12.,0.,3.),(12.,6.,3.),(11.8000001907349,6.,3.)));
#20=IFCINDEXEDPOLYGONALFACE((1,2,3));
#21=IFCINDEXEDPOLYGONALFACE((1,3,4));
#22=IFCINDEXEDPOLYGONALFACE((5,7,6));
#23=IFCINDEXEDPOLYGONALFACE((5,8,7));
#24=IFCINDEXEDPOLYGONALFACE((1,5,6));
#25=IFCINDEXEDPOLYGONALFACE((1,6,2));
#26=IFCINDEXEDPOLYGONALFACE((2,6,7));
#27=IFCINDEXEDPOLYGONALFACE((2,7,3));
#28=IFCINDEXEDPOLYGONALFACE((3,7,8));
#29=IFCINDEXEDPOLYGONALFACE((3,8,4));
#30=IFCINDEXEDPOLYGONALFACE((4,8,5));
#31=IFCINDEXEDPOLYGONALFACE((4,5,1));
#32=IFCPOLYGONALFACESET(#19,$,(#20,#21,#22,#23,#24,#25,#26,#27,#28,#29,#30,#31),$);
#33=IFCSHAPEREPRESENTATION(#11,'Body','Tessellation',(#32));
#34=IFCPRODUCTDEFINITIONSHAPE($,$,(#33));
#35=IFCWALL('1TSkeR48f4K9_ysO3dNEVI',$,'Wall_N',$,$,$,#51,$,$);
#36=IFCCARTESIANPOINTLIST3D(((0.,5.80000019073486,0.),(12.,5.80000019073486,0.),(12.,6.,0.),(0.,6.,0.),(0.,5.80000019073486,3.),(12.,5.80000019073486,3.),(12.,6.,3.),(0.,6.,3.)));
#37=IFCINDEXEDPOLYGONALFACE((1,2,3));
#38=IFCINDEXEDPOLYGONALFACE((1,3,4));
#39=IFCINDEXEDPOLYGONALFACE((5,7,6));
#40=IFCINDEXEDPOLYGONALFACE((5,8,7));
#41=IFCINDEXEDPOLYGONALFACE((1,5,6));
#42=IFCINDEXEDPOLYGONALFACE((1,6,2));
#43=IFCINDEXEDPOLYGONALFACE((2,6,7));
#44=IFCINDEXEDPOLYGONALFACE((2,7,3));
#45=IFCINDEXEDPOLYGONALFACE((3,7,8));
#46=IFCINDEXEDPOLYGONALFACE((3,8,4));
#47=IFCINDEXEDPOLYGONALFACE((4,8,5));
#48=IFCINDEXEDPOLYGONALFACE((4,5,1));
#49=IFCPOLYGONALFACESET(#36,$,(#37,#38,#39,#40,#41,#42,#43,#44,#45,#46,#47,#48),$);
#50=IFCSHAPEREPRESENTATION(#11,'Body','Tessellation',(#49));
#51=IFCPRODUCTDEFINITIONSHAPE($,$,(#50));
#52=IFCWALL('2A5S8nHhz3Sw2so7qjboQr',$,'Wall_S',$,$,$,#68,$,$);
#53=IFCCARTESIANPOINTLIST3D(((0.,0.,0.),(12.,0.,0.),(12.,0.200000002980232,0.),(0.,0.200000002980232,0.),(0.,0.,3.),(12.,0.,3.),(12.,0.200000002980232,3.),(0.,0.200000002980232,3.)));
#54=IFCINDEXEDPOLYGONALFACE((1,2,3));
#55=IFCINDEXEDPOLYGONALFACE((1,3,4));
#56=IFCINDEXEDPOLYGONALFACE((5,7,6));
#57=IFCINDEXEDPOLYGONALFACE((5,8,7));
#58=IFCINDEXEDPOLYGONALFACE((1,5,6));
#59=IFCINDEXEDPOLYGONALFACE((1,6,2));
#60=IFCINDEXEDPOLYGONALFACE((2,6,7));
#61=IFCINDEXEDPOLYGONALFACE((2,7,3));
#62=IFCINDEXEDPOLYGONALFACE((3,7,8));
#63=IFCINDEXEDPOLYGONALFACE((3,8,4));
#64=IFCINDEXEDPOLYGONALFACE((4,8,5));
#65=IFCINDEXEDPOLYGONALFACE((4,5,1));
#66=IFCPOLYGONALFACESET(#53,$,(#54,#55,#56,#57,#58,#59,#60,#61,#62,#63,#64,#65),$);
#67=IFCSHAPEREPRESENTATION(#11,'Body','Tessellation',(#66));
#68=IFCPRODUCTDEFINITIONSHAPE($,$,(#67));
#69=IFCWALL('0fL$qhzF18ZRpLSlsqQnm$',$,'Wall_W',$,$,$,#85,$,$);
#70=IFCCARTESIANPOINTLIST3D(((0.,0.,0.),(0.200000002980232,0.,0.),(0.200000002980232,6.,0.),(0.,6.,0.),(0.,0.,3.),(0.200000002980232,0.,3.),(0.200000002980232,6.,3.),(0.,6.,3.)));
#71=IFCINDEXEDPOLYGONALFACE((1,2,3));
#72=IFCINDEXEDPOLYGONALFACE((1,3,4));
#73=IFCINDEXEDPOLYGONALFACE((5,7,6));
#74=IFCINDEXEDPOLYGONALFACE((5,8,7));
#75=IFCINDEXEDPOLYGONALFACE((1,5,6));
#76=IFCINDEXEDPOLYGONALFACE((1,6,2));
#77=IFCINDEXEDPOLYGONALFACE((2,6,7));
#78=IFCINDEXEDPOLYGONALFACE((2,7,3));
#79=IFCINDEXEDPOLYGONALFACE((3,7,8));
#80=IFCINDEXEDPOLYGONALFACE((3,8,4));
#81=IFCINDEXEDPOLYGONALFACE((4,8,5));
#82=IFCINDEXEDPOLYGONALFACE((4,5,1));
#83=IFCPOLYGONALFACESET(#70,$,(#71,#72,#73,#74,#75,#76,#77,#78,#79,#80,#81,#82),$);
#84=IFCSHAPEREPRESENTATION(#11,'Body','Tessellation',(#83));
#85=IFCPRODUCTDEFINITIONSHAPE($,$,(#84));
#86=IFCSLAB('06FI0aZa50xg7Ucpqb$GfM',$,'Slab_Floor',$,$,$,#102,$,$);
#87=IFCCARTESIANPOINTLIST3D(((0.,0.,-0.100000001490116),(12.,0.,-0.100000001490116),(12.,6.,-0.100000001490116),(0.,6.,-0.100000001490116),(0.,0.,0.),(12.,0.,0.),(12.,6.,0.),(0.,6.,0.)));
#88=IFCINDEXEDPOLYGONALFACE((1,2,3));
#89=IFCINDEXEDPOLYGONALFACE((1,3,4));
#90=IFCINDEXEDPOLYGONALFACE((5,7,6));
#91=IFCINDEXEDPOLYGONALFACE((5,8,7));
#92=IFCINDEXEDPOLYGONALFACE((1,5,6));
#93=IFCINDEXEDPOLYGONALFACE((1,6,2));
#94=IFCINDEXEDPOLYGONALFACE((2,6,7));
#95=IFCINDEXEDPOLYGONALFACE((2,7,3));
#96=IFCINDEXEDPOLYGONALFACE((3,7,8));
#97=IFCINDEXEDPOLYGONALFACE((3,8,4));
#98=IFCINDEXEDPOLYGONALFACE((4,8,5));
#99=IFCINDEXEDPOLYGONALFACE((4,5,1));
#100=IFCPOLYGONALFACESET(#87,$,(#88,#89,#90,#91,#92,#93,#94,#95,#96,#97,#98,#99),$);
#101=IFCSHAPEREPRESENTATION(#11,'Body','Tessellation',(#100));
#102=IFCPRODUCTDEFINITIONSHAPE($,$,(#101));
#103=IFCSLAB('1UG2NBCub5bBHY1La9_ZGZ',$,'Slab_Roof',$,$,$,#119,$,$);
#104=IFCCARTESIANPOINTLIST3D(((0.,0.,3.),(12.,0.,3.),(12.,6.,3.),(0.,6.,3.),(0.,0.,3.09999990463257),(12.,0.,3.09999990463257),(12.,6.,3.09999990463257),(0.,6.,3.09999990463257)));
#105=IFCINDEXEDPOLYGONALFACE((1,2,3));
#106=IFCINDEXEDPOLYGONALFACE((1,3,4));
#107=IFCINDEXEDPOLYGONALFACE((5,7,6));
#108=IFCINDEXEDPOLYGONALFACE((5,8,7));
#109=IFCINDEXEDPOLYGONALFACE((1,5,6));
#110=IFCINDEXEDPOLYGONALFACE((1,6,2));
#111=IFCINDEXEDPOLYGONALFACE((2,6,7));
#112=IFCINDEXEDPOLYGONALFACE((2,7,3));
#113=IFCINDEXEDPOLYGONALFACE((3,7,8));
#114=IFCINDEXEDPOLYGONALFACE((3,8,4));
#115=IFCINDEXEDPOLYGONALFACE((4,8,5));
#116=IFCINDEXEDPOLYGONALFACE((4,5,1));
#117=IFCPOLYGONALFACESET(#104,$,(#105,#106,#107,#108,#109,#110,#111,#112,#113,#114,#115,#116),$);
#118=IFCSHAPEREPRESENTATION(#11,'Body','Tessellation',(#117));
#119=IFCPRODUCTDEFINITIONSHAPE($,$,(#118));
#120=IFCCOLUMN('1FHePxRVH5NgItxu$t7DTP',$,'Column_01',$,$,$,#136,$,$);
#121=IFCCARTESIANPOINTLIST3D(((1.85000002384186,1.35000002384186,0.),(2.15000009536743,1.35000002384186,0.),(2.15000009536743,1.64999997615814,0.),(1.85000002384186,1.64999997615814,0.),(1.85000002384186,1.35000002384186,3.),(2.15000009536743,1.35000002384186,3.),(2.15000009536743,1.64999997615814,3.),(1.85000002384186,1.64999997615814,3.)));
#122=IFCINDEXEDPOLYGONALFACE((1,2,3));
#123=IFCINDEXEDPOLYGONALFACE((1,3,4));
#124=IFCINDEXEDPOLYGONALFACE((5,7,6));
#125=IFCINDEXEDPOLYGONALFACE((5,8,7));
#126=IFCINDEXEDPOLYGONALFACE((1,5,6));
#127=IFCINDEXEDPOLYGONALFACE((1,6,2));
#128=IFCINDEXEDPOLYGONALFACE((2,6,7));
#129=IFCINDEXEDPOLYGONALFACE((2,7,3));
#130=IFCINDEXEDPOLYGONALFACE((3,7,8));
#131=IFCINDEXEDPOLYGONALFACE((3,8,4));
#132=IFCINDEXEDPOLYGONALFACE((4,8,5));
#133=IFCINDEXEDPOLYGONALFACE((4,5,1));
#134=IFCPOLYGONALFACESET(#121,$,(#122,#123,#124,#125,#126,#127,#128,#129,#130,#131,#132,#133),$);
#135=IFCSHAPEREPRESENTATION(#11,'Body','Tessellation',(#134));
#136=IFCPRODUCTDEFINITIONSHAPE($,$,(#135));
#137=IFCCOLUMN('1H9Mm6sLnA0O5WCY5LKWir',$,'Column_02',$,$,$,#153,$,$);
#138=IFCCARTESIANPOINTLIST3D(((4.84999990463257,1.35000002384186,0.),(5.15000009536743,1.35000002384186,0.),(5.15000009536743,1.64999997615814,0.),(4.84999990463257,1.64999997615814,0.),(4.84999990463257,1.35000002384186,3.),(5.15000009536743,1.35000002384186,3.),(5.15000009536743,1.64999997615814,3.),(4.84999990463257,1.64999997615814,3.)));
#139=IFCINDEXEDPOLYGONALFACE((1,2,3));
#140=IFCINDEXEDPOLYGONALFACE((1,3,4));
#141=IFCINDEXEDPOLYGONALFACE((5,7,6));
#142=IFCINDEXEDPOLYGONALFACE((5,8,7));
#143=IFCINDEXEDPOLYGONALFACE((1,5,6));
#144=IFCINDEXEDPOLYGONALFACE((1,6,2));
#145=IFCINDEXEDPOLYGONALFACE((2,6,7));
#146=IFCINDEXEDPOLYGONALFACE((2,7,3));
#147=IFCINDEXEDPOLYGONALFACE((3,7,8));
#148=IFCINDEXEDPOLYGONALFACE((3,8,4));
#149=IFCINDEXEDPOLYGONALFACE((4,8,5));
#150=IFCINDEXEDPOLYGONALFACE((4,5,1));
#151=IFCPOLYGONALFACESET(#138,$,(#139,#140,#141,#142,#143,#144,#145,#146,#147,#148,#149,#150),$);
#152=IFCSHAPEREPRESENTATION(#11,'Body','Tessellation',(#151));
#153=IFCPRODUCTDEFINITIONSHAPE($,$,(#152));
#154=IFCCOLUMN('19iXfjuVb09PFRTVO3Af$R',$,'Column_03',$,$,$,#170,$,$);
#155=IFCCARTESIANPOINTLIST3D(((6.84999990463257,1.35000002384186,0.),(7.15000009536743,1.35000002384186,0.),(7.15000009536743,1.64999997615814,0.),(6.84999990463257,1.64999997615814,0.),(6.84999990463257,1.35000002384186,3.),(7.15000009536743,1.35000002384186,3.),(7.15000009536743,1.64999997615814,3.),(6.84999990463257,1.64999997615814,3.)));
#156=IFCINDEXEDPOLYGONALFACE((1,2,3));
#157=IFCINDEXEDPOLYGONALFACE((1,3,4));
#158=IFCINDEXEDPOLYGONALFACE((5,7,6));
#159=IFCINDEXEDPOLYGONALFACE((5,8,7));
#160=IFCINDEXEDPOLYGONALFACE((1,5,6));
#161=IFCINDEXEDPOLYGONALFACE((1,6,2));
#162=IFCINDEXEDPOLYGONALFACE((2,6,7));
#163=IFCINDEXEDPOLYGONALFACE((2,7,3));
#164=IFCINDEXEDPOLYGONALFACE((3,7,8));
#165=IFCINDEXEDPOLYGONALFACE((3,8,4));
#166=IFCINDEXEDPOLYGONALFACE((4,8,5));
#167=IFCINDEXEDPOLYGONALFACE((4,5,1));
#168=IFCPOLYGONALFACESET(#155,$,(#156,#157,#158,#159,#160,#161,#162,#163,#164,#165,#166,#167),$);
#169=IFCSHAPEREPRESENTATION(#11,'Body','Tessellation',(#168));
#170=IFCPRODUCTDEFINITIONSHAPE($,$,(#169));
#171=IFCCOLUMN('1tS3a_zZX7bfoEk6bcdeq3',$,'Column_04',$,$,$,#187,$,$);
#172=IFCCARTESIANPOINTLIST3D(((9.85000038146973,1.35000002384186,0.),(10.1499996185303,1.35000002384186,0.),(10.1499996185303,1.64999997615814,0.),(9.85000038146973,1.64999997615814,0.),(9.85000038146973,1.35000002384186,3.),(10.1499996185303,1.35000002384186,3.),(10.1499996185303,1.64999997615814,3.),(9.85000038146973,1.64999997615814,3.)));
#173=IFCINDEXEDPOLYGONALFACE((1,2,3));
#174=IFCINDEXEDPOLYGONALFACE((1,3,4));
#175=IFCINDEXEDPOLYGONALFACE((5,7,6));
#176=IFCINDEXEDPOLYGONALFACE((5,8,7));
#177=IFCINDEXEDPOLYGONALFACE((1,5,6));
#178=IFCINDEXEDPOLYGONALFACE((1,6,2));
#179=IFCINDEXEDPOLYGONALFACE((2,6,7));
#180=IFCINDEXEDPOLYGONALFACE((2,7,3));
#181=IFCINDEXEDPOLYGONALFACE((3,7,8));
#182=IFCINDEXEDPOLYGONALFACE((3,8,4));
#183=IFCINDEXEDPOLYGONALFACE((4,8,5));
#184=IFCINDEXEDPOLYGONALFACE((4,5,1));
#185=IFCPOLYGONALFACESET(#172,$,(#173,#174,#175,#176,#177,#178,#179,#180,#181,#182,#183,#184),$);
#186=IFCSHAPEREPRESENTATION(#11,'Body','Tessellation',(#185));
#187=IFCPRODUCTDEFINITIONSHAPE($,$,(#186));
#188=IFCCOLUMN('3Cp4dv2IbABgW8UvYGgn1W',$,'Column_05',$,$,$,#204,$,$);
#189=IFCCARTESIANPOINTLIST3D(((1.85000002384186,4.34999990463257,0.),(2.15000009536743,4.34999990463257,0.),(2.15000009536743,4.65000009536743,0.),(1.85000002384186,4.65000009536743,0.),(1.85000002384186,4.34999990463257,3.),(2.15000009536743,4.34999990463257,3.),(2.15000009536743,4.65000009536743,3.),(1.85000002384186,4.65000009536743,3.)));
#190=IFCINDEXEDPOLYGONALFACE((1,2,3));
#191=IFCINDEXEDPOLYGONALFACE((1,3,4));
#192=IFCINDEXEDPOLYGONALFACE((5,7,6));
#193=IFCINDEXEDPOLYGONALFACE((5,8,7));
#194=IFCINDEXEDPOLYGONALFACE((1,5,6));
#195=IFCINDEXEDPOLYGONALFACE((1,6,2));
#196=IFCINDEXEDPOLYGONALFACE((2,6,7));
#197=IFCINDEXEDPOLYGONALFACE((2,7,3));
#198=IFCINDEXEDPOLYGONALFACE((3,7,8));
#199=IFCINDEXEDPOLYGONALFACE((3,8,4));
#200=IFCINDEXEDPOLYGONALFACE((4,8,5));
#201=IFCINDEXEDPOLYGONALFACE((4,5,1));
#202=IFCPOLYGONALFACESET(#189,$,(#190,#191,#192,#193,#194,#195,#196,#197,#198,#199,#200,#201),$);
#203=IFCSHAPEREPRESENTATION(#11,'Body','Tessellation',(#202));
#204=IFCPRODUCTDEFINITIONSHAPE($,$,(#203));
#205=IFCCOLUMN('2fEF7iQfLAkAkc4SnOT3wT',$,'Column_06',$,$,$,#221,$,$);
#206=IFCCARTESIANPOINTLIST3D(((4.84999990463257,4.34999990463257,0.),(5.15000009536743,4.34999990463257,0.),(5.15000009536743,4.65000009536743,0.),(4.84999990463257,4.65000009536743,0.),(4.84999990463257,4.34999990463257,3.),(5.15000009536743,4.34999990463257,3.),(5.15000009536743,4.65000009536743,3.),(4.84999990463257,4.65000009536743,3.)));
#207=IFCINDEXEDPOLYGONALFACE((1,2,3));
#208=IFCINDEXEDPOLYGONALFACE((1,3,4));
#209=IFCINDEXEDPOLYGONALFACE((5,7,6));
#210=IFCINDEXEDPOLYGONALFACE((5,8,7));
#211=IFCINDEXEDPOLYGONALFACE((1,5,6));
#212=IFCINDEXEDPOLYGONALFACE((1,6,2));
#213=IFCINDEXEDPOLYGONALFACE((2,6,7));
#214=IFCINDEXEDPOLYGONALFACE((2,7,3));
#215=IFCINDEXEDPOLYGONALFACE((3,7,8));
#216=IFCINDEXEDPOLYGONALFACE((3,8,4));
#217=IFCINDEXEDPOLYGONALFACE((4,8,5));
#218=IFCINDEXEDPOLYGONALFACE((4,5,1));
#219=IFCPOLYGONALFACESET(#206,$,(#207,#208,#209,#210,#211,#212,#213,#214,#215,#216,#217,#218),$);
#220=IFCSHAPEREPRESENTATION(#11,'Body','Tessellation',(#219));
#221=IFCPRODUCTDEFINITIONSHAPE($,$,(#220));
#222=IFCCOLUMN('3Ts43GVez18Q4jspmuuLbw',$,'Column_07',$,$,$,#238,$,$);
#223=IFCCARTESIANPOINTLIST3D(((6.84999990463257,4.34999990463257,0.),(7.15000009536743,4.34999990463257,0.),(7.15000009536743,4.65000009536743,0.),(6.84999990463257,4.65000009536743,0.),(6.84999990463257,4.34999990463257,3.),(7.15000009536743,4.34999990463257,3.),(7.15000009536743,4.65000009536743,3.),(6.84999990463257,4.65000009536743,3.)));
#224=IFCINDEXEDPOLYGONALFACE((1,2,3));
#225=IFCINDEXEDPOLYGONALFACE((1,3,4));
#226=IFCINDEXEDPOLYGONALFACE((5,7,6));
#227=IFCINDEXEDPOLYGONALFACE((5,8,7));
#228=IFCINDEXEDPOLYGONALFACE((1,5,6));
#229=IFCINDEXEDPOLYGONALFACE((1,6,2));
#230=IFCINDEXEDPOLYGONALFACE((2,6,7));
#231=IFCINDEXEDPOLYGONALFACE((2,7,3));
#232=IFCINDEXEDPOLYGONALFACE((3,7,8));
#233=IFCINDEXEDPOLYGONALFACE((3,8,4));
#234=IFCINDEXEDPOLYGONALFACE((4,8,5));
#235=IFCINDEXEDPOLYGONALFACE((4,5,1));
#236=IFCPOLYGONALFACESET(#223,$,(#224,#225,#226,#227,#228,#229,#230,#231,#232,#233,#234,#235),$);
#237=IFCSHAPEREPRESENTATION(#11,'Body','Tessellation',(#236));
#238=IFCPRODUCTDEFINITIONSHAPE($,$,(#237));
#239=IFCCOLUMN('2RupTnG1bDMAiS6qBD$Y3C',$,'Column_08',$,$,$,#255,$,$);
#240=IFCCARTESIANPOINTLIST3D(((9.85000038146973,4.34999990463257,0.),(10.1499996185303,4.34999990463257,0.),(10.1499996185303,4.65000009536743,0.),(9.85000038146973,4.65000009536743,0.),(9.85000038146973,4.34999990463257,3.),(10.1499996185303,4.34999990463257,3.),(10.1499996185303,4.65000009536743,3.),(9.85000038146973,4.65000009536743,3.)));
#241=IFCINDEXEDPOLYGONALFACE((1,2,3));
#242=IFCINDEXEDPOLYGONALFACE((1,3,4));
#243=IFCINDEXEDPOLYGONALFACE((5,7,6));
#244=IFCINDEXEDPOLYGONALFACE((5,8,7));
#245=IFCINDEXEDPOLYGONALFACE((1,5,6));
#246=IFCINDEXEDPOLYGONALFACE((1,6,2));
#247=IFCINDEXEDPOLYGONALFACE((2,6,7));
#248=IFCINDEXEDPOLYGONALFACE((2,7,3));
#249=IFCINDEXEDPOLYGONALFACE((3,7,8));
#250=IFCINDEXEDPOLYGONALFACE((3,8,4));
#251=IFCINDEXEDPOLYGONALFACE((4,8,5));
#252=IFCINDEXEDPOLYGONALFACE((4,5,1));
#253=IFCPOLYGONALFACESET(#240,$,(#241,#242,#243,#244,#245,#246,#247,#248,#249,#250,#251,#252),$);
#254=IFCSHAPEREPRESENTATION(#11,'Body','Tessellation',(#253));
#255=IFCPRODUCTDEFINITIONSHAPE($,$,(#254));
#256=IFCBEAM('0whDQde_j25A0J9YqwzphP',$,'Beam_01',$,$,$,#272,$,$);
#257=IFCCARTESIANPOINTLIST3D(((0.200000002980232,1.35000002384186,2.59999990463257),(11.8000001907349,1.35000002384186,2.59999990463257),(11.8000001907349,1.64999997615814,2.59999990463257),(0.200000002980232,1.64999997615814,2.59999990463257),(0.200000002980232,1.35000002384186,3.),(11.8000001907349,1.35000002384186,3.),(11.8000001907349,1.64999997615814,3.),(0.200000002980232,1.64999997615814,3.)));
#258=IFCINDEXEDPOLYGONALFACE((1,2,3));
#259=IFCINDEXEDPOLYGONALFACE((1,3,4));
#260=IFCINDEXEDPOLYGONALFACE((5,7,6));
#261=IFCINDEXEDPOLYGONALFACE((5,8,7));
#262=IFCINDEXEDPOLYGONALFACE((1,5,6));
#263=IFCINDEXEDPOLYGONALFACE((1,6,2));
#264=IFCINDEXEDPOLYGONALFACE((2,6,7));
#265=IFCINDEXEDPOLYGONALFACE((2,7,3));
#266=IFCINDEXEDPOLYGONALFACE((3,7,8));
#267=IFCINDEXEDPOLYGONALFACE((3,8,4));
#268=IFCINDEXEDPOLYGONALFACE((4,8,5));
#269=IFCINDEXEDPOLYGONALFACE((4,5,1));
#270=IFCPOLYGONALFACESET(#257,$,(#258,#259,#260,#261,#262,#263,#264,#265,#266,#267,#268,#269),$);
#271=IFCSHAPEREPRESENTATION(#11,'Body','Tessellation',(#270));
#272=IFCPRODUCTDEFINITIONSHAPE($,$,(#271));
#273=IFCBEAM('0ZBjdBtBvChPBPsVVLNHeo',$,'Beam_02',$,$,$,#289,$,$);
#274=IFCCARTESIANPOINTLIST3D(((0.200000002980232,2.84999990463257,2.59999990463257),(11.8000001907349,2.84999990463257,2.59999990463257),(11.8000001907349,3.15000009536743,2.59999990463257),(0.200000002980232,3.15000009536743,2.59999990463257),(0.200000002980232,2.84999990463257,3.),(11.8000001907349,2.84999990463257,3.),(11.8000001907349,3.15000009536743,3.),(0.200000002980232,3.15000009536743,3.)));
#275=IFCINDEXEDPOLYGONALFACE((1,2,3));
#276=IFCINDEXEDPOLYGONALFACE((1,3,4));
#277=IFCINDEXEDPOLYGONALFACE((5,7,6));
#278=IFCINDEXEDPOLYGONALFACE((5,8,7));
#279=IFCINDEXEDPOLYGONALFACE((1,5,6));
#280=IFCINDEXEDPOLYGONALFACE((1,6,2));
#281=IFCINDEXEDPOLYGONALFACE((2,6,7));
#282=IFCINDEXEDPOLYGONALFACE((2,7,3));
#283=IFCINDEXEDPOLYGONALFACE((3,7,8));
#284=IFCINDEXEDPOLYGONALFACE((3,8,4));
#285=IFCINDEXEDPOLYGONALFACE((4,8,5));
#286=IFCINDEXEDPOLYGONALFACE((4,5,1));
#287=IFCPOLYGONALFACESET(#274,$,(#275,#276,#277,#278,#279,#280,#281,#282,#283,#284,#285,#286),$);
#288=IFCSHAPEREPRESENTATION(#11,'Body','Tessellation',(#287));
#289=IFCPRODUCTDEFINITIONSHAPE($,$,(#288));
#290=IFCBEAM('3GPWb5QizCUQ9EnOOZHUBg',$,'Beam_03',$,$,$,#306,$,$);
#291=IFCCARTESIANPOINTLIST3D(((0.200000002980232,4.34999990463257,2.59999990463257),(11.8000001907349,4.34999990463257,2.59999990463257),(11.8000001907349,4.65000009536743,2.59999990463257),(0.200000002980232,4.65000009536743,2.59999990463257),(0.200000002980232,4.34999990463257,3.),(11.8000001907349,4.34999990463257,3.),(11.8000001907349,4.65000009536743,3.),(0.200000002980232,4.65000009536743,3.)));
#292=IFCINDEXEDPOLYGONALFACE((1,2,3));
#293=IFCINDEXEDPOLYGONALFACE((1,3,4));
#294=IFCINDEXEDPOLYGONALFACE((5,7,6));
#295=IFCINDEXEDPOLYGONALFACE((5,8,7));
#296=IFCINDEXEDPOLYGONALFACE((1,5,6));
#297=IFCINDEXEDPOLYGONALFACE((1,6,2));
#298=IFCINDEXEDPOLYGONALFACE((2,6,7));
#299=IFCINDEXEDPOLYGONALFACE((2,7,3));
#300=IFCINDEXEDPOLYGONALFACE((3,7,8));
#301=IFCINDEXEDPOLYGONALFACE((3,8,4));
#302=IFCINDEXEDPOLYGONALFACE((4,8,5));
#303=IFCINDEXEDPOLYGONALFACE((4,5,1));
#304=IFCPOLYGONALFACESET(#291,$,(#292,#293,#294,#295,#296,#297,#298,#299,#300,#301,#302,#303),$);
#305=IFCSHAPEREPRESENTATION(#11,'Body','Tessellation',(#304));
#306=IFCPRODUCTDEFINITIONSHAPE($,$,(#305));
#307=IFCDOOR('38sQZUZ2H4xBt5ud3grNhm',$,'Door_01',$,$,$,#323,$,$,$,$,$,$);
#308=IFCCARTESIANPOINTLIST3D(((2.,0.0799999982118607,0.),(3.,0.0799999982118607,0.),(3.,0.119999997317791,0.),(2.,0.119999997317791,0.),(2.,0.0799999982118607,2.),(3.,0.0799999982118607,2.),(3.,0.119999997317791,2.),(2.,0.119999997317791,2.)));
#309=IFCINDEXEDPOLYGONALFACE((1,2,3));
#310=IFCINDEXEDPOLYGONALFACE((1,3,4));
#311=IFCINDEXEDPOLYGONALFACE((5,7,6));
#312=IFCINDEXEDPOLYGONALFACE((5,8,7));
#313=IFCINDEXEDPOLYGONALFACE((1,5,6));
#314=IFCINDEXEDPOLYGONALFACE((1,6,2));
#315=IFCINDEXEDPOLYGONALFACE((2,6,7));
#316=IFCINDEXEDPOLYGONALFACE((2,7,3));
#317=IFCINDEXEDPOLYGONALFACE((3,7,8));
#318=IFCINDEXEDPOLYGONALFACE((3,8,4));
#319=IFCINDEXEDPOLYGONALFACE((4,8,5));
#320=IFCINDEXEDPOLYGONALFACE((4,5,1));
#321=IFCPOLYGONALFACESET(#308,$,(#309,#310,#311,#312,#313,#314,#315,#316,#317,#318,#319,#320),$);
#322=IFCSHAPEREPRESENTATION(#11,'Body','Tessellation',(#321));
#323=IFCPRODUCTDEFINITIONSHAPE($,$,(#322));
#324=IFCDOOR('0hpw2Q_Xb1dR8uJ90f29lG',$,'Door_02',$,$,$,#340,$,$,$,$,$,$);
#325=IFCCARTESIANPOINTLIST3D(((9.,5.88000011444092,0.),(10.,5.88000011444092,0.),(10.,5.92000007629395,0.),(9.,5.92000007629395,0.),(9.,5.88000011444092,2.),(10.,5.88000011444092,2.),(10.,5.92000007629395,2.),(9.,5.92000007629395,2.)));
#326=IFCINDEXEDPOLYGONALFACE((1,2,3));
#327=IFCINDEXEDPOLYGONALFACE((1,3,4));
#328=IFCINDEXEDPOLYGONALFACE((5,7,6));
#329=IFCINDEXEDPOLYGONALFACE((5,8,7));
#330=IFCINDEXEDPOLYGONALFACE((1,5,6));
#331=IFCINDEXEDPOLYGONALFACE((1,6,2));
#332=IFCINDEXEDPOLYGONALFACE((2,6,7));
#333=IFCINDEXEDPOLYGONALFACE((2,7,3));
#334=IFCINDEXEDPOLYGONALFACE((3,7,8));
#335=IFCINDEXEDPOLYGONALFACE((3,8,4));
#336=IFCINDEXEDPOLYGONALFACE((4,8,5));
#337=IFCINDEXEDPOLYGONALFACE((4,5,1));
#338=IFCPOLYGONALFACESET(#325,$,(#326,#327,#328,#329,#330,#331,#332,#333,#334,#335,#336,#337),$);
#339=IFCSHAPEREPRESENTATION(#11,'Body','Tessellation',(#338));
#340=IFCPRODUCTDEFINITIONSHAPE($,$,(#339));
#341=IFCWINDOW('1mMtMuvVDEzhBpGS53H2_0',$,'Window_01',$,$,$,#357,$,$,$,$,$,$);
#342=IFCCARTESIANPOINTLIST3D(((11.8900003433228,2.5,0.899999976158142),(11.9099998474121,2.5,0.899999976158142),(11.9099998474121,3.5,0.899999976158142),(11.8900003433228,3.5,0.899999976158142),(11.8900003433228,2.5,2.40000009536743),(11.9099998474121,2.5,2.40000009536743),(11.9099998474121,3.5,2.40000009536743),(11.8900003433228,3.5,2.40000009536743)));
#343=IFCINDEXEDPOLYGONALFACE((1,2,3));
#344=IFCINDEXEDPOLYGONALFACE((1,3,4));
#345=IFCINDEXEDPOLYGONALFACE((5,7,6));
#346=IFCINDEXEDPOLYGONALFACE((5,8,7));
#347=IFCINDEXEDPOLYGONALFACE((1,5,6));
#348=IFCINDEXEDPOLYGONALFACE((1,6,2));
#349=IFCINDEXEDPOLYGONALFACE((2,6,7));
#350=IFCINDEXEDPOLYGONALFACE((2,7,3));
#351=IFCINDEXEDPOLYGONALFACE((3,7,8));
#352=IFCINDEXEDPOLYGONALFACE((3,8,4));
#353=IFCINDEXEDPOLYGONALFACE((4,8,5));
#354=IFCINDEXEDPOLYGONALFACE((4,5,1));
#355=IFCPOLYGONALFACESET(#342,$,(#343,#344,#345,#346,#347,#348,#349,#350,#351,#352,#353,#354),$);
#356=IFCSHAPEREPRESENTATION(#11,'Body','Tessellation',(#355));
#357=IFCPRODUCTDEFINITIONSHAPE($,$,(#356));
#358=IFCRELCONTAINEDINSPATIALSTRUCTURE('0Nlfjsi0z2zh6FMxEtjj8a',$,$,$,(#205,#341,#154,#35,#222,#290,#103,#171,#239,#52,#307,#120,#188,#256,#69,#324,#137,#18,#273,#86),#14);
ENDSEC;
END-ISO-10303-21;
