  0
SECTION
  2
HEADER
  9
$ACADVER
  1
AC1009
  9
$INSBASE
 10
0.0
 20
0.0
 30
0.0
  9
$EXTMIN
 10
0.0
 20
0.0
 30
0.0
  9
$EXTMAX
 10
0.0
 20
0.0
 30
0.0
  0
ENDSEC
  0
SECTION
  2
TABLES
  0
TABLE
  2
VPORT
 70
0
  0
ENDTAB
  0
TABLE
  2
LTYPE
 70
1
  0
LTYPE
  2
CONTINUOUS
 70
0
  3
Solid line
 72
65
 73
0
 40
0.0
  0
ENDTAB
  0
TABLE
  2
LAYER
 70
1
  0
LAYER
  2
0
 70
64
 62
7
  6
continuous
  0
ENDTAB
  0
TABLE
  2
STYLE
 70
1
  0
STYLE
  2
STANDARD
 70
0
 40
0
 41
1.0
 50
0.0
 71
0
 42
1
 3
ARIAL.TTF
 4

  0
ENDTAB
  0
TABLE
  2
VIEW
 70
0
  0
ENDTAB
  0
ENDSEC
  0
SECTION
  2
BLOCKS
  0
BLOCK
  8
0
  2
SHAPESTRING
 70
0
 10
0.0
 20
0.0
 30
0.0
  3
SHAPESTRING
  0
POLYLINE
  8
0
 62
0
 70
1
 66
1
 10
0.0
 20
0.0
 30
0.0
  0
VERTEX
  8
0
 10
8.665268456375838
 20
58.328859060402685
 30
0.0
  0
VERTEX
  8
0
 10
7.014261744966443
 20
58.328859060402685
 30
0.0
  0
VERTEX
  8
0
 10
7.014261744966443
 20
57.22281879194631
 30
0.0
  0
VERTEX
  8
0
 10
8.504194630872483
 20
57.22281879194631
 30
0.0
  0
VERTEX
  8
0
 10
8.504194630872483
 20
56.79328859060403
 30
0.0
  0
VERTEX
  8
0
 10
7.014261744966443
 20
56.79328859060403
 30
0.0
  0
VERTEX
  8
0
 10
7.014261744966443
 20
55.0
 30
0.0
  0
VERTEX
  8
0
 10
6.505872483221476
 20
55.0
 30
0.0
  0
VERTEX
  8
0
 10
6.505872483221476
 20
58.758389261744966
 30
0.0
  0
VERTEX
  8
0
 10
8.665268456375838
 20
58.758389261744966
 30
0.0
  0
SEQEND
  8
0
  0
POLYLINE
  8
0
 62
0
 70
1
 66
1
 10
0.0
 20
0.0
 30
0.0
  0
VERTEX
  8
0
 10
11.880704697986577
 20
56.02768456375839
 30
0.0
  0
VERTEX
  8
0
 10
12.396644295302014
 20
55.0
 30
0.0
  0
VERTEX
  8
0
 10
11.850503355704697
 20
55.0
 30
0.0
  0
VERTEX
  8
0
 10
11.369798657718121
 20
55.964597315436244
 30
0.0
  0
VERTEX
  8
0
 10
11.008557046979865
 20
56.46577181208054
 30
0.0
  0
VERTEX
  8
0
 10
10.531711409395973
 20
56.58926174496644
 30
0.0
  0
VERTEX
  8
0
 10
9.978020134228188
 20
56.58926174496644
 30
0.0
  0
VERTEX
  8
0
 10
9.978020134228188
 20
55.0
 30
0.0
  0
VERTEX
  8
0
 10
9.469630872483222
 20
55.0
 30
0.0
  0
VERTEX
  8
0
 10
9.469630872483222
 20
58.758389261744966
 30
0.0
  0
VERTEX
  8
0
 10
10.617281879194632
 20
58.758389261744966
 30
0.0
  0
VERTEX
  8
0
 10
11.578691275167785
 20
58.48909395973154
 30
0.0
  0
VERTEX
  8
0
 10
11.895805369127517
 20
57.676510067114094
 30
0.0
  0
VERTEX
  8
0
 10
11.730872483221477
 20
57.087751677852346
 30
0.0
  0
VERTEX
  8
0
 10
11.251510067114094
 20
56.763255033557044
 30
0.0
  0
VERTEX
  8
0
 10
11.56979865771812
 20
56.526510067114096
 30
0.0
  0
SEQEND
  8
0
  0
POLYLINE
  8
0
 62
0
 70
1
 66
1
 10
0.0
 20
0.0
 30
0.0
  0
VERTEX
  8
0
 10
10.617281879194632
 20
57.008053691275165
 30
0.0
  0
VERTEX
  8
0
 10
11.17214765100671
 20
57.17751677852349
 30
0.0
  0
VERTEX
  8
0
 10
11.35973154362416
 20
57.676342281879194
 30
0.0
  0
VERTEX
  8
0
 10
11.17214765100671
 20
58.17248322147651
 30
0.0
  0
VERTEX
  8
0
 10
10.617281879194632
 20
58.339597315436244
 30
0.0
  0
VERTEX
  8
0
 10
9.978020134228188
 20
58.339597315436244
 30
0.0
  0
VERTEX
  8
0
 10
9.978020134228188
 20
57.008053691275165
 30
0.0
  0
SEQEND
  8
0
  0
POLYLINE
  8
0
 62
0
 70
1
 66
1
 10
0.0
 20
0.0
 30
0.0
  0
VERTEX
  8
0
 10
15.43204697986577
 20
58.328859060402685
 30
0.0
  0
VERTEX
  8
0
 10
13.564597315436242
 20
58.328859060402685
 30
0.0
  0
VERTEX
  8
0
 10
13.564597315436242
 20
57.21208053691275
 30
0.0
  0
VERTEX
  8
0
 10
15.354026845637584
 20
57.21208053691275
 30
0.0
  0
VERTEX
  8
0
 10
15.354026845637584
 20
56.78255033557047
 30
0.0
  0
VERTEX
  8
0
 10
13.564597315436242
 20
56.78255033557047
 30
0.0
  0
VERTEX
  8
0
 10
13.564597315436242
 20
55.42953020134228
 30
0.0
  0
VERTEX
  8
0
 10
15.47734899328859
 20
55.42953020134228
 30
0.0
  0
VERTEX
  8
0
 10
15.47734899328859
 20
55.0
 30
0.0
  0
VERTEX
  8
0
 10
13.056208053691275
 20
55.0
 30
0.0
  0
VERTEX
  8
0
 10
13.056208053691275
 20
58.758389261744966
 30
0.0
  0
VERTEX
  8
0
 10
15.43204697986577
 20
58.758389261744966
 30
0.0
  0
SEQEND
  8
0
  0
POLYLINE
  8
0
 62
0
 70
1
 66
1
 10
0.0
 20
0.0
 30
0.0
  0
VERTEX
  8
0
 10
18.685738255033556
 20
58.328859060402685
 30
0.0
  0
VERTEX
  8
0
 10
16.818288590604027
 20
58.328859060402685
 30
0.0
  0
VERTEX
  8
0
 10
16.818288590604027
 20
57.21208053691275
 30
0.0
  0
VERTEX
  8
0
 10
18.60771812080537
 20
57.21208053691275
 30
0.0
  0
VERTEX
  8
0
 10
18.60771812080537
 20
56.78255033557047
 30
0.0
  0
VERTEX
  8
0
 10
16.818288590604027
 20
56.78255033557047
 30
0.0
  0
VERTEX
  8
0
 10
16.818288590604027
 20
55.42953020134228
 30
0.0
  0
VERTEX
  8
0
 10
18.731040268456375
 20
55.42953020134228
 30
0.0
  0
VERTEX
  8
0
 10
18.731040268456375
 20
55.0
 30
0.0
  0
VERTEX
  8
0
 10
16.30989932885906
 20
55.0
 30
0.0
  0
VERTEX
  8
0
 10
16.30989932885906
 20
58.758389261744966
 30
0.0
  0
VERTEX
  8
0
 10
18.685738255033556
 20
58.758389261744966
 30
0.0
  0
SEQEND
  8
0
  0
POLYLINE
  8
0
 62
0
 70
1
 66
1
 10
0.0
 20
0.0
 30
0.0
  0
VERTEX
  8
0
 10
21.82986577181208
 20
58.28640939597315
 30
0.0
  0
VERTEX
  8
0
 10
21.21208053691275
 20
58.40402684563758
 30
0.0
  0
VERTEX
  8
0
 10
20.225503355704696
 20
58.01040268456376
 30
0.0
  0
VERTEX
  8
0
 10
19.883221476510066
 20
56.87265100671141
 30
0.0
  0
VERTEX
  8
0
 10
20.225503355704696
 20
55.73708053691275
 30
0.0
  0
VERTEX
  8
0
 10
21.21208053691275
 20
55.343624161073826
 30
0.0
  0
VERTEX
  8
0
 10
21.82986577181208
 20
55.461073825503355
 30
0.0
  0
VERTEX
  8
0
 10
22.37734899328859
 20
55.816107382550335
 30
0.0
  0
VERTEX
  8
0
 10
22.37734899328859
 20
55.28993288590604
 30
0.0
  0
VERTEX
  8
0
 10
21.812248322147653
 20
55.01610738255034
 30
0.0
  0
VERTEX
  8
0
 10
21.181879194630874
 20
54.924832214765104
 30
0.0
  0
VERTEX
  8
0
 10
19.837919463087246
 20
55.44697986577181
 30
0.0
  0
VERTEX
  8
0
 10
19.34714765100671
 20
56.87265100671141
 30
0.0
  0
VERTEX
  8
0
 10
19.837919463087246
 20
58.3006711409396
 30
0.0
  0
VERTEX
  8
0
 10
21.181879194630874
 20
58.82281879194631
 30
0.0
  0
VERTEX
  8
0
 10
21.81728187919463
 20
58.73422818791946
 30
0.0
  0
VERTEX
  8
0
 10
22.37734899328859
 20
58.468456375838926
 30
0.0
  0
VERTEX
  8
0
 10
22.37734899328859
 20
57.93154362416107
 30
0.0
  0
SEQEND
  8
0
  0
POLYLINE
  8
0
 62
0
 70
1
 66
1
 10
0.0
 20
0.0
 30
0.0
  0
VERTEX
  8
0
 10
26.138255033557048
 20
55.0
 30
0.0
  0
VERTEX
  8
0
 10
25.60973154362416
 20
55.0
 30
0.0
  0
VERTEX
  8
0
 10
25.26744966442953
 20
55.966442953020135
 30
0.0
  0
VERTEX
  8
0
 10
23.573657718120806
 20
55.966442953020135
 30
0.0
  0
VERTEX
  8
0
 10
23.231375838926176
 20
55.0
 30
0.0
  0
VERTEX
  8
0
 10
22.69530201342282
 20
55.0
 30
0.0
  0
VERTEX
  8
0
 10
24.12986577181208
 20
58.758389261744966
 30
0.0
  0
VERTEX
  8
0
 10
24.706208053691277
 20
58.758389261744966
 30
0.0
  0
SEQEND
  8
0
  0
POLYLINE
  8
0
 62
0
 70
1
 66
1
 10
0.0
 20
0.0
 30
0.0
  0
VERTEX
  8
0
 10
25.108892617449666
 20
56.38523489932886
 30
0.0
  0
VERTEX
  8
0
 10
24.416778523489935
 20
58.25704697986577
 30
0.0
  0
VERTEX
  8
0
 10
23.727181208053693
 20
56.38523489932886
 30
0.0
  0
SEQEND
  8
0
  0
POLYLINE
  8
0
 62
0
 70
1
 66
1
 10
0.0
 20
0.0
 30
0.0
  0
VERTEX
  8
0
 10
29.330704697986576
 20
58.30402684563759
 30
0.0
  0
VERTEX
  8
0
 10
29.84161073825503
 20
56.882885906040265
 30
0.0
  0
VERTEX
  8
0
 10
29.328187919463083
 20
55.455536912751676
 30
0.0
  0
VERTEX
  8
0
 10
27.727516778523487
 20
55.0
 30
0.0
  0
VERTEX
  8
0
 10
26.683053691275166
 20
55.0
 30
0.0
  0
VERTEX
  8
0
 10
26.683053691275166
 20
58.758389261744966
 30
0.0
  0
VERTEX
  8
0
 10
27.727516778523487
 20
58.758389261744966
 30
0.0
  0
SEQEND
  8
0
  0
POLYLINE
  8
0
 62
0
 70
1
 66
1
 10
0.0
 20
0.0
 30
0.0
  0
VERTEX
  8
0
 10
27.805536912751677
 20
55.41879194630872
 30
0.0
  0
VERTEX
  8
0
 10
28.94429530201342
 20
55.770973154362416
 30
0.0
  0
VERTEX
  8
0
 10
29.305536912751677
 20
56.882885906040265
 30
0.0
  0
VERTEX
  8
0
 10
28.94429530201342
 20
57.98859060402685
 30
0.0
  0
VERTEX
  8
0
 10
27.805536912751677
 20
58.339597315436244
 30
0.0
  0
VERTEX
  8
0
 10
27.191442953020132
 20
58.339597315436244
 30
0.0
  0
VERTEX
  8
0
 10
27.191442953020132
 20
55.41879194630872
 30
0.0
  0
SEQEND
  8
0
  0
POLYLINE
  8
0
 62
0
 70
1
 66
1
 10
0.0
 20
0.0
 30
0.0
  0
VERTEX
  8
0
 10
30.099999999999998
 20
53.78657718120805
 30
0.0
  0
VERTEX
  8
0
 10
30.099999999999998
 20
54.151677852348996
 30
0.0
  0
VERTEX
  8
0
 10
32.777852348993285
 20
54.151677852348996
 30
0.0
  0
VERTEX
  8
0
 10
32.777852348993285
 20
53.78657718120805
 30
0.0
  0
SEQEND
  8
0
  0
POLYLINE
  8
0
 62
0
 70
1
 66
1
 10
0.0
 20
0.0
 30
0.0
  0
VERTEX
  8
0
 10
35.89110738255033
 20
58.328859060402685
 30
0.0
  0
VERTEX
  8
0
 10
34.55721476510067
 20
58.328859060402685
 30
0.0
  0
VERTEX
  8
0
 10
34.55721476510067
 20
55.0
 30
0.0
  0
VERTEX
  8
0
 10
34.046308724832215
 20
55.0
 30
0.0
  0
VERTEX
  8
0
 10
34.046308724832215
 20
58.328859060402685
 30
0.0
  0
VERTEX
  8
0
 10
32.71241610738255
 20
58.328859060402685
 30
0.0
  0
VERTEX
  8
0
 10
32.71241610738255
 20
58.758389261744966
 30
0.0
  0
VERTEX
  8
0
 10
35.89110738255033
 20
58.758389261744966
 30
0.0
  0
SEQEND
  8
0
  0
POLYLINE
  8
0
 62
0
 70
1
 66
1
 10
0.0
 20
0.0
 30
0.0
  0
VERTEX
  8
0
 10
39.64144295302013
 20
56.87265100671141
 30
0.0
  0
VERTEX
  8
0
 10
39.16828859060403
 20
55.45453020134228
 30
0.0
  0
VERTEX
  8
0
 10
37.904865771812084
 20
54.924832214765104
 30
0.0
  0
VERTEX
  8
0
 10
36.63758389261745
 20
55.45318791946309
 30
0.0
  0
VERTEX
  8
0
 10
36.16325503355705
 20
56.87265100671141
 30
0.0
  0
VERTEX
  8
0
 10
36.63758389261745
 20
58.29312080536913
 30
0.0
  0
VERTEX
  8
0
 10
37.904865771812084
 20
58.82281879194631
 30
0.0
  0
VERTEX
  8
0
 10
39.16828859060403
 20
58.29312080536913
 30
0.0
  0
SEQEND
  8
0
  0
POLYLINE
  8
0
 62
0
 70
1
 66
1
 10
0.0
 20
0.0
 30
0.0
  0
VERTEX
  8
0
 10
36.6993288590604
 20
56.87248322147651
 30
0.0
  0
VERTEX
  8
0
 10
37.0251677852349
 20
55.74681208053691
 30
0.0
  0
VERTEX
  8
0
 10
37.904865771812084
 20
55.33288590604027
 30
0.0
  0
VERTEX
  8
0
 10
38.781879194630875
 20
55.74681208053691
 30
0.0
  0
VERTEX
  8
0
 10
39.10536912751678
 20
56.87248322147651
 30
0.0
  0
VERTEX
  8
0
 10
38.781879194630875
 20
58.000838926174495
 30
0.0
  0
VERTEX
  8
0
 10
37.904865771812084
 20
58.41476510067114
 30
0.0
  0
VERTEX
  8
0
 10
37.0251677852349
 20
58.000838926174495
 30
0.0
  0
SEQEND
  8
0
  0
POLYLINE
  8
0
 62
0
 70
1
 66
1
 10
0.0
 20
0.0
 30
0.0
  0
VERTEX
  8
0
 10
39.88255033557047
 20
53.78657718120805
 30
0.0
  0
VERTEX
  8
0
 10
39.88255033557047
 20
54.151677852348996
 30
0.0
  0
VERTEX
  8
0
 10
42.56040268456376
 20
54.151677852348996
 30
0.0
  0
VERTEX
  8
0
 10
42.56040268456376
 20
53.78657718120805
 30
0.0
  0
SEQEND
  8
0
  0
POLYLINE
  8
0
 62
0
 70
1
 66
1
 10
0.0
 20
0.0
 30
0.0
  0
VERTEX
  8
0
 10
43.5243288590604
 20
57.16996644295302
 30
0.0
  0
VERTEX
  8
0
 10
45.210570469798654
 20
58.758389261744966
 30
0.0
  0
VERTEX
  8
0
 10
45.864932885906036
 20
58.758389261744966
 30
0.0
  0
VERTEX
  8
0
 10
44.0
 20
57.006375838926175
 30
0.0
  0
VERTEX
  8
0
 10
45.998322147651
 20
55.0
 30
0.0
  0
VERTEX
  8
0
 10
45.32885906040268
 20
55.0
 30
0.0
  0
VERTEX
  8
0
 10
43.5243288590604
 20
56.80989932885906
 30
0.0
  0
VERTEX
  8
0
 10
43.5243288590604
 20
55.0
 30
0.0
  0
VERTEX
  8
0
 10
43.01593959731543
 20
55.0
 30
0.0
  0
VERTEX
  8
0
 10
43.01593959731543
 20
58.758389261744966
 30
0.0
  0
VERTEX
  8
0
 10
43.5243288590604
 20
58.758389261744966
 30
0.0
  0
SEQEND
  8
0
  0
POLYLINE
  8
0
 62
0
 70
1
 66
1
 10
0.0
 20
0.0
 30
0.0
  0
VERTEX
  8
0
 10
46.90687919463087
 20
55.0
 30
0.0
  0
VERTEX
  8
0
 10
46.3984899328859
 20
55.0
 30
0.0
  0
VERTEX
  8
0
 10
46.3984899328859
 20
58.758389261744966
 30
0.0
  0
VERTEX
  8
0
 10
46.90687919463087
 20
58.758389261744966
 30
0.0
  0
SEQEND
  8
0
  0
POLYLINE
  8
0
 62
0
 70
1
 66
1
 10
0.0
 20
0.0
 30
0.0
  0
VERTEX
  8
0
 10
50.18959731543624
 20
58.28640939597315
 30
0.0
  0
VERTEX
  8
0
 10
49.57181208053691
 20
58.40402684563758
 30
0.0
  0
VERTEX
  8
0
 10
48.58523489932885
 20
58.01040268456376
 30
0.0
  0
VERTEX
  8
0
 10
48.24295302013422
 20
56.87265100671141
 30
0.0
  0
VERTEX
  8
0
 10
48.58523489932885
 20
55.73708053691275
 30
0.0
  0
VERTEX
  8
0
 10
49.57181208053691
 20
55.343624161073826
 30
0.0
  0
VERTEX
  8
0
 10
50.18959731543624
 20
55.461073825503355
 30
0.0
  0
VERTEX
  8
0
 10
50.73708053691275
 20
55.816107382550335
 30
0.0
  0
VERTEX
  8
0
 10
50.73708053691275
 20
55.28993288590604
 30
0.0
  0
VERTEX
  8
0
 10
50.17197986577181
 20
55.01610738255034
 30
0.0
  0
VERTEX
  8
0
 10
49.54161073825503
 20
54.924832214765104
 30
0.0
  0
VERTEX
  8
0
 10
48.1976510067114
 20
55.44697986577181
 30
0.0
  0
VERTEX
  8
0
 10
47.706879194630865
 20
56.87265100671141
 30
0.0
  0
VERTEX
  8
0
 10
48.1976510067114
 20
58.3006711409396
 30
0.0
  0
VERTEX
  8
0
 10
49.54161073825503
 20
58.82281879194631
 30
0.0
  0
VERTEX
  8
0
 10
50.17701342281879
 20
58.73422818791946
 30
0.0
  0
VERTEX
  8
0
 10
50.73708053691275
 20
58.468456375838926
 30
0.0
  0
VERTEX
  8
0
 10
50.73708053691275
 20
57.93154362416107
 30
0.0
  0
SEQEND
  8
0
  0
POLYLINE
  8
0
 62
0
 70
1
 66
1
 10
0.0
 20
0.0
 30
0.0
  0
VERTEX
  8
0
 10
54.49798657718121
 20
55.0
 30
0.0
  0
VERTEX
  8
0
 10
53.96946308724832
 20
55.0
 30
0.0
  0
VERTEX
  8
0
 10
53.62718120805369
 20
55.966442953020135
 30
0.0
  0
VERTEX
  8
0
 10
51.93338926174496
 20
55.966442953020135
 30
0.0
  0
VERTEX
  8
0
 10
51.591107382550334
 20
55.0
 30
0.0
  0
VERTEX
  8
0
 10
51.05503355704698
 20
55.0
 30
0.0
  0
VERTEX
  8
0
 10
52.48959731543624
 20
58.758389261744966
 30
0.0
  0
VERTEX
  8
0
 10
53.065939597315435
 20
58.758389261744966
 30
0.0
  0
SEQEND
  8
0
  0
POLYLINE
  8
0
 62
0
 70
1
 66
1
 10
0.0
 20
0.0
 30
0.0
  0
VERTEX
  8
0
 10
53.468624161073826
 20
56.38523489932886
 30
0.0
  0
VERTEX
  8
0
 10
52.776510067114096
 20
58.25704697986577
 30
0.0
  0
VERTEX
  8
0
 10
52.08691275167785
 20
56.38523489932886
 30
0.0
  0
SEQEND
  8
0
  0
POLYLINE
  8
0
 62
0
 70
1
 66
1
 10
0.0
 20
0.0
 30
0.0
  0
VERTEX
  8
0
 10
57.69043624161073
 20
58.30402684563759
 30
0.0
  0
VERTEX
  8
0
 10
58.201342281879185
 20
56.882885906040265
 30
0.0
  0
VERTEX
  8
0
 10
57.68791946308724
 20
55.455536912751676
 30
0.0
  0
VERTEX
  8
0
 10
56.087248322147644
 20
55.0
 30
0.0
  0
VERTEX
  8
0
 10
55.04278523489932
 20
55.0
 30
0.0
  0
VERTEX
  8
0
 10
55.04278523489932
 20
58.758389261744966
 30
0.0
  0
VERTEX
  8
0
 10
56.087248322147644
 20
58.758389261744966
 30
0.0
  0
SEQEND
  8
0
  0
POLYLINE
  8
0
 62
0
 70
1
 66
1
 10
0.0
 20
0.0
 30
0.0
  0
VERTEX
  8
0
 10
56.165268456375834
 20
55.41879194630872
 30
0.0
  0
VERTEX
  8
0
 10
57.30402684563758
 20
55.770973154362416
 30
0.0
  0
VERTEX
  8
0
 10
57.665268456375834
 20
56.882885906040265
 30
0.0
  0
VERTEX
  8
0
 10
57.30402684563758
 20
57.98859060402685
 30
0.0
  0
VERTEX
  8
0
 10
56.165268456375834
 20
58.339597315436244
 30
0.0
  0
VERTEX
  8
0
 10
55.551174496644286
 20
58.339597315436244
 30
0.0
  0
VERTEX
  8
0
 10
55.551174496644286
 20
55.41879194630872
 30
0.0
  0
SEQEND
  8
0
  0
ENDBLK
  0
BLOCK
  8
0
  2
SHAPESTRING001
 70
0
 10
0.0
 20
0.0
 30
0.0
  3
SHAPESTRING001
  0
POLYLINE
  8
0
 62
0
 70
1
 66
1
 10
0.0
 20
0.0
 30
0.0
  0
VERTEX
  8
0
 10
61.881711409395976
 20
58.328859060402685
 30
0.0
  0
VERTEX
  8
0
 10
60.01426174496644
 20
58.328859060402685
 30
0.0
  0
VERTEX
  8
0
 10
60.01426174496644
 20
57.21208053691275
 30
0.0
  0
VERTEX
  8
0
 10
61.803691275167786
 20
57.21208053691275
 30
0.0
  0
VERTEX
  8
0
 10
61.803691275167786
 20
56.78255033557047
 30
0.0
  0
VERTEX
  8
0
 10
60.01426174496644
 20
56.78255033557047
 30
0.0
  0
VERTEX
  8
0
 10
60.01426174496644
 20
55.42953020134228
 30
0.0
  0
VERTEX
  8
0
 10
61.92701342281879
 20
55.42953020134228
 30
0.0
  0
VERTEX
  8
0
 10
61.92701342281879
 20
55.0
 30
0.0
  0
VERTEX
  8
0
 10
59.505872483221474
 20
55.0
 30
0.0
  0
VERTEX
  8
0
 10
59.505872483221474
 20
58.758389261744966
 30
0.0
  0
VERTEX
  8
0
 10
61.881711409395976
 20
58.758389261744966
 30
0.0
  0
SEQEND
  8
0
  0
POLYLINE
  8
0
 62
0
 70
1
 66
1
 10
0.0
 20
0.0
 30
0.0
  0
VERTEX
  8
0
 10
63.72852348993288
 20
55.58154362416107
 30
0.0
  0
VERTEX
  8
0
 10
64.51627516778524
 20
58.758389261744966
 30
0.0
  0
VERTEX
  8
0
 10
65.08758389261745
 20
58.758389261744966
 30
0.0
  0
VERTEX
  8
0
 10
65.87785234899329
 20
55.58154362416107
 30
0.0
  0
VERTEX
  8
0
 10
66.66560402684564
 20
58.758389261744966
 30
0.0
  0
VERTEX
  8
0
 10
67.18154362416107
 20
58.758389261744966
 30
0.0
  0
VERTEX
  8
0
 10
66.23775167785234
 20
55.0
 30
0.0
  0
VERTEX
  8
0
 10
65.59848993288591
 20
55.0
 30
0.0
  0
VERTEX
  8
0
 10
64.80570469798657
 20
58.26241610738255
 30
0.0
  0
VERTEX
  8
0
 10
64.00536912751677
 20
55.0
 30
0.0
  0
VERTEX
  8
0
 10
63.36610738255033
 20
55.0
 30
0.0
  0
VERTEX
  8
0
 10
62.424832214765104
 20
58.758389261744966
 30
0.0
  0
VERTEX
  8
0
 10
62.93825503355705
 20
58.758389261744966
 30
0.0
  0
SEQEND
  8
0
  0
POLYLINE
  8
0
 62
0
 70
1
 66
1
 10
0.0
 20
0.0
 30
0.0
  0
VERTEX
  8
0
 10
69.80822147651007
 20
56.31006711409396
 30
0.0
  0
VERTEX
  8
0
 10
70.34429530201342
 20
56.31006711409396
 30
0.0
  0
VERTEX
  8
0
 10
70.34429530201342
 20
55.89127516778524
 30
0.0
  0
VERTEX
  8
0
 10
69.80822147651007
 20
55.89127516778524
 30
0.0
  0
VERTEX
  8
0
 10
69.80822147651007
 20
55.0
 30
0.0
  0
VERTEX
  8
0
 10
69.30234899328859
 20
55.0
 30
0.0
  0
VERTEX
  8
0
 10
69.30234899328859
 20
55.89127516778524
 30
0.0
  0
VERTEX
  8
0
 10
67.60604026845638
 20
55.89127516778524
 30
0.0
  0
VERTEX
  8
0
 10
67.60604026845638
 20
56.381208053691275
 30
0.0
  0
VERTEX
  8
0
 10
69.16895973154362
 20
58.758389261744966
 30
0.0
  0
VERTEX
  8
0
 10
69.80822147651007
 20
58.758389261744966
 30
0.0
  0
SEQEND
  8
0
  0
POLYLINE
  8
0
 62
0
 70
1
 66
1
 10
0.0
 20
0.0
 30
0.0
  0
VERTEX
  8
0
 10
69.30234899328859
 20
56.31006711409396
 30
0.0
  0
VERTEX
  8
0
 10
69.30234899328859
 20
58.315604026845634
 30
0.0
  0
VERTEX
  8
0
 10
68.01879194630872
 20
56.31006711409396
 30
0.0
  0
SEQEND
  8
0
  0
POLYLINE
  8
0
 62
0
 70
1
 66
1
 10
0.0
 20
0.0
 30
0.0
  0
VERTEX
  8
0
 10
72.86694630872483
 20
56.546308724832215
 30
0.0
  0
VERTEX
  8
0
 10
72.86694630872483
 20
56.96510067114094
 30
0.0
  0
VERTEX
  8
0
 10
74.2008389261745
 20
56.96510067114094
 30
0.0
  0
VERTEX
  8
0
 10
74.2008389261745
 20
55.348657718120805
 30
0.0
  0
VERTEX
  8
0
 10
73.5515100671141
 20
55.03204697986577
 30
0.0
  0
VERTEX
  8
0
 10
72.79395973154362
 20
54.924832214765104
 30
0.0
  0
VERTEX
  8
0
 10
71.41593959731543
 20
55.439429530201345
 30
0.0
  0
VERTEX
  8
0
 10
70.91895973154362
 20
56.87265100671141
 30
0.0
  0
VERTEX
  8
0
 10
71.41593959731543
 20
58.30822147651007
 30
0.0
  0
VERTEX
  8
0
 10
72.79395973154362
 20
58.82281879194631
 30
0.0
  0
VERTEX
  8
0
 10
73.49228187919462
 20
58.732885906040266
 30
0.0
  0
VERTEX
  8
0
 10
74.10268456375839
 20
58.468456375838926
 30
0.0
  0
VERTEX
  8
0
 10
74.10268456375839
 20
57.93154362416107
 30
0.0
  0
VERTEX
  8
0
 10
73.50369127516778
 20
58.285234899328856
 30
0.0
  0
VERTEX
  8
0
 10
72.83674496644295
 20
58.40402684563758
 30
0.0
  0
VERTEX
  8
0
 10
71.8010067114094
 20
58.019295302013425
 30
0.0
  0
VERTEX
  8
0
 10
71.45503355704697
 20
56.87265100671141
 30
0.0
  0
VERTEX
  8
0
 10
71.8010067114094
 20
55.72835570469799
 30
0.0
  0
VERTEX
  8
0
 10
72.83674496644295
 20
55.343624161073826
 30
0.0
  0
VERTEX
  8
0
 10
73.31744966442953
 20
55.390268456375836
 30
0.0
  0
VERTEX
  8
0
 10
73.6974832214765
 20
55.535234899328856
 30
0.0
  0
VERTEX
  8
0
 10
73.6974832214765
 20
56.546308724832215
 30
0.0
  0
SEQEND
  8
0
  0
POLYLINE
  8
0
 62
0
 70
1
 66
1
 10
0.0
 20
0.0
 30
0.0
  0
VERTEX
  8
0
 10
77.56124161073825
 20
56.87265100671141
 30
0.0
  0
VERTEX
  8
0
 10
77.22768456375839
 20
55.4243288590604
 30
0.0
  0
VERTEX
  8
0
 10
76.26258389261744
 20
54.924832214765104
 30
0.0
  0
VERTEX
  8
0
 10
75.2973154362416
 20
55.4243288590604
 30
0.0
  0
VERTEX
  8
0
 10
74.96392617449665
 20
56.87265100671141
 30
0.0
  0
VERTEX
  8
0
 10
75.2973154362416
 20
58.323322147651005
 30
0.0
  0
VERTEX
  8
0
 10
76.26258389261744
 20
58.82281879194631
 30
0.0
  0
VERTEX
  8
0
 10
77.22768456375839
 20
58.323322147651005
 30
0.0
  0
SEQEND
  8
0
  0
POLYLINE
  8
0
 62
0
 70
1
 66
1
 10
0.0
 20
0.0
 30
0.0
  0
VERTEX
  8
0
 10
75.4748322147651
 20
56.87265100671141
 30
0.0
  0
VERTEX
  8
0
 10
75.6723154362416
 20
55.71778523489933
 30
0.0
  0
VERTEX
  8
0
 10
76.26258389261744
 20
55.33288590604027
 30
0.0
  0
VERTEX
  8
0
 10
76.85520134228187
 20
55.71778523489933
 30
0.0
  0
VERTEX
  8
0
 10
77.05285234899328
 20
56.87265100671141
 30
0.0
  0
VERTEX
  8
0
 10
76.85520134228187
 20
58.029865771812084
 30
0.0
  0
VERTEX
  8
0
 10
76.26258389261744
 20
58.41476510067114
 30
0.0
  0
VERTEX
  8
0
 10
75.6723154362416
 20
58.029865771812084
 30
0.0
  0
SEQEND
  8
0
  0
POLYLINE
  8
0
 62
0
 70
1
 66
1
 10
0.0
 20
0.0
 30
0.0
  0
VERTEX
  8
0
 10
80.73825503355704
 20
58.54194630872483
 30
0.0
  0
VERTEX
  8
0
 10
79.3741610738255
 20
55.0
 30
0.0
  0
VERTEX
  8
0
 10
78.84312080536913
 20
55.0
 30
0.0
  0
VERTEX
  8
0
 10
80.12667785234899
 20
58.328859060402685
 30
0.0
  0
VERTEX
  8
0
 10
78.3221476510067
 20
58.328859060402685
 30
0.0
  0
VERTEX
  8
0
 10
78.3221476510067
 20
58.758389261744966
 30
0.0
  0
VERTEX
  8
0
 10
80.73825503355704
 20
58.758389261744966
 30
0.0
  0
SEQEND
  8
0
  0
ENDBLK
  0
ENDSEC
  0
SECTION
  2
ENTITIES
  0
POLYLINE
  8
0
 62
0
 70
1
 66
1
 10
0.0
 20
0.0
 30
0.0
  0
VERTEX
  8
0
 10
0.0
 20
0.0
 30
0.0
  0
VERTEX
  8
0
 10
85.0
 20
0.0
 30
0.0
  0
VERTEX
  8
0
 10
85.0
 20
65.0
 30
0.0
  0
VERTEX
  8
0
 10
0.0
 20
65.0
 30
0.0
  0
SEQEND
  8
0
  0
INSERT
  2
SHAPESTRING
  8
0
 62
0
 10
0.0
 20
0.0
 30
0.0
  0
INSERT
  2
SHAPESTRING001
  8
0
 62
0
 10
0.0
 20
0.0
 30
0.0
  0
ENDSEC
  0
EOF
