ISO-10303-21;
HEADER;
FILE_DESCRIPTION(('ViewDefinition [CoordinationView_V2.0, QuantityTakeOffAddOnView]','RevitIdentifiers [VersionGUID: 4fe81787-4f69-409a-ae29-8f0f0981de51, NumberOfSaves: 0]'),'2;1');
FILE_NAME('result.ifc','2026-06-08T12:49:31+08:00',(''),(''),'ODA SDAI 24.12','Autodesk Revit 25.1.0.44 (ENU) - IFC 25.1.0.44','');
FILE_SCHEMA(('IFC4'));
ENDSEC;

DATA;
#1=IFCORGANIZATION($,'Autodesk Revit 2025 (ENU)',$,$,$);
#2=IFCAPPLICATION(#1,'2025','Autodesk Revit 2025 (ENU)','Revit');
#3=IFCCARTESIANPOINT((0.,0.,0.));
#4=IFCCARTESIANPOINT((0.,0.));
#5=IFCDIRECTION((1.,0.,0.));
#6=IFCDIRECTION((-1.,0.,0.));
#7=IFCDIRECTION((0.,1.,0.));
#8=IFCDIRECTION((0.,-1.,0.));
#9=IFCDIRECTION((0.,0.,1.));
#10=IFCDIRECTION((0.,0.,-1.));
#11=IFCDIRECTION((1.,0.));
#12=IFCDIRECTION((-1.,0.));
#13=IFCDIRECTION((0.,1.));
#14=IFCDIRECTION((0.,-1.));
#15=IFCPERSON($,'','user',$,$,$,$,$);
#16=IFCORGANIZATION($,'','',$,$);
#17=IFCPERSONANDORGANIZATION(#15,#16,$);
#18=IFCOWNERHISTORY(#17,#2,$,.NOCHANGE.,$,$,$,1780894171);
#19=IFCSIUNIT(*,.LENGTHUNIT.,.MILLI.,.METRE.);
#20=IFCAXIS2PLACEMENT3D(#3,$,$);
#21=IFCDIRECTION((6.123233995736766E-017,1.));
#22=IFCGEOMETRICREPRESENTATIONCONTEXT($,'Model',3,0.01,#20,#21);
#23=IFCGEOMETRICREPRESENTATIONSUBCONTEXT('Axis','Model',*,*,*,*,#22,$,.GRAPH_VIEW.,$);
#24=IFCGEOMETRICREPRESENTATIONSUBCONTEXT('Body','Model',*,*,*,*,#22,$,.MODEL_VIEW.,$);
#25=IFCGEOMETRICREPRESENTATIONSUBCONTEXT('Box','Model',*,*,*,*,#22,$,.MODEL_VIEW.,$);
#26=IFCGEOMETRICREPRESENTATIONSUBCONTEXT('FootPrint','Model',*,*,*,*,#22,$,.MODEL_VIEW.,$);
#27=IFCPROJECT('2a6gCjEon1Au1QKpsaBIU9',#18,'c-revit-task-08-result',$,$,'Library Annex Replan result','',(#22),#1192);
#28=IFCCLASSIFICATION('CSI (Construction Specifications Institute)','1998',$,'Uniformat','UniFormat Classification','https://www.csiresources.org/standards/uniformat',$);
#29=IFCAXIS2PLACEMENT3D(#3,$,$);
#30=IFCLOCALPLACEMENT(#37,#29);
#31=IFCPOSTALADDRESS($,$,$,$,$,$,'','','','');
#32=IFCBUILDING('2a6gCjEon1Au1QKpsaBIU8',#18,'',$,$,#30,$,'',.ELEMENT.,$,$,#31);
#33=IFCAXIS2PLACEMENT3D(#3,$,$);
#34=IFCLOCALPLACEMENT(#30,#33);
#35=IFCBUILDINGSTOREY('1Fw1U7Jsb0cgufZmy9WTdE',#18,'Ground Floor',$,'Level:Level 1',#34,$,'Ground Floor',.ELEMENT.,0.);
#36=IFCAXIS2PLACEMENT3D(#3,$,$);
#37=IFCLOCALPLACEMENT($,#36);
#38=IFCSITE('2a6gCjEon1Au1QKpsaBIUB',#18,'Default',$,$,#37,$,$,.ELEMENT.,(42,24,53,508911),(-71,-15,-29,-58837),0.,$,$);
#39=IFCPROPERTYSINGLEVALUE('Reference',$,IFCIDENTIFIER('Project Information'),$);
#40=IFCPROPERTYSET('1wj2fav2YEa9hFQ_P9ANp4',#18,'Pset_SiteCommon',$,(#39));
#41=IFCRELDEFINESBYPROPERTIES('04PkmgCYoZY8y3Fmpzhawo',#18,$,$,(#38),#40);
#42=IFCSIUNIT(*,.AREAUNIT.,$,.SQUARE_METRE.);
#43=IFCPROPERTYSINGLEVALUE('Category',$,IFCLABEL('Project Information'),$);
#44=IFCPROPERTYSINGLEVALUE('Project Name',$,IFCTEXT('Library Annex Replan result'),$);
#45=IFCPROPERTYSINGLEVALUE('Project Number',$,IFCTEXT('c-revit-task-08-result'),$);
#46=IFCPROPERTYSET('3CQrdYkd6ad5ceven_KG$o',#18,'Other',$,(#43,#44,#45));
#47=IFCAXIS2PLACEMENT3D(#3,$,$);
#48=IFCLOCALPLACEMENT(#34,#47);
#49=IFCCARTESIANPOINT((-379.99999999999966,-6.8212102632969618E-013));
#50=IFCAXIS2PLACEMENT2D(#49,#11);
#51=IFCRECTANGLEPROFILEDEF(.AREA.,$,#50,3800.,7800.);
#52=IFCCARTESIANPOINT((2380.,4000.,0.));
#53=IFCAXIS2PLACEMENT3D(#52,$,$);
#54=IFCEXTRUDEDAREASOLID(#51,#53,#9,2438.4000000000001);
#55=IFCSIUNIT(*,.PLANEANGLEUNIT.,$,.RADIAN.);
#56=IFCDIMENSIONALEXPONENTS(0,0,0,0,0,0,0);
#57=IFCMEASUREWITHUNIT(IFCPLANEANGLEMEASURE(0.017453292519943278),#55);
#58=IFCCONVERSIONBASEDUNIT(#56,.PLANEANGLEUNIT.,'DEGREE',#57);
#59=IFCSHAPEREPRESENTATION(#24,'Body','SweptSolid',(#54));
#60=IFCPRODUCTDEFINITIONSHAPE($,$,(#59));
#61=IFCSPACE('1Fw1U7Jsb0cgufZmy9WTId',#18,'G01',$,$,#48,#60,'Lobby',.ELEMENT.,.NOTDEFINED.,$);
#62=IFCSPACETYPE('1Fw1U7Jsb0cgufXmy9WTId',#18,'Lobby G01:2806',$,$,$,$,'2806',$,.NOTDEFINED.,$);
#63=IFCCARTESIANPOINT((100.,100.,0.));
#64=IFCCARTESIANPOINT((7800.,0.));
#65=IFCCARTESIANPOINT((7800.,3800.));
#66=IFCCARTESIANPOINT((3900.,3800.));
#67=IFCCARTESIANPOINT((0.,3800.));
#68=IFCPOLYLINE((#4,#64,#65,#66,#67,#4));
#69=IFCAXIS2PLACEMENT3D(#63,#10,#7);
#70=IFCPLANE(#69);
#71=IFCCURVEBOUNDEDPLANE(#70,#68,$);
#72=IFCCONNECTIONSURFACEGEOMETRY(#71,$);
#73=IFCCARTESIANPOINT((100.,100.));
#74=IFCCARTESIANPOINT((3900.,100.));
#75=IFCPOLYLINE((#73,#74));
#76=IFCARBITRARYOPENPROFILEDEF(.CURVE.,$,#75);
#77=IFCAXIS2PLACEMENT3D(#3,$,$);
#78=IFCSURFACEOFLINEAREXTRUSION(#76,#77,#9,2438.4000000000001);
#79=IFCCONNECTIONSURFACEGEOMETRY(#78,$);
#80=IFCCARTESIANPOINT((3900.,100.));
#81=IFCCARTESIANPOINT((3900.,4000.));
#82=IFCPOLYLINE((#80,#81));
#83=IFCARBITRARYOPENPROFILEDEF(.CURVE.,$,#82);
#84=IFCAXIS2PLACEMENT3D(#3,$,$);
#85=IFCSURFACEOFLINEAREXTRUSION(#83,#84,#9,2438.4000000000001);
#86=IFCCONNECTIONSURFACEGEOMETRY(#85,$);
#87=IFCCARTESIANPOINT((3900.,4000.));
#88=IFCCARTESIANPOINT((3900.,7900.));
#89=IFCPOLYLINE((#87,#88));
#90=IFCARBITRARYOPENPROFILEDEF(.CURVE.,$,#89);
#91=IFCAXIS2PLACEMENT3D(#3,$,$);
#92=IFCSURFACEOFLINEAREXTRUSION(#90,#91,#9,2438.4000000000001);
#93=IFCCONNECTIONSURFACEGEOMETRY(#92,$);
#94=IFCCARTESIANPOINT((3900.,7900.));
#95=IFCCARTESIANPOINT((100.,7900.));
#96=IFCPOLYLINE((#94,#95));
#97=IFCARBITRARYOPENPROFILEDEF(.CURVE.,$,#96);
#98=IFCAXIS2PLACEMENT3D(#3,$,$);
#99=IFCSURFACEOFLINEAREXTRUSION(#97,#98,#9,2438.4000000000001);
#100=IFCCONNECTIONSURFACEGEOMETRY(#99,$);
#101=IFCCARTESIANPOINT((100.,7900.));
#102=IFCCARTESIANPOINT((100.,100.));
#103=IFCPOLYLINE((#101,#102));
#104=IFCARBITRARYOPENPROFILEDEF(.CURVE.,$,#103);
#105=IFCAXIS2PLACEMENT3D(#3,$,$);
#106=IFCSURFACEOFLINEAREXTRUSION(#104,#105,#9,2438.4000000000001);
#107=IFCCONNECTIONSURFACEGEOMETRY(#106,$);
#108=IFCPROPERTYSINGLEVALUE('Name',$,IFCLABEL('Lobby'),$);
#109=IFCPROPERTYSET('3VWo0fd7Zh0audei8Ata6P',#18,'Pset_AirSideSystemInformation',$,(#108));
#110=IFCPROPERTYSINGLEVALUE('Reference',$,IFCIDENTIFIER('Lobby G01'),$);
#111=IFCPROPERTYSINGLEVALUE('IsExternal',$,IFCBOOLEAN(.F.),$);
#112=IFCPROPERTYSET('247su8yatLfNMYffp5t9$5',#18,'Pset_SpaceCommon',$,(#110,#111));
#113=IFCPROPERTYSET('3LFRTbIc9wS41AHpr3vg51',#18,'Pset_SpaceHeaterTypeCommon',$,(#110));
#114=IFCRELDEFINESBYPROPERTIES('373XuEVLGVzbnO_fez4zJ3',#18,$,$,(#61),#109);
#115=IFCRELDEFINESBYPROPERTIES('1mvkhJ9VpMIEBaaitaIU$9',#18,$,$,(#61),#112);
#116=IFCRELDEFINESBYPROPERTIES('2vqghiGX5YHfCGEflxPynw',#18,$,$,(#61),#113);
#117=IFCQUANTITYLENGTH('Height','',$,2438.4000000000001,$);
#118=IFCQUANTITYAREA('GrossFloorArea','',$,29.639999999999997,$);
#119=IFCQUANTITYAREA('NetFloorArea','',$,29.639999999999997,$);
#120=IFCQUANTITYAREA('GrossCeilingArea','',$,29.639999999999997,$);
#121=IFCSIUNIT(*,.VOLUMEUNIT.,$,.CUBIC_METRE.);
#122=IFCQUANTITYVOLUME('GrossVolume','',$,72.274175999999997,$);
#123=IFCQUANTITYVOLUME('NetVolume','',$,72.274176000000011,$);
#124=IFCELEMENTQUANTITY('1KfMlfI5sDAXpvPmGiIMYe',#18,'Qto_SpaceBaseQuantities',$,$,(#117,#118,#119,#120,#122,#123));
#125=IFCRELDEFINESBYPROPERTIES('2RFBfuvMTIk75qWyHeTsL1',#18,$,$,(#61),#124);
#126=IFCPROPERTYSINGLEVALUE('Category',$,IFCLABEL('Rooms'),$);
#127=IFCPROPERTYSINGLEVALUE('Phase Id',$,IFCLABEL('4'),$);
#128=IFCPROPERTYSINGLEVALUE('Base Offset',$,IFCLENGTHMEASURE(0.),$);
#129=IFCPROPERTYSINGLEVALUE('Level',$,IFCTEXT('Ground Floor'),$);
#130=IFCPROPERTYSINGLEVALUE('Limit Offset',$,IFCLENGTHMEASURE(0.026246719160104987),$);
#131=IFCPROPERTYSINGLEVALUE('Upper Limit',$,IFCLABEL('Ground Floor'),$);
#132=IFCPROPERTYSINGLEVALUE('Area',$,IFCAREAMEASURE(29.639999999999997),$);
#133=IFCPROPERTYSINGLEVALUE('Computation Height',$,IFCLENGTHMEASURE(0.),$);
#134=IFCPROPERTYSINGLEVALUE('Perimeter',$,IFCLENGTHMEASURE(23199.999999999996),$);
#135=IFCPROPERTYSINGLEVALUE('Unbounded Height',$,IFCLENGTHMEASURE(0.026246719160104987),$);
#136=IFCPROPERTYSINGLEVALUE('Volume',$,IFCVOLUMEMEASURE(72.274176000000011),$);
#137=IFCSIUNIT(*,.POWERUNIT.,$,.WATT.);
#138=IFCPROPERTYSINGLEVALUE('Actual Lighting Load',$,IFCPOWERMEASURE(0.),$);
#139=IFCSIUNIT(*,.MASSUNIT.,.KILO.,.GRAM.);
#140=IFCDERIVEDUNITELEMENT(#139,1);
#141=IFCSIUNIT(*,.TIMEUNIT.,$,.SECOND.);
#142=IFCDERIVEDUNITELEMENT(#141,-3);
#143=IFCDERIVEDUNIT((#140,#142),.USERDEFINED.,'Electrical Power Density');
#144=IFCPROPERTYSINGLEVALUE('Actual Lighting Load per area',$,IFCREAL(0.),#143);
#145=IFCPROPERTYSINGLEVALUE('Actual Power Load',$,IFCPOWERMEASURE(0.),$);
#146=IFCPROPERTYSINGLEVALUE('Actual Power Load per area',$,IFCREAL(0.),#143);
#147=IFCPROPERTYSINGLEVALUE('Area per Person',$,IFCAREAMEASURE(28.571428571428573),$);
#148=IFCPROPERTYSINGLEVALUE('Base Lighting Load on',$,IFCIDENTIFIER('By Space Type'),$);
#149=IFCPROPERTYSINGLEVALUE('Base Power Load on',$,IFCIDENTIFIER('By Space Type'),$);
#150=IFCPROPERTYSINGLEVALUE('Heat Load Values',$,IFCIDENTIFIER('By Space Type'),$);
#151=IFCPROPERTYSINGLEVALUE('Latent Heat Gain per person',$,IFCPOWERMEASURE(58.614214034444437),$);
#152=IFCPROPERTYSINGLEVALUE('Lighting Load Units',$,IFCIDENTIFIER('Power Density'),$);
#153=IFCPROPERTYSINGLEVALUE('Number of People',$,IFCREAL(0.),$);
#154=IFCPROPERTYSINGLEVALUE('Plenum Lighting Contribution',$,IFCPOSITIVERATIOMEASURE(0.20000000000000001),$);
#155=IFCPROPERTYSINGLEVALUE('Power Load Units',$,IFCIDENTIFIER('Power Density'),$);
#156=IFCPROPERTYSINGLEVALUE('Sensible Heat Gain per person',$,IFCPOWERMEASURE(73.267767543055555),$);
#157=IFCPROPERTYSINGLEVALUE('Specified Lighting Load',$,IFCPOWERMEASURE(0.),$);
#158=IFCPROPERTYSINGLEVALUE('Specified Lighting Load per area',$,IFCREAL(10.763910416709722),#143);
#159=IFCPROPERTYSINGLEVALUE('Specified Power Load',$,IFCPOWERMEASURE(0.),$);
#160=IFCPROPERTYSINGLEVALUE('Specified Power Load per area',$,IFCREAL(13.993083541722639),#143);
#161=IFCPROPERTYSINGLEVALUE('Total Heat Gain per person',$,IFCPOWERMEASURE(131.88198157749997),$);
#162=IFCPROPERTYSINGLEVALUE('Name',$,IFCTEXT('Lobby'),$);
#163=IFCPROPERTYSINGLEVALUE('Number',$,IFCTEXT('G01'),$);
#164=IFCPROPERTYSINGLEVALUE('Phase',$,IFCLABEL('New Construction'),$);
#165=IFCPROPERTYSET('3nuD4zlysBIwPLSQrjcnAW',#18,'Other',$,(#126,#127));
#166=IFCPROPERTYSET('1uKy6PFGPJsC$XKU2MNik3',#18,'Constraints',$,(#128,#129,#130,#131));
#167=IFCPROPERTYSET('0kvCAN28iPHtQoIN3EqAFX',#18,'Dimensions',$,(#132,#133,#134,#135,#136));
#168=IFCPROPERTYSET('3g60Ka6LGWzIT61rctX3$F',#18,'Energy Analysis',$,(#138,#144,#145,#146,#147,#148,#149,#150,#151,#152,#153,#154,#155,#156,#157,#158,#159,#160,#161));
#169=IFCPROPERTYSET('3x1LGTVf67DZAM0ZA5VoMS',#18,'Identity Data',$,(#162,#163));
#170=IFCPROPERTYSET('1qo0HTTscBEx9XLDaMe7Fj',#18,'Phasing',$,(#164));
#171=IFCAXIS2PLACEMENT3D(#3,$,$);
#172=IFCLOCALPLACEMENT(#34,#171);
#173=IFCCARTESIANPOINT((0.,0.));
#174=IFCAXIS2PLACEMENT2D(#173,#11);
#175=IFCRECTANGLEPROFILEDEF(.AREA.,$,#174,9799.9999999999982,3799.9999999999995);
#176=IFCCARTESIANPOINT((9000.,2000.,0.));
#177=IFCAXIS2PLACEMENT3D(#176,$,$);
#178=IFCEXTRUDEDAREASOLID(#175,#177,#9,2438.4000000000001);
#179=IFCSHAPEREPRESENTATION(#24,'Body','SweptSolid',(#178));
#180=IFCPRODUCTDEFINITIONSHAPE($,$,(#179));
#181=IFCSPACE('1Fw1U7Jsb0cgufZmy9WTIf',#18,'G02',$,$,#172,#180,'Reading Room',.ELEMENT.,.NOTDEFINED.,$);
#182=IFCSPACETYPE('1Fw1U7Jsb0cgufXmy9WTIf',#18,'Reading Room G02:2808',$,$,$,$,'2808',$,.NOTDEFINED.,$);
#183=IFCCARTESIANPOINT((4100.,100.,0.));
#184=IFCCARTESIANPOINT((3800.,0.));
#185=IFCCARTESIANPOINT((3800.,9800.));
#186=IFCCARTESIANPOINT((0.,9800.));
#187=IFCPOLYLINE((#4,#184,#185,#186,#4));
#188=IFCAXIS2PLACEMENT3D(#183,#10,#7);
#189=IFCPLANE(#188);
#190=IFCCURVEBOUNDEDPLANE(#189,#187,$);
#191=IFCCONNECTIONSURFACEGEOMETRY(#190,$);
#192=IFCCARTESIANPOINT((4100.,100.));
#193=IFCCARTESIANPOINT((13900.,100.));
#194=IFCPOLYLINE((#192,#193));
#195=IFCARBITRARYOPENPROFILEDEF(.CURVE.,$,#194);
#196=IFCAXIS2PLACEMENT3D(#3,$,$);
#197=IFCSURFACEOFLINEAREXTRUSION(#195,#196,#9,2438.4000000000001);
#198=IFCCONNECTIONSURFACEGEOMETRY(#197,$);
#199=IFCCARTESIANPOINT((13900.,100.));
#200=IFCCARTESIANPOINT((13900.,3900.));
#201=IFCPOLYLINE((#199,#200));
#202=IFCARBITRARYOPENPROFILEDEF(.CURVE.,$,#201);
#203=IFCAXIS2PLACEMENT3D(#3,$,$);
#204=IFCSURFACEOFLINEAREXTRUSION(#202,#203,#9,2438.4000000000001);
#205=IFCCONNECTIONSURFACEGEOMETRY(#204,$);
#206=IFCCARTESIANPOINT((13900.,3900.));
#207=IFCCARTESIANPOINT((4100.,3900.));
#208=IFCPOLYLINE((#206,#207));
#209=IFCARBITRARYOPENPROFILEDEF(.CURVE.,$,#208);
#210=IFCAXIS2PLACEMENT3D(#3,$,$);
#211=IFCSURFACEOFLINEAREXTRUSION(#209,#210,#9,2438.4000000000001);
#212=IFCCONNECTIONSURFACEGEOMETRY(#211,$);
#213=IFCCARTESIANPOINT((4100.,3900.));
#214=IFCCARTESIANPOINT((4100.,100.));
#215=IFCPOLYLINE((#213,#214));
#216=IFCARBITRARYOPENPROFILEDEF(.CURVE.,$,#215);
#217=IFCAXIS2PLACEMENT3D(#3,$,$);
#218=IFCSURFACEOFLINEAREXTRUSION(#216,#217,#9,2438.4000000000001);
#219=IFCCONNECTIONSURFACEGEOMETRY(#218,$);
#220=IFCPROPERTYSINGLEVALUE('Name',$,IFCLABEL('Reading Room'),$);
#221=IFCPROPERTYSET('3759fJk7_nMEC5O8VrYcn2',#18,'Pset_AirSideSystemInformation',$,(#220));
#222=IFCPROPERTYSINGLEVALUE('Reference',$,IFCIDENTIFIER('Reading Room G02'),$);
#223=IFCPROPERTYSET('0_ycCdHvwOE1YdUgQsre9g',#18,'Pset_SpaceCommon',$,(#111,#222));
#224=IFCPROPERTYSET('0o43tIjVtAm9bC_oZAhvuQ',#18,'Pset_SpaceHeaterTypeCommon',$,(#222));
#225=IFCRELDEFINESBYPROPERTIES('08rQTqeik$IEcvEFA_KK8C',#18,$,$,(#181),#221);
#226=IFCRELDEFINESBYPROPERTIES('1AhTRGtoug0ocXRsU57Pmr',#18,$,$,(#181),#223);
#227=IFCRELDEFINESBYPROPERTIES('2WWII0ek1Eidqnl77i8UQv',#18,$,$,(#181),#224);
#228=IFCQUANTITYLENGTH('Height','',$,2438.4000000000001,$);
#229=IFCQUANTITYAREA('GrossFloorArea','',$,37.239999999999988,$);
#230=IFCQUANTITYAREA('NetFloorArea','',$,37.239999999999988,$);
#231=IFCQUANTITYAREA('GrossCeilingArea','',$,37.239999999999988,$);
#232=IFCQUANTITYVOLUME('GrossVolume','',$,90.806015999999985,$);
#233=IFCQUANTITYVOLUME('NetVolume','',$,90.806015999999985,$);
#234=IFCELEMENTQUANTITY('1pvoh0DSUi8mkiUCDLBhFL',#18,'Qto_SpaceBaseQuantities',$,$,(#228,#229,#230,#231,#232,#233));
#235=IFCRELDEFINESBYPROPERTIES('26puh5xrQgjKcgCVm8tqIH',#18,$,$,(#181),#234);
#236=IFCPROPERTYSINGLEVALUE('Level',$,IFCTEXT('Ground Floor'),$);
#237=IFCPROPERTYSINGLEVALUE('Area',$,IFCAREAMEASURE(37.239999999999988),$);
#238=IFCPROPERTYSINGLEVALUE('Perimeter',$,IFCLENGTHMEASURE(27199.999999999996),$);
#239=IFCPROPERTYSINGLEVALUE('Volume',$,IFCVOLUMEMEASURE(90.806015999999985),$);
#240=IFCPROPERTYSINGLEVALUE('Actual Lighting Load per area',$,IFCREAL(0.),#143);
#241=IFCPROPERTYSINGLEVALUE('Actual Power Load per area',$,IFCREAL(0.),#143);
#242=IFCPROPERTYSINGLEVALUE('Area per Person',$,IFCAREAMEASURE(28.571428571428573),$);
#243=IFCPROPERTYSINGLEVALUE('Latent Heat Gain per person',$,IFCPOWERMEASURE(58.614214034444437),$);
#244=IFCPROPERTYSINGLEVALUE('Sensible Heat Gain per person',$,IFCPOWERMEASURE(73.267767543055555),$);
#245=IFCPROPERTYSINGLEVALUE('Specified Lighting Load per area',$,IFCREAL(10.763910416709722),#143);
#246=IFCPROPERTYSINGLEVALUE('Specified Power Load per area',$,IFCREAL(13.993083541722639),#143);
#247=IFCPROPERTYSINGLEVALUE('Total Heat Gain per person',$,IFCPOWERMEASURE(131.88198157749997),$);
#248=IFCPROPERTYSINGLEVALUE('Name',$,IFCTEXT('Reading Room'),$);
#249=IFCPROPERTYSINGLEVALUE('Number',$,IFCTEXT('G02'),$);
#250=IFCPROPERTYSET('3L34wP4kCTaHJLCbNk7LDY',#18,'Other',$,(#126,#127));
#251=IFCPROPERTYSET('04cDroHU7BGpeQpfw53g7n',#18,'Constraints',$,(#128,#130,#131,#236));
#252=IFCPROPERTYSET('3MriKsBqzNlzVb0RK2zA0e',#18,'Dimensions',$,(#133,#135,#237,#238,#239));
#253=IFCPROPERTYSET('2J94y6yRrANMMTWv4GJzlL',#18,'Energy Analysis',$,(#138,#145,#148,#149,#150,#152,#153,#154,#155,#157,#159,#240,#241,#242,#243,#244,#245,#246,#247));
#254=IFCPROPERTYSET('3VaOND6i2q41K17rhYmawY',#18,'Identity Data',$,(#248,#249));
#255=IFCPROPERTYSET('0VDeOU9uhTP9Iw77Uq5GvZ',#18,'Phasing',$,(#164));
#256=IFCAXIS2PLACEMENT3D(#3,$,$);
#257=IFCLOCALPLACEMENT(#34,#256);
#258=IFCCARTESIANPOINT((0.,-3.4106051316484809E-013));
#259=IFCAXIS2PLACEMENT2D(#258,#11);
#260=IFCRECTANGLEPROFILEDEF(.AREA.,$,#259,9799.9999999999982,3800.);
#261=IFCCARTESIANPOINT((9000.,6000.,0.));
#262=IFCAXIS2PLACEMENT3D(#261,#9,#6);
#263=IFCEXTRUDEDAREASOLID(#260,#262,#9,2438.4000000000001);
#264=IFCSHAPEREPRESENTATION(#24,'Body','SweptSolid',(#263));
#265=IFCPRODUCTDEFINITIONSHAPE($,$,(#264));
#266=IFCSPACE('1Fw1U7Jsb0cgufZmy9WTIe',#18,'G03',$,$,#257,#265,'Stacks',.ELEMENT.,.NOTDEFINED.,$);
#267=IFCSPACETYPE('1Fw1U7Jsb0cgufXmy9WTIe',#18,'Stacks G03:2809',$,$,$,$,'2809',$,.NOTDEFINED.,$);
#268=IFCCARTESIANPOINT((13900.,7900.,0.));
#269=IFCCARTESIANPOINT((3800.,0.));
#270=IFCCARTESIANPOINT((3800.,9800.));
#271=IFCCARTESIANPOINT((0.,9800.));
#272=IFCPOLYLINE((#4,#269,#270,#271,#4));
#273=IFCAXIS2PLACEMENT3D(#268,#10,#8);
#274=IFCPLANE(#273);
#275=IFCCURVEBOUNDEDPLANE(#274,#272,$);
#276=IFCCONNECTIONSURFACEGEOMETRY(#275,$);
#277=IFCCARTESIANPOINT((13900.,7900.));
#278=IFCCARTESIANPOINT((4100.,7900.));
#279=IFCPOLYLINE((#277,#278));
#280=IFCARBITRARYOPENPROFILEDEF(.CURVE.,$,#279);
#281=IFCAXIS2PLACEMENT3D(#3,$,$);
#282=IFCSURFACEOFLINEAREXTRUSION(#280,#281,#9,2438.4000000000001);
#283=IFCCONNECTIONSURFACEGEOMETRY(#282,$);
#284=IFCCARTESIANPOINT((4100.,7900.));
#285=IFCCARTESIANPOINT((4100.,4100.));
#286=IFCPOLYLINE((#284,#285));
#287=IFCARBITRARYOPENPROFILEDEF(.CURVE.,$,#286);
#288=IFCAXIS2PLACEMENT3D(#3,$,$);
#289=IFCSURFACEOFLINEAREXTRUSION(#287,#288,#9,2438.4000000000001);
#290=IFCCONNECTIONSURFACEGEOMETRY(#289,$);
#291=IFCCARTESIANPOINT((4100.,4100.));
#292=IFCCARTESIANPOINT((13900.,4100.));
#293=IFCPOLYLINE((#291,#292));
#294=IFCARBITRARYOPENPROFILEDEF(.CURVE.,$,#293);
#295=IFCAXIS2PLACEMENT3D(#3,$,$);
#296=IFCSURFACEOFLINEAREXTRUSION(#294,#295,#9,2438.4000000000001);
#297=IFCCONNECTIONSURFACEGEOMETRY(#296,$);
#298=IFCCARTESIANPOINT((13900.,4100.));
#299=IFCCARTESIANPOINT((13900.,7900.));
#300=IFCPOLYLINE((#298,#299));
#301=IFCARBITRARYOPENPROFILEDEF(.CURVE.,$,#300);
#302=IFCAXIS2PLACEMENT3D(#3,$,$);
#303=IFCSURFACEOFLINEAREXTRUSION(#301,#302,#9,2438.4000000000001);
#304=IFCCONNECTIONSURFACEGEOMETRY(#303,$);
#305=IFCPROPERTYSINGLEVALUE('Name',$,IFCLABEL('Stacks'),$);
#306=IFCPROPERTYSET('08$lwRfNe8L9jTrEhQicTw',#18,'Pset_AirSideSystemInformation',$,(#305));
#307=IFCPROPERTYSINGLEVALUE('Reference',$,IFCIDENTIFIER('Stacks G03'),$);
#308=IFCPROPERTYSET('1OKXuRjWZuxwJq41xANUpu',#18,'Pset_SpaceCommon',$,(#111,#307));
#309=IFCPROPERTYSET('3u6BMDrNX6QsnPU0ValaJt',#18,'Pset_SpaceHeaterTypeCommon',$,(#307));
#310=IFCRELDEFINESBYPROPERTIES('2JCR7334D7H2c1pdKVppT0',#18,$,$,(#266),#306);
#311=IFCRELDEFINESBYPROPERTIES('32W$4spX6cR48MsebNoLnK',#18,$,$,(#266),#308);
#312=IFCRELDEFINESBYPROPERTIES('3Qg63YVt3f_IwGFrkm6UnA',#18,$,$,(#266),#309);
#313=IFCQUANTITYLENGTH('Height','',$,2438.4000000000001,$);
#314=IFCQUANTITYAREA('GrossFloorArea','',$,37.239999999999995,$);
#315=IFCQUANTITYAREA('NetFloorArea','',$,37.239999999999995,$);
#316=IFCQUANTITYAREA('GrossCeilingArea','',$,37.239999999999995,$);
#317=IFCQUANTITYVOLUME('GrossVolume','',$,90.806016,$);
#318=IFCQUANTITYVOLUME('NetVolume','',$,90.806015999999985,$);
#319=IFCELEMENTQUANTITY('0MT5PTHh4Eb8BqCy2Qkf5F',#18,'Qto_SpaceBaseQuantities',$,$,(#313,#314,#315,#316,#317,#318));
#320=IFCRELDEFINESBYPROPERTIES('3ztGkEg6PY9pfXiDdpYNzs',#18,$,$,(#266),#319);
#321=IFCPROPERTYSINGLEVALUE('Level',$,IFCTEXT('Ground Floor'),$);
#322=IFCPROPERTYSINGLEVALUE('Area',$,IFCAREAMEASURE(37.239999999999995),$);
#323=IFCPROPERTYSINGLEVALUE('Perimeter',$,IFCLENGTHMEASURE(27199.999999999996),$);
#324=IFCPROPERTYSINGLEVALUE('Volume',$,IFCVOLUMEMEASURE(90.806015999999985),$);
#325=IFCPROPERTYSINGLEVALUE('Actual Lighting Load per area',$,IFCREAL(0.),#143);
#326=IFCPROPERTYSINGLEVALUE('Actual Power Load per area',$,IFCREAL(0.),#143);
#327=IFCPROPERTYSINGLEVALUE('Area per Person',$,IFCAREAMEASURE(28.571428571428573),$);
#328=IFCPROPERTYSINGLEVALUE('Latent Heat Gain per person',$,IFCPOWERMEASURE(58.614214034444437),$);
#329=IFCPROPERTYSINGLEVALUE('Sensible Heat Gain per person',$,IFCPOWERMEASURE(73.267767543055555),$);
#330=IFCPROPERTYSINGLEVALUE('Specified Lighting Load per area',$,IFCREAL(10.763910416709722),#143);
#331=IFCPROPERTYSINGLEVALUE('Specified Power Load per area',$,IFCREAL(13.993083541722639),#143);
#332=IFCPROPERTYSINGLEVALUE('Total Heat Gain per person',$,IFCPOWERMEASURE(131.88198157749997),$);
#333=IFCPROPERTYSINGLEVALUE('Name',$,IFCTEXT('Stacks'),$);
#334=IFCPROPERTYSINGLEVALUE('Number',$,IFCTEXT('G03'),$);
#335=IFCPROPERTYSET('1CQsqOdmrmApM3ieSTbzUb',#18,'Other',$,(#126,#127));
#336=IFCPROPERTYSET('0D4k6J9mQE6Kiy$beVrYsQ',#18,'Constraints',$,(#128,#130,#131,#321));
#337=IFCPROPERTYSET('1nkCyHZFl0ZQywrnxzxDnA',#18,'Dimensions',$,(#133,#135,#322,#323,#324));
#338=IFCPROPERTYSET('1DJFg99vP4IWDyLHWoxVza',#18,'Energy Analysis',$,(#138,#145,#148,#149,#150,#152,#153,#154,#155,#157,#159,#325,#326,#327,#328,#329,#330,#331,#332));
#339=IFCPROPERTYSET('0ybCfoI$vor4YhkjHZ0YT5',#18,'Identity Data',$,(#333,#334));
#340=IFCPROPERTYSET('0Xfs4lmllVO2C7J4aasrBD',#18,'Phasing',$,(#164));
#341=IFCAXIS2PLACEMENT3D(#3,$,$);
#342=IFCLOCALPLACEMENT(#34,#341);
#343=IFCCARTESIANPOINT((0.,0.));
#344=IFCAXIS2PLACEMENT2D(#343,#11);
#345=IFCRECTANGLEPROFILEDEF(.AREA.,$,#344,3799.9999999999982,3799.9999999999995);
#346=IFCCARTESIANPOINT((16000.,2000.,0.));
#347=IFCAXIS2PLACEMENT3D(#346,$,$);
#348=IFCEXTRUDEDAREASOLID(#345,#347,#9,2438.4000000000001);
#349=IFCSHAPEREPRESENTATION(#24,'Body','SweptSolid',(#348));
#350=IFCPRODUCTDEFINITIONSHAPE($,$,(#349));
#351=IFCSPACE('1Fw1U7Jsb0cgufZmy9WTIh',#18,'G04',$,$,#342,#350,'Staff Office',.ELEMENT.,.NOTDEFINED.,$);
#352=IFCSPACETYPE('1Fw1U7Jsb0cgufXmy9WTIh',#18,'Staff Office G04:2810',$,$,$,$,'2810',$,.NOTDEFINED.,$);
#353=IFCCARTESIANPOINT((14100.,100.,0.));
#354=IFCCARTESIANPOINT((3800.,0.));
#355=IFCCARTESIANPOINT((3800.,3800.));
#356=IFCCARTESIANPOINT((0.,3800.));
#357=IFCPOLYLINE((#4,#354,#355,#356,#4));
#358=IFCAXIS2PLACEMENT3D(#353,#10,#7);
#359=IFCPLANE(#358);
#360=IFCCURVEBOUNDEDPLANE(#359,#357,$);
#361=IFCCONNECTIONSURFACEGEOMETRY(#360,$);
#362=IFCCARTESIANPOINT((14100.,100.));
#363=IFCCARTESIANPOINT((17900.,100.));
#364=IFCPOLYLINE((#362,#363));
#365=IFCARBITRARYOPENPROFILEDEF(.CURVE.,$,#364);
#366=IFCAXIS2PLACEMENT3D(#3,$,$);
#367=IFCSURFACEOFLINEAREXTRUSION(#365,#366,#9,2438.4000000000001);
#368=IFCCONNECTIONSURFACEGEOMETRY(#367,$);
#369=IFCCARTESIANPOINT((17900.,100.));
#370=IFCCARTESIANPOINT((17900.,3900.));
#371=IFCPOLYLINE((#369,#370));
#372=IFCARBITRARYOPENPROFILEDEF(.CURVE.,$,#371);
#373=IFCAXIS2PLACEMENT3D(#3,$,$);
#374=IFCSURFACEOFLINEAREXTRUSION(#372,#373,#9,2438.4000000000001);
#375=IFCCONNECTIONSURFACEGEOMETRY(#374,$);
#376=IFCCARTESIANPOINT((17900.,3900.));
#377=IFCCARTESIANPOINT((14100.,3900.));
#378=IFCPOLYLINE((#376,#377));
#379=IFCARBITRARYOPENPROFILEDEF(.CURVE.,$,#378);
#380=IFCAXIS2PLACEMENT3D(#3,$,$);
#381=IFCSURFACEOFLINEAREXTRUSION(#379,#380,#9,2438.4000000000001);
#382=IFCCONNECTIONSURFACEGEOMETRY(#381,$);
#383=IFCCARTESIANPOINT((14100.,3900.));
#384=IFCCARTESIANPOINT((14100.,100.));
#385=IFCPOLYLINE((#383,#384));
#386=IFCARBITRARYOPENPROFILEDEF(.CURVE.,$,#385);
#387=IFCAXIS2PLACEMENT3D(#3,$,$);
#388=IFCSURFACEOFLINEAREXTRUSION(#386,#387,#9,2438.4000000000001);
#389=IFCCONNECTIONSURFACEGEOMETRY(#388,$);
#390=IFCPROPERTYSINGLEVALUE('Name',$,IFCLABEL('Staff Office'),$);
#391=IFCPROPERTYSET('0EebuGgyypqWcHdxEwTU3m',#18,'Pset_AirSideSystemInformation',$,(#390));
#392=IFCPROPERTYSINGLEVALUE('Reference',$,IFCIDENTIFIER('Staff Office G04'),$);
#393=IFCPROPERTYSET('26qv$yq1QcxLdessCHBbLs',#18,'Pset_SpaceCommon',$,(#111,#392));
#394=IFCPROPERTYSET('3PHHG9xh8tioMUi2_vFRdc',#18,'Pset_SpaceHeaterTypeCommon',$,(#392));
#395=IFCRELDEFINESBYPROPERTIES('2jmKApinalIEZbZPXTkUP9',#18,$,$,(#351),#391);
#396=IFCRELDEFINESBYPROPERTIES('1VSYR1$a0Xtq_WexDhZlTt',#18,$,$,(#351),#393);
#397=IFCRELDEFINESBYPROPERTIES('3lQSHKDx3GSNLL8BYs6Pw1',#18,$,$,(#351),#394);
#398=IFCQUANTITYLENGTH('Height','',$,2438.4000000000001,$);
#399=IFCQUANTITYAREA('GrossFloorArea','',$,14.439999999999989,$);
#400=IFCQUANTITYAREA('NetFloorArea','',$,14.439999999999989,$);
#401=IFCQUANTITYAREA('GrossCeilingArea','',$,14.439999999999989,$);
#402=IFCQUANTITYVOLUME('GrossVolume','',$,35.210495999999978,$);
#403=IFCQUANTITYVOLUME('NetVolume','',$,35.210495999999985,$);
#404=IFCELEMENTQUANTITY('3KOw5H_tovwE_ao4vHbkhy',#18,'Qto_SpaceBaseQuantities',$,$,(#398,#399,#400,#401,#402,#403));
#405=IFCRELDEFINESBYPROPERTIES('0lz3n4FzBzmlnTuMtWJd1E',#18,$,$,(#351),#404);
#406=IFCPROPERTYSINGLEVALUE('Level',$,IFCTEXT('Ground Floor'),$);
#407=IFCPROPERTYSINGLEVALUE('Area',$,IFCAREAMEASURE(14.439999999999989),$);
#408=IFCPROPERTYSINGLEVALUE('Perimeter',$,IFCLENGTHMEASURE(15199.999999999996),$);
#409=IFCPROPERTYSINGLEVALUE('Volume',$,IFCVOLUMEMEASURE(35.210495999999985),$);
#410=IFCPROPERTYSINGLEVALUE('Actual Lighting Load per area',$,IFCREAL(0.),#143);
#411=IFCPROPERTYSINGLEVALUE('Actual Power Load per area',$,IFCREAL(0.),#143);
#412=IFCPROPERTYSINGLEVALUE('Area per Person',$,IFCAREAMEASURE(28.571428571428573),$);
#413=IFCPROPERTYSINGLEVALUE('Latent Heat Gain per person',$,IFCPOWERMEASURE(58.614214034444437),$);
#414=IFCPROPERTYSINGLEVALUE('Sensible Heat Gain per person',$,IFCPOWERMEASURE(73.267767543055555),$);
#415=IFCPROPERTYSINGLEVALUE('Specified Lighting Load per area',$,IFCREAL(10.763910416709722),#143);
#416=IFCPROPERTYSINGLEVALUE('Specified Power Load per area',$,IFCREAL(13.993083541722639),#143);
#417=IFCPROPERTYSINGLEVALUE('Total Heat Gain per person',$,IFCPOWERMEASURE(131.88198157749997),$);
#418=IFCPROPERTYSINGLEVALUE('Name',$,IFCTEXT('Staff Office'),$);
#419=IFCPROPERTYSINGLEVALUE('Number',$,IFCTEXT('G04'),$);
#420=IFCPROPERTYSET('2UPUlw4C0diEiTqN8hLzGc',#18,'Other',$,(#126,#127));
#421=IFCPROPERTYSET('1wXCbY9nQtvPVIHEJv2MTH',#18,'Constraints',$,(#128,#130,#131,#406));
#422=IFCPROPERTYSET('3KbElCB3kO3ebmHU6$Mwgx',#18,'Dimensions',$,(#133,#135,#407,#408,#409));
#423=IFCPROPERTYSET('1gsWk51QUEz6ex_pmvH_ie',#18,'Energy Analysis',$,(#138,#145,#148,#149,#150,#152,#153,#154,#155,#157,#159,#410,#411,#412,#413,#414,#415,#416,#417));
#424=IFCPROPERTYSET('16Da1WALmUzBc7jjko5Mlo',#18,'Identity Data',$,(#418,#419));
#425=IFCPROPERTYSET('2th_2kNRW37Cv6VI6xi1yG',#18,'Phasing',$,(#164));
#426=IFCAXIS2PLACEMENT3D(#3,$,$);
#427=IFCLOCALPLACEMENT(#34,#426);
#428=IFCCARTESIANPOINT((3.4106051316484809E-013,0.));
#429=IFCAXIS2PLACEMENT2D(#428,#11);
#430=IFCRECTANGLEPROFILEDEF(.AREA.,$,#429,3800.,3799.9999999999982);
#431=IFCCARTESIANPOINT((16000.,6000.,0.));
#432=IFCAXIS2PLACEMENT3D(#431,#9,#7);
#433=IFCEXTRUDEDAREASOLID(#430,#432,#9,2438.4000000000001);
#434=IFCSHAPEREPRESENTATION(#24,'Body','SweptSolid',(#433));
#435=IFCPRODUCTDEFINITIONSHAPE($,$,(#434));
#436=IFCSPACE('1Fw1U7Jsb0cgufZmy9WTIg',#18,'G05',$,$,#427,#435,'Restroom',.ELEMENT.,.NOTDEFINED.,$);
#437=IFCSPACETYPE('1Fw1U7Jsb0cgufXmy9WTIg',#18,'Restroom G05:2811',$,$,$,$,'2811',$,.NOTDEFINED.,$);
#438=IFCCARTESIANPOINT((17900.,4100.,0.));
#439=IFCCARTESIANPOINT((3800.,0.));
#440=IFCCARTESIANPOINT((3800.,3800.));
#441=IFCCARTESIANPOINT((0.,3800.));
#442=IFCPOLYLINE((#4,#439,#440,#441,#4));
#443=IFCAXIS2PLACEMENT3D(#438,#10,#6);
#444=IFCPLANE(#443);
#445=IFCCURVEBOUNDEDPLANE(#444,#442,$);
#446=IFCCONNECTIONSURFACEGEOMETRY(#445,$);
#447=IFCCARTESIANPOINT((17900.,4100.));
#448=IFCCARTESIANPOINT((17900.,7900.));
#449=IFCPOLYLINE((#447,#448));
#450=IFCARBITRARYOPENPROFILEDEF(.CURVE.,$,#449);
#451=IFCAXIS2PLACEMENT3D(#3,$,$);
#452=IFCSURFACEOFLINEAREXTRUSION(#450,#451,#9,2438.4000000000001);
#453=IFCCONNECTIONSURFACEGEOMETRY(#452,$);
#454=IFCCARTESIANPOINT((17900.,7900.));
#455=IFCCARTESIANPOINT((14100.,7900.));
#456=IFCPOLYLINE((#454,#455));
#457=IFCARBITRARYOPENPROFILEDEF(.CURVE.,$,#456);
#458=IFCAXIS2PLACEMENT3D(#3,$,$);
#459=IFCSURFACEOFLINEAREXTRUSION(#457,#458,#9,2438.4000000000001);
#460=IFCCONNECTIONSURFACEGEOMETRY(#459,$);
#461=IFCCARTESIANPOINT((14100.,7900.));
#462=IFCCARTESIANPOINT((14100.,4100.));
#463=IFCPOLYLINE((#461,#462));
#464=IFCARBITRARYOPENPROFILEDEF(.CURVE.,$,#463);
#465=IFCAXIS2PLACEMENT3D(#3,$,$);
#466=IFCSURFACEOFLINEAREXTRUSION(#464,#465,#9,2438.4000000000001);
#467=IFCCONNECTIONSURFACEGEOMETRY(#466,$);
#468=IFCCARTESIANPOINT((14100.,4100.));
#469=IFCCARTESIANPOINT((17900.,4100.));
#470=IFCPOLYLINE((#468,#469));
#471=IFCARBITRARYOPENPROFILEDEF(.CURVE.,$,#470);
#472=IFCAXIS2PLACEMENT3D(#3,$,$);
#473=IFCSURFACEOFLINEAREXTRUSION(#471,#472,#9,2438.4000000000001);
#474=IFCCONNECTIONSURFACEGEOMETRY(#473,$);
#475=IFCPROPERTYSINGLEVALUE('Name',$,IFCLABEL('Restroom'),$);
#476=IFCPROPERTYSET('2gn$oa_OOpJhEzuzSHVMJR',#18,'Pset_AirSideSystemInformation',$,(#475));
#477=IFCPROPERTYSINGLEVALUE('Reference',$,IFCIDENTIFIER('Restroom G05'),$);
#478=IFCPROPERTYSET('3Mgp6q8jTH1if7VUgutBvv',#18,'Pset_SpaceCommon',$,(#111,#477));
#479=IFCPROPERTYSET('37MM25DU3kHfGn2w7uLoiJ',#18,'Pset_SpaceHeaterTypeCommon',$,(#477));
#480=IFCRELDEFINESBYPROPERTIES('1_hWJpkZraBkCN7SyRUr7W',#18,$,$,(#436),#476);
#481=IFCRELDEFINESBYPROPERTIES('1QtmgyeCxO1td9XQh6s_JS',#18,$,$,(#436),#478);
#482=IFCRELDEFINESBYPROPERTIES('0SJC1Dt96H3rTLDANPp3c6',#18,$,$,(#436),#479);
#483=IFCQUANTITYLENGTH('Height','',$,2438.4000000000001,$);
#484=IFCQUANTITYAREA('GrossFloorArea','',$,14.439999999999996,$);
#485=IFCQUANTITYAREA('NetFloorArea','',$,14.439999999999996,$);
#486=IFCQUANTITYAREA('GrossCeilingArea','',$,14.439999999999996,$);
#487=IFCQUANTITYVOLUME('GrossVolume','',$,35.210495999999992,$);
#488=IFCQUANTITYVOLUME('NetVolume','',$,35.210495999999985,$);
#489=IFCELEMENTQUANTITY('1sITOupQ5vOHSkaJT0x5$q',#18,'Qto_SpaceBaseQuantities',$,$,(#483,#484,#485,#486,#487,#488));
#490=IFCRELDEFINESBYPROPERTIES('2SiLZ3Rt5Kc$zkzZBz0OwL',#18,$,$,(#436),#489);
#491=IFCPROPERTYSINGLEVALUE('Level',$,IFCTEXT('Ground Floor'),$);
#492=IFCPROPERTYSINGLEVALUE('Area',$,IFCAREAMEASURE(14.439999999999996),$);
#493=IFCPROPERTYSINGLEVALUE('Perimeter',$,IFCLENGTHMEASURE(15199.999999999996),$);
#494=IFCPROPERTYSINGLEVALUE('Volume',$,IFCVOLUMEMEASURE(35.210495999999985),$);
#495=IFCPROPERTYSINGLEVALUE('Actual Lighting Load per area',$,IFCREAL(0.),#143);
#496=IFCPROPERTYSINGLEVALUE('Actual Power Load per area',$,IFCREAL(0.),#143);
#497=IFCPROPERTYSINGLEVALUE('Area per Person',$,IFCAREAMEASURE(28.571428571428573),$);
#498=IFCPROPERTYSINGLEVALUE('Latent Heat Gain per person',$,IFCPOWERMEASURE(58.614214034444437),$);
#499=IFCPROPERTYSINGLEVALUE('Sensible Heat Gain per person',$,IFCPOWERMEASURE(73.267767543055555),$);
#500=IFCPROPERTYSINGLEVALUE('Specified Lighting Load per area',$,IFCREAL(10.763910416709722),#143);
#501=IFCPROPERTYSINGLEVALUE('Specified Power Load per area',$,IFCREAL(13.993083541722639),#143);
#502=IFCPROPERTYSINGLEVALUE('Total Heat Gain per person',$,IFCPOWERMEASURE(131.88198157749997),$);
#503=IFCPROPERTYSINGLEVALUE('Name',$,IFCTEXT('Restroom'),$);
#504=IFCPROPERTYSINGLEVALUE('Number',$,IFCTEXT('G05'),$);
#505=IFCPROPERTYSET('3jrr6gRXK2RJ0MG2J_sXIR',#18,'Other',$,(#126,#127));
#506=IFCPROPERTYSET('3UWZA2CQJZa4wudvjNWrq3',#18,'Constraints',$,(#128,#130,#131,#491));
#507=IFCPROPERTYSET('2lvCg0ODkbZbbO7tTaT_Hu',#18,'Dimensions',$,(#133,#135,#492,#493,#494));
#508=IFCPROPERTYSET('02RXh1hyTuqhmpK5zCM24U',#18,'Energy Analysis',$,(#138,#145,#148,#149,#150,#152,#153,#154,#155,#157,#159,#495,#496,#497,#498,#499,#500,#501,#502));
#509=IFCPROPERTYSET('3u5B47KoLNNMNr8uinYBAA',#18,'Identity Data',$,(#503,#504));
#510=IFCPROPERTYSET('03uPu2N3kkguDrx3r15$kK',#18,'Phasing',$,(#164));
#511=IFCCARTESIANPOINT((-100.,0.,0.));
#512=IFCAXIS2PLACEMENT3D(#511,$,$);
#513=IFCLOCALPLACEMENT(#34,#512);
#514=IFCCARTESIANPOINT((18200.,0.));
#515=IFCPOLYLINE((#4,#514));
#516=IFCSHAPEREPRESENTATION(#23,'Axis','Curve2D',(#515));
#517=IFCCARTESIANPOINT((9100.,0.));
#518=IFCAXIS2PLACEMENT2D(#517,#12);
#519=IFCRECTANGLEPROFILEDEF(.AREA.,$,#518,18200.,200.);
#520=IFCAXIS2PLACEMENT3D(#3,$,$);
#521=IFCEXTRUDEDAREASOLID(#519,#520,#9,3000.);
#522=IFCCOLOURRGB($,0.49803921568627452,0.49803921568627452,0.49803921568627452);
#523=IFCSURFACESTYLERENDERING(#522,0.,$,$,$,$,IFCNORMALISEDRATIOMEASURE(0.5),IFCSPECULAREXPONENT(64.),.NOTDEFINED.);
#524=IFCSURFACESTYLE('Default Wall',.BOTH.,(#523));
#525=IFCSTYLEDITEM(#521,(#524),$);
#526=IFCSHAPEREPRESENTATION(#24,'Body','SweptSolid',(#521));
#527=IFCPRODUCTDEFINITIONSHAPE($,$,(#516,#526));
#528=IFCWALL('1Fw1U7Jsb0cgufZmy9WTIm',#18,'Basic Wall:Wall 1:2785',$,'Basic Wall:Wall 1',#513,#527,'2785',.NOTDEFINED.);
#529=IFCQUANTITYLENGTH('Height',$,$,3000.,$);
#530=IFCQUANTITYLENGTH('Length',$,$,18200.,$);
#531=IFCQUANTITYLENGTH('Width',$,$,200.,$);
#532=IFCQUANTITYAREA('GrossFootprintArea',$,$,3.6400000000000001,$);
#533=IFCQUANTITYVOLUME('GrossVolume',$,$,10.92,$);
#534=IFCQUANTITYAREA('GrossSideArea',$,$,54.599999999999994,$);
#535=IFCQUANTITYAREA('NetSideArea',$,$,54.599999999999994,$);
#536=IFCQUANTITYVOLUME('NetVolume',$,$,10.92,$);
#537=IFCELEMENTQUANTITY('2bBBFMchAsmgtM_tsif5jO',#18,'Qto_WallBaseQuantities',$,$,(#529,#530,#531,#532,#533,#534,#535,#536));
#538=IFCRELDEFINESBYPROPERTIES('3hB00lZnhwZ$zjgdCYSJZZ',#18,$,$,(#528),#537);
#539=IFCMATERIAL('Default Wall',$,'Unassigned');
#540=IFCSTYLEDITEM($,(#524),$);
#541=IFCSTYLEDREPRESENTATION(#22,'Style','Material',(#540));
#542=IFCMATERIALDEFINITIONREPRESENTATION($,$,(#541),#539);
#543=IFCMATERIALLAYER(#539,200.,$,'Layer',$,'Unassigned',$);
#544=IFCMATERIALLAYERSET((#543),'Basic Wall:Wall 1',$);
#545=IFCMATERIALLAYERSETUSAGE(#544,.AXIS2.,.NEGATIVE.,100.,$);
#546=IFCWALLTYPE('1Fw1U7Jsb0cgufZmy9WTdl',#18,'Basic Wall:Wall 1',$,$,(#597,#598,#599,#600,#601,#602),$,'1982',$,.STANDARD.);
#547=IFCPROPERTYSINGLEVALUE('Reference',$,IFCIDENTIFIER('Wall 1'),$);
#548=IFCPROPERTYSET('18uLZRF$4XqbdszleCiCFg',#18,'Pset_EnvironmentalImpactIndicators',$,(#547));
#549=IFCPROPERTYSINGLEVALUE('Reference',$,IFCLABEL('Wall 1'),$);
#550=IFCPROPERTYSET('1LEKdFOBy_TYWpWi2U4VU3',#18,'Pset_ReinforcementBarPitchOfWall',$,(#549));
#551=IFCPROPERTYSINGLEVALUE('IsExternal',$,IFCBOOLEAN(.T.),$);
#552=IFCPROPERTYSINGLEVALUE('LoadBearing',$,IFCBOOLEAN(.F.),$);
#553=IFCPROPERTYSINGLEVALUE('ExtendToStructure',$,IFCBOOLEAN(.F.),$);
#554=IFCPROPERTYSET('2Zp9IJokg0iwJUHBkOxRCh',#18,'Pset_WallCommon',$,(#547,#551,#552,#553));
#555=IFCRELDEFINESBYPROPERTIES('3E_ID7yuPu$cm$P3Q6fis8',#18,$,$,(#528),#548);
#556=IFCRELDEFINESBYPROPERTIES('1_EvtR06YctoNqKgQGspOL',#18,$,$,(#528),#550);
#557=IFCRELDEFINESBYPROPERTIES('2USIFPNu2BznCa2tB5C4ak',#18,$,$,(#528),#554);
#558=IFCPROPERTYSINGLEVALUE('Category',$,IFCLABEL('Walls'),$);
#559=IFCPROPERTYSINGLEVALUE('Family',$,IFCLABEL('Basic Wall'),$);
#560=IFCPROPERTYSINGLEVALUE('Family and Type',$,IFCLABEL('Basic Wall: Wall 1'),$);
#561=IFCPROPERTYSINGLEVALUE('Type',$,IFCLABEL('Wall 1'),$);
#562=IFCPROPERTYSINGLEVALUE('Type Id',$,IFCLABEL('1982'),$);
#563=IFCPROPERTYSINGLEVALUE('Base Constraint',$,IFCLABEL('Ground Floor'),$);
#564=IFCPROPERTYSINGLEVALUE('Base Extension Distance',$,IFCLENGTHMEASURE(0.),$);
#565=IFCPROPERTYSINGLEVALUE('Base is Attached',$,IFCBOOLEAN(.F.),$);
#566=IFCPROPERTYSINGLEVALUE('Location Line',$,IFCIDENTIFIER('Wall Centerline'),$);
#567=IFCPROPERTYSINGLEVALUE('Related to Mass',$,IFCBOOLEAN(.F.),$);
#568=IFCPROPERTYSINGLEVALUE('Room Bounding',$,IFCBOOLEAN(.T.),$);
#569=IFCPROPERTYSINGLEVALUE('Top Extension Distance',$,IFCLENGTHMEASURE(0.),$);
#570=IFCPROPERTYSINGLEVALUE('Top is Attached',$,IFCBOOLEAN(.F.),$);
#571=IFCPROPERTYSINGLEVALUE('Top Offset',$,IFCLENGTHMEASURE(0.),$);
#572=IFCPROPERTYSINGLEVALUE('Unconnected Height',$,IFCLENGTHMEASURE(3000.),$);
#573=IFCPROPERTYSINGLEVALUE('Area',$,IFCAREAMEASURE(54.599999999999994),$);
#574=IFCPROPERTYSINGLEVALUE('Length',$,IFCLENGTHMEASURE(18000.),$);
#575=IFCPROPERTYSINGLEVALUE('Volume',$,IFCVOLUMEMEASURE(10.92),$);
#576=IFCPROPERTYSINGLEVALUE('Comments',$,IFCTEXT('perimeter 0 south'),$);
#577=IFCPROPERTYSINGLEVALUE('Phase Created',$,IFCLABEL('New Construction'),$);
#578=IFCPROPERTYSINGLEVALUE('Structural',$,IFCBOOLEAN(.F.),$);
#579=IFCPROPERTYSINGLEVALUE('Structural Usage',$,IFCIDENTIFIER('Non-bearing'),$);
#580=IFCPROPERTYSINGLEVALUE('Cross-Section',$,IFCIDENTIFIER('Vertical'),$);
#581=IFCPROPERTYSINGLEVALUE('Family Name',$,IFCTEXT('Basic Wall'),$);
#582=IFCPROPERTYSINGLEVALUE('Function',$,IFCIDENTIFIER('Exterior'),$);
#583=IFCPROPERTYSINGLEVALUE('Width',$,IFCLENGTHMEASURE(200.),$);
#584=IFCPROPERTYSINGLEVALUE('Wrapping at Ends',$,IFCIDENTIFIER('None'),$);
#585=IFCPROPERTYSINGLEVALUE('Wrapping at Inserts',$,IFCIDENTIFIER('Do not wrap'),$);
#586=IFCPROPERTYSINGLEVALUE('Coarse Scale Fill Color',$,IFCINTEGER(0),$);
#587=IFCPROPERTYSINGLEVALUE('Type Name',$,IFCTEXT('Wall 1'),$);
#588=IFCPROPERTYSINGLEVALUE('Absorptance',$,IFCREAL(0.10000000000000001),$);
#589=IFCPROPERTYSINGLEVALUE('Roughness',$,IFCINTEGER(1),$);
#590=IFCPROPERTYSET('295DuvHT1Ig8M2YvzNl$in',#18,'Other',$,(#558,#559,#560,#561,#562));
#591=IFCPROPERTYSET('0HTQyWVNIXrNdJaj8hDeb3',#18,'Constraints',$,(#128,#563,#564,#565,#566,#567,#568,#569,#570,#571,#572));
#592=IFCPROPERTYSET('38M19HqdY9eDw84xb1$XOZ',#18,'Dimensions',$,(#573,#574,#575));
#593=IFCPROPERTYSET('0RRMJIWqf0n$OVaKRu7Xbu',#18,'Identity Data',$,(#576));
#594=IFCPROPERTYSET('3Zhaey2S_CuhfTOO5y$vsS',#18,'Phasing',$,(#577));
#595=IFCPROPERTYSET('391HVjQWZbU_pkFxi3HZni',#18,'Structural',$,(#578,#579));
#596=IFCPROPERTYSET('3PfvRoyMw_eHcxMhf7$iZF',#18,'Cross-Section Definition',$,(#580));
#597=IFCPROPERTYSET('0HrYXO6$QJOvahY8VSXkkw',#18,'Other',$,(#558,#581));
#598=IFCPROPERTYSET('1IxIZnysUWPR8QQkF1m9UP',#18,'Construction',$,(#582,#583,#584,#585));
#599=IFCPROPERTYSET('2nh9Zg$5o_r9$GXxoCQEX0',#18,'Graphics',$,(#586));
#600=IFCPROPERTYSET('0MlAnkD8cjjAZdNI8hx7Nb',#18,'Identity Data',$,(#587));
#601=IFCPROPERTYSET('2I5jVb3eCSbCWJcPoG03ZF',#18,'Analytical Properties',$,(#588,#589));
#602=IFCPROPERTYSET('3OVk$aqxB8qM3voBVNr33p',#18,'Pset_WallCommon',$,(#551));
#603=IFCCARTESIANPOINT((18000.,100.,0.));
#604=IFCAXIS2PLACEMENT3D(#603,#9,#7);
#605=IFCLOCALPLACEMENT(#34,#604);
#606=IFCCARTESIANPOINT((8000.,0.));
#607=IFCPOLYLINE((#4,#606));
#608=IFCSHAPEREPRESENTATION(#23,'Axis','Curve2D',(#607));
#609=IFCCARTESIANPOINT((3999.9999999999995,0.));
#610=IFCAXIS2PLACEMENT2D(#609,#12);
#611=IFCRECTANGLEPROFILEDEF(.AREA.,$,#610,7999.9999999999991,200.00000000000219);
#612=IFCAXIS2PLACEMENT3D(#3,$,$);
#613=IFCEXTRUDEDAREASOLID(#611,#612,#9,3000.);
#614=IFCSTYLEDITEM(#613,(#524),$);
#615=IFCSHAPEREPRESENTATION(#24,'Body','SweptSolid',(#613));
#616=IFCPRODUCTDEFINITIONSHAPE($,$,(#608,#615));
#617=IFCWALL('1Fw1U7Jsb0cgufZmy9WTIp',#18,'Basic Wall:Wall 1:2786',$,'Basic Wall:Wall 1',#605,#616,'2786',.NOTDEFINED.);
#618=IFCQUANTITYLENGTH('Height',$,$,3000.,$);
#619=IFCQUANTITYLENGTH('Length',$,$,7999.9999999999991,$);
#620=IFCQUANTITYLENGTH('Width',$,$,200.,$);
#621=IFCQUANTITYAREA('GrossFootprintArea',$,$,1.6000000000000172,$);
#622=IFCQUANTITYVOLUME('GrossVolume',$,$,4.7999999999999998,$);
#623=IFCQUANTITYAREA('GrossSideArea',$,$,23.999999999999996,$);
#624=IFCQUANTITYAREA('NetSideArea',$,$,24.000000000000004,$);
#625=IFCQUANTITYVOLUME('NetVolume',$,$,4.8000000000000007,$);
#626=IFCELEMENTQUANTITY('2obk7e5P2XFYgmkNVzY$9Z',#18,'Qto_WallBaseQuantities',$,$,(#618,#619,#620,#621,#622,#623,#624,#625));
#627=IFCRELDEFINESBYPROPERTIES('3flNmTk2qDYbig4_1c1_NT',#18,$,$,(#617),#626);
#628=IFCMATERIALLAYERSETUSAGE(#544,.AXIS2.,.NEGATIVE.,100.,$);
#629=IFCPROPERTYSET('1LL6Aqd4dCHpbdDIQQbRLl',#18,'Pset_EnvironmentalImpactIndicators',$,(#547));
#630=IFCPROPERTYSINGLEVALUE('Reference',$,IFCLABEL('Wall 1'),$);
#631=IFCPROPERTYSET('0hmE9cJX1jwAydSvO7BY$U',#18,'Pset_ReinforcementBarPitchOfWall',$,(#630));
#632=IFCPROPERTYSET('3nngmXh8hXrHCiAzFrHz5z',#18,'Pset_WallCommon',$,(#547,#551,#552,#553));
#633=IFCRELDEFINESBYPROPERTIES('3fb5$BqytQOJkBPJoxIcix',#18,$,$,(#617),#629);
#634=IFCRELDEFINESBYPROPERTIES('0zKMii2rG2YwnHedxUJTpO',#18,$,$,(#617),#631);
#635=IFCRELDEFINESBYPROPERTIES('12ghQitBdi06Xs04VSyEoD',#18,$,$,(#617),#632);
#636=IFCPROPERTYSINGLEVALUE('Unconnected Height',$,IFCLENGTHMEASURE(3000.),$);
#637=IFCPROPERTYSINGLEVALUE('Area',$,IFCAREAMEASURE(24.),$);
#638=IFCPROPERTYSINGLEVALUE('Length',$,IFCLENGTHMEASURE(7999.9999999999991),$);
#639=IFCPROPERTYSINGLEVALUE('Volume',$,IFCVOLUMEMEASURE(4.8000000000000007),$);
#640=IFCPROPERTYSINGLEVALUE('Comments',$,IFCTEXT('perimeter 0 east'),$);
#641=IFCPROPERTYSET('200bvu1H5gVj9grnxuCL0r',#18,'Other',$,(#558,#559,#560,#561,#562));
#642=IFCPROPERTYSET('13vHyhWGRuJqr5bRvr2EwF',#18,'Constraints',$,(#128,#563,#564,#565,#566,#567,#568,#569,#570,#571,#636));
#643=IFCPROPERTYSET('0ehFIRXBhLQY4RutuZCpEN',#18,'Dimensions',$,(#637,#638,#639));
#644=IFCPROPERTYSET('0syERYaz78UwcGWcVaXnai',#18,'Identity Data',$,(#640));
#645=IFCPROPERTYSET('0In8dBW592GhGh0yy3OyyI',#18,'Phasing',$,(#577));
#646=IFCPROPERTYSET('0pAIhQEvitpE6H7Tfld$JE',#18,'Structural',$,(#578,#579));
#647=IFCPROPERTYSET('0SusKW6hlrunZJ9Nhwf5u3',#18,'Cross-Section Definition',$,(#580));
#648=IFCCARTESIANPOINT((17900.,8000.,0.));
#649=IFCAXIS2PLACEMENT3D(#648,#9,#6);
#650=IFCLOCALPLACEMENT(#34,#649);
#651=IFCCARTESIANPOINT((18000.,0.));
#652=IFCPOLYLINE((#4,#651));
#653=IFCSHAPEREPRESENTATION(#23,'Axis','Curve2D',(#652));
#654=IFCCARTESIANPOINT((9000.,0.));
#655=IFCAXIS2PLACEMENT2D(#654,#12);
#656=IFCRECTANGLEPROFILEDEF(.AREA.,$,#655,18000.,200.);
#657=IFCAXIS2PLACEMENT3D(#3,$,$);
#658=IFCEXTRUDEDAREASOLID(#656,#657,#9,3000.);
#659=IFCSTYLEDITEM(#658,(#524),$);
#660=IFCSHAPEREPRESENTATION(#24,'Body','SweptSolid',(#658));
#661=IFCPRODUCTDEFINITIONSHAPE($,$,(#653,#660));
#662=IFCWALL('1Fw1U7Jsb0cgufZmy9WTIo',#18,'Basic Wall:Wall 1:2787',$,'Basic Wall:Wall 1',#650,#661,'2787',.NOTDEFINED.);
#663=IFCQUANTITYLENGTH('Height',$,$,3000.,$);
#664=IFCQUANTITYLENGTH('Length',$,$,18000.,$);
#665=IFCQUANTITYLENGTH('Width',$,$,200.,$);
#666=IFCQUANTITYAREA('GrossFootprintArea',$,$,3.6000000000000001,$);
#667=IFCQUANTITYVOLUME('GrossVolume',$,$,10.800000000000002,$);
#668=IFCQUANTITYAREA('GrossSideArea',$,$,54.000000000000014,$);
#669=IFCQUANTITYAREA('NetSideArea',$,$,54.,$);
#670=IFCQUANTITYVOLUME('NetVolume',$,$,10.800000000000001,$);
#671=IFCELEMENTQUANTITY('18bPvq1XESVD2ivFoRZcUJ',#18,'Qto_WallBaseQuantities',$,$,(#663,#664,#665,#666,#667,#668,#669,#670));
#672=IFCRELDEFINESBYPROPERTIES('1yuXpEWuYmMiQnt0c8ExiV',#18,$,$,(#662),#671);
#673=IFCMATERIALLAYERSETUSAGE(#544,.AXIS2.,.NEGATIVE.,100.,$);
#674=IFCPROPERTYSET('1wAQxVnux65vt3Jevtrujx',#18,'Pset_EnvironmentalImpactIndicators',$,(#547));
#675=IFCPROPERTYSINGLEVALUE('Reference',$,IFCLABEL('Wall 1'),$);
#676=IFCPROPERTYSET('2oJYOy_5isvZErWZzuletj',#18,'Pset_ReinforcementBarPitchOfWall',$,(#675));
#677=IFCPROPERTYSET('3NVS2mpofxFU_k6dIHfbR6',#18,'Pset_WallCommon',$,(#547,#551,#552,#553));
#678=IFCRELDEFINESBYPROPERTIES('0t5Gr3m4F2qxe1H4oB3JDS',#18,$,$,(#662),#674);
#679=IFCRELDEFINESBYPROPERTIES('0Orzs9kPMWD9L$l4_Snwc5',#18,$,$,(#662),#676);
#680=IFCRELDEFINESBYPROPERTIES('1okSW0HA8SPy3omFhGfjVH',#18,$,$,(#662),#677);
#681=IFCPROPERTYSINGLEVALUE('Unconnected Height',$,IFCLENGTHMEASURE(3000.),$);
#682=IFCPROPERTYSINGLEVALUE('Area',$,IFCAREAMEASURE(54.),$);
#683=IFCPROPERTYSINGLEVALUE('Length',$,IFCLENGTHMEASURE(18000.),$);
#684=IFCPROPERTYSINGLEVALUE('Volume',$,IFCVOLUMEMEASURE(10.800000000000001),$);
#685=IFCPROPERTYSINGLEVALUE('Comments',$,IFCTEXT('perimeter 0 north'),$);
#686=IFCPROPERTYSET('1LBo5ivo0$5yuRNJ8GQXEV',#18,'Other',$,(#558,#559,#560,#561,#562));
#687=IFCPROPERTYSET('16FQ1dFMue_efDXs2SL2X8',#18,'Constraints',$,(#128,#563,#564,#565,#566,#567,#568,#569,#570,#571,#681));
#688=IFCPROPERTYSET('38ehItHazI$UAEROIsza$h',#18,'Dimensions',$,(#682,#683,#684));
#689=IFCPROPERTYSET('1ZRMPiCt0pfGibUAC23icY',#18,'Identity Data',$,(#685));
#690=IFCPROPERTYSET('2NB2rImB95GpBogsuTAE57',#18,'Phasing',$,(#577));
#691=IFCPROPERTYSET('1PU9NCvdL0GeaTXFl$jWZQ',#18,'Structural',$,(#578,#579));
#692=IFCPROPERTYSET('2MsID3BkXpK8H78eGiaMyN',#18,'Cross-Section Definition',$,(#580));
#693=IFCCARTESIANPOINT((0.,7900.,0.));
#694=IFCAXIS2PLACEMENT3D(#693,#9,#8);
#695=IFCLOCALPLACEMENT(#34,#694);
#696=IFCCARTESIANPOINT((7800.,0.));
#697=IFCPOLYLINE((#4,#696));
#698=IFCSHAPEREPRESENTATION(#23,'Axis','Curve2D',(#697));
#699=IFCCARTESIANPOINT((3899.9999999999995,0.));
#700=IFCAXIS2PLACEMENT2D(#699,#12);
#701=IFCRECTANGLEPROFILEDEF(.AREA.,$,#700,7799.9999999999991,200.);
#702=IFCAXIS2PLACEMENT3D(#3,$,$);
#703=IFCEXTRUDEDAREASOLID(#701,#702,#9,3000.);
#704=IFCSTYLEDITEM(#703,(#524),$);
#705=IFCSHAPEREPRESENTATION(#24,'Body','SweptSolid',(#703));
#706=IFCPRODUCTDEFINITIONSHAPE($,$,(#698,#705));
#707=IFCWALL('1Fw1U7Jsb0cgufZmy9WTIr',#18,'Basic Wall:Wall 1:2788',$,'Basic Wall:Wall 1',#695,#706,'2788',.NOTDEFINED.);
#708=IFCQUANTITYLENGTH('Height',$,$,3000.,$);
#709=IFCQUANTITYLENGTH('Length',$,$,7799.9999999999991,$);
#710=IFCQUANTITYLENGTH('Width',$,$,200.,$);
#711=IFCQUANTITYAREA('GrossFootprintArea',$,$,1.5600000000000001,$);
#712=IFCQUANTITYVOLUME('GrossVolume',$,$,4.6799999999999997,$);
#713=IFCQUANTITYAREA('GrossSideArea',$,$,23.399999999999999,$);
#714=IFCQUANTITYAREA('NetSideArea',$,$,23.399999999999999,$);
#715=IFCQUANTITYVOLUME('NetVolume',$,$,4.6800000000000086,$);
#716=IFCELEMENTQUANTITY('0StG5yO_H2JAHk4oFbnq__',#18,'Qto_WallBaseQuantities',$,$,(#708,#709,#710,#711,#712,#713,#714,#715));
#717=IFCRELDEFINESBYPROPERTIES('06$qYwGDSurY5aO2YcmRFd',#18,$,$,(#707),#716);
#718=IFCMATERIALLAYERSETUSAGE(#544,.AXIS2.,.NEGATIVE.,100.,$);
#719=IFCPROPERTYSET('1Rbnb6EnqAjIMhxRKmK9uF',#18,'Pset_EnvironmentalImpactIndicators',$,(#547));
#720=IFCPROPERTYSINGLEVALUE('Reference',$,IFCLABEL('Wall 1'),$);
#721=IFCPROPERTYSET('0J_cUyPkRvLln6RKP5gb9M',#18,'Pset_ReinforcementBarPitchOfWall',$,(#720));
#722=IFCPROPERTYSET('3FMrjoL64KVoHbN7Bqku3U',#18,'Pset_WallCommon',$,(#547,#551,#552,#553));
#723=IFCRELDEFINESBYPROPERTIES('0TAko1n9Tb$RrVbINbgoPv',#18,$,$,(#707),#719);
#724=IFCRELDEFINESBYPROPERTIES('3DorS0Yf$efw8hTMEs00C2',#18,$,$,(#707),#721);
#725=IFCRELDEFINESBYPROPERTIES('1$xle7qq5CqqQ93C5I3Ooz',#18,$,$,(#707),#722);
#726=IFCPROPERTYSINGLEVALUE('Unconnected Height',$,IFCLENGTHMEASURE(3000.),$);
#727=IFCPROPERTYSINGLEVALUE('Area',$,IFCAREAMEASURE(23.399999999999999),$);
#728=IFCPROPERTYSINGLEVALUE('Length',$,IFCLENGTHMEASURE(7999.9999999999991),$);
#729=IFCPROPERTYSINGLEVALUE('Volume',$,IFCVOLUMEMEASURE(4.6800000000000086),$);
#730=IFCPROPERTYSINGLEVALUE('Comments',$,IFCTEXT('perimeter 0 west'),$);
#731=IFCPROPERTYSET('3hF7jVix1jz3jD2o7a2DmB',#18,'Other',$,(#558,#559,#560,#561,#562));
#732=IFCPROPERTYSET('2geXV_mqp_mI7B3rFh9gdl',#18,'Constraints',$,(#128,#563,#564,#565,#566,#567,#568,#569,#570,#571,#726));
#733=IFCPROPERTYSET('1e6KLY_iMO4RjPGNuLOnw3',#18,'Dimensions',$,(#727,#728,#729));
#734=IFCPROPERTYSET('0wa3xZun1mCFOzp58fZSB1',#18,'Identity Data',$,(#730));
#735=IFCPROPERTYSET('2wb_hZo3$tuvICC5G8MAGH',#18,'Phasing',$,(#577));
#736=IFCPROPERTYSET('142zn4l6o3iciiUMpzp1Qr',#18,'Structural',$,(#578,#579));
#737=IFCPROPERTYSET('0edx3eHP1pl$WlL8PgjV4u',#18,'Cross-Section Definition',$,(#580));
#738=IFCCARTESIANPOINT((4000.,100.,0.));
#739=IFCAXIS2PLACEMENT3D(#738,#9,#7);
#740=IFCLOCALPLACEMENT(#34,#739);
#741=IFCCARTESIANPOINT((7800.,0.));
#742=IFCPOLYLINE((#4,#741));
#743=IFCSHAPEREPRESENTATION(#23,'Axis','Curve2D',(#742));
#744=IFCCARTESIANPOINT((3899.9999999999995,0.));
#745=IFCAXIS2PLACEMENT2D(#744,#12);
#746=IFCRECTANGLEPROFILEDEF(.AREA.,$,#745,7799.9999999999991,200.);
#747=IFCAXIS2PLACEMENT3D(#3,$,$);
#748=IFCEXTRUDEDAREASOLID(#746,#747,#9,3000.);
#749=IFCSTYLEDITEM(#748,(#524),$);
#750=IFCSHAPEREPRESENTATION(#24,'Body','SweptSolid',(#748));
#751=IFCPRODUCTDEFINITIONSHAPE($,$,(#743,#750));
#752=IFCWALL('1Fw1U7Jsb0cgufZmy9WTIq',#18,'Basic Wall:Wall 1:2789',$,'Basic Wall:Wall 1',#740,#751,'2789',.NOTDEFINED.);
#753=IFCQUANTITYLENGTH('Height',$,$,3000.,$);
#754=IFCQUANTITYLENGTH('Length',$,$,7799.9999999999991,$);
#755=IFCQUANTITYLENGTH('Width',$,$,200.,$);
#756=IFCQUANTITYAREA('GrossFootprintArea',$,$,1.5600000000000001,$);
#757=IFCQUANTITYVOLUME('GrossVolume',$,$,4.6799999999999997,$);
#758=IFCQUANTITYAREA('GrossSideArea',$,$,23.399999999999999,$);
#759=IFCQUANTITYAREA('NetSideArea',$,$,23.400000000000006,$);
#760=IFCQUANTITYVOLUME('NetVolume',$,$,4.6800000000000006,$);
#761=IFCELEMENTQUANTITY('3AM3br4G_S740fBGMpq_6K',#18,'Qto_WallBaseQuantities',$,$,(#753,#754,#755,#756,#757,#758,#759,#760));
#762=IFCRELDEFINESBYPROPERTIES('3ULpYAwSiK2lu7Ft_Y5kg1',#18,$,$,(#752),#761);
#763=IFCMATERIALLAYERSETUSAGE(#544,.AXIS2.,.NEGATIVE.,100.,$);
#764=IFCPROPERTYSET('0dHxwZrICx4B_RfnBFiSFn',#18,'Pset_EnvironmentalImpactIndicators',$,(#547));
#765=IFCPROPERTYSINGLEVALUE('Reference',$,IFCLABEL('Wall 1'),$);
#766=IFCPROPERTYSET('1LWRIPrHuVBxTOA_JDhI$p',#18,'Pset_ReinforcementBarPitchOfWall',$,(#765));
#767=IFCPROPERTYSET('2Ppc90QUkDB6dsYVg5MLbX',#18,'Pset_WallCommon',$,(#547,#551,#552,#553));
#768=IFCRELDEFINESBYPROPERTIES('0bQ8ZULNWE$cDpDLleIPFc',#18,$,$,(#752),#764);
#769=IFCRELDEFINESBYPROPERTIES('0y8NyhPo6gFHVpuQbdqQLv',#18,$,$,(#752),#766);
#770=IFCRELDEFINESBYPROPERTIES('0VObY10tUCiWsmYx9kHc2E',#18,$,$,(#752),#767);
#771=IFCPROPERTYSINGLEVALUE('Unconnected Height',$,IFCLENGTHMEASURE(3000.),$);
#772=IFCPROPERTYSINGLEVALUE('Area',$,IFCAREAMEASURE(23.400000000000006),$);
#773=IFCPROPERTYSINGLEVALUE('Length',$,IFCLENGTHMEASURE(7999.9999999999991),$);
#774=IFCPROPERTYSINGLEVALUE('Volume',$,IFCVOLUMEMEASURE(4.6800000000000006),$);
#775=IFCPROPERTYSINGLEVALUE('Comments',$,IFCTEXT('lobby screen'),$);
#776=IFCPROPERTYSET('3pvikM6mZY0LgjmOoMPYwq',#18,'Other',$,(#558,#559,#560,#561,#562));
#777=IFCPROPERTYSET('3UGy_kf7TMn9h2OfeJUdfz',#18,'Constraints',$,(#128,#563,#564,#565,#566,#567,#568,#569,#570,#571,#771));
#778=IFCPROPERTYSET('1TVCgZqSFyXf0sx0TeAj7B',#18,'Dimensions',$,(#772,#773,#774));
#779=IFCPROPERTYSET('1HPmggsn2aMOq3gcQw_91U',#18,'Identity Data',$,(#775));
#780=IFCPROPERTYSET('2J0w9CCXUz8oswz9voGZu7',#18,'Phasing',$,(#577));
#781=IFCPROPERTYSET('0jffJhTGjEIsCcgMQTHwQk',#18,'Structural',$,(#578,#579));
#782=IFCPROPERTYSET('1bWe1P24VHKc3$fgWLGalW',#18,'Cross-Section Definition',$,(#580));
#783=IFCCARTESIANPOINT((14000.,100.,0.));
#784=IFCAXIS2PLACEMENT3D(#783,#9,#7);
#785=IFCLOCALPLACEMENT(#34,#784);
#786=IFCCARTESIANPOINT((7800.,0.));
#787=IFCPOLYLINE((#4,#786));
#788=IFCSHAPEREPRESENTATION(#23,'Axis','Curve2D',(#787));
#789=IFCCARTESIANPOINT((3899.9999999999995,0.));
#790=IFCAXIS2PLACEMENT2D(#789,#12);
#791=IFCRECTANGLEPROFILEDEF(.AREA.,$,#790,7799.9999999999991,200.00000000000219);
#792=IFCAXIS2PLACEMENT3D(#3,$,$);
#793=IFCEXTRUDEDAREASOLID(#791,#792,#9,3000.);
#794=IFCSTYLEDITEM(#793,(#524),$);
#795=IFCSHAPEREPRESENTATION(#24,'Body','SweptSolid',(#793));
#796=IFCPRODUCTDEFINITIONSHAPE($,$,(#788,#795));
#797=IFCWALL('1Fw1U7Jsb0cgufZmy9WTIt',#18,'Basic Wall:Wall 1:2790',$,'Basic Wall:Wall 1',#785,#796,'2790',.NOTDEFINED.);
#798=IFCQUANTITYLENGTH('Height',$,$,3000.,$);
#799=IFCQUANTITYLENGTH('Length',$,$,7799.9999999999991,$);
#800=IFCQUANTITYLENGTH('Width',$,$,200.,$);
#801=IFCQUANTITYAREA('GrossFootprintArea',$,$,1.5600000000000169,$);
#802=IFCQUANTITYVOLUME('GrossVolume',$,$,4.6799999999999997,$);
#803=IFCQUANTITYAREA('GrossSideArea',$,$,23.399999999999999,$);
#804=IFCQUANTITYAREA('NetSideArea',$,$,23.400000000000006,$);
#805=IFCQUANTITYVOLUME('NetVolume',$,$,4.6800000000000006,$);
#806=IFCELEMENTQUANTITY('3xJK6esyfqIrbaNU8sOBEd',#18,'Qto_WallBaseQuantities',$,$,(#798,#799,#800,#801,#802,#803,#804,#805));
#807=IFCRELDEFINESBYPROPERTIES('1daEV6TRSUFBMHPTAwKCpM',#18,$,$,(#797),#806);
#808=IFCMATERIALLAYERSETUSAGE(#544,.AXIS2.,.NEGATIVE.,100.,$);
#809=IFCPROPERTYSET('3Hn4Z51bG2y_iZwducxJB_',#18,'Pset_EnvironmentalImpactIndicators',$,(#547));
#810=IFCPROPERTYSINGLEVALUE('Reference',$,IFCLABEL('Wall 1'),$);
#811=IFCPROPERTYSET('0Ov3q3nMHCXKDM0NMVgsJX',#18,'Pset_ReinforcementBarPitchOfWall',$,(#810));
#812=IFCPROPERTYSET('31P8tjziH_s3QJZtPxUizG',#18,'Pset_WallCommon',$,(#547,#551,#552,#553));
#813=IFCRELDEFINESBYPROPERTIES('2OwHrF1xA2mdpoopuKtWzA',#18,$,$,(#797),#809);
#814=IFCRELDEFINESBYPROPERTIES('3aHqd3Ek30qWGaUSssJanS',#18,$,$,(#797),#811);
#815=IFCRELDEFINESBYPROPERTIES('3U3hbvYG_Q8Zf0nMkI1Zhy',#18,$,$,(#797),#812);
#816=IFCPROPERTYSINGLEVALUE('Unconnected Height',$,IFCLENGTHMEASURE(3000.),$);
#817=IFCPROPERTYSINGLEVALUE('Area',$,IFCAREAMEASURE(23.400000000000006),$);
#818=IFCPROPERTYSINGLEVALUE('Length',$,IFCLENGTHMEASURE(7999.9999999999991),$);
#819=IFCPROPERTYSINGLEVALUE('Volume',$,IFCVOLUMEMEASURE(4.6800000000000006),$);
#820=IFCPROPERTYSINGLEVALUE('Comments',$,IFCTEXT('staff bay line'),$);
#821=IFCPROPERTYSET('2JLp5eGBCiyvnXuh$XqLf8',#18,'Other',$,(#558,#559,#560,#561,#562));
#822=IFCPROPERTYSET('1gmT5Sym_GDRJdf4xe4gXy',#18,'Constraints',$,(#128,#563,#564,#565,#566,#567,#568,#569,#570,#571,#816));
#823=IFCPROPERTYSET('05p_eVHwA$VXwEYb$Dqw2p',#18,'Dimensions',$,(#817,#818,#819));
#824=IFCPROPERTYSET('2omiSkgszarrojwfzcbE6C',#18,'Identity Data',$,(#820));
#825=IFCPROPERTYSET('0fxgHUh_kmm8F5CiMWsYZ4',#18,'Phasing',$,(#577));
#826=IFCPROPERTYSET('2U989pQfolg$7d8kQIsoIi',#18,'Structural',$,(#578,#579));
#827=IFCPROPERTYSET('26ytex_N7WbYgwN$kGVOdA',#18,'Cross-Section Definition',$,(#580));
#828=IFCCARTESIANPOINT((4100.,4000.,0.));
#829=IFCAXIS2PLACEMENT3D(#828,$,$);
#830=IFCLOCALPLACEMENT(#34,#829);
#831=IFCCARTESIANPOINT((9800.,0.));
#832=IFCPOLYLINE((#4,#831));
#833=IFCSHAPEREPRESENTATION(#23,'Axis','Curve2D',(#832));
#834=IFCCARTESIANPOINT((4899.9999999999991,0.));
#835=IFCAXIS2PLACEMENT2D(#834,#12);
#836=IFCRECTANGLEPROFILEDEF(.AREA.,$,#835,9799.9999999999982,200.);
#837=IFCAXIS2PLACEMENT3D(#3,$,$);
#838=IFCEXTRUDEDAREASOLID(#836,#837,#9,3000.);
#839=IFCSTYLEDITEM(#838,(#524),$);
#840=IFCSHAPEREPRESENTATION(#24,'Body','SweptSolid',(#838));
#841=IFCPRODUCTDEFINITIONSHAPE($,$,(#833,#840));
#842=IFCWALL('1Fw1U7Jsb0cgufZmy9WTIs',#18,'Basic Wall:Wall 1:2791',$,'Basic Wall:Wall 1',#830,#841,'2791',.NOTDEFINED.);
#843=IFCQUANTITYLENGTH('Height',$,$,3000.,$);
#844=IFCQUANTITYLENGTH('Length',$,$,9799.9999999999982,$);
#845=IFCQUANTITYLENGTH('Width',$,$,200.,$);
#846=IFCQUANTITYAREA('GrossFootprintArea',$,$,1.9599999999999997,$);
#847=IFCQUANTITYVOLUME('GrossVolume',$,$,5.8799999999999999,$);
#848=IFCQUANTITYAREA('GrossSideArea',$,$,29.399999999999999,$);
#849=IFCQUANTITYAREA('NetSideArea',$,$,29.399999999999999,$);
#850=IFCQUANTITYVOLUME('NetVolume',$,$,5.8799999999999999,$);
#851=IFCELEMENTQUANTITY('1Qw4Y$1SH8mfhbMz6em8KN',#18,'Qto_WallBaseQuantities',$,$,(#843,#844,#845,#846,#847,#848,#849,#850));
#852=IFCRELDEFINESBYPROPERTIES('3W1sKTRdVDv20GXxePf8_f',#18,$,$,(#842),#851);
#853=IFCMATERIALLAYERSETUSAGE(#544,.AXIS2.,.NEGATIVE.,100.,$);
#854=IFCPROPERTYSET('3jghxwaOMEDITs_6XymROp',#18,'Pset_EnvironmentalImpactIndicators',$,(#547));
#855=IFCPROPERTYSINGLEVALUE('Reference',$,IFCLABEL('Wall 1'),$);
#856=IFCPROPERTYSET('08OuV$NkE01E03_rW__sDE',#18,'Pset_ReinforcementBarPitchOfWall',$,(#855));
#857=IFCPROPERTYSET('2PKTnr0Ih072r_WOKjPCA$',#18,'Pset_WallCommon',$,(#547,#551,#552,#553));
#858=IFCRELDEFINESBYPROPERTIES('0iyzznpKyNXtZL31a6Yi3_',#18,$,$,(#842),#854);
#859=IFCRELDEFINESBYPROPERTIES('2XhcRaed9wg0UHqWvVMY_K',#18,$,$,(#842),#856);
#860=IFCRELDEFINESBYPROPERTIES('2xQcAISH218oPxak$3Me0n',#18,$,$,(#842),#857);
#861=IFCPROPERTYSINGLEVALUE('Unconnected Height',$,IFCLENGTHMEASURE(3000.),$);
#862=IFCPROPERTYSINGLEVALUE('Area',$,IFCAREAMEASURE(29.399999999999999),$);
#863=IFCPROPERTYSINGLEVALUE('Length',$,IFCLENGTHMEASURE(9999.9999999999982),$);
#864=IFCPROPERTYSINGLEVALUE('Volume',$,IFCVOLUMEMEASURE(5.8799999999999999),$);
#865=IFCPROPERTYSINGLEVALUE('Comments',$,IFCTEXT('reading stacks line'),$);
#866=IFCPROPERTYSET('0wmNIoAeH7wiIl4ypjjgZb',#18,'Other',$,(#558,#559,#560,#561,#562));
#867=IFCPROPERTYSET('2LdujTgOtrWFLF6n_8VQ38',#18,'Constraints',$,(#128,#563,#564,#565,#566,#567,#568,#569,#570,#571,#861));
#868=IFCPROPERTYSET('0UbHxUbr7$SH_2I3JZp_$W',#18,'Dimensions',$,(#862,#863,#864));
#869=IFCPROPERTYSET('2DAV0S27jvC8GIRbt7xpWH',#18,'Identity Data',$,(#865));
#870=IFCPROPERTYSET('3nv_PxBXBPtLCemT24CRc8',#18,'Phasing',$,(#577));
#871=IFCPROPERTYSET('0BCt2JbXJi73ZmTBjIhQA7',#18,'Structural',$,(#578,#579));
#872=IFCPROPERTYSET('3IeoXosVZhhyypj0RDdYic',#18,'Cross-Section Definition',$,(#580));
#873=IFCCARTESIANPOINT((14100.,4000.,0.));
#874=IFCAXIS2PLACEMENT3D(#873,$,$);
#875=IFCLOCALPLACEMENT(#34,#874);
#876=IFCCARTESIANPOINT((3800.,0.));
#877=IFCPOLYLINE((#4,#876));
#878=IFCSHAPEREPRESENTATION(#23,'Axis','Curve2D',(#877));
#879=IFCCARTESIANPOINT((1900.0000000000002,0.));
#880=IFCAXIS2PLACEMENT2D(#879,#12);
#881=IFCRECTANGLEPROFILEDEF(.AREA.,$,#880,3800.0000000000005,200.);
#882=IFCAXIS2PLACEMENT3D(#3,$,$);
#883=IFCEXTRUDEDAREASOLID(#881,#882,#9,3000.);
#884=IFCSTYLEDITEM(#883,(#524),$);
#885=IFCSHAPEREPRESENTATION(#24,'Body','SweptSolid',(#883));
#886=IFCPRODUCTDEFINITIONSHAPE($,$,(#878,#885));
#887=IFCWALL('1Fw1U7Jsb0cgufZmy9WTIv',#18,'Basic Wall:Wall 1:2792',$,'Basic Wall:Wall 1',#875,#886,'2792',.NOTDEFINED.);
#888=IFCQUANTITYLENGTH('Height',$,$,3000.,$);
#889=IFCQUANTITYLENGTH('Length',$,$,3800.0000000000005,$);
#890=IFCQUANTITYLENGTH('Width',$,$,200.,$);
#891=IFCQUANTITYAREA('GrossFootprintArea',$,$,0.76000000000000001,$);
#892=IFCQUANTITYVOLUME('GrossVolume',$,$,2.2800000000000002,$);
#893=IFCQUANTITYAREA('GrossSideArea',$,$,11.4,$);
#894=IFCQUANTITYAREA('NetSideArea',$,$,11.4,$);
#895=IFCQUANTITYVOLUME('NetVolume',$,$,2.2800000000000007,$);
#896=IFCELEMENTQUANTITY('3knOw01sRCLyqnC5uLvNPl',#18,'Qto_WallBaseQuantities',$,$,(#888,#889,#890,#891,#892,#893,#894,#895));
#897=IFCRELDEFINESBYPROPERTIES('3QiMJjrNzx8MCuv6NTfeW3',#18,$,$,(#887),#896);
#898=IFCMATERIALLAYERSETUSAGE(#544,.AXIS2.,.NEGATIVE.,100.,$);
#899=IFCPROPERTYSET('04HUF52TUlrwszMKscYoeM',#18,'Pset_EnvironmentalImpactIndicators',$,(#547));
#900=IFCPROPERTYSINGLEVALUE('Reference',$,IFCLABEL('Wall 1'),$);
#901=IFCPROPERTYSET('2R9VW162RCJL7ghxLx0ZRT',#18,'Pset_ReinforcementBarPitchOfWall',$,(#900));
#902=IFCPROPERTYSET('2njrqOvtlrxSXM_Qj5ENWA',#18,'Pset_WallCommon',$,(#547,#551,#552,#553));
#903=IFCRELDEFINESBYPROPERTIES('3ZCfDLbqiQv9MzdUKH5bUp',#18,$,$,(#887),#899);
#904=IFCRELDEFINESBYPROPERTIES('0UrIlBYTI9r1hYvJ5yFhfh',#18,$,$,(#887),#901);
#905=IFCRELDEFINESBYPROPERTIES('2Ouc7VCuN0ehctvxjs4qrR',#18,$,$,(#887),#902);
#906=IFCPROPERTYSINGLEVALUE('Unconnected Height',$,IFCLENGTHMEASURE(3000.),$);
#907=IFCPROPERTYSINGLEVALUE('Area',$,IFCAREAMEASURE(11.4),$);
#908=IFCPROPERTYSINGLEVALUE('Length',$,IFCLENGTHMEASURE(4000.0000000000005),$);
#909=IFCPROPERTYSINGLEVALUE('Volume',$,IFCVOLUMEMEASURE(2.2800000000000007),$);
#910=IFCPROPERTYSINGLEVALUE('Comments',$,IFCTEXT('staff restroom line'),$);
#911=IFCPROPERTYSET('26g0thGLR4KLjONvowNhxs',#18,'Other',$,(#558,#559,#560,#561,#562));
#912=IFCPROPERTYSET('1CDyEPG36RlN5z6FN4AXNZ',#18,'Constraints',$,(#128,#563,#564,#565,#566,#567,#568,#569,#570,#571,#906));
#913=IFCPROPERTYSET('3HBHAwDbkcO_AfTjHzvSFP',#18,'Dimensions',$,(#907,#908,#909));
#914=IFCPROPERTYSET('1CXiSHSoDW14gRr8J8xNyo',#18,'Identity Data',$,(#910));
#915=IFCPROPERTYSET('39F8MXnvh6$Na9kYTPuCMU',#18,'Phasing',$,(#577));
#916=IFCPROPERTYSET('01A6XoZLi$yeIXGzyxLqNK',#18,'Structural',$,(#578,#579));
#917=IFCPROPERTYSET('3FZFE3yZn4bPsgRLVaPLPD',#18,'Cross-Section Definition',$,(#580));
#918=IFCAXIS2PLACEMENT3D(#3,$,$);
#919=IFCLOCALPLACEMENT(#34,#918);
#920=IFCCARTESIANPOINT((0.,0.));
#921=IFCAXIS2PLACEMENT2D(#920,#11);
#922=IFCRECTANGLEPROFILEDEF(.AREA.,$,#921,7999.9999999999991,18000.);
#923=IFCCARTESIANPOINT((9000.,4000.,0.));
#924=IFCAXIS2PLACEMENT3D(#923,#10,#7);
#925=IFCEXTRUDEDAREASOLID(#922,#924,#9,299.99999999999994);
#926=IFCSHAPEREPRESENTATION(#24,'Body','SweptSolid',(#925));
#927=IFCCARTESIANPOINT((0.,8000.));
#928=IFCCARTESIANPOINT((18000.,8000.));
#929=IFCCARTESIANPOINT((18000.,0.));
#930=IFCPOLYLINE((#4,#927,#928,#929,#4));
#931=IFCSHAPEREPRESENTATION(#26,'FootPrint','Curve2D',(#930));
#932=IFCPRODUCTDEFINITIONSHAPE($,$,(#926,#931));
#933=IFCSLAB('1Fw1U7Jsb0cgufZmy9WTIw',#18,'Floor:Floor 1:2795',$,'Floor:Floor 1',#919,#932,'2795',.FLOOR.);
#934=IFCSLABTYPE('1Fw1U7Jsb0cgufZmy9WTcP',#18,'Floor:Floor 1',$,$,(#983,#984,#985,#986,#987,#988),$,'1992',$,.FLOOR.);
#935=IFCMATERIAL('<Unnamed>',$,$);
#936=IFCMATERIALLAYER(#935,299.99999999999994,$,'Layer',$,$,$);
#937=IFCMATERIALLAYERSET((#936),'Floor:Floor 1',$);
#938=IFCMATERIALLAYERSETUSAGE(#937,.AXIS3.,.POSITIVE.,0.,$);
#939=IFCPROPERTYSINGLEVALUE('Reference',$,IFCIDENTIFIER('Floor 1'),$);
#940=IFCPROPERTYSET('2l2ZwNOzQKzHC7dnygqCt3',#18,'Pset_EnvironmentalImpactIndicators',$,(#939));
#941=IFCPROPERTYSINGLEVALUE('Reference',$,IFCLABEL('Floor 1'),$);
#942=IFCPROPERTYSET('2_aEk41NtB9PdxmgiL5wzS',#18,'Pset_ReinforcementBarPitchOfSlab',$,(#941));
#943=IFCPROPERTYSINGLEVALUE('PitchAngle',$,IFCPLANEANGLEMEASURE(0.),$);
#944=IFCPROPERTYSET('0u010y3zUg_E1FNyFcF_Bf',#18,'Pset_SlabCommon',$,(#111,#552,#939,#943));
#945=IFCRELDEFINESBYPROPERTIES('3dM4azoXuVHnWeL4CcERyG',#18,$,$,(#933),#940);
#946=IFCRELDEFINESBYPROPERTIES('3i3iEW3y6d7__F7cveaSvW',#18,$,$,(#933),#942);
#947=IFCRELDEFINESBYPROPERTIES('0FqgLHBsAmB5byg5Wi7Q1s',#18,$,$,(#933),#944);
#948=IFCQUANTITYLENGTH('Width','',$,18000.,$);
#949=IFCQUANTITYLENGTH('Length','',$,7999.9999999999991,$);
#950=IFCQUANTITYLENGTH('Depth','',$,299.99999999999994,$);
#951=IFCQUANTITYLENGTH('Perimeter','',$,170.60367454068239,$);
#952=IFCQUANTITYAREA('GrossArea','',$,143.99999999999997,$);
#953=IFCQUANTITYAREA('NetArea','',$,143.99999999999997,$);
#954=IFCQUANTITYVOLUME('GrossVolume','',$,43.199999999999989,$);
#955=IFCQUANTITYVOLUME('NetVolume','',$,43.199999999999989,$);
#956=IFCELEMENTQUANTITY('19hPMvhfrOKI8Pp9J_TM9_',#18,'Qto_SlabBaseQuantities',$,$,(#948,#949,#950,#951,#952,#953,#954,#955));
#957=IFCRELDEFINESBYPROPERTIES('3Cjh67Xp6jwfzIhSEGRjPG',#18,$,$,(#933),#956);
#958=IFCPROPERTYSINGLEVALUE('Category',$,IFCLABEL('Floors'),$);
#959=IFCPROPERTYSINGLEVALUE('Family',$,IFCLABEL('Floor'),$);
#960=IFCPROPERTYSINGLEVALUE('Family and Type',$,IFCLABEL('Floor: Floor 1'),$);
#961=IFCPROPERTYSINGLEVALUE('Type',$,IFCLABEL('Floor 1'),$);
#962=IFCPROPERTYSINGLEVALUE('Type Id',$,IFCLABEL('1992'),$);
#963=IFCPROPERTYSINGLEVALUE('Height Offset From Level',$,IFCLENGTHMEASURE(0.),$);
#964=IFCPROPERTYSINGLEVALUE('Level',$,IFCLABEL('Ground Floor'),$);
#965=IFCPROPERTYSINGLEVALUE('Area',$,IFCAREAMEASURE(144.),$);
#966=IFCPROPERTYSINGLEVALUE('Elevation at Bottom',$,IFCLENGTHMEASURE(-299.99999999999994),$);
#967=IFCPROPERTYSINGLEVALUE('Elevation at Bottom Core',$,IFCLENGTHMEASURE(-299.99999999999994),$);
#968=IFCPROPERTYSINGLEVALUE('Elevation at Top',$,IFCLENGTHMEASURE(0.),$);
#969=IFCPROPERTYSINGLEVALUE('Elevation at Top Core',$,IFCLENGTHMEASURE(0.),$);
#970=IFCPROPERTYSINGLEVALUE('Perimeter',$,IFCLENGTHMEASURE(51999.999999999993),$);
#971=IFCPROPERTYSINGLEVALUE('Thickness',$,IFCLENGTHMEASURE(299.99999999999994),$);
#972=IFCPROPERTYSINGLEVALUE('Volume',$,IFCVOLUMEMEASURE(43.199999999999989),$);
#973=IFCPROPERTYSINGLEVALUE('Has Association',$,IFCBOOLEAN(.F.),$);
#974=IFCPROPERTYSINGLEVALUE('Family Name',$,IFCTEXT('Floor'),$);
#975=IFCPROPERTYSINGLEVALUE('Default Thickness',$,IFCLENGTHMEASURE(299.99999999999994),$);
#976=IFCPROPERTYSINGLEVALUE('Type Name',$,IFCTEXT('Floor 1'),$);
#977=IFCPROPERTYSET('1hSZmW_pEx$CX5hrqMk7Jf',#18,'Other',$,(#958,#959,#960,#961,#962));
#978=IFCPROPERTYSET('0I8Sss6gKGf2KObA1Zba5c',#18,'Constraints',$,(#567,#568,#963,#964));
#979=IFCPROPERTYSET('0u0WaEgl7UHtR78X5jYW3E',#18,'Dimensions',$,(#965,#966,#967,#968,#969,#970,#971,#972));
#980=IFCPROPERTYSET('0uU0TJRyRLeVei2hdO$VAS',#18,'Identity Data',$,(#973));
#981=IFCPROPERTYSET('1qwJO0VYAfPRdaL5RSVN92',#18,'Phasing',$,(#577));
#982=IFCPROPERTYSET('10PqjHbmgE60nh0S3TVPu$',#18,'Structural',$,(#578));
#983=IFCPROPERTYSET('2eMQ0BkqV1mIPMrjVDAw4v',#18,'Other',$,(#958,#974));
#984=IFCPROPERTYSET('1iWx1R_QF_FrZLOEjHpXrK',#18,'Construction',$,(#975));
#985=IFCPROPERTYSET('1rJX2$EtRlSMLPpwH$vYW3',#18,'Graphics',$,(#586));
#986=IFCPROPERTYSET('3rUwF$NtNM2Q7dgIOkrYH5',#18,'Identity Data',$,(#976));
#987=IFCPROPERTYSET('0NedGgqVlJw6p7yDg9aNG_',#18,'Analytical Properties',$,(#588,#589));
#988=IFCPROPERTYSET('0Hq13wEOiQpby2K4Y2VmMy',#18,'Pset_SlabCommon',$,(#111));
#989=IFCPROPERTYSINGLEVALUE('Reference',$,IFCIDENTIFIER('Level 1'),$);
#990=IFCPROPERTYSINGLEVALUE('AboveGround',$,IFCLOGICAL(.U.),$);
#991=IFCPROPERTYSET('3Ya$zWLGPQ6OXU8CaEecPS',#18,'Pset_BuildingStoreyCommon',$,(#989,#990));
#992=IFCRELDEFINESBYPROPERTIES('39ZGY3_mL6lf9lL6UzhVhs',#18,$,$,(#35),#991);
#993=IFCPROPERTYSINGLEVALUE('Category',$,IFCLABEL('Levels'),$);
#994=IFCPROPERTYSINGLEVALUE('Family',$,IFCLABEL('Level'),$);
#995=IFCPROPERTYSINGLEVALUE('Family and Type',$,IFCLABEL('Level: Level 1'),$);
#996=IFCPROPERTYSINGLEVALUE('Type',$,IFCLABEL('Level 1'),$);
#997=IFCPROPERTYSINGLEVALUE('Type Id',$,IFCLABEL('1945'),$);
#998=IFCPROPERTYSINGLEVALUE('Elevation',$,IFCLENGTHMEASURE(0.),$);
#999=IFCPROPERTYSINGLEVALUE('Building Story',$,IFCBOOLEAN(.T.),$);
#1000=IFCPROPERTYSINGLEVALUE('Name',$,IFCTEXT('Ground Floor'),$);
#1001=IFCPROPERTYSINGLEVALUE('Family Name',$,IFCTEXT('Level'),$);
#1002=IFCPROPERTYSINGLEVALUE('Elevation Base',$,IFCIDENTIFIER('Project Base Point'),$);
#1003=IFCPROPERTYSINGLEVALUE('Color',$,IFCINTEGER(0),$);
#1004=IFCPROPERTYSINGLEVALUE('Line Pattern',$,IFCLABEL('Solid'),$);
#1005=IFCPROPERTYSINGLEVALUE('Line Weight',$,IFCIDENTIFIER('1'),$);
#1006=IFCPROPERTYSINGLEVALUE('Symbol at End 1 Default',$,IFCBOOLEAN(.F.),$);
#1007=IFCPROPERTYSINGLEVALUE('Symbol at End 2 Default',$,IFCBOOLEAN(.T.),$);
#1008=IFCPROPERTYSINGLEVALUE('Type Name',$,IFCTEXT('Level 1'),$);
#1009=IFCPROPERTYSET('1R9wSe79R25oGlN_aMtDA$',#18,'Other',$,(#993,#994,#995,#996,#997));
#1010=IFCPROPERTYSET('099qBF6AtSCF7mbTYz$xg4',#18,'Constraints',$,(#998));
#1011=IFCPROPERTYSET('3dIRJGBDpHnnczJDSHT0Gb',#18,'Dimensions',$,(#133));
#1012=IFCPROPERTYSET('22vdRdSRK2hZggbgsL3QA7',#18,'Identity Data',$,(#578,#999,#1000));
#1013=IFCPROPERTYSET('02pBHhY6kGKI_EfgjiZm73',#18,'Other(Type)',$,(#993,#1001));
#1014=IFCPROPERTYSET('2NSn0hMMAGJHaILXrqdSQE',#18,'Constraints(Type)',$,(#1002));
#1015=IFCPROPERTYSET('2NhkPgP8FHwTLnBfZBq4Km',#18,'Graphics(Type)',$,(#1003,#1004,#1005,#1006,#1007));
#1016=IFCPROPERTYSET('2wkmJKZvs13x_jX$ZXnFzp',#18,'Identity Data(Type)',$,(#1008));
#1017=IFCRELCONTAINEDINSPATIALSTRUCTURE('1Fw1U7Jsb0cgufZmu9WTdE',#18,$,$,(#528,#617,#662,#707,#752,#797,#842,#887,#933),#35);
#1018=IFCRELAGGREGATES('1pazIMko8f7ovchMo6lFqx',#18,$,$,#27,(#38));
#1019=IFCRELAGGREGATES('2U80S2ckY6OAsH4tenEOij',#18,$,$,#38,(#32));
#1020=IFCRELAGGREGATES('1Fw1U7Jsb0cgufZmq9WTdE',#18,$,$,#35,(#61,#181,#266,#351,#436));
#1021=IFCRELAGGREGATES('1Fw1U7Jsb0cgufZmm9WTZ0',#18,$,$,#32,(#35));
#1022=IFCPROPERTYSINGLEVALUE('NumberOfStoreys',$,IFCINTEGER(1),$);
#1023=IFCPROPERTYSINGLEVALUE('IsLandmarked',$,IFCLOGICAL(.U.),$);
#1024=IFCPROPERTYSET('1sYHsI90MJQ$rt3A8IyUBy',#18,'Pset_BuildingCommon',$,(#39,#1022,#1023));
#1025=IFCPROPERTYSET('1tltph9im3szjHr8ph8pnN',#18,'Pset_BuildingElementProxyCommon',$,(#39,#111));
#1026=IFCPROPERTYSET('36S8C5OWhBPCt1ySDt7bnq',#18,'Pset_BuildingStoreyCommon',$,(#39,#990));
#1027=IFCPROPERTYSET('2OdTsyemCO$b8BaODmJ08j',#18,'Pset_BuildingSystemCommon',$,(#39));
#1028=IFCRELDEFINESBYPROPERTIES('2YwQ7KnDNwdrfF106TwcrJ',#18,$,$,(#32),#1024);
#1029=IFCRELDEFINESBYPROPERTIES('35BC4TWFnpXz_WJCVnCjNl',#18,$,$,(#32),#1025);
#1030=IFCRELDEFINESBYPROPERTIES('0kmVkql8jcP_FMnWzFMKeZ',#18,$,$,(#32),#1026);
#1031=IFCRELDEFINESBYPROPERTIES('3XKfK_mNhGpTJvkNy$$hDW',#18,$,$,(#32),#1027);
#1032=IFCRELASSOCIATESMATERIAL('3hYnm4Leps5hv38guYHr1s',#18,$,$,(#528),#545);
#1033=IFCRELASSOCIATESMATERIAL('1vtY_S3OnyWsEk5wU9PHM7',#18,$,$,(#617),#628);
#1034=IFCRELASSOCIATESMATERIAL('3471eOt0gHwVwoIuRQBl5w',#18,$,$,(#662),#673);
#1035=IFCRELASSOCIATESMATERIAL('3lIBEfSyyfag_em3tCc9nA',#18,$,$,(#707),#718);
#1036=IFCRELASSOCIATESMATERIAL('0b8f$qXYaQxNevq7T7tQ_j',#18,$,$,(#752),#763);
#1037=IFCRELASSOCIATESMATERIAL('2X6dDUoxb$4u2AG5LVjf2V',#18,$,$,(#797),#808);
#1038=IFCRELASSOCIATESMATERIAL('2B5DEyKReniQSLTfUlaH2t',#18,$,$,(#842),#853);
#1039=IFCRELASSOCIATESMATERIAL('1QuIsRBFcPQe50BnjHiHSh',#18,$,$,(#887),#898);
#1040=IFCRELASSOCIATESMATERIAL('1NKhrONzXbOUZEhL323f1q',#18,$,$,(#933),#938);
#1041=IFCRELASSOCIATESMATERIAL('1wpc4bwZk1Ks38yXA$YPpY',#18,$,$,(#546),#544);
#1042=IFCRELASSOCIATESMATERIAL('36fmCSe1rEEnV$SNrXm1bz',#18,$,$,(#934),#937);
#1043=IFCRELDEFINESBYTYPE('3fvs6kvjyZj0iweFv4itaA',#18,$,$,(#61),#62);
#1044=IFCRELDEFINESBYTYPE('1Jdr1hsoQY2bDf4$h$OJU1',#18,$,$,(#181),#182);
#1045=IFCRELDEFINESBYTYPE('2D1VdrCT6QKYqJQMhPsPPq',#18,$,$,(#266),#267);
#1046=IFCRELDEFINESBYTYPE('23KmkDKRJMNYi7$DIhycGF',#18,$,$,(#351),#352);
#1047=IFCRELDEFINESBYTYPE('1GlaQjhwWv8u1iitrnr8Mr',#18,$,$,(#436),#437);
#1048=IFCRELDEFINESBYTYPE('113UdVixrKGIPi_06Zf9VH',#18,$,$,(#528,#617,#662,#707,#752,#797,#842,#887),#546);
#1049=IFCRELDEFINESBYTYPE('1V0YstsdTiC5gDqZEZKgR2',#18,$,$,(#933),#934);
#1050=IFCRELDEFINESBYPROPERTIES('23pgjPuUsFIT3Xb14D58UD',#18,$,$,(#32,#38),#46);
#1051=IFCRELDEFINESBYPROPERTIES('30kDxTWElUS7Hd4wEMgICz',#18,$,$,(#35),#1009);
#1052=IFCRELDEFINESBYPROPERTIES('0OWS5e44BOZXxG9igPCCyW',#18,$,$,(#35),#1010);
#1053=IFCRELDEFINESBYPROPERTIES('1lKrfGtOaiTw$XprHb_7S$',#18,$,$,(#35),#1011);
#1054=IFCRELDEFINESBYPROPERTIES('18nkp6j6KvIZjgIV$T9396',#18,$,$,(#35),#1012);
#1055=IFCRELDEFINESBYPROPERTIES('1L0gt6OZHh7jPN5Ji_9lKB',#18,$,$,(#528),#590);
#1056=IFCRELDEFINESBYPROPERTIES('3OonJhw2gWlzHAdZwbLDnU',#18,$,$,(#528),#591);
#1057=IFCRELDEFINESBYPROPERTIES('3MNmdTUp5CBkb$BnjZzRa9',#18,$,$,(#528),#592);
#1058=IFCRELDEFINESBYPROPERTIES('3PYAGPtb7rcwFR9_saVKuE',#18,$,$,(#528),#593);
#1059=IFCRELDEFINESBYPROPERTIES('2bHlerCWdlN_jWkLJRel6d',#18,$,$,(#528),#594);
#1060=IFCRELDEFINESBYPROPERTIES('2H0$EnKynKDryRYcJVPaKR',#18,$,$,(#528),#595);
#1061=IFCRELDEFINESBYPROPERTIES('2O9ip7ASY2Qdaf$f$o3y04',#18,$,$,(#528),#596);
#1062=IFCRELDEFINESBYPROPERTIES('3q9aqi2KB33H0iMKachod0',#18,$,$,(#617),#641);
#1063=IFCRELDEFINESBYPROPERTIES('3Fhz5uEbVB8Y0VYx31zl_Q',#18,$,$,(#617),#642);
#1064=IFCRELDEFINESBYPROPERTIES('0ckk2lWjxpkF2P1pvKV7i3',#18,$,$,(#617),#643);
#1065=IFCRELDEFINESBYPROPERTIES('0EIcAJ1B21Wtxbs9Tcn23N',#18,$,$,(#617),#644);
#1066=IFCRELDEFINESBYPROPERTIES('2a$BaxMN51RdUaz82a3vVw',#18,$,$,(#617),#645);
#1067=IFCRELDEFINESBYPROPERTIES('2sRnRbBsQS7iuolpbCFNhJ',#18,$,$,(#617),#646);
#1068=IFCRELDEFINESBYPROPERTIES('3Un5CcP1Uf$Sv$c4cKFFjr',#18,$,$,(#617),#647);
#1069=IFCRELDEFINESBYPROPERTIES('2Zs21bQ7mHqhpY$Yp4oB7J',#18,$,$,(#662),#686);
#1070=IFCRELDEFINESBYPROPERTIES('1kKH8c$Uo0zWCua_v6yU0$',#18,$,$,(#662),#687);
#1071=IFCRELDEFINESBYPROPERTIES('1S96RpJ7ToRryoGKq7zGNp',#18,$,$,(#662),#688);
#1072=IFCRELDEFINESBYPROPERTIES('0ogWBRq8OuyEwiV_OVEGAB',#18,$,$,(#662),#689);
#1073=IFCRELDEFINESBYPROPERTIES('3aO902dNqR9jO4aq$kHYHz',#18,$,$,(#662),#690);
#1074=IFCRELDEFINESBYPROPERTIES('0bZtc77EsjAIWJgwy6zAQk',#18,$,$,(#662),#691);
#1075=IFCRELDEFINESBYPROPERTIES('3q8AhjQwnsyAizvpTXSa0_',#18,$,$,(#662),#692);
#1076=IFCRELDEFINESBYPROPERTIES('3nVULoOo4mbQPoHxZX$JzO',#18,$,$,(#707),#731);
#1077=IFCRELDEFINESBYPROPERTIES('0jBwKTjjVyO6eXdRtnFUXu',#18,$,$,(#707),#732);
#1078=IFCRELDEFINESBYPROPERTIES('069EIcKqixHbTJcUBODfFz',#18,$,$,(#707),#733);
#1079=IFCRELDEFINESBYPROPERTIES('3rS9OPGbWowLrX9m8cY5TO',#18,$,$,(#707),#734);
#1080=IFCRELDEFINESBYPROPERTIES('30MZlH9wI2ETTRWMwPyDSM',#18,$,$,(#707),#735);
#1081=IFCRELDEFINESBYPROPERTIES('2jVAEYVJPF5uazFGuRuW3Z',#18,$,$,(#707),#736);
#1082=IFCRELDEFINESBYPROPERTIES('3vSqOapAPDWyXjocIB6i3F',#18,$,$,(#707),#737);
#1083=IFCRELDEFINESBYPROPERTIES('1Z0uwMQyulzfNwFZS5WZhX',#18,$,$,(#752),#776);
#1084=IFCRELDEFINESBYPROPERTIES('265AcMgiRHRhpS5M151lU5',#18,$,$,(#752),#777);
#1085=IFCRELDEFINESBYPROPERTIES('1W79ynkPCwl8iSH5hw5Gwu',#18,$,$,(#752),#778);
#1086=IFCRELDEFINESBYPROPERTIES('0cnT2_WEK3ggdSnm0ObPDY',#18,$,$,(#752),#779);
#1087=IFCRELDEFINESBYPROPERTIES('21B_UDQE92DhjAW_S70Qu5',#18,$,$,(#752),#780);
#1088=IFCRELDEFINESBYPROPERTIES('2O9uaUvR84H_w4FZM3C9jY',#18,$,$,(#752),#781);
#1089=IFCRELDEFINESBYPROPERTIES('0ffF_XKnpcKRz0VUahGc7T',#18,$,$,(#752),#782);
#1090=IFCRELDEFINESBYPROPERTIES('3Tj8kFdy7IW3hBxq_OMJ0I',#18,$,$,(#797),#821);
#1091=IFCRELDEFINESBYPROPERTIES('1joCP6yF0Keo4HBenw9UPM',#18,$,$,(#797),#822);
#1092=IFCRELDEFINESBYPROPERTIES('3jck1OK_45FX0rgX4v3vb2',#18,$,$,(#797),#823);
#1093=IFCRELDEFINESBYPROPERTIES('0OMPePqu0x9mZzJH3mXO$L',#18,$,$,(#797),#824);
#1094=IFCRELDEFINESBYPROPERTIES('2oP5XwCtNHWhg2e_vQs5h3',#18,$,$,(#797),#825);
#1095=IFCRELDEFINESBYPROPERTIES('2Pp14tdFMBHGcDzCaq4Lih',#18,$,$,(#797),#826);
#1096=IFCRELDEFINESBYPROPERTIES('23tuPgqv67KCCT4yKVXcbn',#18,$,$,(#797),#827);
#1097=IFCRELDEFINESBYPROPERTIES('3Q9DcpSGRGTDnCPYR3H6GC',#18,$,$,(#842),#866);
#1098=IFCRELDEFINESBYPROPERTIES('30c4Fld2E79Ayd3iWOQT8e',#18,$,$,(#842),#867);
#1099=IFCRELDEFINESBYPROPERTIES('0_22H4MqKPBoqh3ipOrkyP',#18,$,$,(#842),#868);
#1100=IFCRELDEFINESBYPROPERTIES('3vZtuF$O0P5OM5xUAQxboR',#18,$,$,(#842),#869);
#1101=IFCRELDEFINESBYPROPERTIES('2Lp3ZuY3WGLuE2eRauWRji',#18,$,$,(#842),#870);
#1102=IFCRELDEFINESBYPROPERTIES('1ChvNtRbuz_CA2hLIOvZE_',#18,$,$,(#842),#871);
#1103=IFCRELDEFINESBYPROPERTIES('0RHaPojxFL2o5_hVdvMwwm',#18,$,$,(#842),#872);
#1104=IFCRELDEFINESBYPROPERTIES('3EBFoT1nJBQ0uXoPM0JH1u',#18,$,$,(#887),#911);
#1105=IFCRELDEFINESBYPROPERTIES('0iFeNcSVVvAXzKSJawPpfg',#18,$,$,(#887),#912);
#1106=IFCRELDEFINESBYPROPERTIES('20b6Psn68fjjpg3iygwH9F',#18,$,$,(#887),#913);
#1107=IFCRELDEFINESBYPROPERTIES('3j_imMcKNrS_MnIhoUmdkI',#18,$,$,(#887),#914);
#1108=IFCRELDEFINESBYPROPERTIES('20n7wO8r$52u80LHjRpgjo',#18,$,$,(#887),#915);
#1109=IFCRELDEFINESBYPROPERTIES('3JMJMtiCFT7XT0dDt060Ty',#18,$,$,(#887),#916);
#1110=IFCRELDEFINESBYPROPERTIES('3fPkp6bj9TY1T4_RWFpmJn',#18,$,$,(#887),#917);
#1111=IFCRELDEFINESBYPROPERTIES('3o3B2n4gPjIFtGHROWJD34',#18,$,$,(#933),#977);
#1112=IFCRELDEFINESBYPROPERTIES('0Xho7mvi7gp9gPvFeK7GF7',#18,$,$,(#933),#978);
#1113=IFCRELDEFINESBYPROPERTIES('2dfjReOEV2NfktTvKcsm_A',#18,$,$,(#933),#979);
#1114=IFCRELDEFINESBYPROPERTIES('2tr8PzYG5FyyLHR1zRYVqF',#18,$,$,(#933),#980);
#1115=IFCRELDEFINESBYPROPERTIES('0J_ee5O7X9WtK$BdON46t_',#18,$,$,(#933),#981);
#1116=IFCRELDEFINESBYPROPERTIES('1PIjodpz5fn233$dUjsPST',#18,$,$,(#933),#982);
#1117=IFCRELDEFINESBYPROPERTIES('3WU8u4cVs8nHT6pPtS5jsq',#18,$,$,(#61),#165);
#1118=IFCRELDEFINESBYPROPERTIES('2yCoyh1I2P6fP_9XSN4ifo',#18,$,$,(#61),#166);
#1119=IFCRELDEFINESBYPROPERTIES('2vii0Xo_fct1auFRyOIsA7',#18,$,$,(#61),#167);
#1120=IFCRELDEFINESBYPROPERTIES('2z8rLoiMIgeSSjBU$VcP0E',#18,$,$,(#61),#168);
#1121=IFCRELDEFINESBYPROPERTIES('0vX2omhfQDy5PrTyDBfbqg',#18,$,$,(#61),#169);
#1122=IFCRELDEFINESBYPROPERTIES('0fVbp5JSurkd4bIi8vBSu5',#18,$,$,(#61),#170);
#1123=IFCRELDEFINESBYPROPERTIES('3vfurqmhkdtRtqkyyAEgnA',#18,$,$,(#181),#250);
#1124=IFCRELDEFINESBYPROPERTIES('2Jp456e6kSXmhTtPnwnzUk',#18,$,$,(#181),#251);
#1125=IFCRELDEFINESBYPROPERTIES('0uQkAxgwcIJiEGofzRp2mP',#18,$,$,(#181),#252);
#1126=IFCRELDEFINESBYPROPERTIES('2BGveYwBKobzxqto96Fzc9',#18,$,$,(#181),#253);
#1127=IFCRELDEFINESBYPROPERTIES('0xeP0KRr23zfQ2_a3fr2zq',#18,$,$,(#181),#254);
#1128=IFCRELDEFINESBYPROPERTIES('3BeEvUQf5N6wPfwPb2HgC8',#18,$,$,(#181),#255);
#1129=IFCRELDEFINESBYPROPERTIES('0cTSpaYumzhlbyg0yoPxyX',#18,$,$,(#266),#335);
#1130=IFCRELDEFINESBYPROPERTIES('33bym_2ZoimaX7pG$jWKgC',#18,$,$,(#266),#336);
#1131=IFCRELDEFINESBYPROPERTIES('3O1Ua9FMhXxQBGZTZPOaGH',#18,$,$,(#266),#337);
#1132=IFCRELDEFINESBYPROPERTIES('2zbCh5KxHzgxu$0iW0BQ9J',#18,$,$,(#266),#338);
#1133=IFCRELDEFINESBYPROPERTIES('0EHfOjYnRkKBPnbZ1gym_K',#18,$,$,(#266),#339);
#1134=IFCRELDEFINESBYPROPERTIES('22AxaEmYsqr3OpSSQudCrw',#18,$,$,(#266),#340);
#1135=IFCRELDEFINESBYPROPERTIES('3CpZZgoXI_r93r$zAcvm0r',#18,$,$,(#351),#420);
#1136=IFCRELDEFINESBYPROPERTIES('0vOBCoHYP00LyiPzBq8oBE',#18,$,$,(#351),#421);
#1137=IFCRELDEFINESBYPROPERTIES('36OjIG8ge3NrjbSvP0gnvK',#18,$,$,(#351),#422);
#1138=IFCRELDEFINESBYPROPERTIES('1wqcEJs19yl5XYSmw0Ykip',#18,$,$,(#351),#423);
#1139=IFCRELDEFINESBYPROPERTIES('2yibOx8RRm$cIqEGaxhFzh',#18,$,$,(#351),#424);
#1140=IFCRELDEFINESBYPROPERTIES('3RlZk4XGcDytODd3x1S9MQ',#18,$,$,(#351),#425);
#1141=IFCRELDEFINESBYPROPERTIES('38r3F_oMQk$Js6rPdxAo8G',#18,$,$,(#436),#505);
#1142=IFCRELDEFINESBYPROPERTIES('0_XuYNM1OrjgKfobn$A8BZ',#18,$,$,(#436),#506);
#1143=IFCRELDEFINESBYPROPERTIES('3VMPZ8W1N3pwVnttNaMCfd',#18,$,$,(#436),#507);
#1144=IFCRELDEFINESBYPROPERTIES('3ArXTycF4us8HR7nTdcD3a',#18,$,$,(#436),#508);
#1145=IFCRELDEFINESBYPROPERTIES('2Y$dedkyDQRzdXlaGeoqhl',#18,$,$,(#436),#509);
#1146=IFCRELDEFINESBYPROPERTIES('1LFG2wGrbTp99uzRnskvHh',#18,$,$,(#436),#510);
#1147=IFCRELDEFINESBYPROPERTIES('2hVO57bCST4l4nmcS_Ropp',#18,$,$,(#35),#1013);
#1148=IFCRELDEFINESBYPROPERTIES('0alYUkysFw3O9YTYEH8LP8',#18,$,$,(#35),#1014);
#1149=IFCRELDEFINESBYPROPERTIES('2Zqw4dJ8nxFx1LuqWD0Qmh',#18,$,$,(#35),#1015);
#1150=IFCRELDEFINESBYPROPERTIES('3Y2Zc5Gs_PjM5Jeg0YISGS',#18,$,$,(#35),#1016);
#1151=IFCRELSPACEBOUNDARY('2Hm2$dS0TYaghVkGF5iQcl',#18,'1stLevel',$,#61,#933,#72,.PHYSICAL.,.INTERNAL.);
#1152=IFCRELSPACEBOUNDARY('06AZ5FrWypXVR3cjBE1eVx',#18,'1stLevel',$,#61,#528,#79,.PHYSICAL.,.EXTERNAL.);
#1153=IFCRELSPACEBOUNDARY('1qzpTd2A9cD_RrDI56MYvH',#18,'1stLevel',$,#61,#752,#86,.PHYSICAL.,.EXTERNAL.);
#1154=IFCRELSPACEBOUNDARY('2Jx3Ow7gh9a7Ycvsxr5ysZ',#18,'1stLevel',$,#61,#752,#93,.PHYSICAL.,.EXTERNAL.);
#1155=IFCRELSPACEBOUNDARY('0mt8EBl0flH_hU$WrQfGOZ',#18,'1stLevel',$,#61,#662,#100,.PHYSICAL.,.EXTERNAL.);
#1156=IFCRELSPACEBOUNDARY('28OG_vwDe_M$_cnIX1erNL',#18,'1stLevel',$,#61,#707,#107,.PHYSICAL.,.EXTERNAL.);
#1157=IFCRELSPACEBOUNDARY('0r_cuNv2geSOw7hJOnV9fO',#18,'1stLevel',$,#181,#933,#191,.PHYSICAL.,.INTERNAL.);
#1158=IFCRELSPACEBOUNDARY('0$mTCegXuRq8mojL7btMbU',#18,'1stLevel',$,#181,#528,#198,.PHYSICAL.,.EXTERNAL.);
#1159=IFCRELSPACEBOUNDARY('1Xv7IMqwgr8ysTLjPl_4GQ',#18,'1stLevel',$,#181,#797,#205,.PHYSICAL.,.EXTERNAL.);
#1160=IFCRELSPACEBOUNDARY('0s1SclCqOej6lSUrozm3Lc',#18,'1stLevel',$,#181,#842,#212,.PHYSICAL.,.EXTERNAL.);
#1161=IFCRELSPACEBOUNDARY('2nIBj0dKYxb2ujLZ3lpsdF',#18,'1stLevel',$,#181,#752,#219,.PHYSICAL.,.EXTERNAL.);
#1162=IFCRELSPACEBOUNDARY('22DF0wMFDaHOIoV_E_xfq4',#18,'1stLevel',$,#266,#933,#276,.PHYSICAL.,.INTERNAL.);
#1163=IFCRELSPACEBOUNDARY('2TsYjA7jWCZIO1e4zcmQ$e',#18,'1stLevel',$,#266,#662,#283,.PHYSICAL.,.EXTERNAL.);
#1164=IFCRELSPACEBOUNDARY('0b9v49hYoKzrKAUyFOUHWZ',#18,'1stLevel',$,#266,#752,#290,.PHYSICAL.,.EXTERNAL.);
#1165=IFCRELSPACEBOUNDARY('1trjaAYJFE7uNhpWF1HiC1',#18,'1stLevel',$,#266,#842,#297,.PHYSICAL.,.EXTERNAL.);
#1166=IFCRELSPACEBOUNDARY('3nJ14$Yu_GzA6_bG6nwj8y',#18,'1stLevel',$,#266,#797,#304,.PHYSICAL.,.EXTERNAL.);
#1167=IFCRELSPACEBOUNDARY('2Lcqnv8uo6vONEZXszCuKk',#18,'1stLevel',$,#351,#933,#361,.PHYSICAL.,.INTERNAL.);
#1168=IFCRELSPACEBOUNDARY('1PzUBpYjwStxgOmn0uWjcs',#18,'1stLevel',$,#351,#528,#368,.PHYSICAL.,.EXTERNAL.);
#1169=IFCRELSPACEBOUNDARY('0Te1xJbZOreX3TEqTfdh98',#18,'1stLevel',$,#351,#617,#375,.PHYSICAL.,.EXTERNAL.);
#1170=IFCRELSPACEBOUNDARY('3K3a2veb5MrWL4GjKMeezu',#18,'1stLevel',$,#351,#887,#382,.PHYSICAL.,.EXTERNAL.);
#1171=IFCRELSPACEBOUNDARY('2P97QUTZANML81ePiwre0O',#18,'1stLevel',$,#351,#797,#389,.PHYSICAL.,.EXTERNAL.);
#1172=IFCRELSPACEBOUNDARY('2QeL9ASkEE0TbXedwsaR0d',#18,'1stLevel',$,#436,#933,#446,.PHYSICAL.,.INTERNAL.);
#1173=IFCRELSPACEBOUNDARY('1FeoYWIpqM0OyluHnmt_dr',#18,'1stLevel',$,#436,#617,#453,.PHYSICAL.,.EXTERNAL.);
#1174=IFCRELSPACEBOUNDARY('3Erav99AKvuCNBA_jk81BS',#18,'1stLevel',$,#436,#662,#460,.PHYSICAL.,.EXTERNAL.);
#1175=IFCRELSPACEBOUNDARY('2WteBmJjGp8d4Kfg3dxoOU',#18,'1stLevel',$,#436,#797,#467,.PHYSICAL.,.EXTERNAL.);
#1176=IFCRELSPACEBOUNDARY('1q1QuulVeZO3eSgNWkYuNK',#18,'1stLevel',$,#436,#887,#474,.PHYSICAL.,.EXTERNAL.);
#1177=IFCRELCONNECTSPATHELEMENTS('0fNJLBFyJN0YJrOAxUMcEJ',#18,'1Fw1U7Jsb0cgufZmy9WTIm|1Fw1U7Jsb0cgufZmy9WTIr','Structural',$,#528,#707,(),(),.ATEND.,.ATSTART.);
#1178=IFCRELCONNECTSPATHELEMENTS('39DdtBMnGBXnCnjpEnCIAi',#18,'1Fw1U7Jsb0cgufZmy9WTIm|1Fw1U7Jsb0cgufZmy9WTIp','Structural',$,#528,#617,(),(),.ATSTART.,.ATEND.);
#1179=IFCRELCONNECTSPATHELEMENTS('1duZwdUtMkli3ATtzxvfC6',#18,'1Fw1U7Jsb0cgufZmy9WTIp|1Fw1U7Jsb0cgufZmy9WTIo','Structural',$,#617,#662,(),(),.ATSTART.,.ATEND.);
#1180=IFCRELCONNECTSPATHELEMENTS('0CN79y0WKsa1iP3TONzGjA',#18,'1Fw1U7Jsb0cgufZmy9WTIo|1Fw1U7Jsb0cgufZmy9WTIr','Structural',$,#662,#707,(),(),.ATSTART.,.ATEND.);
#1181=IFCRELCONNECTSPATHELEMENTS('38ZX49qTv5aSdGk4ZhkxtD',#18,'1Fw1U7Jsb0cgufZmy9WTIm|1Fw1U7Jsb0cgufZmy9WTIq','Structural',$,#528,#752,(),(),.ATSTART.,.ATPATH.);
#1182=IFCRELCONNECTSPATHELEMENTS('1xhXhtPX9vSKvrwqcms4dX',#18,'1Fw1U7Jsb0cgufZmy9WTIo|1Fw1U7Jsb0cgufZmy9WTIq','Structural',$,#662,#752,(),(),.ATEND.,.ATPATH.);
#1183=IFCRELCONNECTSPATHELEMENTS('2AqlRkj697abPrSbE5jRC8',#18,'1Fw1U7Jsb0cgufZmy9WTIm|1Fw1U7Jsb0cgufZmy9WTIt','Structural',$,#528,#797,(),(),.ATSTART.,.ATPATH.);
#1184=IFCRELCONNECTSPATHELEMENTS('1Ah5JT0ulFZpU7LOsiQ8pd',#18,'1Fw1U7Jsb0cgufZmy9WTIo|1Fw1U7Jsb0cgufZmy9WTIt','Structural',$,#662,#797,(),(),.ATEND.,.ATPATH.);
#1185=IFCRELCONNECTSPATHELEMENTS('1oYCt8qscitp3LYQE4TWB3',#18,'1Fw1U7Jsb0cgufZmy9WTIq|1Fw1U7Jsb0cgufZmy9WTIs','Structural',$,#752,#842,(),(),.ATSTART.,.ATPATH.);
#1186=IFCRELCONNECTSPATHELEMENTS('1wR2xoqFPa7tf2fqqONQao',#18,'1Fw1U7Jsb0cgufZmy9WTIt|1Fw1U7Jsb0cgufZmy9WTIs','Structural',$,#797,#842,(),(),.ATEND.,.ATPATH.);
#1187=IFCRELCONNECTSPATHELEMENTS('0Q2VrwtlrP7pybkn0PM0lr',#18,'1Fw1U7Jsb0cgufZmy9WTIt|1Fw1U7Jsb0cgufZmy9WTIv','Structural',$,#797,#887,(),(),.ATSTART.,.ATPATH.);
#1188=IFCRELCONNECTSPATHELEMENTS('3RmISye1ij$0_pAcuSOqW1',#18,'1Fw1U7Jsb0cgufZmy9WTIp|1Fw1U7Jsb0cgufZmy9WTIv','Structural',$,#617,#887,(),(),.ATEND.,.ATPATH.);
#1189=IFCPRESENTATIONLAYERASSIGNMENT('A-AREA',$,(#59,#179,#264,#349,#434),$);
#1190=IFCPRESENTATIONLAYERASSIGNMENT('A-WALL',$,(#516,#526,#608,#615,#653,#660,#698,#705,#743,#750,#788,#795,#833,#840,#878,#885),$);
#1191=IFCPRESENTATIONLAYERASSIGNMENT('A-FLOR',$,(#926),$);
#1192=IFCUNITASSIGNMENT((#19,#42,#58,#121,#137,#143));
ENDSEC;

END-ISO-10303-21;