# generated by make_answer.py
o Tail
v 0.000000 0.100000 0.000000
v 0.000000 0.086603 0.050000
v 0.000000 0.050000 0.086603
v 0.000000 0.000000 0.100000
v 0.000000 -0.050000 0.086603
v 0.000000 -0.086603 0.050000
v 0.000000 -0.100000 0.000000
v 0.000000 -0.086603 -0.050000
v 0.000000 -0.050000 -0.086603
v 0.000000 -0.000000 -0.100000
v 0.000000 0.050000 -0.086603
v 0.000000 0.086603 -0.050000
v 0.029753 0.099419 0.000000
v 0.030786 0.086297 0.049125
v 0.033607 0.050445 0.085087
v 0.037461 0.001472 0.098250
v 0.041316 -0.047502 0.085087
v 0.044137 -0.083353 0.049125
v 0.045170 -0.096475 0.000000
v 0.044137 -0.083353 -0.049125
v 0.041316 -0.047502 -0.085087
v 0.037461 0.001472 -0.098250
v 0.033607 0.050445 -0.085087
v 0.030786 0.086297 -0.049125
v 0.059596 0.101190 0.000000
v 0.061618 0.088421 0.048250
v 0.067144 0.053534 0.083571
v 0.074692 0.005878 0.096500
v 0.082240 -0.041778 0.083571
v 0.087765 -0.076664 0.048250
v 0.089788 -0.089434 0.000000
v 0.087765 -0.076664 -0.048250
v 0.082240 -0.041778 -0.083571
v 0.074692 0.005878 -0.096500
v 0.067144 0.053534 -0.083571
v 0.061618 0.088421 -0.048250
v 0.089343 0.105324 0.000000
v 0.092306 0.092981 0.047375
v 0.100402 0.059258 0.082056
v 0.111462 0.013192 0.094750
v 0.122521 -0.032874 0.082056
v 0.130618 -0.066596 0.047375
v 0.133581 -0.078940 0.000000
v 0.130618 -0.066596 -0.047375
v 0.122521 -0.032874 -0.082056
v 0.111462 0.013192 -0.094750
v 0.100402 0.059258 -0.082056
v 0.092306 0.092981 -0.047375
v 0.118806 0.111817 0.000000
v 0.122656 0.099967 0.046500
v 0.133175 0.067593 0.080540
v 0.147545 0.023369 0.093000
v 0.161914 -0.020855 0.080540
v 0.172433 -0.053230 0.046500
v 0.176283 -0.065079 0.000000
v 0.172433 -0.053230 -0.046500
v 0.161914 -0.020855 -0.080540
v 0.147545 0.023369 -0.093000
v 0.133175 0.067593 -0.080540
v 0.122656 0.099967 -0.046500
v 0.147798 0.120649 0.000000
v 0.152476 0.109354 0.045625
v 0.165258 0.078497 0.079025
v 0.182718 0.036345 0.091250
v 0.200178 -0.005807 0.079025
v 0.212959 -0.036665 0.045625
v 0.217638 -0.047959 0.000000
v 0.212959 -0.036665 -0.045625
v 0.200178 -0.005807 -0.079025
v 0.182718 0.036345 -0.091250
v 0.165258 0.078497 -0.079025
v 0.152476 0.109354 -0.045625
v 0.176132 0.131786 0.000000
v 0.181576 0.121102 0.044750
v 0.196448 0.091913 0.077509
v 0.216764 0.052041 0.089500
v 0.237081 0.012168 0.077509
v 0.251953 -0.017021 0.044750
v 0.257397 -0.027705 0.000000
v 0.251953 -0.017021 -0.044750
v 0.237081 0.012168 -0.077509
v 0.216764 0.052041 -0.089500
v 0.196448 0.091913 -0.077509
v 0.181576 0.121102 -0.044750
v 0.203625 0.145178 0.000000
v 0.209768 0.135154 0.043875
v 0.226550 0.107769 0.075994
v 0.249475 0.070359 0.087750
v 0.272399 0.032950 0.075994
v 0.289181 0.005564 0.043875
v 0.295324 -0.004460 0.000000
v 0.289181 0.005564 -0.043875
v 0.272399 0.032950 -0.075994
v 0.249475 0.070359 -0.087750
v 0.226550 0.107769 -0.075994
v 0.209768 0.135154 -0.043875
v 0.230097 0.160763 0.000000
v 0.236870 0.151442 0.043000
v 0.255372 0.125975 0.074478
v 0.280647 0.091188 0.086000
v 0.305922 0.056400 0.074478
v 0.324424 0.030934 0.043000
v 0.331196 0.021612 0.000000
v 0.324424 0.030934 -0.043000
v 0.305922 0.056400 -0.074478
v 0.280647 0.091188 -0.086000
v 0.255372 0.125975 -0.074478
v 0.236870 0.151442 -0.043000
v 0.255373 0.178462 0.000000
v 0.262703 0.169879 0.042125
v 0.282731 0.146430 0.072963
v 0.310089 0.114398 0.084250
v 0.337447 0.082366 0.072963
v 0.357474 0.058916 0.042125
v 0.364805 0.050334 0.000000
v 0.357474 0.058916 -0.042125
v 0.337447 0.082366 -0.072963
v 0.310089 0.114398 -0.084250
v 0.282731 0.146430 -0.072963
v 0.262703 0.169879 -0.042125
v 0.279282 0.198183 0.000000
v 0.287098 0.190367 0.041250
v 0.308450 0.169014 0.071447
v 0.337619 0.139846 0.082500
v 0.366787 0.110678 0.071447
v 0.388139 0.089325 0.041250
v 0.395955 0.081510 0.000000
v 0.388139 0.089325 -0.041250
v 0.366787 0.110678 -0.071447
v 0.337619 0.139846 -0.082500
v 0.308450 0.169014 -0.071447
v 0.287098 0.190367 -0.041250
v 0.301664 0.219819 0.000000
v 0.309891 0.212793 0.040375
v 0.332366 0.193598 0.069932
v 0.363067 0.167376 0.080750
v 0.393768 0.141155 0.069932
v 0.416243 0.121959 0.040375
v 0.424470 0.114933 0.000000
v 0.416243 0.121959 -0.040375
v 0.393768 0.141155 -0.069932
v 0.363067 0.167376 -0.080750
v 0.332366 0.193598 -0.069932
v 0.309891 0.212793 -0.040375
v 0.322365 0.243253 0.000000
v 0.330927 0.237032 0.039500
v 0.354321 0.220036 0.068416
v 0.386277 0.196818 0.079000
v 0.418233 0.173601 0.068416
v 0.441627 0.156604 0.039500
v 0.450190 0.150383 0.000000
v 0.441627 0.156604 -0.039500
v 0.418233 0.173601 -0.068416
v 0.386277 0.196818 -0.079000
v 0.354321 0.220036 -0.068416
v 0.330927 0.237032 -0.039500
v 0.341239 0.268353 0.000000
v 0.350064 0.262946 0.038625
v 0.374172 0.248172 0.066900
v 0.407106 0.227990 0.077250
v 0.440039 0.207809 0.066900
v 0.464148 0.193035 0.038625
v 0.472972 0.187627 0.000000
v 0.464148 0.193035 -0.038625
v 0.440039 0.207809 -0.066900
v 0.407106 0.227990 -0.077250
v 0.374172 0.248172 -0.066900
v 0.350064 0.262946 -0.038625
v 0.358153 0.294977 0.000000
v 0.367166 0.290384 0.037750
v 0.391789 0.277838 0.065385
v 0.425424 0.260700 0.075500
v 0.459060 0.243562 0.065385
v 0.483683 0.231016 0.037750
v 0.492695 0.226424 0.000000
v 0.483683 0.231016 -0.037750
v 0.459060 0.243562 -0.065385
v 0.425424 0.260700 -0.075500
v 0.391789 0.277838 -0.065385
v 0.367166 0.290384 -0.037750
v 0.372984 0.322970 0.000000
v 0.382112 0.319189 0.036875
v 0.407052 0.308858 0.063869
v 0.441120 0.294747 0.073750
v 0.475188 0.280635 0.063869
v 0.500128 0.270305 0.036875
v 0.509256 0.266524 0.000000
v 0.500128 0.270305 -0.036875
v 0.475188 0.280635 -0.063869
v 0.441120 0.294747 -0.073750
v 0.407052 0.308858 -0.063869
v 0.382112 0.319189 -0.036875
v 0.385620 0.352169 0.000000
v 0.394794 0.349188 0.036000
v 0.419858 0.341045 0.062354
v 0.454096 0.329920 0.072000
v 0.488334 0.318795 0.062354
v 0.513398 0.310652 0.036000
v 0.522572 0.307671 0.000000
v 0.513398 0.310652 -0.036000
v 0.488334 0.318795 -0.062354
v 0.454096 0.329920 -0.072000
v 0.419858 0.341045 -0.062354
v 0.394794 0.349188 -0.036000
v 0.395963 0.382402 0.000000
v 0.405115 0.380205 0.035125
v 0.430118 0.374203 0.060838
v 0.464272 0.366003 0.070250
v 0.498427 0.357803 0.060838
v 0.523430 0.351800 0.035125
v 0.532581 0.349603 0.000000
v 0.523430 0.351800 -0.035125
v 0.498427 0.357803 -0.060838
v 0.464272 0.366003 -0.070250
v 0.430118 0.374203 -0.060838
v 0.405115 0.380205 -0.035125
v 0.403930 0.413489 0.000000
v 0.412994 0.412053 0.034250
v 0.437758 0.408131 0.059323
v 0.471586 0.402773 0.068500
v 0.505415 0.397415 0.059323
v 0.530179 0.393493 0.034250
v 0.539243 0.392057 0.000000
v 0.530179 0.393493 -0.034250
v 0.505415 0.397415 -0.059323
v 0.471586 0.402773 -0.068500
v 0.437758 0.408131 -0.059323
v 0.412994 0.412053 -0.034250
v 0.409449 0.445241 0.000000
v 0.418364 0.444539 0.033375
v 0.442721 0.442622 0.057807
v 0.475993 0.440003 0.066750
v 0.509265 0.437385 0.057807
v 0.533622 0.435468 0.033375
v 0.542537 0.434766 0.000000
v 0.533622 0.435468 -0.033375
v 0.509265 0.437385 -0.057807
v 0.475993 0.440003 -0.066750
v 0.442721 0.442622 -0.057807
v 0.418364 0.444539 -0.033375
v 0.412465 0.477465 0.000000
v 0.421173 0.477465 0.032500
v 0.444965 0.477465 0.056292
v 0.477465 0.477465 0.065000
v 0.509965 0.477465 0.056292
v 0.533756 0.477465 0.032500
v 0.542465 0.477465 0.000000
v 0.533756 0.477465 -0.032500
v 0.509965 0.477465 -0.056292
v 0.477465 0.477465 -0.065000
v 0.444965 0.477465 -0.056292
v 0.421173 0.477465 -0.032500
v 0.412938 0.509964 0.000000
v 0.421386 0.510629 0.031625
v 0.444465 0.512445 0.054776
v 0.475993 0.514926 0.063250
v 0.507520 0.517408 0.054776
v 0.530600 0.519224 0.031625
v 0.539048 0.519889 0.000000
v 0.530600 0.519224 -0.031625
v 0.507520 0.517408 -0.054776
v 0.475993 0.514926 -0.063250
v 0.444465 0.512445 -0.054776
v 0.421386 0.510629 -0.031625
v 0.410844 0.542536 0.000000
v 0.418982 0.543825 0.030750
v 0.441215 0.547346 0.053261
v 0.471586 0.552157 0.061500
v 0.501958 0.556967 0.053261
v 0.524191 0.560489 0.030750
v 0.532329 0.561778 0.000000
v 0.524191 0.560489 -0.030750
v 0.501958 0.556967 -0.053261
v 0.471586 0.552157 -0.061500
v 0.441215 0.547346 -0.053261
v 0.418982 0.543825 -0.030750
v 0.406173 0.574978 0.000000
v 0.413957 0.576847 0.029875
v 0.435223 0.581953 0.051745
v 0.464272 0.588927 0.059750
v 0.493322 0.595901 0.051745
v 0.514588 0.601006 0.029875
v 0.522372 0.602875 0.000000
v 0.514588 0.601006 -0.029875
v 0.493322 0.595901 -0.051745
v 0.464272 0.588927 -0.059750
v 0.435223 0.581953 -0.051745
v 0.413957 0.576847 -0.029875
v 0.398935 0.607087 0.000000
v 0.406325 0.609488 0.029000
v 0.426515 0.616048 0.050229
v 0.454096 0.625010 0.058000
v 0.481677 0.633971 0.050229
v 0.501867 0.640531 0.029000
v 0.509257 0.642933 0.000000
v 0.501867 0.640531 -0.029000
v 0.481677 0.633971 -0.050229
v 0.454096 0.625010 -0.058000
v 0.426515 0.616048 -0.050229
v 0.406325 0.609488 -0.029000
v 0.389152 0.638657 0.000000
v 0.396114 0.641541 0.028125
v 0.415136 0.649420 0.048714
v 0.441120 0.660183 0.056250
v 0.467104 0.670946 0.048714
v 0.486126 0.678825 0.028125
v 0.493088 0.681709 0.000000
v 0.486126 0.678825 -0.028125
v 0.467104 0.670946 -0.048714
v 0.441120 0.660183 -0.056250
v 0.415136 0.649420 -0.048714
v 0.396114 0.641541 -0.028125
v 0.376864 0.669487 0.000000
v 0.383370 0.672802 0.027250
v 0.401144 0.681858 0.047198
v 0.425424 0.694229 0.054500
v 0.449704 0.706601 0.047198
v 0.467478 0.715657 0.027250
v 0.473984 0.718972 0.000000
v 0.467478 0.715657 -0.027250
v 0.449704 0.706601 -0.047198
v 0.425424 0.694229 -0.054500
v 0.401144 0.681858 -0.047198
v 0.383370 0.672802 -0.027250
v 0.362129 0.699378 0.000000
v 0.368155 0.703070 0.026375
v 0.384617 0.713159 0.045683
v 0.407106 0.726940 0.052750
v 0.429594 0.740720 0.045683
v 0.446057 0.750809 0.026375
v 0.452082 0.754501 0.000000
v 0.446057 0.750809 -0.026375
v 0.429594 0.740720 -0.045683
v 0.407106 0.726940 -0.052750
v 0.384617 0.713159 -0.045683
v 0.368155 0.703070 -0.026375
v 0.345017 0.728135 0.000000
v 0.350545 0.732151 0.025500
v 0.365647 0.743123 0.044167
v 0.386277 0.758112 0.051000
v 0.406907 0.773100 0.044167
v 0.422009 0.784072 0.025500
v 0.427537 0.788089 0.000000
v 0.422009 0.784072 -0.025500
v 0.406907 0.773100 -0.044167
v 0.386277 0.758112 -0.051000
v 0.365647 0.743123 -0.044167
v 0.350545 0.732151 -0.025500
v 0.325617 0.755568 0.000000
v 0.330634 0.759853 0.024625
v 0.344342 0.771561 0.042652
v 0.363067 0.787553 0.049250
v 0.381792 0.803546 0.042652
v 0.395500 0.815254 0.024625
v 0.400517 0.819539 0.000000
v 0.395500 0.815254 -0.024625
v 0.381792 0.803546 -0.042652
v 0.363067 0.787553 -0.049250
v 0.344342 0.771561 -0.042652
v 0.330634 0.759853 -0.024625
v 0.304031 0.781496 0.000000
v 0.308531 0.785996 0.023750
v 0.320825 0.798290 0.041136
v 0.337619 0.815083 0.047500
v 0.354412 0.831877 0.041136
v 0.366706 0.844171 0.023750
v 0.371206 0.848671 0.000000
v 0.366706 0.844171 -0.023750
v 0.354412 0.831877 -0.041136
v 0.337619 0.815083 -0.047500
v 0.320825 0.798290 -0.041136
v 0.308531 0.785996 -0.023750
v 0.280376 0.805743 0.000000
v 0.284357 0.810404 0.022875
v 0.295232 0.823138 0.039621
v 0.310089 0.840532 0.045750
v 0.324945 0.857926 0.039621
v 0.335820 0.870660 0.022875
v 0.339801 0.875321 0.000000
v 0.335820 0.870660 -0.022875
v 0.324945 0.857926 -0.039621
v 0.310089 0.840532 -0.045750
v 0.295232 0.823138 -0.039621
v 0.284357 0.810404 -0.022875
v 0.254784 0.828145 0.000000
v 0.258249 0.832914 0.022000
v 0.267716 0.845944 0.038105
v 0.280647 0.863742 0.044000
v 0.293578 0.881540 0.038105
v 0.303044 0.894570 0.022000
v 0.306509 0.899339 0.000000
v 0.303044 0.894570 -0.022000
v 0.293578 0.881540 -0.038105
v 0.280647 0.863742 -0.044000
v 0.267716 0.845944 -0.038105
v 0.258249 0.832914 -0.022000
v 0.227399 0.848546 0.000000
v 0.230357 0.853373 0.021125
v 0.238437 0.866558 0.036590
v 0.249475 0.884571 0.042250
v 0.260512 0.902583 0.036590
v 0.268593 0.915768 0.021125
v 0.271550 0.920595 0.000000
v 0.268593 0.915768 -0.021125
v 0.260512 0.902583 -0.036590
v 0.249475 0.884571 -0.042250
v 0.238437 0.866558 -0.036590
v 0.230357 0.853373 -0.021125
v 0.198378 0.866803 0.000000
v 0.200841 0.871638 0.020250
v 0.207571 0.884846 0.035074
v 0.216764 0.902889 0.040500
v 0.225958 0.920932 0.035074
v 0.232688 0.934140 0.020250
v 0.235151 0.938975 0.000000
v 0.232688 0.934140 -0.020250
v 0.225958 0.920932 -0.035074
v 0.216764 0.902889 -0.040500
v 0.207571 0.884846 -0.035074
v 0.200841 0.871638 -0.020250
v 0.167889 0.882784 0.000000
v 0.169876 0.887581 0.019375
v 0.175303 0.900685 0.033558
v 0.182718 0.918585 0.038750
v 0.190132 0.936485 0.033558
v 0.195560 0.949589 0.019375
v 0.197547 0.954385 0.000000
v 0.195560 0.949589 -0.019375
v 0.190132 0.936485 -0.033558
v 0.182718 0.918585 -0.038750
v 0.175303 0.900685 -0.033558
v 0.169876 0.887581 -0.019375
v 0.136111 0.896372 0.000000
v 0.137643 0.901086 0.018500
v 0.141828 0.913966 0.032043
v 0.147545 0.931561 0.037000
v 0.153262 0.949155 0.032043
v 0.157447 0.962036 0.018500
v 0.158978 0.966750 0.000000
v 0.157447 0.962036 -0.018500
v 0.153262 0.949155 -0.032043
v 0.147545 0.931561 -0.037000
v 0.141828 0.913966 -0.032043
v 0.137643 0.901086 -0.018500
v 0.103233 0.907461 0.000000
v 0.104335 0.912053 0.017625
v 0.107347 0.924599 0.030527
v 0.111462 0.941737 0.035250
v 0.115576 0.958875 0.030527
v 0.118588 0.971421 0.017625
v 0.119691 0.976013 0.000000
v 0.118588 0.971421 -0.017625
v 0.115576 0.958875 -0.030527
v 0.111462 0.941737 -0.035250
v 0.107347 0.924599 -0.030527
v 0.104335 0.912053 -0.017625
v 0.069451 0.915964 0.000000
v 0.070154 0.920397 0.016750
v 0.072072 0.932507 0.029012
v 0.074692 0.949051 0.033500
v 0.077312 0.965595 0.029012
v 0.079230 0.977706 0.016750
v 0.079933 0.982139 0.000000
v 0.079230 0.977706 -0.016750
v 0.077312 0.965595 -0.029012
v 0.074692 0.949051 -0.033500
v 0.072072 0.932507 -0.029012
v 0.070154 0.920397 -0.016750
v 0.034970 0.921806 0.000000
v 0.035304 0.926046 0.015875
v 0.036216 0.937632 0.027496
v 0.037461 0.953458 0.031750
v 0.038707 0.969284 0.027496
v 0.039619 0.980869 0.015875
v 0.039953 0.985110 0.000000
v 0.039619 0.980869 -0.015875
v 0.038707 0.969284 -0.027496
v 0.037461 0.953458 -0.031750
v 0.036216 0.937632 -0.027496
v 0.035304 0.926046 -0.015875
v 0.000000 0.924930 0.000000
v 0.000000 0.928949 0.015000
v 0.000000 0.939930 0.025981
v 0.000000 0.954930 0.030000
v 0.000000 0.969930 0.025981
v 0.000000 0.980910 0.015000
v 0.000000 0.984930 0.000000
v 0.000000 0.980910 -0.015000
v 0.000000 0.969930 -0.025981
v 0.000000 0.954930 -0.030000
v 0.000000 0.939930 -0.025981
v 0.000000 0.928949 -0.015000
v 0.000000 0.000000 0.000000
v 0.000000 0.954930 0.000000
g default
f 1 2 14 13
f 2 3 15 14
f 3 4 16 15
f 4 5 17 16
f 5 6 18 17
f 6 7 19 18
f 7 8 20 19
f 8 9 21 20
f 9 10 22 21
f 10 11 23 22
f 11 12 24 23
f 12 1 13 24
f 13 14 26 25
f 14 15 27 26
f 15 16 28 27
f 16 17 29 28
f 17 18 30 29
f 18 19 31 30
f 19 20 32 31
f 20 21 33 32
f 21 22 34 33
f 22 23 35 34
f 23 24 36 35
f 24 13 25 36
f 25 26 38 37
f 26 27 39 38
f 27 28 40 39
f 28 29 41 40
f 29 30 42 41
f 30 31 43 42
f 31 32 44 43
f 32 33 45 44
f 33 34 46 45
f 34 35 47 46
f 35 36 48 47
f 36 25 37 48
f 37 38 50 49
f 38 39 51 50
f 39 40 52 51
f 40 41 53 52
f 41 42 54 53
f 42 43 55 54
f 43 44 56 55
f 44 45 57 56
f 45 46 58 57
f 46 47 59 58
f 47 48 60 59
f 48 37 49 60
f 49 50 62 61
f 50 51 63 62
f 51 52 64 63
f 52 53 65 64
f 53 54 66 65
f 54 55 67 66
f 55 56 68 67
f 56 57 69 68
f 57 58 70 69
f 58 59 71 70
f 59 60 72 71
f 60 49 61 72
f 61 62 74 73
f 62 63 75 74
f 63 64 76 75
f 64 65 77 76
f 65 66 78 77
f 66 67 79 78
f 67 68 80 79
f 68 69 81 80
f 69 70 82 81
f 70 71 83 82
f 71 72 84 83
f 72 61 73 84
f 73 74 86 85
f 74 75 87 86
f 75 76 88 87
f 76 77 89 88
f 77 78 90 89
f 78 79 91 90
f 79 80 92 91
f 80 81 93 92
f 81 82 94 93
f 82 83 95 94
f 83 84 96 95
f 84 73 85 96
f 85 86 98 97
f 86 87 99 98
f 87 88 100 99
f 88 89 101 100
f 89 90 102 101
f 90 91 103 102
f 91 92 104 103
f 92 93 105 104
f 93 94 106 105
f 94 95 107 106
f 95 96 108 107
f 96 85 97 108
f 97 98 110 109
f 98 99 111 110
f 99 100 112 111
f 100 101 113 112
f 101 102 114 113
f 102 103 115 114
f 103 104 116 115
f 104 105 117 116
f 105 106 118 117
f 106 107 119 118
f 107 108 120 119
f 108 97 109 120
f 109 110 122 121
f 110 111 123 122
f 111 112 124 123
f 112 113 125 124
f 113 114 126 125
f 114 115 127 126
f 115 116 128 127
f 116 117 129 128
f 117 118 130 129
f 118 119 131 130
f 119 120 132 131
f 120 109 121 132
f 121 122 134 133
f 122 123 135 134
f 123 124 136 135
f 124 125 137 136
f 125 126 138 137
f 126 127 139 138
f 127 128 140 139
f 128 129 141 140
f 129 130 142 141
f 130 131 143 142
f 131 132 144 143
f 132 121 133 144
f 133 134 146 145
f 134 135 147 146
f 135 136 148 147
f 136 137 149 148
f 137 138 150 149
f 138 139 151 150
f 139 140 152 151
f 140 141 153 152
f 141 142 154 153
f 142 143 155 154
f 143 144 156 155
f 144 133 145 156
f 145 146 158 157
f 146 147 159 158
f 147 148 160 159
f 148 149 161 160
f 149 150 162 161
f 150 151 163 162
f 151 152 164 163
f 152 153 165 164
f 153 154 166 165
f 154 155 167 166
f 155 156 168 167
f 156 145 157 168
f 157 158 170 169
f 158 159 171 170
f 159 160 172 171
f 160 161 173 172
f 161 162 174 173
f 162 163 175 174
f 163 164 176 175
f 164 165 177 176
f 165 166 178 177
f 166 167 179 178
f 167 168 180 179
f 168 157 169 180
f 169 170 182 181
f 170 171 183 182
f 171 172 184 183
f 172 173 185 184
f 173 174 186 185
f 174 175 187 186
f 175 176 188 187
f 176 177 189 188
f 177 178 190 189
f 178 179 191 190
f 179 180 192 191
f 180 169 181 192
f 181 182 194 193
f 182 183 195 194
f 183 184 196 195
f 184 185 197 196
f 185 186 198 197
f 186 187 199 198
f 187 188 200 199
f 188 189 201 200
f 189 190 202 201
f 190 191 203 202
f 191 192 204 203
f 192 181 193 204
f 193 194 206 205
f 194 195 207 206
f 195 196 208 207
f 196 197 209 208
f 197 198 210 209
f 198 199 211 210
f 199 200 212 211
f 200 201 213 212
f 201 202 214 213
f 202 203 215 214
f 203 204 216 215
f 204 193 205 216
f 205 206 218 217
f 206 207 219 218
f 207 208 220 219
f 208 209 221 220
f 209 210 222 221
f 210 211 223 222
f 211 212 224 223
f 212 213 225 224
f 213 214 226 225
f 214 215 227 226
f 215 216 228 227
f 216 205 217 228
f 217 218 230 229
f 218 219 231 230
f 219 220 232 231
f 220 221 233 232
f 221 222 234 233
f 222 223 235 234
f 223 224 236 235
f 224 225 237 236
f 225 226 238 237
f 226 227 239 238
f 227 228 240 239
f 228 217 229 240
f 229 230 242 241
f 230 231 243 242
f 231 232 244 243
f 232 233 245 244
f 233 234 246 245
f 234 235 247 246
f 235 236 248 247
f 236 237 249 248
f 237 238 250 249
f 238 239 251 250
f 239 240 252 251
f 240 229 241 252
f 241 242 254 253
f 242 243 255 254
f 243 244 256 255
f 244 245 257 256
f 245 246 258 257
f 246 247 259 258
f 247 248 260 259
f 248 249 261 260
f 249 250 262 261
f 250 251 263 262
f 251 252 264 263
f 252 241 253 264
f 253 254 266 265
f 254 255 267 266
f 255 256 268 267
f 256 257 269 268
f 257 258 270 269
f 258 259 271 270
f 259 260 272 271
f 260 261 273 272
f 261 262 274 273
f 262 263 275 274
f 263 264 276 275
f 264 253 265 276
f 265 266 278 277
f 266 267 279 278
f 267 268 280 279
f 268 269 281 280
f 269 270 282 281
f 270 271 283 282
f 271 272 284 283
f 272 273 285 284
f 273 274 286 285
f 274 275 287 286
f 275 276 288 287
f 276 265 277 288
f 277 278 290 289
f 278 279 291 290
f 279 280 292 291
f 280 281 293 292
f 281 282 294 293
f 282 283 295 294
f 283 284 296 295
f 284 285 297 296
f 285 286 298 297
f 286 287 299 298
f 287 288 300 299
f 288 277 289 300
f 289 290 302 301
f 290 291 303 302
f 291 292 304 303
f 292 293 305 304
f 293 294 306 305
f 294 295 307 306
f 295 296 308 307
f 296 297 309 308
f 297 298 310 309
f 298 299 311 310
f 299 300 312 311
f 300 289 301 312
f 301 302 314 313
f 302 303 315 314
f 303 304 316 315
f 304 305 317 316
f 305 306 318 317
f 306 307 319 318
f 307 308 320 319
f 308 309 321 320
f 309 310 322 321
f 310 311 323 322
f 311 312 324 323
f 312 301 313 324
f 313 314 326 325
f 314 315 327 326
f 315 316 328 327
f 316 317 329 328
f 317 318 330 329
f 318 319 331 330
f 319 320 332 331
f 320 321 333 332
f 321 322 334 333
f 322 323 335 334
f 323 324 336 335
f 324 313 325 336
f 325 326 338 337
f 326 327 339 338
f 327 328 340 339
f 328 329 341 340
f 329 330 342 341
f 330 331 343 342
f 331 332 344 343
f 332 333 345 344
f 333 334 346 345
f 334 335 347 346
f 335 336 348 347
f 336 325 337 348
f 337 338 350 349
f 338 339 351 350
f 339 340 352 351
f 340 341 353 352
f 341 342 354 353
f 342 343 355 354
f 343 344 356 355
f 344 345 357 356
f 345 346 358 357
f 346 347 359 358
f 347 348 360 359
f 348 337 349 360
f 349 350 362 361
f 350 351 363 362
f 351 352 364 363
f 352 353 365 364
f 353 354 366 365
f 354 355 367 366
f 355 356 368 367
f 356 357 369 368
f 357 358 370 369
f 358 359 371 370
f 359 360 372 371
f 360 349 361 372
f 361 362 374 373
f 362 363 375 374
f 363 364 376 375
f 364 365 377 376
f 365 366 378 377
f 366 367 379 378
f 367 368 380 379
f 368 369 381 380
f 369 370 382 381
f 370 371 383 382
f 371 372 384 383
f 372 361 373 384
f 373 374 386 385
f 374 375 387 386
f 375 376 388 387
f 376 377 389 388
f 377 378 390 389
f 378 379 391 390
f 379 380 392 391
f 380 381 393 392
f 381 382 394 393
f 382 383 395 394
f 383 384 396 395
f 384 373 385 396
f 385 386 398 397
f 386 387 399 398
f 387 388 400 399
f 388 389 401 400
f 389 390 402 401
f 390 391 403 402
f 391 392 404 403
f 392 393 405 404
f 393 394 406 405
f 394 395 407 406
f 395 396 408 407
f 396 385 397 408
f 397 398 410 409
f 398 399 411 410
f 399 400 412 411
f 400 401 413 412
f 401 402 414 413
f 402 403 415 414
f 403 404 416 415
f 404 405 417 416
f 405 406 418 417
f 406 407 419 418
f 407 408 420 419
f 408 397 409 420
f 409 410 422 421
f 410 411 423 422
f 411 412 424 423
f 412 413 425 424
f 413 414 426 425
f 414 415 427 426
f 415 416 428 427
f 416 417 429 428
f 417 418 430 429
f 418 419 431 430
f 419 420 432 431
f 420 409 421 432
f 421 422 434 433
f 422 423 435 434
f 423 424 436 435
f 424 425 437 436
f 425 426 438 437
f 426 427 439 438
f 427 428 440 439
f 428 429 441 440
f 429 430 442 441
f 430 431 443 442
f 431 432 444 443
f 432 421 433 444
f 433 434 446 445
f 434 435 447 446
f 435 436 448 447
f 436 437 449 448
f 437 438 450 449
f 438 439 451 450
f 439 440 452 451
f 440 441 453 452
f 441 442 454 453
f 442 443 455 454
f 443 444 456 455
f 444 433 445 456
f 445 446 458 457
f 446 447 459 458
f 447 448 460 459
f 448 449 461 460
f 449 450 462 461
f 450 451 463 462
f 451 452 464 463
f 452 453 465 464
f 453 454 466 465
f 454 455 467 466
f 455 456 468 467
f 456 445 457 468
f 457 458 470 469
f 458 459 471 470
f 459 460 472 471
f 460 461 473 472
f 461 462 474 473
f 462 463 475 474
f 463 464 476 475
f 464 465 477 476
f 465 466 478 477
f 466 467 479 478
f 467 468 480 479
f 468 457 469 480
f 469 470 482 481
f 470 471 483 482
f 471 472 484 483
f 472 473 485 484
f 473 474 486 485
f 474 475 487 486
f 475 476 488 487
f 476 477 489 488
f 477 478 490 489
f 478 479 491 490
f 479 480 492 491
f 480 469 481 492
f 493 2 1
f 493 3 2
f 493 4 3
f 493 5 4
f 493 6 5
f 493 7 6
f 493 8 7
f 493 9 8
f 493 10 9
f 493 11 10
f 493 12 11
f 493 1 12
f 494 481 482
f 494 482 483
f 494 483 484
f 494 484 485
f 494 485 486
f 494 486 487
f 494 487 488
f 494 488 489
f 494 489 490
f 494 490 491
f 494 491 492
f 494 492 481
