ISO-10303-21;
HEADER;
FILE_DESCRIPTION(('ViewDefinition[DesignTransferView]'),'2;1');
FILE_NAME('/dev/null','2026-04-21T15:48:04+00:00',(''),(''),'IfcOpenShell 0.8.5','IfcOpenShell 0.8.5','Nobody');
FILE_SCHEMA(('IFC4'));
ENDSEC;
DATA;
#1=IFCPROJECT('1fqNBsAxf8uRBPg$atk6ba',$,'v15_answer',$,$,$,$,(#10),#5);
#2=IFCSIUNIT(*,.LENGTHUNIT.,.MILLI.,.METRE.);
#3=IFCSIUNIT(*,.AREAUNIT.,$,.SQUARE_METRE.);
#4=IFCSIUNIT(*,.VOLUMEUNIT.,$,.CUBIC_METRE.);
#5=IFCUNITASSIGNMENT((#4,#2,#3));
#6=IFCCARTESIANPOINT((0.,0.,0.));
#7=IFCDIRECTION((0.,0.,1.));
#8=IFCDIRECTION((1.,0.,0.));
#9=IFCAXIS2PLACEMENT3D(#6,#7,#8);
#10=IFCGEOMETRICREPRESENTATIONCONTEXT($,'Model',3,1.0000000000000001E-05,#9,$);
#11=IFCGEOMETRICREPRESENTATIONSUBCONTEXT('Body','Model',*,*,*,*,#10,$,.MODEL_VIEW.,$);
#12=IFCSITE('32jTAUvbH9DedhO2MkWftV',$,'Site',$,$,$,$,$,$,$,$,$,$,$);
#13=IFCBUILDING('3$sf6Bavf4hxHDDBryMjSI',$,'v15_answer',$,$,$,$,$,$,$,$,$);
#14=IFCRELAGGREGATES('3ZjILraJTBPeDe9RITjJlS',$,$,$,#1,(#12));
#15=IFCRELAGGREGATES('1wGk8z215Ayh__zmOuPbkc',$,$,$,#12,(#13));
#16=IFCBUILDINGSTOREY('0F_2H_m2D42RdF5hsZ20rq',$,'Level 1',$,$,#27,$,$,$,$);
#22=IFCRELAGGREGATES('1$PTzSJrn8xB6$sVGOSk$3',$,$,$,#13,(#16,#28));
#23=IFCCARTESIANPOINT((0.,0.,0.));
#24=IFCDIRECTION((0.,0.,1.));
#25=IFCDIRECTION((1.,0.,0.));
#26=IFCAXIS2PLACEMENT3D(#23,#24,#25);
#27=IFCLOCALPLACEMENT($,#26);
#28=IFCBUILDINGSTOREY('0Vo1evGDTEtP$KY5585hzx',$,'Mezzanine',$,$,#38,$,$,$,$);
#34=IFCCARTESIANPOINT((0.,0.,3400.));
#35=IFCDIRECTION((0.,0.,1.));
#36=IFCDIRECTION((1.,0.,0.));
#37=IFCAXIS2PLACEMENT3D(#34,#35,#36);
#38=IFCLOCALPLACEMENT($,#37);
#39=IFCSLAB('0oahRshJ5Fuu_ljit4jtM7',$,'Ground Floor',$,$,#57,#46,$,.FLOOR.);
#40=IFCCARTESIANPOINTLIST2D(((0.,0.),(24000.,0.),(24000.,16000.),(0.,16000.),(0.,0.)));
#41=IFCINDEXEDPOLYCURVE(#40,$,$);
#42=IFCDIRECTION((0.,0.,1.));
#43=IFCARBITRARYCLOSEDPROFILEDEF(.AREA.,$,#41);
#44=IFCEXTRUDEDAREASOLID(#43,$,#42,250.);
#45=IFCSHAPEREPRESENTATION(#11,'Body','SweptSolid',(#44));
#46=IFCPRODUCTDEFINITIONSHAPE($,$,(#45));
#52=IFCRELCONTAINEDINSPATIALSTRUCTURE('1KjzLLdT970Bv1gKZxvkgd',$,$,$,(#143,#99,#121,#291,#39,#77),#16);
#53=IFCCARTESIANPOINT((0.,0.,0.));
#54=IFCDIRECTION((0.,0.,1.));
#55=IFCDIRECTION((1.,0.,0.));
#56=IFCAXIS2PLACEMENT3D(#53,#54,#55);
#57=IFCLOCALPLACEMENT(#27,#56);
#58=IFCSLAB('1ARa$_lazBHuejEDSbmxQb',$,'Mezzanine',$,$,#76,#65,$,.FLOOR.);
#59=IFCCARTESIANPOINTLIST2D(((0.,0.),(8000.,0.),(8000.,6000.),(0.,6000.),(0.,0.)));
#60=IFCINDEXEDPOLYCURVE(#59,$,$);
#61=IFCDIRECTION((0.,0.,1.));
#62=IFCARBITRARYCLOSEDPROFILEDEF(.AREA.,$,#60);
#63=IFCEXTRUDEDAREASOLID(#62,$,#61,250.);
#64=IFCSHAPEREPRESENTATION(#11,'Body','SweptSolid',(#63));
#65=IFCPRODUCTDEFINITIONSHAPE($,$,(#64));
#71=IFCRELCONTAINEDINSPATIALSTRUCTURE('2v$jg0aaTErvhPKL3zdqaZ',$,$,$,(#165,#187,#209,#231,#58),#28);
#72=IFCCARTESIANPOINT((0.,0.,0.));
#73=IFCDIRECTION((0.,0.,1.));
#74=IFCDIRECTION((1.,0.,0.));
#75=IFCAXIS2PLACEMENT3D(#72,#73,#74);
#76=IFCLOCALPLACEMENT(#38,#75);
#77=IFCWALL('29SrQkgFf0hvuzfKuo6slZ',$,'Perim-1',$,$,#98,#88,$,$);
#78=IFCCARTESIANPOINTLIST2D(((0.,0.),(0.,200.),(24000.,200.),(24000.,0.),(0.,0.)));
#79=IFCINDEXEDPOLYCURVE(#78,$,.F.);
#80=IFCDIRECTION((0.,0.,1.));
#81=IFCARBITRARYCLOSEDPROFILEDEF(.AREA.,$,#79);
#82=IFCCARTESIANPOINT((0.,0.,0.));
#83=IFCDIRECTION((0.,0.,1.));
#84=IFCDIRECTION((1.,0.,0.));
#85=IFCAXIS2PLACEMENT3D(#82,#83,#84);
#86=IFCEXTRUDEDAREASOLID(#81,#85,#80,6000.);
#87=IFCSHAPEREPRESENTATION(#11,'Body','SweptSolid',(#86));
#88=IFCPRODUCTDEFINITIONSHAPE($,$,(#87));
#94=IFCCARTESIANPOINT((0.,0.,0.));
#95=IFCDIRECTION((0.,0.,1.));
#96=IFCDIRECTION((1.,0.,0.));
#97=IFCAXIS2PLACEMENT3D(#94,#95,#96);
#98=IFCLOCALPLACEMENT(#27,#97);
#99=IFCWALL('3PG6nh_CfFwgX0dSXAXqtZ',$,'Perim-2',$,$,#120,#110,$,$);
#100=IFCCARTESIANPOINTLIST2D(((0.,0.),(0.,200.),(16000.,200.),(16000.,0.),(0.,0.)));
#101=IFCINDEXEDPOLYCURVE(#100,$,.F.);
#102=IFCDIRECTION((0.,0.,1.));
#103=IFCARBITRARYCLOSEDPROFILEDEF(.AREA.,$,#101);
#104=IFCCARTESIANPOINT((0.,0.,0.));
#105=IFCDIRECTION((0.,0.,1.));
#106=IFCDIRECTION((1.,0.,0.));
#107=IFCAXIS2PLACEMENT3D(#104,#105,#106);
#108=IFCEXTRUDEDAREASOLID(#103,#107,#102,6000.);
#109=IFCSHAPEREPRESENTATION(#11,'Body','SweptSolid',(#108));
#110=IFCPRODUCTDEFINITIONSHAPE($,$,(#109));
#116=IFCCARTESIANPOINT((24000.,0.,0.));
#117=IFCDIRECTION((0.,0.,1.));
#118=IFCDIRECTION((6.123233995736766E-17,1.,0.));
#119=IFCAXIS2PLACEMENT3D(#116,#117,#118);
#120=IFCLOCALPLACEMENT(#27,#119);
#121=IFCWALL('2EnUyf8xX2xANjUEJe_f5c',$,'Perim-3',$,$,#142,#132,$,$);
#122=IFCCARTESIANPOINTLIST2D(((0.,0.),(0.,200.),(24000.,200.),(24000.,0.),(0.,0.)));
#123=IFCINDEXEDPOLYCURVE(#122,$,.F.);
#124=IFCDIRECTION((0.,0.,1.));
#125=IFCARBITRARYCLOSEDPROFILEDEF(.AREA.,$,#123);
#126=IFCCARTESIANPOINT((0.,0.,0.));
#127=IFCDIRECTION((0.,0.,1.));
#128=IFCDIRECTION((1.,0.,0.));
#129=IFCAXIS2PLACEMENT3D(#126,#127,#128);
#130=IFCEXTRUDEDAREASOLID(#125,#129,#124,6000.);
#131=IFCSHAPEREPRESENTATION(#11,'Body','SweptSolid',(#130));
#132=IFCPRODUCTDEFINITIONSHAPE($,$,(#131));
#138=IFCCARTESIANPOINT((24000.,16000.,0.));
#139=IFCDIRECTION((0.,0.,1.));
#140=IFCDIRECTION((-1.,1.2246467991473532E-16,0.));
#141=IFCAXIS2PLACEMENT3D(#138,#139,#140);
#142=IFCLOCALPLACEMENT(#27,#141);
#143=IFCWALL('33tmFrnIjBlf8IIUxUU5NK',$,'Perim-4',$,$,#164,#154,$,$);
#144=IFCCARTESIANPOINTLIST2D(((0.,0.),(0.,200.),(16000.,200.),(16000.,0.),(0.,0.)));
#145=IFCINDEXEDPOLYCURVE(#144,$,.F.);
#146=IFCDIRECTION((0.,0.,1.));
#147=IFCARBITRARYCLOSEDPROFILEDEF(.AREA.,$,#145);
#148=IFCCARTESIANPOINT((0.,0.,0.));
#149=IFCDIRECTION((0.,0.,1.));
#150=IFCDIRECTION((1.,0.,0.));
#151=IFCAXIS2PLACEMENT3D(#148,#149,#150);
#152=IFCEXTRUDEDAREASOLID(#147,#151,#146,6000.);
#153=IFCSHAPEREPRESENTATION(#11,'Body','SweptSolid',(#152));
#154=IFCPRODUCTDEFINITIONSHAPE($,$,(#153));
#160=IFCCARTESIANPOINT((0.,16000.,0.));
#161=IFCDIRECTION((0.,0.,1.));
#162=IFCDIRECTION((6.123233995736766E-17,-1.,0.));
#163=IFCAXIS2PLACEMENT3D(#160,#161,#162);
#164=IFCLOCALPLACEMENT(#27,#163);
#165=IFCWALL('0y$EZIpHj2wOkdqSvgz2T4',$,'Mezz-1',$,$,#186,#176,$,$);
#166=IFCCARTESIANPOINTLIST2D(((0.,0.),(0.,200.),(8000.,200.),(8000.,0.),(0.,0.)));
#167=IFCINDEXEDPOLYCURVE(#166,$,.F.);
#168=IFCDIRECTION((0.,0.,1.));
#169=IFCARBITRARYCLOSEDPROFILEDEF(.AREA.,$,#167);
#170=IFCCARTESIANPOINT((0.,0.,0.));
#171=IFCDIRECTION((0.,0.,1.));
#172=IFCDIRECTION((1.,0.,0.));
#173=IFCAXIS2PLACEMENT3D(#170,#171,#172);
#174=IFCEXTRUDEDAREASOLID(#169,#173,#168,2799.9999999999995);
#175=IFCSHAPEREPRESENTATION(#11,'Body','SweptSolid',(#174));
#176=IFCPRODUCTDEFINITIONSHAPE($,$,(#175));
#182=IFCCARTESIANPOINT((0.,0.,0.));
#183=IFCDIRECTION((0.,0.,1.));
#184=IFCDIRECTION((1.,0.,0.));
#185=IFCAXIS2PLACEMENT3D(#182,#183,#184);
#186=IFCLOCALPLACEMENT(#38,#185);
#187=IFCWALL('0LcrJaQO12i9BP3JkjT4_Q',$,'Mezz-2',$,$,#208,#198,$,$);
#188=IFCCARTESIANPOINTLIST2D(((0.,0.),(0.,200.),(6000.,200.),(6000.,0.),(0.,0.)));
#189=IFCINDEXEDPOLYCURVE(#188,$,.F.);
#190=IFCDIRECTION((0.,0.,1.));
#191=IFCARBITRARYCLOSEDPROFILEDEF(.AREA.,$,#189);
#192=IFCCARTESIANPOINT((0.,0.,0.));
#193=IFCDIRECTION((0.,0.,1.));
#194=IFCDIRECTION((1.,0.,0.));
#195=IFCAXIS2PLACEMENT3D(#192,#193,#194);
#196=IFCEXTRUDEDAREASOLID(#191,#195,#190,2799.9999999999995);
#197=IFCSHAPEREPRESENTATION(#11,'Body','SweptSolid',(#196));
#198=IFCPRODUCTDEFINITIONSHAPE($,$,(#197));
#204=IFCCARTESIANPOINT((8000.,0.,0.));
#205=IFCDIRECTION((0.,0.,1.));
#206=IFCDIRECTION((6.123233995736766E-17,1.,0.));
#207=IFCAXIS2PLACEMENT3D(#204,#205,#206);
#208=IFCLOCALPLACEMENT(#38,#207);
#209=IFCWALL('1BdPm308PDo8m0lipEZUzz',$,'Mezz-3',$,$,#230,#220,$,$);
#210=IFCCARTESIANPOINTLIST2D(((0.,0.),(0.,200.),(8000.,200.),(8000.,0.),(0.,0.)));
#211=IFCINDEXEDPOLYCURVE(#210,$,.F.);
#212=IFCDIRECTION((0.,0.,1.));
#213=IFCARBITRARYCLOSEDPROFILEDEF(.AREA.,$,#211);
#214=IFCCARTESIANPOINT((0.,0.,0.));
#215=IFCDIRECTION((0.,0.,1.));
#216=IFCDIRECTION((1.,0.,0.));
#217=IFCAXIS2PLACEMENT3D(#214,#215,#216);
#218=IFCEXTRUDEDAREASOLID(#213,#217,#212,2799.9999999999995);
#219=IFCSHAPEREPRESENTATION(#11,'Body','SweptSolid',(#218));
#220=IFCPRODUCTDEFINITIONSHAPE($,$,(#219));
#226=IFCCARTESIANPOINT((8000.,6000.,0.));
#227=IFCDIRECTION((0.,0.,1.));
#228=IFCDIRECTION((-1.,1.2246467991473532E-16,0.));
#229=IFCAXIS2PLACEMENT3D(#226,#227,#228);
#230=IFCLOCALPLACEMENT(#38,#229);
#231=IFCWALL('2ZB1cPe1DAcP9q$JUuDUfh',$,'Mezz-4',$,$,#252,#242,$,$);
#232=IFCCARTESIANPOINTLIST2D(((0.,0.),(0.,200.),(6000.,200.),(6000.,0.),(0.,0.)));
#233=IFCINDEXEDPOLYCURVE(#232,$,.F.);
#234=IFCDIRECTION((0.,0.,1.));
#235=IFCARBITRARYCLOSEDPROFILEDEF(.AREA.,$,#233);
#236=IFCCARTESIANPOINT((0.,0.,0.));
#237=IFCDIRECTION((0.,0.,1.));
#238=IFCDIRECTION((1.,0.,0.));
#239=IFCAXIS2PLACEMENT3D(#236,#237,#238);
#240=IFCEXTRUDEDAREASOLID(#235,#239,#234,2799.9999999999995);
#241=IFCSHAPEREPRESENTATION(#11,'Body','SweptSolid',(#240));
#242=IFCPRODUCTDEFINITIONSHAPE($,$,(#241));
#248=IFCCARTESIANPOINT((0.,6000.,0.));
#249=IFCDIRECTION((0.,0.,1.));
#250=IFCDIRECTION((6.123233995736766E-17,-1.,0.));
#251=IFCAXIS2PLACEMENT3D(#248,#249,#250);
#252=IFCLOCALPLACEMENT(#38,#251);
#253=IFCSPACE('0MZv0fLSXDB80yBkHtxX_0',$,'Warehouse Hall',$,$,#271,#260,$,$,$,$);
#254=IFCCARTESIANPOINTLIST2D(((1000.,1000.),(23000.,1000.),(23000.,15000.),(1000.,15000.),(1000.,1000.)));
#255=IFCINDEXEDPOLYCURVE(#254,$,$);
#256=IFCDIRECTION((0.,0.,1.));
#257=IFCARBITRARYCLOSEDPROFILEDEF(.AREA.,$,#255);
#258=IFCEXTRUDEDAREASOLID(#257,$,#256,5500.);
#259=IFCSHAPEREPRESENTATION(#11,'Body','SweptSolid',(#258));
#260=IFCPRODUCTDEFINITIONSHAPE($,$,(#259));
#266=IFCRELAGGREGATES('0WQpiU3Y57iAJ6cWuHCn8j',$,$,$,#16,(#253));
#267=IFCCARTESIANPOINT((0.,0.,0.));
#268=IFCDIRECTION((0.,0.,1.));
#269=IFCDIRECTION((1.,0.,0.));
#270=IFCAXIS2PLACEMENT3D(#267,#268,#269);
#271=IFCLOCALPLACEMENT(#27,#270);
#272=IFCSPACE('2ct_N$QYPBIAF5ddGKE2pH',$,'Mezzanine Area',$,$,#290,#279,$,$,$,$);
#273=IFCCARTESIANPOINTLIST2D(((500.,500.),(7500.,500.),(7500.,5500.),(500.,5500.),(500.,500.)));
#274=IFCINDEXEDPOLYCURVE(#273,$,$);
#275=IFCDIRECTION((0.,0.,1.));
#276=IFCARBITRARYCLOSEDPROFILEDEF(.AREA.,$,#274);
#277=IFCEXTRUDEDAREASOLID(#276,$,#275,2500.);
#278=IFCSHAPEREPRESENTATION(#11,'Body','SweptSolid',(#277));
#279=IFCPRODUCTDEFINITIONSHAPE($,$,(#278));
#285=IFCRELAGGREGATES('3mlt3__VD1bfC77L1lpr9D',$,$,$,#28,(#272));
#286=IFCCARTESIANPOINT((0.,0.,0.));
#287=IFCDIRECTION((0.,0.,1.));
#288=IFCDIRECTION((1.,0.,0.));
#289=IFCAXIS2PLACEMENT3D(#286,#287,#288);
#290=IFCLOCALPLACEMENT(#38,#289);
#291=IFCRAMP('2062dau999aOKVfsrKajai',$,'Accessible Ramp',$,$,#310,#300,$,$);
#292=IFCRECTANGLEPROFILEDEF(.AREA.,$,$,1.2,0.20000000000000001);
#293=IFCCARTESIANPOINT((0.,0.,0.));
#294=IFCDIRECTION((0.,0.,1.));
#295=IFCDIRECTION((1.,0.,0.));
#296=IFCAXIS2PLACEMENT3D(#293,#294,#295);
#297=IFCDIRECTION((0.,0.,1.));
#298=IFCEXTRUDEDAREASOLID(#292,#296,#297,7000.);
#299=IFCSHAPEREPRESENTATION(#11,'Body','SweptSolid',(#298));
#300=IFCPRODUCTDEFINITIONSHAPE($,$,(#299));
#306=IFCCARTESIANPOINT((8500.,1500.,0.));
#307=IFCDIRECTION((0.,-0.43690396273691312,0.89950815857599764));
#308=IFCDIRECTION((1.,0.,0.));
#309=IFCAXIS2PLACEMENT3D(#306,#307,#308);
#310=IFCLOCALPLACEMENT(#27,#309);
ENDSEC;
END-ISO-10303-21;
