ISO-10303-21;
HEADER;
FILE_DESCRIPTION (( 'STEP AP214' ),
    '1' );
FILE_NAME ('stage1_geometry.step',
    '2026-08-12T05:41:01',
    ( '' ),
    ( 'Administrator' ),
    'SwSTEP 2.0',
    'SolidWorks 2025',
    '' );
FILE_SCHEMA (( 'AUTOMOTIVE_DESIGN' ));
ENDSEC;

DATA;
#1 = AXIS2_PLACEMENT_3D ( 'NONE', #188, #17, #165 ) ;
#2 = DIRECTION ( 'NONE',  ( -0.000000000000000000, -1.000000000000000000, -0.000000000000000000 ) ) ;
#3 = ADVANCED_FACE ( 'NONE', ( #88 ), #75, .F. ) ;
#4 = VECTOR ( 'NONE', #71, 1000.000000000000000 ) ;
#5 = DIRECTION ( 'NONE',  ( 0.000000000000000000, 1.000000000000000000, 0.000000000000000000 ) ) ;
#6 =( NAMED_UNIT ( * ) SI_UNIT ( $, .STERADIAN. ) SOLID_ANGLE_UNIT ( ) );
#7 = ORIENTED_EDGE ( 'NONE', *, *, #37, .F. ) ;
#8 = CARTESIAN_POINT ( 'NONE',  ( -60.00000000000000000, 15.00000000000000000, 0.000000000000000000 ) ) ;
#9 = ORIENTED_EDGE ( 'NONE', *, *, #127, .T. ) ;
#10 = EDGE_CURVE ( 'NONE', #147, #249, #213, .T. ) ;
#11 = CARTESIAN_POINT ( 'NONE',  ( -60.00000000000000000, -15.00000000000000000, 3.000000000000000000 ) ) ;
#12 = ORIENTED_EDGE ( 'NONE', *, *, #248, .T. ) ;
#13 = DIRECTION ( 'NONE',  ( 0.000000000000000000, 0.000000000000000000, 1.000000000000000000 ) ) ;
#14 = ORIENTED_EDGE ( 'NONE', *, *, #58, .T. ) ;
#15 = CARTESIAN_POINT ( 'NONE',  ( 0.000000000000000000, 0.000000000000000000, 3.000000000000000000 ) ) ;
#16 = ORIENTED_EDGE ( 'NONE', *, *, #58, .F. ) ;
#17 = DIRECTION ( 'NONE',  ( -1.000000000000000000, 0.000000000000000000, 0.000000000000000000 ) ) ;
#18 = CARTESIAN_POINT ( 'NONE',  ( -60.00000000000000000, -15.00000000000000000, 3.000000000000000000 ) ) ;
#19 = DIRECTION ( 'NONE',  ( -1.000000000000000000, 0.000000000000000000, 0.000000000000000000 ) ) ;
#20 = CARTESIAN_POINT ( 'NONE',  ( -60.00000000000000000, -15.00000000000000000, 0.000000000000000000 ) ) ;
#21 = SURFACE_STYLE_FILL_AREA ( #140 ) ;
#22 = DIRECTION ( 'NONE',  ( 0.000000000000000000, 0.000000000000000000, 1.000000000000000000 ) ) ;
#23 = SURFACE_STYLE_USAGE ( .BOTH. , #227 ) ;
#24 = AXIS2_PLACEMENT_3D ( 'NONE', #100, #124, #102 ) ;
#25 = STYLED_ITEM ( 'NONE', ( #226 ), #251 ) ;
#26 = VERTEX_POINT ( 'NONE', #108 ) ;
#27 = ORIENTED_EDGE ( 'NONE', *, *, #31, .T. ) ;
#28 = ORIENTED_EDGE ( 'NONE', *, *, #31, .F. ) ;
#29 = ORIENTED_EDGE ( 'NONE', *, *, #228, .T. ) ;
#30 = DIRECTION ( 'NONE',  ( -1.000000000000000000, -0.000000000000000000, -0.000000000000000000 ) ) ;
#31 = EDGE_CURVE ( 'NONE', #26, #214, #90, .T. ) ;
#32 = ORIENTED_EDGE ( 'NONE', *, *, #127, .F. ) ;
#33 = ORIENTED_EDGE ( 'NONE', *, *, #37, .T. ) ;
#34 = CARTESIAN_POINT ( 'NONE',  ( -60.00000000000000000, -15.00000000000000000, 3.000000000000000000 ) ) ;
#35 = CLOSED_SHELL ( 'NONE', ( #161, #142, #182, #3, #164, #104, #204, #119 ) ) ;
#36 = AXIS2_PLACEMENT_3D ( 'NONE', #99, #79, #39 ) ;
#37 = EDGE_CURVE ( 'NONE', #106, #120, #186, .T. ) ;
#38 = CARTESIAN_POINT ( 'NONE',  ( -60.00000000000000000, -15.00000000000000000, 3.000000000000000000 ) ) ;
#39 = DIRECTION ( 'NONE',  ( 0.000000000000000000, -0.000000000000000000, -1.000000000000000000 ) ) ;
#40 = DIRECTION ( 'NONE',  ( -0.000000000000000000, -0.000000000000000000, -1.000000000000000000 ) ) ;
#41 =( LENGTH_UNIT ( ) NAMED_UNIT ( * ) SI_UNIT ( .MILLI., .METRE. ) );
#42 = EDGE_CURVE ( 'NONE', #26, #147, #91, .T. ) ;
#43 = UNCERTAINTY_MEASURE_WITH_UNIT (LENGTH_MEASURE( 1.000000000000000082E-05 ), #41, 'distance_accuracy_value', 'NONE');
#44 =( GEOMETRIC_REPRESENTATION_CONTEXT ( 3 ) GLOBAL_UNCERTAINTY_ASSIGNED_CONTEXT ( ( #105 ) ) GLOBAL_UNIT_ASSIGNED_CONTEXT ( ( #81, #229, #6 ) ) REPRESENTATION_CONTEXT ( 'NONE', 'WORKASPACE' ) );
#45 = CIRCLE ( 'NONE', #171, 6.000000000000000888 ) ;
#46 = EDGE_CURVE ( 'NONE', #147, #131, #190, .T. ) ;
#47 = ORIENTED_EDGE ( 'NONE', *, *, #135, .F. ) ;
#48 = CARTESIAN_POINT ( 'NONE',  ( -60.00000000000000000, 15.00000000000000000, 0.000000000000000000 ) ) ;
#49 = FACE_OUTER_BOUND ( 'NONE', #189, .T. ) ;
#50 = DIRECTION ( 'NONE',  ( -0.000000000000000000, -1.000000000000000000, -0.000000000000000000 ) ) ;
#51 = CIRCLE ( 'NONE', #243, 6.000000000000000888 ) ;
#52 = VERTEX_POINT ( 'NONE', #48 ) ;
#53 = LINE ( 'NONE', #8, #4 ) ;
#54 = PRODUCT_DEFINITION_FORMATION_WITH_SPECIFIED_SOURCE ( 'ANY', '', #115, .NOT_KNOWN. ) ;
#55 = PRODUCT_DEFINITION_SHAPE ( 'NONE', 'NONE',  #151 ) ;
#56 = CYLINDRICAL_SURFACE ( 'NONE', #62, 6.000000000000000888 ) ;
#57 = CARTESIAN_POINT ( 'NONE',  ( -6.000000000000000888, 0.000000000000000000, 3.000000000000000000 ) ) ;
#58 = EDGE_CURVE ( 'NONE', #106, #192, #51, .T. ) ;
#59 = SHAPE_DEFINITION_REPRESENTATION ( #55, #241 ) ;
#60 = DIRECTION ( 'NONE',  ( -1.000000000000000000, 0.000000000000000000, -0.000000000000000000 ) ) ;
#61 = CARTESIAN_POINT ( 'NONE',  ( 60.00000000000000000, -15.00000000000000000, 0.000000000000000000 ) ) ;
#62 = AXIS2_PLACEMENT_3D ( 'NONE', #220, #40, #19 ) ;
#63 = CARTESIAN_POINT ( 'NONE',  ( -60.00000000000000000, 15.00000000000000000, 3.000000000000000000 ) ) ;
#64 = APPLICATION_CONTEXT ( 'automotive_design' ) ;
#65 = ORIENTED_EDGE ( 'NONE', *, *, #85, .F. ) ;
#66 = VECTOR ( 'NONE', #67, 1000.000000000000000 ) ;
#67 = DIRECTION ( 'NONE',  ( -0.000000000000000000, -0.000000000000000000, -1.000000000000000000 ) ) ;
#68 = VECTOR ( 'NONE', #136, 1000.000000000000000 ) ;
#69 = LINE ( 'NONE', #150, #181 ) ;
#70 = ORIENTED_EDGE ( 'NONE', *, *, #42, .F. ) ;
#71 = DIRECTION ( 'NONE',  ( -1.000000000000000000, -0.000000000000000000, -0.000000000000000000 ) ) ;
#72 = ORIENTED_EDGE ( 'NONE', *, *, #46, .T. ) ;
#73 = EDGE_LOOP ( 'NONE', ( #12, #210, #70, #27 ) ) ;
#74 = VECTOR ( 'NONE', #2, 1000.000000000000000 ) ;
#75 = PLANE ( 'NONE',  #1 ) ;
#76 = FACE_BOUND ( 'NONE', #129, .T. ) ;
#77 = CARTESIAN_POINT ( 'NONE',  ( 0.000000000000000000, 0.000000000000000000, 3.000000000000000000 ) ) ;
#78 = LINE ( 'NONE', #221, #107 ) ;
#79 = DIRECTION ( 'NONE',  ( 0.000000000000000000, -1.000000000000000000, 0.000000000000000000 ) ) ;
#80 = LINE ( 'NONE', #83, #224 ) ;
#81 =( LENGTH_UNIT ( ) NAMED_UNIT ( * ) SI_UNIT ( .MILLI., .METRE. ) );
#82 = DIRECTION ( 'NONE',  ( 0.000000000000000000, 1.000000000000000000, 0.000000000000000000 ) ) ;
#83 = CARTESIAN_POINT ( 'NONE',  ( -60.00000000000000000, -15.00000000000000000, 3.000000000000000000 ) ) ;
#84 = AXIS2_PLACEMENT_3D ( 'NONE', #97, #158, #154 ) ;
#85 = EDGE_CURVE ( 'NONE', #192, #106, #183, .T. ) ;
#86 = ORIENTED_EDGE ( 'NONE', *, *, #173, .T. ) ;
#87 = ORIENTED_EDGE ( 'NONE', *, *, #10, .F. ) ;
#88 = FACE_OUTER_BOUND ( 'NONE', #73, .T. ) ;
#89 = ORIENTED_EDGE ( 'NONE', *, *, #156, .F. ) ;
#90 = LINE ( 'NONE', #216, #180 ) ;
#91 = LINE ( 'NONE', #172, #215 ) ;
#92 = EDGE_CURVE ( 'NONE', #192, #206, #93, .T. ) ;
#93 = LINE ( 'NONE', #170, #66 ) ;
#94 = EDGE_LOOP ( 'NONE', ( #9, #149, #87, #72 ) ) ;
#95 = AXIS2_PLACEMENT_3D ( 'NONE', #244, #209, #253 ) ;
#96 = CARTESIAN_POINT ( 'NONE',  ( -60.00000000000000000, -15.00000000000000000, 0.000000000000000000 ) ) ;
#97 = CARTESIAN_POINT ( 'NONE',  ( 0.000000000000000000, 0.000000000000000000, 0.000000000000000000 ) ) ;
#98 =( GEOMETRIC_REPRESENTATION_CONTEXT ( 3 ) GLOBAL_UNCERTAINTY_ASSIGNED_CONTEXT ( ( #43 ) ) GLOBAL_UNIT_ASSIGNED_CONTEXT ( ( #41, #236, #205 ) ) REPRESENTATION_CONTEXT ( 'NONE', 'WORKASPACE' ) );
#99 = CARTESIAN_POINT ( 'NONE',  ( -60.00000000000000000, 15.00000000000000000, 3.000000000000000000 ) ) ;
#100 = CARTESIAN_POINT ( 'NONE',  ( 0.000000000000000000, 0.000000000000000000, 0.000000000000000000 ) ) ;
#101 = VECTOR ( 'NONE', #193, 1000.000000000000000 ) ;
#102 = DIRECTION ( 'NONE',  ( 1.000000000000000000, 0.000000000000000000, 0.000000000000000000 ) ) ;
#103 = DIRECTION ( 'NONE',  ( 1.000000000000000000, 0.000000000000000000, 0.000000000000000000 ) ) ;
#104 = ADVANCED_FACE ( 'NONE', ( #245 ), #257, .F. ) ;
#105 = UNCERTAINTY_MEASURE_WITH_UNIT (LENGTH_MEASURE( 1.000000000000000082E-05 ), #81, 'distance_accuracy_value', 'NONE');
#106 = VERTEX_POINT ( 'NONE', #259 ) ;
#107 = VECTOR ( 'NONE', #5, 1000.000000000000000 ) ;
#108 = CARTESIAN_POINT ( 'NONE',  ( 60.00000000000000000, -15.00000000000000000, 3.000000000000000000 ) ) ;
#109 = EDGE_LOOP ( 'NONE', ( #65, #16 ) ) ;
#110 = DIRECTION ( 'NONE',  ( -0.000000000000000000, -0.000000000000000000, -1.000000000000000000 ) ) ;
#111 = ORIENTED_EDGE ( 'NONE', *, *, #239, .T. ) ;
#112 = DIRECTION ( 'NONE',  ( -0.000000000000000000, -0.000000000000000000, -1.000000000000000000 ) ) ;
#113 = EDGE_LOOP ( 'NONE', ( #254, #33, #233, #217 ) ) ;
#114 = DIRECTION ( 'NONE',  ( 0.000000000000000000, 1.000000000000000000, 0.000000000000000000 ) ) ;
#115 = PRODUCT ( 'stage1_geometry', 'stage1_geometry', '', ( #123 ) ) ;
#116 = LINE ( 'NONE', #96, #68 ) ;
#117 = DIRECTION ( 'NONE',  ( 0.000000000000000000, 0.000000000000000000, 1.000000000000000000 ) ) ;
#118 = CARTESIAN_POINT ( 'NONE',  ( 60.00000000000000000, 15.00000000000000000, 3.000000000000000000 ) ) ;
#119 = ADVANCED_FACE ( 'NONE', ( #152 ), #240, .F. ) ;
#120 = VERTEX_POINT ( 'NONE', #255 ) ;
#121 = CIRCLE ( 'NONE', #232, 6.000000000000000888 ) ;
#122 = DIRECTION ( 'NONE',  ( 0.000000000000000000, 0.000000000000000000, -1.000000000000000000 ) ) ;
#123 = PRODUCT_CONTEXT ( 'NONE', #178, 'mechanical' ) ;
#124 = DIRECTION ( 'NONE',  ( 0.000000000000000000, 0.000000000000000000, 1.000000000000000000 ) ) ;
#125 = EDGE_LOOP ( 'NONE', ( #7, #14, #212, #238 ) ) ;
#126 = ORIENTED_EDGE ( 'NONE', *, *, #198, .T. ) ;
#127 = EDGE_CURVE ( 'NONE', #131, #52, #53, .T. ) ;
#128 = DIRECTION ( 'NONE',  ( 1.000000000000000000, 0.000000000000000000, 0.000000000000000000 ) ) ;
#129 = EDGE_LOOP ( 'NONE', ( #126, #163 ) ) ;
#130 = CARTESIAN_POINT ( 'NONE',  ( 0.000000000000000000, 0.000000000000000000, 3.000000000000000000 ) ) ;
#131 = VERTEX_POINT ( 'NONE', #235 ) ;
#132 = FACE_BOUND ( 'NONE', #109, .T. ) ;
#133 = CARTESIAN_POINT ( 'NONE',  ( 0.000000000000000000, 0.000000000000000000, 0.000000000000000000 ) ) ;
#134 = VECTOR ( 'NONE', #112, 1000.000000000000000 ) ;
#135 = EDGE_CURVE ( 'NONE', #52, #162, #69, .T. ) ;
#136 = DIRECTION ( 'NONE',  ( 1.000000000000000000, 0.000000000000000000, 0.000000000000000000 ) ) ;
#137 = DIRECTION ( 'NONE',  ( -0.000000000000000000, -0.000000000000000000, -1.000000000000000000 ) ) ;
#138 = LINE ( 'NONE', #225, #146 ) ;
#139 = AXIS2_PLACEMENT_3D ( 'NONE', #18, #82, #202 ) ;
#140 = FILL_AREA_STYLE ('',( #200 ) ) ;
#141 = DIRECTION ( 'NONE',  ( -0.000000000000000000, -0.000000000000000000, -1.000000000000000000 ) ) ;
#142 = ADVANCED_FACE ( 'NONE', ( #49, #132 ), #195, .F. ) ;
#143 = VERTEX_POINT ( 'NONE', #34 ) ;
#144 = PRODUCT_DEFINITION_CONTEXT ( 'detailed design', #64, 'design' ) ;
#145 = ORIENTED_EDGE ( 'NONE', *, *, #169, .T. ) ;
#146 = VECTOR ( 'NONE', #141, 1000.000000000000000 ) ;
#147 = VERTEX_POINT ( 'NONE', #118 ) ;
#148 = CARTESIAN_POINT ( 'NONE',  ( -60.00000000000000000, 15.00000000000000000, 3.000000000000000000 ) ) ;
#149 = ORIENTED_EDGE ( 'NONE', *, *, #228, .F. ) ;
#150 = CARTESIAN_POINT ( 'NONE',  ( -60.00000000000000000, -15.00000000000000000, 0.000000000000000000 ) ) ;
#151 = PRODUCT_DEFINITION ( 'UNKNOWN', '', #54, #144 ) ;
#152 = FACE_OUTER_BOUND ( 'NONE', #125, .T. ) ;
#153 = EDGE_LOOP ( 'NONE', ( #86, #28, #187, #184 ) ) ;
#154 = DIRECTION ( 'NONE',  ( -1.000000000000000000, 0.000000000000000000, -0.000000000000000000 ) ) ;
#155 = LINE ( 'NONE', #38, #196 ) ;
#156 = EDGE_CURVE ( 'NONE', #143, #162, #155, .T. ) ;
#157 = CARTESIAN_POINT ( 'NONE',  ( -60.00000000000000000, -15.00000000000000000, 3.000000000000000000 ) ) ;
#158 = DIRECTION ( 'NONE',  ( 0.000000000000000000, 0.000000000000000000, -1.000000000000000000 ) ) ;
#159 = MECHANICAL_DESIGN_GEOMETRIC_PRESENTATION_REPRESENTATION (  '', ( #25 ), #98 ) ;
#160 = APPLICATION_PROTOCOL_DEFINITION ( 'draft international standard', 'automotive_design', 1998, #64 ) ;
#161 = ADVANCED_FACE ( 'NONE', ( #199 ), #56, .F. ) ;
#162 = VERTEX_POINT ( 'NONE', #20 ) ;
#163 = ORIENTED_EDGE ( 'NONE', *, *, #191, .T. ) ;
#164 = ADVANCED_FACE ( 'NONE', ( #176 ), #197, .F. ) ;
#165 = DIRECTION ( 'NONE',  ( 0.000000000000000000, 0.000000000000000000, 1.000000000000000000 ) ) ;
#166 = ORIENTED_EDGE ( 'NONE', *, *, #248, .F. ) ;
#167 = DIRECTION ( 'NONE',  ( 1.000000000000000000, 0.000000000000000000, 0.000000000000000000 ) ) ;
#168 = DIRECTION ( 'NONE',  ( 0.000000000000000000, 0.000000000000000000, 1.000000000000000000 ) ) ;
#169 = EDGE_CURVE ( 'NONE', #249, #143, #179, .T. ) ;
#170 = CARTESIAN_POINT ( 'NONE',  ( -6.000000000000000888, 0.000000000000000000, 3.000000000000000000 ) ) ;
#171 = AXIS2_PLACEMENT_3D ( 'NONE', #133, #117, #261 ) ;
#172 = CARTESIAN_POINT ( 'NONE',  ( 60.00000000000000000, -15.00000000000000000, 3.000000000000000000 ) ) ;
#173 = EDGE_CURVE ( 'NONE', #162, #214, #116, .T. ) ;
#174 = PLANE ( 'NONE',  #139 ) ;
#175 = CARTESIAN_POINT ( 'NONE',  ( -6.000000000000000888, 0.000000000000000000, 0.000000000000000000 ) ) ;
#176 = FACE_OUTER_BOUND ( 'NONE', #94, .T. ) ;
#177 = VECTOR ( 'NONE', #30, 1000.000000000000000 ) ;
#178 = APPLICATION_CONTEXT ( 'automotive_design' ) ;
#179 = LINE ( 'NONE', #157, #74 ) ;
#180 = VECTOR ( 'NONE', #110, 1000.000000000000000 ) ;
#181 = VECTOR ( 'NONE', #50, 1000.000000000000000 ) ;
#182 = ADVANCED_FACE ( 'NONE', ( #260, #76 ), #201, .T. ) ;
#183 = CIRCLE ( 'NONE', #223, 6.000000000000000888 ) ;
#184 = ORIENTED_EDGE ( 'NONE', *, *, #156, .T. ) ;
#185 = APPLICATION_PROTOCOL_DEFINITION ( 'draft international standard', 'automotive_design', 1998, #178 ) ;
#186 = LINE ( 'NONE', #237, #134 ) ;
#187 = ORIENTED_EDGE ( 'NONE', *, *, #239, .F. ) ;
#188 = CARTESIAN_POINT ( 'NONE',  ( 60.00000000000000000, -15.00000000000000000, 3.000000000000000000 ) ) ;
#189 = EDGE_LOOP ( 'NONE', ( #194, #250, #145, #111 ) ) ;
#190 = LINE ( 'NONE', #252, #101 ) ;
#191 = EDGE_CURVE ( 'NONE', #120, #206, #121, .T. ) ;
#192 = VERTEX_POINT ( 'NONE', #57 ) ;
#193 = DIRECTION ( 'NONE',  ( -0.000000000000000000, -0.000000000000000000, -1.000000000000000000 ) ) ;
#194 = ORIENTED_EDGE ( 'NONE', *, *, #42, .T. ) ;
#195 = PLANE ( 'NONE',  #247 ) ;
#196 = VECTOR ( 'NONE', #137, 1000.000000000000000 ) ;
#197 = PLANE ( 'NONE',  #36 ) ;
#198 = EDGE_CURVE ( 'NONE', #206, #120, #45, .T. ) ;
#199 = FACE_OUTER_BOUND ( 'NONE', #113, .T. ) ;
#200 = FILL_AREA_STYLE_COLOUR ( '', #258 ) ;
#201 = PLANE ( 'NONE',  #84 ) ;
#202 = DIRECTION ( 'NONE',  ( 0.000000000000000000, -0.000000000000000000, 1.000000000000000000 ) ) ;
#203 = DIRECTION ( 'NONE',  ( 1.000000000000000000, 0.000000000000000000, 0.000000000000000000 ) ) ;
#204 = ADVANCED_FACE ( 'NONE', ( #234 ), #174, .F. ) ;
#205 =( NAMED_UNIT ( * ) SI_UNIT ( $, .STERADIAN. ) SOLID_ANGLE_UNIT ( ) );
#206 = VERTEX_POINT ( 'NONE', #175 ) ;
#207 = PRESENTATION_LAYER_ASSIGNMENT (  '', '', ( #25 ) ) ;
#208 = ORIENTED_EDGE ( 'NONE', *, *, #173, .F. ) ;
#209 = DIRECTION ( 'NONE',  ( -0.000000000000000000, -0.000000000000000000, -1.000000000000000000 ) ) ;
#210 = ORIENTED_EDGE ( 'NONE', *, *, #46, .F. ) ;
#211 = DIRECTION ( 'NONE',  ( 1.000000000000000000, 0.000000000000000000, 0.000000000000000000 ) ) ;
#212 = ORIENTED_EDGE ( 'NONE', *, *, #92, .T. ) ;
#213 = LINE ( 'NONE', #148, #177 ) ;
#214 = VERTEX_POINT ( 'NONE', #61 ) ;
#215 = VECTOR ( 'NONE', #114, 1000.000000000000000 ) ;
#216 = CARTESIAN_POINT ( 'NONE',  ( 60.00000000000000000, -15.00000000000000000, 3.000000000000000000 ) ) ;
#217 = ORIENTED_EDGE ( 'NONE', *, *, #92, .F. ) ;
#218 = EDGE_LOOP ( 'NONE', ( #231, #89, #256, #29 ) ) ;
#219 = AXIS2_PLACEMENT_3D ( 'NONE', #11, #167, #122 ) ;
#220 = CARTESIAN_POINT ( 'NONE',  ( 0.000000000000000000, 0.000000000000000000, 3.000000000000000000 ) ) ;
#221 = CARTESIAN_POINT ( 'NONE',  ( 60.00000000000000000, -15.00000000000000000, 0.000000000000000000 ) ) ;
#222 = DIRECTION ( 'NONE',  ( 0.000000000000000000, 0.000000000000000000, -1.000000000000000000 ) ) ;
#223 = AXIS2_PLACEMENT_3D ( 'NONE', #15, #13, #211 ) ;
#224 = VECTOR ( 'NONE', #203, 1000.000000000000000 ) ;
#225 = CARTESIAN_POINT ( 'NONE',  ( -60.00000000000000000, 15.00000000000000000, 3.000000000000000000 ) ) ;
#226 = PRESENTATION_STYLE_ASSIGNMENT (( #23 ) ) ;
#227 = SURFACE_SIDE_STYLE ('',( #21 ) ) ;
#228 = EDGE_CURVE ( 'NONE', #249, #52, #138, .T. ) ;
#229 =( NAMED_UNIT ( * ) PLANE_ANGLE_UNIT ( ) SI_UNIT ( $, .RADIAN. ) );
#230 = PRODUCT_RELATED_PRODUCT_CATEGORY ( 'part', '', ( #115 ) ) ;
#231 = ORIENTED_EDGE ( 'NONE', *, *, #135, .T. ) ;
#232 = AXIS2_PLACEMENT_3D ( 'NONE', #246, #22, #103 ) ;
#233 = ORIENTED_EDGE ( 'NONE', *, *, #198, .F. ) ;
#234 = FACE_OUTER_BOUND ( 'NONE', #153, .T. ) ;
#235 = CARTESIAN_POINT ( 'NONE',  ( 60.00000000000000000, 15.00000000000000000, 0.000000000000000000 ) ) ;
#236 =( NAMED_UNIT ( * ) PLANE_ANGLE_UNIT ( ) SI_UNIT ( $, .RADIAN. ) );
#237 = CARTESIAN_POINT ( 'NONE',  ( 6.000000000000000888, 7.347880794884120722E-16, 3.000000000000000000 ) ) ;
#238 = ORIENTED_EDGE ( 'NONE', *, *, #191, .F. ) ;
#239 = EDGE_CURVE ( 'NONE', #143, #26, #80, .T. ) ;
#240 = CYLINDRICAL_SURFACE ( 'NONE', #95, 6.000000000000000888 ) ;
#241 = ADVANCED_BREP_SHAPE_REPRESENTATION ( 'stage1_geometry', ( #251, #24 ), #44 ) ;
#242 = EDGE_LOOP ( 'NONE', ( #166, #208, #47, #32 ) ) ;
#243 = AXIS2_PLACEMENT_3D ( 'NONE', #130, #168, #128 ) ;
#244 = CARTESIAN_POINT ( 'NONE',  ( 0.000000000000000000, 0.000000000000000000, 3.000000000000000000 ) ) ;
#245 = FACE_OUTER_BOUND ( 'NONE', #218, .T. ) ;
#246 = CARTESIAN_POINT ( 'NONE',  ( 0.000000000000000000, 0.000000000000000000, 0.000000000000000000 ) ) ;
#247 = AXIS2_PLACEMENT_3D ( 'NONE', #77, #222, #60 ) ;
#248 = EDGE_CURVE ( 'NONE', #214, #131, #78, .T. ) ;
#249 = VERTEX_POINT ( 'NONE', #63 ) ;
#250 = ORIENTED_EDGE ( 'NONE', *, *, #10, .T. ) ;
#251 = MANIFOLD_SOLID_BREP ( 'EW_SW_ABQ_02_SOLIDWORKS_TO_ABAQUS_CENTER_HOLE_COUPON', #35 ) ;
#252 = CARTESIAN_POINT ( 'NONE',  ( 60.00000000000000000, 15.00000000000000000, 3.000000000000000000 ) ) ;
#253 = DIRECTION ( 'NONE',  ( -1.000000000000000000, 0.000000000000000000, 0.000000000000000000 ) ) ;
#254 = ORIENTED_EDGE ( 'NONE', *, *, #85, .T. ) ;
#255 = CARTESIAN_POINT ( 'NONE',  ( 6.000000000000000888, 7.347880794884120722E-16, 0.000000000000000000 ) ) ;
#256 = ORIENTED_EDGE ( 'NONE', *, *, #169, .F. ) ;
#257 = PLANE ( 'NONE',  #219 ) ;
#258 = COLOUR_RGB ( '',0.7921568627450980005, 0.8196078431372548767, 0.9333333333333333481 ) ;
#259 = CARTESIAN_POINT ( 'NONE',  ( 6.000000000000000888, 7.347880794884120722E-16, 3.000000000000000000 ) ) ;
#260 = FACE_OUTER_BOUND ( 'NONE', #242, .T. ) ;
#261 = DIRECTION ( 'NONE',  ( 1.000000000000000000, 0.000000000000000000, 0.000000000000000000 ) ) ;
ENDSEC;
END-ISO-10303-21;
