ISO-10303-21;
HEADER;
/* ENGIWORLD_CHAIN_EVIDENCE EW_SW_ABQ_05 SOLIDWORKS_TO_ABAQUS */
FILE_DESCRIPTION (( 'STEP AP203' ),
    '1' );
FILE_NAME ('stage1_geometry.step',
    '2026-07-07T03:56:27',
    ( '' ),
    ( 'Administrator' ),
    'SwSTEP 2.0',
    'SolidWorks 2025',
    '' );
FILE_SCHEMA (( 'CONFIG_CONTROL_DESIGN' ));
ENDSEC;

DATA;
#1 = DIRECTION ( 'NONE',  ( 1.000000000000000000, 0.000000000000000000, 0.000000000000000000 ) ) ;
#2 = VERTEX_POINT ( 'NONE', #575 ) ;
#3 = CC_DESIGN_DATE_AND_TIME_ASSIGNMENT ( #977, #534, ( #1328 ) ) ;
#4 = EDGE_LOOP ( 'NONE', ( #538, #21, #238, #1210 ) ) ;
#5 = ORIENTED_EDGE ( 'NONE', *, *, #9, .F. ) ;
#6 = CALENDAR_DATE ( 2026, 7, 7 ) ;
#7 = CARTESIAN_POINT ( 'NONE',  ( 0.000000000000000000, 8.428571428571425272, 5.000000000000000000 ) ) ;
#8 = PLANE ( 'NONE',  #1257 ) ;
#9 = EDGE_CURVE ( 'NONE', #650, #948, #1199, .T. ) ;
#10 = ORIENTED_EDGE ( 'NONE', *, *, #716, .T. ) ;
#11 = ORIENTED_EDGE ( 'NONE', *, *, #633, .F. ) ;
#12 = EDGE_LOOP ( 'NONE', ( #1282, #10, #860, #284 ) ) ;
#13 = CLOSED_SHELL ( 'NONE', ( #102, #723, #560, #362, #729, #998, #124, #1262, #704, #920, #804, #480, #135, #969, #978, #928, #216, #1051, #621, #946, #863, #838, #104, #764, #1198, #1265, #355, #1197, #1300, #95, #289, #1127, #1310, #1083, #182, #853, #1246, #755, #514, #1369, #497, #1226, #209, #673, #354, #41 ) ) ;
#14 = VECTOR ( 'NONE', #185, 1000.000000000000000 ) ;
#15 = LINE ( 'NONE', #234, #1166 ) ;
#16 = VECTOR ( 'NONE', #1253, 1000.000000000000000 ) ;
#17 = DIRECTION ( 'NONE',  ( -0.000000000000000000, -0.000000000000000000, -1.000000000000000000 ) ) ;
#18 = ORIENTED_EDGE ( 'NONE', *, *, #932, .F. ) ;
#19 = ORIENTED_EDGE ( 'NONE', *, *, #91, .F. ) ;
#20 = EDGE_LOOP ( 'NONE', ( #695, #283, #1289, #1244 ) ) ;
#21 = ORIENTED_EDGE ( 'NONE', *, *, #189, .F. ) ;
#22 = FACE_OUTER_BOUND ( 'NONE', #972, .T. ) ;
#23 = DIRECTION ( 'NONE',  ( 0.000000000000000000, 0.000000000000000000, -1.000000000000000000 ) ) ;
#24 = ORIENTED_EDGE ( 'NONE', *, *, #1255, .F. ) ;
#25 = ORIENTED_EDGE ( 'NONE', *, *, #399, .F. ) ;
#26 = VERTEX_POINT ( 'NONE', #437 ) ;
#27 = DIRECTION ( 'NONE',  ( -1.000000000000000000, -0.000000000000000000, -0.000000000000000000 ) ) ;
#28 = DIRECTION ( 'NONE',  ( -0.000000000000000000, -0.000000000000000000, -1.000000000000000000 ) ) ;
#29 = EDGE_CURVE ( 'NONE', #950, #345, #1205, .T. ) ;
#30 = FACE_OUTER_BOUND ( 'NONE', #254, .T. ) ;
#31 = LINE ( 'NONE', #1303, #940 ) ;
#32 = ORIENTED_EDGE ( 'NONE', *, *, #1255, .T. ) ;
#33 = VERTEX_POINT ( 'NONE', #559 ) ;
#34 = FACE_BOUND ( 'NONE', #1082, .T. ) ;
#35 = DIRECTION ( 'NONE',  ( -0.000000000000000000, -1.000000000000000000, -0.000000000000000000 ) ) ;
#36 = CARTESIAN_POINT ( 'NONE',  ( 22.50000000000000000, -4.142857142857142350, 5.000000000000000888 ) ) ;
#37 = VECTOR ( 'NONE', #547, 1000.000000000000000 ) ;
#38 = DIRECTION ( 'NONE',  ( -0.000000000000000000, -0.000000000000000000, -1.000000000000000000 ) ) ;
#39 = VECTOR ( 'NONE', #315, 1000.000000000000000 ) ;
#40 = DIRECTION ( 'NONE',  ( 0.000000000000000000, 1.000000000000000000, 0.000000000000000000 ) ) ;
#41 = ADVANCED_FACE ( 'NONE', ( #148 ), #1296, .F. ) ;
#42 = ORIENTED_EDGE ( 'NONE', *, *, #291, .T. ) ;
#43 = VERTEX_POINT ( 'NONE', #256 ) ;
#44 = CARTESIAN_POINT ( 'NONE',  ( -22.50000000000000000, -21.00000000000000000, 23.00000000000000000 ) ) ;
#45 = CARTESIAN_POINT ( 'NONE',  ( 22.50000000000000000, -4.142857142857142350, 23.00000000000000000 ) ) ;
#46 = DIRECTION ( 'NONE',  ( 1.000000000000000000, 0.000000000000000000, 0.000000000000000000 ) ) ;
#47 = CARTESIAN_POINT ( 'NONE',  ( 22.50000000000000000, 10.42857142857142705, 5.000000000000000000 ) ) ;
#48 = CARTESIAN_POINT ( 'NONE',  ( 22.50000000000000000, 4.142857142857142350, 23.00000000000000000 ) ) ;
#49 = ORIENTED_EDGE ( 'NONE', *, *, #1121, .T. ) ;
#50 = EDGE_LOOP ( 'NONE', ( #661, #248, #814, #1008 ) ) ;
#51 = EDGE_CURVE ( 'NONE', #1231, #443, #975, .T. ) ;
#52 = FACE_BOUND ( 'NONE', #730, .T. ) ;
#53 = DIRECTION ( 'NONE',  ( 0.000000000000000000, 0.000000000000000000, -1.000000000000000000 ) ) ;
#54 = FACE_OUTER_BOUND ( 'NONE', #468, .T. ) ;
#55 = DIRECTION ( 'NONE',  ( -1.000000000000000000, 0.000000000000000000, 0.000000000000000000 ) ) ;
#56 = LINE ( 'NONE', #779, #409 ) ;
#57 = EDGE_CURVE ( 'NONE', #494, #676, #340, .T. ) ;
#58 = ORIENTED_EDGE ( 'NONE', *, *, #1344, .F. ) ;
#59 = VERTEX_POINT ( 'NONE', #662 ) ;
#60 = EDGE_CURVE ( 'NONE', #1073, #950, #1003, .T. ) ;
#61 = CARTESIAN_POINT ( 'NONE',  ( 22.50000000000000000, -21.00000000000000000, 5.000000000000000000 ) ) ;
#62 = CARTESIAN_POINT ( 'NONE',  ( -22.50000000000000000, -14.71428571428571530, 23.00000000000000000 ) ) ;
#63 = CARTESIAN_POINT ( 'NONE',  ( -40.00000000000000000, 30.00000000000000000, 5.000000000000000000 ) ) ;
#64 = VECTOR ( 'NONE', #55, 1000.000000000000000 ) ;
#65 = CARTESIAN_POINT ( 'NONE',  ( -22.50000000000000000, 16.71428571428571530, 5.000000000000000000 ) ) ;
#66 = VECTOR ( 'NONE', #835, 1000.000000000000000 ) ;
#67 = FACE_BOUND ( 'NONE', #80, .T. ) ;
#68 = ORIENTED_EDGE ( 'NONE', *, *, #1355, .T. ) ;
#69 = ORIENTED_EDGE ( 'NONE', *, *, #869, .F. ) ;
#70 = DIRECTION ( 'NONE',  ( 0.000000000000000000, 0.000000000000000000, -1.000000000000000000 ) ) ;
#71 = CC_DESIGN_DATE_AND_TIME_ASSIGNMENT ( #726, #1152, ( #884 ) ) ;
#72 = LINE ( 'NONE', #685, #455 ) ;
#73 = CARTESIAN_POINT ( 'NONE',  ( -22.50000000000000000, 4.142857142857142350, 23.00000000000000000 ) ) ;
#74 = PLANE ( 'NONE',  #82 ) ;
#75 = VERTEX_POINT ( 'NONE', #678 ) ;
#76 = DIRECTION ( 'NONE',  ( 0.000000000000000000, 1.000000000000000000, 0.000000000000000000 ) ) ;
#77 = EDGE_CURVE ( 'NONE', #43, #859, #995, .T. ) ;
#78 = CARTESIAN_POINT ( 'NONE',  ( 0.000000000000000000, 0.000000000000000000, 0.000000000000000000 ) ) ;
#79 = FACE_OUTER_BOUND ( 'NONE', #775, .T. ) ;
#80 = EDGE_LOOP ( 'NONE', ( #1177, #130, #388, #1080 ) ) ;
#81 = LINE ( 'NONE', #301, #86 ) ;
#82 = AXIS2_PLACEMENT_3D ( 'NONE', #493, #1345, #196 ) ;
#83 = EDGE_CURVE ( 'NONE', #249, #33, #364, .T. ) ;
#84 = DIRECTION ( 'NONE',  ( -0.000000000000000000, -0.000000000000000000, -1.000000000000000000 ) ) ;
#85 = VECTOR ( 'NONE', #202, 1000.000000000000000 ) ;
#86 = VECTOR ( 'NONE', #1236, 1000.000000000000000 ) ;
#87 = VECTOR ( 'NONE', #599, 1000.000000000000000 ) ;
#88 = PERSON_AND_ORGANIZATION_ROLE ( 'design_owner' ) ;
#89 = DIRECTION ( 'NONE',  ( 0.000000000000000000, 0.000000000000000000, -1.000000000000000000 ) ) ;
#90 = CARTESIAN_POINT ( 'NONE',  ( 22.50000000000000000, 0.000000000000000000, 5.000000000000000000 ) ) ;
#91 = EDGE_CURVE ( 'NONE', #1032, #800, #552, .T. ) ;
#92 = CARTESIAN_POINT ( 'NONE',  ( 22.50000000000000000, 16.71428571428571530, 23.00000000000000000 ) ) ;
#93 = LINE ( 'NONE', #73, #457 ) ;
#94 = DIRECTION ( 'NONE',  ( 0.000000000000000000, 1.000000000000000000, 0.000000000000000000 ) ) ;
#95 = ADVANCED_FACE ( 'NONE', ( #250 ), #1091, .F. ) ;
#96 =( NAMED_UNIT ( * ) PLANE_ANGLE_UNIT ( ) SI_UNIT ( $, .RADIAN. ) );
#97 = CARTESIAN_POINT ( 'NONE',  ( -22.50000000000000000, -10.42857142857142705, 23.00000000000000000 ) ) ;
#98 = PLANE ( 'NONE',  #197 ) ;
#99 = ORIENTED_EDGE ( 'NONE', *, *, #172, .F. ) ;
#100 = VECTOR ( 'NONE', #841, 1000.000000000000000 ) ;
#101 = VECTOR ( 'NONE', #722, 1000.000000000000000 ) ;
#102 = ADVANCED_FACE ( 'NONE', ( #34, #453, #877, #1212, #265, #159, #52, #398, #67 ), #711, .F. ) ;
#103 = FACE_OUTER_BOUND ( 'NONE', #604, .T. ) ;
#104 = ADVANCED_FACE ( 'NONE', ( #819 ), #170, .F. ) ;
#105 = LINE ( 'NONE', #523, #1350 ) ;
#106 = EDGE_LOOP ( 'NONE', ( #435, #111, #1107, #231 ) ) ;
#107 = ORIENTED_EDGE ( 'NONE', *, *, #181, .T. ) ;
#108 = ORIENTED_EDGE ( 'NONE', *, *, #693, .T. ) ;
#109 = DIRECTION ( 'NONE',  ( -1.000000000000000000, 0.000000000000000000, 0.000000000000000000 ) ) ;
#110 = DIRECTION ( 'NONE',  ( 0.000000000000000000, -0.000000000000000000, 1.000000000000000000 ) ) ;
#111 = ORIENTED_EDGE ( 'NONE', *, *, #1237, .F. ) ;
#112 = ORIENTED_EDGE ( 'NONE', *, *, #208, .F. ) ;
#113 = ORIENTED_EDGE ( 'NONE', *, *, #811, .T. ) ;
#114 = APPROVAL_STATUS ( 'not_yet_approved' ) ;
#115 = DIRECTION ( 'NONE',  ( -0.000000000000000000, -1.000000000000000000, -0.000000000000000000 ) ) ;
#116 = DIRECTION ( 'NONE',  ( 0.000000000000000000, 0.000000000000000000, 1.000000000000000000 ) ) ;
#117 = CARTESIAN_POINT ( 'NONE',  ( 22.50000000000000000, 14.71428571428571530, 23.00000000000000000 ) ) ;
#118 = VERTEX_POINT ( 'NONE', #1036 ) ;
#119 = ORIENTED_EDGE ( 'NONE', *, *, #1260, .T. ) ;
#120 = ORIENTED_EDGE ( 'NONE', *, *, #617, .F. ) ;
#121 = EDGE_CURVE ( 'NONE', #773, #949, #1041, .T. ) ;
#122 = DIRECTION ( 'NONE',  ( -0.000000000000000000, -0.000000000000000000, -1.000000000000000000 ) ) ;
#123 = AXIS2_PLACEMENT_3D ( 'NONE', #1354, #402, #313 ) ;
#124 = ADVANCED_FACE ( 'NONE', ( #79 ), #186, .F. ) ;
#125 = AXIS2_PLACEMENT_3D ( 'NONE', #527, #357, #634 ) ;
#126 = CARTESIAN_POINT ( 'NONE',  ( 0.000000000000000000, -22.99999999999999645, 5.000000000000000000 ) ) ;
#127 = AXIS2_PLACEMENT_3D ( 'NONE', #464, #1325, #793 ) ;
#128 = DIRECTION ( 'NONE',  ( -0.000000000000000000, -0.000000000000000000, -1.000000000000000000 ) ) ;
#129 = VERTEX_POINT ( 'NONE', #913 ) ;
#130 = ORIENTED_EDGE ( 'NONE', *, *, #918, .F. ) ;
#131 = EDGE_CURVE ( 'NONE', #875, #434, #898, .T. ) ;
#132 = ORIENTED_EDGE ( 'NONE', *, *, #267, .F. ) ;
#133 = DIRECTION ( 'NONE',  ( -0.000000000000000000, -0.000000000000000000, -1.000000000000000000 ) ) ;
#134 = EDGE_CURVE ( 'NONE', #949, #859, #486, .T. ) ;
#135 = ADVANCED_FACE ( 'NONE', ( #476 ), #587, .F. ) ;
#136 = SECURITY_CLASSIFICATION_LEVEL ( 'unclassified' ) ;
#137 = CARTESIAN_POINT ( 'NONE',  ( -22.50000000000000000, 8.428571428571425272, 23.00000000000000000 ) ) ;
#138 = DIRECTION ( 'NONE',  ( -0.000000000000000000, -0.000000000000000000, -1.000000000000000000 ) ) ;
#139 = CARTESIAN_POINT ( 'NONE',  ( 22.50000000000000000, -14.71428571428571530, 23.00000000000000000 ) ) ;
#140 = ORIENTED_EDGE ( 'NONE', *, *, #976, .F. ) ;
#141 = ORIENTED_EDGE ( 'NONE', *, *, #412, .F. ) ;
#142 = DIRECTION ( 'NONE',  ( 0.000000000000000000, 1.000000000000000000, 0.000000000000000000 ) ) ;
#143 = LINE ( 'NONE', #126, #37 ) ;
#144 = PLANE ( 'NONE',  #991 ) ;
#145 = CARTESIAN_POINT ( 'NONE',  ( -40.00000000000000000, 30.00000000000000000, 0.000000000000000000 ) ) ;
#146 = ORIENTED_EDGE ( 'NONE', *, *, #335, .T. ) ;
#147 = EDGE_LOOP ( 'NONE', ( #113, #107, #1273, #1372 ) ) ;
#148 = FACE_OUTER_BOUND ( 'NONE', #323, .T. ) ;
#149 = DIRECTION ( 'NONE',  ( 1.000000000000000000, 0.000000000000000000, 0.000000000000000000 ) ) ;
#150 = VECTOR ( 'NONE', #1145, 1000.000000000000000 ) ;
#151 = DIRECTION ( 'NONE',  ( 0.000000000000000000, 0.000000000000000000, 1.000000000000000000 ) ) ;
#152 = VECTOR ( 'NONE', #777, 1000.000000000000000 ) ;
#153 = AXIS2_PLACEMENT_3D ( 'NONE', #467, #981, #360 ) ;
#154 = EDGE_CURVE ( 'NONE', #983, #2, #1031, .T. ) ;
#155 = LINE ( 'NONE', #571, #1037 ) ;
#156 = CARTESIAN_POINT ( 'NONE',  ( -22.50000000000000000, -16.71428571428571530, 23.00000000000000000 ) ) ;
#157 = EDGE_LOOP ( 'NONE', ( #640, #759, #1163, #1016 ) ) ;
#158 = ORIENTED_EDGE ( 'NONE', *, *, #824, .F. ) ;
#159 = FACE_BOUND ( 'NONE', #50, .T. ) ;
#160 = LINE ( 'NONE', #1011, #965 ) ;
#161 = CARTESIAN_POINT ( 'NONE',  ( -22.50000000000000000, 16.71428571428571530, 23.00000000000000000 ) ) ;
#162 = CARTESIAN_POINT ( 'NONE',  ( 40.00000000000000000, 30.00000000000000000, 0.000000000000000000 ) ) ;
#163 = CARTESIAN_POINT ( 'NONE',  ( -22.50000000000000000, -16.71428571428571530, 5.000000000000000000 ) ) ;
#164 = VERTEX_POINT ( 'NONE', #799 ) ;
#165 = EDGE_LOOP ( 'NONE', ( #1179, #892, #734, #11 ) ) ;
#166 = CARTESIAN_POINT ( 'NONE',  ( -22.50000000000000000, -14.71428571428571530, 5.000000000000000000 ) ) ;
#167 = CARTESIAN_POINT ( 'NONE',  ( 0.000000000000000000, 0.000000000000000000, 23.00000000000000000 ) ) ;
#168 = CARTESIAN_POINT ( 'NONE',  ( 40.00000000000000000, -30.00000000000000000, 5.000000000000000000 ) ) ;
#169 = FACE_OUTER_BOUND ( 'NONE', #165, .T. ) ;
#170 = PLANE ( 'NONE',  #454 ) ;
#171 = ORIENTED_EDGE ( 'NONE', *, *, #1237, .T. ) ;
#172 = EDGE_CURVE ( 'NONE', #839, #255, #282, .T. ) ;
#173 = ORIENTED_EDGE ( 'NONE', *, *, #1136, .F. ) ;
#174 = DIRECTION ( 'NONE',  ( 0.000000000000000000, 0.000000000000000000, 1.000000000000000000 ) ) ;
#175 = DIRECTION ( 'NONE',  ( 0.000000000000000000, 1.000000000000000000, 0.000000000000000000 ) ) ;
#176 = VECTOR ( 'NONE', #28, 1000.000000000000000 ) ;
#177 = DIRECTION ( 'NONE',  ( 0.000000000000000000, -1.000000000000000000, 0.000000000000000000 ) ) ;
#178 = AXIS2_PLACEMENT_3D ( 'NONE', #1240, #697, #1116 ) ;
#179 = DIRECTION ( 'NONE',  ( 0.000000000000000000, -1.000000000000000000, 0.000000000000000000 ) ) ;
#180 = ORIENTED_EDGE ( 'NONE', *, *, #195, .F. ) ;
#181 = EDGE_CURVE ( 'NONE', #1305, #950, #694, .T. ) ;
#182 = ADVANCED_FACE ( 'NONE', ( #596 ), #74, .F. ) ;
#183 = CARTESIAN_POINT ( 'NONE',  ( -22.50000000000000000, -22.99999999999999645, 23.00000000000000000 ) ) ;
#184 = CARTESIAN_POINT ( 'NONE',  ( -22.50000000000000000, 20.99999999999999645, 23.00000000000000000 ) ) ;
#185 = DIRECTION ( 'NONE',  ( -0.000000000000000000, -0.000000000000000000, -1.000000000000000000 ) ) ;
#186 = PLANE ( 'NONE',  #347 ) ;
#187 = ORIENTED_EDGE ( 'NONE', *, *, #189, .T. ) ;
#188 = CALENDAR_DATE ( 2026, 7, 7 ) ;
#189 = EDGE_CURVE ( 'NONE', #787, #773, #613, .T. ) ;
#190 = LINE ( 'NONE', #605, #1247 ) ;
#191 = CARTESIAN_POINT ( 'NONE',  ( -22.50000000000000000, 0.000000000000000000, 5.000000000000000000 ) ) ;
#192 = ADVANCED_BREP_SHAPE_REPRESENTATION ( 'stage1_geometry', ( #333, #326 ), #724 ) ;
#193 = CARTESIAN_POINT ( 'NONE',  ( 0.000000000000000000, 14.71428571428571530, 5.000000000000000000 ) ) ;
#194 = VECTOR ( 'NONE', #122, 1000.000000000000000 ) ;
#195 = EDGE_CURVE ( 'NONE', #742, #1048, #812, .T. ) ;
#196 = DIRECTION ( 'NONE',  ( 0.000000000000000000, -0.000000000000000000, 1.000000000000000000 ) ) ;
#197 = AXIS2_PLACEMENT_3D ( 'NONE', #516, #211, #110 ) ;
#198 = VECTOR ( 'NONE', #510, 1000.000000000000000 ) ;
#199 = LOCAL_TIME ( 11, 56, 27.00000000000000000, #439 ) ;
#200 = APPLICATION_PROTOCOL_DEFINITION ( 'international standard', 'config_control_design', 1994, #1298 ) ;
#201 = CARTESIAN_POINT ( 'NONE',  ( -22.50000000000000000, 8.428571428571425272, 5.000000000000000000 ) ) ;
#202 = DIRECTION ( 'NONE',  ( 0.000000000000000000, 1.000000000000000000, 0.000000000000000000 ) ) ;
#203 = EDGE_CURVE ( 'NONE', #356, #26, #498, .T. ) ;
#204 = PERSON_AND_ORGANIZATION ( #709, #272 ) ;
#205 = CARTESIAN_POINT ( 'NONE',  ( 22.50000000000000000, 20.99999999999999645, 23.00000000000000000 ) ) ;
#206 = CARTESIAN_POINT ( 'NONE',  ( -22.50000000000000000, 23.00000000000000000, 23.00000000000000000 ) ) ;
#207 = VERTEX_POINT ( 'NONE', #302 ) ;
#208 = EDGE_CURVE ( 'NONE', #33, #955, #715, .T. ) ;
#209 = ADVANCED_FACE ( 'NONE', ( #505 ), #927, .F. ) ;
#210 = PLANE ( 'NONE',  #817 ) ;
#211 = DIRECTION ( 'NONE',  ( 0.000000000000000000, 1.000000000000000000, 0.000000000000000000 ) ) ;
#212 = ORIENTED_EDGE ( 'NONE', *, *, #660, .F. ) ;
#213 = ORIENTED_EDGE ( 'NONE', *, *, #870, .T. ) ;
#214 = ORIENTED_EDGE ( 'NONE', *, *, #384, .T. ) ;
#215 = VECTOR ( 'NONE', #756, 1000.000000000000000 ) ;
#216 = ADVANCED_FACE ( 'NONE', ( #1256 ), #508, .F. ) ;
#217 = PERSON_AND_ORGANIZATION ( #709, #272 ) ;
#218 = AXIS2_PLACEMENT_3D ( 'NONE', #472, #365, #1115 ) ;
#219 = LINE ( 'NONE', #515, #1131 ) ;
#220 = FACE_OUTER_BOUND ( 'NONE', #588, .T. ) ;
#221 = EDGE_LOOP ( 'NONE', ( #132, #629, #180, #842 ) ) ;
#222 = ORIENTED_EDGE ( 'NONE', *, *, #660, .T. ) ;
#223 = VERTEX_POINT ( 'NONE', #733 ) ;
#224 = DIRECTION ( 'NONE',  ( 0.000000000000000000, -1.000000000000000000, 0.000000000000000000 ) ) ;
#225 = EDGE_CURVE ( 'NONE', #422, #416, #616, .T. ) ;
#226 = DIRECTION ( 'NONE',  ( -0.000000000000000000, -0.000000000000000000, -1.000000000000000000 ) ) ;
#227 = PLANE ( 'NONE',  #739 ) ;
#228 = EDGE_CURVE ( 'NONE', #801, #652, #1043, .T. ) ;
#229 = ORIENTED_EDGE ( 'NONE', *, *, #1021, .T. ) ;
#230 = VERTEX_POINT ( 'NONE', #1281 ) ;
#231 = ORIENTED_EDGE ( 'NONE', *, *, #713, .F. ) ;
#232 = ORIENTED_EDGE ( 'NONE', *, *, #567, .F. ) ;
#233 = COORDINATED_UNIVERSAL_TIME_OFFSET ( 8, 0, .AHEAD. ) ;
#234 = CARTESIAN_POINT ( 'NONE',  ( 22.50000000000000000, 8.428571428571425272, 23.00000000000000000 ) ) ;
#235 = CARTESIAN_POINT ( 'NONE',  ( -22.50000000000000000, -14.71428571428571530, 23.00000000000000000 ) ) ;
#236 = EDGE_LOOP ( 'NONE', ( #549, #363, #900, #964 ) ) ;
#237 = EDGE_CURVE ( 'NONE', #443, #742, #105, .T. ) ;
#238 = ORIENTED_EDGE ( 'NONE', *, *, #855, .F. ) ;
#239 = ORIENTED_EDGE ( 'NONE', *, *, #1092, .T. ) ;
#240 = DIRECTION ( 'NONE',  ( 0.000000000000000000, 1.000000000000000000, 0.000000000000000000 ) ) ;
#241 = VECTOR ( 'NONE', #133, 1000.000000000000000 ) ;
#242 = VECTOR ( 'NONE', #94, 1000.000000000000000 ) ;
#243 = VECTOR ( 'NONE', #1067, 1000.000000000000000 ) ;
#244 = CARTESIAN_POINT ( 'NONE',  ( 40.00000000000000000, -30.00000000000000000, 5.000000000000000000 ) ) ;
#245 = LINE ( 'NONE', #871, #1076 ) ;
#246 = EDGE_CURVE ( 'NONE', #164, #532, #319, .T. ) ;
#247 = CARTESIAN_POINT ( 'NONE',  ( 0.000000000000000000, 20.99999999999999645, 5.000000000000000000 ) ) ;
#248 = ORIENTED_EDGE ( 'NONE', *, *, #29, .F. ) ;
#249 = VERTEX_POINT ( 'NONE', #329 ) ;
#250 = FACE_OUTER_BOUND ( 'NONE', #461, .T. ) ;
#251 = DIRECTION ( 'NONE',  ( -0.000000000000000000, -0.000000000000000000, -1.000000000000000000 ) ) ;
#252 = CARTESIAN_POINT ( 'NONE',  ( 0.000000000000000000, 0.000000000000000000, 23.00000000000000000 ) ) ;
#253 = PLANE ( 'NONE',  #1053 ) ;
#254 = EDGE_LOOP ( 'NONE', ( #753, #213, #1063, #866 ) ) ;
#255 = VERTEX_POINT ( 'NONE', #725 ) ;
#256 = CARTESIAN_POINT ( 'NONE',  ( -22.50000000000000000, -8.428571428571428825, 23.00000000000000000 ) ) ;
#257 = CARTESIAN_POINT ( 'NONE',  ( 22.50000000000000000, 10.42857142857142705, 23.00000000000000000 ) ) ;
#258 = CC_DESIGN_PERSON_AND_ORGANIZATION_ASSIGNMENT ( #553, #951, ( #1328 ) ) ;
#259 = EDGE_CURVE ( 'NONE', #26, #865, #424, .T. ) ;
#260 = DIRECTION ( 'NONE',  ( 0.000000000000000000, -1.000000000000000000, 0.000000000000000000 ) ) ;
#261 = DIRECTION ( 'NONE',  ( 0.000000000000000000, 0.000000000000000000, 1.000000000000000000 ) ) ;
#262 = PLANE ( 'NONE',  #429 ) ;
#263 = ORIENTED_EDGE ( 'NONE', *, *, #1079, .F. ) ;
#264 = ORIENTED_EDGE ( 'NONE', *, *, #1029, .T. ) ;
#265 = FACE_OUTER_BOUND ( 'NONE', #1155, .T. ) ;
#266 = PLANE ( 'NONE',  #218 ) ;
#267 = EDGE_CURVE ( 'NONE', #833, #443, #1170, .T. ) ;
#268 = CARTESIAN_POINT ( 'NONE',  ( 22.50000000000000000, -10.42857142857142705, 5.000000000000000888 ) ) ;
#269 = AXIS2_PLACEMENT_3D ( 'NONE', #985, #46, #664 ) ;
#270 = VECTOR ( 'NONE', #40, 1000.000000000000000 ) ;
#271 = LINE ( 'NONE', #433, #873 ) ;
#272 = ORGANIZATION ( 'UNSPECIFIED', 'UNSPECIFIED', '' ) ;
#273 = DIRECTION ( 'NONE',  ( 0.000000000000000000, -0.000000000000000000, 1.000000000000000000 ) ) ;
#274 = ORIENTED_EDGE ( 'NONE', *, *, #1061, .F. ) ;
#276 = ORIENTED_EDGE ( 'NONE', *, *, #1326, .F. ) ;
#275 = APPLICATION_CONTEXT ( 'configuration controlled 3d designs of mechanical parts and assemblies' ) ;
#277 = ORIENTED_EDGE ( 'NONE', *, *, #663, .F. ) ;
#278 = CARTESIAN_POINT ( 'NONE',  ( -22.50000000000000000, 23.00000000000000000, 23.00000000000000000 ) ) ;
#279 = FACE_OUTER_BOUND ( 'NONE', #512, .T. ) ;
#280 = DIRECTION ( 'NONE',  ( 1.000000000000000000, 0.000000000000000000, 0.000000000000000000 ) ) ;
#281 = FACE_OUTER_BOUND ( 'NONE', #1346, .T. ) ;
#282 = LINE ( 'NONE', #290, #500 ) ;
#283 = ORIENTED_EDGE ( 'NONE', *, *, #918, .T. ) ;
#284 = ORIENTED_EDGE ( 'NONE', *, *, #228, .F. ) ;
#285 = PLANE ( 'NONE',  #127 ) ;
#286 = DIRECTION ( 'NONE',  ( -0.000000000000000000, -0.000000000000000000, -1.000000000000000000 ) ) ;
#287 = DIRECTION ( 'NONE',  ( -0.000000000000000000, -0.000000000000000000, -1.000000000000000000 ) ) ;
#288 = DIRECTION ( 'NONE',  ( 0.000000000000000000, 0.000000000000000000, -1.000000000000000000 ) ) ;
#289 = ADVANCED_FACE ( 'NONE', ( #220 ), #8, .F. ) ;
#290 = CARTESIAN_POINT ( 'NONE',  ( -22.50000000000000000, -22.99999999999999645, 23.00000000000000000 ) ) ;
#291 = EDGE_CURVE ( 'NONE', #1306, #676, #1159, .T. ) ;
#292 = ORIENTED_EDGE ( 'NONE', *, *, #237, .T. ) ;
#293 = DIRECTION ( 'NONE',  ( 0.000000000000000000, -1.000000000000000000, 0.000000000000000000 ) ) ;
#294 = PERSON_AND_ORGANIZATION ( #709, #272 ) ;
#295 = VECTOR ( 'NONE', #566, 1000.000000000000000 ) ;
#296 = VECTOR ( 'NONE', #38, 1000.000000000000000 ) ;
#297 = DIRECTION ( 'NONE',  ( 0.000000000000000000, 1.000000000000000000, 0.000000000000000000 ) ) ;
#298 = VECTOR ( 'NONE', #615, 1000.000000000000000 ) ;
#299 = DIRECTION ( 'NONE',  ( 1.000000000000000000, -0.000000000000000000, 0.000000000000000000 ) ) ;
#300 = ORIENTED_EDGE ( 'NONE', *, *, #916, .F. ) ;
#301 = CARTESIAN_POINT ( 'NONE',  ( -22.50000000000000000, 23.00000000000000000, 23.00000000000000000 ) ) ;
#302 = CARTESIAN_POINT ( 'NONE',  ( -22.50000000000000000, 4.142857142857142350, 23.00000000000000000 ) ) ;
#303 = LINE ( 'NONE', #92, #1149 ) ;
#304 = LINE ( 'NONE', #821, #198 ) ;
#305 = DIRECTION ( 'NONE',  ( -1.000000000000000000, 0.000000000000000000, -0.000000000000000000 ) ) ;
#306 = APPROVAL_DATE_TIME ( #823, #1035 ) ;
#307 = LINE ( 'NONE', #1040, #101 ) ;
#308 = CARTESIAN_POINT ( 'NONE',  ( -22.50000000000000000, 20.99999999999999645, 23.00000000000000000 ) ) ;
#309 = VECTOR ( 'NONE', #138, 1000.000000000000000 ) ;
#310 = VECTOR ( 'NONE', #293, 1000.000000000000000 ) ;
#311 = CALENDAR_DATE ( 2026, 7, 7 ) ;
#312 = CARTESIAN_POINT ( 'NONE',  ( 22.50000000000000000, 14.71428571428571530, 23.00000000000000000 ) ) ;
#313 = DIRECTION ( 'NONE',  ( 0.000000000000000000, -0.000000000000000000, -1.000000000000000000 ) ) ;
#314 = ORIENTED_EDGE ( 'NONE', *, *, #77, .F. ) ;
#315 = DIRECTION ( 'NONE',  ( -0.000000000000000000, -0.000000000000000000, -1.000000000000000000 ) ) ;
#316 = CARTESIAN_POINT ( 'NONE',  ( 22.50000000000000000, -16.71428571428571530, 5.000000000000000888 ) ) ;
#317 = EDGE_LOOP ( 'NONE', ( #332, #292, #1002, #735 ) ) ;
#318 = PLANE ( 'NONE',  #963 ) ;
#319 = LINE ( 'NONE', #407, #1165 ) ;
#320 = VECTOR ( 'NONE', #1238, 1000.000000000000000 ) ;
#321 = ORIENTED_EDGE ( 'NONE', *, *, #1160, .F. ) ;
#322 = VECTOR ( 'NONE', #1363, 1000.000000000000000 ) ;
#323 = EDGE_LOOP ( 'NONE', ( #973, #1090, #68, #214 ) ) ;
#324 = VERTEX_POINT ( 'NONE', #206 ) ;
#325 = AXIS2_PLACEMENT_3D ( 'NONE', #1194, #485, #1202 ) ;
#326 = AXIS2_PLACEMENT_3D ( 'NONE', #720, #400, #820 ) ;
#327 = LINE ( 'NONE', #447, #938 ) ;
#328 = PLANE ( 'NONE',  #1148 ) ;
#329 = CARTESIAN_POINT ( 'NONE',  ( 22.50000000000000000, -2.142857142857142350, 23.00000000000000000 ) ) ;
#330 = ORIENTED_EDGE ( 'NONE', *, *, #891, .F. ) ;
#331 = ORIENTED_EDGE ( 'NONE', *, *, #335, .F. ) ;
#332 = ORIENTED_EDGE ( 'NONE', *, *, #51, .T. ) ;
#333 = MANIFOLD_SOLID_BREP ( 'Boss-Extrude9', #13 ) ;
#334 = CARTESIAN_POINT ( 'NONE',  ( -22.50000000000000000, 16.71428571428571530, 23.00000000000000000 ) ) ;
#335 = EDGE_CURVE ( 'NONE', #255, #993, #620, .T. ) ;
#336 = CARTESIAN_POINT ( 'NONE',  ( 22.50000000000000000, -4.142857142857142350, 23.00000000000000000 ) ) ;
#337 = ORIENTED_EDGE ( 'NONE', *, *, #581, .T. ) ;
#338 = EDGE_LOOP ( 'NONE', ( #757, #1064, #331, #99 ) ) ;
#339 = ORIENTED_EDGE ( 'NONE', *, *, #203, .F. ) ;
#340 = LINE ( 'NONE', #44, #295 ) ;
#341 = CARTESIAN_POINT ( 'NONE',  ( -22.50000000000000000, 0.000000000000000000, 5.000000000000000000 ) ) ;
#342 = EDGE_CURVE ( 'NONE', #1072, #494, #1047, .T. ) ;
#343 = CARTESIAN_POINT ( 'NONE',  ( 22.50000000000000000, 14.71428571428571530, 23.00000000000000000 ) ) ;
#344 = VERTEX_POINT ( 'NONE', #848 ) ;
#345 = VERTEX_POINT ( 'NONE', #316 ) ;
#346 = DIRECTION ( 'NONE',  ( 1.000000000000000000, 0.000000000000000000, 0.000000000000000000 ) ) ;
#347 = AXIS2_PLACEMENT_3D ( 'NONE', #822, #1349, #1025 ) ;
#348 = VECTOR ( 'NONE', #1024, 1000.000000000000000 ) ;
#349 = CARTESIAN_POINT ( 'NONE',  ( -22.50000000000000000, 20.99999999999999645, 23.00000000000000000 ) ) ;
#350 = DIRECTION ( 'NONE',  ( 1.000000000000000000, 0.000000000000000000, 0.000000000000000000 ) ) ;
#351 = FACE_OUTER_BOUND ( 'NONE', #893, .T. ) ;
#352 = ORIENTED_EDGE ( 'NONE', *, *, #1315, .F. ) ;
#353 = ORIENTED_EDGE ( 'NONE', *, *, #490, .F. ) ;
#354 = ADVANCED_FACE ( 'NONE', ( #1060 ), #98, .F. ) ;
#355 = ADVANCED_FACE ( 'NONE', ( #836 ), #227, .F. ) ;
#356 = VERTEX_POINT ( 'NONE', #1371 ) ;
#357 = DIRECTION ( 'NONE',  ( 0.000000000000000000, 1.000000000000000000, 0.000000000000000000 ) ) ;
#358 = CARTESIAN_POINT ( 'NONE',  ( -22.50000000000000000, 0.000000000000000000, 5.000000000000000000 ) ) ;
#359 = CARTESIAN_POINT ( 'NONE',  ( 22.50000000000000000, -16.71428571428571530, 23.00000000000000000 ) ) ;
#360 = DIRECTION ( 'NONE',  ( -1.000000000000000000, 0.000000000000000000, -0.000000000000000000 ) ) ;
#361 = ORIENTED_EDGE ( 'NONE', *, *, #1092, .F. ) ;
#362 = ADVANCED_FACE ( 'NONE', ( #1358 ), #405, .F. ) ;
#363 = ORIENTED_EDGE ( 'NONE', *, *, #267, .T. ) ;
#364 = LINE ( 'NONE', #1108, #1050 ) ;
#365 = DIRECTION ( 'NONE',  ( 0.000000000000000000, 0.000000000000000000, -1.000000000000000000 ) ) ;
#366 = PLANE ( 'NONE',  #902 ) ;
#367 = FACE_OUTER_BOUND ( 'NONE', #1322, .T. ) ;
#368 = LINE ( 'NONE', #247, #397 ) ;
#369 = ORIENTED_EDGE ( 'NONE', *, *, #1019, .T. ) ;
#370 = ORIENTED_EDGE ( 'NONE', *, *, #910, .F. ) ;
#371 = ORIENTED_EDGE ( 'NONE', *, *, #910, .T. ) ;
#372 = PLANE ( 'NONE',  #1352 ) ;
#373 = LINE ( 'NONE', #481, #593 ) ;
#374 = VECTOR ( 'NONE', #1250, 1000.000000000000000 ) ;
#375 = VECTOR ( 'NONE', #1099, 1000.000000000000000 ) ;
#376 = DIRECTION ( 'NONE',  ( -0.000000000000000000, -1.000000000000000000, -0.000000000000000000 ) ) ;
#377 = VECTOR ( 'NONE', #76, 1000.000000000000000 ) ;
#378 = LINE ( 'NONE', #145, #924 ) ;
#379 = DIRECTION ( 'NONE',  ( 0.000000000000000000, -1.000000000000000000, 0.000000000000000000 ) ) ;
#380 = ORIENTED_EDGE ( 'NONE', *, *, #1214, .F. ) ;
#381 = EDGE_LOOP ( 'NONE', ( #277, #789, #471, #557 ) ) ;
#382 = CARTESIAN_POINT ( 'NONE',  ( -22.50000000000000000, 20.99999999999999645, 23.00000000000000000 ) ) ;
#383 = CARTESIAN_POINT ( 'NONE',  ( 22.50000000000000000, -21.00000000000000000, 23.00000000000000000 ) ) ;
#384 = EDGE_CURVE ( 'NONE', #1122, #597, #1055, .T. ) ;
#385 = DIRECTION ( 'NONE',  ( -0.000000000000000000, -0.000000000000000000, -1.000000000000000000 ) ) ;
#386 = CARTESIAN_POINT ( 'NONE',  ( 22.50000000000000000, -16.71428571428571530, 23.00000000000000000 ) ) ;
#387 = DIRECTION ( 'NONE',  ( 0.000000000000000000, -0.000000000000000000, -1.000000000000000000 ) ) ;
#388 = ORIENTED_EDGE ( 'NONE', *, *, #671, .F. ) ;
#389 = CARTESIAN_POINT ( 'NONE',  ( 22.50000000000000000, 2.142857142857142350, 23.00000000000000000 ) ) ;
#390 = LINE ( 'NONE', #1150, #876 ) ;
#391 = CARTESIAN_POINT ( 'NONE',  ( 0.000000000000000000, -10.42857142857142705, 5.000000000000000000 ) ) ;
#392 = ORIENTED_EDGE ( 'NONE', *, *, #1361, .F. ) ;
#393 = DIRECTION ( 'NONE',  ( -0.000000000000000000, -0.000000000000000000, -1.000000000000000000 ) ) ;
#394 = VECTOR ( 'NONE', #719, 1000.000000000000000 ) ;
#395 = VECTOR ( 'NONE', #251, 1000.000000000000000 ) ;
#396 = DIRECTION ( 'NONE',  ( 0.000000000000000000, -0.000000000000000000, -1.000000000000000000 ) ) ;
#397 = VECTOR ( 'NONE', #556, 1000.000000000000000 ) ;
#398 = FACE_BOUND ( 'NONE', #221, .T. ) ;
#399 = EDGE_CURVE ( 'NONE', #422, #356, #1192, .T. ) ;
#400 = DIRECTION ( 'NONE',  ( 0.000000000000000000, 0.000000000000000000, 1.000000000000000000 ) ) ;
#401 = LINE ( 'NONE', #933, #1105 ) ;
#402 = DIRECTION ( 'NONE',  ( 0.000000000000000000, -1.000000000000000000, 0.000000000000000000 ) ) ;
#403 = APPROVAL_ROLE ( '' ) ;
#404 = CARTESIAN_POINT ( 'NONE',  ( -22.50000000000000000, -8.428571428571428825, 23.00000000000000000 ) ) ;
#405 = PLANE ( 'NONE',  #608 ) ;
#406 = CARTESIAN_POINT ( 'NONE',  ( 22.50000000000000000, -14.71428571428571530, 5.000000000000000000 ) ) ;
#407 = CARTESIAN_POINT ( 'NONE',  ( -40.00000000000000000, 30.00000000000000000, 5.000000000000000000 ) ) ;
#408 = VECTOR ( 'NONE', #376, 1000.000000000000000 ) ;
#409 = VECTOR ( 'NONE', #1014, 1000.000000000000000 ) ;
#410 = EDGE_LOOP ( 'NONE', ( #637, #677, #370, #1195 ) ) ;
#411 = APPROVAL_DATE_TIME ( #834, #1139 ) ;
#412 = EDGE_CURVE ( 'NONE', #164, #631, #245, .T. ) ;
#413 = CARTESIAN_POINT ( 'NONE',  ( -22.50000000000000000, -10.42857142857142705, 23.00000000000000000 ) ) ;
#414 = CC_DESIGN_PERSON_AND_ORGANIZATION_ASSIGNMENT ( #294, #88, ( #1232 ) ) ;
#415 = DIRECTION ( 'NONE',  ( 0.000000000000000000, 0.000000000000000000, -1.000000000000000000 ) ) ;
#416 = VERTEX_POINT ( 'NONE', #1201 ) ;
#417 = EDGE_CURVE ( 'NONE', #1178, #1314, #1087, .T. ) ;
#418 = LINE ( 'NONE', #7, #630 ) ;
#419 = DIRECTION ( 'NONE',  ( 1.000000000000000000, 0.000000000000000000, 0.000000000000000000 ) ) ;
#420 = VERTEX_POINT ( 'NONE', #1208 ) ;
#421 = ORIENTED_EDGE ( 'NONE', *, *, #671, .T. ) ;
#422 = VERTEX_POINT ( 'NONE', #117 ) ;
#423 = LINE ( 'NONE', #97, #1302 ) ;
#424 = LINE ( 'NONE', #749, #901 ) ;
#425 = ORIENTED_EDGE ( 'NONE', *, *, #1100, .T. ) ;
#426 = AXIS2_PLACEMENT_3D ( 'NONE', #887, #747, #535 ) ;
#427 = ORIENTED_EDGE ( 'NONE', *, *, #542, .F. ) ;
#428 = ORIENTED_EDGE ( 'NONE', *, *, #1182, .T. ) ;
#429 = AXIS2_PLACEMENT_3D ( 'NONE', #579, #906, #273 ) ;
#430 = EDGE_CURVE ( 'NONE', #1313, #249, #971, .T. ) ;
#431 = APPROVAL_PERSON_ORGANIZATION ( #915, #1035, #403 ) ;
#432 = DIRECTION ( 'NONE',  ( -1.000000000000000000, 0.000000000000000000, 0.000000000000000000 ) ) ;
#433 = CARTESIAN_POINT ( 'NONE',  ( 22.50000000000000000, 0.000000000000000000, 5.000000000000000000 ) ) ;
#434 = VERTEX_POINT ( 'NONE', #235 ) ;
#435 = ORIENTED_EDGE ( 'NONE', *, *, #939, .F. ) ;
#436 = ORIENTED_EDGE ( 'NONE', *, *, #259, .T. ) ;
#437 = CARTESIAN_POINT ( 'NONE',  ( 22.50000000000000000, 16.71428571428571530, 5.000000000000000000 ) ) ;
#438 = EDGE_CURVE ( 'NONE', #33, #344, #880, .T. ) ;
#439 = COORDINATED_UNIVERSAL_TIME_OFFSET ( 8, 0, .AHEAD. ) ;
#440 = EDGE_CURVE ( 'NONE', #1186, #983, #271, .T. ) ;
#441 = CARTESIAN_POINT ( 'NONE',  ( -22.50000000000000000, 14.71428571428571530, 23.00000000000000000 ) ) ;
#442 = LINE ( 'NONE', #1094, #296 ) ;
#443 = VERTEX_POINT ( 'NONE', #47 ) ;
#444 = VERTEX_POINT ( 'NONE', #562 ) ;
#445 = VERTEX_POINT ( 'NONE', #962 ) ;
#446 = ORIENTED_EDGE ( 'NONE', *, *, #1049, .F. ) ;
#447 = CARTESIAN_POINT ( 'NONE',  ( -22.50000000000000000, 0.000000000000000000, 5.000000000000000000 ) ) ;
#448 = EDGE_CURVE ( 'NONE', #1211, #1305, #785, .T. ) ;
#449 = DIRECTION ( 'NONE',  ( -1.000000000000000000, 0.000000000000000000, -0.000000000000000000 ) ) ;
#450 = CARTESIAN_POINT ( 'NONE',  ( 0.000000000000000000, 0.000000000000000000, 23.00000000000000000 ) ) ;
#451 = ORIENTED_EDGE ( 'NONE', *, *, #131, .T. ) ;
#452 = ORIENTED_EDGE ( 'NONE', *, *, #521, .F. ) ;
#453 = FACE_BOUND ( 'NONE', #106, .T. ) ;
#454 = AXIS2_PLACEMENT_3D ( 'NONE', #1126, #1135, #1015 ) ;
#455 = VECTOR ( 'NONE', #1111, 1000.000000000000000 ) ;
#456 = DIRECTION ( 'NONE',  ( -1.000000000000000000, 0.000000000000000000, 0.000000000000000000 ) ) ;
#457 = VECTOR ( 'NONE', #602, 1000.000000000000000 ) ;
#458 = LINE ( 'NONE', #970, #152 ) ;
#459 = CARTESIAN_POINT ( 'NONE',  ( 40.00000000000000000, -30.00000000000000000, 5.000000000000000000 ) ) ;
#460 = CARTESIAN_POINT ( 'NONE',  ( 22.50000000000000000, 23.00000000000000000, 23.00000000000000000 ) ) ;
#461 = EDGE_LOOP ( 'NONE', ( #519, #171, #18, #427 ) ) ;
#462 = EDGE_LOOP ( 'NONE', ( #1283, #574, #300, #158 ) ) ;
#463 = ORIENTED_EDGE ( 'NONE', *, *, #57, .F. ) ;
#464 = CARTESIAN_POINT ( 'NONE',  ( -22.50000000000000000, 10.42857142857142705, 23.00000000000000000 ) ) ;
#465 = FACE_OUTER_BOUND ( 'NONE', #1204, .T. ) ;
#466 = LINE ( 'NONE', #674, #1245 ) ;
#467 = CARTESIAN_POINT ( 'NONE',  ( 0.000000000000000000, 0.000000000000000000, 23.00000000000000000 ) ) ;
#468 = EDGE_LOOP ( 'NONE', ( #632, #1334, #337, #531 ) ) ;
#469 = EDGE_LOOP ( 'NONE', ( #752, #141, #487, #750 ) ) ;
#470 = EDGE_CURVE ( 'NONE', #801, #865, #1319, .T. ) ;
#471 = ORIENTED_EDGE ( 'NONE', *, *, #1304, .F. ) ;
#472 = CARTESIAN_POINT ( 'NONE',  ( 0.000000000000000000, 0.000000000000000000, 23.00000000000000000 ) ) ;
#473 = FACE_OUTER_BOUND ( 'NONE', #696, .T. ) ;
#474 = FACE_OUTER_BOUND ( 'NONE', #882, .T. ) ;
#475 = CARTESIAN_POINT ( 'NONE',  ( -22.50000000000000000, -2.142857142857142350, 5.000000000000000000 ) ) ;
#476 = FACE_OUTER_BOUND ( 'NONE', #992, .T. ) ;
#477 = VERTEX_POINT ( 'NONE', #857 ) ;
#478 = ORIENTED_EDGE ( 'NONE', *, *, #987, .T. ) ;
#479 = FACE_OUTER_BOUND ( 'NONE', #317, .T. ) ;
#480 = ADVANCED_FACE ( 'NONE', ( #665 ), #144, .F. ) ;
#481 = CARTESIAN_POINT ( 'NONE',  ( 22.50000000000000000, 20.99999999999999645, 23.00000000000000000 ) ) ;
#482 = AXIS2_PLACEMENT_3D ( 'NONE', #63, #1006, #1117 ) ;
#483 = VECTOR ( 'NONE', #1000, 1000.000000000000000 ) ;
#484 = LINE ( 'NONE', #168, #592 ) ;
#485 = DIRECTION ( 'NONE',  ( 0.000000000000000000, 1.000000000000000000, 0.000000000000000000 ) ) ;
#486 = LINE ( 'NONE', #1332, #394 ) ;
#487 = ORIENTED_EDGE ( 'NONE', *, *, #611, .F. ) ;
#488 = ORIENTED_EDGE ( 'NONE', *, *, #131, .F. ) ;
#489 = DIRECTION ( 'NONE',  ( -1.000000000000000000, 0.000000000000000000, -0.000000000000000000 ) ) ;
#490 = EDGE_CURVE ( 'NONE', #1313, #650, #1216, .T. ) ;
#491 = LINE ( 'NONE', #1124, #828 ) ;
#492 = PLANE ( 'NONE',  #768 ) ;
#493 = CARTESIAN_POINT ( 'NONE',  ( -22.50000000000000000, 8.428571428571425272, 23.00000000000000000 ) ) ;
#494 = VERTEX_POINT ( 'NONE', #980 ) ;
#495 = LINE ( 'NONE', #607, #87 ) ;
#496 = LINE ( 'NONE', #193, #721 ) ;
#497 = ADVANCED_FACE ( 'NONE', ( #30 ), #1183, .F. ) ;
#498 = LINE ( 'NONE', #919, #374 ) ;
#499 = CARTESIAN_POINT ( 'NONE',  ( 40.00000000000000000, -30.00000000000000000, 0.000000000000000000 ) ) ;
#500 = VECTOR ( 'NONE', #700, 1000.000000000000000 ) ;
#501 = VECTOR ( 'NONE', #763, 1000.000000000000000 ) ;
#502 = AXIS2_PLACEMENT_3D ( 'NONE', #334, #1110, #598 ) ;
#503 = CARTESIAN_POINT ( 'NONE',  ( 22.50000000000000000, -22.99999999999999645, 5.000000000000000888 ) ) ;
#504 = CC_DESIGN_APPROVAL ( #1035, ( #884 ) ) ;
#505 = FACE_OUTER_BOUND ( 'NONE', #157, .T. ) ;
#506 = APPLICATION_PROTOCOL_DEFINITION ( 'international standard', 'config_control_design', 1994, #275 ) ;
#507 = DIRECTION ( 'NONE',  ( 0.000000000000000000, 1.000000000000000000, 0.000000000000000000 ) ) ;
#508 = PLANE ( 'NONE',  #651 ) ;
#509 = EDGE_CURVE ( 'NONE', #780, #908, #466, .T. ) ;
#510 = DIRECTION ( 'NONE',  ( -0.000000000000000000, -1.000000000000000000, -0.000000000000000000 ) ) ;
#511 = CARTESIAN_POINT ( 'NONE',  ( 22.50000000000000000, -10.42857142857142705, 23.00000000000000000 ) ) ;
#512 = EDGE_LOOP ( 'NONE', ( #659, #1062, #276, #529 ) ) ;
#513 = APPROVAL_STATUS ( 'not_yet_approved' ) ;
#514 = ADVANCED_FACE ( 'NONE', ( #988 ), #1301, .F. ) ;
#515 = CARTESIAN_POINT ( 'NONE',  ( 22.50000000000000000, 4.142857142857142350, 23.00000000000000000 ) ) ;
#516 = CARTESIAN_POINT ( 'NONE',  ( -22.50000000000000000, 20.99999999999999645, 23.00000000000000000 ) ) ;
#517 = VECTOR ( 'NONE', #1263, 1000.000000000000000 ) ;
#518 = VECTOR ( 'NONE', #572, 1000.000000000000000 ) ;
#519 = ORIENTED_EDGE ( 'NONE', *, *, #601, .T. ) ;
#520 = CALENDAR_DATE ( 2026, 7, 7 ) ;
#521 = EDGE_CURVE ( 'NONE', #223, #787, #442, .T. ) ;
#522 = DIRECTION ( 'NONE',  ( 1.000000000000000000, -0.000000000000000000, 0.000000000000000000 ) ) ;
#523 = CARTESIAN_POINT ( 'NONE',  ( 0.000000000000000000, 10.42857142857142705, 5.000000000000000000 ) ) ;
#524 = EDGE_LOOP ( 'NONE', ( #1129, #766, #112, #1097 ) ) ;
#525 = ORIENTED_EDGE ( 'NONE', *, *, #430, .T. ) ;
#526 = VERTEX_POINT ( 'NONE', #778 ) ;
#527 = CARTESIAN_POINT ( 'NONE',  ( -22.50000000000000000, -4.142857142857142350, 23.00000000000000000 ) ) ;
#528 = CARTESIAN_POINT ( 'NONE',  ( 22.50000000000000000, 2.142857142857142350, 23.00000000000000000 ) ) ;
#529 = ORIENTED_EDGE ( 'NONE', *, *, #430, .F. ) ;
#530 = APPROVAL ( #513, 'UNSPECIFIED' ) ;
#531 = ORIENTED_EDGE ( 'NONE', *, *, #172, .T. ) ;
#532 = VERTEX_POINT ( 'NONE', #1102 ) ;
#533 = APPROVAL_PERSON_ORGANIZATION ( #854, #1139, #761 ) ;
#534 = DATE_TIME_ROLE ( 'classification_date' ) ;
#535 = DIRECTION ( 'NONE',  ( 0.000000000000000000, -0.000000000000000000, 1.000000000000000000 ) ) ;
#536 = CARTESIAN_POINT ( 'NONE',  ( 0.000000000000000000, 2.142857142857142350, 5.000000000000000000 ) ) ;
#537 = DIRECTION ( 'NONE',  ( 0.000000000000000000, 1.000000000000000000, 0.000000000000000000 ) ) ;
#538 = ORIENTED_EDGE ( 'NONE', *, *, #121, .F. ) ;
#539 = VECTOR ( 'NONE', #1293, 1000.000000000000000 ) ;
#540 = ORIENTED_EDGE ( 'NONE', *, *, #891, .T. ) ;
#541 = EDGE_LOOP ( 'NONE', ( #1340, #1203, #392, #140 ) ) ;
#542 = EDGE_CURVE ( 'NONE', #420, #780, #155, .T. ) ;
#543 = VECTOR ( 'NONE', #286, 1000.000000000000000 ) ;
#544 = CARTESIAN_POINT ( 'NONE',  ( 0.000000000000000000, -16.71428571428571530, 5.000000000000000000 ) ) ;
#545 = CALENDAR_DATE ( 2026, 7, 7 ) ;
#546 = AXIS2_PLACEMENT_3D ( 'NONE', #815, #1028, #1138 ) ;
#547 = DIRECTION ( 'NONE',  ( 1.000000000000000000, -0.000000000000000000, 0.000000000000000000 ) ) ;
#548 = CARTESIAN_POINT ( 'NONE',  ( -22.50000000000000000, 14.71428571428571530, 23.00000000000000000 ) ) ;
#549 = ORIENTED_EDGE ( 'NONE', *, *, #1049, .T. ) ;
#550 = ORIENTED_EDGE ( 'NONE', *, *, #1079, .T. ) ;
#551 = VERTEX_POINT ( 'NONE', #888 ) ;
#552 = LINE ( 'NONE', #669, #1190 ) ;
#553 = PERSON_AND_ORGANIZATION ( #709, #272 ) ;
#554 = LINE ( 'NONE', #358, #1351 ) ;
#555 = DIRECTION ( 'NONE',  ( -1.000000000000000000, 0.000000000000000000, 0.000000000000000000 ) ) ;
#556 = DIRECTION ( 'NONE',  ( 1.000000000000000000, -0.000000000000000000, 0.000000000000000000 ) ) ;
#557 = ORIENTED_EDGE ( 'NONE', *, *, #291, .F. ) ;
#558 = ORIENTED_EDGE ( 'NONE', *, *, #976, .T. ) ;
#559 = CARTESIAN_POINT ( 'NONE',  ( -22.50000000000000000, -2.142857142857142350, 23.00000000000000000 ) ) ;
#560 = ADVANCED_FACE ( 'NONE', ( #367 ), #1337, .F. ) ;
#561 = DIRECTION ( 'NONE',  ( 1.000000000000000000, 0.000000000000000000, 0.000000000000000000 ) ) ;
#562 = CARTESIAN_POINT ( 'NONE',  ( -40.00000000000000000, -30.00000000000000000, 0.000000000000000000 ) ) ;
#563 = DIRECTION ( 'NONE',  ( -1.000000000000000000, 0.000000000000000000, -0.000000000000000000 ) ) ;
#564 = ORIENTED_EDGE ( 'NONE', *, *, #1361, .T. ) ;
#565 = ORIENTED_EDGE ( 'NONE', *, *, #83, .T. ) ;
#566 = DIRECTION ( 'NONE',  ( -0.000000000000000000, -0.000000000000000000, -1.000000000000000000 ) ) ;
#567 = EDGE_CURVE ( 'NONE', #948, #955, #1235, .T. ) ;
#568 = DIRECTION ( 'NONE',  ( -1.000000000000000000, -0.000000000000000000, -0.000000000000000000 ) ) ;
#569 = VECTOR ( 'NONE', #1169, 1000.000000000000000 ) ;
#570 = CARTESIAN_POINT ( 'NONE',  ( 22.50000000000000000, 0.000000000000000000, 5.000000000000000000 ) ) ;
#571 = CARTESIAN_POINT ( 'NONE',  ( -22.50000000000000000, 2.142857142857142350, 23.00000000000000000 ) ) ;
#572 = DIRECTION ( 'NONE',  ( -1.000000000000000000, -0.000000000000000000, -0.000000000000000000 ) ) ;
#573 = EDGE_LOOP ( 'NONE', ( #744, #1096, #890, #330 ) ) ;
#574 = ORIENTED_EDGE ( 'NONE', *, *, #440, .T. ) ;
#575 = CARTESIAN_POINT ( 'NONE',  ( -22.50000000000000000, 23.00000000000000000, 5.000000000000000000 ) ) ;
#576 = LINE ( 'NONE', #278, #994 ) ;
#577 = DIRECTION ( 'NONE',  ( -0.000000000000000000, -0.000000000000000000, -1.000000000000000000 ) ) ;
#578 = LINE ( 'NONE', #896, #765 ) ;
#579 = CARTESIAN_POINT ( 'NONE',  ( -22.50000000000000000, -22.99999999999999645, 23.00000000000000000 ) ) ;
#580 = ORIENTED_EDGE ( 'NONE', *, *, #1061, .T. ) ;
#581 = EDGE_CURVE ( 'NONE', #494, #839, #905, .T. ) ;
#582 = ORIENTED_EDGE ( 'NONE', *, *, #633, .T. ) ;
#583 = DIRECTION ( 'NONE',  ( -1.000000000000000000, -0.000000000000000000, -0.000000000000000000 ) ) ;
#584 = DIRECTION ( 'NONE',  ( 0.000000000000000000, 0.000000000000000000, -1.000000000000000000 ) ) ;
#585 = PLANE ( 'NONE',  #1052 ) ;
#586 = DIRECTION ( 'NONE',  ( 0.000000000000000000, 1.000000000000000000, 0.000000000000000000 ) ) ;
#587 = PLANE ( 'NONE',  #921 ) ;
#588 = EDGE_LOOP ( 'NONE', ( #867, #808, #550, #843 ) ) ;
#589 = ORIENTED_EDGE ( 'NONE', *, *, #623, .F. ) ;
#590 = AXIS2_PLACEMENT_3D ( 'NONE', #782, #142, #984 ) ;
#591 = PLANE ( 'NONE',  #708 ) ;
#592 = VECTOR ( 'NONE', #175, 1000.000000000000000 ) ;
#593 = VECTOR ( 'NONE', #1318, 1000.000000000000000 ) ;
#594 = LINE ( 'NONE', #691, #1365 ) ;
#595 = CARTESIAN_POINT ( 'NONE',  ( -22.50000000000000000, 10.42857142857142705, 23.00000000000000000 ) ) ;
#596 = FACE_OUTER_BOUND ( 'NONE', #874, .T. ) ;
#597 = VERTEX_POINT ( 'NONE', #911 ) ;
#598 = DIRECTION ( 'NONE',  ( 0.000000000000000000, -0.000000000000000000, -1.000000000000000000 ) ) ;
#599 = DIRECTION ( 'NONE',  ( -0.000000000000000000, -1.000000000000000000, -0.000000000000000000 ) ) ;
#600 = EDGE_CURVE ( 'NONE', #551, #773, #797, .T. ) ;
#601 = EDGE_CURVE ( 'NONE', #420, #1274, #491, .T. ) ;
#602 = DIRECTION ( 'NONE',  ( -1.000000000000000000, -0.000000000000000000, -0.000000000000000000 ) ) ;
#603 = CARTESIAN_POINT ( 'NONE',  ( 22.50000000000000000, 0.000000000000000000, 5.000000000000000000 ) ) ;
#604 = EDGE_LOOP ( 'NONE', ( #646, #667, #769, #1001 ) ) ;
#605 = CARTESIAN_POINT ( 'NONE',  ( -22.50000000000000000, 2.142857142857142350, 23.00000000000000000 ) ) ;
#606 = CARTESIAN_POINT ( 'NONE',  ( -22.50000000000000000, -2.142857142857142350, 23.00000000000000000 ) ) ;
#607 = CARTESIAN_POINT ( 'NONE',  ( -40.00000000000000000, -30.00000000000000000, 0.000000000000000000 ) ) ;
#608 = AXIS2_PLACEMENT_3D ( 'NONE', #826, #1, #415 ) ;
#609 = VECTOR ( 'NONE', #1134, 1000.000000000000000 ) ;
#610 = DIRECTION ( 'NONE',  ( 1.000000000000000000, 0.000000000000000000, 0.000000000000000000 ) ) ;
#611 = EDGE_CURVE ( 'NONE', #1178, #164, #484, .T. ) ;
#612 = APPROVAL_PERSON_ORGANIZATION ( #204, #530, #936 ) ;
#613 = LINE ( 'NONE', #391, #845 ) ;
#614 = PERSON_AND_ORGANIZATION ( #709, #272 ) ;
#615 = DIRECTION ( 'NONE',  ( -0.000000000000000000, -0.000000000000000000, -1.000000000000000000 ) ) ;
#616 = LINE ( 'NONE', #1271, #85 ) ;
#617 = EDGE_CURVE ( 'NONE', #445, #650, #594, .T. ) ;
#618 = DIRECTION ( 'NONE',  ( -0.000000000000000000, -0.000000000000000000, -1.000000000000000000 ) ) ;
#619 = PLANE ( 'NONE',  #1020 ) ;
#620 = LINE ( 'NONE', #728, #1103 ) ;
#621 = ADVANCED_FACE ( 'NONE', ( #474 ), #585, .F. ) ;
#622 = EDGE_LOOP ( 'NONE', ( #1017, #1221, #353, #954 ) ) ;
#623 = EDGE_CURVE ( 'NONE', #839, #1161, #72, .T. ) ;
#624 = APPROVAL_DATE_TIME ( #1065, #530 ) ;
#625 = CARTESIAN_POINT ( 'NONE',  ( -22.50000000000000000, 4.142857142857142350, 23.00000000000000000 ) ) ;
#626 = VECTOR ( 'NONE', #1339, 1000.000000000000000 ) ;
#627 = CARTESIAN_POINT ( 'NONE',  ( 0.000000000000000000, -21.00000000000000000, 5.000000000000000000 ) ) ;
#628 = AXIS2_PLACEMENT_3D ( 'NONE', #349, #979, #648 ) ;
#629 = ORIENTED_EDGE ( 'NONE', *, *, #1167, .F. ) ;
#630 = VECTOR ( 'NONE', #522, 1000.000000000000000 ) ;
#631 = VERTEX_POINT ( 'NONE', #162 ) ;
#632 = ORIENTED_EDGE ( 'NONE', *, *, #869, .T. ) ;
#633 = EDGE_CURVE ( 'NONE', #1073, #59, #578, .T. ) ;
#634 = DIRECTION ( 'NONE',  ( 0.000000000000000000, -0.000000000000000000, 1.000000000000000000 ) ) ;
#635 = EDGE_CURVE ( 'NONE', #597, #1186, #1200, .T. ) ;
#636 = DIRECTION ( 'NONE',  ( 0.000000000000000000, 0.000000000000000000, -1.000000000000000000 ) ) ;
#637 = ORIENTED_EDGE ( 'NONE', *, *, #600, .T. ) ;
#638 = DESIGN_CONTEXT ( 'detailed design', #275, 'design' ) ;
#639 = ORIENTED_EDGE ( 'NONE', *, *, #1019, .F. ) ;
#640 = ORIENTED_EDGE ( 'NONE', *, *, #916, .T. ) ;
#641 = DIRECTION ( 'NONE',  ( -0.000000000000000000, -1.000000000000000000, -0.000000000000000000 ) ) ;
#642 = CARTESIAN_POINT ( 'NONE',  ( 22.50000000000000000, 20.99999999999999645, 5.000000000000000888 ) ) ;
#643 = CARTESIAN_POINT ( 'NONE',  ( 0.000000000000000000, 0.000000000000000000, 23.00000000000000000 ) ) ;
#644 = ORIENTED_EDGE ( 'NONE', *, *, #736, .F. ) ;
#645 = ORIENTED_EDGE ( 'NONE', *, *, #1368, .F. ) ;
#646 = ORIENTED_EDGE ( 'NONE', *, *, #1164, .T. ) ;
#647 = DIRECTION ( 'NONE',  ( -1.000000000000000000, 0.000000000000000000, -0.000000000000000000 ) ) ;
#648 = DIRECTION ( 'NONE',  ( 0.000000000000000000, 0.000000000000000000, -1.000000000000000000 ) ) ;
#649 = DIRECTION ( 'NONE',  ( 0.000000000000000000, 0.000000000000000000, -1.000000000000000000 ) ) ;
#650 = VERTEX_POINT ( 'NONE', #36 ) ;
#651 = AXIS2_PLACEMENT_3D ( 'NONE', #511, #1151, #1267 ) ;
#652 = VERTEX_POINT ( 'NONE', #441 ) ;
#653 = ORIENTED_EDGE ( 'NONE', *, *, #736, .T. ) ;
#654 = AXIS2_PLACEMENT_3D ( 'NONE', #205, #109, #116 ) ;
#655 = DIRECTION ( 'NONE',  ( 0.000000000000000000, 0.000000000000000000, -1.000000000000000000 ) ) ;
#656 = LINE ( 'NONE', #1075, #743 ) ;
#657 = DIRECTION ( 'NONE',  ( -0.000000000000000000, -0.000000000000000000, -1.000000000000000000 ) ) ;
#658 = PLANE ( 'NONE',  #1038 ) ;
#659 = ORIENTED_EDGE ( 'NONE', *, *, #490, .T. ) ;
#660 = EDGE_CURVE ( 'NONE', #118, #1032, #959, .T. ) ;
#661 = ORIENTED_EDGE ( 'NONE', *, *, #989, .F. ) ;
#662 = CARTESIAN_POINT ( 'NONE',  ( 22.50000000000000000, -16.71428571428571530, 23.00000000000000000 ) ) ;
#663 = EDGE_CURVE ( 'NONE', #993, #1306, #1093, .T. ) ;
#664 = DIRECTION ( 'NONE',  ( 0.000000000000000000, 0.000000000000000000, -1.000000000000000000 ) ) ;
#665 = FACE_OUTER_BOUND ( 'NONE', #573, .T. ) ;
#666 = DIRECTION ( 'NONE',  ( 1.000000000000000000, 0.000000000000000000, 0.000000000000000000 ) ) ;
#667 = ORIENTED_EDGE ( 'NONE', *, *, #713, .T. ) ;
#668 = ORIENTED_EDGE ( 'NONE', *, *, #600, .F. ) ;
#669 = CARTESIAN_POINT ( 'NONE',  ( -22.50000000000000000, 8.428571428571425272, 23.00000000000000000 ) ) ;
#670 = FACE_OUTER_BOUND ( 'NONE', #1009, .T. ) ;
#671 = EDGE_CURVE ( 'NONE', #2, #1057, #327, .T. ) ;
#672 = CARTESIAN_POINT ( 'NONE',  ( 22.50000000000000000, 20.99999999999999645, 23.00000000000000000 ) ) ;
#673 = ADVANCED_FACE ( 'NONE', ( #22 ), #1101, .F. ) ;
#674 = CARTESIAN_POINT ( 'NONE',  ( 22.50000000000000000, 2.142857142857142350, 23.00000000000000000 ) ) ;
#675 = LINE ( 'NONE', #872, #1331 ) ;
#676 = VERTEX_POINT ( 'NONE', #997 ) ;
#677 = ORIENTED_EDGE ( 'NONE', *, *, #121, .T. ) ;
#678 = CARTESIAN_POINT ( 'NONE',  ( 22.50000000000000000, 23.00000000000000000, 23.00000000000000000 ) ) ;
#679 = VECTOR ( 'NONE', #115, 1000.000000000000000 ) ;
#680 = VECTOR ( 'NONE', #1007, 1000.000000000000000 ) ;
#681 = DIRECTION ( 'NONE',  ( 1.000000000000000000, 0.000000000000000000, 0.000000000000000000 ) ) ;
#682 = VECTOR ( 'NONE', #886, 1000.000000000000000 ) ;
#683 = CARTESIAN_POINT ( 'NONE',  ( 22.50000000000000000, 8.428571428571425272, 23.00000000000000000 ) ) ;
#684 = EDGE_CURVE ( 'NONE', #1161, #993, #143, .T. ) ;
#685 = CARTESIAN_POINT ( 'NONE',  ( -22.50000000000000000, -22.99999999999999645, 23.00000000000000000 ) ) ;
#686 = FACE_OUTER_BOUND ( 'NONE', #338, .T. ) ;
#687 = EDGE_LOOP ( 'NONE', ( #1070, #943, #380, #844 ) ) ;
#688 = ORIENTED_EDGE ( 'NONE', *, *, #717, .T. ) ;
#689 = DIRECTION ( 'NONE',  ( 0.000000000000000000, -0.000000000000000000, -1.000000000000000000 ) ) ;
#690 = FACE_OUTER_BOUND ( 'NONE', #687, .T. ) ;
#691 = CARTESIAN_POINT ( 'NONE',  ( 0.000000000000000000, -4.142857142857142350, 5.000000000000000000 ) ) ;
#692 = CARTESIAN_POINT ( 'NONE',  ( 22.50000000000000000, -2.142857142857142350, 5.000000000000000000 ) ) ;
#693 = EDGE_CURVE ( 'NONE', #477, #444, #868, .T. ) ;
#694 = LINE ( 'NONE', #191, #1275 ) ;
#695 = ORIENTED_EDGE ( 'NONE', *, *, #1315, .T. ) ;
#696 = EDGE_LOOP ( 'NONE', ( #1171, #49, #222, #1290 ) ) ;
#697 = DIRECTION ( 'NONE',  ( 1.000000000000000000, 0.000000000000000000, 0.000000000000000000 ) ) ;
#698 = CARTESIAN_POINT ( 'NONE',  ( 0.000000000000000000, -2.142857142857142350, 5.000000000000000000 ) ) ;
#699 = DIRECTION ( 'NONE',  ( 1.000000000000000000, 0.000000000000000000, 0.000000000000000000 ) ) ;
#700 = DIRECTION ( 'NONE',  ( 1.000000000000000000, 0.000000000000000000, 0.000000000000000000 ) ) ;
#701 = ORIENTED_EDGE ( 'NONE', *, *, #417, .F. ) ;
#702 = EDGE_CURVE ( 'NONE', #800, #1231, #15, .T. ) ;
#703 = PRODUCT_DEFINITION_SHAPE ( 'NONE', 'NONE',  #884 ) ;
#704 = ADVANCED_FACE ( 'NONE', ( #1297 ), #762, .F. ) ;
#705 = CARTESIAN_POINT ( 'NONE',  ( -22.50000000000000000, -8.428571428571428825, 5.000000000000000000 ) ) ;
#706 = APPROVAL_STATUS ( 'not_yet_approved' ) ;
#707 = VECTOR ( 'NONE', #128, 1000.000000000000000 ) ;
#708 = AXIS2_PLACEMENT_3D ( 'NONE', #1022, #70, #489 ) ;
#709 = PERSON ( 'UNSPECIFIED', 'UNSPECIFIED', 'UNSPECIFIED', ('UNSPECIFIED'), ('UNSPECIFIED'), ('UNSPECIFIED') ) ;
#710 = LINE ( 'NONE', #1144, #609 ) ;
#711 = PLANE ( 'NONE',  #937 ) ;
#712 = ORIENTED_EDGE ( 'NONE', *, *, #813, .T. ) ;
#713 = EDGE_CURVE ( 'NONE', #526, #1333, #458, .T. ) ;
#714 = LINE ( 'NONE', #930, #298 ) ;
#715 = LINE ( 'NONE', #606, #816 ) ;
#716 = EDGE_CURVE ( 'NONE', #865, #230, #1292, .T. ) ;
#717 = EDGE_CURVE ( 'NONE', #434, #1073, #1189, .T. ) ;
#718 = CARTESIAN_POINT ( 'NONE',  ( -22.50000000000000000, 8.428571428571425272, 23.00000000000000000 ) ) ;
#719 = DIRECTION ( 'NONE',  ( -1.000000000000000000, 0.000000000000000000, 0.000000000000000000 ) ) ;
#720 = CARTESIAN_POINT ( 'NONE',  ( 0.000000000000000000, 0.000000000000000000, 0.000000000000000000 ) ) ;
#721 = VECTOR ( 'NONE', #1125, 1000.000000000000000 ) ;
#722 = DIRECTION ( 'NONE',  ( -0.000000000000000000, -0.000000000000000000, -1.000000000000000000 ) ) ;
#723 = ADVANCED_FACE ( 'NONE', ( #1309 ), #1207, .F. ) ;
#724 =( GEOMETRIC_REPRESENTATION_CONTEXT ( 3 ) GLOBAL_UNCERTAINTY_ASSIGNED_CONTEXT ( ( #1185 ) ) GLOBAL_UNIT_ASSIGNED_CONTEXT ( ( #923, #96, #1044 ) ) REPRESENTATION_CONTEXT ( 'NONE', 'WORKASPACE' ) );
#725 = CARTESIAN_POINT ( 'NONE',  ( 22.50000000000000000, -22.99999999999999645, 23.00000000000000000 ) ) ;
#726 = DATE_AND_TIME ( #311, #1039 ) ;
#727 = CARTESIAN_POINT ( 'NONE',  ( 22.50000000000000000, 8.428571428571425272, 23.00000000000000000 ) ) ;
#728 = CARTESIAN_POINT ( 'NONE',  ( 22.50000000000000000, -22.99999999999999645, 23.00000000000000000 ) ) ;
#729 = ADVANCED_FACE ( 'NONE', ( #465 ), #1181, .F. ) ;
#730 = EDGE_LOOP ( 'NONE', ( #5, #120, #774, #232 ) ) ;
#731 = PERSON_AND_ORGANIZATION_ROLE ( 'design_supplier' ) ;
#732 = FACE_OUTER_BOUND ( 'NONE', #1307, .T. ) ;
#733 = CARTESIAN_POINT ( 'NONE',  ( -22.50000000000000000, -10.42857142857142705, 23.00000000000000000 ) ) ;
#734 = ORIENTED_EDGE ( 'NONE', *, *, #944, .F. ) ;
#735 = ORIENTED_EDGE ( 'NONE', *, *, #1121, .F. ) ;
#736 = EDGE_CURVE ( 'NONE', #532, #129, #656, .T. ) ;
#737 = AXIS2_PLACEMENT_3D ( 'NONE', #861, #655, #647 ) ;
#738 = CARTESIAN_POINT ( 'NONE',  ( -22.50000000000000000, 0.000000000000000000, 5.000000000000000000 ) ) ;
#739 = AXIS2_PLACEMENT_3D ( 'NONE', #528, #953, #942 ) ;
#740 = CARTESIAN_POINT ( 'NONE',  ( -22.50000000000000000, 14.71428571428571530, 23.00000000000000000 ) ) ;
#741 = VECTOR ( 'NONE', #577, 1000.000000000000000 ) ;
#742 = VERTEX_POINT ( 'NONE', #1086 ) ;
#743 = VECTOR ( 'NONE', #856, 1000.000000000000000 ) ;
#744 = ORIENTED_EDGE ( 'NONE', *, *, #944, .T. ) ;
#745 = ORIENTED_EDGE ( 'NONE', *, *, #77, .T. ) ;
#746 = EDGE_CURVE ( 'NONE', #1333, #1274, #554, .T. ) ;
#747 = DIRECTION ( 'NONE',  ( 0.000000000000000000, 1.000000000000000000, 0.000000000000000000 ) ) ;
#748 = CARTESIAN_POINT ( 'NONE',  ( -22.50000000000000000, -4.142857142857142350, 23.00000000000000000 ) ) ;
#749 = CARTESIAN_POINT ( 'NONE',  ( 0.000000000000000000, 16.71428571428571530, 5.000000000000000000 ) ) ;
#750 = ORIENTED_EDGE ( 'NONE', *, *, #417, .T. ) ;
#751 = ORIENTED_EDGE ( 'NONE', *, *, #203, .T. ) ;
#752 = ORIENTED_EDGE ( 'NONE', *, *, #1356, .T. ) ;
#753 = ORIENTED_EDGE ( 'NONE', *, *, #225, .T. ) ;
#754 = DIRECTION ( 'NONE',  ( 0.000000000000000000, 1.000000000000000000, 0.000000000000000000 ) ) ;
#755 = ADVANCED_FACE ( 'NONE', ( #1174 ), #1286, .F. ) ;
#756 = DIRECTION ( 'NONE',  ( -1.000000000000000000, 0.000000000000000000, 0.000000000000000000 ) ) ;
#757 = ORIENTED_EDGE ( 'NONE', *, *, #623, .T. ) ;
#758 = EDGE_LOOP ( 'NONE', ( #119, #1196, #1113, #263 ) ) ;
#759 = ORIENTED_EDGE ( 'NONE', *, *, #154, .T. ) ;
#760 = CARTESIAN_POINT ( 'NONE',  ( -22.50000000000000000, -16.71428571428571530, 23.00000000000000000 ) ) ;
#761 = APPROVAL_ROLE ( '' ) ;
#762 = PLANE ( 'NONE',  #269 ) ;
#763 = DIRECTION ( 'NONE',  ( -0.000000000000000000, -0.000000000000000000, -1.000000000000000000 ) ) ;
#764 = ADVANCED_FACE ( 'NONE', ( #690 ), #1336, .F. ) ;
#765 = VECTOR ( 'NONE', #561, 1000.000000000000000 ) ;
#766 = ORIENTED_EDGE ( 'NONE', *, *, #567, .T. ) ;
#767 = ORIENTED_EDGE ( 'NONE', *, *, #509, .F. ) ;
#768 = AXIS2_PLACEMENT_3D ( 'NONE', #718, #610, #288 ) ;
#769 = ORIENTED_EDGE ( 'NONE', *, *, #1260, .F. ) ;
#770 = DIRECTION ( 'NONE',  ( 0.000000000000000000, 1.000000000000000000, 0.000000000000000000 ) ) ;
#771 = CARTESIAN_POINT ( 'NONE',  ( -22.50000000000000000, 16.71428571428571530, 23.00000000000000000 ) ) ;
#772 = FACE_OUTER_BOUND ( 'NONE', #147, .T. ) ;
#773 = VERTEX_POINT ( 'NONE', #268 ) ;
#774 = ORIENTED_EDGE ( 'NONE', *, *, #1156, .F. ) ;
#775 = EDGE_LOOP ( 'NONE', ( #146, #956, #1323, #69 ) ) ;
#776 = DIRECTION ( 'NONE',  ( 0.000000000000000000, -0.000000000000000000, -1.000000000000000000 ) ) ;
#777 = DIRECTION ( 'NONE',  ( -1.000000000000000000, 0.000000000000000000, 0.000000000000000000 ) ) ;
#778 = CARTESIAN_POINT ( 'NONE',  ( 22.50000000000000000, 4.142857142857142350, 5.000000000000000000 ) ) ;
#779 = CARTESIAN_POINT ( 'NONE',  ( 22.50000000000000000, 0.000000000000000000, 5.000000000000000000 ) ) ;
#780 = VERTEX_POINT ( 'NONE', #389 ) ;
#781 = EDGE_LOOP ( 'NONE', ( #1288, #982, #589, #1294 ) ) ;
#782 = CARTESIAN_POINT ( 'NONE',  ( -22.50000000000000000, 2.142857142857142350, 23.00000000000000000 ) ) ;
#783 = CARTESIAN_POINT ( 'NONE',  ( -22.50000000000000000, 2.142857142857142350, 5.000000000000000000 ) ) ;
#784 = DIRECTION ( 'NONE',  ( -1.000000000000000000, 0.000000000000000000, 0.000000000000000000 ) ) ;
#785 = LINE ( 'NONE', #1287, #215 ) ;
#786 = CARTESIAN_POINT ( 'NONE',  ( 22.50000000000000000, -8.428571428571428825, 23.00000000000000000 ) ) ;
#787 = VERTEX_POINT ( 'NONE', #1327 ) ;
#788 = VECTOR ( 'NONE', #240, 1000.000000000000000 ) ;
#789 = ORIENTED_EDGE ( 'NONE', *, *, #684, .F. ) ;
#790 = ORIENTED_EDGE ( 'NONE', *, *, #794, .T. ) ;
#791 = VECTOR ( 'NONE', #287, 1000.000000000000000 ) ;
#792 = AXIS2_PLACEMENT_3D ( 'NONE', #404, #177, #396 ) ;
#793 = DIRECTION ( 'NONE',  ( 0.000000000000000000, -0.000000000000000000, -1.000000000000000000 ) ) ;
#794 = EDGE_CURVE ( 'NONE', #1072, #1306, #1215, .T. ) ;
#795 = LOCAL_TIME ( 11, 56, 27.00000000000000000, #1347 ) ;
#796 = PLANE ( 'NONE',  #1078 ) ;
#797 = LINE ( 'NONE', #1227, #791 ) ;
#798 = DIRECTION ( 'NONE',  ( -1.000000000000000000, -0.000000000000000000, -0.000000000000000000 ) ) ;
#799 = CARTESIAN_POINT ( 'NONE',  ( 40.00000000000000000, 30.00000000000000000, 5.000000000000000000 ) ) ;
#800 = VERTEX_POINT ( 'NONE', #683 ) ;
#801 = VERTEX_POINT ( 'NONE', #161 ) ;
#802 = LINE ( 'NONE', #1317, #1279 ) ;
#803 = LINE ( 'NONE', #1234, #1367 ) ;
#804 = ADVANCED_FACE ( 'NONE', ( #54 ), #796, .F. ) ;
#805 = DIRECTION ( 'NONE',  ( 0.000000000000000000, 0.000000000000000000, -1.000000000000000000 ) ) ;
#806 = PLANE ( 'NONE',  #1278 ) ;
#807 = CARTESIAN_POINT ( 'NONE',  ( 0.000000000000000000, 23.00000000000000000, 5.000000000000000000 ) ) ;
#808 = ORIENTED_EDGE ( 'NONE', *, *, #1045, .T. ) ;
#809 = CARTESIAN_POINT ( 'NONE',  ( -22.50000000000000000, 0.000000000000000000, 5.000000000000000000 ) ) ;
#810 = LINE ( 'NONE', #595, #348 ) ;
#811 = EDGE_CURVE ( 'NONE', #434, #1305, #1027, .T. ) ;
#812 = LINE ( 'NONE', #1243, #1217 ) ;
#813 = EDGE_CURVE ( 'NONE', #118, #742, #1225, .T. ) ;
#814 = ORIENTED_EDGE ( 'NONE', *, *, #181, .F. ) ;
#815 = CARTESIAN_POINT ( 'NONE',  ( -22.50000000000000000, 14.71428571428571530, 23.00000000000000000 ) ) ;
#816 = VECTOR ( 'NONE', #84, 1000.000000000000000 ) ;
#817 = AXIS2_PLACEMENT_3D ( 'NONE', #1054, #1233, #689 ) ;
#818 = FACE_OUTER_BOUND ( 'NONE', #541, .T. ) ;
#819 = FACE_OUTER_BOUND ( 'NONE', #524, .T. ) ;
#820 = DIRECTION ( 'NONE',  ( 1.000000000000000000, 0.000000000000000000, 0.000000000000000000 ) ) ;
#821 = CARTESIAN_POINT ( 'NONE',  ( -40.00000000000000000, -30.00000000000000000, 5.000000000000000000 ) ) ;
#822 = CARTESIAN_POINT ( 'NONE',  ( 22.50000000000000000, -22.99999999999999645, 23.00000000000000000 ) ) ;
#823 = DATE_AND_TIME ( #188, #795 ) ;
#824 = EDGE_CURVE ( 'NONE', #597, #75, #373, .T. ) ;
#825 = CARTESIAN_POINT ( 'NONE',  ( 22.50000000000000000, -21.00000000000000000, 23.00000000000000000 ) ) ;
#826 = CARTESIAN_POINT ( 'NONE',  ( -40.00000000000000000, -30.00000000000000000, 5.000000000000000000 ) ) ;
#827 = MECHANICAL_CONTEXT ( 'NONE', #1298, 'mechanical' ) ;
#828 = VECTOR ( 'NONE', #385, 1000.000000000000000 ) ;
#829 = EDGE_CURVE ( 'NONE', #444, #1314, #803, .T. ) ;
#830 = VECTOR ( 'NONE', #1320, 1000.000000000000000 ) ;
#831 = LINE ( 'NONE', #748, #66 ) ;
#832 = DIRECTION ( 'NONE',  ( -1.000000000000000000, 0.000000000000000000, -0.000000000000000000 ) ) ;
#833 = VERTEX_POINT ( 'NONE', #1005 ) ;
#834 = DATE_AND_TIME ( #6, #1321 ) ;
#835 = DIRECTION ( 'NONE',  ( -0.000000000000000000, -0.000000000000000000, -1.000000000000000000 ) ) ;
#836 = FACE_OUTER_BOUND ( 'NONE', #1173, .T. ) ;
#837 = CC_DESIGN_PERSON_AND_ORGANIZATION_ASSIGNMENT ( #217, #731, ( #1222 ) ) ;
#838 = ADVANCED_FACE ( 'NONE', ( #279 ), #366, .F. ) ;
#839 = VERTEX_POINT ( 'NONE', #183 ) ;
#840 = LINE ( 'NONE', #413, #1259 ) ;
#841 = DIRECTION ( 'NONE',  ( -0.000000000000000000, -1.000000000000000000, -0.000000000000000000 ) ) ;
#842 = ORIENTED_EDGE ( 'NONE', *, *, #237, .F. ) ;
#843 = ORIENTED_EDGE ( 'NONE', *, *, #542, .T. ) ;
#844 = ORIENTED_EDGE ( 'NONE', *, *, #438, .F. ) ;
#845 = VECTOR ( 'NONE', #299, 1000.000000000000000 ) ;
#846 = FACE_OUTER_BOUND ( 'NONE', #462, .T. ) ;
#847 = AXIS2_PLACEMENT_3D ( 'NONE', #244, #432, #151 ) ;
#848 = CARTESIAN_POINT ( 'NONE',  ( -22.50000000000000000, -4.142857142857142350, 23.00000000000000000 ) ) ;
#849 = VECTOR ( 'NONE', #904, 1000.000000000000000 ) ;
#850 = ORIENTED_EDGE ( 'NONE', *, *, #259, .F. ) ;
#851 = ORIENTED_EDGE ( 'NONE', *, *, #1010, .F. ) ;
#852 = ORIENTED_EDGE ( 'NONE', *, *, #521, .T. ) ;
#853 = ADVANCED_FACE ( 'NONE', ( #473 ), #591, .F. ) ;
#854 = PERSON_AND_ORGANIZATION ( #709, #272 ) ;
#855 = EDGE_CURVE ( 'NONE', #859, #787, #1341, .T. ) ;
#856 = DIRECTION ( 'NONE',  ( -0.000000000000000000, -0.000000000000000000, -1.000000000000000000 ) ) ;
#857 = CARTESIAN_POINT ( 'NONE',  ( -40.00000000000000000, -30.00000000000000000, 5.000000000000000000 ) ) ;
#858 = ORIENTED_EDGE ( 'NONE', *, *, #932, .T. ) ;
#859 = VERTEX_POINT ( 'NONE', #705 ) ;
#860 = ORIENTED_EDGE ( 'NONE', *, *, #987, .F. ) ;
#861 = CARTESIAN_POINT ( 'NONE',  ( 0.000000000000000000, 0.000000000000000000, 23.00000000000000000 ) ) ;
#862 = CARTESIAN_POINT ( 'NONE',  ( -40.00000000000000000, -30.00000000000000000, 5.000000000000000000 ) ) ;
#863 = ADVANCED_FACE ( 'NONE', ( #1132 ), #658, .F. ) ;
#864 = CARTESIAN_POINT ( 'NONE',  ( -22.50000000000000000, -4.142857142857142350, 23.00000000000000000 ) ) ;
#865 = VERTEX_POINT ( 'NONE', #65 ) ;
#866 = ORIENTED_EDGE ( 'NONE', *, *, #1010, .T. ) ;
#867 = ORIENTED_EDGE ( 'NONE', *, *, #509, .T. ) ;
#868 = LINE ( 'NONE', #862, #395 ) ;
#869 = EDGE_CURVE ( 'NONE', #255, #1072, #675, .T. ) ;
#870 = EDGE_CURVE ( 'NONE', #416, #801, #1330, .T. ) ;
#871 = CARTESIAN_POINT ( 'NONE',  ( 40.00000000000000000, 30.00000000000000000, 5.000000000000000000 ) ) ;
#872 = CARTESIAN_POINT ( 'NONE',  ( 22.50000000000000000, -22.99999999999999645, 23.00000000000000000 ) ) ;
#873 = VECTOR ( 'NONE', #537, 1000.000000000000000 ) ;
#874 = EDGE_LOOP ( 'NONE', ( #239, #1184, #446, #19 ) ) ;
#875 = VERTEX_POINT ( 'NONE', #139 ) ;
#876 = VECTOR ( 'NONE', #699, 1000.000000000000000 ) ;
#877 = FACE_BOUND ( 'NONE', #4, .T. ) ;
#878 = PLANE ( 'NONE',  #654 ) ;
#879 = CARTESIAN_POINT ( 'NONE',  ( -22.50000000000000000, -16.71428571428571530, 23.00000000000000000 ) ) ;
#880 = LINE ( 'NONE', #864, #539 ) ;
#881 = LINE ( 'NONE', #786, #680 ) ;
#882 = EDGE_LOOP ( 'NONE', ( #745, #1058, #452, #24 ) ) ;
#883 = ORIENTED_EDGE ( 'NONE', *, *, #1368, .T. ) ;
#884 = PRODUCT_DEFINITION ( 'UNKNOWN', '', #1222, #638 ) ;
#885 = ORIENTED_EDGE ( 'NONE', *, *, #399, .T. ) ;
#886 = DIRECTION ( 'NONE',  ( -0.000000000000000000, -0.000000000000000000, -1.000000000000000000 ) ) ;
#887 = CARTESIAN_POINT ( 'NONE',  ( -40.00000000000000000, -30.00000000000000000, 5.000000000000000000 ) ) ;
#888 = CARTESIAN_POINT ( 'NONE',  ( 22.50000000000000000, -10.42857142857142705, 23.00000000000000000 ) ) ;
#889 = PLANE ( 'NONE',  #325 ) ;
#890 = ORIENTED_EDGE ( 'NONE', *, *, #1029, .F. ) ;
#891 = EDGE_CURVE ( 'NONE', #59, #875, #1104, .T. ) ;
#892 = ORIENTED_EDGE ( 'NONE', *, *, #29, .T. ) ;
#893 = EDGE_LOOP ( 'NONE', ( #852, #187, #668, #173 ) ) ;
#894 = DIRECTION ( 'NONE',  ( 0.000000000000000000, -1.000000000000000000, 0.000000000000000000 ) ) ;
#895 = CARTESIAN_POINT ( 'NONE',  ( -22.50000000000000000, 10.42857142857142705, 23.00000000000000000 ) ) ;
#896 = CARTESIAN_POINT ( 'NONE',  ( -22.50000000000000000, -16.71428571428571530, 23.00000000000000000 ) ) ;
#897 = CARTESIAN_POINT ( 'NONE',  ( -22.50000000000000000, -16.71428571428571530, 23.00000000000000000 ) ) ;
#898 = LINE ( 'NONE', #907, #626 ) ;
#899 = ORIENTED_EDGE ( 'NONE', *, *, #342, .F. ) ;
#900 = ORIENTED_EDGE ( 'NONE', *, *, #51, .F. ) ;
#901 = VECTOR ( 'NONE', #1176, 1000.000000000000000 ) ;
#902 = AXIS2_PLACEMENT_3D ( 'NONE', #1123, #784, #174 ) ;
#903 = LINE ( 'NONE', #382, #682 ) ;
#904 = DIRECTION ( 'NONE',  ( -0.000000000000000000, -0.000000000000000000, -1.000000000000000000 ) ) ;
#905 = LINE ( 'NONE', #1013, #408 ) ;
#906 = DIRECTION ( 'NONE',  ( 0.000000000000000000, 1.000000000000000000, 0.000000000000000000 ) ) ;
#907 = CARTESIAN_POINT ( 'NONE',  ( -22.50000000000000000, -14.71428571428571530, 23.00000000000000000 ) ) ;
#908 = VERTEX_POINT ( 'NONE', #48 ) ;
#909 = DIRECTION ( 'NONE',  ( 1.000000000000000000, 0.000000000000000000, 0.000000000000000000 ) ) ;
#910 = EDGE_CURVE ( 'NONE', #1188, #949, #881, .T. ) ;
#911 = CARTESIAN_POINT ( 'NONE',  ( 22.50000000000000000, 20.99999999999999645, 23.00000000000000000 ) ) ;
#912 = LINE ( 'NONE', #1249, #1168 ) ;
#913 = CARTESIAN_POINT ( 'NONE',  ( -40.00000000000000000, 30.00000000000000000, 0.000000000000000000 ) ) ;
#914 = ORIENTED_EDGE ( 'NONE', *, *, #611, .T. ) ;
#915 = PERSON_AND_ORGANIZATION ( #709, #272 ) ;
#916 = EDGE_CURVE ( 'NONE', #75, #983, #1118, .T. ) ;
#917 = LINE ( 'NONE', #1348, #14 ) ;
#918 = EDGE_CURVE ( 'NONE', #1057, #1186, #368, .T. ) ;
#919 = CARTESIAN_POINT ( 'NONE',  ( 22.50000000000000000, 0.000000000000000000, 5.000000000000000000 ) ) ;
#920 = ADVANCED_FACE ( 'NONE', ( #686 ), #262, .F. ) ;
#921 = AXIS2_PLACEMENT_3D ( 'NONE', #1119, #379, #387 ) ;
#922 = VECTOR ( 'NONE', #1066, 1000.000000000000000 ) ;
#923 =( LENGTH_UNIT ( ) NAMED_UNIT ( * ) SI_UNIT ( .MILLI., .METRE. ) );
#924 = VECTOR ( 'NONE', #798, 1000.000000000000000 ) ;
#925 = VECTOR ( 'NONE', #1248, 1000.000000000000000 ) ;
#926 = DIRECTION ( 'NONE',  ( 0.000000000000000000, -0.000000000000000000, 1.000000000000000000 ) ) ;
#927 = PLANE ( 'NONE',  #123 ) ;
#928 = ADVANCED_FACE ( 'NONE', ( #281 ), #1312, .F. ) ;
#929 = CARTESIAN_POINT ( 'NONE',  ( -40.00000000000000000, -30.00000000000000000, 5.000000000000000000 ) ) ;
#930 = CARTESIAN_POINT ( 'NONE',  ( 22.50000000000000000, 8.428571428571425272, 23.00000000000000000 ) ) ;
#931 = CARTESIAN_POINT ( 'NONE',  ( -22.50000000000000000, -21.00000000000000000, 23.00000000000000000 ) ) ;
#932 = EDGE_CURVE ( 'NONE', #780, #1291, #31, .T. ) ;
#933 = CARTESIAN_POINT ( 'NONE',  ( 22.50000000000000000, 0.000000000000000000, 5.000000000000000000 ) ) ;
#934 = DIRECTION ( 'NONE',  ( -1.000000000000000000, 0.000000000000000000, 0.000000000000000000 ) ) ;
#935 = ORIENTED_EDGE ( 'NONE', *, *, #1344, .T. ) ;
#936 = APPROVAL_ROLE ( '' ) ;
#937 = AXIS2_PLACEMENT_3D ( 'NONE', #1229, #1141, #305 ) ;
#938 = VECTOR ( 'NONE', #224, 1000.000000000000000 ) ;
#939 = EDGE_CURVE ( 'NONE', #1291, #526, #56, .T. ) ;
#940 = VECTOR ( 'NONE', #990, 1000.000000000000000 ) ;
#941 = CARTESIAN_POINT ( 'NONE',  ( 22.50000000000000000, -10.42857142857142705, 23.00000000000000000 ) ) ;
#942 = DIRECTION ( 'NONE',  ( 0.000000000000000000, 0.000000000000000000, 1.000000000000000000 ) ) ;
#943 = ORIENTED_EDGE ( 'NONE', *, *, #1156, .T. ) ;
#944 = EDGE_CURVE ( 'NONE', #59, #345, #1088, .T. ) ;
#945 = PLANE ( 'NONE',  #125 ) ;
#946 = ADVANCED_FACE ( 'NONE', ( #351 ), #889, .F. ) ;
#947 = DIRECTION ( 'NONE',  ( -1.000000000000000000, -0.000000000000000000, -0.000000000000000000 ) ) ;
#948 = VERTEX_POINT ( 'NONE', #692 ) ;
#949 = VERTEX_POINT ( 'NONE', #1112 ) ;
#950 = VERTEX_POINT ( 'NONE', #163 ) ;
#951 = PERSON_AND_ORGANIZATION_ROLE ( 'classification_officer' ) ;
#952 = DIRECTION ( 'NONE',  ( -1.000000000000000000, 0.000000000000000000, 0.000000000000000000 ) ) ;
#953 = DIRECTION ( 'NONE',  ( -1.000000000000000000, 0.000000000000000000, 0.000000000000000000 ) ) ;
#954 = ORIENTED_EDGE ( 'NONE', *, *, #1100, .F. ) ;
#955 = VERTEX_POINT ( 'NONE', #475 ) ;
#956 = ORIENTED_EDGE ( 'NONE', *, *, #663, .T. ) ;
#957 = PERSON_AND_ORGANIZATION ( #709, #272 ) ;
#958 = CC_DESIGN_APPROVAL ( #530, ( #1222 ) ) ;
#959 = LINE ( 'NONE', #137, #961 ) ;
#960 = CARTESIAN_POINT ( 'NONE',  ( -22.50000000000000000, -22.99999999999999645, 5.000000000000000000 ) ) ;
#961 = VECTOR ( 'NONE', #641, 1000.000000000000000 ) ;
#962 = CARTESIAN_POINT ( 'NONE',  ( -22.50000000000000000, -4.142857142857142350, 5.000000000000000000 ) ) ;
#963 = AXIS2_PLACEMENT_3D ( 'NONE', #727, #456, #1280 ) ;
#964 = ORIENTED_EDGE ( 'NONE', *, *, #702, .F. ) ;
#965 = VECTOR ( 'NONE', #894, 1000.000000000000000 ) ;
#966 = ORIENTED_EDGE ( 'NONE', *, *, #448, .T. ) ;
#967 = ORIENTED_EDGE ( 'NONE', *, *, #225, .F. ) ;
#968 = CARTESIAN_POINT ( 'NONE',  ( -22.50000000000000000, -8.428571428571428825, 23.00000000000000000 ) ) ;
#969 = ADVANCED_FACE ( 'NONE', ( #772 ), #253, .F. ) ;
#970 = CARTESIAN_POINT ( 'NONE',  ( 0.000000000000000000, 4.142857142857142350, 5.000000000000000000 ) ) ;
#971 = LINE ( 'NONE', #1311, #1299 ) ;
#972 = EDGE_LOOP ( 'NONE', ( #229, #421, #352, #1180 ) ) ;
#973 = ORIENTED_EDGE ( 'NONE', *, *, #824, .T. ) ;
#974 = EDGE_LOOP ( 'NONE', ( #478, #369, #25, #851 ) ) ;
#975 = LINE ( 'NONE', #1074, #194 ) ;
#976 = EDGE_CURVE ( 'NONE', #631, #129, #378, .T. ) ;
#977 = DATE_AND_TIME ( #520, #1143 ) ;
#978 = ADVANCED_FACE ( 'NONE', ( #169 ), #1209, .F. ) ;
#979 = DIRECTION ( 'NONE',  ( 1.000000000000000000, 0.000000000000000000, 0.000000000000000000 ) ) ;
#980 = CARTESIAN_POINT ( 'NONE',  ( -22.50000000000000000, -21.00000000000000000, 23.00000000000000000 ) ) ;
#981 = DIRECTION ( 'NONE',  ( 0.000000000000000000, 0.000000000000000000, -1.000000000000000000 ) ) ;
#982 = ORIENTED_EDGE ( 'NONE', *, *, #1304, .T. ) ;
#983 = VERTEX_POINT ( 'NONE', #1030 ) ;
#984 = DIRECTION ( 'NONE',  ( 0.000000000000000000, -0.000000000000000000, 1.000000000000000000 ) ) ;
#985 = CARTESIAN_POINT ( 'NONE',  ( -22.50000000000000000, -22.99999999999999645, 23.00000000000000000 ) ) ;
#986 = VECTOR ( 'NONE', #1084, 1000.000000000000000 ) ;
#987 = EDGE_CURVE ( 'NONE', #652, #230, #710, .T. ) ;
#988 = FACE_OUTER_BOUND ( 'NONE', #12, .T. ) ;
#989 = EDGE_CURVE ( 'NONE', #345, #1211, #401, .T. ) ;
#990 = DIRECTION ( 'NONE',  ( -0.000000000000000000, -0.000000000000000000, -1.000000000000000000 ) ) ;
#991 = AXIS2_PLACEMENT_3D ( 'NONE', #359, #555, #261 ) ;
#992 = EDGE_LOOP ( 'NONE', ( #264, #966, #1364, #488 ) ) ;
#993 = VERTEX_POINT ( 'NONE', #503 ) ;
#994 = VECTOR ( 'NONE', #583, 1000.000000000000000 ) ;
#995 = LINE ( 'NONE', #968, #241 ) ;
#996 = CARTESIAN_POINT ( 'NONE',  ( 22.50000000000000000, -8.428571428571428825, 23.00000000000000000 ) ) ;
#997 = CARTESIAN_POINT ( 'NONE',  ( -22.50000000000000000, -21.00000000000000000, 5.000000000000000000 ) ) ;
#998 = ADVANCED_FACE ( 'NONE', ( #818 ), #806, .T. ) ;
#999 = DIRECTION ( 'NONE',  ( 1.000000000000000000, 0.000000000000000000, 0.000000000000000000 ) ) ;
#1000 = DIRECTION ( 'NONE',  ( -0.000000000000000000, -0.000000000000000000, -1.000000000000000000 ) ) ;
#1001 = ORIENTED_EDGE ( 'NONE', *, *, #1045, .F. ) ;
#1002 = ORIENTED_EDGE ( 'NONE', *, *, #813, .F. ) ;
#1003 = LINE ( 'NONE', #760, #986 ) ;
#1004 = CARTESIAN_POINT ( 'NONE',  ( 22.50000000000000000, 2.142857142857142350, 5.000000000000000888 ) ) ;
#1005 = CARTESIAN_POINT ( 'NONE',  ( 22.50000000000000000, 8.428571428571425272, 5.000000000000000888 ) ) ;
#1006 = DIRECTION ( 'NONE',  ( 0.000000000000000000, -1.000000000000000000, 0.000000000000000000 ) ) ;
#1007 = DIRECTION ( 'NONE',  ( -0.000000000000000000, -0.000000000000000000, -1.000000000000000000 ) ) ;
#1008 = ORIENTED_EDGE ( 'NONE', *, *, #448, .F. ) ;
#1009 = EDGE_LOOP ( 'NONE', ( #790, #42, #463, #899 ) ) ;
#1010 = EDGE_CURVE ( 'NONE', #652, #422, #912, .T. ) ;
#1011 = CARTESIAN_POINT ( 'NONE',  ( -22.50000000000000000, 0.000000000000000000, 5.000000000000000000 ) ) ;
#1012 = DIRECTION ( 'NONE',  ( -1.000000000000000000, 0.000000000000000000, -0.000000000000000000 ) ) ;
#1013 = CARTESIAN_POINT ( 'NONE',  ( -22.50000000000000000, -22.99999999999999645, 23.00000000000000000 ) ) ;
#1014 = DIRECTION ( 'NONE',  ( 0.000000000000000000, 1.000000000000000000, 0.000000000000000000 ) ) ;
#1015 = DIRECTION ( 'NONE',  ( 0.000000000000000000, -0.000000000000000000, -1.000000000000000000 ) ) ;
#1016 = ORIENTED_EDGE ( 'NONE', *, *, #1268, .F. ) ;
#1017 = ORIENTED_EDGE ( 'NONE', *, *, #1214, .T. ) ;
#1018 = AXIS2_PLACEMENT_3D ( 'NONE', #548, #350, #23 ) ;
#1019 = EDGE_CURVE ( 'NONE', #230, #356, #496, .T. ) ;
#1020 = AXIS2_PLACEMENT_3D ( 'NONE', #312, #952, #1046 ) ;
#1021 = EDGE_CURVE ( 'NONE', #324, #2, #81, .T. ) ;
#1022 = CARTESIAN_POINT ( 'NONE',  ( 0.000000000000000000, 0.000000000000000000, 23.00000000000000000 ) ) ;
#1023 = DIRECTION ( 'NONE',  ( 1.000000000000000000, -0.000000000000000000, 0.000000000000000000 ) ) ;
#1024 = DIRECTION ( 'NONE',  ( -1.000000000000000000, -0.000000000000000000, -0.000000000000000000 ) ) ;
#1025 = DIRECTION ( 'NONE',  ( 0.000000000000000000, 0.000000000000000000, 1.000000000000000000 ) ) ;
#1026 = EDGE_LOOP ( 'NONE', ( #564, #1187, #274, #653 ) ) ;
#1027 = LINE ( 'NONE', #62, #849 ) ;
#1028 = DIRECTION ( 'NONE',  ( 0.000000000000000000, 1.000000000000000000, 0.000000000000000000 ) ) ;
#1029 = EDGE_CURVE ( 'NONE', #875, #1211, #917, .T. ) ;
#1030 = CARTESIAN_POINT ( 'NONE',  ( 22.50000000000000000, 23.00000000000000000, 5.000000000000000000 ) ) ;
#1031 = LINE ( 'NONE', #807, #320 ) ;
#1032 = VERTEX_POINT ( 'NONE', #1342 ) ;
#1033 = CARTESIAN_POINT ( 'NONE',  ( -22.50000000000000000, 4.142857142857142350, 5.000000000000000000 ) ) ;
#1034 = DIRECTION ( 'NONE',  ( -0.000000000000000000, -1.000000000000000000, -0.000000000000000000 ) ) ;
#1035 = APPROVAL ( #706, 'UNSPECIFIED' ) ;
#1036 = CARTESIAN_POINT ( 'NONE',  ( -22.50000000000000000, 10.42857142857142705, 23.00000000000000000 ) ) ;
#1037 = VECTOR ( 'NONE', #999, 1000.000000000000000 ) ;
#1038 = AXIS2_PLACEMENT_3D ( 'NONE', #450, #1338, #563 ) ;
#1039 = LOCAL_TIME ( 11, 56, 27.00000000000000000, #1258 ) ;
#1040 = CARTESIAN_POINT ( 'NONE',  ( -22.50000000000000000, 8.428571428571425272, 23.00000000000000000 ) ) ;
#1041 = LINE ( 'NONE', #603, #150 ) ;
#1042 = DIRECTION ( 'NONE',  ( -1.000000000000000000, 0.000000000000000000, -0.000000000000000000 ) ) ;
#1043 = LINE ( 'NONE', #740, #100 ) ;
#1044 =( NAMED_UNIT ( * ) SI_UNIT ( $, .STERADIAN. ) SOLID_ANGLE_UNIT ( ) );
#1045 = EDGE_CURVE ( 'NONE', #908, #207, #93, .T. ) ;
#1046 = DIRECTION ( 'NONE',  ( 0.000000000000000000, 0.000000000000000000, 1.000000000000000000 ) ) ;
#1047 = LINE ( 'NONE', #931, #322 ) ;
#1048 = VERTEX_POINT ( 'NONE', #201 ) ;
#1049 = EDGE_CURVE ( 'NONE', #800, #833, #714, .T. ) ;
#1050 = VECTOR ( 'NONE', #27, 1000.000000000000000 ) ;
#1051 = ADVANCED_FACE ( 'NONE', ( #1362 ), #1357, .F. ) ;
#1052 = AXIS2_PLACEMENT_3D ( 'NONE', #1329, #280, #805 ) ;
#1053 = AXIS2_PLACEMENT_3D ( 'NONE', #897, #666, #1095 ) ;
#1054 = CARTESIAN_POINT ( 'NONE',  ( -22.50000000000000000, -21.00000000000000000, 23.00000000000000000 ) ) ;
#1055 = LINE ( 'NONE', #308, #1130 ) ;
#1056 = ORIENTED_EDGE ( 'NONE', *, *, #195, .T. ) ;
#1057 = VERTEX_POINT ( 'NONE', #1140 ) ;
#1058 = ORIENTED_EDGE ( 'NONE', *, *, #855, .T. ) ;
#1059 = FACE_OUTER_BOUND ( 'NONE', #236, .T. ) ;
#1060 = FACE_OUTER_BOUND ( 'NONE', #20, .T. ) ;
#1061 = EDGE_CURVE ( 'NONE', #532, #477, #304, .T. ) ;
#1062 = ORIENTED_EDGE ( 'NONE', *, *, #9, .T. ) ;
#1063 = ORIENTED_EDGE ( 'NONE', *, *, #228, .T. ) ;
#1064 = ORIENTED_EDGE ( 'NONE', *, *, #684, .T. ) ;
#1065 = DATE_AND_TIME ( #545, #199 ) ;
#1066 = DIRECTION ( 'NONE',  ( 0.000000000000000000, -1.000000000000000000, 0.000000000000000000 ) ) ;
#1067 = DIRECTION ( 'NONE',  ( 1.000000000000000000, -0.000000000000000000, 0.000000000000000000 ) ) ;
#1068 = DIRECTION ( 'NONE',  ( 0.000000000000000000, 1.000000000000000000, 0.000000000000000000 ) ) ;
#1069 = CC_DESIGN_APPROVAL ( #1139, ( #1328 ) ) ;
#1070 = ORIENTED_EDGE ( 'NONE', *, *, #208, .T. ) ;
#1071 = CC_DESIGN_PERSON_AND_ORGANIZATION_ASSIGNMENT ( #614, #1359, ( #884 ) ) ;
#1072 = VERTEX_POINT ( 'NONE', #825 ) ;
#1073 = VERTEX_POINT ( 'NONE', #1254 ) ;
#1074 = CARTESIAN_POINT ( 'NONE',  ( 22.50000000000000000, 10.42857142857142705, 23.00000000000000000 ) ) ;
#1075 = CARTESIAN_POINT ( 'NONE',  ( -40.00000000000000000, 30.00000000000000000, 5.000000000000000000 ) ) ;
#1076 = VECTOR ( 'NONE', #657, 1000.000000000000000 ) ;
#1077 = DIRECTION ( 'NONE',  ( 0.000000000000000000, 1.000000000000000000, 0.000000000000000000 ) ) ;
#1078 = AXIS2_PLACEMENT_3D ( 'NONE', #167, #584, #1012 ) ;
#1079 = EDGE_CURVE ( 'NONE', #207, #420, #190, .T. ) ;
#1080 = ORIENTED_EDGE ( 'NONE', *, *, #154, .F. ) ;
#1081 = EDGE_LOOP ( 'NONE', ( #883, #436, #1324, #1223 ) ) ;
#1082 = EDGE_LOOP ( 'NONE', ( #339, #639, #1114, #850 ) ) ;
#1083 = ADVANCED_FACE ( 'NONE', ( #1251 ), #492, .F. ) ;
#1084 = DIRECTION ( 'NONE',  ( -0.000000000000000000, -0.000000000000000000, -1.000000000000000000 ) ) ;
#1085 = PERSON_AND_ORGANIZATION_ROLE ( 'creator' ) ;
#1086 = CARTESIAN_POINT ( 'NONE',  ( -22.50000000000000000, 10.42857142857142705, 5.000000000000000000 ) ) ;
#1087 = LINE ( 'NONE', #459, #1146 ) ;
#1088 = LINE ( 'NONE', #386, #483 ) ;
#1089 = ORIENTED_EDGE ( 'NONE', *, *, #438, .T. ) ;
#1090 = ORIENTED_EDGE ( 'NONE', *, *, #1268, .T. ) ;
#1091 = PLANE ( 'NONE',  #590 ) ;
#1092 = EDGE_CURVE ( 'NONE', #1032, #1048, #307, .T. ) ;
#1093 = LINE ( 'NONE', #570, #1277 ) ;
#1094 = CARTESIAN_POINT ( 'NONE',  ( -22.50000000000000000, -10.42857142857142705, 23.00000000000000000 ) ) ;
#1095 = DIRECTION ( 'NONE',  ( 0.000000000000000000, 0.000000000000000000, -1.000000000000000000 ) ) ;
#1096 = ORIENTED_EDGE ( 'NONE', *, *, #989, .T. ) ;
#1097 = ORIENTED_EDGE ( 'NONE', *, *, #83, .F. ) ;
#1098 = DIRECTION ( 'NONE',  ( 1.000000000000000000, -0.000000000000000000, 0.000000000000000000 ) ) ;
#1099 = DIRECTION ( 'NONE',  ( 0.000000000000000000, 1.000000000000000000, 0.000000000000000000 ) ) ;
#1100 = EDGE_CURVE ( 'NONE', #344, #1313, #390, .T. ) ;
#1101 = PLANE ( 'NONE',  #628 ) ;
#1102 = CARTESIAN_POINT ( 'NONE',  ( -40.00000000000000000, 30.00000000000000000, 5.000000000000000000 ) ) ;
#1103 = VECTOR ( 'NONE', #1154, 1000.000000000000000 ) ;
#1104 = LINE ( 'NONE', #1228, #270 ) ;
#1105 = VECTOR ( 'NONE', #507, 1000.000000000000000 ) ;
#1106 = ORIENTED_EDGE ( 'NONE', *, *, #1136, .T. ) ;
#1107 = ORIENTED_EDGE ( 'NONE', *, *, #746, .F. ) ;
#1108 = CARTESIAN_POINT ( 'NONE',  ( -22.50000000000000000, -2.142857142857142350, 23.00000000000000000 ) ) ;
#1109 = CARTESIAN_POINT ( 'NONE',  ( -22.50000000000000000, 2.142857142857142350, 23.00000000000000000 ) ) ;
#1110 = DIRECTION ( 'NONE',  ( 0.000000000000000000, -1.000000000000000000, 0.000000000000000000 ) ) ;
#1111 = DIRECTION ( 'NONE',  ( -0.000000000000000000, -0.000000000000000000, -1.000000000000000000 ) ) ;
#1112 = CARTESIAN_POINT ( 'NONE',  ( 22.50000000000000000, -8.428571428571428825, 5.000000000000000000 ) ) ;
#1113 = ORIENTED_EDGE ( 'NONE', *, *, #601, .F. ) ;
#1114 = ORIENTED_EDGE ( 'NONE', *, *, #716, .F. ) ;
#1115 = DIRECTION ( 'NONE',  ( -1.000000000000000000, 0.000000000000000000, -0.000000000000000000 ) ) ;
#1116 = DIRECTION ( 'NONE',  ( 0.000000000000000000, 0.000000000000000000, -1.000000000000000000 ) ) ;
#1117 = DIRECTION ( 'NONE',  ( 0.000000000000000000, -0.000000000000000000, -1.000000000000000000 ) ) ;
#1118 = LINE ( 'NONE', #460, #830 ) ;
#1119 = CARTESIAN_POINT ( 'NONE',  ( -22.50000000000000000, -14.71428571428571530, 23.00000000000000000 ) ) ;
#1120 = ORIENTED_EDGE ( 'NONE', *, *, #829, .T. ) ;
#1121 = EDGE_CURVE ( 'NONE', #1231, #118, #810, .T. ) ;
#1122 = VERTEX_POINT ( 'NONE', #1242 ) ;
#1123 = CARTESIAN_POINT ( 'NONE',  ( 22.50000000000000000, -4.142857142857142350, 23.00000000000000000 ) ) ;
#1124 = CARTESIAN_POINT ( 'NONE',  ( -22.50000000000000000, 2.142857142857142350, 23.00000000000000000 ) ) ;
#1125 = DIRECTION ( 'NONE',  ( 1.000000000000000000, -0.000000000000000000, 0.000000000000000000 ) ) ;
#1126 = CARTESIAN_POINT ( 'NONE',  ( -22.50000000000000000, -2.142857142857142350, 23.00000000000000000 ) ) ;
#1127 = ADVANCED_FACE ( 'NONE', ( #1059 ), #318, .F. ) ;
#1128 = VECTOR ( 'NONE', #1098, 1000.000000000000000 ) ;
#1129 = ORIENTED_EDGE ( 'NONE', *, *, #1326, .T. ) ;
#1130 = VECTOR ( 'NONE', #419, 1000.000000000000000 ) ;
#1131 = VECTOR ( 'NONE', #226, 1000.000000000000000 ) ;
#1132 = FACE_OUTER_BOUND ( 'NONE', #1264, .T. ) ;
#1133 = LINE ( 'NONE', #184, #925 ) ;
#1134 = DIRECTION ( 'NONE',  ( -0.000000000000000000, -0.000000000000000000, -1.000000000000000000 ) ) ;
#1135 = DIRECTION ( 'NONE',  ( 0.000000000000000000, -1.000000000000000000, 0.000000000000000000 ) ) ;
#1136 = EDGE_CURVE ( 'NONE', #223, #551, #840, .T. ) ;
#1137 = ORIENTED_EDGE ( 'NONE', *, *, #1164, .F. ) ;
#1138 = DIRECTION ( 'NONE',  ( 0.000000000000000000, -0.000000000000000000, 1.000000000000000000 ) ) ;
#1139 = APPROVAL ( #114, 'UNSPECIFIED' ) ;
#1140 = CARTESIAN_POINT ( 'NONE',  ( -22.50000000000000000, 20.99999999999999645, 5.000000000000000000 ) ) ;
#1141 = DIRECTION ( 'NONE',  ( 0.000000000000000000, 0.000000000000000000, -1.000000000000000000 ) ) ;
#1142 = LINE ( 'NONE', #499, #377 ) ;
#1143 = LOCAL_TIME ( 11, 56, 27.00000000000000000, #233 ) ;
#1144 = CARTESIAN_POINT ( 'NONE',  ( -22.50000000000000000, 14.71428571428571530, 23.00000000000000000 ) ) ;
#1145 = DIRECTION ( 'NONE',  ( 0.000000000000000000, 1.000000000000000000, 0.000000000000000000 ) ) ;
#1146 = VECTOR ( 'NONE', #17, 1000.000000000000000 ) ;
#1147 = PLANE ( 'NONE',  #546 ) ;
#1148 = AXIS2_PLACEMENT_3D ( 'NONE', #625, #1270, #776 ) ;
#1149 = VECTOR ( 'NONE', #618, 1000.000000000000000 ) ;
#1150 = CARTESIAN_POINT ( 'NONE',  ( -22.50000000000000000, -4.142857142857142350, 23.00000000000000000 ) ) ;
#1151 = DIRECTION ( 'NONE',  ( -1.000000000000000000, 0.000000000000000000, 0.000000000000000000 ) ) ;
#1152 = DATE_TIME_ROLE ( 'creation_date' ) ;
#1153 = CARTESIAN_POINT ( 'NONE',  ( 40.00000000000000000, -30.00000000000000000, 5.000000000000000000 ) ) ;
#1154 = DIRECTION ( 'NONE',  ( -0.000000000000000000, -0.000000000000000000, -1.000000000000000000 ) ) ;
#1155 = EDGE_LOOP ( 'NONE', ( #914, #1272, #580, #935 ) ) ;
#1156 = EDGE_CURVE ( 'NONE', #955, #445, #1373, .T. ) ;
#1157 = SHAPE_DEFINITION_REPRESENTATION ( #703, #192 ) ;
#1158 = FACE_OUTER_BOUND ( 'NONE', #622, .T. ) ;
#1159 = LINE ( 'NONE', #627, #517 ) ;
#1160 = EDGE_CURVE ( 'NONE', #1188, #43, #1261, .T. ) ;
#1161 = VERTEX_POINT ( 'NONE', #960 ) ;
#1162 = EDGE_LOOP ( 'NONE', ( #371, #1172, #314, #321 ) ) ;
#1163 = ORIENTED_EDGE ( 'NONE', *, *, #1021, .F. ) ;
#1164 = EDGE_CURVE ( 'NONE', #908, #526, #219, .T. ) ;
#1165 = VECTOR ( 'NONE', #947, 1000.000000000000000 ) ;
#1166 = VECTOR ( 'NONE', #754, 1000.000000000000000 ) ;
#1167 = EDGE_CURVE ( 'NONE', #1048, #833, #418, .T. ) ;
#1168 = VECTOR ( 'NONE', #1353, 1000.000000000000000 ) ;
#1169 = DIRECTION ( 'NONE',  ( 0.000000000000000000, -1.000000000000000000, 0.000000000000000000 ) ) ;
#1170 = LINE ( 'NONE', #90, #242 ) ;
#1171 = ORIENTED_EDGE ( 'NONE', *, *, #702, .T. ) ;
#1172 = ORIENTED_EDGE ( 'NONE', *, *, #134, .T. ) ;
#1173 = EDGE_LOOP ( 'NONE', ( #858, #1295, #1137, #767 ) ) ;
#1174 = FACE_OUTER_BOUND ( 'NONE', #1081, .T. ) ;
#1175 = LINE ( 'NONE', #536, #243 ) ;
#1176 = DIRECTION ( 'NONE',  ( -1.000000000000000000, 0.000000000000000000, 0.000000000000000000 ) ) ;
#1177 = ORIENTED_EDGE ( 'NONE', *, *, #440, .F. ) ;
#1178 = VERTEX_POINT ( 'NONE', #1153 ) ;
#1179 = ORIENTED_EDGE ( 'NONE', *, *, #60, .T. ) ;
#1180 = ORIENTED_EDGE ( 'NONE', *, *, #1355, .F. ) ;
#1181 = PLANE ( 'NONE',  #426 ) ;
#1182 = EDGE_CURVE ( 'NONE', #551, #1188, #1308, .T. ) ;
#1183 = PLANE ( 'NONE',  #1191 ) ;
#1184 = ORIENTED_EDGE ( 'NONE', *, *, #1167, .T. ) ;
#1185 = UNCERTAINTY_MEASURE_WITH_UNIT (LENGTH_MEASURE( 1.000000000000000082E-05 ), #923, 'distance_accuracy_value', 'NONE');
#1186 = VERTEX_POINT ( 'NONE', #642 ) ;
#1187 = ORIENTED_EDGE ( 'NONE', *, *, #693, .F. ) ;
#1188 = VERTEX_POINT ( 'NONE', #996 ) ;
#1189 = LINE ( 'NONE', #879, #679 ) ;
#1190 = VECTOR ( 'NONE', #346, 1000.000000000000000 ) ;
#1191 = AXIS2_PLACEMENT_3D ( 'NONE', #252, #649, #449 ) ;
#1192 = LINE ( 'NONE', #343, #501 ) ;
#1193 = VECTOR ( 'NONE', #568, 1000.000000000000000 ) ;
#1194 = CARTESIAN_POINT ( 'NONE',  ( -22.50000000000000000, -10.42857142857142705, 23.00000000000000000 ) ) ;
#1195 = ORIENTED_EDGE ( 'NONE', *, *, #1182, .F. ) ;
#1196 = ORIENTED_EDGE ( 'NONE', *, *, #746, .T. ) ;
#1197 = ADVANCED_FACE ( 'NONE', ( #103 ), #328, .F. ) ;
#1198 = ADVANCED_FACE ( 'NONE', ( #1158 ), #945, .F. ) ;
#1199 = LINE ( 'NONE', #1316, #788 ) ;
#1200 = LINE ( 'NONE', #672, #176 ) ;
#1201 = CARTESIAN_POINT ( 'NONE',  ( 22.50000000000000000, 16.71428571428571530, 23.00000000000000000 ) ) ;
#1202 = DIRECTION ( 'NONE',  ( 0.000000000000000000, -0.000000000000000000, 1.000000000000000000 ) ) ;
#1203 = ORIENTED_EDGE ( 'NONE', *, *, #829, .F. ) ;
#1204 = EDGE_LOOP ( 'NONE', ( #1120, #701, #58, #108 ) ) ;
#1205 = LINE ( 'NONE', #544, #1128 ) ;
#1206 = CARTESIAN_POINT ( 'NONE',  ( -22.50000000000000000, 4.142857142857142350, 23.00000000000000000 ) ) ;
#1207 = PLANE ( 'NONE',  #847 ) ;
#1208 = CARTESIAN_POINT ( 'NONE',  ( -22.50000000000000000, 2.142857142857142350, 23.00000000000000000 ) ) ;
#1209 = PLANE ( 'NONE',  #1219 ) ;
#1210 = ORIENTED_EDGE ( 'NONE', *, *, #134, .F. ) ;
#1211 = VERTEX_POINT ( 'NONE', #406 ) ;
#1212 = FACE_BOUND ( 'NONE', #381, .T. ) ;
#1213 = FACE_OUTER_BOUND ( 'NONE', #758, .T. ) ;
#1214 = EDGE_CURVE ( 'NONE', #344, #445, #831, .T. ) ;
#1215 = LINE ( 'NONE', #383, #543 ) ;
#1216 = LINE ( 'NONE', #336, #707 ) ;
#1217 = VECTOR ( 'NONE', #1252, 1000.000000000000000 ) ;
#1218 = CARTESIAN_POINT ( 'NONE',  ( -22.50000000000000000, 16.71428571428571530, 23.00000000000000000 ) ) ;
#1219 = AXIS2_PLACEMENT_3D ( 'NONE', #156, #297, #926 ) ;
#1220 = EDGE_LOOP ( 'NONE', ( #525, #565, #1089, #425 ) ) ;
#1221 = ORIENTED_EDGE ( 'NONE', *, *, #617, .T. ) ;
#1222 = PRODUCT_DEFINITION_FORMATION_WITH_SPECIFIED_SOURCE ( 'ANY', '', #1232, .NOT_KNOWN. ) ;
#1223 = ORIENTED_EDGE ( 'NONE', *, *, #870, .F. ) ;
#1224 = CARTESIAN_POINT ( 'NONE',  ( 40.00000000000000000, -30.00000000000000000, 0.000000000000000000 ) ) ;
#1225 = LINE ( 'NONE', #895, #741 ) ;
#1226 = ADVANCED_FACE ( 'NONE', ( #846 ), #878, .F. ) ;
#1227 = CARTESIAN_POINT ( 'NONE',  ( 22.50000000000000000, -10.42857142857142705, 23.00000000000000000 ) ) ;
#1228 = CARTESIAN_POINT ( 'NONE',  ( 22.50000000000000000, -16.71428571428571530, 23.00000000000000000 ) ) ;
#1229 = CARTESIAN_POINT ( 'NONE',  ( 0.000000000000000000, 0.000000000000000000, 5.000000000000000000 ) ) ;
#1230 = ORIENTED_EDGE ( 'NONE', *, *, #1160, .T. ) ;
#1231 = VERTEX_POINT ( 'NONE', #257 ) ;
#1232 = PRODUCT ( 'stage1_geometry', 'stage1_geometry', '', ( #827 ) ) ;
#1233 = DIRECTION ( 'NONE',  ( 0.000000000000000000, -1.000000000000000000, 0.000000000000000000 ) ) ;
#1234 = CARTESIAN_POINT ( 'NONE',  ( -40.00000000000000000, -30.00000000000000000, 0.000000000000000000 ) ) ;
#1235 = LINE ( 'NONE', #698, #64 ) ;
#1236 = DIRECTION ( 'NONE',  ( -0.000000000000000000, -0.000000000000000000, -1.000000000000000000 ) ) ;
#1237 = EDGE_CURVE ( 'NONE', #1274, #1291, #1175, .T. ) ;
#1238 = DIRECTION ( 'NONE',  ( -1.000000000000000000, 0.000000000000000000, 0.000000000000000000 ) ) ;
#1239 = ORIENTED_EDGE ( 'NONE', *, *, #412, .T. ) ;
#1240 = CARTESIAN_POINT ( 'NONE',  ( -22.50000000000000000, -4.142857142857142350, 23.00000000000000000 ) ) ;
#1241 = LINE ( 'NONE', #929, #16 ) ;
#1242 = CARTESIAN_POINT ( 'NONE',  ( -22.50000000000000000, 20.99999999999999645, 23.00000000000000000 ) ) ;
#1243 = CARTESIAN_POINT ( 'NONE',  ( -22.50000000000000000, 0.000000000000000000, 5.000000000000000000 ) ) ;
#1244 = ORIENTED_EDGE ( 'NONE', *, *, #384, .F. ) ;
#1245 = VECTOR ( 'NONE', #1077, 1000.000000000000000 ) ;
#1246 = ADVANCED_FACE ( 'NONE', ( #732 ), #619, .F. ) ;
#1247 = VECTOR ( 'NONE', #1034, 1000.000000000000000 ) ;
#1248 = DIRECTION ( 'NONE',  ( -0.000000000000000000, -1.000000000000000000, -0.000000000000000000 ) ) ;
#1249 = CARTESIAN_POINT ( 'NONE',  ( -22.50000000000000000, 14.71428571428571530, 23.00000000000000000 ) ) ;
#1250 = DIRECTION ( 'NONE',  ( 0.000000000000000000, 1.000000000000000000, 0.000000000000000000 ) ) ;
#1251 = FACE_OUTER_BOUND ( 'NONE', #1284, .T. ) ;
#1252 = DIRECTION ( 'NONE',  ( 0.000000000000000000, -1.000000000000000000, 0.000000000000000000 ) ) ;
#1253 = DIRECTION ( 'NONE',  ( 1.000000000000000000, 0.000000000000000000, 0.000000000000000000 ) ) ;
#1254 = CARTESIAN_POINT ( 'NONE',  ( -22.50000000000000000, -16.71428571428571530, 23.00000000000000000 ) ) ;
#1255 = EDGE_CURVE ( 'NONE', #43, #223, #423, .T. ) ;
#1256 = FACE_OUTER_BOUND ( 'NONE', #410, .T. ) ;
#1257 = AXIS2_PLACEMENT_3D ( 'NONE', #643, #636, #832 ) ;
#1258 = COORDINATED_UNIVERSAL_TIME_OFFSET ( 8, 0, .AHEAD. ) ;
#1259 = VECTOR ( 'NONE', #149, 1000.000000000000000 ) ;
#1260 = EDGE_CURVE ( 'NONE', #207, #1333, #1266, .T. ) ;
#1261 = LINE ( 'NONE', #1370, #1193 ) ;
#1262 = ADVANCED_FACE ( 'NONE', ( #670 ), #210, .F. ) ;
#1263 = DIRECTION ( 'NONE',  ( -1.000000000000000000, 0.000000000000000000, 0.000000000000000000 ) ) ;
#1264 = EDGE_LOOP ( 'NONE', ( #428, #1230, #32, #1106 ) ) ;
#1265 = ADVANCED_FACE ( 'NONE', ( #1335 ), #266, .F. ) ;
#1266 = LINE ( 'NONE', #1206, #39 ) ;
#1267 = DIRECTION ( 'NONE',  ( 0.000000000000000000, 0.000000000000000000, 1.000000000000000000 ) ) ;
#1268 = EDGE_CURVE ( 'NONE', #75, #324, #576, .T. ) ;
#1269 = ORIENTED_EDGE ( 'NONE', *, *, #246, .F. ) ;
#1270 = DIRECTION ( 'NONE',  ( 0.000000000000000000, -1.000000000000000000, 0.000000000000000000 ) ) ;
#1271 = CARTESIAN_POINT ( 'NONE',  ( 22.50000000000000000, 14.71428571428571530, 23.00000000000000000 ) ) ;
#1272 = ORIENTED_EDGE ( 'NONE', *, *, #246, .T. ) ;
#1273 = ORIENTED_EDGE ( 'NONE', *, *, #60, .F. ) ;
#1274 = VERTEX_POINT ( 'NONE', #783 ) ;
#1275 = VECTOR ( 'NONE', #179, 1000.000000000000000 ) ;
#1276 = PRODUCT_RELATED_PRODUCT_CATEGORY ( 'detail', '', ( #1232 ) ) ;
#1277 = VECTOR ( 'NONE', #770, 1000.000000000000000 ) ;
#1278 = AXIS2_PLACEMENT_3D ( 'NONE', #78, #89, #1042 ) ;
#1279 = VECTOR ( 'NONE', #393, 1000.000000000000000 ) ;
#1280 = DIRECTION ( 'NONE',  ( 0.000000000000000000, 0.000000000000000000, 1.000000000000000000 ) ) ;
#1281 = CARTESIAN_POINT ( 'NONE',  ( -22.50000000000000000, 14.71428571428571530, 5.000000000000000000 ) ) ;
#1282 = ORIENTED_EDGE ( 'NONE', *, *, #470, .T. ) ;
#1283 = ORIENTED_EDGE ( 'NONE', *, *, #635, .T. ) ;
#1284 = EDGE_LOOP ( 'NONE', ( #712, #1056, #361, #212 ) ) ;
#1285 = COORDINATED_UNIVERSAL_TIME_OFFSET ( 8, 0, .AHEAD. ) ;
#1286 = PLANE ( 'NONE',  #502 ) ;
#1287 = CARTESIAN_POINT ( 'NONE',  ( 0.000000000000000000, -14.71428571428571530, 5.000000000000000000 ) ) ;
#1288 = ORIENTED_EDGE ( 'NONE', *, *, #57, .T. ) ;
#1289 = ORIENTED_EDGE ( 'NONE', *, *, #635, .F. ) ;
#1290 = ORIENTED_EDGE ( 'NONE', *, *, #91, .T. ) ;
#1291 = VERTEX_POINT ( 'NONE', #1004 ) ;
#1292 = LINE ( 'NONE', #341, #922 ) ;
#1293 = DIRECTION ( 'NONE',  ( -0.000000000000000000, -1.000000000000000000, -0.000000000000000000 ) ) ;
#1294 = ORIENTED_EDGE ( 'NONE', *, *, #581, .F. ) ;
#1295 = ORIENTED_EDGE ( 'NONE', *, *, #939, .T. ) ;
#1296 = PLANE ( 'NONE',  #737 ) ;
#1297 = FACE_OUTER_BOUND ( 'NONE', #781, .T. ) ;
#1298 = APPLICATION_CONTEXT ( 'configuration controlled 3d designs of mechanical parts and assemblies' ) ;
#1299 = VECTOR ( 'NONE', #1068, 1000.000000000000000 ) ;
#1300 = ADVANCED_FACE ( 'NONE', ( #1213 ), #372, .F. ) ;
#1301 = PLANE ( 'NONE',  #1018 ) ;
#1302 = VECTOR ( 'NONE', #35, 1000.000000000000000 ) ;
#1303 = CARTESIAN_POINT ( 'NONE',  ( 22.50000000000000000, 2.142857142857142350, 23.00000000000000000 ) ) ;
#1304 = EDGE_CURVE ( 'NONE', #676, #1161, #160, .T. ) ;
#1305 = VERTEX_POINT ( 'NONE', #166 ) ;
#1306 = VERTEX_POINT ( 'NONE', #61 ) ;
#1307 = EDGE_LOOP ( 'NONE', ( #885, #751, #645, #967 ) ) ;
#1308 = LINE ( 'NONE', #941, #375 ) ;
#1309 = FACE_OUTER_BOUND ( 'NONE', #469, .T. ) ;
#1310 = ADVANCED_FACE ( 'NONE', ( #479 ), #285, .F. ) ;
#1311 = CARTESIAN_POINT ( 'NONE',  ( 22.50000000000000000, -4.142857142857142350, 23.00000000000000000 ) ) ;
#1312 = PLANE ( 'NONE',  #153 ) ;
#1313 = VERTEX_POINT ( 'NONE', #45 ) ;
#1314 = VERTEX_POINT ( 'NONE', #1224 ) ;
#1315 = EDGE_CURVE ( 'NONE', #1122, #1057, #903, .T. ) ;
#1316 = CARTESIAN_POINT ( 'NONE',  ( 22.50000000000000000, 0.000000000000000000, 5.000000000000000000 ) ) ;
#1317 = CARTESIAN_POINT ( 'NONE',  ( 22.50000000000000000, -2.142857142857142350, 23.00000000000000000 ) ) ;
#1318 = DIRECTION ( 'NONE',  ( 0.000000000000000000, 1.000000000000000000, 0.000000000000000000 ) ) ;
#1319 = LINE ( 'NONE', #771, #309 ) ;
#1320 = DIRECTION ( 'NONE',  ( -0.000000000000000000, -0.000000000000000000, -1.000000000000000000 ) ) ;
#1321 = LOCAL_TIME ( 11, 56, 27.00000000000000000, #1285 ) ;
#1322 = EDGE_LOOP ( 'NONE', ( #558, #644, #1269, #1239 ) ) ;
#1323 = ORIENTED_EDGE ( 'NONE', *, *, #794, .F. ) ;
#1324 = ORIENTED_EDGE ( 'NONE', *, *, #470, .F. ) ;
#1325 = DIRECTION ( 'NONE',  ( 0.000000000000000000, -1.000000000000000000, 0.000000000000000000 ) ) ;
#1326 = EDGE_CURVE ( 'NONE', #249, #948, #802, .T. ) ;
#1327 = CARTESIAN_POINT ( 'NONE',  ( -22.50000000000000000, -10.42857142857142705, 5.000000000000000000 ) ) ;
#1328 = SECURITY_CLASSIFICATION ( '', '', #136 ) ;
#1329 = CARTESIAN_POINT ( 'NONE',  ( -22.50000000000000000, -10.42857142857142705, 23.00000000000000000 ) ) ;
#1330 = LINE ( 'NONE', #1218, #518 ) ;
#1331 = VECTOR ( 'NONE', #586, 1000.000000000000000 ) ;
#1332 = CARTESIAN_POINT ( 'NONE',  ( 0.000000000000000000, -8.428571428571428825, 5.000000000000000000 ) ) ;
#1333 = VERTEX_POINT ( 'NONE', #1033 ) ;
#1334 = ORIENTED_EDGE ( 'NONE', *, *, #342, .T. ) ;
#1335 = FACE_OUTER_BOUND ( 'NONE', #1220, .T. ) ;
#1336 = PLANE ( 'NONE',  #178 ) ;
#1337 = PLANE ( 'NONE',  #482 ) ;
#1338 = DIRECTION ( 'NONE',  ( 0.000000000000000000, 0.000000000000000000, -1.000000000000000000 ) ) ;
#1339 = DIRECTION ( 'NONE',  ( -1.000000000000000000, -0.000000000000000000, -0.000000000000000000 ) ) ;
#1340 = ORIENTED_EDGE ( 'NONE', *, *, #1356, .F. ) ;
#1341 = LINE ( 'NONE', #809, #310 ) ;
#1342 = CARTESIAN_POINT ( 'NONE',  ( -22.50000000000000000, 8.428571428571425272, 23.00000000000000000 ) ) ;
#1343 = CC_DESIGN_PERSON_AND_ORGANIZATION_ASSIGNMENT ( #957, #1085, ( #1222 ) ) ;
#1344 = EDGE_CURVE ( 'NONE', #477, #1178, #1241, .T. ) ;
#1345 = DIRECTION ( 'NONE',  ( 0.000000000000000000, 1.000000000000000000, 0.000000000000000000 ) ) ;
#1346 = EDGE_LOOP ( 'NONE', ( #540, #451, #688, #582 ) ) ;
#1347 = COORDINATED_UNIVERSAL_TIME_OFFSET ( 8, 0, .AHEAD. ) ;
#1348 = CARTESIAN_POINT ( 'NONE',  ( 22.50000000000000000, -14.71428571428571530, 23.00000000000000000 ) ) ;
#1349 = DIRECTION ( 'NONE',  ( -1.000000000000000000, 0.000000000000000000, 0.000000000000000000 ) ) ;
#1350 = VECTOR ( 'NONE', #934, 1000.000000000000000 ) ;
#1351 = VECTOR ( 'NONE', #260, 1000.000000000000000 ) ;
#1352 = AXIS2_PLACEMENT_3D ( 'NONE', #1109, #681, #53 ) ;
#1353 = DIRECTION ( 'NONE',  ( 1.000000000000000000, 0.000000000000000000, 0.000000000000000000 ) ) ;
#1354 = CARTESIAN_POINT ( 'NONE',  ( -22.50000000000000000, 23.00000000000000000, 23.00000000000000000 ) ) ;
#1355 = EDGE_CURVE ( 'NONE', #324, #1122, #1133, .T. ) ;
#1356 = EDGE_CURVE ( 'NONE', #1314, #631, #1142, .T. ) ;
#1357 = PLANE ( 'NONE',  #792 ) ;
#1358 = FACE_OUTER_BOUND ( 'NONE', #1026, .T. ) ;
#1359 = PERSON_AND_ORGANIZATION_ROLE ( 'creator' ) ;
#1360 = CC_DESIGN_SECURITY_CLASSIFICATION ( #1328, ( #1222 ) ) ;
#1361 = EDGE_CURVE ( 'NONE', #129, #444, #495, .T. ) ;
#1362 = FACE_OUTER_BOUND ( 'NONE', #1162, .T. ) ;
#1363 = DIRECTION ( 'NONE',  ( -1.000000000000000000, -0.000000000000000000, -0.000000000000000000 ) ) ;
#1364 = ORIENTED_EDGE ( 'NONE', *, *, #811, .F. ) ;
#1365 = VECTOR ( 'NONE', #1023, 1000.000000000000000 ) ;
#1366 = FACE_OUTER_BOUND ( 'NONE', #974, .T. ) ;
#1367 = VECTOR ( 'NONE', #909, 1000.000000000000000 ) ;
#1368 = EDGE_CURVE ( 'NONE', #416, #26, #303, .T. ) ;
#1369 = ADVANCED_FACE ( 'NONE', ( #1366 ), #1147, .F. ) ;
#1370 = CARTESIAN_POINT ( 'NONE',  ( -22.50000000000000000, -8.428571428571428825, 23.00000000000000000 ) ) ;
#1371 = CARTESIAN_POINT ( 'NONE',  ( 22.50000000000000000, 14.71428571428571530, 5.000000000000000888 ) ) ;
#1372 = ORIENTED_EDGE ( 'NONE', *, *, #717, .F. ) ;
#1373 = LINE ( 'NONE', #738, #569 ) ;
ENDSEC;
END-ISO-10303-21;
