999
FreeCAD v1.1 20260725 (Git shallow)
  0
SECTION
  2
HEADER
  9
$ACADVER
  1
AC1014
  9
$ACADMAINTVER
 70
     9
  9
$DWGCODEPAGE
  3
ANSI_1252
  9
$TEXTSTYLE
  7
STANDARD
  9
$DIMSTYLE
  2
STANDARD
  9
$DIMTXSTY
  7
STANDARD
  9
$CMLSTYLE
  2
STANDARD
  9
$LUNITS
 70
2
  9
$INSUNITS
 70
4
  9
$PEXTMAX
 10
50
 20
50
 30
50
  9
$PEXTMIN
 10
0
 20
0
 30
0
  9
$HANDSEED
  5
FFFF
  0
ENDSEC
  0
SECTION
  2
CLASSES
  0
CLASS
  1
ACDBDICTIONARYWDFLT
  2
AcDbDictionaryWithDefault
  3
ObjectDBX Classes
 90
        0
280
     0
281
     0
  0
CLASS
  1
XRECORD
  2
AcDbXrecord
  3
ObjectDBX Classes
 90
        0
280
     0
281
     0
  0
CLASS
  1
LWPOLYLINE
  2
AcDbPolyline
  3
ObjectDBX Classes
 90
        0
280
     0
281
     1
  0
ENDSEC
  0
SECTION
  2
TABLES
  0
TABLE
  2
VPORT
  5
20
330
0
100
AcDbSymbolTable
 70
     1
  0
VPORT
  5
21
330
20
100
AcDbSymbolTableRecord
100
AcDbViewportTableRecord
  2
*ACTIVE
 70
     0
  0
ENDTAB
  0
TABLE
  2
LTYPE
  5
22
330
0
100
AcDbSymbolTable
 70
     1
  0
LTYPE
  5
23
330
21
100
AcDbSymbolTableRecord
100
AcDbLinetypeTableRecord
  2
BYBLOCK
 70
     0
  3

 72
    65
 73
     0
 40
0.0
  0
LTYPE
  5
24
330
21
100
AcDbSymbolTableRecord
100
AcDbLinetypeTableRecord
  2
BYLAYER
 70
     0
  3

 72
    65
 73
     0
 40
0.0
  0
LTYPE
  5
25
330
21
100
AcDbSymbolTableRecord
100
AcDbLinetypeTableRecord
  2
CONTINUOUS
 70
     0
  3
Solid line
 72
    65
 73
     0
 40
0.0
  0
ENDTAB
  0
TABLE
  2
LAYER
  5
A70
330
0
100
AcDbSymbolTable
 70
7
  0
LAYER
  5
A71
330
A70
100
AcDbSymbolTableRecord
100
AcDbLayerTableRecord
  2
0
 70
   0
 62
   7
  6
CONTINUOUS
  0
LAYER
  5
A72
330
A70
100
AcDbSymbolTableRecord
100
AcDbLayerTableRecord
  2
ProjItem
 70
    0
 62
    7
  6
CONTINUOUS
  0
LAYER
  5
A73
330
A70
100
AcDbSymbolTableRecord
100
AcDbLayerTableRecord
  2
ProjItem001
 70
    0
 62
    7
  6
CONTINUOUS
  0
LAYER
  5
A74
330
A70
100
AcDbSymbolTableRecord
100
AcDbLayerTableRecord
  2
ProjItem002
 70
    0
 62
    7
  6
CONTINUOUS
  0
LAYER
  5
A75
330
A70
100
AcDbSymbolTableRecord
100
AcDbLayerTableRecord
  2
DimDia7
 70
    0
 62
    7
  6
CONTINUOUS
  0
LAYER
  5
A76
330
A70
100
AcDbSymbolTableRecord
100
AcDbLayerTableRecord
  2
DimWidth
 70
    0
 62
    7
  6
CONTINUOUS
  0
LAYER
  5
A77
330
A70
100
AcDbSymbolTableRecord
100
AcDbLayerTableRecord
  2
DimHeight
 70
    0
 62
    7
  6
CONTINUOUS
  0
ENDTAB
  0
TABLE
  2
STYLE
  5
70
330
0
100
AcDbSymbolTable
 70
     2
  0
STYLE
  5
71
330
70
100
AcDbSymbolTableRecord
100
AcDbTextStyleTableRecord
  2
STANDARD
 70
     0
 40
0.0
 41
1.0
 50
0.0
 71
     0
 42
2.5
  3
arial.ttf
  4

  0
STYLE
  5
72
330
70
100
AcDbSymbolTableRecord
100
AcDbTextStyleTableRecord
  2
ANNOTATIVE
 70
     0
 40
0.0
 41
1.0
 50
0.0
 71
     0
 42
2.5
  3
arial.ttf
  4

  0
ENDTAB
  0
TABLE
  2
VIEW
  5
73
330
0
100
AcDbSymbolTable
 70
     0
  0
ENDTAB
  0
TABLE
  2
UCS
  5
74
330
0
100
AcDbSymbolTable
 70
     0
  0
ENDTAB
  0
TABLE
  2
APPID
  5
75
330
0
100
AcDbSymbolTable
 70
     2
  0
APPID
  5
76
330
75
100
AcDbSymbolTableRecord
100
AcDbRegAppTableRecord
  2
ACAD
 70
     0
  0
APPID
  5
77
330
75
100
AcDbSymbolTableRecord
100
AcDbRegAppTableRecord
  2
ACADANNOTATIVE
 70
     0
  0
ENDTAB
  0
TABLE
  2
DIMSTYLE
  5
78
330
0
100
AcDbSymbolTable
 70
     2
  0
DIMSTYLE
105
79
330
78
100
AcDbSymbolTableRecord
100
AcDbDimStyleTableRecord
  2
STANDARD
 70
     0
  3

  4

  5

  6

  7

 40
0.0
 41
2.5
 42
0.625
 43
3.75
 44
1.25
 45
0.0
 46
0.0
 47
0.0
 48
0.0
140
2.5
141
2.5
142
0.0
143
0.03937007874016
144
1.0
145
0.0
146
1.0
147
0.625
 71
     0
 72
     0
 73
     0
 74
     0
 75
     0
 76
     0
 77
     1
 78
     8
170
     0
171
     3
172
     1
173
     0
174
     0
175
     0
176
     0
177
     0
178
     0
270
     2
271
     2
272
     2
273
     2
274
     3
340
71
275
     0
280
     0
281
     0
282
     0
283
     0
284
     8
285
     0
286
     0
287
     3
288
     0
  0
ENDTAB
  0
TABLE
  2
BLOCK_RECORD
  5
A01
330
0
100
AcDbSymbolTable
  70
5
  0
BLOCK_RECORD
  5
A02
330
A01
100
AcDbSymbolTableRecord
100
AcDbBlockTableRecord
  2
*MODEL_SPACE
  0
BLOCK_RECORD
  5
A03
330
A01
100
AcDbSymbolTableRecord
100
AcDbBlockTableRecord
  2
*PAPER_SPACE
  0
BLOCK_RECORD
  5
A55
330
A01
100
AcDbSymbolTableRecord
100
AcDbBlockTableRecord
  2
*DimDia7
  0
BLOCK_RECORD
  5
A5D
330
A01
100
AcDbSymbolTableRecord
100
AcDbBlockTableRecord
  2
*DimWidth
  0
BLOCK_RECORD
  5
A67
330
A01
100
AcDbSymbolTableRecord
100
AcDbBlockTableRecord
  2
*DimHeight
  0
ENDTAB
  0
ENDSEC
  0
SECTION
  2
BLOCKS
  0
BLOCK
  5
A04
330
A02
100
AcDbEntity
  8
0
100
AcDbBlockBegin
  2
*MODEL_SPACE
 70
   0
 10
0
 20
0
 30
0
  3
*MODEL_SPACE
  1
 
  0
ENDBLK
  5
A05
330
A02
100
AcDbEntity
  8
0
100
AcDbBlockEnd
  0
BLOCK
  5
A06
330
A03
100
AcDbEntity
 67
1
  8
0
100
AcDbBlockBegin
  2
*PAPER_SPACE
 70
   0
 10
0
 20
0
 30
0
  3
*PAPER_SPACE
  1
 
  0
ENDBLK
  5
A07
330
A03
100
AcDbEntity
 67
    1
  8
0
100
AcDbBlockEnd
  0
BLOCK
  5
A56
330
A55
100
AcDbEntity
  8
DimDia7
100
AcDbBlockBegin
  2
*DimDia7
 70
   1
 10
0
 20
0
 30
0
  3
*DimDia7
  1
 
  0
LINE
  5
A57
330
A55
100
AcDbEntity
  8
DimDia7
100
AcDbLine
 10
161.342
 20
95.3748
 30
0
 11
156.658
 21
93.6252
 31
0
  0
TEXT
  5
A58
330
A55
100
AcDbEntity
  8
DimDia7
100
AcDbText
 10
173.5
 20
105
 30
0
 40
3.5
  1
⌀10
  7
STANDARD
 72
1
 11
173.5
 21
105
 31
0
100
AcDbText
  0
SOLID
  5
A59
330
A55
100
AcDbEntity
  8
0
 62
     0
100
AcDbTrace
 10
156.804
 20
93.2349
 30
0
 11
156.512
 21
94.0155
 31
0
 12
161.342
 22
95.3748
 32
0
 13
161.342
 23
95.3748
 33
0
  0
SOLID
  5
A5A
330
A55
100
AcDbEntity
  8
0
 62
     0
100
AcDbTrace
 10
161.488
 20
94.9845
 30
0
 11
161.196
 21
95.7651
 31
0
 12
156.658
 22
93.6252
 32
0
 13
156.658
 23
93.6252
 33
0
  0
ENDBLK
  5
A5B
330
A55
100
AcDbEntity
  8
DimDia7
100
AcDbBlockEnd
  0
BLOCK
  5
A5E
330
A5D
100
AcDbEntity
  8
DimWidth
100
AcDbBlockBegin
  2
*DimWidth
 70
   1
 10
0
 20
0
 30
0
  3
*DimWidth
  1
 
  0
LINE
  5
A5F
330
A5D
100
AcDbEntity
  8
DimWidth
100
AcDbLine
 10
176.5
 20
125
 30
0
 11
176.5
 21
167
 31
0
  0
LINE
  5
A60
330
A5D
100
AcDbEntity
  8
DimWidth
100
AcDbLine
 10
126.5
 20
125
 30
0
 11
126.5
 21
167
 31
0
  0
LINE
  5
A61
330
A5D
100
AcDbEntity
  8
DimWidth
100
AcDbLine
 10
126.5
 20
167
 30
0
 11
176.5
 21
167
 31
0
  0
TEXT
  5
A62
330
A5D
100
AcDbEntity
  8
DimWidth
100
AcDbText
 10
151.5
 20
172
 30
0
 40
3.5
  1
100
  7
STANDARD
 72
1
 11
151.5
 21
167
 31
0
100
AcDbText
  0
SOLID
  5
A63
330
A5D
100
AcDbEntity
  8
0
 62
     0
100
AcDbTrace
 10
121.5
 20
167.417
 30
0
 11
121.5
 21
166.583
 31
0
 12
126.5
 22
167
 32
0
 13
126.5
 23
167
 33
0
  0
SOLID
  5
A64
330
A5D
100
AcDbEntity
  8
0
 62
     0
100
AcDbTrace
 10
181.5
 20
167.417
 30
0
 11
181.5
 21
166.583
 31
0
 12
176.5
 22
167
 32
0
 13
176.5
 23
167
 33
0
  0
ENDBLK
  5
A65
330
A5D
100
AcDbEntity
  8
DimWidth
100
AcDbBlockEnd
  0
BLOCK
  5
A68
330
A67
100
AcDbEntity
  8
DimHeight
100
AcDbBlockBegin
  2
*DimHeight
 70
   1
 10
0
 20
0
 30
0
  3
*DimHeight
  1
 
  0
LINE
  5
A69
330
A67
100
AcDbEntity
  8
DimHeight
100
AcDbLine
 10
126.5
 20
160
 30
0
 11
183.5
 21
160
 31
0
  0
LINE
  5
A6A
330
A67
100
AcDbEntity
  8
DimHeight
100
AcDbLine
 10
126.5
 20
125
 30
0
 11
183.5
 21
125
 31
0
  0
LINE
  5
A6B
330
A67
100
AcDbEntity
  8
DimHeight
100
AcDbLine
 10
183.5
 20
125
 30
0
 11
183.5
 21
160
 31
0
  0
TEXT
  5
A6C
330
A67
100
AcDbEntity
  8
DimHeight
100
AcDbText
 10
188.5
 20
142.5
 30
0
 40
3.5
  1
70
  7
STANDARD
 72
1
 11
183.5
 21
142.5
 31
0
100
AcDbText
  0
SOLID
  5
A6D
330
A67
100
AcDbEntity
  8
0
 62
     0
100
AcDbTrace
 10
183.917
 20
120
 30
0
 11
183.083
 21
120
 31
0
 12
183.5
 22
125
 32
0
 13
183.5
 23
125
 33
0
  0
SOLID
  5
A6E
330
A67
100
AcDbEntity
  8
0
 62
     0
100
AcDbTrace
 10
183.917
 20
165
 30
0
 11
183.083
 21
165
 31
0
 12
183.5
 22
160
 32
0
 13
183.5
 23
160
 33
0
  0
ENDBLK
  5
A6F
330
A67
100
AcDbEntity
  8
DimHeight
100
AcDbBlockEnd
  0
ENDSEC
  0
SECTION
  2
ENTITIES
  0
LINE
  5
A08
330
A02
100
AcDbEntity
  8
ProjItem
100
AcDbLine
 10
126.500000000
 20
125.000000000
 30
0.000000000
 11
126.500000000
 21
160.000000000
 31
0.000000000
  0
LINE
  5
A09
330
A02
100
AcDbEntity
  8
ProjItem
100
AcDbLine
 10
126.500000000
 20
125.000000000
 30
0.000000000
 11
176.500000000
 21
125.000000000
 31
0.000000000
  0
LINE
  5
A0A
330
A02
100
AcDbEntity
  8
ProjItem
100
AcDbLine
 10
126.500000000
 20
160.000000000
 30
0.000000000
 11
130.500000000
 21
160.000000000
 31
0.000000000
  0
LINE
  5
A0B
330
A02
100
AcDbEntity
  8
ProjItem
100
AcDbLine
 10
130.500000000
 20
129.000000000
 30
0.000000000
 11
130.500000000
 21
160.000000000
 31
0.000000000
  0
LINE
  5
A0C
330
A02
100
AcDbEntity
  8
ProjItem
100
AcDbLine
 10
130.500000000
 20
129.000000000
 30
0.000000000
 11
176.500000000
 21
129.000000000
 31
0.000000000
  0
LINE
  5
A0D
330
A02
100
AcDbEntity
  8
ProjItem
100
AcDbLine
 10
176.500000000
 20
125.000000000
 30
0.000000000
 11
176.500000000
 21
129.000000000
 31
0.000000000
  0
LINE
  5
A0E
330
A02
100
AcDbEntity
  8
ProjItem
100
AcDbLine
 10
126.500000000
 20
160.000000000
 30
0.000000000
 11
126.500000000
 21
125.000000000
 31
0.000000000
  0
SPLINE
  5
A0F
330
A02
100
AcDbEntity
  8
ProjItem
100
AcDbSpline
210
0
220
0
230
1
 70
8
 71
1
 72
17
 73
15
 74
0
 40
0.000000000
 40
0.000000000
 40
0.224399475
 40
0.448798951
 40
0.673198426
 40
0.897597901
 40
1.121997376
 40
1.346396852
 40
1.570796327
 40
1.795195802
 40
2.019595277
 40
2.243994753
 40
2.468394228
 40
2.692793703
 40
2.917193178
 40
3.141592654
 40
3.141592654
 10
126.500000000
 20
150.000000000
 30
0.000000000
 10
126.500000000
 20
149.937319780
 30
0.000000000
 10
126.500000000
 20
149.752422170
 30
0.000000000
 10
126.500000000
 20
149.454578706
 30
0.000000000
 10
126.500000000
 20
149.058724505
 30
0.000000000
 10
126.500000000
 20
148.584709348
 30
0.000000000
 10
126.500000000
 20
148.056302335
 30
0.000000000
 10
126.500000000
 20
147.500000000
 30
0.000000000
 10
126.500000000
 20
146.943697665
 30
0.000000000
 10
126.500000000
 20
146.415290652
 30
0.000000000
 10
126.500000000
 20
145.941275495
 30
0.000000000
 10
126.500000000
 20
145.545421294
 30
0.000000000
 10
126.500000000
 20
145.247577830
 30
0.000000000
 10
126.500000000
 20
145.062680220
 30
0.000000000
 10
126.500000000
 20
145.000000000
 30
0.000000000
  0
SPLINE
  5
A10
330
A02
100
AcDbEntity
  8
ProjItem
100
AcDbSpline
210
0
220
0
230
1
 70
8
 71
1
 72
17
 73
15
 74
0
 40
3.141592654
 40
3.141592654
 40
3.365992129
 40
3.590391604
 40
3.814791079
 40
4.039190555
 40
4.263590030
 40
4.487989505
 40
4.712388980
 40
4.936788456
 40
5.161187931
 40
5.385587406
 40
5.609986881
 40
5.834386357
 40
6.058785832
 40
6.283185307
 40
6.283185307
 10
126.500000000
 20
145.000000000
 30
0.000000000
 10
126.500000000
 20
145.062680220
 30
0.000000000
 10
126.500000000
 20
145.247577830
 30
0.000000000
 10
126.500000000
 20
145.545421294
 30
0.000000000
 10
126.500000000
 20
145.941275495
 30
0.000000000
 10
126.500000000
 20
146.415290652
 30
0.000000000
 10
126.500000000
 20
146.943697665
 30
0.000000000
 10
126.500000000
 20
147.500000000
 30
0.000000000
 10
126.500000000
 20
148.056302335
 30
0.000000000
 10
126.500000000
 20
148.584709348
 30
0.000000000
 10
126.500000000
 20
149.058724505
 30
0.000000000
 10
126.500000000
 20
149.454578706
 30
0.000000000
 10
126.500000000
 20
149.752422170
 30
0.000000000
 10
126.500000000
 20
149.937319780
 30
0.000000000
 10
126.500000000
 20
150.000000000
 30
0.000000000
  0
LINE
  5
A11
330
A02
100
AcDbEntity
  8
ProjItem
100
AcDbLine
 10
176.500000000
 20
125.000000000
 30
0.000000000
 11
126.500000000
 21
125.000000000
 31
0.000000000
  0
SPLINE
  5
A12
330
A02
100
AcDbEntity
  8
ProjItem
100
AcDbSpline
210
0
220
0
230
1
 70
8
 71
1
 72
17
 73
15
 74
0
 40
0.000000000
 40
0.000000000
 40
0.224399475
 40
0.448798951
 40
0.673198426
 40
0.897597901
 40
1.121997376
 40
1.346396852
 40
1.570796327
 40
1.795195802
 40
2.019595277
 40
2.243994753
 40
2.468394228
 40
2.692793703
 40
2.917193178
 40
3.141592654
 40
3.141592654
 10
161.500000000
 20
125.000000000
 30
0.000000000
 10
161.437319780
 20
125.000000000
 30
0.000000000
 10
161.252422170
 20
125.000000000
 30
0.000000000
 10
160.954578706
 20
125.000000000
 30
0.000000000
 10
160.558724505
 20
125.000000000
 30
0.000000000
 10
160.084709348
 20
125.000000000
 30
0.000000000
 10
159.556302335
 20
125.000000000
 30
0.000000000
 10
159.000000000
 20
125.000000000
 30
0.000000000
 10
158.443697665
 20
125.000000000
 30
0.000000000
 10
157.915290652
 20
125.000000000
 30
0.000000000
 10
157.441275495
 20
125.000000000
 30
0.000000000
 10
157.045421294
 20
125.000000000
 30
0.000000000
 10
156.747577830
 20
125.000000000
 30
0.000000000
 10
156.562680220
 20
125.000000000
 30
0.000000000
 10
156.500000000
 20
125.000000000
 30
0.000000000
  0
SPLINE
  5
A13
330
A02
100
AcDbEntity
  8
ProjItem
100
AcDbSpline
210
0
220
0
230
1
 70
8
 71
1
 72
17
 73
15
 74
0
 40
3.141592654
 40
3.141592654
 40
3.365992129
 40
3.590391604
 40
3.814791079
 40
4.039190555
 40
4.263590030
 40
4.487989505
 40
4.712388980
 40
4.936788456
 40
5.161187931
 40
5.385587406
 40
5.609986881
 40
5.834386357
 40
6.058785832
 40
6.283185307
 40
6.283185307
 10
156.500000000
 20
125.000000000
 30
0.000000000
 10
156.562680220
 20
125.000000000
 30
0.000000000
 10
156.747577830
 20
125.000000000
 30
0.000000000
 10
157.045421294
 20
125.000000000
 30
0.000000000
 10
157.441275495
 20
125.000000000
 30
0.000000000
 10
157.915290652
 20
125.000000000
 30
0.000000000
 10
158.443697665
 20
125.000000000
 30
0.000000000
 10
159.000000000
 20
125.000000000
 30
0.000000000
 10
159.556302335
 20
125.000000000
 30
0.000000000
 10
160.084709348
 20
125.000000000
 30
0.000000000
 10
160.558724505
 20
125.000000000
 30
0.000000000
 10
160.954578706
 20
125.000000000
 30
0.000000000
 10
161.252422170
 20
125.000000000
 30
0.000000000
 10
161.437319780
 20
125.000000000
 30
0.000000000
 10
161.500000000
 20
125.000000000
 30
0.000000000
  0
LINE
  5
A14
330
A02
100
AcDbEntity
  8
ProjItem
100
AcDbLine
 10
126.500000000
 20
160.000000000
 30
0.000000000
 11
130.500000000
 21
160.000000000
 31
0.000000000
  0
LINE
  5
A15
330
A02
100
AcDbEntity
  8
ProjItem
100
AcDbLine
 10
130.500000000
 20
129.000000000
 30
0.000000000
 11
130.500000000
 21
160.000000000
 31
0.000000000
  0
LINE
  5
A16
330
A02
100
AcDbEntity
  8
ProjItem
100
AcDbLine
 10
130.500000000
 20
129.000000000
 30
0.000000000
 11
176.500000000
 21
129.000000000
 31
0.000000000
  0
LINE
  5
A17
330
A02
100
AcDbEntity
  8
ProjItem
100
AcDbLine
 10
176.500000000
 20
125.000000000
 30
0.000000000
 11
176.500000000
 21
129.000000000
 31
0.000000000
  0
SPLINE
  5
A18
330
A02
100
AcDbEntity
  8
ProjItem
100
AcDbSpline
210
0
220
0
230
1
 70
8
 71
1
 72
17
 73
15
 74
0
 40
0.000000000
 40
0.000000000
 40
0.224399475
 40
0.448798951
 40
0.673198426
 40
0.897597901
 40
1.121997376
 40
1.346396852
 40
1.570796327
 40
1.795195802
 40
2.019595277
 40
2.243994753
 40
2.468394228
 40
2.692793703
 40
2.917193178
 40
3.141592654
 40
3.141592654
 10
130.500000000
 20
150.000000000
 30
0.000000000
 10
130.500000000
 20
149.937319780
 30
0.000000000
 10
130.500000000
 20
149.752422170
 30
0.000000000
 10
130.500000000
 20
149.454578706
 30
0.000000000
 10
130.500000000
 20
149.058724505
 30
0.000000000
 10
130.500000000
 20
148.584709348
 30
0.000000000
 10
130.500000000
 20
148.056302335
 30
0.000000000
 10
130.500000000
 20
147.500000000
 30
0.000000000
 10
130.500000000
 20
146.943697665
 30
0.000000000
 10
130.500000000
 20
146.415290652
 30
0.000000000
 10
130.500000000
 20
145.941275495
 30
0.000000000
 10
130.500000000
 20
145.545421294
 30
0.000000000
 10
130.500000000
 20
145.247577830
 30
0.000000000
 10
130.500000000
 20
145.062680220
 30
0.000000000
 10
130.500000000
 20
145.000000000
 30
0.000000000
  0
SPLINE
  5
A19
330
A02
100
AcDbEntity
  8
ProjItem
100
AcDbSpline
210
0
220
0
230
1
 70
8
 71
1
 72
17
 73
15
 74
0
 40
3.141592654
 40
3.141592654
 40
3.365992129
 40
3.590391604
 40
3.814791079
 40
4.039190555
 40
4.263590030
 40
4.487989505
 40
4.712388980
 40
4.936788456
 40
5.161187931
 40
5.385587406
 40
5.609986881
 40
5.834386357
 40
6.058785832
 40
6.283185307
 40
6.283185307
 10
130.500000000
 20
145.000000000
 30
0.000000000
 10
130.500000000
 20
145.062680220
 30
0.000000000
 10
130.500000000
 20
145.247577830
 30
0.000000000
 10
130.500000000
 20
145.545421294
 30
0.000000000
 10
130.500000000
 20
145.941275495
 30
0.000000000
 10
130.500000000
 20
146.415290652
 30
0.000000000
 10
130.500000000
 20
146.943697665
 30
0.000000000
 10
130.500000000
 20
147.500000000
 30
0.000000000
 10
130.500000000
 20
148.056302335
 30
0.000000000
 10
130.500000000
 20
148.584709348
 30
0.000000000
 10
130.500000000
 20
149.058724505
 30
0.000000000
 10
130.500000000
 20
149.454578706
 30
0.000000000
 10
130.500000000
 20
149.752422170
 30
0.000000000
 10
130.500000000
 20
149.937319780
 30
0.000000000
 10
130.500000000
 20
150.000000000
 30
0.000000000
  0
LINE
  5
A1A
330
A02
100
AcDbEntity
  8
ProjItem
100
AcDbLine
 10
126.500000000
 20
150.000000000
 30
0.000000000
 11
130.500000000
 21
150.000000000
 31
0.000000000
  0
SPLINE
  5
A1B
330
A02
100
AcDbEntity
  8
ProjItem
100
AcDbSpline
210
0
220
0
230
1
 70
8
 71
1
 72
17
 73
15
 74
0
 40
0.000000000
 40
0.000000000
 40
0.224399475
 40
0.448798951
 40
0.673198426
 40
0.897597901
 40
1.121997376
 40
1.346396852
 40
1.570796327
 40
1.795195802
 40
2.019595277
 40
2.243994753
 40
2.468394228
 40
2.692793703
 40
2.917193178
 40
3.141592654
 40
3.141592654
 10
161.500000000
 20
129.000000000
 30
0.000000000
 10
161.437319780
 20
129.000000000
 30
0.000000000
 10
161.252422170
 20
129.000000000
 30
0.000000000
 10
160.954578706
 20
129.000000000
 30
0.000000000
 10
160.558724505
 20
129.000000000
 30
0.000000000
 10
160.084709348
 20
129.000000000
 30
0.000000000
 10
159.556302335
 20
129.000000000
 30
0.000000000
 10
159.000000000
 20
129.000000000
 30
0.000000000
 10
158.443697665
 20
129.000000000
 30
0.000000000
 10
157.915290652
 20
129.000000000
 30
0.000000000
 10
157.441275495
 20
129.000000000
 30
0.000000000
 10
157.045421294
 20
129.000000000
 30
0.000000000
 10
156.747577830
 20
129.000000000
 30
0.000000000
 10
156.562680220
 20
129.000000000
 30
0.000000000
 10
156.500000000
 20
129.000000000
 30
0.000000000
  0
SPLINE
  5
A1C
330
A02
100
AcDbEntity
  8
ProjItem
100
AcDbSpline
210
0
220
0
230
1
 70
8
 71
1
 72
17
 73
15
 74
0
 40
3.141592654
 40
3.141592654
 40
3.365992129
 40
3.590391604
 40
3.814791079
 40
4.039190555
 40
4.263590030
 40
4.487989505
 40
4.712388980
 40
4.936788456
 40
5.161187931
 40
5.385587406
 40
5.609986881
 40
5.834386357
 40
6.058785832
 40
6.283185307
 40
6.283185307
 10
156.500000000
 20
129.000000000
 30
0.000000000
 10
156.562680220
 20
129.000000000
 30
0.000000000
 10
156.747577830
 20
129.000000000
 30
0.000000000
 10
157.045421294
 20
129.000000000
 30
0.000000000
 10
157.441275495
 20
129.000000000
 30
0.000000000
 10
157.915290652
 20
129.000000000
 30
0.000000000
 10
158.443697665
 20
129.000000000
 30
0.000000000
 10
159.000000000
 20
129.000000000
 30
0.000000000
 10
159.556302335
 20
129.000000000
 30
0.000000000
 10
160.084709348
 20
129.000000000
 30
0.000000000
 10
160.558724505
 20
129.000000000
 30
0.000000000
 10
160.954578706
 20
129.000000000
 30
0.000000000
 10
161.252422170
 20
129.000000000
 30
0.000000000
 10
161.437319780
 20
129.000000000
 30
0.000000000
 10
161.500000000
 20
129.000000000
 30
0.000000000
  0
LINE
  5
A1D
330
A02
100
AcDbEntity
  8
ProjItem
100
AcDbLine
 10
161.500000000
 20
125.000000000
 30
0.000000000
 11
161.500000000
 21
129.000000000
 31
0.000000000
  0
LINE
  5
A1E
330
A02
100
AcDbEntity
  8
ProjItem
100
AcDbLine
 10
126.500000000
 20
145.000000000
 30
0.000000000
 11
130.500000000
 21
145.000000000
 31
0.000000000
  0
LINE
  5
A1F
330
A02
100
AcDbEntity
  8
ProjItem
100
AcDbLine
 10
156.500000000
 20
125.000000000
 30
0.000000000
 11
156.500000000
 21
129.000000000
 31
0.000000000
  0
LINE
  5
A20
330
A02
100
AcDbEntity
  8
ProjItem
100
AcDbLine
 10
159.000000000
 20
124.500000000
 30
0.000000000
 11
159.000000000
 21
129.500000000
 31
0.000000000
  0
LINE
  5
A21
330
A02
100
AcDbEntity
  8
ProjItem
100
AcDbLine
 10
126.000000000
 20
147.500000000
 30
0.000000000
 11
131.000000000
 21
147.500000000
 31
0.000000000
  0
LINE
  5
A22
330
A02
100
AcDbEntity
  8
ProjItem001
100
AcDbLine
 10
126.500000000
 20
82.000000000
 30
0.000000000
 11
126.500000000
 21
107.000000000
 31
0.000000000
  0
LINE
  5
A23
330
A02
100
AcDbEntity
  8
ProjItem001
100
AcDbLine
 10
126.500000000
 20
82.000000000
 30
0.000000000
 11
130.500000000
 21
82.000000000
 31
0.000000000
  0
LINE
  5
A24
330
A02
100
AcDbEntity
  8
ProjItem001
100
AcDbLine
 10
130.500000000
 20
82.000000000
 30
0.000000000
 11
176.500000000
 21
82.000000000
 31
0.000000000
  0
LINE
  5
A25
330
A02
100
AcDbEntity
  8
ProjItem001
100
AcDbLine
 10
130.500000000
 20
82.000000000
 30
0.000000000
 11
130.500000000
 21
107.000000000
 31
0.000000000
  0
LINE
  5
A26
330
A02
100
AcDbEntity
  8
ProjItem001
100
AcDbLine
 10
126.500000000
 20
107.000000000
 30
0.000000000
 11
130.500000000
 21
107.000000000
 31
0.000000000
  0
LINE
  5
A27
330
A02
100
AcDbEntity
  8
ProjItem001
100
AcDbLine
 10
130.500000000
 20
107.000000000
 30
0.000000000
 11
176.500000000
 21
107.000000000
 31
0.000000000
  0
LINE
  5
A28
330
A02
100
AcDbEntity
  8
ProjItem001
100
AcDbLine
 10
176.500000000
 20
82.000000000
 30
0.000000000
 11
176.500000000
 21
107.000000000
 31
0.000000000
  0
CIRCLE
  5
A29
330
A02
100
AcDbEntity
  8
ProjItem001
100
AcDbCircle
 10
159.000000000
 20
94.500000000
 30
0.000000000
 40
2.500000000
  0
LINE
  5
A2A
330
A02
100
AcDbEntity
  8
ProjItem001
100
AcDbLine
 10
126.500000000
 20
82.000000000
 30
0.000000000
 11
126.500000000
 21
107.000000000
 31
0.000000000
  0
SPLINE
  5
A2B
330
A02
100
AcDbEntity
  8
ProjItem001
100
AcDbSpline
210
0
220
0
230
1
 70
8
 71
2
 72
30
 73
27
 74
0
 40
0.000000000
 40
0.000000000
 40
0.000000000
 40
0.112199738
 40
0.112199738
 40
0.336599213
 40
0.336599213
 40
0.448798951
 40
0.448798951
 40
0.560998688
 40
0.560998688
 40
0.673198426
 40
0.673198426
 40
0.785398163
 40
0.785398163
 40
0.897597901
 40
0.897597901
 40
1.009797639
 40
1.009797639
 40
1.121997376
 40
1.121997376
 40
1.234197114
 40
1.234197114
 40
1.346396852
 40
1.346396852
 40
1.458596589
 40
1.458596589
 40
1.570796327
 40
1.570796327
 40
1.570796327
 10
126.500000000
 20
94.500000000
 30
0.000000000
 10
126.500000000
 20
94.360044405
 30
0.000000000
 10
126.500000000
 20
94.220088810
 30
0.000000000
 10
126.500000000
 20
93.941735905
 30
0.000000000
 10
126.500000000
 20
93.674302345
 30
0.000000000
 10
126.500000000
 20
93.544796499
 30
0.000000000
 10
126.500000000
 20
93.415290652
 30
0.000000000
 10
126.500000000
 20
93.292605230
 30
0.000000000
 10
126.500000000
 20
93.169919809
 30
0.000000000
 10
126.500000000
 20
93.055597652
 30
0.000000000
 10
126.500000000
 20
92.941275495
 30
0.000000000
 10
126.500000000
 20
92.836754271
 30
0.000000000
 10
126.500000000
 20
92.732233047
 30
0.000000000
 10
126.500000000
 20
92.638827170
 30
0.000000000
 10
126.500000000
 20
92.545421294
 30
0.000000000
 10
126.500000000
 20
92.464305398
 30
0.000000000
 10
126.500000000
 20
92.383189502
 30
0.000000000
 10
126.500000000
 20
92.315383666
 30
0.000000000
 10
126.500000000
 20
92.247577830
 30
0.000000000
 10
126.500000000
 20
92.193934752
 30
0.000000000
 10
126.500000000
 20
92.140291674
 30
0.000000000
 10
126.500000000
 20
92.101485947
 30
0.000000000
 10
126.500000000
 20
92.062680220
 30
0.000000000
 10
126.500000000
 20
92.039199847
 30
0.000000000
 10
126.500000000
 20
92.015719475
 30
0.000000000
 10
126.500000000
 20
92.007859738
 30
0.000000000
 10
126.500000000
 20
92.000000000
 30
0.000000000
  0
SPLINE
  5
A2C
330
A02
100
AcDbEntity
  8
ProjItem001
100
AcDbSpline
210
0
220
0
230
1
 70
8
 71
1
 72
17
 73
15
 74
0
 40
1.570796327
 40
1.570796327
 40
1.795195802
 40
2.019595277
 40
2.243994753
 40
2.468394228
 40
2.692793703
 40
2.917193178
 40
3.141592654
 40
3.365992129
 40
3.590391604
 40
3.814791079
 40
4.039190555
 40
4.263590030
 40
4.487989505
 40
4.712388980
 40
4.712388980
 10
126.500000000
 20
92.000000000
 30
0.000000000
 10
126.500000000
 20
92.062680220
 30
0.000000000
 10
126.500000000
 20
92.247577830
 30
0.000000000
 10
126.500000000
 20
92.545421294
 30
0.000000000
 10
126.500000000
 20
92.941275495
 30
0.000000000
 10
126.500000000
 20
93.415290652
 30
0.000000000
 10
126.500000000
 20
93.943697665
 30
0.000000000
 10
126.500000000
 20
94.500000000
 30
0.000000000
 10
126.500000000
 20
95.056302335
 30
0.000000000
 10
126.500000000
 20
95.584709348
 30
0.000000000
 10
126.500000000
 20
96.058724505
 30
0.000000000
 10
126.500000000
 20
96.454578706
 30
0.000000000
 10
126.500000000
 20
96.752422170
 30
0.000000000
 10
126.500000000
 20
96.937319780
 30
0.000000000
 10
126.500000000
 20
97.000000000
 30
0.000000000
  0
SPLINE
  5
A2D
330
A02
100
AcDbEntity
  8
ProjItem001
100
AcDbSpline
210
0
220
0
230
1
 70
8
 71
2
 72
30
 73
27
 74
0
 40
4.712388980
 40
4.712388980
 40
4.712388980
 40
4.824588718
 40
4.824588718
 40
4.936788456
 40
4.936788456
 40
5.048988193
 40
5.048988193
 40
5.161187931
 40
5.161187931
 40
5.273387669
 40
5.273387669
 40
5.385587406
 40
5.385587406
 40
5.497787144
 40
5.497787144
 40
5.609986881
 40
5.609986881
 40
5.722186619
 40
5.722186619
 40
5.834386357
 40
5.834386357
 40
5.946586094
 40
5.946586094
 40
6.058785832
 40
6.058785832
 40
6.283185307
 40
6.283185307
 40
6.283185307
 10
126.500000000
 20
97.000000000
 30
0.000000000
 10
126.500000000
 20
96.992140262
 30
0.000000000
 10
126.500000000
 20
96.984280525
 30
0.000000000
 10
126.500000000
 20
96.960800153
 30
0.000000000
 10
126.500000000
 20
96.937319780
 30
0.000000000
 10
126.500000000
 20
96.898514053
 30
0.000000000
 10
126.500000000
 20
96.859708326
 30
0.000000000
 10
126.500000000
 20
96.806065248
 30
0.000000000
 10
126.500000000
 20
96.752422170
 30
0.000000000
 10
126.500000000
 20
96.684616334
 30
0.000000000
 10
126.500000000
 20
96.616810498
 30
0.000000000
 10
126.500000000
 20
96.535694602
 30
0.000000000
 10
126.500000000
 20
96.454578706
 30
0.000000000
 10
126.500000000
 20
96.361172830
 30
0.000000000
 10
126.500000000
 20
96.267766953
 30
0.000000000
 10
126.500000000
 20
96.163245729
 30
0.000000000
 10
126.500000000
 20
96.058724505
 30
0.000000000
 10
126.500000000
 20
95.944402348
 30
0.000000000
 10
126.500000000
 20
95.830080191
 30
0.000000000
 10
126.500000000
 20
95.707394770
 30
0.000000000
 10
126.500000000
 20
95.584709348
 30
0.000000000
 10
126.500000000
 20
95.455203501
 30
0.000000000
 10
126.500000000
 20
95.325697655
 30
0.000000000
 10
126.500000000
 20
95.190999995
 30
0.000000000
 10
126.500000000
 20
95.056302335
 30
0.000000000
 10
126.500000000
 20
94.780898277
 30
0.000000000
 10
126.500000000
 20
94.500000000
 30
0.000000000
  0
LINE
  5
A2E
330
A02
100
AcDbEntity
  8
ProjItem001
100
AcDbLine
 10
126.500000000
 20
82.000000000
 30
0.000000000
 11
176.500000000
 21
82.000000000
 31
0.000000000
  0
LINE
  5
A2F
330
A02
100
AcDbEntity
  8
ProjItem001
100
AcDbLine
 10
176.500000000
 20
82.000000000
 30
0.000000000
 11
176.500000000
 21
107.000000000
 31
0.000000000
  0
LINE
  5
A30
330
A02
100
AcDbEntity
  8
ProjItem001
100
AcDbLine
 10
176.500000000
 20
107.000000000
 30
0.000000000
 11
126.500000000
 21
107.000000000
 31
0.000000000
  0
CIRCLE
  5
A31
330
A02
100
AcDbEntity
  8
ProjItem001
100
AcDbCircle
 10
159.000000000
 20
94.500000000
 30
0.000000000
 40
2.500000000
  0
SPLINE
  5
A32
330
A02
100
AcDbEntity
  8
ProjItem001
100
AcDbSpline
210
0
220
0
230
1
 70
8
 71
2
 72
30
 73
27
 74
0
 40
0.000000000
 40
0.000000000
 40
0.000000000
 40
0.112199738
 40
0.112199738
 40
0.336599213
 40
0.336599213
 40
0.448798951
 40
0.448798951
 40
0.560998688
 40
0.560998688
 40
0.673198426
 40
0.673198426
 40
0.785398163
 40
0.785398163
 40
0.897597901
 40
0.897597901
 40
1.009797639
 40
1.009797639
 40
1.121997376
 40
1.121997376
 40
1.234197114
 40
1.234197114
 40
1.346396852
 40
1.346396852
 40
1.458596589
 40
1.458596589
 40
1.570796327
 40
1.570796327
 40
1.570796327
 10
130.500000000
 20
94.500000000
 30
0.000000000
 10
130.500000000
 20
94.360044405
 30
0.000000000
 10
130.500000000
 20
94.220088810
 30
0.000000000
 10
130.500000000
 20
93.941735905
 30
0.000000000
 10
130.500000000
 20
93.674302345
 30
0.000000000
 10
130.500000000
 20
93.544796499
 30
0.000000000
 10
130.500000000
 20
93.415290652
 30
0.000000000
 10
130.500000000
 20
93.292605230
 30
0.000000000
 10
130.500000000
 20
93.169919809
 30
0.000000000
 10
130.500000000
 20
93.055597652
 30
0.000000000
 10
130.500000000
 20
92.941275495
 30
0.000000000
 10
130.500000000
 20
92.836754271
 30
0.000000000
 10
130.500000000
 20
92.732233047
 30
0.000000000
 10
130.500000000
 20
92.638827170
 30
0.000000000
 10
130.500000000
 20
92.545421294
 30
0.000000000
 10
130.500000000
 20
92.464305398
 30
0.000000000
 10
130.500000000
 20
92.383189502
 30
0.000000000
 10
130.500000000
 20
92.315383666
 30
0.000000000
 10
130.500000000
 20
92.247577830
 30
0.000000000
 10
130.500000000
 20
92.193934752
 30
0.000000000
 10
130.500000000
 20
92.140291674
 30
0.000000000
 10
130.500000000
 20
92.101485947
 30
0.000000000
 10
130.500000000
 20
92.062680220
 30
0.000000000
 10
130.500000000
 20
92.039199847
 30
0.000000000
 10
130.500000000
 20
92.015719475
 30
0.000000000
 10
130.500000000
 20
92.007859738
 30
0.000000000
 10
130.500000000
 20
92.000000000
 30
0.000000000
  0
SPLINE
  5
A33
330
A02
100
AcDbEntity
  8
ProjItem001
100
AcDbSpline
210
0
220
0
230
1
 70
8
 71
1
 72
17
 73
15
 74
0
 40
1.570796327
 40
1.570796327
 40
1.795195802
 40
2.019595277
 40
2.243994753
 40
2.468394228
 40
2.692793703
 40
2.917193178
 40
3.141592654
 40
3.365992129
 40
3.590391604
 40
3.814791079
 40
4.039190555
 40
4.263590030
 40
4.487989505
 40
4.712388980
 40
4.712388980
 10
130.500000000
 20
92.000000000
 30
0.000000000
 10
130.500000000
 20
92.062680220
 30
0.000000000
 10
130.500000000
 20
92.247577830
 30
0.000000000
 10
130.500000000
 20
92.545421294
 30
0.000000000
 10
130.500000000
 20
92.941275495
 30
0.000000000
 10
130.500000000
 20
93.415290652
 30
0.000000000
 10
130.500000000
 20
93.943697665
 30
0.000000000
 10
130.500000000
 20
94.500000000
 30
0.000000000
 10
130.500000000
 20
95.056302335
 30
0.000000000
 10
130.500000000
 20
95.584709348
 30
0.000000000
 10
130.500000000
 20
96.058724505
 30
0.000000000
 10
130.500000000
 20
96.454578706
 30
0.000000000
 10
130.500000000
 20
96.752422170
 30
0.000000000
 10
130.500000000
 20
96.937319780
 30
0.000000000
 10
130.500000000
 20
97.000000000
 30
0.000000000
  0
SPLINE
  5
A34
330
A02
100
AcDbEntity
  8
ProjItem001
100
AcDbSpline
210
0
220
0
230
1
 70
8
 71
2
 72
30
 73
27
 74
0
 40
4.712388980
 40
4.712388980
 40
4.712388980
 40
4.824588718
 40
4.824588718
 40
4.936788456
 40
4.936788456
 40
5.048988193
 40
5.048988193
 40
5.161187931
 40
5.161187931
 40
5.273387669
 40
5.273387669
 40
5.385587406
 40
5.385587406
 40
5.497787144
 40
5.497787144
 40
5.609986881
 40
5.609986881
 40
5.722186619
 40
5.722186619
 40
5.834386357
 40
5.834386357
 40
5.946586094
 40
5.946586094
 40
6.058785832
 40
6.058785832
 40
6.283185307
 40
6.283185307
 40
6.283185307
 10
130.500000000
 20
97.000000000
 30
0.000000000
 10
130.500000000
 20
96.992140262
 30
0.000000000
 10
130.500000000
 20
96.984280525
 30
0.000000000
 10
130.500000000
 20
96.960800153
 30
0.000000000
 10
130.500000000
 20
96.937319780
 30
0.000000000
 10
130.500000000
 20
96.898514053
 30
0.000000000
 10
130.500000000
 20
96.859708326
 30
0.000000000
 10
130.500000000
 20
96.806065248
 30
0.000000000
 10
130.500000000
 20
96.752422170
 30
0.000000000
 10
130.500000000
 20
96.684616334
 30
0.000000000
 10
130.500000000
 20
96.616810498
 30
0.000000000
 10
130.500000000
 20
96.535694602
 30
0.000000000
 10
130.500000000
 20
96.454578706
 30
0.000000000
 10
130.500000000
 20
96.361172830
 30
0.000000000
 10
130.500000000
 20
96.267766953
 30
0.000000000
 10
130.500000000
 20
96.163245729
 30
0.000000000
 10
130.500000000
 20
96.058724505
 30
0.000000000
 10
130.500000000
 20
95.944402348
 30
0.000000000
 10
130.500000000
 20
95.830080191
 30
0.000000000
 10
130.500000000
 20
95.707394770
 30
0.000000000
 10
130.500000000
 20
95.584709348
 30
0.000000000
 10
130.500000000
 20
95.455203501
 30
0.000000000
 10
130.500000000
 20
95.325697655
 30
0.000000000
 10
130.500000000
 20
95.190999995
 30
0.000000000
 10
130.500000000
 20
95.056302335
 30
0.000000000
 10
130.500000000
 20
94.780898277
 30
0.000000000
 10
130.500000000
 20
94.500000000
 30
0.000000000
  0
LINE
  5
A35
330
A02
100
AcDbEntity
  8
ProjItem001
100
AcDbLine
 10
130.500000000
 20
82.000000000
 30
0.000000000
 11
130.500000000
 21
107.000000000
 31
0.000000000
  0
LINE
  5
A36
330
A02
100
AcDbEntity
  8
ProjItem001
100
AcDbLine
 10
126.500000000
 20
92.000000000
 30
0.000000000
 11
130.500000000
 21
92.000000000
 31
0.000000000
  0
LINE
  5
A37
330
A02
100
AcDbEntity
  8
ProjItem001
100
AcDbLine
 10
126.500000000
 20
97.000000000
 30
0.000000000
 11
130.500000000
 21
97.000000000
 31
0.000000000
  0
LINE
  5
A38
330
A02
100
AcDbEntity
  8
ProjItem001
100
AcDbLine
 10
155.875000000
 20
94.500000000
 30
0.000000000
 11
162.125000000
 21
94.500000000
 31
0.000000000
  0
LINE
  5
A39
330
A02
100
AcDbEntity
  8
ProjItem001
100
AcDbLine
 10
159.000000000
 20
91.375000000
 30
0.000000000
 11
159.000000000
 21
97.625000000
 31
0.000000000
  0
LINE
  5
A3A
330
A02
100
AcDbEntity
  8
ProjItem001
100
AcDbLine
 10
126.000000000
 20
94.500000000
 30
0.000000000
 11
131.000000000
 21
94.500000000
 31
0.000000000
  0
LINE
  5
A3B
330
A02
100
AcDbEntity
  8
ProjItem002
100
AcDbLine
 10
83.500000000
 20
129.000000000
 30
0.000000000
 11
83.500000000
 21
160.000000000
 31
0.000000000
  0
LINE
  5
A3C
330
A02
100
AcDbEntity
  8
ProjItem002
100
AcDbLine
 10
83.500000000
 20
125.000000000
 30
0.000000000
 11
83.500000000
 21
129.000000000
 31
0.000000000
  0
LINE
  5
A3D
330
A02
100
AcDbEntity
  8
ProjItem002
100
AcDbLine
 10
83.500000000
 20
125.000000000
 30
0.000000000
 11
108.500000000
 21
125.000000000
 31
0.000000000
  0
LINE
  5
A3E
330
A02
100
AcDbEntity
  8
ProjItem002
100
AcDbLine
 10
83.500000000
 20
160.000000000
 30
0.000000000
 11
108.500000000
 21
160.000000000
 31
0.000000000
  0
LINE
  5
A3F
330
A02
100
AcDbEntity
  8
ProjItem002
100
AcDbLine
 10
108.500000000
 20
129.000000000
 30
0.000000000
 11
108.500000000
 21
160.000000000
 31
0.000000000
  0
LINE
  5
A40
330
A02
100
AcDbEntity
  8
ProjItem002
100
AcDbLine
 10
108.500000000
 20
125.000000000
 30
0.000000000
 11
108.500000000
 21
129.000000000
 31
0.000000000
  0
CIRCLE
  5
A41
330
A02
100
AcDbEntity
  8
ProjItem002
100
AcDbCircle
 10
96.000000000
 20
147.500000000
 30
0.000000000
 40
2.500000000
  0
LINE
  5
A42
330
A02
100
AcDbEntity
  8
ProjItem002
100
AcDbLine
 10
83.500000000
 20
129.000000000
 30
0.000000000
 11
108.500000000
 21
129.000000000
 31
0.000000000
  0
LINE
  5
A43
330
A02
100
AcDbEntity
  8
ProjItem002
100
AcDbLine
 10
83.500000000
 20
125.000000000
 30
0.000000000
 11
83.500000000
 21
160.000000000
 31
0.000000000
  0
LINE
  5
A44
330
A02
100
AcDbEntity
  8
ProjItem002
100
AcDbLine
 10
83.500000000
 20
125.000000000
 30
0.000000000
 11
108.500000000
 21
125.000000000
 31
0.000000000
  0
LINE
  5
A45
330
A02
100
AcDbEntity
  8
ProjItem002
100
AcDbLine
 10
108.500000000
 20
160.000000000
 30
0.000000000
 11
108.500000000
 21
125.000000000
 31
0.000000000
  0
LINE
  5
A46
330
A02
100
AcDbEntity
  8
ProjItem002
100
AcDbLine
 10
83.500000000
 20
160.000000000
 30
0.000000000
 11
108.500000000
 21
160.000000000
 31
0.000000000
  0
CIRCLE
  5
A47
330
A02
100
AcDbEntity
  8
ProjItem002
100
AcDbCircle
 10
96.000000000
 20
147.500000000
 30
0.000000000
 40
2.500000000
  0
SPLINE
  5
A48
330
A02
100
AcDbEntity
  8
ProjItem002
100
AcDbSpline
210
0
220
0
230
1
 70
8
 71
2
 72
30
 73
27
 74
0
 40
0.000000000
 40
0.000000000
 40
0.000000000
 40
0.112199738
 40
0.112199738
 40
0.336599213
 40
0.336599213
 40
0.448798951
 40
0.448798951
 40
0.560998688
 40
0.560998688
 40
0.673198426
 40
0.673198426
 40
0.785398163
 40
0.785398163
 40
0.897597901
 40
0.897597901
 40
1.009797639
 40
1.009797639
 40
1.121997376
 40
1.121997376
 40
1.234197114
 40
1.234197114
 40
1.346396852
 40
1.346396852
 40
1.458596589
 40
1.458596589
 40
1.570796327
 40
1.570796327
 40
1.570796327
 10
96.000000000
 20
125.000000000
 30
0.000000000
 10
96.139955595
 20
125.000000000
 30
0.000000000
 10
96.279911190
 20
125.000000000
 30
0.000000000
 10
96.558264095
 20
125.000000000
 30
0.000000000
 10
96.825697655
 20
125.000000000
 30
0.000000000
 10
96.955203501
 20
125.000000000
 30
0.000000000
 10
97.084709348
 20
125.000000000
 30
0.000000000
 10
97.207394770
 20
125.000000000
 30
0.000000000
 10
97.330080191
 20
125.000000000
 30
0.000000000
 10
97.444402348
 20
125.000000000
 30
0.000000000
 10
97.558724505
 20
125.000000000
 30
0.000000000
 10
97.663245729
 20
125.000000000
 30
0.000000000
 10
97.767766953
 20
125.000000000
 30
0.000000000
 10
97.861172830
 20
125.000000000
 30
0.000000000
 10
97.954578706
 20
125.000000000
 30
0.000000000
 10
98.035694602
 20
125.000000000
 30
0.000000000
 10
98.116810498
 20
125.000000000
 30
0.000000000
 10
98.184616334
 20
125.000000000
 30
0.000000000
 10
98.252422170
 20
125.000000000
 30
0.000000000
 10
98.306065248
 20
125.000000000
 30
0.000000000
 10
98.359708326
 20
125.000000000
 30
0.000000000
 10
98.398514053
 20
125.000000000
 30
0.000000000
 10
98.437319780
 20
125.000000000
 30
0.000000000
 10
98.460800153
 20
125.000000000
 30
0.000000000
 10
98.484280525
 20
125.000000000
 30
0.000000000
 10
98.492140262
 20
125.000000000
 30
0.000000000
 10
98.500000000
 20
125.000000000
 30
0.000000000
  0
SPLINE
  5
A49
330
A02
100
AcDbEntity
  8
ProjItem002
100
AcDbSpline
210
0
220
0
230
1
 70
8
 71
1
 72
17
 73
15
 74
0
 40
1.570796327
 40
1.570796327
 40
1.795195802
 40
2.019595277
 40
2.243994753
 40
2.468394228
 40
2.692793703
 40
2.917193178
 40
3.141592654
 40
3.365992129
 40
3.590391604
 40
3.814791079
 40
4.039190555
 40
4.263590030
 40
4.487989505
 40
4.712388980
 40
4.712388980
 10
98.500000000
 20
125.000000000
 30
0.000000000
 10
98.437319780
 20
125.000000000
 30
0.000000000
 10
98.252422170
 20
125.000000000
 30
0.000000000
 10
97.954578706
 20
125.000000000
 30
0.000000000
 10
97.558724505
 20
125.000000000
 30
0.000000000
 10
97.084709348
 20
125.000000000
 30
0.000000000
 10
96.556302335
 20
125.000000000
 30
0.000000000
 10
96.000000000
 20
125.000000000
 30
0.000000000
 10
95.443697665
 20
125.000000000
 30
0.000000000
 10
94.915290652
 20
125.000000000
 30
0.000000000
 10
94.441275495
 20
125.000000000
 30
0.000000000
 10
94.045421294
 20
125.000000000
 30
0.000000000
 10
93.747577830
 20
125.000000000
 30
0.000000000
 10
93.562680220
 20
125.000000000
 30
0.000000000
 10
93.500000000
 20
125.000000000
 30
0.000000000
  0
SPLINE
  5
A4A
330
A02
100
AcDbEntity
  8
ProjItem002
100
AcDbSpline
210
0
220
0
230
1
 70
8
 71
2
 72
30
 73
27
 74
0
 40
4.712388980
 40
4.712388980
 40
4.712388980
 40
4.824588718
 40
4.824588718
 40
4.936788456
 40
4.936788456
 40
5.048988193
 40
5.048988193
 40
5.161187931
 40
5.161187931
 40
5.273387669
 40
5.273387669
 40
5.385587406
 40
5.385587406
 40
5.497787144
 40
5.497787144
 40
5.609986881
 40
5.609986881
 40
5.722186619
 40
5.722186619
 40
5.834386357
 40
5.834386357
 40
5.946586094
 40
5.946586094
 40
6.058785832
 40
6.058785832
 40
6.283185307
 40
6.283185307
 40
6.283185307
 10
93.500000000
 20
125.000000000
 30
0.000000000
 10
93.507859738
 20
125.000000000
 30
0.000000000
 10
93.515719475
 20
125.000000000
 30
0.000000000
 10
93.539199847
 20
125.000000000
 30
0.000000000
 10
93.562680220
 20
125.000000000
 30
0.000000000
 10
93.601485947
 20
125.000000000
 30
0.000000000
 10
93.640291674
 20
125.000000000
 30
0.000000000
 10
93.693934752
 20
125.000000000
 30
0.000000000
 10
93.747577830
 20
125.000000000
 30
0.000000000
 10
93.815383666
 20
125.000000000
 30
0.000000000
 10
93.883189502
 20
125.000000000
 30
0.000000000
 10
93.964305398
 20
125.000000000
 30
0.000000000
 10
94.045421294
 20
125.000000000
 30
0.000000000
 10
94.138827170
 20
125.000000000
 30
0.000000000
 10
94.232233047
 20
125.000000000
 30
0.000000000
 10
94.336754271
 20
125.000000000
 30
0.000000000
 10
94.441275495
 20
125.000000000
 30
0.000000000
 10
94.555597652
 20
125.000000000
 30
0.000000000
 10
94.669919809
 20
125.000000000
 30
0.000000000
 10
94.792605230
 20
125.000000000
 30
0.000000000
 10
94.915290652
 20
125.000000000
 30
0.000000000
 10
95.044796499
 20
125.000000000
 30
0.000000000
 10
95.174302345
 20
125.000000000
 30
0.000000000
 10
95.309000005
 20
125.000000000
 30
0.000000000
 10
95.443697665
 20
125.000000000
 30
0.000000000
 10
95.719101723
 20
125.000000000
 30
0.000000000
 10
96.000000000
 20
125.000000000
 30
0.000000000
  0
LINE
  5
A4B
330
A02
100
AcDbEntity
  8
ProjItem002
100
AcDbLine
 10
83.500000000
 20
129.000000000
 30
0.000000000
 11
108.500000000
 21
129.000000000
 31
0.000000000
  0
SPLINE
  5
A4C
330
A02
100
AcDbEntity
  8
ProjItem002
100
AcDbSpline
210
0
220
0
230
1
 70
8
 71
2
 72
30
 73
27
 74
0
 40
0.000000000
 40
0.000000000
 40
0.000000000
 40
0.112199738
 40
0.112199738
 40
0.336599213
 40
0.336599213
 40
0.448798951
 40
0.448798951
 40
0.560998688
 40
0.560998688
 40
0.673198426
 40
0.673198426
 40
0.785398163
 40
0.785398163
 40
0.897597901
 40
0.897597901
 40
1.009797639
 40
1.009797639
 40
1.121997376
 40
1.121997376
 40
1.234197114
 40
1.234197114
 40
1.346396852
 40
1.346396852
 40
1.458596589
 40
1.458596589
 40
1.570796327
 40
1.570796327
 40
1.570796327
 10
96.000000000
 20
129.000000000
 30
0.000000000
 10
96.139955595
 20
129.000000000
 30
0.000000000
 10
96.279911190
 20
129.000000000
 30
0.000000000
 10
96.558264095
 20
129.000000000
 30
0.000000000
 10
96.825697655
 20
129.000000000
 30
0.000000000
 10
96.955203501
 20
129.000000000
 30
0.000000000
 10
97.084709348
 20
129.000000000
 30
0.000000000
 10
97.207394770
 20
129.000000000
 30
0.000000000
 10
97.330080191
 20
129.000000000
 30
0.000000000
 10
97.444402348
 20
129.000000000
 30
0.000000000
 10
97.558724505
 20
129.000000000
 30
0.000000000
 10
97.663245729
 20
129.000000000
 30
0.000000000
 10
97.767766953
 20
129.000000000
 30
0.000000000
 10
97.861172830
 20
129.000000000
 30
0.000000000
 10
97.954578706
 20
129.000000000
 30
0.000000000
 10
98.035694602
 20
129.000000000
 30
0.000000000
 10
98.116810498
 20
129.000000000
 30
0.000000000
 10
98.184616334
 20
129.000000000
 30
0.000000000
 10
98.252422170
 20
129.000000000
 30
0.000000000
 10
98.306065248
 20
129.000000000
 30
0.000000000
 10
98.359708326
 20
129.000000000
 30
0.000000000
 10
98.398514053
 20
129.000000000
 30
0.000000000
 10
98.437319780
 20
129.000000000
 30
0.000000000
 10
98.460800153
 20
129.000000000
 30
0.000000000
 10
98.484280525
 20
129.000000000
 30
0.000000000
 10
98.492140262
 20
129.000000000
 30
0.000000000
 10
98.500000000
 20
129.000000000
 30
0.000000000
  0
SPLINE
  5
A4D
330
A02
100
AcDbEntity
  8
ProjItem002
100
AcDbSpline
210
0
220
0
230
1
 70
8
 71
1
 72
17
 73
15
 74
0
 40
1.570796327
 40
1.570796327
 40
1.795195802
 40
2.019595277
 40
2.243994753
 40
2.468394228
 40
2.692793703
 40
2.917193178
 40
3.141592654
 40
3.365992129
 40
3.590391604
 40
3.814791079
 40
4.039190555
 40
4.263590030
 40
4.487989505
 40
4.712388980
 40
4.712388980
 10
98.500000000
 20
129.000000000
 30
0.000000000
 10
98.437319780
 20
129.000000000
 30
0.000000000
 10
98.252422170
 20
129.000000000
 30
0.000000000
 10
97.954578706
 20
129.000000000
 30
0.000000000
 10
97.558724505
 20
129.000000000
 30
0.000000000
 10
97.084709348
 20
129.000000000
 30
0.000000000
 10
96.556302335
 20
129.000000000
 30
0.000000000
 10
96.000000000
 20
129.000000000
 30
0.000000000
 10
95.443697665
 20
129.000000000
 30
0.000000000
 10
94.915290652
 20
129.000000000
 30
0.000000000
 10
94.441275495
 20
129.000000000
 30
0.000000000
 10
94.045421294
 20
129.000000000
 30
0.000000000
 10
93.747577830
 20
129.000000000
 30
0.000000000
 10
93.562680220
 20
129.000000000
 30
0.000000000
 10
93.500000000
 20
129.000000000
 30
0.000000000
  0
SPLINE
  5
A4E
330
A02
100
AcDbEntity
  8
ProjItem002
100
AcDbSpline
210
0
220
0
230
1
 70
8
 71
2
 72
30
 73
27
 74
0
 40
4.712388980
 40
4.712388980
 40
4.712388980
 40
4.824588718
 40
4.824588718
 40
4.936788456
 40
4.936788456
 40
5.048988193
 40
5.048988193
 40
5.161187931
 40
5.161187931
 40
5.273387669
 40
5.273387669
 40
5.385587406
 40
5.385587406
 40
5.497787144
 40
5.497787144
 40
5.609986881
 40
5.609986881
 40
5.722186619
 40
5.722186619
 40
5.834386357
 40
5.834386357
 40
5.946586094
 40
5.946586094
 40
6.058785832
 40
6.058785832
 40
6.283185307
 40
6.283185307
 40
6.283185307
 10
93.500000000
 20
129.000000000
 30
0.000000000
 10
93.507859738
 20
129.000000000
 30
0.000000000
 10
93.515719475
 20
129.000000000
 30
0.000000000
 10
93.539199847
 20
129.000000000
 30
0.000000000
 10
93.562680220
 20
129.000000000
 30
0.000000000
 10
93.601485947
 20
129.000000000
 30
0.000000000
 10
93.640291674
 20
129.000000000
 30
0.000000000
 10
93.693934752
 20
129.000000000
 30
0.000000000
 10
93.747577830
 20
129.000000000
 30
0.000000000
 10
93.815383666
 20
129.000000000
 30
0.000000000
 10
93.883189502
 20
129.000000000
 30
0.000000000
 10
93.964305398
 20
129.000000000
 30
0.000000000
 10
94.045421294
 20
129.000000000
 30
0.000000000
 10
94.138827170
 20
129.000000000
 30
0.000000000
 10
94.232233047
 20
129.000000000
 30
0.000000000
 10
94.336754271
 20
129.000000000
 30
0.000000000
 10
94.441275495
 20
129.000000000
 30
0.000000000
 10
94.555597652
 20
129.000000000
 30
0.000000000
 10
94.669919809
 20
129.000000000
 30
0.000000000
 10
94.792605230
 20
129.000000000
 30
0.000000000
 10
94.915290652
 20
129.000000000
 30
0.000000000
 10
95.044796499
 20
129.000000000
 30
0.000000000
 10
95.174302345
 20
129.000000000
 30
0.000000000
 10
95.309000005
 20
129.000000000
 30
0.000000000
 10
95.443697665
 20
129.000000000
 30
0.000000000
 10
95.719101723
 20
129.000000000
 30
0.000000000
 10
96.000000000
 20
129.000000000
 30
0.000000000
  0
LINE
  5
A4F
330
A02
100
AcDbEntity
  8
ProjItem002
100
AcDbLine
 10
98.500000000
 20
125.000000000
 30
0.000000000
 11
98.500000000
 21
129.000000000
 31
0.000000000
  0
LINE
  5
A50
330
A02
100
AcDbEntity
  8
ProjItem002
100
AcDbLine
 10
93.500000000
 20
125.000000000
 30
0.000000000
 11
93.500000000
 21
129.000000000
 31
0.000000000
  0
LINE
  5
A51
330
A02
100
AcDbEntity
  8
ProjItem002
100
AcDbLine
 10
92.875000000
 20
147.500000000
 30
0.000000000
 11
99.125000000
 21
147.500000000
 31
0.000000000
  0
LINE
  5
A52
330
A02
100
AcDbEntity
  8
ProjItem002
100
AcDbLine
 10
96.000000000
 20
144.375000000
 30
0.000000000
 11
96.000000000
 21
150.625000000
 31
0.000000000
  0
LINE
  5
A53
330
A02
100
AcDbEntity
  8
ProjItem002
100
AcDbLine
 10
96.000000000
 20
124.500000000
 30
0.000000000
 11
96.000000000
 21
129.500000000
 31
0.000000000
  0
DIMENSION
  5
A54
330
A02
100
AcDbEntity
  8
DimDia7
100
AcDbDimension
  2
*DimDia7
 10
161.341956790
 20
95.374779055
 30
0.000000000
 11
173.500000000
 21
105.000000000
 31
0.000000000
 70
3
  1
⌀10
  3
STANDARD
100
AcDbDiametricDimension
 15
156.658043210
 25
93.625220945
 35
0.000000000
 40
0
  0
DIMENSION
  5
A5C
330
A02
100
AcDbEntity
  8
DimWidth
100
AcDbDimension
  2
*DimWidth
 10
151.500000000
 20
167.000000000
 30
0.000000000
 11
151.500000000
 21
172.000000000
 31
0.000000000
 70
32
  1
100
  3
STANDARD
100
AcDbAlignedDimension
 13
126.500000000
 23
125.000000000
 33
0.000000000
 14
176.500000000
 24
125.000000000
 34
0.000000000
100
AcDbRotatedDimension
  0
DIMENSION
  5
A66
330
A02
100
AcDbEntity
  8
DimHeight
100
AcDbDimension
  2
*DimHeight
 10
183.500000000
 20
142.500000000
 30
0.000000000
 11
188.500000000
 21
142.500000000
 31
0.000000000
 70
32
  1
70
  3
STANDARD
100
AcDbAlignedDimension
 13
126.500000000
 23
125.000000000
 33
0.000000000
 14
126.500000000
 24
160.000000000
 34
0.000000000
 50
90
100
AcDbRotatedDimension
  0
ENDSEC
  0
SECTION
  2
OBJECTS
  0
DICTIONARY
  5
F000
330
0
100
AcDbDictionary
  3
ACAD_GROUP
350
F001
  0
DICTIONARY
  5
F001
330
F000
100
AcDbDictionary
  0
ENDSEC
  0
EOF