ISO-10303-21;
HEADER;
FILE_DESCRIPTION(('ViewDefinition[DesignTransferView]'),'2;1');
FILE_NAME('/dev/null','2026-04-21T14:59:34+00:00',(''),(''),'IfcOpenShell 0.8.5','IfcOpenShell 0.8.5','Nobody');
FILE_SCHEMA(('IFC4'));
ENDSEC;
DATA;
#1=IFCPROJECT('0LCA_xI1n3uwIIpTW8NT$V',$,'revit-c-19-init',$,$,$,$,(#10),#5);
#2=IFCSIUNIT(*,.LENGTHUNIT.,.MILLI.,.METRE.);
#3=IFCSIUNIT(*,.AREAUNIT.,$,.SQUARE_METRE.);
#4=IFCSIUNIT(*,.VOLUMEUNIT.,$,.CUBIC_METRE.);
#5=IFCUNITASSIGNMENT((#3,#4,#2));
#6=IFCCARTESIANPOINT((0.,0.,0.));
#7=IFCDIRECTION((0.,0.,1.));
#8=IFCDIRECTION((1.,0.,0.));
#9=IFCAXIS2PLACEMENT3D(#6,#7,#8);
#10=IFCGEOMETRICREPRESENTATIONCONTEXT($,'Model',3,1.0000000000000001E-05,#9,$);
#11=IFCGEOMETRICREPRESENTATIONSUBCONTEXT('Body','Model',*,*,*,*,#10,$,.MODEL_VIEW.,$);
#12=IFCSITE('0aqHMaPKj2EQDqSB2yNZEN',$,'revit-c-19-init Site',$,$,$,$,$,$,$,$,$,$,$);
#13=IFCBUILDING('1_LfEknkfDBunueUyWvedo',$,'revit-c-19-init Building',$,$,$,$,$,$,$,$,$);
#14=IFCRELAGGREGATES('34aBe0TybAuwZEes_d5Gyu',$,$,$,#1,(#12));
#15=IFCRELAGGREGATES('3SUNKqFin2neGH__MC_SnD',$,$,$,#12,(#13));
#16=IFCBUILDINGSTOREY('1UKnp_qBLDSO3c3iGV1_rD',$,'Level 1',$,$,#27,$,$,$,$);
#22=IFCRELAGGREGATES('1YB4CgOBDFEQOF8ROwhGsk',$,$,$,#13,(#16));
#23=IFCCARTESIANPOINT((0.,0.,0.));
#24=IFCDIRECTION((0.,0.,1.));
#25=IFCDIRECTION((1.,0.,0.));
#26=IFCAXIS2PLACEMENT3D(#23,#24,#25);
#27=IFCLOCALPLACEMENT($,#26);
#28=IFCSLAB('0s3q0kRRb6bRz9BxL$VmGl',$,'Workshop Slab',$,$,#49,#38,$,$);
#29=IFCCARTESIANPOINTLIST3D(((0.,0.,0.),(26000.,0.,0.),(26000.,16000.,0.),(0.,16000.,0.),(0.,0.,250.),(26000.,0.,250.),(26000.,16000.,250.),(0.,16000.,250.)));
#30=IFCINDEXEDPOLYGONALFACE((1,2,3,4));
#31=IFCINDEXEDPOLYGONALFACE((5,6,7,8));
#32=IFCINDEXEDPOLYGONALFACE((1,2,6,5));
#33=IFCINDEXEDPOLYGONALFACE((2,3,7,6));
#34=IFCINDEXEDPOLYGONALFACE((3,4,8,7));
#35=IFCINDEXEDPOLYGONALFACE((4,1,5,8));
#36=IFCPOLYGONALFACESET(#29,$,(#30,#31,#32,#33,#34,#35),$);
#37=IFCSHAPEREPRESENTATION(#11,'Body','Tessellation',(#36));
#38=IFCPRODUCTDEFINITIONSHAPE($,$,(#37));
#44=IFCRELCONTAINEDINSPATIALSTRUCTURE('1Dk3qb_0j8EOEbu9HuUYQV',$,$,$,(#28,#50,#113,#92,#71),#16);
#45=IFCCARTESIANPOINT((0.,0.,0.));
#46=IFCDIRECTION((0.,0.,1.));
#47=IFCDIRECTION((1.,0.,0.));
#48=IFCAXIS2PLACEMENT3D(#45,#46,#47);
#49=IFCLOCALPLACEMENT(#27,#48);
#50=IFCWALL('32yHlo48L3Tel9IeeBPG$R',$,'workshop-shell-south',$,$,#70,#60,$,$);
#51=IFCCARTESIANPOINTLIST3D(((0.,0.,250.),(26000.,0.,250.),(26000.,200.,250.),(0.,200.,250.),(0.,0.,3450.),(26000.,0.,3450.),(26000.,200.,3450.),(0.,200.,3450.)));
#52=IFCINDEXEDPOLYGONALFACE((1,2,3,4));
#53=IFCINDEXEDPOLYGONALFACE((5,6,7,8));
#54=IFCINDEXEDPOLYGONALFACE((1,2,6,5));
#55=IFCINDEXEDPOLYGONALFACE((2,3,7,6));
#56=IFCINDEXEDPOLYGONALFACE((3,4,8,7));
#57=IFCINDEXEDPOLYGONALFACE((4,1,5,8));
#58=IFCPOLYGONALFACESET(#51,$,(#52,#53,#54,#55,#56,#57),$);
#59=IFCSHAPEREPRESENTATION(#11,'Body','Tessellation',(#58));
#60=IFCPRODUCTDEFINITIONSHAPE($,$,(#59));
#66=IFCCARTESIANPOINT((0.,0.,0.));
#67=IFCDIRECTION((0.,0.,1.));
#68=IFCDIRECTION((1.,0.,0.));
#69=IFCAXIS2PLACEMENT3D(#66,#67,#68);
#70=IFCLOCALPLACEMENT(#27,#69);
#71=IFCWALL('3Dq2_znjrFfhyTZy8i99mS',$,'workshop-shell-north',$,$,#91,#81,$,$);
#72=IFCCARTESIANPOINTLIST3D(((0.,16000.,250.),(26000.,16000.,250.),(26000.,16200.,250.),(0.,16200.,250.),(0.,16000.,3450.),(26000.,16000.,3450.),(26000.,16200.,3450.),(0.,16200.,3450.)));
#73=IFCINDEXEDPOLYGONALFACE((1,2,3,4));
#74=IFCINDEXEDPOLYGONALFACE((5,6,7,8));
#75=IFCINDEXEDPOLYGONALFACE((1,2,6,5));
#76=IFCINDEXEDPOLYGONALFACE((2,3,7,6));
#77=IFCINDEXEDPOLYGONALFACE((3,4,8,7));
#78=IFCINDEXEDPOLYGONALFACE((4,1,5,8));
#79=IFCPOLYGONALFACESET(#72,$,(#73,#74,#75,#76,#77,#78),$);
#80=IFCSHAPEREPRESENTATION(#11,'Body','Tessellation',(#79));
#81=IFCPRODUCTDEFINITIONSHAPE($,$,(#80));
#87=IFCCARTESIANPOINT((0.,0.,0.));
#88=IFCDIRECTION((0.,0.,1.));
#89=IFCDIRECTION((1.,0.,0.));
#90=IFCAXIS2PLACEMENT3D(#87,#88,#89);
#91=IFCLOCALPLACEMENT(#27,#90);
#92=IFCWALL('1eujrdlYb41fYQfIlTBWu6',$,'workshop-shell-west',$,$,#112,#102,$,$);
#93=IFCCARTESIANPOINTLIST3D(((0.,0.,250.),(200.,0.,250.),(200.,16000.,250.),(0.,16000.,250.),(0.,0.,3450.),(200.,0.,3450.),(200.,16000.,3450.),(0.,16000.,3450.)));
#94=IFCINDEXEDPOLYGONALFACE((1,2,3,4));
#95=IFCINDEXEDPOLYGONALFACE((5,6,7,8));
#96=IFCINDEXEDPOLYGONALFACE((1,2,6,5));
#97=IFCINDEXEDPOLYGONALFACE((2,3,7,6));
#98=IFCINDEXEDPOLYGONALFACE((3,4,8,7));
#99=IFCINDEXEDPOLYGONALFACE((4,1,5,8));
#100=IFCPOLYGONALFACESET(#93,$,(#94,#95,#96,#97,#98,#99),$);
#101=IFCSHAPEREPRESENTATION(#11,'Body','Tessellation',(#100));
#102=IFCPRODUCTDEFINITIONSHAPE($,$,(#101));
#108=IFCCARTESIANPOINT((0.,0.,0.));
#109=IFCDIRECTION((0.,0.,1.));
#110=IFCDIRECTION((1.,0.,0.));
#111=IFCAXIS2PLACEMENT3D(#108,#109,#110);
#112=IFCLOCALPLACEMENT(#27,#111);
#113=IFCWALL('0f_VqjBhTCpAMdcWuhzzoX',$,'workshop-shell-east',$,$,#133,#123,$,$);
#114=IFCCARTESIANPOINTLIST3D(((26000.,0.,250.),(26200.,0.,250.),(26200.,16000.,250.),(26000.,16000.,250.),(26000.,0.,3450.),(26200.,0.,3450.),(26200.,16000.,3450.),(26000.,16000.,3450.)));
#115=IFCINDEXEDPOLYGONALFACE((1,2,3,4));
#116=IFCINDEXEDPOLYGONALFACE((5,6,7,8));
#117=IFCINDEXEDPOLYGONALFACE((1,2,6,5));
#118=IFCINDEXEDPOLYGONALFACE((2,3,7,6));
#119=IFCINDEXEDPOLYGONALFACE((3,4,8,7));
#120=IFCINDEXEDPOLYGONALFACE((4,1,5,8));
#121=IFCPOLYGONALFACESET(#114,$,(#115,#116,#117,#118,#119,#120),$);
#122=IFCSHAPEREPRESENTATION(#11,'Body','Tessellation',(#121));
#123=IFCPRODUCTDEFINITIONSHAPE($,$,(#122));
#129=IFCCARTESIANPOINT((0.,0.,0.));
#130=IFCDIRECTION((0.,0.,1.));
#131=IFCDIRECTION((1.,0.,0.));
#132=IFCAXIS2PLACEMENT3D(#129,#130,#131);
#133=IFCLOCALPLACEMENT(#27,#132);
#134=IFCSPACE('1BS8dQydT7EPSiJef5brgl',$,'Workshop Hall',$,$,#155,#144,$,$,$,$);
#135=IFCCARTESIANPOINTLIST3D(((1000.,1000.,250.),(25000.,1000.,250.),(25000.,15000.,250.),(1000.,15000.,250.),(1000.,1000.,3200.),(25000.,1000.,3200.),(25000.,15000.,3200.),(1000.,15000.,3200.)));
#136=IFCINDEXEDPOLYGONALFACE((1,2,3,4));
#137=IFCINDEXEDPOLYGONALFACE((5,6,7,8));
#138=IFCINDEXEDPOLYGONALFACE((1,2,6,5));
#139=IFCINDEXEDPOLYGONALFACE((2,3,7,6));
#140=IFCINDEXEDPOLYGONALFACE((3,4,8,7));
#141=IFCINDEXEDPOLYGONALFACE((4,1,5,8));
#142=IFCPOLYGONALFACESET(#135,$,(#136,#137,#138,#139,#140,#141),$);
#143=IFCSHAPEREPRESENTATION(#11,'Body','Tessellation',(#142));
#144=IFCPRODUCTDEFINITIONSHAPE($,$,(#143));
#150=IFCRELAGGREGATES('23xKbqx2f5B8_3P4Ct9Hx7',$,$,$,#16,(#134));
#151=IFCCARTESIANPOINT((0.,0.,0.));
#152=IFCDIRECTION((0.,0.,1.));
#153=IFCDIRECTION((1.,0.,0.));
#154=IFCAXIS2PLACEMENT3D(#151,#152,#153);
#155=IFCLOCALPLACEMENT(#27,#154);
ENDSEC;
END-ISO-10303-21;
