ISO-10303-21;
HEADER;
FILE_DESCRIPTION(('ViewDefinition[DesignTransferView]'),'2;1');
FILE_NAME('/dev/null','2026-05-22T18:01:46+08:00',(''),(''),'IfcOpenShell 0.8.5','IfcOpenShell 0.8.5','Nobody');
FILE_SCHEMA(('IFC4'));
ENDSEC;
DATA;
#1=IFCPROJECT('1Eq22_ehj4zvoDe54q8iv9',$,'Bonsai Task Project',$,$,$,$,(#10),#5);
#2=IFCSIUNIT(*,.LENGTHUNIT.,.MILLI.,.METRE.);
#3=IFCSIUNIT(*,.AREAUNIT.,$,.SQUARE_METRE.);
#4=IFCSIUNIT(*,.VOLUMEUNIT.,$,.CUBIC_METRE.);
#5=IFCUNITASSIGNMENT((#3,#4,#2));
#6=IFCCARTESIANPOINT((0.,0.,0.));
#7=IFCDIRECTION((0.,0.,1.));
#8=IFCDIRECTION((1.,0.,0.));
#9=IFCAXIS2PLACEMENT3D(#6,#7,#8);
#10=IFCGEOMETRICREPRESENTATIONCONTEXT($,'Model',3,1.0000000000000001E-05,#9,$);
#11=IFCGEOMETRICREPRESENTATIONSUBCONTEXT('Body','Model',*,*,*,*,#10,$,.MODEL_VIEW.,$);
#12=IFCSITE('3ahNt3fS10qvGM8zuOCctT',$,'Default Site',$,$,$,$,$,$,$,$,$,$,$);
#13=IFCBUILDING('1WUA0PM754G8HLHDLXTA6T',$,'Bonsai Building',$,$,$,$,$,$,$,$,$);
#14=IFCRELAGGREGATES('161CHXXtn1Ne2hiqPnjmD7',$,$,$,#1,(#12));
#15=IFCRELAGGREGATES('0w7LIEt8b54O56Vh8tlUmL',$,$,$,#12,(#13));
#16=IFCBUILDINGSTOREY('3_ewBLX1j3Qerxk$olYMFZ',$,'Ground Floor',$,$,$,$,$,$,0.);
#17=IFCRELAGGREGATES('1G_K2mcHr6UfmNe$5CBcsO',$,$,$,#13,(#16));
#18=IFCWALL('3IOdbrK1PD7ufng0MWXS99',$,'South Wall',$,$,#510,#29,$,$);
#19=IFCCARTESIANPOINTLIST2D(((0.,0.),(0.,200.),(16000.,200.),(16000.,0.),(0.,0.)));
#20=IFCINDEXEDPOLYCURVE(#19,$,.F.);
#21=IFCDIRECTION((0.,0.,1.));
#22=IFCARBITRARYCLOSEDPROFILEDEF(.AREA.,$,#20);
#23=IFCCARTESIANPOINT((0.,0.,0.));
#24=IFCDIRECTION((0.,0.,1.));
#25=IFCDIRECTION((1.,0.,0.));
#26=IFCAXIS2PLACEMENT3D(#23,#24,#25);
#27=IFCEXTRUDEDAREASOLID(#22,#26,#21,4000.);
#28=IFCSHAPEREPRESENTATION(#11,'Body','SweptSolid',(#27));
#29=IFCPRODUCTDEFINITIONSHAPE($,$,(#28));
#35=IFCWALL('110Uqbyyr8keuvIlgHt2LZ',$,'North Wall',$,$,#515,#46,$,$);
#36=IFCCARTESIANPOINTLIST2D(((0.,0.),(0.,200.),(16000.,200.),(16000.,0.),(0.,0.)));
#37=IFCINDEXEDPOLYCURVE(#36,$,.F.);
#38=IFCDIRECTION((0.,0.,1.));
#39=IFCARBITRARYCLOSEDPROFILEDEF(.AREA.,$,#37);
#40=IFCCARTESIANPOINT((0.,0.,0.));
#41=IFCDIRECTION((0.,0.,1.));
#42=IFCDIRECTION((1.,0.,0.));
#43=IFCAXIS2PLACEMENT3D(#40,#41,#42);
#44=IFCEXTRUDEDAREASOLID(#39,#43,#38,4000.);
#45=IFCSHAPEREPRESENTATION(#11,'Body','SweptSolid',(#44));
#46=IFCPRODUCTDEFINITIONSHAPE($,$,(#45));
#52=IFCWALL('1Tbr3m_jf9tOrTiGYJLrRa',$,'West Wall',$,$,#520,#63,$,$);
#53=IFCCARTESIANPOINTLIST2D(((0.,0.),(0.,200.),(10000.,200.),(10000.,0.),(0.,0.)));
#54=IFCINDEXEDPOLYCURVE(#53,$,.F.);
#55=IFCDIRECTION((0.,0.,1.));
#56=IFCARBITRARYCLOSEDPROFILEDEF(.AREA.,$,#54);
#57=IFCCARTESIANPOINT((0.,0.,0.));
#58=IFCDIRECTION((0.,0.,1.));
#59=IFCDIRECTION((1.,0.,0.));
#60=IFCAXIS2PLACEMENT3D(#57,#58,#59);
#61=IFCEXTRUDEDAREASOLID(#56,#60,#55,4000.);
#62=IFCSHAPEREPRESENTATION(#11,'Body','SweptSolid',(#61));
#63=IFCPRODUCTDEFINITIONSHAPE($,$,(#62));
#69=IFCWALL('0nl0bWtwjDQviF5OOlkyfE',$,'East Wall',$,$,#525,#80,$,$);
#70=IFCCARTESIANPOINTLIST2D(((0.,0.),(0.,200.),(10000.,200.),(10000.,0.),(0.,0.)));
#71=IFCINDEXEDPOLYCURVE(#70,$,.F.);
#72=IFCDIRECTION((0.,0.,1.));
#73=IFCARBITRARYCLOSEDPROFILEDEF(.AREA.,$,#71);
#74=IFCCARTESIANPOINT((0.,0.,0.));
#75=IFCDIRECTION((0.,0.,1.));
#76=IFCDIRECTION((1.,0.,0.));
#77=IFCAXIS2PLACEMENT3D(#74,#75,#76);
#78=IFCEXTRUDEDAREASOLID(#73,#77,#72,4000.);
#79=IFCSHAPEREPRESENTATION(#11,'Body','SweptSolid',(#78));
#80=IFCPRODUCTDEFINITIONSHAPE($,$,(#79));
#86=IFCWALL('3x8SnHIGXF1uTCWc3k7jVg',$,'Interior Partition 1',$,$,#530,#97,$,$);
#87=IFCCARTESIANPOINTLIST2D(((0.,0.),(0.,200.),(10000.,200.),(10000.,0.),(0.,0.)));
#88=IFCINDEXEDPOLYCURVE(#87,$,.F.);
#89=IFCDIRECTION((0.,0.,1.));
#90=IFCARBITRARYCLOSEDPROFILEDEF(.AREA.,$,#88);
#91=IFCCARTESIANPOINT((0.,0.,0.));
#92=IFCDIRECTION((0.,0.,1.));
#93=IFCDIRECTION((1.,0.,0.));
#94=IFCAXIS2PLACEMENT3D(#91,#92,#93);
#95=IFCEXTRUDEDAREASOLID(#90,#94,#89,4000.);
#96=IFCSHAPEREPRESENTATION(#11,'Body','SweptSolid',(#95));
#97=IFCPRODUCTDEFINITIONSHAPE($,$,(#96));
#103=IFCWALL('2ws2LmQUfDXg9lDw_zACJM',$,'Interior Partition 2',$,$,#535,#114,$,$);
#104=IFCCARTESIANPOINTLIST2D(((0.,0.),(0.,200.),(10000.,200.),(10000.,0.),(0.,0.)));
#105=IFCINDEXEDPOLYCURVE(#104,$,.F.);
#106=IFCDIRECTION((0.,0.,1.));
#107=IFCARBITRARYCLOSEDPROFILEDEF(.AREA.,$,#105);
#108=IFCCARTESIANPOINT((0.,0.,0.));
#109=IFCDIRECTION((0.,0.,1.));
#110=IFCDIRECTION((1.,0.,0.));
#111=IFCAXIS2PLACEMENT3D(#108,#109,#110);
#112=IFCEXTRUDEDAREASOLID(#107,#111,#106,4000.);
#113=IFCSHAPEREPRESENTATION(#11,'Body','SweptSolid',(#112));
#114=IFCPRODUCTDEFINITIONSHAPE($,$,(#113));
#120=IFCWALL('2M8_wviGv2FwHF2uxYeeEm',$,'Interior Partition 3',$,$,#540,#131,$,$);
#121=IFCCARTESIANPOINTLIST2D(((0.,0.),(0.,200.),(10000.,200.),(10000.,0.),(0.,0.)));
#122=IFCINDEXEDPOLYCURVE(#121,$,.F.);
#123=IFCDIRECTION((0.,0.,1.));
#124=IFCARBITRARYCLOSEDPROFILEDEF(.AREA.,$,#122);
#125=IFCCARTESIANPOINT((0.,0.,0.));
#126=IFCDIRECTION((0.,0.,1.));
#127=IFCDIRECTION((1.,0.,0.));
#128=IFCAXIS2PLACEMENT3D(#125,#126,#127);
#129=IFCEXTRUDEDAREASOLID(#124,#128,#123,4000.);
#130=IFCSHAPEREPRESENTATION(#11,'Body','SweptSolid',(#129));
#131=IFCPRODUCTDEFINITIONSHAPE($,$,(#130));
#137=IFCWALL('3zJLRFNYX6IRPysgZs7x9A',$,'Interior Partition 4',$,$,#545,#148,$,$);
#138=IFCCARTESIANPOINTLIST2D(((0.,0.),(0.,200.),(10000.,200.),(10000.,0.),(0.,0.)));
#139=IFCINDEXEDPOLYCURVE(#138,$,.F.);
#140=IFCDIRECTION((0.,0.,1.));
#141=IFCARBITRARYCLOSEDPROFILEDEF(.AREA.,$,#139);
#142=IFCCARTESIANPOINT((0.,0.,0.));
#143=IFCDIRECTION((0.,0.,1.));
#144=IFCDIRECTION((1.,0.,0.));
#145=IFCAXIS2PLACEMENT3D(#142,#143,#144);
#146=IFCEXTRUDEDAREASOLID(#141,#145,#140,4000.);
#147=IFCSHAPEREPRESENTATION(#11,'Body','SweptSolid',(#146));
#148=IFCPRODUCTDEFINITIONSHAPE($,$,(#147));
#154=IFCSLAB('0tIa4Mx4H959a9MX$22r2V',$,'Slab 1',$,$,#550,#161,$,$);
#155=IFCCARTESIANPOINTLIST2D(((0.,0.),(16000.,0.),(16000.,10000.),(0.,10000.),(0.,0.)));
#156=IFCINDEXEDPOLYCURVE(#155,$,$);
#157=IFCDIRECTION((0.,0.,1.));
#158=IFCARBITRARYCLOSEDPROFILEDEF(.AREA.,$,#156);
#159=IFCEXTRUDEDAREASOLID(#158,$,#157,200.);
#160=IFCSHAPEREPRESENTATION(#11,'Body','SweptSolid',(#159));
#161=IFCPRODUCTDEFINITIONSHAPE($,$,(#160));
#167=IFCSPACE('0Z$1glZzL9bx8F3$QJDlO9',$,'Hall',$,$,#229,#174,$,$,$,$);
#168=IFCCARTESIANPOINTLIST2D(((0.,0.),(4000.,0.),(4000.,10000.),(0.,10000.),(0.,0.)));
#169=IFCINDEXEDPOLYCURVE(#168,$,$);
#170=IFCDIRECTION((0.,0.,1.));
#171=IFCARBITRARYCLOSEDPROFILEDEF(.AREA.,$,#169);
#172=IFCEXTRUDEDAREASOLID(#171,$,#170,4000.);
#173=IFCSHAPEREPRESENTATION(#11,'Body','SweptSolid',(#172));
#174=IFCPRODUCTDEFINITIONSHAPE($,$,(#173));
#180=IFCSPACE('0uki6fC2L1R9jpWBoZ8$jK',$,'Office',$,$,#224,#187,$,$,$,$);
#181=IFCCARTESIANPOINTLIST2D(((4000.,0.),(8000.,0.),(8000.,10000.),(4000.,10000.),(4000.,0.)));
#182=IFCINDEXEDPOLYCURVE(#181,$,$);
#183=IFCDIRECTION((0.,0.,1.));
#184=IFCARBITRARYCLOSEDPROFILEDEF(.AREA.,$,#182);
#185=IFCEXTRUDEDAREASOLID(#184,$,#183,4000.);
#186=IFCSHAPEREPRESENTATION(#11,'Body','SweptSolid',(#185));
#187=IFCPRODUCTDEFINITIONSHAPE($,$,(#186));
#193=IFCSPACE('0y019nK9b5EOn7EObwzwOX',$,'Store',$,$,#239,#200,$,$,$,$);
#194=IFCCARTESIANPOINTLIST2D(((8000.,0.),(12000.,0.),(12000.,10000.),(8000.,10000.),(8000.,0.)));
#195=IFCINDEXEDPOLYCURVE(#194,$,$);
#196=IFCDIRECTION((0.,0.,1.));
#197=IFCARBITRARYCLOSEDPROFILEDEF(.AREA.,$,#195);
#198=IFCEXTRUDEDAREASOLID(#197,$,#196,4000.);
#199=IFCSHAPEREPRESENTATION(#11,'Body','SweptSolid',(#198));
#200=IFCPRODUCTDEFINITIONSHAPE($,$,(#199));
#206=IFCSPACE('0mz7UT6OPAnAQa$FP$6R0d',$,'WC',$,$,#234,#213,$,$,$,$);
#207=IFCCARTESIANPOINTLIST2D(((12000.,0.),(16000.,0.),(16000.,10000.),(12000.,10000.),(12000.,0.)));
#208=IFCINDEXEDPOLYCURVE(#207,$,$);
#209=IFCDIRECTION((0.,0.,1.));
#210=IFCARBITRARYCLOSEDPROFILEDEF(.AREA.,$,#208);
#211=IFCEXTRUDEDAREASOLID(#210,$,#209,4000.);
#212=IFCSHAPEREPRESENTATION(#11,'Body','SweptSolid',(#211));
#213=IFCPRODUCTDEFINITIONSHAPE($,$,(#212));
#219=IFCRELAGGREGATES('0mAguVPlX32AJtQaakGz63',$,$,$,#16,(#180,#167,#206,#193));
#220=IFCCARTESIANPOINT((0.,0.,0.));
#221=IFCDIRECTION((0.,0.,1.));
#222=IFCDIRECTION((1.,0.,0.));
#223=IFCAXIS2PLACEMENT3D(#220,#221,#222);
#224=IFCLOCALPLACEMENT($,#223);
#225=IFCCARTESIANPOINT((0.,0.,0.));
#226=IFCDIRECTION((0.,0.,1.));
#227=IFCDIRECTION((1.,0.,0.));
#228=IFCAXIS2PLACEMENT3D(#225,#226,#227);
#229=IFCLOCALPLACEMENT($,#228);
#230=IFCCARTESIANPOINT((0.,0.,0.));
#231=IFCDIRECTION((0.,0.,1.));
#232=IFCDIRECTION((1.,0.,0.));
#233=IFCAXIS2PLACEMENT3D(#230,#231,#232);
#234=IFCLOCALPLACEMENT($,#233);
#235=IFCCARTESIANPOINT((0.,0.,0.));
#236=IFCDIRECTION((0.,0.,1.));
#237=IFCDIRECTION((1.,0.,0.));
#238=IFCAXIS2PLACEMENT3D(#235,#236,#237);
#239=IFCLOCALPLACEMENT($,#238);
#240=IFCDOOR('0QveVIV8nBYwLtrcXfSiDW',$,'Door 1',$,$,#555,#250,$,2.1000000000000001,0.90000000000000002,$,$,$);
#241=IFCCARTESIANPOINTLIST3D(((0.,0.,0.),(900.,0.,0.),(900.,80.,0.),(0.,80.,0.),(0.,0.,2100.),(900.,0.,2100.),(900.,80.,2100.),(0.,80.,2100.)));
#242=IFCINDEXEDPOLYGONALFACE((1,2,3,4));
#243=IFCINDEXEDPOLYGONALFACE((5,8,7,6));
#244=IFCINDEXEDPOLYGONALFACE((1,5,6,2));
#245=IFCINDEXEDPOLYGONALFACE((2,6,7,3));
#246=IFCINDEXEDPOLYGONALFACE((3,7,8,4));
#247=IFCINDEXEDPOLYGONALFACE((4,8,5,1));
#248=IFCPOLYGONALFACESET(#241,$,(#242,#243,#244,#245,#246,#247),$);
#249=IFCSHAPEREPRESENTATION(#11,'Body','Tessellation',(#248));
#250=IFCPRODUCTDEFINITIONSHAPE($,$,(#249));
#256=IFCDOOR('39GC1wDsb5R8boo2W_a3yO',$,'Door 2',$,$,#560,#266,$,2.1000000000000001,0.90000000000000002,$,$,$);
#257=IFCCARTESIANPOINTLIST3D(((0.,0.,0.),(900.,0.,0.),(900.,80.,0.),(0.,80.,0.),(0.,0.,2100.),(900.,0.,2100.),(900.,80.,2100.),(0.,80.,2100.)));
#258=IFCINDEXEDPOLYGONALFACE((1,2,3,4));
#259=IFCINDEXEDPOLYGONALFACE((5,8,7,6));
#260=IFCINDEXEDPOLYGONALFACE((1,5,6,2));
#261=IFCINDEXEDPOLYGONALFACE((2,6,7,3));
#262=IFCINDEXEDPOLYGONALFACE((3,7,8,4));
#263=IFCINDEXEDPOLYGONALFACE((4,8,5,1));
#264=IFCPOLYGONALFACESET(#257,$,(#258,#259,#260,#261,#262,#263),$);
#265=IFCSHAPEREPRESENTATION(#11,'Body','Tessellation',(#264));
#266=IFCPRODUCTDEFINITIONSHAPE($,$,(#265));
#272=IFCDOOR('1RIxF3TQbCQOJH6YcoSTHH',$,'Door 3',$,$,#565,#282,$,2.1000000000000001,0.90000000000000002,$,$,$);
#273=IFCCARTESIANPOINTLIST3D(((0.,0.,0.),(900.,0.,0.),(900.,80.,0.),(0.,80.,0.),(0.,0.,2100.),(900.,0.,2100.),(900.,80.,2100.),(0.,80.,2100.)));
#274=IFCINDEXEDPOLYGONALFACE((1,2,3,4));
#275=IFCINDEXEDPOLYGONALFACE((5,8,7,6));
#276=IFCINDEXEDPOLYGONALFACE((1,5,6,2));
#277=IFCINDEXEDPOLYGONALFACE((2,6,7,3));
#278=IFCINDEXEDPOLYGONALFACE((3,7,8,4));
#279=IFCINDEXEDPOLYGONALFACE((4,8,5,1));
#280=IFCPOLYGONALFACESET(#273,$,(#274,#275,#276,#277,#278,#279),$);
#281=IFCSHAPEREPRESENTATION(#11,'Body','Tessellation',(#280));
#282=IFCPRODUCTDEFINITIONSHAPE($,$,(#281));
#288=IFCDOOR('1WZ6FFQ5bE1PpiRyCSXMM1',$,'Door 4',$,$,#570,#298,$,2.1000000000000001,0.90000000000000002,$,$,$);
#289=IFCCARTESIANPOINTLIST3D(((0.,0.,0.),(900.,0.,0.),(900.,80.,0.),(0.,80.,0.),(0.,0.,2100.),(900.,0.,2100.),(900.,80.,2100.),(0.,80.,2100.)));
#290=IFCINDEXEDPOLYGONALFACE((1,2,3,4));
#291=IFCINDEXEDPOLYGONALFACE((5,8,7,6));
#292=IFCINDEXEDPOLYGONALFACE((1,5,6,2));
#293=IFCINDEXEDPOLYGONALFACE((2,6,7,3));
#294=IFCINDEXEDPOLYGONALFACE((3,7,8,4));
#295=IFCINDEXEDPOLYGONALFACE((4,8,5,1));
#296=IFCPOLYGONALFACESET(#289,$,(#290,#291,#292,#293,#294,#295),$);
#297=IFCSHAPEREPRESENTATION(#11,'Body','Tessellation',(#296));
#298=IFCPRODUCTDEFINITIONSHAPE($,$,(#297));
#304=IFCWINDOW('1IFPbxHcn1i9klwkxlMNkM',$,'Window 1',$,$,#575,#314,$,1.,1.2,$,$,$);
#305=IFCCARTESIANPOINTLIST3D(((0.,0.,0.),(1200.,0.,0.),(1200.,80.,0.),(0.,80.,0.),(0.,0.,1000.),(1200.,0.,1000.),(1200.,80.,1000.),(0.,80.,1000.)));
#306=IFCINDEXEDPOLYGONALFACE((1,2,3,4));
#307=IFCINDEXEDPOLYGONALFACE((5,8,7,6));
#308=IFCINDEXEDPOLYGONALFACE((1,5,6,2));
#309=IFCINDEXEDPOLYGONALFACE((2,6,7,3));
#310=IFCINDEXEDPOLYGONALFACE((3,7,8,4));
#311=IFCINDEXEDPOLYGONALFACE((4,8,5,1));
#312=IFCPOLYGONALFACESET(#305,$,(#306,#307,#308,#309,#310,#311),$);
#313=IFCSHAPEREPRESENTATION(#11,'Body','Tessellation',(#312));
#314=IFCPRODUCTDEFINITIONSHAPE($,$,(#313));
#320=IFCWINDOW('08Qb24pbX3twanfPEInX1K',$,'Window 2',$,$,#580,#330,$,1.,1.2,$,$,$);
#321=IFCCARTESIANPOINTLIST3D(((0.,0.,0.),(1200.,0.,0.),(1200.,80.,0.),(0.,80.,0.),(0.,0.,1000.),(1200.,0.,1000.),(1200.,80.,1000.),(0.,80.,1000.)));
#322=IFCINDEXEDPOLYGONALFACE((1,2,3,4));
#323=IFCINDEXEDPOLYGONALFACE((5,8,7,6));
#324=IFCINDEXEDPOLYGONALFACE((1,5,6,2));
#325=IFCINDEXEDPOLYGONALFACE((2,6,7,3));
#326=IFCINDEXEDPOLYGONALFACE((3,7,8,4));
#327=IFCINDEXEDPOLYGONALFACE((4,8,5,1));
#328=IFCPOLYGONALFACESET(#321,$,(#322,#323,#324,#325,#326,#327),$);
#329=IFCSHAPEREPRESENTATION(#11,'Body','Tessellation',(#328));
#330=IFCPRODUCTDEFINITIONSHAPE($,$,(#329));
#336=IFCWINDOW('3cY07_oHT0RR$F6Cgfobha',$,'Window 3',$,$,#585,#346,$,1.,1.2,$,$,$);
#337=IFCCARTESIANPOINTLIST3D(((0.,0.,0.),(1200.,0.,0.),(1200.,80.,0.),(0.,80.,0.),(0.,0.,1000.),(1200.,0.,1000.),(1200.,80.,1000.),(0.,80.,1000.)));
#338=IFCINDEXEDPOLYGONALFACE((1,2,3,4));
#339=IFCINDEXEDPOLYGONALFACE((5,8,7,6));
#340=IFCINDEXEDPOLYGONALFACE((1,5,6,2));
#341=IFCINDEXEDPOLYGONALFACE((2,6,7,3));
#342=IFCINDEXEDPOLYGONALFACE((3,7,8,4));
#343=IFCINDEXEDPOLYGONALFACE((4,8,5,1));
#344=IFCPOLYGONALFACESET(#337,$,(#338,#339,#340,#341,#342,#343),$);
#345=IFCSHAPEREPRESENTATION(#11,'Body','Tessellation',(#344));
#346=IFCPRODUCTDEFINITIONSHAPE($,$,(#345));
#352=IFCWINDOW('0eNsxoNPX0lgZnbMcKRK$0',$,'Window 4',$,$,#590,#362,$,1.,1.2,$,$,$);
#353=IFCCARTESIANPOINTLIST3D(((0.,0.,0.),(1200.,0.,0.),(1200.,80.,0.),(0.,80.,0.),(0.,0.,1000.),(1200.,0.,1000.),(1200.,80.,1000.),(0.,80.,1000.)));
#354=IFCINDEXEDPOLYGONALFACE((1,2,3,4));
#355=IFCINDEXEDPOLYGONALFACE((5,8,7,6));
#356=IFCINDEXEDPOLYGONALFACE((1,5,6,2));
#357=IFCINDEXEDPOLYGONALFACE((2,6,7,3));
#358=IFCINDEXEDPOLYGONALFACE((3,7,8,4));
#359=IFCINDEXEDPOLYGONALFACE((4,8,5,1));
#360=IFCPOLYGONALFACESET(#353,$,(#354,#355,#356,#357,#358,#359),$);
#361=IFCSHAPEREPRESENTATION(#11,'Body','Tessellation',(#360));
#362=IFCPRODUCTDEFINITIONSHAPE($,$,(#361));
#368=IFCOPENINGELEMENT('00EegwmVbA6xJUsirjpGKN',$,'Opening 1',$,$,#389,#378,$,$);
#369=IFCCARTESIANPOINTLIST3D(((0.,0.,0.),(1100.,0.,0.),(1100.,240.,0.),(0.,240.,0.),(0.,0.,2200.),(1100.,0.,2200.),(1100.,240.,2200.),(0.,240.,2200.)));
#370=IFCINDEXEDPOLYGONALFACE((1,2,3,4));
#371=IFCINDEXEDPOLYGONALFACE((5,8,7,6));
#372=IFCINDEXEDPOLYGONALFACE((1,5,6,2));
#373=IFCINDEXEDPOLYGONALFACE((2,6,7,3));
#374=IFCINDEXEDPOLYGONALFACE((3,7,8,4));
#375=IFCINDEXEDPOLYGONALFACE((4,8,5,1));
#376=IFCPOLYGONALFACESET(#369,$,(#370,#371,#372,#373,#374,#375),$);
#377=IFCSHAPEREPRESENTATION(#11,'Body','Tessellation',(#376));
#378=IFCPRODUCTDEFINITIONSHAPE($,$,(#377));
#384=IFCRELVOIDSELEMENT('3kQqgRlTbFPBZFBXupMWTr',$,$,$,#18,#368);
#385=IFCCARTESIANPOINT((400.,-120.,0.));
#386=IFCDIRECTION((0.,0.,1.));
#387=IFCDIRECTION((1.,0.,0.));
#388=IFCAXIS2PLACEMENT3D(#385,#386,#387);
#389=IFCLOCALPLACEMENT(#510,#388);
#390=IFCRELFILLSELEMENT('0OlAG6wu11zecHi1bO$g0v',$,$,$,#368,#240);
#391=IFCOPENINGELEMENT('2ExFdRDB90e9$0s$Q66B7O',$,'Opening 2',$,$,#412,#401,$,$);
#392=IFCCARTESIANPOINTLIST3D(((0.,0.,0.),(1100.,0.,0.),(1100.,240.,0.),(0.,240.,0.),(0.,0.,2200.),(1100.,0.,2200.),(1100.,240.,2200.),(0.,240.,2200.)));
#393=IFCINDEXEDPOLYGONALFACE((1,2,3,4));
#394=IFCINDEXEDPOLYGONALFACE((5,8,7,6));
#395=IFCINDEXEDPOLYGONALFACE((1,5,6,2));
#396=IFCINDEXEDPOLYGONALFACE((2,6,7,3));
#397=IFCINDEXEDPOLYGONALFACE((3,7,8,4));
#398=IFCINDEXEDPOLYGONALFACE((4,8,5,1));
#399=IFCPOLYGONALFACESET(#392,$,(#393,#394,#395,#396,#397,#398),$);
#400=IFCSHAPEREPRESENTATION(#11,'Body','Tessellation',(#399));
#401=IFCPRODUCTDEFINITIONSHAPE($,$,(#400));
#407=IFCRELVOIDSELEMENT('0SUf6C1Yf4deDVwpwQe$Z2',$,$,$,#35,#391);
#408=IFCCARTESIANPOINT((800.,-10119.999999999998,0.));
#409=IFCDIRECTION((0.,0.,1.));
#410=IFCDIRECTION((1.,0.,0.));
#411=IFCAXIS2PLACEMENT3D(#408,#409,#410);
#412=IFCLOCALPLACEMENT(#515,#411);
#413=IFCRELFILLSELEMENT('1R0s0JM1L0mhGKJIVI4FVo',$,$,$,#391,#256);
#414=IFCOPENINGELEMENT('13dMrNEx5AfPn6aWbhej4A',$,'Opening 3',$,$,#435,#424,$,$);
#415=IFCCARTESIANPOINTLIST3D(((0.,0.,0.),(1100.,0.,0.),(1100.,240.,0.),(0.,240.,0.),(0.,0.,2200.),(1100.,0.,2200.),(1100.,240.,2200.),(0.,240.,2200.)));
#416=IFCINDEXEDPOLYGONALFACE((1,2,3,4));
#417=IFCINDEXEDPOLYGONALFACE((5,8,7,6));
#418=IFCINDEXEDPOLYGONALFACE((1,5,6,2));
#419=IFCINDEXEDPOLYGONALFACE((2,6,7,3));
#420=IFCINDEXEDPOLYGONALFACE((3,7,8,4));
#421=IFCINDEXEDPOLYGONALFACE((4,8,5,1));
#422=IFCPOLYGONALFACESET(#415,$,(#416,#417,#418,#419,#420,#421),$);
#423=IFCSHAPEREPRESENTATION(#11,'Body','Tessellation',(#422));
#424=IFCPRODUCTDEFINITIONSHAPE($,$,(#423));
#430=IFCRELVOIDSELEMENT('3bWwRzyhP0CQOOgF7olgMD',$,$,$,#52,#414);
#431=IFCCARTESIANPOINT((-119.99999999999993,-1200.0000000000002,0.));
#432=IFCDIRECTION((0.,0.,1.));
#433=IFCDIRECTION((6.123233995736766E-17,-1.,0.));
#434=IFCAXIS2PLACEMENT3D(#431,#432,#433);
#435=IFCLOCALPLACEMENT(#520,#434);
#436=IFCRELFILLSELEMENT('3NtsSgca9Dzv69m7eSo8eJ',$,$,$,#414,#272);
#437=IFCCOLUMN('22mAawZ2XCluXLTGlRkiLa',$,'Column 1',$,$,#595,#447,$,$);
#438=IFCCARTESIANPOINTLIST3D(((0.,0.,0.),(300.,0.,0.),(300.,300.,0.),(0.,300.,0.),(0.,0.,4000.),(300.,0.,4000.),(300.,300.,4000.),(0.,300.,4000.)));
#439=IFCINDEXEDPOLYGONALFACE((1,2,3,4));
#440=IFCINDEXEDPOLYGONALFACE((5,8,7,6));
#441=IFCINDEXEDPOLYGONALFACE((1,5,6,2));
#442=IFCINDEXEDPOLYGONALFACE((2,6,7,3));
#443=IFCINDEXEDPOLYGONALFACE((3,7,8,4));
#444=IFCINDEXEDPOLYGONALFACE((4,8,5,1));
#445=IFCPOLYGONALFACESET(#438,$,(#439,#440,#441,#442,#443,#444),$);
#446=IFCSHAPEREPRESENTATION(#11,'Body','Tessellation',(#445));
#447=IFCPRODUCTDEFINITIONSHAPE($,$,(#446));
#453=IFCCOLUMN('2Cv$01Q0fBHep7fjlF4Zhy',$,'Column 2',$,$,#600,#463,$,$);
#454=IFCCARTESIANPOINTLIST3D(((0.,0.,0.),(300.,0.,0.),(300.,300.,0.),(0.,300.,0.),(0.,0.,4000.),(300.,0.,4000.),(300.,300.,4000.),(0.,300.,4000.)));
#455=IFCINDEXEDPOLYGONALFACE((1,2,3,4));
#456=IFCINDEXEDPOLYGONALFACE((5,8,7,6));
#457=IFCINDEXEDPOLYGONALFACE((1,5,6,2));
#458=IFCINDEXEDPOLYGONALFACE((2,6,7,3));
#459=IFCINDEXEDPOLYGONALFACE((3,7,8,4));
#460=IFCINDEXEDPOLYGONALFACE((4,8,5,1));
#461=IFCPOLYGONALFACESET(#454,$,(#455,#456,#457,#458,#459,#460),$);
#462=IFCSHAPEREPRESENTATION(#11,'Body','Tessellation',(#461));
#463=IFCPRODUCTDEFINITIONSHAPE($,$,(#462));
#469=IFCCOLUMN('32dffVGfH6I8EQUmkgrz$B',$,'Column 3',$,$,#605,#479,$,$);
#470=IFCCARTESIANPOINTLIST3D(((0.,0.,0.),(300.,0.,0.),(300.,300.,0.),(0.,300.,0.),(0.,0.,4000.),(300.,0.,4000.),(300.,300.,4000.),(0.,300.,4000.)));
#471=IFCINDEXEDPOLYGONALFACE((1,2,3,4));
#472=IFCINDEXEDPOLYGONALFACE((5,8,7,6));
#473=IFCINDEXEDPOLYGONALFACE((1,5,6,2));
#474=IFCINDEXEDPOLYGONALFACE((2,6,7,3));
#475=IFCINDEXEDPOLYGONALFACE((3,7,8,4));
#476=IFCINDEXEDPOLYGONALFACE((4,8,5,1));
#477=IFCPOLYGONALFACESET(#470,$,(#471,#472,#473,#474,#475,#476),$);
#478=IFCSHAPEREPRESENTATION(#11,'Body','Tessellation',(#477));
#479=IFCPRODUCTDEFINITIONSHAPE($,$,(#478));
#485=IFCCOLUMN('0lqwB906T3Ge0Z468DheXz',$,'Column 4',$,$,#610,#495,$,$);
#486=IFCCARTESIANPOINTLIST3D(((0.,0.,0.),(300.,0.,0.),(300.,300.,0.),(0.,300.,0.),(0.,0.,4000.),(300.,0.,4000.),(300.,300.,4000.),(0.,300.,4000.)));
#487=IFCINDEXEDPOLYGONALFACE((1,2,3,4));
#488=IFCINDEXEDPOLYGONALFACE((5,8,7,6));
#489=IFCINDEXEDPOLYGONALFACE((1,5,6,2));
#490=IFCINDEXEDPOLYGONALFACE((2,6,7,3));
#491=IFCINDEXEDPOLYGONALFACE((3,7,8,4));
#492=IFCINDEXEDPOLYGONALFACE((4,8,5,1));
#493=IFCPOLYGONALFACESET(#486,$,(#487,#488,#489,#490,#491,#492),$);
#494=IFCSHAPEREPRESENTATION(#11,'Body','Tessellation',(#493));
#495=IFCPRODUCTDEFINITIONSHAPE($,$,(#494));
#501=IFCMATERIAL('Concrete',$,$);
#502=IFCMATERIAL('Steel',$,$);
#503=IFCRELASSOCIATESMATERIAL('23oJfu0Gb7vP01I2gBkZ14',$,$,$,(#288,#120,#18,#154,#320,#352,#52,#256,#86,#453,#485),#501);
#504=IFCRELASSOCIATESMATERIAL('0IlqkuNB12t9lRdJZnnGGO',$,$,$,(#272,#137,#336,#35,#304,#240,#69,#469,#103,#437),#502);
#505=IFCRELCONTAINEDINSPATIALSTRUCTURE('1cvQR6I85BAhtH8ZW2GfR4',$,$,$,(#120,#272,#352,#154,#35,#320,#256,#69,#453,#103,#485,#288,#137,#18,#336,#304,#52,#240,#86,#469,#437),#16);
#506=IFCCARTESIANPOINT((0.,0.,0.));
#507=IFCDIRECTION((0.,0.,1.));
#508=IFCDIRECTION((1.,0.,0.));
#509=IFCAXIS2PLACEMENT3D(#506,#507,#508);
#510=IFCLOCALPLACEMENT($,#509);
#511=IFCCARTESIANPOINT((0.,10000.,0.));
#512=IFCDIRECTION((0.,0.,1.));
#513=IFCDIRECTION((1.,0.,0.));
#514=IFCAXIS2PLACEMENT3D(#511,#512,#513);
#515=IFCLOCALPLACEMENT($,#514);
#516=IFCCARTESIANPOINT((0.,0.,0.));
#517=IFCDIRECTION((0.,0.,1.));
#518=IFCDIRECTION((6.123233995736766E-17,1.,0.));
#519=IFCAXIS2PLACEMENT3D(#516,#517,#518);
#520=IFCLOCALPLACEMENT($,#519);
#521=IFCCARTESIANPOINT((16000.,0.,0.));
#522=IFCDIRECTION((0.,0.,1.));
#523=IFCDIRECTION((6.123233995736766E-17,1.,0.));
#524=IFCAXIS2PLACEMENT3D(#521,#522,#523);
#525=IFCLOCALPLACEMENT($,#524);
#526=IFCCARTESIANPOINT((3200.,0.,0.));
#527=IFCDIRECTION((0.,0.,1.));
#528=IFCDIRECTION((6.123233995736766E-17,1.,0.));
#529=IFCAXIS2PLACEMENT3D(#526,#527,#528);
#530=IFCLOCALPLACEMENT($,#529);
#531=IFCCARTESIANPOINT((6400.,0.,0.));
#532=IFCDIRECTION((0.,0.,1.));
#533=IFCDIRECTION((6.123233995736766E-17,1.,0.));
#534=IFCAXIS2PLACEMENT3D(#531,#532,#533);
#535=IFCLOCALPLACEMENT($,#534);
#536=IFCCARTESIANPOINT((9600.,0.,0.));
#537=IFCDIRECTION((0.,0.,1.));
#538=IFCDIRECTION((6.123233995736766E-17,1.,0.));
#539=IFCAXIS2PLACEMENT3D(#536,#537,#538);
#540=IFCLOCALPLACEMENT($,#539);
#541=IFCCARTESIANPOINT((12800.,0.,0.));
#542=IFCDIRECTION((0.,0.,1.));
#543=IFCDIRECTION((6.123233995736766E-17,1.,0.));
#544=IFCAXIS2PLACEMENT3D(#541,#542,#543);
#545=IFCLOCALPLACEMENT($,#544);
#546=IFCCARTESIANPOINT((0.,0.,0.));
#547=IFCDIRECTION((0.,0.,1.));
#548=IFCDIRECTION((1.,0.,0.));
#549=IFCAXIS2PLACEMENT3D(#546,#547,#548);
#550=IFCLOCALPLACEMENT($,#549);
#551=IFCCARTESIANPOINT((2350.,79.999999999999986,0.));
#552=IFCDIRECTION((0.,0.,1.));
#553=IFCDIRECTION((1.,0.,0.));
#554=IFCAXIS2PLACEMENT3D(#551,#552,#553);
#555=IFCLOCALPLACEMENT(#389,#554);
#556=IFCCARTESIANPOINT((5150.,79.999999999998181,0.));
#557=IFCDIRECTION((0.,0.,1.));
#558=IFCDIRECTION((1.,0.,0.));
#559=IFCAXIS2PLACEMENT3D(#556,#557,#558);
#560=IFCLOCALPLACEMENT(#412,#559);
#561=IFCCARTESIANPOINT((7950.,79.999999999999986,0.));
#562=IFCDIRECTION((0.,0.,1.));
#563=IFCDIRECTION((1.,0.,0.));
#564=IFCAXIS2PLACEMENT3D(#561,#562,#563);
#565=IFCLOCALPLACEMENT(#435,#564);
#566=IFCCARTESIANPOINT((12350.000000000002,-40.,0.));
#567=IFCDIRECTION((0.,0.,1.));
#568=IFCDIRECTION((1.,0.,0.));
#569=IFCAXIS2PLACEMENT3D(#566,#567,#568);
#570=IFCLOCALPLACEMENT($,#569);
#571=IFCCARTESIANPOINT((2600.,9960.,1100.));
#572=IFCDIRECTION((0.,0.,1.));
#573=IFCDIRECTION((1.,0.,0.));
#574=IFCAXIS2PLACEMENT3D(#571,#572,#573);
#575=IFCLOCALPLACEMENT($,#574);
#576=IFCCARTESIANPOINT((15960.,3400.,1100.));
#577=IFCDIRECTION((0.,0.,1.));
#578=IFCDIRECTION((6.123233995736766E-17,1.,0.));
#579=IFCAXIS2PLACEMENT3D(#576,#577,#578);
#580=IFCLOCALPLACEMENT($,#579);
#581=IFCCARTESIANPOINT((9000.,9960.,1100.));
#582=IFCDIRECTION((0.,0.,1.));
#583=IFCDIRECTION((1.,0.,0.));
#584=IFCAXIS2PLACEMENT3D(#581,#582,#583);
#585=IFCLOCALPLACEMENT($,#584);
#586=IFCCARTESIANPOINT((15960.,7400.,1100.));
#587=IFCDIRECTION((0.,0.,1.));
#588=IFCDIRECTION((6.123233995736766E-17,1.,0.));
#589=IFCAXIS2PLACEMENT3D(#586,#587,#588);
#590=IFCLOCALPLACEMENT($,#589);
#591=IFCCARTESIANPOINT((800.,800.,0.));
#592=IFCDIRECTION((0.,0.,1.));
#593=IFCDIRECTION((1.,0.,0.));
#594=IFCAXIS2PLACEMENT3D(#591,#592,#593);
#595=IFCLOCALPLACEMENT($,#594);
#596=IFCCARTESIANPOINT((14900.,800.,0.));
#597=IFCDIRECTION((0.,0.,1.));
#598=IFCDIRECTION((1.,0.,0.));
#599=IFCAXIS2PLACEMENT3D(#596,#597,#598);
#600=IFCLOCALPLACEMENT($,#599);
#601=IFCCARTESIANPOINT((800.,8900.,0.));
#602=IFCDIRECTION((0.,0.,1.));
#603=IFCDIRECTION((1.,0.,0.));
#604=IFCAXIS2PLACEMENT3D(#601,#602,#603);
#605=IFCLOCALPLACEMENT($,#604);
#606=IFCCARTESIANPOINT((14900.,8900.,0.));
#607=IFCDIRECTION((0.,0.,1.));
#608=IFCDIRECTION((1.,0.,0.));
#609=IFCAXIS2PLACEMENT3D(#606,#607,#608);
#610=IFCLOCALPLACEMENT($,#609);
ENDSEC;
END-ISO-10303-21;
