0
SECTION
2
ENTITIES
0
LWPOLYLINE
90
4
70
1
10
-70.00000
20
-40.00000
10
70.00000
20
-40.00000
10
70.00000
20
40.00000
10
-70.00000
20
40.00000
0
LWPOLYLINE
90
4
70
1
10
-35.00000
20
-14.00000
10
35.00000
20
-14.00000
10
35.00000
20
14.00000
10
-35.00000
20
14.00000
0
CIRCLE
10
52.00000
20
0.00000
40
2.50000
0
CIRCLE
10
36.76960
20
36.76960
40
2.50000
0
CIRCLE
10
0.00000
20
52.00000
40
2.50000
0
CIRCLE
10
-36.76960
20
36.76960
40
2.50000
0
CIRCLE
10
-52.00000
20
0.00000
40
2.50000
0
CIRCLE
10
-36.76960
20
-36.76960
40
2.50000
0
CIRCLE
10
-0.00000
20
-52.00000
40
2.50000
0
CIRCLE
10
36.76960
20
-36.76960
40
2.50000
0
CIRCLE
10
-65.00000
20
0.00000
40
3.00000
0
CIRCLE
10
65.00000
20
0.00000
40
3.00000
0
LWPOLYLINE
90
4
70
1
10
-35.00000
20
-14.00000
10
35.00000
20
-14.00000
10
35.00000
20
14.00000
10
-35.00000
20
14.00000
0
ENDSEC
0
EOF
