999
FreeCAD v1.1 20260725 (Git shallow)
  0
SECTION
  2
HEADER
  9
$ACADVER
  1
AC1014
  9
$ACADMAINTVER
 70
     9
  9
$DWGCODEPAGE
  3
ANSI_1252
  9
$TEXTSTYLE
  7
STANDARD
  9
$DIMSTYLE
  2
STANDARD
  9
$DIMTXSTY
  7
STANDARD
  9
$CMLSTYLE
  2
STANDARD
  9
$LUNITS
 70
2
  9
$INSUNITS
 70
4
  9
$PEXTMAX
 10
50
 20
50
 30
50
  9
$PEXTMIN
 10
0
 20
0
 30
0
  9
$HANDSEED
  5
FFFF
  0
ENDSEC
  0
SECTION
  2
CLASSES
  0
CLASS
  1
ACDBDICTIONARYWDFLT
  2
AcDbDictionaryWithDefault
  3
ObjectDBX Classes
 90
        0
280
     0
281
     0
  0
CLASS
  1
XRECORD
  2
AcDbXrecord
  3
ObjectDBX Classes
 90
        0
280
     0
281
     0
  0
CLASS
  1
LWPOLYLINE
  2
AcDbPolyline
  3
ObjectDBX Classes
 90
        0
280
     0
281
     1
  0
ENDSEC
  0
SECTION
  2
TABLES
  0
TABLE
  2
VPORT
  5
20
330
0
100
AcDbSymbolTable
 70
     1
  0
VPORT
  5
21
330
20
100
AcDbSymbolTableRecord
100
AcDbViewportTableRecord
  2
*ACTIVE
 70
     0
  0
ENDTAB
  0
TABLE
  2
LTYPE
  5
22
330
0
100
AcDbSymbolTable
 70
     1
  0
LTYPE
  5
23
330
21
100
AcDbSymbolTableRecord
100
AcDbLinetypeTableRecord
  2
BYBLOCK
 70
     0
  3

 72
    65
 73
     0
 40
0.0
  0
LTYPE
  5
24
330
21
100
AcDbSymbolTableRecord
100
AcDbLinetypeTableRecord
  2
BYLAYER
 70
     0
  3

 72
    65
 73
     0
 40
0.0
  0
LTYPE
  5
25
330
21
100
AcDbSymbolTableRecord
100
AcDbLinetypeTableRecord
  2
CONTINUOUS
 70
     0
  3
Solid line
 72
    65
 73
     0
 40
0.0
  0
ENDTAB
  0
TABLE
  2
LAYER
  5
A88
330
0
100
AcDbSymbolTable
 70
7
  0
LAYER
  5
A89
330
A88
100
AcDbSymbolTableRecord
100
AcDbLayerTableRecord
  2
0
 70
   0
 62
   7
  6
CONTINUOUS
  0
LAYER
  5
A8A
330
A88
100
AcDbSymbolTableRecord
100
AcDbLayerTableRecord
  2
ProjItem
 70
    0
 62
    7
  6
CONTINUOUS
  0
LAYER
  5
A8B
330
A88
100
AcDbSymbolTableRecord
100
AcDbLayerTableRecord
  2
ProjItem001
 70
    0
 62
    7
  6
CONTINUOUS
  0
LAYER
  5
A8C
330
A88
100
AcDbSymbolTableRecord
100
AcDbLayerTableRecord
  2
ProjItem002
 70
    0
 62
    7
  6
CONTINUOUS
  0
LAYER
  5
A8D
330
A88
100
AcDbSymbolTableRecord
100
AcDbLayerTableRecord
  2
DimDia4
 70
    0
 62
    7
  6
CONTINUOUS
  0
LAYER
  5
A8E
330
A88
100
AcDbSymbolTableRecord
100
AcDbLayerTableRecord
  2
DimWidth
 70
    0
 62
    7
  6
CONTINUOUS
  0
LAYER
  5
A8F
330
A88
100
AcDbSymbolTableRecord
100
AcDbLayerTableRecord
  2
DimHeight
 70
    0
 62
    7
  6
CONTINUOUS
  0
ENDTAB
  0
TABLE
  2
STYLE
  5
70
330
0
100
AcDbSymbolTable
 70
     2
  0
STYLE
  5
71
330
70
100
AcDbSymbolTableRecord
100
AcDbTextStyleTableRecord
  2
STANDARD
 70
     0
 40
0.0
 41
1.0
 50
0.0
 71
     0
 42
2.5
  3
arial.ttf
  4

  0
STYLE
  5
72
330
70
100
AcDbSymbolTableRecord
100
AcDbTextStyleTableRecord
  2
ANNOTATIVE
 70
     0
 40
0.0
 41
1.0
 50
0.0
 71
     0
 42
2.5
  3
arial.ttf
  4

  0
ENDTAB
  0
TABLE
  2
VIEW
  5
73
330
0
100
AcDbSymbolTable
 70
     0
  0
ENDTAB
  0
TABLE
  2
UCS
  5
74
330
0
100
AcDbSymbolTable
 70
     0
  0
ENDTAB
  0
TABLE
  2
APPID
  5
75
330
0
100
AcDbSymbolTable
 70
     2
  0
APPID
  5
76
330
75
100
AcDbSymbolTableRecord
100
AcDbRegAppTableRecord
  2
ACAD
 70
     0
  0
APPID
  5
77
330
75
100
AcDbSymbolTableRecord
100
AcDbRegAppTableRecord
  2
ACADANNOTATIVE
 70
     0
  0
ENDTAB
  0
TABLE
  2
DIMSTYLE
  5
78
330
0
100
AcDbSymbolTable
 70
     2
  0
DIMSTYLE
105
79
330
78
100
AcDbSymbolTableRecord
100
AcDbDimStyleTableRecord
  2
STANDARD
 70
     0
  3

  4

  5

  6

  7

 40
0.0
 41
2.5
 42
0.625
 43
3.75
 44
1.25
 45
0.0
 46
0.0
 47
0.0
 48
0.0
140
2.5
141
2.5
142
0.0
143
0.03937007874016
144
1.0
145
0.0
146
1.0
147
0.625
 71
     0
 72
     0
 73
     0
 74
     0
 75
     0
 76
     0
 77
     1
 78
     8
170
     0
171
     3
172
     1
173
     0
174
     0
175
     0
176
     0
177
     0
178
     0
270
     2
271
     2
272
     2
273
     2
274
     3
340
71
275
     0
280
     0
281
     0
282
     0
283
     0
284
     8
285
     0
286
     0
287
     3
288
     0
  0
ENDTAB
  0
TABLE
  2
BLOCK_RECORD
  5
A01
330
0
100
AcDbSymbolTable
  70
5
  0
BLOCK_RECORD
  5
A02
330
A01
100
AcDbSymbolTableRecord
100
AcDbBlockTableRecord
  2
*MODEL_SPACE
  0
BLOCK_RECORD
  5
A03
330
A01
100
AcDbSymbolTableRecord
100
AcDbBlockTableRecord
  2
*PAPER_SPACE
  0
BLOCK_RECORD
  5
A6D
330
A01
100
AcDbSymbolTableRecord
100
AcDbBlockTableRecord
  2
*DimDia4
  0
BLOCK_RECORD
  5
A75
330
A01
100
AcDbSymbolTableRecord
100
AcDbBlockTableRecord
  2
*DimWidth
  0
BLOCK_RECORD
  5
A7F
330
A01
100
AcDbSymbolTableRecord
100
AcDbBlockTableRecord
  2
*DimHeight
  0
ENDTAB
  0
ENDSEC
  0
SECTION
  2
BLOCKS
  0
BLOCK
  5
A04
330
A02
100
AcDbEntity
  8
0
100
AcDbBlockBegin
  2
*MODEL_SPACE
 70
   0
 10
0
 20
0
 30
0
  3
*MODEL_SPACE
  1
 
  0
ENDBLK
  5
A05
330
A02
100
AcDbEntity
  8
0
100
AcDbBlockEnd
  0
BLOCK
  5
A06
330
A03
100
AcDbEntity
 67
1
  8
0
100
AcDbBlockBegin
  2
*PAPER_SPACE
 70
   0
 10
0
 20
0
 30
0
  3
*PAPER_SPACE
  1
 
  0
ENDBLK
  5
A07
330
A03
100
AcDbEntity
 67
    1
  8
0
100
AcDbBlockEnd
  0
BLOCK
  5
A6E
330
A6D
100
AcDbEntity
  8
DimDia4
100
AcDbBlockBegin
  2
*DimDia4
 70
   1
 10
0
 20
0
 30
0
  3
*DimDia4
  1
 
  0
LINE
  5
A6F
330
A6D
100
AcDbEntity
  8
DimDia4
100
AcDbLine
 10
144.401
 20
89.6133
 30
0
 11
133.599
 21
84.3867
 31
0
  0
TEXT
  5
A70
330
A6D
100
AcDbEntity
  8
DimDia4
100
AcDbText
 10
157
 20
101
 30
0
 40
3.5
  1
⌀12
  7
STANDARD
 72
1
 11
157
 21
101
 31
0
100
AcDbText
  0
SOLID
  5
A71
330
A6D
100
AcDbEntity
  8
0
 62
     0
100
AcDbTrace
 10
140.082
 20
87.0605
 30
0
 11
139.719
 21
87.8106
 31
0
 12
144.401
 22
89.6133
 32
0
 13
144.401
 23
89.6133
 33
0
  0
SOLID
  5
A72
330
A6D
100
AcDbEntity
  8
0
 62
     0
100
AcDbTrace
 10
138.281
 20
86.1894
 30
0
 11
137.918
 21
86.9395
 31
0
 12
133.599
 22
84.3867
 32
0
 13
133.599
 23
84.3867
 33
0
  0
ENDBLK
  5
A73
330
A6D
100
AcDbEntity
  8
DimDia4
100
AcDbBlockEnd
  0
BLOCK
  5
A76
330
A75
100
AcDbEntity
  8
DimWidth
100
AcDbBlockBegin
  2
*DimWidth
 70
   1
 10
0
 20
0
 30
0
  3
*DimWidth
  1
 
  0
LINE
  5
A77
330
A75
100
AcDbEntity
  8
DimWidth
100
AcDbLine
 10
239
 20
165
 30
0
 11
239
 21
182
 31
0
  0
LINE
  5
A78
330
A75
100
AcDbEntity
  8
DimWidth
100
AcDbLine
 10
119
 20
165
 30
0
 11
119
 21
182
 31
0
  0
LINE
  5
A79
330
A75
100
AcDbEntity
  8
DimWidth
100
AcDbLine
 10
119
 20
182
 30
0
 11
239
 21
182
 31
0
  0
TEXT
  5
A7A
330
A75
100
AcDbEntity
  8
DimWidth
100
AcDbText
 10
179
 20
187
 30
0
 40
3.5
  1
120
  7
STANDARD
 72
1
 11
179
 21
182
 31
0
100
AcDbText
  0
SOLID
  5
A7B
330
A75
100
AcDbEntity
  8
0
 62
     0
100
AcDbTrace
 10
114
 20
182.417
 30
0
 11
114
 21
181.583
 31
0
 12
119
 22
182
 32
0
 13
119
 23
182
 33
0
  0
SOLID
  5
A7C
330
A75
100
AcDbEntity
  8
0
 62
     0
100
AcDbTrace
 10
244
 20
182.417
 30
0
 11
244
 21
181.583
 31
0
 12
239
 22
182
 32
0
 13
239
 23
182
 33
0
  0
ENDBLK
  5
A7D
330
A75
100
AcDbEntity
  8
DimWidth
100
AcDbBlockEnd
  0
BLOCK
  5
A80
330
A7F
100
AcDbEntity
  8
DimHeight
100
AcDbBlockBegin
  2
*DimHeight
 70
   1
 10
0
 20
0
 30
0
  3
*DimHeight
  1
 
  0
LINE
  5
A81
330
A7F
100
AcDbEntity
  8
DimHeight
100
AcDbLine
 10
119
 20
175
 30
0
 11
246
 21
175
 31
0
  0
LINE
  5
A82
330
A7F
100
AcDbEntity
  8
DimHeight
100
AcDbLine
 10
119
 20
165
 30
0
 11
246
 21
165
 31
0
  0
LINE
  5
A83
330
A7F
100
AcDbEntity
  8
DimHeight
100
AcDbLine
 10
246
 20
165
 30
0
 11
246
 21
175
 31
0
  0
TEXT
  5
A84
330
A7F
100
AcDbEntity
  8
DimHeight
100
AcDbText
 10
251
 20
170
 30
0
 40
3.5
  1
10
  7
STANDARD
 72
1
 11
246
 21
170
 31
0
100
AcDbText
  0
SOLID
  5
A85
330
A7F
100
AcDbEntity
  8
0
 62
     0
100
AcDbTrace
 10
246.417
 20
160
 30
0
 11
245.583
 21
160
 31
0
 12
246
 22
165
 32
0
 13
246
 23
165
 33
0
  0
SOLID
  5
A86
330
A7F
100
AcDbEntity
  8
0
 62
     0
100
AcDbTrace
 10
246.417
 20
180
 30
0
 11
245.583
 21
180
 31
0
 12
246
 22
175
 32
0
 13
246
 23
175
 33
0
  0
ENDBLK
  5
A87
330
A7F
100
AcDbEntity
  8
DimHeight
100
AcDbBlockEnd
  0
ENDSEC
  0
SECTION
  2
ENTITIES
  0
LINE
  5
A08
330
A02
100
AcDbEntity
  8
ProjItem
100
AcDbLine
 10
119.000000000
 20
165.000000000
 30
0.000000000
 11
119.000000000
 21
175.000000000
 31
0.000000000
  0
LINE
  5
A09
330
A02
100
AcDbEntity
  8
ProjItem
100
AcDbLine
 10
119.000000000
 20
165.000000000
 30
0.000000000
 11
239.000000000
 21
165.000000000
 31
0.000000000
  0
LINE
  5
A0A
330
A02
100
AcDbEntity
  8
ProjItem
100
AcDbLine
 10
119.000000000
 20
175.000000000
 30
0.000000000
 11
239.000000000
 21
175.000000000
 31
0.000000000
  0
LINE
  5
A0B
330
A02
100
AcDbEntity
  8
ProjItem
100
AcDbLine
 10
239.000000000
 20
165.000000000
 30
0.000000000
 11
239.000000000
 21
175.000000000
 31
0.000000000
  0
LINE
  5
A0C
330
A02
100
AcDbEntity
  8
ProjItem
100
AcDbLine
 10
119.000000000
 20
165.000000000
 30
0.000000000
 11
119.000000000
 21
175.000000000
 31
0.000000000
  0
LINE
  5
A0D
330
A02
100
AcDbEntity
  8
ProjItem
100
AcDbLine
 10
119.000000000
 20
175.000000000
 30
0.000000000
 11
239.000000000
 21
175.000000000
 31
0.000000000
  0
SPLINE
  5
A0E
330
A02
100
AcDbEntity
  8
ProjItem
100
AcDbSpline
210
0
220
0
230
1
 70
8
 71
1
 72
17
 73
15
 74
0
 40
0.000000000
 40
0.000000000
 40
0.224399475
 40
0.448798951
 40
0.673198426
 40
0.897597901
 40
1.121997376
 40
1.346396852
 40
1.570796327
 40
1.795195802
 40
2.019595277
 40
2.243994753
 40
2.468394228
 40
2.692793703
 40
2.917193178
 40
3.141592654
 40
3.141592654
 10
145.000000000
 20
175.000000000
 30
0.000000000
 10
144.849567473
 20
175.000000000
 30
0.000000000
 10
144.405813207
 20
175.000000000
 30
0.000000000
 10
143.690988895
 20
175.000000000
 30
0.000000000
 10
142.740938811
 20
175.000000000
 30
0.000000000
 10
141.603302435
 20
175.000000000
 30
0.000000000
 10
140.335125604
 20
175.000000000
 30
0.000000000
 10
139.000000000
 20
175.000000000
 30
0.000000000
 10
137.664874396
 20
175.000000000
 30
0.000000000
 10
136.396697565
 20
175.000000000
 30
0.000000000
 10
135.259061189
 20
175.000000000
 30
0.000000000
 10
134.309011105
 20
175.000000000
 30
0.000000000
 10
133.594186793
 20
175.000000000
 30
0.000000000
 10
133.150432527
 20
175.000000000
 30
0.000000000
 10
133.000000000
 20
175.000000000
 30
0.000000000
  0
SPLINE
  5
A0F
330
A02
100
AcDbEntity
  8
ProjItem
100
AcDbSpline
210
0
220
0
230
1
 70
8
 71
1
 72
17
 73
15
 74
0
 40
3.141592654
 40
3.141592654
 40
3.365992129
 40
3.590391604
 40
3.814791079
 40
4.039190555
 40
4.263590030
 40
4.487989505
 40
4.712388980
 40
4.936788456
 40
5.161187931
 40
5.385587406
 40
5.609986881
 40
5.834386357
 40
6.058785832
 40
6.283185307
 40
6.283185307
 10
133.000000000
 20
175.000000000
 30
0.000000000
 10
133.150432527
 20
175.000000000
 30
0.000000000
 10
133.594186793
 20
175.000000000
 30
0.000000000
 10
134.309011105
 20
175.000000000
 30
0.000000000
 10
135.259061189
 20
175.000000000
 30
0.000000000
 10
136.396697565
 20
175.000000000
 30
0.000000000
 10
137.664874396
 20
175.000000000
 30
0.000000000
 10
139.000000000
 20
175.000000000
 30
0.000000000
 10
140.335125604
 20
175.000000000
 30
0.000000000
 10
141.603302435
 20
175.000000000
 30
0.000000000
 10
142.740938811
 20
175.000000000
 30
0.000000000
 10
143.690988895
 20
175.000000000
 30
0.000000000
 10
144.405813207
 20
175.000000000
 30
0.000000000
 10
144.849567473
 20
175.000000000
 30
0.000000000
 10
145.000000000
 20
175.000000000
 30
0.000000000
  0
SPLINE
  5
A10
330
A02
100
AcDbEntity
  8
ProjItem
100
AcDbSpline
210
0
220
0
230
1
 70
8
 71
1
 72
17
 73
15
 74
0
 40
0.000000000
 40
0.000000000
 40
0.224399475
 40
0.448798951
 40
0.673198426
 40
0.897597901
 40
1.121997376
 40
1.346396852
 40
1.570796327
 40
1.795195802
 40
2.019595277
 40
2.243994753
 40
2.468394228
 40
2.692793703
 40
2.917193178
 40
3.141592654
 40
3.141592654
 10
225.000000000
 20
175.000000000
 30
0.000000000
 10
224.849567473
 20
175.000000000
 30
0.000000000
 10
224.405813207
 20
175.000000000
 30
0.000000000
 10
223.690988895
 20
175.000000000
 30
0.000000000
 10
222.740938811
 20
175.000000000
 30
0.000000000
 10
221.603302435
 20
175.000000000
 30
0.000000000
 10
220.335125604
 20
175.000000000
 30
0.000000000
 10
219.000000000
 20
175.000000000
 30
0.000000000
 10
217.664874396
 20
175.000000000
 30
0.000000000
 10
216.396697565
 20
175.000000000
 30
0.000000000
 10
215.259061189
 20
175.000000000
 30
0.000000000
 10
214.309011105
 20
175.000000000
 30
0.000000000
 10
213.594186793
 20
175.000000000
 30
0.000000000
 10
213.150432527
 20
175.000000000
 30
0.000000000
 10
213.000000000
 20
175.000000000
 30
0.000000000
  0
SPLINE
  5
A11
330
A02
100
AcDbEntity
  8
ProjItem
100
AcDbSpline
210
0
220
0
230
1
 70
8
 71
1
 72
17
 73
15
 74
0
 40
3.141592654
 40
3.141592654
 40
3.365992129
 40
3.590391604
 40
3.814791079
 40
4.039190555
 40
4.263590030
 40
4.487989505
 40
4.712388980
 40
4.936788456
 40
5.161187931
 40
5.385587406
 40
5.609986881
 40
5.834386357
 40
6.058785832
 40
6.283185307
 40
6.283185307
 10
213.000000000
 20
175.000000000
 30
0.000000000
 10
213.150432527
 20
175.000000000
 30
0.000000000
 10
213.594186793
 20
175.000000000
 30
0.000000000
 10
214.309011105
 20
175.000000000
 30
0.000000000
 10
215.259061189
 20
175.000000000
 30
0.000000000
 10
216.396697565
 20
175.000000000
 30
0.000000000
 10
217.664874396
 20
175.000000000
 30
0.000000000
 10
219.000000000
 20
175.000000000
 30
0.000000000
 10
220.335125604
 20
175.000000000
 30
0.000000000
 10
221.603302435
 20
175.000000000
 30
0.000000000
 10
222.740938811
 20
175.000000000
 30
0.000000000
 10
223.690988895
 20
175.000000000
 30
0.000000000
 10
224.405813207
 20
175.000000000
 30
0.000000000
 10
224.849567473
 20
175.000000000
 30
0.000000000
 10
225.000000000
 20
175.000000000
 30
0.000000000
  0
SPLINE
  5
A12
330
A02
100
AcDbEntity
  8
ProjItem
100
AcDbSpline
210
0
220
0
230
1
 70
8
 71
1
 72
17
 73
15
 74
0
 40
0.000000000
 40
0.000000000
 40
0.224399475
 40
0.448798951
 40
0.673198426
 40
0.897597901
 40
1.121997376
 40
1.346396852
 40
1.570796327
 40
1.795195802
 40
2.019595277
 40
2.243994753
 40
2.468394228
 40
2.692793703
 40
2.917193178
 40
3.141592654
 40
3.141592654
 10
145.000000000
 20
175.000000000
 30
0.000000000
 10
144.849567473
 20
175.000000000
 30
0.000000000
 10
144.405813207
 20
175.000000000
 30
0.000000000
 10
143.690988895
 20
175.000000000
 30
0.000000000
 10
142.740938811
 20
175.000000000
 30
0.000000000
 10
141.603302435
 20
175.000000000
 30
0.000000000
 10
140.335125604
 20
175.000000000
 30
0.000000000
 10
139.000000000
 20
175.000000000
 30
0.000000000
 10
137.664874396
 20
175.000000000
 30
0.000000000
 10
136.396697565
 20
175.000000000
 30
0.000000000
 10
135.259061189
 20
175.000000000
 30
0.000000000
 10
134.309011105
 20
175.000000000
 30
0.000000000
 10
133.594186793
 20
175.000000000
 30
0.000000000
 10
133.150432527
 20
175.000000000
 30
0.000000000
 10
133.000000000
 20
175.000000000
 30
0.000000000
  0
SPLINE
  5
A13
330
A02
100
AcDbEntity
  8
ProjItem
100
AcDbSpline
210
0
220
0
230
1
 70
8
 71
1
 72
17
 73
15
 74
0
 40
3.141592654
 40
3.141592654
 40
3.365992129
 40
3.590391604
 40
3.814791079
 40
4.039190555
 40
4.263590030
 40
4.487989505
 40
4.712388980
 40
4.936788456
 40
5.161187931
 40
5.385587406
 40
5.609986881
 40
5.834386357
 40
6.058785832
 40
6.283185307
 40
6.283185307
 10
133.000000000
 20
175.000000000
 30
0.000000000
 10
133.150432527
 20
175.000000000
 30
0.000000000
 10
133.594186793
 20
175.000000000
 30
0.000000000
 10
134.309011105
 20
175.000000000
 30
0.000000000
 10
135.259061189
 20
175.000000000
 30
0.000000000
 10
136.396697565
 20
175.000000000
 30
0.000000000
 10
137.664874396
 20
175.000000000
 30
0.000000000
 10
139.000000000
 20
175.000000000
 30
0.000000000
 10
140.335125604
 20
175.000000000
 30
0.000000000
 10
141.603302435
 20
175.000000000
 30
0.000000000
 10
142.740938811
 20
175.000000000
 30
0.000000000
 10
143.690988895
 20
175.000000000
 30
0.000000000
 10
144.405813207
 20
175.000000000
 30
0.000000000
 10
144.849567473
 20
175.000000000
 30
0.000000000
 10
145.000000000
 20
175.000000000
 30
0.000000000
  0
SPLINE
  5
A14
330
A02
100
AcDbEntity
  8
ProjItem
100
AcDbSpline
210
0
220
0
230
1
 70
8
 71
1
 72
17
 73
15
 74
0
 40
0.000000000
 40
0.000000000
 40
0.224399475
 40
0.448798951
 40
0.673198426
 40
0.897597901
 40
1.121997376
 40
1.346396852
 40
1.570796327
 40
1.795195802
 40
2.019595277
 40
2.243994753
 40
2.468394228
 40
2.692793703
 40
2.917193178
 40
3.141592654
 40
3.141592654
 10
225.000000000
 20
175.000000000
 30
0.000000000
 10
224.849567473
 20
175.000000000
 30
0.000000000
 10
224.405813207
 20
175.000000000
 30
0.000000000
 10
223.690988895
 20
175.000000000
 30
0.000000000
 10
222.740938811
 20
175.000000000
 30
0.000000000
 10
221.603302435
 20
175.000000000
 30
0.000000000
 10
220.335125604
 20
175.000000000
 30
0.000000000
 10
219.000000000
 20
175.000000000
 30
0.000000000
 10
217.664874396
 20
175.000000000
 30
0.000000000
 10
216.396697565
 20
175.000000000
 30
0.000000000
 10
215.259061189
 20
175.000000000
 30
0.000000000
 10
214.309011105
 20
175.000000000
 30
0.000000000
 10
213.594186793
 20
175.000000000
 30
0.000000000
 10
213.150432527
 20
175.000000000
 30
0.000000000
 10
213.000000000
 20
175.000000000
 30
0.000000000
  0
SPLINE
  5
A15
330
A02
100
AcDbEntity
  8
ProjItem
100
AcDbSpline
210
0
220
0
230
1
 70
8
 71
1
 72
17
 73
15
 74
0
 40
3.141592654
 40
3.141592654
 40
3.365992129
 40
3.590391604
 40
3.814791079
 40
4.039190555
 40
4.263590030
 40
4.487989505
 40
4.712388980
 40
4.936788456
 40
5.161187931
 40
5.385587406
 40
5.609986881
 40
5.834386357
 40
6.058785832
 40
6.283185307
 40
6.283185307
 10
213.000000000
 20
175.000000000
 30
0.000000000
 10
213.150432527
 20
175.000000000
 30
0.000000000
 10
213.594186793
 20
175.000000000
 30
0.000000000
 10
214.309011105
 20
175.000000000
 30
0.000000000
 10
215.259061189
 20
175.000000000
 30
0.000000000
 10
216.396697565
 20
175.000000000
 30
0.000000000
 10
217.664874396
 20
175.000000000
 30
0.000000000
 10
219.000000000
 20
175.000000000
 30
0.000000000
 10
220.335125604
 20
175.000000000
 30
0.000000000
 10
221.603302435
 20
175.000000000
 30
0.000000000
 10
222.740938811
 20
175.000000000
 30
0.000000000
 10
223.690988895
 20
175.000000000
 30
0.000000000
 10
224.405813207
 20
175.000000000
 30
0.000000000
 10
224.849567473
 20
175.000000000
 30
0.000000000
 10
225.000000000
 20
175.000000000
 30
0.000000000
  0
LINE
  5
A16
330
A02
100
AcDbEntity
  8
ProjItem
100
AcDbLine
 10
119.000000000
 20
165.000000000
 30
0.000000000
 11
239.000000000
 21
165.000000000
 31
0.000000000
  0
LINE
  5
A17
330
A02
100
AcDbEntity
  8
ProjItem
100
AcDbLine
 10
239.000000000
 20
165.000000000
 30
0.000000000
 11
239.000000000
 21
175.000000000
 31
0.000000000
  0
SPLINE
  5
A18
330
A02
100
AcDbEntity
  8
ProjItem
100
AcDbSpline
210
0
220
0
230
1
 70
8
 71
1
 72
17
 73
15
 74
0
 40
0.000000000
 40
0.000000000
 40
0.224399475
 40
0.448798951
 40
0.673198426
 40
0.897597901
 40
1.121997376
 40
1.346396852
 40
1.570796327
 40
1.795195802
 40
2.019595277
 40
2.243994753
 40
2.468394228
 40
2.692793703
 40
2.917193178
 40
3.141592654
 40
3.141592654
 10
145.000000000
 20
165.000000000
 30
0.000000000
 10
144.849567473
 20
165.000000000
 30
0.000000000
 10
144.405813207
 20
165.000000000
 30
0.000000000
 10
143.690988895
 20
165.000000000
 30
0.000000000
 10
142.740938811
 20
165.000000000
 30
0.000000000
 10
141.603302435
 20
165.000000000
 30
0.000000000
 10
140.335125604
 20
165.000000000
 30
0.000000000
 10
139.000000000
 20
165.000000000
 30
0.000000000
 10
137.664874396
 20
165.000000000
 30
0.000000000
 10
136.396697565
 20
165.000000000
 30
0.000000000
 10
135.259061189
 20
165.000000000
 30
0.000000000
 10
134.309011105
 20
165.000000000
 30
0.000000000
 10
133.594186793
 20
165.000000000
 30
0.000000000
 10
133.150432527
 20
165.000000000
 30
0.000000000
 10
133.000000000
 20
165.000000000
 30
0.000000000
  0
SPLINE
  5
A19
330
A02
100
AcDbEntity
  8
ProjItem
100
AcDbSpline
210
0
220
0
230
1
 70
8
 71
1
 72
17
 73
15
 74
0
 40
3.141592654
 40
3.141592654
 40
3.365992129
 40
3.590391604
 40
3.814791079
 40
4.039190555
 40
4.263590030
 40
4.487989505
 40
4.712388980
 40
4.936788456
 40
5.161187931
 40
5.385587406
 40
5.609986881
 40
5.834386357
 40
6.058785832
 40
6.283185307
 40
6.283185307
 10
133.000000000
 20
165.000000000
 30
0.000000000
 10
133.150432527
 20
165.000000000
 30
0.000000000
 10
133.594186793
 20
165.000000000
 30
0.000000000
 10
134.309011105
 20
165.000000000
 30
0.000000000
 10
135.259061189
 20
165.000000000
 30
0.000000000
 10
136.396697565
 20
165.000000000
 30
0.000000000
 10
137.664874396
 20
165.000000000
 30
0.000000000
 10
139.000000000
 20
165.000000000
 30
0.000000000
 10
140.335125604
 20
165.000000000
 30
0.000000000
 10
141.603302435
 20
165.000000000
 30
0.000000000
 10
142.740938811
 20
165.000000000
 30
0.000000000
 10
143.690988895
 20
165.000000000
 30
0.000000000
 10
144.405813207
 20
165.000000000
 30
0.000000000
 10
144.849567473
 20
165.000000000
 30
0.000000000
 10
145.000000000
 20
165.000000000
 30
0.000000000
  0
SPLINE
  5
A1A
330
A02
100
AcDbEntity
  8
ProjItem
100
AcDbSpline
210
0
220
0
230
1
 70
8
 71
1
 72
17
 73
15
 74
0
 40
0.000000000
 40
0.000000000
 40
0.224399475
 40
0.448798951
 40
0.673198426
 40
0.897597901
 40
1.121997376
 40
1.346396852
 40
1.570796327
 40
1.795195802
 40
2.019595277
 40
2.243994753
 40
2.468394228
 40
2.692793703
 40
2.917193178
 40
3.141592654
 40
3.141592654
 10
225.000000000
 20
165.000000000
 30
0.000000000
 10
224.849567473
 20
165.000000000
 30
0.000000000
 10
224.405813207
 20
165.000000000
 30
0.000000000
 10
223.690988895
 20
165.000000000
 30
0.000000000
 10
222.740938811
 20
165.000000000
 30
0.000000000
 10
221.603302435
 20
165.000000000
 30
0.000000000
 10
220.335125604
 20
165.000000000
 30
0.000000000
 10
219.000000000
 20
165.000000000
 30
0.000000000
 10
217.664874396
 20
165.000000000
 30
0.000000000
 10
216.396697565
 20
165.000000000
 30
0.000000000
 10
215.259061189
 20
165.000000000
 30
0.000000000
 10
214.309011105
 20
165.000000000
 30
0.000000000
 10
213.594186793
 20
165.000000000
 30
0.000000000
 10
213.150432527
 20
165.000000000
 30
0.000000000
 10
213.000000000
 20
165.000000000
 30
0.000000000
  0
SPLINE
  5
A1B
330
A02
100
AcDbEntity
  8
ProjItem
100
AcDbSpline
210
0
220
0
230
1
 70
8
 71
1
 72
17
 73
15
 74
0
 40
3.141592654
 40
3.141592654
 40
3.365992129
 40
3.590391604
 40
3.814791079
 40
4.039190555
 40
4.263590030
 40
4.487989505
 40
4.712388980
 40
4.936788456
 40
5.161187931
 40
5.385587406
 40
5.609986881
 40
5.834386357
 40
6.058785832
 40
6.283185307
 40
6.283185307
 10
213.000000000
 20
165.000000000
 30
0.000000000
 10
213.150432527
 20
165.000000000
 30
0.000000000
 10
213.594186793
 20
165.000000000
 30
0.000000000
 10
214.309011105
 20
165.000000000
 30
0.000000000
 10
215.259061189
 20
165.000000000
 30
0.000000000
 10
216.396697565
 20
165.000000000
 30
0.000000000
 10
217.664874396
 20
165.000000000
 30
0.000000000
 10
219.000000000
 20
165.000000000
 30
0.000000000
 10
220.335125604
 20
165.000000000
 30
0.000000000
 10
221.603302435
 20
165.000000000
 30
0.000000000
 10
222.740938811
 20
165.000000000
 30
0.000000000
 10
223.690988895
 20
165.000000000
 30
0.000000000
 10
224.405813207
 20
165.000000000
 30
0.000000000
 10
224.849567473
 20
165.000000000
 30
0.000000000
 10
225.000000000
 20
165.000000000
 30
0.000000000
  0
SPLINE
  5
A1C
330
A02
100
AcDbEntity
  8
ProjItem
100
AcDbSpline
210
0
220
0
230
1
 70
8
 71
1
 72
17
 73
15
 74
0
 40
0.000000000
 40
0.000000000
 40
0.224399475
 40
0.448798951
 40
0.673198426
 40
0.897597901
 40
1.121997376
 40
1.346396852
 40
1.570796327
 40
1.795195802
 40
2.019595277
 40
2.243994753
 40
2.468394228
 40
2.692793703
 40
2.917193178
 40
3.141592654
 40
3.141592654
 10
145.000000000
 20
165.000000000
 30
0.000000000
 10
144.849567473
 20
165.000000000
 30
0.000000000
 10
144.405813207
 20
165.000000000
 30
0.000000000
 10
143.690988895
 20
165.000000000
 30
0.000000000
 10
142.740938811
 20
165.000000000
 30
0.000000000
 10
141.603302435
 20
165.000000000
 30
0.000000000
 10
140.335125604
 20
165.000000000
 30
0.000000000
 10
139.000000000
 20
165.000000000
 30
0.000000000
 10
137.664874396
 20
165.000000000
 30
0.000000000
 10
136.396697565
 20
165.000000000
 30
0.000000000
 10
135.259061189
 20
165.000000000
 30
0.000000000
 10
134.309011105
 20
165.000000000
 30
0.000000000
 10
133.594186793
 20
165.000000000
 30
0.000000000
 10
133.150432527
 20
165.000000000
 30
0.000000000
 10
133.000000000
 20
165.000000000
 30
0.000000000
  0
SPLINE
  5
A1D
330
A02
100
AcDbEntity
  8
ProjItem
100
AcDbSpline
210
0
220
0
230
1
 70
8
 71
1
 72
17
 73
15
 74
0
 40
3.141592654
 40
3.141592654
 40
3.365992129
 40
3.590391604
 40
3.814791079
 40
4.039190555
 40
4.263590030
 40
4.487989505
 40
4.712388980
 40
4.936788456
 40
5.161187931
 40
5.385587406
 40
5.609986881
 40
5.834386357
 40
6.058785832
 40
6.283185307
 40
6.283185307
 10
133.000000000
 20
165.000000000
 30
0.000000000
 10
133.150432527
 20
165.000000000
 30
0.000000000
 10
133.594186793
 20
165.000000000
 30
0.000000000
 10
134.309011105
 20
165.000000000
 30
0.000000000
 10
135.259061189
 20
165.000000000
 30
0.000000000
 10
136.396697565
 20
165.000000000
 30
0.000000000
 10
137.664874396
 20
165.000000000
 30
0.000000000
 10
139.000000000
 20
165.000000000
 30
0.000000000
 10
140.335125604
 20
165.000000000
 30
0.000000000
 10
141.603302435
 20
165.000000000
 30
0.000000000
 10
142.740938811
 20
165.000000000
 30
0.000000000
 10
143.690988895
 20
165.000000000
 30
0.000000000
 10
144.405813207
 20
165.000000000
 30
0.000000000
 10
144.849567473
 20
165.000000000
 30
0.000000000
 10
145.000000000
 20
165.000000000
 30
0.000000000
  0
SPLINE
  5
A1E
330
A02
100
AcDbEntity
  8
ProjItem
100
AcDbSpline
210
0
220
0
230
1
 70
8
 71
1
 72
17
 73
15
 74
0
 40
0.000000000
 40
0.000000000
 40
0.224399475
 40
0.448798951
 40
0.673198426
 40
0.897597901
 40
1.121997376
 40
1.346396852
 40
1.570796327
 40
1.795195802
 40
2.019595277
 40
2.243994753
 40
2.468394228
 40
2.692793703
 40
2.917193178
 40
3.141592654
 40
3.141592654
 10
225.000000000
 20
165.000000000
 30
0.000000000
 10
224.849567473
 20
165.000000000
 30
0.000000000
 10
224.405813207
 20
165.000000000
 30
0.000000000
 10
223.690988895
 20
165.000000000
 30
0.000000000
 10
222.740938811
 20
165.000000000
 30
0.000000000
 10
221.603302435
 20
165.000000000
 30
0.000000000
 10
220.335125604
 20
165.000000000
 30
0.000000000
 10
219.000000000
 20
165.000000000
 30
0.000000000
 10
217.664874396
 20
165.000000000
 30
0.000000000
 10
216.396697565
 20
165.000000000
 30
0.000000000
 10
215.259061189
 20
165.000000000
 30
0.000000000
 10
214.309011105
 20
165.000000000
 30
0.000000000
 10
213.594186793
 20
165.000000000
 30
0.000000000
 10
213.150432527
 20
165.000000000
 30
0.000000000
 10
213.000000000
 20
165.000000000
 30
0.000000000
  0
SPLINE
  5
A1F
330
A02
100
AcDbEntity
  8
ProjItem
100
AcDbSpline
210
0
220
0
230
1
 70
8
 71
1
 72
17
 73
15
 74
0
 40
3.141592654
 40
3.141592654
 40
3.365992129
 40
3.590391604
 40
3.814791079
 40
4.039190555
 40
4.263590030
 40
4.487989505
 40
4.712388980
 40
4.936788456
 40
5.161187931
 40
5.385587406
 40
5.609986881
 40
5.834386357
 40
6.058785832
 40
6.283185307
 40
6.283185307
 10
213.000000000
 20
165.000000000
 30
0.000000000
 10
213.150432527
 20
165.000000000
 30
0.000000000
 10
213.594186793
 20
165.000000000
 30
0.000000000
 10
214.309011105
 20
165.000000000
 30
0.000000000
 10
215.259061189
 20
165.000000000
 30
0.000000000
 10
216.396697565
 20
165.000000000
 30
0.000000000
 10
217.664874396
 20
165.000000000
 30
0.000000000
 10
219.000000000
 20
165.000000000
 30
0.000000000
 10
220.335125604
 20
165.000000000
 30
0.000000000
 10
221.603302435
 20
165.000000000
 30
0.000000000
 10
222.740938811
 20
165.000000000
 30
0.000000000
 10
223.690988895
 20
165.000000000
 30
0.000000000
 10
224.405813207
 20
165.000000000
 30
0.000000000
 10
224.849567473
 20
165.000000000
 30
0.000000000
 10
225.000000000
 20
165.000000000
 30
0.000000000
  0
LINE
  5
A20
330
A02
100
AcDbEntity
  8
ProjItem
100
AcDbLine
 10
145.000000000
 20
165.000000000
 30
0.000000000
 11
145.000000000
 21
175.000000000
 31
0.000000000
  0
LINE
  5
A21
330
A02
100
AcDbEntity
  8
ProjItem
100
AcDbLine
 10
225.000000000
 20
165.000000000
 30
0.000000000
 11
225.000000000
 21
175.000000000
 31
0.000000000
  0
LINE
  5
A22
330
A02
100
AcDbEntity
  8
ProjItem
100
AcDbLine
 10
145.000000000
 20
165.000000000
 30
0.000000000
 11
145.000000000
 21
175.000000000
 31
0.000000000
  0
LINE
  5
A23
330
A02
100
AcDbEntity
  8
ProjItem
100
AcDbLine
 10
225.000000000
 20
165.000000000
 30
0.000000000
 11
225.000000000
 21
175.000000000
 31
0.000000000
  0
LINE
  5
A24
330
A02
100
AcDbEntity
  8
ProjItem
100
AcDbLine
 10
133.000000000
 20
165.000000000
 30
0.000000000
 11
133.000000000
 21
175.000000000
 31
0.000000000
  0
LINE
  5
A25
330
A02
100
AcDbEntity
  8
ProjItem
100
AcDbLine
 10
213.000000000
 20
165.000000000
 30
0.000000000
 11
213.000000000
 21
175.000000000
 31
0.000000000
  0
LINE
  5
A26
330
A02
100
AcDbEntity
  8
ProjItem
100
AcDbLine
 10
133.000000000
 20
165.000000000
 30
0.000000000
 11
133.000000000
 21
175.000000000
 31
0.000000000
  0
LINE
  5
A27
330
A02
100
AcDbEntity
  8
ProjItem
100
AcDbLine
 10
213.000000000
 20
165.000000000
 30
0.000000000
 11
213.000000000
 21
175.000000000
 31
0.000000000
  0
LINE
  5
A28
330
A02
100
AcDbEntity
  8
ProjItem
100
AcDbLine
 10
139.000000000
 20
165.000000000
 30
0.000000000
 11
139.000000000
 21
175.000000000
 31
0.000000000
  0
LINE
  5
A29
330
A02
100
AcDbEntity
  8
ProjItem
100
AcDbLine
 10
219.000000000
 20
165.000000000
 30
0.000000000
 11
219.000000000
 21
175.000000000
 31
0.000000000
  0
LINE
  5
A2A
330
A02
100
AcDbEntity
  8
ProjItem001
100
AcDbLine
 10
119.000000000
 20
67.000000000
 30
0.000000000
 11
119.000000000
 21
147.000000000
 31
0.000000000
  0
LINE
  5
A2B
330
A02
100
AcDbEntity
  8
ProjItem001
100
AcDbLine
 10
119.000000000
 20
67.000000000
 30
0.000000000
 11
239.000000000
 21
67.000000000
 31
0.000000000
  0
LINE
  5
A2C
330
A02
100
AcDbEntity
  8
ProjItem001
100
AcDbLine
 10
239.000000000
 20
67.000000000
 30
0.000000000
 11
239.000000000
 21
147.000000000
 31
0.000000000
  0
LINE
  5
A2D
330
A02
100
AcDbEntity
  8
ProjItem001
100
AcDbLine
 10
119.000000000
 20
147.000000000
 30
0.000000000
 11
239.000000000
 21
147.000000000
 31
0.000000000
  0
CIRCLE
  5
A2E
330
A02
100
AcDbEntity
  8
ProjItem001
100
AcDbCircle
 10
139.000000000
 20
87.000000000
 30
0.000000000
 40
6.000000000
  0
CIRCLE
  5
A2F
330
A02
100
AcDbEntity
  8
ProjItem001
100
AcDbCircle
 10
219.000000000
 20
87.000000000
 30
0.000000000
 40
6.000000000
  0
CIRCLE
  5
A30
330
A02
100
AcDbEntity
  8
ProjItem001
100
AcDbCircle
 10
139.000000000
 20
127.000000000
 30
0.000000000
 40
6.000000000
  0
CIRCLE
  5
A31
330
A02
100
AcDbEntity
  8
ProjItem001
100
AcDbCircle
 10
219.000000000
 20
127.000000000
 30
0.000000000
 40
6.000000000
  0
LINE
  5
A32
330
A02
100
AcDbEntity
  8
ProjItem001
100
AcDbLine
 10
119.000000000
 20
67.000000000
 30
0.000000000
 11
119.000000000
 21
147.000000000
 31
0.000000000
  0
LINE
  5
A33
330
A02
100
AcDbEntity
  8
ProjItem001
100
AcDbLine
 10
119.000000000
 20
67.000000000
 30
0.000000000
 11
239.000000000
 21
67.000000000
 31
0.000000000
  0
LINE
  5
A34
330
A02
100
AcDbEntity
  8
ProjItem001
100
AcDbLine
 10
119.000000000
 20
147.000000000
 30
0.000000000
 11
239.000000000
 21
147.000000000
 31
0.000000000
  0
LINE
  5
A35
330
A02
100
AcDbEntity
  8
ProjItem001
100
AcDbLine
 10
239.000000000
 20
67.000000000
 30
0.000000000
 11
239.000000000
 21
147.000000000
 31
0.000000000
  0
CIRCLE
  5
A36
330
A02
100
AcDbEntity
  8
ProjItem001
100
AcDbCircle
 10
139.000000000
 20
87.000000000
 30
0.000000000
 40
6.000000000
  0
CIRCLE
  5
A37
330
A02
100
AcDbEntity
  8
ProjItem001
100
AcDbCircle
 10
219.000000000
 20
87.000000000
 30
0.000000000
 40
6.000000000
  0
CIRCLE
  5
A38
330
A02
100
AcDbEntity
  8
ProjItem001
100
AcDbCircle
 10
139.000000000
 20
127.000000000
 30
0.000000000
 40
6.000000000
  0
CIRCLE
  5
A39
330
A02
100
AcDbEntity
  8
ProjItem001
100
AcDbCircle
 10
219.000000000
 20
127.000000000
 30
0.000000000
 40
6.000000000
  0
LINE
  5
A3A
330
A02
100
AcDbEntity
  8
ProjItem001
100
AcDbLine
 10
131.500000000
 20
87.000000000
 30
0.000000000
 11
146.500000000
 21
87.000000000
 31
0.000000000
  0
LINE
  5
A3B
330
A02
100
AcDbEntity
  8
ProjItem001
100
AcDbLine
 10
139.000000000
 20
79.500000000
 30
0.000000000
 11
139.000000000
 21
94.500000000
 31
0.000000000
  0
LINE
  5
A3C
330
A02
100
AcDbEntity
  8
ProjItem001
100
AcDbLine
 10
131.500000000
 20
127.000000000
 30
0.000000000
 11
146.500000000
 21
127.000000000
 31
0.000000000
  0
LINE
  5
A3D
330
A02
100
AcDbEntity
  8
ProjItem001
100
AcDbLine
 10
139.000000000
 20
119.500000000
 30
0.000000000
 11
139.000000000
 21
134.500000000
 31
0.000000000
  0
LINE
  5
A3E
330
A02
100
AcDbEntity
  8
ProjItem001
100
AcDbLine
 10
211.500000000
 20
87.000000000
 30
0.000000000
 11
226.500000000
 21
87.000000000
 31
0.000000000
  0
LINE
  5
A3F
330
A02
100
AcDbEntity
  8
ProjItem001
100
AcDbLine
 10
219.000000000
 20
79.500000000
 30
0.000000000
 11
219.000000000
 21
94.500000000
 31
0.000000000
  0
LINE
  5
A40
330
A02
100
AcDbEntity
  8
ProjItem001
100
AcDbLine
 10
211.500000000
 20
127.000000000
 30
0.000000000
 11
226.500000000
 21
127.000000000
 31
0.000000000
  0
LINE
  5
A41
330
A02
100
AcDbEntity
  8
ProjItem001
100
AcDbLine
 10
219.000000000
 20
119.500000000
 30
0.000000000
 11
219.000000000
 21
134.500000000
 31
0.000000000
  0
LINE
  5
A42
330
A02
100
AcDbEntity
  8
ProjItem002
100
AcDbLine
 10
21.000000000
 20
165.000000000
 30
0.000000000
 11
21.000000000
 21
175.000000000
 31
0.000000000
  0
LINE
  5
A43
330
A02
100
AcDbEntity
  8
ProjItem002
100
AcDbLine
 10
21.000000000
 20
175.000000000
 30
0.000000000
 11
101.000000000
 21
175.000000000
 31
0.000000000
  0
LINE
  5
A44
330
A02
100
AcDbEntity
  8
ProjItem002
100
AcDbLine
 10
101.000000000
 20
165.000000000
 30
0.000000000
 11
101.000000000
 21
175.000000000
 31
0.000000000
  0
LINE
  5
A45
330
A02
100
AcDbEntity
  8
ProjItem002
100
AcDbLine
 10
21.000000000
 20
165.000000000
 30
0.000000000
 11
101.000000000
 21
165.000000000
 31
0.000000000
  0
LINE
  5
A46
330
A02
100
AcDbEntity
  8
ProjItem002
100
AcDbLine
 10
21.000000000
 20
165.000000000
 30
0.000000000
 11
21.000000000
 21
175.000000000
 31
0.000000000
  0
LINE
  5
A47
330
A02
100
AcDbEntity
  8
ProjItem002
100
AcDbLine
 10
21.000000000
 20
165.000000000
 30
0.000000000
 11
101.000000000
 21
165.000000000
 31
0.000000000
  0
LINE
  5
A48
330
A02
100
AcDbEntity
  8
ProjItem002
100
AcDbLine
 10
101.000000000
 20
165.000000000
 30
0.000000000
 11
101.000000000
 21
175.000000000
 31
0.000000000
  0
LINE
  5
A49
330
A02
100
AcDbEntity
  8
ProjItem002
100
AcDbLine
 10
21.000000000
 20
175.000000000
 30
0.000000000
 11
101.000000000
 21
175.000000000
 31
0.000000000
  0
SPLINE
  5
A4A
330
A02
100
AcDbEntity
  8
ProjItem002
100
AcDbSpline
210
0
220
0
230
1
 70
8
 71
1
 72
17
 73
15
 74
0
 40
0.000000000
 40
0.000000000
 40
0.112199738
 40
0.224399475
 40
0.336599213
 40
0.448798951
 40
0.560998688
 40
0.673198426
 40
0.785398163
 40
0.897597901
 40
1.009797639
 40
1.121997376
 40
1.234197114
 40
1.346396852
 40
1.458596589
 40
1.570796327
 40
1.570796327
 10
41.000000000
 20
175.000000000
 30
0.000000000
 10
41.671786857
 20
175.000000000
 30
0.000000000
 10
42.335125604
 20
175.000000000
 30
0.000000000
 10
42.981674372
 20
175.000000000
 30
0.000000000
 10
43.603302435
 20
175.000000000
 30
0.000000000
 10
44.192192459
 20
175.000000000
 30
0.000000000
 10
44.740938811
 20
175.000000000
 30
0.000000000
 10
45.242640687
 20
175.000000000
 30
0.000000000
 10
45.690988895
 20
175.000000000
 30
0.000000000
 10
46.080345195
 20
175.000000000
 30
0.000000000
 10
46.405813207
 20
175.000000000
 30
0.000000000
 10
46.663299982
 20
175.000000000
 30
0.000000000
 10
46.849567473
 20
175.000000000
 30
0.000000000
 10
46.962273259
 20
175.000000000
 30
0.000000000
 10
47.000000000
 20
175.000000000
 30
0.000000000
  0
SPLINE
  5
A4B
330
A02
100
AcDbEntity
  8
ProjItem002
100
AcDbSpline
210
0
220
0
230
1
 70
8
 71
1
 72
17
 73
15
 74
0
 40
1.570796327
 40
1.570796327
 40
1.795195802
 40
2.019595277
 40
2.243994753
 40
2.468394228
 40
2.692793703
 40
2.917193178
 40
3.141592654
 40
3.365992129
 40
3.590391604
 40
3.814791079
 40
4.039190555
 40
4.263590030
 40
4.487989505
 40
4.712388980
 40
4.712388980
 10
47.000000000
 20
175.000000000
 30
0.000000000
 10
46.849567473
 20
175.000000000
 30
0.000000000
 10
46.405813207
 20
175.000000000
 30
0.000000000
 10
45.690988895
 20
175.000000000
 30
0.000000000
 10
44.740938811
 20
175.000000000
 30
0.000000000
 10
43.603302435
 20
175.000000000
 30
0.000000000
 10
42.335125604
 20
175.000000000
 30
0.000000000
 10
41.000000000
 20
175.000000000
 30
0.000000000
 10
39.664874396
 20
175.000000000
 30
0.000000000
 10
38.396697565
 20
175.000000000
 30
0.000000000
 10
37.259061189
 20
175.000000000
 30
0.000000000
 10
36.309011105
 20
175.000000000
 30
0.000000000
 10
35.594186793
 20
175.000000000
 30
0.000000000
 10
35.150432527
 20
175.000000000
 30
0.000000000
 10
35.000000000
 20
175.000000000
 30
0.000000000
  0
SPLINE
  5
A4C
330
A02
100
AcDbEntity
  8
ProjItem002
100
AcDbSpline
210
0
220
0
230
1
 70
8
 71
1
 72
17
 73
15
 74
0
 40
4.712388980
 40
4.712388980
 40
4.824588718
 40
4.936788456
 40
5.048988193
 40
5.161187931
 40
5.273387669
 40
5.385587406
 40
5.497787144
 40
5.609986881
 40
5.722186619
 40
5.834386357
 40
5.946586094
 40
6.058785832
 40
6.170985570
 40
6.283185307
 40
6.283185307
 10
35.000000000
 20
175.000000000
 30
0.000000000
 10
35.037726741
 20
175.000000000
 30
0.000000000
 10
35.150432527
 20
175.000000000
 30
0.000000000
 10
35.336700018
 20
175.000000000
 30
0.000000000
 10
35.594186793
 20
175.000000000
 30
0.000000000
 10
35.919654805
 20
175.000000000
 30
0.000000000
 10
36.309011105
 20
175.000000000
 30
0.000000000
 10
36.757359313
 20
175.000000000
 30
0.000000000
 10
37.259061189
 20
175.000000000
 30
0.000000000
 10
37.807807541
 20
175.000000000
 30
0.000000000
 10
38.396697565
 20
175.000000000
 30
0.000000000
 10
39.018325628
 20
175.000000000
 30
0.000000000
 10
39.664874396
 20
175.000000000
 30
0.000000000
 10
40.328213143
 20
175.000000000
 30
0.000000000
 10
41.000000000
 20
175.000000000
 30
0.000000000
  0
SPLINE
  5
A4D
330
A02
100
AcDbEntity
  8
ProjItem002
100
AcDbSpline
210
0
220
0
230
1
 70
8
 71
1
 72
17
 73
15
 74
0
 40
0.000000000
 40
0.000000000
 40
0.112199738
 40
0.224399475
 40
0.336599213
 40
0.448798951
 40
0.560998688
 40
0.673198426
 40
0.785398163
 40
0.897597901
 40
1.009797639
 40
1.121997376
 40
1.234197114
 40
1.346396852
 40
1.458596589
 40
1.570796327
 40
1.570796327
 10
41.000000000
 20
175.000000000
 30
0.000000000
 10
41.671786857
 20
175.000000000
 30
0.000000000
 10
42.335125604
 20
175.000000000
 30
0.000000000
 10
42.981674372
 20
175.000000000
 30
0.000000000
 10
43.603302435
 20
175.000000000
 30
0.000000000
 10
44.192192459
 20
175.000000000
 30
0.000000000
 10
44.740938811
 20
175.000000000
 30
0.000000000
 10
45.242640687
 20
175.000000000
 30
0.000000000
 10
45.690988895
 20
175.000000000
 30
0.000000000
 10
46.080345195
 20
175.000000000
 30
0.000000000
 10
46.405813207
 20
175.000000000
 30
0.000000000
 10
46.663299982
 20
175.000000000
 30
0.000000000
 10
46.849567473
 20
175.000000000
 30
0.000000000
 10
46.962273259
 20
175.000000000
 30
0.000000000
 10
47.000000000
 20
175.000000000
 30
0.000000000
  0
SPLINE
  5
A4E
330
A02
100
AcDbEntity
  8
ProjItem002
100
AcDbSpline
210
0
220
0
230
1
 70
8
 71
1
 72
17
 73
15
 74
0
 40
1.570796327
 40
1.570796327
 40
1.795195802
 40
2.019595277
 40
2.243994753
 40
2.468394228
 40
2.692793703
 40
2.917193178
 40
3.141592654
 40
3.365992129
 40
3.590391604
 40
3.814791079
 40
4.039190555
 40
4.263590030
 40
4.487989505
 40
4.712388980
 40
4.712388980
 10
47.000000000
 20
175.000000000
 30
0.000000000
 10
46.849567473
 20
175.000000000
 30
0.000000000
 10
46.405813207
 20
175.000000000
 30
0.000000000
 10
45.690988895
 20
175.000000000
 30
0.000000000
 10
44.740938811
 20
175.000000000
 30
0.000000000
 10
43.603302435
 20
175.000000000
 30
0.000000000
 10
42.335125604
 20
175.000000000
 30
0.000000000
 10
41.000000000
 20
175.000000000
 30
0.000000000
 10
39.664874396
 20
175.000000000
 30
0.000000000
 10
38.396697565
 20
175.000000000
 30
0.000000000
 10
37.259061189
 20
175.000000000
 30
0.000000000
 10
36.309011105
 20
175.000000000
 30
0.000000000
 10
35.594186793
 20
175.000000000
 30
0.000000000
 10
35.150432527
 20
175.000000000
 30
0.000000000
 10
35.000000000
 20
175.000000000
 30
0.000000000
  0
SPLINE
  5
A4F
330
A02
100
AcDbEntity
  8
ProjItem002
100
AcDbSpline
210
0
220
0
230
1
 70
8
 71
1
 72
17
 73
15
 74
0
 40
4.712388980
 40
4.712388980
 40
4.824588718
 40
4.936788456
 40
5.048988193
 40
5.161187931
 40
5.273387669
 40
5.385587406
 40
5.497787144
 40
5.609986881
 40
5.722186619
 40
5.834386357
 40
5.946586094
 40
6.058785832
 40
6.170985570
 40
6.283185307
 40
6.283185307
 10
35.000000000
 20
175.000000000
 30
0.000000000
 10
35.037726741
 20
175.000000000
 30
0.000000000
 10
35.150432527
 20
175.000000000
 30
0.000000000
 10
35.336700018
 20
175.000000000
 30
0.000000000
 10
35.594186793
 20
175.000000000
 30
0.000000000
 10
35.919654805
 20
175.000000000
 30
0.000000000
 10
36.309011105
 20
175.000000000
 30
0.000000000
 10
36.757359313
 20
175.000000000
 30
0.000000000
 10
37.259061189
 20
175.000000000
 30
0.000000000
 10
37.807807541
 20
175.000000000
 30
0.000000000
 10
38.396697565
 20
175.000000000
 30
0.000000000
 10
39.018325628
 20
175.000000000
 30
0.000000000
 10
39.664874396
 20
175.000000000
 30
0.000000000
 10
40.328213143
 20
175.000000000
 30
0.000000000
 10
41.000000000
 20
175.000000000
 30
0.000000000
  0
SPLINE
  5
A50
330
A02
100
AcDbEntity
  8
ProjItem002
100
AcDbSpline
210
0
220
0
230
1
 70
8
 71
1
 72
17
 73
15
 74
0
 40
0.000000000
 40
0.000000000
 40
0.112199738
 40
0.224399475
 40
0.336599213
 40
0.448798951
 40
0.560998688
 40
0.673198426
 40
0.785398163
 40
0.897597901
 40
1.009797639
 40
1.121997376
 40
1.234197114
 40
1.346396852
 40
1.458596589
 40
1.570796327
 40
1.570796327
 10
81.000000000
 20
175.000000000
 30
0.000000000
 10
81.671786857
 20
175.000000000
 30
0.000000000
 10
82.335125604
 20
175.000000000
 30
0.000000000
 10
82.981674372
 20
175.000000000
 30
0.000000000
 10
83.603302435
 20
175.000000000
 30
0.000000000
 10
84.192192459
 20
175.000000000
 30
0.000000000
 10
84.740938811
 20
175.000000000
 30
0.000000000
 10
85.242640687
 20
175.000000000
 30
0.000000000
 10
85.690988895
 20
175.000000000
 30
0.000000000
 10
86.080345195
 20
175.000000000
 30
0.000000000
 10
86.405813207
 20
175.000000000
 30
0.000000000
 10
86.663299982
 20
175.000000000
 30
0.000000000
 10
86.849567473
 20
175.000000000
 30
0.000000000
 10
86.962273259
 20
175.000000000
 30
0.000000000
 10
87.000000000
 20
175.000000000
 30
0.000000000
  0
SPLINE
  5
A51
330
A02
100
AcDbEntity
  8
ProjItem002
100
AcDbSpline
210
0
220
0
230
1
 70
8
 71
1
 72
17
 73
15
 74
0
 40
1.570796327
 40
1.570796327
 40
1.795195802
 40
2.019595277
 40
2.243994753
 40
2.468394228
 40
2.692793703
 40
2.917193178
 40
3.141592654
 40
3.365992129
 40
3.590391604
 40
3.814791079
 40
4.039190555
 40
4.263590030
 40
4.487989505
 40
4.712388980
 40
4.712388980
 10
87.000000000
 20
175.000000000
 30
0.000000000
 10
86.849567473
 20
175.000000000
 30
0.000000000
 10
86.405813207
 20
175.000000000
 30
0.000000000
 10
85.690988895
 20
175.000000000
 30
0.000000000
 10
84.740938811
 20
175.000000000
 30
0.000000000
 10
83.603302435
 20
175.000000000
 30
0.000000000
 10
82.335125604
 20
175.000000000
 30
0.000000000
 10
81.000000000
 20
175.000000000
 30
0.000000000
 10
79.664874396
 20
175.000000000
 30
0.000000000
 10
78.396697565
 20
175.000000000
 30
0.000000000
 10
77.259061189
 20
175.000000000
 30
0.000000000
 10
76.309011105
 20
175.000000000
 30
0.000000000
 10
75.594186793
 20
175.000000000
 30
0.000000000
 10
75.150432527
 20
175.000000000
 30
0.000000000
 10
75.000000000
 20
175.000000000
 30
0.000000000
  0
SPLINE
  5
A52
330
A02
100
AcDbEntity
  8
ProjItem002
100
AcDbSpline
210
0
220
0
230
1
 70
8
 71
1
 72
17
 73
15
 74
0
 40
4.712388980
 40
4.712388980
 40
4.824588718
 40
4.936788456
 40
5.048988193
 40
5.161187931
 40
5.273387669
 40
5.385587406
 40
5.497787144
 40
5.609986881
 40
5.722186619
 40
5.834386357
 40
5.946586094
 40
6.058785832
 40
6.170985570
 40
6.283185307
 40
6.283185307
 10
75.000000000
 20
175.000000000
 30
0.000000000
 10
75.037726741
 20
175.000000000
 30
0.000000000
 10
75.150432527
 20
175.000000000
 30
0.000000000
 10
75.336700018
 20
175.000000000
 30
0.000000000
 10
75.594186793
 20
175.000000000
 30
0.000000000
 10
75.919654805
 20
175.000000000
 30
0.000000000
 10
76.309011105
 20
175.000000000
 30
0.000000000
 10
76.757359313
 20
175.000000000
 30
0.000000000
 10
77.259061189
 20
175.000000000
 30
0.000000000
 10
77.807807541
 20
175.000000000
 30
0.000000000
 10
78.396697565
 20
175.000000000
 30
0.000000000
 10
79.018325628
 20
175.000000000
 30
0.000000000
 10
79.664874396
 20
175.000000000
 30
0.000000000
 10
80.328213143
 20
175.000000000
 30
0.000000000
 10
81.000000000
 20
175.000000000
 30
0.000000000
  0
SPLINE
  5
A53
330
A02
100
AcDbEntity
  8
ProjItem002
100
AcDbSpline
210
0
220
0
230
1
 70
8
 71
1
 72
17
 73
15
 74
0
 40
0.000000000
 40
0.000000000
 40
0.112199738
 40
0.224399475
 40
0.336599213
 40
0.448798951
 40
0.560998688
 40
0.673198426
 40
0.785398163
 40
0.897597901
 40
1.009797639
 40
1.121997376
 40
1.234197114
 40
1.346396852
 40
1.458596589
 40
1.570796327
 40
1.570796327
 10
81.000000000
 20
175.000000000
 30
0.000000000
 10
81.671786857
 20
175.000000000
 30
0.000000000
 10
82.335125604
 20
175.000000000
 30
0.000000000
 10
82.981674372
 20
175.000000000
 30
0.000000000
 10
83.603302435
 20
175.000000000
 30
0.000000000
 10
84.192192459
 20
175.000000000
 30
0.000000000
 10
84.740938811
 20
175.000000000
 30
0.000000000
 10
85.242640687
 20
175.000000000
 30
0.000000000
 10
85.690988895
 20
175.000000000
 30
0.000000000
 10
86.080345195
 20
175.000000000
 30
0.000000000
 10
86.405813207
 20
175.000000000
 30
0.000000000
 10
86.663299982
 20
175.000000000
 30
0.000000000
 10
86.849567473
 20
175.000000000
 30
0.000000000
 10
86.962273259
 20
175.000000000
 30
0.000000000
 10
87.000000000
 20
175.000000000
 30
0.000000000
  0
SPLINE
  5
A54
330
A02
100
AcDbEntity
  8
ProjItem002
100
AcDbSpline
210
0
220
0
230
1
 70
8
 71
1
 72
17
 73
15
 74
0
 40
1.570796327
 40
1.570796327
 40
1.795195802
 40
2.019595277
 40
2.243994753
 40
2.468394228
 40
2.692793703
 40
2.917193178
 40
3.141592654
 40
3.365992129
 40
3.590391604
 40
3.814791079
 40
4.039190555
 40
4.263590030
 40
4.487989505
 40
4.712388980
 40
4.712388980
 10
87.000000000
 20
175.000000000
 30
0.000000000
 10
86.849567473
 20
175.000000000
 30
0.000000000
 10
86.405813207
 20
175.000000000
 30
0.000000000
 10
85.690988895
 20
175.000000000
 30
0.000000000
 10
84.740938811
 20
175.000000000
 30
0.000000000
 10
83.603302435
 20
175.000000000
 30
0.000000000
 10
82.335125604
 20
175.000000000
 30
0.000000000
 10
81.000000000
 20
175.000000000
 30
0.000000000
 10
79.664874396
 20
175.000000000
 30
0.000000000
 10
78.396697565
 20
175.000000000
 30
0.000000000
 10
77.259061189
 20
175.000000000
 30
0.000000000
 10
76.309011105
 20
175.000000000
 30
0.000000000
 10
75.594186793
 20
175.000000000
 30
0.000000000
 10
75.150432527
 20
175.000000000
 30
0.000000000
 10
75.000000000
 20
175.000000000
 30
0.000000000
  0
SPLINE
  5
A55
330
A02
100
AcDbEntity
  8
ProjItem002
100
AcDbSpline
210
0
220
0
230
1
 70
8
 71
1
 72
17
 73
15
 74
0
 40
4.712388980
 40
4.712388980
 40
4.824588718
 40
4.936788456
 40
5.048988193
 40
5.161187931
 40
5.273387669
 40
5.385587406
 40
5.497787144
 40
5.609986881
 40
5.722186619
 40
5.834386357
 40
5.946586094
 40
6.058785832
 40
6.170985570
 40
6.283185307
 40
6.283185307
 10
75.000000000
 20
175.000000000
 30
0.000000000
 10
75.037726741
 20
175.000000000
 30
0.000000000
 10
75.150432527
 20
175.000000000
 30
0.000000000
 10
75.336700018
 20
175.000000000
 30
0.000000000
 10
75.594186793
 20
175.000000000
 30
0.000000000
 10
75.919654805
 20
175.000000000
 30
0.000000000
 10
76.309011105
 20
175.000000000
 30
0.000000000
 10
76.757359313
 20
175.000000000
 30
0.000000000
 10
77.259061189
 20
175.000000000
 30
0.000000000
 10
77.807807541
 20
175.000000000
 30
0.000000000
 10
78.396697565
 20
175.000000000
 30
0.000000000
 10
79.018325628
 20
175.000000000
 30
0.000000000
 10
79.664874396
 20
175.000000000
 30
0.000000000
 10
80.328213143
 20
175.000000000
 30
0.000000000
 10
81.000000000
 20
175.000000000
 30
0.000000000
  0
SPLINE
  5
A56
330
A02
100
AcDbEntity
  8
ProjItem002
100
AcDbSpline
210
0
220
0
230
1
 70
8
 71
1
 72
17
 73
15
 74
0
 40
0.000000000
 40
0.000000000
 40
0.112199738
 40
0.224399475
 40
0.336599213
 40
0.448798951
 40
0.560998688
 40
0.673198426
 40
0.785398163
 40
0.897597901
 40
1.009797639
 40
1.121997376
 40
1.234197114
 40
1.346396852
 40
1.458596589
 40
1.570796327
 40
1.570796327
 10
41.000000000
 20
165.000000000
 30
0.000000000
 10
41.671786857
 20
165.000000000
 30
0.000000000
 10
42.335125604
 20
165.000000000
 30
0.000000000
 10
42.981674372
 20
165.000000000
 30
0.000000000
 10
43.603302435
 20
165.000000000
 30
0.000000000
 10
44.192192459
 20
165.000000000
 30
0.000000000
 10
44.740938811
 20
165.000000000
 30
0.000000000
 10
45.242640687
 20
165.000000000
 30
0.000000000
 10
45.690988895
 20
165.000000000
 30
0.000000000
 10
46.080345195
 20
165.000000000
 30
0.000000000
 10
46.405813207
 20
165.000000000
 30
0.000000000
 10
46.663299982
 20
165.000000000
 30
0.000000000
 10
46.849567473
 20
165.000000000
 30
0.000000000
 10
46.962273259
 20
165.000000000
 30
0.000000000
 10
47.000000000
 20
165.000000000
 30
0.000000000
  0
SPLINE
  5
A57
330
A02
100
AcDbEntity
  8
ProjItem002
100
AcDbSpline
210
0
220
0
230
1
 70
8
 71
1
 72
17
 73
15
 74
0
 40
1.570796327
 40
1.570796327
 40
1.795195802
 40
2.019595277
 40
2.243994753
 40
2.468394228
 40
2.692793703
 40
2.917193178
 40
3.141592654
 40
3.365992129
 40
3.590391604
 40
3.814791079
 40
4.039190555
 40
4.263590030
 40
4.487989505
 40
4.712388980
 40
4.712388980
 10
47.000000000
 20
165.000000000
 30
0.000000000
 10
46.849567473
 20
165.000000000
 30
0.000000000
 10
46.405813207
 20
165.000000000
 30
0.000000000
 10
45.690988895
 20
165.000000000
 30
0.000000000
 10
44.740938811
 20
165.000000000
 30
0.000000000
 10
43.603302435
 20
165.000000000
 30
0.000000000
 10
42.335125604
 20
165.000000000
 30
0.000000000
 10
41.000000000
 20
165.000000000
 30
0.000000000
 10
39.664874396
 20
165.000000000
 30
0.000000000
 10
38.396697565
 20
165.000000000
 30
0.000000000
 10
37.259061189
 20
165.000000000
 30
0.000000000
 10
36.309011105
 20
165.000000000
 30
0.000000000
 10
35.594186793
 20
165.000000000
 30
0.000000000
 10
35.150432527
 20
165.000000000
 30
0.000000000
 10
35.000000000
 20
165.000000000
 30
0.000000000
  0
SPLINE
  5
A58
330
A02
100
AcDbEntity
  8
ProjItem002
100
AcDbSpline
210
0
220
0
230
1
 70
8
 71
1
 72
17
 73
15
 74
0
 40
4.712388980
 40
4.712388980
 40
4.824588718
 40
4.936788456
 40
5.048988193
 40
5.161187931
 40
5.273387669
 40
5.385587406
 40
5.497787144
 40
5.609986881
 40
5.722186619
 40
5.834386357
 40
5.946586094
 40
6.058785832
 40
6.170985570
 40
6.283185307
 40
6.283185307
 10
35.000000000
 20
165.000000000
 30
0.000000000
 10
35.037726741
 20
165.000000000
 30
0.000000000
 10
35.150432527
 20
165.000000000
 30
0.000000000
 10
35.336700018
 20
165.000000000
 30
0.000000000
 10
35.594186793
 20
165.000000000
 30
0.000000000
 10
35.919654805
 20
165.000000000
 30
0.000000000
 10
36.309011105
 20
165.000000000
 30
0.000000000
 10
36.757359313
 20
165.000000000
 30
0.000000000
 10
37.259061189
 20
165.000000000
 30
0.000000000
 10
37.807807541
 20
165.000000000
 30
0.000000000
 10
38.396697565
 20
165.000000000
 30
0.000000000
 10
39.018325628
 20
165.000000000
 30
0.000000000
 10
39.664874396
 20
165.000000000
 30
0.000000000
 10
40.328213143
 20
165.000000000
 30
0.000000000
 10
41.000000000
 20
165.000000000
 30
0.000000000
  0
SPLINE
  5
A59
330
A02
100
AcDbEntity
  8
ProjItem002
100
AcDbSpline
210
0
220
0
230
1
 70
8
 71
1
 72
17
 73
15
 74
0
 40
0.000000000
 40
0.000000000
 40
0.112199738
 40
0.224399475
 40
0.336599213
 40
0.448798951
 40
0.560998688
 40
0.673198426
 40
0.785398163
 40
0.897597901
 40
1.009797639
 40
1.121997376
 40
1.234197114
 40
1.346396852
 40
1.458596589
 40
1.570796327
 40
1.570796327
 10
41.000000000
 20
165.000000000
 30
0.000000000
 10
41.671786857
 20
165.000000000
 30
0.000000000
 10
42.335125604
 20
165.000000000
 30
0.000000000
 10
42.981674372
 20
165.000000000
 30
0.000000000
 10
43.603302435
 20
165.000000000
 30
0.000000000
 10
44.192192459
 20
165.000000000
 30
0.000000000
 10
44.740938811
 20
165.000000000
 30
0.000000000
 10
45.242640687
 20
165.000000000
 30
0.000000000
 10
45.690988895
 20
165.000000000
 30
0.000000000
 10
46.080345195
 20
165.000000000
 30
0.000000000
 10
46.405813207
 20
165.000000000
 30
0.000000000
 10
46.663299982
 20
165.000000000
 30
0.000000000
 10
46.849567473
 20
165.000000000
 30
0.000000000
 10
46.962273259
 20
165.000000000
 30
0.000000000
 10
47.000000000
 20
165.000000000
 30
0.000000000
  0
SPLINE
  5
A5A
330
A02
100
AcDbEntity
  8
ProjItem002
100
AcDbSpline
210
0
220
0
230
1
 70
8
 71
1
 72
17
 73
15
 74
0
 40
1.570796327
 40
1.570796327
 40
1.795195802
 40
2.019595277
 40
2.243994753
 40
2.468394228
 40
2.692793703
 40
2.917193178
 40
3.141592654
 40
3.365992129
 40
3.590391604
 40
3.814791079
 40
4.039190555
 40
4.263590030
 40
4.487989505
 40
4.712388980
 40
4.712388980
 10
47.000000000
 20
165.000000000
 30
0.000000000
 10
46.849567473
 20
165.000000000
 30
0.000000000
 10
46.405813207
 20
165.000000000
 30
0.000000000
 10
45.690988895
 20
165.000000000
 30
0.000000000
 10
44.740938811
 20
165.000000000
 30
0.000000000
 10
43.603302435
 20
165.000000000
 30
0.000000000
 10
42.335125604
 20
165.000000000
 30
0.000000000
 10
41.000000000
 20
165.000000000
 30
0.000000000
 10
39.664874396
 20
165.000000000
 30
0.000000000
 10
38.396697565
 20
165.000000000
 30
0.000000000
 10
37.259061189
 20
165.000000000
 30
0.000000000
 10
36.309011105
 20
165.000000000
 30
0.000000000
 10
35.594186793
 20
165.000000000
 30
0.000000000
 10
35.150432527
 20
165.000000000
 30
0.000000000
 10
35.000000000
 20
165.000000000
 30
0.000000000
  0
SPLINE
  5
A5B
330
A02
100
AcDbEntity
  8
ProjItem002
100
AcDbSpline
210
0
220
0
230
1
 70
8
 71
1
 72
17
 73
15
 74
0
 40
4.712388980
 40
4.712388980
 40
4.824588718
 40
4.936788456
 40
5.048988193
 40
5.161187931
 40
5.273387669
 40
5.385587406
 40
5.497787144
 40
5.609986881
 40
5.722186619
 40
5.834386357
 40
5.946586094
 40
6.058785832
 40
6.170985570
 40
6.283185307
 40
6.283185307
 10
35.000000000
 20
165.000000000
 30
0.000000000
 10
35.037726741
 20
165.000000000
 30
0.000000000
 10
35.150432527
 20
165.000000000
 30
0.000000000
 10
35.336700018
 20
165.000000000
 30
0.000000000
 10
35.594186793
 20
165.000000000
 30
0.000000000
 10
35.919654805
 20
165.000000000
 30
0.000000000
 10
36.309011105
 20
165.000000000
 30
0.000000000
 10
36.757359313
 20
165.000000000
 30
0.000000000
 10
37.259061189
 20
165.000000000
 30
0.000000000
 10
37.807807541
 20
165.000000000
 30
0.000000000
 10
38.396697565
 20
165.000000000
 30
0.000000000
 10
39.018325628
 20
165.000000000
 30
0.000000000
 10
39.664874396
 20
165.000000000
 30
0.000000000
 10
40.328213143
 20
165.000000000
 30
0.000000000
 10
41.000000000
 20
165.000000000
 30
0.000000000
  0
SPLINE
  5
A5C
330
A02
100
AcDbEntity
  8
ProjItem002
100
AcDbSpline
210
0
220
0
230
1
 70
8
 71
1
 72
17
 73
15
 74
0
 40
0.000000000
 40
0.000000000
 40
0.112199738
 40
0.224399475
 40
0.336599213
 40
0.448798951
 40
0.560998688
 40
0.673198426
 40
0.785398163
 40
0.897597901
 40
1.009797639
 40
1.121997376
 40
1.234197114
 40
1.346396852
 40
1.458596589
 40
1.570796327
 40
1.570796327
 10
81.000000000
 20
165.000000000
 30
0.000000000
 10
81.671786857
 20
165.000000000
 30
0.000000000
 10
82.335125604
 20
165.000000000
 30
0.000000000
 10
82.981674372
 20
165.000000000
 30
0.000000000
 10
83.603302435
 20
165.000000000
 30
0.000000000
 10
84.192192459
 20
165.000000000
 30
0.000000000
 10
84.740938811
 20
165.000000000
 30
0.000000000
 10
85.242640687
 20
165.000000000
 30
0.000000000
 10
85.690988895
 20
165.000000000
 30
0.000000000
 10
86.080345195
 20
165.000000000
 30
0.000000000
 10
86.405813207
 20
165.000000000
 30
0.000000000
 10
86.663299982
 20
165.000000000
 30
0.000000000
 10
86.849567473
 20
165.000000000
 30
0.000000000
 10
86.962273259
 20
165.000000000
 30
0.000000000
 10
87.000000000
 20
165.000000000
 30
0.000000000
  0
SPLINE
  5
A5D
330
A02
100
AcDbEntity
  8
ProjItem002
100
AcDbSpline
210
0
220
0
230
1
 70
8
 71
1
 72
17
 73
15
 74
0
 40
1.570796327
 40
1.570796327
 40
1.795195802
 40
2.019595277
 40
2.243994753
 40
2.468394228
 40
2.692793703
 40
2.917193178
 40
3.141592654
 40
3.365992129
 40
3.590391604
 40
3.814791079
 40
4.039190555
 40
4.263590030
 40
4.487989505
 40
4.712388980
 40
4.712388980
 10
87.000000000
 20
165.000000000
 30
0.000000000
 10
86.849567473
 20
165.000000000
 30
0.000000000
 10
86.405813207
 20
165.000000000
 30
0.000000000
 10
85.690988895
 20
165.000000000
 30
0.000000000
 10
84.740938811
 20
165.000000000
 30
0.000000000
 10
83.603302435
 20
165.000000000
 30
0.000000000
 10
82.335125604
 20
165.000000000
 30
0.000000000
 10
81.000000000
 20
165.000000000
 30
0.000000000
 10
79.664874396
 20
165.000000000
 30
0.000000000
 10
78.396697565
 20
165.000000000
 30
0.000000000
 10
77.259061189
 20
165.000000000
 30
0.000000000
 10
76.309011105
 20
165.000000000
 30
0.000000000
 10
75.594186793
 20
165.000000000
 30
0.000000000
 10
75.150432527
 20
165.000000000
 30
0.000000000
 10
75.000000000
 20
165.000000000
 30
0.000000000
  0
SPLINE
  5
A5E
330
A02
100
AcDbEntity
  8
ProjItem002
100
AcDbSpline
210
0
220
0
230
1
 70
8
 71
1
 72
17
 73
15
 74
0
 40
4.712388980
 40
4.712388980
 40
4.824588718
 40
4.936788456
 40
5.048988193
 40
5.161187931
 40
5.273387669
 40
5.385587406
 40
5.497787144
 40
5.609986881
 40
5.722186619
 40
5.834386357
 40
5.946586094
 40
6.058785832
 40
6.170985570
 40
6.283185307
 40
6.283185307
 10
75.000000000
 20
165.000000000
 30
0.000000000
 10
75.037726741
 20
165.000000000
 30
0.000000000
 10
75.150432527
 20
165.000000000
 30
0.000000000
 10
75.336700018
 20
165.000000000
 30
0.000000000
 10
75.594186793
 20
165.000000000
 30
0.000000000
 10
75.919654805
 20
165.000000000
 30
0.000000000
 10
76.309011105
 20
165.000000000
 30
0.000000000
 10
76.757359313
 20
165.000000000
 30
0.000000000
 10
77.259061189
 20
165.000000000
 30
0.000000000
 10
77.807807541
 20
165.000000000
 30
0.000000000
 10
78.396697565
 20
165.000000000
 30
0.000000000
 10
79.018325628
 20
165.000000000
 30
0.000000000
 10
79.664874396
 20
165.000000000
 30
0.000000000
 10
80.328213143
 20
165.000000000
 30
0.000000000
 10
81.000000000
 20
165.000000000
 30
0.000000000
  0
SPLINE
  5
A5F
330
A02
100
AcDbEntity
  8
ProjItem002
100
AcDbSpline
210
0
220
0
230
1
 70
8
 71
1
 72
17
 73
15
 74
0
 40
0.000000000
 40
0.000000000
 40
0.112199738
 40
0.224399475
 40
0.336599213
 40
0.448798951
 40
0.560998688
 40
0.673198426
 40
0.785398163
 40
0.897597901
 40
1.009797639
 40
1.121997376
 40
1.234197114
 40
1.346396852
 40
1.458596589
 40
1.570796327
 40
1.570796327
 10
81.000000000
 20
165.000000000
 30
0.000000000
 10
81.671786857
 20
165.000000000
 30
0.000000000
 10
82.335125604
 20
165.000000000
 30
0.000000000
 10
82.981674372
 20
165.000000000
 30
0.000000000
 10
83.603302435
 20
165.000000000
 30
0.000000000
 10
84.192192459
 20
165.000000000
 30
0.000000000
 10
84.740938811
 20
165.000000000
 30
0.000000000
 10
85.242640687
 20
165.000000000
 30
0.000000000
 10
85.690988895
 20
165.000000000
 30
0.000000000
 10
86.080345195
 20
165.000000000
 30
0.000000000
 10
86.405813207
 20
165.000000000
 30
0.000000000
 10
86.663299982
 20
165.000000000
 30
0.000000000
 10
86.849567473
 20
165.000000000
 30
0.000000000
 10
86.962273259
 20
165.000000000
 30
0.000000000
 10
87.000000000
 20
165.000000000
 30
0.000000000
  0
SPLINE
  5
A60
330
A02
100
AcDbEntity
  8
ProjItem002
100
AcDbSpline
210
0
220
0
230
1
 70
8
 71
1
 72
17
 73
15
 74
0
 40
1.570796327
 40
1.570796327
 40
1.795195802
 40
2.019595277
 40
2.243994753
 40
2.468394228
 40
2.692793703
 40
2.917193178
 40
3.141592654
 40
3.365992129
 40
3.590391604
 40
3.814791079
 40
4.039190555
 40
4.263590030
 40
4.487989505
 40
4.712388980
 40
4.712388980
 10
87.000000000
 20
165.000000000
 30
0.000000000
 10
86.849567473
 20
165.000000000
 30
0.000000000
 10
86.405813207
 20
165.000000000
 30
0.000000000
 10
85.690988895
 20
165.000000000
 30
0.000000000
 10
84.740938811
 20
165.000000000
 30
0.000000000
 10
83.603302435
 20
165.000000000
 30
0.000000000
 10
82.335125604
 20
165.000000000
 30
0.000000000
 10
81.000000000
 20
165.000000000
 30
0.000000000
 10
79.664874396
 20
165.000000000
 30
0.000000000
 10
78.396697565
 20
165.000000000
 30
0.000000000
 10
77.259061189
 20
165.000000000
 30
0.000000000
 10
76.309011105
 20
165.000000000
 30
0.000000000
 10
75.594186793
 20
165.000000000
 30
0.000000000
 10
75.150432527
 20
165.000000000
 30
0.000000000
 10
75.000000000
 20
165.000000000
 30
0.000000000
  0
SPLINE
  5
A61
330
A02
100
AcDbEntity
  8
ProjItem002
100
AcDbSpline
210
0
220
0
230
1
 70
8
 71
1
 72
17
 73
15
 74
0
 40
4.712388980
 40
4.712388980
 40
4.824588718
 40
4.936788456
 40
5.048988193
 40
5.161187931
 40
5.273387669
 40
5.385587406
 40
5.497787144
 40
5.609986881
 40
5.722186619
 40
5.834386357
 40
5.946586094
 40
6.058785832
 40
6.170985570
 40
6.283185307
 40
6.283185307
 10
75.000000000
 20
165.000000000
 30
0.000000000
 10
75.037726741
 20
165.000000000
 30
0.000000000
 10
75.150432527
 20
165.000000000
 30
0.000000000
 10
75.336700018
 20
165.000000000
 30
0.000000000
 10
75.594186793
 20
165.000000000
 30
0.000000000
 10
75.919654805
 20
165.000000000
 30
0.000000000
 10
76.309011105
 20
165.000000000
 30
0.000000000
 10
76.757359313
 20
165.000000000
 30
0.000000000
 10
77.259061189
 20
165.000000000
 30
0.000000000
 10
77.807807541
 20
165.000000000
 30
0.000000000
 10
78.396697565
 20
165.000000000
 30
0.000000000
 10
79.018325628
 20
165.000000000
 30
0.000000000
 10
79.664874396
 20
165.000000000
 30
0.000000000
 10
80.328213143
 20
165.000000000
 30
0.000000000
 10
81.000000000
 20
165.000000000
 30
0.000000000
  0
LINE
  5
A62
330
A02
100
AcDbEntity
  8
ProjItem002
100
AcDbLine
 10
47.000000000
 20
165.000000000
 30
0.000000000
 11
47.000000000
 21
175.000000000
 31
0.000000000
  0
LINE
  5
A63
330
A02
100
AcDbEntity
  8
ProjItem002
100
AcDbLine
 10
35.000000000
 20
165.000000000
 30
0.000000000
 11
35.000000000
 21
175.000000000
 31
0.000000000
  0
LINE
  5
A64
330
A02
100
AcDbEntity
  8
ProjItem002
100
AcDbLine
 10
47.000000000
 20
165.000000000
 30
0.000000000
 11
47.000000000
 21
175.000000000
 31
0.000000000
  0
LINE
  5
A65
330
A02
100
AcDbEntity
  8
ProjItem002
100
AcDbLine
 10
35.000000000
 20
165.000000000
 30
0.000000000
 11
35.000000000
 21
175.000000000
 31
0.000000000
  0
LINE
  5
A66
330
A02
100
AcDbEntity
  8
ProjItem002
100
AcDbLine
 10
87.000000000
 20
165.000000000
 30
0.000000000
 11
87.000000000
 21
175.000000000
 31
0.000000000
  0
LINE
  5
A67
330
A02
100
AcDbEntity
  8
ProjItem002
100
AcDbLine
 10
75.000000000
 20
165.000000000
 30
0.000000000
 11
75.000000000
 21
175.000000000
 31
0.000000000
  0
LINE
  5
A68
330
A02
100
AcDbEntity
  8
ProjItem002
100
AcDbLine
 10
87.000000000
 20
165.000000000
 30
0.000000000
 11
87.000000000
 21
175.000000000
 31
0.000000000
  0
LINE
  5
A69
330
A02
100
AcDbEntity
  8
ProjItem002
100
AcDbLine
 10
75.000000000
 20
165.000000000
 30
0.000000000
 11
75.000000000
 21
175.000000000
 31
0.000000000
  0
LINE
  5
A6A
330
A02
100
AcDbEntity
  8
ProjItem002
100
AcDbLine
 10
41.000000000
 20
165.000000000
 30
0.000000000
 11
41.000000000
 21
175.000000000
 31
0.000000000
  0
LINE
  5
A6B
330
A02
100
AcDbEntity
  8
ProjItem002
100
AcDbLine
 10
81.000000000
 20
165.000000000
 30
0.000000000
 11
81.000000000
 21
175.000000000
 31
0.000000000
  0
DIMENSION
  5
A6C
330
A02
100
AcDbEntity
  8
DimDia4
100
AcDbDimension
  2
*DimDia4
 10
144.400998537
 20
89.613276640
 30
0.000000000
 11
157.000000000
 21
101.000000000
 31
0.000000000
 70
3
  1
⌀12
  3
STANDARD
100
AcDbDiametricDimension
 15
133.599001463
 25
84.386723360
 35
0.000000000
 40
0
  0
DIMENSION
  5
A74
330
A02
100
AcDbEntity
  8
DimWidth
100
AcDbDimension
  2
*DimWidth
 10
179.000000000
 20
182.000000000
 30
0.000000000
 11
179.000000000
 21
187.000000000
 31
0.000000000
 70
32
  1
120
  3
STANDARD
100
AcDbAlignedDimension
 13
119.000000000
 23
165.000000000
 33
0.000000000
 14
239.000000000
 24
165.000000000
 34
0.000000000
100
AcDbRotatedDimension
  0
DIMENSION
  5
A7E
330
A02
100
AcDbEntity
  8
DimHeight
100
AcDbDimension
  2
*DimHeight
 10
246.000000000
 20
170.000000000
 30
0.000000000
 11
251.000000000
 21
170.000000000
 31
0.000000000
 70
32
  1
10
  3
STANDARD
100
AcDbAlignedDimension
 13
119.000000000
 23
165.000000000
 33
0.000000000
 14
119.000000000
 24
175.000000000
 34
0.000000000
 50
90
100
AcDbRotatedDimension
  0
ENDSEC
  0
SECTION
  2
OBJECTS
  0
DICTIONARY
  5
F000
330
0
100
AcDbDictionary
  3
ACAD_GROUP
350
F001
  0
DICTIONARY
  5
F001
330
F000
100
AcDbDictionary
  0
ENDSEC
  0
EOF