ISO-10303-21;
HEADER;
FILE_DESCRIPTION(('ViewDefinition[DesignTransferView]'),'2;1');
FILE_NAME('/dev/null','2026-04-21T15:47:52+00:00',(''),(''),'IfcOpenShell 0.8.5','IfcOpenShell 0.8.5','Nobody');
FILE_SCHEMA(('IFC4'));
ENDSEC;
DATA;
#1=IFCPROJECT('2_0payUr59z94_FLmj3roR',$,'v14_answer',$,$,$,$,(#10),#5);
#2=IFCSIUNIT(*,.LENGTHUNIT.,.MILLI.,.METRE.);
#3=IFCSIUNIT(*,.AREAUNIT.,$,.SQUARE_METRE.);
#4=IFCSIUNIT(*,.VOLUMEUNIT.,$,.CUBIC_METRE.);
#5=IFCUNITASSIGNMENT((#3,#4,#2));
#6=IFCCARTESIANPOINT((0.,0.,0.));
#7=IFCDIRECTION((0.,0.,1.));
#8=IFCDIRECTION((1.,0.,0.));
#9=IFCAXIS2PLACEMENT3D(#6,#7,#8);
#10=IFCGEOMETRICREPRESENTATIONCONTEXT($,'Model',3,1.0000000000000001E-05,#9,$);
#11=IFCGEOMETRICREPRESENTATIONSUBCONTEXT('Body','Model',*,*,*,*,#10,$,.MODEL_VIEW.,$);
#12=IFCSITE('1dyMnxpdHBChzCL6z73hyr',$,'Site',$,$,$,$,$,$,$,$,$,$,$);
#13=IFCBUILDING('0qKCU5sNX9lvUi2iCC7O36',$,'v14_answer',$,$,$,$,$,$,$,$,$);
#14=IFCRELAGGREGATES('13Q1NFwiz7lPXJS_sWKV84',$,$,$,#1,(#12));
#15=IFCRELAGGREGATES('3ESnIKN1b2dhpUkOF$AX00',$,$,$,#12,(#13));
#16=IFCBUILDINGSTOREY('3i$OENJVzDo8kBlqmi0lgU',$,'Level 1',$,$,#27,$,$,$,$);
#22=IFCRELAGGREGATES('3NvM3$Fvf0veShgaqsPPUz',$,$,$,#13,(#16,#28));
#23=IFCCARTESIANPOINT((0.,0.,0.));
#24=IFCDIRECTION((0.,0.,1.));
#25=IFCDIRECTION((1.,0.,0.));
#26=IFCAXIS2PLACEMENT3D(#23,#24,#25);
#27=IFCLOCALPLACEMENT($,#26);
#28=IFCBUILDINGSTOREY('1k3a_0x699Vfyb$B28caR3',$,'Level 2',$,$,#38,$,$,$,$);
#34=IFCCARTESIANPOINT((0.,0.,3400.));
#35=IFCDIRECTION((0.,0.,1.));
#36=IFCDIRECTION((1.,0.,0.));
#37=IFCAXIS2PLACEMENT3D(#34,#35,#36);
#38=IFCLOCALPLACEMENT($,#37);
#39=IFCSLAB('24kMfqfYn6p9ybg0I$66n5',$,'Floor 0',$,$,#57,#46,$,.FLOOR.);
#40=IFCCARTESIANPOINTLIST2D(((0.,0.),(24000.,0.),(24000.,10000.),(0.,10000.),(0.,0.)));
#41=IFCINDEXEDPOLYCURVE(#40,$,$);
#42=IFCDIRECTION((0.,0.,1.));
#43=IFCARBITRARYCLOSEDPROFILEDEF(.AREA.,$,#41);
#44=IFCEXTRUDEDAREASOLID(#43,$,#42,250.);
#45=IFCSHAPEREPRESENTATION(#11,'Body','SweptSolid',(#44));
#46=IFCPRODUCTDEFINITIONSHAPE($,$,(#45));
#52=IFCRELCONTAINEDINSPATIALSTRUCTURE('0GEyLFyezFSx178dfFoNVy',$,$,$,(#253,#39,#271,#58,#102,#124,#80),#16);
#53=IFCCARTESIANPOINT((0.,0.,0.));
#54=IFCDIRECTION((0.,0.,1.));
#55=IFCDIRECTION((1.,0.,0.));
#56=IFCAXIS2PLACEMENT3D(#53,#54,#55);
#57=IFCLOCALPLACEMENT(#27,#56);
#58=IFCWALL('1O75bn_On0aOeSJJEDB1NV',$,'Perim0-1',$,$,#79,#69,$,$);
#59=IFCCARTESIANPOINTLIST2D(((0.,0.),(0.,200.),(24000.,200.),(24000.,0.),(0.,0.)));
#60=IFCINDEXEDPOLYCURVE(#59,$,.F.);
#61=IFCDIRECTION((0.,0.,1.));
#62=IFCARBITRARYCLOSEDPROFILEDEF(.AREA.,$,#60);
#63=IFCCARTESIANPOINT((0.,0.,0.));
#64=IFCDIRECTION((0.,0.,1.));
#65=IFCDIRECTION((1.,0.,0.));
#66=IFCAXIS2PLACEMENT3D(#63,#64,#65);
#67=IFCEXTRUDEDAREASOLID(#62,#66,#61,3200.);
#68=IFCSHAPEREPRESENTATION(#11,'Body','SweptSolid',(#67));
#69=IFCPRODUCTDEFINITIONSHAPE($,$,(#68));
#75=IFCCARTESIANPOINT((0.,0.,0.));
#76=IFCDIRECTION((0.,0.,1.));
#77=IFCDIRECTION((1.,0.,0.));
#78=IFCAXIS2PLACEMENT3D(#75,#76,#77);
#79=IFCLOCALPLACEMENT(#27,#78);
#80=IFCWALL('1HDlxEySj9CecT74YehQnB',$,'Perim0-2',$,$,#101,#91,$,$);
#81=IFCCARTESIANPOINTLIST2D(((0.,0.),(0.,200.),(10000.,200.),(10000.,0.),(0.,0.)));
#82=IFCINDEXEDPOLYCURVE(#81,$,.F.);
#83=IFCDIRECTION((0.,0.,1.));
#84=IFCARBITRARYCLOSEDPROFILEDEF(.AREA.,$,#82);
#85=IFCCARTESIANPOINT((0.,0.,0.));
#86=IFCDIRECTION((0.,0.,1.));
#87=IFCDIRECTION((1.,0.,0.));
#88=IFCAXIS2PLACEMENT3D(#85,#86,#87);
#89=IFCEXTRUDEDAREASOLID(#84,#88,#83,3200.);
#90=IFCSHAPEREPRESENTATION(#11,'Body','SweptSolid',(#89));
#91=IFCPRODUCTDEFINITIONSHAPE($,$,(#90));
#97=IFCCARTESIANPOINT((24000.,0.,0.));
#98=IFCDIRECTION((0.,0.,1.));
#99=IFCDIRECTION((6.123233995736766E-17,1.,0.));
#100=IFCAXIS2PLACEMENT3D(#97,#98,#99);
#101=IFCLOCALPLACEMENT(#27,#100);
#102=IFCWALL('1DuxDdF6nDqg9oMlez_ItU',$,'Perim0-3',$,$,#123,#113,$,$);
#103=IFCCARTESIANPOINTLIST2D(((0.,0.),(0.,200.),(24000.,200.),(24000.,0.),(0.,0.)));
#104=IFCINDEXEDPOLYCURVE(#103,$,.F.);
#105=IFCDIRECTION((0.,0.,1.));
#106=IFCARBITRARYCLOSEDPROFILEDEF(.AREA.,$,#104);
#107=IFCCARTESIANPOINT((0.,0.,0.));
#108=IFCDIRECTION((0.,0.,1.));
#109=IFCDIRECTION((1.,0.,0.));
#110=IFCAXIS2PLACEMENT3D(#107,#108,#109);
#111=IFCEXTRUDEDAREASOLID(#106,#110,#105,3200.);
#112=IFCSHAPEREPRESENTATION(#11,'Body','SweptSolid',(#111));
#113=IFCPRODUCTDEFINITIONSHAPE($,$,(#112));
#119=IFCCARTESIANPOINT((24000.,10000.,0.));
#120=IFCDIRECTION((0.,0.,1.));
#121=IFCDIRECTION((-1.,1.2246467991473532E-16,0.));
#122=IFCAXIS2PLACEMENT3D(#119,#120,#121);
#123=IFCLOCALPLACEMENT(#27,#122);
#124=IFCWALL('0FSbJoo61B_udzDh6W3$dk',$,'Perim0-4',$,$,#145,#135,$,$);
#125=IFCCARTESIANPOINTLIST2D(((0.,0.),(0.,200.),(10000.,200.),(10000.,0.),(0.,0.)));
#126=IFCINDEXEDPOLYCURVE(#125,$,.F.);
#127=IFCDIRECTION((0.,0.,1.));
#128=IFCARBITRARYCLOSEDPROFILEDEF(.AREA.,$,#126);
#129=IFCCARTESIANPOINT((0.,0.,0.));
#130=IFCDIRECTION((0.,0.,1.));
#131=IFCDIRECTION((1.,0.,0.));
#132=IFCAXIS2PLACEMENT3D(#129,#130,#131);
#133=IFCEXTRUDEDAREASOLID(#128,#132,#127,3200.);
#134=IFCSHAPEREPRESENTATION(#11,'Body','SweptSolid',(#133));
#135=IFCPRODUCTDEFINITIONSHAPE($,$,(#134));
#141=IFCCARTESIANPOINT((0.,10000.,0.));
#142=IFCDIRECTION((0.,0.,1.));
#143=IFCDIRECTION((6.123233995736766E-17,-1.,0.));
#144=IFCAXIS2PLACEMENT3D(#141,#142,#143);
#145=IFCLOCALPLACEMENT(#27,#144);
#146=IFCSLAB('3IsjLT8tb2SA5i_iskarcO',$,'Floor 3.4',$,$,#164,#153,$,.FLOOR.);
#147=IFCCARTESIANPOINTLIST2D(((0.,0.),(24000.,0.),(24000.,10000.),(0.,10000.),(0.,0.)));
#148=IFCINDEXEDPOLYCURVE(#147,$,$);
#149=IFCDIRECTION((0.,0.,1.));
#150=IFCARBITRARYCLOSEDPROFILEDEF(.AREA.,$,#148);
#151=IFCEXTRUDEDAREASOLID(#150,$,#149,250.);
#152=IFCSHAPEREPRESENTATION(#11,'Body','SweptSolid',(#151));
#153=IFCPRODUCTDEFINITIONSHAPE($,$,(#152));
#159=IFCRELCONTAINEDINSPATIALSTRUCTURE('2JDHJ7$I1DFw3BS3Xllxyk',$,$,$,(#231,#165,#187,#209,#146),#28);
#160=IFCCARTESIANPOINT((0.,0.,0.));
#161=IFCDIRECTION((0.,0.,1.));
#162=IFCDIRECTION((1.,0.,0.));
#163=IFCAXIS2PLACEMENT3D(#160,#161,#162);
#164=IFCLOCALPLACEMENT(#38,#163);
#165=IFCWALL('1b3ymNDgr508v091TRC3O4',$,'Perim3.4-1',$,$,#186,#176,$,$);
#166=IFCCARTESIANPOINTLIST2D(((0.,0.),(0.,200.),(24000.,200.),(24000.,0.),(0.,0.)));
#167=IFCINDEXEDPOLYCURVE(#166,$,.F.);
#168=IFCDIRECTION((0.,0.,1.));
#169=IFCARBITRARYCLOSEDPROFILEDEF(.AREA.,$,#167);
#170=IFCCARTESIANPOINT((0.,0.,0.));
#171=IFCDIRECTION((0.,0.,1.));
#172=IFCDIRECTION((1.,0.,0.));
#173=IFCAXIS2PLACEMENT3D(#170,#171,#172);
#174=IFCEXTRUDEDAREASOLID(#169,#173,#168,3200.);
#175=IFCSHAPEREPRESENTATION(#11,'Body','SweptSolid',(#174));
#176=IFCPRODUCTDEFINITIONSHAPE($,$,(#175));
#182=IFCCARTESIANPOINT((0.,0.,0.));
#183=IFCDIRECTION((0.,0.,1.));
#184=IFCDIRECTION((1.,0.,0.));
#185=IFCAXIS2PLACEMENT3D(#182,#183,#184);
#186=IFCLOCALPLACEMENT(#38,#185);
#187=IFCWALL('3J0Pj0kPn6ou2k9FBX3B8Z',$,'Perim3.4-2',$,$,#208,#198,$,$);
#188=IFCCARTESIANPOINTLIST2D(((0.,0.),(0.,200.),(10000.,200.),(10000.,0.),(0.,0.)));
#189=IFCINDEXEDPOLYCURVE(#188,$,.F.);
#190=IFCDIRECTION((0.,0.,1.));
#191=IFCARBITRARYCLOSEDPROFILEDEF(.AREA.,$,#189);
#192=IFCCARTESIANPOINT((0.,0.,0.));
#193=IFCDIRECTION((0.,0.,1.));
#194=IFCDIRECTION((1.,0.,0.));
#195=IFCAXIS2PLACEMENT3D(#192,#193,#194);
#196=IFCEXTRUDEDAREASOLID(#191,#195,#190,3200.);
#197=IFCSHAPEREPRESENTATION(#11,'Body','SweptSolid',(#196));
#198=IFCPRODUCTDEFINITIONSHAPE($,$,(#197));
#204=IFCCARTESIANPOINT((24000.,0.,0.));
#205=IFCDIRECTION((0.,0.,1.));
#206=IFCDIRECTION((6.123233995736766E-17,1.,0.));
#207=IFCAXIS2PLACEMENT3D(#204,#205,#206);
#208=IFCLOCALPLACEMENT(#38,#207);
#209=IFCWALL('029TBK0qv62AROOf41KN2I',$,'Perim3.4-3',$,$,#230,#220,$,$);
#210=IFCCARTESIANPOINTLIST2D(((0.,0.),(0.,200.),(24000.,200.),(24000.,0.),(0.,0.)));
#211=IFCINDEXEDPOLYCURVE(#210,$,.F.);
#212=IFCDIRECTION((0.,0.,1.));
#213=IFCARBITRARYCLOSEDPROFILEDEF(.AREA.,$,#211);
#214=IFCCARTESIANPOINT((0.,0.,0.));
#215=IFCDIRECTION((0.,0.,1.));
#216=IFCDIRECTION((1.,0.,0.));
#217=IFCAXIS2PLACEMENT3D(#214,#215,#216);
#218=IFCEXTRUDEDAREASOLID(#213,#217,#212,3200.);
#219=IFCSHAPEREPRESENTATION(#11,'Body','SweptSolid',(#218));
#220=IFCPRODUCTDEFINITIONSHAPE($,$,(#219));
#226=IFCCARTESIANPOINT((24000.,10000.,0.));
#227=IFCDIRECTION((0.,0.,1.));
#228=IFCDIRECTION((-1.,1.2246467991473532E-16,0.));
#229=IFCAXIS2PLACEMENT3D(#226,#227,#228);
#230=IFCLOCALPLACEMENT(#38,#229);
#231=IFCWALL('3NJYD7nGXCEwwYZvuchYo3',$,'Perim3.4-4',$,$,#252,#242,$,$);
#232=IFCCARTESIANPOINTLIST2D(((0.,0.),(0.,200.),(10000.,200.),(10000.,0.),(0.,0.)));
#233=IFCINDEXEDPOLYCURVE(#232,$,.F.);
#234=IFCDIRECTION((0.,0.,1.));
#235=IFCARBITRARYCLOSEDPROFILEDEF(.AREA.,$,#233);
#236=IFCCARTESIANPOINT((0.,0.,0.));
#237=IFCDIRECTION((0.,0.,1.));
#238=IFCDIRECTION((1.,0.,0.));
#239=IFCAXIS2PLACEMENT3D(#236,#237,#238);
#240=IFCEXTRUDEDAREASOLID(#235,#239,#234,3200.);
#241=IFCSHAPEREPRESENTATION(#11,'Body','SweptSolid',(#240));
#242=IFCPRODUCTDEFINITIONSHAPE($,$,(#241));
#248=IFCCARTESIANPOINT((0.,10000.,0.));
#249=IFCDIRECTION((0.,0.,1.));
#250=IFCDIRECTION((6.123233995736766E-17,-1.,0.));
#251=IFCAXIS2PLACEMENT3D(#248,#249,#250);
#252=IFCLOCALPLACEMENT(#38,#251);
#253=IFCSTAIR('2b19tAg1z7HffsWJTw2eYi',$,'West Stair',$,$,#270,#260,$,$);
#254=IFCCARTESIANPOINTLIST2D(((0.,0.),(3000.,0.),(3000.,4000.),(0.,4000.),(0.,0.)));
#255=IFCINDEXEDPOLYCURVE(#254,$,$);
#256=IFCDIRECTION((0.,0.,1.));
#257=IFCARBITRARYCLOSEDPROFILEDEF(.AREA.,$,#255);
#258=IFCEXTRUDEDAREASOLID(#257,$,#256,6500.);
#259=IFCSHAPEREPRESENTATION(#11,'Body','SweptSolid',(#258));
#260=IFCPRODUCTDEFINITIONSHAPE($,$,(#259));
#266=IFCCARTESIANPOINT((1000.,2500.,0.));
#267=IFCDIRECTION((0.,0.,1.));
#268=IFCDIRECTION((1.,0.,0.));
#269=IFCAXIS2PLACEMENT3D(#266,#267,#268);
#270=IFCLOCALPLACEMENT(#27,#269);
#271=IFCSTAIR('2l9ZbsHSf81OYwNp9b7_Ry',$,'East Stair',$,$,#288,#278,$,$);
#272=IFCCARTESIANPOINTLIST2D(((0.,0.),(3000.,0.),(3000.,4000.),(0.,4000.),(0.,0.)));
#273=IFCINDEXEDPOLYCURVE(#272,$,$);
#274=IFCDIRECTION((0.,0.,1.));
#275=IFCARBITRARYCLOSEDPROFILEDEF(.AREA.,$,#273);
#276=IFCEXTRUDEDAREASOLID(#275,$,#274,6500.);
#277=IFCSHAPEREPRESENTATION(#11,'Body','SweptSolid',(#276));
#278=IFCPRODUCTDEFINITIONSHAPE($,$,(#277));
#284=IFCCARTESIANPOINT((20000.,2500.,0.));
#285=IFCDIRECTION((0.,0.,1.));
#286=IFCDIRECTION((1.,0.,0.));
#287=IFCAXIS2PLACEMENT3D(#284,#285,#286);
#288=IFCLOCALPLACEMENT(#27,#287);
#289=IFCSPACE('1Psd7SnV1BUfJu6dwCaUWE',$,'Classroom 1',$,$,#307,#296,$,$,$,$);
#290=IFCCARTESIANPOINTLIST2D(((4500.,500.),(11000.,500.),(11000.,4500.),(4500.,4500.),(4500.,500.)));
#291=IFCINDEXEDPOLYCURVE(#290,$,$);
#292=IFCDIRECTION((0.,0.,1.));
#293=IFCARBITRARYCLOSEDPROFILEDEF(.AREA.,$,#291);
#294=IFCEXTRUDEDAREASOLID(#293,$,#292,3000.);
#295=IFCSHAPEREPRESENTATION(#11,'Body','SweptSolid',(#294));
#296=IFCPRODUCTDEFINITIONSHAPE($,$,(#295));
#302=IFCRELAGGREGATES('1EyDbIkBfDywmVuORBwBL2',$,$,$,#16,(#289,#308,#363));
#303=IFCCARTESIANPOINT((0.,0.,0.));
#304=IFCDIRECTION((0.,0.,1.));
#305=IFCDIRECTION((1.,0.,0.));
#306=IFCAXIS2PLACEMENT3D(#303,#304,#305);
#307=IFCLOCALPLACEMENT(#27,#306);
#308=IFCSPACE('14y1xT9OH4IAVtHs7qFcBa',$,'Classroom 2',$,$,#325,#315,$,$,$,$);
#309=IFCCARTESIANPOINTLIST2D(((13000.,500.),(19500.,500.),(19500.,4500.),(13000.,4500.),(13000.,500.)));
#310=IFCINDEXEDPOLYCURVE(#309,$,$);
#311=IFCDIRECTION((0.,0.,1.));
#312=IFCARBITRARYCLOSEDPROFILEDEF(.AREA.,$,#310);
#313=IFCEXTRUDEDAREASOLID(#312,$,#311,3000.);
#314=IFCSHAPEREPRESENTATION(#11,'Body','SweptSolid',(#313));
#315=IFCPRODUCTDEFINITIONSHAPE($,$,(#314));
#321=IFCCARTESIANPOINT((0.,0.,0.));
#322=IFCDIRECTION((0.,0.,1.));
#323=IFCDIRECTION((1.,0.,0.));
#324=IFCAXIS2PLACEMENT3D(#321,#322,#323);
#325=IFCLOCALPLACEMENT(#27,#324);
#326=IFCSPACE('3KJ0khkrLD3Q_cNycJL9uH',$,'Classroom 3',$,$,#344,#333,$,$,$,$);
#327=IFCCARTESIANPOINTLIST2D(((4500.,500.),(11000.,500.),(11000.,4500.),(4500.,4500.),(4500.,500.)));
#328=IFCINDEXEDPOLYCURVE(#327,$,$);
#329=IFCDIRECTION((0.,0.,1.));
#330=IFCARBITRARYCLOSEDPROFILEDEF(.AREA.,$,#328);
#331=IFCEXTRUDEDAREASOLID(#330,$,#329,3000.);
#332=IFCSHAPEREPRESENTATION(#11,'Body','SweptSolid',(#331));
#333=IFCPRODUCTDEFINITIONSHAPE($,$,(#332));
#339=IFCRELAGGREGATES('01SZhbJibCM9kCOKj4jOKl',$,$,$,#28,(#345,#326));
#340=IFCCARTESIANPOINT((0.,0.,0.));
#341=IFCDIRECTION((0.,0.,1.));
#342=IFCDIRECTION((1.,0.,0.));
#343=IFCAXIS2PLACEMENT3D(#340,#341,#342);
#344=IFCLOCALPLACEMENT(#38,#343);
#345=IFCSPACE('2jb_r9s0v6OP8wcRKsllUJ',$,'Classroom 4',$,$,#362,#352,$,$,$,$);
#346=IFCCARTESIANPOINTLIST2D(((13000.,500.),(19500.,500.),(19500.,4500.),(13000.,4500.),(13000.,500.)));
#347=IFCINDEXEDPOLYCURVE(#346,$,$);
#348=IFCDIRECTION((0.,0.,1.));
#349=IFCARBITRARYCLOSEDPROFILEDEF(.AREA.,$,#347);
#350=IFCEXTRUDEDAREASOLID(#349,$,#348,3000.);
#351=IFCSHAPEREPRESENTATION(#11,'Body','SweptSolid',(#350));
#352=IFCPRODUCTDEFINITIONSHAPE($,$,(#351));
#358=IFCCARTESIANPOINT((0.,0.,0.));
#359=IFCDIRECTION((0.,0.,1.));
#360=IFCDIRECTION((1.,0.,0.));
#361=IFCAXIS2PLACEMENT3D(#358,#359,#360);
#362=IFCLOCALPLACEMENT(#38,#361);
#363=IFCSPACE('12RjUJs_nBExK4pj1mUrO5',$,'Support Room',$,$,#380,#370,$,$,$,$);
#364=IFCCARTESIANPOINTLIST2D(((8000.,5000.),(16000.,5000.),(16000.,9500.),(8000.,9500.),(8000.,5000.)));
#365=IFCINDEXEDPOLYCURVE(#364,$,$);
#366=IFCDIRECTION((0.,0.,1.));
#367=IFCARBITRARYCLOSEDPROFILEDEF(.AREA.,$,#365);
#368=IFCEXTRUDEDAREASOLID(#367,$,#366,3000.);
#369=IFCSHAPEREPRESENTATION(#11,'Body','SweptSolid',(#368));
#370=IFCPRODUCTDEFINITIONSHAPE($,$,(#369));
#376=IFCCARTESIANPOINT((0.,0.,0.));
#377=IFCDIRECTION((0.,0.,1.));
#378=IFCDIRECTION((1.,0.,0.));
#379=IFCAXIS2PLACEMENT3D(#376,#377,#378);
#380=IFCLOCALPLACEMENT(#27,#379);
ENDSEC;
END-ISO-10303-21;
