# generated by make_answer.py
o Body
v 0.400000 0.000000 0.000000
v 0.386370 0.000000 0.103528
v 0.346410 0.000000 0.200000
v 0.282843 0.000000 0.282843
v 0.200000 0.000000 0.346410
v 0.103528 0.000000 0.386370
v 0.000000 0.000000 0.400000
v -0.103528 0.000000 0.386370
v -0.200000 0.000000 0.346410
v -0.282843 0.000000 0.282843
v -0.346410 0.000000 0.200000
v -0.386370 0.000000 0.103528
v -0.400000 0.000000 0.000000
v -0.386370 0.000000 -0.103528
v -0.346410 0.000000 -0.200000
v -0.282843 0.000000 -0.282843
v -0.200000 0.000000 -0.346410
v -0.103528 0.000000 -0.386370
v -0.000000 0.000000 -0.400000
v 0.103528 0.000000 -0.386370
v 0.200000 0.000000 -0.346410
v 0.282843 0.000000 -0.282843
v 0.346410 0.000000 -0.200000
v 0.386370 0.000000 -0.103528
v 0.400000 0.200000 0.000000
v 0.386370 0.200000 0.103528
v 0.346410 0.200000 0.200000
v 0.282843 0.200000 0.282843
v 0.200000 0.200000 0.346410
v 0.103528 0.200000 0.386370
v 0.000000 0.200000 0.400000
v -0.103528 0.200000 0.386370
v -0.200000 0.200000 0.346410
v -0.282843 0.200000 0.282843
v -0.346410 0.200000 0.200000
v -0.386370 0.200000 0.103528
v -0.400000 0.200000 0.000000
v -0.386370 0.200000 -0.103528
v -0.346410 0.200000 -0.200000
v -0.282843 0.200000 -0.282843
v -0.200000 0.200000 -0.346410
v -0.103528 0.200000 -0.386370
v -0.000000 0.200000 -0.400000
v 0.103528 0.200000 -0.386370
v 0.200000 0.200000 -0.346410
v 0.282843 0.200000 -0.282843
v 0.346410 0.200000 -0.200000
v 0.386370 0.200000 -0.103528
v 0.400000 0.400000 0.000000
v 0.386370 0.400000 0.103528
v 0.346410 0.400000 0.200000
v 0.282843 0.400000 0.282843
v 0.200000 0.400000 0.346410
v 0.103528 0.400000 0.386370
v 0.000000 0.400000 0.400000
v -0.103528 0.400000 0.386370
v -0.200000 0.400000 0.346410
v -0.282843 0.400000 0.282843
v -0.346410 0.400000 0.200000
v -0.386370 0.400000 0.103528
v -0.400000 0.400000 0.000000
v -0.386370 0.400000 -0.103528
v -0.346410 0.400000 -0.200000
v -0.282843 0.400000 -0.282843
v -0.200000 0.400000 -0.346410
v -0.103528 0.400000 -0.386370
v -0.000000 0.400000 -0.400000
v 0.103528 0.400000 -0.386370
v 0.200000 0.400000 -0.346410
v 0.282843 0.400000 -0.282843
v 0.346410 0.400000 -0.200000
v 0.386370 0.400000 -0.103528
v 0.400000 0.600000 0.000000
v 0.386370 0.600000 0.103528
v 0.346410 0.600000 0.200000
v 0.282843 0.600000 0.282843
v 0.200000 0.600000 0.346410
v 0.103528 0.600000 0.386370
v 0.000000 0.600000 0.400000
v -0.103528 0.600000 0.386370
v -0.200000 0.600000 0.346410
v -0.282843 0.600000 0.282843
v -0.346410 0.600000 0.200000
v -0.386370 0.600000 0.103528
v -0.400000 0.600000 0.000000
v -0.386370 0.600000 -0.103528
v -0.346410 0.600000 -0.200000
v -0.282843 0.600000 -0.282843
v -0.200000 0.600000 -0.346410
v -0.103528 0.600000 -0.386370
v -0.000000 0.600000 -0.400000
v 0.103528 0.600000 -0.386370
v 0.200000 0.600000 -0.346410
v 0.282843 0.600000 -0.282843
v 0.346410 0.600000 -0.200000
v 0.386370 0.600000 -0.103528
v 0.400000 0.800000 0.000000
v 0.386370 0.800000 0.103528
v 0.346410 0.800000 0.200000
v 0.282843 0.800000 0.282843
v 0.200000 0.800000 0.346410
v 0.103528 0.800000 0.386370
v 0.000000 0.800000 0.400000
v -0.103528 0.800000 0.386370
v -0.200000 0.800000 0.346410
v -0.282843 0.800000 0.282843
v -0.346410 0.800000 0.200000
v -0.386370 0.800000 0.103528
v -0.400000 0.800000 0.000000
v -0.386370 0.800000 -0.103528
v -0.346410 0.800000 -0.200000
v -0.282843 0.800000 -0.282843
v -0.200000 0.800000 -0.346410
v -0.103528 0.800000 -0.386370
v -0.000000 0.800000 -0.400000
v 0.103528 0.800000 -0.386370
v 0.200000 0.800000 -0.346410
v 0.282843 0.800000 -0.282843
v 0.346410 0.800000 -0.200000
v 0.386370 0.800000 -0.103528
v 0.400000 1.000000 0.000000
v 0.386370 1.000000 0.103528
v 0.346410 1.000000 0.200000
v 0.282843 1.000000 0.282843
v 0.200000 1.000000 0.346410
v 0.103528 1.000000 0.386370
v 0.000000 1.000000 0.400000
v -0.103528 1.000000 0.386370
v -0.200000 1.000000 0.346410
v -0.282843 1.000000 0.282843
v -0.346410 1.000000 0.200000
v -0.386370 1.000000 0.103528
v -0.400000 1.000000 0.000000
v -0.386370 1.000000 -0.103528
v -0.346410 1.000000 -0.200000
v -0.282843 1.000000 -0.282843
v -0.200000 1.000000 -0.346410
v -0.103528 1.000000 -0.386370
v -0.000000 1.000000 -0.400000
v 0.103528 1.000000 -0.386370
v 0.200000 1.000000 -0.346410
v 0.282843 1.000000 -0.282843
v 0.346410 1.000000 -0.200000
v 0.386370 1.000000 -0.103528
v 0.400000 1.200000 0.000000
v 0.386370 1.200000 0.103528
v 0.346410 1.200000 0.200000
v 0.282843 1.200000 0.282843
v 0.200000 1.200000 0.346410
v 0.103528 1.200000 0.386370
v 0.000000 1.200000 0.400000
v -0.103528 1.200000 0.386370
v -0.200000 1.200000 0.346410
v -0.282843 1.200000 0.282843
v -0.346410 1.200000 0.200000
v -0.386370 1.200000 0.103528
v -0.400000 1.200000 0.000000
v -0.386370 1.200000 -0.103528
v -0.346410 1.200000 -0.200000
v -0.282843 1.200000 -0.282843
v -0.200000 1.200000 -0.346410
v -0.103528 1.200000 -0.386370
v -0.000000 1.200000 -0.400000
v 0.103528 1.200000 -0.386370
v 0.200000 1.200000 -0.346410
v 0.282843 1.200000 -0.282843
v 0.346410 1.200000 -0.200000
v 0.386370 1.200000 -0.103528
v 0.400000 1.400000 0.000000
v 0.386370 1.400000 0.103528
v 0.346410 1.400000 0.200000
v 0.282843 1.400000 0.282843
v 0.200000 1.400000 0.346410
v 0.103528 1.400000 0.386370
v 0.000000 1.400000 0.400000
v -0.103528 1.400000 0.386370
v -0.200000 1.400000 0.346410
v -0.282843 1.400000 0.282843
v -0.346410 1.400000 0.200000
v -0.386370 1.400000 0.103528
v -0.400000 1.400000 0.000000
v -0.386370 1.400000 -0.103528
v -0.346410 1.400000 -0.200000
v -0.282843 1.400000 -0.282843
v -0.200000 1.400000 -0.346410
v -0.103528 1.400000 -0.386370
v -0.000000 1.400000 -0.400000
v 0.103528 1.400000 -0.386370
v 0.200000 1.400000 -0.346410
v 0.282843 1.400000 -0.282843
v 0.346410 1.400000 -0.200000
v 0.386370 1.400000 -0.103528
v 0.400000 1.600000 0.000000
v 0.386370 1.600000 0.103528
v 0.346410 1.600000 0.200000
v 0.282843 1.600000 0.282843
v 0.200000 1.600000 0.346410
v 0.103528 1.600000 0.386370
v 0.000000 1.600000 0.400000
v -0.103528 1.600000 0.386370
v -0.200000 1.600000 0.346410
v -0.282843 1.600000 0.282843
v -0.346410 1.600000 0.200000
v -0.386370 1.600000 0.103528
v -0.400000 1.600000 0.000000
v -0.386370 1.600000 -0.103528
v -0.346410 1.600000 -0.200000
v -0.282843 1.600000 -0.282843
v -0.200000 1.600000 -0.346410
v -0.103528 1.600000 -0.386370
v -0.000000 1.600000 -0.400000
v 0.103528 1.600000 -0.386370
v 0.200000 1.600000 -0.346410
v 0.282843 1.600000 -0.282843
v 0.346410 1.600000 -0.200000
v 0.386370 1.600000 -0.103528
v 0.400000 1.800000 0.000000
v 0.386370 1.800000 0.103528
v 0.346410 1.800000 0.200000
v 0.282843 1.800000 0.282843
v 0.200000 1.800000 0.346410
v 0.103528 1.800000 0.386370
v 0.000000 1.800000 0.400000
v -0.103528 1.800000 0.386370
v -0.200000 1.800000 0.346410
v -0.282843 1.800000 0.282843
v -0.346410 1.800000 0.200000
v -0.386370 1.800000 0.103528
v -0.400000 1.800000 0.000000
v -0.386370 1.800000 -0.103528
v -0.346410 1.800000 -0.200000
v -0.282843 1.800000 -0.282843
v -0.200000 1.800000 -0.346410
v -0.103528 1.800000 -0.386370
v -0.000000 1.800000 -0.400000
v 0.103528 1.800000 -0.386370
v 0.200000 1.800000 -0.346410
v 0.282843 1.800000 -0.282843
v 0.346410 1.800000 -0.200000
v 0.386370 1.800000 -0.103528
v 0.400000 2.000000 0.000000
v 0.386370 2.000000 0.103528
v 0.346410 2.000000 0.200000
v 0.282843 2.000000 0.282843
v 0.200000 2.000000 0.346410
v 0.103528 2.000000 0.386370
v 0.000000 2.000000 0.400000
v -0.103528 2.000000 0.386370
v -0.200000 2.000000 0.346410
v -0.282843 2.000000 0.282843
v -0.346410 2.000000 0.200000
v -0.386370 2.000000 0.103528
v -0.400000 2.000000 0.000000
v -0.386370 2.000000 -0.103528
v -0.346410 2.000000 -0.200000
v -0.282843 2.000000 -0.282843
v -0.200000 2.000000 -0.346410
v -0.103528 2.000000 -0.386370
v -0.000000 2.000000 -0.400000
v 0.103528 2.000000 -0.386370
v 0.200000 2.000000 -0.346410
v 0.282843 2.000000 -0.282843
v 0.346410 2.000000 -0.200000
v 0.386370 2.000000 -0.103528
v 0.386370 -0.103528 0.000000
v 0.373205 -0.103528 0.100000
v 0.334607 -0.103528 0.193185
v 0.273205 -0.103528 0.273205
v 0.193185 -0.103528 0.334607
v 0.100000 -0.103528 0.373205
v 0.000000 -0.103528 0.386370
v -0.100000 -0.103528 0.373205
v -0.193185 -0.103528 0.334607
v -0.273205 -0.103528 0.273205
v -0.334607 -0.103528 0.193185
v -0.373205 -0.103528 0.100000
v -0.386370 -0.103528 0.000000
v -0.373205 -0.103528 -0.100000
v -0.334607 -0.103528 -0.193185
v -0.273205 -0.103528 -0.273205
v -0.193185 -0.103528 -0.334607
v -0.100000 -0.103528 -0.373205
v -0.000000 -0.103528 -0.386370
v 0.100000 -0.103528 -0.373205
v 0.193185 -0.103528 -0.334607
v 0.273205 -0.103528 -0.273205
v 0.334607 -0.103528 -0.193185
v 0.373205 -0.103528 -0.100000
v 0.346410 -0.200000 0.000000
v 0.334607 -0.200000 0.089658
v 0.300000 -0.200000 0.173205
v 0.244949 -0.200000 0.244949
v 0.173205 -0.200000 0.300000
v 0.089658 -0.200000 0.334607
v 0.000000 -0.200000 0.346410
v -0.089658 -0.200000 0.334607
v -0.173205 -0.200000 0.300000
v -0.244949 -0.200000 0.244949
v -0.300000 -0.200000 0.173205
v -0.334607 -0.200000 0.089658
v -0.346410 -0.200000 0.000000
v -0.334607 -0.200000 -0.089658
v -0.300000 -0.200000 -0.173205
v -0.244949 -0.200000 -0.244949
v -0.173205 -0.200000 -0.300000
v -0.089658 -0.200000 -0.334607
v -0.000000 -0.200000 -0.346410
v 0.089658 -0.200000 -0.334607
v 0.173205 -0.200000 -0.300000
v 0.244949 -0.200000 -0.244949
v 0.300000 -0.200000 -0.173205
v 0.334607 -0.200000 -0.089658
v 0.282843 -0.282843 0.000000
v 0.273205 -0.282843 0.073205
v 0.244949 -0.282843 0.141421
v 0.200000 -0.282843 0.200000
v 0.141421 -0.282843 0.244949
v 0.073205 -0.282843 0.273205
v 0.000000 -0.282843 0.282843
v -0.073205 -0.282843 0.273205
v -0.141421 -0.282843 0.244949
v -0.200000 -0.282843 0.200000
v -0.244949 -0.282843 0.141421
v -0.273205 -0.282843 0.073205
v -0.282843 -0.282843 0.000000
v -0.273205 -0.282843 -0.073205
v -0.244949 -0.282843 -0.141421
v -0.200000 -0.282843 -0.200000
v -0.141421 -0.282843 -0.244949
v -0.073205 -0.282843 -0.273205
v -0.000000 -0.282843 -0.282843
v 0.073205 -0.282843 -0.273205
v 0.141421 -0.282843 -0.244949
v 0.200000 -0.282843 -0.200000
v 0.244949 -0.282843 -0.141421
v 0.273205 -0.282843 -0.073205
v 0.200000 -0.346410 0.000000
v 0.193185 -0.346410 0.051764
v 0.173205 -0.346410 0.100000
v 0.141421 -0.346410 0.141421
v 0.100000 -0.346410 0.173205
v 0.051764 -0.346410 0.193185
v 0.000000 -0.346410 0.200000
v -0.051764 -0.346410 0.193185
v -0.100000 -0.346410 0.173205
v -0.141421 -0.346410 0.141421
v -0.173205 -0.346410 0.100000
v -0.193185 -0.346410 0.051764
v -0.200000 -0.346410 0.000000
v -0.193185 -0.346410 -0.051764
v -0.173205 -0.346410 -0.100000
v -0.141421 -0.346410 -0.141421
v -0.100000 -0.346410 -0.173205
v -0.051764 -0.346410 -0.193185
v -0.000000 -0.346410 -0.200000
v 0.051764 -0.346410 -0.193185
v 0.100000 -0.346410 -0.173205
v 0.141421 -0.346410 -0.141421
v 0.173205 -0.346410 -0.100000
v 0.193185 -0.346410 -0.051764
v 0.103528 -0.386370 0.000000
v 0.100000 -0.386370 0.026795
v 0.089658 -0.386370 0.051764
v 0.073205 -0.386370 0.073205
v 0.051764 -0.386370 0.089658
v 0.026795 -0.386370 0.100000
v 0.000000 -0.386370 0.103528
v -0.026795 -0.386370 0.100000
v -0.051764 -0.386370 0.089658
v -0.073205 -0.386370 0.073205
v -0.089658 -0.386370 0.051764
v -0.100000 -0.386370 0.026795
v -0.103528 -0.386370 0.000000
v -0.100000 -0.386370 -0.026795
v -0.089658 -0.386370 -0.051764
v -0.073205 -0.386370 -0.073205
v -0.051764 -0.386370 -0.089658
v -0.026795 -0.386370 -0.100000
v -0.000000 -0.386370 -0.103528
v 0.026795 -0.386370 -0.100000
v 0.051764 -0.386370 -0.089658
v 0.073205 -0.386370 -0.073205
v 0.089658 -0.386370 -0.051764
v 0.100000 -0.386370 -0.026795
v 0.000000 -0.400000 0.000000
v 0.386370 2.103528 0.000000
v 0.373205 2.103528 0.100000
v 0.334607 2.103528 0.193185
v 0.273205 2.103528 0.273205
v 0.193185 2.103528 0.334607
v 0.100000 2.103528 0.373205
v 0.000000 2.103528 0.386370
v -0.100000 2.103528 0.373205
v -0.193185 2.103528 0.334607
v -0.273205 2.103528 0.273205
v -0.334607 2.103528 0.193185
v -0.373205 2.103528 0.100000
v -0.386370 2.103528 0.000000
v -0.373205 2.103528 -0.100000
v -0.334607 2.103528 -0.193185
v -0.273205 2.103528 -0.273205
v -0.193185 2.103528 -0.334607
v -0.100000 2.103528 -0.373205
v -0.000000 2.103528 -0.386370
v 0.100000 2.103528 -0.373205
v 0.193185 2.103528 -0.334607
v 0.273205 2.103528 -0.273205
v 0.334607 2.103528 -0.193185
v 0.373205 2.103528 -0.100000
v 0.346410 2.200000 0.000000
v 0.334607 2.200000 0.089658
v 0.300000 2.200000 0.173205
v 0.244949 2.200000 0.244949
v 0.173205 2.200000 0.300000
v 0.089658 2.200000 0.334607
v 0.000000 2.200000 0.346410
v -0.089658 2.200000 0.334607
v -0.173205 2.200000 0.300000
v -0.244949 2.200000 0.244949
v -0.300000 2.200000 0.173205
v -0.334607 2.200000 0.089658
v -0.346410 2.200000 0.000000
v -0.334607 2.200000 -0.089658
v -0.300000 2.200000 -0.173205
v -0.244949 2.200000 -0.244949
v -0.173205 2.200000 -0.300000
v -0.089658 2.200000 -0.334607
v -0.000000 2.200000 -0.346410
v 0.089658 2.200000 -0.334607
v 0.173205 2.200000 -0.300000
v 0.244949 2.200000 -0.244949
v 0.300000 2.200000 -0.173205
v 0.334607 2.200000 -0.089658
v 0.282843 2.282843 0.000000
v 0.273205 2.282843 0.073205
v 0.244949 2.282843 0.141421
v 0.200000 2.282843 0.200000
v 0.141421 2.282843 0.244949
v 0.073205 2.282843 0.273205
v 0.000000 2.282843 0.282843
v -0.073205 2.282843 0.273205
v -0.141421 2.282843 0.244949
v -0.200000 2.282843 0.200000
v -0.244949 2.282843 0.141421
v -0.273205 2.282843 0.073205
v -0.282843 2.282843 0.000000
v -0.273205 2.282843 -0.073205
v -0.244949 2.282843 -0.141421
v -0.200000 2.282843 -0.200000
v -0.141421 2.282843 -0.244949
v -0.073205 2.282843 -0.273205
v -0.000000 2.282843 -0.282843
v 0.073205 2.282843 -0.273205
v 0.141421 2.282843 -0.244949
v 0.200000 2.282843 -0.200000
v 0.244949 2.282843 -0.141421
v 0.273205 2.282843 -0.073205
v 0.200000 2.346410 0.000000
v 0.193185 2.346410 0.051764
v 0.173205 2.346410 0.100000
v 0.141421 2.346410 0.141421
v 0.100000 2.346410 0.173205
v 0.051764 2.346410 0.193185
v 0.000000 2.346410 0.200000
v -0.051764 2.346410 0.193185
v -0.100000 2.346410 0.173205
v -0.141421 2.346410 0.141421
v -0.173205 2.346410 0.100000
v -0.193185 2.346410 0.051764
v -0.200000 2.346410 0.000000
v -0.193185 2.346410 -0.051764
v -0.173205 2.346410 -0.100000
v -0.141421 2.346410 -0.141421
v -0.100000 2.346410 -0.173205
v -0.051764 2.346410 -0.193185
v -0.000000 2.346410 -0.200000
v 0.051764 2.346410 -0.193185
v 0.100000 2.346410 -0.173205
v 0.141421 2.346410 -0.141421
v 0.173205 2.346410 -0.100000
v 0.193185 2.346410 -0.051764
v 0.103528 2.386370 0.000000
v 0.100000 2.386370 0.026795
v 0.089658 2.386370 0.051764
v 0.073205 2.386370 0.073205
v 0.051764 2.386370 0.089658
v 0.026795 2.386370 0.100000
v 0.000000 2.386370 0.103528
v -0.026795 2.386370 0.100000
v -0.051764 2.386370 0.089658
v -0.073205 2.386370 0.073205
v -0.089658 2.386370 0.051764
v -0.100000 2.386370 0.026795
v -0.103528 2.386370 0.000000
v -0.100000 2.386370 -0.026795
v -0.089658 2.386370 -0.051764
v -0.073205 2.386370 -0.073205
v -0.051764 2.386370 -0.089658
v -0.026795 2.386370 -0.100000
v -0.000000 2.386370 -0.103528
v 0.026795 2.386370 -0.100000
v 0.051764 2.386370 -0.089658
v 0.073205 2.386370 -0.073205
v 0.089658 2.386370 -0.051764
v 0.100000 2.386370 -0.026795
v 0.000000 2.400000 0.000000
g default
f 1 2 26
f 1 26 25
f 2 3 27
f 2 27 26
f 3 4 28
f 3 28 27
f 4 5 29
f 4 29 28
f 5 6 30
f 5 30 29
f 6 7 31
f 6 31 30
f 7 8 32
f 7 32 31
f 8 9 33
f 8 33 32
f 9 10 34
f 9 34 33
f 10 11 35
f 10 35 34
f 11 12 36
f 11 36 35
f 12 13 37
f 12 37 36
f 13 14 38
f 13 38 37
f 14 15 39
f 14 39 38
f 15 16 40
f 15 40 39
f 16 17 41
f 16 41 40
f 17 18 42
f 17 42 41
f 18 19 43
f 18 43 42
f 19 20 44
f 19 44 43
f 20 21 45
f 20 45 44
f 21 22 46
f 21 46 45
f 22 23 47
f 22 47 46
f 23 24 48
f 23 48 47
f 24 1 25
f 24 25 48
f 25 26 50
f 25 50 49
f 26 27 51
f 26 51 50
f 27 28 52
f 27 52 51
f 28 29 53
f 28 53 52
f 29 30 54
f 29 54 53
f 30 31 55
f 30 55 54
f 31 32 56
f 31 56 55
f 32 33 57
f 32 57 56
f 33 34 58
f 33 58 57
f 34 35 59
f 34 59 58
f 35 36 60
f 35 60 59
f 36 37 61
f 36 61 60
f 37 38 62
f 37 62 61
f 38 39 63
f 38 63 62
f 39 40 64
f 39 64 63
f 40 41 65
f 40 65 64
f 41 42 66
f 41 66 65
f 42 43 67
f 42 67 66
f 43 44 68
f 43 68 67
f 44 45 69
f 44 69 68
f 45 46 70
f 45 70 69
f 46 47 71
f 46 71 70
f 47 48 72
f 47 72 71
f 48 25 49
f 48 49 72
f 49 50 74
f 49 74 73
f 50 51 75
f 50 75 74
f 51 52 76
f 51 76 75
f 52 53 77
f 52 77 76
f 53 54 78
f 53 78 77
f 54 55 79
f 54 79 78
f 55 56 80
f 55 80 79
f 56 57 81
f 56 81 80
f 57 58 82
f 57 82 81
f 58 59 83
f 58 83 82
f 59 60 84
f 59 84 83
f 60 61 85
f 60 85 84
f 61 62 86
f 61 86 85
f 62 63 87
f 62 87 86
f 63 64 88
f 63 88 87
f 64 65 89
f 64 89 88
f 65 66 90
f 65 90 89
f 66 67 91
f 66 91 90
f 67 68 92
f 67 92 91
f 68 69 93
f 68 93 92
f 69 70 94
f 69 94 93
f 70 71 95
f 70 95 94
f 71 72 96
f 71 96 95
f 72 49 73
f 72 73 96
f 73 74 98
f 73 98 97
f 74 75 99
f 74 99 98
f 75 76 100
f 75 100 99
f 76 77 101
f 76 101 100
f 77 78 102
f 77 102 101
f 78 79 103
f 78 103 102
f 79 80 104
f 79 104 103
f 80 81 105
f 80 105 104
f 81 82 106
f 81 106 105
f 82 83 107
f 82 107 106
f 83 84 108
f 83 108 107
f 84 85 109
f 84 109 108
f 85 86 110
f 85 110 109
f 86 87 111
f 86 111 110
f 87 88 112
f 87 112 111
f 88 89 113
f 88 113 112
f 89 90 114
f 89 114 113
f 90 91 115
f 90 115 114
f 91 92 116
f 91 116 115
f 92 93 117
f 92 117 116
f 93 94 118
f 93 118 117
f 94 95 119
f 94 119 118
f 95 96 120
f 95 120 119
f 96 73 97
f 96 97 120
f 97 98 122
f 97 122 121
f 98 99 123
f 98 123 122
f 99 100 124
f 99 124 123
f 100 101 125
f 100 125 124
f 101 102 126
f 101 126 125
f 102 103 127
f 102 127 126
f 103 104 128
f 103 128 127
f 104 105 129
f 104 129 128
f 105 106 130
f 105 130 129
f 106 107 131
f 106 131 130
f 107 108 132
f 107 132 131
f 108 109 133
f 108 133 132
f 109 110 134
f 109 134 133
f 110 111 135
f 110 135 134
f 111 112 136
f 111 136 135
f 112 113 137
f 112 137 136
f 113 114 138
f 113 138 137
f 114 115 139
f 114 139 138
f 115 116 140
f 115 140 139
f 116 117 141
f 116 141 140
f 117 118 142
f 117 142 141
f 118 119 143
f 118 143 142
f 119 120 144
f 119 144 143
f 120 97 121
f 120 121 144
f 121 122 146
f 121 146 145
f 122 123 147
f 122 147 146
f 123 124 148
f 123 148 147
f 124 125 149
f 124 149 148
f 125 126 150
f 125 150 149
f 126 127 151
f 126 151 150
f 127 128 152
f 127 152 151
f 128 129 153
f 128 153 152
f 129 130 154
f 129 154 153
f 130 131 155
f 130 155 154
f 131 132 156
f 131 156 155
f 132 133 157
f 132 157 156
f 133 134 158
f 133 158 157
f 134 135 159
f 134 159 158
f 135 136 160
f 135 160 159
f 136 137 161
f 136 161 160
f 137 138 162
f 137 162 161
f 138 139 163
f 138 163 162
f 139 140 164
f 139 164 163
f 140 141 165
f 140 165 164
f 141 142 166
f 141 166 165
f 142 143 167
f 142 167 166
f 143 144 168
f 143 168 167
f 144 121 145
f 144 145 168
f 145 146 170
f 145 170 169
f 146 147 171
f 146 171 170
f 147 148 172
f 147 172 171
f 148 149 173
f 148 173 172
f 149 150 174
f 149 174 173
f 150 151 175
f 150 175 174
f 151 152 176
f 151 176 175
f 152 153 177
f 152 177 176
f 153 154 178
f 153 178 177
f 154 155 179
f 154 179 178
f 155 156 180
f 155 180 179
f 156 157 181
f 156 181 180
f 157 158 182
f 157 182 181
f 158 159 183
f 158 183 182
f 159 160 184
f 159 184 183
f 160 161 185
f 160 185 184
f 161 162 186
f 161 186 185
f 162 163 187
f 162 187 186
f 163 164 188
f 163 188 187
f 164 165 189
f 164 189 188
f 165 166 190
f 165 190 189
f 166 167 191
f 166 191 190
f 167 168 192
f 167 192 191
f 168 145 169
f 168 169 192
f 169 170 194
f 169 194 193
f 170 171 195
f 170 195 194
f 171 172 196
f 171 196 195
f 172 173 197
f 172 197 196
f 173 174 198
f 173 198 197
f 174 175 199
f 174 199 198
f 175 176 200
f 175 200 199
f 176 177 201
f 176 201 200
f 177 178 202
f 177 202 201
f 178 179 203
f 178 203 202
f 179 180 204
f 179 204 203
f 180 181 205
f 180 205 204
f 181 182 206
f 181 206 205
f 182 183 207
f 182 207 206
f 183 184 208
f 183 208 207
f 184 185 209
f 184 209 208
f 185 186 210
f 185 210 209
f 186 187 211
f 186 211 210
f 187 188 212
f 187 212 211
f 188 189 213
f 188 213 212
f 189 190 214
f 189 214 213
f 190 191 215
f 190 215 214
f 191 192 216
f 191 216 215
f 192 169 193
f 192 193 216
f 193 194 218
f 193 218 217
f 194 195 219
f 194 219 218
f 195 196 220
f 195 220 219
f 196 197 221
f 196 221 220
f 197 198 222
f 197 222 221
f 198 199 223
f 198 223 222
f 199 200 224
f 199 224 223
f 200 201 225
f 200 225 224
f 201 202 226
f 201 226 225
f 202 203 227
f 202 227 226
f 203 204 228
f 203 228 227
f 204 205 229
f 204 229 228
f 205 206 230
f 205 230 229
f 206 207 231
f 206 231 230
f 207 208 232
f 207 232 231
f 208 209 233
f 208 233 232
f 209 210 234
f 209 234 233
f 210 211 235
f 210 235 234
f 211 212 236
f 211 236 235
f 212 213 237
f 212 237 236
f 213 214 238
f 213 238 237
f 214 215 239
f 214 239 238
f 215 216 240
f 215 240 239
f 216 193 217
f 216 217 240
f 217 218 242
f 217 242 241
f 218 219 243
f 218 243 242
f 219 220 244
f 219 244 243
f 220 221 245
f 220 245 244
f 221 222 246
f 221 246 245
f 222 223 247
f 222 247 246
f 223 224 248
f 223 248 247
f 224 225 249
f 224 249 248
f 225 226 250
f 225 250 249
f 226 227 251
f 226 251 250
f 227 228 252
f 227 252 251
f 228 229 253
f 228 253 252
f 229 230 254
f 229 254 253
f 230 231 255
f 230 255 254
f 231 232 256
f 231 256 255
f 232 233 257
f 232 257 256
f 233 234 258
f 233 258 257
f 234 235 259
f 234 259 258
f 235 236 260
f 235 260 259
f 236 237 261
f 236 261 260
f 237 238 262
f 237 262 261
f 238 239 263
f 238 263 262
f 239 240 264
f 239 264 263
f 240 217 241
f 240 241 264
f 1 265 266
f 1 266 2
f 2 266 267
f 2 267 3
f 3 267 268
f 3 268 4
f 4 268 269
f 4 269 5
f 5 269 270
f 5 270 6
f 6 270 271
f 6 271 7
f 7 271 272
f 7 272 8
f 8 272 273
f 8 273 9
f 9 273 274
f 9 274 10
f 10 274 275
f 10 275 11
f 11 275 276
f 11 276 12
f 12 276 277
f 12 277 13
f 13 277 278
f 13 278 14
f 14 278 279
f 14 279 15
f 15 279 280
f 15 280 16
f 16 280 281
f 16 281 17
f 17 281 282
f 17 282 18
f 18 282 283
f 18 283 19
f 19 283 284
f 19 284 20
f 20 284 285
f 20 285 21
f 21 285 286
f 21 286 22
f 22 286 287
f 22 287 23
f 23 287 288
f 23 288 24
f 24 288 265
f 24 265 1
f 265 289 290
f 265 290 266
f 266 290 291
f 266 291 267
f 267 291 292
f 267 292 268
f 268 292 293
f 268 293 269
f 269 293 294
f 269 294 270
f 270 294 295
f 270 295 271
f 271 295 296
f 271 296 272
f 272 296 297
f 272 297 273
f 273 297 298
f 273 298 274
f 274 298 299
f 274 299 275
f 275 299 300
f 275 300 276
f 276 300 301
f 276 301 277
f 277 301 302
f 277 302 278
f 278 302 303
f 278 303 279
f 279 303 304
f 279 304 280
f 280 304 305
f 280 305 281
f 281 305 306
f 281 306 282
f 282 306 307
f 282 307 283
f 283 307 308
f 283 308 284
f 284 308 309
f 284 309 285
f 285 309 310
f 285 310 286
f 286 310 311
f 286 311 287
f 287 311 312
f 287 312 288
f 288 312 289
f 288 289 265
f 289 313 314
f 289 314 290
f 290 314 315
f 290 315 291
f 291 315 316
f 291 316 292
f 292 316 317
f 292 317 293
f 293 317 318
f 293 318 294
f 294 318 319
f 294 319 295
f 295 319 320
f 295 320 296
f 296 320 321
f 296 321 297
f 297 321 322
f 297 322 298
f 298 322 323
f 298 323 299
f 299 323 324
f 299 324 300
f 300 324 325
f 300 325 301
f 301 325 326
f 301 326 302
f 302 326 327
f 302 327 303
f 303 327 328
f 303 328 304
f 304 328 329
f 304 329 305
f 305 329 330
f 305 330 306
f 306 330 331
f 306 331 307
f 307 331 332
f 307 332 308
f 308 332 333
f 308 333 309
f 309 333 334
f 309 334 310
f 310 334 335
f 310 335 311
f 311 335 336
f 311 336 312
f 312 336 313
f 312 313 289
f 313 337 338
f 313 338 314
f 314 338 339
f 314 339 315
f 315 339 340
f 315 340 316
f 316 340 341
f 316 341 317
f 317 341 342
f 317 342 318
f 318 342 343
f 318 343 319
f 319 343 344
f 319 344 320
f 320 344 345
f 320 345 321
f 321 345 346
f 321 346 322
f 322 346 347
f 322 347 323
f 323 347 348
f 323 348 324
f 324 348 349
f 324 349 325
f 325 349 350
f 325 350 326
f 326 350 351
f 326 351 327
f 327 351 352
f 327 352 328
f 328 352 353
f 328 353 329
f 329 353 354
f 329 354 330
f 330 354 355
f 330 355 331
f 331 355 356
f 331 356 332
f 332 356 357
f 332 357 333
f 333 357 358
f 333 358 334
f 334 358 359
f 334 359 335
f 335 359 360
f 335 360 336
f 336 360 337
f 336 337 313
f 337 361 362
f 337 362 338
f 338 362 363
f 338 363 339
f 339 363 364
f 339 364 340
f 340 364 365
f 340 365 341
f 341 365 366
f 341 366 342
f 342 366 367
f 342 367 343
f 343 367 368
f 343 368 344
f 344 368 369
f 344 369 345
f 345 369 370
f 345 370 346
f 346 370 371
f 346 371 347
f 347 371 372
f 347 372 348
f 348 372 373
f 348 373 349
f 349 373 374
f 349 374 350
f 350 374 375
f 350 375 351
f 351 375 376
f 351 376 352
f 352 376 377
f 352 377 353
f 353 377 378
f 353 378 354
f 354 378 379
f 354 379 355
f 355 379 380
f 355 380 356
f 356 380 381
f 356 381 357
f 357 381 382
f 357 382 358
f 358 382 383
f 358 383 359
f 359 383 384
f 359 384 360
f 360 384 361
f 360 361 337
f 361 385 362
f 362 385 363
f 363 385 364
f 364 385 365
f 365 385 366
f 366 385 367
f 367 385 368
f 368 385 369
f 369 385 370
f 370 385 371
f 371 385 372
f 372 385 373
f 373 385 374
f 374 385 375
f 375 385 376
f 376 385 377
f 377 385 378
f 378 385 379
f 379 385 380
f 380 385 381
f 381 385 382
f 382 385 383
f 383 385 384
f 384 385 361
f 241 242 387
f 241 387 386
f 242 243 388
f 242 388 387
f 243 244 389
f 243 389 388
f 244 245 390
f 244 390 389
f 245 246 391
f 245 391 390
f 246 247 392
f 246 392 391
f 247 248 393
f 247 393 392
f 248 249 394
f 248 394 393
f 249 250 395
f 249 395 394
f 250 251 396
f 250 396 395
f 251 252 397
f 251 397 396
f 252 253 398
f 252 398 397
f 253 254 399
f 253 399 398
f 254 255 400
f 254 400 399
f 255 256 401
f 255 401 400
f 256 257 402
f 256 402 401
f 257 258 403
f 257 403 402
f 258 259 404
f 258 404 403
f 259 260 405
f 259 405 404
f 260 261 406
f 260 406 405
f 261 262 407
f 261 407 406
f 262 263 408
f 262 408 407
f 263 264 409
f 263 409 408
f 264 241 386
f 264 386 409
f 386 387 411
f 386 411 410
f 387 388 412
f 387 412 411
f 388 389 413
f 388 413 412
f 389 390 414
f 389 414 413
f 390 391 415
f 390 415 414
f 391 392 416
f 391 416 415
f 392 393 417
f 392 417 416
f 393 394 418
f 393 418 417
f 394 395 419
f 394 419 418
f 395 396 420
f 395 420 419
f 396 397 421
f 396 421 420
f 397 398 422
f 397 422 421
f 398 399 423
f 398 423 422
f 399 400 424
f 399 424 423
f 400 401 425
f 400 425 424
f 401 402 426
f 401 426 425
f 402 403 427
f 402 427 426
f 403 404 428
f 403 428 427
f 404 405 429
f 404 429 428
f 405 406 430
f 405 430 429
f 406 407 431
f 406 431 430
f 407 408 432
f 407 432 431
f 408 409 433
f 408 433 432
f 409 386 410
f 409 410 433
f 410 411 435
f 410 435 434
f 411 412 436
f 411 436 435
f 412 413 437
f 412 437 436
f 413 414 438
f 413 438 437
f 414 415 439
f 414 439 438
f 415 416 440
f 415 440 439
f 416 417 441
f 416 441 440
f 417 418 442
f 417 442 441
f 418 419 443
f 418 443 442
f 419 420 444
f 419 444 443
f 420 421 445
f 420 445 444
f 421 422 446
f 421 446 445
f 422 423 447
f 422 447 446
f 423 424 448
f 423 448 447
f 424 425 449
f 424 449 448
f 425 426 450
f 425 450 449
f 426 427 451
f 426 451 450
f 427 428 452
f 427 452 451
f 428 429 453
f 428 453 452
f 429 430 454
f 429 454 453
f 430 431 455
f 430 455 454
f 431 432 456
f 431 456 455
f 432 433 457
f 432 457 456
f 433 410 434
f 433 434 457
f 434 435 459
f 434 459 458
f 435 436 460
f 435 460 459
f 436 437 461
f 436 461 460
f 437 438 462
f 437 462 461
f 438 439 463
f 438 463 462
f 439 440 464
f 439 464 463
f 440 441 465
f 440 465 464
f 441 442 466
f 441 466 465
f 442 443 467
f 442 467 466
f 443 444 468
f 443 468 467
f 444 445 469
f 444 469 468
f 445 446 470
f 445 470 469
f 446 447 471
f 446 471 470
f 447 448 472
f 447 472 471
f 448 449 473
f 448 473 472
f 449 450 474
f 449 474 473
f 450 451 475
f 450 475 474
f 451 452 476
f 451 476 475
f 452 453 477
f 452 477 476
f 453 454 478
f 453 478 477
f 454 455 479
f 454 479 478
f 455 456 480
f 455 480 479
f 456 457 481
f 456 481 480
f 457 434 458
f 457 458 481
f 458 459 483
f 458 483 482
f 459 460 484
f 459 484 483
f 460 461 485
f 460 485 484
f 461 462 486
f 461 486 485
f 462 463 487
f 462 487 486
f 463 464 488
f 463 488 487
f 464 465 489
f 464 489 488
f 465 466 490
f 465 490 489
f 466 467 491
f 466 491 490
f 467 468 492
f 467 492 491
f 468 469 493
f 468 493 492
f 469 470 494
f 469 494 493
f 470 471 495
f 470 495 494
f 471 472 496
f 471 496 495
f 472 473 497
f 472 497 496
f 473 474 498
f 473 498 497
f 474 475 499
f 474 499 498
f 475 476 500
f 475 500 499
f 476 477 501
f 476 501 500
f 477 478 502
f 477 502 501
f 478 479 503
f 478 503 502
f 479 480 504
f 479 504 503
f 480 481 505
f 480 505 504
f 481 458 482
f 481 482 505
f 482 483 506
f 483 484 506
f 484 485 506
f 485 486 506
f 486 487 506
f 487 488 506
f 488 489 506
f 489 490 506
f 490 491 506
f 491 492 506
f 492 493 506
f 493 494 506
f 494 495 506
f 495 496 506
f 496 497 506
f 497 498 506
f 498 499 506
f 499 500 506
f 500 501 506
f 501 502 506
f 502 503 506
f 503 504 506
f 504 505 506
f 505 482 506
o Shirt
v 0.400000 0.300000 0.000000
v 0.389971 0.300000 0.089008
v 0.360388 0.300000 0.173553
v 0.312733 0.300000 0.249396
v 0.249396 0.300000 0.312733
v 0.173553 0.300000 0.360388
v 0.089008 0.300000 0.389971
v 0.000000 0.300000 0.400000
v -0.089008 0.300000 0.389971
v -0.173553 0.300000 0.360388
v -0.249396 0.300000 0.312733
v -0.312733 0.300000 0.249396
v -0.360388 0.300000 0.173553
v -0.389971 0.300000 0.089008
v -0.400000 0.300000 0.000000
v 0.400000 0.400000 0.000000
v 0.389971 0.400000 0.089008
v 0.360388 0.400000 0.173553
v 0.312733 0.400000 0.249396
v 0.249396 0.400000 0.312733
v 0.173553 0.400000 0.360388
v 0.089008 0.400000 0.389971
v 0.000000 0.400000 0.400000
v -0.089008 0.400000 0.389971
v -0.173553 0.400000 0.360388
v -0.249396 0.400000 0.312733
v -0.312733 0.400000 0.249396
v -0.360388 0.400000 0.173553
v -0.389971 0.400000 0.089008
v -0.400000 0.400000 0.000000
v 0.400000 0.500000 0.000000
v 0.389971 0.500000 0.089008
v 0.360388 0.500000 0.173553
v 0.312733 0.500000 0.249396
v 0.249396 0.500000 0.312733
v 0.173553 0.500000 0.360388
v 0.089008 0.500000 0.389971
v 0.000000 0.500000 0.400000
v -0.089008 0.500000 0.389971
v -0.173553 0.500000 0.360388
v -0.249396 0.500000 0.312733
v -0.312733 0.500000 0.249396
v -0.360388 0.500000 0.173553
v -0.389971 0.500000 0.089008
v -0.400000 0.500000 0.000000
v 0.400000 0.600000 0.000000
v 0.389971 0.600000 0.089008
v 0.360388 0.600000 0.173553
v 0.312733 0.600000 0.249396
v 0.249396 0.600000 0.312733
v 0.173553 0.600000 0.360388
v 0.089008 0.600000 0.389971
v 0.000000 0.600000 0.400000
v -0.089008 0.600000 0.389971
v -0.173553 0.600000 0.360388
v -0.249396 0.600000 0.312733
v -0.312733 0.600000 0.249396
v -0.360388 0.600000 0.173553
v -0.389971 0.600000 0.089008
v -0.400000 0.600000 0.000000
v 0.400000 0.700000 0.000000
v 0.389971 0.700000 0.089008
v 0.360388 0.700000 0.173553
v 0.312733 0.700000 0.249396
v 0.249396 0.700000 0.312733
v 0.173553 0.700000 0.360388
v 0.089008 0.700000 0.389971
v 0.000000 0.700000 0.400000
v -0.089008 0.700000 0.389971
v -0.173553 0.700000 0.360388
v -0.249396 0.700000 0.312733
v -0.312733 0.700000 0.249396
v -0.360388 0.700000 0.173553
v -0.389971 0.700000 0.089008
v -0.400000 0.700000 0.000000
v 0.400000 0.800000 0.000000
v 0.389971 0.800000 0.089008
v 0.360388 0.800000 0.173553
v 0.312733 0.800000 0.249396
v 0.249396 0.800000 0.312733
v 0.173553 0.800000 0.360388
v 0.089008 0.800000 0.389971
v 0.000000 0.800000 0.400000
v -0.089008 0.800000 0.389971
v -0.173553 0.800000 0.360388
v -0.249396 0.800000 0.312733
v -0.312733 0.800000 0.249396
v -0.360388 0.800000 0.173553
v -0.389971 0.800000 0.089008
v -0.400000 0.800000 0.000000
v 0.400000 0.900000 0.000000
v 0.389971 0.900000 0.089008
v 0.360388 0.900000 0.173553
v 0.312733 0.900000 0.249396
v 0.249396 0.900000 0.312733
v 0.173553 0.900000 0.360388
v 0.089008 0.900000 0.389971
v 0.000000 0.900000 0.400000
v -0.089008 0.900000 0.389971
v -0.173553 0.900000 0.360388
v -0.249396 0.900000 0.312733
v -0.312733 0.900000 0.249396
v -0.360388 0.900000 0.173553
v -0.389971 0.900000 0.089008
v -0.400000 0.900000 0.000000
v 0.400000 1.000000 0.000000
v 0.389971 1.000000 0.089008
v 0.360388 1.000000 0.173553
v 0.312733 1.000000 0.249396
v 0.249396 1.000000 0.312733
v 0.173553 1.000000 0.360388
v 0.089008 1.000000 0.389971
v 0.000000 1.000000 0.400000
v -0.089008 1.000000 0.389971
v -0.173553 1.000000 0.360388
v -0.249396 1.000000 0.312733
v -0.312733 1.000000 0.249396
v -0.360388 1.000000 0.173553
v -0.389971 1.000000 0.089008
v -0.400000 1.000000 0.000000
v 0.400000 1.100000 0.000000
v 0.389971 1.100000 0.089008
v 0.360388 1.100000 0.173553
v 0.312733 1.100000 0.249396
v 0.249396 1.100000 0.312733
v 0.173553 1.100000 0.360388
v 0.089008 1.100000 0.389971
v 0.000000 1.100000 0.400000
v -0.089008 1.100000 0.389971
v -0.173553 1.100000 0.360388
v -0.249396 1.100000 0.312733
v -0.312733 1.100000 0.249396
v -0.360388 1.100000 0.173553
v -0.389971 1.100000 0.089008
v -0.400000 1.100000 0.000000
v 0.400000 1.200000 0.000000
v 0.389971 1.200000 0.089008
v 0.360388 1.200000 0.173553
v 0.312733 1.200000 0.249396
v 0.249396 1.200000 0.312733
v 0.173553 1.200000 0.360388
v 0.089008 1.200000 0.389971
v 0.000000 1.200000 0.400000
v -0.089008 1.200000 0.389971
v -0.173553 1.200000 0.360388
v -0.249396 1.200000 0.312733
v -0.312733 1.200000 0.249396
v -0.360388 1.200000 0.173553
v -0.389971 1.200000 0.089008
v -0.400000 1.200000 0.000000
v 0.400000 1.300000 0.000000
v 0.389971 1.300000 0.089008
v 0.360388 1.300000 0.173553
v 0.312733 1.300000 0.249396
v 0.249396 1.300000 0.312733
v 0.173553 1.300000 0.360388
v 0.089008 1.300000 0.389971
v 0.000000 1.300000 0.400000
v -0.089008 1.300000 0.389971
v -0.173553 1.300000 0.360388
v -0.249396 1.300000 0.312733
v -0.312733 1.300000 0.249396
v -0.360388 1.300000 0.173553
v -0.389971 1.300000 0.089008
v -0.400000 1.300000 0.000000
v 0.400000 1.400000 0.000000
v 0.389971 1.400000 0.089008
v 0.360388 1.400000 0.173553
v 0.312733 1.400000 0.249396
v 0.249396 1.400000 0.312733
v 0.173553 1.400000 0.360388
v 0.089008 1.400000 0.389971
v 0.000000 1.400000 0.400000
v -0.089008 1.400000 0.389971
v -0.173553 1.400000 0.360388
v -0.249396 1.400000 0.312733
v -0.312733 1.400000 0.249396
v -0.360388 1.400000 0.173553
v -0.389971 1.400000 0.089008
v -0.400000 1.400000 0.000000
v 0.400000 1.500000 0.000000
v 0.389971 1.500000 0.089008
v 0.360388 1.500000 0.173553
v 0.312733 1.500000 0.249396
v 0.249396 1.500000 0.312733
v 0.173553 1.500000 0.360388
v 0.089008 1.500000 0.389971
v 0.000000 1.500000 0.400000
v -0.089008 1.500000 0.389971
v -0.173553 1.500000 0.360388
v -0.249396 1.500000 0.312733
v -0.312733 1.500000 0.249396
v -0.360388 1.500000 0.173553
v -0.389971 1.500000 0.089008
v -0.400000 1.500000 0.000000
v 0.450000 0.300000 0.000000
v 0.438718 0.300000 0.100134
v 0.405436 0.300000 0.195248
v 0.351824 0.300000 0.280570
v 0.280570 0.300000 0.351824
v 0.195248 0.300000 0.405436
v 0.100134 0.300000 0.438718
v 0.000000 0.300000 0.450000
v -0.100134 0.300000 0.438718
v -0.195248 0.300000 0.405436
v -0.280570 0.300000 0.351824
v -0.351824 0.300000 0.280570
v -0.405436 0.300000 0.195248
v -0.438718 0.300000 0.100134
v -0.450000 0.300000 0.000000
v 0.450000 0.400000 0.000000
v 0.438718 0.400000 0.100134
v 0.405436 0.400000 0.195248
v 0.351824 0.400000 0.280570
v 0.280570 0.400000 0.351824
v 0.195248 0.400000 0.405436
v 0.100134 0.400000 0.438718
v 0.000000 0.400000 0.450000
v -0.100134 0.400000 0.438718
v -0.195248 0.400000 0.405436
v -0.280570 0.400000 0.351824
v -0.351824 0.400000 0.280570
v -0.405436 0.400000 0.195248
v -0.438718 0.400000 0.100134
v -0.450000 0.400000 0.000000
v 0.450000 0.500000 0.000000
v 0.438718 0.500000 0.100134
v 0.405436 0.500000 0.195248
v 0.351824 0.500000 0.280570
v 0.280570 0.500000 0.351824
v 0.195248 0.500000 0.405436
v 0.100134 0.500000 0.438718
v 0.000000 0.500000 0.450000
v -0.100134 0.500000 0.438718
v -0.195248 0.500000 0.405436
v -0.280570 0.500000 0.351824
v -0.351824 0.500000 0.280570
v -0.405436 0.500000 0.195248
v -0.438718 0.500000 0.100134
v -0.450000 0.500000 0.000000
v 0.450000 0.600000 0.000000
v 0.438718 0.600000 0.100134
v 0.405436 0.600000 0.195248
v 0.351824 0.600000 0.280570
v 0.280570 0.600000 0.351824
v 0.195248 0.600000 0.405436
v 0.100134 0.600000 0.438718
v 0.000000 0.600000 0.450000
v -0.100134 0.600000 0.438718
v -0.195248 0.600000 0.405436
v -0.280570 0.600000 0.351824
v -0.351824 0.600000 0.280570
v -0.405436 0.600000 0.195248
v -0.438718 0.600000 0.100134
v -0.450000 0.600000 0.000000
v 0.450000 0.700000 0.000000
v 0.438718 0.700000 0.100134
v 0.405436 0.700000 0.195248
v 0.351824 0.700000 0.280570
v 0.280570 0.700000 0.351824
v 0.195248 0.700000 0.405436
v 0.100134 0.700000 0.438718
v 0.000000 0.700000 0.450000
v -0.100134 0.700000 0.438718
v -0.195248 0.700000 0.405436
v -0.280570 0.700000 0.351824
v -0.351824 0.700000 0.280570
v -0.405436 0.700000 0.195248
v -0.438718 0.700000 0.100134
v -0.450000 0.700000 0.000000
v 0.450000 0.800000 0.000000
v 0.438718 0.800000 0.100134
v 0.405436 0.800000 0.195248
v 0.351824 0.800000 0.280570
v 0.280570 0.800000 0.351824
v 0.195248 0.800000 0.405436
v 0.100134 0.800000 0.438718
v 0.000000 0.800000 0.450000
v -0.100134 0.800000 0.438718
v -0.195248 0.800000 0.405436
v -0.280570 0.800000 0.351824
v -0.351824 0.800000 0.280570
v -0.405436 0.800000 0.195248
v -0.438718 0.800000 0.100134
v -0.450000 0.800000 0.000000
v 0.450000 0.900000 0.000000
v 0.438718 0.900000 0.100134
v 0.405436 0.900000 0.195248
v 0.351824 0.900000 0.280570
v 0.280570 0.900000 0.351824
v 0.195248 0.900000 0.405436
v 0.100134 0.900000 0.438718
v 0.000000 0.900000 0.450000
v -0.100134 0.900000 0.438718
v -0.195248 0.900000 0.405436
v -0.280570 0.900000 0.351824
v -0.351824 0.900000 0.280570
v -0.405436 0.900000 0.195248
v -0.438718 0.900000 0.100134
v -0.450000 0.900000 0.000000
v 0.450000 1.000000 0.000000
v 0.438718 1.000000 0.100134
v 0.405436 1.000000 0.195248
v 0.351824 1.000000 0.280570
v 0.280570 1.000000 0.351824
v 0.195248 1.000000 0.405436
v 0.100134 1.000000 0.438718
v 0.000000 1.000000 0.450000
v -0.100134 1.000000 0.438718
v -0.195248 1.000000 0.405436
v -0.280570 1.000000 0.351824
v -0.351824 1.000000 0.280570
v -0.405436 1.000000 0.195248
v -0.438718 1.000000 0.100134
v -0.450000 1.000000 0.000000
v 0.450000 1.100000 0.000000
v 0.438718 1.100000 0.100134
v 0.405436 1.100000 0.195248
v 0.351824 1.100000 0.280570
v 0.280570 1.100000 0.351824
v 0.195248 1.100000 0.405436
v 0.100134 1.100000 0.438718
v 0.000000 1.100000 0.450000
v -0.100134 1.100000 0.438718
v -0.195248 1.100000 0.405436
v -0.280570 1.100000 0.351824
v -0.351824 1.100000 0.280570
v -0.405436 1.100000 0.195248
v -0.438718 1.100000 0.100134
v -0.450000 1.100000 0.000000
v 0.450000 1.200000 0.000000
v 0.438718 1.200000 0.100134
v 0.405436 1.200000 0.195248
v 0.351824 1.200000 0.280570
v 0.280570 1.200000 0.351824
v 0.195248 1.200000 0.405436
v 0.100134 1.200000 0.438718
v 0.000000 1.200000 0.450000
v -0.100134 1.200000 0.438718
v -0.195248 1.200000 0.405436
v -0.280570 1.200000 0.351824
v -0.351824 1.200000 0.280570
v -0.405436 1.200000 0.195248
v -0.438718 1.200000 0.100134
v -0.450000 1.200000 0.000000
v 0.450000 1.300000 0.000000
v 0.438718 1.300000 0.100134
v 0.405436 1.300000 0.195248
v 0.351824 1.300000 0.280570
v 0.280570 1.300000 0.351824
v 0.195248 1.300000 0.405436
v 0.100134 1.300000 0.438718
v 0.000000 1.300000 0.450000
v -0.100134 1.300000 0.438718
v -0.195248 1.300000 0.405436
v -0.280570 1.300000 0.351824
v -0.351824 1.300000 0.280570
v -0.405436 1.300000 0.195248
v -0.438718 1.300000 0.100134
v -0.450000 1.300000 0.000000
v 0.450000 1.400000 0.000000
v 0.438718 1.400000 0.100134
v 0.405436 1.400000 0.195248
v 0.351824 1.400000 0.280570
v 0.280570 1.400000 0.351824
v 0.195248 1.400000 0.405436
v 0.100134 1.400000 0.438718
v 0.000000 1.400000 0.450000
v -0.100134 1.400000 0.438718
v -0.195248 1.400000 0.405436
v -0.280570 1.400000 0.351824
v -0.351824 1.400000 0.280570
v -0.405436 1.400000 0.195248
v -0.438718 1.400000 0.100134
v -0.450000 1.400000 0.000000
v 0.450000 1.500000 0.000000
v 0.438718 1.500000 0.100134
v 0.405436 1.500000 0.195248
v 0.351824 1.500000 0.280570
v 0.280570 1.500000 0.351824
v 0.195248 1.500000 0.405436
v 0.100134 1.500000 0.438718
v 0.000000 1.500000 0.450000
v -0.100134 1.500000 0.438718
v -0.195248 1.500000 0.405436
v -0.280570 1.500000 0.351824
v -0.351824 1.500000 0.280570
v -0.405436 1.500000 0.195248
v -0.438718 1.500000 0.100134
v -0.450000 1.500000 0.000000
g default
f 507 522 523
f 507 523 508
f 508 523 524
f 508 524 509
f 509 524 525
f 509 525 510
f 510 525 526
f 510 526 511
f 511 526 527
f 511 527 512
f 512 527 528
f 512 528 513
f 513 528 529
f 513 529 514
f 514 529 530
f 514 530 515
f 515 530 531
f 515 531 516
f 516 531 532
f 516 532 517
f 517 532 533
f 517 533 518
f 518 533 534
f 518 534 519
f 519 534 535
f 519 535 520
f 520 535 536
f 520 536 521
f 522 537 538
f 522 538 523
f 523 538 539
f 523 539 524
f 524 539 540
f 524 540 525
f 525 540 541
f 525 541 526
f 526 541 542
f 526 542 527
f 527 542 543
f 527 543 528
f 528 543 544
f 528 544 529
f 529 544 545
f 529 545 530
f 530 545 546
f 530 546 531
f 531 546 547
f 531 547 532
f 532 547 548
f 532 548 533
f 533 548 549
f 533 549 534
f 534 549 550
f 534 550 535
f 535 550 551
f 535 551 536
f 537 552 553
f 537 553 538
f 538 553 554
f 538 554 539
f 539 554 555
f 539 555 540
f 540 555 556
f 540 556 541
f 541 556 557
f 541 557 542
f 542 557 558
f 542 558 543
f 543 558 559
f 543 559 544
f 544 559 560
f 544 560 545
f 545 560 561
f 545 561 546
f 546 561 562
f 546 562 547
f 547 562 563
f 547 563 548
f 548 563 564
f 548 564 549
f 549 564 565
f 549 565 550
f 550 565 566
f 550 566 551
f 552 567 568
f 552 568 553
f 553 568 569
f 553 569 554
f 554 569 570
f 554 570 555
f 555 570 571
f 555 571 556
f 556 571 572
f 556 572 557
f 557 572 573
f 557 573 558
f 558 573 574
f 558 574 559
f 559 574 575
f 559 575 560
f 560 575 576
f 560 576 561
f 561 576 577
f 561 577 562
f 562 577 578
f 562 578 563
f 563 578 579
f 563 579 564
f 564 579 580
f 564 580 565
f 565 580 581
f 565 581 566
f 567 582 583
f 567 583 568
f 568 583 584
f 568 584 569
f 569 584 585
f 569 585 570
f 570 585 586
f 570 586 571
f 571 586 587
f 571 587 572
f 572 587 588
f 572 588 573
f 573 588 589
f 573 589 574
f 574 589 590
f 574 590 575
f 575 590 591
f 575 591 576
f 576 591 592
f 576 592 577
f 577 592 593
f 577 593 578
f 578 593 594
f 578 594 579
f 579 594 595
f 579 595 580
f 580 595 596
f 580 596 581
f 582 597 598
f 582 598 583
f 583 598 599
f 583 599 584
f 584 599 600
f 584 600 585
f 585 600 601
f 585 601 586
f 586 601 602
f 586 602 587
f 587 602 603
f 587 603 588
f 588 603 604
f 588 604 589
f 589 604 605
f 589 605 590
f 590 605 606
f 590 606 591
f 591 606 607
f 591 607 592
f 592 607 608
f 592 608 593
f 593 608 609
f 593 609 594
f 594 609 610
f 594 610 595
f 595 610 611
f 595 611 596
f 597 612 613
f 597 613 598
f 598 613 614
f 598 614 599
f 599 614 615
f 599 615 600
f 600 615 616
f 600 616 601
f 601 616 617
f 601 617 602
f 602 617 618
f 602 618 603
f 603 618 619
f 603 619 604
f 604 619 620
f 604 620 605
f 605 620 621
f 605 621 606
f 606 621 622
f 606 622 607
f 607 622 623
f 607 623 608
f 608 623 624
f 608 624 609
f 609 624 625
f 609 625 610
f 610 625 626
f 610 626 611
f 612 627 628
f 612 628 613
f 613 628 629
f 613 629 614
f 614 629 630
f 614 630 615
f 615 630 631
f 615 631 616
f 616 631 632
f 616 632 617
f 617 632 633
f 617 633 618
f 618 633 634
f 618 634 619
f 619 634 635
f 619 635 620
f 620 635 636
f 620 636 621
f 621 636 637
f 621 637 622
f 622 637 638
f 622 638 623
f 623 638 639
f 623 639 624
f 624 639 640
f 624 640 625
f 625 640 641
f 625 641 626
f 627 642 643
f 627 643 628
f 628 643 644
f 628 644 629
f 629 644 645
f 629 645 630
f 630 645 646
f 630 646 631
f 631 646 647
f 631 647 632
f 632 647 648
f 632 648 633
f 633 648 649
f 633 649 634
f 634 649 650
f 634 650 635
f 635 650 651
f 635 651 636
f 636 651 652
f 636 652 637
f 637 652 653
f 637 653 638
f 638 653 654
f 638 654 639
f 639 654 655
f 639 655 640
f 640 655 656
f 640 656 641
f 642 657 658
f 642 658 643
f 643 658 659
f 643 659 644
f 644 659 660
f 644 660 645
f 645 660 661
f 645 661 646
f 646 661 662
f 646 662 647
f 647 662 663
f 647 663 648
f 648 663 664
f 648 664 649
f 649 664 665
f 649 665 650
f 650 665 666
f 650 666 651
f 651 666 667
f 651 667 652
f 652 667 668
f 652 668 653
f 653 668 669
f 653 669 654
f 654 669 670
f 654 670 655
f 655 670 671
f 655 671 656
f 657 672 673
f 657 673 658
f 658 673 674
f 658 674 659
f 659 674 675
f 659 675 660
f 660 675 676
f 660 676 661
f 661 676 677
f 661 677 662
f 662 677 678
f 662 678 663
f 663 678 679
f 663 679 664
f 664 679 680
f 664 680 665
f 665 680 681
f 665 681 666
f 666 681 682
f 666 682 667
f 667 682 683
f 667 683 668
f 668 683 684
f 668 684 669
f 669 684 685
f 669 685 670
f 670 685 686
f 670 686 671
f 672 687 688
f 672 688 673
f 673 688 689
f 673 689 674
f 674 689 690
f 674 690 675
f 675 690 691
f 675 691 676
f 676 691 692
f 676 692 677
f 677 692 693
f 677 693 678
f 678 693 694
f 678 694 679
f 679 694 695
f 679 695 680
f 680 695 696
f 680 696 681
f 681 696 697
f 681 697 682
f 682 697 698
f 682 698 683
f 683 698 699
f 683 699 684
f 684 699 700
f 684 700 685
f 685 700 701
f 685 701 686
f 702 703 718
f 702 718 717
f 703 704 719
f 703 719 718
f 704 705 720
f 704 720 719
f 705 706 721
f 705 721 720
f 706 707 722
f 706 722 721
f 707 708 723
f 707 723 722
f 708 709 724
f 708 724 723
f 709 710 725
f 709 725 724
f 710 711 726
f 710 726 725
f 711 712 727
f 711 727 726
f 712 713 728
f 712 728 727
f 713 714 729
f 713 729 728
f 714 715 730
f 714 730 729
f 715 716 731
f 715 731 730
f 717 718 733
f 717 733 732
f 718 719 734
f 718 734 733
f 719 720 735
f 719 735 734
f 720 721 736
f 720 736 735
f 721 722 737
f 721 737 736
f 722 723 738
f 722 738 737
f 723 724 739
f 723 739 738
f 724 725 740
f 724 740 739
f 725 726 741
f 725 741 740
f 726 727 742
f 726 742 741
f 727 728 743
f 727 743 742
f 728 729 744
f 728 744 743
f 729 730 745
f 729 745 744
f 730 731 746
f 730 746 745
f 732 733 748
f 732 748 747
f 733 734 749
f 733 749 748
f 734 735 750
f 734 750 749
f 735 736 751
f 735 751 750
f 736 737 752
f 736 752 751
f 737 738 753
f 737 753 752
f 738 739 754
f 738 754 753
f 739 740 755
f 739 755 754
f 740 741 756
f 740 756 755
f 741 742 757
f 741 757 756
f 742 743 758
f 742 758 757
f 743 744 759
f 743 759 758
f 744 745 760
f 744 760 759
f 745 746 761
f 745 761 760
f 747 748 763
f 747 763 762
f 748 749 764
f 748 764 763
f 749 750 765
f 749 765 764
f 750 751 766
f 750 766 765
f 751 752 767
f 751 767 766
f 752 753 768
f 752 768 767
f 753 754 769
f 753 769 768
f 754 755 770
f 754 770 769
f 755 756 771
f 755 771 770
f 756 757 772
f 756 772 771
f 757 758 773
f 757 773 772
f 758 759 774
f 758 774 773
f 759 760 775
f 759 775 774
f 760 761 776
f 760 776 775
f 762 763 778
f 762 778 777
f 763 764 779
f 763 779 778
f 764 765 780
f 764 780 779
f 765 766 781
f 765 781 780
f 766 767 782
f 766 782 781
f 767 768 783
f 767 783 782
f 768 769 784
f 768 784 783
f 769 770 785
f 769 785 784
f 770 771 786
f 770 786 785
f 771 772 787
f 771 787 786
f 772 773 788
f 772 788 787
f 773 774 789
f 773 789 788
f 774 775 790
f 774 790 789
f 775 776 791
f 775 791 790
f 777 778 793
f 777 793 792
f 778 779 794
f 778 794 793
f 779 780 795
f 779 795 794
f 780 781 796
f 780 796 795
f 781 782 797
f 781 797 796
f 782 783 798
f 782 798 797
f 783 784 799
f 783 799 798
f 784 785 800
f 784 800 799
f 785 786 801
f 785 801 800
f 786 787 802
f 786 802 801
f 787 788 803
f 787 803 802
f 788 789 804
f 788 804 803
f 789 790 805
f 789 805 804
f 790 791 806
f 790 806 805
f 792 793 808
f 792 808 807
f 793 794 809
f 793 809 808
f 794 795 810
f 794 810 809
f 795 796 811
f 795 811 810
f 796 797 812
f 796 812 811
f 797 798 813
f 797 813 812
f 798 799 814
f 798 814 813
f 799 800 815
f 799 815 814
f 800 801 816
f 800 816 815
f 801 802 817
f 801 817 816
f 802 803 818
f 802 818 817
f 803 804 819
f 803 819 818
f 804 805 820
f 804 820 819
f 805 806 821
f 805 821 820
f 807 808 823
f 807 823 822
f 808 809 824
f 808 824 823
f 809 810 825
f 809 825 824
f 810 811 826
f 810 826 825
f 811 812 827
f 811 827 826
f 812 813 828
f 812 828 827
f 813 814 829
f 813 829 828
f 814 815 830
f 814 830 829
f 815 816 831
f 815 831 830
f 816 817 832
f 816 832 831
f 817 818 833
f 817 833 832
f 818 819 834
f 818 834 833
f 819 820 835
f 819 835 834
f 820 821 836
f 820 836 835
f 822 823 838
f 822 838 837
f 823 824 839
f 823 839 838
f 824 825 840
f 824 840 839
f 825 826 841
f 825 841 840
f 826 827 842
f 826 842 841
f 827 828 843
f 827 843 842
f 828 829 844
f 828 844 843
f 829 830 845
f 829 845 844
f 830 831 846
f 830 846 845
f 831 832 847
f 831 847 846
f 832 833 848
f 832 848 847
f 833 834 849
f 833 849 848
f 834 835 850
f 834 850 849
f 835 836 851
f 835 851 850
f 837 838 853
f 837 853 852
f 838 839 854
f 838 854 853
f 839 840 855
f 839 855 854
f 840 841 856
f 840 856 855
f 841 842 857
f 841 857 856
f 842 843 858
f 842 858 857
f 843 844 859
f 843 859 858
f 844 845 860
f 844 860 859
f 845 846 861
f 845 861 860
f 846 847 862
f 846 862 861
f 847 848 863
f 847 863 862
f 848 849 864
f 848 864 863
f 849 850 865
f 849 865 864
f 850 851 866
f 850 866 865
f 852 853 868
f 852 868 867
f 853 854 869
f 853 869 868
f 854 855 870
f 854 870 869
f 855 856 871
f 855 871 870
f 856 857 872
f 856 872 871
f 857 858 873
f 857 873 872
f 858 859 874
f 858 874 873
f 859 860 875
f 859 875 874
f 860 861 876
f 860 876 875
f 861 862 877
f 861 877 876
f 862 863 878
f 862 878 877
f 863 864 879
f 863 879 878
f 864 865 880
f 864 880 879
f 865 866 881
f 865 881 880
f 867 868 883
f 867 883 882
f 868 869 884
f 868 884 883
f 869 870 885
f 869 885 884
f 870 871 886
f 870 886 885
f 871 872 887
f 871 887 886
f 872 873 888
f 872 888 887
f 873 874 889
f 873 889 888
f 874 875 890
f 874 890 889
f 875 876 891
f 875 891 890
f 876 877 892
f 876 892 891
f 877 878 893
f 877 893 892
f 878 879 894
f 878 894 893
f 879 880 895
f 879 895 894
f 880 881 896
f 880 896 895
f 507 508 703
f 507 703 702
f 508 509 704
f 508 704 703
f 509 510 705
f 509 705 704
f 510 511 706
f 510 706 705
f 511 512 707
f 511 707 706
f 512 513 708
f 512 708 707
f 513 514 709
f 513 709 708
f 514 515 710
f 514 710 709
f 515 516 711
f 515 711 710
f 516 517 712
f 516 712 711
f 517 518 713
f 517 713 712
f 518 519 714
f 518 714 713
f 519 520 715
f 519 715 714
f 520 521 716
f 520 716 715
f 687 882 883
f 687 883 688
f 688 883 884
f 688 884 689
f 689 884 885
f 689 885 690
f 690 885 886
f 690 886 691
f 691 886 887
f 691 887 692
f 692 887 888
f 692 888 693
f 693 888 889
f 693 889 694
f 694 889 890
f 694 890 695
f 695 890 891
f 695 891 696
f 696 891 892
f 696 892 697
f 697 892 893
f 697 893 698
f 698 893 894
f 698 894 699
f 699 894 895
f 699 895 700
f 700 895 896
f 700 896 701
f 507 702 717
f 507 717 522
f 522 717 732
f 522 732 537
f 537 732 747
f 537 747 552
f 552 747 762
f 552 762 567
f 567 762 777
f 567 777 582
f 582 777 792
f 582 792 597
f 597 792 807
f 597 807 612
f 612 807 822
f 612 822 627
f 627 822 837
f 627 837 642
f 642 837 852
f 642 852 657
f 657 852 867
f 657 867 672
f 672 867 882
f 672 882 687
f 521 536 731
f 521 731 716
f 536 551 746
f 536 746 731
f 551 566 761
f 551 761 746
f 566 581 776
f 566 776 761
f 581 596 791
f 581 791 776
f 596 611 806
f 596 806 791
f 611 626 821
f 611 821 806
f 626 641 836
f 626 836 821
f 641 656 851
f 641 851 836
f 656 671 866
f 656 866 851
f 671 686 881
f 671 881 866
f 686 701 896
f 686 896 881
