ISO-10303-21;
HEADER;
FILE_DESCRIPTION(('ViewDefinition [CoordinationView]'),'2;1');
FILE_NAME('','2026-06-08T01:45:24',(''),(''),'IfcOpenShell 0.8.5-1c5b825','IfcOpenShell 0.8.5-1c5b825','');
FILE_SCHEMA(('IFC4'));
ENDSEC;
DATA;
#1=IFCPERSON('EW','EngiWorld',$,$,$,$,$,$);
#2=IFCORGANIZATION('EW','EngiWorld',$,$,$);
#3=IFCPERSONANDORGANIZATION(#1,#2,$);
#4=IFCORGANIZATION('GS','Graphisoft',$,$,$);
#5=IFCAPPLICATION(#4,'27','Archicad CLI task generator','ARCHICAD-CLI');
#6=IFCOWNERHISTORY(#3,#5,$,.ADDED.,$,$,$,1780854324);
#7=IFCCARTESIANPOINT((0.,0.,0.));
#8=IFCDIRECTION((0.,0.,1.));
#9=IFCDIRECTION((1.,0.,0.));
#10=IFCAXIS2PLACEMENT3D(#7,#8,#9);
#11=IFCDIRECTION((0.,1.,0.));
#12=IFCGEOMETRICREPRESENTATIONCONTEXT('Model','Model',3,1.0000000000000001E-05,#10,#11);
#13=IFCSIUNIT(*,.LENGTHUNIT.,$,.METRE.);
#14=IFCSIUNIT(*,.AREAUNIT.,$,.SQUARE_METRE.);
#15=IFCSIUNIT(*,.VOLUMEUNIT.,$,.CUBIC_METRE.);
#16=IFCUNITASSIGNMENT((#13,#14,#15));
#17=IFCPROJECT('3PYkgU8Kz8$x3oUdwvbXqa',#6,'EngiWorld Archicad Task 13',$,$,$,$,(#12),#16);
#18=IFCCARTESIANPOINT((0.,0.,0.));
#19=IFCDIRECTION((0.,0.,1.));
#20=IFCDIRECTION((1.,0.,0.));
#21=IFCAXIS2PLACEMENT3D(#18,#19,#20);
#22=IFCLOCALPLACEMENT($,#21);
#23=IFCSITE('0mDQz4KWD51QZC2abMQuuC',#6,'EngiWorld Test Site',$,$,#22,$,$,$,$,$,$,$,$);
#24=IFCCARTESIANPOINT((0.,0.,0.));
#25=IFCDIRECTION((0.,0.,1.));
#26=IFCDIRECTION((1.,0.,0.));
#27=IFCAXIS2PLACEMENT3D(#24,#25,#26);
#28=IFCLOCALPLACEMENT($,#27);
#29=IFCBUILDING('3GYamXNHr2NeTsWPkoX0Yd',#6,'Two-Storey Apartment Split',$,$,#28,$,$,$,$,$,$);
#30=IFCRELAGGREGATES('32h8go52X1SRf8xBnMmhYU',#6,'Project decomposition',$,#17,(#23));
#31=IFCRELAGGREGATES('2iECYooMDCuelvgVjPYz$B',#6,'Site decomposition',$,#23,(#29));
#32=IFCCARTESIANPOINT((0.,0.,0.));
#33=IFCDIRECTION((0.,0.,1.));
#34=IFCDIRECTION((1.,0.,0.));
#35=IFCAXIS2PLACEMENT3D(#32,#33,#34);
#36=IFCLOCALPLACEMENT($,#35);
#37=IFCBUILDINGSTOREY('0mXabMrwLE98UdUwnj4B95',#6,'Ground Floor',$,$,#36,$,$,$,0.);
#38=IFCCARTESIANPOINT((0.,0.,3.2999999999999998));
#39=IFCDIRECTION((0.,0.,1.));
#40=IFCDIRECTION((1.,0.,0.));
#41=IFCAXIS2PLACEMENT3D(#38,#39,#40);
#42=IFCLOCALPLACEMENT($,#41);
#43=IFCBUILDINGSTOREY('04q$yn5h52CuA_7_hk6hKS',#6,'Level 1',$,$,#42,$,$,$,3.2999999999999998);
#44=IFCRELAGGREGATES('0e5hizc9XAtRbLV2TzS77W',#6,'Building storeys',$,#29,(#37,#43));
#45=IFCCARTESIANPOINT((7.,2.,0.));
#46=IFCDIRECTION((0.,0.,1.));
#47=IFCDIRECTION((1.,0.,0.));
#48=IFCAXIS2PLACEMENT3D(#45,#46,#47);
#49=IFCLOCALPLACEMENT($,#48);
#50=IFCCARTESIANPOINT((0.,0.));
#51=IFCDIRECTION((1.,0.));
#52=IFCAXIS2PLACEMENT2D(#50,#51);
#53=IFCRECTANGLEPROFILEDEF(.AREA.,$,#52,14.,4.);
#54=IFCCARTESIANPOINT((0.,0.,0.));
#55=IFCDIRECTION((0.,0.,1.));
#56=IFCDIRECTION((1.,0.,0.));
#57=IFCAXIS2PLACEMENT3D(#54,#55,#56);
#58=IFCDIRECTION((0.,0.,1.));
#59=IFCEXTRUDEDAREASOLID(#53,#57,#58,0.17999999999999999);
#60=IFCSHAPEREPRESENTATION(#12,'Body','SweptSolid',(#59));
#61=IFCPRODUCTDEFINITIONSHAPE($,$,(#60));
#62=IFCSLAB('1VOJ2eD492y90hcMSYf3cj',#6,'Ground Floor slab',$,$,#49,#61,$,.FLOOR.);
#63=IFCCARTESIANPOINT((7.,0.089999999999999997,0.));
#64=IFCDIRECTION((0.,0.,1.));
#65=IFCDIRECTION((1.,0.,0.));
#66=IFCAXIS2PLACEMENT3D(#63,#64,#65);
#67=IFCLOCALPLACEMENT($,#66);
#68=IFCCARTESIANPOINT((0.,0.));
#69=IFCDIRECTION((1.,0.));
#70=IFCAXIS2PLACEMENT2D(#68,#69);
#71=IFCRECTANGLEPROFILEDEF(.AREA.,$,#70,14.,0.17999999999999999);
#72=IFCCARTESIANPOINT((0.,0.,0.));
#73=IFCDIRECTION((0.,0.,1.));
#74=IFCDIRECTION((1.,0.,0.));
#75=IFCAXIS2PLACEMENT3D(#72,#73,#74);
#76=IFCDIRECTION((0.,0.,1.));
#77=IFCEXTRUDEDAREASOLID(#71,#75,#76,3.1499999999999999);
#78=IFCSHAPEREPRESENTATION(#12,'Body','SweptSolid',(#77));
#79=IFCPRODUCTDEFINITIONSHAPE($,$,(#78));
#80=IFCWALL('26CyXVI6LCh8x2m$LO4S_O',#6,'Ground Floor wall 1',$,$,#67,#79,$,$);
#81=IFCCARTESIANPOINT((7.,3.9100000000000001,0.));
#82=IFCDIRECTION((0.,0.,1.));
#83=IFCDIRECTION((1.,0.,0.));
#84=IFCAXIS2PLACEMENT3D(#81,#82,#83);
#85=IFCLOCALPLACEMENT($,#84);
#86=IFCCARTESIANPOINT((0.,0.));
#87=IFCDIRECTION((1.,0.));
#88=IFCAXIS2PLACEMENT2D(#86,#87);
#89=IFCRECTANGLEPROFILEDEF(.AREA.,$,#88,14.,0.17999999999999999);
#90=IFCCARTESIANPOINT((0.,0.,0.));
#91=IFCDIRECTION((0.,0.,1.));
#92=IFCDIRECTION((1.,0.,0.));
#93=IFCAXIS2PLACEMENT3D(#90,#91,#92);
#94=IFCDIRECTION((0.,0.,1.));
#95=IFCEXTRUDEDAREASOLID(#89,#93,#94,3.1499999999999999);
#96=IFCSHAPEREPRESENTATION(#12,'Body','SweptSolid',(#95));
#97=IFCPRODUCTDEFINITIONSHAPE($,$,(#96));
#98=IFCWALL('2GMze6FZ58NhPgbC9I9xoc',#6,'Ground Floor wall 2',$,$,#85,#97,$,$);
#99=IFCCARTESIANPOINT((0.089999999999999997,2.,0.));
#100=IFCDIRECTION((0.,0.,1.));
#101=IFCDIRECTION((1.,0.,0.));
#102=IFCAXIS2PLACEMENT3D(#99,#100,#101);
#103=IFCLOCALPLACEMENT($,#102);
#104=IFCCARTESIANPOINT((0.,0.));
#105=IFCDIRECTION((1.,0.));
#106=IFCAXIS2PLACEMENT2D(#104,#105);
#107=IFCRECTANGLEPROFILEDEF(.AREA.,$,#106,0.17999999999999999,4.);
#108=IFCCARTESIANPOINT((0.,0.,0.));
#109=IFCDIRECTION((0.,0.,1.));
#110=IFCDIRECTION((1.,0.,0.));
#111=IFCAXIS2PLACEMENT3D(#108,#109,#110);
#112=IFCDIRECTION((0.,0.,1.));
#113=IFCEXTRUDEDAREASOLID(#107,#111,#112,3.1499999999999999);
#114=IFCSHAPEREPRESENTATION(#12,'Body','SweptSolid',(#113));
#115=IFCPRODUCTDEFINITIONSHAPE($,$,(#114));
#116=IFCWALL('0zTX0$LJn33u7HzM9Up_Vx',#6,'Ground Floor wall 3',$,$,#103,#115,$,$);
#117=IFCCARTESIANPOINT((13.91,2.,0.));
#118=IFCDIRECTION((0.,0.,1.));
#119=IFCDIRECTION((1.,0.,0.));
#120=IFCAXIS2PLACEMENT3D(#117,#118,#119);
#121=IFCLOCALPLACEMENT($,#120);
#122=IFCCARTESIANPOINT((0.,0.));
#123=IFCDIRECTION((1.,0.));
#124=IFCAXIS2PLACEMENT2D(#122,#123);
#125=IFCRECTANGLEPROFILEDEF(.AREA.,$,#124,0.17999999999999999,4.);
#126=IFCCARTESIANPOINT((0.,0.,0.));
#127=IFCDIRECTION((0.,0.,1.));
#128=IFCDIRECTION((1.,0.,0.));
#129=IFCAXIS2PLACEMENT3D(#126,#127,#128);
#130=IFCDIRECTION((0.,0.,1.));
#131=IFCEXTRUDEDAREASOLID(#125,#129,#130,3.1499999999999999);
#132=IFCSHAPEREPRESENTATION(#12,'Body','SweptSolid',(#131));
#133=IFCPRODUCTDEFINITIONSHAPE($,$,(#132));
#134=IFCWALL('1LM5yEean08uA74iA7UEuS',#6,'Ground Floor wall 4',$,$,#121,#133,$,$);
#135=IFCCARTESIANPOINT((7.,2.,3.2999999999999998));
#136=IFCDIRECTION((0.,0.,1.));
#137=IFCDIRECTION((1.,0.,0.));
#138=IFCAXIS2PLACEMENT3D(#135,#136,#137);
#139=IFCLOCALPLACEMENT($,#138);
#140=IFCCARTESIANPOINT((0.,0.));
#141=IFCDIRECTION((1.,0.));
#142=IFCAXIS2PLACEMENT2D(#140,#141);
#143=IFCRECTANGLEPROFILEDEF(.AREA.,$,#142,14.,4.);
#144=IFCCARTESIANPOINT((0.,0.,0.));
#145=IFCDIRECTION((0.,0.,1.));
#146=IFCDIRECTION((1.,0.,0.));
#147=IFCAXIS2PLACEMENT3D(#144,#145,#146);
#148=IFCDIRECTION((0.,0.,1.));
#149=IFCEXTRUDEDAREASOLID(#143,#147,#148,0.17999999999999999);
#150=IFCSHAPEREPRESENTATION(#12,'Body','SweptSolid',(#149));
#151=IFCPRODUCTDEFINITIONSHAPE($,$,(#150));
#152=IFCSLAB('2PSzFggevCIvnvspjkTNvj',#6,'Level 1 slab',$,$,#139,#151,$,.FLOOR.);
#153=IFCCARTESIANPOINT((7.,0.089999999999999997,3.2999999999999998));
#154=IFCDIRECTION((0.,0.,1.));
#155=IFCDIRECTION((1.,0.,0.));
#156=IFCAXIS2PLACEMENT3D(#153,#154,#155);
#157=IFCLOCALPLACEMENT($,#156);
#158=IFCCARTESIANPOINT((0.,0.));
#159=IFCDIRECTION((1.,0.));
#160=IFCAXIS2PLACEMENT2D(#158,#159);
#161=IFCRECTANGLEPROFILEDEF(.AREA.,$,#160,14.,0.17999999999999999);
#162=IFCCARTESIANPOINT((0.,0.,0.));
#163=IFCDIRECTION((0.,0.,1.));
#164=IFCDIRECTION((1.,0.,0.));
#165=IFCAXIS2PLACEMENT3D(#162,#163,#164);
#166=IFCDIRECTION((0.,0.,1.));
#167=IFCEXTRUDEDAREASOLID(#161,#165,#166,3.1499999999999999);
#168=IFCSHAPEREPRESENTATION(#12,'Body','SweptSolid',(#167));
#169=IFCPRODUCTDEFINITIONSHAPE($,$,(#168));
#170=IFCWALL('0_etOCrbHAfhe3dJUYOMmz',#6,'Level 1 wall 1',$,$,#157,#169,$,$);
#171=IFCCARTESIANPOINT((7.,3.9100000000000001,3.2999999999999998));
#172=IFCDIRECTION((0.,0.,1.));
#173=IFCDIRECTION((1.,0.,0.));
#174=IFCAXIS2PLACEMENT3D(#171,#172,#173);
#175=IFCLOCALPLACEMENT($,#174);
#176=IFCCARTESIANPOINT((0.,0.));
#177=IFCDIRECTION((1.,0.));
#178=IFCAXIS2PLACEMENT2D(#176,#177);
#179=IFCRECTANGLEPROFILEDEF(.AREA.,$,#178,14.,0.17999999999999999);
#180=IFCCARTESIANPOINT((0.,0.,0.));
#181=IFCDIRECTION((0.,0.,1.));
#182=IFCDIRECTION((1.,0.,0.));
#183=IFCAXIS2PLACEMENT3D(#180,#181,#182);
#184=IFCDIRECTION((0.,0.,1.));
#185=IFCEXTRUDEDAREASOLID(#179,#183,#184,3.1499999999999999);
#186=IFCSHAPEREPRESENTATION(#12,'Body','SweptSolid',(#185));
#187=IFCPRODUCTDEFINITIONSHAPE($,$,(#186));
#188=IFCWALL('0qg$Hne9j4kRXnIqm4Bw5y',#6,'Level 1 wall 2',$,$,#175,#187,$,$);
#189=IFCCARTESIANPOINT((0.089999999999999997,2.,3.2999999999999998));
#190=IFCDIRECTION((0.,0.,1.));
#191=IFCDIRECTION((1.,0.,0.));
#192=IFCAXIS2PLACEMENT3D(#189,#190,#191);
#193=IFCLOCALPLACEMENT($,#192);
#194=IFCCARTESIANPOINT((0.,0.));
#195=IFCDIRECTION((1.,0.));
#196=IFCAXIS2PLACEMENT2D(#194,#195);
#197=IFCRECTANGLEPROFILEDEF(.AREA.,$,#196,0.17999999999999999,4.);
#198=IFCCARTESIANPOINT((0.,0.,0.));
#199=IFCDIRECTION((0.,0.,1.));
#200=IFCDIRECTION((1.,0.,0.));
#201=IFCAXIS2PLACEMENT3D(#198,#199,#200);
#202=IFCDIRECTION((0.,0.,1.));
#203=IFCEXTRUDEDAREASOLID(#197,#201,#202,3.1499999999999999);
#204=IFCSHAPEREPRESENTATION(#12,'Body','SweptSolid',(#203));
#205=IFCPRODUCTDEFINITIONSHAPE($,$,(#204));
#206=IFCWALL('0r1SXxexf2Z9pjNqW7T8RU',#6,'Level 1 wall 3',$,$,#193,#205,$,$);
#207=IFCCARTESIANPOINT((13.91,2.,3.2999999999999998));
#208=IFCDIRECTION((0.,0.,1.));
#209=IFCDIRECTION((1.,0.,0.));
#210=IFCAXIS2PLACEMENT3D(#207,#208,#209);
#211=IFCLOCALPLACEMENT($,#210);
#212=IFCCARTESIANPOINT((0.,0.));
#213=IFCDIRECTION((1.,0.));
#214=IFCAXIS2PLACEMENT2D(#212,#213);
#215=IFCRECTANGLEPROFILEDEF(.AREA.,$,#214,0.17999999999999999,4.);
#216=IFCCARTESIANPOINT((0.,0.,0.));
#217=IFCDIRECTION((0.,0.,1.));
#218=IFCDIRECTION((1.,0.,0.));
#219=IFCAXIS2PLACEMENT3D(#216,#217,#218);
#220=IFCDIRECTION((0.,0.,1.));
#221=IFCEXTRUDEDAREASOLID(#215,#219,#220,3.1499999999999999);
#222=IFCSHAPEREPRESENTATION(#12,'Body','SweptSolid',(#221));
#223=IFCPRODUCTDEFINITIONSHAPE($,$,(#222));
#224=IFCWALL('1LUQwCy4rDOevc0Y8A_of_',#6,'Level 1 wall 4',$,$,#211,#223,$,$);
#225=IFCCARTESIANPOINT((7.,2.,6.3999999999999995));
#226=IFCDIRECTION((0.,0.,1.));
#227=IFCDIRECTION((1.,0.,0.));
#228=IFCAXIS2PLACEMENT3D(#225,#226,#227);
#229=IFCLOCALPLACEMENT($,#228);
#230=IFCCARTESIANPOINT((0.,0.));
#231=IFCDIRECTION((1.,0.));
#232=IFCAXIS2PLACEMENT2D(#230,#231);
#233=IFCRECTANGLEPROFILEDEF(.AREA.,$,#232,14.,4.);
#234=IFCCARTESIANPOINT((0.,0.,0.));
#235=IFCDIRECTION((0.,0.,1.));
#236=IFCDIRECTION((1.,0.,0.));
#237=IFCAXIS2PLACEMENT3D(#234,#235,#236);
#238=IFCDIRECTION((0.,0.,1.));
#239=IFCEXTRUDEDAREASOLID(#233,#237,#238,0.20000000000000001);
#240=IFCSHAPEREPRESENTATION(#12,'Body','SweptSolid',(#239));
#241=IFCPRODUCTDEFINITIONSHAPE($,$,(#240));
#242=IFCROOF('3IH2_2Hiz1yuZIz3frS91w',#6,'roof segment 1',$,$,#229,#241,$,.FLAT_ROOF.);
#243=IFCCARTESIANPOINT((0.90000000000000002,0.080000000000000002,0.050000000000000003));
#244=IFCDIRECTION((0.,0.,1.));
#245=IFCDIRECTION((1.,0.,0.));
#246=IFCAXIS2PLACEMENT3D(#243,#244,#245);
#247=IFCLOCALPLACEMENT($,#246);
#248=IFCCARTESIANPOINT((0.,0.));
#249=IFCDIRECTION((1.,0.));
#250=IFCAXIS2PLACEMENT2D(#248,#249);
#251=IFCRECTANGLEPROFILEDEF(.AREA.,$,#250,0.90000000000000002,0.080000000000000002);
#252=IFCCARTESIANPOINT((0.,0.,0.));
#253=IFCDIRECTION((0.,0.,1.));
#254=IFCDIRECTION((1.,0.,0.));
#255=IFCAXIS2PLACEMENT3D(#252,#253,#254);
#256=IFCDIRECTION((0.,0.,1.));
#257=IFCEXTRUDEDAREASOLID(#251,#255,#256,2.1000000000000001);
#258=IFCSHAPEREPRESENTATION(#12,'Body','SweptSolid',(#257));
#259=IFCPRODUCTDEFINITIONSHAPE($,$,(#258));
#260=IFCDOOR('2Yqh6wKXjEB9W7MwvZbiXE',#6,'door 1',$,$,#247,#259,$,2.1000000000000001,0.90000000000000002,.DOOR.,$,$);
#261=IFCCARTESIANPOINT((2.4249999999999998,3.9199999999999999,3.3499999999999996));
#262=IFCDIRECTION((0.,0.,1.));
#263=IFCDIRECTION((1.,0.,0.));
#264=IFCAXIS2PLACEMENT3D(#261,#262,#263);
#265=IFCLOCALPLACEMENT($,#264);
#266=IFCCARTESIANPOINT((0.,0.));
#267=IFCDIRECTION((1.,0.));
#268=IFCAXIS2PLACEMENT2D(#266,#267);
#269=IFCRECTANGLEPROFILEDEF(.AREA.,$,#268,0.90000000000000002,0.080000000000000002);
#270=IFCCARTESIANPOINT((0.,0.,0.));
#271=IFCDIRECTION((0.,0.,1.));
#272=IFCDIRECTION((1.,0.,0.));
#273=IFCAXIS2PLACEMENT3D(#270,#271,#272);
#274=IFCDIRECTION((0.,0.,1.));
#275=IFCEXTRUDEDAREASOLID(#269,#273,#274,2.1000000000000001);
#276=IFCSHAPEREPRESENTATION(#12,'Body','SweptSolid',(#275));
#277=IFCPRODUCTDEFINITIONSHAPE($,$,(#276));
#278=IFCDOOR('258ZWlqxvAYxVkZUMl49g0',#6,'door 2',$,$,#265,#277,$,2.1000000000000001,0.90000000000000002,.DOOR.,$,$);
#279=IFCCARTESIANPOINT((3.9499999999999997,0.080000000000000002,0.050000000000000003));
#280=IFCDIRECTION((0.,0.,1.));
#281=IFCDIRECTION((1.,0.,0.));
#282=IFCAXIS2PLACEMENT3D(#279,#280,#281);
#283=IFCLOCALPLACEMENT($,#282);
#284=IFCCARTESIANPOINT((0.,0.));
#285=IFCDIRECTION((1.,0.));
#286=IFCAXIS2PLACEMENT2D(#284,#285);
#287=IFCRECTANGLEPROFILEDEF(.AREA.,$,#286,0.90000000000000002,0.080000000000000002);
#288=IFCCARTESIANPOINT((0.,0.,0.));
#289=IFCDIRECTION((0.,0.,1.));
#290=IFCDIRECTION((1.,0.,0.));
#291=IFCAXIS2PLACEMENT3D(#288,#289,#290);
#292=IFCDIRECTION((0.,0.,1.));
#293=IFCEXTRUDEDAREASOLID(#287,#291,#292,2.1000000000000001);
#294=IFCSHAPEREPRESENTATION(#12,'Body','SweptSolid',(#293));
#295=IFCPRODUCTDEFINITIONSHAPE($,$,(#294));
#296=IFCDOOR('2foUAoGqDEb8GUdkhA7L7J',#6,'door 3',$,$,#283,#295,$,2.1000000000000001,0.90000000000000002,.DOOR.,$,$);
#297=IFCCARTESIANPOINT((5.4749999999999996,3.9199999999999999,3.3499999999999996));
#298=IFCDIRECTION((0.,0.,1.));
#299=IFCDIRECTION((1.,0.,0.));
#300=IFCAXIS2PLACEMENT3D(#297,#298,#299);
#301=IFCLOCALPLACEMENT($,#300);
#302=IFCCARTESIANPOINT((0.,0.));
#303=IFCDIRECTION((1.,0.));
#304=IFCAXIS2PLACEMENT2D(#302,#303);
#305=IFCRECTANGLEPROFILEDEF(.AREA.,$,#304,0.90000000000000002,0.080000000000000002);
#306=IFCCARTESIANPOINT((0.,0.,0.));
#307=IFCDIRECTION((0.,0.,1.));
#308=IFCDIRECTION((1.,0.,0.));
#309=IFCAXIS2PLACEMENT3D(#306,#307,#308);
#310=IFCDIRECTION((0.,0.,1.));
#311=IFCEXTRUDEDAREASOLID(#305,#309,#310,2.1000000000000001);
#312=IFCSHAPEREPRESENTATION(#12,'Body','SweptSolid',(#311));
#313=IFCPRODUCTDEFINITIONSHAPE($,$,(#312));
#314=IFCDOOR('1czE6BBhf3v8GtMspoiO6K',#6,'door 4',$,$,#301,#313,$,2.1000000000000001,0.90000000000000002,.DOOR.,$,$);
#315=IFCCARTESIANPOINT((2.7666666666666666,1.7000000000000002,0.050000000000000003));
#316=IFCDIRECTION((0.,0.,1.));
#317=IFCDIRECTION((1.,0.,0.));
#318=IFCAXIS2PLACEMENT3D(#315,#316,#317);
#319=IFCLOCALPLACEMENT($,#318);
#320=IFCCARTESIANPOINT((0.,0.));
#321=IFCDIRECTION((1.,0.));
#322=IFCAXIS2PLACEMENT2D(#320,#321);
#323=IFCRECTANGLEPROFILEDEF(.AREA.,$,#322,3.25,1.6500000000000001);
#324=IFCCARTESIANPOINT((0.,0.,0.));
#325=IFCDIRECTION((0.,0.,1.));
#326=IFCDIRECTION((1.,0.,0.));
#327=IFCAXIS2PLACEMENT3D(#324,#325,#326);
#328=IFCDIRECTION((0.,0.,1.));
#329=IFCEXTRUDEDAREASOLID(#323,#327,#328,2.8499999999999996);
#330=IFCSHAPEREPRESENTATION(#12,'Body','SweptSolid',(#329));
#331=IFCPRODUCTDEFINITIONSHAPE($,$,(#330));
#332=IFCSPACE('3o4dIq3iT25A8xpLhSJana',#6,'APT-101-LIVING',$,$,#319,#331,$,$,.INTERNAL.,$);
#333=IFCPROPERTYSINGLEVALUE('ZoneNumber',$,IFCTEXT('101-L'),$);
#334=IFCPROPERTYSINGLEVALUE('Area',$,IFCREAL(20.),$);
#335=IFCPROPERTYSINGLEVALUE('Outdoor',$,IFCBOOLEAN(.F.),$);
#336=IFCPROPERTYSINGLEVALUE('Department',$,IFCTEXT('RESIDENTIAL'),$);
#337=IFCPROPERTYSET('0F_tpyF8516P2RCzYTpU9r',#6,'Pset_EngiWorld',$,(#333,#334,#335,#336));
#338=IFCRELDEFINESBYPROPERTIES('05RUbtHMrF28Jv85swk3kM',#6,'APT-101-LIVING properties',$,(#332),#337);
#339=IFCCARTESIANPOINT((7.0999999999999996,1.7000000000000002,0.050000000000000003));
#340=IFCDIRECTION((0.,0.,1.));
#341=IFCDIRECTION((1.,0.,0.));
#342=IFCAXIS2PLACEMENT3D(#339,#340,#341);
#343=IFCLOCALPLACEMENT($,#342);
#344=IFCCARTESIANPOINT((0.,0.));
#345=IFCDIRECTION((1.,0.));
#346=IFCAXIS2PLACEMENT2D(#344,#345);
#347=IFCRECTANGLEPROFILEDEF(.AREA.,$,#346,3.25,1.6500000000000001);
#348=IFCCARTESIANPOINT((0.,0.,0.));
#349=IFCDIRECTION((0.,0.,1.));
#350=IFCDIRECTION((1.,0.,0.));
#351=IFCAXIS2PLACEMENT3D(#348,#349,#350);
#352=IFCDIRECTION((0.,0.,1.));
#353=IFCEXTRUDEDAREASOLID(#347,#351,#352,2.8499999999999996);
#354=IFCSHAPEREPRESENTATION(#12,'Body','SweptSolid',(#353));
#355=IFCPRODUCTDEFINITIONSHAPE($,$,(#354));
#356=IFCSPACE('0iImXBqBL8zxEvqug1uMSZ',#6,'APT-101-KITCHEN',$,$,#343,#355,$,$,.INTERNAL.,$);
#357=IFCPROPERTYSINGLEVALUE('ZoneNumber',$,IFCTEXT('101-K'),$);
#358=IFCPROPERTYSINGLEVALUE('Area',$,IFCREAL(20.),$);
#359=IFCPROPERTYSINGLEVALUE('Outdoor',$,IFCBOOLEAN(.F.),$);
#360=IFCPROPERTYSINGLEVALUE('Department',$,IFCTEXT('RESIDENTIAL'),$);
#361=IFCPROPERTYSET('0ABNF$SRz6U9fFbRGWygGS',#6,'Pset_EngiWorld',$,(#357,#358,#359,#360));
#362=IFCRELDEFINESBYPROPERTIES('3pjBzssFD5DATwOTzO04EK',#6,'APT-101-KITCHEN properties',$,(#356),#361);
#363=IFCCARTESIANPOINT((11.433333333333332,1.7000000000000002,0.050000000000000003));
#364=IFCDIRECTION((0.,0.,1.));
#365=IFCDIRECTION((1.,0.,0.));
#366=IFCAXIS2PLACEMENT3D(#363,#364,#365);
#367=IFCLOCALPLACEMENT($,#366);
#368=IFCCARTESIANPOINT((0.,0.));
#369=IFCDIRECTION((1.,0.));
#370=IFCAXIS2PLACEMENT2D(#368,#369);
#371=IFCRECTANGLEPROFILEDEF(.AREA.,$,#370,3.25,1.6500000000000001);
#372=IFCCARTESIANPOINT((0.,0.,0.));
#373=IFCDIRECTION((0.,0.,1.));
#374=IFCDIRECTION((1.,0.,0.));
#375=IFCAXIS2PLACEMENT3D(#372,#373,#374);
#376=IFCDIRECTION((0.,0.,1.));
#377=IFCEXTRUDEDAREASOLID(#371,#375,#376,2.8499999999999996);
#378=IFCSHAPEREPRESENTATION(#12,'Body','SweptSolid',(#377));
#379=IFCPRODUCTDEFINITIONSHAPE($,$,(#378));
#380=IFCSPACE('2Z910QLmz8WuMbJSi$Yifx',#6,'APT-101-BED',$,$,#367,#379,$,$,.INTERNAL.,$);
#381=IFCPROPERTYSINGLEVALUE('ZoneNumber',$,IFCTEXT('101-B'),$);
#382=IFCPROPERTYSINGLEVALUE('Area',$,IFCREAL(16.),$);
#383=IFCPROPERTYSINGLEVALUE('Outdoor',$,IFCBOOLEAN(.F.),$);
#384=IFCPROPERTYSINGLEVALUE('Department',$,IFCTEXT('RESIDENTIAL'),$);
#385=IFCPROPERTYSET('1L502T5DvBtQ7OGTt2SFK$',#6,'Pset_EngiWorld',$,(#381,#382,#383,#384));
#386=IFCRELDEFINESBYPROPERTIES('1plkrLflf7IgMTGSpB08y7',#6,'APT-101-BED properties',$,(#380),#385);
#387=IFCCARTESIANPOINT((2.7666666666666666,2.6000000000000001,3.3499999999999996));
#388=IFCDIRECTION((0.,0.,1.));
#389=IFCDIRECTION((1.,0.,0.));
#390=IFCAXIS2PLACEMENT3D(#387,#388,#389);
#391=IFCLOCALPLACEMENT($,#390);
#392=IFCCARTESIANPOINT((0.,0.));
#393=IFCDIRECTION((1.,0.));
#394=IFCAXIS2PLACEMENT2D(#392,#393);
#395=IFCRECTANGLEPROFILEDEF(.AREA.,$,#394,3.25,1.6500000000000001);
#396=IFCCARTESIANPOINT((0.,0.,0.));
#397=IFCDIRECTION((0.,0.,1.));
#398=IFCDIRECTION((1.,0.,0.));
#399=IFCAXIS2PLACEMENT3D(#396,#397,#398);
#400=IFCDIRECTION((0.,0.,1.));
#401=IFCEXTRUDEDAREASOLID(#395,#399,#400,2.8499999999999996);
#402=IFCSHAPEREPRESENTATION(#12,'Body','SweptSolid',(#401));
#403=IFCPRODUCTDEFINITIONSHAPE($,$,(#402));
#404=IFCSPACE('0Jm87hR2b4O81CuZ5H5ZES',#6,'APT-201-LIVING',$,$,#391,#403,$,$,.INTERNAL.,$);
#405=IFCPROPERTYSINGLEVALUE('ZoneNumber',$,IFCTEXT('201-L'),$);
#406=IFCPROPERTYSINGLEVALUE('Area',$,IFCREAL(20.),$);
#407=IFCPROPERTYSINGLEVALUE('Outdoor',$,IFCBOOLEAN(.F.),$);
#408=IFCPROPERTYSINGLEVALUE('Department',$,IFCTEXT('RESIDENTIAL'),$);
#409=IFCPROPERTYSET('122mo$U7b6hvvbg6cvKxxs',#6,'Pset_EngiWorld',$,(#405,#406,#407,#408));
#410=IFCRELDEFINESBYPROPERTIES('3maml3$jLA4vvwU09$ZlIs',#6,'APT-201-LIVING properties',$,(#404),#409);
#411=IFCCARTESIANPOINT((7.0999999999999996,2.6000000000000001,3.3499999999999996));
#412=IFCDIRECTION((0.,0.,1.));
#413=IFCDIRECTION((1.,0.,0.));
#414=IFCAXIS2PLACEMENT3D(#411,#412,#413);
#415=IFCLOCALPLACEMENT($,#414);
#416=IFCCARTESIANPOINT((0.,0.));
#417=IFCDIRECTION((1.,0.));
#418=IFCAXIS2PLACEMENT2D(#416,#417);
#419=IFCRECTANGLEPROFILEDEF(.AREA.,$,#418,3.25,1.6500000000000001);
#420=IFCCARTESIANPOINT((0.,0.,0.));
#421=IFCDIRECTION((0.,0.,1.));
#422=IFCDIRECTION((1.,0.,0.));
#423=IFCAXIS2PLACEMENT3D(#420,#421,#422);
#424=IFCDIRECTION((0.,0.,1.));
#425=IFCEXTRUDEDAREASOLID(#419,#423,#424,2.8499999999999996);
#426=IFCSHAPEREPRESENTATION(#12,'Body','SweptSolid',(#425));
#427=IFCPRODUCTDEFINITIONSHAPE($,$,(#426));
#428=IFCSPACE('17fIaVWD50xQZseeFecHsI',#6,'APT-201-KITCHEN',$,$,#415,#427,$,$,.INTERNAL.,$);
#429=IFCPROPERTYSINGLEVALUE('ZoneNumber',$,IFCTEXT('201-K'),$);
#430=IFCPROPERTYSINGLEVALUE('Area',$,IFCREAL(20.),$);
#431=IFCPROPERTYSINGLEVALUE('Outdoor',$,IFCBOOLEAN(.F.),$);
#432=IFCPROPERTYSINGLEVALUE('Department',$,IFCTEXT('RESIDENTIAL'),$);
#433=IFCPROPERTYSET('3eWHwqsf5B0ASocdMztP7w',#6,'Pset_EngiWorld',$,(#429,#430,#431,#432));
#434=IFCRELDEFINESBYPROPERTIES('2VdHiv71D30e4WnB0wehvD',#6,'APT-201-KITCHEN properties',$,(#428),#433);
#435=IFCCARTESIANPOINT((11.433333333333332,2.6000000000000001,3.3499999999999996));
#436=IFCDIRECTION((0.,0.,1.));
#437=IFCDIRECTION((1.,0.,0.));
#438=IFCAXIS2PLACEMENT3D(#435,#436,#437);
#439=IFCLOCALPLACEMENT($,#438);
#440=IFCCARTESIANPOINT((0.,0.));
#441=IFCDIRECTION((1.,0.));
#442=IFCAXIS2PLACEMENT2D(#440,#441);
#443=IFCRECTANGLEPROFILEDEF(.AREA.,$,#442,3.25,1.6500000000000001);
#444=IFCCARTESIANPOINT((0.,0.,0.));
#445=IFCDIRECTION((0.,0.,1.));
#446=IFCDIRECTION((1.,0.,0.));
#447=IFCAXIS2PLACEMENT3D(#444,#445,#446);
#448=IFCDIRECTION((0.,0.,1.));
#449=IFCEXTRUDEDAREASOLID(#443,#447,#448,2.8499999999999996);
#450=IFCSHAPEREPRESENTATION(#12,'Body','SweptSolid',(#449));
#451=IFCPRODUCTDEFINITIONSHAPE($,$,(#450));
#452=IFCSPACE('03YIzV8$zAJBqaFGhSXwBJ',#6,'APT-201-BED',$,$,#439,#451,$,$,.INTERNAL.,$);
#453=IFCPROPERTYSINGLEVALUE('ZoneNumber',$,IFCTEXT('201-B'),$);
#454=IFCPROPERTYSINGLEVALUE('Area',$,IFCREAL(16.),$);
#455=IFCPROPERTYSINGLEVALUE('Outdoor',$,IFCBOOLEAN(.F.),$);
#456=IFCPROPERTYSINGLEVALUE('Department',$,IFCTEXT('RESIDENTIAL'),$);
#457=IFCPROPERTYSET('27QtxlB8f35BKczJYwj07x',#6,'Pset_EngiWorld',$,(#453,#454,#455,#456));
#458=IFCRELDEFINESBYPROPERTIES('0_fdQGgtr8KABTjWNIUEuj',#6,'APT-201-BED properties',$,(#452),#457);
#459=IFCRELCONTAINEDINSPATIALSTRUCTURE('2jpwE9mqP1BhOl4_1sw1dq',#6,'Ground Floor containment',$,(#62,#80,#98,#116,#134,#260,#296,#332,#356,#380),#37);
#460=IFCRELCONTAINEDINSPATIALSTRUCTURE('0uNbf$NI11rujjdCDi2rUT',#6,'Level 1 containment',$,(#152,#170,#188,#206,#224,#242,#278,#314,#404,#428,#452),#43);
ENDSEC;
END-ISO-10303-21;
