ISO-10303-21;
HEADER;
FILE_DESCRIPTION(('ViewDefinition [CoordinationView]'),'2;1');
FILE_NAME('','2026-05-22T17:03:02',(''),(''),'IfcOpenShell 0.8.5-1c5b825','IfcOpenShell 0.8.5-1c5b825','');
FILE_SCHEMA(('IFC2X3'));
ENDSEC;
DATA;
#1=IFCPERSON('EW','Engiworld','Task',$,$,$,$,$);
#2=IFCORGANIZATION('EW','Engiworld',$,$,$);
#3=IFCPERSONANDORGANIZATION(#1,#2,$);
#4=IFCACTORROLE(.USERDEFINED.,'CONTRIBUTOR',$);
#5=IFCORGANIZATION('IfcOpenShell','IfcOpenShell','IfcOpenShell is an open source software library that helps users and software developers to work with IFC data.',(#4),(#6));
#6=IFCTELECOMADDRESS(.USERDEFINED.,$,'WEBPAGE',$,$,$,$,'https://ifcopenshell.org');
#7=IFCAPPLICATION(#5,'0.8.5','Engiworld IFC Generator','Engiworld');
#8=IFCOWNERHISTORY(#3,#7,.READWRITE.,.ADDED.,1779440582,#3,#7,1779440582);
#9=IFCPROJECT('29IcjNAq1EcAM5SGSCAmC4',#8,'v-archicad-simple-task-09-windows init',$,$,$,$,(#18),#13);
#10=IFCSIUNIT(*,.LENGTHUNIT.,.MILLI.,.METRE.);
#11=IFCSIUNIT(*,.AREAUNIT.,$,.SQUARE_METRE.);
#12=IFCSIUNIT(*,.VOLUMEUNIT.,$,.CUBIC_METRE.);
#13=IFCUNITASSIGNMENT((#11,#12,#10));
#14=IFCCARTESIANPOINT((0.,0.,0.));
#15=IFCDIRECTION((0.,0.,1.));
#16=IFCDIRECTION((1.,0.,0.));
#17=IFCAXIS2PLACEMENT3D(#14,#15,#16);
#18=IFCGEOMETRICREPRESENTATIONCONTEXT($,'Model',3,1.0000000000000001E-05,#17,$);
#19=IFCGEOMETRICREPRESENTATIONSUBCONTEXT('Body','Model',*,*,*,*,#18,$,.MODEL_VIEW.,$);
#20=IFCOWNERHISTORY(#3,#7,.READWRITE.,.ADDED.,1779440582,#3,#7,1779440582);
#21=IFCSITE('3OnBIQ2E50veSUBUpS7qmc',#20,'Default Site',$,$,$,$,$,.ELEMENT.,$,$,$,$,$);
#22=IFCOWNERHISTORY(#3,#7,.READWRITE.,.ADDED.,1779440582,#3,#7,1779440582);
#23=IFCBUILDING('3B$DSFRdj2P9lfWum64roQ',#22,'Archicad Init Building',$,$,$,$,$,.ELEMENT.,$,$,$);
#24=IFCOWNERHISTORY(#3,#7,.READWRITE.,.ADDED.,1779440582,#3,#7,1779440582);
#25=IFCRELAGGREGATES('2v7bR8WEDCfQrykqZO6AwY',#24,$,$,#9,(#21));
#26=IFCOWNERHISTORY(#3,#7,.READWRITE.,.ADDED.,1779440582,#3,#7,1779440582);
#27=IFCRELAGGREGATES('2ypaOBzE9Dq9DT3TR1DETp',#26,$,$,#21,(#23));
#28=IFCOWNERHISTORY(#3,#7,.READWRITE.,.MODIFIED.,1779440582,#3,#7,1779440582);
#29=IFCBUILDINGSTOREY('2lH7_Z4AL4zhZFIgKKO52i',#28,'Ground Floor',$,$,#36,$,$,.ELEMENT.,$);
#30=IFCOWNERHISTORY(#3,#7,.READWRITE.,.ADDED.,1779440582,#3,#7,1779440582);
#31=IFCRELAGGREGATES('1gMo$whbX5NASzAZ7eiiLn',#30,$,$,#23,(#29));
#32=IFCCARTESIANPOINT((0.,0.,0.));
#33=IFCDIRECTION((0.,0.,1.));
#34=IFCDIRECTION((1.,0.,0.));
#35=IFCAXIS2PLACEMENT3D(#32,#33,#34);
#36=IFCLOCALPLACEMENT($,#35);
#37=IFCOWNERHISTORY(#3,#7,.READWRITE.,.MODIFIED.,1779440582,#3,#7,1779440582);
#38=IFCWALL('3YOhVcCkfAyPs3YXwS$lyk',#37,'Exterior Wall 1',$,$,#65,#53,$);
#39=IFCCARTESIANPOINT((0.,0.));
#40=IFCCARTESIANPOINT((0.,200.));
#41=IFCCARTESIANPOINT((9000.,200.));
#42=IFCCARTESIANPOINT((9000.,0.));
#43=IFCCARTESIANPOINT((0.,0.));
#44=IFCPOLYLINE((#39,#40,#41,#42,#43));
#45=IFCDIRECTION((0.,0.,1.));
#46=IFCARBITRARYCLOSEDPROFILEDEF(.AREA.,$,#44);
#47=IFCCARTESIANPOINT((0.,0.,0.));
#48=IFCDIRECTION((0.,0.,1.));
#49=IFCDIRECTION((1.,0.,0.));
#50=IFCAXIS2PLACEMENT3D(#47,#48,#49);
#51=IFCEXTRUDEDAREASOLID(#46,#50,#45,3000.);
#52=IFCSHAPEREPRESENTATION(#19,'Body','SweptSolid',(#51));
#53=IFCPRODUCTDEFINITIONSHAPE($,$,(#52));
#59=IFCOWNERHISTORY(#3,#7,.READWRITE.,.MODIFIED.,1779440582,#3,#7,1779440582);
#60=IFCRELCONTAINEDINSPATIALSTRUCTURE('3FRgAambX93ez6abqd_e64',#59,$,$,(#38,#489,#658,#121,#67,#94,#857,#202,#148,#359,#229,#175),#29);
#61=IFCCARTESIANPOINT((0.,0.,0.));
#62=IFCDIRECTION((0.,0.,1.));
#63=IFCDIRECTION((1.,0.,0.));
#64=IFCAXIS2PLACEMENT3D(#61,#62,#63);
#65=IFCLOCALPLACEMENT(#36,#64);
#66=IFCOWNERHISTORY(#3,#7,.READWRITE.,.MODIFIED.,1779440582,#3,#7,1779440582);
#67=IFCWALL('2Rf_qPJVj5kea8hukssnw4',#66,'Exterior Wall 2',$,$,#92,#82,$);
#68=IFCCARTESIANPOINT((0.,0.));
#69=IFCCARTESIANPOINT((0.,200.));
#70=IFCCARTESIANPOINT((9000.,200.));
#71=IFCCARTESIANPOINT((9000.,0.));
#72=IFCCARTESIANPOINT((0.,0.));
#73=IFCPOLYLINE((#68,#69,#70,#71,#72));
#74=IFCDIRECTION((0.,0.,1.));
#75=IFCARBITRARYCLOSEDPROFILEDEF(.AREA.,$,#73);
#76=IFCCARTESIANPOINT((0.,0.,0.));
#77=IFCDIRECTION((0.,0.,1.));
#78=IFCDIRECTION((1.,0.,0.));
#79=IFCAXIS2PLACEMENT3D(#76,#77,#78);
#80=IFCEXTRUDEDAREASOLID(#75,#79,#74,3000.);
#81=IFCSHAPEREPRESENTATION(#19,'Body','SweptSolid',(#80));
#82=IFCPRODUCTDEFINITIONSHAPE($,$,(#81));
#88=IFCCARTESIANPOINT((0.,5000.,0.));
#89=IFCDIRECTION((0.,0.,1.));
#90=IFCDIRECTION((1.,0.,0.));
#91=IFCAXIS2PLACEMENT3D(#88,#89,#90);
#92=IFCLOCALPLACEMENT(#36,#91);
#93=IFCOWNERHISTORY(#3,#7,.READWRITE.,.MODIFIED.,1779440582,#3,#7,1779440582);
#94=IFCWALL('0WvxHmCD56AgkOQjR6DHfO',#93,'Exterior Wall 3',$,$,#119,#109,$);
#95=IFCCARTESIANPOINT((0.,0.));
#96=IFCCARTESIANPOINT((0.,200.));
#97=IFCCARTESIANPOINT((5000.,200.));
#98=IFCCARTESIANPOINT((5000.,0.));
#99=IFCCARTESIANPOINT((0.,0.));
#100=IFCPOLYLINE((#95,#96,#97,#98,#99));
#101=IFCDIRECTION((0.,0.,1.));
#102=IFCARBITRARYCLOSEDPROFILEDEF(.AREA.,$,#100);
#103=IFCCARTESIANPOINT((0.,0.,0.));
#104=IFCDIRECTION((0.,0.,1.));
#105=IFCDIRECTION((1.,0.,0.));
#106=IFCAXIS2PLACEMENT3D(#103,#104,#105);
#107=IFCEXTRUDEDAREASOLID(#102,#106,#101,3000.);
#108=IFCSHAPEREPRESENTATION(#19,'Body','SweptSolid',(#107));
#109=IFCPRODUCTDEFINITIONSHAPE($,$,(#108));
#115=IFCCARTESIANPOINT((0.,0.,0.));
#116=IFCDIRECTION((0.,0.,1.));
#117=IFCDIRECTION((6.123233995736766E-17,1.,0.));
#118=IFCAXIS2PLACEMENT3D(#115,#116,#117);
#119=IFCLOCALPLACEMENT(#36,#118);
#120=IFCOWNERHISTORY(#3,#7,.READWRITE.,.MODIFIED.,1779440582,#3,#7,1779440582);
#121=IFCWALL('3tLVoGV9n0hOLICvgRiPQL',#120,'Exterior Wall 4',$,$,#146,#136,$);
#122=IFCCARTESIANPOINT((0.,0.));
#123=IFCCARTESIANPOINT((0.,200.));
#124=IFCCARTESIANPOINT((5000.,200.));
#125=IFCCARTESIANPOINT((5000.,0.));
#126=IFCCARTESIANPOINT((0.,0.));
#127=IFCPOLYLINE((#122,#123,#124,#125,#126));
#128=IFCDIRECTION((0.,0.,1.));
#129=IFCARBITRARYCLOSEDPROFILEDEF(.AREA.,$,#127);
#130=IFCCARTESIANPOINT((0.,0.,0.));
#131=IFCDIRECTION((0.,0.,1.));
#132=IFCDIRECTION((1.,0.,0.));
#133=IFCAXIS2PLACEMENT3D(#130,#131,#132);
#134=IFCEXTRUDEDAREASOLID(#129,#133,#128,3000.);
#135=IFCSHAPEREPRESENTATION(#19,'Body','SweptSolid',(#134));
#136=IFCPRODUCTDEFINITIONSHAPE($,$,(#135));
#142=IFCCARTESIANPOINT((9000.,0.,0.));
#143=IFCDIRECTION((0.,0.,1.));
#144=IFCDIRECTION((6.123233995736766E-17,1.,0.));
#145=IFCAXIS2PLACEMENT3D(#142,#143,#144);
#146=IFCLOCALPLACEMENT(#36,#145);
#147=IFCOWNERHISTORY(#3,#7,.READWRITE.,.MODIFIED.,1779440582,#3,#7,1779440582);
#148=IFCWALL('3JxiQU9Gv0xPIi87xkRlzc',#147,'Interior Partition 1',$,$,#173,#163,$);
#149=IFCCARTESIANPOINT((0.,0.));
#150=IFCCARTESIANPOINT((0.,120.));
#151=IFCCARTESIANPOINT((4600.,120.));
#152=IFCCARTESIANPOINT((4600.,0.));
#153=IFCCARTESIANPOINT((0.,0.));
#154=IFCPOLYLINE((#149,#150,#151,#152,#153));
#155=IFCDIRECTION((0.,0.,1.));
#156=IFCARBITRARYCLOSEDPROFILEDEF(.AREA.,$,#154);
#157=IFCCARTESIANPOINT((0.,0.,0.));
#158=IFCDIRECTION((0.,0.,1.));
#159=IFCDIRECTION((1.,0.,0.));
#160=IFCAXIS2PLACEMENT3D(#157,#158,#159);
#161=IFCEXTRUDEDAREASOLID(#156,#160,#155,3000.);
#162=IFCSHAPEREPRESENTATION(#19,'Body','SweptSolid',(#161));
#163=IFCPRODUCTDEFINITIONSHAPE($,$,(#162));
#169=IFCCARTESIANPOINT((3000.,200.,0.));
#170=IFCDIRECTION((0.,0.,1.));
#171=IFCDIRECTION((6.123233995736766E-17,1.,0.));
#172=IFCAXIS2PLACEMENT3D(#169,#170,#171);
#173=IFCLOCALPLACEMENT(#36,#172);
#174=IFCOWNERHISTORY(#3,#7,.READWRITE.,.MODIFIED.,1779440582,#3,#7,1779440582);
#175=IFCWALL('0BEvQqJpP2ffTUkQuUtpAJ',#174,'Interior Partition 2',$,$,#200,#190,$);
#176=IFCCARTESIANPOINT((0.,0.));
#177=IFCCARTESIANPOINT((0.,120.));
#178=IFCCARTESIANPOINT((4600.,120.));
#179=IFCCARTESIANPOINT((4600.,0.));
#180=IFCCARTESIANPOINT((0.,0.));
#181=IFCPOLYLINE((#176,#177,#178,#179,#180));
#182=IFCDIRECTION((0.,0.,1.));
#183=IFCARBITRARYCLOSEDPROFILEDEF(.AREA.,$,#181);
#184=IFCCARTESIANPOINT((0.,0.,0.));
#185=IFCDIRECTION((0.,0.,1.));
#186=IFCDIRECTION((1.,0.,0.));
#187=IFCAXIS2PLACEMENT3D(#184,#185,#186);
#188=IFCEXTRUDEDAREASOLID(#183,#187,#182,3000.);
#189=IFCSHAPEREPRESENTATION(#19,'Body','SweptSolid',(#188));
#190=IFCPRODUCTDEFINITIONSHAPE($,$,(#189));
#196=IFCCARTESIANPOINT((6000.,200.,0.));
#197=IFCDIRECTION((0.,0.,1.));
#198=IFCDIRECTION((6.123233995736766E-17,1.,0.));
#199=IFCAXIS2PLACEMENT3D(#196,#197,#198);
#200=IFCLOCALPLACEMENT(#36,#199);
#201=IFCOWNERHISTORY(#3,#7,.READWRITE.,.MODIFIED.,1779440582,#3,#7,1779440582);
#202=IFCSLAB('2Yott9ZuX1yeDw4NGtX2xO',#201,'Floor Slab 1',$,$,#227,#217,$,$);
#203=IFCCARTESIANPOINT((0.,0.));
#204=IFCCARTESIANPOINT((9000.,0.));
#205=IFCCARTESIANPOINT((9000.,5000.));
#206=IFCCARTESIANPOINT((0.,5000.));
#207=IFCCARTESIANPOINT((0.,0.));
#208=IFCPOLYLINE((#203,#204,#205,#206,#207));
#209=IFCDIRECTION((0.,0.,1.));
#210=IFCCARTESIANPOINT((0.,0.,0.));
#211=IFCDIRECTION((0.,0.,1.));
#212=IFCDIRECTION((1.,0.,0.));
#213=IFCAXIS2PLACEMENT3D(#210,#211,#212);
#214=IFCARBITRARYCLOSEDPROFILEDEF(.AREA.,$,#208);
#215=IFCEXTRUDEDAREASOLID(#214,#213,#209,200.);
#216=IFCSHAPEREPRESENTATION(#19,'Body','SweptSolid',(#215));
#217=IFCPRODUCTDEFINITIONSHAPE($,$,(#216));
#223=IFCCARTESIANPOINT((0.,0.,0.));
#224=IFCDIRECTION((0.,0.,1.));
#225=IFCDIRECTION((1.,0.,0.));
#226=IFCAXIS2PLACEMENT3D(#223,#224,#225);
#227=IFCLOCALPLACEMENT(#36,#226);
#228=IFCOWNERHISTORY(#3,#7,.READWRITE.,.MODIFIED.,1779440582,#3,#7,1779440582);
#229=IFCDOOR('32T_9DkTf6vA4JUUU_3aue',#228,'Door 1',$,$,#357,#347,$,$,$);
#230=IFCCARTESIANPOINT((0.,0.));
#231=IFCCARTESIANPOINT((0.,2.1000000000000001));
#232=IFCCARTESIANPOINT((0.90000000000000002,2.1000000000000001));
#233=IFCCARTESIANPOINT((0.90000000000000002,0.));
#234=IFCCARTESIANPOINT((-24.100000000000001,0.));
#235=IFCCARTESIANPOINT((-24.100000000000001,-22.899999999999999));
#236=IFCCARTESIANPOINT((25.,-22.899999999999999));
#237=IFCCARTESIANPOINT((25.,0.));
#238=IFCPOLYLINE((#230,#231,#232,#233,#234,#235,#236,#237,#230));
#239=IFCARBITRARYCLOSEDPROFILEDEF(.AREA.,$,#238);
#240=IFCCARTESIANPOINT((0.,25.,0.));
#241=IFCDIRECTION((0.,-1.,0.));
#242=IFCDIRECTION((1.,0.,0.));
#243=IFCAXIS2PLACEMENT3D(#240,#241,#242);
#244=IFCDIRECTION((0.,0.,-1.));
#245=IFCEXTRUDEDAREASOLID(#239,#243,#244,25.);
#246=IFCCARTESIANPOINT((0.,0.));
#247=IFCCARTESIANPOINT((0.,2.1000000000000001));
#248=IFCCARTESIANPOINT((0.90000000000000002,2.1000000000000001));
#249=IFCCARTESIANPOINT((0.90000000000000002,0.));
#250=IFCCARTESIANPOINT((-49.100000000000001,0.));
#251=IFCCARTESIANPOINT((-49.100000000000001,-47.899999999999999));
#252=IFCCARTESIANPOINT((50.,-47.899999999999999));
#253=IFCCARTESIANPOINT((50.,0.));
#254=IFCPOLYLINE((#246,#247,#248,#249,#250,#251,#252,#253,#246));
#255=IFCARBITRARYCLOSEDPROFILEDEF(.AREA.,$,#254);
#256=IFCCARTESIANPOINT((0.,0.,0.));
#257=IFCDIRECTION((0.,-1.,0.));
#258=IFCDIRECTION((1.,0.,0.));
#259=IFCAXIS2PLACEMENT3D(#256,#257,#258);
#260=IFCDIRECTION((0.,0.,-1.));
#261=IFCEXTRUDEDAREASOLID(#255,#259,#260,25.);
#262=IFCCARTESIANPOINT((0.,0.));
#263=IFCCARTESIANPOINT((-99.099999999999994,0.));
#264=IFCCARTESIANPOINT((-99.099999999999994,100.));
#265=IFCCARTESIANPOINT((0.,100.));
#266=IFCPOLYLINE((#262,#263,#264,#265,#262));
#267=IFCARBITRARYCLOSEDPROFILEDEF(.AREA.,$,#266);
#268=IFCCARTESIANPOINT((50.,0.,0.));
#269=IFCDIRECTION((0.,0.,1.));
#270=IFCDIRECTION((1.,0.,0.));
#271=IFCAXIS2PLACEMENT3D(#268,#269,#270);
#272=IFCDIRECTION((0.,0.,1.));
#273=IFCEXTRUDEDAREASOLID(#267,#271,#272,25.);
#274=IFCCARTESIANPOINT((0.,0.));
#275=IFCCARTESIANPOINT((0.,27.100000000000001));
#276=IFCCARTESIANPOINT((50.899999999999999,27.100000000000001));
#277=IFCCARTESIANPOINT((50.899999999999999,0.));
#278=IFCCARTESIANPOINT((-24.100000000000001,0.));
#279=IFCCARTESIANPOINT((-24.100000000000001,-47.899999999999999));
#280=IFCCARTESIANPOINT((75.,-47.899999999999999));
#281=IFCCARTESIANPOINT((75.,0.));
#282=IFCPOLYLINE((#274,#275,#276,#277,#278,#279,#280,#281,#274));
#283=IFCARBITRARYCLOSEDPROFILEDEF(.AREA.,$,#282);
#284=IFCCARTESIANPOINT((-25.,-5.,0.));
#285=IFCDIRECTION((0.,-1.,0.));
#286=IFCDIRECTION((1.,0.,0.));
#287=IFCAXIS2PLACEMENT3D(#284,#285,#286);
#288=IFCDIRECTION((0.,0.,-1.));
#289=IFCEXTRUDEDAREASOLID(#283,#287,#288,5.);
#290=IFCCARTESIANPOINT((0.,0.));
#291=IFCCARTESIANPOINT((0.,27.100000000000001));
#292=IFCCARTESIANPOINT((50.899999999999999,27.100000000000001));
#293=IFCCARTESIANPOINT((50.899999999999999,0.));
#294=IFCCARTESIANPOINT((0.89999999999999858,0.));
#295=IFCCARTESIANPOINT((0.89999999999999858,-22.899999999999999));
#296=IFCCARTESIANPOINT((50.,-22.899999999999999));
#297=IFCCARTESIANPOINT((50.,0.));
#298=IFCPOLYLINE((#290,#291,#292,#293,#294,#295,#296,#297,#290));
#299=IFCARBITRARYCLOSEDPROFILEDEF(.AREA.,$,#298);
#300=IFCCARTESIANPOINT((-25.,50.,0.));
#301=IFCDIRECTION((0.,-1.,0.));
#302=IFCDIRECTION((1.,0.,0.));
#303=IFCAXIS2PLACEMENT3D(#300,#301,#302);
#304=IFCDIRECTION((0.,0.,-1.));
#305=IFCEXTRUDEDAREASOLID(#299,#303,#304,5.);
#306=IFCCARTESIANPOINT((0.,0.));
#307=IFCCARTESIANPOINT((-49.100000000000001,0.));
#308=IFCCARTESIANPOINT((-49.100000000000001,35.));
#309=IFCCARTESIANPOINT((0.,35.));
#310=IFCPOLYLINE((#306,#307,#308,#309,#306));
#311=IFCARBITRARYCLOSEDPROFILEDEF(.AREA.,$,#310);
#312=IFCCARTESIANPOINT((25.,25.,25.));
#313=IFCDIRECTION((0.,0.,1.));
#314=IFCDIRECTION((1.,0.,0.));
#315=IFCAXIS2PLACEMENT3D(#312,#313,#314);
#316=IFCDIRECTION((0.,0.,1.));
#317=IFCEXTRUDEDAREASOLID(#311,#315,#316,-47.899999999999999);
#318=IFCCARTESIANPOINT((0.,0.));
#319=IFCCARTESIANPOINT((0.,-40.));
#320=IFCCARTESIANPOINT((-120.00000000000003,-40.));
#321=IFCCARTESIANPOINT((-120.00000000000003,-20.));
#322=IFCCARTESIANPOINT((-20.,-20.));
#323=IFCCARTESIANPOINT((-20.,0.));
#324=IFCPOLYLINE((#318,#319,#320,#321,#322,#323,#318));
#325=IFCARBITRARYCLOSEDPROFILEDEF(.AREA.,$,#324);
#326=IFCCARTESIANPOINT((-74.099999999999994,25.,1015.));
#327=IFCDIRECTION((0.,0.,1.));
#328=IFCDIRECTION((1.,0.,0.));
#329=IFCAXIS2PLACEMENT3D(#326,#327,#328);
#330=IFCDIRECTION((0.,0.,1.));
#331=IFCEXTRUDEDAREASOLID(#325,#329,#330,20.);
#332=IFCEXTRUDEDAREASOLID(#333,#341,#345,20.);
#333=IFCARBITRARYCLOSEDPROFILEDEF(.AREA.,$,#334);
#334=IFCPOLYLINE((#335,#336,#337,#338,#339,#340,#335));
#335=IFCCARTESIANPOINT((0.,0.));
#336=IFCCARTESIANPOINT((0.,40.));
#337=IFCCARTESIANPOINT((-120.00000000000003,40.));
#338=IFCCARTESIANPOINT((-120.00000000000003,20.));
#339=IFCCARTESIANPOINT((-20.,20.));
#340=IFCCARTESIANPOINT((-20.,0.));
#341=IFCAXIS2PLACEMENT3D(#342,#343,#344);
#342=IFCCARTESIANPOINT((-74.099999999999994,60.,1015.));
#343=IFCDIRECTION((0.,0.,1.));
#344=IFCDIRECTION((1.,0.,0.));
#345=IFCDIRECTION((0.,0.,1.));
#346=IFCSHAPEREPRESENTATION(#19,'Body','SweptSolid',(#245,#261,#317,#331,#332,#273,#289,#305));
#347=IFCPRODUCTDEFINITIONSHAPE($,$,(#346));
#353=IFCCARTESIANPOINT((800.,-50.,0.));
#354=IFCDIRECTION((0.,0.,1.));
#355=IFCDIRECTION((1.,0.,0.));
#356=IFCAXIS2PLACEMENT3D(#353,#354,#355);
#357=IFCLOCALPLACEMENT(#36,#356);
#358=IFCOWNERHISTORY(#3,#7,.READWRITE.,.MODIFIED.,1779440582,#3,#7,1779440582);
#359=IFCDOOR('13TNQhXQb39hO1ahmLBvbo',#358,'Door 2',$,$,#487,#477,$,$,$);
#360=IFCCARTESIANPOINT((0.,0.));
#361=IFCCARTESIANPOINT((0.,2.1000000000000001));
#362=IFCCARTESIANPOINT((0.90000000000000002,2.1000000000000001));
#363=IFCCARTESIANPOINT((0.90000000000000002,0.));
#364=IFCCARTESIANPOINT((-24.100000000000001,0.));
#365=IFCCARTESIANPOINT((-24.100000000000001,-22.899999999999999));
#366=IFCCARTESIANPOINT((25.,-22.899999999999999));
#367=IFCCARTESIANPOINT((25.,0.));
#368=IFCPOLYLINE((#360,#361,#362,#363,#364,#365,#366,#367,#360));
#369=IFCARBITRARYCLOSEDPROFILEDEF(.AREA.,$,#368);
#370=IFCCARTESIANPOINT((0.,25.,0.));
#371=IFCDIRECTION((0.,-1.,0.));
#372=IFCDIRECTION((1.,0.,0.));
#373=IFCAXIS2PLACEMENT3D(#370,#371,#372);
#374=IFCDIRECTION((0.,0.,-1.));
#375=IFCEXTRUDEDAREASOLID(#369,#373,#374,25.);
#376=IFCCARTESIANPOINT((0.,0.));
#377=IFCCARTESIANPOINT((0.,2.1000000000000001));
#378=IFCCARTESIANPOINT((0.90000000000000002,2.1000000000000001));
#379=IFCCARTESIANPOINT((0.90000000000000002,0.));
#380=IFCCARTESIANPOINT((-49.100000000000001,0.));
#381=IFCCARTESIANPOINT((-49.100000000000001,-47.899999999999999));
#382=IFCCARTESIANPOINT((50.,-47.899999999999999));
#383=IFCCARTESIANPOINT((50.,0.));
#384=IFCPOLYLINE((#376,#377,#378,#379,#380,#381,#382,#383,#376));
#385=IFCARBITRARYCLOSEDPROFILEDEF(.AREA.,$,#384);
#386=IFCCARTESIANPOINT((0.,0.,0.));
#387=IFCDIRECTION((0.,-1.,0.));
#388=IFCDIRECTION((1.,0.,0.));
#389=IFCAXIS2PLACEMENT3D(#386,#387,#388);
#390=IFCDIRECTION((0.,0.,-1.));
#391=IFCEXTRUDEDAREASOLID(#385,#389,#390,25.);
#392=IFCCARTESIANPOINT((0.,0.));
#393=IFCCARTESIANPOINT((-99.099999999999994,0.));
#394=IFCCARTESIANPOINT((-99.099999999999994,100.));
#395=IFCCARTESIANPOINT((0.,100.));
#396=IFCPOLYLINE((#392,#393,#394,#395,#392));
#397=IFCARBITRARYCLOSEDPROFILEDEF(.AREA.,$,#396);
#398=IFCCARTESIANPOINT((50.,0.,0.));
#399=IFCDIRECTION((0.,0.,1.));
#400=IFCDIRECTION((1.,0.,0.));
#401=IFCAXIS2PLACEMENT3D(#398,#399,#400);
#402=IFCDIRECTION((0.,0.,1.));
#403=IFCEXTRUDEDAREASOLID(#397,#401,#402,25.);
#404=IFCCARTESIANPOINT((0.,0.));
#405=IFCCARTESIANPOINT((0.,27.100000000000001));
#406=IFCCARTESIANPOINT((50.899999999999999,27.100000000000001));
#407=IFCCARTESIANPOINT((50.899999999999999,0.));
#408=IFCCARTESIANPOINT((-24.100000000000001,0.));
#409=IFCCARTESIANPOINT((-24.100000000000001,-47.899999999999999));
#410=IFCCARTESIANPOINT((75.,-47.899999999999999));
#411=IFCCARTESIANPOINT((75.,0.));
#412=IFCPOLYLINE((#404,#405,#406,#407,#408,#409,#410,#411,#404));
#413=IFCARBITRARYCLOSEDPROFILEDEF(.AREA.,$,#412);
#414=IFCCARTESIANPOINT((-25.,-5.,0.));
#415=IFCDIRECTION((0.,-1.,0.));
#416=IFCDIRECTION((1.,0.,0.));
#417=IFCAXIS2PLACEMENT3D(#414,#415,#416);
#418=IFCDIRECTION((0.,0.,-1.));
#419=IFCEXTRUDEDAREASOLID(#413,#417,#418,5.);
#420=IFCCARTESIANPOINT((0.,0.));
#421=IFCCARTESIANPOINT((0.,27.100000000000001));
#422=IFCCARTESIANPOINT((50.899999999999999,27.100000000000001));
#423=IFCCARTESIANPOINT((50.899999999999999,0.));
#424=IFCCARTESIANPOINT((0.89999999999999858,0.));
#425=IFCCARTESIANPOINT((0.89999999999999858,-22.899999999999999));
#426=IFCCARTESIANPOINT((50.,-22.899999999999999));
#427=IFCCARTESIANPOINT((50.,0.));
#428=IFCPOLYLINE((#420,#421,#422,#423,#424,#425,#426,#427,#420));
#429=IFCARBITRARYCLOSEDPROFILEDEF(.AREA.,$,#428);
#430=IFCCARTESIANPOINT((-25.,50.,0.));
#431=IFCDIRECTION((0.,-1.,0.));
#432=IFCDIRECTION((1.,0.,0.));
#433=IFCAXIS2PLACEMENT3D(#430,#431,#432);
#434=IFCDIRECTION((0.,0.,-1.));
#435=IFCEXTRUDEDAREASOLID(#429,#433,#434,5.);
#436=IFCCARTESIANPOINT((0.,0.));
#437=IFCCARTESIANPOINT((-49.100000000000001,0.));
#438=IFCCARTESIANPOINT((-49.100000000000001,35.));
#439=IFCCARTESIANPOINT((0.,35.));
#440=IFCPOLYLINE((#436,#437,#438,#439,#436));
#441=IFCARBITRARYCLOSEDPROFILEDEF(.AREA.,$,#440);
#442=IFCCARTESIANPOINT((25.,25.,25.));
#443=IFCDIRECTION((0.,0.,1.));
#444=IFCDIRECTION((1.,0.,0.));
#445=IFCAXIS2PLACEMENT3D(#442,#443,#444);
#446=IFCDIRECTION((0.,0.,1.));
#447=IFCEXTRUDEDAREASOLID(#441,#445,#446,-47.899999999999999);
#448=IFCCARTESIANPOINT((0.,0.));
#449=IFCCARTESIANPOINT((0.,-40.));
#450=IFCCARTESIANPOINT((-120.00000000000003,-40.));
#451=IFCCARTESIANPOINT((-120.00000000000003,-20.));
#452=IFCCARTESIANPOINT((-20.,-20.));
#453=IFCCARTESIANPOINT((-20.,0.));
#454=IFCPOLYLINE((#448,#449,#450,#451,#452,#453,#448));
#455=IFCARBITRARYCLOSEDPROFILEDEF(.AREA.,$,#454);
#456=IFCCARTESIANPOINT((-74.099999999999994,25.,1015.));
#457=IFCDIRECTION((0.,0.,1.));
#458=IFCDIRECTION((1.,0.,0.));
#459=IFCAXIS2PLACEMENT3D(#456,#457,#458);
#460=IFCDIRECTION((0.,0.,1.));
#461=IFCEXTRUDEDAREASOLID(#455,#459,#460,20.);
#462=IFCEXTRUDEDAREASOLID(#463,#471,#475,20.);
#463=IFCARBITRARYCLOSEDPROFILEDEF(.AREA.,$,#464);
#464=IFCPOLYLINE((#465,#466,#467,#468,#469,#470,#465));
#465=IFCCARTESIANPOINT((0.,0.));
#466=IFCCARTESIANPOINT((0.,40.));
#467=IFCCARTESIANPOINT((-120.00000000000003,40.));
#468=IFCCARTESIANPOINT((-120.00000000000003,20.));
#469=IFCCARTESIANPOINT((-20.,20.));
#470=IFCCARTESIANPOINT((-20.,0.));
#471=IFCAXIS2PLACEMENT3D(#472,#473,#474);
#472=IFCCARTESIANPOINT((-74.099999999999994,60.,1015.));
#473=IFCDIRECTION((0.,0.,1.));
#474=IFCDIRECTION((1.,0.,0.));
#475=IFCDIRECTION((0.,0.,1.));
#476=IFCSHAPEREPRESENTATION(#19,'Body','SweptSolid',(#375,#391,#447,#461,#462,#403,#419,#435));
#477=IFCPRODUCTDEFINITIONSHAPE($,$,(#476));
#483=IFCCARTESIANPOINT((1550.,-50.,0.));
#484=IFCDIRECTION((0.,0.,1.));
#485=IFCDIRECTION((1.,0.,0.));
#486=IFCAXIS2PLACEMENT3D(#483,#484,#485);
#487=IFCLOCALPLACEMENT(#36,#486);
#488=IFCOWNERHISTORY(#3,#7,.READWRITE.,.MODIFIED.,1779440582,#3,#7,1779440582);
#489=IFCDOOR('1MlMFy5JHF7hhJLzDuNbXh',#488,'Door 3',$,$,#617,#607,$,$,$);
#490=IFCCARTESIANPOINT((0.,0.));
#491=IFCCARTESIANPOINT((0.,2.1000000000000001));
#492=IFCCARTESIANPOINT((0.90000000000000002,2.1000000000000001));
#493=IFCCARTESIANPOINT((0.90000000000000002,0.));
#494=IFCCARTESIANPOINT((-24.100000000000001,0.));
#495=IFCCARTESIANPOINT((-24.100000000000001,-22.899999999999999));
#496=IFCCARTESIANPOINT((25.,-22.899999999999999));
#497=IFCCARTESIANPOINT((25.,0.));
#498=IFCPOLYLINE((#490,#491,#492,#493,#494,#495,#496,#497,#490));
#499=IFCARBITRARYCLOSEDPROFILEDEF(.AREA.,$,#498);
#500=IFCCARTESIANPOINT((0.,25.,0.));
#501=IFCDIRECTION((0.,-1.,0.));
#502=IFCDIRECTION((1.,0.,0.));
#503=IFCAXIS2PLACEMENT3D(#500,#501,#502);
#504=IFCDIRECTION((0.,0.,-1.));
#505=IFCEXTRUDEDAREASOLID(#499,#503,#504,25.);
#506=IFCCARTESIANPOINT((0.,0.));
#507=IFCCARTESIANPOINT((0.,2.1000000000000001));
#508=IFCCARTESIANPOINT((0.90000000000000002,2.1000000000000001));
#509=IFCCARTESIANPOINT((0.90000000000000002,0.));
#510=IFCCARTESIANPOINT((-49.100000000000001,0.));
#511=IFCCARTESIANPOINT((-49.100000000000001,-47.899999999999999));
#512=IFCCARTESIANPOINT((50.,-47.899999999999999));
#513=IFCCARTESIANPOINT((50.,0.));
#514=IFCPOLYLINE((#506,#507,#508,#509,#510,#511,#512,#513,#506));
#515=IFCARBITRARYCLOSEDPROFILEDEF(.AREA.,$,#514);
#516=IFCCARTESIANPOINT((0.,0.,0.));
#517=IFCDIRECTION((0.,-1.,0.));
#518=IFCDIRECTION((1.,0.,0.));
#519=IFCAXIS2PLACEMENT3D(#516,#517,#518);
#520=IFCDIRECTION((0.,0.,-1.));
#521=IFCEXTRUDEDAREASOLID(#515,#519,#520,25.);
#522=IFCCARTESIANPOINT((0.,0.));
#523=IFCCARTESIANPOINT((-99.099999999999994,0.));
#524=IFCCARTESIANPOINT((-99.099999999999994,100.));
#525=IFCCARTESIANPOINT((0.,100.));
#526=IFCPOLYLINE((#522,#523,#524,#525,#522));
#527=IFCARBITRARYCLOSEDPROFILEDEF(.AREA.,$,#526);
#528=IFCCARTESIANPOINT((50.,0.,0.));
#529=IFCDIRECTION((0.,0.,1.));
#530=IFCDIRECTION((1.,0.,0.));
#531=IFCAXIS2PLACEMENT3D(#528,#529,#530);
#532=IFCDIRECTION((0.,0.,1.));
#533=IFCEXTRUDEDAREASOLID(#527,#531,#532,25.);
#534=IFCCARTESIANPOINT((0.,0.));
#535=IFCCARTESIANPOINT((0.,27.100000000000001));
#536=IFCCARTESIANPOINT((50.899999999999999,27.100000000000001));
#537=IFCCARTESIANPOINT((50.899999999999999,0.));
#538=IFCCARTESIANPOINT((-24.100000000000001,0.));
#539=IFCCARTESIANPOINT((-24.100000000000001,-47.899999999999999));
#540=IFCCARTESIANPOINT((75.,-47.899999999999999));
#541=IFCCARTESIANPOINT((75.,0.));
#542=IFCPOLYLINE((#534,#535,#536,#537,#538,#539,#540,#541,#534));
#543=IFCARBITRARYCLOSEDPROFILEDEF(.AREA.,$,#542);
#544=IFCCARTESIANPOINT((-25.,-5.,0.));
#545=IFCDIRECTION((0.,-1.,0.));
#546=IFCDIRECTION((1.,0.,0.));
#547=IFCAXIS2PLACEMENT3D(#544,#545,#546);
#548=IFCDIRECTION((0.,0.,-1.));
#549=IFCEXTRUDEDAREASOLID(#543,#547,#548,5.);
#550=IFCCARTESIANPOINT((0.,0.));
#551=IFCCARTESIANPOINT((0.,27.100000000000001));
#552=IFCCARTESIANPOINT((50.899999999999999,27.100000000000001));
#553=IFCCARTESIANPOINT((50.899999999999999,0.));
#554=IFCCARTESIANPOINT((0.89999999999999858,0.));
#555=IFCCARTESIANPOINT((0.89999999999999858,-22.899999999999999));
#556=IFCCARTESIANPOINT((50.,-22.899999999999999));
#557=IFCCARTESIANPOINT((50.,0.));
#558=IFCPOLYLINE((#550,#551,#552,#553,#554,#555,#556,#557,#550));
#559=IFCARBITRARYCLOSEDPROFILEDEF(.AREA.,$,#558);
#560=IFCCARTESIANPOINT((-25.,50.,0.));
#561=IFCDIRECTION((0.,-1.,0.));
#562=IFCDIRECTION((1.,0.,0.));
#563=IFCAXIS2PLACEMENT3D(#560,#561,#562);
#564=IFCDIRECTION((0.,0.,-1.));
#565=IFCEXTRUDEDAREASOLID(#559,#563,#564,5.);
#566=IFCCARTESIANPOINT((0.,0.));
#567=IFCCARTESIANPOINT((-49.100000000000001,0.));
#568=IFCCARTESIANPOINT((-49.100000000000001,35.));
#569=IFCCARTESIANPOINT((0.,35.));
#570=IFCPOLYLINE((#566,#567,#568,#569,#566));
#571=IFCARBITRARYCLOSEDPROFILEDEF(.AREA.,$,#570);
#572=IFCCARTESIANPOINT((25.,25.,25.));
#573=IFCDIRECTION((0.,0.,1.));
#574=IFCDIRECTION((1.,0.,0.));
#575=IFCAXIS2PLACEMENT3D(#572,#573,#574);
#576=IFCDIRECTION((0.,0.,1.));
#577=IFCEXTRUDEDAREASOLID(#571,#575,#576,-47.899999999999999);
#578=IFCCARTESIANPOINT((0.,0.));
#579=IFCCARTESIANPOINT((0.,-40.));
#580=IFCCARTESIANPOINT((-120.00000000000003,-40.));
#581=IFCCARTESIANPOINT((-120.00000000000003,-20.));
#582=IFCCARTESIANPOINT((-20.,-20.));
#583=IFCCARTESIANPOINT((-20.,0.));
#584=IFCPOLYLINE((#578,#579,#580,#581,#582,#583,#578));
#585=IFCARBITRARYCLOSEDPROFILEDEF(.AREA.,$,#584);
#586=IFCCARTESIANPOINT((-74.099999999999994,25.,1015.));
#587=IFCDIRECTION((0.,0.,1.));
#588=IFCDIRECTION((1.,0.,0.));
#589=IFCAXIS2PLACEMENT3D(#586,#587,#588);
#590=IFCDIRECTION((0.,0.,1.));
#591=IFCEXTRUDEDAREASOLID(#585,#589,#590,20.);
#592=IFCEXTRUDEDAREASOLID(#593,#601,#605,20.);
#593=IFCARBITRARYCLOSEDPROFILEDEF(.AREA.,$,#594);
#594=IFCPOLYLINE((#595,#596,#597,#598,#599,#600,#595));
#595=IFCCARTESIANPOINT((0.,0.));
#596=IFCCARTESIANPOINT((0.,40.));
#597=IFCCARTESIANPOINT((-120.00000000000003,40.));
#598=IFCCARTESIANPOINT((-120.00000000000003,20.));
#599=IFCCARTESIANPOINT((-20.,20.));
#600=IFCCARTESIANPOINT((-20.,0.));
#601=IFCAXIS2PLACEMENT3D(#602,#603,#604);
#602=IFCCARTESIANPOINT((-74.099999999999994,60.,1015.));
#603=IFCDIRECTION((0.,0.,1.));
#604=IFCDIRECTION((1.,0.,0.));
#605=IFCDIRECTION((0.,0.,1.));
#606=IFCSHAPEREPRESENTATION(#19,'Body','SweptSolid',(#505,#521,#577,#591,#592,#533,#549,#565));
#607=IFCPRODUCTDEFINITIONSHAPE($,$,(#606));
#613=IFCCARTESIANPOINT((2300.,-50.,0.));
#614=IFCDIRECTION((0.,0.,1.));
#615=IFCDIRECTION((1.,0.,0.));
#616=IFCAXIS2PLACEMENT3D(#613,#614,#615);
#617=IFCLOCALPLACEMENT(#36,#616);
#618=IFCOWNERHISTORY(#3,#7,.READWRITE.,.MODIFIED.,1779440582,#3,#7,1779440582);
#619=IFCOPENINGELEMENT('371Nfc9Y96VeH4r0algn_L',#618,'WD - 001',$,$,#654,#649,$);
#620=IFCCARTESIANPOINT((0.,0.,0.));
#621=IFCCARTESIANPOINT((900.,0.,0.));
#622=IFCCARTESIANPOINT((900.,202.,0.));
#623=IFCCARTESIANPOINT((0.,202.,0.));
#624=IFCCARTESIANPOINT((0.,0.,1500.));
#625=IFCCARTESIANPOINT((900.,0.,1500.));
#626=IFCCARTESIANPOINT((900.,202.,1500.));
#627=IFCCARTESIANPOINT((0.,202.,1500.));
#628=IFCPOLYLOOP((#620,#621,#622,#623));
#629=IFCFACEOUTERBOUND(#628,.T.);
#630=IFCFACE((#629));
#631=IFCPOLYLOOP((#624,#627,#626,#625));
#632=IFCFACEOUTERBOUND(#631,.T.);
#633=IFCFACE((#632));
#634=IFCPOLYLOOP((#620,#624,#625,#621));
#635=IFCFACEOUTERBOUND(#634,.T.);
#636=IFCFACE((#635));
#637=IFCPOLYLOOP((#621,#625,#626,#622));
#638=IFCFACEOUTERBOUND(#637,.T.);
#639=IFCFACE((#638));
#640=IFCPOLYLOOP((#622,#626,#627,#623));
#641=IFCFACEOUTERBOUND(#640,.T.);
#642=IFCFACE((#641));
#643=IFCPOLYLOOP((#623,#627,#624,#620));
#644=IFCFACEOUTERBOUND(#643,.T.);
#645=IFCFACE((#644));
#646=IFCCLOSEDSHELL((#630,#633,#636,#639,#642,#645));
#647=IFCFACETEDBREP(#646);
#648=IFCSHAPEREPRESENTATION(#19,'Body','Brep',(#647));
#649=IFCPRODUCTDEFINITIONSHAPE($,$,(#648));
#650=IFCCARTESIANPOINT((3000.,-1.,1000.));
#651=IFCDIRECTION((0.,0.,1.));
#652=IFCDIRECTION((1.,0.,0.));
#653=IFCAXIS2PLACEMENT3D(#650,#651,#652);
#654=IFCLOCALPLACEMENT($,#653);
#655=IFCOWNERHISTORY(#3,#7,.READWRITE.,.ADDED.,1779440582,#3,#7,1779440582);
#656=IFCRELVOIDSELEMENT('39TJAvsev7whxINGlOW0dP',#655,$,$,#38,#619);
#657=IFCOWNERHISTORY(#3,#7,.READWRITE.,.MODIFIED.,1779440582,#3,#7,1779440582);
#658=IFCWINDOW('2JmjxUfUH2ehwhtGL3YH2b',#657,'WD - 001',$,'WINDOW',#812,#800,$,1500.,900.);
#659=IFCCARTESIANPOINT((0.,0.,0.));
#660=IFCCARTESIANPOINT((60.,0.,0.));
#661=IFCCARTESIANPOINT((60.,75.,0.));
#662=IFCCARTESIANPOINT((0.,75.,0.));
#663=IFCCARTESIANPOINT((0.,0.,1500.));
#664=IFCCARTESIANPOINT((60.,0.,1500.));
#665=IFCCARTESIANPOINT((60.,75.,1500.));
#666=IFCCARTESIANPOINT((0.,75.,1500.));
#667=IFCPOLYLOOP((#659,#660,#661,#662));
#668=IFCFACEOUTERBOUND(#667,.T.);
#669=IFCFACE((#668));
#670=IFCPOLYLOOP((#663,#666,#665,#664));
#671=IFCFACEOUTERBOUND(#670,.T.);
#672=IFCFACE((#671));
#673=IFCPOLYLOOP((#659,#663,#664,#660));
#674=IFCFACEOUTERBOUND(#673,.T.);
#675=IFCFACE((#674));
#676=IFCPOLYLOOP((#660,#664,#665,#661));
#677=IFCFACEOUTERBOUND(#676,.T.);
#678=IFCFACE((#677));
#679=IFCPOLYLOOP((#661,#665,#666,#662));
#680=IFCFACEOUTERBOUND(#679,.T.);
#681=IFCFACE((#680));
#682=IFCPOLYLOOP((#662,#666,#663,#659));
#683=IFCFACEOUTERBOUND(#682,.T.);
#684=IFCFACE((#683));
#685=IFCCLOSEDSHELL((#669,#672,#675,#678,#681,#684));
#686=IFCFACETEDBREP(#685);
#687=IFCCARTESIANPOINT((840.,0.,0.));
#688=IFCCARTESIANPOINT((900.,0.,0.));
#689=IFCCARTESIANPOINT((900.,75.,0.));
#690=IFCCARTESIANPOINT((840.,75.,0.));
#691=IFCCARTESIANPOINT((840.,0.,1500.));
#692=IFCCARTESIANPOINT((900.,0.,1500.));
#693=IFCCARTESIANPOINT((900.,75.,1500.));
#694=IFCCARTESIANPOINT((840.,75.,1500.));
#695=IFCPOLYLOOP((#687,#688,#689,#690));
#696=IFCFACEOUTERBOUND(#695,.T.);
#697=IFCFACE((#696));
#698=IFCPOLYLOOP((#691,#694,#693,#692));
#699=IFCFACEOUTERBOUND(#698,.T.);
#700=IFCFACE((#699));
#701=IFCPOLYLOOP((#687,#691,#692,#688));
#702=IFCFACEOUTERBOUND(#701,.T.);
#703=IFCFACE((#702));
#704=IFCPOLYLOOP((#688,#692,#693,#689));
#705=IFCFACEOUTERBOUND(#704,.T.);
#706=IFCFACE((#705));
#707=IFCPOLYLOOP((#689,#693,#694,#690));
#708=IFCFACEOUTERBOUND(#707,.T.);
#709=IFCFACE((#708));
#710=IFCPOLYLOOP((#690,#694,#691,#687));
#711=IFCFACEOUTERBOUND(#710,.T.);
#712=IFCFACE((#711));
#713=IFCCLOSEDSHELL((#697,#700,#703,#706,#709,#712));
#714=IFCFACETEDBREP(#713);
#715=IFCCARTESIANPOINT((0.,0.,1440.));
#716=IFCCARTESIANPOINT((900.,0.,1440.));
#717=IFCCARTESIANPOINT((900.,75.,1440.));
#718=IFCCARTESIANPOINT((0.,75.,1440.));
#719=IFCCARTESIANPOINT((0.,0.,1500.));
#720=IFCCARTESIANPOINT((900.,0.,1500.));
#721=IFCCARTESIANPOINT((900.,75.,1500.));
#722=IFCCARTESIANPOINT((0.,75.,1500.));
#723=IFCPOLYLOOP((#715,#716,#717,#718));
#724=IFCFACEOUTERBOUND(#723,.T.);
#725=IFCFACE((#724));
#726=IFCPOLYLOOP((#719,#722,#721,#720));
#727=IFCFACEOUTERBOUND(#726,.T.);
#728=IFCFACE((#727));
#729=IFCPOLYLOOP((#715,#719,#720,#716));
#730=IFCFACEOUTERBOUND(#729,.T.);
#731=IFCFACE((#730));
#732=IFCPOLYLOOP((#716,#720,#721,#717));
#733=IFCFACEOUTERBOUND(#732,.T.);
#734=IFCFACE((#733));
#735=IFCPOLYLOOP((#717,#721,#722,#718));
#736=IFCFACEOUTERBOUND(#735,.T.);
#737=IFCFACE((#736));
#738=IFCPOLYLOOP((#718,#722,#719,#715));
#739=IFCFACEOUTERBOUND(#738,.T.);
#740=IFCFACE((#739));
#741=IFCCLOSEDSHELL((#725,#728,#731,#734,#737,#740));
#742=IFCFACETEDBREP(#741);
#743=IFCCARTESIANPOINT((0.,0.,0.));
#744=IFCCARTESIANPOINT((900.,0.,0.));
#745=IFCCARTESIANPOINT((900.,75.,0.));
#746=IFCCARTESIANPOINT((0.,75.,0.));
#747=IFCCARTESIANPOINT((0.,0.,60.));
#748=IFCCARTESIANPOINT((900.,0.,60.));
#749=IFCCARTESIANPOINT((900.,75.,60.));
#750=IFCCARTESIANPOINT((0.,75.,60.));
#751=IFCPOLYLOOP((#743,#744,#745,#746));
#752=IFCFACEOUTERBOUND(#751,.T.);
#753=IFCFACE((#752));
#754=IFCPOLYLOOP((#747,#750,#749,#748));
#755=IFCFACEOUTERBOUND(#754,.T.);
#756=IFCFACE((#755));
#757=IFCPOLYLOOP((#743,#747,#748,#744));
#758=IFCFACEOUTERBOUND(#757,.T.);
#759=IFCFACE((#758));
#760=IFCPOLYLOOP((#744,#748,#749,#745));
#761=IFCFACEOUTERBOUND(#760,.T.);
#762=IFCFACE((#761));
#763=IFCPOLYLOOP((#745,#749,#750,#746));
#764=IFCFACEOUTERBOUND(#763,.T.);
#765=IFCFACE((#764));
#766=IFCPOLYLOOP((#746,#750,#747,#743));
#767=IFCFACEOUTERBOUND(#766,.T.);
#768=IFCFACE((#767));
#769=IFCCLOSEDSHELL((#753,#756,#759,#762,#765,#768));
#770=IFCFACETEDBREP(#769);
#771=IFCCARTESIANPOINT((60.,27.5,60.));
#772=IFCCARTESIANPOINT((840.,27.5,60.));
#773=IFCCARTESIANPOINT((840.,47.5,60.));
#774=IFCCARTESIANPOINT((60.,47.5,60.));
#775=IFCCARTESIANPOINT((60.,27.5,1440.));
#776=IFCCARTESIANPOINT((840.,27.5,1440.));
#777=IFCCARTESIANPOINT((840.,47.5,1440.));
#778=IFCCARTESIANPOINT((60.,47.5,1440.));
#779=IFCPOLYLOOP((#771,#772,#773,#774));
#780=IFCFACEOUTERBOUND(#779,.T.);
#781=IFCFACE((#780));
#782=IFCPOLYLOOP((#775,#778,#777,#776));
#783=IFCFACEOUTERBOUND(#782,.T.);
#784=IFCFACE((#783));
#785=IFCPOLYLOOP((#771,#775,#776,#772));
#786=IFCFACEOUTERBOUND(#785,.T.);
#787=IFCFACE((#786));
#788=IFCPOLYLOOP((#772,#776,#777,#773));
#789=IFCFACEOUTERBOUND(#788,.T.);
#790=IFCFACE((#789));
#791=IFCPOLYLOOP((#773,#777,#778,#774));
#792=IFCFACEOUTERBOUND(#791,.T.);
#793=IFCFACE((#792));
#794=IFCPOLYLOOP((#774,#778,#775,#771));
#795=IFCFACEOUTERBOUND(#794,.T.);
#796=IFCFACE((#795));
#797=IFCCLOSEDSHELL((#781,#784,#787,#790,#793,#796));
#798=IFCFACETEDBREP(#797);
#799=IFCSHAPEREPRESENTATION(#19,'Body','SurfaceModel',(#686,#714,#742,#770,#798));
#800=IFCPRODUCTDEFINITIONSHAPE($,$,(#799));
#806=IFCOWNERHISTORY(#3,#7,.READWRITE.,.ADDED.,1779440582,#3,#7,1779440582);
#807=IFCRELFILLSELEMENT('3B8nuygTrD79r4MntQuOPj',#806,$,$,#619,#658);
#808=IFCCARTESIANPOINT((0.,1.,0.));
#809=IFCDIRECTION((0.,0.,1.));
#810=IFCDIRECTION((1.,0.,0.));
#811=IFCAXIS2PLACEMENT3D(#808,#809,#810);
#812=IFCLOCALPLACEMENT(#654,#811);
#813=IFCOWNERHISTORY(#3,#7,.READWRITE.,.ADDED.,1779440582,#3,#7,1779440582);
#814=IFCWINDOWSTYLE('1EEfGl3PD2aQ9_hGfSywoj',#813,'Window Style 1',$,$,$,$,$,.NOTDEFINED.,.NOTDEFINED.,.F.,.F.);
#815=IFCOWNERHISTORY(#3,#7,.READWRITE.,.ADDED.,1779440582,#3,#7,1779440582);
#816=IFCRELDEFINESBYTYPE('1A9jFwdt1B0ANX9qLZSD7z',#815,$,$,(#658),#814);
#817=IFCOWNERHISTORY(#3,#7,.READWRITE.,.MODIFIED.,1779440582,#3,#7,1779440582);
#818=IFCOPENINGELEMENT('2QcGo1e_5FnOpLwvcxTLxi',#817,'WD - 002',$,$,#853,#848,$);
#819=IFCCARTESIANPOINT((0.,0.,0.));
#820=IFCCARTESIANPOINT((900.,0.,0.));
#821=IFCCARTESIANPOINT((900.,202.,0.));
#822=IFCCARTESIANPOINT((0.,202.,0.));
#823=IFCCARTESIANPOINT((0.,0.,1500.));
#824=IFCCARTESIANPOINT((900.,0.,1500.));
#825=IFCCARTESIANPOINT((900.,202.,1500.));
#826=IFCCARTESIANPOINT((0.,202.,1500.));
#827=IFCPOLYLOOP((#819,#820,#821,#822));
#828=IFCFACEOUTERBOUND(#827,.T.);
#829=IFCFACE((#828));
#830=IFCPOLYLOOP((#823,#826,#825,#824));
#831=IFCFACEOUTERBOUND(#830,.T.);
#832=IFCFACE((#831));
#833=IFCPOLYLOOP((#819,#823,#824,#820));
#834=IFCFACEOUTERBOUND(#833,.T.);
#835=IFCFACE((#834));
#836=IFCPOLYLOOP((#820,#824,#825,#821));
#837=IFCFACEOUTERBOUND(#836,.T.);
#838=IFCFACE((#837));
#839=IFCPOLYLOOP((#821,#825,#826,#822));
#840=IFCFACEOUTERBOUND(#839,.T.);
#841=IFCFACE((#840));
#842=IFCPOLYLOOP((#822,#826,#823,#819));
#843=IFCFACEOUTERBOUND(#842,.T.);
#844=IFCFACE((#843));
#845=IFCCLOSEDSHELL((#829,#832,#835,#838,#841,#844));
#846=IFCFACETEDBREP(#845);
#847=IFCSHAPEREPRESENTATION(#19,'Body','Brep',(#846));
#848=IFCPRODUCTDEFINITIONSHAPE($,$,(#847));
#849=IFCCARTESIANPOINT((6000.,-1.,1000.));
#850=IFCDIRECTION((0.,0.,1.));
#851=IFCDIRECTION((1.,0.,0.));
#852=IFCAXIS2PLACEMENT3D(#849,#850,#851);
#853=IFCLOCALPLACEMENT($,#852);
#854=IFCOWNERHISTORY(#3,#7,.READWRITE.,.ADDED.,1779440582,#3,#7,1779440582);
#855=IFCRELVOIDSELEMENT('3PveC$BMz5_R0IgmWOSRBv',#854,$,$,#38,#818);
#856=IFCOWNERHISTORY(#3,#7,.READWRITE.,.MODIFIED.,1779440582,#3,#7,1779440582);
#857=IFCWINDOW('23LLvkZVnBvB9trML1u5wP',#856,'WD - 002',$,'WINDOW',#1011,#999,$,1500.,900.);
#858=IFCCARTESIANPOINT((0.,0.,0.));
#859=IFCCARTESIANPOINT((60.,0.,0.));
#860=IFCCARTESIANPOINT((60.,75.,0.));
#861=IFCCARTESIANPOINT((0.,75.,0.));
#862=IFCCARTESIANPOINT((0.,0.,1500.));
#863=IFCCARTESIANPOINT((60.,0.,1500.));
#864=IFCCARTESIANPOINT((60.,75.,1500.));
#865=IFCCARTESIANPOINT((0.,75.,1500.));
#866=IFCPOLYLOOP((#858,#859,#860,#861));
#867=IFCFACEOUTERBOUND(#866,.T.);
#868=IFCFACE((#867));
#869=IFCPOLYLOOP((#862,#865,#864,#863));
#870=IFCFACEOUTERBOUND(#869,.T.);
#871=IFCFACE((#870));
#872=IFCPOLYLOOP((#858,#862,#863,#859));
#873=IFCFACEOUTERBOUND(#872,.T.);
#874=IFCFACE((#873));
#875=IFCPOLYLOOP((#859,#863,#864,#860));
#876=IFCFACEOUTERBOUND(#875,.T.);
#877=IFCFACE((#876));
#878=IFCPOLYLOOP((#860,#864,#865,#861));
#879=IFCFACEOUTERBOUND(#878,.T.);
#880=IFCFACE((#879));
#881=IFCPOLYLOOP((#861,#865,#862,#858));
#882=IFCFACEOUTERBOUND(#881,.T.);
#883=IFCFACE((#882));
#884=IFCCLOSEDSHELL((#868,#871,#874,#877,#880,#883));
#885=IFCFACETEDBREP(#884);
#886=IFCCARTESIANPOINT((840.,0.,0.));
#887=IFCCARTESIANPOINT((900.,0.,0.));
#888=IFCCARTESIANPOINT((900.,75.,0.));
#889=IFCCARTESIANPOINT((840.,75.,0.));
#890=IFCCARTESIANPOINT((840.,0.,1500.));
#891=IFCCARTESIANPOINT((900.,0.,1500.));
#892=IFCCARTESIANPOINT((900.,75.,1500.));
#893=IFCCARTESIANPOINT((840.,75.,1500.));
#894=IFCPOLYLOOP((#886,#887,#888,#889));
#895=IFCFACEOUTERBOUND(#894,.T.);
#896=IFCFACE((#895));
#897=IFCPOLYLOOP((#890,#893,#892,#891));
#898=IFCFACEOUTERBOUND(#897,.T.);
#899=IFCFACE((#898));
#900=IFCPOLYLOOP((#886,#890,#891,#887));
#901=IFCFACEOUTERBOUND(#900,.T.);
#902=IFCFACE((#901));
#903=IFCPOLYLOOP((#887,#891,#892,#888));
#904=IFCFACEOUTERBOUND(#903,.T.);
#905=IFCFACE((#904));
#906=IFCPOLYLOOP((#888,#892,#893,#889));
#907=IFCFACEOUTERBOUND(#906,.T.);
#908=IFCFACE((#907));
#909=IFCPOLYLOOP((#889,#893,#890,#886));
#910=IFCFACEOUTERBOUND(#909,.T.);
#911=IFCFACE((#910));
#912=IFCCLOSEDSHELL((#896,#899,#902,#905,#908,#911));
#913=IFCFACETEDBREP(#912);
#914=IFCCARTESIANPOINT((0.,0.,1440.));
#915=IFCCARTESIANPOINT((900.,0.,1440.));
#916=IFCCARTESIANPOINT((900.,75.,1440.));
#917=IFCCARTESIANPOINT((0.,75.,1440.));
#918=IFCCARTESIANPOINT((0.,0.,1500.));
#919=IFCCARTESIANPOINT((900.,0.,1500.));
#920=IFCCARTESIANPOINT((900.,75.,1500.));
#921=IFCCARTESIANPOINT((0.,75.,1500.));
#922=IFCPOLYLOOP((#914,#915,#916,#917));
#923=IFCFACEOUTERBOUND(#922,.T.);
#924=IFCFACE((#923));
#925=IFCPOLYLOOP((#918,#921,#920,#919));
#926=IFCFACEOUTERBOUND(#925,.T.);
#927=IFCFACE((#926));
#928=IFCPOLYLOOP((#914,#918,#919,#915));
#929=IFCFACEOUTERBOUND(#928,.T.);
#930=IFCFACE((#929));
#931=IFCPOLYLOOP((#915,#919,#920,#916));
#932=IFCFACEOUTERBOUND(#931,.T.);
#933=IFCFACE((#932));
#934=IFCPOLYLOOP((#916,#920,#921,#917));
#935=IFCFACEOUTERBOUND(#934,.T.);
#936=IFCFACE((#935));
#937=IFCPOLYLOOP((#917,#921,#918,#914));
#938=IFCFACEOUTERBOUND(#937,.T.);
#939=IFCFACE((#938));
#940=IFCCLOSEDSHELL((#924,#927,#930,#933,#936,#939));
#941=IFCFACETEDBREP(#940);
#942=IFCCARTESIANPOINT((0.,0.,0.));
#943=IFCCARTESIANPOINT((900.,0.,0.));
#944=IFCCARTESIANPOINT((900.,75.,0.));
#945=IFCCARTESIANPOINT((0.,75.,0.));
#946=IFCCARTESIANPOINT((0.,0.,60.));
#947=IFCCARTESIANPOINT((900.,0.,60.));
#948=IFCCARTESIANPOINT((900.,75.,60.));
#949=IFCCARTESIANPOINT((0.,75.,60.));
#950=IFCPOLYLOOP((#942,#943,#944,#945));
#951=IFCFACEOUTERBOUND(#950,.T.);
#952=IFCFACE((#951));
#953=IFCPOLYLOOP((#946,#949,#948,#947));
#954=IFCFACEOUTERBOUND(#953,.T.);
#955=IFCFACE((#954));
#956=IFCPOLYLOOP((#942,#946,#947,#943));
#957=IFCFACEOUTERBOUND(#956,.T.);
#958=IFCFACE((#957));
#959=IFCPOLYLOOP((#943,#947,#948,#944));
#960=IFCFACEOUTERBOUND(#959,.T.);
#961=IFCFACE((#960));
#962=IFCPOLYLOOP((#944,#948,#949,#945));
#963=IFCFACEOUTERBOUND(#962,.T.);
#964=IFCFACE((#963));
#965=IFCPOLYLOOP((#945,#949,#946,#942));
#966=IFCFACEOUTERBOUND(#965,.T.);
#967=IFCFACE((#966));
#968=IFCCLOSEDSHELL((#952,#955,#958,#961,#964,#967));
#969=IFCFACETEDBREP(#968);
#970=IFCCARTESIANPOINT((60.,27.5,60.));
#971=IFCCARTESIANPOINT((840.,27.5,60.));
#972=IFCCARTESIANPOINT((840.,47.5,60.));
#973=IFCCARTESIANPOINT((60.,47.5,60.));
#974=IFCCARTESIANPOINT((60.,27.5,1440.));
#975=IFCCARTESIANPOINT((840.,27.5,1440.));
#976=IFCCARTESIANPOINT((840.,47.5,1440.));
#977=IFCCARTESIANPOINT((60.,47.5,1440.));
#978=IFCPOLYLOOP((#970,#971,#972,#973));
#979=IFCFACEOUTERBOUND(#978,.T.);
#980=IFCFACE((#979));
#981=IFCPOLYLOOP((#974,#977,#976,#975));
#982=IFCFACEOUTERBOUND(#981,.T.);
#983=IFCFACE((#982));
#984=IFCPOLYLOOP((#970,#974,#975,#971));
#985=IFCFACEOUTERBOUND(#984,.T.);
#986=IFCFACE((#985));
#987=IFCPOLYLOOP((#971,#975,#976,#972));
#988=IFCFACEOUTERBOUND(#987,.T.);
#989=IFCFACE((#988));
#990=IFCPOLYLOOP((#972,#976,#977,#973));
#991=IFCFACEOUTERBOUND(#990,.T.);
#992=IFCFACE((#991));
#993=IFCPOLYLOOP((#973,#977,#974,#970));
#994=IFCFACEOUTERBOUND(#993,.T.);
#995=IFCFACE((#994));
#996=IFCCLOSEDSHELL((#980,#983,#986,#989,#992,#995));
#997=IFCFACETEDBREP(#996);
#998=IFCSHAPEREPRESENTATION(#19,'Body','SurfaceModel',(#885,#913,#941,#969,#997));
#999=IFCPRODUCTDEFINITIONSHAPE($,$,(#998));
#1005=IFCOWNERHISTORY(#3,#7,.READWRITE.,.ADDED.,1779440582,#3,#7,1779440582);
#1006=IFCRELFILLSELEMENT('2JRuCjAO94ph0fw8HEjZ$I',#1005,$,$,#818,#857);
#1007=IFCCARTESIANPOINT((0.,1.,0.));
#1008=IFCDIRECTION((0.,0.,1.));
#1009=IFCDIRECTION((1.,0.,0.));
#1010=IFCAXIS2PLACEMENT3D(#1007,#1008,#1009);
#1011=IFCLOCALPLACEMENT(#853,#1010);
#1012=IFCOWNERHISTORY(#3,#7,.READWRITE.,.ADDED.,1779440582,#3,#7,1779440582);
#1013=IFCWINDOWSTYLE('04NRcwa1X6pAO7K_aDgHDQ',#1012,'Window Style 2',$,$,$,$,$,.NOTDEFINED.,.NOTDEFINED.,.F.,.F.);
#1014=IFCOWNERHISTORY(#3,#7,.READWRITE.,.ADDED.,1779440582,#3,#7,1779440582);
#1015=IFCRELDEFINESBYTYPE('1s1jJl6AH2cv1dznfCoCU4',#1014,$,$,(#857),#1013);
#1016=IFCOWNERHISTORY(#3,#7,.READWRITE.,.MODIFIED.,1779440582,#3,#7,1779440582);
#1017=IFCSPACE('1hzEuVlHD3feJY$5FVmGuE',#1016,'ROOM-A',$,$,#1039,#1034,$,.ELEMENT.,$,$);
#1018=IFCOWNERHISTORY(#3,#7,.READWRITE.,.MODIFIED.,1779440582,#3,#7,1779440582);
#1019=IFCRELAGGREGATES('1Oj4xQWEH31BvuusPE0Jzt',#1018,$,$,#29,(#1063,#1041,#1017));
#1020=IFCCARTESIANPOINT((0.,0.));
#1021=IFCCARTESIANPOINT((4250.,0.));
#1022=IFCCARTESIANPOINT((4250.,2250.));
#1023=IFCCARTESIANPOINT((0.,2250.));
#1024=IFCCARTESIANPOINT((0.,0.));
#1025=IFCPOLYLINE((#1020,#1021,#1022,#1023,#1024));
#1026=IFCDIRECTION((0.,0.,1.));
#1027=IFCCARTESIANPOINT((0.,0.,0.));
#1028=IFCDIRECTION((0.,0.,1.));
#1029=IFCDIRECTION((1.,0.,0.));
#1030=IFCAXIS2PLACEMENT3D(#1027,#1028,#1029);
#1031=IFCARBITRARYCLOSEDPROFILEDEF(.AREA.,$,#1025);
#1032=IFCEXTRUDEDAREASOLID(#1031,#1030,#1026,2799.9999999999995);
#1033=IFCSHAPEREPRESENTATION(#19,'Body','SweptSolid',(#1032));
#1034=IFCPRODUCTDEFINITIONSHAPE($,$,(#1033));
#1035=IFCCARTESIANPOINT((100.,100.,0.));
#1036=IFCDIRECTION((0.,0.,1.));
#1037=IFCDIRECTION((1.,0.,0.));
#1038=IFCAXIS2PLACEMENT3D(#1035,#1036,#1037);
#1039=IFCLOCALPLACEMENT(#36,#1038);
#1040=IFCOWNERHISTORY(#3,#7,.READWRITE.,.MODIFIED.,1779440582,#3,#7,1779440582);
#1041=IFCSPACE('1$PDOSr0PC98F$lFJcBF9$',#1040,'ROOM-B',$,$,#1061,#1056,$,.ELEMENT.,$,$);
#1042=IFCCARTESIANPOINT((0.,0.));
#1043=IFCCARTESIANPOINT((4250.,0.));
#1044=IFCCARTESIANPOINT((4250.,2250.));
#1045=IFCCARTESIANPOINT((0.,2250.));
#1046=IFCCARTESIANPOINT((0.,0.));
#1047=IFCPOLYLINE((#1042,#1043,#1044,#1045,#1046));
#1048=IFCDIRECTION((0.,0.,1.));
#1049=IFCCARTESIANPOINT((0.,0.,0.));
#1050=IFCDIRECTION((0.,0.,1.));
#1051=IFCDIRECTION((1.,0.,0.));
#1052=IFCAXIS2PLACEMENT3D(#1049,#1050,#1051);
#1053=IFCARBITRARYCLOSEDPROFILEDEF(.AREA.,$,#1047);
#1054=IFCEXTRUDEDAREASOLID(#1053,#1052,#1048,2799.9999999999995);
#1055=IFCSHAPEREPRESENTATION(#19,'Body','SweptSolid',(#1054));
#1056=IFCPRODUCTDEFINITIONSHAPE($,$,(#1055));
#1057=IFCCARTESIANPOINT((4600.,100.,0.));
#1058=IFCDIRECTION((0.,0.,1.));
#1059=IFCDIRECTION((1.,0.,0.));
#1060=IFCAXIS2PLACEMENT3D(#1057,#1058,#1059);
#1061=IFCLOCALPLACEMENT(#36,#1060);
#1062=IFCOWNERHISTORY(#3,#7,.READWRITE.,.MODIFIED.,1779440582,#3,#7,1779440582);
#1063=IFCSPACE('0tugNp4mfA38_TvPtnGZ3p',#1062,'UNCLASSIFIED',$,$,#1083,#1078,$,.ELEMENT.,$,$);
#1064=IFCCARTESIANPOINT((0.,0.));
#1065=IFCCARTESIANPOINT((4250.,0.));
#1066=IFCCARTESIANPOINT((4250.,2250.));
#1067=IFCCARTESIANPOINT((0.,2250.));
#1068=IFCCARTESIANPOINT((0.,0.));
#1069=IFCPOLYLINE((#1064,#1065,#1066,#1067,#1068));
#1070=IFCDIRECTION((0.,0.,1.));
#1071=IFCCARTESIANPOINT((0.,0.,0.));
#1072=IFCDIRECTION((0.,0.,1.));
#1073=IFCDIRECTION((1.,0.,0.));
#1074=IFCAXIS2PLACEMENT3D(#1071,#1072,#1073);
#1075=IFCARBITRARYCLOSEDPROFILEDEF(.AREA.,$,#1069);
#1076=IFCEXTRUDEDAREASOLID(#1075,#1074,#1070,2799.9999999999995);
#1077=IFCSHAPEREPRESENTATION(#19,'Body','SweptSolid',(#1076));
#1078=IFCPRODUCTDEFINITIONSHAPE($,$,(#1077));
#1079=IFCCARTESIANPOINT((100.,2600.,0.));
#1080=IFCDIRECTION((0.,0.,1.));
#1081=IFCDIRECTION((1.,0.,0.));
#1082=IFCAXIS2PLACEMENT3D(#1079,#1080,#1081);
#1083=IFCLOCALPLACEMENT(#36,#1082);
ENDSEC;
END-ISO-10303-21;
