ISO-10303-21;
HEADER;
FILE_DESCRIPTION(('ViewDefinition[DesignTransferView]'),'2;1');
FILE_NAME('/dev/null','2026-04-21T15:00:06+00:00',(''),(''),'IfcOpenShell 0.8.5','IfcOpenShell 0.8.5','Nobody');
FILE_SCHEMA(('IFC4'));
ENDSEC;
DATA;
#1=IFCPROJECT('0204mx0Pv2gujBqFVnvruQ',$,'Small clinic with area schedule and sheet export',$,$,$,$,(#10),#5);
#2=IFCSIUNIT(*,.LENGTHUNIT.,.MILLI.,.METRE.);
#3=IFCSIUNIT(*,.AREAUNIT.,$,.SQUARE_METRE.);
#4=IFCSIUNIT(*,.VOLUMEUNIT.,$,.CUBIC_METRE.);
#5=IFCUNITASSIGNMENT((#3,#4,#2));
#6=IFCCARTESIANPOINT((0.,0.,0.));
#7=IFCDIRECTION((0.,0.,1.));
#8=IFCDIRECTION((1.,0.,0.));
#9=IFCAXIS2PLACEMENT3D(#6,#7,#8);
#10=IFCGEOMETRICREPRESENTATIONCONTEXT($,'Model',3,1.0000000000000001E-05,#9,$);
#11=IFCGEOMETRICREPRESENTATIONSUBCONTEXT('Body','Model',*,*,*,*,#10,$,.MODEL_VIEW.,$);
#12=IFCSITE('0ReX5TFFv0JO7cDmMwyfS3',$,'Site',$,$,$,$,$,$,$,$,$,$,$);
#13=IFCBUILDING('0VziQShjf0XwjGmvL5CZXz',$,'Building',$,$,$,$,$,$,$,$,$);
#14=IFCRELAGGREGATES('3LLXwloUL4ohePYGOb8v5y',$,$,$,#1,(#12));
#15=IFCRELAGGREGATES('01TtvVI3v49gv74V_wrtRJ',$,$,$,#12,(#13));
#16=IFCBUILDINGSTOREY('0RI3kP0uX7mQN_UCXs_kIt',$,'Level 1',$,$,#22,$,$,$,$);
#17=IFCRELAGGREGATES('3KMZEEIMH9Fg7YzJ9o2jbI',$,$,$,#13,(#16));
#18=IFCCARTESIANPOINT((0.,0.,0.));
#19=IFCDIRECTION((0.,0.,1.));
#20=IFCDIRECTION((1.,0.,0.));
#21=IFCAXIS2PLACEMENT3D(#18,#19,#20);
#22=IFCLOCALPLACEMENT($,#21);
#23=IFCSLAB('3Y0rufLRfCThL$3_nRKY1S',$,'Ground Slab',$,$,#41,#30,$,$);
#24=IFCCARTESIANPOINTLIST2D(((0.,0.),(20000.,0.),(20000.,14000.),(0.,14000.),(0.,0.)));
#25=IFCINDEXEDPOLYCURVE(#24,$,$);
#26=IFCDIRECTION((0.,0.,1.));
#27=IFCARBITRARYCLOSEDPROFILEDEF(.AREA.,$,#25);
#28=IFCEXTRUDEDAREASOLID(#27,$,#26,250.);
#29=IFCSHAPEREPRESENTATION(#11,'Body','SweptSolid',(#28));
#30=IFCPRODUCTDEFINITIONSHAPE($,$,(#29));
#36=IFCRELCONTAINEDINSPATIALSTRUCTURE('0vUcpUUKT7tAlmnMRFvPrs',$,$,$,(#1452,#82,#104,#170,#192,#236,#1531,#591,#700,#373,#482,#918,#1027,#1136,#42,#1215,#809,#23,#1294,#214,#60,#126,#148,#1373),#16);
#37=IFCCARTESIANPOINT((0.,0.,0.));
#38=IFCDIRECTION((0.,0.,1.));
#39=IFCDIRECTION((1.,0.,0.));
#40=IFCAXIS2PLACEMENT3D(#37,#38,#39);
#41=IFCLOCALPLACEMENT(#22,#40);
#42=IFCROOF('2G0dGVcl5BaAjQmaoLCyS4',$,'Roof',$,$,#59,#49,$,$);
#43=IFCCARTESIANPOINTLIST2D(((0.,0.),(20000.,0.),(20000.,14000.),(0.,14000.),(0.,0.)));
#44=IFCINDEXEDPOLYCURVE(#43,$,$);
#45=IFCDIRECTION((0.,0.,1.));
#46=IFCARBITRARYCLOSEDPROFILEDEF(.AREA.,$,#44);
#47=IFCEXTRUDEDAREASOLID(#46,$,#45,200.);
#48=IFCSHAPEREPRESENTATION(#11,'Body','SweptSolid',(#47));
#49=IFCPRODUCTDEFINITIONSHAPE($,$,(#48));
#55=IFCCARTESIANPOINT((0.,0.,3299.9999999999995));
#56=IFCDIRECTION((0.,0.,1.));
#57=IFCDIRECTION((1.,0.,0.));
#58=IFCAXIS2PLACEMENT3D(#55,#56,#57);
#59=IFCLOCALPLACEMENT(#22,#58);
#60=IFCWALL('3n9yoxWXHAb9EFrGjMx1Mq',$,'Exterior Wall',$,$,#81,#71,$,$);
#61=IFCCARTESIANPOINTLIST2D(((0.,0.),(0.,200.),(20000.,200.),(20000.,0.),(0.,0.)));
#62=IFCINDEXEDPOLYCURVE(#61,$,.F.);
#63=IFCDIRECTION((0.,0.,1.));
#64=IFCARBITRARYCLOSEDPROFILEDEF(.AREA.,$,#62);
#65=IFCCARTESIANPOINT((0.,0.,0.));
#66=IFCDIRECTION((0.,0.,1.));
#67=IFCDIRECTION((1.,0.,0.));
#68=IFCAXIS2PLACEMENT3D(#65,#66,#67);
#69=IFCEXTRUDEDAREASOLID(#64,#68,#63,3299.9999999999995);
#70=IFCSHAPEREPRESENTATION(#11,'Body','SweptSolid',(#69));
#71=IFCPRODUCTDEFINITIONSHAPE($,$,(#70));
#77=IFCCARTESIANPOINT((0.,0.,0.));
#78=IFCDIRECTION((0.,0.,1.));
#79=IFCDIRECTION((1.,0.,0.));
#80=IFCAXIS2PLACEMENT3D(#77,#78,#79);
#81=IFCLOCALPLACEMENT(#22,#80);
#82=IFCWALL('0jI7rjtnz2iOIJF$PurDBg',$,'Exterior Wall',$,$,#103,#93,$,$);
#83=IFCCARTESIANPOINTLIST2D(((0.,0.),(0.,200.),(14000.,200.),(14000.,0.),(0.,0.)));
#84=IFCINDEXEDPOLYCURVE(#83,$,.F.);
#85=IFCDIRECTION((0.,0.,1.));
#86=IFCARBITRARYCLOSEDPROFILEDEF(.AREA.,$,#84);
#87=IFCCARTESIANPOINT((0.,0.,0.));
#88=IFCDIRECTION((0.,0.,1.));
#89=IFCDIRECTION((1.,0.,0.));
#90=IFCAXIS2PLACEMENT3D(#87,#88,#89);
#91=IFCEXTRUDEDAREASOLID(#86,#90,#85,3299.9999999999995);
#92=IFCSHAPEREPRESENTATION(#11,'Body','SweptSolid',(#91));
#93=IFCPRODUCTDEFINITIONSHAPE($,$,(#92));
#99=IFCCARTESIANPOINT((20000.,0.,0.));
#100=IFCDIRECTION((0.,0.,1.));
#101=IFCDIRECTION((6.123233995736766E-17,1.,0.));
#102=IFCAXIS2PLACEMENT3D(#99,#100,#101);
#103=IFCLOCALPLACEMENT(#22,#102);
#104=IFCWALL('3pUeOEwy96IuoWHpuFLHlR',$,'Exterior Wall',$,$,#125,#115,$,$);
#105=IFCCARTESIANPOINTLIST2D(((0.,0.),(0.,200.),(20000.,200.),(20000.,0.),(0.,0.)));
#106=IFCINDEXEDPOLYCURVE(#105,$,.F.);
#107=IFCDIRECTION((0.,0.,1.));
#108=IFCARBITRARYCLOSEDPROFILEDEF(.AREA.,$,#106);
#109=IFCCARTESIANPOINT((0.,0.,0.));
#110=IFCDIRECTION((0.,0.,1.));
#111=IFCDIRECTION((1.,0.,0.));
#112=IFCAXIS2PLACEMENT3D(#109,#110,#111);
#113=IFCEXTRUDEDAREASOLID(#108,#112,#107,3299.9999999999995);
#114=IFCSHAPEREPRESENTATION(#11,'Body','SweptSolid',(#113));
#115=IFCPRODUCTDEFINITIONSHAPE($,$,(#114));
#121=IFCCARTESIANPOINT((20000.,14000.,0.));
#122=IFCDIRECTION((0.,0.,1.));
#123=IFCDIRECTION((-1.,1.2246467991473532E-16,0.));
#124=IFCAXIS2PLACEMENT3D(#121,#122,#123);
#125=IFCLOCALPLACEMENT(#22,#124);
#126=IFCWALL('3Epc7b7v1CpgsriuOYHdHP',$,'Exterior Wall',$,$,#147,#137,$,$);
#127=IFCCARTESIANPOINTLIST2D(((0.,0.),(0.,200.),(14000.,200.),(14000.,0.),(0.,0.)));
#128=IFCINDEXEDPOLYCURVE(#127,$,.F.);
#129=IFCDIRECTION((0.,0.,1.));
#130=IFCARBITRARYCLOSEDPROFILEDEF(.AREA.,$,#128);
#131=IFCCARTESIANPOINT((0.,0.,0.));
#132=IFCDIRECTION((0.,0.,1.));
#133=IFCDIRECTION((1.,0.,0.));
#134=IFCAXIS2PLACEMENT3D(#131,#132,#133);
#135=IFCEXTRUDEDAREASOLID(#130,#134,#129,3299.9999999999995);
#136=IFCSHAPEREPRESENTATION(#11,'Body','SweptSolid',(#135));
#137=IFCPRODUCTDEFINITIONSHAPE($,$,(#136));
#143=IFCCARTESIANPOINT((0.,14000.,0.));
#144=IFCDIRECTION((0.,0.,1.));
#145=IFCDIRECTION((6.123233995736766E-17,-1.,0.));
#146=IFCAXIS2PLACEMENT3D(#143,#144,#145);
#147=IFCLOCALPLACEMENT(#22,#146);
#148=IFCWALL('0O1xfo$rbFu8KSJEBFewn3',$,'Waiting Split',$,$,#169,#159,$,$);
#149=IFCCARTESIANPOINTLIST2D(((0.,0.),(0.,150.),(5000.,150.),(5000.,0.),(0.,0.)));
#150=IFCINDEXEDPOLYCURVE(#149,$,.F.);
#151=IFCDIRECTION((0.,0.,1.));
#152=IFCARBITRARYCLOSEDPROFILEDEF(.AREA.,$,#150);
#153=IFCCARTESIANPOINT((0.,0.,0.));
#154=IFCDIRECTION((0.,0.,1.));
#155=IFCDIRECTION((1.,0.,0.));
#156=IFCAXIS2PLACEMENT3D(#153,#154,#155);
#157=IFCEXTRUDEDAREASOLID(#152,#156,#151,3299.9999999999995);
#158=IFCSHAPEREPRESENTATION(#11,'Body','SweptSolid',(#157));
#159=IFCPRODUCTDEFINITIONSHAPE($,$,(#158));
#165=IFCCARTESIANPOINT((6000.,0.,0.));
#166=IFCDIRECTION((0.,0.,1.));
#167=IFCDIRECTION((6.123233995736766E-17,1.,0.));
#168=IFCAXIS2PLACEMENT3D(#165,#166,#167);
#169=IFCLOCALPLACEMENT(#22,#168);
#170=IFCWALL('1cpqLOvDzAGOUABBYGNLP$',$,'Consult Split',$,$,#191,#181,$,$);
#171=IFCCARTESIANPOINTLIST2D(((0.,0.),(0.,150.),(5000.,150.),(5000.,0.),(0.,0.)));
#172=IFCINDEXEDPOLYCURVE(#171,$,.F.);
#173=IFCDIRECTION((0.,0.,1.));
#174=IFCARBITRARYCLOSEDPROFILEDEF(.AREA.,$,#172);
#175=IFCCARTESIANPOINT((0.,0.,0.));
#176=IFCDIRECTION((0.,0.,1.));
#177=IFCDIRECTION((1.,0.,0.));
#178=IFCAXIS2PLACEMENT3D(#175,#176,#177);
#179=IFCEXTRUDEDAREASOLID(#174,#178,#173,3299.9999999999995);
#180=IFCSHAPEREPRESENTATION(#11,'Body','SweptSolid',(#179));
#181=IFCPRODUCTDEFINITIONSHAPE($,$,(#180));
#187=IFCCARTESIANPOINT((13000.,0.,0.));
#188=IFCDIRECTION((0.,0.,1.));
#189=IFCDIRECTION((6.123233995736766E-17,1.,0.));
#190=IFCAXIS2PLACEMENT3D(#187,#188,#189);
#191=IFCLOCALPLACEMENT(#22,#190);
#192=IFCWALL('229AUm0KTCrx8Wn_UieabK',$,'Public Clinical Split',$,$,#213,#203,$,$);
#193=IFCCARTESIANPOINTLIST2D(((0.,0.),(0.,150.),(20000.,150.),(20000.,0.),(0.,0.)));
#194=IFCINDEXEDPOLYCURVE(#193,$,.F.);
#195=IFCDIRECTION((0.,0.,1.));
#196=IFCARBITRARYCLOSEDPROFILEDEF(.AREA.,$,#194);
#197=IFCCARTESIANPOINT((0.,0.,0.));
#198=IFCDIRECTION((0.,0.,1.));
#199=IFCDIRECTION((1.,0.,0.));
#200=IFCAXIS2PLACEMENT3D(#197,#198,#199);
#201=IFCEXTRUDEDAREASOLID(#196,#200,#195,3299.9999999999995);
#202=IFCSHAPEREPRESENTATION(#11,'Body','SweptSolid',(#201));
#203=IFCPRODUCTDEFINITIONSHAPE($,$,(#202));
#209=IFCCARTESIANPOINT((0.,5000.,0.));
#210=IFCDIRECTION((0.,0.,1.));
#211=IFCDIRECTION((1.,0.,0.));
#212=IFCAXIS2PLACEMENT3D(#209,#210,#211);
#213=IFCLOCALPLACEMENT(#22,#212);
#214=IFCWALL('3XfXu5cVv9nQN2JfQuRlpA',$,'Consult Treatment Split',$,$,#235,#225,$,$);
#215=IFCCARTESIANPOINTLIST2D(((0.,0.),(0.,150.),(9000.,150.),(9000.,0.),(0.,0.)));
#216=IFCINDEXEDPOLYCURVE(#215,$,.F.);
#217=IFCDIRECTION((0.,0.,1.));
#218=IFCARBITRARYCLOSEDPROFILEDEF(.AREA.,$,#216);
#219=IFCCARTESIANPOINT((0.,0.,0.));
#220=IFCDIRECTION((0.,0.,1.));
#221=IFCDIRECTION((1.,0.,0.));
#222=IFCAXIS2PLACEMENT3D(#219,#220,#221);
#223=IFCEXTRUDEDAREASOLID(#218,#222,#217,3299.9999999999995);
#224=IFCSHAPEREPRESENTATION(#11,'Body','SweptSolid',(#223));
#225=IFCPRODUCTDEFINITIONSHAPE($,$,(#224));
#231=IFCCARTESIANPOINT((10000.,5000.,0.));
#232=IFCDIRECTION((0.,0.,1.));
#233=IFCDIRECTION((6.123233995736766E-17,1.,0.));
#234=IFCAXIS2PLACEMENT3D(#231,#232,#233);
#235=IFCLOCALPLACEMENT(#22,#234);
#236=IFCWALL('1jCNre9ir50BMgCBzGr5MY',$,'Staff Toilet Split',$,$,#257,#247,$,$);
#237=IFCCARTESIANPOINTLIST2D(((0.,0.),(0.,150.),(9000.,150.),(9000.,0.),(0.,0.)));
#238=IFCINDEXEDPOLYCURVE(#237,$,.F.);
#239=IFCDIRECTION((0.,0.,1.));
#240=IFCARBITRARYCLOSEDPROFILEDEF(.AREA.,$,#238);
#241=IFCCARTESIANPOINT((0.,0.,0.));
#242=IFCDIRECTION((0.,0.,1.));
#243=IFCDIRECTION((1.,0.,0.));
#244=IFCAXIS2PLACEMENT3D(#241,#242,#243);
#245=IFCEXTRUDEDAREASOLID(#240,#244,#239,3299.9999999999995);
#246=IFCSHAPEREPRESENTATION(#11,'Body','SweptSolid',(#245));
#247=IFCPRODUCTDEFINITIONSHAPE($,$,(#246));
#253=IFCCARTESIANPOINT((15000.,5000.,0.));
#254=IFCDIRECTION((0.,0.,1.));
#255=IFCDIRECTION((6.123233995736766E-17,1.,0.));
#256=IFCAXIS2PLACEMENT3D(#253,#254,#255);
#257=IFCLOCALPLACEMENT(#22,#256);
#258=IFCSPACE('3LG_9vPYH7SvGZJG$eyUXV',$,'Reception',$,$,#271,#266,$,$,$,$);
#259=IFCRELAGGREGATES('1XJmVHRNr10w_SAc6eJK2F',$,$,$,#16,(#285,#272,#324,#298,#258,#337,#311));
#260=IFCCARTESIANPOINTLIST2D(((300.,300.),(5700.,300.),(5700.,4700.),(300.,4700.),(300.,300.)));
#261=IFCINDEXEDPOLYCURVE(#260,$,$);
#262=IFCDIRECTION((0.,0.,1.));
#263=IFCARBITRARYCLOSEDPROFILEDEF(.AREA.,$,#261);
#264=IFCEXTRUDEDAREASOLID(#263,$,#262,2900.);
#265=IFCSHAPEREPRESENTATION(#11,'Body','SweptSolid',(#264));
#266=IFCPRODUCTDEFINITIONSHAPE($,$,(#265));
#267=IFCCARTESIANPOINT((0.,0.,0.));
#268=IFCDIRECTION((0.,0.,1.));
#269=IFCDIRECTION((1.,0.,0.));
#270=IFCAXIS2PLACEMENT3D(#267,#268,#269);
#271=IFCLOCALPLACEMENT(#22,#270);
#272=IFCSPACE('3fpzJQ_bfCAAwVVOhCYaMj',$,'Waiting',$,$,#284,#279,$,$,$,$);
#273=IFCCARTESIANPOINTLIST2D(((6300.,300.),(12699.999999999998,300.),(12699.999999999998,4700.),(6300.,4700.),(6300.,300.)));
#274=IFCINDEXEDPOLYCURVE(#273,$,$);
#275=IFCDIRECTION((0.,0.,1.));
#276=IFCARBITRARYCLOSEDPROFILEDEF(.AREA.,$,#274);
#277=IFCEXTRUDEDAREASOLID(#276,$,#275,2900.);
#278=IFCSHAPEREPRESENTATION(#11,'Body','SweptSolid',(#277));
#279=IFCPRODUCTDEFINITIONSHAPE($,$,(#278));
#280=IFCCARTESIANPOINT((0.,0.,0.));
#281=IFCDIRECTION((0.,0.,1.));
#282=IFCDIRECTION((1.,0.,0.));
#283=IFCAXIS2PLACEMENT3D(#280,#281,#282);
#284=IFCLOCALPLACEMENT(#22,#283);
#285=IFCSPACE('0rNrwzOUj1x976kKnEeDvi',$,'Consultation 1',$,$,#297,#292,$,$,$,$);
#286=IFCCARTESIANPOINTLIST2D(((300.,5300.),(9699.9999999999982,5300.),(9699.9999999999982,9300.),(300.,9300.),(300.,5300.)));
#287=IFCINDEXEDPOLYCURVE(#286,$,$);
#288=IFCDIRECTION((0.,0.,1.));
#289=IFCARBITRARYCLOSEDPROFILEDEF(.AREA.,$,#287);
#290=IFCEXTRUDEDAREASOLID(#289,$,#288,2900.);
#291=IFCSHAPEREPRESENTATION(#11,'Body','SweptSolid',(#290));
#292=IFCPRODUCTDEFINITIONSHAPE($,$,(#291));
#293=IFCCARTESIANPOINT((0.,0.,0.));
#294=IFCDIRECTION((0.,0.,1.));
#295=IFCDIRECTION((1.,0.,0.));
#296=IFCAXIS2PLACEMENT3D(#293,#294,#295);
#297=IFCLOCALPLACEMENT(#22,#296);
#298=IFCSPACE('3y9$cdOpT7Rvqx7wyVs4yX',$,'Consultation 2',$,$,#310,#305,$,$,$,$);
#299=IFCCARTESIANPOINTLIST2D(((300.,9699.9999999999982),(9699.9999999999982,9699.9999999999982),(9699.9999999999982,13699.999999999998),(300.,13699.999999999998),(300.,9699.9999999999982)));
#300=IFCINDEXEDPOLYCURVE(#299,$,$);
#301=IFCDIRECTION((0.,0.,1.));
#302=IFCARBITRARYCLOSEDPROFILEDEF(.AREA.,$,#300);
#303=IFCEXTRUDEDAREASOLID(#302,$,#301,2900.);
#304=IFCSHAPEREPRESENTATION(#11,'Body','SweptSolid',(#303));
#305=IFCPRODUCTDEFINITIONSHAPE($,$,(#304));
#306=IFCCARTESIANPOINT((0.,0.,0.));
#307=IFCDIRECTION((0.,0.,1.));
#308=IFCDIRECTION((1.,0.,0.));
#309=IFCAXIS2PLACEMENT3D(#306,#307,#308);
#310=IFCLOCALPLACEMENT(#22,#309);
#311=IFCSPACE('151HxuuRL0EQJAi3a7nYP4',$,'Treatment',$,$,#323,#318,$,$,$,$);
#312=IFCCARTESIANPOINTLIST2D(((10300.,5300.),(14699.999999999998,5300.),(14699.999999999998,13699.999999999998),(10300.,13699.999999999998),(10300.,5300.)));
#313=IFCINDEXEDPOLYCURVE(#312,$,$);
#314=IFCDIRECTION((0.,0.,1.));
#315=IFCARBITRARYCLOSEDPROFILEDEF(.AREA.,$,#313);
#316=IFCEXTRUDEDAREASOLID(#315,$,#314,2900.);
#317=IFCSHAPEREPRESENTATION(#11,'Body','SweptSolid',(#316));
#318=IFCPRODUCTDEFINITIONSHAPE($,$,(#317));
#319=IFCCARTESIANPOINT((0.,0.,0.));
#320=IFCDIRECTION((0.,0.,1.));
#321=IFCDIRECTION((1.,0.,0.));
#322=IFCAXIS2PLACEMENT3D(#319,#320,#321);
#323=IFCLOCALPLACEMENT(#22,#322);
#324=IFCSPACE('3xFjV$myP2Zv4xYmo8mDN_',$,'Staff Room',$,$,#336,#331,$,$,$,$);
#325=IFCCARTESIANPOINTLIST2D(((15300.,5300.),(19700.,5300.),(19700.,9300.),(15300.,9300.),(15300.,5300.)));
#326=IFCINDEXEDPOLYCURVE(#325,$,$);
#327=IFCDIRECTION((0.,0.,1.));
#328=IFCARBITRARYCLOSEDPROFILEDEF(.AREA.,$,#326);
#329=IFCEXTRUDEDAREASOLID(#328,$,#327,2900.);
#330=IFCSHAPEREPRESENTATION(#11,'Body','SweptSolid',(#329));
#331=IFCPRODUCTDEFINITIONSHAPE($,$,(#330));
#332=IFCCARTESIANPOINT((0.,0.,0.));
#333=IFCDIRECTION((0.,0.,1.));
#334=IFCDIRECTION((1.,0.,0.));
#335=IFCAXIS2PLACEMENT3D(#332,#333,#334);
#336=IFCLOCALPLACEMENT(#22,#335);
#337=IFCSPACE('0x50bqOePAzO$K4FaDXGpQ',$,'Toilets',$,$,#349,#344,$,$,$,$);
#338=IFCCARTESIANPOINTLIST2D(((15300.,9699.9999999999982),(19700.,9699.9999999999982),(19700.,13699.999999999998),(15300.,13699.999999999998),(15300.,9699.9999999999982)));
#339=IFCINDEXEDPOLYCURVE(#338,$,$);
#340=IFCDIRECTION((0.,0.,1.));
#341=IFCARBITRARYCLOSEDPROFILEDEF(.AREA.,$,#339);
#342=IFCEXTRUDEDAREASOLID(#341,$,#340,2900.);
#343=IFCSHAPEREPRESENTATION(#11,'Body','SweptSolid',(#342));
#344=IFCPRODUCTDEFINITIONSHAPE($,$,(#343));
#345=IFCCARTESIANPOINT((0.,0.,0.));
#346=IFCDIRECTION((0.,0.,1.));
#347=IFCDIRECTION((1.,0.,0.));
#348=IFCAXIS2PLACEMENT3D(#345,#346,#347);
#349=IFCLOCALPLACEMENT(#22,#348);
#350=IFCOPENINGELEMENT('0XvRc4ReLCHOtQ_cjpqrsD',$,'Main Entry Opening',$,$,#372,#361,$,$);
#351=IFCCARTESIANPOINTLIST2D(((0.,0.),(0.,400.),(1200.,400.),(1200.,0.),(0.,0.)));
#352=IFCINDEXEDPOLYCURVE(#351,$,.F.);
#353=IFCDIRECTION((0.,0.,1.));
#354=IFCARBITRARYCLOSEDPROFILEDEF(.AREA.,$,#352);
#355=IFCCARTESIANPOINT((0.,0.,0.));
#356=IFCDIRECTION((0.,0.,1.));
#357=IFCDIRECTION((1.,0.,0.));
#358=IFCAXIS2PLACEMENT3D(#355,#356,#357);
#359=IFCEXTRUDEDAREASOLID(#354,#358,#353,2100.);
#360=IFCSHAPEREPRESENTATION(#11,'Body','SweptSolid',(#359));
#361=IFCPRODUCTDEFINITIONSHAPE($,$,(#360));
#367=IFCRELVOIDSELEMENT('0rr$80wUz5rfalvVuJ5mNw',$,$,$,#60,#350);
#368=IFCCARTESIANPOINT((2000.,-100.,0.));
#369=IFCDIRECTION((0.,0.,1.));
#370=IFCDIRECTION((1.,0.,0.));
#371=IFCAXIS2PLACEMENT3D(#368,#369,#370);
#372=IFCLOCALPLACEMENT(#81,#371);
#373=IFCDOOR('2LyvSunGH1rAkOWrjnamJi',$,'Main Entry',$,$,#458,#447,$,$,$,$,$,$);
#374=IFCCARTESIANPOINTLIST2D(((0.,0.),(0.,2.1000000000000001),(1.2,2.1000000000000001),(1.2,0.),(-23.800000000000001,0.),(-23.800000000000001,-22.899999999999999),(25.,-22.899999999999999),(25.,0.)));
#375=IFCINDEXEDPOLYCURVE(#374,(IFCLINEINDEX((1,2,3,4,5,6,7,8,1))),$);
#376=IFCARBITRARYCLOSEDPROFILEDEF(.AREA.,$,#375);
#377=IFCCARTESIANPOINT((0.,25.,0.));
#378=IFCDIRECTION((0.,-1.,0.));
#379=IFCDIRECTION((1.,0.,0.));
#380=IFCAXIS2PLACEMENT3D(#377,#378,#379);
#381=IFCDIRECTION((0.,0.,-1.));
#382=IFCEXTRUDEDAREASOLID(#376,#380,#381,25.);
#383=IFCCARTESIANPOINTLIST2D(((0.,0.),(0.,2.1000000000000001),(1.2,2.1000000000000001),(1.2,0.),(-48.799999999999997,0.),(-48.799999999999997,-47.899999999999999),(50.,-47.899999999999999),(50.,0.)));
#384=IFCINDEXEDPOLYCURVE(#383,(IFCLINEINDEX((1,2,3,4,5,6,7,8,1))),$);
#385=IFCARBITRARYCLOSEDPROFILEDEF(.AREA.,$,#384);
#386=IFCCARTESIANPOINT((0.,0.,0.));
#387=IFCDIRECTION((0.,-1.,0.));
#388=IFCDIRECTION((1.,0.,0.));
#389=IFCAXIS2PLACEMENT3D(#386,#387,#388);
#390=IFCDIRECTION((0.,0.,-1.));
#391=IFCEXTRUDEDAREASOLID(#385,#389,#390,25.);
#392=IFCCARTESIANPOINTLIST2D(((0.,0.),(-98.799999999999997,0.),(-98.799999999999997,100.),(0.,100.)));
#393=IFCINDEXEDPOLYCURVE(#392,(IFCLINEINDEX((1,2,3,4,1))),$);
#394=IFCARBITRARYCLOSEDPROFILEDEF(.AREA.,$,#393);
#395=IFCCARTESIANPOINT((50.,0.,0.));
#396=IFCDIRECTION((0.,0.,1.));
#397=IFCDIRECTION((1.,0.,0.));
#398=IFCAXIS2PLACEMENT3D(#395,#396,#397);
#399=IFCDIRECTION((0.,0.,1.));
#400=IFCEXTRUDEDAREASOLID(#394,#398,#399,25.);
#401=IFCCARTESIANPOINTLIST2D(((0.,0.),(0.,27.100000000000001),(51.200000000000003,27.100000000000001),(51.200000000000003,0.),(-23.799999999999997,0.),(-23.799999999999997,-47.899999999999999),(75.,-47.899999999999999),(75.,0.)));
#402=IFCINDEXEDPOLYCURVE(#401,(IFCLINEINDEX((1,2,3,4,5,6,7,8,1))),$);
#403=IFCARBITRARYCLOSEDPROFILEDEF(.AREA.,$,#402);
#404=IFCCARTESIANPOINT((-25.,-5.,0.));
#405=IFCDIRECTION((0.,-1.,0.));
#406=IFCDIRECTION((1.,0.,0.));
#407=IFCAXIS2PLACEMENT3D(#404,#405,#406);
#408=IFCDIRECTION((0.,0.,-1.));
#409=IFCEXTRUDEDAREASOLID(#403,#407,#408,5.);
#410=IFCCARTESIANPOINTLIST2D(((0.,0.),(0.,27.100000000000001),(51.200000000000003,27.100000000000001),(51.200000000000003,0.),(1.2000000000000028,0.),(1.2000000000000028,-22.899999999999999),(50.,-22.899999999999999),(50.,0.)));
#411=IFCINDEXEDPOLYCURVE(#410,(IFCLINEINDEX((1,2,3,4,5,6,7,8,1))),$);
#412=IFCARBITRARYCLOSEDPROFILEDEF(.AREA.,$,#411);
#413=IFCCARTESIANPOINT((-25.,50.,0.));
#414=IFCDIRECTION((0.,-1.,0.));
#415=IFCDIRECTION((1.,0.,0.));
#416=IFCAXIS2PLACEMENT3D(#413,#414,#415);
#417=IFCDIRECTION((0.,0.,-1.));
#418=IFCEXTRUDEDAREASOLID(#412,#416,#417,5.);
#419=IFCCARTESIANPOINTLIST2D(((0.,0.),(-48.799999999999997,0.),(-48.799999999999997,35.),(0.,35.)));
#420=IFCINDEXEDPOLYCURVE(#419,(IFCLINEINDEX((1,2,3,4,1))),$);
#421=IFCARBITRARYCLOSEDPROFILEDEF(.AREA.,$,#420);
#422=IFCCARTESIANPOINT((25.,25.,25.));
#423=IFCDIRECTION((0.,0.,1.));
#424=IFCDIRECTION((1.,0.,0.));
#425=IFCAXIS2PLACEMENT3D(#422,#423,#424);
#426=IFCDIRECTION((0.,0.,1.));
#427=IFCEXTRUDEDAREASOLID(#421,#425,#426,-47.899999999999999);
#428=IFCCARTESIANPOINTLIST2D(((0.,0.),(0.,-40.),(-120.,-40.),(-120.,-20.),(-20.,-20.),(-20.,0.)));
#429=IFCINDEXEDPOLYCURVE(#428,(IFCLINEINDEX((1,2,3,4,5,6,1))),$);
#430=IFCARBITRARYCLOSEDPROFILEDEF(.AREA.,$,#429);
#431=IFCCARTESIANPOINT((-73.800000000000011,25.,1015.));
#432=IFCDIRECTION((0.,0.,1.));
#433=IFCDIRECTION((1.,0.,0.));
#434=IFCAXIS2PLACEMENT3D(#431,#432,#433);
#435=IFCDIRECTION((0.,0.,1.));
#436=IFCEXTRUDEDAREASOLID(#430,#434,#435,20.);
#437=IFCEXTRUDEDAREASOLID(#438,#441,#445,20.);
#438=IFCARBITRARYCLOSEDPROFILEDEF(.AREA.,$,#439);
#439=IFCINDEXEDPOLYCURVE(#440,(IFCLINEINDEX((1,2,3,4,5,6,1))),$);
#440=IFCCARTESIANPOINTLIST2D(((0.,0.),(0.,40.),(-120.,40.),(-120.,20.),(-20.,20.),(-20.,0.)));
#441=IFCAXIS2PLACEMENT3D(#442,#443,#444);
#442=IFCCARTESIANPOINT((-73.800000000000011,60.,1015.));
#443=IFCDIRECTION((0.,0.,1.));
#444=IFCDIRECTION((1.,0.,0.));
#445=IFCDIRECTION((0.,0.,1.));
#446=IFCSHAPEREPRESENTATION(#11,'Body','SweptSolid',(#382,#391,#427,#436,#437,#400,#409,#418));
#447=IFCPRODUCTDEFINITIONSHAPE($,$,(#446));
#453=IFCRELFILLSELEMENT('0jE97EQnnAfuhu3VpMOo8I',$,$,$,#350,#373);
#454=IFCCARTESIANPOINT((0.,170.,0.));
#455=IFCDIRECTION((0.,0.,1.));
#456=IFCDIRECTION((1.,0.,0.));
#457=IFCAXIS2PLACEMENT3D(#454,#455,#456);
#458=IFCLOCALPLACEMENT(#372,#457);
#459=IFCOPENINGELEMENT('2F5CgfEGjB2fbmHnBoG6lc',$,'Reception Door Opening',$,$,#481,#470,$,$);
#460=IFCCARTESIANPOINTLIST2D(((0.,0.),(0.,349.99999999999994),(900.,349.99999999999994),(900.,0.),(0.,0.)));
#461=IFCINDEXEDPOLYCURVE(#460,$,.F.);
#462=IFCDIRECTION((0.,0.,1.));
#463=IFCARBITRARYCLOSEDPROFILEDEF(.AREA.,$,#461);
#464=IFCCARTESIANPOINT((0.,0.,0.));
#465=IFCDIRECTION((0.,0.,1.));
#466=IFCDIRECTION((1.,0.,0.));
#467=IFCAXIS2PLACEMENT3D(#464,#465,#466);
#468=IFCEXTRUDEDAREASOLID(#463,#467,#462,2100.);
#469=IFCSHAPEREPRESENTATION(#11,'Body','SweptSolid',(#468));
#470=IFCPRODUCTDEFINITIONSHAPE($,$,(#469));
#476=IFCRELVOIDSELEMENT('2m$FOcANj8tuZL7lLaskLK',$,$,$,#148,#459);
#477=IFCCARTESIANPOINT((2000.,-100.00000000000053,0.));
#478=IFCDIRECTION((0.,0.,1.));
#479=IFCDIRECTION((1.,0.,0.));
#480=IFCAXIS2PLACEMENT3D(#477,#478,#479);
#481=IFCLOCALPLACEMENT(#169,#480);
#482=IFCDOOR('2_0Dnis7H8egcShDmyEs4t',$,'Reception Door',$,$,#567,#556,$,$,$,$,$,$);
#483=IFCCARTESIANPOINTLIST2D(((0.,0.),(0.,2.1000000000000001),(0.90000000000000002,2.1000000000000001),(0.90000000000000002,0.),(-24.100000000000001,0.),(-24.100000000000001,-22.899999999999999),(25.,-22.899999999999999),(25.,0.)));
#484=IFCINDEXEDPOLYCURVE(#483,(IFCLINEINDEX((1,2,3,4,5,6,7,8,1))),$);
#485=IFCARBITRARYCLOSEDPROFILEDEF(.AREA.,$,#484);
#486=IFCCARTESIANPOINT((0.,25.,0.));
#487=IFCDIRECTION((0.,-1.,0.));
#488=IFCDIRECTION((1.,0.,0.));
#489=IFCAXIS2PLACEMENT3D(#486,#487,#488);
#490=IFCDIRECTION((0.,0.,-1.));
#491=IFCEXTRUDEDAREASOLID(#485,#489,#490,25.);
#492=IFCCARTESIANPOINTLIST2D(((0.,0.),(0.,2.1000000000000001),(0.90000000000000002,2.1000000000000001),(0.90000000000000002,0.),(-49.100000000000001,0.),(-49.100000000000001,-47.899999999999999),(50.,-47.899999999999999),(50.,0.)));
#493=IFCINDEXEDPOLYCURVE(#492,(IFCLINEINDEX((1,2,3,4,5,6,7,8,1))),$);
#494=IFCARBITRARYCLOSEDPROFILEDEF(.AREA.,$,#493);
#495=IFCCARTESIANPOINT((0.,0.,0.));
#496=IFCDIRECTION((0.,-1.,0.));
#497=IFCDIRECTION((1.,0.,0.));
#498=IFCAXIS2PLACEMENT3D(#495,#496,#497);
#499=IFCDIRECTION((0.,0.,-1.));
#500=IFCEXTRUDEDAREASOLID(#494,#498,#499,25.);
#501=IFCCARTESIANPOINTLIST2D(((0.,0.),(-99.099999999999994,0.),(-99.099999999999994,100.),(0.,100.)));
#502=IFCINDEXEDPOLYCURVE(#501,(IFCLINEINDEX((1,2,3,4,1))),$);
#503=IFCARBITRARYCLOSEDPROFILEDEF(.AREA.,$,#502);
#504=IFCCARTESIANPOINT((50.,0.,0.));
#505=IFCDIRECTION((0.,0.,1.));
#506=IFCDIRECTION((1.,0.,0.));
#507=IFCAXIS2PLACEMENT3D(#504,#505,#506);
#508=IFCDIRECTION((0.,0.,1.));
#509=IFCEXTRUDEDAREASOLID(#503,#507,#508,25.);
#510=IFCCARTESIANPOINTLIST2D(((0.,0.),(0.,27.100000000000001),(50.899999999999999,27.100000000000001),(50.899999999999999,0.),(-24.100000000000001,0.),(-24.100000000000001,-47.899999999999999),(75.,-47.899999999999999),(75.,0.)));
#511=IFCINDEXEDPOLYCURVE(#510,(IFCLINEINDEX((1,2,3,4,5,6,7,8,1))),$);
#512=IFCARBITRARYCLOSEDPROFILEDEF(.AREA.,$,#511);
#513=IFCCARTESIANPOINT((-25.,-5.,0.));
#514=IFCDIRECTION((0.,-1.,0.));
#515=IFCDIRECTION((1.,0.,0.));
#516=IFCAXIS2PLACEMENT3D(#513,#514,#515);
#517=IFCDIRECTION((0.,0.,-1.));
#518=IFCEXTRUDEDAREASOLID(#512,#516,#517,5.);
#519=IFCCARTESIANPOINTLIST2D(((0.,0.),(0.,27.100000000000001),(50.899999999999999,27.100000000000001),(50.899999999999999,0.),(0.89999999999999858,0.),(0.89999999999999858,-22.899999999999999),(50.,-22.899999999999999),(50.,0.)));
#520=IFCINDEXEDPOLYCURVE(#519,(IFCLINEINDEX((1,2,3,4,5,6,7,8,1))),$);
#521=IFCARBITRARYCLOSEDPROFILEDEF(.AREA.,$,#520);
#522=IFCCARTESIANPOINT((-25.,50.,0.));
#523=IFCDIRECTION((0.,-1.,0.));
#524=IFCDIRECTION((1.,0.,0.));
#525=IFCAXIS2PLACEMENT3D(#522,#523,#524);
#526=IFCDIRECTION((0.,0.,-1.));
#527=IFCEXTRUDEDAREASOLID(#521,#525,#526,5.);
#528=IFCCARTESIANPOINTLIST2D(((0.,0.),(-49.100000000000001,0.),(-49.100000000000001,35.),(0.,35.)));
#529=IFCINDEXEDPOLYCURVE(#528,(IFCLINEINDEX((1,2,3,4,1))),$);
#530=IFCARBITRARYCLOSEDPROFILEDEF(.AREA.,$,#529);
#531=IFCCARTESIANPOINT((25.,25.,25.));
#532=IFCDIRECTION((0.,0.,1.));
#533=IFCDIRECTION((1.,0.,0.));
#534=IFCAXIS2PLACEMENT3D(#531,#532,#533);
#535=IFCDIRECTION((0.,0.,1.));
#536=IFCEXTRUDEDAREASOLID(#530,#534,#535,-47.899999999999999);
#537=IFCCARTESIANPOINTLIST2D(((0.,0.),(0.,-40.),(-120.00000000000003,-40.),(-120.00000000000003,-20.),(-20.,-20.),(-20.,0.)));
#538=IFCINDEXEDPOLYCURVE(#537,(IFCLINEINDEX((1,2,3,4,5,6,1))),$);
#539=IFCARBITRARYCLOSEDPROFILEDEF(.AREA.,$,#538);
#540=IFCCARTESIANPOINT((-74.099999999999994,25.,1015.));
#541=IFCDIRECTION((0.,0.,1.));
#542=IFCDIRECTION((1.,0.,0.));
#543=IFCAXIS2PLACEMENT3D(#540,#541,#542);
#544=IFCDIRECTION((0.,0.,1.));
#545=IFCEXTRUDEDAREASOLID(#539,#543,#544,20.);
#546=IFCEXTRUDEDAREASOLID(#547,#550,#554,20.);
#547=IFCARBITRARYCLOSEDPROFILEDEF(.AREA.,$,#548);
#548=IFCINDEXEDPOLYCURVE(#549,(IFCLINEINDEX((1,2,3,4,5,6,1))),$);
#549=IFCCARTESIANPOINTLIST2D(((0.,0.),(0.,40.),(-120.00000000000003,40.),(-120.00000000000003,20.),(-20.,20.),(-20.,0.)));
#550=IFCAXIS2PLACEMENT3D(#551,#552,#553);
#551=IFCCARTESIANPOINT((-74.099999999999994,60.,1015.));
#552=IFCDIRECTION((0.,0.,1.));
#553=IFCDIRECTION((1.,0.,0.));
#554=IFCDIRECTION((0.,0.,1.));
#555=IFCSHAPEREPRESENTATION(#11,'Body','SweptSolid',(#491,#500,#536,#545,#546,#509,#518,#527));
#556=IFCPRODUCTDEFINITIONSHAPE($,$,(#555));
#562=IFCRELFILLSELEMENT('2nw17EsJ1C39p4t7bZv9nC',$,$,$,#459,#482);
#563=IFCCARTESIANPOINT((0.,145.00000000000134,0.));
#564=IFCDIRECTION((0.,0.,1.));
#565=IFCDIRECTION((1.,0.,0.));
#566=IFCAXIS2PLACEMENT3D(#563,#564,#565);
#567=IFCLOCALPLACEMENT(#481,#566);
#568=IFCOPENINGELEMENT('1Pn_n6S319APrglARxZVEJ',$,'Waiting Door Opening',$,$,#590,#579,$,$);
#569=IFCCARTESIANPOINTLIST2D(((0.,0.),(0.,349.99999999999994),(900.,349.99999999999994),(900.,0.),(0.,0.)));
#570=IFCINDEXEDPOLYCURVE(#569,$,.F.);
#571=IFCDIRECTION((0.,0.,1.));
#572=IFCARBITRARYCLOSEDPROFILEDEF(.AREA.,$,#570);
#573=IFCCARTESIANPOINT((0.,0.,0.));
#574=IFCDIRECTION((0.,0.,1.));
#575=IFCDIRECTION((1.,0.,0.));
#576=IFCAXIS2PLACEMENT3D(#573,#574,#575);
#577=IFCEXTRUDEDAREASOLID(#572,#576,#571,2100.);
#578=IFCSHAPEREPRESENTATION(#11,'Body','SweptSolid',(#577));
#579=IFCPRODUCTDEFINITIONSHAPE($,$,(#578));
#585=IFCRELVOIDSELEMENT('1HredGBqXEGQBKBOv7OhxK',$,$,$,#170,#568);
#586=IFCCARTESIANPOINT((2000.,-99.999999999999645,0.));
#587=IFCDIRECTION((0.,0.,1.));
#588=IFCDIRECTION((1.,0.,0.));
#589=IFCAXIS2PLACEMENT3D(#586,#587,#588);
#590=IFCLOCALPLACEMENT(#191,#589);
#591=IFCDOOR('3fgkbsHmD3VwWotECbY8ep',$,'Waiting Door',$,$,#676,#665,$,$,$,$,$,$);
#592=IFCCARTESIANPOINTLIST2D(((0.,0.),(0.,2.1000000000000001),(0.90000000000000002,2.1000000000000001),(0.90000000000000002,0.),(-24.100000000000001,0.),(-24.100000000000001,-22.899999999999999),(25.,-22.899999999999999),(25.,0.)));
#593=IFCINDEXEDPOLYCURVE(#592,(IFCLINEINDEX((1,2,3,4,5,6,7,8,1))),$);
#594=IFCARBITRARYCLOSEDPROFILEDEF(.AREA.,$,#593);
#595=IFCCARTESIANPOINT((0.,25.,0.));
#596=IFCDIRECTION((0.,-1.,0.));
#597=IFCDIRECTION((1.,0.,0.));
#598=IFCAXIS2PLACEMENT3D(#595,#596,#597);
#599=IFCDIRECTION((0.,0.,-1.));
#600=IFCEXTRUDEDAREASOLID(#594,#598,#599,25.);
#601=IFCCARTESIANPOINTLIST2D(((0.,0.),(0.,2.1000000000000001),(0.90000000000000002,2.1000000000000001),(0.90000000000000002,0.),(-49.100000000000001,0.),(-49.100000000000001,-47.899999999999999),(50.,-47.899999999999999),(50.,0.)));
#602=IFCINDEXEDPOLYCURVE(#601,(IFCLINEINDEX((1,2,3,4,5,6,7,8,1))),$);
#603=IFCARBITRARYCLOSEDPROFILEDEF(.AREA.,$,#602);
#604=IFCCARTESIANPOINT((0.,0.,0.));
#605=IFCDIRECTION((0.,-1.,0.));
#606=IFCDIRECTION((1.,0.,0.));
#607=IFCAXIS2PLACEMENT3D(#604,#605,#606);
#608=IFCDIRECTION((0.,0.,-1.));
#609=IFCEXTRUDEDAREASOLID(#603,#607,#608,25.);
#610=IFCCARTESIANPOINTLIST2D(((0.,0.),(-99.099999999999994,0.),(-99.099999999999994,100.),(0.,100.)));
#611=IFCINDEXEDPOLYCURVE(#610,(IFCLINEINDEX((1,2,3,4,1))),$);
#612=IFCARBITRARYCLOSEDPROFILEDEF(.AREA.,$,#611);
#613=IFCCARTESIANPOINT((50.,0.,0.));
#614=IFCDIRECTION((0.,0.,1.));
#615=IFCDIRECTION((1.,0.,0.));
#616=IFCAXIS2PLACEMENT3D(#613,#614,#615);
#617=IFCDIRECTION((0.,0.,1.));
#618=IFCEXTRUDEDAREASOLID(#612,#616,#617,25.);
#619=IFCCARTESIANPOINTLIST2D(((0.,0.),(0.,27.100000000000001),(50.899999999999999,27.100000000000001),(50.899999999999999,0.),(-24.100000000000001,0.),(-24.100000000000001,-47.899999999999999),(75.,-47.899999999999999),(75.,0.)));
#620=IFCINDEXEDPOLYCURVE(#619,(IFCLINEINDEX((1,2,3,4,5,6,7,8,1))),$);
#621=IFCARBITRARYCLOSEDPROFILEDEF(.AREA.,$,#620);
#622=IFCCARTESIANPOINT((-25.,-5.,0.));
#623=IFCDIRECTION((0.,-1.,0.));
#624=IFCDIRECTION((1.,0.,0.));
#625=IFCAXIS2PLACEMENT3D(#622,#623,#624);
#626=IFCDIRECTION((0.,0.,-1.));
#627=IFCEXTRUDEDAREASOLID(#621,#625,#626,5.);
#628=IFCCARTESIANPOINTLIST2D(((0.,0.),(0.,27.100000000000001),(50.899999999999999,27.100000000000001),(50.899999999999999,0.),(0.89999999999999858,0.),(0.89999999999999858,-22.899999999999999),(50.,-22.899999999999999),(50.,0.)));
#629=IFCINDEXEDPOLYCURVE(#628,(IFCLINEINDEX((1,2,3,4,5,6,7,8,1))),$);
#630=IFCARBITRARYCLOSEDPROFILEDEF(.AREA.,$,#629);
#631=IFCCARTESIANPOINT((-25.,50.,0.));
#632=IFCDIRECTION((0.,-1.,0.));
#633=IFCDIRECTION((1.,0.,0.));
#634=IFCAXIS2PLACEMENT3D(#631,#632,#633);
#635=IFCDIRECTION((0.,0.,-1.));
#636=IFCEXTRUDEDAREASOLID(#630,#634,#635,5.);
#637=IFCCARTESIANPOINTLIST2D(((0.,0.),(-49.100000000000001,0.),(-49.100000000000001,35.),(0.,35.)));
#638=IFCINDEXEDPOLYCURVE(#637,(IFCLINEINDEX((1,2,3,4,1))),$);
#639=IFCARBITRARYCLOSEDPROFILEDEF(.AREA.,$,#638);
#640=IFCCARTESIANPOINT((25.,25.,25.));
#641=IFCDIRECTION((0.,0.,1.));
#642=IFCDIRECTION((1.,0.,0.));
#643=IFCAXIS2PLACEMENT3D(#640,#641,#642);
#644=IFCDIRECTION((0.,0.,1.));
#645=IFCEXTRUDEDAREASOLID(#639,#643,#644,-47.899999999999999);
#646=IFCCARTESIANPOINTLIST2D(((0.,0.),(0.,-40.),(-120.00000000000003,-40.),(-120.00000000000003,-20.),(-20.,-20.),(-20.,0.)));
#647=IFCINDEXEDPOLYCURVE(#646,(IFCLINEINDEX((1,2,3,4,5,6,1))),$);
#648=IFCARBITRARYCLOSEDPROFILEDEF(.AREA.,$,#647);
#649=IFCCARTESIANPOINT((-74.099999999999994,25.,1015.));
#650=IFCDIRECTION((0.,0.,1.));
#651=IFCDIRECTION((1.,0.,0.));
#652=IFCAXIS2PLACEMENT3D(#649,#650,#651);
#653=IFCDIRECTION((0.,0.,1.));
#654=IFCEXTRUDEDAREASOLID(#648,#652,#653,20.);
#655=IFCEXTRUDEDAREASOLID(#656,#659,#663,20.);
#656=IFCARBITRARYCLOSEDPROFILEDEF(.AREA.,$,#657);
#657=IFCINDEXEDPOLYCURVE(#658,(IFCLINEINDEX((1,2,3,4,5,6,1))),$);
#658=IFCCARTESIANPOINTLIST2D(((0.,0.),(0.,40.),(-120.00000000000003,40.),(-120.00000000000003,20.),(-20.,20.),(-20.,0.)));
#659=IFCAXIS2PLACEMENT3D(#660,#661,#662);
#660=IFCCARTESIANPOINT((-74.099999999999994,60.,1015.));
#661=IFCDIRECTION((0.,0.,1.));
#662=IFCDIRECTION((1.,0.,0.));
#663=IFCDIRECTION((0.,0.,1.));
#664=IFCSHAPEREPRESENTATION(#11,'Body','SweptSolid',(#600,#609,#645,#654,#655,#618,#627,#636));
#665=IFCPRODUCTDEFINITIONSHAPE($,$,(#664));
#671=IFCRELFILLSELEMENT('0GfX3WRm5BOeDvS$q5xRLd',$,$,$,#568,#591);
#672=IFCCARTESIANPOINT((0.,144.99999999999957,0.));
#673=IFCDIRECTION((0.,0.,1.));
#674=IFCDIRECTION((1.,0.,0.));
#675=IFCAXIS2PLACEMENT3D(#672,#673,#674);
#676=IFCLOCALPLACEMENT(#590,#675);
#677=IFCOPENINGELEMENT('3B1rjWWJXEDRY3mU3Tt_Ap',$,'Consult1 Door Opening',$,$,#699,#688,$,$);
#678=IFCCARTESIANPOINTLIST2D(((0.,0.),(0.,349.99999999999994),(900.,349.99999999999994),(900.,0.),(0.,0.)));
#679=IFCINDEXEDPOLYCURVE(#678,$,.F.);
#680=IFCDIRECTION((0.,0.,1.));
#681=IFCARBITRARYCLOSEDPROFILEDEF(.AREA.,$,#679);
#682=IFCCARTESIANPOINT((0.,0.,0.));
#683=IFCDIRECTION((0.,0.,1.));
#684=IFCDIRECTION((1.,0.,0.));
#685=IFCAXIS2PLACEMENT3D(#682,#683,#684);
#686=IFCEXTRUDEDAREASOLID(#681,#685,#680,2100.);
#687=IFCSHAPEREPRESENTATION(#11,'Body','SweptSolid',(#686));
#688=IFCPRODUCTDEFINITIONSHAPE($,$,(#687));
#694=IFCRELVOIDSELEMENT('0Am_f4w8nD3Qp1D9Vtn66Y',$,$,$,#192,#677);
#695=IFCCARTESIANPOINT((4000.,-99.999999999999645,0.));
#696=IFCDIRECTION((0.,0.,1.));
#697=IFCDIRECTION((1.,0.,0.));
#698=IFCAXIS2PLACEMENT3D(#695,#696,#697);
#699=IFCLOCALPLACEMENT(#213,#698);
#700=IFCDOOR('2slowGigL61Qp7TsFx6v$X',$,'Consult1 Door',$,$,#785,#774,$,$,$,$,$,$);
#701=IFCCARTESIANPOINTLIST2D(((0.,0.),(0.,2.1000000000000001),(0.90000000000000002,2.1000000000000001),(0.90000000000000002,0.),(-24.100000000000001,0.),(-24.100000000000001,-22.899999999999999),(25.,-22.899999999999999),(25.,0.)));
#702=IFCINDEXEDPOLYCURVE(#701,(IFCLINEINDEX((1,2,3,4,5,6,7,8,1))),$);
#703=IFCARBITRARYCLOSEDPROFILEDEF(.AREA.,$,#702);
#704=IFCCARTESIANPOINT((0.,25.,0.));
#705=IFCDIRECTION((0.,-1.,0.));
#706=IFCDIRECTION((1.,0.,0.));
#707=IFCAXIS2PLACEMENT3D(#704,#705,#706);
#708=IFCDIRECTION((0.,0.,-1.));
#709=IFCEXTRUDEDAREASOLID(#703,#707,#708,25.);
#710=IFCCARTESIANPOINTLIST2D(((0.,0.),(0.,2.1000000000000001),(0.90000000000000002,2.1000000000000001),(0.90000000000000002,0.),(-49.100000000000001,0.),(-49.100000000000001,-47.899999999999999),(50.,-47.899999999999999),(50.,0.)));
#711=IFCINDEXEDPOLYCURVE(#710,(IFCLINEINDEX((1,2,3,4,5,6,7,8,1))),$);
#712=IFCARBITRARYCLOSEDPROFILEDEF(.AREA.,$,#711);
#713=IFCCARTESIANPOINT((0.,0.,0.));
#714=IFCDIRECTION((0.,-1.,0.));
#715=IFCDIRECTION((1.,0.,0.));
#716=IFCAXIS2PLACEMENT3D(#713,#714,#715);
#717=IFCDIRECTION((0.,0.,-1.));
#718=IFCEXTRUDEDAREASOLID(#712,#716,#717,25.);
#719=IFCCARTESIANPOINTLIST2D(((0.,0.),(-99.099999999999994,0.),(-99.099999999999994,100.),(0.,100.)));
#720=IFCINDEXEDPOLYCURVE(#719,(IFCLINEINDEX((1,2,3,4,1))),$);
#721=IFCARBITRARYCLOSEDPROFILEDEF(.AREA.,$,#720);
#722=IFCCARTESIANPOINT((50.,0.,0.));
#723=IFCDIRECTION((0.,0.,1.));
#724=IFCDIRECTION((1.,0.,0.));
#725=IFCAXIS2PLACEMENT3D(#722,#723,#724);
#726=IFCDIRECTION((0.,0.,1.));
#727=IFCEXTRUDEDAREASOLID(#721,#725,#726,25.);
#728=IFCCARTESIANPOINTLIST2D(((0.,0.),(0.,27.100000000000001),(50.899999999999999,27.100000000000001),(50.899999999999999,0.),(-24.100000000000001,0.),(-24.100000000000001,-47.899999999999999),(75.,-47.899999999999999),(75.,0.)));
#729=IFCINDEXEDPOLYCURVE(#728,(IFCLINEINDEX((1,2,3,4,5,6,7,8,1))),$);
#730=IFCARBITRARYCLOSEDPROFILEDEF(.AREA.,$,#729);
#731=IFCCARTESIANPOINT((-25.,-5.,0.));
#732=IFCDIRECTION((0.,-1.,0.));
#733=IFCDIRECTION((1.,0.,0.));
#734=IFCAXIS2PLACEMENT3D(#731,#732,#733);
#735=IFCDIRECTION((0.,0.,-1.));
#736=IFCEXTRUDEDAREASOLID(#730,#734,#735,5.);
#737=IFCCARTESIANPOINTLIST2D(((0.,0.),(0.,27.100000000000001),(50.899999999999999,27.100000000000001),(50.899999999999999,0.),(0.89999999999999858,0.),(0.89999999999999858,-22.899999999999999),(50.,-22.899999999999999),(50.,0.)));
#738=IFCINDEXEDPOLYCURVE(#737,(IFCLINEINDEX((1,2,3,4,5,6,7,8,1))),$);
#739=IFCARBITRARYCLOSEDPROFILEDEF(.AREA.,$,#738);
#740=IFCCARTESIANPOINT((-25.,50.,0.));
#741=IFCDIRECTION((0.,-1.,0.));
#742=IFCDIRECTION((1.,0.,0.));
#743=IFCAXIS2PLACEMENT3D(#740,#741,#742);
#744=IFCDIRECTION((0.,0.,-1.));
#745=IFCEXTRUDEDAREASOLID(#739,#743,#744,5.);
#746=IFCCARTESIANPOINTLIST2D(((0.,0.),(-49.100000000000001,0.),(-49.100000000000001,35.),(0.,35.)));
#747=IFCINDEXEDPOLYCURVE(#746,(IFCLINEINDEX((1,2,3,4,1))),$);
#748=IFCARBITRARYCLOSEDPROFILEDEF(.AREA.,$,#747);
#749=IFCCARTESIANPOINT((25.,25.,25.));
#750=IFCDIRECTION((0.,0.,1.));
#751=IFCDIRECTION((1.,0.,0.));
#752=IFCAXIS2PLACEMENT3D(#749,#750,#751);
#753=IFCDIRECTION((0.,0.,1.));
#754=IFCEXTRUDEDAREASOLID(#748,#752,#753,-47.899999999999999);
#755=IFCCARTESIANPOINTLIST2D(((0.,0.),(0.,-40.),(-120.00000000000003,-40.),(-120.00000000000003,-20.),(-20.,-20.),(-20.,0.)));
#756=IFCINDEXEDPOLYCURVE(#755,(IFCLINEINDEX((1,2,3,4,5,6,1))),$);
#757=IFCARBITRARYCLOSEDPROFILEDEF(.AREA.,$,#756);
#758=IFCCARTESIANPOINT((-74.099999999999994,25.,1015.));
#759=IFCDIRECTION((0.,0.,1.));
#760=IFCDIRECTION((1.,0.,0.));
#761=IFCAXIS2PLACEMENT3D(#758,#759,#760);
#762=IFCDIRECTION((0.,0.,1.));
#763=IFCEXTRUDEDAREASOLID(#757,#761,#762,20.);
#764=IFCEXTRUDEDAREASOLID(#765,#768,#772,20.);
#765=IFCARBITRARYCLOSEDPROFILEDEF(.AREA.,$,#766);
#766=IFCINDEXEDPOLYCURVE(#767,(IFCLINEINDEX((1,2,3,4,5,6,1))),$);
#767=IFCCARTESIANPOINTLIST2D(((0.,0.),(0.,40.),(-120.00000000000003,40.),(-120.00000000000003,20.),(-20.,20.),(-20.,0.)));
#768=IFCAXIS2PLACEMENT3D(#769,#770,#771);
#769=IFCCARTESIANPOINT((-74.099999999999994,60.,1015.));
#770=IFCDIRECTION((0.,0.,1.));
#771=IFCDIRECTION((1.,0.,0.));
#772=IFCDIRECTION((0.,0.,1.));
#773=IFCSHAPEREPRESENTATION(#11,'Body','SweptSolid',(#709,#718,#754,#763,#764,#727,#736,#745));
#774=IFCPRODUCTDEFINITIONSHAPE($,$,(#773));
#780=IFCRELFILLSELEMENT('0hCcFNIEb1SuU8gNVbcn9R',$,$,$,#677,#700);
#781=IFCCARTESIANPOINT((0.,144.99999999999957,0.));
#782=IFCDIRECTION((0.,0.,1.));
#783=IFCDIRECTION((1.,0.,0.));
#784=IFCAXIS2PLACEMENT3D(#781,#782,#783);
#785=IFCLOCALPLACEMENT(#699,#784);
#786=IFCOPENINGELEMENT('1vyqrCKgH8JhX8Xj$Vu8Cl',$,'Treatment Door Opening',$,$,#808,#797,$,$);
#787=IFCCARTESIANPOINTLIST2D(((0.,0.),(0.,349.99999999999994),(900.,349.99999999999994),(900.,0.),(0.,0.)));
#788=IFCINDEXEDPOLYCURVE(#787,$,.F.);
#789=IFCDIRECTION((0.,0.,1.));
#790=IFCARBITRARYCLOSEDPROFILEDEF(.AREA.,$,#788);
#791=IFCCARTESIANPOINT((0.,0.,0.));
#792=IFCDIRECTION((0.,0.,1.));
#793=IFCDIRECTION((1.,0.,0.));
#794=IFCAXIS2PLACEMENT3D(#791,#792,#793);
#795=IFCEXTRUDEDAREASOLID(#790,#794,#789,2100.);
#796=IFCSHAPEREPRESENTATION(#11,'Body','SweptSolid',(#795));
#797=IFCPRODUCTDEFINITIONSHAPE($,$,(#796));
#803=IFCRELVOIDSELEMENT('0rhQ5vgfb1key5KoSXK8H1',$,$,$,#192,#786);
#804=IFCCARTESIANPOINT((12000.,-99.999999999999645,0.));
#805=IFCDIRECTION((0.,0.,1.));
#806=IFCDIRECTION((1.,0.,0.));
#807=IFCAXIS2PLACEMENT3D(#804,#805,#806);
#808=IFCLOCALPLACEMENT(#213,#807);
#809=IFCDOOR('3zywW1yaj9mRN3Da6O7uE7',$,'Treatment Door',$,$,#894,#883,$,$,$,$,$,$);
#810=IFCCARTESIANPOINTLIST2D(((0.,0.),(0.,2.1000000000000001),(0.90000000000000002,2.1000000000000001),(0.90000000000000002,0.),(-24.100000000000001,0.),(-24.100000000000001,-22.899999999999999),(25.,-22.899999999999999),(25.,0.)));
#811=IFCINDEXEDPOLYCURVE(#810,(IFCLINEINDEX((1,2,3,4,5,6,7,8,1))),$);
#812=IFCARBITRARYCLOSEDPROFILEDEF(.AREA.,$,#811);
#813=IFCCARTESIANPOINT((0.,25.,0.));
#814=IFCDIRECTION((0.,-1.,0.));
#815=IFCDIRECTION((1.,0.,0.));
#816=IFCAXIS2PLACEMENT3D(#813,#814,#815);
#817=IFCDIRECTION((0.,0.,-1.));
#818=IFCEXTRUDEDAREASOLID(#812,#816,#817,25.);
#819=IFCCARTESIANPOINTLIST2D(((0.,0.),(0.,2.1000000000000001),(0.90000000000000002,2.1000000000000001),(0.90000000000000002,0.),(-49.100000000000001,0.),(-49.100000000000001,-47.899999999999999),(50.,-47.899999999999999),(50.,0.)));
#820=IFCINDEXEDPOLYCURVE(#819,(IFCLINEINDEX((1,2,3,4,5,6,7,8,1))),$);
#821=IFCARBITRARYCLOSEDPROFILEDEF(.AREA.,$,#820);
#822=IFCCARTESIANPOINT((0.,0.,0.));
#823=IFCDIRECTION((0.,-1.,0.));
#824=IFCDIRECTION((1.,0.,0.));
#825=IFCAXIS2PLACEMENT3D(#822,#823,#824);
#826=IFCDIRECTION((0.,0.,-1.));
#827=IFCEXTRUDEDAREASOLID(#821,#825,#826,25.);
#828=IFCCARTESIANPOINTLIST2D(((0.,0.),(-99.099999999999994,0.),(-99.099999999999994,100.),(0.,100.)));
#829=IFCINDEXEDPOLYCURVE(#828,(IFCLINEINDEX((1,2,3,4,1))),$);
#830=IFCARBITRARYCLOSEDPROFILEDEF(.AREA.,$,#829);
#831=IFCCARTESIANPOINT((50.,0.,0.));
#832=IFCDIRECTION((0.,0.,1.));
#833=IFCDIRECTION((1.,0.,0.));
#834=IFCAXIS2PLACEMENT3D(#831,#832,#833);
#835=IFCDIRECTION((0.,0.,1.));
#836=IFCEXTRUDEDAREASOLID(#830,#834,#835,25.);
#837=IFCCARTESIANPOINTLIST2D(((0.,0.),(0.,27.100000000000001),(50.899999999999999,27.100000000000001),(50.899999999999999,0.),(-24.100000000000001,0.),(-24.100000000000001,-47.899999999999999),(75.,-47.899999999999999),(75.,0.)));
#838=IFCINDEXEDPOLYCURVE(#837,(IFCLINEINDEX((1,2,3,4,5,6,7,8,1))),$);
#839=IFCARBITRARYCLOSEDPROFILEDEF(.AREA.,$,#838);
#840=IFCCARTESIANPOINT((-25.,-5.,0.));
#841=IFCDIRECTION((0.,-1.,0.));
#842=IFCDIRECTION((1.,0.,0.));
#843=IFCAXIS2PLACEMENT3D(#840,#841,#842);
#844=IFCDIRECTION((0.,0.,-1.));
#845=IFCEXTRUDEDAREASOLID(#839,#843,#844,5.);
#846=IFCCARTESIANPOINTLIST2D(((0.,0.),(0.,27.100000000000001),(50.899999999999999,27.100000000000001),(50.899999999999999,0.),(0.89999999999999858,0.),(0.89999999999999858,-22.899999999999999),(50.,-22.899999999999999),(50.,0.)));
#847=IFCINDEXEDPOLYCURVE(#846,(IFCLINEINDEX((1,2,3,4,5,6,7,8,1))),$);
#848=IFCARBITRARYCLOSEDPROFILEDEF(.AREA.,$,#847);
#849=IFCCARTESIANPOINT((-25.,50.,0.));
#850=IFCDIRECTION((0.,-1.,0.));
#851=IFCDIRECTION((1.,0.,0.));
#852=IFCAXIS2PLACEMENT3D(#849,#850,#851);
#853=IFCDIRECTION((0.,0.,-1.));
#854=IFCEXTRUDEDAREASOLID(#848,#852,#853,5.);
#855=IFCCARTESIANPOINTLIST2D(((0.,0.),(-49.100000000000001,0.),(-49.100000000000001,35.),(0.,35.)));
#856=IFCINDEXEDPOLYCURVE(#855,(IFCLINEINDEX((1,2,3,4,1))),$);
#857=IFCARBITRARYCLOSEDPROFILEDEF(.AREA.,$,#856);
#858=IFCCARTESIANPOINT((25.,25.,25.));
#859=IFCDIRECTION((0.,0.,1.));
#860=IFCDIRECTION((1.,0.,0.));
#861=IFCAXIS2PLACEMENT3D(#858,#859,#860);
#862=IFCDIRECTION((0.,0.,1.));
#863=IFCEXTRUDEDAREASOLID(#857,#861,#862,-47.899999999999999);
#864=IFCCARTESIANPOINTLIST2D(((0.,0.),(0.,-40.),(-120.00000000000003,-40.),(-120.00000000000003,-20.),(-20.,-20.),(-20.,0.)));
#865=IFCINDEXEDPOLYCURVE(#864,(IFCLINEINDEX((1,2,3,4,5,6,1))),$);
#866=IFCARBITRARYCLOSEDPROFILEDEF(.AREA.,$,#865);
#867=IFCCARTESIANPOINT((-74.099999999999994,25.,1015.));
#868=IFCDIRECTION((0.,0.,1.));
#869=IFCDIRECTION((1.,0.,0.));
#870=IFCAXIS2PLACEMENT3D(#867,#868,#869);
#871=IFCDIRECTION((0.,0.,1.));
#872=IFCEXTRUDEDAREASOLID(#866,#870,#871,20.);
#873=IFCEXTRUDEDAREASOLID(#874,#877,#881,20.);
#874=IFCARBITRARYCLOSEDPROFILEDEF(.AREA.,$,#875);
#875=IFCINDEXEDPOLYCURVE(#876,(IFCLINEINDEX((1,2,3,4,5,6,1))),$);
#876=IFCCARTESIANPOINTLIST2D(((0.,0.),(0.,40.),(-120.00000000000003,40.),(-120.00000000000003,20.),(-20.,20.),(-20.,0.)));
#877=IFCAXIS2PLACEMENT3D(#878,#879,#880);
#878=IFCCARTESIANPOINT((-74.099999999999994,60.,1015.));
#879=IFCDIRECTION((0.,0.,1.));
#880=IFCDIRECTION((1.,0.,0.));
#881=IFCDIRECTION((0.,0.,1.));
#882=IFCSHAPEREPRESENTATION(#11,'Body','SweptSolid',(#818,#827,#863,#872,#873,#836,#845,#854));
#883=IFCPRODUCTDEFINITIONSHAPE($,$,(#882));
#889=IFCRELFILLSELEMENT('0m2HKaPCP3ixzngavd0AHA',$,$,$,#786,#809);
#890=IFCCARTESIANPOINT((0.,144.99999999999957,0.));
#891=IFCDIRECTION((0.,0.,1.));
#892=IFCDIRECTION((1.,0.,0.));
#893=IFCAXIS2PLACEMENT3D(#890,#891,#892);
#894=IFCLOCALPLACEMENT(#808,#893);
#895=IFCOPENINGELEMENT('3vLhFQEbb7uvAVFM6JdiCs',$,'Consult2 Door Opening',$,$,#917,#906,$,$);
#896=IFCCARTESIANPOINTLIST2D(((0.,0.),(0.,349.99999999999994),(900.,349.99999999999994),(900.,0.),(0.,0.)));
#897=IFCINDEXEDPOLYCURVE(#896,$,.F.);
#898=IFCDIRECTION((0.,0.,1.));
#899=IFCARBITRARYCLOSEDPROFILEDEF(.AREA.,$,#897);
#900=IFCCARTESIANPOINT((0.,0.,0.));
#901=IFCDIRECTION((0.,0.,1.));
#902=IFCDIRECTION((1.,0.,0.));
#903=IFCAXIS2PLACEMENT3D(#900,#901,#902);
#904=IFCEXTRUDEDAREASOLID(#899,#903,#898,2100.);
#905=IFCSHAPEREPRESENTATION(#11,'Body','SweptSolid',(#904));
#906=IFCPRODUCTDEFINITIONSHAPE($,$,(#905));
#912=IFCRELVOIDSELEMENT('1OcqEAeaj4ZBSMVMmckpi4',$,$,$,#214,#895);
#913=IFCCARTESIANPOINT((2000.,-99.999999999999645,0.));
#914=IFCDIRECTION((0.,0.,1.));
#915=IFCDIRECTION((1.,0.,0.));
#916=IFCAXIS2PLACEMENT3D(#913,#914,#915);
#917=IFCLOCALPLACEMENT(#235,#916);
#918=IFCDOOR('3zaYwrvn54Gvt_j5kcj_Cs',$,'Consult2 Door',$,$,#1003,#992,$,$,$,$,$,$);
#919=IFCCARTESIANPOINTLIST2D(((0.,0.),(0.,2.1000000000000001),(0.90000000000000002,2.1000000000000001),(0.90000000000000002,0.),(-24.100000000000001,0.),(-24.100000000000001,-22.899999999999999),(25.,-22.899999999999999),(25.,0.)));
#920=IFCINDEXEDPOLYCURVE(#919,(IFCLINEINDEX((1,2,3,4,5,6,7,8,1))),$);
#921=IFCARBITRARYCLOSEDPROFILEDEF(.AREA.,$,#920);
#922=IFCCARTESIANPOINT((0.,25.,0.));
#923=IFCDIRECTION((0.,-1.,0.));
#924=IFCDIRECTION((1.,0.,0.));
#925=IFCAXIS2PLACEMENT3D(#922,#923,#924);
#926=IFCDIRECTION((0.,0.,-1.));
#927=IFCEXTRUDEDAREASOLID(#921,#925,#926,25.);
#928=IFCCARTESIANPOINTLIST2D(((0.,0.),(0.,2.1000000000000001),(0.90000000000000002,2.1000000000000001),(0.90000000000000002,0.),(-49.100000000000001,0.),(-49.100000000000001,-47.899999999999999),(50.,-47.899999999999999),(50.,0.)));
#929=IFCINDEXEDPOLYCURVE(#928,(IFCLINEINDEX((1,2,3,4,5,6,7,8,1))),$);
#930=IFCARBITRARYCLOSEDPROFILEDEF(.AREA.,$,#929);
#931=IFCCARTESIANPOINT((0.,0.,0.));
#932=IFCDIRECTION((0.,-1.,0.));
#933=IFCDIRECTION((1.,0.,0.));
#934=IFCAXIS2PLACEMENT3D(#931,#932,#933);
#935=IFCDIRECTION((0.,0.,-1.));
#936=IFCEXTRUDEDAREASOLID(#930,#934,#935,25.);
#937=IFCCARTESIANPOINTLIST2D(((0.,0.),(-99.099999999999994,0.),(-99.099999999999994,100.),(0.,100.)));
#938=IFCINDEXEDPOLYCURVE(#937,(IFCLINEINDEX((1,2,3,4,1))),$);
#939=IFCARBITRARYCLOSEDPROFILEDEF(.AREA.,$,#938);
#940=IFCCARTESIANPOINT((50.,0.,0.));
#941=IFCDIRECTION((0.,0.,1.));
#942=IFCDIRECTION((1.,0.,0.));
#943=IFCAXIS2PLACEMENT3D(#940,#941,#942);
#944=IFCDIRECTION((0.,0.,1.));
#945=IFCEXTRUDEDAREASOLID(#939,#943,#944,25.);
#946=IFCCARTESIANPOINTLIST2D(((0.,0.),(0.,27.100000000000001),(50.899999999999999,27.100000000000001),(50.899999999999999,0.),(-24.100000000000001,0.),(-24.100000000000001,-47.899999999999999),(75.,-47.899999999999999),(75.,0.)));
#947=IFCINDEXEDPOLYCURVE(#946,(IFCLINEINDEX((1,2,3,4,5,6,7,8,1))),$);
#948=IFCARBITRARYCLOSEDPROFILEDEF(.AREA.,$,#947);
#949=IFCCARTESIANPOINT((-25.,-5.,0.));
#950=IFCDIRECTION((0.,-1.,0.));
#951=IFCDIRECTION((1.,0.,0.));
#952=IFCAXIS2PLACEMENT3D(#949,#950,#951);
#953=IFCDIRECTION((0.,0.,-1.));
#954=IFCEXTRUDEDAREASOLID(#948,#952,#953,5.);
#955=IFCCARTESIANPOINTLIST2D(((0.,0.),(0.,27.100000000000001),(50.899999999999999,27.100000000000001),(50.899999999999999,0.),(0.89999999999999858,0.),(0.89999999999999858,-22.899999999999999),(50.,-22.899999999999999),(50.,0.)));
#956=IFCINDEXEDPOLYCURVE(#955,(IFCLINEINDEX((1,2,3,4,5,6,7,8,1))),$);
#957=IFCARBITRARYCLOSEDPROFILEDEF(.AREA.,$,#956);
#958=IFCCARTESIANPOINT((-25.,50.,0.));
#959=IFCDIRECTION((0.,-1.,0.));
#960=IFCDIRECTION((1.,0.,0.));
#961=IFCAXIS2PLACEMENT3D(#958,#959,#960);
#962=IFCDIRECTION((0.,0.,-1.));
#963=IFCEXTRUDEDAREASOLID(#957,#961,#962,5.);
#964=IFCCARTESIANPOINTLIST2D(((0.,0.),(-49.100000000000001,0.),(-49.100000000000001,35.),(0.,35.)));
#965=IFCINDEXEDPOLYCURVE(#964,(IFCLINEINDEX((1,2,3,4,1))),$);
#966=IFCARBITRARYCLOSEDPROFILEDEF(.AREA.,$,#965);
#967=IFCCARTESIANPOINT((25.,25.,25.));
#968=IFCDIRECTION((0.,0.,1.));
#969=IFCDIRECTION((1.,0.,0.));
#970=IFCAXIS2PLACEMENT3D(#967,#968,#969);
#971=IFCDIRECTION((0.,0.,1.));
#972=IFCEXTRUDEDAREASOLID(#966,#970,#971,-47.899999999999999);
#973=IFCCARTESIANPOINTLIST2D(((0.,0.),(0.,-40.),(-120.00000000000003,-40.),(-120.00000000000003,-20.),(-20.,-20.),(-20.,0.)));
#974=IFCINDEXEDPOLYCURVE(#973,(IFCLINEINDEX((1,2,3,4,5,6,1))),$);
#975=IFCARBITRARYCLOSEDPROFILEDEF(.AREA.,$,#974);
#976=IFCCARTESIANPOINT((-74.099999999999994,25.,1015.));
#977=IFCDIRECTION((0.,0.,1.));
#978=IFCDIRECTION((1.,0.,0.));
#979=IFCAXIS2PLACEMENT3D(#976,#977,#978);
#980=IFCDIRECTION((0.,0.,1.));
#981=IFCEXTRUDEDAREASOLID(#975,#979,#980,20.);
#982=IFCEXTRUDEDAREASOLID(#983,#986,#990,20.);
#983=IFCARBITRARYCLOSEDPROFILEDEF(.AREA.,$,#984);
#984=IFCINDEXEDPOLYCURVE(#985,(IFCLINEINDEX((1,2,3,4,5,6,1))),$);
#985=IFCCARTESIANPOINTLIST2D(((0.,0.),(0.,40.),(-120.00000000000003,40.),(-120.00000000000003,20.),(-20.,20.),(-20.,0.)));
#986=IFCAXIS2PLACEMENT3D(#987,#988,#989);
#987=IFCCARTESIANPOINT((-74.099999999999994,60.,1015.));
#988=IFCDIRECTION((0.,0.,1.));
#989=IFCDIRECTION((1.,0.,0.));
#990=IFCDIRECTION((0.,0.,1.));
#991=IFCSHAPEREPRESENTATION(#11,'Body','SweptSolid',(#927,#936,#972,#981,#982,#945,#954,#963));
#992=IFCPRODUCTDEFINITIONSHAPE($,$,(#991));
#998=IFCRELFILLSELEMENT('1n7QIAAcn4bB49fvnWghac',$,$,$,#895,#918);
#999=IFCCARTESIANPOINT((0.,144.99999999999957,0.));
#1000=IFCDIRECTION((0.,0.,1.));
#1001=IFCDIRECTION((1.,0.,0.));
#1002=IFCAXIS2PLACEMENT3D(#999,#1000,#1001);
#1003=IFCLOCALPLACEMENT(#917,#1002);
#1004=IFCOPENINGELEMENT('3nGwOaJ0bDHBR31OulVL2H',$,'Staff Door Opening',$,$,#1026,#1015,$,$);
#1005=IFCCARTESIANPOINTLIST2D(((0.,0.),(0.,349.99999999999994),(900.,349.99999999999994),(900.,0.),(0.,0.)));
#1006=IFCINDEXEDPOLYCURVE(#1005,$,.F.);
#1007=IFCDIRECTION((0.,0.,1.));
#1008=IFCARBITRARYCLOSEDPROFILEDEF(.AREA.,$,#1006);
#1009=IFCCARTESIANPOINT((0.,0.,0.));
#1010=IFCDIRECTION((0.,0.,1.));
#1011=IFCDIRECTION((1.,0.,0.));
#1012=IFCAXIS2PLACEMENT3D(#1009,#1010,#1011);
#1013=IFCEXTRUDEDAREASOLID(#1008,#1012,#1007,2100.);
#1014=IFCSHAPEREPRESENTATION(#11,'Body','SweptSolid',(#1013));
#1015=IFCPRODUCTDEFINITIONSHAPE($,$,(#1014));
#1021=IFCRELVOIDSELEMENT('0c97XjAK99XOkpwNlpzpqB',$,$,$,#236,#1004);
#1022=IFCCARTESIANPOINT((2000.,-99.999999999999645,0.));
#1023=IFCDIRECTION((0.,0.,1.));
#1024=IFCDIRECTION((1.,0.,0.));
#1025=IFCAXIS2PLACEMENT3D(#1022,#1023,#1024);
#1026=IFCLOCALPLACEMENT(#257,#1025);
#1027=IFCDOOR('0b$uP6AM9Fu81izRB8VP7O',$,'Staff Door',$,$,#1112,#1101,$,$,$,$,$,$);
#1028=IFCCARTESIANPOINTLIST2D(((0.,0.),(0.,2.1000000000000001),(0.90000000000000002,2.1000000000000001),(0.90000000000000002,0.),(-24.100000000000001,0.),(-24.100000000000001,-22.899999999999999),(25.,-22.899999999999999),(25.,0.)));
#1029=IFCINDEXEDPOLYCURVE(#1028,(IFCLINEINDEX((1,2,3,4,5,6,7,8,1))),$);
#1030=IFCARBITRARYCLOSEDPROFILEDEF(.AREA.,$,#1029);
#1031=IFCCARTESIANPOINT((0.,25.,0.));
#1032=IFCDIRECTION((0.,-1.,0.));
#1033=IFCDIRECTION((1.,0.,0.));
#1034=IFCAXIS2PLACEMENT3D(#1031,#1032,#1033);
#1035=IFCDIRECTION((0.,0.,-1.));
#1036=IFCEXTRUDEDAREASOLID(#1030,#1034,#1035,25.);
#1037=IFCCARTESIANPOINTLIST2D(((0.,0.),(0.,2.1000000000000001),(0.90000000000000002,2.1000000000000001),(0.90000000000000002,0.),(-49.100000000000001,0.),(-49.100000000000001,-47.899999999999999),(50.,-47.899999999999999),(50.,0.)));
#1038=IFCINDEXEDPOLYCURVE(#1037,(IFCLINEINDEX((1,2,3,4,5,6,7,8,1))),$);
#1039=IFCARBITRARYCLOSEDPROFILEDEF(.AREA.,$,#1038);
#1040=IFCCARTESIANPOINT((0.,0.,0.));
#1041=IFCDIRECTION((0.,-1.,0.));
#1042=IFCDIRECTION((1.,0.,0.));
#1043=IFCAXIS2PLACEMENT3D(#1040,#1041,#1042);
#1044=IFCDIRECTION((0.,0.,-1.));
#1045=IFCEXTRUDEDAREASOLID(#1039,#1043,#1044,25.);
#1046=IFCCARTESIANPOINTLIST2D(((0.,0.),(-99.099999999999994,0.),(-99.099999999999994,100.),(0.,100.)));
#1047=IFCINDEXEDPOLYCURVE(#1046,(IFCLINEINDEX((1,2,3,4,1))),$);
#1048=IFCARBITRARYCLOSEDPROFILEDEF(.AREA.,$,#1047);
#1049=IFCCARTESIANPOINT((50.,0.,0.));
#1050=IFCDIRECTION((0.,0.,1.));
#1051=IFCDIRECTION((1.,0.,0.));
#1052=IFCAXIS2PLACEMENT3D(#1049,#1050,#1051);
#1053=IFCDIRECTION((0.,0.,1.));
#1054=IFCEXTRUDEDAREASOLID(#1048,#1052,#1053,25.);
#1055=IFCCARTESIANPOINTLIST2D(((0.,0.),(0.,27.100000000000001),(50.899999999999999,27.100000000000001),(50.899999999999999,0.),(-24.100000000000001,0.),(-24.100000000000001,-47.899999999999999),(75.,-47.899999999999999),(75.,0.)));
#1056=IFCINDEXEDPOLYCURVE(#1055,(IFCLINEINDEX((1,2,3,4,5,6,7,8,1))),$);
#1057=IFCARBITRARYCLOSEDPROFILEDEF(.AREA.,$,#1056);
#1058=IFCCARTESIANPOINT((-25.,-5.,0.));
#1059=IFCDIRECTION((0.,-1.,0.));
#1060=IFCDIRECTION((1.,0.,0.));
#1061=IFCAXIS2PLACEMENT3D(#1058,#1059,#1060);
#1062=IFCDIRECTION((0.,0.,-1.));
#1063=IFCEXTRUDEDAREASOLID(#1057,#1061,#1062,5.);
#1064=IFCCARTESIANPOINTLIST2D(((0.,0.),(0.,27.100000000000001),(50.899999999999999,27.100000000000001),(50.899999999999999,0.),(0.89999999999999858,0.),(0.89999999999999858,-22.899999999999999),(50.,-22.899999999999999),(50.,0.)));
#1065=IFCINDEXEDPOLYCURVE(#1064,(IFCLINEINDEX((1,2,3,4,5,6,7,8,1))),$);
#1066=IFCARBITRARYCLOSEDPROFILEDEF(.AREA.,$,#1065);
#1067=IFCCARTESIANPOINT((-25.,50.,0.));
#1068=IFCDIRECTION((0.,-1.,0.));
#1069=IFCDIRECTION((1.,0.,0.));
#1070=IFCAXIS2PLACEMENT3D(#1067,#1068,#1069);
#1071=IFCDIRECTION((0.,0.,-1.));
#1072=IFCEXTRUDEDAREASOLID(#1066,#1070,#1071,5.);
#1073=IFCCARTESIANPOINTLIST2D(((0.,0.),(-49.100000000000001,0.),(-49.100000000000001,35.),(0.,35.)));
#1074=IFCINDEXEDPOLYCURVE(#1073,(IFCLINEINDEX((1,2,3,4,1))),$);
#1075=IFCARBITRARYCLOSEDPROFILEDEF(.AREA.,$,#1074);
#1076=IFCCARTESIANPOINT((25.,25.,25.));
#1077=IFCDIRECTION((0.,0.,1.));
#1078=IFCDIRECTION((1.,0.,0.));
#1079=IFCAXIS2PLACEMENT3D(#1076,#1077,#1078);
#1080=IFCDIRECTION((0.,0.,1.));
#1081=IFCEXTRUDEDAREASOLID(#1075,#1079,#1080,-47.899999999999999);
#1082=IFCCARTESIANPOINTLIST2D(((0.,0.),(0.,-40.),(-120.00000000000003,-40.),(-120.00000000000003,-20.),(-20.,-20.),(-20.,0.)));
#1083=IFCINDEXEDPOLYCURVE(#1082,(IFCLINEINDEX((1,2,3,4,5,6,1))),$);
#1084=IFCARBITRARYCLOSEDPROFILEDEF(.AREA.,$,#1083);
#1085=IFCCARTESIANPOINT((-74.099999999999994,25.,1015.));
#1086=IFCDIRECTION((0.,0.,1.));
#1087=IFCDIRECTION((1.,0.,0.));
#1088=IFCAXIS2PLACEMENT3D(#1085,#1086,#1087);
#1089=IFCDIRECTION((0.,0.,1.));
#1090=IFCEXTRUDEDAREASOLID(#1084,#1088,#1089,20.);
#1091=IFCEXTRUDEDAREASOLID(#1092,#1095,#1099,20.);
#1092=IFCARBITRARYCLOSEDPROFILEDEF(.AREA.,$,#1093);
#1093=IFCINDEXEDPOLYCURVE(#1094,(IFCLINEINDEX((1,2,3,4,5,6,1))),$);
#1094=IFCCARTESIANPOINTLIST2D(((0.,0.),(0.,40.),(-120.00000000000003,40.),(-120.00000000000003,20.),(-20.,20.),(-20.,0.)));
#1095=IFCAXIS2PLACEMENT3D(#1096,#1097,#1098);
#1096=IFCCARTESIANPOINT((-74.099999999999994,60.,1015.));
#1097=IFCDIRECTION((0.,0.,1.));
#1098=IFCDIRECTION((1.,0.,0.));
#1099=IFCDIRECTION((0.,0.,1.));
#1100=IFCSHAPEREPRESENTATION(#11,'Body','SweptSolid',(#1036,#1045,#1081,#1090,#1091,#1054,#1063,#1072));
#1101=IFCPRODUCTDEFINITIONSHAPE($,$,(#1100));
#1107=IFCRELFILLSELEMENT('0Ef9ZhJy1BjR9sNC8H3fY$',$,$,$,#1004,#1027);
#1108=IFCCARTESIANPOINT((0.,144.99999999999957,0.));
#1109=IFCDIRECTION((0.,0.,1.));
#1110=IFCDIRECTION((1.,0.,0.));
#1111=IFCAXIS2PLACEMENT3D(#1108,#1109,#1110);
#1112=IFCLOCALPLACEMENT(#1026,#1111);
#1113=IFCOPENINGELEMENT('1jcPhn5af8Wewm3drl5Fxo',$,'Clinic Window 1 Opening',$,$,#1135,#1124,$,$);
#1114=IFCCARTESIANPOINTLIST2D(((0.,0.),(0.,400.),(1600.,400.),(1600.,0.),(0.,0.)));
#1115=IFCINDEXEDPOLYCURVE(#1114,$,.F.);
#1116=IFCDIRECTION((0.,0.,1.));
#1117=IFCARBITRARYCLOSEDPROFILEDEF(.AREA.,$,#1115);
#1118=IFCCARTESIANPOINT((0.,0.,0.));
#1119=IFCDIRECTION((0.,0.,1.));
#1120=IFCDIRECTION((1.,0.,0.));
#1121=IFCAXIS2PLACEMENT3D(#1118,#1119,#1120);
#1122=IFCEXTRUDEDAREASOLID(#1117,#1121,#1116,1200.);
#1123=IFCSHAPEREPRESENTATION(#11,'Body','SweptSolid',(#1122));
#1124=IFCPRODUCTDEFINITIONSHAPE($,$,(#1123));
#1130=IFCRELVOIDSELEMENT('3kkR2pe5995hDmY7$1wEVV',$,$,$,#60,#1113);
#1131=IFCCARTESIANPOINT((8000.,-100.,1000.));
#1132=IFCDIRECTION((0.,0.,1.));
#1133=IFCDIRECTION((1.,0.,0.));
#1134=IFCAXIS2PLACEMENT3D(#1131,#1132,#1133);
#1135=IFCLOCALPLACEMENT(#81,#1134);
#1136=IFCWINDOW('3LeyEVr$v4zuEJ9pSBhnuK',$,'Clinic Window 1',$,$,#1191,#1180,$,$,$,$,$,$);
#1137=IFCCARTESIANPOINTLIST2D(((0.,0.),(1.6000000000000001,0.),(1.6000000000000001,1.2),(0.,1.2)));
#1138=IFCINDEXEDPOLYCURVE(#1137,(IFCLINEINDEX((1,2,3,4,1))),$);
#1139=IFCCARTESIANPOINTLIST2D(((25.,25.),(-23.399999999999999,25.),(-23.399999999999999,-23.799999999999997),(25.,-23.799999999999997)));
#1140=IFCINDEXEDPOLYCURVE(#1139,(IFCLINEINDEX((1,2,3,4,1))),$);
#1141=IFCARBITRARYPROFILEDEFWITHVOIDS(.AREA.,$,#1138,(#1140));
#1142=IFCCARTESIANPOINT((0.,90.,0.));
#1143=IFCDIRECTION((0.,-1.,0.));
#1144=IFCDIRECTION((1.,0.,0.));
#1145=IFCAXIS2PLACEMENT3D(#1142,#1143,#1144);
#1146=IFCDIRECTION((0.,0.,-1.));
#1147=IFCEXTRUDEDAREASOLID(#1141,#1145,#1146,10.);
#1148=IFCCARTESIANPOINTLIST2D(((0.,0.),(1.6000000000000001,0.),(1.6000000000000001,1.2),(0.,1.2)));
#1149=IFCINDEXEDPOLYCURVE(#1148,(IFCLINEINDEX((1,2,3,4,1))),$);
#1150=IFCCARTESIANPOINTLIST2D(((50.,50.),(-48.400000000000006,50.),(-48.400000000000006,-48.799999999999997),(50.,-48.799999999999997)));
#1151=IFCINDEXEDPOLYCURVE(#1150,(IFCLINEINDEX((1,2,3,4,1))),$);
#1152=IFCARBITRARYPROFILEDEFWITHVOIDS(.AREA.,$,#1149,(#1151));
#1153=IFCCARTESIANPOINT((0.,50.,0.));
#1154=IFCDIRECTION((0.,-1.,0.));
#1155=IFCDIRECTION((1.,0.,0.));
#1156=IFCAXIS2PLACEMENT3D(#1153,#1154,#1155);
#1157=IFCDIRECTION((0.,0.,-1.));
#1158=IFCEXTRUDEDAREASOLID(#1152,#1156,#1157,40.);
#1159=IFCCARTESIANPOINTLIST2D(((0.,0.),(-48.399999999999999,0.),(-48.399999999999999,-48.799999999999997),(0.,-48.799999999999997)));
#1160=IFCINDEXEDPOLYCURVE(#1159,(IFCLINEINDEX((1,2,3,4,1))),$);
#1161=IFCCARTESIANPOINTLIST2D(((35.,35.),(-83.400000000000006,35.),(-83.400000000000006,-83.799999999999997),(35.,-83.799999999999997)));
#1162=IFCINDEXEDPOLYCURVE(#1161,(IFCLINEINDEX((1,2,3,4,1))),$);
#1163=IFCARBITRARYPROFILEDEFWITHVOIDS(.AREA.,$,#1160,(#1162));
#1164=IFCCARTESIANPOINT((25.,90.,25.));
#1165=IFCDIRECTION((0.,-1.,0.));
#1166=IFCDIRECTION((1.,0.,0.));
#1167=IFCAXIS2PLACEMENT3D(#1164,#1165,#1166);
#1168=IFCDIRECTION((0.,0.,-1.));
#1169=IFCEXTRUDEDAREASOLID(#1163,#1167,#1168,35.);
#1170=IFCINDEXEDPOLYCURVE(#1171,(IFCLINEINDEX((1,2,3,4,1))),$);
#1171=IFCCARTESIANPOINTLIST2D(((35.,35.),(-83.400000000000006,35.),(-83.400000000000006,-83.799999999999997),(35.,-83.799999999999997)));
#1172=IFCARBITRARYCLOSEDPROFILEDEF(.AREA.,$,#1170);
#1173=IFCCARTESIANPOINT((25.,102.5,25.));
#1174=IFCDIRECTION((0.,-1.,0.));
#1175=IFCDIRECTION((1.,0.,0.));
#1176=IFCAXIS2PLACEMENT3D(#1173,#1174,#1175);
#1177=IFCDIRECTION((0.,0.,-1.));
#1178=IFCEXTRUDEDAREASOLID(#1172,#1176,#1177,10.);
#1179=IFCSHAPEREPRESENTATION(#11,'Body','SweptSolid',(#1147,#1158,#1169,#1178));
#1180=IFCPRODUCTDEFINITIONSHAPE($,$,(#1179));
#1186=IFCRELFILLSELEMENT('3oW8gD$8H7rR5A_98_C4Zu',$,$,$,#1113,#1136);
#1187=IFCCARTESIANPOINT((0.,170.,0.));
#1188=IFCDIRECTION((0.,0.,1.));
#1189=IFCDIRECTION((1.,0.,0.));
#1190=IFCAXIS2PLACEMENT3D(#1187,#1188,#1189);
#1191=IFCLOCALPLACEMENT(#1135,#1190);
#1192=IFCOPENINGELEMENT('2G4eBoARjD2ADDUbnLc4BG',$,'Clinic Window 2 Opening',$,$,#1214,#1203,$,$);
#1193=IFCCARTESIANPOINTLIST2D(((0.,0.),(0.,400.),(1600.,400.),(1600.,0.),(0.,0.)));
#1194=IFCINDEXEDPOLYCURVE(#1193,$,.F.);
#1195=IFCDIRECTION((0.,0.,1.));
#1196=IFCARBITRARYCLOSEDPROFILEDEF(.AREA.,$,#1194);
#1197=IFCCARTESIANPOINT((0.,0.,0.));
#1198=IFCDIRECTION((0.,0.,1.));
#1199=IFCDIRECTION((1.,0.,0.));
#1200=IFCAXIS2PLACEMENT3D(#1197,#1198,#1199);
#1201=IFCEXTRUDEDAREASOLID(#1196,#1200,#1195,1200.);
#1202=IFCSHAPEREPRESENTATION(#11,'Body','SweptSolid',(#1201));
#1203=IFCPRODUCTDEFINITIONSHAPE($,$,(#1202));
#1209=IFCRELVOIDSELEMENT('0cPSnODun0WQiF78rBodtl',$,$,$,#60,#1192);
#1210=IFCCARTESIANPOINT((16000.,-100.,1000.));
#1211=IFCDIRECTION((0.,0.,1.));
#1212=IFCDIRECTION((1.,0.,0.));
#1213=IFCAXIS2PLACEMENT3D(#1210,#1211,#1212);
#1214=IFCLOCALPLACEMENT(#81,#1213);
#1215=IFCWINDOW('3hk7Lj_EHCrf_lorCZvpLy',$,'Clinic Window 2',$,$,#1270,#1259,$,$,$,$,$,$);
#1216=IFCCARTESIANPOINTLIST2D(((0.,0.),(1.6000000000000001,0.),(1.6000000000000001,1.2),(0.,1.2)));
#1217=IFCINDEXEDPOLYCURVE(#1216,(IFCLINEINDEX((1,2,3,4,1))),$);
#1218=IFCCARTESIANPOINTLIST2D(((25.,25.),(-23.399999999999999,25.),(-23.399999999999999,-23.799999999999997),(25.,-23.799999999999997)));
#1219=IFCINDEXEDPOLYCURVE(#1218,(IFCLINEINDEX((1,2,3,4,1))),$);
#1220=IFCARBITRARYPROFILEDEFWITHVOIDS(.AREA.,$,#1217,(#1219));
#1221=IFCCARTESIANPOINT((0.,90.,0.));
#1222=IFCDIRECTION((0.,-1.,0.));
#1223=IFCDIRECTION((1.,0.,0.));
#1224=IFCAXIS2PLACEMENT3D(#1221,#1222,#1223);
#1225=IFCDIRECTION((0.,0.,-1.));
#1226=IFCEXTRUDEDAREASOLID(#1220,#1224,#1225,10.);
#1227=IFCCARTESIANPOINTLIST2D(((0.,0.),(1.6000000000000001,0.),(1.6000000000000001,1.2),(0.,1.2)));
#1228=IFCINDEXEDPOLYCURVE(#1227,(IFCLINEINDEX((1,2,3,4,1))),$);
#1229=IFCCARTESIANPOINTLIST2D(((50.,50.),(-48.400000000000006,50.),(-48.400000000000006,-48.799999999999997),(50.,-48.799999999999997)));
#1230=IFCINDEXEDPOLYCURVE(#1229,(IFCLINEINDEX((1,2,3,4,1))),$);
#1231=IFCARBITRARYPROFILEDEFWITHVOIDS(.AREA.,$,#1228,(#1230));
#1232=IFCCARTESIANPOINT((0.,50.,0.));
#1233=IFCDIRECTION((0.,-1.,0.));
#1234=IFCDIRECTION((1.,0.,0.));
#1235=IFCAXIS2PLACEMENT3D(#1232,#1233,#1234);
#1236=IFCDIRECTION((0.,0.,-1.));
#1237=IFCEXTRUDEDAREASOLID(#1231,#1235,#1236,40.);
#1238=IFCCARTESIANPOINTLIST2D(((0.,0.),(-48.399999999999999,0.),(-48.399999999999999,-48.799999999999997),(0.,-48.799999999999997)));
#1239=IFCINDEXEDPOLYCURVE(#1238,(IFCLINEINDEX((1,2,3,4,1))),$);
#1240=IFCCARTESIANPOINTLIST2D(((35.,35.),(-83.400000000000006,35.),(-83.400000000000006,-83.799999999999997),(35.,-83.799999999999997)));
#1241=IFCINDEXEDPOLYCURVE(#1240,(IFCLINEINDEX((1,2,3,4,1))),$);
#1242=IFCARBITRARYPROFILEDEFWITHVOIDS(.AREA.,$,#1239,(#1241));
#1243=IFCCARTESIANPOINT((25.,90.,25.));
#1244=IFCDIRECTION((0.,-1.,0.));
#1245=IFCDIRECTION((1.,0.,0.));
#1246=IFCAXIS2PLACEMENT3D(#1243,#1244,#1245);
#1247=IFCDIRECTION((0.,0.,-1.));
#1248=IFCEXTRUDEDAREASOLID(#1242,#1246,#1247,35.);
#1249=IFCINDEXEDPOLYCURVE(#1250,(IFCLINEINDEX((1,2,3,4,1))),$);
#1250=IFCCARTESIANPOINTLIST2D(((35.,35.),(-83.400000000000006,35.),(-83.400000000000006,-83.799999999999997),(35.,-83.799999999999997)));
#1251=IFCARBITRARYCLOSEDPROFILEDEF(.AREA.,$,#1249);
#1252=IFCCARTESIANPOINT((25.,102.5,25.));
#1253=IFCDIRECTION((0.,-1.,0.));
#1254=IFCDIRECTION((1.,0.,0.));
#1255=IFCAXIS2PLACEMENT3D(#1252,#1253,#1254);
#1256=IFCDIRECTION((0.,0.,-1.));
#1257=IFCEXTRUDEDAREASOLID(#1251,#1255,#1256,10.);
#1258=IFCSHAPEREPRESENTATION(#11,'Body','SweptSolid',(#1226,#1237,#1248,#1257));
#1259=IFCPRODUCTDEFINITIONSHAPE($,$,(#1258));
#1265=IFCRELFILLSELEMENT('0odO0dgUf6Kwg_M3wW6Fe1',$,$,$,#1192,#1215);
#1266=IFCCARTESIANPOINT((0.,170.,0.));
#1267=IFCDIRECTION((0.,0.,1.));
#1268=IFCDIRECTION((1.,0.,0.));
#1269=IFCAXIS2PLACEMENT3D(#1266,#1267,#1268);
#1270=IFCLOCALPLACEMENT(#1214,#1269);
#1271=IFCOPENINGELEMENT('3ME5QZI4L4cAe4uD5joqhc',$,'Clinic Window 3 Opening',$,$,#1293,#1282,$,$);
#1272=IFCCARTESIANPOINTLIST2D(((0.,0.),(0.,400.),(1600.,400.),(1600.,0.),(0.,0.)));
#1273=IFCINDEXEDPOLYCURVE(#1272,$,.F.);
#1274=IFCDIRECTION((0.,0.,1.));
#1275=IFCARBITRARYCLOSEDPROFILEDEF(.AREA.,$,#1273);
#1276=IFCCARTESIANPOINT((0.,0.,0.));
#1277=IFCDIRECTION((0.,0.,1.));
#1278=IFCDIRECTION((1.,0.,0.));
#1279=IFCAXIS2PLACEMENT3D(#1276,#1277,#1278);
#1280=IFCEXTRUDEDAREASOLID(#1275,#1279,#1274,1200.);
#1281=IFCSHAPEREPRESENTATION(#11,'Body','SweptSolid',(#1280));
#1282=IFCPRODUCTDEFINITIONSHAPE($,$,(#1281));
#1288=IFCRELVOIDSELEMENT('2YZIvx3Yj2BucKsiqNDVC5',$,$,$,#82,#1271);
#1289=IFCCARTESIANPOINT((3999.9999999999995,-100.00000000000142,1000.));
#1290=IFCDIRECTION((0.,0.,1.));
#1291=IFCDIRECTION((1.,0.,0.));
#1292=IFCAXIS2PLACEMENT3D(#1289,#1290,#1291);
#1293=IFCLOCALPLACEMENT(#103,#1292);
#1294=IFCWINDOW('3Qdr0i56900xOYGXXspGbi',$,'Clinic Window 3',$,$,#1349,#1338,$,$,$,$,$,$);
#1295=IFCCARTESIANPOINTLIST2D(((0.,0.),(1.6000000000000001,0.),(1.6000000000000001,1.2),(0.,1.2)));
#1296=IFCINDEXEDPOLYCURVE(#1295,(IFCLINEINDEX((1,2,3,4,1))),$);
#1297=IFCCARTESIANPOINTLIST2D(((25.,25.),(-23.399999999999999,25.),(-23.399999999999999,-23.799999999999997),(25.,-23.799999999999997)));
#1298=IFCINDEXEDPOLYCURVE(#1297,(IFCLINEINDEX((1,2,3,4,1))),$);
#1299=IFCARBITRARYPROFILEDEFWITHVOIDS(.AREA.,$,#1296,(#1298));
#1300=IFCCARTESIANPOINT((0.,90.,0.));
#1301=IFCDIRECTION((0.,-1.,0.));
#1302=IFCDIRECTION((1.,0.,0.));
#1303=IFCAXIS2PLACEMENT3D(#1300,#1301,#1302);
#1304=IFCDIRECTION((0.,0.,-1.));
#1305=IFCEXTRUDEDAREASOLID(#1299,#1303,#1304,10.);
#1306=IFCCARTESIANPOINTLIST2D(((0.,0.),(1.6000000000000001,0.),(1.6000000000000001,1.2),(0.,1.2)));
#1307=IFCINDEXEDPOLYCURVE(#1306,(IFCLINEINDEX((1,2,3,4,1))),$);
#1308=IFCCARTESIANPOINTLIST2D(((50.,50.),(-48.400000000000006,50.),(-48.400000000000006,-48.799999999999997),(50.,-48.799999999999997)));
#1309=IFCINDEXEDPOLYCURVE(#1308,(IFCLINEINDEX((1,2,3,4,1))),$);
#1310=IFCARBITRARYPROFILEDEFWITHVOIDS(.AREA.,$,#1307,(#1309));
#1311=IFCCARTESIANPOINT((0.,50.,0.));
#1312=IFCDIRECTION((0.,-1.,0.));
#1313=IFCDIRECTION((1.,0.,0.));
#1314=IFCAXIS2PLACEMENT3D(#1311,#1312,#1313);
#1315=IFCDIRECTION((0.,0.,-1.));
#1316=IFCEXTRUDEDAREASOLID(#1310,#1314,#1315,40.);
#1317=IFCCARTESIANPOINTLIST2D(((0.,0.),(-48.399999999999999,0.),(-48.399999999999999,-48.799999999999997),(0.,-48.799999999999997)));
#1318=IFCINDEXEDPOLYCURVE(#1317,(IFCLINEINDEX((1,2,3,4,1))),$);
#1319=IFCCARTESIANPOINTLIST2D(((35.,35.),(-83.400000000000006,35.),(-83.400000000000006,-83.799999999999997),(35.,-83.799999999999997)));
#1320=IFCINDEXEDPOLYCURVE(#1319,(IFCLINEINDEX((1,2,3,4,1))),$);
#1321=IFCARBITRARYPROFILEDEFWITHVOIDS(.AREA.,$,#1318,(#1320));
#1322=IFCCARTESIANPOINT((25.,90.,25.));
#1323=IFCDIRECTION((0.,-1.,0.));
#1324=IFCDIRECTION((1.,0.,0.));
#1325=IFCAXIS2PLACEMENT3D(#1322,#1323,#1324);
#1326=IFCDIRECTION((0.,0.,-1.));
#1327=IFCEXTRUDEDAREASOLID(#1321,#1325,#1326,35.);
#1328=IFCINDEXEDPOLYCURVE(#1329,(IFCLINEINDEX((1,2,3,4,1))),$);
#1329=IFCCARTESIANPOINTLIST2D(((35.,35.),(-83.400000000000006,35.),(-83.400000000000006,-83.799999999999997),(35.,-83.799999999999997)));
#1330=IFCARBITRARYCLOSEDPROFILEDEF(.AREA.,$,#1328);
#1331=IFCCARTESIANPOINT((25.,102.5,25.));
#1332=IFCDIRECTION((0.,-1.,0.));
#1333=IFCDIRECTION((1.,0.,0.));
#1334=IFCAXIS2PLACEMENT3D(#1331,#1332,#1333);
#1335=IFCDIRECTION((0.,0.,-1.));
#1336=IFCEXTRUDEDAREASOLID(#1330,#1334,#1335,10.);
#1337=IFCSHAPEREPRESENTATION(#11,'Body','SweptSolid',(#1305,#1316,#1327,#1336));
#1338=IFCPRODUCTDEFINITIONSHAPE($,$,(#1337));
#1344=IFCRELFILLSELEMENT('3WWPWEoRH0$9q9gpPK3dn6',$,$,$,#1271,#1294);
#1345=IFCCARTESIANPOINT((0.,170.00000000000171,0.));
#1346=IFCDIRECTION((0.,0.,1.));
#1347=IFCDIRECTION((1.,0.,0.));
#1348=IFCAXIS2PLACEMENT3D(#1345,#1346,#1347);
#1349=IFCLOCALPLACEMENT(#1293,#1348);
#1350=IFCOPENINGELEMENT('2ctajz0xXC7BoJ0lGt1LgT',$,'Clinic Window 4 Opening',$,$,#1372,#1361,$,$);
#1351=IFCCARTESIANPOINTLIST2D(((0.,0.),(0.,400.),(1600.,400.),(1600.,0.),(0.,0.)));
#1352=IFCINDEXEDPOLYCURVE(#1351,$,.F.);
#1353=IFCDIRECTION((0.,0.,1.));
#1354=IFCARBITRARYCLOSEDPROFILEDEF(.AREA.,$,#1352);
#1355=IFCCARTESIANPOINT((0.,0.,0.));
#1356=IFCDIRECTION((0.,0.,1.));
#1357=IFCDIRECTION((1.,0.,0.));
#1358=IFCAXIS2PLACEMENT3D(#1355,#1356,#1357);
#1359=IFCEXTRUDEDAREASOLID(#1354,#1358,#1353,1200.);
#1360=IFCSHAPEREPRESENTATION(#11,'Body','SweptSolid',(#1359));
#1361=IFCPRODUCTDEFINITIONSHAPE($,$,(#1360));
#1367=IFCRELVOIDSELEMENT('0zXzjQeq568h9udfgRezUC',$,$,$,#82,#1350);
#1368=IFCCARTESIANPOINT((10000.,-100.00000000000142,1000.));
#1369=IFCDIRECTION((0.,0.,1.));
#1370=IFCDIRECTION((1.,0.,0.));
#1371=IFCAXIS2PLACEMENT3D(#1368,#1369,#1370);
#1372=IFCLOCALPLACEMENT(#103,#1371);
#1373=IFCWINDOW('1GxIFwhIf7fRWVCc72hwla',$,'Clinic Window 4',$,$,#1428,#1417,$,$,$,$,$,$);
#1374=IFCCARTESIANPOINTLIST2D(((0.,0.),(1.6000000000000001,0.),(1.6000000000000001,1.2),(0.,1.2)));
#1375=IFCINDEXEDPOLYCURVE(#1374,(IFCLINEINDEX((1,2,3,4,1))),$);
#1376=IFCCARTESIANPOINTLIST2D(((25.,25.),(-23.399999999999999,25.),(-23.399999999999999,-23.799999999999997),(25.,-23.799999999999997)));
#1377=IFCINDEXEDPOLYCURVE(#1376,(IFCLINEINDEX((1,2,3,4,1))),$);
#1378=IFCARBITRARYPROFILEDEFWITHVOIDS(.AREA.,$,#1375,(#1377));
#1379=IFCCARTESIANPOINT((0.,90.,0.));
#1380=IFCDIRECTION((0.,-1.,0.));
#1381=IFCDIRECTION((1.,0.,0.));
#1382=IFCAXIS2PLACEMENT3D(#1379,#1380,#1381);
#1383=IFCDIRECTION((0.,0.,-1.));
#1384=IFCEXTRUDEDAREASOLID(#1378,#1382,#1383,10.);
#1385=IFCCARTESIANPOINTLIST2D(((0.,0.),(1.6000000000000001,0.),(1.6000000000000001,1.2),(0.,1.2)));
#1386=IFCINDEXEDPOLYCURVE(#1385,(IFCLINEINDEX((1,2,3,4,1))),$);
#1387=IFCCARTESIANPOINTLIST2D(((50.,50.),(-48.400000000000006,50.),(-48.400000000000006,-48.799999999999997),(50.,-48.799999999999997)));
#1388=IFCINDEXEDPOLYCURVE(#1387,(IFCLINEINDEX((1,2,3,4,1))),$);
#1389=IFCARBITRARYPROFILEDEFWITHVOIDS(.AREA.,$,#1386,(#1388));
#1390=IFCCARTESIANPOINT((0.,50.,0.));
#1391=IFCDIRECTION((0.,-1.,0.));
#1392=IFCDIRECTION((1.,0.,0.));
#1393=IFCAXIS2PLACEMENT3D(#1390,#1391,#1392);
#1394=IFCDIRECTION((0.,0.,-1.));
#1395=IFCEXTRUDEDAREASOLID(#1389,#1393,#1394,40.);
#1396=IFCCARTESIANPOINTLIST2D(((0.,0.),(-48.399999999999999,0.),(-48.399999999999999,-48.799999999999997),(0.,-48.799999999999997)));
#1397=IFCINDEXEDPOLYCURVE(#1396,(IFCLINEINDEX((1,2,3,4,1))),$);
#1398=IFCCARTESIANPOINTLIST2D(((35.,35.),(-83.400000000000006,35.),(-83.400000000000006,-83.799999999999997),(35.,-83.799999999999997)));
#1399=IFCINDEXEDPOLYCURVE(#1398,(IFCLINEINDEX((1,2,3,4,1))),$);
#1400=IFCARBITRARYPROFILEDEFWITHVOIDS(.AREA.,$,#1397,(#1399));
#1401=IFCCARTESIANPOINT((25.,90.,25.));
#1402=IFCDIRECTION((0.,-1.,0.));
#1403=IFCDIRECTION((1.,0.,0.));
#1404=IFCAXIS2PLACEMENT3D(#1401,#1402,#1403);
#1405=IFCDIRECTION((0.,0.,-1.));
#1406=IFCEXTRUDEDAREASOLID(#1400,#1404,#1405,35.);
#1407=IFCINDEXEDPOLYCURVE(#1408,(IFCLINEINDEX((1,2,3,4,1))),$);
#1408=IFCCARTESIANPOINTLIST2D(((35.,35.),(-83.400000000000006,35.),(-83.400000000000006,-83.799999999999997),(35.,-83.799999999999997)));
#1409=IFCARBITRARYCLOSEDPROFILEDEF(.AREA.,$,#1407);
#1410=IFCCARTESIANPOINT((25.,102.5,25.));
#1411=IFCDIRECTION((0.,-1.,0.));
#1412=IFCDIRECTION((1.,0.,0.));
#1413=IFCAXIS2PLACEMENT3D(#1410,#1411,#1412);
#1414=IFCDIRECTION((0.,0.,-1.));
#1415=IFCEXTRUDEDAREASOLID(#1409,#1413,#1414,10.);
#1416=IFCSHAPEREPRESENTATION(#11,'Body','SweptSolid',(#1384,#1395,#1406,#1415));
#1417=IFCPRODUCTDEFINITIONSHAPE($,$,(#1416));
#1423=IFCRELFILLSELEMENT('1y$W3G_uTCawNUmlvGj4yG',$,$,$,#1350,#1373);
#1424=IFCCARTESIANPOINT((0.,170.00000000000526,0.));
#1425=IFCDIRECTION((0.,0.,1.));
#1426=IFCDIRECTION((1.,0.,0.));
#1427=IFCAXIS2PLACEMENT3D(#1424,#1425,#1426);
#1428=IFCLOCALPLACEMENT(#1372,#1427);
#1429=IFCOPENINGELEMENT('0UV6$FrPb0wvlo26agALst',$,'Clinic Window 5 Opening',$,$,#1451,#1440,$,$);
#1430=IFCCARTESIANPOINTLIST2D(((0.,0.),(0.,400.),(1600.,400.),(1600.,0.),(0.,0.)));
#1431=IFCINDEXEDPOLYCURVE(#1430,$,.F.);
#1432=IFCDIRECTION((0.,0.,1.));
#1433=IFCARBITRARYCLOSEDPROFILEDEF(.AREA.,$,#1431);
#1434=IFCCARTESIANPOINT((0.,0.,0.));
#1435=IFCDIRECTION((0.,0.,1.));
#1436=IFCDIRECTION((1.,0.,0.));
#1437=IFCAXIS2PLACEMENT3D(#1434,#1435,#1436);
#1438=IFCEXTRUDEDAREASOLID(#1433,#1437,#1432,1200.);
#1439=IFCSHAPEREPRESENTATION(#11,'Body','SweptSolid',(#1438));
#1440=IFCPRODUCTDEFINITIONSHAPE($,$,(#1439));
#1446=IFCRELVOIDSELEMENT('0tnx3w_n93VQTnedeLCmIW',$,$,$,#104,#1429);
#1447=IFCCARTESIANPOINT((4000.0000000000018,-99.999999999999645,1000.));
#1448=IFCDIRECTION((0.,0.,1.));
#1449=IFCDIRECTION((1.,0.,0.));
#1450=IFCAXIS2PLACEMENT3D(#1447,#1448,#1449);
#1451=IFCLOCALPLACEMENT(#125,#1450);
#1452=IFCWINDOW('0kEM_DeyX3Hw0S5Npu9WNZ',$,'Clinic Window 5',$,$,#1507,#1496,$,$,$,$,$,$);
#1453=IFCCARTESIANPOINTLIST2D(((0.,0.),(1.6000000000000001,0.),(1.6000000000000001,1.2),(0.,1.2)));
#1454=IFCINDEXEDPOLYCURVE(#1453,(IFCLINEINDEX((1,2,3,4,1))),$);
#1455=IFCCARTESIANPOINTLIST2D(((25.,25.),(-23.399999999999999,25.),(-23.399999999999999,-23.799999999999997),(25.,-23.799999999999997)));
#1456=IFCINDEXEDPOLYCURVE(#1455,(IFCLINEINDEX((1,2,3,4,1))),$);
#1457=IFCARBITRARYPROFILEDEFWITHVOIDS(.AREA.,$,#1454,(#1456));
#1458=IFCCARTESIANPOINT((0.,90.,0.));
#1459=IFCDIRECTION((0.,-1.,0.));
#1460=IFCDIRECTION((1.,0.,0.));
#1461=IFCAXIS2PLACEMENT3D(#1458,#1459,#1460);
#1462=IFCDIRECTION((0.,0.,-1.));
#1463=IFCEXTRUDEDAREASOLID(#1457,#1461,#1462,10.);
#1464=IFCCARTESIANPOINTLIST2D(((0.,0.),(1.6000000000000001,0.),(1.6000000000000001,1.2),(0.,1.2)));
#1465=IFCINDEXEDPOLYCURVE(#1464,(IFCLINEINDEX((1,2,3,4,1))),$);
#1466=IFCCARTESIANPOINTLIST2D(((50.,50.),(-48.400000000000006,50.),(-48.400000000000006,-48.799999999999997),(50.,-48.799999999999997)));
#1467=IFCINDEXEDPOLYCURVE(#1466,(IFCLINEINDEX((1,2,3,4,1))),$);
#1468=IFCARBITRARYPROFILEDEFWITHVOIDS(.AREA.,$,#1465,(#1467));
#1469=IFCCARTESIANPOINT((0.,50.,0.));
#1470=IFCDIRECTION((0.,-1.,0.));
#1471=IFCDIRECTION((1.,0.,0.));
#1472=IFCAXIS2PLACEMENT3D(#1469,#1470,#1471);
#1473=IFCDIRECTION((0.,0.,-1.));
#1474=IFCEXTRUDEDAREASOLID(#1468,#1472,#1473,40.);
#1475=IFCCARTESIANPOINTLIST2D(((0.,0.),(-48.399999999999999,0.),(-48.399999999999999,-48.799999999999997),(0.,-48.799999999999997)));
#1476=IFCINDEXEDPOLYCURVE(#1475,(IFCLINEINDEX((1,2,3,4,1))),$);
#1477=IFCCARTESIANPOINTLIST2D(((35.,35.),(-83.400000000000006,35.),(-83.400000000000006,-83.799999999999997),(35.,-83.799999999999997)));
#1478=IFCINDEXEDPOLYCURVE(#1477,(IFCLINEINDEX((1,2,3,4,1))),$);
#1479=IFCARBITRARYPROFILEDEFWITHVOIDS(.AREA.,$,#1476,(#1478));
#1480=IFCCARTESIANPOINT((25.,90.,25.));
#1481=IFCDIRECTION((0.,-1.,0.));
#1482=IFCDIRECTION((1.,0.,0.));
#1483=IFCAXIS2PLACEMENT3D(#1480,#1481,#1482);
#1484=IFCDIRECTION((0.,0.,-1.));
#1485=IFCEXTRUDEDAREASOLID(#1479,#1483,#1484,35.);
#1486=IFCINDEXEDPOLYCURVE(#1487,(IFCLINEINDEX((1,2,3,4,1))),$);
#1487=IFCCARTESIANPOINTLIST2D(((35.,35.),(-83.400000000000006,35.),(-83.400000000000006,-83.799999999999997),(35.,-83.799999999999997)));
#1488=IFCARBITRARYCLOSEDPROFILEDEF(.AREA.,$,#1486);
#1489=IFCCARTESIANPOINT((25.,102.5,25.));
#1490=IFCDIRECTION((0.,-1.,0.));
#1491=IFCDIRECTION((1.,0.,0.));
#1492=IFCAXIS2PLACEMENT3D(#1489,#1490,#1491);
#1493=IFCDIRECTION((0.,0.,-1.));
#1494=IFCEXTRUDEDAREASOLID(#1488,#1492,#1493,10.);
#1495=IFCSHAPEREPRESENTATION(#11,'Body','SweptSolid',(#1463,#1474,#1485,#1494));
#1496=IFCPRODUCTDEFINITIONSHAPE($,$,(#1495));
#1502=IFCRELFILLSELEMENT('1CWMN7tbX9VwXQKjaiRaLR',$,$,$,#1429,#1452);
#1503=IFCCARTESIANPOINT((-1.7763568394002505E-12,169.99999999999991,0.));
#1504=IFCDIRECTION((0.,0.,1.));
#1505=IFCDIRECTION((1.,0.,0.));
#1506=IFCAXIS2PLACEMENT3D(#1503,#1504,#1505);
#1507=IFCLOCALPLACEMENT(#1451,#1506);
#1508=IFCOPENINGELEMENT('3fJNO18ZHDOBPs6aD_tUmH',$,'Clinic Window 6 Opening',$,$,#1530,#1519,$,$);
#1509=IFCCARTESIANPOINTLIST2D(((0.,0.),(0.,400.),(1600.,400.),(1600.,0.),(0.,0.)));
#1510=IFCINDEXEDPOLYCURVE(#1509,$,.F.);
#1511=IFCDIRECTION((0.,0.,1.));
#1512=IFCARBITRARYCLOSEDPROFILEDEF(.AREA.,$,#1510);
#1513=IFCCARTESIANPOINT((0.,0.,0.));
#1514=IFCDIRECTION((0.,0.,1.));
#1515=IFCDIRECTION((1.,0.,0.));
#1516=IFCAXIS2PLACEMENT3D(#1513,#1514,#1515);
#1517=IFCEXTRUDEDAREASOLID(#1512,#1516,#1511,1200.);
#1518=IFCSHAPEREPRESENTATION(#11,'Body','SweptSolid',(#1517));
#1519=IFCPRODUCTDEFINITIONSHAPE($,$,(#1518));
#1525=IFCRELVOIDSELEMENT('1fN90fzhT7mePtTjhDnfkz',$,$,$,#126,#1508);
#1526=IFCCARTESIANPOINT((8000.,-100.00000000000001,1000.));
#1527=IFCDIRECTION((0.,0.,1.));
#1528=IFCDIRECTION((1.,0.,0.));
#1529=IFCAXIS2PLACEMENT3D(#1526,#1527,#1528);
#1530=IFCLOCALPLACEMENT(#147,#1529);
#1531=IFCWINDOW('0GWUkzGD9AZfuz_iYhskUV',$,'Clinic Window 6',$,$,#1586,#1575,$,$,$,$,$,$);
#1532=IFCCARTESIANPOINTLIST2D(((0.,0.),(1.6000000000000001,0.),(1.6000000000000001,1.2),(0.,1.2)));
#1533=IFCINDEXEDPOLYCURVE(#1532,(IFCLINEINDEX((1,2,3,4,1))),$);
#1534=IFCCARTESIANPOINTLIST2D(((25.,25.),(-23.399999999999999,25.),(-23.399999999999999,-23.799999999999997),(25.,-23.799999999999997)));
#1535=IFCINDEXEDPOLYCURVE(#1534,(IFCLINEINDEX((1,2,3,4,1))),$);
#1536=IFCARBITRARYPROFILEDEFWITHVOIDS(.AREA.,$,#1533,(#1535));
#1537=IFCCARTESIANPOINT((0.,90.,0.));
#1538=IFCDIRECTION((0.,-1.,0.));
#1539=IFCDIRECTION((1.,0.,0.));
#1540=IFCAXIS2PLACEMENT3D(#1537,#1538,#1539);
#1541=IFCDIRECTION((0.,0.,-1.));
#1542=IFCEXTRUDEDAREASOLID(#1536,#1540,#1541,10.);
#1543=IFCCARTESIANPOINTLIST2D(((0.,0.),(1.6000000000000001,0.),(1.6000000000000001,1.2),(0.,1.2)));
#1544=IFCINDEXEDPOLYCURVE(#1543,(IFCLINEINDEX((1,2,3,4,1))),$);
#1545=IFCCARTESIANPOINTLIST2D(((50.,50.),(-48.400000000000006,50.),(-48.400000000000006,-48.799999999999997),(50.,-48.799999999999997)));
#1546=IFCINDEXEDPOLYCURVE(#1545,(IFCLINEINDEX((1,2,3,4,1))),$);
#1547=IFCARBITRARYPROFILEDEFWITHVOIDS(.AREA.,$,#1544,(#1546));
#1548=IFCCARTESIANPOINT((0.,50.,0.));
#1549=IFCDIRECTION((0.,-1.,0.));
#1550=IFCDIRECTION((1.,0.,0.));
#1551=IFCAXIS2PLACEMENT3D(#1548,#1549,#1550);
#1552=IFCDIRECTION((0.,0.,-1.));
#1553=IFCEXTRUDEDAREASOLID(#1547,#1551,#1552,40.);
#1554=IFCCARTESIANPOINTLIST2D(((0.,0.),(-48.399999999999999,0.),(-48.399999999999999,-48.799999999999997),(0.,-48.799999999999997)));
#1555=IFCINDEXEDPOLYCURVE(#1554,(IFCLINEINDEX((1,2,3,4,1))),$);
#1556=IFCCARTESIANPOINTLIST2D(((35.,35.),(-83.400000000000006,35.),(-83.400000000000006,-83.799999999999997),(35.,-83.799999999999997)));
#1557=IFCINDEXEDPOLYCURVE(#1556,(IFCLINEINDEX((1,2,3,4,1))),$);
#1558=IFCARBITRARYPROFILEDEFWITHVOIDS(.AREA.,$,#1555,(#1557));
#1559=IFCCARTESIANPOINT((25.,90.,25.));
#1560=IFCDIRECTION((0.,-1.,0.));
#1561=IFCDIRECTION((1.,0.,0.));
#1562=IFCAXIS2PLACEMENT3D(#1559,#1560,#1561);
#1563=IFCDIRECTION((0.,0.,-1.));
#1564=IFCEXTRUDEDAREASOLID(#1558,#1562,#1563,35.);
#1565=IFCINDEXEDPOLYCURVE(#1566,(IFCLINEINDEX((1,2,3,4,1))),$);
#1566=IFCCARTESIANPOINTLIST2D(((35.,35.),(-83.400000000000006,35.),(-83.400000000000006,-83.799999999999997),(35.,-83.799999999999997)));
#1567=IFCARBITRARYCLOSEDPROFILEDEF(.AREA.,$,#1565);
#1568=IFCCARTESIANPOINT((25.,102.5,25.));
#1569=IFCDIRECTION((0.,-1.,0.));
#1570=IFCDIRECTION((1.,0.,0.));
#1571=IFCAXIS2PLACEMENT3D(#1568,#1569,#1570);
#1572=IFCDIRECTION((0.,0.,-1.));
#1573=IFCEXTRUDEDAREASOLID(#1567,#1571,#1572,10.);
#1574=IFCSHAPEREPRESENTATION(#11,'Body','SweptSolid',(#1542,#1553,#1564,#1573));
#1575=IFCPRODUCTDEFINITIONSHAPE($,$,(#1574));
#1581=IFCRELFILLSELEMENT('2HqiBN57PD9PBAIA4Ow78X',$,$,$,#1508,#1531);
#1582=IFCCARTESIANPOINT((0.,170.00000000000003,0.));
#1583=IFCDIRECTION((0.,0.,1.));
#1584=IFCDIRECTION((1.,0.,0.));
#1585=IFCAXIS2PLACEMENT3D(#1582,#1583,#1584);
#1586=IFCLOCALPLACEMENT(#1530,#1585);
ENDSEC;
END-ISO-10303-21;
