# generated by make_answer.py
o TentStart
v 0.000000 0.000000 0.150000
v 0.000000 -0.106066 0.106066
v 0.000000 -0.150000 0.000000
v 0.000000 -0.106066 -0.106066
v 0.000000 -0.000000 -0.150000
v 0.000000 0.106066 -0.106066
v 0.000000 0.150000 -0.000000
v 0.000000 0.106066 0.106066
v 0.050000 0.000000 0.147000
v 0.050000 -0.103945 0.103945
v 0.050000 -0.147000 0.000000
v 0.050000 -0.103945 -0.103945
v 0.050000 -0.000000 -0.147000
v 0.050000 0.103945 -0.103945
v 0.050000 0.147000 -0.000000
v 0.050000 0.103945 0.103945
v 0.098000 0.000000 0.144120
v 0.098000 -0.101908 0.101908
v 0.098000 -0.144120 0.000000
v 0.098000 -0.101908 -0.101908
v 0.098000 -0.000000 -0.144120
v 0.098000 0.101908 -0.101908
v 0.098000 0.144120 -0.000000
v 0.098000 0.101908 0.101908
v 0.146000 0.000000 0.141240
v 0.146000 -0.099872 0.099872
v 0.146000 -0.141240 0.000000
v 0.146000 -0.099872 -0.099872
v 0.146000 -0.000000 -0.141240
v 0.146000 0.099872 -0.099872
v 0.146000 0.141240 -0.000000
v 0.146000 0.099872 0.099872
v 0.194000 0.000000 0.138360
v 0.194000 -0.097835 0.097835
v 0.194000 -0.138360 0.000000
v 0.194000 -0.097835 -0.097835
v 0.194000 -0.000000 -0.138360
v 0.194000 0.097835 -0.097835
v 0.194000 0.138360 -0.000000
v 0.194000 0.097835 0.097835
v 0.242000 0.000000 0.135480
v 0.242000 -0.095799 0.095799
v 0.242000 -0.135480 0.000000
v 0.242000 -0.095799 -0.095799
v 0.242000 -0.000000 -0.135480
v 0.242000 0.095799 -0.095799
v 0.242000 0.135480 -0.000000
v 0.242000 0.095799 0.095799
v 0.292000 0.000000 0.132480
v 0.292000 -0.093678 0.093678
v 0.292000 -0.132480 0.000000
v 0.292000 -0.093678 -0.093678
v 0.292000 -0.000000 -0.132480
v 0.292000 0.093678 -0.093678
v 0.292000 0.132480 -0.000000
v 0.292000 0.093678 0.093678
v 0.338000 0.000000 0.129720
v 0.338000 -0.091726 0.091726
v 0.338000 -0.129720 0.000000
v 0.338000 -0.091726 -0.091726
v 0.338000 -0.000000 -0.129720
v 0.338000 0.091726 -0.091726
v 0.338000 0.129720 -0.000000
v 0.338000 0.091726 0.091726
v 0.382000 0.000000 0.127080
v 0.382000 -0.089859 0.089859
v 0.382000 -0.127080 0.000000
v 0.382000 -0.089859 -0.089859
v 0.382000 -0.000000 -0.127080
v 0.382000 0.089859 -0.089859
v 0.382000 0.127080 -0.000000
v 0.382000 0.089859 0.089859
v 0.418000 0.000000 0.124920
v 0.418000 -0.088332 0.088332
v 0.418000 -0.124920 0.000000
v 0.418000 -0.088332 -0.088332
v 0.418000 -0.000000 -0.124920
v 0.418000 0.088332 -0.088332
v 0.418000 0.124920 -0.000000
v 0.418000 0.088332 0.088332
v 0.442000 0.000000 0.123480
v 0.442000 -0.087314 0.087314
v 0.442000 -0.123480 0.000000
v 0.442000 -0.087314 -0.087314
v 0.442000 -0.000000 -0.123480
v 0.442000 0.087314 -0.087314
v 0.442000 0.123480 -0.000000
v 0.442000 0.087314 0.087314
v 0.464000 0.000000 0.122160
v 0.464000 -0.086380 0.086380
v 0.464000 -0.122160 0.000000
v 0.464000 -0.086380 -0.086380
v 0.464000 -0.000000 -0.122160
v 0.464000 0.086380 -0.086380
v 0.464000 0.122160 -0.000000
v 0.464000 0.086380 0.086380
v 0.480000 0.000000 0.121200
v 0.480000 -0.085701 0.085701
v 0.480000 -0.121200 0.000000
v 0.480000 -0.085701 -0.085701
v 0.480000 -0.000000 -0.121200
v 0.480000 0.085701 -0.085701
v 0.480000 0.121200 -0.000000
v 0.480000 0.085701 0.085701
v 0.498000 0.000000 0.120120
v 0.498000 -0.084938 0.084938
v 0.498000 -0.120120 0.000000
v 0.498000 -0.084938 -0.084938
v 0.498000 -0.000000 -0.120120
v 0.498000 0.084938 -0.084938
v 0.498000 0.120120 -0.000000
v 0.498000 0.084938 0.084938
v 0.500000 0.014000 0.119160
v 0.584259 0.014000 0.084259
v 0.619160 0.014000 0.000000
v 0.584259 0.014000 -0.084259
v 0.500000 0.014000 -0.119160
v 0.415741 0.014000 -0.084259
v 0.380840 0.014000 -0.000000
v 0.415741 0.014000 0.084259
v 0.500000 0.030000 0.118200
v 0.583580 0.030000 0.083580
v 0.618200 0.030000 0.000000
v 0.583580 0.030000 -0.083580
v 0.500000 0.030000 -0.118200
v 0.416420 0.030000 -0.083580
v 0.381800 0.030000 -0.000000
v 0.416420 0.030000 0.083580
v 0.500000 0.048000 0.117120
v 0.582816 0.048000 0.082816
v 0.617120 0.048000 0.000000
v 0.582816 0.048000 -0.082816
v 0.500000 0.048000 -0.117120
v 0.417184 0.048000 -0.082816
v 0.382880 0.048000 -0.000000
v 0.417184 0.048000 0.082816
v 0.500000 0.070000 0.115800
v 0.581883 0.070000 0.081883
v 0.615800 0.070000 0.000000
v 0.581883 0.070000 -0.081883
v 0.500000 0.070000 -0.115800
v 0.418117 0.070000 -0.081883
v 0.384200 0.070000 -0.000000
v 0.418117 0.070000 0.081883
v 0.500000 0.100000 0.114000
v 0.580610 0.100000 0.080610
v 0.614000 0.100000 0.000000
v 0.580610 0.100000 -0.080610
v 0.500000 0.100000 -0.114000
v 0.419390 0.100000 -0.080610
v 0.386000 0.100000 -0.000000
v 0.419390 0.100000 0.080610
v 0.500000 0.138000 0.111720
v 0.578998 0.138000 0.078998
v 0.611720 0.138000 0.000000
v 0.578998 0.138000 -0.078998
v 0.500000 0.138000 -0.111720
v 0.421002 0.138000 -0.078998
v 0.388280 0.138000 -0.000000
v 0.421002 0.138000 0.078998
v 0.500000 0.184000 0.108960
v 0.577046 0.184000 0.077046
v 0.608960 0.184000 0.000000
v 0.577046 0.184000 -0.077046
v 0.500000 0.184000 -0.108960
v 0.422954 0.184000 -0.077046
v 0.391040 0.184000 -0.000000
v 0.422954 0.184000 0.077046
v 0.500000 0.232000 0.106080
v 0.575010 0.232000 0.075010
v 0.606080 0.232000 0.000000
v 0.575010 0.232000 -0.075010
v 0.500000 0.232000 -0.106080
v 0.424990 0.232000 -0.075010
v 0.393920 0.232000 -0.000000
v 0.424990 0.232000 0.075010
v 0.500000 0.282000 0.103080
v 0.572889 0.282000 0.072889
v 0.603080 0.282000 0.000000
v 0.572889 0.282000 -0.072889
v 0.500000 0.282000 -0.103080
v 0.427111 0.282000 -0.072889
v 0.396920 0.282000 -0.000000
v 0.427111 0.282000 0.072889
v 0.500000 0.330000 0.100200
v 0.570852 0.330000 0.070852
v 0.600200 0.330000 0.000000
v 0.570852 0.330000 -0.070852
v 0.500000 0.330000 -0.100200
v 0.429148 0.330000 -0.070852
v 0.399800 0.330000 -0.000000
v 0.429148 0.330000 0.070852
v 0.500000 0.374000 0.097560
v 0.568985 0.374000 0.068985
v 0.597560 0.374000 0.000000
v 0.568985 0.374000 -0.068985
v 0.500000 0.374000 -0.097560
v 0.431015 0.374000 -0.068985
v 0.402440 0.374000 -0.000000
v 0.431015 0.374000 0.068985
v 0.500000 0.410000 0.095400
v 0.567458 0.410000 0.067458
v 0.595400 0.410000 0.000000
v 0.567458 0.410000 -0.067458
v 0.500000 0.410000 -0.095400
v 0.432542 0.410000 -0.067458
v 0.404600 0.410000 -0.000000
v 0.432542 0.410000 0.067458
v 0.500000 0.438000 0.093720
v 0.566270 0.438000 0.066270
v 0.593720 0.438000 0.000000
v 0.566270 0.438000 -0.066270
v 0.500000 0.438000 -0.093720
v 0.433730 0.438000 -0.066270
v 0.406280 0.438000 -0.000000
v 0.433730 0.438000 0.066270
v 0.500000 0.460000 0.092400
v 0.565337 0.460000 0.065337
v 0.592400 0.460000 0.000000
v 0.565337 0.460000 -0.065337
v 0.500000 0.460000 -0.092400
v 0.434663 0.460000 -0.065337
v 0.407600 0.460000 -0.000000
v 0.434663 0.460000 0.065337
v 0.500000 0.478000 0.091320
v 0.564573 0.478000 0.064573
v 0.591320 0.478000 0.000000
v 0.564573 0.478000 -0.064573
v 0.500000 0.478000 -0.091320
v 0.435427 0.478000 -0.064573
v 0.408680 0.478000 -0.000000
v 0.435427 0.478000 0.064573
v 0.500000 0.494000 0.090360
v 0.563894 0.494000 0.063894
v 0.590360 0.494000 0.000000
v 0.563894 0.494000 -0.063894
v 0.500000 0.494000 -0.090360
v 0.436106 0.494000 -0.063894
v 0.409640 0.494000 -0.000000
v 0.436106 0.494000 0.063894
v 0.510000 0.500000 0.089400
v 0.510000 0.436785 0.063215
v 0.510000 0.410600 0.000000
v 0.510000 0.436785 -0.063215
v 0.510000 0.500000 -0.089400
v 0.510000 0.563215 -0.063215
v 0.510000 0.589400 -0.000000
v 0.510000 0.563215 0.063215
v 0.526000 0.500000 0.088440
v 0.526000 0.437463 0.062537
v 0.526000 0.411560 0.000000
v 0.526000 0.437463 -0.062537
v 0.526000 0.500000 -0.088440
v 0.526000 0.562537 -0.062537
v 0.526000 0.588440 -0.000000
v 0.526000 0.562537 0.062537
v 0.544000 0.500000 0.087360
v 0.544000 0.438227 0.061773
v 0.544000 0.412640 0.000000
v 0.544000 0.438227 -0.061773
v 0.544000 0.500000 -0.087360
v 0.544000 0.561773 -0.061773
v 0.544000 0.587360 -0.000000
v 0.544000 0.561773 0.061773
v 0.566000 0.500000 0.086040
v 0.566000 0.439161 0.060839
v 0.566000 0.413960 0.000000
v 0.566000 0.439161 -0.060839
v 0.566000 0.500000 -0.086040
v 0.566000 0.560839 -0.060839
v 0.566000 0.586040 -0.000000
v 0.566000 0.560839 0.060839
v 0.594000 0.500000 0.084360
v 0.594000 0.440348 0.059652
v 0.594000 0.415640 0.000000
v 0.594000 0.440348 -0.059652
v 0.594000 0.500000 -0.084360
v 0.594000 0.559652 -0.059652
v 0.594000 0.584360 -0.000000
v 0.594000 0.559652 0.059652
v 0.630000 0.500000 0.082200
v 0.630000 0.441876 0.058124
v 0.630000 0.417800 0.000000
v 0.630000 0.441876 -0.058124
v 0.630000 0.500000 -0.082200
v 0.630000 0.558124 -0.058124
v 0.630000 0.582200 -0.000000
v 0.630000 0.558124 0.058124
v 0.674000 0.500000 0.079560
v 0.674000 0.443743 0.056257
v 0.674000 0.420440 0.000000
v 0.674000 0.443743 -0.056257
v 0.674000 0.500000 -0.079560
v 0.674000 0.556257 -0.056257
v 0.674000 0.579560 -0.000000
v 0.674000 0.556257 0.056257
v 0.722000 0.500000 0.076680
v 0.722000 0.445779 0.054221
v 0.722000 0.423320 0.000000
v 0.722000 0.445779 -0.054221
v 0.722000 0.500000 -0.076680
v 0.722000 0.554221 -0.054221
v 0.722000 0.576680 -0.000000
v 0.722000 0.554221 0.054221
v 0.772000 0.500000 0.073680
v 0.772000 0.447900 0.052100
v 0.772000 0.426320 0.000000
v 0.772000 0.447900 -0.052100
v 0.772000 0.500000 -0.073680
v 0.772000 0.552100 -0.052100
v 0.772000 0.573680 -0.000000
v 0.772000 0.552100 0.052100
v 0.820000 0.500000 0.070800
v 0.820000 0.449937 0.050063
v 0.820000 0.429200 0.000000
v 0.820000 0.449937 -0.050063
v 0.820000 0.500000 -0.070800
v 0.820000 0.550063 -0.050063
v 0.820000 0.570800 -0.000000
v 0.820000 0.550063 0.050063
v 0.866000 0.500000 0.068040
v 0.866000 0.451888 0.048112
v 0.866000 0.431960 0.000000
v 0.866000 0.451888 -0.048112
v 0.866000 0.500000 -0.068040
v 0.866000 0.548112 -0.048112
v 0.866000 0.568040 -0.000000
v 0.866000 0.548112 0.048112
v 0.904000 0.500000 0.065760
v 0.904000 0.453501 0.046499
v 0.904000 0.434240 0.000000
v 0.904000 0.453501 -0.046499
v 0.904000 0.500000 -0.065760
v 0.904000 0.546499 -0.046499
v 0.904000 0.565760 -0.000000
v 0.904000 0.546499 0.046499
v 0.934000 0.500000 0.063960
v 0.934000 0.454773 0.045227
v 0.934000 0.436040 0.000000
v 0.934000 0.454773 -0.045227
v 0.934000 0.500000 -0.063960
v 0.934000 0.545227 -0.045227
v 0.934000 0.563960 -0.000000
v 0.934000 0.545227 0.045227
v 0.956000 0.500000 0.062640
v 0.956000 0.455707 0.044293
v 0.956000 0.437360 0.000000
v 0.956000 0.455707 -0.044293
v 0.956000 0.500000 -0.062640
v 0.956000 0.544293 -0.044293
v 0.956000 0.562640 -0.000000
v 0.956000 0.544293 0.044293
v 0.974000 0.500000 0.061560
v 0.974000 0.456471 0.043529
v 0.974000 0.438440 0.000000
v 0.974000 0.456471 -0.043529
v 0.974000 0.500000 -0.061560
v 0.974000 0.543529 -0.043529
v 0.974000 0.561560 -0.000000
v 0.974000 0.543529 0.043529
v 0.990000 0.500000 0.060600
v 0.990000 0.457149 0.042851
v 0.990000 0.439400 0.000000
v 0.990000 0.457149 -0.042851
v 0.990000 0.500000 -0.060600
v 0.990000 0.542851 -0.042851
v 0.990000 0.560600 -0.000000
v 0.990000 0.542851 0.042851
v 1.000000 0.506000 0.059640
v 1.042172 0.506000 0.042172
v 1.059640 0.506000 0.000000
v 1.042172 0.506000 -0.042172
v 1.000000 0.506000 -0.059640
v 0.957828 0.506000 -0.042172
v 0.940360 0.506000 -0.000000
v 0.957828 0.506000 0.042172
v 1.000000 0.524000 0.058560
v 1.041408 0.524000 0.041408
v 1.058560 0.524000 0.000000
v 1.041408 0.524000 -0.041408
v 1.000000 0.524000 -0.058560
v 0.958592 0.524000 -0.041408
v 0.941440 0.524000 -0.000000
v 0.958592 0.524000 0.041408
v 1.000000 0.540000 0.057600
v 1.040729 0.540000 0.040729
v 1.057600 0.540000 0.000000
v 1.040729 0.540000 -0.040729
v 1.000000 0.540000 -0.057600
v 0.959271 0.540000 -0.040729
v 0.942400 0.540000 -0.000000
v 0.959271 0.540000 0.040729
v 1.000000 0.562000 0.056280
v 1.039796 0.562000 0.039796
v 1.056280 0.562000 0.000000
v 1.039796 0.562000 -0.039796
v 1.000000 0.562000 -0.056280
v 0.960204 0.562000 -0.039796
v 0.943720 0.562000 -0.000000
v 0.960204 0.562000 0.039796
v 1.000000 0.586000 0.054840
v 1.038778 0.586000 0.038778
v 1.054840 0.586000 0.000000
v 1.038778 0.586000 -0.038778
v 1.000000 0.586000 -0.054840
v 0.961222 0.586000 -0.038778
v 0.945160 0.586000 -0.000000
v 0.961222 0.586000 0.038778
v 1.000000 0.622000 0.052680
v 1.037250 0.622000 0.037250
v 1.052680 0.622000 0.000000
v 1.037250 0.622000 -0.037250
v 1.000000 0.622000 -0.052680
v 0.962750 0.622000 -0.037250
v 0.947320 0.622000 -0.000000
v 0.962750 0.622000 0.037250
v 1.000000 0.666000 0.050040
v 1.035384 0.666000 0.035384
v 1.050040 0.666000 0.000000
v 1.035384 0.666000 -0.035384
v 1.000000 0.666000 -0.050040
v 0.964616 0.666000 -0.035384
v 0.949960 0.666000 -0.000000
v 0.964616 0.666000 0.035384
v 1.000000 0.712000 0.047280
v 1.033432 0.712000 0.033432
v 1.047280 0.712000 0.000000
v 1.033432 0.712000 -0.033432
v 1.000000 0.712000 -0.047280
v 0.966568 0.712000 -0.033432
v 0.952720 0.712000 -0.000000
v 0.966568 0.712000 0.033432
v 1.000000 0.762000 0.044280
v 1.031311 0.762000 0.031311
v 1.044280 0.762000 0.000000
v 1.031311 0.762000 -0.031311
v 1.000000 0.762000 -0.044280
v 0.968689 0.762000 -0.031311
v 0.955720 0.762000 -0.000000
v 0.968689 0.762000 0.031311
v 1.000000 0.810000 0.041400
v 1.029274 0.810000 0.029274
v 1.041400 0.810000 0.000000
v 1.029274 0.810000 -0.029274
v 1.000000 0.810000 -0.041400
v 0.970726 0.810000 -0.029274
v 0.958600 0.810000 -0.000000
v 0.970726 0.810000 0.029274
v 1.000000 0.858000 0.038520
v 1.027238 0.858000 0.027238
v 1.038520 0.858000 0.000000
v 1.027238 0.858000 -0.027238
v 1.000000 0.858000 -0.038520
v 0.972762 0.858000 -0.027238
v 0.961480 0.858000 -0.000000
v 0.972762 0.858000 0.027238
v 1.000000 0.906000 0.035640
v 1.025201 0.906000 0.025201
v 1.035640 0.906000 0.000000
v 1.025201 0.906000 -0.025201
v 1.000000 0.906000 -0.035640
v 0.974799 0.906000 -0.025201
v 0.964360 0.906000 -0.000000
v 0.974799 0.906000 0.025201
v 1.000000 0.954000 0.032760
v 1.023165 0.954000 0.023165
v 1.032760 0.954000 0.000000
v 1.023165 0.954000 -0.023165
v 1.000000 0.954000 -0.032760
v 0.976835 0.954000 -0.023165
v 0.967240 0.954000 -0.000000
v 0.976835 0.954000 0.023165
v 1.000000 1.000000 0.029880
v 1.000000 0.978872 0.021128
v 1.000000 0.970120 0.000000
v 1.000000 0.978872 -0.021128
v 1.000000 1.000000 -0.029880
v 1.000000 1.021128 -0.021128
v 1.000000 1.029880 -0.000000
v 1.000000 1.021128 0.021128
v 0.000000 0.000000 0.000000
v 1.000000 1.000000 0.000000
g default
f 1 2 10 9
f 2 3 11 10
f 3 4 12 11
f 4 5 13 12
f 5 6 14 13
f 6 7 15 14
f 7 8 16 15
f 8 1 9 16
f 9 10 18 17
f 10 11 19 18
f 11 12 20 19
f 12 13 21 20
f 13 14 22 21
f 14 15 23 22
f 15 16 24 23
f 16 9 17 24
f 17 18 26 25
f 18 19 27 26
f 19 20 28 27
f 20 21 29 28
f 21 22 30 29
f 22 23 31 30
f 23 24 32 31
f 24 17 25 32
f 25 26 34 33
f 26 27 35 34
f 27 28 36 35
f 28 29 37 36
f 29 30 38 37
f 30 31 39 38
f 31 32 40 39
f 32 25 33 40
f 33 34 42 41
f 34 35 43 42
f 35 36 44 43
f 36 37 45 44
f 37 38 46 45
f 38 39 47 46
f 39 40 48 47
f 40 33 41 48
f 41 42 50 49
f 42 43 51 50
f 43 44 52 51
f 44 45 53 52
f 45 46 54 53
f 46 47 55 54
f 47 48 56 55
f 48 41 49 56
f 49 50 58 57
f 50 51 59 58
f 51 52 60 59
f 52 53 61 60
f 53 54 62 61
f 54 55 63 62
f 55 56 64 63
f 56 49 57 64
f 57 58 66 65
f 58 59 67 66
f 59 60 68 67
f 60 61 69 68
f 61 62 70 69
f 62 63 71 70
f 63 64 72 71
f 64 57 65 72
f 65 66 74 73
f 66 67 75 74
f 67 68 76 75
f 68 69 77 76
f 69 70 78 77
f 70 71 79 78
f 71 72 80 79
f 72 65 73 80
f 73 74 82 81
f 74 75 83 82
f 75 76 84 83
f 76 77 85 84
f 77 78 86 85
f 78 79 87 86
f 79 80 88 87
f 80 73 81 88
f 81 82 90 89
f 82 83 91 90
f 83 84 92 91
f 84 85 93 92
f 85 86 94 93
f 86 87 95 94
f 87 88 96 95
f 88 81 89 96
f 89 90 98 97
f 90 91 99 98
f 91 92 100 99
f 92 93 101 100
f 93 94 102 101
f 94 95 103 102
f 95 96 104 103
f 96 89 97 104
f 97 98 106 105
f 98 99 107 106
f 99 100 108 107
f 100 101 109 108
f 101 102 110 109
f 102 103 111 110
f 103 104 112 111
f 104 97 105 112
f 105 106 114 113
f 106 107 115 114
f 107 108 116 115
f 108 109 117 116
f 109 110 118 117
f 110 111 119 118
f 111 112 120 119
f 112 105 113 120
f 113 114 122 121
f 114 115 123 122
f 115 116 124 123
f 116 117 125 124
f 117 118 126 125
f 118 119 127 126
f 119 120 128 127
f 120 113 121 128
f 121 122 130 129
f 122 123 131 130
f 123 124 132 131
f 124 125 133 132
f 125 126 134 133
f 126 127 135 134
f 127 128 136 135
f 128 121 129 136
f 129 130 138 137
f 130 131 139 138
f 131 132 140 139
f 132 133 141 140
f 133 134 142 141
f 134 135 143 142
f 135 136 144 143
f 136 129 137 144
f 137 138 146 145
f 138 139 147 146
f 139 140 148 147
f 140 141 149 148
f 141 142 150 149
f 142 143 151 150
f 143 144 152 151
f 144 137 145 152
f 145 146 154 153
f 146 147 155 154
f 147 148 156 155
f 148 149 157 156
f 149 150 158 157
f 150 151 159 158
f 151 152 160 159
f 152 145 153 160
f 153 154 162 161
f 154 155 163 162
f 155 156 164 163
f 156 157 165 164
f 157 158 166 165
f 158 159 167 166
f 159 160 168 167
f 160 153 161 168
f 161 162 170 169
f 162 163 171 170
f 163 164 172 171
f 164 165 173 172
f 165 166 174 173
f 166 167 175 174
f 167 168 176 175
f 168 161 169 176
f 169 170 178 177
f 170 171 179 178
f 171 172 180 179
f 172 173 181 180
f 173 174 182 181
f 174 175 183 182
f 175 176 184 183
f 176 169 177 184
f 177 178 186 185
f 178 179 187 186
f 179 180 188 187
f 180 181 189 188
f 181 182 190 189
f 182 183 191 190
f 183 184 192 191
f 184 177 185 192
f 185 186 194 193
f 186 187 195 194
f 187 188 196 195
f 188 189 197 196
f 189 190 198 197
f 190 191 199 198
f 191 192 200 199
f 192 185 193 200
f 193 194 202 201
f 194 195 203 202
f 195 196 204 203
f 196 197 205 204
f 197 198 206 205
f 198 199 207 206
f 199 200 208 207
f 200 193 201 208
f 201 202 210 209
f 202 203 211 210
f 203 204 212 211
f 204 205 213 212
f 205 206 214 213
f 206 207 215 214
f 207 208 216 215
f 208 201 209 216
f 209 210 218 217
f 210 211 219 218
f 211 212 220 219
f 212 213 221 220
f 213 214 222 221
f 214 215 223 222
f 215 216 224 223
f 216 209 217 224
f 217 218 226 225
f 218 219 227 226
f 219 220 228 227
f 220 221 229 228
f 221 222 230 229
f 222 223 231 230
f 223 224 232 231
f 224 217 225 232
f 225 226 234 233
f 226 227 235 234
f 227 228 236 235
f 228 229 237 236
f 229 230 238 237
f 230 231 239 238
f 231 232 240 239
f 232 225 233 240
f 233 234 242 241
f 234 235 243 242
f 235 236 244 243
f 236 237 245 244
f 237 238 246 245
f 238 239 247 246
f 239 240 248 247
f 240 233 241 248
f 241 242 250 249
f 242 243 251 250
f 243 244 252 251
f 244 245 253 252
f 245 246 254 253
f 246 247 255 254
f 247 248 256 255
f 248 241 249 256
f 249 250 258 257
f 250 251 259 258
f 251 252 260 259
f 252 253 261 260
f 253 254 262 261
f 254 255 263 262
f 255 256 264 263
f 256 249 257 264
f 257 258 266 265
f 258 259 267 266
f 259 260 268 267
f 260 261 269 268
f 261 262 270 269
f 262 263 271 270
f 263 264 272 271
f 264 257 265 272
f 265 266 274 273
f 266 267 275 274
f 267 268 276 275
f 268 269 277 276
f 269 270 278 277
f 270 271 279 278
f 271 272 280 279
f 272 265 273 280
f 273 274 282 281
f 274 275 283 282
f 275 276 284 283
f 276 277 285 284
f 277 278 286 285
f 278 279 287 286
f 279 280 288 287
f 280 273 281 288
f 281 282 290 289
f 282 283 291 290
f 283 284 292 291
f 284 285 293 292
f 285 286 294 293
f 286 287 295 294
f 287 288 296 295
f 288 281 289 296
f 289 290 298 297
f 290 291 299 298
f 291 292 300 299
f 292 293 301 300
f 293 294 302 301
f 294 295 303 302
f 295 296 304 303
f 296 289 297 304
f 297 298 306 305
f 298 299 307 306
f 299 300 308 307
f 300 301 309 308
f 301 302 310 309
f 302 303 311 310
f 303 304 312 311
f 304 297 305 312
f 305 306 314 313
f 306 307 315 314
f 307 308 316 315
f 308 309 317 316
f 309 310 318 317
f 310 311 319 318
f 311 312 320 319
f 312 305 313 320
f 313 314 322 321
f 314 315 323 322
f 315 316 324 323
f 316 317 325 324
f 317 318 326 325
f 318 319 327 326
f 319 320 328 327
f 320 313 321 328
f 321 322 330 329
f 322 323 331 330
f 323 324 332 331
f 324 325 333 332
f 325 326 334 333
f 326 327 335 334
f 327 328 336 335
f 328 321 329 336
f 329 330 338 337
f 330 331 339 338
f 331 332 340 339
f 332 333 341 340
f 333 334 342 341
f 334 335 343 342
f 335 336 344 343
f 336 329 337 344
f 337 338 346 345
f 338 339 347 346
f 339 340 348 347
f 340 341 349 348
f 341 342 350 349
f 342 343 351 350
f 343 344 352 351
f 344 337 345 352
f 345 346 354 353
f 346 347 355 354
f 347 348 356 355
f 348 349 357 356
f 349 350 358 357
f 350 351 359 358
f 351 352 360 359
f 352 345 353 360
f 353 354 362 361
f 354 355 363 362
f 355 356 364 363
f 356 357 365 364
f 357 358 366 365
f 358 359 367 366
f 359 360 368 367
f 360 353 361 368
f 361 362 370 369
f 362 363 371 370
f 363 364 372 371
f 364 365 373 372
f 365 366 374 373
f 366 367 375 374
f 367 368 376 375
f 368 361 369 376
f 369 370 378 377
f 370 371 379 378
f 371 372 380 379
f 372 373 381 380
f 373 374 382 381
f 374 375 383 382
f 375 376 384 383
f 376 369 377 384
f 377 378 386 385
f 378 379 387 386
f 379 380 388 387
f 380 381 389 388
f 381 382 390 389
f 382 383 391 390
f 383 384 392 391
f 384 377 385 392
f 385 386 394 393
f 386 387 395 394
f 387 388 396 395
f 388 389 397 396
f 389 390 398 397
f 390 391 399 398
f 391 392 400 399
f 392 385 393 400
f 393 394 402 401
f 394 395 403 402
f 395 396 404 403
f 396 397 405 404
f 397 398 406 405
f 398 399 407 406
f 399 400 408 407
f 400 393 401 408
f 401 402 410 409
f 402 403 411 410
f 403 404 412 411
f 404 405 413 412
f 405 406 414 413
f 406 407 415 414
f 407 408 416 415
f 408 401 409 416
f 409 410 418 417
f 410 411 419 418
f 411 412 420 419
f 412 413 421 420
f 413 414 422 421
f 414 415 423 422
f 415 416 424 423
f 416 409 417 424
f 417 418 426 425
f 418 419 427 426
f 419 420 428 427
f 420 421 429 428
f 421 422 430 429
f 422 423 431 430
f 423 424 432 431
f 424 417 425 432
f 425 426 434 433
f 426 427 435 434
f 427 428 436 435
f 428 429 437 436
f 429 430 438 437
f 430 431 439 438
f 431 432 440 439
f 432 425 433 440
f 433 434 442 441
f 434 435 443 442
f 435 436 444 443
f 436 437 445 444
f 437 438 446 445
f 438 439 447 446
f 439 440 448 447
f 440 433 441 448
f 441 442 450 449
f 442 443 451 450
f 443 444 452 451
f 444 445 453 452
f 445 446 454 453
f 446 447 455 454
f 447 448 456 455
f 448 441 449 456
f 449 450 458 457
f 450 451 459 458
f 451 452 460 459
f 452 453 461 460
f 453 454 462 461
f 454 455 463 462
f 455 456 464 463
f 456 449 457 464
f 457 458 466 465
f 458 459 467 466
f 459 460 468 467
f 460 461 469 468
f 461 462 470 469
f 462 463 471 470
f 463 464 472 471
f 464 457 465 472
f 465 466 474 473
f 466 467 475 474
f 467 468 476 475
f 468 469 477 476
f 469 470 478 477
f 470 471 479 478
f 471 472 480 479
f 472 465 473 480
f 481 2 1
f 481 3 2
f 481 4 3
f 481 5 4
f 481 6 5
f 481 7 6
f 481 8 7
f 481 1 8
f 482 473 474
f 482 474 475
f 482 475 476
f 482 476 477
f 482 477 478
f 482 478 479
f 482 479 480
f 482 480 473
