ISO-10303-21;
HEADER;
FILE_DESCRIPTION(('ViewDefinition [CoordinationView]'),'2;1');
FILE_NAME('','2026-05-22T00:41:41',(''),(''),'IfcOpenShell 0.8.5-1c5b825','IfcOpenShell 0.8.5-1c5b825','');
FILE_SCHEMA(('IFC4'));
ENDSEC;
DATA;
#1=IFCPROJECT('0SvTn2lhnDcvQkc9cm$vVa',$,'Add Roof to Utility Building',$,$,$,$,(#10),#5);
#2=IFCSIUNIT(*,.LENGTHUNIT.,.MILLI.,.METRE.);
#3=IFCSIUNIT(*,.AREAUNIT.,$,.SQUARE_METRE.);
#4=IFCSIUNIT(*,.VOLUMEUNIT.,$,.CUBIC_METRE.);
#5=IFCUNITASSIGNMENT((#3,#4,#2));
#6=IFCCARTESIANPOINT((0.,0.,0.));
#7=IFCDIRECTION((0.,0.,1.));
#8=IFCDIRECTION((1.,0.,0.));
#9=IFCAXIS2PLACEMENT3D(#6,#7,#8);
#10=IFCGEOMETRICREPRESENTATIONCONTEXT($,'Model',3,1.0000000000000001E-05,#9,$);
#11=IFCGEOMETRICREPRESENTATIONSUBCONTEXT('Body','Model',*,*,*,*,#10,$,.MODEL_VIEW.,$);
#12=IFCSITE('19gmhSj1b5XxxbaB8RRzNm',$,'Default Site',$,$,$,$,$,$,$,$,$,$,$);
#13=IFCBUILDING('0c45PcRa51AhwuI_cMqurI',$,'Simple Building',$,$,$,$,$,$,$,$,$);
#14=IFCRELAGGREGATES('1L$sC6LDLFUPq4zPMJxJ3C',$,$,$,#1,(#12));
#15=IFCRELAGGREGATES('2vGIMk$ADAbv2$qtuR5LMQ',$,$,$,#12,(#13));
#16=IFCBUILDINGSTOREY('2xWq9LxjT3MPknPCy2d7Nz',$,'Ground Floor',$,$,#22,$,$,$,$);
#17=IFCRELAGGREGATES('2RzfS4zFj36Qx$cZ2A1GmC',$,$,$,#13,(#16));
#18=IFCCARTESIANPOINT((0.,0.,0.));
#19=IFCDIRECTION((0.,0.,1.));
#20=IFCDIRECTION((1.,0.,0.));
#21=IFCAXIS2PLACEMENT3D(#18,#19,#20);
#22=IFCLOCALPLACEMENT($,#21);
#23=IFCWALL('2vLkcLoC5EUOMusKNwWf6$',$,'Exterior Wall 1',$,$,#45,#34,$,$);
#24=IFCCARTESIANPOINTLIST2D(((0.,0.),(0.,200.),(8000.,200.),(8000.,0.),(0.,0.)));
#25=IFCINDEXEDPOLYCURVE(#24,$,.F.);
#26=IFCDIRECTION((0.,0.,1.));
#27=IFCARBITRARYCLOSEDPROFILEDEF(.AREA.,$,#25);
#28=IFCCARTESIANPOINT((0.,0.,0.));
#29=IFCDIRECTION((0.,0.,1.));
#30=IFCDIRECTION((1.,0.,0.));
#31=IFCAXIS2PLACEMENT3D(#28,#29,#30);
#32=IFCEXTRUDEDAREASOLID(#27,#31,#26,3000.);
#33=IFCSHAPEREPRESENTATION(#11,'Body','SweptSolid',(#32));
#34=IFCPRODUCTDEFINITIONSHAPE($,$,(#33));
#40=IFCRELCONTAINEDINSPATIALSTRUCTURE('1j1SfNXaHE9uA6RsPFer6e',$,$,$,(#90,#152,#255,#68,#134,#170,#340,#112,#23,#46),#16);
#41=IFCCARTESIANPOINT((0.,0.,0.));
#42=IFCDIRECTION((0.,0.,1.));
#43=IFCDIRECTION((1.,0.,0.));
#44=IFCAXIS2PLACEMENT3D(#41,#42,#43);
#45=IFCLOCALPLACEMENT(#22,#44);
#46=IFCWALL('1H97vNfhb7cAvLveqM7UFj',$,'Exterior Wall 2',$,$,#67,#57,$,$);
#47=IFCCARTESIANPOINTLIST2D(((0.,0.),(0.,200.),(8000.,200.),(8000.,0.),(0.,0.)));
#48=IFCINDEXEDPOLYCURVE(#47,$,.F.);
#49=IFCDIRECTION((0.,0.,1.));
#50=IFCARBITRARYCLOSEDPROFILEDEF(.AREA.,$,#48);
#51=IFCCARTESIANPOINT((0.,0.,0.));
#52=IFCDIRECTION((0.,0.,1.));
#53=IFCDIRECTION((1.,0.,0.));
#54=IFCAXIS2PLACEMENT3D(#51,#52,#53);
#55=IFCEXTRUDEDAREASOLID(#50,#54,#49,3000.);
#56=IFCSHAPEREPRESENTATION(#11,'Body','SweptSolid',(#55));
#57=IFCPRODUCTDEFINITIONSHAPE($,$,(#56));
#63=IFCCARTESIANPOINT((0.,5000.,0.));
#64=IFCDIRECTION((0.,0.,1.));
#65=IFCDIRECTION((1.,0.,0.));
#66=IFCAXIS2PLACEMENT3D(#63,#64,#65);
#67=IFCLOCALPLACEMENT(#22,#66);
#68=IFCWALL('22DEKuhhnA0BL$wShuYfVi',$,'Exterior Wall 3',$,$,#89,#79,$,$);
#69=IFCCARTESIANPOINTLIST2D(((0.,0.),(0.,200.),(5000.,200.),(5000.,0.),(0.,0.)));
#70=IFCINDEXEDPOLYCURVE(#69,$,.F.);
#71=IFCDIRECTION((0.,0.,1.));
#72=IFCARBITRARYCLOSEDPROFILEDEF(.AREA.,$,#70);
#73=IFCCARTESIANPOINT((0.,0.,0.));
#74=IFCDIRECTION((0.,0.,1.));
#75=IFCDIRECTION((1.,0.,0.));
#76=IFCAXIS2PLACEMENT3D(#73,#74,#75);
#77=IFCEXTRUDEDAREASOLID(#72,#76,#71,3000.);
#78=IFCSHAPEREPRESENTATION(#11,'Body','SweptSolid',(#77));
#79=IFCPRODUCTDEFINITIONSHAPE($,$,(#78));
#85=IFCCARTESIANPOINT((0.,0.,0.));
#86=IFCDIRECTION((0.,0.,1.));
#87=IFCDIRECTION((6.123233995736766E-17,1.,0.));
#88=IFCAXIS2PLACEMENT3D(#85,#86,#87);
#89=IFCLOCALPLACEMENT(#22,#88);
#90=IFCWALL('1$ZHxGXoD4xujqANiYvpeR',$,'Exterior Wall 4',$,$,#111,#101,$,$);
#91=IFCCARTESIANPOINTLIST2D(((0.,0.),(0.,200.),(5000.,200.),(5000.,0.),(0.,0.)));
#92=IFCINDEXEDPOLYCURVE(#91,$,.F.);
#93=IFCDIRECTION((0.,0.,1.));
#94=IFCARBITRARYCLOSEDPROFILEDEF(.AREA.,$,#92);
#95=IFCCARTESIANPOINT((0.,0.,0.));
#96=IFCDIRECTION((0.,0.,1.));
#97=IFCDIRECTION((1.,0.,0.));
#98=IFCAXIS2PLACEMENT3D(#95,#96,#97);
#99=IFCEXTRUDEDAREASOLID(#94,#98,#93,3000.);
#100=IFCSHAPEREPRESENTATION(#11,'Body','SweptSolid',(#99));
#101=IFCPRODUCTDEFINITIONSHAPE($,$,(#100));
#107=IFCCARTESIANPOINT((8000.,0.,0.));
#108=IFCDIRECTION((0.,0.,1.));
#109=IFCDIRECTION((6.123233995736766E-17,1.,0.));
#110=IFCAXIS2PLACEMENT3D(#107,#108,#109);
#111=IFCLOCALPLACEMENT(#22,#110);
#112=IFCWALL('1Og7i9bTv4LvT6TgVzU057',$,'Interior Partition 1',$,$,#133,#123,$,$);
#113=IFCCARTESIANPOINTLIST2D(((0.,0.),(0.,120.),(4600.,120.),(4600.,0.),(0.,0.)));
#114=IFCINDEXEDPOLYCURVE(#113,$,.F.);
#115=IFCDIRECTION((0.,0.,1.));
#116=IFCARBITRARYCLOSEDPROFILEDEF(.AREA.,$,#114);
#117=IFCCARTESIANPOINT((0.,0.,0.));
#118=IFCDIRECTION((0.,0.,1.));
#119=IFCDIRECTION((1.,0.,0.));
#120=IFCAXIS2PLACEMENT3D(#117,#118,#119);
#121=IFCEXTRUDEDAREASOLID(#116,#120,#115,3000.);
#122=IFCSHAPEREPRESENTATION(#11,'Body','SweptSolid',(#121));
#123=IFCPRODUCTDEFINITIONSHAPE($,$,(#122));
#129=IFCCARTESIANPOINT((4000.,200.,0.));
#130=IFCDIRECTION((0.,0.,1.));
#131=IFCDIRECTION((6.123233995736766E-17,1.,0.));
#132=IFCAXIS2PLACEMENT3D(#129,#130,#131);
#133=IFCLOCALPLACEMENT(#22,#132);
#134=IFCSLAB('3HVZuQWd5DDvbBYX7IVQtM',$,'Floor Slab 1',$,$,#151,#141,$,$);
#135=IFCCARTESIANPOINTLIST2D(((0.,0.),(8000.,0.),(8000.,5000.),(0.,5000.),(0.,0.)));
#136=IFCINDEXEDPOLYCURVE(#135,$,$);
#137=IFCDIRECTION((0.,0.,1.));
#138=IFCARBITRARYCLOSEDPROFILEDEF(.AREA.,$,#136);
#139=IFCEXTRUDEDAREASOLID(#138,$,#137,200.);
#140=IFCSHAPEREPRESENTATION(#11,'Body','SweptSolid',(#139));
#141=IFCPRODUCTDEFINITIONSHAPE($,$,(#140));
#147=IFCCARTESIANPOINT((0.,0.,0.));
#148=IFCDIRECTION((0.,0.,1.));
#149=IFCDIRECTION((1.,0.,0.));
#150=IFCAXIS2PLACEMENT3D(#147,#148,#149);
#151=IFCLOCALPLACEMENT(#22,#150);
#152=IFCROOF('2DHLTZJwTCV9KkLJ3Zuq1N',$,'Simple Roof 1',$,$,#169,#159,$,$);
#153=IFCCARTESIANPOINTLIST2D(((0.,0.),(8000.,0.),(8000.,5000.),(0.,5000.),(0.,0.)));
#154=IFCINDEXEDPOLYCURVE(#153,$,$);
#155=IFCDIRECTION((0.,0.,1.));
#156=IFCARBITRARYCLOSEDPROFILEDEF(.AREA.,$,#154);
#157=IFCEXTRUDEDAREASOLID(#156,$,#155,180.);
#158=IFCSHAPEREPRESENTATION(#11,'Body','SweptSolid',(#157));
#159=IFCPRODUCTDEFINITIONSHAPE($,$,(#158));
#165=IFCCARTESIANPOINT((0.,0.,3150.));
#166=IFCDIRECTION((0.,0.,1.));
#167=IFCDIRECTION((1.,0.,0.));
#168=IFCAXIS2PLACEMENT3D(#165,#166,#167);
#169=IFCLOCALPLACEMENT(#22,#168);
#170=IFCDOOR('1ZNOiZZ_nEGPUSwy53HnRA',$,'Door 1',$,$,#254,#244,$,$,$,$,$,$);
#171=IFCCARTESIANPOINTLIST2D(((0.,0.),(0.,2.1000000000000001),(0.90000000000000002,2.1000000000000001),(0.90000000000000002,0.),(-24.100000000000001,0.),(-24.100000000000001,-22.899999999999999),(25.,-22.899999999999999),(25.,0.)));
#172=IFCINDEXEDPOLYCURVE(#171,(IFCLINEINDEX((1,2,3,4,5,6,7,8,1))),$);
#173=IFCARBITRARYCLOSEDPROFILEDEF(.AREA.,$,#172);
#174=IFCCARTESIANPOINT((0.,25.,0.));
#175=IFCDIRECTION((0.,-1.,0.));
#176=IFCDIRECTION((1.,0.,0.));
#177=IFCAXIS2PLACEMENT3D(#174,#175,#176);
#178=IFCDIRECTION((0.,0.,-1.));
#179=IFCEXTRUDEDAREASOLID(#173,#177,#178,25.);
#180=IFCCARTESIANPOINTLIST2D(((0.,0.),(0.,2.1000000000000001),(0.90000000000000002,2.1000000000000001),(0.90000000000000002,0.),(-49.100000000000001,0.),(-49.100000000000001,-47.899999999999999),(50.,-47.899999999999999),(50.,0.)));
#181=IFCINDEXEDPOLYCURVE(#180,(IFCLINEINDEX((1,2,3,4,5,6,7,8,1))),$);
#182=IFCARBITRARYCLOSEDPROFILEDEF(.AREA.,$,#181);
#183=IFCCARTESIANPOINT((0.,0.,0.));
#184=IFCDIRECTION((0.,-1.,0.));
#185=IFCDIRECTION((1.,0.,0.));
#186=IFCAXIS2PLACEMENT3D(#183,#184,#185);
#187=IFCDIRECTION((0.,0.,-1.));
#188=IFCEXTRUDEDAREASOLID(#182,#186,#187,25.);
#189=IFCCARTESIANPOINTLIST2D(((0.,0.),(-99.099999999999994,0.),(-99.099999999999994,100.),(0.,100.)));
#190=IFCINDEXEDPOLYCURVE(#189,(IFCLINEINDEX((1,2,3,4,1))),$);
#191=IFCARBITRARYCLOSEDPROFILEDEF(.AREA.,$,#190);
#192=IFCCARTESIANPOINT((50.,0.,0.));
#193=IFCDIRECTION((0.,0.,1.));
#194=IFCDIRECTION((1.,0.,0.));
#195=IFCAXIS2PLACEMENT3D(#192,#193,#194);
#196=IFCDIRECTION((0.,0.,1.));
#197=IFCEXTRUDEDAREASOLID(#191,#195,#196,25.);
#198=IFCCARTESIANPOINTLIST2D(((0.,0.),(0.,27.100000000000001),(50.899999999999999,27.100000000000001),(50.899999999999999,0.),(-24.100000000000001,0.),(-24.100000000000001,-47.899999999999999),(75.,-47.899999999999999),(75.,0.)));
#199=IFCINDEXEDPOLYCURVE(#198,(IFCLINEINDEX((1,2,3,4,5,6,7,8,1))),$);
#200=IFCARBITRARYCLOSEDPROFILEDEF(.AREA.,$,#199);
#201=IFCCARTESIANPOINT((-25.,-5.,0.));
#202=IFCDIRECTION((0.,-1.,0.));
#203=IFCDIRECTION((1.,0.,0.));
#204=IFCAXIS2PLACEMENT3D(#201,#202,#203);
#205=IFCDIRECTION((0.,0.,-1.));
#206=IFCEXTRUDEDAREASOLID(#200,#204,#205,5.);
#207=IFCCARTESIANPOINTLIST2D(((0.,0.),(0.,27.100000000000001),(50.899999999999999,27.100000000000001),(50.899999999999999,0.),(0.89999999999999858,0.),(0.89999999999999858,-22.899999999999999),(50.,-22.899999999999999),(50.,0.)));
#208=IFCINDEXEDPOLYCURVE(#207,(IFCLINEINDEX((1,2,3,4,5,6,7,8,1))),$);
#209=IFCARBITRARYCLOSEDPROFILEDEF(.AREA.,$,#208);
#210=IFCCARTESIANPOINT((-25.,50.,0.));
#211=IFCDIRECTION((0.,-1.,0.));
#212=IFCDIRECTION((1.,0.,0.));
#213=IFCAXIS2PLACEMENT3D(#210,#211,#212);
#214=IFCDIRECTION((0.,0.,-1.));
#215=IFCEXTRUDEDAREASOLID(#209,#213,#214,5.);
#216=IFCCARTESIANPOINTLIST2D(((0.,0.),(-49.100000000000001,0.),(-49.100000000000001,35.),(0.,35.)));
#217=IFCINDEXEDPOLYCURVE(#216,(IFCLINEINDEX((1,2,3,4,1))),$);
#218=IFCARBITRARYCLOSEDPROFILEDEF(.AREA.,$,#217);
#219=IFCCARTESIANPOINT((25.,25.,25.));
#220=IFCDIRECTION((0.,0.,1.));
#221=IFCDIRECTION((1.,0.,0.));
#222=IFCAXIS2PLACEMENT3D(#219,#220,#221);
#223=IFCDIRECTION((0.,0.,1.));
#224=IFCEXTRUDEDAREASOLID(#218,#222,#223,-47.899999999999999);
#225=IFCCARTESIANPOINTLIST2D(((0.,0.),(0.,-40.),(-120.00000000000003,-40.),(-120.00000000000003,-20.),(-20.,-20.),(-20.,0.)));
#226=IFCINDEXEDPOLYCURVE(#225,(IFCLINEINDEX((1,2,3,4,5,6,1))),$);
#227=IFCARBITRARYCLOSEDPROFILEDEF(.AREA.,$,#226);
#228=IFCCARTESIANPOINT((-74.099999999999994,25.,1015.));
#229=IFCDIRECTION((0.,0.,1.));
#230=IFCDIRECTION((1.,0.,0.));
#231=IFCAXIS2PLACEMENT3D(#228,#229,#230);
#232=IFCDIRECTION((0.,0.,1.));
#233=IFCEXTRUDEDAREASOLID(#227,#231,#232,20.);
#234=IFCEXTRUDEDAREASOLID(#235,#238,#242,20.);
#235=IFCARBITRARYCLOSEDPROFILEDEF(.AREA.,$,#236);
#236=IFCINDEXEDPOLYCURVE(#237,(IFCLINEINDEX((1,2,3,4,5,6,1))),$);
#237=IFCCARTESIANPOINTLIST2D(((0.,0.),(0.,40.),(-120.00000000000003,40.),(-120.00000000000003,20.),(-20.,20.),(-20.,0.)));
#238=IFCAXIS2PLACEMENT3D(#239,#240,#241);
#239=IFCCARTESIANPOINT((-74.099999999999994,60.,1015.));
#240=IFCDIRECTION((0.,0.,1.));
#241=IFCDIRECTION((1.,0.,0.));
#242=IFCDIRECTION((0.,0.,1.));
#243=IFCSHAPEREPRESENTATION(#11,'Body','SweptSolid',(#179,#188,#224,#233,#234,#197,#206,#215));
#244=IFCPRODUCTDEFINITIONSHAPE($,$,(#243));
#250=IFCCARTESIANPOINT((800.,-50.,0.));
#251=IFCDIRECTION((0.,0.,1.));
#252=IFCDIRECTION((1.,0.,0.));
#253=IFCAXIS2PLACEMENT3D(#250,#251,#252);
#254=IFCLOCALPLACEMENT(#22,#253);
#255=IFCDOOR('1SXOq8y_XCngMpxxnuL8PW',$,'Door 2',$,$,#339,#329,$,$,$,$,$,$);
#256=IFCCARTESIANPOINTLIST2D(((0.,0.),(0.,2.1000000000000001),(0.90000000000000002,2.1000000000000001),(0.90000000000000002,0.),(-24.100000000000001,0.),(-24.100000000000001,-22.899999999999999),(25.,-22.899999999999999),(25.,0.)));
#257=IFCINDEXEDPOLYCURVE(#256,(IFCLINEINDEX((1,2,3,4,5,6,7,8,1))),$);
#258=IFCARBITRARYCLOSEDPROFILEDEF(.AREA.,$,#257);
#259=IFCCARTESIANPOINT((0.,25.,0.));
#260=IFCDIRECTION((0.,-1.,0.));
#261=IFCDIRECTION((1.,0.,0.));
#262=IFCAXIS2PLACEMENT3D(#259,#260,#261);
#263=IFCDIRECTION((0.,0.,-1.));
#264=IFCEXTRUDEDAREASOLID(#258,#262,#263,25.);
#265=IFCCARTESIANPOINTLIST2D(((0.,0.),(0.,2.1000000000000001),(0.90000000000000002,2.1000000000000001),(0.90000000000000002,0.),(-49.100000000000001,0.),(-49.100000000000001,-47.899999999999999),(50.,-47.899999999999999),(50.,0.)));
#266=IFCINDEXEDPOLYCURVE(#265,(IFCLINEINDEX((1,2,3,4,5,6,7,8,1))),$);
#267=IFCARBITRARYCLOSEDPROFILEDEF(.AREA.,$,#266);
#268=IFCCARTESIANPOINT((0.,0.,0.));
#269=IFCDIRECTION((0.,-1.,0.));
#270=IFCDIRECTION((1.,0.,0.));
#271=IFCAXIS2PLACEMENT3D(#268,#269,#270);
#272=IFCDIRECTION((0.,0.,-1.));
#273=IFCEXTRUDEDAREASOLID(#267,#271,#272,25.);
#274=IFCCARTESIANPOINTLIST2D(((0.,0.),(-99.099999999999994,0.),(-99.099999999999994,100.),(0.,100.)));
#275=IFCINDEXEDPOLYCURVE(#274,(IFCLINEINDEX((1,2,3,4,1))),$);
#276=IFCARBITRARYCLOSEDPROFILEDEF(.AREA.,$,#275);
#277=IFCCARTESIANPOINT((50.,0.,0.));
#278=IFCDIRECTION((0.,0.,1.));
#279=IFCDIRECTION((1.,0.,0.));
#280=IFCAXIS2PLACEMENT3D(#277,#278,#279);
#281=IFCDIRECTION((0.,0.,1.));
#282=IFCEXTRUDEDAREASOLID(#276,#280,#281,25.);
#283=IFCCARTESIANPOINTLIST2D(((0.,0.),(0.,27.100000000000001),(50.899999999999999,27.100000000000001),(50.899999999999999,0.),(-24.100000000000001,0.),(-24.100000000000001,-47.899999999999999),(75.,-47.899999999999999),(75.,0.)));
#284=IFCINDEXEDPOLYCURVE(#283,(IFCLINEINDEX((1,2,3,4,5,6,7,8,1))),$);
#285=IFCARBITRARYCLOSEDPROFILEDEF(.AREA.,$,#284);
#286=IFCCARTESIANPOINT((-25.,-5.,0.));
#287=IFCDIRECTION((0.,-1.,0.));
#288=IFCDIRECTION((1.,0.,0.));
#289=IFCAXIS2PLACEMENT3D(#286,#287,#288);
#290=IFCDIRECTION((0.,0.,-1.));
#291=IFCEXTRUDEDAREASOLID(#285,#289,#290,5.);
#292=IFCCARTESIANPOINTLIST2D(((0.,0.),(0.,27.100000000000001),(50.899999999999999,27.100000000000001),(50.899999999999999,0.),(0.89999999999999858,0.),(0.89999999999999858,-22.899999999999999),(50.,-22.899999999999999),(50.,0.)));
#293=IFCINDEXEDPOLYCURVE(#292,(IFCLINEINDEX((1,2,3,4,5,6,7,8,1))),$);
#294=IFCARBITRARYCLOSEDPROFILEDEF(.AREA.,$,#293);
#295=IFCCARTESIANPOINT((-25.,50.,0.));
#296=IFCDIRECTION((0.,-1.,0.));
#297=IFCDIRECTION((1.,0.,0.));
#298=IFCAXIS2PLACEMENT3D(#295,#296,#297);
#299=IFCDIRECTION((0.,0.,-1.));
#300=IFCEXTRUDEDAREASOLID(#294,#298,#299,5.);
#301=IFCCARTESIANPOINTLIST2D(((0.,0.),(-49.100000000000001,0.),(-49.100000000000001,35.),(0.,35.)));
#302=IFCINDEXEDPOLYCURVE(#301,(IFCLINEINDEX((1,2,3,4,1))),$);
#303=IFCARBITRARYCLOSEDPROFILEDEF(.AREA.,$,#302);
#304=IFCCARTESIANPOINT((25.,25.,25.));
#305=IFCDIRECTION((0.,0.,1.));
#306=IFCDIRECTION((1.,0.,0.));
#307=IFCAXIS2PLACEMENT3D(#304,#305,#306);
#308=IFCDIRECTION((0.,0.,1.));
#309=IFCEXTRUDEDAREASOLID(#303,#307,#308,-47.899999999999999);
#310=IFCCARTESIANPOINTLIST2D(((0.,0.),(0.,-40.),(-120.00000000000003,-40.),(-120.00000000000003,-20.),(-20.,-20.),(-20.,0.)));
#311=IFCINDEXEDPOLYCURVE(#310,(IFCLINEINDEX((1,2,3,4,5,6,1))),$);
#312=IFCARBITRARYCLOSEDPROFILEDEF(.AREA.,$,#311);
#313=IFCCARTESIANPOINT((-74.099999999999994,25.,1015.));
#314=IFCDIRECTION((0.,0.,1.));
#315=IFCDIRECTION((1.,0.,0.));
#316=IFCAXIS2PLACEMENT3D(#313,#314,#315);
#317=IFCDIRECTION((0.,0.,1.));
#318=IFCEXTRUDEDAREASOLID(#312,#316,#317,20.);
#319=IFCEXTRUDEDAREASOLID(#320,#323,#327,20.);
#320=IFCARBITRARYCLOSEDPROFILEDEF(.AREA.,$,#321);
#321=IFCINDEXEDPOLYCURVE(#322,(IFCLINEINDEX((1,2,3,4,5,6,1))),$);
#322=IFCCARTESIANPOINTLIST2D(((0.,0.),(0.,40.),(-120.00000000000003,40.),(-120.00000000000003,20.),(-20.,20.),(-20.,0.)));
#323=IFCAXIS2PLACEMENT3D(#324,#325,#326);
#324=IFCCARTESIANPOINT((-74.099999999999994,60.,1015.));
#325=IFCDIRECTION((0.,0.,1.));
#326=IFCDIRECTION((1.,0.,0.));
#327=IFCDIRECTION((0.,0.,1.));
#328=IFCSHAPEREPRESENTATION(#11,'Body','SweptSolid',(#264,#273,#309,#318,#319,#282,#291,#300));
#329=IFCPRODUCTDEFINITIONSHAPE($,$,(#328));
#335=IFCCARTESIANPOINT((1700.0000000000002,-50.,0.));
#336=IFCDIRECTION((0.,0.,1.));
#337=IFCDIRECTION((1.,0.,0.));
#338=IFCAXIS2PLACEMENT3D(#335,#336,#337);
#339=IFCLOCALPLACEMENT(#22,#338);
#340=IFCWINDOW('1SZ9Ymzlr5$BgXZXZpa8$K',$,'Window 1',$,$,#394,#384,$,$,$,$,$,$);
#341=IFCCARTESIANPOINTLIST2D(((0.,0.),(1.2,0.),(1.2,1.1000000000000001),(0.,1.1000000000000001)));
#342=IFCINDEXEDPOLYCURVE(#341,(IFCLINEINDEX((1,2,3,4,1))),$);
#343=IFCCARTESIANPOINTLIST2D(((25.,25.),(-23.799999999999997,25.),(-23.799999999999997,-23.899999999999999),(25.,-23.899999999999999)));
#344=IFCINDEXEDPOLYCURVE(#343,(IFCLINEINDEX((1,2,3,4,1))),$);
#345=IFCARBITRARYPROFILEDEFWITHVOIDS(.AREA.,$,#342,(#344));
#346=IFCCARTESIANPOINT((0.,90.,0.));
#347=IFCDIRECTION((0.,-1.,0.));
#348=IFCDIRECTION((1.,0.,0.));
#349=IFCAXIS2PLACEMENT3D(#346,#347,#348);
#350=IFCDIRECTION((0.,0.,-1.));
#351=IFCEXTRUDEDAREASOLID(#345,#349,#350,10.);
#352=IFCCARTESIANPOINTLIST2D(((0.,0.),(1.2,0.),(1.2,1.1000000000000001),(0.,1.1000000000000001)));
#353=IFCINDEXEDPOLYCURVE(#352,(IFCLINEINDEX((1,2,3,4,1))),$);
#354=IFCCARTESIANPOINTLIST2D(((50.,50.),(-48.799999999999997,50.),(-48.799999999999997,-48.900000000000006),(50.,-48.900000000000006)));
#355=IFCINDEXEDPOLYCURVE(#354,(IFCLINEINDEX((1,2,3,4,1))),$);
#356=IFCARBITRARYPROFILEDEFWITHVOIDS(.AREA.,$,#353,(#355));
#357=IFCCARTESIANPOINT((0.,50.,0.));
#358=IFCDIRECTION((0.,-1.,0.));
#359=IFCDIRECTION((1.,0.,0.));
#360=IFCAXIS2PLACEMENT3D(#357,#358,#359);
#361=IFCDIRECTION((0.,0.,-1.));
#362=IFCEXTRUDEDAREASOLID(#356,#360,#361,40.);
#363=IFCCARTESIANPOINTLIST2D(((0.,0.),(-48.799999999999997,0.),(-48.799999999999997,-48.899999999999999),(0.,-48.899999999999999)));
#364=IFCINDEXEDPOLYCURVE(#363,(IFCLINEINDEX((1,2,3,4,1))),$);
#365=IFCCARTESIANPOINTLIST2D(((35.,35.),(-83.799999999999997,35.),(-83.799999999999997,-83.900000000000006),(35.,-83.900000000000006)));
#366=IFCINDEXEDPOLYCURVE(#365,(IFCLINEINDEX((1,2,3,4,1))),$);
#367=IFCARBITRARYPROFILEDEFWITHVOIDS(.AREA.,$,#364,(#366));
#368=IFCCARTESIANPOINT((25.,90.,25.));
#369=IFCDIRECTION((0.,-1.,0.));
#370=IFCDIRECTION((1.,0.,0.));
#371=IFCAXIS2PLACEMENT3D(#368,#369,#370);
#372=IFCDIRECTION((0.,0.,-1.));
#373=IFCEXTRUDEDAREASOLID(#367,#371,#372,35.);
#374=IFCINDEXEDPOLYCURVE(#375,(IFCLINEINDEX((1,2,3,4,1))),$);
#375=IFCCARTESIANPOINTLIST2D(((35.,35.),(-83.799999999999997,35.),(-83.799999999999997,-83.900000000000006),(35.,-83.900000000000006)));
#376=IFCARBITRARYCLOSEDPROFILEDEF(.AREA.,$,#374);
#377=IFCCARTESIANPOINT((25.,102.5,25.));
#378=IFCDIRECTION((0.,-1.,0.));
#379=IFCDIRECTION((1.,0.,0.));
#380=IFCAXIS2PLACEMENT3D(#377,#378,#379);
#381=IFCDIRECTION((0.,0.,-1.));
#382=IFCEXTRUDEDAREASOLID(#376,#380,#381,10.);
#383=IFCSHAPEREPRESENTATION(#11,'Body','SweptSolid',(#351,#362,#373,#382));
#384=IFCPRODUCTDEFINITIONSHAPE($,$,(#383));
#390=IFCCARTESIANPOINT((1200.,5050.,1100.));
#391=IFCDIRECTION((0.,0.,1.));
#392=IFCDIRECTION((1.,0.,0.));
#393=IFCAXIS2PLACEMENT3D(#390,#391,#392);
#394=IFCLOCALPLACEMENT(#22,#393);
#395=IFCSPACE('0LcPslgPX06Odtfb3T9vU7',$,'UTILITY',$,$,#408,#403,$,$,$,$);
#396=IFCRELAGGREGATES('1jJsnE5xP8_hTZD$H$MBQo',$,$,$,#16,(#395,#409));
#397=IFCCARTESIANPOINTLIST2D(((0.,0.),(3750.,0.),(3750.,4750.),(0.,4750.),(0.,0.)));
#398=IFCINDEXEDPOLYCURVE(#397,$,$);
#399=IFCDIRECTION((0.,0.,1.));
#400=IFCARBITRARYCLOSEDPROFILEDEF(.AREA.,$,#398);
#401=IFCEXTRUDEDAREASOLID(#400,$,#399,2799.9999999999995);
#402=IFCSHAPEREPRESENTATION(#11,'Body','SweptSolid',(#401));
#403=IFCPRODUCTDEFINITIONSHAPE($,$,(#402));
#404=IFCCARTESIANPOINT((100.,100.,0.));
#405=IFCDIRECTION((0.,0.,1.));
#406=IFCDIRECTION((1.,0.,0.));
#407=IFCAXIS2PLACEMENT3D(#404,#405,#406);
#408=IFCLOCALPLACEMENT(#22,#407);
#409=IFCSPACE('3eThaxqf1EFuVTbRqvFT9P',$,'STORE',$,$,#421,#416,$,$,$,$);
#410=IFCCARTESIANPOINTLIST2D(((0.,0.),(3750.,0.),(3750.,4750.),(0.,4750.),(0.,0.)));
#411=IFCINDEXEDPOLYCURVE(#410,$,$);
#412=IFCDIRECTION((0.,0.,1.));
#413=IFCARBITRARYCLOSEDPROFILEDEF(.AREA.,$,#411);
#414=IFCEXTRUDEDAREASOLID(#413,$,#412,2799.9999999999995);
#415=IFCSHAPEREPRESENTATION(#11,'Body','SweptSolid',(#414));
#416=IFCPRODUCTDEFINITIONSHAPE($,$,(#415));
#417=IFCCARTESIANPOINT((4100.,100.,0.));
#418=IFCDIRECTION((0.,0.,1.));
#419=IFCDIRECTION((1.,0.,0.));
#420=IFCAXIS2PLACEMENT3D(#417,#418,#419);
#421=IFCLOCALPLACEMENT(#22,#420);
ENDSEC;
END-ISO-10303-21;
