  0
SECTION
  2
HEADER
  9
$ACADVER
  1
AC1009
  9
$INSBASE
 10
0.0
 20
0.0
 30
0.0
  9
$EXTMIN
 10
0.0
 20
0.0
 30
0.0
  9
$EXTMAX
 10
0.0
 20
0.0
 30
0.0
  0
ENDSEC
  0
SECTION
  2
TABLES
  0
TABLE
  2
VPORT
 70
0
  0
ENDTAB
  0
TABLE
  2
LTYPE
 70
1
  0
LTYPE
  2
CONTINUOUS
 70
0
  3
Solid line
 72
65
 73
0
 40
0.0
  0
ENDTAB
  0
TABLE
  2
LAYER
 70
1
  0
LAYER
  2
0
 70
64
 62
7
  6
continuous
  0
ENDTAB
  0
TABLE
  2
STYLE
 70
1
  0
STYLE
  2
STANDARD
 70
0
 40
0
 41
1.0
 50
0.0
 71
0
 42
1
 3
ARIAL.TTF
 4

  0
ENDTAB
  0
TABLE
  2
VIEW
 70
0
  0
ENDTAB
  0
ENDSEC
  0
SECTION
  2
BLOCKS
  0
BLOCK
  8
0
  2
SHAPESTRING
 70
0
 10
0.0
 20
0.0
 30
0.0
  3
SHAPESTRING
  0
POLYLINE
  8
0
 62
0
 70
1
 66
1
 10
0.0
 20
0.0
 30
0.0
  0
VERTEX
  8
0
 10
45.332109899328856
 20
72.91275167785236
 30
0.0
  0
VERTEX
  8
0
 10
43.88747902684564
 20
72.91275167785236
 30
0.0
  0
VERTEX
  8
0
 10
43.88747902684564
 20
71.94496644295302
 30
0.0
  0
VERTEX
  8
0
 10
45.191170302013425
 20
71.94496644295302
 30
0.0
  0
VERTEX
  8
0
 10
45.191170302013425
 20
71.56912751677852
 30
0.0
  0
VERTEX
  8
0
 10
43.88747902684564
 20
71.56912751677852
 30
0.0
  0
VERTEX
  8
0
 10
43.88747902684564
 20
70.0
 30
0.0
  0
VERTEX
  8
0
 10
43.44263842281879
 20
70.0
 30
0.0
  0
VERTEX
  8
0
 10
43.44263842281879
 20
73.28859060402685
 30
0.0
  0
VERTEX
  8
0
 10
45.332109899328856
 20
73.28859060402685
 30
0.0
  0
SEQEND
  8
0
  0
POLYLINE
  8
0
 62
0
 70
1
 66
1
 10
0.0
 20
0.0
 30
0.0
  0
VERTEX
  8
0
 10
48.14561661073826
 20
70.89922399328859
 30
0.0
  0
VERTEX
  8
0
 10
48.59706375838926
 20
70.0
 30
0.0
  0
VERTEX
  8
0
 10
48.11919043624161
 20
70.0
 30
0.0
  0
VERTEX
  8
0
 10
47.69857382550336
 20
70.84402265100671
 30
0.0
  0
VERTEX
  8
0
 10
47.38248741610738
 20
71.28255033557048
 30
0.0
  0
VERTEX
  8
0
 10
46.965247483221475
 20
71.39060402684564
 30
0.0
  0
VERTEX
  8
0
 10
46.480767617449665
 20
71.39060402684564
 30
0.0
  0
VERTEX
  8
0
 10
46.480767617449665
 20
70.0
 30
0.0
  0
VERTEX
  8
0
 10
46.03592701342282
 20
70.0
 30
0.0
  0
VERTEX
  8
0
 10
46.03592701342282
 20
73.28859060402685
 30
0.0
  0
VERTEX
  8
0
 10
47.040121644295304
 20
73.28859060402685
 30
0.0
  0
VERTEX
  8
0
 10
47.88135486577181
 20
73.0529572147651
 30
0.0
  0
VERTEX
  8
0
 10
48.158829697986576
 20
72.34194630872483
 30
0.0
  0
VERTEX
  8
0
 10
48.014513422818794
 20
71.82678271812081
 30
0.0
  0
VERTEX
  8
0
 10
47.59507130872483
 20
71.54284815436242
 30
0.0
  0
VERTEX
  8
0
 10
47.87357382550336
 20
71.33569630872483
 30
0.0
  0
SEQEND
  8
0
  0
POLYLINE
  8
0
 62
0
 70
1
 66
1
 10
0.0
 20
0.0
 30
0.0
  0
VERTEX
  8
0
 10
47.040121644295304
 20
71.75704697986578
 30
0.0
  0
VERTEX
  8
0
 10
47.52562919463087
 20
71.90532718120805
 30
0.0
  0
VERTEX
  8
0
 10
47.68976510067114
 20
72.3417994966443
 30
0.0
  0
VERTEX
  8
0
 10
47.52562919463087
 20
72.77592281879194
 30
0.0
  0
VERTEX
  8
0
 10
47.040121644295304
 20
72.92214765100671
 30
0.0
  0
VERTEX
  8
0
 10
46.480767617449665
 20
72.92214765100671
 30
0.0
  0
VERTEX
  8
0
 10
46.480767617449665
 20
71.75704697986578
 30
0.0
  0
SEQEND
  8
0
  0
POLYLINE
  8
0
 62
0
 70
1
 66
1
 10
0.0
 20
0.0
 30
0.0
  0
VERTEX
  8
0
 10
51.25304110738255
 20
72.91275167785236
 30
0.0
  0
VERTEX
  8
0
 10
49.61902265100671
 20
72.91275167785236
 30
0.0
  0
VERTEX
  8
0
 10
49.61902265100671
 20
71.93557046979866
 30
0.0
  0
VERTEX
  8
0
 10
51.18477348993289
 20
71.93557046979866
 30
0.0
  0
VERTEX
  8
0
 10
51.18477348993289
 20
71.55973154362417
 30
0.0
  0
VERTEX
  8
0
 10
49.61902265100671
 20
71.55973154362417
 30
0.0
  0
VERTEX
  8
0
 10
49.61902265100671
 20
70.3758389261745
 30
0.0
  0
VERTEX
  8
0
 10
51.29268036912752
 20
70.3758389261745
 30
0.0
  0
VERTEX
  8
0
 10
51.29268036912752
 20
70.0
 30
0.0
  0
VERTEX
  8
0
 10
49.174182046979865
 20
70.0
 30
0.0
  0
VERTEX
  8
0
 10
49.174182046979865
 20
73.28859060402685
 30
0.0
  0
VERTEX
  8
0
 10
51.25304110738255
 20
73.28859060402685
 30
0.0
  0
SEQEND
  8
0
  0
POLYLINE
  8
0
 62
0
 70
1
 66
1
 10
0.0
 20
0.0
 30
0.0
  0
VERTEX
  8
0
 10
54.100020973154365
 20
72.91275167785236
 30
0.0
  0
VERTEX
  8
0
 10
52.466002516778524
 20
72.91275167785236
 30
0.0
  0
VERTEX
  8
0
 10
52.466002516778524
 20
71.93557046979866
 30
0.0
  0
VERTEX
  8
0
 10
54.0317533557047
 20
71.93557046979866
 30
0.0
  0
VERTEX
  8
0
 10
54.0317533557047
 20
71.55973154362417
 30
0.0
  0
VERTEX
  8
0
 10
52.466002516778524
 20
71.55973154362417
 30
0.0
  0
VERTEX
  8
0
 10
52.466002516778524
 20
70.3758389261745
 30
0.0
  0
VERTEX
  8
0
 10
54.13966023489933
 20
70.3758389261745
 30
0.0
  0
VERTEX
  8
0
 10
54.13966023489933
 20
70.0
 30
0.0
  0
VERTEX
  8
0
 10
52.02116191275168
 20
70.0
 30
0.0
  0
VERTEX
  8
0
 10
52.02116191275168
 20
73.28859060402685
 30
0.0
  0
VERTEX
  8
0
 10
54.100020973154365
 20
73.28859060402685
 30
0.0
  0
SEQEND
  8
0
  0
POLYLINE
  8
0
 62
0
 70
1
 66
1
 10
0.0
 20
0.0
 30
0.0
  0
VERTEX
  8
0
 10
56.85113255033557
 20
72.87560822147651
 30
0.0
  0
VERTEX
  8
0
 10
56.31057046979866
 20
72.97852348993288
 30
0.0
  0
VERTEX
  8
0
 10
55.44731543624161
 20
72.6341023489933
 30
0.0
  0
VERTEX
  8
0
 10
55.14781879194631
 20
71.63856963087248
 30
0.0
  0
VERTEX
  8
0
 10
55.44731543624161
 20
70.64494546979866
 30
0.0
  0
VERTEX
  8
0
 10
56.31057046979866
 20
70.3006711409396
 30
0.0
  0
VERTEX
  8
0
 10
56.85113255033557
 20
70.40343959731544
 30
0.0
  0
VERTEX
  8
0
 10
57.33018036912752
 20
70.71409395973154
 30
0.0
  0
VERTEX
  8
0
 10
57.33018036912752
 20
70.25369127516778
 30
0.0
  0
VERTEX
  8
0
 10
56.8357172818792
 20
70.01409395973154
 30
0.0
  0
VERTEX
  8
0
 10
56.28414429530201
 20
69.93422818791946
 30
0.0
  0
VERTEX
  8
0
 10
55.10817953020134
 20
70.39110738255033
 30
0.0
  0
VERTEX
  8
0
 10
54.67875419463087
 20
71.63856963087248
 30
0.0
  0
VERTEX
  8
0
 10
55.10817953020134
 20
72.88808724832215
 30
0.0
  0
VERTEX
  8
0
 10
56.28414429530201
 20
73.34496644295302
 30
0.0
  0
VERTEX
  8
0
 10
56.8401216442953
 20
73.26744966442953
 30
0.0
  0
VERTEX
  8
0
 10
57.33018036912752
 20
73.03489932885905
 30
0.0
  0
VERTEX
  8
0
 10
57.33018036912752
 20
72.56510067114094
 30
0.0
  0
SEQEND
  8
0
  0
POLYLINE
  8
0
 62
0
 70
1
 66
1
 10
0.0
 20
0.0
 30
0.0
  0
VERTEX
  8
0
 10
60.62097315436242
 20
70.0
 30
0.0
  0
VERTEX
  8
0
 10
60.15851510067114
 20
70.0
 30
0.0
  0
VERTEX
  8
0
 10
59.859018456375836
 20
70.84563758389261
 30
0.0
  0
VERTEX
  8
0
 10
58.37695050335571
 20
70.84563758389261
 30
0.0
  0
VERTEX
  8
0
 10
58.077453859060405
 20
70.0
 30
0.0
  0
VERTEX
  8
0
 10
57.60838926174497
 20
70.0
 30
0.0
  0
VERTEX
  8
0
 10
58.86363255033557
 20
73.28859060402685
 30
0.0
  0
VERTEX
  8
0
 10
59.36793204697987
 20
73.28859060402685
 30
0.0
  0
SEQEND
  8
0
  0
POLYLINE
  8
0
 62
0
 70
1
 66
1
 10
0.0
 20
0.0
 30
0.0
  0
VERTEX
  8
0
 10
59.72028104026846
 20
71.21208053691275
 30
0.0
  0
VERTEX
  8
0
 10
59.114681208053696
 20
72.84991610738255
 30
0.0
  0
VERTEX
  8
0
 10
58.51128355704698
 20
71.21208053691275
 30
0.0
  0
SEQEND
  8
0
  0
POLYLINE
  8
0
 62
0
 70
1
 66
1
 10
0.0
 20
0.0
 30
0.0
  0
VERTEX
  8
0
 10
63.414366610738256
 20
72.89102348993289
 30
0.0
  0
VERTEX
  8
0
 10
63.861409395973155
 20
71.64752516778523
 30
0.0
  0
VERTEX
  8
0
 10
63.4121644295302
 20
70.39859479865771
 30
0.0
  0
VERTEX
  8
0
 10
62.011577181208054
 20
70.0
 30
0.0
  0
VERTEX
  8
0
 10
61.09767197986577
 20
70.0
 30
0.0
  0
VERTEX
  8
0
 10
61.09767197986577
 20
73.28859060402685
 30
0.0
  0
VERTEX
  8
0
 10
62.011577181208054
 20
73.28859060402685
 30
0.0
  0
SEQEND
  8
0
  0
POLYLINE
  8
0
 62
0
 70
1
 66
1
 10
0.0
 20
0.0
 30
0.0
  0
VERTEX
  8
0
 10
62.07984479865772
 20
70.36644295302014
 30
0.0
  0
VERTEX
  8
0
 10
63.076258389261746
 20
70.67460151006712
 30
0.0
  0
VERTEX
  8
0
 10
63.39234479865772
 20
71.64752516778523
 30
0.0
  0
VERTEX
  8
0
 10
63.076258389261746
 20
72.6150167785235
 30
0.0
  0
VERTEX
  8
0
 10
62.07984479865772
 20
72.92214765100671
 30
0.0
  0
VERTEX
  8
0
 10
61.542512583892616
 20
72.92214765100671
 30
0.0
  0
VERTEX
  8
0
 10
61.542512583892616
 20
70.36644295302014
 30
0.0
  0
SEQEND
  8
0
  0
POLYLINE
  8
0
 62
0
 70
1
 66
1
 10
0.0
 20
0.0
 30
0.0
  0
VERTEX
  8
0
 10
64.0875
 20
68.93825503355704
 30
0.0
  0
VERTEX
  8
0
 10
64.0875
 20
69.25771812080536
 30
0.0
  0
VERTEX
  8
0
 10
66.43062080536913
 20
69.25771812080536
 30
0.0
  0
VERTEX
  8
0
 10
66.43062080536913
 20
68.93825503355704
 30
0.0
  0
SEQEND
  8
0
  0
POLYLINE
  8
0
 62
0
 70
1
 66
1
 10
0.0
 20
0.0
 30
0.0
  0
VERTEX
  8
0
 10
69.15471895973155
 20
72.91275167785236
 30
0.0
  0
VERTEX
  8
0
 10
67.98756291946309
 20
72.91275167785236
 30
0.0
  0
VERTEX
  8
0
 10
67.98756291946309
 20
70.0
 30
0.0
  0
VERTEX
  8
0
 10
67.54052013422819
 20
70.0
 30
0.0
  0
VERTEX
  8
0
 10
67.54052013422819
 20
72.91275167785236
 30
0.0
  0
VERTEX
  8
0
 10
66.37336409395974
 20
72.91275167785236
 30
0.0
  0
VERTEX
  8
0
 10
66.37336409395974
 20
73.28859060402685
 30
0.0
  0
VERTEX
  8
0
 10
69.15471895973155
 20
73.28859060402685
 30
0.0
  0
SEQEND
  8
0
  0
POLYLINE
  8
0
 62
0
 70
1
 66
1
 10
0.0
 20
0.0
 30
0.0
  0
VERTEX
  8
0
 10
72.43626258389261
 20
71.63856963087248
 30
0.0
  0
VERTEX
  8
0
 10
72.02225251677852
 20
70.3977139261745
 30
0.0
  0
VERTEX
  8
0
 10
70.91675755033557
 20
69.93422818791946
 30
0.0
  0
VERTEX
  8
0
 10
69.80788590604027
 20
70.39653942953021
 30
0.0
  0
VERTEX
  8
0
 10
69.39284815436241
 20
71.63856963087248
 30
0.0
  0
VERTEX
  8
0
 10
69.80788590604027
 20
72.88148070469799
 30
0.0
  0
VERTEX
  8
0
 10
70.91675755033557
 20
73.34496644295302
 30
0.0
  0
VERTEX
  8
0
 10
72.02225251677852
 20
72.88148070469799
 30
0.0
  0
SEQEND
  8
0
  0
POLYLINE
  8
0
 62
0
 70
1
 66
1
 10
0.0
 20
0.0
 30
0.0
  0
VERTEX
  8
0
 10
69.86191275167786
 20
71.63842281879195
 30
0.0
  0
VERTEX
  8
0
 10
70.14702181208054
 20
70.6534605704698
 30
0.0
  0
VERTEX
  8
0
 10
70.91675755033557
 20
70.29127516778523
 30
0.0
  0
VERTEX
  8
0
 10
71.68414429530202
 20
70.6534605704698
 30
0.0
  0
VERTEX
  8
0
 10
71.96719798657719
 20
71.63842281879195
 30
0.0
  0
VERTEX
  8
0
 10
71.68414429530202
 20
72.62573406040268
 30
0.0
  0
VERTEX
  8
0
 10
70.91675755033557
 20
72.98791946308725
 30
0.0
  0
VERTEX
  8
0
 10
70.14702181208054
 20
72.62573406040268
 30
0.0
  0
SEQEND
  8
0
  0
POLYLINE
  8
0
 62
0
 70
1
 66
1
 10
0.0
 20
0.0
 30
0.0
  0
VERTEX
  8
0
 10
72.64723154362417
 20
68.93825503355704
 30
0.0
  0
VERTEX
  8
0
 10
72.64723154362417
 20
69.25771812080536
 30
0.0
  0
VERTEX
  8
0
 10
74.9903523489933
 20
69.25771812080536
 30
0.0
  0
VERTEX
  8
0
 10
74.9903523489933
 20
68.93825503355704
 30
0.0
  0
SEQEND
  8
0
  0
POLYLINE
  8
0
 62
0
 70
1
 66
1
 10
0.0
 20
0.0
 30
0.0
  0
VERTEX
  8
0
 10
75.83378775167785
 20
71.89872063758389
 30
0.0
  0
VERTEX
  8
0
 10
77.30924916107384
 20
73.28859060402685
 30
0.0
  0
VERTEX
  8
0
 10
77.88181627516778
 20
73.28859060402685
 30
0.0
  0
VERTEX
  8
0
 10
76.25
 20
71.7555788590604
 30
0.0
  0
VERTEX
  8
0
 10
77.99853187919464
 20
70.0
 30
0.0
  0
VERTEX
  8
0
 10
77.41275167785236
 20
70.0
 30
0.0
  0
VERTEX
  8
0
 10
75.83378775167785
 20
71.58366191275168
 30
0.0
  0
VERTEX
  8
0
 10
75.83378775167785
 20
70.0
 30
0.0
  0
VERTEX
  8
0
 10
75.38894714765101
 20
70.0
 30
0.0
  0
VERTEX
  8
0
 10
75.38894714765101
 20
73.28859060402685
 30
0.0
  0
VERTEX
  8
0
 10
75.83378775167785
 20
73.28859060402685
 30
0.0
  0
SEQEND
  8
0
  0
POLYLINE
  8
0
 62
0
 70
1
 66
1
 10
0.0
 20
0.0
 30
0.0
  0
VERTEX
  8
0
 10
78.79351929530202
 20
70.0
 30
0.0
  0
VERTEX
  8
0
 10
78.34867869127517
 20
70.0
 30
0.0
  0
VERTEX
  8
0
 10
78.34867869127517
 20
73.28859060402685
 30
0.0
  0
VERTEX
  8
0
 10
78.79351929530202
 20
73.28859060402685
 30
0.0
  0
SEQEND
  8
0
  0
POLYLINE
  8
0
 62
0
 70
1
 66
1
 10
0.0
 20
0.0
 30
0.0
  0
VERTEX
  8
0
 10
81.66589765100672
 20
72.87560822147651
 30
0.0
  0
VERTEX
  8
0
 10
81.1253355704698
 20
72.97852348993288
 30
0.0
  0
VERTEX
  8
0
 10
80.26208053691275
 20
72.6341023489933
 30
0.0
  0
VERTEX
  8
0
 10
79.96258389261746
 20
71.63856963087248
 30
0.0
  0
VERTEX
  8
0
 10
80.26208053691275
 20
70.64494546979866
 30
0.0
  0
VERTEX
  8
0
 10
81.1253355704698
 20
70.3006711409396
 30
0.0
  0
VERTEX
  8
0
 10
81.66589765100672
 20
70.40343959731544
 30
0.0
  0
VERTEX
  8
0
 10
82.14494546979867
 20
70.71409395973154
 30
0.0
  0
VERTEX
  8
0
 10
82.14494546979867
 20
70.25369127516778
 30
0.0
  0
VERTEX
  8
0
 10
81.65048238255034
 20
70.01409395973154
 30
0.0
  0
VERTEX
  8
0
 10
81.09890939597315
 20
69.93422818791946
 30
0.0
  0
VERTEX
  8
0
 10
79.92294463087248
 20
70.39110738255033
 30
0.0
  0
VERTEX
  8
0
 10
79.49351929530202
 20
71.63856963087248
 30
0.0
  0
VERTEX
  8
0
 10
79.92294463087248
 20
72.88808724832215
 30
0.0
  0
VERTEX
  8
0
 10
81.09890939597315
 20
73.34496644295302
 30
0.0
  0
VERTEX
  8
0
 10
81.65488674496645
 20
73.26744966442953
 30
0.0
  0
VERTEX
  8
0
 10
82.14494546979867
 20
73.03489932885905
 30
0.0
  0
VERTEX
  8
0
 10
82.14494546979867
 20
72.56510067114094
 30
0.0
  0
SEQEND
  8
0
  0
POLYLINE
  8
0
 62
0
 70
1
 66
1
 10
0.0
 20
0.0
 30
0.0
  0
VERTEX
  8
0
 10
85.43573825503356
 20
70.0
 30
0.0
  0
VERTEX
  8
0
 10
84.97328020134228
 20
70.0
 30
0.0
  0
VERTEX
  8
0
 10
84.67378355704699
 20
70.84563758389261
 30
0.0
  0
VERTEX
  8
0
 10
83.19171560402685
 20
70.84563758389261
 30
0.0
  0
VERTEX
  8
0
 10
82.89221895973154
 20
70.0
 30
0.0
  0
VERTEX
  8
0
 10
82.42315436241611
 20
70.0
 30
0.0
  0
VERTEX
  8
0
 10
83.67839765100672
 20
73.28859060402685
 30
0.0
  0
VERTEX
  8
0
 10
84.18269714765101
 20
73.28859060402685
 30
0.0
  0
SEQEND
  8
0
  0
POLYLINE
  8
0
 62
0
 70
1
 66
1
 10
0.0
 20
0.0
 30
0.0
  0
VERTEX
  8
0
 10
84.5350461409396
 20
71.21208053691275
 30
0.0
  0
VERTEX
  8
0
 10
83.92944630872483
 20
72.84991610738255
 30
0.0
  0
VERTEX
  8
0
 10
83.32604865771813
 20
71.21208053691275
 30
0.0
  0
SEQEND
  8
0
  0
POLYLINE
  8
0
 62
0
 70
1
 66
1
 10
0.0
 20
0.0
 30
0.0
  0
VERTEX
  8
0
 10
88.2291317114094
 20
72.89102348993289
 30
0.0
  0
VERTEX
  8
0
 10
88.67617449664431
 20
71.64752516778523
 30
0.0
  0
VERTEX
  8
0
 10
88.22692953020135
 20
70.39859479865771
 30
0.0
  0
VERTEX
  8
0
 10
86.82634228187919
 20
70.0
 30
0.0
  0
VERTEX
  8
0
 10
85.9124370805369
 20
70.0
 30
0.0
  0
VERTEX
  8
0
 10
85.9124370805369
 20
73.28859060402685
 30
0.0
  0
VERTEX
  8
0
 10
86.82634228187919
 20
73.28859060402685
 30
0.0
  0
SEQEND
  8
0
  0
POLYLINE
  8
0
 62
0
 70
1
 66
1
 10
0.0
 20
0.0
 30
0.0
  0
VERTEX
  8
0
 10
86.89460989932886
 20
70.36644295302014
 30
0.0
  0
VERTEX
  8
0
 10
87.89102348993289
 20
70.67460151006712
 30
0.0
  0
VERTEX
  8
0
 10
88.20710989932886
 20
71.64752516778523
 30
0.0
  0
VERTEX
  8
0
 10
87.89102348993289
 20
72.6150167785235
 30
0.0
  0
VERTEX
  8
0
 10
86.89460989932886
 20
72.92214765100671
 30
0.0
  0
VERTEX
  8
0
 10
86.35727768456377
 20
72.92214765100671
 30
0.0
  0
VERTEX
  8
0
 10
86.35727768456377
 20
70.36644295302014
 30
0.0
  0
SEQEND
  8
0
  0
ENDBLK
  0
BLOCK
  8
0
  2
SHAPESTRING001
 70
0
 10
0.0
 20
0.0
 30
0.0
  3
SHAPESTRING001
  0
POLYLINE
  8
0
 62
0
 70
1
 66
1
 10
0.0
 20
0.0
 30
0.0
  0
VERTEX
  8
0
 10
57.521497483221474
 20
8.912751677852349
 30
0.0
  0
VERTEX
  8
0
 10
55.88747902684564
 20
8.912751677852349
 30
0.0
  0
VERTEX
  8
0
 10
55.88747902684564
 20
7.935570469798658
 30
0.0
  0
VERTEX
  8
0
 10
57.45322986577181
 20
7.935570469798658
 30
0.0
  0
VERTEX
  8
0
 10
57.45322986577181
 20
7.559731543624161
 30
0.0
  0
VERTEX
  8
0
 10
55.88747902684564
 20
7.559731543624161
 30
0.0
  0
VERTEX
  8
0
 10
55.88747902684564
 20
6.375838926174497
 30
0.0
  0
VERTEX
  8
0
 10
57.56113674496644
 20
6.375838926174497
 30
0.0
  0
VERTEX
  8
0
 10
57.56113674496644
 20
6.0
 30
0.0
  0
VERTEX
  8
0
 10
55.44263842281879
 20
6.0
 30
0.0
  0
VERTEX
  8
0
 10
55.44263842281879
 20
9.288590604026846
 30
0.0
  0
VERTEX
  8
0
 10
57.521497483221474
 20
9.288590604026846
 30
0.0
  0
SEQEND
  8
0
  0
POLYLINE
  8
0
 62
0
 70
1
 66
1
 10
0.0
 20
0.0
 30
0.0
  0
VERTEX
  8
0
 10
59.137458053691276
 20
6.50885067114094
 30
0.0
  0
VERTEX
  8
0
 10
59.826740771812084
 20
9.288590604026846
 30
0.0
  0
VERTEX
  8
0
 10
60.326635906040266
 20
9.288590604026846
 30
0.0
  0
VERTEX
  8
0
 10
61.01812080536913
 20
6.50885067114094
 30
0.0
  0
VERTEX
  8
0
 10
61.70740352348993
 20
9.288590604026846
 30
0.0
  0
VERTEX
  8
0
 10
62.15885067114094
 20
9.288590604026846
 30
0.0
  0
VERTEX
  8
0
 10
61.333032718120805
 20
6.0
 30
0.0
  0
VERTEX
  8
0
 10
60.773678691275165
 20
6.0
 30
0.0
  0
VERTEX
  8
0
 10
60.079991610738254
 20
8.854614093959732
 30
0.0
  0
VERTEX
  8
0
 10
59.379697986577185
 20
6.0
 30
0.0
  0
VERTEX
  8
0
 10
58.820343959731545
 20
6.0
 30
0.0
  0
VERTEX
  8
0
 10
57.996728187919466
 20
9.288590604026846
 30
0.0
  0
VERTEX
  8
0
 10
58.44597315436241
 20
9.288590604026846
 30
0.0
  0
SEQEND
  8
0
  0
POLYLINE
  8
0
 62
0
 70
1
 66
1
 10
0.0
 20
0.0
 30
0.0
  0
VERTEX
  8
0
 10
64.45719379194631
 20
7.146308724832215
 30
0.0
  0
VERTEX
  8
0
 10
64.92625838926175
 20
7.146308724832215
 30
0.0
  0
VERTEX
  8
0
 10
64.92625838926175
 20
6.779865771812081
 30
0.0
  0
VERTEX
  8
0
 10
64.45719379194631
 20
6.779865771812081
 30
0.0
  0
VERTEX
  8
0
 10
64.45719379194631
 20
6.0
 30
0.0
  0
VERTEX
  8
0
 10
64.01455536912752
 20
6.0
 30
0.0
  0
VERTEX
  8
0
 10
64.01455536912752
 20
6.779865771812081
 30
0.0
  0
VERTEX
  8
0
 10
62.53028523489933
 20
6.779865771812081
 30
0.0
  0
VERTEX
  8
0
 10
62.53028523489933
 20
7.208557046979866
 30
0.0
  0
VERTEX
  8
0
 10
63.89783976510067
 20
9.288590604026846
 30
0.0
  0
VERTEX
  8
0
 10
64.45719379194631
 20
9.288590604026846
 30
0.0
  0
SEQEND
  8
0
  0
POLYLINE
  8
0
 62
0
 70
1
 66
1
 10
0.0
 20
0.0
 30
0.0
  0
VERTEX
  8
0
 10
64.01455536912752
 20
7.146308724832215
 30
0.0
  0
VERTEX
  8
0
 10
64.01455536912752
 20
8.901153523489933
 30
0.0
  0
VERTEX
  8
0
 10
62.89144295302013
 20
7.146308724832215
 30
0.0
  0
SEQEND
  8
0
  0
POLYLINE
  8
0
 62
0
 70
1
 66
1
 10
0.0
 20
0.0
 30
0.0
  0
VERTEX
  8
0
 10
67.13357802013422
 20
7.3530201342281885
 30
0.0
  0
VERTEX
  8
0
 10
67.13357802013422
 20
7.7194630872483225
 30
0.0
  0
VERTEX
  8
0
 10
68.30073406040269
 20
7.7194630872483225
 30
0.0
  0
VERTEX
  8
0
 10
68.30073406040269
 20
6.305075503355705
 30
0.0
  0
VERTEX
  8
0
 10
67.73257130872483
 20
6.02804110738255
 30
0.0
  0
VERTEX
  8
0
 10
67.06971476510067
 20
5.934228187919463
 30
0.0
  0
VERTEX
  8
0
 10
65.863947147651
 20
6.384500838926175
 30
0.0
  0
VERTEX
  8
0
 10
65.42908976510067
 20
7.6385696308724835
 30
0.0
  0
VERTEX
  8
0
 10
65.863947147651
 20
8.89469379194631
 30
0.0
  0
VERTEX
  8
0
 10
67.06971476510067
 20
9.34496644295302
 30
0.0
  0
VERTEX
  8
0
 10
67.68074664429531
 20
9.266275167785235
 30
0.0
  0
VERTEX
  8
0
 10
68.2148489932886
 20
9.03489932885906
 30
0.0
  0
VERTEX
  8
0
 10
68.2148489932886
 20
8.56510067114094
 30
0.0
  0
VERTEX
  8
0
 10
67.69072986577181
 20
8.874580536912752
 30
0.0
  0
VERTEX
  8
0
 10
67.10715184563759
 20
8.978523489932886
 30
0.0
  0
VERTEX
  8
0
 10
66.20088087248322
 20
8.641883389261745
 30
0.0
  0
VERTEX
  8
0
 10
65.89815436241611
 20
7.6385696308724835
 30
0.0
  0
VERTEX
  8
0
 10
66.20088087248322
 20
6.637311241610738
 30
0.0
  0
VERTEX
  8
0
 10
67.10715184563759
 20
6.300671140939597
 30
0.0
  0
VERTEX
  8
0
 10
67.52776845637584
 20
6.341484899328859
 30
0.0
  0
VERTEX
  8
0
 10
67.86029781879195
 20
6.4683305369127515
 30
0.0
  0
VERTEX
  8
0
 10
67.86029781879195
 20
7.3530201342281885
 30
0.0
  0
SEQEND
  8
0
  0
POLYLINE
  8
0
 62
0
 70
1
 66
1
 10
0.0
 20
0.0
 30
0.0
  0
VERTEX
  8
0
 10
71.24108640939598
 20
7.6385696308724835
 30
0.0
  0
VERTEX
  8
0
 10
70.9492239932886
 20
6.371287751677852
 30
0.0
  0
VERTEX
  8
0
 10
70.10476090604027
 20
5.934228187919463
 30
0.0
  0
VERTEX
  8
0
 10
69.26015100671141
 20
6.371287751677852
 30
0.0
  0
VERTEX
  8
0
 10
68.96843540268456
 20
7.6385696308724835
 30
0.0
  0
VERTEX
  8
0
 10
69.26015100671141
 20
8.90790687919463
 30
0.0
  0
VERTEX
  8
0
 10
70.10476090604027
 20
9.34496644295302
 30
0.0
  0
VERTEX
  8
0
 10
70.9492239932886
 20
8.90790687919463
 30
0.0
  0
SEQEND
  8
0
  0
POLYLINE
  8
0
 62
0
 70
1
 66
1
 10
0.0
 20
0.0
 30
0.0
  0
VERTEX
  8
0
 10
69.41547818791946
 20
7.6385696308724835
 30
0.0
  0
VERTEX
  8
0
 10
69.58827600671141
 20
6.628062080536913
 30
0.0
  0
VERTEX
  8
0
 10
70.10476090604027
 20
6.291275167785235
 30
0.0
  0
VERTEX
  8
0
 10
70.62330117449665
 20
6.628062080536913
 30
0.0
  0
VERTEX
  8
0
 10
70.79624580536913
 20
7.6385696308724835
 30
0.0
  0
VERTEX
  8
0
 10
70.62330117449665
 20
8.651132550335571
 30
0.0
  0
VERTEX
  8
0
 10
70.10476090604027
 20
8.987919463087248
 30
0.0
  0
VERTEX
  8
0
 10
69.58827600671141
 20
8.651132550335571
 30
0.0
  0
SEQEND
  8
0
  0
POLYLINE
  8
0
 62
0
 70
1
 66
1
 10
0.0
 20
0.0
 30
0.0
  0
VERTEX
  8
0
 10
74.04519714765101
 20
6.952076342281879
 30
0.0
  0
VERTEX
  8
0
 10
73.71046560402685
 20
6.200251677852349
 30
0.0
  0
VERTEX
  8
0
 10
72.75912332214764
 20
5.934228187919463
 30
0.0
  0
VERTEX
  8
0
 10
72.332927852349
 20
5.9741610738255035
 30
0.0
  0
VERTEX
  8
0
 10
71.88045302013423
 20
6.093959731543624
 30
0.0
  0
VERTEX
  8
0
 10
71.88045302013423
 20
6.526174496644296
 30
0.0
  0
VERTEX
  8
0
 10
72.28565436241611
 20
6.364534395973155
 30
0.0
  0
VERTEX
  8
0
 10
72.74591023489933
 20
6.31006711409396
 30
0.0
  0
VERTEX
  8
0
 10
73.3833682885906
 20
6.474496644295302
 30
0.0
  0
VERTEX
  8
0
 10
73.60255872483222
 20
6.952810402684564
 30
0.0
  0
VERTEX
  8
0
 10
73.39878355704698
 20
7.40572567114094
 30
0.0
  0
VERTEX
  8
0
 10
72.83179530201343
 20
7.569127516778524
 30
0.0
  0
VERTEX
  8
0
 10
72.44861577181209
 20
7.569127516778524
 30
0.0
  0
VERTEX
  8
0
 10
72.44861577181209
 20
7.935570469798658
 30
0.0
  0
VERTEX
  8
0
 10
72.84941275167785
 20
7.935570469798658
 30
0.0
  0
VERTEX
  8
0
 10
73.35151006711409
 20
8.066673657718122
 30
0.0
  0
VERTEX
  8
0
 10
73.52548238255034
 20
8.444567953020135
 30
0.0
  0
VERTEX
  8
0
 10
73.34593120805368
 20
8.833619966442953
 30
0.0
  0
VERTEX
  8
0
 10
72.83179530201343
 20
8.969127516778524
 30
0.0
  0
VERTEX
  8
0
 10
72.43980704697987
 20
8.930222315436243
 30
0.0
  0
VERTEX
  8
0
 10
71.97955117449665
 20
8.809395973154363
 30
0.0
  0
VERTEX
  8
0
 10
71.97955117449665
 20
9.204026845637584
 30
0.0
  0
VERTEX
  8
0
 10
72.45404781879195
 20
9.309731543624162
 30
0.0
  0
VERTEX
  8
0
 10
72.87143456375838
 20
9.34496644295302
 30
0.0
  0
VERTEX
  8
0
 10
73.67302852348993
 20
9.114471476510067
 30
0.0
  0
VERTEX
  8
0
 10
73.96812080536913
 20
8.491254194630873
 30
0.0
  0
VERTEX
  8
0
 10
73.81176593959731
 20
8.029089765100672
 30
0.0
  0
VERTEX
  8
0
 10
73.36692533557047
 20
7.767764261744967
 30
0.0
  0
VERTEX
  8
0
 10
73.86564597315436
 20
7.484123322147651
 30
0.0
  0
SEQEND
  8
0
  0
ENDBLK
  0
ENDSEC
  0
SECTION
  2
ENTITIES
  0
LINE
  8
0
 62
0
 10
0.0
 20
0.0
 30
0.0
 11
125.0
 21
0.0
 31
0.0
  0
LINE
  8
0
 62
0
 10
125.0
 20
0.0
 30
0.0
 11
125.0
 21
78.0
 31
0.0
  0
LINE
  8
0
 62
0
 10
125.0
 20
78.0
 30
0.0
 11
0.0
 21
78.0
 31
0.0
  0
LINE
  8
0
 62
0
 10
0.0
 20
78.0
 30
0.0
 11
0.0
 21
0.0
 31
0.0
  0
CIRCLE
  8
0
 62
0
 10
10.0
 20
10.0
 30
0.0
 40
2.4
  0
CIRCLE
  8
0
 62
0
 10
115.0
 20
10.0
 30
0.0
 40
2.4
  0
CIRCLE
  8
0
 62
0
 10
10.0
 20
68.0
 30
0.0
 40
2.4
  0
CIRCLE
  8
0
 62
0
 10
115.0
 20
68.0
 30
0.0
 40
2.4
  0
CIRCLE
  8
0
 62
0
 10
62.5
 20
39.0
 30
0.0
 40
3.0
  0
INSERT
  2
SHAPESTRING
  8
0
 62
0
 10
0.0
 20
0.0
 30
0.0
  0
INSERT
  2
SHAPESTRING001
  8
0
 62
0
 10
0.0
 20
0.0
 30
0.0
  0
ENDSEC
  0
EOF
