ISO-10303-21;
HEADER;
FILE_DESCRIPTION(('ViewDefinition[DesignTransferView]'),'2;1');
FILE_NAME('/dev/null','2026-04-21T15:45:02+00:00',(''),(''),'IfcOpenShell 0.8.5','IfcOpenShell 0.8.5','Nobody');
FILE_SCHEMA(('IFC4'));
ENDSEC;
DATA;
#1=IFCPROJECT('1wnfjejyXEwOj0HE8UqIUT',$,'c11_init',$,$,$,$,(#10),#5);
#2=IFCSIUNIT(*,.LENGTHUNIT.,.MILLI.,.METRE.);
#3=IFCSIUNIT(*,.AREAUNIT.,$,.SQUARE_METRE.);
#4=IFCSIUNIT(*,.VOLUMEUNIT.,$,.CUBIC_METRE.);
#5=IFCUNITASSIGNMENT((#4,#2,#3));
#6=IFCCARTESIANPOINT((0.,0.,0.));
#7=IFCDIRECTION((0.,0.,1.));
#8=IFCDIRECTION((1.,0.,0.));
#9=IFCAXIS2PLACEMENT3D(#6,#7,#8);
#10=IFCGEOMETRICREPRESENTATIONCONTEXT($,'Model',3,1.0000000000000001E-05,#9,$);
#11=IFCGEOMETRICREPRESENTATIONSUBCONTEXT('Body','Model',*,*,*,*,#10,$,.MODEL_VIEW.,$);
#12=IFCSITE('3YKNZ5LdrF1hA0czSsrUjL',$,'Site',$,$,$,$,$,$,$,$,$,$,$);
#13=IFCBUILDING('2bRRtYkG52Qfnf2z3RnTXy',$,'c11_init',$,$,$,$,$,$,$,$,$);
#14=IFCRELAGGREGATES('3FfkO4KavAFwm$Avhr2gSt',$,$,$,#1,(#12));
#15=IFCRELAGGREGATES('24l7AE9cbD_uA1p8En0nsx',$,$,$,#12,(#13));
#16=IFCBUILDINGSTOREY('3QoJSBEl92WAoLu6FEZxQr',$,'Level 1',$,$,#27,$,$,$,$);
#22=IFCRELAGGREGATES('3Ye5TaRf1C1uID7dykxaty',$,$,$,#13,(#16));
#23=IFCCARTESIANPOINT((0.,0.,0.));
#24=IFCDIRECTION((0.,0.,1.));
#25=IFCDIRECTION((1.,0.,0.));
#26=IFCAXIS2PLACEMENT3D(#23,#24,#25);
#27=IFCLOCALPLACEMENT($,#26);
#28=IFCSLAB('0hyaG3DjP0e93SKQA_8G9s',$,'Floor',$,$,#46,#35,$,.FLOOR.);
#29=IFCCARTESIANPOINTLIST2D(((0.,0.),(32000.,0.),(32000.,10000.),(0.,10000.),(0.,0.)));
#30=IFCINDEXEDPOLYCURVE(#29,$,$);
#31=IFCDIRECTION((0.,0.,1.));
#32=IFCARBITRARYCLOSEDPROFILEDEF(.AREA.,$,#30);
#33=IFCEXTRUDEDAREASOLID(#32,$,#31,250.);
#34=IFCSHAPEREPRESENTATION(#11,'Body','SweptSolid',(#33));
#35=IFCPRODUCTDEFINITIONSHAPE($,$,(#34));
#41=IFCRELCONTAINEDINSPATIALSTRUCTURE('0khYoCoVH6uP9B9YrzXg0u',$,$,$,(#69,#91,#113,#28,#47),#16);
#42=IFCCARTESIANPOINT((0.,0.,0.));
#43=IFCDIRECTION((0.,0.,1.));
#44=IFCDIRECTION((1.,0.,0.));
#45=IFCAXIS2PLACEMENT3D(#42,#43,#44);
#46=IFCLOCALPLACEMENT(#27,#45);
#47=IFCWALL('1s43doBU996AkW4r2hWU3O',$,'InitPerim-1',$,$,#68,#58,$,$);
#48=IFCCARTESIANPOINTLIST2D(((0.,0.),(0.,200.),(32000.,200.),(32000.,0.),(0.,0.)));
#49=IFCINDEXEDPOLYCURVE(#48,$,.F.);
#50=IFCDIRECTION((0.,0.,1.));
#51=IFCARBITRARYCLOSEDPROFILEDEF(.AREA.,$,#49);
#52=IFCCARTESIANPOINT((0.,0.,0.));
#53=IFCDIRECTION((0.,0.,1.));
#54=IFCDIRECTION((1.,0.,0.));
#55=IFCAXIS2PLACEMENT3D(#52,#53,#54);
#56=IFCEXTRUDEDAREASOLID(#51,#55,#50,3200.);
#57=IFCSHAPEREPRESENTATION(#11,'Body','SweptSolid',(#56));
#58=IFCPRODUCTDEFINITIONSHAPE($,$,(#57));
#64=IFCCARTESIANPOINT((0.,0.,0.));
#65=IFCDIRECTION((0.,0.,1.));
#66=IFCDIRECTION((1.,0.,0.));
#67=IFCAXIS2PLACEMENT3D(#64,#65,#66);
#68=IFCLOCALPLACEMENT(#27,#67);
#69=IFCWALL('1xARq20WfERA2t9hzS37A5',$,'InitPerim-2',$,$,#90,#80,$,$);
#70=IFCCARTESIANPOINTLIST2D(((0.,0.),(0.,200.),(10000.,200.),(10000.,0.),(0.,0.)));
#71=IFCINDEXEDPOLYCURVE(#70,$,.F.);
#72=IFCDIRECTION((0.,0.,1.));
#73=IFCARBITRARYCLOSEDPROFILEDEF(.AREA.,$,#71);
#74=IFCCARTESIANPOINT((0.,0.,0.));
#75=IFCDIRECTION((0.,0.,1.));
#76=IFCDIRECTION((1.,0.,0.));
#77=IFCAXIS2PLACEMENT3D(#74,#75,#76);
#78=IFCEXTRUDEDAREASOLID(#73,#77,#72,3200.);
#79=IFCSHAPEREPRESENTATION(#11,'Body','SweptSolid',(#78));
#80=IFCPRODUCTDEFINITIONSHAPE($,$,(#79));
#86=IFCCARTESIANPOINT((32000.,0.,0.));
#87=IFCDIRECTION((0.,0.,1.));
#88=IFCDIRECTION((6.123233995736766E-17,1.,0.));
#89=IFCAXIS2PLACEMENT3D(#86,#87,#88);
#90=IFCLOCALPLACEMENT(#27,#89);
#91=IFCWALL('1tk7eQF8rF8vJAbNczf$uo',$,'InitPerim-3',$,$,#112,#102,$,$);
#92=IFCCARTESIANPOINTLIST2D(((0.,0.),(0.,200.),(32000.,200.),(32000.,0.),(0.,0.)));
#93=IFCINDEXEDPOLYCURVE(#92,$,.F.);
#94=IFCDIRECTION((0.,0.,1.));
#95=IFCARBITRARYCLOSEDPROFILEDEF(.AREA.,$,#93);
#96=IFCCARTESIANPOINT((0.,0.,0.));
#97=IFCDIRECTION((0.,0.,1.));
#98=IFCDIRECTION((1.,0.,0.));
#99=IFCAXIS2PLACEMENT3D(#96,#97,#98);
#100=IFCEXTRUDEDAREASOLID(#95,#99,#94,3200.);
#101=IFCSHAPEREPRESENTATION(#11,'Body','SweptSolid',(#100));
#102=IFCPRODUCTDEFINITIONSHAPE($,$,(#101));
#108=IFCCARTESIANPOINT((32000.,10000.,0.));
#109=IFCDIRECTION((0.,0.,1.));
#110=IFCDIRECTION((-1.,1.2246467991473532E-16,0.));
#111=IFCAXIS2PLACEMENT3D(#108,#109,#110);
#112=IFCLOCALPLACEMENT(#27,#111);
#113=IFCWALL('1KWelE_c9EHud_nNbGrIbU',$,'InitPerim-4',$,$,#134,#124,$,$);
#114=IFCCARTESIANPOINTLIST2D(((0.,0.),(0.,200.),(10000.,200.),(10000.,0.),(0.,0.)));
#115=IFCINDEXEDPOLYCURVE(#114,$,.F.);
#116=IFCDIRECTION((0.,0.,1.));
#117=IFCARBITRARYCLOSEDPROFILEDEF(.AREA.,$,#115);
#118=IFCCARTESIANPOINT((0.,0.,0.));
#119=IFCDIRECTION((0.,0.,1.));
#120=IFCDIRECTION((1.,0.,0.));
#121=IFCAXIS2PLACEMENT3D(#118,#119,#120);
#122=IFCEXTRUDEDAREASOLID(#117,#121,#116,3200.);
#123=IFCSHAPEREPRESENTATION(#11,'Body','SweptSolid',(#122));
#124=IFCPRODUCTDEFINITIONSHAPE($,$,(#123));
#130=IFCCARTESIANPOINT((0.,10000.,0.));
#131=IFCDIRECTION((0.,0.,1.));
#132=IFCDIRECTION((6.123233995736766E-17,-1.,0.));
#133=IFCAXIS2PLACEMENT3D(#130,#131,#132);
#134=IFCLOCALPLACEMENT(#27,#133);
#135=IFCSPACE('1HS04b3hr7yAuPi94f9rcq',$,'Lobby',$,$,#153,#142,$,$,$,$);
#136=IFCCARTESIANPOINTLIST2D(((500.,500.),(5500.,500.),(5500.,9500.),(500.,9500.),(500.,500.)));
#137=IFCINDEXEDPOLYCURVE(#136,$,$);
#138=IFCDIRECTION((0.,0.,1.));
#139=IFCARBITRARYCLOSEDPROFILEDEF(.AREA.,$,#137);
#140=IFCEXTRUDEDAREASOLID(#139,$,#138,3000.);
#141=IFCSHAPEREPRESENTATION(#11,'Body','SweptSolid',(#140));
#142=IFCPRODUCTDEFINITIONSHAPE($,$,(#141));
#148=IFCRELAGGREGATES('1XVKXKxXz1vfw9a9H7jL9c',$,$,$,#16,(#208,#154,#172,#135,#190));
#149=IFCCARTESIANPOINT((0.,0.,0.));
#150=IFCDIRECTION((0.,0.,1.));
#151=IFCDIRECTION((1.,0.,0.));
#152=IFCAXIS2PLACEMENT3D(#149,#150,#151);
#153=IFCLOCALPLACEMENT(#27,#152);
#154=IFCSPACE('0b2NaJb3z3Pvk1WXlRTpTO',$,'Office 1',$,$,#171,#161,$,$,$,$);
#155=IFCCARTESIANPOINTLIST2D(((6000.,500.),(12000.,500.),(12000.,9500.),(6000.,9500.),(6000.,500.)));
#156=IFCINDEXEDPOLYCURVE(#155,$,$);
#157=IFCDIRECTION((0.,0.,1.));
#158=IFCARBITRARYCLOSEDPROFILEDEF(.AREA.,$,#156);
#159=IFCEXTRUDEDAREASOLID(#158,$,#157,3000.);
#160=IFCSHAPEREPRESENTATION(#11,'Body','SweptSolid',(#159));
#161=IFCPRODUCTDEFINITIONSHAPE($,$,(#160));
#167=IFCCARTESIANPOINT((0.,0.,0.));
#168=IFCDIRECTION((0.,0.,1.));
#169=IFCDIRECTION((1.,0.,0.));
#170=IFCAXIS2PLACEMENT3D(#167,#168,#169);
#171=IFCLOCALPLACEMENT(#27,#170);
#172=IFCSPACE('2Txl9JNgjEpxpbknUJlPok',$,'Office 2',$,$,#189,#179,$,$,$,$);
#173=IFCCARTESIANPOINTLIST2D(((12500.,500.),(18500.,500.),(18500.,9500.),(12500.,9500.),(12500.,500.)));
#174=IFCINDEXEDPOLYCURVE(#173,$,$);
#175=IFCDIRECTION((0.,0.,1.));
#176=IFCARBITRARYCLOSEDPROFILEDEF(.AREA.,$,#174);
#177=IFCEXTRUDEDAREASOLID(#176,$,#175,3000.);
#178=IFCSHAPEREPRESENTATION(#11,'Body','SweptSolid',(#177));
#179=IFCPRODUCTDEFINITIONSHAPE($,$,(#178));
#185=IFCCARTESIANPOINT((0.,0.,0.));
#186=IFCDIRECTION((0.,0.,1.));
#187=IFCDIRECTION((1.,0.,0.));
#188=IFCAXIS2PLACEMENT3D(#185,#186,#187);
#189=IFCLOCALPLACEMENT(#27,#188);
#190=IFCSPACE('0TFKqhsC1D5Bv0eu8zbw8g',$,'Office 3',$,$,#207,#197,$,$,$,$);
#191=IFCCARTESIANPOINTLIST2D(((19000.,500.),(25000.,500.),(25000.,9500.),(19000.,9500.),(19000.,500.)));
#192=IFCINDEXEDPOLYCURVE(#191,$,$);
#193=IFCDIRECTION((0.,0.,1.));
#194=IFCARBITRARYCLOSEDPROFILEDEF(.AREA.,$,#192);
#195=IFCEXTRUDEDAREASOLID(#194,$,#193,3000.);
#196=IFCSHAPEREPRESENTATION(#11,'Body','SweptSolid',(#195));
#197=IFCPRODUCTDEFINITIONSHAPE($,$,(#196));
#203=IFCCARTESIANPOINT((0.,0.,0.));
#204=IFCDIRECTION((0.,0.,1.));
#205=IFCDIRECTION((1.,0.,0.));
#206=IFCAXIS2PLACEMENT3D(#203,#204,#205);
#207=IFCLOCALPLACEMENT(#27,#206);
#208=IFCSPACE('1tLwyIIrzEDerh$3N6h6mV',$,'Office 4',$,$,#225,#215,$,$,$,$);
#209=IFCCARTESIANPOINTLIST2D(((25500.,500.),(31500.,500.),(31500.,9500.),(25500.,9500.),(25500.,500.)));
#210=IFCINDEXEDPOLYCURVE(#209,$,$);
#211=IFCDIRECTION((0.,0.,1.));
#212=IFCARBITRARYCLOSEDPROFILEDEF(.AREA.,$,#210);
#213=IFCEXTRUDEDAREASOLID(#212,$,#211,3000.);
#214=IFCSHAPEREPRESENTATION(#11,'Body','SweptSolid',(#213));
#215=IFCPRODUCTDEFINITIONSHAPE($,$,(#214));
#221=IFCCARTESIANPOINT((0.,0.,0.));
#222=IFCDIRECTION((0.,0.,1.));
#223=IFCDIRECTION((1.,0.,0.));
#224=IFCAXIS2PLACEMENT3D(#221,#222,#223);
#225=IFCLOCALPLACEMENT(#27,#224);
ENDSEC;
END-ISO-10303-21;
