ISO-10303-21;
HEADER;
FILE_DESCRIPTION (( 'STEP AP203' ),
    '1' );
FILE_NAME ('straight_slot_block-four-slots.step',
    '2026-08-16T13:23:27',
    ( '' ),
    ( 'Administrator' ),
    'SwSTEP 2.0',
    'SolidWorks 2025',
    '' );
FILE_SCHEMA (( 'CONFIG_CONTROL_DESIGN' ));
ENDSEC;

DATA;
#1 = EDGE_CURVE ( 'NONE', #695, #316, #735, .T. ) ;
#2 = PERSON_AND_ORGANIZATION ( #461, #188 ) ;
#3 = EDGE_LOOP ( 'NONE', ( #427, #75, #132, #394 ) ) ;
#4 = CARTESIAN_POINT ( 'NONE',  ( -1.870078740157480324, -0.3937007874015748254, 0.4724409448818898127 ) ) ;
#5 = CARTESIAN_POINT ( 'NONE',  ( -1.870078740157480324, -0.1574803149606299191, 0.4724409448818898127 ) ) ;
#6 = COORDINATED_UNIVERSAL_TIME_OFFSET ( 8, 0, .AHEAD. ) ;
#7 = VERTEX_POINT ( 'NONE', #368 ) ;
#8 = CC_DESIGN_PERSON_AND_ORGANIZATION_ASSIGNMENT ( #369, #796, ( #19 ) ) ;
#9 = DIRECTION ( 'NONE',  ( -0.000000000000000000, 1.000000000000000000, 0.000000000000000000 ) ) ;
#10 = ORIENTED_EDGE ( 'NONE', *, *, #594, .F. ) ;
#11 = AXIS2_PLACEMENT_3D ( 'NONE', #284, #359, #172 ) ;
#12 = ORIENTED_EDGE ( 'NONE', *, *, #600, .T. ) ;
#13 = LINE ( 'NONE', #73, #669 ) ;
#14 = CARTESIAN_POINT ( 'NONE',  ( -1.870078740157480324, 0.7086614173228347191, 0.4724409448818898127 ) ) ;
#15 = EDGE_CURVE ( 'NONE', #375, #174, #626, .T. ) ;
#16 = ORIENTED_EDGE ( 'NONE', *, *, #489, .T. ) ;
#17 = DIRECTION ( 'NONE',  ( -0.000000000000000000, -0.000000000000000000, 1.000000000000000000 ) ) ;
#18 = DIRECTION ( 'NONE',  ( 1.000000000000000000, 0.000000000000000000, 0.000000000000000000 ) ) ;
#19 = PRODUCT_DEFINITION_FORMATION_WITH_SPECIFIED_SOURCE ( 'ANY', '', #719, .NOT_KNOWN. ) ;
#20 = EDGE_CURVE ( 'NONE', #328, #273, #571, .T. ) ;
#21 = EDGE_LOOP ( 'NONE', ( #465, #501, #746, #469 ) ) ;
#22 = CARTESIAN_POINT ( 'NONE',  ( -1.870078740157480324, 0.3937007874015748254, 0.6299212598425196763 ) ) ;
#23 = DIRECTION ( 'NONE',  ( 0.000000000000000000, -0.000000000000000000, 1.000000000000000000 ) ) ;
#24 = ORIENTED_EDGE ( 'NONE', *, *, #262, .T. ) ;
#25 = VECTOR ( 'NONE', #197, 39.37007874015748143 ) ;
#26 = CARTESIAN_POINT ( 'NONE',  ( -1.870078740157480324, -0.7086614173228347191, 0.4724409448818898127 ) ) ;
#27 = FACE_OUTER_BOUND ( 'NONE', #561, .T. ) ;
#28 = ORIENTED_EDGE ( 'NONE', *, *, #551, .T. ) ;
#29 = EDGE_CURVE ( 'NONE', #366, #808, #620, .T. ) ;
#30 = DIRECTION ( 'NONE',  ( -0.000000000000000000, -0.000000000000000000, 1.000000000000000000 ) ) ;
#31 = ORIENTED_EDGE ( 'NONE', *, *, #288, .F. ) ;
#32 = DIRECTION ( 'NONE',  ( 1.000000000000000000, 0.000000000000000000, 0.000000000000000000 ) ) ;
#33 = EDGE_CURVE ( 'NONE', #214, #755, #65, .T. ) ;
#34 = CARTESIAN_POINT ( 'NONE',  ( 2.362204724409448620, 1.181102362204724310, 0.000000000000000000 ) ) ;
#35 = VECTOR ( 'NONE', #371, 39.37007874015748143 ) ;
#36 = VECTOR ( 'NONE', #608, 39.37007874015748143 ) ;
#37 = ADVANCED_FACE ( 'NONE', ( #128 ), #134, .F. ) ;
#38 = PRODUCT_DEFINITION_SHAPE ( 'NONE', 'NONE',  #766 ) ;
#39 = CARTESIAN_POINT ( 'NONE',  ( -1.870078740157480324, -0.7086614173228347191, 0.4724409448818898127 ) ) ;
#40 = CARTESIAN_POINT ( 'NONE',  ( 1.870078740157480324, 0.7086614173228347191, 0.4724409448818898127 ) ) ;
#41 = DIRECTION ( 'NONE',  ( 0.000000000000000000, 1.000000000000000000, 0.000000000000000000 ) ) ;
#42 = CC_DESIGN_DATE_AND_TIME_ASSIGNMENT ( #180, #379, ( #766 ) ) ;
#43 =( NAMED_UNIT ( * ) PLANE_ANGLE_UNIT ( ) SI_UNIT ( $, .RADIAN. ) );
#44 = APPROVAL_PERSON_ORGANIZATION ( #504, #568, #71 ) ;
#45 = CARTESIAN_POINT ( 'NONE',  ( -1.870078740157480324, 0.7086614173228347191, 0.6299212598425196763 ) ) ;
#46 = DIRECTION ( 'NONE',  ( 0.000000000000000000, -1.000000000000000000, 0.000000000000000000 ) ) ;
#47 = DIRECTION ( 'NONE',  ( 0.000000000000000000, 0.000000000000000000, -1.000000000000000000 ) ) ;
#48 = DIRECTION ( 'NONE',  ( -0.000000000000000000, -1.000000000000000000, -0.000000000000000000 ) ) ;
#49 = VECTOR ( 'NONE', #362, 39.37007874015748143 ) ;
#50 = AXIS2_PLACEMENT_3D ( 'NONE', #549, #657, #411 ) ;
#51 = VECTOR ( 'NONE', #385, 39.37007874015748143 ) ;
#52 = CARTESIAN_POINT ( 'NONE',  ( -1.870078740157480324, 0.7086614173228347191, 0.4724409448818898127 ) ) ;
#53 = EDGE_LOOP ( 'NONE', ( #363, #77, #205, #680 ) ) ;
#54 = EDGE_CURVE ( 'NONE', #675, #575, #634, .T. ) ;
#55 = DIRECTION ( 'NONE',  ( -0.000000000000000000, -0.000000000000000000, -1.000000000000000000 ) ) ;
#56 = COORDINATED_UNIVERSAL_TIME_OFFSET ( 8, 0, .AHEAD. ) ;
#57 = ORIENTED_EDGE ( 'NONE', *, *, #676, .F. ) ;
#58 = FACE_OUTER_BOUND ( 'NONE', #74, .T. ) ;
#59 = EDGE_CURVE ( 'NONE', #214, #7, #337, .T. ) ;
#60 = ORIENTED_EDGE ( 'NONE', *, *, #763, .T. ) ;
#61 = FACE_OUTER_BOUND ( 'NONE', #686, .T. ) ;
#62 = CALENDAR_DATE ( 2026, 16, 8 ) ;
#63 = ORIENTED_EDGE ( 'NONE', *, *, #643, .F. ) ;
#64 = DIRECTION ( 'NONE',  ( -0.000000000000000000, -0.000000000000000000, 1.000000000000000000 ) ) ;
#65 = LINE ( 'NONE', #688, #684 ) ;
#66 = AXIS2_PLACEMENT_3D ( 'NONE', #667, #258, #387 ) ;
#67 = EDGE_LOOP ( 'NONE', ( #403, #192, #397, #389 ) ) ;
#68 = CARTESIAN_POINT ( 'NONE',  ( 1.870078740157480324, -0.3937007874015748254, 0.6299212598425196763 ) ) ;
#69 = VERTEX_POINT ( 'NONE', #579 ) ;
#70 = EDGE_CURVE ( 'NONE', #174, #590, #584, .T. ) ;
#71 = APPROVAL_ROLE ( '' ) ;
#72 = VERTEX_POINT ( 'NONE', #406 ) ;
#73 = CARTESIAN_POINT ( 'NONE',  ( 1.870078740157480324, 0.1574803149606299191, 0.4724409448818898127 ) ) ;
#74 = EDGE_LOOP ( 'NONE', ( #319, #314, #503, #740 ) ) ;
#75 = ORIENTED_EDGE ( 'NONE', *, *, #738, .F. ) ;
#76 = DIRECTION ( 'NONE',  ( -1.000000000000000000, 0.000000000000000000, 0.000000000000000000 ) ) ;
#77 = ORIENTED_EDGE ( 'NONE', *, *, #662, .F. ) ;
#78 = VECTOR ( 'NONE', #395, 39.37007874015748143 ) ;
#79 = AXIS2_PLACEMENT_3D ( 'NONE', #741, #517, #749 ) ;
#80 = ORIENTED_EDGE ( 'NONE', *, *, #580, .F. ) ;
#81 = VECTOR ( 'NONE', #423, 39.37007874015748143 ) ;
#82 = DIRECTION ( 'NONE',  ( 0.000000000000000000, 1.000000000000000000, 0.000000000000000000 ) ) ;
#83 = FACE_OUTER_BOUND ( 'NONE', #555, .T. ) ;
#84 = VERTEX_POINT ( 'NONE', #14 ) ;
#85 = CARTESIAN_POINT ( 'NONE',  ( -2.362204724409448620, 1.181102362204724310, 0.6299212598425196763 ) ) ;
#86 = CARTESIAN_POINT ( 'NONE',  ( -1.870078740157480324, 0.3937007874015748254, 0.4724409448818898127 ) ) ;
#87 = ORIENTED_EDGE ( 'NONE', *, *, #676, .T. ) ;
#88 = CARTESIAN_POINT ( 'NONE',  ( 1.870078740157480324, -0.9448818897637796255, 0.6299212598425196763 ) ) ;
#89 = PLANE ( 'NONE',  #739 ) ;
#90 = ADVANCED_FACE ( 'NONE', ( #216 ), #396, .F. ) ;
#91 = VERTEX_POINT ( 'NONE', #265 ) ;
#92 = AXIS2_PLACEMENT_3D ( 'NONE', #407, #541, #47 ) ;
#93 = DIRECTION ( 'NONE',  ( -1.000000000000000000, -0.000000000000000000, -0.000000000000000000 ) ) ;
#94 = ORIENTED_EDGE ( 'NONE', *, *, #1, .F. ) ;
#95 = CARTESIAN_POINT ( 'NONE',  ( -1.870078740157480324, 0.7086614173228347191, 0.4724409448818898127 ) ) ;
#96 = DIRECTION ( 'NONE',  ( -0.000000000000000000, -0.000000000000000000, 1.000000000000000000 ) ) ;
#97 = FACE_BOUND ( 'NONE', #463, .T. ) ;
#98 = ORIENTED_EDGE ( 'NONE', *, *, #70, .T. ) ;
#99 = DIRECTION ( 'NONE',  ( -1.000000000000000000, -0.000000000000000000, -0.000000000000000000 ) ) ;
#100 = EDGE_CURVE ( 'NONE', #190, #575, #637, .T. ) ;
#101 = LINE ( 'NONE', #604, #603 ) ;
#102 = VECTOR ( 'NONE', #109, 39.37007874015748143 ) ;
#103 = DIRECTION ( 'NONE',  ( 1.000000000000000000, -0.000000000000000000, 0.000000000000000000 ) ) ;
#104 = EDGE_CURVE ( 'NONE', #84, #214, #159, .T. ) ;
#105 = CARTESIAN_POINT ( 'NONE',  ( 1.870078740157480324, -0.7086614173228347191, 0.4724409448818898127 ) ) ;
#106 = CARTESIAN_POINT ( 'NONE',  ( -1.870078740157480324, -0.3937007874015748254, 0.4724409448818898127 ) ) ;
#107 = CARTESIAN_POINT ( 'NONE',  ( -1.870078740157480324, -0.9448818897637796255, 0.4724409448818898127 ) ) ;
#108 = PLANE ( 'NONE',  #736 ) ;
#109 = DIRECTION ( 'NONE',  ( 1.000000000000000000, 0.000000000000000000, 0.000000000000000000 ) ) ;
#110 = EDGE_CURVE ( 'NONE', #776, #69, #391, .T. ) ;
#111 = DIRECTION ( 'NONE',  ( -0.000000000000000000, -0.000000000000000000, 1.000000000000000000 ) ) ;
#112 = ORIENTED_EDGE ( 'NONE', *, *, #600, .F. ) ;
#113 = LINE ( 'NONE', #784, #193 ) ;
#114 = VECTOR ( 'NONE', #734, 39.37007874015748143 ) ;
#115 = ORIENTED_EDGE ( 'NONE', *, *, #209, .F. ) ;
#116 = LINE ( 'NONE', #227, #49 ) ;
#117 = CARTESIAN_POINT ( 'NONE',  ( 2.362204724409448620, -1.181102362204724310, 0.000000000000000000 ) ) ;
#118 = FACE_OUTER_BOUND ( 'NONE', #742, .T. ) ;
#119 = APPROVAL_DATE_TIME ( #318, #568 ) ;
#120 = VERTEX_POINT ( 'NONE', #202 ) ;
#121 = PLANE ( 'NONE',  #79 ) ;
#122 = ORIENTED_EDGE ( 'NONE', *, *, #312, .F. ) ;
#123 = ADVANCED_FACE ( 'NONE', ( #269 ), #456, .F. ) ;
#124 = APPLICATION_PROTOCOL_DEFINITION ( 'international standard', 'config_control_design', 1994, #248 ) ;
#125 = ORIENTED_EDGE ( 'NONE', *, *, #401, .F. ) ;
#126 = CC_DESIGN_SECURITY_CLASSIFICATION ( #301, ( #19 ) ) ;
#127 = FACE_OUTER_BOUND ( 'NONE', #136, .T. ) ;
#128 = FACE_OUTER_BOUND ( 'NONE', #516, .T. ) ;
#129 = VECTOR ( 'NONE', #55, 39.37007874015748143 ) ;
#130 = AXIS2_PLACEMENT_3D ( 'NONE', #663, #46, #783 ) ;
#131 = PERSON_AND_ORGANIZATION_ROLE ( 'creator' ) ;
#132 = ORIENTED_EDGE ( 'NONE', *, *, #542, .F. ) ;
#133 = DIRECTION ( 'NONE',  ( 0.000000000000000000, 0.000000000000000000, -1.000000000000000000 ) ) ;
#134 = PLANE ( 'NONE',  #141 ) ;
#135 = DATE_AND_TIME ( #743, #217 ) ;
#136 = EDGE_LOOP ( 'NONE', ( #452, #748, #750, #569 ) ) ;
#137 = DIRECTION ( 'NONE',  ( 0.000000000000000000, 0.000000000000000000, -1.000000000000000000 ) ) ;
#138 = EDGE_LOOP ( 'NONE', ( #520, #305, #16, #303 ) ) ;
#139 = VERTEX_POINT ( 'NONE', #705 ) ;
#140 = DIRECTION ( 'NONE',  ( 0.000000000000000000, 1.000000000000000000, 0.000000000000000000 ) ) ;
#141 = AXIS2_PLACEMENT_3D ( 'NONE', #372, #311, #382 ) ;
#142 = VECTOR ( 'NONE', #99, 39.37007874015748143 ) ;
#143 = CLOSED_SHELL ( 'NONE', ( #349, #715, #123, #37, #198, #531, #758, #412, #204, #775, #169, #225, #154, #426, #160, #179, #221, #90, #374, #795, #670, #384, #433, #421, #251, #589 ) ) ;
#144 = EDGE_LOOP ( 'NONE', ( #491, #94, #335, #148 ) ) ;
#145 = APPROVAL ( #690, 'UNSPECIFIED' ) ;
#146 = CARTESIAN_POINT ( 'NONE',  ( 0.000000000000000000, 0.000000000000000000, 0.4724409448818898127 ) ) ;
#147 = DIRECTION ( 'NONE',  ( -1.000000000000000000, -0.000000000000000000, -0.000000000000000000 ) ) ;
#148 = ORIENTED_EDGE ( 'NONE', *, *, #378, .T. ) ;
#149 = DIRECTION ( 'NONE',  ( -0.000000000000000000, -0.000000000000000000, 1.000000000000000000 ) ) ;
#150 = CARTESIAN_POINT ( 'NONE',  ( -1.870078740157480324, -0.1574803149606299191, 0.4724409448818898127 ) ) ;
#151 = EDGE_CURVE ( 'NONE', #808, #628, #523, .T. ) ;
#152 = VERTEX_POINT ( 'NONE', #399 ) ;
#153 = CARTESIAN_POINT ( 'NONE',  ( 0.000000000000000000, 0.000000000000000000, 0.4724409448818898127 ) ) ;
#154 = ADVANCED_FACE ( 'NONE', ( #772 ), #642, .F. ) ;
#155 = VECTOR ( 'NONE', #656, 39.37007874015748143 ) ;
#156 = ORIENTED_EDGE ( 'NONE', *, *, #327, .F. ) ;
#157 = AXIS2_PLACEMENT_3D ( 'NONE', #664, #76, #451 ) ;
#158 = LINE ( 'NONE', #598, #357 ) ;
#159 = LINE ( 'NONE', #528, #563 ) ;
#160 = ADVANCED_FACE ( 'NONE', ( #27 ), #89, .F. ) ;
#161 = EDGE_LOOP ( 'NONE', ( #297, #332, #567, #512 ) ) ;
#162 = LINE ( 'NONE', #410, #142 ) ;
#163 = CARTESIAN_POINT ( 'NONE',  ( 1.870078740157480324, 0.9448818897637796255, 0.4724409448818898127 ) ) ;
#164 = DIRECTION ( 'NONE',  ( 1.000000000000000000, 0.000000000000000000, 0.000000000000000000 ) ) ;
#165 = FACE_OUTER_BOUND ( 'NONE', #3, .T. ) ;
#166 = VECTOR ( 'NONE', #424, 39.37007874015748143 ) ;
#167 = CARTESIAN_POINT ( 'NONE',  ( -2.362204724409448620, -1.181102362204724310, 0.6299212598425196763 ) ) ;
#168 = LINE ( 'NONE', #105, #780 ) ;
#169 = ADVANCED_FACE ( 'NONE', ( #708 ), #178, .F. ) ;
#170 = DIRECTION ( 'NONE',  ( -1.000000000000000000, 0.000000000000000000, 0.000000000000000000 ) ) ;
#171 = CARTESIAN_POINT ( 'NONE',  ( 2.362204724409448620, -1.181102362204724310, 0.6299212598425196763 ) ) ;
#172 = DIRECTION ( 'NONE',  ( 0.000000000000000000, -0.000000000000000000, -1.000000000000000000 ) ) ;
#173 = CARTESIAN_POINT ( 'NONE',  ( -1.870078740157480324, -0.3937007874015748254, 0.4724409448818898127 ) ) ;
#174 = VERTEX_POINT ( 'NONE', #431 ) ;
#175 = DIRECTION ( 'NONE',  ( -0.000000000000000000, -1.000000000000000000, -0.000000000000000000 ) ) ;
#176 = ORIENTED_EDGE ( 'NONE', *, *, #29, .T. ) ;
#177 = AXIS2_PLACEMENT_3D ( 'NONE', #502, #241, #137 ) ;
#178 = PLANE ( 'NONE',  #447 ) ;
#179 = ADVANCED_FACE ( 'NONE', ( #118 ), #317, .F. ) ;
#180 = DATE_AND_TIME ( #62, #364 ) ;
#181 = VERTEX_POINT ( 'NONE', #794 ) ;
#182 = LINE ( 'NONE', #633, #276 ) ;
#183 = VERTEX_POINT ( 'NONE', #498 ) ;
#184 = APPROVAL_DATE_TIME ( #135, #145 ) ;
#185 = EDGE_LOOP ( 'NONE', ( #497, #678, #122, #505 ) ) ;
#186 = LINE ( 'NONE', #440, #404 ) ;
#187 = ORIENTED_EDGE ( 'NONE', *, *, #538, .T. ) ;
#188 = ORGANIZATION ( 'UNSPECIFIED', 'UNSPECIFIED', '' ) ;
#189 = PERSON_AND_ORGANIZATION ( #461, #188 ) ;
#190 = VERTEX_POINT ( 'NONE', #442 ) ;
#191 = LINE ( 'NONE', #696, #610 ) ;
#192 = ORIENTED_EDGE ( 'NONE', *, *, #499, .F. ) ;
#193 = VECTOR ( 'NONE', #546, 39.37007874015748143 ) ;
#194 = CARTESIAN_POINT ( 'NONE',  ( 0.000000000000000000, 0.000000000000000000, 0.000000000000000000 ) ) ;
#195 = ORIENTED_EDGE ( 'NONE', *, *, #472, .F. ) ;
#196 = CARTESIAN_POINT ( 'NONE',  ( -1.870078740157480324, -0.7086614173228347191, 0.4724409448818898127 ) ) ;
#197 = DIRECTION ( 'NONE',  ( -0.000000000000000000, -0.000000000000000000, 1.000000000000000000 ) ) ;
#198 = ADVANCED_FACE ( 'NONE', ( #543, #480, #97, #716, #61 ), #300, .F. ) ;
#199 = EDGE_LOOP ( 'NONE', ( #176, #31, #370, #437 ) ) ;
#200 = APPLICATION_CONTEXT ( 'configuration controlled 3d designs of mechanical parts and assemblies' ) ;
#201 = LINE ( 'NONE', #681, #51 ) ;
#202 = CARTESIAN_POINT ( 'NONE',  ( 1.870078740157480324, 0.1574803149606299191, 0.6299212598425196763 ) ) ;
#203 = LOCAL_TIME ( 21, 23, 27.00000000000000000, #6 ) ;
#204 = ADVANCED_FACE ( 'NONE', ( #83 ), #622, .F. ) ;
#205 = ORIENTED_EDGE ( 'NONE', *, *, #408, .F. ) ;
#206 = FACE_OUTER_BOUND ( 'NONE', #21, .T. ) ;
#207 = DIRECTION ( 'NONE',  ( 0.000000000000000000, 1.000000000000000000, 0.000000000000000000 ) ) ;
#208 = ORIENTED_EDGE ( 'NONE', *, *, #662, .T. ) ;
#209 = EDGE_CURVE ( 'NONE', #450, #152, #237, .T. ) ;
#210 = LINE ( 'NONE', #268, #290 ) ;
#211 = ORIENTED_EDGE ( 'NONE', *, *, #1, .T. ) ;
#212 = DIRECTION ( 'NONE',  ( -0.000000000000000000, -1.000000000000000000, -0.000000000000000000 ) ) ;
#213 = DIRECTION ( 'NONE',  ( 0.000000000000000000, -0.000000000000000000, -1.000000000000000000 ) ) ;
#214 = VERTEX_POINT ( 'NONE', #40 ) ;
#215 = FACE_OUTER_BOUND ( 'NONE', #138, .T. ) ;
#216 = FACE_OUTER_BOUND ( 'NONE', #161, .T. ) ;
#217 = LOCAL_TIME ( 21, 23, 27.00000000000000000, #56 ) ;
#218 = ORIENTED_EDGE ( 'NONE', *, *, #59, .T. ) ;
#219 = AXIS2_PLACEMENT_3D ( 'NONE', #459, #261, #697 ) ;
#220 = DIRECTION ( 'NONE',  ( 0.000000000000000000, 0.000000000000000000, -1.000000000000000000 ) ) ;
#221 = ADVANCED_FACE ( 'NONE', ( #283 ), #806, .F. ) ;
#222 = LINE ( 'NONE', #350, #514 ) ;
#223 = PLANE ( 'NONE',  #513 ) ;
#224 = LINE ( 'NONE', #781, #81 ) ;
#225 = ADVANCED_FACE ( 'NONE', ( #627 ), #797, .F. ) ;
#226 = VECTOR ( 'NONE', #175, 39.37007874015748143 ) ;
#227 = CARTESIAN_POINT ( 'NONE',  ( -1.870078740157480324, 0.7086614173228347191, 0.6299212598425196763 ) ) ;
#228 = LINE ( 'NONE', #672, #494 ) ;
#229 = CARTESIAN_POINT ( 'NONE',  ( -1.870078740157480324, 0.3937007874015748254, 0.4724409448818898127 ) ) ;
#230 = DIRECTION ( 'NONE',  ( 1.000000000000000000, 0.000000000000000000, 0.000000000000000000 ) ) ;
#231 = ORIENTED_EDGE ( 'NONE', *, *, #20, .T. ) ;
#232 = EDGE_CURVE ( 'NONE', #361, #675, #352, .T. ) ;
#233 = ORIENTED_EDGE ( 'NONE', *, *, #327, .T. ) ;
#234 = PLANE ( 'NONE',  #177 ) ;
#235 = ORIENTED_EDGE ( 'NONE', *, *, #468, .F. ) ;
#236 = APPROVAL_PERSON_ORGANIZATION ( #308, #602, #246 ) ;
#237 = LINE ( 'NONE', #106, #593 ) ;
#238 = EDGE_CURVE ( 'NONE', #755, #409, #355, .T. ) ;
#239 = PERSON_AND_ORGANIZATION_ROLE ( 'classification_officer' ) ;
#240 = ORIENTED_EDGE ( 'NONE', *, *, #731, .T. ) ;
#241 = DIRECTION ( 'NONE',  ( 1.000000000000000000, -0.000000000000000000, 0.000000000000000000 ) ) ;
#242 = ORIENTED_EDGE ( 'NONE', *, *, #343, .T. ) ;
#243 = ORIENTED_EDGE ( 'NONE', *, *, #441, .T. ) ;
#244 = DIRECTION ( 'NONE',  ( -0.000000000000000000, -1.000000000000000000, -0.000000000000000000 ) ) ;
#245 = ORIENTED_EDGE ( 'NONE', *, *, #689, .F. ) ;
#246 = APPROVAL_ROLE ( '' ) ;
#247 = ORIENTED_EDGE ( 'NONE', *, *, #104, .F. ) ;
#248 = APPLICATION_CONTEXT ( 'configuration controlled 3d designs of mechanical parts and assemblies' ) ;
#249 = CARTESIAN_POINT ( 'NONE',  ( -1.870078740157480324, -0.3937007874015748254, 0.4724409448818898127 ) ) ;
#250 = EDGE_LOOP ( 'NONE', ( #606, #263, #454, #211 ) ) ;
#251 = ADVANCED_FACE ( 'NONE', ( #292 ), #413, .F. ) ;
#252 = CARTESIAN_POINT ( 'NONE',  ( 0.000000000000000000, 0.000000000000000000, 0.4724409448818898127 ) ) ;
#253 = VECTOR ( 'NONE', #625, 39.37007874015748143 ) ;
#254 = CALENDAR_DATE ( 2026, 16, 8 ) ;
#255 = ORIENTED_EDGE ( 'NONE', *, *, #54, .F. ) ;
#256 = LINE ( 'NONE', #249, #550 ) ;
#257 = CARTESIAN_POINT ( 'NONE',  ( -1.870078740157480324, -0.1574803149606299191, 0.4724409448818898127 ) ) ;
#258 = DIRECTION ( 'NONE',  ( 0.000000000000000000, 0.000000000000000000, -1.000000000000000000 ) ) ;
#259 = ORIENTED_EDGE ( 'NONE', *, *, #285, .F. ) ;
#260 = CARTESIAN_POINT ( 'NONE',  ( -1.870078740157480324, 0.1574803149606299191, 0.4724409448818898127 ) ) ;
#261 = DIRECTION ( 'NONE',  ( -1.000000000000000000, 0.000000000000000000, 0.000000000000000000 ) ) ;
#262 = EDGE_CURVE ( 'NONE', #273, #776, #294, .T. ) ;
#263 = ORIENTED_EDGE ( 'NONE', *, *, #232, .F. ) ;
#264 = CARTESIAN_POINT ( 'NONE',  ( 1.870078740157480324, -0.1574803149606299191, 0.6299212598425196763 ) ) ;
#265 = CARTESIAN_POINT ( 'NONE',  ( -1.870078740157480324, 0.1574803149606299191, 0.4724409448818898127 ) ) ;
#266 = CC_DESIGN_APPROVAL ( #145, ( #301 ) ) ;
#267 = ORIENTED_EDGE ( 'NONE', *, *, #538, .F. ) ;
#268 = CARTESIAN_POINT ( 'NONE',  ( -1.870078740157480324, 0.1574803149606299191, 0.6299212598425196763 ) ) ;
#269 = FACE_OUTER_BOUND ( 'NONE', #199, .T. ) ;
#270 = ORIENTED_EDGE ( 'NONE', *, *, #557, .T. ) ;
#271 = LINE ( 'NONE', #95, #803 ) ;
#272 = CARTESIAN_POINT ( 'NONE',  ( 1.870078740157480324, 0.7086614173228347191, 0.4724409448818898127 ) ) ;
#273 = VERTEX_POINT ( 'NONE', #488 ) ;
#274 = CARTESIAN_POINT ( 'NONE',  ( 1.870078740157480324, 0.3937007874015748254, 0.4724409448818898127 ) ) ;
#275 = EDGE_CURVE ( 'NONE', #152, #375, #228, .T. ) ;
#276 = VECTOR ( 'NONE', #244, 39.37007874015748143 ) ;
#277 = DIRECTION ( 'NONE',  ( -0.000000000000000000, -0.000000000000000000, 1.000000000000000000 ) ) ;
#278 = VECTOR ( 'NONE', #354, 39.37007874015748143 ) ;
#279 = CC_DESIGN_PERSON_AND_ORGANIZATION_ASSIGNMENT ( #365, #576, ( #766 ) ) ;
#280 = DIRECTION ( 'NONE',  ( 1.000000000000000000, 0.000000000000000000, 0.000000000000000000 ) ) ;
#281 = DIRECTION ( 'NONE',  ( 0.000000000000000000, 0.000000000000000000, 1.000000000000000000 ) ) ;
#282 = ORIENTED_EDGE ( 'NONE', *, *, #110, .T. ) ;
#283 = FACE_OUTER_BOUND ( 'NONE', #526, .T. ) ;
#284 = CARTESIAN_POINT ( 'NONE',  ( -1.870078740157480324, -0.9448818897637796255, 0.4724409448818898127 ) ) ;
#285 = EDGE_CURVE ( 'NONE', #776, #366, #609, .T. ) ;
#286 = CARTESIAN_POINT ( 'NONE',  ( -2.362204724409448620, -1.181102362204724310, 0.000000000000000000 ) ) ;
#287 = CARTESIAN_POINT ( 'NONE',  ( 2.362204724409448620, -1.181102362204724310, 0.6299212598425196763 ) ) ;
#288 = EDGE_CURVE ( 'NONE', #69, #808, #545, .T. ) ;
#289 = CARTESIAN_POINT ( 'NONE',  ( 1.870078740157480324, -0.7086614173228347191, 0.4724409448818898127 ) ) ;
#290 = VECTOR ( 'NONE', #32, 39.37007874015748143 ) ;
#291 = VECTOR ( 'NONE', #518, 39.37007874015748143 ) ;
#292 = FACE_OUTER_BOUND ( 'NONE', #185, .T. ) ;
#293 = ORIENTED_EDGE ( 'NONE', *, *, #712, .T. ) ;
#294 = LINE ( 'NONE', #167, #102 ) ;
#295 = EDGE_CURVE ( 'NONE', #628, #624, #607, .T. ) ;
#296 = APPROVAL_DATE_TIME ( #508, #602 ) ;
#297 = ORIENTED_EDGE ( 'NONE', *, *, #392, .T. ) ;
#298 = CARTESIAN_POINT ( 'NONE',  ( -1.870078740157480324, -0.9448818897637796255, 0.4724409448818898127 ) ) ;
#299 = ORIENTED_EDGE ( 'NONE', *, *, #238, .T. ) ;
#300 = PLANE ( 'NONE',  #66 ) ;
#301 = SECURITY_CLASSIFICATION ( '', '', #302 ) ;
#302 = SECURITY_CLASSIFICATION_LEVEL ( 'unclassified' ) ;
#303 = ORIENTED_EDGE ( 'NONE', *, *, #751, .T. ) ;
#304 = CARTESIAN_POINT ( 'NONE',  ( -2.362204724409448620, 1.181102362204724310, 0.6299212598425196763 ) ) ;
#305 = ORIENTED_EDGE ( 'NONE', *, *, #312, .T. ) ;
#306 = VECTOR ( 'NONE', #467, 39.37007874015748143 ) ;
#307 = DIRECTION ( 'NONE',  ( -1.000000000000000000, 0.000000000000000000, -0.000000000000000000 ) ) ;
#308 = PERSON_AND_ORGANIZATION ( #461, #188 ) ;
#309 = EDGE_LOOP ( 'NONE', ( #586, #798, #156, #791 ) ) ;
#310 = CARTESIAN_POINT ( 'NONE',  ( -1.870078740157480324, 0.9448818897637796255, 0.4724409448818898127 ) ) ;
#311 = DIRECTION ( 'NONE',  ( 0.000000000000000000, -1.000000000000000000, 0.000000000000000000 ) ) ;
#312 = EDGE_CURVE ( 'NONE', #361, #190, #552, .T. ) ;
#313 = APPROVAL_STATUS ( 'not_yet_approved' ) ;
#314 = ORIENTED_EDGE ( 'NONE', *, *, #655, .F. ) ;
#315 = FACE_OUTER_BOUND ( 'NONE', #53, .T. ) ;
#316 = VERTEX_POINT ( 'NONE', #348 ) ;
#317 = PLANE ( 'NONE',  #484 ) ;
#318 = DATE_AND_TIME ( #360, #203 ) ;
#319 = ORIENTED_EDGE ( 'NONE', *, *, #519, .T. ) ;
#320 = CC_DESIGN_PERSON_AND_ORGANIZATION_ASSIGNMENT ( #189, #564, ( #719 ) ) ;
#321 = LINE ( 'NONE', #304, #253 ) ;
#322 = DIRECTION ( 'NONE',  ( -1.000000000000000000, -0.000000000000000000, -0.000000000000000000 ) ) ;
#323 = VECTOR ( 'NONE', #322, 39.37007874015748143 ) ;
#324 = ORIENTED_EDGE ( 'NONE', *, *, #151, .T. ) ;
#325 = DIRECTION ( 'NONE',  ( -1.000000000000000000, 0.000000000000000000, 0.000000000000000000 ) ) ;
#326 = FACE_OUTER_BOUND ( 'NONE', #698, .T. ) ;
#327 = EDGE_CURVE ( 'NONE', #770, #91, #722, .T. ) ;
#328 = VERTEX_POINT ( 'NONE', #729 ) ;
#329 = CARTESIAN_POINT ( 'NONE',  ( 1.870078740157480324, 0.1574803149606299191, 0.4724409448818898127 ) ) ;
#330 = DIRECTION ( 'NONE',  ( -0.000000000000000000, -0.000000000000000000, 1.000000000000000000 ) ) ;
#331 = EDGE_CURVE ( 'NONE', #316, #675, #113, .T. ) ;
#332 = ORIENTED_EDGE ( 'NONE', *, *, #70, .F. ) ;
#333 = CARTESIAN_POINT ( 'NONE',  ( -2.362204724409448620, -1.181102362204724310, 0.000000000000000000 ) ) ;
#334 = VECTOR ( 'NONE', #466, 39.37007874015748143 ) ;
#335 = ORIENTED_EDGE ( 'NONE', *, *, #751, .F. ) ;
#336 = CARTESIAN_POINT ( 'NONE',  ( -2.362204724409448620, 1.181102362204724310, 0.000000000000000000 ) ) ;
#337 = LINE ( 'NONE', #272, #700 ) ;
#338 = EDGE_LOOP ( 'NONE', ( #377, #805, #793, #299 ) ) ;
#339 = EDGE_CURVE ( 'NONE', #695, #361, #661, .T. ) ;
#340 = CARTESIAN_POINT ( 'NONE',  ( -1.870078740157480324, -0.1574803149606299191, 0.6299212598425196763 ) ) ;
#341 = EDGE_LOOP ( 'NONE', ( #565, #706, #457, #648 ) ) ;
#342 = LINE ( 'NONE', #260, #548 ) ;
#343 = EDGE_CURVE ( 'NONE', #693, #72, #479, .T. ) ;
#344 = VECTOR ( 'NONE', #207, 39.37007874015748143 ) ;
#345 = VECTOR ( 'NONE', #149, 39.37007874015748143 ) ;
#346 = DIRECTION ( 'NONE',  ( 1.000000000000000000, 0.000000000000000000, 0.000000000000000000 ) ) ;
#347 = EDGE_LOOP ( 'NONE', ( #60, #259, #530, #767 ) ) ;
#348 = CARTESIAN_POINT ( 'NONE',  ( -1.870078740157480324, -0.7086614173228347191, 0.6299212598425196763 ) ) ;
#349 = ADVANCED_FACE ( 'NONE', ( #786 ), #420, .F. ) ;
#350 = CARTESIAN_POINT ( 'NONE',  ( -1.870078740157480324, 0.9448818897637796255, 0.6299212598425196763 ) ) ;
#351 = DIRECTION ( 'NONE',  ( -0.000000000000000000, -0.000000000000000000, 1.000000000000000000 ) ) ;
#352 = LINE ( 'NONE', #107, #529 ) ;
#353 = EDGE_CURVE ( 'NONE', #380, #7, #116, .T. ) ;
#354 = DIRECTION ( 'NONE',  ( -0.000000000000000000, -0.000000000000000000, 1.000000000000000000 ) ) ;
#355 = LINE ( 'NONE', #799, #166 ) ;
#356 =( LENGTH_UNIT ( ) NAMED_UNIT ( * ) SI_UNIT ( $, .METRE. ) );
#357 = VECTOR ( 'NONE', #405, 39.37007874015748143 ) ;
#358 = AXIS2_PLACEMENT_3D ( 'NONE', #257, #653, #471 ) ;
#359 = DIRECTION ( 'NONE',  ( 0.000000000000000000, -1.000000000000000000, 0.000000000000000000 ) ) ;
#360 = CALENDAR_DATE ( 2026, 16, 8 ) ;
#361 = VERTEX_POINT ( 'NONE', #616 ) ;
#362 = DIRECTION ( 'NONE',  ( 1.000000000000000000, 0.000000000000000000, 0.000000000000000000 ) ) ;
#363 = ORIENTED_EDGE ( 'NONE', *, *, #468, .T. ) ;
#364 = LOCAL_TIME ( 21, 23, 27.00000000000000000, #804 ) ;
#365 = PERSON_AND_ORGANIZATION ( #461, #188 ) ;
#366 = VERTEX_POINT ( 'NONE', #560 ) ;
#367 = DIRECTION ( 'NONE',  ( -0.000000000000000000, -1.000000000000000000, -0.000000000000000000 ) ) ;
#368 = CARTESIAN_POINT ( 'NONE',  ( 1.870078740157480324, 0.7086614173228347191, 0.6299212598425196763 ) ) ;
#369 = PERSON_AND_ORGANIZATION ( #461, #188 ) ;
#370 = ORIENTED_EDGE ( 'NONE', *, *, #110, .F. ) ;
#371 = DIRECTION ( 'NONE',  ( 0.000000000000000000, 1.000000000000000000, 0.000000000000000000 ) ) ;
#372 = CARTESIAN_POINT ( 'NONE',  ( -2.362204724409448620, 1.181102362204724310, 0.6299212598425196763 ) ) ;
#373 = VECTOR ( 'NONE', #230, 39.37007874015748143 ) ;
#374 = ADVANCED_FACE ( 'NONE', ( #58 ), #223, .F. ) ;
#375 = VERTEX_POINT ( 'NONE', #483 ) ;
#376 = CARTESIAN_POINT ( 'NONE',  ( -2.362204724409448620, -1.181102362204724310, 0.6299212598425196763 ) ) ;
#377 = ORIENTED_EDGE ( 'NONE', *, *, #542, .T. ) ;
#378 = EDGE_CURVE ( 'NONE', #703, #618, #168, .T. ) ;
#379 = DATE_TIME_ROLE ( 'creation_date' ) ;
#380 = VERTEX_POINT ( 'NONE', #45 ) ;
#381 = DIRECTION ( 'NONE',  ( 0.000000000000000000, -0.000000000000000000, 1.000000000000000000 ) ) ;
#382 = DIRECTION ( 'NONE',  ( 0.000000000000000000, -0.000000000000000000, -1.000000000000000000 ) ) ;
#383 = ORIENTED_EDGE ( 'NONE', *, *, #738, .T. ) ;
#384 = ADVANCED_FACE ( 'NONE', ( #486 ), #422, .F. ) ;
#385 = DIRECTION ( 'NONE',  ( -0.000000000000000000, -1.000000000000000000, -0.000000000000000000 ) ) ;
#386 = VECTOR ( 'NONE', #578, 39.37007874015748143 ) ;
#387 = DIRECTION ( 'NONE',  ( -1.000000000000000000, 0.000000000000000000, -0.000000000000000000 ) ) ;
#388 = VECTOR ( 'NONE', #17, 39.37007874015748143 ) ;
#389 = ORIENTED_EDGE ( 'NONE', *, *, #727, .F. ) ;
#390 = CARTESIAN_POINT ( 'NONE',  ( 1.870078740157480324, 0.1574803149606299191, 0.4724409448818898127 ) ) ;
#391 = LINE ( 'NONE', #762, #344 ) ;
#392 = EDGE_CURVE ( 'NONE', #582, #590, #191, .T. ) ;
#393 = CARTESIAN_POINT ( 'NONE',  ( -1.870078740157480324, 0.1574803149606299191, 0.4724409448818898127 ) ) ;
#394 = ORIENTED_EDGE ( 'NONE', *, *, #477, .T. ) ;
#395 = DIRECTION ( 'NONE',  ( 0.000000000000000000, 1.000000000000000000, 0.000000000000000000 ) ) ;
#396 = PLANE ( 'NONE',  #358 ) ;
#397 = ORIENTED_EDGE ( 'NONE', *, *, #731, .F. ) ;
#398 = DIRECTION ( 'NONE',  ( -0.000000000000000000, -0.000000000000000000, 1.000000000000000000 ) ) ;
#399 = CARTESIAN_POINT ( 'NONE',  ( 1.870078740157480324, -0.3937007874015748254, 0.4724409448818898127 ) ) ;
#400 = VECTOR ( 'NONE', #398, 39.37007874015748143 ) ;
#401 = EDGE_CURVE ( 'NONE', #328, #628, #321, .T. ) ;
#402 = AXIS2_PLACEMENT_3D ( 'NONE', #792, #164, #429 ) ;
#403 = ORIENTED_EDGE ( 'NONE', *, *, #353, .F. ) ;
#404 = VECTOR ( 'NONE', #140, 39.37007874015748143 ) ;
#405 = DIRECTION ( 'NONE',  ( -0.000000000000000000, -0.000000000000000000, 1.000000000000000000 ) ) ;
#406 = CARTESIAN_POINT ( 'NONE',  ( 1.870078740157480324, -0.3937007874015748254, 0.6299212598425196763 ) ) ;
#407 = CARTESIAN_POINT ( 'NONE',  ( 1.870078740157480324, 0.7086614173228347191, 0.4724409448818898127 ) ) ;
#408 = EDGE_CURVE ( 'NONE', #613, #595, #13, .T. ) ;
#409 = VERTEX_POINT ( 'NONE', #310 ) ;
#410 = CARTESIAN_POINT ( 'NONE',  ( -1.870078740157480324, 0.3937007874015748254, 0.4724409448818898127 ) ) ;
#411 = DIRECTION ( 'NONE',  ( 0.000000000000000000, -0.000000000000000000, 1.000000000000000000 ) ) ;
#412 = ADVANCED_FACE ( 'NONE', ( #326 ), #692, .F. ) ;
#413 = PLANE ( 'NONE',  #11 ) ;
#414 = APPROVAL_PERSON_ORGANIZATION ( #694, #145, #759 ) ;
#415 = VECTOR ( 'NONE', #147, 39.37007874015748143 ) ;
#416 = VECTOR ( 'NONE', #30, 39.37007874015748143 ) ;
#417 = FACE_OUTER_BOUND ( 'NONE', #347, .T. ) ;
#418 = AXIS2_PLACEMENT_3D ( 'NONE', #660, #601, #281 ) ;
#419 = MANIFOLD_SOLID_BREP ( 'Cut-Extrude1', #143 ) ;
#420 = PLANE ( 'NONE',  #402 ) ;
#421 = ADVANCED_FACE ( 'NONE', ( #496 ), #121, .F. ) ;
#422 = PLANE ( 'NONE',  #157 ) ;
#423 = DIRECTION ( 'NONE',  ( 0.000000000000000000, 1.000000000000000000, 0.000000000000000000 ) ) ;
#424 = DIRECTION ( 'NONE',  ( -1.000000000000000000, -0.000000000000000000, -0.000000000000000000 ) ) ;
#425 = DIRECTION ( 'NONE',  ( 0.000000000000000000, 0.000000000000000000, -1.000000000000000000 ) ) ;
#426 = ADVANCED_FACE ( 'NONE', ( #315 ), #234, .F. ) ;
#427 = ORIENTED_EDGE ( 'NONE', *, *, #499, .T. ) ;
#428 = AXIS2_PLACEMENT_3D ( 'NONE', #583, #9, #570 ) ;
#429 = DIRECTION ( 'NONE',  ( 0.000000000000000000, 0.000000000000000000, -1.000000000000000000 ) ) ;
#430 = CARTESIAN_POINT ( 'NONE',  ( -1.870078740157480324, -0.7086614173228347191, 0.4724409448818898127 ) ) ;
#431 = CARTESIAN_POINT ( 'NONE',  ( -1.870078740157480324, -0.1574803149606299191, 0.4724409448818898127 ) ) ;
#432 = VECTOR ( 'NONE', #82, 39.37007874015748143 ) ;
#433 = ADVANCED_FACE ( 'NONE', ( #687 ), #566, .F. ) ;
#434 = APPLICATION_PROTOCOL_DEFINITION ( 'international standard', 'config_control_design', 1994, #200 ) ;
#435 = ORIENTED_EDGE ( 'NONE', *, *, #557, .F. ) ;
#436 = LINE ( 'NONE', #745, #35 ) ;
#437 = ORIENTED_EDGE ( 'NONE', *, *, #285, .T. ) ;
#438 = SHAPE_DEFINITION_REPRESENTATION ( #38, #599 ) ;
#439 = ORIENTED_EDGE ( 'NONE', *, *, #721, .T. ) ;
#440 = CARTESIAN_POINT ( 'NONE',  ( 1.870078740157480324, -0.9448818897637796255, 0.4724409448818898127 ) ) ;
#441 = EDGE_CURVE ( 'NONE', #590, #693, #182, .T. ) ;
#442 = CARTESIAN_POINT ( 'NONE',  ( 1.870078740157480324, -0.9448818897637796255, 0.4724409448818898127 ) ) ;
#443 = COORDINATED_UNIVERSAL_TIME_OFFSET ( 8, 0, .AHEAD. ) ;
#444 = EDGE_LOOP ( 'NONE', ( #255, #573, #63, #57 ) ) ;
#445 = CARTESIAN_POINT ( 'NONE',  ( 0.000000000000000000, 0.000000000000000000, 0.000000000000000000 ) ) ;
#446 = DIRECTION ( 'NONE',  ( -0.000000000000000000, -1.000000000000000000, -0.000000000000000000 ) ) ;
#447 = AXIS2_PLACEMENT_3D ( 'NONE', #730, #425, #782 ) ;
#448 = CC_DESIGN_PERSON_AND_ORGANIZATION_ASSIGNMENT ( #2, #131, ( #19 ) ) ;
#449 = DATE_TIME_ROLE ( 'classification_date' ) ;
#450 = VERTEX_POINT ( 'NONE', #4 ) ;
#451 = DIRECTION ( 'NONE',  ( 0.000000000000000000, 0.000000000000000000, 1.000000000000000000 ) ) ;
#452 = ORIENTED_EDGE ( 'NONE', *, *, #295, .F. ) ;
#453 = EDGE_CURVE ( 'NONE', #273, #624, #807, .T. ) ;
#454 = ORIENTED_EDGE ( 'NONE', *, *, #339, .F. ) ;
#455 = DIRECTION ( 'NONE',  ( -1.000000000000000000, -0.000000000000000000, -0.000000000000000000 ) ) ;
#456 = PLANE ( 'NONE',  #219 ) ;
#457 = ORIENTED_EDGE ( 'NONE', *, *, #20, .F. ) ;
#458 = CARTESIAN_POINT ( 'NONE',  ( -1.870078740157480324, -0.7086614173228347191, 0.6299212598425196763 ) ) ;
#459 = CARTESIAN_POINT ( 'NONE',  ( 2.362204724409448620, -1.181102362204724310, 0.6299212598425196763 ) ) ;
#460 = AXIS2_PLACEMENT_3D ( 'NONE', #393, #170, #659 ) ;
#461 = PERSON ( 'UNSPECIFIED', 'UNSPECIFIED', 'UNSPECIFIED', ('UNSPECIFIED'), ('UNSPECIFIED'), ('UNSPECIFIED') ) ;
#462 = LOCAL_TIME ( 21, 23, 27.00000000000000000, #443 ) ;
#463 = EDGE_LOOP ( 'NONE', ( #435, #632, #112, #235 ) ) ;
#464 = CARTESIAN_POINT ( 'NONE',  ( 1.870078740157480324, 0.3937007874015748254, 0.4724409448818898127 ) ) ;
#465 = ORIENTED_EDGE ( 'NONE', *, *, #472, .T. ) ;
#466 = DIRECTION ( 'NONE',  ( -0.000000000000000000, -1.000000000000000000, -0.000000000000000000 ) ) ;
#467 = DIRECTION ( 'NONE',  ( 1.000000000000000000, 0.000000000000000000, 0.000000000000000000 ) ) ;
#468 = EDGE_CURVE ( 'NONE', #120, #181, #436, .T. ) ;
#469 = ORIENTED_EDGE ( 'NONE', *, *, #15, .T. ) ;
#470 = DIRECTION ( 'NONE',  ( -1.000000000000000000, 0.000000000000000000, -0.000000000000000000 ) ) ;
#471 = DIRECTION ( 'NONE',  ( 0.000000000000000000, -0.000000000000000000, 1.000000000000000000 ) ) ;
#472 = EDGE_CURVE ( 'NONE', #174, #450, #256, .T. ) ;
#473 = VECTOR ( 'NONE', #630, 39.37007874015748143 ) ;
#474 = DIRECTION ( 'NONE',  ( -0.000000000000000000, -0.000000000000000000, 1.000000000000000000 ) ) ;
#475 = ORIENTED_EDGE ( 'NONE', *, *, #699, .F. ) ;
#476 = LINE ( 'NONE', #274, #668 ) ;
#477 = EDGE_CURVE ( 'NONE', #409, #577, #619, .T. ) ;
#478 = PLANE ( 'NONE',  #130 ) ;
#479 = LINE ( 'NONE', #614, #638 ) ;
#480 = FACE_BOUND ( 'NONE', #534, .T. ) ;
#481 = CC_DESIGN_DATE_AND_TIME_ASSIGNMENT ( #754, #449, ( #301 ) ) ;
#482 =( CONVERSION_BASED_UNIT ( 'INCH', #490 ) LENGTH_UNIT ( ) NAMED_UNIT ( #524 ) );
#483 = CARTESIAN_POINT ( 'NONE',  ( 1.870078740157480324, -0.1574803149606299191, 0.4724409448818898127 ) ) ;
#484 = AXIS2_PLACEMENT_3D ( 'NONE', #252, #801, #307 ) ;
#485 = DIRECTION ( 'NONE',  ( -1.000000000000000000, -0.000000000000000000, -0.000000000000000000 ) ) ;
#486 = FACE_OUTER_BOUND ( 'NONE', #250, .T. ) ;
#487 = PLANE ( 'NONE',  #50 ) ;
#488 = CARTESIAN_POINT ( 'NONE',  ( -2.362204724409448620, -1.181102362204724310, 0.6299212598425196763 ) ) ;
#489 = EDGE_CURVE ( 'NONE', #190, #703, #186, .T. ) ;
#490 = LENGTH_MEASURE_WITH_UNIT ( LENGTH_MEASURE( 0.02539999999999999897 ), #356 );
#491 = ORIENTED_EDGE ( 'NONE', *, *, #643, .T. ) ;
#492 = CARTESIAN_POINT ( 'NONE',  ( 2.362204724409448620, 1.181102362204724310, 0.6299212598425196763 ) ) ;
#493 = ORIENTED_EDGE ( 'NONE', *, *, #378, .F. ) ;
#494 = VECTOR ( 'NONE', #41, 39.37007874015748143 ) ;
#495 = ORIENTED_EDGE ( 'NONE', *, *, #441, .F. ) ;
#496 = FACE_OUTER_BOUND ( 'NONE', #617, .T. ) ;
#497 = ORIENTED_EDGE ( 'NONE', *, *, #54, .T. ) ;
#498 = CARTESIAN_POINT ( 'NONE',  ( -1.870078740157480324, 0.3937007874015748254, 0.6299212598425196763 ) ) ;
#499 = EDGE_CURVE ( 'NONE', #577, #380, #201, .T. ) ;
#500 = CALENDAR_DATE ( 2026, 16, 8 ) ;
#501 = ORIENTED_EDGE ( 'NONE', *, *, #209, .T. ) ;
#502 = CARTESIAN_POINT ( 'NONE',  ( 1.870078740157480324, 0.1574803149606299191, 0.4724409448818898127 ) ) ;
#503 = ORIENTED_EDGE ( 'NONE', *, *, #275, .F. ) ;
#504 = PERSON_AND_ORGANIZATION ( #461, #188 ) ;
#505 = ORIENTED_EDGE ( 'NONE', *, *, #232, .T. ) ;
#506 = PLANE ( 'NONE',  #639 ) ;
#507 = EDGE_LOOP ( 'NONE', ( #242, #744, #115, #187 ) ) ;
#508 = DATE_AND_TIME ( #254, #462 ) ;
#509 = ORIENTED_EDGE ( 'NONE', *, *, #489, .F. ) ;
#510 = VECTOR ( 'NONE', #93, 39.37007874015748143 ) ;
#511 = CARTESIAN_POINT ( 'NONE',  ( -1.870078740157480324, -0.3937007874015748254, 0.4724409448818898127 ) ) ;
#512 = ORIENTED_EDGE ( 'NONE', *, *, #655, .T. ) ;
#513 = AXIS2_PLACEMENT_3D ( 'NONE', #658, #103, #605 ) ;
#514 = VECTOR ( 'NONE', #485, 39.37007874015748143 ) ;
#515 = COORDINATED_UNIVERSAL_TIME_OFFSET ( 8, 0, .AHEAD. ) ;
#516 = EDGE_LOOP ( 'NONE', ( #324, #125, #773, #691 ) ) ;
#517 = DIRECTION ( 'NONE',  ( 1.000000000000000000, -0.000000000000000000, 0.000000000000000000 ) ) ;
#518 = DIRECTION ( 'NONE',  ( -0.000000000000000000, -0.000000000000000000, 1.000000000000000000 ) ) ;
#519 = EDGE_CURVE ( 'NONE', #72, #582, #636, .T. ) ;
#520 = ORIENTED_EDGE ( 'NONE', *, *, #339, .T. ) ;
#521 =( GEOMETRIC_REPRESENTATION_CONTEXT ( 3 ) GLOBAL_UNCERTAINTY_ASSIGNED_CONTEXT ( ( #702 ) ) GLOBAL_UNIT_ASSIGNED_CONTEXT ( ( #482, #43, #612 ) ) REPRESENTATION_CONTEXT ( 'NONE', 'WORKASPACE' ) );
#522 = LINE ( 'NONE', #329, #345 ) ;
#523 = LINE ( 'NONE', #592, #415 ) ;
#524 = DIMENSIONAL_EXPONENTS ( 1.000000000000000000, 0.000000000000000000, 0.000000000000000000, 0.000000000000000000, 0.000000000000000000, 0.000000000000000000, 0.000000000000000000 ) ;
#525 = DESIGN_CONTEXT ( 'detailed design', #248, 'design' ) ;
#526 = EDGE_LOOP ( 'NONE', ( #243, #267, #195, #98 ) ) ;
#527 = CARTESIAN_POINT ( 'NONE',  ( -1.870078740157480324, 0.1574803149606299191, 0.6299212598425196763 ) ) ;
#528 = CARTESIAN_POINT ( 'NONE',  ( -1.870078740157480324, 0.7086614173228347191, 0.4724409448818898127 ) ) ;
#529 = VECTOR ( 'NONE', #474, 39.37007874015748143 ) ;
#530 = ORIENTED_EDGE ( 'NONE', *, *, #262, .F. ) ;
#531 = ADVANCED_FACE ( 'NONE', ( #127 ), #506, .T. ) ;
#532 = LINE ( 'NONE', #587, #400 ) ;
#533 = DIRECTION ( 'NONE',  ( 0.000000000000000000, -1.000000000000000000, 0.000000000000000000 ) ) ;
#534 = EDGE_LOOP ( 'NONE', ( #536, #495, #615, #644 ) ) ;
#535 = LINE ( 'NONE', #85, #737 ) ;
#536 = ORIENTED_EDGE ( 'NONE', *, *, #343, .F. ) ;
#537 = DIRECTION ( 'NONE',  ( 0.000000000000000000, 0.000000000000000000, -1.000000000000000000 ) ) ;
#538 = EDGE_CURVE ( 'NONE', #450, #693, #574, .T. ) ;
#539 = AXIS2_PLACEMENT_3D ( 'NONE', #196, #756, #381 ) ;
#540 = LINE ( 'NONE', #39, #36 ) ;
#541 = DIRECTION ( 'NONE',  ( 1.000000000000000000, -0.000000000000000000, 0.000000000000000000 ) ) ;
#542 = EDGE_CURVE ( 'NONE', #409, #84, #271, .T. ) ;
#543 = FACE_BOUND ( 'NONE', #444, .T. ) ;
#544 = DIRECTION ( 'NONE',  ( 1.000000000000000000, 0.000000000000000000, 0.000000000000000000 ) ) ;
#545 = LINE ( 'NONE', #492, #623 ) ;
#546 = DIRECTION ( 'NONE',  ( -0.000000000000000000, -1.000000000000000000, -0.000000000000000000 ) ) ;
#547 = VECTOR ( 'NONE', #48, 39.37007874015748143 ) ;
#548 = VECTOR ( 'NONE', #346, 39.37007874015748143 ) ;
#549 = CARTESIAN_POINT ( 'NONE',  ( -2.362204724409448620, -1.181102362204724310, 0.6299212598425196763 ) ) ;
#550 = VECTOR ( 'NONE', #367, 39.37007874015748143 ) ;
#551 = EDGE_CURVE ( 'NONE', #69, #328, #535, .T. ) ;
#552 = LINE ( 'NONE', #298, #373 ) ;
#553 = DIRECTION ( 'NONE',  ( 0.000000000000000000, 0.000000000000000000, 1.000000000000000000 ) ) ;
#554 = LINE ( 'NONE', #52, #278 ) ;
#555 = EDGE_LOOP ( 'NONE', ( #760, #709, #671, #218 ) ) ;
#556 = DIRECTION ( 'NONE',  ( 1.000000000000000000, 0.000000000000000000, 0.000000000000000000 ) ) ;
#557 = EDGE_CURVE ( 'NONE', #757, #120, #210, .T. ) ;
#558 = CC_DESIGN_APPROVAL ( #568, ( #766 ) ) ;
#559 = ORIENTED_EDGE ( 'NONE', *, *, #408, .T. ) ;
#560 = CARTESIAN_POINT ( 'NONE',  ( 2.362204724409448620, -1.181102362204724310, 0.000000000000000000 ) ) ;
#561 = EDGE_LOOP ( 'NONE', ( #270, #80, #475, #439 ) ) ;
#562 = EDGE_CURVE ( 'NONE', #183, #757, #652, .T. ) ;
#563 = VECTOR ( 'NONE', #18, 39.37007874015748143 ) ;
#564 = PERSON_AND_ORGANIZATION_ROLE ( 'design_owner' ) ;
#565 = ORIENTED_EDGE ( 'NONE', *, *, #295, .T. ) ;
#566 = PLANE ( 'NONE',  #539 ) ;
#567 = ORIENTED_EDGE ( 'NONE', *, *, #15, .F. ) ;
#568 = APPROVAL ( #313, 'UNSPECIFIED' ) ;
#569 = ORIENTED_EDGE ( 'NONE', *, *, #763, .F. ) ;
#570 = DIRECTION ( 'NONE',  ( 0.000000000000000000, -0.000000000000000000, 1.000000000000000000 ) ) ;
#571 = LINE ( 'NONE', #673, #723 ) ;
#572 = DIRECTION ( 'NONE',  ( 0.000000000000000000, 0.000000000000000000, 1.000000000000000000 ) ) ;
#573 = ORIENTED_EDGE ( 'NONE', *, *, #331, .F. ) ;
#574 = LINE ( 'NONE', #511, #388 ) ;
#575 = VERTEX_POINT ( 'NONE', #774 ) ;
#576 = PERSON_AND_ORGANIZATION_ROLE ( 'creator' ) ;
#577 = VERTEX_POINT ( 'NONE', #707 ) ;
#578 = DIRECTION ( 'NONE',  ( -0.000000000000000000, -0.000000000000000000, -1.000000000000000000 ) ) ;
#579 = CARTESIAN_POINT ( 'NONE',  ( 2.362204724409448620, 1.181102362204724310, 0.6299212598425196763 ) ) ;
#580 = EDGE_CURVE ( 'NONE', #613, #120, #522, .T. ) ;
#581 = VECTOR ( 'NONE', #330, 39.37007874015748143 ) ;
#582 = VERTEX_POINT ( 'NONE', #264 ) ;
#583 = CARTESIAN_POINT ( 'NONE',  ( -1.870078740157480324, 0.9448818897637796255, 0.4724409448818898127 ) ) ;
#584 = LINE ( 'NONE', #150, #291 ) ;
#585 = PRODUCT_RELATED_PRODUCT_CATEGORY ( 'detail', '', ( #719 ) ) ;
#586 = ORIENTED_EDGE ( 'NONE', *, *, #562, .T. ) ;
#587 = CARTESIAN_POINT ( 'NONE',  ( -1.870078740157480324, 0.3937007874015748254, 0.4724409448818898127 ) ) ;
#588 = DIRECTION ( 'NONE',  ( -0.000000000000000000, 1.000000000000000000, 0.000000000000000000 ) ) ;
#589 = ADVANCED_FACE ( 'NONE', ( #215 ), #771, .F. ) ;
#590 = VERTEX_POINT ( 'NONE', #340 ) ;
#591 = CARTESIAN_POINT ( 'NONE',  ( -1.870078740157480324, -0.3937007874015748254, 0.6299212598425196763 ) ) ;
#592 = CARTESIAN_POINT ( 'NONE',  ( -2.362204724409448620, 1.181102362204724310, 0.000000000000000000 ) ) ;
#593 = VECTOR ( 'NONE', #280, 39.37007874015748143 ) ;
#594 = EDGE_CURVE ( 'NONE', #770, #183, #532, .T. ) ;
#595 = VERTEX_POINT ( 'NONE', #464 ) ;
#596 = LINE ( 'NONE', #710, #416 ) ;
#597 = ORIENTED_EDGE ( 'NONE', *, *, #59, .F. ) ;
#598 = CARTESIAN_POINT ( 'NONE',  ( 1.870078740157480324, -0.1574803149606299191, 0.4724409448818898127 ) ) ;
#599 = ADVANCED_BREP_SHAPE_REPRESENTATION ( 'straight_slot_block-four-slots', ( #419, #645 ), #521 ) ;
#600 = EDGE_CURVE ( 'NONE', #181, #183, #765, .T. ) ;
#601 = DIRECTION ( 'NONE',  ( -1.000000000000000000, 0.000000000000000000, 0.000000000000000000 ) ) ;
#602 = APPROVAL ( #747, 'UNSPECIFIED' ) ;
#603 = VECTOR ( 'NONE', #277, 39.37007874015748143 ) ;
#604 = CARTESIAN_POINT ( 'NONE',  ( -1.870078740157480324, 0.1574803149606299191, 0.4724409448818898127 ) ) ;
#605 = DIRECTION ( 'NONE',  ( 0.000000000000000000, 0.000000000000000000, -1.000000000000000000 ) ) ;
#606 = ORIENTED_EDGE ( 'NONE', *, *, #331, .T. ) ;
#607 = LINE ( 'NONE', #666, #547 ) ;
#608 = DIRECTION ( 'NONE',  ( -1.000000000000000000, -0.000000000000000000, -0.000000000000000000 ) ) ;
#609 = LINE ( 'NONE', #287, #129 ) ;
#610 = VECTOR ( 'NONE', #455, 39.37007874015748143 ) ;
#611 = VECTOR ( 'NONE', #111, 39.37007874015748143 ) ;
#612 =( NAMED_UNIT ( * ) SI_UNIT ( $, .STERADIAN. ) SOLID_ANGLE_UNIT ( ) );
#613 = VERTEX_POINT ( 'NONE', #390 ) ;
#614 = CARTESIAN_POINT ( 'NONE',  ( -1.870078740157480324, -0.3937007874015748254, 0.6299212598425196763 ) ) ;
#615 = ORIENTED_EDGE ( 'NONE', *, *, #392, .F. ) ;
#616 = CARTESIAN_POINT ( 'NONE',  ( -1.870078740157480324, -0.9448818897637796255, 0.4724409448818898127 ) ) ;
#617 = EDGE_LOOP ( 'NONE', ( #87, #493, #509, #640 ) ) ;
#618 = VERTEX_POINT ( 'NONE', #649 ) ;
#619 = LINE ( 'NONE', #761, #650 ) ;
#620 = LINE ( 'NONE', #117, #473 ) ;
#621 = CC_DESIGN_PERSON_AND_ORGANIZATION_ASSIGNMENT ( #679, #239, ( #301 ) ) ;
#622 = PLANE ( 'NONE',  #92 ) ;
#623 = VECTOR ( 'NONE', #718, 39.37007874015748143 ) ;
#624 = VERTEX_POINT ( 'NONE', #333 ) ;
#625 = DIRECTION ( 'NONE',  ( -0.000000000000000000, -0.000000000000000000, -1.000000000000000000 ) ) ;
#626 = LINE ( 'NONE', #5, #323 ) ;
#627 = FACE_OUTER_BOUND ( 'NONE', #309, .T. ) ;
#628 = VERTEX_POINT ( 'NONE', #336 ) ;
#629 = DIRECTION ( 'NONE',  ( -1.000000000000000000, 0.000000000000000000, -0.000000000000000000 ) ) ;
#630 = DIRECTION ( 'NONE',  ( 0.000000000000000000, 1.000000000000000000, 0.000000000000000000 ) ) ;
#631 = EDGE_CURVE ( 'NONE', #152, #72, #596, .T. ) ;
#632 = ORIENTED_EDGE ( 'NONE', *, *, #562, .F. ) ;
#633 = CARTESIAN_POINT ( 'NONE',  ( -1.870078740157480324, -0.3937007874015748254, 0.6299212598425196763 ) ) ;
#634 = LINE ( 'NONE', #647, #306 ) ;
#635 = ORIENTED_EDGE ( 'NONE', *, *, #238, .F. ) ;
#636 = LINE ( 'NONE', #68, #432 ) ;
#637 = LINE ( 'NONE', #711, #581 ) ;
#638 = VECTOR ( 'NONE', #556, 39.37007874015748143 ) ;
#639 = AXIS2_PLACEMENT_3D ( 'NONE', #445, #133, #629 ) ;
#640 = ORIENTED_EDGE ( 'NONE', *, *, #100, .T. ) ;
#641 = LINE ( 'NONE', #458, #155 ) ;
#642 = PLANE ( 'NONE',  #787 ) ;
#643 = EDGE_CURVE ( 'NONE', #618, #316, #641, .T. ) ;
#644 = ORIENTED_EDGE ( 'NONE', *, *, #519, .F. ) ;
#645 = AXIS2_PLACEMENT_3D ( 'NONE', #194, #572, #685 ) ;
#646 = DIRECTION ( 'NONE',  ( -1.000000000000000000, -0.000000000000000000, -0.000000000000000000 ) ) ;
#647 = CARTESIAN_POINT ( 'NONE',  ( -1.870078740157480324, -0.9448818897637796255, 0.6299212598425196763 ) ) ;
#648 = ORIENTED_EDGE ( 'NONE', *, *, #401, .T. ) ;
#649 = CARTESIAN_POINT ( 'NONE',  ( 1.870078740157480324, -0.7086614173228347191, 0.6299212598425196763 ) ) ;
#650 = VECTOR ( 'NONE', #64, 39.37007874015748143 ) ;
#651 = EDGE_LOOP ( 'NONE', ( #764, #597, #247, #383 ) ) ;
#652 = LINE ( 'NONE', #527, #334 ) ;
#653 = DIRECTION ( 'NONE',  ( -0.000000000000000000, 1.000000000000000000, 0.000000000000000000 ) ) ;
#654 = ORIENTED_EDGE ( 'NONE', *, *, #689, .T. ) ;
#655 = EDGE_CURVE ( 'NONE', #375, #582, #158, .T. ) ;
#656 = DIRECTION ( 'NONE',  ( -1.000000000000000000, -0.000000000000000000, -0.000000000000000000 ) ) ;
#657 = DIRECTION ( 'NONE',  ( 0.000000000000000000, 1.000000000000000000, 0.000000000000000000 ) ) ;
#658 = CARTESIAN_POINT ( 'NONE',  ( 1.870078740157480324, -0.3937007874015748254, 0.4724409448818898127 ) ) ;
#659 = DIRECTION ( 'NONE',  ( 0.000000000000000000, 0.000000000000000000, 1.000000000000000000 ) ) ;
#660 = CARTESIAN_POINT ( 'NONE',  ( -1.870078740157480324, 0.7086614173228347191, 0.4724409448818898127 ) ) ;
#661 = LINE ( 'NONE', #726, #226 ) ;
#662 = EDGE_CURVE ( 'NONE', #595, #181, #476, .T. ) ;
#663 = CARTESIAN_POINT ( 'NONE',  ( -1.870078740157480324, 0.7086614173228347191, 0.4724409448818898127 ) ) ;
#664 = CARTESIAN_POINT ( 'NONE',  ( -1.870078740157480324, -0.9448818897637796255, 0.4724409448818898127 ) ) ;
#665 = CARTESIAN_POINT ( 'NONE',  ( -1.870078740157480324, 0.1574803149606299191, 0.6299212598425196763 ) ) ;
#666 = CARTESIAN_POINT ( 'NONE',  ( -2.362204724409448620, -1.181102362204724310, 0.000000000000000000 ) ) ;
#667 = CARTESIAN_POINT ( 'NONE',  ( 0.000000000000000000, 0.000000000000000000, 0.6299212598425196763 ) ) ;
#668 = VECTOR ( 'NONE', #768, 39.37007874015748143 ) ;
#669 = VECTOR ( 'NONE', #677, 39.37007874015748143 ) ;
#670 = ADVANCED_FACE ( 'NONE', ( #206 ), #701, .F. ) ;
#671 = ORIENTED_EDGE ( 'NONE', *, *, #33, .F. ) ;
#672 = CARTESIAN_POINT ( 'NONE',  ( 1.870078740157480324, -0.3937007874015748254, 0.4724409448818898127 ) ) ;
#673 = CARTESIAN_POINT ( 'NONE',  ( -2.362204724409448620, -1.181102362204724310, 0.6299212598425196763 ) ) ;
#674 = MECHANICAL_CONTEXT ( 'NONE', #200, 'mechanical' ) ;
#675 = VERTEX_POINT ( 'NONE', #704 ) ;
#676 = EDGE_CURVE ( 'NONE', #575, #618, #714, .T. ) ;
#677 = DIRECTION ( 'NONE',  ( 0.000000000000000000, 1.000000000000000000, 0.000000000000000000 ) ) ;
#678 = ORIENTED_EDGE ( 'NONE', *, *, #100, .F. ) ;
#679 = PERSON_AND_ORGANIZATION ( #461, #188 ) ;
#680 = ORIENTED_EDGE ( 'NONE', *, *, #580, .T. ) ;
#681 = CARTESIAN_POINT ( 'NONE',  ( -1.870078740157480324, 0.7086614173228347191, 0.6299212598425196763 ) ) ;
#682 = DIRECTION ( 'NONE',  ( 0.000000000000000000, 1.000000000000000000, 0.000000000000000000 ) ) ;
#683 = LOCAL_TIME ( 21, 23, 27.00000000000000000, #515 ) ;
#684 = VECTOR ( 'NONE', #682, 39.37007874015748143 ) ;
#685 = DIRECTION ( 'NONE',  ( 1.000000000000000000, 0.000000000000000000, 0.000000000000000000 ) ) ;
#686 = EDGE_LOOP ( 'NONE', ( #231, #24, #282, #28 ) ) ;
#687 = FACE_OUTER_BOUND ( 'NONE', #144, .T. ) ;
#688 = CARTESIAN_POINT ( 'NONE',  ( 1.870078740157480324, 0.7086614173228347191, 0.4724409448818898127 ) ) ;
#689 = EDGE_CURVE ( 'NONE', #595, #770, #162, .T. ) ;
#690 = APPROVAL_STATUS ( 'not_yet_approved' ) ;
#691 = ORIENTED_EDGE ( 'NONE', *, *, #288, .T. ) ;
#692 = PLANE ( 'NONE',  #428 ) ;
#693 = VERTEX_POINT ( 'NONE', #591 ) ;
#694 = PERSON_AND_ORGANIZATION ( #461, #188 ) ;
#695 = VERTEX_POINT ( 'NONE', #26 ) ;
#696 = CARTESIAN_POINT ( 'NONE',  ( -1.870078740157480324, -0.1574803149606299191, 0.6299212598425196763 ) ) ;
#697 = DIRECTION ( 'NONE',  ( 0.000000000000000000, 0.000000000000000000, 1.000000000000000000 ) ) ;
#698 = EDGE_LOOP ( 'NONE', ( #240, #713, #635, #293 ) ) ;
#699 = EDGE_CURVE ( 'NONE', #91, #613, #342, .T. ) ;
#700 = VECTOR ( 'NONE', #96, 39.37007874015748143 ) ;
#701 = PLANE ( 'NONE',  #779 ) ;
#702 = UNCERTAINTY_MEASURE_WITH_UNIT (LENGTH_MEASURE( 1.000000000000000082E-05 ), #482, 'distance_accuracy_value', 'NONE');
#703 = VERTEX_POINT ( 'NONE', #289 ) ;
#704 = CARTESIAN_POINT ( 'NONE',  ( -1.870078740157480324, -0.9448818897637796255, 0.6299212598425196763 ) ) ;
#705 = CARTESIAN_POINT ( 'NONE',  ( 1.870078740157480324, 0.9448818897637796255, 0.6299212598425196763 ) ) ;
#706 = ORIENTED_EDGE ( 'NONE', *, *, #453, .F. ) ;
#707 = CARTESIAN_POINT ( 'NONE',  ( -1.870078740157480324, 0.9448818897637796255, 0.6299212598425196763 ) ) ;
#708 = FACE_OUTER_BOUND ( 'NONE', #338, .T. ) ;
#709 = ORIENTED_EDGE ( 'NONE', *, *, #712, .F. ) ;
#710 = CARTESIAN_POINT ( 'NONE',  ( 1.870078740157480324, -0.3937007874015748254, 0.4724409448818898127 ) ) ;
#711 = CARTESIAN_POINT ( 'NONE',  ( 1.870078740157480324, -0.9448818897637796255, 0.4724409448818898127 ) ) ;
#712 = EDGE_CURVE ( 'NONE', #755, #139, #785, .T. ) ;
#713 = ORIENTED_EDGE ( 'NONE', *, *, #477, .F. ) ;
#714 = LINE ( 'NONE', #88, #78 ) ;
#715 = ADVANCED_FACE ( 'NONE', ( #417 ), #487, .F. ) ;
#716 = FACE_BOUND ( 'NONE', #67, .T. ) ;
#717 = DIRECTION ( 'NONE',  ( 0.000000000000000000, -0.000000000000000000, -1.000000000000000000 ) ) ;
#718 = DIRECTION ( 'NONE',  ( -0.000000000000000000, -0.000000000000000000, -1.000000000000000000 ) ) ;
#719 = PRODUCT ( 'straight_slot_block-four-slots', 'straight_slot_block-four-slots', '', ( #674 ) ) ;
#720 = CARTESIAN_POINT ( 'NONE',  ( 1.870078740157480324, 0.9448818897637796255, 0.4724409448818898127 ) ) ;
#721 = EDGE_CURVE ( 'NONE', #91, #757, #101, .T. ) ;
#722 = LINE ( 'NONE', #789, #114 ) ;
#723 = VECTOR ( 'NONE', #446, 39.37007874015748143 ) ;
#724 = VECTOR ( 'NONE', #544, 39.37007874015748143 ) ;
#725 = FACE_OUTER_BOUND ( 'NONE', #651, .T. ) ;
#726 = CARTESIAN_POINT ( 'NONE',  ( -1.870078740157480324, -0.9448818897637796255, 0.4724409448818898127 ) ) ;
#727 = EDGE_CURVE ( 'NONE', #7, #139, #224, .T. ) ;
#728 = DIRECTION ( 'NONE',  ( 0.000000000000000000, -1.000000000000000000, 0.000000000000000000 ) ) ;
#729 = CARTESIAN_POINT ( 'NONE',  ( -2.362204724409448620, 1.181102362204724310, 0.6299212598425196763 ) ) ;
#730 = CARTESIAN_POINT ( 'NONE',  ( 0.000000000000000000, 0.000000000000000000, 0.4724409448818898127 ) ) ;
#731 = EDGE_CURVE ( 'NONE', #139, #577, #222, .T. ) ;
#732 = LINE ( 'NONE', #286, #724 ) ;
#733 = ORIENTED_EDGE ( 'NONE', *, *, #699, .T. ) ;
#734 = DIRECTION ( 'NONE',  ( -0.000000000000000000, -1.000000000000000000, -0.000000000000000000 ) ) ;
#735 = LINE ( 'NONE', #430, #25 ) ;
#736 = AXIS2_PLACEMENT_3D ( 'NONE', #173, #728, #717 ) ;
#737 = VECTOR ( 'NONE', #646, 39.37007874015748143 ) ;
#738 = EDGE_CURVE ( 'NONE', #84, #380, #554, .T. ) ;
#739 = AXIS2_PLACEMENT_3D ( 'NONE', #769, #533, #213 ) ;
#740 = ORIENTED_EDGE ( 'NONE', *, *, #631, .T. ) ;
#741 = CARTESIAN_POINT ( 'NONE',  ( 1.870078740157480324, -0.9448818897637796255, 0.4724409448818898127 ) ) ;
#742 = EDGE_LOOP ( 'NONE', ( #233, #733, #559, #654 ) ) ;
#743 = CALENDAR_DATE ( 2026, 16, 8 ) ;
#744 = ORIENTED_EDGE ( 'NONE', *, *, #631, .F. ) ;
#745 = CARTESIAN_POINT ( 'NONE',  ( 1.870078740157480324, 0.1574803149606299191, 0.6299212598425196763 ) ) ;
#746 = ORIENTED_EDGE ( 'NONE', *, *, #275, .T. ) ;
#747 = APPROVAL_STATUS ( 'not_yet_approved' ) ;
#748 = ORIENTED_EDGE ( 'NONE', *, *, #151, .F. ) ;
#749 = DIRECTION ( 'NONE',  ( 0.000000000000000000, 0.000000000000000000, -1.000000000000000000 ) ) ;
#750 = ORIENTED_EDGE ( 'NONE', *, *, #29, .F. ) ;
#751 = EDGE_CURVE ( 'NONE', #703, #695, #540, .T. ) ;
#752 = AXIS2_PLACEMENT_3D ( 'NONE', #153, #220, #470 ) ;
#753 = CARTESIAN_POINT ( 'NONE',  ( -1.870078740157480324, -0.3937007874015748254, 0.4724409448818898127 ) ) ;
#754 = DATE_AND_TIME ( #500, #683 ) ;
#755 = VERTEX_POINT ( 'NONE', #720 ) ;
#756 = DIRECTION ( 'NONE',  ( -0.000000000000000000, 1.000000000000000000, 0.000000000000000000 ) ) ;
#757 = VERTEX_POINT ( 'NONE', #665 ) ;
#758 = ADVANCED_FACE ( 'NONE', ( #165 ), #790, .F. ) ;
#759 = APPROVAL_ROLE ( '' ) ;
#760 = ORIENTED_EDGE ( 'NONE', *, *, #727, .T. ) ;
#761 = CARTESIAN_POINT ( 'NONE',  ( -1.870078740157480324, 0.9448818897637796255, 0.4724409448818898127 ) ) ;
#762 = CARTESIAN_POINT ( 'NONE',  ( 2.362204724409448620, -1.181102362204724310, 0.6299212598425196763 ) ) ;
#763 = EDGE_CURVE ( 'NONE', #624, #366, #732, .T. ) ;
#764 = ORIENTED_EDGE ( 'NONE', *, *, #353, .T. ) ;
#765 = LINE ( 'NONE', #22, #510 ) ;
#766 = PRODUCT_DEFINITION ( 'UNKNOWN', '', #19, #525 ) ;
#767 = ORIENTED_EDGE ( 'NONE', *, *, #453, .T. ) ;
#768 = DIRECTION ( 'NONE',  ( -0.000000000000000000, -0.000000000000000000, 1.000000000000000000 ) ) ;
#769 = CARTESIAN_POINT ( 'NONE',  ( -1.870078740157480324, 0.1574803149606299191, 0.4724409448818898127 ) ) ;
#770 = VERTEX_POINT ( 'NONE', #229 ) ;
#771 = PLANE ( 'NONE',  #752 ) ;
#772 = FACE_OUTER_BOUND ( 'NONE', #800, .T. ) ;
#773 = ORIENTED_EDGE ( 'NONE', *, *, #551, .F. ) ;
#774 = CARTESIAN_POINT ( 'NONE',  ( 1.870078740157480324, -0.9448818897637796255, 0.6299212598425196763 ) ) ;
#775 = ADVANCED_FACE ( 'NONE', ( #725 ), #478, .F. ) ;
#776 = VERTEX_POINT ( 'NONE', #171 ) ;
#777 = DIRECTION ( 'NONE',  ( -1.000000000000000000, 0.000000000000000000, -0.000000000000000000 ) ) ;
#778 = CC_DESIGN_APPROVAL ( #602, ( #19 ) ) ;
#779 = AXIS2_PLACEMENT_3D ( 'NONE', #146, #537, #777 ) ;
#780 = VECTOR ( 'NONE', #351, 39.37007874015748143 ) ;
#781 = CARTESIAN_POINT ( 'NONE',  ( 1.870078740157480324, 0.7086614173228347191, 0.6299212598425196763 ) ) ;
#782 = DIRECTION ( 'NONE',  ( -1.000000000000000000, 0.000000000000000000, -0.000000000000000000 ) ) ;
#783 = DIRECTION ( 'NONE',  ( 0.000000000000000000, -0.000000000000000000, -1.000000000000000000 ) ) ;
#784 = CARTESIAN_POINT ( 'NONE',  ( -1.870078740157480324, -0.9448818897637796255, 0.6299212598425196763 ) ) ;
#785 = LINE ( 'NONE', #163, #611 ) ;
#786 = FACE_OUTER_BOUND ( 'NONE', #341, .T. ) ;
#787 = AXIS2_PLACEMENT_3D ( 'NONE', #86, #588, #23 ) ;
#788 = FACE_OUTER_BOUND ( 'NONE', #507, .T. ) ;
#789 = CARTESIAN_POINT ( 'NONE',  ( -1.870078740157480324, 0.1574803149606299191, 0.4724409448818898127 ) ) ;
#790 = PLANE ( 'NONE',  #418 ) ;
#791 = ORIENTED_EDGE ( 'NONE', *, *, #594, .T. ) ;
#792 = CARTESIAN_POINT ( 'NONE',  ( -2.362204724409448620, -1.181102362204724310, 0.6299212598425196763 ) ) ;
#793 = ORIENTED_EDGE ( 'NONE', *, *, #33, .T. ) ;
#794 = CARTESIAN_POINT ( 'NONE',  ( 1.870078740157480324, 0.3937007874015748254, 0.6299212598425196763 ) ) ;
#795 = ADVANCED_FACE ( 'NONE', ( #788 ), #108, .F. ) ;
#796 = PERSON_AND_ORGANIZATION_ROLE ( 'design_supplier' ) ;
#797 = PLANE ( 'NONE',  #460 ) ;
#798 = ORIENTED_EDGE ( 'NONE', *, *, #721, .F. ) ;
#799 = CARTESIAN_POINT ( 'NONE',  ( -1.870078740157480324, 0.9448818897637796255, 0.4724409448818898127 ) ) ;
#800 = EDGE_LOOP ( 'NONE', ( #12, #10, #245, #208 ) ) ;
#801 = DIRECTION ( 'NONE',  ( 0.000000000000000000, 0.000000000000000000, -1.000000000000000000 ) ) ;
#802 = AXIS2_PLACEMENT_3D ( 'NONE', #753, #325, #553 ) ;
#803 = VECTOR ( 'NONE', #212, 39.37007874015748143 ) ;
#804 = COORDINATED_UNIVERSAL_TIME_OFFSET ( 8, 0, .AHEAD. ) ;
#805 = ORIENTED_EDGE ( 'NONE', *, *, #104, .T. ) ;
#806 = PLANE ( 'NONE',  #802 ) ;
#807 = LINE ( 'NONE', #376, #386 ) ;
#808 = VERTEX_POINT ( 'NONE', #34 ) ;
ENDSEC;
END-ISO-10303-21;
