  0
SECTION
  2
HEADER
  9
$ACADVER
  1
AC1009
  9
$INSBASE
 10
0.0
 20
0.0
 30
0.0
  9
$EXTMIN
 10
0.0
 20
0.0
 30
0.0
  9
$EXTMAX
 10
0.0
 20
0.0
 30
0.0
  0
ENDSEC
  0
SECTION
  2
TABLES
  0
TABLE
  2
VPORT
 70
0
  0
ENDTAB
  0
TABLE
  2
LTYPE
 70
1
  0
LTYPE
  2
CONTINUOUS
 70
0
  3
Solid line
 72
65
 73
0
 40
0.0
  0
ENDTAB
  0
TABLE
  2
LAYER
 70
1
  0
LAYER
  2
0
 70
64
 62
7
  6
continuous
  0
ENDTAB
  0
TABLE
  2
STYLE
 70
1
  0
STYLE
  2
STANDARD
 70
0
 40
0
 41
1.0
 50
0.0
 71
0
 42
1
 3
ARIAL.TTF
 4

  0
ENDTAB
  0
TABLE
  2
VIEW
 70
0
  0
ENDTAB
  0
ENDSEC
  0
SECTION
  2
BLOCKS
  0
BLOCK
  8
0
  2
SHAPESTRING
 70
0
 10
0.0
 20
0.0
 30
0.0
  3
SHAPESTRING
  0
POLYLINE
  8
0
 62
0
 70
1
 66
1
 10
0.0
 20
0.0
 30
0.0
  0
VERTEX
  8
0
 10
34.332109899328856
 20
113.91275167785236
 30
0.0
  0
VERTEX
  8
0
 10
32.88747902684564
 20
113.91275167785236
 30
0.0
  0
VERTEX
  8
0
 10
32.88747902684564
 20
112.94496644295302
 30
0.0
  0
VERTEX
  8
0
 10
34.191170302013425
 20
112.94496644295302
 30
0.0
  0
VERTEX
  8
0
 10
34.191170302013425
 20
112.56912751677852
 30
0.0
  0
VERTEX
  8
0
 10
32.88747902684564
 20
112.56912751677852
 30
0.0
  0
VERTEX
  8
0
 10
32.88747902684564
 20
111.0
 30
0.0
  0
VERTEX
  8
0
 10
32.44263842281879
 20
111.0
 30
0.0
  0
VERTEX
  8
0
 10
32.44263842281879
 20
114.28859060402685
 30
0.0
  0
VERTEX
  8
0
 10
34.332109899328856
 20
114.28859060402685
 30
0.0
  0
SEQEND
  8
0
  0
POLYLINE
  8
0
 62
0
 70
1
 66
1
 10
0.0
 20
0.0
 30
0.0
  0
VERTEX
  8
0
 10
37.14561661073826
 20
111.89922399328859
 30
0.0
  0
VERTEX
  8
0
 10
37.59706375838926
 20
111.0
 30
0.0
  0
VERTEX
  8
0
 10
37.11919043624161
 20
111.0
 30
0.0
  0
VERTEX
  8
0
 10
36.69857382550336
 20
111.84402265100671
 30
0.0
  0
VERTEX
  8
0
 10
36.38248741610738
 20
112.28255033557048
 30
0.0
  0
VERTEX
  8
0
 10
35.965247483221475
 20
112.39060402684564
 30
0.0
  0
VERTEX
  8
0
 10
35.480767617449665
 20
112.39060402684564
 30
0.0
  0
VERTEX
  8
0
 10
35.480767617449665
 20
111.0
 30
0.0
  0
VERTEX
  8
0
 10
35.03592701342282
 20
111.0
 30
0.0
  0
VERTEX
  8
0
 10
35.03592701342282
 20
114.28859060402685
 30
0.0
  0
VERTEX
  8
0
 10
36.040121644295304
 20
114.28859060402685
 30
0.0
  0
VERTEX
  8
0
 10
36.88135486577181
 20
114.0529572147651
 30
0.0
  0
VERTEX
  8
0
 10
37.158829697986576
 20
113.34194630872483
 30
0.0
  0
VERTEX
  8
0
 10
37.014513422818794
 20
112.82678271812081
 30
0.0
  0
VERTEX
  8
0
 10
36.59507130872483
 20
112.54284815436242
 30
0.0
  0
VERTEX
  8
0
 10
36.87357382550336
 20
112.33569630872483
 30
0.0
  0
SEQEND
  8
0
  0
POLYLINE
  8
0
 62
0
 70
1
 66
1
 10
0.0
 20
0.0
 30
0.0
  0
VERTEX
  8
0
 10
36.040121644295304
 20
112.75704697986578
 30
0.0
  0
VERTEX
  8
0
 10
36.52562919463087
 20
112.90532718120805
 30
0.0
  0
VERTEX
  8
0
 10
36.68976510067114
 20
113.3417994966443
 30
0.0
  0
VERTEX
  8
0
 10
36.52562919463087
 20
113.77592281879194
 30
0.0
  0
VERTEX
  8
0
 10
36.040121644295304
 20
113.92214765100671
 30
0.0
  0
VERTEX
  8
0
 10
35.480767617449665
 20
113.92214765100671
 30
0.0
  0
VERTEX
  8
0
 10
35.480767617449665
 20
112.75704697986578
 30
0.0
  0
SEQEND
  8
0
  0
POLYLINE
  8
0
 62
0
 70
1
 66
1
 10
0.0
 20
0.0
 30
0.0
  0
VERTEX
  8
0
 10
40.25304110738255
 20
113.91275167785236
 30
0.0
  0
VERTEX
  8
0
 10
38.61902265100671
 20
113.91275167785236
 30
0.0
  0
VERTEX
  8
0
 10
38.61902265100671
 20
112.93557046979866
 30
0.0
  0
VERTEX
  8
0
 10
40.18477348993289
 20
112.93557046979866
 30
0.0
  0
VERTEX
  8
0
 10
40.18477348993289
 20
112.55973154362417
 30
0.0
  0
VERTEX
  8
0
 10
38.61902265100671
 20
112.55973154362417
 30
0.0
  0
VERTEX
  8
0
 10
38.61902265100671
 20
111.3758389261745
 30
0.0
  0
VERTEX
  8
0
 10
40.29268036912752
 20
111.3758389261745
 30
0.0
  0
VERTEX
  8
0
 10
40.29268036912752
 20
111.0
 30
0.0
  0
VERTEX
  8
0
 10
38.174182046979865
 20
111.0
 30
0.0
  0
VERTEX
  8
0
 10
38.174182046979865
 20
114.28859060402685
 30
0.0
  0
VERTEX
  8
0
 10
40.25304110738255
 20
114.28859060402685
 30
0.0
  0
SEQEND
  8
0
  0
POLYLINE
  8
0
 62
0
 70
1
 66
1
 10
0.0
 20
0.0
 30
0.0
  0
VERTEX
  8
0
 10
43.100020973154365
 20
113.91275167785236
 30
0.0
  0
VERTEX
  8
0
 10
41.466002516778524
 20
113.91275167785236
 30
0.0
  0
VERTEX
  8
0
 10
41.466002516778524
 20
112.93557046979866
 30
0.0
  0
VERTEX
  8
0
 10
43.0317533557047
 20
112.93557046979866
 30
0.0
  0
VERTEX
  8
0
 10
43.0317533557047
 20
112.55973154362417
 30
0.0
  0
VERTEX
  8
0
 10
41.466002516778524
 20
112.55973154362417
 30
0.0
  0
VERTEX
  8
0
 10
41.466002516778524
 20
111.3758389261745
 30
0.0
  0
VERTEX
  8
0
 10
43.13966023489933
 20
111.3758389261745
 30
0.0
  0
VERTEX
  8
0
 10
43.13966023489933
 20
111.0
 30
0.0
  0
VERTEX
  8
0
 10
41.02116191275168
 20
111.0
 30
0.0
  0
VERTEX
  8
0
 10
41.02116191275168
 20
114.28859060402685
 30
0.0
  0
VERTEX
  8
0
 10
43.100020973154365
 20
114.28859060402685
 30
0.0
  0
SEQEND
  8
0
  0
POLYLINE
  8
0
 62
0
 70
1
 66
1
 10
0.0
 20
0.0
 30
0.0
  0
VERTEX
  8
0
 10
45.85113255033557
 20
113.87560822147651
 30
0.0
  0
VERTEX
  8
0
 10
45.31057046979866
 20
113.97852348993288
 30
0.0
  0
VERTEX
  8
0
 10
44.44731543624161
 20
113.6341023489933
 30
0.0
  0
VERTEX
  8
0
 10
44.14781879194631
 20
112.63856963087248
 30
0.0
  0
VERTEX
  8
0
 10
44.44731543624161
 20
111.64494546979866
 30
0.0
  0
VERTEX
  8
0
 10
45.31057046979866
 20
111.3006711409396
 30
0.0
  0
VERTEX
  8
0
 10
45.85113255033557
 20
111.40343959731544
 30
0.0
  0
VERTEX
  8
0
 10
46.33018036912752
 20
111.71409395973154
 30
0.0
  0
VERTEX
  8
0
 10
46.33018036912752
 20
111.25369127516778
 30
0.0
  0
VERTEX
  8
0
 10
45.8357172818792
 20
111.01409395973154
 30
0.0
  0
VERTEX
  8
0
 10
45.28414429530201
 20
110.93422818791946
 30
0.0
  0
VERTEX
  8
0
 10
44.10817953020134
 20
111.39110738255033
 30
0.0
  0
VERTEX
  8
0
 10
43.67875419463087
 20
112.63856963087248
 30
0.0
  0
VERTEX
  8
0
 10
44.10817953020134
 20
113.88808724832215
 30
0.0
  0
VERTEX
  8
0
 10
45.28414429530201
 20
114.34496644295302
 30
0.0
  0
VERTEX
  8
0
 10
45.8401216442953
 20
114.26744966442953
 30
0.0
  0
VERTEX
  8
0
 10
46.33018036912752
 20
114.03489932885905
 30
0.0
  0
VERTEX
  8
0
 10
46.33018036912752
 20
113.56510067114094
 30
0.0
  0
SEQEND
  8
0
  0
POLYLINE
  8
0
 62
0
 70
1
 66
1
 10
0.0
 20
0.0
 30
0.0
  0
VERTEX
  8
0
 10
49.62097315436242
 20
111.0
 30
0.0
  0
VERTEX
  8
0
 10
49.15851510067114
 20
111.0
 30
0.0
  0
VERTEX
  8
0
 10
48.859018456375836
 20
111.84563758389261
 30
0.0
  0
VERTEX
  8
0
 10
47.37695050335571
 20
111.84563758389261
 30
0.0
  0
VERTEX
  8
0
 10
47.077453859060405
 20
111.0
 30
0.0
  0
VERTEX
  8
0
 10
46.60838926174497
 20
111.0
 30
0.0
  0
VERTEX
  8
0
 10
47.86363255033557
 20
114.28859060402685
 30
0.0
  0
VERTEX
  8
0
 10
48.36793204697987
 20
114.28859060402685
 30
0.0
  0
SEQEND
  8
0
  0
POLYLINE
  8
0
 62
0
 70
1
 66
1
 10
0.0
 20
0.0
 30
0.0
  0
VERTEX
  8
0
 10
48.72028104026846
 20
112.21208053691275
 30
0.0
  0
VERTEX
  8
0
 10
48.114681208053696
 20
113.84991610738255
 30
0.0
  0
VERTEX
  8
0
 10
47.51128355704698
 20
112.21208053691275
 30
0.0
  0
SEQEND
  8
0
  0
POLYLINE
  8
0
 62
0
 70
1
 66
1
 10
0.0
 20
0.0
 30
0.0
  0
VERTEX
  8
0
 10
52.414366610738256
 20
113.89102348993289
 30
0.0
  0
VERTEX
  8
0
 10
52.861409395973155
 20
112.64752516778523
 30
0.0
  0
VERTEX
  8
0
 10
52.4121644295302
 20
111.39859479865771
 30
0.0
  0
VERTEX
  8
0
 10
51.011577181208054
 20
111.0
 30
0.0
  0
VERTEX
  8
0
 10
50.09767197986577
 20
111.0
 30
0.0
  0
VERTEX
  8
0
 10
50.09767197986577
 20
114.28859060402685
 30
0.0
  0
VERTEX
  8
0
 10
51.011577181208054
 20
114.28859060402685
 30
0.0
  0
SEQEND
  8
0
  0
POLYLINE
  8
0
 62
0
 70
1
 66
1
 10
0.0
 20
0.0
 30
0.0
  0
VERTEX
  8
0
 10
51.07984479865772
 20
111.36644295302014
 30
0.0
  0
VERTEX
  8
0
 10
52.076258389261746
 20
111.67460151006712
 30
0.0
  0
VERTEX
  8
0
 10
52.39234479865772
 20
112.64752516778523
 30
0.0
  0
VERTEX
  8
0
 10
52.076258389261746
 20
113.6150167785235
 30
0.0
  0
VERTEX
  8
0
 10
51.07984479865772
 20
113.92214765100671
 30
0.0
  0
VERTEX
  8
0
 10
50.542512583892616
 20
113.92214765100671
 30
0.0
  0
VERTEX
  8
0
 10
50.542512583892616
 20
111.36644295302014
 30
0.0
  0
SEQEND
  8
0
  0
POLYLINE
  8
0
 62
0
 70
1
 66
1
 10
0.0
 20
0.0
 30
0.0
  0
VERTEX
  8
0
 10
53.087500000000006
 20
109.93825503355704
 30
0.0
  0
VERTEX
  8
0
 10
53.087500000000006
 20
110.25771812080536
 30
0.0
  0
VERTEX
  8
0
 10
55.43062080536913
 20
110.25771812080536
 30
0.0
  0
VERTEX
  8
0
 10
55.43062080536913
 20
109.93825503355704
 30
0.0
  0
SEQEND
  8
0
  0
POLYLINE
  8
0
 62
0
 70
1
 66
1
 10
0.0
 20
0.0
 30
0.0
  0
VERTEX
  8
0
 10
58.15471895973155
 20
113.91275167785236
 30
0.0
  0
VERTEX
  8
0
 10
56.98756291946309
 20
113.91275167785236
 30
0.0
  0
VERTEX
  8
0
 10
56.98756291946309
 20
111.0
 30
0.0
  0
VERTEX
  8
0
 10
56.54052013422819
 20
111.0
 30
0.0
  0
VERTEX
  8
0
 10
56.54052013422819
 20
113.91275167785236
 30
0.0
  0
VERTEX
  8
0
 10
55.37336409395974
 20
113.91275167785236
 30
0.0
  0
VERTEX
  8
0
 10
55.37336409395974
 20
114.28859060402685
 30
0.0
  0
VERTEX
  8
0
 10
58.15471895973155
 20
114.28859060402685
 30
0.0
  0
SEQEND
  8
0
  0
POLYLINE
  8
0
 62
0
 70
1
 66
1
 10
0.0
 20
0.0
 30
0.0
  0
VERTEX
  8
0
 10
61.43626258389262
 20
112.63856963087248
 30
0.0
  0
VERTEX
  8
0
 10
61.02225251677852
 20
111.3977139261745
 30
0.0
  0
VERTEX
  8
0
 10
59.916757550335575
 20
110.93422818791946
 30
0.0
  0
VERTEX
  8
0
 10
58.80788590604027
 20
111.39653942953021
 30
0.0
  0
VERTEX
  8
0
 10
58.39284815436242
 20
112.63856963087248
 30
0.0
  0
VERTEX
  8
0
 10
58.80788590604027
 20
113.88148070469799
 30
0.0
  0
VERTEX
  8
0
 10
59.916757550335575
 20
114.34496644295302
 30
0.0
  0
VERTEX
  8
0
 10
61.02225251677852
 20
113.88148070469799
 30
0.0
  0
SEQEND
  8
0
  0
POLYLINE
  8
0
 62
0
 70
1
 66
1
 10
0.0
 20
0.0
 30
0.0
  0
VERTEX
  8
0
 10
58.861912751677856
 20
112.63842281879195
 30
0.0
  0
VERTEX
  8
0
 10
59.14702181208054
 20
111.6534605704698
 30
0.0
  0
VERTEX
  8
0
 10
59.916757550335575
 20
111.29127516778523
 30
0.0
  0
VERTEX
  8
0
 10
60.68414429530202
 20
111.6534605704698
 30
0.0
  0
VERTEX
  8
0
 10
60.96719798657718
 20
112.63842281879195
 30
0.0
  0
VERTEX
  8
0
 10
60.68414429530202
 20
113.62573406040268
 30
0.0
  0
VERTEX
  8
0
 10
59.916757550335575
 20
113.98791946308725
 30
0.0
  0
VERTEX
  8
0
 10
59.14702181208054
 20
113.62573406040268
 30
0.0
  0
SEQEND
  8
0
  0
POLYLINE
  8
0
 62
0
 70
1
 66
1
 10
0.0
 20
0.0
 30
0.0
  0
VERTEX
  8
0
 10
61.647231543624166
 20
109.93825503355704
 30
0.0
  0
VERTEX
  8
0
 10
61.647231543624166
 20
110.25771812080536
 30
0.0
  0
VERTEX
  8
0
 10
63.9903523489933
 20
110.25771812080536
 30
0.0
  0
VERTEX
  8
0
 10
63.9903523489933
 20
109.93825503355704
 30
0.0
  0
SEQEND
  8
0
  0
POLYLINE
  8
0
 62
0
 70
1
 66
1
 10
0.0
 20
0.0
 30
0.0
  0
VERTEX
  8
0
 10
64.83378775167785
 20
112.89872063758389
 30
0.0
  0
VERTEX
  8
0
 10
66.30924916107384
 20
114.28859060402685
 30
0.0
  0
VERTEX
  8
0
 10
66.88181627516778
 20
114.28859060402685
 30
0.0
  0
VERTEX
  8
0
 10
65.25
 20
112.7555788590604
 30
0.0
  0
VERTEX
  8
0
 10
66.99853187919464
 20
111.0
 30
0.0
  0
VERTEX
  8
0
 10
66.41275167785236
 20
111.0
 30
0.0
  0
VERTEX
  8
0
 10
64.83378775167785
 20
112.58366191275168
 30
0.0
  0
VERTEX
  8
0
 10
64.83378775167785
 20
111.0
 30
0.0
  0
VERTEX
  8
0
 10
64.38894714765101
 20
111.0
 30
0.0
  0
VERTEX
  8
0
 10
64.38894714765101
 20
114.28859060402685
 30
0.0
  0
VERTEX
  8
0
 10
64.83378775167785
 20
114.28859060402685
 30
0.0
  0
SEQEND
  8
0
  0
POLYLINE
  8
0
 62
0
 70
1
 66
1
 10
0.0
 20
0.0
 30
0.0
  0
VERTEX
  8
0
 10
67.79351929530202
 20
111.0
 30
0.0
  0
VERTEX
  8
0
 10
67.34867869127517
 20
111.0
 30
0.0
  0
VERTEX
  8
0
 10
67.34867869127517
 20
114.28859060402685
 30
0.0
  0
VERTEX
  8
0
 10
67.79351929530202
 20
114.28859060402685
 30
0.0
  0
SEQEND
  8
0
  0
POLYLINE
  8
0
 62
0
 70
1
 66
1
 10
0.0
 20
0.0
 30
0.0
  0
VERTEX
  8
0
 10
70.66589765100672
 20
113.87560822147651
 30
0.0
  0
VERTEX
  8
0
 10
70.1253355704698
 20
113.97852348993288
 30
0.0
  0
VERTEX
  8
0
 10
69.26208053691275
 20
113.6341023489933
 30
0.0
  0
VERTEX
  8
0
 10
68.96258389261746
 20
112.63856963087248
 30
0.0
  0
VERTEX
  8
0
 10
69.26208053691275
 20
111.64494546979866
 30
0.0
  0
VERTEX
  8
0
 10
70.1253355704698
 20
111.3006711409396
 30
0.0
  0
VERTEX
  8
0
 10
70.66589765100672
 20
111.40343959731544
 30
0.0
  0
VERTEX
  8
0
 10
71.14494546979867
 20
111.71409395973154
 30
0.0
  0
VERTEX
  8
0
 10
71.14494546979867
 20
111.25369127516778
 30
0.0
  0
VERTEX
  8
0
 10
70.65048238255034
 20
111.01409395973154
 30
0.0
  0
VERTEX
  8
0
 10
70.09890939597315
 20
110.93422818791946
 30
0.0
  0
VERTEX
  8
0
 10
68.92294463087248
 20
111.39110738255033
 30
0.0
  0
VERTEX
  8
0
 10
68.49351929530202
 20
112.63856963087248
 30
0.0
  0
VERTEX
  8
0
 10
68.92294463087248
 20
113.88808724832215
 30
0.0
  0
VERTEX
  8
0
 10
70.09890939597315
 20
114.34496644295302
 30
0.0
  0
VERTEX
  8
0
 10
70.65488674496645
 20
114.26744966442953
 30
0.0
  0
VERTEX
  8
0
 10
71.14494546979867
 20
114.03489932885905
 30
0.0
  0
VERTEX
  8
0
 10
71.14494546979867
 20
113.56510067114094
 30
0.0
  0
SEQEND
  8
0
  0
POLYLINE
  8
0
 62
0
 70
1
 66
1
 10
0.0
 20
0.0
 30
0.0
  0
VERTEX
  8
0
 10
74.43573825503356
 20
111.0
 30
0.0
  0
VERTEX
  8
0
 10
73.97328020134228
 20
111.0
 30
0.0
  0
VERTEX
  8
0
 10
73.67378355704699
 20
111.84563758389261
 30
0.0
  0
VERTEX
  8
0
 10
72.19171560402685
 20
111.84563758389261
 30
0.0
  0
VERTEX
  8
0
 10
71.89221895973154
 20
111.0
 30
0.0
  0
VERTEX
  8
0
 10
71.42315436241611
 20
111.0
 30
0.0
  0
VERTEX
  8
0
 10
72.67839765100672
 20
114.28859060402685
 30
0.0
  0
VERTEX
  8
0
 10
73.18269714765101
 20
114.28859060402685
 30
0.0
  0
SEQEND
  8
0
  0
POLYLINE
  8
0
 62
0
 70
1
 66
1
 10
0.0
 20
0.0
 30
0.0
  0
VERTEX
  8
0
 10
73.5350461409396
 20
112.21208053691275
 30
0.0
  0
VERTEX
  8
0
 10
72.92944630872483
 20
113.84991610738255
 30
0.0
  0
VERTEX
  8
0
 10
72.32604865771813
 20
112.21208053691275
 30
0.0
  0
SEQEND
  8
0
  0
POLYLINE
  8
0
 62
0
 70
1
 66
1
 10
0.0
 20
0.0
 30
0.0
  0
VERTEX
  8
0
 10
77.2291317114094
 20
113.89102348993289
 30
0.0
  0
VERTEX
  8
0
 10
77.67617449664431
 20
112.64752516778523
 30
0.0
  0
VERTEX
  8
0
 10
77.22692953020135
 20
111.39859479865771
 30
0.0
  0
VERTEX
  8
0
 10
75.82634228187919
 20
111.0
 30
0.0
  0
VERTEX
  8
0
 10
74.9124370805369
 20
111.0
 30
0.0
  0
VERTEX
  8
0
 10
74.9124370805369
 20
114.28859060402685
 30
0.0
  0
VERTEX
  8
0
 10
75.82634228187919
 20
114.28859060402685
 30
0.0
  0
SEQEND
  8
0
  0
POLYLINE
  8
0
 62
0
 70
1
 66
1
 10
0.0
 20
0.0
 30
0.0
  0
VERTEX
  8
0
 10
75.89460989932886
 20
111.36644295302014
 30
0.0
  0
VERTEX
  8
0
 10
76.89102348993289
 20
111.67460151006712
 30
0.0
  0
VERTEX
  8
0
 10
77.20710989932886
 20
112.64752516778523
 30
0.0
  0
VERTEX
  8
0
 10
76.89102348993289
 20
113.6150167785235
 30
0.0
  0
VERTEX
  8
0
 10
75.89460989932886
 20
113.92214765100671
 30
0.0
  0
VERTEX
  8
0
 10
75.35727768456377
 20
113.92214765100671
 30
0.0
  0
VERTEX
  8
0
 10
75.35727768456377
 20
111.36644295302014
 30
0.0
  0
SEQEND
  8
0
  0
ENDBLK
  0
BLOCK
  8
0
  2
SHAPESTRING001
 70
0
 10
0.0
 20
0.0
 30
0.0
  3
SHAPESTRING001
  0
POLYLINE
  8
0
 62
0
 70
1
 66
1
 10
0.0
 20
0.0
 30
0.0
  0
VERTEX
  8
0
 10
52.521497483221474
 20
6.9127516778523495
 30
0.0
  0
VERTEX
  8
0
 10
50.88747902684564
 20
6.9127516778523495
 30
0.0
  0
VERTEX
  8
0
 10
50.88747902684564
 20
5.935570469798658
 30
0.0
  0
VERTEX
  8
0
 10
52.45322986577181
 20
5.935570469798658
 30
0.0
  0
VERTEX
  8
0
 10
52.45322986577181
 20
5.559731543624161
 30
0.0
  0
VERTEX
  8
0
 10
50.88747902684564
 20
5.559731543624161
 30
0.0
  0
VERTEX
  8
0
 10
50.88747902684564
 20
4.375838926174497
 30
0.0
  0
VERTEX
  8
0
 10
52.56113674496644
 20
4.375838926174497
 30
0.0
  0
VERTEX
  8
0
 10
52.56113674496644
 20
4.0
 30
0.0
  0
VERTEX
  8
0
 10
50.44263842281879
 20
4.0
 30
0.0
  0
VERTEX
  8
0
 10
50.44263842281879
 20
7.2885906040268456
 30
0.0
  0
VERTEX
  8
0
 10
52.521497483221474
 20
7.2885906040268456
 30
0.0
  0
SEQEND
  8
0
  0
POLYLINE
  8
0
 62
0
 70
1
 66
1
 10
0.0
 20
0.0
 30
0.0
  0
VERTEX
  8
0
 10
54.137458053691276
 20
4.50885067114094
 30
0.0
  0
VERTEX
  8
0
 10
54.826740771812084
 20
7.2885906040268456
 30
0.0
  0
VERTEX
  8
0
 10
55.326635906040266
 20
7.2885906040268456
 30
0.0
  0
VERTEX
  8
0
 10
56.01812080536913
 20
4.50885067114094
 30
0.0
  0
VERTEX
  8
0
 10
56.70740352348993
 20
7.2885906040268456
 30
0.0
  0
VERTEX
  8
0
 10
57.15885067114094
 20
7.2885906040268456
 30
0.0
  0
VERTEX
  8
0
 10
56.333032718120805
 20
4.0
 30
0.0
  0
VERTEX
  8
0
 10
55.773678691275165
 20
4.0
 30
0.0
  0
VERTEX
  8
0
 10
55.079991610738254
 20
6.854614093959732
 30
0.0
  0
VERTEX
  8
0
 10
54.379697986577185
 20
4.0
 30
0.0
  0
VERTEX
  8
0
 10
53.820343959731545
 20
4.0
 30
0.0
  0
VERTEX
  8
0
 10
52.996728187919466
 20
7.2885906040268456
 30
0.0
  0
VERTEX
  8
0
 10
53.44597315436241
 20
7.2885906040268456
 30
0.0
  0
SEQEND
  8
0
  0
POLYLINE
  8
0
 62
0
 70
1
 66
1
 10
0.0
 20
0.0
 30
0.0
  0
VERTEX
  8
0
 10
59.45719379194631
 20
5.146308724832215
 30
0.0
  0
VERTEX
  8
0
 10
59.92625838926175
 20
5.146308724832215
 30
0.0
  0
VERTEX
  8
0
 10
59.92625838926175
 20
4.779865771812081
 30
0.0
  0
VERTEX
  8
0
 10
59.45719379194631
 20
4.779865771812081
 30
0.0
  0
VERTEX
  8
0
 10
59.45719379194631
 20
4.0
 30
0.0
  0
VERTEX
  8
0
 10
59.01455536912752
 20
4.0
 30
0.0
  0
VERTEX
  8
0
 10
59.01455536912752
 20
4.779865771812081
 30
0.0
  0
VERTEX
  8
0
 10
57.53028523489933
 20
4.779865771812081
 30
0.0
  0
VERTEX
  8
0
 10
57.53028523489933
 20
5.208557046979866
 30
0.0
  0
VERTEX
  8
0
 10
58.89783976510067
 20
7.2885906040268456
 30
0.0
  0
VERTEX
  8
0
 10
59.45719379194631
 20
7.2885906040268456
 30
0.0
  0
SEQEND
  8
0
  0
POLYLINE
  8
0
 62
0
 70
1
 66
1
 10
0.0
 20
0.0
 30
0.0
  0
VERTEX
  8
0
 10
59.01455536912752
 20
5.146308724832215
 30
0.0
  0
VERTEX
  8
0
 10
59.01455536912752
 20
6.901153523489933
 30
0.0
  0
VERTEX
  8
0
 10
57.89144295302013
 20
5.146308724832215
 30
0.0
  0
SEQEND
  8
0
  0
POLYLINE
  8
0
 62
0
 70
1
 66
1
 10
0.0
 20
0.0
 30
0.0
  0
VERTEX
  8
0
 10
62.13357802013423
 20
5.3530201342281885
 30
0.0
  0
VERTEX
  8
0
 10
62.13357802013423
 20
5.7194630872483225
 30
0.0
  0
VERTEX
  8
0
 10
63.30073406040269
 20
5.7194630872483225
 30
0.0
  0
VERTEX
  8
0
 10
63.30073406040269
 20
4.305075503355705
 30
0.0
  0
VERTEX
  8
0
 10
62.73257130872483
 20
4.02804110738255
 30
0.0
  0
VERTEX
  8
0
 10
62.06971476510067
 20
3.934228187919463
 30
0.0
  0
VERTEX
  8
0
 10
60.863947147651004
 20
4.384500838926175
 30
0.0
  0
VERTEX
  8
0
 10
60.42908976510067
 20
5.6385696308724835
 30
0.0
  0
VERTEX
  8
0
 10
60.863947147651004
 20
6.89469379194631
 30
0.0
  0
VERTEX
  8
0
 10
62.06971476510067
 20
7.34496644295302
 30
0.0
  0
VERTEX
  8
0
 10
62.680746644295304
 20
7.266275167785235
 30
0.0
  0
VERTEX
  8
0
 10
63.21484899328859
 20
7.03489932885906
 30
0.0
  0
VERTEX
  8
0
 10
63.21484899328859
 20
6.565100671140939
 30
0.0
  0
VERTEX
  8
0
 10
62.690729865771814
 20
6.874580536912752
 30
0.0
  0
VERTEX
  8
0
 10
62.10715184563759
 20
6.978523489932886
 30
0.0
  0
VERTEX
  8
0
 10
61.200880872483225
 20
6.641883389261745
 30
0.0
  0
VERTEX
  8
0
 10
60.89815436241611
 20
5.6385696308724835
 30
0.0
  0
VERTEX
  8
0
 10
61.200880872483225
 20
4.637311241610738
 30
0.0
  0
VERTEX
  8
0
 10
62.10715184563759
 20
4.300671140939597
 30
0.0
  0
VERTEX
  8
0
 10
62.52776845637584
 20
4.341484899328859
 30
0.0
  0
VERTEX
  8
0
 10
62.86029781879195
 20
4.4683305369127515
 30
0.0
  0
VERTEX
  8
0
 10
62.86029781879195
 20
5.3530201342281885
 30
0.0
  0
SEQEND
  8
0
  0
POLYLINE
  8
0
 62
0
 70
1
 66
1
 10
0.0
 20
0.0
 30
0.0
  0
VERTEX
  8
0
 10
66.24108640939598
 20
5.6385696308724835
 30
0.0
  0
VERTEX
  8
0
 10
65.9492239932886
 20
4.371287751677852
 30
0.0
  0
VERTEX
  8
0
 10
65.10476090604027
 20
3.934228187919463
 30
0.0
  0
VERTEX
  8
0
 10
64.26015100671141
 20
4.371287751677852
 30
0.0
  0
VERTEX
  8
0
 10
63.96843540268456
 20
5.6385696308724835
 30
0.0
  0
VERTEX
  8
0
 10
64.26015100671141
 20
6.9079068791946305
 30
0.0
  0
VERTEX
  8
0
 10
65.10476090604027
 20
7.34496644295302
 30
0.0
  0
VERTEX
  8
0
 10
65.9492239932886
 20
6.9079068791946305
 30
0.0
  0
SEQEND
  8
0
  0
POLYLINE
  8
0
 62
0
 70
1
 66
1
 10
0.0
 20
0.0
 30
0.0
  0
VERTEX
  8
0
 10
64.41547818791946
 20
5.6385696308724835
 30
0.0
  0
VERTEX
  8
0
 10
64.58827600671141
 20
4.628062080536913
 30
0.0
  0
VERTEX
  8
0
 10
65.10476090604027
 20
4.291275167785235
 30
0.0
  0
VERTEX
  8
0
 10
65.62330117449665
 20
4.628062080536913
 30
0.0
  0
VERTEX
  8
0
 10
65.79624580536913
 20
5.6385696308724835
 30
0.0
  0
VERTEX
  8
0
 10
65.62330117449665
 20
6.651132550335571
 30
0.0
  0
VERTEX
  8
0
 10
65.10476090604027
 20
6.987919463087248
 30
0.0
  0
VERTEX
  8
0
 10
64.58827600671141
 20
6.651132550335571
 30
0.0
  0
SEQEND
  8
0
  0
POLYLINE
  8
0
 62
0
 70
1
 66
1
 10
0.0
 20
0.0
 30
0.0
  0
VERTEX
  8
0
 10
68.6840394295302
 20
5.146308724832215
 30
0.0
  0
VERTEX
  8
0
 10
69.15310402684564
 20
5.146308724832215
 30
0.0
  0
VERTEX
  8
0
 10
69.15310402684564
 20
4.779865771812081
 30
0.0
  0
VERTEX
  8
0
 10
68.6840394295302
 20
4.779865771812081
 30
0.0
  0
VERTEX
  8
0
 10
68.6840394295302
 20
4.0
 30
0.0
  0
VERTEX
  8
0
 10
68.24140100671141
 20
4.0
 30
0.0
  0
VERTEX
  8
0
 10
68.24140100671141
 20
4.779865771812081
 30
0.0
  0
VERTEX
  8
0
 10
66.75713087248323
 20
4.779865771812081
 30
0.0
  0
VERTEX
  8
0
 10
66.75713087248323
 20
5.208557046979866
 30
0.0
  0
VERTEX
  8
0
 10
68.12468540268456
 20
7.2885906040268456
 30
0.0
  0
VERTEX
  8
0
 10
68.6840394295302
 20
7.2885906040268456
 30
0.0
  0
SEQEND
  8
0
  0
POLYLINE
  8
0
 62
0
 70
1
 66
1
 10
0.0
 20
0.0
 30
0.0
  0
VERTEX
  8
0
 10
68.24140100671141
 20
5.146308724832215
 30
0.0
  0
VERTEX
  8
0
 10
68.24140100671141
 20
6.901153523489933
 30
0.0
  0
VERTEX
  8
0
 10
67.11828859060402
 20
5.146308724832215
 30
0.0
  0
SEQEND
  8
0
  0
ENDBLK
  0
ENDSEC
  0
SECTION
  2
ENTITIES
  0
CIRCLE
  8
0
 62
0
 10
59.0
 20
59.0
 30
0.0
 40
59.0
  0
CIRCLE
  8
0
 62
0
 10
59.0
 20
12.0
 30
0.0
 40
2.1
  0
CIRCLE
  8
0
 62
0
 10
106.0
 20
59.0
 30
0.0
 40
2.1
  0
CIRCLE
  8
0
 62
0
 10
59.0
 20
106.0
 30
0.0
 40
2.1
  0
CIRCLE
  8
0
 62
0
 10
12.0
 20
59.0
 30
0.0
 40
2.1
  0
INSERT
  2
SHAPESTRING
  8
0
 62
0
 10
0.0
 20
0.0
 30
0.0
  0
INSERT
  2
SHAPESTRING001
  8
0
 62
0
 10
0.0
 20
0.0
 30
0.0
  0
ENDSEC
  0
EOF
