solid task_10_openscad_enclosure
  facet normal 0 0 0
    outer loop
      vertex -47.7000 -47.7000 0.0000
      vertex 47.7000 -47.7000 0.0000
      vertex 47.7000 47.7000 0.0000
    endloop
  endfacet
  facet normal 0 0 0
    outer loop
      vertex -47.7000 -47.7000 0.0000
      vertex 47.7000 47.7000 0.0000
      vertex -47.7000 47.7000 0.0000
    endloop
  endfacet
  facet normal 0 0 0
    outer loop
      vertex -47.7000 -47.7000 35.4000
      vertex 47.7000 47.7000 35.4000
      vertex 47.7000 -47.7000 35.4000
    endloop
  endfacet
  facet normal 0 0 0
    outer loop
      vertex -47.7000 -47.7000 35.4000
      vertex -47.7000 47.7000 35.4000
      vertex 47.7000 47.7000 35.4000
    endloop
  endfacet
  facet normal 0 0 0
    outer loop
      vertex -47.7000 -47.7000 0.0000
      vertex -47.7000 -47.7000 35.4000
      vertex 47.7000 -47.7000 35.4000
    endloop
  endfacet
  facet normal 0 0 0
    outer loop
      vertex -47.7000 -47.7000 0.0000
      vertex 47.7000 -47.7000 35.4000
      vertex 47.7000 -47.7000 0.0000
    endloop
  endfacet
  facet normal 0 0 0
    outer loop
      vertex 47.7000 -47.7000 0.0000
      vertex 47.7000 -47.7000 35.4000
      vertex 47.7000 47.7000 35.4000
    endloop
  endfacet
  facet normal 0 0 0
    outer loop
      vertex 47.7000 -47.7000 0.0000
      vertex 47.7000 47.7000 35.4000
      vertex 47.7000 47.7000 0.0000
    endloop
  endfacet
  facet normal 0 0 0
    outer loop
      vertex 47.7000 47.7000 0.0000
      vertex 47.7000 47.7000 35.4000
      vertex -47.7000 47.7000 35.4000
    endloop
  endfacet
  facet normal 0 0 0
    outer loop
      vertex 47.7000 47.7000 0.0000
      vertex -47.7000 47.7000 35.4000
      vertex -47.7000 47.7000 0.0000
    endloop
  endfacet
  facet normal 0 0 0
    outer loop
      vertex -47.7000 47.7000 0.0000
      vertex -47.7000 47.7000 35.4000
      vertex -47.7000 -47.7000 35.4000
    endloop
  endfacet
  facet normal 0 0 0
    outer loop
      vertex -47.7000 47.7000 0.0000
      vertex -47.7000 -47.7000 35.4000
      vertex -47.7000 -47.7000 0.0000
    endloop
  endfacet
endsolid task_10_openscad_enclosure
