ISO-10303-21;
HEADER;
FILE_DESCRIPTION(('ViewDefinition[DesignTransferView]'),'2;1');
FILE_NAME('/dev/null','2026-04-21T14:59:36+00:00',(''),(''),'IfcOpenShell 0.8.5','IfcOpenShell 0.8.5','Nobody');
FILE_SCHEMA(('IFC4'));
ENDSEC;
DATA;
#1=IFCPROJECT('00EXMf6GX4hPSc$T3D5z88',$,'revit-c-16-init',$,$,$,$,(#10),#5);
#2=IFCSIUNIT(*,.LENGTHUNIT.,.MILLI.,.METRE.);
#3=IFCSIUNIT(*,.AREAUNIT.,$,.SQUARE_METRE.);
#4=IFCSIUNIT(*,.VOLUMEUNIT.,$,.CUBIC_METRE.);
#5=IFCUNITASSIGNMENT((#3,#4,#2));
#6=IFCCARTESIANPOINT((0.,0.,0.));
#7=IFCDIRECTION((0.,0.,1.));
#8=IFCDIRECTION((1.,0.,0.));
#9=IFCAXIS2PLACEMENT3D(#6,#7,#8);
#10=IFCGEOMETRICREPRESENTATIONCONTEXT($,'Model',3,1.0000000000000001E-05,#9,$);
#11=IFCGEOMETRICREPRESENTATIONSUBCONTEXT('Body','Model',*,*,*,*,#10,$,.MODEL_VIEW.,$);
#12=IFCSITE('1Qu5Q$wfD39OL0cMOU8P_9',$,'revit-c-16-init Site',$,$,$,$,$,$,$,$,$,$,$);
#13=IFCBUILDING('1b$s0LBCH0YuYeOD9oSeYy',$,'revit-c-16-init Building',$,$,$,$,$,$,$,$,$);
#14=IFCRELAGGREGATES('34N8MozHP73fRja4Bm8Eko',$,$,$,#1,(#12));
#15=IFCRELAGGREGATES('3VIVEM5MfAYvP8fB2gllzH',$,$,$,#12,(#13));
#16=IFCBUILDINGSTOREY('2d$HD2fe92wvqYfWQz1Oak',$,'Level 1',$,$,#27,$,$,$,$);
#22=IFCRELAGGREGATES('1DTM3apPb4bvDzTNtrI0Gf',$,$,$,#13,(#16));
#23=IFCCARTESIANPOINT((0.,0.,0.));
#24=IFCDIRECTION((0.,0.,1.));
#25=IFCDIRECTION((1.,0.,0.));
#26=IFCAXIS2PLACEMENT3D(#23,#24,#25);
#27=IFCLOCALPLACEMENT($,#26);
#28=IFCSLAB('3mNIzp9FbE6O588cWU37Xe',$,'HouseA slab',$,$,#49,#38,$,$);
#29=IFCCARTESIANPOINTLIST3D(((0.,0.,0.),(8000.,0.,0.),(8000.,6000.,0.),(0.,6000.,0.),(0.,0.,250.),(8000.,0.,250.),(8000.,6000.,250.),(0.,6000.,250.)));
#30=IFCINDEXEDPOLYGONALFACE((1,2,3,4));
#31=IFCINDEXEDPOLYGONALFACE((5,6,7,8));
#32=IFCINDEXEDPOLYGONALFACE((1,2,6,5));
#33=IFCINDEXEDPOLYGONALFACE((2,3,7,6));
#34=IFCINDEXEDPOLYGONALFACE((3,4,8,7));
#35=IFCINDEXEDPOLYGONALFACE((4,1,5,8));
#36=IFCPOLYGONALFACESET(#29,$,(#30,#31,#32,#33,#34,#35),$);
#37=IFCSHAPEREPRESENTATION(#11,'Body','Tessellation',(#36));
#38=IFCPRODUCTDEFINITIONSHAPE($,$,(#37));
#44=IFCRELCONTAINEDINSPATIALSTRUCTURE('35LYsW13vCH8Sge5f8bm$B',$,$,$,(#261,#240,#219,#134,#113,#92,#326,#156,#389,#368,#177,#198,#71,#28,#50,#347),#16);
#45=IFCCARTESIANPOINT((0.,0.,0.));
#46=IFCDIRECTION((0.,0.,1.));
#47=IFCDIRECTION((1.,0.,0.));
#48=IFCAXIS2PLACEMENT3D(#45,#46,#47);
#49=IFCLOCALPLACEMENT(#27,#48);
#50=IFCWALL('14LfuIkMvF48LRAy4_PnW3',$,'HouseA-shell-south',$,$,#70,#60,$,$);
#51=IFCCARTESIANPOINTLIST3D(((0.,0.,250.),(8000.,0.,250.),(8000.,200.,250.),(0.,200.,250.),(0.,0.,3450.),(8000.,0.,3450.),(8000.,200.,3450.),(0.,200.,3450.)));
#52=IFCINDEXEDPOLYGONALFACE((1,2,3,4));
#53=IFCINDEXEDPOLYGONALFACE((5,6,7,8));
#54=IFCINDEXEDPOLYGONALFACE((1,2,6,5));
#55=IFCINDEXEDPOLYGONALFACE((2,3,7,6));
#56=IFCINDEXEDPOLYGONALFACE((3,4,8,7));
#57=IFCINDEXEDPOLYGONALFACE((4,1,5,8));
#58=IFCPOLYGONALFACESET(#51,$,(#52,#53,#54,#55,#56,#57),$);
#59=IFCSHAPEREPRESENTATION(#11,'Body','Tessellation',(#58));
#60=IFCPRODUCTDEFINITIONSHAPE($,$,(#59));
#66=IFCCARTESIANPOINT((0.,0.,0.));
#67=IFCDIRECTION((0.,0.,1.));
#68=IFCDIRECTION((1.,0.,0.));
#69=IFCAXIS2PLACEMENT3D(#66,#67,#68);
#70=IFCLOCALPLACEMENT(#27,#69);
#71=IFCWALL('2x1bkmEEj99efkqNrb6ake',$,'HouseA-shell-north',$,$,#91,#81,$,$);
#72=IFCCARTESIANPOINTLIST3D(((0.,6000.,250.),(8000.,6000.,250.),(8000.,6200.,250.),(0.,6200.,250.),(0.,6000.,3450.),(8000.,6000.,3450.),(8000.,6200.,3450.),(0.,6200.,3450.)));
#73=IFCINDEXEDPOLYGONALFACE((1,2,3,4));
#74=IFCINDEXEDPOLYGONALFACE((5,6,7,8));
#75=IFCINDEXEDPOLYGONALFACE((1,2,6,5));
#76=IFCINDEXEDPOLYGONALFACE((2,3,7,6));
#77=IFCINDEXEDPOLYGONALFACE((3,4,8,7));
#78=IFCINDEXEDPOLYGONALFACE((4,1,5,8));
#79=IFCPOLYGONALFACESET(#72,$,(#73,#74,#75,#76,#77,#78),$);
#80=IFCSHAPEREPRESENTATION(#11,'Body','Tessellation',(#79));
#81=IFCPRODUCTDEFINITIONSHAPE($,$,(#80));
#87=IFCCARTESIANPOINT((0.,0.,0.));
#88=IFCDIRECTION((0.,0.,1.));
#89=IFCDIRECTION((1.,0.,0.));
#90=IFCAXIS2PLACEMENT3D(#87,#88,#89);
#91=IFCLOCALPLACEMENT(#27,#90);
#92=IFCWALL('13E$VLEZT9ifpNmVGDFF8G',$,'HouseA-shell-west',$,$,#112,#102,$,$);
#93=IFCCARTESIANPOINTLIST3D(((0.,0.,250.),(200.,0.,250.),(200.,6000.,250.),(0.,6000.,250.),(0.,0.,3450.),(200.,0.,3450.),(200.,6000.,3450.),(0.,6000.,3450.)));
#94=IFCINDEXEDPOLYGONALFACE((1,2,3,4));
#95=IFCINDEXEDPOLYGONALFACE((5,6,7,8));
#96=IFCINDEXEDPOLYGONALFACE((1,2,6,5));
#97=IFCINDEXEDPOLYGONALFACE((2,3,7,6));
#98=IFCINDEXEDPOLYGONALFACE((3,4,8,7));
#99=IFCINDEXEDPOLYGONALFACE((4,1,5,8));
#100=IFCPOLYGONALFACESET(#93,$,(#94,#95,#96,#97,#98,#99),$);
#101=IFCSHAPEREPRESENTATION(#11,'Body','Tessellation',(#100));
#102=IFCPRODUCTDEFINITIONSHAPE($,$,(#101));
#108=IFCCARTESIANPOINT((0.,0.,0.));
#109=IFCDIRECTION((0.,0.,1.));
#110=IFCDIRECTION((1.,0.,0.));
#111=IFCAXIS2PLACEMENT3D(#108,#109,#110);
#112=IFCLOCALPLACEMENT(#27,#111);
#113=IFCWALL('3DjW_od2j64QJu0DDNVa$D',$,'HouseA-shell-east',$,$,#133,#123,$,$);
#114=IFCCARTESIANPOINTLIST3D(((8000.,0.,250.),(8200.,0.,250.),(8200.,6000.,250.),(8000.,6000.,250.),(8000.,0.,3450.),(8200.,0.,3450.),(8200.,6000.,3450.),(8000.,6000.,3450.)));
#115=IFCINDEXEDPOLYGONALFACE((1,2,3,4));
#116=IFCINDEXEDPOLYGONALFACE((5,6,7,8));
#117=IFCINDEXEDPOLYGONALFACE((1,2,6,5));
#118=IFCINDEXEDPOLYGONALFACE((2,3,7,6));
#119=IFCINDEXEDPOLYGONALFACE((3,4,8,7));
#120=IFCINDEXEDPOLYGONALFACE((4,1,5,8));
#121=IFCPOLYGONALFACESET(#114,$,(#115,#116,#117,#118,#119,#120),$);
#122=IFCSHAPEREPRESENTATION(#11,'Body','Tessellation',(#121));
#123=IFCPRODUCTDEFINITIONSHAPE($,$,(#122));
#129=IFCCARTESIANPOINT((0.,0.,0.));
#130=IFCDIRECTION((0.,0.,1.));
#131=IFCDIRECTION((1.,0.,0.));
#132=IFCAXIS2PLACEMENT3D(#129,#130,#131);
#133=IFCLOCALPLACEMENT(#27,#132);
#134=IFCROOF('1_Ij8NoM17NvnAnx16fECO',$,'HouseA roof',$,$,#155,#145,$,$);
#135=IFCCARTESIANPOINTLIST3D(((0.,0.,3200.),(8000.,0.,3200.),(8000.,6000.,3200.),(0.,6000.,3200.),(0.,0.,3450.),(8000.,0.,3450.),(8000.,6000.,3450.),(0.,6000.,3450.),(0.,3000.,4450.),(8000.,3000.,4450.)));
#136=IFCINDEXEDPOLYGONALFACE((1,2,3,4));
#137=IFCINDEXEDPOLYGONALFACE((1,2,6,5));
#138=IFCINDEXEDPOLYGONALFACE((3,4,8,7));
#139=IFCINDEXEDPOLYGONALFACE((1,4,8,5));
#140=IFCINDEXEDPOLYGONALFACE((2,3,7,6));
#141=IFCINDEXEDPOLYGONALFACE((5,6,10,9));
#142=IFCINDEXEDPOLYGONALFACE((9,10,7,8));
#143=IFCPOLYGONALFACESET(#135,$,(#136,#137,#138,#139,#140,#141,#142),$);
#144=IFCSHAPEREPRESENTATION(#11,'Body','Tessellation',(#143));
#145=IFCPRODUCTDEFINITIONSHAPE($,$,(#144));
#151=IFCCARTESIANPOINT((0.,0.,0.));
#152=IFCDIRECTION((0.,0.,1.));
#153=IFCDIRECTION((1.,0.,0.));
#154=IFCAXIS2PLACEMENT3D(#151,#152,#153);
#155=IFCLOCALPLACEMENT(#27,#154);
#156=IFCSLAB('2HH7OcIZr5auPX3KMOqc7b',$,'HouseB slab',$,$,#176,#166,$,$);
#157=IFCCARTESIANPOINTLIST3D(((10000.,0.,0.),(18000.,0.,0.),(18000.,6000.,0.),(10000.,6000.,0.),(10000.,0.,250.),(18000.,0.,250.),(18000.,6000.,250.),(10000.,6000.,250.)));
#158=IFCINDEXEDPOLYGONALFACE((1,2,3,4));
#159=IFCINDEXEDPOLYGONALFACE((5,6,7,8));
#160=IFCINDEXEDPOLYGONALFACE((1,2,6,5));
#161=IFCINDEXEDPOLYGONALFACE((2,3,7,6));
#162=IFCINDEXEDPOLYGONALFACE((3,4,8,7));
#163=IFCINDEXEDPOLYGONALFACE((4,1,5,8));
#164=IFCPOLYGONALFACESET(#157,$,(#158,#159,#160,#161,#162,#163),$);
#165=IFCSHAPEREPRESENTATION(#11,'Body','Tessellation',(#164));
#166=IFCPRODUCTDEFINITIONSHAPE($,$,(#165));
#172=IFCCARTESIANPOINT((0.,0.,0.));
#173=IFCDIRECTION((0.,0.,1.));
#174=IFCDIRECTION((1.,0.,0.));
#175=IFCAXIS2PLACEMENT3D(#172,#173,#174);
#176=IFCLOCALPLACEMENT(#27,#175);
#177=IFCWALL('0LjljJ8vn1SQjZkA_FrZMd',$,'HouseB-shell-south',$,$,#197,#187,$,$);
#178=IFCCARTESIANPOINTLIST3D(((10000.,0.,250.),(18000.,0.,250.),(18000.,200.,250.),(10000.,200.,250.),(10000.,0.,3450.),(18000.,0.,3450.),(18000.,200.,3450.),(10000.,200.,3450.)));
#179=IFCINDEXEDPOLYGONALFACE((1,2,3,4));
#180=IFCINDEXEDPOLYGONALFACE((5,6,7,8));
#181=IFCINDEXEDPOLYGONALFACE((1,2,6,5));
#182=IFCINDEXEDPOLYGONALFACE((2,3,7,6));
#183=IFCINDEXEDPOLYGONALFACE((3,4,8,7));
#184=IFCINDEXEDPOLYGONALFACE((4,1,5,8));
#185=IFCPOLYGONALFACESET(#178,$,(#179,#180,#181,#182,#183,#184),$);
#186=IFCSHAPEREPRESENTATION(#11,'Body','Tessellation',(#185));
#187=IFCPRODUCTDEFINITIONSHAPE($,$,(#186));
#193=IFCCARTESIANPOINT((0.,0.,0.));
#194=IFCDIRECTION((0.,0.,1.));
#195=IFCDIRECTION((1.,0.,0.));
#196=IFCAXIS2PLACEMENT3D(#193,#194,#195);
#197=IFCLOCALPLACEMENT(#27,#196);
#198=IFCWALL('27d08iXxX6GAlICdVBtNw6',$,'HouseB-shell-north',$,$,#218,#208,$,$);
#199=IFCCARTESIANPOINTLIST3D(((10000.,6000.,250.),(18000.,6000.,250.),(18000.,6200.,250.),(10000.,6200.,250.),(10000.,6000.,3450.),(18000.,6000.,3450.),(18000.,6200.,3450.),(10000.,6200.,3450.)));
#200=IFCINDEXEDPOLYGONALFACE((1,2,3,4));
#201=IFCINDEXEDPOLYGONALFACE((5,6,7,8));
#202=IFCINDEXEDPOLYGONALFACE((1,2,6,5));
#203=IFCINDEXEDPOLYGONALFACE((2,3,7,6));
#204=IFCINDEXEDPOLYGONALFACE((3,4,8,7));
#205=IFCINDEXEDPOLYGONALFACE((4,1,5,8));
#206=IFCPOLYGONALFACESET(#199,$,(#200,#201,#202,#203,#204,#205),$);
#207=IFCSHAPEREPRESENTATION(#11,'Body','Tessellation',(#206));
#208=IFCPRODUCTDEFINITIONSHAPE($,$,(#207));
#214=IFCCARTESIANPOINT((0.,0.,0.));
#215=IFCDIRECTION((0.,0.,1.));
#216=IFCDIRECTION((1.,0.,0.));
#217=IFCAXIS2PLACEMENT3D(#214,#215,#216);
#218=IFCLOCALPLACEMENT(#27,#217);
#219=IFCWALL('0CuRBDQCr1JAXxw63NkSR1',$,'HouseB-shell-west',$,$,#239,#229,$,$);
#220=IFCCARTESIANPOINTLIST3D(((10000.,0.,250.),(10200.,0.,250.),(10200.,6000.,250.),(10000.,6000.,250.),(10000.,0.,3450.),(10200.,0.,3450.),(10200.,6000.,3450.),(10000.,6000.,3450.)));
#221=IFCINDEXEDPOLYGONALFACE((1,2,3,4));
#222=IFCINDEXEDPOLYGONALFACE((5,6,7,8));
#223=IFCINDEXEDPOLYGONALFACE((1,2,6,5));
#224=IFCINDEXEDPOLYGONALFACE((2,3,7,6));
#225=IFCINDEXEDPOLYGONALFACE((3,4,8,7));
#226=IFCINDEXEDPOLYGONALFACE((4,1,5,8));
#227=IFCPOLYGONALFACESET(#220,$,(#221,#222,#223,#224,#225,#226),$);
#228=IFCSHAPEREPRESENTATION(#11,'Body','Tessellation',(#227));
#229=IFCPRODUCTDEFINITIONSHAPE($,$,(#228));
#235=IFCCARTESIANPOINT((0.,0.,0.));
#236=IFCDIRECTION((0.,0.,1.));
#237=IFCDIRECTION((1.,0.,0.));
#238=IFCAXIS2PLACEMENT3D(#235,#236,#237);
#239=IFCLOCALPLACEMENT(#27,#238);
#240=IFCWALL('0W$qr3ISf4ixouwYt5E$Lz',$,'HouseB-shell-east',$,$,#260,#250,$,$);
#241=IFCCARTESIANPOINTLIST3D(((18000.,0.,250.),(18200.,0.,250.),(18200.,6000.,250.),(18000.,6000.,250.),(18000.,0.,3450.),(18200.,0.,3450.),(18200.,6000.,3450.),(18000.,6000.,3450.)));
#242=IFCINDEXEDPOLYGONALFACE((1,2,3,4));
#243=IFCINDEXEDPOLYGONALFACE((5,6,7,8));
#244=IFCINDEXEDPOLYGONALFACE((1,2,6,5));
#245=IFCINDEXEDPOLYGONALFACE((2,3,7,6));
#246=IFCINDEXEDPOLYGONALFACE((3,4,8,7));
#247=IFCINDEXEDPOLYGONALFACE((4,1,5,8));
#248=IFCPOLYGONALFACESET(#241,$,(#242,#243,#244,#245,#246,#247),$);
#249=IFCSHAPEREPRESENTATION(#11,'Body','Tessellation',(#248));
#250=IFCPRODUCTDEFINITIONSHAPE($,$,(#249));
#256=IFCCARTESIANPOINT((0.,0.,0.));
#257=IFCDIRECTION((0.,0.,1.));
#258=IFCDIRECTION((1.,0.,0.));
#259=IFCAXIS2PLACEMENT3D(#256,#257,#258);
#260=IFCLOCALPLACEMENT(#27,#259);
#261=IFCROOF('1VoBXEcw1CgfRdNTd2pGO7',$,'HouseB roof',$,$,#282,#272,$,$);
#262=IFCCARTESIANPOINTLIST3D(((10000.,0.,3200.),(18000.,0.,3200.),(18000.,6000.,3200.),(10000.,6000.,3200.),(10000.,0.,3450.),(18000.,0.,3450.),(18000.,6000.,3450.),(10000.,6000.,3450.),(10000.,3000.,4450.),(18000.,3000.,4450.)));
#263=IFCINDEXEDPOLYGONALFACE((1,2,3,4));
#264=IFCINDEXEDPOLYGONALFACE((1,2,6,5));
#265=IFCINDEXEDPOLYGONALFACE((3,4,8,7));
#266=IFCINDEXEDPOLYGONALFACE((1,4,8,5));
#267=IFCINDEXEDPOLYGONALFACE((2,3,7,6));
#268=IFCINDEXEDPOLYGONALFACE((5,6,10,9));
#269=IFCINDEXEDPOLYGONALFACE((9,10,7,8));
#270=IFCPOLYGONALFACESET(#262,$,(#263,#264,#265,#266,#267,#268,#269),$);
#271=IFCSHAPEREPRESENTATION(#11,'Body','Tessellation',(#270));
#272=IFCPRODUCTDEFINITIONSHAPE($,$,(#271));
#278=IFCCARTESIANPOINT((0.,0.,0.));
#279=IFCDIRECTION((0.,0.,1.));
#280=IFCDIRECTION((1.,0.,0.));
#281=IFCAXIS2PLACEMENT3D(#278,#279,#280);
#282=IFCLOCALPLACEMENT(#27,#281);
#283=IFCSPACE('1eusblN7f7Hf9G84RpTz3r',$,'Living A',$,$,#304,#293,$,$,$,$);
#284=IFCCARTESIANPOINTLIST3D(((800.,800.,250.),(3600.,800.,250.),(3600.,3200.,250.),(800.,3200.,250.),(800.,800.,3000.),(3600.,800.,3000.),(3600.,3200.,3000.),(800.,3200.,3000.)));
#285=IFCINDEXEDPOLYGONALFACE((1,2,3,4));
#286=IFCINDEXEDPOLYGONALFACE((5,6,7,8));
#287=IFCINDEXEDPOLYGONALFACE((1,2,6,5));
#288=IFCINDEXEDPOLYGONALFACE((2,3,7,6));
#289=IFCINDEXEDPOLYGONALFACE((3,4,8,7));
#290=IFCINDEXEDPOLYGONALFACE((4,1,5,8));
#291=IFCPOLYGONALFACESET(#284,$,(#285,#286,#287,#288,#289,#290),$);
#292=IFCSHAPEREPRESENTATION(#11,'Body','Tessellation',(#291));
#293=IFCPRODUCTDEFINITIONSHAPE($,$,(#292));
#299=IFCRELAGGREGATES('3HGXm8in153AjMLQ28CSrk',$,$,$,#16,(#283,#305));
#300=IFCCARTESIANPOINT((0.,0.,0.));
#301=IFCDIRECTION((0.,0.,1.));
#302=IFCDIRECTION((1.,0.,0.));
#303=IFCAXIS2PLACEMENT3D(#300,#301,#302);
#304=IFCLOCALPLACEMENT(#27,#303);
#305=IFCSPACE('1i1bmxLsj5ohu7AblvqiN6',$,'Living B',$,$,#325,#315,$,$,$,$);
#306=IFCCARTESIANPOINTLIST3D(((10800.,800.,250.),(13600.,800.,250.),(13600.,3200.,250.),(10800.,3200.,250.),(10800.,800.,3000.),(13600.,800.,3000.),(13600.,3200.,3000.),(10800.,3200.,3000.)));
#307=IFCINDEXEDPOLYGONALFACE((1,2,3,4));
#308=IFCINDEXEDPOLYGONALFACE((5,6,7,8));
#309=IFCINDEXEDPOLYGONALFACE((1,2,6,5));
#310=IFCINDEXEDPOLYGONALFACE((2,3,7,6));
#311=IFCINDEXEDPOLYGONALFACE((3,4,8,7));
#312=IFCINDEXEDPOLYGONALFACE((4,1,5,8));
#313=IFCPOLYGONALFACESET(#306,$,(#307,#308,#309,#310,#311,#312),$);
#314=IFCSHAPEREPRESENTATION(#11,'Body','Tessellation',(#313));
#315=IFCPRODUCTDEFINITIONSHAPE($,$,(#314));
#321=IFCCARTESIANPOINT((0.,0.,0.));
#322=IFCDIRECTION((0.,0.,1.));
#323=IFCDIRECTION((1.,0.,0.));
#324=IFCAXIS2PLACEMENT3D(#321,#322,#323);
#325=IFCLOCALPLACEMENT(#27,#324);
#326=IFCWINDOW('0Akx9XJo9BbBVvVlKjVC8e',$,'InitWin1',$,$,#346,#336,$,$,$,$,$,$);
#327=IFCCARTESIANPOINTLIST3D(((1000.,20.,1000.),(2000.,20.,1000.),(2000.,139.99999999999997,1000.),(1000.,139.99999999999997,1000.),(1000.,20.,2200.),(2000.,20.,2200.),(2000.,139.99999999999997,2200.),(1000.,139.99999999999997,2200.)));
#328=IFCINDEXEDPOLYGONALFACE((1,2,3,4));
#329=IFCINDEXEDPOLYGONALFACE((5,6,7,8));
#330=IFCINDEXEDPOLYGONALFACE((1,2,6,5));
#331=IFCINDEXEDPOLYGONALFACE((2,3,7,6));
#332=IFCINDEXEDPOLYGONALFACE((3,4,8,7));
#333=IFCINDEXEDPOLYGONALFACE((4,1,5,8));
#334=IFCPOLYGONALFACESET(#327,$,(#328,#329,#330,#331,#332,#333),$);
#335=IFCSHAPEREPRESENTATION(#11,'Body','Tessellation',(#334));
#336=IFCPRODUCTDEFINITIONSHAPE($,$,(#335));
#342=IFCCARTESIANPOINT((0.,0.,0.));
#343=IFCDIRECTION((0.,0.,1.));
#344=IFCDIRECTION((1.,0.,0.));
#345=IFCAXIS2PLACEMENT3D(#342,#343,#344);
#346=IFCLOCALPLACEMENT(#27,#345);
#347=IFCWINDOW('3wbsj8VqL9_gEckNsf0p4R',$,'InitWin2',$,$,#367,#357,$,$,$,$,$,$);
#348=IFCCARTESIANPOINTLIST3D(((3500.,20.,1000.),(4500.,20.,1000.),(4500.,139.99999999999997,1000.),(3500.,139.99999999999997,1000.),(3500.,20.,2200.),(4500.,20.,2200.),(4500.,139.99999999999997,2200.),(3500.,139.99999999999997,2200.)));
#349=IFCINDEXEDPOLYGONALFACE((1,2,3,4));
#350=IFCINDEXEDPOLYGONALFACE((5,6,7,8));
#351=IFCINDEXEDPOLYGONALFACE((1,2,6,5));
#352=IFCINDEXEDPOLYGONALFACE((2,3,7,6));
#353=IFCINDEXEDPOLYGONALFACE((3,4,8,7));
#354=IFCINDEXEDPOLYGONALFACE((4,1,5,8));
#355=IFCPOLYGONALFACESET(#348,$,(#349,#350,#351,#352,#353,#354),$);
#356=IFCSHAPEREPRESENTATION(#11,'Body','Tessellation',(#355));
#357=IFCPRODUCTDEFINITIONSHAPE($,$,(#356));
#363=IFCCARTESIANPOINT((0.,0.,0.));
#364=IFCDIRECTION((0.,0.,1.));
#365=IFCDIRECTION((1.,0.,0.));
#366=IFCAXIS2PLACEMENT3D(#363,#364,#365);
#367=IFCLOCALPLACEMENT(#27,#366);
#368=IFCWINDOW('0knYU0SG1AhuHAuCs7TAPM',$,'InitWin3',$,$,#388,#378,$,$,$,$,$,$);
#369=IFCCARTESIANPOINTLIST3D(((11000.,20.,1000.),(12000.,20.,1000.),(12000.,139.99999999999997,1000.),(11000.,139.99999999999997,1000.),(11000.,20.,2200.),(12000.,20.,2200.),(12000.,139.99999999999997,2200.),(11000.,139.99999999999997,2200.)));
#370=IFCINDEXEDPOLYGONALFACE((1,2,3,4));
#371=IFCINDEXEDPOLYGONALFACE((5,6,7,8));
#372=IFCINDEXEDPOLYGONALFACE((1,2,6,5));
#373=IFCINDEXEDPOLYGONALFACE((2,3,7,6));
#374=IFCINDEXEDPOLYGONALFACE((3,4,8,7));
#375=IFCINDEXEDPOLYGONALFACE((4,1,5,8));
#376=IFCPOLYGONALFACESET(#369,$,(#370,#371,#372,#373,#374,#375),$);
#377=IFCSHAPEREPRESENTATION(#11,'Body','Tessellation',(#376));
#378=IFCPRODUCTDEFINITIONSHAPE($,$,(#377));
#384=IFCCARTESIANPOINT((0.,0.,0.));
#385=IFCDIRECTION((0.,0.,1.));
#386=IFCDIRECTION((1.,0.,0.));
#387=IFCAXIS2PLACEMENT3D(#384,#385,#386);
#388=IFCLOCALPLACEMENT(#27,#387);
#389=IFCWINDOW('02UJgddefCPRY$zxcaru5$',$,'InitWin4',$,$,#409,#399,$,$,$,$,$,$);
#390=IFCCARTESIANPOINTLIST3D(((13500.,20.,1000.),(14500.,20.,1000.),(14500.,139.99999999999997,1000.),(13500.,139.99999999999997,1000.),(13500.,20.,2200.),(14500.,20.,2200.),(14500.,139.99999999999997,2200.),(13500.,139.99999999999997,2200.)));
#391=IFCINDEXEDPOLYGONALFACE((1,2,3,4));
#392=IFCINDEXEDPOLYGONALFACE((5,6,7,8));
#393=IFCINDEXEDPOLYGONALFACE((1,2,6,5));
#394=IFCINDEXEDPOLYGONALFACE((2,3,7,6));
#395=IFCINDEXEDPOLYGONALFACE((3,4,8,7));
#396=IFCINDEXEDPOLYGONALFACE((4,1,5,8));
#397=IFCPOLYGONALFACESET(#390,$,(#391,#392,#393,#394,#395,#396),$);
#398=IFCSHAPEREPRESENTATION(#11,'Body','Tessellation',(#397));
#399=IFCPRODUCTDEFINITIONSHAPE($,$,(#398));
#405=IFCCARTESIANPOINT((0.,0.,0.));
#406=IFCDIRECTION((0.,0.,1.));
#407=IFCDIRECTION((1.,0.,0.));
#408=IFCAXIS2PLACEMENT3D(#405,#406,#407);
#409=IFCLOCALPLACEMENT(#27,#408);
ENDSEC;
END-ISO-10303-21;
