ISO-10303-21;
HEADER;
FILE_DESCRIPTION(('ViewDefinition[DesignTransferView]'),'2;1');
FILE_NAME('/dev/null','2026-04-21T15:42:47+00:00',(''),(''),'IfcOpenShell 0.8.5','IfcOpenShell 0.8.5','Nobody');
FILE_SCHEMA(('IFC4'));
ENDSEC;
DATA;
#1=IFCPROJECT('1Otyeyhh5CWhwr3kGGW7FC',$,'bonsai-c-15-answer',$,$,$,$,(#10),#5);
#2=IFCSIUNIT(*,.LENGTHUNIT.,.MILLI.,.METRE.);
#3=IFCSIUNIT(*,.AREAUNIT.,$,.SQUARE_METRE.);
#4=IFCSIUNIT(*,.VOLUMEUNIT.,$,.CUBIC_METRE.);
#5=IFCUNITASSIGNMENT((#2,#3,#4));
#6=IFCCARTESIANPOINT((0.,0.,0.));
#7=IFCDIRECTION((0.,0.,1.));
#8=IFCDIRECTION((1.,0.,0.));
#9=IFCAXIS2PLACEMENT3D(#6,#7,#8);
#10=IFCGEOMETRICREPRESENTATIONCONTEXT($,'Model',3,1.0000000000000001E-05,#9,$);
#11=IFCGEOMETRICREPRESENTATIONSUBCONTEXT('Body','Model',*,*,*,*,#10,$,.MODEL_VIEW.,$);
#12=IFCSITE('1O_q3TZc1AdRy32MPIRg4g',$,'Default Site',$,$,$,$,$,$,$,$,$,$,$);
#13=IFCBUILDING('1n0HbeXs98FAoqn2N5dke_',$,'Default Building',$,$,$,$,$,$,$,$,$);
#14=IFCRELAGGREGATES('2wKG5MrTD4AOgj04$Td8iV',$,$,$,#1,(#12));
#15=IFCRELAGGREGATES('1$$e4W4PD0buRr_dGxQoGK',$,$,$,#12,(#13));
#16=IFCBUILDINGSTOREY('3PSuK7VyvFvORfZB4mRrMw',$,'Ground Floor',$,$,#30,$,$,$,$);
#22=IFCPROPERTYSET('2vum1Nx5X5GPO3257wWwD7',$,'EPset_StoreyMeta',$,(#24));
#23=IFCRELDEFINESBYPROPERTIES('1haPCClYD0rfnepC_0ray1',$,$,$,(#16),#22);
#24=IFCPROPERTYSINGLEVALUE('ElevationM',$,IFCREAL(0.),$);
#25=IFCRELAGGREGATES('39fDAj5Zj68eguHpqyRJC0',$,$,$,#13,(#16));
#26=IFCCARTESIANPOINT((0.,0.,0.));
#27=IFCDIRECTION((0.,0.,1.));
#28=IFCDIRECTION((1.,0.,0.));
#29=IFCAXIS2PLACEMENT3D(#26,#27,#28);
#30=IFCLOCALPLACEMENT($,#29);
#31=IFCWALL('2ZXfD3_Ub5B8QCX$pqdzCV',$,'South Wall',$,$,#49,#38,$,$);
#32=IFCCARTESIANPOINTLIST2D(((0.,0.),(10000.,0.),(10000.,200.),(0.,200.),(0.,0.)));
#33=IFCINDEXEDPOLYCURVE(#32,$,$);
#34=IFCDIRECTION((0.,0.,1.));
#35=IFCARBITRARYCLOSEDPROFILEDEF(.AREA.,$,#33);
#36=IFCEXTRUDEDAREASOLID(#35,$,#34,3000.);
#37=IFCSHAPEREPRESENTATION(#11,'Body','SweptSolid',(#36));
#38=IFCPRODUCTDEFINITIONSHAPE($,$,(#37));
#44=IFCRELCONTAINEDINSPATIALSTRUCTURE('3V5gr8GOT5Jv_HEweyE51$',$,$,$,(#677,#246,#528,#137,#67,#172,#31,#102,#360,#444,#612),#16);
#45=IFCCARTESIANPOINT((0.,0.,0.));
#46=IFCDIRECTION((0.,0.,1.));
#47=IFCDIRECTION((1.,0.,0.));
#48=IFCAXIS2PLACEMENT3D(#45,#46,#47);
#49=IFCLOCALPLACEMENT(#30,#48);
#50=IFCPROPERTYSET('31Ydl82rT6_PSvlzLe1uyq',$,'EPset_Plan',$,(#52,#53));
#51=IFCRELDEFINESBYPROPERTIES('3KOvIG5jbFIfHH7AhfHS8k',$,$,$,(#31),#50);
#52=IFCPROPERTYSINGLEVALUE('Polygon2D',$,IFCLABEL('0.0000,0.0000;10.0000,0.0000;10.0000,0.2000;0.0000,0.2000'),$);
#53=IFCPROPERTYSINGLEVALUE('Category',$,IFCLABEL('IfcWall'),$);
#54=IFCELEMENTQUANTITY('3ykhhtfbPBburJoLZN6W4y',$,'Qto_WallBaseQuantities',$,'BaseQuantities',(#56,#57));
#55=IFCRELDEFINESBYPROPERTIES('25AlfRoanD9g3HkIcKcxOh',$,$,$,(#31),#54);
#56=IFCQUANTITYAREA('NetArea',$,$,30.,$);
#57=IFCQUANTITYVOLUME('NetVolume',$,$,6.,$);
#58=IFCPROPERTYSET('1l99SdJevEnPcpwYocJ3BP',$,'EPset_WallAxis',$,(#60,#61,#62,#63,#64,#65,#66));
#59=IFCRELDEFINESBYPROPERTIES('1vcQHGpQT9nweQkqUYWEO8',$,$,$,(#31),#58);
#60=IFCPROPERTYSINGLEVALUE('StartX',$,IFCINTEGER(0),$);
#61=IFCPROPERTYSINGLEVALUE('StartY',$,IFCINTEGER(0),$);
#62=IFCPROPERTYSINGLEVALUE('EndX',$,IFCINTEGER(10),$);
#63=IFCPROPERTYSINGLEVALUE('EndY',$,IFCINTEGER(0),$);
#64=IFCPROPERTYSINGLEVALUE('Thickness',$,IFCREAL(0.20000000000000001),$);
#65=IFCPROPERTYSINGLEVALUE('Height',$,IFCREAL(3.),$);
#66=IFCPROPERTYSINGLEVALUE('IsExternal',$,IFCBOOLEAN(.T.),$);
#67=IFCWALL('2VDegI$_HFzwz3wDku3fly',$,'East Wall',$,$,#84,#74,$,$);
#68=IFCCARTESIANPOINTLIST2D(((9800.,0.),(9800.,6000.),(9600.0000000000018,6000.),(9600.0000000000018,1.2246467991473532E-14),(9800.,0.)));
#69=IFCINDEXEDPOLYCURVE(#68,$,$);
#70=IFCDIRECTION((0.,0.,1.));
#71=IFCARBITRARYCLOSEDPROFILEDEF(.AREA.,$,#69);
#72=IFCEXTRUDEDAREASOLID(#71,$,#70,3000.);
#73=IFCSHAPEREPRESENTATION(#11,'Body','SweptSolid',(#72));
#74=IFCPRODUCTDEFINITIONSHAPE($,$,(#73));
#80=IFCCARTESIANPOINT((0.,0.,0.));
#81=IFCDIRECTION((0.,0.,1.));
#82=IFCDIRECTION((1.,0.,0.));
#83=IFCAXIS2PLACEMENT3D(#80,#81,#82);
#84=IFCLOCALPLACEMENT(#30,#83);
#85=IFCPROPERTYSET('2NqnWzBdX0Uh_gqjmPL$lp',$,'EPset_Plan',$,(#87,#88));
#86=IFCRELDEFINESBYPROPERTIES('1Mf9XUbQL3ROm$irgEI1RL',$,$,$,(#67),#85);
#87=IFCPROPERTYSINGLEVALUE('Polygon2D',$,IFCLABEL('9.8000,0.0000;9.8000,6.0000;9.6000,6.0000;9.6000,0.0000'),$);
#88=IFCPROPERTYSINGLEVALUE('Category',$,IFCLABEL('IfcWall'),$);
#89=IFCELEMENTQUANTITY('1A7iIGjzHCT8cU1$CrDGQr',$,'Qto_WallBaseQuantities',$,'BaseQuantities',(#91,#92));
#90=IFCRELDEFINESBYPROPERTIES('2rpuJyUFnC8gaZ9O__0T20',$,$,$,(#67),#89);
#91=IFCQUANTITYAREA('NetArea',$,$,18.,$);
#92=IFCQUANTITYVOLUME('NetVolume',$,$,3.6000000000000001,$);
#93=IFCPROPERTYSET('1ZxJLmbFj4Zwk_mS1d9vw8',$,'EPset_WallAxis',$,(#95,#96,#97,#98,#99,#100,#101));
#94=IFCRELDEFINESBYPROPERTIES('1wMXFI3xTAsv2tklD0RiD_',$,$,$,(#67),#93);
#95=IFCPROPERTYSINGLEVALUE('StartX',$,IFCREAL(9.8000000000000007),$);
#96=IFCPROPERTYSINGLEVALUE('StartY',$,IFCINTEGER(0),$);
#97=IFCPROPERTYSINGLEVALUE('EndX',$,IFCREAL(9.8000000000000007),$);
#98=IFCPROPERTYSINGLEVALUE('EndY',$,IFCINTEGER(6),$);
#99=IFCPROPERTYSINGLEVALUE('Thickness',$,IFCREAL(0.20000000000000001),$);
#100=IFCPROPERTYSINGLEVALUE('Height',$,IFCREAL(3.),$);
#101=IFCPROPERTYSINGLEVALUE('IsExternal',$,IFCBOOLEAN(.T.),$);
#102=IFCWALL('3G5Y6$4Ub4pP4MVLRpExQA',$,'North Wall',$,$,#119,#109,$,$);
#103=IFCCARTESIANPOINTLIST2D(((0.,5800.),(10000.,5800.),(10000.,6000.),(0.,6000.),(0.,5800.)));
#104=IFCINDEXEDPOLYCURVE(#103,$,$);
#105=IFCDIRECTION((0.,0.,1.));
#106=IFCARBITRARYCLOSEDPROFILEDEF(.AREA.,$,#104);
#107=IFCEXTRUDEDAREASOLID(#106,$,#105,3000.);
#108=IFCSHAPEREPRESENTATION(#11,'Body','SweptSolid',(#107));
#109=IFCPRODUCTDEFINITIONSHAPE($,$,(#108));
#115=IFCCARTESIANPOINT((0.,0.,0.));
#116=IFCDIRECTION((0.,0.,1.));
#117=IFCDIRECTION((1.,0.,0.));
#118=IFCAXIS2PLACEMENT3D(#115,#116,#117);
#119=IFCLOCALPLACEMENT(#30,#118);
#120=IFCPROPERTYSET('293iwMd2v71BmAgtrbgbTl',$,'EPset_Plan',$,(#122,#123));
#121=IFCRELDEFINESBYPROPERTIES('06AkEUunf128GGOJD75Ebc',$,$,$,(#102),#120);
#122=IFCPROPERTYSINGLEVALUE('Polygon2D',$,IFCLABEL('0.0000,5.8000;10.0000,5.8000;10.0000,6.0000;0.0000,6.0000'),$);
#123=IFCPROPERTYSINGLEVALUE('Category',$,IFCLABEL('IfcWall'),$);
#124=IFCELEMENTQUANTITY('1PtfuWIBvEkx9gLlFnirPw',$,'Qto_WallBaseQuantities',$,'BaseQuantities',(#126,#127));
#125=IFCRELDEFINESBYPROPERTIES('3WN6RzTJ13SQ0rJVdFId9i',$,$,$,(#102),#124);
#126=IFCQUANTITYAREA('NetArea',$,$,30.,$);
#127=IFCQUANTITYVOLUME('NetVolume',$,$,6.,$);
#128=IFCPROPERTYSET('3paB0wPEX5IBErdmXAtURG',$,'EPset_WallAxis',$,(#130,#131,#132,#133,#134,#135,#136));
#129=IFCRELDEFINESBYPROPERTIES('39LtrztlX9f9rRd7V_gzbj',$,$,$,(#102),#128);
#130=IFCPROPERTYSINGLEVALUE('StartX',$,IFCINTEGER(0),$);
#131=IFCPROPERTYSINGLEVALUE('StartY',$,IFCREAL(5.7999999999999998),$);
#132=IFCPROPERTYSINGLEVALUE('EndX',$,IFCINTEGER(10),$);
#133=IFCPROPERTYSINGLEVALUE('EndY',$,IFCREAL(5.7999999999999998),$);
#134=IFCPROPERTYSINGLEVALUE('Thickness',$,IFCREAL(0.20000000000000001),$);
#135=IFCPROPERTYSINGLEVALUE('Height',$,IFCREAL(3.),$);
#136=IFCPROPERTYSINGLEVALUE('IsExternal',$,IFCBOOLEAN(.T.),$);
#137=IFCWALL('0eD8wO4aHD5eRp$fy94K6m',$,'West Wall',$,$,#154,#144,$,$);
#138=IFCCARTESIANPOINTLIST2D(((0.,0.),(3.6739403974420595E-13,6000.),(-199.99999999999966,6000.),(-200.,1.2246467991473532E-14),(0.,0.)));
#139=IFCINDEXEDPOLYCURVE(#138,$,$);
#140=IFCDIRECTION((0.,0.,1.));
#141=IFCARBITRARYCLOSEDPROFILEDEF(.AREA.,$,#139);
#142=IFCEXTRUDEDAREASOLID(#141,$,#140,3000.);
#143=IFCSHAPEREPRESENTATION(#11,'Body','SweptSolid',(#142));
#144=IFCPRODUCTDEFINITIONSHAPE($,$,(#143));
#150=IFCCARTESIANPOINT((0.,0.,0.));
#151=IFCDIRECTION((0.,0.,1.));
#152=IFCDIRECTION((1.,0.,0.));
#153=IFCAXIS2PLACEMENT3D(#150,#151,#152);
#154=IFCLOCALPLACEMENT(#30,#153);
#155=IFCPROPERTYSET('2xPHtEnRD1q8iVLTDekt8$',$,'EPset_Plan',$,(#157,#158));
#156=IFCRELDEFINESBYPROPERTIES('3Ay0Kne8TBgRiJuSyLgkAN',$,$,$,(#137),#155);
#157=IFCPROPERTYSINGLEVALUE('Polygon2D',$,IFCLABEL('0.0000,0.0000;0.0000,6.0000;-0.2000,6.0000;-0.2000,0.0000'),$);
#158=IFCPROPERTYSINGLEVALUE('Category',$,IFCLABEL('IfcWall'),$);
#159=IFCELEMENTQUANTITY('2LiZXNoWD8LxByuNA8L4Ay',$,'Qto_WallBaseQuantities',$,'BaseQuantities',(#161,#162));
#160=IFCRELDEFINESBYPROPERTIES('1nNcR56fnFRevnX3b2qkV8',$,$,$,(#137),#159);
#161=IFCQUANTITYAREA('NetArea',$,$,18.,$);
#162=IFCQUANTITYVOLUME('NetVolume',$,$,3.6000000000000001,$);
#163=IFCPROPERTYSET('1N8TIBtgn5bfOuE4EDM8Xr',$,'EPset_WallAxis',$,(#165,#166,#167,#168,#169,#170,#171));
#164=IFCRELDEFINESBYPROPERTIES('0pSULlDar7mAVJ1NJivSzr',$,$,$,(#137),#163);
#165=IFCPROPERTYSINGLEVALUE('StartX',$,IFCINTEGER(0),$);
#166=IFCPROPERTYSINGLEVALUE('StartY',$,IFCINTEGER(0),$);
#167=IFCPROPERTYSINGLEVALUE('EndX',$,IFCINTEGER(0),$);
#168=IFCPROPERTYSINGLEVALUE('EndY',$,IFCINTEGER(6),$);
#169=IFCPROPERTYSINGLEVALUE('Thickness',$,IFCREAL(0.20000000000000001),$);
#170=IFCPROPERTYSINGLEVALUE('Height',$,IFCREAL(3.),$);
#171=IFCPROPERTYSINGLEVALUE('IsExternal',$,IFCBOOLEAN(.T.),$);
#172=IFCSLAB('0uy_sjRBf8VujVAllx_x3W',$,'Base Slab',$,$,#189,#179,$,$);
#173=IFCCARTESIANPOINTLIST2D(((0.,0.),(10000.,0.),(10000.,6000.),(0.,6000.),(0.,0.)));
#174=IFCINDEXEDPOLYCURVE(#173,$,$);
#175=IFCDIRECTION((0.,0.,1.));
#176=IFCARBITRARYCLOSEDPROFILEDEF(.AREA.,$,#174);
#177=IFCEXTRUDEDAREASOLID(#176,$,#175,200.);
#178=IFCSHAPEREPRESENTATION(#11,'Body','SweptSolid',(#177));
#179=IFCPRODUCTDEFINITIONSHAPE($,$,(#178));
#185=IFCCARTESIANPOINT((0.,0.,0.));
#186=IFCDIRECTION((0.,0.,1.));
#187=IFCDIRECTION((1.,0.,0.));
#188=IFCAXIS2PLACEMENT3D(#185,#186,#187);
#189=IFCLOCALPLACEMENT(#30,#188);
#190=IFCPROPERTYSET('3KmiZa4Of1ER72MT2_fwOC',$,'EPset_Plan',$,(#192,#193));
#191=IFCRELDEFINESBYPROPERTIES('0yEeNoXb5AZfzP2fneyDX1',$,$,$,(#172),#190);
#192=IFCPROPERTYSINGLEVALUE('Polygon2D',$,IFCLABEL('0.0000,0.0000;10.0000,0.0000;10.0000,6.0000;0.0000,6.0000'),$);
#193=IFCPROPERTYSINGLEVALUE('Category',$,IFCLABEL('IfcSlab'),$);
#194=IFCELEMENTQUANTITY('1ByvvtJVzE795XOQb5y4R$',$,'Qto_SlabBaseQuantities',$,'BaseQuantities',(#196,#197));
#195=IFCRELDEFINESBYPROPERTIES('2_ERS6OZfFufb$OjWg1u8Y',$,$,$,(#172),#194);
#196=IFCQUANTITYAREA('NetArea',$,$,60.,$);
#197=IFCQUANTITYVOLUME('NetVolume',$,$,12.,$);
#198=IFCSPACE('2F2o2rVSj1YuUkA0Rf633Q',$,'Lobby',$,$,#216,#205,$,$,$,$);
#199=IFCCARTESIANPOINTLIST2D(((300.,300.),(9699.9999999999982,300.),(9699.9999999999982,5700.),(300.,5700.),(300.,300.)));
#200=IFCINDEXEDPOLYCURVE(#199,$,$);
#201=IFCDIRECTION((0.,0.,1.));
#202=IFCARBITRARYCLOSEDPROFILEDEF(.AREA.,$,#200);
#203=IFCEXTRUDEDAREASOLID(#202,$,#201,3000.);
#204=IFCSHAPEREPRESENTATION(#11,'Body','SweptSolid',(#203));
#205=IFCPRODUCTDEFINITIONSHAPE($,$,(#204));
#211=IFCRELAGGREGATES('0osdhD0pf0Xu$OVCjfX0Mt',$,$,$,#16,(#198));
#212=IFCCARTESIANPOINT((0.,0.,0.));
#213=IFCDIRECTION((0.,0.,1.));
#214=IFCDIRECTION((1.,0.,0.));
#215=IFCAXIS2PLACEMENT3D(#212,#213,#214);
#216=IFCLOCALPLACEMENT(#30,#215);
#217=IFCPROPERTYSET('0TfsX6VyLApQs0wUNpUDi_',$,'EPset_Plan',$,(#219,#220,#221,#222,#223));
#218=IFCRELDEFINESBYPROPERTIES('18CJqq_ZzEAv$Or6tVHwuG',$,$,$,(#198),#217);
#219=IFCPROPERTYSINGLEVALUE('Polygon2D',$,IFCLABEL('0.3000,0.3000;9.7000,0.3000;9.7000,5.7000;0.3000,5.7000'),$);
#220=IFCPROPERTYSINGLEVALUE('Category',$,IFCLABEL('IfcSpace'),$);
#221=IFCPROPERTYSINGLEVALUE('Label',$,IFCLABEL('Lobby'),$);
#222=IFCPROPERTYSINGLEVALUE('LabelX',$,IFCREAL(5.),$);
#223=IFCPROPERTYSINGLEVALUE('LabelY',$,IFCREAL(3.),$);
#224=IFCELEMENTQUANTITY('0csCrx495CsQsDqaum8H11',$,'Qto_SpaceBaseQuantities',$,'BaseQuantities',(#226));
#225=IFCRELDEFINESBYPROPERTIES('0HvcSG6fv9QR$EQaXmiLT1',$,$,$,(#198),#224);
#226=IFCQUANTITYAREA('NetFloorArea',$,$,50.759999999999998,$);
#227=IFCOPENINGELEMENT('3Sin7QWLL5AurgVJp7qkYZ',$,'Accessible Entrance Door-Opening',$,$,#245,#234,$,$);
#228=IFCCARTESIANPOINTLIST2D(((4400.,0.),(5600.,0.),(5600.,200.),(4400.,200.),(4400.,0.)));
#229=IFCINDEXEDPOLYCURVE(#228,$,$);
#230=IFCDIRECTION((0.,0.,1.));
#231=IFCARBITRARYCLOSEDPROFILEDEF(.AREA.,$,#229);
#232=IFCEXTRUDEDAREASOLID(#231,$,#230,2200.);
#233=IFCSHAPEREPRESENTATION(#11,'Body','SweptSolid',(#232));
#234=IFCPRODUCTDEFINITIONSHAPE($,$,(#233));
#240=IFCRELVOIDSELEMENT('2HsmnaORz0Mubrt20L$30p',$,$,$,#31,#227);
#241=IFCCARTESIANPOINT((0.,0.,0.));
#242=IFCDIRECTION((0.,0.,1.));
#243=IFCDIRECTION((1.,0.,0.));
#244=IFCAXIS2PLACEMENT3D(#241,#242,#243);
#245=IFCLOCALPLACEMENT(#49,#244);
#246=IFCDOOR('3ikP_ia8D89xWZ0Lvmzd0V',$,'Accessible Entrance Door',$,$,#330,#320,$,$,$,$,$,$);
#247=IFCCARTESIANPOINTLIST2D(((0.,0.),(0.,2.2000000000000002),(1.2,2.2000000000000002),(1.2,0.),(-23.800000000000001,0.),(-23.800000000000001,-22.800000000000001),(25.,-22.800000000000001),(25.,0.)));
#248=IFCINDEXEDPOLYCURVE(#247,(IFCLINEINDEX((1,2,3,4,5,6,7,8,1))),$);
#249=IFCARBITRARYCLOSEDPROFILEDEF(.AREA.,$,#248);
#250=IFCCARTESIANPOINT((0.,25.,0.));
#251=IFCDIRECTION((0.,-1.,0.));
#252=IFCDIRECTION((1.,0.,0.));
#253=IFCAXIS2PLACEMENT3D(#250,#251,#252);
#254=IFCDIRECTION((0.,0.,-1.));
#255=IFCEXTRUDEDAREASOLID(#249,#253,#254,25.);
#256=IFCCARTESIANPOINTLIST2D(((0.,0.),(0.,2.2000000000000002),(1.2,2.2000000000000002),(1.2,0.),(-48.799999999999997,0.),(-48.799999999999997,-47.799999999999997),(50.,-47.799999999999997),(50.,0.)));
#257=IFCINDEXEDPOLYCURVE(#256,(IFCLINEINDEX((1,2,3,4,5,6,7,8,1))),$);
#258=IFCARBITRARYCLOSEDPROFILEDEF(.AREA.,$,#257);
#259=IFCCARTESIANPOINT((0.,0.,0.));
#260=IFCDIRECTION((0.,-1.,0.));
#261=IFCDIRECTION((1.,0.,0.));
#262=IFCAXIS2PLACEMENT3D(#259,#260,#261);
#263=IFCDIRECTION((0.,0.,-1.));
#264=IFCEXTRUDEDAREASOLID(#258,#262,#263,25.);
#265=IFCCARTESIANPOINTLIST2D(((0.,0.),(-98.799999999999997,0.),(-98.799999999999997,100.),(0.,100.)));
#266=IFCINDEXEDPOLYCURVE(#265,(IFCLINEINDEX((1,2,3,4,1))),$);
#267=IFCARBITRARYCLOSEDPROFILEDEF(.AREA.,$,#266);
#268=IFCCARTESIANPOINT((50.,0.,0.));
#269=IFCDIRECTION((0.,0.,1.));
#270=IFCDIRECTION((1.,0.,0.));
#271=IFCAXIS2PLACEMENT3D(#268,#269,#270);
#272=IFCDIRECTION((0.,0.,1.));
#273=IFCEXTRUDEDAREASOLID(#267,#271,#272,25.);
#274=IFCCARTESIANPOINTLIST2D(((0.,0.),(0.,27.199999999999999),(51.200000000000003,27.199999999999999),(51.200000000000003,0.),(-23.799999999999997,0.),(-23.799999999999997,-47.799999999999997),(75.,-47.799999999999997),(75.,0.)));
#275=IFCINDEXEDPOLYCURVE(#274,(IFCLINEINDEX((1,2,3,4,5,6,7,8,1))),$);
#276=IFCARBITRARYCLOSEDPROFILEDEF(.AREA.,$,#275);
#277=IFCCARTESIANPOINT((-25.,-5.,0.));
#278=IFCDIRECTION((0.,-1.,0.));
#279=IFCDIRECTION((1.,0.,0.));
#280=IFCAXIS2PLACEMENT3D(#277,#278,#279);
#281=IFCDIRECTION((0.,0.,-1.));
#282=IFCEXTRUDEDAREASOLID(#276,#280,#281,5.);
#283=IFCCARTESIANPOINTLIST2D(((0.,0.),(0.,27.199999999999999),(51.200000000000003,27.199999999999999),(51.200000000000003,0.),(1.2000000000000028,0.),(1.2000000000000028,-22.800000000000001),(50.,-22.800000000000001),(50.,0.)));
#284=IFCINDEXEDPOLYCURVE(#283,(IFCLINEINDEX((1,2,3,4,5,6,7,8,1))),$);
#285=IFCARBITRARYCLOSEDPROFILEDEF(.AREA.,$,#284);
#286=IFCCARTESIANPOINT((-25.,50.,0.));
#287=IFCDIRECTION((0.,-1.,0.));
#288=IFCDIRECTION((1.,0.,0.));
#289=IFCAXIS2PLACEMENT3D(#286,#287,#288);
#290=IFCDIRECTION((0.,0.,-1.));
#291=IFCEXTRUDEDAREASOLID(#285,#289,#290,5.);
#292=IFCCARTESIANPOINTLIST2D(((0.,0.),(-48.799999999999997,0.),(-48.799999999999997,35.),(0.,35.)));
#293=IFCINDEXEDPOLYCURVE(#292,(IFCLINEINDEX((1,2,3,4,1))),$);
#294=IFCARBITRARYCLOSEDPROFILEDEF(.AREA.,$,#293);
#295=IFCCARTESIANPOINT((25.,25.,25.));
#296=IFCDIRECTION((0.,0.,1.));
#297=IFCDIRECTION((1.,0.,0.));
#298=IFCAXIS2PLACEMENT3D(#295,#296,#297);
#299=IFCDIRECTION((0.,0.,1.));
#300=IFCEXTRUDEDAREASOLID(#294,#298,#299,-47.799999999999997);
#301=IFCCARTESIANPOINTLIST2D(((0.,0.),(0.,-40.),(-120.,-40.),(-120.,-20.),(-20.,-20.),(-20.,0.)));
#302=IFCINDEXEDPOLYCURVE(#301,(IFCLINEINDEX((1,2,3,4,5,6,1))),$);
#303=IFCARBITRARYCLOSEDPROFILEDEF(.AREA.,$,#302);
#304=IFCCARTESIANPOINT((-73.800000000000011,25.,1015.));
#305=IFCDIRECTION((0.,0.,1.));
#306=IFCDIRECTION((1.,0.,0.));
#307=IFCAXIS2PLACEMENT3D(#304,#305,#306);
#308=IFCDIRECTION((0.,0.,1.));
#309=IFCEXTRUDEDAREASOLID(#303,#307,#308,20.);
#310=IFCEXTRUDEDAREASOLID(#311,#314,#318,20.);
#311=IFCARBITRARYCLOSEDPROFILEDEF(.AREA.,$,#312);
#312=IFCINDEXEDPOLYCURVE(#313,(IFCLINEINDEX((1,2,3,4,5,6,1))),$);
#313=IFCCARTESIANPOINTLIST2D(((0.,0.),(0.,40.),(-120.,40.),(-120.,20.),(-20.,20.),(-20.,0.)));
#314=IFCAXIS2PLACEMENT3D(#315,#316,#317);
#315=IFCCARTESIANPOINT((-73.800000000000011,60.,1015.));
#316=IFCDIRECTION((0.,0.,1.));
#317=IFCDIRECTION((1.,0.,0.));
#318=IFCDIRECTION((0.,0.,1.));
#319=IFCSHAPEREPRESENTATION(#11,'Body','SweptSolid',(#255,#264,#300,#309,#310,#273,#282,#291));
#320=IFCPRODUCTDEFINITIONSHAPE($,$,(#319));
#326=IFCCARTESIANPOINT((4400.,0.,0.));
#327=IFCDIRECTION((0.,0.,1.));
#328=IFCDIRECTION((1.,0.,0.));
#329=IFCAXIS2PLACEMENT3D(#326,#327,#328);
#330=IFCLOCALPLACEMENT(#30,#329);
#331=IFCRELFILLSELEMENT('2cTfkMl1f1IvFKSha5G76x',$,$,$,#227,#246);
#332=IFCPROPERTYSET('3qxpPSneT1YBniy7fS_Dow',$,'EPset_Plan',$,(#334,#335));
#333=IFCRELDEFINESBYPROPERTIES('2GWP4mIyrCqhCdasJJB2pn',$,$,$,(#246),#332);
#334=IFCPROPERTYSINGLEVALUE('Polygon2D',$,IFCLABEL('4.4000,0.0000;5.6000,0.0000;5.6000,0.2000;4.4000,0.2000'),$);
#335=IFCPROPERTYSINGLEVALUE('Category',$,IFCLABEL('IfcDoor'),$);
#336=IFCPROPERTYSET('1dTuTcpHH6qAez6xjsSxAL',$,'EPset_OpeningMeta',$,(#338,#339,#340));
#337=IFCRELDEFINESBYPROPERTIES('3yIumAgOv5gvUSPe6yKFtQ',$,$,$,(#246),#336);
#338=IFCPROPERTYSINGLEVALUE('Width',$,IFCREAL(1.2),$);
#339=IFCPROPERTYSINGLEVALUE('Height',$,IFCREAL(2.2000000000000002),$);
#340=IFCPROPERTYSINGLEVALUE('HostWall',$,IFCLABEL('South Wall'),$);
#341=IFCOPENINGELEMENT('0owOn6AZnApRoO1x$bw54U',$,'North Window A-Opening',$,$,#359,#348,$,$);
#342=IFCCARTESIANPOINTLIST2D(((1200.,5800.),(2700.,5800.),(2700.,6000.),(1200.,6000.),(1200.,5800.)));
#343=IFCINDEXEDPOLYCURVE(#342,$,$);
#344=IFCDIRECTION((0.,0.,1.));
#345=IFCARBITRARYCLOSEDPROFILEDEF(.AREA.,$,#343);
#346=IFCEXTRUDEDAREASOLID(#345,$,#344,1200.);
#347=IFCSHAPEREPRESENTATION(#11,'Body','SweptSolid',(#346));
#348=IFCPRODUCTDEFINITIONSHAPE($,$,(#347));
#354=IFCRELVOIDSELEMENT('0wn$Vrw_TC79hTtX3FSsLw',$,$,$,#102,#341);
#355=IFCCARTESIANPOINT((0.,0.,900.));
#356=IFCDIRECTION((0.,0.,1.));
#357=IFCDIRECTION((1.,0.,0.));
#358=IFCAXIS2PLACEMENT3D(#355,#356,#357);
#359=IFCLOCALPLACEMENT(#119,#358);
#360=IFCWINDOW('3DKGXzhAH5m910gNhabz55',$,'North Window A',$,$,#414,#404,$,$,$,$,$,$);
#361=IFCCARTESIANPOINTLIST2D(((0.,0.),(1.5,0.),(1.5,1.2),(0.,1.2)));
#362=IFCINDEXEDPOLYCURVE(#361,(IFCLINEINDEX((1,2,3,4,1))),$);
#363=IFCCARTESIANPOINTLIST2D(((25.,25.),(-23.5,25.),(-23.5,-23.799999999999997),(25.,-23.799999999999997)));
#364=IFCINDEXEDPOLYCURVE(#363,(IFCLINEINDEX((1,2,3,4,1))),$);
#365=IFCARBITRARYPROFILEDEFWITHVOIDS(.AREA.,$,#362,(#364));
#366=IFCCARTESIANPOINT((0.,90.,0.));
#367=IFCDIRECTION((0.,-1.,0.));
#368=IFCDIRECTION((1.,0.,0.));
#369=IFCAXIS2PLACEMENT3D(#366,#367,#368);
#370=IFCDIRECTION((0.,0.,-1.));
#371=IFCEXTRUDEDAREASOLID(#365,#369,#370,10.);
#372=IFCCARTESIANPOINTLIST2D(((0.,0.),(1.5,0.),(1.5,1.2),(0.,1.2)));
#373=IFCINDEXEDPOLYCURVE(#372,(IFCLINEINDEX((1,2,3,4,1))),$);
#374=IFCCARTESIANPOINTLIST2D(((50.,50.),(-48.5,50.),(-48.5,-48.799999999999997),(50.,-48.799999999999997)));
#375=IFCINDEXEDPOLYCURVE(#374,(IFCLINEINDEX((1,2,3,4,1))),$);
#376=IFCARBITRARYPROFILEDEFWITHVOIDS(.AREA.,$,#373,(#375));
#377=IFCCARTESIANPOINT((0.,50.,0.));
#378=IFCDIRECTION((0.,-1.,0.));
#379=IFCDIRECTION((1.,0.,0.));
#380=IFCAXIS2PLACEMENT3D(#377,#378,#379);
#381=IFCDIRECTION((0.,0.,-1.));
#382=IFCEXTRUDEDAREASOLID(#376,#380,#381,40.);
#383=IFCCARTESIANPOINTLIST2D(((0.,0.),(-48.5,0.),(-48.5,-48.799999999999997),(0.,-48.799999999999997)));
#384=IFCINDEXEDPOLYCURVE(#383,(IFCLINEINDEX((1,2,3,4,1))),$);
#385=IFCCARTESIANPOINTLIST2D(((35.,35.),(-83.5,35.),(-83.5,-83.799999999999997),(35.,-83.799999999999997)));
#386=IFCINDEXEDPOLYCURVE(#385,(IFCLINEINDEX((1,2,3,4,1))),$);
#387=IFCARBITRARYPROFILEDEFWITHVOIDS(.AREA.,$,#384,(#386));
#388=IFCCARTESIANPOINT((25.,90.,25.));
#389=IFCDIRECTION((0.,-1.,0.));
#390=IFCDIRECTION((1.,0.,0.));
#391=IFCAXIS2PLACEMENT3D(#388,#389,#390);
#392=IFCDIRECTION((0.,0.,-1.));
#393=IFCEXTRUDEDAREASOLID(#387,#391,#392,35.);
#394=IFCINDEXEDPOLYCURVE(#395,(IFCLINEINDEX((1,2,3,4,1))),$);
#395=IFCCARTESIANPOINTLIST2D(((35.,35.),(-83.5,35.),(-83.5,-83.799999999999997),(35.,-83.799999999999997)));
#396=IFCARBITRARYCLOSEDPROFILEDEF(.AREA.,$,#394);
#397=IFCCARTESIANPOINT((25.,102.5,25.));
#398=IFCDIRECTION((0.,-1.,0.));
#399=IFCDIRECTION((1.,0.,0.));
#400=IFCAXIS2PLACEMENT3D(#397,#398,#399);
#401=IFCDIRECTION((0.,0.,-1.));
#402=IFCEXTRUDEDAREASOLID(#396,#400,#401,10.);
#403=IFCSHAPEREPRESENTATION(#11,'Body','SweptSolid',(#371,#382,#393,#402));
#404=IFCPRODUCTDEFINITIONSHAPE($,$,(#403));
#410=IFCCARTESIANPOINT((1200.,5800.,900.));
#411=IFCDIRECTION((0.,0.,1.));
#412=IFCDIRECTION((1.,0.,0.));
#413=IFCAXIS2PLACEMENT3D(#410,#411,#412);
#414=IFCLOCALPLACEMENT(#30,#413);
#415=IFCRELFILLSELEMENT('1twQlmGID2muhf5ud4_Czu',$,$,$,#341,#360);
#416=IFCPROPERTYSET('10D1XlN5r0JgXKW5805_Pq',$,'EPset_Plan',$,(#418,#419));
#417=IFCRELDEFINESBYPROPERTIES('1WPV6VT9TCqhcR6hJT0wLR',$,$,$,(#360),#416);
#418=IFCPROPERTYSINGLEVALUE('Polygon2D',$,IFCLABEL('1.2000,5.8000;2.7000,5.8000;2.7000,6.0000;1.2000,6.0000'),$);
#419=IFCPROPERTYSINGLEVALUE('Category',$,IFCLABEL('IfcWindow'),$);
#420=IFCPROPERTYSET('2HItowm018wffxAPernZSn',$,'EPset_OpeningMeta',$,(#422,#423,#424));
#421=IFCRELDEFINESBYPROPERTIES('1_4t9O6KrBEAoXzG7sqcHF',$,$,$,(#360),#420);
#422=IFCPROPERTYSINGLEVALUE('Width',$,IFCREAL(1.5),$);
#423=IFCPROPERTYSINGLEVALUE('Height',$,IFCREAL(1.2),$);
#424=IFCPROPERTYSINGLEVALUE('HostWall',$,IFCLABEL('North Wall'),$);
#425=IFCOPENINGELEMENT('21wf7H5kv9FBYSDfVs$VCr',$,'North Window B-Opening',$,$,#443,#432,$,$);
#426=IFCCARTESIANPOINTLIST2D(((5800.,5800.),(7300.,5800.),(7300.,6000.),(5800.,6000.),(5800.,5800.)));
#427=IFCINDEXEDPOLYCURVE(#426,$,$);
#428=IFCDIRECTION((0.,0.,1.));
#429=IFCARBITRARYCLOSEDPROFILEDEF(.AREA.,$,#427);
#430=IFCEXTRUDEDAREASOLID(#429,$,#428,1200.);
#431=IFCSHAPEREPRESENTATION(#11,'Body','SweptSolid',(#430));
#432=IFCPRODUCTDEFINITIONSHAPE($,$,(#431));
#438=IFCRELVOIDSELEMENT('1n2zLHzSX0Yx_z$WIRduuS',$,$,$,#102,#425);
#439=IFCCARTESIANPOINT((0.,0.,900.));
#440=IFCDIRECTION((0.,0.,1.));
#441=IFCDIRECTION((1.,0.,0.));
#442=IFCAXIS2PLACEMENT3D(#439,#440,#441);
#443=IFCLOCALPLACEMENT(#119,#442);
#444=IFCWINDOW('3F5fSh$Cj3YPcjYnV2CxMG',$,'North Window B',$,$,#498,#488,$,$,$,$,$,$);
#445=IFCCARTESIANPOINTLIST2D(((0.,0.),(1.5,0.),(1.5,1.2),(0.,1.2)));
#446=IFCINDEXEDPOLYCURVE(#445,(IFCLINEINDEX((1,2,3,4,1))),$);
#447=IFCCARTESIANPOINTLIST2D(((25.,25.),(-23.5,25.),(-23.5,-23.799999999999997),(25.,-23.799999999999997)));
#448=IFCINDEXEDPOLYCURVE(#447,(IFCLINEINDEX((1,2,3,4,1))),$);
#449=IFCARBITRARYPROFILEDEFWITHVOIDS(.AREA.,$,#446,(#448));
#450=IFCCARTESIANPOINT((0.,90.,0.));
#451=IFCDIRECTION((0.,-1.,0.));
#452=IFCDIRECTION((1.,0.,0.));
#453=IFCAXIS2PLACEMENT3D(#450,#451,#452);
#454=IFCDIRECTION((0.,0.,-1.));
#455=IFCEXTRUDEDAREASOLID(#449,#453,#454,10.);
#456=IFCCARTESIANPOINTLIST2D(((0.,0.),(1.5,0.),(1.5,1.2),(0.,1.2)));
#457=IFCINDEXEDPOLYCURVE(#456,(IFCLINEINDEX((1,2,3,4,1))),$);
#458=IFCCARTESIANPOINTLIST2D(((50.,50.),(-48.5,50.),(-48.5,-48.799999999999997),(50.,-48.799999999999997)));
#459=IFCINDEXEDPOLYCURVE(#458,(IFCLINEINDEX((1,2,3,4,1))),$);
#460=IFCARBITRARYPROFILEDEFWITHVOIDS(.AREA.,$,#457,(#459));
#461=IFCCARTESIANPOINT((0.,50.,0.));
#462=IFCDIRECTION((0.,-1.,0.));
#463=IFCDIRECTION((1.,0.,0.));
#464=IFCAXIS2PLACEMENT3D(#461,#462,#463);
#465=IFCDIRECTION((0.,0.,-1.));
#466=IFCEXTRUDEDAREASOLID(#460,#464,#465,40.);
#467=IFCCARTESIANPOINTLIST2D(((0.,0.),(-48.5,0.),(-48.5,-48.799999999999997),(0.,-48.799999999999997)));
#468=IFCINDEXEDPOLYCURVE(#467,(IFCLINEINDEX((1,2,3,4,1))),$);
#469=IFCCARTESIANPOINTLIST2D(((35.,35.),(-83.5,35.),(-83.5,-83.799999999999997),(35.,-83.799999999999997)));
#470=IFCINDEXEDPOLYCURVE(#469,(IFCLINEINDEX((1,2,3,4,1))),$);
#471=IFCARBITRARYPROFILEDEFWITHVOIDS(.AREA.,$,#468,(#470));
#472=IFCCARTESIANPOINT((25.,90.,25.));
#473=IFCDIRECTION((0.,-1.,0.));
#474=IFCDIRECTION((1.,0.,0.));
#475=IFCAXIS2PLACEMENT3D(#472,#473,#474);
#476=IFCDIRECTION((0.,0.,-1.));
#477=IFCEXTRUDEDAREASOLID(#471,#475,#476,35.);
#478=IFCINDEXEDPOLYCURVE(#479,(IFCLINEINDEX((1,2,3,4,1))),$);
#479=IFCCARTESIANPOINTLIST2D(((35.,35.),(-83.5,35.),(-83.5,-83.799999999999997),(35.,-83.799999999999997)));
#480=IFCARBITRARYCLOSEDPROFILEDEF(.AREA.,$,#478);
#481=IFCCARTESIANPOINT((25.,102.5,25.));
#482=IFCDIRECTION((0.,-1.,0.));
#483=IFCDIRECTION((1.,0.,0.));
#484=IFCAXIS2PLACEMENT3D(#481,#482,#483);
#485=IFCDIRECTION((0.,0.,-1.));
#486=IFCEXTRUDEDAREASOLID(#480,#484,#485,10.);
#487=IFCSHAPEREPRESENTATION(#11,'Body','SweptSolid',(#455,#466,#477,#486));
#488=IFCPRODUCTDEFINITIONSHAPE($,$,(#487));
#494=IFCCARTESIANPOINT((5800.,5800.,900.));
#495=IFCDIRECTION((0.,0.,1.));
#496=IFCDIRECTION((1.,0.,0.));
#497=IFCAXIS2PLACEMENT3D(#494,#495,#496);
#498=IFCLOCALPLACEMENT(#30,#497);
#499=IFCRELFILLSELEMENT('1F7$Of6cfFEgv48oW6mT4S',$,$,$,#425,#444);
#500=IFCPROPERTYSET('1dIA3S6pfCyPiAKm$OEcE5',$,'EPset_Plan',$,(#502,#503));
#501=IFCRELDEFINESBYPROPERTIES('2wISd4ZZD5MhU4_l$A6J5m',$,$,$,(#444),#500);
#502=IFCPROPERTYSINGLEVALUE('Polygon2D',$,IFCLABEL('5.8000,5.8000;7.3000,5.8000;7.3000,6.0000;5.8000,6.0000'),$);
#503=IFCPROPERTYSINGLEVALUE('Category',$,IFCLABEL('IfcWindow'),$);
#504=IFCPROPERTYSET('0ZoIGDspj8kAAFXh4vrQtK',$,'EPset_OpeningMeta',$,(#506,#507,#508));
#505=IFCRELDEFINESBYPROPERTIES('1iqd0PMNXE4QteGoeL1ENZ',$,$,$,(#444),#504);
#506=IFCPROPERTYSINGLEVALUE('Width',$,IFCREAL(1.5),$);
#507=IFCPROPERTYSINGLEVALUE('Height',$,IFCREAL(1.2),$);
#508=IFCPROPERTYSINGLEVALUE('HostWall',$,IFCLABEL('North Wall'),$);
#509=IFCOPENINGELEMENT('3_SRE0K1z4aPRtC7sAvZt9',$,'East Window A-Opening',$,$,#527,#516,$,$);
#510=IFCCARTESIANPOINTLIST2D(((9800.,1000.),(11300.,1000.),(11300.,1200.),(9800.,1200.),(9800.,1000.)));
#511=IFCINDEXEDPOLYCURVE(#510,$,$);
#512=IFCDIRECTION((0.,0.,1.));
#513=IFCARBITRARYCLOSEDPROFILEDEF(.AREA.,$,#511);
#514=IFCEXTRUDEDAREASOLID(#513,$,#512,1200.);
#515=IFCSHAPEREPRESENTATION(#11,'Body','SweptSolid',(#514));
#516=IFCPRODUCTDEFINITIONSHAPE($,$,(#515));
#522=IFCRELVOIDSELEMENT('34$sfdw8D3J8D3lStVE5Ai',$,$,$,#67,#509);
#523=IFCCARTESIANPOINT((0.,0.,900.));
#524=IFCDIRECTION((0.,0.,1.));
#525=IFCDIRECTION((1.,0.,0.));
#526=IFCAXIS2PLACEMENT3D(#523,#524,#525);
#527=IFCLOCALPLACEMENT(#84,#526);
#528=IFCWINDOW('1RUvIT8FPCuBVqTCRbQ0H9',$,'East Window A',$,$,#582,#572,$,$,$,$,$,$);
#529=IFCCARTESIANPOINTLIST2D(((0.,0.),(1.5,0.),(1.5,1.2),(0.,1.2)));
#530=IFCINDEXEDPOLYCURVE(#529,(IFCLINEINDEX((1,2,3,4,1))),$);
#531=IFCCARTESIANPOINTLIST2D(((25.,25.),(-23.5,25.),(-23.5,-23.799999999999997),(25.,-23.799999999999997)));
#532=IFCINDEXEDPOLYCURVE(#531,(IFCLINEINDEX((1,2,3,4,1))),$);
#533=IFCARBITRARYPROFILEDEFWITHVOIDS(.AREA.,$,#530,(#532));
#534=IFCCARTESIANPOINT((0.,90.,0.));
#535=IFCDIRECTION((0.,-1.,0.));
#536=IFCDIRECTION((1.,0.,0.));
#537=IFCAXIS2PLACEMENT3D(#534,#535,#536);
#538=IFCDIRECTION((0.,0.,-1.));
#539=IFCEXTRUDEDAREASOLID(#533,#537,#538,10.);
#540=IFCCARTESIANPOINTLIST2D(((0.,0.),(1.5,0.),(1.5,1.2),(0.,1.2)));
#541=IFCINDEXEDPOLYCURVE(#540,(IFCLINEINDEX((1,2,3,4,1))),$);
#542=IFCCARTESIANPOINTLIST2D(((50.,50.),(-48.5,50.),(-48.5,-48.799999999999997),(50.,-48.799999999999997)));
#543=IFCINDEXEDPOLYCURVE(#542,(IFCLINEINDEX((1,2,3,4,1))),$);
#544=IFCARBITRARYPROFILEDEFWITHVOIDS(.AREA.,$,#541,(#543));
#545=IFCCARTESIANPOINT((0.,50.,0.));
#546=IFCDIRECTION((0.,-1.,0.));
#547=IFCDIRECTION((1.,0.,0.));
#548=IFCAXIS2PLACEMENT3D(#545,#546,#547);
#549=IFCDIRECTION((0.,0.,-1.));
#550=IFCEXTRUDEDAREASOLID(#544,#548,#549,40.);
#551=IFCCARTESIANPOINTLIST2D(((0.,0.),(-48.5,0.),(-48.5,-48.799999999999997),(0.,-48.799999999999997)));
#552=IFCINDEXEDPOLYCURVE(#551,(IFCLINEINDEX((1,2,3,4,1))),$);
#553=IFCCARTESIANPOINTLIST2D(((35.,35.),(-83.5,35.),(-83.5,-83.799999999999997),(35.,-83.799999999999997)));
#554=IFCINDEXEDPOLYCURVE(#553,(IFCLINEINDEX((1,2,3,4,1))),$);
#555=IFCARBITRARYPROFILEDEFWITHVOIDS(.AREA.,$,#552,(#554));
#556=IFCCARTESIANPOINT((25.,90.,25.));
#557=IFCDIRECTION((0.,-1.,0.));
#558=IFCDIRECTION((1.,0.,0.));
#559=IFCAXIS2PLACEMENT3D(#556,#557,#558);
#560=IFCDIRECTION((0.,0.,-1.));
#561=IFCEXTRUDEDAREASOLID(#555,#559,#560,35.);
#562=IFCINDEXEDPOLYCURVE(#563,(IFCLINEINDEX((1,2,3,4,1))),$);
#563=IFCCARTESIANPOINTLIST2D(((35.,35.),(-83.5,35.),(-83.5,-83.799999999999997),(35.,-83.799999999999997)));
#564=IFCARBITRARYCLOSEDPROFILEDEF(.AREA.,$,#562);
#565=IFCCARTESIANPOINT((25.,102.5,25.));
#566=IFCDIRECTION((0.,-1.,0.));
#567=IFCDIRECTION((1.,0.,0.));
#568=IFCAXIS2PLACEMENT3D(#565,#566,#567);
#569=IFCDIRECTION((0.,0.,-1.));
#570=IFCEXTRUDEDAREASOLID(#564,#568,#569,10.);
#571=IFCSHAPEREPRESENTATION(#11,'Body','SweptSolid',(#539,#550,#561,#570));
#572=IFCPRODUCTDEFINITIONSHAPE($,$,(#571));
#578=IFCCARTESIANPOINT((9800.,1000.,900.));
#579=IFCDIRECTION((0.,0.,1.));
#580=IFCDIRECTION((1.,0.,0.));
#581=IFCAXIS2PLACEMENT3D(#578,#579,#580);
#582=IFCLOCALPLACEMENT(#30,#581);
#583=IFCRELFILLSELEMENT('3u2p$lAy9DjuuYrwI3_gZv',$,$,$,#509,#528);
#584=IFCPROPERTYSET('1jH1MMmsj29uSqczx3KvLq',$,'EPset_Plan',$,(#586,#587));
#585=IFCRELDEFINESBYPROPERTIES('0$uaPsOJv79viJF_1uadjq',$,$,$,(#528),#584);
#586=IFCPROPERTYSINGLEVALUE('Polygon2D',$,IFCLABEL('9.8000,1.0000;11.3000,1.0000;11.3000,1.2000;9.8000,1.2000'),$);
#587=IFCPROPERTYSINGLEVALUE('Category',$,IFCLABEL('IfcWindow'),$);
#588=IFCPROPERTYSET('3tWBQ8Ub90$RWQq6Jn2lH0',$,'EPset_OpeningMeta',$,(#590,#591,#592));
#589=IFCRELDEFINESBYPROPERTIES('2URxHPPG1BfQU2Im$tZTPY',$,$,$,(#528),#588);
#590=IFCPROPERTYSINGLEVALUE('Width',$,IFCREAL(1.5),$);
#591=IFCPROPERTYSINGLEVALUE('Height',$,IFCREAL(1.2),$);
#592=IFCPROPERTYSINGLEVALUE('HostWall',$,IFCLABEL('East Wall'),$);
#593=IFCOPENINGELEMENT('3NTGLJk$rCBxx0uozzfQnb',$,'West Window A-Opening',$,$,#611,#600,$,$);
#594=IFCCARTESIANPOINTLIST2D(((0.,2799.9999999999995),(1500.,2799.9999999999995),(1500.,3000.),(0.,3000.),(0.,2799.9999999999995)));
#595=IFCINDEXEDPOLYCURVE(#594,$,$);
#596=IFCDIRECTION((0.,0.,1.));
#597=IFCARBITRARYCLOSEDPROFILEDEF(.AREA.,$,#595);
#598=IFCEXTRUDEDAREASOLID(#597,$,#596,1200.);
#599=IFCSHAPEREPRESENTATION(#11,'Body','SweptSolid',(#598));
#600=IFCPRODUCTDEFINITIONSHAPE($,$,(#599));
#606=IFCRELVOIDSELEMENT('0J8Sq8y35D5uL_wI8AFrCz',$,$,$,#137,#593);
#607=IFCCARTESIANPOINT((0.,0.,900.));
#608=IFCDIRECTION((0.,0.,1.));
#609=IFCDIRECTION((1.,0.,0.));
#610=IFCAXIS2PLACEMENT3D(#607,#608,#609);
#611=IFCLOCALPLACEMENT(#154,#610);
#612=IFCWINDOW('3i6jbBMaT9tRYY86p5fbE5',$,'West Window A',$,$,#666,#656,$,$,$,$,$,$);
#613=IFCCARTESIANPOINTLIST2D(((0.,0.),(1.5,0.),(1.5,1.2),(0.,1.2)));
#614=IFCINDEXEDPOLYCURVE(#613,(IFCLINEINDEX((1,2,3,4,1))),$);
#615=IFCCARTESIANPOINTLIST2D(((25.,25.),(-23.5,25.),(-23.5,-23.799999999999997),(25.,-23.799999999999997)));
#616=IFCINDEXEDPOLYCURVE(#615,(IFCLINEINDEX((1,2,3,4,1))),$);
#617=IFCARBITRARYPROFILEDEFWITHVOIDS(.AREA.,$,#614,(#616));
#618=IFCCARTESIANPOINT((0.,90.,0.));
#619=IFCDIRECTION((0.,-1.,0.));
#620=IFCDIRECTION((1.,0.,0.));
#621=IFCAXIS2PLACEMENT3D(#618,#619,#620);
#622=IFCDIRECTION((0.,0.,-1.));
#623=IFCEXTRUDEDAREASOLID(#617,#621,#622,10.);
#624=IFCCARTESIANPOINTLIST2D(((0.,0.),(1.5,0.),(1.5,1.2),(0.,1.2)));
#625=IFCINDEXEDPOLYCURVE(#624,(IFCLINEINDEX((1,2,3,4,1))),$);
#626=IFCCARTESIANPOINTLIST2D(((50.,50.),(-48.5,50.),(-48.5,-48.799999999999997),(50.,-48.799999999999997)));
#627=IFCINDEXEDPOLYCURVE(#626,(IFCLINEINDEX((1,2,3,4,1))),$);
#628=IFCARBITRARYPROFILEDEFWITHVOIDS(.AREA.,$,#625,(#627));
#629=IFCCARTESIANPOINT((0.,50.,0.));
#630=IFCDIRECTION((0.,-1.,0.));
#631=IFCDIRECTION((1.,0.,0.));
#632=IFCAXIS2PLACEMENT3D(#629,#630,#631);
#633=IFCDIRECTION((0.,0.,-1.));
#634=IFCEXTRUDEDAREASOLID(#628,#632,#633,40.);
#635=IFCCARTESIANPOINTLIST2D(((0.,0.),(-48.5,0.),(-48.5,-48.799999999999997),(0.,-48.799999999999997)));
#636=IFCINDEXEDPOLYCURVE(#635,(IFCLINEINDEX((1,2,3,4,1))),$);
#637=IFCCARTESIANPOINTLIST2D(((35.,35.),(-83.5,35.),(-83.5,-83.799999999999997),(35.,-83.799999999999997)));
#638=IFCINDEXEDPOLYCURVE(#637,(IFCLINEINDEX((1,2,3,4,1))),$);
#639=IFCARBITRARYPROFILEDEFWITHVOIDS(.AREA.,$,#636,(#638));
#640=IFCCARTESIANPOINT((25.,90.,25.));
#641=IFCDIRECTION((0.,-1.,0.));
#642=IFCDIRECTION((1.,0.,0.));
#643=IFCAXIS2PLACEMENT3D(#640,#641,#642);
#644=IFCDIRECTION((0.,0.,-1.));
#645=IFCEXTRUDEDAREASOLID(#639,#643,#644,35.);
#646=IFCINDEXEDPOLYCURVE(#647,(IFCLINEINDEX((1,2,3,4,1))),$);
#647=IFCCARTESIANPOINTLIST2D(((35.,35.),(-83.5,35.),(-83.5,-83.799999999999997),(35.,-83.799999999999997)));
#648=IFCARBITRARYCLOSEDPROFILEDEF(.AREA.,$,#646);
#649=IFCCARTESIANPOINT((25.,102.5,25.));
#650=IFCDIRECTION((0.,-1.,0.));
#651=IFCDIRECTION((1.,0.,0.));
#652=IFCAXIS2PLACEMENT3D(#649,#650,#651);
#653=IFCDIRECTION((0.,0.,-1.));
#654=IFCEXTRUDEDAREASOLID(#648,#652,#653,10.);
#655=IFCSHAPEREPRESENTATION(#11,'Body','SweptSolid',(#623,#634,#645,#654));
#656=IFCPRODUCTDEFINITIONSHAPE($,$,(#655));
#662=IFCCARTESIANPOINT((0.,2799.9999999999995,900.));
#663=IFCDIRECTION((0.,0.,1.));
#664=IFCDIRECTION((1.,0.,0.));
#665=IFCAXIS2PLACEMENT3D(#662,#663,#664);
#666=IFCLOCALPLACEMENT(#30,#665);
#667=IFCRELFILLSELEMENT('0zWqy3A3nDHxRXHJe09qJ2',$,$,$,#593,#612);
#668=IFCPROPERTYSET('2j_0DzfTn3exCNzX_IdAzt',$,'EPset_Plan',$,(#670,#671));
#669=IFCRELDEFINESBYPROPERTIES('0dzPUOLJL9fxZZvkvyNs5F',$,$,$,(#612),#668);
#670=IFCPROPERTYSINGLEVALUE('Polygon2D',$,IFCLABEL('0.0000,2.8000;1.5000,2.8000;1.5000,3.0000;0.0000,3.0000'),$);
#671=IFCPROPERTYSINGLEVALUE('Category',$,IFCLABEL('IfcWindow'),$);
#672=IFCPROPERTYSET('3vNb5yMwH5j9CvZlZqO5g2',$,'EPset_OpeningMeta',$,(#674,#675,#676));
#673=IFCRELDEFINESBYPROPERTIES('3_Dz2tueP1CPb49IyF45Mj',$,$,$,(#612),#672);
#674=IFCPROPERTYSINGLEVALUE('Width',$,IFCREAL(1.5),$);
#675=IFCPROPERTYSINGLEVALUE('Height',$,IFCREAL(1.2),$);
#676=IFCPROPERTYSINGLEVALUE('HostWall',$,IFCLABEL('West Wall'),$);
#677=IFCROOF('1l64tmBbLFCOw4CurJXE2$',$,'Entrance Canopy',$,$,#694,#684,$,$);
#678=IFCCARTESIANPOINTLIST2D(((3900.,-800.),(6099.9999999999991,-800.),(6099.9999999999991,0.),(3900.,0.),(3900.,-800.)));
#679=IFCINDEXEDPOLYCURVE(#678,$,$);
#680=IFCDIRECTION((0.,0.,1.));
#681=IFCARBITRARYCLOSEDPROFILEDEF(.AREA.,$,#679);
#682=IFCEXTRUDEDAREASOLID(#681,$,#680,180.);
#683=IFCSHAPEREPRESENTATION(#11,'Body','SweptSolid',(#682));
#684=IFCPRODUCTDEFINITIONSHAPE($,$,(#683));
#690=IFCCARTESIANPOINT((0.,0.,2400.));
#691=IFCDIRECTION((0.,0.,1.));
#692=IFCDIRECTION((1.,0.,0.));
#693=IFCAXIS2PLACEMENT3D(#690,#691,#692);
#694=IFCLOCALPLACEMENT(#30,#693);
#695=IFCPROPERTYSET('3kZH9Cb_nC0e1_IiTO0bu6',$,'EPset_Plan',$,(#697,#698));
#696=IFCRELDEFINESBYPROPERTIES('1Pe1zVOHDBZB29dlh6Xyn0',$,$,$,(#677),#695);
#697=IFCPROPERTYSINGLEVALUE('Polygon2D',$,IFCLABEL('3.9000,-0.8000;6.1000,-0.8000;6.1000,0.0000;3.9000,0.0000'),$);
#698=IFCPROPERTYSINGLEVALUE('Category',$,IFCLABEL('IfcRoof'),$);
#699=IFCELEMENTQUANTITY('15ja3QPIbAuhUY70pmomo_',$,'Qto_SlabBaseQuantities',$,'BaseQuantities',(#701,#702));
#700=IFCRELDEFINESBYPROPERTIES('2j3lDNEjv6bAsw2OuKS_wi',$,$,$,(#677),#699);
#701=IFCQUANTITYAREA('NetArea',$,$,1.76,$);
#702=IFCQUANTITYVOLUME('NetVolume',$,$,0.31680000000000003,$);
ENDSEC;
END-ISO-10303-21;
