999
FreeCAD v1.1 20260725 (Git shallow)
  0
SECTION
  2
HEADER
  9
$ACADVER
  1
AC1014
  9
$ACADMAINTVER
 70
     9
  9
$DWGCODEPAGE
  3
ANSI_1252
  9
$TEXTSTYLE
  7
STANDARD
  9
$DIMSTYLE
  2
STANDARD
  9
$DIMTXSTY
  7
STANDARD
  9
$CMLSTYLE
  2
STANDARD
  9
$LUNITS
 70
2
  9
$INSUNITS
 70
4
  9
$PEXTMAX
 10
50
 20
50
 30
50
  9
$PEXTMIN
 10
0
 20
0
 30
0
  9
$HANDSEED
  5
FFFF
  0
ENDSEC
  0
SECTION
  2
CLASSES
  0
CLASS
  1
ACDBDICTIONARYWDFLT
  2
AcDbDictionaryWithDefault
  3
ObjectDBX Classes
 90
        0
280
     0
281
     0
  0
CLASS
  1
XRECORD
  2
AcDbXrecord
  3
ObjectDBX Classes
 90
        0
280
     0
281
     0
  0
CLASS
  1
LWPOLYLINE
  2
AcDbPolyline
  3
ObjectDBX Classes
 90
        0
280
     0
281
     1
  0
ENDSEC
  0
SECTION
  2
TABLES
  0
TABLE
  2
VPORT
  5
20
330
0
100
AcDbSymbolTable
 70
     1
  0
VPORT
  5
21
330
20
100
AcDbSymbolTableRecord
100
AcDbViewportTableRecord
  2
*ACTIVE
 70
     0
  0
ENDTAB
  0
TABLE
  2
LTYPE
  5
22
330
0
100
AcDbSymbolTable
 70
     1
  0
LTYPE
  5
23
330
21
100
AcDbSymbolTableRecord
100
AcDbLinetypeTableRecord
  2
BYBLOCK
 70
     0
  3

 72
    65
 73
     0
 40
0.0
  0
LTYPE
  5
24
330
21
100
AcDbSymbolTableRecord
100
AcDbLinetypeTableRecord
  2
BYLAYER
 70
     0
  3

 72
    65
 73
     0
 40
0.0
  0
LTYPE
  5
25
330
21
100
AcDbSymbolTableRecord
100
AcDbLinetypeTableRecord
  2
CONTINUOUS
 70
     0
  3
Solid line
 72
    65
 73
     0
 40
0.0
  0
ENDTAB
  0
TABLE
  2
LAYER
  5
A68
330
0
100
AcDbSymbolTable
 70
7
  0
LAYER
  5
A69
330
A68
100
AcDbSymbolTableRecord
100
AcDbLayerTableRecord
  2
0
 70
   0
 62
   7
  6
CONTINUOUS
  0
LAYER
  5
A6A
330
A68
100
AcDbSymbolTableRecord
100
AcDbLayerTableRecord
  2
ProjItem
 70
    0
 62
    7
  6
CONTINUOUS
  0
LAYER
  5
A6B
330
A68
100
AcDbSymbolTableRecord
100
AcDbLayerTableRecord
  2
ProjItem001
 70
    0
 62
    7
  6
CONTINUOUS
  0
LAYER
  5
A6C
330
A68
100
AcDbSymbolTableRecord
100
AcDbLayerTableRecord
  2
ProjItem002
 70
    0
 62
    7
  6
CONTINUOUS
  0
LAYER
  5
A6D
330
A68
100
AcDbSymbolTableRecord
100
AcDbLayerTableRecord
  2
DimDia0
 70
    0
 62
    7
  6
CONTINUOUS
  0
LAYER
  5
A6E
330
A68
100
AcDbSymbolTableRecord
100
AcDbLayerTableRecord
  2
DimDia1
 70
    0
 62
    7
  6
CONTINUOUS
  0
LAYER
  5
A6F
330
A68
100
AcDbSymbolTableRecord
100
AcDbLayerTableRecord
  2
DimHeight
 70
    0
 62
    7
  6
CONTINUOUS
  0
ENDTAB
  0
TABLE
  2
STYLE
  5
70
330
0
100
AcDbSymbolTable
 70
     2
  0
STYLE
  5
71
330
70
100
AcDbSymbolTableRecord
100
AcDbTextStyleTableRecord
  2
STANDARD
 70
     0
 40
0.0
 41
1.0
 50
0.0
 71
     0
 42
2.5
  3
arial.ttf
  4

  0
STYLE
  5
72
330
70
100
AcDbSymbolTableRecord
100
AcDbTextStyleTableRecord
  2
ANNOTATIVE
 70
     0
 40
0.0
 41
1.0
 50
0.0
 71
     0
 42
2.5
  3
arial.ttf
  4

  0
ENDTAB
  0
TABLE
  2
VIEW
  5
73
330
0
100
AcDbSymbolTable
 70
     0
  0
ENDTAB
  0
TABLE
  2
UCS
  5
74
330
0
100
AcDbSymbolTable
 70
     0
  0
ENDTAB
  0
TABLE
  2
APPID
  5
75
330
0
100
AcDbSymbolTable
 70
     2
  0
APPID
  5
76
330
75
100
AcDbSymbolTableRecord
100
AcDbRegAppTableRecord
  2
ACAD
 70
     0
  0
APPID
  5
77
330
75
100
AcDbSymbolTableRecord
100
AcDbRegAppTableRecord
  2
ACADANNOTATIVE
 70
     0
  0
ENDTAB
  0
TABLE
  2
DIMSTYLE
  5
78
330
0
100
AcDbSymbolTable
 70
     2
  0
DIMSTYLE
105
79
330
78
100
AcDbSymbolTableRecord
100
AcDbDimStyleTableRecord
  2
STANDARD
 70
     0
  3

  4

  5

  6

  7

 40
0.0
 41
2.5
 42
0.625
 43
3.75
 44
1.25
 45
0.0
 46
0.0
 47
0.0
 48
0.0
140
2.5
141
2.5
142
0.0
143
0.03937007874016
144
1.0
145
0.0
146
1.0
147
0.625
 71
     0
 72
     0
 73
     0
 74
     0
 75
     0
 76
     0
 77
     1
 78
     8
170
     0
171
     3
172
     1
173
     0
174
     0
175
     0
176
     0
177
     0
178
     0
270
     2
271
     2
272
     2
273
     2
274
     3
340
71
275
     0
280
     0
281
     0
282
     0
283
     0
284
     8
285
     0
286
     0
287
     3
288
     0
  0
ENDTAB
  0
TABLE
  2
BLOCK_RECORD
  5
A01
330
0
100
AcDbSymbolTable
  70
5
  0
BLOCK_RECORD
  5
A02
330
A01
100
AcDbSymbolTableRecord
100
AcDbBlockTableRecord
  2
*MODEL_SPACE
  0
BLOCK_RECORD
  5
A03
330
A01
100
AcDbSymbolTableRecord
100
AcDbBlockTableRecord
  2
*PAPER_SPACE
  0
BLOCK_RECORD
  5
A4F
330
A01
100
AcDbSymbolTableRecord
100
AcDbBlockTableRecord
  2
*DimDia0
  0
BLOCK_RECORD
  5
A57
330
A01
100
AcDbSymbolTableRecord
100
AcDbBlockTableRecord
  2
*DimDia1
  0
BLOCK_RECORD
  5
A5F
330
A01
100
AcDbSymbolTableRecord
100
AcDbBlockTableRecord
  2
*DimHeight
  0
ENDTAB
  0
ENDSEC
  0
SECTION
  2
BLOCKS
  0
BLOCK
  5
A04
330
A02
100
AcDbEntity
  8
0
100
AcDbBlockBegin
  2
*MODEL_SPACE
 70
   0
 10
0
 20
0
 30
0
  3
*MODEL_SPACE
  1
 
  0
ENDBLK
  5
A05
330
A02
100
AcDbEntity
  8
0
100
AcDbBlockEnd
  0
BLOCK
  5
A06
330
A03
100
AcDbEntity
 67
1
  8
0
100
AcDbBlockBegin
  2
*PAPER_SPACE
 70
   0
 10
0
 20
0
 30
0
  3
*PAPER_SPACE
  1
 
  0
ENDBLK
  5
A07
330
A03
100
AcDbEntity
 67
    1
  8
0
100
AcDbBlockEnd
  0
BLOCK
  5
A50
330
A4F
100
AcDbEntity
  8
DimDia0
100
AcDbBlockBegin
  2
*DimDia0
 70
   1
 10
0
 20
0
 30
0
  3
*DimDia0
  1
 
  0
LINE
  5
A51
330
A4F
100
AcDbEntity
  8
DimDia0
100
AcDbLine
 10
171.918
 20
108.322
 30
0
 11
142.082
 21
88.1782
 31
0
  0
TEXT
  5
A52
330
A4F
100
AcDbEntity
  8
DimDia0
100
AcDbText
 10
187
 20
124.25
 30
0
 40
3.5
  1
⌀72
  7
STANDARD
 72
1
 11
187
 21
124.25
 31
0
100
AcDbText
  0
SOLID
  5
A53
330
A4F
100
AcDbEntity
  8
0
 62
     0
100
AcDbTrace
 10
168.008
 20
105.179
 30
0
 11
167.541
 21
105.869
 31
0
 12
171.918
 22
108.322
 32
0
 13
171.918
 23
108.322
 33
0
  0
SOLID
  5
A54
330
A4F
100
AcDbEntity
  8
0
 62
     0
100
AcDbTrace
 10
146.459
 20
90.6306
 30
0
 11
145.992
 21
91.3213
 31
0
 12
142.082
 22
88.1782
 32
0
 13
142.082
 23
88.1782
 33
0
  0
ENDBLK
  5
A55
330
A4F
100
AcDbEntity
  8
DimDia0
100
AcDbBlockEnd
  0
BLOCK
  5
A58
330
A57
100
AcDbEntity
  8
DimDia1
100
AcDbBlockBegin
  2
*DimDia1
 70
   1
 10
0
 20
0
 30
0
  3
*DimDia1
  1
 
  0
LINE
  5
A59
330
A57
100
AcDbEntity
  8
DimDia1
100
AcDbLine
 10
169.487
 20
106.562
 30
0
 11
144.513
 21
89.9384
 31
0
  0
TEXT
  5
A5A
330
A57
100
AcDbEntity
  8
DimDia1
100
AcDbText
 10
210
 20
139.25
 30
0
 40
3.5
  1
⌀60
  7
STANDARD
 72
1
 11
210
 21
139.25
 31
0
100
AcDbText
  0
SOLID
  5
A5B
330
A57
100
AcDbEntity
  8
0
 62
     0
100
AcDbTrace
 10
165.555
 20
103.444
 30
0
 11
165.094
 21
104.138
 31
0
 12
169.487
 22
106.562
 32
0
 13
169.487
 23
106.562
 33
0
  0
SOLID
  5
A5C
330
A57
100
AcDbEntity
  8
0
 62
     0
100
AcDbTrace
 10
148.906
 20
92.3621
 30
0
 11
148.445
 21
93.0558
 31
0
 12
144.513
 22
89.9384
 32
0
 13
144.513
 23
89.9384
 33
0
  0
ENDBLK
  5
A5D
330
A57
100
AcDbEntity
  8
DimDia1
100
AcDbBlockEnd
  0
BLOCK
  5
A60
330
A5F
100
AcDbEntity
  8
DimHeight
100
AcDbBlockBegin
  2
*DimHeight
 70
   1
 10
0
 20
0
 30
0
  3
*DimHeight
  1
 
  0
LINE
  5
A61
330
A5F
100
AcDbEntity
  8
DimHeight
100
AcDbLine
 10
145
 20
161.75
 30
0
 11
183.621
 21
161.75
 31
0
  0
LINE
  5
A62
330
A5F
100
AcDbEntity
  8
DimHeight
100
AcDbLine
 10
175
 20
134.25
 30
0
 11
183.621
 21
134.25
 31
0
  0
LINE
  5
A63
330
A5F
100
AcDbEntity
  8
DimHeight
100
AcDbLine
 10
183.621
 20
134.25
 30
0
 11
183.621
 21
161.75
 31
0
  0
TEXT
  5
A64
330
A5F
100
AcDbEntity
  8
DimHeight
100
AcDbText
 10
187
 20
148
 30
0
 40
3.5
  1
55
  7
STANDARD
 72
1
 11
183.621
 21
151.686
 31
0
100
AcDbText
  0
SOLID
  5
A65
330
A5F
100
AcDbEntity
  8
0
 62
     0
100
AcDbTrace
 10
184.038
 20
129.25
 30
0
 11
183.205
 21
129.25
 31
0
 12
183.621
 22
134.25
 32
0
 13
183.621
 23
134.25
 33
0
  0
SOLID
  5
A66
330
A5F
100
AcDbEntity
  8
0
 62
     0
100
AcDbTrace
 10
184.038
 20
166.75
 30
0
 11
183.205
 21
166.75
 31
0
 12
183.621
 22
161.75
 32
0
 13
183.621
 23
161.75
 33
0
  0
ENDBLK
  5
A67
330
A5F
100
AcDbEntity
  8
DimHeight
100
AcDbBlockEnd
  0
ENDSEC
  0
SECTION
  2
ENTITIES
  0
SPLINE
  5
A08
330
A02
100
AcDbEntity
  8
ProjItem
100
AcDbSpline
210
0
220
0
230
1
 70
8
 71
1
 72
17
 73
15
 74
0
 40
3.141592654
 40
3.141592654
 40
3.365992129
 40
3.590391604
 40
3.814791079
 40
4.039190555
 40
4.263590030
 40
4.487989505
 40
4.712388980
 40
4.936788456
 40
5.161187931
 40
5.385587406
 40
5.609986881
 40
5.834386357
 40
6.058785832
 40
6.283185307
 40
6.283185307
 10
139.000000000
 20
138.250000000
 30
0.000000000
 10
139.451297581
 20
138.250000000
 30
0.000000000
 10
140.782560378
 20
138.250000000
 30
0.000000000
 10
142.927033316
 20
138.250000000
 30
0.000000000
 10
145.777183567
 20
138.250000000
 30
0.000000000
 10
149.190092696
 20
138.250000000
 30
0.000000000
 10
152.994623189
 20
138.250000000
 30
0.000000000
 10
157.000000000
 20
138.250000000
 30
0.000000000
 10
161.005376811
 20
138.250000000
 30
0.000000000
 10
164.809907304
 20
138.250000000
 30
0.000000000
 10
168.222816433
 20
138.250000000
 30
0.000000000
 10
171.072966684
 20
138.250000000
 30
0.000000000
 10
173.217439622
 20
138.250000000
 30
0.000000000
 10
174.548702419
 20
138.250000000
 30
0.000000000
 10
175.000000000
 20
138.250000000
 30
0.000000000
  0
LINE
  5
A09
330
A02
100
AcDbEntity
  8
ProjItem
100
AcDbLine
 10
175.000000000
 20
134.250000000
 30
0.000000000
 11
175.000000000
 21
138.250000000
 31
0.000000000
  0
SPLINE
  5
A0A
330
A02
100
AcDbEntity
  8
ProjItem
100
AcDbSpline
210
0
220
0
230
1
 70
8
 71
1
 72
17
 73
15
 74
0
 40
3.141592654
 40
3.141592654
 40
3.365992129
 40
3.590391604
 40
3.814791079
 40
4.039190555
 40
4.263590030
 40
4.487989505
 40
4.712388980
 40
4.936788456
 40
5.161187931
 40
5.385587406
 40
5.609986881
 40
5.834386357
 40
6.058785832
 40
6.283185307
 40
6.283185307
 10
139.000000000
 20
134.250000000
 30
0.000000000
 10
139.451297581
 20
134.250000000
 30
0.000000000
 10
140.782560378
 20
134.250000000
 30
0.000000000
 10
142.927033316
 20
134.250000000
 30
0.000000000
 10
145.777183567
 20
134.250000000
 30
0.000000000
 10
149.190092696
 20
134.250000000
 30
0.000000000
 10
152.994623189
 20
134.250000000
 30
0.000000000
 10
157.000000000
 20
134.250000000
 30
0.000000000
 10
161.005376811
 20
134.250000000
 30
0.000000000
 10
164.809907304
 20
134.250000000
 30
0.000000000
 10
168.222816433
 20
134.250000000
 30
0.000000000
 10
171.072966684
 20
134.250000000
 30
0.000000000
 10
173.217439622
 20
134.250000000
 30
0.000000000
 10
174.548702419
 20
134.250000000
 30
0.000000000
 10
175.000000000
 20
134.250000000
 30
0.000000000
  0
SPLINE
  5
A0B
330
A02
100
AcDbEntity
  8
ProjItem
100
AcDbSpline
210
0
220
0
230
1
 70
8
 71
1
 72
17
 73
15
 74
0
 40
3.141592654
 40
3.141592654
 40
3.365992129
 40
3.590391604
 40
3.814791079
 40
4.039190555
 40
4.263590030
 40
4.487989505
 40
4.712388980
 40
4.936788456
 40
5.161187931
 40
5.385587406
 40
5.609986881
 40
5.834386357
 40
6.058785832
 40
6.283185307
 40
6.283185307
 10
142.000000000
 20
148.250000000
 30
0.000000000
 10
142.376081317
 20
148.250000000
 30
0.000000000
 10
143.485466981
 20
148.250000000
 30
0.000000000
 10
145.272527763
 20
148.250000000
 30
0.000000000
 10
147.647652972
 20
148.250000000
 30
0.000000000
 10
150.491743913
 20
148.250000000
 30
0.000000000
 10
153.662185991
 20
148.250000000
 30
0.000000000
 10
157.000000000
 20
148.250000000
 30
0.000000000
 10
160.337814009
 20
148.250000000
 30
0.000000000
 10
163.508256087
 20
148.250000000
 30
0.000000000
 10
166.352347028
 20
148.250000000
 30
0.000000000
 10
168.727472237
 20
148.250000000
 30
0.000000000
 10
170.514533019
 20
148.250000000
 30
0.000000000
 10
171.623918683
 20
148.250000000
 30
0.000000000
 10
172.000000000
 20
148.250000000
 30
0.000000000
  0
LINE
  5
A0C
330
A02
100
AcDbEntity
  8
ProjItem
100
AcDbLine
 10
172.000000000
 20
138.250000000
 30
0.000000000
 11
172.000000000
 21
148.250000000
 31
0.000000000
  0
SPLINE
  5
A0D
330
A02
100
AcDbEntity
  8
ProjItem
100
AcDbSpline
210
0
220
0
230
1
 70
8
 71
1
 72
17
 73
15
 74
0
 40
3.141592654
 40
3.141592654
 40
3.365992129
 40
3.590391604
 40
3.814791079
 40
4.039190555
 40
4.263590030
 40
4.487989505
 40
4.712388980
 40
4.936788456
 40
5.161187931
 40
5.385587406
 40
5.609986881
 40
5.834386357
 40
6.058785832
 40
6.283185307
 40
6.283185307
 10
145.000000000
 20
161.750000000
 30
0.000000000
 10
145.300865054
 20
161.750000000
 30
0.000000000
 10
146.188373585
 20
161.750000000
 30
0.000000000
 10
147.618022210
 20
161.750000000
 30
0.000000000
 10
149.518122378
 20
161.750000000
 30
0.000000000
 10
151.793395131
 20
161.750000000
 30
0.000000000
 10
154.329748793
 20
161.750000000
 30
0.000000000
 10
157.000000000
 20
161.750000000
 30
0.000000000
 10
159.670251207
 20
161.750000000
 30
0.000000000
 10
162.206604869
 20
161.750000000
 30
0.000000000
 10
164.481877622
 20
161.750000000
 30
0.000000000
 10
166.381977790
 20
161.750000000
 30
0.000000000
 10
167.811626415
 20
161.750000000
 30
0.000000000
 10
168.699134946
 20
161.750000000
 30
0.000000000
 10
169.000000000
 20
161.750000000
 30
0.000000000
  0
LINE
  5
A0E
330
A02
100
AcDbEntity
  8
ProjItem
100
AcDbLine
 10
169.000000000
 20
148.250000000
 30
0.000000000
 11
169.000000000
 21
161.750000000
 31
0.000000000
  0
LINE
  5
A0F
330
A02
100
AcDbEntity
  8
ProjItem
100
AcDbLine
 10
139.000000000
 20
134.250000000
 30
0.000000000
 11
139.000000000
 21
138.250000000
 31
0.000000000
  0
LINE
  5
A10
330
A02
100
AcDbEntity
  8
ProjItem
100
AcDbLine
 10
142.000000000
 20
138.250000000
 30
0.000000000
 11
142.000000000
 21
148.250000000
 31
0.000000000
  0
LINE
  5
A11
330
A02
100
AcDbEntity
  8
ProjItem
100
AcDbLine
 10
145.000000000
 20
148.250000000
 30
0.000000000
 11
145.000000000
 21
161.750000000
 31
0.000000000
  0
SPLINE
  5
A12
330
A02
100
AcDbEntity
  8
ProjItem
100
AcDbSpline
210
0
220
0
230
1
 70
8
 71
1
 72
17
 73
15
 74
0
 40
0.000000000
 40
0.000000000
 40
0.224399475
 40
0.448798951
 40
0.673198426
 40
0.897597901
 40
1.121997376
 40
1.346396852
 40
1.570796327
 40
1.795195802
 40
2.019595277
 40
2.243994753
 40
2.468394228
 40
2.692793703
 40
2.917193178
 40
3.141592654
 40
3.141592654
 10
175.000000000
 20
138.250000000
 30
0.000000000
 10
174.548702419
 20
138.250000000
 30
0.000000000
 10
173.217439622
 20
138.250000000
 30
0.000000000
 10
171.072966684
 20
138.250000000
 30
0.000000000
 10
168.222816433
 20
138.250000000
 30
0.000000000
 10
164.809907304
 20
138.250000000
 30
0.000000000
 10
161.005376811
 20
138.250000000
 30
0.000000000
 10
157.000000000
 20
138.250000000
 30
0.000000000
 10
152.994623189
 20
138.250000000
 30
0.000000000
 10
149.190092696
 20
138.250000000
 30
0.000000000
 10
145.777183567
 20
138.250000000
 30
0.000000000
 10
142.927033316
 20
138.250000000
 30
0.000000000
 10
140.782560378
 20
138.250000000
 30
0.000000000
 10
139.451297581
 20
138.250000000
 30
0.000000000
 10
139.000000000
 20
138.250000000
 30
0.000000000
  0
SPLINE
  5
A13
330
A02
100
AcDbEntity
  8
ProjItem
100
AcDbSpline
210
0
220
0
230
1
 70
8
 71
1
 72
17
 73
15
 74
0
 40
0.000000000
 40
0.000000000
 40
0.224399475
 40
0.448798951
 40
0.673198426
 40
0.897597901
 40
1.121997376
 40
1.346396852
 40
1.570796327
 40
1.795195802
 40
2.019595277
 40
2.243994753
 40
2.468394228
 40
2.692793703
 40
2.917193178
 40
3.141592654
 40
3.141592654
 10
175.000000000
 20
134.250000000
 30
0.000000000
 10
174.548702419
 20
134.250000000
 30
0.000000000
 10
173.217439622
 20
134.250000000
 30
0.000000000
 10
171.072966684
 20
134.250000000
 30
0.000000000
 10
168.222816433
 20
134.250000000
 30
0.000000000
 10
164.809907304
 20
134.250000000
 30
0.000000000
 10
161.005376811
 20
134.250000000
 30
0.000000000
 10
157.000000000
 20
134.250000000
 30
0.000000000
 10
152.994623189
 20
134.250000000
 30
0.000000000
 10
149.190092696
 20
134.250000000
 30
0.000000000
 10
145.777183567
 20
134.250000000
 30
0.000000000
 10
142.927033316
 20
134.250000000
 30
0.000000000
 10
140.782560378
 20
134.250000000
 30
0.000000000
 10
139.451297581
 20
134.250000000
 30
0.000000000
 10
139.000000000
 20
134.250000000
 30
0.000000000
  0
SPLINE
  5
A14
330
A02
100
AcDbEntity
  8
ProjItem
100
AcDbSpline
210
0
220
0
230
1
 70
8
 71
1
 72
17
 73
15
 74
0
 40
0.000000000
 40
0.000000000
 40
0.224399475
 40
0.448798951
 40
0.673198426
 40
0.897597901
 40
1.121997376
 40
1.346396852
 40
1.570796327
 40
1.795195802
 40
2.019595277
 40
2.243994753
 40
2.468394228
 40
2.692793703
 40
2.917193178
 40
3.141592654
 40
3.141592654
 10
172.000000000
 20
138.250000000
 30
0.000000000
 10
171.623918683
 20
138.250000000
 30
0.000000000
 10
170.514533019
 20
138.250000000
 30
0.000000000
 10
168.727472237
 20
138.250000000
 30
0.000000000
 10
166.352347028
 20
138.250000000
 30
0.000000000
 10
163.508256087
 20
138.250000000
 30
0.000000000
 10
160.337814009
 20
138.250000000
 30
0.000000000
 10
157.000000000
 20
138.250000000
 30
0.000000000
 10
153.662185991
 20
138.250000000
 30
0.000000000
 10
150.491743913
 20
138.250000000
 30
0.000000000
 10
147.647652972
 20
138.250000000
 30
0.000000000
 10
145.272527763
 20
138.250000000
 30
0.000000000
 10
143.485466981
 20
138.250000000
 30
0.000000000
 10
142.376081317
 20
138.250000000
 30
0.000000000
 10
142.000000000
 20
138.250000000
 30
0.000000000
  0
SPLINE
  5
A15
330
A02
100
AcDbEntity
  8
ProjItem
100
AcDbSpline
210
0
220
0
230
1
 70
8
 71
1
 72
17
 73
15
 74
0
 40
3.141592654
 40
3.141592654
 40
3.365992129
 40
3.590391604
 40
3.814791079
 40
4.039190555
 40
4.263590030
 40
4.487989505
 40
4.712388980
 40
4.936788456
 40
5.161187931
 40
5.385587406
 40
5.609986881
 40
5.834386357
 40
6.058785832
 40
6.283185307
 40
6.283185307
 10
142.000000000
 20
138.250000000
 30
0.000000000
 10
142.376081317
 20
138.250000000
 30
0.000000000
 10
143.485466981
 20
138.250000000
 30
0.000000000
 10
145.272527763
 20
138.250000000
 30
0.000000000
 10
147.647652972
 20
138.250000000
 30
0.000000000
 10
150.491743913
 20
138.250000000
 30
0.000000000
 10
153.662185991
 20
138.250000000
 30
0.000000000
 10
157.000000000
 20
138.250000000
 30
0.000000000
 10
160.337814009
 20
138.250000000
 30
0.000000000
 10
163.508256087
 20
138.250000000
 30
0.000000000
 10
166.352347028
 20
138.250000000
 30
0.000000000
 10
168.727472237
 20
138.250000000
 30
0.000000000
 10
170.514533019
 20
138.250000000
 30
0.000000000
 10
171.623918683
 20
138.250000000
 30
0.000000000
 10
172.000000000
 20
138.250000000
 30
0.000000000
  0
SPLINE
  5
A16
330
A02
100
AcDbEntity
  8
ProjItem
100
AcDbSpline
210
0
220
0
230
1
 70
8
 71
1
 72
17
 73
15
 74
0
 40
0.000000000
 40
0.000000000
 40
0.224399475
 40
0.448798951
 40
0.673198426
 40
0.897597901
 40
1.121997376
 40
1.346396852
 40
1.570796327
 40
1.795195802
 40
2.019595277
 40
2.243994753
 40
2.468394228
 40
2.692793703
 40
2.917193178
 40
3.141592654
 40
3.141592654
 10
164.500000000
 20
134.250000000
 30
0.000000000
 10
164.311959341
 20
134.250000000
 30
0.000000000
 10
163.757266509
 20
134.250000000
 30
0.000000000
 10
162.863736119
 20
134.250000000
 30
0.000000000
 10
161.676173514
 20
134.250000000
 30
0.000000000
 10
160.254128043
 20
134.250000000
 30
0.000000000
 10
158.668907005
 20
134.250000000
 30
0.000000000
 10
157.000000000
 20
134.250000000
 30
0.000000000
 10
155.331092995
 20
134.250000000
 30
0.000000000
 10
153.745871957
 20
134.250000000
 30
0.000000000
 10
152.323826486
 20
134.250000000
 30
0.000000000
 10
151.136263881
 20
134.250000000
 30
0.000000000
 10
150.242733491
 20
134.250000000
 30
0.000000000
 10
149.688040659
 20
134.250000000
 30
0.000000000
 10
149.500000000
 20
134.250000000
 30
0.000000000
  0
SPLINE
  5
A17
330
A02
100
AcDbEntity
  8
ProjItem
100
AcDbSpline
210
0
220
0
230
1
 70
8
 71
1
 72
17
 73
15
 74
0
 40
3.141592654
 40
3.141592654
 40
3.365992129
 40
3.590391604
 40
3.814791079
 40
4.039190555
 40
4.263590030
 40
4.487989505
 40
4.712388980
 40
4.936788456
 40
5.161187931
 40
5.385587406
 40
5.609986881
 40
5.834386357
 40
6.058785832
 40
6.283185307
 40
6.283185307
 10
149.500000000
 20
134.250000000
 30
0.000000000
 10
149.688040659
 20
134.250000000
 30
0.000000000
 10
150.242733491
 20
134.250000000
 30
0.000000000
 10
151.136263881
 20
134.250000000
 30
0.000000000
 10
152.323826486
 20
134.250000000
 30
0.000000000
 10
153.745871957
 20
134.250000000
 30
0.000000000
 10
155.331092995
 20
134.250000000
 30
0.000000000
 10
157.000000000
 20
134.250000000
 30
0.000000000
 10
158.668907005
 20
134.250000000
 30
0.000000000
 10
160.254128043
 20
134.250000000
 30
0.000000000
 10
161.676173514
 20
134.250000000
 30
0.000000000
 10
162.863736119
 20
134.250000000
 30
0.000000000
 10
163.757266509
 20
134.250000000
 30
0.000000000
 10
164.311959341
 20
134.250000000
 30
0.000000000
 10
164.500000000
 20
134.250000000
 30
0.000000000
  0
SPLINE
  5
A18
330
A02
100
AcDbEntity
  8
ProjItem
100
AcDbSpline
210
0
220
0
230
1
 70
8
 71
1
 72
17
 73
15
 74
0
 40
0.000000000
 40
0.000000000
 40
0.224399475
 40
0.448798951
 40
0.673198426
 40
0.897597901
 40
1.121997376
 40
1.346396852
 40
1.570796327
 40
1.795195802
 40
2.019595277
 40
2.243994753
 40
2.468394228
 40
2.692793703
 40
2.917193178
 40
3.141592654
 40
3.141592654
 10
172.000000000
 20
148.250000000
 30
0.000000000
 10
171.623918683
 20
148.250000000
 30
0.000000000
 10
170.514533019
 20
148.250000000
 30
0.000000000
 10
168.727472237
 20
148.250000000
 30
0.000000000
 10
166.352347028
 20
148.250000000
 30
0.000000000
 10
163.508256087
 20
148.250000000
 30
0.000000000
 10
160.337814009
 20
148.250000000
 30
0.000000000
 10
157.000000000
 20
148.250000000
 30
0.000000000
 10
153.662185991
 20
148.250000000
 30
0.000000000
 10
150.491743913
 20
148.250000000
 30
0.000000000
 10
147.647652972
 20
148.250000000
 30
0.000000000
 10
145.272527763
 20
148.250000000
 30
0.000000000
 10
143.485466981
 20
148.250000000
 30
0.000000000
 10
142.376081317
 20
148.250000000
 30
0.000000000
 10
142.000000000
 20
148.250000000
 30
0.000000000
  0
SPLINE
  5
A19
330
A02
100
AcDbEntity
  8
ProjItem
100
AcDbSpline
210
0
220
0
230
1
 70
8
 71
1
 72
17
 73
15
 74
0
 40
0.000000000
 40
0.000000000
 40
0.224399475
 40
0.448798951
 40
0.673198426
 40
0.897597901
 40
1.121997376
 40
1.346396852
 40
1.570796327
 40
1.795195802
 40
2.019595277
 40
2.243994753
 40
2.468394228
 40
2.692793703
 40
2.917193178
 40
3.141592654
 40
3.141592654
 10
164.500000000
 20
161.750000000
 30
0.000000000
 10
164.311959341
 20
161.750000000
 30
0.000000000
 10
163.757266509
 20
161.750000000
 30
0.000000000
 10
162.863736119
 20
161.750000000
 30
0.000000000
 10
161.676173514
 20
161.750000000
 30
0.000000000
 10
160.254128043
 20
161.750000000
 30
0.000000000
 10
158.668907005
 20
161.750000000
 30
0.000000000
 10
157.000000000
 20
161.750000000
 30
0.000000000
 10
155.331092995
 20
161.750000000
 30
0.000000000
 10
153.745871957
 20
161.750000000
 30
0.000000000
 10
152.323826486
 20
161.750000000
 30
0.000000000
 10
151.136263881
 20
161.750000000
 30
0.000000000
 10
150.242733491
 20
161.750000000
 30
0.000000000
 10
149.688040659
 20
161.750000000
 30
0.000000000
 10
149.500000000
 20
161.750000000
 30
0.000000000
  0
SPLINE
  5
A1A
330
A02
100
AcDbEntity
  8
ProjItem
100
AcDbSpline
210
0
220
0
230
1
 70
8
 71
1
 72
17
 73
15
 74
0
 40
3.141592654
 40
3.141592654
 40
3.365992129
 40
3.590391604
 40
3.814791079
 40
4.039190555
 40
4.263590030
 40
4.487989505
 40
4.712388980
 40
4.936788456
 40
5.161187931
 40
5.385587406
 40
5.609986881
 40
5.834386357
 40
6.058785832
 40
6.283185307
 40
6.283185307
 10
149.500000000
 20
161.750000000
 30
0.000000000
 10
149.688040659
 20
161.750000000
 30
0.000000000
 10
150.242733491
 20
161.750000000
 30
0.000000000
 10
151.136263881
 20
161.750000000
 30
0.000000000
 10
152.323826486
 20
161.750000000
 30
0.000000000
 10
153.745871957
 20
161.750000000
 30
0.000000000
 10
155.331092995
 20
161.750000000
 30
0.000000000
 10
157.000000000
 20
161.750000000
 30
0.000000000
 10
158.668907005
 20
161.750000000
 30
0.000000000
 10
160.254128043
 20
161.750000000
 30
0.000000000
 10
161.676173514
 20
161.750000000
 30
0.000000000
 10
162.863736119
 20
161.750000000
 30
0.000000000
 10
163.757266509
 20
161.750000000
 30
0.000000000
 10
164.311959341
 20
161.750000000
 30
0.000000000
 10
164.500000000
 20
161.750000000
 30
0.000000000
  0
LINE
  5
A1B
330
A02
100
AcDbEntity
  8
ProjItem
100
AcDbLine
 10
164.500000000
 20
134.250000000
 30
0.000000000
 11
164.500000000
 21
161.750000000
 31
0.000000000
  0
SPLINE
  5
A1C
330
A02
100
AcDbEntity
  8
ProjItem
100
AcDbSpline
210
0
220
0
230
1
 70
8
 71
1
 72
17
 73
15
 74
0
 40
0.000000000
 40
0.000000000
 40
0.224399475
 40
0.448798951
 40
0.673198426
 40
0.897597901
 40
1.121997376
 40
1.346396852
 40
1.570796327
 40
1.795195802
 40
2.019595277
 40
2.243994753
 40
2.468394228
 40
2.692793703
 40
2.917193178
 40
3.141592654
 40
3.141592654
 10
169.000000000
 20
148.250000000
 30
0.000000000
 10
168.699134946
 20
148.250000000
 30
0.000000000
 10
167.811626415
 20
148.250000000
 30
0.000000000
 10
166.381977790
 20
148.250000000
 30
0.000000000
 10
164.481877622
 20
148.250000000
 30
0.000000000
 10
162.206604869
 20
148.250000000
 30
0.000000000
 10
159.670251207
 20
148.250000000
 30
0.000000000
 10
157.000000000
 20
148.250000000
 30
0.000000000
 10
154.329748793
 20
148.250000000
 30
0.000000000
 10
151.793395131
 20
148.250000000
 30
0.000000000
 10
149.518122378
 20
148.250000000
 30
0.000000000
 10
147.618022210
 20
148.250000000
 30
0.000000000
 10
146.188373585
 20
148.250000000
 30
0.000000000
 10
145.300865054
 20
148.250000000
 30
0.000000000
 10
145.000000000
 20
148.250000000
 30
0.000000000
  0
SPLINE
  5
A1D
330
A02
100
AcDbEntity
  8
ProjItem
100
AcDbSpline
210
0
220
0
230
1
 70
8
 71
1
 72
17
 73
15
 74
0
 40
3.141592654
 40
3.141592654
 40
3.365992129
 40
3.590391604
 40
3.814791079
 40
4.039190555
 40
4.263590030
 40
4.487989505
 40
4.712388980
 40
4.936788456
 40
5.161187931
 40
5.385587406
 40
5.609986881
 40
5.834386357
 40
6.058785832
 40
6.283185307
 40
6.283185307
 10
145.000000000
 20
148.250000000
 30
0.000000000
 10
145.300865054
 20
148.250000000
 30
0.000000000
 10
146.188373585
 20
148.250000000
 30
0.000000000
 10
147.618022210
 20
148.250000000
 30
0.000000000
 10
149.518122378
 20
148.250000000
 30
0.000000000
 10
151.793395131
 20
148.250000000
 30
0.000000000
 10
154.329748793
 20
148.250000000
 30
0.000000000
 10
157.000000000
 20
148.250000000
 30
0.000000000
 10
159.670251207
 20
148.250000000
 30
0.000000000
 10
162.206604869
 20
148.250000000
 30
0.000000000
 10
164.481877622
 20
148.250000000
 30
0.000000000
 10
166.381977790
 20
148.250000000
 30
0.000000000
 10
167.811626415
 20
148.250000000
 30
0.000000000
 10
168.699134946
 20
148.250000000
 30
0.000000000
 10
169.000000000
 20
148.250000000
 30
0.000000000
  0
SPLINE
  5
A1E
330
A02
100
AcDbEntity
  8
ProjItem
100
AcDbSpline
210
0
220
0
230
1
 70
8
 71
1
 72
17
 73
15
 74
0
 40
0.000000000
 40
0.000000000
 40
0.224399475
 40
0.448798951
 40
0.673198426
 40
0.897597901
 40
1.121997376
 40
1.346396852
 40
1.570796327
 40
1.795195802
 40
2.019595277
 40
2.243994753
 40
2.468394228
 40
2.692793703
 40
2.917193178
 40
3.141592654
 40
3.141592654
 10
169.000000000
 20
161.750000000
 30
0.000000000
 10
168.699134946
 20
161.750000000
 30
0.000000000
 10
167.811626415
 20
161.750000000
 30
0.000000000
 10
166.381977790
 20
161.750000000
 30
0.000000000
 10
164.481877622
 20
161.750000000
 30
0.000000000
 10
162.206604869
 20
161.750000000
 30
0.000000000
 10
159.670251207
 20
161.750000000
 30
0.000000000
 10
157.000000000
 20
161.750000000
 30
0.000000000
 10
154.329748793
 20
161.750000000
 30
0.000000000
 10
151.793395131
 20
161.750000000
 30
0.000000000
 10
149.518122378
 20
161.750000000
 30
0.000000000
 10
147.618022210
 20
161.750000000
 30
0.000000000
 10
146.188373585
 20
161.750000000
 30
0.000000000
 10
145.300865054
 20
161.750000000
 30
0.000000000
 10
145.000000000
 20
161.750000000
 30
0.000000000
  0
LINE
  5
A1F
330
A02
100
AcDbEntity
  8
ProjItem
100
AcDbLine
 10
149.500000000
 20
134.250000000
 30
0.000000000
 11
149.500000000
 21
161.750000000
 31
0.000000000
  0
LINE
  5
A20
330
A02
100
AcDbEntity
  8
ProjItem
100
AcDbLine
 10
157.000000000
 20
133.750000000
 30
0.000000000
 11
157.000000000
 21
162.250000000
 31
0.000000000
  0
CIRCLE
  5
A21
330
A02
100
AcDbEntity
  8
ProjItem001
100
AcDbCircle
 10
157.000000000
 20
98.250000000
 30
0.000000000
 40
18.000000000
  0
CIRCLE
  5
A22
330
A02
100
AcDbEntity
  8
ProjItem001
100
AcDbCircle
 10
157.000000000
 20
98.250000000
 30
0.000000000
 40
15.000000000
  0
CIRCLE
  5
A23
330
A02
100
AcDbEntity
  8
ProjItem001
100
AcDbCircle
 10
157.000000000
 20
98.250000000
 30
0.000000000
 40
7.500000000
  0
CIRCLE
  5
A24
330
A02
100
AcDbEntity
  8
ProjItem001
100
AcDbCircle
 10
157.000000000
 20
98.250000000
 30
0.000000000
 40
12.000000000
  0
CIRCLE
  5
A25
330
A02
100
AcDbEntity
  8
ProjItem001
100
AcDbCircle
 10
157.000000000
 20
98.250000000
 30
0.000000000
 40
18.000000000
  0
CIRCLE
  5
A26
330
A02
100
AcDbEntity
  8
ProjItem001
100
AcDbCircle
 10
157.000000000
 20
98.250000000
 30
0.000000000
 40
15.000000000
  0
CIRCLE
  5
A27
330
A02
100
AcDbEntity
  8
ProjItem001
100
AcDbCircle
 10
157.000000000
 20
98.250000000
 30
0.000000000
 40
7.500000000
  0
CIRCLE
  5
A28
330
A02
100
AcDbEntity
  8
ProjItem001
100
AcDbCircle
 10
157.000000000
 20
98.250000000
 30
0.000000000
 40
12.000000000
  0
LINE
  5
A29
330
A02
100
AcDbEntity
  8
ProjItem001
100
AcDbLine
 10
137.500000000
 20
98.250000000
 30
0.000000000
 11
176.500000000
 21
98.250000000
 31
0.000000000
  0
LINE
  5
A2A
330
A02
100
AcDbEntity
  8
ProjItem001
100
AcDbLine
 10
157.000000000
 20
78.750000000
 30
0.000000000
 11
157.000000000
 21
117.750000000
 31
0.000000000
  0
LINE
  5
A2B
330
A02
100
AcDbEntity
  8
ProjItem001
100
AcDbLine
 10
157.000000000
 20
113.250000000
 30
0.000000000
 11
157.000000000
 21
83.250000000
 31
0.000000000
  0
LINE
  5
A2C
330
A02
100
AcDbEntity
  8
ProjItem001
100
AcDbLine
 10
142.000000000
 20
98.250000000
 30
0.000000000
 11
172.000000000
 21
98.250000000
 31
0.000000000
  0
SPLINE
  5
A2D
330
A02
100
AcDbEntity
  8
ProjItem002
100
AcDbSpline
210
0
220
0
230
1
 70
8
 71
1
 72
17
 73
15
 74
0
 40
0.000000000
 40
0.000000000
 40
0.112199738
 40
0.224399475
 40
0.336599213
 40
0.448798951
 40
0.560998688
 40
0.673198426
 40
0.785398163
 40
0.897597901
 40
1.009797639
 40
1.121997376
 40
1.234197114
 40
1.346396852
 40
1.458596589
 40
1.570796327
 40
1.570796327
 10
103.000000000
 20
138.250000000
 30
0.000000000
 10
105.015360570
 20
138.250000000
 30
0.000000000
 10
107.005376811
 20
138.250000000
 30
0.000000000
 10
108.945023115
 20
138.250000000
 30
0.000000000
 10
110.809907304
 20
138.250000000
 30
0.000000000
 10
112.576577377
 20
138.250000000
 30
0.000000000
 10
114.222816433
 20
138.250000000
 30
0.000000000
 10
115.727922061
 20
138.250000000
 30
0.000000000
 10
117.072966684
 20
138.250000000
 30
0.000000000
 10
118.241035586
 20
138.250000000
 30
0.000000000
 10
119.217439622
 20
138.250000000
 30
0.000000000
 10
119.989899946
 20
138.250000000
 30
0.000000000
 10
120.548702419
 20
138.250000000
 30
0.000000000
 10
120.886819778
 20
138.250000000
 30
0.000000000
 10
121.000000000
 20
138.250000000
 30
0.000000000
  0
SPLINE
  5
A2E
330
A02
100
AcDbEntity
  8
ProjItem002
100
AcDbSpline
210
0
220
0
230
1
 70
8
 71
1
 72
17
 73
15
 74
0
 40
4.712388980
 40
4.712388980
 40
4.824588718
 40
4.936788456
 40
5.048988193
 40
5.161187931
 40
5.273387669
 40
5.385587406
 40
5.497787144
 40
5.609986881
 40
5.722186619
 40
5.834386357
 40
5.946586094
 40
6.058785832
 40
6.170985570
 40
6.283185307
 40
6.283185307
 10
85.000000000
 20
138.250000000
 30
0.000000000
 10
85.113180222
 20
138.250000000
 30
0.000000000
 10
85.451297581
 20
138.250000000
 30
0.000000000
 10
86.010100054
 20
138.250000000
 30
0.000000000
 10
86.782560378
 20
138.250000000
 30
0.000000000
 10
87.758964414
 20
138.250000000
 30
0.000000000
 10
88.927033316
 20
138.250000000
 30
0.000000000
 10
90.272077939
 20
138.250000000
 30
0.000000000
 10
91.777183567
 20
138.250000000
 30
0.000000000
 10
93.423422623
 20
138.250000000
 30
0.000000000
 10
95.190092696
 20
138.250000000
 30
0.000000000
 10
97.054976885
 20
138.250000000
 30
0.000000000
 10
98.994623189
 20
138.250000000
 30
0.000000000
 10
100.984639430
 20
138.250000000
 30
0.000000000
 10
103.000000000
 20
138.250000000
 30
0.000000000
  0
SPLINE
  5
A2F
330
A02
100
AcDbEntity
  8
ProjItem002
100
AcDbSpline
210
0
220
0
230
1
 70
8
 71
1
 72
17
 73
15
 74
0
 40
0.000000000
 40
0.000000000
 40
0.112199738
 40
0.224399475
 40
0.336599213
 40
0.448798951
 40
0.560998688
 40
0.673198426
 40
0.785398163
 40
0.897597901
 40
1.009797639
 40
1.121997376
 40
1.234197114
 40
1.346396852
 40
1.458596589
 40
1.570796327
 40
1.570796327
 10
103.000000000
 20
134.250000000
 30
0.000000000
 10
105.015360570
 20
134.250000000
 30
0.000000000
 10
107.005376811
 20
134.250000000
 30
0.000000000
 10
108.945023115
 20
134.250000000
 30
0.000000000
 10
110.809907304
 20
134.250000000
 30
0.000000000
 10
112.576577377
 20
134.250000000
 30
0.000000000
 10
114.222816433
 20
134.250000000
 30
0.000000000
 10
115.727922061
 20
134.250000000
 30
0.000000000
 10
117.072966684
 20
134.250000000
 30
0.000000000
 10
118.241035586
 20
134.250000000
 30
0.000000000
 10
119.217439622
 20
134.250000000
 30
0.000000000
 10
119.989899946
 20
134.250000000
 30
0.000000000
 10
120.548702419
 20
134.250000000
 30
0.000000000
 10
120.886819778
 20
134.250000000
 30
0.000000000
 10
121.000000000
 20
134.250000000
 30
0.000000000
  0
SPLINE
  5
A30
330
A02
100
AcDbEntity
  8
ProjItem002
100
AcDbSpline
210
0
220
0
230
1
 70
8
 71
1
 72
17
 73
15
 74
0
 40
4.712388980
 40
4.712388980
 40
4.824588718
 40
4.936788456
 40
5.048988193
 40
5.161187931
 40
5.273387669
 40
5.385587406
 40
5.497787144
 40
5.609986881
 40
5.722186619
 40
5.834386357
 40
5.946586094
 40
6.058785832
 40
6.170985570
 40
6.283185307
 40
6.283185307
 10
85.000000000
 20
134.250000000
 30
0.000000000
 10
85.113180222
 20
134.250000000
 30
0.000000000
 10
85.451297581
 20
134.250000000
 30
0.000000000
 10
86.010100054
 20
134.250000000
 30
0.000000000
 10
86.782560378
 20
134.250000000
 30
0.000000000
 10
87.758964414
 20
134.250000000
 30
0.000000000
 10
88.927033316
 20
134.250000000
 30
0.000000000
 10
90.272077939
 20
134.250000000
 30
0.000000000
 10
91.777183567
 20
134.250000000
 30
0.000000000
 10
93.423422623
 20
134.250000000
 30
0.000000000
 10
95.190092696
 20
134.250000000
 30
0.000000000
 10
97.054976885
 20
134.250000000
 30
0.000000000
 10
98.994623189
 20
134.250000000
 30
0.000000000
 10
100.984639430
 20
134.250000000
 30
0.000000000
 10
103.000000000
 20
134.250000000
 30
0.000000000
  0
SPLINE
  5
A31
330
A02
100
AcDbEntity
  8
ProjItem002
100
AcDbSpline
210
0
220
0
230
1
 70
8
 71
1
 72
17
 73
15
 74
0
 40
0.000000000
 40
0.000000000
 40
0.112199738
 40
0.224399475
 40
0.336599213
 40
0.448798951
 40
0.560998688
 40
0.673198426
 40
0.785398163
 40
0.897597901
 40
1.009797639
 40
1.121997376
 40
1.234197114
 40
1.346396852
 40
1.458596589
 40
1.570796327
 40
1.570796327
 10
103.000000000
 20
148.250000000
 30
0.000000000
 10
104.679467142
 20
148.250000000
 30
0.000000000
 10
106.337814009
 20
148.250000000
 30
0.000000000
 10
107.954185929
 20
148.250000000
 30
0.000000000
 10
109.508256087
 20
148.250000000
 30
0.000000000
 10
110.980481148
 20
148.250000000
 30
0.000000000
 10
112.352347028
 20
148.250000000
 30
0.000000000
 10
113.606601718
 20
148.250000000
 30
0.000000000
 10
114.727472237
 20
148.250000000
 30
0.000000000
 10
115.700862988
 20
148.250000000
 30
0.000000000
 10
116.514533019
 20
148.250000000
 30
0.000000000
 10
117.158249955
 20
148.250000000
 30
0.000000000
 10
117.623918683
 20
148.250000000
 30
0.000000000
 10
117.905683148
 20
148.250000000
 30
0.000000000
 10
118.000000000
 20
148.250000000
 30
0.000000000
  0
SPLINE
  5
A32
330
A02
100
AcDbEntity
  8
ProjItem002
100
AcDbSpline
210
0
220
0
230
1
 70
8
 71
1
 72
17
 73
15
 74
0
 40
4.712388980
 40
4.712388980
 40
4.824588718
 40
4.936788456
 40
5.048988193
 40
5.161187931
 40
5.273387669
 40
5.385587406
 40
5.497787144
 40
5.609986881
 40
5.722186619
 40
5.834386357
 40
5.946586094
 40
6.058785832
 40
6.170985570
 40
6.283185307
 40
6.283185307
 10
88.000000000
 20
148.250000000
 30
0.000000000
 10
88.094316852
 20
148.250000000
 30
0.000000000
 10
88.376081317
 20
148.250000000
 30
0.000000000
 10
88.841750045
 20
148.250000000
 30
0.000000000
 10
89.485466981
 20
148.250000000
 30
0.000000000
 10
90.299137012
 20
148.250000000
 30
0.000000000
 10
91.272527763
 20
148.250000000
 30
0.000000000
 10
92.393398282
 20
148.250000000
 30
0.000000000
 10
93.647652972
 20
148.250000000
 30
0.000000000
 10
95.019518852
 20
148.250000000
 30
0.000000000
 10
96.491743913
 20
148.250000000
 30
0.000000000
 10
98.045814071
 20
148.250000000
 30
0.000000000
 10
99.662185991
 20
148.250000000
 30
0.000000000
 10
101.320532858
 20
148.250000000
 30
0.000000000
 10
103.000000000
 20
148.250000000
 30
0.000000000
  0
SPLINE
  5
A33
330
A02
100
AcDbEntity
  8
ProjItem002
100
AcDbSpline
210
0
220
0
230
1
 70
8
 71
1
 72
17
 73
15
 74
0
 40
0.000000000
 40
0.000000000
 40
0.112199738
 40
0.224399475
 40
0.336599213
 40
0.448798951
 40
0.560998688
 40
0.673198426
 40
0.785398163
 40
0.897597901
 40
1.009797639
 40
1.121997376
 40
1.234197114
 40
1.346396852
 40
1.458596589
 40
1.570796327
 40
1.570796327
 10
103.000000000
 20
161.750000000
 30
0.000000000
 10
104.343573713
 20
161.750000000
 30
0.000000000
 10
105.670251207
 20
161.750000000
 30
0.000000000
 10
106.963348743
 20
161.750000000
 30
0.000000000
 10
108.206604869
 20
161.750000000
 30
0.000000000
 10
109.384384918
 20
161.750000000
 30
0.000000000
 10
110.481877622
 20
161.750000000
 30
0.000000000
 10
111.485281374
 20
161.750000000
 30
0.000000000
 10
112.381977790
 20
161.750000000
 30
0.000000000
 10
113.160690391
 20
161.750000000
 30
0.000000000
 10
113.811626415
 20
161.750000000
 30
0.000000000
 10
114.326599964
 20
161.750000000
 30
0.000000000
 10
114.699134946
 20
161.750000000
 30
0.000000000
 10
114.924546519
 20
161.750000000
 30
0.000000000
 10
115.000000000
 20
161.750000000
 30
0.000000000
  0
SPLINE
  5
A34
330
A02
100
AcDbEntity
  8
ProjItem002
100
AcDbSpline
210
0
220
0
230
1
 70
8
 71
1
 72
17
 73
15
 74
0
 40
4.712388980
 40
4.712388980
 40
4.824588718
 40
4.936788456
 40
5.048988193
 40
5.161187931
 40
5.273387669
 40
5.385587406
 40
5.497787144
 40
5.609986881
 40
5.722186619
 40
5.834386357
 40
5.946586094
 40
6.058785832
 40
6.170985570
 40
6.283185307
 40
6.283185307
 10
91.000000000
 20
161.750000000
 30
0.000000000
 10
91.075453481
 20
161.750000000
 30
0.000000000
 10
91.300865054
 20
161.750000000
 30
0.000000000
 10
91.673400036
 20
161.750000000
 30
0.000000000
 10
92.188373585
 20
161.750000000
 30
0.000000000
 10
92.839309609
 20
161.750000000
 30
0.000000000
 10
93.618022210
 20
161.750000000
 30
0.000000000
 10
94.514718626
 20
161.750000000
 30
0.000000000
 10
95.518122378
 20
161.750000000
 30
0.000000000
 10
96.615615082
 20
161.750000000
 30
0.000000000
 10
97.793395131
 20
161.750000000
 30
0.000000000
 10
99.036651257
 20
161.750000000
 30
0.000000000
 10
100.329748793
 20
161.750000000
 30
0.000000000
 10
101.656426287
 20
161.750000000
 30
0.000000000
 10
103.000000000
 20
161.750000000
 30
0.000000000
  0
LINE
  5
A35
330
A02
100
AcDbEntity
  8
ProjItem002
100
AcDbLine
 10
121.000000000
 20
134.250000000
 30
0.000000000
 11
121.000000000
 21
138.250000000
 31
0.000000000
  0
LINE
  5
A36
330
A02
100
AcDbEntity
  8
ProjItem002
100
AcDbLine
 10
85.000000000
 20
134.250000000
 30
0.000000000
 11
85.000000000
 21
138.250000000
 31
0.000000000
  0
LINE
  5
A37
330
A02
100
AcDbEntity
  8
ProjItem002
100
AcDbLine
 10
118.000000000
 20
138.250000000
 30
0.000000000
 11
118.000000000
 21
148.250000000
 31
0.000000000
  0
LINE
  5
A38
330
A02
100
AcDbEntity
  8
ProjItem002
100
AcDbLine
 10
88.000000000
 20
138.250000000
 30
0.000000000
 11
88.000000000
 21
148.250000000
 31
0.000000000
  0
LINE
  5
A39
330
A02
100
AcDbEntity
  8
ProjItem002
100
AcDbLine
 10
115.000000000
 20
148.250000000
 30
0.000000000
 11
115.000000000
 21
161.750000000
 31
0.000000000
  0
LINE
  5
A3A
330
A02
100
AcDbEntity
  8
ProjItem002
100
AcDbLine
 10
91.000000000
 20
148.250000000
 30
0.000000000
 11
91.000000000
 21
161.750000000
 31
0.000000000
  0
SPLINE
  5
A3B
330
A02
100
AcDbEntity
  8
ProjItem002
100
AcDbSpline
210
0
220
0
230
1
 70
8
 71
1
 72
17
 73
15
 74
0
 40
1.570796327
 40
1.570796327
 40
1.795195802
 40
2.019595277
 40
2.243994753
 40
2.468394228
 40
2.692793703
 40
2.917193178
 40
3.141592654
 40
3.365992129
 40
3.590391604
 40
3.814791079
 40
4.039190555
 40
4.263590030
 40
4.487989505
 40
4.712388980
 40
4.712388980
 10
121.000000000
 20
138.250000000
 30
0.000000000
 10
120.548702419
 20
138.250000000
 30
0.000000000
 10
119.217439622
 20
138.250000000
 30
0.000000000
 10
117.072966684
 20
138.250000000
 30
0.000000000
 10
114.222816433
 20
138.250000000
 30
0.000000000
 10
110.809907304
 20
138.250000000
 30
0.000000000
 10
107.005376811
 20
138.250000000
 30
0.000000000
 10
103.000000000
 20
138.250000000
 30
0.000000000
 10
98.994623189
 20
138.250000000
 30
0.000000000
 10
95.190092696
 20
138.250000000
 30
0.000000000
 10
91.777183567
 20
138.250000000
 30
0.000000000
 10
88.927033316
 20
138.250000000
 30
0.000000000
 10
86.782560378
 20
138.250000000
 30
0.000000000
 10
85.451297581
 20
138.250000000
 30
0.000000000
 10
85.000000000
 20
138.250000000
 30
0.000000000
  0
SPLINE
  5
A3C
330
A02
100
AcDbEntity
  8
ProjItem002
100
AcDbSpline
210
0
220
0
230
1
 70
8
 71
1
 72
17
 73
15
 74
0
 40
1.570796327
 40
1.570796327
 40
1.795195802
 40
2.019595277
 40
2.243994753
 40
2.468394228
 40
2.692793703
 40
2.917193178
 40
3.141592654
 40
3.365992129
 40
3.590391604
 40
3.814791079
 40
4.039190555
 40
4.263590030
 40
4.487989505
 40
4.712388980
 40
4.712388980
 10
121.000000000
 20
134.250000000
 30
0.000000000
 10
120.548702419
 20
134.250000000
 30
0.000000000
 10
119.217439622
 20
134.250000000
 30
0.000000000
 10
117.072966684
 20
134.250000000
 30
0.000000000
 10
114.222816433
 20
134.250000000
 30
0.000000000
 10
110.809907304
 20
134.250000000
 30
0.000000000
 10
107.005376811
 20
134.250000000
 30
0.000000000
 10
103.000000000
 20
134.250000000
 30
0.000000000
 10
98.994623189
 20
134.250000000
 30
0.000000000
 10
95.190092696
 20
134.250000000
 30
0.000000000
 10
91.777183567
 20
134.250000000
 30
0.000000000
 10
88.927033316
 20
134.250000000
 30
0.000000000
 10
86.782560378
 20
134.250000000
 30
0.000000000
 10
85.451297581
 20
134.250000000
 30
0.000000000
 10
85.000000000
 20
134.250000000
 30
0.000000000
  0
SPLINE
  5
A3D
330
A02
100
AcDbEntity
  8
ProjItem002
100
AcDbSpline
210
0
220
0
230
1
 70
8
 71
1
 72
17
 73
15
 74
0
 40
0.000000000
 40
0.000000000
 40
0.112199738
 40
0.224399475
 40
0.336599213
 40
0.448798951
 40
0.560998688
 40
0.673198426
 40
0.785398163
 40
0.897597901
 40
1.009797639
 40
1.121997376
 40
1.234197114
 40
1.346396852
 40
1.458596589
 40
1.570796327
 40
1.570796327
 10
103.000000000
 20
138.250000000
 30
0.000000000
 10
104.679467142
 20
138.250000000
 30
0.000000000
 10
106.337814009
 20
138.250000000
 30
0.000000000
 10
107.954185929
 20
138.250000000
 30
0.000000000
 10
109.508256087
 20
138.250000000
 30
0.000000000
 10
110.980481148
 20
138.250000000
 30
0.000000000
 10
112.352347028
 20
138.250000000
 30
0.000000000
 10
113.606601718
 20
138.250000000
 30
0.000000000
 10
114.727472237
 20
138.250000000
 30
0.000000000
 10
115.700862988
 20
138.250000000
 30
0.000000000
 10
116.514533019
 20
138.250000000
 30
0.000000000
 10
117.158249955
 20
138.250000000
 30
0.000000000
 10
117.623918683
 20
138.250000000
 30
0.000000000
 10
117.905683148
 20
138.250000000
 30
0.000000000
 10
118.000000000
 20
138.250000000
 30
0.000000000
  0
SPLINE
  5
A3E
330
A02
100
AcDbEntity
  8
ProjItem002
100
AcDbSpline
210
0
220
0
230
1
 70
8
 71
1
 72
17
 73
15
 74
0
 40
1.570796327
 40
1.570796327
 40
1.795195802
 40
2.019595277
 40
2.243994753
 40
2.468394228
 40
2.692793703
 40
2.917193178
 40
3.141592654
 40
3.365992129
 40
3.590391604
 40
3.814791079
 40
4.039190555
 40
4.263590030
 40
4.487989505
 40
4.712388980
 40
4.712388980
 10
118.000000000
 20
138.250000000
 30
0.000000000
 10
117.623918683
 20
138.250000000
 30
0.000000000
 10
116.514533019
 20
138.250000000
 30
0.000000000
 10
114.727472237
 20
138.250000000
 30
0.000000000
 10
112.352347028
 20
138.250000000
 30
0.000000000
 10
109.508256087
 20
138.250000000
 30
0.000000000
 10
106.337814009
 20
138.250000000
 30
0.000000000
 10
103.000000000
 20
138.250000000
 30
0.000000000
 10
99.662185991
 20
138.250000000
 30
0.000000000
 10
96.491743913
 20
138.250000000
 30
0.000000000
 10
93.647652972
 20
138.250000000
 30
0.000000000
 10
91.272527763
 20
138.250000000
 30
0.000000000
 10
89.485466981
 20
138.250000000
 30
0.000000000
 10
88.376081317
 20
138.250000000
 30
0.000000000
 10
88.000000000
 20
138.250000000
 30
0.000000000
  0
SPLINE
  5
A3F
330
A02
100
AcDbEntity
  8
ProjItem002
100
AcDbSpline
210
0
220
0
230
1
 70
8
 71
1
 72
17
 73
15
 74
0
 40
4.712388980
 40
4.712388980
 40
4.824588718
 40
4.936788456
 40
5.048988193
 40
5.161187931
 40
5.273387669
 40
5.385587406
 40
5.497787144
 40
5.609986881
 40
5.722186619
 40
5.834386357
 40
5.946586094
 40
6.058785832
 40
6.170985570
 40
6.283185307
 40
6.283185307
 10
88.000000000
 20
138.250000000
 30
0.000000000
 10
88.094316852
 20
138.250000000
 30
0.000000000
 10
88.376081317
 20
138.250000000
 30
0.000000000
 10
88.841750045
 20
138.250000000
 30
0.000000000
 10
89.485466981
 20
138.250000000
 30
0.000000000
 10
90.299137012
 20
138.250000000
 30
0.000000000
 10
91.272527763
 20
138.250000000
 30
0.000000000
 10
92.393398282
 20
138.250000000
 30
0.000000000
 10
93.647652972
 20
138.250000000
 30
0.000000000
 10
95.019518852
 20
138.250000000
 30
0.000000000
 10
96.491743913
 20
138.250000000
 30
0.000000000
 10
98.045814071
 20
138.250000000
 30
0.000000000
 10
99.662185991
 20
138.250000000
 30
0.000000000
 10
101.320532858
 20
138.250000000
 30
0.000000000
 10
103.000000000
 20
138.250000000
 30
0.000000000
  0
SPLINE
  5
A40
330
A02
100
AcDbEntity
  8
ProjItem002
100
AcDbSpline
210
0
220
0
230
1
 70
8
 71
1
 72
17
 73
15
 74
0
 40
0.000000000
 40
0.000000000
 40
0.112199738
 40
0.224399475
 40
0.336599213
 40
0.448798951
 40
0.560998688
 40
0.673198426
 40
0.785398163
 40
0.897597901
 40
1.009797639
 40
1.121997376
 40
1.234197114
 40
1.346396852
 40
1.458596589
 40
1.570796327
 40
1.570796327
 10
103.000000000
 20
134.250000000
 30
0.000000000
 10
103.839733571
 20
134.250000000
 30
0.000000000
 10
104.668907005
 20
134.250000000
 30
0.000000000
 10
105.477092965
 20
134.250000000
 30
0.000000000
 10
106.254128043
 20
134.250000000
 30
0.000000000
 10
106.990240574
 20
134.250000000
 30
0.000000000
 10
107.676173514
 20
134.250000000
 30
0.000000000
 10
108.303300859
 20
134.250000000
 30
0.000000000
 10
108.863736119
 20
134.250000000
 30
0.000000000
 10
109.350431494
 20
134.250000000
 30
0.000000000
 10
109.757266509
 20
134.250000000
 30
0.000000000
 10
110.079124977
 20
134.250000000
 30
0.000000000
 10
110.311959341
 20
134.250000000
 30
0.000000000
 10
110.452841574
 20
134.250000000
 30
0.000000000
 10
110.500000000
 20
134.250000000
 30
0.000000000
  0
SPLINE
  5
A41
330
A02
100
AcDbEntity
  8
ProjItem002
100
AcDbSpline
210
0
220
0
230
1
 70
8
 71
1
 72
17
 73
15
 74
0
 40
1.570796327
 40
1.570796327
 40
1.795195802
 40
2.019595277
 40
2.243994753
 40
2.468394228
 40
2.692793703
 40
2.917193178
 40
3.141592654
 40
3.365992129
 40
3.590391604
 40
3.814791079
 40
4.039190555
 40
4.263590030
 40
4.487989505
 40
4.712388980
 40
4.712388980
 10
110.500000000
 20
134.250000000
 30
0.000000000
 10
110.311959341
 20
134.250000000
 30
0.000000000
 10
109.757266509
 20
134.250000000
 30
0.000000000
 10
108.863736119
 20
134.250000000
 30
0.000000000
 10
107.676173514
 20
134.250000000
 30
0.000000000
 10
106.254128043
 20
134.250000000
 30
0.000000000
 10
104.668907005
 20
134.250000000
 30
0.000000000
 10
103.000000000
 20
134.250000000
 30
0.000000000
 10
101.331092995
 20
134.250000000
 30
0.000000000
 10
99.745871957
 20
134.250000000
 30
0.000000000
 10
98.323826486
 20
134.250000000
 30
0.000000000
 10
97.136263881
 20
134.250000000
 30
0.000000000
 10
96.242733491
 20
134.250000000
 30
0.000000000
 10
95.688040659
 20
134.250000000
 30
0.000000000
 10
95.500000000
 20
134.250000000
 30
0.000000000
  0
SPLINE
  5
A42
330
A02
100
AcDbEntity
  8
ProjItem002
100
AcDbSpline
210
0
220
0
230
1
 70
8
 71
1
 72
17
 73
15
 74
0
 40
4.712388980
 40
4.712388980
 40
4.824588718
 40
4.936788456
 40
5.048988193
 40
5.161187931
 40
5.273387669
 40
5.385587406
 40
5.497787144
 40
5.609986881
 40
5.722186619
 40
5.834386357
 40
5.946586094
 40
6.058785832
 40
6.170985570
 40
6.283185307
 40
6.283185307
 10
95.500000000
 20
134.250000000
 30
0.000000000
 10
95.547158426
 20
134.250000000
 30
0.000000000
 10
95.688040659
 20
134.250000000
 30
0.000000000
 10
95.920875023
 20
134.250000000
 30
0.000000000
 10
96.242733491
 20
134.250000000
 30
0.000000000
 10
96.649568506
 20
134.250000000
 30
0.000000000
 10
97.136263881
 20
134.250000000
 30
0.000000000
 10
97.696699141
 20
134.250000000
 30
0.000000000
 10
98.323826486
 20
134.250000000
 30
0.000000000
 10
99.009759426
 20
134.250000000
 30
0.000000000
 10
99.745871957
 20
134.250000000
 30
0.000000000
 10
100.522907035
 20
134.250000000
 30
0.000000000
 10
101.331092995
 20
134.250000000
 30
0.000000000
 10
102.160266429
 20
134.250000000
 30
0.000000000
 10
103.000000000
 20
134.250000000
 30
0.000000000
  0
SPLINE
  5
A43
330
A02
100
AcDbEntity
  8
ProjItem002
100
AcDbSpline
210
0
220
0
230
1
 70
8
 71
1
 72
17
 73
15
 74
0
 40
1.570796327
 40
1.570796327
 40
1.795195802
 40
2.019595277
 40
2.243994753
 40
2.468394228
 40
2.692793703
 40
2.917193178
 40
3.141592654
 40
3.365992129
 40
3.590391604
 40
3.814791079
 40
4.039190555
 40
4.263590030
 40
4.487989505
 40
4.712388980
 40
4.712388980
 10
118.000000000
 20
148.250000000
 30
0.000000000
 10
117.623918683
 20
148.250000000
 30
0.000000000
 10
116.514533019
 20
148.250000000
 30
0.000000000
 10
114.727472237
 20
148.250000000
 30
0.000000000
 10
112.352347028
 20
148.250000000
 30
0.000000000
 10
109.508256087
 20
148.250000000
 30
0.000000000
 10
106.337814009
 20
148.250000000
 30
0.000000000
 10
103.000000000
 20
148.250000000
 30
0.000000000
 10
99.662185991
 20
148.250000000
 30
0.000000000
 10
96.491743913
 20
148.250000000
 30
0.000000000
 10
93.647652972
 20
148.250000000
 30
0.000000000
 10
91.272527763
 20
148.250000000
 30
0.000000000
 10
89.485466981
 20
148.250000000
 30
0.000000000
 10
88.376081317
 20
148.250000000
 30
0.000000000
 10
88.000000000
 20
148.250000000
 30
0.000000000
  0
SPLINE
  5
A44
330
A02
100
AcDbEntity
  8
ProjItem002
100
AcDbSpline
210
0
220
0
230
1
 70
8
 71
1
 72
17
 73
15
 74
0
 40
0.000000000
 40
0.000000000
 40
0.112199738
 40
0.224399475
 40
0.336599213
 40
0.448798951
 40
0.560998688
 40
0.673198426
 40
0.785398163
 40
0.897597901
 40
1.009797639
 40
1.121997376
 40
1.234197114
 40
1.346396852
 40
1.458596589
 40
1.570796327
 40
1.570796327
 10
103.000000000
 20
161.750000000
 30
0.000000000
 10
103.839733571
 20
161.750000000
 30
0.000000000
 10
104.668907005
 20
161.750000000
 30
0.000000000
 10
105.477092965
 20
161.750000000
 30
0.000000000
 10
106.254128043
 20
161.750000000
 30
0.000000000
 10
106.990240574
 20
161.750000000
 30
0.000000000
 10
107.676173514
 20
161.750000000
 30
0.000000000
 10
108.303300859
 20
161.750000000
 30
0.000000000
 10
108.863736119
 20
161.750000000
 30
0.000000000
 10
109.350431494
 20
161.750000000
 30
0.000000000
 10
109.757266509
 20
161.750000000
 30
0.000000000
 10
110.079124977
 20
161.750000000
 30
0.000000000
 10
110.311959341
 20
161.750000000
 30
0.000000000
 10
110.452841574
 20
161.750000000
 30
0.000000000
 10
110.500000000
 20
161.750000000
 30
0.000000000
  0
SPLINE
  5
A45
330
A02
100
AcDbEntity
  8
ProjItem002
100
AcDbSpline
210
0
220
0
230
1
 70
8
 71
1
 72
17
 73
15
 74
0
 40
1.570796327
 40
1.570796327
 40
1.795195802
 40
2.019595277
 40
2.243994753
 40
2.468394228
 40
2.692793703
 40
2.917193178
 40
3.141592654
 40
3.365992129
 40
3.590391604
 40
3.814791079
 40
4.039190555
 40
4.263590030
 40
4.487989505
 40
4.712388980
 40
4.712388980
 10
110.500000000
 20
161.750000000
 30
0.000000000
 10
110.311959341
 20
161.750000000
 30
0.000000000
 10
109.757266509
 20
161.750000000
 30
0.000000000
 10
108.863736119
 20
161.750000000
 30
0.000000000
 10
107.676173514
 20
161.750000000
 30
0.000000000
 10
106.254128043
 20
161.750000000
 30
0.000000000
 10
104.668907005
 20
161.750000000
 30
0.000000000
 10
103.000000000
 20
161.750000000
 30
0.000000000
 10
101.331092995
 20
161.750000000
 30
0.000000000
 10
99.745871957
 20
161.750000000
 30
0.000000000
 10
98.323826486
 20
161.750000000
 30
0.000000000
 10
97.136263881
 20
161.750000000
 30
0.000000000
 10
96.242733491
 20
161.750000000
 30
0.000000000
 10
95.688040659
 20
161.750000000
 30
0.000000000
 10
95.500000000
 20
161.750000000
 30
0.000000000
  0
SPLINE
  5
A46
330
A02
100
AcDbEntity
  8
ProjItem002
100
AcDbSpline
210
0
220
0
230
1
 70
8
 71
1
 72
17
 73
15
 74
0
 40
4.712388980
 40
4.712388980
 40
4.824588718
 40
4.936788456
 40
5.048988193
 40
5.161187931
 40
5.273387669
 40
5.385587406
 40
5.497787144
 40
5.609986881
 40
5.722186619
 40
5.834386357
 40
5.946586094
 40
6.058785832
 40
6.170985570
 40
6.283185307
 40
6.283185307
 10
95.500000000
 20
161.750000000
 30
0.000000000
 10
95.547158426
 20
161.750000000
 30
0.000000000
 10
95.688040659
 20
161.750000000
 30
0.000000000
 10
95.920875023
 20
161.750000000
 30
0.000000000
 10
96.242733491
 20
161.750000000
 30
0.000000000
 10
96.649568506
 20
161.750000000
 30
0.000000000
 10
97.136263881
 20
161.750000000
 30
0.000000000
 10
97.696699141
 20
161.750000000
 30
0.000000000
 10
98.323826486
 20
161.750000000
 30
0.000000000
 10
99.009759426
 20
161.750000000
 30
0.000000000
 10
99.745871957
 20
161.750000000
 30
0.000000000
 10
100.522907035
 20
161.750000000
 30
0.000000000
 10
101.331092995
 20
161.750000000
 30
0.000000000
 10
102.160266429
 20
161.750000000
 30
0.000000000
 10
103.000000000
 20
161.750000000
 30
0.000000000
  0
SPLINE
  5
A47
330
A02
100
AcDbEntity
  8
ProjItem002
100
AcDbSpline
210
0
220
0
230
1
 70
8
 71
1
 72
17
 73
15
 74
0
 40
0.000000000
 40
0.000000000
 40
0.112199738
 40
0.224399475
 40
0.336599213
 40
0.448798951
 40
0.560998688
 40
0.673198426
 40
0.785398163
 40
0.897597901
 40
1.009797639
 40
1.121997376
 40
1.234197114
 40
1.346396852
 40
1.458596589
 40
1.570796327
 40
1.570796327
 10
103.000000000
 20
148.250000000
 30
0.000000000
 10
104.343573713
 20
148.250000000
 30
0.000000000
 10
105.670251207
 20
148.250000000
 30
0.000000000
 10
106.963348743
 20
148.250000000
 30
0.000000000
 10
108.206604869
 20
148.250000000
 30
0.000000000
 10
109.384384918
 20
148.250000000
 30
0.000000000
 10
110.481877622
 20
148.250000000
 30
0.000000000
 10
111.485281374
 20
148.250000000
 30
0.000000000
 10
112.381977790
 20
148.250000000
 30
0.000000000
 10
113.160690391
 20
148.250000000
 30
0.000000000
 10
113.811626415
 20
148.250000000
 30
0.000000000
 10
114.326599964
 20
148.250000000
 30
0.000000000
 10
114.699134946
 20
148.250000000
 30
0.000000000
 10
114.924546519
 20
148.250000000
 30
0.000000000
 10
115.000000000
 20
148.250000000
 30
0.000000000
  0
SPLINE
  5
A48
330
A02
100
AcDbEntity
  8
ProjItem002
100
AcDbSpline
210
0
220
0
230
1
 70
8
 71
1
 72
17
 73
15
 74
0
 40
1.570796327
 40
1.570796327
 40
1.795195802
 40
2.019595277
 40
2.243994753
 40
2.468394228
 40
2.692793703
 40
2.917193178
 40
3.141592654
 40
3.365992129
 40
3.590391604
 40
3.814791079
 40
4.039190555
 40
4.263590030
 40
4.487989505
 40
4.712388980
 40
4.712388980
 10
115.000000000
 20
148.250000000
 30
0.000000000
 10
114.699134946
 20
148.250000000
 30
0.000000000
 10
113.811626415
 20
148.250000000
 30
0.000000000
 10
112.381977790
 20
148.250000000
 30
0.000000000
 10
110.481877622
 20
148.250000000
 30
0.000000000
 10
108.206604869
 20
148.250000000
 30
0.000000000
 10
105.670251207
 20
148.250000000
 30
0.000000000
 10
103.000000000
 20
148.250000000
 30
0.000000000
 10
100.329748793
 20
148.250000000
 30
0.000000000
 10
97.793395131
 20
148.250000000
 30
0.000000000
 10
95.518122378
 20
148.250000000
 30
0.000000000
 10
93.618022210
 20
148.250000000
 30
0.000000000
 10
92.188373585
 20
148.250000000
 30
0.000000000
 10
91.300865054
 20
148.250000000
 30
0.000000000
 10
91.000000000
 20
148.250000000
 30
0.000000000
  0
SPLINE
  5
A49
330
A02
100
AcDbEntity
  8
ProjItem002
100
AcDbSpline
210
0
220
0
230
1
 70
8
 71
1
 72
17
 73
15
 74
0
 40
4.712388980
 40
4.712388980
 40
4.824588718
 40
4.936788456
 40
5.048988193
 40
5.161187931
 40
5.273387669
 40
5.385587406
 40
5.497787144
 40
5.609986881
 40
5.722186619
 40
5.834386357
 40
5.946586094
 40
6.058785832
 40
6.170985570
 40
6.283185307
 40
6.283185307
 10
91.000000000
 20
148.250000000
 30
0.000000000
 10
91.075453481
 20
148.250000000
 30
0.000000000
 10
91.300865054
 20
148.250000000
 30
0.000000000
 10
91.673400036
 20
148.250000000
 30
0.000000000
 10
92.188373585
 20
148.250000000
 30
0.000000000
 10
92.839309609
 20
148.250000000
 30
0.000000000
 10
93.618022210
 20
148.250000000
 30
0.000000000
 10
94.514718626
 20
148.250000000
 30
0.000000000
 10
95.518122378
 20
148.250000000
 30
0.000000000
 10
96.615615082
 20
148.250000000
 30
0.000000000
 10
97.793395131
 20
148.250000000
 30
0.000000000
 10
99.036651257
 20
148.250000000
 30
0.000000000
 10
100.329748793
 20
148.250000000
 30
0.000000000
 10
101.656426287
 20
148.250000000
 30
0.000000000
 10
103.000000000
 20
148.250000000
 30
0.000000000
  0
SPLINE
  5
A4A
330
A02
100
AcDbEntity
  8
ProjItem002
100
AcDbSpline
210
0
220
0
230
1
 70
8
 71
1
 72
17
 73
15
 74
0
 40
1.570796327
 40
1.570796327
 40
1.795195802
 40
2.019595277
 40
2.243994753
 40
2.468394228
 40
2.692793703
 40
2.917193178
 40
3.141592654
 40
3.365992129
 40
3.590391604
 40
3.814791079
 40
4.039190555
 40
4.263590030
 40
4.487989505
 40
4.712388980
 40
4.712388980
 10
115.000000000
 20
161.750000000
 30
0.000000000
 10
114.699134946
 20
161.750000000
 30
0.000000000
 10
113.811626415
 20
161.750000000
 30
0.000000000
 10
112.381977790
 20
161.750000000
 30
0.000000000
 10
110.481877622
 20
161.750000000
 30
0.000000000
 10
108.206604869
 20
161.750000000
 30
0.000000000
 10
105.670251207
 20
161.750000000
 30
0.000000000
 10
103.000000000
 20
161.750000000
 30
0.000000000
 10
100.329748793
 20
161.750000000
 30
0.000000000
 10
97.793395131
 20
161.750000000
 30
0.000000000
 10
95.518122378
 20
161.750000000
 30
0.000000000
 10
93.618022210
 20
161.750000000
 30
0.000000000
 10
92.188373585
 20
161.750000000
 30
0.000000000
 10
91.300865054
 20
161.750000000
 30
0.000000000
 10
91.000000000
 20
161.750000000
 30
0.000000000
  0
LINE
  5
A4B
330
A02
100
AcDbEntity
  8
ProjItem002
100
AcDbLine
 10
110.500000000
 20
134.250000000
 30
0.000000000
 11
110.500000000
 21
161.750000000
 31
0.000000000
  0
LINE
  5
A4C
330
A02
100
AcDbEntity
  8
ProjItem002
100
AcDbLine
 10
95.500000000
 20
134.250000000
 30
0.000000000
 11
95.500000000
 21
161.750000000
 31
0.000000000
  0
LINE
  5
A4D
330
A02
100
AcDbEntity
  8
ProjItem002
100
AcDbLine
 10
103.000000000
 20
133.750000000
 30
0.000000000
 11
103.000000000
 21
162.250000000
 31
0.000000000
  0
DIMENSION
  5
A4E
330
A02
100
AcDbEntity
  8
DimDia0
100
AcDbDimension
  2
*DimDia0
 10
171.918412455
 20
108.321790795
 30
0.000000000
 11
187.000000000
 21
124.250000000
 31
0.000000000
 70
3
  1
⌀72
  3
STANDARD
100
AcDbDiametricDimension
 15
142.081587545
 25
88.178209205
 35
0.000000000
 40
0
  0
DIMENSION
  5
A56
330
A02
100
AcDbEntity
  8
DimDia1
100
AcDbDimension
  2
*DimDia1
 10
169.486670285
 20
106.561622296
 30
0.000000000
 11
210.000000000
 21
139.250000000
 31
0.000000000
 70
3
  1
⌀60
  3
STANDARD
100
AcDbDiametricDimension
 15
144.513329715
 25
89.938377704
 35
0.000000000
 40
0
  0
DIMENSION
  5
A5E
330
A02
100
AcDbEntity
  8
DimHeight
100
AcDbDimension
  2
*DimHeight
 10
183.621376857
 20
151.685770701
 30
0.000000000
 11
187.000000000
 21
148.000000000
 31
0.000000000
 70
32
  1
55
  3
STANDARD
100
AcDbAlignedDimension
 13
175.000000000
 23
134.250000000
 33
0.000000000
 14
145.000000000
 24
161.750000000
 34
0.000000000
 50
90
100
AcDbRotatedDimension
  0
ENDSEC
  0
SECTION
  2
OBJECTS
  0
DICTIONARY
  5
F000
330
0
100
AcDbDictionary
  3
ACAD_GROUP
350
F001
  0
DICTIONARY
  5
F001
330
F000
100
AcDbDictionary
  0
ENDSEC
  0
EOF