ISO-10303-21;
HEADER;
FILE_DESCRIPTION(('ViewDefinition[DesignTransferView]'),'2;1');
FILE_NAME('/dev/null','2026-05-22T00:20:45+08:00',(''),(''),'IfcOpenShell 0.8.5','IfcOpenShell 0.8.5','Nobody');
FILE_SCHEMA(('IFC4'));
ENDSEC;
DATA;
#1=IFCPROJECT('05jHzW0WX4GxRTXi6vym1L',$,'Bonsai Simple Task 11 Seed',$,$,$,$,(#10),#5);
#2=IFCSIUNIT(*,.LENGTHUNIT.,.MILLI.,.METRE.);
#3=IFCSIUNIT(*,.AREAUNIT.,$,.SQUARE_METRE.);
#4=IFCSIUNIT(*,.VOLUMEUNIT.,$,.CUBIC_METRE.);
#5=IFCUNITASSIGNMENT((#3,#4,#2));
#6=IFCCARTESIANPOINT((0.,0.,0.));
#7=IFCDIRECTION((0.,0.,1.));
#8=IFCDIRECTION((1.,0.,0.));
#9=IFCAXIS2PLACEMENT3D(#6,#7,#8);
#10=IFCGEOMETRICREPRESENTATIONCONTEXT($,'Model',3,1.0000000000000001E-05,#9,$);
#11=IFCGEOMETRICREPRESENTATIONSUBCONTEXT('Body','Model',*,*,*,*,#10,$,.MODEL_VIEW.,$);
#12=IFCSITE('2oekyLdrD1JAMSC8Vrr4W3',$,'Default Site',$,$,$,$,$,$,$,$,$,$,$);
#13=IFCBUILDING('3lpNKL3oD9x9Bd$ZCOso02',$,'Simple Building',$,$,$,$,$,$,$,$,$);
#14=IFCBUILDINGSTOREY('2QVsO54_5A1PHM3jto49oH',$,'Ground Floor',$,$,$,$,$,$,$);
#15=IFCRELAGGREGATES('3bAgicIOv6C8eyXrgpC_Cd',$,$,$,#1,(#12));
#16=IFCRELAGGREGATES('3RhWE_$Hr3tRxMdFlMLPH2',$,$,$,#12,(#13));
#17=IFCRELAGGREGATES('2Dnqd1ObH5SBvCXR4ecvcM',$,$,$,#13,(#14));
#18=IFCWALL('2diKYsuk1AmuV6ZS11dBgH',$,'South Wall',$,$,#216,#29,$,$);
#19=IFCCARTESIANPOINTLIST2D(((0.,0.),(0.,200.),(12000.,200.),(12000.,0.),(0.,0.)));
#20=IFCINDEXEDPOLYCURVE(#19,$,.F.);
#21=IFCDIRECTION((0.,0.,1.));
#22=IFCARBITRARYCLOSEDPROFILEDEF(.AREA.,$,#20);
#23=IFCCARTESIANPOINT((0.,0.,0.));
#24=IFCDIRECTION((0.,0.,1.));
#25=IFCDIRECTION((1.,0.,0.));
#26=IFCAXIS2PLACEMENT3D(#23,#24,#25);
#27=IFCEXTRUDEDAREASOLID(#22,#26,#21,3000.);
#28=IFCSHAPEREPRESENTATION(#11,'Body','SweptSolid',(#27));
#29=IFCPRODUCTDEFINITIONSHAPE($,$,(#28));
#35=IFCWALL('3T5NaXtLj0mxQlz9xPySqo',$,'North Wall',$,$,#226,#46,$,$);
#36=IFCCARTESIANPOINTLIST2D(((0.,0.),(0.,200.),(12000.,200.),(12000.,0.),(0.,0.)));
#37=IFCINDEXEDPOLYCURVE(#36,$,.F.);
#38=IFCDIRECTION((0.,0.,1.));
#39=IFCARBITRARYCLOSEDPROFILEDEF(.AREA.,$,#37);
#40=IFCCARTESIANPOINT((0.,0.,0.));
#41=IFCDIRECTION((0.,0.,1.));
#42=IFCDIRECTION((1.,0.,0.));
#43=IFCAXIS2PLACEMENT3D(#40,#41,#42);
#44=IFCEXTRUDEDAREASOLID(#39,#43,#38,3000.);
#45=IFCSHAPEREPRESENTATION(#11,'Body','SweptSolid',(#44));
#46=IFCPRODUCTDEFINITIONSHAPE($,$,(#45));
#52=IFCWALL('2h9JQjN7PDCOB348A1mM6s',$,'West Wall',$,$,#206,#63,$,$);
#53=IFCCARTESIANPOINTLIST2D(((0.,0.),(0.,200.),(6000.,200.),(6000.,0.),(0.,0.)));
#54=IFCINDEXEDPOLYCURVE(#53,$,.F.);
#55=IFCDIRECTION((0.,0.,1.));
#56=IFCARBITRARYCLOSEDPROFILEDEF(.AREA.,$,#54);
#57=IFCCARTESIANPOINT((0.,0.,0.));
#58=IFCDIRECTION((0.,0.,1.));
#59=IFCDIRECTION((1.,0.,0.));
#60=IFCAXIS2PLACEMENT3D(#57,#58,#59);
#61=IFCEXTRUDEDAREASOLID(#56,#60,#55,3000.);
#62=IFCSHAPEREPRESENTATION(#11,'Body','SweptSolid',(#61));
#63=IFCPRODUCTDEFINITIONSHAPE($,$,(#62));
#69=IFCWALL('1rvSbOHKT69uLCTpJLMxa9',$,'East Wall',$,$,#211,#80,$,$);
#70=IFCCARTESIANPOINTLIST2D(((0.,0.),(0.,200.),(6000.,200.),(6000.,0.),(0.,0.)));
#71=IFCINDEXEDPOLYCURVE(#70,$,.F.);
#72=IFCDIRECTION((0.,0.,1.));
#73=IFCARBITRARYCLOSEDPROFILEDEF(.AREA.,$,#71);
#74=IFCCARTESIANPOINT((0.,0.,0.));
#75=IFCDIRECTION((0.,0.,1.));
#76=IFCDIRECTION((1.,0.,0.));
#77=IFCAXIS2PLACEMENT3D(#74,#75,#76);
#78=IFCEXTRUDEDAREASOLID(#73,#77,#72,3000.);
#79=IFCSHAPEREPRESENTATION(#11,'Body','SweptSolid',(#78));
#80=IFCPRODUCTDEFINITIONSHAPE($,$,(#79));
#86=IFCWALL('1_i5y4Ncv8N9cDiRdKqveg',$,'Partition 1',$,$,#221,#97,$,$);
#87=IFCCARTESIANPOINTLIST2D(((0.,0.),(0.,200.),(6000.,200.),(6000.,0.),(0.,0.)));
#88=IFCINDEXEDPOLYCURVE(#87,$,.F.);
#89=IFCDIRECTION((0.,0.,1.));
#90=IFCARBITRARYCLOSEDPROFILEDEF(.AREA.,$,#88);
#91=IFCCARTESIANPOINT((0.,0.,0.));
#92=IFCDIRECTION((0.,0.,1.));
#93=IFCDIRECTION((1.,0.,0.));
#94=IFCAXIS2PLACEMENT3D(#91,#92,#93);
#95=IFCEXTRUDEDAREASOLID(#90,#94,#89,3000.);
#96=IFCSHAPEREPRESENTATION(#11,'Body','SweptSolid',(#95));
#97=IFCPRODUCTDEFINITIONSHAPE($,$,(#96));
#103=IFCWALL('1fc4AF0a1C7ePhLI4nFEOU',$,'Partition 2',$,$,#231,#114,$,$);
#104=IFCCARTESIANPOINTLIST2D(((0.,0.),(0.,200.),(6000.,200.),(6000.,0.),(0.,0.)));
#105=IFCINDEXEDPOLYCURVE(#104,$,.F.);
#106=IFCDIRECTION((0.,0.,1.));
#107=IFCARBITRARYCLOSEDPROFILEDEF(.AREA.,$,#105);
#108=IFCCARTESIANPOINT((0.,0.,0.));
#109=IFCDIRECTION((0.,0.,1.));
#110=IFCDIRECTION((1.,0.,0.));
#111=IFCAXIS2PLACEMENT3D(#108,#109,#110);
#112=IFCEXTRUDEDAREASOLID(#107,#111,#106,3000.);
#113=IFCSHAPEREPRESENTATION(#11,'Body','SweptSolid',(#112));
#114=IFCPRODUCTDEFINITIONSHAPE($,$,(#113));
#120=IFCWALL('2KAlfI1grDbORhjPuwwopD',$,'Partition 3',$,$,#191,#131,$,$);
#121=IFCCARTESIANPOINTLIST2D(((0.,0.),(0.,200.),(6000.,200.),(6000.,0.),(0.,0.)));
#122=IFCINDEXEDPOLYCURVE(#121,$,.F.);
#123=IFCDIRECTION((0.,0.,1.));
#124=IFCARBITRARYCLOSEDPROFILEDEF(.AREA.,$,#122);
#125=IFCCARTESIANPOINT((0.,0.,0.));
#126=IFCDIRECTION((0.,0.,1.));
#127=IFCDIRECTION((1.,0.,0.));
#128=IFCAXIS2PLACEMENT3D(#125,#126,#127);
#129=IFCEXTRUDEDAREASOLID(#124,#128,#123,3000.);
#130=IFCSHAPEREPRESENTATION(#11,'Body','SweptSolid',(#129));
#131=IFCPRODUCTDEFINITIONSHAPE($,$,(#130));
#137=IFCWALL('3XwAnodCHERg4mikoMbW84',$,'Partition 4',$,$,#196,#148,$,$);
#138=IFCCARTESIANPOINTLIST2D(((0.,0.),(0.,200.),(6000.,200.),(6000.,0.),(0.,0.)));
#139=IFCINDEXEDPOLYCURVE(#138,$,.F.);
#140=IFCDIRECTION((0.,0.,1.));
#141=IFCARBITRARYCLOSEDPROFILEDEF(.AREA.,$,#139);
#142=IFCCARTESIANPOINT((0.,0.,0.));
#143=IFCDIRECTION((0.,0.,1.));
#144=IFCDIRECTION((1.,0.,0.));
#145=IFCAXIS2PLACEMENT3D(#142,#143,#144);
#146=IFCEXTRUDEDAREASOLID(#141,#145,#140,3000.);
#147=IFCSHAPEREPRESENTATION(#11,'Body','SweptSolid',(#146));
#148=IFCPRODUCTDEFINITIONSHAPE($,$,(#147));
#154=IFCSLAB('0V7qk40En4QQRTgL0UrmYK',$,'Ground Slab',$,$,#201,#161,$,$);
#155=IFCCARTESIANPOINTLIST2D(((0.,0.),(12000.,0.),(12000.,6000.),(0.,6000.),(0.,0.)));
#156=IFCINDEXEDPOLYCURVE(#155,$,$);
#157=IFCDIRECTION((0.,0.,1.));
#158=IFCARBITRARYCLOSEDPROFILEDEF(.AREA.,$,#156);
#159=IFCEXTRUDEDAREASOLID(#158,$,#157,200.);
#160=IFCSHAPEREPRESENTATION(#11,'Body','SweptSolid',(#159));
#161=IFCPRODUCTDEFINITIONSHAPE($,$,(#160));
#167=IFCSPACE('0P$okxDJbBBhZO1UP4BnCW',$,'Open Plan',$,$,#185,#174,$,$,$,$);
#168=IFCCARTESIANPOINTLIST2D(((0.,0.),(12000.,0.),(12000.,6000.),(0.,6000.),(0.,0.)));
#169=IFCINDEXEDPOLYCURVE(#168,$,$);
#170=IFCDIRECTION((0.,0.,1.));
#171=IFCARBITRARYCLOSEDPROFILEDEF(.AREA.,$,#169);
#172=IFCEXTRUDEDAREASOLID(#171,$,#170,3000.);
#173=IFCSHAPEREPRESENTATION(#11,'Body','SweptSolid',(#172));
#174=IFCPRODUCTDEFINITIONSHAPE($,$,(#173));
#180=IFCRELAGGREGATES('3nnsEve5T6J9P$w7L8RJXK',$,$,$,#14,(#167));
#181=IFCCARTESIANPOINT((0.,0.,0.));
#182=IFCDIRECTION((0.,0.,1.));
#183=IFCDIRECTION((1.,0.,0.));
#184=IFCAXIS2PLACEMENT3D(#181,#182,#183);
#185=IFCLOCALPLACEMENT($,#184);
#186=IFCRELCONTAINEDINSPATIALSTRUCTURE('232v$xqUz7Jv9pLmx2xL5B',$,$,$,(#120,#137,#154,#52,#69,#18,#86,#35,#103),#14);
#187=IFCCARTESIANPOINT((7200.,0.,0.));
#188=IFCDIRECTION((0.,0.,1.));
#189=IFCDIRECTION((6.123233995736766E-17,1.,0.));
#190=IFCAXIS2PLACEMENT3D(#187,#188,#189);
#191=IFCLOCALPLACEMENT($,#190);
#192=IFCCARTESIANPOINT((9600.,0.,0.));
#193=IFCDIRECTION((0.,0.,1.));
#194=IFCDIRECTION((6.123233995736766E-17,1.,0.));
#195=IFCAXIS2PLACEMENT3D(#192,#193,#194);
#196=IFCLOCALPLACEMENT($,#195);
#197=IFCCARTESIANPOINT((0.,0.,0.));
#198=IFCDIRECTION((0.,0.,1.));
#199=IFCDIRECTION((1.,0.,0.));
#200=IFCAXIS2PLACEMENT3D(#197,#198,#199);
#201=IFCLOCALPLACEMENT($,#200);
#202=IFCCARTESIANPOINT((0.,0.,0.));
#203=IFCDIRECTION((0.,0.,1.));
#204=IFCDIRECTION((6.123233995736766E-17,1.,0.));
#205=IFCAXIS2PLACEMENT3D(#202,#203,#204);
#206=IFCLOCALPLACEMENT($,#205);
#207=IFCCARTESIANPOINT((12000.,0.,0.));
#208=IFCDIRECTION((0.,0.,1.));
#209=IFCDIRECTION((6.123233995736766E-17,1.,0.));
#210=IFCAXIS2PLACEMENT3D(#207,#208,#209);
#211=IFCLOCALPLACEMENT($,#210);
#212=IFCCARTESIANPOINT((0.,0.,0.));
#213=IFCDIRECTION((0.,0.,1.));
#214=IFCDIRECTION((1.,0.,0.));
#215=IFCAXIS2PLACEMENT3D(#212,#213,#214);
#216=IFCLOCALPLACEMENT($,#215);
#217=IFCCARTESIANPOINT((2400.,0.,0.));
#218=IFCDIRECTION((0.,0.,1.));
#219=IFCDIRECTION((6.123233995736766E-17,1.,0.));
#220=IFCAXIS2PLACEMENT3D(#217,#218,#219);
#221=IFCLOCALPLACEMENT($,#220);
#222=IFCCARTESIANPOINT((0.,6000.,0.));
#223=IFCDIRECTION((0.,0.,1.));
#224=IFCDIRECTION((1.,0.,0.));
#225=IFCAXIS2PLACEMENT3D(#222,#223,#224);
#226=IFCLOCALPLACEMENT($,#225);
#227=IFCCARTESIANPOINT((4800.,0.,0.));
#228=IFCDIRECTION((0.,0.,1.));
#229=IFCDIRECTION((6.123233995736766E-17,1.,0.));
#230=IFCAXIS2PLACEMENT3D(#227,#228,#229);
#231=IFCLOCALPLACEMENT($,#230);
ENDSEC;
END-ISO-10303-21;
