<COLLADA xmlns="http://www.collada.org/2005/11/COLLADASchema" version="1.4.1">
  <asset>
    <created>2026-04-23T23:17:28.668478</created>
    <modified>2026-04-23T23:17:28.668490</modified>
    <up_axis>Y_UP</up_axis>
  </asset>
  <library_effects>
    <effect id="eff-softened" name="eff-softened">
      <profile_COMMON>
        <technique sid="common">
          <lambert>
            <emission>
              <color>0.0 0.0 0.0 1.0</color>
            </emission>
            <ambient>
              <color>0.0 0.0 0.0 1.0</color>
            </ambient>
            <diffuse>
              <color>0.75 0.75 0.78 1.0</color>
            </diffuse>
            <specular>
              <color>0.0 0.0 0.0 1.0</color>
            </specular>
            <shininess>
              <float>0.0</float>
            </shininess>
            <reflective>
              <color>0.0 0.0 0.0 1.0</color>
            </reflective>
            <reflectivity>
              <float>0.0</float>
            </reflectivity>
            <transparent>
              <color>0.0 0.0 0.0 1.0</color>
            </transparent>
            <transparency>
              <float>1.0</float>
            </transparency>
          </lambert>
        </technique>
        <extra>
          <technique profile="GOOGLEEARTH">
            <double_sided>0</double_sided>
          </technique>
        </extra>
      </profile_COMMON>
    </effect>
  </library_effects>
  <library_geometries>
    <geometry id="geom-softened" name="SoftenedScan">
      <mesh>
        <source id="geom-softened-verts-array">
          <float_array count="126" id="geom-softened-verts-array-array">1 0 0 0.951057 0.309017 0 0.809017 0.587785 0 0.587785 0.809017 0 0.309017 0.951057 0 0 1 0 -0.309017 0.951057 0 -0.587785 0.809017 0 -0.809017 0.587785 0 -0.951057 0.309017 0 -1 0 0 -0.951057 -0.309017 0 -0.809017 -0.587785 0 -0.587785 -0.809017 0 -0.309017 -0.951057 0 -0 -1 0 0.309017 -0.951057 0 0.587785 -0.809017 0 0.809017 -0.587785 0 0.951057 -0.309017 0 1 0 2 0.951057 0.309017 2 0.809017 0.587785 2 0.587785 0.809017 2 0.309017 0.951057 2 0 1 2 -0.309017 0.951057 2 -0.587785 0.809017 2 -0.809017 0.587785 2 -0.951057 0.309017 2 -1 0 2 -0.951057 -0.309017 2 -0.809017 -0.587785 2 -0.587785 -0.809017 2 -0.309017 -0.951057 2 -0 -1 2 0.309017 -0.951057 2 0.587785 -0.809017 2 0.809017 -0.587785 2 0.951057 -0.309017 2 0 0 0 0 0 2</float_array>
          <technique_common>
            <accessor count="42" source="#geom-softened-verts-array-array" stride="3">
              <param type="float" name="X" />
              <param type="float" name="Y" />
              <param type="float" name="Z" />
            </accessor>
          </technique_common>
        </source>
        <source id="geom-softened-normals-array">
          <float_array count="720" id="geom-softened-normals-array-array">0.9986093 0.05272087 0 0.9334418 0.3587289 0 0.9660258 0.2584458 0 0.9986093 0.05272087 0 0.9660258 0.2584458 0 0.9986093 -0.05272087 0 0.9334418 0.3587289 0 0.7769026 0.6296208 0 0.8388801 0.5443164 0 0.9334418 0.3587289 0 0.8388801 0.5443164 0 0.9660258 0.2584458 0 0.7769026 0.6296208 0 0.5443164 0.8388801 0 0.6296208 0.7769026 0 0.7769026 0.6296208 0 0.6296208 0.7769026 0 0.8388801 0.5443164 0 0.5443164 0.8388801 0 0.2584458 0.9660258 0 0.3587289 0.9334418 0 0.5443164 0.8388801 0 0.3587289 0.9334418 0 0.6296208 0.7769026 0 0.2584458 0.9660258 0 -0.05272087 0.9986093 0 0.05272087 0.9986093 0 0.2584458 0.9660258 0 0.05272087 0.9986093 0 0.3587289 0.9334418 0 -0.05272087 0.9986093 0 -0.3587289 0.9334418 0 -0.2584458 0.9660258 0 -0.05272087 0.9986093 0 -0.2584458 0.9660258 0 0.05272087 0.9986093 0 -0.3587289 0.9334418 0 -0.6296208 0.7769026 0 -0.5443164 0.8388801 0 -0.3587289 0.9334418 0 -0.5443164 0.8388801 0 -0.2584458 0.9660258 0 -0.6296208 0.7769026 0 -0.8388801 0.5443164 0 -0.7769026 0.6296208 0 -0.6296208 0.7769026 0 -0.7769026 0.6296208 0 -0.5443164 0.8388801 0 -0.8388801 0.5443164 0 -0.9660258 0.2584458 0 -0.9334418 0.3587289 0 -0.8388801 0.5443164 0 -0.9334418 0.3587289 0 -0.7769026 0.6296208 0 -0.9660258 0.2584458 0 -0.9986093 -0.05272087 0 -0.9986093 0.05272087 0 -0.9660258 0.2584458 0 -0.9986093 0.05272087 0 -0.9334418 0.3587289 0 -0.9986093 -0.05272087 0 -0.9334418 -0.3587289 0 -0.9660258 -0.2584458 0 -0.9986093 -0.05272087 0 -0.9660258 -0.2584458 0 -0.9986093 0.05272087 0 -0.9334418 -0.3587289 0 -0.7769026 -0.6296208 0 -0.8388801 -0.5443164 0 -0.9334418 -0.3587289 0 -0.8388801 -0.5443164 0 -0.9660258 -0.2584458 0 -0.7769026 -0.6296208 0 -0.5443164 -0.8388801 0 -0.6296208 -0.7769026 0 -0.7769026 -0.6296208 0 -0.6296208 -0.7769026 0 -0.8388801 -0.5443164 0 -0.5443164 -0.8388801 0 -0.2584458 -0.9660258 0 -0.3587289 -0.9334418 0 -0.5443164 -0.8388801 0 -0.3587289 -0.9334418 0 -0.6296208 -0.7769026 0 -0.2584458 -0.9660258 0 0.05272087 -0.9986093 0 -0.05272087 -0.9986093 0 -0.2584458 -0.9660258 0 -0.05272087 -0.9986093 0 -0.3587289 -0.9334418 0 0.05272087 -0.9986093 0 0.3587289 -0.9334418 0 0.2584458 -0.9660258 0 0.05272087 -0.9986093 0 0.2584458 -0.9660258 0 -0.05272087 -0.9986093 0 0.3587289 -0.9334418 0 0.6296208 -0.7769026 0 0.5443164 -0.8388801 0 0.3587289 -0.9334418 0 0.5443164 -0.8388801 0 0.2584458 -0.9660258 0 0.6296208 -0.7769026 0 0.8388801 -0.5443164 0 0.7769026 -0.6296208 0 0.6296208 -0.7769026 0 0.7769026 -0.6296208 0 0.5443164 -0.8388801 0 0.8388801 -0.5443164 0 0.9660258 -0.2584458 0 0.9334418 -0.3587289 0 0.8388801 -0.5443164 0 0.9334418 -0.3587289 0 0.7769026 -0.6296208 0 0.9660258 -0.2584458 0 0.9986093 0.05272087 0 0.9986093 -0.05272087 0 0.9660258 -0.2584458 0 0.9986093 -0.05272087 0 0.9334418 -0.3587289 0 0 0 -1 0 0 -1 0 0 -1 0 0 -1 0 0 -1 0 0 -1 0 0 -1 0 0 -1 0 0 -1 0 0 -1 0 0 -1 0 0 -1 0 0 -1 0 0 -1 0 0 -1 0 0 -1 0 0 -1 0 0 -1 0 0 -1 0 0 -1 0 0 -1 0 0 -1 0 0 -1 0 0 -1 0 0 -1 0 0 -1 0 0 -1 0 0 -1 0 0 -1 0 0 -1 0 0 -1 0 0 -1 0 0 -1 0 0 -1 0 0 -1 0 0 -1 0 0 -1 0 0 -1 0 0 -1 0 0 -1 0 0 -1 0 0 -1 0 0 -1 0 0 -1 0 0 -1 0 0 -1 0 0 -1 0 0 -1 0 0 -1 0 0 -1 0 0 -1 0 0 -1 0 0 -1 0 0 -1 0 0 -1 0 0 -1 0 0 -1 0 0 -1 0 0 -1 0 0 -1 0 0 1 0 0 1 0 0 1 0 0 1 0 0 1 0 0 1 0 0 1 0 0 1 0 0 1 0 0 1 0 0 1 0 0 1 0 0 1 0 0 1 0 0 1 0 0 1 0 0 1 0 0 1 0 0 1 0 0 1 0 0 1 0 0 1 0 0 1 0 0 1 0 0 1 0 0 1 0 0 1 0 0 1 0 0 1 0 0 1 0 0 1 0 0 1 0 0 1 0 0 1 0 0 1 0 0 1 0 0 1 0 0 1 0 0 1 0 0 1 0 0 1 0 0 1 0 0 1 0 0 1 0 0 1 0 0 1 0 0 1 0 0 1 0 0 1 0 0 1 0 0 1 0 0 1 0 0 1 0 0 1 0 0 1 0 0 1 0 0 1 0 0 1 0 0 1 0 0 1</float_array>
          <technique_common>
            <accessor count="240" source="#geom-softened-normals-array-array" stride="3">
              <param type="float" name="X" />
              <param type="float" name="Y" />
              <param type="float" name="Z" />
            </accessor>
          </technique_common>
        </source>
        <vertices id="geom-softened-verts-array-vertices">
          <input semantic="POSITION" source="#geom-softened-verts-array" />
        </vertices>
        <triangles count="80" material="matref-softened">
          <input offset="0" semantic="VERTEX" source="#geom-softened-verts-array-vertices" />
          <input offset="1" semantic="NORMAL" source="#geom-softened-normals-array" />
          <p>0 0 1 1 21 2 0 3 21 4 20 5 1 6 2 7 22 8 1 9 22 10 21 11 2 12 3 13 23 14 2 15 23 16 22 17 3 18 4 19 24 20 3 21 24 22 23 23 4 24 5 25 25 26 4 27 25 28 24 29 5 30 6 31 26 32 5 33 26 34 25 35 6 36 7 37 27 38 6 39 27 40 26 41 7 42 8 43 28 44 7 45 28 46 27 47 8 48 9 49 29 50 8 51 29 52 28 53 9 54 10 55 30 56 9 57 30 58 29 59 10 60 11 61 31 62 10 63 31 64 30 65 11 66 12 67 32 68 11 69 32 70 31 71 12 72 13 73 33 74 12 75 33 76 32 77 13 78 14 79 34 80 13 81 34 82 33 83 14 84 15 85 35 86 14 87 35 88 34 89 15 90 16 91 36 92 15 93 36 94 35 95 16 96 17 97 37 98 16 99 37 100 36 101 17 102 18 103 38 104 17 105 38 106 37 107 18 108 19 109 39 110 18 111 39 112 38 113 19 114 0 115 20 116 19 117 20 118 39 119 40 120 1 121 0 122 40 123 2 124 1 125 40 126 3 127 2 128 40 129 4 130 3 131 40 132 5 133 4 134 40 135 6 136 5 137 40 138 7 139 6 140 40 141 8 142 7 143 40 144 9 145 8 146 40 147 10 148 9 149 40 150 11 151 10 152 40 153 12 154 11 155 40 156 13 157 12 158 40 159 14 160 13 161 40 162 15 163 14 164 40 165 16 166 15 167 40 168 17 169 16 170 40 171 18 172 17 173 40 174 19 175 18 176 40 177 0 178 19 179 41 180 20 181 21 182 41 183 21 184 22 185 41 186 22 187 23 188 41 189 23 190 24 191 41 192 24 193 25 194 41 195 25 196 26 197 41 198 26 199 27 200 41 201 27 202 28 203 41 204 28 205 29 206 41 207 29 208 30 209 41 210 30 211 31 212 41 213 31 214 32 215 41 216 32 217 33 218 41 219 33 220 34 221 41 222 34 223 35 224 41 225 35 226 36 227 41 228 36 229 37 230 41 231 37 232 38 233 41 234 38 235 39 236 41 237 39 238 20 239</p>
        </triangles>
      </mesh>
    </geometry>
  </library_geometries>
  <library_materials>
    <material id="mat-softened" name="Softened">
      <instance_effect url="#eff-softened" />
    </material>
  </library_materials>
  <library_visual_scenes>
    <visual_scene id="scene">
      <node id="SoftenedScan" name="SoftenedScan">
        <instance_geometry url="#geom-softened">
          <bind_material>
            <technique_common>
              <instance_material symbol="matref-softened" target="#mat-softened" />
            </technique_common>
          </bind_material>
        </instance_geometry>
      </node>
    </visual_scene>
  </library_visual_scenes>
  <scene>
    <instance_visual_scene url="#scene" />
  </scene>
</COLLADA>
