ISO-10303-21;
HEADER;
FILE_DESCRIPTION(('ViewDefinition [CoordinationView]'),'2;1');
FILE_NAME('','2026-05-22T17:03:03',(''),(''),'IfcOpenShell 0.8.5-1c5b825','IfcOpenShell 0.8.5-1c5b825','');
FILE_SCHEMA(('IFC2X3'));
ENDSEC;
DATA;
#1=IFCPERSON('EW','Engiworld','Task',$,$,$,$,$);
#2=IFCORGANIZATION('EW','Engiworld',$,$,$);
#3=IFCPERSONANDORGANIZATION(#1,#2,$);
#4=IFCACTORROLE(.USERDEFINED.,'CONTRIBUTOR',$);
#5=IFCORGANIZATION('IfcOpenShell','IfcOpenShell','IfcOpenShell is an open source software library that helps users and software developers to work with IFC data.',(#4),(#6));
#6=IFCTELECOMADDRESS(.USERDEFINED.,$,'WEBPAGE',$,$,$,$,'https://ifcopenshell.org');
#7=IFCAPPLICATION(#5,'0.8.5','Engiworld IFC Generator','Engiworld');
#8=IFCOWNERHISTORY(#3,#7,.READWRITE.,.ADDED.,1779440583,#3,#7,1779440583);
#9=IFCPROJECT('3v3CE$P$L9vOgQNmjgXlaI',#8,'v-archicad-simple-task-18-windows init',$,$,$,$,(#18),#13);
#10=IFCSIUNIT(*,.LENGTHUNIT.,.MILLI.,.METRE.);
#11=IFCSIUNIT(*,.AREAUNIT.,$,.SQUARE_METRE.);
#12=IFCSIUNIT(*,.VOLUMEUNIT.,$,.CUBIC_METRE.);
#13=IFCUNITASSIGNMENT((#12,#10,#11));
#14=IFCCARTESIANPOINT((0.,0.,0.));
#15=IFCDIRECTION((0.,0.,1.));
#16=IFCDIRECTION((1.,0.,0.));
#17=IFCAXIS2PLACEMENT3D(#14,#15,#16);
#18=IFCGEOMETRICREPRESENTATIONCONTEXT($,'Model',3,1.0000000000000001E-05,#17,$);
#19=IFCGEOMETRICREPRESENTATIONSUBCONTEXT('Body','Model',*,*,*,*,#18,$,.MODEL_VIEW.,$);
#20=IFCOWNERHISTORY(#3,#7,.READWRITE.,.ADDED.,1779440583,#3,#7,1779440583);
#21=IFCSITE('2fQGvZ89j2eeHsLixT$$9P',#20,'Default Site',$,$,$,$,$,.ELEMENT.,$,$,$,$,$);
#22=IFCOWNERHISTORY(#3,#7,.READWRITE.,.ADDED.,1779440583,#3,#7,1779440583);
#23=IFCBUILDING('077ULZNkjAS8oClUJoslo7',#22,'Archicad Init Building',$,$,$,$,$,.ELEMENT.,$,$,$);
#24=IFCOWNERHISTORY(#3,#7,.READWRITE.,.ADDED.,1779440583,#3,#7,1779440583);
#25=IFCRELAGGREGATES('07KJmnqkL0eRo9oybq2A_S',#24,$,$,#9,(#21));
#26=IFCOWNERHISTORY(#3,#7,.READWRITE.,.ADDED.,1779440583,#3,#7,1779440583);
#27=IFCRELAGGREGATES('2at0X36899hBc0vMPyeSsC',#26,$,$,#21,(#23));
#28=IFCOWNERHISTORY(#3,#7,.READWRITE.,.MODIFIED.,1779440583,#3,#7,1779440583);
#29=IFCBUILDINGSTOREY('1ut68Yi215Hxal9SvPwDSh',#28,'Ground Floor',$,$,#36,$,$,.ELEMENT.,$);
#30=IFCOWNERHISTORY(#3,#7,.READWRITE.,.ADDED.,1779440583,#3,#7,1779440583);
#31=IFCRELAGGREGATES('3HkgcSGoL0NvZH9yNXcBgJ',#30,$,$,#23,(#29));
#32=IFCCARTESIANPOINT((0.,0.,0.));
#33=IFCDIRECTION((0.,0.,1.));
#34=IFCDIRECTION((1.,0.,0.));
#35=IFCAXIS2PLACEMENT3D(#32,#33,#34);
#36=IFCLOCALPLACEMENT($,#35);
#37=IFCOWNERHISTORY(#3,#7,.READWRITE.,.MODIFIED.,1779440583,#3,#7,1779440583);
#38=IFCWALL('0D9UyfkaHAG80ciEVWg5_7',#37,'Exterior Wall 1',$,$,#65,#53,$);
#39=IFCCARTESIANPOINT((0.,0.));
#40=IFCCARTESIANPOINT((0.,200.));
#41=IFCCARTESIANPOINT((14000.,200.));
#42=IFCCARTESIANPOINT((14000.,0.));
#43=IFCCARTESIANPOINT((0.,0.));
#44=IFCPOLYLINE((#39,#40,#41,#42,#43));
#45=IFCDIRECTION((0.,0.,1.));
#46=IFCARBITRARYCLOSEDPROFILEDEF(.AREA.,$,#44);
#47=IFCCARTESIANPOINT((0.,0.,0.));
#48=IFCDIRECTION((0.,0.,1.));
#49=IFCDIRECTION((1.,0.,0.));
#50=IFCAXIS2PLACEMENT3D(#47,#48,#49);
#51=IFCEXTRUDEDAREASOLID(#46,#50,#45,3000.);
#52=IFCSHAPEREPRESENTATION(#19,'Body','SweptSolid',(#51));
#53=IFCPRODUCTDEFINITIONSHAPE($,$,(#52));
#59=IFCOWNERHISTORY(#3,#7,.READWRITE.,.MODIFIED.,1779440584,#3,#7,1779440583);
#60=IFCRELCONTAINEDINSPATIALSTRUCTURE('1HVDJ9vET1Vh$_FbfMQomc',#59,$,$,(#38,#543,#229,#175,#94,#121,#67,#712,#413,#256,#202,#283,#148,#911,#1110),#29);
#61=IFCCARTESIANPOINT((0.,0.,0.));
#62=IFCDIRECTION((0.,0.,1.));
#63=IFCDIRECTION((1.,0.,0.));
#64=IFCAXIS2PLACEMENT3D(#61,#62,#63);
#65=IFCLOCALPLACEMENT(#36,#64);
#66=IFCOWNERHISTORY(#3,#7,.READWRITE.,.MODIFIED.,1779440583,#3,#7,1779440583);
#67=IFCWALL('3GpTEgwNj3UQafaYNKV7LI',#66,'Exterior Wall 2',$,$,#92,#82,$);
#68=IFCCARTESIANPOINT((0.,0.));
#69=IFCCARTESIANPOINT((0.,200.));
#70=IFCCARTESIANPOINT((14000.,200.));
#71=IFCCARTESIANPOINT((14000.,0.));
#72=IFCCARTESIANPOINT((0.,0.));
#73=IFCPOLYLINE((#68,#69,#70,#71,#72));
#74=IFCDIRECTION((0.,0.,1.));
#75=IFCARBITRARYCLOSEDPROFILEDEF(.AREA.,$,#73);
#76=IFCCARTESIANPOINT((0.,0.,0.));
#77=IFCDIRECTION((0.,0.,1.));
#78=IFCDIRECTION((1.,0.,0.));
#79=IFCAXIS2PLACEMENT3D(#76,#77,#78);
#80=IFCEXTRUDEDAREASOLID(#75,#79,#74,3000.);
#81=IFCSHAPEREPRESENTATION(#19,'Body','SweptSolid',(#80));
#82=IFCPRODUCTDEFINITIONSHAPE($,$,(#81));
#88=IFCCARTESIANPOINT((0.,6000.,0.));
#89=IFCDIRECTION((0.,0.,1.));
#90=IFCDIRECTION((1.,0.,0.));
#91=IFCAXIS2PLACEMENT3D(#88,#89,#90);
#92=IFCLOCALPLACEMENT(#36,#91);
#93=IFCOWNERHISTORY(#3,#7,.READWRITE.,.MODIFIED.,1779440583,#3,#7,1779440583);
#94=IFCWALL('2e5ZhZ1vv4q9tPprJDIqSG',#93,'Exterior Wall 3',$,$,#119,#109,$);
#95=IFCCARTESIANPOINT((0.,0.));
#96=IFCCARTESIANPOINT((0.,200.));
#97=IFCCARTESIANPOINT((6000.,200.));
#98=IFCCARTESIANPOINT((6000.,0.));
#99=IFCCARTESIANPOINT((0.,0.));
#100=IFCPOLYLINE((#95,#96,#97,#98,#99));
#101=IFCDIRECTION((0.,0.,1.));
#102=IFCARBITRARYCLOSEDPROFILEDEF(.AREA.,$,#100);
#103=IFCCARTESIANPOINT((0.,0.,0.));
#104=IFCDIRECTION((0.,0.,1.));
#105=IFCDIRECTION((1.,0.,0.));
#106=IFCAXIS2PLACEMENT3D(#103,#104,#105);
#107=IFCEXTRUDEDAREASOLID(#102,#106,#101,3000.);
#108=IFCSHAPEREPRESENTATION(#19,'Body','SweptSolid',(#107));
#109=IFCPRODUCTDEFINITIONSHAPE($,$,(#108));
#115=IFCCARTESIANPOINT((0.,0.,0.));
#116=IFCDIRECTION((0.,0.,1.));
#117=IFCDIRECTION((6.123233995736766E-17,1.,0.));
#118=IFCAXIS2PLACEMENT3D(#115,#116,#117);
#119=IFCLOCALPLACEMENT(#36,#118);
#120=IFCOWNERHISTORY(#3,#7,.READWRITE.,.MODIFIED.,1779440583,#3,#7,1779440583);
#121=IFCWALL('1mqwMIxtP4eeo9ScSE98M3',#120,'Exterior Wall 4',$,$,#146,#136,$);
#122=IFCCARTESIANPOINT((0.,0.));
#123=IFCCARTESIANPOINT((0.,200.));
#124=IFCCARTESIANPOINT((6000.,200.));
#125=IFCCARTESIANPOINT((6000.,0.));
#126=IFCCARTESIANPOINT((0.,0.));
#127=IFCPOLYLINE((#122,#123,#124,#125,#126));
#128=IFCDIRECTION((0.,0.,1.));
#129=IFCARBITRARYCLOSEDPROFILEDEF(.AREA.,$,#127);
#130=IFCCARTESIANPOINT((0.,0.,0.));
#131=IFCDIRECTION((0.,0.,1.));
#132=IFCDIRECTION((1.,0.,0.));
#133=IFCAXIS2PLACEMENT3D(#130,#131,#132);
#134=IFCEXTRUDEDAREASOLID(#129,#133,#128,3000.);
#135=IFCSHAPEREPRESENTATION(#19,'Body','SweptSolid',(#134));
#136=IFCPRODUCTDEFINITIONSHAPE($,$,(#135));
#142=IFCCARTESIANPOINT((14000.,0.,0.));
#143=IFCDIRECTION((0.,0.,1.));
#144=IFCDIRECTION((6.123233995736766E-17,1.,0.));
#145=IFCAXIS2PLACEMENT3D(#142,#143,#144);
#146=IFCLOCALPLACEMENT(#36,#145);
#147=IFCOWNERHISTORY(#3,#7,.READWRITE.,.MODIFIED.,1779440583,#3,#7,1779440583);
#148=IFCWALL('1hM7MLGSv9HRHiGel1zh8U',#147,'Interior Partition 1',$,$,#173,#163,$);
#149=IFCCARTESIANPOINT((0.,0.));
#150=IFCCARTESIANPOINT((0.,120.));
#151=IFCCARTESIANPOINT((5599.9999999999991,120.));
#152=IFCCARTESIANPOINT((5599.9999999999991,0.));
#153=IFCCARTESIANPOINT((0.,0.));
#154=IFCPOLYLINE((#149,#150,#151,#152,#153));
#155=IFCDIRECTION((0.,0.,1.));
#156=IFCARBITRARYCLOSEDPROFILEDEF(.AREA.,$,#154);
#157=IFCCARTESIANPOINT((0.,0.,0.));
#158=IFCDIRECTION((0.,0.,1.));
#159=IFCDIRECTION((1.,0.,0.));
#160=IFCAXIS2PLACEMENT3D(#157,#158,#159);
#161=IFCEXTRUDEDAREASOLID(#156,#160,#155,3000.);
#162=IFCSHAPEREPRESENTATION(#19,'Body','SweptSolid',(#161));
#163=IFCPRODUCTDEFINITIONSHAPE($,$,(#162));
#169=IFCCARTESIANPOINT((2799.9999999999995,200.,0.));
#170=IFCDIRECTION((0.,0.,1.));
#171=IFCDIRECTION((6.123233995736766E-17,1.,0.));
#172=IFCAXIS2PLACEMENT3D(#169,#170,#171);
#173=IFCLOCALPLACEMENT(#36,#172);
#174=IFCOWNERHISTORY(#3,#7,.READWRITE.,.MODIFIED.,1779440583,#3,#7,1779440583);
#175=IFCWALL('08Jn$kqnL4ZP8TyGjdBEEi',#174,'Interior Partition 2',$,$,#200,#190,$);
#176=IFCCARTESIANPOINT((0.,0.));
#177=IFCCARTESIANPOINT((0.,120.));
#178=IFCCARTESIANPOINT((5599.9999999999991,120.));
#179=IFCCARTESIANPOINT((5599.9999999999991,0.));
#180=IFCCARTESIANPOINT((0.,0.));
#181=IFCPOLYLINE((#176,#177,#178,#179,#180));
#182=IFCDIRECTION((0.,0.,1.));
#183=IFCARBITRARYCLOSEDPROFILEDEF(.AREA.,$,#181);
#184=IFCCARTESIANPOINT((0.,0.,0.));
#185=IFCDIRECTION((0.,0.,1.));
#186=IFCDIRECTION((1.,0.,0.));
#187=IFCAXIS2PLACEMENT3D(#184,#185,#186);
#188=IFCEXTRUDEDAREASOLID(#183,#187,#182,3000.);
#189=IFCSHAPEREPRESENTATION(#19,'Body','SweptSolid',(#188));
#190=IFCPRODUCTDEFINITIONSHAPE($,$,(#189));
#196=IFCCARTESIANPOINT((5599.9999999999991,200.,0.));
#197=IFCDIRECTION((0.,0.,1.));
#198=IFCDIRECTION((6.123233995736766E-17,1.,0.));
#199=IFCAXIS2PLACEMENT3D(#196,#197,#198);
#200=IFCLOCALPLACEMENT(#36,#199);
#201=IFCOWNERHISTORY(#3,#7,.READWRITE.,.MODIFIED.,1779440584,#3,#7,1779440583);
#202=IFCWALL('0cNWXlMvn2CeEu_LZfVouV',#201,'Interior Partition 3',$,$,#227,#217,$);
#203=IFCCARTESIANPOINT((0.,0.));
#204=IFCCARTESIANPOINT((0.,120.));
#205=IFCCARTESIANPOINT((5599.9999999999991,120.));
#206=IFCCARTESIANPOINT((5599.9999999999991,0.));
#207=IFCCARTESIANPOINT((0.,0.));
#208=IFCPOLYLINE((#203,#204,#205,#206,#207));
#209=IFCDIRECTION((0.,0.,1.));
#210=IFCARBITRARYCLOSEDPROFILEDEF(.AREA.,$,#208);
#211=IFCCARTESIANPOINT((0.,0.,0.));
#212=IFCDIRECTION((0.,0.,1.));
#213=IFCDIRECTION((1.,0.,0.));
#214=IFCAXIS2PLACEMENT3D(#211,#212,#213);
#215=IFCEXTRUDEDAREASOLID(#210,#214,#209,3000.);
#216=IFCSHAPEREPRESENTATION(#19,'Body','SweptSolid',(#215));
#217=IFCPRODUCTDEFINITIONSHAPE($,$,(#216));
#223=IFCCARTESIANPOINT((8400.,200.,0.));
#224=IFCDIRECTION((0.,0.,1.));
#225=IFCDIRECTION((6.123233995736766E-17,1.,0.));
#226=IFCAXIS2PLACEMENT3D(#223,#224,#225);
#227=IFCLOCALPLACEMENT(#36,#226);
#228=IFCOWNERHISTORY(#3,#7,.READWRITE.,.MODIFIED.,1779440584,#3,#7,1779440584);
#229=IFCWALL('1bsML_lKr1jheKzrdkdpQA',#228,'Interior Partition 4',$,$,#254,#244,$);
#230=IFCCARTESIANPOINT((0.,0.));
#231=IFCCARTESIANPOINT((0.,120.));
#232=IFCCARTESIANPOINT((5599.9999999999991,120.));
#233=IFCCARTESIANPOINT((5599.9999999999991,0.));
#234=IFCCARTESIANPOINT((0.,0.));
#235=IFCPOLYLINE((#230,#231,#232,#233,#234));
#236=IFCDIRECTION((0.,0.,1.));
#237=IFCARBITRARYCLOSEDPROFILEDEF(.AREA.,$,#235);
#238=IFCCARTESIANPOINT((0.,0.,0.));
#239=IFCDIRECTION((0.,0.,1.));
#240=IFCDIRECTION((1.,0.,0.));
#241=IFCAXIS2PLACEMENT3D(#238,#239,#240);
#242=IFCEXTRUDEDAREASOLID(#237,#241,#236,3000.);
#243=IFCSHAPEREPRESENTATION(#19,'Body','SweptSolid',(#242));
#244=IFCPRODUCTDEFINITIONSHAPE($,$,(#243));
#250=IFCCARTESIANPOINT((11199.999999999998,200.,0.));
#251=IFCDIRECTION((0.,0.,1.));
#252=IFCDIRECTION((6.123233995736766E-17,1.,0.));
#253=IFCAXIS2PLACEMENT3D(#250,#251,#252);
#254=IFCLOCALPLACEMENT(#36,#253);
#255=IFCOWNERHISTORY(#3,#7,.READWRITE.,.MODIFIED.,1779440584,#3,#7,1779440584);
#256=IFCSLAB('0hLYjxD$rB2ffP8NRqz0RG',#255,'Floor Slab 1',$,$,#281,#271,$,$);
#257=IFCCARTESIANPOINT((0.,0.));
#258=IFCCARTESIANPOINT((14000.,0.));
#259=IFCCARTESIANPOINT((14000.,6000.));
#260=IFCCARTESIANPOINT((0.,6000.));
#261=IFCCARTESIANPOINT((0.,0.));
#262=IFCPOLYLINE((#257,#258,#259,#260,#261));
#263=IFCDIRECTION((0.,0.,1.));
#264=IFCCARTESIANPOINT((0.,0.,0.));
#265=IFCDIRECTION((0.,0.,1.));
#266=IFCDIRECTION((1.,0.,0.));
#267=IFCAXIS2PLACEMENT3D(#264,#265,#266);
#268=IFCARBITRARYCLOSEDPROFILEDEF(.AREA.,$,#262);
#269=IFCEXTRUDEDAREASOLID(#268,#267,#263,200.);
#270=IFCSHAPEREPRESENTATION(#19,'Body','SweptSolid',(#269));
#271=IFCPRODUCTDEFINITIONSHAPE($,$,(#270));
#277=IFCCARTESIANPOINT((0.,0.,0.));
#278=IFCDIRECTION((0.,0.,1.));
#279=IFCDIRECTION((1.,0.,0.));
#280=IFCAXIS2PLACEMENT3D(#277,#278,#279);
#281=IFCLOCALPLACEMENT(#36,#280);
#282=IFCOWNERHISTORY(#3,#7,.READWRITE.,.MODIFIED.,1779440584,#3,#7,1779440584);
#283=IFCDOOR('3KzSsOEc98nOANNegYrGaV',#282,'Door 1',$,$,#411,#401,$,$,$);
#284=IFCCARTESIANPOINT((0.,0.));
#285=IFCCARTESIANPOINT((0.,2.1000000000000001));
#286=IFCCARTESIANPOINT((0.90000000000000002,2.1000000000000001));
#287=IFCCARTESIANPOINT((0.90000000000000002,0.));
#288=IFCCARTESIANPOINT((-24.100000000000001,0.));
#289=IFCCARTESIANPOINT((-24.100000000000001,-22.899999999999999));
#290=IFCCARTESIANPOINT((25.,-22.899999999999999));
#291=IFCCARTESIANPOINT((25.,0.));
#292=IFCPOLYLINE((#284,#285,#286,#287,#288,#289,#290,#291,#284));
#293=IFCARBITRARYCLOSEDPROFILEDEF(.AREA.,$,#292);
#294=IFCCARTESIANPOINT((0.,25.,0.));
#295=IFCDIRECTION((0.,-1.,0.));
#296=IFCDIRECTION((1.,0.,0.));
#297=IFCAXIS2PLACEMENT3D(#294,#295,#296);
#298=IFCDIRECTION((0.,0.,-1.));
#299=IFCEXTRUDEDAREASOLID(#293,#297,#298,25.);
#300=IFCCARTESIANPOINT((0.,0.));
#301=IFCCARTESIANPOINT((0.,2.1000000000000001));
#302=IFCCARTESIANPOINT((0.90000000000000002,2.1000000000000001));
#303=IFCCARTESIANPOINT((0.90000000000000002,0.));
#304=IFCCARTESIANPOINT((-49.100000000000001,0.));
#305=IFCCARTESIANPOINT((-49.100000000000001,-47.899999999999999));
#306=IFCCARTESIANPOINT((50.,-47.899999999999999));
#307=IFCCARTESIANPOINT((50.,0.));
#308=IFCPOLYLINE((#300,#301,#302,#303,#304,#305,#306,#307,#300));
#309=IFCARBITRARYCLOSEDPROFILEDEF(.AREA.,$,#308);
#310=IFCCARTESIANPOINT((0.,0.,0.));
#311=IFCDIRECTION((0.,-1.,0.));
#312=IFCDIRECTION((1.,0.,0.));
#313=IFCAXIS2PLACEMENT3D(#310,#311,#312);
#314=IFCDIRECTION((0.,0.,-1.));
#315=IFCEXTRUDEDAREASOLID(#309,#313,#314,25.);
#316=IFCCARTESIANPOINT((0.,0.));
#317=IFCCARTESIANPOINT((-99.099999999999994,0.));
#318=IFCCARTESIANPOINT((-99.099999999999994,100.));
#319=IFCCARTESIANPOINT((0.,100.));
#320=IFCPOLYLINE((#316,#317,#318,#319,#316));
#321=IFCARBITRARYCLOSEDPROFILEDEF(.AREA.,$,#320);
#322=IFCCARTESIANPOINT((50.,0.,0.));
#323=IFCDIRECTION((0.,0.,1.));
#324=IFCDIRECTION((1.,0.,0.));
#325=IFCAXIS2PLACEMENT3D(#322,#323,#324);
#326=IFCDIRECTION((0.,0.,1.));
#327=IFCEXTRUDEDAREASOLID(#321,#325,#326,25.);
#328=IFCCARTESIANPOINT((0.,0.));
#329=IFCCARTESIANPOINT((0.,27.100000000000001));
#330=IFCCARTESIANPOINT((50.899999999999999,27.100000000000001));
#331=IFCCARTESIANPOINT((50.899999999999999,0.));
#332=IFCCARTESIANPOINT((-24.100000000000001,0.));
#333=IFCCARTESIANPOINT((-24.100000000000001,-47.899999999999999));
#334=IFCCARTESIANPOINT((75.,-47.899999999999999));
#335=IFCCARTESIANPOINT((75.,0.));
#336=IFCPOLYLINE((#328,#329,#330,#331,#332,#333,#334,#335,#328));
#337=IFCARBITRARYCLOSEDPROFILEDEF(.AREA.,$,#336);
#338=IFCCARTESIANPOINT((-25.,-5.,0.));
#339=IFCDIRECTION((0.,-1.,0.));
#340=IFCDIRECTION((1.,0.,0.));
#341=IFCAXIS2PLACEMENT3D(#338,#339,#340);
#342=IFCDIRECTION((0.,0.,-1.));
#343=IFCEXTRUDEDAREASOLID(#337,#341,#342,5.);
#344=IFCCARTESIANPOINT((0.,0.));
#345=IFCCARTESIANPOINT((0.,27.100000000000001));
#346=IFCCARTESIANPOINT((50.899999999999999,27.100000000000001));
#347=IFCCARTESIANPOINT((50.899999999999999,0.));
#348=IFCCARTESIANPOINT((0.89999999999999858,0.));
#349=IFCCARTESIANPOINT((0.89999999999999858,-22.899999999999999));
#350=IFCCARTESIANPOINT((50.,-22.899999999999999));
#351=IFCCARTESIANPOINT((50.,0.));
#352=IFCPOLYLINE((#344,#345,#346,#347,#348,#349,#350,#351,#344));
#353=IFCARBITRARYCLOSEDPROFILEDEF(.AREA.,$,#352);
#354=IFCCARTESIANPOINT((-25.,50.,0.));
#355=IFCDIRECTION((0.,-1.,0.));
#356=IFCDIRECTION((1.,0.,0.));
#357=IFCAXIS2PLACEMENT3D(#354,#355,#356);
#358=IFCDIRECTION((0.,0.,-1.));
#359=IFCEXTRUDEDAREASOLID(#353,#357,#358,5.);
#360=IFCCARTESIANPOINT((0.,0.));
#361=IFCCARTESIANPOINT((-49.100000000000001,0.));
#362=IFCCARTESIANPOINT((-49.100000000000001,35.));
#363=IFCCARTESIANPOINT((0.,35.));
#364=IFCPOLYLINE((#360,#361,#362,#363,#360));
#365=IFCARBITRARYCLOSEDPROFILEDEF(.AREA.,$,#364);
#366=IFCCARTESIANPOINT((25.,25.,25.));
#367=IFCDIRECTION((0.,0.,1.));
#368=IFCDIRECTION((1.,0.,0.));
#369=IFCAXIS2PLACEMENT3D(#366,#367,#368);
#370=IFCDIRECTION((0.,0.,1.));
#371=IFCEXTRUDEDAREASOLID(#365,#369,#370,-47.899999999999999);
#372=IFCCARTESIANPOINT((0.,0.));
#373=IFCCARTESIANPOINT((0.,-40.));
#374=IFCCARTESIANPOINT((-120.00000000000003,-40.));
#375=IFCCARTESIANPOINT((-120.00000000000003,-20.));
#376=IFCCARTESIANPOINT((-20.,-20.));
#377=IFCCARTESIANPOINT((-20.,0.));
#378=IFCPOLYLINE((#372,#373,#374,#375,#376,#377,#372));
#379=IFCARBITRARYCLOSEDPROFILEDEF(.AREA.,$,#378);
#380=IFCCARTESIANPOINT((-74.099999999999994,25.,1015.));
#381=IFCDIRECTION((0.,0.,1.));
#382=IFCDIRECTION((1.,0.,0.));
#383=IFCAXIS2PLACEMENT3D(#380,#381,#382);
#384=IFCDIRECTION((0.,0.,1.));
#385=IFCEXTRUDEDAREASOLID(#379,#383,#384,20.);
#386=IFCEXTRUDEDAREASOLID(#387,#395,#399,20.);
#387=IFCARBITRARYCLOSEDPROFILEDEF(.AREA.,$,#388);
#388=IFCPOLYLINE((#389,#390,#391,#392,#393,#394,#389));
#389=IFCCARTESIANPOINT((0.,0.));
#390=IFCCARTESIANPOINT((0.,40.));
#391=IFCCARTESIANPOINT((-120.00000000000003,40.));
#392=IFCCARTESIANPOINT((-120.00000000000003,20.));
#393=IFCCARTESIANPOINT((-20.,20.));
#394=IFCCARTESIANPOINT((-20.,0.));
#395=IFCAXIS2PLACEMENT3D(#396,#397,#398);
#396=IFCCARTESIANPOINT((-74.099999999999994,60.,1015.));
#397=IFCDIRECTION((0.,0.,1.));
#398=IFCDIRECTION((1.,0.,0.));
#399=IFCDIRECTION((0.,0.,1.));
#400=IFCSHAPEREPRESENTATION(#19,'Body','SweptSolid',(#299,#315,#371,#385,#386,#327,#343,#359));
#401=IFCPRODUCTDEFINITIONSHAPE($,$,(#400));
#407=IFCCARTESIANPOINT((800.,-50.,0.));
#408=IFCDIRECTION((0.,0.,1.));
#409=IFCDIRECTION((1.,0.,0.));
#410=IFCAXIS2PLACEMENT3D(#407,#408,#409);
#411=IFCLOCALPLACEMENT(#36,#410);
#412=IFCOWNERHISTORY(#3,#7,.READWRITE.,.MODIFIED.,1779440584,#3,#7,1779440584);
#413=IFCDOOR('3NErzPuPP2ZBA3BvVT9Sho',#412,'Door 2',$,$,#541,#531,$,$,$);
#414=IFCCARTESIANPOINT((0.,0.));
#415=IFCCARTESIANPOINT((0.,2.1000000000000001));
#416=IFCCARTESIANPOINT((0.90000000000000002,2.1000000000000001));
#417=IFCCARTESIANPOINT((0.90000000000000002,0.));
#418=IFCCARTESIANPOINT((-24.100000000000001,0.));
#419=IFCCARTESIANPOINT((-24.100000000000001,-22.899999999999999));
#420=IFCCARTESIANPOINT((25.,-22.899999999999999));
#421=IFCCARTESIANPOINT((25.,0.));
#422=IFCPOLYLINE((#414,#415,#416,#417,#418,#419,#420,#421,#414));
#423=IFCARBITRARYCLOSEDPROFILEDEF(.AREA.,$,#422);
#424=IFCCARTESIANPOINT((0.,25.,0.));
#425=IFCDIRECTION((0.,-1.,0.));
#426=IFCDIRECTION((1.,0.,0.));
#427=IFCAXIS2PLACEMENT3D(#424,#425,#426);
#428=IFCDIRECTION((0.,0.,-1.));
#429=IFCEXTRUDEDAREASOLID(#423,#427,#428,25.);
#430=IFCCARTESIANPOINT((0.,0.));
#431=IFCCARTESIANPOINT((0.,2.1000000000000001));
#432=IFCCARTESIANPOINT((0.90000000000000002,2.1000000000000001));
#433=IFCCARTESIANPOINT((0.90000000000000002,0.));
#434=IFCCARTESIANPOINT((-49.100000000000001,0.));
#435=IFCCARTESIANPOINT((-49.100000000000001,-47.899999999999999));
#436=IFCCARTESIANPOINT((50.,-47.899999999999999));
#437=IFCCARTESIANPOINT((50.,0.));
#438=IFCPOLYLINE((#430,#431,#432,#433,#434,#435,#436,#437,#430));
#439=IFCARBITRARYCLOSEDPROFILEDEF(.AREA.,$,#438);
#440=IFCCARTESIANPOINT((0.,0.,0.));
#441=IFCDIRECTION((0.,-1.,0.));
#442=IFCDIRECTION((1.,0.,0.));
#443=IFCAXIS2PLACEMENT3D(#440,#441,#442);
#444=IFCDIRECTION((0.,0.,-1.));
#445=IFCEXTRUDEDAREASOLID(#439,#443,#444,25.);
#446=IFCCARTESIANPOINT((0.,0.));
#447=IFCCARTESIANPOINT((-99.099999999999994,0.));
#448=IFCCARTESIANPOINT((-99.099999999999994,100.));
#449=IFCCARTESIANPOINT((0.,100.));
#450=IFCPOLYLINE((#446,#447,#448,#449,#446));
#451=IFCARBITRARYCLOSEDPROFILEDEF(.AREA.,$,#450);
#452=IFCCARTESIANPOINT((50.,0.,0.));
#453=IFCDIRECTION((0.,0.,1.));
#454=IFCDIRECTION((1.,0.,0.));
#455=IFCAXIS2PLACEMENT3D(#452,#453,#454);
#456=IFCDIRECTION((0.,0.,1.));
#457=IFCEXTRUDEDAREASOLID(#451,#455,#456,25.);
#458=IFCCARTESIANPOINT((0.,0.));
#459=IFCCARTESIANPOINT((0.,27.100000000000001));
#460=IFCCARTESIANPOINT((50.899999999999999,27.100000000000001));
#461=IFCCARTESIANPOINT((50.899999999999999,0.));
#462=IFCCARTESIANPOINT((-24.100000000000001,0.));
#463=IFCCARTESIANPOINT((-24.100000000000001,-47.899999999999999));
#464=IFCCARTESIANPOINT((75.,-47.899999999999999));
#465=IFCCARTESIANPOINT((75.,0.));
#466=IFCPOLYLINE((#458,#459,#460,#461,#462,#463,#464,#465,#458));
#467=IFCARBITRARYCLOSEDPROFILEDEF(.AREA.,$,#466);
#468=IFCCARTESIANPOINT((-25.,-5.,0.));
#469=IFCDIRECTION((0.,-1.,0.));
#470=IFCDIRECTION((1.,0.,0.));
#471=IFCAXIS2PLACEMENT3D(#468,#469,#470);
#472=IFCDIRECTION((0.,0.,-1.));
#473=IFCEXTRUDEDAREASOLID(#467,#471,#472,5.);
#474=IFCCARTESIANPOINT((0.,0.));
#475=IFCCARTESIANPOINT((0.,27.100000000000001));
#476=IFCCARTESIANPOINT((50.899999999999999,27.100000000000001));
#477=IFCCARTESIANPOINT((50.899999999999999,0.));
#478=IFCCARTESIANPOINT((0.89999999999999858,0.));
#479=IFCCARTESIANPOINT((0.89999999999999858,-22.899999999999999));
#480=IFCCARTESIANPOINT((50.,-22.899999999999999));
#481=IFCCARTESIANPOINT((50.,0.));
#482=IFCPOLYLINE((#474,#475,#476,#477,#478,#479,#480,#481,#474));
#483=IFCARBITRARYCLOSEDPROFILEDEF(.AREA.,$,#482);
#484=IFCCARTESIANPOINT((-25.,50.,0.));
#485=IFCDIRECTION((0.,-1.,0.));
#486=IFCDIRECTION((1.,0.,0.));
#487=IFCAXIS2PLACEMENT3D(#484,#485,#486);
#488=IFCDIRECTION((0.,0.,-1.));
#489=IFCEXTRUDEDAREASOLID(#483,#487,#488,5.);
#490=IFCCARTESIANPOINT((0.,0.));
#491=IFCCARTESIANPOINT((-49.100000000000001,0.));
#492=IFCCARTESIANPOINT((-49.100000000000001,35.));
#493=IFCCARTESIANPOINT((0.,35.));
#494=IFCPOLYLINE((#490,#491,#492,#493,#490));
#495=IFCARBITRARYCLOSEDPROFILEDEF(.AREA.,$,#494);
#496=IFCCARTESIANPOINT((25.,25.,25.));
#497=IFCDIRECTION((0.,0.,1.));
#498=IFCDIRECTION((1.,0.,0.));
#499=IFCAXIS2PLACEMENT3D(#496,#497,#498);
#500=IFCDIRECTION((0.,0.,1.));
#501=IFCEXTRUDEDAREASOLID(#495,#499,#500,-47.899999999999999);
#502=IFCCARTESIANPOINT((0.,0.));
#503=IFCCARTESIANPOINT((0.,-40.));
#504=IFCCARTESIANPOINT((-120.00000000000003,-40.));
#505=IFCCARTESIANPOINT((-120.00000000000003,-20.));
#506=IFCCARTESIANPOINT((-20.,-20.));
#507=IFCCARTESIANPOINT((-20.,0.));
#508=IFCPOLYLINE((#502,#503,#504,#505,#506,#507,#502));
#509=IFCARBITRARYCLOSEDPROFILEDEF(.AREA.,$,#508);
#510=IFCCARTESIANPOINT((-74.099999999999994,25.,1015.));
#511=IFCDIRECTION((0.,0.,1.));
#512=IFCDIRECTION((1.,0.,0.));
#513=IFCAXIS2PLACEMENT3D(#510,#511,#512);
#514=IFCDIRECTION((0.,0.,1.));
#515=IFCEXTRUDEDAREASOLID(#509,#513,#514,20.);
#516=IFCEXTRUDEDAREASOLID(#517,#525,#529,20.);
#517=IFCARBITRARYCLOSEDPROFILEDEF(.AREA.,$,#518);
#518=IFCPOLYLINE((#519,#520,#521,#522,#523,#524,#519));
#519=IFCCARTESIANPOINT((0.,0.));
#520=IFCCARTESIANPOINT((0.,40.));
#521=IFCCARTESIANPOINT((-120.00000000000003,40.));
#522=IFCCARTESIANPOINT((-120.00000000000003,20.));
#523=IFCCARTESIANPOINT((-20.,20.));
#524=IFCCARTESIANPOINT((-20.,0.));
#525=IFCAXIS2PLACEMENT3D(#526,#527,#528);
#526=IFCCARTESIANPOINT((-74.099999999999994,60.,1015.));
#527=IFCDIRECTION((0.,0.,1.));
#528=IFCDIRECTION((1.,0.,0.));
#529=IFCDIRECTION((0.,0.,1.));
#530=IFCSHAPEREPRESENTATION(#19,'Body','SweptSolid',(#429,#445,#501,#515,#516,#457,#473,#489));
#531=IFCPRODUCTDEFINITIONSHAPE($,$,(#530));
#537=IFCCARTESIANPOINT((1550.,-50.,0.));
#538=IFCDIRECTION((0.,0.,1.));
#539=IFCDIRECTION((1.,0.,0.));
#540=IFCAXIS2PLACEMENT3D(#537,#538,#539);
#541=IFCLOCALPLACEMENT(#36,#540);
#542=IFCOWNERHISTORY(#3,#7,.READWRITE.,.MODIFIED.,1779440584,#3,#7,1779440584);
#543=IFCDOOR('3tsPF8gSXFJv6j$LbeMHZm',#542,'Door 3',$,$,#671,#661,$,$,$);
#544=IFCCARTESIANPOINT((0.,0.));
#545=IFCCARTESIANPOINT((0.,2.1000000000000001));
#546=IFCCARTESIANPOINT((0.90000000000000002,2.1000000000000001));
#547=IFCCARTESIANPOINT((0.90000000000000002,0.));
#548=IFCCARTESIANPOINT((-24.100000000000001,0.));
#549=IFCCARTESIANPOINT((-24.100000000000001,-22.899999999999999));
#550=IFCCARTESIANPOINT((25.,-22.899999999999999));
#551=IFCCARTESIANPOINT((25.,0.));
#552=IFCPOLYLINE((#544,#545,#546,#547,#548,#549,#550,#551,#544));
#553=IFCARBITRARYCLOSEDPROFILEDEF(.AREA.,$,#552);
#554=IFCCARTESIANPOINT((0.,25.,0.));
#555=IFCDIRECTION((0.,-1.,0.));
#556=IFCDIRECTION((1.,0.,0.));
#557=IFCAXIS2PLACEMENT3D(#554,#555,#556);
#558=IFCDIRECTION((0.,0.,-1.));
#559=IFCEXTRUDEDAREASOLID(#553,#557,#558,25.);
#560=IFCCARTESIANPOINT((0.,0.));
#561=IFCCARTESIANPOINT((0.,2.1000000000000001));
#562=IFCCARTESIANPOINT((0.90000000000000002,2.1000000000000001));
#563=IFCCARTESIANPOINT((0.90000000000000002,0.));
#564=IFCCARTESIANPOINT((-49.100000000000001,0.));
#565=IFCCARTESIANPOINT((-49.100000000000001,-47.899999999999999));
#566=IFCCARTESIANPOINT((50.,-47.899999999999999));
#567=IFCCARTESIANPOINT((50.,0.));
#568=IFCPOLYLINE((#560,#561,#562,#563,#564,#565,#566,#567,#560));
#569=IFCARBITRARYCLOSEDPROFILEDEF(.AREA.,$,#568);
#570=IFCCARTESIANPOINT((0.,0.,0.));
#571=IFCDIRECTION((0.,-1.,0.));
#572=IFCDIRECTION((1.,0.,0.));
#573=IFCAXIS2PLACEMENT3D(#570,#571,#572);
#574=IFCDIRECTION((0.,0.,-1.));
#575=IFCEXTRUDEDAREASOLID(#569,#573,#574,25.);
#576=IFCCARTESIANPOINT((0.,0.));
#577=IFCCARTESIANPOINT((-99.099999999999994,0.));
#578=IFCCARTESIANPOINT((-99.099999999999994,100.));
#579=IFCCARTESIANPOINT((0.,100.));
#580=IFCPOLYLINE((#576,#577,#578,#579,#576));
#581=IFCARBITRARYCLOSEDPROFILEDEF(.AREA.,$,#580);
#582=IFCCARTESIANPOINT((50.,0.,0.));
#583=IFCDIRECTION((0.,0.,1.));
#584=IFCDIRECTION((1.,0.,0.));
#585=IFCAXIS2PLACEMENT3D(#582,#583,#584);
#586=IFCDIRECTION((0.,0.,1.));
#587=IFCEXTRUDEDAREASOLID(#581,#585,#586,25.);
#588=IFCCARTESIANPOINT((0.,0.));
#589=IFCCARTESIANPOINT((0.,27.100000000000001));
#590=IFCCARTESIANPOINT((50.899999999999999,27.100000000000001));
#591=IFCCARTESIANPOINT((50.899999999999999,0.));
#592=IFCCARTESIANPOINT((-24.100000000000001,0.));
#593=IFCCARTESIANPOINT((-24.100000000000001,-47.899999999999999));
#594=IFCCARTESIANPOINT((75.,-47.899999999999999));
#595=IFCCARTESIANPOINT((75.,0.));
#596=IFCPOLYLINE((#588,#589,#590,#591,#592,#593,#594,#595,#588));
#597=IFCARBITRARYCLOSEDPROFILEDEF(.AREA.,$,#596);
#598=IFCCARTESIANPOINT((-25.,-5.,0.));
#599=IFCDIRECTION((0.,-1.,0.));
#600=IFCDIRECTION((1.,0.,0.));
#601=IFCAXIS2PLACEMENT3D(#598,#599,#600);
#602=IFCDIRECTION((0.,0.,-1.));
#603=IFCEXTRUDEDAREASOLID(#597,#601,#602,5.);
#604=IFCCARTESIANPOINT((0.,0.));
#605=IFCCARTESIANPOINT((0.,27.100000000000001));
#606=IFCCARTESIANPOINT((50.899999999999999,27.100000000000001));
#607=IFCCARTESIANPOINT((50.899999999999999,0.));
#608=IFCCARTESIANPOINT((0.89999999999999858,0.));
#609=IFCCARTESIANPOINT((0.89999999999999858,-22.899999999999999));
#610=IFCCARTESIANPOINT((50.,-22.899999999999999));
#611=IFCCARTESIANPOINT((50.,0.));
#612=IFCPOLYLINE((#604,#605,#606,#607,#608,#609,#610,#611,#604));
#613=IFCARBITRARYCLOSEDPROFILEDEF(.AREA.,$,#612);
#614=IFCCARTESIANPOINT((-25.,50.,0.));
#615=IFCDIRECTION((0.,-1.,0.));
#616=IFCDIRECTION((1.,0.,0.));
#617=IFCAXIS2PLACEMENT3D(#614,#615,#616);
#618=IFCDIRECTION((0.,0.,-1.));
#619=IFCEXTRUDEDAREASOLID(#613,#617,#618,5.);
#620=IFCCARTESIANPOINT((0.,0.));
#621=IFCCARTESIANPOINT((-49.100000000000001,0.));
#622=IFCCARTESIANPOINT((-49.100000000000001,35.));
#623=IFCCARTESIANPOINT((0.,35.));
#624=IFCPOLYLINE((#620,#621,#622,#623,#620));
#625=IFCARBITRARYCLOSEDPROFILEDEF(.AREA.,$,#624);
#626=IFCCARTESIANPOINT((25.,25.,25.));
#627=IFCDIRECTION((0.,0.,1.));
#628=IFCDIRECTION((1.,0.,0.));
#629=IFCAXIS2PLACEMENT3D(#626,#627,#628);
#630=IFCDIRECTION((0.,0.,1.));
#631=IFCEXTRUDEDAREASOLID(#625,#629,#630,-47.899999999999999);
#632=IFCCARTESIANPOINT((0.,0.));
#633=IFCCARTESIANPOINT((0.,-40.));
#634=IFCCARTESIANPOINT((-120.00000000000003,-40.));
#635=IFCCARTESIANPOINT((-120.00000000000003,-20.));
#636=IFCCARTESIANPOINT((-20.,-20.));
#637=IFCCARTESIANPOINT((-20.,0.));
#638=IFCPOLYLINE((#632,#633,#634,#635,#636,#637,#632));
#639=IFCARBITRARYCLOSEDPROFILEDEF(.AREA.,$,#638);
#640=IFCCARTESIANPOINT((-74.099999999999994,25.,1015.));
#641=IFCDIRECTION((0.,0.,1.));
#642=IFCDIRECTION((1.,0.,0.));
#643=IFCAXIS2PLACEMENT3D(#640,#641,#642);
#644=IFCDIRECTION((0.,0.,1.));
#645=IFCEXTRUDEDAREASOLID(#639,#643,#644,20.);
#646=IFCEXTRUDEDAREASOLID(#647,#655,#659,20.);
#647=IFCARBITRARYCLOSEDPROFILEDEF(.AREA.,$,#648);
#648=IFCPOLYLINE((#649,#650,#651,#652,#653,#654,#649));
#649=IFCCARTESIANPOINT((0.,0.));
#650=IFCCARTESIANPOINT((0.,40.));
#651=IFCCARTESIANPOINT((-120.00000000000003,40.));
#652=IFCCARTESIANPOINT((-120.00000000000003,20.));
#653=IFCCARTESIANPOINT((-20.,20.));
#654=IFCCARTESIANPOINT((-20.,0.));
#655=IFCAXIS2PLACEMENT3D(#656,#657,#658);
#656=IFCCARTESIANPOINT((-74.099999999999994,60.,1015.));
#657=IFCDIRECTION((0.,0.,1.));
#658=IFCDIRECTION((1.,0.,0.));
#659=IFCDIRECTION((0.,0.,1.));
#660=IFCSHAPEREPRESENTATION(#19,'Body','SweptSolid',(#559,#575,#631,#645,#646,#587,#603,#619));
#661=IFCPRODUCTDEFINITIONSHAPE($,$,(#660));
#667=IFCCARTESIANPOINT((2300.,-50.,0.));
#668=IFCDIRECTION((0.,0.,1.));
#669=IFCDIRECTION((1.,0.,0.));
#670=IFCAXIS2PLACEMENT3D(#667,#668,#669);
#671=IFCLOCALPLACEMENT(#36,#670);
#672=IFCOWNERHISTORY(#3,#7,.READWRITE.,.MODIFIED.,1779440584,#3,#7,1779440584);
#673=IFCOPENINGELEMENT('1NpXeapen9BxyqHKXcMcjb',#672,'WD - 001',$,$,#708,#703,$);
#674=IFCCARTESIANPOINT((0.,0.,0.));
#675=IFCCARTESIANPOINT((900.,0.,0.));
#676=IFCCARTESIANPOINT((900.,202.,0.));
#677=IFCCARTESIANPOINT((0.,202.,0.));
#678=IFCCARTESIANPOINT((0.,0.,1500.));
#679=IFCCARTESIANPOINT((900.,0.,1500.));
#680=IFCCARTESIANPOINT((900.,202.,1500.));
#681=IFCCARTESIANPOINT((0.,202.,1500.));
#682=IFCPOLYLOOP((#674,#675,#676,#677));
#683=IFCFACEOUTERBOUND(#682,.T.);
#684=IFCFACE((#683));
#685=IFCPOLYLOOP((#678,#681,#680,#679));
#686=IFCFACEOUTERBOUND(#685,.T.);
#687=IFCFACE((#686));
#688=IFCPOLYLOOP((#674,#678,#679,#675));
#689=IFCFACEOUTERBOUND(#688,.T.);
#690=IFCFACE((#689));
#691=IFCPOLYLOOP((#675,#679,#680,#676));
#692=IFCFACEOUTERBOUND(#691,.T.);
#693=IFCFACE((#692));
#694=IFCPOLYLOOP((#676,#680,#681,#677));
#695=IFCFACEOUTERBOUND(#694,.T.);
#696=IFCFACE((#695));
#697=IFCPOLYLOOP((#677,#681,#678,#674));
#698=IFCFACEOUTERBOUND(#697,.T.);
#699=IFCFACE((#698));
#700=IFCCLOSEDSHELL((#684,#687,#690,#693,#696,#699));
#701=IFCFACETEDBREP(#700);
#702=IFCSHAPEREPRESENTATION(#19,'Body','Brep',(#701));
#703=IFCPRODUCTDEFINITIONSHAPE($,$,(#702));
#704=IFCCARTESIANPOINT((3500.,-1.,1000.));
#705=IFCDIRECTION((0.,0.,1.));
#706=IFCDIRECTION((1.,0.,0.));
#707=IFCAXIS2PLACEMENT3D(#704,#705,#706);
#708=IFCLOCALPLACEMENT($,#707);
#709=IFCOWNERHISTORY(#3,#7,.READWRITE.,.ADDED.,1779440584,#3,#7,1779440584);
#710=IFCRELVOIDSELEMENT('03m7PC1a53peszA3dcRD6i',#709,$,$,#38,#673);
#711=IFCOWNERHISTORY(#3,#7,.READWRITE.,.MODIFIED.,1779440584,#3,#7,1779440584);
#712=IFCWINDOW('3r6pWbTlrDDBqxq4no3jrO',#711,'WD - 001',$,'WINDOW',#866,#854,$,1500.,900.);
#713=IFCCARTESIANPOINT((0.,0.,0.));
#714=IFCCARTESIANPOINT((60.,0.,0.));
#715=IFCCARTESIANPOINT((60.,75.,0.));
#716=IFCCARTESIANPOINT((0.,75.,0.));
#717=IFCCARTESIANPOINT((0.,0.,1500.));
#718=IFCCARTESIANPOINT((60.,0.,1500.));
#719=IFCCARTESIANPOINT((60.,75.,1500.));
#720=IFCCARTESIANPOINT((0.,75.,1500.));
#721=IFCPOLYLOOP((#713,#714,#715,#716));
#722=IFCFACEOUTERBOUND(#721,.T.);
#723=IFCFACE((#722));
#724=IFCPOLYLOOP((#717,#720,#719,#718));
#725=IFCFACEOUTERBOUND(#724,.T.);
#726=IFCFACE((#725));
#727=IFCPOLYLOOP((#713,#717,#718,#714));
#728=IFCFACEOUTERBOUND(#727,.T.);
#729=IFCFACE((#728));
#730=IFCPOLYLOOP((#714,#718,#719,#715));
#731=IFCFACEOUTERBOUND(#730,.T.);
#732=IFCFACE((#731));
#733=IFCPOLYLOOP((#715,#719,#720,#716));
#734=IFCFACEOUTERBOUND(#733,.T.);
#735=IFCFACE((#734));
#736=IFCPOLYLOOP((#716,#720,#717,#713));
#737=IFCFACEOUTERBOUND(#736,.T.);
#738=IFCFACE((#737));
#739=IFCCLOSEDSHELL((#723,#726,#729,#732,#735,#738));
#740=IFCFACETEDBREP(#739);
#741=IFCCARTESIANPOINT((840.,0.,0.));
#742=IFCCARTESIANPOINT((900.,0.,0.));
#743=IFCCARTESIANPOINT((900.,75.,0.));
#744=IFCCARTESIANPOINT((840.,75.,0.));
#745=IFCCARTESIANPOINT((840.,0.,1500.));
#746=IFCCARTESIANPOINT((900.,0.,1500.));
#747=IFCCARTESIANPOINT((900.,75.,1500.));
#748=IFCCARTESIANPOINT((840.,75.,1500.));
#749=IFCPOLYLOOP((#741,#742,#743,#744));
#750=IFCFACEOUTERBOUND(#749,.T.);
#751=IFCFACE((#750));
#752=IFCPOLYLOOP((#745,#748,#747,#746));
#753=IFCFACEOUTERBOUND(#752,.T.);
#754=IFCFACE((#753));
#755=IFCPOLYLOOP((#741,#745,#746,#742));
#756=IFCFACEOUTERBOUND(#755,.T.);
#757=IFCFACE((#756));
#758=IFCPOLYLOOP((#742,#746,#747,#743));
#759=IFCFACEOUTERBOUND(#758,.T.);
#760=IFCFACE((#759));
#761=IFCPOLYLOOP((#743,#747,#748,#744));
#762=IFCFACEOUTERBOUND(#761,.T.);
#763=IFCFACE((#762));
#764=IFCPOLYLOOP((#744,#748,#745,#741));
#765=IFCFACEOUTERBOUND(#764,.T.);
#766=IFCFACE((#765));
#767=IFCCLOSEDSHELL((#751,#754,#757,#760,#763,#766));
#768=IFCFACETEDBREP(#767);
#769=IFCCARTESIANPOINT((0.,0.,1440.));
#770=IFCCARTESIANPOINT((900.,0.,1440.));
#771=IFCCARTESIANPOINT((900.,75.,1440.));
#772=IFCCARTESIANPOINT((0.,75.,1440.));
#773=IFCCARTESIANPOINT((0.,0.,1500.));
#774=IFCCARTESIANPOINT((900.,0.,1500.));
#775=IFCCARTESIANPOINT((900.,75.,1500.));
#776=IFCCARTESIANPOINT((0.,75.,1500.));
#777=IFCPOLYLOOP((#769,#770,#771,#772));
#778=IFCFACEOUTERBOUND(#777,.T.);
#779=IFCFACE((#778));
#780=IFCPOLYLOOP((#773,#776,#775,#774));
#781=IFCFACEOUTERBOUND(#780,.T.);
#782=IFCFACE((#781));
#783=IFCPOLYLOOP((#769,#773,#774,#770));
#784=IFCFACEOUTERBOUND(#783,.T.);
#785=IFCFACE((#784));
#786=IFCPOLYLOOP((#770,#774,#775,#771));
#787=IFCFACEOUTERBOUND(#786,.T.);
#788=IFCFACE((#787));
#789=IFCPOLYLOOP((#771,#775,#776,#772));
#790=IFCFACEOUTERBOUND(#789,.T.);
#791=IFCFACE((#790));
#792=IFCPOLYLOOP((#772,#776,#773,#769));
#793=IFCFACEOUTERBOUND(#792,.T.);
#794=IFCFACE((#793));
#795=IFCCLOSEDSHELL((#779,#782,#785,#788,#791,#794));
#796=IFCFACETEDBREP(#795);
#797=IFCCARTESIANPOINT((0.,0.,0.));
#798=IFCCARTESIANPOINT((900.,0.,0.));
#799=IFCCARTESIANPOINT((900.,75.,0.));
#800=IFCCARTESIANPOINT((0.,75.,0.));
#801=IFCCARTESIANPOINT((0.,0.,60.));
#802=IFCCARTESIANPOINT((900.,0.,60.));
#803=IFCCARTESIANPOINT((900.,75.,60.));
#804=IFCCARTESIANPOINT((0.,75.,60.));
#805=IFCPOLYLOOP((#797,#798,#799,#800));
#806=IFCFACEOUTERBOUND(#805,.T.);
#807=IFCFACE((#806));
#808=IFCPOLYLOOP((#801,#804,#803,#802));
#809=IFCFACEOUTERBOUND(#808,.T.);
#810=IFCFACE((#809));
#811=IFCPOLYLOOP((#797,#801,#802,#798));
#812=IFCFACEOUTERBOUND(#811,.T.);
#813=IFCFACE((#812));
#814=IFCPOLYLOOP((#798,#802,#803,#799));
#815=IFCFACEOUTERBOUND(#814,.T.);
#816=IFCFACE((#815));
#817=IFCPOLYLOOP((#799,#803,#804,#800));
#818=IFCFACEOUTERBOUND(#817,.T.);
#819=IFCFACE((#818));
#820=IFCPOLYLOOP((#800,#804,#801,#797));
#821=IFCFACEOUTERBOUND(#820,.T.);
#822=IFCFACE((#821));
#823=IFCCLOSEDSHELL((#807,#810,#813,#816,#819,#822));
#824=IFCFACETEDBREP(#823);
#825=IFCCARTESIANPOINT((60.,27.5,60.));
#826=IFCCARTESIANPOINT((840.,27.5,60.));
#827=IFCCARTESIANPOINT((840.,47.5,60.));
#828=IFCCARTESIANPOINT((60.,47.5,60.));
#829=IFCCARTESIANPOINT((60.,27.5,1440.));
#830=IFCCARTESIANPOINT((840.,27.5,1440.));
#831=IFCCARTESIANPOINT((840.,47.5,1440.));
#832=IFCCARTESIANPOINT((60.,47.5,1440.));
#833=IFCPOLYLOOP((#825,#826,#827,#828));
#834=IFCFACEOUTERBOUND(#833,.T.);
#835=IFCFACE((#834));
#836=IFCPOLYLOOP((#829,#832,#831,#830));
#837=IFCFACEOUTERBOUND(#836,.T.);
#838=IFCFACE((#837));
#839=IFCPOLYLOOP((#825,#829,#830,#826));
#840=IFCFACEOUTERBOUND(#839,.T.);
#841=IFCFACE((#840));
#842=IFCPOLYLOOP((#826,#830,#831,#827));
#843=IFCFACEOUTERBOUND(#842,.T.);
#844=IFCFACE((#843));
#845=IFCPOLYLOOP((#827,#831,#832,#828));
#846=IFCFACEOUTERBOUND(#845,.T.);
#847=IFCFACE((#846));
#848=IFCPOLYLOOP((#828,#832,#829,#825));
#849=IFCFACEOUTERBOUND(#848,.T.);
#850=IFCFACE((#849));
#851=IFCCLOSEDSHELL((#835,#838,#841,#844,#847,#850));
#852=IFCFACETEDBREP(#851);
#853=IFCSHAPEREPRESENTATION(#19,'Body','SurfaceModel',(#740,#768,#796,#824,#852));
#854=IFCPRODUCTDEFINITIONSHAPE($,$,(#853));
#860=IFCOWNERHISTORY(#3,#7,.READWRITE.,.ADDED.,1779440584,#3,#7,1779440584);
#861=IFCRELFILLSELEMENT('05H_Hb06HAdA8B618StWB2',#860,$,$,#673,#712);
#862=IFCCARTESIANPOINT((0.,1.,0.));
#863=IFCDIRECTION((0.,0.,1.));
#864=IFCDIRECTION((1.,0.,0.));
#865=IFCAXIS2PLACEMENT3D(#862,#863,#864);
#866=IFCLOCALPLACEMENT(#708,#865);
#867=IFCOWNERHISTORY(#3,#7,.READWRITE.,.ADDED.,1779440584,#3,#7,1779440584);
#868=IFCWINDOWSTYLE('3RUFoip1L6pRSH2$rpUXnx',#867,'Window Style 1',$,$,$,$,$,.NOTDEFINED.,.NOTDEFINED.,.F.,.F.);
#869=IFCOWNERHISTORY(#3,#7,.READWRITE.,.ADDED.,1779440584,#3,#7,1779440584);
#870=IFCRELDEFINESBYTYPE('0jmQT2sdv2o8hXe5GYkigB',#869,$,$,(#712),#868);
#871=IFCOWNERHISTORY(#3,#7,.READWRITE.,.MODIFIED.,1779440584,#3,#7,1779440584);
#872=IFCOPENINGELEMENT('2Xa8$uvyD3IObzeHOJRY7z',#871,'WD - 002',$,$,#907,#902,$);
#873=IFCCARTESIANPOINT((0.,0.,0.));
#874=IFCCARTESIANPOINT((900.,0.,0.));
#875=IFCCARTESIANPOINT((900.,202.,0.));
#876=IFCCARTESIANPOINT((0.,202.,0.));
#877=IFCCARTESIANPOINT((0.,0.,1500.));
#878=IFCCARTESIANPOINT((900.,0.,1500.));
#879=IFCCARTESIANPOINT((900.,202.,1500.));
#880=IFCCARTESIANPOINT((0.,202.,1500.));
#881=IFCPOLYLOOP((#873,#874,#875,#876));
#882=IFCFACEOUTERBOUND(#881,.T.);
#883=IFCFACE((#882));
#884=IFCPOLYLOOP((#877,#880,#879,#878));
#885=IFCFACEOUTERBOUND(#884,.T.);
#886=IFCFACE((#885));
#887=IFCPOLYLOOP((#873,#877,#878,#874));
#888=IFCFACEOUTERBOUND(#887,.T.);
#889=IFCFACE((#888));
#890=IFCPOLYLOOP((#874,#878,#879,#875));
#891=IFCFACEOUTERBOUND(#890,.T.);
#892=IFCFACE((#891));
#893=IFCPOLYLOOP((#875,#879,#880,#876));
#894=IFCFACEOUTERBOUND(#893,.T.);
#895=IFCFACE((#894));
#896=IFCPOLYLOOP((#876,#880,#877,#873));
#897=IFCFACEOUTERBOUND(#896,.T.);
#898=IFCFACE((#897));
#899=IFCCLOSEDSHELL((#883,#886,#889,#892,#895,#898));
#900=IFCFACETEDBREP(#899);
#901=IFCSHAPEREPRESENTATION(#19,'Body','Brep',(#900));
#902=IFCPRODUCTDEFINITIONSHAPE($,$,(#901));
#903=IFCCARTESIANPOINT((7000.,-1.,1000.));
#904=IFCDIRECTION((0.,0.,1.));
#905=IFCDIRECTION((1.,0.,0.));
#906=IFCAXIS2PLACEMENT3D(#903,#904,#905);
#907=IFCLOCALPLACEMENT($,#906);
#908=IFCOWNERHISTORY(#3,#7,.READWRITE.,.ADDED.,1779440584,#3,#7,1779440584);
#909=IFCRELVOIDSELEMENT('0sCl$$Srr2zwFjZJF1Odf2',#908,$,$,#38,#872);
#910=IFCOWNERHISTORY(#3,#7,.READWRITE.,.MODIFIED.,1779440584,#3,#7,1779440584);
#911=IFCWINDOW('20h73tXVP2uOV$jOR53akS',#910,'WD - 002',$,'WINDOW',#1065,#1053,$,1500.,900.);
#912=IFCCARTESIANPOINT((0.,0.,0.));
#913=IFCCARTESIANPOINT((60.,0.,0.));
#914=IFCCARTESIANPOINT((60.,75.,0.));
#915=IFCCARTESIANPOINT((0.,75.,0.));
#916=IFCCARTESIANPOINT((0.,0.,1500.));
#917=IFCCARTESIANPOINT((60.,0.,1500.));
#918=IFCCARTESIANPOINT((60.,75.,1500.));
#919=IFCCARTESIANPOINT((0.,75.,1500.));
#920=IFCPOLYLOOP((#912,#913,#914,#915));
#921=IFCFACEOUTERBOUND(#920,.T.);
#922=IFCFACE((#921));
#923=IFCPOLYLOOP((#916,#919,#918,#917));
#924=IFCFACEOUTERBOUND(#923,.T.);
#925=IFCFACE((#924));
#926=IFCPOLYLOOP((#912,#916,#917,#913));
#927=IFCFACEOUTERBOUND(#926,.T.);
#928=IFCFACE((#927));
#929=IFCPOLYLOOP((#913,#917,#918,#914));
#930=IFCFACEOUTERBOUND(#929,.T.);
#931=IFCFACE((#930));
#932=IFCPOLYLOOP((#914,#918,#919,#915));
#933=IFCFACEOUTERBOUND(#932,.T.);
#934=IFCFACE((#933));
#935=IFCPOLYLOOP((#915,#919,#916,#912));
#936=IFCFACEOUTERBOUND(#935,.T.);
#937=IFCFACE((#936));
#938=IFCCLOSEDSHELL((#922,#925,#928,#931,#934,#937));
#939=IFCFACETEDBREP(#938);
#940=IFCCARTESIANPOINT((840.,0.,0.));
#941=IFCCARTESIANPOINT((900.,0.,0.));
#942=IFCCARTESIANPOINT((900.,75.,0.));
#943=IFCCARTESIANPOINT((840.,75.,0.));
#944=IFCCARTESIANPOINT((840.,0.,1500.));
#945=IFCCARTESIANPOINT((900.,0.,1500.));
#946=IFCCARTESIANPOINT((900.,75.,1500.));
#947=IFCCARTESIANPOINT((840.,75.,1500.));
#948=IFCPOLYLOOP((#940,#941,#942,#943));
#949=IFCFACEOUTERBOUND(#948,.T.);
#950=IFCFACE((#949));
#951=IFCPOLYLOOP((#944,#947,#946,#945));
#952=IFCFACEOUTERBOUND(#951,.T.);
#953=IFCFACE((#952));
#954=IFCPOLYLOOP((#940,#944,#945,#941));
#955=IFCFACEOUTERBOUND(#954,.T.);
#956=IFCFACE((#955));
#957=IFCPOLYLOOP((#941,#945,#946,#942));
#958=IFCFACEOUTERBOUND(#957,.T.);
#959=IFCFACE((#958));
#960=IFCPOLYLOOP((#942,#946,#947,#943));
#961=IFCFACEOUTERBOUND(#960,.T.);
#962=IFCFACE((#961));
#963=IFCPOLYLOOP((#943,#947,#944,#940));
#964=IFCFACEOUTERBOUND(#963,.T.);
#965=IFCFACE((#964));
#966=IFCCLOSEDSHELL((#950,#953,#956,#959,#962,#965));
#967=IFCFACETEDBREP(#966);
#968=IFCCARTESIANPOINT((0.,0.,1440.));
#969=IFCCARTESIANPOINT((900.,0.,1440.));
#970=IFCCARTESIANPOINT((900.,75.,1440.));
#971=IFCCARTESIANPOINT((0.,75.,1440.));
#972=IFCCARTESIANPOINT((0.,0.,1500.));
#973=IFCCARTESIANPOINT((900.,0.,1500.));
#974=IFCCARTESIANPOINT((900.,75.,1500.));
#975=IFCCARTESIANPOINT((0.,75.,1500.));
#976=IFCPOLYLOOP((#968,#969,#970,#971));
#977=IFCFACEOUTERBOUND(#976,.T.);
#978=IFCFACE((#977));
#979=IFCPOLYLOOP((#972,#975,#974,#973));
#980=IFCFACEOUTERBOUND(#979,.T.);
#981=IFCFACE((#980));
#982=IFCPOLYLOOP((#968,#972,#973,#969));
#983=IFCFACEOUTERBOUND(#982,.T.);
#984=IFCFACE((#983));
#985=IFCPOLYLOOP((#969,#973,#974,#970));
#986=IFCFACEOUTERBOUND(#985,.T.);
#987=IFCFACE((#986));
#988=IFCPOLYLOOP((#970,#974,#975,#971));
#989=IFCFACEOUTERBOUND(#988,.T.);
#990=IFCFACE((#989));
#991=IFCPOLYLOOP((#971,#975,#972,#968));
#992=IFCFACEOUTERBOUND(#991,.T.);
#993=IFCFACE((#992));
#994=IFCCLOSEDSHELL((#978,#981,#984,#987,#990,#993));
#995=IFCFACETEDBREP(#994);
#996=IFCCARTESIANPOINT((0.,0.,0.));
#997=IFCCARTESIANPOINT((900.,0.,0.));
#998=IFCCARTESIANPOINT((900.,75.,0.));
#999=IFCCARTESIANPOINT((0.,75.,0.));
#1000=IFCCARTESIANPOINT((0.,0.,60.));
#1001=IFCCARTESIANPOINT((900.,0.,60.));
#1002=IFCCARTESIANPOINT((900.,75.,60.));
#1003=IFCCARTESIANPOINT((0.,75.,60.));
#1004=IFCPOLYLOOP((#996,#997,#998,#999));
#1005=IFCFACEOUTERBOUND(#1004,.T.);
#1006=IFCFACE((#1005));
#1007=IFCPOLYLOOP((#1000,#1003,#1002,#1001));
#1008=IFCFACEOUTERBOUND(#1007,.T.);
#1009=IFCFACE((#1008));
#1010=IFCPOLYLOOP((#996,#1000,#1001,#997));
#1011=IFCFACEOUTERBOUND(#1010,.T.);
#1012=IFCFACE((#1011));
#1013=IFCPOLYLOOP((#997,#1001,#1002,#998));
#1014=IFCFACEOUTERBOUND(#1013,.T.);
#1015=IFCFACE((#1014));
#1016=IFCPOLYLOOP((#998,#1002,#1003,#999));
#1017=IFCFACEOUTERBOUND(#1016,.T.);
#1018=IFCFACE((#1017));
#1019=IFCPOLYLOOP((#999,#1003,#1000,#996));
#1020=IFCFACEOUTERBOUND(#1019,.T.);
#1021=IFCFACE((#1020));
#1022=IFCCLOSEDSHELL((#1006,#1009,#1012,#1015,#1018,#1021));
#1023=IFCFACETEDBREP(#1022);
#1024=IFCCARTESIANPOINT((60.,27.5,60.));
#1025=IFCCARTESIANPOINT((840.,27.5,60.));
#1026=IFCCARTESIANPOINT((840.,47.5,60.));
#1027=IFCCARTESIANPOINT((60.,47.5,60.));
#1028=IFCCARTESIANPOINT((60.,27.5,1440.));
#1029=IFCCARTESIANPOINT((840.,27.5,1440.));
#1030=IFCCARTESIANPOINT((840.,47.5,1440.));
#1031=IFCCARTESIANPOINT((60.,47.5,1440.));
#1032=IFCPOLYLOOP((#1024,#1025,#1026,#1027));
#1033=IFCFACEOUTERBOUND(#1032,.T.);
#1034=IFCFACE((#1033));
#1035=IFCPOLYLOOP((#1028,#1031,#1030,#1029));
#1036=IFCFACEOUTERBOUND(#1035,.T.);
#1037=IFCFACE((#1036));
#1038=IFCPOLYLOOP((#1024,#1028,#1029,#1025));
#1039=IFCFACEOUTERBOUND(#1038,.T.);
#1040=IFCFACE((#1039));
#1041=IFCPOLYLOOP((#1025,#1029,#1030,#1026));
#1042=IFCFACEOUTERBOUND(#1041,.T.);
#1043=IFCFACE((#1042));
#1044=IFCPOLYLOOP((#1026,#1030,#1031,#1027));
#1045=IFCFACEOUTERBOUND(#1044,.T.);
#1046=IFCFACE((#1045));
#1047=IFCPOLYLOOP((#1027,#1031,#1028,#1024));
#1048=IFCFACEOUTERBOUND(#1047,.T.);
#1049=IFCFACE((#1048));
#1050=IFCCLOSEDSHELL((#1034,#1037,#1040,#1043,#1046,#1049));
#1051=IFCFACETEDBREP(#1050);
#1052=IFCSHAPEREPRESENTATION(#19,'Body','SurfaceModel',(#939,#967,#995,#1023,#1051));
#1053=IFCPRODUCTDEFINITIONSHAPE($,$,(#1052));
#1059=IFCOWNERHISTORY(#3,#7,.READWRITE.,.ADDED.,1779440584,#3,#7,1779440584);
#1060=IFCRELFILLSELEMENT('07FS$BVDLEEeluv2MqXe2P',#1059,$,$,#872,#911);
#1061=IFCCARTESIANPOINT((0.,1.,0.));
#1062=IFCDIRECTION((0.,0.,1.));
#1063=IFCDIRECTION((1.,0.,0.));
#1064=IFCAXIS2PLACEMENT3D(#1061,#1062,#1063);
#1065=IFCLOCALPLACEMENT(#907,#1064);
#1066=IFCOWNERHISTORY(#3,#7,.READWRITE.,.ADDED.,1779440584,#3,#7,1779440584);
#1067=IFCWINDOWSTYLE('08Jh_Ugyf9fvcy6R3e03yi',#1066,'Window Style 2',$,$,$,$,$,.NOTDEFINED.,.NOTDEFINED.,.F.,.F.);
#1068=IFCOWNERHISTORY(#3,#7,.READWRITE.,.ADDED.,1779440584,#3,#7,1779440584);
#1069=IFCRELDEFINESBYTYPE('3hojT1uaD7C9PNHFqp8iIA',#1068,$,$,(#911),#1067);
#1070=IFCOWNERHISTORY(#3,#7,.READWRITE.,.MODIFIED.,1779440584,#3,#7,1779440584);
#1071=IFCOPENINGELEMENT('0CfnJPH2jC8uD2QVkv5$Ul',#1070,'WD - 003',$,$,#1106,#1101,$);
#1072=IFCCARTESIANPOINT((0.,0.,0.));
#1073=IFCCARTESIANPOINT((900.,0.,0.));
#1074=IFCCARTESIANPOINT((900.,202.,0.));
#1075=IFCCARTESIANPOINT((0.,202.,0.));
#1076=IFCCARTESIANPOINT((0.,0.,1500.));
#1077=IFCCARTESIANPOINT((900.,0.,1500.));
#1078=IFCCARTESIANPOINT((900.,202.,1500.));
#1079=IFCCARTESIANPOINT((0.,202.,1500.));
#1080=IFCPOLYLOOP((#1072,#1073,#1074,#1075));
#1081=IFCFACEOUTERBOUND(#1080,.T.);
#1082=IFCFACE((#1081));
#1083=IFCPOLYLOOP((#1076,#1079,#1078,#1077));
#1084=IFCFACEOUTERBOUND(#1083,.T.);
#1085=IFCFACE((#1084));
#1086=IFCPOLYLOOP((#1072,#1076,#1077,#1073));
#1087=IFCFACEOUTERBOUND(#1086,.T.);
#1088=IFCFACE((#1087));
#1089=IFCPOLYLOOP((#1073,#1077,#1078,#1074));
#1090=IFCFACEOUTERBOUND(#1089,.T.);
#1091=IFCFACE((#1090));
#1092=IFCPOLYLOOP((#1074,#1078,#1079,#1075));
#1093=IFCFACEOUTERBOUND(#1092,.T.);
#1094=IFCFACE((#1093));
#1095=IFCPOLYLOOP((#1075,#1079,#1076,#1072));
#1096=IFCFACEOUTERBOUND(#1095,.T.);
#1097=IFCFACE((#1096));
#1098=IFCCLOSEDSHELL((#1082,#1085,#1088,#1091,#1094,#1097));
#1099=IFCFACETEDBREP(#1098);
#1100=IFCSHAPEREPRESENTATION(#19,'Body','Brep',(#1099));
#1101=IFCPRODUCTDEFINITIONSHAPE($,$,(#1100));
#1102=IFCCARTESIANPOINT((10500.,-1.,1000.));
#1103=IFCDIRECTION((0.,0.,1.));
#1104=IFCDIRECTION((1.,0.,0.));
#1105=IFCAXIS2PLACEMENT3D(#1102,#1103,#1104);
#1106=IFCLOCALPLACEMENT($,#1105);
#1107=IFCOWNERHISTORY(#3,#7,.READWRITE.,.ADDED.,1779440584,#3,#7,1779440584);
#1108=IFCRELVOIDSELEMENT('2i1Krx9D5EefLRo9ZlQHER',#1107,$,$,#38,#1071);
#1109=IFCOWNERHISTORY(#3,#7,.READWRITE.,.MODIFIED.,1779440584,#3,#7,1779440584);
#1110=IFCWINDOW('3AxcXp7tb5kv00$BXMyybn',#1109,'WD - 003',$,'WINDOW',#1264,#1252,$,1500.,900.);
#1111=IFCCARTESIANPOINT((0.,0.,0.));
#1112=IFCCARTESIANPOINT((60.,0.,0.));
#1113=IFCCARTESIANPOINT((60.,75.,0.));
#1114=IFCCARTESIANPOINT((0.,75.,0.));
#1115=IFCCARTESIANPOINT((0.,0.,1500.));
#1116=IFCCARTESIANPOINT((60.,0.,1500.));
#1117=IFCCARTESIANPOINT((60.,75.,1500.));
#1118=IFCCARTESIANPOINT((0.,75.,1500.));
#1119=IFCPOLYLOOP((#1111,#1112,#1113,#1114));
#1120=IFCFACEOUTERBOUND(#1119,.T.);
#1121=IFCFACE((#1120));
#1122=IFCPOLYLOOP((#1115,#1118,#1117,#1116));
#1123=IFCFACEOUTERBOUND(#1122,.T.);
#1124=IFCFACE((#1123));
#1125=IFCPOLYLOOP((#1111,#1115,#1116,#1112));
#1126=IFCFACEOUTERBOUND(#1125,.T.);
#1127=IFCFACE((#1126));
#1128=IFCPOLYLOOP((#1112,#1116,#1117,#1113));
#1129=IFCFACEOUTERBOUND(#1128,.T.);
#1130=IFCFACE((#1129));
#1131=IFCPOLYLOOP((#1113,#1117,#1118,#1114));
#1132=IFCFACEOUTERBOUND(#1131,.T.);
#1133=IFCFACE((#1132));
#1134=IFCPOLYLOOP((#1114,#1118,#1115,#1111));
#1135=IFCFACEOUTERBOUND(#1134,.T.);
#1136=IFCFACE((#1135));
#1137=IFCCLOSEDSHELL((#1121,#1124,#1127,#1130,#1133,#1136));
#1138=IFCFACETEDBREP(#1137);
#1139=IFCCARTESIANPOINT((840.,0.,0.));
#1140=IFCCARTESIANPOINT((900.,0.,0.));
#1141=IFCCARTESIANPOINT((900.,75.,0.));
#1142=IFCCARTESIANPOINT((840.,75.,0.));
#1143=IFCCARTESIANPOINT((840.,0.,1500.));
#1144=IFCCARTESIANPOINT((900.,0.,1500.));
#1145=IFCCARTESIANPOINT((900.,75.,1500.));
#1146=IFCCARTESIANPOINT((840.,75.,1500.));
#1147=IFCPOLYLOOP((#1139,#1140,#1141,#1142));
#1148=IFCFACEOUTERBOUND(#1147,.T.);
#1149=IFCFACE((#1148));
#1150=IFCPOLYLOOP((#1143,#1146,#1145,#1144));
#1151=IFCFACEOUTERBOUND(#1150,.T.);
#1152=IFCFACE((#1151));
#1153=IFCPOLYLOOP((#1139,#1143,#1144,#1140));
#1154=IFCFACEOUTERBOUND(#1153,.T.);
#1155=IFCFACE((#1154));
#1156=IFCPOLYLOOP((#1140,#1144,#1145,#1141));
#1157=IFCFACEOUTERBOUND(#1156,.T.);
#1158=IFCFACE((#1157));
#1159=IFCPOLYLOOP((#1141,#1145,#1146,#1142));
#1160=IFCFACEOUTERBOUND(#1159,.T.);
#1161=IFCFACE((#1160));
#1162=IFCPOLYLOOP((#1142,#1146,#1143,#1139));
#1163=IFCFACEOUTERBOUND(#1162,.T.);
#1164=IFCFACE((#1163));
#1165=IFCCLOSEDSHELL((#1149,#1152,#1155,#1158,#1161,#1164));
#1166=IFCFACETEDBREP(#1165);
#1167=IFCCARTESIANPOINT((0.,0.,1440.));
#1168=IFCCARTESIANPOINT((900.,0.,1440.));
#1169=IFCCARTESIANPOINT((900.,75.,1440.));
#1170=IFCCARTESIANPOINT((0.,75.,1440.));
#1171=IFCCARTESIANPOINT((0.,0.,1500.));
#1172=IFCCARTESIANPOINT((900.,0.,1500.));
#1173=IFCCARTESIANPOINT((900.,75.,1500.));
#1174=IFCCARTESIANPOINT((0.,75.,1500.));
#1175=IFCPOLYLOOP((#1167,#1168,#1169,#1170));
#1176=IFCFACEOUTERBOUND(#1175,.T.);
#1177=IFCFACE((#1176));
#1178=IFCPOLYLOOP((#1171,#1174,#1173,#1172));
#1179=IFCFACEOUTERBOUND(#1178,.T.);
#1180=IFCFACE((#1179));
#1181=IFCPOLYLOOP((#1167,#1171,#1172,#1168));
#1182=IFCFACEOUTERBOUND(#1181,.T.);
#1183=IFCFACE((#1182));
#1184=IFCPOLYLOOP((#1168,#1172,#1173,#1169));
#1185=IFCFACEOUTERBOUND(#1184,.T.);
#1186=IFCFACE((#1185));
#1187=IFCPOLYLOOP((#1169,#1173,#1174,#1170));
#1188=IFCFACEOUTERBOUND(#1187,.T.);
#1189=IFCFACE((#1188));
#1190=IFCPOLYLOOP((#1170,#1174,#1171,#1167));
#1191=IFCFACEOUTERBOUND(#1190,.T.);
#1192=IFCFACE((#1191));
#1193=IFCCLOSEDSHELL((#1177,#1180,#1183,#1186,#1189,#1192));
#1194=IFCFACETEDBREP(#1193);
#1195=IFCCARTESIANPOINT((0.,0.,0.));
#1196=IFCCARTESIANPOINT((900.,0.,0.));
#1197=IFCCARTESIANPOINT((900.,75.,0.));
#1198=IFCCARTESIANPOINT((0.,75.,0.));
#1199=IFCCARTESIANPOINT((0.,0.,60.));
#1200=IFCCARTESIANPOINT((900.,0.,60.));
#1201=IFCCARTESIANPOINT((900.,75.,60.));
#1202=IFCCARTESIANPOINT((0.,75.,60.));
#1203=IFCPOLYLOOP((#1195,#1196,#1197,#1198));
#1204=IFCFACEOUTERBOUND(#1203,.T.);
#1205=IFCFACE((#1204));
#1206=IFCPOLYLOOP((#1199,#1202,#1201,#1200));
#1207=IFCFACEOUTERBOUND(#1206,.T.);
#1208=IFCFACE((#1207));
#1209=IFCPOLYLOOP((#1195,#1199,#1200,#1196));
#1210=IFCFACEOUTERBOUND(#1209,.T.);
#1211=IFCFACE((#1210));
#1212=IFCPOLYLOOP((#1196,#1200,#1201,#1197));
#1213=IFCFACEOUTERBOUND(#1212,.T.);
#1214=IFCFACE((#1213));
#1215=IFCPOLYLOOP((#1197,#1201,#1202,#1198));
#1216=IFCFACEOUTERBOUND(#1215,.T.);
#1217=IFCFACE((#1216));
#1218=IFCPOLYLOOP((#1198,#1202,#1199,#1195));
#1219=IFCFACEOUTERBOUND(#1218,.T.);
#1220=IFCFACE((#1219));
#1221=IFCCLOSEDSHELL((#1205,#1208,#1211,#1214,#1217,#1220));
#1222=IFCFACETEDBREP(#1221);
#1223=IFCCARTESIANPOINT((60.,27.5,60.));
#1224=IFCCARTESIANPOINT((840.,27.5,60.));
#1225=IFCCARTESIANPOINT((840.,47.5,60.));
#1226=IFCCARTESIANPOINT((60.,47.5,60.));
#1227=IFCCARTESIANPOINT((60.,27.5,1440.));
#1228=IFCCARTESIANPOINT((840.,27.5,1440.));
#1229=IFCCARTESIANPOINT((840.,47.5,1440.));
#1230=IFCCARTESIANPOINT((60.,47.5,1440.));
#1231=IFCPOLYLOOP((#1223,#1224,#1225,#1226));
#1232=IFCFACEOUTERBOUND(#1231,.T.);
#1233=IFCFACE((#1232));
#1234=IFCPOLYLOOP((#1227,#1230,#1229,#1228));
#1235=IFCFACEOUTERBOUND(#1234,.T.);
#1236=IFCFACE((#1235));
#1237=IFCPOLYLOOP((#1223,#1227,#1228,#1224));
#1238=IFCFACEOUTERBOUND(#1237,.T.);
#1239=IFCFACE((#1238));
#1240=IFCPOLYLOOP((#1224,#1228,#1229,#1225));
#1241=IFCFACEOUTERBOUND(#1240,.T.);
#1242=IFCFACE((#1241));
#1243=IFCPOLYLOOP((#1225,#1229,#1230,#1226));
#1244=IFCFACEOUTERBOUND(#1243,.T.);
#1245=IFCFACE((#1244));
#1246=IFCPOLYLOOP((#1226,#1230,#1227,#1223));
#1247=IFCFACEOUTERBOUND(#1246,.T.);
#1248=IFCFACE((#1247));
#1249=IFCCLOSEDSHELL((#1233,#1236,#1239,#1242,#1245,#1248));
#1250=IFCFACETEDBREP(#1249);
#1251=IFCSHAPEREPRESENTATION(#19,'Body','SurfaceModel',(#1138,#1166,#1194,#1222,#1250));
#1252=IFCPRODUCTDEFINITIONSHAPE($,$,(#1251));
#1258=IFCOWNERHISTORY(#3,#7,.READWRITE.,.ADDED.,1779440584,#3,#7,1779440584);
#1259=IFCRELFILLSELEMENT('2zc9YeeTX4$xFwEu39hJgR',#1258,$,$,#1071,#1110);
#1260=IFCCARTESIANPOINT((0.,1.,0.));
#1261=IFCDIRECTION((0.,0.,1.));
#1262=IFCDIRECTION((1.,0.,0.));
#1263=IFCAXIS2PLACEMENT3D(#1260,#1261,#1262);
#1264=IFCLOCALPLACEMENT(#1106,#1263);
#1265=IFCOWNERHISTORY(#3,#7,.READWRITE.,.ADDED.,1779440584,#3,#7,1779440584);
#1266=IFCWINDOWSTYLE('0tONcqfJ161ffHIu3_px2M',#1265,'Window Style 3',$,$,$,$,$,.NOTDEFINED.,.NOTDEFINED.,.F.,.F.);
#1267=IFCOWNERHISTORY(#3,#7,.READWRITE.,.ADDED.,1779440584,#3,#7,1779440584);
#1268=IFCRELDEFINESBYTYPE('1LuOddZkP1g9fS2twVD4Jc',#1267,$,$,(#1110),#1266);
#1269=IFCOWNERHISTORY(#3,#7,.READWRITE.,.MODIFIED.,1779440584,#3,#7,1779440584);
#1270=IFCSPACE('1QUzC1tlf6lAMzPtgu5GaT',#1269,'CLASS-1',$,$,#1292,#1287,$,.ELEMENT.,$,$);
#1271=IFCOWNERHISTORY(#3,#7,.READWRITE.,.MODIFIED.,1779440584,#3,#7,1779440584);
#1272=IFCRELAGGREGATES('2irxNka713ngOevgyh398r',#1271,$,$,#29,(#1294,#1270,#1316,#1338));
#1273=IFCCARTESIANPOINT((0.,0.));
#1274=IFCCARTESIANPOINT((6750.,0.));
#1275=IFCCARTESIANPOINT((6750.,2750.));
#1276=IFCCARTESIANPOINT((0.,2750.));
#1277=IFCCARTESIANPOINT((0.,0.));
#1278=IFCPOLYLINE((#1273,#1274,#1275,#1276,#1277));
#1279=IFCDIRECTION((0.,0.,1.));
#1280=IFCCARTESIANPOINT((0.,0.,0.));
#1281=IFCDIRECTION((0.,0.,1.));
#1282=IFCDIRECTION((1.,0.,0.));
#1283=IFCAXIS2PLACEMENT3D(#1280,#1281,#1282);
#1284=IFCARBITRARYCLOSEDPROFILEDEF(.AREA.,$,#1278);
#1285=IFCEXTRUDEDAREASOLID(#1284,#1283,#1279,2799.9999999999995);
#1286=IFCSHAPEREPRESENTATION(#19,'Body','SweptSolid',(#1285));
#1287=IFCPRODUCTDEFINITIONSHAPE($,$,(#1286));
#1288=IFCCARTESIANPOINT((100.,100.,0.));
#1289=IFCDIRECTION((0.,0.,1.));
#1290=IFCDIRECTION((1.,0.,0.));
#1291=IFCAXIS2PLACEMENT3D(#1288,#1289,#1290);
#1292=IFCLOCALPLACEMENT(#36,#1291);
#1293=IFCOWNERHISTORY(#3,#7,.READWRITE.,.MODIFIED.,1779440584,#3,#7,1779440584);
#1294=IFCSPACE('1LVaRZJXTDefaW0B8WFNoj',#1293,'CLASS-2',$,$,#1314,#1309,$,.ELEMENT.,$,$);
#1295=IFCCARTESIANPOINT((0.,0.));
#1296=IFCCARTESIANPOINT((6750.,0.));
#1297=IFCCARTESIANPOINT((6750.,2750.));
#1298=IFCCARTESIANPOINT((0.,2750.));
#1299=IFCCARTESIANPOINT((0.,0.));
#1300=IFCPOLYLINE((#1295,#1296,#1297,#1298,#1299));
#1301=IFCDIRECTION((0.,0.,1.));
#1302=IFCCARTESIANPOINT((0.,0.,0.));
#1303=IFCDIRECTION((0.,0.,1.));
#1304=IFCDIRECTION((1.,0.,0.));
#1305=IFCAXIS2PLACEMENT3D(#1302,#1303,#1304);
#1306=IFCARBITRARYCLOSEDPROFILEDEF(.AREA.,$,#1300);
#1307=IFCEXTRUDEDAREASOLID(#1306,#1305,#1301,2799.9999999999995);
#1308=IFCSHAPEREPRESENTATION(#19,'Body','SweptSolid',(#1307));
#1309=IFCPRODUCTDEFINITIONSHAPE($,$,(#1308));
#1310=IFCCARTESIANPOINT((7099.9999999999991,100.,0.));
#1311=IFCDIRECTION((0.,0.,1.));
#1312=IFCDIRECTION((1.,0.,0.));
#1313=IFCAXIS2PLACEMENT3D(#1310,#1311,#1312);
#1314=IFCLOCALPLACEMENT(#36,#1313);
#1315=IFCOWNERHISTORY(#3,#7,.READWRITE.,.MODIFIED.,1779440584,#3,#7,1779440584);
#1316=IFCSPACE('2JElRg1OnD8g43sPoR1X3S',#1315,'CORRIDOR',$,$,#1336,#1331,$,.ELEMENT.,$,$);
#1317=IFCCARTESIANPOINT((0.,0.));
#1318=IFCCARTESIANPOINT((6750.,0.));
#1319=IFCCARTESIANPOINT((6750.,2750.));
#1320=IFCCARTESIANPOINT((0.,2750.));
#1321=IFCCARTESIANPOINT((0.,0.));
#1322=IFCPOLYLINE((#1317,#1318,#1319,#1320,#1321));
#1323=IFCDIRECTION((0.,0.,1.));
#1324=IFCCARTESIANPOINT((0.,0.,0.));
#1325=IFCDIRECTION((0.,0.,1.));
#1326=IFCDIRECTION((1.,0.,0.));
#1327=IFCAXIS2PLACEMENT3D(#1324,#1325,#1326);
#1328=IFCARBITRARYCLOSEDPROFILEDEF(.AREA.,$,#1322);
#1329=IFCEXTRUDEDAREASOLID(#1328,#1327,#1323,2799.9999999999995);
#1330=IFCSHAPEREPRESENTATION(#19,'Body','SweptSolid',(#1329));
#1331=IFCPRODUCTDEFINITIONSHAPE($,$,(#1330));
#1332=IFCCARTESIANPOINT((100.,3100.,0.));
#1333=IFCDIRECTION((0.,0.,1.));
#1334=IFCDIRECTION((1.,0.,0.));
#1335=IFCAXIS2PLACEMENT3D(#1332,#1333,#1334);
#1336=IFCLOCALPLACEMENT(#36,#1335);
#1337=IFCOWNERHISTORY(#3,#7,.READWRITE.,.MODIFIED.,1779440584,#3,#7,1779440584);
#1338=IFCSPACE('3ZgIsNGrD3lBsjNLzOAqUf',#1337,'UNCLASSIFIED',$,$,#1358,#1353,$,.ELEMENT.,$,$);
#1339=IFCCARTESIANPOINT((0.,0.));
#1340=IFCCARTESIANPOINT((6750.,0.));
#1341=IFCCARTESIANPOINT((6750.,2750.));
#1342=IFCCARTESIANPOINT((0.,2750.));
#1343=IFCCARTESIANPOINT((0.,0.));
#1344=IFCPOLYLINE((#1339,#1340,#1341,#1342,#1343));
#1345=IFCDIRECTION((0.,0.,1.));
#1346=IFCCARTESIANPOINT((0.,0.,0.));
#1347=IFCDIRECTION((0.,0.,1.));
#1348=IFCDIRECTION((1.,0.,0.));
#1349=IFCAXIS2PLACEMENT3D(#1346,#1347,#1348);
#1350=IFCARBITRARYCLOSEDPROFILEDEF(.AREA.,$,#1344);
#1351=IFCEXTRUDEDAREASOLID(#1350,#1349,#1345,2799.9999999999995);
#1352=IFCSHAPEREPRESENTATION(#19,'Body','SweptSolid',(#1351));
#1353=IFCPRODUCTDEFINITIONSHAPE($,$,(#1352));
#1354=IFCCARTESIANPOINT((7099.9999999999991,3100.,0.));
#1355=IFCDIRECTION((0.,0.,1.));
#1356=IFCDIRECTION((1.,0.,0.));
#1357=IFCAXIS2PLACEMENT3D(#1354,#1355,#1356);
#1358=IFCLOCALPLACEMENT(#36,#1357);
ENDSEC;
END-ISO-10303-21;
