<COLLADA xmlns="http://www.collada.org/2005/11/COLLADASchema" version="1.4.1">
  <asset>
    <created>2026-04-23T21:29:10.075420</created>
    <modified>2026-04-23T21:29:10.075428</modified>
    <up_axis>Y_UP</up_axis>
  </asset>
  <library_cameras>
    <camera id="cam-Scene_01" name="cam-Scene_01">
      <optics>
        <technique_common>
          <perspective>
            <yfov>45.0</yfov>
            <znear>0.1</znear>
            <zfar>100.0</zfar>
          </perspective>
        </technique_common>
      </optics>
    </camera>
    <camera id="cam-Scene_02" name="cam-Scene_02">
      <optics>
        <technique_common>
          <perspective>
            <yfov>45.0</yfov>
            <znear>0.1</znear>
            <zfar>100.0</zfar>
          </perspective>
        </technique_common>
      </optics>
    </camera>
    <camera id="cam-Scene_03" name="cam-Scene_03">
      <optics>
        <technique_common>
          <perspective>
            <yfov>45.0</yfov>
            <znear>0.1</znear>
            <zfar>100.0</zfar>
          </perspective>
        </technique_common>
      </optics>
    </camera>
    <camera id="cam-Scene_04" name="cam-Scene_04">
      <optics>
        <technique_common>
          <perspective>
            <yfov>45.0</yfov>
            <znear>0.1</znear>
            <zfar>100.0</zfar>
          </perspective>
        </technique_common>
      </optics>
    </camera>
    <camera id="cam-Scene_05" name="cam-Scene_05">
      <optics>
        <technique_common>
          <perspective>
            <yfov>45.0</yfov>
            <znear>0.1</znear>
            <zfar>100.0</zfar>
          </perspective>
        </technique_common>
      </optics>
    </camera>
    <camera id="cam-Scene_06" name="cam-Scene_06">
      <optics>
        <technique_common>
          <perspective>
            <yfov>45.0</yfov>
            <znear>0.1</znear>
            <zfar>100.0</zfar>
          </perspective>
        </technique_common>
      </optics>
    </camera>
    <camera id="cam-Scene_07" name="cam-Scene_07">
      <optics>
        <technique_common>
          <perspective>
            <yfov>45.0</yfov>
            <znear>0.1</znear>
            <zfar>100.0</zfar>
          </perspective>
        </technique_common>
      </optics>
    </camera>
    <camera id="cam-Scene_08" name="cam-Scene_08">
      <optics>
        <technique_common>
          <perspective>
            <yfov>45.0</yfov>
            <znear>0.1</znear>
            <zfar>100.0</zfar>
          </perspective>
        </technique_common>
      </optics>
    </camera>
    <camera id="cam-Scene_09" name="cam-Scene_09">
      <optics>
        <technique_common>
          <perspective>
            <yfov>45.0</yfov>
            <znear>0.1</znear>
            <zfar>100.0</zfar>
          </perspective>
        </technique_common>
      </optics>
    </camera>
    <camera id="cam-Scene_10" name="cam-Scene_10">
      <optics>
        <technique_common>
          <perspective>
            <yfov>45.0</yfov>
            <znear>0.1</znear>
            <zfar>100.0</zfar>
          </perspective>
        </technique_common>
      </optics>
    </camera>
    <camera id="cam-Scene_11" name="cam-Scene_11">
      <optics>
        <technique_common>
          <perspective>
            <yfov>45.0</yfov>
            <znear>0.1</znear>
            <zfar>100.0</zfar>
          </perspective>
        </technique_common>
      </optics>
    </camera>
    <camera id="cam-Scene_12" name="cam-Scene_12">
      <optics>
        <technique_common>
          <perspective>
            <yfov>45.0</yfov>
            <znear>0.1</znear>
            <zfar>100.0</zfar>
          </perspective>
        </technique_common>
      </optics>
    </camera>
  </library_cameras>
  <library_effects>
    <effect id="wood-eff" name="wood-eff">
      <profile_COMMON>
        <technique sid="common">
          <lambert>
            <emission>
              <color>0.0 0.0 0.0 1.0</color>
            </emission>
            <ambient>
              <color>0.0 0.0 0.0 1.0</color>
            </ambient>
            <diffuse>
              <color>0.55 0.35 0.2 1.0</color>
            </diffuse>
            <specular>
              <color>0.0 0.0 0.0 1.0</color>
            </specular>
            <shininess>
              <float>0.0</float>
            </shininess>
            <reflective>
              <color>0.0 0.0 0.0 1.0</color>
            </reflective>
            <reflectivity>
              <float>0.0</float>
            </reflectivity>
            <transparent>
              <color>0.0 0.0 0.0 1.0</color>
            </transparent>
            <transparency>
              <float>1.0</float>
            </transparency>
          </lambert>
        </technique>
        <extra>
          <technique profile="GOOGLEEARTH">
            <double_sided>0</double_sided>
          </technique>
        </extra>
      </profile_COMMON>
    </effect>
  </library_effects>
  <library_geometries>
    <geometry id="geom-seat" name="Seat">
      <mesh>
        <source id="geom-seat-verts-array">
          <float_array count="24" id="geom-seat-verts-array-array">0 0 0 0.5 0 0 0.5 0.5 0 0 0.5 0 0 0 0.05 0.5 0 0.05 0.5 0.5 0.05 0 0.5 0.05</float_array>
          <technique_common>
            <accessor count="8" source="#geom-seat-verts-array-array" stride="3">
              <param type="float" name="X" />
              <param type="float" name="Y" />
              <param type="float" name="Z" />
            </accessor>
          </technique_common>
        </source>
        <vertices id="geom-seat-verts-array-vertices">
          <input semantic="POSITION" source="#geom-seat-verts-array" />
        </vertices>
        <triangles count="12" material="matref">
          <input offset="0" semantic="VERTEX" source="#geom-seat-verts-array-vertices" />
          <p>0 1 2 0 2 3 4 6 5 4 7 6 0 4 5 0 5 1 1 5 6 1 6 2 2 6 7 2 7 3 3 7 4 3 4 0</p>
        </triangles>
      </mesh>
    </geometry>
    <geometry id="geom-back" name="Backrest">
      <mesh>
        <source id="geom-back-verts-array">
          <float_array count="24" id="geom-back-verts-array-array">0 0 0 0.5 0 0 0.5 0.04 0 0 0.04 0 0 0 0.55 0.5 0 0.55 0.5 0.04 0.55 0 0.04 0.55</float_array>
          <technique_common>
            <accessor count="8" source="#geom-back-verts-array-array" stride="3">
              <param type="float" name="X" />
              <param type="float" name="Y" />
              <param type="float" name="Z" />
            </accessor>
          </technique_common>
        </source>
        <vertices id="geom-back-verts-array-vertices">
          <input semantic="POSITION" source="#geom-back-verts-array" />
        </vertices>
        <triangles count="12" material="matref">
          <input offset="0" semantic="VERTEX" source="#geom-back-verts-array-vertices" />
          <p>0 1 2 0 2 3 4 6 5 4 7 6 0 4 5 0 5 1 1 5 6 1 6 2 2 6 7 2 7 3 3 7 4 3 4 0</p>
        </triangles>
      </mesh>
    </geometry>
    <geometry id="geom-leg" name="Leg">
      <mesh>
        <source id="geom-leg-verts-array">
          <float_array count="24" id="geom-leg-verts-array-array">0 0 0 0.05 0 0 0.05 0.05 0 0 0.05 0 0 0 0.45 0.05 0 0.45 0.05 0.05 0.45 0 0.05 0.45</float_array>
          <technique_common>
            <accessor count="8" source="#geom-leg-verts-array-array" stride="3">
              <param type="float" name="X" />
              <param type="float" name="Y" />
              <param type="float" name="Z" />
            </accessor>
          </technique_common>
        </source>
        <vertices id="geom-leg-verts-array-vertices">
          <input semantic="POSITION" source="#geom-leg-verts-array" />
        </vertices>
        <triangles count="12" material="matref">
          <input offset="0" semantic="VERTEX" source="#geom-leg-verts-array-vertices" />
          <p>0 1 2 0 2 3 4 6 5 4 7 6 0 4 5 0 5 1 1 5 6 1 6 2 2 6 7 2 7 3 3 7 4 3 4 0</p>
        </triangles>
      </mesh>
    </geometry>
    <geometry id="geom-arm" name="Armrest">
      <mesh>
        <source id="geom-arm-verts-array">
          <float_array count="24" id="geom-arm-verts-array-array">0 0 0 0.05 0 0 0.05 0.5 0 0 0.5 0 0 0 0.05 0.05 0 0.05 0.05 0.5 0.05 0 0.5 0.05</float_array>
          <technique_common>
            <accessor count="8" source="#geom-arm-verts-array-array" stride="3">
              <param type="float" name="X" />
              <param type="float" name="Y" />
              <param type="float" name="Z" />
            </accessor>
          </technique_common>
        </source>
        <vertices id="geom-arm-verts-array-vertices">
          <input semantic="POSITION" source="#geom-arm-verts-array" />
        </vertices>
        <triangles count="12" material="matref">
          <input offset="0" semantic="VERTEX" source="#geom-arm-verts-array-vertices" />
          <p>0 1 2 0 2 3 4 6 5 4 7 6 0 4 5 0 5 1 1 5 6 1 6 2 2 6 7 2 7 3 3 7 4 3 4 0</p>
        </triangles>
      </mesh>
    </geometry>
    <geometry id="geom-armpost" name="ArmPost">
      <mesh>
        <source id="geom-armpost-verts-array">
          <float_array count="24" id="geom-armpost-verts-array-array">0 0 0 0.05 0 0 0.05 0.05 0 0 0.05 0 0 0 0.2 0.05 0 0.2 0.05 0.05 0.2 0 0.05 0.2</float_array>
          <technique_common>
            <accessor count="8" source="#geom-armpost-verts-array-array" stride="3">
              <param type="float" name="X" />
              <param type="float" name="Y" />
              <param type="float" name="Z" />
            </accessor>
          </technique_common>
        </source>
        <vertices id="geom-armpost-verts-array-vertices">
          <input semantic="POSITION" source="#geom-armpost-verts-array" />
        </vertices>
        <triangles count="12" material="matref">
          <input offset="0" semantic="VERTEX" source="#geom-armpost-verts-array-vertices" />
          <p>0 1 2 0 2 3 4 6 5 4 7 6 0 4 5 0 5 1 1 5 6 1 6 2 2 6 7 2 7 3 3 7 4 3 4 0</p>
        </triangles>
      </mesh>
    </geometry>
  </library_geometries>
  <library_materials>
    <material id="wood-mat" name="Wood">
      <instance_effect url="#wood-eff" />
    </material>
  </library_materials>
  <library_visual_scenes>
    <visual_scene id="scene">
      <node id="Chair" name="Chair">
        <node id="SeatNode" name="SeatNode">
          <translate>-0.25 -0.25 0.45</translate>
          <instance_geometry url="#geom-seat">
            <bind_material>
              <technique_common>
                <instance_material symbol="matref" target="#wood-mat" />
              </technique_common>
            </bind_material>
          </instance_geometry>
        </node>
        <node id="BackrestNode" name="BackrestNode">
          <translate>-0.25 -0.25 0.5</translate>
          <instance_geometry url="#geom-back">
            <bind_material>
              <technique_common>
                <instance_material symbol="matref" target="#wood-mat" />
              </technique_common>
            </bind_material>
          </instance_geometry>
        </node>
        <node id="Leg_FL" name="Leg_FL">
          <translate>-0.25 -0.25 0.0</translate>
          <instance_geometry url="#geom-leg">
            <bind_material>
              <technique_common>
                <instance_material symbol="matref" target="#wood-mat" />
              </technique_common>
            </bind_material>
          </instance_geometry>
        </node>
        <node id="Leg_FR" name="Leg_FR">
          <translate>0.2 -0.25 0.0</translate>
          <instance_geometry url="#geom-leg">
            <bind_material>
              <technique_common>
                <instance_material symbol="matref" target="#wood-mat" />
              </technique_common>
            </bind_material>
          </instance_geometry>
        </node>
        <node id="Leg_RL" name="Leg_RL">
          <translate>-0.25 0.2 0.0</translate>
          <instance_geometry url="#geom-leg">
            <bind_material>
              <technique_common>
                <instance_material symbol="matref" target="#wood-mat" />
              </technique_common>
            </bind_material>
          </instance_geometry>
        </node>
        <node id="Leg_RR" name="Leg_RR">
          <translate>0.2 0.2 0.0</translate>
          <instance_geometry url="#geom-leg">
            <bind_material>
              <technique_common>
                <instance_material symbol="matref" target="#wood-mat" />
              </technique_common>
            </bind_material>
          </instance_geometry>
        </node>
        <node id="ArmPost_X+_Front" name="ArmPost_X+_Front">
          <translate>0.25 -0.25 0.5</translate>
          <instance_geometry url="#geom-armpost">
            <bind_material>
              <technique_common>
                <instance_material symbol="matref" target="#wood-mat" />
              </technique_common>
            </bind_material>
          </instance_geometry>
        </node>
        <node id="ArmPost_X+_Rear" name="ArmPost_X+_Rear">
          <translate>0.25 0.2 0.5</translate>
          <instance_geometry url="#geom-armpost">
            <bind_material>
              <technique_common>
                <instance_material symbol="matref" target="#wood-mat" />
              </technique_common>
            </bind_material>
          </instance_geometry>
        </node>
        <node id="ArmPad_X+" name="ArmPad_X+">
          <translate>0.25 -0.25 0.7</translate>
          <instance_geometry url="#geom-arm">
            <bind_material>
              <technique_common>
                <instance_material symbol="matref" target="#wood-mat" />
              </technique_common>
            </bind_material>
          </instance_geometry>
        </node>
      </node>
      <node id="Scene_01" name="Scene_01">
        <matrix>0.0 -0.35112344158839165 0.9363291775690443 4.0 1.0 0.0 0.0 0.0 0.0 0.9363291775690444 0.35112344158839165 1.5 0.0 0.0 0.0 1.0</matrix>
        <instance_camera url="#cam-Scene_01" />
      </node>
      <node id="Scene_02" name="Scene_02">
        <matrix>-0.49999999999999994 -0.3040818202797686 0.8108848540793832 3.464101615137755 0.8660254037844387 -0.17556172079419577 0.4681645887845221 1.9999999999999993 0.0 0.9363291775690444 0.3511234415883916 1.5 0.0 0.0 0.0 1.0</matrix>
        <instance_camera url="#cam-Scene_02" />
      </node>
      <node id="Scene_03" name="Scene_03">
        <matrix>-0.8660254037844386 -0.17556172079419585 0.4681645887845224 2.000000000000001 0.5000000000000001 -0.3040818202797686 0.810884854079383 3.464101615137755 -2.5988355289137245e-17 0.9363291775690444 0.3511234415883916 1.5 0.0 0.0 0.0 1.0</matrix>
        <instance_camera url="#cam-Scene_03" />
      </node>
      <node id="Scene_04" name="Scene_04">
        <matrix>-1.0 -2.1500109942341324e-17 5.73336265129102e-17 2.4492935982947064e-16 6.123233995736766e-17 -0.35112344158839165 0.9363291775690443 4.0 0.0 0.9363291775690444 0.35112344158839165 1.5 0.0 0.0 0.0 1.0</matrix>
        <instance_camera url="#cam-Scene_04" />
      </node>
      <node id="Scene_05" name="Scene_05">
        <matrix>-0.8660254037844387 0.17556172079419577 -0.4681645887845221 -1.9999999999999993 -0.4999999999999998 -0.3040818202797687 0.8108848540793833 3.4641016151377553 -2.5988355289137245e-17 0.9363291775690444 0.35112344158839176 1.5 0.0 0.0 0.0 1.0</matrix>
        <instance_camera url="#cam-Scene_05" />
      </node>
      <node id="Scene_06" name="Scene_06">
        <matrix>-0.49999999999999994 0.3040818202797686 -0.8108848540793832 -3.464101615137755 -0.8660254037844387 -0.17556172079419577 0.4681645887845221 1.9999999999999993 0.0 0.9363291775690444 0.3511234415883916 1.5 0.0 0.0 0.0 1.0</matrix>
        <instance_camera url="#cam-Scene_06" />
      </node>
      <node id="Scene_07" name="Scene_07">
        <matrix>-1.2246467991473532e-16 0.35112344158839165 -0.9363291775690443 -4.0 -1.0 -4.300021988468265e-17 1.146672530258204e-16 4.898587196589413e-16 0.0 0.9363291775690444 0.35112344158839165 1.5 0.0 0.0 0.0 1.0</matrix>
        <instance_camera url="#cam-Scene_07" />
      </node>
      <node id="Scene_08" name="Scene_08">
        <matrix>0.5000000000000001 0.30408182027976854 -0.810884854079383 -3.4641016151377544 -0.8660254037844387 0.17556172079419588 -0.4681645887845224 -2.000000000000001 0.0 0.9363291775690444 0.3511234415883916 1.5 0.0 0.0 0.0 1.0</matrix>
        <instance_camera url="#cam-Scene_08" />
      </node>
      <node id="Scene_09" name="Scene_09">
        <matrix>0.8660254037844386 0.17556172079419605 -0.4681645887845227 -2.0000000000000018 -0.5000000000000006 0.3040818202797686 -0.8108848540793828 -3.4641016151377535 -2.5988355289137248e-17 0.9363291775690445 0.3511234415883917 1.5000000000000002 0.0 0.0 0.0 1.0</matrix>
        <instance_camera url="#cam-Scene_09" />
      </node>
      <node id="Scene_10" name="Scene_10">
        <matrix>1.0 6.450032982702397e-17 -1.720008795387306e-16 -7.347880794884119e-16 -1.8369701987210297e-16 0.35112344158839165 -0.9363291775690443 -4.0 0.0 0.9363291775690444 0.35112344158839165 1.5 0.0 0.0 0.0 1.0</matrix>
        <instance_camera url="#cam-Scene_10" />
      </node>
      <node id="Scene_11" name="Scene_11">
        <matrix>0.8660254037844386 -0.17556172079419585 0.4681645887845224 2.000000000000001 0.5000000000000001 0.3040818202797686 -0.810884854079383 -3.464101615137755 2.5988355289137245e-17 0.9363291775690444 0.3511234415883916 1.5 0.0 0.0 0.0 1.0</matrix>
        <instance_camera url="#cam-Scene_11" />
      </node>
      <node id="Scene_12" name="Scene_12">
        <matrix>0.5000000000000006 -0.3040818202797686 0.8108848540793828 3.464101615137754 0.8660254037844384 0.17556172079419602 -0.46816458878452266 -2.0000000000000018 -2.250657588296853e-17 0.9363291775690445 0.35112344158839165 1.5 0.0 0.0 0.0 1.0</matrix>
        <instance_camera url="#cam-Scene_12" />
      </node>
    </visual_scene>
  </library_visual_scenes>
  <scene>
    <instance_visual_scene url="#scene" />
  </scene>
</COLLADA>
