ISO-10303-21;
HEADER;
FILE_DESCRIPTION(('ViewDefinition[DesignTransferView]'),'2;1');
FILE_NAME('/dev/null','2026-04-21T14:54:51+00:00',(''),(''),'IfcOpenShell 0.8.5','IfcOpenShell 0.8.5','Nobody');
FILE_SCHEMA(('IFC4'));
ENDSEC;
DATA;
#1=IFCPROJECT('0MpRwKnTPE9vJ$wlImQ0eF',$,'Gallery Pavilion',$,$,$,$,(#10,#16),#5);
#2=IFCSIUNIT(*,.LENGTHUNIT.,$,.METRE.);
#3=IFCSIUNIT(*,.AREAUNIT.,$,.SQUARE_METRE.);
#4=IFCSIUNIT(*,.VOLUMEUNIT.,$,.CUBIC_METRE.);
#5=IFCUNITASSIGNMENT((#4,#2,#3));
#6=IFCCARTESIANPOINT((0.,0.,0.));
#7=IFCDIRECTION((0.,0.,1.));
#8=IFCDIRECTION((1.,0.,0.));
#9=IFCAXIS2PLACEMENT3D(#6,#7,#8);
#10=IFCGEOMETRICREPRESENTATIONCONTEXT($,'Model',3,1.0000000000000001E-05,#9,$);
#11=IFCGEOMETRICREPRESENTATIONSUBCONTEXT('Body','Model',*,*,*,*,#10,$,.MODEL_VIEW.,$);
#12=IFCGEOMETRICREPRESENTATIONSUBCONTEXT('Axis','Model',*,*,*,*,#10,$,.GRAPH_VIEW.,$);
#13=IFCCARTESIANPOINT((0.,0.));
#14=IFCDIRECTION((1.,0.));
#15=IFCAXIS2PLACEMENT2D(#13,#14);
#16=IFCGEOMETRICREPRESENTATIONCONTEXT($,'Plan',2,1.0000000000000001E-05,#15,$);
#17=IFCGEOMETRICREPRESENTATIONSUBCONTEXT('Annotation','Plan',*,*,*,*,#16,$,.PLAN_VIEW.,$);
#18=IFCSITE('1gxir2K151thH0W2c334l_',$,'Gallery Pavilion Site',$,$,$,$,$,$,$,$,$,$,$);
#19=IFCBUILDING('1I81LPAlz1iBs0Ku9EHAGz',$,'Gallery Pavilion Building',$,$,$,$,$,$,$,$,$);
#20=IFCRELAGGREGATES('3N8ITqvD97_wWOodIlNIUr',$,$,$,#1,(#18));
#21=IFCRELAGGREGATES('31Dg8MR5vAfRMCdtaLLNB_',$,$,$,#18,(#19));
#22=IFCBUILDINGSTOREY('3AjY3SMi5EjvcSUzFc2gfc',$,'Level 0',$,$,#28,$,$,$,0.);
#23=IFCRELAGGREGATES('2gQ60Ww_vA3P$dBGpnsGuH',$,$,$,#19,(#22));
#24=IFCCARTESIANPOINT((0.,0.,0.));
#25=IFCDIRECTION((0.,0.,1.));
#26=IFCDIRECTION((1.,0.,0.));
#27=IFCAXIS2PLACEMENT3D(#24,#25,#26);
#28=IFCLOCALPLACEMENT($,#27);
#29=IFCSPACE('2_Ly97rXDFFP8PhgjGj71R',$,'FOYER',$,$,#50,#45,'G01',$,$,$);
#30=IFCRELAGGREGATES('2PXTIbQozBgutNRbv0TTnO',$,$,$,#22,(#29,#114,#58,#86,#142));
#31=IFCCARTESIANPOINT((0.,0.));
#32=IFCCARTESIANPOINT((4.,0.));
#33=IFCCARTESIANPOINT((4.,3.));
#34=IFCCARTESIANPOINT((0.,3.));
#35=IFCCARTESIANPOINT((0.,0.));
#36=IFCPOLYLINE((#31,#32,#33,#34,#35));
#37=IFCARBITRARYCLOSEDPROFILEDEF(.AREA.,$,#36);
#38=IFCCARTESIANPOINT((0.,0.,0.));
#39=IFCDIRECTION((0.,0.,1.));
#40=IFCDIRECTION((1.,0.,0.));
#41=IFCAXIS2PLACEMENT3D(#38,#39,#40);
#42=IFCDIRECTION((0.,0.,1.));
#43=IFCEXTRUDEDAREASOLID(#37,#41,#42,3.);
#44=IFCSHAPEREPRESENTATION(#11,'Body','SweptSolid',(#43));
#45=IFCPRODUCTDEFINITIONSHAPE($,$,(#44));
#46=IFCCARTESIANPOINT((0.,0.,0.));
#47=IFCDIRECTION((0.,0.,1.));
#48=IFCDIRECTION((1.,0.,0.));
#49=IFCAXIS2PLACEMENT3D(#46,#47,#48);
#50=IFCLOCALPLACEMENT(#28,#49);
#51=IFCELEMENTQUANTITY('0MRSDVYMX3w9L3Pv4IpTor',$,'Qto_SpaceBaseQuantities',$,'BaseQuantities',(#53,#54));
#52=IFCRELDEFINESBYPROPERTIES('2NKqwEoiTD2Az1OVeMs8Qc',$,$,$,(#29),#51);
#53=IFCQUANTITYAREA('GrossFloorArea',$,$,12.,$);
#54=IFCQUANTITYAREA('NetFloorArea',$,$,12.,$);
#55=IFCPROPERTYSET('1elprNIH1DMRcBqB09mq6i',$,'Pset_SpaceCommon',$,(#57));
#56=IFCRELDEFINESBYPROPERTIES('3yKgwrBYr919BWEWkeewXS',$,$,$,(#29),#55);
#57=IFCPROPERTYSINGLEVALUE('Reference',$,IFCIDENTIFIER('G01'),$);
#58=IFCSPACE('3iaVKOj$9EuBQIQscieqgH',$,'GALLERY',$,$,#78,#73,'G02',$,$,$);
#59=IFCCARTESIANPOINT((0.,0.));
#60=IFCCARTESIANPOINT((8.,0.));
#61=IFCCARTESIANPOINT((8.,6.));
#62=IFCCARTESIANPOINT((0.,6.));
#63=IFCCARTESIANPOINT((0.,0.));
#64=IFCPOLYLINE((#59,#60,#61,#62,#63));
#65=IFCARBITRARYCLOSEDPROFILEDEF(.AREA.,$,#64);
#66=IFCCARTESIANPOINT((0.,0.,0.));
#67=IFCDIRECTION((0.,0.,1.));
#68=IFCDIRECTION((1.,0.,0.));
#69=IFCAXIS2PLACEMENT3D(#66,#67,#68);
#70=IFCDIRECTION((0.,0.,1.));
#71=IFCEXTRUDEDAREASOLID(#65,#69,#70,3.);
#72=IFCSHAPEREPRESENTATION(#11,'Body','SweptSolid',(#71));
#73=IFCPRODUCTDEFINITIONSHAPE($,$,(#72));
#74=IFCCARTESIANPOINT((4.,0.,0.));
#75=IFCDIRECTION((0.,0.,1.));
#76=IFCDIRECTION((1.,0.,0.));
#77=IFCAXIS2PLACEMENT3D(#74,#75,#76);
#78=IFCLOCALPLACEMENT(#28,#77);
#79=IFCELEMENTQUANTITY('1gqi9pfUr2YRd8Y3jbRbXj',$,'Qto_SpaceBaseQuantities',$,'BaseQuantities',(#81,#82));
#80=IFCRELDEFINESBYPROPERTIES('0u4QW8DirEq9yxKDHmaXQA',$,$,$,(#58),#79);
#81=IFCQUANTITYAREA('GrossFloorArea',$,$,48.,$);
#82=IFCQUANTITYAREA('NetFloorArea',$,$,48.,$);
#83=IFCPROPERTYSET('17NdLnWcb9ZRYnq7LzDjtT',$,'Pset_SpaceCommon',$,(#85));
#84=IFCRELDEFINESBYPROPERTIES('2bnbpYfiP3$9mfusVBxncl',$,$,$,(#58),#83);
#85=IFCPROPERTYSINGLEVALUE('Reference',$,IFCIDENTIFIER('G02'),$);
#86=IFCSPACE('2n4KlHJ_90x9kpt0nvxEwr',$,'BACK-OF-HOUSE',$,$,#106,#101,'G03',$,$,$);
#87=IFCCARTESIANPOINT((0.,0.));
#88=IFCCARTESIANPOINT((4.,0.));
#89=IFCCARTESIANPOINT((4.,3.));
#90=IFCCARTESIANPOINT((0.,3.));
#91=IFCCARTESIANPOINT((0.,0.));
#92=IFCPOLYLINE((#87,#88,#89,#90,#91));
#93=IFCARBITRARYCLOSEDPROFILEDEF(.AREA.,$,#92);
#94=IFCCARTESIANPOINT((0.,0.,0.));
#95=IFCDIRECTION((0.,0.,1.));
#96=IFCDIRECTION((1.,0.,0.));
#97=IFCAXIS2PLACEMENT3D(#94,#95,#96);
#98=IFCDIRECTION((0.,0.,1.));
#99=IFCEXTRUDEDAREASOLID(#93,#97,#98,3.);
#100=IFCSHAPEREPRESENTATION(#11,'Body','SweptSolid',(#99));
#101=IFCPRODUCTDEFINITIONSHAPE($,$,(#100));
#102=IFCCARTESIANPOINT((0.,3.,0.));
#103=IFCDIRECTION((0.,0.,1.));
#104=IFCDIRECTION((1.,0.,0.));
#105=IFCAXIS2PLACEMENT3D(#102,#103,#104);
#106=IFCLOCALPLACEMENT(#28,#105);
#107=IFCELEMENTQUANTITY('2FcKUVbqTEeQBAW_44nwem',$,'Qto_SpaceBaseQuantities',$,'BaseQuantities',(#109,#110));
#108=IFCRELDEFINESBYPROPERTIES('0SdCqM36v5Au8wmKtopcTT',$,$,$,(#86),#107);
#109=IFCQUANTITYAREA('GrossFloorArea',$,$,12.,$);
#110=IFCQUANTITYAREA('NetFloorArea',$,$,12.,$);
#111=IFCPROPERTYSET('3Y36FpHgf2zekZDT0g$H8j',$,'Pset_SpaceCommon',$,(#113));
#112=IFCRELDEFINESBYPROPERTIES('20bsgLK8P0K9Y1SAV7y4Yw',$,$,$,(#86),#111);
#113=IFCPROPERTYSINGLEVALUE('Reference',$,IFCIDENTIFIER('G03'),$);
#114=IFCSPACE('0GNcoq46D1VA6BerXGpoke',$,'STORE',$,$,#134,#129,'G04',$,$,$);
#115=IFCCARTESIANPOINT((0.,0.));
#116=IFCCARTESIANPOINT((3.,0.));
#117=IFCCARTESIANPOINT((3.,2.));
#118=IFCCARTESIANPOINT((0.,2.));
#119=IFCCARTESIANPOINT((0.,0.));
#120=IFCPOLYLINE((#115,#116,#117,#118,#119));
#121=IFCARBITRARYCLOSEDPROFILEDEF(.AREA.,$,#120);
#122=IFCCARTESIANPOINT((0.,0.,0.));
#123=IFCDIRECTION((0.,0.,1.));
#124=IFCDIRECTION((1.,0.,0.));
#125=IFCAXIS2PLACEMENT3D(#122,#123,#124);
#126=IFCDIRECTION((0.,0.,1.));
#127=IFCEXTRUDEDAREASOLID(#121,#125,#126,3.);
#128=IFCSHAPEREPRESENTATION(#11,'Body','SweptSolid',(#127));
#129=IFCPRODUCTDEFINITIONSHAPE($,$,(#128));
#130=IFCCARTESIANPOINT((0.,6.,0.));
#131=IFCDIRECTION((0.,0.,1.));
#132=IFCDIRECTION((1.,0.,0.));
#133=IFCAXIS2PLACEMENT3D(#130,#131,#132);
#134=IFCLOCALPLACEMENT(#28,#133);
#135=IFCELEMENTQUANTITY('29YvTI6P930vcrKVSjUNk5',$,'Qto_SpaceBaseQuantities',$,'BaseQuantities',(#137,#138));
#136=IFCRELDEFINESBYPROPERTIES('0r8$biuxP0MQuT5x45h3vq',$,$,$,(#114),#135);
#137=IFCQUANTITYAREA('GrossFloorArea',$,$,6.,$);
#138=IFCQUANTITYAREA('NetFloorArea',$,$,6.,$);
#139=IFCPROPERTYSET('0zO0sESKP2nRfbugCS8JqZ',$,'Pset_SpaceCommon',$,(#141));
#140=IFCRELDEFINESBYPROPERTIES('3wmKZUxvzENgg2wccNrK1N',$,$,$,(#114),#139);
#141=IFCPROPERTYSINGLEVALUE('Reference',$,IFCIDENTIFIER('G04'),$);
#142=IFCSPACE('3dQeqIFrT9oujQFY_pWMMQ',$,'WC',$,$,#162,#157,'G05',$,$,$);
#143=IFCCARTESIANPOINT((0.,0.));
#144=IFCCARTESIANPOINT((2.,0.));
#145=IFCCARTESIANPOINT((2.,2.));
#146=IFCCARTESIANPOINT((0.,2.));
#147=IFCCARTESIANPOINT((0.,0.));
#148=IFCPOLYLINE((#143,#144,#145,#146,#147));
#149=IFCARBITRARYCLOSEDPROFILEDEF(.AREA.,$,#148);
#150=IFCCARTESIANPOINT((0.,0.,0.));
#151=IFCDIRECTION((0.,0.,1.));
#152=IFCDIRECTION((1.,0.,0.));
#153=IFCAXIS2PLACEMENT3D(#150,#151,#152);
#154=IFCDIRECTION((0.,0.,1.));
#155=IFCEXTRUDEDAREASOLID(#149,#153,#154,3.);
#156=IFCSHAPEREPRESENTATION(#11,'Body','SweptSolid',(#155));
#157=IFCPRODUCTDEFINITIONSHAPE($,$,(#156));
#158=IFCCARTESIANPOINT((3.,6.,0.));
#159=IFCDIRECTION((0.,0.,1.));
#160=IFCDIRECTION((1.,0.,0.));
#161=IFCAXIS2PLACEMENT3D(#158,#159,#160);
#162=IFCLOCALPLACEMENT(#28,#161);
#163=IFCELEMENTQUANTITY('1_hnoqezr31PImW8Dpoe7K',$,'Qto_SpaceBaseQuantities',$,'BaseQuantities',(#165,#166));
#164=IFCRELDEFINESBYPROPERTIES('206m1140X2cPBClpDXh$nX',$,$,$,(#142),#163);
#165=IFCQUANTITYAREA('GrossFloorArea',$,$,4.,$);
#166=IFCQUANTITYAREA('NetFloorArea',$,$,4.,$);
#167=IFCPROPERTYSET('2MCmgBKg1Esxti2UDYnzvW',$,'Pset_SpaceCommon',$,(#169));
#168=IFCRELDEFINESBYPROPERTIES('2TudXZoKnC6BD2ZfbkoqWh',$,$,$,(#142),#167);
#169=IFCPROPERTYSINGLEVALUE('Reference',$,IFCIDENTIFIER('G05'),$);
#170=IFCSLAB('1qXTynSX1EvRvGEAqTqOqs',$,'PAVILION-FLOOR',$,$,#183,#178,$,.FLOOR.);
#171=IFCRELCONTAINEDINSPATIALSTRUCTURE('0qyg_XiHTDXRuMtWkunCky',$,$,$,(#469,#401,#282,#503,#316,#197,#231,#170,#184,#350,#384,#265,#452,#418,#299,#486,#214,#435,#520,#333,#367,#248),#22);
#172=IFCCARTESIANPOINTLIST2D(((0.,0.),(12.,0.),(12.,8.),(0.,8.)));
#173=IFCINDEXEDPOLYCURVE(#172,$,$);
#174=IFCDIRECTION((0.,0.,1.));
#175=IFCARBITRARYCLOSEDPROFILEDEF(.AREA.,$,#173);
#176=IFCEXTRUDEDAREASOLID(#175,$,#174,0.25);
#177=IFCSHAPEREPRESENTATION(#11,'Body','SweptSolid',(#176));
#178=IFCPRODUCTDEFINITIONSHAPE($,$,(#177));
#179=IFCCARTESIANPOINT((0.,0.,0.));
#180=IFCDIRECTION((0.,0.,1.));
#181=IFCDIRECTION((1.,0.,0.));
#182=IFCAXIS2PLACEMENT3D(#179,#180,#181);
#183=IFCLOCALPLACEMENT(#28,#182);
#184=IFCROOF('14WkwsxF9CkgZ6FBGsq49w',$,'PAVILION-ROOF',$,$,#196,#191,$,$);
#185=IFCCARTESIANPOINTLIST2D(((0.,0.),(12.,0.),(12.,8.),(0.,8.)));
#186=IFCINDEXEDPOLYCURVE(#185,$,$);
#187=IFCDIRECTION((0.,0.,1.));
#188=IFCARBITRARYCLOSEDPROFILEDEF(.AREA.,$,#186);
#189=IFCEXTRUDEDAREASOLID(#188,$,#187,0.20000000000000001);
#190=IFCSHAPEREPRESENTATION(#11,'Body','SweptSolid',(#189));
#191=IFCPRODUCTDEFINITIONSHAPE($,$,(#190));
#192=IFCCARTESIANPOINT((0.,0.,3.3999999999999999));
#193=IFCDIRECTION((0.,0.,1.));
#194=IFCDIRECTION((1.,0.,0.));
#195=IFCAXIS2PLACEMENT3D(#192,#193,#194);
#196=IFCLOCALPLACEMENT(#28,#195);
#197=IFCWALL('0kGsBNqtb8r8AEiMkEOluL',$,'FOYER-W1',$,$,#212,#213,$,$);
#198=IFCCARTESIANPOINTLIST2D(((0.,0.),(0.,0.14999999999999999),(4.,0.14999999999999999),(4.,0.),(0.,0.)));
#199=IFCINDEXEDPOLYCURVE(#198,$,.F.);
#200=IFCDIRECTION((0.,0.,1.));
#201=IFCARBITRARYCLOSEDPROFILEDEF(.AREA.,$,#199);
#202=IFCCARTESIANPOINT((0.,0.,0.));
#203=IFCDIRECTION((0.,0.,1.));
#204=IFCDIRECTION((1.,0.,0.));
#205=IFCAXIS2PLACEMENT3D(#202,#203,#204);
#206=IFCEXTRUDEDAREASOLID(#201,#205,#200,3.2000000000000002);
#207=IFCSHAPEREPRESENTATION(#11,'Body','SweptSolid',(#206));
#208=IFCCARTESIANPOINT((0.,0.,0.));
#209=IFCDIRECTION((0.,0.,1.));
#210=IFCDIRECTION((1.,0.,0.));
#211=IFCAXIS2PLACEMENT3D(#208,#209,#210);
#212=IFCLOCALPLACEMENT(#28,#211);
#213=IFCPRODUCTDEFINITIONSHAPE($,$,(#207));
#214=IFCWALL('0omxMiA8P4H87mgdjA6qFA',$,'FOYER-W2',$,$,#229,#230,$,$);
#215=IFCCARTESIANPOINTLIST2D(((0.,0.),(0.,0.14999999999999999),(3.,0.14999999999999999),(3.,0.),(0.,0.)));
#216=IFCINDEXEDPOLYCURVE(#215,$,.F.);
#217=IFCDIRECTION((0.,0.,1.));
#218=IFCARBITRARYCLOSEDPROFILEDEF(.AREA.,$,#216);
#219=IFCCARTESIANPOINT((0.,0.,0.));
#220=IFCDIRECTION((0.,0.,1.));
#221=IFCDIRECTION((1.,0.,0.));
#222=IFCAXIS2PLACEMENT3D(#219,#220,#221);
#223=IFCEXTRUDEDAREASOLID(#218,#222,#217,3.2000000000000002);
#224=IFCSHAPEREPRESENTATION(#11,'Body','SweptSolid',(#223));
#225=IFCCARTESIANPOINT((4.,0.,0.));
#226=IFCDIRECTION((0.,0.,1.));
#227=IFCDIRECTION((0.,1.,0.));
#228=IFCAXIS2PLACEMENT3D(#225,#226,#227);
#229=IFCLOCALPLACEMENT(#28,#228);
#230=IFCPRODUCTDEFINITIONSHAPE($,$,(#224));
#231=IFCWALL('1HckUJWWj9DwIh2gMf9ame',$,'FOYER-W3',$,$,#246,#247,$,$);
#232=IFCCARTESIANPOINTLIST2D(((0.,0.),(0.,0.14999999999999999),(4.,0.14999999999999999),(4.,0.),(0.,0.)));
#233=IFCINDEXEDPOLYCURVE(#232,$,.F.);
#234=IFCDIRECTION((0.,0.,1.));
#235=IFCARBITRARYCLOSEDPROFILEDEF(.AREA.,$,#233);
#236=IFCCARTESIANPOINT((0.,0.,0.));
#237=IFCDIRECTION((0.,0.,1.));
#238=IFCDIRECTION((1.,0.,0.));
#239=IFCAXIS2PLACEMENT3D(#236,#237,#238);
#240=IFCEXTRUDEDAREASOLID(#235,#239,#234,3.2000000000000002);
#241=IFCSHAPEREPRESENTATION(#11,'Body','SweptSolid',(#240));
#242=IFCCARTESIANPOINT((4.,3.,0.));
#243=IFCDIRECTION((0.,0.,1.));
#244=IFCDIRECTION((-1.,0.,0.));
#245=IFCAXIS2PLACEMENT3D(#242,#243,#244);
#246=IFCLOCALPLACEMENT(#28,#245);
#247=IFCPRODUCTDEFINITIONSHAPE($,$,(#241));
#248=IFCWALL('0pW0$bIJ1A6wsdQ43bdHW$',$,'FOYER-W4',$,$,#263,#264,$,$);
#249=IFCCARTESIANPOINTLIST2D(((0.,0.),(0.,0.14999999999999999),(3.,0.14999999999999999),(3.,0.),(0.,0.)));
#250=IFCINDEXEDPOLYCURVE(#249,$,.F.);
#251=IFCDIRECTION((0.,0.,1.));
#252=IFCARBITRARYCLOSEDPROFILEDEF(.AREA.,$,#250);
#253=IFCCARTESIANPOINT((0.,0.,0.));
#254=IFCDIRECTION((0.,0.,1.));
#255=IFCDIRECTION((1.,0.,0.));
#256=IFCAXIS2PLACEMENT3D(#253,#254,#255);
#257=IFCEXTRUDEDAREASOLID(#252,#256,#251,3.2000000000000002);
#258=IFCSHAPEREPRESENTATION(#11,'Body','SweptSolid',(#257));
#259=IFCCARTESIANPOINT((0.,3.,0.));
#260=IFCDIRECTION((0.,0.,1.));
#261=IFCDIRECTION((0.,-1.,0.));
#262=IFCAXIS2PLACEMENT3D(#259,#260,#261);
#263=IFCLOCALPLACEMENT(#28,#262);
#264=IFCPRODUCTDEFINITIONSHAPE($,$,(#258));
#265=IFCWALL('2AzNzrqVjCPeXqz8ZPn1su',$,'GALLERY-W5',$,$,#280,#281,$,$);
#266=IFCCARTESIANPOINTLIST2D(((0.,0.),(0.,0.14999999999999999),(8.,0.14999999999999999),(8.,0.),(0.,0.)));
#267=IFCINDEXEDPOLYCURVE(#266,$,.F.);
#268=IFCDIRECTION((0.,0.,1.));
#269=IFCARBITRARYCLOSEDPROFILEDEF(.AREA.,$,#267);
#270=IFCCARTESIANPOINT((0.,0.,0.));
#271=IFCDIRECTION((0.,0.,1.));
#272=IFCDIRECTION((1.,0.,0.));
#273=IFCAXIS2PLACEMENT3D(#270,#271,#272);
#274=IFCEXTRUDEDAREASOLID(#269,#273,#268,3.2000000000000002);
#275=IFCSHAPEREPRESENTATION(#11,'Body','SweptSolid',(#274));
#276=IFCCARTESIANPOINT((4.,0.,0.));
#277=IFCDIRECTION((0.,0.,1.));
#278=IFCDIRECTION((1.,0.,0.));
#279=IFCAXIS2PLACEMENT3D(#276,#277,#278);
#280=IFCLOCALPLACEMENT(#28,#279);
#281=IFCPRODUCTDEFINITIONSHAPE($,$,(#275));
#282=IFCWALL('3gGJdTWrz59wSxetoztIHk',$,'GALLERY-W6',$,$,#297,#298,$,$);
#283=IFCCARTESIANPOINTLIST2D(((0.,0.),(0.,0.14999999999999999),(6.,0.14999999999999999),(6.,0.),(0.,0.)));
#284=IFCINDEXEDPOLYCURVE(#283,$,.F.);
#285=IFCDIRECTION((0.,0.,1.));
#286=IFCARBITRARYCLOSEDPROFILEDEF(.AREA.,$,#284);
#287=IFCCARTESIANPOINT((0.,0.,0.));
#288=IFCDIRECTION((0.,0.,1.));
#289=IFCDIRECTION((1.,0.,0.));
#290=IFCAXIS2PLACEMENT3D(#287,#288,#289);
#291=IFCEXTRUDEDAREASOLID(#286,#290,#285,3.2000000000000002);
#292=IFCSHAPEREPRESENTATION(#11,'Body','SweptSolid',(#291));
#293=IFCCARTESIANPOINT((12.,0.,0.));
#294=IFCDIRECTION((0.,0.,1.));
#295=IFCDIRECTION((0.,1.,0.));
#296=IFCAXIS2PLACEMENT3D(#293,#294,#295);
#297=IFCLOCALPLACEMENT(#28,#296);
#298=IFCPRODUCTDEFINITIONSHAPE($,$,(#292));
#299=IFCWALL('2SnAvR2WLDyOwGhto3e9y8',$,'GALLERY-W7',$,$,#314,#315,$,$);
#300=IFCCARTESIANPOINTLIST2D(((0.,0.),(0.,0.14999999999999999),(8.,0.14999999999999999),(8.,0.),(0.,0.)));
#301=IFCINDEXEDPOLYCURVE(#300,$,.F.);
#302=IFCDIRECTION((0.,0.,1.));
#303=IFCARBITRARYCLOSEDPROFILEDEF(.AREA.,$,#301);
#304=IFCCARTESIANPOINT((0.,0.,0.));
#305=IFCDIRECTION((0.,0.,1.));
#306=IFCDIRECTION((1.,0.,0.));
#307=IFCAXIS2PLACEMENT3D(#304,#305,#306);
#308=IFCEXTRUDEDAREASOLID(#303,#307,#302,3.2000000000000002);
#309=IFCSHAPEREPRESENTATION(#11,'Body','SweptSolid',(#308));
#310=IFCCARTESIANPOINT((12.,6.,0.));
#311=IFCDIRECTION((0.,0.,1.));
#312=IFCDIRECTION((-1.,0.,0.));
#313=IFCAXIS2PLACEMENT3D(#310,#311,#312);
#314=IFCLOCALPLACEMENT(#28,#313);
#315=IFCPRODUCTDEFINITIONSHAPE($,$,(#309));
#316=IFCWALL('3Kwl5IiED3Kf$UE8xTSX8W',$,'GALLERY-W8',$,$,#331,#332,$,$);
#317=IFCCARTESIANPOINTLIST2D(((0.,0.),(0.,0.14999999999999999),(6.,0.14999999999999999),(6.,0.),(0.,0.)));
#318=IFCINDEXEDPOLYCURVE(#317,$,.F.);
#319=IFCDIRECTION((0.,0.,1.));
#320=IFCARBITRARYCLOSEDPROFILEDEF(.AREA.,$,#318);
#321=IFCCARTESIANPOINT((0.,0.,0.));
#322=IFCDIRECTION((0.,0.,1.));
#323=IFCDIRECTION((1.,0.,0.));
#324=IFCAXIS2PLACEMENT3D(#321,#322,#323);
#325=IFCEXTRUDEDAREASOLID(#320,#324,#319,3.2000000000000002);
#326=IFCSHAPEREPRESENTATION(#11,'Body','SweptSolid',(#325));
#327=IFCCARTESIANPOINT((4.,6.,0.));
#328=IFCDIRECTION((0.,0.,1.));
#329=IFCDIRECTION((0.,-1.,0.));
#330=IFCAXIS2PLACEMENT3D(#327,#328,#329);
#331=IFCLOCALPLACEMENT(#28,#330);
#332=IFCPRODUCTDEFINITIONSHAPE($,$,(#326));
#333=IFCWALL('0XvWkPXEr7cvo96T9EqE5X',$,'BACK-OF-HOUSE-W9',$,$,#348,#349,$,$);
#334=IFCCARTESIANPOINTLIST2D(((0.,0.),(0.,0.14999999999999999),(4.,0.14999999999999999),(4.,0.),(0.,0.)));
#335=IFCINDEXEDPOLYCURVE(#334,$,.F.);
#336=IFCDIRECTION((0.,0.,1.));
#337=IFCARBITRARYCLOSEDPROFILEDEF(.AREA.,$,#335);
#338=IFCCARTESIANPOINT((0.,0.,0.));
#339=IFCDIRECTION((0.,0.,1.));
#340=IFCDIRECTION((1.,0.,0.));
#341=IFCAXIS2PLACEMENT3D(#338,#339,#340);
#342=IFCEXTRUDEDAREASOLID(#337,#341,#336,3.2000000000000002);
#343=IFCSHAPEREPRESENTATION(#11,'Body','SweptSolid',(#342));
#344=IFCCARTESIANPOINT((0.,3.,0.));
#345=IFCDIRECTION((0.,0.,1.));
#346=IFCDIRECTION((1.,0.,0.));
#347=IFCAXIS2PLACEMENT3D(#344,#345,#346);
#348=IFCLOCALPLACEMENT(#28,#347);
#349=IFCPRODUCTDEFINITIONSHAPE($,$,(#343));
#350=IFCWALL('3lnCsZ$4j6hwAbPKRHRzqb',$,'BACK-OF-HOUSE-W10',$,$,#365,#366,$,$);
#351=IFCCARTESIANPOINTLIST2D(((0.,0.),(0.,0.14999999999999999),(3.,0.14999999999999999),(3.,0.),(0.,0.)));
#352=IFCINDEXEDPOLYCURVE(#351,$,.F.);
#353=IFCDIRECTION((0.,0.,1.));
#354=IFCARBITRARYCLOSEDPROFILEDEF(.AREA.,$,#352);
#355=IFCCARTESIANPOINT((0.,0.,0.));
#356=IFCDIRECTION((0.,0.,1.));
#357=IFCDIRECTION((1.,0.,0.));
#358=IFCAXIS2PLACEMENT3D(#355,#356,#357);
#359=IFCEXTRUDEDAREASOLID(#354,#358,#353,3.2000000000000002);
#360=IFCSHAPEREPRESENTATION(#11,'Body','SweptSolid',(#359));
#361=IFCCARTESIANPOINT((4.,3.,0.));
#362=IFCDIRECTION((0.,0.,1.));
#363=IFCDIRECTION((0.,1.,0.));
#364=IFCAXIS2PLACEMENT3D(#361,#362,#363);
#365=IFCLOCALPLACEMENT(#28,#364);
#366=IFCPRODUCTDEFINITIONSHAPE($,$,(#360));
#367=IFCWALL('0qY8T_Oez47OzT2ZpOm0G1',$,'BACK-OF-HOUSE-W11',$,$,#382,#383,$,$);
#368=IFCCARTESIANPOINTLIST2D(((0.,0.),(0.,0.14999999999999999),(4.,0.14999999999999999),(4.,0.),(0.,0.)));
#369=IFCINDEXEDPOLYCURVE(#368,$,.F.);
#370=IFCDIRECTION((0.,0.,1.));
#371=IFCARBITRARYCLOSEDPROFILEDEF(.AREA.,$,#369);
#372=IFCCARTESIANPOINT((0.,0.,0.));
#373=IFCDIRECTION((0.,0.,1.));
#374=IFCDIRECTION((1.,0.,0.));
#375=IFCAXIS2PLACEMENT3D(#372,#373,#374);
#376=IFCEXTRUDEDAREASOLID(#371,#375,#370,3.2000000000000002);
#377=IFCSHAPEREPRESENTATION(#11,'Body','SweptSolid',(#376));
#378=IFCCARTESIANPOINT((4.,6.,0.));
#379=IFCDIRECTION((0.,0.,1.));
#380=IFCDIRECTION((-1.,0.,0.));
#381=IFCAXIS2PLACEMENT3D(#378,#379,#380);
#382=IFCLOCALPLACEMENT(#28,#381);
#383=IFCPRODUCTDEFINITIONSHAPE($,$,(#377));
#384=IFCWALL('1Y_uMpJ2XF6B5dLDJ5IAe9',$,'BACK-OF-HOUSE-W12',$,$,#399,#400,$,$);
#385=IFCCARTESIANPOINTLIST2D(((0.,0.),(0.,0.14999999999999999),(3.,0.14999999999999999),(3.,0.),(0.,0.)));
#386=IFCINDEXEDPOLYCURVE(#385,$,.F.);
#387=IFCDIRECTION((0.,0.,1.));
#388=IFCARBITRARYCLOSEDPROFILEDEF(.AREA.,$,#386);
#389=IFCCARTESIANPOINT((0.,0.,0.));
#390=IFCDIRECTION((0.,0.,1.));
#391=IFCDIRECTION((1.,0.,0.));
#392=IFCAXIS2PLACEMENT3D(#389,#390,#391);
#393=IFCEXTRUDEDAREASOLID(#388,#392,#387,3.2000000000000002);
#394=IFCSHAPEREPRESENTATION(#11,'Body','SweptSolid',(#393));
#395=IFCCARTESIANPOINT((0.,6.,0.));
#396=IFCDIRECTION((0.,0.,1.));
#397=IFCDIRECTION((0.,-1.,0.));
#398=IFCAXIS2PLACEMENT3D(#395,#396,#397);
#399=IFCLOCALPLACEMENT(#28,#398);
#400=IFCPRODUCTDEFINITIONSHAPE($,$,(#394));
#401=IFCWALL('08ipSrbiXCJRpP8myqcpiR',$,'STORE-W13',$,$,#416,#417,$,$);
#402=IFCCARTESIANPOINTLIST2D(((0.,0.),(0.,0.14999999999999999),(3.,0.14999999999999999),(3.,0.),(0.,0.)));
#403=IFCINDEXEDPOLYCURVE(#402,$,.F.);
#404=IFCDIRECTION((0.,0.,1.));
#405=IFCARBITRARYCLOSEDPROFILEDEF(.AREA.,$,#403);
#406=IFCCARTESIANPOINT((0.,0.,0.));
#407=IFCDIRECTION((0.,0.,1.));
#408=IFCDIRECTION((1.,0.,0.));
#409=IFCAXIS2PLACEMENT3D(#406,#407,#408);
#410=IFCEXTRUDEDAREASOLID(#405,#409,#404,3.2000000000000002);
#411=IFCSHAPEREPRESENTATION(#11,'Body','SweptSolid',(#410));
#412=IFCCARTESIANPOINT((0.,6.,0.));
#413=IFCDIRECTION((0.,0.,1.));
#414=IFCDIRECTION((1.,0.,0.));
#415=IFCAXIS2PLACEMENT3D(#412,#413,#414);
#416=IFCLOCALPLACEMENT(#28,#415);
#417=IFCPRODUCTDEFINITIONSHAPE($,$,(#411));
#418=IFCWALL('1FCjsFp3DDDuYqqmfqbCYd',$,'STORE-W14',$,$,#433,#434,$,$);
#419=IFCCARTESIANPOINTLIST2D(((0.,0.),(0.,0.14999999999999999),(2.,0.14999999999999999),(2.,0.),(0.,0.)));
#420=IFCINDEXEDPOLYCURVE(#419,$,.F.);
#421=IFCDIRECTION((0.,0.,1.));
#422=IFCARBITRARYCLOSEDPROFILEDEF(.AREA.,$,#420);
#423=IFCCARTESIANPOINT((0.,0.,0.));
#424=IFCDIRECTION((0.,0.,1.));
#425=IFCDIRECTION((1.,0.,0.));
#426=IFCAXIS2PLACEMENT3D(#423,#424,#425);
#427=IFCEXTRUDEDAREASOLID(#422,#426,#421,3.2000000000000002);
#428=IFCSHAPEREPRESENTATION(#11,'Body','SweptSolid',(#427));
#429=IFCCARTESIANPOINT((3.,6.,0.));
#430=IFCDIRECTION((0.,0.,1.));
#431=IFCDIRECTION((0.,1.,0.));
#432=IFCAXIS2PLACEMENT3D(#429,#430,#431);
#433=IFCLOCALPLACEMENT(#28,#432);
#434=IFCPRODUCTDEFINITIONSHAPE($,$,(#428));
#435=IFCWALL('3cw96LvTr5JPqV_BUhxrYF',$,'STORE-W15',$,$,#450,#451,$,$);
#436=IFCCARTESIANPOINTLIST2D(((0.,0.),(0.,0.14999999999999999),(3.,0.14999999999999999),(3.,0.),(0.,0.)));
#437=IFCINDEXEDPOLYCURVE(#436,$,.F.);
#438=IFCDIRECTION((0.,0.,1.));
#439=IFCARBITRARYCLOSEDPROFILEDEF(.AREA.,$,#437);
#440=IFCCARTESIANPOINT((0.,0.,0.));
#441=IFCDIRECTION((0.,0.,1.));
#442=IFCDIRECTION((1.,0.,0.));
#443=IFCAXIS2PLACEMENT3D(#440,#441,#442);
#444=IFCEXTRUDEDAREASOLID(#439,#443,#438,3.2000000000000002);
#445=IFCSHAPEREPRESENTATION(#11,'Body','SweptSolid',(#444));
#446=IFCCARTESIANPOINT((3.,8.,0.));
#447=IFCDIRECTION((0.,0.,1.));
#448=IFCDIRECTION((-1.,0.,0.));
#449=IFCAXIS2PLACEMENT3D(#446,#447,#448);
#450=IFCLOCALPLACEMENT(#28,#449);
#451=IFCPRODUCTDEFINITIONSHAPE($,$,(#445));
#452=IFCWALL('2gmc2c93L1KBiIczg80n0g',$,'STORE-W16',$,$,#467,#468,$,$);
#453=IFCCARTESIANPOINTLIST2D(((0.,0.),(0.,0.14999999999999999),(2.,0.14999999999999999),(2.,0.),(0.,0.)));
#454=IFCINDEXEDPOLYCURVE(#453,$,.F.);
#455=IFCDIRECTION((0.,0.,1.));
#456=IFCARBITRARYCLOSEDPROFILEDEF(.AREA.,$,#454);
#457=IFCCARTESIANPOINT((0.,0.,0.));
#458=IFCDIRECTION((0.,0.,1.));
#459=IFCDIRECTION((1.,0.,0.));
#460=IFCAXIS2PLACEMENT3D(#457,#458,#459);
#461=IFCEXTRUDEDAREASOLID(#456,#460,#455,3.2000000000000002);
#462=IFCSHAPEREPRESENTATION(#11,'Body','SweptSolid',(#461));
#463=IFCCARTESIANPOINT((0.,8.,0.));
#464=IFCDIRECTION((0.,0.,1.));
#465=IFCDIRECTION((0.,-1.,0.));
#466=IFCAXIS2PLACEMENT3D(#463,#464,#465);
#467=IFCLOCALPLACEMENT(#28,#466);
#468=IFCPRODUCTDEFINITIONSHAPE($,$,(#462));
#469=IFCWALL('0YbPw5zzT8ZuoGZTkCvCh$',$,'WC-W17',$,$,#484,#485,$,$);
#470=IFCCARTESIANPOINTLIST2D(((0.,0.),(0.,0.14999999999999999),(2.,0.14999999999999999),(2.,0.),(0.,0.)));
#471=IFCINDEXEDPOLYCURVE(#470,$,.F.);
#472=IFCDIRECTION((0.,0.,1.));
#473=IFCARBITRARYCLOSEDPROFILEDEF(.AREA.,$,#471);
#474=IFCCARTESIANPOINT((0.,0.,0.));
#475=IFCDIRECTION((0.,0.,1.));
#476=IFCDIRECTION((1.,0.,0.));
#477=IFCAXIS2PLACEMENT3D(#474,#475,#476);
#478=IFCEXTRUDEDAREASOLID(#473,#477,#472,3.2000000000000002);
#479=IFCSHAPEREPRESENTATION(#11,'Body','SweptSolid',(#478));
#480=IFCCARTESIANPOINT((3.,6.,0.));
#481=IFCDIRECTION((0.,0.,1.));
#482=IFCDIRECTION((1.,0.,0.));
#483=IFCAXIS2PLACEMENT3D(#480,#481,#482);
#484=IFCLOCALPLACEMENT(#28,#483);
#485=IFCPRODUCTDEFINITIONSHAPE($,$,(#479));
#486=IFCWALL('19C7QmvqT6oAiqLe_yKo_r',$,'WC-W18',$,$,#501,#502,$,$);
#487=IFCCARTESIANPOINTLIST2D(((0.,0.),(0.,0.14999999999999999),(2.,0.14999999999999999),(2.,0.),(0.,0.)));
#488=IFCINDEXEDPOLYCURVE(#487,$,.F.);
#489=IFCDIRECTION((0.,0.,1.));
#490=IFCARBITRARYCLOSEDPROFILEDEF(.AREA.,$,#488);
#491=IFCCARTESIANPOINT((0.,0.,0.));
#492=IFCDIRECTION((0.,0.,1.));
#493=IFCDIRECTION((1.,0.,0.));
#494=IFCAXIS2PLACEMENT3D(#491,#492,#493);
#495=IFCEXTRUDEDAREASOLID(#490,#494,#489,3.2000000000000002);
#496=IFCSHAPEREPRESENTATION(#11,'Body','SweptSolid',(#495));
#497=IFCCARTESIANPOINT((5.,6.,0.));
#498=IFCDIRECTION((0.,0.,1.));
#499=IFCDIRECTION((0.,1.,0.));
#500=IFCAXIS2PLACEMENT3D(#497,#498,#499);
#501=IFCLOCALPLACEMENT(#28,#500);
#502=IFCPRODUCTDEFINITIONSHAPE($,$,(#496));
#503=IFCWALL('3Voant6pfFNxQ$Byj$yfvf',$,'WC-W19',$,$,#518,#519,$,$);
#504=IFCCARTESIANPOINTLIST2D(((0.,0.),(0.,0.14999999999999999),(2.,0.14999999999999999),(2.,0.),(0.,0.)));
#505=IFCINDEXEDPOLYCURVE(#504,$,.F.);
#506=IFCDIRECTION((0.,0.,1.));
#507=IFCARBITRARYCLOSEDPROFILEDEF(.AREA.,$,#505);
#508=IFCCARTESIANPOINT((0.,0.,0.));
#509=IFCDIRECTION((0.,0.,1.));
#510=IFCDIRECTION((1.,0.,0.));
#511=IFCAXIS2PLACEMENT3D(#508,#509,#510);
#512=IFCEXTRUDEDAREASOLID(#507,#511,#506,3.2000000000000002);
#513=IFCSHAPEREPRESENTATION(#11,'Body','SweptSolid',(#512));
#514=IFCCARTESIANPOINT((5.,8.,0.));
#515=IFCDIRECTION((0.,0.,1.));
#516=IFCDIRECTION((-1.,0.,0.));
#517=IFCAXIS2PLACEMENT3D(#514,#515,#516);
#518=IFCLOCALPLACEMENT(#28,#517);
#519=IFCPRODUCTDEFINITIONSHAPE($,$,(#513));
#520=IFCWALL('3Xb06x4Vv3jukiYAdih7aX',$,'WC-W20',$,$,#535,#536,$,$);
#521=IFCCARTESIANPOINTLIST2D(((0.,0.),(0.,0.14999999999999999),(2.,0.14999999999999999),(2.,0.),(0.,0.)));
#522=IFCINDEXEDPOLYCURVE(#521,$,.F.);
#523=IFCDIRECTION((0.,0.,1.));
#524=IFCARBITRARYCLOSEDPROFILEDEF(.AREA.,$,#522);
#525=IFCCARTESIANPOINT((0.,0.,0.));
#526=IFCDIRECTION((0.,0.,1.));
#527=IFCDIRECTION((1.,0.,0.));
#528=IFCAXIS2PLACEMENT3D(#525,#526,#527);
#529=IFCEXTRUDEDAREASOLID(#524,#528,#523,3.2000000000000002);
#530=IFCSHAPEREPRESENTATION(#11,'Body','SweptSolid',(#529));
#531=IFCCARTESIANPOINT((3.,8.,0.));
#532=IFCDIRECTION((0.,0.,1.));
#533=IFCDIRECTION((0.,-1.,0.));
#534=IFCAXIS2PLACEMENT3D(#531,#532,#533);
#535=IFCLOCALPLACEMENT(#28,#534);
#536=IFCPRODUCTDEFINITIONSHAPE($,$,(#530));
ENDSEC;
END-ISO-10303-21;
