ISO-10303-21;
HEADER;
FILE_DESCRIPTION(('ViewDefinition [CoordinationView]'),'2;1');
FILE_NAME('','2026-05-22T15:33:52',(''),(''),'IfcOpenShell 0.8.5-1c5b825','IfcOpenShell 0.8.5-1c5b825','');
FILE_SCHEMA(('IFC4'));
ENDSEC;
DATA;
#1=IFCPROJECT('1zketz3fjE6OIuRJ0gS8P3',$,'Gallery Pavilion Ground Truth',$,$,$,$,(#10),#5);
#2=IFCSIUNIT(*,.LENGTHUNIT.,.MILLI.,.METRE.);
#3=IFCSIUNIT(*,.AREAUNIT.,$,.SQUARE_METRE.);
#4=IFCSIUNIT(*,.VOLUMEUNIT.,$,.CUBIC_METRE.);
#5=IFCUNITASSIGNMENT((#2,#3,#4));
#6=IFCCARTESIANPOINT((0.,0.,0.));
#7=IFCDIRECTION((0.,0.,1.));
#8=IFCDIRECTION((1.,0.,0.));
#9=IFCAXIS2PLACEMENT3D(#6,#7,#8);
#10=IFCGEOMETRICREPRESENTATIONCONTEXT($,'Model',3,1.0000000000000001E-05,#9,$);
#11=IFCGEOMETRICREPRESENTATIONSUBCONTEXT('Body','Model',*,*,*,*,#10,$,.MODEL_VIEW.,$);
#12=IFCSITE('2$He2Z$QL3gg_Z8cqwc3Mc',$,'Default Site',$,$,$,$,$,$,$,$,$,$,$);
#13=IFCBUILDING('0jVFbyjCPEUfZUPJbxC3SX',$,'Archicad Task Building',$,$,$,$,$,$,$,$,$);
#14=IFCRELAGGREGATES('1vFdcS6C10tv2ZjHCGHidj',$,$,$,#1,(#12));
#15=IFCRELAGGREGATES('1BIDLTyGX2_ua4J8SynP5W',$,$,$,#12,(#13));
#16=IFCBUILDINGSTOREY('0hQwG4_6964QYn7ZNXDUBR',$,'Ground Floor',$,$,#22,$,$,$,$);
#17=IFCRELAGGREGATES('1GND$Ow9TCYPFVgIRauJT8',$,$,$,#13,(#16));
#18=IFCCARTESIANPOINT((0.,0.,0.));
#19=IFCDIRECTION((0.,0.,1.));
#20=IFCDIRECTION((1.,0.,0.));
#21=IFCAXIS2PLACEMENT3D(#18,#19,#20);
#22=IFCLOCALPLACEMENT($,#21);
#23=IFCWALL('1bhxLSt1L4pQWbowERdJey',$,'Exterior Wall 1',$,$,#45,#34,$,$);
#24=IFCCARTESIANPOINTLIST2D(((0.,0.),(0.,200.),(12000.,200.),(12000.,0.),(0.,0.)));
#25=IFCINDEXEDPOLYCURVE(#24,$,.F.);
#26=IFCDIRECTION((0.,0.,1.));
#27=IFCARBITRARYCLOSEDPROFILEDEF(.AREA.,$,#25);
#28=IFCCARTESIANPOINT((0.,0.,0.));
#29=IFCDIRECTION((0.,0.,1.));
#30=IFCDIRECTION((1.,0.,0.));
#31=IFCAXIS2PLACEMENT3D(#28,#29,#30);
#32=IFCEXTRUDEDAREASOLID(#27,#31,#26,3000.);
#33=IFCSHAPEREPRESENTATION(#11,'Body','SweptSolid',(#32));
#34=IFCPRODUCTDEFINITIONSHAPE($,$,(#33));
#40=IFCRELCONTAINEDINSPATIALSTRUCTURE('1vsXk20tv3j9Y6LNVDU50Z',$,$,$,(#134,#620,#675,#730,#280,#785,#535,#23,#262,#450,#46,#90,#112,#68,#156,#178,#244,#200,#222,#365),#16);
#41=IFCCARTESIANPOINT((0.,0.,0.));
#42=IFCDIRECTION((0.,0.,1.));
#43=IFCDIRECTION((1.,0.,0.));
#44=IFCAXIS2PLACEMENT3D(#41,#42,#43);
#45=IFCLOCALPLACEMENT(#22,#44);
#46=IFCWALL('2HDEfKBM5EchzU3aY6bX2_',$,'Exterior Wall 2',$,$,#67,#57,$,$);
#47=IFCCARTESIANPOINTLIST2D(((0.,0.),(0.,200.),(12000.,200.),(12000.,0.),(0.,0.)));
#48=IFCINDEXEDPOLYCURVE(#47,$,.F.);
#49=IFCDIRECTION((0.,0.,1.));
#50=IFCARBITRARYCLOSEDPROFILEDEF(.AREA.,$,#48);
#51=IFCCARTESIANPOINT((0.,0.,0.));
#52=IFCDIRECTION((0.,0.,1.));
#53=IFCDIRECTION((1.,0.,0.));
#54=IFCAXIS2PLACEMENT3D(#51,#52,#53);
#55=IFCEXTRUDEDAREASOLID(#50,#54,#49,3000.);
#56=IFCSHAPEREPRESENTATION(#11,'Body','SweptSolid',(#55));
#57=IFCPRODUCTDEFINITIONSHAPE($,$,(#56));
#63=IFCCARTESIANPOINT((0.,8000.,0.));
#64=IFCDIRECTION((0.,0.,1.));
#65=IFCDIRECTION((1.,0.,0.));
#66=IFCAXIS2PLACEMENT3D(#63,#64,#65);
#67=IFCLOCALPLACEMENT(#22,#66);
#68=IFCWALL('1Dg2CSl1jCaRrda0Dzy_Kl',$,'Exterior Wall 3',$,$,#89,#79,$,$);
#69=IFCCARTESIANPOINTLIST2D(((0.,0.),(0.,200.),(8000.,200.),(8000.,0.),(0.,0.)));
#70=IFCINDEXEDPOLYCURVE(#69,$,.F.);
#71=IFCDIRECTION((0.,0.,1.));
#72=IFCARBITRARYCLOSEDPROFILEDEF(.AREA.,$,#70);
#73=IFCCARTESIANPOINT((0.,0.,0.));
#74=IFCDIRECTION((0.,0.,1.));
#75=IFCDIRECTION((1.,0.,0.));
#76=IFCAXIS2PLACEMENT3D(#73,#74,#75);
#77=IFCEXTRUDEDAREASOLID(#72,#76,#71,3000.);
#78=IFCSHAPEREPRESENTATION(#11,'Body','SweptSolid',(#77));
#79=IFCPRODUCTDEFINITIONSHAPE($,$,(#78));
#85=IFCCARTESIANPOINT((0.,0.,0.));
#86=IFCDIRECTION((0.,0.,1.));
#87=IFCDIRECTION((6.123233995736766E-17,1.,0.));
#88=IFCAXIS2PLACEMENT3D(#85,#86,#87);
#89=IFCLOCALPLACEMENT(#22,#88);
#90=IFCWALL('0aTMPMngz8WwD$30yJ92Dz',$,'Exterior Wall 4',$,$,#111,#101,$,$);
#91=IFCCARTESIANPOINTLIST2D(((0.,0.),(0.,200.),(8000.,200.),(8000.,0.),(0.,0.)));
#92=IFCINDEXEDPOLYCURVE(#91,$,.F.);
#93=IFCDIRECTION((0.,0.,1.));
#94=IFCARBITRARYCLOSEDPROFILEDEF(.AREA.,$,#92);
#95=IFCCARTESIANPOINT((0.,0.,0.));
#96=IFCDIRECTION((0.,0.,1.));
#97=IFCDIRECTION((1.,0.,0.));
#98=IFCAXIS2PLACEMENT3D(#95,#96,#97);
#99=IFCEXTRUDEDAREASOLID(#94,#98,#93,3000.);
#100=IFCSHAPEREPRESENTATION(#11,'Body','SweptSolid',(#99));
#101=IFCPRODUCTDEFINITIONSHAPE($,$,(#100));
#107=IFCCARTESIANPOINT((12000.,0.,0.));
#108=IFCDIRECTION((0.,0.,1.));
#109=IFCDIRECTION((6.123233995736766E-17,1.,0.));
#110=IFCAXIS2PLACEMENT3D(#107,#108,#109);
#111=IFCLOCALPLACEMENT(#22,#110);
#112=IFCWALL('0hTZOi6pn9BfqunizW_L57',$,'Interior Partition 1',$,$,#133,#123,$,$);
#113=IFCCARTESIANPOINTLIST2D(((0.,0.),(0.,120.),(7599.9999999999991,120.),(7599.9999999999991,0.),(0.,0.)));
#114=IFCINDEXEDPOLYCURVE(#113,$,.F.);
#115=IFCDIRECTION((0.,0.,1.));
#116=IFCARBITRARYCLOSEDPROFILEDEF(.AREA.,$,#114);
#117=IFCCARTESIANPOINT((0.,0.,0.));
#118=IFCDIRECTION((0.,0.,1.));
#119=IFCDIRECTION((1.,0.,0.));
#120=IFCAXIS2PLACEMENT3D(#117,#118,#119);
#121=IFCEXTRUDEDAREASOLID(#116,#120,#115,3000.);
#122=IFCSHAPEREPRESENTATION(#11,'Body','SweptSolid',(#121));
#123=IFCPRODUCTDEFINITIONSHAPE($,$,(#122));
#129=IFCCARTESIANPOINT((1714.2857142857142,200.,0.));
#130=IFCDIRECTION((0.,0.,1.));
#131=IFCDIRECTION((6.123233995736766E-17,1.,0.));
#132=IFCAXIS2PLACEMENT3D(#129,#130,#131);
#133=IFCLOCALPLACEMENT(#22,#132);
#134=IFCWALL('0j2xvWfQf6nBpuue2UvcF2',$,'Interior Partition 2',$,$,#155,#145,$,$);
#135=IFCCARTESIANPOINTLIST2D(((0.,0.),(0.,120.),(7599.9999999999991,120.),(7599.9999999999991,0.),(0.,0.)));
#136=IFCINDEXEDPOLYCURVE(#135,$,.F.);
#137=IFCDIRECTION((0.,0.,1.));
#138=IFCARBITRARYCLOSEDPROFILEDEF(.AREA.,$,#136);
#139=IFCCARTESIANPOINT((0.,0.,0.));
#140=IFCDIRECTION((0.,0.,1.));
#141=IFCDIRECTION((1.,0.,0.));
#142=IFCAXIS2PLACEMENT3D(#139,#140,#141);
#143=IFCEXTRUDEDAREASOLID(#138,#142,#137,3000.);
#144=IFCSHAPEREPRESENTATION(#11,'Body','SweptSolid',(#143));
#145=IFCPRODUCTDEFINITIONSHAPE($,$,(#144));
#151=IFCCARTESIANPOINT((3428.5714285714284,200.,0.));
#152=IFCDIRECTION((0.,0.,1.));
#153=IFCDIRECTION((6.123233995736766E-17,1.,0.));
#154=IFCAXIS2PLACEMENT3D(#151,#152,#153);
#155=IFCLOCALPLACEMENT(#22,#154);
#156=IFCWALL('3Au09l9yv5zhP4f1pkMVxX',$,'Interior Partition 3',$,$,#177,#167,$,$);
#157=IFCCARTESIANPOINTLIST2D(((0.,0.),(0.,120.),(7599.9999999999991,120.),(7599.9999999999991,0.),(0.,0.)));
#158=IFCINDEXEDPOLYCURVE(#157,$,.F.);
#159=IFCDIRECTION((0.,0.,1.));
#160=IFCARBITRARYCLOSEDPROFILEDEF(.AREA.,$,#158);
#161=IFCCARTESIANPOINT((0.,0.,0.));
#162=IFCDIRECTION((0.,0.,1.));
#163=IFCDIRECTION((1.,0.,0.));
#164=IFCAXIS2PLACEMENT3D(#161,#162,#163);
#165=IFCEXTRUDEDAREASOLID(#160,#164,#159,3000.);
#166=IFCSHAPEREPRESENTATION(#11,'Body','SweptSolid',(#165));
#167=IFCPRODUCTDEFINITIONSHAPE($,$,(#166));
#173=IFCCARTESIANPOINT((5142.8571428571431,200.,0.));
#174=IFCDIRECTION((0.,0.,1.));
#175=IFCDIRECTION((6.123233995736766E-17,1.,0.));
#176=IFCAXIS2PLACEMENT3D(#173,#174,#175);
#177=IFCLOCALPLACEMENT(#22,#176);
#178=IFCWALL('1eaJ60lRH6iOtLOnTfMMAQ',$,'Interior Partition 4',$,$,#199,#189,$,$);
#179=IFCCARTESIANPOINTLIST2D(((0.,0.),(0.,120.),(7599.9999999999991,120.),(7599.9999999999991,0.),(0.,0.)));
#180=IFCINDEXEDPOLYCURVE(#179,$,.F.);
#181=IFCDIRECTION((0.,0.,1.));
#182=IFCARBITRARYCLOSEDPROFILEDEF(.AREA.,$,#180);
#183=IFCCARTESIANPOINT((0.,0.,0.));
#184=IFCDIRECTION((0.,0.,1.));
#185=IFCDIRECTION((1.,0.,0.));
#186=IFCAXIS2PLACEMENT3D(#183,#184,#185);
#187=IFCEXTRUDEDAREASOLID(#182,#186,#181,3000.);
#188=IFCSHAPEREPRESENTATION(#11,'Body','SweptSolid',(#187));
#189=IFCPRODUCTDEFINITIONSHAPE($,$,(#188));
#195=IFCCARTESIANPOINT((6857.1428571428569,200.,0.));
#196=IFCDIRECTION((0.,0.,1.));
#197=IFCDIRECTION((6.123233995736766E-17,1.,0.));
#198=IFCAXIS2PLACEMENT3D(#195,#196,#197);
#199=IFCLOCALPLACEMENT(#22,#198);
#200=IFCWALL('2fdnpbLgnBPPRUrmhAF3gg',$,'Interior Partition 5',$,$,#221,#211,$,$);
#201=IFCCARTESIANPOINTLIST2D(((0.,0.),(0.,120.),(7599.9999999999991,120.),(7599.9999999999991,0.),(0.,0.)));
#202=IFCINDEXEDPOLYCURVE(#201,$,.F.);
#203=IFCDIRECTION((0.,0.,1.));
#204=IFCARBITRARYCLOSEDPROFILEDEF(.AREA.,$,#202);
#205=IFCCARTESIANPOINT((0.,0.,0.));
#206=IFCDIRECTION((0.,0.,1.));
#207=IFCDIRECTION((1.,0.,0.));
#208=IFCAXIS2PLACEMENT3D(#205,#206,#207);
#209=IFCEXTRUDEDAREASOLID(#204,#208,#203,3000.);
#210=IFCSHAPEREPRESENTATION(#11,'Body','SweptSolid',(#209));
#211=IFCPRODUCTDEFINITIONSHAPE($,$,(#210));
#217=IFCCARTESIANPOINT((8571.4285714285706,200.,0.));
#218=IFCDIRECTION((0.,0.,1.));
#219=IFCDIRECTION((6.123233995736766E-17,1.,0.));
#220=IFCAXIS2PLACEMENT3D(#217,#218,#219);
#221=IFCLOCALPLACEMENT(#22,#220);
#222=IFCWALL('3F$zw4b39CfxsllhuFdFec',$,'Interior Partition 6',$,$,#243,#233,$,$);
#223=IFCCARTESIANPOINTLIST2D(((0.,0.),(0.,120.),(7599.9999999999991,120.),(7599.9999999999991,0.),(0.,0.)));
#224=IFCINDEXEDPOLYCURVE(#223,$,.F.);
#225=IFCDIRECTION((0.,0.,1.));
#226=IFCARBITRARYCLOSEDPROFILEDEF(.AREA.,$,#224);
#227=IFCCARTESIANPOINT((0.,0.,0.));
#228=IFCDIRECTION((0.,0.,1.));
#229=IFCDIRECTION((1.,0.,0.));
#230=IFCAXIS2PLACEMENT3D(#227,#228,#229);
#231=IFCEXTRUDEDAREASOLID(#226,#230,#225,3000.);
#232=IFCSHAPEREPRESENTATION(#11,'Body','SweptSolid',(#231));
#233=IFCPRODUCTDEFINITIONSHAPE($,$,(#232));
#239=IFCCARTESIANPOINT((10285.714285714286,200.,0.));
#240=IFCDIRECTION((0.,0.,1.));
#241=IFCDIRECTION((6.123233995736766E-17,1.,0.));
#242=IFCAXIS2PLACEMENT3D(#239,#240,#241);
#243=IFCLOCALPLACEMENT(#22,#242);
#244=IFCSLAB('3n_FNV1Rf4OB_CaQp_O7BU',$,'Floor Slab 1',$,$,#261,#251,$,$);
#245=IFCCARTESIANPOINTLIST2D(((0.,0.),(12000.,0.),(12000.,8000.),(0.,8000.),(0.,0.)));
#246=IFCINDEXEDPOLYCURVE(#245,$,$);
#247=IFCDIRECTION((0.,0.,1.));
#248=IFCARBITRARYCLOSEDPROFILEDEF(.AREA.,$,#246);
#249=IFCEXTRUDEDAREASOLID(#248,$,#247,200.);
#250=IFCSHAPEREPRESENTATION(#11,'Body','SweptSolid',(#249));
#251=IFCPRODUCTDEFINITIONSHAPE($,$,(#250));
#257=IFCCARTESIANPOINT((0.,0.,0.));
#258=IFCDIRECTION((0.,0.,1.));
#259=IFCDIRECTION((1.,0.,0.));
#260=IFCAXIS2PLACEMENT3D(#257,#258,#259);
#261=IFCLOCALPLACEMENT(#22,#260);
#262=IFCROOF('3RpJtXvNf2HQ3jl3MjzLt1',$,'Simple Roof 1',$,$,#279,#269,$,$);
#263=IFCCARTESIANPOINTLIST2D(((0.,0.),(12000.,0.),(12000.,8000.),(0.,8000.),(0.,0.)));
#264=IFCINDEXEDPOLYCURVE(#263,$,$);
#265=IFCDIRECTION((0.,0.,1.));
#266=IFCARBITRARYCLOSEDPROFILEDEF(.AREA.,$,#264);
#267=IFCEXTRUDEDAREASOLID(#266,$,#265,180.);
#268=IFCSHAPEREPRESENTATION(#11,'Body','SweptSolid',(#267));
#269=IFCPRODUCTDEFINITIONSHAPE($,$,(#268));
#275=IFCCARTESIANPOINT((0.,0.,3350.));
#276=IFCDIRECTION((0.,0.,1.));
#277=IFCDIRECTION((1.,0.,0.));
#278=IFCAXIS2PLACEMENT3D(#275,#276,#277);
#279=IFCLOCALPLACEMENT(#22,#278);
#280=IFCDOOR('205zKuId54v8Cg2JKAzaWG',$,'Door 1',$,$,#364,#354,$,$,$,$,$,$);
#281=IFCCARTESIANPOINTLIST2D(((0.,0.),(0.,2.1000000000000001),(0.90000000000000002,2.1000000000000001),(0.90000000000000002,0.),(-24.100000000000001,0.),(-24.100000000000001,-22.899999999999999),(25.,-22.899999999999999),(25.,0.)));
#282=IFCINDEXEDPOLYCURVE(#281,(IFCLINEINDEX((1,2,3,4,5,6,7,8,1))),$);
#283=IFCARBITRARYCLOSEDPROFILEDEF(.AREA.,$,#282);
#284=IFCCARTESIANPOINT((0.,25.,0.));
#285=IFCDIRECTION((0.,-1.,0.));
#286=IFCDIRECTION((1.,0.,0.));
#287=IFCAXIS2PLACEMENT3D(#284,#285,#286);
#288=IFCDIRECTION((0.,0.,-1.));
#289=IFCEXTRUDEDAREASOLID(#283,#287,#288,25.);
#290=IFCCARTESIANPOINTLIST2D(((0.,0.),(0.,2.1000000000000001),(0.90000000000000002,2.1000000000000001),(0.90000000000000002,0.),(-49.100000000000001,0.),(-49.100000000000001,-47.899999999999999),(50.,-47.899999999999999),(50.,0.)));
#291=IFCINDEXEDPOLYCURVE(#290,(IFCLINEINDEX((1,2,3,4,5,6,7,8,1))),$);
#292=IFCARBITRARYCLOSEDPROFILEDEF(.AREA.,$,#291);
#293=IFCCARTESIANPOINT((0.,0.,0.));
#294=IFCDIRECTION((0.,-1.,0.));
#295=IFCDIRECTION((1.,0.,0.));
#296=IFCAXIS2PLACEMENT3D(#293,#294,#295);
#297=IFCDIRECTION((0.,0.,-1.));
#298=IFCEXTRUDEDAREASOLID(#292,#296,#297,25.);
#299=IFCCARTESIANPOINTLIST2D(((0.,0.),(-99.099999999999994,0.),(-99.099999999999994,100.),(0.,100.)));
#300=IFCINDEXEDPOLYCURVE(#299,(IFCLINEINDEX((1,2,3,4,1))),$);
#301=IFCARBITRARYCLOSEDPROFILEDEF(.AREA.,$,#300);
#302=IFCCARTESIANPOINT((50.,0.,0.));
#303=IFCDIRECTION((0.,0.,1.));
#304=IFCDIRECTION((1.,0.,0.));
#305=IFCAXIS2PLACEMENT3D(#302,#303,#304);
#306=IFCDIRECTION((0.,0.,1.));
#307=IFCEXTRUDEDAREASOLID(#301,#305,#306,25.);
#308=IFCCARTESIANPOINTLIST2D(((0.,0.),(0.,27.100000000000001),(50.899999999999999,27.100000000000001),(50.899999999999999,0.),(-24.100000000000001,0.),(-24.100000000000001,-47.899999999999999),(75.,-47.899999999999999),(75.,0.)));
#309=IFCINDEXEDPOLYCURVE(#308,(IFCLINEINDEX((1,2,3,4,5,6,7,8,1))),$);
#310=IFCARBITRARYCLOSEDPROFILEDEF(.AREA.,$,#309);
#311=IFCCARTESIANPOINT((-25.,-5.,0.));
#312=IFCDIRECTION((0.,-1.,0.));
#313=IFCDIRECTION((1.,0.,0.));
#314=IFCAXIS2PLACEMENT3D(#311,#312,#313);
#315=IFCDIRECTION((0.,0.,-1.));
#316=IFCEXTRUDEDAREASOLID(#310,#314,#315,5.);
#317=IFCCARTESIANPOINTLIST2D(((0.,0.),(0.,27.100000000000001),(50.899999999999999,27.100000000000001),(50.899999999999999,0.),(0.89999999999999858,0.),(0.89999999999999858,-22.899999999999999),(50.,-22.899999999999999),(50.,0.)));
#318=IFCINDEXEDPOLYCURVE(#317,(IFCLINEINDEX((1,2,3,4,5,6,7,8,1))),$);
#319=IFCARBITRARYCLOSEDPROFILEDEF(.AREA.,$,#318);
#320=IFCCARTESIANPOINT((-25.,50.,0.));
#321=IFCDIRECTION((0.,-1.,0.));
#322=IFCDIRECTION((1.,0.,0.));
#323=IFCAXIS2PLACEMENT3D(#320,#321,#322);
#324=IFCDIRECTION((0.,0.,-1.));
#325=IFCEXTRUDEDAREASOLID(#319,#323,#324,5.);
#326=IFCCARTESIANPOINTLIST2D(((0.,0.),(-49.100000000000001,0.),(-49.100000000000001,35.),(0.,35.)));
#327=IFCINDEXEDPOLYCURVE(#326,(IFCLINEINDEX((1,2,3,4,1))),$);
#328=IFCARBITRARYCLOSEDPROFILEDEF(.AREA.,$,#327);
#329=IFCCARTESIANPOINT((25.,25.,25.));
#330=IFCDIRECTION((0.,0.,1.));
#331=IFCDIRECTION((1.,0.,0.));
#332=IFCAXIS2PLACEMENT3D(#329,#330,#331);
#333=IFCDIRECTION((0.,0.,1.));
#334=IFCEXTRUDEDAREASOLID(#328,#332,#333,-47.899999999999999);
#335=IFCCARTESIANPOINTLIST2D(((0.,0.),(0.,-40.),(-120.00000000000003,-40.),(-120.00000000000003,-20.),(-20.,-20.),(-20.,0.)));
#336=IFCINDEXEDPOLYCURVE(#335,(IFCLINEINDEX((1,2,3,4,5,6,1))),$);
#337=IFCARBITRARYCLOSEDPROFILEDEF(.AREA.,$,#336);
#338=IFCCARTESIANPOINT((-74.099999999999994,25.,1015.));
#339=IFCDIRECTION((0.,0.,1.));
#340=IFCDIRECTION((1.,0.,0.));
#341=IFCAXIS2PLACEMENT3D(#338,#339,#340);
#342=IFCDIRECTION((0.,0.,1.));
#343=IFCEXTRUDEDAREASOLID(#337,#341,#342,20.);
#344=IFCEXTRUDEDAREASOLID(#345,#348,#352,20.);
#345=IFCARBITRARYCLOSEDPROFILEDEF(.AREA.,$,#346);
#346=IFCINDEXEDPOLYCURVE(#347,(IFCLINEINDEX((1,2,3,4,5,6,1))),$);
#347=IFCCARTESIANPOINTLIST2D(((0.,0.),(0.,40.),(-120.00000000000003,40.),(-120.00000000000003,20.),(-20.,20.),(-20.,0.)));
#348=IFCAXIS2PLACEMENT3D(#349,#350,#351);
#349=IFCCARTESIANPOINT((-74.099999999999994,60.,1015.));
#350=IFCDIRECTION((0.,0.,1.));
#351=IFCDIRECTION((1.,0.,0.));
#352=IFCDIRECTION((0.,0.,1.));
#353=IFCSHAPEREPRESENTATION(#11,'Body','SweptSolid',(#289,#298,#334,#343,#344,#307,#316,#325));
#354=IFCPRODUCTDEFINITIONSHAPE($,$,(#353));
#360=IFCCARTESIANPOINT((800.,-50.,0.));
#361=IFCDIRECTION((0.,0.,1.));
#362=IFCDIRECTION((1.,0.,0.));
#363=IFCAXIS2PLACEMENT3D(#360,#361,#362);
#364=IFCLOCALPLACEMENT(#22,#363);
#365=IFCDOOR('2IBI0F$jr9wvQ81q19MngF',$,'Door 2',$,$,#449,#439,$,$,$,$,$,$);
#366=IFCCARTESIANPOINTLIST2D(((0.,0.),(0.,2.1000000000000001),(0.90000000000000002,2.1000000000000001),(0.90000000000000002,0.),(-24.100000000000001,0.),(-24.100000000000001,-22.899999999999999),(25.,-22.899999999999999),(25.,0.)));
#367=IFCINDEXEDPOLYCURVE(#366,(IFCLINEINDEX((1,2,3,4,5,6,7,8,1))),$);
#368=IFCARBITRARYCLOSEDPROFILEDEF(.AREA.,$,#367);
#369=IFCCARTESIANPOINT((0.,25.,0.));
#370=IFCDIRECTION((0.,-1.,0.));
#371=IFCDIRECTION((1.,0.,0.));
#372=IFCAXIS2PLACEMENT3D(#369,#370,#371);
#373=IFCDIRECTION((0.,0.,-1.));
#374=IFCEXTRUDEDAREASOLID(#368,#372,#373,25.);
#375=IFCCARTESIANPOINTLIST2D(((0.,0.),(0.,2.1000000000000001),(0.90000000000000002,2.1000000000000001),(0.90000000000000002,0.),(-49.100000000000001,0.),(-49.100000000000001,-47.899999999999999),(50.,-47.899999999999999),(50.,0.)));
#376=IFCINDEXEDPOLYCURVE(#375,(IFCLINEINDEX((1,2,3,4,5,6,7,8,1))),$);
#377=IFCARBITRARYCLOSEDPROFILEDEF(.AREA.,$,#376);
#378=IFCCARTESIANPOINT((0.,0.,0.));
#379=IFCDIRECTION((0.,-1.,0.));
#380=IFCDIRECTION((1.,0.,0.));
#381=IFCAXIS2PLACEMENT3D(#378,#379,#380);
#382=IFCDIRECTION((0.,0.,-1.));
#383=IFCEXTRUDEDAREASOLID(#377,#381,#382,25.);
#384=IFCCARTESIANPOINTLIST2D(((0.,0.),(-99.099999999999994,0.),(-99.099999999999994,100.),(0.,100.)));
#385=IFCINDEXEDPOLYCURVE(#384,(IFCLINEINDEX((1,2,3,4,1))),$);
#386=IFCARBITRARYCLOSEDPROFILEDEF(.AREA.,$,#385);
#387=IFCCARTESIANPOINT((50.,0.,0.));
#388=IFCDIRECTION((0.,0.,1.));
#389=IFCDIRECTION((1.,0.,0.));
#390=IFCAXIS2PLACEMENT3D(#387,#388,#389);
#391=IFCDIRECTION((0.,0.,1.));
#392=IFCEXTRUDEDAREASOLID(#386,#390,#391,25.);
#393=IFCCARTESIANPOINTLIST2D(((0.,0.),(0.,27.100000000000001),(50.899999999999999,27.100000000000001),(50.899999999999999,0.),(-24.100000000000001,0.),(-24.100000000000001,-47.899999999999999),(75.,-47.899999999999999),(75.,0.)));
#394=IFCINDEXEDPOLYCURVE(#393,(IFCLINEINDEX((1,2,3,4,5,6,7,8,1))),$);
#395=IFCARBITRARYCLOSEDPROFILEDEF(.AREA.,$,#394);
#396=IFCCARTESIANPOINT((-25.,-5.,0.));
#397=IFCDIRECTION((0.,-1.,0.));
#398=IFCDIRECTION((1.,0.,0.));
#399=IFCAXIS2PLACEMENT3D(#396,#397,#398);
#400=IFCDIRECTION((0.,0.,-1.));
#401=IFCEXTRUDEDAREASOLID(#395,#399,#400,5.);
#402=IFCCARTESIANPOINTLIST2D(((0.,0.),(0.,27.100000000000001),(50.899999999999999,27.100000000000001),(50.899999999999999,0.),(0.89999999999999858,0.),(0.89999999999999858,-22.899999999999999),(50.,-22.899999999999999),(50.,0.)));
#403=IFCINDEXEDPOLYCURVE(#402,(IFCLINEINDEX((1,2,3,4,5,6,7,8,1))),$);
#404=IFCARBITRARYCLOSEDPROFILEDEF(.AREA.,$,#403);
#405=IFCCARTESIANPOINT((-25.,50.,0.));
#406=IFCDIRECTION((0.,-1.,0.));
#407=IFCDIRECTION((1.,0.,0.));
#408=IFCAXIS2PLACEMENT3D(#405,#406,#407);
#409=IFCDIRECTION((0.,0.,-1.));
#410=IFCEXTRUDEDAREASOLID(#404,#408,#409,5.);
#411=IFCCARTESIANPOINTLIST2D(((0.,0.),(-49.100000000000001,0.),(-49.100000000000001,35.),(0.,35.)));
#412=IFCINDEXEDPOLYCURVE(#411,(IFCLINEINDEX((1,2,3,4,1))),$);
#413=IFCARBITRARYCLOSEDPROFILEDEF(.AREA.,$,#412);
#414=IFCCARTESIANPOINT((25.,25.,25.));
#415=IFCDIRECTION((0.,0.,1.));
#416=IFCDIRECTION((1.,0.,0.));
#417=IFCAXIS2PLACEMENT3D(#414,#415,#416);
#418=IFCDIRECTION((0.,0.,1.));
#419=IFCEXTRUDEDAREASOLID(#413,#417,#418,-47.899999999999999);
#420=IFCCARTESIANPOINTLIST2D(((0.,0.),(0.,-40.),(-120.00000000000003,-40.),(-120.00000000000003,-20.),(-20.,-20.),(-20.,0.)));
#421=IFCINDEXEDPOLYCURVE(#420,(IFCLINEINDEX((1,2,3,4,5,6,1))),$);
#422=IFCARBITRARYCLOSEDPROFILEDEF(.AREA.,$,#421);
#423=IFCCARTESIANPOINT((-74.099999999999994,25.,1015.));
#424=IFCDIRECTION((0.,0.,1.));
#425=IFCDIRECTION((1.,0.,0.));
#426=IFCAXIS2PLACEMENT3D(#423,#424,#425);
#427=IFCDIRECTION((0.,0.,1.));
#428=IFCEXTRUDEDAREASOLID(#422,#426,#427,20.);
#429=IFCEXTRUDEDAREASOLID(#430,#433,#437,20.);
#430=IFCARBITRARYCLOSEDPROFILEDEF(.AREA.,$,#431);
#431=IFCINDEXEDPOLYCURVE(#432,(IFCLINEINDEX((1,2,3,4,5,6,1))),$);
#432=IFCCARTESIANPOINTLIST2D(((0.,0.),(0.,40.),(-120.00000000000003,40.),(-120.00000000000003,20.),(-20.,20.),(-20.,0.)));
#433=IFCAXIS2PLACEMENT3D(#434,#435,#436);
#434=IFCCARTESIANPOINT((-74.099999999999994,60.,1015.));
#435=IFCDIRECTION((0.,0.,1.));
#436=IFCDIRECTION((1.,0.,0.));
#437=IFCDIRECTION((0.,0.,1.));
#438=IFCSHAPEREPRESENTATION(#11,'Body','SweptSolid',(#374,#383,#419,#428,#429,#392,#401,#410));
#439=IFCPRODUCTDEFINITIONSHAPE($,$,(#438));
#445=IFCCARTESIANPOINT((1550.,-50.,0.));
#446=IFCDIRECTION((0.,0.,1.));
#447=IFCDIRECTION((1.,0.,0.));
#448=IFCAXIS2PLACEMENT3D(#445,#446,#447);
#449=IFCLOCALPLACEMENT(#22,#448);
#450=IFCDOOR('0El2xBEFT0BhVdF1kWmNq5',$,'Door 3',$,$,#534,#524,$,$,$,$,$,$);
#451=IFCCARTESIANPOINTLIST2D(((0.,0.),(0.,2.1000000000000001),(0.90000000000000002,2.1000000000000001),(0.90000000000000002,0.),(-24.100000000000001,0.),(-24.100000000000001,-22.899999999999999),(25.,-22.899999999999999),(25.,0.)));
#452=IFCINDEXEDPOLYCURVE(#451,(IFCLINEINDEX((1,2,3,4,5,6,7,8,1))),$);
#453=IFCARBITRARYCLOSEDPROFILEDEF(.AREA.,$,#452);
#454=IFCCARTESIANPOINT((0.,25.,0.));
#455=IFCDIRECTION((0.,-1.,0.));
#456=IFCDIRECTION((1.,0.,0.));
#457=IFCAXIS2PLACEMENT3D(#454,#455,#456);
#458=IFCDIRECTION((0.,0.,-1.));
#459=IFCEXTRUDEDAREASOLID(#453,#457,#458,25.);
#460=IFCCARTESIANPOINTLIST2D(((0.,0.),(0.,2.1000000000000001),(0.90000000000000002,2.1000000000000001),(0.90000000000000002,0.),(-49.100000000000001,0.),(-49.100000000000001,-47.899999999999999),(50.,-47.899999999999999),(50.,0.)));
#461=IFCINDEXEDPOLYCURVE(#460,(IFCLINEINDEX((1,2,3,4,5,6,7,8,1))),$);
#462=IFCARBITRARYCLOSEDPROFILEDEF(.AREA.,$,#461);
#463=IFCCARTESIANPOINT((0.,0.,0.));
#464=IFCDIRECTION((0.,-1.,0.));
#465=IFCDIRECTION((1.,0.,0.));
#466=IFCAXIS2PLACEMENT3D(#463,#464,#465);
#467=IFCDIRECTION((0.,0.,-1.));
#468=IFCEXTRUDEDAREASOLID(#462,#466,#467,25.);
#469=IFCCARTESIANPOINTLIST2D(((0.,0.),(-99.099999999999994,0.),(-99.099999999999994,100.),(0.,100.)));
#470=IFCINDEXEDPOLYCURVE(#469,(IFCLINEINDEX((1,2,3,4,1))),$);
#471=IFCARBITRARYCLOSEDPROFILEDEF(.AREA.,$,#470);
#472=IFCCARTESIANPOINT((50.,0.,0.));
#473=IFCDIRECTION((0.,0.,1.));
#474=IFCDIRECTION((1.,0.,0.));
#475=IFCAXIS2PLACEMENT3D(#472,#473,#474);
#476=IFCDIRECTION((0.,0.,1.));
#477=IFCEXTRUDEDAREASOLID(#471,#475,#476,25.);
#478=IFCCARTESIANPOINTLIST2D(((0.,0.),(0.,27.100000000000001),(50.899999999999999,27.100000000000001),(50.899999999999999,0.),(-24.100000000000001,0.),(-24.100000000000001,-47.899999999999999),(75.,-47.899999999999999),(75.,0.)));
#479=IFCINDEXEDPOLYCURVE(#478,(IFCLINEINDEX((1,2,3,4,5,6,7,8,1))),$);
#480=IFCARBITRARYCLOSEDPROFILEDEF(.AREA.,$,#479);
#481=IFCCARTESIANPOINT((-25.,-5.,0.));
#482=IFCDIRECTION((0.,-1.,0.));
#483=IFCDIRECTION((1.,0.,0.));
#484=IFCAXIS2PLACEMENT3D(#481,#482,#483);
#485=IFCDIRECTION((0.,0.,-1.));
#486=IFCEXTRUDEDAREASOLID(#480,#484,#485,5.);
#487=IFCCARTESIANPOINTLIST2D(((0.,0.),(0.,27.100000000000001),(50.899999999999999,27.100000000000001),(50.899999999999999,0.),(0.89999999999999858,0.),(0.89999999999999858,-22.899999999999999),(50.,-22.899999999999999),(50.,0.)));
#488=IFCINDEXEDPOLYCURVE(#487,(IFCLINEINDEX((1,2,3,4,5,6,7,8,1))),$);
#489=IFCARBITRARYCLOSEDPROFILEDEF(.AREA.,$,#488);
#490=IFCCARTESIANPOINT((-25.,50.,0.));
#491=IFCDIRECTION((0.,-1.,0.));
#492=IFCDIRECTION((1.,0.,0.));
#493=IFCAXIS2PLACEMENT3D(#490,#491,#492);
#494=IFCDIRECTION((0.,0.,-1.));
#495=IFCEXTRUDEDAREASOLID(#489,#493,#494,5.);
#496=IFCCARTESIANPOINTLIST2D(((0.,0.),(-49.100000000000001,0.),(-49.100000000000001,35.),(0.,35.)));
#497=IFCINDEXEDPOLYCURVE(#496,(IFCLINEINDEX((1,2,3,4,1))),$);
#498=IFCARBITRARYCLOSEDPROFILEDEF(.AREA.,$,#497);
#499=IFCCARTESIANPOINT((25.,25.,25.));
#500=IFCDIRECTION((0.,0.,1.));
#501=IFCDIRECTION((1.,0.,0.));
#502=IFCAXIS2PLACEMENT3D(#499,#500,#501);
#503=IFCDIRECTION((0.,0.,1.));
#504=IFCEXTRUDEDAREASOLID(#498,#502,#503,-47.899999999999999);
#505=IFCCARTESIANPOINTLIST2D(((0.,0.),(0.,-40.),(-120.00000000000003,-40.),(-120.00000000000003,-20.),(-20.,-20.),(-20.,0.)));
#506=IFCINDEXEDPOLYCURVE(#505,(IFCLINEINDEX((1,2,3,4,5,6,1))),$);
#507=IFCARBITRARYCLOSEDPROFILEDEF(.AREA.,$,#506);
#508=IFCCARTESIANPOINT((-74.099999999999994,25.,1015.));
#509=IFCDIRECTION((0.,0.,1.));
#510=IFCDIRECTION((1.,0.,0.));
#511=IFCAXIS2PLACEMENT3D(#508,#509,#510);
#512=IFCDIRECTION((0.,0.,1.));
#513=IFCEXTRUDEDAREASOLID(#507,#511,#512,20.);
#514=IFCEXTRUDEDAREASOLID(#515,#518,#522,20.);
#515=IFCARBITRARYCLOSEDPROFILEDEF(.AREA.,$,#516);
#516=IFCINDEXEDPOLYCURVE(#517,(IFCLINEINDEX((1,2,3,4,5,6,1))),$);
#517=IFCCARTESIANPOINTLIST2D(((0.,0.),(0.,40.),(-120.00000000000003,40.),(-120.00000000000003,20.),(-20.,20.),(-20.,0.)));
#518=IFCAXIS2PLACEMENT3D(#519,#520,#521);
#519=IFCCARTESIANPOINT((-74.099999999999994,60.,1015.));
#520=IFCDIRECTION((0.,0.,1.));
#521=IFCDIRECTION((1.,0.,0.));
#522=IFCDIRECTION((0.,0.,1.));
#523=IFCSHAPEREPRESENTATION(#11,'Body','SweptSolid',(#459,#468,#504,#513,#514,#477,#486,#495));
#524=IFCPRODUCTDEFINITIONSHAPE($,$,(#523));
#530=IFCCARTESIANPOINT((2300.,-50.,0.));
#531=IFCDIRECTION((0.,0.,1.));
#532=IFCDIRECTION((1.,0.,0.));
#533=IFCAXIS2PLACEMENT3D(#530,#531,#532);
#534=IFCLOCALPLACEMENT(#22,#533);
#535=IFCDOOR('3o4OxXSdr7tPnDeG69QBq2',$,'Door 4',$,$,#619,#609,$,$,$,$,$,$);
#536=IFCCARTESIANPOINTLIST2D(((0.,0.),(0.,2.1000000000000001),(0.90000000000000002,2.1000000000000001),(0.90000000000000002,0.),(-24.100000000000001,0.),(-24.100000000000001,-22.899999999999999),(25.,-22.899999999999999),(25.,0.)));
#537=IFCINDEXEDPOLYCURVE(#536,(IFCLINEINDEX((1,2,3,4,5,6,7,8,1))),$);
#538=IFCARBITRARYCLOSEDPROFILEDEF(.AREA.,$,#537);
#539=IFCCARTESIANPOINT((0.,25.,0.));
#540=IFCDIRECTION((0.,-1.,0.));
#541=IFCDIRECTION((1.,0.,0.));
#542=IFCAXIS2PLACEMENT3D(#539,#540,#541);
#543=IFCDIRECTION((0.,0.,-1.));
#544=IFCEXTRUDEDAREASOLID(#538,#542,#543,25.);
#545=IFCCARTESIANPOINTLIST2D(((0.,0.),(0.,2.1000000000000001),(0.90000000000000002,2.1000000000000001),(0.90000000000000002,0.),(-49.100000000000001,0.),(-49.100000000000001,-47.899999999999999),(50.,-47.899999999999999),(50.,0.)));
#546=IFCINDEXEDPOLYCURVE(#545,(IFCLINEINDEX((1,2,3,4,5,6,7,8,1))),$);
#547=IFCARBITRARYCLOSEDPROFILEDEF(.AREA.,$,#546);
#548=IFCCARTESIANPOINT((0.,0.,0.));
#549=IFCDIRECTION((0.,-1.,0.));
#550=IFCDIRECTION((1.,0.,0.));
#551=IFCAXIS2PLACEMENT3D(#548,#549,#550);
#552=IFCDIRECTION((0.,0.,-1.));
#553=IFCEXTRUDEDAREASOLID(#547,#551,#552,25.);
#554=IFCCARTESIANPOINTLIST2D(((0.,0.),(-99.099999999999994,0.),(-99.099999999999994,100.),(0.,100.)));
#555=IFCINDEXEDPOLYCURVE(#554,(IFCLINEINDEX((1,2,3,4,1))),$);
#556=IFCARBITRARYCLOSEDPROFILEDEF(.AREA.,$,#555);
#557=IFCCARTESIANPOINT((50.,0.,0.));
#558=IFCDIRECTION((0.,0.,1.));
#559=IFCDIRECTION((1.,0.,0.));
#560=IFCAXIS2PLACEMENT3D(#557,#558,#559);
#561=IFCDIRECTION((0.,0.,1.));
#562=IFCEXTRUDEDAREASOLID(#556,#560,#561,25.);
#563=IFCCARTESIANPOINTLIST2D(((0.,0.),(0.,27.100000000000001),(50.899999999999999,27.100000000000001),(50.899999999999999,0.),(-24.100000000000001,0.),(-24.100000000000001,-47.899999999999999),(75.,-47.899999999999999),(75.,0.)));
#564=IFCINDEXEDPOLYCURVE(#563,(IFCLINEINDEX((1,2,3,4,5,6,7,8,1))),$);
#565=IFCARBITRARYCLOSEDPROFILEDEF(.AREA.,$,#564);
#566=IFCCARTESIANPOINT((-25.,-5.,0.));
#567=IFCDIRECTION((0.,-1.,0.));
#568=IFCDIRECTION((1.,0.,0.));
#569=IFCAXIS2PLACEMENT3D(#566,#567,#568);
#570=IFCDIRECTION((0.,0.,-1.));
#571=IFCEXTRUDEDAREASOLID(#565,#569,#570,5.);
#572=IFCCARTESIANPOINTLIST2D(((0.,0.),(0.,27.100000000000001),(50.899999999999999,27.100000000000001),(50.899999999999999,0.),(0.89999999999999858,0.),(0.89999999999999858,-22.899999999999999),(50.,-22.899999999999999),(50.,0.)));
#573=IFCINDEXEDPOLYCURVE(#572,(IFCLINEINDEX((1,2,3,4,5,6,7,8,1))),$);
#574=IFCARBITRARYCLOSEDPROFILEDEF(.AREA.,$,#573);
#575=IFCCARTESIANPOINT((-25.,50.,0.));
#576=IFCDIRECTION((0.,-1.,0.));
#577=IFCDIRECTION((1.,0.,0.));
#578=IFCAXIS2PLACEMENT3D(#575,#576,#577);
#579=IFCDIRECTION((0.,0.,-1.));
#580=IFCEXTRUDEDAREASOLID(#574,#578,#579,5.);
#581=IFCCARTESIANPOINTLIST2D(((0.,0.),(-49.100000000000001,0.),(-49.100000000000001,35.),(0.,35.)));
#582=IFCINDEXEDPOLYCURVE(#581,(IFCLINEINDEX((1,2,3,4,1))),$);
#583=IFCARBITRARYCLOSEDPROFILEDEF(.AREA.,$,#582);
#584=IFCCARTESIANPOINT((25.,25.,25.));
#585=IFCDIRECTION((0.,0.,1.));
#586=IFCDIRECTION((1.,0.,0.));
#587=IFCAXIS2PLACEMENT3D(#584,#585,#586);
#588=IFCDIRECTION((0.,0.,1.));
#589=IFCEXTRUDEDAREASOLID(#583,#587,#588,-47.899999999999999);
#590=IFCCARTESIANPOINTLIST2D(((0.,0.),(0.,-40.),(-120.00000000000003,-40.),(-120.00000000000003,-20.),(-20.,-20.),(-20.,0.)));
#591=IFCINDEXEDPOLYCURVE(#590,(IFCLINEINDEX((1,2,3,4,5,6,1))),$);
#592=IFCARBITRARYCLOSEDPROFILEDEF(.AREA.,$,#591);
#593=IFCCARTESIANPOINT((-74.099999999999994,25.,1015.));
#594=IFCDIRECTION((0.,0.,1.));
#595=IFCDIRECTION((1.,0.,0.));
#596=IFCAXIS2PLACEMENT3D(#593,#594,#595);
#597=IFCDIRECTION((0.,0.,1.));
#598=IFCEXTRUDEDAREASOLID(#592,#596,#597,20.);
#599=IFCEXTRUDEDAREASOLID(#600,#603,#607,20.);
#600=IFCARBITRARYCLOSEDPROFILEDEF(.AREA.,$,#601);
#601=IFCINDEXEDPOLYCURVE(#602,(IFCLINEINDEX((1,2,3,4,5,6,1))),$);
#602=IFCCARTESIANPOINTLIST2D(((0.,0.),(0.,40.),(-120.00000000000003,40.),(-120.00000000000003,20.),(-20.,20.),(-20.,0.)));
#603=IFCAXIS2PLACEMENT3D(#604,#605,#606);
#604=IFCCARTESIANPOINT((-74.099999999999994,60.,1015.));
#605=IFCDIRECTION((0.,0.,1.));
#606=IFCDIRECTION((1.,0.,0.));
#607=IFCDIRECTION((0.,0.,1.));
#608=IFCSHAPEREPRESENTATION(#11,'Body','SweptSolid',(#544,#553,#589,#598,#599,#562,#571,#580));
#609=IFCPRODUCTDEFINITIONSHAPE($,$,(#608));
#615=IFCCARTESIANPOINT((3049.9999999999995,-50.,0.));
#616=IFCDIRECTION((0.,0.,1.));
#617=IFCDIRECTION((1.,0.,0.));
#618=IFCAXIS2PLACEMENT3D(#615,#616,#617);
#619=IFCLOCALPLACEMENT(#22,#618);
#620=IFCWINDOW('2k0R3L2gX30RzPNgQ4SZ3n',$,'Window 1',$,$,#674,#664,$,$,$,$,$,$);
#621=IFCCARTESIANPOINTLIST2D(((0.,0.),(1.2,0.),(1.2,1.1000000000000001),(0.,1.1000000000000001)));
#622=IFCINDEXEDPOLYCURVE(#621,(IFCLINEINDEX((1,2,3,4,1))),$);
#623=IFCCARTESIANPOINTLIST2D(((25.,25.),(-23.799999999999997,25.),(-23.799999999999997,-23.899999999999999),(25.,-23.899999999999999)));
#624=IFCINDEXEDPOLYCURVE(#623,(IFCLINEINDEX((1,2,3,4,1))),$);
#625=IFCARBITRARYPROFILEDEFWITHVOIDS(.AREA.,$,#622,(#624));
#626=IFCCARTESIANPOINT((0.,90.,0.));
#627=IFCDIRECTION((0.,-1.,0.));
#628=IFCDIRECTION((1.,0.,0.));
#629=IFCAXIS2PLACEMENT3D(#626,#627,#628);
#630=IFCDIRECTION((0.,0.,-1.));
#631=IFCEXTRUDEDAREASOLID(#625,#629,#630,10.);
#632=IFCCARTESIANPOINTLIST2D(((0.,0.),(1.2,0.),(1.2,1.1000000000000001),(0.,1.1000000000000001)));
#633=IFCINDEXEDPOLYCURVE(#632,(IFCLINEINDEX((1,2,3,4,1))),$);
#634=IFCCARTESIANPOINTLIST2D(((50.,50.),(-48.799999999999997,50.),(-48.799999999999997,-48.900000000000006),(50.,-48.900000000000006)));
#635=IFCINDEXEDPOLYCURVE(#634,(IFCLINEINDEX((1,2,3,4,1))),$);
#636=IFCARBITRARYPROFILEDEFWITHVOIDS(.AREA.,$,#633,(#635));
#637=IFCCARTESIANPOINT((0.,50.,0.));
#638=IFCDIRECTION((0.,-1.,0.));
#639=IFCDIRECTION((1.,0.,0.));
#640=IFCAXIS2PLACEMENT3D(#637,#638,#639);
#641=IFCDIRECTION((0.,0.,-1.));
#642=IFCEXTRUDEDAREASOLID(#636,#640,#641,40.);
#643=IFCCARTESIANPOINTLIST2D(((0.,0.),(-48.799999999999997,0.),(-48.799999999999997,-48.899999999999999),(0.,-48.899999999999999)));
#644=IFCINDEXEDPOLYCURVE(#643,(IFCLINEINDEX((1,2,3,4,1))),$);
#645=IFCCARTESIANPOINTLIST2D(((35.,35.),(-83.799999999999997,35.),(-83.799999999999997,-83.900000000000006),(35.,-83.900000000000006)));
#646=IFCINDEXEDPOLYCURVE(#645,(IFCLINEINDEX((1,2,3,4,1))),$);
#647=IFCARBITRARYPROFILEDEFWITHVOIDS(.AREA.,$,#644,(#646));
#648=IFCCARTESIANPOINT((25.,90.,25.));
#649=IFCDIRECTION((0.,-1.,0.));
#650=IFCDIRECTION((1.,0.,0.));
#651=IFCAXIS2PLACEMENT3D(#648,#649,#650);
#652=IFCDIRECTION((0.,0.,-1.));
#653=IFCEXTRUDEDAREASOLID(#647,#651,#652,35.);
#654=IFCINDEXEDPOLYCURVE(#655,(IFCLINEINDEX((1,2,3,4,1))),$);
#655=IFCCARTESIANPOINTLIST2D(((35.,35.),(-83.799999999999997,35.),(-83.799999999999997,-83.900000000000006),(35.,-83.900000000000006)));
#656=IFCARBITRARYCLOSEDPROFILEDEF(.AREA.,$,#654);
#657=IFCCARTESIANPOINT((25.,102.5,25.));
#658=IFCDIRECTION((0.,-1.,0.));
#659=IFCDIRECTION((1.,0.,0.));
#660=IFCAXIS2PLACEMENT3D(#657,#658,#659);
#661=IFCDIRECTION((0.,0.,-1.));
#662=IFCEXTRUDEDAREASOLID(#656,#660,#661,10.);
#663=IFCSHAPEREPRESENTATION(#11,'Body','SweptSolid',(#631,#642,#653,#662));
#664=IFCPRODUCTDEFINITIONSHAPE($,$,(#663));
#670=IFCCARTESIANPOINT((1200.,8050.0000000000009,1100.));
#671=IFCDIRECTION((0.,0.,1.));
#672=IFCDIRECTION((1.,0.,0.));
#673=IFCAXIS2PLACEMENT3D(#670,#671,#672);
#674=IFCLOCALPLACEMENT(#22,#673);
#675=IFCWINDOW('2gIyvDZrz9T9TGUFnGsBzl',$,'Window 2',$,$,#729,#719,$,$,$,$,$,$);
#676=IFCCARTESIANPOINTLIST2D(((0.,0.),(1.2,0.),(1.2,1.1000000000000001),(0.,1.1000000000000001)));
#677=IFCINDEXEDPOLYCURVE(#676,(IFCLINEINDEX((1,2,3,4,1))),$);
#678=IFCCARTESIANPOINTLIST2D(((25.,25.),(-23.799999999999997,25.),(-23.799999999999997,-23.899999999999999),(25.,-23.899999999999999)));
#679=IFCINDEXEDPOLYCURVE(#678,(IFCLINEINDEX((1,2,3,4,1))),$);
#680=IFCARBITRARYPROFILEDEFWITHVOIDS(.AREA.,$,#677,(#679));
#681=IFCCARTESIANPOINT((0.,90.,0.));
#682=IFCDIRECTION((0.,-1.,0.));
#683=IFCDIRECTION((1.,0.,0.));
#684=IFCAXIS2PLACEMENT3D(#681,#682,#683);
#685=IFCDIRECTION((0.,0.,-1.));
#686=IFCEXTRUDEDAREASOLID(#680,#684,#685,10.);
#687=IFCCARTESIANPOINTLIST2D(((0.,0.),(1.2,0.),(1.2,1.1000000000000001),(0.,1.1000000000000001)));
#688=IFCINDEXEDPOLYCURVE(#687,(IFCLINEINDEX((1,2,3,4,1))),$);
#689=IFCCARTESIANPOINTLIST2D(((50.,50.),(-48.799999999999997,50.),(-48.799999999999997,-48.900000000000006),(50.,-48.900000000000006)));
#690=IFCINDEXEDPOLYCURVE(#689,(IFCLINEINDEX((1,2,3,4,1))),$);
#691=IFCARBITRARYPROFILEDEFWITHVOIDS(.AREA.,$,#688,(#690));
#692=IFCCARTESIANPOINT((0.,50.,0.));
#693=IFCDIRECTION((0.,-1.,0.));
#694=IFCDIRECTION((1.,0.,0.));
#695=IFCAXIS2PLACEMENT3D(#692,#693,#694);
#696=IFCDIRECTION((0.,0.,-1.));
#697=IFCEXTRUDEDAREASOLID(#691,#695,#696,40.);
#698=IFCCARTESIANPOINTLIST2D(((0.,0.),(-48.799999999999997,0.),(-48.799999999999997,-48.899999999999999),(0.,-48.899999999999999)));
#699=IFCINDEXEDPOLYCURVE(#698,(IFCLINEINDEX((1,2,3,4,1))),$);
#700=IFCCARTESIANPOINTLIST2D(((35.,35.),(-83.799999999999997,35.),(-83.799999999999997,-83.900000000000006),(35.,-83.900000000000006)));
#701=IFCINDEXEDPOLYCURVE(#700,(IFCLINEINDEX((1,2,3,4,1))),$);
#702=IFCARBITRARYPROFILEDEFWITHVOIDS(.AREA.,$,#699,(#701));
#703=IFCCARTESIANPOINT((25.,90.,25.));
#704=IFCDIRECTION((0.,-1.,0.));
#705=IFCDIRECTION((1.,0.,0.));
#706=IFCAXIS2PLACEMENT3D(#703,#704,#705);
#707=IFCDIRECTION((0.,0.,-1.));
#708=IFCEXTRUDEDAREASOLID(#702,#706,#707,35.);
#709=IFCINDEXEDPOLYCURVE(#710,(IFCLINEINDEX((1,2,3,4,1))),$);
#710=IFCCARTESIANPOINTLIST2D(((35.,35.),(-83.799999999999997,35.),(-83.799999999999997,-83.900000000000006),(35.,-83.900000000000006)));
#711=IFCARBITRARYCLOSEDPROFILEDEF(.AREA.,$,#709);
#712=IFCCARTESIANPOINT((25.,102.5,25.));
#713=IFCDIRECTION((0.,-1.,0.));
#714=IFCDIRECTION((1.,0.,0.));
#715=IFCAXIS2PLACEMENT3D(#712,#713,#714);
#716=IFCDIRECTION((0.,0.,-1.));
#717=IFCEXTRUDEDAREASOLID(#711,#715,#716,10.);
#718=IFCSHAPEREPRESENTATION(#11,'Body','SweptSolid',(#686,#697,#708,#717));
#719=IFCPRODUCTDEFINITIONSHAPE($,$,(#718));
#725=IFCCARTESIANPOINT((1950.,8050.0000000000009,1100.));
#726=IFCDIRECTION((0.,0.,1.));
#727=IFCDIRECTION((1.,0.,0.));
#728=IFCAXIS2PLACEMENT3D(#725,#726,#727);
#729=IFCLOCALPLACEMENT(#22,#728);
#730=IFCWINDOW('22lsPQPXDF19GUY1FiXJlb',$,'Window 3',$,$,#784,#774,$,$,$,$,$,$);
#731=IFCCARTESIANPOINTLIST2D(((0.,0.),(1.2,0.),(1.2,1.1000000000000001),(0.,1.1000000000000001)));
#732=IFCINDEXEDPOLYCURVE(#731,(IFCLINEINDEX((1,2,3,4,1))),$);
#733=IFCCARTESIANPOINTLIST2D(((25.,25.),(-23.799999999999997,25.),(-23.799999999999997,-23.899999999999999),(25.,-23.899999999999999)));
#734=IFCINDEXEDPOLYCURVE(#733,(IFCLINEINDEX((1,2,3,4,1))),$);
#735=IFCARBITRARYPROFILEDEFWITHVOIDS(.AREA.,$,#732,(#734));
#736=IFCCARTESIANPOINT((0.,90.,0.));
#737=IFCDIRECTION((0.,-1.,0.));
#738=IFCDIRECTION((1.,0.,0.));
#739=IFCAXIS2PLACEMENT3D(#736,#737,#738);
#740=IFCDIRECTION((0.,0.,-1.));
#741=IFCEXTRUDEDAREASOLID(#735,#739,#740,10.);
#742=IFCCARTESIANPOINTLIST2D(((0.,0.),(1.2,0.),(1.2,1.1000000000000001),(0.,1.1000000000000001)));
#743=IFCINDEXEDPOLYCURVE(#742,(IFCLINEINDEX((1,2,3,4,1))),$);
#744=IFCCARTESIANPOINTLIST2D(((50.,50.),(-48.799999999999997,50.),(-48.799999999999997,-48.900000000000006),(50.,-48.900000000000006)));
#745=IFCINDEXEDPOLYCURVE(#744,(IFCLINEINDEX((1,2,3,4,1))),$);
#746=IFCARBITRARYPROFILEDEFWITHVOIDS(.AREA.,$,#743,(#745));
#747=IFCCARTESIANPOINT((0.,50.,0.));
#748=IFCDIRECTION((0.,-1.,0.));
#749=IFCDIRECTION((1.,0.,0.));
#750=IFCAXIS2PLACEMENT3D(#747,#748,#749);
#751=IFCDIRECTION((0.,0.,-1.));
#752=IFCEXTRUDEDAREASOLID(#746,#750,#751,40.);
#753=IFCCARTESIANPOINTLIST2D(((0.,0.),(-48.799999999999997,0.),(-48.799999999999997,-48.899999999999999),(0.,-48.899999999999999)));
#754=IFCINDEXEDPOLYCURVE(#753,(IFCLINEINDEX((1,2,3,4,1))),$);
#755=IFCCARTESIANPOINTLIST2D(((35.,35.),(-83.799999999999997,35.),(-83.799999999999997,-83.900000000000006),(35.,-83.900000000000006)));
#756=IFCINDEXEDPOLYCURVE(#755,(IFCLINEINDEX((1,2,3,4,1))),$);
#757=IFCARBITRARYPROFILEDEFWITHVOIDS(.AREA.,$,#754,(#756));
#758=IFCCARTESIANPOINT((25.,90.,25.));
#759=IFCDIRECTION((0.,-1.,0.));
#760=IFCDIRECTION((1.,0.,0.));
#761=IFCAXIS2PLACEMENT3D(#758,#759,#760);
#762=IFCDIRECTION((0.,0.,-1.));
#763=IFCEXTRUDEDAREASOLID(#757,#761,#762,35.);
#764=IFCINDEXEDPOLYCURVE(#765,(IFCLINEINDEX((1,2,3,4,1))),$);
#765=IFCCARTESIANPOINTLIST2D(((35.,35.),(-83.799999999999997,35.),(-83.799999999999997,-83.900000000000006),(35.,-83.900000000000006)));
#766=IFCARBITRARYCLOSEDPROFILEDEF(.AREA.,$,#764);
#767=IFCCARTESIANPOINT((25.,102.5,25.));
#768=IFCDIRECTION((0.,-1.,0.));
#769=IFCDIRECTION((1.,0.,0.));
#770=IFCAXIS2PLACEMENT3D(#767,#768,#769);
#771=IFCDIRECTION((0.,0.,-1.));
#772=IFCEXTRUDEDAREASOLID(#766,#770,#771,10.);
#773=IFCSHAPEREPRESENTATION(#11,'Body','SweptSolid',(#741,#752,#763,#772));
#774=IFCPRODUCTDEFINITIONSHAPE($,$,(#773));
#780=IFCCARTESIANPOINT((2700.,8050.0000000000009,1100.));
#781=IFCDIRECTION((0.,0.,1.));
#782=IFCDIRECTION((1.,0.,0.));
#783=IFCAXIS2PLACEMENT3D(#780,#781,#782);
#784=IFCLOCALPLACEMENT(#22,#783);
#785=IFCWINDOW('3wjl202CL04hNcsKbhTh4D',$,'Window 4',$,$,#839,#829,$,$,$,$,$,$);
#786=IFCCARTESIANPOINTLIST2D(((0.,0.),(1.2,0.),(1.2,1.1000000000000001),(0.,1.1000000000000001)));
#787=IFCINDEXEDPOLYCURVE(#786,(IFCLINEINDEX((1,2,3,4,1))),$);
#788=IFCCARTESIANPOINTLIST2D(((25.,25.),(-23.799999999999997,25.),(-23.799999999999997,-23.899999999999999),(25.,-23.899999999999999)));
#789=IFCINDEXEDPOLYCURVE(#788,(IFCLINEINDEX((1,2,3,4,1))),$);
#790=IFCARBITRARYPROFILEDEFWITHVOIDS(.AREA.,$,#787,(#789));
#791=IFCCARTESIANPOINT((0.,90.,0.));
#792=IFCDIRECTION((0.,-1.,0.));
#793=IFCDIRECTION((1.,0.,0.));
#794=IFCAXIS2PLACEMENT3D(#791,#792,#793);
#795=IFCDIRECTION((0.,0.,-1.));
#796=IFCEXTRUDEDAREASOLID(#790,#794,#795,10.);
#797=IFCCARTESIANPOINTLIST2D(((0.,0.),(1.2,0.),(1.2,1.1000000000000001),(0.,1.1000000000000001)));
#798=IFCINDEXEDPOLYCURVE(#797,(IFCLINEINDEX((1,2,3,4,1))),$);
#799=IFCCARTESIANPOINTLIST2D(((50.,50.),(-48.799999999999997,50.),(-48.799999999999997,-48.900000000000006),(50.,-48.900000000000006)));
#800=IFCINDEXEDPOLYCURVE(#799,(IFCLINEINDEX((1,2,3,4,1))),$);
#801=IFCARBITRARYPROFILEDEFWITHVOIDS(.AREA.,$,#798,(#800));
#802=IFCCARTESIANPOINT((0.,50.,0.));
#803=IFCDIRECTION((0.,-1.,0.));
#804=IFCDIRECTION((1.,0.,0.));
#805=IFCAXIS2PLACEMENT3D(#802,#803,#804);
#806=IFCDIRECTION((0.,0.,-1.));
#807=IFCEXTRUDEDAREASOLID(#801,#805,#806,40.);
#808=IFCCARTESIANPOINTLIST2D(((0.,0.),(-48.799999999999997,0.),(-48.799999999999997,-48.899999999999999),(0.,-48.899999999999999)));
#809=IFCINDEXEDPOLYCURVE(#808,(IFCLINEINDEX((1,2,3,4,1))),$);
#810=IFCCARTESIANPOINTLIST2D(((35.,35.),(-83.799999999999997,35.),(-83.799999999999997,-83.900000000000006),(35.,-83.900000000000006)));
#811=IFCINDEXEDPOLYCURVE(#810,(IFCLINEINDEX((1,2,3,4,1))),$);
#812=IFCARBITRARYPROFILEDEFWITHVOIDS(.AREA.,$,#809,(#811));
#813=IFCCARTESIANPOINT((25.,90.,25.));
#814=IFCDIRECTION((0.,-1.,0.));
#815=IFCDIRECTION((1.,0.,0.));
#816=IFCAXIS2PLACEMENT3D(#813,#814,#815);
#817=IFCDIRECTION((0.,0.,-1.));
#818=IFCEXTRUDEDAREASOLID(#812,#816,#817,35.);
#819=IFCINDEXEDPOLYCURVE(#820,(IFCLINEINDEX((1,2,3,4,1))),$);
#820=IFCCARTESIANPOINTLIST2D(((35.,35.),(-83.799999999999997,35.),(-83.799999999999997,-83.900000000000006),(35.,-83.900000000000006)));
#821=IFCARBITRARYCLOSEDPROFILEDEF(.AREA.,$,#819);
#822=IFCCARTESIANPOINT((25.,102.5,25.));
#823=IFCDIRECTION((0.,-1.,0.));
#824=IFCDIRECTION((1.,0.,0.));
#825=IFCAXIS2PLACEMENT3D(#822,#823,#824);
#826=IFCDIRECTION((0.,0.,-1.));
#827=IFCEXTRUDEDAREASOLID(#821,#825,#826,10.);
#828=IFCSHAPEREPRESENTATION(#11,'Body','SweptSolid',(#796,#807,#818,#827));
#829=IFCPRODUCTDEFINITIONSHAPE($,$,(#828));
#835=IFCCARTESIANPOINT((3450.,8050.0000000000009,1100.));
#836=IFCDIRECTION((0.,0.,1.));
#837=IFCDIRECTION((1.,0.,0.));
#838=IFCAXIS2PLACEMENT3D(#835,#836,#837);
#839=IFCLOCALPLACEMENT(#22,#838);
#840=IFCSPACE('2rNXLK6m52bgxbPOX9vO7a',$,'FOYER',$,$,#853,#848,$,$,$,$);
#841=IFCRELAGGREGATES('1s7dG_A_zFTA_ANSl0Y4QR',$,$,$,#16,(#880,#840,#893,#867,#854));
#842=IFCCARTESIANPOINTLIST2D(((0.,0.),(3750.,0.),(3750.,3750.),(0.,3750.),(0.,0.)));
#843=IFCINDEXEDPOLYCURVE(#842,$,$);
#844=IFCDIRECTION((0.,0.,1.));
#845=IFCARBITRARYCLOSEDPROFILEDEF(.AREA.,$,#843);
#846=IFCEXTRUDEDAREASOLID(#845,$,#844,2799.9999999999995);
#847=IFCSHAPEREPRESENTATION(#11,'Body','SweptSolid',(#846));
#848=IFCPRODUCTDEFINITIONSHAPE($,$,(#847));
#849=IFCCARTESIANPOINT((100.,100.,0.));
#850=IFCDIRECTION((0.,0.,1.));
#851=IFCDIRECTION((1.,0.,0.));
#852=IFCAXIS2PLACEMENT3D(#849,#850,#851);
#853=IFCLOCALPLACEMENT(#22,#852);
#854=IFCSPACE('1v4q5Hh7TDFwIvTix2qZ5P',$,'GALLERY',$,$,#866,#861,$,$,$,$);
#855=IFCCARTESIANPOINTLIST2D(((0.,0.),(3750.,0.),(3750.,3750.),(0.,3750.),(0.,0.)));
#856=IFCINDEXEDPOLYCURVE(#855,$,$);
#857=IFCDIRECTION((0.,0.,1.));
#858=IFCARBITRARYCLOSEDPROFILEDEF(.AREA.,$,#856);
#859=IFCEXTRUDEDAREASOLID(#858,$,#857,2799.9999999999995);
#860=IFCSHAPEREPRESENTATION(#11,'Body','SweptSolid',(#859));
#861=IFCPRODUCTDEFINITIONSHAPE($,$,(#860));
#862=IFCCARTESIANPOINT((4100.,100.,0.));
#863=IFCDIRECTION((0.,0.,1.));
#864=IFCDIRECTION((1.,0.,0.));
#865=IFCAXIS2PLACEMENT3D(#862,#863,#864);
#866=IFCLOCALPLACEMENT(#22,#865);
#867=IFCSPACE('3F$i4DA514CAkMR_VPfd$w',$,'STORE',$,$,#879,#874,$,$,$,$);
#868=IFCCARTESIANPOINTLIST2D(((0.,0.),(3750.,0.),(3750.,3750.),(0.,3750.),(0.,0.)));
#869=IFCINDEXEDPOLYCURVE(#868,$,$);
#870=IFCDIRECTION((0.,0.,1.));
#871=IFCARBITRARYCLOSEDPROFILEDEF(.AREA.,$,#869);
#872=IFCEXTRUDEDAREASOLID(#871,$,#870,2799.9999999999995);
#873=IFCSHAPEREPRESENTATION(#11,'Body','SweptSolid',(#872));
#874=IFCPRODUCTDEFINITIONSHAPE($,$,(#873));
#875=IFCCARTESIANPOINT((8099.9999999999991,100.,0.));
#876=IFCDIRECTION((0.,0.,1.));
#877=IFCDIRECTION((1.,0.,0.));
#878=IFCAXIS2PLACEMENT3D(#875,#876,#877);
#879=IFCLOCALPLACEMENT(#22,#878);
#880=IFCSPACE('1MvVkVWXPDMgumI0mrL93U',$,'WC',$,$,#892,#887,$,$,$,$);
#881=IFCCARTESIANPOINTLIST2D(((0.,0.),(3750.,0.),(3750.,3750.),(0.,3750.),(0.,0.)));
#882=IFCINDEXEDPOLYCURVE(#881,$,$);
#883=IFCDIRECTION((0.,0.,1.));
#884=IFCARBITRARYCLOSEDPROFILEDEF(.AREA.,$,#882);
#885=IFCEXTRUDEDAREASOLID(#884,$,#883,2799.9999999999995);
#886=IFCSHAPEREPRESENTATION(#11,'Body','SweptSolid',(#885));
#887=IFCPRODUCTDEFINITIONSHAPE($,$,(#886));
#888=IFCCARTESIANPOINT((100.,4100.,0.));
#889=IFCDIRECTION((0.,0.,1.));
#890=IFCDIRECTION((1.,0.,0.));
#891=IFCAXIS2PLACEMENT3D(#888,#889,#890);
#892=IFCLOCALPLACEMENT(#22,#891);
#893=IFCSPACE('2$jrpWm719BhCZV8rODWe_',$,'OFFICE',$,$,#905,#900,$,$,$,$);
#894=IFCCARTESIANPOINTLIST2D(((0.,0.),(3750.,0.),(3750.,3750.),(0.,3750.),(0.,0.)));
#895=IFCINDEXEDPOLYCURVE(#894,$,$);
#896=IFCDIRECTION((0.,0.,1.));
#897=IFCARBITRARYCLOSEDPROFILEDEF(.AREA.,$,#895);
#898=IFCEXTRUDEDAREASOLID(#897,$,#896,2799.9999999999995);
#899=IFCSHAPEREPRESENTATION(#11,'Body','SweptSolid',(#898));
#900=IFCPRODUCTDEFINITIONSHAPE($,$,(#899));
#901=IFCCARTESIANPOINT((4100.,4100.,0.));
#902=IFCDIRECTION((0.,0.,1.));
#903=IFCDIRECTION((1.,0.,0.));
#904=IFCAXIS2PLACEMENT3D(#901,#902,#903);
#905=IFCLOCALPLACEMENT(#22,#904);
ENDSEC;
END-ISO-10303-21;
