ISO-10303-21;
HEADER;
FILE_DESCRIPTION(('ViewDefinition [CoordinationView]'),'2;1');
FILE_NAME('','2026-05-22T17:03:01',(''),(''),'IfcOpenShell 0.8.5-1c5b825','IfcOpenShell 0.8.5-1c5b825','');
FILE_SCHEMA(('IFC2X3'));
ENDSEC;
DATA;
#1=IFCPERSON('EW','Engiworld','Task',$,$,$,$,$);
#2=IFCORGANIZATION('EW','Engiworld',$,$,$);
#3=IFCPERSONANDORGANIZATION(#1,#2,$);
#4=IFCACTORROLE(.USERDEFINED.,'CONTRIBUTOR',$);
#5=IFCORGANIZATION('IfcOpenShell','IfcOpenShell','IfcOpenShell is an open source software library that helps users and software developers to work with IFC data.',(#4),(#6));
#6=IFCTELECOMADDRESS(.USERDEFINED.,$,'WEBPAGE',$,$,$,$,'https://ifcopenshell.org');
#7=IFCAPPLICATION(#5,'0.8.5','Engiworld IFC Generator','Engiworld');
#8=IFCOWNERHISTORY(#3,#7,.READWRITE.,.ADDED.,1779440581,#3,#7,1779440581);
#9=IFCPROJECT('0uuSeF7mf639SEvb51Zxap',#8,'v-archicad-task-19-windows init',$,$,$,$,(#18),#13);
#10=IFCSIUNIT(*,.LENGTHUNIT.,.MILLI.,.METRE.);
#11=IFCSIUNIT(*,.AREAUNIT.,$,.SQUARE_METRE.);
#12=IFCSIUNIT(*,.VOLUMEUNIT.,$,.CUBIC_METRE.);
#13=IFCUNITASSIGNMENT((#12,#10,#11));
#14=IFCCARTESIANPOINT((0.,0.,0.));
#15=IFCDIRECTION((0.,0.,1.));
#16=IFCDIRECTION((1.,0.,0.));
#17=IFCAXIS2PLACEMENT3D(#14,#15,#16);
#18=IFCGEOMETRICREPRESENTATIONCONTEXT($,'Model',3,1.0000000000000001E-05,#17,$);
#19=IFCGEOMETRICREPRESENTATIONSUBCONTEXT('Body','Model',*,*,*,*,#18,$,.MODEL_VIEW.,$);
#20=IFCOWNERHISTORY(#3,#7,.READWRITE.,.ADDED.,1779440581,#3,#7,1779440581);
#21=IFCSITE('0_tOBBHmbD3wSv37v2kjzr',#20,'Default Site',$,$,$,$,$,.ELEMENT.,$,$,$,$,$);
#22=IFCOWNERHISTORY(#3,#7,.READWRITE.,.ADDED.,1779440581,#3,#7,1779440581);
#23=IFCBUILDING('0L3DvZNIPFV93Vydh5avH9',#22,'Archicad Init Building',$,$,$,$,$,.ELEMENT.,$,$,$);
#24=IFCOWNERHISTORY(#3,#7,.READWRITE.,.ADDED.,1779440581,#3,#7,1779440581);
#25=IFCRELAGGREGATES('3j0YGQoVP4dwpyMktrZXPa',#24,$,$,#9,(#21));
#26=IFCOWNERHISTORY(#3,#7,.READWRITE.,.ADDED.,1779440581,#3,#7,1779440581);
#27=IFCRELAGGREGATES('1zKnVsC9T4ww7xriUc3vV7',#26,$,$,#21,(#23));
#28=IFCOWNERHISTORY(#3,#7,.READWRITE.,.MODIFIED.,1779440581,#3,#7,1779440581);
#29=IFCBUILDINGSTOREY('0k22CSk519_vXnRA$NLqkY',#28,'Ground Floor',$,$,#36,$,$,.ELEMENT.,$);
#30=IFCOWNERHISTORY(#3,#7,.READWRITE.,.ADDED.,1779440581,#3,#7,1779440581);
#31=IFCRELAGGREGATES('1bsARtEt9CvhFg6H0sV2kA',#30,$,$,#23,(#29));
#32=IFCCARTESIANPOINT((0.,0.,0.));
#33=IFCDIRECTION((0.,0.,1.));
#34=IFCDIRECTION((1.,0.,0.));
#35=IFCAXIS2PLACEMENT3D(#32,#33,#34);
#36=IFCLOCALPLACEMENT($,#35);
#37=IFCOWNERHISTORY(#3,#7,.READWRITE.,.MODIFIED.,1779440581,#3,#7,1779440581);
#38=IFCWALL('2oi3Qa0AXAVOVbThWqUWet',#37,'Exterior Wall 1',$,$,#65,#53,$);
#39=IFCCARTESIANPOINT((0.,0.));
#40=IFCCARTESIANPOINT((0.,200.));
#41=IFCCARTESIANPOINT((15000.,200.));
#42=IFCCARTESIANPOINT((15000.,0.));
#43=IFCCARTESIANPOINT((0.,0.));
#44=IFCPOLYLINE((#39,#40,#41,#42,#43));
#45=IFCDIRECTION((0.,0.,1.));
#46=IFCARBITRARYCLOSEDPROFILEDEF(.AREA.,$,#44);
#47=IFCCARTESIANPOINT((0.,0.,0.));
#48=IFCDIRECTION((0.,0.,1.));
#49=IFCDIRECTION((1.,0.,0.));
#50=IFCAXIS2PLACEMENT3D(#47,#48,#49);
#51=IFCEXTRUDEDAREASOLID(#46,#50,#45,3000.);
#52=IFCSHAPEREPRESENTATION(#19,'Body','SweptSolid',(#51));
#53=IFCPRODUCTDEFINITIONSHAPE($,$,(#52));
#59=IFCOWNERHISTORY(#3,#7,.READWRITE.,.MODIFIED.,1779440582,#3,#7,1779440581);
#60=IFCRELCONTAINEDINSPATIALSTRUCTURE('0F75b3S9nAiuBJquZ$qa6W',#59,$,$,(#94,#597,#38,#467,#337,#896,#283,#1095,#229,#175,#121,#1294,#1493,#67,#310,#256,#202,#148,#727),#29);
#61=IFCCARTESIANPOINT((0.,0.,0.));
#62=IFCDIRECTION((0.,0.,1.));
#63=IFCDIRECTION((1.,0.,0.));
#64=IFCAXIS2PLACEMENT3D(#61,#62,#63);
#65=IFCLOCALPLACEMENT(#36,#64);
#66=IFCOWNERHISTORY(#3,#7,.READWRITE.,.MODIFIED.,1779440581,#3,#7,1779440581);
#67=IFCWALL('2rSzfMQQvAc9aPEyybCbmp',#66,'Exterior Wall 2',$,$,#92,#82,$);
#68=IFCCARTESIANPOINT((0.,0.));
#69=IFCCARTESIANPOINT((0.,200.));
#70=IFCCARTESIANPOINT((15000.,200.));
#71=IFCCARTESIANPOINT((15000.,0.));
#72=IFCCARTESIANPOINT((0.,0.));
#73=IFCPOLYLINE((#68,#69,#70,#71,#72));
#74=IFCDIRECTION((0.,0.,1.));
#75=IFCARBITRARYCLOSEDPROFILEDEF(.AREA.,$,#73);
#76=IFCCARTESIANPOINT((0.,0.,0.));
#77=IFCDIRECTION((0.,0.,1.));
#78=IFCDIRECTION((1.,0.,0.));
#79=IFCAXIS2PLACEMENT3D(#76,#77,#78);
#80=IFCEXTRUDEDAREASOLID(#75,#79,#74,3000.);
#81=IFCSHAPEREPRESENTATION(#19,'Body','SweptSolid',(#80));
#82=IFCPRODUCTDEFINITIONSHAPE($,$,(#81));
#88=IFCCARTESIANPOINT((0.,8000.,0.));
#89=IFCDIRECTION((0.,0.,1.));
#90=IFCDIRECTION((1.,0.,0.));
#91=IFCAXIS2PLACEMENT3D(#88,#89,#90);
#92=IFCLOCALPLACEMENT(#36,#91);
#93=IFCOWNERHISTORY(#3,#7,.READWRITE.,.MODIFIED.,1779440581,#3,#7,1779440581);
#94=IFCWALL('0UhotoSPT3thmcok0Vg3Ac',#93,'Exterior Wall 3',$,$,#119,#109,$);
#95=IFCCARTESIANPOINT((0.,0.));
#96=IFCCARTESIANPOINT((0.,200.));
#97=IFCCARTESIANPOINT((8000.,200.));
#98=IFCCARTESIANPOINT((8000.,0.));
#99=IFCCARTESIANPOINT((0.,0.));
#100=IFCPOLYLINE((#95,#96,#97,#98,#99));
#101=IFCDIRECTION((0.,0.,1.));
#102=IFCARBITRARYCLOSEDPROFILEDEF(.AREA.,$,#100);
#103=IFCCARTESIANPOINT((0.,0.,0.));
#104=IFCDIRECTION((0.,0.,1.));
#105=IFCDIRECTION((1.,0.,0.));
#106=IFCAXIS2PLACEMENT3D(#103,#104,#105);
#107=IFCEXTRUDEDAREASOLID(#102,#106,#101,3000.);
#108=IFCSHAPEREPRESENTATION(#19,'Body','SweptSolid',(#107));
#109=IFCPRODUCTDEFINITIONSHAPE($,$,(#108));
#115=IFCCARTESIANPOINT((0.,0.,0.));
#116=IFCDIRECTION((0.,0.,1.));
#117=IFCDIRECTION((6.123233995736766E-17,1.,0.));
#118=IFCAXIS2PLACEMENT3D(#115,#116,#117);
#119=IFCLOCALPLACEMENT(#36,#118);
#120=IFCOWNERHISTORY(#3,#7,.READWRITE.,.MODIFIED.,1779440581,#3,#7,1779440581);
#121=IFCWALL('0IRM3Rn7fE7wapa2fVn6wO',#120,'Exterior Wall 4',$,$,#146,#136,$);
#122=IFCCARTESIANPOINT((0.,0.));
#123=IFCCARTESIANPOINT((0.,200.));
#124=IFCCARTESIANPOINT((8000.,200.));
#125=IFCCARTESIANPOINT((8000.,0.));
#126=IFCCARTESIANPOINT((0.,0.));
#127=IFCPOLYLINE((#122,#123,#124,#125,#126));
#128=IFCDIRECTION((0.,0.,1.));
#129=IFCARBITRARYCLOSEDPROFILEDEF(.AREA.,$,#127);
#130=IFCCARTESIANPOINT((0.,0.,0.));
#131=IFCDIRECTION((0.,0.,1.));
#132=IFCDIRECTION((1.,0.,0.));
#133=IFCAXIS2PLACEMENT3D(#130,#131,#132);
#134=IFCEXTRUDEDAREASOLID(#129,#133,#128,3000.);
#135=IFCSHAPEREPRESENTATION(#19,'Body','SweptSolid',(#134));
#136=IFCPRODUCTDEFINITIONSHAPE($,$,(#135));
#142=IFCCARTESIANPOINT((15000.,0.,0.));
#143=IFCDIRECTION((0.,0.,1.));
#144=IFCDIRECTION((6.123233995736766E-17,1.,0.));
#145=IFCAXIS2PLACEMENT3D(#142,#143,#144);
#146=IFCLOCALPLACEMENT(#36,#145);
#147=IFCOWNERHISTORY(#3,#7,.READWRITE.,.MODIFIED.,1779440581,#3,#7,1779440581);
#148=IFCWALL('1FsXSOTov4cBFUn0bSLVqm',#147,'Interior Partition 1',$,$,#173,#163,$);
#149=IFCCARTESIANPOINT((0.,0.));
#150=IFCCARTESIANPOINT((0.,120.));
#151=IFCCARTESIANPOINT((7599.9999999999991,120.));
#152=IFCCARTESIANPOINT((7599.9999999999991,0.));
#153=IFCCARTESIANPOINT((0.,0.));
#154=IFCPOLYLINE((#149,#150,#151,#152,#153));
#155=IFCDIRECTION((0.,0.,1.));
#156=IFCARBITRARYCLOSEDPROFILEDEF(.AREA.,$,#154);
#157=IFCCARTESIANPOINT((0.,0.,0.));
#158=IFCDIRECTION((0.,0.,1.));
#159=IFCDIRECTION((1.,0.,0.));
#160=IFCAXIS2PLACEMENT3D(#157,#158,#159);
#161=IFCEXTRUDEDAREASOLID(#156,#160,#155,3000.);
#162=IFCSHAPEREPRESENTATION(#19,'Body','SweptSolid',(#161));
#163=IFCPRODUCTDEFINITIONSHAPE($,$,(#162));
#169=IFCCARTESIANPOINT((2500.,200.,0.));
#170=IFCDIRECTION((0.,0.,1.));
#171=IFCDIRECTION((6.123233995736766E-17,1.,0.));
#172=IFCAXIS2PLACEMENT3D(#169,#170,#171);
#173=IFCLOCALPLACEMENT(#36,#172);
#174=IFCOWNERHISTORY(#3,#7,.READWRITE.,.MODIFIED.,1779440581,#3,#7,1779440581);
#175=IFCWALL('33YoJjY6v8QPPKHsH43CRO',#174,'Interior Partition 2',$,$,#200,#190,$);
#176=IFCCARTESIANPOINT((0.,0.));
#177=IFCCARTESIANPOINT((0.,120.));
#178=IFCCARTESIANPOINT((7599.9999999999991,120.));
#179=IFCCARTESIANPOINT((7599.9999999999991,0.));
#180=IFCCARTESIANPOINT((0.,0.));
#181=IFCPOLYLINE((#176,#177,#178,#179,#180));
#182=IFCDIRECTION((0.,0.,1.));
#183=IFCARBITRARYCLOSEDPROFILEDEF(.AREA.,$,#181);
#184=IFCCARTESIANPOINT((0.,0.,0.));
#185=IFCDIRECTION((0.,0.,1.));
#186=IFCDIRECTION((1.,0.,0.));
#187=IFCAXIS2PLACEMENT3D(#184,#185,#186);
#188=IFCEXTRUDEDAREASOLID(#183,#187,#182,3000.);
#189=IFCSHAPEREPRESENTATION(#19,'Body','SweptSolid',(#188));
#190=IFCPRODUCTDEFINITIONSHAPE($,$,(#189));
#196=IFCCARTESIANPOINT((5000.,200.,0.));
#197=IFCDIRECTION((0.,0.,1.));
#198=IFCDIRECTION((6.123233995736766E-17,1.,0.));
#199=IFCAXIS2PLACEMENT3D(#196,#197,#198);
#200=IFCLOCALPLACEMENT(#36,#199);
#201=IFCOWNERHISTORY(#3,#7,.READWRITE.,.MODIFIED.,1779440581,#3,#7,1779440581);
#202=IFCWALL('2CihJbxN1AyBc5iPDdU5cW',#201,'Interior Partition 3',$,$,#227,#217,$);
#203=IFCCARTESIANPOINT((0.,0.));
#204=IFCCARTESIANPOINT((0.,120.));
#205=IFCCARTESIANPOINT((7599.9999999999991,120.));
#206=IFCCARTESIANPOINT((7599.9999999999991,0.));
#207=IFCCARTESIANPOINT((0.,0.));
#208=IFCPOLYLINE((#203,#204,#205,#206,#207));
#209=IFCDIRECTION((0.,0.,1.));
#210=IFCARBITRARYCLOSEDPROFILEDEF(.AREA.,$,#208);
#211=IFCCARTESIANPOINT((0.,0.,0.));
#212=IFCDIRECTION((0.,0.,1.));
#213=IFCDIRECTION((1.,0.,0.));
#214=IFCAXIS2PLACEMENT3D(#211,#212,#213);
#215=IFCEXTRUDEDAREASOLID(#210,#214,#209,3000.);
#216=IFCSHAPEREPRESENTATION(#19,'Body','SweptSolid',(#215));
#217=IFCPRODUCTDEFINITIONSHAPE($,$,(#216));
#223=IFCCARTESIANPOINT((7500.,200.,0.));
#224=IFCDIRECTION((0.,0.,1.));
#225=IFCDIRECTION((6.123233995736766E-17,1.,0.));
#226=IFCAXIS2PLACEMENT3D(#223,#224,#225);
#227=IFCLOCALPLACEMENT(#36,#226);
#228=IFCOWNERHISTORY(#3,#7,.READWRITE.,.MODIFIED.,1779440581,#3,#7,1779440581);
#229=IFCWALL('3zh4z096L3KxHopkoGgeU3',#228,'Interior Partition 4',$,$,#254,#244,$);
#230=IFCCARTESIANPOINT((0.,0.));
#231=IFCCARTESIANPOINT((0.,120.));
#232=IFCCARTESIANPOINT((7599.9999999999991,120.));
#233=IFCCARTESIANPOINT((7599.9999999999991,0.));
#234=IFCCARTESIANPOINT((0.,0.));
#235=IFCPOLYLINE((#230,#231,#232,#233,#234));
#236=IFCDIRECTION((0.,0.,1.));
#237=IFCARBITRARYCLOSEDPROFILEDEF(.AREA.,$,#235);
#238=IFCCARTESIANPOINT((0.,0.,0.));
#239=IFCDIRECTION((0.,0.,1.));
#240=IFCDIRECTION((1.,0.,0.));
#241=IFCAXIS2PLACEMENT3D(#238,#239,#240);
#242=IFCEXTRUDEDAREASOLID(#237,#241,#236,3000.);
#243=IFCSHAPEREPRESENTATION(#19,'Body','SweptSolid',(#242));
#244=IFCPRODUCTDEFINITIONSHAPE($,$,(#243));
#250=IFCCARTESIANPOINT((10000.,200.,0.));
#251=IFCDIRECTION((0.,0.,1.));
#252=IFCDIRECTION((6.123233995736766E-17,1.,0.));
#253=IFCAXIS2PLACEMENT3D(#250,#251,#252);
#254=IFCLOCALPLACEMENT(#36,#253);
#255=IFCOWNERHISTORY(#3,#7,.READWRITE.,.MODIFIED.,1779440581,#3,#7,1779440581);
#256=IFCWALL('1g5VNVc4bAEPvnFnAYfTrS',#255,'Interior Partition 5',$,$,#281,#271,$);
#257=IFCCARTESIANPOINT((0.,0.));
#258=IFCCARTESIANPOINT((0.,120.));
#259=IFCCARTESIANPOINT((7599.9999999999991,120.));
#260=IFCCARTESIANPOINT((7599.9999999999991,0.));
#261=IFCCARTESIANPOINT((0.,0.));
#262=IFCPOLYLINE((#257,#258,#259,#260,#261));
#263=IFCDIRECTION((0.,0.,1.));
#264=IFCARBITRARYCLOSEDPROFILEDEF(.AREA.,$,#262);
#265=IFCCARTESIANPOINT((0.,0.,0.));
#266=IFCDIRECTION((0.,0.,1.));
#267=IFCDIRECTION((1.,0.,0.));
#268=IFCAXIS2PLACEMENT3D(#265,#266,#267);
#269=IFCEXTRUDEDAREASOLID(#264,#268,#263,3000.);
#270=IFCSHAPEREPRESENTATION(#19,'Body','SweptSolid',(#269));
#271=IFCPRODUCTDEFINITIONSHAPE($,$,(#270));
#277=IFCCARTESIANPOINT((12500.,200.,0.));
#278=IFCDIRECTION((0.,0.,1.));
#279=IFCDIRECTION((6.123233995736766E-17,1.,0.));
#280=IFCAXIS2PLACEMENT3D(#277,#278,#279);
#281=IFCLOCALPLACEMENT(#36,#280);
#282=IFCOWNERHISTORY(#3,#7,.READWRITE.,.MODIFIED.,1779440581,#3,#7,1779440581);
#283=IFCSLAB('3ecjemv$r6qhl8d2bVKZcp',#282,'Floor Slab 1',$,$,#308,#298,$,$);
#284=IFCCARTESIANPOINT((0.,0.));
#285=IFCCARTESIANPOINT((15000.,0.));
#286=IFCCARTESIANPOINT((15000.,8000.));
#287=IFCCARTESIANPOINT((0.,8000.));
#288=IFCCARTESIANPOINT((0.,0.));
#289=IFCPOLYLINE((#284,#285,#286,#287,#288));
#290=IFCDIRECTION((0.,0.,1.));
#291=IFCCARTESIANPOINT((0.,0.,0.));
#292=IFCDIRECTION((0.,0.,1.));
#293=IFCDIRECTION((1.,0.,0.));
#294=IFCAXIS2PLACEMENT3D(#291,#292,#293);
#295=IFCARBITRARYCLOSEDPROFILEDEF(.AREA.,$,#289);
#296=IFCEXTRUDEDAREASOLID(#295,#294,#290,200.);
#297=IFCSHAPEREPRESENTATION(#19,'Body','SweptSolid',(#296));
#298=IFCPRODUCTDEFINITIONSHAPE($,$,(#297));
#304=IFCCARTESIANPOINT((0.,0.,0.));
#305=IFCDIRECTION((0.,0.,1.));
#306=IFCDIRECTION((1.,0.,0.));
#307=IFCAXIS2PLACEMENT3D(#304,#305,#306);
#308=IFCLOCALPLACEMENT(#36,#307);
#309=IFCOWNERHISTORY(#3,#7,.READWRITE.,.MODIFIED.,1779440582,#3,#7,1779440581);
#310=IFCROOF('2fHg1nTiPFGBb4fiRvUo9m',#309,'Simple Roof 1',$,$,#335,#325,$,.NOTDEFINED.);
#311=IFCCARTESIANPOINT((0.,0.));
#312=IFCCARTESIANPOINT((15000.,0.));
#313=IFCCARTESIANPOINT((15000.,8000.));
#314=IFCCARTESIANPOINT((0.,8000.));
#315=IFCCARTESIANPOINT((0.,0.));
#316=IFCPOLYLINE((#311,#312,#313,#314,#315));
#317=IFCDIRECTION((0.,0.,1.));
#318=IFCCARTESIANPOINT((0.,0.,0.));
#319=IFCDIRECTION((0.,0.,1.));
#320=IFCDIRECTION((1.,0.,0.));
#321=IFCAXIS2PLACEMENT3D(#318,#319,#320);
#322=IFCARBITRARYCLOSEDPROFILEDEF(.AREA.,$,#316);
#323=IFCEXTRUDEDAREASOLID(#322,#321,#317,180.);
#324=IFCSHAPEREPRESENTATION(#19,'Body','SweptSolid',(#323));
#325=IFCPRODUCTDEFINITIONSHAPE($,$,(#324));
#331=IFCCARTESIANPOINT((0.,0.,3549.9999999999995));
#332=IFCDIRECTION((0.,0.,1.));
#333=IFCDIRECTION((1.,0.,0.));
#334=IFCAXIS2PLACEMENT3D(#331,#332,#333);
#335=IFCLOCALPLACEMENT(#36,#334);
#336=IFCOWNERHISTORY(#3,#7,.READWRITE.,.MODIFIED.,1779440582,#3,#7,1779440582);
#337=IFCDOOR('1zDr0fDlL56QJA6ANB3AKw',#336,'Door 1',$,$,#465,#455,$,$,$);
#338=IFCCARTESIANPOINT((0.,0.));
#339=IFCCARTESIANPOINT((0.,2.1000000000000001));
#340=IFCCARTESIANPOINT((0.90000000000000002,2.1000000000000001));
#341=IFCCARTESIANPOINT((0.90000000000000002,0.));
#342=IFCCARTESIANPOINT((-24.100000000000001,0.));
#343=IFCCARTESIANPOINT((-24.100000000000001,-22.899999999999999));
#344=IFCCARTESIANPOINT((25.,-22.899999999999999));
#345=IFCCARTESIANPOINT((25.,0.));
#346=IFCPOLYLINE((#338,#339,#340,#341,#342,#343,#344,#345,#338));
#347=IFCARBITRARYCLOSEDPROFILEDEF(.AREA.,$,#346);
#348=IFCCARTESIANPOINT((0.,25.,0.));
#349=IFCDIRECTION((0.,-1.,0.));
#350=IFCDIRECTION((1.,0.,0.));
#351=IFCAXIS2PLACEMENT3D(#348,#349,#350);
#352=IFCDIRECTION((0.,0.,-1.));
#353=IFCEXTRUDEDAREASOLID(#347,#351,#352,25.);
#354=IFCCARTESIANPOINT((0.,0.));
#355=IFCCARTESIANPOINT((0.,2.1000000000000001));
#356=IFCCARTESIANPOINT((0.90000000000000002,2.1000000000000001));
#357=IFCCARTESIANPOINT((0.90000000000000002,0.));
#358=IFCCARTESIANPOINT((-49.100000000000001,0.));
#359=IFCCARTESIANPOINT((-49.100000000000001,-47.899999999999999));
#360=IFCCARTESIANPOINT((50.,-47.899999999999999));
#361=IFCCARTESIANPOINT((50.,0.));
#362=IFCPOLYLINE((#354,#355,#356,#357,#358,#359,#360,#361,#354));
#363=IFCARBITRARYCLOSEDPROFILEDEF(.AREA.,$,#362);
#364=IFCCARTESIANPOINT((0.,0.,0.));
#365=IFCDIRECTION((0.,-1.,0.));
#366=IFCDIRECTION((1.,0.,0.));
#367=IFCAXIS2PLACEMENT3D(#364,#365,#366);
#368=IFCDIRECTION((0.,0.,-1.));
#369=IFCEXTRUDEDAREASOLID(#363,#367,#368,25.);
#370=IFCCARTESIANPOINT((0.,0.));
#371=IFCCARTESIANPOINT((-99.099999999999994,0.));
#372=IFCCARTESIANPOINT((-99.099999999999994,100.));
#373=IFCCARTESIANPOINT((0.,100.));
#374=IFCPOLYLINE((#370,#371,#372,#373,#370));
#375=IFCARBITRARYCLOSEDPROFILEDEF(.AREA.,$,#374);
#376=IFCCARTESIANPOINT((50.,0.,0.));
#377=IFCDIRECTION((0.,0.,1.));
#378=IFCDIRECTION((1.,0.,0.));
#379=IFCAXIS2PLACEMENT3D(#376,#377,#378);
#380=IFCDIRECTION((0.,0.,1.));
#381=IFCEXTRUDEDAREASOLID(#375,#379,#380,25.);
#382=IFCCARTESIANPOINT((0.,0.));
#383=IFCCARTESIANPOINT((0.,27.100000000000001));
#384=IFCCARTESIANPOINT((50.899999999999999,27.100000000000001));
#385=IFCCARTESIANPOINT((50.899999999999999,0.));
#386=IFCCARTESIANPOINT((-24.100000000000001,0.));
#387=IFCCARTESIANPOINT((-24.100000000000001,-47.899999999999999));
#388=IFCCARTESIANPOINT((75.,-47.899999999999999));
#389=IFCCARTESIANPOINT((75.,0.));
#390=IFCPOLYLINE((#382,#383,#384,#385,#386,#387,#388,#389,#382));
#391=IFCARBITRARYCLOSEDPROFILEDEF(.AREA.,$,#390);
#392=IFCCARTESIANPOINT((-25.,-5.,0.));
#393=IFCDIRECTION((0.,-1.,0.));
#394=IFCDIRECTION((1.,0.,0.));
#395=IFCAXIS2PLACEMENT3D(#392,#393,#394);
#396=IFCDIRECTION((0.,0.,-1.));
#397=IFCEXTRUDEDAREASOLID(#391,#395,#396,5.);
#398=IFCCARTESIANPOINT((0.,0.));
#399=IFCCARTESIANPOINT((0.,27.100000000000001));
#400=IFCCARTESIANPOINT((50.899999999999999,27.100000000000001));
#401=IFCCARTESIANPOINT((50.899999999999999,0.));
#402=IFCCARTESIANPOINT((0.89999999999999858,0.));
#403=IFCCARTESIANPOINT((0.89999999999999858,-22.899999999999999));
#404=IFCCARTESIANPOINT((50.,-22.899999999999999));
#405=IFCCARTESIANPOINT((50.,0.));
#406=IFCPOLYLINE((#398,#399,#400,#401,#402,#403,#404,#405,#398));
#407=IFCARBITRARYCLOSEDPROFILEDEF(.AREA.,$,#406);
#408=IFCCARTESIANPOINT((-25.,50.,0.));
#409=IFCDIRECTION((0.,-1.,0.));
#410=IFCDIRECTION((1.,0.,0.));
#411=IFCAXIS2PLACEMENT3D(#408,#409,#410);
#412=IFCDIRECTION((0.,0.,-1.));
#413=IFCEXTRUDEDAREASOLID(#407,#411,#412,5.);
#414=IFCCARTESIANPOINT((0.,0.));
#415=IFCCARTESIANPOINT((-49.100000000000001,0.));
#416=IFCCARTESIANPOINT((-49.100000000000001,35.));
#417=IFCCARTESIANPOINT((0.,35.));
#418=IFCPOLYLINE((#414,#415,#416,#417,#414));
#419=IFCARBITRARYCLOSEDPROFILEDEF(.AREA.,$,#418);
#420=IFCCARTESIANPOINT((25.,25.,25.));
#421=IFCDIRECTION((0.,0.,1.));
#422=IFCDIRECTION((1.,0.,0.));
#423=IFCAXIS2PLACEMENT3D(#420,#421,#422);
#424=IFCDIRECTION((0.,0.,1.));
#425=IFCEXTRUDEDAREASOLID(#419,#423,#424,-47.899999999999999);
#426=IFCCARTESIANPOINT((0.,0.));
#427=IFCCARTESIANPOINT((0.,-40.));
#428=IFCCARTESIANPOINT((-120.00000000000003,-40.));
#429=IFCCARTESIANPOINT((-120.00000000000003,-20.));
#430=IFCCARTESIANPOINT((-20.,-20.));
#431=IFCCARTESIANPOINT((-20.,0.));
#432=IFCPOLYLINE((#426,#427,#428,#429,#430,#431,#426));
#433=IFCARBITRARYCLOSEDPROFILEDEF(.AREA.,$,#432);
#434=IFCCARTESIANPOINT((-74.099999999999994,25.,1015.));
#435=IFCDIRECTION((0.,0.,1.));
#436=IFCDIRECTION((1.,0.,0.));
#437=IFCAXIS2PLACEMENT3D(#434,#435,#436);
#438=IFCDIRECTION((0.,0.,1.));
#439=IFCEXTRUDEDAREASOLID(#433,#437,#438,20.);
#440=IFCEXTRUDEDAREASOLID(#441,#449,#453,20.);
#441=IFCARBITRARYCLOSEDPROFILEDEF(.AREA.,$,#442);
#442=IFCPOLYLINE((#443,#444,#445,#446,#447,#448,#443));
#443=IFCCARTESIANPOINT((0.,0.));
#444=IFCCARTESIANPOINT((0.,40.));
#445=IFCCARTESIANPOINT((-120.00000000000003,40.));
#446=IFCCARTESIANPOINT((-120.00000000000003,20.));
#447=IFCCARTESIANPOINT((-20.,20.));
#448=IFCCARTESIANPOINT((-20.,0.));
#449=IFCAXIS2PLACEMENT3D(#450,#451,#452);
#450=IFCCARTESIANPOINT((-74.099999999999994,60.,1015.));
#451=IFCDIRECTION((0.,0.,1.));
#452=IFCDIRECTION((1.,0.,0.));
#453=IFCDIRECTION((0.,0.,1.));
#454=IFCSHAPEREPRESENTATION(#19,'Body','SweptSolid',(#353,#369,#425,#439,#440,#381,#397,#413));
#455=IFCPRODUCTDEFINITIONSHAPE($,$,(#454));
#461=IFCCARTESIANPOINT((800.,-50.,0.));
#462=IFCDIRECTION((0.,0.,1.));
#463=IFCDIRECTION((1.,0.,0.));
#464=IFCAXIS2PLACEMENT3D(#461,#462,#463);
#465=IFCLOCALPLACEMENT(#36,#464);
#466=IFCOWNERHISTORY(#3,#7,.READWRITE.,.MODIFIED.,1779440582,#3,#7,1779440582);
#467=IFCDOOR('2lYGTtR716HvjTvC6Livg7',#466,'Door 2',$,$,#595,#585,$,$,$);
#468=IFCCARTESIANPOINT((0.,0.));
#469=IFCCARTESIANPOINT((0.,2.1000000000000001));
#470=IFCCARTESIANPOINT((0.90000000000000002,2.1000000000000001));
#471=IFCCARTESIANPOINT((0.90000000000000002,0.));
#472=IFCCARTESIANPOINT((-24.100000000000001,0.));
#473=IFCCARTESIANPOINT((-24.100000000000001,-22.899999999999999));
#474=IFCCARTESIANPOINT((25.,-22.899999999999999));
#475=IFCCARTESIANPOINT((25.,0.));
#476=IFCPOLYLINE((#468,#469,#470,#471,#472,#473,#474,#475,#468));
#477=IFCARBITRARYCLOSEDPROFILEDEF(.AREA.,$,#476);
#478=IFCCARTESIANPOINT((0.,25.,0.));
#479=IFCDIRECTION((0.,-1.,0.));
#480=IFCDIRECTION((1.,0.,0.));
#481=IFCAXIS2PLACEMENT3D(#478,#479,#480);
#482=IFCDIRECTION((0.,0.,-1.));
#483=IFCEXTRUDEDAREASOLID(#477,#481,#482,25.);
#484=IFCCARTESIANPOINT((0.,0.));
#485=IFCCARTESIANPOINT((0.,2.1000000000000001));
#486=IFCCARTESIANPOINT((0.90000000000000002,2.1000000000000001));
#487=IFCCARTESIANPOINT((0.90000000000000002,0.));
#488=IFCCARTESIANPOINT((-49.100000000000001,0.));
#489=IFCCARTESIANPOINT((-49.100000000000001,-47.899999999999999));
#490=IFCCARTESIANPOINT((50.,-47.899999999999999));
#491=IFCCARTESIANPOINT((50.,0.));
#492=IFCPOLYLINE((#484,#485,#486,#487,#488,#489,#490,#491,#484));
#493=IFCARBITRARYCLOSEDPROFILEDEF(.AREA.,$,#492);
#494=IFCCARTESIANPOINT((0.,0.,0.));
#495=IFCDIRECTION((0.,-1.,0.));
#496=IFCDIRECTION((1.,0.,0.));
#497=IFCAXIS2PLACEMENT3D(#494,#495,#496);
#498=IFCDIRECTION((0.,0.,-1.));
#499=IFCEXTRUDEDAREASOLID(#493,#497,#498,25.);
#500=IFCCARTESIANPOINT((0.,0.));
#501=IFCCARTESIANPOINT((-99.099999999999994,0.));
#502=IFCCARTESIANPOINT((-99.099999999999994,100.));
#503=IFCCARTESIANPOINT((0.,100.));
#504=IFCPOLYLINE((#500,#501,#502,#503,#500));
#505=IFCARBITRARYCLOSEDPROFILEDEF(.AREA.,$,#504);
#506=IFCCARTESIANPOINT((50.,0.,0.));
#507=IFCDIRECTION((0.,0.,1.));
#508=IFCDIRECTION((1.,0.,0.));
#509=IFCAXIS2PLACEMENT3D(#506,#507,#508);
#510=IFCDIRECTION((0.,0.,1.));
#511=IFCEXTRUDEDAREASOLID(#505,#509,#510,25.);
#512=IFCCARTESIANPOINT((0.,0.));
#513=IFCCARTESIANPOINT((0.,27.100000000000001));
#514=IFCCARTESIANPOINT((50.899999999999999,27.100000000000001));
#515=IFCCARTESIANPOINT((50.899999999999999,0.));
#516=IFCCARTESIANPOINT((-24.100000000000001,0.));
#517=IFCCARTESIANPOINT((-24.100000000000001,-47.899999999999999));
#518=IFCCARTESIANPOINT((75.,-47.899999999999999));
#519=IFCCARTESIANPOINT((75.,0.));
#520=IFCPOLYLINE((#512,#513,#514,#515,#516,#517,#518,#519,#512));
#521=IFCARBITRARYCLOSEDPROFILEDEF(.AREA.,$,#520);
#522=IFCCARTESIANPOINT((-25.,-5.,0.));
#523=IFCDIRECTION((0.,-1.,0.));
#524=IFCDIRECTION((1.,0.,0.));
#525=IFCAXIS2PLACEMENT3D(#522,#523,#524);
#526=IFCDIRECTION((0.,0.,-1.));
#527=IFCEXTRUDEDAREASOLID(#521,#525,#526,5.);
#528=IFCCARTESIANPOINT((0.,0.));
#529=IFCCARTESIANPOINT((0.,27.100000000000001));
#530=IFCCARTESIANPOINT((50.899999999999999,27.100000000000001));
#531=IFCCARTESIANPOINT((50.899999999999999,0.));
#532=IFCCARTESIANPOINT((0.89999999999999858,0.));
#533=IFCCARTESIANPOINT((0.89999999999999858,-22.899999999999999));
#534=IFCCARTESIANPOINT((50.,-22.899999999999999));
#535=IFCCARTESIANPOINT((50.,0.));
#536=IFCPOLYLINE((#528,#529,#530,#531,#532,#533,#534,#535,#528));
#537=IFCARBITRARYCLOSEDPROFILEDEF(.AREA.,$,#536);
#538=IFCCARTESIANPOINT((-25.,50.,0.));
#539=IFCDIRECTION((0.,-1.,0.));
#540=IFCDIRECTION((1.,0.,0.));
#541=IFCAXIS2PLACEMENT3D(#538,#539,#540);
#542=IFCDIRECTION((0.,0.,-1.));
#543=IFCEXTRUDEDAREASOLID(#537,#541,#542,5.);
#544=IFCCARTESIANPOINT((0.,0.));
#545=IFCCARTESIANPOINT((-49.100000000000001,0.));
#546=IFCCARTESIANPOINT((-49.100000000000001,35.));
#547=IFCCARTESIANPOINT((0.,35.));
#548=IFCPOLYLINE((#544,#545,#546,#547,#544));
#549=IFCARBITRARYCLOSEDPROFILEDEF(.AREA.,$,#548);
#550=IFCCARTESIANPOINT((25.,25.,25.));
#551=IFCDIRECTION((0.,0.,1.));
#552=IFCDIRECTION((1.,0.,0.));
#553=IFCAXIS2PLACEMENT3D(#550,#551,#552);
#554=IFCDIRECTION((0.,0.,1.));
#555=IFCEXTRUDEDAREASOLID(#549,#553,#554,-47.899999999999999);
#556=IFCCARTESIANPOINT((0.,0.));
#557=IFCCARTESIANPOINT((0.,-40.));
#558=IFCCARTESIANPOINT((-120.00000000000003,-40.));
#559=IFCCARTESIANPOINT((-120.00000000000003,-20.));
#560=IFCCARTESIANPOINT((-20.,-20.));
#561=IFCCARTESIANPOINT((-20.,0.));
#562=IFCPOLYLINE((#556,#557,#558,#559,#560,#561,#556));
#563=IFCARBITRARYCLOSEDPROFILEDEF(.AREA.,$,#562);
#564=IFCCARTESIANPOINT((-74.099999999999994,25.,1015.));
#565=IFCDIRECTION((0.,0.,1.));
#566=IFCDIRECTION((1.,0.,0.));
#567=IFCAXIS2PLACEMENT3D(#564,#565,#566);
#568=IFCDIRECTION((0.,0.,1.));
#569=IFCEXTRUDEDAREASOLID(#563,#567,#568,20.);
#570=IFCEXTRUDEDAREASOLID(#571,#579,#583,20.);
#571=IFCARBITRARYCLOSEDPROFILEDEF(.AREA.,$,#572);
#572=IFCPOLYLINE((#573,#574,#575,#576,#577,#578,#573));
#573=IFCCARTESIANPOINT((0.,0.));
#574=IFCCARTESIANPOINT((0.,40.));
#575=IFCCARTESIANPOINT((-120.00000000000003,40.));
#576=IFCCARTESIANPOINT((-120.00000000000003,20.));
#577=IFCCARTESIANPOINT((-20.,20.));
#578=IFCCARTESIANPOINT((-20.,0.));
#579=IFCAXIS2PLACEMENT3D(#580,#581,#582);
#580=IFCCARTESIANPOINT((-74.099999999999994,60.,1015.));
#581=IFCDIRECTION((0.,0.,1.));
#582=IFCDIRECTION((1.,0.,0.));
#583=IFCDIRECTION((0.,0.,1.));
#584=IFCSHAPEREPRESENTATION(#19,'Body','SweptSolid',(#483,#499,#555,#569,#570,#511,#527,#543));
#585=IFCPRODUCTDEFINITIONSHAPE($,$,(#584));
#591=IFCCARTESIANPOINT((1550.,-50.,0.));
#592=IFCDIRECTION((0.,0.,1.));
#593=IFCDIRECTION((1.,0.,0.));
#594=IFCAXIS2PLACEMENT3D(#591,#592,#593);
#595=IFCLOCALPLACEMENT(#36,#594);
#596=IFCOWNERHISTORY(#3,#7,.READWRITE.,.MODIFIED.,1779440582,#3,#7,1779440582);
#597=IFCDOOR('2zYcun66v0dwcUXDyhcoe1',#596,'Door 3',$,$,#725,#715,$,$,$);
#598=IFCCARTESIANPOINT((0.,0.));
#599=IFCCARTESIANPOINT((0.,2.1000000000000001));
#600=IFCCARTESIANPOINT((0.90000000000000002,2.1000000000000001));
#601=IFCCARTESIANPOINT((0.90000000000000002,0.));
#602=IFCCARTESIANPOINT((-24.100000000000001,0.));
#603=IFCCARTESIANPOINT((-24.100000000000001,-22.899999999999999));
#604=IFCCARTESIANPOINT((25.,-22.899999999999999));
#605=IFCCARTESIANPOINT((25.,0.));
#606=IFCPOLYLINE((#598,#599,#600,#601,#602,#603,#604,#605,#598));
#607=IFCARBITRARYCLOSEDPROFILEDEF(.AREA.,$,#606);
#608=IFCCARTESIANPOINT((0.,25.,0.));
#609=IFCDIRECTION((0.,-1.,0.));
#610=IFCDIRECTION((1.,0.,0.));
#611=IFCAXIS2PLACEMENT3D(#608,#609,#610);
#612=IFCDIRECTION((0.,0.,-1.));
#613=IFCEXTRUDEDAREASOLID(#607,#611,#612,25.);
#614=IFCCARTESIANPOINT((0.,0.));
#615=IFCCARTESIANPOINT((0.,2.1000000000000001));
#616=IFCCARTESIANPOINT((0.90000000000000002,2.1000000000000001));
#617=IFCCARTESIANPOINT((0.90000000000000002,0.));
#618=IFCCARTESIANPOINT((-49.100000000000001,0.));
#619=IFCCARTESIANPOINT((-49.100000000000001,-47.899999999999999));
#620=IFCCARTESIANPOINT((50.,-47.899999999999999));
#621=IFCCARTESIANPOINT((50.,0.));
#622=IFCPOLYLINE((#614,#615,#616,#617,#618,#619,#620,#621,#614));
#623=IFCARBITRARYCLOSEDPROFILEDEF(.AREA.,$,#622);
#624=IFCCARTESIANPOINT((0.,0.,0.));
#625=IFCDIRECTION((0.,-1.,0.));
#626=IFCDIRECTION((1.,0.,0.));
#627=IFCAXIS2PLACEMENT3D(#624,#625,#626);
#628=IFCDIRECTION((0.,0.,-1.));
#629=IFCEXTRUDEDAREASOLID(#623,#627,#628,25.);
#630=IFCCARTESIANPOINT((0.,0.));
#631=IFCCARTESIANPOINT((-99.099999999999994,0.));
#632=IFCCARTESIANPOINT((-99.099999999999994,100.));
#633=IFCCARTESIANPOINT((0.,100.));
#634=IFCPOLYLINE((#630,#631,#632,#633,#630));
#635=IFCARBITRARYCLOSEDPROFILEDEF(.AREA.,$,#634);
#636=IFCCARTESIANPOINT((50.,0.,0.));
#637=IFCDIRECTION((0.,0.,1.));
#638=IFCDIRECTION((1.,0.,0.));
#639=IFCAXIS2PLACEMENT3D(#636,#637,#638);
#640=IFCDIRECTION((0.,0.,1.));
#641=IFCEXTRUDEDAREASOLID(#635,#639,#640,25.);
#642=IFCCARTESIANPOINT((0.,0.));
#643=IFCCARTESIANPOINT((0.,27.100000000000001));
#644=IFCCARTESIANPOINT((50.899999999999999,27.100000000000001));
#645=IFCCARTESIANPOINT((50.899999999999999,0.));
#646=IFCCARTESIANPOINT((-24.100000000000001,0.));
#647=IFCCARTESIANPOINT((-24.100000000000001,-47.899999999999999));
#648=IFCCARTESIANPOINT((75.,-47.899999999999999));
#649=IFCCARTESIANPOINT((75.,0.));
#650=IFCPOLYLINE((#642,#643,#644,#645,#646,#647,#648,#649,#642));
#651=IFCARBITRARYCLOSEDPROFILEDEF(.AREA.,$,#650);
#652=IFCCARTESIANPOINT((-25.,-5.,0.));
#653=IFCDIRECTION((0.,-1.,0.));
#654=IFCDIRECTION((1.,0.,0.));
#655=IFCAXIS2PLACEMENT3D(#652,#653,#654);
#656=IFCDIRECTION((0.,0.,-1.));
#657=IFCEXTRUDEDAREASOLID(#651,#655,#656,5.);
#658=IFCCARTESIANPOINT((0.,0.));
#659=IFCCARTESIANPOINT((0.,27.100000000000001));
#660=IFCCARTESIANPOINT((50.899999999999999,27.100000000000001));
#661=IFCCARTESIANPOINT((50.899999999999999,0.));
#662=IFCCARTESIANPOINT((0.89999999999999858,0.));
#663=IFCCARTESIANPOINT((0.89999999999999858,-22.899999999999999));
#664=IFCCARTESIANPOINT((50.,-22.899999999999999));
#665=IFCCARTESIANPOINT((50.,0.));
#666=IFCPOLYLINE((#658,#659,#660,#661,#662,#663,#664,#665,#658));
#667=IFCARBITRARYCLOSEDPROFILEDEF(.AREA.,$,#666);
#668=IFCCARTESIANPOINT((-25.,50.,0.));
#669=IFCDIRECTION((0.,-1.,0.));
#670=IFCDIRECTION((1.,0.,0.));
#671=IFCAXIS2PLACEMENT3D(#668,#669,#670);
#672=IFCDIRECTION((0.,0.,-1.));
#673=IFCEXTRUDEDAREASOLID(#667,#671,#672,5.);
#674=IFCCARTESIANPOINT((0.,0.));
#675=IFCCARTESIANPOINT((-49.100000000000001,0.));
#676=IFCCARTESIANPOINT((-49.100000000000001,35.));
#677=IFCCARTESIANPOINT((0.,35.));
#678=IFCPOLYLINE((#674,#675,#676,#677,#674));
#679=IFCARBITRARYCLOSEDPROFILEDEF(.AREA.,$,#678);
#680=IFCCARTESIANPOINT((25.,25.,25.));
#681=IFCDIRECTION((0.,0.,1.));
#682=IFCDIRECTION((1.,0.,0.));
#683=IFCAXIS2PLACEMENT3D(#680,#681,#682);
#684=IFCDIRECTION((0.,0.,1.));
#685=IFCEXTRUDEDAREASOLID(#679,#683,#684,-47.899999999999999);
#686=IFCCARTESIANPOINT((0.,0.));
#687=IFCCARTESIANPOINT((0.,-40.));
#688=IFCCARTESIANPOINT((-120.00000000000003,-40.));
#689=IFCCARTESIANPOINT((-120.00000000000003,-20.));
#690=IFCCARTESIANPOINT((-20.,-20.));
#691=IFCCARTESIANPOINT((-20.,0.));
#692=IFCPOLYLINE((#686,#687,#688,#689,#690,#691,#686));
#693=IFCARBITRARYCLOSEDPROFILEDEF(.AREA.,$,#692);
#694=IFCCARTESIANPOINT((-74.099999999999994,25.,1015.));
#695=IFCDIRECTION((0.,0.,1.));
#696=IFCDIRECTION((1.,0.,0.));
#697=IFCAXIS2PLACEMENT3D(#694,#695,#696);
#698=IFCDIRECTION((0.,0.,1.));
#699=IFCEXTRUDEDAREASOLID(#693,#697,#698,20.);
#700=IFCEXTRUDEDAREASOLID(#701,#709,#713,20.);
#701=IFCARBITRARYCLOSEDPROFILEDEF(.AREA.,$,#702);
#702=IFCPOLYLINE((#703,#704,#705,#706,#707,#708,#703));
#703=IFCCARTESIANPOINT((0.,0.));
#704=IFCCARTESIANPOINT((0.,40.));
#705=IFCCARTESIANPOINT((-120.00000000000003,40.));
#706=IFCCARTESIANPOINT((-120.00000000000003,20.));
#707=IFCCARTESIANPOINT((-20.,20.));
#708=IFCCARTESIANPOINT((-20.,0.));
#709=IFCAXIS2PLACEMENT3D(#710,#711,#712);
#710=IFCCARTESIANPOINT((-74.099999999999994,60.,1015.));
#711=IFCDIRECTION((0.,0.,1.));
#712=IFCDIRECTION((1.,0.,0.));
#713=IFCDIRECTION((0.,0.,1.));
#714=IFCSHAPEREPRESENTATION(#19,'Body','SweptSolid',(#613,#629,#685,#699,#700,#641,#657,#673));
#715=IFCPRODUCTDEFINITIONSHAPE($,$,(#714));
#721=IFCCARTESIANPOINT((2300.,-50.,0.));
#722=IFCDIRECTION((0.,0.,1.));
#723=IFCDIRECTION((1.,0.,0.));
#724=IFCAXIS2PLACEMENT3D(#721,#722,#723);
#725=IFCLOCALPLACEMENT(#36,#724);
#726=IFCOWNERHISTORY(#3,#7,.READWRITE.,.MODIFIED.,1779440582,#3,#7,1779440582);
#727=IFCDOOR('3jC3fAPL1AKPArlDPr$72B',#726,'Door 4',$,$,#855,#845,$,$,$);
#728=IFCCARTESIANPOINT((0.,0.));
#729=IFCCARTESIANPOINT((0.,2.1000000000000001));
#730=IFCCARTESIANPOINT((0.90000000000000002,2.1000000000000001));
#731=IFCCARTESIANPOINT((0.90000000000000002,0.));
#732=IFCCARTESIANPOINT((-24.100000000000001,0.));
#733=IFCCARTESIANPOINT((-24.100000000000001,-22.899999999999999));
#734=IFCCARTESIANPOINT((25.,-22.899999999999999));
#735=IFCCARTESIANPOINT((25.,0.));
#736=IFCPOLYLINE((#728,#729,#730,#731,#732,#733,#734,#735,#728));
#737=IFCARBITRARYCLOSEDPROFILEDEF(.AREA.,$,#736);
#738=IFCCARTESIANPOINT((0.,25.,0.));
#739=IFCDIRECTION((0.,-1.,0.));
#740=IFCDIRECTION((1.,0.,0.));
#741=IFCAXIS2PLACEMENT3D(#738,#739,#740);
#742=IFCDIRECTION((0.,0.,-1.));
#743=IFCEXTRUDEDAREASOLID(#737,#741,#742,25.);
#744=IFCCARTESIANPOINT((0.,0.));
#745=IFCCARTESIANPOINT((0.,2.1000000000000001));
#746=IFCCARTESIANPOINT((0.90000000000000002,2.1000000000000001));
#747=IFCCARTESIANPOINT((0.90000000000000002,0.));
#748=IFCCARTESIANPOINT((-49.100000000000001,0.));
#749=IFCCARTESIANPOINT((-49.100000000000001,-47.899999999999999));
#750=IFCCARTESIANPOINT((50.,-47.899999999999999));
#751=IFCCARTESIANPOINT((50.,0.));
#752=IFCPOLYLINE((#744,#745,#746,#747,#748,#749,#750,#751,#744));
#753=IFCARBITRARYCLOSEDPROFILEDEF(.AREA.,$,#752);
#754=IFCCARTESIANPOINT((0.,0.,0.));
#755=IFCDIRECTION((0.,-1.,0.));
#756=IFCDIRECTION((1.,0.,0.));
#757=IFCAXIS2PLACEMENT3D(#754,#755,#756);
#758=IFCDIRECTION((0.,0.,-1.));
#759=IFCEXTRUDEDAREASOLID(#753,#757,#758,25.);
#760=IFCCARTESIANPOINT((0.,0.));
#761=IFCCARTESIANPOINT((-99.099999999999994,0.));
#762=IFCCARTESIANPOINT((-99.099999999999994,100.));
#763=IFCCARTESIANPOINT((0.,100.));
#764=IFCPOLYLINE((#760,#761,#762,#763,#760));
#765=IFCARBITRARYCLOSEDPROFILEDEF(.AREA.,$,#764);
#766=IFCCARTESIANPOINT((50.,0.,0.));
#767=IFCDIRECTION((0.,0.,1.));
#768=IFCDIRECTION((1.,0.,0.));
#769=IFCAXIS2PLACEMENT3D(#766,#767,#768);
#770=IFCDIRECTION((0.,0.,1.));
#771=IFCEXTRUDEDAREASOLID(#765,#769,#770,25.);
#772=IFCCARTESIANPOINT((0.,0.));
#773=IFCCARTESIANPOINT((0.,27.100000000000001));
#774=IFCCARTESIANPOINT((50.899999999999999,27.100000000000001));
#775=IFCCARTESIANPOINT((50.899999999999999,0.));
#776=IFCCARTESIANPOINT((-24.100000000000001,0.));
#777=IFCCARTESIANPOINT((-24.100000000000001,-47.899999999999999));
#778=IFCCARTESIANPOINT((75.,-47.899999999999999));
#779=IFCCARTESIANPOINT((75.,0.));
#780=IFCPOLYLINE((#772,#773,#774,#775,#776,#777,#778,#779,#772));
#781=IFCARBITRARYCLOSEDPROFILEDEF(.AREA.,$,#780);
#782=IFCCARTESIANPOINT((-25.,-5.,0.));
#783=IFCDIRECTION((0.,-1.,0.));
#784=IFCDIRECTION((1.,0.,0.));
#785=IFCAXIS2PLACEMENT3D(#782,#783,#784);
#786=IFCDIRECTION((0.,0.,-1.));
#787=IFCEXTRUDEDAREASOLID(#781,#785,#786,5.);
#788=IFCCARTESIANPOINT((0.,0.));
#789=IFCCARTESIANPOINT((0.,27.100000000000001));
#790=IFCCARTESIANPOINT((50.899999999999999,27.100000000000001));
#791=IFCCARTESIANPOINT((50.899999999999999,0.));
#792=IFCCARTESIANPOINT((0.89999999999999858,0.));
#793=IFCCARTESIANPOINT((0.89999999999999858,-22.899999999999999));
#794=IFCCARTESIANPOINT((50.,-22.899999999999999));
#795=IFCCARTESIANPOINT((50.,0.));
#796=IFCPOLYLINE((#788,#789,#790,#791,#792,#793,#794,#795,#788));
#797=IFCARBITRARYCLOSEDPROFILEDEF(.AREA.,$,#796);
#798=IFCCARTESIANPOINT((-25.,50.,0.));
#799=IFCDIRECTION((0.,-1.,0.));
#800=IFCDIRECTION((1.,0.,0.));
#801=IFCAXIS2PLACEMENT3D(#798,#799,#800);
#802=IFCDIRECTION((0.,0.,-1.));
#803=IFCEXTRUDEDAREASOLID(#797,#801,#802,5.);
#804=IFCCARTESIANPOINT((0.,0.));
#805=IFCCARTESIANPOINT((-49.100000000000001,0.));
#806=IFCCARTESIANPOINT((-49.100000000000001,35.));
#807=IFCCARTESIANPOINT((0.,35.));
#808=IFCPOLYLINE((#804,#805,#806,#807,#804));
#809=IFCARBITRARYCLOSEDPROFILEDEF(.AREA.,$,#808);
#810=IFCCARTESIANPOINT((25.,25.,25.));
#811=IFCDIRECTION((0.,0.,1.));
#812=IFCDIRECTION((1.,0.,0.));
#813=IFCAXIS2PLACEMENT3D(#810,#811,#812);
#814=IFCDIRECTION((0.,0.,1.));
#815=IFCEXTRUDEDAREASOLID(#809,#813,#814,-47.899999999999999);
#816=IFCCARTESIANPOINT((0.,0.));
#817=IFCCARTESIANPOINT((0.,-40.));
#818=IFCCARTESIANPOINT((-120.00000000000003,-40.));
#819=IFCCARTESIANPOINT((-120.00000000000003,-20.));
#820=IFCCARTESIANPOINT((-20.,-20.));
#821=IFCCARTESIANPOINT((-20.,0.));
#822=IFCPOLYLINE((#816,#817,#818,#819,#820,#821,#816));
#823=IFCARBITRARYCLOSEDPROFILEDEF(.AREA.,$,#822);
#824=IFCCARTESIANPOINT((-74.099999999999994,25.,1015.));
#825=IFCDIRECTION((0.,0.,1.));
#826=IFCDIRECTION((1.,0.,0.));
#827=IFCAXIS2PLACEMENT3D(#824,#825,#826);
#828=IFCDIRECTION((0.,0.,1.));
#829=IFCEXTRUDEDAREASOLID(#823,#827,#828,20.);
#830=IFCEXTRUDEDAREASOLID(#831,#839,#843,20.);
#831=IFCARBITRARYCLOSEDPROFILEDEF(.AREA.,$,#832);
#832=IFCPOLYLINE((#833,#834,#835,#836,#837,#838,#833));
#833=IFCCARTESIANPOINT((0.,0.));
#834=IFCCARTESIANPOINT((0.,40.));
#835=IFCCARTESIANPOINT((-120.00000000000003,40.));
#836=IFCCARTESIANPOINT((-120.00000000000003,20.));
#837=IFCCARTESIANPOINT((-20.,20.));
#838=IFCCARTESIANPOINT((-20.,0.));
#839=IFCAXIS2PLACEMENT3D(#840,#841,#842);
#840=IFCCARTESIANPOINT((-74.099999999999994,60.,1015.));
#841=IFCDIRECTION((0.,0.,1.));
#842=IFCDIRECTION((1.,0.,0.));
#843=IFCDIRECTION((0.,0.,1.));
#844=IFCSHAPEREPRESENTATION(#19,'Body','SweptSolid',(#743,#759,#815,#829,#830,#771,#787,#803));
#845=IFCPRODUCTDEFINITIONSHAPE($,$,(#844));
#851=IFCCARTESIANPOINT((3049.9999999999995,-50.,0.));
#852=IFCDIRECTION((0.,0.,1.));
#853=IFCDIRECTION((1.,0.,0.));
#854=IFCAXIS2PLACEMENT3D(#851,#852,#853);
#855=IFCLOCALPLACEMENT(#36,#854);
#856=IFCOWNERHISTORY(#3,#7,.READWRITE.,.MODIFIED.,1779440582,#3,#7,1779440582);
#857=IFCOPENINGELEMENT('3Kx6HuhrH7vAV1sKiDHSqm',#856,'WD - 001',$,$,#892,#887,$);
#858=IFCCARTESIANPOINT((0.,0.,0.));
#859=IFCCARTESIANPOINT((900.,0.,0.));
#860=IFCCARTESIANPOINT((900.,202.,0.));
#861=IFCCARTESIANPOINT((0.,202.,0.));
#862=IFCCARTESIANPOINT((0.,0.,1500.));
#863=IFCCARTESIANPOINT((900.,0.,1500.));
#864=IFCCARTESIANPOINT((900.,202.,1500.));
#865=IFCCARTESIANPOINT((0.,202.,1500.));
#866=IFCPOLYLOOP((#858,#859,#860,#861));
#867=IFCFACEOUTERBOUND(#866,.T.);
#868=IFCFACE((#867));
#869=IFCPOLYLOOP((#862,#865,#864,#863));
#870=IFCFACEOUTERBOUND(#869,.T.);
#871=IFCFACE((#870));
#872=IFCPOLYLOOP((#858,#862,#863,#859));
#873=IFCFACEOUTERBOUND(#872,.T.);
#874=IFCFACE((#873));
#875=IFCPOLYLOOP((#859,#863,#864,#860));
#876=IFCFACEOUTERBOUND(#875,.T.);
#877=IFCFACE((#876));
#878=IFCPOLYLOOP((#860,#864,#865,#861));
#879=IFCFACEOUTERBOUND(#878,.T.);
#880=IFCFACE((#879));
#881=IFCPOLYLOOP((#861,#865,#862,#858));
#882=IFCFACEOUTERBOUND(#881,.T.);
#883=IFCFACE((#882));
#884=IFCCLOSEDSHELL((#868,#871,#874,#877,#880,#883));
#885=IFCFACETEDBREP(#884);
#886=IFCSHAPEREPRESENTATION(#19,'Body','Brep',(#885));
#887=IFCPRODUCTDEFINITIONSHAPE($,$,(#886));
#888=IFCCARTESIANPOINT((3000.,-1.,1000.));
#889=IFCDIRECTION((0.,0.,1.));
#890=IFCDIRECTION((1.,0.,0.));
#891=IFCAXIS2PLACEMENT3D(#888,#889,#890);
#892=IFCLOCALPLACEMENT($,#891);
#893=IFCOWNERHISTORY(#3,#7,.READWRITE.,.ADDED.,1779440582,#3,#7,1779440582);
#894=IFCRELVOIDSELEMENT('0kEVlCs1TDQhdlLxAZpUtY',#893,$,$,#38,#857);
#895=IFCOWNERHISTORY(#3,#7,.READWRITE.,.MODIFIED.,1779440582,#3,#7,1779440582);
#896=IFCWINDOW('2nG$e5zzfCogavgpE3PkBs',#895,'WD - 001',$,'WINDOW',#1050,#1038,$,1500.,900.);
#897=IFCCARTESIANPOINT((0.,0.,0.));
#898=IFCCARTESIANPOINT((60.,0.,0.));
#899=IFCCARTESIANPOINT((60.,75.,0.));
#900=IFCCARTESIANPOINT((0.,75.,0.));
#901=IFCCARTESIANPOINT((0.,0.,1500.));
#902=IFCCARTESIANPOINT((60.,0.,1500.));
#903=IFCCARTESIANPOINT((60.,75.,1500.));
#904=IFCCARTESIANPOINT((0.,75.,1500.));
#905=IFCPOLYLOOP((#897,#898,#899,#900));
#906=IFCFACEOUTERBOUND(#905,.T.);
#907=IFCFACE((#906));
#908=IFCPOLYLOOP((#901,#904,#903,#902));
#909=IFCFACEOUTERBOUND(#908,.T.);
#910=IFCFACE((#909));
#911=IFCPOLYLOOP((#897,#901,#902,#898));
#912=IFCFACEOUTERBOUND(#911,.T.);
#913=IFCFACE((#912));
#914=IFCPOLYLOOP((#898,#902,#903,#899));
#915=IFCFACEOUTERBOUND(#914,.T.);
#916=IFCFACE((#915));
#917=IFCPOLYLOOP((#899,#903,#904,#900));
#918=IFCFACEOUTERBOUND(#917,.T.);
#919=IFCFACE((#918));
#920=IFCPOLYLOOP((#900,#904,#901,#897));
#921=IFCFACEOUTERBOUND(#920,.T.);
#922=IFCFACE((#921));
#923=IFCCLOSEDSHELL((#907,#910,#913,#916,#919,#922));
#924=IFCFACETEDBREP(#923);
#925=IFCCARTESIANPOINT((840.,0.,0.));
#926=IFCCARTESIANPOINT((900.,0.,0.));
#927=IFCCARTESIANPOINT((900.,75.,0.));
#928=IFCCARTESIANPOINT((840.,75.,0.));
#929=IFCCARTESIANPOINT((840.,0.,1500.));
#930=IFCCARTESIANPOINT((900.,0.,1500.));
#931=IFCCARTESIANPOINT((900.,75.,1500.));
#932=IFCCARTESIANPOINT((840.,75.,1500.));
#933=IFCPOLYLOOP((#925,#926,#927,#928));
#934=IFCFACEOUTERBOUND(#933,.T.);
#935=IFCFACE((#934));
#936=IFCPOLYLOOP((#929,#932,#931,#930));
#937=IFCFACEOUTERBOUND(#936,.T.);
#938=IFCFACE((#937));
#939=IFCPOLYLOOP((#925,#929,#930,#926));
#940=IFCFACEOUTERBOUND(#939,.T.);
#941=IFCFACE((#940));
#942=IFCPOLYLOOP((#926,#930,#931,#927));
#943=IFCFACEOUTERBOUND(#942,.T.);
#944=IFCFACE((#943));
#945=IFCPOLYLOOP((#927,#931,#932,#928));
#946=IFCFACEOUTERBOUND(#945,.T.);
#947=IFCFACE((#946));
#948=IFCPOLYLOOP((#928,#932,#929,#925));
#949=IFCFACEOUTERBOUND(#948,.T.);
#950=IFCFACE((#949));
#951=IFCCLOSEDSHELL((#935,#938,#941,#944,#947,#950));
#952=IFCFACETEDBREP(#951);
#953=IFCCARTESIANPOINT((0.,0.,1440.));
#954=IFCCARTESIANPOINT((900.,0.,1440.));
#955=IFCCARTESIANPOINT((900.,75.,1440.));
#956=IFCCARTESIANPOINT((0.,75.,1440.));
#957=IFCCARTESIANPOINT((0.,0.,1500.));
#958=IFCCARTESIANPOINT((900.,0.,1500.));
#959=IFCCARTESIANPOINT((900.,75.,1500.));
#960=IFCCARTESIANPOINT((0.,75.,1500.));
#961=IFCPOLYLOOP((#953,#954,#955,#956));
#962=IFCFACEOUTERBOUND(#961,.T.);
#963=IFCFACE((#962));
#964=IFCPOLYLOOP((#957,#960,#959,#958));
#965=IFCFACEOUTERBOUND(#964,.T.);
#966=IFCFACE((#965));
#967=IFCPOLYLOOP((#953,#957,#958,#954));
#968=IFCFACEOUTERBOUND(#967,.T.);
#969=IFCFACE((#968));
#970=IFCPOLYLOOP((#954,#958,#959,#955));
#971=IFCFACEOUTERBOUND(#970,.T.);
#972=IFCFACE((#971));
#973=IFCPOLYLOOP((#955,#959,#960,#956));
#974=IFCFACEOUTERBOUND(#973,.T.);
#975=IFCFACE((#974));
#976=IFCPOLYLOOP((#956,#960,#957,#953));
#977=IFCFACEOUTERBOUND(#976,.T.);
#978=IFCFACE((#977));
#979=IFCCLOSEDSHELL((#963,#966,#969,#972,#975,#978));
#980=IFCFACETEDBREP(#979);
#981=IFCCARTESIANPOINT((0.,0.,0.));
#982=IFCCARTESIANPOINT((900.,0.,0.));
#983=IFCCARTESIANPOINT((900.,75.,0.));
#984=IFCCARTESIANPOINT((0.,75.,0.));
#985=IFCCARTESIANPOINT((0.,0.,60.));
#986=IFCCARTESIANPOINT((900.,0.,60.));
#987=IFCCARTESIANPOINT((900.,75.,60.));
#988=IFCCARTESIANPOINT((0.,75.,60.));
#989=IFCPOLYLOOP((#981,#982,#983,#984));
#990=IFCFACEOUTERBOUND(#989,.T.);
#991=IFCFACE((#990));
#992=IFCPOLYLOOP((#985,#988,#987,#986));
#993=IFCFACEOUTERBOUND(#992,.T.);
#994=IFCFACE((#993));
#995=IFCPOLYLOOP((#981,#985,#986,#982));
#996=IFCFACEOUTERBOUND(#995,.T.);
#997=IFCFACE((#996));
#998=IFCPOLYLOOP((#982,#986,#987,#983));
#999=IFCFACEOUTERBOUND(#998,.T.);
#1000=IFCFACE((#999));
#1001=IFCPOLYLOOP((#983,#987,#988,#984));
#1002=IFCFACEOUTERBOUND(#1001,.T.);
#1003=IFCFACE((#1002));
#1004=IFCPOLYLOOP((#984,#988,#985,#981));
#1005=IFCFACEOUTERBOUND(#1004,.T.);
#1006=IFCFACE((#1005));
#1007=IFCCLOSEDSHELL((#991,#994,#997,#1000,#1003,#1006));
#1008=IFCFACETEDBREP(#1007);
#1009=IFCCARTESIANPOINT((60.,27.5,60.));
#1010=IFCCARTESIANPOINT((840.,27.5,60.));
#1011=IFCCARTESIANPOINT((840.,47.5,60.));
#1012=IFCCARTESIANPOINT((60.,47.5,60.));
#1013=IFCCARTESIANPOINT((60.,27.5,1440.));
#1014=IFCCARTESIANPOINT((840.,27.5,1440.));
#1015=IFCCARTESIANPOINT((840.,47.5,1440.));
#1016=IFCCARTESIANPOINT((60.,47.5,1440.));
#1017=IFCPOLYLOOP((#1009,#1010,#1011,#1012));
#1018=IFCFACEOUTERBOUND(#1017,.T.);
#1019=IFCFACE((#1018));
#1020=IFCPOLYLOOP((#1013,#1016,#1015,#1014));
#1021=IFCFACEOUTERBOUND(#1020,.T.);
#1022=IFCFACE((#1021));
#1023=IFCPOLYLOOP((#1009,#1013,#1014,#1010));
#1024=IFCFACEOUTERBOUND(#1023,.T.);
#1025=IFCFACE((#1024));
#1026=IFCPOLYLOOP((#1010,#1014,#1015,#1011));
#1027=IFCFACEOUTERBOUND(#1026,.T.);
#1028=IFCFACE((#1027));
#1029=IFCPOLYLOOP((#1011,#1015,#1016,#1012));
#1030=IFCFACEOUTERBOUND(#1029,.T.);
#1031=IFCFACE((#1030));
#1032=IFCPOLYLOOP((#1012,#1016,#1013,#1009));
#1033=IFCFACEOUTERBOUND(#1032,.T.);
#1034=IFCFACE((#1033));
#1035=IFCCLOSEDSHELL((#1019,#1022,#1025,#1028,#1031,#1034));
#1036=IFCFACETEDBREP(#1035);
#1037=IFCSHAPEREPRESENTATION(#19,'Body','SurfaceModel',(#924,#952,#980,#1008,#1036));
#1038=IFCPRODUCTDEFINITIONSHAPE($,$,(#1037));
#1044=IFCOWNERHISTORY(#3,#7,.READWRITE.,.ADDED.,1779440582,#3,#7,1779440582);
#1045=IFCRELFILLSELEMENT('3x0KIFFSXEXhZpRgruP_C3',#1044,$,$,#857,#896);
#1046=IFCCARTESIANPOINT((0.,1.,0.));
#1047=IFCDIRECTION((0.,0.,1.));
#1048=IFCDIRECTION((1.,0.,0.));
#1049=IFCAXIS2PLACEMENT3D(#1046,#1047,#1048);
#1050=IFCLOCALPLACEMENT(#892,#1049);
#1051=IFCOWNERHISTORY(#3,#7,.READWRITE.,.ADDED.,1779440582,#3,#7,1779440582);
#1052=IFCWINDOWSTYLE('0OLMhG_nj3Ghgzp3vGwbHY',#1051,'Window Style 1',$,$,$,$,$,.NOTDEFINED.,.NOTDEFINED.,.F.,.F.);
#1053=IFCOWNERHISTORY(#3,#7,.READWRITE.,.ADDED.,1779440582,#3,#7,1779440582);
#1054=IFCRELDEFINESBYTYPE('3IcXUzSpv8D98o4nxYBz2U',#1053,$,$,(#896),#1052);
#1055=IFCOWNERHISTORY(#3,#7,.READWRITE.,.MODIFIED.,1779440582,#3,#7,1779440582);
#1056=IFCOPENINGELEMENT('2SE8y6PKXF_985JuxeAt_O',#1055,'WD - 002',$,$,#1091,#1086,$);
#1057=IFCCARTESIANPOINT((0.,0.,0.));
#1058=IFCCARTESIANPOINT((900.,0.,0.));
#1059=IFCCARTESIANPOINT((900.,202.,0.));
#1060=IFCCARTESIANPOINT((0.,202.,0.));
#1061=IFCCARTESIANPOINT((0.,0.,1500.));
#1062=IFCCARTESIANPOINT((900.,0.,1500.));
#1063=IFCCARTESIANPOINT((900.,202.,1500.));
#1064=IFCCARTESIANPOINT((0.,202.,1500.));
#1065=IFCPOLYLOOP((#1057,#1058,#1059,#1060));
#1066=IFCFACEOUTERBOUND(#1065,.T.);
#1067=IFCFACE((#1066));
#1068=IFCPOLYLOOP((#1061,#1064,#1063,#1062));
#1069=IFCFACEOUTERBOUND(#1068,.T.);
#1070=IFCFACE((#1069));
#1071=IFCPOLYLOOP((#1057,#1061,#1062,#1058));
#1072=IFCFACEOUTERBOUND(#1071,.T.);
#1073=IFCFACE((#1072));
#1074=IFCPOLYLOOP((#1058,#1062,#1063,#1059));
#1075=IFCFACEOUTERBOUND(#1074,.T.);
#1076=IFCFACE((#1075));
#1077=IFCPOLYLOOP((#1059,#1063,#1064,#1060));
#1078=IFCFACEOUTERBOUND(#1077,.T.);
#1079=IFCFACE((#1078));
#1080=IFCPOLYLOOP((#1060,#1064,#1061,#1057));
#1081=IFCFACEOUTERBOUND(#1080,.T.);
#1082=IFCFACE((#1081));
#1083=IFCCLOSEDSHELL((#1067,#1070,#1073,#1076,#1079,#1082));
#1084=IFCFACETEDBREP(#1083);
#1085=IFCSHAPEREPRESENTATION(#19,'Body','Brep',(#1084));
#1086=IFCPRODUCTDEFINITIONSHAPE($,$,(#1085));
#1087=IFCCARTESIANPOINT((6000.,-1.,1000.));
#1088=IFCDIRECTION((0.,0.,1.));
#1089=IFCDIRECTION((1.,0.,0.));
#1090=IFCAXIS2PLACEMENT3D(#1087,#1088,#1089);
#1091=IFCLOCALPLACEMENT($,#1090);
#1092=IFCOWNERHISTORY(#3,#7,.READWRITE.,.ADDED.,1779440582,#3,#7,1779440582);
#1093=IFCRELVOIDSELEMENT('2mu7WbB3v0f81aKke2JMdS',#1092,$,$,#38,#1056);
#1094=IFCOWNERHISTORY(#3,#7,.READWRITE.,.MODIFIED.,1779440582,#3,#7,1779440582);
#1095=IFCWINDOW('140bpU4J50kwauuPB3K$N7',#1094,'WD - 002',$,'WINDOW',#1249,#1237,$,1500.,900.);
#1096=IFCCARTESIANPOINT((0.,0.,0.));
#1097=IFCCARTESIANPOINT((60.,0.,0.));
#1098=IFCCARTESIANPOINT((60.,75.,0.));
#1099=IFCCARTESIANPOINT((0.,75.,0.));
#1100=IFCCARTESIANPOINT((0.,0.,1500.));
#1101=IFCCARTESIANPOINT((60.,0.,1500.));
#1102=IFCCARTESIANPOINT((60.,75.,1500.));
#1103=IFCCARTESIANPOINT((0.,75.,1500.));
#1104=IFCPOLYLOOP((#1096,#1097,#1098,#1099));
#1105=IFCFACEOUTERBOUND(#1104,.T.);
#1106=IFCFACE((#1105));
#1107=IFCPOLYLOOP((#1100,#1103,#1102,#1101));
#1108=IFCFACEOUTERBOUND(#1107,.T.);
#1109=IFCFACE((#1108));
#1110=IFCPOLYLOOP((#1096,#1100,#1101,#1097));
#1111=IFCFACEOUTERBOUND(#1110,.T.);
#1112=IFCFACE((#1111));
#1113=IFCPOLYLOOP((#1097,#1101,#1102,#1098));
#1114=IFCFACEOUTERBOUND(#1113,.T.);
#1115=IFCFACE((#1114));
#1116=IFCPOLYLOOP((#1098,#1102,#1103,#1099));
#1117=IFCFACEOUTERBOUND(#1116,.T.);
#1118=IFCFACE((#1117));
#1119=IFCPOLYLOOP((#1099,#1103,#1100,#1096));
#1120=IFCFACEOUTERBOUND(#1119,.T.);
#1121=IFCFACE((#1120));
#1122=IFCCLOSEDSHELL((#1106,#1109,#1112,#1115,#1118,#1121));
#1123=IFCFACETEDBREP(#1122);
#1124=IFCCARTESIANPOINT((840.,0.,0.));
#1125=IFCCARTESIANPOINT((900.,0.,0.));
#1126=IFCCARTESIANPOINT((900.,75.,0.));
#1127=IFCCARTESIANPOINT((840.,75.,0.));
#1128=IFCCARTESIANPOINT((840.,0.,1500.));
#1129=IFCCARTESIANPOINT((900.,0.,1500.));
#1130=IFCCARTESIANPOINT((900.,75.,1500.));
#1131=IFCCARTESIANPOINT((840.,75.,1500.));
#1132=IFCPOLYLOOP((#1124,#1125,#1126,#1127));
#1133=IFCFACEOUTERBOUND(#1132,.T.);
#1134=IFCFACE((#1133));
#1135=IFCPOLYLOOP((#1128,#1131,#1130,#1129));
#1136=IFCFACEOUTERBOUND(#1135,.T.);
#1137=IFCFACE((#1136));
#1138=IFCPOLYLOOP((#1124,#1128,#1129,#1125));
#1139=IFCFACEOUTERBOUND(#1138,.T.);
#1140=IFCFACE((#1139));
#1141=IFCPOLYLOOP((#1125,#1129,#1130,#1126));
#1142=IFCFACEOUTERBOUND(#1141,.T.);
#1143=IFCFACE((#1142));
#1144=IFCPOLYLOOP((#1126,#1130,#1131,#1127));
#1145=IFCFACEOUTERBOUND(#1144,.T.);
#1146=IFCFACE((#1145));
#1147=IFCPOLYLOOP((#1127,#1131,#1128,#1124));
#1148=IFCFACEOUTERBOUND(#1147,.T.);
#1149=IFCFACE((#1148));
#1150=IFCCLOSEDSHELL((#1134,#1137,#1140,#1143,#1146,#1149));
#1151=IFCFACETEDBREP(#1150);
#1152=IFCCARTESIANPOINT((0.,0.,1440.));
#1153=IFCCARTESIANPOINT((900.,0.,1440.));
#1154=IFCCARTESIANPOINT((900.,75.,1440.));
#1155=IFCCARTESIANPOINT((0.,75.,1440.));
#1156=IFCCARTESIANPOINT((0.,0.,1500.));
#1157=IFCCARTESIANPOINT((900.,0.,1500.));
#1158=IFCCARTESIANPOINT((900.,75.,1500.));
#1159=IFCCARTESIANPOINT((0.,75.,1500.));
#1160=IFCPOLYLOOP((#1152,#1153,#1154,#1155));
#1161=IFCFACEOUTERBOUND(#1160,.T.);
#1162=IFCFACE((#1161));
#1163=IFCPOLYLOOP((#1156,#1159,#1158,#1157));
#1164=IFCFACEOUTERBOUND(#1163,.T.);
#1165=IFCFACE((#1164));
#1166=IFCPOLYLOOP((#1152,#1156,#1157,#1153));
#1167=IFCFACEOUTERBOUND(#1166,.T.);
#1168=IFCFACE((#1167));
#1169=IFCPOLYLOOP((#1153,#1157,#1158,#1154));
#1170=IFCFACEOUTERBOUND(#1169,.T.);
#1171=IFCFACE((#1170));
#1172=IFCPOLYLOOP((#1154,#1158,#1159,#1155));
#1173=IFCFACEOUTERBOUND(#1172,.T.);
#1174=IFCFACE((#1173));
#1175=IFCPOLYLOOP((#1155,#1159,#1156,#1152));
#1176=IFCFACEOUTERBOUND(#1175,.T.);
#1177=IFCFACE((#1176));
#1178=IFCCLOSEDSHELL((#1162,#1165,#1168,#1171,#1174,#1177));
#1179=IFCFACETEDBREP(#1178);
#1180=IFCCARTESIANPOINT((0.,0.,0.));
#1181=IFCCARTESIANPOINT((900.,0.,0.));
#1182=IFCCARTESIANPOINT((900.,75.,0.));
#1183=IFCCARTESIANPOINT((0.,75.,0.));
#1184=IFCCARTESIANPOINT((0.,0.,60.));
#1185=IFCCARTESIANPOINT((900.,0.,60.));
#1186=IFCCARTESIANPOINT((900.,75.,60.));
#1187=IFCCARTESIANPOINT((0.,75.,60.));
#1188=IFCPOLYLOOP((#1180,#1181,#1182,#1183));
#1189=IFCFACEOUTERBOUND(#1188,.T.);
#1190=IFCFACE((#1189));
#1191=IFCPOLYLOOP((#1184,#1187,#1186,#1185));
#1192=IFCFACEOUTERBOUND(#1191,.T.);
#1193=IFCFACE((#1192));
#1194=IFCPOLYLOOP((#1180,#1184,#1185,#1181));
#1195=IFCFACEOUTERBOUND(#1194,.T.);
#1196=IFCFACE((#1195));
#1197=IFCPOLYLOOP((#1181,#1185,#1186,#1182));
#1198=IFCFACEOUTERBOUND(#1197,.T.);
#1199=IFCFACE((#1198));
#1200=IFCPOLYLOOP((#1182,#1186,#1187,#1183));
#1201=IFCFACEOUTERBOUND(#1200,.T.);
#1202=IFCFACE((#1201));
#1203=IFCPOLYLOOP((#1183,#1187,#1184,#1180));
#1204=IFCFACEOUTERBOUND(#1203,.T.);
#1205=IFCFACE((#1204));
#1206=IFCCLOSEDSHELL((#1190,#1193,#1196,#1199,#1202,#1205));
#1207=IFCFACETEDBREP(#1206);
#1208=IFCCARTESIANPOINT((60.,27.5,60.));
#1209=IFCCARTESIANPOINT((840.,27.5,60.));
#1210=IFCCARTESIANPOINT((840.,47.5,60.));
#1211=IFCCARTESIANPOINT((60.,47.5,60.));
#1212=IFCCARTESIANPOINT((60.,27.5,1440.));
#1213=IFCCARTESIANPOINT((840.,27.5,1440.));
#1214=IFCCARTESIANPOINT((840.,47.5,1440.));
#1215=IFCCARTESIANPOINT((60.,47.5,1440.));
#1216=IFCPOLYLOOP((#1208,#1209,#1210,#1211));
#1217=IFCFACEOUTERBOUND(#1216,.T.);
#1218=IFCFACE((#1217));
#1219=IFCPOLYLOOP((#1212,#1215,#1214,#1213));
#1220=IFCFACEOUTERBOUND(#1219,.T.);
#1221=IFCFACE((#1220));
#1222=IFCPOLYLOOP((#1208,#1212,#1213,#1209));
#1223=IFCFACEOUTERBOUND(#1222,.T.);
#1224=IFCFACE((#1223));
#1225=IFCPOLYLOOP((#1209,#1213,#1214,#1210));
#1226=IFCFACEOUTERBOUND(#1225,.T.);
#1227=IFCFACE((#1226));
#1228=IFCPOLYLOOP((#1210,#1214,#1215,#1211));
#1229=IFCFACEOUTERBOUND(#1228,.T.);
#1230=IFCFACE((#1229));
#1231=IFCPOLYLOOP((#1211,#1215,#1212,#1208));
#1232=IFCFACEOUTERBOUND(#1231,.T.);
#1233=IFCFACE((#1232));
#1234=IFCCLOSEDSHELL((#1218,#1221,#1224,#1227,#1230,#1233));
#1235=IFCFACETEDBREP(#1234);
#1236=IFCSHAPEREPRESENTATION(#19,'Body','SurfaceModel',(#1123,#1151,#1179,#1207,#1235));
#1237=IFCPRODUCTDEFINITIONSHAPE($,$,(#1236));
#1243=IFCOWNERHISTORY(#3,#7,.READWRITE.,.ADDED.,1779440582,#3,#7,1779440582);
#1244=IFCRELFILLSELEMENT('30XUvQ9y9BJvUIITlHJ4$F',#1243,$,$,#1056,#1095);
#1245=IFCCARTESIANPOINT((0.,1.,0.));
#1246=IFCDIRECTION((0.,0.,1.));
#1247=IFCDIRECTION((1.,0.,0.));
#1248=IFCAXIS2PLACEMENT3D(#1245,#1246,#1247);
#1249=IFCLOCALPLACEMENT(#1091,#1248);
#1250=IFCOWNERHISTORY(#3,#7,.READWRITE.,.ADDED.,1779440582,#3,#7,1779440582);
#1251=IFCWINDOWSTYLE('3bUFo98Gz70Ouk1dKORawc',#1250,'Window Style 2',$,$,$,$,$,.NOTDEFINED.,.NOTDEFINED.,.F.,.F.);
#1252=IFCOWNERHISTORY(#3,#7,.READWRITE.,.ADDED.,1779440582,#3,#7,1779440582);
#1253=IFCRELDEFINESBYTYPE('0X98vMnOrEsABg9xktf8vH',#1252,$,$,(#1095),#1251);
#1254=IFCOWNERHISTORY(#3,#7,.READWRITE.,.MODIFIED.,1779440582,#3,#7,1779440582);
#1255=IFCOPENINGELEMENT('3DfcHmVe57_BMQKEb2_fit',#1254,'WD - 003',$,$,#1290,#1285,$);
#1256=IFCCARTESIANPOINT((0.,0.,0.));
#1257=IFCCARTESIANPOINT((900.,0.,0.));
#1258=IFCCARTESIANPOINT((900.,202.,0.));
#1259=IFCCARTESIANPOINT((0.,202.,0.));
#1260=IFCCARTESIANPOINT((0.,0.,1500.));
#1261=IFCCARTESIANPOINT((900.,0.,1500.));
#1262=IFCCARTESIANPOINT((900.,202.,1500.));
#1263=IFCCARTESIANPOINT((0.,202.,1500.));
#1264=IFCPOLYLOOP((#1256,#1257,#1258,#1259));
#1265=IFCFACEOUTERBOUND(#1264,.T.);
#1266=IFCFACE((#1265));
#1267=IFCPOLYLOOP((#1260,#1263,#1262,#1261));
#1268=IFCFACEOUTERBOUND(#1267,.T.);
#1269=IFCFACE((#1268));
#1270=IFCPOLYLOOP((#1256,#1260,#1261,#1257));
#1271=IFCFACEOUTERBOUND(#1270,.T.);
#1272=IFCFACE((#1271));
#1273=IFCPOLYLOOP((#1257,#1261,#1262,#1258));
#1274=IFCFACEOUTERBOUND(#1273,.T.);
#1275=IFCFACE((#1274));
#1276=IFCPOLYLOOP((#1258,#1262,#1263,#1259));
#1277=IFCFACEOUTERBOUND(#1276,.T.);
#1278=IFCFACE((#1277));
#1279=IFCPOLYLOOP((#1259,#1263,#1260,#1256));
#1280=IFCFACEOUTERBOUND(#1279,.T.);
#1281=IFCFACE((#1280));
#1282=IFCCLOSEDSHELL((#1266,#1269,#1272,#1275,#1278,#1281));
#1283=IFCFACETEDBREP(#1282);
#1284=IFCSHAPEREPRESENTATION(#19,'Body','Brep',(#1283));
#1285=IFCPRODUCTDEFINITIONSHAPE($,$,(#1284));
#1286=IFCCARTESIANPOINT((9000.,-1.,1000.));
#1287=IFCDIRECTION((0.,0.,1.));
#1288=IFCDIRECTION((1.,0.,0.));
#1289=IFCAXIS2PLACEMENT3D(#1286,#1287,#1288);
#1290=IFCLOCALPLACEMENT($,#1289);
#1291=IFCOWNERHISTORY(#3,#7,.READWRITE.,.ADDED.,1779440582,#3,#7,1779440582);
#1292=IFCRELVOIDSELEMENT('3gYEd6ml50vfHHqtugFwLT',#1291,$,$,#38,#1255);
#1293=IFCOWNERHISTORY(#3,#7,.READWRITE.,.MODIFIED.,1779440582,#3,#7,1779440582);
#1294=IFCWINDOW('3UCcbSSxn9I97wev60SPdK',#1293,'WD - 003',$,'WINDOW',#1448,#1436,$,1500.,900.);
#1295=IFCCARTESIANPOINT((0.,0.,0.));
#1296=IFCCARTESIANPOINT((60.,0.,0.));
#1297=IFCCARTESIANPOINT((60.,75.,0.));
#1298=IFCCARTESIANPOINT((0.,75.,0.));
#1299=IFCCARTESIANPOINT((0.,0.,1500.));
#1300=IFCCARTESIANPOINT((60.,0.,1500.));
#1301=IFCCARTESIANPOINT((60.,75.,1500.));
#1302=IFCCARTESIANPOINT((0.,75.,1500.));
#1303=IFCPOLYLOOP((#1295,#1296,#1297,#1298));
#1304=IFCFACEOUTERBOUND(#1303,.T.);
#1305=IFCFACE((#1304));
#1306=IFCPOLYLOOP((#1299,#1302,#1301,#1300));
#1307=IFCFACEOUTERBOUND(#1306,.T.);
#1308=IFCFACE((#1307));
#1309=IFCPOLYLOOP((#1295,#1299,#1300,#1296));
#1310=IFCFACEOUTERBOUND(#1309,.T.);
#1311=IFCFACE((#1310));
#1312=IFCPOLYLOOP((#1296,#1300,#1301,#1297));
#1313=IFCFACEOUTERBOUND(#1312,.T.);
#1314=IFCFACE((#1313));
#1315=IFCPOLYLOOP((#1297,#1301,#1302,#1298));
#1316=IFCFACEOUTERBOUND(#1315,.T.);
#1317=IFCFACE((#1316));
#1318=IFCPOLYLOOP((#1298,#1302,#1299,#1295));
#1319=IFCFACEOUTERBOUND(#1318,.T.);
#1320=IFCFACE((#1319));
#1321=IFCCLOSEDSHELL((#1305,#1308,#1311,#1314,#1317,#1320));
#1322=IFCFACETEDBREP(#1321);
#1323=IFCCARTESIANPOINT((840.,0.,0.));
#1324=IFCCARTESIANPOINT((900.,0.,0.));
#1325=IFCCARTESIANPOINT((900.,75.,0.));
#1326=IFCCARTESIANPOINT((840.,75.,0.));
#1327=IFCCARTESIANPOINT((840.,0.,1500.));
#1328=IFCCARTESIANPOINT((900.,0.,1500.));
#1329=IFCCARTESIANPOINT((900.,75.,1500.));
#1330=IFCCARTESIANPOINT((840.,75.,1500.));
#1331=IFCPOLYLOOP((#1323,#1324,#1325,#1326));
#1332=IFCFACEOUTERBOUND(#1331,.T.);
#1333=IFCFACE((#1332));
#1334=IFCPOLYLOOP((#1327,#1330,#1329,#1328));
#1335=IFCFACEOUTERBOUND(#1334,.T.);
#1336=IFCFACE((#1335));
#1337=IFCPOLYLOOP((#1323,#1327,#1328,#1324));
#1338=IFCFACEOUTERBOUND(#1337,.T.);
#1339=IFCFACE((#1338));
#1340=IFCPOLYLOOP((#1324,#1328,#1329,#1325));
#1341=IFCFACEOUTERBOUND(#1340,.T.);
#1342=IFCFACE((#1341));
#1343=IFCPOLYLOOP((#1325,#1329,#1330,#1326));
#1344=IFCFACEOUTERBOUND(#1343,.T.);
#1345=IFCFACE((#1344));
#1346=IFCPOLYLOOP((#1326,#1330,#1327,#1323));
#1347=IFCFACEOUTERBOUND(#1346,.T.);
#1348=IFCFACE((#1347));
#1349=IFCCLOSEDSHELL((#1333,#1336,#1339,#1342,#1345,#1348));
#1350=IFCFACETEDBREP(#1349);
#1351=IFCCARTESIANPOINT((0.,0.,1440.));
#1352=IFCCARTESIANPOINT((900.,0.,1440.));
#1353=IFCCARTESIANPOINT((900.,75.,1440.));
#1354=IFCCARTESIANPOINT((0.,75.,1440.));
#1355=IFCCARTESIANPOINT((0.,0.,1500.));
#1356=IFCCARTESIANPOINT((900.,0.,1500.));
#1357=IFCCARTESIANPOINT((900.,75.,1500.));
#1358=IFCCARTESIANPOINT((0.,75.,1500.));
#1359=IFCPOLYLOOP((#1351,#1352,#1353,#1354));
#1360=IFCFACEOUTERBOUND(#1359,.T.);
#1361=IFCFACE((#1360));
#1362=IFCPOLYLOOP((#1355,#1358,#1357,#1356));
#1363=IFCFACEOUTERBOUND(#1362,.T.);
#1364=IFCFACE((#1363));
#1365=IFCPOLYLOOP((#1351,#1355,#1356,#1352));
#1366=IFCFACEOUTERBOUND(#1365,.T.);
#1367=IFCFACE((#1366));
#1368=IFCPOLYLOOP((#1352,#1356,#1357,#1353));
#1369=IFCFACEOUTERBOUND(#1368,.T.);
#1370=IFCFACE((#1369));
#1371=IFCPOLYLOOP((#1353,#1357,#1358,#1354));
#1372=IFCFACEOUTERBOUND(#1371,.T.);
#1373=IFCFACE((#1372));
#1374=IFCPOLYLOOP((#1354,#1358,#1355,#1351));
#1375=IFCFACEOUTERBOUND(#1374,.T.);
#1376=IFCFACE((#1375));
#1377=IFCCLOSEDSHELL((#1361,#1364,#1367,#1370,#1373,#1376));
#1378=IFCFACETEDBREP(#1377);
#1379=IFCCARTESIANPOINT((0.,0.,0.));
#1380=IFCCARTESIANPOINT((900.,0.,0.));
#1381=IFCCARTESIANPOINT((900.,75.,0.));
#1382=IFCCARTESIANPOINT((0.,75.,0.));
#1383=IFCCARTESIANPOINT((0.,0.,60.));
#1384=IFCCARTESIANPOINT((900.,0.,60.));
#1385=IFCCARTESIANPOINT((900.,75.,60.));
#1386=IFCCARTESIANPOINT((0.,75.,60.));
#1387=IFCPOLYLOOP((#1379,#1380,#1381,#1382));
#1388=IFCFACEOUTERBOUND(#1387,.T.);
#1389=IFCFACE((#1388));
#1390=IFCPOLYLOOP((#1383,#1386,#1385,#1384));
#1391=IFCFACEOUTERBOUND(#1390,.T.);
#1392=IFCFACE((#1391));
#1393=IFCPOLYLOOP((#1379,#1383,#1384,#1380));
#1394=IFCFACEOUTERBOUND(#1393,.T.);
#1395=IFCFACE((#1394));
#1396=IFCPOLYLOOP((#1380,#1384,#1385,#1381));
#1397=IFCFACEOUTERBOUND(#1396,.T.);
#1398=IFCFACE((#1397));
#1399=IFCPOLYLOOP((#1381,#1385,#1386,#1382));
#1400=IFCFACEOUTERBOUND(#1399,.T.);
#1401=IFCFACE((#1400));
#1402=IFCPOLYLOOP((#1382,#1386,#1383,#1379));
#1403=IFCFACEOUTERBOUND(#1402,.T.);
#1404=IFCFACE((#1403));
#1405=IFCCLOSEDSHELL((#1389,#1392,#1395,#1398,#1401,#1404));
#1406=IFCFACETEDBREP(#1405);
#1407=IFCCARTESIANPOINT((60.,27.5,60.));
#1408=IFCCARTESIANPOINT((840.,27.5,60.));
#1409=IFCCARTESIANPOINT((840.,47.5,60.));
#1410=IFCCARTESIANPOINT((60.,47.5,60.));
#1411=IFCCARTESIANPOINT((60.,27.5,1440.));
#1412=IFCCARTESIANPOINT((840.,27.5,1440.));
#1413=IFCCARTESIANPOINT((840.,47.5,1440.));
#1414=IFCCARTESIANPOINT((60.,47.5,1440.));
#1415=IFCPOLYLOOP((#1407,#1408,#1409,#1410));
#1416=IFCFACEOUTERBOUND(#1415,.T.);
#1417=IFCFACE((#1416));
#1418=IFCPOLYLOOP((#1411,#1414,#1413,#1412));
#1419=IFCFACEOUTERBOUND(#1418,.T.);
#1420=IFCFACE((#1419));
#1421=IFCPOLYLOOP((#1407,#1411,#1412,#1408));
#1422=IFCFACEOUTERBOUND(#1421,.T.);
#1423=IFCFACE((#1422));
#1424=IFCPOLYLOOP((#1408,#1412,#1413,#1409));
#1425=IFCFACEOUTERBOUND(#1424,.T.);
#1426=IFCFACE((#1425));
#1427=IFCPOLYLOOP((#1409,#1413,#1414,#1410));
#1428=IFCFACEOUTERBOUND(#1427,.T.);
#1429=IFCFACE((#1428));
#1430=IFCPOLYLOOP((#1410,#1414,#1411,#1407));
#1431=IFCFACEOUTERBOUND(#1430,.T.);
#1432=IFCFACE((#1431));
#1433=IFCCLOSEDSHELL((#1417,#1420,#1423,#1426,#1429,#1432));
#1434=IFCFACETEDBREP(#1433);
#1435=IFCSHAPEREPRESENTATION(#19,'Body','SurfaceModel',(#1322,#1350,#1378,#1406,#1434));
#1436=IFCPRODUCTDEFINITIONSHAPE($,$,(#1435));
#1442=IFCOWNERHISTORY(#3,#7,.READWRITE.,.ADDED.,1779440582,#3,#7,1779440582);
#1443=IFCRELFILLSELEMENT('3GlwzVmpbDGelyRjfNXU1$',#1442,$,$,#1255,#1294);
#1444=IFCCARTESIANPOINT((0.,1.,0.));
#1445=IFCDIRECTION((0.,0.,1.));
#1446=IFCDIRECTION((1.,0.,0.));
#1447=IFCAXIS2PLACEMENT3D(#1444,#1445,#1446);
#1448=IFCLOCALPLACEMENT(#1290,#1447);
#1449=IFCOWNERHISTORY(#3,#7,.READWRITE.,.ADDED.,1779440582,#3,#7,1779440582);
#1450=IFCWINDOWSTYLE('0ee0hmfWXEqh2GIcHl3Lpn',#1449,'Window Style 3',$,$,$,$,$,.NOTDEFINED.,.NOTDEFINED.,.F.,.F.);
#1451=IFCOWNERHISTORY(#3,#7,.READWRITE.,.ADDED.,1779440582,#3,#7,1779440582);
#1452=IFCRELDEFINESBYTYPE('0WCsEfAcL1gvhKtPV9Ap9b',#1451,$,$,(#1294),#1450);
#1453=IFCOWNERHISTORY(#3,#7,.READWRITE.,.MODIFIED.,1779440582,#3,#7,1779440582);
#1454=IFCOPENINGELEMENT('3fIWgVKa53qx$1VRQQS3GM',#1453,'WD - 004',$,$,#1489,#1484,$);
#1455=IFCCARTESIANPOINT((0.,0.,0.));
#1456=IFCCARTESIANPOINT((900.,0.,0.));
#1457=IFCCARTESIANPOINT((900.,202.,0.));
#1458=IFCCARTESIANPOINT((0.,202.,0.));
#1459=IFCCARTESIANPOINT((0.,0.,1500.));
#1460=IFCCARTESIANPOINT((900.,0.,1500.));
#1461=IFCCARTESIANPOINT((900.,202.,1500.));
#1462=IFCCARTESIANPOINT((0.,202.,1500.));
#1463=IFCPOLYLOOP((#1455,#1456,#1457,#1458));
#1464=IFCFACEOUTERBOUND(#1463,.T.);
#1465=IFCFACE((#1464));
#1466=IFCPOLYLOOP((#1459,#1462,#1461,#1460));
#1467=IFCFACEOUTERBOUND(#1466,.T.);
#1468=IFCFACE((#1467));
#1469=IFCPOLYLOOP((#1455,#1459,#1460,#1456));
#1470=IFCFACEOUTERBOUND(#1469,.T.);
#1471=IFCFACE((#1470));
#1472=IFCPOLYLOOP((#1456,#1460,#1461,#1457));
#1473=IFCFACEOUTERBOUND(#1472,.T.);
#1474=IFCFACE((#1473));
#1475=IFCPOLYLOOP((#1457,#1461,#1462,#1458));
#1476=IFCFACEOUTERBOUND(#1475,.T.);
#1477=IFCFACE((#1476));
#1478=IFCPOLYLOOP((#1458,#1462,#1459,#1455));
#1479=IFCFACEOUTERBOUND(#1478,.T.);
#1480=IFCFACE((#1479));
#1481=IFCCLOSEDSHELL((#1465,#1468,#1471,#1474,#1477,#1480));
#1482=IFCFACETEDBREP(#1481);
#1483=IFCSHAPEREPRESENTATION(#19,'Body','Brep',(#1482));
#1484=IFCPRODUCTDEFINITIONSHAPE($,$,(#1483));
#1485=IFCCARTESIANPOINT((12000.,-1.,1000.));
#1486=IFCDIRECTION((0.,0.,1.));
#1487=IFCDIRECTION((1.,0.,0.));
#1488=IFCAXIS2PLACEMENT3D(#1485,#1486,#1487);
#1489=IFCLOCALPLACEMENT($,#1488);
#1490=IFCOWNERHISTORY(#3,#7,.READWRITE.,.ADDED.,1779440582,#3,#7,1779440582);
#1491=IFCRELVOIDSELEMENT('1Dm2SVIJrETfk8GnnUKZnm',#1490,$,$,#38,#1454);
#1492=IFCOWNERHISTORY(#3,#7,.READWRITE.,.MODIFIED.,1779440582,#3,#7,1779440582);
#1493=IFCWINDOW('2rIyvej990JhyxE84e5ayy',#1492,'WD - 004',$,'WINDOW',#1647,#1635,$,1500.,900.);
#1494=IFCCARTESIANPOINT((0.,0.,0.));
#1495=IFCCARTESIANPOINT((60.,0.,0.));
#1496=IFCCARTESIANPOINT((60.,75.,0.));
#1497=IFCCARTESIANPOINT((0.,75.,0.));
#1498=IFCCARTESIANPOINT((0.,0.,1500.));
#1499=IFCCARTESIANPOINT((60.,0.,1500.));
#1500=IFCCARTESIANPOINT((60.,75.,1500.));
#1501=IFCCARTESIANPOINT((0.,75.,1500.));
#1502=IFCPOLYLOOP((#1494,#1495,#1496,#1497));
#1503=IFCFACEOUTERBOUND(#1502,.T.);
#1504=IFCFACE((#1503));
#1505=IFCPOLYLOOP((#1498,#1501,#1500,#1499));
#1506=IFCFACEOUTERBOUND(#1505,.T.);
#1507=IFCFACE((#1506));
#1508=IFCPOLYLOOP((#1494,#1498,#1499,#1495));
#1509=IFCFACEOUTERBOUND(#1508,.T.);
#1510=IFCFACE((#1509));
#1511=IFCPOLYLOOP((#1495,#1499,#1500,#1496));
#1512=IFCFACEOUTERBOUND(#1511,.T.);
#1513=IFCFACE((#1512));
#1514=IFCPOLYLOOP((#1496,#1500,#1501,#1497));
#1515=IFCFACEOUTERBOUND(#1514,.T.);
#1516=IFCFACE((#1515));
#1517=IFCPOLYLOOP((#1497,#1501,#1498,#1494));
#1518=IFCFACEOUTERBOUND(#1517,.T.);
#1519=IFCFACE((#1518));
#1520=IFCCLOSEDSHELL((#1504,#1507,#1510,#1513,#1516,#1519));
#1521=IFCFACETEDBREP(#1520);
#1522=IFCCARTESIANPOINT((840.,0.,0.));
#1523=IFCCARTESIANPOINT((900.,0.,0.));
#1524=IFCCARTESIANPOINT((900.,75.,0.));
#1525=IFCCARTESIANPOINT((840.,75.,0.));
#1526=IFCCARTESIANPOINT((840.,0.,1500.));
#1527=IFCCARTESIANPOINT((900.,0.,1500.));
#1528=IFCCARTESIANPOINT((900.,75.,1500.));
#1529=IFCCARTESIANPOINT((840.,75.,1500.));
#1530=IFCPOLYLOOP((#1522,#1523,#1524,#1525));
#1531=IFCFACEOUTERBOUND(#1530,.T.);
#1532=IFCFACE((#1531));
#1533=IFCPOLYLOOP((#1526,#1529,#1528,#1527));
#1534=IFCFACEOUTERBOUND(#1533,.T.);
#1535=IFCFACE((#1534));
#1536=IFCPOLYLOOP((#1522,#1526,#1527,#1523));
#1537=IFCFACEOUTERBOUND(#1536,.T.);
#1538=IFCFACE((#1537));
#1539=IFCPOLYLOOP((#1523,#1527,#1528,#1524));
#1540=IFCFACEOUTERBOUND(#1539,.T.);
#1541=IFCFACE((#1540));
#1542=IFCPOLYLOOP((#1524,#1528,#1529,#1525));
#1543=IFCFACEOUTERBOUND(#1542,.T.);
#1544=IFCFACE((#1543));
#1545=IFCPOLYLOOP((#1525,#1529,#1526,#1522));
#1546=IFCFACEOUTERBOUND(#1545,.T.);
#1547=IFCFACE((#1546));
#1548=IFCCLOSEDSHELL((#1532,#1535,#1538,#1541,#1544,#1547));
#1549=IFCFACETEDBREP(#1548);
#1550=IFCCARTESIANPOINT((0.,0.,1440.));
#1551=IFCCARTESIANPOINT((900.,0.,1440.));
#1552=IFCCARTESIANPOINT((900.,75.,1440.));
#1553=IFCCARTESIANPOINT((0.,75.,1440.));
#1554=IFCCARTESIANPOINT((0.,0.,1500.));
#1555=IFCCARTESIANPOINT((900.,0.,1500.));
#1556=IFCCARTESIANPOINT((900.,75.,1500.));
#1557=IFCCARTESIANPOINT((0.,75.,1500.));
#1558=IFCPOLYLOOP((#1550,#1551,#1552,#1553));
#1559=IFCFACEOUTERBOUND(#1558,.T.);
#1560=IFCFACE((#1559));
#1561=IFCPOLYLOOP((#1554,#1557,#1556,#1555));
#1562=IFCFACEOUTERBOUND(#1561,.T.);
#1563=IFCFACE((#1562));
#1564=IFCPOLYLOOP((#1550,#1554,#1555,#1551));
#1565=IFCFACEOUTERBOUND(#1564,.T.);
#1566=IFCFACE((#1565));
#1567=IFCPOLYLOOP((#1551,#1555,#1556,#1552));
#1568=IFCFACEOUTERBOUND(#1567,.T.);
#1569=IFCFACE((#1568));
#1570=IFCPOLYLOOP((#1552,#1556,#1557,#1553));
#1571=IFCFACEOUTERBOUND(#1570,.T.);
#1572=IFCFACE((#1571));
#1573=IFCPOLYLOOP((#1553,#1557,#1554,#1550));
#1574=IFCFACEOUTERBOUND(#1573,.T.);
#1575=IFCFACE((#1574));
#1576=IFCCLOSEDSHELL((#1560,#1563,#1566,#1569,#1572,#1575));
#1577=IFCFACETEDBREP(#1576);
#1578=IFCCARTESIANPOINT((0.,0.,0.));
#1579=IFCCARTESIANPOINT((900.,0.,0.));
#1580=IFCCARTESIANPOINT((900.,75.,0.));
#1581=IFCCARTESIANPOINT((0.,75.,0.));
#1582=IFCCARTESIANPOINT((0.,0.,60.));
#1583=IFCCARTESIANPOINT((900.,0.,60.));
#1584=IFCCARTESIANPOINT((900.,75.,60.));
#1585=IFCCARTESIANPOINT((0.,75.,60.));
#1586=IFCPOLYLOOP((#1578,#1579,#1580,#1581));
#1587=IFCFACEOUTERBOUND(#1586,.T.);
#1588=IFCFACE((#1587));
#1589=IFCPOLYLOOP((#1582,#1585,#1584,#1583));
#1590=IFCFACEOUTERBOUND(#1589,.T.);
#1591=IFCFACE((#1590));
#1592=IFCPOLYLOOP((#1578,#1582,#1583,#1579));
#1593=IFCFACEOUTERBOUND(#1592,.T.);
#1594=IFCFACE((#1593));
#1595=IFCPOLYLOOP((#1579,#1583,#1584,#1580));
#1596=IFCFACEOUTERBOUND(#1595,.T.);
#1597=IFCFACE((#1596));
#1598=IFCPOLYLOOP((#1580,#1584,#1585,#1581));
#1599=IFCFACEOUTERBOUND(#1598,.T.);
#1600=IFCFACE((#1599));
#1601=IFCPOLYLOOP((#1581,#1585,#1582,#1578));
#1602=IFCFACEOUTERBOUND(#1601,.T.);
#1603=IFCFACE((#1602));
#1604=IFCCLOSEDSHELL((#1588,#1591,#1594,#1597,#1600,#1603));
#1605=IFCFACETEDBREP(#1604);
#1606=IFCCARTESIANPOINT((60.,27.5,60.));
#1607=IFCCARTESIANPOINT((840.,27.5,60.));
#1608=IFCCARTESIANPOINT((840.,47.5,60.));
#1609=IFCCARTESIANPOINT((60.,47.5,60.));
#1610=IFCCARTESIANPOINT((60.,27.5,1440.));
#1611=IFCCARTESIANPOINT((840.,27.5,1440.));
#1612=IFCCARTESIANPOINT((840.,47.5,1440.));
#1613=IFCCARTESIANPOINT((60.,47.5,1440.));
#1614=IFCPOLYLOOP((#1606,#1607,#1608,#1609));
#1615=IFCFACEOUTERBOUND(#1614,.T.);
#1616=IFCFACE((#1615));
#1617=IFCPOLYLOOP((#1610,#1613,#1612,#1611));
#1618=IFCFACEOUTERBOUND(#1617,.T.);
#1619=IFCFACE((#1618));
#1620=IFCPOLYLOOP((#1606,#1610,#1611,#1607));
#1621=IFCFACEOUTERBOUND(#1620,.T.);
#1622=IFCFACE((#1621));
#1623=IFCPOLYLOOP((#1607,#1611,#1612,#1608));
#1624=IFCFACEOUTERBOUND(#1623,.T.);
#1625=IFCFACE((#1624));
#1626=IFCPOLYLOOP((#1608,#1612,#1613,#1609));
#1627=IFCFACEOUTERBOUND(#1626,.T.);
#1628=IFCFACE((#1627));
#1629=IFCPOLYLOOP((#1609,#1613,#1610,#1606));
#1630=IFCFACEOUTERBOUND(#1629,.T.);
#1631=IFCFACE((#1630));
#1632=IFCCLOSEDSHELL((#1616,#1619,#1622,#1625,#1628,#1631));
#1633=IFCFACETEDBREP(#1632);
#1634=IFCSHAPEREPRESENTATION(#19,'Body','SurfaceModel',(#1521,#1549,#1577,#1605,#1633));
#1635=IFCPRODUCTDEFINITIONSHAPE($,$,(#1634));
#1641=IFCOWNERHISTORY(#3,#7,.READWRITE.,.ADDED.,1779440582,#3,#7,1779440582);
#1642=IFCRELFILLSELEMENT('3MTke77arDY9gwJlVTW6g_',#1641,$,$,#1454,#1493);
#1643=IFCCARTESIANPOINT((0.,1.,0.));
#1644=IFCDIRECTION((0.,0.,1.));
#1645=IFCDIRECTION((1.,0.,0.));
#1646=IFCAXIS2PLACEMENT3D(#1643,#1644,#1645);
#1647=IFCLOCALPLACEMENT(#1489,#1646);
#1648=IFCOWNERHISTORY(#3,#7,.READWRITE.,.ADDED.,1779440582,#3,#7,1779440582);
#1649=IFCWINDOWSTYLE('2k4TEeq8vDowqUeX93OlS9',#1648,'Window Style 4',$,$,$,$,$,.NOTDEFINED.,.NOTDEFINED.,.F.,.F.);
#1650=IFCOWNERHISTORY(#3,#7,.READWRITE.,.ADDED.,1779440582,#3,#7,1779440582);
#1651=IFCRELDEFINESBYTYPE('1edKC1NLz5P8$JSP6EcbT3',#1650,$,$,(#1493),#1649);
#1652=IFCOWNERHISTORY(#3,#7,.READWRITE.,.MODIFIED.,1779440582,#3,#7,1779440582);
#1653=IFCSPACE('0gv5wLTbzBaQjvWwM$T7YV',#1652,'LOBBY',$,$,#1675,#1670,$,.ELEMENT.,$,$);
#1654=IFCOWNERHISTORY(#3,#7,.READWRITE.,.MODIFIED.,1779440582,#3,#7,1779440582);
#1655=IFCRELAGGREGATES('167bedKYDBHR1qJlXZ9mI1',#1654,$,$,#29,(#1677,#1699,#1653,#1721));
#1656=IFCCARTESIANPOINT((0.,0.));
#1657=IFCCARTESIANPOINT((7250.,0.));
#1658=IFCCARTESIANPOINT((7250.,3750.));
#1659=IFCCARTESIANPOINT((0.,3750.));
#1660=IFCCARTESIANPOINT((0.,0.));
#1661=IFCPOLYLINE((#1656,#1657,#1658,#1659,#1660));
#1662=IFCDIRECTION((0.,0.,1.));
#1663=IFCCARTESIANPOINT((0.,0.,0.));
#1664=IFCDIRECTION((0.,0.,1.));
#1665=IFCDIRECTION((1.,0.,0.));
#1666=IFCAXIS2PLACEMENT3D(#1663,#1664,#1665);
#1667=IFCARBITRARYCLOSEDPROFILEDEF(.AREA.,$,#1661);
#1668=IFCEXTRUDEDAREASOLID(#1667,#1666,#1662,2799.9999999999995);
#1669=IFCSHAPEREPRESENTATION(#19,'Body','SweptSolid',(#1668));
#1670=IFCPRODUCTDEFINITIONSHAPE($,$,(#1669));
#1671=IFCCARTESIANPOINT((100.,100.,0.));
#1672=IFCDIRECTION((0.,0.,1.));
#1673=IFCDIRECTION((1.,0.,0.));
#1674=IFCAXIS2PLACEMENT3D(#1671,#1672,#1673);
#1675=IFCLOCALPLACEMENT(#36,#1674);
#1676=IFCOWNERHISTORY(#3,#7,.READWRITE.,.MODIFIED.,1779440582,#3,#7,1779440582);
#1677=IFCSPACE('2omAGHCqf7eOet_NShEV$O',#1676,'GALLERY',$,$,#1697,#1692,$,.ELEMENT.,$,$);
#1678=IFCCARTESIANPOINT((0.,0.));
#1679=IFCCARTESIANPOINT((7250.,0.));
#1680=IFCCARTESIANPOINT((7250.,3750.));
#1681=IFCCARTESIANPOINT((0.,3750.));
#1682=IFCCARTESIANPOINT((0.,0.));
#1683=IFCPOLYLINE((#1678,#1679,#1680,#1681,#1682));
#1684=IFCDIRECTION((0.,0.,1.));
#1685=IFCCARTESIANPOINT((0.,0.,0.));
#1686=IFCDIRECTION((0.,0.,1.));
#1687=IFCDIRECTION((1.,0.,0.));
#1688=IFCAXIS2PLACEMENT3D(#1685,#1686,#1687);
#1689=IFCARBITRARYCLOSEDPROFILEDEF(.AREA.,$,#1683);
#1690=IFCEXTRUDEDAREASOLID(#1689,#1688,#1684,2799.9999999999995);
#1691=IFCSHAPEREPRESENTATION(#19,'Body','SweptSolid',(#1690));
#1692=IFCPRODUCTDEFINITIONSHAPE($,$,(#1691));
#1693=IFCCARTESIANPOINT((7599.9999999999991,100.,0.));
#1694=IFCDIRECTION((0.,0.,1.));
#1695=IFCDIRECTION((1.,0.,0.));
#1696=IFCAXIS2PLACEMENT3D(#1693,#1694,#1695);
#1697=IFCLOCALPLACEMENT(#36,#1696);
#1698=IFCOWNERHISTORY(#3,#7,.READWRITE.,.MODIFIED.,1779440582,#3,#7,1779440582);
#1699=IFCSPACE('16aoT9IBTBaQ3KTd5GD3sF',#1698,'STORE',$,$,#1719,#1714,$,.ELEMENT.,$,$);
#1700=IFCCARTESIANPOINT((0.,0.));
#1701=IFCCARTESIANPOINT((7250.,0.));
#1702=IFCCARTESIANPOINT((7250.,3750.));
#1703=IFCCARTESIANPOINT((0.,3750.));
#1704=IFCCARTESIANPOINT((0.,0.));
#1705=IFCPOLYLINE((#1700,#1701,#1702,#1703,#1704));
#1706=IFCDIRECTION((0.,0.,1.));
#1707=IFCCARTESIANPOINT((0.,0.,0.));
#1708=IFCDIRECTION((0.,0.,1.));
#1709=IFCDIRECTION((1.,0.,0.));
#1710=IFCAXIS2PLACEMENT3D(#1707,#1708,#1709);
#1711=IFCARBITRARYCLOSEDPROFILEDEF(.AREA.,$,#1705);
#1712=IFCEXTRUDEDAREASOLID(#1711,#1710,#1706,2799.9999999999995);
#1713=IFCSHAPEREPRESENTATION(#19,'Body','SweptSolid',(#1712));
#1714=IFCPRODUCTDEFINITIONSHAPE($,$,(#1713));
#1715=IFCCARTESIANPOINT((100.,4100.,0.));
#1716=IFCDIRECTION((0.,0.,1.));
#1717=IFCDIRECTION((1.,0.,0.));
#1718=IFCAXIS2PLACEMENT3D(#1715,#1716,#1717);
#1719=IFCLOCALPLACEMENT(#36,#1718);
#1720=IFCOWNERHISTORY(#3,#7,.READWRITE.,.MODIFIED.,1779440582,#3,#7,1779440582);
#1721=IFCSPACE('1to0RCHsr4lOSVDV1MfqOW',#1720,'WC',$,$,#1741,#1736,$,.ELEMENT.,$,$);
#1722=IFCCARTESIANPOINT((0.,0.));
#1723=IFCCARTESIANPOINT((7250.,0.));
#1724=IFCCARTESIANPOINT((7250.,3750.));
#1725=IFCCARTESIANPOINT((0.,3750.));
#1726=IFCCARTESIANPOINT((0.,0.));
#1727=IFCPOLYLINE((#1722,#1723,#1724,#1725,#1726));
#1728=IFCDIRECTION((0.,0.,1.));
#1729=IFCCARTESIANPOINT((0.,0.,0.));
#1730=IFCDIRECTION((0.,0.,1.));
#1731=IFCDIRECTION((1.,0.,0.));
#1732=IFCAXIS2PLACEMENT3D(#1729,#1730,#1731);
#1733=IFCARBITRARYCLOSEDPROFILEDEF(.AREA.,$,#1727);
#1734=IFCEXTRUDEDAREASOLID(#1733,#1732,#1728,2799.9999999999995);
#1735=IFCSHAPEREPRESENTATION(#19,'Body','SweptSolid',(#1734));
#1736=IFCPRODUCTDEFINITIONSHAPE($,$,(#1735));
#1737=IFCCARTESIANPOINT((7599.9999999999991,4100.,0.));
#1738=IFCDIRECTION((0.,0.,1.));
#1739=IFCDIRECTION((1.,0.,0.));
#1740=IFCAXIS2PLACEMENT3D(#1737,#1738,#1739);
#1741=IFCLOCALPLACEMENT(#36,#1740);
ENDSEC;
END-ISO-10303-21;
