  0
SECTION
  2
HEADER
  9
$ACADVER
  1
AC1009
  9
$INSBASE
 10
0.0
 20
0.0
 30
0.0
  9
$EXTMIN
 10
0.0
 20
0.0
 30
0.0
  9
$EXTMAX
 10
0.0
 20
0.0
 30
0.0
  0
ENDSEC
  0
SECTION
  2
TABLES
  0
TABLE
  2
VPORT
 70
0
  0
ENDTAB
  0
TABLE
  2
LTYPE
 70
1
  0
LTYPE
  2
CONTINUOUS
 70
0
  3
Solid line
 72
65
 73
0
 40
0.0
  0
ENDTAB
  0
TABLE
  2
LAYER
 70
1
  0
LAYER
  2
0
 70
64
 62
7
  6
continuous
  0
ENDTAB
  0
TABLE
  2
STYLE
 70
1
  0
STYLE
  2
STANDARD
 70
0
 40
0
 41
1.0
 50
0.0
 71
0
 42
1
 3
ARIAL.TTF
 4

  0
ENDTAB
  0
TABLE
  2
VIEW
 70
0
  0
ENDTAB
  0
ENDSEC
  0
SECTION
  2
BLOCKS
  0
ENDSEC
  0
SECTION
  2
ENTITIES
  0
LINE
  8
FREECAD_HANDOFF
 62
0
 10
0.0
 20
0.0
 30
0.0
 11
92.0
 21
0.0
 31
0.0
  0
LINE
  8
FREECAD_HANDOFF
 62
0
 10
92.0
 20
0.0
 30
0.0
 11
92.0
 21
58.0
 31
0.0
  0
LINE
  8
FREECAD_HANDOFF
 62
0
 10
92.0
 20
58.0
 30
0.0
 11
0.0
 21
58.0
 31
0.0
  0
LINE
  8
FREECAD_HANDOFF
 62
0
 10
0.0
 20
58.0
 30
0.0
 11
0.0
 21
0.0
 31
0.0
  0
TEXT
  8
FREECAD_HANDOFF
 62
0
 10
8.0
 20
48.0
 30
0.0
 40
0.8
  1
FREECAD_TO_KICAD
  7
STANDARD
  0
TEXT
  8
FREECAD_HANDOFF
 62
0
 10
8.0
 20
43.0
 30
0.0
 40
0.8
  1
EW4G01
  7
STANDARD
  0
ENDSEC
  0
EOF
