ISO-10303-21;
HEADER;
FILE_DESCRIPTION(('ViewDefinition [CoordinationView]'),'2;1');
FILE_NAME('','2026-05-22T17:03:03',(''),(''),'IfcOpenShell 0.8.5-1c5b825','IfcOpenShell 0.8.5-1c5b825','');
FILE_SCHEMA(('IFC2X3'));
ENDSEC;
DATA;
#1=IFCPERSON('EW','Engiworld','Task',$,$,$,$,$);
#2=IFCORGANIZATION('EW','Engiworld',$,$,$);
#3=IFCPERSONANDORGANIZATION(#1,#2,$);
#4=IFCACTORROLE(.USERDEFINED.,'CONTRIBUTOR',$);
#5=IFCORGANIZATION('IfcOpenShell','IfcOpenShell','IfcOpenShell is an open source software library that helps users and software developers to work with IFC data.',(#4),(#6));
#6=IFCTELECOMADDRESS(.USERDEFINED.,$,'WEBPAGE',$,$,$,$,'https://ifcopenshell.org');
#7=IFCAPPLICATION(#5,'0.8.5','Engiworld IFC Generator','Engiworld');
#8=IFCOWNERHISTORY(#3,#7,.READWRITE.,.ADDED.,1779440583,#3,#7,1779440583);
#9=IFCPROJECT('3FDogZ50XCAB9D9SfhJbZu',#8,'v-archicad-simple-task-16-windows init',$,$,$,$,(#18),#13);
#10=IFCSIUNIT(*,.LENGTHUNIT.,.MILLI.,.METRE.);
#11=IFCSIUNIT(*,.AREAUNIT.,$,.SQUARE_METRE.);
#12=IFCSIUNIT(*,.VOLUMEUNIT.,$,.CUBIC_METRE.);
#13=IFCUNITASSIGNMENT((#10,#11,#12));
#14=IFCCARTESIANPOINT((0.,0.,0.));
#15=IFCDIRECTION((0.,0.,1.));
#16=IFCDIRECTION((1.,0.,0.));
#17=IFCAXIS2PLACEMENT3D(#14,#15,#16);
#18=IFCGEOMETRICREPRESENTATIONCONTEXT($,'Model',3,1.0000000000000001E-05,#17,$);
#19=IFCGEOMETRICREPRESENTATIONSUBCONTEXT('Body','Model',*,*,*,*,#18,$,.MODEL_VIEW.,$);
#20=IFCOWNERHISTORY(#3,#7,.READWRITE.,.ADDED.,1779440583,#3,#7,1779440583);
#21=IFCSITE('2SKJl4N0D0W9RIVmHXtEVE',#20,'Default Site',$,$,$,$,$,.ELEMENT.,$,$,$,$,$);
#22=IFCOWNERHISTORY(#3,#7,.READWRITE.,.ADDED.,1779440583,#3,#7,1779440583);
#23=IFCBUILDING('3$rSqoaBf1YeC4I3rnYbJS',#22,'Archicad Init Building',$,$,$,$,$,.ELEMENT.,$,$,$);
#24=IFCOWNERHISTORY(#3,#7,.READWRITE.,.ADDED.,1779440583,#3,#7,1779440583);
#25=IFCRELAGGREGATES('0qIBPqk_12fRRnNnu1WHQP',#24,$,$,#9,(#21));
#26=IFCOWNERHISTORY(#3,#7,.READWRITE.,.ADDED.,1779440583,#3,#7,1779440583);
#27=IFCRELAGGREGATES('2lulDPUGHCNgmpGo2UcYYt',#26,$,$,#21,(#23));
#28=IFCOWNERHISTORY(#3,#7,.READWRITE.,.MODIFIED.,1779440583,#3,#7,1779440583);
#29=IFCBUILDINGSTOREY('0$PWbpG3T5CAFLq7a2YgL2',#28,'Ground Floor',$,$,#36,$,$,.ELEMENT.,$);
#30=IFCOWNERHISTORY(#3,#7,.READWRITE.,.ADDED.,1779440583,#3,#7,1779440583);
#31=IFCRELAGGREGATES('1a4CGJl6P8_Od7Zi1RcuUz',#30,$,$,#23,(#29));
#32=IFCCARTESIANPOINT((0.,0.,0.));
#33=IFCDIRECTION((0.,0.,1.));
#34=IFCDIRECTION((1.,0.,0.));
#35=IFCAXIS2PLACEMENT3D(#32,#33,#34);
#36=IFCLOCALPLACEMENT($,#35);
#37=IFCOWNERHISTORY(#3,#7,.READWRITE.,.MODIFIED.,1779440583,#3,#7,1779440583);
#38=IFCWALL('05B78BgK18awTQK_AbUxP9',#37,'Exterior Wall 1',$,$,#65,#53,$);
#39=IFCCARTESIANPOINT((0.,0.));
#40=IFCCARTESIANPOINT((0.,200.));
#41=IFCCARTESIANPOINT((12000.,200.));
#42=IFCCARTESIANPOINT((12000.,0.));
#43=IFCCARTESIANPOINT((0.,0.));
#44=IFCPOLYLINE((#39,#40,#41,#42,#43));
#45=IFCDIRECTION((0.,0.,1.));
#46=IFCARBITRARYCLOSEDPROFILEDEF(.AREA.,$,#44);
#47=IFCCARTESIANPOINT((0.,0.,0.));
#48=IFCDIRECTION((0.,0.,1.));
#49=IFCDIRECTION((1.,0.,0.));
#50=IFCAXIS2PLACEMENT3D(#47,#48,#49);
#51=IFCEXTRUDEDAREASOLID(#46,#50,#45,3000.);
#52=IFCSHAPEREPRESENTATION(#19,'Body','SweptSolid',(#51));
#53=IFCPRODUCTDEFINITIONSHAPE($,$,(#52));
#59=IFCOWNERHISTORY(#3,#7,.READWRITE.,.MODIFIED.,1779440583,#3,#7,1779440583);
#60=IFCRELCONTAINEDINSPATIALSTRUCTURE('2c2XVA$6jAMPPfOrsVp$Pk',#59,$,$,(#229,#175,#516,#38,#685,#94,#67,#121,#884,#386,#256,#202,#148),#29);
#61=IFCCARTESIANPOINT((0.,0.,0.));
#62=IFCDIRECTION((0.,0.,1.));
#63=IFCDIRECTION((1.,0.,0.));
#64=IFCAXIS2PLACEMENT3D(#61,#62,#63);
#65=IFCLOCALPLACEMENT(#36,#64);
#66=IFCOWNERHISTORY(#3,#7,.READWRITE.,.MODIFIED.,1779440583,#3,#7,1779440583);
#67=IFCWALL('0POvHkIkL17xujGF0xhL1E',#66,'Exterior Wall 2',$,$,#92,#82,$);
#68=IFCCARTESIANPOINT((0.,0.));
#69=IFCCARTESIANPOINT((0.,200.));
#70=IFCCARTESIANPOINT((12000.,200.));
#71=IFCCARTESIANPOINT((12000.,0.));
#72=IFCCARTESIANPOINT((0.,0.));
#73=IFCPOLYLINE((#68,#69,#70,#71,#72));
#74=IFCDIRECTION((0.,0.,1.));
#75=IFCARBITRARYCLOSEDPROFILEDEF(.AREA.,$,#73);
#76=IFCCARTESIANPOINT((0.,0.,0.));
#77=IFCDIRECTION((0.,0.,1.));
#78=IFCDIRECTION((1.,0.,0.));
#79=IFCAXIS2PLACEMENT3D(#76,#77,#78);
#80=IFCEXTRUDEDAREASOLID(#75,#79,#74,3000.);
#81=IFCSHAPEREPRESENTATION(#19,'Body','SweptSolid',(#80));
#82=IFCPRODUCTDEFINITIONSHAPE($,$,(#81));
#88=IFCCARTESIANPOINT((0.,6000.,0.));
#89=IFCDIRECTION((0.,0.,1.));
#90=IFCDIRECTION((1.,0.,0.));
#91=IFCAXIS2PLACEMENT3D(#88,#89,#90);
#92=IFCLOCALPLACEMENT(#36,#91);
#93=IFCOWNERHISTORY(#3,#7,.READWRITE.,.MODIFIED.,1779440583,#3,#7,1779440583);
#94=IFCWALL('2287NjKmT2w8yqG4vVy7M3',#93,'Exterior Wall 3',$,$,#119,#109,$);
#95=IFCCARTESIANPOINT((0.,0.));
#96=IFCCARTESIANPOINT((0.,200.));
#97=IFCCARTESIANPOINT((6000.,200.));
#98=IFCCARTESIANPOINT((6000.,0.));
#99=IFCCARTESIANPOINT((0.,0.));
#100=IFCPOLYLINE((#95,#96,#97,#98,#99));
#101=IFCDIRECTION((0.,0.,1.));
#102=IFCARBITRARYCLOSEDPROFILEDEF(.AREA.,$,#100);
#103=IFCCARTESIANPOINT((0.,0.,0.));
#104=IFCDIRECTION((0.,0.,1.));
#105=IFCDIRECTION((1.,0.,0.));
#106=IFCAXIS2PLACEMENT3D(#103,#104,#105);
#107=IFCEXTRUDEDAREASOLID(#102,#106,#101,3000.);
#108=IFCSHAPEREPRESENTATION(#19,'Body','SweptSolid',(#107));
#109=IFCPRODUCTDEFINITIONSHAPE($,$,(#108));
#115=IFCCARTESIANPOINT((0.,0.,0.));
#116=IFCDIRECTION((0.,0.,1.));
#117=IFCDIRECTION((6.123233995736766E-17,1.,0.));
#118=IFCAXIS2PLACEMENT3D(#115,#116,#117);
#119=IFCLOCALPLACEMENT(#36,#118);
#120=IFCOWNERHISTORY(#3,#7,.READWRITE.,.MODIFIED.,1779440583,#3,#7,1779440583);
#121=IFCWALL('2u6pZnXhfBmgzEK9z_cUJR',#120,'Exterior Wall 4',$,$,#146,#136,$);
#122=IFCCARTESIANPOINT((0.,0.));
#123=IFCCARTESIANPOINT((0.,200.));
#124=IFCCARTESIANPOINT((6000.,200.));
#125=IFCCARTESIANPOINT((6000.,0.));
#126=IFCCARTESIANPOINT((0.,0.));
#127=IFCPOLYLINE((#122,#123,#124,#125,#126));
#128=IFCDIRECTION((0.,0.,1.));
#129=IFCARBITRARYCLOSEDPROFILEDEF(.AREA.,$,#127);
#130=IFCCARTESIANPOINT((0.,0.,0.));
#131=IFCDIRECTION((0.,0.,1.));
#132=IFCDIRECTION((1.,0.,0.));
#133=IFCAXIS2PLACEMENT3D(#130,#131,#132);
#134=IFCEXTRUDEDAREASOLID(#129,#133,#128,3000.);
#135=IFCSHAPEREPRESENTATION(#19,'Body','SweptSolid',(#134));
#136=IFCPRODUCTDEFINITIONSHAPE($,$,(#135));
#142=IFCCARTESIANPOINT((12000.,0.,0.));
#143=IFCDIRECTION((0.,0.,1.));
#144=IFCDIRECTION((6.123233995736766E-17,1.,0.));
#145=IFCAXIS2PLACEMENT3D(#142,#143,#144);
#146=IFCLOCALPLACEMENT(#36,#145);
#147=IFCOWNERHISTORY(#3,#7,.READWRITE.,.MODIFIED.,1779440583,#3,#7,1779440583);
#148=IFCWALL('3Jkym4WwTAo9466$JEFVkC',#147,'Interior Partition 1',$,$,#173,#163,$);
#149=IFCCARTESIANPOINT((0.,0.));
#150=IFCCARTESIANPOINT((0.,120.));
#151=IFCCARTESIANPOINT((5599.9999999999991,120.));
#152=IFCCARTESIANPOINT((5599.9999999999991,0.));
#153=IFCCARTESIANPOINT((0.,0.));
#154=IFCPOLYLINE((#149,#150,#151,#152,#153));
#155=IFCDIRECTION((0.,0.,1.));
#156=IFCARBITRARYCLOSEDPROFILEDEF(.AREA.,$,#154);
#157=IFCCARTESIANPOINT((0.,0.,0.));
#158=IFCDIRECTION((0.,0.,1.));
#159=IFCDIRECTION((1.,0.,0.));
#160=IFCAXIS2PLACEMENT3D(#157,#158,#159);
#161=IFCEXTRUDEDAREASOLID(#156,#160,#155,3000.);
#162=IFCSHAPEREPRESENTATION(#19,'Body','SweptSolid',(#161));
#163=IFCPRODUCTDEFINITIONSHAPE($,$,(#162));
#169=IFCCARTESIANPOINT((3000.,200.,0.));
#170=IFCDIRECTION((0.,0.,1.));
#171=IFCDIRECTION((6.123233995736766E-17,1.,0.));
#172=IFCAXIS2PLACEMENT3D(#169,#170,#171);
#173=IFCLOCALPLACEMENT(#36,#172);
#174=IFCOWNERHISTORY(#3,#7,.READWRITE.,.MODIFIED.,1779440583,#3,#7,1779440583);
#175=IFCWALL('1uSLpf3N5FBBJ4rY3e2wDA',#174,'Interior Partition 2',$,$,#200,#190,$);
#176=IFCCARTESIANPOINT((0.,0.));
#177=IFCCARTESIANPOINT((0.,120.));
#178=IFCCARTESIANPOINT((5599.9999999999991,120.));
#179=IFCCARTESIANPOINT((5599.9999999999991,0.));
#180=IFCCARTESIANPOINT((0.,0.));
#181=IFCPOLYLINE((#176,#177,#178,#179,#180));
#182=IFCDIRECTION((0.,0.,1.));
#183=IFCARBITRARYCLOSEDPROFILEDEF(.AREA.,$,#181);
#184=IFCCARTESIANPOINT((0.,0.,0.));
#185=IFCDIRECTION((0.,0.,1.));
#186=IFCDIRECTION((1.,0.,0.));
#187=IFCAXIS2PLACEMENT3D(#184,#185,#186);
#188=IFCEXTRUDEDAREASOLID(#183,#187,#182,3000.);
#189=IFCSHAPEREPRESENTATION(#19,'Body','SweptSolid',(#188));
#190=IFCPRODUCTDEFINITIONSHAPE($,$,(#189));
#196=IFCCARTESIANPOINT((6000.,200.,0.));
#197=IFCDIRECTION((0.,0.,1.));
#198=IFCDIRECTION((6.123233995736766E-17,1.,0.));
#199=IFCAXIS2PLACEMENT3D(#196,#197,#198);
#200=IFCLOCALPLACEMENT(#36,#199);
#201=IFCOWNERHISTORY(#3,#7,.READWRITE.,.MODIFIED.,1779440583,#3,#7,1779440583);
#202=IFCWALL('3J$9EmXkDBwuK9El4xeNyV',#201,'Interior Partition 3',$,$,#227,#217,$);
#203=IFCCARTESIANPOINT((0.,0.));
#204=IFCCARTESIANPOINT((0.,120.));
#205=IFCCARTESIANPOINT((5599.9999999999991,120.));
#206=IFCCARTESIANPOINT((5599.9999999999991,0.));
#207=IFCCARTESIANPOINT((0.,0.));
#208=IFCPOLYLINE((#203,#204,#205,#206,#207));
#209=IFCDIRECTION((0.,0.,1.));
#210=IFCARBITRARYCLOSEDPROFILEDEF(.AREA.,$,#208);
#211=IFCCARTESIANPOINT((0.,0.,0.));
#212=IFCDIRECTION((0.,0.,1.));
#213=IFCDIRECTION((1.,0.,0.));
#214=IFCAXIS2PLACEMENT3D(#211,#212,#213);
#215=IFCEXTRUDEDAREASOLID(#210,#214,#209,3000.);
#216=IFCSHAPEREPRESENTATION(#19,'Body','SweptSolid',(#215));
#217=IFCPRODUCTDEFINITIONSHAPE($,$,(#216));
#223=IFCCARTESIANPOINT((9000.,200.,0.));
#224=IFCDIRECTION((0.,0.,1.));
#225=IFCDIRECTION((6.123233995736766E-17,1.,0.));
#226=IFCAXIS2PLACEMENT3D(#223,#224,#225);
#227=IFCLOCALPLACEMENT(#36,#226);
#228=IFCOWNERHISTORY(#3,#7,.READWRITE.,.MODIFIED.,1779440583,#3,#7,1779440583);
#229=IFCSLAB('3DgQvJxNbBCfTnt$tLdBWH',#228,'Floor Slab 1',$,$,#254,#244,$,$);
#230=IFCCARTESIANPOINT((0.,0.));
#231=IFCCARTESIANPOINT((12000.,0.));
#232=IFCCARTESIANPOINT((12000.,6000.));
#233=IFCCARTESIANPOINT((0.,6000.));
#234=IFCCARTESIANPOINT((0.,0.));
#235=IFCPOLYLINE((#230,#231,#232,#233,#234));
#236=IFCDIRECTION((0.,0.,1.));
#237=IFCCARTESIANPOINT((0.,0.,0.));
#238=IFCDIRECTION((0.,0.,1.));
#239=IFCDIRECTION((1.,0.,0.));
#240=IFCAXIS2PLACEMENT3D(#237,#238,#239);
#241=IFCARBITRARYCLOSEDPROFILEDEF(.AREA.,$,#235);
#242=IFCEXTRUDEDAREASOLID(#241,#240,#236,200.);
#243=IFCSHAPEREPRESENTATION(#19,'Body','SweptSolid',(#242));
#244=IFCPRODUCTDEFINITIONSHAPE($,$,(#243));
#250=IFCCARTESIANPOINT((0.,0.,0.));
#251=IFCDIRECTION((0.,0.,1.));
#252=IFCDIRECTION((1.,0.,0.));
#253=IFCAXIS2PLACEMENT3D(#250,#251,#252);
#254=IFCLOCALPLACEMENT(#36,#253);
#255=IFCOWNERHISTORY(#3,#7,.READWRITE.,.MODIFIED.,1779440583,#3,#7,1779440583);
#256=IFCDOOR('1iNCeBRdjEpvyD2FO8dw$J',#255,'Door 1',$,$,#384,#374,$,$,$);
#257=IFCCARTESIANPOINT((0.,0.));
#258=IFCCARTESIANPOINT((0.,2.1000000000000001));
#259=IFCCARTESIANPOINT((0.90000000000000002,2.1000000000000001));
#260=IFCCARTESIANPOINT((0.90000000000000002,0.));
#261=IFCCARTESIANPOINT((-24.100000000000001,0.));
#262=IFCCARTESIANPOINT((-24.100000000000001,-22.899999999999999));
#263=IFCCARTESIANPOINT((25.,-22.899999999999999));
#264=IFCCARTESIANPOINT((25.,0.));
#265=IFCPOLYLINE((#257,#258,#259,#260,#261,#262,#263,#264,#257));
#266=IFCARBITRARYCLOSEDPROFILEDEF(.AREA.,$,#265);
#267=IFCCARTESIANPOINT((0.,25.,0.));
#268=IFCDIRECTION((0.,-1.,0.));
#269=IFCDIRECTION((1.,0.,0.));
#270=IFCAXIS2PLACEMENT3D(#267,#268,#269);
#271=IFCDIRECTION((0.,0.,-1.));
#272=IFCEXTRUDEDAREASOLID(#266,#270,#271,25.);
#273=IFCCARTESIANPOINT((0.,0.));
#274=IFCCARTESIANPOINT((0.,2.1000000000000001));
#275=IFCCARTESIANPOINT((0.90000000000000002,2.1000000000000001));
#276=IFCCARTESIANPOINT((0.90000000000000002,0.));
#277=IFCCARTESIANPOINT((-49.100000000000001,0.));
#278=IFCCARTESIANPOINT((-49.100000000000001,-47.899999999999999));
#279=IFCCARTESIANPOINT((50.,-47.899999999999999));
#280=IFCCARTESIANPOINT((50.,0.));
#281=IFCPOLYLINE((#273,#274,#275,#276,#277,#278,#279,#280,#273));
#282=IFCARBITRARYCLOSEDPROFILEDEF(.AREA.,$,#281);
#283=IFCCARTESIANPOINT((0.,0.,0.));
#284=IFCDIRECTION((0.,-1.,0.));
#285=IFCDIRECTION((1.,0.,0.));
#286=IFCAXIS2PLACEMENT3D(#283,#284,#285);
#287=IFCDIRECTION((0.,0.,-1.));
#288=IFCEXTRUDEDAREASOLID(#282,#286,#287,25.);
#289=IFCCARTESIANPOINT((0.,0.));
#290=IFCCARTESIANPOINT((-99.099999999999994,0.));
#291=IFCCARTESIANPOINT((-99.099999999999994,100.));
#292=IFCCARTESIANPOINT((0.,100.));
#293=IFCPOLYLINE((#289,#290,#291,#292,#289));
#294=IFCARBITRARYCLOSEDPROFILEDEF(.AREA.,$,#293);
#295=IFCCARTESIANPOINT((50.,0.,0.));
#296=IFCDIRECTION((0.,0.,1.));
#297=IFCDIRECTION((1.,0.,0.));
#298=IFCAXIS2PLACEMENT3D(#295,#296,#297);
#299=IFCDIRECTION((0.,0.,1.));
#300=IFCEXTRUDEDAREASOLID(#294,#298,#299,25.);
#301=IFCCARTESIANPOINT((0.,0.));
#302=IFCCARTESIANPOINT((0.,27.100000000000001));
#303=IFCCARTESIANPOINT((50.899999999999999,27.100000000000001));
#304=IFCCARTESIANPOINT((50.899999999999999,0.));
#305=IFCCARTESIANPOINT((-24.100000000000001,0.));
#306=IFCCARTESIANPOINT((-24.100000000000001,-47.899999999999999));
#307=IFCCARTESIANPOINT((75.,-47.899999999999999));
#308=IFCCARTESIANPOINT((75.,0.));
#309=IFCPOLYLINE((#301,#302,#303,#304,#305,#306,#307,#308,#301));
#310=IFCARBITRARYCLOSEDPROFILEDEF(.AREA.,$,#309);
#311=IFCCARTESIANPOINT((-25.,-5.,0.));
#312=IFCDIRECTION((0.,-1.,0.));
#313=IFCDIRECTION((1.,0.,0.));
#314=IFCAXIS2PLACEMENT3D(#311,#312,#313);
#315=IFCDIRECTION((0.,0.,-1.));
#316=IFCEXTRUDEDAREASOLID(#310,#314,#315,5.);
#317=IFCCARTESIANPOINT((0.,0.));
#318=IFCCARTESIANPOINT((0.,27.100000000000001));
#319=IFCCARTESIANPOINT((50.899999999999999,27.100000000000001));
#320=IFCCARTESIANPOINT((50.899999999999999,0.));
#321=IFCCARTESIANPOINT((0.89999999999999858,0.));
#322=IFCCARTESIANPOINT((0.89999999999999858,-22.899999999999999));
#323=IFCCARTESIANPOINT((50.,-22.899999999999999));
#324=IFCCARTESIANPOINT((50.,0.));
#325=IFCPOLYLINE((#317,#318,#319,#320,#321,#322,#323,#324,#317));
#326=IFCARBITRARYCLOSEDPROFILEDEF(.AREA.,$,#325);
#327=IFCCARTESIANPOINT((-25.,50.,0.));
#328=IFCDIRECTION((0.,-1.,0.));
#329=IFCDIRECTION((1.,0.,0.));
#330=IFCAXIS2PLACEMENT3D(#327,#328,#329);
#331=IFCDIRECTION((0.,0.,-1.));
#332=IFCEXTRUDEDAREASOLID(#326,#330,#331,5.);
#333=IFCCARTESIANPOINT((0.,0.));
#334=IFCCARTESIANPOINT((-49.100000000000001,0.));
#335=IFCCARTESIANPOINT((-49.100000000000001,35.));
#336=IFCCARTESIANPOINT((0.,35.));
#337=IFCPOLYLINE((#333,#334,#335,#336,#333));
#338=IFCARBITRARYCLOSEDPROFILEDEF(.AREA.,$,#337);
#339=IFCCARTESIANPOINT((25.,25.,25.));
#340=IFCDIRECTION((0.,0.,1.));
#341=IFCDIRECTION((1.,0.,0.));
#342=IFCAXIS2PLACEMENT3D(#339,#340,#341);
#343=IFCDIRECTION((0.,0.,1.));
#344=IFCEXTRUDEDAREASOLID(#338,#342,#343,-47.899999999999999);
#345=IFCCARTESIANPOINT((0.,0.));
#346=IFCCARTESIANPOINT((0.,-40.));
#347=IFCCARTESIANPOINT((-120.00000000000003,-40.));
#348=IFCCARTESIANPOINT((-120.00000000000003,-20.));
#349=IFCCARTESIANPOINT((-20.,-20.));
#350=IFCCARTESIANPOINT((-20.,0.));
#351=IFCPOLYLINE((#345,#346,#347,#348,#349,#350,#345));
#352=IFCARBITRARYCLOSEDPROFILEDEF(.AREA.,$,#351);
#353=IFCCARTESIANPOINT((-74.099999999999994,25.,1015.));
#354=IFCDIRECTION((0.,0.,1.));
#355=IFCDIRECTION((1.,0.,0.));
#356=IFCAXIS2PLACEMENT3D(#353,#354,#355);
#357=IFCDIRECTION((0.,0.,1.));
#358=IFCEXTRUDEDAREASOLID(#352,#356,#357,20.);
#359=IFCEXTRUDEDAREASOLID(#360,#368,#372,20.);
#360=IFCARBITRARYCLOSEDPROFILEDEF(.AREA.,$,#361);
#361=IFCPOLYLINE((#362,#363,#364,#365,#366,#367,#362));
#362=IFCCARTESIANPOINT((0.,0.));
#363=IFCCARTESIANPOINT((0.,40.));
#364=IFCCARTESIANPOINT((-120.00000000000003,40.));
#365=IFCCARTESIANPOINT((-120.00000000000003,20.));
#366=IFCCARTESIANPOINT((-20.,20.));
#367=IFCCARTESIANPOINT((-20.,0.));
#368=IFCAXIS2PLACEMENT3D(#369,#370,#371);
#369=IFCCARTESIANPOINT((-74.099999999999994,60.,1015.));
#370=IFCDIRECTION((0.,0.,1.));
#371=IFCDIRECTION((1.,0.,0.));
#372=IFCDIRECTION((0.,0.,1.));
#373=IFCSHAPEREPRESENTATION(#19,'Body','SweptSolid',(#272,#288,#344,#358,#359,#300,#316,#332));
#374=IFCPRODUCTDEFINITIONSHAPE($,$,(#373));
#380=IFCCARTESIANPOINT((800.,-50.,0.));
#381=IFCDIRECTION((0.,0.,1.));
#382=IFCDIRECTION((1.,0.,0.));
#383=IFCAXIS2PLACEMENT3D(#380,#381,#382);
#384=IFCLOCALPLACEMENT(#36,#383);
#385=IFCOWNERHISTORY(#3,#7,.READWRITE.,.MODIFIED.,1779440583,#3,#7,1779440583);
#386=IFCDOOR('2SPz2m4Pb66RF$5tSIgsyP',#385,'Door 2',$,$,#514,#504,$,$,$);
#387=IFCCARTESIANPOINT((0.,0.));
#388=IFCCARTESIANPOINT((0.,2.1000000000000001));
#389=IFCCARTESIANPOINT((0.90000000000000002,2.1000000000000001));
#390=IFCCARTESIANPOINT((0.90000000000000002,0.));
#391=IFCCARTESIANPOINT((-24.100000000000001,0.));
#392=IFCCARTESIANPOINT((-24.100000000000001,-22.899999999999999));
#393=IFCCARTESIANPOINT((25.,-22.899999999999999));
#394=IFCCARTESIANPOINT((25.,0.));
#395=IFCPOLYLINE((#387,#388,#389,#390,#391,#392,#393,#394,#387));
#396=IFCARBITRARYCLOSEDPROFILEDEF(.AREA.,$,#395);
#397=IFCCARTESIANPOINT((0.,25.,0.));
#398=IFCDIRECTION((0.,-1.,0.));
#399=IFCDIRECTION((1.,0.,0.));
#400=IFCAXIS2PLACEMENT3D(#397,#398,#399);
#401=IFCDIRECTION((0.,0.,-1.));
#402=IFCEXTRUDEDAREASOLID(#396,#400,#401,25.);
#403=IFCCARTESIANPOINT((0.,0.));
#404=IFCCARTESIANPOINT((0.,2.1000000000000001));
#405=IFCCARTESIANPOINT((0.90000000000000002,2.1000000000000001));
#406=IFCCARTESIANPOINT((0.90000000000000002,0.));
#407=IFCCARTESIANPOINT((-49.100000000000001,0.));
#408=IFCCARTESIANPOINT((-49.100000000000001,-47.899999999999999));
#409=IFCCARTESIANPOINT((50.,-47.899999999999999));
#410=IFCCARTESIANPOINT((50.,0.));
#411=IFCPOLYLINE((#403,#404,#405,#406,#407,#408,#409,#410,#403));
#412=IFCARBITRARYCLOSEDPROFILEDEF(.AREA.,$,#411);
#413=IFCCARTESIANPOINT((0.,0.,0.));
#414=IFCDIRECTION((0.,-1.,0.));
#415=IFCDIRECTION((1.,0.,0.));
#416=IFCAXIS2PLACEMENT3D(#413,#414,#415);
#417=IFCDIRECTION((0.,0.,-1.));
#418=IFCEXTRUDEDAREASOLID(#412,#416,#417,25.);
#419=IFCCARTESIANPOINT((0.,0.));
#420=IFCCARTESIANPOINT((-99.099999999999994,0.));
#421=IFCCARTESIANPOINT((-99.099999999999994,100.));
#422=IFCCARTESIANPOINT((0.,100.));
#423=IFCPOLYLINE((#419,#420,#421,#422,#419));
#424=IFCARBITRARYCLOSEDPROFILEDEF(.AREA.,$,#423);
#425=IFCCARTESIANPOINT((50.,0.,0.));
#426=IFCDIRECTION((0.,0.,1.));
#427=IFCDIRECTION((1.,0.,0.));
#428=IFCAXIS2PLACEMENT3D(#425,#426,#427);
#429=IFCDIRECTION((0.,0.,1.));
#430=IFCEXTRUDEDAREASOLID(#424,#428,#429,25.);
#431=IFCCARTESIANPOINT((0.,0.));
#432=IFCCARTESIANPOINT((0.,27.100000000000001));
#433=IFCCARTESIANPOINT((50.899999999999999,27.100000000000001));
#434=IFCCARTESIANPOINT((50.899999999999999,0.));
#435=IFCCARTESIANPOINT((-24.100000000000001,0.));
#436=IFCCARTESIANPOINT((-24.100000000000001,-47.899999999999999));
#437=IFCCARTESIANPOINT((75.,-47.899999999999999));
#438=IFCCARTESIANPOINT((75.,0.));
#439=IFCPOLYLINE((#431,#432,#433,#434,#435,#436,#437,#438,#431));
#440=IFCARBITRARYCLOSEDPROFILEDEF(.AREA.,$,#439);
#441=IFCCARTESIANPOINT((-25.,-5.,0.));
#442=IFCDIRECTION((0.,-1.,0.));
#443=IFCDIRECTION((1.,0.,0.));
#444=IFCAXIS2PLACEMENT3D(#441,#442,#443);
#445=IFCDIRECTION((0.,0.,-1.));
#446=IFCEXTRUDEDAREASOLID(#440,#444,#445,5.);
#447=IFCCARTESIANPOINT((0.,0.));
#448=IFCCARTESIANPOINT((0.,27.100000000000001));
#449=IFCCARTESIANPOINT((50.899999999999999,27.100000000000001));
#450=IFCCARTESIANPOINT((50.899999999999999,0.));
#451=IFCCARTESIANPOINT((0.89999999999999858,0.));
#452=IFCCARTESIANPOINT((0.89999999999999858,-22.899999999999999));
#453=IFCCARTESIANPOINT((50.,-22.899999999999999));
#454=IFCCARTESIANPOINT((50.,0.));
#455=IFCPOLYLINE((#447,#448,#449,#450,#451,#452,#453,#454,#447));
#456=IFCARBITRARYCLOSEDPROFILEDEF(.AREA.,$,#455);
#457=IFCCARTESIANPOINT((-25.,50.,0.));
#458=IFCDIRECTION((0.,-1.,0.));
#459=IFCDIRECTION((1.,0.,0.));
#460=IFCAXIS2PLACEMENT3D(#457,#458,#459);
#461=IFCDIRECTION((0.,0.,-1.));
#462=IFCEXTRUDEDAREASOLID(#456,#460,#461,5.);
#463=IFCCARTESIANPOINT((0.,0.));
#464=IFCCARTESIANPOINT((-49.100000000000001,0.));
#465=IFCCARTESIANPOINT((-49.100000000000001,35.));
#466=IFCCARTESIANPOINT((0.,35.));
#467=IFCPOLYLINE((#463,#464,#465,#466,#463));
#468=IFCARBITRARYCLOSEDPROFILEDEF(.AREA.,$,#467);
#469=IFCCARTESIANPOINT((25.,25.,25.));
#470=IFCDIRECTION((0.,0.,1.));
#471=IFCDIRECTION((1.,0.,0.));
#472=IFCAXIS2PLACEMENT3D(#469,#470,#471);
#473=IFCDIRECTION((0.,0.,1.));
#474=IFCEXTRUDEDAREASOLID(#468,#472,#473,-47.899999999999999);
#475=IFCCARTESIANPOINT((0.,0.));
#476=IFCCARTESIANPOINT((0.,-40.));
#477=IFCCARTESIANPOINT((-120.00000000000003,-40.));
#478=IFCCARTESIANPOINT((-120.00000000000003,-20.));
#479=IFCCARTESIANPOINT((-20.,-20.));
#480=IFCCARTESIANPOINT((-20.,0.));
#481=IFCPOLYLINE((#475,#476,#477,#478,#479,#480,#475));
#482=IFCARBITRARYCLOSEDPROFILEDEF(.AREA.,$,#481);
#483=IFCCARTESIANPOINT((-74.099999999999994,25.,1015.));
#484=IFCDIRECTION((0.,0.,1.));
#485=IFCDIRECTION((1.,0.,0.));
#486=IFCAXIS2PLACEMENT3D(#483,#484,#485);
#487=IFCDIRECTION((0.,0.,1.));
#488=IFCEXTRUDEDAREASOLID(#482,#486,#487,20.);
#489=IFCEXTRUDEDAREASOLID(#490,#498,#502,20.);
#490=IFCARBITRARYCLOSEDPROFILEDEF(.AREA.,$,#491);
#491=IFCPOLYLINE((#492,#493,#494,#495,#496,#497,#492));
#492=IFCCARTESIANPOINT((0.,0.));
#493=IFCCARTESIANPOINT((0.,40.));
#494=IFCCARTESIANPOINT((-120.00000000000003,40.));
#495=IFCCARTESIANPOINT((-120.00000000000003,20.));
#496=IFCCARTESIANPOINT((-20.,20.));
#497=IFCCARTESIANPOINT((-20.,0.));
#498=IFCAXIS2PLACEMENT3D(#499,#500,#501);
#499=IFCCARTESIANPOINT((-74.099999999999994,60.,1015.));
#500=IFCDIRECTION((0.,0.,1.));
#501=IFCDIRECTION((1.,0.,0.));
#502=IFCDIRECTION((0.,0.,1.));
#503=IFCSHAPEREPRESENTATION(#19,'Body','SweptSolid',(#402,#418,#474,#488,#489,#430,#446,#462));
#504=IFCPRODUCTDEFINITIONSHAPE($,$,(#503));
#510=IFCCARTESIANPOINT((1550.,-50.,0.));
#511=IFCDIRECTION((0.,0.,1.));
#512=IFCDIRECTION((1.,0.,0.));
#513=IFCAXIS2PLACEMENT3D(#510,#511,#512);
#514=IFCLOCALPLACEMENT(#36,#513);
#515=IFCOWNERHISTORY(#3,#7,.READWRITE.,.MODIFIED.,1779440583,#3,#7,1779440583);
#516=IFCDOOR('2$QgubaorBG8x_YvfFH4_W',#515,'Door 3',$,$,#644,#634,$,$,$);
#517=IFCCARTESIANPOINT((0.,0.));
#518=IFCCARTESIANPOINT((0.,2.1000000000000001));
#519=IFCCARTESIANPOINT((0.90000000000000002,2.1000000000000001));
#520=IFCCARTESIANPOINT((0.90000000000000002,0.));
#521=IFCCARTESIANPOINT((-24.100000000000001,0.));
#522=IFCCARTESIANPOINT((-24.100000000000001,-22.899999999999999));
#523=IFCCARTESIANPOINT((25.,-22.899999999999999));
#524=IFCCARTESIANPOINT((25.,0.));
#525=IFCPOLYLINE((#517,#518,#519,#520,#521,#522,#523,#524,#517));
#526=IFCARBITRARYCLOSEDPROFILEDEF(.AREA.,$,#525);
#527=IFCCARTESIANPOINT((0.,25.,0.));
#528=IFCDIRECTION((0.,-1.,0.));
#529=IFCDIRECTION((1.,0.,0.));
#530=IFCAXIS2PLACEMENT3D(#527,#528,#529);
#531=IFCDIRECTION((0.,0.,-1.));
#532=IFCEXTRUDEDAREASOLID(#526,#530,#531,25.);
#533=IFCCARTESIANPOINT((0.,0.));
#534=IFCCARTESIANPOINT((0.,2.1000000000000001));
#535=IFCCARTESIANPOINT((0.90000000000000002,2.1000000000000001));
#536=IFCCARTESIANPOINT((0.90000000000000002,0.));
#537=IFCCARTESIANPOINT((-49.100000000000001,0.));
#538=IFCCARTESIANPOINT((-49.100000000000001,-47.899999999999999));
#539=IFCCARTESIANPOINT((50.,-47.899999999999999));
#540=IFCCARTESIANPOINT((50.,0.));
#541=IFCPOLYLINE((#533,#534,#535,#536,#537,#538,#539,#540,#533));
#542=IFCARBITRARYCLOSEDPROFILEDEF(.AREA.,$,#541);
#543=IFCCARTESIANPOINT((0.,0.,0.));
#544=IFCDIRECTION((0.,-1.,0.));
#545=IFCDIRECTION((1.,0.,0.));
#546=IFCAXIS2PLACEMENT3D(#543,#544,#545);
#547=IFCDIRECTION((0.,0.,-1.));
#548=IFCEXTRUDEDAREASOLID(#542,#546,#547,25.);
#549=IFCCARTESIANPOINT((0.,0.));
#550=IFCCARTESIANPOINT((-99.099999999999994,0.));
#551=IFCCARTESIANPOINT((-99.099999999999994,100.));
#552=IFCCARTESIANPOINT((0.,100.));
#553=IFCPOLYLINE((#549,#550,#551,#552,#549));
#554=IFCARBITRARYCLOSEDPROFILEDEF(.AREA.,$,#553);
#555=IFCCARTESIANPOINT((50.,0.,0.));
#556=IFCDIRECTION((0.,0.,1.));
#557=IFCDIRECTION((1.,0.,0.));
#558=IFCAXIS2PLACEMENT3D(#555,#556,#557);
#559=IFCDIRECTION((0.,0.,1.));
#560=IFCEXTRUDEDAREASOLID(#554,#558,#559,25.);
#561=IFCCARTESIANPOINT((0.,0.));
#562=IFCCARTESIANPOINT((0.,27.100000000000001));
#563=IFCCARTESIANPOINT((50.899999999999999,27.100000000000001));
#564=IFCCARTESIANPOINT((50.899999999999999,0.));
#565=IFCCARTESIANPOINT((-24.100000000000001,0.));
#566=IFCCARTESIANPOINT((-24.100000000000001,-47.899999999999999));
#567=IFCCARTESIANPOINT((75.,-47.899999999999999));
#568=IFCCARTESIANPOINT((75.,0.));
#569=IFCPOLYLINE((#561,#562,#563,#564,#565,#566,#567,#568,#561));
#570=IFCARBITRARYCLOSEDPROFILEDEF(.AREA.,$,#569);
#571=IFCCARTESIANPOINT((-25.,-5.,0.));
#572=IFCDIRECTION((0.,-1.,0.));
#573=IFCDIRECTION((1.,0.,0.));
#574=IFCAXIS2PLACEMENT3D(#571,#572,#573);
#575=IFCDIRECTION((0.,0.,-1.));
#576=IFCEXTRUDEDAREASOLID(#570,#574,#575,5.);
#577=IFCCARTESIANPOINT((0.,0.));
#578=IFCCARTESIANPOINT((0.,27.100000000000001));
#579=IFCCARTESIANPOINT((50.899999999999999,27.100000000000001));
#580=IFCCARTESIANPOINT((50.899999999999999,0.));
#581=IFCCARTESIANPOINT((0.89999999999999858,0.));
#582=IFCCARTESIANPOINT((0.89999999999999858,-22.899999999999999));
#583=IFCCARTESIANPOINT((50.,-22.899999999999999));
#584=IFCCARTESIANPOINT((50.,0.));
#585=IFCPOLYLINE((#577,#578,#579,#580,#581,#582,#583,#584,#577));
#586=IFCARBITRARYCLOSEDPROFILEDEF(.AREA.,$,#585);
#587=IFCCARTESIANPOINT((-25.,50.,0.));
#588=IFCDIRECTION((0.,-1.,0.));
#589=IFCDIRECTION((1.,0.,0.));
#590=IFCAXIS2PLACEMENT3D(#587,#588,#589);
#591=IFCDIRECTION((0.,0.,-1.));
#592=IFCEXTRUDEDAREASOLID(#586,#590,#591,5.);
#593=IFCCARTESIANPOINT((0.,0.));
#594=IFCCARTESIANPOINT((-49.100000000000001,0.));
#595=IFCCARTESIANPOINT((-49.100000000000001,35.));
#596=IFCCARTESIANPOINT((0.,35.));
#597=IFCPOLYLINE((#593,#594,#595,#596,#593));
#598=IFCARBITRARYCLOSEDPROFILEDEF(.AREA.,$,#597);
#599=IFCCARTESIANPOINT((25.,25.,25.));
#600=IFCDIRECTION((0.,0.,1.));
#601=IFCDIRECTION((1.,0.,0.));
#602=IFCAXIS2PLACEMENT3D(#599,#600,#601);
#603=IFCDIRECTION((0.,0.,1.));
#604=IFCEXTRUDEDAREASOLID(#598,#602,#603,-47.899999999999999);
#605=IFCCARTESIANPOINT((0.,0.));
#606=IFCCARTESIANPOINT((0.,-40.));
#607=IFCCARTESIANPOINT((-120.00000000000003,-40.));
#608=IFCCARTESIANPOINT((-120.00000000000003,-20.));
#609=IFCCARTESIANPOINT((-20.,-20.));
#610=IFCCARTESIANPOINT((-20.,0.));
#611=IFCPOLYLINE((#605,#606,#607,#608,#609,#610,#605));
#612=IFCARBITRARYCLOSEDPROFILEDEF(.AREA.,$,#611);
#613=IFCCARTESIANPOINT((-74.099999999999994,25.,1015.));
#614=IFCDIRECTION((0.,0.,1.));
#615=IFCDIRECTION((1.,0.,0.));
#616=IFCAXIS2PLACEMENT3D(#613,#614,#615);
#617=IFCDIRECTION((0.,0.,1.));
#618=IFCEXTRUDEDAREASOLID(#612,#616,#617,20.);
#619=IFCEXTRUDEDAREASOLID(#620,#628,#632,20.);
#620=IFCARBITRARYCLOSEDPROFILEDEF(.AREA.,$,#621);
#621=IFCPOLYLINE((#622,#623,#624,#625,#626,#627,#622));
#622=IFCCARTESIANPOINT((0.,0.));
#623=IFCCARTESIANPOINT((0.,40.));
#624=IFCCARTESIANPOINT((-120.00000000000003,40.));
#625=IFCCARTESIANPOINT((-120.00000000000003,20.));
#626=IFCCARTESIANPOINT((-20.,20.));
#627=IFCCARTESIANPOINT((-20.,0.));
#628=IFCAXIS2PLACEMENT3D(#629,#630,#631);
#629=IFCCARTESIANPOINT((-74.099999999999994,60.,1015.));
#630=IFCDIRECTION((0.,0.,1.));
#631=IFCDIRECTION((1.,0.,0.));
#632=IFCDIRECTION((0.,0.,1.));
#633=IFCSHAPEREPRESENTATION(#19,'Body','SweptSolid',(#532,#548,#604,#618,#619,#560,#576,#592));
#634=IFCPRODUCTDEFINITIONSHAPE($,$,(#633));
#640=IFCCARTESIANPOINT((2300.,-50.,0.));
#641=IFCDIRECTION((0.,0.,1.));
#642=IFCDIRECTION((1.,0.,0.));
#643=IFCAXIS2PLACEMENT3D(#640,#641,#642);
#644=IFCLOCALPLACEMENT(#36,#643);
#645=IFCOWNERHISTORY(#3,#7,.READWRITE.,.MODIFIED.,1779440583,#3,#7,1779440583);
#646=IFCOPENINGELEMENT('2rZOjVDX94uwdFxWZ5kaFi',#645,'WD - 001',$,$,#681,#676,$);
#647=IFCCARTESIANPOINT((0.,0.,0.));
#648=IFCCARTESIANPOINT((900.,0.,0.));
#649=IFCCARTESIANPOINT((900.,202.,0.));
#650=IFCCARTESIANPOINT((0.,202.,0.));
#651=IFCCARTESIANPOINT((0.,0.,1500.));
#652=IFCCARTESIANPOINT((900.,0.,1500.));
#653=IFCCARTESIANPOINT((900.,202.,1500.));
#654=IFCCARTESIANPOINT((0.,202.,1500.));
#655=IFCPOLYLOOP((#647,#648,#649,#650));
#656=IFCFACEOUTERBOUND(#655,.T.);
#657=IFCFACE((#656));
#658=IFCPOLYLOOP((#651,#654,#653,#652));
#659=IFCFACEOUTERBOUND(#658,.T.);
#660=IFCFACE((#659));
#661=IFCPOLYLOOP((#647,#651,#652,#648));
#662=IFCFACEOUTERBOUND(#661,.T.);
#663=IFCFACE((#662));
#664=IFCPOLYLOOP((#648,#652,#653,#649));
#665=IFCFACEOUTERBOUND(#664,.T.);
#666=IFCFACE((#665));
#667=IFCPOLYLOOP((#649,#653,#654,#650));
#668=IFCFACEOUTERBOUND(#667,.T.);
#669=IFCFACE((#668));
#670=IFCPOLYLOOP((#650,#654,#651,#647));
#671=IFCFACEOUTERBOUND(#670,.T.);
#672=IFCFACE((#671));
#673=IFCCLOSEDSHELL((#657,#660,#663,#666,#669,#672));
#674=IFCFACETEDBREP(#673);
#675=IFCSHAPEREPRESENTATION(#19,'Body','Brep',(#674));
#676=IFCPRODUCTDEFINITIONSHAPE($,$,(#675));
#677=IFCCARTESIANPOINT((4000.,-1.,1000.));
#678=IFCDIRECTION((0.,0.,1.));
#679=IFCDIRECTION((1.,0.,0.));
#680=IFCAXIS2PLACEMENT3D(#677,#678,#679);
#681=IFCLOCALPLACEMENT($,#680);
#682=IFCOWNERHISTORY(#3,#7,.READWRITE.,.ADDED.,1779440583,#3,#7,1779440583);
#683=IFCRELVOIDSELEMENT('35ZDNbq7b2eAEJ2bryrCXe',#682,$,$,#38,#646);
#684=IFCOWNERHISTORY(#3,#7,.READWRITE.,.MODIFIED.,1779440583,#3,#7,1779440583);
#685=IFCWINDOW('2aTak6HDj2OuYTPS1yCima',#684,'WD - 001',$,'WINDOW',#839,#827,$,1500.,900.);
#686=IFCCARTESIANPOINT((0.,0.,0.));
#687=IFCCARTESIANPOINT((60.,0.,0.));
#688=IFCCARTESIANPOINT((60.,75.,0.));
#689=IFCCARTESIANPOINT((0.,75.,0.));
#690=IFCCARTESIANPOINT((0.,0.,1500.));
#691=IFCCARTESIANPOINT((60.,0.,1500.));
#692=IFCCARTESIANPOINT((60.,75.,1500.));
#693=IFCCARTESIANPOINT((0.,75.,1500.));
#694=IFCPOLYLOOP((#686,#687,#688,#689));
#695=IFCFACEOUTERBOUND(#694,.T.);
#696=IFCFACE((#695));
#697=IFCPOLYLOOP((#690,#693,#692,#691));
#698=IFCFACEOUTERBOUND(#697,.T.);
#699=IFCFACE((#698));
#700=IFCPOLYLOOP((#686,#690,#691,#687));
#701=IFCFACEOUTERBOUND(#700,.T.);
#702=IFCFACE((#701));
#703=IFCPOLYLOOP((#687,#691,#692,#688));
#704=IFCFACEOUTERBOUND(#703,.T.);
#705=IFCFACE((#704));
#706=IFCPOLYLOOP((#688,#692,#693,#689));
#707=IFCFACEOUTERBOUND(#706,.T.);
#708=IFCFACE((#707));
#709=IFCPOLYLOOP((#689,#693,#690,#686));
#710=IFCFACEOUTERBOUND(#709,.T.);
#711=IFCFACE((#710));
#712=IFCCLOSEDSHELL((#696,#699,#702,#705,#708,#711));
#713=IFCFACETEDBREP(#712);
#714=IFCCARTESIANPOINT((840.,0.,0.));
#715=IFCCARTESIANPOINT((900.,0.,0.));
#716=IFCCARTESIANPOINT((900.,75.,0.));
#717=IFCCARTESIANPOINT((840.,75.,0.));
#718=IFCCARTESIANPOINT((840.,0.,1500.));
#719=IFCCARTESIANPOINT((900.,0.,1500.));
#720=IFCCARTESIANPOINT((900.,75.,1500.));
#721=IFCCARTESIANPOINT((840.,75.,1500.));
#722=IFCPOLYLOOP((#714,#715,#716,#717));
#723=IFCFACEOUTERBOUND(#722,.T.);
#724=IFCFACE((#723));
#725=IFCPOLYLOOP((#718,#721,#720,#719));
#726=IFCFACEOUTERBOUND(#725,.T.);
#727=IFCFACE((#726));
#728=IFCPOLYLOOP((#714,#718,#719,#715));
#729=IFCFACEOUTERBOUND(#728,.T.);
#730=IFCFACE((#729));
#731=IFCPOLYLOOP((#715,#719,#720,#716));
#732=IFCFACEOUTERBOUND(#731,.T.);
#733=IFCFACE((#732));
#734=IFCPOLYLOOP((#716,#720,#721,#717));
#735=IFCFACEOUTERBOUND(#734,.T.);
#736=IFCFACE((#735));
#737=IFCPOLYLOOP((#717,#721,#718,#714));
#738=IFCFACEOUTERBOUND(#737,.T.);
#739=IFCFACE((#738));
#740=IFCCLOSEDSHELL((#724,#727,#730,#733,#736,#739));
#741=IFCFACETEDBREP(#740);
#742=IFCCARTESIANPOINT((0.,0.,1440.));
#743=IFCCARTESIANPOINT((900.,0.,1440.));
#744=IFCCARTESIANPOINT((900.,75.,1440.));
#745=IFCCARTESIANPOINT((0.,75.,1440.));
#746=IFCCARTESIANPOINT((0.,0.,1500.));
#747=IFCCARTESIANPOINT((900.,0.,1500.));
#748=IFCCARTESIANPOINT((900.,75.,1500.));
#749=IFCCARTESIANPOINT((0.,75.,1500.));
#750=IFCPOLYLOOP((#742,#743,#744,#745));
#751=IFCFACEOUTERBOUND(#750,.T.);
#752=IFCFACE((#751));
#753=IFCPOLYLOOP((#746,#749,#748,#747));
#754=IFCFACEOUTERBOUND(#753,.T.);
#755=IFCFACE((#754));
#756=IFCPOLYLOOP((#742,#746,#747,#743));
#757=IFCFACEOUTERBOUND(#756,.T.);
#758=IFCFACE((#757));
#759=IFCPOLYLOOP((#743,#747,#748,#744));
#760=IFCFACEOUTERBOUND(#759,.T.);
#761=IFCFACE((#760));
#762=IFCPOLYLOOP((#744,#748,#749,#745));
#763=IFCFACEOUTERBOUND(#762,.T.);
#764=IFCFACE((#763));
#765=IFCPOLYLOOP((#745,#749,#746,#742));
#766=IFCFACEOUTERBOUND(#765,.T.);
#767=IFCFACE((#766));
#768=IFCCLOSEDSHELL((#752,#755,#758,#761,#764,#767));
#769=IFCFACETEDBREP(#768);
#770=IFCCARTESIANPOINT((0.,0.,0.));
#771=IFCCARTESIANPOINT((900.,0.,0.));
#772=IFCCARTESIANPOINT((900.,75.,0.));
#773=IFCCARTESIANPOINT((0.,75.,0.));
#774=IFCCARTESIANPOINT((0.,0.,60.));
#775=IFCCARTESIANPOINT((900.,0.,60.));
#776=IFCCARTESIANPOINT((900.,75.,60.));
#777=IFCCARTESIANPOINT((0.,75.,60.));
#778=IFCPOLYLOOP((#770,#771,#772,#773));
#779=IFCFACEOUTERBOUND(#778,.T.);
#780=IFCFACE((#779));
#781=IFCPOLYLOOP((#774,#777,#776,#775));
#782=IFCFACEOUTERBOUND(#781,.T.);
#783=IFCFACE((#782));
#784=IFCPOLYLOOP((#770,#774,#775,#771));
#785=IFCFACEOUTERBOUND(#784,.T.);
#786=IFCFACE((#785));
#787=IFCPOLYLOOP((#771,#775,#776,#772));
#788=IFCFACEOUTERBOUND(#787,.T.);
#789=IFCFACE((#788));
#790=IFCPOLYLOOP((#772,#776,#777,#773));
#791=IFCFACEOUTERBOUND(#790,.T.);
#792=IFCFACE((#791));
#793=IFCPOLYLOOP((#773,#777,#774,#770));
#794=IFCFACEOUTERBOUND(#793,.T.);
#795=IFCFACE((#794));
#796=IFCCLOSEDSHELL((#780,#783,#786,#789,#792,#795));
#797=IFCFACETEDBREP(#796);
#798=IFCCARTESIANPOINT((60.,27.5,60.));
#799=IFCCARTESIANPOINT((840.,27.5,60.));
#800=IFCCARTESIANPOINT((840.,47.5,60.));
#801=IFCCARTESIANPOINT((60.,47.5,60.));
#802=IFCCARTESIANPOINT((60.,27.5,1440.));
#803=IFCCARTESIANPOINT((840.,27.5,1440.));
#804=IFCCARTESIANPOINT((840.,47.5,1440.));
#805=IFCCARTESIANPOINT((60.,47.5,1440.));
#806=IFCPOLYLOOP((#798,#799,#800,#801));
#807=IFCFACEOUTERBOUND(#806,.T.);
#808=IFCFACE((#807));
#809=IFCPOLYLOOP((#802,#805,#804,#803));
#810=IFCFACEOUTERBOUND(#809,.T.);
#811=IFCFACE((#810));
#812=IFCPOLYLOOP((#798,#802,#803,#799));
#813=IFCFACEOUTERBOUND(#812,.T.);
#814=IFCFACE((#813));
#815=IFCPOLYLOOP((#799,#803,#804,#800));
#816=IFCFACEOUTERBOUND(#815,.T.);
#817=IFCFACE((#816));
#818=IFCPOLYLOOP((#800,#804,#805,#801));
#819=IFCFACEOUTERBOUND(#818,.T.);
#820=IFCFACE((#819));
#821=IFCPOLYLOOP((#801,#805,#802,#798));
#822=IFCFACEOUTERBOUND(#821,.T.);
#823=IFCFACE((#822));
#824=IFCCLOSEDSHELL((#808,#811,#814,#817,#820,#823));
#825=IFCFACETEDBREP(#824);
#826=IFCSHAPEREPRESENTATION(#19,'Body','SurfaceModel',(#713,#741,#769,#797,#825));
#827=IFCPRODUCTDEFINITIONSHAPE($,$,(#826));
#833=IFCOWNERHISTORY(#3,#7,.READWRITE.,.ADDED.,1779440583,#3,#7,1779440583);
#834=IFCRELFILLSELEMENT('2_AdtF2bXD79s4Zl0A5pcl',#833,$,$,#646,#685);
#835=IFCCARTESIANPOINT((0.,1.,0.));
#836=IFCDIRECTION((0.,0.,1.));
#837=IFCDIRECTION((1.,0.,0.));
#838=IFCAXIS2PLACEMENT3D(#835,#836,#837);
#839=IFCLOCALPLACEMENT(#681,#838);
#840=IFCOWNERHISTORY(#3,#7,.READWRITE.,.ADDED.,1779440583,#3,#7,1779440583);
#841=IFCWINDOWSTYLE('32T7hQT9r1iQSY0o8puBEb',#840,'Window Style 1',$,$,$,$,$,.NOTDEFINED.,.NOTDEFINED.,.F.,.F.);
#842=IFCOWNERHISTORY(#3,#7,.READWRITE.,.ADDED.,1779440583,#3,#7,1779440583);
#843=IFCRELDEFINESBYTYPE('14FWUB2oPC6utVXpcTLq2c',#842,$,$,(#685),#841);
#844=IFCOWNERHISTORY(#3,#7,.READWRITE.,.MODIFIED.,1779440583,#3,#7,1779440583);
#845=IFCOPENINGELEMENT('0aIxBNu_n3whkie0$hIQp6',#844,'WD - 002',$,$,#880,#875,$);
#846=IFCCARTESIANPOINT((0.,0.,0.));
#847=IFCCARTESIANPOINT((900.,0.,0.));
#848=IFCCARTESIANPOINT((900.,202.,0.));
#849=IFCCARTESIANPOINT((0.,202.,0.));
#850=IFCCARTESIANPOINT((0.,0.,1500.));
#851=IFCCARTESIANPOINT((900.,0.,1500.));
#852=IFCCARTESIANPOINT((900.,202.,1500.));
#853=IFCCARTESIANPOINT((0.,202.,1500.));
#854=IFCPOLYLOOP((#846,#847,#848,#849));
#855=IFCFACEOUTERBOUND(#854,.T.);
#856=IFCFACE((#855));
#857=IFCPOLYLOOP((#850,#853,#852,#851));
#858=IFCFACEOUTERBOUND(#857,.T.);
#859=IFCFACE((#858));
#860=IFCPOLYLOOP((#846,#850,#851,#847));
#861=IFCFACEOUTERBOUND(#860,.T.);
#862=IFCFACE((#861));
#863=IFCPOLYLOOP((#847,#851,#852,#848));
#864=IFCFACEOUTERBOUND(#863,.T.);
#865=IFCFACE((#864));
#866=IFCPOLYLOOP((#848,#852,#853,#849));
#867=IFCFACEOUTERBOUND(#866,.T.);
#868=IFCFACE((#867));
#869=IFCPOLYLOOP((#849,#853,#850,#846));
#870=IFCFACEOUTERBOUND(#869,.T.);
#871=IFCFACE((#870));
#872=IFCCLOSEDSHELL((#856,#859,#862,#865,#868,#871));
#873=IFCFACETEDBREP(#872);
#874=IFCSHAPEREPRESENTATION(#19,'Body','Brep',(#873));
#875=IFCPRODUCTDEFINITIONSHAPE($,$,(#874));
#876=IFCCARTESIANPOINT((8000.,-1.,1000.));
#877=IFCDIRECTION((0.,0.,1.));
#878=IFCDIRECTION((1.,0.,0.));
#879=IFCAXIS2PLACEMENT3D(#876,#877,#878);
#880=IFCLOCALPLACEMENT($,#879);
#881=IFCOWNERHISTORY(#3,#7,.READWRITE.,.ADDED.,1779440583,#3,#7,1779440583);
#882=IFCRELVOIDSELEMENT('2M6XhgB4PE$utfPE2CJ63C',#881,$,$,#38,#845);
#883=IFCOWNERHISTORY(#3,#7,.READWRITE.,.MODIFIED.,1779440583,#3,#7,1779440583);
#884=IFCWINDOW('2An$xpAPLDtxEW8G5Bvx7I',#883,'WD - 002',$,'WINDOW',#1038,#1026,$,1500.,900.);
#885=IFCCARTESIANPOINT((0.,0.,0.));
#886=IFCCARTESIANPOINT((60.,0.,0.));
#887=IFCCARTESIANPOINT((60.,75.,0.));
#888=IFCCARTESIANPOINT((0.,75.,0.));
#889=IFCCARTESIANPOINT((0.,0.,1500.));
#890=IFCCARTESIANPOINT((60.,0.,1500.));
#891=IFCCARTESIANPOINT((60.,75.,1500.));
#892=IFCCARTESIANPOINT((0.,75.,1500.));
#893=IFCPOLYLOOP((#885,#886,#887,#888));
#894=IFCFACEOUTERBOUND(#893,.T.);
#895=IFCFACE((#894));
#896=IFCPOLYLOOP((#889,#892,#891,#890));
#897=IFCFACEOUTERBOUND(#896,.T.);
#898=IFCFACE((#897));
#899=IFCPOLYLOOP((#885,#889,#890,#886));
#900=IFCFACEOUTERBOUND(#899,.T.);
#901=IFCFACE((#900));
#902=IFCPOLYLOOP((#886,#890,#891,#887));
#903=IFCFACEOUTERBOUND(#902,.T.);
#904=IFCFACE((#903));
#905=IFCPOLYLOOP((#887,#891,#892,#888));
#906=IFCFACEOUTERBOUND(#905,.T.);
#907=IFCFACE((#906));
#908=IFCPOLYLOOP((#888,#892,#889,#885));
#909=IFCFACEOUTERBOUND(#908,.T.);
#910=IFCFACE((#909));
#911=IFCCLOSEDSHELL((#895,#898,#901,#904,#907,#910));
#912=IFCFACETEDBREP(#911);
#913=IFCCARTESIANPOINT((840.,0.,0.));
#914=IFCCARTESIANPOINT((900.,0.,0.));
#915=IFCCARTESIANPOINT((900.,75.,0.));
#916=IFCCARTESIANPOINT((840.,75.,0.));
#917=IFCCARTESIANPOINT((840.,0.,1500.));
#918=IFCCARTESIANPOINT((900.,0.,1500.));
#919=IFCCARTESIANPOINT((900.,75.,1500.));
#920=IFCCARTESIANPOINT((840.,75.,1500.));
#921=IFCPOLYLOOP((#913,#914,#915,#916));
#922=IFCFACEOUTERBOUND(#921,.T.);
#923=IFCFACE((#922));
#924=IFCPOLYLOOP((#917,#920,#919,#918));
#925=IFCFACEOUTERBOUND(#924,.T.);
#926=IFCFACE((#925));
#927=IFCPOLYLOOP((#913,#917,#918,#914));
#928=IFCFACEOUTERBOUND(#927,.T.);
#929=IFCFACE((#928));
#930=IFCPOLYLOOP((#914,#918,#919,#915));
#931=IFCFACEOUTERBOUND(#930,.T.);
#932=IFCFACE((#931));
#933=IFCPOLYLOOP((#915,#919,#920,#916));
#934=IFCFACEOUTERBOUND(#933,.T.);
#935=IFCFACE((#934));
#936=IFCPOLYLOOP((#916,#920,#917,#913));
#937=IFCFACEOUTERBOUND(#936,.T.);
#938=IFCFACE((#937));
#939=IFCCLOSEDSHELL((#923,#926,#929,#932,#935,#938));
#940=IFCFACETEDBREP(#939);
#941=IFCCARTESIANPOINT((0.,0.,1440.));
#942=IFCCARTESIANPOINT((900.,0.,1440.));
#943=IFCCARTESIANPOINT((900.,75.,1440.));
#944=IFCCARTESIANPOINT((0.,75.,1440.));
#945=IFCCARTESIANPOINT((0.,0.,1500.));
#946=IFCCARTESIANPOINT((900.,0.,1500.));
#947=IFCCARTESIANPOINT((900.,75.,1500.));
#948=IFCCARTESIANPOINT((0.,75.,1500.));
#949=IFCPOLYLOOP((#941,#942,#943,#944));
#950=IFCFACEOUTERBOUND(#949,.T.);
#951=IFCFACE((#950));
#952=IFCPOLYLOOP((#945,#948,#947,#946));
#953=IFCFACEOUTERBOUND(#952,.T.);
#954=IFCFACE((#953));
#955=IFCPOLYLOOP((#941,#945,#946,#942));
#956=IFCFACEOUTERBOUND(#955,.T.);
#957=IFCFACE((#956));
#958=IFCPOLYLOOP((#942,#946,#947,#943));
#959=IFCFACEOUTERBOUND(#958,.T.);
#960=IFCFACE((#959));
#961=IFCPOLYLOOP((#943,#947,#948,#944));
#962=IFCFACEOUTERBOUND(#961,.T.);
#963=IFCFACE((#962));
#964=IFCPOLYLOOP((#944,#948,#945,#941));
#965=IFCFACEOUTERBOUND(#964,.T.);
#966=IFCFACE((#965));
#967=IFCCLOSEDSHELL((#951,#954,#957,#960,#963,#966));
#968=IFCFACETEDBREP(#967);
#969=IFCCARTESIANPOINT((0.,0.,0.));
#970=IFCCARTESIANPOINT((900.,0.,0.));
#971=IFCCARTESIANPOINT((900.,75.,0.));
#972=IFCCARTESIANPOINT((0.,75.,0.));
#973=IFCCARTESIANPOINT((0.,0.,60.));
#974=IFCCARTESIANPOINT((900.,0.,60.));
#975=IFCCARTESIANPOINT((900.,75.,60.));
#976=IFCCARTESIANPOINT((0.,75.,60.));
#977=IFCPOLYLOOP((#969,#970,#971,#972));
#978=IFCFACEOUTERBOUND(#977,.T.);
#979=IFCFACE((#978));
#980=IFCPOLYLOOP((#973,#976,#975,#974));
#981=IFCFACEOUTERBOUND(#980,.T.);
#982=IFCFACE((#981));
#983=IFCPOLYLOOP((#969,#973,#974,#970));
#984=IFCFACEOUTERBOUND(#983,.T.);
#985=IFCFACE((#984));
#986=IFCPOLYLOOP((#970,#974,#975,#971));
#987=IFCFACEOUTERBOUND(#986,.T.);
#988=IFCFACE((#987));
#989=IFCPOLYLOOP((#971,#975,#976,#972));
#990=IFCFACEOUTERBOUND(#989,.T.);
#991=IFCFACE((#990));
#992=IFCPOLYLOOP((#972,#976,#973,#969));
#993=IFCFACEOUTERBOUND(#992,.T.);
#994=IFCFACE((#993));
#995=IFCCLOSEDSHELL((#979,#982,#985,#988,#991,#994));
#996=IFCFACETEDBREP(#995);
#997=IFCCARTESIANPOINT((60.,27.5,60.));
#998=IFCCARTESIANPOINT((840.,27.5,60.));
#999=IFCCARTESIANPOINT((840.,47.5,60.));
#1000=IFCCARTESIANPOINT((60.,47.5,60.));
#1001=IFCCARTESIANPOINT((60.,27.5,1440.));
#1002=IFCCARTESIANPOINT((840.,27.5,1440.));
#1003=IFCCARTESIANPOINT((840.,47.5,1440.));
#1004=IFCCARTESIANPOINT((60.,47.5,1440.));
#1005=IFCPOLYLOOP((#997,#998,#999,#1000));
#1006=IFCFACEOUTERBOUND(#1005,.T.);
#1007=IFCFACE((#1006));
#1008=IFCPOLYLOOP((#1001,#1004,#1003,#1002));
#1009=IFCFACEOUTERBOUND(#1008,.T.);
#1010=IFCFACE((#1009));
#1011=IFCPOLYLOOP((#997,#1001,#1002,#998));
#1012=IFCFACEOUTERBOUND(#1011,.T.);
#1013=IFCFACE((#1012));
#1014=IFCPOLYLOOP((#998,#1002,#1003,#999));
#1015=IFCFACEOUTERBOUND(#1014,.T.);
#1016=IFCFACE((#1015));
#1017=IFCPOLYLOOP((#999,#1003,#1004,#1000));
#1018=IFCFACEOUTERBOUND(#1017,.T.);
#1019=IFCFACE((#1018));
#1020=IFCPOLYLOOP((#1000,#1004,#1001,#997));
#1021=IFCFACEOUTERBOUND(#1020,.T.);
#1022=IFCFACE((#1021));
#1023=IFCCLOSEDSHELL((#1007,#1010,#1013,#1016,#1019,#1022));
#1024=IFCFACETEDBREP(#1023);
#1025=IFCSHAPEREPRESENTATION(#19,'Body','SurfaceModel',(#912,#940,#968,#996,#1024));
#1026=IFCPRODUCTDEFINITIONSHAPE($,$,(#1025));
#1032=IFCOWNERHISTORY(#3,#7,.READWRITE.,.ADDED.,1779440583,#3,#7,1779440583);
#1033=IFCRELFILLSELEMENT('0za1RaFYH1gAMjjmYjkWfj',#1032,$,$,#845,#884);
#1034=IFCCARTESIANPOINT((0.,1.,0.));
#1035=IFCDIRECTION((0.,0.,1.));
#1036=IFCDIRECTION((1.,0.,0.));
#1037=IFCAXIS2PLACEMENT3D(#1034,#1035,#1036);
#1038=IFCLOCALPLACEMENT(#880,#1037);
#1039=IFCOWNERHISTORY(#3,#7,.READWRITE.,.ADDED.,1779440583,#3,#7,1779440583);
#1040=IFCWINDOWSTYLE('2EOQcSYcf3nAGOHF$hQ41E',#1039,'Window Style 2',$,$,$,$,$,.NOTDEFINED.,.NOTDEFINED.,.F.,.F.);
#1041=IFCOWNERHISTORY(#3,#7,.READWRITE.,.ADDED.,1779440583,#3,#7,1779440583);
#1042=IFCRELDEFINESBYTYPE('1daQ2ga4b9ouzUIsS5Is3Q',#1041,$,$,(#884),#1040);
#1043=IFCOWNERHISTORY(#3,#7,.READWRITE.,.MODIFIED.,1779440583,#3,#7,1779440583);
#1044=IFCSPACE('1PSTMgkAb86QCfHVgSVW8U',#1043,'OPEN OFFICE',$,$,#1066,#1061,$,.ELEMENT.,$,$);
#1045=IFCOWNERHISTORY(#3,#7,.READWRITE.,.MODIFIED.,1779440583,#3,#7,1779440583);
#1046=IFCRELAGGREGATES('3UjKVDg1z3xB_yt6b_WsSA',#1045,$,$,#29,(#1044,#1068));
#1047=IFCCARTESIANPOINT((0.,0.));
#1048=IFCCARTESIANPOINT((5750.,0.));
#1049=IFCCARTESIANPOINT((5750.,5750.));
#1050=IFCCARTESIANPOINT((0.,5750.));
#1051=IFCCARTESIANPOINT((0.,0.));
#1052=IFCPOLYLINE((#1047,#1048,#1049,#1050,#1051));
#1053=IFCDIRECTION((0.,0.,1.));
#1054=IFCCARTESIANPOINT((0.,0.,0.));
#1055=IFCDIRECTION((0.,0.,1.));
#1056=IFCDIRECTION((1.,0.,0.));
#1057=IFCAXIS2PLACEMENT3D(#1054,#1055,#1056);
#1058=IFCARBITRARYCLOSEDPROFILEDEF(.AREA.,$,#1052);
#1059=IFCEXTRUDEDAREASOLID(#1058,#1057,#1053,2799.9999999999995);
#1060=IFCSHAPEREPRESENTATION(#19,'Body','SweptSolid',(#1059));
#1061=IFCPRODUCTDEFINITIONSHAPE($,$,(#1060));
#1062=IFCCARTESIANPOINT((100.,100.,0.));
#1063=IFCDIRECTION((0.,0.,1.));
#1064=IFCDIRECTION((1.,0.,0.));
#1065=IFCAXIS2PLACEMENT3D(#1062,#1063,#1064);
#1066=IFCLOCALPLACEMENT(#36,#1065);
#1067=IFCOWNERHISTORY(#3,#7,.READWRITE.,.MODIFIED.,1779440583,#3,#7,1779440583);
#1068=IFCSPACE('1z3PmnPLTDTPlCOTWtJv1T',#1067,'WC',$,$,#1088,#1083,$,.ELEMENT.,$,$);
#1069=IFCCARTESIANPOINT((0.,0.));
#1070=IFCCARTESIANPOINT((5750.,0.));
#1071=IFCCARTESIANPOINT((5750.,5750.));
#1072=IFCCARTESIANPOINT((0.,5750.));
#1073=IFCCARTESIANPOINT((0.,0.));
#1074=IFCPOLYLINE((#1069,#1070,#1071,#1072,#1073));
#1075=IFCDIRECTION((0.,0.,1.));
#1076=IFCCARTESIANPOINT((0.,0.,0.));
#1077=IFCDIRECTION((0.,0.,1.));
#1078=IFCDIRECTION((1.,0.,0.));
#1079=IFCAXIS2PLACEMENT3D(#1076,#1077,#1078);
#1080=IFCARBITRARYCLOSEDPROFILEDEF(.AREA.,$,#1074);
#1081=IFCEXTRUDEDAREASOLID(#1080,#1079,#1075,2799.9999999999995);
#1082=IFCSHAPEREPRESENTATION(#19,'Body','SweptSolid',(#1081));
#1083=IFCPRODUCTDEFINITIONSHAPE($,$,(#1082));
#1084=IFCCARTESIANPOINT((6099.9999999999991,100.,0.));
#1085=IFCDIRECTION((0.,0.,1.));
#1086=IFCDIRECTION((1.,0.,0.));
#1087=IFCAXIS2PLACEMENT3D(#1084,#1085,#1086);
#1088=IFCLOCALPLACEMENT(#36,#1087);
ENDSEC;
END-ISO-10303-21;
