%
M48
M72
T01C0.02400
T02C0.03200
T03C0.04000
%
T01
X148500Y28480
X168500Y28480
T02
X73500Y23480
X73500Y38480
X73500Y58480
X83500Y58480
X93500Y58480
X103500Y58480
X113500Y58480
X123500Y58480
X133500Y58480
X143500Y58480
X153500Y58480
X173500Y58480
X173500Y48480
X193500Y43480
X203500Y43480
X203500Y23480
X193500Y23480
X198500Y63480
X206000Y68480
X198500Y73480
X193500Y93480
X203500Y93480
X203500Y113480
X193500Y113480
X153500Y88480
X143500Y88480
X133500Y88480
X123500Y88480
X113500Y88480
X103500Y88480
X93500Y88480
X83500Y88480
X73500Y88480
X113500Y38480
X128500Y33480
X128500Y23480
X113500Y23480
T03
X113500Y138480
X103500Y138480
X93500Y138480
X83500Y138480
X73500Y138480
X63500Y138480
X53500Y138480
X43500Y138480
X33500Y138480
X23500Y138480
X13500Y138480
X123500Y138480
X133500Y138480
X143500Y138480
X153500Y138480
X163500Y138480
X173500Y138480
X183500Y138480
X193500Y138480
X203500Y138480
M30
