  0
SECTION
  2
HEADER
  9
$ACADVER
  1
AC1024
  9
$ACADMAINTVER
 70
6
  9
$DWGCODEPAGE
  3
ANSI_1252
  9
$LASTSAVEDBY
  1
ezdxf
  9
$INSBASE
 10
0.0
 20
0.0
 30
0.0
  9
$EXTMIN
 10
1e+20
 20
1e+20
 30
1e+20
  9
$EXTMAX
 10
-1e+20
 20
-1e+20
 30
-1e+20
  9
$LIMMIN
 10
0.0
 20
0.0
  9
$LIMMAX
 10
420.0
 20
297.0
  9
$ORTHOMODE
 70
0
  9
$REGENMODE
 70
1
  9
$FILLMODE
 70
1
  9
$QTEXTMODE
 70
0
  9
$MIRRTEXT
 70
1
  9
$LTSCALE
 40
1.0
  9
$ATTMODE
 70
1
  9
$TEXTSIZE
 40
2.5
  9
$TRACEWID
 40
1.0
  9
$TEXTSTYLE
  7
Standard
  9
$CLAYER
  8
0
  9
$CELTYPE
  6
ByLayer
  9
$CECOLOR
 62
256
  9
$CELTSCALE
 40
1.0
  9
$DISPSILH
 70
0
  9
$DIMSCALE
 40
1.0
  9
$DIMASZ
 40
2.5
  9
$DIMEXO
 40
0.625
  9
$DIMDLI
 40
3.75
  9
$DIMRND
 40
0.0
  9
$DIMDLE
 40
0.0
  9
$DIMEXE
 40
1.25
  9
$DIMTP
 40
0.0
  9
$DIMTM
 40
0.0
  9
$DIMTXT
 40
2.5
  9
$DIMCEN
 40
2.5
  9
$DIMTSZ
 40
0.0
  9
$DIMTOL
 70
0
  9
$DIMLIM
 70
0
  9
$DIMTIH
 70
0
  9
$DIMTOH
 70
0
  9
$DIMSE1
 70
0
  9
$DIMSE2
 70
0
  9
$DIMTAD
 70
1
  9
$DIMZIN
 70
8
  9
$DIMBLK
  1

  9
$DIMASO
 70
1
  9
$DIMSHO
 70
1
  9
$DIMPOST
  1

  9
$DIMAPOST
  1

  9
$DIMALT
 70
0
  9
$DIMALTD
 70
3
  9
$DIMALTF
 40
0.03937007874
  9
$DIMLFAC
 40
1.0
  9
$DIMTOFL
 70
1
  9
$DIMTVP
 40
0.0
  9
$DIMTIX
 70
0
  9
$DIMSOXD
 70
0
  9
$DIMSAH
 70
0
  9
$DIMBLK1
  1

  9
$DIMBLK2
  1

  9
$DIMSTYLE
  2
ISO-25
  9
$DIMCLRD
 70
0
  9
$DIMCLRE
 70
0
  9
$DIMCLRT
 70
0
  9
$DIMTFAC
 40
1.0
  9
$DIMGAP
 40
0.625
  9
$DIMJUST
 70
0
  9
$DIMSD1
 70
0
  9
$DIMSD2
 70
0
  9
$DIMTOLJ
 70
0
  9
$DIMTZIN
 70
8
  9
$DIMALTZ
 70
0
  9
$DIMALTTZ
 70
0
  9
$DIMUPT
 70
0
  9
$DIMDEC
 70
2
  9
$DIMTDEC
 70
2
  9
$DIMALTU
 70
2
  9
$DIMALTTD
 70
3
  9
$DIMTXSTY
  7
Standard
  9
$DIMAUNIT
 70
0
  9
$DIMADEC
 70
0
  9
$DIMALTRND
 40
0.0
  9
$DIMAZIN
 70
0
  9
$DIMDSEP
 70
44
  9
$DIMATFIT
 70
3
  9
$DIMFRAC
 70
0
  9
$DIMLDRBLK
  1

  9
$DIMLUNIT
 70
2
  9
$DIMLWD
 70
-2
  9
$DIMLWE
 70
-2
  9
$DIMTMOVE
 70
0
  9
$DIMFXL
 40
1.0
  9
$DIMFXLON
 70
0
  9
$DIMJOGANG
 40
0.785398163397
  9
$DIMTFILL
 70
0
  9
$DIMTFILLCLR
 70
0
  9
$DIMARCSYM
 70
0
  9
$DIMLTYPE
  6

  9
$DIMLTEX1
  6

  9
$DIMLTEX2
  6

  9
$DIMTXTDIRECTION
 70
0
  9
$LUNITS
 70
2
  9
$LUPREC
 70
4
  9
$SKETCHINC
 40
1.0
  9
$FILLETRAD
 40
10.0
  9
$AUNITS
 70
0
  9
$AUPREC
 70
2
  9
$MENU
  1
.
  9
$ELEVATION
 40
0.0
  9
$PELEVATION
 40
0.0
  9
$THICKNESS
 40
0.0
  9
$LIMCHECK
 70
0
  9
$CHAMFERA
 40
0.0
  9
$CHAMFERB
 40
0.0
  9
$CHAMFERC
 40
0.0
  9
$CHAMFERD
 40
0.0
  9
$SKPOLY
 70
0
  9
$TDCREATE
 40
2461154.9688541666
  9
$TDUCREATE
 40
2458532.153996898
  9
$TDUPDATE
 40
2461154.9688541666
  9
$TDUUPDATE
 40
2458532.1544311
  9
$TDINDWG
 40
0.0
  9
$TDUSRTIMER
 40
0.0
  9
$USRTIMER
 70
1
  9
$ANGBASE
 50
0.0
  9
$ANGDIR
 70
0
  9
$PDMODE
 70
0
  9
$PDSIZE
 40
0.0
  9
$PLINEWID
 40
0.0
  9
$SPLFRAME
 70
0
  9
$SPLINETYPE
 70
6
  9
$SPLINESEGS
 70
8
  9
$HANDSEED
  5
3D
  9
$SURFTAB1
 70
6
  9
$SURFTAB2
 70
6
  9
$SURFTYPE
 70
6
  9
$SURFU
 70
6
  9
$SURFV
 70
6
  9
$UCSBASE
  2

  9
$UCSNAME
  2

  9
$UCSORG
 10
0.0
 20
0.0
 30
0.0
  9
$UCSXDIR
 10
1.0
 20
0.0
 30
0.0
  9
$UCSYDIR
 10
0.0
 20
1.0
 30
0.0
  9
$UCSORTHOREF
  2

  9
$UCSORTHOVIEW
 70
0
  9
$UCSORGTOP
 10
0.0
 20
0.0
 30
0.0
  9
$UCSORGBOTTOM
 10
0.0
 20
0.0
 30
0.0
  9
$UCSORGLEFT
 10
0.0
 20
0.0
 30
0.0
  9
$UCSORGRIGHT
 10
0.0
 20
0.0
 30
0.0
  9
$UCSORGFRONT
 10
0.0
 20
0.0
 30
0.0
  9
$UCSORGBACK
 10
0.0
 20
0.0
 30
0.0
  9
$PUCSBASE
  2

  9
$PUCSNAME
  2

  9
$PUCSORG
 10
0.0
 20
0.0
 30
0.0
  9
$PUCSXDIR
 10
1.0
 20
0.0
 30
0.0
  9
$PUCSYDIR
 10
0.0
 20
1.0
 30
0.0
  9
$PUCSORTHOREF
  2

  9
$PUCSORTHOVIEW
 70
0
  9
$PUCSORGTOP
 10
0.0
 20
0.0
 30
0.0
  9
$PUCSORGBOTTOM
 10
0.0
 20
0.0
 30
0.0
  9
$PUCSORGLEFT
 10
0.0
 20
0.0
 30
0.0
  9
$PUCSORGRIGHT
 10
0.0
 20
0.0
 30
0.0
  9
$PUCSORGFRONT
 10
0.0
 20
0.0
 30
0.0
  9
$PUCSORGBACK
 10
0.0
 20
0.0
 30
0.0
  9
$USERI1
 70
0
  9
$USERI2
 70
0
  9
$USERI3
 70
0
  9
$USERI4
 70
0
  9
$USERI5
 70
0
  9
$USERR1
 40
0.0
  9
$USERR2
 40
0.0
  9
$USERR3
 40
0.0
  9
$USERR4
 40
0.0
  9
$USERR5
 40
0.0
  9
$WORLDVIEW
 70
1
  9
$SHADEDGE
 70
3
  9
$SHADEDIF
 70
70
  9
$TILEMODE
 70
1
  9
$MAXACTVP
 70
64
  9
$PINSBASE
 10
0.0
 20
0.0
 30
0.0
  9
$PLIMCHECK
 70
0
  9
$PEXTMIN
 10
1e+20
 20
1e+20
 30
1e+20
  9
$PEXTMAX
 10
-1e+20
 20
-1e+20
 30
-1e+20
  9
$PLIMMIN
 10
0.0
 20
0.0
  9
$PLIMMAX
 10
420.0
 20
297.0
  9
$UNITMODE
 70
0
  9
$VISRETAIN
 70
1
  9
$PLINEGEN
 70
0
  9
$PSLTSCALE
 70
1
  9
$TREEDEPTH
 70
3020
  9
$CMLSTYLE
  2
Standard
  9
$CMLJUST
 70
0
  9
$CMLSCALE
 40
20.0
  9
$PROXYGRAPHICS
 70
1
  9
$MEASUREMENT
 70
1
  9
$CELWEIGHT
370
-1
  9
$ENDCAPS
280
0
  9
$JOINSTYLE
280
0
  9
$LWDISPLAY
290
0
  9
$INSUNITS
 70
6
  9
$HYPERLINKBASE
  1

  9
$STYLESHEET
  1

  9
$XEDIT
290
1
  9
$CEPSNTYPE
380
0
  9
$PSTYLEMODE
290
1
  9
$FINGERPRINTGUID
  2
{6D26C556-BCBD-468C-B834-EEA124547632}
  9
$VERSIONGUID
  2
{C33DFD52-3B69-42B2-B329-048E2B6CDDE6}
  9
$EXTNAMES
290
1
  9
$PSVPSCALE
 40
0.0
  9
$OLESTARTUP
290
0
  9
$SORTENTS
280
127
  9
$INDEXCTL
280
0
  9
$HIDETEXT
280
1
  9
$XCLIPFRAME
280
1
  9
$HALOGAP
280
0
  9
$OBSCOLOR
 70
257
  9
$OBSLTYPE
280
0
  9
$INTERSECTIONDISPLAY
280
0
  9
$INTERSECTIONCOLOR
 70
257
  9
$DIMASSOC
280
2
  9
$PROJECTNAME
  1

  9
$CAMERADISPLAY
290
0
  9
$LENSLENGTH
 40
50.0
  9
$CAMERAHEIGHT
 40
0.0
  9
$STEPSPERSEC
 40
24.0
  9
$STEPSIZE
 40
100.0
  9
$3DDWFPREC
 40
2.0
  9
$PSOLWIDTH
 40
0.005
  9
$PSOLHEIGHT
 40
0.08
  9
$LOFTANG1
 40
1.570796326795
  9
$LOFTANG2
 40
1.570796326795
  9
$LOFTMAG1
 40
0.0
  9
$LOFTMAG2
 40
0.0
  9
$LOFTPARAM
 70
7
  9
$LOFTNORMALS
280
1
  9
$LATITUDE
 40
37.795
  9
$LONGITUDE
 40
-122.394
  9
$NORTHDIRECTION
 40
0.0
  9
$TIMEZONE
 70
-8000
  9
$LIGHTGLYPHDISPLAY
280
1
  9
$TILEMODELIGHTSYNCH
280
1
  9
$CMATERIAL
347
20
  9
$SOLIDHIST
280
0
  9
$SHOWHIST
280
1
  9
$DWFFRAME
280
2
  9
$DGNFRAME
280
2
  9
$REALWORLDSCALE
290
1
  9
$INTERFERECOLOR
 62
256
  9
$CSHADOW
280
0
  9
$SHADOWPLANELOCATION
 40
0.0
  0
ENDSEC
  0
SECTION
  2
CLASSES
  0
CLASS
  1
ACDBDICTIONARYWDFLT
  2
AcDbDictionaryWithDefault
  3
ObjectDBX Classes
 90
0
 91
0
280
0
281
0
  0
CLASS
  1
SUN
  2
AcDbSun
  3
SCENEOE
 90
1153
 91
0
280
0
281
0
  0
CLASS
  1
VISUALSTYLE
  2
AcDbVisualStyle
  3
ObjectDBX Classes
 90
4095
 91
0
280
0
281
0
  0
CLASS
  1
MATERIAL
  2
AcDbMaterial
  3
ObjectDBX Classes
 90
1153
 91
0
280
0
281
0
  0
CLASS
  1
SCALE
  2
AcDbScale
  3
ObjectDBX Classes
 90
1153
 91
0
280
0
281
0
  0
CLASS
  1
TABLESTYLE
  2
AcDbTableStyle
  3
ObjectDBX Classes
 90
4095
 91
0
280
0
281
0
  0
CLASS
  1
MLEADERSTYLE
  2
AcDbMLeaderStyle
  3
ACDB_MLEADERSTYLE_CLASS
 90
4095
 91
0
280
0
281
0
  0
CLASS
  1
DICTIONARYVAR
  2
AcDbDictionaryVar
  3
ObjectDBX Classes
 90
0
 91
0
280
0
281
0
  0
CLASS
  1
CELLSTYLEMAP
  2
AcDbCellStyleMap
  3
ObjectDBX Classes
 90
1152
 91
0
280
0
281
0
  0
CLASS
  1
MENTALRAYRENDERSETTINGS
  2
AcDbMentalRayRenderSettings
  3
SCENEOE
 90
1024
 91
0
280
0
281
0
  0
CLASS
  1
ACDBDETAILVIEWSTYLE
  2
AcDbDetailViewStyle
  3
ObjectDBX Classes
 90
1025
 91
0
280
0
281
0
  0
CLASS
  1
ACDBSECTIONVIEWSTYLE
  2
AcDbSectionViewStyle
  3
ObjectDBX Classes
 90
1025
 91
0
280
0
281
0
  0
CLASS
  1
RASTERVARIABLES
  2
AcDbRasterVariables
  3
ISM
 90
0
 91
0
280
0
281
0
  0
CLASS
  1
ACDBPLACEHOLDER
  2
AcDbPlaceHolder
  3
ObjectDBX Classes
 90
0
 91
0
280
0
281
0
  0
CLASS
  1
LAYOUT
  2
AcDbLayout
  3
ObjectDBX Classes
 90
0
 91
0
280
0
281
0
  0
ENDSEC
  0
SECTION
  2
TABLES
  0
TABLE
  2
VPORT
  5
8
330
0
100
AcDbSymbolTable
 70
1
  0
VPORT
  5
23
330
8
100
AcDbSymbolTableRecord
100
AcDbViewportTableRecord
  2
*Active
 70
0
 10
0.0
 20
0.0
 11
1.0
 21
1.0
 12
0.0
 22
0.0
 13
0.0
 23
0.0
 14
0.5
 24
0.5
 15
0.5
 25
0.5
 16
0.0
 26
0.0
 36
1.0
 17
0.0
 27
0.0
 37
0.0
 40
1000.0
 41
1.34
 42
50.0
 43
0.0
 44
0.0
 50
0.0
 51
0.0
 71
0
 72
1000
 73
1
 74
3
 75
0
 76
0
 77
0
 78
0
281
0
 65
0
146
0.0
  0
ENDTAB
  0
TABLE
  2
LTYPE
  5
2
330
0
100
AcDbSymbolTable
 70
3
  0
LTYPE
  5
24
330
2
100
AcDbSymbolTableRecord
100
AcDbLinetypeTableRecord
  2
ByBlock
 70
0
  3

 72
65
 73
0
 40
0.0
  0
LTYPE
  5
25
330
2
100
AcDbSymbolTableRecord
100
AcDbLinetypeTableRecord
  2
ByLayer
 70
0
  3

 72
65
 73
0
 40
0.0
  0
LTYPE
  5
26
330
2
100
AcDbSymbolTableRecord
100
AcDbLinetypeTableRecord
  2
Continuous
 70
0
  3

 72
65
 73
0
 40
0.0
  0
ENDTAB
  0
TABLE
  2
LAYER
  5
1
330
0
100
AcDbSymbolTable
 70
3
  0
LAYER
  5
27
330
1
100
AcDbSymbolTableRecord
100
AcDbLayerTableRecord
  2
0
 70
0
 62
7
  6
Continuous
370
-3
390
13
347
21
  0
LAYER
  5
28
330
1
100
AcDbSymbolTableRecord
100
AcDbLayerTableRecord
  2
Defpoints
 70
0
 62
7
  6
Continuous
290
0
370
-3
390
13
347
21
  0
LAYER
  5
2F
330
1
100
AcDbSymbolTableRecord
100
AcDbLayerTableRecord
  2
CONTOURS
 70
0
 62
3
  6
Continuous
370
-3
390
13
347
21
  0
ENDTAB
  0
TABLE
  2
STYLE
  5
5
330
0
100
AcDbSymbolTable
 70
1
  0
STYLE
  5
29
330
5
100
AcDbSymbolTableRecord
100
AcDbTextStyleTableRecord
  2
Standard
 70
0
 40
0.0
 41
1.0
 50
0.0
 71
0
 42
2.5
  3
txt
  4

  0
ENDTAB
  0
TABLE
  2
VIEW
  5
7
330
0
100
AcDbSymbolTable
 70
0
  0
ENDTAB
  0
TABLE
  2
UCS
  5
6
330
0
100
AcDbSymbolTable
 70
0
  0
ENDTAB
  0
TABLE
  2
APPID
  5
3
330
0
100
AcDbSymbolTable
 70
3
  0
APPID
  5
2A
330
3
100
AcDbSymbolTableRecord
100
AcDbRegAppTableRecord
  2
ACAD
 70
0
  0
APPID
  5
3A
330
3
100
AcDbSymbolTableRecord
100
AcDbRegAppTableRecord
  2
HATCHBACKGROUNDCOLOR
 70
0
  0
APPID
  5
3B
330
3
100
AcDbSymbolTableRecord
100
AcDbRegAppTableRecord
  2
EZDXF
 70
0
  0
ENDTAB
  0
TABLE
  2
DIMSTYLE
  5
4
330
0
100
AcDbSymbolTable
 70
1
100
AcDbDimStyleTable
  0
DIMSTYLE
105
2B
330
4
100
AcDbSymbolTableRecord
100
AcDbDimStyleTableRecord
  2
Standard
 70
0
 40
1.0
 41
2.5
 42
0.625
 43
3.75
 44
1.25
 45
0.0
 46
0.0
 47
0.0
 48
0.0
 49
2.5
140
2.5
141
2.5
142
0.0
143
0.03937007874
144
1.0
145
0.0
146
1.0
147
0.625
148
0.0
 69
0
 70
0
 71
0
 72
0
 73
0
 74
0
 75
0
 76
0
 77
1
 78
8
 79
3
170
0
171
3
172
1
173
0
174
0
175
0
176
0
177
0
178
0
179
2
271
2
272
2
273
2
274
3
275
0
276
0
277
2
278
44
279
0
280
0
281
0
282
0
283
0
284
8
285
0
286
0
288
0
289
3
290
0
371
-2
372
-2
  0
ENDTAB
  0
TABLE
  2
BLOCK_RECORD
  5
9
330
0
100
AcDbSymbolTable
 70
2
  0
BLOCK_RECORD
  5
17
330
9
100
AcDbSymbolTableRecord
100
AcDbBlockTableRecord
  2
*Model_Space
340
1A
 70
0
280
1
281
0
  0
BLOCK_RECORD
  5
1B
330
9
100
AcDbSymbolTableRecord
100
AcDbBlockTableRecord
  2
*Paper_Space
340
1E
 70
0
280
1
281
0
  0
ENDTAB
  0
ENDSEC
  0
SECTION
  2
BLOCKS
  0
BLOCK
  5
18
330
17
100
AcDbEntity
  8
0
100
AcDbBlockBegin
  2
*Model_Space
 70
0
 10
0.0
 20
0.0
 30
0.0
  3
*Model_Space
  1

  0
ENDBLK
  5
19
330
17
100
AcDbEntity
  8
0
100
AcDbBlockEnd
  0
BLOCK
  5
1C
330
1B
100
AcDbEntity
  8
0
100
AcDbBlockBegin
  2
*Paper_Space
 70
0
 10
0.0
 20
0.0
 30
0.0
  3
*Paper_Space
  1

  0
ENDBLK
  5
1D
330
1B
100
AcDbEntity
  8
0
100
AcDbBlockEnd
  0
ENDSEC
  0
SECTION
  2
ENTITIES
  0
LWPOLYLINE
  5
30
330
17
100
AcDbEntity
  8
CONTOURS
100
AcDbPolyline
 90
32
 70
0
 38
21.03
 10
56.72853550704056
 20
0.0
 10
57.22003482457485
 20
1.5859997547322613
 10
57.6349869962116
 20
3.193823023856381
 10
57.96388873964928
 20
4.821380138422173
 10
58.23304409176488
 20
6.460014598194913
 10
58.45849807096668
 20
8.105285654181298
 10
58.67503519252389
 20
9.751772239275143
 10
58.93974160841175
 20
11.3911203336879
 10
59.280169826921245
 20
13.016258774641122
 10
59.75822533899393
 20
14.605856812573172
 10
60.412219948947396
 20
16.130485500531226
 10
61.28045941361223
 20
17.543320603145872
 10
62.40173853617377
 20
18.763925281262612
 10
63.76336951469243
 20
19.705626040566546
 10
65.31219948549908
 20
20.289337745605064
 10
66.9601735086521
 20
20.451888413155427
 10
68.60316470102856
 20
20.237568643334654
 10
70.16758251834007
 20
19.689880798850105
 10
71.61869344851742
 20
18.8869643866333
 10
72.9423047205344
 20
17.886912773667852
 10
74.13403946054349
 20
16.731612591246428
 10
75.19554060320567
 20
15.455391188043555
 10
76.13934678337726
 20
14.089677141109764
 10
76.974686436347
 20
12.65481341558146
 10
77.7102658265971
 20
11.166242848360685
 10
78.36049137688457
 20
9.638433472422129
 10
78.93444233456424
 20
8.080309701954757
 10
79.43649990298847
 20
6.497510772416903
 10
79.87069981540913
 20
4.894723780483699
 10
80.23981126483908
 20
3.2757461891823536
 10
80.54346734282788
 20
1.6431817850491275
 10
80.78285204229972
 20
0.0
  0
LWPOLYLINE
  5
31
330
17
100
AcDbEntity
  8
CONTOURS
100
AcDbPolyline
 90
32
 70
0
 38
22.47
 10
4.7238572410946675
 20
90.0
 10
5.804268397740914
 20
87.7844056224789
 10
7.19683451672598
 20
85.75278598419258
 10
8.911988071011658
 20
83.9845807310448
 10
10.92980699334911
 20
82.57261330381742
 10
13.096174918258415
 20
81.40019423507103
 10
15.371786714375046
 20
80.45356874197466
 10
17.682957576761005
 20
79.59204449093535
 10
20.014066498812426
 20
78.78564980397827
 10
22.345175420863846
 20
77.97925511702118
 10
24.676284342915263
 20
77.1728604300641
 10
26.928720878319865
 20
76.17577956470214
 10
28.97221730797536
 20
74.81281436115175
 10
30.480605364186847
 20
72.9015061293705
 10
30.95178363864344
 20
70.51486154701355
 10
30.344016773922384
 20
68.13613458779635
 10
29.120707020056532
 20
65.99880675367554
 10
27.558788056027776
 20
64.09351291013647
 10
25.828364996534432
 20
62.33966810139242
 10
23.987964022574012
 20
60.69928626583619
 10
22.076549040057785
 20
59.14017306845993
 10
20.100357292078428
 20
57.66418388985358
 10
18.107376848539513
 20
56.21131330786402
 10
16.077354561042302
 20
54.81011713677129
 10
14.04733227354509
 20
53.408920965678554
 10
12.015758980722067
 20
52.009980215385916
 10
9.980887932176573
 20
50.61583495272074
 10
7.946016883631091
 20
49.22168969005557
 10
5.9111458350855965
 20
47.8275444273904
 10
3.8762747865401153
 20
46.43339916472523
 10
1.8414037379946215
 20
45.039253902060054
 10
0.0
 20
43.40845775316235
  0
LWPOLYLINE
  5
32
330
17
100
AcDbEntity
  8
CONTOURS
100
AcDbPolyline
 90
32
 70
0
 38
23.92
 10
79.04351498129031
 20
90.0
 10
75.48174672032619
 20
87.80190643574574
 10
71.76335107739865
 20
85.8776032866988
 10
67.98880400510613
 20
84.06271040761767
 10
64.20267705567137
 20
82.2721075563869
 10
60.41613566377552
 20
80.48237404243827
 10
56.68330528118457
 20
78.58636717453969
 10
53.06246025379404
 20
76.48638010567858
 10
49.676340234087874
 20
74.02730614926506
 10
46.531824306266714
 20
71.26158653491507
 10
43.43060128617703
 20
68.44672285381836
 10
40.329378266087346
 20
65.63185917272165
 10
36.999290717420045
 20
63.09490093916535
 10
33.52443684946316
 20
60.758712737231754
 10
30.02651856741095
 20
58.455326403239916
 10
26.533908769070063
 20
56.14389425843776
 10
23.041298970729176
 20
53.8324621136356
 10
19.568997756902583
 20
51.49240545502388
 10
16.252926509659478
 20
48.93539191338429
 10
13.100171242327193
 20
46.180617112692055
 10
10.204031401963757
 20
43.15864721993648
 10
7.744752643947405
 20
39.77702769357422
 10
5.921657286520313
 20
36.01887297669342
 10
4.8639037193536065
 20
31.976482050969715
 10
4.505981675746307
 20
27.808391231246404
 10
4.709742225815219
 20
23.629180485352684
 10
5.299736198413555
 20
19.485084870215893
 10
6.192421056569575
 20
15.394734201217195
 10
7.364757976707518
 20
11.37506340474301
 10
8.780045461958993
 20
7.43445438893726
 10
10.517948442313697
 20
3.6254067876991245
 10
12.610744204533828
 20
0.0
  0
LWPOLYLINE
  5
33
330
17
100
AcDbEntity
  8
CONTOURS
100
AcDbPolyline
 90
32
 70
0
 38
25.36
 10
89.85709658048926
 20
90.0
 10
86.32091829881837
 20
87.40394556622064
 10
82.33304295706088
 20
85.53899625579457
 10
78.28471778044187
 20
83.80332863099375
 10
74.24769022530361
 20
82.04308022145227
 10
70.28906511962812
 20
80.11417723381615
 10
66.44769927281276
 20
77.96231090488597
 10
62.769162743033334
 20
75.54363456416584
 10
59.28511582647739
 20
72.85235753525835
 10
55.98321420987594
 20
69.9392095842013
 10
52.707234101817164
 20
66.99514646676288
 10
49.3001374550189
 20
64.20900821493814
 10
45.62043472644005
 20
61.79477204435979
 10
41.72258434479897
 20
59.745401327613735
 10
37.76302220302618
 20
57.815703889597245
 10
33.8034600612534
 20
55.886006451580755
 10
29.847089708178714
 20
53.95029082746341
 10
26.04213693950133
 20
51.73246400282822
 10
22.384342137573125
 20
49.281000859528355
 10
18.923214233957694
 20
46.56040207414174
 10
15.726753942602388
 20
43.535716444952364
 10
12.93454605969688
 20
40.133894945065705
 10
10.706824083705127
 20
36.34169501050274
 10
9.198236610489012
 20
32.21109819583818
 10
8.4809519576326
 20
27.871047784058366
 10
8.46127898942846
 20
23.47243208833642
 10
8.992859770660395
 20
19.103559751329435
 10
10.040804896585692
 20
14.827707783196473
 10
11.516084067396077
 20
10.680772043259076
 10
13.451244152935669
 20
6.7268233052926565
 10
15.952519263442653
 20
3.1073265377117343
 10
19.06055253335317
 20
0.0
  0
LWPOLYLINE
  5
34
330
17
100
AcDbEntity
  8
CONTOURS
100
AcDbPolyline
 90
32
 70
0
 38
26.8
 10
28.0
 20
1.2721793935540517
 10
36.154512108528884
 20
2.3619553779332767
 10
43.13730032024879
 20
6.764007952922173
 10
48.04271411741214
 20
13.424039894620734
 10
51.707086725933955
 20
20.880269750987924
 10
56.08587399670099
 20
27.92573479892387
 10
62.11104695055732
 20
33.590902069724784
 10
69.87877088402341
 20
36.33249720082352
 10
78.1600662514608
 20
36.987090941038765
 10
86.256296252039
 20
38.73783845641105
 10
93.33205065741414
 20
43.002053733066475
 10
98.50683053981571
 20
49.456366139307534
 10
101.58454449585575
 20
57.14626180648987
 10
102.57824574008445
 20
65.37313174544573
 10
101.44938160516546
 20
73.57794070370134
 10
97.06544139894538
 20
80.42473889414893
 10
89.04552151499641
 20
81.99506103564315
 10
80.8782977092481
 20
80.56934946205165
 10
73.1566196818574
 20
77.53715697792708
 10
66.19237782966191
 20
73.03380111820913
 10
60.254266946349205
 20
67.23738062487786
 10
54.6048137714033
 20
61.15385311941423
 10
47.4449372804556
 20
57.039948103774385
 10
39.548185072513355
 20
54.458908308707485
 10
31.820238191156815
 20
51.42122418365366
 10
24.62096055973929
 20
47.293487921233876
 10
18.36053357967164
 20
41.85753964815392
 10
13.770879519907528
 20
34.973043751325086
 10
11.752838952195834
 20
26.95796581250926
 10
12.397925064101502
 20
18.70424922778963
 10
15.282619647940535
 20
10.940540060471722
 10
20.470680010276034
 20
4.519448253921276
  0
LWPOLYLINE
  5
35
330
17
100
AcDbEntity
  8
CONTOURS
100
AcDbPolyline
 90
32
 70
0
 38
28.24
 10
28.666666666666664
 20
5.295819138291044
 10
36.172404987524466
 20
6.101292009131749
 10
42.57760043755434
 20
10.138773497185504
 10
47.10060093003043
 20
16.248457640926393
 10
50.64029424124799
 20
23.005606672763502
 10
54.490366104532384
 20
29.587693772986167
 10
59.10646469156539
 20
35.65189598015127
 10
65.23938347779495
 20
40.02643080392204
 10
72.80369196158132
 20
40.70356549529286
 10
80.4186672196967
 20
41.009327505274506
 10
87.6910290826442
 20
43.19174065318031
 10
93.689585541833
 20
47.82813041337743
 10
97.6375512878673
 20
54.310410484606386
 10
99.23477520176739
 20
61.73405239580693
 10
98.18955876780323
 20
69.24273597334265
 10
93.80800588892268
 20
75.34413124539957
 10
86.64012427911278
 20
77.61317215754865
 10
79.12636509241294
 20
76.52284632871317
 10
72.24296730947654
 20
73.28892026482549
 10
66.45752784928212
 20
68.35048455282576
 10
61.93622933614614
 20
62.21877389887975
 10
57.52124547950113
 20
56.017609015042495
 10
50.74518907369285
 20
52.802263353961976
 10
43.204733509947225
 20
51.64940827820437
 10
35.804342984131544
 20
49.82859011116115
 10
28.840061134073775
 20
46.74430231829625
 10
22.670106052352928
 20
42.28603351510937
 10
17.846716645486957
 20
36.41076019303858
 10
15.132327738208181
 20
29.32256508917196
 10
14.976806705750175
 20
21.730758096605523
 10
17.223998407905107
 20
14.474473785618123
 10
21.83169386680277
 20
8.460970330317895
  0
LWPOLYLINE
  5
36
330
17
100
AcDbEntity
  8
CONTOURS
100
AcDbPolyline
 90
32
 70
0
 38
29.68
 10
28.0
 20
9.312730669214869
 10
31.751572601311675
 20
8.779817836181333
 10
35.49858723257932
 20
9.35637276294853
 10
38.96021828472217
 20
10.90760581095924
 10
41.95141517327966
 20
13.244416138017272
 10
44.40793900233846
 20
16.142852538136225
 10
46.44809193024537
 20
19.35175755367786
 10
48.26081687425681
 20
22.696105352572943
 10
50.00180936913767
 20
26.07868038181501
 10
51.74055206679627
 20
29.462422601087944
 10
53.45620888262723
 20
32.857834560967774
 10
55.03148671176625
 20
36.319776539811144
 10
56.19754588259235
 20
39.935670127521654
 10
56.109532571819805
 20
43.68376389972425
 10
53.47162701261698
 20
46.288751088580064
 10
49.86881323616619
 20
47.47713524700105
 10
46.10056785890741
 20
47.973665126065924
 10
42.29911432485821
 20
47.94786848262513
 10
38.53159496370646
 20
47.43936342237267
 10
34.85783192874268
 20
46.4612334451874
 10
31.335681157799716
 20
45.03026611021156
 10
28.029030047593587
 20
43.15453830669961
 10
25.01141044841006
 20
40.84330538444545
 10
22.371065725949705
 20
38.11014268344271
 10
20.222902419846783
 20
34.976604331413675
 10
18.680225656508522
 20
31.505734090515503
 10
17.8389227764559
 20
27.802173474880355
 10
17.734148560973175
 20
24.005369703314408
 10
18.368936653410714
 20
20.260536620602416
 10
19.720595079649435
 20
16.71163922455694
 10
21.79988239617153
 20
13.536195147071934
 10
24.592154898497665
 20
10.97027874996891
  0
LWPOLYLINE
  5
37
330
17
100
AcDbEntity
  8
CONTOURS
100
AcDbPolyline
 90
32
 70
0
 38
31.12
 10
29.999999999999996
 20
12.572559619218861
 10
33.03297862694136
 20
12.34462990849658
 10
36.017037546723415
 20
12.939392645081785
 10
38.75834208232935
 20
14.264499378538448
 10
41.144657562716326
 20
16.158427979506204
 10
43.160710968092445
 20
18.445398242647276
 10
44.872025139271685
 20
20.970555586549086
 10
46.37153604064907
 20
23.628081731325615
 10
47.7300342287161
 20
26.360716677620086
 10
48.97007611674963
 20
29.14910136293846
 10
50.05236411966419
 20
32.00202858155799
 10
50.831137231752834
 20
34.95021755835892
 10
50.99861206525322
 20
37.987291306829945
 10
50.00741014421228
 20
40.84255442042323
 10
47.77964068332738
 20
42.88813964934033
 10
44.95400183504554
 20
44.0112800070521
 10
41.93605999185213
 20
44.43058674920711
 10
38.88985895901163
 20
44.30954104662326
 10
35.895357916996154
 20
43.73479097424785
 10
33.00960705738056
 20
42.748977050652314
 10
30.282499072160416
 20
41.38433237519352
 10
27.768396917918217
 20
39.65883712433996
 10
25.52577705725369
 20
37.59339398252778
 10
23.62458366841613
 20
35.210489704437826
 10
22.14230127537953
 20
32.54712515599504
 10
21.15310360237733
 20
29.66462448046766
 10
20.70381415738804
 20
26.650480656152038
 10
20.83651811520565
 20
23.606216688618183
 10
21.547427856936007
 20
20.643539633167222
 10
22.8505857521101
 20
17.89036626599004
 10
24.733846818942624
 20
15.498173145595642
 10
27.162040345627904
 20
13.66530345318877
  0
LWPOLYLINE
  5
38
330
17
100
AcDbEntity
  8
CONTOURS
100
AcDbPolyline
 90
32
 70
0
 38
32.56
 10
30.0
 20
16.561126509780184
 10
32.28384851780567
 20
16.04920584712379
 10
34.621600616578036
 20
16.166332164661682
 10
36.85371814095478
 20
16.875860928705528
 10
38.874815335146806
 20
18.062071973023098
 10
40.641257817196234
 20
19.60504745456844
 10
42.15653427203819
 20
21.39681235330246
 10
43.46068176476522
 20
23.348430268759724
 10
44.58601114552081
 20
25.40881149373933
 10
45.5482984484053
 20
27.55017255842849
 10
46.33627191464565
 20
29.761263734850868
 10
46.89052771320991
 20
32.041337930087955
 10
47.064823423079126
 20
34.37871705643117
 10
46.644206778859065
 20
36.67859319723354
 10
45.402536775983485
 20
38.654250829018736
 10
43.49357838103577
 20
40.001603322796306
 10
41.2591241571899
 20
40.70235154299894
 10
38.921029532273096
 20
40.87108833416385
 10
36.58919750728035
 20
40.620809744649456
 10
34.32621434452748
 20
40.00195079910436
 10
32.17660030343126
 20
39.062304040862
 10
30.179482155620658
 20
37.831341749848306
 10
28.378394542512435
 20
36.32838070267374
 10
26.81388482705696
 20
34.580667660315555
 10
25.54038691000791
 20
32.61077819614424
 10
24.60672805695325
 20
30.459380311057426
 10
24.056626234511462
 20
28.17975704233159
 10
23.927869677141192
 20
25.8388746754203
 10
24.24766798879836
 20
23.51681829691998
 10
25.023843796600925
 20
21.30555844540754
 10
26.26613152684264
 20
19.31909872622576
 10
27.949718408444397
 20
17.69124320904785
  0
LWPOLYLINE
  5
39
330
17
100
AcDbEntity
  8
CONTOURS
100
AcDbPolyline
 90
32
 70
1
 38
34.0
 10
32.0
 20
20.661734302705135
 10
33.508280157522435
 20
20.400493344666085
 10
35.033352366549465
 20
20.52783335147378
 10
36.48681414201943
 20
21.009003217174666
 10
37.81443834262782
 20
21.77421669115426
 10
38.99273132465695
 20
22.75509845488049
 10
40.025006352279114
 20
23.8901645831319
 10
40.90313819808426
 20
25.148471296725745
 10
41.644958882041884
 20
26.491543764740587
 10
42.243646536385484
 20
27.904181722511233
 10
42.685078594351715
 20
29.373838295509703
 10
42.90791645386965
 20
30.891313912822383
 10
42.86610435606047
 20
32.42262493760994
 10
42.456203700149075
 20
33.89495672546703
 10
41.598614395264335
 20
35.15651477578889
 10
40.372070882362415
 20
36.0630519403194
 10
38.92207535377382
 20
36.55108899348477
 10
37.39624975886105
 20
36.681745237273205
 10
35.874952995404335
 20
36.49371294522554
 10
34.405009439287376
 20
36.05638342471626
 10
33.01961516307344
 20
35.39838097959916
 10
31.74477052885195
 20
34.545974317047055
 10
30.60303416725323
 20
33.521557000275465
 10
29.62643255778239
 20
32.33909936978384
 10
28.833485708342845
 20
31.0269423925039
 10
28.258160106639515
 20
29.60614602813691
 10
27.920059366328335
 20
28.111119541704056
 10
27.858544222393167
 20
26.57937945743637
 10
28.09231119094915
 20
25.065373920428613
 10
28.630848571268093
 20
23.631025061970128
 10
29.488476024864674
 20
22.363435529013472
 10
30.625024330335
 20
21.33747746690148
  0
ENDSEC
  0
SECTION
  2
OBJECTS
  0
DICTIONARY
  5
A
330
0
100
AcDbDictionary
281
1
  3
ACAD_COLOR
350
B
  3
ACAD_GROUP
350
C
  3
ACAD_LAYOUT
350
D
  3
ACAD_MATERIAL
350
E
  3
ACAD_MLEADERSTYLE
350
F
  3
ACAD_MLINESTYLE
350
10
  3
ACAD_PLOTSETTINGS
350
11
  3
ACAD_PLOTSTYLENAME
350
12
  3
ACAD_SCALELIST
350
14
  3
ACAD_TABLESTYLE
350
15
  3
ACAD_VISUALSTYLE
350
16
  3
EZDXF_META
350
2D
  0
DICTIONARY
  5
B
330
A
100
AcDbDictionary
281
1
  0
DICTIONARY
  5
C
330
A
100
AcDbDictionary
281
1
  0
DICTIONARY
  5
D
330
A
100
AcDbDictionary
281
1
  3
Model
350
1A
  3
Layout1
350
1E
  0
DICTIONARY
  5
E
330
A
100
AcDbDictionary
281
1
  3
ByBlock
350
1F
  3
ByLayer
350
20
  3
Global
350
21
  0
DICTIONARY
  5
F
330
A
100
AcDbDictionary
281
1
  3
Standard
350
2C
  0
DICTIONARY
  5
10
330
A
100
AcDbDictionary
281
1
  3
Standard
350
22
  0
DICTIONARY
  5
11
330
A
100
AcDbDictionary
281
1
  0
ACDBDICTIONARYWDFLT
  5
12
330
A
100
AcDbDictionary
281
1
  3
Normal
350
13
100
AcDbDictionaryWithDefault
340
13
  0
ACDBPLACEHOLDER
  5
13
330
12
  0
DICTIONARY
  5
14
330
A
100
AcDbDictionary
281
1
  0
DICTIONARY
  5
15
330
A
100
AcDbDictionary
281
1
  0
DICTIONARY
  5
16
330
A
100
AcDbDictionary
281
1
  0
LAYOUT
  5
1A
330
D
100
AcDbPlotSettings
  1

  4
A3
  6

 40
7.5
 41
20.0
 42
7.5
 43
20.0
 44
420.0
 45
297.0
 46
0.0
 47
0.0
 48
0.0
 49
0.0
140
0.0
141
0.0
142
1.0
143
1.0
 70
1024
 72
1
 73
0
 74
5
  7

 75
16
 76
0
 77
2
 78
300
147
1.0
148
0.0
149
0.0
100
AcDbLayout
  1
Model
 70
1
 71
0
 10
0.0
 20
0.0
 11
420.0
 21
297.0
 12
0.0
 22
0.0
 32
0.0
 14
1e+20
 24
1e+20
 34
1e+20
 15
-1e+20
 25
-1e+20
 35
-1e+20
146
0.0
 13
0.0
 23
0.0
 33
0.0
 16
1.0
 26
0.0
 36
0.0
 17
0.0
 27
1.0
 37
0.0
 76
1
330
17
  0
LAYOUT
  5
1E
330
D
100
AcDbPlotSettings
  1

  4
A3
  6

 40
7.5
 41
20.0
 42
7.5
 43
20.0
 44
420.0
 45
297.0
 46
0.0
 47
0.0
 48
0.0
 49
0.0
140
0.0
141
0.0
142
1.0
143
1.0
 70
0
 72
1
 73
0
 74
5
  7

 75
16
 76
0
 77
2
 78
300
147
1.0
148
0.0
149
0.0
100
AcDbLayout
  1
Layout1
 70
1
 71
1
 10
0.0
 20
0.0
 11
420.0
 21
297.0
 12
0.0
 22
0.0
 32
0.0
 14
1e+20
 24
1e+20
 34
1e+20
 15
-1e+20
 25
-1e+20
 35
-1e+20
146
0.0
 13
0.0
 23
0.0
 33
0.0
 16
1.0
 26
0.0
 36
0.0
 17
0.0
 27
1.0
 37
0.0
 76
1
330
1B
  0
MATERIAL
  5
1F
102
{ACAD_REACTORS
330
E
102
}
330
E
100
AcDbMaterial
  1
ByBlock
  2

 70
0
 40
1.0
 71
1
 41
1.0
 91
-1023410177
 42
1.0
 72
1
  3

 73
1
 74
1
 75
1
 44
0.5
 73
0
 45
1.0
 46
1.0
 77
1
  4

 78
1
 79
1
170
1
 48
1.0
171
1
  6

172
1
173
1
174
1
140
1.0
141
1.0
175
1
  7

176
1
177
1
178
1
143
1.0
179
1
  8

270
1
271
1
272
1
145
1.0
146
1.0
273
1
  9

274
1
275
1
276
1
 42
1.0
 72
1
  3

 73
1
 74
1
 75
1
 94
63
  0
MATERIAL
  5
20
102
{ACAD_REACTORS
330
E
102
}
330
E
100
AcDbMaterial
  1
ByLayer
  2

 70
0
 40
1.0
 71
1
 41
1.0
 91
-1023410177
 42
1.0
 72
1
  3

 73
1
 74
1
 75
1
 44
0.5
 73
0
 45
1.0
 46
1.0
 77
1
  4

 78
1
 79
1
170
1
 48
1.0
171
1
  6

172
1
173
1
174
1
140
1.0
141
1.0
175
1
  7

176
1
177
1
178
1
143
1.0
179
1
  8

270
1
271
1
272
1
145
1.0
146
1.0
273
1
  9

274
1
275
1
276
1
 42
1.0
 72
1
  3

 73
1
 74
1
 75
1
 94
63
  0
MATERIAL
  5
21
102
{ACAD_REACTORS
330
E
102
}
330
E
100
AcDbMaterial
  1
Global
  2

 70
0
 40
1.0
 71
1
 41
1.0
 91
-1023410177
 42
1.0
 72
1
  3

 73
1
 74
1
 75
1
 44
0.5
 73
0
 45
1.0
 46
1.0
 77
1
  4

 78
1
 79
1
170
1
 48
1.0
171
1
  6

172
1
173
1
174
1
140
1.0
141
1.0
175
1
  7

176
1
177
1
178
1
143
1.0
179
1
  8

270
1
271
1
272
1
145
1.0
146
1.0
273
1
  9

274
1
275
1
276
1
 42
1.0
 72
1
  3

 73
1
 74
1
 75
1
 94
63
  0
MLINESTYLE
  5
22
102
{ACAD_REACTORS
330
10
102
}
330
10
100
AcDbMlineStyle
  2
Standard
 70
0
  3

 62
256
 51
90.0
 52
90.0
 71
2
 49
0.5
 62
256
  6
BYLAYER
 49
-0.5
 62
256
  6
BYLAYER
  0
MLEADERSTYLE
  5
2C
102
{ACAD_REACTORS
330
F
102
}
330
F
100
AcDbMLeaderStyle
179
2
170
2
171
1
172
0
 90
2
 40
0.0
 41
0.0
173
1
 91
-1056964608
 92
-2
290
1
 42
2.0
291
1
 43
8.0
  3
Standard
 44
4.0
300

342
29
174
1
175
1
176
0
178
1
 93
-1056964608
 45
4.0
292
0
297
0
 46
4.0
 94
-1056964608
 47
1.0
 49
1.0
140
1.0
294
1
141
0.0
177
0
142
1.0
295
0
296
0
143
3.75
271
0
272
9
273
9
  0
DICTIONARY
  5
2D
330
A
100
AcDbDictionary
280
1
281
1
  3
CREATED_BY_EZDXF
350
2E
  3
WRITTEN_BY_EZDXF
350
3C
  0
DICTIONARYVAR
  5
2E
330
2D
100
DictionaryVariables
280
0
  1
1.4.3 @ 2026-04-23T15:15:09.207429+00:00
  0
DICTIONARYVAR
  5
3C
330
2D
100
DictionaryVariables
280
0
  1
1.4.3 @ 2026-04-23T15:15:09.210373+00:00
  0
ENDSEC
  0
EOF
