ISO-10303-21;
HEADER;
FILE_DESCRIPTION(('ViewDefinition [CoordinationView]'),'2;1');
FILE_NAME('','2026-05-21T23:01:19',(''),(''),'IfcOpenShell 0.8.5-1c5b825','IfcOpenShell 0.8.5-1c5b825','');
FILE_SCHEMA(('IFC2X3'));
ENDSEC;
DATA;
#1=IFCPERSON('USER','User','Revit',$,$,$,$,$);
#2=IFCORGANIZATION('ENGIWORLD','Engiworld',$,$,$);
#3=IFCPERSONANDORGANIZATION(#1,#2,$);
#4=IFCORGANIZATION('ENGIWORLD','Engiworld',$,$,$);
#5=IFCAPPLICATION(#4,'1.0','IfcOpenShell IFC2X3 GT','IOS-GT');
#6=IFCOWNERHISTORY(#3,#5,$,.ADDED.,$,$,$,1779375679);
#7=IFCSIUNIT(*,.LENGTHUNIT.,.MILLI.,.METRE.);
#8=IFCSIUNIT(*,.AREAUNIT.,$,.SQUARE_METRE.);
#9=IFCSIUNIT(*,.VOLUMEUNIT.,$,.CUBIC_METRE.);
#10=IFCUNITASSIGNMENT((#7,#8,#9));
#11=IFCCARTESIANPOINT((0.,0.,0.));
#12=IFCDIRECTION((0.,0.,1.));
#13=IFCDIRECTION((1.,0.,0.));
#14=IFCAXIS2PLACEMENT3D(#11,#12,#13);
#15=IFCGEOMETRICREPRESENTATIONCONTEXT($,'Model',3,1.0000000000000001E-05,#14,$);
#16=IFCGEOMETRICREPRESENTATIONSUBCONTEXT('Body','Model',*,*,*,*,#15,$,.MODEL_VIEW.,$);
#17=IFCPROJECT('3hssA4RT1DyRk258nrSly0',#6,'Revit Simple task-09 Ground Truth',$,$,$,$,(#15),#10);
#18=IFCSITE('1$GTC9lanFxB_6YXmOjBZD',#6,'Default Site',$,$,$,$,$,.ELEMENT.,$,$,$,$,$);
#19=IFCBUILDING('3Yq1Q4DXb1u9M2i8j3NAfn',#6,'task-09 Building',$,$,$,$,$,.ELEMENT.,$,$,$);
#20=IFCRELAGGREGATES('2fysfqE391QeRd5bul2niz',#6,$,$,#17,(#18));
#21=IFCRELAGGREGATES('07nH0$3NPC$8VGJrHTAQJP',#6,$,$,#18,(#19));
#22=IFCCARTESIANPOINT((0.,0.,0.));
#23=IFCDIRECTION((0.,0.,1.));
#24=IFCDIRECTION((1.,0.,0.));
#25=IFCAXIS2PLACEMENT3D(#22,#23,#24);
#26=IFCLOCALPLACEMENT($,#25);
#27=IFCBUILDINGSTOREY('0ZrzYGjvD3_ebnlEtMN9RP',#6,'Level 1',$,$,#26,$,$,.ELEMENT.,0.);
#28=IFCRELAGGREGATES('2yb3iUR_r0j83EJDMWLyRz',#6,$,$,#19,(#27));
#29=IFCCARTESIANPOINT((0.,0.,0.));
#30=IFCDIRECTION((0.,0.,1.));
#31=IFCDIRECTION((1.,0.,0.));
#32=IFCAXIS2PLACEMENT3D(#29,#30,#31);
#33=IFCLOCALPLACEMENT(#26,#32);
#34=IFCCARTESIANPOINT((0.,0.));
#35=IFCCARTESIANPOINT((9000.,0.));
#36=IFCCARTESIANPOINT((9000.,5000.));
#37=IFCCARTESIANPOINT((0.,5000.));
#38=IFCCARTESIANPOINT((0.,0.));
#39=IFCPOLYLINE((#34,#35,#36,#37,#38));
#40=IFCARBITRARYCLOSEDPROFILEDEF(.AREA.,$,#39);
#41=IFCCARTESIANPOINT((0.,0.,0.));
#42=IFCDIRECTION((0.,0.,1.));
#43=IFCDIRECTION((1.,0.,0.));
#44=IFCAXIS2PLACEMENT3D(#41,#42,#43);
#45=IFCDIRECTION((0.,0.,1.));
#46=IFCEXTRUDEDAREASOLID(#40,#44,#45,150.);
#47=IFCSHAPEREPRESENTATION(#16,'Body','SweptSolid',(#46));
#48=IFCPRODUCTDEFINITIONSHAPE($,$,(#47));
#49=IFCSLAB('25GN0o6D5D2Bqtf2Cme$Ry',#6,'Door Suite Floor',$,$,#33,#48,$,.FLOOR.);
#50=IFCCARTESIANPOINT((0.,0.,0.));
#51=IFCDIRECTION((0.,0.,1.));
#52=IFCDIRECTION((1.,0.,0.));
#53=IFCAXIS2PLACEMENT3D(#50,#51,#52);
#54=IFCLOCALPLACEMENT(#26,#53);
#55=IFCCARTESIANPOINT((0.,0.));
#56=IFCCARTESIANPOINT((9000.,0.));
#57=IFCCARTESIANPOINT((9000.,200.));
#58=IFCCARTESIANPOINT((0.,200.));
#59=IFCCARTESIANPOINT((0.,0.));
#60=IFCPOLYLINE((#55,#56,#57,#58,#59));
#61=IFCARBITRARYCLOSEDPROFILEDEF(.AREA.,$,#60);
#62=IFCCARTESIANPOINT((0.,0.,0.));
#63=IFCDIRECTION((0.,0.,1.));
#64=IFCDIRECTION((1.,0.,0.));
#65=IFCAXIS2PLACEMENT3D(#62,#63,#64);
#66=IFCDIRECTION((0.,0.,1.));
#67=IFCEXTRUDEDAREASOLID(#61,#65,#66,3000.);
#68=IFCSHAPEREPRESENTATION(#16,'Body','SweptSolid',(#67));
#69=IFCPRODUCTDEFINITIONSHAPE($,$,(#68));
#70=IFCWALL('1LWvOZyLbC9viJufmt5h1b',#6,'Door Suite Wall South',$,$,#54,#69,$);
#71=IFCCARTESIANPOINT((0.,4800.,0.));
#72=IFCDIRECTION((0.,0.,1.));
#73=IFCDIRECTION((1.,0.,0.));
#74=IFCAXIS2PLACEMENT3D(#71,#72,#73);
#75=IFCLOCALPLACEMENT(#26,#74);
#76=IFCCARTESIANPOINT((0.,0.));
#77=IFCCARTESIANPOINT((9000.,0.));
#78=IFCCARTESIANPOINT((9000.,200.));
#79=IFCCARTESIANPOINT((0.,200.));
#80=IFCCARTESIANPOINT((0.,0.));
#81=IFCPOLYLINE((#76,#77,#78,#79,#80));
#82=IFCARBITRARYCLOSEDPROFILEDEF(.AREA.,$,#81);
#83=IFCCARTESIANPOINT((0.,0.,0.));
#84=IFCDIRECTION((0.,0.,1.));
#85=IFCDIRECTION((1.,0.,0.));
#86=IFCAXIS2PLACEMENT3D(#83,#84,#85);
#87=IFCDIRECTION((0.,0.,1.));
#88=IFCEXTRUDEDAREASOLID(#82,#86,#87,3000.);
#89=IFCSHAPEREPRESENTATION(#16,'Body','SweptSolid',(#88));
#90=IFCPRODUCTDEFINITIONSHAPE($,$,(#89));
#91=IFCWALL('3Nd4zgZFX9vBcMgv9TcKu0',#6,'Door Suite Wall North',$,$,#75,#90,$);
#92=IFCCARTESIANPOINT((0.,0.,0.));
#93=IFCDIRECTION((0.,0.,1.));
#94=IFCDIRECTION((1.,0.,0.));
#95=IFCAXIS2PLACEMENT3D(#92,#93,#94);
#96=IFCLOCALPLACEMENT(#26,#95);
#97=IFCCARTESIANPOINT((0.,0.));
#98=IFCCARTESIANPOINT((200.,0.));
#99=IFCCARTESIANPOINT((200.,5000.));
#100=IFCCARTESIANPOINT((0.,5000.));
#101=IFCCARTESIANPOINT((0.,0.));
#102=IFCPOLYLINE((#97,#98,#99,#100,#101));
#103=IFCARBITRARYCLOSEDPROFILEDEF(.AREA.,$,#102);
#104=IFCCARTESIANPOINT((0.,0.,0.));
#105=IFCDIRECTION((0.,0.,1.));
#106=IFCDIRECTION((1.,0.,0.));
#107=IFCAXIS2PLACEMENT3D(#104,#105,#106);
#108=IFCDIRECTION((0.,0.,1.));
#109=IFCEXTRUDEDAREASOLID(#103,#107,#108,3000.);
#110=IFCSHAPEREPRESENTATION(#16,'Body','SweptSolid',(#109));
#111=IFCPRODUCTDEFINITIONSHAPE($,$,(#110));
#112=IFCWALL('20sk34E0z9GOmnLq9rI$$3',#6,'Door Suite Wall West',$,$,#96,#111,$);
#113=IFCCARTESIANPOINT((8800.,0.,0.));
#114=IFCDIRECTION((0.,0.,1.));
#115=IFCDIRECTION((1.,0.,0.));
#116=IFCAXIS2PLACEMENT3D(#113,#114,#115);
#117=IFCLOCALPLACEMENT(#26,#116);
#118=IFCCARTESIANPOINT((0.,0.));
#119=IFCCARTESIANPOINT((200.,0.));
#120=IFCCARTESIANPOINT((200.,5000.));
#121=IFCCARTESIANPOINT((0.,5000.));
#122=IFCCARTESIANPOINT((0.,0.));
#123=IFCPOLYLINE((#118,#119,#120,#121,#122));
#124=IFCARBITRARYCLOSEDPROFILEDEF(.AREA.,$,#123);
#125=IFCCARTESIANPOINT((0.,0.,0.));
#126=IFCDIRECTION((0.,0.,1.));
#127=IFCDIRECTION((1.,0.,0.));
#128=IFCAXIS2PLACEMENT3D(#125,#126,#127);
#129=IFCDIRECTION((0.,0.,1.));
#130=IFCEXTRUDEDAREASOLID(#124,#128,#129,3000.);
#131=IFCSHAPEREPRESENTATION(#16,'Body','SweptSolid',(#130));
#132=IFCPRODUCTDEFINITIONSHAPE($,$,(#131));
#133=IFCWALL('1wg9SlC3z5r9iTwQRctcB0',#6,'Door Suite Wall East',$,$,#117,#132,$);
#134=IFCCARTESIANPOINT((2900.,0.,0.));
#135=IFCDIRECTION((0.,0.,1.));
#136=IFCDIRECTION((1.,0.,0.));
#137=IFCAXIS2PLACEMENT3D(#134,#135,#136);
#138=IFCLOCALPLACEMENT(#26,#137);
#139=IFCCARTESIANPOINT((0.,0.));
#140=IFCCARTESIANPOINT((200.,0.));
#141=IFCCARTESIANPOINT((200.,5000.));
#142=IFCCARTESIANPOINT((0.,5000.));
#143=IFCCARTESIANPOINT((0.,0.));
#144=IFCPOLYLINE((#139,#140,#141,#142,#143));
#145=IFCARBITRARYCLOSEDPROFILEDEF(.AREA.,$,#144);
#146=IFCCARTESIANPOINT((0.,0.,0.));
#147=IFCDIRECTION((0.,0.,1.));
#148=IFCDIRECTION((1.,0.,0.));
#149=IFCAXIS2PLACEMENT3D(#146,#147,#148);
#150=IFCDIRECTION((0.,0.,1.));
#151=IFCEXTRUDEDAREASOLID(#145,#149,#150,3000.);
#152=IFCSHAPEREPRESENTATION(#16,'Body','SweptSolid',(#151));
#153=IFCPRODUCTDEFINITIONSHAPE($,$,(#152));
#154=IFCWALL('3ng5w3I9947hxpYpS9Uq_K',#6,'Door Suite Partition 1',$,$,#138,#153,$);
#155=IFCCARTESIANPOINT((5900.,0.,0.));
#156=IFCDIRECTION((0.,0.,1.));
#157=IFCDIRECTION((1.,0.,0.));
#158=IFCAXIS2PLACEMENT3D(#155,#156,#157);
#159=IFCLOCALPLACEMENT(#26,#158);
#160=IFCCARTESIANPOINT((0.,0.));
#161=IFCCARTESIANPOINT((200.,0.));
#162=IFCCARTESIANPOINT((200.,5000.));
#163=IFCCARTESIANPOINT((0.,5000.));
#164=IFCCARTESIANPOINT((0.,0.));
#165=IFCPOLYLINE((#160,#161,#162,#163,#164));
#166=IFCARBITRARYCLOSEDPROFILEDEF(.AREA.,$,#165);
#167=IFCCARTESIANPOINT((0.,0.,0.));
#168=IFCDIRECTION((0.,0.,1.));
#169=IFCDIRECTION((1.,0.,0.));
#170=IFCAXIS2PLACEMENT3D(#167,#168,#169);
#171=IFCDIRECTION((0.,0.,1.));
#172=IFCEXTRUDEDAREASOLID(#166,#170,#171,3000.);
#173=IFCSHAPEREPRESENTATION(#16,'Body','SweptSolid',(#172));
#174=IFCPRODUCTDEFINITIONSHAPE($,$,(#173));
#175=IFCWALL('2t0oBiRrz8GQnzZqBOPF8W',#6,'Door Suite Partition 2',$,$,#159,#174,$);
#176=IFCCARTESIANPOINT((200.,200.,0.));
#177=IFCDIRECTION((0.,0.,1.));
#178=IFCDIRECTION((1.,0.,0.));
#179=IFCAXIS2PLACEMENT3D(#176,#177,#178);
#180=IFCLOCALPLACEMENT(#26,#179);
#181=IFCCARTESIANPOINT((0.,0.));
#182=IFCCARTESIANPOINT((2600.,0.));
#183=IFCCARTESIANPOINT((2600.,4600.));
#184=IFCCARTESIANPOINT((0.,4600.));
#185=IFCCARTESIANPOINT((0.,0.));
#186=IFCPOLYLINE((#181,#182,#183,#184,#185));
#187=IFCARBITRARYCLOSEDPROFILEDEF(.AREA.,$,#186);
#188=IFCCARTESIANPOINT((0.,0.,0.));
#189=IFCDIRECTION((0.,0.,1.));
#190=IFCDIRECTION((1.,0.,0.));
#191=IFCAXIS2PLACEMENT3D(#188,#189,#190);
#192=IFCDIRECTION((0.,0.,1.));
#193=IFCEXTRUDEDAREASOLID(#187,#191,#192,2800.);
#194=IFCSHAPEREPRESENTATION(#16,'Body','SweptSolid',(#193));
#195=IFCPRODUCTDEFINITIONSHAPE($,$,(#194));
#196=IFCSPACE('1L0m_EO2HB9v2wykBfFHIq',#6,'Room A',$,$,#180,#195,'Room A',.ELEMENT.,.INTERNAL.,$);
#197=IFCCARTESIANPOINT((3200.,200.,0.));
#198=IFCDIRECTION((0.,0.,1.));
#199=IFCDIRECTION((1.,0.,0.));
#200=IFCAXIS2PLACEMENT3D(#197,#198,#199);
#201=IFCLOCALPLACEMENT(#26,#200);
#202=IFCCARTESIANPOINT((0.,0.));
#203=IFCCARTESIANPOINT((2600.,0.));
#204=IFCCARTESIANPOINT((2600.,4600.));
#205=IFCCARTESIANPOINT((0.,4600.));
#206=IFCCARTESIANPOINT((0.,0.));
#207=IFCPOLYLINE((#202,#203,#204,#205,#206));
#208=IFCARBITRARYCLOSEDPROFILEDEF(.AREA.,$,#207);
#209=IFCCARTESIANPOINT((0.,0.,0.));
#210=IFCDIRECTION((0.,0.,1.));
#211=IFCDIRECTION((1.,0.,0.));
#212=IFCAXIS2PLACEMENT3D(#209,#210,#211);
#213=IFCDIRECTION((0.,0.,1.));
#214=IFCEXTRUDEDAREASOLID(#208,#212,#213,2800.);
#215=IFCSHAPEREPRESENTATION(#16,'Body','SweptSolid',(#214));
#216=IFCPRODUCTDEFINITIONSHAPE($,$,(#215));
#217=IFCSPACE('3UxAlejH1AOQqyFwsxxAJH',#6,'Room B',$,$,#201,#216,'Room B',.ELEMENT.,.INTERNAL.,$);
#218=IFCCARTESIANPOINT((6200.,200.,0.));
#219=IFCDIRECTION((0.,0.,1.));
#220=IFCDIRECTION((1.,0.,0.));
#221=IFCAXIS2PLACEMENT3D(#218,#219,#220);
#222=IFCLOCALPLACEMENT(#26,#221);
#223=IFCCARTESIANPOINT((0.,0.));
#224=IFCCARTESIANPOINT((2600.,0.));
#225=IFCCARTESIANPOINT((2600.,4600.));
#226=IFCCARTESIANPOINT((0.,4600.));
#227=IFCCARTESIANPOINT((0.,0.));
#228=IFCPOLYLINE((#223,#224,#225,#226,#227));
#229=IFCARBITRARYCLOSEDPROFILEDEF(.AREA.,$,#228);
#230=IFCCARTESIANPOINT((0.,0.,0.));
#231=IFCDIRECTION((0.,0.,1.));
#232=IFCDIRECTION((1.,0.,0.));
#233=IFCAXIS2PLACEMENT3D(#230,#231,#232);
#234=IFCDIRECTION((0.,0.,1.));
#235=IFCEXTRUDEDAREASOLID(#229,#233,#234,2800.);
#236=IFCSHAPEREPRESENTATION(#16,'Body','SweptSolid',(#235));
#237=IFCPRODUCTDEFINITIONSHAPE($,$,(#236));
#238=IFCSPACE('2gOAfTxr9CVQ2E$JdMMLSW',#6,'Room C',$,$,#222,#237,'Room C',.ELEMENT.,.INTERNAL.,$);
#239=IFCCARTESIANPOINT((1000.,0.,0.));
#240=IFCDIRECTION((0.,0.,1.));
#241=IFCDIRECTION((1.,0.,0.));
#242=IFCAXIS2PLACEMENT3D(#239,#240,#241);
#243=IFCLOCALPLACEMENT(#26,#242);
#244=IFCCARTESIANPOINT((0.,0.));
#245=IFCCARTESIANPOINT((900.,0.));
#246=IFCCARTESIANPOINT((900.,150.));
#247=IFCCARTESIANPOINT((0.,150.));
#248=IFCCARTESIANPOINT((0.,0.));
#249=IFCPOLYLINE((#244,#245,#246,#247,#248));
#250=IFCARBITRARYCLOSEDPROFILEDEF(.AREA.,$,#249);
#251=IFCCARTESIANPOINT((0.,0.,0.));
#252=IFCDIRECTION((0.,0.,1.));
#253=IFCDIRECTION((1.,0.,0.));
#254=IFCAXIS2PLACEMENT3D(#251,#252,#253);
#255=IFCDIRECTION((0.,0.,1.));
#256=IFCEXTRUDEDAREASOLID(#250,#254,#255,2100.);
#257=IFCSHAPEREPRESENTATION(#16,'Body','SweptSolid',(#256));
#258=IFCPRODUCTDEFINITIONSHAPE($,$,(#257));
#259=IFCDOOR('2uDha8sN94kB5hezWYE3FF',#6,'Door Suite Door 1',$,$,#243,#258,$,2100.,900.);
#260=IFCCARTESIANPOINT((2900.,1800.,0.));
#261=IFCDIRECTION((0.,0.,1.));
#262=IFCDIRECTION((1.,0.,0.));
#263=IFCAXIS2PLACEMENT3D(#260,#261,#262);
#264=IFCLOCALPLACEMENT(#26,#263);
#265=IFCCARTESIANPOINT((0.,0.));
#266=IFCCARTESIANPOINT((900.,0.));
#267=IFCCARTESIANPOINT((900.,150.));
#268=IFCCARTESIANPOINT((0.,150.));
#269=IFCCARTESIANPOINT((0.,0.));
#270=IFCPOLYLINE((#265,#266,#267,#268,#269));
#271=IFCARBITRARYCLOSEDPROFILEDEF(.AREA.,$,#270);
#272=IFCCARTESIANPOINT((0.,0.,0.));
#273=IFCDIRECTION((0.,0.,1.));
#274=IFCDIRECTION((1.,0.,0.));
#275=IFCAXIS2PLACEMENT3D(#272,#273,#274);
#276=IFCDIRECTION((0.,0.,1.));
#277=IFCEXTRUDEDAREASOLID(#271,#275,#276,2100.);
#278=IFCSHAPEREPRESENTATION(#16,'Body','SweptSolid',(#277));
#279=IFCPRODUCTDEFINITIONSHAPE($,$,(#278));
#280=IFCDOOR('132Rl4TzP7iOI7Qhnc9VjP',#6,'Door Suite Door 2',$,$,#264,#279,$,2100.,900.);
#281=IFCCARTESIANPOINT((5900.,1800.,0.));
#282=IFCDIRECTION((0.,0.,1.));
#283=IFCDIRECTION((1.,0.,0.));
#284=IFCAXIS2PLACEMENT3D(#281,#282,#283);
#285=IFCLOCALPLACEMENT(#26,#284);
#286=IFCCARTESIANPOINT((0.,0.));
#287=IFCCARTESIANPOINT((900.,0.));
#288=IFCCARTESIANPOINT((900.,150.));
#289=IFCCARTESIANPOINT((0.,150.));
#290=IFCCARTESIANPOINT((0.,0.));
#291=IFCPOLYLINE((#286,#287,#288,#289,#290));
#292=IFCARBITRARYCLOSEDPROFILEDEF(.AREA.,$,#291);
#293=IFCCARTESIANPOINT((0.,0.,0.));
#294=IFCDIRECTION((0.,0.,1.));
#295=IFCDIRECTION((1.,0.,0.));
#296=IFCAXIS2PLACEMENT3D(#293,#294,#295);
#297=IFCDIRECTION((0.,0.,1.));
#298=IFCEXTRUDEDAREASOLID(#292,#296,#297,2100.);
#299=IFCSHAPEREPRESENTATION(#16,'Body','SweptSolid',(#298));
#300=IFCPRODUCTDEFINITIONSHAPE($,$,(#299));
#301=IFCDOOR('3tE6qDhK55xg4wxjLhCpmF',#6,'Door Suite Door 3',$,$,#285,#300,$,2100.,900.);
#302=IFCCARTESIANPOINT((7600.,0.,0.));
#303=IFCDIRECTION((0.,0.,1.));
#304=IFCDIRECTION((1.,0.,0.));
#305=IFCAXIS2PLACEMENT3D(#302,#303,#304);
#306=IFCLOCALPLACEMENT(#26,#305);
#307=IFCCARTESIANPOINT((0.,0.));
#308=IFCCARTESIANPOINT((900.,0.));
#309=IFCCARTESIANPOINT((900.,150.));
#310=IFCCARTESIANPOINT((0.,150.));
#311=IFCCARTESIANPOINT((0.,0.));
#312=IFCPOLYLINE((#307,#308,#309,#310,#311));
#313=IFCARBITRARYCLOSEDPROFILEDEF(.AREA.,$,#312);
#314=IFCCARTESIANPOINT((0.,0.,0.));
#315=IFCDIRECTION((0.,0.,1.));
#316=IFCDIRECTION((1.,0.,0.));
#317=IFCAXIS2PLACEMENT3D(#314,#315,#316);
#318=IFCDIRECTION((0.,0.,1.));
#319=IFCEXTRUDEDAREASOLID(#313,#317,#318,2100.);
#320=IFCSHAPEREPRESENTATION(#16,'Body','SweptSolid',(#319));
#321=IFCPRODUCTDEFINITIONSHAPE($,$,(#320));
#322=IFCDOOR('3cFhEKrAT5RvvEOzY88yUp',#6,'Door Suite Door 4',$,$,#306,#321,$,2100.,900.);
#323=IFCRELCONTAINEDINSPATIALSTRUCTURE('0L27Xjk7r4F9xUDoqjNoFP',#6,$,$,(#49,#70,#91,#112,#133,#154,#175,#196,#217,#238,#259,#280,#301,#322),#27);
ENDSEC;
END-ISO-10303-21;
