ISO-10303-21;
HEADER;
FILE_DESCRIPTION (( 'STEP AP203', 'EW_ACAD_SW_ABQ_09', 'FROM_stage1_profile.dxf', 'SOLIDWORKS_TO_ABAQUS' ),
    '1' );
FILE_NAME ('stage2_geometry.step',
    '2026-08-01T03:36:05',
    ( '' ),
    ( 'Administrator' ),
    'SwSTEP 2.0',
    'SolidWorks 2025',
    '' );
FILE_SCHEMA (( 'CONFIG_CONTROL_DESIGN' ));
ENDSEC;

DATA;
#1 = PERSON_AND_ORGANIZATION ( #725, #952 ) ;
#2 = ORIENTED_EDGE ( 'NONE', *, *, #685, .F. ) ;
#3 = CARTESIAN_POINT ( 'NONE',  ( 70.00000000000000000, 43.00000000000000000, 0.000000000000000000 ) ) ;
#4 = ADVANCED_FACE ( 'NONE', ( #548 ), #899, .T. ) ;
#5 = EDGE_LOOP ( 'NONE', ( #445, #60, #526, #780 ) ) ;
#6 = DIRECTION ( 'NONE',  ( -0.000000000000000000, -0.000000000000000000, -1.000000000000000000 ) ) ;
#7 = APPROVAL_DATE_TIME ( #784, #153 ) ;
#8 = FACE_OUTER_BOUND ( 'NONE', #495, .T. ) ;
#9 = FACE_OUTER_BOUND ( 'NONE', #594, .T. ) ;
#10 = DATE_AND_TIME ( #872, #490 ) ;
#11 = AXIS2_PLACEMENT_3D ( 'NONE', #621, #6, #878 ) ;
#12 = PLANE ( 'NONE',  #91 ) ;
#13 = VECTOR ( 'NONE', #467, 1000.000000000000000 ) ;
#14 = APPROVAL_PERSON_ORGANIZATION ( #349, #153, #896 ) ;
#15 = DIRECTION ( 'NONE',  ( 0.000000000000000000, 0.000000000000000000, 1.000000000000000000 ) ) ;
#16 = EDGE_CURVE ( 'NONE', #433, #431, #960, .T. ) ;
#17 = CARTESIAN_POINT ( 'NONE',  ( 115.0000000000000000, 35.00000000000000000, 10.00000000000000000 ) ) ;
#18 = CARTESIAN_POINT ( 'NONE',  ( 12.00000000000000000, 15.00000000000000000, 0.000000000000000000 ) ) ;
#19 = CARTESIAN_POINT ( 'NONE',  ( 15.00000000000000000, 55.00000000000000000, 0.000000000000000000 ) ) ;
#20 = LINE ( 'NONE', #1069, #723 ) ;
#21 = CARTESIAN_POINT ( 'NONE',  ( 70.00000000000000000, 60.00000000000000000, -1.000000000000000000 ) ) ;
#22 = PLANE ( 'NONE',  #104 ) ;
#23 = FACE_OUTER_BOUND ( 'NONE', #851, .T. ) ;
#24 = ADVANCED_FACE ( 'NONE', ( #606 ), #164, .F. ) ;
#25 = CARTESIAN_POINT ( 'NONE',  ( 15.00000000000000000, 15.00000000000000000, 9.999999999999998224 ) ) ;
#26 = EDGE_CURVE ( 'NONE', #346, #767, #854, .T. ) ;
#27 = CIRCLE ( 'NONE', #176, 2.999999999999999112 ) ;
#29 = VECTOR ( 'NONE', #700, 1000.000000000000000 ) ;
#28 = LINE ( 'NONE', #992, #364 ) ;
#30 = ORIENTED_EDGE ( 'NONE', *, *, #353, .T. ) ;
#31 = AXIS2_PLACEMENT_3D ( 'NONE', #141, #572, #929 ) ;
#32 = DIRECTION ( 'NONE',  ( 0.000000000000000000, 0.000000000000000000, 1.000000000000000000 ) ) ;
#33 = LINE ( 'NONE', #635, #623 ) ;
#34 = LINE ( 'NONE', #333, #102 ) ;
#35 = CARTESIAN_POINT ( 'NONE',  ( 140.0000000000000000, 60.00000000000000000, 0.000000000000000000 ) ) ;
#36 = CARTESIAN_POINT ( 'NONE',  ( 15.00000000000000000, 55.00000000000000000, 0.000000000000000000 ) ) ;
#37 = EDGE_CURVE ( 'NONE', #717, #1107, #817, .T. ) ;
#38 = ORIENTED_EDGE ( 'NONE', *, *, #368, .F. ) ;
#39 = VERTEX_POINT ( 'NONE', #641 ) ;
#40 = EDGE_CURVE ( 'NONE', #932, #150, #365, .T. ) ;
#41 = CYLINDRICAL_SURFACE ( 'NONE', #68, 3.000000000000002665 ) ;
#42 = CARTESIAN_POINT ( 'NONE',  ( 0.000000000000000000, 35.00000000000000000, 10.00000000000000000 ) ) ;
#43 = ORIENTED_EDGE ( 'NONE', *, *, #523, .F. ) ;
#44 = VECTOR ( 'NONE', #547, 1000.000000000000000 ) ;
#45 = CARTESIAN_POINT ( 'NONE',  ( 125.0000000000000000, 15.00000000000000000, 9.999999999999998224 ) ) ;
#46 = ORIENTED_EDGE ( 'NONE', *, *, #1131, .F. ) ;
#47 = CARTESIAN_POINT ( 'NONE',  ( 125.0000000000000000, 55.00000000000000000, 9.999999999999998224 ) ) ;
#48 = EDGE_CURVE ( 'NONE', #1116, #944, #33, .T. ) ;
#49 = APPLICATION_CONTEXT ( 'configuration controlled 3d designs of mechanical parts and assemblies' ) ;
#50 = EDGE_LOOP ( 'NONE', ( #298, #682, #807, #423 ) ) ;
#51 = ORIENTED_EDGE ( 'NONE', *, *, #111, .T. ) ;
#52 = CARTESIAN_POINT ( 'NONE',  ( 73.00000000000001421, 10.00000000000000000, 0.000000000000000000 ) ) ;
#53 = CARTESIAN_POINT ( 'NONE',  ( 95.00000000000000000, 35.00000000000000000, 8.000000000000000000 ) ) ;
#54 = CARTESIAN_POINT ( 'NONE',  ( 10.00000000000000000, 10.00000000000000000, 0.000000000000000000 ) ) ;
#55 = ORIENTED_EDGE ( 'NONE', *, *, #792, .T. ) ;
#56 = ORIENTED_EDGE ( 'NONE', *, *, #984, .F. ) ;
#57 = DIRECTION ( 'NONE',  ( 0.000000000000000000, 0.000000000000000000, 1.000000000000000000 ) ) ;
#58 = CARTESIAN_POINT ( 'NONE',  ( 15.00000000000000000, 15.00000000000000000, 0.000000000000000000 ) ) ;
#59 = CARTESIAN_POINT ( 'NONE',  ( 53.00000000000000711, 27.00000000000000355, -1.000000000000000000 ) ) ;
#60 = ORIENTED_EDGE ( 'NONE', *, *, #912, .T. ) ;
#61 = EDGE_CURVE ( 'NONE', #231, #568, #540, .T. ) ;
#62 = EDGE_CURVE ( 'NONE', #1110, #321, #20, .T. ) ;
#63 = ORIENTED_EDGE ( 'NONE', *, *, #810, .F. ) ;
#64 = ORIENTED_EDGE ( 'NONE', *, *, #880, .T. ) ;
#65 = AXIS2_PLACEMENT_3D ( 'NONE', #252, #167, #884 ) ;
#66 = CARTESIAN_POINT ( 'NONE',  ( 87.00000000000001421, 27.00000000000000355, 0.000000000000000000 ) ) ;
#67 = LINE ( 'NONE', #859, #856 ) ;
#68 = AXIS2_PLACEMENT_3D ( 'NONE', #898, #811, #652 ) ;
#69 = VECTOR ( 'NONE', #555, 1000.000000000000000 ) ;
#70 = ORIENTED_EDGE ( 'NONE', *, *, #1083, .T. ) ;
#71 = EDGE_LOOP ( 'NONE', ( #845, #38 ) ) ;
#72 = EDGE_LOOP ( 'NONE', ( #215, #855 ) ) ;
#73 = DIRECTION ( 'NONE',  ( 1.000000000000000000, 0.000000000000000000, 0.000000000000000000 ) ) ;
#74 = CARTESIAN_POINT ( 'NONE',  ( 87.00000000000001421, 43.00000000000000000, -1.000000000000000000 ) ) ;
#75 = ORIENTED_EDGE ( 'NONE', *, *, #236, .F. ) ;
#76 = CARTESIAN_POINT ( 'NONE',  ( 87.00000000000001421, 27.00000000000000355, -1.000000000000000000 ) ) ;
#77 = APPROVAL ( #800, 'UNSPECIFIED' ) ;
#78 = ORIENTED_EDGE ( 'NONE', *, *, #997, .T. ) ;
#79 = EDGE_CURVE ( 'NONE', #762, #126, #630, .T. ) ;
#80 = DIRECTION ( 'NONE',  ( -1.000000000000000000, 0.000000000000000000, 0.000000000000000000 ) ) ;
#81 = ORIENTED_EDGE ( 'NONE', *, *, #564, .F. ) ;
#82 = LINE ( 'NONE', #351, #267 ) ;
#83 = ORIENTED_EDGE ( 'NONE', *, *, #16, .T. ) ;
#84 = CARTESIAN_POINT ( 'NONE',  ( 25.00000000000000711, 53.00000000000000711, 8.000000000000000000 ) ) ;
#85 = DIRECTION ( 'NONE',  ( 1.000000000000000000, 0.000000000000000000, 0.000000000000000000 ) ) ;
#86 = AXIS2_PLACEMENT_3D ( 'NONE', #697, #615, #258 ) ;
#87 = EDGE_CURVE ( 'NONE', #964, #675, #225, .T. ) ;
#88 = VERTEX_POINT ( 'NONE', #276 ) ;
#89 = CARTESIAN_POINT ( 'NONE',  ( 0.000000000000000000, 60.00000000000000711, 0.000000000000000000 ) ) ;
#90 = VECTOR ( 'NONE', #480, 1000.000000000000000 ) ;
#91 = AXIS2_PLACEMENT_3D ( 'NONE', #1046, #444, #886 ) ;
#92 = APPROVAL_PERSON_ORGANIZATION ( #1, #77, #274 ) ;
#93 = ORIENTED_EDGE ( 'NONE', *, *, #570, .T. ) ;
#94 = LINE ( 'NONE', #870, #891 ) ;
#95 = MECHANICAL_CONTEXT ( 'NONE', #49, 'mechanical' ) ;
#96 = DIRECTION ( 'NONE',  ( 0.000000000000000000, 0.000000000000000000, -1.000000000000000000 ) ) ;
#97 = DIRECTION ( 'NONE',  ( -1.000000000000000000, 0.000000000000000000, 0.000000000000000000 ) ) ;
#98 = APPROVAL_STATUS ( 'not_yet_approved' ) ;
#99 = CARTESIAN_POINT ( 'NONE',  ( 67.00000000000000000, 60.00000000000000000, 9.999999999999998224 ) ) ;
#100 = EDGE_CURVE ( 'NONE', #661, #1031, #576, .T. ) ;
#101 = FACE_BOUND ( 'NONE', #443, .T. ) ;
#102 = VECTOR ( 'NONE', #227, 1000.000000000000000 ) ;
#103 = DIRECTION ( 'NONE',  ( -0.000000000000000000, -0.000000000000000000, -1.000000000000000000 ) ) ;
#104 = AXIS2_PLACEMENT_3D ( 'NONE', #187, #460, #802 ) ;
#105 = VECTOR ( 'NONE', #1114, 1000.000000000000000 ) ;
#106 = AXIS2_PLACEMENT_3D ( 'NONE', #975, #358, #786 ) ;
#107 = DIRECTION ( 'NONE',  ( 0.000000000000000000, 0.000000000000000000, 1.000000000000000000 ) ) ;
#108 = CALENDAR_DATE ( 2026, 1, 8 ) ;
#109 = LINE ( 'NONE', #462, #489 ) ;
#110 = FACE_OUTER_BOUND ( 'NONE', #251, .T. ) ;
#111 = EDGE_CURVE ( 'NONE', #39, #919, #177, .T. ) ;
#112 = LINE ( 'NONE', #476, #797 ) ;
#113 = DIRECTION ( 'NONE',  ( 1.000000000000000000, 0.000000000000000000, 0.000000000000000000 ) ) ;
#114 = CARTESIAN_POINT ( 'NONE',  ( 130.0000000000000000, 0.000000000000000000, 10.00000000000000000 ) ) ;
#115 = DIRECTION ( 'NONE',  ( -0.000000000000000000, 1.000000000000000000, 0.000000000000000000 ) ) ;
#116 = DIRECTION ( 'NONE',  ( -0.000000000000000000, 1.000000000000000000, 0.000000000000000000 ) ) ;
#117 = EDGE_CURVE ( 'NONE', #760, #1132, #902, .T. ) ;
#118 = AXIS2_PLACEMENT_3D ( 'NONE', #403, #312, #132 ) ;
#120 = AXIS2_PLACEMENT_3D ( 'NONE', #163, #521, #882 ) ;
#119 = FACE_BOUND ( 'NONE', #1127, .T. ) ;
#121 = DIRECTION ( 'NONE',  ( 1.000000000000000000, 0.000000000000000000, 0.000000000000000000 ) ) ;
#122 = EDGE_CURVE ( 'NONE', #332, #155, #982, .T. ) ;
#123 = ORIENTED_EDGE ( 'NONE', *, *, #505, .T. ) ;
#124 = DIRECTION ( 'NONE',  ( 0.000000000000000000, 0.000000000000000000, 1.000000000000000000 ) ) ;
#125 = DIRECTION ( 'NONE',  ( 1.000000000000000000, 0.000000000000000000, 0.000000000000000000 ) ) ;
#126 = VERTEX_POINT ( 'NONE', #905 ) ;
#127 = PLANE ( 'NONE',  #118 ) ;
#128 = EDGE_CURVE ( 'NONE', #237, #488, #206, .T. ) ;
#129 = CARTESIAN_POINT ( 'NONE',  ( 70.00000000000000000, 17.00000000000000355, 10.00000000000000000 ) ) ;
#130 = ORIENTED_EDGE ( 'NONE', *, *, #751, .T. ) ;
#131 = VECTOR ( 'NONE', #742, 1000.000000000000000 ) ;
#132 = DIRECTION ( 'NONE',  ( 0.000000000000000000, 0.000000000000000000, 1.000000000000000000 ) ) ;
#133 = AXIS2_PLACEMENT_3D ( 'NONE', #205, #107, #916 ) ;
#134 = FACE_OUTER_BOUND ( 'NONE', #1008, .T. ) ;
#135 = CYLINDRICAL_SURFACE ( 'NONE', #268, 10.00000000000000000 ) ;
#136 = ORIENTED_EDGE ( 'NONE', *, *, #914, .F. ) ;
#137 = CARTESIAN_POINT ( 'NONE',  ( 128.0000000000000000, 55.00000000000000000, 9.999999999999998224 ) ) ;
#138 = ORIENTED_EDGE ( 'NONE', *, *, #1118, .F. ) ;
#139 = CARTESIAN_POINT ( 'NONE',  ( 122.0000000000000000, 55.00000000000000000, 0.000000000000000000 ) ) ;
#140 = EDGE_CURVE ( 'NONE', #321, #847, #109, .T. ) ;
#141 = CARTESIAN_POINT ( 'NONE',  ( 125.0000000000000000, 55.00000000000000000, 9.999999999999998224 ) ) ;
#142 = EDGE_CURVE ( 'NONE', #488, #642, #716, .T. ) ;
#143 = ORIENTED_EDGE ( 'NONE', *, *, #391, .T. ) ;
#144 = EDGE_LOOP ( 'NONE', ( #846, #161, #504, #835 ) ) ;
#145 = CARTESIAN_POINT ( 'NONE',  ( 70.00000000000000000, 0.000000000000000000, 10.00000000000000000 ) ) ;
#146 = DIRECTION ( 'NONE',  ( -0.000000000000000000, -0.000000000000000000, -1.000000000000000000 ) ) ;
#147 = ORIENTED_EDGE ( 'NONE', *, *, #792, .F. ) ;
#148 = VERTEX_POINT ( 'NONE', #1081 ) ;
#149 = VECTOR ( 'NONE', #269, 1000.000000000000000 ) ;
#150 = VERTEX_POINT ( 'NONE', #703 ) ;
#151 = CARTESIAN_POINT ( 'NONE',  ( 15.00000000000000000, 15.00000000000000000, -1.000000000000000000 ) ) ;
#152 = CARTESIAN_POINT ( 'NONE',  ( 10.00000000000000888, 0.000000000000000000, 0.000000000000000000 ) ) ;
#153 = APPROVAL ( #362, 'UNSPECIFIED' ) ;
#154 = VECTOR ( 'NONE', #550, 1000.000000000000000 ) ;
#155 = VERTEX_POINT ( 'NONE', #260 ) ;
#156 = CARTESIAN_POINT ( 'NONE',  ( 87.00000000000001421, 43.00000000000000000, 8.000000000000000000 ) ) ;
#157 = EDGE_CURVE ( 'NONE', #1031, #661, #1061, .T. ) ;
#158 = ORIENTED_EDGE ( 'NONE', *, *, #181, .F. ) ;
#159 = DIRECTION ( 'NONE',  ( -1.000000000000000000, -0.000000000000000000, 0.000000000000000000 ) ) ;
#160 = DIRECTION ( 'NONE',  ( 0.000000000000000000, 0.000000000000000000, 1.000000000000000000 ) ) ;
#161 = ORIENTED_EDGE ( 'NONE', *, *, #128, .T. ) ;
#162 = PRODUCT ( 'stage2_geometry', 'stage2_geometry', '', ( #95 ) ) ;
#163 = CARTESIAN_POINT ( 'NONE',  ( 15.00000000000000000, 15.00000000000000000, 9.999999999999998224 ) ) ;
#164 = CYLINDRICAL_SURFACE ( 'NONE', #833, 3.000000000000002665 ) ;
#165 = ORIENTED_EDGE ( 'NONE', *, *, #264, .T. ) ;
#166 = ADVANCED_FACE ( 'NONE', ( #1053 ), #449, .F. ) ;
#167 = DIRECTION ( 'NONE',  ( -0.000000000000000000, -0.000000000000000000, -1.000000000000000000 ) ) ;
#168 = PERSON_AND_ORGANIZATION ( #725, #952 ) ;
#169 = EDGE_LOOP ( 'NONE', ( #1028, #607 ) ) ;
#170 = CARTESIAN_POINT ( 'NONE',  ( 87.00000000000000000, 35.00000000000000000, 0.000000000000000000 ) ) ;
#171 = VERTEX_POINT ( 'NONE', #99 ) ;
#172 = DIRECTION ( 'NONE',  ( 1.000000000000000000, 0.000000000000000000, 0.000000000000000000 ) ) ;
#173 = CARTESIAN_POINT ( 'NONE',  ( 0.000000000000000000, 0.000000000000000000, 0.000000000000000000 ) ) ;
#174 = VECTOR ( 'NONE', #980, 1000.000000000000000 ) ;
#175 = DIRECTION ( 'NONE',  ( -1.000000000000000000, 0.000000000000000000, 0.000000000000000000 ) ) ;
#176 = AXIS2_PLACEMENT_3D ( 'NONE', #19, #649, #644 ) ;
#177 = CIRCLE ( 'NONE', #530, 10.00000000000000000 ) ;
#178 = AXIS2_PLACEMENT_3D ( 'NONE', #692, #609, #356 ) ;
#179 = ORIENTED_EDGE ( 'NONE', *, *, #294, .F. ) ;
#180 = CARTESIAN_POINT ( 'NONE',  ( 0.000000000000000000, 35.00000000000000000, 0.000000000000000000 ) ) ;
#181 = EDGE_CURVE ( 'NONE', #501, #932, #687, .T. ) ;
#182 = COORDINATED_UNIVERSAL_TIME_OFFSET ( 8, 0, .AHEAD. ) ;
#183 = LINE ( 'NONE', #1126, #282 ) ;
#184 = EDGE_CURVE ( 'NONE', #148, #717, #302, .T. ) ;
#185 = DIRECTION ( 'NONE',  ( 0.000000000000000000, 0.000000000000000000, 1.000000000000000000 ) ) ;
#186 = DIRECTION ( 'NONE',  ( 0.000000000000000000, 0.000000000000000000, 1.000000000000000000 ) ) ;
#187 = CARTESIAN_POINT ( 'NONE',  ( 70.00000000000000000, 17.00000000000000355, 8.000000000000000000 ) ) ;
#188 = CARTESIAN_POINT ( 'NONE',  ( 140.0000000000000000, 35.00000000000000000, 10.00000000000000000 ) ) ;
#189 = EDGE_CURVE ( 'NONE', #1020, #1107, #459, .T. ) ;
#190 = ADVANCED_BREP_SHAPE_REPRESENTATION ( 'stage2_geometry', ( #917, #1079 ), #1096 ) ;
#191 = DIRECTION ( 'NONE',  ( 0.000000000000000000, 0.000000000000000000, 1.000000000000000000 ) ) ;
#192 = CARTESIAN_POINT ( 'NONE',  ( 0.000000000000000000, 10.00000000000000178, 10.00000000000000000 ) ) ;
#193 = DIRECTION ( 'NONE',  ( -0.000000000000000000, -0.000000000000000000, -1.000000000000000000 ) ) ;
#194 = LINE ( 'NONE', #277, #1093 ) ;
#195 = EDGE_LOOP ( 'NONE', ( #574, #389, #311, #261 ) ) ;
#196 = ADVANCED_FACE ( 'NONE', ( #710 ), #790, .F. ) ;
#197 = CARTESIAN_POINT ( 'NONE',  ( 15.00000000000000000, 15.00000000000000000, -1.000000000000000000 ) ) ;
#198 = DIRECTION ( 'NONE',  ( -0.000000000000000000, -0.000000000000000000, -1.000000000000000000 ) ) ;
#199 = EDGE_LOOP ( 'NONE', ( #393, #805, #130, #70 ) ) ;
#200 = CARTESIAN_POINT ( 'NONE',  ( 130.0000000000000000, 60.00000000000000000, 0.000000000000000000 ) ) ;
#201 = PLANE ( 'NONE',  #832 ) ;
#202 = AXIS2_PLACEMENT_3D ( 'NONE', #1002, #729, #465 ) ;
#203 = VERTEX_POINT ( 'NONE', #868 ) ;
#204 = CIRCLE ( 'NONE', #224, 3.000000000000002665 ) ;
#206 = CIRCLE ( 'NONE', #1006, 10.00000000000000888 ) ;
#205 = CARTESIAN_POINT ( 'NONE',  ( 15.00000000000000000, 55.00000000000000000, 9.999999999999998224 ) ) ;
#207 = EDGE_LOOP ( 'NONE', ( #241, #376, #663, #924 ) ) ;
#208 = CYLINDRICAL_SURFACE ( 'NONE', #759, 2.999999999999999112 ) ;
#209 = EDGE_CURVE ( 'NONE', #292, #758, #965, .T. ) ;
#210 = ORIENTED_EDGE ( 'NONE', *, *, #999, .F. ) ;
#211 = CARTESIAN_POINT ( 'NONE',  ( 125.0000000000000000, 15.00000000000000000, -1.000000000000000000 ) ) ;
#212 = VERTEX_POINT ( 'NONE', #1056 ) ;
#213 = CARTESIAN_POINT ( 'NONE',  ( 70.00000000000000000, 70.00000000000000000, 10.00000000000000000 ) ) ;
#214 = ORIENTED_EDGE ( 'NONE', *, *, #262, .F. ) ;
#215 = ORIENTED_EDGE ( 'NONE', *, *, #968, .F. ) ;
#216 = CARTESIAN_POINT ( 'NONE',  ( 128.0000000000000000, 15.00000000000000000, 0.000000000000000000 ) ) ;
#217 = DIRECTION ( 'NONE',  ( -0.000000000000000000, -0.000000000000000000, -1.000000000000000000 ) ) ;
#218 = DIRECTION ( 'NONE',  ( 0.000000000000000000, 0.000000000000000000, 1.000000000000000000 ) ) ;
#219 = ORIENTED_EDGE ( 'NONE', *, *, #426, .F. ) ;
#220 = CIRCLE ( 'NONE', #983, 2.999999999999999112 ) ;
#221 = EDGE_CURVE ( 'NONE', #321, #696, #271, .T. ) ;
#222 = DIRECTION ( 'NONE',  ( 1.000000000000000000, 0.000000000000000000, 0.000000000000000000 ) ) ;
#223 = ORIENTED_EDGE ( 'NONE', *, *, #181, .T. ) ;
#224 = AXIS2_PLACEMENT_3D ( 'NONE', #1124, #330, #1038 ) ;
#225 = CIRCLE ( 'NONE', #707, 2.999999999999999112 ) ;
#226 = ADVANCED_FACE ( 'NONE', ( #8 ), #618, .F. ) ;
#227 = DIRECTION ( 'NONE',  ( 0.000000000000000000, 0.000000000000000000, 1.000000000000000000 ) ) ;
#228 = CARTESIAN_POINT ( 'NONE',  ( 15.00000000000000000, 55.00000000000000000, -1.000000000000000000 ) ) ;
#229 = ORIENTED_EDGE ( 'NONE', *, *, #37, .T. ) ;
#230 = ORIENTED_EDGE ( 'NONE', *, *, #37, .F. ) ;
#231 = VERTEX_POINT ( 'NONE', #89 ) ;
#232 = LINE ( 'NONE', #492, #543 ) ;
#233 = CARTESIAN_POINT ( 'NONE',  ( 95.00000000000000000, 35.00000000000000000, -1.000000000000000000 ) ) ;
#234 = ORIENTED_EDGE ( 'NONE', *, *, #999, .T. ) ;
#235 = VERTEX_POINT ( 'NONE', #156 ) ;
#236 = EDGE_CURVE ( 'NONE', #1054, #39, #82, .T. ) ;
#237 = VERTEX_POINT ( 'NONE', #265 ) ;
#238 = DIRECTION ( 'NONE',  ( 0.000000000000000000, 0.000000000000000000, 1.000000000000000000 ) ) ;
#239 = CYLINDRICAL_SURFACE ( 'NONE', #1026, 2.999999999999999112 ) ;
#240 = EDGE_CURVE ( 'NONE', #964, #661, #874, .T. ) ;
#241 = ORIENTED_EDGE ( 'NONE', *, *, #16, .F. ) ;
#242 = CIRCLE ( 'NONE', #927, 3.000000000000002665 ) ;
#243 = EDGE_LOOP ( 'NONE', ( #613, #158, #731, #966, #214 ) ) ;
#244 = FACE_OUTER_BOUND ( 'NONE', #559, .T. ) ;
#245 = CARTESIAN_POINT ( 'NONE',  ( 18.00000000000000000, 15.00000000000000000, 0.000000000000000000 ) ) ;
#246 = CIRCLE ( 'NONE', #895, 8.000000000000007105 ) ;
#247 = ORIENTED_EDGE ( 'NONE', *, *, #614, .T. ) ;
#248 = CARTESIAN_POINT ( 'NONE',  ( 25.00000000000000711, 17.00000000000000355, 8.000000000000000000 ) ) ;
#249 = EDGE_CURVE ( 'NONE', #317, #126, #434, .T. ) ;
#250 = CARTESIAN_POINT ( 'NONE',  ( 12.00000000000000000, 55.00000000000000000, -1.000000000000000000 ) ) ;
#251 = EDGE_LOOP ( 'NONE', ( #766, #829, #477, #230 ) ) ;
#252 = CARTESIAN_POINT ( 'NONE',  ( 125.0000000000000000, 15.00000000000000000, 0.000000000000000000 ) ) ;
#253 =( NAMED_UNIT ( * ) SI_UNIT ( $, .STERADIAN. ) SOLID_ANGLE_UNIT ( ) );
#254 = APPROVAL_DATE_TIME ( #1051, #681 ) ;
#255 = ORIENTED_EDGE ( 'NONE', *, *, #1058, .F. ) ;
#256 = DIRECTION ( 'NONE',  ( -0.000000000000000000, -0.000000000000000000, -1.000000000000000000 ) ) ;
#257 = ORIENTED_EDGE ( 'NONE', *, *, #221, .F. ) ;
#258 = DIRECTION ( 'NONE',  ( 1.000000000000000000, 0.000000000000000000, -0.000000000000000000 ) ) ;
#259 = SECURITY_CLASSIFICATION_LEVEL ( 'unclassified' ) ;
#260 = CARTESIAN_POINT ( 'NONE',  ( 140.0000000000000000, 10.00000000000000178, 10.00000000000000000 ) ) ;
#261 = ORIENTED_EDGE ( 'NONE', *, *, #440, .F. ) ;
#262 = EDGE_CURVE ( 'NONE', #150, #292, #246, .T. ) ;
#263 = LINE ( 'NONE', #1055, #456 ) ;
#264 = EDGE_CURVE ( 'NONE', #847, #762, #183, .T. ) ;
#265 = CARTESIAN_POINT ( 'NONE',  ( 130.0000000000000000, 0.000000000000000000, 0.000000000000000000 ) ) ;
#266 = CIRCLE ( 'NONE', #910, 2.999999999999999112 ) ;
#267 = VECTOR ( 'NONE', #959, 1000.000000000000000 ) ;
#268 = AXIS2_PLACEMENT_3D ( 'NONE', #54, #947, #323 ) ;
#269 = DIRECTION ( 'NONE',  ( 0.000000000000000000, 0.000000000000000000, 1.000000000000000000 ) ) ;
#270 = SHAPE_DEFINITION_REPRESENTATION ( #1130, #190 ) ;
#271 = LINE ( 'NONE', #248, #634 ) ;
#272 = FACE_BOUND ( 'NONE', #319, .T. ) ;
#273 = CC_DESIGN_PERSON_AND_ORGANIZATION_ASSIGNMENT ( #888, #626, ( #343 ) ) ;
#274 = APPROVAL_ROLE ( '' ) ;
#275 = ADVANCED_FACE ( 'NONE', ( #337 ), #12, .F. ) ;
#276 = CARTESIAN_POINT ( 'NONE',  ( 53.00000000000000711, 27.00000000000000355, 8.000000000000000000 ) ) ;
#277 = CARTESIAN_POINT ( 'NONE',  ( 130.0000000000000000, 0.000000000000000000, 0.000000000000000000 ) ) ;
#278 = DIRECTION ( 'NONE',  ( 1.000000000000000000, 0.000000000000000000, 0.000000000000000000 ) ) ;
#279 = CIRCLE ( 'NONE', #720, 2.999999999999999112 ) ;
#280 = CARTESIAN_POINT ( 'NONE',  ( 125.0000000000000000, 55.00000000000000000, 0.000000000000000000 ) ) ;
#281 = AXIS2_PLACEMENT_3D ( 'NONE', #1021, #926, #222 ) ;
#282 = VECTOR ( 'NONE', #612, 1000.000000000000000 ) ;
#283 = AXIS2_PLACEMENT_3D ( 'NONE', #581, #503, #593 ) ;
#284 = ADVANCED_FACE ( 'NONE', ( #453 ), #795, .T. ) ;
#285 = CYLINDRICAL_SURFACE ( 'NONE', #757, 10.00000000000000888 ) ;
#286 = FACE_OUTER_BOUND ( 'NONE', #207, .T. ) ;
#287 = DIRECTION ( 'NONE',  ( -1.000000000000000000, 0.000000000000000000, 0.000000000000000000 ) ) ;
#288 = EDGE_LOOP ( 'NONE', ( #915, #1125 ) ) ;
#289 = DIRECTION ( 'NONE',  ( 0.000000000000000000, 0.000000000000000000, 1.000000000000000000 ) ) ;
#290 = DIRECTION ( 'NONE',  ( 0.000000000000000000, 0.000000000000000000, 1.000000000000000000 ) ) ;
#291 = DESIGN_CONTEXT ( 'detailed design', #463, 'design' ) ;
#292 = VERTEX_POINT ( 'NONE', #66 ) ;
#293 = PLANE ( 'NONE',  #202 ) ;
#294 = EDGE_CURVE ( 'NONE', #1116, #325, #763, .T. ) ;
#295 = DIRECTION ( 'NONE',  ( -1.000000000000000000, 0.000000000000000000, 0.000000000000000000 ) ) ;
#296 = EDGE_CURVE ( 'NONE', #325, #203, #34, .T. ) ;
#297 = CIRCLE ( 'NONE', #688, 3.000000000000002665 ) ;
#298 = ORIENTED_EDGE ( 'NONE', *, *, #968, .T. ) ;
#299 = AXIS2_PLACEMENT_3D ( 'NONE', #814, #803, #728 ) ;
#300 = LOCAL_TIME ( 11, 36, 5.000000000000000000, #369 ) ;
#302 = CIRCLE ( 'NONE', #1135, 3.000000000000002665 ) ;
#301 = FACE_OUTER_BOUND ( 'NONE', #1049, .T. ) ;
#303 = LOCAL_TIME ( 11, 36, 5.000000000000000000, #544 ) ;
#304 = LINE ( 'NONE', #129, #930 ) ;
#305 = ORIENTED_EDGE ( 'NONE', *, *, #541, .T. ) ;
#306 = DIRECTION ( 'NONE',  ( 1.000000000000000000, 0.000000000000000000, 0.000000000000000000 ) ) ;
#307 = ORIENTED_EDGE ( 'NONE', *, *, #240, .T. ) ;
#308 = DIRECTION ( 'NONE',  ( 1.000000000000000000, 0.000000000000000000, 0.000000000000000000 ) ) ;
#309 = FACE_OUTER_BOUND ( 'NONE', #826, .T. ) ;
#310 = EDGE_CURVE ( 'NONE', #148, #1020, #232, .T. ) ;
#311 = ORIENTED_EDGE ( 'NONE', *, *, #1131, .T. ) ;
#312 = DIRECTION ( 'NONE',  ( -1.000000000000000000, -0.000000000000000000, 0.000000000000000000 ) ) ;
#313 = EDGE_LOOP ( 'NONE', ( #945, #863, #429, #934 ) ) ;
#314 = CARTESIAN_POINT ( 'NONE',  ( 70.00000000000000000, 53.00000000000000711, 8.000000000000000000 ) ) ;
#315 = DIRECTION ( 'NONE',  ( 1.000000000000000000, 0.000000000000000000, 0.000000000000000000 ) ) ;
#316 = ORIENTED_EDGE ( 'NONE', *, *, #605, .F. ) ;
#317 = VERTEX_POINT ( 'NONE', #585 ) ;
#318 = AXIS2_PLACEMENT_3D ( 'NONE', #1032, #217, #673 ) ;
#319 = EDGE_LOOP ( 'NONE', ( #611, #939 ) ) ;
#320 = ADVANCED_FACE ( 'NONE', ( #409 ), #1113, .F. ) ;
#321 = VERTEX_POINT ( 'NONE', #322 ) ;
#322 = CARTESIAN_POINT ( 'NONE',  ( 25.00000000000000711, 17.00000000000000355, 8.000000000000000000 ) ) ;
#323 = DIRECTION ( 'NONE',  ( 1.000000000000000000, 0.000000000000000000, 0.000000000000000000 ) ) ;
#324 = CC_DESIGN_SECURITY_CLASSIFICATION ( #383, ( #343 ) ) ;
#325 = VERTEX_POINT ( 'NONE', #748 ) ;
#326 = ORIENTED_EDGE ( 'NONE', *, *, #474, .F. ) ;
#327 = ORIENTED_EDGE ( 'NONE', *, *, #1085, .F. ) ;
#328 = ADVANCED_FACE ( 'NONE', ( #1108 ), #843, .F. ) ;
#329 = CARTESIAN_POINT ( 'NONE',  ( 122.0000000000000000, 55.00000000000000000, 9.999999999999998224 ) ) ;
#330 = DIRECTION ( 'NONE',  ( -0.000000000000000000, -0.000000000000000000, -1.000000000000000000 ) ) ;
#331 = VERTEX_POINT ( 'NONE', #53 ) ;
#332 = VERTEX_POINT ( 'NONE', #571 ) ;
#333 = CARTESIAN_POINT ( 'NONE',  ( 10.00000000000000888, 70.00000000000000000, 0.000000000000000000 ) ) ;
#334 = CYLINDRICAL_SURFACE ( 'NONE', #402, 8.000000000000000000 ) ;
#335 = ADVANCED_FACE ( 'NONE', ( #134 ), #1024, .F. ) ;
#336 = ORIENTED_EDGE ( 'NONE', *, *, #100, .F. ) ;
#337 = FACE_OUTER_BOUND ( 'NONE', #603, .T. ) ;
#338 = VERTEX_POINT ( 'NONE', #928 ) ;
#339 = PLANE ( 'NONE',  #86 ) ;
#340 = DIRECTION ( 'NONE',  ( 0.000000000000000000, 0.000000000000000000, 1.000000000000000000 ) ) ;
#341 = CIRCLE ( 'NONE', #299, 8.000000000000000000 ) ;
#342 = AXIS2_PLACEMENT_3D ( 'NONE', #385, #1078, #639 ) ;
#343 = PRODUCT_DEFINITION_FORMATION_WITH_SPECIFIED_SOURCE ( 'ANY', '', #162, .NOT_KNOWN. ) ;
#344 = EDGE_LOOP ( 'NONE', ( #597, #55, #741, #143 ) ) ;
#345 = DIRECTION ( 'NONE',  ( 1.000000000000000000, 0.000000000000000000, 0.000000000000000000 ) ) ;
#346 = VERTEX_POINT ( 'NONE', #139 ) ;
#347 = LINE ( 'NONE', #355, #733 ) ;
#348 = CARTESIAN_POINT ( 'NONE',  ( 25.00000000000000711, 53.00000000000000711, 8.000000000000000000 ) ) ;
#349 = PERSON_AND_ORGANIZATION ( #725, #952 ) ;
#350 = ORIENTED_EDGE ( 'NONE', *, *, #715, .T. ) ;
#351 = CARTESIAN_POINT ( 'NONE',  ( 10.00000000000000888, 0.000000000000000000, 0.000000000000000000 ) ) ;
#352 = EDGE_CURVE ( 'NONE', #155, #701, #1003, .T. ) ;
#353 = EDGE_CURVE ( 'NONE', #701, #39, #956, .T. ) ;
#354 = EDGE_LOOP ( 'NONE', ( #500, #247, #1035, #1115 ) ) ;
#355 = CARTESIAN_POINT ( 'NONE',  ( 70.00000000000000000, 43.00000000000000000, 8.000000000000000000 ) ) ;
#356 = DIRECTION ( 'NONE',  ( -1.000000000000000000, 0.000000000000000000, 0.000000000000000000 ) ) ;
#357 = DATE_AND_TIME ( #881, #1029 ) ;
#358 = DIRECTION ( 'NONE',  ( 0.000000000000000000, 0.000000000000000000, 1.000000000000000000 ) ) ;
#359 = CARTESIAN_POINT ( 'NONE',  ( 53.00000000000000711, 43.00000000000000000, 0.000000000000000000 ) ) ;
#360 = CLOSED_SHELL ( 'NONE', ( #226, #671, #24, #978, #892, #637, #852, #532, #588, #775, #628, #1022, #484, #1039, #284, #4, #586, #412, #166, #735, #791, #1065, #824, #196, #275, #1104, #335, #954, #672, #705, #328, #320 ) ) ;
#361 = AXIS2_PLACEMENT_3D ( 'NONE', #180, #962, #534 ) ;
#362 = APPROVAL_STATUS ( 'not_yet_approved' ) ;
#363 = CARTESIAN_POINT ( 'NONE',  ( 130.0000000000000000, 10.00000000000000000, 0.000000000000000000 ) ) ;
#364 = VECTOR ( 'NONE', #1071, 1000.000000000000000 ) ;
#365 = CIRCLE ( 'NONE', #1077, 8.000000000000007105 ) ;
#366 = CC_DESIGN_PERSON_AND_ORGANIZATION_ASSIGNMENT ( #617, #525, ( #383 ) ) ;
#367 = CARTESIAN_POINT ( 'NONE',  ( 15.00000000000000000, 55.00000000000000000, 9.999999999999998224 ) ) ;
#368 = EDGE_CURVE ( 'NONE', #675, #964, #279, .T. ) ;
#369 = COORDINATED_UNIVERSAL_TIME_OFFSET ( 8, 0, .AHEAD. ) ;
#370 = CARTESIAN_POINT ( 'NONE',  ( 10.00000000000000000, 10.00000000000000000, 10.00000000000000000 ) ) ;
#371 = DIRECTION ( 'NONE',  ( 1.000000000000000000, 0.000000000000000000, 0.000000000000000000 ) ) ;
#372 = CARTESIAN_POINT ( 'NONE',  ( 70.00000000000000000, 53.00000000000000711, 8.000000000000000000 ) ) ;
#373 = LINE ( 'NONE', #213, #951 ) ;
#374 = DIRECTION ( 'NONE',  ( 1.000000000000000000, 0.000000000000000000, -0.000000000000000000 ) ) ;
#375 = EDGE_CURVE ( 'NONE', #717, #148, #506, .T. ) ;
#376 = ORIENTED_EDGE ( 'NONE', *, *, #925, .T. ) ;
#377 = DIRECTION ( 'NONE',  ( 1.000000000000000000, 0.000000000000000000, 0.000000000000000000 ) ) ;
#378 = CARTESIAN_POINT ( 'NONE',  ( 70.00000000000000000, 27.00000000000000355, 8.000000000000000000 ) ) ;
#379 = VECTOR ( 'NONE', #769, 1000.000000000000000 ) ;
#380 = CARTESIAN_POINT ( 'NONE',  ( 130.0000000000000000, 10.00000000000000000, 0.000000000000000000 ) ) ;
#381 = ORIENTED_EDGE ( 'NONE', *, *, #117, .F. ) ;
#382 = AXIS2_PLACEMENT_3D ( 'NONE', #280, #458, #287 ) ;
#383 = SECURITY_CLASSIFICATION ( '', '', #259 ) ;
#384 = FACE_OUTER_BOUND ( 'NONE', #1098, .T. ) ;
#385 = CARTESIAN_POINT ( 'NONE',  ( 10.00000000000000000, 60.00000000000000000, 0.000000000000000000 ) ) ;
#386 = DIRECTION ( 'NONE',  ( 1.000000000000000000, 0.000000000000000000, 0.000000000000000000 ) ) ;
#387 = DIRECTION ( 'NONE',  ( 0.000000000000000000, -1.000000000000000000, -0.000000000000000000 ) ) ;
#388 = CARTESIAN_POINT ( 'NONE',  ( 12.00000000000000000, 55.00000000000000000, 9.999999999999998224 ) ) ;
#389 = ORIENTED_EDGE ( 'NONE', *, *, #48, .T. ) ;
#390 = FACE_OUTER_BOUND ( 'NONE', #1082, .T. ) ;
#391 = EDGE_CURVE ( 'NONE', #292, #949, #502, .T. ) ;
#392 = FACE_OUTER_BOUND ( 'NONE', #313, .T. ) ;
#393 = ORIENTED_EDGE ( 'NONE', *, *, #296, .F. ) ;
#394 = ORIENTED_EDGE ( 'NONE', *, *, #552, .T. ) ;
#395 = FACE_OUTER_BOUND ( 'NONE', #840, .T. ) ;
#396 = EDGE_LOOP ( 'NONE', ( #991, #1013, #1052, #1111 ) ) ;
#397 = LINE ( 'NONE', #918, #90 ) ;
#398 = VECTOR ( 'NONE', #542, 1000.000000000000000 ) ;
#399 = VERTEX_POINT ( 'NONE', #329 ) ;
#400 = ORIENTED_EDGE ( 'NONE', *, *, #236, .T. ) ;
#401 = VECTOR ( 'NONE', #57, 1000.000000000000000 ) ;
#402 = AXIS2_PLACEMENT_3D ( 'NONE', #1138, #160, #783 ) ;
#403 = CARTESIAN_POINT ( 'NONE',  ( 25.00000000000000711, 35.00000000000000000, 8.000000000000000000 ) ) ;
#404 = EDGE_LOOP ( 'NONE', ( #510, #56 ) ) ;
#405 = EDGE_CURVE ( 'NONE', #1107, #1020, #297, .T. ) ;
#406 = DIRECTION ( 'NONE',  ( 0.000000000000000000, 0.000000000000000000, 1.000000000000000000 ) ) ;
#407 = ORIENTED_EDGE ( 'NONE', *, *, #523, .T. ) ;
#408 = CARTESIAN_POINT ( 'NONE',  ( 70.00000000000000000, 60.00000000000000000, 0.000000000000000000 ) ) ;
#409 = FACE_OUTER_BOUND ( 'NONE', #1017, .T. ) ;
#410 = CARTESIAN_POINT ( 'NONE',  ( 70.00000000000000000, 60.00000000000000000, -1.000000000000000000 ) ) ;
#411 = VERTEX_POINT ( 'NONE', #1123 ) ;
#412 = ADVANCED_FACE ( 'NONE', ( #244 ), #946, .F. ) ;
#413 = ORIENTED_EDGE ( 'NONE', *, *, #264, .F. ) ;
#414 = DIRECTION ( 'NONE',  ( -1.000000000000000000, 0.000000000000000000, 0.000000000000000000 ) ) ;
#415 = FACE_OUTER_BOUND ( 'NONE', #620, .T. ) ;
#416 = ORIENTED_EDGE ( 'NONE', *, *, #494, .F. ) ;
#417 = AXIS2_PLACEMENT_3D ( 'NONE', #969, #1066, #533 ) ;
#418 = ORIENTED_EDGE ( 'NONE', *, *, #368, .T. ) ;
#419 = ORIENTED_EDGE ( 'NONE', *, *, #461, .T. ) ;
#420 = AXIS2_PLACEMENT_3D ( 'NONE', #957, #684, #1043 ) ;
#421 = CARTESIAN_POINT ( 'NONE',  ( 70.00000000000000000, 27.00000000000000355, 0.000000000000000000 ) ) ;
#422 = LINE ( 'NONE', #74, #931 ) ;
#423 = ORIENTED_EDGE ( 'NONE', *, *, #715, .F. ) ;
#424 = ORIENTED_EDGE ( 'NONE', *, *, #79, .F. ) ;
#425 = ORIENTED_EDGE ( 'NONE', *, *, #122, .T. ) ;
#426 = EDGE_CURVE ( 'NONE', #767, #745, #858, .T. ) ;
#427 = CARTESIAN_POINT ( 'NONE',  ( 128.0000000000000000, 55.00000000000000000, -1.000000000000000000 ) ) ;
#428 = DIRECTION ( 'NONE',  ( 0.000000000000000000, 0.000000000000000000, 1.000000000000000000 ) ) ;
#429 = ORIENTED_EDGE ( 'NONE', *, *, #48, .F. ) ;
#430 = CARTESIAN_POINT ( 'NONE',  ( 18.00000000000000000, 15.00000000000000000, -1.000000000000000000 ) ) ;
#431 = VERTEX_POINT ( 'NONE', #388 ) ;
#432 = DIRECTION ( 'NONE',  ( 0.000000000000000000, 0.000000000000000000, 1.000000000000000000 ) ) ;
#433 = VERTEX_POINT ( 'NONE', #1042 ) ;
#434 = LINE ( 'NONE', #777, #738 ) ;
#435 = CIRCLE ( 'NONE', #1044, 10.00000000000000000 ) ;
#436 = ORIENTED_EDGE ( 'NONE', *, *, #61, .F. ) ;
#437 = FACE_BOUND ( 'NONE', #404, .T. ) ;
#438 = DIRECTION ( 'NONE',  ( 1.000000000000000000, 0.000000000000000000, 0.000000000000000000 ) ) ;
#439 = VECTOR ( 'NONE', #516, 1000.000000000000000 ) ;
#440 = EDGE_CURVE ( 'NONE', #642, #332, #600, .T. ) ;
#441 = AXIS2_PLACEMENT_3D ( 'NONE', #698, #340, #85 ) ;
#442 = PERSON_AND_ORGANIZATION_ROLE ( 'creator' ) ;
#443 = EDGE_LOOP ( 'NONE', ( #336, #812 ) ) ;
#444 = DIRECTION ( 'NONE',  ( -0.000000000000000000, 1.000000000000000000, 0.000000000000000000 ) ) ;
#445 = ORIENTED_EDGE ( 'NONE', *, *, #838, .F. ) ;
#446 = CARTESIAN_POINT ( 'NONE',  ( 125.0000000000000000, 55.00000000000000000, 0.000000000000000000 ) ) ;
#447 = DIRECTION ( 'NONE',  ( 0.000000000000000000, 0.000000000000000000, 1.000000000000000000 ) ) ;
#448 = COORDINATED_UNIVERSAL_TIME_OFFSET ( 8, 0, .AHEAD. ) ;
#449 = CYLINDRICAL_SURFACE ( 'NONE', #106, 3.000000000000002665 ) ;
#450 = FACE_BOUND ( 'NONE', #591, .T. ) ;
#451 = PERSON_AND_ORGANIZATION_ROLE ( 'creator' ) ;
#452 = CC_DESIGN_DATE_AND_TIME_ASSIGNMENT ( #357, #794, ( #383 ) ) ;
#453 = FACE_OUTER_BOUND ( 'NONE', #144, .T. ) ;
#454 = EDGE_CURVE ( 'NONE', #338, #841, #263, .T. ) ;
#455 = CARTESIAN_POINT ( 'NONE',  ( 0.000000000000000000, 10.00000000000000000, 0.000000000000000000 ) ) ;
#456 = VECTOR ( 'NONE', #15, 1000.000000000000000 ) ;
#457 = AXIS2_PLACEMENT_3D ( 'NONE', #632, #290, #125 ) ;
#458 = DIRECTION ( 'NONE',  ( -0.000000000000000000, -0.000000000000000000, -1.000000000000000000 ) ) ;
#459 = CIRCLE ( 'NONE', #417, 3.000000000000002665 ) ;
#460 = DIRECTION ( 'NONE',  ( 0.000000000000000000, -1.000000000000000000, 0.000000000000000000 ) ) ;
#461 = EDGE_CURVE ( 'NONE', #1110, #212, #706, .T. ) ;
#462 = CARTESIAN_POINT ( 'NONE',  ( 70.00000000000000000, 17.00000000000000355, 8.000000000000000000 ) ) ;
#463 = APPLICATION_CONTEXT ( 'configuration controlled 3d designs of mechanical parts and assemblies' ) ;
#464 = ORIENTED_EDGE ( 'NONE', *, *, #426, .T. ) ;
#465 = DIRECTION ( 'NONE',  ( -1.000000000000000000, 0.000000000000000000, 0.000000000000000000 ) ) ;
#466 = CARTESIAN_POINT ( 'NONE',  ( 125.0000000000000000, 55.00000000000000000, -1.000000000000000000 ) ) ;
#467 = DIRECTION ( 'NONE',  ( 0.000000000000000000, -1.000000000000000000, -0.000000000000000000 ) ) ;
#468 = CARTESIAN_POINT ( 'NONE',  ( 87.00000000000000000, 35.00000000000000000, 8.000000000000000000 ) ) ;
#469 = CARTESIAN_POINT ( 'NONE',  ( 0.000000000000000000, 60.00000000000000000, 10.00000000000000000 ) ) ;
#470 = EDGE_CURVE ( 'NONE', #949, #501, #595, .T. ) ;
#471 = DIRECTION ( 'NONE',  ( 0.000000000000000000, -1.000000000000000000, -0.000000000000000000 ) ) ;
#472 = ORIENTED_EDGE ( 'NONE', *, *, #352, .F. ) ;
#473 = VECTOR ( 'NONE', #862, 1000.000000000000000 ) ;
#474 = EDGE_CURVE ( 'NONE', #501, #676, #973, .T. ) ;
#475 = FACE_BOUND ( 'NONE', #943, .T. ) ;
#476 = CARTESIAN_POINT ( 'NONE',  ( 0.000000000000000000, 10.00000000000000178, 0.000000000000000000 ) ) ;
#477 = ORIENTED_EDGE ( 'NONE', *, *, #189, .T. ) ;
#478 = ORIENTED_EDGE ( 'NONE', *, *, #810, .T. ) ;
#479 = DIRECTION ( 'NONE',  ( -1.000000000000000000, 0.000000000000000000, 0.000000000000000000 ) ) ;
#480 = DIRECTION ( 'NONE',  ( -1.000000000000000000, -0.000000000000000000, 0.000000000000000000 ) ) ;
#481 = CC_DESIGN_PERSON_AND_ORGANIZATION_ASSIGNMENT ( #168, #451, ( #343 ) ) ;
#482 = ORIENTED_EDGE ( 'NONE', *, *, #1094, .T. ) ;
#483 = ORIENTED_EDGE ( 'NONE', *, *, #708, .F. ) ;
#484 = ADVANCED_FACE ( 'NONE', ( #782 ), #1128, .T. ) ;
#485 = DIRECTION ( 'NONE',  ( 0.000000000000000000, 0.000000000000000000, 1.000000000000000000 ) ) ;
#486 = DIRECTION ( 'NONE',  ( 1.000000000000000000, 0.000000000000000000, 0.000000000000000000 ) ) ;
#487 = AXIS2_PLACEMENT_3D ( 'NONE', #580, #848, #592 ) ;
#488 = VERTEX_POINT ( 'NONE', #793 ) ;
#489 = VECTOR ( 'NONE', #374, 1000.000000000000000 ) ;
#490 = LOCAL_TIME ( 11, 36, 5.000000000000000000, #448 ) ;
#491 = CARTESIAN_POINT ( 'NONE',  ( 73.00000000000001421, 60.00000000000000000, -1.000000000000000000 ) ) ;
#492 = CARTESIAN_POINT ( 'NONE',  ( 67.00000000000000000, 10.00000000000000000, -1.000000000000000000 ) ) ;
#493 = DIRECTION ( 'NONE',  ( 1.000000000000000000, 0.000000000000000000, 0.000000000000000000 ) ) ;
#494 = EDGE_CURVE ( 'NONE', #760, #561, #778, .T. ) ;
#495 = EDGE_LOOP ( 'NONE', ( #754, #78, #234, #1121 ) ) ;
#496 = DIRECTION ( 'NONE',  ( 1.000000000000000000, 0.000000000000000000, 0.000000000000000000 ) ) ;
#497 = ORIENTED_EDGE ( 'NONE', *, *, #142, .F. ) ;
#498 = DIRECTION ( 'NONE',  ( -0.000000000000000000, -0.000000000000000000, -1.000000000000000000 ) ) ;
#499 = CARTESIAN_POINT ( 'NONE',  ( 70.00000000000000000, 60.00000000000000000, 9.999999999999998224 ) ) ;
#500 = ORIENTED_EDGE ( 'NONE', *, *, #554, .T. ) ;
#501 = VERTEX_POINT ( 'NONE', #359 ) ;
#502 = LINE ( 'NONE', #421, #1001 ) ;
#503 = DIRECTION ( 'NONE',  ( 1.000000000000000000, 0.000000000000000000, -0.000000000000000000 ) ) ;
#504 = ORIENTED_EDGE ( 'NONE', *, *, #685, .T. ) ;
#505 = EDGE_CURVE ( 'NONE', #1054, #237, #94, .T. ) ;
#506 = CIRCLE ( 'NONE', #970, 3.000000000000002665 ) ;
#507 = EDGE_CURVE ( 'NONE', #841, #431, #220, .T. ) ;
#508 = AXIS2_PLACEMENT_3D ( 'NONE', #941, #678, #1018 ) ;
#509 = EDGE_LOOP ( 'NONE', ( #579, #93, #667, #219 ) ) ;
#510 = ORIENTED_EDGE ( 'NONE', *, *, #1014, .F. ) ;
#511 = VECTOR ( 'NONE', #115, 1000.000000000000000 ) ;
#512 = VECTOR ( 'NONE', #116, 1000.000000000000000 ) ;
#513 = DIRECTION ( 'NONE',  ( 1.000000000000000000, 0.000000000000000000, 0.000000000000000000 ) ) ;
#514 = FACE_OUTER_BOUND ( 'NONE', #938, .T. ) ;
#515 = ORIENTED_EDGE ( 'NONE', *, *, #494, .T. ) ;
#516 = DIRECTION ( 'NONE',  ( 0.000000000000000000, 0.000000000000000000, 1.000000000000000000 ) ) ;
#517 = ORIENTED_EDGE ( 'NONE', *, *, #262, .T. ) ;
#518 = CARTESIAN_POINT ( 'NONE',  ( 12.00000000000000000, 15.00000000000000000, -1.000000000000000000 ) ) ;
#519 =( LENGTH_UNIT ( ) NAMED_UNIT ( * ) SI_UNIT ( .MILLI., .METRE. ) );
#520 = ORIENTED_EDGE ( 'NONE', *, *, #695, .T. ) ;
#521 = DIRECTION ( 'NONE',  ( 0.000000000000000000, 0.000000000000000000, 1.000000000000000000 ) ) ;
#522 = ORIENTED_EDGE ( 'NONE', *, *, #100, .T. ) ;
#523 = EDGE_CURVE ( 'NONE', #235, #676, #347, .T. ) ;
#524 = FACE_BOUND ( 'NONE', #1015, .T. ) ;
#525 = PERSON_AND_ORGANIZATION_ROLE ( 'classification_officer' ) ;
#526 = ORIENTED_EDGE ( 'NONE', *, *, #117, .T. ) ;
#527 = DIRECTION ( 'NONE',  ( 0.000000000000000000, 0.000000000000000000, 1.000000000000000000 ) ) ;
#528 = ORIENTED_EDGE ( 'NONE', *, *, #937, .F. ) ;
#529 = LINE ( 'NONE', #625, #174 ) ;
#530 = AXIS2_PLACEMENT_3D ( 'NONE', #370, #198, #994 ) ;
#531 = CIRCLE ( 'NONE', #441, 10.00000000000000888 ) ;
#532 = ADVANCED_FACE ( 'NONE', ( #524, #437, #450, #1050, #272, #691, #101, #9 ), #339, .T. ) ;
#533 = DIRECTION ( 'NONE',  ( 1.000000000000000000, 0.000000000000000000, 0.000000000000000000 ) ) ;
#534 = DIRECTION ( 'NONE',  ( 0.000000000000000000, 0.000000000000000000, 1.000000000000000000 ) ) ;
#535 = CC_DESIGN_DATE_AND_TIME_ASSIGNMENT ( #789, #610, ( #889 ) ) ;
#536 = CALENDAR_DATE ( 2026, 1, 8 ) ;
#537 = DIRECTION ( 'NONE',  ( 0.000000000000000000, 0.000000000000000000, 1.000000000000000000 ) ) ;
#538 = CARTESIAN_POINT ( 'NONE',  ( 70.00000000000000000, 10.00000000000000000, 0.000000000000000000 ) ) ;
#539 = DIRECTION ( 'NONE',  ( 1.000000000000000000, 0.000000000000000000, 0.000000000000000000 ) ) ;
#540 = LINE ( 'NONE', #801, #599 ) ;
#541 = EDGE_CURVE ( 'NONE', #568, #1054, #875, .T. ) ;
#542 = DIRECTION ( 'NONE',  ( 0.000000000000000000, 0.000000000000000000, 1.000000000000000000 ) ) ;
#543 = VECTOR ( 'NONE', #837, 1000.000000000000000 ) ;
#544 = COORDINATED_UNIVERSAL_TIME_OFFSET ( 8, 0, .AHEAD. ) ;
#545 = DIRECTION ( 'NONE',  ( 0.000000000000000000, 0.000000000000000000, 1.000000000000000000 ) ) ;
#546 = VECTOR ( 'NONE', #406, 1000.000000000000000 ) ;
#547 = DIRECTION ( 'NONE',  ( -1.000000000000000000, -0.000000000000000000, 0.000000000000000000 ) ) ;
#548 = FACE_OUTER_BOUND ( 'NONE', #199, .T. ) ;
#549 = DIRECTION ( 'NONE',  ( 0.000000000000000000, -0.000000000000000000, 1.000000000000000000 ) ) ;
#550 = DIRECTION ( 'NONE',  ( 0.000000000000000000, 0.000000000000000000, 1.000000000000000000 ) ) ;
#551 = CARTESIAN_POINT ( 'NONE',  ( 25.00000000000000711, 17.00000000000000355, 10.00000000000000000 ) ) ;
#552 = EDGE_CURVE ( 'NONE', #675, #1031, #1067, .T. ) ;
#553 = LINE ( 'NONE', #378, #1005 ) ;
#554 = EDGE_CURVE ( 'NONE', #847, #317, #529, .T. ) ;
#555 = DIRECTION ( 'NONE',  ( -0.000000000000000000, 1.000000000000000000, 0.000000000000000000 ) ) ;
#556 = CARTESIAN_POINT ( 'NONE',  ( 70.00000000000000000, 0.000000000000000000, 0.000000000000000000 ) ) ;
#557 = DIRECTION ( 'NONE',  ( 1.000000000000000000, 0.000000000000000000, -0.000000000000000000 ) ) ;
#558 = VECTOR ( 'NONE', #485, 1000.000000000000000 ) ;
#559 = EDGE_LOOP ( 'NONE', ( #1122, #418, #307, #522 ) ) ;
#560 = DIRECTION ( 'NONE',  ( 0.000000000000000000, 0.000000000000000000, 1.000000000000000000 ) ) ;
#561 = VERTEX_POINT ( 'NONE', #865 ) ;
#562 = EDGE_CURVE ( 'NONE', #767, #346, #704, .T. ) ;
#563 = CARTESIAN_POINT ( 'NONE',  ( 87.00000000000000000, 43.00000000000000000, 0.000000000000000000 ) ) ;
#564 = EDGE_CURVE ( 'NONE', #773, #171, #242, .T. ) ;
#565 = VERTEX_POINT ( 'NONE', #887 ) ;
#566 = LINE ( 'NONE', #578, #558 ) ;
#567 = DIRECTION ( 'NONE',  ( 1.000000000000000000, 0.000000000000000000, 0.000000000000000000 ) ) ;
#568 = VERTEX_POINT ( 'NONE', #455 ) ;
#569 = CARTESIAN_POINT ( 'NONE',  ( 115.0000000000000000, 17.00000000000000355, 10.00000000000000000 ) ) ;
#570 = EDGE_CURVE ( 'NONE', #346, #399, #774, .T. ) ;
#571 = CARTESIAN_POINT ( 'NONE',  ( 140.0000000000000000, 60.00000000000000711, 10.00000000000000000 ) ) ;
#572 = DIRECTION ( 'NONE',  ( 0.000000000000000000, 0.000000000000000000, 1.000000000000000000 ) ) ;
#573 = EDGE_LOOP ( 'NONE', ( #670, #1112, #464, #589 ) ) ;
#574 = ORIENTED_EDGE ( 'NONE', *, *, #1118, .T. ) ;
#575 = VECTOR ( 'NONE', #828, 1000.000000000000000 ) ;
#576 = CIRCLE ( 'NONE', #987, 2.999999999999999112 ) ;
#577 = CC_DESIGN_APPROVAL ( #681, ( #343 ) ) ;
#578 = CARTESIAN_POINT ( 'NONE',  ( 67.00000000000000000, 60.00000000000000000, -1.000000000000000000 ) ) ;
#579 = ORIENTED_EDGE ( 'NONE', *, *, #562, .T. ) ;
#580 = CARTESIAN_POINT ( 'NONE',  ( 87.00000000000000000, 35.00000000000000000, -1.000000000000000000 ) ) ;
#581 = CARTESIAN_POINT ( 'NONE',  ( 140.0000000000000000, 35.00000000000000000, 0.000000000000000000 ) ) ;
#582 = ORIENTED_EDGE ( 'NONE', *, *, #655, .F. ) ;
#583 = ORIENTED_EDGE ( 'NONE', *, *, #111, .F. ) ;
#584 = ORIENTED_EDGE ( 'NONE', *, *, #249, .F. ) ;
#585 = CARTESIAN_POINT ( 'NONE',  ( 115.0000000000000000, 53.00000000000000711, 8.000000000000000000 ) ) ;
#586 = ADVANCED_FACE ( 'NONE', ( #1076 ), #285, .T. ) ;
#587 = DIRECTION ( 'NONE',  ( 0.000000000000000000, 0.000000000000000000, 1.000000000000000000 ) ) ;
#588 = ADVANCED_FACE ( 'NONE', ( #390 ), #718, .T. ) ;
#589 = ORIENTED_EDGE ( 'NONE', *, *, #1014, .T. ) ;
#590 = ORIENTED_EDGE ( 'NONE', *, *, #883, .T. ) ;
#591 = EDGE_LOOP ( 'NONE', ( #81, #255 ) ) ;
#592 = DIRECTION ( 'NONE',  ( 1.000000000000000000, 0.000000000000000000, 0.000000000000000000 ) ) ;
#593 = DIRECTION ( 'NONE',  ( -0.000000000000000000, 0.000000000000000000, -1.000000000000000000 ) ) ;
#594 = EDGE_LOOP ( 'NONE', ( #645, #46, #136, #739, #1036, #583, #1105, #472 ) ) ;
#595 = CIRCLE ( 'NONE', #11, 8.000000000000000000 ) ;
#596 = DIRECTION ( 'NONE',  ( 0.000000000000000000, 0.000000000000000000, 1.000000000000000000 ) ) ;
#597 = ORIENTED_EDGE ( 'NONE', *, *, #1070, .T. ) ;
#598 = CIRCLE ( 'NONE', #877, 3.000000000000002665 ) ;
#599 = VECTOR ( 'NONE', #387, 1000.000000000000000 ) ;
#600 = LINE ( 'NONE', #702, #1091 ) ;
#601 = DIRECTION ( 'NONE',  ( 0.000000000000000000, 0.000000000000000000, 1.000000000000000000 ) ) ;
#602 = CC_DESIGN_PERSON_AND_ORGANIZATION_ASSIGNMENT ( #974, #1068, ( #162 ) ) ;
#603 = EDGE_LOOP ( 'NONE', ( #482, #407, #326, #223 ) ) ;
#604 = CARTESIAN_POINT ( 'NONE',  ( 87.00000000000000000, 35.00000000000000000, -1.000000000000000000 ) ) ;
#605 = EDGE_CURVE ( 'NONE', #325, #231, #435, .T. ) ;
#606 = FACE_OUTER_BOUND ( 'NONE', #50, .T. ) ;
#607 = ORIENTED_EDGE ( 'NONE', *, *, #646, .F. ) ;
#608 = DIRECTION ( 'NONE',  ( 0.000000000000000000, 0.000000000000000000, 1.000000000000000000 ) ) ;
#609 = DIRECTION ( 'NONE',  ( -0.000000000000000000, -0.000000000000000000, -1.000000000000000000 ) ) ;
#610 = DATE_TIME_ROLE ( 'creation_date' ) ;
#611 = ORIENTED_EDGE ( 'NONE', *, *, #726, .F. ) ;
#612 = DIRECTION ( 'NONE',  ( 0.000000000000000000, 0.000000000000000000, 1.000000000000000000 ) ) ;
#613 = ORIENTED_EDGE ( 'NONE', *, *, #40, .F. ) ;
#614 = EDGE_CURVE ( 'NONE', #317, #1110, #643, .T. ) ;
#615 = DIRECTION ( 'NONE',  ( 0.000000000000000000, 0.000000000000000000, 1.000000000000000000 ) ) ;
#616 =( NAMED_UNIT ( * ) PLANE_ANGLE_UNIT ( ) SI_UNIT ( $, .RADIAN. ) );
#617 = PERSON_AND_ORGANIZATION ( #725, #952 ) ;
#618 = CYLINDRICAL_SURFACE ( 'NONE', #1097, 8.000000000000007105 ) ;
#619 = VECTOR ( 'NONE', #432, 1000.000000000000000 ) ;
#620 = EDGE_LOOP ( 'NONE', ( #873, #654, #425, #2 ) ) ;
#621 = CARTESIAN_POINT ( 'NONE',  ( 53.00000000000000000, 35.00000000000000000, 0.000000000000000000 ) ) ;
#622 = VECTOR ( 'NONE', #1012, 1000.000000000000000 ) ;
#623 = VECTOR ( 'NONE', #186, 1000.000000000000000 ) ;
#624 = DIRECTION ( 'NONE',  ( 0.000000000000000000, 0.000000000000000000, 1.000000000000000000 ) ) ;
#625 = CARTESIAN_POINT ( 'NONE',  ( 115.0000000000000000, 35.00000000000000000, 8.000000000000000000 ) ) ;
#626 = PERSON_AND_ORGANIZATION_ROLE ( 'design_supplier' ) ;
#627 = CARTESIAN_POINT ( 'NONE',  ( 128.0000000000000000, 15.00000000000000000, -1.000000000000000000 ) ) ;
#628 = ADVANCED_FACE ( 'NONE', ( #820, #1092, #638, #119, #894, #475, #806, #301 ), #293, .T. ) ;
#629 = DIRECTION ( 'NONE',  ( 0.000000000000000000, 0.000000000000000000, 1.000000000000000000 ) ) ;
#630 = LINE ( 'NONE', #17, #69 ) ;
#631 = DIRECTION ( 'NONE',  ( 1.000000000000000000, 0.000000000000000000, 0.000000000000000000 ) ) ;
#632 = CARTESIAN_POINT ( 'NONE',  ( 125.0000000000000000, 15.00000000000000000, -1.000000000000000000 ) ) ;
#633 = AXIS2_PLACEMENT_3D ( 'NONE', #408, #1106, #1016 ) ;
#634 = VECTOR ( 'NONE', #950, 1000.000000000000000 ) ;
#635 = CARTESIAN_POINT ( 'NONE',  ( 130.0000000000000000, 70.00000000000000000, 0.000000000000000000 ) ) ;
#636 = AXIS2_PLACEMENT_3D ( 'NONE', #936, #218, #839 ) ;
#637 = ADVANCED_FACE ( 'NONE', ( #110 ), #647, .F. ) ;
#638 = FACE_BOUND ( 'NONE', #72, .T. ) ;
#639 = DIRECTION ( 'NONE',  ( 1.000000000000000000, 0.000000000000000000, 0.000000000000000000 ) ) ;
#640 = DIRECTION ( 'NONE',  ( 0.000000000000000000, 0.000000000000000000, 1.000000000000000000 ) ) ;
#641 = CARTESIAN_POINT ( 'NONE',  ( 10.00000000000000000, 0.000000000000000000, 10.00000000000000000 ) ) ;
#642 = VERTEX_POINT ( 'NONE', #35 ) ;
#643 = LINE ( 'NONE', #372, #44 ) ;
#644 = DIRECTION ( 'NONE',  ( -1.000000000000000000, 0.000000000000000000, 0.000000000000000000 ) ) ;
#645 = ORIENTED_EDGE ( 'NONE', *, *, #122, .F. ) ;
#646 = EDGE_CURVE ( 'NONE', #431, #841, #830, .T. ) ;
#647 = CYLINDRICAL_SURFACE ( 'NONE', #736, 3.000000000000002665 ) ;
#648 = AXIS2_PLACEMENT_3D ( 'NONE', #363, #596, #73 ) ;
#649 = DIRECTION ( 'NONE',  ( -0.000000000000000000, -0.000000000000000000, -1.000000000000000000 ) ) ;
#650 = AXIS2_PLACEMENT_3D ( 'NONE', #197, #904, #386 ) ;
#651 = ORIENTED_EDGE ( 'NONE', *, *, #768, .T. ) ;
#652 = DIRECTION ( 'NONE',  ( 1.000000000000000000, 0.000000000000000000, 0.000000000000000000 ) ) ;
#653 = DIRECTION ( 'NONE',  ( -0.000000000000000000, 1.000000000000000000, 0.000000000000000000 ) ) ;
#654 = ORIENTED_EDGE ( 'NONE', *, *, #440, .T. ) ;
#655 = EDGE_CURVE ( 'NONE', #758, #331, #779, .T. ) ;
#656 = ORIENTED_EDGE ( 'NONE', *, *, #184, .T. ) ;
#657 = CARTESIAN_POINT ( 'NONE',  ( 0.000000000000000000, 60.00000000000000711, 0.000000000000000000 ) ) ;
#658 = ORIENTED_EDGE ( 'NONE', *, *, #470, .T. ) ;
#659 = DIRECTION ( 'NONE',  ( -0.000000000000000000, -0.000000000000000000, -1.000000000000000000 ) ) ;
#660 = DIRECTION ( 'NONE',  ( 1.000000000000000000, 0.000000000000000000, 0.000000000000000000 ) ) ;
#661 = VERTEX_POINT ( 'NONE', #986 ) ;
#662 = CARTESIAN_POINT ( 'NONE',  ( 87.00000000000001421, 27.00000000000000355, 8.000000000000000000 ) ) ;
#663 = ORIENTED_EDGE ( 'NONE', *, *, #454, .T. ) ;
#664 = DIRECTION ( 'NONE',  ( 0.000000000000000000, -0.000000000000000000, 1.000000000000000000 ) ) ;
#665 = LINE ( 'NONE', #233, #546 ) ;
#666 = AXIS2_PLACEMENT_3D ( 'NONE', #1064, #967, #172 ) ;
#667 = ORIENTED_EDGE ( 'NONE', *, *, #984, .T. ) ;
#668 = ORIENTED_EDGE ( 'NONE', *, *, #925, .F. ) ;
#669 = CIRCLE ( 'NONE', #722, 3.000000000000002665 ) ;
#670 = ORIENTED_EDGE ( 'NONE', *, *, #570, .F. ) ;
#671 = ADVANCED_FACE ( 'NONE', ( #823 ), #41, .F. ) ;
#672 = ADVANCED_FACE ( 'NONE', ( #395 ), #22, .F. ) ;
#673 = DIRECTION ( 'NONE',  ( -1.000000000000000000, 0.000000000000000000, 0.000000000000000000 ) ) ;
#674 = DIRECTION ( 'NONE',  ( 0.000000000000000000, 0.000000000000000000, 1.000000000000000000 ) ) ;
#675 = VERTEX_POINT ( 'NONE', #18 ) ;
#676 = VERTEX_POINT ( 'NONE', #713 ) ;
#677 = ORIENTED_EDGE ( 'NONE', *, *, #646, .T. ) ;
#678 = DIRECTION ( 'NONE',  ( 1.000000000000000000, 0.000000000000000000, -0.000000000000000000 ) ) ;
#679 = CARTESIAN_POINT ( 'NONE',  ( 53.00000000000000711, 27.00000000000000355, 0.000000000000000000 ) ) ;
#680 = ORIENTED_EDGE ( 'NONE', *, *, #1070, .F. ) ;
#681 = APPROVAL ( #98, 'UNSPECIFIED' ) ;
#682 = ORIENTED_EDGE ( 'NONE', *, *, #708, .T. ) ;
#683 = DIRECTION ( 'NONE',  ( -0.000000000000000000, 1.000000000000000000, 0.000000000000000000 ) ) ;
#684 = DIRECTION ( 'NONE',  ( -0.000000000000000000, 0.000000000000000000, -1.000000000000000000 ) ) ;
#685 = EDGE_CURVE ( 'NONE', #488, #155, #28, .T. ) ;
#686 = ORIENTED_EDGE ( 'NONE', *, *, #79, .T. ) ;
#687 = LINE ( 'NONE', #3, #953 ) ;
#688 = AXIS2_PLACEMENT_3D ( 'NONE', #1037, #238, #308 ) ;
#689 = ORIENTED_EDGE ( 'NONE', *, *, #61, .T. ) ;
#690 = AXIS2_PLACEMENT_3D ( 'NONE', #410, #749, #315 ) ;
#691 = FACE_BOUND ( 'NONE', #771, .T. ) ;
#692 = CARTESIAN_POINT ( 'NONE',  ( 130.0000000000000000, 60.00000000000000000, 10.00000000000000000 ) ) ;
#693 = ORIENTED_EDGE ( 'NONE', *, *, #157, .T. ) ;
#694 = DIRECTION ( 'NONE',  ( 1.000000000000000000, 0.000000000000000000, 0.000000000000000000 ) ) ;
#695 = EDGE_CURVE ( 'NONE', #237, #701, #194, .T. ) ;
#696 = VERTEX_POINT ( 'NONE', #551 ) ;
#697 = CARTESIAN_POINT ( 'NONE',  ( 70.00000000000000000, 35.00000000000000000, 10.00000000000000000 ) ) ;
#698 = CARTESIAN_POINT ( 'NONE',  ( 130.0000000000000000, 60.00000000000000000, 0.000000000000000000 ) ) ;
#699 = APPROVAL_DATE_TIME ( #10, #77 ) ;
#700 = DIRECTION ( 'NONE',  ( 0.000000000000000000, 0.000000000000000000, 1.000000000000000000 ) ) ;
#701 = VERTEX_POINT ( 'NONE', #114 ) ;
#702 = CARTESIAN_POINT ( 'NONE',  ( 140.0000000000000000, 60.00000000000000711, 0.000000000000000000 ) ) ;
#703 = CARTESIAN_POINT ( 'NONE',  ( 95.00000000000000000, 35.00000000000000000, 0.000000000000000000 ) ) ;
#704 = CIRCLE ( 'NONE', #813, 3.000000000000002665 ) ;
#705 = ADVANCED_FACE ( 'NONE', ( #384 ), #127, .F. ) ;
#706 = LINE ( 'NONE', #84, #619 ) ;
#707 = AXIS2_PLACEMENT_3D ( 'NONE', #990, #193, #724 ) ;
#708 = EDGE_CURVE ( 'NONE', #411, #171, #566, .T. ) ;
#709 = PERSON_AND_ORGANIZATION ( #725, #952 ) ;
#710 = FACE_OUTER_BOUND ( 'NONE', #344, .T. ) ;
#711 = DIRECTION ( 'NONE',  ( 1.000000000000000000, 0.000000000000000000, -0.000000000000000000 ) ) ;
#712 = CARTESIAN_POINT ( 'NONE',  ( 73.00000000000001421, 10.00000000000000000, -1.000000000000000000 ) ) ;
#713 = CARTESIAN_POINT ( 'NONE',  ( 53.00000000000000711, 43.00000000000000000, 8.000000000000000000 ) ) ;
#714 = FACE_OUTER_BOUND ( 'NONE', #573, .T. ) ;
#715 = EDGE_CURVE ( 'NONE', #565, #773, #740, .T. ) ;
#716 = LINE ( 'NONE', #809, #512 ) ;
#717 = VERTEX_POINT ( 'NONE', #52 ) ;
#718 = PLANE ( 'NONE',  #796 ) ;
#719 = ORIENTED_EDGE ( 'NONE', *, *, #240, .F. ) ;
#720 = AXIS2_PLACEMENT_3D ( 'NONE', #58, #498, #414 ) ;
#721 = CARTESIAN_POINT ( 'NONE',  ( 18.00000000000000000, 55.00000000000000000, 9.999999999999998224 ) ) ;
#722 = AXIS2_PLACEMENT_3D ( 'NONE', #45, #1099, #496 ) ;
#723 = VECTOR ( 'NONE', #471, 1000.000000000000000 ) ;
#724 = DIRECTION ( 'NONE',  ( -1.000000000000000000, 0.000000000000000000, 0.000000000000000000 ) ) ;
#725 = PERSON ( 'UNSPECIFIED', 'UNSPECIFIED', 'UNSPECIFIED', ('UNSPECIFIED'), ('UNSPECIFIED'), ('UNSPECIFIED') ) ;
#726 = EDGE_CURVE ( 'NONE', #1132, #787, #669, .T. ) ;
#727 = DIRECTION ( 'NONE',  ( 0.000000000000000000, -1.000000000000000000, 0.000000000000000000 ) ) ;
#728 = DIRECTION ( 'NONE',  ( -1.000000000000000000, 0.000000000000000000, 0.000000000000000000 ) ) ;
#729 = DIRECTION ( 'NONE',  ( -0.000000000000000000, 0.000000000000000000, -1.000000000000000000 ) ) ;
#730 = DIRECTION ( 'NONE',  ( -0.000000000000000000, -0.000000000000000000, -1.000000000000000000 ) ) ;
#731 = ORIENTED_EDGE ( 'NONE', *, *, #470, .F. ) ;
#732 = CARTESIAN_POINT ( 'NONE',  ( 70.00000000000000000, 10.00000000000000000, -1.000000000000000000 ) ) ;
#733 = VECTOR ( 'NONE', #97, 1000.000000000000000 ) ;
#734 = CARTESIAN_POINT ( 'NONE',  ( 122.0000000000000000, 15.00000000000000000, -1.000000000000000000 ) ) ;
#735 = ADVANCED_FACE ( 'NONE', ( #746 ), #921, .F. ) ;
#736 = AXIS2_PLACEMENT_3D ( 'NONE', #732, #560, #903 ) ;
#737 = CC_DESIGN_APPROVAL ( #153, ( #889 ) ) ;
#738 = VECTOR ( 'NONE', #624, 1000.000000000000000 ) ;
#739 = ORIENTED_EDGE ( 'NONE', *, *, #1083, .F. ) ;
#740 = LINE ( 'NONE', #491, #575 ) ;
#741 = ORIENTED_EDGE ( 'NONE', *, *, #209, .F. ) ;
#742 = DIRECTION ( 'NONE',  ( -1.000000000000000000, -0.000000000000000000, 0.000000000000000000 ) ) ;
#743 = CARTESIAN_POINT ( 'NONE',  ( 130.0000000000000000, 69.99999999999998579, 10.00000000000000000 ) ) ;
#744 = ORIENTED_EDGE ( 'NONE', *, *, #310, .F. ) ;
#745 = VERTEX_POINT ( 'NONE', #137 ) ;
#746 = FACE_OUTER_BOUND ( 'NONE', #5, .T. ) ;
#747 = ORIENTED_EDGE ( 'NONE', *, *, #87, .T. ) ;
#748 = CARTESIAN_POINT ( 'NONE',  ( 10.00000000000000888, 70.00000000000000000, 0.000000000000000000 ) ) ;
#749 = DIRECTION ( 'NONE',  ( 0.000000000000000000, 0.000000000000000000, 1.000000000000000000 ) ) ;
#750 = ORIENTED_EDGE ( 'NONE', *, *, #209, .T. ) ;
#751 = EDGE_CURVE ( 'NONE', #231, #876, #836, .T. ) ;
#752 = EDGE_LOOP ( 'NONE', ( #515, #972, #651, #381 ) ) ;
#753 = EDGE_CURVE ( 'NONE', #411, #565, #1047, .T. ) ;
#754 = ORIENTED_EDGE ( 'NONE', *, *, #40, .T. ) ;
#755 = DIRECTION ( 'NONE',  ( -1.000000000000000000, 0.000000000000000000, 0.000000000000000000 ) ) ;
#756 = CARTESIAN_POINT ( 'NONE',  ( 10.00000000000000000, 60.00000000000000000, 10.00000000000000000 ) ) ;
#757 = AXIS2_PLACEMENT_3D ( 'NONE', #200, #1088, #377 ) ;
#758 = VERTEX_POINT ( 'NONE', #662 ) ;
#759 = AXIS2_PLACEMENT_3D ( 'NONE', #1080, #640, #121 ) ;
#760 = VERTEX_POINT ( 'NONE', #216 ) ;
#761 = CIRCLE ( 'NONE', #781, 10.00000000000000000 ) ;
#762 = VERTEX_POINT ( 'NONE', #569 ) ;
#763 = LINE ( 'NONE', #935, #1027 ) ;
#764 = FACE_OUTER_BOUND ( 'NONE', #867, .T. ) ;
#765 = ORIENTED_EDGE ( 'NONE', *, *, #62, .F. ) ;
#766 = ORIENTED_EDGE ( 'NONE', *, *, #375, .T. ) ;
#767 = VERTEX_POINT ( 'NONE', #1009 ) ;
#768 = EDGE_CURVE ( 'NONE', #787, #1132, #1134, .T. ) ;
#769 = DIRECTION ( 'NONE',  ( 0.000000000000000000, 0.000000000000000000, 1.000000000000000000 ) ) ;
#770 = FACE_OUTER_BOUND ( 'NONE', #1030, .T. ) ;
#771 = EDGE_LOOP ( 'NONE', ( #958, #961 ) ) ;
#772 = DIRECTION ( 'NONE',  ( -1.000000000000000000, 0.000000000000000000, 0.000000000000000000 ) ) ;
#773 = VERTEX_POINT ( 'NONE', #933 ) ;
#774 = LINE ( 'NONE', #996, #398 ) ;
#775 = ADVANCED_FACE ( 'NONE', ( #392 ), #201, .T. ) ;
#776 = ORIENTED_EDGE ( 'NONE', *, *, #184, .F. ) ;
#777 = CARTESIAN_POINT ( 'NONE',  ( 115.0000000000000000, 53.00000000000000711, 8.000000000000000000 ) ) ;
#778 = CIRCLE ( 'NONE', #65, 3.000000000000002665 ) ;
#779 = CIRCLE ( 'NONE', #815, 8.000000000000007105 ) ;
#780 = ORIENTED_EDGE ( 'NONE', *, *, #726, .T. ) ;
#781 = AXIS2_PLACEMENT_3D ( 'NONE', #756, #146, #849 ) ;
#782 = FACE_OUTER_BOUND ( 'NONE', #1117, .T. ) ;
#783 = DIRECTION ( 'NONE',  ( 1.000000000000000000, 0.000000000000000000, 0.000000000000000000 ) ) ;
#784 = DATE_AND_TIME ( #536, #303 ) ;
#785 = ORIENTED_EDGE ( 'NONE', *, *, #128, .F. ) ;
#786 = DIRECTION ( 'NONE',  ( 1.000000000000000000, 0.000000000000000000, 0.000000000000000000 ) ) ;
#787 = VERTEX_POINT ( 'NONE', #901 ) ;
#788 = DIRECTION ( 'NONE',  ( -0.000000000000000000, -0.000000000000000000, -1.000000000000000000 ) ) ;
#789 = DATE_AND_TIME ( #108, #834 ) ;
#790 = PLANE ( 'NONE',  #816 ) ;
#791 = ADVANCED_FACE ( 'NONE', ( #286 ), #208, .F. ) ;
#792 = EDGE_CURVE ( 'NONE', #88, #758, #553, .T. ) ;
#793 = CARTESIAN_POINT ( 'NONE',  ( 140.0000000000000000, 10.00000000000000178, 0.000000000000000000 ) ) ;
#794 = DATE_TIME_ROLE ( 'classification_date' ) ;
#795 = CYLINDRICAL_SURFACE ( 'NONE', #648, 10.00000000000000888 ) ;
#796 = AXIS2_PLACEMENT_3D ( 'NONE', #556, #727, #908 ) ;
#797 = VECTOR ( 'NONE', #993, 1000.000000000000000 ) ;
#798 = CARTESIAN_POINT ( 'NONE',  ( 53.00000000000000711, 43.00000000000000000, -1.000000000000000000 ) ) ;
#799 = CIRCLE ( 'NONE', #31, 3.000000000000002665 ) ;
#800 = APPROVAL_STATUS ( 'not_yet_approved' ) ;
#801 = CARTESIAN_POINT ( 'NONE',  ( 0.000000000000000000, 35.00000000000000000, 0.000000000000000000 ) ) ;
#802 = DIRECTION ( 'NONE',  ( 0.000000000000000000, 0.000000000000000000, -1.000000000000000000 ) ) ;
#803 = DIRECTION ( 'NONE',  ( 0.000000000000000000, 0.000000000000000000, 1.000000000000000000 ) ) ;
#804 = DIRECTION ( 'NONE',  ( 0.000000000000000000, 0.000000000000000000, 1.000000000000000000 ) ) ;
#805 = ORIENTED_EDGE ( 'NONE', *, *, #605, .T. ) ;
#806 = FACE_BOUND ( 'NONE', #71, .T. ) ;
#807 = ORIENTED_EDGE ( 'NONE', *, *, #1058, .T. ) ;
#808 = LINE ( 'NONE', #734, #622 ) ;
#809 = CARTESIAN_POINT ( 'NONE',  ( 140.0000000000000000, 35.00000000000000000, 0.000000000000000000 ) ) ;
#810 = EDGE_CURVE ( 'NONE', #568, #919, #112, .T. ) ;
#811 = DIRECTION ( 'NONE',  ( 0.000000000000000000, 0.000000000000000000, 1.000000000000000000 ) ) ;
#812 = ORIENTED_EDGE ( 'NONE', *, *, #157, .F. ) ;
#813 = AXIS2_PLACEMENT_3D ( 'NONE', #446, #788, #80 ) ;
#814 = CARTESIAN_POINT ( 'NONE',  ( 53.00000000000000000, 35.00000000000000000, 8.000000000000000000 ) ) ;
#815 = AXIS2_PLACEMENT_3D ( 'NONE', #468, #124, #479 ) ;
#816 = AXIS2_PLACEMENT_3D ( 'NONE', #1062, #861, #96 ) ;
#817 = LINE ( 'NONE', #712, #911 ) ;
#818 = DIRECTION ( 'NONE',  ( 0.000000000000000000, 0.000000000000000000, 1.000000000000000000 ) ) ;
#819 = EDGE_LOOP ( 'NONE', ( #416, #1045 ) ) ;
#820 = FACE_BOUND ( 'NONE', #243, .T. ) ;
#821 = CARTESIAN_POINT ( 'NONE',  ( 115.0000000000000000, 17.00000000000000355, 8.000000000000000000 ) ) ;
#822 = ORIENTED_EDGE ( 'NONE', *, *, #564, .T. ) ;
#823 = FACE_OUTER_BOUND ( 'NONE', #509, .T. ) ;
#824 = ADVANCED_FACE ( 'NONE', ( #714 ), #923, .F. ) ;
#825 = DIRECTION ( 'NONE',  ( 1.000000000000000000, 0.000000000000000000, 0.000000000000000000 ) ) ;
#826 = EDGE_LOOP ( 'NONE', ( #1041, #83, #677, #1090 ) ) ;
#827 = ORIENTED_EDGE ( 'NONE', *, *, #997, .F. ) ;
#828 = DIRECTION ( 'NONE',  ( 0.000000000000000000, 0.000000000000000000, 1.000000000000000000 ) ) ;
#829 = ORIENTED_EDGE ( 'NONE', *, *, #310, .T. ) ;
#830 = CIRCLE ( 'NONE', #133, 2.999999999999999112 ) ;
#831 = FACE_OUTER_BOUND ( 'NONE', #354, .T. ) ;
#832 = AXIS2_PLACEMENT_3D ( 'NONE', #909, #653, #549 ) ;
#833 = AXIS2_PLACEMENT_3D ( 'NONE', #21, #537, #371 ) ;
#834 = LOCAL_TIME ( 11, 36, 5.000000000000000000, #182 ) ;
#835 = ORIENTED_EDGE ( 'NONE', *, *, #352, .T. ) ;
#836 = LINE ( 'NONE', #657, #401 ) ;
#837 = DIRECTION ( 'NONE',  ( 0.000000000000000000, 0.000000000000000000, 1.000000000000000000 ) ) ;
#838 = EDGE_CURVE ( 'NONE', #561, #787, #808, .T. ) ;
#839 = DIRECTION ( 'NONE',  ( -1.000000000000000000, 0.000000000000000000, 0.000000000000000000 ) ) ;
#840 = EDGE_LOOP ( 'NONE', ( #64, #413, #955, #1136 ) ) ;
#841 = VERTEX_POINT ( 'NONE', #721 ) ;
#842 = DIRECTION ( 'NONE',  ( 0.000000000000000000, 0.000000000000000000, 1.000000000000000000 ) ) ;
#843 = PLANE ( 'NONE',  #1074 ) ;
#844 = LINE ( 'NONE', #59, #105 ) ;
#845 = ORIENTED_EDGE ( 'NONE', *, *, #87, .F. ) ;
#846 = ORIENTED_EDGE ( 'NONE', *, *, #695, .F. ) ;
#847 = VERTEX_POINT ( 'NONE', #821 ) ;
#848 = DIRECTION ( 'NONE',  ( 0.000000000000000000, 0.000000000000000000, 1.000000000000000000 ) ) ;
#849 = DIRECTION ( 'NONE',  ( -1.000000000000000000, 0.000000000000000000, 0.000000000000000000 ) ) ;
#850 = VECTOR ( 'NONE', #629, 1000.000000000000000 ) ;
#851 = EDGE_LOOP ( 'NONE', ( #747, #394, #693, #719 ) ) ;
#852 = ADVANCED_FACE ( 'NONE', ( #23 ), #1072, .F. ) ;
#853 = AXIS2_PLACEMENT_3D ( 'NONE', #47, #674, #660 ) ;
#854 = CIRCLE ( 'NONE', #382, 3.000000000000002665 ) ;
#855 = ORIENTED_EDGE ( 'NONE', *, *, #753, .F. ) ;
#856 = VECTOR ( 'NONE', #1120, 1000.000000000000000 ) ;
#857 = ORIENTED_EDGE ( 'NONE', *, *, #505, .F. ) ;
#858 = LINE ( 'NONE', #427, #379 ) ;
#859 = CARTESIAN_POINT ( 'NONE',  ( 25.00000000000000711, 35.00000000000000000, 10.00000000000000000 ) ) ;
#860 = ORIENTED_EDGE ( 'NONE', *, *, #883, .F. ) ;
#861 = DIRECTION ( 'NONE',  ( 0.000000000000000000, -1.000000000000000000, 0.000000000000000000 ) ) ;
#862 = DIRECTION ( 'NONE',  ( 0.000000000000000000, 0.000000000000000000, 1.000000000000000000 ) ) ;
#863 = ORIENTED_EDGE ( 'NONE', *, *, #914, .T. ) ;
#864 = EDGE_CURVE ( 'NONE', #919, #876, #1095, .T. ) ;
#865 = CARTESIAN_POINT ( 'NONE',  ( 122.0000000000000000, 15.00000000000000000, 0.000000000000000000 ) ) ;
#866 = CARTESIAN_POINT ( 'NONE',  ( 130.0000000000000000, 69.99999999999998579, 0.000000000000000000 ) ) ;
#867 = EDGE_LOOP ( 'NONE', ( #305, #400, #51, #63 ) ) ;
#868 = CARTESIAN_POINT ( 'NONE',  ( 10.00000000000000888, 70.00000000000000000, 10.00000000000000000 ) ) ;
#869 = ORIENTED_EDGE ( 'NONE', *, *, #751, .F. ) ;
#870 = CARTESIAN_POINT ( 'NONE',  ( 70.00000000000000000, 0.000000000000000000, 0.000000000000000000 ) ) ;
#871 = APPLICATION_PROTOCOL_DEFINITION ( 'international standard', 'config_control_design', 1994, #49 ) ;
#872 = CALENDAR_DATE ( 2026, 1, 8 ) ;
#873 = ORIENTED_EDGE ( 'NONE', *, *, #142, .T. ) ;
#874 = LINE ( 'NONE', #430, #439 ) ;
#875 = CIRCLE ( 'NONE', #666, 10.00000000000000000 ) ;
#876 = VERTEX_POINT ( 'NONE', #469 ) ;
#877 = AXIS2_PLACEMENT_3D ( 'NONE', #499, #587, #493 ) ;
#878 = DIRECTION ( 'NONE',  ( -1.000000000000000000, 0.000000000000000000, 0.000000000000000000 ) ) ;
#879 = CARTESIAN_POINT ( 'NONE',  ( 128.0000000000000000, 15.00000000000000000, 9.999999999999998224 ) ) ;
#880 = EDGE_CURVE ( 'NONE', #696, #762, #304, .T. ) ;
#881 = CALENDAR_DATE ( 2026, 1, 8 ) ;
#882 = DIRECTION ( 'NONE',  ( 1.000000000000000000, 0.000000000000000000, 0.000000000000000000 ) ) ;
#883 = EDGE_CURVE ( 'NONE', #676, #88, #341, .T. ) ;
#884 = DIRECTION ( 'NONE',  ( -1.000000000000000000, 0.000000000000000000, 0.000000000000000000 ) ) ;
#885 = CALENDAR_DATE ( 2026, 1, 8 ) ;
#886 = DIRECTION ( 'NONE',  ( 0.000000000000000000, -0.000000000000000000, 1.000000000000000000 ) ) ;
#887 = CARTESIAN_POINT ( 'NONE',  ( 73.00000000000001421, 60.00000000000000000, 0.000000000000000000 ) ) ;
#888 = PERSON_AND_ORGANIZATION ( #725, #952 ) ;
#889 = PRODUCT_DEFINITION ( 'UNKNOWN', '', #343, #291 ) ;
#890 = DIRECTION ( 'NONE',  ( 0.000000000000000000, 0.000000000000000000, 1.000000000000000000 ) ) ;
#891 = VECTOR ( 'NONE', #711, 1000.000000000000000 ) ;
#892 = ADVANCED_FACE ( 'NONE', ( #989 ), #1086, .F. ) ;
#893 = AXIS2_PLACEMENT_3D ( 'NONE', #211, #842, #306 ) ;
#894 = FACE_BOUND ( 'NONE', #819, .T. ) ;
#895 = AXIS2_PLACEMENT_3D ( 'NONE', #170, #256, #772 ) ;
#896 = APPROVAL_ROLE ( '' ) ;
#897 = DIRECTION ( 'NONE',  ( 1.000000000000000000, 0.000000000000000000, 0.000000000000000000 ) ) ;
#898 = CARTESIAN_POINT ( 'NONE',  ( 125.0000000000000000, 55.00000000000000000, -1.000000000000000000 ) ) ;
#899 = CYLINDRICAL_SURFACE ( 'NONE', #342, 10.00000000000000000 ) ;
#900 = EDGE_CURVE ( 'NONE', #338, #433, #27, .T. ) ;
#901 = CARTESIAN_POINT ( 'NONE',  ( 122.0000000000000000, 15.00000000000000000, 9.999999999999998224 ) ) ;
#902 = LINE ( 'NONE', #627, #154 ) ;
#903 = DIRECTION ( 'NONE',  ( 1.000000000000000000, 0.000000000000000000, 0.000000000000000000 ) ) ;
#904 = DIRECTION ( 'NONE',  ( 0.000000000000000000, 0.000000000000000000, 1.000000000000000000 ) ) ;
#905 = CARTESIAN_POINT ( 'NONE',  ( 115.0000000000000000, 53.00000000000000711, 10.00000000000000000 ) ) ;
#906 = ORIENTED_EDGE ( 'NONE', *, *, #753, .T. ) ;
#907 = UNCERTAINTY_MEASURE_WITH_UNIT (LENGTH_MEASURE( 1.000000000000000082E-05 ), #519, 'distance_accuracy_value', 'NONE');
#908 = DIRECTION ( 'NONE',  ( 0.000000000000000000, 0.000000000000000000, -1.000000000000000000 ) ) ;
#909 = CARTESIAN_POINT ( 'NONE',  ( 70.00000000000000000, 70.00000000000000000, 0.000000000000000000 ) ) ;
#910 = AXIS2_PLACEMENT_3D ( 'NONE', #36, #730, #295 ) ;
#911 = VECTOR ( 'NONE', #890, 1000.000000000000000 ) ;
#912 = EDGE_CURVE ( 'NONE', #561, #760, #971, .T. ) ;
#913 = CC_DESIGN_APPROVAL ( #77, ( #383 ) ) ;
#914 = EDGE_CURVE ( 'NONE', #203, #944, #373, .T. ) ;
#915 = ORIENTED_EDGE ( 'NONE', *, *, #562, .F. ) ;
#916 = DIRECTION ( 'NONE',  ( 1.000000000000000000, 0.000000000000000000, 0.000000000000000000 ) ) ;
#917 = MANIFOLD_SOLID_BREP ( 'EW_ACAD_SW_ABQ_09_SOLIDWORKS_TO_ABAQUS', #360 ) ;
#918 = CARTESIAN_POINT ( 'NONE',  ( 70.00000000000000000, 53.00000000000000711, 10.00000000000000000 ) ) ;
#919 = VERTEX_POINT ( 'NONE', #192 ) ;
#920 = ORIENTED_EDGE ( 'NONE', *, *, #1085, .T. ) ;
#921 = CYLINDRICAL_SURFACE ( 'NONE', #893, 3.000000000000002665 ) ;
#922 = ORIENTED_EDGE ( 'NONE', *, *, #655, .T. ) ;
#923 = CYLINDRICAL_SURFACE ( 'NONE', #985, 3.000000000000002665 ) ;
#924 = ORIENTED_EDGE ( 'NONE', *, *, #507, .T. ) ;
#925 = EDGE_CURVE ( 'NONE', #433, #338, #266, .T. ) ;
#926 = DIRECTION ( 'NONE',  ( 0.000000000000000000, 0.000000000000000000, 1.000000000000000000 ) ) ;
#927 = AXIS2_PLACEMENT_3D ( 'NONE', #976, #185, #539 ) ;
#928 = CARTESIAN_POINT ( 'NONE',  ( 18.00000000000000000, 55.00000000000000000, 0.000000000000000000 ) ) ;
#929 = DIRECTION ( 'NONE',  ( 1.000000000000000000, 0.000000000000000000, 0.000000000000000000 ) ) ;
#930 = VECTOR ( 'NONE', #278, 1000.000000000000000 ) ;
#931 = VECTOR ( 'NONE', #428, 1000.000000000000000 ) ;
#932 = VERTEX_POINT ( 'NONE', #563 ) ;
#933 = CARTESIAN_POINT ( 'NONE',  ( 73.00000000000001421, 60.00000000000000000, 9.999999999999998224 ) ) ;
#934 = ORIENTED_EDGE ( 'NONE', *, *, #294, .T. ) ;
#935 = CARTESIAN_POINT ( 'NONE',  ( 70.00000000000000000, 70.00000000000000000, 0.000000000000000000 ) ) ;
#936 = CARTESIAN_POINT ( 'NONE',  ( 87.00000000000000000, 35.00000000000000000, 8.000000000000000000 ) ) ;
#937 = EDGE_CURVE ( 'NONE', #126, #212, #397, .T. ) ;
#938 = EDGE_LOOP ( 'NONE', ( #483, #906, #350, #822 ) ) ;
#939 = ORIENTED_EDGE ( 'NONE', *, *, #768, .F. ) ;
#940 = CC_DESIGN_PERSON_AND_ORGANIZATION_ASSIGNMENT ( #709, #442, ( #889 ) ) ;
#941 = CARTESIAN_POINT ( 'NONE',  ( 115.0000000000000000, 35.00000000000000000, 8.000000000000000000 ) ) ;
#942 = CARTESIAN_POINT ( 'NONE',  ( 67.00000000000000000, 10.00000000000000000, 9.999999999999998224 ) ) ;
#943 = EDGE_LOOP ( 'NONE', ( #1010, #776 ) ) ;
#944 = VERTEX_POINT ( 'NONE', #743 ) ;
#945 = ORIENTED_EDGE ( 'NONE', *, *, #296, .T. ) ;
#946 = CYLINDRICAL_SURFACE ( 'NONE', #948, 2.999999999999999112 ) ;
#947 = DIRECTION ( 'NONE',  ( 0.000000000000000000, 0.000000000000000000, 1.000000000000000000 ) ) ;
#948 = AXIS2_PLACEMENT_3D ( 'NONE', #151, #818, #513 ) ;
#949 = VERTEX_POINT ( 'NONE', #679 ) ;
#950 = DIRECTION ( 'NONE',  ( 0.000000000000000000, 0.000000000000000000, 1.000000000000000000 ) ) ;
#951 = VECTOR ( 'NONE', #557, 1000.000000000000000 ) ;
#952 = ORGANIZATION ( 'UNSPECIFIED', 'UNSPECIFIED', '' ) ;
#953 = VECTOR ( 'NONE', #345, 1000.000000000000000 ) ;
#954 = ADVANCED_FACE ( 'NONE', ( #831, #1102 ), #1025, .F. ) ;
#955 = ORIENTED_EDGE ( 'NONE', *, *, #140, .F. ) ;
#956 = LINE ( 'NONE', #145, #131 ) ;
#957 = CARTESIAN_POINT ( 'NONE',  ( 70.00000000000000000, 35.00000000000000000, 8.000000000000000000 ) ) ;
#958 = ORIENTED_EDGE ( 'NONE', *, *, #405, .F. ) ;
#959 = DIRECTION ( 'NONE',  ( 0.000000000000000000, 0.000000000000000000, 1.000000000000000000 ) ) ;
#960 = LINE ( 'NONE', #250, #473 ) ;
#961 = ORIENTED_EDGE ( 'NONE', *, *, #189, .F. ) ;
#962 = DIRECTION ( 'NONE',  ( -1.000000000000000000, -0.000000000000000000, 0.000000000000000000 ) ) ;
#963 = COORDINATED_UNIVERSAL_TIME_OFFSET ( 8, 0, .AHEAD. ) ;
#964 = VERTEX_POINT ( 'NONE', #245 ) ;
#965 = LINE ( 'NONE', #76, #29 ) ;
#966 = ORIENTED_EDGE ( 'NONE', *, *, #391, .F. ) ;
#967 = DIRECTION ( 'NONE',  ( 0.000000000000000000, 0.000000000000000000, 1.000000000000000000 ) ) ;
#968 = EDGE_CURVE ( 'NONE', #565, #411, #204, .T. ) ;
#969 = CARTESIAN_POINT ( 'NONE',  ( 70.00000000000000000, 10.00000000000000000, 9.999999999999998224 ) ) ;
#970 = AXIS2_PLACEMENT_3D ( 'NONE', #1101, #659, #755 ) ;
#971 = CIRCLE ( 'NONE', #1075, 3.000000000000002665 ) ;
#972 = ORIENTED_EDGE ( 'NONE', *, *, #838, .T. ) ;
#973 = LINE ( 'NONE', #798, #850 ) ;
#974 = PERSON_AND_ORGANIZATION ( #725, #952 ) ;
#975 = CARTESIAN_POINT ( 'NONE',  ( 70.00000000000000000, 10.00000000000000000, -1.000000000000000000 ) ) ;
#976 = CARTESIAN_POINT ( 'NONE',  ( 70.00000000000000000, 60.00000000000000000, 9.999999999999998224 ) ) ;
#977 = PERSON_AND_ORGANIZATION ( #725, #952 ) ;
#978 = ADVANCED_FACE ( 'NONE', ( #309 ), #239, .F. ) ;
#979 = CARTESIAN_POINT ( 'NONE',  ( 87.00000000000000000, 35.00000000000000000, 0.000000000000000000 ) ) ;
#980 = DIRECTION ( 'NONE',  ( -0.000000000000000000, 1.000000000000000000, 0.000000000000000000 ) ) ;
#981 = APPLICATION_PROTOCOL_DEFINITION ( 'international standard', 'config_control_design', 1994, #463 ) ;
#982 = LINE ( 'NONE', #188, #13 ) ;
#983 = AXIS2_PLACEMENT_3D ( 'NONE', #367, #608, #1137 ) ;
#984 = EDGE_CURVE ( 'NONE', #399, #745, #1063, .T. ) ;
#985 = AXIS2_PLACEMENT_3D ( 'NONE', #466, #32, #825 ) ;
#987 = AXIS2_PLACEMENT_3D ( 'NONE', #25, #545, #113 ) ;
#986 = CARTESIAN_POINT ( 'NONE',  ( 18.00000000000000000, 15.00000000000000000, 9.999999999999998224 ) ) ;
#988 = APPROVAL_PERSON_ORGANIZATION ( #977, #681, #1060 ) ;
#989 = FACE_OUTER_BOUND ( 'NONE', #752, .T. ) ;
#990 = CARTESIAN_POINT ( 'NONE',  ( 15.00000000000000000, 15.00000000000000000, 0.000000000000000000 ) ) ;
#991 = ORIENTED_EDGE ( 'NONE', *, *, #937, .T. ) ;
#992 = CARTESIAN_POINT ( 'NONE',  ( 140.0000000000000000, 10.00000000000000178, 0.000000000000000000 ) ) ;
#993 = DIRECTION ( 'NONE',  ( 0.000000000000000000, 0.000000000000000000, 1.000000000000000000 ) ) ;
#994 = DIRECTION ( 'NONE',  ( -1.000000000000000000, 0.000000000000000000, 0.000000000000000000 ) ) ;
#995 = EDGE_LOOP ( 'NONE', ( #43, #210, #582, #147, #860 ) ) ;
#996 = CARTESIAN_POINT ( 'NONE',  ( 122.0000000000000000, 55.00000000000000000, -1.000000000000000000 ) ) ;
#997 = EDGE_CURVE ( 'NONE', #150, #331, #665, .T. ) ;
#998 = CARTESIAN_POINT ( 'NONE',  ( 125.0000000000000000, 15.00000000000000000, 0.000000000000000000 ) ) ;
#999 = EDGE_CURVE ( 'NONE', #331, #235, #1007, .T. ) ;
#1000 = ORIENTED_EDGE ( 'NONE', *, *, #541, .F. ) ;
#1001 = VECTOR ( 'NONE', #1119, 1000.000000000000000 ) ;
#1002 = CARTESIAN_POINT ( 'NONE',  ( 70.00000000000000000, 35.00000000000000000, 0.000000000000000000 ) ) ;
#1003 = CIRCLE ( 'NONE', #318, 9.999999999999994671 ) ;
#1004 = DIRECTION ( 'NONE',  ( -0.000000000000000000, -0.000000000000000000, -1.000000000000000000 ) ) ;
#1005 = VECTOR ( 'NONE', #567, 1000.000000000000000 ) ;
#1006 = AXIS2_PLACEMENT_3D ( 'NONE', #380, #804, #897 ) ;
#1007 = CIRCLE ( 'NONE', #636, 8.000000000000007105 ) ;
#1008 = EDGE_LOOP ( 'NONE', ( #827, #517, #750, #922 ) ) ;
#1009 = CARTESIAN_POINT ( 'NONE',  ( 128.0000000000000000, 55.00000000000000000, 0.000000000000000000 ) ) ;
#1010 = ORIENTED_EDGE ( 'NONE', *, *, #375, .F. ) ;
#1011 = PRODUCT_RELATED_PRODUCT_CATEGORY ( 'detail', '', ( #162 ) ) ;
#1012 = DIRECTION ( 'NONE',  ( 0.000000000000000000, 0.000000000000000000, 1.000000000000000000 ) ) ;
#1013 = ORIENTED_EDGE ( 'NONE', *, *, #461, .F. ) ;
#1014 = EDGE_CURVE ( 'NONE', #745, #399, #799, .T. ) ;
#1015 = EDGE_LOOP ( 'NONE', ( #1103, #327, #528, #424 ) ) ;
#1016 = DIRECTION ( 'NONE',  ( -1.000000000000000000, 0.000000000000000000, 0.000000000000000000 ) ) ;
#1017 = EDGE_LOOP ( 'NONE', ( #686, #584, #1034, #165 ) ) ;
#1018 = DIRECTION ( 'NONE',  ( -0.000000000000000000, 0.000000000000000000, -1.000000000000000000 ) ) ;
#1019 = CARTESIAN_POINT ( 'NONE',  ( 12.00000000000000000, 15.00000000000000000, 9.999999999999998224 ) ) ;
#1020 = VERTEX_POINT ( 'NONE', #942 ) ;
#1021 = CARTESIAN_POINT ( 'NONE',  ( 125.0000000000000000, 15.00000000000000000, 9.999999999999998224 ) ) ;
#1022 = ADVANCED_FACE ( 'NONE', ( #415 ), #1109, .T. ) ;
#1023 = ORIENTED_EDGE ( 'NONE', *, *, #474, .T. ) ;
#1024 = CYLINDRICAL_SURFACE ( 'NONE', #487, 8.000000000000007105 ) ;
#1025 = PLANE ( 'NONE',  #420 ) ;
#1026 = AXIS2_PLACEMENT_3D ( 'NONE', #228, #601, #486 ) ;
#1027 = VECTOR ( 'NONE', #159, 1000.000000000000000 ) ;
#1028 = ORIENTED_EDGE ( 'NONE', *, *, #507, .F. ) ;
#1029 = LOCAL_TIME ( 11, 36, 5.000000000000000000, #963 ) ;
#1030 = EDGE_LOOP ( 'NONE', ( #1023, #590, #680, #658 ) ) ;
#1031 = VERTEX_POINT ( 'NONE', #1019 ) ;
#1032 = CARTESIAN_POINT ( 'NONE',  ( 130.0000000000000000, 10.00000000000000000, 10.00000000000000000 ) ) ;
#1033 = CYLINDRICAL_SURFACE ( 'NONE', #690, 3.000000000000002665 ) ;
#1034 = ORIENTED_EDGE ( 'NONE', *, *, #554, .F. ) ;
#1035 = ORIENTED_EDGE ( 'NONE', *, *, #62, .T. ) ;
#1036 = ORIENTED_EDGE ( 'NONE', *, *, #864, .F. ) ;
#1037 = CARTESIAN_POINT ( 'NONE',  ( 70.00000000000000000, 10.00000000000000000, 9.999999999999998224 ) ) ;
#1038 = DIRECTION ( 'NONE',  ( -1.000000000000000000, 0.000000000000000000, 0.000000000000000000 ) ) ;
#1039 = ADVANCED_FACE ( 'NONE', ( #764 ), #135, .T. ) ;
#1040 = ORIENTED_EDGE ( 'NONE', *, *, #864, .T. ) ;
#1041 = ORIENTED_EDGE ( 'NONE', *, *, #900, .T. ) ;
#1042 = CARTESIAN_POINT ( 'NONE',  ( 12.00000000000000000, 55.00000000000000000, 0.000000000000000000 ) ) ;
#1043 = DIRECTION ( 'NONE',  ( -1.000000000000000000, 0.000000000000000000, 0.000000000000000000 ) ) ;
#1044 = AXIS2_PLACEMENT_3D ( 'NONE', #1084, #289, #631 ) ;
#1045 = ORIENTED_EDGE ( 'NONE', *, *, #912, .F. ) ;
#1046 = CARTESIAN_POINT ( 'NONE',  ( 70.00000000000000000, 43.00000000000000000, -1.000000000000000000 ) ) ;
#1047 = CIRCLE ( 'NONE', #633, 3.000000000000002665 ) ;
#1048 = CIRCLE ( 'NONE', #178, 9.999999999999994671 ) ;
#1049 = EDGE_LOOP ( 'NONE', ( #179, #138, #497, #785, #857, #1000, #436, #316 ) ) ;
#1050 = FACE_BOUND ( 'NONE', #169, .T. ) ;
#1051 = DATE_AND_TIME ( #885, #300 ) ;
#1052 = ORIENTED_EDGE ( 'NONE', *, *, #614, .F. ) ;
#1053 = FACE_OUTER_BOUND ( 'NONE', #1057, .T. ) ;
#1054 = VERTEX_POINT ( 'NONE', #152 ) ;
#1055 = CARTESIAN_POINT ( 'NONE',  ( 18.00000000000000000, 55.00000000000000000, -1.000000000000000000 ) ) ;
#1056 = CARTESIAN_POINT ( 'NONE',  ( 25.00000000000000711, 53.00000000000000711, 10.00000000000000000 ) ) ;
#1057 = EDGE_LOOP ( 'NONE', ( #744, #656, #229, #1100 ) ) ;
#1058 = EDGE_CURVE ( 'NONE', #171, #773, #598, .T. ) ;
#1059 = DIRECTION ( 'NONE',  ( 0.000000000000000000, 0.000000000000000000, 1.000000000000000000 ) ) ;
#1060 = APPROVAL_ROLE ( '' ) ;
#1061 = CIRCLE ( 'NONE', #120, 2.999999999999999112 ) ;
#1062 = CARTESIAN_POINT ( 'NONE',  ( 70.00000000000000000, 27.00000000000000355, -1.000000000000000000 ) ) ;
#1063 = CIRCLE ( 'NONE', #853, 3.000000000000002665 ) ;
#1064 = CARTESIAN_POINT ( 'NONE',  ( 10.00000000000000000, 10.00000000000000000, 0.000000000000000000 ) ) ;
#1065 = ADVANCED_FACE ( 'NONE', ( #514 ), #1033, .F. ) ;
#1066 = DIRECTION ( 'NONE',  ( 0.000000000000000000, 0.000000000000000000, 1.000000000000000000 ) ) ;
#1067 = LINE ( 'NONE', #518, #149 ) ;
#1068 = PERSON_AND_ORGANIZATION_ROLE ( 'design_owner' ) ;
#1069 = CARTESIAN_POINT ( 'NONE',  ( 25.00000000000000711, 35.00000000000000000, 8.000000000000000000 ) ) ;
#1070 = EDGE_CURVE ( 'NONE', #949, #88, #844, .T. ) ;
#1071 = DIRECTION ( 'NONE',  ( 0.000000000000000000, 0.000000000000000000, 1.000000000000000000 ) ) ;
#1072 = CYLINDRICAL_SURFACE ( 'NONE', #650, 2.999999999999999112 ) ;
#1073 = DIRECTION ( 'NONE',  ( -1.000000000000000000, 0.000000000000000000, 0.000000000000000000 ) ) ;
#1074 = AXIS2_PLACEMENT_3D ( 'NONE', #314, #683, #664 ) ;
#1075 = AXIS2_PLACEMENT_3D ( 'NONE', #998, #1004, #1089 ) ;
#1077 = AXIS2_PLACEMENT_3D ( 'NONE', #979, #103, #1073 ) ;
#1076 = FACE_OUTER_BOUND ( 'NONE', #195, .T. ) ;
#1078 = DIRECTION ( 'NONE',  ( 0.000000000000000000, 0.000000000000000000, 1.000000000000000000 ) ) ;
#1079 = AXIS2_PLACEMENT_3D ( 'NONE', #173, #447, #438 ) ;
#1080 = CARTESIAN_POINT ( 'NONE',  ( 15.00000000000000000, 55.00000000000000000, -1.000000000000000000 ) ) ;
#1081 = CARTESIAN_POINT ( 'NONE',  ( 67.00000000000000000, 10.00000000000000000, 0.000000000000000000 ) ) ;
#1082 = EDGE_LOOP ( 'NONE', ( #520, #30, #75, #123 ) ) ;
#1083 = EDGE_CURVE ( 'NONE', #876, #203, #761, .T. ) ;
#1084 = CARTESIAN_POINT ( 'NONE',  ( 10.00000000000000000, 60.00000000000000000, 0.000000000000000000 ) ) ;
#1085 = EDGE_CURVE ( 'NONE', #212, #696, #67, .T. ) ;
#1086 = CYLINDRICAL_SURFACE ( 'NONE', #457, 3.000000000000002665 ) ;
#1087 = ORIENTED_EDGE ( 'NONE', *, *, #900, .F. ) ;
#1088 = DIRECTION ( 'NONE',  ( 0.000000000000000000, 0.000000000000000000, 1.000000000000000000 ) ) ;
#1089 = DIRECTION ( 'NONE',  ( -1.000000000000000000, 0.000000000000000000, 0.000000000000000000 ) ) ;
#1090 = ORIENTED_EDGE ( 'NONE', *, *, #454, .F. ) ;
#1091 = VECTOR ( 'NONE', #1059, 1000.000000000000000 ) ;
#1092 = FACE_BOUND ( 'NONE', #288, .T. ) ;
#1093 = VECTOR ( 'NONE', #191, 1000.000000000000000 ) ;
#1094 = EDGE_CURVE ( 'NONE', #932, #235, #422, .T. ) ;
#1095 = LINE ( 'NONE', #42, #511 ) ;
#1096 =( GEOMETRIC_REPRESENTATION_CONTEXT ( 3 ) GLOBAL_UNCERTAINTY_ASSIGNED_CONTEXT ( ( #907 ) ) GLOBAL_UNIT_ASSIGNED_CONTEXT ( ( #519, #616, #253 ) ) REPRESENTATION_CONTEXT ( 'NONE', 'WORKASPACE' ) );
#1097 = AXIS2_PLACEMENT_3D ( 'NONE', #604, #527, #694 ) ;
#1098 = EDGE_LOOP ( 'NONE', ( #920, #257, #765, #419 ) ) ;
#1099 = DIRECTION ( 'NONE',  ( 0.000000000000000000, 0.000000000000000000, 1.000000000000000000 ) ) ;
#1100 = ORIENTED_EDGE ( 'NONE', *, *, #405, .T. ) ;
#1101 = CARTESIAN_POINT ( 'NONE',  ( 70.00000000000000000, 10.00000000000000000, 0.000000000000000000 ) ) ;
#1102 = FACE_BOUND ( 'NONE', #995, .T. ) ;
#1103 = ORIENTED_EDGE ( 'NONE', *, *, #880, .F. ) ;
#1104 = ADVANCED_FACE ( 'NONE', ( #770 ), #334, .F. ) ;
#1105 = ORIENTED_EDGE ( 'NONE', *, *, #353, .F. ) ;
#1106 = DIRECTION ( 'NONE',  ( -0.000000000000000000, -0.000000000000000000, -1.000000000000000000 ) ) ;
#1107 = VERTEX_POINT ( 'NONE', #1129 ) ;
#1108 = FACE_OUTER_BOUND ( 'NONE', #396, .T. ) ;
#1109 = PLANE ( 'NONE',  #283 ) ;
#1110 = VERTEX_POINT ( 'NONE', #348 ) ;
#1111 = ORIENTED_EDGE ( 'NONE', *, *, #249, .T. ) ;
#1112 = ORIENTED_EDGE ( 'NONE', *, *, #26, .T. ) ;
#1113 = PLANE ( 'NONE',  #508 ) ;
#1114 = DIRECTION ( 'NONE',  ( 0.000000000000000000, 0.000000000000000000, 1.000000000000000000 ) ) ;
#1115 = ORIENTED_EDGE ( 'NONE', *, *, #140, .T. ) ;
#1116 = VERTEX_POINT ( 'NONE', #866 ) ;
#1117 = EDGE_LOOP ( 'NONE', ( #478, #1040, #869, #689 ) ) ;
#1118 = EDGE_CURVE ( 'NONE', #642, #1116, #531, .T. ) ;
#1119 = DIRECTION ( 'NONE',  ( -1.000000000000000000, 0.000000000000000000, 0.000000000000000000 ) ) ;
#1120 = DIRECTION ( 'NONE',  ( 0.000000000000000000, -1.000000000000000000, 0.000000000000000000 ) ) ;
#1121 = ORIENTED_EDGE ( 'NONE', *, *, #1094, .F. ) ;
#1122 = ORIENTED_EDGE ( 'NONE', *, *, #552, .F. ) ;
#1123 = CARTESIAN_POINT ( 'NONE',  ( 67.00000000000000000, 60.00000000000000000, 0.000000000000000000 ) ) ;
#1124 = CARTESIAN_POINT ( 'NONE',  ( 70.00000000000000000, 60.00000000000000000, 0.000000000000000000 ) ) ;
#1125 = ORIENTED_EDGE ( 'NONE', *, *, #26, .F. ) ;
#1126 = CARTESIAN_POINT ( 'NONE',  ( 115.0000000000000000, 17.00000000000000355, 8.000000000000000000 ) ) ;
#1127 = EDGE_LOOP ( 'NONE', ( #1087, #668 ) ) ;
#1128 = PLANE ( 'NONE',  #361 ) ;
#1129 = CARTESIAN_POINT ( 'NONE',  ( 73.00000000000001421, 10.00000000000000000, 9.999999999999998224 ) ) ;
#1130 = PRODUCT_DEFINITION_SHAPE ( 'NONE', 'NONE',  #889 ) ;
#1131 = EDGE_CURVE ( 'NONE', #944, #332, #1048, .T. ) ;
#1132 = VERTEX_POINT ( 'NONE', #879 ) ;
#1133 = DIRECTION ( 'NONE',  ( -0.000000000000000000, -0.000000000000000000, -1.000000000000000000 ) ) ;
#1134 = CIRCLE ( 'NONE', #281, 3.000000000000002665 ) ;
#1135 = AXIS2_PLACEMENT_3D ( 'NONE', #538, #1133, #175 ) ;
#1136 = ORIENTED_EDGE ( 'NONE', *, *, #221, .T. ) ;
#1137 = DIRECTION ( 'NONE',  ( 1.000000000000000000, 0.000000000000000000, 0.000000000000000000 ) ) ;
#1138 = CARTESIAN_POINT ( 'NONE',  ( 53.00000000000000000, 35.00000000000000000, -1.000000000000000000 ) ) ;
ENDSEC;
END-ISO-10303-21;
