ISO-10303-21;
HEADER;
FILE_DESCRIPTION(('ViewDefinition[DesignTransferView]'),'2;1');
FILE_NAME('/dev/null','2026-04-21T15:01:14+00:00',(''),(''),'IfcOpenShell 0.8.5','IfcOpenShell 0.8.5','Nobody');
FILE_SCHEMA(('IFC4'));
ENDSEC;
DATA;
#1=IFCPROJECT('36XEvP2qvAt9s5WEP8tRo2',$,'Generic Plate',$,$,$,$,(#10),#5);
#2=IFCSIUNIT(*,.LENGTHUNIT.,.MILLI.,.METRE.);
#3=IFCSIUNIT(*,.AREAUNIT.,$,.SQUARE_METRE.);
#4=IFCSIUNIT(*,.VOLUMEUNIT.,$,.CUBIC_METRE.);
#5=IFCUNITASSIGNMENT((#4,#2,#3));
#6=IFCCARTESIANPOINT((0.,0.,0.));
#7=IFCDIRECTION((0.,0.,1.));
#8=IFCDIRECTION((1.,0.,0.));
#9=IFCAXIS2PLACEMENT3D(#6,#7,#8);
#10=IFCGEOMETRICREPRESENTATIONCONTEXT($,'Model',3,1.0000000000000001E-05,#9,$);
#11=IFCGEOMETRICREPRESENTATIONSUBCONTEXT('Body','Model',*,*,*,*,#10,$,.MODEL_VIEW.,$);
#12=IFCSITE('1AKBH8Q7TEpBwD182U$tC1',$,'Default Site',$,$,$,$,$,$,$,$,$,$,$);
#13=IFCBUILDING('3OtKxe1dn0k8z6dDkhPgqE',$,'Default Building',$,$,$,$,$,$,$,$,$);
#14=IFCRELAGGREGATES('2iCtdyQOz5nAKQVkC5cnhn',$,$,$,#1,(#12));
#15=IFCRELAGGREGATES('122reEDXX1y9Z8c6qsjxIT',$,$,$,#12,(#13));
#16=IFCBUILDINGSTOREY('3ycaFZjA1D7AqLslUVIQ3Q',$,'Level 1',$,$,#30,$,$,$,$);
#22=IFCPROPERTYSET('14XTek0YLENPIXb$2k7jj7',$,'EPset_StoreyMeta',$,(#24));
#23=IFCRELDEFINESBYPROPERTIES('1y9g9_FYn5gwOUyOKCvvML',$,$,$,(#16),#22);
#24=IFCPROPERTYSINGLEVALUE('ElevationM',$,IFCREAL(0.),$);
#25=IFCRELAGGREGATES('2c6gsgnzf8X88igHWvz$Mq',$,$,$,#13,(#16));
#26=IFCCARTESIANPOINT((0.,0.,0.));
#27=IFCDIRECTION((0.,0.,1.));
#28=IFCDIRECTION((1.,0.,0.));
#29=IFCAXIS2PLACEMENT3D(#26,#27,#28);
#30=IFCLOCALPLACEMENT($,#29);
#31=IFCSLAB('3EcAOUsbL09gTFFKR0zzbg',$,'Main Slab',$,$,#49,#38,$,$);
#32=IFCCARTESIANPOINTLIST2D(((0.,0.),(20000.,0.),(20000.,14000.),(0.,14000.),(0.,0.)));
#33=IFCINDEXEDPOLYCURVE(#32,$,$);
#34=IFCDIRECTION((0.,0.,1.));
#35=IFCARBITRARYCLOSEDPROFILEDEF(.AREA.,$,#33);
#36=IFCEXTRUDEDAREASOLID(#35,$,#34,200.);
#37=IFCSHAPEREPRESENTATION(#11,'Body','SweptSolid',(#36));
#38=IFCPRODUCTDEFINITIONSHAPE($,$,(#37));
#44=IFCRELCONTAINEDINSPATIALSTRUCTURE('30a1M0xkz8HwUzCjg_7sUv',$,$,$,(#151,#89,#233,#58,#31,#120),#16);
#45=IFCCARTESIANPOINT((0.,0.,0.));
#46=IFCDIRECTION((0.,0.,1.));
#47=IFCDIRECTION((1.,0.,0.));
#48=IFCAXIS2PLACEMENT3D(#45,#46,#47);
#49=IFCLOCALPLACEMENT(#30,#48);
#50=IFCPROPERTYSET('3kYvT2ZL5Fg8hdQF8MVKSj',$,'EPset_Plan',$,(#52,#53));
#51=IFCRELDEFINESBYPROPERTIES('1q8SIp4mr2FuTmmR2ibHbH',$,$,$,(#31),#50);
#52=IFCPROPERTYSINGLEVALUE('Polygon2D',$,IFCLABEL('0.0000,0.0000;20.0000,0.0000;20.0000,14.0000;0.0000,14.0000'),$);
#53=IFCPROPERTYSINGLEVALUE('Category',$,IFCLABEL('IfcSlab'),$);
#54=IFCELEMENTQUANTITY('3$yhXgIGL96vayFcl03QEI',$,'Qto_SlabBaseQuantities',$,'BaseQuantities',(#56,#57));
#55=IFCRELDEFINESBYPROPERTIES('3Gqe7Sh9LA8eMLf8Tr02zb',$,$,$,(#31),#54);
#56=IFCQUANTITYAREA('NetArea',$,$,280.,$);
#57=IFCQUANTITYVOLUME('NetVolume',$,$,56.,$);
#58=IFCWALL('3GrHAdodD54e6JRBspDpy4',$,'Shell-S',$,$,#75,#65,$,$);
#59=IFCCARTESIANPOINTLIST2D(((0.,0.),(20000.,0.),(20000.,200.),(0.,200.),(0.,0.)));
#60=IFCINDEXEDPOLYCURVE(#59,$,$);
#61=IFCDIRECTION((0.,0.,1.));
#62=IFCARBITRARYCLOSEDPROFILEDEF(.AREA.,$,#60);
#63=IFCEXTRUDEDAREASOLID(#62,$,#61,3000.);
#64=IFCSHAPEREPRESENTATION(#11,'Body','SweptSolid',(#63));
#65=IFCPRODUCTDEFINITIONSHAPE($,$,(#64));
#71=IFCCARTESIANPOINT((0.,0.,200.));
#72=IFCDIRECTION((0.,0.,1.));
#73=IFCDIRECTION((1.,0.,0.));
#74=IFCAXIS2PLACEMENT3D(#71,#72,#73);
#75=IFCLOCALPLACEMENT(#30,#74);
#76=IFCPROPERTYSET('2uWznHqp9AygTpeXohdNUW',$,'EPset_Plan',$,(#78,#79));
#77=IFCRELDEFINESBYPROPERTIES('2iNtorB$P5xBJa9wnH8ycb',$,$,$,(#58),#76);
#78=IFCPROPERTYSINGLEVALUE('Polygon2D',$,IFCLABEL('0.0000,0.0000;20.0000,0.0000;20.0000,0.2000;0.0000,0.2000'),$);
#79=IFCPROPERTYSINGLEVALUE('Category',$,IFCLABEL('IfcWall'),$);
#80=IFCPROPERTYSET('1Ov5_swS9B1hwxFuvOaia7',$,'EPset_WallAxis',$,(#82,#83,#84,#85,#86,#87,#88));
#81=IFCRELDEFINESBYPROPERTIES('3ghORPjV53nfUypySBgYwr',$,$,$,(#58),#80);
#82=IFCPROPERTYSINGLEVALUE('StartX',$,IFCINTEGER(0),$);
#83=IFCPROPERTYSINGLEVALUE('StartY',$,IFCINTEGER(0),$);
#84=IFCPROPERTYSINGLEVALUE('EndX',$,IFCINTEGER(20),$);
#85=IFCPROPERTYSINGLEVALUE('EndY',$,IFCINTEGER(0),$);
#86=IFCPROPERTYSINGLEVALUE('Thickness',$,IFCREAL(0.20000000000000001),$);
#87=IFCPROPERTYSINGLEVALUE('Height',$,IFCREAL(3.),$);
#88=IFCPROPERTYSINGLEVALUE('IsExternal',$,IFCBOOLEAN(.T.),$);
#89=IFCWALL('3yVwYzP410jQRNcTntGY9Y',$,'Shell-N',$,$,#106,#96,$,$);
#90=IFCCARTESIANPOINTLIST2D(((0.,13800.),(20000.,13800.),(20000.,14000.),(0.,14000.),(0.,13800.)));
#91=IFCINDEXEDPOLYCURVE(#90,$,$);
#92=IFCDIRECTION((0.,0.,1.));
#93=IFCARBITRARYCLOSEDPROFILEDEF(.AREA.,$,#91);
#94=IFCEXTRUDEDAREASOLID(#93,$,#92,3000.);
#95=IFCSHAPEREPRESENTATION(#11,'Body','SweptSolid',(#94));
#96=IFCPRODUCTDEFINITIONSHAPE($,$,(#95));
#102=IFCCARTESIANPOINT((0.,0.,200.));
#103=IFCDIRECTION((0.,0.,1.));
#104=IFCDIRECTION((1.,0.,0.));
#105=IFCAXIS2PLACEMENT3D(#102,#103,#104);
#106=IFCLOCALPLACEMENT(#30,#105);
#107=IFCPROPERTYSET('0vCc49TiLDZggywEd$9SM$',$,'EPset_Plan',$,(#109,#110));
#108=IFCRELDEFINESBYPROPERTIES('1_LR7b6VP8xBiJoFTmgUQ9',$,$,$,(#89),#107);
#109=IFCPROPERTYSINGLEVALUE('Polygon2D',$,IFCLABEL('0.0000,13.8000;20.0000,13.8000;20.0000,14.0000;0.0000,14.0000'),$);
#110=IFCPROPERTYSINGLEVALUE('Category',$,IFCLABEL('IfcWall'),$);
#111=IFCPROPERTYSET('11sbKP6o5C9BfGngENxlnL',$,'EPset_WallAxis',$,(#113,#114,#115,#116,#117,#118,#119));
#112=IFCRELDEFINESBYPROPERTIES('3BQcx4h054dhIemNpC6RtO',$,$,$,(#89),#111);
#113=IFCPROPERTYSINGLEVALUE('StartX',$,IFCINTEGER(0),$);
#114=IFCPROPERTYSINGLEVALUE('StartY',$,IFCREAL(13.800000000000001),$);
#115=IFCPROPERTYSINGLEVALUE('EndX',$,IFCINTEGER(20),$);
#116=IFCPROPERTYSINGLEVALUE('EndY',$,IFCREAL(13.800000000000001),$);
#117=IFCPROPERTYSINGLEVALUE('Thickness',$,IFCREAL(0.20000000000000001),$);
#118=IFCPROPERTYSINGLEVALUE('Height',$,IFCREAL(3.),$);
#119=IFCPROPERTYSINGLEVALUE('IsExternal',$,IFCBOOLEAN(.T.),$);
#120=IFCWALL('2tqZC0sobEpuaefBc8PNzG',$,'Shell-W',$,$,#137,#127,$,$);
#121=IFCCARTESIANPOINTLIST2D(((0.,0.),(8.5725275940314725E-13,14000.),(-199.99999999999915,14000.),(-200.,1.2246467991473532E-14),(0.,0.)));
#122=IFCINDEXEDPOLYCURVE(#121,$,$);
#123=IFCDIRECTION((0.,0.,1.));
#124=IFCARBITRARYCLOSEDPROFILEDEF(.AREA.,$,#122);
#125=IFCEXTRUDEDAREASOLID(#124,$,#123,3000.);
#126=IFCSHAPEREPRESENTATION(#11,'Body','SweptSolid',(#125));
#127=IFCPRODUCTDEFINITIONSHAPE($,$,(#126));
#133=IFCCARTESIANPOINT((0.,0.,200.));
#134=IFCDIRECTION((0.,0.,1.));
#135=IFCDIRECTION((1.,0.,0.));
#136=IFCAXIS2PLACEMENT3D(#133,#134,#135);
#137=IFCLOCALPLACEMENT(#30,#136);
#138=IFCPROPERTYSET('2DKy0x5gDBcAQor5WnmDhB',$,'EPset_Plan',$,(#140,#141));
#139=IFCRELDEFINESBYPROPERTIES('2CBrGCfwfEVgXbsPjtv0cL',$,$,$,(#120),#138);
#140=IFCPROPERTYSINGLEVALUE('Polygon2D',$,IFCLABEL('0.0000,0.0000;0.0000,14.0000;-0.2000,14.0000;-0.2000,0.0000'),$);
#141=IFCPROPERTYSINGLEVALUE('Category',$,IFCLABEL('IfcWall'),$);
#142=IFCPROPERTYSET('1DvYV0h5PDBfQCBm3aAToX',$,'EPset_WallAxis',$,(#144,#145,#146,#147,#148,#149,#150));
#143=IFCRELDEFINESBYPROPERTIES('1mK3UZZdz4xPuGbzbnzo2a',$,$,$,(#120),#142);
#144=IFCPROPERTYSINGLEVALUE('StartX',$,IFCINTEGER(0),$);
#145=IFCPROPERTYSINGLEVALUE('StartY',$,IFCINTEGER(0),$);
#146=IFCPROPERTYSINGLEVALUE('EndX',$,IFCINTEGER(0),$);
#147=IFCPROPERTYSINGLEVALUE('EndY',$,IFCINTEGER(14),$);
#148=IFCPROPERTYSINGLEVALUE('Thickness',$,IFCREAL(0.20000000000000001),$);
#149=IFCPROPERTYSINGLEVALUE('Height',$,IFCREAL(3.),$);
#150=IFCPROPERTYSINGLEVALUE('IsExternal',$,IFCBOOLEAN(.T.),$);
#151=IFCWALL('3vVVWCWLX98vuaLfvUG30w',$,'Shell-E',$,$,#168,#158,$,$);
#152=IFCCARTESIANPOINTLIST2D(((19800.,0.),(19800.,14000.),(19600.,14000.),(19600.,1.2246467991473532E-14),(19800.,0.)));
#153=IFCINDEXEDPOLYCURVE(#152,$,$);
#154=IFCDIRECTION((0.,0.,1.));
#155=IFCARBITRARYCLOSEDPROFILEDEF(.AREA.,$,#153);
#156=IFCEXTRUDEDAREASOLID(#155,$,#154,3000.);
#157=IFCSHAPEREPRESENTATION(#11,'Body','SweptSolid',(#156));
#158=IFCPRODUCTDEFINITIONSHAPE($,$,(#157));
#164=IFCCARTESIANPOINT((0.,0.,200.));
#165=IFCDIRECTION((0.,0.,1.));
#166=IFCDIRECTION((1.,0.,0.));
#167=IFCAXIS2PLACEMENT3D(#164,#165,#166);
#168=IFCLOCALPLACEMENT(#30,#167);
#169=IFCPROPERTYSET('3O0w1d511Cfumicvo2vAw1',$,'EPset_Plan',$,(#171,#172));
#170=IFCRELDEFINESBYPROPERTIES('2hDNREdezDOO9mUnOwL_0R',$,$,$,(#151),#169);
#171=IFCPROPERTYSINGLEVALUE('Polygon2D',$,IFCLABEL('19.8000,0.0000;19.8000,14.0000;19.6000,14.0000;19.6000,0.0000'),$);
#172=IFCPROPERTYSINGLEVALUE('Category',$,IFCLABEL('IfcWall'),$);
#173=IFCPROPERTYSET('0ZREAH965EKAKtv6kCbgad',$,'EPset_WallAxis',$,(#175,#176,#177,#178,#179,#180,#181));
#174=IFCRELDEFINESBYPROPERTIES('1rkcfQrrDFZPMvMTGXtpj1',$,$,$,(#151),#173);
#175=IFCPROPERTYSINGLEVALUE('StartX',$,IFCREAL(19.800000000000001),$);
#176=IFCPROPERTYSINGLEVALUE('StartY',$,IFCINTEGER(0),$);
#177=IFCPROPERTYSINGLEVALUE('EndX',$,IFCREAL(19.800000000000001),$);
#178=IFCPROPERTYSINGLEVALUE('EndY',$,IFCINTEGER(14),$);
#179=IFCPROPERTYSINGLEVALUE('Thickness',$,IFCREAL(0.20000000000000001),$);
#180=IFCPROPERTYSINGLEVALUE('Height',$,IFCREAL(3.),$);
#181=IFCPROPERTYSINGLEVALUE('IsExternal',$,IFCBOOLEAN(.T.),$);
#182=IFCSPACE('1Fc0YLNLnAEgJxnx_fl4xl',$,'Open Plate',$,$,#200,#189,$,$,$,$);
#183=IFCCARTESIANPOINTLIST2D(((200.,200.),(19600.,200.),(19600.,13600.),(200.,13600.),(200.,200.)));
#184=IFCINDEXEDPOLYCURVE(#183,$,$);
#185=IFCDIRECTION((0.,0.,1.));
#186=IFCARBITRARYCLOSEDPROFILEDEF(.AREA.,$,#184);
#187=IFCEXTRUDEDAREASOLID(#186,$,#185,2799.9999999999995);
#188=IFCSHAPEREPRESENTATION(#11,'Body','SweptSolid',(#187));
#189=IFCPRODUCTDEFINITIONSHAPE($,$,(#188));
#195=IFCRELAGGREGATES('155qwnNWL3NvizZAGtB_xR',$,$,$,#16,(#182));
#196=IFCCARTESIANPOINT((0.,0.,200.));
#197=IFCDIRECTION((0.,0.,1.));
#198=IFCDIRECTION((1.,0.,0.));
#199=IFCAXIS2PLACEMENT3D(#196,#197,#198);
#200=IFCLOCALPLACEMENT(#30,#199);
#201=IFCPROPERTYSET('0vQXxEPSXEMPIftsvtSHq4',$,'EPset_Plan',$,(#203,#204,#205,#206,#207));
#202=IFCRELDEFINESBYPROPERTIES('0zMI_hW2z44Pulg88BI4p8',$,$,$,(#182),#201);
#203=IFCPROPERTYSINGLEVALUE('Polygon2D',$,IFCLABEL('0.2000,0.2000;19.6000,0.2000;19.6000,13.6000;0.2000,13.6000'),$);
#204=IFCPROPERTYSINGLEVALUE('Category',$,IFCLABEL('IfcSpace'),$);
#205=IFCPROPERTYSINGLEVALUE('Label',$,IFCLABEL('Open Plate'),$);
#206=IFCPROPERTYSINGLEVALUE('LabelX',$,IFCREAL(9.9000000000000004),$);
#207=IFCPROPERTYSINGLEVALUE('LabelY',$,IFCREAL(6.9000000000000004),$);
#208=IFCPROPERTYSET('1e2OU2aR1F8uhzPLeuaOXX',$,'EPset_SpaceMeta',$,(#210));
#209=IFCRELDEFINESBYPROPERTIES('2KWU1ohnb4Gv7amNmR1sp2',$,$,$,(#182),#208);
#210=IFCPROPERTYSINGLEVALUE('Zone',$,IFCLABEL('Open'),$);
#211=IFCELEMENTQUANTITY('0Xx8bDKMr3oO3YzESdQMUB',$,'Qto_SpaceBaseQuantities',$,'BaseQuantities',(#213));
#212=IFCRELDEFINESBYPROPERTIES('0UIwnsvx50kO6nIW0OHUAK',$,$,$,(#182),#211);
#213=IFCQUANTITYAREA('NetFloorArea',$,$,259.95999999999998,$);
#214=IFCOPENINGELEMENT('2O7D4aOrXAxe13vc2EzBqn',$,'Entry Door-Opening',$,$,#232,#221,$,$);
#215=IFCCARTESIANPOINTLIST2D(((9000.,0.),(10199.999999999998,0.),(10199.999999999998,200.),(9000.,200.),(9000.,0.)));
#216=IFCINDEXEDPOLYCURVE(#215,$,$);
#217=IFCDIRECTION((0.,0.,1.));
#218=IFCARBITRARYCLOSEDPROFILEDEF(.AREA.,$,#216);
#219=IFCEXTRUDEDAREASOLID(#218,$,#217,2100.);
#220=IFCSHAPEREPRESENTATION(#11,'Body','SweptSolid',(#219));
#221=IFCPRODUCTDEFINITIONSHAPE($,$,(#220));
#227=IFCRELVOIDSELEMENT('13YTLNzSfB7hDnLKOs8jfe',$,$,$,#58,#214);
#228=IFCCARTESIANPOINT((0.,0.,0.));
#229=IFCDIRECTION((0.,0.,1.));
#230=IFCDIRECTION((1.,0.,0.));
#231=IFCAXIS2PLACEMENT3D(#228,#229,#230);
#232=IFCLOCALPLACEMENT(#75,#231);
#233=IFCDOOR('2LIrPxA7r8SfP6piQLASoa',$,'Entry Door',$,$,#317,#307,$,$,$,$,$,$);
#234=IFCCARTESIANPOINTLIST2D(((0.,0.),(0.,2.1000000000000001),(1.2,2.1000000000000001),(1.2,0.),(-23.800000000000001,0.),(-23.800000000000001,-22.899999999999999),(25.,-22.899999999999999),(25.,0.)));
#235=IFCINDEXEDPOLYCURVE(#234,(IFCLINEINDEX((1,2,3,4,5,6,7,8,1))),$);
#236=IFCARBITRARYCLOSEDPROFILEDEF(.AREA.,$,#235);
#237=IFCCARTESIANPOINT((0.,25.,0.));
#238=IFCDIRECTION((0.,-1.,0.));
#239=IFCDIRECTION((1.,0.,0.));
#240=IFCAXIS2PLACEMENT3D(#237,#238,#239);
#241=IFCDIRECTION((0.,0.,-1.));
#242=IFCEXTRUDEDAREASOLID(#236,#240,#241,25.);
#243=IFCCARTESIANPOINTLIST2D(((0.,0.),(0.,2.1000000000000001),(1.2,2.1000000000000001),(1.2,0.),(-48.799999999999997,0.),(-48.799999999999997,-47.899999999999999),(50.,-47.899999999999999),(50.,0.)));
#244=IFCINDEXEDPOLYCURVE(#243,(IFCLINEINDEX((1,2,3,4,5,6,7,8,1))),$);
#245=IFCARBITRARYCLOSEDPROFILEDEF(.AREA.,$,#244);
#246=IFCCARTESIANPOINT((0.,0.,0.));
#247=IFCDIRECTION((0.,-1.,0.));
#248=IFCDIRECTION((1.,0.,0.));
#249=IFCAXIS2PLACEMENT3D(#246,#247,#248);
#250=IFCDIRECTION((0.,0.,-1.));
#251=IFCEXTRUDEDAREASOLID(#245,#249,#250,25.);
#252=IFCCARTESIANPOINTLIST2D(((0.,0.),(-98.799999999999997,0.),(-98.799999999999997,100.),(0.,100.)));
#253=IFCINDEXEDPOLYCURVE(#252,(IFCLINEINDEX((1,2,3,4,1))),$);
#254=IFCARBITRARYCLOSEDPROFILEDEF(.AREA.,$,#253);
#255=IFCCARTESIANPOINT((50.,0.,0.));
#256=IFCDIRECTION((0.,0.,1.));
#257=IFCDIRECTION((1.,0.,0.));
#258=IFCAXIS2PLACEMENT3D(#255,#256,#257);
#259=IFCDIRECTION((0.,0.,1.));
#260=IFCEXTRUDEDAREASOLID(#254,#258,#259,25.);
#261=IFCCARTESIANPOINTLIST2D(((0.,0.),(0.,27.100000000000001),(51.200000000000003,27.100000000000001),(51.200000000000003,0.),(-23.799999999999997,0.),(-23.799999999999997,-47.899999999999999),(75.,-47.899999999999999),(75.,0.)));
#262=IFCINDEXEDPOLYCURVE(#261,(IFCLINEINDEX((1,2,3,4,5,6,7,8,1))),$);
#263=IFCARBITRARYCLOSEDPROFILEDEF(.AREA.,$,#262);
#264=IFCCARTESIANPOINT((-25.,-5.,0.));
#265=IFCDIRECTION((0.,-1.,0.));
#266=IFCDIRECTION((1.,0.,0.));
#267=IFCAXIS2PLACEMENT3D(#264,#265,#266);
#268=IFCDIRECTION((0.,0.,-1.));
#269=IFCEXTRUDEDAREASOLID(#263,#267,#268,5.);
#270=IFCCARTESIANPOINTLIST2D(((0.,0.),(0.,27.100000000000001),(51.200000000000003,27.100000000000001),(51.200000000000003,0.),(1.2000000000000028,0.),(1.2000000000000028,-22.899999999999999),(50.,-22.899999999999999),(50.,0.)));
#271=IFCINDEXEDPOLYCURVE(#270,(IFCLINEINDEX((1,2,3,4,5,6,7,8,1))),$);
#272=IFCARBITRARYCLOSEDPROFILEDEF(.AREA.,$,#271);
#273=IFCCARTESIANPOINT((-25.,50.,0.));
#274=IFCDIRECTION((0.,-1.,0.));
#275=IFCDIRECTION((1.,0.,0.));
#276=IFCAXIS2PLACEMENT3D(#273,#274,#275);
#277=IFCDIRECTION((0.,0.,-1.));
#278=IFCEXTRUDEDAREASOLID(#272,#276,#277,5.);
#279=IFCCARTESIANPOINTLIST2D(((0.,0.),(-48.799999999999997,0.),(-48.799999999999997,35.),(0.,35.)));
#280=IFCINDEXEDPOLYCURVE(#279,(IFCLINEINDEX((1,2,3,4,1))),$);
#281=IFCARBITRARYCLOSEDPROFILEDEF(.AREA.,$,#280);
#282=IFCCARTESIANPOINT((25.,25.,25.));
#283=IFCDIRECTION((0.,0.,1.));
#284=IFCDIRECTION((1.,0.,0.));
#285=IFCAXIS2PLACEMENT3D(#282,#283,#284);
#286=IFCDIRECTION((0.,0.,1.));
#287=IFCEXTRUDEDAREASOLID(#281,#285,#286,-47.899999999999999);
#288=IFCCARTESIANPOINTLIST2D(((0.,0.),(0.,-40.),(-120.,-40.),(-120.,-20.),(-20.,-20.),(-20.,0.)));
#289=IFCINDEXEDPOLYCURVE(#288,(IFCLINEINDEX((1,2,3,4,5,6,1))),$);
#290=IFCARBITRARYCLOSEDPROFILEDEF(.AREA.,$,#289);
#291=IFCCARTESIANPOINT((-73.800000000000011,25.,1015.));
#292=IFCDIRECTION((0.,0.,1.));
#293=IFCDIRECTION((1.,0.,0.));
#294=IFCAXIS2PLACEMENT3D(#291,#292,#293);
#295=IFCDIRECTION((0.,0.,1.));
#296=IFCEXTRUDEDAREASOLID(#290,#294,#295,20.);
#297=IFCEXTRUDEDAREASOLID(#298,#301,#305,20.);
#298=IFCARBITRARYCLOSEDPROFILEDEF(.AREA.,$,#299);
#299=IFCINDEXEDPOLYCURVE(#300,(IFCLINEINDEX((1,2,3,4,5,6,1))),$);
#300=IFCCARTESIANPOINTLIST2D(((0.,0.),(0.,40.),(-120.,40.),(-120.,20.),(-20.,20.),(-20.,0.)));
#301=IFCAXIS2PLACEMENT3D(#302,#303,#304);
#302=IFCCARTESIANPOINT((-73.800000000000011,60.,1015.));
#303=IFCDIRECTION((0.,0.,1.));
#304=IFCDIRECTION((1.,0.,0.));
#305=IFCDIRECTION((0.,0.,1.));
#306=IFCSHAPEREPRESENTATION(#11,'Body','SweptSolid',(#242,#251,#287,#296,#297,#260,#269,#278));
#307=IFCPRODUCTDEFINITIONSHAPE($,$,(#306));
#313=IFCCARTESIANPOINT((9000.,0.,200.));
#314=IFCDIRECTION((0.,0.,1.));
#315=IFCDIRECTION((1.,0.,0.));
#316=IFCAXIS2PLACEMENT3D(#313,#314,#315);
#317=IFCLOCALPLACEMENT(#30,#316);
#318=IFCRELFILLSELEMENT('35IBICdDXCSORl3GdfDmnt',$,$,$,#214,#233);
#319=IFCPROPERTYSET('0QFhERWHD6fhZXJUuSMMjg',$,'EPset_Plan',$,(#321,#322));
#320=IFCRELDEFINESBYPROPERTIES('2US_yhBSH9cwW_$Pu9maOc',$,$,$,(#233),#319);
#321=IFCPROPERTYSINGLEVALUE('Polygon2D',$,IFCLABEL('9.0000,0.0000;10.2000,0.0000;10.2000,0.2000;9.0000,0.2000'),$);
#322=IFCPROPERTYSINGLEVALUE('Category',$,IFCLABEL('IfcDoor'),$);
#323=IFCPROPERTYSET('2PHiRQJMD4ewjvp3KIHRJM',$,'EPset_OpeningMeta',$,(#325,#326,#327));
#324=IFCRELDEFINESBYPROPERTIES('080MfsevbDpPi8XkJc6zP0',$,$,$,(#233),#323);
#325=IFCPROPERTYSINGLEVALUE('Width',$,IFCREAL(1.2),$);
#326=IFCPROPERTYSINGLEVALUE('Height',$,IFCREAL(2.1000000000000001),$);
#327=IFCPROPERTYSINGLEVALUE('HostWall',$,IFCLABEL('Shell-S'),$);
ENDSEC;
END-ISO-10303-21;
