  0
SECTION
  2
HEADER
  9
$ACADVER
  1
AC1024
  9
$ACADMAINTVER
 70
6
  9
$DWGCODEPAGE
  3
ANSI_1252
  9
$LASTSAVEDBY
  1
ezdxf
  9
$INSBASE
 10
0.0
 20
0.0
 30
0.0
  9
$EXTMIN
 10
1e+20
 20
1e+20
 30
1e+20
  9
$EXTMAX
 10
-1e+20
 20
-1e+20
 30
-1e+20
  9
$LIMMIN
 10
0.0
 20
0.0
  9
$LIMMAX
 10
420.0
 20
297.0
  9
$ORTHOMODE
 70
0
  9
$REGENMODE
 70
1
  9
$FILLMODE
 70
1
  9
$QTEXTMODE
 70
0
  9
$MIRRTEXT
 70
1
  9
$LTSCALE
 40
1.0
  9
$ATTMODE
 70
1
  9
$TEXTSIZE
 40
2.5
  9
$TRACEWID
 40
1.0
  9
$TEXTSTYLE
  7
Standard
  9
$CLAYER
  8
0
  9
$CELTYPE
  6
ByLayer
  9
$CECOLOR
 62
256
  9
$CELTSCALE
 40
1.0
  9
$DISPSILH
 70
0
  9
$DIMSCALE
 40
1.0
  9
$DIMASZ
 40
2.5
  9
$DIMEXO
 40
0.625
  9
$DIMDLI
 40
3.75
  9
$DIMRND
 40
0.0
  9
$DIMDLE
 40
0.0
  9
$DIMEXE
 40
1.25
  9
$DIMTP
 40
0.0
  9
$DIMTM
 40
0.0
  9
$DIMTXT
 40
2.5
  9
$DIMCEN
 40
2.5
  9
$DIMTSZ
 40
0.0
  9
$DIMTOL
 70
0
  9
$DIMLIM
 70
0
  9
$DIMTIH
 70
0
  9
$DIMTOH
 70
0
  9
$DIMSE1
 70
0
  9
$DIMSE2
 70
0
  9
$DIMTAD
 70
1
  9
$DIMZIN
 70
8
  9
$DIMBLK
  1

  9
$DIMASO
 70
1
  9
$DIMSHO
 70
1
  9
$DIMPOST
  1

  9
$DIMAPOST
  1

  9
$DIMALT
 70
0
  9
$DIMALTD
 70
3
  9
$DIMALTF
 40
0.03937007874
  9
$DIMLFAC
 40
1.0
  9
$DIMTOFL
 70
1
  9
$DIMTVP
 40
0.0
  9
$DIMTIX
 70
0
  9
$DIMSOXD
 70
0
  9
$DIMSAH
 70
0
  9
$DIMBLK1
  1

  9
$DIMBLK2
  1

  9
$DIMSTYLE
  2
ISO-25
  9
$DIMCLRD
 70
0
  9
$DIMCLRE
 70
0
  9
$DIMCLRT
 70
0
  9
$DIMTFAC
 40
1.0
  9
$DIMGAP
 40
0.625
  9
$DIMJUST
 70
0
  9
$DIMSD1
 70
0
  9
$DIMSD2
 70
0
  9
$DIMTOLJ
 70
0
  9
$DIMTZIN
 70
8
  9
$DIMALTZ
 70
0
  9
$DIMALTTZ
 70
0
  9
$DIMUPT
 70
0
  9
$DIMDEC
 70
2
  9
$DIMTDEC
 70
2
  9
$DIMALTU
 70
2
  9
$DIMALTTD
 70
3
  9
$DIMTXSTY
  7
Standard
  9
$DIMAUNIT
 70
0
  9
$DIMADEC
 70
0
  9
$DIMALTRND
 40
0.0
  9
$DIMAZIN
 70
0
  9
$DIMDSEP
 70
44
  9
$DIMATFIT
 70
3
  9
$DIMFRAC
 70
0
  9
$DIMLDRBLK
  1

  9
$DIMLUNIT
 70
2
  9
$DIMLWD
 70
-2
  9
$DIMLWE
 70
-2
  9
$DIMTMOVE
 70
0
  9
$DIMFXL
 40
1.0
  9
$DIMFXLON
 70
0
  9
$DIMJOGANG
 40
0.785398163397
  9
$DIMTFILL
 70
0
  9
$DIMTFILLCLR
 70
0
  9
$DIMARCSYM
 70
0
  9
$DIMLTYPE
  6

  9
$DIMLTEX1
  6

  9
$DIMLTEX2
  6

  9
$DIMTXTDIRECTION
 70
0
  9
$LUNITS
 70
2
  9
$LUPREC
 70
4
  9
$SKETCHINC
 40
1.0
  9
$FILLETRAD
 40
10.0
  9
$AUNITS
 70
0
  9
$AUPREC
 70
2
  9
$MENU
  1
.
  9
$ELEVATION
 40
0.0
  9
$PELEVATION
 40
0.0
  9
$THICKNESS
 40
0.0
  9
$LIMCHECK
 70
0
  9
$CHAMFERA
 40
0.0
  9
$CHAMFERB
 40
0.0
  9
$CHAMFERC
 40
0.0
  9
$CHAMFERD
 40
0.0
  9
$SKPOLY
 70
0
  9
$TDCREATE
 40
2461154.9069675924
  9
$TDUCREATE
 40
2458532.153996898
  9
$TDUPDATE
 40
2461154.9069675924
  9
$TDUUPDATE
 40
2458532.1544311
  9
$TDINDWG
 40
0.0
  9
$TDUSRTIMER
 40
0.0
  9
$USRTIMER
 70
1
  9
$ANGBASE
 50
0.0
  9
$ANGDIR
 70
0
  9
$PDMODE
 70
0
  9
$PDSIZE
 40
0.0
  9
$PLINEWID
 40
0.0
  9
$SPLFRAME
 70
0
  9
$SPLINETYPE
 70
6
  9
$SPLINESEGS
 70
8
  9
$HANDSEED
  5
3D
  9
$SURFTAB1
 70
6
  9
$SURFTAB2
 70
6
  9
$SURFTYPE
 70
6
  9
$SURFU
 70
6
  9
$SURFV
 70
6
  9
$UCSBASE
  2

  9
$UCSNAME
  2

  9
$UCSORG
 10
0.0
 20
0.0
 30
0.0
  9
$UCSXDIR
 10
1.0
 20
0.0
 30
0.0
  9
$UCSYDIR
 10
0.0
 20
1.0
 30
0.0
  9
$UCSORTHOREF
  2

  9
$UCSORTHOVIEW
 70
0
  9
$UCSORGTOP
 10
0.0
 20
0.0
 30
0.0
  9
$UCSORGBOTTOM
 10
0.0
 20
0.0
 30
0.0
  9
$UCSORGLEFT
 10
0.0
 20
0.0
 30
0.0
  9
$UCSORGRIGHT
 10
0.0
 20
0.0
 30
0.0
  9
$UCSORGFRONT
 10
0.0
 20
0.0
 30
0.0
  9
$UCSORGBACK
 10
0.0
 20
0.0
 30
0.0
  9
$PUCSBASE
  2

  9
$PUCSNAME
  2

  9
$PUCSORG
 10
0.0
 20
0.0
 30
0.0
  9
$PUCSXDIR
 10
1.0
 20
0.0
 30
0.0
  9
$PUCSYDIR
 10
0.0
 20
1.0
 30
0.0
  9
$PUCSORTHOREF
  2

  9
$PUCSORTHOVIEW
 70
0
  9
$PUCSORGTOP
 10
0.0
 20
0.0
 30
0.0
  9
$PUCSORGBOTTOM
 10
0.0
 20
0.0
 30
0.0
  9
$PUCSORGLEFT
 10
0.0
 20
0.0
 30
0.0
  9
$PUCSORGRIGHT
 10
0.0
 20
0.0
 30
0.0
  9
$PUCSORGFRONT
 10
0.0
 20
0.0
 30
0.0
  9
$PUCSORGBACK
 10
0.0
 20
0.0
 30
0.0
  9
$USERI1
 70
0
  9
$USERI2
 70
0
  9
$USERI3
 70
0
  9
$USERI4
 70
0
  9
$USERI5
 70
0
  9
$USERR1
 40
0.0
  9
$USERR2
 40
0.0
  9
$USERR3
 40
0.0
  9
$USERR4
 40
0.0
  9
$USERR5
 40
0.0
  9
$WORLDVIEW
 70
1
  9
$SHADEDGE
 70
3
  9
$SHADEDIF
 70
70
  9
$TILEMODE
 70
1
  9
$MAXACTVP
 70
64
  9
$PINSBASE
 10
0.0
 20
0.0
 30
0.0
  9
$PLIMCHECK
 70
0
  9
$PEXTMIN
 10
1e+20
 20
1e+20
 30
1e+20
  9
$PEXTMAX
 10
-1e+20
 20
-1e+20
 30
-1e+20
  9
$PLIMMIN
 10
0.0
 20
0.0
  9
$PLIMMAX
 10
420.0
 20
297.0
  9
$UNITMODE
 70
0
  9
$VISRETAIN
 70
1
  9
$PLINEGEN
 70
0
  9
$PSLTSCALE
 70
1
  9
$TREEDEPTH
 70
3020
  9
$CMLSTYLE
  2
Standard
  9
$CMLJUST
 70
0
  9
$CMLSCALE
 40
20.0
  9
$PROXYGRAPHICS
 70
1
  9
$MEASUREMENT
 70
1
  9
$CELWEIGHT
370
-1
  9
$ENDCAPS
280
0
  9
$JOINSTYLE
280
0
  9
$LWDISPLAY
290
0
  9
$INSUNITS
 70
6
  9
$HYPERLINKBASE
  1

  9
$STYLESHEET
  1

  9
$XEDIT
290
1
  9
$CEPSNTYPE
380
0
  9
$PSTYLEMODE
290
1
  9
$FINGERPRINTGUID
  2
{92E2ED6C-64D4-4FBA-A7C8-346F2CE492DB}
  9
$VERSIONGUID
  2
{7F9FC0B1-D6D0-45DE-BCE2-C781173BBE81}
  9
$EXTNAMES
290
1
  9
$PSVPSCALE
 40
0.0
  9
$OLESTARTUP
290
0
  9
$SORTENTS
280
127
  9
$INDEXCTL
280
0
  9
$HIDETEXT
280
1
  9
$XCLIPFRAME
280
1
  9
$HALOGAP
280
0
  9
$OBSCOLOR
 70
257
  9
$OBSLTYPE
280
0
  9
$INTERSECTIONDISPLAY
280
0
  9
$INTERSECTIONCOLOR
 70
257
  9
$DIMASSOC
280
2
  9
$PROJECTNAME
  1

  9
$CAMERADISPLAY
290
0
  9
$LENSLENGTH
 40
50.0
  9
$CAMERAHEIGHT
 40
0.0
  9
$STEPSPERSEC
 40
24.0
  9
$STEPSIZE
 40
100.0
  9
$3DDWFPREC
 40
2.0
  9
$PSOLWIDTH
 40
0.005
  9
$PSOLHEIGHT
 40
0.08
  9
$LOFTANG1
 40
1.570796326795
  9
$LOFTANG2
 40
1.570796326795
  9
$LOFTMAG1
 40
0.0
  9
$LOFTMAG2
 40
0.0
  9
$LOFTPARAM
 70
7
  9
$LOFTNORMALS
280
1
  9
$LATITUDE
 40
37.795
  9
$LONGITUDE
 40
-122.394
  9
$NORTHDIRECTION
 40
0.0
  9
$TIMEZONE
 70
-8000
  9
$LIGHTGLYPHDISPLAY
280
1
  9
$TILEMODELIGHTSYNCH
280
1
  9
$CMATERIAL
347
20
  9
$SOLIDHIST
280
0
  9
$SHOWHIST
280
1
  9
$DWFFRAME
280
2
  9
$DGNFRAME
280
2
  9
$REALWORLDSCALE
290
1
  9
$INTERFERECOLOR
 62
256
  9
$CSHADOW
280
0
  9
$SHADOWPLANELOCATION
 40
0.0
  0
ENDSEC
  0
SECTION
  2
CLASSES
  0
CLASS
  1
ACDBDICTIONARYWDFLT
  2
AcDbDictionaryWithDefault
  3
ObjectDBX Classes
 90
0
 91
0
280
0
281
0
  0
CLASS
  1
SUN
  2
AcDbSun
  3
SCENEOE
 90
1153
 91
0
280
0
281
0
  0
CLASS
  1
VISUALSTYLE
  2
AcDbVisualStyle
  3
ObjectDBX Classes
 90
4095
 91
0
280
0
281
0
  0
CLASS
  1
MATERIAL
  2
AcDbMaterial
  3
ObjectDBX Classes
 90
1153
 91
0
280
0
281
0
  0
CLASS
  1
SCALE
  2
AcDbScale
  3
ObjectDBX Classes
 90
1153
 91
0
280
0
281
0
  0
CLASS
  1
TABLESTYLE
  2
AcDbTableStyle
  3
ObjectDBX Classes
 90
4095
 91
0
280
0
281
0
  0
CLASS
  1
MLEADERSTYLE
  2
AcDbMLeaderStyle
  3
ACDB_MLEADERSTYLE_CLASS
 90
4095
 91
0
280
0
281
0
  0
CLASS
  1
DICTIONARYVAR
  2
AcDbDictionaryVar
  3
ObjectDBX Classes
 90
0
 91
0
280
0
281
0
  0
CLASS
  1
CELLSTYLEMAP
  2
AcDbCellStyleMap
  3
ObjectDBX Classes
 90
1152
 91
0
280
0
281
0
  0
CLASS
  1
MENTALRAYRENDERSETTINGS
  2
AcDbMentalRayRenderSettings
  3
SCENEOE
 90
1024
 91
0
280
0
281
0
  0
CLASS
  1
ACDBDETAILVIEWSTYLE
  2
AcDbDetailViewStyle
  3
ObjectDBX Classes
 90
1025
 91
0
280
0
281
0
  0
CLASS
  1
ACDBSECTIONVIEWSTYLE
  2
AcDbSectionViewStyle
  3
ObjectDBX Classes
 90
1025
 91
0
280
0
281
0
  0
CLASS
  1
RASTERVARIABLES
  2
AcDbRasterVariables
  3
ISM
 90
0
 91
0
280
0
281
0
  0
CLASS
  1
ACDBPLACEHOLDER
  2
AcDbPlaceHolder
  3
ObjectDBX Classes
 90
0
 91
0
280
0
281
0
  0
CLASS
  1
LAYOUT
  2
AcDbLayout
  3
ObjectDBX Classes
 90
0
 91
0
280
0
281
0
  0
ENDSEC
  0
SECTION
  2
TABLES
  0
TABLE
  2
VPORT
  5
8
330
0
100
AcDbSymbolTable
 70
1
  0
VPORT
  5
23
330
8
100
AcDbSymbolTableRecord
100
AcDbViewportTableRecord
  2
*Active
 70
0
 10
0.0
 20
0.0
 11
1.0
 21
1.0
 12
0.0
 22
0.0
 13
0.0
 23
0.0
 14
0.5
 24
0.5
 15
0.5
 25
0.5
 16
0.0
 26
0.0
 36
1.0
 17
0.0
 27
0.0
 37
0.0
 40
1000.0
 41
1.34
 42
50.0
 43
0.0
 44
0.0
 50
0.0
 51
0.0
 71
0
 72
1000
 73
1
 74
3
 75
0
 76
0
 77
0
 78
0
281
0
 65
0
146
0.0
  0
ENDTAB
  0
TABLE
  2
LTYPE
  5
2
330
0
100
AcDbSymbolTable
 70
3
  0
LTYPE
  5
24
330
2
100
AcDbSymbolTableRecord
100
AcDbLinetypeTableRecord
  2
ByBlock
 70
0
  3

 72
65
 73
0
 40
0.0
  0
LTYPE
  5
25
330
2
100
AcDbSymbolTableRecord
100
AcDbLinetypeTableRecord
  2
ByLayer
 70
0
  3

 72
65
 73
0
 40
0.0
  0
LTYPE
  5
26
330
2
100
AcDbSymbolTableRecord
100
AcDbLinetypeTableRecord
  2
Continuous
 70
0
  3

 72
65
 73
0
 40
0.0
  0
ENDTAB
  0
TABLE
  2
LAYER
  5
1
330
0
100
AcDbSymbolTable
 70
3
  0
LAYER
  5
27
330
1
100
AcDbSymbolTableRecord
100
AcDbLayerTableRecord
  2
0
 70
0
 62
7
  6
Continuous
370
-3
390
13
347
21
  0
LAYER
  5
28
330
1
100
AcDbSymbolTableRecord
100
AcDbLayerTableRecord
  2
Defpoints
 70
0
 62
7
  6
Continuous
290
0
370
-3
390
13
347
21
  0
LAYER
  5
2F
330
1
100
AcDbSymbolTableRecord
100
AcDbLayerTableRecord
  2
CONTOURS
 70
0
 62
3
  6
Continuous
370
-3
390
13
347
21
  0
ENDTAB
  0
TABLE
  2
STYLE
  5
5
330
0
100
AcDbSymbolTable
 70
1
  0
STYLE
  5
29
330
5
100
AcDbSymbolTableRecord
100
AcDbTextStyleTableRecord
  2
Standard
 70
0
 40
0.0
 41
1.0
 50
0.0
 71
0
 42
2.5
  3
txt
  4

  0
ENDTAB
  0
TABLE
  2
VIEW
  5
7
330
0
100
AcDbSymbolTable
 70
0
  0
ENDTAB
  0
TABLE
  2
UCS
  5
6
330
0
100
AcDbSymbolTable
 70
0
  0
ENDTAB
  0
TABLE
  2
APPID
  5
3
330
0
100
AcDbSymbolTable
 70
3
  0
APPID
  5
2A
330
3
100
AcDbSymbolTableRecord
100
AcDbRegAppTableRecord
  2
ACAD
 70
0
  0
APPID
  5
3A
330
3
100
AcDbSymbolTableRecord
100
AcDbRegAppTableRecord
  2
HATCHBACKGROUNDCOLOR
 70
0
  0
APPID
  5
3B
330
3
100
AcDbSymbolTableRecord
100
AcDbRegAppTableRecord
  2
EZDXF
 70
0
  0
ENDTAB
  0
TABLE
  2
DIMSTYLE
  5
4
330
0
100
AcDbSymbolTable
 70
1
100
AcDbDimStyleTable
  0
DIMSTYLE
105
2B
330
4
100
AcDbSymbolTableRecord
100
AcDbDimStyleTableRecord
  2
Standard
 70
0
 40
1.0
 41
2.5
 42
0.625
 43
3.75
 44
1.25
 45
0.0
 46
0.0
 47
0.0
 48
0.0
 49
2.5
140
2.5
141
2.5
142
0.0
143
0.03937007874
144
1.0
145
0.0
146
1.0
147
0.625
148
0.0
 69
0
 70
0
 71
0
 72
0
 73
0
 74
0
 75
0
 76
0
 77
1
 78
8
 79
3
170
0
171
3
172
1
173
0
174
0
175
0
176
0
177
0
178
0
179
2
271
2
272
2
273
2
274
3
275
0
276
0
277
2
278
44
279
0
280
0
281
0
282
0
283
0
284
8
285
0
286
0
288
0
289
3
290
0
371
-2
372
-2
  0
ENDTAB
  0
TABLE
  2
BLOCK_RECORD
  5
9
330
0
100
AcDbSymbolTable
 70
2
  0
BLOCK_RECORD
  5
17
330
9
100
AcDbSymbolTableRecord
100
AcDbBlockTableRecord
  2
*Model_Space
340
1A
 70
0
280
1
281
0
  0
BLOCK_RECORD
  5
1B
330
9
100
AcDbSymbolTableRecord
100
AcDbBlockTableRecord
  2
*Paper_Space
340
1E
 70
0
280
1
281
0
  0
ENDTAB
  0
ENDSEC
  0
SECTION
  2
BLOCKS
  0
BLOCK
  5
18
330
17
100
AcDbEntity
  8
0
100
AcDbBlockBegin
  2
*Model_Space
 70
0
 10
0.0
 20
0.0
 30
0.0
  3
*Model_Space
  1

  0
ENDBLK
  5
19
330
17
100
AcDbEntity
  8
0
100
AcDbBlockEnd
  0
BLOCK
  5
1C
330
1B
100
AcDbEntity
  8
0
100
AcDbBlockBegin
  2
*Paper_Space
 70
0
 10
0.0
 20
0.0
 30
0.0
  3
*Paper_Space
  1

  0
ENDBLK
  5
1D
330
1B
100
AcDbEntity
  8
0
100
AcDbBlockEnd
  0
ENDSEC
  0
SECTION
  2
ENTITIES
  0
LWPOLYLINE
  5
30
330
17
100
AcDbEntity
  8
CONTOURS
100
AcDbPolyline
 90
24
 70
0
 38
21.06
 10
44.724665806770474
 20
0.0
 10
45.90722151098729
 20
2.146724843881498
 10
47.142096355677246
 20
4.2638242954185905
 10
48.415603546672024
 20
6.357929421691722
 10
49.72450820800644
 20
8.430067650235724
 10
51.07504585354537
 20
10.47531211186075
 10
52.47849499667109
 20
12.484599913548553
 10
53.962533924763854
 20
14.434976413284282
 10
55.5387187152397
 20
16.31133642736911
 10
57.23864528733607
 20
18.076048750853975
 10
59.07885045352509
 20
19.693207540902492
 10
61.08838619692252
 20
21.093444328164647
 10
63.29294263040128
 20
22.153802129776153
 10
65.69155861894087
 20
22.532333034981658
 10
67.24152679658792
 20
20.911707233142163
 10
66.95993792086374
 20
18.493465863077134
 10
66.20614600568213
 20
16.162208440282917
 10
65.32408483091582
 20
13.875475956225623
 10
64.41825224972797
 20
11.598019691564453
 10
63.52341510826466
 20
9.316227509204994
 10
62.67124775499696
 20
7.018190580910767
 10
61.87824238166861
 20
4.699146693209678
 10
61.14871699169964
 20
2.3593825609970316
 10
60.48516765807909
 20
0.0
  0
LWPOLYLINE
  5
31
330
17
100
AcDbEntity
  8
CONTOURS
100
AcDbPolyline
 90
24
 70
0
 38
22.88
 10
40.68233765414712
 20
0.0
 10
42.84772359731883
 20
3.3532934330877686
 10
45.01310954049055
 20
6.706586866175537
 10
47.17849548366225
 20
10.059880299263305
 10
49.376395428004784
 20
13.391337940987357
 10
51.66117703790117
 20
16.6644474909955
 10
54.105122357460814
 20
19.819848936532367
 10
56.74762722707384
 20
22.810448145770977
 10
59.64790151750598
 20
25.550616968993474
 10
62.8460882685499
 20
27.93283684704923
 10
66.31273705129615
 20
29.898550941039787
 10
70.0126775377934
 20
31.386526935328575
 10
73.86841486974207
 20
32.40181113001062
 10
77.83505429338884
 20
32.67953420166177
 10
81.18233745228102
 20
30.822830644537948
 10
81.2657979641032
 20
26.952410853263732
 10
79.15881810833746
 20
23.588878280051105
 10
76.53368075296011
 20
20.582428235774355
 10
73.87251744758119
 20
17.60725042707452
 10
71.37259114618858
 20
14.501182033007977
 10
69.26302440759976
 20
11.115348535443418
 10
67.46824283844589
 20
7.552910749009772
 10
66.01592317612402
 20
3.8377933880969333
 10
64.92612561145093
 20
0.0
  0
LWPOLYLINE
  5
32
330
17
100
AcDbEntity
  8
CONTOURS
100
AcDbPolyline
 90
24
 70
0
 38
24.71
 10
37.221902076725186
 20
0.0
 10
40.079951363752016
 20
3.942419184344982
 10
42.8464377685979
 20
7.9492526455514465
 10
45.59134777481767
 20
11.971265053528388
 10
48.346809043752245
 20
15.986055947019013
 10
51.13351672971523
 20
19.97822090787391
 10
54.12598520500827
 20
23.81831074824907
 10
57.39982776520844
 20
27.419478679961028
 10
61.04953419967301
 20
30.63339417725064
 10
65.17370337691398
 20
33.20687203301467
 10
69.62907211208979
 20
35.1629387216967
 10
74.24443160827802
 20
36.71092539360087
 10
78.95916930755708
 20
37.91719606207173
 10
83.78755777399887
 20
38.13351223967352
 10
87.64865727556155
 20
35.4459164270382
 10
89.17699898531733
 20
30.86847667775409
 10
89.1940158091084
 20
26.019755482825662
 10
87.38219185799939
 20
21.56461529871133
 10
83.65198266223332
 20
18.472781596520907
 10
79.57176496566893
 20
15.815162680873167
 10
75.8332479572971
 20
12.714881556029221
 10
72.76510517444879
 20
8.949286055378963
 10
70.50296736082068
 20
4.6500242260316975
 10
69.09374219035168
 20
0.0
  0
LWPOLYLINE
  5
33
330
17
100
AcDbEntity
  8
CONTOURS
100
AcDbPolyline
 90
24
 70
0
 38
26.53
 10
33.81694737040682
 20
0.0
 10
36.57004333168936
 20
3.200205933304279
 10
39.17093774274904
 20
6.525427934552196
 10
41.650071824016806
 20
9.941994255026835
 10
44.098590680055814
 20
13.380876648570135
 10
46.522806387655315
 20
16.837020641243544
 10
48.94702209525482
 20
20.293164633916952
 10
51.371237802854324
 20
23.749308626590363
 10
53.933781003833694
 20
27.10025022856283
 10
56.716692289505005
 20
30.271852667319678
 10
59.85119476563319
 20
33.092849877692615
 10
63.38762082606144
 20
35.38406440074381
 10
67.22027141547595
 20
37.145224087476194
 10
71.18141228135222
 20
38.60196619471692
 10
75.16213462963088
 20
40.00746811089797
 10
79.1633721397831
 20
41.35351843774892
 10
83.2070333979366
 20
42.55608099907711
 10
87.38507991692143
 20
42.84738334588299
 10
90.92108677036146
 20
40.74709670357765
 10
92.86657295645495
 20
37.02519067494041
 10
94.15773072081704
 20
33.00639658405338
 10
95.38821934457486
 20
28.968123334028387
 10
96.96835997719164
 20
25.074646738217776
 10
100.0
 20
22.199854273528906
  0
LWPOLYLINE
  5
34
330
17
100
AcDbEntity
  8
CONTOURS
100
AcDbPolyline
 90
24
 70
0
 38
28.36
 10
62.914130680429615
 20
80.0
 10
61.14226562682988
 20
75.62097193729173
 10
58.76837262179577
 20
71.53800712964211
 10
55.97122281297082
 20
67.72851618897916
 10
52.78606147960398
 20
64.23934836331765
 10
49.12673343639733
 20
61.26290400390926
 10
44.88419305066948
 20
59.21301161585012
 10
40.2866335140509
 20
58.13806642112043
 10
35.62564471222597
 20
57.341121614216135
 10
31.08061016171642
 20
56.08625483847899
 10
27.14992603946942
 20
53.510888516089956
 10
24.015753599524103
 20
49.980937399407004
 10
21.142846252530056
 20
46.22522998241373
 10
18.298174601389814
 20
42.44793856544319
 10
15.437088787126108
 20
38.68316893747825
 10
12.5457770904842
 20
34.941457574427645
 10
9.700156148713393
 20
31.167907637169634
 10
7.485443185463803
 20
27.001507920876612
 10
6.260267576261313
 20
22.44813265981015
 10
6.053430097937898
 20
17.72964037824319
 10
6.571245509642663
 20
13.033838476920232
 10
7.603321814527638
 20
8.42279425371688
 10
9.255212560023233
 20
3.9977283567130515
 10
11.758350670933106
 20
0.0
  0
LWPOLYLINE
  5
35
330
17
100
AcDbEntity
  8
CONTOURS
100
AcDbPolyline
 90
24
 70
0
 38
30.18
 10
23.76892735246234
 20
0.0
 10
28.167199151926315
 20
2.1345988798398636
 10
32.01527470402905
 20
5.167512325629175
 10
35.462655918023465
 20
8.656611146803666
 10
38.6292457149313
 20
12.404460773089111
 10
41.560330230899154
 20
16.340658782518968
 10
44.33150005490762
 20
20.391406968493822
 10
47.08061112324363
 20
24.457130200181208
 10
49.82270907121124
 20
28.52761443469503
 10
52.57206193831103
 20
32.59279141094328
 10
55.751994862368235
 20
36.32447724447485
 10
59.63748054810311
 20
39.29025264737178
 10
64.15169873212635
 20
41.19249744783349
 10
68.81568925935818
 20
42.720297944208056
 10
73.46920674515322
 20
44.27502627360458
 10
77.90924735882267
 20
46.359055650762414
 10
82.0776515941426
 20
48.93932744433676
 10
85.88567979162391
 20
52.02621960282555
 10
88.96516808480493
 20
55.828449995711146
 10
90.66260966686326
 20
60.40404550699937
 10
91.12569641846414
 20
65.28133937042819
 10
91.09743407767102
 20
70.1881118999241
 10
90.97562309716064
 20
75.09447531570754
 10
90.82144582428587
 20
80.0
  0
LWPOLYLINE
  5
36
330
17
100
AcDbEntity
  8
CONTOURS
100
AcDbPolyline
 90
24
 70
0
 38
32.01
 10
71.63090297599604
 20
80.0
 10
65.7765904324788
 20
72.44323943032362
 10
59.8901799020383
 20
64.91160206861939
 10
53.97266103378586
 20
57.40424094929933
 10
46.22019239872699
 20
52.110542041982264
 10
36.92445166983617
 20
49.91221629602418
 10
28.665717901390156
 20
45.247498817141945
 10
22.088230234091156
 20
38.329525062619055
 10
16.416858626987935
 20
30.644667145469572
 10
12.517539717480167
 20
21.967803914012254
 10
12.457946623319295
 20
12.492866558202113
 10
17.30592201581215
 20
4.5262671637916245
 10
26.412418683450014
 20
4.502190961496296
 10
33.986729331109856
 20
10.245227619347592
 10
40.102834029959745
 20
17.576901398665978
 10
45.40350403033131
 20
25.52783246224523
 10
50.451075640484135
 20
33.64569093894164
 10
56.40214882461946
 20
41.026803289910326
 10
65.38717947572879
 20
44.09774697187797
 10
74.45106068121423
 20
47.05791349903097
 10
82.10205554029339
 20
52.679374330044844
 10
86.41425305785916
 20
61.07166922412712
 10
86.73050559374889
 20
70.59312144084468
 10
85.1550696801106
 20
80.0
  0
LWPOLYLINE
  5
37
330
17
100
AcDbEntity
  8
CONTOURS
100
AcDbPolyline
 90
24
 70
0
 38
33.84
 10
20.625
 20
7.474417435977716
 10
25.453857813806213
 20
7.603700866358114
 10
29.802930612942486
 20
9.838081623788312
 10
33.558141971478804
 20
12.990514921627595
 10
36.86269240908194
 20
16.61700905992556
 10
39.81833415683751
 20
20.534641514310504
 10
42.50605625904816
 20
24.64134233829477
 10
44.96810600941997
 20
28.887339862412198
 10
47.19909665764314
 20
33.259043293733335
 10
49.17061810270437
 20
37.75361809815721
 10
50.861734426967196
 20
42.360676597290116
 10
50.36359931430498
 20
46.6023003336951
 10
45.51691233955351
 20
47.275496368119924
 10
40.61712964476653
 20
47.09831171006847
 10
35.859202428347714
 20
45.93819788227356
 10
31.51429815399826
 20
43.679058161646765
 10
27.698845850414717
 20
40.59956898510423
 10
24.30783158772437
 20
37.05332159510736
 10
21.24421399806521
 20
33.21971337168779
 10
18.543420258327934
 20
29.12350833295525
 10
16.404635691609105
 20
24.711435708233836
 10
15.173655244907694
 20
19.97107764257519
 10
15.215199536009404
 20
15.080142294015467
 10
16.880023654328337
 20
10.498242379891783
  0
LWPOLYLINE
  5
38
330
17
100
AcDbEntity
  8
CONTOURS
100
AcDbPolyline
 90
24
 70
0
 38
35.66
 10
22.5
 20
11.694395668637657
 10
26.136707656059574
 20
11.674910587144671
 10
29.49020058548616
 20
13.175294136175687
 10
32.428435637775635
 20
15.396654037117914
 10
35.0280464165497
 20
18.009696787531926
 10
37.349094258851224
 20
20.874099815843742
 10
39.43702519316378
 20
23.913053305415644
 10
41.30412309346647
 20
27.0926185007081
 10
42.92962158574846
 20
30.401831636756558
 10
44.223020537312145
 20
33.85305273378281
 10
44.90717827073715
 20
37.46774649084095
 10
43.9831077333734
 20
40.95157964417956
 10
40.799803823018905
 20
42.61846876836611
 10
37.13734877684686
 20
42.44309442726997
 10
33.680445864891766
 20
41.186793193409436
 10
30.566102679278544
 20
39.2205636373854
 10
27.782433930998984
 20
36.80526414589403
 10
25.279365296333896
 20
34.098928453685154
 10
23.038437898468505
 20
31.171582556890353
 10
21.098994613934227
 20
28.036877274295932
 10
19.566477353261853
 20
24.686065270612033
 10
18.622639352642324
 20
21.127575620225294
 10
18.538918509178462
 20
17.452427085050953
 10
19.70760666663834
 20
13.986583173663302
  0
LWPOLYLINE
  5
39
330
17
100
AcDbEntity
  8
CONTOURS
100
AcDbPolyline
 90
24
 70
0
 38
37.49
 10
25.625
 20
16.749080841121348
 10
28.008691428851453
 20
16.918685943572203
 10
30.18808342788068
 20
17.93847277812726
 10
32.120084185506094
 20
19.38018272943291
 10
33.84117136234658
 20
21.070423637629403
 10
35.378040682058305
 20
22.930352189964122
 10
36.74666080951342
 20
24.917651921039784
 10
37.93948184849186
 20
27.015055640697664
 10
38.93303433213661
 20
29.21329769932374
 10
39.64607081542519
 20
31.51646752901579
 10
39.88688321728037
 20
33.90954530743797
 10
39.1265068989781
 20
36.15727746989362
 10
37.04965128335044
 20
37.25126231791069
 10
34.66758104445406
 20
37.005079163010585
 10
32.4595267000917
 20
36.044689979057495
 10
30.469096348507836
 20
34.68371011114344
 10
28.67319173386685
 20
33.07334104421691
 10
27.064860316807184
 20
31.27498355575036
 10
25.63820072982169
 20
29.329119126040613
 10
24.42575413533787
 20
27.24331091582311
 10
23.472527134031093
 20
25.027934347689264
 10
22.88160240132924
 20
22.691655457759136
 10
22.832203066257478
 20
20.287343342991203
 10
23.65205241276472
 20
18.044595560186725
  0
ENDSEC
  0
SECTION
  2
OBJECTS
  0
DICTIONARY
  5
A
330
0
100
AcDbDictionary
281
1
  3
ACAD_COLOR
350
B
  3
ACAD_GROUP
350
C
  3
ACAD_LAYOUT
350
D
  3
ACAD_MATERIAL
350
E
  3
ACAD_MLEADERSTYLE
350
F
  3
ACAD_MLINESTYLE
350
10
  3
ACAD_PLOTSETTINGS
350
11
  3
ACAD_PLOTSTYLENAME
350
12
  3
ACAD_SCALELIST
350
14
  3
ACAD_TABLESTYLE
350
15
  3
ACAD_VISUALSTYLE
350
16
  3
EZDXF_META
350
2D
  0
DICTIONARY
  5
B
330
A
100
AcDbDictionary
281
1
  0
DICTIONARY
  5
C
330
A
100
AcDbDictionary
281
1
  0
DICTIONARY
  5
D
330
A
100
AcDbDictionary
281
1
  3
Model
350
1A
  3
Layout1
350
1E
  0
DICTIONARY
  5
E
330
A
100
AcDbDictionary
281
1
  3
ByBlock
350
1F
  3
ByLayer
350
20
  3
Global
350
21
  0
DICTIONARY
  5
F
330
A
100
AcDbDictionary
281
1
  3
Standard
350
2C
  0
DICTIONARY
  5
10
330
A
100
AcDbDictionary
281
1
  3
Standard
350
22
  0
DICTIONARY
  5
11
330
A
100
AcDbDictionary
281
1
  0
ACDBDICTIONARYWDFLT
  5
12
330
A
100
AcDbDictionary
281
1
  3
Normal
350
13
100
AcDbDictionaryWithDefault
340
13
  0
ACDBPLACEHOLDER
  5
13
330
12
  0
DICTIONARY
  5
14
330
A
100
AcDbDictionary
281
1
  0
DICTIONARY
  5
15
330
A
100
AcDbDictionary
281
1
  0
DICTIONARY
  5
16
330
A
100
AcDbDictionary
281
1
  0
LAYOUT
  5
1A
330
D
100
AcDbPlotSettings
  1

  4
A3
  6

 40
7.5
 41
20.0
 42
7.5
 43
20.0
 44
420.0
 45
297.0
 46
0.0
 47
0.0
 48
0.0
 49
0.0
140
0.0
141
0.0
142
1.0
143
1.0
 70
1024
 72
1
 73
0
 74
5
  7

 75
16
 76
0
 77
2
 78
300
147
1.0
148
0.0
149
0.0
100
AcDbLayout
  1
Model
 70
1
 71
0
 10
0.0
 20
0.0
 11
420.0
 21
297.0
 12
0.0
 22
0.0
 32
0.0
 14
1e+20
 24
1e+20
 34
1e+20
 15
-1e+20
 25
-1e+20
 35
-1e+20
146
0.0
 13
0.0
 23
0.0
 33
0.0
 16
1.0
 26
0.0
 36
0.0
 17
0.0
 27
1.0
 37
0.0
 76
1
330
17
  0
LAYOUT
  5
1E
330
D
100
AcDbPlotSettings
  1

  4
A3
  6

 40
7.5
 41
20.0
 42
7.5
 43
20.0
 44
420.0
 45
297.0
 46
0.0
 47
0.0
 48
0.0
 49
0.0
140
0.0
141
0.0
142
1.0
143
1.0
 70
0
 72
1
 73
0
 74
5
  7

 75
16
 76
0
 77
2
 78
300
147
1.0
148
0.0
149
0.0
100
AcDbLayout
  1
Layout1
 70
1
 71
1
 10
0.0
 20
0.0
 11
420.0
 21
297.0
 12
0.0
 22
0.0
 32
0.0
 14
1e+20
 24
1e+20
 34
1e+20
 15
-1e+20
 25
-1e+20
 35
-1e+20
146
0.0
 13
0.0
 23
0.0
 33
0.0
 16
1.0
 26
0.0
 36
0.0
 17
0.0
 27
1.0
 37
0.0
 76
1
330
1B
  0
MATERIAL
  5
1F
102
{ACAD_REACTORS
330
E
102
}
330
E
100
AcDbMaterial
  1
ByBlock
  2

 70
0
 40
1.0
 71
1
 41
1.0
 91
-1023410177
 42
1.0
 72
1
  3

 73
1
 74
1
 75
1
 44
0.5
 73
0
 45
1.0
 46
1.0
 77
1
  4

 78
1
 79
1
170
1
 48
1.0
171
1
  6

172
1
173
1
174
1
140
1.0
141
1.0
175
1
  7

176
1
177
1
178
1
143
1.0
179
1
  8

270
1
271
1
272
1
145
1.0
146
1.0
273
1
  9

274
1
275
1
276
1
 42
1.0
 72
1
  3

 73
1
 74
1
 75
1
 94
63
  0
MATERIAL
  5
20
102
{ACAD_REACTORS
330
E
102
}
330
E
100
AcDbMaterial
  1
ByLayer
  2

 70
0
 40
1.0
 71
1
 41
1.0
 91
-1023410177
 42
1.0
 72
1
  3

 73
1
 74
1
 75
1
 44
0.5
 73
0
 45
1.0
 46
1.0
 77
1
  4

 78
1
 79
1
170
1
 48
1.0
171
1
  6

172
1
173
1
174
1
140
1.0
141
1.0
175
1
  7

176
1
177
1
178
1
143
1.0
179
1
  8

270
1
271
1
272
1
145
1.0
146
1.0
273
1
  9

274
1
275
1
276
1
 42
1.0
 72
1
  3

 73
1
 74
1
 75
1
 94
63
  0
MATERIAL
  5
21
102
{ACAD_REACTORS
330
E
102
}
330
E
100
AcDbMaterial
  1
Global
  2

 70
0
 40
1.0
 71
1
 41
1.0
 91
-1023410177
 42
1.0
 72
1
  3

 73
1
 74
1
 75
1
 44
0.5
 73
0
 45
1.0
 46
1.0
 77
1
  4

 78
1
 79
1
170
1
 48
1.0
171
1
  6

172
1
173
1
174
1
140
1.0
141
1.0
175
1
  7

176
1
177
1
178
1
143
1.0
179
1
  8

270
1
271
1
272
1
145
1.0
146
1.0
273
1
  9

274
1
275
1
276
1
 42
1.0
 72
1
  3

 73
1
 74
1
 75
1
 94
63
  0
MLINESTYLE
  5
22
102
{ACAD_REACTORS
330
10
102
}
330
10
100
AcDbMlineStyle
  2
Standard
 70
0
  3

 62
256
 51
90.0
 52
90.0
 71
2
 49
0.5
 62
256
  6
BYLAYER
 49
-0.5
 62
256
  6
BYLAYER
  0
MLEADERSTYLE
  5
2C
102
{ACAD_REACTORS
330
F
102
}
330
F
100
AcDbMLeaderStyle
179
2
170
2
171
1
172
0
 90
2
 40
0.0
 41
0.0
173
1
 91
-1056964608
 92
-2
290
1
 42
2.0
291
1
 43
8.0
  3
Standard
 44
4.0
300

342
29
174
1
175
1
176
0
178
1
 93
-1056964608
 45
4.0
292
0
297
0
 46
4.0
 94
-1056964608
 47
1.0
 49
1.0
140
1.0
294
1
141
0.0
177
0
142
1.0
295
0
296
0
143
3.75
271
0
272
9
273
9
  0
DICTIONARY
  5
2D
330
A
100
AcDbDictionary
280
1
281
1
  3
CREATED_BY_EZDXF
350
2E
  3
WRITTEN_BY_EZDXF
350
3C
  0
DICTIONARYVAR
  5
2E
330
2D
100
DictionaryVariables
280
0
  1
1.4.3 @ 2026-04-23T13:46:02.681335+00:00
  0
DICTIONARYVAR
  5
3C
330
2D
100
DictionaryVariables
280
0
  1
1.4.3 @ 2026-04-23T13:46:02.684505+00:00
  0
ENDSEC
  0
EOF
