# generated by make_answer.py
o Body
v -0.200000000 0.000000000 -0.100000000
v 0.200000000 0.000000000 -0.100000000
v 0.200000000 1.000000000 -0.100000000
v -0.200000000 1.000000000 -0.100000000
v -0.200000000 0.000000000 0.100000000
v 0.200000000 0.000000000 0.100000000
v 0.200000000 1.000000000 0.100000000
v -0.200000000 1.000000000 0.100000000
v 0.200000000 0.430000000 0.000000000
v 0.200000000 0.423910000 0.030615000
v 0.200000000 0.406569000 0.056569000
v 0.200000000 0.380615000 0.073910000
v 0.200000000 0.350000000 0.080000000
v 0.200000000 0.319385000 0.073910000
v 0.200000000 0.293431000 0.056569000
v 0.200000000 0.276090000 0.030615000
v 0.200000000 0.270000000 0.000000000
v 0.200000000 0.276090000 -0.030615000
v 0.200000000 0.293431000 -0.056569000
v 0.200000000 0.319385000 -0.073910000
v 0.200000000 0.350000000 -0.080000000
v 0.200000000 0.380615000 -0.073910000
v 0.200000000 0.406569000 -0.056569000
v 0.200000000 0.423910000 -0.030615000
v 0.338974579 0.362139032 0.000000000
v 0.335929579 0.356864938 0.030615000
v 0.327259079 0.341847191 0.056569000
v 0.314282079 0.319370368 0.073910000
v 0.298974579 0.292857000 0.080000000
v 0.283667079 0.266343632 0.073910000
v 0.270690079 0.243866809 0.056569000
v 0.262019579 0.228849062 0.030615000
v 0.258974579 0.223574968 0.000000000
v 0.262019579 0.228849062 -0.030615000
v 0.270690079 0.243866809 -0.056569000
v 0.283667079 0.266343632 -0.073910000
v 0.298974579 0.292857000 -0.080000000
v 0.314282079 0.319370368 -0.073910000
v 0.327259079 0.341847191 -0.056569000
v 0.335929579 0.356864938 -0.030615000
v 0.437948293 0.304996532 0.000000000
v 0.434903293 0.299722438 0.030615000
v 0.426232793 0.284704691 0.056569000
v 0.413255793 0.262227868 0.073910000
v 0.397948293 0.235714500 0.080000000
v 0.382640793 0.209201132 0.073910000
v 0.369663793 0.186724309 0.056569000
v 0.360993293 0.171706562 0.030615000
v 0.357948293 0.166432468 0.000000000
v 0.360993293 0.171706562 -0.030615000
v 0.369663793 0.186724309 -0.056569000
v 0.382640793 0.209201132 -0.073910000
v 0.397948293 0.235714500 -0.080000000
v 0.413255793 0.262227868 -0.073910000
v 0.426232793 0.284704691 -0.056569000
v 0.434903293 0.299722438 -0.030615000
v 0.536922872 0.247853532 0.000000000
v 0.533877872 0.242579438 0.030615000
v 0.525207372 0.227561691 0.056569000
v 0.512230372 0.205084868 0.073910000
v 0.496922872 0.178571500 0.080000000
v 0.481615372 0.152058132 0.073910000
v 0.468638372 0.129581309 0.056569000
v 0.459967872 0.114563562 0.030615000
v 0.456922872 0.109289468 0.000000000
v 0.459967872 0.114563562 -0.030615000
v 0.468638372 0.129581309 -0.056569000
v 0.481615372 0.152058132 -0.073910000
v 0.496922872 0.178571500 -0.080000000
v 0.512230372 0.205084868 -0.073910000
v 0.525207372 0.227561691 -0.056569000
v 0.533877872 0.242579438 -0.030615000
v 0.635897451 0.190710532 0.000000000
v 0.632852451 0.185436438 0.030615000
v 0.624181951 0.170418691 0.056569000
v 0.611204951 0.147941868 0.073910000
v 0.595897451 0.121428500 0.080000000
v 0.580589951 0.094915132 0.073910000
v 0.567612951 0.072438309 0.056569000
v 0.558942451 0.057420562 0.030615000
v 0.555897451 0.052146468 0.000000000
v 0.558942451 0.057420562 -0.030615000
v 0.567612951 0.072438309 -0.056569000
v 0.580589951 0.094915132 -0.073910000
v 0.595897451 0.121428500 -0.080000000
v 0.611204951 0.147941868 -0.073910000
v 0.624181951 0.170418691 -0.056569000
v 0.632852451 0.185436438 -0.030615000
v 0.734872030 0.133567532 0.000000000
v 0.731827030 0.128293438 0.030615000
v 0.723156530 0.113275691 0.056569000
v 0.710179530 0.090798868 0.073910000
v 0.694872030 0.064285500 0.080000000
v 0.679564530 0.037772132 0.073910000
v 0.666587530 0.015295309 0.056569000
v 0.657917030 0.000277562 0.030615000
v 0.654872030 -0.004996532 0.000000000
v 0.657917030 0.000277562 -0.030615000
v 0.666587530 0.015295309 -0.056569000
v 0.679564530 0.037772132 -0.073910000
v 0.694872030 0.064285500 -0.080000000
v 0.710179530 0.090798868 -0.073910000
v 0.723156530 0.113275691 -0.056569000
v 0.731827030 0.128293438 -0.030615000
v 0.833845744 0.076425032 0.000000000
v 0.830800744 0.071150938 0.030615000
v 0.822130244 0.056133191 0.056569000
v 0.809153244 0.033656368 0.073910000
v 0.793845744 0.007143000 0.080000000
v 0.778538244 -0.019370368 0.073910000
v 0.765561244 -0.041847191 0.056569000
v 0.756890744 -0.056864938 0.030615000
v 0.753845744 -0.062139032 0.000000000
v 0.756890744 -0.056864938 -0.030615000
v 0.765561244 -0.041847191 -0.056569000
v 0.778538244 -0.019370368 -0.073910000
v 0.793845744 0.007143000 -0.080000000
v 0.809153244 0.033656368 -0.073910000
v 0.822130244 0.056133191 -0.056569000
v 0.830800744 0.071150938 -0.030615000
v 0.932820323 0.019282032 0.000000000
v 0.929775323 0.014007938 0.030615000
v 0.921104823 -0.001009809 0.056569000
v 0.908127823 -0.023486632 0.073910000
v 0.892820323 -0.050000000 0.080000000
v 0.877512823 -0.076513368 0.073910000
v 0.864535823 -0.098990191 0.056569000
v 0.855865323 -0.114007938 0.030615000
v 0.852820323 -0.119282032 0.000000000
v 0.855865323 -0.114007938 -0.030615000
v 0.864535823 -0.098990191 -0.056569000
v 0.877512823 -0.076513368 -0.073910000
v 0.892820323 -0.050000000 -0.080000000
v 0.908127823 -0.023486632 -0.073910000
v 0.921104823 -0.001009809 -0.056569000
v 0.929775323 0.014007938 -0.030615000
v 0.200000000 0.350000000 0.000000000
v 0.892820323 -0.050000000 0.000000000
v -0.200000000 -0.800000000 -0.100000000
v 0.200000000 -0.800000000 -0.100000000
v 0.200000000 0.000000000 -0.100000000
v -0.200000000 0.000000000 -0.100000000
v -0.200000000 -0.800000000 0.100000000
v 0.200000000 -0.800000000 0.100000000
v 0.200000000 0.000000000 0.100000000
v -0.200000000 0.000000000 0.100000000
g default
f 5 6 7 8
f 2 1 4 3
f 6 2 3 7
f 1 5 8 4
f 8 7 3 4
f 1 2 6 5
f 9 10 26 25
f 10 11 27 26
f 11 12 28 27
f 12 13 29 28
f 13 14 30 29
f 14 15 31 30
f 15 16 32 31
f 16 17 33 32
f 17 18 34 33
f 18 19 35 34
f 19 20 36 35
f 20 21 37 36
f 21 22 38 37
f 22 23 39 38
f 23 24 40 39
f 24 9 25 40
f 25 26 42 41
f 26 27 43 42
f 27 28 44 43
f 28 29 45 44
f 29 30 46 45
f 30 31 47 46
f 31 32 48 47
f 32 33 49 48
f 33 34 50 49
f 34 35 51 50
f 35 36 52 51
f 36 37 53 52
f 37 38 54 53
f 38 39 55 54
f 39 40 56 55
f 40 25 41 56
f 41 42 58 57
f 42 43 59 58
f 43 44 60 59
f 44 45 61 60
f 45 46 62 61
f 46 47 63 62
f 47 48 64 63
f 48 49 65 64
f 49 50 66 65
f 50 51 67 66
f 51 52 68 67
f 52 53 69 68
f 53 54 70 69
f 54 55 71 70
f 55 56 72 71
f 56 41 57 72
f 57 58 74 73
f 58 59 75 74
f 59 60 76 75
f 60 61 77 76
f 61 62 78 77
f 62 63 79 78
f 63 64 80 79
f 64 65 81 80
f 65 66 82 81
f 66 67 83 82
f 67 68 84 83
f 68 69 85 84
f 69 70 86 85
f 70 71 87 86
f 71 72 88 87
f 72 57 73 88
f 73 74 90 89
f 74 75 91 90
f 75 76 92 91
f 76 77 93 92
f 77 78 94 93
f 78 79 95 94
f 79 80 96 95
f 80 81 97 96
f 81 82 98 97
f 82 83 99 98
f 83 84 100 99
f 84 85 101 100
f 85 86 102 101
f 86 87 103 102
f 87 88 104 103
f 88 73 89 104
f 89 90 106 105
f 90 91 107 106
f 91 92 108 107
f 92 93 109 108
f 93 94 110 109
f 94 95 111 110
f 95 96 112 111
f 96 97 113 112
f 97 98 114 113
f 98 99 115 114
f 99 100 116 115
f 100 101 117 116
f 101 102 118 117
f 102 103 119 118
f 103 104 120 119
f 104 89 105 120
f 105 106 122 121
f 106 107 123 122
f 107 108 124 123
f 108 109 125 124
f 109 110 126 125
f 110 111 127 126
f 111 112 128 127
f 112 113 129 128
f 113 114 130 129
f 114 115 131 130
f 115 116 132 131
f 116 117 133 132
f 117 118 134 133
f 118 119 135 134
f 119 120 136 135
f 120 105 121 136
f 137 10 9
f 137 11 10
f 137 12 11
f 137 13 12
f 137 14 13
f 137 15 14
f 137 16 15
f 137 17 16
f 137 18 17
f 137 19 18
f 137 20 19
f 137 21 20
f 137 22 21
f 137 23 22
f 137 24 23
f 137 9 24
f 138 121 122
f 138 122 123
f 138 123 124
f 138 124 125
f 138 125 126
f 138 126 127
f 138 127 128
f 138 128 129
f 138 129 130
f 138 130 131
f 138 131 132
f 138 132 133
f 138 133 134
f 138 134 135
f 138 135 136
f 138 136 121
f 143 144 145 146
f 140 139 142 141
f 144 140 141 145
f 139 143 146 142
f 146 145 141 142
f 139 140 144 143
