  0
SECTION
  2
HEADER
  9
$ACADVER
  1
AC1009
  9
$INSBASE
 10
0.0
 20
0.0
 30
0.0
  9
$EXTMIN
 10
0.0
 20
0.0
 30
0.0
  9
$EXTMAX
 10
0.0
 20
0.0
 30
0.0
  0
ENDSEC
  0
SECTION
  2
TABLES
  0
TABLE
  2
VPORT
 70
0
  0
ENDTAB
  0
TABLE
  2
LTYPE
 70
1
  0
LTYPE
  2
CONTINUOUS
 70
0
  3
Solid line
 72
65
 73
0
 40
0.0
  0
ENDTAB
  0
TABLE
  2
LAYER
 70
1
  0
LAYER
  2
0
 70
64
 62
7
  6
continuous
  0
ENDTAB
  0
TABLE
  2
STYLE
 70
1
  0
STYLE
  2
STANDARD
 70
0
 40
0
 41
1.0
 50
0.0
 71
0
 42
1
 3
ARIAL.TTF
 4

  0
ENDTAB
  0
TABLE
  2
VIEW
 70
0
  0
ENDTAB
  0
ENDSEC
  0
SECTION
  2
BLOCKS
  0
BLOCK
  8
0
  2
SHAPESTRING
 70
0
 10
0.0
 20
0.0
 30
0.0
  3
SHAPESTRING
  0
POLYLINE
  8
0
 62
0
 70
1
 66
1
 10
0.0
 20
0.0
 30
0.0
  0
VERTEX
  8
0
 10
9.331585570469798
 20
86.16107382550335
 30
0.0
  0
VERTEX
  8
0
 10
7.2678271812080535
 20
86.16107382550335
 30
0.0
  0
VERTEX
  8
0
 10
7.2678271812080535
 20
84.77852348993288
 30
0.0
  0
VERTEX
  8
0
 10
9.130243288590604
 20
84.77852348993288
 30
0.0
  0
VERTEX
  8
0
 10
9.130243288590604
 20
84.24161073825503
 30
0.0
  0
VERTEX
  8
0
 10
7.2678271812080535
 20
84.24161073825503
 30
0.0
  0
VERTEX
  8
0
 10
7.2678271812080535
 20
82.0
 30
0.0
  0
VERTEX
  8
0
 10
6.6323406040268456
 20
82.0
 30
0.0
  0
VERTEX
  8
0
 10
6.6323406040268456
 20
86.69798657718121
 30
0.0
  0
VERTEX
  8
0
 10
9.331585570469798
 20
86.69798657718121
 30
0.0
  0
SEQEND
  8
0
  0
POLYLINE
  8
0
 62
0
 70
1
 66
1
 10
0.0
 20
0.0
 30
0.0
  0
VERTEX
  8
0
 10
13.350880872483222
 20
83.28460570469798
 30
0.0
  0
VERTEX
  8
0
 10
13.995805369127517
 20
82.0
 30
0.0
  0
VERTEX
  8
0
 10
13.313129194630871
 20
82.0
 30
0.0
  0
VERTEX
  8
0
 10
12.712248322147651
 20
83.2057466442953
 30
0.0
  0
VERTEX
  8
0
 10
12.260696308724832
 20
83.83221476510067
 30
0.0
  0
VERTEX
  8
0
 10
11.664639261744966
 20
83.98657718120805
 30
0.0
  0
VERTEX
  8
0
 10
10.972525167785236
 20
83.98657718120805
 30
0.0
  0
VERTEX
  8
0
 10
10.972525167785236
 20
82.0
 30
0.0
  0
VERTEX
  8
0
 10
10.337038590604028
 20
82.0
 30
0.0
  0
VERTEX
  8
0
 10
10.337038590604028
 20
86.69798657718121
 30
0.0
  0
VERTEX
  8
0
 10
11.771602348993289
 20
86.69798657718121
 30
0.0
  0
VERTEX
  8
0
 10
12.97336409395973
 20
86.36136744966443
 30
0.0
  0
VERTEX
  8
0
 10
13.369756711409396
 20
85.34563758389261
 30
0.0
  0
VERTEX
  8
0
 10
13.163590604026846
 20
84.60968959731544
 30
0.0
  0
VERTEX
  8
0
 10
12.564387583892618
 20
84.20406879194631
 30
0.0
  0
VERTEX
  8
0
 10
12.962248322147651
 20
83.90813758389261
 30
0.0
  0
SEQEND
  8
0
  0
POLYLINE
  8
0
 62
0
 70
1
 66
1
 10
0.0
 20
0.0
 30
0.0
  0
VERTEX
  8
0
 10
11.771602348993289
 20
84.51006711409396
 30
0.0
  0
VERTEX
  8
0
 10
12.465184563758388
 20
84.72189597315436
 30
0.0
  0
VERTEX
  8
0
 10
12.699664429530202
 20
85.34542785234899
 30
0.0
  0
VERTEX
  8
0
 10
12.465184563758388
 20
85.96560402684564
 30
0.0
  0
VERTEX
  8
0
 10
11.771602348993289
 20
86.1744966442953
 30
0.0
  0
VERTEX
  8
0
 10
10.972525167785236
 20
86.1744966442953
 30
0.0
  0
VERTEX
  8
0
 10
10.972525167785236
 20
84.51006711409396
 30
0.0
  0
SEQEND
  8
0
  0
POLYLINE
  8
0
 62
0
 70
1
 66
1
 10
0.0
 20
0.0
 30
0.0
  0
VERTEX
  8
0
 10
17.790058724832214
 20
86.16107382550335
 30
0.0
  0
VERTEX
  8
0
 10
15.455746644295301
 20
86.16107382550335
 30
0.0
  0
VERTEX
  8
0
 10
15.455746644295301
 20
84.76510067114094
 30
0.0
  0
VERTEX
  8
0
 10
17.69253355704698
 20
84.76510067114094
 30
0.0
  0
VERTEX
  8
0
 10
17.69253355704698
 20
84.22818791946308
 30
0.0
  0
VERTEX
  8
0
 10
15.455746644295301
 20
84.22818791946308
 30
0.0
  0
VERTEX
  8
0
 10
15.455746644295301
 20
82.53691275167785
 30
0.0
  0
VERTEX
  8
0
 10
17.846686241610737
 20
82.53691275167785
 30
0.0
  0
VERTEX
  8
0
 10
17.846686241610737
 20
82.0
 30
0.0
  0
VERTEX
  8
0
 10
14.820260067114093
 20
82.0
 30
0.0
  0
VERTEX
  8
0
 10
14.820260067114093
 20
86.69798657718121
 30
0.0
  0
VERTEX
  8
0
 10
17.790058724832214
 20
86.69798657718121
 30
0.0
  0
SEQEND
  8
0
  0
POLYLINE
  8
0
 62
0
 70
1
 66
1
 10
0.0
 20
0.0
 30
0.0
  0
VERTEX
  8
0
 10
21.857172818791945
 20
86.16107382550335
 30
0.0
  0
VERTEX
  8
0
 10
19.522860738255034
 20
86.16107382550335
 30
0.0
  0
VERTEX
  8
0
 10
19.522860738255034
 20
84.76510067114094
 30
0.0
  0
VERTEX
  8
0
 10
21.759647651006713
 20
84.76510067114094
 30
0.0
  0
VERTEX
  8
0
 10
21.759647651006713
 20
84.22818791946308
 30
0.0
  0
VERTEX
  8
0
 10
19.522860738255034
 20
84.22818791946308
 30
0.0
  0
VERTEX
  8
0
 10
19.522860738255034
 20
82.53691275167785
 30
0.0
  0
VERTEX
  8
0
 10
21.91380033557047
 20
82.53691275167785
 30
0.0
  0
VERTEX
  8
0
 10
21.91380033557047
 20
82.0
 30
0.0
  0
VERTEX
  8
0
 10
18.887374161073826
 20
82.0
 30
0.0
  0
VERTEX
  8
0
 10
18.887374161073826
 20
86.69798657718121
 30
0.0
  0
VERTEX
  8
0
 10
21.857172818791945
 20
86.69798657718121
 30
0.0
  0
SEQEND
  8
0
  0
POLYLINE
  8
0
 62
0
 70
1
 66
1
 10
0.0
 20
0.0
 30
0.0
  0
VERTEX
  8
0
 10
25.7873322147651
 20
86.10801174496645
 30
0.0
  0
VERTEX
  8
0
 10
25.015100671140942
 20
86.25503355704699
 30
0.0
  0
VERTEX
  8
0
 10
23.781879194630875
 20
85.7630033557047
 30
0.0
  0
VERTEX
  8
0
 10
23.354026845637584
 20
84.34081375838926
 30
0.0
  0
VERTEX
  8
0
 10
23.781879194630875
 20
82.92135067114094
 30
0.0
  0
VERTEX
  8
0
 10
25.015100671140942
 20
82.42953020134229
 30
0.0
  0
VERTEX
  8
0
 10
25.7873322147651
 20
82.57634228187919
 30
0.0
  0
VERTEX
  8
0
 10
26.47168624161074
 20
83.02013422818791
 30
0.0
  0
VERTEX
  8
0
 10
26.47168624161074
 20
82.36241610738254
 30
0.0
  0
VERTEX
  8
0
 10
25.765310402684566
 20
82.02013422818791
 30
0.0
  0
VERTEX
  8
0
 10
24.977348993288594
 20
81.90604026845638
 30
0.0
  0
VERTEX
  8
0
 10
23.29739932885906
 20
82.55872483221476
 30
0.0
  0
VERTEX
  8
0
 10
22.683934563758392
 20
84.34081375838926
 30
0.0
  0
VERTEX
  8
0
 10
23.29739932885906
 20
86.1258389261745
 30
0.0
  0
VERTEX
  8
0
 10
24.977348993288594
 20
86.77852348993288
 30
0.0
  0
VERTEX
  8
0
 10
25.77160234899329
 20
86.66778523489933
 30
0.0
  0
VERTEX
  8
0
 10
26.47168624161074
 20
86.33557046979865
 30
0.0
  0
VERTEX
  8
0
 10
26.47168624161074
 20
85.66442953020135
 30
0.0
  0
SEQEND
  8
0
  0
POLYLINE
  8
0
 62
0
 70
1
 66
1
 10
0.0
 20
0.0
 30
0.0
  0
VERTEX
  8
0
 10
31.17281879194631
 20
82.0
 30
0.0
  0
VERTEX
  8
0
 10
30.512164429530202
 20
82.0
 30
0.0
  0
VERTEX
  8
0
 10
30.08431208053691
 20
83.20805369127517
 30
0.0
  0
VERTEX
  8
0
 10
27.967072147651006
 20
83.20805369127517
 30
0.0
  0
VERTEX
  8
0
 10
27.53921979865772
 20
82.0
 30
0.0
  0
VERTEX
  8
0
 10
26.869127516778523
 20
82.0
 30
0.0
  0
VERTEX
  8
0
 10
28.6623322147651
 20
86.69798657718121
 30
0.0
  0
VERTEX
  8
0
 10
29.382760067114095
 20
86.69798657718121
 30
0.0
  0
SEQEND
  8
0
  0
POLYLINE
  8
0
 62
0
 70
1
 66
1
 10
0.0
 20
0.0
 30
0.0
  0
VERTEX
  8
0
 10
29.88611577181208
 20
83.73154362416108
 30
0.0
  0
VERTEX
  8
0
 10
29.020973154362416
 20
86.07130872483222
 30
0.0
  0
VERTEX
  8
0
 10
28.158976510067113
 20
83.73154362416108
 30
0.0
  0
SEQEND
  8
0
  0
POLYLINE
  8
0
 62
0
 70
1
 66
1
 10
0.0
 20
0.0
 30
0.0
  0
VERTEX
  8
0
 10
35.163380872483216
 20
86.13003355704699
 30
0.0
  0
VERTEX
  8
0
 10
35.80201342281879
 20
84.35360738255034
 30
0.0
  0
VERTEX
  8
0
 10
35.160234899328856
 20
82.5694211409396
 30
0.0
  0
VERTEX
  8
0
 10
33.15939597315436
 20
82.0
 30
0.0
  0
VERTEX
  8
0
 10
31.85381711409396
 20
82.0
 30
0.0
  0
VERTEX
  8
0
 10
31.85381711409396
 20
86.69798657718121
 30
0.0
  0
VERTEX
  8
0
 10
33.15939597315436
 20
86.69798657718121
 30
0.0
  0
SEQEND
  8
0
  0
POLYLINE
  8
0
 62
0
 70
1
 66
1
 10
0.0
 20
0.0
 30
0.0
  0
VERTEX
  8
0
 10
33.256921140939596
 20
82.52348993288591
 30
0.0
  0
VERTEX
  8
0
 10
34.68036912751678
 20
82.96371644295301
 30
0.0
  0
VERTEX
  8
0
 10
35.131921140939596
 20
84.35360738255034
 30
0.0
  0
VERTEX
  8
0
 10
34.68036912751678
 20
85.73573825503355
 30
0.0
  0
VERTEX
  8
0
 10
33.256921140939596
 20
86.1744966442953
 30
0.0
  0
VERTEX
  8
0
 10
32.48930369127517
 20
86.1744966442953
 30
0.0
  0
VERTEX
  8
0
 10
32.48930369127517
 20
82.52348993288591
 30
0.0
  0
SEQEND
  8
0
  0
POLYLINE
  8
0
 62
0
 70
1
 66
1
 10
0.0
 20
0.0
 30
0.0
  0
VERTEX
  8
0
 10
36.125
 20
80.48322147651007
 30
0.0
  0
VERTEX
  8
0
 10
36.125
 20
80.93959731543625
 30
0.0
  0
VERTEX
  8
0
 10
39.47231543624161
 20
80.93959731543625
 30
0.0
  0
VERTEX
  8
0
 10
39.47231543624161
 20
80.48322147651007
 30
0.0
  0
SEQEND
  8
0
  0
POLYLINE
  8
0
 62
0
 70
1
 66
1
 10
0.0
 20
0.0
 30
0.0
  0
VERTEX
  8
0
 10
43.36388422818792
 20
86.16107382550335
 30
0.0
  0
VERTEX
  8
0
 10
41.696518456375834
 20
86.16107382550335
 30
0.0
  0
VERTEX
  8
0
 10
41.696518456375834
 20
82.0
 30
0.0
  0
VERTEX
  8
0
 10
41.05788590604027
 20
82.0
 30
0.0
  0
VERTEX
  8
0
 10
41.05788590604027
 20
86.16107382550335
 30
0.0
  0
VERTEX
  8
0
 10
39.39052013422818
 20
86.16107382550335
 30
0.0
  0
VERTEX
  8
0
 10
39.39052013422818
 20
86.69798657718121
 30
0.0
  0
VERTEX
  8
0
 10
43.36388422818792
 20
86.69798657718121
 30
0.0
  0
SEQEND
  8
0
  0
POLYLINE
  8
0
 62
0
 70
1
 66
1
 10
0.0
 20
0.0
 30
0.0
  0
VERTEX
  8
0
 10
48.05180369127517
 20
84.34081375838926
 30
0.0
  0
VERTEX
  8
0
 10
47.460360738255034
 20
82.56816275167785
 30
0.0
  0
VERTEX
  8
0
 10
45.8810822147651
 20
81.90604026845638
 30
0.0
  0
VERTEX
  8
0
 10
44.29697986577181
 20
82.56648489932886
 30
0.0
  0
VERTEX
  8
0
 10
43.704068791946305
 20
84.34081375838926
 30
0.0
  0
VERTEX
  8
0
 10
44.29697986577181
 20
86.11640100671141
 30
0.0
  0
VERTEX
  8
0
 10
45.8810822147651
 20
86.77852348993288
 30
0.0
  0
VERTEX
  8
0
 10
47.460360738255034
 20
86.11640100671141
 30
0.0
  0
SEQEND
  8
0
  0
POLYLINE
  8
0
 62
0
 70
1
 66
1
 10
0.0
 20
0.0
 30
0.0
  0
VERTEX
  8
0
 10
44.374161073825505
 20
84.34060402684564
 30
0.0
  0
VERTEX
  8
0
 10
44.78145973154362
 20
82.93351510067114
 30
0.0
  0
VERTEX
  8
0
 10
45.8810822147651
 20
82.41610738255034
 30
0.0
  0
VERTEX
  8
0
 10
46.97734899328859
 20
82.93351510067114
 30
0.0
  0
VERTEX
  8
0
 10
47.381711409395976
 20
84.34060402684564
 30
0.0
  0
VERTEX
  8
0
 10
46.97734899328859
 20
85.75104865771812
 30
0.0
  0
VERTEX
  8
0
 10
45.8810822147651
 20
86.26845637583892
 30
0.0
  0
VERTEX
  8
0
 10
44.78145973154362
 20
85.75104865771812
 30
0.0
  0
SEQEND
  8
0
  0
POLYLINE
  8
0
 62
0
 70
1
 66
1
 10
0.0
 20
0.0
 30
0.0
  0
VERTEX
  8
0
 10
48.35318791946309
 20
80.48322147651007
 30
0.0
  0
VERTEX
  8
0
 10
48.35318791946309
 20
80.93959731543625
 30
0.0
  0
VERTEX
  8
0
 10
51.7005033557047
 20
80.93959731543625
 30
0.0
  0
VERTEX
  8
0
 10
51.7005033557047
 20
80.48322147651007
 30
0.0
  0
SEQEND
  8
0
  0
POLYLINE
  8
0
 62
0
 70
1
 66
1
 10
0.0
 20
0.0
 30
0.0
  0
VERTEX
  8
0
 10
52.905411073825505
 20
84.71245805369128
 30
0.0
  0
VERTEX
  8
0
 10
55.013213087248324
 20
86.69798657718121
 30
0.0
  0
VERTEX
  8
0
 10
55.83116610738255
 20
86.69798657718121
 30
0.0
  0
VERTEX
  8
0
 10
53.5
 20
84.50796979865771
 30
0.0
  0
VERTEX
  8
0
 10
55.997902684563755
 20
82.0
 30
0.0
  0
VERTEX
  8
0
 10
55.16107382550336
 20
82.0
 30
0.0
  0
VERTEX
  8
0
 10
52.905411073825505
 20
84.26237416107382
 30
0.0
  0
VERTEX
  8
0
 10
52.905411073825505
 20
82.0
 30
0.0
  0
VERTEX
  8
0
 10
52.26992449664429
 20
82.0
 30
0.0
  0
VERTEX
  8
0
 10
52.26992449664429
 20
86.69798657718121
 30
0.0
  0
VERTEX
  8
0
 10
52.905411073825505
 20
86.69798657718121
 30
0.0
  0
SEQEND
  8
0
  0
POLYLINE
  8
0
 62
0
 70
1
 66
1
 10
0.0
 20
0.0
 30
0.0
  0
VERTEX
  8
0
 10
57.133598993288594
 20
82.0
 30
0.0
  0
VERTEX
  8
0
 10
56.49811241610738
 20
82.0
 30
0.0
  0
VERTEX
  8
0
 10
56.49811241610738
 20
86.69798657718121
 30
0.0
  0
VERTEX
  8
0
 10
57.133598993288594
 20
86.69798657718121
 30
0.0
  0
SEQEND
  8
0
  0
POLYLINE
  8
0
 62
0
 70
1
 66
1
 10
0.0
 20
0.0
 30
0.0
  0
VERTEX
  8
0
 10
61.2369966442953
 20
86.10801174496645
 30
0.0
  0
VERTEX
  8
0
 10
60.46476510067114
 20
86.25503355704699
 30
0.0
  0
VERTEX
  8
0
 10
59.23154362416107
 20
85.7630033557047
 30
0.0
  0
VERTEX
  8
0
 10
58.803691275167786
 20
84.34081375838926
 30
0.0
  0
VERTEX
  8
0
 10
59.23154362416107
 20
82.92135067114094
 30
0.0
  0
VERTEX
  8
0
 10
60.46476510067114
 20
82.42953020134229
 30
0.0
  0
VERTEX
  8
0
 10
61.2369966442953
 20
82.57634228187919
 30
0.0
  0
VERTEX
  8
0
 10
61.921350671140935
 20
83.02013422818791
 30
0.0
  0
VERTEX
  8
0
 10
61.921350671140935
 20
82.36241610738254
 30
0.0
  0
VERTEX
  8
0
 10
61.214974832214764
 20
82.02013422818791
 30
0.0
  0
VERTEX
  8
0
 10
60.42701342281879
 20
81.90604026845638
 30
0.0
  0
VERTEX
  8
0
 10
58.74706375838926
 20
82.55872483221476
 30
0.0
  0
VERTEX
  8
0
 10
58.13359899328859
 20
84.34081375838926
 30
0.0
  0
VERTEX
  8
0
 10
58.74706375838926
 20
86.1258389261745
 30
0.0
  0
VERTEX
  8
0
 10
60.42701342281879
 20
86.77852348993288
 30
0.0
  0
VERTEX
  8
0
 10
61.221266778523486
 20
86.66778523489933
 30
0.0
  0
VERTEX
  8
0
 10
61.921350671140935
 20
86.33557046979865
 30
0.0
  0
VERTEX
  8
0
 10
61.921350671140935
 20
85.66442953020135
 30
0.0
  0
SEQEND
  8
0
  0
POLYLINE
  8
0
 62
0
 70
1
 66
1
 10
0.0
 20
0.0
 30
0.0
  0
VERTEX
  8
0
 10
66.6224832214765
 20
82.0
 30
0.0
  0
VERTEX
  8
0
 10
65.9618288590604
 20
82.0
 30
0.0
  0
VERTEX
  8
0
 10
65.5339765100671
 20
83.20805369127517
 30
0.0
  0
VERTEX
  8
0
 10
63.416736577181204
 20
83.20805369127517
 30
0.0
  0
VERTEX
  8
0
 10
62.98888422818791
 20
82.0
 30
0.0
  0
VERTEX
  8
0
 10
62.31879194630872
 20
82.0
 30
0.0
  0
VERTEX
  8
0
 10
64.11199664429529
 20
86.69798657718121
 30
0.0
  0
VERTEX
  8
0
 10
64.8324244966443
 20
86.69798657718121
 30
0.0
  0
SEQEND
  8
0
  0
POLYLINE
  8
0
 62
0
 70
1
 66
1
 10
0.0
 20
0.0
 30
0.0
  0
VERTEX
  8
0
 10
65.33578020134229
 20
83.73154362416108
 30
0.0
  0
VERTEX
  8
0
 10
64.47063758389261
 20
86.07130872483222
 30
0.0
  0
VERTEX
  8
0
 10
63.608640939597315
 20
83.73154362416108
 30
0.0
  0
SEQEND
  8
0
  0
POLYLINE
  8
0
 62
0
 70
1
 66
1
 10
0.0
 20
0.0
 30
0.0
  0
VERTEX
  8
0
 10
70.61304530201342
 20
86.13003355704699
 30
0.0
  0
VERTEX
  8
0
 10
71.25167785234899
 20
84.35360738255034
 30
0.0
  0
VERTEX
  8
0
 10
70.60989932885906
 20
82.5694211409396
 30
0.0
  0
VERTEX
  8
0
 10
68.60906040268456
 20
82.0
 30
0.0
  0
VERTEX
  8
0
 10
67.30348154362416
 20
82.0
 30
0.0
  0
VERTEX
  8
0
 10
67.30348154362416
 20
86.69798657718121
 30
0.0
  0
VERTEX
  8
0
 10
68.60906040268456
 20
86.69798657718121
 30
0.0
  0
SEQEND
  8
0
  0
POLYLINE
  8
0
 62
0
 70
1
 66
1
 10
0.0
 20
0.0
 30
0.0
  0
VERTEX
  8
0
 10
68.7065855704698
 20
82.52348993288591
 30
0.0
  0
VERTEX
  8
0
 10
70.13003355704699
 20
82.96371644295301
 30
0.0
  0
VERTEX
  8
0
 10
70.5815855704698
 20
84.35360738255034
 30
0.0
  0
VERTEX
  8
0
 10
70.13003355704699
 20
85.73573825503355
 30
0.0
  0
VERTEX
  8
0
 10
68.7065855704698
 20
86.1744966442953
 30
0.0
  0
VERTEX
  8
0
 10
67.93896812080537
 20
86.1744966442953
 30
0.0
  0
VERTEX
  8
0
 10
67.93896812080537
 20
82.52348993288591
 30
0.0
  0
SEQEND
  8
0
  0
ENDBLK
  0
BLOCK
  8
0
  2
SHAPESTRING001
 70
0
 10
0.0
 20
0.0
 30
0.0
  3
SHAPESTRING001
  0
POLYLINE
  8
0
 62
0
 70
1
 66
1
 10
0.0
 20
0.0
 30
0.0
  0
VERTEX
  8
0
 10
109.32256711409396
 20
86.99328859060402
 30
0.0
  0
VERTEX
  8
0
 10
106.52139261744966
 20
86.99328859060402
 30
0.0
  0
VERTEX
  8
0
 10
106.52139261744966
 20
85.31812080536913
 30
0.0
  0
VERTEX
  8
0
 10
109.20553691275168
 20
85.31812080536913
 30
0.0
  0
VERTEX
  8
0
 10
109.20553691275168
 20
84.6738255033557
 30
0.0
  0
VERTEX
  8
0
 10
106.52139261744966
 20
84.6738255033557
 30
0.0
  0
VERTEX
  8
0
 10
106.52139261744966
 20
82.64429530201342
 30
0.0
  0
VERTEX
  8
0
 10
109.39052013422818
 20
82.64429530201342
 30
0.0
  0
VERTEX
  8
0
 10
109.39052013422818
 20
82.0
 30
0.0
  0
VERTEX
  8
0
 10
105.75880872483222
 20
82.0
 30
0.0
  0
VERTEX
  8
0
 10
105.75880872483222
 20
87.63758389261744
 30
0.0
  0
VERTEX
  8
0
 10
109.32256711409396
 20
87.63758389261744
 30
0.0
  0
SEQEND
  8
0
  0
POLYLINE
  8
0
 62
0
 70
1
 66
1
 10
0.0
 20
0.0
 30
0.0
  0
VERTEX
  8
0
 10
112.09278523489932
 20
82.8723154362416
 30
0.0
  0
VERTEX
  8
0
 10
113.27441275167786
 20
87.63758389261744
 30
0.0
  0
VERTEX
  8
0
 10
114.13137583892617
 20
87.63758389261744
 30
0.0
  0
VERTEX
  8
0
 10
115.31677852348993
 20
82.8723154362416
 30
0.0
  0
VERTEX
  8
0
 10
116.49840604026846
 20
87.63758389261744
 30
0.0
  0
VERTEX
  8
0
 10
117.27231543624161
 20
87.63758389261744
 30
0.0
  0
VERTEX
  8
0
 10
115.85662751677852
 20
82.0
 30
0.0
  0
VERTEX
  8
0
 10
114.89773489932885
 20
82.0
 30
0.0
  0
VERTEX
  8
0
 10
113.70855704697986
 20
86.89362416107383
 30
0.0
  0
VERTEX
  8
0
 10
112.50805369127517
 20
82.0
 30
0.0
  0
VERTEX
  8
0
 10
111.5491610738255
 20
82.0
 30
0.0
  0
VERTEX
  8
0
 10
110.13724832214766
 20
87.63758389261744
 30
0.0
  0
VERTEX
  8
0
 10
110.90738255033557
 20
87.63758389261744
 30
0.0
  0
SEQEND
  8
0
  0
POLYLINE
  8
0
 62
0
 70
1
 66
1
 10
0.0
 20
0.0
 30
0.0
  0
VERTEX
  8
0
 10
121.2123322147651
 20
83.96510067114095
 30
0.0
  0
VERTEX
  8
0
 10
122.01644295302013
 20
83.96510067114095
 30
0.0
  0
VERTEX
  8
0
 10
122.01644295302013
 20
83.33691275167786
 30
0.0
  0
VERTEX
  8
0
 10
121.2123322147651
 20
83.33691275167786
 30
0.0
  0
VERTEX
  8
0
 10
121.2123322147651
 20
82.0
 30
0.0
  0
VERTEX
  8
0
 10
120.45352348993288
 20
82.0
 30
0.0
  0
VERTEX
  8
0
 10
120.45352348993288
 20
83.33691275167786
 30
0.0
  0
VERTEX
  8
0
 10
117.90906040268456
 20
83.33691275167786
 30
0.0
  0
VERTEX
  8
0
 10
117.90906040268456
 20
84.07181208053692
 30
0.0
  0
VERTEX
  8
0
 10
120.25343959731543
 20
87.63758389261744
 30
0.0
  0
VERTEX
  8
0
 10
121.2123322147651
 20
87.63758389261744
 30
0.0
  0
SEQEND
  8
0
  0
POLYLINE
  8
0
 62
0
 70
1
 66
1
 10
0.0
 20
0.0
 30
0.0
  0
VERTEX
  8
0
 10
120.45352348993288
 20
83.96510067114095
 30
0.0
  0
VERTEX
  8
0
 10
120.45352348993288
 20
86.97340604026846
 30
0.0
  0
VERTEX
  8
0
 10
118.52818791946308
 20
83.96510067114095
 30
0.0
  0
SEQEND
  8
0
  0
POLYLINE
  8
0
 62
0
 70
1
 66
1
 10
0.0
 20
0.0
 30
0.0
  0
VERTEX
  8
0
 10
125.80041946308725
 20
84.31946308724832
 30
0.0
  0
VERTEX
  8
0
 10
125.80041946308725
 20
84.94765100671141
 30
0.0
  0
VERTEX
  8
0
 10
127.80125838926175
 20
84.94765100671141
 30
0.0
  0
VERTEX
  8
0
 10
127.80125838926175
 20
82.52298657718121
 30
0.0
  0
VERTEX
  8
0
 10
126.82726510067114
 20
82.04807046979866
 30
0.0
  0
VERTEX
  8
0
 10
125.69093959731543
 20
81.88724832214766
 30
0.0
  0
VERTEX
  8
0
 10
123.62390939597316
 20
82.65914429530201
 30
0.0
  0
VERTEX
  8
0
 10
122.87843959731543
 20
84.80897651006711
 30
0.0
  0
VERTEX
  8
0
 10
123.62390939597316
 20
86.9623322147651
 30
0.0
  0
VERTEX
  8
0
 10
125.69093959731543
 20
87.73422818791946
 30
0.0
  0
VERTEX
  8
0
 10
126.73842281879195
 20
87.5993288590604
 30
0.0
  0
VERTEX
  8
0
 10
127.65402684563759
 20
87.2026845637584
 30
0.0
  0
VERTEX
  8
0
 10
127.65402684563759
 20
86.39731543624161
 30
0.0
  0
VERTEX
  8
0
 10
126.75553691275168
 20
86.92785234899328
 30
0.0
  0
VERTEX
  8
0
 10
125.75511744966443
 20
87.10604026845638
 30
0.0
  0
VERTEX
  8
0
 10
124.2015100671141
 20
86.52894295302013
 30
0.0
  0
VERTEX
  8
0
 10
123.68255033557047
 20
84.80897651006711
 30
0.0
  0
VERTEX
  8
0
 10
124.2015100671141
 20
83.09253355704698
 30
0.0
  0
VERTEX
  8
0
 10
125.75511744966443
 20
82.51543624161074
 30
0.0
  0
VERTEX
  8
0
 10
126.47617449664429
 20
82.58540268456376
 30
0.0
  0
VERTEX
  8
0
 10
127.04622483221476
 20
82.80285234899328
 30
0.0
  0
VERTEX
  8
0
 10
127.04622483221476
 20
84.31946308724832
 30
0.0
  0
SEQEND
  8
0
  0
POLYLINE
  8
0
 62
0
 70
1
 66
1
 10
0.0
 20
0.0
 30
0.0
  0
VERTEX
  8
0
 10
132.84186241610738
 20
84.80897651006711
 30
0.0
  0
VERTEX
  8
0
 10
132.3415268456376
 20
82.6364932885906
 30
0.0
  0
VERTEX
  8
0
 10
130.89387583892616
 20
81.88724832214766
 30
0.0
  0
VERTEX
  8
0
 10
129.4459731543624
 20
82.6364932885906
 30
0.0
  0
VERTEX
  8
0
 10
128.94588926174498
 20
84.80897651006711
 30
0.0
  0
VERTEX
  8
0
 10
129.4459731543624
 20
86.98498322147651
 30
0.0
  0
VERTEX
  8
0
 10
130.89387583892616
 20
87.73422818791946
 30
0.0
  0
VERTEX
  8
0
 10
132.3415268456376
 20
86.98498322147651
 30
0.0
  0
SEQEND
  8
0
  0
POLYLINE
  8
0
 62
0
 70
1
 66
1
 10
0.0
 20
0.0
 30
0.0
  0
VERTEX
  8
0
 10
129.71224832214764
 20
84.80897651006711
 30
0.0
  0
VERTEX
  8
0
 10
130.0084731543624
 20
83.076677852349
 30
0.0
  0
VERTEX
  8
0
 10
130.89387583892616
 20
82.4993288590604
 30
0.0
  0
VERTEX
  8
0
 10
131.7828020134228
 20
83.076677852349
 30
0.0
  0
VERTEX
  8
0
 10
132.07927852348993
 20
84.80897651006711
 30
0.0
  0
VERTEX
  8
0
 10
131.7828020134228
 20
86.54479865771812
 30
0.0
  0
VERTEX
  8
0
 10
130.89387583892616
 20
87.12214765100671
 30
0.0
  0
VERTEX
  8
0
 10
130.0084731543624
 20
86.54479865771812
 30
0.0
  0
SEQEND
  8
0
  0
POLYLINE
  8
0
 62
0
 70
1
 66
1
 10
0.0
 20
0.0
 30
0.0
  0
VERTEX
  8
0
 10
136.83523489932887
 20
87.01946308724833
 30
0.0
  0
VERTEX
  8
0
 10
136.25587248322148
 20
87.08993288590604
 30
0.0
  0
VERTEX
  8
0
 10
135.10243288590604
 20
86.57877516778524
 30
0.0
  0
VERTEX
  8
0
 10
134.6476510067114
 20
85.03372483221476
 30
0.0
  0
VERTEX
  8
0
 10
135.20637583892616
 20
85.54337248322148
 30
0.0
  0
VERTEX
  8
0
 10
135.94630872483222
 20
85.72080536912752
 30
0.0
  0
VERTEX
  8
0
 10
137.28825503355705
 20
85.20562080536912
 30
0.0
  0
VERTEX
  8
0
 10
137.78104026845637
 20
83.80402684563758
 30
0.0
  0
VERTEX
  8
0
 10
137.26761744966444
 20
82.41174496644295
 30
0.0
  0
VERTEX
  8
0
 10
135.9010067114094
 20
81.88724832214766
 30
0.0
  0
VERTEX
  8
0
 10
134.40604026845637
 20
82.6364932885906
 30
0.0
  0
VERTEX
  8
0
 10
133.8888422818792
 20
84.80897651006711
 30
0.0
  0
VERTEX
  8
0
 10
134.52307046979865
 20
86.93968120805368
 30
0.0
  0
VERTEX
  8
0
 10
136.2256711409396
 20
87.73422818791946
 30
0.0
  0
VERTEX
  8
0
 10
136.80503355704698
 20
87.67785234899328
 30
0.0
  0
VERTEX
  8
0
 10
137.4148489932886
 20
87.50872483221477
 30
0.0
  0
VERTEX
  8
0
 10
137.4148489932886
 20
86.81610738255034
 30
0.0
  0
SEQEND
  8
0
  0
POLYLINE
  8
0
 62
0
 70
1
 66
1
 10
0.0
 20
0.0
 30
0.0
  0
VERTEX
  8
0
 10
134.7873322147651
 20
83.80402684563758
 30
0.0
  0
VERTEX
  8
0
 10
135.0873322147651
 20
82.84991610738255
 30
0.0
  0
VERTEX
  8
0
 10
135.9010067114094
 20
82.4993288590604
 30
0.0
  0
VERTEX
  8
0
 10
136.71442953020133
 20
82.84991610738255
 30
0.0
  0
VERTEX
  8
0
 10
137.01468120805367
 20
83.80402684563758
 30
0.0
  0
VERTEX
  8
0
 10
136.71442953020133
 20
84.75989932885906
 30
0.0
  0
VERTEX
  8
0
 10
135.9010067114094
 20
85.10872483221476
 30
0.0
  0
VERTEX
  8
0
 10
135.0873322147651
 20
84.75989932885906
 30
0.0
  0
SEQEND
  8
0
  0
ENDBLK
  0
ENDSEC
  0
SECTION
  2
ENTITIES
  0
POLYLINE
  8
0
 62
0
 70
1
 66
1
 10
0.0
 20
0.0
 30
0.0
  0
VERTEX
  8
0
 10
0.0
 20
0.0
 30
0.0
  0
VERTEX
  8
0
 10
145.0
 20
0.0
 30
0.0
  0
VERTEX
  8
0
 10
145.0
 20
95.0
 30
0.0
  0
VERTEX
  8
0
 10
0.0
 20
95.0
 30
0.0
  0
SEQEND
  8
0
  0
INSERT
  2
SHAPESTRING
  8
0
 62
0
 10
0.0
 20
0.0
 30
0.0
  0
INSERT
  2
SHAPESTRING001
  8
0
 62
0
 10
0.0
 20
0.0
 30
0.0
  0
ENDSEC
  0
EOF
