solid cylinder
  facet normal 0 0 0
    outer loop
      vertex 0.55000000 0.50000000 -0.00500000
      vertex 0.54957224 0.50652631 -0.00500000
      vertex 0.54957224 0.50652631 0.00500000
    endloop
  endfacet
  facet normal 0 0 0
    outer loop
      vertex 0.55000000 0.50000000 -0.00500000
      vertex 0.54957224 0.50652631 0.00500000
      vertex 0.55000000 0.50000000 0.00500000
    endloop
  endfacet
  facet normal 0 0 0
    outer loop
      vertex 0.50000000 0.50000000 -0.00500000
      vertex 0.54957224 0.50652631 -0.00500000
      vertex 0.55000000 0.50000000 -0.00500000
    endloop
  endfacet
  facet normal 0 0 0
    outer loop
      vertex 0.50000000 0.50000000 0.00500000
      vertex 0.55000000 0.50000000 0.00500000
      vertex 0.54957224 0.50652631 0.00500000
    endloop
  endfacet
  facet normal 0 0 0
    outer loop
      vertex 0.54957224 0.50652631 -0.00500000
      vertex 0.54829629 0.51294095 -0.00500000
      vertex 0.54829629 0.51294095 0.00500000
    endloop
  endfacet
  facet normal 0 0 0
    outer loop
      vertex 0.54957224 0.50652631 -0.00500000
      vertex 0.54829629 0.51294095 0.00500000
      vertex 0.54957224 0.50652631 0.00500000
    endloop
  endfacet
  facet normal 0 0 0
    outer loop
      vertex 0.50000000 0.50000000 -0.00500000
      vertex 0.54829629 0.51294095 -0.00500000
      vertex 0.54957224 0.50652631 -0.00500000
    endloop
  endfacet
  facet normal 0 0 0
    outer loop
      vertex 0.50000000 0.50000000 0.00500000
      vertex 0.54957224 0.50652631 0.00500000
      vertex 0.54829629 0.51294095 0.00500000
    endloop
  endfacet
  facet normal 0 0 0
    outer loop
      vertex 0.54829629 0.51294095 -0.00500000
      vertex 0.54619398 0.51913417 -0.00500000
      vertex 0.54619398 0.51913417 0.00500000
    endloop
  endfacet
  facet normal 0 0 0
    outer loop
      vertex 0.54829629 0.51294095 -0.00500000
      vertex 0.54619398 0.51913417 0.00500000
      vertex 0.54829629 0.51294095 0.00500000
    endloop
  endfacet
  facet normal 0 0 0
    outer loop
      vertex 0.50000000 0.50000000 -0.00500000
      vertex 0.54619398 0.51913417 -0.00500000
      vertex 0.54829629 0.51294095 -0.00500000
    endloop
  endfacet
  facet normal 0 0 0
    outer loop
      vertex 0.50000000 0.50000000 0.00500000
      vertex 0.54829629 0.51294095 0.00500000
      vertex 0.54619398 0.51913417 0.00500000
    endloop
  endfacet
  facet normal 0 0 0
    outer loop
      vertex 0.54619398 0.51913417 -0.00500000
      vertex 0.54330127 0.52500000 -0.00500000
      vertex 0.54330127 0.52500000 0.00500000
    endloop
  endfacet
  facet normal 0 0 0
    outer loop
      vertex 0.54619398 0.51913417 -0.00500000
      vertex 0.54330127 0.52500000 0.00500000
      vertex 0.54619398 0.51913417 0.00500000
    endloop
  endfacet
  facet normal 0 0 0
    outer loop
      vertex 0.50000000 0.50000000 -0.00500000
      vertex 0.54330127 0.52500000 -0.00500000
      vertex 0.54619398 0.51913417 -0.00500000
    endloop
  endfacet
  facet normal 0 0 0
    outer loop
      vertex 0.50000000 0.50000000 0.00500000
      vertex 0.54619398 0.51913417 0.00500000
      vertex 0.54330127 0.52500000 0.00500000
    endloop
  endfacet
  facet normal 0 0 0
    outer loop
      vertex 0.54330127 0.52500000 -0.00500000
      vertex 0.53966767 0.53043807 -0.00500000
      vertex 0.53966767 0.53043807 0.00500000
    endloop
  endfacet
  facet normal 0 0 0
    outer loop
      vertex 0.54330127 0.52500000 -0.00500000
      vertex 0.53966767 0.53043807 0.00500000
      vertex 0.54330127 0.52500000 0.00500000
    endloop
  endfacet
  facet normal 0 0 0
    outer loop
      vertex 0.50000000 0.50000000 -0.00500000
      vertex 0.53966767 0.53043807 -0.00500000
      vertex 0.54330127 0.52500000 -0.00500000
    endloop
  endfacet
  facet normal 0 0 0
    outer loop
      vertex 0.50000000 0.50000000 0.00500000
      vertex 0.54330127 0.52500000 0.00500000
      vertex 0.53966767 0.53043807 0.00500000
    endloop
  endfacet
  facet normal 0 0 0
    outer loop
      vertex 0.53966767 0.53043807 -0.00500000
      vertex 0.53535534 0.53535534 -0.00500000
      vertex 0.53535534 0.53535534 0.00500000
    endloop
  endfacet
  facet normal 0 0 0
    outer loop
      vertex 0.53966767 0.53043807 -0.00500000
      vertex 0.53535534 0.53535534 0.00500000
      vertex 0.53966767 0.53043807 0.00500000
    endloop
  endfacet
  facet normal 0 0 0
    outer loop
      vertex 0.50000000 0.50000000 -0.00500000
      vertex 0.53535534 0.53535534 -0.00500000
      vertex 0.53966767 0.53043807 -0.00500000
    endloop
  endfacet
  facet normal 0 0 0
    outer loop
      vertex 0.50000000 0.50000000 0.00500000
      vertex 0.53966767 0.53043807 0.00500000
      vertex 0.53535534 0.53535534 0.00500000
    endloop
  endfacet
  facet normal 0 0 0
    outer loop
      vertex 0.53535534 0.53535534 -0.00500000
      vertex 0.53043807 0.53966767 -0.00500000
      vertex 0.53043807 0.53966767 0.00500000
    endloop
  endfacet
  facet normal 0 0 0
    outer loop
      vertex 0.53535534 0.53535534 -0.00500000
      vertex 0.53043807 0.53966767 0.00500000
      vertex 0.53535534 0.53535534 0.00500000
    endloop
  endfacet
  facet normal 0 0 0
    outer loop
      vertex 0.50000000 0.50000000 -0.00500000
      vertex 0.53043807 0.53966767 -0.00500000
      vertex 0.53535534 0.53535534 -0.00500000
    endloop
  endfacet
  facet normal 0 0 0
    outer loop
      vertex 0.50000000 0.50000000 0.00500000
      vertex 0.53535534 0.53535534 0.00500000
      vertex 0.53043807 0.53966767 0.00500000
    endloop
  endfacet
  facet normal 0 0 0
    outer loop
      vertex 0.53043807 0.53966767 -0.00500000
      vertex 0.52500000 0.54330127 -0.00500000
      vertex 0.52500000 0.54330127 0.00500000
    endloop
  endfacet
  facet normal 0 0 0
    outer loop
      vertex 0.53043807 0.53966767 -0.00500000
      vertex 0.52500000 0.54330127 0.00500000
      vertex 0.53043807 0.53966767 0.00500000
    endloop
  endfacet
  facet normal 0 0 0
    outer loop
      vertex 0.50000000 0.50000000 -0.00500000
      vertex 0.52500000 0.54330127 -0.00500000
      vertex 0.53043807 0.53966767 -0.00500000
    endloop
  endfacet
  facet normal 0 0 0
    outer loop
      vertex 0.50000000 0.50000000 0.00500000
      vertex 0.53043807 0.53966767 0.00500000
      vertex 0.52500000 0.54330127 0.00500000
    endloop
  endfacet
  facet normal 0 0 0
    outer loop
      vertex 0.52500000 0.54330127 -0.00500000
      vertex 0.51913417 0.54619398 -0.00500000
      vertex 0.51913417 0.54619398 0.00500000
    endloop
  endfacet
  facet normal 0 0 0
    outer loop
      vertex 0.52500000 0.54330127 -0.00500000
      vertex 0.51913417 0.54619398 0.00500000
      vertex 0.52500000 0.54330127 0.00500000
    endloop
  endfacet
  facet normal 0 0 0
    outer loop
      vertex 0.50000000 0.50000000 -0.00500000
      vertex 0.51913417 0.54619398 -0.00500000
      vertex 0.52500000 0.54330127 -0.00500000
    endloop
  endfacet
  facet normal 0 0 0
    outer loop
      vertex 0.50000000 0.50000000 0.00500000
      vertex 0.52500000 0.54330127 0.00500000
      vertex 0.51913417 0.54619398 0.00500000
    endloop
  endfacet
  facet normal 0 0 0
    outer loop
      vertex 0.51913417 0.54619398 -0.00500000
      vertex 0.51294095 0.54829629 -0.00500000
      vertex 0.51294095 0.54829629 0.00500000
    endloop
  endfacet
  facet normal 0 0 0
    outer loop
      vertex 0.51913417 0.54619398 -0.00500000
      vertex 0.51294095 0.54829629 0.00500000
      vertex 0.51913417 0.54619398 0.00500000
    endloop
  endfacet
  facet normal 0 0 0
    outer loop
      vertex 0.50000000 0.50000000 -0.00500000
      vertex 0.51294095 0.54829629 -0.00500000
      vertex 0.51913417 0.54619398 -0.00500000
    endloop
  endfacet
  facet normal 0 0 0
    outer loop
      vertex 0.50000000 0.50000000 0.00500000
      vertex 0.51913417 0.54619398 0.00500000
      vertex 0.51294095 0.54829629 0.00500000
    endloop
  endfacet
  facet normal 0 0 0
    outer loop
      vertex 0.51294095 0.54829629 -0.00500000
      vertex 0.50652631 0.54957224 -0.00500000
      vertex 0.50652631 0.54957224 0.00500000
    endloop
  endfacet
  facet normal 0 0 0
    outer loop
      vertex 0.51294095 0.54829629 -0.00500000
      vertex 0.50652631 0.54957224 0.00500000
      vertex 0.51294095 0.54829629 0.00500000
    endloop
  endfacet
  facet normal 0 0 0
    outer loop
      vertex 0.50000000 0.50000000 -0.00500000
      vertex 0.50652631 0.54957224 -0.00500000
      vertex 0.51294095 0.54829629 -0.00500000
    endloop
  endfacet
  facet normal 0 0 0
    outer loop
      vertex 0.50000000 0.50000000 0.00500000
      vertex 0.51294095 0.54829629 0.00500000
      vertex 0.50652631 0.54957224 0.00500000
    endloop
  endfacet
  facet normal 0 0 0
    outer loop
      vertex 0.50652631 0.54957224 -0.00500000
      vertex 0.50000000 0.55000000 -0.00500000
      vertex 0.50000000 0.55000000 0.00500000
    endloop
  endfacet
  facet normal 0 0 0
    outer loop
      vertex 0.50652631 0.54957224 -0.00500000
      vertex 0.50000000 0.55000000 0.00500000
      vertex 0.50652631 0.54957224 0.00500000
    endloop
  endfacet
  facet normal 0 0 0
    outer loop
      vertex 0.50000000 0.50000000 -0.00500000
      vertex 0.50000000 0.55000000 -0.00500000
      vertex 0.50652631 0.54957224 -0.00500000
    endloop
  endfacet
  facet normal 0 0 0
    outer loop
      vertex 0.50000000 0.50000000 0.00500000
      vertex 0.50652631 0.54957224 0.00500000
      vertex 0.50000000 0.55000000 0.00500000
    endloop
  endfacet
  facet normal 0 0 0
    outer loop
      vertex 0.50000000 0.55000000 -0.00500000
      vertex 0.49347369 0.54957224 -0.00500000
      vertex 0.49347369 0.54957224 0.00500000
    endloop
  endfacet
  facet normal 0 0 0
    outer loop
      vertex 0.50000000 0.55000000 -0.00500000
      vertex 0.49347369 0.54957224 0.00500000
      vertex 0.50000000 0.55000000 0.00500000
    endloop
  endfacet
  facet normal 0 0 0
    outer loop
      vertex 0.50000000 0.50000000 -0.00500000
      vertex 0.49347369 0.54957224 -0.00500000
      vertex 0.50000000 0.55000000 -0.00500000
    endloop
  endfacet
  facet normal 0 0 0
    outer loop
      vertex 0.50000000 0.50000000 0.00500000
      vertex 0.50000000 0.55000000 0.00500000
      vertex 0.49347369 0.54957224 0.00500000
    endloop
  endfacet
  facet normal 0 0 0
    outer loop
      vertex 0.49347369 0.54957224 -0.00500000
      vertex 0.48705905 0.54829629 -0.00500000
      vertex 0.48705905 0.54829629 0.00500000
    endloop
  endfacet
  facet normal 0 0 0
    outer loop
      vertex 0.49347369 0.54957224 -0.00500000
      vertex 0.48705905 0.54829629 0.00500000
      vertex 0.49347369 0.54957224 0.00500000
    endloop
  endfacet
  facet normal 0 0 0
    outer loop
      vertex 0.50000000 0.50000000 -0.00500000
      vertex 0.48705905 0.54829629 -0.00500000
      vertex 0.49347369 0.54957224 -0.00500000
    endloop
  endfacet
  facet normal 0 0 0
    outer loop
      vertex 0.50000000 0.50000000 0.00500000
      vertex 0.49347369 0.54957224 0.00500000
      vertex 0.48705905 0.54829629 0.00500000
    endloop
  endfacet
  facet normal 0 0 0
    outer loop
      vertex 0.48705905 0.54829629 -0.00500000
      vertex 0.48086583 0.54619398 -0.00500000
      vertex 0.48086583 0.54619398 0.00500000
    endloop
  endfacet
  facet normal 0 0 0
    outer loop
      vertex 0.48705905 0.54829629 -0.00500000
      vertex 0.48086583 0.54619398 0.00500000
      vertex 0.48705905 0.54829629 0.00500000
    endloop
  endfacet
  facet normal 0 0 0
    outer loop
      vertex 0.50000000 0.50000000 -0.00500000
      vertex 0.48086583 0.54619398 -0.00500000
      vertex 0.48705905 0.54829629 -0.00500000
    endloop
  endfacet
  facet normal 0 0 0
    outer loop
      vertex 0.50000000 0.50000000 0.00500000
      vertex 0.48705905 0.54829629 0.00500000
      vertex 0.48086583 0.54619398 0.00500000
    endloop
  endfacet
  facet normal 0 0 0
    outer loop
      vertex 0.48086583 0.54619398 -0.00500000
      vertex 0.47500000 0.54330127 -0.00500000
      vertex 0.47500000 0.54330127 0.00500000
    endloop
  endfacet
  facet normal 0 0 0
    outer loop
      vertex 0.48086583 0.54619398 -0.00500000
      vertex 0.47500000 0.54330127 0.00500000
      vertex 0.48086583 0.54619398 0.00500000
    endloop
  endfacet
  facet normal 0 0 0
    outer loop
      vertex 0.50000000 0.50000000 -0.00500000
      vertex 0.47500000 0.54330127 -0.00500000
      vertex 0.48086583 0.54619398 -0.00500000
    endloop
  endfacet
  facet normal 0 0 0
    outer loop
      vertex 0.50000000 0.50000000 0.00500000
      vertex 0.48086583 0.54619398 0.00500000
      vertex 0.47500000 0.54330127 0.00500000
    endloop
  endfacet
  facet normal 0 0 0
    outer loop
      vertex 0.47500000 0.54330127 -0.00500000
      vertex 0.46956193 0.53966767 -0.00500000
      vertex 0.46956193 0.53966767 0.00500000
    endloop
  endfacet
  facet normal 0 0 0
    outer loop
      vertex 0.47500000 0.54330127 -0.00500000
      vertex 0.46956193 0.53966767 0.00500000
      vertex 0.47500000 0.54330127 0.00500000
    endloop
  endfacet
  facet normal 0 0 0
    outer loop
      vertex 0.50000000 0.50000000 -0.00500000
      vertex 0.46956193 0.53966767 -0.00500000
      vertex 0.47500000 0.54330127 -0.00500000
    endloop
  endfacet
  facet normal 0 0 0
    outer loop
      vertex 0.50000000 0.50000000 0.00500000
      vertex 0.47500000 0.54330127 0.00500000
      vertex 0.46956193 0.53966767 0.00500000
    endloop
  endfacet
  facet normal 0 0 0
    outer loop
      vertex 0.46956193 0.53966767 -0.00500000
      vertex 0.46464466 0.53535534 -0.00500000
      vertex 0.46464466 0.53535534 0.00500000
    endloop
  endfacet
  facet normal 0 0 0
    outer loop
      vertex 0.46956193 0.53966767 -0.00500000
      vertex 0.46464466 0.53535534 0.00500000
      vertex 0.46956193 0.53966767 0.00500000
    endloop
  endfacet
  facet normal 0 0 0
    outer loop
      vertex 0.50000000 0.50000000 -0.00500000
      vertex 0.46464466 0.53535534 -0.00500000
      vertex 0.46956193 0.53966767 -0.00500000
    endloop
  endfacet
  facet normal 0 0 0
    outer loop
      vertex 0.50000000 0.50000000 0.00500000
      vertex 0.46956193 0.53966767 0.00500000
      vertex 0.46464466 0.53535534 0.00500000
    endloop
  endfacet
  facet normal 0 0 0
    outer loop
      vertex 0.46464466 0.53535534 -0.00500000
      vertex 0.46033233 0.53043807 -0.00500000
      vertex 0.46033233 0.53043807 0.00500000
    endloop
  endfacet
  facet normal 0 0 0
    outer loop
      vertex 0.46464466 0.53535534 -0.00500000
      vertex 0.46033233 0.53043807 0.00500000
      vertex 0.46464466 0.53535534 0.00500000
    endloop
  endfacet
  facet normal 0 0 0
    outer loop
      vertex 0.50000000 0.50000000 -0.00500000
      vertex 0.46033233 0.53043807 -0.00500000
      vertex 0.46464466 0.53535534 -0.00500000
    endloop
  endfacet
  facet normal 0 0 0
    outer loop
      vertex 0.50000000 0.50000000 0.00500000
      vertex 0.46464466 0.53535534 0.00500000
      vertex 0.46033233 0.53043807 0.00500000
    endloop
  endfacet
  facet normal 0 0 0
    outer loop
      vertex 0.46033233 0.53043807 -0.00500000
      vertex 0.45669873 0.52500000 -0.00500000
      vertex 0.45669873 0.52500000 0.00500000
    endloop
  endfacet
  facet normal 0 0 0
    outer loop
      vertex 0.46033233 0.53043807 -0.00500000
      vertex 0.45669873 0.52500000 0.00500000
      vertex 0.46033233 0.53043807 0.00500000
    endloop
  endfacet
  facet normal 0 0 0
    outer loop
      vertex 0.50000000 0.50000000 -0.00500000
      vertex 0.45669873 0.52500000 -0.00500000
      vertex 0.46033233 0.53043807 -0.00500000
    endloop
  endfacet
  facet normal 0 0 0
    outer loop
      vertex 0.50000000 0.50000000 0.00500000
      vertex 0.46033233 0.53043807 0.00500000
      vertex 0.45669873 0.52500000 0.00500000
    endloop
  endfacet
  facet normal 0 0 0
    outer loop
      vertex 0.45669873 0.52500000 -0.00500000
      vertex 0.45380602 0.51913417 -0.00500000
      vertex 0.45380602 0.51913417 0.00500000
    endloop
  endfacet
  facet normal 0 0 0
    outer loop
      vertex 0.45669873 0.52500000 -0.00500000
      vertex 0.45380602 0.51913417 0.00500000
      vertex 0.45669873 0.52500000 0.00500000
    endloop
  endfacet
  facet normal 0 0 0
    outer loop
      vertex 0.50000000 0.50000000 -0.00500000
      vertex 0.45380602 0.51913417 -0.00500000
      vertex 0.45669873 0.52500000 -0.00500000
    endloop
  endfacet
  facet normal 0 0 0
    outer loop
      vertex 0.50000000 0.50000000 0.00500000
      vertex 0.45669873 0.52500000 0.00500000
      vertex 0.45380602 0.51913417 0.00500000
    endloop
  endfacet
  facet normal 0 0 0
    outer loop
      vertex 0.45380602 0.51913417 -0.00500000
      vertex 0.45170371 0.51294095 -0.00500000
      vertex 0.45170371 0.51294095 0.00500000
    endloop
  endfacet
  facet normal 0 0 0
    outer loop
      vertex 0.45380602 0.51913417 -0.00500000
      vertex 0.45170371 0.51294095 0.00500000
      vertex 0.45380602 0.51913417 0.00500000
    endloop
  endfacet
  facet normal 0 0 0
    outer loop
      vertex 0.50000000 0.50000000 -0.00500000
      vertex 0.45170371 0.51294095 -0.00500000
      vertex 0.45380602 0.51913417 -0.00500000
    endloop
  endfacet
  facet normal 0 0 0
    outer loop
      vertex 0.50000000 0.50000000 0.00500000
      vertex 0.45380602 0.51913417 0.00500000
      vertex 0.45170371 0.51294095 0.00500000
    endloop
  endfacet
  facet normal 0 0 0
    outer loop
      vertex 0.45170371 0.51294095 -0.00500000
      vertex 0.45042776 0.50652631 -0.00500000
      vertex 0.45042776 0.50652631 0.00500000
    endloop
  endfacet
  facet normal 0 0 0
    outer loop
      vertex 0.45170371 0.51294095 -0.00500000
      vertex 0.45042776 0.50652631 0.00500000
      vertex 0.45170371 0.51294095 0.00500000
    endloop
  endfacet
  facet normal 0 0 0
    outer loop
      vertex 0.50000000 0.50000000 -0.00500000
      vertex 0.45042776 0.50652631 -0.00500000
      vertex 0.45170371 0.51294095 -0.00500000
    endloop
  endfacet
  facet normal 0 0 0
    outer loop
      vertex 0.50000000 0.50000000 0.00500000
      vertex 0.45170371 0.51294095 0.00500000
      vertex 0.45042776 0.50652631 0.00500000
    endloop
  endfacet
  facet normal 0 0 0
    outer loop
      vertex 0.45042776 0.50652631 -0.00500000
      vertex 0.45000000 0.50000000 -0.00500000
      vertex 0.45000000 0.50000000 0.00500000
    endloop
  endfacet
  facet normal 0 0 0
    outer loop
      vertex 0.45042776 0.50652631 -0.00500000
      vertex 0.45000000 0.50000000 0.00500000
      vertex 0.45042776 0.50652631 0.00500000
    endloop
  endfacet
  facet normal 0 0 0
    outer loop
      vertex 0.50000000 0.50000000 -0.00500000
      vertex 0.45000000 0.50000000 -0.00500000
      vertex 0.45042776 0.50652631 -0.00500000
    endloop
  endfacet
  facet normal 0 0 0
    outer loop
      vertex 0.50000000 0.50000000 0.00500000
      vertex 0.45042776 0.50652631 0.00500000
      vertex 0.45000000 0.50000000 0.00500000
    endloop
  endfacet
  facet normal 0 0 0
    outer loop
      vertex 0.45000000 0.50000000 -0.00500000
      vertex 0.45042776 0.49347369 -0.00500000
      vertex 0.45042776 0.49347369 0.00500000
    endloop
  endfacet
  facet normal 0 0 0
    outer loop
      vertex 0.45000000 0.50000000 -0.00500000
      vertex 0.45042776 0.49347369 0.00500000
      vertex 0.45000000 0.50000000 0.00500000
    endloop
  endfacet
  facet normal 0 0 0
    outer loop
      vertex 0.50000000 0.50000000 -0.00500000
      vertex 0.45042776 0.49347369 -0.00500000
      vertex 0.45000000 0.50000000 -0.00500000
    endloop
  endfacet
  facet normal 0 0 0
    outer loop
      vertex 0.50000000 0.50000000 0.00500000
      vertex 0.45000000 0.50000000 0.00500000
      vertex 0.45042776 0.49347369 0.00500000
    endloop
  endfacet
  facet normal 0 0 0
    outer loop
      vertex 0.45042776 0.49347369 -0.00500000
      vertex 0.45170371 0.48705905 -0.00500000
      vertex 0.45170371 0.48705905 0.00500000
    endloop
  endfacet
  facet normal 0 0 0
    outer loop
      vertex 0.45042776 0.49347369 -0.00500000
      vertex 0.45170371 0.48705905 0.00500000
      vertex 0.45042776 0.49347369 0.00500000
    endloop
  endfacet
  facet normal 0 0 0
    outer loop
      vertex 0.50000000 0.50000000 -0.00500000
      vertex 0.45170371 0.48705905 -0.00500000
      vertex 0.45042776 0.49347369 -0.00500000
    endloop
  endfacet
  facet normal 0 0 0
    outer loop
      vertex 0.50000000 0.50000000 0.00500000
      vertex 0.45042776 0.49347369 0.00500000
      vertex 0.45170371 0.48705905 0.00500000
    endloop
  endfacet
  facet normal 0 0 0
    outer loop
      vertex 0.45170371 0.48705905 -0.00500000
      vertex 0.45380602 0.48086583 -0.00500000
      vertex 0.45380602 0.48086583 0.00500000
    endloop
  endfacet
  facet normal 0 0 0
    outer loop
      vertex 0.45170371 0.48705905 -0.00500000
      vertex 0.45380602 0.48086583 0.00500000
      vertex 0.45170371 0.48705905 0.00500000
    endloop
  endfacet
  facet normal 0 0 0
    outer loop
      vertex 0.50000000 0.50000000 -0.00500000
      vertex 0.45380602 0.48086583 -0.00500000
      vertex 0.45170371 0.48705905 -0.00500000
    endloop
  endfacet
  facet normal 0 0 0
    outer loop
      vertex 0.50000000 0.50000000 0.00500000
      vertex 0.45170371 0.48705905 0.00500000
      vertex 0.45380602 0.48086583 0.00500000
    endloop
  endfacet
  facet normal 0 0 0
    outer loop
      vertex 0.45380602 0.48086583 -0.00500000
      vertex 0.45669873 0.47500000 -0.00500000
      vertex 0.45669873 0.47500000 0.00500000
    endloop
  endfacet
  facet normal 0 0 0
    outer loop
      vertex 0.45380602 0.48086583 -0.00500000
      vertex 0.45669873 0.47500000 0.00500000
      vertex 0.45380602 0.48086583 0.00500000
    endloop
  endfacet
  facet normal 0 0 0
    outer loop
      vertex 0.50000000 0.50000000 -0.00500000
      vertex 0.45669873 0.47500000 -0.00500000
      vertex 0.45380602 0.48086583 -0.00500000
    endloop
  endfacet
  facet normal 0 0 0
    outer loop
      vertex 0.50000000 0.50000000 0.00500000
      vertex 0.45380602 0.48086583 0.00500000
      vertex 0.45669873 0.47500000 0.00500000
    endloop
  endfacet
  facet normal 0 0 0
    outer loop
      vertex 0.45669873 0.47500000 -0.00500000
      vertex 0.46033233 0.46956193 -0.00500000
      vertex 0.46033233 0.46956193 0.00500000
    endloop
  endfacet
  facet normal 0 0 0
    outer loop
      vertex 0.45669873 0.47500000 -0.00500000
      vertex 0.46033233 0.46956193 0.00500000
      vertex 0.45669873 0.47500000 0.00500000
    endloop
  endfacet
  facet normal 0 0 0
    outer loop
      vertex 0.50000000 0.50000000 -0.00500000
      vertex 0.46033233 0.46956193 -0.00500000
      vertex 0.45669873 0.47500000 -0.00500000
    endloop
  endfacet
  facet normal 0 0 0
    outer loop
      vertex 0.50000000 0.50000000 0.00500000
      vertex 0.45669873 0.47500000 0.00500000
      vertex 0.46033233 0.46956193 0.00500000
    endloop
  endfacet
  facet normal 0 0 0
    outer loop
      vertex 0.46033233 0.46956193 -0.00500000
      vertex 0.46464466 0.46464466 -0.00500000
      vertex 0.46464466 0.46464466 0.00500000
    endloop
  endfacet
  facet normal 0 0 0
    outer loop
      vertex 0.46033233 0.46956193 -0.00500000
      vertex 0.46464466 0.46464466 0.00500000
      vertex 0.46033233 0.46956193 0.00500000
    endloop
  endfacet
  facet normal 0 0 0
    outer loop
      vertex 0.50000000 0.50000000 -0.00500000
      vertex 0.46464466 0.46464466 -0.00500000
      vertex 0.46033233 0.46956193 -0.00500000
    endloop
  endfacet
  facet normal 0 0 0
    outer loop
      vertex 0.50000000 0.50000000 0.00500000
      vertex 0.46033233 0.46956193 0.00500000
      vertex 0.46464466 0.46464466 0.00500000
    endloop
  endfacet
  facet normal 0 0 0
    outer loop
      vertex 0.46464466 0.46464466 -0.00500000
      vertex 0.46956193 0.46033233 -0.00500000
      vertex 0.46956193 0.46033233 0.00500000
    endloop
  endfacet
  facet normal 0 0 0
    outer loop
      vertex 0.46464466 0.46464466 -0.00500000
      vertex 0.46956193 0.46033233 0.00500000
      vertex 0.46464466 0.46464466 0.00500000
    endloop
  endfacet
  facet normal 0 0 0
    outer loop
      vertex 0.50000000 0.50000000 -0.00500000
      vertex 0.46956193 0.46033233 -0.00500000
      vertex 0.46464466 0.46464466 -0.00500000
    endloop
  endfacet
  facet normal 0 0 0
    outer loop
      vertex 0.50000000 0.50000000 0.00500000
      vertex 0.46464466 0.46464466 0.00500000
      vertex 0.46956193 0.46033233 0.00500000
    endloop
  endfacet
  facet normal 0 0 0
    outer loop
      vertex 0.46956193 0.46033233 -0.00500000
      vertex 0.47500000 0.45669873 -0.00500000
      vertex 0.47500000 0.45669873 0.00500000
    endloop
  endfacet
  facet normal 0 0 0
    outer loop
      vertex 0.46956193 0.46033233 -0.00500000
      vertex 0.47500000 0.45669873 0.00500000
      vertex 0.46956193 0.46033233 0.00500000
    endloop
  endfacet
  facet normal 0 0 0
    outer loop
      vertex 0.50000000 0.50000000 -0.00500000
      vertex 0.47500000 0.45669873 -0.00500000
      vertex 0.46956193 0.46033233 -0.00500000
    endloop
  endfacet
  facet normal 0 0 0
    outer loop
      vertex 0.50000000 0.50000000 0.00500000
      vertex 0.46956193 0.46033233 0.00500000
      vertex 0.47500000 0.45669873 0.00500000
    endloop
  endfacet
  facet normal 0 0 0
    outer loop
      vertex 0.47500000 0.45669873 -0.00500000
      vertex 0.48086583 0.45380602 -0.00500000
      vertex 0.48086583 0.45380602 0.00500000
    endloop
  endfacet
  facet normal 0 0 0
    outer loop
      vertex 0.47500000 0.45669873 -0.00500000
      vertex 0.48086583 0.45380602 0.00500000
      vertex 0.47500000 0.45669873 0.00500000
    endloop
  endfacet
  facet normal 0 0 0
    outer loop
      vertex 0.50000000 0.50000000 -0.00500000
      vertex 0.48086583 0.45380602 -0.00500000
      vertex 0.47500000 0.45669873 -0.00500000
    endloop
  endfacet
  facet normal 0 0 0
    outer loop
      vertex 0.50000000 0.50000000 0.00500000
      vertex 0.47500000 0.45669873 0.00500000
      vertex 0.48086583 0.45380602 0.00500000
    endloop
  endfacet
  facet normal 0 0 0
    outer loop
      vertex 0.48086583 0.45380602 -0.00500000
      vertex 0.48705905 0.45170371 -0.00500000
      vertex 0.48705905 0.45170371 0.00500000
    endloop
  endfacet
  facet normal 0 0 0
    outer loop
      vertex 0.48086583 0.45380602 -0.00500000
      vertex 0.48705905 0.45170371 0.00500000
      vertex 0.48086583 0.45380602 0.00500000
    endloop
  endfacet
  facet normal 0 0 0
    outer loop
      vertex 0.50000000 0.50000000 -0.00500000
      vertex 0.48705905 0.45170371 -0.00500000
      vertex 0.48086583 0.45380602 -0.00500000
    endloop
  endfacet
  facet normal 0 0 0
    outer loop
      vertex 0.50000000 0.50000000 0.00500000
      vertex 0.48086583 0.45380602 0.00500000
      vertex 0.48705905 0.45170371 0.00500000
    endloop
  endfacet
  facet normal 0 0 0
    outer loop
      vertex 0.48705905 0.45170371 -0.00500000
      vertex 0.49347369 0.45042776 -0.00500000
      vertex 0.49347369 0.45042776 0.00500000
    endloop
  endfacet
  facet normal 0 0 0
    outer loop
      vertex 0.48705905 0.45170371 -0.00500000
      vertex 0.49347369 0.45042776 0.00500000
      vertex 0.48705905 0.45170371 0.00500000
    endloop
  endfacet
  facet normal 0 0 0
    outer loop
      vertex 0.50000000 0.50000000 -0.00500000
      vertex 0.49347369 0.45042776 -0.00500000
      vertex 0.48705905 0.45170371 -0.00500000
    endloop
  endfacet
  facet normal 0 0 0
    outer loop
      vertex 0.50000000 0.50000000 0.00500000
      vertex 0.48705905 0.45170371 0.00500000
      vertex 0.49347369 0.45042776 0.00500000
    endloop
  endfacet
  facet normal 0 0 0
    outer loop
      vertex 0.49347369 0.45042776 -0.00500000
      vertex 0.50000000 0.45000000 -0.00500000
      vertex 0.50000000 0.45000000 0.00500000
    endloop
  endfacet
  facet normal 0 0 0
    outer loop
      vertex 0.49347369 0.45042776 -0.00500000
      vertex 0.50000000 0.45000000 0.00500000
      vertex 0.49347369 0.45042776 0.00500000
    endloop
  endfacet
  facet normal 0 0 0
    outer loop
      vertex 0.50000000 0.50000000 -0.00500000
      vertex 0.50000000 0.45000000 -0.00500000
      vertex 0.49347369 0.45042776 -0.00500000
    endloop
  endfacet
  facet normal 0 0 0
    outer loop
      vertex 0.50000000 0.50000000 0.00500000
      vertex 0.49347369 0.45042776 0.00500000
      vertex 0.50000000 0.45000000 0.00500000
    endloop
  endfacet
  facet normal 0 0 0
    outer loop
      vertex 0.50000000 0.45000000 -0.00500000
      vertex 0.50652631 0.45042776 -0.00500000
      vertex 0.50652631 0.45042776 0.00500000
    endloop
  endfacet
  facet normal 0 0 0
    outer loop
      vertex 0.50000000 0.45000000 -0.00500000
      vertex 0.50652631 0.45042776 0.00500000
      vertex 0.50000000 0.45000000 0.00500000
    endloop
  endfacet
  facet normal 0 0 0
    outer loop
      vertex 0.50000000 0.50000000 -0.00500000
      vertex 0.50652631 0.45042776 -0.00500000
      vertex 0.50000000 0.45000000 -0.00500000
    endloop
  endfacet
  facet normal 0 0 0
    outer loop
      vertex 0.50000000 0.50000000 0.00500000
      vertex 0.50000000 0.45000000 0.00500000
      vertex 0.50652631 0.45042776 0.00500000
    endloop
  endfacet
  facet normal 0 0 0
    outer loop
      vertex 0.50652631 0.45042776 -0.00500000
      vertex 0.51294095 0.45170371 -0.00500000
      vertex 0.51294095 0.45170371 0.00500000
    endloop
  endfacet
  facet normal 0 0 0
    outer loop
      vertex 0.50652631 0.45042776 -0.00500000
      vertex 0.51294095 0.45170371 0.00500000
      vertex 0.50652631 0.45042776 0.00500000
    endloop
  endfacet
  facet normal 0 0 0
    outer loop
      vertex 0.50000000 0.50000000 -0.00500000
      vertex 0.51294095 0.45170371 -0.00500000
      vertex 0.50652631 0.45042776 -0.00500000
    endloop
  endfacet
  facet normal 0 0 0
    outer loop
      vertex 0.50000000 0.50000000 0.00500000
      vertex 0.50652631 0.45042776 0.00500000
      vertex 0.51294095 0.45170371 0.00500000
    endloop
  endfacet
  facet normal 0 0 0
    outer loop
      vertex 0.51294095 0.45170371 -0.00500000
      vertex 0.51913417 0.45380602 -0.00500000
      vertex 0.51913417 0.45380602 0.00500000
    endloop
  endfacet
  facet normal 0 0 0
    outer loop
      vertex 0.51294095 0.45170371 -0.00500000
      vertex 0.51913417 0.45380602 0.00500000
      vertex 0.51294095 0.45170371 0.00500000
    endloop
  endfacet
  facet normal 0 0 0
    outer loop
      vertex 0.50000000 0.50000000 -0.00500000
      vertex 0.51913417 0.45380602 -0.00500000
      vertex 0.51294095 0.45170371 -0.00500000
    endloop
  endfacet
  facet normal 0 0 0
    outer loop
      vertex 0.50000000 0.50000000 0.00500000
      vertex 0.51294095 0.45170371 0.00500000
      vertex 0.51913417 0.45380602 0.00500000
    endloop
  endfacet
  facet normal 0 0 0
    outer loop
      vertex 0.51913417 0.45380602 -0.00500000
      vertex 0.52500000 0.45669873 -0.00500000
      vertex 0.52500000 0.45669873 0.00500000
    endloop
  endfacet
  facet normal 0 0 0
    outer loop
      vertex 0.51913417 0.45380602 -0.00500000
      vertex 0.52500000 0.45669873 0.00500000
      vertex 0.51913417 0.45380602 0.00500000
    endloop
  endfacet
  facet normal 0 0 0
    outer loop
      vertex 0.50000000 0.50000000 -0.00500000
      vertex 0.52500000 0.45669873 -0.00500000
      vertex 0.51913417 0.45380602 -0.00500000
    endloop
  endfacet
  facet normal 0 0 0
    outer loop
      vertex 0.50000000 0.50000000 0.00500000
      vertex 0.51913417 0.45380602 0.00500000
      vertex 0.52500000 0.45669873 0.00500000
    endloop
  endfacet
  facet normal 0 0 0
    outer loop
      vertex 0.52500000 0.45669873 -0.00500000
      vertex 0.53043807 0.46033233 -0.00500000
      vertex 0.53043807 0.46033233 0.00500000
    endloop
  endfacet
  facet normal 0 0 0
    outer loop
      vertex 0.52500000 0.45669873 -0.00500000
      vertex 0.53043807 0.46033233 0.00500000
      vertex 0.52500000 0.45669873 0.00500000
    endloop
  endfacet
  facet normal 0 0 0
    outer loop
      vertex 0.50000000 0.50000000 -0.00500000
      vertex 0.53043807 0.46033233 -0.00500000
      vertex 0.52500000 0.45669873 -0.00500000
    endloop
  endfacet
  facet normal 0 0 0
    outer loop
      vertex 0.50000000 0.50000000 0.00500000
      vertex 0.52500000 0.45669873 0.00500000
      vertex 0.53043807 0.46033233 0.00500000
    endloop
  endfacet
  facet normal 0 0 0
    outer loop
      vertex 0.53043807 0.46033233 -0.00500000
      vertex 0.53535534 0.46464466 -0.00500000
      vertex 0.53535534 0.46464466 0.00500000
    endloop
  endfacet
  facet normal 0 0 0
    outer loop
      vertex 0.53043807 0.46033233 -0.00500000
      vertex 0.53535534 0.46464466 0.00500000
      vertex 0.53043807 0.46033233 0.00500000
    endloop
  endfacet
  facet normal 0 0 0
    outer loop
      vertex 0.50000000 0.50000000 -0.00500000
      vertex 0.53535534 0.46464466 -0.00500000
      vertex 0.53043807 0.46033233 -0.00500000
    endloop
  endfacet
  facet normal 0 0 0
    outer loop
      vertex 0.50000000 0.50000000 0.00500000
      vertex 0.53043807 0.46033233 0.00500000
      vertex 0.53535534 0.46464466 0.00500000
    endloop
  endfacet
  facet normal 0 0 0
    outer loop
      vertex 0.53535534 0.46464466 -0.00500000
      vertex 0.53966767 0.46956193 -0.00500000
      vertex 0.53966767 0.46956193 0.00500000
    endloop
  endfacet
  facet normal 0 0 0
    outer loop
      vertex 0.53535534 0.46464466 -0.00500000
      vertex 0.53966767 0.46956193 0.00500000
      vertex 0.53535534 0.46464466 0.00500000
    endloop
  endfacet
  facet normal 0 0 0
    outer loop
      vertex 0.50000000 0.50000000 -0.00500000
      vertex 0.53966767 0.46956193 -0.00500000
      vertex 0.53535534 0.46464466 -0.00500000
    endloop
  endfacet
  facet normal 0 0 0
    outer loop
      vertex 0.50000000 0.50000000 0.00500000
      vertex 0.53535534 0.46464466 0.00500000
      vertex 0.53966767 0.46956193 0.00500000
    endloop
  endfacet
  facet normal 0 0 0
    outer loop
      vertex 0.53966767 0.46956193 -0.00500000
      vertex 0.54330127 0.47500000 -0.00500000
      vertex 0.54330127 0.47500000 0.00500000
    endloop
  endfacet
  facet normal 0 0 0
    outer loop
      vertex 0.53966767 0.46956193 -0.00500000
      vertex 0.54330127 0.47500000 0.00500000
      vertex 0.53966767 0.46956193 0.00500000
    endloop
  endfacet
  facet normal 0 0 0
    outer loop
      vertex 0.50000000 0.50000000 -0.00500000
      vertex 0.54330127 0.47500000 -0.00500000
      vertex 0.53966767 0.46956193 -0.00500000
    endloop
  endfacet
  facet normal 0 0 0
    outer loop
      vertex 0.50000000 0.50000000 0.00500000
      vertex 0.53966767 0.46956193 0.00500000
      vertex 0.54330127 0.47500000 0.00500000
    endloop
  endfacet
  facet normal 0 0 0
    outer loop
      vertex 0.54330127 0.47500000 -0.00500000
      vertex 0.54619398 0.48086583 -0.00500000
      vertex 0.54619398 0.48086583 0.00500000
    endloop
  endfacet
  facet normal 0 0 0
    outer loop
      vertex 0.54330127 0.47500000 -0.00500000
      vertex 0.54619398 0.48086583 0.00500000
      vertex 0.54330127 0.47500000 0.00500000
    endloop
  endfacet
  facet normal 0 0 0
    outer loop
      vertex 0.50000000 0.50000000 -0.00500000
      vertex 0.54619398 0.48086583 -0.00500000
      vertex 0.54330127 0.47500000 -0.00500000
    endloop
  endfacet
  facet normal 0 0 0
    outer loop
      vertex 0.50000000 0.50000000 0.00500000
      vertex 0.54330127 0.47500000 0.00500000
      vertex 0.54619398 0.48086583 0.00500000
    endloop
  endfacet
  facet normal 0 0 0
    outer loop
      vertex 0.54619398 0.48086583 -0.00500000
      vertex 0.54829629 0.48705905 -0.00500000
      vertex 0.54829629 0.48705905 0.00500000
    endloop
  endfacet
  facet normal 0 0 0
    outer loop
      vertex 0.54619398 0.48086583 -0.00500000
      vertex 0.54829629 0.48705905 0.00500000
      vertex 0.54619398 0.48086583 0.00500000
    endloop
  endfacet
  facet normal 0 0 0
    outer loop
      vertex 0.50000000 0.50000000 -0.00500000
      vertex 0.54829629 0.48705905 -0.00500000
      vertex 0.54619398 0.48086583 -0.00500000
    endloop
  endfacet
  facet normal 0 0 0
    outer loop
      vertex 0.50000000 0.50000000 0.00500000
      vertex 0.54619398 0.48086583 0.00500000
      vertex 0.54829629 0.48705905 0.00500000
    endloop
  endfacet
  facet normal 0 0 0
    outer loop
      vertex 0.54829629 0.48705905 -0.00500000
      vertex 0.54957224 0.49347369 -0.00500000
      vertex 0.54957224 0.49347369 0.00500000
    endloop
  endfacet
  facet normal 0 0 0
    outer loop
      vertex 0.54829629 0.48705905 -0.00500000
      vertex 0.54957224 0.49347369 0.00500000
      vertex 0.54829629 0.48705905 0.00500000
    endloop
  endfacet
  facet normal 0 0 0
    outer loop
      vertex 0.50000000 0.50000000 -0.00500000
      vertex 0.54957224 0.49347369 -0.00500000
      vertex 0.54829629 0.48705905 -0.00500000
    endloop
  endfacet
  facet normal 0 0 0
    outer loop
      vertex 0.50000000 0.50000000 0.00500000
      vertex 0.54829629 0.48705905 0.00500000
      vertex 0.54957224 0.49347369 0.00500000
    endloop
  endfacet
  facet normal 0 0 0
    outer loop
      vertex 0.54957224 0.49347369 -0.00500000
      vertex 0.55000000 0.50000000 -0.00500000
      vertex 0.55000000 0.50000000 0.00500000
    endloop
  endfacet
  facet normal 0 0 0
    outer loop
      vertex 0.54957224 0.49347369 -0.00500000
      vertex 0.55000000 0.50000000 0.00500000
      vertex 0.54957224 0.49347369 0.00500000
    endloop
  endfacet
  facet normal 0 0 0
    outer loop
      vertex 0.50000000 0.50000000 -0.00500000
      vertex 0.55000000 0.50000000 -0.00500000
      vertex 0.54957224 0.49347369 -0.00500000
    endloop
  endfacet
  facet normal 0 0 0
    outer loop
      vertex 0.50000000 0.50000000 0.00500000
      vertex 0.54957224 0.49347369 0.00500000
      vertex 0.55000000 0.50000000 0.00500000
    endloop
  endfacet
endsolid cylinder
