ISO-10303-21;
HEADER;
FILE_DESCRIPTION(('ViewDefinition [CoordinationView]'),'2;1');
FILE_NAME('','2026-06-08T01:45:25',(''),(''),'IfcOpenShell 0.8.5-1c5b825','IfcOpenShell 0.8.5-1c5b825','');
FILE_SCHEMA(('IFC4'));
ENDSEC;
DATA;
#1=IFCPERSON('EW','EngiWorld',$,$,$,$,$,$);
#2=IFCORGANIZATION('EW','EngiWorld',$,$,$);
#3=IFCPERSONANDORGANIZATION(#1,#2,$);
#4=IFCORGANIZATION('GS','Graphisoft',$,$,$);
#5=IFCAPPLICATION(#4,'27','Archicad CLI task generator','ARCHICAD-CLI');
#6=IFCOWNERHISTORY(#3,#5,$,.ADDED.,$,$,$,1780854325);
#7=IFCCARTESIANPOINT((0.,0.,0.));
#8=IFCDIRECTION((0.,0.,1.));
#9=IFCDIRECTION((1.,0.,0.));
#10=IFCAXIS2PLACEMENT3D(#7,#8,#9);
#11=IFCDIRECTION((0.,1.,0.));
#12=IFCGEOMETRICREPRESENTATIONCONTEXT('Model','Model',3,1.0000000000000001E-05,#10,#11);
#13=IFCSIUNIT(*,.LENGTHUNIT.,$,.METRE.);
#14=IFCSIUNIT(*,.AREAUNIT.,$,.SQUARE_METRE.);
#15=IFCSIUNIT(*,.VOLUMEUNIT.,$,.CUBIC_METRE.);
#16=IFCUNITASSIGNMENT((#13,#14,#15));
#17=IFCPROJECT('0AKApKReLE69Q9HWEBuxxK',#6,'EngiWorld Archicad Task 18',$,$,$,$,(#12),#16);
#18=IFCCARTESIANPOINT((0.,0.,0.));
#19=IFCDIRECTION((0.,0.,1.));
#20=IFCDIRECTION((1.,0.,0.));
#21=IFCAXIS2PLACEMENT3D(#18,#19,#20);
#22=IFCLOCALPLACEMENT($,#21);
#23=IFCSITE('1HtEzTTML1uuqaOoEP2GAz',#6,'EngiWorld Test Site',$,$,#22,$,$,$,$,$,$,$,$);
#24=IFCCARTESIANPOINT((0.,0.,0.));
#25=IFCDIRECTION((0.,0.,1.));
#26=IFCDIRECTION((1.,0.,0.));
#27=IFCAXIS2PLACEMENT3D(#24,#25,#26);
#28=IFCLOCALPLACEMENT($,#27);
#29=IFCBUILDING('3pIG_GbMr4iQMYthURSm2_',#6,'Three-Storey Micro Hotel',$,$,#28,$,$,$,$,$,$);
#30=IFCRELAGGREGATES('1vwpf8RI1B0wm4u_$Iwd$b',#6,'Project decomposition',$,#17,(#23));
#31=IFCRELAGGREGATES('3k4esreibCUxdps$nyvoh8',#6,'Site decomposition',$,#23,(#29));
#32=IFCCARTESIANPOINT((0.,0.,0.));
#33=IFCDIRECTION((0.,0.,1.));
#34=IFCDIRECTION((1.,0.,0.));
#35=IFCAXIS2PLACEMENT3D(#32,#33,#34);
#36=IFCLOCALPLACEMENT($,#35);
#37=IFCBUILDINGSTOREY('3u1W0lziL52Oj4HJqVqkAQ',#6,'Ground Floor',$,$,#36,$,$,$,0.);
#38=IFCCARTESIANPOINT((0.,0.,3.3999999999999999));
#39=IFCDIRECTION((0.,0.,1.));
#40=IFCDIRECTION((1.,0.,0.));
#41=IFCAXIS2PLACEMENT3D(#38,#39,#40);
#42=IFCLOCALPLACEMENT($,#41);
#43=IFCBUILDINGSTOREY('2PVVUV4FnEhx2dKT7I_dV0',#6,'Level 1',$,$,#42,$,$,$,3.3999999999999999);
#44=IFCCARTESIANPOINT((0.,0.,6.7999999999999998));
#45=IFCDIRECTION((0.,0.,1.));
#46=IFCDIRECTION((1.,0.,0.));
#47=IFCAXIS2PLACEMENT3D(#44,#45,#46);
#48=IFCLOCALPLACEMENT($,#47);
#49=IFCBUILDINGSTOREY('33LIPHI9v7rBlzJN2b8Anx',#6,'Level 2',$,$,#48,$,$,$,6.7999999999999998);
#50=IFCRELAGGREGATES('1EkyvVLm55CAjANbZbeQKc',#6,'Building storeys',$,#29,(#37,#43,#49));
#51=IFCCARTESIANPOINT((11.,6.,0.));
#52=IFCDIRECTION((0.,0.,1.));
#53=IFCDIRECTION((1.,0.,0.));
#54=IFCAXIS2PLACEMENT3D(#51,#52,#53);
#55=IFCLOCALPLACEMENT($,#54);
#56=IFCCARTESIANPOINT((0.,0.));
#57=IFCDIRECTION((1.,0.));
#58=IFCAXIS2PLACEMENT2D(#56,#57);
#59=IFCRECTANGLEPROFILEDEF(.AREA.,$,#58,22.,12.);
#60=IFCCARTESIANPOINT((0.,0.,0.));
#61=IFCDIRECTION((0.,0.,1.));
#62=IFCDIRECTION((1.,0.,0.));
#63=IFCAXIS2PLACEMENT3D(#60,#61,#62);
#64=IFCDIRECTION((0.,0.,1.));
#65=IFCEXTRUDEDAREASOLID(#59,#63,#64,0.17999999999999999);
#66=IFCSHAPEREPRESENTATION(#12,'Body','SweptSolid',(#65));
#67=IFCPRODUCTDEFINITIONSHAPE($,$,(#66));
#68=IFCSLAB('3L9CPjnv5B$9Qkq3k1ZsOm',#6,'Ground Floor slab',$,$,#55,#67,$,.FLOOR.);
#69=IFCCARTESIANPOINT((11.,0.089999999999999997,0.));
#70=IFCDIRECTION((0.,0.,1.));
#71=IFCDIRECTION((1.,0.,0.));
#72=IFCAXIS2PLACEMENT3D(#69,#70,#71);
#73=IFCLOCALPLACEMENT($,#72);
#74=IFCCARTESIANPOINT((0.,0.));
#75=IFCDIRECTION((1.,0.));
#76=IFCAXIS2PLACEMENT2D(#74,#75);
#77=IFCRECTANGLEPROFILEDEF(.AREA.,$,#76,22.,0.17999999999999999);
#78=IFCCARTESIANPOINT((0.,0.,0.));
#79=IFCDIRECTION((0.,0.,1.));
#80=IFCDIRECTION((1.,0.,0.));
#81=IFCAXIS2PLACEMENT3D(#78,#79,#80);
#82=IFCDIRECTION((0.,0.,1.));
#83=IFCEXTRUDEDAREASOLID(#77,#81,#82,3.25);
#84=IFCSHAPEREPRESENTATION(#12,'Body','SweptSolid',(#83));
#85=IFCPRODUCTDEFINITIONSHAPE($,$,(#84));
#86=IFCWALL('323JrjtuD2gQAurboSMrIN',#6,'Ground Floor wall 1',$,$,#73,#85,$,$);
#87=IFCCARTESIANPOINT((11.,11.91,0.));
#88=IFCDIRECTION((0.,0.,1.));
#89=IFCDIRECTION((1.,0.,0.));
#90=IFCAXIS2PLACEMENT3D(#87,#88,#89);
#91=IFCLOCALPLACEMENT($,#90);
#92=IFCCARTESIANPOINT((0.,0.));
#93=IFCDIRECTION((1.,0.));
#94=IFCAXIS2PLACEMENT2D(#92,#93);
#95=IFCRECTANGLEPROFILEDEF(.AREA.,$,#94,22.,0.17999999999999999);
#96=IFCCARTESIANPOINT((0.,0.,0.));
#97=IFCDIRECTION((0.,0.,1.));
#98=IFCDIRECTION((1.,0.,0.));
#99=IFCAXIS2PLACEMENT3D(#96,#97,#98);
#100=IFCDIRECTION((0.,0.,1.));
#101=IFCEXTRUDEDAREASOLID(#95,#99,#100,3.25);
#102=IFCSHAPEREPRESENTATION(#12,'Body','SweptSolid',(#101));
#103=IFCPRODUCTDEFINITIONSHAPE($,$,(#102));
#104=IFCWALL('3nyywatCzB6uZnp7XeyrV0',#6,'Ground Floor wall 2',$,$,#91,#103,$,$);
#105=IFCCARTESIANPOINT((0.089999999999999997,6.,0.));
#106=IFCDIRECTION((0.,0.,1.));
#107=IFCDIRECTION((1.,0.,0.));
#108=IFCAXIS2PLACEMENT3D(#105,#106,#107);
#109=IFCLOCALPLACEMENT($,#108);
#110=IFCCARTESIANPOINT((0.,0.));
#111=IFCDIRECTION((1.,0.));
#112=IFCAXIS2PLACEMENT2D(#110,#111);
#113=IFCRECTANGLEPROFILEDEF(.AREA.,$,#112,0.17999999999999999,12.);
#114=IFCCARTESIANPOINT((0.,0.,0.));
#115=IFCDIRECTION((0.,0.,1.));
#116=IFCDIRECTION((1.,0.,0.));
#117=IFCAXIS2PLACEMENT3D(#114,#115,#116);
#118=IFCDIRECTION((0.,0.,1.));
#119=IFCEXTRUDEDAREASOLID(#113,#117,#118,3.25);
#120=IFCSHAPEREPRESENTATION(#12,'Body','SweptSolid',(#119));
#121=IFCPRODUCTDEFINITIONSHAPE($,$,(#120));
#122=IFCWALL('02GesRxyv58x$ElGS3XiMH',#6,'Ground Floor wall 3',$,$,#109,#121,$,$);
#123=IFCCARTESIANPOINT((21.91,6.,0.));
#124=IFCDIRECTION((0.,0.,1.));
#125=IFCDIRECTION((1.,0.,0.));
#126=IFCAXIS2PLACEMENT3D(#123,#124,#125);
#127=IFCLOCALPLACEMENT($,#126);
#128=IFCCARTESIANPOINT((0.,0.));
#129=IFCDIRECTION((1.,0.));
#130=IFCAXIS2PLACEMENT2D(#128,#129);
#131=IFCRECTANGLEPROFILEDEF(.AREA.,$,#130,0.17999999999999999,12.);
#132=IFCCARTESIANPOINT((0.,0.,0.));
#133=IFCDIRECTION((0.,0.,1.));
#134=IFCDIRECTION((1.,0.,0.));
#135=IFCAXIS2PLACEMENT3D(#132,#133,#134);
#136=IFCDIRECTION((0.,0.,1.));
#137=IFCEXTRUDEDAREASOLID(#131,#135,#136,3.25);
#138=IFCSHAPEREPRESENTATION(#12,'Body','SweptSolid',(#137));
#139=IFCPRODUCTDEFINITIONSHAPE($,$,(#138));
#140=IFCWALL('1meGgf0Fr6hf2tLpNgkt$1',#6,'Ground Floor wall 4',$,$,#127,#139,$,$);
#141=IFCCARTESIANPOINT((3.1428571428571428,6.,0.));
#142=IFCDIRECTION((0.,0.,1.));
#143=IFCDIRECTION((1.,0.,0.));
#144=IFCAXIS2PLACEMENT3D(#141,#142,#143);
#145=IFCLOCALPLACEMENT($,#144);
#146=IFCCARTESIANPOINT((0.,0.));
#147=IFCDIRECTION((1.,0.));
#148=IFCAXIS2PLACEMENT2D(#146,#147);
#149=IFCRECTANGLEPROFILEDEF(.AREA.,$,#148,0.14399999999999999,9.8399999999999999);
#150=IFCCARTESIANPOINT((0.,0.,0.));
#151=IFCDIRECTION((0.,0.,1.));
#152=IFCDIRECTION((1.,0.,0.));
#153=IFCAXIS2PLACEMENT3D(#150,#151,#152);
#154=IFCDIRECTION((0.,0.,1.));
#155=IFCEXTRUDEDAREASOLID(#149,#153,#154,3.1200000000000001);
#156=IFCSHAPEREPRESENTATION(#12,'Body','SweptSolid',(#155));
#157=IFCPRODUCTDEFINITIONSHAPE($,$,(#156));
#158=IFCWALL('1EjME_Z_nDevrqtgY$0SBt',#6,'Ground Floor wall 5',$,$,#145,#157,$,$);
#159=IFCCARTESIANPOINT((11.,3.4285714285714284,0.));
#160=IFCDIRECTION((0.,0.,1.));
#161=IFCDIRECTION((1.,0.,0.));
#162=IFCAXIS2PLACEMENT3D(#159,#160,#161);
#163=IFCLOCALPLACEMENT($,#162);
#164=IFCCARTESIANPOINT((0.,0.));
#165=IFCDIRECTION((1.,0.));
#166=IFCAXIS2PLACEMENT2D(#164,#165);
#167=IFCRECTANGLEPROFILEDEF(.AREA.,$,#166,18.039999999999999,0.14399999999999999);
#168=IFCCARTESIANPOINT((0.,0.,0.));
#169=IFCDIRECTION((0.,0.,1.));
#170=IFCDIRECTION((1.,0.,0.));
#171=IFCAXIS2PLACEMENT3D(#168,#169,#170);
#172=IFCDIRECTION((0.,0.,1.));
#173=IFCEXTRUDEDAREASOLID(#167,#171,#172,3.1200000000000001);
#174=IFCSHAPEREPRESENTATION(#12,'Body','SweptSolid',(#173));
#175=IFCPRODUCTDEFINITIONSHAPE($,$,(#174));
#176=IFCWALL('2HSga4tzz88g7nbHmkVniP',#6,'Ground Floor wall 6',$,$,#163,#175,$,$);
#177=IFCCARTESIANPOINT((9.4285714285714288,6.,0.));
#178=IFCDIRECTION((0.,0.,1.));
#179=IFCDIRECTION((1.,0.,0.));
#180=IFCAXIS2PLACEMENT3D(#177,#178,#179);
#181=IFCLOCALPLACEMENT($,#180);
#182=IFCCARTESIANPOINT((0.,0.));
#183=IFCDIRECTION((1.,0.));
#184=IFCAXIS2PLACEMENT2D(#182,#183);
#185=IFCRECTANGLEPROFILEDEF(.AREA.,$,#184,0.14399999999999999,9.8399999999999999);
#186=IFCCARTESIANPOINT((0.,0.,0.));
#187=IFCDIRECTION((0.,0.,1.));
#188=IFCDIRECTION((1.,0.,0.));
#189=IFCAXIS2PLACEMENT3D(#186,#187,#188);
#190=IFCDIRECTION((0.,0.,1.));
#191=IFCEXTRUDEDAREASOLID(#185,#189,#190,3.1200000000000001);
#192=IFCSHAPEREPRESENTATION(#12,'Body','SweptSolid',(#191));
#193=IFCPRODUCTDEFINITIONSHAPE($,$,(#192));
#194=IFCWALL('0MRVsCr9fBLB6wuMSYAJGc',#6,'Ground Floor wall 7',$,$,#181,#193,$,$);
#195=IFCCARTESIANPOINT((11.,6.8571428571428568,0.));
#196=IFCDIRECTION((0.,0.,1.));
#197=IFCDIRECTION((1.,0.,0.));
#198=IFCAXIS2PLACEMENT3D(#195,#196,#197);
#199=IFCLOCALPLACEMENT($,#198);
#200=IFCCARTESIANPOINT((0.,0.));
#201=IFCDIRECTION((1.,0.));
#202=IFCAXIS2PLACEMENT2D(#200,#201);
#203=IFCRECTANGLEPROFILEDEF(.AREA.,$,#202,18.039999999999999,0.14399999999999999);
#204=IFCCARTESIANPOINT((0.,0.,0.));
#205=IFCDIRECTION((0.,0.,1.));
#206=IFCDIRECTION((1.,0.,0.));
#207=IFCAXIS2PLACEMENT3D(#204,#205,#206);
#208=IFCDIRECTION((0.,0.,1.));
#209=IFCEXTRUDEDAREASOLID(#203,#207,#208,3.1200000000000001);
#210=IFCSHAPEREPRESENTATION(#12,'Body','SweptSolid',(#209));
#211=IFCPRODUCTDEFINITIONSHAPE($,$,(#210));
#212=IFCWALL('2uGibE_VzAyf6FtQYb0sQF',#6,'Ground Floor wall 8',$,$,#199,#211,$,$);
#213=IFCCARTESIANPOINT((15.714285714285715,6.,0.));
#214=IFCDIRECTION((0.,0.,1.));
#215=IFCDIRECTION((1.,0.,0.));
#216=IFCAXIS2PLACEMENT3D(#213,#214,#215);
#217=IFCLOCALPLACEMENT($,#216);
#218=IFCCARTESIANPOINT((0.,0.));
#219=IFCDIRECTION((1.,0.));
#220=IFCAXIS2PLACEMENT2D(#218,#219);
#221=IFCRECTANGLEPROFILEDEF(.AREA.,$,#220,0.14399999999999999,9.8399999999999999);
#222=IFCCARTESIANPOINT((0.,0.,0.));
#223=IFCDIRECTION((0.,0.,1.));
#224=IFCDIRECTION((1.,0.,0.));
#225=IFCAXIS2PLACEMENT3D(#222,#223,#224);
#226=IFCDIRECTION((0.,0.,1.));
#227=IFCEXTRUDEDAREASOLID(#221,#225,#226,3.1200000000000001);
#228=IFCSHAPEREPRESENTATION(#12,'Body','SweptSolid',(#227));
#229=IFCPRODUCTDEFINITIONSHAPE($,$,(#228));
#230=IFCWALL('2GyZmfsF9F2PBEAchJmHqt',#6,'Ground Floor wall 9',$,$,#217,#229,$,$);
#231=IFCCARTESIANPOINT((11.,10.285714285714285,0.));
#232=IFCDIRECTION((0.,0.,1.));
#233=IFCDIRECTION((1.,0.,0.));
#234=IFCAXIS2PLACEMENT3D(#231,#232,#233);
#235=IFCLOCALPLACEMENT($,#234);
#236=IFCCARTESIANPOINT((0.,0.));
#237=IFCDIRECTION((1.,0.));
#238=IFCAXIS2PLACEMENT2D(#236,#237);
#239=IFCRECTANGLEPROFILEDEF(.AREA.,$,#238,18.039999999999999,0.14399999999999999);
#240=IFCCARTESIANPOINT((0.,0.,0.));
#241=IFCDIRECTION((0.,0.,1.));
#242=IFCDIRECTION((1.,0.,0.));
#243=IFCAXIS2PLACEMENT3D(#240,#241,#242);
#244=IFCDIRECTION((0.,0.,1.));
#245=IFCEXTRUDEDAREASOLID(#239,#243,#244,3.1200000000000001);
#246=IFCSHAPEREPRESENTATION(#12,'Body','SweptSolid',(#245));
#247=IFCPRODUCTDEFINITIONSHAPE($,$,(#246));
#248=IFCWALL('3bZhCbJH18fvBcfatw$DQn',#6,'Ground Floor wall 10',$,$,#235,#247,$,$);
#249=IFCCARTESIANPOINT((11.,6.,3.3999999999999999));
#250=IFCDIRECTION((0.,0.,1.));
#251=IFCDIRECTION((1.,0.,0.));
#252=IFCAXIS2PLACEMENT3D(#249,#250,#251);
#253=IFCLOCALPLACEMENT($,#252);
#254=IFCCARTESIANPOINT((0.,0.));
#255=IFCDIRECTION((1.,0.));
#256=IFCAXIS2PLACEMENT2D(#254,#255);
#257=IFCRECTANGLEPROFILEDEF(.AREA.,$,#256,22.,12.);
#258=IFCCARTESIANPOINT((0.,0.,0.));
#259=IFCDIRECTION((0.,0.,1.));
#260=IFCDIRECTION((1.,0.,0.));
#261=IFCAXIS2PLACEMENT3D(#258,#259,#260);
#262=IFCDIRECTION((0.,0.,1.));
#263=IFCEXTRUDEDAREASOLID(#257,#261,#262,0.17999999999999999);
#264=IFCSHAPEREPRESENTATION(#12,'Body','SweptSolid',(#263));
#265=IFCPRODUCTDEFINITIONSHAPE($,$,(#264));
#266=IFCSLAB('3iuzbgy4v6Fx6RjyLDVwtW',#6,'Level 1 slab',$,$,#253,#265,$,.FLOOR.);
#267=IFCCARTESIANPOINT((11.,0.089999999999999997,3.3999999999999999));
#268=IFCDIRECTION((0.,0.,1.));
#269=IFCDIRECTION((1.,0.,0.));
#270=IFCAXIS2PLACEMENT3D(#267,#268,#269);
#271=IFCLOCALPLACEMENT($,#270);
#272=IFCCARTESIANPOINT((0.,0.));
#273=IFCDIRECTION((1.,0.));
#274=IFCAXIS2PLACEMENT2D(#272,#273);
#275=IFCRECTANGLEPROFILEDEF(.AREA.,$,#274,22.,0.17999999999999999);
#276=IFCCARTESIANPOINT((0.,0.,0.));
#277=IFCDIRECTION((0.,0.,1.));
#278=IFCDIRECTION((1.,0.,0.));
#279=IFCAXIS2PLACEMENT3D(#276,#277,#278);
#280=IFCDIRECTION((0.,0.,1.));
#281=IFCEXTRUDEDAREASOLID(#275,#279,#280,3.25);
#282=IFCSHAPEREPRESENTATION(#12,'Body','SweptSolid',(#281));
#283=IFCPRODUCTDEFINITIONSHAPE($,$,(#282));
#284=IFCWALL('0bHhIanFnBgRka_6CqXYms',#6,'Level 1 wall 1',$,$,#271,#283,$,$);
#285=IFCCARTESIANPOINT((11.,11.91,3.3999999999999999));
#286=IFCDIRECTION((0.,0.,1.));
#287=IFCDIRECTION((1.,0.,0.));
#288=IFCAXIS2PLACEMENT3D(#285,#286,#287);
#289=IFCLOCALPLACEMENT($,#288);
#290=IFCCARTESIANPOINT((0.,0.));
#291=IFCDIRECTION((1.,0.));
#292=IFCAXIS2PLACEMENT2D(#290,#291);
#293=IFCRECTANGLEPROFILEDEF(.AREA.,$,#292,22.,0.17999999999999999);
#294=IFCCARTESIANPOINT((0.,0.,0.));
#295=IFCDIRECTION((0.,0.,1.));
#296=IFCDIRECTION((1.,0.,0.));
#297=IFCAXIS2PLACEMENT3D(#294,#295,#296);
#298=IFCDIRECTION((0.,0.,1.));
#299=IFCEXTRUDEDAREASOLID(#293,#297,#298,3.25);
#300=IFCSHAPEREPRESENTATION(#12,'Body','SweptSolid',(#299));
#301=IFCPRODUCTDEFINITIONSHAPE($,$,(#300));
#302=IFCWALL('2eMoCYQU14CRHpp1JzY$ql',#6,'Level 1 wall 2',$,$,#289,#301,$,$);
#303=IFCCARTESIANPOINT((0.089999999999999997,6.,3.3999999999999999));
#304=IFCDIRECTION((0.,0.,1.));
#305=IFCDIRECTION((1.,0.,0.));
#306=IFCAXIS2PLACEMENT3D(#303,#304,#305);
#307=IFCLOCALPLACEMENT($,#306);
#308=IFCCARTESIANPOINT((0.,0.));
#309=IFCDIRECTION((1.,0.));
#310=IFCAXIS2PLACEMENT2D(#308,#309);
#311=IFCRECTANGLEPROFILEDEF(.AREA.,$,#310,0.17999999999999999,12.);
#312=IFCCARTESIANPOINT((0.,0.,0.));
#313=IFCDIRECTION((0.,0.,1.));
#314=IFCDIRECTION((1.,0.,0.));
#315=IFCAXIS2PLACEMENT3D(#312,#313,#314);
#316=IFCDIRECTION((0.,0.,1.));
#317=IFCEXTRUDEDAREASOLID(#311,#315,#316,3.25);
#318=IFCSHAPEREPRESENTATION(#12,'Body','SweptSolid',(#317));
#319=IFCPRODUCTDEFINITIONSHAPE($,$,(#318));
#320=IFCWALL('2ZZWfVWyT4MA4lcK1_6e0u',#6,'Level 1 wall 3',$,$,#307,#319,$,$);
#321=IFCCARTESIANPOINT((21.91,6.,3.3999999999999999));
#322=IFCDIRECTION((0.,0.,1.));
#323=IFCDIRECTION((1.,0.,0.));
#324=IFCAXIS2PLACEMENT3D(#321,#322,#323);
#325=IFCLOCALPLACEMENT($,#324);
#326=IFCCARTESIANPOINT((0.,0.));
#327=IFCDIRECTION((1.,0.));
#328=IFCAXIS2PLACEMENT2D(#326,#327);
#329=IFCRECTANGLEPROFILEDEF(.AREA.,$,#328,0.17999999999999999,12.);
#330=IFCCARTESIANPOINT((0.,0.,0.));
#331=IFCDIRECTION((0.,0.,1.));
#332=IFCDIRECTION((1.,0.,0.));
#333=IFCAXIS2PLACEMENT3D(#330,#331,#332);
#334=IFCDIRECTION((0.,0.,1.));
#335=IFCEXTRUDEDAREASOLID(#329,#333,#334,3.25);
#336=IFCSHAPEREPRESENTATION(#12,'Body','SweptSolid',(#335));
#337=IFCPRODUCTDEFINITIONSHAPE($,$,(#336));
#338=IFCWALL('2Je3emQ4v95BNB6P$vpH7Z',#6,'Level 1 wall 4',$,$,#325,#337,$,$);
#339=IFCCARTESIANPOINT((3.1428571428571428,6.,3.3999999999999999));
#340=IFCDIRECTION((0.,0.,1.));
#341=IFCDIRECTION((1.,0.,0.));
#342=IFCAXIS2PLACEMENT3D(#339,#340,#341);
#343=IFCLOCALPLACEMENT($,#342);
#344=IFCCARTESIANPOINT((0.,0.));
#345=IFCDIRECTION((1.,0.));
#346=IFCAXIS2PLACEMENT2D(#344,#345);
#347=IFCRECTANGLEPROFILEDEF(.AREA.,$,#346,0.14399999999999999,9.8399999999999999);
#348=IFCCARTESIANPOINT((0.,0.,0.));
#349=IFCDIRECTION((0.,0.,1.));
#350=IFCDIRECTION((1.,0.,0.));
#351=IFCAXIS2PLACEMENT3D(#348,#349,#350);
#352=IFCDIRECTION((0.,0.,1.));
#353=IFCEXTRUDEDAREASOLID(#347,#351,#352,3.1200000000000001);
#354=IFCSHAPEREPRESENTATION(#12,'Body','SweptSolid',(#353));
#355=IFCPRODUCTDEFINITIONSHAPE($,$,(#354));
#356=IFCWALL('3EQgzyNiP9B8St559G2n60',#6,'Level 1 wall 5',$,$,#343,#355,$,$);
#357=IFCCARTESIANPOINT((11.,3.4285714285714284,3.3999999999999999));
#358=IFCDIRECTION((0.,0.,1.));
#359=IFCDIRECTION((1.,0.,0.));
#360=IFCAXIS2PLACEMENT3D(#357,#358,#359);
#361=IFCLOCALPLACEMENT($,#360);
#362=IFCCARTESIANPOINT((0.,0.));
#363=IFCDIRECTION((1.,0.));
#364=IFCAXIS2PLACEMENT2D(#362,#363);
#365=IFCRECTANGLEPROFILEDEF(.AREA.,$,#364,18.039999999999999,0.14399999999999999);
#366=IFCCARTESIANPOINT((0.,0.,0.));
#367=IFCDIRECTION((0.,0.,1.));
#368=IFCDIRECTION((1.,0.,0.));
#369=IFCAXIS2PLACEMENT3D(#366,#367,#368);
#370=IFCDIRECTION((0.,0.,1.));
#371=IFCEXTRUDEDAREASOLID(#365,#369,#370,3.1200000000000001);
#372=IFCSHAPEREPRESENTATION(#12,'Body','SweptSolid',(#371));
#373=IFCPRODUCTDEFINITIONSHAPE($,$,(#372));
#374=IFCWALL('1nbIzp2iv9wfuuX3vACMQB',#6,'Level 1 wall 6',$,$,#361,#373,$,$);
#375=IFCCARTESIANPOINT((9.4285714285714288,6.,3.3999999999999999));
#376=IFCDIRECTION((0.,0.,1.));
#377=IFCDIRECTION((1.,0.,0.));
#378=IFCAXIS2PLACEMENT3D(#375,#376,#377);
#379=IFCLOCALPLACEMENT($,#378);
#380=IFCCARTESIANPOINT((0.,0.));
#381=IFCDIRECTION((1.,0.));
#382=IFCAXIS2PLACEMENT2D(#380,#381);
#383=IFCRECTANGLEPROFILEDEF(.AREA.,$,#382,0.14399999999999999,9.8399999999999999);
#384=IFCCARTESIANPOINT((0.,0.,0.));
#385=IFCDIRECTION((0.,0.,1.));
#386=IFCDIRECTION((1.,0.,0.));
#387=IFCAXIS2PLACEMENT3D(#384,#385,#386);
#388=IFCDIRECTION((0.,0.,1.));
#389=IFCEXTRUDEDAREASOLID(#383,#387,#388,3.1200000000000001);
#390=IFCSHAPEREPRESENTATION(#12,'Body','SweptSolid',(#389));
#391=IFCPRODUCTDEFINITIONSHAPE($,$,(#390));
#392=IFCWALL('2b21fXGRDEbxSTfdduk$Hr',#6,'Level 1 wall 7',$,$,#379,#391,$,$);
#393=IFCCARTESIANPOINT((11.,6.8571428571428568,3.3999999999999999));
#394=IFCDIRECTION((0.,0.,1.));
#395=IFCDIRECTION((1.,0.,0.));
#396=IFCAXIS2PLACEMENT3D(#393,#394,#395);
#397=IFCLOCALPLACEMENT($,#396);
#398=IFCCARTESIANPOINT((0.,0.));
#399=IFCDIRECTION((1.,0.));
#400=IFCAXIS2PLACEMENT2D(#398,#399);
#401=IFCRECTANGLEPROFILEDEF(.AREA.,$,#400,18.039999999999999,0.14399999999999999);
#402=IFCCARTESIANPOINT((0.,0.,0.));
#403=IFCDIRECTION((0.,0.,1.));
#404=IFCDIRECTION((1.,0.,0.));
#405=IFCAXIS2PLACEMENT3D(#402,#403,#404);
#406=IFCDIRECTION((0.,0.,1.));
#407=IFCEXTRUDEDAREASOLID(#401,#405,#406,3.1200000000000001);
#408=IFCSHAPEREPRESENTATION(#12,'Body','SweptSolid',(#407));
#409=IFCPRODUCTDEFINITIONSHAPE($,$,(#408));
#410=IFCWALL('2eTmILWz9ECf4VVoF_SW_U',#6,'Level 1 wall 8',$,$,#397,#409,$,$);
#411=IFCCARTESIANPOINT((15.714285714285715,6.,3.3999999999999999));
#412=IFCDIRECTION((0.,0.,1.));
#413=IFCDIRECTION((1.,0.,0.));
#414=IFCAXIS2PLACEMENT3D(#411,#412,#413);
#415=IFCLOCALPLACEMENT($,#414);
#416=IFCCARTESIANPOINT((0.,0.));
#417=IFCDIRECTION((1.,0.));
#418=IFCAXIS2PLACEMENT2D(#416,#417);
#419=IFCRECTANGLEPROFILEDEF(.AREA.,$,#418,0.14399999999999999,9.8399999999999999);
#420=IFCCARTESIANPOINT((0.,0.,0.));
#421=IFCDIRECTION((0.,0.,1.));
#422=IFCDIRECTION((1.,0.,0.));
#423=IFCAXIS2PLACEMENT3D(#420,#421,#422);
#424=IFCDIRECTION((0.,0.,1.));
#425=IFCEXTRUDEDAREASOLID(#419,#423,#424,3.1200000000000001);
#426=IFCSHAPEREPRESENTATION(#12,'Body','SweptSolid',(#425));
#427=IFCPRODUCTDEFINITIONSHAPE($,$,(#426));
#428=IFCWALL('31dvT58R531ehotJRL4DxJ',#6,'Level 1 wall 9',$,$,#415,#427,$,$);
#429=IFCCARTESIANPOINT((11.,10.285714285714285,3.3999999999999999));
#430=IFCDIRECTION((0.,0.,1.));
#431=IFCDIRECTION((1.,0.,0.));
#432=IFCAXIS2PLACEMENT3D(#429,#430,#431);
#433=IFCLOCALPLACEMENT($,#432);
#434=IFCCARTESIANPOINT((0.,0.));
#435=IFCDIRECTION((1.,0.));
#436=IFCAXIS2PLACEMENT2D(#434,#435);
#437=IFCRECTANGLEPROFILEDEF(.AREA.,$,#436,18.039999999999999,0.14399999999999999);
#438=IFCCARTESIANPOINT((0.,0.,0.));
#439=IFCDIRECTION((0.,0.,1.));
#440=IFCDIRECTION((1.,0.,0.));
#441=IFCAXIS2PLACEMENT3D(#438,#439,#440);
#442=IFCDIRECTION((0.,0.,1.));
#443=IFCEXTRUDEDAREASOLID(#437,#441,#442,3.1200000000000001);
#444=IFCSHAPEREPRESENTATION(#12,'Body','SweptSolid',(#443));
#445=IFCPRODUCTDEFINITIONSHAPE($,$,(#444));
#446=IFCWALL('3HISe$BBT7vebmAcDpCrMG',#6,'Level 1 wall 10',$,$,#433,#445,$,$);
#447=IFCCARTESIANPOINT((11.,6.,6.7999999999999998));
#448=IFCDIRECTION((0.,0.,1.));
#449=IFCDIRECTION((1.,0.,0.));
#450=IFCAXIS2PLACEMENT3D(#447,#448,#449);
#451=IFCLOCALPLACEMENT($,#450);
#452=IFCCARTESIANPOINT((0.,0.));
#453=IFCDIRECTION((1.,0.));
#454=IFCAXIS2PLACEMENT2D(#452,#453);
#455=IFCRECTANGLEPROFILEDEF(.AREA.,$,#454,22.,12.);
#456=IFCCARTESIANPOINT((0.,0.,0.));
#457=IFCDIRECTION((0.,0.,1.));
#458=IFCDIRECTION((1.,0.,0.));
#459=IFCAXIS2PLACEMENT3D(#456,#457,#458);
#460=IFCDIRECTION((0.,0.,1.));
#461=IFCEXTRUDEDAREASOLID(#455,#459,#460,0.17999999999999999);
#462=IFCSHAPEREPRESENTATION(#12,'Body','SweptSolid',(#461));
#463=IFCPRODUCTDEFINITIONSHAPE($,$,(#462));
#464=IFCSLAB('2Ud5JNrf9D4gMYTVqR3o2T',#6,'Level 2 slab',$,$,#451,#463,$,.FLOOR.);
#465=IFCCARTESIANPOINT((11.,0.089999999999999997,6.7999999999999998));
#466=IFCDIRECTION((0.,0.,1.));
#467=IFCDIRECTION((1.,0.,0.));
#468=IFCAXIS2PLACEMENT3D(#465,#466,#467);
#469=IFCLOCALPLACEMENT($,#468);
#470=IFCCARTESIANPOINT((0.,0.));
#471=IFCDIRECTION((1.,0.));
#472=IFCAXIS2PLACEMENT2D(#470,#471);
#473=IFCRECTANGLEPROFILEDEF(.AREA.,$,#472,22.,0.17999999999999999);
#474=IFCCARTESIANPOINT((0.,0.,0.));
#475=IFCDIRECTION((0.,0.,1.));
#476=IFCDIRECTION((1.,0.,0.));
#477=IFCAXIS2PLACEMENT3D(#474,#475,#476);
#478=IFCDIRECTION((0.,0.,1.));
#479=IFCEXTRUDEDAREASOLID(#473,#477,#478,3.25);
#480=IFCSHAPEREPRESENTATION(#12,'Body','SweptSolid',(#479));
#481=IFCPRODUCTDEFINITIONSHAPE($,$,(#480));
#482=IFCWALL('3RaUPJ0LL7_AGTDlP$cOI9',#6,'Level 2 wall 1',$,$,#469,#481,$,$);
#483=IFCCARTESIANPOINT((11.,11.91,6.7999999999999998));
#484=IFCDIRECTION((0.,0.,1.));
#485=IFCDIRECTION((1.,0.,0.));
#486=IFCAXIS2PLACEMENT3D(#483,#484,#485);
#487=IFCLOCALPLACEMENT($,#486);
#488=IFCCARTESIANPOINT((0.,0.));
#489=IFCDIRECTION((1.,0.));
#490=IFCAXIS2PLACEMENT2D(#488,#489);
#491=IFCRECTANGLEPROFILEDEF(.AREA.,$,#490,22.,0.17999999999999999);
#492=IFCCARTESIANPOINT((0.,0.,0.));
#493=IFCDIRECTION((0.,0.,1.));
#494=IFCDIRECTION((1.,0.,0.));
#495=IFCAXIS2PLACEMENT3D(#492,#493,#494);
#496=IFCDIRECTION((0.,0.,1.));
#497=IFCEXTRUDEDAREASOLID(#491,#495,#496,3.25);
#498=IFCSHAPEREPRESENTATION(#12,'Body','SweptSolid',(#497));
#499=IFCPRODUCTDEFINITIONSHAPE($,$,(#498));
#500=IFCWALL('3Bz0ASSq5A7Bhl0V8QPzxC',#6,'Level 2 wall 2',$,$,#487,#499,$,$);
#501=IFCCARTESIANPOINT((0.089999999999999997,6.,6.7999999999999998));
#502=IFCDIRECTION((0.,0.,1.));
#503=IFCDIRECTION((1.,0.,0.));
#504=IFCAXIS2PLACEMENT3D(#501,#502,#503);
#505=IFCLOCALPLACEMENT($,#504);
#506=IFCCARTESIANPOINT((0.,0.));
#507=IFCDIRECTION((1.,0.));
#508=IFCAXIS2PLACEMENT2D(#506,#507);
#509=IFCRECTANGLEPROFILEDEF(.AREA.,$,#508,0.17999999999999999,12.);
#510=IFCCARTESIANPOINT((0.,0.,0.));
#511=IFCDIRECTION((0.,0.,1.));
#512=IFCDIRECTION((1.,0.,0.));
#513=IFCAXIS2PLACEMENT3D(#510,#511,#512);
#514=IFCDIRECTION((0.,0.,1.));
#515=IFCEXTRUDEDAREASOLID(#509,#513,#514,3.25);
#516=IFCSHAPEREPRESENTATION(#12,'Body','SweptSolid',(#515));
#517=IFCPRODUCTDEFINITIONSHAPE($,$,(#516));
#518=IFCWALL('1x4Q$ks6jDCgIsQLkhNID5',#6,'Level 2 wall 3',$,$,#505,#517,$,$);
#519=IFCCARTESIANPOINT((21.91,6.,6.7999999999999998));
#520=IFCDIRECTION((0.,0.,1.));
#521=IFCDIRECTION((1.,0.,0.));
#522=IFCAXIS2PLACEMENT3D(#519,#520,#521);
#523=IFCLOCALPLACEMENT($,#522);
#524=IFCCARTESIANPOINT((0.,0.));
#525=IFCDIRECTION((1.,0.));
#526=IFCAXIS2PLACEMENT2D(#524,#525);
#527=IFCRECTANGLEPROFILEDEF(.AREA.,$,#526,0.17999999999999999,12.);
#528=IFCCARTESIANPOINT((0.,0.,0.));
#529=IFCDIRECTION((0.,0.,1.));
#530=IFCDIRECTION((1.,0.,0.));
#531=IFCAXIS2PLACEMENT3D(#528,#529,#530);
#532=IFCDIRECTION((0.,0.,1.));
#533=IFCEXTRUDEDAREASOLID(#527,#531,#532,3.25);
#534=IFCSHAPEREPRESENTATION(#12,'Body','SweptSolid',(#533));
#535=IFCPRODUCTDEFINITIONSHAPE($,$,(#534));
#536=IFCWALL('3sCIor0Sn5UgWZ_KRncST_',#6,'Level 2 wall 4',$,$,#523,#535,$,$);
#537=IFCCARTESIANPOINT((3.1428571428571428,6.,6.7999999999999998));
#538=IFCDIRECTION((0.,0.,1.));
#539=IFCDIRECTION((1.,0.,0.));
#540=IFCAXIS2PLACEMENT3D(#537,#538,#539);
#541=IFCLOCALPLACEMENT($,#540);
#542=IFCCARTESIANPOINT((0.,0.));
#543=IFCDIRECTION((1.,0.));
#544=IFCAXIS2PLACEMENT2D(#542,#543);
#545=IFCRECTANGLEPROFILEDEF(.AREA.,$,#544,0.14399999999999999,9.8399999999999999);
#546=IFCCARTESIANPOINT((0.,0.,0.));
#547=IFCDIRECTION((0.,0.,1.));
#548=IFCDIRECTION((1.,0.,0.));
#549=IFCAXIS2PLACEMENT3D(#546,#547,#548);
#550=IFCDIRECTION((0.,0.,1.));
#551=IFCEXTRUDEDAREASOLID(#545,#549,#550,3.1200000000000001);
#552=IFCSHAPEREPRESENTATION(#12,'Body','SweptSolid',(#551));
#553=IFCPRODUCTDEFINITIONSHAPE($,$,(#552));
#554=IFCWALL('37LEQz7HH5q8REa5iXpMSz',#6,'Level 2 wall 5',$,$,#541,#553,$,$);
#555=IFCCARTESIANPOINT((11.,3.4285714285714284,6.7999999999999998));
#556=IFCDIRECTION((0.,0.,1.));
#557=IFCDIRECTION((1.,0.,0.));
#558=IFCAXIS2PLACEMENT3D(#555,#556,#557);
#559=IFCLOCALPLACEMENT($,#558);
#560=IFCCARTESIANPOINT((0.,0.));
#561=IFCDIRECTION((1.,0.));
#562=IFCAXIS2PLACEMENT2D(#560,#561);
#563=IFCRECTANGLEPROFILEDEF(.AREA.,$,#562,18.039999999999999,0.14399999999999999);
#564=IFCCARTESIANPOINT((0.,0.,0.));
#565=IFCDIRECTION((0.,0.,1.));
#566=IFCDIRECTION((1.,0.,0.));
#567=IFCAXIS2PLACEMENT3D(#564,#565,#566);
#568=IFCDIRECTION((0.,0.,1.));
#569=IFCEXTRUDEDAREASOLID(#563,#567,#568,3.1200000000000001);
#570=IFCSHAPEREPRESENTATION(#12,'Body','SweptSolid',(#569));
#571=IFCPRODUCTDEFINITIONSHAPE($,$,(#570));
#572=IFCWALL('38RPYasmz8XvrzhaMOCbXV',#6,'Level 2 wall 6',$,$,#559,#571,$,$);
#573=IFCCARTESIANPOINT((9.4285714285714288,6.,6.7999999999999998));
#574=IFCDIRECTION((0.,0.,1.));
#575=IFCDIRECTION((1.,0.,0.));
#576=IFCAXIS2PLACEMENT3D(#573,#574,#575);
#577=IFCLOCALPLACEMENT($,#576);
#578=IFCCARTESIANPOINT((0.,0.));
#579=IFCDIRECTION((1.,0.));
#580=IFCAXIS2PLACEMENT2D(#578,#579);
#581=IFCRECTANGLEPROFILEDEF(.AREA.,$,#580,0.14399999999999999,9.8399999999999999);
#582=IFCCARTESIANPOINT((0.,0.,0.));
#583=IFCDIRECTION((0.,0.,1.));
#584=IFCDIRECTION((1.,0.,0.));
#585=IFCAXIS2PLACEMENT3D(#582,#583,#584);
#586=IFCDIRECTION((0.,0.,1.));
#587=IFCEXTRUDEDAREASOLID(#581,#585,#586,3.1200000000000001);
#588=IFCSHAPEREPRESENTATION(#12,'Body','SweptSolid',(#587));
#589=IFCPRODUCTDEFINITIONSHAPE($,$,(#588));
#590=IFCWALL('3sGDFOU1TD2wDo46MCVIdv',#6,'Level 2 wall 7',$,$,#577,#589,$,$);
#591=IFCCARTESIANPOINT((11.,6.8571428571428568,6.7999999999999998));
#592=IFCDIRECTION((0.,0.,1.));
#593=IFCDIRECTION((1.,0.,0.));
#594=IFCAXIS2PLACEMENT3D(#591,#592,#593);
#595=IFCLOCALPLACEMENT($,#594);
#596=IFCCARTESIANPOINT((0.,0.));
#597=IFCDIRECTION((1.,0.));
#598=IFCAXIS2PLACEMENT2D(#596,#597);
#599=IFCRECTANGLEPROFILEDEF(.AREA.,$,#598,18.039999999999999,0.14399999999999999);
#600=IFCCARTESIANPOINT((0.,0.,0.));
#601=IFCDIRECTION((0.,0.,1.));
#602=IFCDIRECTION((1.,0.,0.));
#603=IFCAXIS2PLACEMENT3D(#600,#601,#602);
#604=IFCDIRECTION((0.,0.,1.));
#605=IFCEXTRUDEDAREASOLID(#599,#603,#604,3.1200000000000001);
#606=IFCSHAPEREPRESENTATION(#12,'Body','SweptSolid',(#605));
#607=IFCPRODUCTDEFINITIONSHAPE($,$,(#606));
#608=IFCWALL('3vMvbZRXX8s91b9XLsRX2l',#6,'Level 2 wall 8',$,$,#595,#607,$,$);
#609=IFCCARTESIANPOINT((15.714285714285715,6.,6.7999999999999998));
#610=IFCDIRECTION((0.,0.,1.));
#611=IFCDIRECTION((1.,0.,0.));
#612=IFCAXIS2PLACEMENT3D(#609,#610,#611);
#613=IFCLOCALPLACEMENT($,#612);
#614=IFCCARTESIANPOINT((0.,0.));
#615=IFCDIRECTION((1.,0.));
#616=IFCAXIS2PLACEMENT2D(#614,#615);
#617=IFCRECTANGLEPROFILEDEF(.AREA.,$,#616,0.14399999999999999,9.8399999999999999);
#618=IFCCARTESIANPOINT((0.,0.,0.));
#619=IFCDIRECTION((0.,0.,1.));
#620=IFCDIRECTION((1.,0.,0.));
#621=IFCAXIS2PLACEMENT3D(#618,#619,#620);
#622=IFCDIRECTION((0.,0.,1.));
#623=IFCEXTRUDEDAREASOLID(#617,#621,#622,3.1200000000000001);
#624=IFCSHAPEREPRESENTATION(#12,'Body','SweptSolid',(#623));
#625=IFCPRODUCTDEFINITIONSHAPE($,$,(#624));
#626=IFCWALL('1_DOzEzGnBqxa9GrP_DtA_',#6,'Level 2 wall 9',$,$,#613,#625,$,$);
#627=IFCCARTESIANPOINT((11.,10.285714285714285,6.7999999999999998));
#628=IFCDIRECTION((0.,0.,1.));
#629=IFCDIRECTION((1.,0.,0.));
#630=IFCAXIS2PLACEMENT3D(#627,#628,#629);
#631=IFCLOCALPLACEMENT($,#630);
#632=IFCCARTESIANPOINT((0.,0.));
#633=IFCDIRECTION((1.,0.));
#634=IFCAXIS2PLACEMENT2D(#632,#633);
#635=IFCRECTANGLEPROFILEDEF(.AREA.,$,#634,18.039999999999999,0.14399999999999999);
#636=IFCCARTESIANPOINT((0.,0.,0.));
#637=IFCDIRECTION((0.,0.,1.));
#638=IFCDIRECTION((1.,0.,0.));
#639=IFCAXIS2PLACEMENT3D(#636,#637,#638);
#640=IFCDIRECTION((0.,0.,1.));
#641=IFCEXTRUDEDAREASOLID(#635,#639,#640,3.1200000000000001);
#642=IFCSHAPEREPRESENTATION(#12,'Body','SweptSolid',(#641));
#643=IFCPRODUCTDEFINITIONSHAPE($,$,(#642));
#644=IFCWALL('2oPXMYhq1EwgJPKf5v4qjg',#6,'Level 2 wall 10',$,$,#631,#643,$,$);
#645=IFCCARTESIANPOINT((5.5,6.,10.));
#646=IFCDIRECTION((0.,0.,1.));
#647=IFCDIRECTION((1.,0.,0.));
#648=IFCAXIS2PLACEMENT3D(#645,#646,#647);
#649=IFCLOCALPLACEMENT($,#648);
#650=IFCCARTESIANPOINT((0.,0.));
#651=IFCDIRECTION((1.,0.));
#652=IFCAXIS2PLACEMENT2D(#650,#651);
#653=IFCRECTANGLEPROFILEDEF(.AREA.,$,#652,11.,12.);
#654=IFCCARTESIANPOINT((0.,0.,0.));
#655=IFCDIRECTION((0.,0.,1.));
#656=IFCDIRECTION((1.,0.,0.));
#657=IFCAXIS2PLACEMENT3D(#654,#655,#656);
#658=IFCDIRECTION((0.,0.,1.));
#659=IFCEXTRUDEDAREASOLID(#653,#657,#658,0.20000000000000001);
#660=IFCSHAPEREPRESENTATION(#12,'Body','SweptSolid',(#659));
#661=IFCPRODUCTDEFINITIONSHAPE($,$,(#660));
#662=IFCROOF('3bXRbGA8D72uGxJ1MMVqLZ',#6,'roof segment 1',$,$,#649,#661,$,.FLAT_ROOF.);
#663=IFCCARTESIANPOINT((16.5,6.,10.));
#664=IFCDIRECTION((0.,0.,1.));
#665=IFCDIRECTION((1.,0.,0.));
#666=IFCAXIS2PLACEMENT3D(#663,#664,#665);
#667=IFCLOCALPLACEMENT($,#666);
#668=IFCCARTESIANPOINT((0.,0.));
#669=IFCDIRECTION((1.,0.));
#670=IFCAXIS2PLACEMENT2D(#668,#669);
#671=IFCRECTANGLEPROFILEDEF(.AREA.,$,#670,11.,12.);
#672=IFCCARTESIANPOINT((0.,0.,0.));
#673=IFCDIRECTION((0.,0.,1.));
#674=IFCDIRECTION((1.,0.,0.));
#675=IFCAXIS2PLACEMENT3D(#672,#673,#674);
#676=IFCDIRECTION((0.,0.,1.));
#677=IFCEXTRUDEDAREASOLID(#671,#675,#676,0.20000000000000001);
#678=IFCSHAPEREPRESENTATION(#12,'Body','SweptSolid',(#677));
#679=IFCPRODUCTDEFINITIONSHAPE($,$,(#678));
#680=IFCROOF('31ovPXSRz0QwunQBAqsNEM',#6,'roof segment 2',$,$,#667,#679,$,.FLAT_ROOF.);
#681=IFCCARTESIANPOINT((0.90000000000000002,0.080000000000000002,0.050000000000000003));
#682=IFCDIRECTION((0.,0.,1.));
#683=IFCDIRECTION((1.,0.,0.));
#684=IFCAXIS2PLACEMENT3D(#681,#682,#683);
#685=IFCLOCALPLACEMENT($,#684);
#686=IFCCARTESIANPOINT((0.,0.));
#687=IFCDIRECTION((1.,0.));
#688=IFCAXIS2PLACEMENT2D(#686,#687);
#689=IFCRECTANGLEPROFILEDEF(.AREA.,$,#688,0.90000000000000002,0.080000000000000002);
#690=IFCCARTESIANPOINT((0.,0.,0.));
#691=IFCDIRECTION((0.,0.,1.));
#692=IFCDIRECTION((1.,0.,0.));
#693=IFCAXIS2PLACEMENT3D(#690,#691,#692);
#694=IFCDIRECTION((0.,0.,1.));
#695=IFCEXTRUDEDAREASOLID(#689,#693,#694,2.1000000000000001);
#696=IFCSHAPEREPRESENTATION(#12,'Body','SweptSolid',(#695));
#697=IFCPRODUCTDEFINITIONSHAPE($,$,(#696));
#698=IFCDOOR('3NGhu$1JL9Ae2YYyHXkFfs',#6,'door 1',$,$,#685,#697,$,2.1000000000000001,0.90000000000000002,.DOOR.,$,$);
#699=IFCCARTESIANPOINT((3.4249999999999998,11.92,3.4499999999999997));
#700=IFCDIRECTION((0.,0.,1.));
#701=IFCDIRECTION((1.,0.,0.));
#702=IFCAXIS2PLACEMENT3D(#699,#700,#701);
#703=IFCLOCALPLACEMENT($,#702);
#704=IFCCARTESIANPOINT((0.,0.));
#705=IFCDIRECTION((1.,0.));
#706=IFCAXIS2PLACEMENT2D(#704,#705);
#707=IFCRECTANGLEPROFILEDEF(.AREA.,$,#706,0.90000000000000002,0.080000000000000002);
#708=IFCCARTESIANPOINT((0.,0.,0.));
#709=IFCDIRECTION((0.,0.,1.));
#710=IFCDIRECTION((1.,0.,0.));
#711=IFCAXIS2PLACEMENT3D(#708,#709,#710);
#712=IFCDIRECTION((0.,0.,1.));
#713=IFCEXTRUDEDAREASOLID(#707,#711,#712,2.1000000000000001);
#714=IFCSHAPEREPRESENTATION(#12,'Body','SweptSolid',(#713));
#715=IFCPRODUCTDEFINITIONSHAPE($,$,(#714));
#716=IFCDOOR('2U6oHUSDzDfg3XqR$_hfiy',#6,'door 2',$,$,#703,#715,$,2.1000000000000001,0.90000000000000002,.DOOR.,$,$);
#717=IFCCARTESIANPOINT((5.9500000000000002,0.080000000000000002,6.8499999999999996));
#718=IFCDIRECTION((0.,0.,1.));
#719=IFCDIRECTION((1.,0.,0.));
#720=IFCAXIS2PLACEMENT3D(#717,#718,#719);
#721=IFCLOCALPLACEMENT($,#720);
#722=IFCCARTESIANPOINT((0.,0.));
#723=IFCDIRECTION((1.,0.));
#724=IFCAXIS2PLACEMENT2D(#722,#723);
#725=IFCRECTANGLEPROFILEDEF(.AREA.,$,#724,0.90000000000000002,0.080000000000000002);
#726=IFCCARTESIANPOINT((0.,0.,0.));
#727=IFCDIRECTION((0.,0.,1.));
#728=IFCDIRECTION((1.,0.,0.));
#729=IFCAXIS2PLACEMENT3D(#726,#727,#728);
#730=IFCDIRECTION((0.,0.,1.));
#731=IFCEXTRUDEDAREASOLID(#725,#729,#730,2.1000000000000001);
#732=IFCSHAPEREPRESENTATION(#12,'Body','SweptSolid',(#731));
#733=IFCPRODUCTDEFINITIONSHAPE($,$,(#732));
#734=IFCDOOR('1k8z1lBiH9ww0RyacgsVYU',#6,'door 3',$,$,#721,#733,$,2.1000000000000001,0.90000000000000002,.DOOR.,$,$);
#735=IFCCARTESIANPOINT((8.4749999999999996,11.92,0.050000000000000003));
#736=IFCDIRECTION((0.,0.,1.));
#737=IFCDIRECTION((1.,0.,0.));
#738=IFCAXIS2PLACEMENT3D(#735,#736,#737);
#739=IFCLOCALPLACEMENT($,#738);
#740=IFCCARTESIANPOINT((0.,0.));
#741=IFCDIRECTION((1.,0.));
#742=IFCAXIS2PLACEMENT2D(#740,#741);
#743=IFCRECTANGLEPROFILEDEF(.AREA.,$,#742,0.90000000000000002,0.080000000000000002);
#744=IFCCARTESIANPOINT((0.,0.,0.));
#745=IFCDIRECTION((0.,0.,1.));
#746=IFCDIRECTION((1.,0.,0.));
#747=IFCAXIS2PLACEMENT3D(#744,#745,#746);
#748=IFCDIRECTION((0.,0.,1.));
#749=IFCEXTRUDEDAREASOLID(#743,#747,#748,2.1000000000000001);
#750=IFCSHAPEREPRESENTATION(#12,'Body','SweptSolid',(#749));
#751=IFCPRODUCTDEFINITIONSHAPE($,$,(#750));
#752=IFCDOOR('2nYid30l5DNgjPNEe87Yn0',#6,'door 4',$,$,#739,#751,$,2.1000000000000001,0.90000000000000002,.DOOR.,$,$);
#753=IFCCARTESIANPOINT((11.,0.080000000000000002,3.4499999999999997));
#754=IFCDIRECTION((0.,0.,1.));
#755=IFCDIRECTION((1.,0.,0.));
#756=IFCAXIS2PLACEMENT3D(#753,#754,#755);
#757=IFCLOCALPLACEMENT($,#756);
#758=IFCCARTESIANPOINT((0.,0.));
#759=IFCDIRECTION((1.,0.));
#760=IFCAXIS2PLACEMENT2D(#758,#759);
#761=IFCRECTANGLEPROFILEDEF(.AREA.,$,#760,0.90000000000000002,0.080000000000000002);
#762=IFCCARTESIANPOINT((0.,0.,0.));
#763=IFCDIRECTION((0.,0.,1.));
#764=IFCDIRECTION((1.,0.,0.));
#765=IFCAXIS2PLACEMENT3D(#762,#763,#764);
#766=IFCDIRECTION((0.,0.,1.));
#767=IFCEXTRUDEDAREASOLID(#761,#765,#766,2.1000000000000001);
#768=IFCSHAPEREPRESENTATION(#12,'Body','SweptSolid',(#767));
#769=IFCPRODUCTDEFINITIONSHAPE($,$,(#768));
#770=IFCDOOR('3XrM1Uxrn9UuHyAz5$DGnb',#6,'door 5',$,$,#757,#769,$,2.1000000000000001,0.90000000000000002,.DOOR.,$,$);
#771=IFCCARTESIANPOINT((13.525,11.92,6.8499999999999996));
#772=IFCDIRECTION((0.,0.,1.));
#773=IFCDIRECTION((1.,0.,0.));
#774=IFCAXIS2PLACEMENT3D(#771,#772,#773);
#775=IFCLOCALPLACEMENT($,#774);
#776=IFCCARTESIANPOINT((0.,0.));
#777=IFCDIRECTION((1.,0.));
#778=IFCAXIS2PLACEMENT2D(#776,#777);
#779=IFCRECTANGLEPROFILEDEF(.AREA.,$,#778,0.90000000000000002,0.080000000000000002);
#780=IFCCARTESIANPOINT((0.,0.,0.));
#781=IFCDIRECTION((0.,0.,1.));
#782=IFCDIRECTION((1.,0.,0.));
#783=IFCAXIS2PLACEMENT3D(#780,#781,#782);
#784=IFCDIRECTION((0.,0.,1.));
#785=IFCEXTRUDEDAREASOLID(#779,#783,#784,2.1000000000000001);
#786=IFCSHAPEREPRESENTATION(#12,'Body','SweptSolid',(#785));
#787=IFCPRODUCTDEFINITIONSHAPE($,$,(#786));
#788=IFCDOOR('3GAyHYaFr80wAnnuPAotKd',#6,'door 6',$,$,#775,#787,$,2.1000000000000001,0.90000000000000002,.DOOR.,$,$);
#789=IFCCARTESIANPOINT((16.049999999999997,0.080000000000000002,0.050000000000000003));
#790=IFCDIRECTION((0.,0.,1.));
#791=IFCDIRECTION((1.,0.,0.));
#792=IFCAXIS2PLACEMENT3D(#789,#790,#791);
#793=IFCLOCALPLACEMENT($,#792);
#794=IFCCARTESIANPOINT((0.,0.));
#795=IFCDIRECTION((1.,0.));
#796=IFCAXIS2PLACEMENT2D(#794,#795);
#797=IFCRECTANGLEPROFILEDEF(.AREA.,$,#796,0.90000000000000002,0.080000000000000002);
#798=IFCCARTESIANPOINT((0.,0.,0.));
#799=IFCDIRECTION((0.,0.,1.));
#800=IFCDIRECTION((1.,0.,0.));
#801=IFCAXIS2PLACEMENT3D(#798,#799,#800);
#802=IFCDIRECTION((0.,0.,1.));
#803=IFCEXTRUDEDAREASOLID(#797,#801,#802,2.1000000000000001);
#804=IFCSHAPEREPRESENTATION(#12,'Body','SweptSolid',(#803));
#805=IFCPRODUCTDEFINITIONSHAPE($,$,(#804));
#806=IFCDOOR('1fl_KDCwvCNAAwbl7lEZ8_',#6,'door 7',$,$,#793,#805,$,2.1000000000000001,0.90000000000000002,.DOOR.,$,$);
#807=IFCCARTESIANPOINT((18.574999999999999,11.92,3.4499999999999997));
#808=IFCDIRECTION((0.,0.,1.));
#809=IFCDIRECTION((1.,0.,0.));
#810=IFCAXIS2PLACEMENT3D(#807,#808,#809);
#811=IFCLOCALPLACEMENT($,#810);
#812=IFCCARTESIANPOINT((0.,0.));
#813=IFCDIRECTION((1.,0.));
#814=IFCAXIS2PLACEMENT2D(#812,#813);
#815=IFCRECTANGLEPROFILEDEF(.AREA.,$,#814,0.90000000000000002,0.080000000000000002);
#816=IFCCARTESIANPOINT((0.,0.,0.));
#817=IFCDIRECTION((0.,0.,1.));
#818=IFCDIRECTION((1.,0.,0.));
#819=IFCAXIS2PLACEMENT3D(#816,#817,#818);
#820=IFCDIRECTION((0.,0.,1.));
#821=IFCEXTRUDEDAREASOLID(#815,#819,#820,2.1000000000000001);
#822=IFCSHAPEREPRESENTATION(#12,'Body','SweptSolid',(#821));
#823=IFCPRODUCTDEFINITIONSHAPE($,$,(#822));
#824=IFCDOOR('1EOQknrp17ahFWxtquoCst',#6,'door 8',$,$,#811,#823,$,2.1000000000000001,0.90000000000000002,.DOOR.,$,$);
#825=IFCCARTESIANPOINT((0.90000000000000002,0.080000000000000002,6.8499999999999996));
#826=IFCDIRECTION((0.,0.,1.));
#827=IFCDIRECTION((1.,0.,0.));
#828=IFCAXIS2PLACEMENT3D(#825,#826,#827);
#829=IFCLOCALPLACEMENT($,#828);
#830=IFCCARTESIANPOINT((0.,0.));
#831=IFCDIRECTION((1.,0.));
#832=IFCAXIS2PLACEMENT2D(#830,#831);
#833=IFCRECTANGLEPROFILEDEF(.AREA.,$,#832,0.90000000000000002,0.080000000000000002);
#834=IFCCARTESIANPOINT((0.,0.,0.));
#835=IFCDIRECTION((0.,0.,1.));
#836=IFCDIRECTION((1.,0.,0.));
#837=IFCAXIS2PLACEMENT3D(#834,#835,#836);
#838=IFCDIRECTION((0.,0.,1.));
#839=IFCEXTRUDEDAREASOLID(#833,#837,#838,2.1000000000000001);
#840=IFCSHAPEREPRESENTATION(#12,'Body','SweptSolid',(#839));
#841=IFCPRODUCTDEFINITIONSHAPE($,$,(#840));
#842=IFCDOOR('13KG$VssXFafaKytEM65dA',#6,'door 9',$,$,#829,#841,$,2.1000000000000001,0.90000000000000002,.DOOR.,$,$);
#843=IFCCARTESIANPOINT((3.4249999999999998,11.92,0.050000000000000003));
#844=IFCDIRECTION((0.,0.,1.));
#845=IFCDIRECTION((1.,0.,0.));
#846=IFCAXIS2PLACEMENT3D(#843,#844,#845);
#847=IFCLOCALPLACEMENT($,#846);
#848=IFCCARTESIANPOINT((0.,0.));
#849=IFCDIRECTION((1.,0.));
#850=IFCAXIS2PLACEMENT2D(#848,#849);
#851=IFCRECTANGLEPROFILEDEF(.AREA.,$,#850,0.90000000000000002,0.080000000000000002);
#852=IFCCARTESIANPOINT((0.,0.,0.));
#853=IFCDIRECTION((0.,0.,1.));
#854=IFCDIRECTION((1.,0.,0.));
#855=IFCAXIS2PLACEMENT3D(#852,#853,#854);
#856=IFCDIRECTION((0.,0.,1.));
#857=IFCEXTRUDEDAREASOLID(#851,#855,#856,2.1000000000000001);
#858=IFCSHAPEREPRESENTATION(#12,'Body','SweptSolid',(#857));
#859=IFCPRODUCTDEFINITIONSHAPE($,$,(#858));
#860=IFCDOOR('2q3ImFtyL6vP0BGBxOUPz1',#6,'door 10',$,$,#847,#859,$,2.1000000000000001,0.90000000000000002,.DOOR.,$,$);
#861=IFCCARTESIANPOINT((5.9500000000000002,0.080000000000000002,3.4499999999999997));
#862=IFCDIRECTION((0.,0.,1.));
#863=IFCDIRECTION((1.,0.,0.));
#864=IFCAXIS2PLACEMENT3D(#861,#862,#863);
#865=IFCLOCALPLACEMENT($,#864);
#866=IFCCARTESIANPOINT((0.,0.));
#867=IFCDIRECTION((1.,0.));
#868=IFCAXIS2PLACEMENT2D(#866,#867);
#869=IFCRECTANGLEPROFILEDEF(.AREA.,$,#868,0.90000000000000002,0.080000000000000002);
#870=IFCCARTESIANPOINT((0.,0.,0.));
#871=IFCDIRECTION((0.,0.,1.));
#872=IFCDIRECTION((1.,0.,0.));
#873=IFCAXIS2PLACEMENT3D(#870,#871,#872);
#874=IFCDIRECTION((0.,0.,1.));
#875=IFCEXTRUDEDAREASOLID(#869,#873,#874,2.1000000000000001);
#876=IFCSHAPEREPRESENTATION(#12,'Body','SweptSolid',(#875));
#877=IFCPRODUCTDEFINITIONSHAPE($,$,(#876));
#878=IFCDOOR('2px1xH$Jf5oxbYi_tQUbM1',#6,'door 11',$,$,#865,#877,$,2.1000000000000001,0.90000000000000002,.DOOR.,$,$);
#879=IFCCARTESIANPOINT((8.4749999999999996,11.92,6.8499999999999996));
#880=IFCDIRECTION((0.,0.,1.));
#881=IFCDIRECTION((1.,0.,0.));
#882=IFCAXIS2PLACEMENT3D(#879,#880,#881);
#883=IFCLOCALPLACEMENT($,#882);
#884=IFCCARTESIANPOINT((0.,0.));
#885=IFCDIRECTION((1.,0.));
#886=IFCAXIS2PLACEMENT2D(#884,#885);
#887=IFCRECTANGLEPROFILEDEF(.AREA.,$,#886,0.90000000000000002,0.080000000000000002);
#888=IFCCARTESIANPOINT((0.,0.,0.));
#889=IFCDIRECTION((0.,0.,1.));
#890=IFCDIRECTION((1.,0.,0.));
#891=IFCAXIS2PLACEMENT3D(#888,#889,#890);
#892=IFCDIRECTION((0.,0.,1.));
#893=IFCEXTRUDEDAREASOLID(#887,#891,#892,2.1000000000000001);
#894=IFCSHAPEREPRESENTATION(#12,'Body','SweptSolid',(#893));
#895=IFCPRODUCTDEFINITIONSHAPE($,$,(#894));
#896=IFCDOOR('1xEH3Osd9EgA_Krwtcamiz',#6,'door 12',$,$,#883,#895,$,2.1000000000000001,0.90000000000000002,.DOOR.,$,$);
#897=IFCCARTESIANPOINT((11.,0.080000000000000002,0.050000000000000003));
#898=IFCDIRECTION((0.,0.,1.));
#899=IFCDIRECTION((1.,0.,0.));
#900=IFCAXIS2PLACEMENT3D(#897,#898,#899);
#901=IFCLOCALPLACEMENT($,#900);
#902=IFCCARTESIANPOINT((0.,0.));
#903=IFCDIRECTION((1.,0.));
#904=IFCAXIS2PLACEMENT2D(#902,#903);
#905=IFCRECTANGLEPROFILEDEF(.AREA.,$,#904,0.90000000000000002,0.080000000000000002);
#906=IFCCARTESIANPOINT((0.,0.,0.));
#907=IFCDIRECTION((0.,0.,1.));
#908=IFCDIRECTION((1.,0.,0.));
#909=IFCAXIS2PLACEMENT3D(#906,#907,#908);
#910=IFCDIRECTION((0.,0.,1.));
#911=IFCEXTRUDEDAREASOLID(#905,#909,#910,2.1000000000000001);
#912=IFCSHAPEREPRESENTATION(#12,'Body','SweptSolid',(#911));
#913=IFCPRODUCTDEFINITIONSHAPE($,$,(#912));
#914=IFCDOOR('2oodI5BvH2GvbD8L7D7VkH',#6,'door 13',$,$,#901,#913,$,2.1000000000000001,0.90000000000000002,.DOOR.,$,$);
#915=IFCCARTESIANPOINT((13.525,11.92,3.4499999999999997));
#916=IFCDIRECTION((0.,0.,1.));
#917=IFCDIRECTION((1.,0.,0.));
#918=IFCAXIS2PLACEMENT3D(#915,#916,#917);
#919=IFCLOCALPLACEMENT($,#918);
#920=IFCCARTESIANPOINT((0.,0.));
#921=IFCDIRECTION((1.,0.));
#922=IFCAXIS2PLACEMENT2D(#920,#921);
#923=IFCRECTANGLEPROFILEDEF(.AREA.,$,#922,0.90000000000000002,0.080000000000000002);
#924=IFCCARTESIANPOINT((0.,0.,0.));
#925=IFCDIRECTION((0.,0.,1.));
#926=IFCDIRECTION((1.,0.,0.));
#927=IFCAXIS2PLACEMENT3D(#924,#925,#926);
#928=IFCDIRECTION((0.,0.,1.));
#929=IFCEXTRUDEDAREASOLID(#923,#927,#928,2.1000000000000001);
#930=IFCSHAPEREPRESENTATION(#12,'Body','SweptSolid',(#929));
#931=IFCPRODUCTDEFINITIONSHAPE($,$,(#930));
#932=IFCDOOR('1xRZg_ym13UPnOvnrFYr79',#6,'door 14',$,$,#919,#931,$,2.1000000000000001,0.90000000000000002,.DOOR.,$,$);
#933=IFCCARTESIANPOINT((16.049999999999997,0.080000000000000002,6.8499999999999996));
#934=IFCDIRECTION((0.,0.,1.));
#935=IFCDIRECTION((1.,0.,0.));
#936=IFCAXIS2PLACEMENT3D(#933,#934,#935);
#937=IFCLOCALPLACEMENT($,#936);
#938=IFCCARTESIANPOINT((0.,0.));
#939=IFCDIRECTION((1.,0.));
#940=IFCAXIS2PLACEMENT2D(#938,#939);
#941=IFCRECTANGLEPROFILEDEF(.AREA.,$,#940,0.90000000000000002,0.080000000000000002);
#942=IFCCARTESIANPOINT((0.,0.,0.));
#943=IFCDIRECTION((0.,0.,1.));
#944=IFCDIRECTION((1.,0.,0.));
#945=IFCAXIS2PLACEMENT3D(#942,#943,#944);
#946=IFCDIRECTION((0.,0.,1.));
#947=IFCEXTRUDEDAREASOLID(#941,#945,#946,2.1000000000000001);
#948=IFCSHAPEREPRESENTATION(#12,'Body','SweptSolid',(#947));
#949=IFCPRODUCTDEFINITIONSHAPE($,$,(#948));
#950=IFCDOOR('1m6Eq$4XL2rAH7LIAv_bTd',#6,'door 15',$,$,#937,#949,$,2.1000000000000001,0.90000000000000002,.DOOR.,$,$);
#951=IFCCARTESIANPOINT((1.,11.93,1.2));
#952=IFCDIRECTION((0.,0.,1.));
#953=IFCDIRECTION((1.,0.,0.));
#954=IFCAXIS2PLACEMENT3D(#951,#952,#953);
#955=IFCLOCALPLACEMENT($,#954);
#956=IFCCARTESIANPOINT((0.,0.));
#957=IFCDIRECTION((1.,0.));
#958=IFCAXIS2PLACEMENT2D(#956,#957);
#959=IFCRECTANGLEPROFILEDEF(.AREA.,$,#958,1.2,0.059999999999999998);
#960=IFCCARTESIANPOINT((0.,0.,0.));
#961=IFCDIRECTION((0.,0.,1.));
#962=IFCDIRECTION((1.,0.,0.));
#963=IFCAXIS2PLACEMENT3D(#960,#961,#962);
#964=IFCDIRECTION((0.,0.,1.));
#965=IFCEXTRUDEDAREASOLID(#959,#963,#964,1.1000000000000001);
#966=IFCSHAPEREPRESENTATION(#12,'Body','SweptSolid',(#965));
#967=IFCPRODUCTDEFINITIONSHAPE($,$,(#966));
#968=IFCWINDOW('1$ktxirFH2_uldnK3o2ulQ',#6,'window 1',$,$,#955,#967,$,1.1000000000000001,1.2,.WINDOW.,$,$);
#969=IFCCARTESIANPOINT((3.,0.070000000000000007,4.5999999999999996));
#970=IFCDIRECTION((0.,0.,1.));
#971=IFCDIRECTION((1.,0.,0.));
#972=IFCAXIS2PLACEMENT3D(#969,#970,#971);
#973=IFCLOCALPLACEMENT($,#972);
#974=IFCCARTESIANPOINT((0.,0.));
#975=IFCDIRECTION((1.,0.));
#976=IFCAXIS2PLACEMENT2D(#974,#975);
#977=IFCRECTANGLEPROFILEDEF(.AREA.,$,#976,1.2,0.059999999999999998);
#978=IFCCARTESIANPOINT((0.,0.,0.));
#979=IFCDIRECTION((0.,0.,1.));
#980=IFCDIRECTION((1.,0.,0.));
#981=IFCAXIS2PLACEMENT3D(#978,#979,#980);
#982=IFCDIRECTION((0.,0.,1.));
#983=IFCEXTRUDEDAREASOLID(#977,#981,#982,1.1000000000000001);
#984=IFCSHAPEREPRESENTATION(#12,'Body','SweptSolid',(#983));
#985=IFCPRODUCTDEFINITIONSHAPE($,$,(#984));
#986=IFCWINDOW('3LozWYV8fBsvdA6Ab8BNhL',#6,'window 2',$,$,#973,#985,$,1.1000000000000001,1.2,.WINDOW.,$,$);
#987=IFCCARTESIANPOINT((5.,11.93,8.));
#988=IFCDIRECTION((0.,0.,1.));
#989=IFCDIRECTION((1.,0.,0.));
#990=IFCAXIS2PLACEMENT3D(#987,#988,#989);
#991=IFCLOCALPLACEMENT($,#990);
#992=IFCCARTESIANPOINT((0.,0.));
#993=IFCDIRECTION((1.,0.));
#994=IFCAXIS2PLACEMENT2D(#992,#993);
#995=IFCRECTANGLEPROFILEDEF(.AREA.,$,#994,1.2,0.059999999999999998);
#996=IFCCARTESIANPOINT((0.,0.,0.));
#997=IFCDIRECTION((0.,0.,1.));
#998=IFCDIRECTION((1.,0.,0.));
#999=IFCAXIS2PLACEMENT3D(#996,#997,#998);
#1000=IFCDIRECTION((0.,0.,1.));
#1001=IFCEXTRUDEDAREASOLID(#995,#999,#1000,1.1000000000000001);
#1002=IFCSHAPEREPRESENTATION(#12,'Body','SweptSolid',(#1001));
#1003=IFCPRODUCTDEFINITIONSHAPE($,$,(#1002));
#1004=IFCWINDOW('1nM3fv$6DEyQljHPrDFi2_',#6,'window 3',$,$,#991,#1003,$,1.1000000000000001,1.2,.WINDOW.,$,$);
#1005=IFCCARTESIANPOINT((7.,0.070000000000000007,1.2));
#1006=IFCDIRECTION((0.,0.,1.));
#1007=IFCDIRECTION((1.,0.,0.));
#1008=IFCAXIS2PLACEMENT3D(#1005,#1006,#1007);
#1009=IFCLOCALPLACEMENT($,#1008);
#1010=IFCCARTESIANPOINT((0.,0.));
#1011=IFCDIRECTION((1.,0.));
#1012=IFCAXIS2PLACEMENT2D(#1010,#1011);
#1013=IFCRECTANGLEPROFILEDEF(.AREA.,$,#1012,1.2,0.059999999999999998);
#1014=IFCCARTESIANPOINT((0.,0.,0.));
#1015=IFCDIRECTION((0.,0.,1.));
#1016=IFCDIRECTION((1.,0.,0.));
#1017=IFCAXIS2PLACEMENT3D(#1014,#1015,#1016);
#1018=IFCDIRECTION((0.,0.,1.));
#1019=IFCEXTRUDEDAREASOLID(#1013,#1017,#1018,1.1000000000000001);
#1020=IFCSHAPEREPRESENTATION(#12,'Body','SweptSolid',(#1019));
#1021=IFCPRODUCTDEFINITIONSHAPE($,$,(#1020));
#1022=IFCWINDOW('02HM7Q32P7J8he0jOfdznF',#6,'window 4',$,$,#1009,#1021,$,1.1000000000000001,1.2,.WINDOW.,$,$);
#1023=IFCCARTESIANPOINT((9.,11.93,4.5999999999999996));
#1024=IFCDIRECTION((0.,0.,1.));
#1025=IFCDIRECTION((1.,0.,0.));
#1026=IFCAXIS2PLACEMENT3D(#1023,#1024,#1025);
#1027=IFCLOCALPLACEMENT($,#1026);
#1028=IFCCARTESIANPOINT((0.,0.));
#1029=IFCDIRECTION((1.,0.));
#1030=IFCAXIS2PLACEMENT2D(#1028,#1029);
#1031=IFCRECTANGLEPROFILEDEF(.AREA.,$,#1030,1.2,0.059999999999999998);
#1032=IFCCARTESIANPOINT((0.,0.,0.));
#1033=IFCDIRECTION((0.,0.,1.));
#1034=IFCDIRECTION((1.,0.,0.));
#1035=IFCAXIS2PLACEMENT3D(#1032,#1033,#1034);
#1036=IFCDIRECTION((0.,0.,1.));
#1037=IFCEXTRUDEDAREASOLID(#1031,#1035,#1036,1.1000000000000001);
#1038=IFCSHAPEREPRESENTATION(#12,'Body','SweptSolid',(#1037));
#1039=IFCPRODUCTDEFINITIONSHAPE($,$,(#1038));
#1040=IFCWINDOW('0MD6vSKHL2Mvr9wV_lWZCn',#6,'window 5',$,$,#1027,#1039,$,1.1000000000000001,1.2,.WINDOW.,$,$);
#1041=IFCCARTESIANPOINT((11.,0.070000000000000007,8.));
#1042=IFCDIRECTION((0.,0.,1.));
#1043=IFCDIRECTION((1.,0.,0.));
#1044=IFCAXIS2PLACEMENT3D(#1041,#1042,#1043);
#1045=IFCLOCALPLACEMENT($,#1044);
#1046=IFCCARTESIANPOINT((0.,0.));
#1047=IFCDIRECTION((1.,0.));
#1048=IFCAXIS2PLACEMENT2D(#1046,#1047);
#1049=IFCRECTANGLEPROFILEDEF(.AREA.,$,#1048,1.2,0.059999999999999998);
#1050=IFCCARTESIANPOINT((0.,0.,0.));
#1051=IFCDIRECTION((0.,0.,1.));
#1052=IFCDIRECTION((1.,0.,0.));
#1053=IFCAXIS2PLACEMENT3D(#1050,#1051,#1052);
#1054=IFCDIRECTION((0.,0.,1.));
#1055=IFCEXTRUDEDAREASOLID(#1049,#1053,#1054,1.1000000000000001);
#1056=IFCSHAPEREPRESENTATION(#12,'Body','SweptSolid',(#1055));
#1057=IFCPRODUCTDEFINITIONSHAPE($,$,(#1056));
#1058=IFCWINDOW('16p5EnD_z4qeJjGJmQPsJS',#6,'window 6',$,$,#1045,#1057,$,1.1000000000000001,1.2,.WINDOW.,$,$);
#1059=IFCCARTESIANPOINT((13.,11.93,1.2));
#1060=IFCDIRECTION((0.,0.,1.));
#1061=IFCDIRECTION((1.,0.,0.));
#1062=IFCAXIS2PLACEMENT3D(#1059,#1060,#1061);
#1063=IFCLOCALPLACEMENT($,#1062);
#1064=IFCCARTESIANPOINT((0.,0.));
#1065=IFCDIRECTION((1.,0.));
#1066=IFCAXIS2PLACEMENT2D(#1064,#1065);
#1067=IFCRECTANGLEPROFILEDEF(.AREA.,$,#1066,1.2,0.059999999999999998);
#1068=IFCCARTESIANPOINT((0.,0.,0.));
#1069=IFCDIRECTION((0.,0.,1.));
#1070=IFCDIRECTION((1.,0.,0.));
#1071=IFCAXIS2PLACEMENT3D(#1068,#1069,#1070);
#1072=IFCDIRECTION((0.,0.,1.));
#1073=IFCEXTRUDEDAREASOLID(#1067,#1071,#1072,1.1000000000000001);
#1074=IFCSHAPEREPRESENTATION(#12,'Body','SweptSolid',(#1073));
#1075=IFCPRODUCTDEFINITIONSHAPE($,$,(#1074));
#1076=IFCWINDOW('3YVG67n3rCmvGZcu4RLRDf',#6,'window 7',$,$,#1063,#1075,$,1.1000000000000001,1.2,.WINDOW.,$,$);
#1077=IFCCARTESIANPOINT((15.,0.070000000000000007,4.5999999999999996));
#1078=IFCDIRECTION((0.,0.,1.));
#1079=IFCDIRECTION((1.,0.,0.));
#1080=IFCAXIS2PLACEMENT3D(#1077,#1078,#1079);
#1081=IFCLOCALPLACEMENT($,#1080);
#1082=IFCCARTESIANPOINT((0.,0.));
#1083=IFCDIRECTION((1.,0.));
#1084=IFCAXIS2PLACEMENT2D(#1082,#1083);
#1085=IFCRECTANGLEPROFILEDEF(.AREA.,$,#1084,1.2,0.059999999999999998);
#1086=IFCCARTESIANPOINT((0.,0.,0.));
#1087=IFCDIRECTION((0.,0.,1.));
#1088=IFCDIRECTION((1.,0.,0.));
#1089=IFCAXIS2PLACEMENT3D(#1086,#1087,#1088);
#1090=IFCDIRECTION((0.,0.,1.));
#1091=IFCEXTRUDEDAREASOLID(#1085,#1089,#1090,1.1000000000000001);
#1092=IFCSHAPEREPRESENTATION(#12,'Body','SweptSolid',(#1091));
#1093=IFCPRODUCTDEFINITIONSHAPE($,$,(#1092));
#1094=IFCWINDOW('1$Z5d0LeL3rg$Ex7buiiFs',#6,'window 8',$,$,#1081,#1093,$,1.1000000000000001,1.2,.WINDOW.,$,$);
#1095=IFCCARTESIANPOINT((17.,11.93,8.));
#1096=IFCDIRECTION((0.,0.,1.));
#1097=IFCDIRECTION((1.,0.,0.));
#1098=IFCAXIS2PLACEMENT3D(#1095,#1096,#1097);
#1099=IFCLOCALPLACEMENT($,#1098);
#1100=IFCCARTESIANPOINT((0.,0.));
#1101=IFCDIRECTION((1.,0.));
#1102=IFCAXIS2PLACEMENT2D(#1100,#1101);
#1103=IFCRECTANGLEPROFILEDEF(.AREA.,$,#1102,1.2,0.059999999999999998);
#1104=IFCCARTESIANPOINT((0.,0.,0.));
#1105=IFCDIRECTION((0.,0.,1.));
#1106=IFCDIRECTION((1.,0.,0.));
#1107=IFCAXIS2PLACEMENT3D(#1104,#1105,#1106);
#1108=IFCDIRECTION((0.,0.,1.));
#1109=IFCEXTRUDEDAREASOLID(#1103,#1107,#1108,1.1000000000000001);
#1110=IFCSHAPEREPRESENTATION(#12,'Body','SweptSolid',(#1109));
#1111=IFCPRODUCTDEFINITIONSHAPE($,$,(#1110));
#1112=IFCWINDOW('2r0vrkZOb3P9atmV0AcPpT',#6,'window 9',$,$,#1099,#1111,$,1.1000000000000001,1.2,.WINDOW.,$,$);
#1113=IFCCARTESIANPOINT((19.,0.070000000000000007,1.2));
#1114=IFCDIRECTION((0.,0.,1.));
#1115=IFCDIRECTION((1.,0.,0.));
#1116=IFCAXIS2PLACEMENT3D(#1113,#1114,#1115);
#1117=IFCLOCALPLACEMENT($,#1116);
#1118=IFCCARTESIANPOINT((0.,0.));
#1119=IFCDIRECTION((1.,0.));
#1120=IFCAXIS2PLACEMENT2D(#1118,#1119);
#1121=IFCRECTANGLEPROFILEDEF(.AREA.,$,#1120,1.2,0.059999999999999998);
#1122=IFCCARTESIANPOINT((0.,0.,0.));
#1123=IFCDIRECTION((0.,0.,1.));
#1124=IFCDIRECTION((1.,0.,0.));
#1125=IFCAXIS2PLACEMENT3D(#1122,#1123,#1124);
#1126=IFCDIRECTION((0.,0.,1.));
#1127=IFCEXTRUDEDAREASOLID(#1121,#1125,#1126,1.1000000000000001);
#1128=IFCSHAPEREPRESENTATION(#12,'Body','SweptSolid',(#1127));
#1129=IFCPRODUCTDEFINITIONSHAPE($,$,(#1128));
#1130=IFCWINDOW('2Cerk63jT4pu61cuxq2Jbm',#6,'window 10',$,$,#1117,#1129,$,1.1000000000000001,1.2,.WINDOW.,$,$);
#1131=IFCCARTESIANPOINT((1.,11.93,4.5999999999999996));
#1132=IFCDIRECTION((0.,0.,1.));
#1133=IFCDIRECTION((1.,0.,0.));
#1134=IFCAXIS2PLACEMENT3D(#1131,#1132,#1133);
#1135=IFCLOCALPLACEMENT($,#1134);
#1136=IFCCARTESIANPOINT((0.,0.));
#1137=IFCDIRECTION((1.,0.));
#1138=IFCAXIS2PLACEMENT2D(#1136,#1137);
#1139=IFCRECTANGLEPROFILEDEF(.AREA.,$,#1138,1.2,0.059999999999999998);
#1140=IFCCARTESIANPOINT((0.,0.,0.));
#1141=IFCDIRECTION((0.,0.,1.));
#1142=IFCDIRECTION((1.,0.,0.));
#1143=IFCAXIS2PLACEMENT3D(#1140,#1141,#1142);
#1144=IFCDIRECTION((0.,0.,1.));
#1145=IFCEXTRUDEDAREASOLID(#1139,#1143,#1144,1.1000000000000001);
#1146=IFCSHAPEREPRESENTATION(#12,'Body','SweptSolid',(#1145));
#1147=IFCPRODUCTDEFINITIONSHAPE($,$,(#1146));
#1148=IFCWINDOW('0Z_Xntopb8EB9is71XsUUW',#6,'window 11',$,$,#1135,#1147,$,1.1000000000000001,1.2,.WINDOW.,$,$);
#1149=IFCCARTESIANPOINT((3.,0.070000000000000007,8.));
#1150=IFCDIRECTION((0.,0.,1.));
#1151=IFCDIRECTION((1.,0.,0.));
#1152=IFCAXIS2PLACEMENT3D(#1149,#1150,#1151);
#1153=IFCLOCALPLACEMENT($,#1152);
#1154=IFCCARTESIANPOINT((0.,0.));
#1155=IFCDIRECTION((1.,0.));
#1156=IFCAXIS2PLACEMENT2D(#1154,#1155);
#1157=IFCRECTANGLEPROFILEDEF(.AREA.,$,#1156,1.2,0.059999999999999998);
#1158=IFCCARTESIANPOINT((0.,0.,0.));
#1159=IFCDIRECTION((0.,0.,1.));
#1160=IFCDIRECTION((1.,0.,0.));
#1161=IFCAXIS2PLACEMENT3D(#1158,#1159,#1160);
#1162=IFCDIRECTION((0.,0.,1.));
#1163=IFCEXTRUDEDAREASOLID(#1157,#1161,#1162,1.1000000000000001);
#1164=IFCSHAPEREPRESENTATION(#12,'Body','SweptSolid',(#1163));
#1165=IFCPRODUCTDEFINITIONSHAPE($,$,(#1164));
#1166=IFCWINDOW('1hf9JWLkXEOwYPIWUhEaC7',#6,'window 12',$,$,#1153,#1165,$,1.1000000000000001,1.2,.WINDOW.,$,$);
#1167=IFCCARTESIANPOINT((5.,11.93,1.2));
#1168=IFCDIRECTION((0.,0.,1.));
#1169=IFCDIRECTION((1.,0.,0.));
#1170=IFCAXIS2PLACEMENT3D(#1167,#1168,#1169);
#1171=IFCLOCALPLACEMENT($,#1170);
#1172=IFCCARTESIANPOINT((0.,0.));
#1173=IFCDIRECTION((1.,0.));
#1174=IFCAXIS2PLACEMENT2D(#1172,#1173);
#1175=IFCRECTANGLEPROFILEDEF(.AREA.,$,#1174,1.2,0.059999999999999998);
#1176=IFCCARTESIANPOINT((0.,0.,0.));
#1177=IFCDIRECTION((0.,0.,1.));
#1178=IFCDIRECTION((1.,0.,0.));
#1179=IFCAXIS2PLACEMENT3D(#1176,#1177,#1178);
#1180=IFCDIRECTION((0.,0.,1.));
#1181=IFCEXTRUDEDAREASOLID(#1175,#1179,#1180,1.1000000000000001);
#1182=IFCSHAPEREPRESENTATION(#12,'Body','SweptSolid',(#1181));
#1183=IFCPRODUCTDEFINITIONSHAPE($,$,(#1182));
#1184=IFCWINDOW('3JNlZ$b5P10A4tER4GEIQj',#6,'window 13',$,$,#1171,#1183,$,1.1000000000000001,1.2,.WINDOW.,$,$);
#1185=IFCCARTESIANPOINT((7.,0.070000000000000007,4.5999999999999996));
#1186=IFCDIRECTION((0.,0.,1.));
#1187=IFCDIRECTION((1.,0.,0.));
#1188=IFCAXIS2PLACEMENT3D(#1185,#1186,#1187);
#1189=IFCLOCALPLACEMENT($,#1188);
#1190=IFCCARTESIANPOINT((0.,0.));
#1191=IFCDIRECTION((1.,0.));
#1192=IFCAXIS2PLACEMENT2D(#1190,#1191);
#1193=IFCRECTANGLEPROFILEDEF(.AREA.,$,#1192,1.2,0.059999999999999998);
#1194=IFCCARTESIANPOINT((0.,0.,0.));
#1195=IFCDIRECTION((0.,0.,1.));
#1196=IFCDIRECTION((1.,0.,0.));
#1197=IFCAXIS2PLACEMENT3D(#1194,#1195,#1196);
#1198=IFCDIRECTION((0.,0.,1.));
#1199=IFCEXTRUDEDAREASOLID(#1193,#1197,#1198,1.1000000000000001);
#1200=IFCSHAPEREPRESENTATION(#12,'Body','SweptSolid',(#1199));
#1201=IFCPRODUCTDEFINITIONSHAPE($,$,(#1200));
#1202=IFCWINDOW('3KzUiP7Pf5uu44sK4Sr76L',#6,'window 14',$,$,#1189,#1201,$,1.1000000000000001,1.2,.WINDOW.,$,$);
#1203=IFCCARTESIANPOINT((9.,11.93,8.));
#1204=IFCDIRECTION((0.,0.,1.));
#1205=IFCDIRECTION((1.,0.,0.));
#1206=IFCAXIS2PLACEMENT3D(#1203,#1204,#1205);
#1207=IFCLOCALPLACEMENT($,#1206);
#1208=IFCCARTESIANPOINT((0.,0.));
#1209=IFCDIRECTION((1.,0.));
#1210=IFCAXIS2PLACEMENT2D(#1208,#1209);
#1211=IFCRECTANGLEPROFILEDEF(.AREA.,$,#1210,1.2,0.059999999999999998);
#1212=IFCCARTESIANPOINT((0.,0.,0.));
#1213=IFCDIRECTION((0.,0.,1.));
#1214=IFCDIRECTION((1.,0.,0.));
#1215=IFCAXIS2PLACEMENT3D(#1212,#1213,#1214);
#1216=IFCDIRECTION((0.,0.,1.));
#1217=IFCEXTRUDEDAREASOLID(#1211,#1215,#1216,1.1000000000000001);
#1218=IFCSHAPEREPRESENTATION(#12,'Body','SweptSolid',(#1217));
#1219=IFCPRODUCTDEFINITIONSHAPE($,$,(#1218));
#1220=IFCWINDOW('2mkss4_Yj3Ae1huu6GaK8c',#6,'window 15',$,$,#1207,#1219,$,1.1000000000000001,1.2,.WINDOW.,$,$);
#1221=IFCCARTESIANPOINT((11.,0.070000000000000007,1.2));
#1222=IFCDIRECTION((0.,0.,1.));
#1223=IFCDIRECTION((1.,0.,0.));
#1224=IFCAXIS2PLACEMENT3D(#1221,#1222,#1223);
#1225=IFCLOCALPLACEMENT($,#1224);
#1226=IFCCARTESIANPOINT((0.,0.));
#1227=IFCDIRECTION((1.,0.));
#1228=IFCAXIS2PLACEMENT2D(#1226,#1227);
#1229=IFCRECTANGLEPROFILEDEF(.AREA.,$,#1228,1.2,0.059999999999999998);
#1230=IFCCARTESIANPOINT((0.,0.,0.));
#1231=IFCDIRECTION((0.,0.,1.));
#1232=IFCDIRECTION((1.,0.,0.));
#1233=IFCAXIS2PLACEMENT3D(#1230,#1231,#1232);
#1234=IFCDIRECTION((0.,0.,1.));
#1235=IFCEXTRUDEDAREASOLID(#1229,#1233,#1234,1.1000000000000001);
#1236=IFCSHAPEREPRESENTATION(#12,'Body','SweptSolid',(#1235));
#1237=IFCPRODUCTDEFINITIONSHAPE($,$,(#1236));
#1238=IFCWINDOW('3QzuVUtPb7s9n2cWioYf0L',#6,'window 16',$,$,#1225,#1237,$,1.1000000000000001,1.2,.WINDOW.,$,$);
#1239=IFCCARTESIANPOINT((13.,11.93,4.5999999999999996));
#1240=IFCDIRECTION((0.,0.,1.));
#1241=IFCDIRECTION((1.,0.,0.));
#1242=IFCAXIS2PLACEMENT3D(#1239,#1240,#1241);
#1243=IFCLOCALPLACEMENT($,#1242);
#1244=IFCCARTESIANPOINT((0.,0.));
#1245=IFCDIRECTION((1.,0.));
#1246=IFCAXIS2PLACEMENT2D(#1244,#1245);
#1247=IFCRECTANGLEPROFILEDEF(.AREA.,$,#1246,1.2,0.059999999999999998);
#1248=IFCCARTESIANPOINT((0.,0.,0.));
#1249=IFCDIRECTION((0.,0.,1.));
#1250=IFCDIRECTION((1.,0.,0.));
#1251=IFCAXIS2PLACEMENT3D(#1248,#1249,#1250);
#1252=IFCDIRECTION((0.,0.,1.));
#1253=IFCEXTRUDEDAREASOLID(#1247,#1251,#1252,1.1000000000000001);
#1254=IFCSHAPEREPRESENTATION(#12,'Body','SweptSolid',(#1253));
#1255=IFCPRODUCTDEFINITIONSHAPE($,$,(#1254));
#1256=IFCWINDOW('1pxX6zqSrCB9RsFAD0o__X',#6,'window 17',$,$,#1243,#1255,$,1.1000000000000001,1.2,.WINDOW.,$,$);
#1257=IFCCARTESIANPOINT((15.,0.070000000000000007,8.));
#1258=IFCDIRECTION((0.,0.,1.));
#1259=IFCDIRECTION((1.,0.,0.));
#1260=IFCAXIS2PLACEMENT3D(#1257,#1258,#1259);
#1261=IFCLOCALPLACEMENT($,#1260);
#1262=IFCCARTESIANPOINT((0.,0.));
#1263=IFCDIRECTION((1.,0.));
#1264=IFCAXIS2PLACEMENT2D(#1262,#1263);
#1265=IFCRECTANGLEPROFILEDEF(.AREA.,$,#1264,1.2,0.059999999999999998);
#1266=IFCCARTESIANPOINT((0.,0.,0.));
#1267=IFCDIRECTION((0.,0.,1.));
#1268=IFCDIRECTION((1.,0.,0.));
#1269=IFCAXIS2PLACEMENT3D(#1266,#1267,#1268);
#1270=IFCDIRECTION((0.,0.,1.));
#1271=IFCEXTRUDEDAREASOLID(#1265,#1269,#1270,1.1000000000000001);
#1272=IFCSHAPEREPRESENTATION(#12,'Body','SweptSolid',(#1271));
#1273=IFCPRODUCTDEFINITIONSHAPE($,$,(#1272));
#1274=IFCWINDOW('2DxgBbOKL939TXEkISeacy',#6,'window 18',$,$,#1261,#1273,$,1.1000000000000001,1.2,.WINDOW.,$,$);
#1275=IFCCARTESIANPOINT((20.,2.,0.050000000000000003));
#1276=IFCDIRECTION((0.,0.,1.));
#1277=IFCDIRECTION((1.,0.,0.));
#1278=IFCAXIS2PLACEMENT3D(#1275,#1276,#1277);
#1279=IFCLOCALPLACEMENT($,#1278);
#1280=IFCCARTESIANPOINT((0.,0.));
#1281=IFCDIRECTION((1.,0.));
#1282=IFCAXIS2PLACEMENT2D(#1280,#1281);
#1283=IFCRECTANGLEPROFILEDEF(.AREA.,$,#1282,2.,3.);
#1284=IFCCARTESIANPOINT((0.,0.,0.));
#1285=IFCDIRECTION((0.,0.,1.));
#1286=IFCDIRECTION((1.,0.,0.));
#1287=IFCAXIS2PLACEMENT3D(#1284,#1285,#1286);
#1288=IFCDIRECTION((0.,0.,1.));
#1289=IFCEXTRUDEDAREASOLID(#1283,#1287,#1288,3.2000000000000002);
#1290=IFCSHAPEREPRESENTATION(#12,'Body','SweptSolid',(#1289));
#1291=IFCPRODUCTDEFINITIONSHAPE($,$,(#1290));
#1292=IFCSTAIR('2nF$9zggHBWg9HBsdCRcnm',#6,'stair 1',$,$,#1279,#1291,$,.STRAIGHT_RUN_STAIR.);
#1293=IFCCARTESIANPOINT((19.,3.,3.4499999999999997));
#1294=IFCDIRECTION((0.,0.,1.));
#1295=IFCDIRECTION((1.,0.,0.));
#1296=IFCAXIS2PLACEMENT3D(#1293,#1294,#1295);
#1297=IFCLOCALPLACEMENT($,#1296);
#1298=IFCCARTESIANPOINT((0.,0.));
#1299=IFCDIRECTION((1.,0.));
#1300=IFCAXIS2PLACEMENT2D(#1298,#1299);
#1301=IFCRECTANGLEPROFILEDEF(.AREA.,$,#1300,2.,3.);
#1302=IFCCARTESIANPOINT((0.,0.,0.));
#1303=IFCDIRECTION((0.,0.,1.));
#1304=IFCDIRECTION((1.,0.,0.));
#1305=IFCAXIS2PLACEMENT3D(#1302,#1303,#1304);
#1306=IFCDIRECTION((0.,0.,1.));
#1307=IFCEXTRUDEDAREASOLID(#1301,#1305,#1306,3.2000000000000002);
#1308=IFCSHAPEREPRESENTATION(#12,'Body','SweptSolid',(#1307));
#1309=IFCPRODUCTDEFINITIONSHAPE($,$,(#1308));
#1310=IFCSTAIR('2EznZ9chT6zumOoGGC2zPJ',#6,'stair 2',$,$,#1297,#1309,$,.STRAIGHT_RUN_STAIR.);
#1311=IFCCARTESIANPOINT((3.2250000000000001,1.9750000000000001,0.050000000000000003));
#1312=IFCDIRECTION((0.,0.,1.));
#1313=IFCDIRECTION((1.,0.,0.));
#1314=IFCAXIS2PLACEMENT3D(#1311,#1312,#1313);
#1315=IFCLOCALPLACEMENT($,#1314);
#1316=IFCCARTESIANPOINT((0.,0.));
#1317=IFCDIRECTION((1.,0.));
#1318=IFCAXIS2PLACEMENT2D(#1316,#1317);
#1319=IFCRECTANGLEPROFILEDEF(.AREA.,$,#1318,3.9375,2.0625);
#1320=IFCCARTESIANPOINT((0.,0.,0.));
#1321=IFCDIRECTION((0.,0.,1.));
#1322=IFCDIRECTION((1.,0.,0.));
#1323=IFCAXIS2PLACEMENT3D(#1320,#1321,#1322);
#1324=IFCDIRECTION((0.,0.,1.));
#1325=IFCEXTRUDEDAREASOLID(#1319,#1323,#1324,2.9499999999999997);
#1326=IFCSHAPEREPRESENTATION(#12,'Body','SweptSolid',(#1325));
#1327=IFCPRODUCTDEFINITIONSHAPE($,$,(#1326));
#1328=IFCSPACE('3ozWyGo0nACBRydzwYGw4d',#6,'LOBBY',$,$,#1315,#1327,$,$,.INTERNAL.,$);
#1329=IFCPROPERTYSINGLEVALUE('ZoneNumber',$,IFCTEXT('H01'),$);
#1330=IFCPROPERTYSINGLEVALUE('Area',$,IFCREAL(34.),$);
#1331=IFCPROPERTYSINGLEVALUE('Outdoor',$,IFCBOOLEAN(.F.),$);
#1332=IFCPROPERTYSINGLEVALUE('Department',$,IFCTEXT('PUBLIC'),$);
#1333=IFCPROPERTYSET('26IQnilmTDgv4fxKH_MHYE',#6,'Pset_EngiWorld',$,(#1329,#1330,#1331,#1332));
#1334=IFCRELDEFINESBYPROPERTIES('1KR5w2FG1AZuWV5t3FJXfi',#6,'LOBBY properties',$,(#1328),#1333);
#1335=IFCCARTESIANPOINT((8.4749999999999996,1.9750000000000001,0.050000000000000003));
#1336=IFCDIRECTION((0.,0.,1.));
#1337=IFCDIRECTION((1.,0.,0.));
#1338=IFCAXIS2PLACEMENT3D(#1335,#1336,#1337);
#1339=IFCLOCALPLACEMENT($,#1338);
#1340=IFCCARTESIANPOINT((0.,0.));
#1341=IFCDIRECTION((1.,0.));
#1342=IFCAXIS2PLACEMENT2D(#1340,#1341);
#1343=IFCRECTANGLEPROFILEDEF(.AREA.,$,#1342,3.9375,2.0625);
#1344=IFCCARTESIANPOINT((0.,0.,0.));
#1345=IFCDIRECTION((0.,0.,1.));
#1346=IFCDIRECTION((1.,0.,0.));
#1347=IFCAXIS2PLACEMENT3D(#1344,#1345,#1346);
#1348=IFCDIRECTION((0.,0.,1.));
#1349=IFCEXTRUDEDAREASOLID(#1343,#1347,#1348,2.9499999999999997);
#1350=IFCSHAPEREPRESENTATION(#12,'Body','SweptSolid',(#1349));
#1351=IFCPRODUCTDEFINITIONSHAPE($,$,(#1350));
#1352=IFCSPACE('1j$YoUpNHD78S0xF3y51yy',#6,'CAFE',$,$,#1339,#1351,$,$,.INTERNAL.,$);
#1353=IFCPROPERTYSINGLEVALUE('ZoneNumber',$,IFCTEXT('H02'),$);
#1354=IFCPROPERTYSINGLEVALUE('Area',$,IFCREAL(30.),$);
#1355=IFCPROPERTYSINGLEVALUE('Outdoor',$,IFCBOOLEAN(.F.),$);
#1356=IFCPROPERTYSINGLEVALUE('Department',$,IFCTEXT('PUBLIC'),$);
#1357=IFCPROPERTYSET('0xAB7qT6z6BwW1Pe1KTPFl',#6,'Pset_EngiWorld',$,(#1353,#1354,#1355,#1356));
#1358=IFCRELDEFINESBYPROPERTIES('1gLWIdiq18GPFG_Bw_ICdO',#6,'CAFE properties',$,(#1352),#1357);
#1359=IFCCARTESIANPOINT((13.725,1.9750000000000001,0.050000000000000003));
#1360=IFCDIRECTION((0.,0.,1.));
#1361=IFCDIRECTION((1.,0.,0.));
#1362=IFCAXIS2PLACEMENT3D(#1359,#1360,#1361);
#1363=IFCLOCALPLACEMENT($,#1362);
#1364=IFCCARTESIANPOINT((0.,0.));
#1365=IFCDIRECTION((1.,0.));
#1366=IFCAXIS2PLACEMENT2D(#1364,#1365);
#1367=IFCRECTANGLEPROFILEDEF(.AREA.,$,#1366,3.9375,2.0625);
#1368=IFCCARTESIANPOINT((0.,0.,0.));
#1369=IFCDIRECTION((0.,0.,1.));
#1370=IFCDIRECTION((1.,0.,0.));
#1371=IFCAXIS2PLACEMENT3D(#1368,#1369,#1370);
#1372=IFCDIRECTION((0.,0.,1.));
#1373=IFCEXTRUDEDAREASOLID(#1367,#1371,#1372,2.9499999999999997);
#1374=IFCSHAPEREPRESENTATION(#12,'Body','SweptSolid',(#1373));
#1375=IFCPRODUCTDEFINITIONSHAPE($,$,(#1374));
#1376=IFCSPACE('3slYwrHG5FvutAdQkRNn0Y',#6,'BACK-OF-HOUSE',$,$,#1363,#1375,$,$,.INTERNAL.,$);
#1377=IFCPROPERTYSINGLEVALUE('ZoneNumber',$,IFCTEXT('H03'),$);
#1378=IFCPROPERTYSINGLEVALUE('Area',$,IFCREAL(20.),$);
#1379=IFCPROPERTYSINGLEVALUE('Outdoor',$,IFCBOOLEAN(.F.),$);
#1380=IFCPROPERTYSINGLEVALUE('Department',$,IFCTEXT('SUPPORT'),$);
#1381=IFCPROPERTYSET('2A8WA1KKj29g5dbsp2CSUd',#6,'Pset_EngiWorld',$,(#1377,#1378,#1379,#1380));
#1382=IFCRELDEFINESBYPROPERTIES('0V9vczaB91lA9V50LbTVGA',#6,'BACK-OF-HOUSE properties',$,(#1376),#1381);
#1383=IFCCARTESIANPOINT((18.975000000000001,1.9750000000000001,0.050000000000000003));
#1384=IFCDIRECTION((0.,0.,1.));
#1385=IFCDIRECTION((1.,0.,0.));
#1386=IFCAXIS2PLACEMENT3D(#1383,#1384,#1385);
#1387=IFCLOCALPLACEMENT($,#1386);
#1388=IFCCARTESIANPOINT((0.,0.));
#1389=IFCDIRECTION((1.,0.));
#1390=IFCAXIS2PLACEMENT2D(#1388,#1389);
#1391=IFCRECTANGLEPROFILEDEF(.AREA.,$,#1390,2.8284271247461903,2.0625);
#1392=IFCCARTESIANPOINT((0.,0.,0.));
#1393=IFCDIRECTION((0.,0.,1.));
#1394=IFCDIRECTION((1.,0.,0.));
#1395=IFCAXIS2PLACEMENT3D(#1392,#1393,#1394);
#1396=IFCDIRECTION((0.,0.,1.));
#1397=IFCEXTRUDEDAREASOLID(#1391,#1395,#1396,2.9499999999999997);
#1398=IFCSHAPEREPRESENTATION(#12,'Body','SweptSolid',(#1397));
#1399=IFCPRODUCTDEFINITIONSHAPE($,$,(#1398));
#1400=IFCSPACE('1mOLxVBgr4oOvinNLR$kIk',#6,'ACCESS-WC',$,$,#1387,#1399,$,$,.INTERNAL.,$);
#1401=IFCPROPERTYSINGLEVALUE('ZoneNumber',$,IFCTEXT('H04'),$);
#1402=IFCPROPERTYSINGLEVALUE('Area',$,IFCREAL(8.),$);
#1403=IFCPROPERTYSINGLEVALUE('Outdoor',$,IFCBOOLEAN(.F.),$);
#1404=IFCPROPERTYSINGLEVALUE('Department',$,IFCTEXT('SUPPORT'),$);
#1405=IFCPROPERTYSET('3XzffxY5zFh8ri60b5QNXA',#6,'Pset_EngiWorld',$,(#1401,#1402,#1403,#1404));
#1406=IFCRELDEFINESBYPROPERTIES('3GxHtjwFf9V9e8CJGawoex',#6,'ACCESS-WC properties',$,(#1400),#1405);
#1407=IFCCARTESIANPOINT((3.2250000000000001,4.7249999999999996,0.050000000000000003));
#1408=IFCDIRECTION((0.,0.,1.));
#1409=IFCDIRECTION((1.,0.,0.));
#1410=IFCAXIS2PLACEMENT3D(#1407,#1408,#1409);
#1411=IFCLOCALPLACEMENT($,#1410);
#1412=IFCCARTESIANPOINT((0.,0.));
#1413=IFCDIRECTION((1.,0.));
#1414=IFCAXIS2PLACEMENT2D(#1412,#1413);
#1415=IFCRECTANGLEPROFILEDEF(.AREA.,$,#1414,3.4641016151377544,2.0625);
#1416=IFCCARTESIANPOINT((0.,0.,0.));
#1417=IFCDIRECTION((0.,0.,1.));
#1418=IFCDIRECTION((1.,0.,0.));
#1419=IFCAXIS2PLACEMENT3D(#1416,#1417,#1418);
#1420=IFCDIRECTION((0.,0.,1.));
#1421=IFCEXTRUDEDAREASOLID(#1415,#1419,#1420,2.9499999999999997);
#1422=IFCSHAPEREPRESENTATION(#12,'Body','SweptSolid',(#1421));
#1423=IFCPRODUCTDEFINITIONSHAPE($,$,(#1422));
#1424=IFCSPACE('3uuHCmY$55fh$aExnzupnF',#6,'STAIR-G',$,$,#1411,#1423,$,$,.INTERNAL.,$);
#1425=IFCPROPERTYSINGLEVALUE('ZoneNumber',$,IFCTEXT('H05'),$);
#1426=IFCPROPERTYSINGLEVALUE('Area',$,IFCREAL(12.),$);
#1427=IFCPROPERTYSINGLEVALUE('Outdoor',$,IFCBOOLEAN(.F.),$);
#1428=IFCPROPERTYSINGLEVALUE('Department',$,IFCTEXT('CIRCULATION'),$);
#1429=IFCPROPERTYSET('3lyg9Wytv4OBK5c5pE0v_R',#6,'Pset_EngiWorld',$,(#1425,#1426,#1427,#1428));
#1430=IFCRELDEFINESBYPROPERTIES('1wje_iAPbDvfWFd_1pSUEN',#6,'STAIR-G properties',$,(#1424),#1429);
#1431=IFCCARTESIANPOINT((8.4749999999999996,4.7249999999999996,3.4499999999999997));
#1432=IFCDIRECTION((0.,0.,1.));
#1433=IFCDIRECTION((1.,0.,0.));
#1434=IFCAXIS2PLACEMENT3D(#1431,#1432,#1433);
#1435=IFCLOCALPLACEMENT($,#1434);
#1436=IFCCARTESIANPOINT((0.,0.));
#1437=IFCDIRECTION((1.,0.));
#1438=IFCAXIS2PLACEMENT2D(#1436,#1437);
#1439=IFCRECTANGLEPROFILEDEF(.AREA.,$,#1438,3.9375,2.0625);
#1440=IFCCARTESIANPOINT((0.,0.,0.));
#1441=IFCDIRECTION((0.,0.,1.));
#1442=IFCDIRECTION((1.,0.,0.));
#1443=IFCAXIS2PLACEMENT3D(#1440,#1441,#1442);
#1444=IFCDIRECTION((0.,0.,1.));
#1445=IFCEXTRUDEDAREASOLID(#1439,#1443,#1444,2.9499999999999997);
#1446=IFCSHAPEREPRESENTATION(#12,'Body','SweptSolid',(#1445));
#1447=IFCPRODUCTDEFINITIONSHAPE($,$,(#1446));
#1448=IFCSPACE('0ZhMRjCbn4ywz_qqvt$hhE',#6,'ROOM-101',$,$,#1435,#1447,$,$,.INTERNAL.,$);
#1449=IFCPROPERTYSINGLEVALUE('ZoneNumber',$,IFCTEXT('H101'),$);
#1450=IFCPROPERTYSINGLEVALUE('Area',$,IFCREAL(18.),$);
#1451=IFCPROPERTYSINGLEVALUE('Outdoor',$,IFCBOOLEAN(.F.),$);
#1452=IFCPROPERTYSINGLEVALUE('Department',$,IFCTEXT('GUEST'),$);
#1453=IFCPROPERTYSET('3Fr3r7FQf1gvwWWM5lZErM',#6,'Pset_EngiWorld',$,(#1449,#1450,#1451,#1452));
#1454=IFCRELDEFINESBYPROPERTIES('1qW3N8GMXAo9crCHMLv$aa',#6,'ROOM-101 properties',$,(#1448),#1453);
#1455=IFCCARTESIANPOINT((13.725,4.7249999999999996,3.4499999999999997));
#1456=IFCDIRECTION((0.,0.,1.));
#1457=IFCDIRECTION((1.,0.,0.));
#1458=IFCAXIS2PLACEMENT3D(#1455,#1456,#1457);
#1459=IFCLOCALPLACEMENT($,#1458);
#1460=IFCCARTESIANPOINT((0.,0.));
#1461=IFCDIRECTION((1.,0.));
#1462=IFCAXIS2PLACEMENT2D(#1460,#1461);
#1463=IFCRECTANGLEPROFILEDEF(.AREA.,$,#1462,3.9375,2.0625);
#1464=IFCCARTESIANPOINT((0.,0.,0.));
#1465=IFCDIRECTION((0.,0.,1.));
#1466=IFCDIRECTION((1.,0.,0.));
#1467=IFCAXIS2PLACEMENT3D(#1464,#1465,#1466);
#1468=IFCDIRECTION((0.,0.,1.));
#1469=IFCEXTRUDEDAREASOLID(#1463,#1467,#1468,2.9499999999999997);
#1470=IFCSHAPEREPRESENTATION(#12,'Body','SweptSolid',(#1469));
#1471=IFCPRODUCTDEFINITIONSHAPE($,$,(#1470));
#1472=IFCSPACE('0TdES9dWX2qON5Fc4gGbvO',#6,'ROOM-102',$,$,#1459,#1471,$,$,.INTERNAL.,$);
#1473=IFCPROPERTYSINGLEVALUE('ZoneNumber',$,IFCTEXT('H102'),$);
#1474=IFCPROPERTYSINGLEVALUE('Area',$,IFCREAL(18.),$);
#1475=IFCPROPERTYSINGLEVALUE('Outdoor',$,IFCBOOLEAN(.F.),$);
#1476=IFCPROPERTYSINGLEVALUE('Department',$,IFCTEXT('GUEST'),$);
#1477=IFCPROPERTYSET('0SQD3Fp9DEhRSS1rRvHIK9',#6,'Pset_EngiWorld',$,(#1473,#1474,#1475,#1476));
#1478=IFCRELDEFINESBYPROPERTIES('3VsqJE_ybBoev9PlRgh$_a',#6,'ROOM-102 properties',$,(#1472),#1477);
#1479=IFCCARTESIANPOINT((18.975000000000001,4.7249999999999996,3.4499999999999997));
#1480=IFCDIRECTION((0.,0.,1.));
#1481=IFCDIRECTION((1.,0.,0.));
#1482=IFCAXIS2PLACEMENT3D(#1479,#1480,#1481);
#1483=IFCLOCALPLACEMENT($,#1482);
#1484=IFCCARTESIANPOINT((0.,0.));
#1485=IFCDIRECTION((1.,0.));
#1486=IFCAXIS2PLACEMENT2D(#1484,#1485);
#1487=IFCRECTANGLEPROFILEDEF(.AREA.,$,#1486,3.9375,2.0625);
#1488=IFCCARTESIANPOINT((0.,0.,0.));
#1489=IFCDIRECTION((0.,0.,1.));
#1490=IFCDIRECTION((1.,0.,0.));
#1491=IFCAXIS2PLACEMENT3D(#1488,#1489,#1490);
#1492=IFCDIRECTION((0.,0.,1.));
#1493=IFCEXTRUDEDAREASOLID(#1487,#1491,#1492,2.9499999999999997);
#1494=IFCSHAPEREPRESENTATION(#12,'Body','SweptSolid',(#1493));
#1495=IFCPRODUCTDEFINITIONSHAPE($,$,(#1494));
#1496=IFCSPACE('2B9mcg1XjEOAkT6W4FUykd',#6,'ROOM-103',$,$,#1483,#1495,$,$,.INTERNAL.,$);
#1497=IFCPROPERTYSINGLEVALUE('ZoneNumber',$,IFCTEXT('H103'),$);
#1498=IFCPROPERTYSINGLEVALUE('Area',$,IFCREAL(18.),$);
#1499=IFCPROPERTYSINGLEVALUE('Outdoor',$,IFCBOOLEAN(.F.),$);
#1500=IFCPROPERTYSINGLEVALUE('Department',$,IFCTEXT('GUEST'),$);
#1501=IFCPROPERTYSET('0tHlzW3Nn0i9ovlfUysY1O',#6,'Pset_EngiWorld',$,(#1497,#1498,#1499,#1500));
#1502=IFCRELDEFINESBYPROPERTIES('3aF_IClGn5dR6ocJXJYAYp',#6,'ROOM-103 properties',$,(#1496),#1501);
#1503=IFCCARTESIANPOINT((3.2250000000000001,7.4749999999999996,3.4499999999999997));
#1504=IFCDIRECTION((0.,0.,1.));
#1505=IFCDIRECTION((1.,0.,0.));
#1506=IFCAXIS2PLACEMENT3D(#1503,#1504,#1505);
#1507=IFCLOCALPLACEMENT($,#1506);
#1508=IFCCARTESIANPOINT((0.,0.));
#1509=IFCDIRECTION((1.,0.));
#1510=IFCAXIS2PLACEMENT2D(#1508,#1509);
#1511=IFCRECTANGLEPROFILEDEF(.AREA.,$,#1510,3.9375,2.0625);
#1512=IFCCARTESIANPOINT((0.,0.,0.));
#1513=IFCDIRECTION((0.,0.,1.));
#1514=IFCDIRECTION((1.,0.,0.));
#1515=IFCAXIS2PLACEMENT3D(#1512,#1513,#1514);
#1516=IFCDIRECTION((0.,0.,1.));
#1517=IFCEXTRUDEDAREASOLID(#1511,#1515,#1516,2.9499999999999997);
#1518=IFCSHAPEREPRESENTATION(#12,'Body','SweptSolid',(#1517));
#1519=IFCPRODUCTDEFINITIONSHAPE($,$,(#1518));
#1520=IFCSPACE('2kpCbnXibAjf8qrScMyjX8',#6,'ROOM-104',$,$,#1507,#1519,$,$,.INTERNAL.,$);
#1521=IFCPROPERTYSINGLEVALUE('ZoneNumber',$,IFCTEXT('H104'),$);
#1522=IFCPROPERTYSINGLEVALUE('Area',$,IFCREAL(18.),$);
#1523=IFCPROPERTYSINGLEVALUE('Outdoor',$,IFCBOOLEAN(.F.),$);
#1524=IFCPROPERTYSINGLEVALUE('Department',$,IFCTEXT('GUEST'),$);
#1525=IFCPROPERTYSET('0EQY9T_fX78w8P_3XsqkZB',#6,'Pset_EngiWorld',$,(#1521,#1522,#1523,#1524));
#1526=IFCRELDEFINESBYPROPERTIES('0S24WOuu50exRj8p3S7cpw',#6,'ROOM-104 properties',$,(#1520),#1525);
#1527=IFCCARTESIANPOINT((8.4749999999999996,7.4749999999999996,3.4499999999999997));
#1528=IFCDIRECTION((0.,0.,1.));
#1529=IFCDIRECTION((1.,0.,0.));
#1530=IFCAXIS2PLACEMENT3D(#1527,#1528,#1529);
#1531=IFCLOCALPLACEMENT($,#1530);
#1532=IFCCARTESIANPOINT((0.,0.));
#1533=IFCDIRECTION((1.,0.));
#1534=IFCAXIS2PLACEMENT2D(#1532,#1533);
#1535=IFCRECTANGLEPROFILEDEF(.AREA.,$,#1534,3.9375,2.0625);
#1536=IFCCARTESIANPOINT((0.,0.,0.));
#1537=IFCDIRECTION((0.,0.,1.));
#1538=IFCDIRECTION((1.,0.,0.));
#1539=IFCAXIS2PLACEMENT3D(#1536,#1537,#1538);
#1540=IFCDIRECTION((0.,0.,1.));
#1541=IFCEXTRUDEDAREASOLID(#1535,#1539,#1540,2.9499999999999997);
#1542=IFCSHAPEREPRESENTATION(#12,'Body','SweptSolid',(#1541));
#1543=IFCPRODUCTDEFINITIONSHAPE($,$,(#1542));
#1544=IFCSPACE('1vog1r4p58HB3hucr2_IQf',#6,'CORRIDOR-1',$,$,#1531,#1543,$,$,.INTERNAL.,$);
#1545=IFCPROPERTYSINGLEVALUE('ZoneNumber',$,IFCTEXT('H105'),$);
#1546=IFCPROPERTYSINGLEVALUE('Area',$,IFCREAL(24.),$);
#1547=IFCPROPERTYSINGLEVALUE('Outdoor',$,IFCBOOLEAN(.F.),$);
#1548=IFCPROPERTYSINGLEVALUE('Department',$,IFCTEXT('CIRCULATION'),$);
#1549=IFCPROPERTYSET('2CmqqqdH5Dre6$LA2yxc7q',#6,'Pset_EngiWorld',$,(#1545,#1546,#1547,#1548));
#1550=IFCRELDEFINESBYPROPERTIES('1wMwrnUYH5SQi6_6QN$dPO',#6,'CORRIDOR-1 properties',$,(#1544),#1549);
#1551=IFCCARTESIANPOINT((13.725,7.4749999999999996,6.8499999999999996));
#1552=IFCDIRECTION((0.,0.,1.));
#1553=IFCDIRECTION((1.,0.,0.));
#1554=IFCAXIS2PLACEMENT3D(#1551,#1552,#1553);
#1555=IFCLOCALPLACEMENT($,#1554);
#1556=IFCCARTESIANPOINT((0.,0.));
#1557=IFCDIRECTION((1.,0.));
#1558=IFCAXIS2PLACEMENT2D(#1556,#1557);
#1559=IFCRECTANGLEPROFILEDEF(.AREA.,$,#1558,3.9375,2.0625);
#1560=IFCCARTESIANPOINT((0.,0.,0.));
#1561=IFCDIRECTION((0.,0.,1.));
#1562=IFCDIRECTION((1.,0.,0.));
#1563=IFCAXIS2PLACEMENT3D(#1560,#1561,#1562);
#1564=IFCDIRECTION((0.,0.,1.));
#1565=IFCEXTRUDEDAREASOLID(#1559,#1563,#1564,2.9499999999999997);
#1566=IFCSHAPEREPRESENTATION(#12,'Body','SweptSolid',(#1565));
#1567=IFCPRODUCTDEFINITIONSHAPE($,$,(#1566));
#1568=IFCSPACE('3irx6p$H52TgypTYXCSqwj',#6,'ROOM-201',$,$,#1555,#1567,$,$,.INTERNAL.,$);
#1569=IFCPROPERTYSINGLEVALUE('ZoneNumber',$,IFCTEXT('H201'),$);
#1570=IFCPROPERTYSINGLEVALUE('Area',$,IFCREAL(18.),$);
#1571=IFCPROPERTYSINGLEVALUE('Outdoor',$,IFCBOOLEAN(.F.),$);
#1572=IFCPROPERTYSINGLEVALUE('Department',$,IFCTEXT('GUEST'),$);
#1573=IFCPROPERTYSET('30eVyxqqHArudZJQ9teCvZ',#6,'Pset_EngiWorld',$,(#1569,#1570,#1571,#1572));
#1574=IFCRELDEFINESBYPROPERTIES('17GEzahLX5lP8tieJAuDlg',#6,'ROOM-201 properties',$,(#1568),#1573);
#1575=IFCCARTESIANPOINT((18.975000000000001,7.4749999999999996,6.8499999999999996));
#1576=IFCDIRECTION((0.,0.,1.));
#1577=IFCDIRECTION((1.,0.,0.));
#1578=IFCAXIS2PLACEMENT3D(#1575,#1576,#1577);
#1579=IFCLOCALPLACEMENT($,#1578);
#1580=IFCCARTESIANPOINT((0.,0.));
#1581=IFCDIRECTION((1.,0.));
#1582=IFCAXIS2PLACEMENT2D(#1580,#1581);
#1583=IFCRECTANGLEPROFILEDEF(.AREA.,$,#1582,3.9375,2.0625);
#1584=IFCCARTESIANPOINT((0.,0.,0.));
#1585=IFCDIRECTION((0.,0.,1.));
#1586=IFCDIRECTION((1.,0.,0.));
#1587=IFCAXIS2PLACEMENT3D(#1584,#1585,#1586);
#1588=IFCDIRECTION((0.,0.,1.));
#1589=IFCEXTRUDEDAREASOLID(#1583,#1587,#1588,2.9499999999999997);
#1590=IFCSHAPEREPRESENTATION(#12,'Body','SweptSolid',(#1589));
#1591=IFCPRODUCTDEFINITIONSHAPE($,$,(#1590));
#1592=IFCSPACE('1jqw6h5EjAJuis_gIoMahg',#6,'ROOM-202',$,$,#1579,#1591,$,$,.INTERNAL.,$);
#1593=IFCPROPERTYSINGLEVALUE('ZoneNumber',$,IFCTEXT('H202'),$);
#1594=IFCPROPERTYSINGLEVALUE('Area',$,IFCREAL(18.),$);
#1595=IFCPROPERTYSINGLEVALUE('Outdoor',$,IFCBOOLEAN(.F.),$);
#1596=IFCPROPERTYSINGLEVALUE('Department',$,IFCTEXT('GUEST'),$);
#1597=IFCPROPERTYSET('0PfGwQLDDBxBoCatR3TqeL',#6,'Pset_EngiWorld',$,(#1593,#1594,#1595,#1596));
#1598=IFCRELDEFINESBYPROPERTIES('1mc_mtIDH8m86Jx9crFfBc',#6,'ROOM-202 properties',$,(#1592),#1597);
#1599=IFCCARTESIANPOINT((3.2250000000000001,10.225,6.8499999999999996));
#1600=IFCDIRECTION((0.,0.,1.));
#1601=IFCDIRECTION((1.,0.,0.));
#1602=IFCAXIS2PLACEMENT3D(#1599,#1600,#1601);
#1603=IFCLOCALPLACEMENT($,#1602);
#1604=IFCCARTESIANPOINT((0.,0.));
#1605=IFCDIRECTION((1.,0.));
#1606=IFCAXIS2PLACEMENT2D(#1604,#1605);
#1607=IFCRECTANGLEPROFILEDEF(.AREA.,$,#1606,3.9375,2.0625);
#1608=IFCCARTESIANPOINT((0.,0.,0.));
#1609=IFCDIRECTION((0.,0.,1.));
#1610=IFCDIRECTION((1.,0.,0.));
#1611=IFCAXIS2PLACEMENT3D(#1608,#1609,#1610);
#1612=IFCDIRECTION((0.,0.,1.));
#1613=IFCEXTRUDEDAREASOLID(#1607,#1611,#1612,2.9499999999999997);
#1614=IFCSHAPEREPRESENTATION(#12,'Body','SweptSolid',(#1613));
#1615=IFCPRODUCTDEFINITIONSHAPE($,$,(#1614));
#1616=IFCSPACE('3OuVT9RCzFyvPzfdhe2unr',#6,'ROOM-203',$,$,#1603,#1615,$,$,.INTERNAL.,$);
#1617=IFCPROPERTYSINGLEVALUE('ZoneNumber',$,IFCTEXT('H203'),$);
#1618=IFCPROPERTYSINGLEVALUE('Area',$,IFCREAL(18.),$);
#1619=IFCPROPERTYSINGLEVALUE('Outdoor',$,IFCBOOLEAN(.F.),$);
#1620=IFCPROPERTYSINGLEVALUE('Department',$,IFCTEXT('GUEST'),$);
#1621=IFCPROPERTYSET('03fcUe7U15MBs_zIXE0vhb',#6,'Pset_EngiWorld',$,(#1617,#1618,#1619,#1620));
#1622=IFCRELDEFINESBYPROPERTIES('0POuRLtp5ByO4QVEfARxih',#6,'ROOM-203 properties',$,(#1616),#1621);
#1623=IFCCARTESIANPOINT((8.4749999999999996,10.225,6.8499999999999996));
#1624=IFCDIRECTION((0.,0.,1.));
#1625=IFCDIRECTION((1.,0.,0.));
#1626=IFCAXIS2PLACEMENT3D(#1623,#1624,#1625);
#1627=IFCLOCALPLACEMENT($,#1626);
#1628=IFCCARTESIANPOINT((0.,0.));
#1629=IFCDIRECTION((1.,0.));
#1630=IFCAXIS2PLACEMENT2D(#1628,#1629);
#1631=IFCRECTANGLEPROFILEDEF(.AREA.,$,#1630,3.9375,2.0625);
#1632=IFCCARTESIANPOINT((0.,0.,0.));
#1633=IFCDIRECTION((0.,0.,1.));
#1634=IFCDIRECTION((1.,0.,0.));
#1635=IFCAXIS2PLACEMENT3D(#1632,#1633,#1634);
#1636=IFCDIRECTION((0.,0.,1.));
#1637=IFCEXTRUDEDAREASOLID(#1631,#1635,#1636,2.9499999999999997);
#1638=IFCSHAPEREPRESENTATION(#12,'Body','SweptSolid',(#1637));
#1639=IFCPRODUCTDEFINITIONSHAPE($,$,(#1638));
#1640=IFCSPACE('07EyAJUUD3Qw0e477YS2MY',#6,'ROOM-204',$,$,#1627,#1639,$,$,.INTERNAL.,$);
#1641=IFCPROPERTYSINGLEVALUE('ZoneNumber',$,IFCTEXT('H204'),$);
#1642=IFCPROPERTYSINGLEVALUE('Area',$,IFCREAL(18.),$);
#1643=IFCPROPERTYSINGLEVALUE('Outdoor',$,IFCBOOLEAN(.F.),$);
#1644=IFCPROPERTYSINGLEVALUE('Department',$,IFCTEXT('GUEST'),$);
#1645=IFCPROPERTYSET('0f7Lakhhv3PQf7hk2qNG_e',#6,'Pset_EngiWorld',$,(#1641,#1642,#1643,#1644));
#1646=IFCRELDEFINESBYPROPERTIES('03fHEnaPfBMfQxEDBMxGWb',#6,'ROOM-204 properties',$,(#1640),#1645);
#1647=IFCCARTESIANPOINT((13.725,10.225,6.8499999999999996));
#1648=IFCDIRECTION((0.,0.,1.));
#1649=IFCDIRECTION((1.,0.,0.));
#1650=IFCAXIS2PLACEMENT3D(#1647,#1648,#1649);
#1651=IFCLOCALPLACEMENT($,#1650);
#1652=IFCCARTESIANPOINT((0.,0.));
#1653=IFCDIRECTION((1.,0.));
#1654=IFCAXIS2PLACEMENT2D(#1652,#1653);
#1655=IFCRECTANGLEPROFILEDEF(.AREA.,$,#1654,3.9375,2.0625);
#1656=IFCCARTESIANPOINT((0.,0.,0.));
#1657=IFCDIRECTION((0.,0.,1.));
#1658=IFCDIRECTION((1.,0.,0.));
#1659=IFCAXIS2PLACEMENT3D(#1656,#1657,#1658);
#1660=IFCDIRECTION((0.,0.,1.));
#1661=IFCEXTRUDEDAREASOLID(#1655,#1659,#1660,2.9499999999999997);
#1662=IFCSHAPEREPRESENTATION(#12,'Body','SweptSolid',(#1661));
#1663=IFCPRODUCTDEFINITIONSHAPE($,$,(#1662));
#1664=IFCSPACE('1jRhz80bPFteT8qG_ExEmD',#6,'CORRIDOR-2',$,$,#1651,#1663,$,$,.INTERNAL.,$);
#1665=IFCPROPERTYSINGLEVALUE('ZoneNumber',$,IFCTEXT('H205'),$);
#1666=IFCPROPERTYSINGLEVALUE('Area',$,IFCREAL(24.),$);
#1667=IFCPROPERTYSINGLEVALUE('Outdoor',$,IFCBOOLEAN(.F.),$);
#1668=IFCPROPERTYSINGLEVALUE('Department',$,IFCTEXT('CIRCULATION'),$);
#1669=IFCPROPERTYSET('0gY$ZAl9nEMOdnbCNO_s5v',#6,'Pset_EngiWorld',$,(#1665,#1666,#1667,#1668));
#1670=IFCRELDEFINESBYPROPERTIES('3oqtk4RJzAa9ZtDeIUQJiu',#6,'CORRIDOR-2 properties',$,(#1664),#1669);
#1671=IFCRELCONTAINEDINSPATIALSTRUCTURE('0h2sq4yerCWwQrqIX4mCvv',#6,'Ground Floor containment',$,(#68,#86,#104,#122,#140,#158,#176,#194,#212,#230,#248,#698,#752,#806,#860,#914,#968,#1022,#1076,#1130,#1184,#1238,#1292,#1328,#1352,#1376,#1400,#1424),#37);
#1672=IFCRELCONTAINEDINSPATIALSTRUCTURE('0LooRkpnP6kerWOMYe7b4_',#6,'Level 1 containment',$,(#266,#284,#302,#320,#338,#356,#374,#392,#410,#428,#446,#716,#770,#824,#878,#932,#986,#1040,#1094,#1148,#1202,#1256,#1310,#1448,#1472,#1496,#1520,#1544),#43);
#1673=IFCRELCONTAINEDINSPATIALSTRUCTURE('3C$tTpIqb3fwrnR4fhy_XD',#6,'Level 2 containment',$,(#464,#482,#500,#518,#536,#554,#572,#590,#608,#626,#644,#662,#680,#734,#788,#842,#896,#950,#1004,#1058,#1112,#1166,#1220,#1274,#1568,#1592,#1616,#1640,#1664),#49);
ENDSEC;
END-ISO-10303-21;
