ISO-10303-21;
HEADER;
FILE_DESCRIPTION(('ViewDefinition [CoordinationView]'),'2;1');
FILE_NAME('','2026-05-22T00:41:41',(''),(''),'IfcOpenShell 0.8.5-1c5b825','IfcOpenShell 0.8.5-1c5b825','');
FILE_SCHEMA(('IFC4'));
ENDSEC;
DATA;
#1=IFCPROJECT('1cDU2W87rAWfROA8ncjT_Q',$,'Three-Room Service Hut',$,$,$,$,(#10),#5);
#2=IFCSIUNIT(*,.LENGTHUNIT.,.MILLI.,.METRE.);
#3=IFCSIUNIT(*,.AREAUNIT.,$,.SQUARE_METRE.);
#4=IFCSIUNIT(*,.VOLUMEUNIT.,$,.CUBIC_METRE.);
#5=IFCUNITASSIGNMENT((#4,#2,#3));
#6=IFCCARTESIANPOINT((0.,0.,0.));
#7=IFCDIRECTION((0.,0.,1.));
#8=IFCDIRECTION((1.,0.,0.));
#9=IFCAXIS2PLACEMENT3D(#6,#7,#8);
#10=IFCGEOMETRICREPRESENTATIONCONTEXT($,'Model',3,1.0000000000000001E-05,#9,$);
#11=IFCGEOMETRICREPRESENTATIONSUBCONTEXT('Body','Model',*,*,*,*,#10,$,.MODEL_VIEW.,$);
#12=IFCSITE('3qqCnNKe99BBxZF2qwoVKx',$,'Default Site',$,$,$,$,$,$,$,$,$,$,$);
#13=IFCBUILDING('0z4s9cYy51Be54XWxGCjUy',$,'Simple Building',$,$,$,$,$,$,$,$,$);
#14=IFCRELAGGREGATES('3hRM07J$P2T8Ru6nlCXYOz',$,$,$,#1,(#12));
#15=IFCRELAGGREGATES('1w2Sb4FKvC2xBn_aDa0uqE',$,$,$,#12,(#13));
#16=IFCBUILDINGSTOREY('2myztPmn15Wg0Eyn26NE$1',$,'Ground Floor',$,$,#22,$,$,$,$);
#17=IFCRELAGGREGATES('1HDnwSChr7hAcl0X3vxWo7',$,$,$,#13,(#16));
#18=IFCCARTESIANPOINT((0.,0.,0.));
#19=IFCDIRECTION((0.,0.,1.));
#20=IFCDIRECTION((1.,0.,0.));
#21=IFCAXIS2PLACEMENT3D(#18,#19,#20);
#22=IFCLOCALPLACEMENT($,#21);
#23=IFCWALL('0ZT_lPGrb6aBTVeam9CSza',$,'Exterior Wall 1',$,$,#45,#34,$,$);
#24=IFCCARTESIANPOINTLIST2D(((0.,0.),(0.,200.),(9000.,200.),(9000.,0.),(0.,0.)));
#25=IFCINDEXEDPOLYCURVE(#24,$,.F.);
#26=IFCDIRECTION((0.,0.,1.));
#27=IFCARBITRARYCLOSEDPROFILEDEF(.AREA.,$,#25);
#28=IFCCARTESIANPOINT((0.,0.,0.));
#29=IFCDIRECTION((0.,0.,1.));
#30=IFCDIRECTION((1.,0.,0.));
#31=IFCAXIS2PLACEMENT3D(#28,#29,#30);
#32=IFCEXTRUDEDAREASOLID(#27,#31,#26,3000.);
#33=IFCSHAPEREPRESENTATION(#11,'Body','SweptSolid',(#32));
#34=IFCPRODUCTDEFINITIONSHAPE($,$,(#33));
#40=IFCRELCONTAINEDINSPATIALSTRUCTURE('27vr_xu8vCfPYx2syZY$h0',$,$,$,(#134,#484,#259,#23,#68,#174,#46,#156,#90,#112,#344,#429),#16);
#41=IFCCARTESIANPOINT((0.,0.,0.));
#42=IFCDIRECTION((0.,0.,1.));
#43=IFCDIRECTION((1.,0.,0.));
#44=IFCAXIS2PLACEMENT3D(#41,#42,#43);
#45=IFCLOCALPLACEMENT(#22,#44);
#46=IFCWALL('3PsxPgRO1FZ9ZD$HntR9p6',$,'Exterior Wall 2',$,$,#67,#57,$,$);
#47=IFCCARTESIANPOINTLIST2D(((0.,0.),(0.,200.),(9000.,200.),(9000.,0.),(0.,0.)));
#48=IFCINDEXEDPOLYCURVE(#47,$,.F.);
#49=IFCDIRECTION((0.,0.,1.));
#50=IFCARBITRARYCLOSEDPROFILEDEF(.AREA.,$,#48);
#51=IFCCARTESIANPOINT((0.,0.,0.));
#52=IFCDIRECTION((0.,0.,1.));
#53=IFCDIRECTION((1.,0.,0.));
#54=IFCAXIS2PLACEMENT3D(#51,#52,#53);
#55=IFCEXTRUDEDAREASOLID(#50,#54,#49,3000.);
#56=IFCSHAPEREPRESENTATION(#11,'Body','SweptSolid',(#55));
#57=IFCPRODUCTDEFINITIONSHAPE($,$,(#56));
#63=IFCCARTESIANPOINT((0.,5000.,0.));
#64=IFCDIRECTION((0.,0.,1.));
#65=IFCDIRECTION((1.,0.,0.));
#66=IFCAXIS2PLACEMENT3D(#63,#64,#65);
#67=IFCLOCALPLACEMENT(#22,#66);
#68=IFCWALL('3L5Tq6KNHCvuy188Lv54vO',$,'Exterior Wall 3',$,$,#89,#79,$,$);
#69=IFCCARTESIANPOINTLIST2D(((0.,0.),(0.,200.),(5000.,200.),(5000.,0.),(0.,0.)));
#70=IFCINDEXEDPOLYCURVE(#69,$,.F.);
#71=IFCDIRECTION((0.,0.,1.));
#72=IFCARBITRARYCLOSEDPROFILEDEF(.AREA.,$,#70);
#73=IFCCARTESIANPOINT((0.,0.,0.));
#74=IFCDIRECTION((0.,0.,1.));
#75=IFCDIRECTION((1.,0.,0.));
#76=IFCAXIS2PLACEMENT3D(#73,#74,#75);
#77=IFCEXTRUDEDAREASOLID(#72,#76,#71,3000.);
#78=IFCSHAPEREPRESENTATION(#11,'Body','SweptSolid',(#77));
#79=IFCPRODUCTDEFINITIONSHAPE($,$,(#78));
#85=IFCCARTESIANPOINT((0.,0.,0.));
#86=IFCDIRECTION((0.,0.,1.));
#87=IFCDIRECTION((6.123233995736766E-17,1.,0.));
#88=IFCAXIS2PLACEMENT3D(#85,#86,#87);
#89=IFCLOCALPLACEMENT(#22,#88);
#90=IFCWALL('0KW09Zqtz9ZBzC$PJVLBoU',$,'Exterior Wall 4',$,$,#111,#101,$,$);
#91=IFCCARTESIANPOINTLIST2D(((0.,0.),(0.,200.),(5000.,200.),(5000.,0.),(0.,0.)));
#92=IFCINDEXEDPOLYCURVE(#91,$,.F.);
#93=IFCDIRECTION((0.,0.,1.));
#94=IFCARBITRARYCLOSEDPROFILEDEF(.AREA.,$,#92);
#95=IFCCARTESIANPOINT((0.,0.,0.));
#96=IFCDIRECTION((0.,0.,1.));
#97=IFCDIRECTION((1.,0.,0.));
#98=IFCAXIS2PLACEMENT3D(#95,#96,#97);
#99=IFCEXTRUDEDAREASOLID(#94,#98,#93,3000.);
#100=IFCSHAPEREPRESENTATION(#11,'Body','SweptSolid',(#99));
#101=IFCPRODUCTDEFINITIONSHAPE($,$,(#100));
#107=IFCCARTESIANPOINT((9000.,0.,0.));
#108=IFCDIRECTION((0.,0.,1.));
#109=IFCDIRECTION((6.123233995736766E-17,1.,0.));
#110=IFCAXIS2PLACEMENT3D(#107,#108,#109);
#111=IFCLOCALPLACEMENT(#22,#110);
#112=IFCWALL('09QdPdTRTCMhBQ0ZSTiHIM',$,'Interior Partition 1',$,$,#133,#123,$,$);
#113=IFCCARTESIANPOINTLIST2D(((0.,0.),(0.,120.),(4600.,120.),(4600.,0.),(0.,0.)));
#114=IFCINDEXEDPOLYCURVE(#113,$,.F.);
#115=IFCDIRECTION((0.,0.,1.));
#116=IFCARBITRARYCLOSEDPROFILEDEF(.AREA.,$,#114);
#117=IFCCARTESIANPOINT((0.,0.,0.));
#118=IFCDIRECTION((0.,0.,1.));
#119=IFCDIRECTION((1.,0.,0.));
#120=IFCAXIS2PLACEMENT3D(#117,#118,#119);
#121=IFCEXTRUDEDAREASOLID(#116,#120,#115,3000.);
#122=IFCSHAPEREPRESENTATION(#11,'Body','SweptSolid',(#121));
#123=IFCPRODUCTDEFINITIONSHAPE($,$,(#122));
#129=IFCCARTESIANPOINT((3000.,200.,0.));
#130=IFCDIRECTION((0.,0.,1.));
#131=IFCDIRECTION((6.123233995736766E-17,1.,0.));
#132=IFCAXIS2PLACEMENT3D(#129,#130,#131);
#133=IFCLOCALPLACEMENT(#22,#132);
#134=IFCWALL('36AoNJ$Iv3TwVTIwqur6SJ',$,'Interior Partition 2',$,$,#155,#145,$,$);
#135=IFCCARTESIANPOINTLIST2D(((0.,0.),(0.,120.),(4600.,120.),(4600.,0.),(0.,0.)));
#136=IFCINDEXEDPOLYCURVE(#135,$,.F.);
#137=IFCDIRECTION((0.,0.,1.));
#138=IFCARBITRARYCLOSEDPROFILEDEF(.AREA.,$,#136);
#139=IFCCARTESIANPOINT((0.,0.,0.));
#140=IFCDIRECTION((0.,0.,1.));
#141=IFCDIRECTION((1.,0.,0.));
#142=IFCAXIS2PLACEMENT3D(#139,#140,#141);
#143=IFCEXTRUDEDAREASOLID(#138,#142,#137,3000.);
#144=IFCSHAPEREPRESENTATION(#11,'Body','SweptSolid',(#143));
#145=IFCPRODUCTDEFINITIONSHAPE($,$,(#144));
#151=IFCCARTESIANPOINT((6000.,200.,0.));
#152=IFCDIRECTION((0.,0.,1.));
#153=IFCDIRECTION((6.123233995736766E-17,1.,0.));
#154=IFCAXIS2PLACEMENT3D(#151,#152,#153);
#155=IFCLOCALPLACEMENT(#22,#154);
#156=IFCSLAB('3vl8C9$ZvEJOc5TKcU3Coa',$,'Floor Slab 1',$,$,#173,#163,$,$);
#157=IFCCARTESIANPOINTLIST2D(((0.,0.),(9000.,0.),(9000.,5000.),(0.,5000.),(0.,0.)));
#158=IFCINDEXEDPOLYCURVE(#157,$,$);
#159=IFCDIRECTION((0.,0.,1.));
#160=IFCARBITRARYCLOSEDPROFILEDEF(.AREA.,$,#158);
#161=IFCEXTRUDEDAREASOLID(#160,$,#159,200.);
#162=IFCSHAPEREPRESENTATION(#11,'Body','SweptSolid',(#161));
#163=IFCPRODUCTDEFINITIONSHAPE($,$,(#162));
#169=IFCCARTESIANPOINT((0.,0.,0.));
#170=IFCDIRECTION((0.,0.,1.));
#171=IFCDIRECTION((1.,0.,0.));
#172=IFCAXIS2PLACEMENT3D(#169,#170,#171);
#173=IFCLOCALPLACEMENT(#22,#172);
#174=IFCDOOR('00WNVUOs9BthXhxPi2LAYh',$,'Door 1',$,$,#258,#248,$,$,$,$,$,$);
#175=IFCCARTESIANPOINTLIST2D(((0.,0.),(0.,2.1000000000000001),(0.90000000000000002,2.1000000000000001),(0.90000000000000002,0.),(-24.100000000000001,0.),(-24.100000000000001,-22.899999999999999),(25.,-22.899999999999999),(25.,0.)));
#176=IFCINDEXEDPOLYCURVE(#175,(IFCLINEINDEX((1,2,3,4,5,6,7,8,1))),$);
#177=IFCARBITRARYCLOSEDPROFILEDEF(.AREA.,$,#176);
#178=IFCCARTESIANPOINT((0.,25.,0.));
#179=IFCDIRECTION((0.,-1.,0.));
#180=IFCDIRECTION((1.,0.,0.));
#181=IFCAXIS2PLACEMENT3D(#178,#179,#180);
#182=IFCDIRECTION((0.,0.,-1.));
#183=IFCEXTRUDEDAREASOLID(#177,#181,#182,25.);
#184=IFCCARTESIANPOINTLIST2D(((0.,0.),(0.,2.1000000000000001),(0.90000000000000002,2.1000000000000001),(0.90000000000000002,0.),(-49.100000000000001,0.),(-49.100000000000001,-47.899999999999999),(50.,-47.899999999999999),(50.,0.)));
#185=IFCINDEXEDPOLYCURVE(#184,(IFCLINEINDEX((1,2,3,4,5,6,7,8,1))),$);
#186=IFCARBITRARYCLOSEDPROFILEDEF(.AREA.,$,#185);
#187=IFCCARTESIANPOINT((0.,0.,0.));
#188=IFCDIRECTION((0.,-1.,0.));
#189=IFCDIRECTION((1.,0.,0.));
#190=IFCAXIS2PLACEMENT3D(#187,#188,#189);
#191=IFCDIRECTION((0.,0.,-1.));
#192=IFCEXTRUDEDAREASOLID(#186,#190,#191,25.);
#193=IFCCARTESIANPOINTLIST2D(((0.,0.),(-99.099999999999994,0.),(-99.099999999999994,100.),(0.,100.)));
#194=IFCINDEXEDPOLYCURVE(#193,(IFCLINEINDEX((1,2,3,4,1))),$);
#195=IFCARBITRARYCLOSEDPROFILEDEF(.AREA.,$,#194);
#196=IFCCARTESIANPOINT((50.,0.,0.));
#197=IFCDIRECTION((0.,0.,1.));
#198=IFCDIRECTION((1.,0.,0.));
#199=IFCAXIS2PLACEMENT3D(#196,#197,#198);
#200=IFCDIRECTION((0.,0.,1.));
#201=IFCEXTRUDEDAREASOLID(#195,#199,#200,25.);
#202=IFCCARTESIANPOINTLIST2D(((0.,0.),(0.,27.100000000000001),(50.899999999999999,27.100000000000001),(50.899999999999999,0.),(-24.100000000000001,0.),(-24.100000000000001,-47.899999999999999),(75.,-47.899999999999999),(75.,0.)));
#203=IFCINDEXEDPOLYCURVE(#202,(IFCLINEINDEX((1,2,3,4,5,6,7,8,1))),$);
#204=IFCARBITRARYCLOSEDPROFILEDEF(.AREA.,$,#203);
#205=IFCCARTESIANPOINT((-25.,-5.,0.));
#206=IFCDIRECTION((0.,-1.,0.));
#207=IFCDIRECTION((1.,0.,0.));
#208=IFCAXIS2PLACEMENT3D(#205,#206,#207);
#209=IFCDIRECTION((0.,0.,-1.));
#210=IFCEXTRUDEDAREASOLID(#204,#208,#209,5.);
#211=IFCCARTESIANPOINTLIST2D(((0.,0.),(0.,27.100000000000001),(50.899999999999999,27.100000000000001),(50.899999999999999,0.),(0.89999999999999858,0.),(0.89999999999999858,-22.899999999999999),(50.,-22.899999999999999),(50.,0.)));
#212=IFCINDEXEDPOLYCURVE(#211,(IFCLINEINDEX((1,2,3,4,5,6,7,8,1))),$);
#213=IFCARBITRARYCLOSEDPROFILEDEF(.AREA.,$,#212);
#214=IFCCARTESIANPOINT((-25.,50.,0.));
#215=IFCDIRECTION((0.,-1.,0.));
#216=IFCDIRECTION((1.,0.,0.));
#217=IFCAXIS2PLACEMENT3D(#214,#215,#216);
#218=IFCDIRECTION((0.,0.,-1.));
#219=IFCEXTRUDEDAREASOLID(#213,#217,#218,5.);
#220=IFCCARTESIANPOINTLIST2D(((0.,0.),(-49.100000000000001,0.),(-49.100000000000001,35.),(0.,35.)));
#221=IFCINDEXEDPOLYCURVE(#220,(IFCLINEINDEX((1,2,3,4,1))),$);
#222=IFCARBITRARYCLOSEDPROFILEDEF(.AREA.,$,#221);
#223=IFCCARTESIANPOINT((25.,25.,25.));
#224=IFCDIRECTION((0.,0.,1.));
#225=IFCDIRECTION((1.,0.,0.));
#226=IFCAXIS2PLACEMENT3D(#223,#224,#225);
#227=IFCDIRECTION((0.,0.,1.));
#228=IFCEXTRUDEDAREASOLID(#222,#226,#227,-47.899999999999999);
#229=IFCCARTESIANPOINTLIST2D(((0.,0.),(0.,-40.),(-120.00000000000003,-40.),(-120.00000000000003,-20.),(-20.,-20.),(-20.,0.)));
#230=IFCINDEXEDPOLYCURVE(#229,(IFCLINEINDEX((1,2,3,4,5,6,1))),$);
#231=IFCARBITRARYCLOSEDPROFILEDEF(.AREA.,$,#230);
#232=IFCCARTESIANPOINT((-74.099999999999994,25.,1015.));
#233=IFCDIRECTION((0.,0.,1.));
#234=IFCDIRECTION((1.,0.,0.));
#235=IFCAXIS2PLACEMENT3D(#232,#233,#234);
#236=IFCDIRECTION((0.,0.,1.));
#237=IFCEXTRUDEDAREASOLID(#231,#235,#236,20.);
#238=IFCEXTRUDEDAREASOLID(#239,#242,#246,20.);
#239=IFCARBITRARYCLOSEDPROFILEDEF(.AREA.,$,#240);
#240=IFCINDEXEDPOLYCURVE(#241,(IFCLINEINDEX((1,2,3,4,5,6,1))),$);
#241=IFCCARTESIANPOINTLIST2D(((0.,0.),(0.,40.),(-120.00000000000003,40.),(-120.00000000000003,20.),(-20.,20.),(-20.,0.)));
#242=IFCAXIS2PLACEMENT3D(#243,#244,#245);
#243=IFCCARTESIANPOINT((-74.099999999999994,60.,1015.));
#244=IFCDIRECTION((0.,0.,1.));
#245=IFCDIRECTION((1.,0.,0.));
#246=IFCDIRECTION((0.,0.,1.));
#247=IFCSHAPEREPRESENTATION(#11,'Body','SweptSolid',(#183,#192,#228,#237,#238,#201,#210,#219));
#248=IFCPRODUCTDEFINITIONSHAPE($,$,(#247));
#254=IFCCARTESIANPOINT((800.,-50.,0.));
#255=IFCDIRECTION((0.,0.,1.));
#256=IFCDIRECTION((1.,0.,0.));
#257=IFCAXIS2PLACEMENT3D(#254,#255,#256);
#258=IFCLOCALPLACEMENT(#22,#257);
#259=IFCDOOR('2ctd8dVVPFh8XTn9arc59_',$,'Door 2',$,$,#343,#333,$,$,$,$,$,$);
#260=IFCCARTESIANPOINTLIST2D(((0.,0.),(0.,2.1000000000000001),(0.90000000000000002,2.1000000000000001),(0.90000000000000002,0.),(-24.100000000000001,0.),(-24.100000000000001,-22.899999999999999),(25.,-22.899999999999999),(25.,0.)));
#261=IFCINDEXEDPOLYCURVE(#260,(IFCLINEINDEX((1,2,3,4,5,6,7,8,1))),$);
#262=IFCARBITRARYCLOSEDPROFILEDEF(.AREA.,$,#261);
#263=IFCCARTESIANPOINT((0.,25.,0.));
#264=IFCDIRECTION((0.,-1.,0.));
#265=IFCDIRECTION((1.,0.,0.));
#266=IFCAXIS2PLACEMENT3D(#263,#264,#265);
#267=IFCDIRECTION((0.,0.,-1.));
#268=IFCEXTRUDEDAREASOLID(#262,#266,#267,25.);
#269=IFCCARTESIANPOINTLIST2D(((0.,0.),(0.,2.1000000000000001),(0.90000000000000002,2.1000000000000001),(0.90000000000000002,0.),(-49.100000000000001,0.),(-49.100000000000001,-47.899999999999999),(50.,-47.899999999999999),(50.,0.)));
#270=IFCINDEXEDPOLYCURVE(#269,(IFCLINEINDEX((1,2,3,4,5,6,7,8,1))),$);
#271=IFCARBITRARYCLOSEDPROFILEDEF(.AREA.,$,#270);
#272=IFCCARTESIANPOINT((0.,0.,0.));
#273=IFCDIRECTION((0.,-1.,0.));
#274=IFCDIRECTION((1.,0.,0.));
#275=IFCAXIS2PLACEMENT3D(#272,#273,#274);
#276=IFCDIRECTION((0.,0.,-1.));
#277=IFCEXTRUDEDAREASOLID(#271,#275,#276,25.);
#278=IFCCARTESIANPOINTLIST2D(((0.,0.),(-99.099999999999994,0.),(-99.099999999999994,100.),(0.,100.)));
#279=IFCINDEXEDPOLYCURVE(#278,(IFCLINEINDEX((1,2,3,4,1))),$);
#280=IFCARBITRARYCLOSEDPROFILEDEF(.AREA.,$,#279);
#281=IFCCARTESIANPOINT((50.,0.,0.));
#282=IFCDIRECTION((0.,0.,1.));
#283=IFCDIRECTION((1.,0.,0.));
#284=IFCAXIS2PLACEMENT3D(#281,#282,#283);
#285=IFCDIRECTION((0.,0.,1.));
#286=IFCEXTRUDEDAREASOLID(#280,#284,#285,25.);
#287=IFCCARTESIANPOINTLIST2D(((0.,0.),(0.,27.100000000000001),(50.899999999999999,27.100000000000001),(50.899999999999999,0.),(-24.100000000000001,0.),(-24.100000000000001,-47.899999999999999),(75.,-47.899999999999999),(75.,0.)));
#288=IFCINDEXEDPOLYCURVE(#287,(IFCLINEINDEX((1,2,3,4,5,6,7,8,1))),$);
#289=IFCARBITRARYCLOSEDPROFILEDEF(.AREA.,$,#288);
#290=IFCCARTESIANPOINT((-25.,-5.,0.));
#291=IFCDIRECTION((0.,-1.,0.));
#292=IFCDIRECTION((1.,0.,0.));
#293=IFCAXIS2PLACEMENT3D(#290,#291,#292);
#294=IFCDIRECTION((0.,0.,-1.));
#295=IFCEXTRUDEDAREASOLID(#289,#293,#294,5.);
#296=IFCCARTESIANPOINTLIST2D(((0.,0.),(0.,27.100000000000001),(50.899999999999999,27.100000000000001),(50.899999999999999,0.),(0.89999999999999858,0.),(0.89999999999999858,-22.899999999999999),(50.,-22.899999999999999),(50.,0.)));
#297=IFCINDEXEDPOLYCURVE(#296,(IFCLINEINDEX((1,2,3,4,5,6,7,8,1))),$);
#298=IFCARBITRARYCLOSEDPROFILEDEF(.AREA.,$,#297);
#299=IFCCARTESIANPOINT((-25.,50.,0.));
#300=IFCDIRECTION((0.,-1.,0.));
#301=IFCDIRECTION((1.,0.,0.));
#302=IFCAXIS2PLACEMENT3D(#299,#300,#301);
#303=IFCDIRECTION((0.,0.,-1.));
#304=IFCEXTRUDEDAREASOLID(#298,#302,#303,5.);
#305=IFCCARTESIANPOINTLIST2D(((0.,0.),(-49.100000000000001,0.),(-49.100000000000001,35.),(0.,35.)));
#306=IFCINDEXEDPOLYCURVE(#305,(IFCLINEINDEX((1,2,3,4,1))),$);
#307=IFCARBITRARYCLOSEDPROFILEDEF(.AREA.,$,#306);
#308=IFCCARTESIANPOINT((25.,25.,25.));
#309=IFCDIRECTION((0.,0.,1.));
#310=IFCDIRECTION((1.,0.,0.));
#311=IFCAXIS2PLACEMENT3D(#308,#309,#310);
#312=IFCDIRECTION((0.,0.,1.));
#313=IFCEXTRUDEDAREASOLID(#307,#311,#312,-47.899999999999999);
#314=IFCCARTESIANPOINTLIST2D(((0.,0.),(0.,-40.),(-120.00000000000003,-40.),(-120.00000000000003,-20.),(-20.,-20.),(-20.,0.)));
#315=IFCINDEXEDPOLYCURVE(#314,(IFCLINEINDEX((1,2,3,4,5,6,1))),$);
#316=IFCARBITRARYCLOSEDPROFILEDEF(.AREA.,$,#315);
#317=IFCCARTESIANPOINT((-74.099999999999994,25.,1015.));
#318=IFCDIRECTION((0.,0.,1.));
#319=IFCDIRECTION((1.,0.,0.));
#320=IFCAXIS2PLACEMENT3D(#317,#318,#319);
#321=IFCDIRECTION((0.,0.,1.));
#322=IFCEXTRUDEDAREASOLID(#316,#320,#321,20.);
#323=IFCEXTRUDEDAREASOLID(#324,#327,#331,20.);
#324=IFCARBITRARYCLOSEDPROFILEDEF(.AREA.,$,#325);
#325=IFCINDEXEDPOLYCURVE(#326,(IFCLINEINDEX((1,2,3,4,5,6,1))),$);
#326=IFCCARTESIANPOINTLIST2D(((0.,0.),(0.,40.),(-120.00000000000003,40.),(-120.00000000000003,20.),(-20.,20.),(-20.,0.)));
#327=IFCAXIS2PLACEMENT3D(#328,#329,#330);
#328=IFCCARTESIANPOINT((-74.099999999999994,60.,1015.));
#329=IFCDIRECTION((0.,0.,1.));
#330=IFCDIRECTION((1.,0.,0.));
#331=IFCDIRECTION((0.,0.,1.));
#332=IFCSHAPEREPRESENTATION(#11,'Body','SweptSolid',(#268,#277,#313,#322,#323,#286,#295,#304));
#333=IFCPRODUCTDEFINITIONSHAPE($,$,(#332));
#339=IFCCARTESIANPOINT((1700.0000000000002,-50.,0.));
#340=IFCDIRECTION((0.,0.,1.));
#341=IFCDIRECTION((1.,0.,0.));
#342=IFCAXIS2PLACEMENT3D(#339,#340,#341);
#343=IFCLOCALPLACEMENT(#22,#342);
#344=IFCDOOR('2h3X30DZD9pAbbiatWzt45',$,'Door 3',$,$,#428,#418,$,$,$,$,$,$);
#345=IFCCARTESIANPOINTLIST2D(((0.,0.),(0.,2.1000000000000001),(0.90000000000000002,2.1000000000000001),(0.90000000000000002,0.),(-24.100000000000001,0.),(-24.100000000000001,-22.899999999999999),(25.,-22.899999999999999),(25.,0.)));
#346=IFCINDEXEDPOLYCURVE(#345,(IFCLINEINDEX((1,2,3,4,5,6,7,8,1))),$);
#347=IFCARBITRARYCLOSEDPROFILEDEF(.AREA.,$,#346);
#348=IFCCARTESIANPOINT((0.,25.,0.));
#349=IFCDIRECTION((0.,-1.,0.));
#350=IFCDIRECTION((1.,0.,0.));
#351=IFCAXIS2PLACEMENT3D(#348,#349,#350);
#352=IFCDIRECTION((0.,0.,-1.));
#353=IFCEXTRUDEDAREASOLID(#347,#351,#352,25.);
#354=IFCCARTESIANPOINTLIST2D(((0.,0.),(0.,2.1000000000000001),(0.90000000000000002,2.1000000000000001),(0.90000000000000002,0.),(-49.100000000000001,0.),(-49.100000000000001,-47.899999999999999),(50.,-47.899999999999999),(50.,0.)));
#355=IFCINDEXEDPOLYCURVE(#354,(IFCLINEINDEX((1,2,3,4,5,6,7,8,1))),$);
#356=IFCARBITRARYCLOSEDPROFILEDEF(.AREA.,$,#355);
#357=IFCCARTESIANPOINT((0.,0.,0.));
#358=IFCDIRECTION((0.,-1.,0.));
#359=IFCDIRECTION((1.,0.,0.));
#360=IFCAXIS2PLACEMENT3D(#357,#358,#359);
#361=IFCDIRECTION((0.,0.,-1.));
#362=IFCEXTRUDEDAREASOLID(#356,#360,#361,25.);
#363=IFCCARTESIANPOINTLIST2D(((0.,0.),(-99.099999999999994,0.),(-99.099999999999994,100.),(0.,100.)));
#364=IFCINDEXEDPOLYCURVE(#363,(IFCLINEINDEX((1,2,3,4,1))),$);
#365=IFCARBITRARYCLOSEDPROFILEDEF(.AREA.,$,#364);
#366=IFCCARTESIANPOINT((50.,0.,0.));
#367=IFCDIRECTION((0.,0.,1.));
#368=IFCDIRECTION((1.,0.,0.));
#369=IFCAXIS2PLACEMENT3D(#366,#367,#368);
#370=IFCDIRECTION((0.,0.,1.));
#371=IFCEXTRUDEDAREASOLID(#365,#369,#370,25.);
#372=IFCCARTESIANPOINTLIST2D(((0.,0.),(0.,27.100000000000001),(50.899999999999999,27.100000000000001),(50.899999999999999,0.),(-24.100000000000001,0.),(-24.100000000000001,-47.899999999999999),(75.,-47.899999999999999),(75.,0.)));
#373=IFCINDEXEDPOLYCURVE(#372,(IFCLINEINDEX((1,2,3,4,5,6,7,8,1))),$);
#374=IFCARBITRARYCLOSEDPROFILEDEF(.AREA.,$,#373);
#375=IFCCARTESIANPOINT((-25.,-5.,0.));
#376=IFCDIRECTION((0.,-1.,0.));
#377=IFCDIRECTION((1.,0.,0.));
#378=IFCAXIS2PLACEMENT3D(#375,#376,#377);
#379=IFCDIRECTION((0.,0.,-1.));
#380=IFCEXTRUDEDAREASOLID(#374,#378,#379,5.);
#381=IFCCARTESIANPOINTLIST2D(((0.,0.),(0.,27.100000000000001),(50.899999999999999,27.100000000000001),(50.899999999999999,0.),(0.89999999999999858,0.),(0.89999999999999858,-22.899999999999999),(50.,-22.899999999999999),(50.,0.)));
#382=IFCINDEXEDPOLYCURVE(#381,(IFCLINEINDEX((1,2,3,4,5,6,7,8,1))),$);
#383=IFCARBITRARYCLOSEDPROFILEDEF(.AREA.,$,#382);
#384=IFCCARTESIANPOINT((-25.,50.,0.));
#385=IFCDIRECTION((0.,-1.,0.));
#386=IFCDIRECTION((1.,0.,0.));
#387=IFCAXIS2PLACEMENT3D(#384,#385,#386);
#388=IFCDIRECTION((0.,0.,-1.));
#389=IFCEXTRUDEDAREASOLID(#383,#387,#388,5.);
#390=IFCCARTESIANPOINTLIST2D(((0.,0.),(-49.100000000000001,0.),(-49.100000000000001,35.),(0.,35.)));
#391=IFCINDEXEDPOLYCURVE(#390,(IFCLINEINDEX((1,2,3,4,1))),$);
#392=IFCARBITRARYCLOSEDPROFILEDEF(.AREA.,$,#391);
#393=IFCCARTESIANPOINT((25.,25.,25.));
#394=IFCDIRECTION((0.,0.,1.));
#395=IFCDIRECTION((1.,0.,0.));
#396=IFCAXIS2PLACEMENT3D(#393,#394,#395);
#397=IFCDIRECTION((0.,0.,1.));
#398=IFCEXTRUDEDAREASOLID(#392,#396,#397,-47.899999999999999);
#399=IFCCARTESIANPOINTLIST2D(((0.,0.),(0.,-40.),(-120.00000000000003,-40.),(-120.00000000000003,-20.),(-20.,-20.),(-20.,0.)));
#400=IFCINDEXEDPOLYCURVE(#399,(IFCLINEINDEX((1,2,3,4,5,6,1))),$);
#401=IFCARBITRARYCLOSEDPROFILEDEF(.AREA.,$,#400);
#402=IFCCARTESIANPOINT((-74.099999999999994,25.,1015.));
#403=IFCDIRECTION((0.,0.,1.));
#404=IFCDIRECTION((1.,0.,0.));
#405=IFCAXIS2PLACEMENT3D(#402,#403,#404);
#406=IFCDIRECTION((0.,0.,1.));
#407=IFCEXTRUDEDAREASOLID(#401,#405,#406,20.);
#408=IFCEXTRUDEDAREASOLID(#409,#412,#416,20.);
#409=IFCARBITRARYCLOSEDPROFILEDEF(.AREA.,$,#410);
#410=IFCINDEXEDPOLYCURVE(#411,(IFCLINEINDEX((1,2,3,4,5,6,1))),$);
#411=IFCCARTESIANPOINTLIST2D(((0.,0.),(0.,40.),(-120.00000000000003,40.),(-120.00000000000003,20.),(-20.,20.),(-20.,0.)));
#412=IFCAXIS2PLACEMENT3D(#413,#414,#415);
#413=IFCCARTESIANPOINT((-74.099999999999994,60.,1015.));
#414=IFCDIRECTION((0.,0.,1.));
#415=IFCDIRECTION((1.,0.,0.));
#416=IFCDIRECTION((0.,0.,1.));
#417=IFCSHAPEREPRESENTATION(#11,'Body','SweptSolid',(#353,#362,#398,#407,#408,#371,#380,#389));
#418=IFCPRODUCTDEFINITIONSHAPE($,$,(#417));
#424=IFCCARTESIANPOINT((2600.,-50.,0.));
#425=IFCDIRECTION((0.,0.,1.));
#426=IFCDIRECTION((1.,0.,0.));
#427=IFCAXIS2PLACEMENT3D(#424,#425,#426);
#428=IFCLOCALPLACEMENT(#22,#427);
#429=IFCWINDOW('01vZ5BHOL8JwoMZ0uZGnR2',$,'Window 1',$,$,#483,#473,$,$,$,$,$,$);
#430=IFCCARTESIANPOINTLIST2D(((0.,0.),(1.2,0.),(1.2,1.1000000000000001),(0.,1.1000000000000001)));
#431=IFCINDEXEDPOLYCURVE(#430,(IFCLINEINDEX((1,2,3,4,1))),$);
#432=IFCCARTESIANPOINTLIST2D(((25.,25.),(-23.799999999999997,25.),(-23.799999999999997,-23.899999999999999),(25.,-23.899999999999999)));
#433=IFCINDEXEDPOLYCURVE(#432,(IFCLINEINDEX((1,2,3,4,1))),$);
#434=IFCARBITRARYPROFILEDEFWITHVOIDS(.AREA.,$,#431,(#433));
#435=IFCCARTESIANPOINT((0.,90.,0.));
#436=IFCDIRECTION((0.,-1.,0.));
#437=IFCDIRECTION((1.,0.,0.));
#438=IFCAXIS2PLACEMENT3D(#435,#436,#437);
#439=IFCDIRECTION((0.,0.,-1.));
#440=IFCEXTRUDEDAREASOLID(#434,#438,#439,10.);
#441=IFCCARTESIANPOINTLIST2D(((0.,0.),(1.2,0.),(1.2,1.1000000000000001),(0.,1.1000000000000001)));
#442=IFCINDEXEDPOLYCURVE(#441,(IFCLINEINDEX((1,2,3,4,1))),$);
#443=IFCCARTESIANPOINTLIST2D(((50.,50.),(-48.799999999999997,50.),(-48.799999999999997,-48.900000000000006),(50.,-48.900000000000006)));
#444=IFCINDEXEDPOLYCURVE(#443,(IFCLINEINDEX((1,2,3,4,1))),$);
#445=IFCARBITRARYPROFILEDEFWITHVOIDS(.AREA.,$,#442,(#444));
#446=IFCCARTESIANPOINT((0.,50.,0.));
#447=IFCDIRECTION((0.,-1.,0.));
#448=IFCDIRECTION((1.,0.,0.));
#449=IFCAXIS2PLACEMENT3D(#446,#447,#448);
#450=IFCDIRECTION((0.,0.,-1.));
#451=IFCEXTRUDEDAREASOLID(#445,#449,#450,40.);
#452=IFCCARTESIANPOINTLIST2D(((0.,0.),(-48.799999999999997,0.),(-48.799999999999997,-48.899999999999999),(0.,-48.899999999999999)));
#453=IFCINDEXEDPOLYCURVE(#452,(IFCLINEINDEX((1,2,3,4,1))),$);
#454=IFCCARTESIANPOINTLIST2D(((35.,35.),(-83.799999999999997,35.),(-83.799999999999997,-83.900000000000006),(35.,-83.900000000000006)));
#455=IFCINDEXEDPOLYCURVE(#454,(IFCLINEINDEX((1,2,3,4,1))),$);
#456=IFCARBITRARYPROFILEDEFWITHVOIDS(.AREA.,$,#453,(#455));
#457=IFCCARTESIANPOINT((25.,90.,25.));
#458=IFCDIRECTION((0.,-1.,0.));
#459=IFCDIRECTION((1.,0.,0.));
#460=IFCAXIS2PLACEMENT3D(#457,#458,#459);
#461=IFCDIRECTION((0.,0.,-1.));
#462=IFCEXTRUDEDAREASOLID(#456,#460,#461,35.);
#463=IFCINDEXEDPOLYCURVE(#464,(IFCLINEINDEX((1,2,3,4,1))),$);
#464=IFCCARTESIANPOINTLIST2D(((35.,35.),(-83.799999999999997,35.),(-83.799999999999997,-83.900000000000006),(35.,-83.900000000000006)));
#465=IFCARBITRARYCLOSEDPROFILEDEF(.AREA.,$,#463);
#466=IFCCARTESIANPOINT((25.,102.5,25.));
#467=IFCDIRECTION((0.,-1.,0.));
#468=IFCDIRECTION((1.,0.,0.));
#469=IFCAXIS2PLACEMENT3D(#466,#467,#468);
#470=IFCDIRECTION((0.,0.,-1.));
#471=IFCEXTRUDEDAREASOLID(#465,#469,#470,10.);
#472=IFCSHAPEREPRESENTATION(#11,'Body','SweptSolid',(#440,#451,#462,#471));
#473=IFCPRODUCTDEFINITIONSHAPE($,$,(#472));
#479=IFCCARTESIANPOINT((1200.,5050.,1100.));
#480=IFCDIRECTION((0.,0.,1.));
#481=IFCDIRECTION((1.,0.,0.));
#482=IFCAXIS2PLACEMENT3D(#479,#480,#481);
#483=IFCLOCALPLACEMENT(#22,#482);
#484=IFCWINDOW('2OV6HHQIz4thfQh7atJUiJ',$,'Window 2',$,$,#538,#528,$,$,$,$,$,$);
#485=IFCCARTESIANPOINTLIST2D(((0.,0.),(1.2,0.),(1.2,1.1000000000000001),(0.,1.1000000000000001)));
#486=IFCINDEXEDPOLYCURVE(#485,(IFCLINEINDEX((1,2,3,4,1))),$);
#487=IFCCARTESIANPOINTLIST2D(((25.,25.),(-23.799999999999997,25.),(-23.799999999999997,-23.899999999999999),(25.,-23.899999999999999)));
#488=IFCINDEXEDPOLYCURVE(#487,(IFCLINEINDEX((1,2,3,4,1))),$);
#489=IFCARBITRARYPROFILEDEFWITHVOIDS(.AREA.,$,#486,(#488));
#490=IFCCARTESIANPOINT((0.,90.,0.));
#491=IFCDIRECTION((0.,-1.,0.));
#492=IFCDIRECTION((1.,0.,0.));
#493=IFCAXIS2PLACEMENT3D(#490,#491,#492);
#494=IFCDIRECTION((0.,0.,-1.));
#495=IFCEXTRUDEDAREASOLID(#489,#493,#494,10.);
#496=IFCCARTESIANPOINTLIST2D(((0.,0.),(1.2,0.),(1.2,1.1000000000000001),(0.,1.1000000000000001)));
#497=IFCINDEXEDPOLYCURVE(#496,(IFCLINEINDEX((1,2,3,4,1))),$);
#498=IFCCARTESIANPOINTLIST2D(((50.,50.),(-48.799999999999997,50.),(-48.799999999999997,-48.900000000000006),(50.,-48.900000000000006)));
#499=IFCINDEXEDPOLYCURVE(#498,(IFCLINEINDEX((1,2,3,4,1))),$);
#500=IFCARBITRARYPROFILEDEFWITHVOIDS(.AREA.,$,#497,(#499));
#501=IFCCARTESIANPOINT((0.,50.,0.));
#502=IFCDIRECTION((0.,-1.,0.));
#503=IFCDIRECTION((1.,0.,0.));
#504=IFCAXIS2PLACEMENT3D(#501,#502,#503);
#505=IFCDIRECTION((0.,0.,-1.));
#506=IFCEXTRUDEDAREASOLID(#500,#504,#505,40.);
#507=IFCCARTESIANPOINTLIST2D(((0.,0.),(-48.799999999999997,0.),(-48.799999999999997,-48.899999999999999),(0.,-48.899999999999999)));
#508=IFCINDEXEDPOLYCURVE(#507,(IFCLINEINDEX((1,2,3,4,1))),$);
#509=IFCCARTESIANPOINTLIST2D(((35.,35.),(-83.799999999999997,35.),(-83.799999999999997,-83.900000000000006),(35.,-83.900000000000006)));
#510=IFCINDEXEDPOLYCURVE(#509,(IFCLINEINDEX((1,2,3,4,1))),$);
#511=IFCARBITRARYPROFILEDEFWITHVOIDS(.AREA.,$,#508,(#510));
#512=IFCCARTESIANPOINT((25.,90.,25.));
#513=IFCDIRECTION((0.,-1.,0.));
#514=IFCDIRECTION((1.,0.,0.));
#515=IFCAXIS2PLACEMENT3D(#512,#513,#514);
#516=IFCDIRECTION((0.,0.,-1.));
#517=IFCEXTRUDEDAREASOLID(#511,#515,#516,35.);
#518=IFCINDEXEDPOLYCURVE(#519,(IFCLINEINDEX((1,2,3,4,1))),$);
#519=IFCCARTESIANPOINTLIST2D(((35.,35.),(-83.799999999999997,35.),(-83.799999999999997,-83.900000000000006),(35.,-83.900000000000006)));
#520=IFCARBITRARYCLOSEDPROFILEDEF(.AREA.,$,#518);
#521=IFCCARTESIANPOINT((25.,102.5,25.));
#522=IFCDIRECTION((0.,-1.,0.));
#523=IFCDIRECTION((1.,0.,0.));
#524=IFCAXIS2PLACEMENT3D(#521,#522,#523);
#525=IFCDIRECTION((0.,0.,-1.));
#526=IFCEXTRUDEDAREASOLID(#520,#524,#525,10.);
#527=IFCSHAPEREPRESENTATION(#11,'Body','SweptSolid',(#495,#506,#517,#526));
#528=IFCPRODUCTDEFINITIONSHAPE($,$,(#527));
#534=IFCCARTESIANPOINT((2100.,5050.,1100.));
#535=IFCDIRECTION((0.,0.,1.));
#536=IFCDIRECTION((1.,0.,0.));
#537=IFCAXIS2PLACEMENT3D(#534,#535,#536);
#538=IFCLOCALPLACEMENT(#22,#537);
#539=IFCSPACE('3vzdCuedr2Zgrq84yCHT3O',$,'OFFICE',$,$,#552,#547,$,$,$,$);
#540=IFCRELAGGREGATES('1ooTi8j6PEaRS6slpbNAIK',$,$,$,#16,(#566,#539,#553));
#541=IFCCARTESIANPOINTLIST2D(((0.,0.),(4250.,0.),(4250.,2250.),(0.,2250.),(0.,0.)));
#542=IFCINDEXEDPOLYCURVE(#541,$,$);
#543=IFCDIRECTION((0.,0.,1.));
#544=IFCARBITRARYCLOSEDPROFILEDEF(.AREA.,$,#542);
#545=IFCEXTRUDEDAREASOLID(#544,$,#543,2799.9999999999995);
#546=IFCSHAPEREPRESENTATION(#11,'Body','SweptSolid',(#545));
#547=IFCPRODUCTDEFINITIONSHAPE($,$,(#546));
#548=IFCCARTESIANPOINT((100.,100.,0.));
#549=IFCDIRECTION((0.,0.,1.));
#550=IFCDIRECTION((1.,0.,0.));
#551=IFCAXIS2PLACEMENT3D(#548,#549,#550);
#552=IFCLOCALPLACEMENT(#22,#551);
#553=IFCSPACE('1VsVyUo451T9q87rF0uoT9',$,'STORAGE',$,$,#565,#560,$,$,$,$);
#554=IFCCARTESIANPOINTLIST2D(((0.,0.),(4250.,0.),(4250.,2250.),(0.,2250.),(0.,0.)));
#555=IFCINDEXEDPOLYCURVE(#554,$,$);
#556=IFCDIRECTION((0.,0.,1.));
#557=IFCARBITRARYCLOSEDPROFILEDEF(.AREA.,$,#555);
#558=IFCEXTRUDEDAREASOLID(#557,$,#556,2799.9999999999995);
#559=IFCSHAPEREPRESENTATION(#11,'Body','SweptSolid',(#558));
#560=IFCPRODUCTDEFINITIONSHAPE($,$,(#559));
#561=IFCCARTESIANPOINT((4600.,100.,0.));
#562=IFCDIRECTION((0.,0.,1.));
#563=IFCDIRECTION((1.,0.,0.));
#564=IFCAXIS2PLACEMENT3D(#561,#562,#563);
#565=IFCLOCALPLACEMENT(#22,#564);
#566=IFCSPACE('2GC$BbRujAex3cNnIpGbkk',$,'WC',$,$,#578,#573,$,$,$,$);
#567=IFCCARTESIANPOINTLIST2D(((0.,0.),(4250.,0.),(4250.,2250.),(0.,2250.),(0.,0.)));
#568=IFCINDEXEDPOLYCURVE(#567,$,$);
#569=IFCDIRECTION((0.,0.,1.));
#570=IFCARBITRARYCLOSEDPROFILEDEF(.AREA.,$,#568);
#571=IFCEXTRUDEDAREASOLID(#570,$,#569,2799.9999999999995);
#572=IFCSHAPEREPRESENTATION(#11,'Body','SweptSolid',(#571));
#573=IFCPRODUCTDEFINITIONSHAPE($,$,(#572));
#574=IFCCARTESIANPOINT((100.,2600.,0.));
#575=IFCDIRECTION((0.,0.,1.));
#576=IFCDIRECTION((1.,0.,0.));
#577=IFCAXIS2PLACEMENT3D(#574,#575,#576);
#578=IFCLOCALPLACEMENT(#22,#577);
ENDSEC;
END-ISO-10303-21;
