999
FreeCAD v0.21 33771 (Git)
  0
SECTION
  2
HEADER
  9
$ACADVER
  1
AC1014
  9
$ACADMAINTVER
 70
     9
  9
$DWGCODEPAGE
  3
ANSI_1252
  9
$TEXTSTYLE
  7
STANDARD
  9
$DIMSTYLE
  2
STANDARD
  9
$DIMTXSTY
  7
STANDARD
  9
$CMLSTYLE
  2
STANDARD
  9
$LUNITS
 70
2
  9
$INSUNITS
 70
4
  9
$PEXTMAX
 10
50
 20
50
 30
50
  9
$PEXTMIN
 10
0
 20
0
 30
0
  9
$HANDSEED
  5
FFFF
  0
ENDSEC
  0
SECTION
  2
CLASSES
  0
CLASS
  1
ACDBDICTIONARYWDFLT
  2
AcDbDictionaryWithDefault
  3
ObjectDBX Classes
 90
        0
280
     0
281
     0
  0
CLASS
  1
XRECORD
  2
AcDbXrecord
  3
ObjectDBX Classes
 90
        0
280
     0
281
     0
  0
CLASS
  1
LWPOLYLINE
  2
AcDbPolyline
  3
ObjectDBX Classes
 90
        0
280
     0
281
     1
  0
ENDSEC
  0
SECTION
  2
TABLES
  0
TABLE
  2
VPORT
  5
20
330
0
100
AcDbSymbolTable
 70
     1
  0
VPORT
  5
21
330
20
100
AcDbSymbolTableRecord
100
AcDbViewportTableRecord
  2
*ACTIVE
 70
     0
  0
ENDTAB
  0
TABLE
  2
LTYPE
  5
22
330
0
100
AcDbSymbolTable
 70
     1
  0
LTYPE
  5
23
330
21
100
AcDbSymbolTableRecord
100
AcDbLinetypeTableRecord
  2
BYBLOCK
 70
     0
  3

 72
    65
 73
     0
 40
0.0
  0
LTYPE
  5
24
330
21
100
AcDbSymbolTableRecord
100
AcDbLinetypeTableRecord
  2
BYLAYER
 70
     0
  3

 72
    65
 73
     0
 40
0.0
  0
LTYPE
  5
25
330
21
100
AcDbSymbolTableRecord
100
AcDbLinetypeTableRecord
  2
CONTINUOUS
 70
     0
  3
Solid line
 72
    65
 73
     0
 40
0.0
  0
ENDTAB
  0
TABLE
  2
LAYER
  5
B2F
330
0
100
AcDbSymbolTable
 70
6
  0
LAYER
  5
B30
330
B2F
100
AcDbSymbolTableRecord
100
AcDbLayerTableRecord
  2
0
 70
   0
 62
   7
  6
CONTINUOUS
  0
LAYER
  5
B31
330
B2F
100
AcDbSymbolTableRecord
100
AcDbLayerTableRecord
  2
none
 70
    0
 62
    7
  6
CONTINUOUS
  0
LAYER
  5
B32
330
B2F
100
AcDbSymbolTableRecord
100
AcDbLayerTableRecord
  2
Wire
 70
    0
 62
    7
  6
CONTINUOUS
  0
LAYER
  5
B33
330
B2F
100
AcDbSymbolTableRecord
100
AcDbLayerTableRecord
  2
Circle
 70
    0
 62
    7
  6
CONTINUOUS
  0
LAYER
  5
B34
330
B2F
100
AcDbSymbolTableRecord
100
AcDbLayerTableRecord
  2
ShapeString
 70
    0
 62
    7
  6
CONTINUOUS
  0
LAYER
  5
B35
330
B2F
100
AcDbSymbolTableRecord
100
AcDbLayerTableRecord
  2
ShapeString001
 70
    0
 62
    7
  6
CONTINUOUS
  0
ENDTAB
  0
TABLE
  2
STYLE
  5
70
330
0
100
AcDbSymbolTable
 70
     2
  0
STYLE
  5
71
330
70
100
AcDbSymbolTableRecord
100
AcDbTextStyleTableRecord
  2
STANDARD
 70
     0
 40
0.0
 41
1.0
 50
0.0
 71
     0
 42
2.5
  3
arial.ttf
  4

  0
STYLE
  5
72
330
70
100
AcDbSymbolTableRecord
100
AcDbTextStyleTableRecord
  2
ANNOTATIVE
 70
     0
 40
0.0
 41
1.0
 50
0.0
 71
     0
 42
2.5
  3
arial.ttf
  4

  0
ENDTAB
  0
TABLE
  2
VIEW
  5
73
330
0
100
AcDbSymbolTable
 70
     0
  0
ENDTAB
  0
TABLE
  2
UCS
  5
74
330
0
100
AcDbSymbolTable
 70
     0
  0
ENDTAB
  0
TABLE
  2
APPID
  5
75
330
0
100
AcDbSymbolTable
 70
     2
  0
APPID
  5
76
330
75
100
AcDbSymbolTableRecord
100
AcDbRegAppTableRecord
  2
ACAD
 70
     0
  0
APPID
  5
77
330
75
100
AcDbSymbolTableRecord
100
AcDbRegAppTableRecord
  2
ACADANNOTATIVE
 70
     0
  0
ENDTAB
  0
TABLE
  2
DIMSTYLE
  5
78
330
0
100
AcDbSymbolTable
 70
     2
  0
DIMSTYLE
105
79
330
78
100
AcDbSymbolTableRecord
100
AcDbDimStyleTableRecord
  2
STANDARD
 70
     0
  3

  4

  5

  6

  7

 40
0.0
 41
2.5
 42
0.625
 43
3.75
 44
1.25
 45
0.0
 46
0.0
 47
0.0
 48
0.0
140
2.5
141
2.5
142
0.0
143
0.03937007874016
144
1.0
145
0.0
146
1.0
147
0.625
 71
     0
 72
     0
 73
     0
 74
     0
 75
     0
 76
     0
 77
     1
 78
     8
170
     0
171
     3
172
     1
173
     0
174
     0
175
     0
176
     0
177
     0
178
     0
270
     2
271
     2
272
     2
273
     2
274
     3
340
71
275
     0
280
     0
281
     0
282
     0
283
     0
284
     8
285
     0
286
     0
287
     3
288
     0
  0
ENDTAB
  0
TABLE
  2
BLOCK_RECORD
  5
A01
330
0
100
AcDbSymbolTable
  70
5
  0
BLOCK_RECORD
  5
A02
330
A01
100
AcDbSymbolTableRecord
100
AcDbBlockTableRecord
  2
*MODEL_SPACE
  0
BLOCK_RECORD
  5
A03
330
A01
100
AcDbSymbolTableRecord
100
AcDbBlockTableRecord
  2
*PAPER_SPACE
  0
ENDTAB
  0
ENDSEC
  0
SECTION
  2
BLOCKS
  0
BLOCK
  5
A04
330
A02
100
AcDbEntity
  8
0
100
AcDbBlockBegin
  2
*MODEL_SPACE
 70
   0
 10
0
 20
0
 30
0
  3
*MODEL_SPACE
  1
 
  0
ENDBLK
  5
A05
330
A02
100
AcDbEntity
  8
0
100
AcDbBlockEnd
  0
BLOCK
  5
A06
330
A03
100
AcDbEntity
 67
1
  8
0
100
AcDbBlockBegin
  2
*PAPER_SPACE
 70
   0
 10
0
 20
0
 30
0
  3
*PAPER_SPACE
  1
 
  0
ENDBLK
  5
A07
330
A03
100
AcDbEntity
 67
    1
  8
0
100
AcDbBlockEnd
  0
ENDSEC
  0
SECTION
  2
ENTITIES
  0
LINE
  5
A08
330
A02
100
AcDbEntity
  8
Wire
100
AcDbLine
 10
0
 20
48
 30
0
 11
27.5
 21
0
 31
0
  0
LINE
  5
A09
330
A02
100
AcDbEntity
  8
Wire
100
AcDbLine
 10
27.5
 20
0
 30
0
 11
82.5
 21
0
 31
0
  0
LINE
  5
A0A
330
A02
100
AcDbEntity
  8
Wire
100
AcDbLine
 10
82.5
 20
0
 30
0
 11
110
 21
48
 31
0
  0
LINE
  5
A0B
330
A02
100
AcDbEntity
  8
Wire
100
AcDbLine
 10
110
 20
48
 30
0
 11
82.5
 21
96
 31
0
  0
LINE
  5
A0C
330
A02
100
AcDbEntity
  8
Wire
100
AcDbLine
 10
82.5
 20
96
 30
0
 11
27.5
 21
96
 31
0
  0
LINE
  5
A0D
330
A02
100
AcDbEntity
  8
Wire
100
AcDbLine
 10
27.5
 20
96
 30
0
 11
0
 21
48
 31
0
  0
CIRCLE
  5
A0E
330
A02
100
AcDbEntity
  8
Circle
100
AcDbCircle
 10
55
 20
48
 40
18
  0
LINE
  5
A0F
330
A02
100
AcDbEntity
  8
ShapeString
100
AcDbLine
 10
30.3794
 20
90.8188
 30
0
 11
31.999
 21
90.8188
 31
0
  0
LINE
  5
A10
330
A02
100
AcDbEntity
  8
ShapeString
100
AcDbLine
 10
30.3794
 20
88
 30
0
 11
30.3794
 21
90.8188
 31
0
  0
LINE
  5
A11
330
A02
100
AcDbEntity
  8
ShapeString
100
AcDbLine
 10
30.7607
 20
88
 30
0
 11
30.3794
 21
88
 31
0
  0
LINE
  5
A12
330
A02
100
AcDbEntity
  8
ShapeString
100
AcDbLine
 10
30.7607
 20
89.345
 30
0
 11
30.7607
 21
88
 31
0
  0
LINE
  5
A13
330
A02
100
AcDbEntity
  8
ShapeString
100
AcDbLine
 10
31.8781
 20
89.345
 30
0
 11
30.7607
 21
89.345
 31
0
  0
LINE
  5
A14
330
A02
100
AcDbEntity
  8
ShapeString
100
AcDbLine
 10
31.8781
 20
89.6671
 30
0
 11
31.8781
 21
89.345
 31
0
  0
LINE
  5
A15
330
A02
100
AcDbEntity
  8
ShapeString
100
AcDbLine
 10
30.7607
 20
89.6671
 30
0
 11
31.8781
 21
89.6671
 31
0
  0
LINE
  5
A16
330
A02
100
AcDbEntity
  8
ShapeString
100
AcDbLine
 10
30.7607
 20
90.4966
 30
0
 11
30.7607
 21
89.6671
 31
0
  0
LINE
  5
A17
330
A02
100
AcDbEntity
  8
ShapeString
100
AcDbLine
 10
31.999
 20
90.4966
 30
0
 11
30.7607
 21
90.4966
 31
0
  0
LINE
  5
A18
330
A02
100
AcDbEntity
  8
ShapeString
100
AcDbLine
 10
31.999
 20
90.8188
 30
0
 11
31.999
 21
90.4966
 31
0
  0
SPLINE
  5
A19
330
A02
100
AcDbEntity
  8
ShapeString
100
AcDbSpline
210
0
220
0
230
1
 70
8
 71
2
 72
6
 73
3
 74
0
 40
0
 40
0
 40
0
 40
1
 40
1
 40
1
 10
33.9386
 20
89.3224
 30
0
 10
34.0613
 20
89.2809
 30
0
 10
34.1773
 20
89.1449
 30
0
  0
SPLINE
  5
A1A
330
A02
100
AcDbEntity
  8
ShapeString
100
AcDbSpline
210
0
220
0
230
1
 70
8
 71
2
 72
6
 73
3
 74
0
 40
0
 40
0
 40
0
 40
1
 40
1
 40
1
 10
34.2982
 20
89.5658
 30
0
 10
34.1746
 20
89.3904
 30
0
 10
33.9386
 20
89.3224
 30
0
  0
SPLINE
  5
A1B
330
A02
100
AcDbEntity
  8
ShapeString
100
AcDbSpline
210
0
220
0
230
1
 70
8
 71
2
 72
6
 73
3
 74
0
 40
0
 40
0
 40
0
 40
1
 40
1
 40
1
 10
34.4219
 20
90.0074
 30
0
 10
34.4219
 20
89.7414
 30
0
 10
34.2982
 20
89.5658
 30
0
  0
SPLINE
  5
A1C
330
A02
100
AcDbEntity
  8
ShapeString
100
AcDbSpline
210
0
220
0
230
1
 70
8
 71
2
 72
6
 73
3
 74
0
 40
0
 40
0
 40
0
 40
1
 40
1
 40
1
 10
34.184
 20
90.6168
 30
0
 10
34.4219
 20
90.415
 30
0
 10
34.4219
 20
90.0074
 30
0
  0
SPLINE
  5
A1D
330
A02
100
AcDbEntity
  8
ShapeString
100
AcDbSpline
210
0
220
0
230
1
 70
8
 71
2
 72
6
 73
3
 74
0
 40
0
 40
0
 40
0
 40
1
 40
1
 40
1
 10
33.463
 20
90.8188
 30
0
 10
33.9462
 20
90.8188
 30
0
 10
34.184
 20
90.6168
 30
0
  0
LINE
  5
A1E
330
A02
100
AcDbEntity
  8
ShapeString
100
AcDbLine
 10
32.6022
 20
90.8188
 30
0
 11
33.463
 21
90.8188
 31
0
  0
LINE
  5
A1F
330
A02
100
AcDbEntity
  8
ShapeString
100
AcDbLine
 10
32.6022
 20
88
 30
0
 11
32.6022
 21
90.8188
 31
0
  0
LINE
  5
A20
330
A02
100
AcDbEntity
  8
ShapeString
100
AcDbLine
 10
32.9835
 20
88
 30
0
 11
32.6022
 21
88
 31
0
  0
LINE
  5
A21
330
A02
100
AcDbEntity
  8
ShapeString
100
AcDbLine
 10
32.9835
 20
89.1919
 30
0
 11
32.9835
 21
88
 31
0
  0
LINE
  5
A22
330
A02
100
AcDbEntity
  8
ShapeString
100
AcDbLine
 10
33.3988
 20
89.1919
 30
0
 11
32.9835
 21
89.1919
 31
0
  0
SPLINE
  5
A23
330
A02
100
AcDbEntity
  8
ShapeString
100
AcDbSpline
210
0
220
0
230
1
 70
8
 71
2
 72
6
 73
3
 74
0
 40
0
 40
0
 40
0
 40
1
 40
1
 40
1
 10
33.7564
 20
89.0993
 30
0
 10
33.6253
 20
89.1919
 30
0
 10
33.3988
 20
89.1919
 30
0
  0
SPLINE
  5
A24
330
A02
100
AcDbEntity
  8
ShapeString
100
AcDbSpline
210
0
220
0
230
1
 70
8
 71
2
 72
6
 73
3
 74
0
 40
0
 40
0
 40
0
 40
1
 40
1
 40
1
 10
34.0273
 20
88.7234
 30
0
 10
33.8877
 20
89.0068
 30
0
 10
33.7564
 20
89.0993
 30
0
  0
LINE
  5
A25
330
A02
100
AcDbEntity
  8
ShapeString
100
AcDbLine
 10
34.3879
 20
88
 30
0
 11
34.0273
 21
88.7234
 31
0
  0
LINE
  5
A26
330
A02
100
AcDbEntity
  8
ShapeString
100
AcDbLine
 10
34.7975
 20
88
 30
0
 11
34.3879
 21
88
 31
0
  0
LINE
  5
A27
330
A02
100
AcDbEntity
  8
ShapeString
100
AcDbLine
 10
34.4105
 20
88.7708
 30
0
 11
34.7975
 21
88
 31
0
  0
SPLINE
  5
A28
330
A02
100
AcDbEntity
  8
ShapeString
100
AcDbSpline
210
0
220
0
230
1
 70
8
 71
2
 72
6
 73
3
 74
0
 40
0
 40
0
 40
0
 40
1
 40
1
 40
1
 10
34.1773
 20
89.1449
 30
0
 10
34.2935
 20
89.0089
 30
0
 10
34.4105
 20
88.7708
 30
0
  0
LINE
  5
A29
330
A02
100
AcDbEntity
  8
ShapeString
100
AcDbLine
 10
32.9835
 20
90.5047
 30
0
 11
32.9835
 21
89.506
 31
0
  0
LINE
  5
A2A
330
A02
100
AcDbEntity
  8
ShapeString
100
AcDbLine
 10
33.463
 20
90.5047
 30
0
 11
32.9835
 21
90.5047
 31
0
  0
SPLINE
  5
A2B
330
A02
100
AcDbEntity
  8
ShapeString
100
AcDbSpline
210
0
220
0
230
1
 70
8
 71
2
 72
6
 73
3
 74
0
 40
0
 40
0
 40
0
 40
1
 40
1
 40
1
 10
33.8791
 20
90.3794
 30
0
 10
33.7385
 20
90.5047
 30
0
 10
33.463
 20
90.5047
 30
0
  0
SPLINE
  5
A2C
330
A02
100
AcDbEntity
  8
ShapeString
100
AcDbSpline
210
0
220
0
230
1
 70
8
 71
2
 72
6
 73
3
 74
0
 40
0
 40
0
 40
0
 40
1
 40
1
 40
1
 10
34.0198
 20
90.0073
 30
0
 10
34.0198
 20
90.2542
 30
0
 10
33.8791
 20
90.3794
 30
0
  0
SPLINE
  5
A2D
330
A02
100
AcDbEntity
  8
ShapeString
100
AcDbSpline
210
0
220
0
230
1
 70
8
 71
2
 72
6
 73
3
 74
0
 40
0
 40
0
 40
0
 40
1
 40
1
 40
1
 10
33.8791
 20
89.6331
 30
0
 10
34.0198
 20
89.7604
 30
0
 10
34.0198
 20
90.0073
 30
0
  0
SPLINE
  5
A2E
330
A02
100
AcDbEntity
  8
ShapeString
100
AcDbSpline
210
0
220
0
230
1
 70
8
 71
2
 72
6
 73
3
 74
0
 40
0
 40
0
 40
0
 40
1
 40
1
 40
1
 10
33.463
 20
89.506
 30
0
 10
33.7385
 20
89.506
 30
0
 10
33.8791
 20
89.6331
 30
0
  0
LINE
  5
A2F
330
A02
100
AcDbEntity
  8
ShapeString
100
AcDbLine
 10
32.9835
 20
89.506
 30
0
 11
33.463
 21
89.506
 31
0
  0
LINE
  5
A30
330
A02
100
AcDbEntity
  8
ShapeString
100
AcDbLine
 10
35.2922
 20
90.8188
 30
0
 11
37.074
 21
90.8188
 31
0
  0
LINE
  5
A31
330
A02
100
AcDbEntity
  8
ShapeString
100
AcDbLine
 10
35.2922
 20
88
 30
0
 11
35.2922
 21
90.8188
 31
0
  0
LINE
  5
A32
330
A02
100
AcDbEntity
  8
ShapeString
100
AcDbLine
 10
37.108
 20
88
 30
0
 11
35.2922
 21
88
 31
0
  0
LINE
  5
A33
330
A02
100
AcDbEntity
  8
ShapeString
100
AcDbLine
 10
37.108
 20
88.3221
 30
0
 11
37.108
 21
88
 31
0
  0
LINE
  5
A34
330
A02
100
AcDbEntity
  8
ShapeString
100
AcDbLine
 10
35.6734
 20
88.3221
 30
0
 11
37.108
 21
88.3221
 31
0
  0
LINE
  5
A35
330
A02
100
AcDbEntity
  8
ShapeString
100
AcDbLine
 10
35.6734
 20
89.3369
 30
0
 11
35.6734
 21
88.3221
 31
0
  0
LINE
  5
A36
330
A02
100
AcDbEntity
  8
ShapeString
100
AcDbLine
 10
37.0155
 20
89.3369
 30
0
 11
35.6734
 21
89.3369
 31
0
  0
LINE
  5
A37
330
A02
100
AcDbEntity
  8
ShapeString
100
AcDbLine
 10
37.0155
 20
89.6591
 30
0
 11
37.0155
 21
89.3369
 31
0
  0
LINE
  5
A38
330
A02
100
AcDbEntity
  8
ShapeString
100
AcDbLine
 10
35.6734
 20
89.6591
 30
0
 11
37.0155
 21
89.6591
 31
0
  0
LINE
  5
A39
330
A02
100
AcDbEntity
  8
ShapeString
100
AcDbLine
 10
35.6734
 20
90.4966
 30
0
 11
35.6734
 21
89.6591
 31
0
  0
LINE
  5
A3A
330
A02
100
AcDbEntity
  8
ShapeString
100
AcDbLine
 10
37.074
 20
90.4966
 30
0
 11
35.6734
 21
90.4966
 31
0
  0
LINE
  5
A3B
330
A02
100
AcDbEntity
  8
ShapeString
100
AcDbLine
 10
37.074
 20
90.8188
 30
0
 11
37.074
 21
90.4966
 31
0
  0
LINE
  5
A3C
330
A02
100
AcDbEntity
  8
ShapeString
100
AcDbLine
 10
37.7324
 20
90.8188
 30
0
 11
39.5143
 21
90.8188
 31
0
  0
LINE
  5
A3D
330
A02
100
AcDbEntity
  8
ShapeString
100
AcDbLine
 10
37.7324
 20
88
 30
0
 11
37.7324
 21
90.8188
 31
0
  0
LINE
  5
A3E
330
A02
100
AcDbEntity
  8
ShapeString
100
AcDbLine
 10
39.5483
 20
88
 30
0
 11
37.7324
 21
88
 31
0
  0
LINE
  5
A3F
330
A02
100
AcDbEntity
  8
ShapeString
100
AcDbLine
 10
39.5483
 20
88.3221
 30
0
 11
39.5483
 21
88
 31
0
  0
LINE
  5
A40
330
A02
100
AcDbEntity
  8
ShapeString
100
AcDbLine
 10
38.1137
 20
88.3221
 30
0
 11
39.5483
 21
88.3221
 31
0
  0
LINE
  5
A41
330
A02
100
AcDbEntity
  8
ShapeString
100
AcDbLine
 10
38.1137
 20
89.3369
 30
0
 11
38.1137
 21
88.3221
 31
0
  0
LINE
  5
A42
330
A02
100
AcDbEntity
  8
ShapeString
100
AcDbLine
 10
39.4558
 20
89.3369
 30
0
 11
38.1137
 21
89.3369
 31
0
  0
LINE
  5
A43
330
A02
100
AcDbEntity
  8
ShapeString
100
AcDbLine
 10
39.4558
 20
89.6591
 30
0
 11
39.4558
 21
89.3369
 31
0
  0
LINE
  5
A44
330
A02
100
AcDbEntity
  8
ShapeString
100
AcDbLine
 10
38.1137
 20
89.6591
 30
0
 11
39.4558
 21
89.6591
 31
0
  0
LINE
  5
A45
330
A02
100
AcDbEntity
  8
ShapeString
100
AcDbLine
 10
38.1137
 20
90.4966
 30
0
 11
38.1137
 21
89.6591
 31
0
  0
LINE
  5
A46
330
A02
100
AcDbEntity
  8
ShapeString
100
AcDbLine
 10
39.5143
 20
90.4966
 30
0
 11
38.1137
 21
90.4966
 31
0
  0
LINE
  5
A47
330
A02
100
AcDbEntity
  8
ShapeString
100
AcDbLine
 10
39.5143
 20
90.8188
 30
0
 11
39.5143
 21
90.4966
 31
0
  0
LINE
  5
A48
330
A02
100
AcDbEntity
  8
ShapeString
100
AcDbLine
 10
42.283
 20
90.6013
 30
0
 11
42.283
 21
90.1987
 31
0
  0
SPLINE
  5
A49
330
A02
100
AcDbEntity
  8
ShapeString
100
AcDbSpline
210
0
220
0
230
1
 70
8
 71
2
 72
6
 73
3
 74
0
 40
0
 40
0
 40
0
 40
1
 40
1
 40
1
 10
41.863
 20
90.8007
 30
0
 10
42.0867
 20
90.7342
 30
0
 10
42.283
 20
90.6013
 30
0
  0
SPLINE
  5
A4A
330
A02
100
AcDbEntity
  8
ShapeString
100
AcDbSpline
210
0
220
0
230
1
 70
8
 71
2
 72
6
 73
3
 74
0
 40
0
 40
0
 40
0
 40
1
 40
1
 40
1
 10
41.3864
 20
90.8671
 30
0
 10
41.6393
 20
90.8671
 30
0
 10
41.863
 20
90.8007
 30
0
  0
SPLINE
  5
A4B
330
A02
100
AcDbEntity
  8
ShapeString
100
AcDbSpline
210
0
220
0
230
1
 70
8
 71
2
 72
6
 73
3
 74
0
 40
0
 40
0
 40
0
 40
1
 40
1
 40
1
 10
40.3784
 20
90.4755
 30
0
 10
40.7465
 20
90.8671
 30
0
 10
41.3864
 20
90.8671
 30
0
  0
SPLINE
  5
A4C
330
A02
100
AcDbEntity
  8
ShapeString
100
AcDbSpline
210
0
220
0
230
1
 70
8
 71
2
 72
6
 73
3
 74
0
 40
0
 40
0
 40
0
 40
1
 40
1
 40
1
 10
40.0104
 20
89.4045
 30
0
 10
40.0104
 20
90.0839
 30
0
 10
40.3784
 20
90.4755
 30
0
  0
SPLINE
  5
A4D
330
A02
100
AcDbEntity
  8
ShapeString
100
AcDbSpline
210
0
220
0
230
1
 70
8
 71
2
 72
6
 73
3
 74
0
 40
0
 40
0
 40
0
 40
1
 40
1
 40
1
 10
40.3784
 20
88.3352
 30
0
 10
40.0104
 20
88.7268
 30
0
 10
40.0104
 20
89.4045
 30
0
  0
SPLINE
  5
A4E
330
A02
100
AcDbEntity
  8
ShapeString
100
AcDbSpline
210
0
220
0
230
1
 70
8
 71
2
 72
6
 73
3
 74
0
 40
0
 40
0
 40
0
 40
1
 40
1
 40
1
 10
41.3864
 20
87.9436
 30
0
 10
40.7465
 20
87.9436
 30
0
 10
40.3784
 20
88.3352
 30
0
  0
SPLINE
  5
A4F
330
A02
100
AcDbEntity
  8
ShapeString
100
AcDbSpline
210
0
220
0
230
1
 70
8
 71
2
 72
6
 73
3
 74
0
 40
0
 40
0
 40
0
 40
1
 40
1
 40
1
 10
41.8592
 20
88.0121
 30
0
 10
41.6356
 20
87.9436
 30
0
 10
41.3864
 20
87.9436
 30
0
  0
SPLINE
  5
A50
330
A02
100
AcDbEntity
  8
ShapeString
100
AcDbSpline
210
0
220
0
230
1
 70
8
 71
2
 72
6
 73
3
 74
0
 40
0
 40
0
 40
0
 40
1
 40
1
 40
1
 10
42.283
 20
88.2174
 30
0
 10
42.0829
 20
88.0805
 30
0
 10
41.8592
 20
88.0121
 30
0
  0
LINE
  5
A51
330
A02
100
AcDbEntity
  8
ShapeString
100
AcDbLine
 10
42.283
 20
88.6121
 30
0
 11
42.283
 21
88.2174
 31
0
  0
SPLINE
  5
A52
330
A02
100
AcDbEntity
  8
ShapeString
100
AcDbSpline
210
0
220
0
230
1
 70
8
 71
2
 72
6
 73
3
 74
0
 40
0
 40
0
 40
0
 40
1
 40
1
 40
1
 10
41.8724
 20
88.3458
 30
0
 10
42.0905
 20
88.434
 30
0
 10
42.283
 20
88.6121
 30
0
  0
SPLINE
  5
A53
330
A02
100
AcDbEntity
  8
ShapeString
100
AcDbSpline
210
0
220
0
230
1
 70
8
 71
2
 72
6
 73
3
 74
0
 40
0
 40
0
 40
0
 40
1
 40
1
 40
1
 10
41.4091
 20
88.2577
 30
0
 10
41.6544
 20
88.2577
 30
0
 10
41.8724
 20
88.3458
 30
0
  0
SPLINE
  5
A54
330
A02
100
AcDbEntity
  8
ShapeString
100
AcDbSpline
210
0
220
0
230
1
 70
8
 71
2
 72
6
 73
3
 74
0
 40
0
 40
0
 40
0
 40
1
 40
1
 40
1
 10
40.6691
 20
88.5528
 30
0
 10
40.9258
 20
88.2577
 30
0
 10
41.4091
 20
88.2577
 30
0
  0
SPLINE
  5
A55
330
A02
100
AcDbEntity
  8
ShapeString
100
AcDbSpline
210
0
220
0
230
1
 70
8
 71
2
 72
6
 73
3
 74
0
 40
0
 40
0
 40
0
 40
1
 40
1
 40
1
 10
40.4124
 20
89.4045
 30
0
 10
40.4124
 20
88.848
 30
0
 10
40.6691
 20
88.5528
 30
0
  0
SPLINE
  5
A56
330
A02
100
AcDbEntity
  8
ShapeString
100
AcDbSpline
210
0
220
0
230
1
 70
8
 71
2
 72
6
 73
3
 74
0
 40
0
 40
0
 40
0
 40
1
 40
1
 40
1
 10
40.6691
 20
90.2578
 30
0
 10
40.4124
 20
89.9627
 30
0
 10
40.4124
 20
89.4045
 30
0
  0
SPLINE
  5
A57
330
A02
100
AcDbEntity
  8
ShapeString
100
AcDbSpline
210
0
220
0
230
1
 70
8
 71
2
 72
6
 73
3
 74
0
 40
0
 40
0
 40
0
 40
1
 40
1
 40
1
 10
41.4091
 20
90.553
 30
0
 10
40.9258
 20
90.553
 30
0
 10
40.6691
 20
90.2578
 30
0
  0
SPLINE
  5
A58
330
A02
100
AcDbEntity
  8
ShapeString
100
AcDbSpline
210
0
220
0
230
1
 70
8
 71
2
 72
6
 73
3
 74
0
 40
0
 40
0
 40
0
 40
1
 40
1
 40
1
 10
41.8724
 20
90.4648
 30
0
 10
41.6544
 20
90.553
 30
0
 10
41.4091
 20
90.553
 30
0
  0
SPLINE
  5
A59
330
A02
100
AcDbEntity
  8
ShapeString
100
AcDbSpline
210
0
220
0
230
1
 70
8
 71
2
 72
6
 73
3
 74
0
 40
0
 40
0
 40
0
 40
1
 40
1
 40
1
 10
42.283
 20
90.1987
 30
0
 10
42.0905
 20
90.3767
 30
0
 10
41.8724
 20
90.4648
 30
0
  0
LINE
  5
A5A
330
A02
100
AcDbEntity
  8
ShapeString
100
AcDbLine
 10
43.5974
 20
90.8188
 30
0
 11
44.0297
 21
90.8188
 31
0
  0
LINE
  5
A5B
330
A02
100
AcDbEntity
  8
ShapeString
100
AcDbLine
 10
42.5215
 20
88
 30
0
 11
43.5974
 21
90.8188
 31
0
  0
LINE
  5
A5C
330
A02
100
AcDbEntity
  8
ShapeString
100
AcDbLine
 10
42.9235
 20
88
 30
0
 11
42.5215
 21
88
 31
0
  0
LINE
  5
A5D
330
A02
100
AcDbEntity
  8
ShapeString
100
AcDbLine
 10
43.1802
 20
88.7248
 30
0
 11
42.9235
 21
88
 31
0
  0
LINE
  5
A5E
330
A02
100
AcDbEntity
  8
ShapeString
100
AcDbLine
 10
44.4506
 20
88.7248
 30
0
 11
43.1802
 21
88.7248
 31
0
  0
LINE
  5
A5F
330
A02
100
AcDbEntity
  8
ShapeString
100
AcDbLine
 10
44.7073
 20
88
 30
0
 11
44.4506
 21
88.7248
 31
0
  0
LINE
  5
A60
330
A02
100
AcDbEntity
  8
ShapeString
100
AcDbLine
 10
45.1037
 20
88
 30
0
 11
44.7073
 21
88
 31
0
  0
LINE
  5
A61
330
A02
100
AcDbEntity
  8
ShapeString
100
AcDbLine
 10
44.0297
 20
90.8188
 30
0
 11
45.1037
 21
88
 31
0
  0
LINE
  5
A62
330
A02
100
AcDbEntity
  8
ShapeString
100
AcDbLine
 10
43.8126
 20
90.4428
 30
0
 11
43.2954
 21
89.0389
 31
0
  0
LINE
  5
A63
330
A02
100
AcDbEntity
  8
ShapeString
100
AcDbLine
 10
44.3317
 20
89.0389
 30
0
 11
43.8126
 21
90.4428
 31
0
  0
LINE
  5
A64
330
A02
100
AcDbEntity
  8
ShapeString
100
AcDbLine
 10
43.2954
 20
89.0389
 30
0
 11
44.3317
 21
89.0389
 31
0
  0
LINE
  5
A65
330
A02
100
AcDbEntity
  8
ShapeString
100
AcDbLine
 10
45.5123
 20
90.8188
 30
0
 11
46.2956
 21
90.8188
 31
0
  0
LINE
  5
A66
330
A02
100
AcDbEntity
  8
ShapeString
100
AcDbLine
 10
45.5123
 20
88
 30
0
 11
45.5123
 21
90.8188
 31
0
  0
LINE
  5
A67
330
A02
100
AcDbEntity
  8
ShapeString
100
AcDbLine
 10
46.2956
 20
88
 30
0
 11
45.5123
 21
88
 31
0
  0
SPLINE
  5
A68
330
A02
100
AcDbEntity
  8
ShapeString
100
AcDbSpline
210
0
220
0
230
1
 70
8
 71
2
 72
6
 73
3
 74
0
 40
0
 40
0
 40
0
 40
1
 40
1
 40
1
 10
47.4961
 20
88.3417
 30
0
 10
47.1111
 20
88
 30
0
 10
46.2956
 20
88
 30
0
  0
SPLINE
  5
A69
330
A02
100
AcDbEntity
  8
ShapeString
100
AcDbSpline
210
0
220
0
230
1
 70
8
 71
2
 72
6
 73
3
 74
0
 40
0
 40
0
 40
0
 40
1
 40
1
 40
1
 10
47.8812
 20
89.4122
 30
0
 10
47.8812
 20
88.6834
 30
0
 10
47.4961
 20
88.3417
 30
0
  0
SPLINE
  5
A6A
330
A02
100
AcDbEntity
  8
ShapeString
100
AcDbSpline
210
0
220
0
230
1
 70
8
 71
2
 72
6
 73
3
 74
0
 40
0
 40
0
 40
0
 40
1
 40
1
 40
1
 10
47.498
 20
90.478
 30
0
 10
47.8812
 20
90.1372
 30
0
 10
47.8812
 20
89.4122
 30
0
  0
SPLINE
  5
A6B
330
A02
100
AcDbEntity
  8
ShapeString
100
AcDbSpline
210
0
220
0
230
1
 70
8
 71
2
 72
6
 73
3
 74
0
 40
0
 40
0
 40
0
 40
1
 40
1
 40
1
 10
46.2956
 20
90.8188
 30
0
 10
47.1148
 20
90.8188
 30
0
 10
47.498
 20
90.478
 30
0
  0
LINE
  5
A6C
330
A02
100
AcDbEntity
  8
ShapeString
100
AcDbLine
 10
45.8936
 20
90.5047
 30
0
 11
45.8936
 21
88.3141
 31
0
  0
LINE
  5
A6D
330
A02
100
AcDbEntity
  8
ShapeString
100
AcDbLine
 10
46.3542
 20
90.5047
 30
0
 11
45.8936
 21
90.5047
 31
0
  0
SPLINE
  5
A6E
330
A02
100
AcDbEntity
  8
ShapeString
100
AcDbSpline
210
0
220
0
230
1
 70
8
 71
2
 72
6
 73
3
 74
0
 40
0
 40
0
 40
0
 40
1
 40
1
 40
1
 10
47.2082
 20
90.2414
 30
0
 10
46.9374
 20
90.5047
 30
0
 10
46.3542
 20
90.5047
 30
0
  0
SPLINE
  5
A6F
330
A02
100
AcDbEntity
  8
ShapeString
100
AcDbSpline
210
0
220
0
230
1
 70
8
 71
2
 72
6
 73
3
 74
0
 40
0
 40
0
 40
0
 40
1
 40
1
 40
1
 10
47.4792
 20
89.4122
 30
0
 10
47.4792
 20
89.9783
 30
0
 10
47.2082
 20
90.2414
 30
0
  0
SPLINE
  5
A70
330
A02
100
AcDbEntity
  8
ShapeString
100
AcDbSpline
210
0
220
0
230
1
 70
8
 71
2
 72
6
 73
3
 74
0
 40
0
 40
0
 40
0
 40
1
 40
1
 40
1
 10
47.2082
 20
88.5782
 30
0
 10
47.4792
 20
88.8424
 30
0
 10
47.4792
 20
89.4122
 30
0
  0
SPLINE
  5
A71
330
A02
100
AcDbEntity
  8
ShapeString
100
AcDbSpline
210
0
220
0
230
1
 70
8
 71
2
 72
6
 73
3
 74
0
 40
0
 40
0
 40
0
 40
1
 40
1
 40
1
 10
46.3542
 20
88.3141
 30
0
 10
46.9374
 20
88.3141
 30
0
 10
47.2082
 20
88.5782
 30
0
  0
LINE
  5
A72
330
A02
100
AcDbEntity
  8
ShapeString
100
AcDbLine
 10
45.8936
 20
88.3141
 30
0
 11
46.3542
 21
88.3141
 31
0
  0
LINE
  5
A73
330
A02
100
AcDbEntity
  8
ShapeString
100
AcDbLine
 10
50.0834
 20
87.3638
 30
0
 11
50.0834
 21
87.0899
 31
0
  0
LINE
  5
A74
330
A02
100
AcDbEntity
  8
ShapeString
100
AcDbLine
 10
48.075
 20
87.3638
 30
0
 11
50.0834
 21
87.3638
 31
0
  0
LINE
  5
A75
330
A02
100
AcDbEntity
  8
ShapeString
100
AcDbLine
 10
48.075
 20
87.0899
 30
0
 11
48.075
 21
87.3638
 31
0
  0
LINE
  5
A76
330
A02
100
AcDbEntity
  8
ShapeString
100
AcDbLine
 10
50.0834
 20
87.0899
 30
0
 11
48.075
 21
87.0899
 31
0
  0
LINE
  5
A77
330
A02
100
AcDbEntity
  8
ShapeString
100
AcDbLine
 10
50.0343
 20
90.8188
 30
0
 11
52.4183
 21
90.8188
 31
0
  0
LINE
  5
A78
330
A02
100
AcDbEntity
  8
ShapeString
100
AcDbLine
 10
50.0343
 20
90.4966
 30
0
 11
50.0343
 21
90.8188
 31
0
  0
LINE
  5
A79
330
A02
100
AcDbEntity
  8
ShapeString
100
AcDbLine
 10
51.0347
 20
90.4966
 30
0
 11
50.0343
 21
90.4966
 31
0
  0
LINE
  5
A7A
330
A02
100
AcDbEntity
  8
ShapeString
100
AcDbLine
 10
51.0347
 20
88
 30
0
 11
51.0347
 21
90.4966
 31
0
  0
LINE
  5
A7B
330
A02
100
AcDbEntity
  8
ShapeString
100
AcDbLine
 10
51.4179
 20
88
 30
0
 11
51.0347
 21
88
 31
0
  0
LINE
  5
A7C
330
A02
100
AcDbEntity
  8
ShapeString
100
AcDbLine
 10
51.4179
 20
90.4966
 30
0
 11
51.4179
 21
88
 31
0
  0
LINE
  5
A7D
330
A02
100
AcDbEntity
  8
ShapeString
100
AcDbLine
 10
52.4183
 20
90.4966
 30
0
 11
51.4179
 21
90.4966
 31
0
  0
LINE
  5
A7E
330
A02
100
AcDbEntity
  8
ShapeString
100
AcDbLine
 10
52.4183
 20
90.8188
 30
0
 11
52.4183
 21
90.4966
 31
0
  0
SPLINE
  5
A7F
330
A02
100
AcDbEntity
  8
ShapeString
100
AcDbSpline
210
0
220
0
230
1
 70
8
 71
2
 72
6
 73
3
 74
0
 40
0
 40
0
 40
0
 40
1
 40
1
 40
1
 10
53.9286
 20
90.8671
 30
0
 10
54.5214
 20
90.8671
 30
0
 10
54.8762
 20
90.4698
 30
0
  0
SPLINE
  5
A80
330
A02
100
AcDbEntity
  8
ShapeString
100
AcDbSpline
210
0
220
0
230
1
 70
8
 71
2
 72
6
 73
3
 74
0
 40
0
 40
0
 40
0
 40
1
 40
1
 40
1
 10
52.9782
 20
90.4698
 30
0
 10
53.3341
 20
90.8671
 30
0
 10
53.9286
 20
90.8671
 30
0
  0
SPLINE
  5
A81
330
A02
100
AcDbEntity
  8
ShapeString
100
AcDbSpline
210
0
220
0
230
1
 70
8
 71
2
 72
6
 73
3
 74
0
 40
0
 40
0
 40
0
 40
1
 40
1
 40
1
 10
52.6224
 20
89.4045
 30
0
 10
52.6224
 20
90.0726
 30
0
 10
52.9782
 20
90.4698
 30
0
  0
SPLINE
  5
A82
330
A02
100
AcDbEntity
  8
ShapeString
100
AcDbSpline
210
0
220
0
230
1
 70
8
 71
2
 72
6
 73
3
 74
0
 40
0
 40
0
 40
0
 40
1
 40
1
 40
1
 10
52.9782
 20
88.3399
 30
0
 10
52.6224
 20
88.7363
 30
0
 10
52.6224
 20
89.4045
 30
0
  0
SPLINE
  5
A83
330
A02
100
AcDbEntity
  8
ShapeString
100
AcDbSpline
210
0
220
0
230
1
 70
8
 71
2
 72
6
 73
3
 74
0
 40
0
 40
0
 40
0
 40
1
 40
1
 40
1
 10
53.9286
 20
87.9436
 30
0
 10
53.3341
 20
87.9436
 30
0
 10
52.9782
 20
88.3399
 30
0
  0
SPLINE
  5
A84
330
A02
100
AcDbEntity
  8
ShapeString
100
AcDbSpline
210
0
220
0
230
1
 70
8
 71
2
 72
6
 73
3
 74
0
 40
0
 40
0
 40
0
 40
1
 40
1
 40
1
 10
54.8762
 20
88.3409
 30
0
 10
54.5214
 20
87.9436
 30
0
 10
53.9286
 20
87.9436
 30
0
  0
SPLINE
  5
A85
330
A02
100
AcDbEntity
  8
ShapeString
100
AcDbSpline
210
0
220
0
230
1
 70
8
 71
2
 72
6
 73
3
 74
0
 40
0
 40
0
 40
0
 40
1
 40
1
 40
1
 10
55.2311
 20
89.4045
 30
0
 10
55.2311
 20
88.7382
 30
0
 10
54.8762
 20
88.3409
 30
0
  0
SPLINE
  5
A86
330
A02
100
AcDbEntity
  8
ShapeString
100
AcDbSpline
210
0
220
0
230
1
 70
8
 71
2
 72
6
 73
3
 74
0
 40
0
 40
0
 40
0
 40
1
 40
1
 40
1
 10
54.8762
 20
90.4698
 30
0
 10
55.2311
 20
90.0726
 30
0
 10
55.2311
 20
89.4045
 30
0
  0
SPLINE
  5
A87
330
A02
100
AcDbEntity
  8
ShapeString
100
AcDbSpline
210
0
220
0
230
1
 70
8
 71
2
 72
6
 73
3
 74
0
 40
0
 40
0
 40
0
 40
1
 40
1
 40
1
 10
53.9286
 20
90.5611
 30
0
 10
53.5134
 20
90.5611
 30
0
 10
53.2689
 20
90.2506
 30
0
  0
SPLINE
  5
A88
330
A02
100
AcDbEntity
  8
ShapeString
100
AcDbSpline
210
0
220
0
230
1
 70
8
 71
2
 72
6
 73
3
 74
0
 40
0
 40
0
 40
0
 40
1
 40
1
 40
1
 10
54.5864
 20
90.2506
 30
0
 10
54.3439
 20
90.5611
 30
0
 10
53.9286
 20
90.5611
 30
0
  0
SPLINE
  5
A89
330
A02
100
AcDbEntity
  8
ShapeString
100
AcDbSpline
210
0
220
0
230
1
 70
8
 71
2
 72
6
 73
3
 74
0
 40
0
 40
0
 40
0
 40
1
 40
1
 40
1
 10
54.829
 20
89.4044
 30
0
 10
54.829
 20
89.9402
 30
0
 10
54.5864
 20
90.2506
 30
0
  0
SPLINE
  5
A8A
330
A02
100
AcDbEntity
  8
ShapeString
100
AcDbSpline
210
0
220
0
230
1
 70
8
 71
2
 72
6
 73
3
 74
0
 40
0
 40
0
 40
0
 40
1
 40
1
 40
1
 10
54.5864
 20
88.5601
 30
0
 10
54.829
 20
88.8706
 30
0
 10
54.829
 20
89.4044
 30
0
  0
SPLINE
  5
A8B
330
A02
100
AcDbEntity
  8
ShapeString
100
AcDbSpline
210
0
220
0
230
1
 70
8
 71
2
 72
6
 73
3
 74
0
 40
0
 40
0
 40
0
 40
1
 40
1
 40
1
 10
53.9286
 20
88.2497
 30
0
 10
54.3439
 20
88.2497
 30
0
 10
54.5864
 20
88.5601
 30
0
  0
SPLINE
  5
A8C
330
A02
100
AcDbEntity
  8
ShapeString
100
AcDbSpline
210
0
220
0
230
1
 70
8
 71
2
 72
6
 73
3
 74
0
 40
0
 40
0
 40
0
 40
1
 40
1
 40
1
 10
53.2689
 20
88.5601
 30
0
 10
53.5134
 20
88.2497
 30
0
 10
53.9286
 20
88.2497
 30
0
  0
SPLINE
  5
A8D
330
A02
100
AcDbEntity
  8
ShapeString
100
AcDbSpline
210
0
220
0
230
1
 70
8
 71
2
 72
6
 73
3
 74
0
 40
0
 40
0
 40
0
 40
1
 40
1
 40
1
 10
53.0245
 20
89.4044
 30
0
 10
53.0245
 20
88.8706
 30
0
 10
53.2689
 20
88.5601
 30
0
  0
SPLINE
  5
A8E
330
A02
100
AcDbEntity
  8
ShapeString
100
AcDbSpline
210
0
220
0
230
1
 70
8
 71
2
 72
6
 73
3
 74
0
 40
0
 40
0
 40
0
 40
1
 40
1
 40
1
 10
53.2689
 20
90.2506
 30
0
 10
53.0245
 20
89.9402
 30
0
 10
53.0245
 20
89.4044
 30
0
  0
LINE
  5
A8F
330
A02
100
AcDbEntity
  8
ShapeString
100
AcDbLine
 10
57.4203
 20
87.3638
 30
0
 11
57.4203
 21
87.0899
 31
0
  0
LINE
  5
A90
330
A02
100
AcDbEntity
  8
ShapeString
100
AcDbLine
 10
55.4119
 20
87.3638
 30
0
 11
57.4203
 21
87.3638
 31
0
  0
LINE
  5
A91
330
A02
100
AcDbEntity
  8
ShapeString
100
AcDbLine
 10
55.4119
 20
87.0899
 30
0
 11
55.4119
 21
87.3638
 31
0
  0
LINE
  5
A92
330
A02
100
AcDbEntity
  8
ShapeString
100
AcDbLine
 10
57.4203
 20
87.0899
 30
0
 11
55.4119
 21
87.0899
 31
0
  0
LINE
  5
A93
330
A02
100
AcDbEntity
  8
ShapeString
100
AcDbLine
 10
57.762
 20
90.8188
 30
0
 11
58.1432
 21
90.8188
 31
0
  0
LINE
  5
A94
330
A02
100
AcDbEntity
  8
ShapeString
100
AcDbLine
 10
57.762
 20
88
 30
0
 11
57.762
 21
90.8188
 31
0
  0
LINE
  5
A95
330
A02
100
AcDbEntity
  8
ShapeString
100
AcDbLine
 10
58.1432
 20
88
 30
0
 11
57.762
 21
88
 31
0
  0
LINE
  5
A96
330
A02
100
AcDbEntity
  8
ShapeString
100
AcDbLine
 10
58.1432
 20
89.3574
 30
0
 11
58.1432
 21
88
 31
0
  0
LINE
  5
A97
330
A02
100
AcDbEntity
  8
ShapeString
100
AcDbLine
 10
59.4966
 20
88
 30
0
 11
58.1432
 21
89.3574
 31
0
  0
LINE
  5
A98
330
A02
100
AcDbEntity
  8
ShapeString
100
AcDbLine
 10
59.9987
 20
88
 30
0
 11
59.4966
 21
88
 31
0
  0
LINE
  5
A99
330
A02
100
AcDbEntity
  8
ShapeString
100
AcDbLine
 10
58.5
 20
89.5048
 30
0
 11
59.9987
 21
88
 31
0
  0
LINE
  5
A9A
330
A02
100
AcDbEntity
  8
ShapeString
100
AcDbLine
 10
59.8987
 20
90.8188
 30
0
 11
58.5
 21
89.5048
 31
0
  0
LINE
  5
A9B
330
A02
100
AcDbEntity
  8
ShapeString
100
AcDbLine
 10
59.4079
 20
90.8188
 30
0
 11
59.8987
 21
90.8188
 31
0
  0
LINE
  5
A9C
330
A02
100
AcDbEntity
  8
ShapeString
100
AcDbLine
 10
58.1432
 20
89.6275
 30
0
 11
59.4079
 21
90.8188
 31
0
  0
LINE
  5
A9D
330
A02
100
AcDbEntity
  8
ShapeString
100
AcDbLine
 10
58.1432
 20
90.8188
 30
0
 11
58.1432
 21
89.6275
 31
0
  0
LINE
  5
A9E
330
A02
100
AcDbEntity
  8
ShapeString
100
AcDbLine
 10
60.2989
 20
90.8188
 30
0
 11
60.6802
 21
90.8188
 31
0
  0
LINE
  5
A9F
330
A02
100
AcDbEntity
  8
ShapeString
100
AcDbLine
 10
60.2989
 20
88
 30
0
 11
60.2989
 21
90.8188
 31
0
  0
LINE
  5
AA0
330
A02
100
AcDbEntity
  8
ShapeString
100
AcDbLine
 10
60.6802
 20
88
 30
0
 11
60.2989
 21
88
 31
0
  0
LINE
  5
AA1
330
A02
100
AcDbEntity
  8
ShapeString
100
AcDbLine
 10
60.6802
 20
90.8188
 30
0
 11
60.6802
 21
88
 31
0
  0
LINE
  5
AA2
330
A02
100
AcDbEntity
  8
ShapeString
100
AcDbLine
 10
63.5528
 20
90.6013
 30
0
 11
63.5528
 21
90.1987
 31
0
  0
SPLINE
  5
AA3
330
A02
100
AcDbEntity
  8
ShapeString
100
AcDbSpline
210
0
220
0
230
1
 70
8
 71
2
 72
6
 73
3
 74
0
 40
0
 40
0
 40
0
 40
1
 40
1
 40
1
 10
63.1328
 20
90.8007
 30
0
 10
63.3565
 20
90.7342
 30
0
 10
63.5528
 20
90.6013
 30
0
  0
SPLINE
  5
AA4
330
A02
100
AcDbEntity
  8
ShapeString
100
AcDbSpline
210
0
220
0
230
1
 70
8
 71
2
 72
6
 73
3
 74
0
 40
0
 40
0
 40
0
 40
1
 40
1
 40
1
 10
62.6562
 20
90.8671
 30
0
 10
62.9091
 20
90.8671
 30
0
 10
63.1328
 20
90.8007
 30
0
  0
SPLINE
  5
AA5
330
A02
100
AcDbEntity
  8
ShapeString
100
AcDbSpline
210
0
220
0
230
1
 70
8
 71
2
 72
6
 73
3
 74
0
 40
0
 40
0
 40
0
 40
1
 40
1
 40
1
 10
61.6482
 20
90.4755
 30
0
 10
62.0163
 20
90.8671
 30
0
 10
62.6562
 20
90.8671
 30
0
  0
SPLINE
  5
AA6
330
A02
100
AcDbEntity
  8
ShapeString
100
AcDbSpline
210
0
220
0
230
1
 70
8
 71
2
 72
6
 73
3
 74
0
 40
0
 40
0
 40
0
 40
1
 40
1
 40
1
 10
61.2802
 20
89.4045
 30
0
 10
61.2802
 20
90.0839
 30
0
 10
61.6482
 20
90.4755
 30
0
  0
SPLINE
  5
AA7
330
A02
100
AcDbEntity
  8
ShapeString
100
AcDbSpline
210
0
220
0
230
1
 70
8
 71
2
 72
6
 73
3
 74
0
 40
0
 40
0
 40
0
 40
1
 40
1
 40
1
 10
61.6482
 20
88.3352
 30
0
 10
61.2802
 20
88.7268
 30
0
 10
61.2802
 20
89.4045
 30
0
  0
SPLINE
  5
AA8
330
A02
100
AcDbEntity
  8
ShapeString
100
AcDbSpline
210
0
220
0
230
1
 70
8
 71
2
 72
6
 73
3
 74
0
 40
0
 40
0
 40
0
 40
1
 40
1
 40
1
 10
62.6562
 20
87.9436
 30
0
 10
62.0163
 20
87.9436
 30
0
 10
61.6482
 20
88.3352
 30
0
  0
SPLINE
  5
AA9
330
A02
100
AcDbEntity
  8
ShapeString
100
AcDbSpline
210
0
220
0
230
1
 70
8
 71
2
 72
6
 73
3
 74
0
 40
0
 40
0
 40
0
 40
1
 40
1
 40
1
 10
63.129
 20
88.0121
 30
0
 10
62.9054
 20
87.9436
 30
0
 10
62.6562
 20
87.9436
 30
0
  0
SPLINE
  5
AAA
330
A02
100
AcDbEntity
  8
ShapeString
100
AcDbSpline
210
0
220
0
230
1
 70
8
 71
2
 72
6
 73
3
 74
0
 40
0
 40
0
 40
0
 40
1
 40
1
 40
1
 10
63.5528
 20
88.2174
 30
0
 10
63.3527
 20
88.0805
 30
0
 10
63.129
 20
88.0121
 30
0
  0
LINE
  5
AAB
330
A02
100
AcDbEntity
  8
ShapeString
100
AcDbLine
 10
63.5528
 20
88.6121
 30
0
 11
63.5528
 21
88.2174
 31
0
  0
SPLINE
  5
AAC
330
A02
100
AcDbEntity
  8
ShapeString
100
AcDbSpline
210
0
220
0
230
1
 70
8
 71
2
 72
6
 73
3
 74
0
 40
0
 40
0
 40
0
 40
1
 40
1
 40
1
 10
63.1422
 20
88.3458
 30
0
 10
63.3603
 20
88.434
 30
0
 10
63.5528
 20
88.6121
 30
0
  0
SPLINE
  5
AAD
330
A02
100
AcDbEntity
  8
ShapeString
100
AcDbSpline
210
0
220
0
230
1
 70
8
 71
2
 72
6
 73
3
 74
0
 40
0
 40
0
 40
0
 40
1
 40
1
 40
1
 10
62.6789
 20
88.2577
 30
0
 10
62.9242
 20
88.2577
 30
0
 10
63.1422
 20
88.3458
 30
0
  0
SPLINE
  5
AAE
330
A02
100
AcDbEntity
  8
ShapeString
100
AcDbSpline
210
0
220
0
230
1
 70
8
 71
2
 72
6
 73
3
 74
0
 40
0
 40
0
 40
0
 40
1
 40
1
 40
1
 10
61.9389
 20
88.5528
 30
0
 10
62.1956
 20
88.2577
 30
0
 10
62.6789
 20
88.2577
 30
0
  0
SPLINE
  5
AAF
330
A02
100
AcDbEntity
  8
ShapeString
100
AcDbSpline
210
0
220
0
230
1
 70
8
 71
2
 72
6
 73
3
 74
0
 40
0
 40
0
 40
0
 40
1
 40
1
 40
1
 10
61.6822
 20
89.4045
 30
0
 10
61.6822
 20
88.848
 30
0
 10
61.9389
 20
88.5528
 30
0
  0
SPLINE
  5
AB0
330
A02
100
AcDbEntity
  8
ShapeString
100
AcDbSpline
210
0
220
0
230
1
 70
8
 71
2
 72
6
 73
3
 74
0
 40
0
 40
0
 40
0
 40
1
 40
1
 40
1
 10
61.9389
 20
90.2578
 30
0
 10
61.6822
 20
89.9627
 30
0
 10
61.6822
 20
89.4045
 30
0
  0
SPLINE
  5
AB1
330
A02
100
AcDbEntity
  8
ShapeString
100
AcDbSpline
210
0
220
0
230
1
 70
8
 71
2
 72
6
 73
3
 74
0
 40
0
 40
0
 40
0
 40
1
 40
1
 40
1
 10
62.6789
 20
90.553
 30
0
 10
62.1956
 20
90.553
 30
0
 10
61.9389
 20
90.2578
 30
0
  0
SPLINE
  5
AB2
330
A02
100
AcDbEntity
  8
ShapeString
100
AcDbSpline
210
0
220
0
230
1
 70
8
 71
2
 72
6
 73
3
 74
0
 40
0
 40
0
 40
0
 40
1
 40
1
 40
1
 10
63.1422
 20
90.4648
 30
0
 10
62.9242
 20
90.553
 30
0
 10
62.6789
 20
90.553
 30
0
  0
SPLINE
  5
AB3
330
A02
100
AcDbEntity
  8
ShapeString
100
AcDbSpline
210
0
220
0
230
1
 70
8
 71
2
 72
6
 73
3
 74
0
 40
0
 40
0
 40
0
 40
1
 40
1
 40
1
 10
63.5528
 20
90.1987
 30
0
 10
63.3603
 20
90.3767
 30
0
 10
63.1422
 20
90.4648
 30
0
  0
LINE
  5
AB4
330
A02
100
AcDbEntity
  8
ShapeString
100
AcDbLine
 10
64.8672
 20
90.8188
 30
0
 11
65.2995
 21
90.8188
 31
0
  0
LINE
  5
AB5
330
A02
100
AcDbEntity
  8
ShapeString
100
AcDbLine
 10
63.7913
 20
88
 30
0
 11
64.8672
 21
90.8188
 31
0
  0
LINE
  5
AB6
330
A02
100
AcDbEntity
  8
ShapeString
100
AcDbLine
 10
64.1933
 20
88
 30
0
 11
63.7913
 21
88
 31
0
  0
LINE
  5
AB7
330
A02
100
AcDbEntity
  8
ShapeString
100
AcDbLine
 10
64.45
 20
88.7248
 30
0
 11
64.1933
 21
88
 31
0
  0
LINE
  5
AB8
330
A02
100
AcDbEntity
  8
ShapeString
100
AcDbLine
 10
65.7204
 20
88.7248
 30
0
 11
64.45
 21
88.7248
 31
0
  0
LINE
  5
AB9
330
A02
100
AcDbEntity
  8
ShapeString
100
AcDbLine
 10
65.9771
 20
88
 30
0
 11
65.7204
 21
88.7248
 31
0
  0
LINE
  5
ABA
330
A02
100
AcDbEntity
  8
ShapeString
100
AcDbLine
 10
66.3735
 20
88
 30
0
 11
65.9771
 21
88
 31
0
  0
LINE
  5
ABB
330
A02
100
AcDbEntity
  8
ShapeString
100
AcDbLine
 10
65.2995
 20
90.8188
 30
0
 11
66.3735
 21
88
 31
0
  0
LINE
  5
ABC
330
A02
100
AcDbEntity
  8
ShapeString
100
AcDbLine
 10
65.0824
 20
90.4428
 30
0
 11
64.5652
 21
89.0389
 31
0
  0
LINE
  5
ABD
330
A02
100
AcDbEntity
  8
ShapeString
100
AcDbLine
 10
65.6015
 20
89.0389
 30
0
 11
65.0824
 21
90.4428
 31
0
  0
LINE
  5
ABE
330
A02
100
AcDbEntity
  8
ShapeString
100
AcDbLine
 10
64.5652
 20
89.0389
 30
0
 11
65.6015
 21
89.0389
 31
0
  0
LINE
  5
ABF
330
A02
100
AcDbEntity
  8
ShapeString
100
AcDbLine
 10
66.7821
 20
90.8188
 30
0
 11
67.5654
 21
90.8188
 31
0
  0
LINE
  5
AC0
330
A02
100
AcDbEntity
  8
ShapeString
100
AcDbLine
 10
66.7821
 20
88
 30
0
 11
66.7821
 21
90.8188
 31
0
  0
LINE
  5
AC1
330
A02
100
AcDbEntity
  8
ShapeString
100
AcDbLine
 10
67.5654
 20
88
 30
0
 11
66.7821
 21
88
 31
0
  0
SPLINE
  5
AC2
330
A02
100
AcDbEntity
  8
ShapeString
100
AcDbSpline
210
0
220
0
230
1
 70
8
 71
2
 72
6
 73
3
 74
0
 40
0
 40
0
 40
0
 40
1
 40
1
 40
1
 10
68.7659
 20
88.3417
 30
0
 10
68.3809
 20
88
 30
0
 10
67.5654
 20
88
 30
0
  0
SPLINE
  5
AC3
330
A02
100
AcDbEntity
  8
ShapeString
100
AcDbSpline
210
0
220
0
230
1
 70
8
 71
2
 72
6
 73
3
 74
0
 40
0
 40
0
 40
0
 40
1
 40
1
 40
1
 10
69.151
 20
89.4122
 30
0
 10
69.151
 20
88.6834
 30
0
 10
68.7659
 20
88.3417
 30
0
  0
SPLINE
  5
AC4
330
A02
100
AcDbEntity
  8
ShapeString
100
AcDbSpline
210
0
220
0
230
1
 70
8
 71
2
 72
6
 73
3
 74
0
 40
0
 40
0
 40
0
 40
1
 40
1
 40
1
 10
68.7678
 20
90.478
 30
0
 10
69.151
 20
90.1372
 30
0
 10
69.151
 20
89.4122
 30
0
  0
SPLINE
  5
AC5
330
A02
100
AcDbEntity
  8
ShapeString
100
AcDbSpline
210
0
220
0
230
1
 70
8
 71
2
 72
6
 73
3
 74
0
 40
0
 40
0
 40
0
 40
1
 40
1
 40
1
 10
67.5654
 20
90.8188
 30
0
 10
68.3846
 20
90.8188
 30
0
 10
68.7678
 20
90.478
 30
0
  0
LINE
  5
AC6
330
A02
100
AcDbEntity
  8
ShapeString
100
AcDbLine
 10
67.1634
 20
90.5047
 30
0
 11
67.1634
 21
88.3141
 31
0
  0
LINE
  5
AC7
330
A02
100
AcDbEntity
  8
ShapeString
100
AcDbLine
 10
67.624
 20
90.5047
 30
0
 11
67.1634
 21
90.5047
 31
0
  0
SPLINE
  5
AC8
330
A02
100
AcDbEntity
  8
ShapeString
100
AcDbSpline
210
0
220
0
230
1
 70
8
 71
2
 72
6
 73
3
 74
0
 40
0
 40
0
 40
0
 40
1
 40
1
 40
1
 10
68.478
 20
90.2414
 30
0
 10
68.2072
 20
90.5047
 30
0
 10
67.624
 20
90.5047
 30
0
  0
SPLINE
  5
AC9
330
A02
100
AcDbEntity
  8
ShapeString
100
AcDbSpline
210
0
220
0
230
1
 70
8
 71
2
 72
6
 73
3
 74
0
 40
0
 40
0
 40
0
 40
1
 40
1
 40
1
 10
68.749
 20
89.4122
 30
0
 10
68.749
 20
89.9783
 30
0
 10
68.478
 20
90.2414
 30
0
  0
SPLINE
  5
ACA
330
A02
100
AcDbEntity
  8
ShapeString
100
AcDbSpline
210
0
220
0
230
1
 70
8
 71
2
 72
6
 73
3
 74
0
 40
0
 40
0
 40
0
 40
1
 40
1
 40
1
 10
68.478
 20
88.5782
 30
0
 10
68.749
 20
88.8424
 30
0
 10
68.749
 20
89.4122
 30
0
  0
SPLINE
  5
ACB
330
A02
100
AcDbEntity
  8
ShapeString
100
AcDbSpline
210
0
220
0
230
1
 70
8
 71
2
 72
6
 73
3
 74
0
 40
0
 40
0
 40
0
 40
1
 40
1
 40
1
 10
67.624
 20
88.3141
 30
0
 10
68.2072
 20
88.3141
 30
0
 10
68.478
 20
88.5782
 30
0
  0
LINE
  5
ACC
330
A02
100
AcDbEntity
  8
ShapeString
100
AcDbLine
 10
67.1634
 20
88.3141
 30
0
 11
67.624
 21
88.3141
 31
0
  0
LINE
  5
ACD
330
A02
100
AcDbEntity
  8
ShapeString001
100
AcDbLine
 10
47.3794
 20
10.8188
 30
0
 11
49.1613
 21
10.8188
 31
0
  0
LINE
  5
ACE
330
A02
100
AcDbEntity
  8
ShapeString001
100
AcDbLine
 10
47.3794
 20
8
 30
0
 11
47.3794
 21
10.8188
 31
0
  0
LINE
  5
ACF
330
A02
100
AcDbEntity
  8
ShapeString001
100
AcDbLine
 10
49.1953
 20
8
 30
0
 11
47.3794
 21
8
 31
0
  0
LINE
  5
AD0
330
A02
100
AcDbEntity
  8
ShapeString001
100
AcDbLine
 10
49.1953
 20
8.32215
 30
0
 11
49.1953
 21
8
 31
0
  0
LINE
  5
AD1
330
A02
100
AcDbEntity
  8
ShapeString001
100
AcDbLine
 10
47.7607
 20
8.32215
 30
0
 11
49.1953
 21
8.32215
 31
0
  0
LINE
  5
AD2
330
A02
100
AcDbEntity
  8
ShapeString001
100
AcDbLine
 10
47.7607
 20
9.33691
 30
0
 11
47.7607
 21
8.32215
 31
0
  0
LINE
  5
AD3
330
A02
100
AcDbEntity
  8
ShapeString001
100
AcDbLine
 10
49.1028
 20
9.33691
 30
0
 11
47.7607
 21
9.33691
 31
0
  0
LINE
  5
AD4
330
A02
100
AcDbEntity
  8
ShapeString001
100
AcDbLine
 10
49.1028
 20
9.65906
 30
0
 11
49.1028
 21
9.33691
 31
0
  0
LINE
  5
AD5
330
A02
100
AcDbEntity
  8
ShapeString001
100
AcDbLine
 10
47.7607
 20
9.65906
 30
0
 11
49.1028
 21
9.65906
 31
0
  0
LINE
  5
AD6
330
A02
100
AcDbEntity
  8
ShapeString001
100
AcDbLine
 10
47.7607
 20
10.4966
 30
0
 11
47.7607
 21
9.65906
 31
0
  0
LINE
  5
AD7
330
A02
100
AcDbEntity
  8
ShapeString001
100
AcDbLine
 10
49.1613
 20
10.4966
 30
0
 11
47.7607
 21
10.4966
 31
0
  0
LINE
  5
AD8
330
A02
100
AcDbEntity
  8
ShapeString001
100
AcDbLine
 10
49.1613
 20
10.8188
 30
0
 11
49.1613
 21
10.4966
 31
0
  0
LINE
  5
AD9
330
A02
100
AcDbEntity
  8
ShapeString001
100
AcDbLine
 10
49.5686
 20
10.8188
 30
0
 11
49.9537
 21
10.8188
 31
0
  0
LINE
  5
ADA
330
A02
100
AcDbEntity
  8
ShapeString001
100
AcDbLine
 10
50.2746
 20
8
 30
0
 11
49.5686
 21
10.8188
 31
0
  0
LINE
  5
ADB
330
A02
100
AcDbEntity
  8
ShapeString001
100
AcDbLine
 10
50.754
 20
8
 30
0
 11
50.2746
 21
8
 31
0
  0
LINE
  5
ADC
330
A02
100
AcDbEntity
  8
ShapeString001
100
AcDbLine
 10
51.3543
 20
10.4468
 30
0
 11
50.754
 21
8
 31
0
  0
LINE
  5
ADD
330
A02
100
AcDbEntity
  8
ShapeString001
100
AcDbLine
 10
51.9489
 20
8
 30
0
 11
51.3543
 21
10.4468
 31
0
  0
LINE
  5
ADE
330
A02
100
AcDbEntity
  8
ShapeString001
100
AcDbLine
 10
52.4283
 20
8
 30
0
 11
51.9489
 21
8
 31
0
  0
LINE
  5
ADF
330
A02
100
AcDbEntity
  8
ShapeString001
100
AcDbLine
 10
53.1362
 20
10.8188
 30
0
 11
52.4283
 21
8
 31
0
  0
LINE
  5
AE0
330
A02
100
AcDbEntity
  8
ShapeString001
100
AcDbLine
 10
52.7492
 20
10.8188
 30
0
 11
53.1362
 21
10.8188
 31
0
  0
LINE
  5
AE1
330
A02
100
AcDbEntity
  8
ShapeString001
100
AcDbLine
 10
52.1584
 20
8.43616
 30
0
 11
52.7492
 21
10.8188
 31
0
  0
LINE
  5
AE2
330
A02
100
AcDbEntity
  8
ShapeString001
100
AcDbLine
 10
51.5657
 20
10.8188
 30
0
 11
52.1584
 21
8.43616
 31
0
  0
LINE
  5
AE3
330
A02
100
AcDbEntity
  8
ShapeString001
100
AcDbLine
 10
51.1372
 20
10.8188
 30
0
 11
51.5657
 21
10.8188
 31
0
  0
LINE
  5
AE4
330
A02
100
AcDbEntity
  8
ShapeString001
100
AcDbLine
 10
50.5464
 20
8.43616
 30
0
 11
51.1372
 21
10.8188
 31
0
  0
LINE
  5
AE5
330
A02
100
AcDbEntity
  8
ShapeString001
100
AcDbLine
 10
49.9537
 20
10.8188
 30
0
 11
50.5464
 21
8.43616
 31
0
  0
LINE
  5
AE6
330
A02
100
AcDbEntity
  8
ShapeString001
100
AcDbLine
 10
54.6267
 20
10.8188
 30
0
 11
55.1062
 21
10.8188
 31
0
  0
LINE
  5
AE7
330
A02
100
AcDbEntity
  8
ShapeString001
100
AcDbLine
 10
53.4545
 20
9.03591
 30
0
 11
54.6267
 21
10.8188
 31
0
  0
LINE
  5
AE8
330
A02
100
AcDbEntity
  8
ShapeString001
100
AcDbLine
 10
53.4545
 20
8.66846
 30
0
 11
53.4545
 21
9.03591
 31
0
  0
LINE
  5
AE9
330
A02
100
AcDbEntity
  8
ShapeString001
100
AcDbLine
 10
54.7268
 20
8.66846
 30
0
 11
53.4545
 21
8.66846
 31
0
  0
LINE
  5
AEA
330
A02
100
AcDbEntity
  8
ShapeString001
100
AcDbLine
 10
54.7268
 20
8
 30
0
 11
54.7268
 21
8.66846
 31
0
  0
LINE
  5
AEB
330
A02
100
AcDbEntity
  8
ShapeString001
100
AcDbLine
 10
55.1062
 20
8
 30
0
 11
54.7268
 21
8
 31
0
  0
LINE
  5
AEC
330
A02
100
AcDbEntity
  8
ShapeString001
100
AcDbLine
 10
55.1062
 20
8.66846
 30
0
 11
55.1062
 21
8
 31
0
  0
LINE
  5
AED
330
A02
100
AcDbEntity
  8
ShapeString001
100
AcDbLine
 10
55.5082
 20
8.66846
 30
0
 11
55.1062
 21
8.66846
 31
0
  0
LINE
  5
AEE
330
A02
100
AcDbEntity
  8
ShapeString001
100
AcDbLine
 10
55.5082
 20
8.98255
 30
0
 11
55.5082
 21
8.66846
 31
0
  0
LINE
  5
AEF
330
A02
100
AcDbEntity
  8
ShapeString001
100
AcDbLine
 10
55.1062
 20
8.98255
 30
0
 11
55.5082
 21
8.98255
 31
0
  0
LINE
  5
AF0
330
A02
100
AcDbEntity
  8
ShapeString001
100
AcDbLine
 10
55.1062
 20
10.8188
 30
0
 11
55.1062
 21
8.98255
 31
0
  0
LINE
  5
AF1
330
A02
100
AcDbEntity
  8
ShapeString001
100
AcDbLine
 10
54.7268
 20
10.4867
 30
0
 11
53.7641
 21
8.98255
 31
0
  0
LINE
  5
AF2
330
A02
100
AcDbEntity
  8
ShapeString001
100
AcDbLine
 10
54.7268
 20
8.98255
 30
0
 11
54.7268
 21
10.4867
 31
0
  0
LINE
  5
AF3
330
A02
100
AcDbEntity
  8
ShapeString001
100
AcDbLine
 10
53.7641
 20
8.98255
 30
0
 11
54.7268
 21
8.98255
 31
0
  0
LINE
  5
AF4
330
A02
100
AcDbEntity
  8
ShapeString001
100
AcDbLine
 10
58.0231
 20
8.40143
 30
0
 11
58.0231
 21
9.15973
 31
0
  0
SPLINE
  5
AF5
330
A02
100
AcDbEntity
  8
ShapeString001
100
AcDbSpline
210
0
220
0
230
1
 70
8
 71
2
 72
6
 73
3
 74
0
 40
0
 40
0
 40
0
 40
1
 40
1
 40
1
 10
57.7381
 20
8.2927
 30
0
 10
57.8966
 20
8.32768
 30
0
 10
58.0231
 20
8.40143
 30
0
  0
SPLINE
  5
AF6
330
A02
100
AcDbEntity
  8
ShapeString001
100
AcDbSpline
210
0
220
0
230
1
 70
8
 71
2
 72
6
 73
3
 74
0
 40
0
 40
0
 40
0
 40
1
 40
1
 40
1
 10
57.3776
 20
8.25772
 30
0
 10
57.5795
 20
8.25772
 30
0
 10
57.7381
 20
8.2927
 30
0
  0
SPLINE
  5
AF7
330
A02
100
AcDbEntity
  8
ShapeString001
100
AcDbSpline
210
0
220
0
230
1
 70
8
 71
2
 72
6
 73
3
 74
0
 40
0
 40
0
 40
0
 40
1
 40
1
 40
1
 10
56.6008
 20
8.54627
 30
0
 10
56.8604
 20
8.25772
 30
0
 10
57.3776
 20
8.25772
 30
0
  0
SPLINE
  5
AF8
330
A02
100
AcDbEntity
  8
ShapeString001
100
AcDbSpline
210
0
220
0
230
1
 70
8
 71
2
 72
6
 73
3
 74
0
 40
0
 40
0
 40
0
 40
1
 40
1
 40
1
 10
56.3413
 20
9.40449
 30
0
 10
56.3413
 20
8.83482
 30
0
 10
56.6008
 20
8.54627
 30
0
  0
SPLINE
  5
AF9
330
A02
100
AcDbEntity
  8
ShapeString001
100
AcDbSpline
210
0
220
0
230
1
 70
8
 71
2
 72
6
 73
3
 74
0
 40
0
 40
0
 40
0
 40
1
 40
1
 40
1
 10
56.6008
 20
10.2645
 30
0
 10
56.3413
 20
9.97592
 30
0
 10
56.3413
 20
9.40449
 30
0
  0
SPLINE
  5
AFA
330
A02
100
AcDbEntity
  8
ShapeString001
100
AcDbSpline
210
0
220
0
230
1
 70
8
 71
2
 72
6
 73
3
 74
0
 40
0
 40
0
 40
0
 40
1
 40
1
 40
1
 10
57.3776
 20
10.553
 30
0
 10
56.8604
 20
10.553
 30
0
 10
56.6008
 20
10.2645
 30
0
  0
SPLINE
  5
AFB
330
A02
100
AcDbEntity
  8
ShapeString001
100
AcDbSpline
210
0
220
0
230
1
 70
8
 71
2
 72
6
 73
3
 74
0
 40
0
 40
0
 40
0
 40
1
 40
1
 40
1
 10
57.8778
 20
10.4639
 30
0
 10
57.6399
 20
10.553
 30
0
 10
57.3776
 20
10.553
 30
0
  0
SPLINE
  5
AFC
330
A02
100
AcDbEntity
  8
ShapeString001
100
AcDbSpline
210
0
220
0
230
1
 70
8
 71
2
 72
6
 73
3
 74
0
 40
0
 40
0
 40
0
 40
1
 40
1
 40
1
 10
58.327
 20
10.1987
 30
0
 10
58.1156
 20
10.375
 30
0
 10
57.8778
 20
10.4639
 30
0
  0
LINE
  5
AFD
330
A02
100
AcDbEntity
  8
ShapeString001
100
AcDbLine
 10
58.327
 20
10.6013
 30
0
 11
58.327
 21
10.1987
 31
0
  0
SPLINE
  5
AFE
330
A02
100
AcDbEntity
  8
ShapeString001
100
AcDbSpline
210
0
220
0
230
1
 70
8
 71
2
 72
6
 73
3
 74
0
 40
0
 40
0
 40
0
 40
1
 40
1
 40
1
 10
57.8692
 20
10.7997
 30
0
 10
58.1175
 20
10.7323
 30
0
 10
58.327
 20
10.6013
 30
0
  0
SPLINE
  5
AFF
330
A02
100
AcDbEntity
  8
ShapeString001
100
AcDbSpline
210
0
220
0
230
1
 70
8
 71
2
 72
6
 73
3
 74
0
 40
0
 40
0
 40
0
 40
1
 40
1
 40
1
 10
57.3455
 20
10.8671
 30
0
 10
57.6211
 20
10.8671
 30
0
 10
57.8692
 20
10.7997
 30
0
  0
SPLINE
  5
B00
330
A02
100
AcDbEntity
  8
ShapeString001
100
AcDbSpline
210
0
220
0
230
1
 70
8
 71
2
 72
6
 73
3
 74
0
 40
0
 40
0
 40
0
 40
1
 40
1
 40
1
 10
56.312
 20
10.4812
 30
0
 10
56.6848
 20
10.8671
 30
0
 10
57.3455
 20
10.8671
 30
0
  0
SPLINE
  5
B01
330
A02
100
AcDbEntity
  8
ShapeString001
100
AcDbSpline
210
0
220
0
230
1
 70
8
 71
2
 72
6
 73
3
 74
0
 40
0
 40
0
 40
0
 40
1
 40
1
 40
1
 10
55.9392
 20
9.40449
 30
0
 10
55.9392
 20
10.0952
 30
0
 10
56.312
 20
10.4812
 30
0
  0
SPLINE
  5
B02
330
A02
100
AcDbEntity
  8
ShapeString001
100
AcDbSpline
210
0
220
0
230
1
 70
8
 71
2
 72
6
 73
3
 74
0
 40
0
 40
0
 40
0
 40
1
 40
1
 40
1
 10
56.312
 20
8.32957
 30
0
 10
55.9392
 20
8.71552
 30
0
 10
55.9392
 20
9.40449
 30
0
  0
SPLINE
  5
B03
330
A02
100
AcDbEntity
  8
ShapeString001
100
AcDbSpline
210
0
220
0
230
1
 70
8
 71
2
 72
6
 73
3
 74
0
 40
0
 40
0
 40
0
 40
1
 40
1
 40
1
 10
57.3455
 20
7.94362
 30
0
 10
56.6848
 20
7.94362
 30
0
 10
56.312
 20
8.32957
 30
0
  0
SPLINE
  5
B04
330
A02
100
AcDbEntity
  8
ShapeString001
100
AcDbSpline
210
0
220
0
230
1
 70
8
 71
2
 72
6
 73
3
 74
0
 40
0
 40
0
 40
0
 40
1
 40
1
 40
1
 10
57.9136
 20
8.02404
 30
0
 10
57.6475
 20
7.94362
 30
0
 10
57.3455
 20
7.94362
 30
0
  0
SPLINE
  5
B05
330
A02
100
AcDbEntity
  8
ShapeString001
100
AcDbSpline
210
0
220
0
230
1
 70
8
 71
2
 72
6
 73
3
 74
0
 40
0
 40
0
 40
0
 40
1
 40
1
 40
1
 10
58.4006
 20
8.26149
 30
0
 10
58.1798
 20
8.10445
 30
0
 10
57.9136
 20
8.02404
 30
0
  0
LINE
  5
B06
330
A02
100
AcDbEntity
  8
ShapeString001
100
AcDbLine
 10
58.4006
 20
9.47383
 30
0
 11
58.4006
 21
8.26149
 31
0
  0
LINE
  5
B07
330
A02
100
AcDbEntity
  8
ShapeString001
100
AcDbLine
 10
57.4002
 20
9.47383
 30
0
 11
58.4006
 21
9.47383
 31
0
  0
LINE
  5
B08
330
A02
100
AcDbEntity
  8
ShapeString001
100
AcDbLine
 10
57.4002
 20
9.15973
 30
0
 11
57.4002
 21
9.47383
 31
0
  0
LINE
  5
B09
330
A02
100
AcDbEntity
  8
ShapeString001
100
AcDbLine
 10
58.0231
 20
9.15973
 30
0
 11
57.4002
 21
9.15973
 31
0
  0
SPLINE
  5
B0A
330
A02
100
AcDbEntity
  8
ShapeString001
100
AcDbSpline
210
0
220
0
230
1
 70
8
 71
2
 72
6
 73
3
 74
0
 40
0
 40
0
 40
0
 40
1
 40
1
 40
1
 10
59.9469
 20
10.8671
 30
0
 10
60.4207
 20
10.8671
 30
0
 10
60.6708
 20
10.4925
 30
0
  0
SPLINE
  5
B0B
330
A02
100
AcDbEntity
  8
ShapeString001
100
AcDbSpline
210
0
220
0
230
1
 70
8
 71
2
 72
6
 73
3
 74
0
 40
0
 40
0
 40
0
 40
1
 40
1
 40
1
 10
59.223
 20
10.4925
 30
0
 10
59.4732
 20
10.8671
 30
0
 10
59.9469
 20
10.8671
 30
0
  0
SPLINE
  5
B0C
330
A02
100
AcDbEntity
  8
ShapeString001
100
AcDbSpline
210
0
220
0
230
1
 70
8
 71
2
 72
6
 73
3
 74
0
 40
0
 40
0
 40
0
 40
1
 40
1
 40
1
 10
58.9729
 20
9.40449
 30
0
 10
58.9729
 20
10.1179
 30
0
 10
59.223
 20
10.4925
 30
0
  0
SPLINE
  5
B0D
330
A02
100
AcDbEntity
  8
ShapeString001
100
AcDbSpline
210
0
220
0
230
1
 70
8
 71
2
 72
6
 73
3
 74
0
 40
0
 40
0
 40
0
 40
1
 40
1
 40
1
 10
59.223
 20
8.31825
 30
0
 10
58.9729
 20
8.69287
 30
0
 10
58.9729
 20
9.40449
 30
0
  0
SPLINE
  5
B0E
330
A02
100
AcDbEntity
  8
ShapeString001
100
AcDbSpline
210
0
220
0
230
1
 70
8
 71
2
 72
6
 73
3
 74
0
 40
0
 40
0
 40
0
 40
1
 40
1
 40
1
 10
59.9469
 20
7.94362
 30
0
 10
59.4732
 20
7.94362
 30
0
 10
59.223
 20
8.31825
 30
0
  0
SPLINE
  5
B0F
330
A02
100
AcDbEntity
  8
ShapeString001
100
AcDbSpline
210
0
220
0
230
1
 70
8
 71
2
 72
6
 73
3
 74
0
 40
0
 40
0
 40
0
 40
1
 40
1
 40
1
 10
60.6708
 20
8.31825
 30
0
 10
60.4207
 20
7.94362
 30
0
 10
59.9469
 20
7.94362
 30
0
  0
SPLINE
  5
B10
330
A02
100
AcDbEntity
  8
ShapeString001
100
AcDbSpline
210
0
220
0
230
1
 70
8
 71
2
 72
6
 73
3
 74
0
 40
0
 40
0
 40
0
 40
1
 40
1
 40
1
 10
60.9209
 20
9.40449
 30
0
 10
60.9209
 20
8.69287
 30
0
 10
60.6708
 20
8.31825
 30
0
  0
SPLINE
  5
B11
330
A02
100
AcDbEntity
  8
ShapeString001
100
AcDbSpline
210
0
220
0
230
1
 70
8
 71
2
 72
6
 73
3
 74
0
 40
0
 40
0
 40
0
 40
1
 40
1
 40
1
 10
60.6708
 20
10.4925
 30
0
 10
60.9209
 20
10.1179
 30
0
 10
60.9209
 20
9.40449
 30
0
  0
SPLINE
  5
B12
330
A02
100
AcDbEntity
  8
ShapeString001
100
AcDbSpline
210
0
220
0
230
1
 70
8
 71
2
 72
6
 73
3
 74
0
 40
0
 40
0
 40
0
 40
1
 40
1
 40
1
 10
59.9469
 20
10.5611
 30
0
 10
59.6525
 20
10.5611
 30
0
 10
59.5042
 20
10.2724
 30
0
  0
SPLINE
  5
B13
330
A02
100
AcDbEntity
  8
ShapeString001
100
AcDbSpline
210
0
220
0
230
1
 70
8
 71
2
 72
6
 73
3
 74
0
 40
0
 40
0
 40
0
 40
1
 40
1
 40
1
 10
60.3914
 20
10.2724
 30
0
 10
60.2433
 20
10.5611
 30
0
 10
59.9469
 20
10.5611
 30
0
  0
SPLINE
  5
B14
330
A02
100
AcDbEntity
  8
ShapeString001
100
AcDbSpline
210
0
220
0
230
1
 70
8
 71
2
 72
6
 73
3
 74
0
 40
0
 40
0
 40
0
 40
1
 40
1
 40
1
 10
60.5396
 20
9.40449
 30
0
 10
60.5396
 20
9.98372
 30
0
 10
60.3914
 20
10.2724
 30
0
  0
SPLINE
  5
B15
330
A02
100
AcDbEntity
  8
ShapeString001
100
AcDbSpline
210
0
220
0
230
1
 70
8
 71
2
 72
6
 73
3
 74
0
 40
0
 40
0
 40
0
 40
1
 40
1
 40
1
 10
60.3914
 20
8.53834
 30
0
 10
60.5396
 20
8.82701
 30
0
 10
60.5396
 20
9.40449
 30
0
  0
SPLINE
  5
B16
330
A02
100
AcDbEntity
  8
ShapeString001
100
AcDbSpline
210
0
220
0
230
1
 70
8
 71
2
 72
6
 73
3
 74
0
 40
0
 40
0
 40
0
 40
1
 40
1
 40
1
 10
59.9469
 20
8.24966
 30
0
 10
60.2433
 20
8.24966
 30
0
 10
60.3914
 20
8.53834
 30
0
  0
SPLINE
  5
B17
330
A02
100
AcDbEntity
  8
ShapeString001
100
AcDbSpline
210
0
220
0
230
1
 70
8
 71
2
 72
6
 73
3
 74
0
 40
0
 40
0
 40
0
 40
1
 40
1
 40
1
 10
59.5042
 20
8.53834
 30
0
 10
59.6525
 20
8.24966
 30
0
 10
59.9469
 20
8.24966
 30
0
  0
SPLINE
  5
B18
330
A02
100
AcDbEntity
  8
ShapeString001
100
AcDbSpline
210
0
220
0
230
1
 70
8
 71
2
 72
6
 73
3
 74
0
 40
0
 40
0
 40
0
 40
1
 40
1
 40
1
 10
59.3561
 20
9.40449
 30
0
 10
59.3561
 20
8.82701
 30
0
 10
59.5042
 20
8.53834
 30
0
  0
SPLINE
  5
B19
330
A02
100
AcDbEntity
  8
ShapeString001
100
AcDbSpline
210
0
220
0
230
1
 70
8
 71
2
 72
6
 73
3
 74
0
 40
0
 40
0
 40
0
 40
1
 40
1
 40
1
 10
59.5042
 20
10.2724
 30
0
 10
59.3561
 20
9.98372
 30
0
 10
59.3561
 20
9.40449
 30
0
  0
LINE
  5
B1A
330
A02
100
AcDbEntity
  8
ShapeString001
100
AcDbLine
 10
61.9163
 20
8.32215
 30
0
 11
63.2471
 21
8.32215
 31
0
  0
SPLINE
  5
B1B
330
A02
100
AcDbEntity
  8
ShapeString001
100
AcDbSpline
210
0
220
0
230
1
 70
8
 71
2
 72
6
 73
3
 74
0
 40
0
 40
0
 40
0
 40
1
 40
1
 40
1
 10
62.6298
 20
9.05264
 30
0
 10
62.3769
 20
8.79153
 30
0
 10
61.9163
 20
8.32215
 30
0
  0
SPLINE
  5
B1C
330
A02
100
AcDbEntity
  8
ShapeString001
100
AcDbSpline
210
0
220
0
230
1
 70
8
 71
2
 72
6
 73
3
 74
0
 40
0
 40
0
 40
0
 40
1
 40
1
 40
1
 10
62.9299
 20
9.36837
 30
0
 10
62.8828
 20
9.31376
 30
0
 10
62.6298
 20
9.05264
 30
0
  0
SPLINE
  5
B1D
330
A02
100
AcDbEntity
  8
ShapeString001
100
AcDbSpline
210
0
220
0
230
1
 70
8
 71
2
 72
6
 73
3
 74
0
 40
0
 40
0
 40
0
 40
1
 40
1
 40
1
 10
63.1668
 20
9.73507
 30
0
 10
63.1017
 20
9.57953
 30
0
 10
62.9299
 20
9.36837
 30
0
  0
SPLINE
  5
B1E
330
A02
100
AcDbEntity
  8
ShapeString001
100
AcDbSpline
210
0
220
0
230
1
 70
8
 71
2
 72
6
 73
3
 74
0
 40
0
 40
0
 40
0
 40
1
 40
1
 40
1
 10
63.232
 20
10.064
 30
0
 10
63.232
 20
9.8906
 30
0
 10
63.1668
 20
9.73507
 30
0
  0
SPLINE
  5
B1F
330
A02
100
AcDbEntity
  8
ShapeString001
100
AcDbSpline
210
0
220
0
230
1
 70
8
 71
2
 72
6
 73
3
 74
0
 40
0
 40
0
 40
0
 40
1
 40
1
 40
1
 10
62.9715
 20
10.6484
 30
0
 10
63.232
 20
10.4297
 30
0
 10
63.232
 20
10.064
 30
0
  0
SPLINE
  5
B20
330
A02
100
AcDbEntity
  8
ShapeString001
100
AcDbSpline
210
0
220
0
230
1
 70
8
 71
2
 72
6
 73
3
 74
0
 40
0
 40
0
 40
0
 40
1
 40
1
 40
1
 10
62.2731
 20
10.8671
 30
0
 10
62.711
 20
10.8671
 30
0
 10
62.9715
 20
10.6484
 30
0
  0
SPLINE
  5
B21
330
A02
100
AcDbEntity
  8
ShapeString001
100
AcDbSpline
210
0
220
0
230
1
 70
8
 71
2
 72
6
 73
3
 74
0
 40
0
 40
0
 40
0
 40
1
 40
1
 40
1
 10
61.9069
 20
10.8203
 30
0
 10
62.107
 20
10.8671
 30
0
 10
62.2731
 20
10.8671
 30
0
  0
SPLINE
  5
B22
330
A02
100
AcDbEntity
  8
ShapeString001
100
AcDbSpline
210
0
220
0
230
1
 70
8
 71
2
 72
6
 73
3
 74
0
 40
0
 40
0
 40
0
 40
1
 40
1
 40
1
 10
61.4765
 20
10.6819
 30
0
 10
61.7068
 20
10.7736
 30
0
 10
61.9069
 20
10.8203
 30
0
  0
LINE
  5
B23
330
A02
100
AcDbEntity
  8
ShapeString001
100
AcDbLine
 10
61.4765
 20
10.2953
 30
0
 11
61.4765
 21
10.6819
 31
0
  0
SPLINE
  5
B24
330
A02
100
AcDbEntity
  8
ShapeString001
100
AcDbSpline
210
0
220
0
230
1
 70
8
 71
2
 72
6
 73
3
 74
0
 40
0
 40
0
 40
0
 40
1
 40
1
 40
1
 10
61.9021
 20
10.4829
 30
0
 10
61.703
 20
10.421
 30
0
 10
61.4765
 20
10.2953
 30
0
  0
SPLINE
  5
B25
330
A02
100
AcDbEntity
  8
ShapeString001
100
AcDbSpline
210
0
220
0
230
1
 70
8
 71
2
 72
6
 73
3
 74
0
 40
0
 40
0
 40
0
 40
1
 40
1
 40
1
 10
62.2806
 20
10.545
 30
0
 10
62.1013
 20
10.545
 30
0
 10
61.9021
 20
10.4829
 30
0
  0
SPLINE
  5
B26
330
A02
100
AcDbEntity
  8
ShapeString001
100
AcDbSpline
210
0
220
0
230
1
 70
8
 71
2
 72
6
 73
3
 74
0
 40
0
 40
0
 40
0
 40
1
 40
1
 40
1
 10
62.6911
 20
10.4036
 30
0
 10
62.5336
 20
10.545
 30
0
 10
62.2806
 20
10.545
 30
0
  0
SPLINE
  5
B27
330
A02
100
AcDbEntity
  8
ShapeString001
100
AcDbSpline
210
0
220
0
230
1
 70
8
 71
2
 72
6
 73
3
 74
0
 40
0
 40
0
 40
0
 40
1
 40
1
 40
1
 10
62.8488
 20
10.0382
 30
0
 10
62.8488
 20
10.2625
 30
0
 10
62.6911
 20
10.4036
 30
0
  0
SPLINE
  5
B28
330
A02
100
AcDbEntity
  8
ShapeString001
100
AcDbSpline
210
0
220
0
230
1
 70
8
 71
2
 72
6
 73
3
 74
0
 40
0
 40
0
 40
0
 40
1
 40
1
 40
1
 10
62.776
 20
9.75847
 30
0
 10
62.8488
 20
9.90067
 30
0
 10
62.8488
 20
10.0382
 30
0
  0
SPLINE
  5
B29
330
A02
100
AcDbEntity
  8
ShapeString001
100
AcDbSpline
210
0
220
0
230
1
 70
8
 71
2
 72
6
 73
3
 74
0
 40
0
 40
0
 40
0
 40
1
 40
1
 40
1
 10
62.5203
 20
9.41091
 30
0
 10
62.7034
 20
9.61628
 30
0
 10
62.776
 20
9.75847
 30
0
  0
SPLINE
  5
B2A
330
A02
100
AcDbEntity
  8
ShapeString001
100
AcDbSpline
210
0
220
0
230
1
 70
8
 71
2
 72
6
 73
3
 74
0
 40
0
 40
0
 40
0
 40
1
 40
1
 40
1
 10
62.0493
 20
8.92391
 30
0
 10
62.4241
 20
9.30168
 30
0
 10
62.5203
 20
9.41091
 30
0
  0
SPLINE
  5
B2B
330
A02
100
AcDbEntity
  8
ShapeString001
100
AcDbSpline
210
0
220
0
230
1
 70
8
 71
2
 72
6
 73
3
 74
0
 40
0
 40
0
 40
0
 40
1
 40
1
 40
1
 10
61.4576
 20
8.32215
 30
0
 10
61.6747
 20
8.54627
 30
0
 10
62.0493
 20
8.92391
 30
0
  0
LINE
  5
B2C
330
A02
100
AcDbEntity
  8
ShapeString001
100
AcDbLine
 10
61.4576
 20
8
 30
0
 11
61.4576
 21
8.32215
 31
0
  0
LINE
  5
B2D
330
A02
100
AcDbEntity
  8
ShapeString001
100
AcDbLine
 10
63.2471
 20
8
 30
0
 11
61.4576
 21
8
 31
0
  0
LINE
  5
B2E
330
A02
100
AcDbEntity
  8
ShapeString001
100
AcDbLine
 10
63.2471
 20
8.32215
 30
0
 11
63.2471
 21
8
 31
0
  0
ENDSEC
  0
SECTION
  2
OBJECTS
  0
DICTIONARY
  5
F000
330
0
100
AcDbDictionary
  3
ACAD_GROUP
350
F001
  0
DICTIONARY
  5
F001
330
F000
100
AcDbDictionary
  0
ENDSEC
  0
EOF