ISO-10303-21;
HEADER;
FILE_DESCRIPTION(('ViewDefinition[DesignTransferView]'),'2;1');
FILE_NAME('/dev/null','2026-04-21T15:47:34+00:00',(''),(''),'IfcOpenShell 0.8.5','IfcOpenShell 0.8.5','Nobody');
FILE_SCHEMA(('IFC4'));
ENDSEC;
DATA;
#1=IFCPROJECT('1jNlxNe$X2wuc8yTrbvS8u',$,'v13_answer',$,$,$,$,(#10),#5);
#2=IFCSIUNIT(*,.LENGTHUNIT.,.MILLI.,.METRE.);
#3=IFCSIUNIT(*,.AREAUNIT.,$,.SQUARE_METRE.);
#4=IFCSIUNIT(*,.VOLUMEUNIT.,$,.CUBIC_METRE.);
#5=IFCUNITASSIGNMENT((#3,#4,#2));
#6=IFCCARTESIANPOINT((0.,0.,0.));
#7=IFCDIRECTION((0.,0.,1.));
#8=IFCDIRECTION((1.,0.,0.));
#9=IFCAXIS2PLACEMENT3D(#6,#7,#8);
#10=IFCGEOMETRICREPRESENTATIONCONTEXT($,'Model',3,1.0000000000000001E-05,#9,$);
#11=IFCGEOMETRICREPRESENTATIONSUBCONTEXT('Body','Model',*,*,*,*,#10,$,.MODEL_VIEW.,$);
#12=IFCSITE('2dE2ei3mT9f8urjh7kEgQo',$,'Site',$,$,$,$,$,$,$,$,$,$,$);
#13=IFCBUILDING('0f5ngHE5rFmfiXgq3f$Hst',$,'v13_answer',$,$,$,$,$,$,$,$,$);
#14=IFCRELAGGREGATES('3mS1VqBUnFsBHtgnvUag7n',$,$,$,#1,(#12));
#15=IFCRELAGGREGATES('2HSRV8VAH06OEn_ohRvC6a',$,$,$,#12,(#13));
#16=IFCBUILDINGSTOREY('354KiMMEf1kQmX2qmFlQf8',$,'Level 1',$,$,#27,$,$,$,$);
#22=IFCRELAGGREGATES('3GGphDq1X4hBKn8iE4uoVi',$,$,$,#13,(#16));
#23=IFCCARTESIANPOINT((0.,0.,0.));
#24=IFCDIRECTION((0.,0.,1.));
#25=IFCDIRECTION((1.,0.,0.));
#26=IFCAXIS2PLACEMENT3D(#23,#24,#25);
#27=IFCLOCALPLACEMENT($,#26);
#28=IFCSLAB('0SOt05XanBvhHTxZZv_AAH',$,'Floor',$,$,#46,#35,$,.FLOOR.);
#29=IFCCARTESIANPOINTLIST2D(((0.,0.),(14000.,0.),(14000.,8000.),(0.,8000.),(0.,0.)));
#30=IFCINDEXEDPOLYCURVE(#29,$,$);
#31=IFCDIRECTION((0.,0.,1.));
#32=IFCARBITRARYCLOSEDPROFILEDEF(.AREA.,$,#30);
#33=IFCEXTRUDEDAREASOLID(#32,$,#31,250.);
#34=IFCSHAPEREPRESENTATION(#11,'Body','SweptSolid',(#33));
#35=IFCPRODUCTDEFINITIONSHAPE($,$,(#34));
#41=IFCRELCONTAINEDINSPATIALSTRUCTURE('0iSEpqJMj5fBeRFC$Ujyy2',$,$,$,(#172,#69,#28,#91,#47,#190,#226,#113,#208,#154),#16);
#42=IFCCARTESIANPOINT((0.,0.,0.));
#43=IFCDIRECTION((0.,0.,1.));
#44=IFCDIRECTION((1.,0.,0.));
#45=IFCAXIS2PLACEMENT3D(#42,#43,#44);
#46=IFCLOCALPLACEMENT(#27,#45);
#47=IFCWALL('3JurF2K5DABOoxgmCxtP3D',$,'Perim-1',$,$,#68,#58,$,$);
#48=IFCCARTESIANPOINTLIST2D(((0.,0.),(0.,200.),(14000.,200.),(14000.,0.),(0.,0.)));
#49=IFCINDEXEDPOLYCURVE(#48,$,.F.);
#50=IFCDIRECTION((0.,0.,1.));
#51=IFCARBITRARYCLOSEDPROFILEDEF(.AREA.,$,#49);
#52=IFCCARTESIANPOINT((0.,0.,0.));
#53=IFCDIRECTION((0.,0.,1.));
#54=IFCDIRECTION((1.,0.,0.));
#55=IFCAXIS2PLACEMENT3D(#52,#53,#54);
#56=IFCEXTRUDEDAREASOLID(#51,#55,#50,3600.);
#57=IFCSHAPEREPRESENTATION(#11,'Body','SweptSolid',(#56));
#58=IFCPRODUCTDEFINITIONSHAPE($,$,(#57));
#64=IFCCARTESIANPOINT((0.,0.,0.));
#65=IFCDIRECTION((0.,0.,1.));
#66=IFCDIRECTION((1.,0.,0.));
#67=IFCAXIS2PLACEMENT3D(#64,#65,#66);
#68=IFCLOCALPLACEMENT(#27,#67);
#69=IFCWALL('09qsgj5wvAQuxNqB1Gc5_x',$,'Perim-2',$,$,#90,#80,$,$);
#70=IFCCARTESIANPOINTLIST2D(((0.,0.),(0.,200.),(8000.,200.),(8000.,0.),(0.,0.)));
#71=IFCINDEXEDPOLYCURVE(#70,$,.F.);
#72=IFCDIRECTION((0.,0.,1.));
#73=IFCARBITRARYCLOSEDPROFILEDEF(.AREA.,$,#71);
#74=IFCCARTESIANPOINT((0.,0.,0.));
#75=IFCDIRECTION((0.,0.,1.));
#76=IFCDIRECTION((1.,0.,0.));
#77=IFCAXIS2PLACEMENT3D(#74,#75,#76);
#78=IFCEXTRUDEDAREASOLID(#73,#77,#72,3600.);
#79=IFCSHAPEREPRESENTATION(#11,'Body','SweptSolid',(#78));
#80=IFCPRODUCTDEFINITIONSHAPE($,$,(#79));
#86=IFCCARTESIANPOINT((14000.,0.,0.));
#87=IFCDIRECTION((0.,0.,1.));
#88=IFCDIRECTION((6.123233995736766E-17,1.,0.));
#89=IFCAXIS2PLACEMENT3D(#86,#87,#88);
#90=IFCLOCALPLACEMENT(#27,#89);
#91=IFCWALL('3CfepsZAH2ZeQ$yKO9mn5F',$,'Perim-3',$,$,#112,#102,$,$);
#92=IFCCARTESIANPOINTLIST2D(((0.,0.),(0.,200.),(14000.,200.),(14000.,0.),(0.,0.)));
#93=IFCINDEXEDPOLYCURVE(#92,$,.F.);
#94=IFCDIRECTION((0.,0.,1.));
#95=IFCARBITRARYCLOSEDPROFILEDEF(.AREA.,$,#93);
#96=IFCCARTESIANPOINT((0.,0.,0.));
#97=IFCDIRECTION((0.,0.,1.));
#98=IFCDIRECTION((1.,0.,0.));
#99=IFCAXIS2PLACEMENT3D(#96,#97,#98);
#100=IFCEXTRUDEDAREASOLID(#95,#99,#94,3600.);
#101=IFCSHAPEREPRESENTATION(#11,'Body','SweptSolid',(#100));
#102=IFCPRODUCTDEFINITIONSHAPE($,$,(#101));
#108=IFCCARTESIANPOINT((14000.,8000.,0.));
#109=IFCDIRECTION((0.,0.,1.));
#110=IFCDIRECTION((-1.,1.2246467991473532E-16,0.));
#111=IFCAXIS2PLACEMENT3D(#108,#109,#110);
#112=IFCLOCALPLACEMENT(#27,#111);
#113=IFCWALL('09f6PnjcDEmuhacqwwk3Cf',$,'Perim-4',$,$,#134,#124,$,$);
#114=IFCCARTESIANPOINTLIST2D(((0.,0.),(0.,200.),(8000.,200.),(8000.,0.),(0.,0.)));
#115=IFCINDEXEDPOLYCURVE(#114,$,.F.);
#116=IFCDIRECTION((0.,0.,1.));
#117=IFCARBITRARYCLOSEDPROFILEDEF(.AREA.,$,#115);
#118=IFCCARTESIANPOINT((0.,0.,0.));
#119=IFCDIRECTION((0.,0.,1.));
#120=IFCDIRECTION((1.,0.,0.));
#121=IFCAXIS2PLACEMENT3D(#118,#119,#120);
#122=IFCEXTRUDEDAREASOLID(#117,#121,#116,3600.);
#123=IFCSHAPEREPRESENTATION(#11,'Body','SweptSolid',(#122));
#124=IFCPRODUCTDEFINITIONSHAPE($,$,(#123));
#130=IFCCARTESIANPOINT((0.,8000.,0.));
#131=IFCDIRECTION((0.,0.,1.));
#132=IFCDIRECTION((6.123233995736766E-17,-1.,0.));
#133=IFCAXIS2PLACEMENT3D(#130,#131,#132);
#134=IFCLOCALPLACEMENT(#27,#133);
#135=IFCSPACE('3mqlMD32z7E8Ob3JnFDms_',$,'Retail Space',$,$,#153,#142,$,$,$,$);
#136=IFCCARTESIANPOINTLIST2D(((500.,500.),(13500.,500.),(13500.,7500.),(500.,7500.),(500.,500.)));
#137=IFCINDEXEDPOLYCURVE(#136,$,$);
#138=IFCDIRECTION((0.,0.,1.));
#139=IFCARBITRARYCLOSEDPROFILEDEF(.AREA.,$,#137);
#140=IFCEXTRUDEDAREASOLID(#139,$,#138,3200.);
#141=IFCSHAPEREPRESENTATION(#11,'Body','SweptSolid',(#140));
#142=IFCPRODUCTDEFINITIONSHAPE($,$,(#141));
#148=IFCRELAGGREGATES('3Nr1lfuBD87el1n8sM1ip0',$,$,$,#16,(#135));
#149=IFCCARTESIANPOINT((0.,0.,0.));
#150=IFCDIRECTION((0.,0.,1.));
#151=IFCDIRECTION((1.,0.,0.));
#152=IFCAXIS2PLACEMENT3D(#149,#150,#151);
#153=IFCLOCALPLACEMENT(#27,#152);
#154=IFCWINDOW('0_sPzF7OL80hX206G8IGUS',$,'Storefront Window 1',$,$,#171,#161,$,$,$,$,$,$);
#155=IFCCARTESIANPOINTLIST2D(((0.,0.),(1000.,0.),(1000.,150.),(0.,150.),(0.,0.)));
#156=IFCINDEXEDPOLYCURVE(#155,$,$);
#157=IFCDIRECTION((0.,0.,1.));
#158=IFCARBITRARYCLOSEDPROFILEDEF(.AREA.,$,#156);
#159=IFCEXTRUDEDAREASOLID(#158,$,#157,1700.);
#160=IFCSHAPEREPRESENTATION(#11,'Body','SweptSolid',(#159));
#161=IFCPRODUCTDEFINITIONSHAPE($,$,(#160));
#167=IFCCARTESIANPOINT((1200.,0.,1000.));
#168=IFCDIRECTION((0.,0.,1.));
#169=IFCDIRECTION((1.,0.,0.));
#170=IFCAXIS2PLACEMENT3D(#167,#168,#169);
#171=IFCLOCALPLACEMENT(#27,#170);
#172=IFCWINDOW('2oq2zPE8j0chm4hshZiMb9',$,'Storefront Window 2',$,$,#189,#179,$,$,$,$,$,$);
#173=IFCCARTESIANPOINTLIST2D(((0.,0.),(1000.,0.),(1000.,150.),(0.,150.),(0.,0.)));
#174=IFCINDEXEDPOLYCURVE(#173,$,$);
#175=IFCDIRECTION((0.,0.,1.));
#176=IFCARBITRARYCLOSEDPROFILEDEF(.AREA.,$,#174);
#177=IFCEXTRUDEDAREASOLID(#176,$,#175,1700.);
#178=IFCSHAPEREPRESENTATION(#11,'Body','SweptSolid',(#177));
#179=IFCPRODUCTDEFINITIONSHAPE($,$,(#178));
#185=IFCCARTESIANPOINT((4200.,0.,1000.));
#186=IFCDIRECTION((0.,0.,1.));
#187=IFCDIRECTION((1.,0.,0.));
#188=IFCAXIS2PLACEMENT3D(#185,#186,#187);
#189=IFCLOCALPLACEMENT(#27,#188);
#190=IFCWINDOW('2ukdyym_X9YezUNMa3edn4',$,'Storefront Window 3',$,$,#207,#197,$,$,$,$,$,$);
#191=IFCCARTESIANPOINTLIST2D(((0.,0.),(1000.,0.),(1000.,150.),(0.,150.),(0.,0.)));
#192=IFCINDEXEDPOLYCURVE(#191,$,$);
#193=IFCDIRECTION((0.,0.,1.));
#194=IFCARBITRARYCLOSEDPROFILEDEF(.AREA.,$,#192);
#195=IFCEXTRUDEDAREASOLID(#194,$,#193,1700.);
#196=IFCSHAPEREPRESENTATION(#11,'Body','SweptSolid',(#195));
#197=IFCPRODUCTDEFINITIONSHAPE($,$,(#196));
#203=IFCCARTESIANPOINT((9200.,0.,1000.));
#204=IFCDIRECTION((0.,0.,1.));
#205=IFCDIRECTION((1.,0.,0.));
#206=IFCAXIS2PLACEMENT3D(#203,#204,#205);
#207=IFCLOCALPLACEMENT(#27,#206);
#208=IFCWINDOW('0HTxRnJKD4f8v2$7T15Kp9',$,'Storefront Window 4',$,$,#225,#215,$,$,$,$,$,$);
#209=IFCCARTESIANPOINTLIST2D(((0.,0.),(1000.,0.),(1000.,150.),(0.,150.),(0.,0.)));
#210=IFCINDEXEDPOLYCURVE(#209,$,$);
#211=IFCDIRECTION((0.,0.,1.));
#212=IFCARBITRARYCLOSEDPROFILEDEF(.AREA.,$,#210);
#213=IFCEXTRUDEDAREASOLID(#212,$,#211,1700.);
#214=IFCSHAPEREPRESENTATION(#11,'Body','SweptSolid',(#213));
#215=IFCPRODUCTDEFINITIONSHAPE($,$,(#214));
#221=IFCCARTESIANPOINT((12199.999999999998,0.,1000.));
#222=IFCDIRECTION((0.,0.,1.));
#223=IFCDIRECTION((1.,0.,0.));
#224=IFCAXIS2PLACEMENT3D(#221,#222,#223);
#225=IFCLOCALPLACEMENT(#27,#224);
#226=IFCDOOR('2GXZkrnBrFlPv1TCfgx3ge',$,'Main Entrance',$,$,#243,#233,$,$,$,$,$,$);
#227=IFCCARTESIANPOINTLIST2D(((0.,0.),(1600.,0.),(1600.,150.),(0.,150.),(0.,0.)));
#228=IFCINDEXEDPOLYCURVE(#227,$,$);
#229=IFCDIRECTION((0.,0.,1.));
#230=IFCARBITRARYCLOSEDPROFILEDEF(.AREA.,$,#228);
#231=IFCEXTRUDEDAREASOLID(#230,$,#229,2400.);
#232=IFCSHAPEREPRESENTATION(#11,'Body','SweptSolid',(#231));
#233=IFCPRODUCTDEFINITIONSHAPE($,$,(#232));
#239=IFCCARTESIANPOINT((6200.,0.,0.));
#240=IFCDIRECTION((0.,0.,1.));
#241=IFCDIRECTION((1.,0.,0.));
#242=IFCAXIS2PLACEMENT3D(#239,#240,#241);
#243=IFCLOCALPLACEMENT(#27,#242);
ENDSEC;
END-ISO-10303-21;
