ISO-10303-21;
HEADER;
FILE_DESCRIPTION(('ViewDefinition[DesignTransferView]'),'2;1');
FILE_NAME('/dev/null','2026-04-21T15:54:16+00:00',(''),(''),'IfcOpenShell 0.8.5','IfcOpenShell 0.8.5','Nobody');
FILE_SCHEMA(('IFC4'));
ENDSEC;
DATA;
#1=IFCPROJECT('0Zt37gyczFXw9YrTzYVbTz',$,'v12_init',$,$,$,$,(#10),#5);
#2=IFCSIUNIT(*,.LENGTHUNIT.,.MILLI.,.METRE.);
#3=IFCSIUNIT(*,.AREAUNIT.,$,.SQUARE_METRE.);
#4=IFCSIUNIT(*,.VOLUMEUNIT.,$,.CUBIC_METRE.);
#5=IFCUNITASSIGNMENT((#3,#4,#2));
#6=IFCCARTESIANPOINT((0.,0.,0.));
#7=IFCDIRECTION((0.,0.,1.));
#8=IFCDIRECTION((1.,0.,0.));
#9=IFCAXIS2PLACEMENT3D(#6,#7,#8);
#10=IFCGEOMETRICREPRESENTATIONCONTEXT($,'Model',3,1.0000000000000001E-05,#9,$);
#11=IFCGEOMETRICREPRESENTATIONSUBCONTEXT('Body','Model',*,*,*,*,#10,$,.MODEL_VIEW.,$);
#12=IFCSITE('07cFRbyEj2QPfZlZEBP0u3',$,'Site',$,$,$,$,$,$,$,$,$,$,$);
#13=IFCBUILDING('3y1fTZRqLD3vYxErg5G9yt',$,'v12_init',$,$,$,$,$,$,$,$,$);
#14=IFCRELAGGREGATES('1bsgYVSlbFMu0IhJ74FwrB',$,$,$,#1,(#12));
#15=IFCRELAGGREGATES('0AyIQXA8v3Yfi$0hjvXVY0',$,$,$,#12,(#13));
#16=IFCBUILDINGSTOREY('1N4ILVunLBh9eom0ZD2cpa',$,'Level 1',$,$,#27,$,$,$,$);
#22=IFCRELAGGREGATES('250hZ4YQj7xPH7rtuuar0X',$,$,$,#13,(#16,#28));
#23=IFCCARTESIANPOINT((0.,0.,0.));
#24=IFCDIRECTION((0.,0.,1.));
#25=IFCDIRECTION((1.,0.,0.));
#26=IFCAXIS2PLACEMENT3D(#23,#24,#25);
#27=IFCLOCALPLACEMENT($,#26);
#28=IFCBUILDINGSTOREY('2MQ8XSKJvE5RF6_mZ4a0D9',$,'Level 2',$,$,#38,$,$,$,$);
#34=IFCCARTESIANPOINT((0.,0.,3400.));
#35=IFCDIRECTION((0.,0.,1.));
#36=IFCDIRECTION((1.,0.,0.));
#37=IFCAXIS2PLACEMENT3D(#34,#35,#36);
#38=IFCLOCALPLACEMENT($,#37);
#39=IFCSLAB('1nhkWFsazDnuyZBjxvfPPr',$,'Floor 0',$,$,#57,#46,$,.FLOOR.);
#40=IFCCARTESIANPOINTLIST2D(((0.,0.),(20000.,0.),(20000.,12000.),(0.,12000.),(0.,0.)));
#41=IFCINDEXEDPOLYCURVE(#40,$,$);
#42=IFCDIRECTION((0.,0.,1.));
#43=IFCARBITRARYCLOSEDPROFILEDEF(.AREA.,$,#41);
#44=IFCEXTRUDEDAREASOLID(#43,$,#42,250.);
#45=IFCSHAPEREPRESENTATION(#11,'Body','SweptSolid',(#44));
#46=IFCPRODUCTDEFINITIONSHAPE($,$,(#45));
#52=IFCRELCONTAINEDINSPATIALSTRUCTURE('0IErjgw_r9HvqvrKt3rny6',$,$,$,(#190,#212,#58,#102,#124,#80,#168,#39,#146),#16);
#53=IFCCARTESIANPOINT((0.,0.,0.));
#54=IFCDIRECTION((0.,0.,1.));
#55=IFCDIRECTION((1.,0.,0.));
#56=IFCAXIS2PLACEMENT3D(#53,#54,#55);
#57=IFCLOCALPLACEMENT(#27,#56);
#58=IFCWALL('3T5muQ1sr4efrS0bc4YAqg',$,'Perim0-1',$,$,#79,#69,$,$);
#59=IFCCARTESIANPOINTLIST2D(((0.,0.),(0.,200.),(20000.,200.),(20000.,0.),(0.,0.)));
#60=IFCINDEXEDPOLYCURVE(#59,$,.F.);
#61=IFCDIRECTION((0.,0.,1.));
#62=IFCARBITRARYCLOSEDPROFILEDEF(.AREA.,$,#60);
#63=IFCCARTESIANPOINT((0.,0.,0.));
#64=IFCDIRECTION((0.,0.,1.));
#65=IFCDIRECTION((1.,0.,0.));
#66=IFCAXIS2PLACEMENT3D(#63,#64,#65);
#67=IFCEXTRUDEDAREASOLID(#62,#66,#61,3200.);
#68=IFCSHAPEREPRESENTATION(#11,'Body','SweptSolid',(#67));
#69=IFCPRODUCTDEFINITIONSHAPE($,$,(#68));
#75=IFCCARTESIANPOINT((0.,0.,0.));
#76=IFCDIRECTION((0.,0.,1.));
#77=IFCDIRECTION((1.,0.,0.));
#78=IFCAXIS2PLACEMENT3D(#75,#76,#77);
#79=IFCLOCALPLACEMENT(#27,#78);
#80=IFCWALL('1HB8qmMBj7ohmuatbMykv4',$,'Perim0-2',$,$,#101,#91,$,$);
#81=IFCCARTESIANPOINTLIST2D(((0.,0.),(0.,200.),(12000.,200.),(12000.,0.),(0.,0.)));
#82=IFCINDEXEDPOLYCURVE(#81,$,.F.);
#83=IFCDIRECTION((0.,0.,1.));
#84=IFCARBITRARYCLOSEDPROFILEDEF(.AREA.,$,#82);
#85=IFCCARTESIANPOINT((0.,0.,0.));
#86=IFCDIRECTION((0.,0.,1.));
#87=IFCDIRECTION((1.,0.,0.));
#88=IFCAXIS2PLACEMENT3D(#85,#86,#87);
#89=IFCEXTRUDEDAREASOLID(#84,#88,#83,3200.);
#90=IFCSHAPEREPRESENTATION(#11,'Body','SweptSolid',(#89));
#91=IFCPRODUCTDEFINITIONSHAPE($,$,(#90));
#97=IFCCARTESIANPOINT((20000.,0.,0.));
#98=IFCDIRECTION((0.,0.,1.));
#99=IFCDIRECTION((6.123233995736766E-17,1.,0.));
#100=IFCAXIS2PLACEMENT3D(#97,#98,#99);
#101=IFCLOCALPLACEMENT(#27,#100);
#102=IFCWALL('1BpMg_Pon4$xcp1iNJmZIY',$,'Perim0-3',$,$,#123,#113,$,$);
#103=IFCCARTESIANPOINTLIST2D(((0.,0.),(0.,200.),(20000.,200.),(20000.,0.),(0.,0.)));
#104=IFCINDEXEDPOLYCURVE(#103,$,.F.);
#105=IFCDIRECTION((0.,0.,1.));
#106=IFCARBITRARYCLOSEDPROFILEDEF(.AREA.,$,#104);
#107=IFCCARTESIANPOINT((0.,0.,0.));
#108=IFCDIRECTION((0.,0.,1.));
#109=IFCDIRECTION((1.,0.,0.));
#110=IFCAXIS2PLACEMENT3D(#107,#108,#109);
#111=IFCEXTRUDEDAREASOLID(#106,#110,#105,3200.);
#112=IFCSHAPEREPRESENTATION(#11,'Body','SweptSolid',(#111));
#113=IFCPRODUCTDEFINITIONSHAPE($,$,(#112));
#119=IFCCARTESIANPOINT((20000.,12000.,0.));
#120=IFCDIRECTION((0.,0.,1.));
#121=IFCDIRECTION((-1.,1.2246467991473532E-16,0.));
#122=IFCAXIS2PLACEMENT3D(#119,#120,#121);
#123=IFCLOCALPLACEMENT(#27,#122);
#124=IFCWALL('2vLOZmMdH3uAyeb8mCWCwx',$,'Perim0-4',$,$,#145,#135,$,$);
#125=IFCCARTESIANPOINTLIST2D(((0.,0.),(0.,200.),(12000.,200.),(12000.,0.),(0.,0.)));
#126=IFCINDEXEDPOLYCURVE(#125,$,.F.);
#127=IFCDIRECTION((0.,0.,1.));
#128=IFCARBITRARYCLOSEDPROFILEDEF(.AREA.,$,#126);
#129=IFCCARTESIANPOINT((0.,0.,0.));
#130=IFCDIRECTION((0.,0.,1.));
#131=IFCDIRECTION((1.,0.,0.));
#132=IFCAXIS2PLACEMENT3D(#129,#130,#131);
#133=IFCEXTRUDEDAREASOLID(#128,#132,#127,3200.);
#134=IFCSHAPEREPRESENTATION(#11,'Body','SweptSolid',(#133));
#135=IFCPRODUCTDEFINITIONSHAPE($,$,(#134));
#141=IFCCARTESIANPOINT((0.,12000.,0.));
#142=IFCDIRECTION((0.,0.,1.));
#143=IFCDIRECTION((6.123233995736766E-17,-1.,0.));
#144=IFCAXIS2PLACEMENT3D(#141,#142,#143);
#145=IFCLOCALPLACEMENT(#27,#144);
#146=IFCWALL('2jOYYDeuvFuhrRVv5k60Ds',$,'DupWall A',$,$,#167,#157,$,$);
#147=IFCCARTESIANPOINTLIST2D(((0.,0.),(0.,150.),(12000.,150.),(12000.,0.),(0.,0.)));
#148=IFCINDEXEDPOLYCURVE(#147,$,.F.);
#149=IFCDIRECTION((0.,0.,1.));
#150=IFCARBITRARYCLOSEDPROFILEDEF(.AREA.,$,#148);
#151=IFCCARTESIANPOINT((0.,0.,0.));
#152=IFCDIRECTION((0.,0.,1.));
#153=IFCDIRECTION((1.,0.,0.));
#154=IFCAXIS2PLACEMENT3D(#151,#152,#153);
#155=IFCEXTRUDEDAREASOLID(#150,#154,#149,3200.);
#156=IFCSHAPEREPRESENTATION(#11,'Body','SweptSolid',(#155));
#157=IFCPRODUCTDEFINITIONSHAPE($,$,(#156));
#163=IFCCARTESIANPOINT((10000.,0.,0.));
#164=IFCDIRECTION((0.,0.,1.));
#165=IFCDIRECTION((6.123233995736766E-17,1.,0.));
#166=IFCAXIS2PLACEMENT3D(#163,#164,#165);
#167=IFCLOCALPLACEMENT(#27,#166);
#168=IFCWALL('0zl77NjZ5619T$c4SPTWuP',$,'DupWall B',$,$,#189,#179,$,$);
#169=IFCCARTESIANPOINTLIST2D(((0.,0.),(0.,150.),(12000.,150.),(12000.,0.),(0.,0.)));
#170=IFCINDEXEDPOLYCURVE(#169,$,.F.);
#171=IFCDIRECTION((0.,0.,1.));
#172=IFCARBITRARYCLOSEDPROFILEDEF(.AREA.,$,#170);
#173=IFCCARTESIANPOINT((0.,0.,0.));
#174=IFCDIRECTION((0.,0.,1.));
#175=IFCDIRECTION((1.,0.,0.));
#176=IFCAXIS2PLACEMENT3D(#173,#174,#175);
#177=IFCEXTRUDEDAREASOLID(#172,#176,#171,3200.);
#178=IFCSHAPEREPRESENTATION(#11,'Body','SweptSolid',(#177));
#179=IFCPRODUCTDEFINITIONSHAPE($,$,(#178));
#185=IFCCARTESIANPOINT((10000.,0.,0.));
#186=IFCDIRECTION((0.,0.,1.));
#187=IFCDIRECTION((6.123233995736766E-17,1.,0.));
#188=IFCAXIS2PLACEMENT3D(#185,#186,#187);
#189=IFCLOCALPLACEMENT(#27,#188);
#190=IFCWALL('1aqWYHITz1kfA10fOpm5z4',$,'DupWall C',$,$,#211,#201,$,$);
#191=IFCCARTESIANPOINTLIST2D(((0.,0.),(0.,150.),(12000.,150.),(12000.,0.),(0.,0.)));
#192=IFCINDEXEDPOLYCURVE(#191,$,.F.);
#193=IFCDIRECTION((0.,0.,1.));
#194=IFCARBITRARYCLOSEDPROFILEDEF(.AREA.,$,#192);
#195=IFCCARTESIANPOINT((0.,0.,0.));
#196=IFCDIRECTION((0.,0.,1.));
#197=IFCDIRECTION((1.,0.,0.));
#198=IFCAXIS2PLACEMENT3D(#195,#196,#197);
#199=IFCEXTRUDEDAREASOLID(#194,#198,#193,3200.);
#200=IFCSHAPEREPRESENTATION(#11,'Body','SweptSolid',(#199));
#201=IFCPRODUCTDEFINITIONSHAPE($,$,(#200));
#207=IFCCARTESIANPOINT((5000.,0.,0.));
#208=IFCDIRECTION((0.,0.,1.));
#209=IFCDIRECTION((6.123233995736766E-17,1.,0.));
#210=IFCAXIS2PLACEMENT3D(#207,#208,#209);
#211=IFCLOCALPLACEMENT(#27,#210);
#212=IFCWALL('3UD1fuM1nDwg5nIF1qauNj',$,'DupWall D',$,$,#233,#223,$,$);
#213=IFCCARTESIANPOINTLIST2D(((0.,0.),(0.,150.),(12000.,150.),(12000.,0.),(0.,0.)));
#214=IFCINDEXEDPOLYCURVE(#213,$,.F.);
#215=IFCDIRECTION((0.,0.,1.));
#216=IFCARBITRARYCLOSEDPROFILEDEF(.AREA.,$,#214);
#217=IFCCARTESIANPOINT((0.,0.,0.));
#218=IFCDIRECTION((0.,0.,1.));
#219=IFCDIRECTION((1.,0.,0.));
#220=IFCAXIS2PLACEMENT3D(#217,#218,#219);
#221=IFCEXTRUDEDAREASOLID(#216,#220,#215,3200.);
#222=IFCSHAPEREPRESENTATION(#11,'Body','SweptSolid',(#221));
#223=IFCPRODUCTDEFINITIONSHAPE($,$,(#222));
#229=IFCCARTESIANPOINT((5000.,0.,0.));
#230=IFCDIRECTION((0.,0.,1.));
#231=IFCDIRECTION((6.123233995736766E-17,1.,0.));
#232=IFCAXIS2PLACEMENT3D(#229,#230,#231);
#233=IFCLOCALPLACEMENT(#27,#232);
#234=IFCSLAB('3KHOT3LVb649$ZQrlWQRdw',$,'Floor 3.4',$,$,#252,#241,$,.FLOOR.);
#235=IFCCARTESIANPOINTLIST2D(((0.,0.),(20000.,0.),(20000.,12000.),(0.,12000.),(0.,0.)));
#236=IFCINDEXEDPOLYCURVE(#235,$,$);
#237=IFCDIRECTION((0.,0.,1.));
#238=IFCARBITRARYCLOSEDPROFILEDEF(.AREA.,$,#236);
#239=IFCEXTRUDEDAREASOLID(#238,$,#237,250.);
#240=IFCSHAPEREPRESENTATION(#11,'Body','SweptSolid',(#239));
#241=IFCPRODUCTDEFINITIONSHAPE($,$,(#240));
#247=IFCRELCONTAINEDINSPATIALSTRUCTURE('2sJKMlAOr4UwOpY61arcuR',$,$,$,(#363,#319,#253,#234,#275,#297,#341,#385,#407),#28);
#248=IFCCARTESIANPOINT((0.,0.,0.));
#249=IFCDIRECTION((0.,0.,1.));
#250=IFCDIRECTION((1.,0.,0.));
#251=IFCAXIS2PLACEMENT3D(#248,#249,#250);
#252=IFCLOCALPLACEMENT(#38,#251);
#253=IFCWALL('0Ae3WSq8X3uOFJcPlz5xTc',$,'Perim3.4-1',$,$,#274,#264,$,$);
#254=IFCCARTESIANPOINTLIST2D(((0.,0.),(0.,200.),(20000.,200.),(20000.,0.),(0.,0.)));
#255=IFCINDEXEDPOLYCURVE(#254,$,.F.);
#256=IFCDIRECTION((0.,0.,1.));
#257=IFCARBITRARYCLOSEDPROFILEDEF(.AREA.,$,#255);
#258=IFCCARTESIANPOINT((0.,0.,0.));
#259=IFCDIRECTION((0.,0.,1.));
#260=IFCDIRECTION((1.,0.,0.));
#261=IFCAXIS2PLACEMENT3D(#258,#259,#260);
#262=IFCEXTRUDEDAREASOLID(#257,#261,#256,3200.);
#263=IFCSHAPEREPRESENTATION(#11,'Body','SweptSolid',(#262));
#264=IFCPRODUCTDEFINITIONSHAPE($,$,(#263));
#270=IFCCARTESIANPOINT((0.,0.,0.));
#271=IFCDIRECTION((0.,0.,1.));
#272=IFCDIRECTION((1.,0.,0.));
#273=IFCAXIS2PLACEMENT3D(#270,#271,#272);
#274=IFCLOCALPLACEMENT(#38,#273);
#275=IFCWALL('11QRPoULP0M8WdmV6tNm1Z',$,'Perim3.4-2',$,$,#296,#286,$,$);
#276=IFCCARTESIANPOINTLIST2D(((0.,0.),(0.,200.),(12000.,200.),(12000.,0.),(0.,0.)));
#277=IFCINDEXEDPOLYCURVE(#276,$,.F.);
#278=IFCDIRECTION((0.,0.,1.));
#279=IFCARBITRARYCLOSEDPROFILEDEF(.AREA.,$,#277);
#280=IFCCARTESIANPOINT((0.,0.,0.));
#281=IFCDIRECTION((0.,0.,1.));
#282=IFCDIRECTION((1.,0.,0.));
#283=IFCAXIS2PLACEMENT3D(#280,#281,#282);
#284=IFCEXTRUDEDAREASOLID(#279,#283,#278,3200.);
#285=IFCSHAPEREPRESENTATION(#11,'Body','SweptSolid',(#284));
#286=IFCPRODUCTDEFINITIONSHAPE($,$,(#285));
#292=IFCCARTESIANPOINT((20000.,0.,0.));
#293=IFCDIRECTION((0.,0.,1.));
#294=IFCDIRECTION((6.123233995736766E-17,1.,0.));
#295=IFCAXIS2PLACEMENT3D(#292,#293,#294);
#296=IFCLOCALPLACEMENT(#38,#295);
#297=IFCWALL('2Fj2z5JnXDFwuEekW_X83L',$,'Perim3.4-3',$,$,#318,#308,$,$);
#298=IFCCARTESIANPOINTLIST2D(((0.,0.),(0.,200.),(20000.,200.),(20000.,0.),(0.,0.)));
#299=IFCINDEXEDPOLYCURVE(#298,$,.F.);
#300=IFCDIRECTION((0.,0.,1.));
#301=IFCARBITRARYCLOSEDPROFILEDEF(.AREA.,$,#299);
#302=IFCCARTESIANPOINT((0.,0.,0.));
#303=IFCDIRECTION((0.,0.,1.));
#304=IFCDIRECTION((1.,0.,0.));
#305=IFCAXIS2PLACEMENT3D(#302,#303,#304);
#306=IFCEXTRUDEDAREASOLID(#301,#305,#300,3200.);
#307=IFCSHAPEREPRESENTATION(#11,'Body','SweptSolid',(#306));
#308=IFCPRODUCTDEFINITIONSHAPE($,$,(#307));
#314=IFCCARTESIANPOINT((20000.,12000.,0.));
#315=IFCDIRECTION((0.,0.,1.));
#316=IFCDIRECTION((-1.,1.2246467991473532E-16,0.));
#317=IFCAXIS2PLACEMENT3D(#314,#315,#316);
#318=IFCLOCALPLACEMENT(#38,#317);
#319=IFCWALL('1IzKRovfbDLwATKsiMdIPY',$,'Perim3.4-4',$,$,#340,#330,$,$);
#320=IFCCARTESIANPOINTLIST2D(((0.,0.),(0.,200.),(12000.,200.),(12000.,0.),(0.,0.)));
#321=IFCINDEXEDPOLYCURVE(#320,$,.F.);
#322=IFCDIRECTION((0.,0.,1.));
#323=IFCARBITRARYCLOSEDPROFILEDEF(.AREA.,$,#321);
#324=IFCCARTESIANPOINT((0.,0.,0.));
#325=IFCDIRECTION((0.,0.,1.));
#326=IFCDIRECTION((1.,0.,0.));
#327=IFCAXIS2PLACEMENT3D(#324,#325,#326);
#328=IFCEXTRUDEDAREASOLID(#323,#327,#322,3200.);
#329=IFCSHAPEREPRESENTATION(#11,'Body','SweptSolid',(#328));
#330=IFCPRODUCTDEFINITIONSHAPE($,$,(#329));
#336=IFCCARTESIANPOINT((0.,12000.,0.));
#337=IFCDIRECTION((0.,0.,1.));
#338=IFCDIRECTION((6.123233995736766E-17,-1.,0.));
#339=IFCAXIS2PLACEMENT3D(#336,#337,#338);
#340=IFCLOCALPLACEMENT(#38,#339);
#341=IFCWALL('0taqvDHOz4ngAj7$qb4B13',$,'DupWall A',$,$,#362,#352,$,$);
#342=IFCCARTESIANPOINTLIST2D(((0.,0.),(0.,150.),(12000.,150.),(12000.,0.),(0.,0.)));
#343=IFCINDEXEDPOLYCURVE(#342,$,.F.);
#344=IFCDIRECTION((0.,0.,1.));
#345=IFCARBITRARYCLOSEDPROFILEDEF(.AREA.,$,#343);
#346=IFCCARTESIANPOINT((0.,0.,0.));
#347=IFCDIRECTION((0.,0.,1.));
#348=IFCDIRECTION((1.,0.,0.));
#349=IFCAXIS2PLACEMENT3D(#346,#347,#348);
#350=IFCEXTRUDEDAREASOLID(#345,#349,#344,3200.);
#351=IFCSHAPEREPRESENTATION(#11,'Body','SweptSolid',(#350));
#352=IFCPRODUCTDEFINITIONSHAPE($,$,(#351));
#358=IFCCARTESIANPOINT((10000.,0.,0.));
#359=IFCDIRECTION((0.,0.,1.));
#360=IFCDIRECTION((6.123233995736766E-17,1.,0.));
#361=IFCAXIS2PLACEMENT3D(#358,#359,#360);
#362=IFCLOCALPLACEMENT(#38,#361);
#363=IFCWALL('0FjQfz8KP4ZecfM3z35rv5',$,'DupWall B',$,$,#384,#374,$,$);
#364=IFCCARTESIANPOINTLIST2D(((0.,0.),(0.,150.),(12000.,150.),(12000.,0.),(0.,0.)));
#365=IFCINDEXEDPOLYCURVE(#364,$,.F.);
#366=IFCDIRECTION((0.,0.,1.));
#367=IFCARBITRARYCLOSEDPROFILEDEF(.AREA.,$,#365);
#368=IFCCARTESIANPOINT((0.,0.,0.));
#369=IFCDIRECTION((0.,0.,1.));
#370=IFCDIRECTION((1.,0.,0.));
#371=IFCAXIS2PLACEMENT3D(#368,#369,#370);
#372=IFCEXTRUDEDAREASOLID(#367,#371,#366,3200.);
#373=IFCSHAPEREPRESENTATION(#11,'Body','SweptSolid',(#372));
#374=IFCPRODUCTDEFINITIONSHAPE($,$,(#373));
#380=IFCCARTESIANPOINT((10000.,0.,0.));
#381=IFCDIRECTION((0.,0.,1.));
#382=IFCDIRECTION((6.123233995736766E-17,1.,0.));
#383=IFCAXIS2PLACEMENT3D(#380,#381,#382);
#384=IFCLOCALPLACEMENT(#38,#383);
#385=IFCWALL('2I6RrguaH5iPQ5_DeyVpIb',$,'DupWall C',$,$,#406,#396,$,$);
#386=IFCCARTESIANPOINTLIST2D(((0.,0.),(0.,150.),(12000.,150.),(12000.,0.),(0.,0.)));
#387=IFCINDEXEDPOLYCURVE(#386,$,.F.);
#388=IFCDIRECTION((0.,0.,1.));
#389=IFCARBITRARYCLOSEDPROFILEDEF(.AREA.,$,#387);
#390=IFCCARTESIANPOINT((0.,0.,0.));
#391=IFCDIRECTION((0.,0.,1.));
#392=IFCDIRECTION((1.,0.,0.));
#393=IFCAXIS2PLACEMENT3D(#390,#391,#392);
#394=IFCEXTRUDEDAREASOLID(#389,#393,#388,3200.);
#395=IFCSHAPEREPRESENTATION(#11,'Body','SweptSolid',(#394));
#396=IFCPRODUCTDEFINITIONSHAPE($,$,(#395));
#402=IFCCARTESIANPOINT((5000.,0.,0.));
#403=IFCDIRECTION((0.,0.,1.));
#404=IFCDIRECTION((6.123233995736766E-17,1.,0.));
#405=IFCAXIS2PLACEMENT3D(#402,#403,#404);
#406=IFCLOCALPLACEMENT(#38,#405);
#407=IFCWALL('2GlvAwArbDlP4IBLewIdTz',$,'DupWall D',$,$,#428,#418,$,$);
#408=IFCCARTESIANPOINTLIST2D(((0.,0.),(0.,150.),(12000.,150.),(12000.,0.),(0.,0.)));
#409=IFCINDEXEDPOLYCURVE(#408,$,.F.);
#410=IFCDIRECTION((0.,0.,1.));
#411=IFCARBITRARYCLOSEDPROFILEDEF(.AREA.,$,#409);
#412=IFCCARTESIANPOINT((0.,0.,0.));
#413=IFCDIRECTION((0.,0.,1.));
#414=IFCDIRECTION((1.,0.,0.));
#415=IFCAXIS2PLACEMENT3D(#412,#413,#414);
#416=IFCEXTRUDEDAREASOLID(#411,#415,#410,3200.);
#417=IFCSHAPEREPRESENTATION(#11,'Body','SweptSolid',(#416));
#418=IFCPRODUCTDEFINITIONSHAPE($,$,(#417));
#424=IFCCARTESIANPOINT((5000.,0.,0.));
#425=IFCDIRECTION((0.,0.,1.));
#426=IFCDIRECTION((6.123233995736766E-17,1.,0.));
#427=IFCAXIS2PLACEMENT3D(#424,#425,#426);
#428=IFCLOCALPLACEMENT(#38,#427);
#429=IFCSPACE('1sJ$5TjOH8TeShChmB$aPM',$,'Living A',$,$,#447,#436,$,$,$,$);
#430=IFCCARTESIANPOINTLIST2D(((500.,500.),(9500.,500.),(9500.,5500.),(500.,5500.),(500.,500.)));
#431=IFCINDEXEDPOLYCURVE(#430,$,$);
#432=IFCDIRECTION((0.,0.,1.));
#433=IFCARBITRARYCLOSEDPROFILEDEF(.AREA.,$,#431);
#434=IFCEXTRUDEDAREASOLID(#433,$,#432,3000.);
#435=IFCSHAPEREPRESENTATION(#11,'Body','SweptSolid',(#434));
#436=IFCPRODUCTDEFINITIONSHAPE($,$,(#435));
#442=IFCRELAGGREGATES('2K6z04sJb06Ag0ZzYCBXuf',$,$,$,#16,(#429,#448));
#443=IFCCARTESIANPOINT((0.,0.,0.));
#444=IFCDIRECTION((0.,0.,1.));
#445=IFCDIRECTION((1.,0.,0.));
#446=IFCAXIS2PLACEMENT3D(#443,#444,#445);
#447=IFCLOCALPLACEMENT(#27,#446);
#448=IFCSPACE('3QhjVpbMjCXOAKJzYFSyf1',$,'Bath A',$,$,#465,#455,$,$,$,$);
#449=IFCCARTESIANPOINTLIST2D(((10500.,500.),(19500.,500.),(19500.,5500.),(10500.,5500.),(10500.,500.)));
#450=IFCINDEXEDPOLYCURVE(#449,$,$);
#451=IFCDIRECTION((0.,0.,1.));
#452=IFCARBITRARYCLOSEDPROFILEDEF(.AREA.,$,#450);
#453=IFCEXTRUDEDAREASOLID(#452,$,#451,3000.);
#454=IFCSHAPEREPRESENTATION(#11,'Body','SweptSolid',(#453));
#455=IFCPRODUCTDEFINITIONSHAPE($,$,(#454));
#461=IFCCARTESIANPOINT((0.,0.,0.));
#462=IFCDIRECTION((0.,0.,1.));
#463=IFCDIRECTION((1.,0.,0.));
#464=IFCAXIS2PLACEMENT3D(#461,#462,#463);
#465=IFCLOCALPLACEMENT(#27,#464);
#466=IFCSPACE('1YpkzIMPv6hBZh24uKcdGi',$,'Bedroom B',$,$,#484,#473,$,$,$,$);
#467=IFCCARTESIANPOINTLIST2D(((500.,6500.),(9500.,6500.),(9500.,11500.),(500.,11500.),(500.,6500.)));
#468=IFCINDEXEDPOLYCURVE(#467,$,$);
#469=IFCDIRECTION((0.,0.,1.));
#470=IFCARBITRARYCLOSEDPROFILEDEF(.AREA.,$,#468);
#471=IFCEXTRUDEDAREASOLID(#470,$,#469,3000.);
#472=IFCSHAPEREPRESENTATION(#11,'Body','SweptSolid',(#471));
#473=IFCPRODUCTDEFINITIONSHAPE($,$,(#472));
#479=IFCRELAGGREGATES('1pgjWPP3r72eegsV0OgjEL',$,$,$,#28,(#466));
#480=IFCCARTESIANPOINT((0.,0.,0.));
#481=IFCDIRECTION((0.,0.,1.));
#482=IFCDIRECTION((1.,0.,0.));
#483=IFCAXIS2PLACEMENT3D(#480,#481,#482);
#484=IFCLOCALPLACEMENT(#38,#483);
ENDSEC;
END-ISO-10303-21;
