ISO-10303-21;
HEADER;
FILE_DESCRIPTION(('ViewDefinition[DesignTransferView]'),'2;1');
FILE_NAME('/dev/null','2026-05-22T18:01:46+08:00',(''),(''),'IfcOpenShell 0.8.5','IfcOpenShell 0.8.5','Nobody');
FILE_SCHEMA(('IFC4'));
ENDSEC;
DATA;
#1=IFCPROJECT('3LQPBGaKzApvfWYEUPFj1H',$,'Bonsai Task Project',$,$,$,$,(#10),#5);
#2=IFCSIUNIT(*,.LENGTHUNIT.,.MILLI.,.METRE.);
#3=IFCSIUNIT(*,.AREAUNIT.,$,.SQUARE_METRE.);
#4=IFCSIUNIT(*,.VOLUMEUNIT.,$,.CUBIC_METRE.);
#5=IFCUNITASSIGNMENT((#2,#3,#4));
#6=IFCCARTESIANPOINT((0.,0.,0.));
#7=IFCDIRECTION((0.,0.,1.));
#8=IFCDIRECTION((1.,0.,0.));
#9=IFCAXIS2PLACEMENT3D(#6,#7,#8);
#10=IFCGEOMETRICREPRESENTATIONCONTEXT($,'Model',3,1.0000000000000001E-05,#9,$);
#11=IFCGEOMETRICREPRESENTATIONSUBCONTEXT('Body','Model',*,*,*,*,#10,$,.MODEL_VIEW.,$);
#12=IFCSITE('13W3gU2CHC_hIAwPFXQoN9',$,'Default Site',$,$,$,$,$,$,$,$,$,$,$);
#13=IFCBUILDING('1d0mAXZAHA0xRzKgf5eif8',$,'Bonsai Building',$,$,$,$,$,$,$,$,$);
#14=IFCRELAGGREGATES('0ffnLVtkX80PeCjKbn2JiW',$,$,$,#1,(#12));
#15=IFCRELAGGREGATES('0bMSXGVVj39ge3yD_Sb$ui',$,$,$,#12,(#13));
#16=IFCBUILDINGSTOREY('1WN$K81h57WQdUvdHme2Bf',$,'Ground Floor',$,$,$,$,$,$,0.);
#17=IFCRELAGGREGATES('2af2re6D13AOEImK8jcxYv',$,$,$,#13,(#16));
#18=IFCWALL('2YCew6BurC88ogMdS7vWBn',$,'South Wall',$,$,#578,#29,$,$);
#19=IFCCARTESIANPOINTLIST2D(((0.,0.),(0.,200.),(14000.,200.),(14000.,0.),(0.,0.)));
#20=IFCINDEXEDPOLYCURVE(#19,$,.F.);
#21=IFCDIRECTION((0.,0.,1.));
#22=IFCARBITRARYCLOSEDPROFILEDEF(.AREA.,$,#20);
#23=IFCCARTESIANPOINT((0.,0.,0.));
#24=IFCDIRECTION((0.,0.,1.));
#25=IFCDIRECTION((1.,0.,0.));
#26=IFCAXIS2PLACEMENT3D(#23,#24,#25);
#27=IFCEXTRUDEDAREASOLID(#22,#26,#21,3400.);
#28=IFCSHAPEREPRESENTATION(#11,'Body','SweptSolid',(#27));
#29=IFCPRODUCTDEFINITIONSHAPE($,$,(#28));
#35=IFCWALL('0skr1LbVjAUwjsaVKekyzu',$,'North Wall',$,$,#583,#46,$,$);
#36=IFCCARTESIANPOINTLIST2D(((0.,0.),(0.,200.),(14000.,200.),(14000.,0.),(0.,0.)));
#37=IFCINDEXEDPOLYCURVE(#36,$,.F.);
#38=IFCDIRECTION((0.,0.,1.));
#39=IFCARBITRARYCLOSEDPROFILEDEF(.AREA.,$,#37);
#40=IFCCARTESIANPOINT((0.,0.,0.));
#41=IFCDIRECTION((0.,0.,1.));
#42=IFCDIRECTION((1.,0.,0.));
#43=IFCAXIS2PLACEMENT3D(#40,#41,#42);
#44=IFCEXTRUDEDAREASOLID(#39,#43,#38,3400.);
#45=IFCSHAPEREPRESENTATION(#11,'Body','SweptSolid',(#44));
#46=IFCPRODUCTDEFINITIONSHAPE($,$,(#45));
#52=IFCWALL('0leOTipIP51RZb0OUvVFug',$,'West Wall',$,$,#588,#63,$,$);
#53=IFCCARTESIANPOINTLIST2D(((0.,0.),(0.,200.),(8000.,200.),(8000.,0.),(0.,0.)));
#54=IFCINDEXEDPOLYCURVE(#53,$,.F.);
#55=IFCDIRECTION((0.,0.,1.));
#56=IFCARBITRARYCLOSEDPROFILEDEF(.AREA.,$,#54);
#57=IFCCARTESIANPOINT((0.,0.,0.));
#58=IFCDIRECTION((0.,0.,1.));
#59=IFCDIRECTION((1.,0.,0.));
#60=IFCAXIS2PLACEMENT3D(#57,#58,#59);
#61=IFCEXTRUDEDAREASOLID(#56,#60,#55,3400.);
#62=IFCSHAPEREPRESENTATION(#11,'Body','SweptSolid',(#61));
#63=IFCPRODUCTDEFINITIONSHAPE($,$,(#62));
#69=IFCWALL('3CMFF45912KAje2KWi6ckm',$,'East Wall',$,$,#593,#80,$,$);
#70=IFCCARTESIANPOINTLIST2D(((0.,0.),(0.,200.),(8000.,200.),(8000.,0.),(0.,0.)));
#71=IFCINDEXEDPOLYCURVE(#70,$,.F.);
#72=IFCDIRECTION((0.,0.,1.));
#73=IFCARBITRARYCLOSEDPROFILEDEF(.AREA.,$,#71);
#74=IFCCARTESIANPOINT((0.,0.,0.));
#75=IFCDIRECTION((0.,0.,1.));
#76=IFCDIRECTION((1.,0.,0.));
#77=IFCAXIS2PLACEMENT3D(#74,#75,#76);
#78=IFCEXTRUDEDAREASOLID(#73,#77,#72,3400.);
#79=IFCSHAPEREPRESENTATION(#11,'Body','SweptSolid',(#78));
#80=IFCPRODUCTDEFINITIONSHAPE($,$,(#79));
#86=IFCWALL('2B8kLm06nFYuc3xjaR7bav',$,'Interior Partition 1',$,$,#598,#97,$,$);
#87=IFCCARTESIANPOINTLIST2D(((0.,0.),(0.,200.),(8000.,200.),(8000.,0.),(0.,0.)));
#88=IFCINDEXEDPOLYCURVE(#87,$,.F.);
#89=IFCDIRECTION((0.,0.,1.));
#90=IFCARBITRARYCLOSEDPROFILEDEF(.AREA.,$,#88);
#91=IFCCARTESIANPOINT((0.,0.,0.));
#92=IFCDIRECTION((0.,0.,1.));
#93=IFCDIRECTION((1.,0.,0.));
#94=IFCAXIS2PLACEMENT3D(#91,#92,#93);
#95=IFCEXTRUDEDAREASOLID(#90,#94,#89,3400.);
#96=IFCSHAPEREPRESENTATION(#11,'Body','SweptSolid',(#95));
#97=IFCPRODUCTDEFINITIONSHAPE($,$,(#96));
#103=IFCWALL('0LdjZKbBLA98mD1zAK0ETG',$,'Interior Partition 2',$,$,#603,#114,$,$);
#104=IFCCARTESIANPOINTLIST2D(((0.,0.),(0.,200.),(8000.,200.),(8000.,0.),(0.,0.)));
#105=IFCINDEXEDPOLYCURVE(#104,$,.F.);
#106=IFCDIRECTION((0.,0.,1.));
#107=IFCARBITRARYCLOSEDPROFILEDEF(.AREA.,$,#105);
#108=IFCCARTESIANPOINT((0.,0.,0.));
#109=IFCDIRECTION((0.,0.,1.));
#110=IFCDIRECTION((1.,0.,0.));
#111=IFCAXIS2PLACEMENT3D(#108,#109,#110);
#112=IFCEXTRUDEDAREASOLID(#107,#111,#106,3400.);
#113=IFCSHAPEREPRESENTATION(#11,'Body','SweptSolid',(#112));
#114=IFCPRODUCTDEFINITIONSHAPE($,$,(#113));
#120=IFCWALL('2wKs7G0T508PgaOgmiIFpR',$,'Interior Partition 3',$,$,#608,#131,$,$);
#121=IFCCARTESIANPOINTLIST2D(((0.,0.),(0.,200.),(8000.,200.),(8000.,0.),(0.,0.)));
#122=IFCINDEXEDPOLYCURVE(#121,$,.F.);
#123=IFCDIRECTION((0.,0.,1.));
#124=IFCARBITRARYCLOSEDPROFILEDEF(.AREA.,$,#122);
#125=IFCCARTESIANPOINT((0.,0.,0.));
#126=IFCDIRECTION((0.,0.,1.));
#127=IFCDIRECTION((1.,0.,0.));
#128=IFCAXIS2PLACEMENT3D(#125,#126,#127);
#129=IFCEXTRUDEDAREASOLID(#124,#128,#123,3400.);
#130=IFCSHAPEREPRESENTATION(#11,'Body','SweptSolid',(#129));
#131=IFCPRODUCTDEFINITIONSHAPE($,$,(#130));
#137=IFCWALL('1kKR04Sb19kBS2_kaMCjZn',$,'Interior Partition 4',$,$,#613,#148,$,$);
#138=IFCCARTESIANPOINTLIST2D(((0.,0.),(0.,200.),(8000.,200.),(8000.,0.),(0.,0.)));
#139=IFCINDEXEDPOLYCURVE(#138,$,.F.);
#140=IFCDIRECTION((0.,0.,1.));
#141=IFCARBITRARYCLOSEDPROFILEDEF(.AREA.,$,#139);
#142=IFCCARTESIANPOINT((0.,0.,0.));
#143=IFCDIRECTION((0.,0.,1.));
#144=IFCDIRECTION((1.,0.,0.));
#145=IFCAXIS2PLACEMENT3D(#142,#143,#144);
#146=IFCEXTRUDEDAREASOLID(#141,#145,#140,3400.);
#147=IFCSHAPEREPRESENTATION(#11,'Body','SweptSolid',(#146));
#148=IFCPRODUCTDEFINITIONSHAPE($,$,(#147));
#154=IFCWALL('11Ax0$4dz9IgTsGpz6Abh7',$,'Interior Partition 5',$,$,#618,#165,$,$);
#155=IFCCARTESIANPOINTLIST2D(((0.,0.),(0.,200.),(8000.,200.),(8000.,0.),(0.,0.)));
#156=IFCINDEXEDPOLYCURVE(#155,$,.F.);
#157=IFCDIRECTION((0.,0.,1.));
#158=IFCARBITRARYCLOSEDPROFILEDEF(.AREA.,$,#156);
#159=IFCCARTESIANPOINT((0.,0.,0.));
#160=IFCDIRECTION((0.,0.,1.));
#161=IFCDIRECTION((1.,0.,0.));
#162=IFCAXIS2PLACEMENT3D(#159,#160,#161);
#163=IFCEXTRUDEDAREASOLID(#158,#162,#157,3400.);
#164=IFCSHAPEREPRESENTATION(#11,'Body','SweptSolid',(#163));
#165=IFCPRODUCTDEFINITIONSHAPE($,$,(#164));
#171=IFCWALL('1vR9VTlvb6suGKUR90EZBh',$,'Interior Partition 6',$,$,#623,#182,$,$);
#172=IFCCARTESIANPOINTLIST2D(((0.,0.),(0.,200.),(8000.,200.),(8000.,0.),(0.,0.)));
#173=IFCINDEXEDPOLYCURVE(#172,$,.F.);
#174=IFCDIRECTION((0.,0.,1.));
#175=IFCARBITRARYCLOSEDPROFILEDEF(.AREA.,$,#173);
#176=IFCCARTESIANPOINT((0.,0.,0.));
#177=IFCDIRECTION((0.,0.,1.));
#178=IFCDIRECTION((1.,0.,0.));
#179=IFCAXIS2PLACEMENT3D(#176,#177,#178);
#180=IFCEXTRUDEDAREASOLID(#175,#179,#174,3400.);
#181=IFCSHAPEREPRESENTATION(#11,'Body','SweptSolid',(#180));
#182=IFCPRODUCTDEFINITIONSHAPE($,$,(#181));
#188=IFCSLAB('227pcBHtv8FuBdUIHgYIW0',$,'Slab 1',$,$,#628,#195,$,$);
#189=IFCCARTESIANPOINTLIST2D(((0.,0.),(14000.,0.),(14000.,8000.),(0.,8000.),(0.,0.)));
#190=IFCINDEXEDPOLYCURVE(#189,$,$);
#191=IFCDIRECTION((0.,0.,1.));
#192=IFCARBITRARYCLOSEDPROFILEDEF(.AREA.,$,#190);
#193=IFCEXTRUDEDAREASOLID(#192,$,#191,200.);
#194=IFCSHAPEREPRESENTATION(#11,'Body','SweptSolid',(#193));
#195=IFCPRODUCTDEFINITIONSHAPE($,$,(#194));
#201=IFCSPACE('0Hzw5GGO568fFiMaqyLlx5',$,'Workshop',$,$,#291,#208,$,$,$,$);
#202=IFCCARTESIANPOINTLIST2D(((0.,0.),(2799.9999999999995,0.),(2799.9999999999995,8000.),(0.,8000.),(0.,0.)));
#203=IFCINDEXEDPOLYCURVE(#202,$,$);
#204=IFCDIRECTION((0.,0.,1.));
#205=IFCARBITRARYCLOSEDPROFILEDEF(.AREA.,$,#203);
#206=IFCEXTRUDEDAREASOLID(#205,$,#204,3400.);
#207=IFCSHAPEREPRESENTATION(#11,'Body','SweptSolid',(#206));
#208=IFCPRODUCTDEFINITIONSHAPE($,$,(#207));
#214=IFCSPACE('3gQ7QuKqz8HhU5$WOi_EqI',$,'Office',$,$,#286,#221,$,$,$,$);
#215=IFCCARTESIANPOINTLIST2D(((2799.9999999999995,0.),(5599.9999999999991,0.),(5599.9999999999991,8000.),(2799.9999999999995,8000.),(2799.9999999999995,0.)));
#216=IFCINDEXEDPOLYCURVE(#215,$,$);
#217=IFCDIRECTION((0.,0.,1.));
#218=IFCARBITRARYCLOSEDPROFILEDEF(.AREA.,$,#216);
#219=IFCEXTRUDEDAREASOLID(#218,$,#217,3400.);
#220=IFCSHAPEREPRESENTATION(#11,'Body','SweptSolid',(#219));
#221=IFCPRODUCTDEFINITIONSHAPE($,$,(#220));
#227=IFCSPACE('2fuPQYX3TC1eC_EOTRPudd',$,'Store',$,$,#276,#234,$,$,$,$);
#228=IFCCARTESIANPOINTLIST2D(((5599.9999999999991,0.),(8400.,0.),(8400.,8000.),(5599.9999999999991,8000.),(5599.9999999999991,0.)));
#229=IFCINDEXEDPOLYCURVE(#228,$,$);
#230=IFCDIRECTION((0.,0.,1.));
#231=IFCARBITRARYCLOSEDPROFILEDEF(.AREA.,$,#229);
#232=IFCEXTRUDEDAREASOLID(#231,$,#230,3400.);
#233=IFCSHAPEREPRESENTATION(#11,'Body','SweptSolid',(#232));
#234=IFCPRODUCTDEFINITIONSHAPE($,$,(#233));
#240=IFCSPACE('2SJ0_IKjf3e8tkS_9nbKD1',$,'WC',$,$,#281,#247,$,$,$,$);
#241=IFCCARTESIANPOINTLIST2D(((8400.,0.),(11199.999999999998,0.),(11199.999999999998,8000.),(8400.,8000.),(8400.,0.)));
#242=IFCINDEXEDPOLYCURVE(#241,$,$);
#243=IFCDIRECTION((0.,0.,1.));
#244=IFCARBITRARYCLOSEDPROFILEDEF(.AREA.,$,#242);
#245=IFCEXTRUDEDAREASOLID(#244,$,#243,3400.);
#246=IFCSHAPEREPRESENTATION(#11,'Body','SweptSolid',(#245));
#247=IFCPRODUCTDEFINITIONSHAPE($,$,(#246));
#253=IFCSPACE('36cmgaRcnBc8gZ9Anj7QFE',$,'Lobby',$,$,#271,#260,$,$,$,$);
#254=IFCCARTESIANPOINTLIST2D(((11199.999999999998,0.),(14000.,0.),(14000.,8000.),(11199.999999999998,8000.),(11199.999999999998,0.)));
#255=IFCINDEXEDPOLYCURVE(#254,$,$);
#256=IFCDIRECTION((0.,0.,1.));
#257=IFCARBITRARYCLOSEDPROFILEDEF(.AREA.,$,#255);
#258=IFCEXTRUDEDAREASOLID(#257,$,#256,3400.);
#259=IFCSHAPEREPRESENTATION(#11,'Body','SweptSolid',(#258));
#260=IFCPRODUCTDEFINITIONSHAPE($,$,(#259));
#266=IFCRELAGGREGATES('2dUc3N5Y1BLgSROcTD443Z',$,$,$,#16,(#253,#227,#240,#214,#201));
#267=IFCCARTESIANPOINT((0.,0.,0.));
#268=IFCDIRECTION((0.,0.,1.));
#269=IFCDIRECTION((1.,0.,0.));
#270=IFCAXIS2PLACEMENT3D(#267,#268,#269);
#271=IFCLOCALPLACEMENT($,#270);
#272=IFCCARTESIANPOINT((0.,0.,0.));
#273=IFCDIRECTION((0.,0.,1.));
#274=IFCDIRECTION((1.,0.,0.));
#275=IFCAXIS2PLACEMENT3D(#272,#273,#274);
#276=IFCLOCALPLACEMENT($,#275);
#277=IFCCARTESIANPOINT((0.,0.,0.));
#278=IFCDIRECTION((0.,0.,1.));
#279=IFCDIRECTION((1.,0.,0.));
#280=IFCAXIS2PLACEMENT3D(#277,#278,#279);
#281=IFCLOCALPLACEMENT($,#280);
#282=IFCCARTESIANPOINT((0.,0.,0.));
#283=IFCDIRECTION((0.,0.,1.));
#284=IFCDIRECTION((1.,0.,0.));
#285=IFCAXIS2PLACEMENT3D(#282,#283,#284);
#286=IFCLOCALPLACEMENT($,#285);
#287=IFCCARTESIANPOINT((0.,0.,0.));
#288=IFCDIRECTION((0.,0.,1.));
#289=IFCDIRECTION((1.,0.,0.));
#290=IFCAXIS2PLACEMENT3D(#287,#288,#289);
#291=IFCLOCALPLACEMENT($,#290);
#292=IFCDOOR('2eXnofar1EkesptRLuz5UV',$,'Door 1',$,$,#633,#302,$,2.1000000000000001,0.90000000000000002,$,$,$);
#293=IFCCARTESIANPOINTLIST3D(((0.,0.,0.),(900.,0.,0.),(900.,80.,0.),(0.,80.,0.),(0.,0.,2100.),(900.,0.,2100.),(900.,80.,2100.),(0.,80.,2100.)));
#294=IFCINDEXEDPOLYGONALFACE((1,2,3,4));
#295=IFCINDEXEDPOLYGONALFACE((5,8,7,6));
#296=IFCINDEXEDPOLYGONALFACE((1,5,6,2));
#297=IFCINDEXEDPOLYGONALFACE((2,6,7,3));
#298=IFCINDEXEDPOLYGONALFACE((3,7,8,4));
#299=IFCINDEXEDPOLYGONALFACE((4,8,5,1));
#300=IFCPOLYGONALFACESET(#293,$,(#294,#295,#296,#297,#298,#299),$);
#301=IFCSHAPEREPRESENTATION(#11,'Body','Tessellation',(#300));
#302=IFCPRODUCTDEFINITIONSHAPE($,$,(#301));
#308=IFCDOOR('17KXboOQTFRu_XScS6v13F',$,'Door 2',$,$,#638,#318,$,2.1000000000000001,0.90000000000000002,$,$,$);
#309=IFCCARTESIANPOINTLIST3D(((0.,0.,0.),(900.,0.,0.),(900.,80.,0.),(0.,80.,0.),(0.,0.,2100.),(900.,0.,2100.),(900.,80.,2100.),(0.,80.,2100.)));
#310=IFCINDEXEDPOLYGONALFACE((1,2,3,4));
#311=IFCINDEXEDPOLYGONALFACE((5,8,7,6));
#312=IFCINDEXEDPOLYGONALFACE((1,5,6,2));
#313=IFCINDEXEDPOLYGONALFACE((2,6,7,3));
#314=IFCINDEXEDPOLYGONALFACE((3,7,8,4));
#315=IFCINDEXEDPOLYGONALFACE((4,8,5,1));
#316=IFCPOLYGONALFACESET(#309,$,(#310,#311,#312,#313,#314,#315),$);
#317=IFCSHAPEREPRESENTATION(#11,'Body','Tessellation',(#316));
#318=IFCPRODUCTDEFINITIONSHAPE($,$,(#317));
#324=IFCDOOR('0JfBJWgMr75P0qPKg94Ohh',$,'Door 3',$,$,#643,#334,$,2.1000000000000001,0.90000000000000002,$,$,$);
#325=IFCCARTESIANPOINTLIST3D(((0.,0.,0.),(900.,0.,0.),(900.,80.,0.),(0.,80.,0.),(0.,0.,2100.),(900.,0.,2100.),(900.,80.,2100.),(0.,80.,2100.)));
#326=IFCINDEXEDPOLYGONALFACE((1,2,3,4));
#327=IFCINDEXEDPOLYGONALFACE((5,8,7,6));
#328=IFCINDEXEDPOLYGONALFACE((1,5,6,2));
#329=IFCINDEXEDPOLYGONALFACE((2,6,7,3));
#330=IFCINDEXEDPOLYGONALFACE((3,7,8,4));
#331=IFCINDEXEDPOLYGONALFACE((4,8,5,1));
#332=IFCPOLYGONALFACESET(#325,$,(#326,#327,#328,#329,#330,#331),$);
#333=IFCSHAPEREPRESENTATION(#11,'Body','Tessellation',(#332));
#334=IFCPRODUCTDEFINITIONSHAPE($,$,(#333));
#340=IFCDOOR('1VBNVJrK97$RWRMZ4l5Heq',$,'Door 4',$,$,#648,#350,$,2.1000000000000001,0.90000000000000002,$,$,$);
#341=IFCCARTESIANPOINTLIST3D(((0.,0.,0.),(900.,0.,0.),(900.,80.,0.),(0.,80.,0.),(0.,0.,2100.),(900.,0.,2100.),(900.,80.,2100.),(0.,80.,2100.)));
#342=IFCINDEXEDPOLYGONALFACE((1,2,3,4));
#343=IFCINDEXEDPOLYGONALFACE((5,8,7,6));
#344=IFCINDEXEDPOLYGONALFACE((1,5,6,2));
#345=IFCINDEXEDPOLYGONALFACE((2,6,7,3));
#346=IFCINDEXEDPOLYGONALFACE((3,7,8,4));
#347=IFCINDEXEDPOLYGONALFACE((4,8,5,1));
#348=IFCPOLYGONALFACESET(#341,$,(#342,#343,#344,#345,#346,#347),$);
#349=IFCSHAPEREPRESENTATION(#11,'Body','Tessellation',(#348));
#350=IFCPRODUCTDEFINITIONSHAPE($,$,(#349));
#356=IFCDOOR('1ISQJyPyn6jRNKVwumg5Fe',$,'Door 5',$,$,#653,#366,$,2.1000000000000001,0.90000000000000002,$,$,$);
#357=IFCCARTESIANPOINTLIST3D(((0.,0.,0.),(900.,0.,0.),(900.,80.,0.),(0.,80.,0.),(0.,0.,2100.),(900.,0.,2100.),(900.,80.,2100.),(0.,80.,2100.)));
#358=IFCINDEXEDPOLYGONALFACE((1,2,3,4));
#359=IFCINDEXEDPOLYGONALFACE((5,8,7,6));
#360=IFCINDEXEDPOLYGONALFACE((1,5,6,2));
#361=IFCINDEXEDPOLYGONALFACE((2,6,7,3));
#362=IFCINDEXEDPOLYGONALFACE((3,7,8,4));
#363=IFCINDEXEDPOLYGONALFACE((4,8,5,1));
#364=IFCPOLYGONALFACESET(#357,$,(#358,#359,#360,#361,#362,#363),$);
#365=IFCSHAPEREPRESENTATION(#11,'Body','Tessellation',(#364));
#366=IFCPRODUCTDEFINITIONSHAPE($,$,(#365));
#372=IFCWINDOW('1F8ffZiqnCPvE$XM88Gyn0',$,'Window 1',$,$,#658,#382,$,1.,1.2,$,$,$);
#373=IFCCARTESIANPOINTLIST3D(((0.,0.,0.),(1200.,0.,0.),(1200.,80.,0.),(0.,80.,0.),(0.,0.,1000.),(1200.,0.,1000.),(1200.,80.,1000.),(0.,80.,1000.)));
#374=IFCINDEXEDPOLYGONALFACE((1,2,3,4));
#375=IFCINDEXEDPOLYGONALFACE((5,8,7,6));
#376=IFCINDEXEDPOLYGONALFACE((1,5,6,2));
#377=IFCINDEXEDPOLYGONALFACE((2,6,7,3));
#378=IFCINDEXEDPOLYGONALFACE((3,7,8,4));
#379=IFCINDEXEDPOLYGONALFACE((4,8,5,1));
#380=IFCPOLYGONALFACESET(#373,$,(#374,#375,#376,#377,#378,#379),$);
#381=IFCSHAPEREPRESENTATION(#11,'Body','Tessellation',(#380));
#382=IFCPRODUCTDEFINITIONSHAPE($,$,(#381));
#388=IFCWINDOW('2oceIaVs55oAzHZvHZlZ4s',$,'Window 2',$,$,#663,#398,$,1.,1.2,$,$,$);
#389=IFCCARTESIANPOINTLIST3D(((0.,0.,0.),(1200.,0.,0.),(1200.,80.,0.),(0.,80.,0.),(0.,0.,1000.),(1200.,0.,1000.),(1200.,80.,1000.),(0.,80.,1000.)));
#390=IFCINDEXEDPOLYGONALFACE((1,2,3,4));
#391=IFCINDEXEDPOLYGONALFACE((5,8,7,6));
#392=IFCINDEXEDPOLYGONALFACE((1,5,6,2));
#393=IFCINDEXEDPOLYGONALFACE((2,6,7,3));
#394=IFCINDEXEDPOLYGONALFACE((3,7,8,4));
#395=IFCINDEXEDPOLYGONALFACE((4,8,5,1));
#396=IFCPOLYGONALFACESET(#389,$,(#390,#391,#392,#393,#394,#395),$);
#397=IFCSHAPEREPRESENTATION(#11,'Body','Tessellation',(#396));
#398=IFCPRODUCTDEFINITIONSHAPE($,$,(#397));
#404=IFCWINDOW('1u0$oZHxj0fQrefxmHF7Gn',$,'Window 3',$,$,#668,#414,$,1.,1.2,$,$,$);
#405=IFCCARTESIANPOINTLIST3D(((0.,0.,0.),(1200.,0.,0.),(1200.,80.,0.),(0.,80.,0.),(0.,0.,1000.),(1200.,0.,1000.),(1200.,80.,1000.),(0.,80.,1000.)));
#406=IFCINDEXEDPOLYGONALFACE((1,2,3,4));
#407=IFCINDEXEDPOLYGONALFACE((5,8,7,6));
#408=IFCINDEXEDPOLYGONALFACE((1,5,6,2));
#409=IFCINDEXEDPOLYGONALFACE((2,6,7,3));
#410=IFCINDEXEDPOLYGONALFACE((3,7,8,4));
#411=IFCINDEXEDPOLYGONALFACE((4,8,5,1));
#412=IFCPOLYGONALFACESET(#405,$,(#406,#407,#408,#409,#410,#411),$);
#413=IFCSHAPEREPRESENTATION(#11,'Body','Tessellation',(#412));
#414=IFCPRODUCTDEFINITIONSHAPE($,$,(#413));
#420=IFCWINDOW('1T3ZVrMsjCNhJ1nLYI78VT',$,'Window 4',$,$,#673,#430,$,1.,1.2,$,$,$);
#421=IFCCARTESIANPOINTLIST3D(((0.,0.,0.),(1200.,0.,0.),(1200.,80.,0.),(0.,80.,0.),(0.,0.,1000.),(1200.,0.,1000.),(1200.,80.,1000.),(0.,80.,1000.)));
#422=IFCINDEXEDPOLYGONALFACE((1,2,3,4));
#423=IFCINDEXEDPOLYGONALFACE((5,8,7,6));
#424=IFCINDEXEDPOLYGONALFACE((1,5,6,2));
#425=IFCINDEXEDPOLYGONALFACE((2,6,7,3));
#426=IFCINDEXEDPOLYGONALFACE((3,7,8,4));
#427=IFCINDEXEDPOLYGONALFACE((4,8,5,1));
#428=IFCPOLYGONALFACESET(#421,$,(#422,#423,#424,#425,#426,#427),$);
#429=IFCSHAPEREPRESENTATION(#11,'Body','Tessellation',(#428));
#430=IFCPRODUCTDEFINITIONSHAPE($,$,(#429));
#436=IFCWINDOW('2uDMeIw6v9Dg_AeQHFUXS2',$,'Window 5',$,$,#678,#446,$,1.,1.2,$,$,$);
#437=IFCCARTESIANPOINTLIST3D(((0.,0.,0.),(1200.,0.,0.),(1200.,80.,0.),(0.,80.,0.),(0.,0.,1000.),(1200.,0.,1000.),(1200.,80.,1000.),(0.,80.,1000.)));
#438=IFCINDEXEDPOLYGONALFACE((1,2,3,4));
#439=IFCINDEXEDPOLYGONALFACE((5,8,7,6));
#440=IFCINDEXEDPOLYGONALFACE((1,5,6,2));
#441=IFCINDEXEDPOLYGONALFACE((2,6,7,3));
#442=IFCINDEXEDPOLYGONALFACE((3,7,8,4));
#443=IFCINDEXEDPOLYGONALFACE((4,8,5,1));
#444=IFCPOLYGONALFACESET(#437,$,(#438,#439,#440,#441,#442,#443),$);
#445=IFCSHAPEREPRESENTATION(#11,'Body','Tessellation',(#444));
#446=IFCPRODUCTDEFINITIONSHAPE($,$,(#445));
#452=IFCOPENINGELEMENT('3P3bbEY9f22hmPq4qpkDID',$,'Opening 1',$,$,#473,#462,$,$);
#453=IFCCARTESIANPOINTLIST3D(((0.,0.,0.),(1100.,0.,0.),(1100.,240.,0.),(0.,240.,0.),(0.,0.,2200.),(1100.,0.,2200.),(1100.,240.,2200.),(0.,240.,2200.)));
#454=IFCINDEXEDPOLYGONALFACE((1,2,3,4));
#455=IFCINDEXEDPOLYGONALFACE((5,8,7,6));
#456=IFCINDEXEDPOLYGONALFACE((1,5,6,2));
#457=IFCINDEXEDPOLYGONALFACE((2,6,7,3));
#458=IFCINDEXEDPOLYGONALFACE((3,7,8,4));
#459=IFCINDEXEDPOLYGONALFACE((4,8,5,1));
#460=IFCPOLYGONALFACESET(#453,$,(#454,#455,#456,#457,#458,#459),$);
#461=IFCSHAPEREPRESENTATION(#11,'Body','Tessellation',(#460));
#462=IFCPRODUCTDEFINITIONSHAPE($,$,(#461));
#468=IFCRELVOIDSELEMENT('3eb5_zaiT8BhiIKW9tAG69',$,$,$,#18,#452);
#469=IFCCARTESIANPOINT((400.,-120.,0.));
#470=IFCDIRECTION((0.,0.,1.));
#471=IFCDIRECTION((1.,0.,0.));
#472=IFCAXIS2PLACEMENT3D(#469,#470,#471);
#473=IFCLOCALPLACEMENT(#578,#472);
#474=IFCRELFILLSELEMENT('0scCAoFPf97hKDj4ty2e5k',$,$,$,#452,#292);
#475=IFCOPENINGELEMENT('3rIKsWTAb0ORRF_nrwj_yx',$,'Opening 2',$,$,#496,#485,$,$);
#476=IFCCARTESIANPOINTLIST3D(((0.,0.,0.),(1100.,0.,0.),(1100.,240.,0.),(0.,240.,0.),(0.,0.,2200.),(1100.,0.,2200.),(1100.,240.,2200.),(0.,240.,2200.)));
#477=IFCINDEXEDPOLYGONALFACE((1,2,3,4));
#478=IFCINDEXEDPOLYGONALFACE((5,8,7,6));
#479=IFCINDEXEDPOLYGONALFACE((1,5,6,2));
#480=IFCINDEXEDPOLYGONALFACE((2,6,7,3));
#481=IFCINDEXEDPOLYGONALFACE((3,7,8,4));
#482=IFCINDEXEDPOLYGONALFACE((4,8,5,1));
#483=IFCPOLYGONALFACESET(#476,$,(#477,#478,#479,#480,#481,#482),$);
#484=IFCSHAPEREPRESENTATION(#11,'Body','Tessellation',(#483));
#485=IFCPRODUCTDEFINITIONSHAPE($,$,(#484));
#491=IFCRELVOIDSELEMENT('2FYETZU2945hapsZd82gqR',$,$,$,#35,#475);
#492=IFCCARTESIANPOINT((800.,-8119.9999999999991,0.));
#493=IFCDIRECTION((0.,0.,1.));
#494=IFCDIRECTION((1.,0.,0.));
#495=IFCAXIS2PLACEMENT3D(#492,#493,#494);
#496=IFCLOCALPLACEMENT(#583,#495);
#497=IFCRELFILLSELEMENT('1mFu2jrWLCGQK6bKaESzyM',$,$,$,#475,#308);
#498=IFCOPENINGELEMENT('2wzepaJELD1uxBOhDI4xKi',$,'Opening 3',$,$,#519,#508,$,$);
#499=IFCCARTESIANPOINTLIST3D(((0.,0.,0.),(1100.,0.,0.),(1100.,240.,0.),(0.,240.,0.),(0.,0.,2200.),(1100.,0.,2200.),(1100.,240.,2200.),(0.,240.,2200.)));
#500=IFCINDEXEDPOLYGONALFACE((1,2,3,4));
#501=IFCINDEXEDPOLYGONALFACE((5,8,7,6));
#502=IFCINDEXEDPOLYGONALFACE((1,5,6,2));
#503=IFCINDEXEDPOLYGONALFACE((2,6,7,3));
#504=IFCINDEXEDPOLYGONALFACE((3,7,8,4));
#505=IFCINDEXEDPOLYGONALFACE((4,8,5,1));
#506=IFCPOLYGONALFACESET(#499,$,(#500,#501,#502,#503,#504,#505),$);
#507=IFCSHAPEREPRESENTATION(#11,'Body','Tessellation',(#506));
#508=IFCPRODUCTDEFINITIONSHAPE($,$,(#507));
#514=IFCRELVOIDSELEMENT('1nOz0n_5z6mht2RiwPIKtf',$,$,$,#52,#498);
#515=IFCCARTESIANPOINT((-119.99999999999993,-1200.0000000000002,0.));
#516=IFCDIRECTION((0.,0.,1.));
#517=IFCDIRECTION((6.123233995736766E-17,-1.,0.));
#518=IFCAXIS2PLACEMENT3D(#515,#516,#517);
#519=IFCLOCALPLACEMENT(#588,#518);
#520=IFCRELFILLSELEMENT('2wsPXl6Y15EAEwT2ZN7hfP',$,$,$,#498,#324);
#521=IFCOPENINGELEMENT('2stpZAOAn6YuR47vjazmgr',$,'Opening 4',$,$,#542,#531,$,$);
#522=IFCCARTESIANPOINTLIST3D(((0.,0.,0.),(1100.,0.,0.),(1100.,240.,0.),(0.,240.,0.),(0.,0.,2200.),(1100.,0.,2200.),(1100.,240.,2200.),(0.,240.,2200.)));
#523=IFCINDEXEDPOLYGONALFACE((1,2,3,4));
#524=IFCINDEXEDPOLYGONALFACE((5,8,7,6));
#525=IFCINDEXEDPOLYGONALFACE((1,5,6,2));
#526=IFCINDEXEDPOLYGONALFACE((2,6,7,3));
#527=IFCINDEXEDPOLYGONALFACE((3,7,8,4));
#528=IFCINDEXEDPOLYGONALFACE((4,8,5,1));
#529=IFCPOLYGONALFACESET(#522,$,(#523,#524,#525,#526,#527,#528),$);
#530=IFCSHAPEREPRESENTATION(#11,'Body','Tessellation',(#529));
#531=IFCPRODUCTDEFINITIONSHAPE($,$,(#530));
#537=IFCRELVOIDSELEMENT('0Z5eeRekH4bgRuvzqkGpYI',$,$,$,#69,#521);
#538=IFCCARTESIANPOINT((-120.00000000000075,12400.,0.));
#539=IFCDIRECTION((0.,0.,1.));
#540=IFCDIRECTION((6.123233995736766E-17,-1.,0.));
#541=IFCAXIS2PLACEMENT3D(#538,#539,#540);
#542=IFCLOCALPLACEMENT(#593,#541);
#543=IFCRELFILLSELEMENT('0xQu3Jynr7xPuy9oabb6S_',$,$,$,#521,#340);
#544=IFCOPENINGELEMENT('08EXCQlbH9rw9vNUmuEqQH',$,'Opening 5',$,$,#565,#554,$,$);
#545=IFCCARTESIANPOINTLIST3D(((0.,0.,0.),(1100.,0.,0.),(1100.,240.,0.),(0.,240.,0.),(0.,0.,2200.),(1100.,0.,2200.),(1100.,240.,2200.),(0.,240.,2200.)));
#546=IFCINDEXEDPOLYGONALFACE((1,2,3,4));
#547=IFCINDEXEDPOLYGONALFACE((5,8,7,6));
#548=IFCINDEXEDPOLYGONALFACE((1,5,6,2));
#549=IFCINDEXEDPOLYGONALFACE((2,6,7,3));
#550=IFCINDEXEDPOLYGONALFACE((3,7,8,4));
#551=IFCINDEXEDPOLYGONALFACE((4,8,5,1));
#552=IFCPOLYGONALFACESET(#545,$,(#546,#547,#548,#549,#550,#551),$);
#553=IFCSHAPEREPRESENTATION(#11,'Body','Tessellation',(#552));
#554=IFCPRODUCTDEFINITIONSHAPE($,$,(#553));
#560=IFCRELVOIDSELEMENT('3IXeDMurj36QMCRsTfkJYG',$,$,$,#86,#544);
#561=IFCCARTESIANPOINT((-120.,0.,0.));
#562=IFCDIRECTION((0.,0.,1.));
#563=IFCDIRECTION((6.123233995736766E-17,-1.,0.));
#564=IFCAXIS2PLACEMENT3D(#561,#562,#563);
#565=IFCLOCALPLACEMENT(#598,#564);
#566=IFCRELFILLSELEMENT('3Knj9sVH5C$QU__kwTtL49',$,$,$,#544,#356);
#567=IFCMATERIAL('Concrete',$,$);
#568=IFCMATERIAL('Timber',$,$);
#569=IFCMATERIAL('Glass',$,$);
#570=IFCRELASSOCIATESMATERIAL('29U1kF74nEHhk3ztWRfoRm',$,$,$,(#171,#69,#308,#404,#356,#18,#120),#567);
#571=IFCRELASSOCIATESMATERIAL('11G0bz$JrCC8dniE2dB0Vp',$,$,$,(#35,#188,#324,#86,#372,#420,#137),#568);
#572=IFCRELASSOCIATESMATERIAL('292HkXDFn7q9XXVIn9Hbqg',$,$,$,(#154,#52,#292,#103,#388,#340,#436),#569);
#573=IFCRELCONTAINEDINSPATIALSTRUCTURE('0fLFgs5dvBeu_SZLjjo4np',$,$,$,(#154,#35,#188,#308,#69,#420,#103,#356,#388,#137,#171,#52,#324,#292,#340,#18,#86,#436,#404,#372,#120),#16);
#574=IFCCARTESIANPOINT((0.,0.,0.));
#575=IFCDIRECTION((0.,0.,1.));
#576=IFCDIRECTION((1.,0.,0.));
#577=IFCAXIS2PLACEMENT3D(#574,#575,#576);
#578=IFCLOCALPLACEMENT($,#577);
#579=IFCCARTESIANPOINT((0.,8000.,0.));
#580=IFCDIRECTION((0.,0.,1.));
#581=IFCDIRECTION((1.,0.,0.));
#582=IFCAXIS2PLACEMENT3D(#579,#580,#581);
#583=IFCLOCALPLACEMENT($,#582);
#584=IFCCARTESIANPOINT((0.,0.,0.));
#585=IFCDIRECTION((0.,0.,1.));
#586=IFCDIRECTION((6.123233995736766E-17,1.,0.));
#587=IFCAXIS2PLACEMENT3D(#584,#585,#586);
#588=IFCLOCALPLACEMENT($,#587);
#589=IFCCARTESIANPOINT((14000.,0.,0.));
#590=IFCDIRECTION((0.,0.,1.));
#591=IFCDIRECTION((6.123233995736766E-17,1.,0.));
#592=IFCAXIS2PLACEMENT3D(#589,#590,#591);
#593=IFCLOCALPLACEMENT($,#592);
#594=IFCCARTESIANPOINT((2000.,0.,0.));
#595=IFCDIRECTION((0.,0.,1.));
#596=IFCDIRECTION((6.123233995736766E-17,1.,0.));
#597=IFCAXIS2PLACEMENT3D(#594,#595,#596);
#598=IFCLOCALPLACEMENT($,#597);
#599=IFCCARTESIANPOINT((4000.,0.,0.));
#600=IFCDIRECTION((0.,0.,1.));
#601=IFCDIRECTION((6.123233995736766E-17,1.,0.));
#602=IFCAXIS2PLACEMENT3D(#599,#600,#601);
#603=IFCLOCALPLACEMENT($,#602);
#604=IFCCARTESIANPOINT((6000.,0.,0.));
#605=IFCDIRECTION((0.,0.,1.));
#606=IFCDIRECTION((6.123233995736766E-17,1.,0.));
#607=IFCAXIS2PLACEMENT3D(#604,#605,#606);
#608=IFCLOCALPLACEMENT($,#607);
#609=IFCCARTESIANPOINT((8000.,0.,0.));
#610=IFCDIRECTION((0.,0.,1.));
#611=IFCDIRECTION((6.123233995736766E-17,1.,0.));
#612=IFCAXIS2PLACEMENT3D(#609,#610,#611);
#613=IFCLOCALPLACEMENT($,#612);
#614=IFCCARTESIANPOINT((10000.,0.,0.));
#615=IFCDIRECTION((0.,0.,1.));
#616=IFCDIRECTION((6.123233995736766E-17,1.,0.));
#617=IFCAXIS2PLACEMENT3D(#614,#615,#616);
#618=IFCLOCALPLACEMENT($,#617);
#619=IFCCARTESIANPOINT((12000.,0.,0.));
#620=IFCDIRECTION((0.,0.,1.));
#621=IFCDIRECTION((6.123233995736766E-17,1.,0.));
#622=IFCAXIS2PLACEMENT3D(#619,#620,#621);
#623=IFCLOCALPLACEMENT($,#622);
#624=IFCCARTESIANPOINT((0.,0.,0.));
#625=IFCDIRECTION((0.,0.,1.));
#626=IFCDIRECTION((1.,0.,0.));
#627=IFCAXIS2PLACEMENT3D(#624,#625,#626);
#628=IFCLOCALPLACEMENT($,#627);
#629=IFCCARTESIANPOINT((1483.333333333333,79.999999999999986,0.));
#630=IFCDIRECTION((0.,0.,1.));
#631=IFCDIRECTION((1.,0.,0.));
#632=IFCAXIS2PLACEMENT3D(#629,#630,#631);
#633=IFCLOCALPLACEMENT(#473,#632);
#634=IFCCARTESIANPOINT((3416.6666666666661,79.999999999999105,0.));
#635=IFCDIRECTION((0.,0.,1.));
#636=IFCDIRECTION((1.,0.,0.));
#637=IFCAXIS2PLACEMENT3D(#634,#635,#636);
#638=IFCLOCALPLACEMENT(#496,#637);
#639=IFCCARTESIANPOINT((5349.9999999999991,79.999999999999986,0.));
#640=IFCDIRECTION((0.,0.,1.));
#641=IFCDIRECTION((1.,0.,0.));
#642=IFCAXIS2PLACEMENT3D(#639,#640,#641);
#643=IFCLOCALPLACEMENT(#519,#642);
#644=IFCCARTESIANPOINT((7283.333333333333,79.999999999999986,0.));
#645=IFCDIRECTION((0.,0.,1.));
#646=IFCDIRECTION((1.,0.,0.));
#647=IFCAXIS2PLACEMENT3D(#644,#645,#646);
#648=IFCLOCALPLACEMENT(#542,#647);
#649=IFCCARTESIANPOINT((9216.6666666666679,79.999999999999986,0.));
#650=IFCDIRECTION((0.,0.,1.));
#651=IFCDIRECTION((1.,0.,0.));
#652=IFCAXIS2PLACEMENT3D(#649,#650,#651);
#653=IFCLOCALPLACEMENT(#565,#652);
#654=IFCCARTESIANPOINT((1733.3333333333328,7960.,1100.));
#655=IFCDIRECTION((0.,0.,1.));
#656=IFCDIRECTION((1.,0.,0.));
#657=IFCAXIS2PLACEMENT3D(#654,#655,#656);
#658=IFCLOCALPLACEMENT($,#657);
#659=IFCCARTESIANPOINT((13960.,2066.6666666666665,1100.));
#660=IFCDIRECTION((0.,0.,1.));
#661=IFCDIRECTION((6.123233995736766E-17,1.,0.));
#662=IFCAXIS2PLACEMENT3D(#659,#660,#661);
#663=IFCLOCALPLACEMENT($,#662);
#664=IFCCARTESIANPOINT((6400.,7960.,1100.));
#665=IFCDIRECTION((0.,0.,1.));
#666=IFCDIRECTION((1.,0.,0.));
#667=IFCAXIS2PLACEMENT3D(#664,#665,#666);
#668=IFCLOCALPLACEMENT($,#667);
#669=IFCCARTESIANPOINT((13960.,4733.333333333333,1100.));
#670=IFCDIRECTION((0.,0.,1.));
#671=IFCDIRECTION((6.123233995736766E-17,1.,0.));
#672=IFCAXIS2PLACEMENT3D(#669,#670,#671);
#673=IFCLOCALPLACEMENT($,#672);
#674=IFCCARTESIANPOINT((11066.666666666668,7960.,1100.));
#675=IFCDIRECTION((0.,0.,1.));
#676=IFCDIRECTION((1.,0.,0.));
#677=IFCAXIS2PLACEMENT3D(#674,#675,#676);
#678=IFCLOCALPLACEMENT($,#677);
ENDSEC;
END-ISO-10303-21;
