# generated by make_answer.py
o Tail
v 0.000000 0.100000 0.000000
v 0.000000 0.086603 0.050000
v 0.000000 0.050000 0.086603
v 0.000000 0.000000 0.100000
v 0.000000 -0.050000 0.086603
v 0.000000 -0.086603 0.050000
v 0.000000 -0.100000 0.000000
v 0.000000 -0.086603 -0.050000
v 0.000000 -0.050000 -0.086603
v 0.000000 -0.000000 -0.100000
v 0.000000 0.050000 -0.086603
v 0.000000 0.086603 -0.050000
v 0.037500 0.098250 0.000000
v 0.037500 0.085087 0.049125
v 0.037500 0.049125 0.085087
v 0.037500 0.000000 0.098250
v 0.037500 -0.049125 0.085087
v 0.037500 -0.085087 0.049125
v 0.037500 -0.098250 0.000000
v 0.037500 -0.085087 -0.049125
v 0.037500 -0.049125 -0.085087
v 0.037500 -0.000000 -0.098250
v 0.037500 0.049125 -0.085087
v 0.037500 0.085087 -0.049125
v 0.075000 0.096500 0.000000
v 0.075000 0.083571 0.048250
v 0.075000 0.048250 0.083571
v 0.075000 0.000000 0.096500
v 0.075000 -0.048250 0.083571
v 0.075000 -0.083571 0.048250
v 0.075000 -0.096500 0.000000
v 0.075000 -0.083571 -0.048250
v 0.075000 -0.048250 -0.083571
v 0.075000 -0.000000 -0.096500
v 0.075000 0.048250 -0.083571
v 0.075000 0.083571 -0.048250
v 0.112500 0.094750 0.000000
v 0.112500 0.082056 0.047375
v 0.112500 0.047375 0.082056
v 0.112500 0.000000 0.094750
v 0.112500 -0.047375 0.082056
v 0.112500 -0.082056 0.047375
v 0.112500 -0.094750 0.000000
v 0.112500 -0.082056 -0.047375
v 0.112500 -0.047375 -0.082056
v 0.112500 -0.000000 -0.094750
v 0.112500 0.047375 -0.082056
v 0.112500 0.082056 -0.047375
v 0.150000 0.093000 0.000000
v 0.150000 0.080540 0.046500
v 0.150000 0.046500 0.080540
v 0.150000 0.000000 0.093000
v 0.150000 -0.046500 0.080540
v 0.150000 -0.080540 0.046500
v 0.150000 -0.093000 0.000000
v 0.150000 -0.080540 -0.046500
v 0.150000 -0.046500 -0.080540
v 0.150000 -0.000000 -0.093000
v 0.150000 0.046500 -0.080540
v 0.150000 0.080540 -0.046500
v 0.187500 0.091250 0.000000
v 0.187500 0.079025 0.045625
v 0.187500 0.045625 0.079025
v 0.187500 0.000000 0.091250
v 0.187500 -0.045625 0.079025
v 0.187500 -0.079025 0.045625
v 0.187500 -0.091250 0.000000
v 0.187500 -0.079025 -0.045625
v 0.187500 -0.045625 -0.079025
v 0.187500 -0.000000 -0.091250
v 0.187500 0.045625 -0.079025
v 0.187500 0.079025 -0.045625
v 0.225000 0.089500 0.000000
v 0.225000 0.077509 0.044750
v 0.225000 0.044750 0.077509
v 0.225000 0.000000 0.089500
v 0.225000 -0.044750 0.077509
v 0.225000 -0.077509 0.044750
v 0.225000 -0.089500 0.000000
v 0.225000 -0.077509 -0.044750
v 0.225000 -0.044750 -0.077509
v 0.225000 -0.000000 -0.089500
v 0.225000 0.044750 -0.077509
v 0.225000 0.077509 -0.044750
v 0.262500 0.087750 0.000000
v 0.262500 0.075994 0.043875
v 0.262500 0.043875 0.075994
v 0.262500 0.000000 0.087750
v 0.262500 -0.043875 0.075994
v 0.262500 -0.075994 0.043875
v 0.262500 -0.087750 0.000000
v 0.262500 -0.075994 -0.043875
v 0.262500 -0.043875 -0.075994
v 0.262500 -0.000000 -0.087750
v 0.262500 0.043875 -0.075994
v 0.262500 0.075994 -0.043875
v 0.300000 0.086000 0.000000
v 0.300000 0.074478 0.043000
v 0.300000 0.043000 0.074478
v 0.300000 0.000000 0.086000
v 0.300000 -0.043000 0.074478
v 0.300000 -0.074478 0.043000
v 0.300000 -0.086000 0.000000
v 0.300000 -0.074478 -0.043000
v 0.300000 -0.043000 -0.074478
v 0.300000 -0.000000 -0.086000
v 0.300000 0.043000 -0.074478
v 0.300000 0.074478 -0.043000
v 0.337500 0.084250 0.000000
v 0.337500 0.072963 0.042125
v 0.337500 0.042125 0.072963
v 0.337500 0.000000 0.084250
v 0.337500 -0.042125 0.072963
v 0.337500 -0.072963 0.042125
v 0.337500 -0.084250 0.000000
v 0.337500 -0.072963 -0.042125
v 0.337500 -0.042125 -0.072963
v 0.337500 -0.000000 -0.084250
v 0.337500 0.042125 -0.072963
v 0.337500 0.072963 -0.042125
v 0.375000 0.082500 0.000000
v 0.375000 0.071447 0.041250
v 0.375000 0.041250 0.071447
v 0.375000 0.000000 0.082500
v 0.375000 -0.041250 0.071447
v 0.375000 -0.071447 0.041250
v 0.375000 -0.082500 0.000000
v 0.375000 -0.071447 -0.041250
v 0.375000 -0.041250 -0.071447
v 0.375000 -0.000000 -0.082500
v 0.375000 0.041250 -0.071447
v 0.375000 0.071447 -0.041250
v 0.412500 0.080750 0.000000
v 0.412500 0.069932 0.040375
v 0.412500 0.040375 0.069932
v 0.412500 0.000000 0.080750
v 0.412500 -0.040375 0.069932
v 0.412500 -0.069932 0.040375
v 0.412500 -0.080750 0.000000
v 0.412500 -0.069932 -0.040375
v 0.412500 -0.040375 -0.069932
v 0.412500 -0.000000 -0.080750
v 0.412500 0.040375 -0.069932
v 0.412500 0.069932 -0.040375
v 0.450000 0.079000 0.000000
v 0.450000 0.068416 0.039500
v 0.450000 0.039500 0.068416
v 0.450000 0.000000 0.079000
v 0.450000 -0.039500 0.068416
v 0.450000 -0.068416 0.039500
v 0.450000 -0.079000 0.000000
v 0.450000 -0.068416 -0.039500
v 0.450000 -0.039500 -0.068416
v 0.450000 -0.000000 -0.079000
v 0.450000 0.039500 -0.068416
v 0.450000 0.068416 -0.039500
v 0.487500 0.077250 0.000000
v 0.487500 0.066900 0.038625
v 0.487500 0.038625 0.066900
v 0.487500 0.000000 0.077250
v 0.487500 -0.038625 0.066900
v 0.487500 -0.066900 0.038625
v 0.487500 -0.077250 0.000000
v 0.487500 -0.066900 -0.038625
v 0.487500 -0.038625 -0.066900
v 0.487500 -0.000000 -0.077250
v 0.487500 0.038625 -0.066900
v 0.487500 0.066900 -0.038625
v 0.525000 0.075500 0.000000
v 0.525000 0.065385 0.037750
v 0.525000 0.037750 0.065385
v 0.525000 0.000000 0.075500
v 0.525000 -0.037750 0.065385
v 0.525000 -0.065385 0.037750
v 0.525000 -0.075500 0.000000
v 0.525000 -0.065385 -0.037750
v 0.525000 -0.037750 -0.065385
v 0.525000 -0.000000 -0.075500
v 0.525000 0.037750 -0.065385
v 0.525000 0.065385 -0.037750
v 0.562500 0.073750 0.000000
v 0.562500 0.063869 0.036875
v 0.562500 0.036875 0.063869
v 0.562500 0.000000 0.073750
v 0.562500 -0.036875 0.063869
v 0.562500 -0.063869 0.036875
v 0.562500 -0.073750 0.000000
v 0.562500 -0.063869 -0.036875
v 0.562500 -0.036875 -0.063869
v 0.562500 -0.000000 -0.073750
v 0.562500 0.036875 -0.063869
v 0.562500 0.063869 -0.036875
v 0.600000 0.072000 0.000000
v 0.600000 0.062354 0.036000
v 0.600000 0.036000 0.062354
v 0.600000 0.000000 0.072000
v 0.600000 -0.036000 0.062354
v 0.600000 -0.062354 0.036000
v 0.600000 -0.072000 0.000000
v 0.600000 -0.062354 -0.036000
v 0.600000 -0.036000 -0.062354
v 0.600000 -0.000000 -0.072000
v 0.600000 0.036000 -0.062354
v 0.600000 0.062354 -0.036000
v 0.637500 0.070250 0.000000
v 0.637500 0.060838 0.035125
v 0.637500 0.035125 0.060838
v 0.637500 0.000000 0.070250
v 0.637500 -0.035125 0.060838
v 0.637500 -0.060838 0.035125
v 0.637500 -0.070250 0.000000
v 0.637500 -0.060838 -0.035125
v 0.637500 -0.035125 -0.060838
v 0.637500 -0.000000 -0.070250
v 0.637500 0.035125 -0.060838
v 0.637500 0.060838 -0.035125
v 0.675000 0.068500 0.000000
v 0.675000 0.059323 0.034250
v 0.675000 0.034250 0.059323
v 0.675000 0.000000 0.068500
v 0.675000 -0.034250 0.059323
v 0.675000 -0.059323 0.034250
v 0.675000 -0.068500 0.000000
v 0.675000 -0.059323 -0.034250
v 0.675000 -0.034250 -0.059323
v 0.675000 -0.000000 -0.068500
v 0.675000 0.034250 -0.059323
v 0.675000 0.059323 -0.034250
v 0.712500 0.066750 0.000000
v 0.712500 0.057807 0.033375
v 0.712500 0.033375 0.057807
v 0.712500 0.000000 0.066750
v 0.712500 -0.033375 0.057807
v 0.712500 -0.057807 0.033375
v 0.712500 -0.066750 0.000000
v 0.712500 -0.057807 -0.033375
v 0.712500 -0.033375 -0.057807
v 0.712500 -0.000000 -0.066750
v 0.712500 0.033375 -0.057807
v 0.712500 0.057807 -0.033375
v 0.750000 0.065000 0.000000
v 0.750000 0.056292 0.032500
v 0.750000 0.032500 0.056292
v 0.750000 0.000000 0.065000
v 0.750000 -0.032500 0.056292
v 0.750000 -0.056292 0.032500
v 0.750000 -0.065000 0.000000
v 0.750000 -0.056292 -0.032500
v 0.750000 -0.032500 -0.056292
v 0.750000 -0.000000 -0.065000
v 0.750000 0.032500 -0.056292
v 0.750000 0.056292 -0.032500
v 0.787500 0.063250 0.000000
v 0.787500 0.054776 0.031625
v 0.787500 0.031625 0.054776
v 0.787500 0.000000 0.063250
v 0.787500 -0.031625 0.054776
v 0.787500 -0.054776 0.031625
v 0.787500 -0.063250 0.000000
v 0.787500 -0.054776 -0.031625
v 0.787500 -0.031625 -0.054776
v 0.787500 -0.000000 -0.063250
v 0.787500 0.031625 -0.054776
v 0.787500 0.054776 -0.031625
v 0.825000 0.061500 0.000000
v 0.825000 0.053261 0.030750
v 0.825000 0.030750 0.053261
v 0.825000 0.000000 0.061500
v 0.825000 -0.030750 0.053261
v 0.825000 -0.053261 0.030750
v 0.825000 -0.061500 0.000000
v 0.825000 -0.053261 -0.030750
v 0.825000 -0.030750 -0.053261
v 0.825000 -0.000000 -0.061500
v 0.825000 0.030750 -0.053261
v 0.825000 0.053261 -0.030750
v 0.862500 0.059750 0.000000
v 0.862500 0.051745 0.029875
v 0.862500 0.029875 0.051745
v 0.862500 0.000000 0.059750
v 0.862500 -0.029875 0.051745
v 0.862500 -0.051745 0.029875
v 0.862500 -0.059750 0.000000
v 0.862500 -0.051745 -0.029875
v 0.862500 -0.029875 -0.051745
v 0.862500 -0.000000 -0.059750
v 0.862500 0.029875 -0.051745
v 0.862500 0.051745 -0.029875
v 0.900000 0.058000 0.000000
v 0.900000 0.050229 0.029000
v 0.900000 0.029000 0.050229
v 0.900000 0.000000 0.058000
v 0.900000 -0.029000 0.050229
v 0.900000 -0.050229 0.029000
v 0.900000 -0.058000 0.000000
v 0.900000 -0.050229 -0.029000
v 0.900000 -0.029000 -0.050229
v 0.900000 -0.000000 -0.058000
v 0.900000 0.029000 -0.050229
v 0.900000 0.050229 -0.029000
v 0.937500 0.056250 0.000000
v 0.937500 0.048714 0.028125
v 0.937500 0.028125 0.048714
v 0.937500 0.000000 0.056250
v 0.937500 -0.028125 0.048714
v 0.937500 -0.048714 0.028125
v 0.937500 -0.056250 0.000000
v 0.937500 -0.048714 -0.028125
v 0.937500 -0.028125 -0.048714
v 0.937500 -0.000000 -0.056250
v 0.937500 0.028125 -0.048714
v 0.937500 0.048714 -0.028125
v 0.975000 0.054500 0.000000
v 0.975000 0.047198 0.027250
v 0.975000 0.027250 0.047198
v 0.975000 0.000000 0.054500
v 0.975000 -0.027250 0.047198
v 0.975000 -0.047198 0.027250
v 0.975000 -0.054500 0.000000
v 0.975000 -0.047198 -0.027250
v 0.975000 -0.027250 -0.047198
v 0.975000 -0.000000 -0.054500
v 0.975000 0.027250 -0.047198
v 0.975000 0.047198 -0.027250
v 1.012500 0.052750 0.000000
v 1.012500 0.045683 0.026375
v 1.012500 0.026375 0.045683
v 1.012500 0.000000 0.052750
v 1.012500 -0.026375 0.045683
v 1.012500 -0.045683 0.026375
v 1.012500 -0.052750 0.000000
v 1.012500 -0.045683 -0.026375
v 1.012500 -0.026375 -0.045683
v 1.012500 -0.000000 -0.052750
v 1.012500 0.026375 -0.045683
v 1.012500 0.045683 -0.026375
v 1.050000 0.051000 0.000000
v 1.050000 0.044167 0.025500
v 1.050000 0.025500 0.044167
v 1.050000 0.000000 0.051000
v 1.050000 -0.025500 0.044167
v 1.050000 -0.044167 0.025500
v 1.050000 -0.051000 0.000000
v 1.050000 -0.044167 -0.025500
v 1.050000 -0.025500 -0.044167
v 1.050000 -0.000000 -0.051000
v 1.050000 0.025500 -0.044167
v 1.050000 0.044167 -0.025500
v 1.087500 0.049250 0.000000
v 1.087500 0.042652 0.024625
v 1.087500 0.024625 0.042652
v 1.087500 0.000000 0.049250
v 1.087500 -0.024625 0.042652
v 1.087500 -0.042652 0.024625
v 1.087500 -0.049250 0.000000
v 1.087500 -0.042652 -0.024625
v 1.087500 -0.024625 -0.042652
v 1.087500 -0.000000 -0.049250
v 1.087500 0.024625 -0.042652
v 1.087500 0.042652 -0.024625
v 1.125000 0.047500 0.000000
v 1.125000 0.041136 0.023750
v 1.125000 0.023750 0.041136
v 1.125000 0.000000 0.047500
v 1.125000 -0.023750 0.041136
v 1.125000 -0.041136 0.023750
v 1.125000 -0.047500 0.000000
v 1.125000 -0.041136 -0.023750
v 1.125000 -0.023750 -0.041136
v 1.125000 -0.000000 -0.047500
v 1.125000 0.023750 -0.041136
v 1.125000 0.041136 -0.023750
v 1.162500 0.045750 0.000000
v 1.162500 0.039621 0.022875
v 1.162500 0.022875 0.039621
v 1.162500 0.000000 0.045750
v 1.162500 -0.022875 0.039621
v 1.162500 -0.039621 0.022875
v 1.162500 -0.045750 0.000000
v 1.162500 -0.039621 -0.022875
v 1.162500 -0.022875 -0.039621
v 1.162500 -0.000000 -0.045750
v 1.162500 0.022875 -0.039621
v 1.162500 0.039621 -0.022875
v 1.200000 0.044000 0.000000
v 1.200000 0.038105 0.022000
v 1.200000 0.022000 0.038105
v 1.200000 0.000000 0.044000
v 1.200000 -0.022000 0.038105
v 1.200000 -0.038105 0.022000
v 1.200000 -0.044000 0.000000
v 1.200000 -0.038105 -0.022000
v 1.200000 -0.022000 -0.038105
v 1.200000 -0.000000 -0.044000
v 1.200000 0.022000 -0.038105
v 1.200000 0.038105 -0.022000
v 1.237500 0.042250 0.000000
v 1.237500 0.036590 0.021125
v 1.237500 0.021125 0.036590
v 1.237500 0.000000 0.042250
v 1.237500 -0.021125 0.036590
v 1.237500 -0.036590 0.021125
v 1.237500 -0.042250 0.000000
v 1.237500 -0.036590 -0.021125
v 1.237500 -0.021125 -0.036590
v 1.237500 -0.000000 -0.042250
v 1.237500 0.021125 -0.036590
v 1.237500 0.036590 -0.021125
v 1.275000 0.040500 0.000000
v 1.275000 0.035074 0.020250
v 1.275000 0.020250 0.035074
v 1.275000 0.000000 0.040500
v 1.275000 -0.020250 0.035074
v 1.275000 -0.035074 0.020250
v 1.275000 -0.040500 0.000000
v 1.275000 -0.035074 -0.020250
v 1.275000 -0.020250 -0.035074
v 1.275000 -0.000000 -0.040500
v 1.275000 0.020250 -0.035074
v 1.275000 0.035074 -0.020250
v 1.312500 0.038750 0.000000
v 1.312500 0.033558 0.019375
v 1.312500 0.019375 0.033558
v 1.312500 0.000000 0.038750
v 1.312500 -0.019375 0.033558
v 1.312500 -0.033558 0.019375
v 1.312500 -0.038750 0.000000
v 1.312500 -0.033558 -0.019375
v 1.312500 -0.019375 -0.033558
v 1.312500 -0.000000 -0.038750
v 1.312500 0.019375 -0.033558
v 1.312500 0.033558 -0.019375
v 1.350000 0.037000 0.000000
v 1.350000 0.032043 0.018500
v 1.350000 0.018500 0.032043
v 1.350000 0.000000 0.037000
v 1.350000 -0.018500 0.032043
v 1.350000 -0.032043 0.018500
v 1.350000 -0.037000 0.000000
v 1.350000 -0.032043 -0.018500
v 1.350000 -0.018500 -0.032043
v 1.350000 -0.000000 -0.037000
v 1.350000 0.018500 -0.032043
v 1.350000 0.032043 -0.018500
v 1.387500 0.035250 0.000000
v 1.387500 0.030527 0.017625
v 1.387500 0.017625 0.030527
v 1.387500 0.000000 0.035250
v 1.387500 -0.017625 0.030527
v 1.387500 -0.030527 0.017625
v 1.387500 -0.035250 0.000000
v 1.387500 -0.030527 -0.017625
v 1.387500 -0.017625 -0.030527
v 1.387500 -0.000000 -0.035250
v 1.387500 0.017625 -0.030527
v 1.387500 0.030527 -0.017625
v 1.425000 0.033500 0.000000
v 1.425000 0.029012 0.016750
v 1.425000 0.016750 0.029012
v 1.425000 0.000000 0.033500
v 1.425000 -0.016750 0.029012
v 1.425000 -0.029012 0.016750
v 1.425000 -0.033500 0.000000
v 1.425000 -0.029012 -0.016750
v 1.425000 -0.016750 -0.029012
v 1.425000 -0.000000 -0.033500
v 1.425000 0.016750 -0.029012
v 1.425000 0.029012 -0.016750
v 1.462500 0.031750 0.000000
v 1.462500 0.027496 0.015875
v 1.462500 0.015875 0.027496
v 1.462500 0.000000 0.031750
v 1.462500 -0.015875 0.027496
v 1.462500 -0.027496 0.015875
v 1.462500 -0.031750 0.000000
v 1.462500 -0.027496 -0.015875
v 1.462500 -0.015875 -0.027496
v 1.462500 -0.000000 -0.031750
v 1.462500 0.015875 -0.027496
v 1.462500 0.027496 -0.015875
v 1.500000 0.030000 0.000000
v 1.500000 0.025981 0.015000
v 1.500000 0.015000 0.025981
v 1.500000 0.000000 0.030000
v 1.500000 -0.015000 0.025981
v 1.500000 -0.025981 0.015000
v 1.500000 -0.030000 0.000000
v 1.500000 -0.025981 -0.015000
v 1.500000 -0.015000 -0.025981
v 1.500000 -0.000000 -0.030000
v 1.500000 0.015000 -0.025981
v 1.500000 0.025981 -0.015000
v 0.000000 0.000000 0.000000
v 1.500000 0.000000 0.000000
g default
f 1 2 14 13
f 2 3 15 14
f 3 4 16 15
f 4 5 17 16
f 5 6 18 17
f 6 7 19 18
f 7 8 20 19
f 8 9 21 20
f 9 10 22 21
f 10 11 23 22
f 11 12 24 23
f 12 1 13 24
f 13 14 26 25
f 14 15 27 26
f 15 16 28 27
f 16 17 29 28
f 17 18 30 29
f 18 19 31 30
f 19 20 32 31
f 20 21 33 32
f 21 22 34 33
f 22 23 35 34
f 23 24 36 35
f 24 13 25 36
f 25 26 38 37
f 26 27 39 38
f 27 28 40 39
f 28 29 41 40
f 29 30 42 41
f 30 31 43 42
f 31 32 44 43
f 32 33 45 44
f 33 34 46 45
f 34 35 47 46
f 35 36 48 47
f 36 25 37 48
f 37 38 50 49
f 38 39 51 50
f 39 40 52 51
f 40 41 53 52
f 41 42 54 53
f 42 43 55 54
f 43 44 56 55
f 44 45 57 56
f 45 46 58 57
f 46 47 59 58
f 47 48 60 59
f 48 37 49 60
f 49 50 62 61
f 50 51 63 62
f 51 52 64 63
f 52 53 65 64
f 53 54 66 65
f 54 55 67 66
f 55 56 68 67
f 56 57 69 68
f 57 58 70 69
f 58 59 71 70
f 59 60 72 71
f 60 49 61 72
f 61 62 74 73
f 62 63 75 74
f 63 64 76 75
f 64 65 77 76
f 65 66 78 77
f 66 67 79 78
f 67 68 80 79
f 68 69 81 80
f 69 70 82 81
f 70 71 83 82
f 71 72 84 83
f 72 61 73 84
f 73 74 86 85
f 74 75 87 86
f 75 76 88 87
f 76 77 89 88
f 77 78 90 89
f 78 79 91 90
f 79 80 92 91
f 80 81 93 92
f 81 82 94 93
f 82 83 95 94
f 83 84 96 95
f 84 73 85 96
f 85 86 98 97
f 86 87 99 98
f 87 88 100 99
f 88 89 101 100
f 89 90 102 101
f 90 91 103 102
f 91 92 104 103
f 92 93 105 104
f 93 94 106 105
f 94 95 107 106
f 95 96 108 107
f 96 85 97 108
f 97 98 110 109
f 98 99 111 110
f 99 100 112 111
f 100 101 113 112
f 101 102 114 113
f 102 103 115 114
f 103 104 116 115
f 104 105 117 116
f 105 106 118 117
f 106 107 119 118
f 107 108 120 119
f 108 97 109 120
f 109 110 122 121
f 110 111 123 122
f 111 112 124 123
f 112 113 125 124
f 113 114 126 125
f 114 115 127 126
f 115 116 128 127
f 116 117 129 128
f 117 118 130 129
f 118 119 131 130
f 119 120 132 131
f 120 109 121 132
f 121 122 134 133
f 122 123 135 134
f 123 124 136 135
f 124 125 137 136
f 125 126 138 137
f 126 127 139 138
f 127 128 140 139
f 128 129 141 140
f 129 130 142 141
f 130 131 143 142
f 131 132 144 143
f 132 121 133 144
f 133 134 146 145
f 134 135 147 146
f 135 136 148 147
f 136 137 149 148
f 137 138 150 149
f 138 139 151 150
f 139 140 152 151
f 140 141 153 152
f 141 142 154 153
f 142 143 155 154
f 143 144 156 155
f 144 133 145 156
f 145 146 158 157
f 146 147 159 158
f 147 148 160 159
f 148 149 161 160
f 149 150 162 161
f 150 151 163 162
f 151 152 164 163
f 152 153 165 164
f 153 154 166 165
f 154 155 167 166
f 155 156 168 167
f 156 145 157 168
f 157 158 170 169
f 158 159 171 170
f 159 160 172 171
f 160 161 173 172
f 161 162 174 173
f 162 163 175 174
f 163 164 176 175
f 164 165 177 176
f 165 166 178 177
f 166 167 179 178
f 167 168 180 179
f 168 157 169 180
f 169 170 182 181
f 170 171 183 182
f 171 172 184 183
f 172 173 185 184
f 173 174 186 185
f 174 175 187 186
f 175 176 188 187
f 176 177 189 188
f 177 178 190 189
f 178 179 191 190
f 179 180 192 191
f 180 169 181 192
f 181 182 194 193
f 182 183 195 194
f 183 184 196 195
f 184 185 197 196
f 185 186 198 197
f 186 187 199 198
f 187 188 200 199
f 188 189 201 200
f 189 190 202 201
f 190 191 203 202
f 191 192 204 203
f 192 181 193 204
f 193 194 206 205
f 194 195 207 206
f 195 196 208 207
f 196 197 209 208
f 197 198 210 209
f 198 199 211 210
f 199 200 212 211
f 200 201 213 212
f 201 202 214 213
f 202 203 215 214
f 203 204 216 215
f 204 193 205 216
f 205 206 218 217
f 206 207 219 218
f 207 208 220 219
f 208 209 221 220
f 209 210 222 221
f 210 211 223 222
f 211 212 224 223
f 212 213 225 224
f 213 214 226 225
f 214 215 227 226
f 215 216 228 227
f 216 205 217 228
f 217 218 230 229
f 218 219 231 230
f 219 220 232 231
f 220 221 233 232
f 221 222 234 233
f 222 223 235 234
f 223 224 236 235
f 224 225 237 236
f 225 226 238 237
f 226 227 239 238
f 227 228 240 239
f 228 217 229 240
f 229 230 242 241
f 230 231 243 242
f 231 232 244 243
f 232 233 245 244
f 233 234 246 245
f 234 235 247 246
f 235 236 248 247
f 236 237 249 248
f 237 238 250 249
f 238 239 251 250
f 239 240 252 251
f 240 229 241 252
f 241 242 254 253
f 242 243 255 254
f 243 244 256 255
f 244 245 257 256
f 245 246 258 257
f 246 247 259 258
f 247 248 260 259
f 248 249 261 260
f 249 250 262 261
f 250 251 263 262
f 251 252 264 263
f 252 241 253 264
f 253 254 266 265
f 254 255 267 266
f 255 256 268 267
f 256 257 269 268
f 257 258 270 269
f 258 259 271 270
f 259 260 272 271
f 260 261 273 272
f 261 262 274 273
f 262 263 275 274
f 263 264 276 275
f 264 253 265 276
f 265 266 278 277
f 266 267 279 278
f 267 268 280 279
f 268 269 281 280
f 269 270 282 281
f 270 271 283 282
f 271 272 284 283
f 272 273 285 284
f 273 274 286 285
f 274 275 287 286
f 275 276 288 287
f 276 265 277 288
f 277 278 290 289
f 278 279 291 290
f 279 280 292 291
f 280 281 293 292
f 281 282 294 293
f 282 283 295 294
f 283 284 296 295
f 284 285 297 296
f 285 286 298 297
f 286 287 299 298
f 287 288 300 299
f 288 277 289 300
f 289 290 302 301
f 290 291 303 302
f 291 292 304 303
f 292 293 305 304
f 293 294 306 305
f 294 295 307 306
f 295 296 308 307
f 296 297 309 308
f 297 298 310 309
f 298 299 311 310
f 299 300 312 311
f 300 289 301 312
f 301 302 314 313
f 302 303 315 314
f 303 304 316 315
f 304 305 317 316
f 305 306 318 317
f 306 307 319 318
f 307 308 320 319
f 308 309 321 320
f 309 310 322 321
f 310 311 323 322
f 311 312 324 323
f 312 301 313 324
f 313 314 326 325
f 314 315 327 326
f 315 316 328 327
f 316 317 329 328
f 317 318 330 329
f 318 319 331 330
f 319 320 332 331
f 320 321 333 332
f 321 322 334 333
f 322 323 335 334
f 323 324 336 335
f 324 313 325 336
f 325 326 338 337
f 326 327 339 338
f 327 328 340 339
f 328 329 341 340
f 329 330 342 341
f 330 331 343 342
f 331 332 344 343
f 332 333 345 344
f 333 334 346 345
f 334 335 347 346
f 335 336 348 347
f 336 325 337 348
f 337 338 350 349
f 338 339 351 350
f 339 340 352 351
f 340 341 353 352
f 341 342 354 353
f 342 343 355 354
f 343 344 356 355
f 344 345 357 356
f 345 346 358 357
f 346 347 359 358
f 347 348 360 359
f 348 337 349 360
f 349 350 362 361
f 350 351 363 362
f 351 352 364 363
f 352 353 365 364
f 353 354 366 365
f 354 355 367 366
f 355 356 368 367
f 356 357 369 368
f 357 358 370 369
f 358 359 371 370
f 359 360 372 371
f 360 349 361 372
f 361 362 374 373
f 362 363 375 374
f 363 364 376 375
f 364 365 377 376
f 365 366 378 377
f 366 367 379 378
f 367 368 380 379
f 368 369 381 380
f 369 370 382 381
f 370 371 383 382
f 371 372 384 383
f 372 361 373 384
f 373 374 386 385
f 374 375 387 386
f 375 376 388 387
f 376 377 389 388
f 377 378 390 389
f 378 379 391 390
f 379 380 392 391
f 380 381 393 392
f 381 382 394 393
f 382 383 395 394
f 383 384 396 395
f 384 373 385 396
f 385 386 398 397
f 386 387 399 398
f 387 388 400 399
f 388 389 401 400
f 389 390 402 401
f 390 391 403 402
f 391 392 404 403
f 392 393 405 404
f 393 394 406 405
f 394 395 407 406
f 395 396 408 407
f 396 385 397 408
f 397 398 410 409
f 398 399 411 410
f 399 400 412 411
f 400 401 413 412
f 401 402 414 413
f 402 403 415 414
f 403 404 416 415
f 404 405 417 416
f 405 406 418 417
f 406 407 419 418
f 407 408 420 419
f 408 397 409 420
f 409 410 422 421
f 410 411 423 422
f 411 412 424 423
f 412 413 425 424
f 413 414 426 425
f 414 415 427 426
f 415 416 428 427
f 416 417 429 428
f 417 418 430 429
f 418 419 431 430
f 419 420 432 431
f 420 409 421 432
f 421 422 434 433
f 422 423 435 434
f 423 424 436 435
f 424 425 437 436
f 425 426 438 437
f 426 427 439 438
f 427 428 440 439
f 428 429 441 440
f 429 430 442 441
f 430 431 443 442
f 431 432 444 443
f 432 421 433 444
f 433 434 446 445
f 434 435 447 446
f 435 436 448 447
f 436 437 449 448
f 437 438 450 449
f 438 439 451 450
f 439 440 452 451
f 440 441 453 452
f 441 442 454 453
f 442 443 455 454
f 443 444 456 455
f 444 433 445 456
f 445 446 458 457
f 446 447 459 458
f 447 448 460 459
f 448 449 461 460
f 449 450 462 461
f 450 451 463 462
f 451 452 464 463
f 452 453 465 464
f 453 454 466 465
f 454 455 467 466
f 455 456 468 467
f 456 445 457 468
f 457 458 470 469
f 458 459 471 470
f 459 460 472 471
f 460 461 473 472
f 461 462 474 473
f 462 463 475 474
f 463 464 476 475
f 464 465 477 476
f 465 466 478 477
f 466 467 479 478
f 467 468 480 479
f 468 457 469 480
f 469 470 482 481
f 470 471 483 482
f 471 472 484 483
f 472 473 485 484
f 473 474 486 485
f 474 475 487 486
f 475 476 488 487
f 476 477 489 488
f 477 478 490 489
f 478 479 491 490
f 479 480 492 491
f 480 469 481 492
f 493 2 1
f 493 3 2
f 493 4 3
f 493 5 4
f 493 6 5
f 493 7 6
f 493 8 7
f 493 9 8
f 493 10 9
f 493 11 10
f 493 12 11
f 493 1 12
f 494 481 482
f 494 482 483
f 494 483 484
f 494 484 485
f 494 485 486
f 494 486 487
f 494 487 488
f 494 488 489
f 494 489 490
f 494 490 491
f 494 491 492
f 494 492 481
