# Task 07 Blender review scene exported as OBJ
mtllib 04_blender_review.mtl
o task_07_enclosure_shell
usemtl enclosure_translucent
v -39.0000 -27.0000 0.0000
v 39.0000 -27.0000 0.0000
v 39.0000 27.0000 0.0000
v -39.0000 27.0000 0.0000
v -39.0000 -27.0000 12.2000
v 39.0000 -27.0000 12.2000
v 39.0000 27.0000 12.2000
v -39.0000 27.0000 12.2000
f 1 2 3 4
f 5 8 7 6
f 1 5 6 2
f 2 6 7 3
f 3 7 8 4
f 4 8 5 1
o task_07_pcb_board
usemtl pcb_green
v -33.0000 -21.0000 2.0000
v 33.0000 -21.0000 2.0000
v 33.0000 21.0000 2.0000
v -33.0000 21.0000 2.0000
f 9 10 11 12
