# generated by make_answer.py
o Box
v -1.000000 1.000000 -1.000000
v 1.000000 1.000000 -1.000000
v 1.000000 1.000000 1.000000
v -1.000000 1.000000 1.000000
v -0.400000 1.000000 -0.400000
v 0.400000 1.000000 -0.400000
v 0.400000 1.000000 0.400000
v -0.400000 1.000000 0.400000
v -0.400000 0.800000 -0.400000
v 0.400000 0.800000 -0.400000
v 0.400000 0.800000 0.400000
v -0.400000 0.800000 0.400000
v -1.000000 -1.100000 -1.000000
v 1.000000 -1.100000 -1.000000
v 1.000000 -1.100000 1.000000
v -1.000000 -1.100000 1.000000
g default
f 5 6 2 1
f 6 7 3 2
f 7 8 4 3
f 8 5 1 4
f 9 10 6 5
f 10 11 7 6
f 11 12 8 7
f 12 9 5 8
f 12 11 10 9
f 1 2 14 13
f 2 3 15 14
f 3 4 16 15
f 4 1 13 16
f 13 14 15 16
