solid OpenSCAD_Model
  facet normal 0 0 -1
    outer loop
      vertex 36 -21 0
      vertex 5 0 0
      vertex 36 21 0
    endloop
  endfacet
  facet normal 0 0 -1
    outer loop
      vertex 36 -21 0
      vertex 4.98929 -0.327015 0
      vertex 5 0 0
    endloop
  endfacet
  facet normal 0 0 -1
    outer loop
      vertex 36 -21 0
      vertex 4.95722 -0.652631 0
      vertex 4.98929 -0.327015 0
    endloop
  endfacet
  facet normal 0 0 -1
    outer loop
      vertex 36 -21 0
      vertex 4.90393 -0.975451 0
      vertex 4.95722 -0.652631 0
    endloop
  endfacet
  facet normal 0 0 -1
    outer loop
      vertex 36 -21 0
      vertex 4.82963 -1.2941 0
      vertex 4.90393 -0.975451 0
    endloop
  endfacet
  facet normal 0 0 -1
    outer loop
      vertex 36 -21 0
      vertex 4.73465 -1.6072 0
      vertex 4.82963 -1.2941 0
    endloop
  endfacet
  facet normal 0 0 -1
    outer loop
      vertex 36 -21 0
      vertex 4.6194 -1.91342 0
      vertex 4.73465 -1.6072 0
    endloop
  endfacet
  facet normal 0 0 -1
    outer loop
      vertex 36 -21 0
      vertex 4.48436 -2.21144 0
      vertex 4.6194 -1.91342 0
    endloop
  endfacet
  facet normal 0 0 -1
    outer loop
      vertex 36 -21 0
      vertex 4.33013 -2.5 0
      vertex 4.48436 -2.21144 0
    endloop
  endfacet
  facet normal 0 0 -1
    outer loop
      vertex 36 -21 0
      vertex 4.15735 -2.77785 0
      vertex 4.33013 -2.5 0
    endloop
  endfacet
  facet normal 0 0 -1
    outer loop
      vertex 36 -21 0
      vertex 3.96677 -3.04381 0
      vertex 4.15735 -2.77785 0
    endloop
  endfacet
  facet normal 0 0 -1
    outer loop
      vertex 36 -21 0
      vertex 3.7592 -3.29673 0
      vertex 3.96677 -3.04381 0
    endloop
  endfacet
  facet normal 0 0 -1
    outer loop
      vertex 36 -21 0
      vertex 3.53553 -3.53553 0
      vertex 3.7592 -3.29673 0
    endloop
  endfacet
  facet normal 0 0 -1
    outer loop
      vertex 36 -21 0
      vertex 3.29673 -3.7592 0
      vertex 3.53553 -3.53553 0
    endloop
  endfacet
  facet normal 0 0 -1
    outer loop
      vertex 36 -21 0
      vertex 3.04381 -3.96677 0
      vertex 3.29673 -3.7592 0
    endloop
  endfacet
  facet normal 0 0 -1
    outer loop
      vertex 36 -21 0
      vertex 2.77785 -4.15735 0
      vertex 3.04381 -3.96677 0
    endloop
  endfacet
  facet normal 0 0 -1
    outer loop
      vertex 36 -21 0
      vertex 2.5 -4.33013 0
      vertex 2.77785 -4.15735 0
    endloop
  endfacet
  facet normal 0 0 -1
    outer loop
      vertex 36 -21 0
      vertex 2.21144 -4.48436 0
      vertex 2.5 -4.33013 0
    endloop
  endfacet
  facet normal 0 0 -1
    outer loop
      vertex 36 -21 0
      vertex 1.91342 -4.6194 0
      vertex 2.21144 -4.48436 0
    endloop
  endfacet
  facet normal 0 0 -1
    outer loop
      vertex 36 -21 0
      vertex 1.6072 -4.73465 0
      vertex 1.91342 -4.6194 0
    endloop
  endfacet
  facet normal 0 0 -1
    outer loop
      vertex 36 -21 0
      vertex 1.2941 -4.82963 0
      vertex 1.6072 -4.73465 0
    endloop
  endfacet
  facet normal 0 0 -1
    outer loop
      vertex 36 -21 0
      vertex 0.975451 -4.90393 0
      vertex 1.2941 -4.82963 0
    endloop
  endfacet
  facet normal 0 0 -1
    outer loop
      vertex 36 -21 0
      vertex 0.652631 -4.95722 0
      vertex 0.975451 -4.90393 0
    endloop
  endfacet
  facet normal 0 0 -1
    outer loop
      vertex 36 -21 0
      vertex 0.327015 -4.98929 0
      vertex 0.652631 -4.95722 0
    endloop
  endfacet
  facet normal 0 0 -1
    outer loop
      vertex 36 -21 0
      vertex 0 -5 0
      vertex 0.327015 -4.98929 0
    endloop
  endfacet
  facet normal 0 0 -1
    outer loop
      vertex -36 -21 0
      vertex 0 -5 0
      vertex 36 -21 0
    endloop
  endfacet
  facet normal -0 0 -1
    outer loop
      vertex 0 -5 0
      vertex -36 -21 0
      vertex -0.327015 -4.98929 0
    endloop
  endfacet
  facet normal -0 0 -1
    outer loop
      vertex -0.327015 -4.98929 0
      vertex -36 -21 0
      vertex -0.652631 -4.95722 0
    endloop
  endfacet
  facet normal -0 0 -1
    outer loop
      vertex -0.652631 -4.95722 0
      vertex -36 -21 0
      vertex -0.975451 -4.90393 0
    endloop
  endfacet
  facet normal -0 0 -1
    outer loop
      vertex -0.975451 -4.90393 0
      vertex -36 -21 0
      vertex -1.2941 -4.82963 0
    endloop
  endfacet
  facet normal -0 0 -1
    outer loop
      vertex -1.2941 -4.82963 0
      vertex -36 -21 0
      vertex -1.6072 -4.73465 0
    endloop
  endfacet
  facet normal -0 0 -1
    outer loop
      vertex -4.98929 -0.327015 0
      vertex -36 -21 0
      vertex -5 0 0
    endloop
  endfacet
  facet normal -0 0 -1
    outer loop
      vertex -4.95722 -0.652631 0
      vertex -36 -21 0
      vertex -4.98929 -0.327015 0
    endloop
  endfacet
  facet normal -0 0 -1
    outer loop
      vertex -4.90393 -0.975451 0
      vertex -36 -21 0
      vertex -4.95722 -0.652631 0
    endloop
  endfacet
  facet normal -0 0 -1
    outer loop
      vertex -4.82963 -1.2941 0
      vertex -36 -21 0
      vertex -4.90393 -0.975451 0
    endloop
  endfacet
  facet normal -0 0 -1
    outer loop
      vertex -4.73465 -1.6072 0
      vertex -36 -21 0
      vertex -4.82963 -1.2941 0
    endloop
  endfacet
  facet normal -0 0 -1
    outer loop
      vertex -4.6194 -1.91342 0
      vertex -36 -21 0
      vertex -4.73465 -1.6072 0
    endloop
  endfacet
  facet normal -0 0 -1
    outer loop
      vertex -4.48436 -2.21144 0
      vertex -36 -21 0
      vertex -4.6194 -1.91342 0
    endloop
  endfacet
  facet normal -0 0 -1
    outer loop
      vertex -4.33013 -2.5 0
      vertex -36 -21 0
      vertex -4.48436 -2.21144 0
    endloop
  endfacet
  facet normal -0 0 -1
    outer loop
      vertex -4.15735 -2.77785 0
      vertex -36 -21 0
      vertex -4.33013 -2.5 0
    endloop
  endfacet
  facet normal -0 0 -1
    outer loop
      vertex -3.96677 -3.04381 0
      vertex -36 -21 0
      vertex -4.15735 -2.77785 0
    endloop
  endfacet
  facet normal -0 0 -1
    outer loop
      vertex -3.7592 -3.29673 0
      vertex -36 -21 0
      vertex -3.96677 -3.04381 0
    endloop
  endfacet
  facet normal -0 0 -1
    outer loop
      vertex -3.53553 -3.53553 0
      vertex -36 -21 0
      vertex -3.7592 -3.29673 0
    endloop
  endfacet
  facet normal -0 0 -1
    outer loop
      vertex -3.29673 -3.7592 0
      vertex -36 -21 0
      vertex -3.53553 -3.53553 0
    endloop
  endfacet
  facet normal -0 0 -1
    outer loop
      vertex -3.04381 -3.96677 0
      vertex -36 -21 0
      vertex -3.29673 -3.7592 0
    endloop
  endfacet
  facet normal -0 0 -1
    outer loop
      vertex -2.77785 -4.15735 0
      vertex -36 -21 0
      vertex -3.04381 -3.96677 0
    endloop
  endfacet
  facet normal -0 0 -1
    outer loop
      vertex -2.5 -4.33013 0
      vertex -36 -21 0
      vertex -2.77785 -4.15735 0
    endloop
  endfacet
  facet normal -0 0 -1
    outer loop
      vertex -2.21144 -4.48436 0
      vertex -36 -21 0
      vertex -2.5 -4.33013 0
    endloop
  endfacet
  facet normal -0 0 -1
    outer loop
      vertex -1.91342 -4.6194 0
      vertex -36 -21 0
      vertex -2.21144 -4.48436 0
    endloop
  endfacet
  facet normal -0 0 -1
    outer loop
      vertex -1.6072 -4.73465 0
      vertex -36 -21 0
      vertex -1.91342 -4.6194 0
    endloop
  endfacet
  facet normal 0 0 -1
    outer loop
      vertex 4.98929 0.327015 0
      vertex 36 21 0
      vertex 5 0 0
    endloop
  endfacet
  facet normal 0 0 -1
    outer loop
      vertex 4.95722 0.652631 0
      vertex 36 21 0
      vertex 4.98929 0.327015 0
    endloop
  endfacet
  facet normal 0 0 -1
    outer loop
      vertex 4.90393 0.975451 0
      vertex 36 21 0
      vertex 4.95722 0.652631 0
    endloop
  endfacet
  facet normal 0 0 -1
    outer loop
      vertex 4.82963 1.2941 0
      vertex 36 21 0
      vertex 4.90393 0.975451 0
    endloop
  endfacet
  facet normal 0 0 -1
    outer loop
      vertex 4.73465 1.6072 0
      vertex 36 21 0
      vertex 4.82963 1.2941 0
    endloop
  endfacet
  facet normal 0 0 -1
    outer loop
      vertex 4.6194 1.91342 0
      vertex 36 21 0
      vertex 4.73465 1.6072 0
    endloop
  endfacet
  facet normal 0 0 -1
    outer loop
      vertex 4.48436 2.21144 0
      vertex 36 21 0
      vertex 4.6194 1.91342 0
    endloop
  endfacet
  facet normal 0 0 -1
    outer loop
      vertex 4.33013 2.5 0
      vertex 36 21 0
      vertex 4.48436 2.21144 0
    endloop
  endfacet
  facet normal 0 0 -1
    outer loop
      vertex 4.15735 2.77785 0
      vertex 36 21 0
      vertex 4.33013 2.5 0
    endloop
  endfacet
  facet normal 0 0 -1
    outer loop
      vertex 3.96677 3.04381 0
      vertex 36 21 0
      vertex 4.15735 2.77785 0
    endloop
  endfacet
  facet normal 0 0 -1
    outer loop
      vertex 3.7592 3.29673 0
      vertex 36 21 0
      vertex 3.96677 3.04381 0
    endloop
  endfacet
  facet normal 0 0 -1
    outer loop
      vertex 3.53553 3.53553 0
      vertex 36 21 0
      vertex 3.7592 3.29673 0
    endloop
  endfacet
  facet normal 0 0 -1
    outer loop
      vertex 3.29673 3.7592 0
      vertex 36 21 0
      vertex 3.53553 3.53553 0
    endloop
  endfacet
  facet normal 0 0 -1
    outer loop
      vertex 3.04381 3.96677 0
      vertex 36 21 0
      vertex 3.29673 3.7592 0
    endloop
  endfacet
  facet normal 0 0 -1
    outer loop
      vertex 2.77785 4.15735 0
      vertex 36 21 0
      vertex 3.04381 3.96677 0
    endloop
  endfacet
  facet normal 0 0 -1
    outer loop
      vertex 2.5 4.33013 0
      vertex 36 21 0
      vertex 2.77785 4.15735 0
    endloop
  endfacet
  facet normal 0 0 -1
    outer loop
      vertex 2.21144 4.48436 0
      vertex 36 21 0
      vertex 2.5 4.33013 0
    endloop
  endfacet
  facet normal 0 0 -1
    outer loop
      vertex 1.91342 4.6194 0
      vertex 36 21 0
      vertex 2.21144 4.48436 0
    endloop
  endfacet
  facet normal 0 0 -1
    outer loop
      vertex 1.6072 4.73465 0
      vertex 36 21 0
      vertex 1.91342 4.6194 0
    endloop
  endfacet
  facet normal 0 0 -1
    outer loop
      vertex 1.2941 4.82963 0
      vertex 36 21 0
      vertex 1.6072 4.73465 0
    endloop
  endfacet
  facet normal 0 0 -1
    outer loop
      vertex 0.975451 4.90393 0
      vertex 36 21 0
      vertex 1.2941 4.82963 0
    endloop
  endfacet
  facet normal 0 0 -1
    outer loop
      vertex 0.652631 4.95722 0
      vertex 36 21 0
      vertex 0.975451 4.90393 0
    endloop
  endfacet
  facet normal 0 0 -1
    outer loop
      vertex 0.327015 4.98929 0
      vertex 36 21 0
      vertex 0.652631 4.95722 0
    endloop
  endfacet
  facet normal 0 0 -1
    outer loop
      vertex 0 5 0
      vertex 36 21 0
      vertex 0.327015 4.98929 0
    endloop
  endfacet
  facet normal 0 0 -1
    outer loop
      vertex -36 21 0
      vertex 0 5 0
      vertex -0.327015 4.98929 0
    endloop
  endfacet
  facet normal 0 0 -1
    outer loop
      vertex -36 21 0
      vertex -0.327015 4.98929 0
      vertex -0.652631 4.95722 0
    endloop
  endfacet
  facet normal 0 0 -1
    outer loop
      vertex -36 21 0
      vertex -0.652631 4.95722 0
      vertex -0.975451 4.90393 0
    endloop
  endfacet
  facet normal 0 0 -1
    outer loop
      vertex -36 21 0
      vertex -0.975451 4.90393 0
      vertex -1.2941 4.82963 0
    endloop
  endfacet
  facet normal 0 0 -1
    outer loop
      vertex -36 21 0
      vertex -1.2941 4.82963 0
      vertex -1.6072 4.73465 0
    endloop
  endfacet
  facet normal 0 0 -1
    outer loop
      vertex -36 21 0
      vertex -1.6072 4.73465 0
      vertex -1.91342 4.6194 0
    endloop
  endfacet
  facet normal 0 0 -1
    outer loop
      vertex -36 21 0
      vertex -5 0 0
      vertex -36 -21 0
    endloop
  endfacet
  facet normal 0 0 -1
    outer loop
      vertex -5 0 0
      vertex -36 21 0
      vertex -4.98929 0.327015 0
    endloop
  endfacet
  facet normal 0 0 -1
    outer loop
      vertex -4.98929 0.327015 0
      vertex -36 21 0
      vertex -4.95722 0.652631 0
    endloop
  endfacet
  facet normal 0 0 -1
    outer loop
      vertex -4.95722 0.652631 0
      vertex -36 21 0
      vertex -4.90393 0.975451 0
    endloop
  endfacet
  facet normal 0 0 -1
    outer loop
      vertex -4.90393 0.975451 0
      vertex -36 21 0
      vertex -4.82963 1.2941 0
    endloop
  endfacet
  facet normal 0 0 -1
    outer loop
      vertex -4.82963 1.2941 0
      vertex -36 21 0
      vertex -4.73465 1.6072 0
    endloop
  endfacet
  facet normal 0 0 -1
    outer loop
      vertex -4.73465 1.6072 0
      vertex -36 21 0
      vertex -4.6194 1.91342 0
    endloop
  endfacet
  facet normal 0 0 -1
    outer loop
      vertex -4.6194 1.91342 0
      vertex -36 21 0
      vertex -4.48436 2.21144 0
    endloop
  endfacet
  facet normal 0 0 -1
    outer loop
      vertex -4.48436 2.21144 0
      vertex -36 21 0
      vertex -4.33013 2.5 0
    endloop
  endfacet
  facet normal 0 0 -1
    outer loop
      vertex -4.33013 2.5 0
      vertex -36 21 0
      vertex -4.15735 2.77785 0
    endloop
  endfacet
  facet normal 0 0 -1
    outer loop
      vertex -4.15735 2.77785 0
      vertex -36 21 0
      vertex -3.96677 3.04381 0
    endloop
  endfacet
  facet normal 0 0 -1
    outer loop
      vertex -3.96677 3.04381 0
      vertex -36 21 0
      vertex -3.7592 3.29673 0
    endloop
  endfacet
  facet normal 0 0 -1
    outer loop
      vertex -3.7592 3.29673 0
      vertex -36 21 0
      vertex -3.53553 3.53553 0
    endloop
  endfacet
  facet normal 0 0 -1
    outer loop
      vertex -3.53553 3.53553 0
      vertex -36 21 0
      vertex -3.29673 3.7592 0
    endloop
  endfacet
  facet normal 0 0 -1
    outer loop
      vertex 0 5 0
      vertex -36 21 0
      vertex 36 21 0
    endloop
  endfacet
  facet normal 0 0 -1
    outer loop
      vertex -2.21144 4.48436 0
      vertex -36 21 0
      vertex -1.91342 4.6194 0
    endloop
  endfacet
  facet normal 0 0 -1
    outer loop
      vertex -2.5 4.33013 0
      vertex -36 21 0
      vertex -2.21144 4.48436 0
    endloop
  endfacet
  facet normal 0 0 -1
    outer loop
      vertex -2.77785 4.15735 0
      vertex -36 21 0
      vertex -2.5 4.33013 0
    endloop
  endfacet
  facet normal 0 0 -1
    outer loop
      vertex -3.04381 3.96677 0
      vertex -36 21 0
      vertex -2.77785 4.15735 0
    endloop
  endfacet
  facet normal 0 0 -1
    outer loop
      vertex -3.29673 3.7592 0
      vertex -36 21 0
      vertex -3.04381 3.96677 0
    endloop
  endfacet
  facet normal 1 -0 0
    outer loop
      vertex 36 -21 6
      vertex 36 21 0
      vertex 36 21 6
    endloop
  endfacet
  facet normal 1 0 0
    outer loop
      vertex 36 21 0
      vertex 36 -21 6
      vertex 36 -21 0
    endloop
  endfacet
  facet normal 0 -1 0
    outer loop
      vertex -36 -21 0
      vertex 36 -21 6
      vertex -36 -21 6
    endloop
  endfacet
  facet normal 0 -1 -0
    outer loop
      vertex 36 -21 6
      vertex -36 -21 0
      vertex 36 -21 0
    endloop
  endfacet
  facet normal 0 0 1
    outer loop
      vertex 36 21 6
      vertex 5 0 6
      vertex 36 -21 6
    endloop
  endfacet
  facet normal 0 0 1
    outer loop
      vertex 36 21 6
      vertex 4.98929 0.327015 6
      vertex 5 0 6
    endloop
  endfacet
  facet normal 0 0 1
    outer loop
      vertex 36 21 6
      vertex 4.95722 0.652631 6
      vertex 4.98929 0.327015 6
    endloop
  endfacet
  facet normal 0 0 1
    outer loop
      vertex 36 21 6
      vertex 4.90393 0.975451 6
      vertex 4.95722 0.652631 6
    endloop
  endfacet
  facet normal 0 0 1
    outer loop
      vertex 36 21 6
      vertex 4.82963 1.2941 6
      vertex 4.90393 0.975451 6
    endloop
  endfacet
  facet normal 0 0 1
    outer loop
      vertex 36 21 6
      vertex 4.73465 1.6072 6
      vertex 4.82963 1.2941 6
    endloop
  endfacet
  facet normal 0 0 1
    outer loop
      vertex 36 21 6
      vertex 4.6194 1.91342 6
      vertex 4.73465 1.6072 6
    endloop
  endfacet
  facet normal 0 0 1
    outer loop
      vertex 36 21 6
      vertex 4.48436 2.21144 6
      vertex 4.6194 1.91342 6
    endloop
  endfacet
  facet normal 0 0 1
    outer loop
      vertex 36 21 6
      vertex 4.33013 2.5 6
      vertex 4.48436 2.21144 6
    endloop
  endfacet
  facet normal 0 0 1
    outer loop
      vertex 36 21 6
      vertex 4.15735 2.77785 6
      vertex 4.33013 2.5 6
    endloop
  endfacet
  facet normal 0 0 1
    outer loop
      vertex 36 21 6
      vertex 3.96677 3.04381 6
      vertex 4.15735 2.77785 6
    endloop
  endfacet
  facet normal 0 0 1
    outer loop
      vertex 36 21 6
      vertex 3.7592 3.29673 6
      vertex 3.96677 3.04381 6
    endloop
  endfacet
  facet normal 0 0 1
    outer loop
      vertex 36 21 6
      vertex 3.53553 3.53553 6
      vertex 3.7592 3.29673 6
    endloop
  endfacet
  facet normal 0 0 1
    outer loop
      vertex 36 21 6
      vertex 3.29673 3.7592 6
      vertex 3.53553 3.53553 6
    endloop
  endfacet
  facet normal 0 0 1
    outer loop
      vertex 36 21 6
      vertex 3.04381 3.96677 6
      vertex 3.29673 3.7592 6
    endloop
  endfacet
  facet normal 0 0 1
    outer loop
      vertex 36 21 6
      vertex 2.77785 4.15735 6
      vertex 3.04381 3.96677 6
    endloop
  endfacet
  facet normal 0 0 1
    outer loop
      vertex 36 21 6
      vertex 2.5 4.33013 6
      vertex 2.77785 4.15735 6
    endloop
  endfacet
  facet normal 0 0 1
    outer loop
      vertex 36 21 6
      vertex 2.21144 4.48436 6
      vertex 2.5 4.33013 6
    endloop
  endfacet
  facet normal 0 0 1
    outer loop
      vertex 36 21 6
      vertex 1.91342 4.6194 6
      vertex 2.21144 4.48436 6
    endloop
  endfacet
  facet normal 0 0 1
    outer loop
      vertex 36 21 6
      vertex 1.6072 4.73465 6
      vertex 1.91342 4.6194 6
    endloop
  endfacet
  facet normal 0 0 1
    outer loop
      vertex 36 21 6
      vertex 1.2941 4.82963 6
      vertex 1.6072 4.73465 6
    endloop
  endfacet
  facet normal 0 0 1
    outer loop
      vertex 36 21 6
      vertex 0.975451 4.90393 6
      vertex 1.2941 4.82963 6
    endloop
  endfacet
  facet normal 0 0 1
    outer loop
      vertex 36 21 6
      vertex 0.652631 4.95722 6
      vertex 0.975451 4.90393 6
    endloop
  endfacet
  facet normal 0 0 1
    outer loop
      vertex 36 21 6
      vertex 0.327015 4.98929 6
      vertex 0.652631 4.95722 6
    endloop
  endfacet
  facet normal 0 0 1
    outer loop
      vertex 36 21 6
      vertex 0 5 6
      vertex 0.327015 4.98929 6
    endloop
  endfacet
  facet normal -0 0 1
    outer loop
      vertex -36 21 6
      vertex 0 5 6
      vertex 36 21 6
    endloop
  endfacet
  facet normal 0 0 1
    outer loop
      vertex 0 5 6
      vertex -36 21 6
      vertex -0.327015 4.98929 6
    endloop
  endfacet
  facet normal 0 0 1
    outer loop
      vertex -0.327015 4.98929 6
      vertex -36 21 6
      vertex -0.652631 4.95722 6
    endloop
  endfacet
  facet normal 0 0 1
    outer loop
      vertex -0.652631 4.95722 6
      vertex -36 21 6
      vertex -0.975451 4.90393 6
    endloop
  endfacet
  facet normal 0 0 1
    outer loop
      vertex -0.975451 4.90393 6
      vertex -36 21 6
      vertex -1.2941 4.82963 6
    endloop
  endfacet
  facet normal 0 0 1
    outer loop
      vertex -1.2941 4.82963 6
      vertex -36 21 6
      vertex -1.6072 4.73465 6
    endloop
  endfacet
  facet normal 0 0 1
    outer loop
      vertex -4.98929 0.327015 6
      vertex -36 21 6
      vertex -5 0 6
    endloop
  endfacet
  facet normal 0 0 1
    outer loop
      vertex -4.95722 0.652631 6
      vertex -36 21 6
      vertex -4.98929 0.327015 6
    endloop
  endfacet
  facet normal 0 0 1
    outer loop
      vertex -4.90393 0.975451 6
      vertex -36 21 6
      vertex -4.95722 0.652631 6
    endloop
  endfacet
  facet normal 0 0 1
    outer loop
      vertex -4.82963 1.2941 6
      vertex -36 21 6
      vertex -4.90393 0.975451 6
    endloop
  endfacet
  facet normal 0 0 1
    outer loop
      vertex -4.73465 1.6072 6
      vertex -36 21 6
      vertex -4.82963 1.2941 6
    endloop
  endfacet
  facet normal 0 0 1
    outer loop
      vertex -4.6194 1.91342 6
      vertex -36 21 6
      vertex -4.73465 1.6072 6
    endloop
  endfacet
  facet normal 0 0 1
    outer loop
      vertex -4.48436 2.21144 6
      vertex -36 21 6
      vertex -4.6194 1.91342 6
    endloop
  endfacet
  facet normal 0 0 1
    outer loop
      vertex -4.33013 2.5 6
      vertex -36 21 6
      vertex -4.48436 2.21144 6
    endloop
  endfacet
  facet normal 0 0 1
    outer loop
      vertex -4.15735 2.77785 6
      vertex -36 21 6
      vertex -4.33013 2.5 6
    endloop
  endfacet
  facet normal 0 0 1
    outer loop
      vertex -3.96677 3.04381 6
      vertex -36 21 6
      vertex -4.15735 2.77785 6
    endloop
  endfacet
  facet normal 0 0 1
    outer loop
      vertex -3.7592 3.29673 6
      vertex -36 21 6
      vertex -3.96677 3.04381 6
    endloop
  endfacet
  facet normal 0 0 1
    outer loop
      vertex -3.53553 3.53553 6
      vertex -36 21 6
      vertex -3.7592 3.29673 6
    endloop
  endfacet
  facet normal 0 0 1
    outer loop
      vertex -3.29673 3.7592 6
      vertex -36 21 6
      vertex -3.53553 3.53553 6
    endloop
  endfacet
  facet normal 0 0 1
    outer loop
      vertex -3.04381 3.96677 6
      vertex -36 21 6
      vertex -3.29673 3.7592 6
    endloop
  endfacet
  facet normal 0 0 1
    outer loop
      vertex -2.77785 4.15735 6
      vertex -36 21 6
      vertex -3.04381 3.96677 6
    endloop
  endfacet
  facet normal 0 0 1
    outer loop
      vertex -2.5 4.33013 6
      vertex -36 21 6
      vertex -2.77785 4.15735 6
    endloop
  endfacet
  facet normal 0 0 1
    outer loop
      vertex -2.21144 4.48436 6
      vertex -36 21 6
      vertex -2.5 4.33013 6
    endloop
  endfacet
  facet normal 0 0 1
    outer loop
      vertex -1.91342 4.6194 6
      vertex -36 21 6
      vertex -2.21144 4.48436 6
    endloop
  endfacet
  facet normal 0 0 1
    outer loop
      vertex -1.6072 4.73465 6
      vertex -36 21 6
      vertex -1.91342 4.6194 6
    endloop
  endfacet
  facet normal -0 0 1
    outer loop
      vertex 4.98929 -0.327015 6
      vertex 36 -21 6
      vertex 5 0 6
    endloop
  endfacet
  facet normal -0 0 1
    outer loop
      vertex 4.95722 -0.652631 6
      vertex 36 -21 6
      vertex 4.98929 -0.327015 6
    endloop
  endfacet
  facet normal -0 0 1
    outer loop
      vertex 4.90393 -0.975451 6
      vertex 36 -21 6
      vertex 4.95722 -0.652631 6
    endloop
  endfacet
  facet normal -0 0 1
    outer loop
      vertex 4.82963 -1.2941 6
      vertex 36 -21 6
      vertex 4.90393 -0.975451 6
    endloop
  endfacet
  facet normal -0 0 1
    outer loop
      vertex 4.73465 -1.6072 6
      vertex 36 -21 6
      vertex 4.82963 -1.2941 6
    endloop
  endfacet
  facet normal -0 0 1
    outer loop
      vertex 4.6194 -1.91342 6
      vertex 36 -21 6
      vertex 4.73465 -1.6072 6
    endloop
  endfacet
  facet normal -0 0 1
    outer loop
      vertex 4.48436 -2.21144 6
      vertex 36 -21 6
      vertex 4.6194 -1.91342 6
    endloop
  endfacet
  facet normal -0 0 1
    outer loop
      vertex 4.33013 -2.5 6
      vertex 36 -21 6
      vertex 4.48436 -2.21144 6
    endloop
  endfacet
  facet normal -0 0 1
    outer loop
      vertex 4.15735 -2.77785 6
      vertex 36 -21 6
      vertex 4.33013 -2.5 6
    endloop
  endfacet
  facet normal -0 0 1
    outer loop
      vertex 3.96677 -3.04381 6
      vertex 36 -21 6
      vertex 4.15735 -2.77785 6
    endloop
  endfacet
  facet normal -0 0 1
    outer loop
      vertex 3.7592 -3.29673 6
      vertex 36 -21 6
      vertex 3.96677 -3.04381 6
    endloop
  endfacet
  facet normal -0 0 1
    outer loop
      vertex 3.53553 -3.53553 6
      vertex 36 -21 6
      vertex 3.7592 -3.29673 6
    endloop
  endfacet
  facet normal -0 0 1
    outer loop
      vertex 3.29673 -3.7592 6
      vertex 36 -21 6
      vertex 3.53553 -3.53553 6
    endloop
  endfacet
  facet normal -0 0 1
    outer loop
      vertex 3.04381 -3.96677 6
      vertex 36 -21 6
      vertex 3.29673 -3.7592 6
    endloop
  endfacet
  facet normal -0 0 1
    outer loop
      vertex 2.77785 -4.15735 6
      vertex 36 -21 6
      vertex 3.04381 -3.96677 6
    endloop
  endfacet
  facet normal -0 0 1
    outer loop
      vertex 2.5 -4.33013 6
      vertex 36 -21 6
      vertex 2.77785 -4.15735 6
    endloop
  endfacet
  facet normal -0 0 1
    outer loop
      vertex 2.21144 -4.48436 6
      vertex 36 -21 6
      vertex 2.5 -4.33013 6
    endloop
  endfacet
  facet normal -0 0 1
    outer loop
      vertex 1.91342 -4.6194 6
      vertex 36 -21 6
      vertex 2.21144 -4.48436 6
    endloop
  endfacet
  facet normal -0 0 1
    outer loop
      vertex 1.6072 -4.73465 6
      vertex 36 -21 6
      vertex 1.91342 -4.6194 6
    endloop
  endfacet
  facet normal -0 0 1
    outer loop
      vertex 1.2941 -4.82963 6
      vertex 36 -21 6
      vertex 1.6072 -4.73465 6
    endloop
  endfacet
  facet normal -0 0 1
    outer loop
      vertex 0.975451 -4.90393 6
      vertex 36 -21 6
      vertex 1.2941 -4.82963 6
    endloop
  endfacet
  facet normal -0 0 1
    outer loop
      vertex 0.652631 -4.95722 6
      vertex 36 -21 6
      vertex 0.975451 -4.90393 6
    endloop
  endfacet
  facet normal -0 0 1
    outer loop
      vertex 0.327015 -4.98929 6
      vertex 36 -21 6
      vertex 0.652631 -4.95722 6
    endloop
  endfacet
  facet normal -0 0 1
    outer loop
      vertex 0 -5 6
      vertex 36 -21 6
      vertex 0.327015 -4.98929 6
    endloop
  endfacet
  facet normal 0 0 1
    outer loop
      vertex -36 -21 6
      vertex 0 -5 6
      vertex -0.327015 -4.98929 6
    endloop
  endfacet
  facet normal 0 0 1
    outer loop
      vertex -36 -21 6
      vertex -0.327015 -4.98929 6
      vertex -0.652631 -4.95722 6
    endloop
  endfacet
  facet normal 0 0 1
    outer loop
      vertex -36 -21 6
      vertex -0.652631 -4.95722 6
      vertex -0.975451 -4.90393 6
    endloop
  endfacet
  facet normal 0 0 1
    outer loop
      vertex -36 -21 6
      vertex -0.975451 -4.90393 6
      vertex -1.2941 -4.82963 6
    endloop
  endfacet
  facet normal 0 0 1
    outer loop
      vertex -36 -21 6
      vertex -1.2941 -4.82963 6
      vertex -1.6072 -4.73465 6
    endloop
  endfacet
  facet normal 0 0 1
    outer loop
      vertex -36 -21 6
      vertex -1.6072 -4.73465 6
      vertex -1.91342 -4.6194 6
    endloop
  endfacet
  facet normal 0 0 1
    outer loop
      vertex -36 -21 6
      vertex -5 0 6
      vertex -36 21 6
    endloop
  endfacet
  facet normal 0 0 1
    outer loop
      vertex -5 0 6
      vertex -36 -21 6
      vertex -4.98929 -0.327015 6
    endloop
  endfacet
  facet normal 0 0 1
    outer loop
      vertex -4.98929 -0.327015 6
      vertex -36 -21 6
      vertex -4.95722 -0.652631 6
    endloop
  endfacet
  facet normal 0 0 1
    outer loop
      vertex -4.95722 -0.652631 6
      vertex -36 -21 6
      vertex -4.90393 -0.975451 6
    endloop
  endfacet
  facet normal 0 0 1
    outer loop
      vertex -4.90393 -0.975451 6
      vertex -36 -21 6
      vertex -4.82963 -1.2941 6
    endloop
  endfacet
  facet normal 0 0 1
    outer loop
      vertex -4.82963 -1.2941 6
      vertex -36 -21 6
      vertex -4.73465 -1.6072 6
    endloop
  endfacet
  facet normal 0 0 1
    outer loop
      vertex -4.73465 -1.6072 6
      vertex -36 -21 6
      vertex -4.6194 -1.91342 6
    endloop
  endfacet
  facet normal 0 0 1
    outer loop
      vertex -4.6194 -1.91342 6
      vertex -36 -21 6
      vertex -4.48436 -2.21144 6
    endloop
  endfacet
  facet normal 0 0 1
    outer loop
      vertex -4.48436 -2.21144 6
      vertex -36 -21 6
      vertex -4.33013 -2.5 6
    endloop
  endfacet
  facet normal 0 0 1
    outer loop
      vertex -4.33013 -2.5 6
      vertex -36 -21 6
      vertex -4.15735 -2.77785 6
    endloop
  endfacet
  facet normal 0 0 1
    outer loop
      vertex -4.15735 -2.77785 6
      vertex -36 -21 6
      vertex -3.96677 -3.04381 6
    endloop
  endfacet
  facet normal 0 0 1
    outer loop
      vertex -3.96677 -3.04381 6
      vertex -36 -21 6
      vertex -3.7592 -3.29673 6
    endloop
  endfacet
  facet normal 0 0 1
    outer loop
      vertex -3.7592 -3.29673 6
      vertex -36 -21 6
      vertex -3.53553 -3.53553 6
    endloop
  endfacet
  facet normal 0 0 1
    outer loop
      vertex -3.53553 -3.53553 6
      vertex -36 -21 6
      vertex -3.29673 -3.7592 6
    endloop
  endfacet
  facet normal 0 0 1
    outer loop
      vertex 0 -5 6
      vertex -36 -21 6
      vertex 36 -21 6
    endloop
  endfacet
  facet normal 0 0 1
    outer loop
      vertex -2.21144 -4.48436 6
      vertex -36 -21 6
      vertex -1.91342 -4.6194 6
    endloop
  endfacet
  facet normal 0 0 1
    outer loop
      vertex -2.5 -4.33013 6
      vertex -36 -21 6
      vertex -2.21144 -4.48436 6
    endloop
  endfacet
  facet normal 0 0 1
    outer loop
      vertex -2.77785 -4.15735 6
      vertex -36 -21 6
      vertex -2.5 -4.33013 6
    endloop
  endfacet
  facet normal 0 0 1
    outer loop
      vertex -3.04381 -3.96677 6
      vertex -36 -21 6
      vertex -2.77785 -4.15735 6
    endloop
  endfacet
  facet normal 0 0 1
    outer loop
      vertex -3.29673 -3.7592 6
      vertex -36 -21 6
      vertex -3.04381 -3.96677 6
    endloop
  endfacet
  facet normal -1 0 0
    outer loop
      vertex -36 -21 0
      vertex -36 21 6
      vertex -36 21 0
    endloop
  endfacet
  facet normal -1 -0 0
    outer loop
      vertex -36 21 6
      vertex -36 -21 0
      vertex -36 -21 6
    endloop
  endfacet
  facet normal 0 1 -0
    outer loop
      vertex 36 21 0
      vertex -36 21 6
      vertex 36 21 6
    endloop
  endfacet
  facet normal 0 1 0
    outer loop
      vertex -36 21 6
      vertex 36 21 0
      vertex -36 21 0
    endloop
  endfacet
  facet normal -0.995185 -0.098016 0
    outer loop
      vertex 4.98929 0.327015 0
      vertex 4.95722 0.652631 6
      vertex 4.95722 0.652631 0
    endloop
  endfacet
  facet normal -0.995185 -0.098016 0
    outer loop
      vertex 4.95722 0.652631 6
      vertex 4.98929 0.327015 0
      vertex 4.98929 0.327015 6
    endloop
  endfacet
  facet normal -0.999464 -0.0327332 0
    outer loop
      vertex 5 0 0
      vertex 4.98929 0.327015 6
      vertex 4.98929 0.327015 0
    endloop
  endfacet
  facet normal -0.999464 -0.0327332 0
    outer loop
      vertex 4.98929 0.327015 6
      vertex 5 0 0
      vertex 5 0 6
    endloop
  endfacet
  facet normal -0.227081 0.973876 0
    outer loop
      vertex 1.2941 -4.82963 0
      vertex 0.975451 -4.90393 6
      vertex 1.2941 -4.82963 6
    endloop
  endfacet
  facet normal -0.227081 0.973876 0
    outer loop
      vertex 0.975451 -4.90393 6
      vertex 1.2941 -4.82963 0
      vertex 0.975451 -4.90393 0
    endloop
  endfacet
  facet normal 0.6344 -0.773005 0
    outer loop
      vertex -3.29673 3.7592 0
      vertex -3.04381 3.96677 6
      vertex -3.29673 3.7592 6
    endloop
  endfacet
  facet normal 0.6344 -0.773005 0
    outer loop
      vertex -3.04381 3.96677 6
      vertex -3.29673 3.7592 0
      vertex -3.04381 3.96677 0
    endloop
  endfacet
  facet normal -0.528072 0.8492 0
    outer loop
      vertex 2.77785 -4.15735 0
      vertex 2.5 -4.33013 6
      vertex 2.77785 -4.15735 6
    endloop
  endfacet
  facet normal -0.528072 0.8492 0
    outer loop
      vertex 2.5 -4.33013 6
      vertex 2.77785 -4.15735 0
      vertex 2.5 -4.33013 0
    endloop
  endfacet
  facet normal -0.935909 0.352242 0
    outer loop
      vertex 4.6194 -1.91342 0
      vertex 4.73465 -1.6072 6
      vertex 4.73465 -1.6072 0
    endloop
  endfacet
  facet normal -0.935909 0.352242 0
    outer loop
      vertex 4.73465 -1.6072 6
      vertex 4.6194 -1.91342 0
      vertex 4.6194 -1.91342 6
    endloop
  endfacet
  facet normal -0.0327332 -0.999464 0
    outer loop
      vertex 0 5 0
      vertex 0.327015 4.98929 6
      vertex 0 5 6
    endloop
  endfacet
  facet normal -0.0327332 -0.999464 -0
    outer loop
      vertex 0.327015 4.98929 6
      vertex 0 5 0
      vertex 0.327015 4.98929 0
    endloop
  endfacet
  facet normal 0.812853 -0.582469 0
    outer loop
      vertex -4.15735 2.77785 6
      vertex -3.96677 3.04381 0
      vertex -3.96677 3.04381 6
    endloop
  endfacet
  facet normal 0.812853 -0.582469 0
    outer loop
      vertex -3.96677 3.04381 0
      vertex -4.15735 2.77785 6
      vertex -4.15735 2.77785 0
    endloop
  endfacet
  facet normal 0.910854 0.41273 0
    outer loop
      vertex -4.48436 -2.21144 6
      vertex -4.6194 -1.91342 0
      vertex -4.6194 -1.91342 6
    endloop
  endfacet
  facet normal 0.910854 0.41273 0
    outer loop
      vertex -4.6194 -1.91342 0
      vertex -4.48436 -2.21144 6
      vertex -4.48436 -2.21144 0
    endloop
  endfacet
  facet normal -0.6344 -0.773005 0
    outer loop
      vertex 3.04381 3.96677 0
      vertex 3.29673 3.7592 6
      vertex 3.04381 3.96677 6
    endloop
  endfacet
  facet normal -0.6344 -0.773005 -0
    outer loop
      vertex 3.29673 3.7592 6
      vertex 3.04381 3.96677 0
      vertex 3.29673 3.7592 0
    endloop
  endfacet
  facet normal -0.162872 0.986647 0
    outer loop
      vertex 0.975451 -4.90393 0
      vertex 0.652631 -4.95722 6
      vertex 0.975451 -4.90393 6
    endloop
  endfacet
  facet normal -0.162872 0.986647 0
    outer loop
      vertex 0.652631 -4.95722 6
      vertex 0.975451 -4.90393 0
      vertex 0.652631 -4.95722 0
    endloop
  endfacet
  facet normal -0.973876 -0.227081 0
    outer loop
      vertex 4.90393 0.975451 0
      vertex 4.82963 1.2941 6
      vertex 4.82963 1.2941 0
    endloop
  endfacet
  facet normal -0.973876 -0.227081 0
    outer loop
      vertex 4.82963 1.2941 6
      vertex 4.90393 0.975451 0
      vertex 4.90393 0.975451 6
    endloop
  endfacet
  facet normal -0.935909 -0.352242 0
    outer loop
      vertex 4.73465 1.6072 0
      vertex 4.6194 1.91342 6
      vertex 4.6194 1.91342 0
    endloop
  endfacet
  facet normal -0.935909 -0.352242 0
    outer loop
      vertex 4.6194 1.91342 6
      vertex 4.73465 1.6072 0
      vertex 4.73465 1.6072 6
    endloop
  endfacet
  facet normal -0.6344 0.773005 0
    outer loop
      vertex 3.29673 -3.7592 0
      vertex 3.04381 -3.96677 6
      vertex 3.29673 -3.7592 6
    endloop
  endfacet
  facet normal -0.6344 0.773005 0
    outer loop
      vertex 3.04381 -3.96677 6
      vertex 3.29673 -3.7592 0
      vertex 3.04381 -3.96677 0
    endloop
  endfacet
  facet normal 0.352242 -0.935909 0
    outer loop
      vertex -1.91342 4.6194 0
      vertex -1.6072 4.73465 6
      vertex -1.91342 4.6194 6
    endloop
  endfacet
  facet normal 0.352242 -0.935909 0
    outer loop
      vertex -1.6072 4.73465 6
      vertex -1.91342 4.6194 0
      vertex -1.6072 4.73465 0
    endloop
  endfacet
  facet normal -0.812853 0.582469 0
    outer loop
      vertex 3.96677 -3.04381 0
      vertex 4.15735 -2.77785 6
      vertex 4.15735 -2.77785 0
    endloop
  endfacet
  facet normal -0.812853 0.582469 0
    outer loop
      vertex 4.15735 -2.77785 6
      vertex 3.96677 -3.04381 0
      vertex 3.96677 -3.04381 6
    endloop
  endfacet
  facet normal 0.773005 0.6344 0
    outer loop
      vertex -3.7592 -3.29673 6
      vertex -3.96677 -3.04381 0
      vertex -3.96677 -3.04381 6
    endloop
  endfacet
  facet normal 0.773005 0.6344 0
    outer loop
      vertex -3.96677 -3.04381 0
      vertex -3.7592 -3.29673 6
      vertex -3.7592 -3.29673 0
    endloop
  endfacet
  facet normal -0.582469 -0.812853 0
    outer loop
      vertex 2.77785 4.15735 0
      vertex 3.04381 3.96677 6
      vertex 2.77785 4.15735 6
    endloop
  endfacet
  facet normal -0.582469 -0.812853 -0
    outer loop
      vertex 3.04381 3.96677 6
      vertex 2.77785 4.15735 0
      vertex 3.04381 3.96677 0
    endloop
  endfacet
  facet normal 0.8492 0.528072 0
    outer loop
      vertex -4.15735 -2.77785 6
      vertex -4.33013 -2.5 0
      vertex -4.33013 -2.5 6
    endloop
  endfacet
  facet normal 0.8492 0.528072 0
    outer loop
      vertex -4.33013 -2.5 0
      vertex -4.15735 -2.77785 6
      vertex -4.15735 -2.77785 0
    endloop
  endfacet
  facet normal 0.098016 0.995185 -0
    outer loop
      vertex -0.327015 -4.98929 0
      vertex -0.652631 -4.95722 6
      vertex -0.327015 -4.98929 6
    endloop
  endfacet
  facet normal 0.098016 0.995185 0
    outer loop
      vertex -0.652631 -4.95722 6
      vertex -0.327015 -4.98929 0
      vertex -0.652631 -4.95722 0
    endloop
  endfacet
  facet normal 0.935909 0.352242 0
    outer loop
      vertex -4.6194 -1.91342 6
      vertex -4.73465 -1.6072 0
      vertex -4.73465 -1.6072 6
    endloop
  endfacet
  facet normal 0.935909 0.352242 0
    outer loop
      vertex -4.73465 -1.6072 0
      vertex -4.6194 -1.91342 6
      vertex -4.6194 -1.91342 0
    endloop
  endfacet
  facet normal 0.956939 0.290291 0
    outer loop
      vertex -4.73465 -1.6072 6
      vertex -4.82963 -1.2941 0
      vertex -4.82963 -1.2941 6
    endloop
  endfacet
  facet normal 0.956939 0.290291 0
    outer loop
      vertex -4.82963 -1.2941 0
      vertex -4.73465 -1.6072 6
      vertex -4.73465 -1.6072 0
    endloop
  endfacet
  facet normal 0.162872 0.986647 -0
    outer loop
      vertex -0.652631 -4.95722 0
      vertex -0.975451 -4.90393 6
      vertex -0.652631 -4.95722 6
    endloop
  endfacet
  facet normal 0.162872 0.986647 0
    outer loop
      vertex -0.975451 -4.90393 6
      vertex -0.652631 -4.95722 0
      vertex -0.975451 -4.90393 0
    endloop
  endfacet
  facet normal -0.986647 -0.162872 0
    outer loop
      vertex 4.95722 0.652631 0
      vertex 4.90393 0.975451 6
      vertex 4.90393 0.975451 0
    endloop
  endfacet
  facet normal -0.986647 -0.162872 0
    outer loop
      vertex 4.90393 0.975451 6
      vertex 4.95722 0.652631 0
      vertex 4.95722 0.652631 6
    endloop
  endfacet
  facet normal -0.41273 -0.910854 0
    outer loop
      vertex 1.91342 4.6194 0
      vertex 2.21144 4.48436 6
      vertex 1.91342 4.6194 6
    endloop
  endfacet
  facet normal -0.41273 -0.910854 -0
    outer loop
      vertex 2.21144 4.48436 6
      vertex 1.91342 4.6194 0
      vertex 2.21144 4.48436 0
    endloop
  endfacet
  facet normal -0.41273 0.910854 0
    outer loop
      vertex 2.21144 -4.48436 0
      vertex 1.91342 -4.6194 6
      vertex 2.21144 -4.48436 6
    endloop
  endfacet
  facet normal -0.41273 0.910854 0
    outer loop
      vertex 1.91342 -4.6194 6
      vertex 2.21144 -4.48436 0
      vertex 1.91342 -4.6194 0
    endloop
  endfacet
  facet normal 0.290291 -0.956939 0
    outer loop
      vertex -1.6072 4.73465 0
      vertex -1.2941 4.82963 6
      vertex -1.6072 4.73465 6
    endloop
  endfacet
  facet normal 0.290291 -0.956939 0
    outer loop
      vertex -1.2941 4.82963 6
      vertex -1.6072 4.73465 0
      vertex -1.2941 4.82963 0
    endloop
  endfacet
  facet normal -0.72985 -0.683608 0
    outer loop
      vertex 3.7592 3.29673 0
      vertex 3.53553 3.53553 6
      vertex 3.53553 3.53553 0
    endloop
  endfacet
  facet normal -0.72985 -0.683608 0
    outer loop
      vertex 3.53553 3.53553 6
      vertex 3.7592 3.29673 0
      vertex 3.7592 3.29673 6
    endloop
  endfacet
  facet normal -0.528072 -0.8492 0
    outer loop
      vertex 2.5 4.33013 0
      vertex 2.77785 4.15735 6
      vertex 2.5 4.33013 6
    endloop
  endfacet
  facet normal -0.528072 -0.8492 -0
    outer loop
      vertex 2.77785 4.15735 6
      vertex 2.5 4.33013 0
      vertex 2.77785 4.15735 0
    endloop
  endfacet
  facet normal 0.910854 -0.41273 0
    outer loop
      vertex -4.6194 1.91342 6
      vertex -4.48436 2.21144 0
      vertex -4.48436 2.21144 6
    endloop
  endfacet
  facet normal 0.910854 -0.41273 0
    outer loop
      vertex -4.48436 2.21144 0
      vertex -4.6194 1.91342 6
      vertex -4.6194 1.91342 0
    endloop
  endfacet
  facet normal -0.956939 0.290291 0
    outer loop
      vertex 4.73465 -1.6072 0
      vertex 4.82963 -1.2941 6
      vertex 4.82963 -1.2941 0
    endloop
  endfacet
  facet normal -0.956939 0.290291 0
    outer loop
      vertex 4.82963 -1.2941 6
      vertex 4.73465 -1.6072 0
      vertex 4.73465 -1.6072 6
    endloop
  endfacet
  facet normal 0.881932 0.471376 0
    outer loop
      vertex -4.33013 -2.5 6
      vertex -4.48436 -2.21144 0
      vertex -4.48436 -2.21144 6
    endloop
  endfacet
  facet normal 0.881932 0.471376 0
    outer loop
      vertex -4.48436 -2.21144 0
      vertex -4.33013 -2.5 6
      vertex -4.33013 -2.5 0
    endloop
  endfacet
  facet normal 0.582469 0.812853 -0
    outer loop
      vertex -2.77785 -4.15735 0
      vertex -3.04381 -3.96677 6
      vertex -2.77785 -4.15735 6
    endloop
  endfacet
  facet normal 0.582469 0.812853 0
    outer loop
      vertex -3.04381 -3.96677 6
      vertex -2.77785 -4.15735 0
      vertex -3.04381 -3.96677 0
    endloop
  endfacet
  facet normal 0.999464 0.0327332 0
    outer loop
      vertex -4.98929 -0.327015 6
      vertex -5 0 0
      vertex -5 0 6
    endloop
  endfacet
  facet normal 0.999464 0.0327332 0
    outer loop
      vertex -5 0 0
      vertex -4.98929 -0.327015 6
      vertex -4.98929 -0.327015 0
    endloop
  endfacet
  facet normal -0.910854 0.41273 0
    outer loop
      vertex 4.48436 -2.21144 0
      vertex 4.6194 -1.91342 6
      vertex 4.6194 -1.91342 0
    endloop
  endfacet
  facet normal -0.910854 0.41273 0
    outer loop
      vertex 4.6194 -1.91342 6
      vertex 4.48436 -2.21144 0
      vertex 4.48436 -2.21144 6
    endloop
  endfacet
  facet normal 0.6344 0.773005 -0
    outer loop
      vertex -3.04381 -3.96677 0
      vertex -3.29673 -3.7592 6
      vertex -3.04381 -3.96677 6
    endloop
  endfacet
  facet normal 0.6344 0.773005 0
    outer loop
      vertex -3.29673 -3.7592 6
      vertex -3.04381 -3.96677 0
      vertex -3.29673 -3.7592 0
    endloop
  endfacet
  facet normal 0.995185 -0.098016 0
    outer loop
      vertex -4.98929 0.327015 6
      vertex -4.95722 0.652631 0
      vertex -4.95722 0.652631 6
    endloop
  endfacet
  facet normal 0.995185 -0.098016 0
    outer loop
      vertex -4.95722 0.652631 0
      vertex -4.98929 0.327015 6
      vertex -4.98929 0.327015 0
    endloop
  endfacet
  facet normal -0.0327332 0.999464 0
    outer loop
      vertex 0.327015 -4.98929 0
      vertex 0 -5 6
      vertex 0.327015 -4.98929 6
    endloop
  endfacet
  facet normal -0.0327332 0.999464 0
    outer loop
      vertex 0 -5 6
      vertex 0.327015 -4.98929 0
      vertex 0 -5 0
    endloop
  endfacet
  facet normal 0.098016 -0.995185 0
    outer loop
      vertex -0.652631 4.95722 0
      vertex -0.327015 4.98929 6
      vertex -0.652631 4.95722 6
    endloop
  endfacet
  facet normal 0.098016 -0.995185 0
    outer loop
      vertex -0.327015 4.98929 6
      vertex -0.652631 4.95722 0
      vertex -0.327015 4.98929 0
    endloop
  endfacet
  facet normal 0.973876 0.227081 0
    outer loop
      vertex -4.82963 -1.2941 6
      vertex -4.90393 -0.975451 0
      vertex -4.90393 -0.975451 6
    endloop
  endfacet
  facet normal 0.973876 0.227081 0
    outer loop
      vertex -4.90393 -0.975451 0
      vertex -4.82963 -1.2941 6
      vertex -4.82963 -1.2941 0
    endloop
  endfacet
  facet normal -0.8492 -0.528072 0
    outer loop
      vertex 4.33013 2.5 0
      vertex 4.15735 2.77785 6
      vertex 4.15735 2.77785 0
    endloop
  endfacet
  facet normal -0.8492 -0.528072 0
    outer loop
      vertex 4.15735 2.77785 6
      vertex 4.33013 2.5 0
      vertex 4.33013 2.5 6
    endloop
  endfacet
  facet normal 0.986647 -0.162872 0
    outer loop
      vertex -4.95722 0.652631 6
      vertex -4.90393 0.975451 0
      vertex -4.90393 0.975451 6
    endloop
  endfacet
  facet normal 0.986647 -0.162872 0
    outer loop
      vertex -4.90393 0.975451 0
      vertex -4.95722 0.652631 6
      vertex -4.95722 0.652631 0
    endloop
  endfacet
  facet normal 0.162872 -0.986647 0
    outer loop
      vertex -0.975451 4.90393 0
      vertex -0.652631 4.95722 6
      vertex -0.975451 4.90393 6
    endloop
  endfacet
  facet normal 0.162872 -0.986647 0
    outer loop
      vertex -0.652631 4.95722 6
      vertex -0.975451 4.90393 0
      vertex -0.652631 4.95722 0
    endloop
  endfacet
  facet normal -0.881932 0.471376 0
    outer loop
      vertex 4.33013 -2.5 0
      vertex 4.48436 -2.21144 6
      vertex 4.48436 -2.21144 0
    endloop
  endfacet
  facet normal -0.881932 0.471376 0
    outer loop
      vertex 4.48436 -2.21144 6
      vertex 4.33013 -2.5 0
      vertex 4.33013 -2.5 6
    endloop
  endfacet
  facet normal -0.999464 0.0327332 0
    outer loop
      vertex 4.98929 -0.327015 0
      vertex 5 0 6
      vertex 5 0 0
    endloop
  endfacet
  facet normal -0.999464 0.0327332 0
    outer loop
      vertex 5 0 6
      vertex 4.98929 -0.327015 0
      vertex 4.98929 -0.327015 6
    endloop
  endfacet
  facet normal -0.956939 -0.290291 0
    outer loop
      vertex 4.82963 1.2941 0
      vertex 4.73465 1.6072 6
      vertex 4.73465 1.6072 0
    endloop
  endfacet
  facet normal -0.956939 -0.290291 0
    outer loop
      vertex 4.73465 1.6072 6
      vertex 4.82963 1.2941 0
      vertex 4.82963 1.2941 6
    endloop
  endfacet
  facet normal -0.910854 -0.41273 0
    outer loop
      vertex 4.6194 1.91342 0
      vertex 4.48436 2.21144 6
      vertex 4.48436 2.21144 0
    endloop
  endfacet
  facet normal -0.910854 -0.41273 0
    outer loop
      vertex 4.48436 2.21144 6
      vertex 4.6194 1.91342 0
      vertex 4.6194 1.91342 6
    endloop
  endfacet
  facet normal -0.098016 -0.995185 0
    outer loop
      vertex 0.327015 4.98929 0
      vertex 0.652631 4.95722 6
      vertex 0.327015 4.98929 6
    endloop
  endfacet
  facet normal -0.098016 -0.995185 -0
    outer loop
      vertex 0.652631 4.95722 6
      vertex 0.327015 4.98929 0
      vertex 0.652631 4.95722 0
    endloop
  endfacet
  facet normal -0.683608 -0.72985 0
    outer loop
      vertex 3.29673 3.7592 0
      vertex 3.53553 3.53553 6
      vertex 3.29673 3.7592 6
    endloop
  endfacet
  facet normal -0.683608 -0.72985 -0
    outer loop
      vertex 3.53553 3.53553 6
      vertex 3.29673 3.7592 0
      vertex 3.53553 3.53553 0
    endloop
  endfacet
  facet normal -0.471376 -0.881932 0
    outer loop
      vertex 2.21144 4.48436 0
      vertex 2.5 4.33013 6
      vertex 2.21144 4.48436 6
    endloop
  endfacet
  facet normal -0.471376 -0.881932 -0
    outer loop
      vertex 2.5 4.33013 6
      vertex 2.21144 4.48436 0
      vertex 2.5 4.33013 0
    endloop
  endfacet
  facet normal 0.582469 -0.812853 0
    outer loop
      vertex -3.04381 3.96677 0
      vertex -2.77785 4.15735 6
      vertex -3.04381 3.96677 6
    endloop
  endfacet
  facet normal 0.582469 -0.812853 0
    outer loop
      vertex -2.77785 4.15735 6
      vertex -3.04381 3.96677 0
      vertex -2.77785 4.15735 0
    endloop
  endfacet
  facet normal -0.72985 0.683608 0
    outer loop
      vertex 3.53553 -3.53553 0
      vertex 3.7592 -3.29673 6
      vertex 3.7592 -3.29673 0
    endloop
  endfacet
  facet normal -0.72985 0.683608 0
    outer loop
      vertex 3.7592 -3.29673 6
      vertex 3.53553 -3.53553 0
      vertex 3.53553 -3.53553 6
    endloop
  endfacet
  facet normal -0.683608 0.72985 0
    outer loop
      vertex 3.53553 -3.53553 0
      vertex 3.29673 -3.7592 6
      vertex 3.53553 -3.53553 6
    endloop
  endfacet
  facet normal -0.683608 0.72985 0
    outer loop
      vertex 3.29673 -3.7592 6
      vertex 3.53553 -3.53553 0
      vertex 3.29673 -3.7592 0
    endloop
  endfacet
  facet normal 0.528072 -0.8492 0
    outer loop
      vertex -2.77785 4.15735 0
      vertex -2.5 4.33013 6
      vertex -2.77785 4.15735 6
    endloop
  endfacet
  facet normal 0.528072 -0.8492 0
    outer loop
      vertex -2.5 4.33013 6
      vertex -2.77785 4.15735 0
      vertex -2.5 4.33013 0
    endloop
  endfacet
  facet normal 0.986647 0.162872 0
    outer loop
      vertex -4.90393 -0.975451 6
      vertex -4.95722 -0.652631 0
      vertex -4.95722 -0.652631 6
    endloop
  endfacet
  facet normal 0.986647 0.162872 0
    outer loop
      vertex -4.95722 -0.652631 0
      vertex -4.90393 -0.975451 6
      vertex -4.90393 -0.975451 0
    endloop
  endfacet
  facet normal -0.881932 -0.471376 0
    outer loop
      vertex 4.48436 2.21144 0
      vertex 4.33013 2.5 6
      vertex 4.33013 2.5 0
    endloop
  endfacet
  facet normal -0.881932 -0.471376 0
    outer loop
      vertex 4.33013 2.5 6
      vertex 4.48436 2.21144 0
      vertex 4.48436 2.21144 6
    endloop
  endfacet
  facet normal 0.935909 -0.352242 0
    outer loop
      vertex -4.73465 1.6072 6
      vertex -4.6194 1.91342 0
      vertex -4.6194 1.91342 6
    endloop
  endfacet
  facet normal 0.935909 -0.352242 0
    outer loop
      vertex -4.6194 1.91342 0
      vertex -4.73465 1.6072 6
      vertex -4.73465 1.6072 0
    endloop
  endfacet
  facet normal -0.162872 -0.986647 0
    outer loop
      vertex 0.652631 4.95722 0
      vertex 0.975451 4.90393 6
      vertex 0.652631 4.95722 6
    endloop
  endfacet
  facet normal -0.162872 -0.986647 -0
    outer loop
      vertex 0.975451 4.90393 6
      vertex 0.652631 4.95722 0
      vertex 0.975451 4.90393 0
    endloop
  endfacet
  facet normal 0.290291 0.956939 -0
    outer loop
      vertex -1.2941 -4.82963 0
      vertex -1.6072 -4.73465 6
      vertex -1.2941 -4.82963 6
    endloop
  endfacet
  facet normal 0.290291 0.956939 0
    outer loop
      vertex -1.6072 -4.73465 6
      vertex -1.2941 -4.82963 0
      vertex -1.6072 -4.73465 0
    endloop
  endfacet
  facet normal 0.227081 0.973876 -0
    outer loop
      vertex -0.975451 -4.90393 0
      vertex -1.2941 -4.82963 6
      vertex -0.975451 -4.90393 6
    endloop
  endfacet
  facet normal 0.227081 0.973876 0
    outer loop
      vertex -1.2941 -4.82963 6
      vertex -0.975451 -4.90393 0
      vertex -1.2941 -4.82963 0
    endloop
  endfacet
  facet normal -0.352242 0.935909 0
    outer loop
      vertex 1.91342 -4.6194 0
      vertex 1.6072 -4.73465 6
      vertex 1.91342 -4.6194 6
    endloop
  endfacet
  facet normal -0.352242 0.935909 0
    outer loop
      vertex 1.6072 -4.73465 6
      vertex 1.91342 -4.6194 0
      vertex 1.6072 -4.73465 0
    endloop
  endfacet
  facet normal -0.290291 0.956939 0
    outer loop
      vertex 1.6072 -4.73465 0
      vertex 1.2941 -4.82963 6
      vertex 1.6072 -4.73465 6
    endloop
  endfacet
  facet normal -0.290291 0.956939 0
    outer loop
      vertex 1.2941 -4.82963 6
      vertex 1.6072 -4.73465 0
      vertex 1.2941 -4.82963 0
    endloop
  endfacet
  facet normal -0.773005 0.6344 0
    outer loop
      vertex 3.7592 -3.29673 0
      vertex 3.96677 -3.04381 6
      vertex 3.96677 -3.04381 0
    endloop
  endfacet
  facet normal -0.773005 0.6344 0
    outer loop
      vertex 3.96677 -3.04381 6
      vertex 3.7592 -3.29673 0
      vertex 3.7592 -3.29673 6
    endloop
  endfacet
  facet normal -0.352242 -0.935909 0
    outer loop
      vertex 1.6072 4.73465 0
      vertex 1.91342 4.6194 6
      vertex 1.6072 4.73465 6
    endloop
  endfacet
  facet normal -0.352242 -0.935909 -0
    outer loop
      vertex 1.91342 4.6194 6
      vertex 1.6072 4.73465 0
      vertex 1.91342 4.6194 0
    endloop
  endfacet
  facet normal -0.471376 0.881932 0
    outer loop
      vertex 2.5 -4.33013 0
      vertex 2.21144 -4.48436 6
      vertex 2.5 -4.33013 6
    endloop
  endfacet
  facet normal -0.471376 0.881932 0
    outer loop
      vertex 2.21144 -4.48436 6
      vertex 2.5 -4.33013 0
      vertex 2.21144 -4.48436 0
    endloop
  endfacet
  facet normal 0.812853 0.582469 0
    outer loop
      vertex -3.96677 -3.04381 6
      vertex -4.15735 -2.77785 0
      vertex -4.15735 -2.77785 6
    endloop
  endfacet
  facet normal 0.812853 0.582469 0
    outer loop
      vertex -4.15735 -2.77785 0
      vertex -3.96677 -3.04381 6
      vertex -3.96677 -3.04381 0
    endloop
  endfacet
  facet normal -0.098016 0.995185 0
    outer loop
      vertex 0.652631 -4.95722 0
      vertex 0.327015 -4.98929 6
      vertex 0.652631 -4.95722 6
    endloop
  endfacet
  facet normal -0.098016 0.995185 0
    outer loop
      vertex 0.327015 -4.98929 6
      vertex 0.652631 -4.95722 0
      vertex 0.327015 -4.98929 0
    endloop
  endfacet
  facet normal -0.973876 0.227081 0
    outer loop
      vertex 4.82963 -1.2941 0
      vertex 4.90393 -0.975451 6
      vertex 4.90393 -0.975451 0
    endloop
  endfacet
  facet normal -0.973876 0.227081 0
    outer loop
      vertex 4.90393 -0.975451 6
      vertex 4.82963 -1.2941 0
      vertex 4.82963 -1.2941 6
    endloop
  endfacet
  facet normal -0.995185 0.098016 0
    outer loop
      vertex 4.95722 -0.652631 0
      vertex 4.98929 -0.327015 6
      vertex 4.98929 -0.327015 0
    endloop
  endfacet
  facet normal -0.995185 0.098016 0
    outer loop
      vertex 4.98929 -0.327015 6
      vertex 4.95722 -0.652631 0
      vertex 4.95722 -0.652631 6
    endloop
  endfacet
  facet normal 0.881932 -0.471376 0
    outer loop
      vertex -4.48436 2.21144 6
      vertex -4.33013 2.5 0
      vertex -4.33013 2.5 6
    endloop
  endfacet
  facet normal 0.881932 -0.471376 0
    outer loop
      vertex -4.33013 2.5 0
      vertex -4.48436 2.21144 6
      vertex -4.48436 2.21144 0
    endloop
  endfacet
  facet normal 0.41273 0.910854 -0
    outer loop
      vertex -1.91342 -4.6194 0
      vertex -2.21144 -4.48436 6
      vertex -1.91342 -4.6194 6
    endloop
  endfacet
  facet normal 0.41273 0.910854 0
    outer loop
      vertex -2.21144 -4.48436 6
      vertex -1.91342 -4.6194 0
      vertex -2.21144 -4.48436 0
    endloop
  endfacet
  facet normal -0.812853 -0.582469 0
    outer loop
      vertex 4.15735 2.77785 0
      vertex 3.96677 3.04381 6
      vertex 3.96677 3.04381 0
    endloop
  endfacet
  facet normal -0.812853 -0.582469 0
    outer loop
      vertex 3.96677 3.04381 6
      vertex 4.15735 2.77785 0
      vertex 4.15735 2.77785 6
    endloop
  endfacet
  facet normal 0.352242 0.935909 -0
    outer loop
      vertex -1.6072 -4.73465 0
      vertex -1.91342 -4.6194 6
      vertex -1.6072 -4.73465 6
    endloop
  endfacet
  facet normal 0.352242 0.935909 0
    outer loop
      vertex -1.91342 -4.6194 6
      vertex -1.6072 -4.73465 0
      vertex -1.91342 -4.6194 0
    endloop
  endfacet
  facet normal 0.995185 0.098016 0
    outer loop
      vertex -4.95722 -0.652631 6
      vertex -4.98929 -0.327015 0
      vertex -4.98929 -0.327015 6
    endloop
  endfacet
  facet normal 0.995185 0.098016 0
    outer loop
      vertex -4.98929 -0.327015 0
      vertex -4.95722 -0.652631 6
      vertex -4.95722 -0.652631 0
    endloop
  endfacet
  facet normal 0.72985 -0.683608 0
    outer loop
      vertex -3.7592 3.29673 6
      vertex -3.53553 3.53553 0
      vertex -3.53553 3.53553 6
    endloop
  endfacet
  facet normal 0.72985 -0.683608 0
    outer loop
      vertex -3.53553 3.53553 0
      vertex -3.7592 3.29673 6
      vertex -3.7592 3.29673 0
    endloop
  endfacet
  facet normal 0.683608 -0.72985 0
    outer loop
      vertex -3.53553 3.53553 0
      vertex -3.29673 3.7592 6
      vertex -3.53553 3.53553 6
    endloop
  endfacet
  facet normal 0.683608 -0.72985 0
    outer loop
      vertex -3.29673 3.7592 6
      vertex -3.53553 3.53553 0
      vertex -3.29673 3.7592 0
    endloop
  endfacet
  facet normal 0.0327332 -0.999464 0
    outer loop
      vertex -0.327015 4.98929 0
      vertex 0 5 6
      vertex -0.327015 4.98929 6
    endloop
  endfacet
  facet normal 0.0327332 -0.999464 0
    outer loop
      vertex 0 5 6
      vertex -0.327015 4.98929 0
      vertex 0 5 0
    endloop
  endfacet
  facet normal 0.8492 -0.528072 0
    outer loop
      vertex -4.33013 2.5 6
      vertex -4.15735 2.77785 0
      vertex -4.15735 2.77785 6
    endloop
  endfacet
  facet normal 0.8492 -0.528072 0
    outer loop
      vertex -4.15735 2.77785 0
      vertex -4.33013 2.5 6
      vertex -4.33013 2.5 0
    endloop
  endfacet
  facet normal -0.8492 0.528072 0
    outer loop
      vertex 4.15735 -2.77785 0
      vertex 4.33013 -2.5 6
      vertex 4.33013 -2.5 0
    endloop
  endfacet
  facet normal -0.8492 0.528072 0
    outer loop
      vertex 4.33013 -2.5 6
      vertex 4.15735 -2.77785 0
      vertex 4.15735 -2.77785 6
    endloop
  endfacet
  facet normal 0.72985 0.683608 0
    outer loop
      vertex -3.53553 -3.53553 6
      vertex -3.7592 -3.29673 0
      vertex -3.7592 -3.29673 6
    endloop
  endfacet
  facet normal 0.72985 0.683608 0
    outer loop
      vertex -3.7592 -3.29673 0
      vertex -3.53553 -3.53553 6
      vertex -3.53553 -3.53553 0
    endloop
  endfacet
  facet normal 0.41273 -0.910854 0
    outer loop
      vertex -2.21144 4.48436 0
      vertex -1.91342 4.6194 6
      vertex -2.21144 4.48436 6
    endloop
  endfacet
  facet normal 0.41273 -0.910854 0
    outer loop
      vertex -1.91342 4.6194 6
      vertex -2.21144 4.48436 0
      vertex -1.91342 4.6194 0
    endloop
  endfacet
  facet normal -0.582469 0.812853 0
    outer loop
      vertex 3.04381 -3.96677 0
      vertex 2.77785 -4.15735 6
      vertex 3.04381 -3.96677 6
    endloop
  endfacet
  facet normal -0.582469 0.812853 0
    outer loop
      vertex 2.77785 -4.15735 6
      vertex 3.04381 -3.96677 0
      vertex 2.77785 -4.15735 0
    endloop
  endfacet
  facet normal 0.227081 -0.973876 0
    outer loop
      vertex -1.2941 4.82963 0
      vertex -0.975451 4.90393 6
      vertex -1.2941 4.82963 6
    endloop
  endfacet
  facet normal 0.227081 -0.973876 0
    outer loop
      vertex -0.975451 4.90393 6
      vertex -1.2941 4.82963 0
      vertex -0.975451 4.90393 0
    endloop
  endfacet
  facet normal 0.683608 0.72985 -0
    outer loop
      vertex -3.29673 -3.7592 0
      vertex -3.53553 -3.53553 6
      vertex -3.29673 -3.7592 6
    endloop
  endfacet
  facet normal 0.683608 0.72985 0
    outer loop
      vertex -3.53553 -3.53553 6
      vertex -3.29673 -3.7592 0
      vertex -3.53553 -3.53553 0
    endloop
  endfacet
  facet normal 0.773005 -0.6344 0
    outer loop
      vertex -3.96677 3.04381 6
      vertex -3.7592 3.29673 0
      vertex -3.7592 3.29673 6
    endloop
  endfacet
  facet normal 0.773005 -0.6344 0
    outer loop
      vertex -3.7592 3.29673 0
      vertex -3.96677 3.04381 6
      vertex -3.96677 3.04381 0
    endloop
  endfacet
  facet normal -0.986647 0.162872 0
    outer loop
      vertex 4.90393 -0.975451 0
      vertex 4.95722 -0.652631 6
      vertex 4.95722 -0.652631 0
    endloop
  endfacet
  facet normal -0.986647 0.162872 0
    outer loop
      vertex 4.95722 -0.652631 6
      vertex 4.90393 -0.975451 0
      vertex 4.90393 -0.975451 6
    endloop
  endfacet
  facet normal -0.773005 -0.6344 0
    outer loop
      vertex 3.96677 3.04381 0
      vertex 3.7592 3.29673 6
      vertex 3.7592 3.29673 0
    endloop
  endfacet
  facet normal -0.773005 -0.6344 0
    outer loop
      vertex 3.7592 3.29673 6
      vertex 3.96677 3.04381 0
      vertex 3.96677 3.04381 6
    endloop
  endfacet
  facet normal 0.0327332 0.999464 -0
    outer loop
      vertex 0 -5 0
      vertex -0.327015 -4.98929 6
      vertex 0 -5 6
    endloop
  endfacet
  facet normal 0.0327332 0.999464 0
    outer loop
      vertex -0.327015 -4.98929 6
      vertex 0 -5 0
      vertex -0.327015 -4.98929 0
    endloop
  endfacet
  facet normal 0.973876 -0.227081 0
    outer loop
      vertex -4.90393 0.975451 6
      vertex -4.82963 1.2941 0
      vertex -4.82963 1.2941 6
    endloop
  endfacet
  facet normal 0.973876 -0.227081 0
    outer loop
      vertex -4.82963 1.2941 0
      vertex -4.90393 0.975451 6
      vertex -4.90393 0.975451 0
    endloop
  endfacet
  facet normal 0.956939 -0.290291 0
    outer loop
      vertex -4.82963 1.2941 6
      vertex -4.73465 1.6072 0
      vertex -4.73465 1.6072 6
    endloop
  endfacet
  facet normal 0.956939 -0.290291 0
    outer loop
      vertex -4.73465 1.6072 0
      vertex -4.82963 1.2941 6
      vertex -4.82963 1.2941 0
    endloop
  endfacet
  facet normal 0.528072 0.8492 -0
    outer loop
      vertex -2.5 -4.33013 0
      vertex -2.77785 -4.15735 6
      vertex -2.5 -4.33013 6
    endloop
  endfacet
  facet normal 0.528072 0.8492 0
    outer loop
      vertex -2.77785 -4.15735 6
      vertex -2.5 -4.33013 0
      vertex -2.77785 -4.15735 0
    endloop
  endfacet
  facet normal 0.999464 -0.0327332 0
    outer loop
      vertex -5 0 6
      vertex -4.98929 0.327015 0
      vertex -4.98929 0.327015 6
    endloop
  endfacet
  facet normal 0.999464 -0.0327332 0
    outer loop
      vertex -4.98929 0.327015 0
      vertex -5 0 6
      vertex -5 0 0
    endloop
  endfacet
  facet normal -0.227081 -0.973876 0
    outer loop
      vertex 0.975451 4.90393 0
      vertex 1.2941 4.82963 6
      vertex 0.975451 4.90393 6
    endloop
  endfacet
  facet normal -0.227081 -0.973876 -0
    outer loop
      vertex 1.2941 4.82963 6
      vertex 0.975451 4.90393 0
      vertex 1.2941 4.82963 0
    endloop
  endfacet
  facet normal -0.290291 -0.956939 0
    outer loop
      vertex 1.2941 4.82963 0
      vertex 1.6072 4.73465 6
      vertex 1.2941 4.82963 6
    endloop
  endfacet
  facet normal -0.290291 -0.956939 -0
    outer loop
      vertex 1.6072 4.73465 6
      vertex 1.2941 4.82963 0
      vertex 1.6072 4.73465 0
    endloop
  endfacet
  facet normal 0.471376 -0.881932 0
    outer loop
      vertex -2.5 4.33013 0
      vertex -2.21144 4.48436 6
      vertex -2.5 4.33013 6
    endloop
  endfacet
  facet normal 0.471376 -0.881932 0
    outer loop
      vertex -2.21144 4.48436 6
      vertex -2.5 4.33013 0
      vertex -2.21144 4.48436 0
    endloop
  endfacet
  facet normal 0.471376 0.881932 -0
    outer loop
      vertex -2.21144 -4.48436 0
      vertex -2.5 -4.33013 6
      vertex -2.21144 -4.48436 6
    endloop
  endfacet
  facet normal 0.471376 0.881932 0
    outer loop
      vertex -2.5 -4.33013 6
      vertex -2.21144 -4.48436 0
      vertex -2.5 -4.33013 0
    endloop
  endfacet
endsolid OpenSCAD_Model
