  0
SECTION
  2
HEADER
  9
$ACADVER
  1
AC1009
  9
$INSBASE
 10
0.0
 20
0.0
 30
0.0
  9
$EXTMIN
 10
0.0
 20
0.0
 30
0.0
  9
$EXTMAX
 10
0.0
 20
0.0
 30
0.0
  0
ENDSEC
  0
SECTION
  2
TABLES
  0
TABLE
  2
VPORT
 70
0
  0
ENDTAB
  0
TABLE
  2
LTYPE
 70
1
  0
LTYPE
  2
CONTINUOUS
 70
0
  3
Solid line
 72
65
 73
0
 40
0.0
  0
ENDTAB
  0
TABLE
  2
LAYER
 70
1
  0
LAYER
  2
0
 70
64
 62
7
  6
continuous
  0
ENDTAB
  0
TABLE
  2
STYLE
 70
1
  0
STYLE
  2
STANDARD
 70
0
 40
0
 41
1.0
 50
0.0
 71
0
 42
1
 3
ARIAL.TTF
 4

  0
ENDTAB
  0
TABLE
  2
VIEW
 70
0
  0
ENDTAB
  0
ENDSEC
  0
SECTION
  2
BLOCKS
  0
BLOCK
  8
0
  2
SHAPE004
 70
0
 10
0.0
 20
0.0
 30
0.0
  3
SHAPE004
  0
LINE
  8
0
 62
0
 10
147.16128355704697
 20
47.49664429530201
 30
0.0
 11
145.76069630872485
 21
47.49664429530201
 31
0.0
  0
LINE
  8
0
 62
0
 10
145.76069630872485
 20
47.49664429530201
 30
0.0
 11
145.76069630872485
 21
46.65906040268457
 31
0.0
  0
LINE
  8
0
 62
0
 10
145.76069630872485
 20
46.65906040268457
 30
0.0
 11
147.10276845637583
 21
46.65906040268457
 31
0.0
  0
LINE
  8
0
 62
0
 10
147.10276845637583
 20
46.65906040268457
 30
0.0
 11
147.10276845637583
 21
46.33691275167785
 31
0.0
  0
LINE
  8
0
 62
0
 10
147.10276845637583
 20
46.33691275167785
 30
0.0
 11
145.76069630872485
 21
46.33691275167785
 31
0.0
  0
LINE
  8
0
 62
0
 10
145.76069630872485
 20
46.33691275167785
 30
0.0
 11
145.76069630872485
 21
45.32214765100671
 31
0.0
  0
LINE
  8
0
 62
0
 10
145.76069630872485
 20
45.32214765100671
 30
0.0
 11
147.1952600671141
 21
45.32214765100671
 31
0.0
  0
LINE
  8
0
 62
0
 10
147.1952600671141
 20
45.32214765100671
 30
0.0
 11
147.1952600671141
 21
45.0
 31
0.0
  0
LINE
  8
0
 62
0
 10
147.1952600671141
 20
45.0
 30
0.0
 11
145.3794043624161
 21
45.0
 31
0.0
  0
LINE
  8
0
 62
0
 10
145.3794043624161
 20
45.0
 30
0.0
 11
145.3794043624161
 21
47.81879194630872
 31
0.0
  0
LINE
  8
0
 62
0
 10
145.3794043624161
 20
47.81879194630872
 30
0.0
 11
147.16128355704697
 21
47.81879194630872
 31
0.0
  0
LINE
  8
0
 62
0
 10
147.16128355704697
 20
47.81879194630872
 30
0.0
 11
147.16128355704697
 21
47.49664429530201
 31
0.0
  0
ENDBLK
  0
ENDSEC
  0
SECTION
  2
ENTITIES
  0
LINE
  8
0
 62
0
 10
0.0
 20
0.0
 30
0.0
 11
165.0
 21
0.0
 31
0.0
  0
LINE
  8
0
 62
0
 10
165.0
 20
0.0
 30
0.0
 11
165.0
 21
52.0
 31
0.0
  0
LINE
  8
0
 62
0
 10
165.0
 20
52.0
 30
0.0
 11
0.0
 21
52.0
 31
0.0
  0
LINE
  8
0
 62
0
 10
0.0
 20
52.0
 30
0.0
 11
0.0
 21
0.0
 31
0.0
  0
INSERT
  2
SHAPE004
  8
0
 62
0
 10
0.0
 20
0.0
 30
0.0
  0
TEXT
  8
0
 62
0
 10
48.0
 20
47.0
 30
0.0
 40
2.4000000000000004
  1
FREECAD_TO_KICAD
  7
STANDARD
  0
TEXT
  8
0
 62
0
 10
8.0
 20
47.0
 30
0.0
 40
2.4000000000000004
  1
EW4G08
  7
STANDARD
  0
ENDSEC
  0
EOF
