999
FreeCAD v1.1 20260725 (Git shallow)
  0
SECTION
  2
HEADER
  9
$ACADVER
  1
AC1014
  9
$ACADMAINTVER
 70
     9
  9
$DWGCODEPAGE
  3
ANSI_1252
  9
$TEXTSTYLE
  7
STANDARD
  9
$DIMSTYLE
  2
STANDARD
  9
$DIMTXSTY
  7
STANDARD
  9
$CMLSTYLE
  2
STANDARD
  9
$LUNITS
 70
2
  9
$INSUNITS
 70
4
  9
$PEXTMAX
 10
50
 20
50
 30
50
  9
$PEXTMIN
 10
0
 20
0
 30
0
  9
$HANDSEED
  5
FFFF
  0
ENDSEC
  0
SECTION
  2
CLASSES
  0
CLASS
  1
ACDBDICTIONARYWDFLT
  2
AcDbDictionaryWithDefault
  3
ObjectDBX Classes
 90
        0
280
     0
281
     0
  0
CLASS
  1
XRECORD
  2
AcDbXrecord
  3
ObjectDBX Classes
 90
        0
280
     0
281
     0
  0
CLASS
  1
LWPOLYLINE
  2
AcDbPolyline
  3
ObjectDBX Classes
 90
        0
280
     0
281
     1
  0
ENDSEC
  0
SECTION
  2
TABLES
  0
TABLE
  2
VPORT
  5
20
330
0
100
AcDbSymbolTable
 70
     1
  0
VPORT
  5
21
330
20
100
AcDbSymbolTableRecord
100
AcDbViewportTableRecord
  2
*ACTIVE
 70
     0
  0
ENDTAB
  0
TABLE
  2
LTYPE
  5
22
330
0
100
AcDbSymbolTable
 70
     1
  0
LTYPE
  5
23
330
21
100
AcDbSymbolTableRecord
100
AcDbLinetypeTableRecord
  2
BYBLOCK
 70
     0
  3

 72
    65
 73
     0
 40
0.0
  0
LTYPE
  5
24
330
21
100
AcDbSymbolTableRecord
100
AcDbLinetypeTableRecord
  2
BYLAYER
 70
     0
  3

 72
    65
 73
     0
 40
0.0
  0
LTYPE
  5
25
330
21
100
AcDbSymbolTableRecord
100
AcDbLinetypeTableRecord
  2
CONTINUOUS
 70
     0
  3
Solid line
 72
    65
 73
     0
 40
0.0
  0
ENDTAB
  0
TABLE
  2
LAYER
  5
A46
330
0
100
AcDbSymbolTable
 70
7
  0
LAYER
  5
A47
330
A46
100
AcDbSymbolTableRecord
100
AcDbLayerTableRecord
  2
0
 70
   0
 62
   7
  6
CONTINUOUS
  0
LAYER
  5
A48
330
A46
100
AcDbSymbolTableRecord
100
AcDbLayerTableRecord
  2
ProjItem
 70
    0
 62
    7
  6
CONTINUOUS
  0
LAYER
  5
A49
330
A46
100
AcDbSymbolTableRecord
100
AcDbLayerTableRecord
  2
ProjItem001
 70
    0
 62
    7
  6
CONTINUOUS
  0
LAYER
  5
A4A
330
A46
100
AcDbSymbolTableRecord
100
AcDbLayerTableRecord
  2
ProjItem002
 70
    0
 62
    7
  6
CONTINUOUS
  0
LAYER
  5
A4B
330
A46
100
AcDbSymbolTableRecord
100
AcDbLayerTableRecord
  2
DimDia0
 70
    0
 62
    7
  6
CONTINUOUS
  0
LAYER
  5
A4C
330
A46
100
AcDbSymbolTableRecord
100
AcDbLayerTableRecord
  2
DimDia2
 70
    0
 62
    7
  6
CONTINUOUS
  0
LAYER
  5
A4D
330
A46
100
AcDbSymbolTableRecord
100
AcDbLayerTableRecord
  2
DimWidth
 70
    0
 62
    7
  6
CONTINUOUS
  0
ENDTAB
  0
TABLE
  2
STYLE
  5
70
330
0
100
AcDbSymbolTable
 70
     2
  0
STYLE
  5
71
330
70
100
AcDbSymbolTableRecord
100
AcDbTextStyleTableRecord
  2
STANDARD
 70
     0
 40
0.0
 41
1.0
 50
0.0
 71
     0
 42
2.5
  3
arial.ttf
  4

  0
STYLE
  5
72
330
70
100
AcDbSymbolTableRecord
100
AcDbTextStyleTableRecord
  2
ANNOTATIVE
 70
     0
 40
0.0
 41
1.0
 50
0.0
 71
     0
 42
2.5
  3
arial.ttf
  4

  0
ENDTAB
  0
TABLE
  2
VIEW
  5
73
330
0
100
AcDbSymbolTable
 70
     0
  0
ENDTAB
  0
TABLE
  2
UCS
  5
74
330
0
100
AcDbSymbolTable
 70
     0
  0
ENDTAB
  0
TABLE
  2
APPID
  5
75
330
0
100
AcDbSymbolTable
 70
     2
  0
APPID
  5
76
330
75
100
AcDbSymbolTableRecord
100
AcDbRegAppTableRecord
  2
ACAD
 70
     0
  0
APPID
  5
77
330
75
100
AcDbSymbolTableRecord
100
AcDbRegAppTableRecord
  2
ACADANNOTATIVE
 70
     0
  0
ENDTAB
  0
TABLE
  2
DIMSTYLE
  5
78
330
0
100
AcDbSymbolTable
 70
     2
  0
DIMSTYLE
105
79
330
78
100
AcDbSymbolTableRecord
100
AcDbDimStyleTableRecord
  2
STANDARD
 70
     0
  3

  4

  5

  6

  7

 40
0.0
 41
2.5
 42
0.625
 43
3.75
 44
1.25
 45
0.0
 46
0.0
 47
0.0
 48
0.0
140
2.5
141
2.5
142
0.0
143
0.03937007874016
144
1.0
145
0.0
146
1.0
147
0.625
 71
     0
 72
     0
 73
     0
 74
     0
 75
     0
 76
     0
 77
     1
 78
     8
170
     0
171
     3
172
     1
173
     0
174
     0
175
     0
176
     0
177
     0
178
     0
270
     2
271
     2
272
     2
273
     2
274
     3
340
71
275
     0
280
     0
281
     0
282
     0
283
     0
284
     8
285
     0
286
     0
287
     3
288
     0
  0
ENDTAB
  0
TABLE
  2
BLOCK_RECORD
  5
A01
330
0
100
AcDbSymbolTable
  70
5
  0
BLOCK_RECORD
  5
A02
330
A01
100
AcDbSymbolTableRecord
100
AcDbBlockTableRecord
  2
*MODEL_SPACE
  0
BLOCK_RECORD
  5
A03
330
A01
100
AcDbSymbolTableRecord
100
AcDbBlockTableRecord
  2
*PAPER_SPACE
  0
BLOCK_RECORD
  5
A2D
330
A01
100
AcDbSymbolTableRecord
100
AcDbBlockTableRecord
  2
*DimDia0
  0
BLOCK_RECORD
  5
A35
330
A01
100
AcDbSymbolTableRecord
100
AcDbBlockTableRecord
  2
*DimDia2
  0
BLOCK_RECORD
  5
A3D
330
A01
100
AcDbSymbolTableRecord
100
AcDbBlockTableRecord
  2
*DimWidth
  0
ENDTAB
  0
ENDSEC
  0
SECTION
  2
BLOCKS
  0
BLOCK
  5
A04
330
A02
100
AcDbEntity
  8
0
100
AcDbBlockBegin
  2
*MODEL_SPACE
 70
   0
 10
0
 20
0
 30
0
  3
*MODEL_SPACE
  1
 
  0
ENDBLK
  5
A05
330
A02
100
AcDbEntity
  8
0
100
AcDbBlockEnd
  0
BLOCK
  5
A06
330
A03
100
AcDbEntity
 67
1
  8
0
100
AcDbBlockBegin
  2
*PAPER_SPACE
 70
   0
 10
0
 20
0
 30
0
  3
*PAPER_SPACE
  1
 
  0
ENDBLK
  5
A07
330
A03
100
AcDbEntity
 67
    1
  8
0
100
AcDbBlockEnd
  0
BLOCK
  5
A2E
330
A2D
100
AcDbEntity
  8
DimDia0
100
AcDbBlockBegin
  2
*DimDia0
 70
   1
 10
0
 20
0
 30
0
  3
*DimDia0
  1
 
  0
LINE
  5
A2F
330
A2D
100
AcDbEntity
  8
DimDia0
100
AcDbLine
 10
108.67
 20
169.771
 30
0
 11
68.3304
 21
140.229
 31
0
  0
TEXT
  5
A30
330
A2D
100
AcDbEntity
  8
DimDia0
100
AcDbText
 10
125.5
 20
188
 30
0
 40
3.5
  1
⌀50
  7
STANDARD
 72
1
 11
125.5
 21
188
 31
0
100
AcDbText
  0
SOLID
  5
A31
330
A2D
100
AcDbEntity
  8
0
 62
     0
100
AcDbTrace
 10
104.882
 20
166.481
 30
0
 11
104.389
 21
167.153
 31
0
 12
108.67
 22
169.771
 32
0
 13
108.67
 23
169.771
 33
0
  0
SOLID
  5
A32
330
A2D
100
AcDbEntity
  8
0
 62
     0
100
AcDbTrace
 10
72.6105
 20
142.847
 30
0
 11
72.1181
 21
143.519
 31
0
 12
68.3304
 22
140.229
 32
0
 13
68.3304
 23
140.229
 33
0
  0
ENDBLK
  5
A33
330
A2D
100
AcDbEntity
  8
DimDia0
100
AcDbBlockEnd
  0
BLOCK
  5
A36
330
A35
100
AcDbEntity
  8
DimDia2
100
AcDbBlockBegin
  2
*DimDia2
 70
   1
 10
0
 20
0
 30
0
  3
*DimDia2
  1
 
  0
LINE
  5
A37
330
A35
100
AcDbEntity
  8
DimDia2
100
AcDbLine
 10
100.991
 20
163.305
 30
0
 11
76.0091
 21
146.695
 31
0
  0
TEXT
  5
A38
330
A35
100
AcDbEntity
  8
DimDia2
100
AcDbText
 10
141.5
 20
196
 30
0
 40
3.5
  1
⌀30
  7
STANDARD
 72
1
 11
141.5
 21
196
 31
0
100
AcDbText
  0
SOLID
  5
A39
330
A35
100
AcDbEntity
  8
0
 62
     0
100
AcDbTrace
 10
97.058
 20
160.19
 30
0
 11
96.5966
 21
160.884
 31
0
 12
100.991
 22
163.305
 32
0
 13
100.991
 23
163.305
 33
0
  0
SOLID
  5
A3A
330
A35
100
AcDbEntity
  8
0
 62
     0
100
AcDbTrace
 10
80.4034
 20
149.116
 30
0
 11
79.942
 21
149.81
 31
0
 12
76.0091
 22
146.695
 32
0
 13
76.0091
 23
146.695
 33
0
  0
ENDBLK
  5
A3B
330
A35
100
AcDbEntity
  8
DimDia2
100
AcDbBlockEnd
  0
BLOCK
  5
A3E
330
A3D
100
AcDbEntity
  8
DimWidth
100
AcDbBlockBegin
  2
*DimWidth
 70
   1
 10
0
 20
0
 30
0
  3
*DimWidth
  1
 
  0
LINE
  5
A3F
330
A3D
100
AcDbEntity
  8
DimWidth
100
AcDbLine
 10
196.5
 20
180
 30
0
 11
196.5
 21
187.742
 31
0
  0
LINE
  5
A40
330
A3D
100
AcDbEntity
  8
DimWidth
100
AcDbLine
 10
131.5
 20
140
 30
0
 11
131.5
 21
187.742
 31
0
  0
LINE
  5
A41
330
A3D
100
AcDbEntity
  8
DimWidth
100
AcDbLine
 10
131.5
 20
187.742
 30
0
 11
196.5
 21
187.742
 31
0
  0
TEXT
  5
A42
330
A3D
100
AcDbEntity
  8
DimWidth
100
AcDbText
 10
164
 20
192
 30
0
 40
3.5
  1
65
  7
STANDARD
 72
1
 11
161.38
 21
187.742
 31
0
100
AcDbText
  0
SOLID
  5
A43
330
A3D
100
AcDbEntity
  8
0
 62
     0
100
AcDbTrace
 10
126.5
 20
188.158
 30
0
 11
126.5
 21
187.325
 31
0
 12
131.5
 22
187.742
 32
0
 13
131.5
 23
187.742
 33
0
  0
SOLID
  5
A44
330
A3D
100
AcDbEntity
  8
0
 62
     0
100
AcDbTrace
 10
201.5
 20
188.158
 30
0
 11
201.5
 21
187.325
 31
0
 12
196.5
 22
187.742
 32
0
 13
196.5
 23
187.742
 33
0
  0
ENDBLK
  5
A45
330
A3D
100
AcDbEntity
  8
DimWidth
100
AcDbBlockEnd
  0
ENDSEC
  0
SECTION
  2
ENTITIES
  0
SPLINE
  5
A08
330
A02
100
AcDbEntity
  8
ProjItem
100
AcDbSpline
210
0
220
0
230
1
 70
8
 71
1
 72
17
 73
15
 74
0
 40
3.141592654
 40
3.141592654
 40
3.365992129
 40
3.590391604
 40
3.814791079
 40
4.039190555
 40
4.263590030
 40
4.487989505
 40
4.712388980
 40
4.936788456
 40
5.161187931
 40
5.385587406
 40
5.609986881
 40
5.834386357
 40
6.058785832
 40
6.283185307
 40
6.283185307
 10
196.500000000
 20
180.000000000
 30
0.000000000
 10
196.500000000
 20
179.373197805
 30
0.000000000
 10
196.500000000
 20
177.524221698
 30
0.000000000
 10
196.500000000
 20
174.545787062
 30
0.000000000
 10
196.500000000
 20
170.587245046
 30
0.000000000
 10
196.500000000
 20
165.847093478
 30
0.000000000
 10
196.500000000
 20
160.563023349
 30
0.000000000
 10
196.500000000
 20
155.000000000
 30
0.000000000
 10
196.500000000
 20
149.436976651
 30
0.000000000
 10
196.500000000
 20
144.152906522
 30
0.000000000
 10
196.500000000
 20
139.412754954
 30
0.000000000
 10
196.500000000
 20
135.454212938
 30
0.000000000
 10
196.500000000
 20
132.475778302
 30
0.000000000
 10
196.500000000
 20
130.626802195
 30
0.000000000
 10
196.500000000
 20
130.000000000
 30
0.000000000
  0
LINE
  5
A09
330
A02
100
AcDbEntity
  8
ProjItem
100
AcDbLine
 10
161.500000000
 20
130.000000000
 30
0.000000000
 11
196.500000000
 21
130.000000000
 31
0.000000000
  0
SPLINE
  5
A0A
330
A02
100
AcDbEntity
  8
ProjItem
100
AcDbSpline
210
0
220
0
230
1
 70
8
 71
1
 72
17
 73
15
 74
0
 40
3.141592654
 40
3.141592654
 40
3.365992129
 40
3.590391604
 40
3.814791079
 40
4.039190555
 40
4.263590030
 40
4.487989505
 40
4.712388980
 40
4.936788456
 40
5.161187931
 40
5.385587406
 40
5.609986881
 40
5.834386357
 40
6.058785832
 40
6.283185307
 40
6.283185307
 10
161.500000000
 20
180.000000000
 30
0.000000000
 10
161.500000000
 20
179.373197805
 30
0.000000000
 10
161.500000000
 20
177.524221698
 30
0.000000000
 10
161.500000000
 20
174.545787062
 30
0.000000000
 10
161.500000000
 20
170.587245046
 30
0.000000000
 10
161.500000000
 20
165.847093478
 30
0.000000000
 10
161.500000000
 20
160.563023349
 30
0.000000000
 10
161.500000000
 20
155.000000000
 30
0.000000000
 10
161.500000000
 20
149.436976651
 30
0.000000000
 10
161.500000000
 20
144.152906522
 30
0.000000000
 10
161.500000000
 20
139.412754954
 30
0.000000000
 10
161.500000000
 20
135.454212938
 30
0.000000000
 10
161.500000000
 20
132.475778302
 30
0.000000000
 10
161.500000000
 20
130.626802195
 30
0.000000000
 10
161.500000000
 20
130.000000000
 30
0.000000000
  0
LINE
  5
A0B
330
A02
100
AcDbEntity
  8
ProjItem
100
AcDbLine
 10
131.500000000
 20
140.000000000
 30
0.000000000
 11
161.500000000
 21
140.000000000
 31
0.000000000
  0
SPLINE
  5
A0C
330
A02
100
AcDbEntity
  8
ProjItem
100
AcDbSpline
210
0
220
0
230
1
 70
8
 71
1
 72
17
 73
15
 74
0
 40
3.141592654
 40
3.141592654
 40
3.365992129
 40
3.590391604
 40
3.814791079
 40
4.039190555
 40
4.263590030
 40
4.487989505
 40
4.712388980
 40
4.936788456
 40
5.161187931
 40
5.385587406
 40
5.609986881
 40
5.834386357
 40
6.058785832
 40
6.283185307
 40
6.283185307
 10
131.500000000
 20
170.000000000
 30
0.000000000
 10
131.500000000
 20
169.623918683
 30
0.000000000
 10
131.500000000
 20
168.514533019
 30
0.000000000
 10
131.500000000
 20
166.727472237
 30
0.000000000
 10
131.500000000
 20
164.352347028
 30
0.000000000
 10
131.500000000
 20
161.508256087
 30
0.000000000
 10
131.500000000
 20
158.337814009
 30
0.000000000
 10
131.500000000
 20
155.000000000
 30
0.000000000
 10
131.500000000
 20
151.662185991
 30
0.000000000
 10
131.500000000
 20
148.491743913
 30
0.000000000
 10
131.500000000
 20
145.647652972
 30
0.000000000
 10
131.500000000
 20
143.272527763
 30
0.000000000
 10
131.500000000
 20
141.485466981
 30
0.000000000
 10
131.500000000
 20
140.376081317
 30
0.000000000
 10
131.500000000
 20
140.000000000
 30
0.000000000
  0
LINE
  5
A0D
330
A02
100
AcDbEntity
  8
ProjItem
100
AcDbLine
 10
161.500000000
 20
180.000000000
 30
0.000000000
 11
196.500000000
 21
180.000000000
 31
0.000000000
  0
LINE
  5
A0E
330
A02
100
AcDbEntity
  8
ProjItem
100
AcDbLine
 10
131.500000000
 20
170.000000000
 30
0.000000000
 11
161.500000000
 21
170.000000000
 31
0.000000000
  0
SPLINE
  5
A0F
330
A02
100
AcDbEntity
  8
ProjItem
100
AcDbSpline
210
0
220
0
230
1
 70
8
 71
1
 72
17
 73
15
 74
0
 40
0.000000000
 40
0.000000000
 40
0.224399475
 40
0.448798951
 40
0.673198426
 40
0.897597901
 40
1.121997376
 40
1.346396852
 40
1.570796327
 40
1.795195802
 40
2.019595277
 40
2.243994753
 40
2.468394228
 40
2.692793703
 40
2.917193178
 40
3.141592654
 40
3.141592654
 10
196.500000000
 20
130.000000000
 30
0.000000000
 10
196.500000000
 20
130.626802195
 30
0.000000000
 10
196.500000000
 20
132.475778302
 30
0.000000000
 10
196.500000000
 20
135.454212938
 30
0.000000000
 10
196.500000000
 20
139.412754954
 30
0.000000000
 10
196.500000000
 20
144.152906522
 30
0.000000000
 10
196.500000000
 20
149.436976651
 30
0.000000000
 10
196.500000000
 20
155.000000000
 30
0.000000000
 10
196.500000000
 20
160.563023349
 30
0.000000000
 10
196.500000000
 20
165.847093478
 30
0.000000000
 10
196.500000000
 20
170.587245046
 30
0.000000000
 10
196.500000000
 20
174.545787062
 30
0.000000000
 10
196.500000000
 20
177.524221698
 30
0.000000000
 10
196.500000000
 20
179.373197805
 30
0.000000000
 10
196.500000000
 20
180.000000000
 30
0.000000000
  0
SPLINE
  5
A10
330
A02
100
AcDbEntity
  8
ProjItem
100
AcDbSpline
210
0
220
0
230
1
 70
8
 71
1
 72
17
 73
15
 74
0
 40
0.000000000
 40
0.000000000
 40
0.224399475
 40
0.448798951
 40
0.673198426
 40
0.897597901
 40
1.121997376
 40
1.346396852
 40
1.570796327
 40
1.795195802
 40
2.019595277
 40
2.243994753
 40
2.468394228
 40
2.692793703
 40
2.917193178
 40
3.141592654
 40
3.141592654
 10
161.500000000
 20
130.000000000
 30
0.000000000
 10
161.500000000
 20
130.626802195
 30
0.000000000
 10
161.500000000
 20
132.475778302
 30
0.000000000
 10
161.500000000
 20
135.454212938
 30
0.000000000
 10
161.500000000
 20
139.412754954
 30
0.000000000
 10
161.500000000
 20
144.152906522
 30
0.000000000
 10
161.500000000
 20
149.436976651
 30
0.000000000
 10
161.500000000
 20
155.000000000
 30
0.000000000
 10
161.500000000
 20
160.563023349
 30
0.000000000
 10
161.500000000
 20
165.847093478
 30
0.000000000
 10
161.500000000
 20
170.587245046
 30
0.000000000
 10
161.500000000
 20
174.545787062
 30
0.000000000
 10
161.500000000
 20
177.524221698
 30
0.000000000
 10
161.500000000
 20
179.373197805
 30
0.000000000
 10
161.500000000
 20
180.000000000
 30
0.000000000
  0
SPLINE
  5
A11
330
A02
100
AcDbEntity
  8
ProjItem
100
AcDbSpline
210
0
220
0
230
1
 70
8
 71
1
 72
17
 73
15
 74
0
 40
0.000000000
 40
0.000000000
 40
0.224399475
 40
0.448798951
 40
0.673198426
 40
0.897597901
 40
1.121997376
 40
1.346396852
 40
1.570796327
 40
1.795195802
 40
2.019595277
 40
2.243994753
 40
2.468394228
 40
2.692793703
 40
2.917193178
 40
3.141592654
 40
3.141592654
 10
161.500000000
 20
140.000000000
 30
0.000000000
 10
161.500000000
 20
140.376081317
 30
0.000000000
 10
161.500000000
 20
141.485466981
 30
0.000000000
 10
161.500000000
 20
143.272527763
 30
0.000000000
 10
161.500000000
 20
145.647652972
 30
0.000000000
 10
161.500000000
 20
148.491743913
 30
0.000000000
 10
161.500000000
 20
151.662185991
 30
0.000000000
 10
161.500000000
 20
155.000000000
 30
0.000000000
 10
161.500000000
 20
158.337814009
 30
0.000000000
 10
161.500000000
 20
161.508256087
 30
0.000000000
 10
161.500000000
 20
164.352347028
 30
0.000000000
 10
161.500000000
 20
166.727472237
 30
0.000000000
 10
161.500000000
 20
168.514533019
 30
0.000000000
 10
161.500000000
 20
169.623918683
 30
0.000000000
 10
161.500000000
 20
170.000000000
 30
0.000000000
  0
SPLINE
  5
A12
330
A02
100
AcDbEntity
  8
ProjItem
100
AcDbSpline
210
0
220
0
230
1
 70
8
 71
1
 72
17
 73
15
 74
0
 40
3.141592654
 40
3.141592654
 40
3.365992129
 40
3.590391604
 40
3.814791079
 40
4.039190555
 40
4.263590030
 40
4.487989505
 40
4.712388980
 40
4.936788456
 40
5.161187931
 40
5.385587406
 40
5.609986881
 40
5.834386357
 40
6.058785832
 40
6.283185307
 40
6.283185307
 10
161.500000000
 20
170.000000000
 30
0.000000000
 10
161.500000000
 20
169.623918683
 30
0.000000000
 10
161.500000000
 20
168.514533019
 30
0.000000000
 10
161.500000000
 20
166.727472237
 30
0.000000000
 10
161.500000000
 20
164.352347028
 30
0.000000000
 10
161.500000000
 20
161.508256087
 30
0.000000000
 10
161.500000000
 20
158.337814009
 30
0.000000000
 10
161.500000000
 20
155.000000000
 30
0.000000000
 10
161.500000000
 20
151.662185991
 30
0.000000000
 10
161.500000000
 20
148.491743913
 30
0.000000000
 10
161.500000000
 20
145.647652972
 30
0.000000000
 10
161.500000000
 20
143.272527763
 30
0.000000000
 10
161.500000000
 20
141.485466981
 30
0.000000000
 10
161.500000000
 20
140.376081317
 30
0.000000000
 10
161.500000000
 20
140.000000000
 30
0.000000000
  0
SPLINE
  5
A13
330
A02
100
AcDbEntity
  8
ProjItem
100
AcDbSpline
210
0
220
0
230
1
 70
8
 71
1
 72
17
 73
15
 74
0
 40
0.000000000
 40
0.000000000
 40
0.224399475
 40
0.448798951
 40
0.673198426
 40
0.897597901
 40
1.121997376
 40
1.346396852
 40
1.570796327
 40
1.795195802
 40
2.019595277
 40
2.243994753
 40
2.468394228
 40
2.692793703
 40
2.917193178
 40
3.141592654
 40
3.141592654
 10
131.500000000
 20
140.000000000
 30
0.000000000
 10
131.500000000
 20
140.376081317
 30
0.000000000
 10
131.500000000
 20
141.485466981
 30
0.000000000
 10
131.500000000
 20
143.272527763
 30
0.000000000
 10
131.500000000
 20
145.647652972
 30
0.000000000
 10
131.500000000
 20
148.491743913
 30
0.000000000
 10
131.500000000
 20
151.662185991
 30
0.000000000
 10
131.500000000
 20
155.000000000
 30
0.000000000
 10
131.500000000
 20
158.337814009
 30
0.000000000
 10
131.500000000
 20
161.508256087
 30
0.000000000
 10
131.500000000
 20
164.352347028
 30
0.000000000
 10
131.500000000
 20
166.727472237
 30
0.000000000
 10
131.500000000
 20
168.514533019
 30
0.000000000
 10
131.500000000
 20
169.623918683
 30
0.000000000
 10
131.500000000
 20
170.000000000
 30
0.000000000
  0
LINE
  5
A14
330
A02
100
AcDbEntity
  8
ProjItem
100
AcDbLine
 10
130.500000000
 20
155.000000000
 30
0.000000000
 11
197.500000000
 21
155.000000000
 31
0.000000000
  0
SPLINE
  5
A15
330
A02
100
AcDbEntity
  8
ProjItem001
100
AcDbSpline
210
0
220
0
230
1
 70
8
 71
1
 72
17
 73
15
 74
0
 40
1.570796327
 40
1.570796327
 40
1.795195802
 40
2.019595277
 40
2.243994753
 40
2.468394228
 40
2.692793703
 40
2.917193178
 40
3.141592654
 40
3.365992129
 40
3.590391604
 40
3.814791079
 40
4.039190555
 40
4.263590030
 40
4.487989505
 40
4.712388980
 40
4.712388980
 10
196.500000000
 20
112.000000000
 30
0.000000000
 10
196.500000000
 20
111.373197805
 30
0.000000000
 10
196.500000000
 20
109.524221698
 30
0.000000000
 10
196.500000000
 20
106.545787062
 30
0.000000000
 10
196.500000000
 20
102.587245046
 30
0.000000000
 10
196.500000000
 20
97.847093478
 30
0.000000000
 10
196.500000000
 20
92.563023349
 30
0.000000000
 10
196.500000000
 20
87.000000000
 30
0.000000000
 10
196.500000000
 20
81.436976651
 30
0.000000000
 10
196.500000000
 20
76.152906522
 30
0.000000000
 10
196.500000000
 20
71.412754954
 30
0.000000000
 10
196.500000000
 20
67.454212938
 30
0.000000000
 10
196.500000000
 20
64.475778302
 30
0.000000000
 10
196.500000000
 20
62.626802195
 30
0.000000000
 10
196.500000000
 20
62.000000000
 30
0.000000000
  0
SPLINE
  5
A16
330
A02
100
AcDbEntity
  8
ProjItem001
100
AcDbSpline
210
0
220
0
230
1
 70
8
 71
1
 72
17
 73
15
 74
0
 40
1.570796327
 40
1.570796327
 40
1.795195802
 40
2.019595277
 40
2.243994753
 40
2.468394228
 40
2.692793703
 40
2.917193178
 40
3.141592654
 40
3.365992129
 40
3.590391604
 40
3.814791079
 40
4.039190555
 40
4.263590030
 40
4.487989505
 40
4.712388980
 40
4.712388980
 10
161.500000000
 20
112.000000000
 30
0.000000000
 10
161.500000000
 20
111.373197805
 30
0.000000000
 10
161.500000000
 20
109.524221698
 30
0.000000000
 10
161.500000000
 20
106.545787062
 30
0.000000000
 10
161.500000000
 20
102.587245046
 30
0.000000000
 10
161.500000000
 20
97.847093478
 30
0.000000000
 10
161.500000000
 20
92.563023349
 30
0.000000000
 10
161.500000000
 20
87.000000000
 30
0.000000000
 10
161.500000000
 20
81.436976651
 30
0.000000000
 10
161.500000000
 20
76.152906522
 30
0.000000000
 10
161.500000000
 20
71.412754954
 30
0.000000000
 10
161.500000000
 20
67.454212938
 30
0.000000000
 10
161.500000000
 20
64.475778302
 30
0.000000000
 10
161.500000000
 20
62.626802195
 30
0.000000000
 10
161.500000000
 20
62.000000000
 30
0.000000000
  0
SPLINE
  5
A17
330
A02
100
AcDbEntity
  8
ProjItem001
100
AcDbSpline
210
0
220
0
230
1
 70
8
 71
1
 72
17
 73
15
 74
0
 40
1.570796327
 40
1.570796327
 40
1.795195802
 40
2.019595277
 40
2.243994753
 40
2.468394228
 40
2.692793703
 40
2.917193178
 40
3.141592654
 40
3.365992129
 40
3.590391604
 40
3.814791079
 40
4.039190555
 40
4.263590030
 40
4.487989505
 40
4.712388980
 40
4.712388980
 10
131.500000000
 20
102.000000000
 30
0.000000000
 10
131.500000000
 20
101.623918683
 30
0.000000000
 10
131.500000000
 20
100.514533019
 30
0.000000000
 10
131.500000000
 20
98.727472237
 30
0.000000000
 10
131.500000000
 20
96.352347028
 30
0.000000000
 10
131.500000000
 20
93.508256087
 30
0.000000000
 10
131.500000000
 20
90.337814009
 30
0.000000000
 10
131.500000000
 20
87.000000000
 30
0.000000000
 10
131.500000000
 20
83.662185991
 30
0.000000000
 10
131.500000000
 20
80.491743913
 30
0.000000000
 10
131.500000000
 20
77.647652972
 30
0.000000000
 10
131.500000000
 20
75.272527763
 30
0.000000000
 10
131.500000000
 20
73.485466981
 30
0.000000000
 10
131.500000000
 20
72.376081317
 30
0.000000000
 10
131.500000000
 20
72.000000000
 30
0.000000000
  0
LINE
  5
A18
330
A02
100
AcDbEntity
  8
ProjItem001
100
AcDbLine
 10
161.500000000
 20
62.000000000
 30
0.000000000
 11
196.500000000
 21
62.000000000
 31
0.000000000
  0
LINE
  5
A19
330
A02
100
AcDbEntity
  8
ProjItem001
100
AcDbLine
 10
161.500000000
 20
112.000000000
 30
0.000000000
 11
196.500000000
 21
112.000000000
 31
0.000000000
  0
LINE
  5
A1A
330
A02
100
AcDbEntity
  8
ProjItem001
100
AcDbLine
 10
131.500000000
 20
72.000000000
 30
0.000000000
 11
161.500000000
 21
72.000000000
 31
0.000000000
  0
LINE
  5
A1B
330
A02
100
AcDbEntity
  8
ProjItem001
100
AcDbLine
 10
131.500000000
 20
102.000000000
 30
0.000000000
 11
161.500000000
 21
102.000000000
 31
0.000000000
  0
SPLINE
  5
A1C
330
A02
100
AcDbEntity
  8
ProjItem001
100
AcDbSpline
210
0
220
0
230
1
 70
8
 71
1
 72
17
 73
15
 74
0
 40
0.000000000
 40
0.000000000
 40
0.112199738
 40
0.224399475
 40
0.336599213
 40
0.448798951
 40
0.560998688
 40
0.673198426
 40
0.785398163
 40
0.897597901
 40
1.009797639
 40
1.121997376
 40
1.234197114
 40
1.346396852
 40
1.458596589
 40
1.570796327
 40
1.570796327
 10
196.500000000
 20
87.000000000
 30
0.000000000
 10
196.500000000
 20
89.799111903
 30
0.000000000
 10
196.500000000
 20
92.563023349
 30
0.000000000
 10
196.500000000
 20
95.256976549
 30
0.000000000
 10
196.500000000
 20
97.847093478
 30
0.000000000
 10
196.500000000
 20
100.300801913
 30
0.000000000
 10
196.500000000
 20
102.587245046
 30
0.000000000
 10
196.500000000
 20
104.677669530
 30
0.000000000
 10
196.500000000
 20
106.545787062
 30
0.000000000
 10
196.500000000
 20
108.168104981
 30
0.000000000
 10
196.500000000
 20
109.524221698
 30
0.000000000
 10
196.500000000
 20
110.597083258
 30
0.000000000
 10
196.500000000
 20
111.373197805
 30
0.000000000
 10
196.500000000
 20
111.842805247
 30
0.000000000
 10
196.500000000
 20
112.000000000
 30
0.000000000
  0
SPLINE
  5
A1D
330
A02
100
AcDbEntity
  8
ProjItem001
100
AcDbSpline
210
0
220
0
230
1
 70
8
 71
1
 72
17
 73
15
 74
0
 40
4.712388980
 40
4.712388980
 40
4.824588718
 40
4.936788456
 40
5.048988193
 40
5.161187931
 40
5.273387669
 40
5.385587406
 40
5.497787144
 40
5.609986881
 40
5.722186619
 40
5.834386357
 40
5.946586094
 40
6.058785832
 40
6.170985570
 40
6.283185307
 40
6.283185307
 10
196.500000000
 20
62.000000000
 30
0.000000000
 10
196.500000000
 20
62.157194753
 30
0.000000000
 10
196.500000000
 20
62.626802195
 30
0.000000000
 10
196.500000000
 20
63.402916742
 30
0.000000000
 10
196.500000000
 20
64.475778302
 30
0.000000000
 10
196.500000000
 20
65.831895019
 30
0.000000000
 10
196.500000000
 20
67.454212938
 30
0.000000000
 10
196.500000000
 20
69.322330470
 30
0.000000000
 10
196.500000000
 20
71.412754954
 30
0.000000000
 10
196.500000000
 20
73.699198087
 30
0.000000000
 10
196.500000000
 20
76.152906522
 30
0.000000000
 10
196.500000000
 20
78.743023451
 30
0.000000000
 10
196.500000000
 20
81.436976651
 30
0.000000000
 10
196.500000000
 20
84.200888097
 30
0.000000000
 10
196.500000000
 20
87.000000000
 30
0.000000000
  0
SPLINE
  5
A1E
330
A02
100
AcDbEntity
  8
ProjItem001
100
AcDbSpline
210
0
220
0
230
1
 70
8
 71
1
 72
17
 73
15
 74
0
 40
0.000000000
 40
0.000000000
 40
0.112199738
 40
0.224399475
 40
0.336599213
 40
0.448798951
 40
0.560998688
 40
0.673198426
 40
0.785398163
 40
0.897597901
 40
1.009797639
 40
1.121997376
 40
1.234197114
 40
1.346396852
 40
1.458596589
 40
1.570796327
 40
1.570796327
 10
161.500000000
 20
87.000000000
 30
0.000000000
 10
161.500000000
 20
89.799111903
 30
0.000000000
 10
161.500000000
 20
92.563023349
 30
0.000000000
 10
161.500000000
 20
95.256976549
 30
0.000000000
 10
161.500000000
 20
97.847093478
 30
0.000000000
 10
161.500000000
 20
100.300801913
 30
0.000000000
 10
161.500000000
 20
102.587245046
 30
0.000000000
 10
161.500000000
 20
104.677669530
 30
0.000000000
 10
161.500000000
 20
106.545787062
 30
0.000000000
 10
161.500000000
 20
108.168104981
 30
0.000000000
 10
161.500000000
 20
109.524221698
 30
0.000000000
 10
161.500000000
 20
110.597083258
 30
0.000000000
 10
161.500000000
 20
111.373197805
 30
0.000000000
 10
161.500000000
 20
111.842805247
 30
0.000000000
 10
161.500000000
 20
112.000000000
 30
0.000000000
  0
SPLINE
  5
A1F
330
A02
100
AcDbEntity
  8
ProjItem001
100
AcDbSpline
210
0
220
0
230
1
 70
8
 71
1
 72
17
 73
15
 74
0
 40
4.712388980
 40
4.712388980
 40
4.824588718
 40
4.936788456
 40
5.048988193
 40
5.161187931
 40
5.273387669
 40
5.385587406
 40
5.497787144
 40
5.609986881
 40
5.722186619
 40
5.834386357
 40
5.946586094
 40
6.058785832
 40
6.170985570
 40
6.283185307
 40
6.283185307
 10
161.500000000
 20
62.000000000
 30
0.000000000
 10
161.500000000
 20
62.157194753
 30
0.000000000
 10
161.500000000
 20
62.626802195
 30
0.000000000
 10
161.500000000
 20
63.402916742
 30
0.000000000
 10
161.500000000
 20
64.475778302
 30
0.000000000
 10
161.500000000
 20
65.831895019
 30
0.000000000
 10
161.500000000
 20
67.454212938
 30
0.000000000
 10
161.500000000
 20
69.322330470
 30
0.000000000
 10
161.500000000
 20
71.412754954
 30
0.000000000
 10
161.500000000
 20
73.699198087
 30
0.000000000
 10
161.500000000
 20
76.152906522
 30
0.000000000
 10
161.500000000
 20
78.743023451
 30
0.000000000
 10
161.500000000
 20
81.436976651
 30
0.000000000
 10
161.500000000
 20
84.200888097
 30
0.000000000
 10
161.500000000
 20
87.000000000
 30
0.000000000
  0
SPLINE
  5
A20
330
A02
100
AcDbEntity
  8
ProjItem001
100
AcDbSpline
210
0
220
0
230
1
 70
8
 71
1
 72
17
 73
15
 74
0
 40
0.000000000
 40
0.000000000
 40
0.112199738
 40
0.224399475
 40
0.336599213
 40
0.448798951
 40
0.560998688
 40
0.673198426
 40
0.785398163
 40
0.897597901
 40
1.009797639
 40
1.121997376
 40
1.234197114
 40
1.346396852
 40
1.458596589
 40
1.570796327
 40
1.570796327
 10
161.500000000
 20
87.000000000
 30
0.000000000
 10
161.500000000
 20
88.679467142
 30
0.000000000
 10
161.500000000
 20
90.337814009
 30
0.000000000
 10
161.500000000
 20
91.954185929
 30
0.000000000
 10
161.500000000
 20
93.508256087
 30
0.000000000
 10
161.500000000
 20
94.980481148
 30
0.000000000
 10
161.500000000
 20
96.352347028
 30
0.000000000
 10
161.500000000
 20
97.606601718
 30
0.000000000
 10
161.500000000
 20
98.727472237
 30
0.000000000
 10
161.500000000
 20
99.700862988
 30
0.000000000
 10
161.500000000
 20
100.514533019
 30
0.000000000
 10
161.500000000
 20
101.158249955
 30
0.000000000
 10
161.500000000
 20
101.623918683
 30
0.000000000
 10
161.500000000
 20
101.905683148
 30
0.000000000
 10
161.500000000
 20
102.000000000
 30
0.000000000
  0
SPLINE
  5
A21
330
A02
100
AcDbEntity
  8
ProjItem001
100
AcDbSpline
210
0
220
0
230
1
 70
8
 71
1
 72
17
 73
15
 74
0
 40
1.570796327
 40
1.570796327
 40
1.795195802
 40
2.019595277
 40
2.243994753
 40
2.468394228
 40
2.692793703
 40
2.917193178
 40
3.141592654
 40
3.365992129
 40
3.590391604
 40
3.814791079
 40
4.039190555
 40
4.263590030
 40
4.487989505
 40
4.712388980
 40
4.712388980
 10
161.500000000
 20
102.000000000
 30
0.000000000
 10
161.500000000
 20
101.623918683
 30
0.000000000
 10
161.500000000
 20
100.514533019
 30
0.000000000
 10
161.500000000
 20
98.727472237
 30
0.000000000
 10
161.500000000
 20
96.352347028
 30
0.000000000
 10
161.500000000
 20
93.508256087
 30
0.000000000
 10
161.500000000
 20
90.337814009
 30
0.000000000
 10
161.500000000
 20
87.000000000
 30
0.000000000
 10
161.500000000
 20
83.662185991
 30
0.000000000
 10
161.500000000
 20
80.491743913
 30
0.000000000
 10
161.500000000
 20
77.647652972
 30
0.000000000
 10
161.500000000
 20
75.272527763
 30
0.000000000
 10
161.500000000
 20
73.485466981
 30
0.000000000
 10
161.500000000
 20
72.376081317
 30
0.000000000
 10
161.500000000
 20
72.000000000
 30
0.000000000
  0
SPLINE
  5
A22
330
A02
100
AcDbEntity
  8
ProjItem001
100
AcDbSpline
210
0
220
0
230
1
 70
8
 71
1
 72
17
 73
15
 74
0
 40
4.712388980
 40
4.712388980
 40
4.824588718
 40
4.936788456
 40
5.048988193
 40
5.161187931
 40
5.273387669
 40
5.385587406
 40
5.497787144
 40
5.609986881
 40
5.722186619
 40
5.834386357
 40
5.946586094
 40
6.058785832
 40
6.170985570
 40
6.283185307
 40
6.283185307
 10
161.500000000
 20
72.000000000
 30
0.000000000
 10
161.500000000
 20
72.094316852
 30
0.000000000
 10
161.500000000
 20
72.376081317
 30
0.000000000
 10
161.500000000
 20
72.841750045
 30
0.000000000
 10
161.500000000
 20
73.485466981
 30
0.000000000
 10
161.500000000
 20
74.299137012
 30
0.000000000
 10
161.500000000
 20
75.272527763
 30
0.000000000
 10
161.500000000
 20
76.393398282
 30
0.000000000
 10
161.500000000
 20
77.647652972
 30
0.000000000
 10
161.500000000
 20
79.019518852
 30
0.000000000
 10
161.500000000
 20
80.491743913
 30
0.000000000
 10
161.500000000
 20
82.045814071
 30
0.000000000
 10
161.500000000
 20
83.662185991
 30
0.000000000
 10
161.500000000
 20
85.320532858
 30
0.000000000
 10
161.500000000
 20
87.000000000
 30
0.000000000
  0
SPLINE
  5
A23
330
A02
100
AcDbEntity
  8
ProjItem001
100
AcDbSpline
210
0
220
0
230
1
 70
8
 71
1
 72
17
 73
15
 74
0
 40
0.000000000
 40
0.000000000
 40
0.112199738
 40
0.224399475
 40
0.336599213
 40
0.448798951
 40
0.560998688
 40
0.673198426
 40
0.785398163
 40
0.897597901
 40
1.009797639
 40
1.121997376
 40
1.234197114
 40
1.346396852
 40
1.458596589
 40
1.570796327
 40
1.570796327
 10
131.500000000
 20
87.000000000
 30
0.000000000
 10
131.500000000
 20
88.679467142
 30
0.000000000
 10
131.500000000
 20
90.337814009
 30
0.000000000
 10
131.500000000
 20
91.954185929
 30
0.000000000
 10
131.500000000
 20
93.508256087
 30
0.000000000
 10
131.500000000
 20
94.980481148
 30
0.000000000
 10
131.500000000
 20
96.352347028
 30
0.000000000
 10
131.500000000
 20
97.606601718
 30
0.000000000
 10
131.500000000
 20
98.727472237
 30
0.000000000
 10
131.500000000
 20
99.700862988
 30
0.000000000
 10
131.500000000
 20
100.514533019
 30
0.000000000
 10
131.500000000
 20
101.158249955
 30
0.000000000
 10
131.500000000
 20
101.623918683
 30
0.000000000
 10
131.500000000
 20
101.905683148
 30
0.000000000
 10
131.500000000
 20
102.000000000
 30
0.000000000
  0
SPLINE
  5
A24
330
A02
100
AcDbEntity
  8
ProjItem001
100
AcDbSpline
210
0
220
0
230
1
 70
8
 71
1
 72
17
 73
15
 74
0
 40
4.712388980
 40
4.712388980
 40
4.824588718
 40
4.936788456
 40
5.048988193
 40
5.161187931
 40
5.273387669
 40
5.385587406
 40
5.497787144
 40
5.609986881
 40
5.722186619
 40
5.834386357
 40
5.946586094
 40
6.058785832
 40
6.170985570
 40
6.283185307
 40
6.283185307
 10
131.500000000
 20
72.000000000
 30
0.000000000
 10
131.500000000
 20
72.094316852
 30
0.000000000
 10
131.500000000
 20
72.376081317
 30
0.000000000
 10
131.500000000
 20
72.841750045
 30
0.000000000
 10
131.500000000
 20
73.485466981
 30
0.000000000
 10
131.500000000
 20
74.299137012
 30
0.000000000
 10
131.500000000
 20
75.272527763
 30
0.000000000
 10
131.500000000
 20
76.393398282
 30
0.000000000
 10
131.500000000
 20
77.647652972
 30
0.000000000
 10
131.500000000
 20
79.019518852
 30
0.000000000
 10
131.500000000
 20
80.491743913
 30
0.000000000
 10
131.500000000
 20
82.045814071
 30
0.000000000
 10
131.500000000
 20
83.662185991
 30
0.000000000
 10
131.500000000
 20
85.320532858
 30
0.000000000
 10
131.500000000
 20
87.000000000
 30
0.000000000
  0
LINE
  5
A25
330
A02
100
AcDbEntity
  8
ProjItem001
100
AcDbLine
 10
130.500000000
 20
87.000000000
 30
0.000000000
 11
197.500000000
 21
87.000000000
 31
0.000000000
  0
CIRCLE
  5
A26
330
A02
100
AcDbEntity
  8
ProjItem002
100
AcDbCircle
 10
88.500000000
 20
155.000000000
 30
0.000000000
 40
25.000000000
  0
CIRCLE
  5
A27
330
A02
100
AcDbEntity
  8
ProjItem002
100
AcDbCircle
 10
88.500000000
 20
155.000000000
 30
0.000000000
 40
25.000000000
  0
CIRCLE
  5
A28
330
A02
100
AcDbEntity
  8
ProjItem002
100
AcDbCircle
 10
88.500000000
 20
155.000000000
 30
0.000000000
 40
15.000000000
  0
CIRCLE
  5
A29
330
A02
100
AcDbEntity
  8
ProjItem002
100
AcDbCircle
 10
88.500000000
 20
155.000000000
 30
0.000000000
 40
15.000000000
  0
LINE
  5
A2A
330
A02
100
AcDbEntity
  8
ProjItem002
100
AcDbLine
 10
60.500000000
 20
155.000000000
 30
0.000000000
 11
116.500000000
 21
155.000000000
 31
0.000000000
  0
LINE
  5
A2B
330
A02
100
AcDbEntity
  8
ProjItem002
100
AcDbLine
 10
88.500000000
 20
127.000000000
 30
0.000000000
 11
88.500000000
 21
183.000000000
 31
0.000000000
  0
DIMENSION
  5
A2C
330
A02
100
AcDbEntity
  8
DimDia0
100
AcDbDimension
  2
*DimDia0
 10
108.669584499
 20
169.771183472
 30
0.000000000
 11
125.500000000
 21
188.000000000
 31
0.000000000
 70
3
  1
⌀50
  3
STANDARD
100
AcDbDiametricDimension
 15
68.330415501
 25
140.228816528
 35
0.000000000
 40
0
  0
DIMENSION
  5
A34
330
A02
100
AcDbEntity
  8
DimDia2
100
AcDbDimension
  2
*DimDia2
 10
100.990943406
 20
163.305199144
 30
0.000000000
 11
141.500000000
 21
196.000000000
 31
0.000000000
 70
3
  1
⌀30
  3
STANDARD
100
AcDbDiametricDimension
 15
76.009056594
 25
146.694800856
 35
0.000000000
 40
0
  0
DIMENSION
  5
A3C
330
A02
100
AcDbEntity
  8
DimWidth
100
AcDbDimension
  2
*DimWidth
 10
161.379512872
 20
187.741708416
 30
0.000000000
 11
164.000000000
 21
192.000000000
 31
0.000000000
 70
32
  1
65
  3
STANDARD
100
AcDbAlignedDimension
 13
131.500000000
 23
140.000000000
 33
0.000000000
 14
196.500000000
 24
180.000000000
 34
0.000000000
100
AcDbRotatedDimension
  0
ENDSEC
  0
SECTION
  2
OBJECTS
  0
DICTIONARY
  5
F000
330
0
100
AcDbDictionary
  3
ACAD_GROUP
350
F001
  0
DICTIONARY
  5
F001
330
F000
100
AcDbDictionary
  0
ENDSEC
  0
EOF