<svg xmlns="http://www.w3.org/2000/svg" width="1400" height="900" viewBox="0 0 1400 900">
<rect width="100%" height="100%" fill="#ffffff"/>
<text x="45" y="48" font-family="DejaVu Sans,Arial,sans-serif" font-size="26px" font-weight="bold" fill="#0f172a">TECHNICAL DRAWING  |  TASK-06</text>
<text x="45" y="82" font-family="DejaVu Sans,Arial,sans-serif" font-size="23px" font-weight="bold" fill="#1d4ed8">Stepped base with a single blind hole</text>
<text x="45" y="112" font-family="DejaVu Sans,Arial,sans-serif" font-size="15px" font-weight="normal" fill="#334155">FreeCAD TechDraw orthographic evidence | Units: mm | Right-handed XYZ datum</text>
<rect x="35" y="145" width="300" height="290" fill="#f8fafc" stroke="#94a3b8" stroke-width="2"/>
<text x="50" y="174" font-family="DejaVu Sans,Arial,sans-serif" font-size="15px" font-weight="bold" fill="#0f172a">TOP</text>
<g transform="translate(185.000,285.000) scale(2.272727,-2.272727)"><g fill="none" stroke="#000000" stroke-opacity="1" stroke-width="0.7" stroke-linecap="butt" stroke-linejoin="miter" stroke-miterlimit="4">
<path id= "1" d=" M -55 35 L -55 -35 " />
<path id= "2" d=" M -55 35 L 55 35 " />
<path id= "3" d=" M 55 35 L 55 -35 " />
<path id= "4" d=" M -55 -35 L 55 -35 " />
<path id= "5" d=" M -35 22.5 L -35 -22.5 " />
<path id= "6" d=" M -35 22.5 L 35 22.5 " />
<path id= "7" d=" M 35 22.5 L 35 -22.5 " />
<path id= "8" d=" M -35 -22.5 L 35 -22.5 " />
<circle cx ="0" cy ="0" r ="9" /></g>
<g fill="none" stroke="#000000" stroke-opacity="1" stroke-width="0.35" stroke-linecap="butt" stroke-linejoin="miter" stroke-miterlimit="4">
<path id= "1" d=" M -55 35 L -55 -35 " />
<path id= "2" d=" M -55 35 L 55 35 " />
<path id= "3" d=" M -35 22.5 L -35 -22.5 " />
<path id= "4" d=" M -35 -22.5 L 35 -22.5 " />
<path id= "5" d=" M 35 22.5 L 35 -22.5 " />
<path id= "6" d=" M -35 22.5 L 35 22.5 " />
<path id= "7" d=" M -55 -35 L 55 -35 " />
<path id= "8" d=" M 55 35 L 55 -35 " />
<circle cx ="0" cy ="0" r ="9" /></g>
</g>
<line x1="60" y1="285" x2="310" y2="285" stroke="#cbd5e1" stroke-width="1" stroke-dasharray="6 5"/>
<line x1="185" y1="190" x2="185" y2="380" stroke="#cbd5e1" stroke-width="1" stroke-dasharray="6 5"/>
<rect x="365" y="145" width="300" height="290" fill="#f8fafc" stroke="#94a3b8" stroke-width="2"/>
<text x="380" y="174" font-family="DejaVu Sans,Arial,sans-serif" font-size="15px" font-weight="bold" fill="#0f172a">FRONT</text>
<g transform="translate(515.000,285.000) scale(2.272727,-2.272727)"><g fill="none" stroke="#000000" stroke-opacity="1" stroke-width="0.7" stroke-linecap="butt" stroke-linejoin="miter" stroke-miterlimit="4">
<path id= "1" d=" M -55 -16 L -55 -6 " />
<path id= "2" d=" M -55 -6 L 55 -6 " />
<path id= "3" d=" M -55 -16 L 55 -16 " />
<path id= "4" d=" M 55 -16 L 55 -6 " />
<path id= "5" d=" M -35 -6 L -35 16 " />
<path id= "6" d=" M 35 -6 L 35 16 " />
<path id= "7" d=" M -35 16 L 35 16 " />
</g>
<g fill="none" stroke="#000000" stroke-opacity="1" stroke-width="0.35" stroke-linecap="butt" stroke-linejoin="miter" stroke-miterlimit="4">
<path id= "1" d=" M -55 -16 L -55 -6 " />
<path id= "2" d=" M -55 -16 L 55 -16 " />
<path id= "3" d=" M -55 -6 L 55 -6 " />
<path id= "4" d=" M 55 -16 L 55 -6 " />
<path id= "5" d=" M -35 -6 L 35 -6 " />
<path id= "6" d=" M -35 -6 L 35 -6 " />
<path id= "7" d=" M -35 -6 L -35 16 " />
<path id= "8" d=" M -35 16 L 35 16 " />
<path id= "9" d=" M 35 -6 L 35 16 " />
<path d="M9, 16 L8.77435, 16  L8.10872, 16  L7.03648, 16  L5.61141, 16  L3.90495, 16  L2.00269, 16  L0, 16  L-2.00269, 16  L-3.90495, 16  L-5.61141, 16  L-7.03648, 16  L-8.10872, 16  L-8.77435, 16  L-9, 16 " /><path d="M-9, 16 L-8.77435, 16  L-8.10872, 16  L-7.03648, 16  L-5.61141, 16  L-3.90495, 16  L-2.00269, 16  L0, 16  L2.00269, 16  L3.90495, 16  L5.61141, 16  L7.03648, 16  L8.10872, 16  L8.77435, 16  L9, 16 " /><path id= "12" d=" M 9 2 L 9 16 " />
<path d="M9, 2 L8.77435, 2  L8.10872, 2  L7.03648, 2  L5.61141, 2  L3.90495, 2  L2.00269, 2  L0, 2  L-2.00269, 2  L-3.90495, 2  L-5.61141, 2  L-7.03648, 2  L-8.10872, 2  L-8.77435, 2  L-9, 2 " /><path d="M-9, 2 L-8.77435, 2  L-8.10872, 2  L-7.03648, 2  L-5.61141, 2  L-3.90495, 2  L-2.00269, 2  L0, 2  L2.00269, 2  L3.90495, 2  L5.61141, 2  L7.03648, 2  L8.10872, 2  L8.77435, 2  L9, 2 " /><path id= "1" d=" M -9 2 L -9 16 " />
</g>
</g>
<line x1="390" y1="285" x2="640" y2="285" stroke="#cbd5e1" stroke-width="1" stroke-dasharray="6 5"/>
<line x1="515" y1="190" x2="515" y2="380" stroke="#cbd5e1" stroke-width="1" stroke-dasharray="6 5"/>
<rect x="695" y="145" width="300" height="290" fill="#f8fafc" stroke="#94a3b8" stroke-width="2"/>
<text x="710" y="174" font-family="DejaVu Sans,Arial,sans-serif" font-size="15px" font-weight="bold" fill="#0f172a">RIGHT</text>
<g transform="translate(845.000,285.000) scale(2.642857,-2.642857)"><g fill="none" stroke="#000000" stroke-opacity="1" stroke-width="0.7" stroke-linecap="butt" stroke-linejoin="miter" stroke-miterlimit="4">
<path id= "1" d=" M -16 -35 L -6 -35 " />
<path id= "2" d=" M -6 -35 L -6 35 " />
<path id= "3" d=" M -16 35 L -6 35 " />
<path id= "4" d=" M -16 -35 L -16 35 " />
<path id= "5" d=" M -6 -22.5 L 16 -22.5 " />
<path id= "6" d=" M -6 22.5 L 16 22.5 " />
<path id= "7" d=" M 16 -22.5 L 16 22.5 " />
</g>
<g fill="none" stroke="#000000" stroke-opacity="1" stroke-width="0.35" stroke-linecap="butt" stroke-linejoin="miter" stroke-miterlimit="4">
<path id= "1" d=" M -16 -35 L -6 -35 " />
<path id= "2" d=" M -16 -35 L -16 35 " />
<path id= "3" d=" M -16 35 L -6 35 " />
<path id= "4" d=" M -6 -35 L -6 35 " />
<path id= "5" d=" M -6 -22.5 L -6 22.5 " />
<path id= "6" d=" M -6 -22.5 L -6 22.5 " />
<path id= "7" d=" M -6 -22.5 L 16 -22.5 " />
<path id= "8" d=" M -6 22.5 L 16 22.5 " />
<path id= "9" d=" M 16 -22.5 L 16 22.5 " />
<path d="M16, 0 L16, 1.00768  L16, 2.00269  L16, 2.97251  L16, 3.90495  L16, 4.78829  L16, 5.61141  L16, 6.36396  L16, 7.03648  L16, 7.62052  L16, 8.10872  L16, 8.49495  L16, 8.77435  L16, 8.94341  L16, 9 " /><path d="M16, 9 L16, 8.77435  L16, 8.10872  L16, 7.03648  L16, 5.61141  L16, 3.90495  L16, 2.00269  L16, 0  L16, -2.00269  L16, -3.90495  L16, -5.61141  L16, -7.03648  L16, -8.10872  L16, -8.77435  L16, -9 " /><path d="M16, -9 L16, -8.94341  L16, -8.77435  L16, -8.49495  L16, -8.10872  L16, -7.62052  L16, -7.03648  L16, -6.36396  L16, -5.61141  L16, -4.78829  L16, -3.90495  L16, -2.97251  L16, -2.00269  L16, -1.00768  L16, 0 " /><path d="M2, 0 L2, 1.00768  L2, 2.00269  L2, 2.97251  L2, 3.90495  L2, 4.78829  L2, 5.61141  L2, 6.36396  L2, 7.03648  L2, 7.62052  L2, 8.10872  L2, 8.49495  L2, 8.77435  L2, 8.94341  L2, 9 " /><path d="M2, 9 L2, 8.77435  L2, 8.10872  L2, 7.03648  L2, 5.61141  L2, 3.90495  L2, 2.00269  L2, 0  L2, -2.00269  L2, -3.90495  L2, -5.61141  L2, -7.03648  L2, -8.10872  L2, -8.77435  L2, -9 " /><path d="M2, -9 L2, -8.94341  L2, -8.77435  L2, -8.49495  L2, -8.10872  L2, -7.62052  L2, -7.03648  L2, -6.36396  L2, -5.61141  L2, -4.78829  L2, -3.90495  L2, -2.97251  L2, -2.00269  L2, -1.00768  L2, 0 " /><path id= "1" d=" M 2 9 L 16 9 " />
<path id= "2" d=" M 2 -9 L 16 -9 " />
<path id= "1" d=" M 2 0 L 16 0 " />
</g>
</g>
<line x1="720" y1="285" x2="970" y2="285" stroke="#cbd5e1" stroke-width="1" stroke-dasharray="6 5"/>
<line x1="845" y1="190" x2="845" y2="380" stroke="#cbd5e1" stroke-width="1" stroke-dasharray="6 5"/>
<rect x="1025" y="145" width="300" height="290" fill="#f8fafc" stroke="#94a3b8" stroke-width="2"/>
<text x="1040" y="174" font-family="DejaVu Sans,Arial,sans-serif" font-size="15px" font-weight="bold" fill="#0f172a">ISOMETRIC</text>
<g transform="translate(1175.000,288.190) scale(1.562606,-1.562606)"><g fill="none" stroke="#000000" stroke-opacity="1" stroke-width="0.7" stroke-linecap="butt" stroke-linejoin="miter" stroke-miterlimit="4">
<path id= "1" d=" M -57.1548 31.643 L -61.2372 24.572 " />
<path id= "2" d=" M -61.2372 24.572 L -47.9692 1.59099 " />
<path id= "3" d=" M -57.1548 31.643 L 32.6599 31.643 " />
<path id= "4" d=" M -61.2372 24.572 L 28.5774 24.572 " />
<path id= "5" d=" M 32.6599 31.643 L 28.5774 24.572 " />
<path id= "6" d=" M 28.5774 24.572 L 57.1548 -24.9255 " />
<path id= "7" d=" M 30.6186 -24.9255 L 57.1548 -24.9255 " />
<path id= "8" d=" M 17.3506 15.7331 L 35.7217 -16.0867 " />
<path id= "9" d=" M -39.8042 15.7331 L 17.3506 15.7331 " />
<path id= "10" d=" M 61.2372 -17.8544 L 57.1548 -24.9255 " />
<path id= "11" d=" M 32.6599 31.643 L 61.2372 -17.8544 " />
<path id= "12" d=" M -39.8042 15.7331 L -48.7857 0.176777 " />
<path id= "13" d=" M -48.7857 0.176777 L -30.4145 -31.643 " />
<path id= "14" d=" M -48.7857 0.176777 L 8.36909 0.176777 " />
<path id= "15" d=" M 17.3506 15.7331 L 8.36909 0.176777 " />
<path id= "16" d=" M 35.7217 -16.0867 L 26.7403 -31.643 " />
<path id= "17" d=" M 8.36909 0.176777 L 26.7403 -31.643 " />
<path id= "18" d=" M -30.4145 -31.643 L 26.7403 -31.643 " />
<path d="M-3.67423 -15.7331 A9 5.19615 -30 0 0 -3.22848 -20.2331" />
<path d="M-3.22848 -20.2331 A9 5.19615 -30 0 0 -18.8169 -11.2331" />
<path d="M-18.8169 -11.2331 A9 5.19615 -30 0 0 -3.67423 -15.7331" />
</g>
<g fill="none" stroke="#000000" stroke-opacity="1" stroke-width="0.35" stroke-linecap="butt" stroke-linejoin="miter" stroke-miterlimit="4">
<path id= "1" d=" M -57.1548 31.643 L -28.5774 -17.8544 " />
<path id= "2" d=" M -28.5774 -17.8544 L -32.6599 -24.9255 " />
<path id= "3" d=" M -47.9692 1.59099 L -32.6599 -24.9255 " />
<path id= "4" d=" M -32.6599 -24.9255 L 30.6186 -24.9255 " />
<path id= "5" d=" M -39.8042 15.7331 L -21.433 -16.0867 " />
<path id= "6" d=" M -21.433 -16.0867 L 35.7217 -16.0867 " />
<path id= "7" d=" M -28.5774 -17.8544 L 61.2372 -17.8544 " />
<path id= "8" d=" M -21.433 -16.0867 L -30.4145 -31.643 " />
<path d="M2.04124 -5.83363 A9 5.19615 -30 0 0 2.487 -10.3336" />
<path d="M2.487 -10.3336 A9 5.19615 -30 0 0 -13.1015 -1.33363" />
<path d="M-13.1015 -1.33363 A9 5.19615 -30 0 0 2.04124 -5.83363" />
<path id= "1" d=" M 2.487 -10.3336 L -3.22848 -20.2331 " />
<path id= "2" d=" M -13.1015 -1.33363 L -18.8169 -11.2331 " />
<path id= "1" d=" M 2.04124 -5.83363 L -3.67423 -15.7331 " />
</g>
</g>
<line x1="1050" y1="285" x2="1300" y2="285" stroke="#cbd5e1" stroke-width="1" stroke-dasharray="6 5"/>
<line x1="1175" y1="190" x2="1175" y2="380" stroke="#cbd5e1" stroke-width="1" stroke-dasharray="6 5"/>
<rect x="35" y="470" width="1330" height="300" fill="#ffffff" stroke="#94a3b8" stroke-width="2"/>
<text x="55" y="500" font-family="DejaVu Sans,Arial,sans-serif" font-size="16px" font-weight="bold" fill="#1d4ed8">NOMINAL DIMENSIONS AND MANUFACTURING NOTES</text>
<text x="55" y="532" font-family="DejaVu Sans,Arial,sans-serif" font-size="16px" font-weight="bold" fill="#111827">Envelope: X=110.000 | Y=70.000 | Z=32.000</text>
<text x="55" y="560" font-family="DejaVu Sans,Arial,sans-serif" font-size="15px" font-weight="normal" fill="#334155">Family: stepped_base | Single valid solid required | Position follows drawing datum</text>
<text x="55" y="595" font-family="DejaVu Sans,Arial,sans-serif" font-size="14px" font-weight="normal" fill="#334155">Base 110 x 70 x 10 mm; centered upper step origin (20,12.5,10), size 70 x 45 x 22 mm. Exactly one blind hole H1:</text>
<text x="55" y="619" font-family="DejaVu Sans,Arial,sans-serif" font-size="14px" font-weight="normal" fill="#334155">center (55,35,32), diameter 18, axis -Z, depth 14, bottom z=18; it is not through.</text>
<text x="55" y="649" font-family="DejaVu Sans,Arial,sans-serif" font-size="15px" font-weight="bold" fill="#1d4ed8">Semantic checks:</text>
<text x="70" y="675" font-family="DejaVu Sans,Arial,sans-serif" font-size="14px" font-weight="normal" fill="#334155">• single fused stepped solid</text>
<text x="70" y="699" font-family="DejaVu Sans,Arial,sans-serif" font-size="14px" font-weight="normal" fill="#334155">• exactly one diameter-18 blind hole at (55,35,32), depth 14, bottom z=18</text>
<text x="70" y="723" font-family="DejaVu Sans,Arial,sans-serif" font-size="14px" font-weight="normal" fill="#334155">• upper step is centered on the base and the hole does not reach the base</text>
<text x="945" y="532" font-family="DejaVu Sans,Arial,sans-serif" font-size="15px" font-weight="bold" fill="#1d4ed8">PROJECTION / DATUM</text>
<text x="945" y="560" font-family="DejaVu Sans,Arial,sans-serif" font-size="14px" font-weight="normal" fill="#334155">O=(0,0,0)</text>
<text x="945" y="584" font-family="DejaVu Sans,Arial,sans-serif" font-size="14px" font-weight="normal" fill="#334155">+Z is the stated thickness/axis direction</text>
<text x="945" y="608" font-family="DejaVu Sans,Arial,sans-serif" font-size="14px" font-weight="normal" fill="#334155">Redraw from the views and dimensions;</text>
<text x="945" y="632" font-family="DejaVu Sans,Arial,sans-serif" font-size="14px" font-weight="normal" fill="#334155">do not infer hidden geometry from the title.</text>
<text x="45" y="820" font-family="DejaVu Sans,Arial,sans-serif" font-size="13px" font-weight="normal" fill="#475569">Generated with FreeCAD TechDraw from the canonical solid; SVG/PDF/PNG are evidence renderings, STEP remains the output contract.</text>
</svg>