ISO-10303-21;
HEADER;
FILE_DESCRIPTION(('ViewDefinition[DesignTransferView]'),'2;1');
FILE_NAME('/dev/null','2026-05-22T00:30:56+08:00',(''),(''),'IfcOpenShell 0.8.5','IfcOpenShell 0.8.5','Nobody');
FILE_SCHEMA(('IFC4'));
ENDSEC;
DATA;
#1=IFCPROJECT('00z8xMtxD3dvn2P0847r8V',$,'task-08 Initial Model',$,$,$,$,(#10),#5);
#2=IFCSIUNIT(*,.LENGTHUNIT.,.MILLI.,.METRE.);
#3=IFCSIUNIT(*,.AREAUNIT.,$,.SQUARE_METRE.);
#4=IFCSIUNIT(*,.VOLUMEUNIT.,$,.CUBIC_METRE.);
#5=IFCUNITASSIGNMENT((#4,#2,#3));
#6=IFCCARTESIANPOINT((0.,0.,0.));
#7=IFCDIRECTION((0.,0.,1.));
#8=IFCDIRECTION((1.,0.,0.));
#9=IFCAXIS2PLACEMENT3D(#6,#7,#8);
#10=IFCGEOMETRICREPRESENTATIONCONTEXT($,'Model',3,1.0000000000000001E-05,#9,$);
#11=IFCGEOMETRICREPRESENTATIONSUBCONTEXT('Body','Model',*,*,*,*,#10,$,.MODEL_VIEW.,$);
#12=IFCSITE('0R47eFBaj7Dxzkc_Nl9rrB',$,'Default Site',$,$,$,$,$,$,$,$,$,$,$);
#13=IFCBUILDING('32kx6hfOT5vQlAhlNC8E4a',$,'Bonsai Simple Building',$,$,$,$,$,$,$,$,$);
#14=IFCBUILDINGSTOREY('0E0QVuxXT1Qu0TZzn$EIbD',$,'Ground Floor',$,$,$,$,$,$,$);
#15=IFCRELAGGREGATES('1nfr0ZR_zB0e2k6SbQCyPo',$,$,$,#1,(#12));
#16=IFCRELAGGREGATES('044cCq5Kz7feyDKMibtDPV',$,$,$,#12,(#13));
#17=IFCRELAGGREGATES('3Gya2h$Uz9WQo0bENIYJgH',$,$,$,#13,(#14));
#18=IFCWALL('3E96cZlMX27vUco6fh_qFs',$,'South Wall',$,$,#299,#29,$,$);
#19=IFCCARTESIANPOINTLIST2D(((0.,0.),(0.,200.),(8000.,200.),(8000.,0.),(0.,0.)));
#20=IFCINDEXEDPOLYCURVE(#19,$,.F.);
#21=IFCDIRECTION((0.,0.,1.));
#22=IFCARBITRARYCLOSEDPROFILEDEF(.AREA.,$,#20);
#23=IFCCARTESIANPOINT((0.,0.,0.));
#24=IFCDIRECTION((0.,0.,1.));
#25=IFCDIRECTION((1.,0.,0.));
#26=IFCAXIS2PLACEMENT3D(#23,#24,#25);
#27=IFCEXTRUDEDAREASOLID(#22,#26,#21,3000.);
#28=IFCSHAPEREPRESENTATION(#11,'Body','SweptSolid',(#27));
#29=IFCPRODUCTDEFINITIONSHAPE($,$,(#28));
#35=IFCWALL('2S1q$_V8T9JvXfvKCD8hAM',$,'North Wall',$,$,#339,#46,$,$);
#36=IFCCARTESIANPOINTLIST2D(((0.,0.),(0.,200.),(8000.,200.),(8000.,0.),(0.,0.)));
#37=IFCINDEXEDPOLYCURVE(#36,$,.F.);
#38=IFCDIRECTION((0.,0.,1.));
#39=IFCARBITRARYCLOSEDPROFILEDEF(.AREA.,$,#37);
#40=IFCCARTESIANPOINT((0.,0.,0.));
#41=IFCDIRECTION((0.,0.,1.));
#42=IFCDIRECTION((1.,0.,0.));
#43=IFCAXIS2PLACEMENT3D(#40,#41,#42);
#44=IFCEXTRUDEDAREASOLID(#39,#43,#38,3000.);
#45=IFCSHAPEREPRESENTATION(#11,'Body','SweptSolid',(#44));
#46=IFCPRODUCTDEFINITIONSHAPE($,$,(#45));
#52=IFCWALL('1B217oZ4DDsRQpgzHdwZ9u',$,'West Wall',$,$,#349,#63,$,$);
#53=IFCCARTESIANPOINTLIST2D(((0.,0.),(0.,200.),(5000.,200.),(5000.,0.),(0.,0.)));
#54=IFCINDEXEDPOLYCURVE(#53,$,.F.);
#55=IFCDIRECTION((0.,0.,1.));
#56=IFCARBITRARYCLOSEDPROFILEDEF(.AREA.,$,#54);
#57=IFCCARTESIANPOINT((0.,0.,0.));
#58=IFCDIRECTION((0.,0.,1.));
#59=IFCDIRECTION((1.,0.,0.));
#60=IFCAXIS2PLACEMENT3D(#57,#58,#59);
#61=IFCEXTRUDEDAREASOLID(#56,#60,#55,3000.);
#62=IFCSHAPEREPRESENTATION(#11,'Body','SweptSolid',(#61));
#63=IFCPRODUCTDEFINITIONSHAPE($,$,(#62));
#69=IFCWALL('1MjCnu5VT68wXhipdPAuVu',$,'East Wall',$,$,#294,#80,$,$);
#70=IFCCARTESIANPOINTLIST2D(((0.,0.),(0.,200.),(5000.,200.),(5000.,0.),(0.,0.)));
#71=IFCINDEXEDPOLYCURVE(#70,$,.F.);
#72=IFCDIRECTION((0.,0.,1.));
#73=IFCARBITRARYCLOSEDPROFILEDEF(.AREA.,$,#71);
#74=IFCCARTESIANPOINT((0.,0.,0.));
#75=IFCDIRECTION((0.,0.,1.));
#76=IFCDIRECTION((1.,0.,0.));
#77=IFCAXIS2PLACEMENT3D(#74,#75,#76);
#78=IFCEXTRUDEDAREASOLID(#73,#77,#72,3000.);
#79=IFCSHAPEREPRESENTATION(#11,'Body','SweptSolid',(#78));
#80=IFCPRODUCTDEFINITIONSHAPE($,$,(#79));
#86=IFCWALL('0p4vbXK3L8QBj98QyUS9xX',$,'Interior Partition 1',$,$,#304,#97,$,$);
#87=IFCCARTESIANPOINTLIST2D(((0.,0.),(0.,200.),(5000.,200.),(5000.,0.),(0.,0.)));
#88=IFCINDEXEDPOLYCURVE(#87,$,.F.);
#89=IFCDIRECTION((0.,0.,1.));
#90=IFCARBITRARYCLOSEDPROFILEDEF(.AREA.,$,#88);
#91=IFCCARTESIANPOINT((0.,0.,0.));
#92=IFCDIRECTION((0.,0.,1.));
#93=IFCDIRECTION((1.,0.,0.));
#94=IFCAXIS2PLACEMENT3D(#91,#92,#93);
#95=IFCEXTRUDEDAREASOLID(#90,#94,#89,3000.);
#96=IFCSHAPEREPRESENTATION(#11,'Body','SweptSolid',(#95));
#97=IFCPRODUCTDEFINITIONSHAPE($,$,(#96));
#103=IFCWALL('1Xveex0hL7KAACEV6GoJNI',$,'Interior Partition 2',$,$,#314,#114,$,$);
#104=IFCCARTESIANPOINTLIST2D(((0.,0.),(0.,200.),(5000.,200.),(5000.,0.),(0.,0.)));
#105=IFCINDEXEDPOLYCURVE(#104,$,.F.);
#106=IFCDIRECTION((0.,0.,1.));
#107=IFCARBITRARYCLOSEDPROFILEDEF(.AREA.,$,#105);
#108=IFCCARTESIANPOINT((0.,0.,0.));
#109=IFCDIRECTION((0.,0.,1.));
#110=IFCDIRECTION((1.,0.,0.));
#111=IFCAXIS2PLACEMENT3D(#108,#109,#110);
#112=IFCEXTRUDEDAREASOLID(#107,#111,#106,3000.);
#113=IFCSHAPEREPRESENTATION(#11,'Body','SweptSolid',(#112));
#114=IFCPRODUCTDEFINITIONSHAPE($,$,(#113));
#120=IFCSLAB('3X8D1jSMr6oAEfXSIb1UkO',$,'Ground Slab 1',$,$,#334,#127,$,$);
#121=IFCCARTESIANPOINTLIST2D(((0.,0.),(8000.,0.),(8000.,5000.),(0.,5000.),(0.,0.)));
#122=IFCINDEXEDPOLYCURVE(#121,$,$);
#123=IFCDIRECTION((0.,0.,1.));
#124=IFCARBITRARYCLOSEDPROFILEDEF(.AREA.,$,#122);
#125=IFCEXTRUDEDAREASOLID(#124,$,#123,200.);
#126=IFCSHAPEREPRESENTATION(#11,'Body','SweptSolid',(#125));
#127=IFCPRODUCTDEFINITIONSHAPE($,$,(#126));
#133=IFCSPACE('1zqBcGfcLA8OuRtuOisjp4',$,'Space 1',$,$,#187,#140,$,$,$,$);
#134=IFCCARTESIANPOINTLIST2D(((0.,0.),(2666.6666666666665,0.),(2666.6666666666665,5000.),(0.,5000.),(0.,0.)));
#135=IFCINDEXEDPOLYCURVE(#134,$,$);
#136=IFCDIRECTION((0.,0.,1.));
#137=IFCARBITRARYCLOSEDPROFILEDEF(.AREA.,$,#135);
#138=IFCEXTRUDEDAREASOLID(#137,$,#136,3000.);
#139=IFCSHAPEREPRESENTATION(#11,'Body','SweptSolid',(#138));
#140=IFCPRODUCTDEFINITIONSHAPE($,$,(#139));
#146=IFCSPACE('3sJow7$7L93x$ed0_7jjs0',$,'Space 2',$,$,#182,#153,$,$,$,$);
#147=IFCCARTESIANPOINTLIST2D(((2666.6666666666665,0.),(5333.333333333333,0.),(5333.333333333333,5000.),(2666.6666666666665,5000.),(2666.6666666666665,0.)));
#148=IFCINDEXEDPOLYCURVE(#147,$,$);
#149=IFCDIRECTION((0.,0.,1.));
#150=IFCARBITRARYCLOSEDPROFILEDEF(.AREA.,$,#148);
#151=IFCEXTRUDEDAREASOLID(#150,$,#149,3000.);
#152=IFCSHAPEREPRESENTATION(#11,'Body','SweptSolid',(#151));
#153=IFCPRODUCTDEFINITIONSHAPE($,$,(#152));
#159=IFCSPACE('3DWj0phA58FxrIAfNXluUP',$,'Space 3',$,$,#177,#166,$,$,$,$);
#160=IFCCARTESIANPOINTLIST2D(((5333.333333333333,0.),(8000.,0.),(8000.,5000.),(5333.333333333333,5000.),(5333.333333333333,0.)));
#161=IFCINDEXEDPOLYCURVE(#160,$,$);
#162=IFCDIRECTION((0.,0.,1.));
#163=IFCARBITRARYCLOSEDPROFILEDEF(.AREA.,$,#161);
#164=IFCEXTRUDEDAREASOLID(#163,$,#162,3000.);
#165=IFCSHAPEREPRESENTATION(#11,'Body','SweptSolid',(#164));
#166=IFCPRODUCTDEFINITIONSHAPE($,$,(#165));
#172=IFCRELAGGREGATES('08HS6DWzPCkBBFeqR6ZZ2q',$,$,$,#14,(#159,#146,#133));
#173=IFCCARTESIANPOINT((0.,0.,0.));
#174=IFCDIRECTION((0.,0.,1.));
#175=IFCDIRECTION((1.,0.,0.));
#176=IFCAXIS2PLACEMENT3D(#173,#174,#175);
#177=IFCLOCALPLACEMENT($,#176);
#178=IFCCARTESIANPOINT((0.,0.,0.));
#179=IFCDIRECTION((0.,0.,1.));
#180=IFCDIRECTION((1.,0.,0.));
#181=IFCAXIS2PLACEMENT3D(#178,#179,#180);
#182=IFCLOCALPLACEMENT($,#181);
#183=IFCCARTESIANPOINT((0.,0.,0.));
#184=IFCDIRECTION((0.,0.,1.));
#185=IFCDIRECTION((1.,0.,0.));
#186=IFCAXIS2PLACEMENT3D(#183,#184,#185);
#187=IFCLOCALPLACEMENT($,#186);
#188=IFCDOOR('1vPCnnSUv4MOkiF8dsLVcf',$,'Door 1',$,$,#289,#198,$,2.1000000000000001,0.90000000000000002,$,$,$);
#189=IFCCARTESIANPOINTLIST3D(((0.,0.,0.),(900.,0.,0.),(900.,80.,0.),(0.,80.,0.),(0.,0.,2100.),(900.,0.,2100.),(900.,80.,2100.),(0.,80.,2100.)));
#190=IFCINDEXEDPOLYGONALFACE((1,2,3,4));
#191=IFCINDEXEDPOLYGONALFACE((5,8,7,6));
#192=IFCINDEXEDPOLYGONALFACE((1,5,6,2));
#193=IFCINDEXEDPOLYGONALFACE((2,6,7,3));
#194=IFCINDEXEDPOLYGONALFACE((3,7,8,4));
#195=IFCINDEXEDPOLYGONALFACE((4,8,5,1));
#196=IFCPOLYGONALFACESET(#189,$,(#190,#191,#192,#193,#194,#195),$);
#197=IFCSHAPEREPRESENTATION(#11,'Body','Tessellation',(#196));
#198=IFCPRODUCTDEFINITIONSHAPE($,$,(#197));
#204=IFCDOOR('0kxvdEJJv4EQ1zmGvebBwB',$,'Door 2',$,$,#344,#214,$,2.1000000000000001,0.90000000000000002,$,$,$);
#205=IFCCARTESIANPOINTLIST3D(((0.,0.,0.),(900.,0.,0.),(900.,80.,0.),(0.,80.,0.),(0.,0.,2100.),(900.,0.,2100.),(900.,80.,2100.),(0.,80.,2100.)));
#206=IFCINDEXEDPOLYGONALFACE((1,2,3,4));
#207=IFCINDEXEDPOLYGONALFACE((5,8,7,6));
#208=IFCINDEXEDPOLYGONALFACE((1,5,6,2));
#209=IFCINDEXEDPOLYGONALFACE((2,6,7,3));
#210=IFCINDEXEDPOLYGONALFACE((3,7,8,4));
#211=IFCINDEXEDPOLYGONALFACE((4,8,5,1));
#212=IFCPOLYGONALFACESET(#205,$,(#206,#207,#208,#209,#210,#211),$);
#213=IFCSHAPEREPRESENTATION(#11,'Body','Tessellation',(#212));
#214=IFCPRODUCTDEFINITIONSHAPE($,$,(#213));
#220=IFCDOOR('09qk_IOz9BRBK12CBhok2f',$,'Door 3',$,$,#329,#230,$,2.1000000000000001,0.90000000000000002,$,$,$);
#221=IFCCARTESIANPOINTLIST3D(((0.,0.,0.),(900.,0.,0.),(900.,80.,0.),(0.,80.,0.),(0.,0.,2100.),(900.,0.,2100.),(900.,80.,2100.),(0.,80.,2100.)));
#222=IFCINDEXEDPOLYGONALFACE((1,2,3,4));
#223=IFCINDEXEDPOLYGONALFACE((5,8,7,6));
#224=IFCINDEXEDPOLYGONALFACE((1,5,6,2));
#225=IFCINDEXEDPOLYGONALFACE((2,6,7,3));
#226=IFCINDEXEDPOLYGONALFACE((3,7,8,4));
#227=IFCINDEXEDPOLYGONALFACE((4,8,5,1));
#228=IFCPOLYGONALFACESET(#221,$,(#222,#223,#224,#225,#226,#227),$);
#229=IFCSHAPEREPRESENTATION(#11,'Body','Tessellation',(#228));
#230=IFCPRODUCTDEFINITIONSHAPE($,$,(#229));
#237=IFCCARTESIANPOINTLIST3D(((0.,0.,0.),(1200.,0.,0.),(1200.,80.,0.),(0.,80.,0.),(0.,0.,1000.),(1200.,0.,1000.),(1200.,80.,1000.),(0.,80.,1000.)));
#238=IFCINDEXEDPOLYGONALFACE((1,2,3,4));
#239=IFCINDEXEDPOLYGONALFACE((5,8,7,6));
#240=IFCINDEXEDPOLYGONALFACE((1,5,6,2));
#241=IFCINDEXEDPOLYGONALFACE((2,6,7,3));
#242=IFCINDEXEDPOLYGONALFACE((3,7,8,4));
#243=IFCINDEXEDPOLYGONALFACE((4,8,5,1));
#244=IFCPOLYGONALFACESET(#237,$,(#238,#239,#240,#241,#242,#243),$);
#245=IFCSHAPEREPRESENTATION(#11,'Body','Tessellation',(#244));
#246=IFCPRODUCTDEFINITIONSHAPE($,$,(#245));
#253=IFCCARTESIANPOINTLIST3D(((0.,0.,0.),(1200.,0.,0.),(1200.,80.,0.),(0.,80.,0.),(0.,0.,1000.),(1200.,0.,1000.),(1200.,80.,1000.),(0.,80.,1000.)));
#254=IFCINDEXEDPOLYGONALFACE((1,2,3,4));
#255=IFCINDEXEDPOLYGONALFACE((5,8,7,6));
#256=IFCINDEXEDPOLYGONALFACE((1,5,6,2));
#257=IFCINDEXEDPOLYGONALFACE((2,6,7,3));
#258=IFCINDEXEDPOLYGONALFACE((3,7,8,4));
#259=IFCINDEXEDPOLYGONALFACE((4,8,5,1));
#260=IFCPOLYGONALFACESET(#253,$,(#254,#255,#256,#257,#258,#259),$);
#261=IFCSHAPEREPRESENTATION(#11,'Body','Tessellation',(#260));
#262=IFCPRODUCTDEFINITIONSHAPE($,$,(#261));
#269=IFCCARTESIANPOINTLIST3D(((0.,0.,0.),(1200.,0.,0.),(1200.,80.,0.),(0.,80.,0.),(0.,0.,1000.),(1200.,0.,1000.),(1200.,80.,1000.),(0.,80.,1000.)));
#270=IFCINDEXEDPOLYGONALFACE((1,2,3,4));
#271=IFCINDEXEDPOLYGONALFACE((5,8,7,6));
#272=IFCINDEXEDPOLYGONALFACE((1,5,6,2));
#273=IFCINDEXEDPOLYGONALFACE((2,6,7,3));
#274=IFCINDEXEDPOLYGONALFACE((3,7,8,4));
#275=IFCINDEXEDPOLYGONALFACE((4,8,5,1));
#276=IFCPOLYGONALFACESET(#269,$,(#270,#271,#272,#273,#274,#275),$);
#277=IFCSHAPEREPRESENTATION(#11,'Body','Tessellation',(#276));
#278=IFCPRODUCTDEFINITIONSHAPE($,$,(#277));
#284=IFCRELCONTAINEDINSPATIALSTRUCTURE('2vs1pDDkz23vOQVqpJsusr',$,$,$,(#188,#69,#18,#86,#103,#220,#120,#35,#204,#52),#14);
#285=IFCCARTESIANPOINT((1550.,-40.,0.));
#286=IFCDIRECTION((0.,0.,1.));
#287=IFCDIRECTION((1.,0.,0.));
#288=IFCAXIS2PLACEMENT3D(#285,#286,#287);
#289=IFCLOCALPLACEMENT($,#288);
#290=IFCCARTESIANPOINT((8000.,0.,0.));
#291=IFCDIRECTION((0.,0.,1.));
#292=IFCDIRECTION((6.123233995736766E-17,1.,0.));
#293=IFCAXIS2PLACEMENT3D(#290,#291,#292);
#294=IFCLOCALPLACEMENT($,#293);
#295=IFCCARTESIANPOINT((0.,0.,0.));
#296=IFCDIRECTION((0.,0.,1.));
#297=IFCDIRECTION((1.,0.,0.));
#298=IFCAXIS2PLACEMENT3D(#295,#296,#297);
#299=IFCLOCALPLACEMENT($,#298);
#300=IFCCARTESIANPOINT((2666.6666666666665,0.,0.));
#301=IFCDIRECTION((0.,0.,1.));
#302=IFCDIRECTION((6.123233995736766E-17,1.,0.));
#303=IFCAXIS2PLACEMENT3D(#300,#301,#302);
#304=IFCLOCALPLACEMENT($,#303);
#305=IFCCARTESIANPOINT((1399.9999999999998,4960.,1200.));
#306=IFCDIRECTION((0.,0.,1.));
#307=IFCDIRECTION((1.,0.,0.));
#308=IFCAXIS2PLACEMENT3D(#305,#306,#307);
#309=IFCLOCALPLACEMENT($,#308);
#310=IFCCARTESIANPOINT((5333.333333333333,0.,0.));
#311=IFCDIRECTION((0.,0.,1.));
#312=IFCDIRECTION((6.123233995736766E-17,1.,0.));
#313=IFCAXIS2PLACEMENT3D(#310,#311,#312);
#314=IFCLOCALPLACEMENT($,#313);
#315=IFCCARTESIANPOINT((5400.,4960.,1200.));
#316=IFCDIRECTION((0.,0.,1.));
#317=IFCDIRECTION((1.,0.,0.));
#318=IFCAXIS2PLACEMENT3D(#315,#316,#317);
#319=IFCLOCALPLACEMENT($,#318);
#320=IFCCARTESIANPOINT((7960.,1899.9999999999998,1200.));
#321=IFCDIRECTION((0.,0.,1.));
#322=IFCDIRECTION((6.123233995736766E-17,1.,0.));
#323=IFCAXIS2PLACEMENT3D(#320,#321,#322);
#324=IFCLOCALPLACEMENT($,#323);
#325=IFCCARTESIANPOINT((5550.,-40.,0.));
#326=IFCDIRECTION((0.,0.,1.));
#327=IFCDIRECTION((1.,0.,0.));
#328=IFCAXIS2PLACEMENT3D(#325,#326,#327);
#329=IFCLOCALPLACEMENT($,#328);
#330=IFCCARTESIANPOINT((0.,0.,0.));
#331=IFCDIRECTION((0.,0.,1.));
#332=IFCDIRECTION((1.,0.,0.));
#333=IFCAXIS2PLACEMENT3D(#330,#331,#332);
#334=IFCLOCALPLACEMENT($,#333);
#335=IFCCARTESIANPOINT((0.,5000.,0.));
#336=IFCDIRECTION((0.,0.,1.));
#337=IFCDIRECTION((1.,0.,0.));
#338=IFCAXIS2PLACEMENT3D(#335,#336,#337);
#339=IFCLOCALPLACEMENT($,#338);
#340=IFCCARTESIANPOINT((3549.9999999999995,-40.,0.));
#341=IFCDIRECTION((0.,0.,1.));
#342=IFCDIRECTION((1.,0.,0.));
#343=IFCAXIS2PLACEMENT3D(#340,#341,#342);
#344=IFCLOCALPLACEMENT($,#343);
#345=IFCCARTESIANPOINT((0.,0.,0.));
#346=IFCDIRECTION((0.,0.,1.));
#347=IFCDIRECTION((6.123233995736766E-17,1.,0.));
#348=IFCAXIS2PLACEMENT3D(#345,#346,#347);
#349=IFCLOCALPLACEMENT($,#348);
ENDSEC;
END-ISO-10303-21;
