ISO-10303-21;
HEADER;
FILE_DESCRIPTION(('ViewDefinition[DesignTransferView]'),'2;1');
FILE_NAME('/dev/null','2026-07-06T19:03:29+08:00',(''),(''),'IfcOpenShell 0.8.4.post1','IfcOpenShell 0.8.4.post1','Nobody');
FILE_SCHEMA(('IFC4'));
ENDSEC;
DATA;
#1=IFCPROJECT('0$s7kqBbL52xM9HcW4KBop',$,'Office shell daylight without overglazing Project',$,$,$,$,(#10),#5);
#2=IFCSIUNIT(*,.LENGTHUNIT.,$,.METRE.);
#3=IFCSIUNIT(*,.AREAUNIT.,$,.SQUARE_METRE.);
#4=IFCSIUNIT(*,.VOLUMEUNIT.,$,.CUBIC_METRE.);
#5=IFCUNITASSIGNMENT((#4,#2,#3));
#6=IFCCARTESIANPOINT((0.,0.,0.));
#7=IFCDIRECTION((0.,0.,1.));
#8=IFCDIRECTION((1.,0.,0.));
#9=IFCAXIS2PLACEMENT3D(#6,#7,#8);
#10=IFCGEOMETRICREPRESENTATIONCONTEXT($,'Model',3,1.E-05,#9,$);
#11=IFCGEOMETRICREPRESENTATIONSUBCONTEXT('Body','Model',*,*,*,*,#10,$,.MODEL_VIEW.,$);
#12=IFCSITE('0bzh4QgZb7d9eaRA9eLN0N',$,'Daylight Optimization Site',$,$,$,$,$,$,$,$,$,$,$);
#13=IFCBUILDING('2QlnbSTLr4s866V7BxlEHf',$,'Benchmark Building',$,$,$,$,$,$,$,$,$);
#14=IFCRELAGGREGATES('2JESA6hgT4IhOm9ndVL0CD',$,$,$,#1,(#12));
#15=IFCRELAGGREGATES('3jNS1zVwXANOwRv5JXi_he',$,$,$,#12,(#13));
#16=IFCBUILDINGSTOREY('27MPRW5IPBjRNJmDmqBQuH',$,'Level 1',$,$,$,$,$,$,0.);
#17=IFCRELAGGREGATES('1NOqy7A2L8WBvEvRXd$lnF',$,$,$,#13,(#16));
#18=IFCWALL('2BBb$1hL57zhaYZFSDuLEp',$,'South Wall',$,$,$,#28,$,$);
#19=IFCCARTESIANPOINTLIST3D(((0.,0.,0.),(8.,0.,0.),(8.,0.2,0.),(0.,0.2,0.),(0.,0.,3.2),(8.,0.,3.2),(8.,0.2,3.2),(0.,0.2,3.2)));
#20=IFCINDEXEDPOLYGONALFACE((1,2,3,4));
#21=IFCINDEXEDPOLYGONALFACE((5,8,7,6));
#22=IFCINDEXEDPOLYGONALFACE((1,5,6,2));
#23=IFCINDEXEDPOLYGONALFACE((2,6,7,3));
#24=IFCINDEXEDPOLYGONALFACE((3,7,8,4));
#25=IFCINDEXEDPOLYGONALFACE((4,8,5,1));
#26=IFCPOLYGONALFACESET(#19,$,(#20,#21,#22,#23,#24,#25),$);
#27=IFCSHAPEREPRESENTATION(#11,'Body','Tessellation',(#26));
#28=IFCPRODUCTDEFINITIONSHAPE($,$,(#27));
#29=IFCRELCONTAINEDINSPATIALSTRUCTURE('35D_GuaID1nvsXT0fxjgQp',$,$,$,(#163,#63,#30,#41,#52,#74,#18,#85,#119,#141,#152,#108,#130),#16);
#30=IFCWALL('3NiqOnDnD4eglEkw5_SSYL',$,'East Wall',$,$,$,#40,$,$);
#31=IFCCARTESIANPOINTLIST3D(((7.8,0.,0.),(8.,0.,0.),(8.,5.,0.),(7.8,5.,0.),(7.8,0.,3.2),(8.,0.,3.2),(8.,5.,3.2),(7.8,5.,3.2)));
#32=IFCINDEXEDPOLYGONALFACE((1,2,3,4));
#33=IFCINDEXEDPOLYGONALFACE((5,8,7,6));
#34=IFCINDEXEDPOLYGONALFACE((1,5,6,2));
#35=IFCINDEXEDPOLYGONALFACE((2,6,7,3));
#36=IFCINDEXEDPOLYGONALFACE((3,7,8,4));
#37=IFCINDEXEDPOLYGONALFACE((4,8,5,1));
#38=IFCPOLYGONALFACESET(#31,$,(#32,#33,#34,#35,#36,#37),$);
#39=IFCSHAPEREPRESENTATION(#11,'Body','Tessellation',(#38));
#40=IFCPRODUCTDEFINITIONSHAPE($,$,(#39));
#41=IFCWALL('0_E$nDwlD7pvDeYhmZM2HP',$,'North Wall',$,$,$,#51,$,$);
#42=IFCCARTESIANPOINTLIST3D(((0.,4.8,0.),(8.,4.8,0.),(8.,5.,0.),(0.,5.,0.),(0.,4.8,3.2),(8.,4.8,3.2),(8.,5.,3.2),(0.,5.,3.2)));
#43=IFCINDEXEDPOLYGONALFACE((1,2,3,4));
#44=IFCINDEXEDPOLYGONALFACE((5,8,7,6));
#45=IFCINDEXEDPOLYGONALFACE((1,5,6,2));
#46=IFCINDEXEDPOLYGONALFACE((2,6,7,3));
#47=IFCINDEXEDPOLYGONALFACE((3,7,8,4));
#48=IFCINDEXEDPOLYGONALFACE((4,8,5,1));
#49=IFCPOLYGONALFACESET(#42,$,(#43,#44,#45,#46,#47,#48),$);
#50=IFCSHAPEREPRESENTATION(#11,'Body','Tessellation',(#49));
#51=IFCPRODUCTDEFINITIONSHAPE($,$,(#50));
#52=IFCWALL('2imp9T7$18ufd$vnPXdFHx',$,'West Wall',$,$,$,#62,$,$);
#53=IFCCARTESIANPOINTLIST3D(((0.,0.,0.),(0.2,0.,0.),(0.2,5.,0.),(0.,5.,0.),(0.,0.,3.2),(0.2,0.,3.2),(0.2,5.,3.2),(0.,5.,3.2)));
#54=IFCINDEXEDPOLYGONALFACE((1,2,3,4));
#55=IFCINDEXEDPOLYGONALFACE((5,8,7,6));
#56=IFCINDEXEDPOLYGONALFACE((1,5,6,2));
#57=IFCINDEXEDPOLYGONALFACE((2,6,7,3));
#58=IFCINDEXEDPOLYGONALFACE((3,7,8,4));
#59=IFCINDEXEDPOLYGONALFACE((4,8,5,1));
#60=IFCPOLYGONALFACESET(#53,$,(#54,#55,#56,#57,#58,#59),$);
#61=IFCSHAPEREPRESENTATION(#11,'Body','Tessellation',(#60));
#62=IFCPRODUCTDEFINITIONSHAPE($,$,(#61));
#63=IFCSLAB('0HiCWnakb3FAvl5cr$MTid',$,'Ground Slab',$,$,$,#73,$,$);
#64=IFCCARTESIANPOINTLIST3D(((0.,0.,0.),(8.,0.,0.),(8.,5.,0.),(0.,5.,0.),(0.,0.,0.18),(8.,0.,0.18),(8.,5.,0.18),(0.,5.,0.18)));
#65=IFCINDEXEDPOLYGONALFACE((1,2,3,4));
#66=IFCINDEXEDPOLYGONALFACE((5,8,7,6));
#67=IFCINDEXEDPOLYGONALFACE((1,5,6,2));
#68=IFCINDEXEDPOLYGONALFACE((2,6,7,3));
#69=IFCINDEXEDPOLYGONALFACE((3,7,8,4));
#70=IFCINDEXEDPOLYGONALFACE((4,8,5,1));
#71=IFCPOLYGONALFACESET(#64,$,(#65,#66,#67,#68,#69,#70),$);
#72=IFCSHAPEREPRESENTATION(#11,'Body','Tessellation',(#71));
#73=IFCPRODUCTDEFINITIONSHAPE($,$,(#72));
#74=IFCSLAB('3Pxxg7AAf7SxbAPO1Eeetq',$,'Roof Slab',$,$,$,#84,$,$);
#75=IFCCARTESIANPOINTLIST3D(((0.,0.,3.2),(8.,0.,3.2),(8.,5.,3.2),(0.,5.,3.2),(0.,0.,3.38),(8.,0.,3.38),(8.,5.,3.38),(0.,5.,3.38)));
#76=IFCINDEXEDPOLYGONALFACE((1,2,3,4));
#77=IFCINDEXEDPOLYGONALFACE((5,8,7,6));
#78=IFCINDEXEDPOLYGONALFACE((1,5,6,2));
#79=IFCINDEXEDPOLYGONALFACE((2,6,7,3));
#80=IFCINDEXEDPOLYGONALFACE((3,7,8,4));
#81=IFCINDEXEDPOLYGONALFACE((4,8,5,1));
#82=IFCPOLYGONALFACESET(#75,$,(#76,#77,#78,#79,#80,#81),$);
#83=IFCSHAPEREPRESENTATION(#11,'Body','Tessellation',(#82));
#84=IFCPRODUCTDEFINITIONSHAPE($,$,(#83));
#85=IFCDOOR('1K2mjK9qb9CPImhznON1r6',$,'ENTRY DOOR',$,$,$,#95,$,2.1,0.899999999999999,$,$,$);
#86=IFCCARTESIANPOINTLIST3D(((3.45,0.03,0.),(4.35,0.03,0.),(4.35,0.17,0.),(3.45,0.17,0.),(3.45,0.03,2.1),(4.35,0.03,2.1),(4.35,0.17,2.1),(3.45,0.17,2.1)));
#87=IFCINDEXEDPOLYGONALFACE((1,2,3,4));
#88=IFCINDEXEDPOLYGONALFACE((5,8,7,6));
#89=IFCINDEXEDPOLYGONALFACE((1,5,6,2));
#90=IFCINDEXEDPOLYGONALFACE((2,6,7,3));
#91=IFCINDEXEDPOLYGONALFACE((3,7,8,4));
#92=IFCINDEXEDPOLYGONALFACE((4,8,5,1));
#93=IFCPOLYGONALFACESET(#86,$,(#87,#88,#89,#90,#91,#92),$);
#94=IFCSHAPEREPRESENTATION(#11,'Body','Tessellation',(#93));
#95=IFCPRODUCTDEFINITIONSHAPE($,$,(#94));
#96=IFCSPACE('3RDOkT1WjEpuV3QHDgDcir',$,'OFFICE',$,$,$,#106,$,$,$,$);
#97=IFCCARTESIANPOINTLIST3D(((0.2,0.2,0.2),(7.8,0.2,0.2),(7.8,4.8,0.2),(0.2,4.8,0.2),(0.2,0.2,3.),(7.8,0.2,3.),(7.8,4.8,3.),(0.2,4.8,3.)));
#98=IFCINDEXEDPOLYGONALFACE((1,2,3,4));
#99=IFCINDEXEDPOLYGONALFACE((5,8,7,6));
#100=IFCINDEXEDPOLYGONALFACE((1,5,6,2));
#101=IFCINDEXEDPOLYGONALFACE((2,6,7,3));
#102=IFCINDEXEDPOLYGONALFACE((3,7,8,4));
#103=IFCINDEXEDPOLYGONALFACE((4,8,5,1));
#104=IFCPOLYGONALFACESET(#97,$,(#98,#99,#100,#101,#102,#103),$);
#105=IFCSHAPEREPRESENTATION(#11,'Body','Tessellation',(#104));
#106=IFCPRODUCTDEFINITIONSHAPE($,$,(#105));
#107=IFCRELAGGREGATES('1b_glvfJb4DAdqFx5Tbe8d',$,$,$,#16,(#96));
#108=IFCWINDOW('2IWaNayKf4DeEso2SSpLQt',$,'OFFICE SOUTH WEST WINDOW',$,$,$,#118,$,1.3,2.,$,$,$);
#109=IFCCARTESIANPOINTLIST3D(((0.9,0.04,0.88),(2.9,0.04,0.88),(2.9,0.16,0.88),(0.9,0.16,0.88),(0.9,0.04,2.18),(2.9,0.04,2.18),(2.9,0.16,2.18),(0.9,0.16,2.18)));
#110=IFCINDEXEDPOLYGONALFACE((1,2,3,4));
#111=IFCINDEXEDPOLYGONALFACE((5,8,7,6));
#112=IFCINDEXEDPOLYGONALFACE((1,5,6,2));
#113=IFCINDEXEDPOLYGONALFACE((2,6,7,3));
#114=IFCINDEXEDPOLYGONALFACE((3,7,8,4));
#115=IFCINDEXEDPOLYGONALFACE((4,8,5,1));
#116=IFCPOLYGONALFACESET(#109,$,(#110,#111,#112,#113,#114,#115),$);
#117=IFCSHAPEREPRESENTATION(#11,'Body','Tessellation',(#116));
#118=IFCPRODUCTDEFINITIONSHAPE($,$,(#117));
#119=IFCWINDOW('1H2h7FA3v1UuVD3tJpL1Wp',$,'OFFICE SOUTH EAST WINDOW',$,$,$,#129,$,1.3,1.8,$,$,$);
#120=IFCCARTESIANPOINTLIST3D(((4.7,0.04,0.88),(6.5,0.04,0.88),(6.5,0.16,0.88),(4.7,0.16,0.88),(4.7,0.04,2.18),(6.5,0.04,2.18),(6.5,0.16,2.18),(4.7,0.16,2.18)));
#121=IFCINDEXEDPOLYGONALFACE((1,2,3,4));
#122=IFCINDEXEDPOLYGONALFACE((5,8,7,6));
#123=IFCINDEXEDPOLYGONALFACE((1,5,6,2));
#124=IFCINDEXEDPOLYGONALFACE((2,6,7,3));
#125=IFCINDEXEDPOLYGONALFACE((3,7,8,4));
#126=IFCINDEXEDPOLYGONALFACE((4,8,5,1));
#127=IFCPOLYGONALFACESET(#120,$,(#121,#122,#123,#124,#125,#126),$);
#128=IFCSHAPEREPRESENTATION(#11,'Body','Tessellation',(#127));
#129=IFCPRODUCTDEFINITIONSHAPE($,$,(#128));
#130=IFCWINDOW('02fOAudb1Fpw3Kir3E_R1o',$,'OFFICE EAST WINDOW',$,$,$,#140,$,1.2,1.55,$,$,$);
#131=IFCCARTESIANPOINTLIST3D(((7.84,1.7,0.95),(7.96,1.7,0.95),(7.96,3.25,0.95),(7.84,3.25,0.95),(7.84,1.7,2.15),(7.96,1.7,2.15),(7.96,3.25,2.15),(7.84,3.25,2.15)));
#132=IFCINDEXEDPOLYGONALFACE((1,2,3,4));
#133=IFCINDEXEDPOLYGONALFACE((5,8,7,6));
#134=IFCINDEXEDPOLYGONALFACE((1,5,6,2));
#135=IFCINDEXEDPOLYGONALFACE((2,6,7,3));
#136=IFCINDEXEDPOLYGONALFACE((3,7,8,4));
#137=IFCINDEXEDPOLYGONALFACE((4,8,5,1));
#138=IFCPOLYGONALFACESET(#131,$,(#132,#133,#134,#135,#136,#137),$);
#139=IFCSHAPEREPRESENTATION(#11,'Body','Tessellation',(#138));
#140=IFCPRODUCTDEFINITIONSHAPE($,$,(#139));
#141=IFCSHADINGDEVICE('0HYK2Lyqn4s8vmfgHlYYuh',$,'SHD OFFICE SOUTH WEST',$,$,$,#151,$,$);
#142=IFCCARTESIANPOINTLIST3D(((0.75,-0.55,2.18),(3.05,-0.55,2.18),(3.05,0.02,2.18),(0.75,0.02,2.18),(0.75,-0.55,2.3),(3.05,-0.55,2.3),(3.05,0.02,2.3),(0.75,0.02,2.3)));
#143=IFCINDEXEDPOLYGONALFACE((1,2,3,4));
#144=IFCINDEXEDPOLYGONALFACE((5,8,7,6));
#145=IFCINDEXEDPOLYGONALFACE((1,5,6,2));
#146=IFCINDEXEDPOLYGONALFACE((2,6,7,3));
#147=IFCINDEXEDPOLYGONALFACE((3,7,8,4));
#148=IFCINDEXEDPOLYGONALFACE((4,8,5,1));
#149=IFCPOLYGONALFACESET(#142,$,(#143,#144,#145,#146,#147,#148),$);
#150=IFCSHAPEREPRESENTATION(#11,'Body','Tessellation',(#149));
#151=IFCPRODUCTDEFINITIONSHAPE($,$,(#150));
#152=IFCSHADINGDEVICE('3vJB80Ty52m9tNFHxN_Wv_',$,'SHD OFFICE SOUTH EAST',$,$,$,#162,$,$);
#153=IFCCARTESIANPOINTLIST3D(((4.55,-0.55,2.18),(6.65,-0.55,2.18),(6.65,0.02,2.18),(4.55,0.02,2.18),(4.55,-0.55,2.3),(6.65,-0.55,2.3),(6.65,0.02,2.3),(4.55,0.02,2.3)));
#154=IFCINDEXEDPOLYGONALFACE((1,2,3,4));
#155=IFCINDEXEDPOLYGONALFACE((5,8,7,6));
#156=IFCINDEXEDPOLYGONALFACE((1,5,6,2));
#157=IFCINDEXEDPOLYGONALFACE((2,6,7,3));
#158=IFCINDEXEDPOLYGONALFACE((3,7,8,4));
#159=IFCINDEXEDPOLYGONALFACE((4,8,5,1));
#160=IFCPOLYGONALFACESET(#153,$,(#154,#155,#156,#157,#158,#159),$);
#161=IFCSHAPEREPRESENTATION(#11,'Body','Tessellation',(#160));
#162=IFCPRODUCTDEFINITIONSHAPE($,$,(#161));
#163=IFCSHADINGDEVICE('2FUXhFFlz908GSH1YlvD01',$,'SHD OFFICE EAST',$,$,$,#173,$,$);
#164=IFCCARTESIANPOINTLIST3D(((7.98,1.55,2.15),(8.45,1.55,2.15),(8.45,3.4,2.15),(7.98,3.4,2.15),(7.98,1.55,2.27),(8.45,1.55,2.27),(8.45,3.4,2.27),(7.98,3.4,2.27)));
#165=IFCINDEXEDPOLYGONALFACE((1,2,3,4));
#166=IFCINDEXEDPOLYGONALFACE((5,8,7,6));
#167=IFCINDEXEDPOLYGONALFACE((1,5,6,2));
#168=IFCINDEXEDPOLYGONALFACE((2,6,7,3));
#169=IFCINDEXEDPOLYGONALFACE((3,7,8,4));
#170=IFCINDEXEDPOLYGONALFACE((4,8,5,1));
#171=IFCPOLYGONALFACESET(#164,$,(#165,#166,#167,#168,#169,#170),$);
#172=IFCSHAPEREPRESENTATION(#11,'Body','Tessellation',(#171));
#173=IFCPRODUCTDEFINITIONSHAPE($,$,(#172));
#174=IFCCARTESIANPOINTLIST3D(((0.9,-0.02,0.88),(2.9,-0.02,0.88),(2.9,0.22,0.88),(0.9,0.22,0.88),(0.9,-0.02,2.18),(2.9,-0.02,2.18),(2.9,0.22,2.18),(0.9,0.22,2.18)));
#175=IFCINDEXEDPOLYGONALFACE((1,4,3,2));
#176=IFCINDEXEDPOLYGONALFACE((5,6,7,8));
#177=IFCINDEXEDPOLYGONALFACE((1,2,6,5));
#178=IFCINDEXEDPOLYGONALFACE((2,3,7,6));
#179=IFCINDEXEDPOLYGONALFACE((3,4,8,7));
#180=IFCINDEXEDPOLYGONALFACE((4,1,5,8));
#181=IFCPOLYGONALFACESET(#174,.T.,(#175,#176,#177,#178,#179,#180),$);
#182=IFCSHAPEREPRESENTATION(#11,'Body','Tessellation',(#181));
#183=IFCPRODUCTDEFINITIONSHAPE($,$,(#182));
#184=IFCOPENINGELEMENT('3l1RMt3MDO0wGeueVejKzZ',$,'Opening for OFFICE SOUTH WEST WINDOW',$,$,$,#183,$,$);
#185=IFCRELVOIDSELEMENT('07SqmSLajGgAZsTB_7cWFJ',$,'South Wall void for OFFICE SOUTH WEST WINDOW',$,#18,#184);
#186=IFCRELFILLSELEMENT('3BiRs$fJ9QAxYVpD$q3Qhy',$,'OFFICE SOUTH WEST WINDOW fills opening',$,#184,#108);
#187=IFCCARTESIANPOINTLIST3D(((4.7,-0.02,0.88),(6.5,-0.02,0.88),(6.5,0.22,0.88),(4.7,0.22,0.88),(4.7,-0.02,2.18),(6.5,-0.02,2.18),(6.5,0.22,2.18),(4.7,0.22,2.18)));
#188=IFCINDEXEDPOLYGONALFACE((1,4,3,2));
#189=IFCINDEXEDPOLYGONALFACE((5,6,7,8));
#190=IFCINDEXEDPOLYGONALFACE((1,2,6,5));
#191=IFCINDEXEDPOLYGONALFACE((2,3,7,6));
#192=IFCINDEXEDPOLYGONALFACE((3,4,8,7));
#193=IFCINDEXEDPOLYGONALFACE((4,1,5,8));
#194=IFCPOLYGONALFACESET(#187,.T.,(#188,#189,#190,#191,#192,#193),$);
#195=IFCSHAPEREPRESENTATION(#11,'Body','Tessellation',(#194));
#196=IFCPRODUCTDEFINITIONSHAPE($,$,(#195));
#197=IFCOPENINGELEMENT('308Hg99DPVI9foR2OLHR55',$,'Opening for OFFICE SOUTH EAST WINDOW',$,$,$,#196,$,$);
#198=IFCRELVOIDSELEMENT('2H2mUnvDLT0P$Un7IEqGqp',$,'South Wall void for OFFICE SOUTH EAST WINDOW',$,#18,#197);
#199=IFCRELFILLSELEMENT('1rTh0TLzLVRRBBJ0XlyLfm',$,'OFFICE SOUTH EAST WINDOW fills opening',$,#197,#119);
#200=IFCCARTESIANPOINTLIST3D(((7.78,1.7,0.95),(8.02,1.7,0.95),(8.02,3.25,0.95),(7.78,3.25,0.95),(7.78,1.7,2.15),(8.02,1.7,2.15),(8.02,3.25,2.15),(7.78,3.25,2.15)));
#201=IFCINDEXEDPOLYGONALFACE((1,4,3,2));
#202=IFCINDEXEDPOLYGONALFACE((5,6,7,8));
#203=IFCINDEXEDPOLYGONALFACE((1,2,6,5));
#204=IFCINDEXEDPOLYGONALFACE((2,3,7,6));
#205=IFCINDEXEDPOLYGONALFACE((3,4,8,7));
#206=IFCINDEXEDPOLYGONALFACE((4,1,5,8));
#207=IFCPOLYGONALFACESET(#200,.T.,(#201,#202,#203,#204,#205,#206),$);
#208=IFCSHAPEREPRESENTATION(#11,'Body','Tessellation',(#207));
#209=IFCPRODUCTDEFINITIONSHAPE($,$,(#208));
#210=IFCOPENINGELEMENT('23aRGWp2LN5uwJLRx77GKf',$,'Opening for OFFICE EAST WINDOW',$,$,$,#209,$,$);
#211=IFCRELVOIDSELEMENT('2iBYybzYjHFPuXox3XMUrn',$,'East Wall void for OFFICE EAST WINDOW',$,#30,#210);
#212=IFCRELFILLSELEMENT('2Vqt304nbKWRykKgNUJy4A',$,'OFFICE EAST WINDOW fills opening',$,#210,#130);
#213=IFCCARTESIANPOINTLIST3D(((3.45,-0.02,0.),(4.35,-0.02,0.),(4.35,0.22,0.),(3.45,0.22,0.),(3.45,-0.02,2.1),(4.35,-0.02,2.1),(4.35,0.22,2.1),(3.45,0.22,2.1)));
#214=IFCINDEXEDPOLYGONALFACE((1,4,3,2));
#215=IFCINDEXEDPOLYGONALFACE((5,6,7,8));
#216=IFCINDEXEDPOLYGONALFACE((1,2,6,5));
#217=IFCINDEXEDPOLYGONALFACE((2,3,7,6));
#218=IFCINDEXEDPOLYGONALFACE((3,4,8,7));
#219=IFCINDEXEDPOLYGONALFACE((4,1,5,8));
#220=IFCPOLYGONALFACESET(#213,.T.,(#214,#215,#216,#217,#218,#219),$);
#221=IFCSHAPEREPRESENTATION(#11,'Body','Tessellation',(#220));
#222=IFCPRODUCTDEFINITIONSHAPE($,$,(#221));
#223=IFCOPENINGELEMENT('0HbbKVR$LQxQB3JUJgzUkq',$,'Opening for ENTRY DOOR',$,$,$,#222,$,$);
#224=IFCRELVOIDSELEMENT('1e5rN$2tTRAvSBt488WLNX',$,'South Wall void for ENTRY DOOR',$,#18,#223);
#225=IFCRELFILLSELEMENT('25KEuqx7PJcB4iU8rn2f9p',$,'ENTRY DOOR fills opening',$,#223,#85);
ENDSEC;
END-ISO-10303-21;
