ISO-10303-21;
HEADER;
FILE_DESCRIPTION(('ViewDefinition[DesignTransferView]'),'2;1');
FILE_NAME('/dev/null','2026-04-21T14:59:41+00:00',(''),(''),'IfcOpenShell 0.8.5','IfcOpenShell 0.8.5','Nobody');
FILE_SCHEMA(('IFC4'));
ENDSEC;
DATA;
#1=IFCPROJECT('2BazOamSz0$BK_mRnFQwlq',$,'revit-v-16-init',$,$,$,$,(#10),#5);
#2=IFCSIUNIT(*,.LENGTHUNIT.,.MILLI.,.METRE.);
#3=IFCSIUNIT(*,.AREAUNIT.,$,.SQUARE_METRE.);
#4=IFCSIUNIT(*,.VOLUMEUNIT.,$,.CUBIC_METRE.);
#5=IFCUNITASSIGNMENT((#3,#4,#2));
#6=IFCCARTESIANPOINT((0.,0.,0.));
#7=IFCDIRECTION((0.,0.,1.));
#8=IFCDIRECTION((1.,0.,0.));
#9=IFCAXIS2PLACEMENT3D(#6,#7,#8);
#10=IFCGEOMETRICREPRESENTATIONCONTEXT($,'Model',3,1.0000000000000001E-05,#9,$);
#11=IFCGEOMETRICREPRESENTATIONSUBCONTEXT('Body','Model',*,*,*,*,#10,$,.MODEL_VIEW.,$);
#12=IFCSITE('1Xmw6G0Zj2GPhiMdXTa7mD',$,'revit-v-16-init Site',$,$,$,$,$,$,$,$,$,$,$);
#13=IFCBUILDING('2stUhXoQD7Pu8QZl4tAviC',$,'revit-v-16-init Building',$,$,$,$,$,$,$,$,$);
#14=IFCRELAGGREGATES('0PiMmOQ7P9AgS3TvMFtVf2',$,$,$,#1,(#12));
#15=IFCRELAGGREGATES('1AbHNGmY5AlfNL936RDBwD',$,$,$,#12,(#13));
#16=IFCBUILDINGSTOREY('2wc8Urq5XD2heoS3yFKvV9',$,'Level 1',$,$,#27,$,$,$,$);
#22=IFCRELAGGREGATES('2xaQdsUbvDCPMIQHW5$cWu',$,$,$,#13,(#28,#16));
#23=IFCCARTESIANPOINT((0.,0.,0.));
#24=IFCDIRECTION((0.,0.,1.));
#25=IFCDIRECTION((1.,0.,0.));
#26=IFCAXIS2PLACEMENT3D(#23,#24,#25);
#27=IFCLOCALPLACEMENT($,#26);
#28=IFCBUILDINGSTOREY('3VMR3V$7jBLv0FZOT_6Ubf',$,'Level 2',$,$,#38,$,$,$,$);
#34=IFCCARTESIANPOINT((0.,0.,3600.));
#35=IFCDIRECTION((0.,0.,1.));
#36=IFCDIRECTION((1.,0.,0.));
#37=IFCAXIS2PLACEMENT3D(#34,#35,#36);
#38=IFCLOCALPLACEMENT($,#37);
#39=IFCSLAB('2x$2wHlE137fdGbWN_55Sz',$,'Level 1 slab',$,$,#60,#49,$,$);
#40=IFCCARTESIANPOINTLIST3D(((0.,0.,0.),(22000.,0.,0.),(22000.,14000.,0.),(0.,14000.,0.),(0.,0.,250.),(22000.,0.,250.),(22000.,14000.,250.),(0.,14000.,250.)));
#41=IFCINDEXEDPOLYGONALFACE((1,2,3,4));
#42=IFCINDEXEDPOLYGONALFACE((5,6,7,8));
#43=IFCINDEXEDPOLYGONALFACE((1,2,6,5));
#44=IFCINDEXEDPOLYGONALFACE((2,3,7,6));
#45=IFCINDEXEDPOLYGONALFACE((3,4,8,7));
#46=IFCINDEXEDPOLYGONALFACE((4,1,5,8));
#47=IFCPOLYGONALFACESET(#40,$,(#41,#42,#43,#44,#45,#46),$);
#48=IFCSHAPEREPRESENTATION(#11,'Body','Tessellation',(#47));
#49=IFCPRODUCTDEFINITIONSHAPE($,$,(#48));
#55=IFCRELCONTAINEDINSPATIALSTRUCTURE('3clpRA4Jz4evchrsWfjCRL',$,$,$,(#82,#39,#61,#124,#103),#16);
#56=IFCCARTESIANPOINT((0.,0.,0.));
#57=IFCDIRECTION((0.,0.,1.));
#58=IFCDIRECTION((1.,0.,0.));
#59=IFCAXIS2PLACEMENT3D(#56,#57,#58);
#60=IFCLOCALPLACEMENT(#27,#59);
#61=IFCWALL('0zCFhOs6r0deJoKUH01V9f',$,'Level 1-shell-south',$,$,#81,#71,$,$);
#62=IFCCARTESIANPOINTLIST3D(((0.,0.,250.),(22000.,0.,250.),(22000.,200.,250.),(0.,200.,250.),(0.,0.,3450.),(22000.,0.,3450.),(22000.,200.,3450.),(0.,200.,3450.)));
#63=IFCINDEXEDPOLYGONALFACE((1,2,3,4));
#64=IFCINDEXEDPOLYGONALFACE((5,6,7,8));
#65=IFCINDEXEDPOLYGONALFACE((1,2,6,5));
#66=IFCINDEXEDPOLYGONALFACE((2,3,7,6));
#67=IFCINDEXEDPOLYGONALFACE((3,4,8,7));
#68=IFCINDEXEDPOLYGONALFACE((4,1,5,8));
#69=IFCPOLYGONALFACESET(#62,$,(#63,#64,#65,#66,#67,#68),$);
#70=IFCSHAPEREPRESENTATION(#11,'Body','Tessellation',(#69));
#71=IFCPRODUCTDEFINITIONSHAPE($,$,(#70));
#77=IFCCARTESIANPOINT((0.,0.,0.));
#78=IFCDIRECTION((0.,0.,1.));
#79=IFCDIRECTION((1.,0.,0.));
#80=IFCAXIS2PLACEMENT3D(#77,#78,#79);
#81=IFCLOCALPLACEMENT(#27,#80);
#82=IFCWALL('1_aoU22Vn1pvueFLE_1Inj',$,'Level 1-shell-north',$,$,#102,#92,$,$);
#83=IFCCARTESIANPOINTLIST3D(((0.,14000.,250.),(22000.,14000.,250.),(22000.,14200.,250.),(0.,14200.,250.),(0.,14000.,3450.),(22000.,14000.,3450.),(22000.,14200.,3450.),(0.,14200.,3450.)));
#84=IFCINDEXEDPOLYGONALFACE((1,2,3,4));
#85=IFCINDEXEDPOLYGONALFACE((5,6,7,8));
#86=IFCINDEXEDPOLYGONALFACE((1,2,6,5));
#87=IFCINDEXEDPOLYGONALFACE((2,3,7,6));
#88=IFCINDEXEDPOLYGONALFACE((3,4,8,7));
#89=IFCINDEXEDPOLYGONALFACE((4,1,5,8));
#90=IFCPOLYGONALFACESET(#83,$,(#84,#85,#86,#87,#88,#89),$);
#91=IFCSHAPEREPRESENTATION(#11,'Body','Tessellation',(#90));
#92=IFCPRODUCTDEFINITIONSHAPE($,$,(#91));
#98=IFCCARTESIANPOINT((0.,0.,0.));
#99=IFCDIRECTION((0.,0.,1.));
#100=IFCDIRECTION((1.,0.,0.));
#101=IFCAXIS2PLACEMENT3D(#98,#99,#100);
#102=IFCLOCALPLACEMENT(#27,#101);
#103=IFCWALL('1dNgk3g7P55wtarauO_9aA',$,'Level 1-shell-west',$,$,#123,#113,$,$);
#104=IFCCARTESIANPOINTLIST3D(((0.,0.,250.),(200.,0.,250.),(200.,14000.,250.),(0.,14000.,250.),(0.,0.,3450.),(200.,0.,3450.),(200.,14000.,3450.),(0.,14000.,3450.)));
#105=IFCINDEXEDPOLYGONALFACE((1,2,3,4));
#106=IFCINDEXEDPOLYGONALFACE((5,6,7,8));
#107=IFCINDEXEDPOLYGONALFACE((1,2,6,5));
#108=IFCINDEXEDPOLYGONALFACE((2,3,7,6));
#109=IFCINDEXEDPOLYGONALFACE((3,4,8,7));
#110=IFCINDEXEDPOLYGONALFACE((4,1,5,8));
#111=IFCPOLYGONALFACESET(#104,$,(#105,#106,#107,#108,#109,#110),$);
#112=IFCSHAPEREPRESENTATION(#11,'Body','Tessellation',(#111));
#113=IFCPRODUCTDEFINITIONSHAPE($,$,(#112));
#119=IFCCARTESIANPOINT((0.,0.,0.));
#120=IFCDIRECTION((0.,0.,1.));
#121=IFCDIRECTION((1.,0.,0.));
#122=IFCAXIS2PLACEMENT3D(#119,#120,#121);
#123=IFCLOCALPLACEMENT(#27,#122);
#124=IFCWALL('1EphyIaiXEdfSMCLwDag34',$,'Level 1-shell-east',$,$,#144,#134,$,$);
#125=IFCCARTESIANPOINTLIST3D(((22000.,0.,250.),(22200.,0.,250.),(22200.,14000.,250.),(22000.,14000.,250.),(22000.,0.,3450.),(22200.,0.,3450.),(22200.,14000.,3450.),(22000.,14000.,3450.)));
#126=IFCINDEXEDPOLYGONALFACE((1,2,3,4));
#127=IFCINDEXEDPOLYGONALFACE((5,6,7,8));
#128=IFCINDEXEDPOLYGONALFACE((1,2,6,5));
#129=IFCINDEXEDPOLYGONALFACE((2,3,7,6));
#130=IFCINDEXEDPOLYGONALFACE((3,4,8,7));
#131=IFCINDEXEDPOLYGONALFACE((4,1,5,8));
#132=IFCPOLYGONALFACESET(#125,$,(#126,#127,#128,#129,#130,#131),$);
#133=IFCSHAPEREPRESENTATION(#11,'Body','Tessellation',(#132));
#134=IFCPRODUCTDEFINITIONSHAPE($,$,(#133));
#140=IFCCARTESIANPOINT((0.,0.,0.));
#141=IFCDIRECTION((0.,0.,1.));
#142=IFCDIRECTION((1.,0.,0.));
#143=IFCAXIS2PLACEMENT3D(#140,#141,#142);
#144=IFCLOCALPLACEMENT(#27,#143);
#145=IFCSLAB('2U8gOcI2P4uh51mlH20PL7',$,'Level 2 slab',$,$,#166,#155,$,$);
#146=IFCCARTESIANPOINTLIST3D(((0.,0.,3600.),(22000.,0.,3600.),(22000.,14000.,3600.),(0.,14000.,3600.),(0.,0.,3850.),(22000.,0.,3850.),(22000.,14000.,3850.),(0.,14000.,3850.)));
#147=IFCINDEXEDPOLYGONALFACE((1,2,3,4));
#148=IFCINDEXEDPOLYGONALFACE((5,6,7,8));
#149=IFCINDEXEDPOLYGONALFACE((1,2,6,5));
#150=IFCINDEXEDPOLYGONALFACE((2,3,7,6));
#151=IFCINDEXEDPOLYGONALFACE((3,4,8,7));
#152=IFCINDEXEDPOLYGONALFACE((4,1,5,8));
#153=IFCPOLYGONALFACESET(#146,$,(#147,#148,#149,#150,#151,#152),$);
#154=IFCSHAPEREPRESENTATION(#11,'Body','Tessellation',(#153));
#155=IFCPRODUCTDEFINITIONSHAPE($,$,(#154));
#161=IFCRELCONTAINEDINSPATIALSTRUCTURE('2iufE5E9PCdgGD$N0UnmoB',$,$,$,(#230,#209,#188,#145,#167),#28);
#162=IFCCARTESIANPOINT((0.,0.,-3600.));
#163=IFCDIRECTION((0.,0.,1.));
#164=IFCDIRECTION((1.,0.,0.));
#165=IFCAXIS2PLACEMENT3D(#162,#163,#164);
#166=IFCLOCALPLACEMENT(#38,#165);
#167=IFCWALL('2uiZd16Sn1Of4HDYRMIdJ1',$,'Level 2-shell-south',$,$,#187,#177,$,$);
#168=IFCCARTESIANPOINTLIST3D(((0.,0.,3850.),(22000.,0.,3850.),(22000.,200.,3850.),(0.,200.,3850.),(0.,0.,7050.0000000000009),(22000.,0.,7050.0000000000009),(22000.,200.,7050.0000000000009),(0.,200.,7050.0000000000009)));
#169=IFCINDEXEDPOLYGONALFACE((1,2,3,4));
#170=IFCINDEXEDPOLYGONALFACE((5,6,7,8));
#171=IFCINDEXEDPOLYGONALFACE((1,2,6,5));
#172=IFCINDEXEDPOLYGONALFACE((2,3,7,6));
#173=IFCINDEXEDPOLYGONALFACE((3,4,8,7));
#174=IFCINDEXEDPOLYGONALFACE((4,1,5,8));
#175=IFCPOLYGONALFACESET(#168,$,(#169,#170,#171,#172,#173,#174),$);
#176=IFCSHAPEREPRESENTATION(#11,'Body','Tessellation',(#175));
#177=IFCPRODUCTDEFINITIONSHAPE($,$,(#176));
#183=IFCCARTESIANPOINT((0.,0.,-3600.));
#184=IFCDIRECTION((0.,0.,1.));
#185=IFCDIRECTION((1.,0.,0.));
#186=IFCAXIS2PLACEMENT3D(#183,#184,#185);
#187=IFCLOCALPLACEMENT(#38,#186);
#188=IFCWALL('3teHXfXq5ChADKGG5Awtga',$,'Level 2-shell-north',$,$,#208,#198,$,$);
#189=IFCCARTESIANPOINTLIST3D(((0.,14000.,3850.),(22000.,14000.,3850.),(22000.,14200.,3850.),(0.,14200.,3850.),(0.,14000.,7050.0000000000009),(22000.,14000.,7050.0000000000009),(22000.,14200.,7050.0000000000009),(0.,14200.,7050.0000000000009)));
#190=IFCINDEXEDPOLYGONALFACE((1,2,3,4));
#191=IFCINDEXEDPOLYGONALFACE((5,6,7,8));
#192=IFCINDEXEDPOLYGONALFACE((1,2,6,5));
#193=IFCINDEXEDPOLYGONALFACE((2,3,7,6));
#194=IFCINDEXEDPOLYGONALFACE((3,4,8,7));
#195=IFCINDEXEDPOLYGONALFACE((4,1,5,8));
#196=IFCPOLYGONALFACESET(#189,$,(#190,#191,#192,#193,#194,#195),$);
#197=IFCSHAPEREPRESENTATION(#11,'Body','Tessellation',(#196));
#198=IFCPRODUCTDEFINITIONSHAPE($,$,(#197));
#204=IFCCARTESIANPOINT((0.,0.,-3600.));
#205=IFCDIRECTION((0.,0.,1.));
#206=IFCDIRECTION((1.,0.,0.));
#207=IFCAXIS2PLACEMENT3D(#204,#205,#206);
#208=IFCLOCALPLACEMENT(#38,#207);
#209=IFCWALL('2B3Jzu_uj8Dxj9wtPMxKvX',$,'Level 2-shell-west',$,$,#229,#219,$,$);
#210=IFCCARTESIANPOINTLIST3D(((0.,0.,3850.),(200.,0.,3850.),(200.,14000.,3850.),(0.,14000.,3850.),(0.,0.,7050.0000000000009),(200.,0.,7050.0000000000009),(200.,14000.,7050.0000000000009),(0.,14000.,7050.0000000000009)));
#211=IFCINDEXEDPOLYGONALFACE((1,2,3,4));
#212=IFCINDEXEDPOLYGONALFACE((5,6,7,8));
#213=IFCINDEXEDPOLYGONALFACE((1,2,6,5));
#214=IFCINDEXEDPOLYGONALFACE((2,3,7,6));
#215=IFCINDEXEDPOLYGONALFACE((3,4,8,7));
#216=IFCINDEXEDPOLYGONALFACE((4,1,5,8));
#217=IFCPOLYGONALFACESET(#210,$,(#211,#212,#213,#214,#215,#216),$);
#218=IFCSHAPEREPRESENTATION(#11,'Body','Tessellation',(#217));
#219=IFCPRODUCTDEFINITIONSHAPE($,$,(#218));
#225=IFCCARTESIANPOINT((0.,0.,-3600.));
#226=IFCDIRECTION((0.,0.,1.));
#227=IFCDIRECTION((1.,0.,0.));
#228=IFCAXIS2PLACEMENT3D(#225,#226,#227);
#229=IFCLOCALPLACEMENT(#38,#228);
#230=IFCWALL('2tyuGq7NTCkRRnSL1B04Aq',$,'Level 2-shell-east',$,$,#250,#240,$,$);
#231=IFCCARTESIANPOINTLIST3D(((22000.,0.,3850.),(22200.,0.,3850.),(22200.,14000.,3850.),(22000.,14000.,3850.),(22000.,0.,7050.0000000000009),(22200.,0.,7050.0000000000009),(22200.,14000.,7050.0000000000009),(22000.,14000.,7050.0000000000009)));
#232=IFCINDEXEDPOLYGONALFACE((1,2,3,4));
#233=IFCINDEXEDPOLYGONALFACE((5,6,7,8));
#234=IFCINDEXEDPOLYGONALFACE((1,2,6,5));
#235=IFCINDEXEDPOLYGONALFACE((2,3,7,6));
#236=IFCINDEXEDPOLYGONALFACE((3,4,8,7));
#237=IFCINDEXEDPOLYGONALFACE((4,1,5,8));
#238=IFCPOLYGONALFACESET(#231,$,(#232,#233,#234,#235,#236,#237),$);
#239=IFCSHAPEREPRESENTATION(#11,'Body','Tessellation',(#238));
#240=IFCPRODUCTDEFINITIONSHAPE($,$,(#239));
#246=IFCCARTESIANPOINT((0.,0.,-3600.));
#247=IFCDIRECTION((0.,0.,1.));
#248=IFCDIRECTION((1.,0.,0.));
#249=IFCAXIS2PLACEMENT3D(#246,#247,#248);
#250=IFCLOCALPLACEMENT(#38,#249);
#251=IFCSPACE('1NpazNsAL1mOjnwzfpcIxQ',$,'Retail A',$,$,#272,#261,$,$,$,$);
#252=IFCCARTESIANPOINTLIST3D(((1000.,1000.,250.),(9000.,1000.,250.),(9000.,6000.,250.),(1000.,6000.,250.),(1000.,1000.,3000.),(9000.,1000.,3000.),(9000.,6000.,3000.),(1000.,6000.,3000.)));
#253=IFCINDEXEDPOLYGONALFACE((1,2,3,4));
#254=IFCINDEXEDPOLYGONALFACE((5,6,7,8));
#255=IFCINDEXEDPOLYGONALFACE((1,2,6,5));
#256=IFCINDEXEDPOLYGONALFACE((2,3,7,6));
#257=IFCINDEXEDPOLYGONALFACE((3,4,8,7));
#258=IFCINDEXEDPOLYGONALFACE((4,1,5,8));
#259=IFCPOLYGONALFACESET(#252,$,(#253,#254,#255,#256,#257,#258),$);
#260=IFCSHAPEREPRESENTATION(#11,'Body','Tessellation',(#259));
#261=IFCPRODUCTDEFINITIONSHAPE($,$,(#260));
#267=IFCRELAGGREGATES('1qZjzqRsbB$xYblhjUbSkr',$,$,$,#16,(#273,#251));
#268=IFCCARTESIANPOINT((0.,0.,0.));
#269=IFCDIRECTION((0.,0.,1.));
#270=IFCDIRECTION((1.,0.,0.));
#271=IFCAXIS2PLACEMENT3D(#268,#269,#270);
#272=IFCLOCALPLACEMENT(#27,#271);
#273=IFCSPACE('3FdQJFG1L6pBcTZypBeuoM',$,'Office A',$,$,#293,#283,$,$,$,$);
#274=IFCCARTESIANPOINTLIST3D(((12000.,1000.,250.),(20000.,1000.,250.),(20000.,6000.,250.),(12000.,6000.,250.),(12000.,1000.,3000.),(20000.,1000.,3000.),(20000.,6000.,3000.),(12000.,6000.,3000.)));
#275=IFCINDEXEDPOLYGONALFACE((1,2,3,4));
#276=IFCINDEXEDPOLYGONALFACE((5,6,7,8));
#277=IFCINDEXEDPOLYGONALFACE((1,2,6,5));
#278=IFCINDEXEDPOLYGONALFACE((2,3,7,6));
#279=IFCINDEXEDPOLYGONALFACE((3,4,8,7));
#280=IFCINDEXEDPOLYGONALFACE((4,1,5,8));
#281=IFCPOLYGONALFACESET(#274,$,(#275,#276,#277,#278,#279,#280),$);
#282=IFCSHAPEREPRESENTATION(#11,'Body','Tessellation',(#281));
#283=IFCPRODUCTDEFINITIONSHAPE($,$,(#282));
#289=IFCCARTESIANPOINT((0.,0.,0.));
#290=IFCDIRECTION((0.,0.,1.));
#291=IFCDIRECTION((1.,0.,0.));
#292=IFCAXIS2PLACEMENT3D(#289,#290,#291);
#293=IFCLOCALPLACEMENT(#27,#292);
#294=IFCSPACE('1AzpFgT794GBZV8CKtQ9We',$,'Retail Mezz',$,$,#315,#304,$,$,$,$);
#295=IFCCARTESIANPOINTLIST3D(((1000.,1000.,3850.),(8000.,1000.,3850.),(8000.,5500.,3850.),(1000.,5500.,3850.),(1000.,1000.,6800.),(8000.,1000.,6800.),(8000.,5500.,6800.),(1000.,5500.,6800.)));
#296=IFCINDEXEDPOLYGONALFACE((1,2,3,4));
#297=IFCINDEXEDPOLYGONALFACE((5,6,7,8));
#298=IFCINDEXEDPOLYGONALFACE((1,2,6,5));
#299=IFCINDEXEDPOLYGONALFACE((2,3,7,6));
#300=IFCINDEXEDPOLYGONALFACE((3,4,8,7));
#301=IFCINDEXEDPOLYGONALFACE((4,1,5,8));
#302=IFCPOLYGONALFACESET(#295,$,(#296,#297,#298,#299,#300,#301),$);
#303=IFCSHAPEREPRESENTATION(#11,'Body','Tessellation',(#302));
#304=IFCPRODUCTDEFINITIONSHAPE($,$,(#303));
#310=IFCRELAGGREGATES('1hs2UAReDEOfW6UrN_PJVV',$,$,$,#28,(#294,#316));
#311=IFCCARTESIANPOINT((0.,0.,-3600.));
#312=IFCDIRECTION((0.,0.,1.));
#313=IFCDIRECTION((1.,0.,0.));
#314=IFCAXIS2PLACEMENT3D(#311,#312,#313);
#315=IFCLOCALPLACEMENT(#38,#314);
#316=IFCSPACE('1JpKXywmj86f9d2tVhJ43c',$,'Office B',$,$,#336,#326,$,$,$,$);
#317=IFCCARTESIANPOINTLIST3D(((10000.,1000.,3850.),(20000.,1000.,3850.),(20000.,6000.,3850.),(10000.,6000.,3850.),(10000.,1000.,6800.),(20000.,1000.,6800.),(20000.,6000.,6800.),(10000.,6000.,6800.)));
#318=IFCINDEXEDPOLYGONALFACE((1,2,3,4));
#319=IFCINDEXEDPOLYGONALFACE((5,6,7,8));
#320=IFCINDEXEDPOLYGONALFACE((1,2,6,5));
#321=IFCINDEXEDPOLYGONALFACE((2,3,7,6));
#322=IFCINDEXEDPOLYGONALFACE((3,4,8,7));
#323=IFCINDEXEDPOLYGONALFACE((4,1,5,8));
#324=IFCPOLYGONALFACESET(#317,$,(#318,#319,#320,#321,#322,#323),$);
#325=IFCSHAPEREPRESENTATION(#11,'Body','Tessellation',(#324));
#326=IFCPRODUCTDEFINITIONSHAPE($,$,(#325));
#332=IFCCARTESIANPOINT((0.,0.,-3600.));
#333=IFCDIRECTION((0.,0.,1.));
#334=IFCDIRECTION((1.,0.,0.));
#335=IFCAXIS2PLACEMENT3D(#332,#333,#334);
#336=IFCLOCALPLACEMENT(#38,#335);
ENDSEC;
END-ISO-10303-21;
