<COLLADA xmlns="http://www.collada.org/2005/11/COLLADASchema" version="1.4.1">
  <asset>
    <created>2026-04-23T23:11:50.598485</created>
    <modified>2026-04-23T23:11:50.598492</modified>
    <up_axis>Y_UP</up_axis>
  </asset>
  <library_effects>
    <effect id="eff-default" name="eff-default">
      <profile_COMMON>
        <technique sid="common">
          <lambert>
            <emission>
              <color>0.0 0.0 0.0 1.0</color>
            </emission>
            <ambient>
              <color>0.0 0.0 0.0 1.0</color>
            </ambient>
            <diffuse>
              <color>0.7 0.7 0.7 1.0</color>
            </diffuse>
            <specular>
              <color>0.0 0.0 0.0 1.0</color>
            </specular>
            <shininess>
              <float>0.0</float>
            </shininess>
            <reflective>
              <color>0.0 0.0 0.0 1.0</color>
            </reflective>
            <reflectivity>
              <float>0.0</float>
            </reflectivity>
            <transparent>
              <color>0.0 0.0 0.0 1.0</color>
            </transparent>
            <transparency>
              <float>1.0</float>
            </transparency>
          </lambert>
        </technique>
        <extra>
          <technique profile="GOOGLEEARTH">
            <double_sided>0</double_sided>
          </technique>
        </extra>
      </profile_COMMON>
    </effect>
  </library_effects>
  <library_geometries>
    <geometry id="geom-leg-0" name="Leg_00">
      <mesh>
        <source id="geom-leg-0-verts-array">
          <float_array count="105" id="geom-leg-0-verts-array-array">-0.25 -0.25 0 -0.25 -0.24 0.19 -0.25 -0.24 0.21 -0.24 -0.25 0.19 -0.24 -0.25 0.21 -0.24 -0.24 0.19 -0.24 -0.24 0.21 -0.2347619 -0.24 0.21 -0.25 -0.25 0.45 -0.25 -0.22 0.19 -0.25 -0.22 0.21 -0.25 -0.21 0 -0.24 -0.22 0.19 -0.24 -0.22 0.21 -0.24 -0.21 0.19 -0.24 -0.21 0.21 -0.25 -0.21 0.45 -0.22 -0.25 0.19 -0.22 -0.25 0.21 -0.22 -0.24 0.19 -0.22 -0.24 0.21 -0.21 -0.25 0 -0.21 -0.24 0.19 -0.21 -0.24 0.21 -0.21 -0.25 0.45 -0.23 -0.23 0.19 -0.2252381 -0.22 0.21 -0.22 -0.22 0.19 -0.22 -0.22 0.21 -0.22 -0.21 0.19 -0.22 -0.21 0.21 -0.21 -0.22 0.19 -0.21 -0.22 0.21 -0.21 -0.21 0 -0.21 -0.21 0.45</float_array>
          <technique_common>
            <accessor count="35" source="#geom-leg-0-verts-array-array" stride="3">
              <param type="float" name="X" />
              <param type="float" name="Y" />
              <param type="float" name="Z" />
            </accessor>
          </technique_common>
        </source>
        <vertices id="geom-leg-0-verts-array-vertices">
          <input semantic="POSITION" source="#geom-leg-0-verts-array" />
        </vertices>
        <triangles count="78" material="matref">
          <input offset="0" semantic="VERTEX" source="#geom-leg-0-verts-array-vertices" />
          <p>0 8 1 0 3 8 0 1 9 0 21 3 0 11 21 8 2 1 8 3 4 8 16 2 8 4 18 0 9 11 11 9 16 11 16 14 11 14 29 16 10 2 16 9 10 16 15 14 8 34 16 16 34 15 21 17 3 21 24 17 21 22 24 21 33 22 8 18 24 8 24 34 24 18 17 24 22 23 24 23 32 11 33 21 11 29 33 33 31 22 33 29 34 33 34 31 34 30 15 24 32 34 34 29 30 34 32 31 6 1 2 5 9 1 5 1 6 6 2 32 13 2 10 12 10 9 5 12 9 12 13 10 13 26 2 26 28 2 6 32 7 19 22 25 7 32 20 19 20 23 19 23 22 20 32 23 28 32 2 25 22 27 27 31 28 27 22 31 28 31 32 5 4 3 5 6 4 6 18 4 6 7 18 5 3 25 5 25 12 12 14 13 13 15 26 13 14 15 12 29 14 19 3 17 20 17 18 7 20 18 19 17 20 19 25 3 12 25 29 25 27 29 26 15 28 28 15 30 27 28 30 27 30 29</p>
        </triangles>
      </mesh>
    </geometry>
    <geometry id="geom-leg-1" name="Leg_01">
      <mesh>
        <source id="geom-leg-1-verts-array">
          <float_array count="105" id="geom-leg-1-verts-array-array">0.21 -0.25 0 0.21 -0.24 0.19 0.21 -0.24 0.21 0.22 -0.25 0.19 0.22 -0.25 0.21 0.22 -0.24 0.19 0.22 -0.24 0.21 0.2252381 -0.24 0.21 0.21 -0.25 0.45 0.21 -0.22 0.19 0.21 -0.22 0.21 0.21 -0.21 0 0.22 -0.22 0.19 0.22 -0.22 0.21 0.22 -0.21 0.19 0.22 -0.21 0.21 0.21 -0.21 0.45 0.24 -0.25 0.19 0.24 -0.25 0.21 0.24 -0.24 0.19 0.24 -0.24 0.21 0.25 -0.25 0 0.25 -0.24 0.19 0.25 -0.24 0.21 0.25 -0.25 0.45 0.23 -0.23 0.19 0.2347619 -0.22 0.21 0.24 -0.22 0.19 0.24 -0.22 0.21 0.24 -0.21 0.19 0.24 -0.21 0.21 0.25 -0.22 0.19 0.25 -0.22 0.21 0.25 -0.21 0 0.25 -0.21 0.45</float_array>
          <technique_common>
            <accessor count="35" source="#geom-leg-1-verts-array-array" stride="3">
              <param type="float" name="X" />
              <param type="float" name="Y" />
              <param type="float" name="Z" />
            </accessor>
          </technique_common>
        </source>
        <vertices id="geom-leg-1-verts-array-vertices">
          <input semantic="POSITION" source="#geom-leg-1-verts-array" />
        </vertices>
        <triangles count="78" material="matref">
          <input offset="0" semantic="VERTEX" source="#geom-leg-1-verts-array-vertices" />
          <p>0 8 1 0 3 8 0 1 9 0 21 3 0 11 21 8 2 1 8 3 4 8 16 2 8 4 18 0 9 11 11 9 16 11 16 14 11 14 29 16 10 2 16 9 10 16 15 14 8 34 16 16 34 15 21 17 3 21 24 17 21 22 24 21 33 22 8 18 24 8 24 34 24 18 17 24 22 23 24 23 32 11 33 21 11 29 33 33 31 22 33 29 34 33 34 31 34 30 15 24 32 34 34 29 30 34 32 31 6 1 2 5 9 1 5 1 6 6 2 32 13 2 10 12 10 9 5 12 9 12 13 10 13 26 2 26 28 2 6 32 7 19 22 25 7 32 20 19 20 23 19 23 22 20 32 23 28 32 2 25 22 27 27 31 28 27 22 31 28 31 32 5 4 3 5 6 4 6 18 4 6 7 18 5 3 25 5 25 12 12 14 13 13 15 26 13 14 15 12 29 14 19 3 17 20 17 18 7 20 18 19 17 20 19 25 3 12 25 29 25 27 29 26 15 28 28 15 30 27 28 30 27 30 29</p>
        </triangles>
      </mesh>
    </geometry>
    <geometry id="geom-leg-2" name="Leg_02">
      <mesh>
        <source id="geom-leg-2-verts-array">
          <float_array count="105" id="geom-leg-2-verts-array-array">0.21 0.21 0 0.21 0.22 0.19 0.21 0.22 0.21 0.22 0.21 0.19 0.22 0.21 0.21 0.22 0.22 0.19 0.22 0.22 0.21 0.2252381 0.22 0.21 0.21 0.21 0.45 0.21 0.24 0.19 0.21 0.24 0.21 0.21 0.25 0 0.22 0.24 0.19 0.22 0.24 0.21 0.22 0.25 0.19 0.22 0.25 0.21 0.21 0.25 0.45 0.24 0.21 0.19 0.24 0.21 0.21 0.24 0.22 0.19 0.24 0.22 0.21 0.25 0.21 0 0.25 0.22 0.19 0.25 0.22 0.21 0.25 0.21 0.45 0.23 0.23 0.19 0.2347619 0.24 0.21 0.24 0.24 0.19 0.24 0.24 0.21 0.24 0.25 0.19 0.24 0.25 0.21 0.25 0.24 0.19 0.25 0.24 0.21 0.25 0.25 0 0.25 0.25 0.45</float_array>
          <technique_common>
            <accessor count="35" source="#geom-leg-2-verts-array-array" stride="3">
              <param type="float" name="X" />
              <param type="float" name="Y" />
              <param type="float" name="Z" />
            </accessor>
          </technique_common>
        </source>
        <vertices id="geom-leg-2-verts-array-vertices">
          <input semantic="POSITION" source="#geom-leg-2-verts-array" />
        </vertices>
        <triangles count="78" material="matref">
          <input offset="0" semantic="VERTEX" source="#geom-leg-2-verts-array-vertices" />
          <p>0 8 1 0 3 8 0 1 9 0 21 3 0 11 21 8 2 1 8 3 4 8 16 2 8 4 18 0 9 11 11 9 16 11 16 14 11 14 29 16 10 2 16 9 10 16 15 14 8 34 16 16 34 15 21 17 3 21 24 17 21 22 24 21 33 22 8 18 24 8 24 34 24 18 17 24 22 23 24 23 32 11 33 21 11 29 33 33 31 22 33 29 34 33 34 31 34 30 15 24 32 34 34 29 30 34 32 31 6 1 2 5 9 1 5 1 6 6 2 32 13 2 10 12 10 9 5 12 9 12 13 10 13 26 2 26 28 2 6 32 7 19 22 25 7 32 20 19 20 23 19 23 22 20 32 23 28 32 2 25 22 27 27 31 28 27 22 31 28 31 32 5 4 3 5 6 4 6 18 4 6 7 18 5 3 25 5 25 12 12 14 13 13 15 26 13 14 15 12 29 14 19 3 17 20 17 18 7 20 18 19 17 20 19 25 3 12 25 29 25 27 29 26 15 28 28 15 30 27 28 30 27 30 29</p>
        </triangles>
      </mesh>
    </geometry>
    <geometry id="geom-leg-3" name="Leg_03">
      <mesh>
        <source id="geom-leg-3-verts-array">
          <float_array count="105" id="geom-leg-3-verts-array-array">-0.25 0.21 0 -0.25 0.22 0.19 -0.25 0.22 0.21 -0.24 0.21 0.19 -0.24 0.21 0.21 -0.24 0.22 0.19 -0.24 0.22 0.21 -0.2347619 0.22 0.21 -0.25 0.21 0.45 -0.25 0.24 0.19 -0.25 0.24 0.21 -0.25 0.25 0 -0.24 0.24 0.19 -0.24 0.24 0.21 -0.24 0.25 0.19 -0.24 0.25 0.21 -0.25 0.25 0.45 -0.22 0.21 0.19 -0.22 0.21 0.21 -0.22 0.22 0.19 -0.22 0.22 0.21 -0.21 0.21 0 -0.21 0.22 0.19 -0.21 0.22 0.21 -0.21 0.21 0.45 -0.23 0.23 0.19 -0.2252381 0.24 0.21 -0.22 0.24 0.19 -0.22 0.24 0.21 -0.22 0.25 0.19 -0.22 0.25 0.21 -0.21 0.24 0.19 -0.21 0.24 0.21 -0.21 0.25 0 -0.21 0.25 0.45</float_array>
          <technique_common>
            <accessor count="35" source="#geom-leg-3-verts-array-array" stride="3">
              <param type="float" name="X" />
              <param type="float" name="Y" />
              <param type="float" name="Z" />
            </accessor>
          </technique_common>
        </source>
        <vertices id="geom-leg-3-verts-array-vertices">
          <input semantic="POSITION" source="#geom-leg-3-verts-array" />
        </vertices>
        <triangles count="78" material="matref">
          <input offset="0" semantic="VERTEX" source="#geom-leg-3-verts-array-vertices" />
          <p>0 8 1 0 3 8 0 1 9 0 21 3 0 11 21 8 2 1 8 3 4 8 16 2 8 4 18 0 9 11 11 9 16 11 16 14 11 14 29 16 10 2 16 9 10 16 15 14 8 34 16 16 34 15 21 17 3 21 24 17 21 22 24 21 33 22 8 18 24 8 24 34 24 18 17 24 22 23 24 23 32 11 33 21 11 29 33 33 31 22 33 29 34 33 34 31 34 30 15 24 32 34 34 29 30 34 32 31 6 1 2 5 9 1 5 1 6 6 2 32 13 2 10 12 10 9 5 12 9 12 13 10 13 26 2 26 28 2 6 32 7 19 22 25 7 32 20 19 20 23 19 23 22 20 32 23 28 32 2 25 22 27 27 31 28 27 22 31 28 31 32 5 4 3 5 6 4 6 18 4 6 7 18 5 3 25 5 25 12 12 14 13 13 15 26 13 14 15 12 29 14 19 3 17 20 17 18 7 20 18 19 17 20 19 25 3 12 25 29 25 27 29 26 15 28 28 15 30 27 28 30 27 30 29</p>
        </triangles>
      </mesh>
    </geometry>
    <geometry id="geom-stretcher-0" name="Stretcher_00">
      <mesh>
        <source id="geom-stretcher-0-verts-array">
          <float_array count="72" id="geom-stretcher-0-verts-array-array">-0.2 -0.25 0.18 -0.25 -0.24 0.19 -0.2 -0.24 0.19 -0.2 -0.25 0.22 -0.25 -0.24 0.21 -0.2 -0.24 0.21 -0.25 -0.22 0.19 -0.2 -0.22 0.19 -0.2 -0.21 0.18 -0.25 -0.22 0.21 -0.2 -0.22 0.21 -0.2 -0.21 0.22 0.2 -0.25 0.18 0.2 -0.24 0.19 0.25 -0.24 0.19 0.2 -0.25 0.22 0.2 -0.24 0.21 0.25 -0.24 0.21 0.2 -0.22 0.19 0.25 -0.22 0.19 0.2 -0.21 0.18 0.2 -0.22 0.21 0.25 -0.22 0.21 0.2 -0.21 0.22</float_array>
          <technique_common>
            <accessor count="24" source="#geom-stretcher-0-verts-array-array" stride="3">
              <param type="float" name="X" />
              <param type="float" name="Y" />
              <param type="float" name="Z" />
            </accessor>
          </technique_common>
        </source>
        <vertices id="geom-stretcher-0-verts-array-vertices">
          <input semantic="POSITION" source="#geom-stretcher-0-verts-array" />
        </vertices>
        <triangles count="44" material="matref">
          <input offset="0" semantic="VERTEX" source="#geom-stretcher-0-verts-array-vertices" />
          <p>0 5 2 0 2 7 0 12 3 0 8 12 0 3 5 3 10 5 0 7 8 8 7 11 3 11 10 11 7 10 3 23 11 8 11 23 12 13 15 12 20 13 3 12 15 3 15 23 15 13 16 15 16 23 8 20 12 8 23 20 20 18 13 20 21 18 23 16 21 20 23 21 14 13 18 14 16 13 14 19 17 14 17 16 17 22 16 14 18 19 19 18 22 17 19 22 22 21 16 22 18 21 1 6 2 1 2 4 4 2 5 1 4 9 4 5 10 6 7 2 1 9 6 6 10 7 4 10 9 6 9 10</p>
        </triangles>
      </mesh>
    </geometry>
    <geometry id="geom-stretcher-1" name="Stretcher_01">
      <mesh>
        <source id="geom-stretcher-1-verts-array">
          <float_array count="72" id="geom-stretcher-1-verts-array-array">-0.2 0.21 0.18 -0.25 0.22 0.19 -0.2 0.22 0.19 -0.2 0.21 0.22 -0.25 0.22 0.21 -0.2 0.22 0.21 -0.25 0.24 0.19 -0.2 0.24 0.19 -0.2 0.25 0.18 -0.25 0.24 0.21 -0.2 0.24 0.21 -0.2 0.25 0.22 0.2 0.21 0.18 0.2 0.22 0.19 0.25 0.22 0.19 0.2 0.21 0.22 0.2 0.22 0.21 0.25 0.22 0.21 0.2 0.24 0.19 0.25 0.24 0.19 0.2 0.25 0.18 0.2 0.24 0.21 0.25 0.24 0.21 0.2 0.25 0.22</float_array>
          <technique_common>
            <accessor count="24" source="#geom-stretcher-1-verts-array-array" stride="3">
              <param type="float" name="X" />
              <param type="float" name="Y" />
              <param type="float" name="Z" />
            </accessor>
          </technique_common>
        </source>
        <vertices id="geom-stretcher-1-verts-array-vertices">
          <input semantic="POSITION" source="#geom-stretcher-1-verts-array" />
        </vertices>
        <triangles count="44" material="matref">
          <input offset="0" semantic="VERTEX" source="#geom-stretcher-1-verts-array-vertices" />
          <p>0 5 2 0 2 7 0 12 3 0 8 12 0 3 5 3 10 5 0 7 8 8 7 11 3 11 10 11 7 10 3 23 11 8 11 23 12 13 15 12 20 13 3 12 15 3 15 23 15 13 16 15 16 23 8 20 12 8 23 20 20 18 13 20 21 18 23 16 21 20 23 21 14 13 18 14 16 13 14 19 17 14 17 16 17 22 16 14 18 19 19 18 22 17 19 22 22 21 16 22 18 21 1 6 2 1 2 4 4 2 5 1 4 9 4 5 10 6 7 2 1 9 6 6 10 7 4 10 9 6 9 10</p>
        </triangles>
      </mesh>
    </geometry>
    <geometry id="geom-stretcher-2" name="Stretcher_02">
      <mesh>
        <source id="geom-stretcher-2-verts-array">
          <float_array count="72" id="geom-stretcher-2-verts-array-array">-0.25 -0.2 0.18 -0.24 -0.25 0.19 -0.24 -0.2 0.19 -0.25 -0.2 0.22 -0.24 -0.25 0.21 -0.24 -0.2 0.21 -0.25 0.2 0.18 -0.24 0.2 0.19 -0.24 0.25 0.19 -0.25 0.2 0.22 -0.24 0.2 0.21 -0.24 0.25 0.21 -0.22 -0.25 0.19 -0.22 -0.2 0.19 -0.21 -0.2 0.18 -0.22 -0.25 0.21 -0.22 -0.2 0.21 -0.21 -0.2 0.22 -0.22 0.2 0.19 -0.22 0.25 0.19 -0.21 0.2 0.18 -0.22 0.2 0.21 -0.22 0.25 0.21 -0.21 0.2 0.22</float_array>
          <technique_common>
            <accessor count="24" source="#geom-stretcher-2-verts-array-array" stride="3">
              <param type="float" name="X" />
              <param type="float" name="Y" />
              <param type="float" name="Z" />
            </accessor>
          </technique_common>
        </source>
        <vertices id="geom-stretcher-2-verts-array-vertices">
          <input semantic="POSITION" source="#geom-stretcher-2-verts-array" />
        </vertices>
        <triangles count="44" material="matref">
          <input offset="0" semantic="VERTEX" source="#geom-stretcher-2-verts-array-vertices" />
          <p>0 2 3 0 14 2 0 6 14 3 2 5 0 3 9 3 5 17 0 9 6 6 10 7 6 7 18 6 9 10 3 23 9 9 21 10 14 13 2 14 16 13 14 20 17 17 5 16 3 17 23 14 17 16 6 20 14 6 18 20 20 18 23 9 23 21 17 20 23 23 18 21 8 18 7 8 7 11 11 7 10 8 11 22 11 10 22 8 19 18 8 22 19 19 21 18 22 10 21 19 22 21 1 2 12 1 5 2 1 12 4 1 4 5 4 16 5 12 2 13 12 13 15 4 12 15 4 15 16 15 13 16</p>
        </triangles>
      </mesh>
    </geometry>
    <geometry id="geom-stretcher-3" name="Stretcher_03">
      <mesh>
        <source id="geom-stretcher-3-verts-array">
          <float_array count="72" id="geom-stretcher-3-verts-array-array">0.21 -0.2 0.18 0.22 -0.25 0.19 0.22 -0.2 0.19 0.21 -0.2 0.22 0.22 -0.25 0.21 0.22 -0.2 0.21 0.21 0.2 0.18 0.22 0.2 0.19 0.22 0.25 0.19 0.21 0.2 0.22 0.22 0.2 0.21 0.22 0.25 0.21 0.24 -0.25 0.19 0.24 -0.2 0.19 0.25 -0.2 0.18 0.24 -0.25 0.21 0.24 -0.2 0.21 0.25 -0.2 0.22 0.24 0.2 0.19 0.24 0.25 0.19 0.25 0.2 0.18 0.24 0.2 0.21 0.24 0.25 0.21 0.25 0.2 0.22</float_array>
          <technique_common>
            <accessor count="24" source="#geom-stretcher-3-verts-array-array" stride="3">
              <param type="float" name="X" />
              <param type="float" name="Y" />
              <param type="float" name="Z" />
            </accessor>
          </technique_common>
        </source>
        <vertices id="geom-stretcher-3-verts-array-vertices">
          <input semantic="POSITION" source="#geom-stretcher-3-verts-array" />
        </vertices>
        <triangles count="44" material="matref">
          <input offset="0" semantic="VERTEX" source="#geom-stretcher-3-verts-array-vertices" />
          <p>0 2 3 0 14 2 0 6 14 3 2 5 0 3 9 3 5 17 0 9 6 6 10 7 6 7 18 6 9 10 3 23 9 9 21 10 14 13 2 14 16 13 14 20 17 17 5 16 3 17 23 14 17 16 6 20 14 6 18 20 20 18 23 9 23 21 17 20 23 23 18 21 8 18 7 8 7 11 11 7 10 8 11 22 11 10 22 8 19 18 8 22 19 19 21 18 22 10 21 19 22 21 1 2 12 1 5 2 1 12 4 1 4 5 4 16 5 12 2 13 12 13 15 4 12 15 4 15 16 15 13 16</p>
        </triangles>
      </mesh>
    </geometry>
  </library_geometries>
  <library_materials>
    <material id="mat-default" name="Default">
      <instance_effect url="#eff-default" />
    </material>
  </library_materials>
  <library_visual_scenes>
    <visual_scene id="scene">
      <node id="Leg_00" name="Leg_00">
        <instance_geometry url="#geom-leg-0">
          <bind_material>
            <technique_common>
              <instance_material symbol="matref" target="#mat-default" />
            </technique_common>
          </bind_material>
        </instance_geometry>
      </node>
      <node id="Leg_01" name="Leg_01">
        <instance_geometry url="#geom-leg-1">
          <bind_material>
            <technique_common>
              <instance_material symbol="matref" target="#mat-default" />
            </technique_common>
          </bind_material>
        </instance_geometry>
      </node>
      <node id="Leg_02" name="Leg_02">
        <instance_geometry url="#geom-leg-2">
          <bind_material>
            <technique_common>
              <instance_material symbol="matref" target="#mat-default" />
            </technique_common>
          </bind_material>
        </instance_geometry>
      </node>
      <node id="Leg_03" name="Leg_03">
        <instance_geometry url="#geom-leg-3">
          <bind_material>
            <technique_common>
              <instance_material symbol="matref" target="#mat-default" />
            </technique_common>
          </bind_material>
        </instance_geometry>
      </node>
      <node id="Stretcher_00" name="Stretcher_00">
        <instance_geometry url="#geom-stretcher-0">
          <bind_material>
            <technique_common>
              <instance_material symbol="matref" target="#mat-default" />
            </technique_common>
          </bind_material>
        </instance_geometry>
      </node>
      <node id="Stretcher_01" name="Stretcher_01">
        <instance_geometry url="#geom-stretcher-1">
          <bind_material>
            <technique_common>
              <instance_material symbol="matref" target="#mat-default" />
            </technique_common>
          </bind_material>
        </instance_geometry>
      </node>
      <node id="Stretcher_02" name="Stretcher_02">
        <instance_geometry url="#geom-stretcher-2">
          <bind_material>
            <technique_common>
              <instance_material symbol="matref" target="#mat-default" />
            </technique_common>
          </bind_material>
        </instance_geometry>
      </node>
      <node id="Stretcher_03" name="Stretcher_03">
        <instance_geometry url="#geom-stretcher-3">
          <bind_material>
            <technique_common>
              <instance_material symbol="matref" target="#mat-default" />
            </technique_common>
          </bind_material>
        </instance_geometry>
      </node>
    </visual_scene>
  </library_visual_scenes>
  <scene>
    <instance_visual_scene url="#scene" />
  </scene>
</COLLADA>
