solid task_05_openscad_enclosure
  facet normal 0 0 0
    outer loop
      vertex -53.8000 -41.8000 0.0000
      vertex 53.8000 -41.8000 0.0000
      vertex 53.8000 41.8000 0.0000
    endloop
  endfacet
  facet normal 0 0 0
    outer loop
      vertex -53.8000 -41.8000 0.0000
      vertex 53.8000 41.8000 0.0000
      vertex -53.8000 41.8000 0.0000
    endloop
  endfacet
  facet normal 0 0 0
    outer loop
      vertex -53.8000 -41.8000 20.4000
      vertex 53.8000 41.8000 20.4000
      vertex 53.8000 -41.8000 20.4000
    endloop
  endfacet
  facet normal 0 0 0
    outer loop
      vertex -53.8000 -41.8000 20.4000
      vertex -53.8000 41.8000 20.4000
      vertex 53.8000 41.8000 20.4000
    endloop
  endfacet
  facet normal 0 0 0
    outer loop
      vertex -53.8000 -41.8000 0.0000
      vertex -53.8000 -41.8000 20.4000
      vertex 53.8000 -41.8000 20.4000
    endloop
  endfacet
  facet normal 0 0 0
    outer loop
      vertex -53.8000 -41.8000 0.0000
      vertex 53.8000 -41.8000 20.4000
      vertex 53.8000 -41.8000 0.0000
    endloop
  endfacet
  facet normal 0 0 0
    outer loop
      vertex 53.8000 -41.8000 0.0000
      vertex 53.8000 -41.8000 20.4000
      vertex 53.8000 41.8000 20.4000
    endloop
  endfacet
  facet normal 0 0 0
    outer loop
      vertex 53.8000 -41.8000 0.0000
      vertex 53.8000 41.8000 20.4000
      vertex 53.8000 41.8000 0.0000
    endloop
  endfacet
  facet normal 0 0 0
    outer loop
      vertex 53.8000 41.8000 0.0000
      vertex 53.8000 41.8000 20.4000
      vertex -53.8000 41.8000 20.4000
    endloop
  endfacet
  facet normal 0 0 0
    outer loop
      vertex 53.8000 41.8000 0.0000
      vertex -53.8000 41.8000 20.4000
      vertex -53.8000 41.8000 0.0000
    endloop
  endfacet
  facet normal 0 0 0
    outer loop
      vertex -53.8000 41.8000 0.0000
      vertex -53.8000 41.8000 20.4000
      vertex -53.8000 -41.8000 20.4000
    endloop
  endfacet
  facet normal 0 0 0
    outer loop
      vertex -53.8000 41.8000 0.0000
      vertex -53.8000 -41.8000 20.4000
      vertex -53.8000 -41.8000 0.0000
    endloop
  endfacet
endsolid task_05_openscad_enclosure
