ISO-10303-21;
HEADER;FILE_DESCRIPTION(('ViewDefinition [CoordinationView]'),'2;1');
FILE_NAME('','2026-06-08T12:25:37',(''),(''),'The EXPRESS Data Manager Version 5.02.0100.09 : 26 Sep 2013','IfcOpenShell 0.8.5-1c5b825','');
FILE_SCHEMA(('IFC4'));
ENDSEC;

DATA;
#1= IFCPERSON('EW','EngiWorld',$,$,$,$,$,$);
#3= IFCORGANIZATION('EW','EngiWorld',$,$,$);
#7= IFCPERSONANDORGANIZATION(#1,#3,$);
#10= IFCORGANIZATION('GS','Graphisoft',$,$,$);
#11= IFCAPPLICATION(#10,'27','Archicad CLI task generator','ARCHICAD-CLI');
#12= IFCOWNERHISTORY(#7,#11,$,.ADDED.,$,$,$,1780854325);
#13= IFCCARTESIANPOINT((0.,0.,0.));
#17= IFCDIRECTION((0.,0.,1.));
#19= IFCDIRECTION((1.,0.,0.));
#21= IFCAXIS2PLACEMENT3D(#13,#17,#19);
#22= IFCDIRECTION((0.,1.,0.));
#24= IFCGEOMETRICREPRESENTATIONCONTEXT('Model','Model',3,1.00000000000E-5,#21,#22);
#28= IFCSIUNIT(*,.LENGTHUNIT.,$,.METRE.);
#29= IFCSIUNIT(*,.AREAUNIT.,$,.SQUARE_METRE.);
#30= IFCSIUNIT(*,.VOLUMEUNIT.,$,.CUBIC_METRE.);
#31= IFCUNITASSIGNMENT((#28,#29,#30));
#33= IFCPROJECT('0H30vjkF58EBC4p8XCo_Du',#12,'EngiWorld Archicad Task 16',$,$,$,$,(#24),#31);
#44= IFCCARTESIANPOINT((0.,0.,0.));
#46= IFCDIRECTION((0.,0.,1.));
#48= IFCDIRECTION((1.,0.,0.));
#50= IFCAXIS2PLACEMENT3D(#44,#46,#48);
#51= IFCLOCALPLACEMENT($,#50);
#54= IFCSITE('2o4wL90HD778DT$jSh1gU3',#12,'EngiWorld Test Site',$,$,#51,$,$,$,$,$,$,$,$);
#64= IFCCARTESIANPOINT((0.,0.,0.));
#66= IFCDIRECTION((0.,0.,1.));
#68= IFCDIRECTION((1.,0.,0.));
#70= IFCAXIS2PLACEMENT3D(#64,#66,#68);
#71= IFCLOCALPLACEMENT($,#70);
#72= IFCBUILDING('0w$dId6Lb9qOOxlxeohud8',#12,'Split-Level Teaching Lab',$,$,#71,$,$,$,$,$,$);
#74= IFCRELAGGREGATES('2VI2t7dXPAbRB8nwe21q_q',#12,'Project decomposition',$,#33,(#54));
#78= IFCRELAGGREGATES('3t0wFdbYn7F9k_SmrIWlIp',#12,'Site decomposition',$,#54,(#72));
#82= IFCCARTESIANPOINT((0.,0.,0.));
#84= IFCDIRECTION((0.,0.,1.));
#86= IFCDIRECTION((1.,0.,0.));
#88= IFCAXIS2PLACEMENT3D(#82,#84,#86);
#89= IFCLOCALPLACEMENT($,#88);
#90= IFCBUILDINGSTOREY('0J5ZxL$kb79h8vvEsFwDrQ',#12,'Lower Lab',$,$,#89,$,$,$,0.);
#92= IFCCARTESIANPOINT((0.,0.,3.5));
#94= IFCDIRECTION((0.,0.,1.));
#96= IFCDIRECTION((1.,0.,0.));
#98= IFCAXIS2PLACEMENT3D(#92,#94,#96);
#99= IFCLOCALPLACEMENT($,#98);
#100= IFCBUILDINGSTOREY('3q0imrZjH97gi5eh1bp5cM',#12,'Upper Lab',$,$,#99,$,$,$,3.5);
#102= IFCRELAGGREGATES('2QDnOaYlzC2h8_t63vRpOs',#12,'Building storeys',$,#72,(#90,#100));
#107= IFCCARTESIANPOINT((9.,6.,0.));
#109= IFCDIRECTION((0.,0.,1.));
#111= IFCDIRECTION((1.,0.,0.));
#113= IFCAXIS2PLACEMENT3D(#107,#109,#111);
#114= IFCLOCALPLACEMENT($,#113);
#115= IFCCARTESIANPOINT((0.,0.));
#117= IFCDIRECTION((1.,0.));
#119= IFCAXIS2PLACEMENT2D(#115,#117);
#120= IFCRECTANGLEPROFILEDEF(.AREA.,$,#119,18.,12.);
#123= IFCCARTESIANPOINT((0.,0.,0.));
#125= IFCDIRECTION((0.,0.,1.));
#127= IFCDIRECTION((1.,0.,0.));
#129= IFCAXIS2PLACEMENT3D(#123,#125,#127);
#130= IFCDIRECTION((0.,0.,1.));
#132= IFCEXTRUDEDAREASOLID(#120,#129,#130,0.18);
#133= IFCSHAPEREPRESENTATION(#24,'Body','SweptSolid',(#132));
#140= IFCPRODUCTDEFINITIONSHAPE($,$,(#133));
#145= IFCSLAB('2p5BUp2AD2h8W629sm2gA4',#12,'Lower Lab slab',$,$,#114,#140,$,.FLOOR.);
#160= IFCCARTESIANPOINT((9.,0.09,0.));
#162= IFCDIRECTION((0.,0.,1.));
#164= IFCDIRECTION((1.,0.,0.));
#166= IFCAXIS2PLACEMENT3D(#160,#162,#164);
#167= IFCLOCALPLACEMENT($,#166);
#168= IFCCARTESIANPOINT((0.,0.));
#170= IFCDIRECTION((1.,0.));
#172= IFCAXIS2PLACEMENT2D(#168,#170);
#173= IFCRECTANGLEPROFILEDEF(.AREA.,$,#172,18.,0.18);
#174= IFCCARTESIANPOINT((0.,0.,0.));
#176= IFCDIRECTION((0.,0.,1.));
#178= IFCDIRECTION((1.,0.,0.));
#180= IFCAXIS2PLACEMENT3D(#174,#176,#178);
#181= IFCDIRECTION((0.,0.,1.));
#183= IFCEXTRUDEDAREASOLID(#173,#180,#181,3.35);
#184= IFCSHAPEREPRESENTATION(#24,'Body','SweptSolid',(#183));
#186= IFCPRODUCTDEFINITIONSHAPE($,$,(#184));
#189= IFCWALL('3wr4TTTyn1uB7TdFiCx_PW',#12,'Lower Lab wall 1',$,$,#167,#186,$,$);
#192= IFCCARTESIANPOINT((9.,11.91,0.));
#194= IFCDIRECTION((0.,0.,1.));
#196= IFCDIRECTION((1.,0.,0.));
#198= IFCAXIS2PLACEMENT3D(#192,#194,#196);
#199= IFCLOCALPLACEMENT($,#198);
#200= IFCCARTESIANPOINT((0.,0.));
#202= IFCDIRECTION((1.,0.));
#204= IFCAXIS2PLACEMENT2D(#200,#202);
#205= IFCRECTANGLEPROFILEDEF(.AREA.,$,#204,18.,0.18);
#206= IFCCARTESIANPOINT((0.,0.,0.));
#208= IFCDIRECTION((0.,0.,1.));
#210= IFCDIRECTION((1.,0.,0.));
#212= IFCAXIS2PLACEMENT3D(#206,#208,#210);
#213= IFCDIRECTION((0.,0.,1.));
#215= IFCEXTRUDEDAREASOLID(#205,#212,#213,3.35);
#216= IFCSHAPEREPRESENTATION(#24,'Body','SweptSolid',(#215));
#218= IFCPRODUCTDEFINITIONSHAPE($,$,(#216));
#221= IFCWALL('1uzqr5O1nEeAOau6lj8ah7',#12,'Lower Lab wall 2',$,$,#199,#218,$,$);
#224= IFCCARTESIANPOINT((0.09,6.,0.));
#226= IFCDIRECTION((0.,0.,1.));
#228= IFCDIRECTION((1.,0.,0.));
#230= IFCAXIS2PLACEMENT3D(#224,#226,#228);
#231= IFCLOCALPLACEMENT($,#230);
#232= IFCCARTESIANPOINT((0.,0.));
#234= IFCDIRECTION((1.,0.));
#236= IFCAXIS2PLACEMENT2D(#232,#234);
#237= IFCRECTANGLEPROFILEDEF(.AREA.,$,#236,0.18,12.);
#238= IFCCARTESIANPOINT((0.,0.,0.));
#240= IFCDIRECTION((0.,0.,1.));
#242= IFCDIRECTION((1.,0.,0.));
#244= IFCAXIS2PLACEMENT3D(#238,#240,#242);
#245= IFCDIRECTION((0.,0.,1.));
#247= IFCEXTRUDEDAREASOLID(#237,#244,#245,3.35);
#248= IFCSHAPEREPRESENTATION(#24,'Body','SweptSolid',(#247));
#250= IFCPRODUCTDEFINITIONSHAPE($,$,(#248));
#253= IFCWALL('1io0sLuoT3euiX4lUPUJP$',#12,'Lower Lab wall 3',$,$,#231,#250,$,$);
#256= IFCCARTESIANPOINT((17.91,6.,0.));
#258= IFCDIRECTION((0.,0.,1.));
#260= IFCDIRECTION((1.,0.,0.));
#262= IFCAXIS2PLACEMENT3D(#256,#258,#260);
#263= IFCLOCALPLACEMENT($,#262);
#264= IFCCARTESIANPOINT((0.,0.));
#266= IFCDIRECTION((1.,0.));
#268= IFCAXIS2PLACEMENT2D(#264,#266);
#269= IFCRECTANGLEPROFILEDEF(.AREA.,$,#268,0.18,12.);
#270= IFCCARTESIANPOINT((0.,0.,0.));
#272= IFCDIRECTION((0.,0.,1.));
#274= IFCDIRECTION((1.,0.,0.));
#276= IFCAXIS2PLACEMENT3D(#270,#272,#274);
#277= IFCDIRECTION((0.,0.,1.));
#279= IFCEXTRUDEDAREASOLID(#269,#276,#277,3.35);
#280= IFCSHAPEREPRESENTATION(#24,'Body','SweptSolid',(#279));
#282= IFCPRODUCTDEFINITIONSHAPE($,$,(#280));
#285= IFCWALL('1Vqf4f0Rz0i8dZ64XyBYq$',#12,'Lower Lab wall 4',$,$,#263,#282,$,$);
#288= IFCCARTESIANPOINT((3.,6.,0.));
#290= IFCDIRECTION((0.,0.,1.));
#292= IFCDIRECTION((1.,0.,0.));
#294= IFCAXIS2PLACEMENT3D(#288,#290,#292);
#295= IFCLOCALPLACEMENT($,#294);
#296= IFCCARTESIANPOINT((0.,0.));
#298= IFCDIRECTION((1.,0.));
#300= IFCAXIS2PLACEMENT2D(#296,#298);
#301= IFCRECTANGLEPROFILEDEF(.AREA.,$,#300,0.144,9.84);
#302= IFCCARTESIANPOINT((0.,0.,0.));
#304= IFCDIRECTION((0.,0.,1.));
#306= IFCDIRECTION((1.,0.,0.));
#308= IFCAXIS2PLACEMENT3D(#302,#304,#306);
#309= IFCDIRECTION((0.,0.,1.));
#311= IFCEXTRUDEDAREASOLID(#301,#308,#309,3.216);
#312= IFCSHAPEREPRESENTATION(#24,'Body','SweptSolid',(#311));
#314= IFCPRODUCTDEFINITIONSHAPE($,$,(#312));
#317= IFCWALL('2f3EnUsOf5ARjz$BG6JIb7',#12,'Lower Lab wall 5',$,$,#295,#314,$,$);
#320= IFCCARTESIANPOINT((9.,4.,0.));
#322= IFCDIRECTION((0.,0.,1.));
#324= IFCDIRECTION((1.,0.,0.));
#326= IFCAXIS2PLACEMENT3D(#320,#322,#324);
#327= IFCLOCALPLACEMENT($,#326);
#328= IFCCARTESIANPOINT((0.,0.));
#330= IFCDIRECTION((1.,0.));
#332= IFCAXIS2PLACEMENT2D(#328,#330);
#333= IFCRECTANGLEPROFILEDEF(.AREA.,$,#332,14.76,0.144);
#334= IFCCARTESIANPOINT((0.,0.,0.));
#336= IFCDIRECTION((0.,0.,1.));
#338= IFCDIRECTION((1.,0.,0.));
#340= IFCAXIS2PLACEMENT3D(#334,#336,#338);
#341= IFCDIRECTION((0.,0.,1.));
#343= IFCEXTRUDEDAREASOLID(#333,#340,#341,3.216);
#344= IFCSHAPEREPRESENTATION(#24,'Body','SweptSolid',(#343));
#346= IFCPRODUCTDEFINITIONSHAPE($,$,(#344));
#349= IFCWALL('2xdk3iUpr8khP1rTjBsTkg',#12,'Lower Lab wall 6',$,$,#327,#346,$,$);
#352= IFCCARTESIANPOINT((9.,6.,0.));
#354= IFCDIRECTION((0.,0.,1.));
#356= IFCDIRECTION((1.,0.,0.));
#358= IFCAXIS2PLACEMENT3D(#352,#354,#356);
#359= IFCLOCALPLACEMENT($,#358);
#360= IFCCARTESIANPOINT((0.,0.));
#362= IFCDIRECTION((1.,0.));
#364= IFCAXIS2PLACEMENT2D(#360,#362);
#365= IFCRECTANGLEPROFILEDEF(.AREA.,$,#364,0.144,9.84);
#366= IFCCARTESIANPOINT((0.,0.,0.));
#368= IFCDIRECTION((0.,0.,1.));
#370= IFCDIRECTION((1.,0.,0.));
#372= IFCAXIS2PLACEMENT3D(#366,#368,#370);
#373= IFCDIRECTION((0.,0.,1.));
#375= IFCEXTRUDEDAREASOLID(#365,#372,#373,3.216);
#376= IFCSHAPEREPRESENTATION(#24,'Body','SweptSolid',(#375));
#378= IFCPRODUCTDEFINITIONSHAPE($,$,(#376));
#381= IFCWALL('0MMabMBnf7ehEstdGS6Ekc',#12,'Lower Lab wall 7',$,$,#359,#378,$,$);
#384= IFCCARTESIANPOINT((9.,8.,0.));
#386= IFCDIRECTION((0.,0.,1.));
#388= IFCDIRECTION((1.,0.,0.));
#390= IFCAXIS2PLACEMENT3D(#384,#386,#388);
#391= IFCLOCALPLACEMENT($,#390);
#392= IFCCARTESIANPOINT((0.,0.));
#394= IFCDIRECTION((1.,0.));
#396= IFCAXIS2PLACEMENT2D(#392,#394);
#397= IFCRECTANGLEPROFILEDEF(.AREA.,$,#396,14.76,0.144);
#398= IFCCARTESIANPOINT((0.,0.,0.));
#400= IFCDIRECTION((0.,0.,1.));
#402= IFCDIRECTION((1.,0.,0.));
#404= IFCAXIS2PLACEMENT3D(#398,#400,#402);
#405= IFCDIRECTION((0.,0.,1.));
#407= IFCEXTRUDEDAREASOLID(#397,#404,#405,3.216);
#408= IFCSHAPEREPRESENTATION(#24,'Body','SweptSolid',(#407));
#410= IFCPRODUCTDEFINITIONSHAPE($,$,(#408));
#413= IFCWALL('2clCnqzOfEnfjK5kVmFBcd',#12,'Lower Lab wall 8',$,$,#391,#410,$,$);
#416= IFCCARTESIANPOINT((15.,6.,0.));
#418= IFCDIRECTION((0.,0.,1.));
#420= IFCDIRECTION((1.,0.,0.));
#422= IFCAXIS2PLACEMENT3D(#416,#418,#420);
#423= IFCLOCALPLACEMENT($,#422);
#424= IFCCARTESIANPOINT((0.,0.));
#426= IFCDIRECTION((1.,0.));
#428= IFCAXIS2PLACEMENT2D(#424,#426);
#429= IFCRECTANGLEPROFILEDEF(.AREA.,$,#428,0.144,9.84);
#430= IFCCARTESIANPOINT((0.,0.,0.));
#432= IFCDIRECTION((0.,0.,1.));
#434= IFCDIRECTION((1.,0.,0.));
#436= IFCAXIS2PLACEMENT3D(#430,#432,#434);
#437= IFCDIRECTION((0.,0.,1.));
#439= IFCEXTRUDEDAREASOLID(#429,#436,#437,3.216);
#440= IFCSHAPEREPRESENTATION(#24,'Body','SweptSolid',(#439));
#442= IFCPRODUCTDEFINITIONSHAPE($,$,(#440));
#445= IFCWALL('3H0kSR$dX2zREBORtfbCKh',#12,'Lower Lab wall 9',$,$,#423,#442,$,$);
#448= IFCCARTESIANPOINT((9.,6.,3.5));
#450= IFCDIRECTION((0.,0.,1.));
#452= IFCDIRECTION((1.,0.,0.));
#454= IFCAXIS2PLACEMENT3D(#448,#450,#452);
#455= IFCLOCALPLACEMENT($,#454);
#456= IFCCARTESIANPOINT((0.,0.));
#458= IFCDIRECTION((1.,0.));
#460= IFCAXIS2PLACEMENT2D(#456,#458);
#461= IFCRECTANGLEPROFILEDEF(.AREA.,$,#460,18.,12.);
#462= IFCCARTESIANPOINT((0.,0.,0.));
#464= IFCDIRECTION((0.,0.,1.));
#466= IFCDIRECTION((1.,0.,0.));
#468= IFCAXIS2PLACEMENT3D(#462,#464,#466);
#469= IFCDIRECTION((0.,0.,1.));
#471= IFCEXTRUDEDAREASOLID(#461,#468,#469,0.18);
#472= IFCSHAPEREPRESENTATION(#24,'Body','SweptSolid',(#471));
#474= IFCPRODUCTDEFINITIONSHAPE($,$,(#472));
#477= IFCSLAB('0BoG01HcbFfhN7JlGg3FAk',#12,'Upper Lab slab',$,$,#455,#474,$,.FLOOR.);
#480= IFCCARTESIANPOINT((9.,0.09,3.5));
#482= IFCDIRECTION((0.,0.,1.));
#484= IFCDIRECTION((1.,0.,0.));
#486= IFCAXIS2PLACEMENT3D(#480,#482,#484);
#487= IFCLOCALPLACEMENT($,#486);
#488= IFCCARTESIANPOINT((0.,0.));
#490= IFCDIRECTION((1.,0.));
#492= IFCAXIS2PLACEMENT2D(#488,#490);
#493= IFCRECTANGLEPROFILEDEF(.AREA.,$,#492,18.,0.18);
#494= IFCCARTESIANPOINT((0.,0.,0.));
#496= IFCDIRECTION((0.,0.,1.));
#498= IFCDIRECTION((1.,0.,0.));
#500= IFCAXIS2PLACEMENT3D(#494,#496,#498);
#501= IFCDIRECTION((0.,0.,1.));
#503= IFCEXTRUDEDAREASOLID(#493,#500,#501,3.35);
#504= IFCSHAPEREPRESENTATION(#24,'Body','SweptSolid',(#503));
#506= IFCPRODUCTDEFINITIONSHAPE($,$,(#504));
#509= IFCWALL('1t0a$zKI59MwKFn3HkzX_E',#12,'Upper Lab wall 1',$,$,#487,#506,$,$);
#512= IFCCARTESIANPOINT((9.,11.91,3.5));
#514= IFCDIRECTION((0.,0.,1.));
#516= IFCDIRECTION((1.,0.,0.));
#518= IFCAXIS2PLACEMENT3D(#512,#514,#516);
#519= IFCLOCALPLACEMENT($,#518);
#520= IFCCARTESIANPOINT((0.,0.));
#522= IFCDIRECTION((1.,0.));
#524= IFCAXIS2PLACEMENT2D(#520,#522);
#525= IFCRECTANGLEPROFILEDEF(.AREA.,$,#524,18.,0.18);
#526= IFCCARTESIANPOINT((0.,0.,0.));
#528= IFCDIRECTION((0.,0.,1.));
#530= IFCDIRECTION((1.,0.,0.));
#532= IFCAXIS2PLACEMENT3D(#526,#528,#530);
#533= IFCDIRECTION((0.,0.,1.));
#535= IFCEXTRUDEDAREASOLID(#525,#532,#533,3.35);
#536= IFCSHAPEREPRESENTATION(#24,'Body','SweptSolid',(#535));
#538= IFCPRODUCTDEFINITIONSHAPE($,$,(#536));
#541= IFCWALL('2rr1afUO5B58kRtZ22tEOx',#12,'Upper Lab wall 2',$,$,#519,#538,$,$);
#544= IFCCARTESIANPOINT((0.09,6.,3.5));
#546= IFCDIRECTION((0.,0.,1.));
#548= IFCDIRECTION((1.,0.,0.));
#550= IFCAXIS2PLACEMENT3D(#544,#546,#548);
#551= IFCLOCALPLACEMENT($,#550);
#552= IFCCARTESIANPOINT((0.,0.));
#554= IFCDIRECTION((1.,0.));
#556= IFCAXIS2PLACEMENT2D(#552,#554);
#557= IFCRECTANGLEPROFILEDEF(.AREA.,$,#556,0.18,12.);
#558= IFCCARTESIANPOINT((0.,0.,0.));
#560= IFCDIRECTION((0.,0.,1.));
#562= IFCDIRECTION((1.,0.,0.));
#564= IFCAXIS2PLACEMENT3D(#558,#560,#562);
#565= IFCDIRECTION((0.,0.,1.));
#567= IFCEXTRUDEDAREASOLID(#557,#564,#565,3.35);
#568= IFCSHAPEREPRESENTATION(#24,'Body','SweptSolid',(#567));
#570= IFCPRODUCTDEFINITIONSHAPE($,$,(#568));
#573= IFCWALL('2CVpc1jVH24P2mTMXtU_1q',#12,'Upper Lab wall 3',$,$,#551,#570,$,$);
#576= IFCCARTESIANPOINT((17.91,6.,3.5));
#578= IFCDIRECTION((0.,0.,1.));
#580= IFCDIRECTION((1.,0.,0.));
#582= IFCAXIS2PLACEMENT3D(#576,#578,#580);
#583= IFCLOCALPLACEMENT($,#582);
#584= IFCCARTESIANPOINT((0.,0.));
#586= IFCDIRECTION((1.,0.));
#588= IFCAXIS2PLACEMENT2D(#584,#586);
#589= IFCRECTANGLEPROFILEDEF(.AREA.,$,#588,0.18,12.);
#590= IFCCARTESIANPOINT((0.,0.,0.));
#592= IFCDIRECTION((0.,0.,1.));
#594= IFCDIRECTION((1.,0.,0.));
#596= IFCAXIS2PLACEMENT3D(#590,#592,#594);
#597= IFCDIRECTION((0.,0.,1.));
#599= IFCEXTRUDEDAREASOLID(#589,#596,#597,3.35);
#600= IFCSHAPEREPRESENTATION(#24,'Body','SweptSolid',(#599));
#602= IFCPRODUCTDEFINITIONSHAPE($,$,(#600));
#605= IFCWALL('0vTO9nuPj9gO21NPdxpV17',#12,'Upper Lab wall 4',$,$,#583,#602,$,$);
#608= IFCCARTESIANPOINT((3.,6.,3.5));
#610= IFCDIRECTION((0.,0.,1.));
#612= IFCDIRECTION((1.,0.,0.));
#614= IFCAXIS2PLACEMENT3D(#608,#610,#612);
#615= IFCLOCALPLACEMENT($,#614);
#616= IFCCARTESIANPOINT((0.,0.));
#618= IFCDIRECTION((1.,0.));
#620= IFCAXIS2PLACEMENT2D(#616,#618);
#621= IFCRECTANGLEPROFILEDEF(.AREA.,$,#620,0.144,9.84);
#622= IFCCARTESIANPOINT((0.,0.,0.));
#624= IFCDIRECTION((0.,0.,1.));
#626= IFCDIRECTION((1.,0.,0.));
#628= IFCAXIS2PLACEMENT3D(#622,#624,#626);
#629= IFCDIRECTION((0.,0.,1.));
#631= IFCEXTRUDEDAREASOLID(#621,#628,#629,3.216);
#632= IFCSHAPEREPRESENTATION(#24,'Body','SweptSolid',(#631));
#634= IFCPRODUCTDEFINITIONSHAPE($,$,(#632));
#637= IFCWALL('06RAxo6aT7OgFHRw6rAr$5',#12,'Upper Lab wall 5',$,$,#615,#634,$,$);
#640= IFCCARTESIANPOINT((9.,4.,3.5));
#642= IFCDIRECTION((0.,0.,1.));
#644= IFCDIRECTION((1.,0.,0.));
#646= IFCAXIS2PLACEMENT3D(#640,#642,#644);
#647= IFCLOCALPLACEMENT($,#646);
#648= IFCCARTESIANPOINT((0.,0.));
#650= IFCDIRECTION((1.,0.));
#652= IFCAXIS2PLACEMENT2D(#648,#650);
#653= IFCRECTANGLEPROFILEDEF(.AREA.,$,#652,14.76,0.144);
#654= IFCCARTESIANPOINT((0.,0.,0.));
#656= IFCDIRECTION((0.,0.,1.));
#658= IFCDIRECTION((1.,0.,0.));
#660= IFCAXIS2PLACEMENT3D(#654,#656,#658);
#661= IFCDIRECTION((0.,0.,1.));
#663= IFCEXTRUDEDAREASOLID(#653,#660,#661,3.216);
#664= IFCSHAPEREPRESENTATION(#24,'Body','SweptSolid',(#663));
#666= IFCPRODUCTDEFINITIONSHAPE($,$,(#664));
#669= IFCWALL('1Tu6F2FdH4b9kmtF$7uP2G',#12,'Upper Lab wall 6',$,$,#647,#666,$,$);
#672= IFCCARTESIANPOINT((9.,6.,3.5));
#674= IFCDIRECTION((0.,0.,1.));
#676= IFCDIRECTION((1.,0.,0.));
#678= IFCAXIS2PLACEMENT3D(#672,#674,#676);
#679= IFCLOCALPLACEMENT($,#678);
#680= IFCCARTESIANPOINT((0.,0.));
#682= IFCDIRECTION((1.,0.));
#684= IFCAXIS2PLACEMENT2D(#680,#682);
#685= IFCRECTANGLEPROFILEDEF(.AREA.,$,#684,0.144,9.84);
#686= IFCCARTESIANPOINT((0.,0.,0.));
#688= IFCDIRECTION((0.,0.,1.));
#690= IFCDIRECTION((1.,0.,0.));
#692= IFCAXIS2PLACEMENT3D(#686,#688,#690);
#693= IFCDIRECTION((0.,0.,1.));
#695= IFCEXTRUDEDAREASOLID(#685,#692,#693,3.216);
#696= IFCSHAPEREPRESENTATION(#24,'Body','SweptSolid',(#695));
#698= IFCPRODUCTDEFINITIONSHAPE($,$,(#696));
#701= IFCWALL('1pRA8RQgj05PDM$9mB0Wxk',#12,'Upper Lab wall 7',$,$,#679,#698,$,$);
#704= IFCCARTESIANPOINT((9.,8.,3.5));
#706= IFCDIRECTION((0.,0.,1.));
#708= IFCDIRECTION((1.,0.,0.));
#710= IFCAXIS2PLACEMENT3D(#704,#706,#708);
#711= IFCLOCALPLACEMENT($,#710);
#712= IFCCARTESIANPOINT((0.,0.));
#714= IFCDIRECTION((1.,0.));
#716= IFCAXIS2PLACEMENT2D(#712,#714);
#717= IFCRECTANGLEPROFILEDEF(.AREA.,$,#716,14.76,0.144);
#718= IFCCARTESIANPOINT((0.,0.,0.));
#720= IFCDIRECTION((0.,0.,1.));
#722= IFCDIRECTION((1.,0.,0.));
#724= IFCAXIS2PLACEMENT3D(#718,#720,#722);
#725= IFCDIRECTION((0.,0.,1.));
#727= IFCEXTRUDEDAREASOLID(#717,#724,#725,3.216);
#728= IFCSHAPEREPRESENTATION(#24,'Body','SweptSolid',(#727));
#730= IFCPRODUCTDEFINITIONSHAPE($,$,(#728));
#733= IFCWALL('0m3F1e9UPDu87O3J__Wd3A',#12,'Upper Lab wall 8',$,$,#711,#730,$,$);
#736= IFCCARTESIANPOINT((15.,6.,3.5));
#738= IFCDIRECTION((0.,0.,1.));
#740= IFCDIRECTION((1.,0.,0.));
#742= IFCAXIS2PLACEMENT3D(#736,#738,#740);
#743= IFCLOCALPLACEMENT($,#742);
#744= IFCCARTESIANPOINT((0.,0.));
#746= IFCDIRECTION((1.,0.));
#748= IFCAXIS2PLACEMENT2D(#744,#746);
#749= IFCRECTANGLEPROFILEDEF(.AREA.,$,#748,0.144,9.84);
#750= IFCCARTESIANPOINT((0.,0.,0.));
#752= IFCDIRECTION((0.,0.,1.));
#754= IFCDIRECTION((1.,0.,0.));
#756= IFCAXIS2PLACEMENT3D(#750,#752,#754);
#757= IFCDIRECTION((0.,0.,1.));
#759= IFCEXTRUDEDAREASOLID(#749,#756,#757,3.216);
#760= IFCSHAPEREPRESENTATION(#24,'Body','SweptSolid',(#759));
#762= IFCPRODUCTDEFINITIONSHAPE($,$,(#760));
#765= IFCWALL('1_3WO$jUb9MR9IxLnPJV4G',#12,'Upper Lab wall 9',$,$,#743,#762,$,$);
#768= IFCCARTESIANPOINT((4.5,6.,6.8));
#770= IFCDIRECTION((0.,0.,1.));
#772= IFCDIRECTION((1.,0.,0.));
#774= IFCAXIS2PLACEMENT3D(#768,#770,#772);
#775= IFCLOCALPLACEMENT($,#774);
#776= IFCCARTESIANPOINT((0.,0.));
#778= IFCDIRECTION((1.,0.));
#780= IFCAXIS2PLACEMENT2D(#776,#778);
#781= IFCRECTANGLEPROFILEDEF(.AREA.,$,#780,9.,12.);
#782= IFCCARTESIANPOINT((0.,0.,0.));
#784= IFCDIRECTION((0.,0.,1.));
#786= IFCDIRECTION((1.,0.,0.));
#788= IFCAXIS2PLACEMENT3D(#782,#784,#786);
#789= IFCDIRECTION((0.,0.,1.));
#791= IFCEXTRUDEDAREASOLID(#781,#788,#789,0.2);
#792= IFCSHAPEREPRESENTATION(#24,'Body','SweptSolid',(#791));
#794= IFCPRODUCTDEFINITIONSHAPE($,$,(#792));
#797= IFCROOF('3nfcGyDUD1luZmjfhU8cuO',#12,'roof segment 1',$,$,#775,#794,$,.FLAT_ROOF.);
#800= IFCCARTESIANPOINT((13.5,6.,6.8));
#802= IFCDIRECTION((0.,0.,1.));
#804= IFCDIRECTION((1.,0.,0.));
#806= IFCAXIS2PLACEMENT3D(#800,#802,#804);
#807= IFCLOCALPLACEMENT($,#806);
#808= IFCCARTESIANPOINT((0.,0.));
#810= IFCDIRECTION((1.,0.));
#812= IFCAXIS2PLACEMENT2D(#808,#810);
#813= IFCRECTANGLEPROFILEDEF(.AREA.,$,#812,9.,12.);
#814= IFCCARTESIANPOINT((0.,0.,0.));
#816= IFCDIRECTION((0.,0.,1.));
#818= IFCDIRECTION((1.,0.,0.));
#820= IFCAXIS2PLACEMENT3D(#814,#816,#818);
#821= IFCDIRECTION((0.,0.,1.));
#823= IFCEXTRUDEDAREASOLID(#813,#820,#821,0.2);
#824= IFCSHAPEREPRESENTATION(#24,'Body','SweptSolid',(#823));
#826= IFCPRODUCTDEFINITIONSHAPE($,$,(#824));
#829= IFCROOF('1rY1UY_nb78f0gxPTor1wa',#12,'roof segment 2',$,$,#807,#826,$,.FLAT_ROOF.);
#832= IFCCARTESIANPOINT((0.9,0.08,0.05));
#834= IFCDIRECTION((0.,0.,1.));
#836= IFCDIRECTION((1.,0.,0.));
#838= IFCAXIS2PLACEMENT3D(#832,#834,#836);
#839= IFCLOCALPLACEMENT($,#838);
#840= IFCCARTESIANPOINT((0.,0.));
#842= IFCDIRECTION((1.,0.));
#844= IFCAXIS2PLACEMENT2D(#840,#842);
#845= IFCRECTANGLEPROFILEDEF(.AREA.,$,#844,0.9,0.08);
#846= IFCCARTESIANPOINT((0.,0.,0.));
#848= IFCDIRECTION((0.,0.,1.));
#850= IFCDIRECTION((1.,0.,0.));
#852= IFCAXIS2PLACEMENT3D(#846,#848,#850);
#853= IFCDIRECTION((0.,0.,1.));
#855= IFCEXTRUDEDAREASOLID(#845,#852,#853,2.1);
#856= IFCSHAPEREPRESENTATION(#24,'Body','SweptSolid',(#855));
#858= IFCPRODUCTDEFINITIONSHAPE($,$,(#856));
#861= IFCDOOR('2tjCxr$TrB5uXWj1WkGRhL',#12,'door 1',$,$,#839,#858,$,2.1,0.9,.DOOR.,$,$);
#864= IFCCARTESIANPOINT((2.925,11.92,3.55));
#866= IFCDIRECTION((0.,0.,1.));
#868= IFCDIRECTION((1.,0.,0.));
#870= IFCAXIS2PLACEMENT3D(#864,#866,#868);
#871= IFCLOCALPLACEMENT($,#870);
#872= IFCCARTESIANPOINT((0.,0.));
#874= IFCDIRECTION((1.,0.));
#876= IFCAXIS2PLACEMENT2D(#872,#874);
#877= IFCRECTANGLEPROFILEDEF(.AREA.,$,#876,0.9,0.08);
#878= IFCCARTESIANPOINT((0.,0.,0.));
#880= IFCDIRECTION((0.,0.,1.));
#882= IFCDIRECTION((1.,0.,0.));
#884= IFCAXIS2PLACEMENT3D(#878,#880,#882);
#885= IFCDIRECTION((0.,0.,1.));
#887= IFCEXTRUDEDAREASOLID(#877,#884,#885,2.1);
#888= IFCSHAPEREPRESENTATION(#24,'Body','SweptSolid',(#887));
#890= IFCPRODUCTDEFINITIONSHAPE($,$,(#888));
#893= IFCDOOR('0DJcSxo6D7J88w_Sl5luz1',#12,'door 2',$,$,#871,#890,$,2.1,0.9,.DOOR.,$,$);
#896= IFCCARTESIANPOINT((4.95,0.08,0.05));
#898= IFCDIRECTION((0.,0.,1.));
#900= IFCDIRECTION((1.,0.,0.));
#902= IFCAXIS2PLACEMENT3D(#896,#898,#900);
#903= IFCLOCALPLACEMENT($,#902);
#904= IFCCARTESIANPOINT((0.,0.));
#906= IFCDIRECTION((1.,0.));
#908= IFCAXIS2PLACEMENT2D(#904,#906);
#909= IFCRECTANGLEPROFILEDEF(.AREA.,$,#908,0.9,0.08);
#910= IFCCARTESIANPOINT((0.,0.,0.));
#912= IFCDIRECTION((0.,0.,1.));
#914= IFCDIRECTION((1.,0.,0.));
#916= IFCAXIS2PLACEMENT3D(#910,#912,#914);
#917= IFCDIRECTION((0.,0.,1.));
#919= IFCEXTRUDEDAREASOLID(#909,#916,#917,2.1);
#920= IFCSHAPEREPRESENTATION(#24,'Body','SweptSolid',(#919));
#922= IFCPRODUCTDEFINITIONSHAPE($,$,(#920));
#925= IFCDOOR('3BWz4WTGf1JelofbajYtvT',#12,'door 3',$,$,#903,#922,$,2.1,0.9,.DOOR.,$,$);
#928= IFCCARTESIANPOINT((6.975,11.92,3.55));
#930= IFCDIRECTION((0.,0.,1.));
#932= IFCDIRECTION((1.,0.,0.));
#934= IFCAXIS2PLACEMENT3D(#928,#930,#932);
#935= IFCLOCALPLACEMENT($,#934);
#936= IFCCARTESIANPOINT((0.,0.));
#938= IFCDIRECTION((1.,0.));
#940= IFCAXIS2PLACEMENT2D(#936,#938);
#941= IFCRECTANGLEPROFILEDEF(.AREA.,$,#940,0.9,0.08);
#942= IFCCARTESIANPOINT((0.,0.,0.));
#944= IFCDIRECTION((0.,0.,1.));
#946= IFCDIRECTION((1.,0.,0.));
#948= IFCAXIS2PLACEMENT3D(#942,#944,#946);
#949= IFCDIRECTION((0.,0.,1.));
#951= IFCEXTRUDEDAREASOLID(#941,#948,#949,2.1);
#952= IFCSHAPEREPRESENTATION(#24,'Body','SweptSolid',(#951));
#954= IFCPRODUCTDEFINITIONSHAPE($,$,(#952));
#957= IFCDOOR('3uyEKkA112nxQNbBiWSyXo',#12,'door 4',$,$,#935,#954,$,2.1,0.9,.DOOR.,$,$);
#960= IFCCARTESIANPOINT((9.,0.08,0.05));
#962= IFCDIRECTION((0.,0.,1.));
#964= IFCDIRECTION((1.,0.,0.));
#966= IFCAXIS2PLACEMENT3D(#960,#962,#964);
#967= IFCLOCALPLACEMENT($,#966);
#968= IFCCARTESIANPOINT((0.,0.));
#970= IFCDIRECTION((1.,0.));
#972= IFCAXIS2PLACEMENT2D(#968,#970);
#973= IFCRECTANGLEPROFILEDEF(.AREA.,$,#972,0.9,0.08);
#974= IFCCARTESIANPOINT((0.,0.,0.));
#976= IFCDIRECTION((0.,0.,1.));
#978= IFCDIRECTION((1.,0.,0.));
#980= IFCAXIS2PLACEMENT3D(#974,#976,#978);
#981= IFCDIRECTION((0.,0.,1.));
#983= IFCEXTRUDEDAREASOLID(#973,#980,#981,2.1);
#984= IFCSHAPEREPRESENTATION(#24,'Body','SweptSolid',(#983));
#986= IFCPRODUCTDEFINITIONSHAPE($,$,(#984));
#989= IFCDOOR('3LlSWRBcPCJA6qXWfG_Dvt',#12,'door 5',$,$,#967,#986,$,2.1,0.9,.DOOR.,$,$);
#992= IFCCARTESIANPOINT((11.025,11.92,3.55));
#994= IFCDIRECTION((0.,0.,1.));
#996= IFCDIRECTION((1.,0.,0.));
#998= IFCAXIS2PLACEMENT3D(#992,#994,#996);
#999= IFCLOCALPLACEMENT($,#998);
#1000= IFCCARTESIANPOINT((0.,0.));
#1002= IFCDIRECTION((1.,0.));
#1004= IFCAXIS2PLACEMENT2D(#1000,#1002);
#1005= IFCRECTANGLEPROFILEDEF(.AREA.,$,#1004,0.9,0.08);
#1006= IFCCARTESIANPOINT((0.,0.,0.));
#1008= IFCDIRECTION((0.,0.,1.));
#1010= IFCDIRECTION((1.,0.,0.));
#1012= IFCAXIS2PLACEMENT3D(#1006,#1008,#1010);
#1013= IFCDIRECTION((0.,0.,1.));
#1015= IFCEXTRUDEDAREASOLID(#1005,#1012,#1013,2.1);
#1016= IFCSHAPEREPRESENTATION(#24,'Body','SweptSolid',(#1015));
#1018= IFCPRODUCTDEFINITIONSHAPE($,$,(#1016));
#1021= IFCDOOR('1QNq501OvE5PT8ZbZcxQnE',#12,'door 6',$,$,#999,#1018,$,2.1,0.9,.DOOR.,$,$);
#1024= IFCCARTESIANPOINT((13.05,0.08,0.05));
#1026= IFCDIRECTION((0.,0.,1.));
#1028= IFCDIRECTION((1.,0.,0.));
#1030= IFCAXIS2PLACEMENT3D(#1024,#1026,#1028);
#1031= IFCLOCALPLACEMENT($,#1030);
#1032= IFCCARTESIANPOINT((0.,0.));
#1034= IFCDIRECTION((1.,0.));
#1036= IFCAXIS2PLACEMENT2D(#1032,#1034);
#1037= IFCRECTANGLEPROFILEDEF(.AREA.,$,#1036,0.9,0.08);
#1038= IFCCARTESIANPOINT((0.,0.,0.));
#1040= IFCDIRECTION((0.,0.,1.));
#1042= IFCDIRECTION((1.,0.,0.));
#1044= IFCAXIS2PLACEMENT3D(#1038,#1040,#1042);
#1045= IFCDIRECTION((0.,0.,1.));
#1047= IFCEXTRUDEDAREASOLID(#1037,#1044,#1045,2.1);
#1048= IFCSHAPEREPRESENTATION(#24,'Body','SweptSolid',(#1047));
#1050= IFCPRODUCTDEFINITIONSHAPE($,$,(#1048));
#1053= IFCDOOR('1e4tNGGjH2685$DCJeVXL4',#12,'door 7',$,$,#1031,#1050,$,2.1,0.9,.DOOR.,$,$);
#1056= IFCCARTESIANPOINT((15.075,11.92,3.55));
#1058= IFCDIRECTION((0.,0.,1.));
#1060= IFCDIRECTION((1.,0.,0.));
#1062= IFCAXIS2PLACEMENT3D(#1056,#1058,#1060);
#1063= IFCLOCALPLACEMENT($,#1062);
#1064= IFCCARTESIANPOINT((0.,0.));
#1066= IFCDIRECTION((1.,0.));
#1068= IFCAXIS2PLACEMENT2D(#1064,#1066);
#1069= IFCRECTANGLEPROFILEDEF(.AREA.,$,#1068,0.9,0.08);
#1070= IFCCARTESIANPOINT((0.,0.,0.));
#1072= IFCDIRECTION((0.,0.,1.));
#1074= IFCDIRECTION((1.,0.,0.));
#1076= IFCAXIS2PLACEMENT3D(#1070,#1072,#1074);
#1077= IFCDIRECTION((0.,0.,1.));
#1079= IFCEXTRUDEDAREASOLID(#1069,#1076,#1077,2.1);
#1080= IFCSHAPEREPRESENTATION(#24,'Body','SweptSolid',(#1079));
#1082= IFCPRODUCTDEFINITIONSHAPE($,$,(#1080));
#1085= IFCDOOR('0VCD1cbFnCABgLWX3wkL3Q',#12,'door 8',$,$,#1063,#1082,$,2.1,0.9,.DOOR.,$,$);
#1088= IFCCARTESIANPOINT((1.,11.93,1.2));
#1090= IFCDIRECTION((0.,0.,1.));
#1092= IFCDIRECTION((1.,0.,0.));
#1094= IFCAXIS2PLACEMENT3D(#1088,#1090,#1092);
#1095= IFCLOCALPLACEMENT($,#1094);
#1096= IFCCARTESIANPOINT((0.,0.));
#1098= IFCDIRECTION((1.,0.));
#1100= IFCAXIS2PLACEMENT2D(#1096,#1098);
#1101= IFCRECTANGLEPROFILEDEF(.AREA.,$,#1100,1.2,0.06);
#1102= IFCCARTESIANPOINT((0.,0.,0.));
#1104= IFCDIRECTION((0.,0.,1.));
#1106= IFCDIRECTION((1.,0.,0.));
#1108= IFCAXIS2PLACEMENT3D(#1102,#1104,#1106);
#1109= IFCDIRECTION((0.,0.,1.));
#1111= IFCEXTRUDEDAREASOLID(#1101,#1108,#1109,1.1);
#1112= IFCSHAPEREPRESENTATION(#24,'Body','SweptSolid',(#1111));
#1114= IFCPRODUCTDEFINITIONSHAPE($,$,(#1112));
#1117= IFCWINDOW('2KppeOIlDA8eFkfEOVLDzQ',#12,'window 1',$,$,#1095,#1114,$,1.1,1.2,.WINDOW.,$,$);
#1120= IFCCARTESIANPOINT((2.6,0.07,4.7));
#1122= IFCDIRECTION((0.,0.,1.));
#1124= IFCDIRECTION((1.,0.,0.));
#1126= IFCAXIS2PLACEMENT3D(#1120,#1122,#1124);
#1127= IFCLOCALPLACEMENT($,#1126);
#1128= IFCCARTESIANPOINT((0.,0.));
#1130= IFCDIRECTION((1.,0.));
#1132= IFCAXIS2PLACEMENT2D(#1128,#1130);
#1133= IFCRECTANGLEPROFILEDEF(.AREA.,$,#1132,1.2,0.06);
#1134= IFCCARTESIANPOINT((0.,0.,0.));
#1136= IFCDIRECTION((0.,0.,1.));
#1138= IFCDIRECTION((1.,0.,0.));
#1140= IFCAXIS2PLACEMENT3D(#1134,#1136,#1138);
#1141= IFCDIRECTION((0.,0.,1.));
#1143= IFCEXTRUDEDAREASOLID(#1133,#1140,#1141,1.1);
#1144= IFCSHAPEREPRESENTATION(#24,'Body','SweptSolid',(#1143));
#1146= IFCPRODUCTDEFINITIONSHAPE($,$,(#1144));
#1149= IFCWINDOW('1sLvD9sdnF_vsWwnydwvl3',#12,'window 2',$,$,#1127,#1146,$,1.1,1.2,.WINDOW.,$,$);
#1152= IFCCARTESIANPOINT((4.2,11.93,1.2));
#1154= IFCDIRECTION((0.,0.,1.));
#1156= IFCDIRECTION((1.,0.,0.));
#1158= IFCAXIS2PLACEMENT3D(#1152,#1154,#1156);
#1159= IFCLOCALPLACEMENT($,#1158);
#1160= IFCCARTESIANPOINT((0.,0.));
#1162= IFCDIRECTION((1.,0.));
#1164= IFCAXIS2PLACEMENT2D(#1160,#1162);
#1165= IFCRECTANGLEPROFILEDEF(.AREA.,$,#1164,1.2,0.06);
#1166= IFCCARTESIANPOINT((0.,0.,0.));
#1168= IFCDIRECTION((0.,0.,1.));
#1170= IFCDIRECTION((1.,0.,0.));
#1172= IFCAXIS2PLACEMENT3D(#1166,#1168,#1170);
#1173= IFCDIRECTION((0.,0.,1.));
#1175= IFCEXTRUDEDAREASOLID(#1165,#1172,#1173,1.1);
#1176= IFCSHAPEREPRESENTATION(#24,'Body','SweptSolid',(#1175));
#1178= IFCPRODUCTDEFINITIONSHAPE($,$,(#1176));
#1181= IFCWINDOW('0mWyDmpS11sf4wtFwfZ53N',#12,'window 3',$,$,#1159,#1178,$,1.1,1.2,.WINDOW.,$,$);
#1184= IFCCARTESIANPOINT((5.8,0.07,4.7));
#1186= IFCDIRECTION((0.,0.,1.));
#1188= IFCDIRECTION((1.,0.,0.));
#1190= IFCAXIS2PLACEMENT3D(#1184,#1186,#1188);
#1191= IFCLOCALPLACEMENT($,#1190);
#1192= IFCCARTESIANPOINT((0.,0.));
#1194= IFCDIRECTION((1.,0.));
#1196= IFCAXIS2PLACEMENT2D(#1192,#1194);
#1197= IFCRECTANGLEPROFILEDEF(.AREA.,$,#1196,1.2,0.06);
#1198= IFCCARTESIANPOINT((0.,0.,0.));
#1200= IFCDIRECTION((0.,0.,1.));
#1202= IFCDIRECTION((1.,0.,0.));
#1204= IFCAXIS2PLACEMENT3D(#1198,#1200,#1202);
#1205= IFCDIRECTION((0.,0.,1.));
#1207= IFCEXTRUDEDAREASOLID(#1197,#1204,#1205,1.1);
#1208= IFCSHAPEREPRESENTATION(#24,'Body','SweptSolid',(#1207));
#1210= IFCPRODUCTDEFINITIONSHAPE($,$,(#1208));
#1213= IFCWINDOW('0$RNB7H0v8DgckzsJfBiOz',#12,'window 4',$,$,#1191,#1210,$,1.1,1.2,.WINDOW.,$,$);
#1216= IFCCARTESIANPOINT((7.4,11.93,1.2));
#1218= IFCDIRECTION((0.,0.,1.));
#1220= IFCDIRECTION((1.,0.,0.));
#1222= IFCAXIS2PLACEMENT3D(#1216,#1218,#1220);
#1223= IFCLOCALPLACEMENT($,#1222);
#1224= IFCCARTESIANPOINT((0.,0.));
#1226= IFCDIRECTION((1.,0.));
#1228= IFCAXIS2PLACEMENT2D(#1224,#1226);
#1229= IFCRECTANGLEPROFILEDEF(.AREA.,$,#1228,1.2,0.06);
#1230= IFCCARTESIANPOINT((0.,0.,0.));
#1232= IFCDIRECTION((0.,0.,1.));
#1234= IFCDIRECTION((1.,0.,0.));
#1236= IFCAXIS2PLACEMENT3D(#1230,#1232,#1234);
#1237= IFCDIRECTION((0.,0.,1.));
#1239= IFCEXTRUDEDAREASOLID(#1229,#1236,#1237,1.1);
#1240= IFCSHAPEREPRESENTATION(#24,'Body','SweptSolid',(#1239));
#1242= IFCPRODUCTDEFINITIONSHAPE($,$,(#1240));
#1245= IFCWINDOW('1Mjg324l95MxfnNP75zrPs',#12,'window 5',$,$,#1223,#1242,$,1.1,1.2,.WINDOW.,$,$);
#1248= IFCCARTESIANPOINT((9.,0.07,4.7));
#1250= IFCDIRECTION((0.,0.,1.));
#1252= IFCDIRECTION((1.,0.,0.));
#1254= IFCAXIS2PLACEMENT3D(#1248,#1250,#1252);
#1255= IFCLOCALPLACEMENT($,#1254);
#1256= IFCCARTESIANPOINT((0.,0.));
#1258= IFCDIRECTION((1.,0.));
#1260= IFCAXIS2PLACEMENT2D(#1256,#1258);
#1261= IFCRECTANGLEPROFILEDEF(.AREA.,$,#1260,1.2,0.06);
#1262= IFCCARTESIANPOINT((0.,0.,0.));
#1264= IFCDIRECTION((0.,0.,1.));
#1266= IFCDIRECTION((1.,0.,0.));
#1268= IFCAXIS2PLACEMENT3D(#1262,#1264,#1266);
#1269= IFCDIRECTION((0.,0.,1.));
#1271= IFCEXTRUDEDAREASOLID(#1261,#1268,#1269,1.1);
#1272= IFCSHAPEREPRESENTATION(#24,'Body','SweptSolid',(#1271));
#1274= IFCPRODUCTDEFINITIONSHAPE($,$,(#1272));
#1277= IFCWINDOW('1wzejqj0zCK9AbWJnptC_2',#12,'window 6',$,$,#1255,#1274,$,1.1,1.2,.WINDOW.,$,$);
#1280= IFCCARTESIANPOINT((10.6,11.93,1.2));
#1282= IFCDIRECTION((0.,0.,1.));
#1284= IFCDIRECTION((1.,0.,0.));
#1286= IFCAXIS2PLACEMENT3D(#1280,#1282,#1284);
#1287= IFCLOCALPLACEMENT($,#1286);
#1288= IFCCARTESIANPOINT((0.,0.));
#1290= IFCDIRECTION((1.,0.));
#1292= IFCAXIS2PLACEMENT2D(#1288,#1290);
#1293= IFCRECTANGLEPROFILEDEF(.AREA.,$,#1292,1.2,0.06);
#1294= IFCCARTESIANPOINT((0.,0.,0.));
#1296= IFCDIRECTION((0.,0.,1.));
#1298= IFCDIRECTION((1.,0.,0.));
#1300= IFCAXIS2PLACEMENT3D(#1294,#1296,#1298);
#1301= IFCDIRECTION((0.,0.,1.));
#1303= IFCEXTRUDEDAREASOLID(#1293,#1300,#1301,1.1);
#1304= IFCSHAPEREPRESENTATION(#24,'Body','SweptSolid',(#1303));
#1306= IFCPRODUCTDEFINITIONSHAPE($,$,(#1304));
#1309= IFCWINDOW('0oukWiTlXCZRmpsQo7FD3o',#12,'window 7',$,$,#1287,#1306,$,1.1,1.2,.WINDOW.,$,$);
#1312= IFCCARTESIANPOINT((12.2,0.07,4.7));
#1314= IFCDIRECTION((0.,0.,1.));
#1316= IFCDIRECTION((1.,0.,0.));
#1318= IFCAXIS2PLACEMENT3D(#1312,#1314,#1316);
#1319= IFCLOCALPLACEMENT($,#1318);
#1320= IFCCARTESIANPOINT((0.,0.));
#1322= IFCDIRECTION((1.,0.));
#1324= IFCAXIS2PLACEMENT2D(#1320,#1322);
#1325= IFCRECTANGLEPROFILEDEF(.AREA.,$,#1324,1.2,0.06);
#1326= IFCCARTESIANPOINT((0.,0.,0.));
#1328= IFCDIRECTION((0.,0.,1.));
#1330= IFCDIRECTION((1.,0.,0.));
#1332= IFCAXIS2PLACEMENT3D(#1326,#1328,#1330);
#1333= IFCDIRECTION((0.,0.,1.));
#1335= IFCEXTRUDEDAREASOLID(#1325,#1332,#1333,1.1);
#1336= IFCSHAPEREPRESENTATION(#24,'Body','SweptSolid',(#1335));
#1338= IFCPRODUCTDEFINITIONSHAPE($,$,(#1336));
#1341= IFCWINDOW('38DMTxZ4P77vKmKUCy5of0',#12,'window 8',$,$,#1319,#1338,$,1.1,1.2,.WINDOW.,$,$);
#1344= IFCCARTESIANPOINT((13.8,11.93,1.2));
#1346= IFCDIRECTION((0.,0.,1.));
#1348= IFCDIRECTION((1.,0.,0.));
#1350= IFCAXIS2PLACEMENT3D(#1344,#1346,#1348);
#1351= IFCLOCALPLACEMENT($,#1350);
#1352= IFCCARTESIANPOINT((0.,0.));
#1354= IFCDIRECTION((1.,0.));
#1356= IFCAXIS2PLACEMENT2D(#1352,#1354);
#1357= IFCRECTANGLEPROFILEDEF(.AREA.,$,#1356,1.2,0.06);
#1358= IFCCARTESIANPOINT((0.,0.,0.));
#1360= IFCDIRECTION((0.,0.,1.));
#1362= IFCDIRECTION((1.,0.,0.));
#1364= IFCAXIS2PLACEMENT3D(#1358,#1360,#1362);
#1365= IFCDIRECTION((0.,0.,1.));
#1367= IFCEXTRUDEDAREASOLID(#1357,#1364,#1365,1.1);
#1368= IFCSHAPEREPRESENTATION(#24,'Body','SweptSolid',(#1367));
#1370= IFCPRODUCTDEFINITIONSHAPE($,$,(#1368));
#1373= IFCWINDOW('37Ge5zmPn1ff_AUrG$8_oG',#12,'window 9',$,$,#1351,#1370,$,1.1,1.2,.WINDOW.,$,$);
#1376= IFCCARTESIANPOINT((15.4,0.07,4.7));
#1378= IFCDIRECTION((0.,0.,1.));
#1380= IFCDIRECTION((1.,0.,0.));
#1382= IFCAXIS2PLACEMENT3D(#1376,#1378,#1380);
#1383= IFCLOCALPLACEMENT($,#1382);
#1384= IFCCARTESIANPOINT((0.,0.));
#1386= IFCDIRECTION((1.,0.));
#1388= IFCAXIS2PLACEMENT2D(#1384,#1386);
#1389= IFCRECTANGLEPROFILEDEF(.AREA.,$,#1388,1.2,0.06);
#1390= IFCCARTESIANPOINT((0.,0.,0.));
#1392= IFCDIRECTION((0.,0.,1.));
#1394= IFCDIRECTION((1.,0.,0.));
#1396= IFCAXIS2PLACEMENT3D(#1390,#1392,#1394);
#1397= IFCDIRECTION((0.,0.,1.));
#1399= IFCEXTRUDEDAREASOLID(#1389,#1396,#1397,1.1);
#1400= IFCSHAPEREPRESENTATION(#24,'Body','SweptSolid',(#1399));
#1402= IFCPRODUCTDEFINITIONSHAPE($,$,(#1400));
#1405= IFCWINDOW('28FBBU4WX55gtzb$nBrVYN',#12,'window 10',$,$,#1383,#1402,$,1.1,1.2,.WINDOW.,$,$);
#1408= IFCCARTESIANPOINT((16.,2.,0.05));
#1410= IFCDIRECTION((0.,0.,1.));
#1412= IFCDIRECTION((1.,0.,0.));
#1414= IFCAXIS2PLACEMENT3D(#1408,#1410,#1412);
#1415= IFCLOCALPLACEMENT($,#1414);
#1416= IFCCARTESIANPOINT((0.,0.));
#1418= IFCDIRECTION((1.,0.));
#1420= IFCAXIS2PLACEMENT2D(#1416,#1418);
#1421= IFCRECTANGLEPROFILEDEF(.AREA.,$,#1420,2.,3.);
#1422= IFCCARTESIANPOINT((0.,0.,0.));
#1424= IFCDIRECTION((0.,0.,1.));
#1426= IFCDIRECTION((1.,0.,0.));
#1428= IFCAXIS2PLACEMENT3D(#1422,#1424,#1426);
#1429= IFCDIRECTION((0.,0.,1.));
#1431= IFCEXTRUDEDAREASOLID(#1421,#1428,#1429,3.2);
#1432= IFCSHAPEREPRESENTATION(#24,'Body','SweptSolid',(#1431));
#1434= IFCPRODUCTDEFINITIONSHAPE($,$,(#1432));
#1437= IFCSTAIR('0mR5AJlNLBSPpCp7cRUJeJ',#12,'stair 1',$,$,#1415,#1434,$,.STRAIGHT_RUN_STAIR.);
#1440= IFCCARTESIANPOINT((3.43333333333,2.43333333333,0.05));
#1442= IFCDIRECTION((0.,0.,1.));
#1444= IFCDIRECTION((1.,0.,0.));
#1446= IFCAXIS2PLACEMENT3D(#1440,#1442,#1444);
#1447= IFCLOCALPLACEMENT($,#1446);
#1448= IFCCARTESIANPOINT((0.,0.));
#1450= IFCDIRECTION((1.,0.));
#1452= IFCAXIS2PLACEMENT2D(#1448,#1450);
#1453= IFCRECTANGLEPROFILEDEF(.AREA.,$,#1452,4.25,2.75);
#1454= IFCCARTESIANPOINT((0.,0.,0.));
#1456= IFCDIRECTION((0.,0.,1.));
#1458= IFCDIRECTION((1.,0.,0.));
#1460= IFCAXIS2PLACEMENT3D(#1454,#1456,#1458);
#1461= IFCDIRECTION((0.,0.,1.));
#1463= IFCEXTRUDEDAREASOLID(#1453,#1460,#1461,3.);
#1464= IFCSHAPEREPRESENTATION(#24,'Body','SweptSolid',(#1463));
#1466= IFCPRODUCTDEFINITIONSHAPE($,$,(#1464));
#1469= IFCSPACE('38bqlHwofCTBIKoFMdj2st',#12,'ATRIUM',$,$,#1447,#1466,$,$,.INTERNAL.,$);
#1474= IFCPROPERTYSINGLEVALUE('ZoneNumber',$,IFCTEXT('L01'),$);
#1482= IFCPROPERTYSINGLEVALUE('Area',$,IFCREAL(36.),$);
#1483= IFCPROPERTYSINGLEVALUE('Outdoor',$,IFCBOOLEAN(.F.),$);
#1484= IFCPROPERTYSINGLEVALUE('Department',$,IFCTEXT('PUBLIC'),$);
#1485= IFCPROPERTYSET('0kytt$Ip5ELBFZRZtM2V7F',#12,'Pset_EngiWorld',$,(#1474,#1482,#1483,#1484));
#1496= IFCRELDEFINESBYPROPERTIES('1kwKbbcV52Zxxh6kGtoSMF',#12,'ATRIUM properties',$,(#1469),#1485);
#1500= IFCCARTESIANPOINT((9.1,2.43333333333,0.05));
#1502= IFCDIRECTION((0.,0.,1.));
#1504= IFCDIRECTION((1.,0.,0.));
#1506= IFCAXIS2PLACEMENT3D(#1500,#1502,#1504);
#1507= IFCLOCALPLACEMENT($,#1506);
#1508= IFCCARTESIANPOINT((0.,0.));
#1510= IFCDIRECTION((1.,0.));
#1512= IFCAXIS2PLACEMENT2D(#1508,#1510);
#1513= IFCRECTANGLEPROFILEDEF(.AREA.,$,#1512,4.25,2.75);
#1514= IFCCARTESIANPOINT((0.,0.,0.));
#1516= IFCDIRECTION((0.,0.,1.));
#1518= IFCDIRECTION((1.,0.,0.));
#1520= IFCAXIS2PLACEMENT3D(#1514,#1516,#1518);
#1521= IFCDIRECTION((0.,0.,1.));
#1523= IFCEXTRUDEDAREASOLID(#1513,#1520,#1521,3.);
#1524= IFCSHAPEREPRESENTATION(#24,'Body','SweptSolid',(#1523));
#1526= IFCPRODUCTDEFINITIONSHAPE($,$,(#1524));
#1529= IFCSPACE('3F7aWnzoL32P8Yceg$l0hQ',#12,'LAB-1',$,$,#1507,#1526,$,$,.INTERNAL.,$);
#1532= IFCPROPERTYSINGLEVALUE('ZoneNumber',$,IFCTEXT('L02'),$);
#1533= IFCPROPERTYSINGLEVALUE('Area',$,IFCREAL(42.),$);
#1534= IFCPROPERTYSINGLEVALUE('Outdoor',$,IFCBOOLEAN(.F.),$);
#1535= IFCPROPERTYSINGLEVALUE('Department',$,IFCTEXT('TEACHING'),$);
#1536= IFCPROPERTYSET('3RxOMNdzXA8uiOPw414TRd',#12,'Pset_EngiWorld',$,(#1532,#1533,#1534,#1535));
#1542= IFCRELDEFINESBYPROPERTIES('3HzEvBNjj539WbapWTkV60',#12,'LAB-1 properties',$,(#1529),#1536);
#1546= IFCCARTESIANPOINT((14.7666666667,2.43333333333,0.05));
#1548= IFCDIRECTION((0.,0.,1.));
#1550= IFCDIRECTION((1.,0.,0.));
#1552= IFCAXIS2PLACEMENT3D(#1546,#1548,#1550);
#1553= IFCLOCALPLACEMENT($,#1552);
#1554= IFCCARTESIANPOINT((0.,0.));
#1556= IFCDIRECTION((1.,0.));
#1558= IFCAXIS2PLACEMENT2D(#1554,#1556);
#1559= IFCRECTANGLEPROFILEDEF(.AREA.,$,#1558,4.25,2.75);
#1560= IFCCARTESIANPOINT((0.,0.,0.));
#1562= IFCDIRECTION((0.,0.,1.));
#1564= IFCDIRECTION((1.,0.,0.));
#1566= IFCAXIS2PLACEMENT3D(#1560,#1562,#1564);
#1567= IFCDIRECTION((0.,0.,1.));
#1569= IFCEXTRUDEDAREASOLID(#1559,#1566,#1567,3.);
#1570= IFCSHAPEREPRESENTATION(#24,'Body','SweptSolid',(#1569));
#1572= IFCPRODUCTDEFINITIONSHAPE($,$,(#1570));
#1575= IFCSPACE('1rjH7nqHn6HwWXt4FzzdQs',#12,'LAB-2',$,$,#1553,#1572,$,$,.INTERNAL.,$);
#1578= IFCPROPERTYSINGLEVALUE('ZoneNumber',$,IFCTEXT('L03'),$);
#1579= IFCPROPERTYSINGLEVALUE('Area',$,IFCREAL(42.),$);
#1580= IFCPROPERTYSINGLEVALUE('Outdoor',$,IFCBOOLEAN(.F.),$);
#1581= IFCPROPERTYSINGLEVALUE('Department',$,IFCTEXT('TEACHING'),$);
#1582= IFCPROPERTYSET('31T0lylhzEOhOBpiyDkayM',#12,'Pset_EngiWorld',$,(#1578,#1579,#1580,#1581));
#1588= IFCRELDEFINESBYPROPERTIES('2QbBSGDb5FgfsNkSthPghn',#12,'LAB-2 properties',$,(#1575),#1582);
#1592= IFCCARTESIANPOINT((3.43333333333,6.1,0.05));
#1594= IFCDIRECTION((0.,0.,1.));
#1596= IFCDIRECTION((1.,0.,0.));
#1598= IFCAXIS2PLACEMENT3D(#1592,#1594,#1596);
#1599= IFCLOCALPLACEMENT($,#1598);
#1600= IFCCARTESIANPOINT((0.,0.));
#1602= IFCDIRECTION((1.,0.));
#1604= IFCAXIS2PLACEMENT2D(#1600,#1602);
#1605= IFCRECTANGLEPROFILEDEF(.AREA.,$,#1604,4.24264068712,2.75);
#1606= IFCCARTESIANPOINT((0.,0.,0.));
#1608= IFCDIRECTION((0.,0.,1.));
#1610= IFCDIRECTION((1.,0.,0.));
#1612= IFCAXIS2PLACEMENT3D(#1606,#1608,#1610);
#1613= IFCDIRECTION((0.,0.,1.));
#1615= IFCEXTRUDEDAREASOLID(#1605,#1612,#1613,3.);
#1616= IFCSHAPEREPRESENTATION(#24,'Body','SweptSolid',(#1615));
#1618= IFCPRODUCTDEFINITIONSHAPE($,$,(#1616));
#1621= IFCSPACE('0AKptWnW1FbgDqtSygSfZL',#12,'PREP',$,$,#1599,#1618,$,$,.INTERNAL.,$);
#1624= IFCPROPERTYSINGLEVALUE('ZoneNumber',$,IFCTEXT('L04'),$);
#1625= IFCPROPERTYSINGLEVALUE('Area',$,IFCREAL(18.),$);
#1626= IFCPROPERTYSINGLEVALUE('Outdoor',$,IFCBOOLEAN(.F.),$);
#1627= IFCPROPERTYSINGLEVALUE('Department',$,IFCTEXT('SUPPORT'),$);
#1628= IFCPROPERTYSET('07PfBKGGv4M88D3gy_cl$d',#12,'Pset_EngiWorld',$,(#1624,#1625,#1626,#1627));
#1634= IFCRELDEFINESBYPROPERTIES('3ROFnJmaTDexaXXBa0SKYD',#12,'PREP properties',$,(#1621),#1628);
#1638= IFCCARTESIANPOINT((9.1,6.1,0.05));
#1640= IFCDIRECTION((0.,0.,1.));
#1642= IFCDIRECTION((1.,0.,0.));
#1644= IFCAXIS2PLACEMENT3D(#1638,#1640,#1642);
#1645= IFCLOCALPLACEMENT($,#1644);
#1646= IFCCARTESIANPOINT((0.,0.));
#1648= IFCDIRECTION((1.,0.));
#1650= IFCAXIS2PLACEMENT2D(#1646,#1648);
#1651= IFCRECTANGLEPROFILEDEF(.AREA.,$,#1650,3.46410161514,2.75);
#1652= IFCCARTESIANPOINT((0.,0.,0.));
#1654= IFCDIRECTION((0.,0.,1.));
#1656= IFCDIRECTION((1.,0.,0.));
#1658= IFCAXIS2PLACEMENT3D(#1652,#1654,#1656);
#1659= IFCDIRECTION((0.,0.,1.));
#1661= IFCEXTRUDEDAREASOLID(#1651,#1658,#1659,3.);
#1662= IFCSHAPEREPRESENTATION(#24,'Body','SweptSolid',(#1661));
#1664= IFCPRODUCTDEFINITIONSHAPE($,$,(#1662));
#1667= IFCSPACE('3VPh6PtZzD5xqFLsivBaE6',#12,'STORAGE',$,$,#1645,#1664,$,$,.INTERNAL.,$);
#1670= IFCPROPERTYSINGLEVALUE('ZoneNumber',$,IFCTEXT('L05'),$);
#1671= IFCPROPERTYSINGLEVALUE('Area',$,IFCREAL(12.),$);
#1672= IFCPROPERTYSINGLEVALUE('Outdoor',$,IFCBOOLEAN(.F.),$);
#1673= IFCPROPERTYSINGLEVALUE('Department',$,IFCTEXT('SUPPORT'),$);
#1674= IFCPROPERTYSET('2o2bwduYn3cfv0_aeZdVqt',#12,'Pset_EngiWorld',$,(#1670,#1671,#1672,#1673));
#1680= IFCRELDEFINESBYPROPERTIES('1UEeedsab0OOrFbU8b7SGX',#12,'STORAGE properties',$,(#1667),#1674);
#1684= IFCCARTESIANPOINT((14.7666666667,6.1,0.05));
#1686= IFCDIRECTION((0.,0.,1.));
#1688= IFCDIRECTION((1.,0.,0.));
#1690= IFCAXIS2PLACEMENT3D(#1684,#1686,#1688);
#1691= IFCLOCALPLACEMENT($,#1690);
#1692= IFCCARTESIANPOINT((0.,0.));
#1694= IFCDIRECTION((1.,0.));
#1696= IFCAXIS2PLACEMENT2D(#1692,#1694);
#1697= IFCRECTANGLEPROFILEDEF(.AREA.,$,#1696,3.46410161514,2.75);
#1698= IFCCARTESIANPOINT((0.,0.,0.));
#1700= IFCDIRECTION((0.,0.,1.));
#1702= IFCDIRECTION((1.,0.,0.));
#1704= IFCAXIS2PLACEMENT3D(#1698,#1700,#1702);
#1705= IFCDIRECTION((0.,0.,1.));
#1707= IFCEXTRUDEDAREASOLID(#1697,#1704,#1705,3.);
#1708= IFCSHAPEREPRESENTATION(#24,'Body','SweptSolid',(#1707));
#1710= IFCPRODUCTDEFINITIONSHAPE($,$,(#1708));
#1713= IFCSPACE('3xqEmyaPTDLudexzk4Thfe',#12,'STAIR',$,$,#1691,#1710,$,$,.INTERNAL.,$);
#1716= IFCPROPERTYSINGLEVALUE('ZoneNumber',$,IFCTEXT('L06'),$);
#1717= IFCPROPERTYSINGLEVALUE('Area',$,IFCREAL(12.),$);
#1718= IFCPROPERTYSINGLEVALUE('Outdoor',$,IFCBOOLEAN(.F.),$);
#1719= IFCPROPERTYSINGLEVALUE('Department',$,IFCTEXT('CIRCULATION'),$);
#1720= IFCPROPERTYSET('2OsiDu$DjEPxXhaglSaIfz',#12,'Pset_EngiWorld',$,(#1716,#1717,#1718,#1719));
#1726= IFCRELDEFINESBYPROPERTIES('17kwmpmTP0bvxYS1L9vv8J',#12,'STAIR properties',$,(#1713),#1720);
#1730= IFCCARTESIANPOINT((3.43333333333,9.76666666667,3.55));
#1732= IFCDIRECTION((0.,0.,1.));
#1734= IFCDIRECTION((1.,0.,0.));
#1736= IFCAXIS2PLACEMENT3D(#1730,#1732,#1734);
#1737= IFCLOCALPLACEMENT($,#1736);
#1738= IFCCARTESIANPOINT((0.,0.));
#1740= IFCDIRECTION((1.,0.));
#1742= IFCAXIS2PLACEMENT2D(#1738,#1740);
#1743= IFCRECTANGLEPROFILEDEF(.AREA.,$,#1742,4.25,2.75);
#1744= IFCCARTESIANPOINT((0.,0.,0.));
#1746= IFCDIRECTION((0.,0.,1.));
#1748= IFCDIRECTION((1.,0.,0.));
#1750= IFCAXIS2PLACEMENT3D(#1744,#1746,#1748);
#1751= IFCDIRECTION((0.,0.,1.));
#1753= IFCEXTRUDEDAREASOLID(#1743,#1750,#1751,3.);
#1754= IFCSHAPEREPRESENTATION(#24,'Body','SweptSolid',(#1753));
#1756= IFCPRODUCTDEFINITIONSHAPE($,$,(#1754));
#1759= IFCSPACE('2mNZ5rZt9ECRG7zSjZC2N$',#12,'LAB-3',$,$,#1737,#1756,$,$,.INTERNAL.,$);
#1762= IFCPROPERTYSINGLEVALUE('ZoneNumber',$,IFCTEXT('U01'),$);
#1763= IFCPROPERTYSINGLEVALUE('Area',$,IFCREAL(42.),$);
#1764= IFCPROPERTYSINGLEVALUE('Outdoor',$,IFCBOOLEAN(.F.),$);
#1765= IFCPROPERTYSINGLEVALUE('Department',$,IFCTEXT('TEACHING'),$);
#1766= IFCPROPERTYSET('0vyPdgHEH4IgPM8iCfCV$Y',#12,'Pset_EngiWorld',$,(#1762,#1763,#1764,#1765));
#1772= IFCRELDEFINESBYPROPERTIES('1EBIDc7Uz2Sfn4OBG9oOfq',#12,'LAB-3 properties',$,(#1759),#1766);
#1776= IFCCARTESIANPOINT((9.1,9.76666666667,3.55));
#1778= IFCDIRECTION((0.,0.,1.));
#1780= IFCDIRECTION((1.,0.,0.));
#1782= IFCAXIS2PLACEMENT3D(#1776,#1778,#1780);
#1783= IFCLOCALPLACEMENT($,#1782);
#1784= IFCCARTESIANPOINT((0.,0.));
#1786= IFCDIRECTION((1.,0.));
#1788= IFCAXIS2PLACEMENT2D(#1784,#1786);
#1789= IFCRECTANGLEPROFILEDEF(.AREA.,$,#1788,4.25,2.75);
#1790= IFCCARTESIANPOINT((0.,0.,0.));
#1792= IFCDIRECTION((0.,0.,1.));
#1794= IFCDIRECTION((1.,0.,0.));
#1796= IFCAXIS2PLACEMENT3D(#1790,#1792,#1794);
#1797= IFCDIRECTION((0.,0.,1.));
#1799= IFCEXTRUDEDAREASOLID(#1789,#1796,#1797,3.);
#1800= IFCSHAPEREPRESENTATION(#24,'Body','SweptSolid',(#1799));
#1802= IFCPRODUCTDEFINITIONSHAPE($,$,(#1800));
#1805= IFCSPACE('0M$a6OxzfDfQf4hLKzvCiP',#12,'SEMINAR',$,$,#1783,#1802,$,$,.INTERNAL.,$);
#1808= IFCPROPERTYSINGLEVALUE('ZoneNumber',$,IFCTEXT('U02'),$);
#1809= IFCPROPERTYSINGLEVALUE('Area',$,IFCREAL(36.),$);
#1810= IFCPROPERTYSINGLEVALUE('Outdoor',$,IFCBOOLEAN(.F.),$);
#1811= IFCPROPERTYSINGLEVALUE('Department',$,IFCTEXT('TEACHING'),$);
#1812= IFCPROPERTYSET('2fau9ShVb3Xx13VGtbfRBq',#12,'Pset_EngiWorld',$,(#1808,#1809,#1810,#1811));
#1818= IFCRELDEFINESBYPROPERTIES('0EvZmou1r3vwO0k2ZOUIaX',#12,'SEMINAR properties',$,(#1805),#1812);
#1822= IFCCARTESIANPOINT((14.7666666667,9.76666666667,3.55));
#1824= IFCDIRECTION((0.,0.,1.));
#1826= IFCDIRECTION((1.,0.,0.));
#1828= IFCAXIS2PLACEMENT3D(#1822,#1824,#1826);
#1829= IFCLOCALPLACEMENT($,#1828);
#1830= IFCCARTESIANPOINT((0.,0.));
#1832= IFCDIRECTION((1.,0.));
#1834= IFCAXIS2PLACEMENT2D(#1830,#1832);
#1835= IFCRECTANGLEPROFILEDEF(.AREA.,$,#1834,4.24264068712,2.75);
#1836= IFCCARTESIANPOINT((0.,0.,0.));
#1838= IFCDIRECTION((0.,0.,1.));
#1840= IFCDIRECTION((1.,0.,0.));
#1842= IFCAXIS2PLACEMENT3D(#1836,#1838,#1840);
#1843= IFCDIRECTION((0.,0.,1.));
#1845= IFCEXTRUDEDAREASOLID(#1835,#1842,#1843,3.);
#1846= IFCSHAPEREPRESENTATION(#24,'Body','SweptSolid',(#1845));
#1848= IFCPRODUCTDEFINITIONSHAPE($,$,(#1846));
#1851= IFCSPACE('0xesHpsBHD59vrp20tcO7v',#12,'UPPER-GALLERY',$,$,#1829,#1848,$,$,.INTERNAL.,$);
#1854= IFCPROPERTYSINGLEVALUE('ZoneNumber',$,IFCTEXT('U03'),$);
#1855= IFCPROPERTYSINGLEVALUE('Area',$,IFCREAL(18.),$);
#1856= IFCPROPERTYSINGLEVALUE('Outdoor',$,IFCBOOLEAN(.F.),$);
#1857= IFCPROPERTYSINGLEVALUE('Department',$,IFCTEXT('CIRCULATION'),$);
#1858= IFCPROPERTYSET('19LV9gRlvDJOOcu8PcQsm1',#12,'Pset_EngiWorld',$,(#1854,#1855,#1856,#1857));
#1864= IFCRELDEFINESBYPROPERTIES('25QDYnkqP1LBmmGvwPWZh0',#12,'UPPER-GALLERY properties',$,(#1851),#1858);
#1868= IFCRELCONTAINEDINSPATIALSTRUCTURE('09d0A2flb9XA74M2i$KHsP',#12,'Lower Lab containment',$,(#145,#189,#221,#253,#285,#317,#349,#381,#413,#445,#861,#925,#989,#1053,#1117,#1181,#1245,#1309,#1373,#1437,#1469,#1529,#1575,#1621,#1667,#1713),#90);
#1891= IFCRELCONTAINEDINSPATIALSTRUCTURE('1qjd9nLobAzuj5vKMgx2vA',#12,'Upper Lab containment',$,(#477,#509,#541,#573,#605,#637,#669,#701,#733,#765,#797,#829,#893,#957,#1021,#1085,#1149,#1213,#1277,#1341,#1405,#1759,#1805,#1851),#100);
#1915= IFCSPACE('U05yPeVQ42TedQRBg8xVYN',#12,'CONTROLLED-LAB-SUITE',$,$,$,$,$,$,.INTERNAL.,$);
#1916= IFCRELCONTAINEDINSPATIALSTRUCTURE('I8BLdsAwpXdNTCfjQgGIoj',#12,'Contains CONTROLLED-LAB-SUITE',$,(#1915),#90);
#1918= IFCPROPERTYSINGLEVALUE('BriefRole',$,IFCTEXT('CONTROLLED LAB | WET LAB | SAFETY | LOWER LEVEL'),$);
#1919= IFCPROPERTYSINGLEVALUE('TaskTag',$,IFCTEXT('ARCHICAD TASK 16'),$);
#1920= IFCPROPERTYSINGLEVALUE('DeliveryNote',$,IFCTEXT('CONTROLLED-LAB-SUITE coordinated through Graphisoft command server'),$);
#1921= IFCPROPERTYSINGLEVALUE('ProtectionNote',$,IFCTEXT('Existing envelope, circulation, roof or protected project context retained'),$);
#1922= IFCRELDEFINESBYPROPERTIES('kINLLEKJQsz4iTEhr3zx2t',#12,'Defines CONTROLLED-LAB-SUITE',$,(#1915),#1925);
#1925= IFCPROPERTYSET('6TIDoliqaB61TrGB3kZyy2',#12,'Pset_EngiWorld_Task_16_CONTROLLED_LAB_SUITE_8312',$,(#1918,#1919,#1920,#1921));
#1932= IFCSPACE('ZUiNHcLlk9SFEA6clF$K9l',#12,'SPECIMEN-PREP',$,$,$,$,$,$,.INTERNAL.,$);
#1933= IFCRELCONTAINEDINSPATIALSTRUCTURE('OomObMPD5nQL25pLBa6ZvW',#12,'Contains SPECIMEN-PREP',$,(#1932),#90);
#1935= IFCPROPERTYSINGLEVALUE('BriefRole',$,IFCTEXT('SPECIMEN PREP | CONTROLLED LAB | SAFETY | LOWER LEVEL'),$);
#1936= IFCPROPERTYSINGLEVALUE('TaskTag',$,IFCTEXT('ARCHICAD TASK 16'),$);
#1937= IFCPROPERTYSINGLEVALUE('DeliveryNote',$,IFCTEXT('SPECIMEN-PREP coordinated through Graphisoft command server'),$);
#1938= IFCPROPERTYSINGLEVALUE('ProtectionNote',$,IFCTEXT('Existing envelope, circulation, roof or protected project context retained'),$);
#1939= IFCRELDEFINESBYPROPERTIES('g411omGHOTuwej6S4_gt1X',#12,'Defines SPECIMEN-PREP',$,(#1932),#1942);
#1942= IFCPROPERTYSET('pMy1Sz$LgXtDK4Z6Y_atii',#12,'Pset_EngiWorld_Task_16_SPECIMEN_PREP_6932',$,(#1935,#1936,#1937,#1938));
#1949= IFCSPACE('XXjIwwCwmnf8kdYbVea8vy',#12,'EYEWASH-ALCOVE',$,$,$,$,$,$,.INTERNAL.,$);
#1950= IFCRELCONTAINEDINSPATIALSTRUCTURE('rbwW_uT_Qg8ZZ8tGIjX3TE',#12,'Contains EYEWASH-ALCOVE',$,(#1949),#90);
#1952= IFCPROPERTYSINGLEVALUE('BriefRole',$,IFCTEXT('EYEWASH | SAFETY | CONTROLLED LAB | LOWER LEVEL'),$);
#1953= IFCPROPERTYSINGLEVALUE('TaskTag',$,IFCTEXT('ARCHICAD TASK 16'),$);
#1954= IFCPROPERTYSINGLEVALUE('DeliveryNote',$,IFCTEXT('EYEWASH-ALCOVE coordinated through Graphisoft command server'),$);
#1955= IFCPROPERTYSINGLEVALUE('ProtectionNote',$,IFCTEXT('Existing envelope, circulation, roof or protected project context retained'),$);
#1956= IFCRELDEFINESBYPROPERTIES('J8oLGSwBqzyT6dgo$iKLSq',#12,'Defines EYEWASH-ALCOVE',$,(#1949),#1959);
#1959= IFCPROPERTYSET('k4IQbSADdwFabZldB4w$zg',#12,'Pset_EngiWorld_Task_16_EYEWASH_ALCOVE_5063',$,(#1952,#1953,#1954,#1955));
#1966= IFCDOOR('cvp4fxXupgJoABj967oKAa',#12,'CONTROLLED-LAB-DOOR',$,$,$,$,$,$,$,.DOOR.,$,$);
#1967= IFCRELCONTAINEDINSPATIALSTRUCTURE('B4wmSIbog5$_2d0_j36Lzq',#12,'Contains CONTROLLED-LAB-DOOR',$,(#1966),#90);
#1970= IFCPROPERTYSINGLEVALUE('BriefRole',$,IFCTEXT('CONTROLLED LAB | ACCESS CONTROL | SAFETY | DOOR'),$);
#1971= IFCPROPERTYSINGLEVALUE('TaskTag',$,IFCTEXT('ARCHICAD TASK 16'),$);
#1972= IFCPROPERTYSINGLEVALUE('DeliveryNote',$,IFCTEXT('CONTROLLED-LAB-DOOR coordinated through Graphisoft command server'),$);
#1973= IFCPROPERTYSINGLEVALUE('ProtectionNote',$,IFCTEXT('Existing envelope, circulation, roof or protected project context retained'),$);
#1974= IFCRELDEFINESBYPROPERTIES('iWumoyADy726P8hQe62aNi',#12,'Defines CONTROLLED-LAB-DOOR',$,(#1966),#1977);
#1977= IFCPROPERTYSET('$UmAoA6Elj$jA5Le28EYAl',#12,'Pset_EngiWorld_Task_16_CONTROLLED_LAB_DOOR_1995',$,(#1970,#1971,#1972,#1973));
#1984= IFCWALL('RfKNJhP5vs8iQi4wLxDO97',#12,'LAB-SAFETY-SCREEN',$,$,$,$,$,.PARTITIONING.);
#1985= IFCRELCONTAINEDINSPATIALSTRUCTURE('fJiCZl9jvg2JuGX2vJ5Vgw',#12,'Contains LAB-SAFETY-SCREEN',$,(#1984),#90);
#1988= IFCPROPERTYSINGLEVALUE('BriefRole',$,IFCTEXT('SAFETY SCREEN | CONTROLLED LAB | SEPARATION | WET LAB'),$);
#1989= IFCPROPERTYSINGLEVALUE('TaskTag',$,IFCTEXT('ARCHICAD TASK 16'),$);
#1990= IFCPROPERTYSINGLEVALUE('DeliveryNote',$,IFCTEXT('LAB-SAFETY-SCREEN coordinated through Graphisoft command server'),$);
#1991= IFCPROPERTYSINGLEVALUE('ProtectionNote',$,IFCTEXT('Existing envelope, circulation, roof or protected project context retained'),$);
#1992= IFCRELDEFINESBYPROPERTIES('jSDWAvMuCBaH$Nh93zAaKF',#12,'Defines LAB-SAFETY-SCREEN',$,(#1984),#1995);
#1995= IFCPROPERTYSET('wNWLOH6hqG6hyAUR4xJ$vP',#12,'Pset_EngiWorld_Task_16_LAB_SAFETY_SCREEN_1216',$,(#1988,#1989,#1990,#1991));
#2002= IFCWINDOW('wXNB3n1nRrMC2MwjEpJCeA',#12,'SEMINAR-OBSERVATION-WINDOW',$,$,$,$,$,$,$,.WINDOW.,$,$);
#2003= IFCRELCONTAINEDINSPATIALSTRUCTURE('CM7R$l1lyKStuKs_fJLe3_',#12,'Contains SEMINAR-OBSERVATION-WINDOW',$,(#2002),#100);
#2006= IFCPROPERTYSINGLEVALUE('BriefRole',$,IFCTEXT('OBSERVATION | SEMINAR | CONTROLLED LAB | UPPER LEVEL'),$);
#2007= IFCPROPERTYSINGLEVALUE('TaskTag',$,IFCTEXT('ARCHICAD TASK 16'),$);
#2008= IFCPROPERTYSINGLEVALUE('DeliveryNote',$,IFCTEXT('SEMINAR-OBSERVATION-WINDOW coordinated through Graphisoft command server'),$);
#2009= IFCPROPERTYSINGLEVALUE('ProtectionNote',$,IFCTEXT('Existing envelope, circulation, roof or protected project context retained'),$);
#2010= IFCRELDEFINESBYPROPERTIES('of7oVNMBRTB2HhkEdnZarv',#12,'Defines SEMINAR-OBSERVATION-WINDOW',$,(#2002),#2013);
#2013= IFCPROPERTYSET('Vii_iglVRSmXHZXBurIrgE',#12,'Pset_EngiWorld_Task_16_SEMINAR_OBSERVATION_WINDOW_1789',$,(#2006,#2007,#2008,#2009));
#2020= IFCSPACE('DPjccdoXOWXsSz4TJ5P8Yr',#12,'SEMINAR-OBSERVATION',$,$,$,$,$,$,.INTERNAL.,$);
#2021= IFCRELCONTAINEDINSPATIALSTRUCTURE('DNiWYRVk8ODbZoOGOAnrHO',#12,'Contains SEMINAR-OBSERVATION',$,(#2020),#100);
#2023= IFCPROPERTYSINGLEVALUE('BriefRole',$,IFCTEXT('SEMINAR OBSERVATION | RESEARCH | VISITOR CONTROL | UPPER LEVEL'),$);
#2024= IFCPROPERTYSINGLEVALUE('TaskTag',$,IFCTEXT('ARCHICAD TASK 16'),$);
#2025= IFCPROPERTYSINGLEVALUE('DeliveryNote',$,IFCTEXT('SEMINAR-OBSERVATION coordinated through Graphisoft command server'),$);
#2026= IFCPROPERTYSINGLEVALUE('ProtectionNote',$,IFCTEXT('Existing envelope, circulation, roof or protected project context retained'),$);
#2027= IFCRELDEFINESBYPROPERTIES('sKrJRTT5uyWQQqE2FBnAg8',#12,'Defines SEMINAR-OBSERVATION',$,(#2020),#2030);
#2030= IFCPROPERTYSET('b4Xo$dvxMXDb3HEj3l1N7J',#12,'Pset_EngiWorld_Task_16_SEMINAR_OBSERVATION_7709',$,(#2023,#2024,#2025,#2026));
#2037= IFCPROPERTYSINGLEVALUE('BriefRole',$,IFCTEXT('CONTROLLED LAB ADJACENCY | WET LAB | LOWER LEVEL | SAFETY'),$);
#2038= IFCPROPERTYSINGLEVALUE('TaskTag',$,IFCTEXT('ARCHICAD TASK 16'),$);
#2039= IFCPROPERTYSINGLEVALUE('DeliveryNote',$,IFCTEXT('LAB-1 coordinated through Graphisoft command server'),$);
#2040= IFCPROPERTYSINGLEVALUE('ProtectionNote',$,IFCTEXT('Existing envelope, circulation, roof or protected project context retained'),$);
#2041= IFCRELDEFINESBYPROPERTIES('SIhZ1oUqP3rIHdqJ11z5M_',#12,'Defines LAB-1',$,(#1529),#2043);
#2043= IFCPROPERTYSET('niAdVuch$e9Xh_gi4ygGnZ',#12,'Pset_EngiWorld_Task_16_LAB_1_4000',$,(#2037,#2038,#2039,#2040));
#2050= IFCPROPERTYSINGLEVALUE('BriefRole',$,IFCTEXT('OBSERVATION | UPPER LEVEL | RESEARCH | VISITOR CONTROL'),$);
#2051= IFCPROPERTYSINGLEVALUE('TaskTag',$,IFCTEXT('ARCHICAD TASK 16'),$);
#2052= IFCPROPERTYSINGLEVALUE('DeliveryNote',$,IFCTEXT('SEMINAR coordinated through Graphisoft command server'),$);
#2053= IFCPROPERTYSINGLEVALUE('ProtectionNote',$,IFCTEXT('Existing envelope, circulation, roof or protected project context retained'),$);
#2054= IFCRELDEFINESBYPROPERTIES('p0vqa6xwXTSthuFqp$AZTy',#12,'Defines SEMINAR',$,(#1805),#2056);
#2056= IFCPROPERTYSET('PH89mfmq4bVrN2wmfuPMhH',#12,'Pset_EngiWorld_Task_16_SEMINAR_3015',$,(#2050,#2051,#2052,#2053));
#2063= IFCPROPERTYSINGLEVALUE('BriefRole',$,IFCTEXT('PROTECTED ATRIUM | NO CHANGE | CIRCULATION'),$);
#2064= IFCPROPERTYSINGLEVALUE('TaskTag',$,IFCTEXT('ARCHICAD TASK 16'),$);
#2065= IFCPROPERTYSINGLEVALUE('DeliveryNote',$,IFCTEXT('ATRIUM coordinated through Graphisoft command server'),$);
#2066= IFCPROPERTYSINGLEVALUE('ProtectionNote',$,IFCTEXT('Existing envelope, circulation, roof or protected project context retained'),$);
#2067= IFCRELDEFINESBYPROPERTIES('aSmYQKECDhb7qrbdvqkYRv',#12,'Defines ATRIUM',$,(#1469),#2069);
#2069= IFCPROPERTYSET('u_BN2UBseddkSdoSyzKAqB',#12,'Pset_EngiWorld_Task_16_ATRIUM_3184',$,(#2063,#2064,#2065,#2066));
ENDSEC;

END-ISO-10303-21;
