ISO-10303-21;
HEADER;
FILE_DESCRIPTION(('ViewDefinition [CoordinationView]'),'2;1');
FILE_NAME('','2026-05-22T00:34:58',(''),(''),'IfcOpenShell 0.8.5-1c5b825','IfcOpenShell 0.8.5-1c5b825','');
FILE_SCHEMA(('IFC4'));
ENDSEC;
DATA;
#1=IFCPROJECT('0QsSxbmqLA2xBugxzAnkz9',$,'v-archicad-simple-task-08-windows init',$,$,$,$,(#10),#5);
#2=IFCSIUNIT(*,.LENGTHUNIT.,.MILLI.,.METRE.);
#3=IFCSIUNIT(*,.AREAUNIT.,$,.SQUARE_METRE.);
#4=IFCSIUNIT(*,.VOLUMEUNIT.,$,.CUBIC_METRE.);
#5=IFCUNITASSIGNMENT((#3,#4,#2));
#6=IFCCARTESIANPOINT((0.,0.,0.));
#7=IFCDIRECTION((0.,0.,1.));
#8=IFCDIRECTION((1.,0.,0.));
#9=IFCAXIS2PLACEMENT3D(#6,#7,#8);
#10=IFCGEOMETRICREPRESENTATIONCONTEXT($,'Model',3,1.0000000000000001E-05,#9,$);
#11=IFCGEOMETRICREPRESENTATIONSUBCONTEXT('Body','Model',*,*,*,*,#10,$,.MODEL_VIEW.,$);
#12=IFCSITE('1_a6xNVLHEOACnA4OKUUe3',$,'Default Site',$,$,$,$,$,$,$,$,$,$,$);
#13=IFCBUILDING('3J2K58DrL97RcVS3TNL3Uw',$,'Simple Building',$,$,$,$,$,$,$,$,$);
#14=IFCRELAGGREGATES('0a$EtRoiv5CwBAl5H1nzSU',$,$,$,#1,(#12));
#15=IFCRELAGGREGATES('2Zhi6FqNPA$Bvg8rm4ijVz',$,$,$,#12,(#13));
#16=IFCBUILDINGSTOREY('2ENNf5DHfEZe146fhVPdWr',$,'Ground Floor',$,$,#22,$,$,$,$);
#17=IFCRELAGGREGATES('3MsHtYgHXCLhFiSeW4igzW',$,$,$,#13,(#16));
#18=IFCCARTESIANPOINT((0.,0.,0.));
#19=IFCDIRECTION((0.,0.,1.));
#20=IFCDIRECTION((1.,0.,0.));
#21=IFCAXIS2PLACEMENT3D(#18,#19,#20);
#22=IFCLOCALPLACEMENT($,#21);
#23=IFCWALL('1APrHwYLj5VwhPqCxJGjvB',$,'Wall 1-1',$,$,#45,#34,$,$);
#24=IFCCARTESIANPOINTLIST2D(((0.,0.),(0.,200.),(8000.,200.),(8000.,0.),(0.,0.)));
#25=IFCINDEXEDPOLYCURVE(#24,$,.F.);
#26=IFCDIRECTION((0.,0.,1.));
#27=IFCARBITRARYCLOSEDPROFILEDEF(.AREA.,$,#25);
#28=IFCCARTESIANPOINT((0.,0.,0.));
#29=IFCDIRECTION((0.,0.,1.));
#30=IFCDIRECTION((1.,0.,0.));
#31=IFCAXIS2PLACEMENT3D(#28,#29,#30);
#32=IFCEXTRUDEDAREASOLID(#27,#31,#26,3000.);
#33=IFCSHAPEREPRESENTATION(#11,'Body','SweptSolid',(#32));
#34=IFCPRODUCTDEFINITIONSHAPE($,$,(#33));
#40=IFCRELCONTAINEDINSPATIALSTRUCTURE('34J9z2iov599I7okU5gwvK',$,$,$,(#130,#215,#23,#68,#46,#90,#112,#300,#355),#16);
#41=IFCCARTESIANPOINT((0.,0.,0.));
#42=IFCDIRECTION((0.,0.,1.));
#43=IFCDIRECTION((1.,0.,0.));
#44=IFCAXIS2PLACEMENT3D(#41,#42,#43);
#45=IFCLOCALPLACEMENT(#22,#44);
#46=IFCWALL('3ac$x2buTADfUT6LG6JvM9',$,'Wall 1-2',$,$,#67,#57,$,$);
#47=IFCCARTESIANPOINTLIST2D(((0.,0.),(0.,200.),(8000.,200.),(8000.,0.),(0.,0.)));
#48=IFCINDEXEDPOLYCURVE(#47,$,.F.);
#49=IFCDIRECTION((0.,0.,1.));
#50=IFCARBITRARYCLOSEDPROFILEDEF(.AREA.,$,#48);
#51=IFCCARTESIANPOINT((0.,0.,0.));
#52=IFCDIRECTION((0.,0.,1.));
#53=IFCDIRECTION((1.,0.,0.));
#54=IFCAXIS2PLACEMENT3D(#51,#52,#53);
#55=IFCEXTRUDEDAREASOLID(#50,#54,#49,3000.);
#56=IFCSHAPEREPRESENTATION(#11,'Body','SweptSolid',(#55));
#57=IFCPRODUCTDEFINITIONSHAPE($,$,(#56));
#63=IFCCARTESIANPOINT((0.,4000.,0.));
#64=IFCDIRECTION((0.,0.,1.));
#65=IFCDIRECTION((1.,0.,0.));
#66=IFCAXIS2PLACEMENT3D(#63,#64,#65);
#67=IFCLOCALPLACEMENT(#22,#66);
#68=IFCWALL('1eHIvuVzDAfA2rMAu3ELX3',$,'Wall 1-3',$,$,#89,#79,$,$);
#69=IFCCARTESIANPOINTLIST2D(((0.,0.),(0.,200.),(4000.,200.),(4000.,0.),(0.,0.)));
#70=IFCINDEXEDPOLYCURVE(#69,$,.F.);
#71=IFCDIRECTION((0.,0.,1.));
#72=IFCARBITRARYCLOSEDPROFILEDEF(.AREA.,$,#70);
#73=IFCCARTESIANPOINT((0.,0.,0.));
#74=IFCDIRECTION((0.,0.,1.));
#75=IFCDIRECTION((1.,0.,0.));
#76=IFCAXIS2PLACEMENT3D(#73,#74,#75);
#77=IFCEXTRUDEDAREASOLID(#72,#76,#71,3000.);
#78=IFCSHAPEREPRESENTATION(#11,'Body','SweptSolid',(#77));
#79=IFCPRODUCTDEFINITIONSHAPE($,$,(#78));
#85=IFCCARTESIANPOINT((0.,0.,0.));
#86=IFCDIRECTION((0.,0.,1.));
#87=IFCDIRECTION((6.123233995736766E-17,1.,0.));
#88=IFCAXIS2PLACEMENT3D(#85,#86,#87);
#89=IFCLOCALPLACEMENT(#22,#88);
#90=IFCWALL('3DUue3c4vDp9IXfNhIdWVT',$,'Wall 1-4',$,$,#111,#101,$,$);
#91=IFCCARTESIANPOINTLIST2D(((0.,0.),(0.,200.),(4000.,200.),(4000.,0.),(0.,0.)));
#92=IFCINDEXEDPOLYCURVE(#91,$,.F.);
#93=IFCDIRECTION((0.,0.,1.));
#94=IFCARBITRARYCLOSEDPROFILEDEF(.AREA.,$,#92);
#95=IFCCARTESIANPOINT((0.,0.,0.));
#96=IFCDIRECTION((0.,0.,1.));
#97=IFCDIRECTION((1.,0.,0.));
#98=IFCAXIS2PLACEMENT3D(#95,#96,#97);
#99=IFCEXTRUDEDAREASOLID(#94,#98,#93,3000.);
#100=IFCSHAPEREPRESENTATION(#11,'Body','SweptSolid',(#99));
#101=IFCPRODUCTDEFINITIONSHAPE($,$,(#100));
#107=IFCCARTESIANPOINT((8000.,0.,0.));
#108=IFCDIRECTION((0.,0.,1.));
#109=IFCDIRECTION((6.123233995736766E-17,1.,0.));
#110=IFCAXIS2PLACEMENT3D(#107,#108,#109);
#111=IFCLOCALPLACEMENT(#22,#110);
#112=IFCSLAB('0wT$RhA9v9jQ4ISo_i2KNk',$,'Slab 1',$,$,#129,#119,$,$);
#113=IFCCARTESIANPOINTLIST2D(((0.,0.),(8000.,0.),(8000.,4000.),(0.,4000.),(0.,0.)));
#114=IFCINDEXEDPOLYCURVE(#113,$,$);
#115=IFCDIRECTION((0.,0.,1.));
#116=IFCARBITRARYCLOSEDPROFILEDEF(.AREA.,$,#114);
#117=IFCEXTRUDEDAREASOLID(#116,$,#115,200.);
#118=IFCSHAPEREPRESENTATION(#11,'Body','SweptSolid',(#117));
#119=IFCPRODUCTDEFINITIONSHAPE($,$,(#118));
#125=IFCCARTESIANPOINT((0.,0.,0.));
#126=IFCDIRECTION((0.,0.,1.));
#127=IFCDIRECTION((1.,0.,0.));
#128=IFCAXIS2PLACEMENT3D(#125,#126,#127);
#129=IFCLOCALPLACEMENT(#22,#128);
#130=IFCDOOR('1aAW4JCqL7KuET$YUlRhCn',$,'Door 1',$,$,#214,#204,$,$,$,$,$,$);
#131=IFCCARTESIANPOINTLIST2D(((0.,0.),(0.,2.1000000000000001),(0.90000000000000002,2.1000000000000001),(0.90000000000000002,0.),(-24.100000000000001,0.),(-24.100000000000001,-22.899999999999999),(25.,-22.899999999999999),(25.,0.)));
#132=IFCINDEXEDPOLYCURVE(#131,(IFCLINEINDEX((1,2,3,4,5,6,7,8,1))),$);
#133=IFCARBITRARYCLOSEDPROFILEDEF(.AREA.,$,#132);
#134=IFCCARTESIANPOINT((0.,25.,0.));
#135=IFCDIRECTION((0.,-1.,0.));
#136=IFCDIRECTION((1.,0.,0.));
#137=IFCAXIS2PLACEMENT3D(#134,#135,#136);
#138=IFCDIRECTION((0.,0.,-1.));
#139=IFCEXTRUDEDAREASOLID(#133,#137,#138,25.);
#140=IFCCARTESIANPOINTLIST2D(((0.,0.),(0.,2.1000000000000001),(0.90000000000000002,2.1000000000000001),(0.90000000000000002,0.),(-49.100000000000001,0.),(-49.100000000000001,-47.899999999999999),(50.,-47.899999999999999),(50.,0.)));
#141=IFCINDEXEDPOLYCURVE(#140,(IFCLINEINDEX((1,2,3,4,5,6,7,8,1))),$);
#142=IFCARBITRARYCLOSEDPROFILEDEF(.AREA.,$,#141);
#143=IFCCARTESIANPOINT((0.,0.,0.));
#144=IFCDIRECTION((0.,-1.,0.));
#145=IFCDIRECTION((1.,0.,0.));
#146=IFCAXIS2PLACEMENT3D(#143,#144,#145);
#147=IFCDIRECTION((0.,0.,-1.));
#148=IFCEXTRUDEDAREASOLID(#142,#146,#147,25.);
#149=IFCCARTESIANPOINTLIST2D(((0.,0.),(-99.099999999999994,0.),(-99.099999999999994,100.),(0.,100.)));
#150=IFCINDEXEDPOLYCURVE(#149,(IFCLINEINDEX((1,2,3,4,1))),$);
#151=IFCARBITRARYCLOSEDPROFILEDEF(.AREA.,$,#150);
#152=IFCCARTESIANPOINT((50.,0.,0.));
#153=IFCDIRECTION((0.,0.,1.));
#154=IFCDIRECTION((1.,0.,0.));
#155=IFCAXIS2PLACEMENT3D(#152,#153,#154);
#156=IFCDIRECTION((0.,0.,1.));
#157=IFCEXTRUDEDAREASOLID(#151,#155,#156,25.);
#158=IFCCARTESIANPOINTLIST2D(((0.,0.),(0.,27.100000000000001),(50.899999999999999,27.100000000000001),(50.899999999999999,0.),(-24.100000000000001,0.),(-24.100000000000001,-47.899999999999999),(75.,-47.899999999999999),(75.,0.)));
#159=IFCINDEXEDPOLYCURVE(#158,(IFCLINEINDEX((1,2,3,4,5,6,7,8,1))),$);
#160=IFCARBITRARYCLOSEDPROFILEDEF(.AREA.,$,#159);
#161=IFCCARTESIANPOINT((-25.,-5.,0.));
#162=IFCDIRECTION((0.,-1.,0.));
#163=IFCDIRECTION((1.,0.,0.));
#164=IFCAXIS2PLACEMENT3D(#161,#162,#163);
#165=IFCDIRECTION((0.,0.,-1.));
#166=IFCEXTRUDEDAREASOLID(#160,#164,#165,5.);
#167=IFCCARTESIANPOINTLIST2D(((0.,0.),(0.,27.100000000000001),(50.899999999999999,27.100000000000001),(50.899999999999999,0.),(0.89999999999999858,0.),(0.89999999999999858,-22.899999999999999),(50.,-22.899999999999999),(50.,0.)));
#168=IFCINDEXEDPOLYCURVE(#167,(IFCLINEINDEX((1,2,3,4,5,6,7,8,1))),$);
#169=IFCARBITRARYCLOSEDPROFILEDEF(.AREA.,$,#168);
#170=IFCCARTESIANPOINT((-25.,50.,0.));
#171=IFCDIRECTION((0.,-1.,0.));
#172=IFCDIRECTION((1.,0.,0.));
#173=IFCAXIS2PLACEMENT3D(#170,#171,#172);
#174=IFCDIRECTION((0.,0.,-1.));
#175=IFCEXTRUDEDAREASOLID(#169,#173,#174,5.);
#176=IFCCARTESIANPOINTLIST2D(((0.,0.),(-49.100000000000001,0.),(-49.100000000000001,35.),(0.,35.)));
#177=IFCINDEXEDPOLYCURVE(#176,(IFCLINEINDEX((1,2,3,4,1))),$);
#178=IFCARBITRARYCLOSEDPROFILEDEF(.AREA.,$,#177);
#179=IFCCARTESIANPOINT((25.,25.,25.));
#180=IFCDIRECTION((0.,0.,1.));
#181=IFCDIRECTION((1.,0.,0.));
#182=IFCAXIS2PLACEMENT3D(#179,#180,#181);
#183=IFCDIRECTION((0.,0.,1.));
#184=IFCEXTRUDEDAREASOLID(#178,#182,#183,-47.899999999999999);
#185=IFCCARTESIANPOINTLIST2D(((0.,0.),(0.,-40.),(-120.00000000000003,-40.),(-120.00000000000003,-20.),(-20.,-20.),(-20.,0.)));
#186=IFCINDEXEDPOLYCURVE(#185,(IFCLINEINDEX((1,2,3,4,5,6,1))),$);
#187=IFCARBITRARYCLOSEDPROFILEDEF(.AREA.,$,#186);
#188=IFCCARTESIANPOINT((-74.099999999999994,25.,1015.));
#189=IFCDIRECTION((0.,0.,1.));
#190=IFCDIRECTION((1.,0.,0.));
#191=IFCAXIS2PLACEMENT3D(#188,#189,#190);
#192=IFCDIRECTION((0.,0.,1.));
#193=IFCEXTRUDEDAREASOLID(#187,#191,#192,20.);
#194=IFCEXTRUDEDAREASOLID(#195,#198,#202,20.);
#195=IFCARBITRARYCLOSEDPROFILEDEF(.AREA.,$,#196);
#196=IFCINDEXEDPOLYCURVE(#197,(IFCLINEINDEX((1,2,3,4,5,6,1))),$);
#197=IFCCARTESIANPOINTLIST2D(((0.,0.),(0.,40.),(-120.00000000000003,40.),(-120.00000000000003,20.),(-20.,20.),(-20.,0.)));
#198=IFCAXIS2PLACEMENT3D(#199,#200,#201);
#199=IFCCARTESIANPOINT((-74.099999999999994,60.,1015.));
#200=IFCDIRECTION((0.,0.,1.));
#201=IFCDIRECTION((1.,0.,0.));
#202=IFCDIRECTION((0.,0.,1.));
#203=IFCSHAPEREPRESENTATION(#11,'Body','SweptSolid',(#139,#148,#184,#193,#194,#157,#166,#175));
#204=IFCPRODUCTDEFINITIONSHAPE($,$,(#203));
#210=IFCCARTESIANPOINT((800.,-50.,0.));
#211=IFCDIRECTION((0.,0.,1.));
#212=IFCDIRECTION((1.,0.,0.));
#213=IFCAXIS2PLACEMENT3D(#210,#211,#212);
#214=IFCLOCALPLACEMENT(#22,#213);
#215=IFCDOOR('0ZySgbe1f9DhU3kKVutxAb',$,'Door 2',$,$,#299,#289,$,$,$,$,$,$);
#216=IFCCARTESIANPOINTLIST2D(((0.,0.),(0.,2.1000000000000001),(0.90000000000000002,2.1000000000000001),(0.90000000000000002,0.),(-24.100000000000001,0.),(-24.100000000000001,-22.899999999999999),(25.,-22.899999999999999),(25.,0.)));
#217=IFCINDEXEDPOLYCURVE(#216,(IFCLINEINDEX((1,2,3,4,5,6,7,8,1))),$);
#218=IFCARBITRARYCLOSEDPROFILEDEF(.AREA.,$,#217);
#219=IFCCARTESIANPOINT((0.,25.,0.));
#220=IFCDIRECTION((0.,-1.,0.));
#221=IFCDIRECTION((1.,0.,0.));
#222=IFCAXIS2PLACEMENT3D(#219,#220,#221);
#223=IFCDIRECTION((0.,0.,-1.));
#224=IFCEXTRUDEDAREASOLID(#218,#222,#223,25.);
#225=IFCCARTESIANPOINTLIST2D(((0.,0.),(0.,2.1000000000000001),(0.90000000000000002,2.1000000000000001),(0.90000000000000002,0.),(-49.100000000000001,0.),(-49.100000000000001,-47.899999999999999),(50.,-47.899999999999999),(50.,0.)));
#226=IFCINDEXEDPOLYCURVE(#225,(IFCLINEINDEX((1,2,3,4,5,6,7,8,1))),$);
#227=IFCARBITRARYCLOSEDPROFILEDEF(.AREA.,$,#226);
#228=IFCCARTESIANPOINT((0.,0.,0.));
#229=IFCDIRECTION((0.,-1.,0.));
#230=IFCDIRECTION((1.,0.,0.));
#231=IFCAXIS2PLACEMENT3D(#228,#229,#230);
#232=IFCDIRECTION((0.,0.,-1.));
#233=IFCEXTRUDEDAREASOLID(#227,#231,#232,25.);
#234=IFCCARTESIANPOINTLIST2D(((0.,0.),(-99.099999999999994,0.),(-99.099999999999994,100.),(0.,100.)));
#235=IFCINDEXEDPOLYCURVE(#234,(IFCLINEINDEX((1,2,3,4,1))),$);
#236=IFCARBITRARYCLOSEDPROFILEDEF(.AREA.,$,#235);
#237=IFCCARTESIANPOINT((50.,0.,0.));
#238=IFCDIRECTION((0.,0.,1.));
#239=IFCDIRECTION((1.,0.,0.));
#240=IFCAXIS2PLACEMENT3D(#237,#238,#239);
#241=IFCDIRECTION((0.,0.,1.));
#242=IFCEXTRUDEDAREASOLID(#236,#240,#241,25.);
#243=IFCCARTESIANPOINTLIST2D(((0.,0.),(0.,27.100000000000001),(50.899999999999999,27.100000000000001),(50.899999999999999,0.),(-24.100000000000001,0.),(-24.100000000000001,-47.899999999999999),(75.,-47.899999999999999),(75.,0.)));
#244=IFCINDEXEDPOLYCURVE(#243,(IFCLINEINDEX((1,2,3,4,5,6,7,8,1))),$);
#245=IFCARBITRARYCLOSEDPROFILEDEF(.AREA.,$,#244);
#246=IFCCARTESIANPOINT((-25.,-5.,0.));
#247=IFCDIRECTION((0.,-1.,0.));
#248=IFCDIRECTION((1.,0.,0.));
#249=IFCAXIS2PLACEMENT3D(#246,#247,#248);
#250=IFCDIRECTION((0.,0.,-1.));
#251=IFCEXTRUDEDAREASOLID(#245,#249,#250,5.);
#252=IFCCARTESIANPOINTLIST2D(((0.,0.),(0.,27.100000000000001),(50.899999999999999,27.100000000000001),(50.899999999999999,0.),(0.89999999999999858,0.),(0.89999999999999858,-22.899999999999999),(50.,-22.899999999999999),(50.,0.)));
#253=IFCINDEXEDPOLYCURVE(#252,(IFCLINEINDEX((1,2,3,4,5,6,7,8,1))),$);
#254=IFCARBITRARYCLOSEDPROFILEDEF(.AREA.,$,#253);
#255=IFCCARTESIANPOINT((-25.,50.,0.));
#256=IFCDIRECTION((0.,-1.,0.));
#257=IFCDIRECTION((1.,0.,0.));
#258=IFCAXIS2PLACEMENT3D(#255,#256,#257);
#259=IFCDIRECTION((0.,0.,-1.));
#260=IFCEXTRUDEDAREASOLID(#254,#258,#259,5.);
#261=IFCCARTESIANPOINTLIST2D(((0.,0.),(-49.100000000000001,0.),(-49.100000000000001,35.),(0.,35.)));
#262=IFCINDEXEDPOLYCURVE(#261,(IFCLINEINDEX((1,2,3,4,1))),$);
#263=IFCARBITRARYCLOSEDPROFILEDEF(.AREA.,$,#262);
#264=IFCCARTESIANPOINT((25.,25.,25.));
#265=IFCDIRECTION((0.,0.,1.));
#266=IFCDIRECTION((1.,0.,0.));
#267=IFCAXIS2PLACEMENT3D(#264,#265,#266);
#268=IFCDIRECTION((0.,0.,1.));
#269=IFCEXTRUDEDAREASOLID(#263,#267,#268,-47.899999999999999);
#270=IFCCARTESIANPOINTLIST2D(((0.,0.),(0.,-40.),(-120.00000000000003,-40.),(-120.00000000000003,-20.),(-20.,-20.),(-20.,0.)));
#271=IFCINDEXEDPOLYCURVE(#270,(IFCLINEINDEX((1,2,3,4,5,6,1))),$);
#272=IFCARBITRARYCLOSEDPROFILEDEF(.AREA.,$,#271);
#273=IFCCARTESIANPOINT((-74.099999999999994,25.,1015.));
#274=IFCDIRECTION((0.,0.,1.));
#275=IFCDIRECTION((1.,0.,0.));
#276=IFCAXIS2PLACEMENT3D(#273,#274,#275);
#277=IFCDIRECTION((0.,0.,1.));
#278=IFCEXTRUDEDAREASOLID(#272,#276,#277,20.);
#279=IFCEXTRUDEDAREASOLID(#280,#283,#287,20.);
#280=IFCARBITRARYCLOSEDPROFILEDEF(.AREA.,$,#281);
#281=IFCINDEXEDPOLYCURVE(#282,(IFCLINEINDEX((1,2,3,4,5,6,1))),$);
#282=IFCCARTESIANPOINTLIST2D(((0.,0.),(0.,40.),(-120.00000000000003,40.),(-120.00000000000003,20.),(-20.,20.),(-20.,0.)));
#283=IFCAXIS2PLACEMENT3D(#284,#285,#286);
#284=IFCCARTESIANPOINT((-74.099999999999994,60.,1015.));
#285=IFCDIRECTION((0.,0.,1.));
#286=IFCDIRECTION((1.,0.,0.));
#287=IFCDIRECTION((0.,0.,1.));
#288=IFCSHAPEREPRESENTATION(#11,'Body','SweptSolid',(#224,#233,#269,#278,#279,#242,#251,#260));
#289=IFCPRODUCTDEFINITIONSHAPE($,$,(#288));
#295=IFCCARTESIANPOINT((2000.,-50.,0.));
#296=IFCDIRECTION((0.,0.,1.));
#297=IFCDIRECTION((1.,0.,0.));
#298=IFCAXIS2PLACEMENT3D(#295,#296,#297);
#299=IFCLOCALPLACEMENT(#22,#298);
#300=IFCWINDOW('2yC9TvFVH8zhl9tmoESqq1',$,'Window 1',$,$,#354,#344,$,$,$,$,$,$);
#301=IFCCARTESIANPOINTLIST2D(((0.,0.),(1.2,0.),(1.2,1.1000000000000001),(0.,1.1000000000000001)));
#302=IFCINDEXEDPOLYCURVE(#301,(IFCLINEINDEX((1,2,3,4,1))),$);
#303=IFCCARTESIANPOINTLIST2D(((25.,25.),(-23.799999999999997,25.),(-23.799999999999997,-23.899999999999999),(25.,-23.899999999999999)));
#304=IFCINDEXEDPOLYCURVE(#303,(IFCLINEINDEX((1,2,3,4,1))),$);
#305=IFCARBITRARYPROFILEDEFWITHVOIDS(.AREA.,$,#302,(#304));
#306=IFCCARTESIANPOINT((0.,90.,0.));
#307=IFCDIRECTION((0.,-1.,0.));
#308=IFCDIRECTION((1.,0.,0.));
#309=IFCAXIS2PLACEMENT3D(#306,#307,#308);
#310=IFCDIRECTION((0.,0.,-1.));
#311=IFCEXTRUDEDAREASOLID(#305,#309,#310,10.);
#312=IFCCARTESIANPOINTLIST2D(((0.,0.),(1.2,0.),(1.2,1.1000000000000001),(0.,1.1000000000000001)));
#313=IFCINDEXEDPOLYCURVE(#312,(IFCLINEINDEX((1,2,3,4,1))),$);
#314=IFCCARTESIANPOINTLIST2D(((50.,50.),(-48.799999999999997,50.),(-48.799999999999997,-48.900000000000006),(50.,-48.900000000000006)));
#315=IFCINDEXEDPOLYCURVE(#314,(IFCLINEINDEX((1,2,3,4,1))),$);
#316=IFCARBITRARYPROFILEDEFWITHVOIDS(.AREA.,$,#313,(#315));
#317=IFCCARTESIANPOINT((0.,50.,0.));
#318=IFCDIRECTION((0.,-1.,0.));
#319=IFCDIRECTION((1.,0.,0.));
#320=IFCAXIS2PLACEMENT3D(#317,#318,#319);
#321=IFCDIRECTION((0.,0.,-1.));
#322=IFCEXTRUDEDAREASOLID(#316,#320,#321,40.);
#323=IFCCARTESIANPOINTLIST2D(((0.,0.),(-48.799999999999997,0.),(-48.799999999999997,-48.899999999999999),(0.,-48.899999999999999)));
#324=IFCINDEXEDPOLYCURVE(#323,(IFCLINEINDEX((1,2,3,4,1))),$);
#325=IFCCARTESIANPOINTLIST2D(((35.,35.),(-83.799999999999997,35.),(-83.799999999999997,-83.900000000000006),(35.,-83.900000000000006)));
#326=IFCINDEXEDPOLYCURVE(#325,(IFCLINEINDEX((1,2,3,4,1))),$);
#327=IFCARBITRARYPROFILEDEFWITHVOIDS(.AREA.,$,#324,(#326));
#328=IFCCARTESIANPOINT((25.,90.,25.));
#329=IFCDIRECTION((0.,-1.,0.));
#330=IFCDIRECTION((1.,0.,0.));
#331=IFCAXIS2PLACEMENT3D(#328,#329,#330);
#332=IFCDIRECTION((0.,0.,-1.));
#333=IFCEXTRUDEDAREASOLID(#327,#331,#332,35.);
#334=IFCINDEXEDPOLYCURVE(#335,(IFCLINEINDEX((1,2,3,4,1))),$);
#335=IFCCARTESIANPOINTLIST2D(((35.,35.),(-83.799999999999997,35.),(-83.799999999999997,-83.900000000000006),(35.,-83.900000000000006)));
#336=IFCARBITRARYCLOSEDPROFILEDEF(.AREA.,$,#334);
#337=IFCCARTESIANPOINT((25.,102.5,25.));
#338=IFCDIRECTION((0.,-1.,0.));
#339=IFCDIRECTION((1.,0.,0.));
#340=IFCAXIS2PLACEMENT3D(#337,#338,#339);
#341=IFCDIRECTION((0.,0.,-1.));
#342=IFCEXTRUDEDAREASOLID(#336,#340,#341,10.);
#343=IFCSHAPEREPRESENTATION(#11,'Body','SweptSolid',(#311,#322,#333,#342));
#344=IFCPRODUCTDEFINITIONSHAPE($,$,(#343));
#350=IFCCARTESIANPOINT((1200.,4049.9999999999995,1100.));
#351=IFCDIRECTION((0.,0.,1.));
#352=IFCDIRECTION((1.,0.,0.));
#353=IFCAXIS2PLACEMENT3D(#350,#351,#352);
#354=IFCLOCALPLACEMENT(#22,#353);
#355=IFCWINDOW('0j_AN7MYb94QARjpwd5umb',$,'Window 2',$,$,#409,#399,$,$,$,$,$,$);
#356=IFCCARTESIANPOINTLIST2D(((0.,0.),(1.2,0.),(1.2,1.1000000000000001),(0.,1.1000000000000001)));
#357=IFCINDEXEDPOLYCURVE(#356,(IFCLINEINDEX((1,2,3,4,1))),$);
#358=IFCCARTESIANPOINTLIST2D(((25.,25.),(-23.799999999999997,25.),(-23.799999999999997,-23.899999999999999),(25.,-23.899999999999999)));
#359=IFCINDEXEDPOLYCURVE(#358,(IFCLINEINDEX((1,2,3,4,1))),$);
#360=IFCARBITRARYPROFILEDEFWITHVOIDS(.AREA.,$,#357,(#359));
#361=IFCCARTESIANPOINT((0.,90.,0.));
#362=IFCDIRECTION((0.,-1.,0.));
#363=IFCDIRECTION((1.,0.,0.));
#364=IFCAXIS2PLACEMENT3D(#361,#362,#363);
#365=IFCDIRECTION((0.,0.,-1.));
#366=IFCEXTRUDEDAREASOLID(#360,#364,#365,10.);
#367=IFCCARTESIANPOINTLIST2D(((0.,0.),(1.2,0.),(1.2,1.1000000000000001),(0.,1.1000000000000001)));
#368=IFCINDEXEDPOLYCURVE(#367,(IFCLINEINDEX((1,2,3,4,1))),$);
#369=IFCCARTESIANPOINTLIST2D(((50.,50.),(-48.799999999999997,50.),(-48.799999999999997,-48.900000000000006),(50.,-48.900000000000006)));
#370=IFCINDEXEDPOLYCURVE(#369,(IFCLINEINDEX((1,2,3,4,1))),$);
#371=IFCARBITRARYPROFILEDEFWITHVOIDS(.AREA.,$,#368,(#370));
#372=IFCCARTESIANPOINT((0.,50.,0.));
#373=IFCDIRECTION((0.,-1.,0.));
#374=IFCDIRECTION((1.,0.,0.));
#375=IFCAXIS2PLACEMENT3D(#372,#373,#374);
#376=IFCDIRECTION((0.,0.,-1.));
#377=IFCEXTRUDEDAREASOLID(#371,#375,#376,40.);
#378=IFCCARTESIANPOINTLIST2D(((0.,0.),(-48.799999999999997,0.),(-48.799999999999997,-48.899999999999999),(0.,-48.899999999999999)));
#379=IFCINDEXEDPOLYCURVE(#378,(IFCLINEINDEX((1,2,3,4,1))),$);
#380=IFCCARTESIANPOINTLIST2D(((35.,35.),(-83.799999999999997,35.),(-83.799999999999997,-83.900000000000006),(35.,-83.900000000000006)));
#381=IFCINDEXEDPOLYCURVE(#380,(IFCLINEINDEX((1,2,3,4,1))),$);
#382=IFCARBITRARYPROFILEDEFWITHVOIDS(.AREA.,$,#379,(#381));
#383=IFCCARTESIANPOINT((25.,90.,25.));
#384=IFCDIRECTION((0.,-1.,0.));
#385=IFCDIRECTION((1.,0.,0.));
#386=IFCAXIS2PLACEMENT3D(#383,#384,#385);
#387=IFCDIRECTION((0.,0.,-1.));
#388=IFCEXTRUDEDAREASOLID(#382,#386,#387,35.);
#389=IFCINDEXEDPOLYCURVE(#390,(IFCLINEINDEX((1,2,3,4,1))),$);
#390=IFCCARTESIANPOINTLIST2D(((35.,35.),(-83.799999999999997,35.),(-83.799999999999997,-83.900000000000006),(35.,-83.900000000000006)));
#391=IFCARBITRARYCLOSEDPROFILEDEF(.AREA.,$,#389);
#392=IFCCARTESIANPOINT((25.,102.5,25.));
#393=IFCDIRECTION((0.,-1.,0.));
#394=IFCDIRECTION((1.,0.,0.));
#395=IFCAXIS2PLACEMENT3D(#392,#393,#394);
#396=IFCDIRECTION((0.,0.,-1.));
#397=IFCEXTRUDEDAREASOLID(#391,#395,#396,10.);
#398=IFCSHAPEREPRESENTATION(#11,'Body','SweptSolid',(#366,#377,#388,#397));
#399=IFCPRODUCTDEFINITIONSHAPE($,$,(#398));
#405=IFCCARTESIANPOINT((2599.9999999999995,4049.9999999999995,1100.));
#406=IFCDIRECTION((0.,0.,1.));
#407=IFCDIRECTION((1.,0.,0.));
#408=IFCAXIS2PLACEMENT3D(#405,#406,#407);
#409=IFCLOCALPLACEMENT(#22,#408);
#410=IFCSPACE('2F4sO6Mdn4ouDBMeRyvbZi',$,'OPEN STUDIO',$,$,$,$,$,$,$,$);
#411=IFCRELAGGREGATES('2zhbozjVv6tBLXvsXRUqo3',$,$,$,#16,(#410));
ENDSEC;
END-ISO-10303-21;
