M48
; DRILL file KiCad 10.0.0 date 2026-04-30T00:25:53
; FORMAT={-:-/ absolute / metric / decimal}
; #@! TF.CreationDate,2026-04-30T00:25:53+08:00
; #@! TF.GenerationSoftware,Kicad,Pcbnew,10.0.0
; #@! TF.FileFunction,MixedPlating,1,2
FMAT,2
METRIC
; #@! TA.AperFunction,Plated,PTH,ComponentDrill
T1C0.800
; #@! TA.AperFunction,NonPlated,NPTH,ComponentDrill
T2C0.500
%
G90
G05
T1
X15.0Y-25.0
X15.0Y-35.0
X15.0Y-65.0
X15.0Y-75.0
X53.0Y-25.0
X53.0Y-35.0
X53.0Y-65.0
X53.0Y-75.0
X91.0Y-25.0
X91.0Y-35.0
X91.0Y-65.0
X91.0Y-75.0
T2
X0.0Y-53.0
X0.0Y-54.0
X0.0Y-55.0
X0.0Y-56.0
X20.0Y-53.0
X20.0Y-54.0
X20.0Y-55.0
X20.0Y-56.0
X34.0Y-20.0
X34.0Y-60.0
X35.0Y-20.0
X35.0Y-60.0
X36.0Y-20.0
X36.0Y-60.0
X37.0Y-20.0
X37.0Y-60.0
X38.0Y-53.0
X38.0Y-54.0
X38.0Y-55.0
X38.0Y-56.0
X58.0Y-53.0
X58.0Y-54.0
X58.0Y-55.0
X58.0Y-56.0
X72.0Y-20.0
X72.0Y-60.0
X73.0Y-20.0
X73.0Y-60.0
X74.0Y-20.0
X74.0Y-60.0
X75.0Y-20.0
X75.0Y-60.0
X76.0Y-53.0
X76.0Y-54.0
X76.0Y-55.0
X76.0Y-56.0
X96.0Y-53.0
X96.0Y-54.0
X96.0Y-55.0
X96.0Y-56.0
M30
