M48
; DRILL file KiCad 10.0.2-10.0.2~ubuntu24.04.1 date 2026-08-12T00:59:05
; FORMAT={-:-/ absolute / metric / decimal}
; #@! TF.CreationDate,2026-08-12T00:59:05+08:00
; #@! TF.GenerationSoftware,Kicad,Pcbnew,10.0.2-10.0.2~ubuntu24.04.1
; #@! TF.FileFunction,MixedPlating,1,2
FMAT,2
METRIC
; #@! TA.AperFunction,Plated,PTH,ComponentDrill
T1C0.800
; #@! TA.AperFunction,NonPlated,NPTH,ComponentDrill
T2C0.500
%
G90
G05
T1
X15.0Y-15.0
X15.0Y-25.0
X15.0Y-53.0
X15.0Y-63.0
X53.0Y-15.0
X53.0Y-25.0
X53.0Y-53.0
X53.0Y-63.0
X91.0Y-15.0
X91.0Y-25.0
X91.0Y-53.0
X91.0Y-63.0
T2
X15.0Y5.5
X15.0Y4.5
X15.0Y3.5
X15.0Y2.5
X15.0Y-32.5
X15.0Y-33.5
X15.0Y-34.5
X15.0Y-35.5
X32.5Y-15.0
X32.5Y-53.0
X33.5Y-15.0
X33.5Y-53.0
X34.5Y-15.0
X34.5Y-53.0
X35.5Y-15.0
X35.5Y-53.0
X53.0Y5.5
X53.0Y4.5
X53.0Y3.5
X53.0Y2.5
X53.0Y-32.5
X53.0Y-33.5
X53.0Y-34.5
X53.0Y-35.5
X70.5Y-15.0
X70.5Y-53.0
X71.5Y-15.0
X71.5Y-53.0
X72.5Y-15.0
X72.5Y-53.0
X73.5Y-15.0
X73.5Y-53.0
X91.0Y5.5
X91.0Y4.5
X91.0Y3.5
X91.0Y2.5
X91.0Y-32.5
X91.0Y-33.5
X91.0Y-34.5
X91.0Y-35.5
M30
