# Task 04 Blender review scene exported as OBJ
mtllib 04_blender_review.mtl
o task_04_enclosure_shell
usemtl enclosure_translucent
v -71.2000 -50.2000 0.0000
v 71.2000 -50.2000 0.0000
v 71.2000 50.2000 0.0000
v -71.2000 50.2000 0.0000
v -71.2000 -50.2000 26.4000
v 71.2000 -50.2000 26.4000
v 71.2000 50.2000 26.4000
v -71.2000 50.2000 26.4000
f 1 2 3 4
f 5 8 7 6
f 1 5 6 2
f 2 6 7 3
f 3 7 8 4
f 4 8 5 1
o task_04_pcb_board
usemtl pcb_green
v -64.0000 -43.0000 3.2000
v 64.0000 -43.0000 3.2000
v 64.0000 43.0000 3.2000
v -64.0000 43.0000 3.2000
f 9 10 11 12
