ISO-10303-21;
HEADER;
FILE_DESCRIPTION(('ViewDefinition[DesignTransferView]'),'2;1');
FILE_NAME('/dev/null','2026-05-22T00:30:56+08:00',(''),(''),'IfcOpenShell 0.8.5','IfcOpenShell 0.8.5','Nobody');
FILE_SCHEMA(('IFC4'));
ENDSEC;
DATA;
#1=IFCPROJECT('1nPow9QCzBFBcLuWf5W6M8',$,'task-13 Ground Truth',$,$,$,$,(#10),#5);
#2=IFCSIUNIT(*,.LENGTHUNIT.,.MILLI.,.METRE.);
#3=IFCSIUNIT(*,.AREAUNIT.,$,.SQUARE_METRE.);
#4=IFCSIUNIT(*,.VOLUMEUNIT.,$,.CUBIC_METRE.);
#5=IFCUNITASSIGNMENT((#4,#2,#3));
#6=IFCCARTESIANPOINT((0.,0.,0.));
#7=IFCDIRECTION((0.,0.,1.));
#8=IFCDIRECTION((1.,0.,0.));
#9=IFCAXIS2PLACEMENT3D(#6,#7,#8);
#10=IFCGEOMETRICREPRESENTATIONCONTEXT($,'Model',3,1.0000000000000001E-05,#9,$);
#11=IFCGEOMETRICREPRESENTATIONSUBCONTEXT('Body','Model',*,*,*,*,#10,$,.MODEL_VIEW.,$);
#12=IFCSITE('0jPQFMoOH71g3i1C_ty9Wf',$,'Default Site',$,$,$,$,$,$,$,$,$,$,$);
#13=IFCBUILDING('0dfwlMwhTCpPszRCxxlu55',$,'Bonsai Simple Building',$,$,$,$,$,$,$,$,$);
#14=IFCBUILDINGSTOREY('27Thi_zv1EKw6ciasZEnxo',$,'Ground Floor',$,$,$,$,$,$,$);
#15=IFCRELAGGREGATES('3o$s8lxjf5XfUmAvXFT5cN',$,$,$,#1,(#12));
#16=IFCRELAGGREGATES('2lAZYZHUzCOBF9b8n$9VM9',$,$,$,#12,(#13));
#17=IFCRELAGGREGATES('13KsSCZqzFHxsXqpKqh6eI',$,$,$,#13,(#14));
#18=IFCWALL('3kqdSa8DrDNwT1psdT_VyK',$,'South Wall',$,$,#470,#29,$,$);
#19=IFCCARTESIANPOINTLIST2D(((0.,0.),(0.,200.),(13000.,200.),(13000.,0.),(0.,0.)));
#20=IFCINDEXEDPOLYCURVE(#19,$,.F.);
#21=IFCDIRECTION((0.,0.,1.));
#22=IFCARBITRARYCLOSEDPROFILEDEF(.AREA.,$,#20);
#23=IFCCARTESIANPOINT((0.,0.,0.));
#24=IFCDIRECTION((0.,0.,1.));
#25=IFCDIRECTION((1.,0.,0.));
#26=IFCAXIS2PLACEMENT3D(#23,#24,#25);
#27=IFCEXTRUDEDAREASOLID(#22,#26,#21,3200.);
#28=IFCSHAPEREPRESENTATION(#11,'Body','SweptSolid',(#27));
#29=IFCPRODUCTDEFINITIONSHAPE($,$,(#28));
#35=IFCWALL('3pDCZxENX1IPeUypwK1iTQ',$,'North Wall',$,$,#490,#46,$,$);
#36=IFCCARTESIANPOINTLIST2D(((0.,0.),(0.,200.),(13000.,200.),(13000.,0.),(0.,0.)));
#37=IFCINDEXEDPOLYCURVE(#36,$,.F.);
#38=IFCDIRECTION((0.,0.,1.));
#39=IFCARBITRARYCLOSEDPROFILEDEF(.AREA.,$,#37);
#40=IFCCARTESIANPOINT((0.,0.,0.));
#41=IFCDIRECTION((0.,0.,1.));
#42=IFCDIRECTION((1.,0.,0.));
#43=IFCAXIS2PLACEMENT3D(#40,#41,#42);
#44=IFCEXTRUDEDAREASOLID(#39,#43,#38,3200.);
#45=IFCSHAPEREPRESENTATION(#11,'Body','SweptSolid',(#44));
#46=IFCPRODUCTDEFINITIONSHAPE($,$,(#45));
#52=IFCWALL('1KvQbM$Zr7qxV3lWtfMSKm',$,'West Wall',$,$,#520,#63,$,$);
#53=IFCCARTESIANPOINTLIST2D(((0.,0.),(0.,200.),(7000.,200.),(7000.,0.),(0.,0.)));
#54=IFCINDEXEDPOLYCURVE(#53,$,.F.);
#55=IFCDIRECTION((0.,0.,1.));
#56=IFCARBITRARYCLOSEDPROFILEDEF(.AREA.,$,#54);
#57=IFCCARTESIANPOINT((0.,0.,0.));
#58=IFCDIRECTION((0.,0.,1.));
#59=IFCDIRECTION((1.,0.,0.));
#60=IFCAXIS2PLACEMENT3D(#57,#58,#59);
#61=IFCEXTRUDEDAREASOLID(#56,#60,#55,3200.);
#62=IFCSHAPEREPRESENTATION(#11,'Body','SweptSolid',(#61));
#63=IFCPRODUCTDEFINITIONSHAPE($,$,(#62));
#69=IFCWALL('3nddxNEb1B1vxwUeXXrjTm',$,'East Wall',$,$,#445,#80,$,$);
#70=IFCCARTESIANPOINTLIST2D(((0.,0.),(0.,200.),(7000.,200.),(7000.,0.),(0.,0.)));
#71=IFCINDEXEDPOLYCURVE(#70,$,.F.);
#72=IFCDIRECTION((0.,0.,1.));
#73=IFCARBITRARYCLOSEDPROFILEDEF(.AREA.,$,#71);
#74=IFCCARTESIANPOINT((0.,0.,0.));
#75=IFCDIRECTION((0.,0.,1.));
#76=IFCDIRECTION((1.,0.,0.));
#77=IFCAXIS2PLACEMENT3D(#74,#75,#76);
#78=IFCEXTRUDEDAREASOLID(#73,#77,#72,3200.);
#79=IFCSHAPEREPRESENTATION(#11,'Body','SweptSolid',(#78));
#80=IFCPRODUCTDEFINITIONSHAPE($,$,(#79));
#86=IFCWALL('3Gw$ez9Bz6mhxm35s87ODG',$,'Interior Partition 1',$,$,#475,#97,$,$);
#87=IFCCARTESIANPOINTLIST2D(((0.,0.),(0.,200.),(7000.,200.),(7000.,0.),(0.,0.)));
#88=IFCINDEXEDPOLYCURVE(#87,$,.F.);
#89=IFCDIRECTION((0.,0.,1.));
#90=IFCARBITRARYCLOSEDPROFILEDEF(.AREA.,$,#88);
#91=IFCCARTESIANPOINT((0.,0.,0.));
#92=IFCDIRECTION((0.,0.,1.));
#93=IFCDIRECTION((1.,0.,0.));
#94=IFCAXIS2PLACEMENT3D(#91,#92,#93);
#95=IFCEXTRUDEDAREASOLID(#90,#94,#89,3200.);
#96=IFCSHAPEREPRESENTATION(#11,'Body','SweptSolid',(#95));
#97=IFCPRODUCTDEFINITIONSHAPE($,$,(#96));
#103=IFCWALL('1jiRzQd6r4u9sTRrSVA7nq',$,'Interior Partition 2',$,$,#505,#114,$,$);
#104=IFCCARTESIANPOINTLIST2D(((0.,0.),(0.,200.),(7000.,200.),(7000.,0.),(0.,0.)));
#105=IFCINDEXEDPOLYCURVE(#104,$,.F.);
#106=IFCDIRECTION((0.,0.,1.));
#107=IFCARBITRARYCLOSEDPROFILEDEF(.AREA.,$,#105);
#108=IFCCARTESIANPOINT((0.,0.,0.));
#109=IFCDIRECTION((0.,0.,1.));
#110=IFCDIRECTION((1.,0.,0.));
#111=IFCAXIS2PLACEMENT3D(#108,#109,#110);
#112=IFCEXTRUDEDAREASOLID(#107,#111,#106,3200.);
#113=IFCSHAPEREPRESENTATION(#11,'Body','SweptSolid',(#112));
#114=IFCPRODUCTDEFINITIONSHAPE($,$,(#113));
#120=IFCWALL('305aW7lnbBGQ2MhNTMGqs$',$,'Interior Partition 3',$,$,#530,#131,$,$);
#121=IFCCARTESIANPOINTLIST2D(((0.,0.),(0.,200.),(7000.,200.),(7000.,0.),(0.,0.)));
#122=IFCINDEXEDPOLYCURVE(#121,$,.F.);
#123=IFCDIRECTION((0.,0.,1.));
#124=IFCARBITRARYCLOSEDPROFILEDEF(.AREA.,$,#122);
#125=IFCCARTESIANPOINT((0.,0.,0.));
#126=IFCDIRECTION((0.,0.,1.));
#127=IFCDIRECTION((1.,0.,0.));
#128=IFCAXIS2PLACEMENT3D(#125,#126,#127);
#129=IFCEXTRUDEDAREASOLID(#124,#128,#123,3200.);
#130=IFCSHAPEREPRESENTATION(#11,'Body','SweptSolid',(#129));
#131=IFCPRODUCTDEFINITIONSHAPE($,$,(#130));
#137=IFCWALL('23RN6YLtL3j8LXN2gSXDXL',$,'Interior Partition 4',$,$,#450,#148,$,$);
#138=IFCCARTESIANPOINTLIST2D(((0.,0.),(0.,200.),(7000.,200.),(7000.,0.),(0.,0.)));
#139=IFCINDEXEDPOLYCURVE(#138,$,.F.);
#140=IFCDIRECTION((0.,0.,1.));
#141=IFCARBITRARYCLOSEDPROFILEDEF(.AREA.,$,#139);
#142=IFCCARTESIANPOINT((0.,0.,0.));
#143=IFCDIRECTION((0.,0.,1.));
#144=IFCDIRECTION((1.,0.,0.));
#145=IFCAXIS2PLACEMENT3D(#142,#143,#144);
#146=IFCEXTRUDEDAREASOLID(#141,#145,#140,3200.);
#147=IFCSHAPEREPRESENTATION(#11,'Body','SweptSolid',(#146));
#148=IFCPRODUCTDEFINITIONSHAPE($,$,(#147));
#154=IFCWALL('0CyC992X56UgkdtkE1Smte',$,'Interior Partition 5',$,$,#485,#165,$,$);
#155=IFCCARTESIANPOINTLIST2D(((0.,0.),(0.,200.),(7000.,200.),(7000.,0.),(0.,0.)));
#156=IFCINDEXEDPOLYCURVE(#155,$,.F.);
#157=IFCDIRECTION((0.,0.,1.));
#158=IFCARBITRARYCLOSEDPROFILEDEF(.AREA.,$,#156);
#159=IFCCARTESIANPOINT((0.,0.,0.));
#160=IFCDIRECTION((0.,0.,1.));
#161=IFCDIRECTION((1.,0.,0.));
#162=IFCAXIS2PLACEMENT3D(#159,#160,#161);
#163=IFCEXTRUDEDAREASOLID(#158,#162,#157,3200.);
#164=IFCSHAPEREPRESENTATION(#11,'Body','SweptSolid',(#163));
#165=IFCPRODUCTDEFINITIONSHAPE($,$,(#164));
#171=IFCSLAB('0UUqzKm1f7jQuCs8ooZw6U',$,'Ground Slab 1',$,$,#515,#178,$,$);
#172=IFCCARTESIANPOINTLIST2D(((0.,0.),(13000.,0.),(13000.,7000.),(0.,7000.),(0.,0.)));
#173=IFCINDEXEDPOLYCURVE(#172,$,$);
#174=IFCDIRECTION((0.,0.,1.));
#175=IFCARBITRARYCLOSEDPROFILEDEF(.AREA.,$,#173);
#176=IFCEXTRUDEDAREASOLID(#175,$,#174,200.);
#177=IFCSHAPEREPRESENTATION(#11,'Body','SweptSolid',(#176));
#178=IFCPRODUCTDEFINITIONSHAPE($,$,(#177));
#184=IFCSPACE('3HWTDkK9HEFxCxw7wdilF2',$,'Reception',$,$,#269,#191,$,$,$,$);
#185=IFCCARTESIANPOINTLIST2D(((0.,0.),(2600.,0.),(2600.,7000.),(0.,7000.),(0.,0.)));
#186=IFCINDEXEDPOLYCURVE(#185,$,$);
#187=IFCDIRECTION((0.,0.,1.));
#188=IFCARBITRARYCLOSEDPROFILEDEF(.AREA.,$,#186);
#189=IFCEXTRUDEDAREASOLID(#188,$,#187,3200.);
#190=IFCSHAPEREPRESENTATION(#11,'Body','SweptSolid',(#189));
#191=IFCPRODUCTDEFINITIONSHAPE($,$,(#190));
#197=IFCSPACE('0evSpgpan5nvmRTeQXw7rH',$,'Exam 1',$,$,#264,#204,$,$,$,$);
#198=IFCCARTESIANPOINTLIST2D(((2600.,0.),(5200.,0.),(5200.,7000.),(2600.,7000.),(2600.,0.)));
#199=IFCINDEXEDPOLYCURVE(#198,$,$);
#200=IFCDIRECTION((0.,0.,1.));
#201=IFCARBITRARYCLOSEDPROFILEDEF(.AREA.,$,#199);
#202=IFCEXTRUDEDAREASOLID(#201,$,#200,3200.);
#203=IFCSHAPEREPRESENTATION(#11,'Body','SweptSolid',(#202));
#204=IFCPRODUCTDEFINITIONSHAPE($,$,(#203));
#210=IFCSPACE('3YYbP$aVj5JuJTHTA8xMH_',$,'Exam 2',$,$,#254,#217,$,$,$,$);
#211=IFCCARTESIANPOINTLIST2D(((5200.,0.),(7800.,0.),(7800.,7000.),(5200.,7000.),(5200.,0.)));
#212=IFCINDEXEDPOLYCURVE(#211,$,$);
#213=IFCDIRECTION((0.,0.,1.));
#214=IFCARBITRARYCLOSEDPROFILEDEF(.AREA.,$,#212);
#215=IFCEXTRUDEDAREASOLID(#214,$,#213,3200.);
#216=IFCSHAPEREPRESENTATION(#11,'Body','SweptSolid',(#215));
#217=IFCPRODUCTDEFINITIONSHAPE($,$,(#216));
#223=IFCSPACE('1qBajJES9EYg5cGlY689Yt',$,'Clean Room',$,$,#259,#230,$,$,$,$);
#224=IFCCARTESIANPOINTLIST2D(((7800.,0.),(10400.,0.),(10400.,7000.),(7800.,7000.),(7800.,0.)));
#225=IFCINDEXEDPOLYCURVE(#224,$,$);
#226=IFCDIRECTION((0.,0.,1.));
#227=IFCARBITRARYCLOSEDPROFILEDEF(.AREA.,$,#225);
#228=IFCEXTRUDEDAREASOLID(#227,$,#226,3200.);
#229=IFCSHAPEREPRESENTATION(#11,'Body','SweptSolid',(#228));
#230=IFCPRODUCTDEFINITIONSHAPE($,$,(#229));
#236=IFCSPACE('3PT7$F8Oj7t9NOdB0WI6oo',$,'WC',$,$,#274,#243,$,$,$,$);
#237=IFCCARTESIANPOINTLIST2D(((10400.,0.),(13000.,0.),(13000.,7000.),(10400.,7000.),(10400.,0.)));
#238=IFCINDEXEDPOLYCURVE(#237,$,$);
#239=IFCDIRECTION((0.,0.,1.));
#240=IFCARBITRARYCLOSEDPROFILEDEF(.AREA.,$,#238);
#241=IFCEXTRUDEDAREASOLID(#240,$,#239,3200.);
#242=IFCSHAPEREPRESENTATION(#11,'Body','SweptSolid',(#241));
#243=IFCPRODUCTDEFINITIONSHAPE($,$,(#242));
#249=IFCRELAGGREGATES('2z5lHIKjrCBxw5iKj2TiTA',$,$,$,#14,(#210,#223,#197,#184,#236));
#250=IFCCARTESIANPOINT((0.,0.,0.));
#251=IFCDIRECTION((0.,0.,1.));
#252=IFCDIRECTION((1.,0.,0.));
#253=IFCAXIS2PLACEMENT3D(#250,#251,#252);
#254=IFCLOCALPLACEMENT($,#253);
#255=IFCCARTESIANPOINT((0.,0.,0.));
#256=IFCDIRECTION((0.,0.,1.));
#257=IFCDIRECTION((1.,0.,0.));
#258=IFCAXIS2PLACEMENT3D(#255,#256,#257);
#259=IFCLOCALPLACEMENT($,#258);
#260=IFCCARTESIANPOINT((0.,0.,0.));
#261=IFCDIRECTION((0.,0.,1.));
#262=IFCDIRECTION((1.,0.,0.));
#263=IFCAXIS2PLACEMENT3D(#260,#261,#262);
#264=IFCLOCALPLACEMENT($,#263);
#265=IFCCARTESIANPOINT((0.,0.,0.));
#266=IFCDIRECTION((0.,0.,1.));
#267=IFCDIRECTION((1.,0.,0.));
#268=IFCAXIS2PLACEMENT3D(#265,#266,#267);
#269=IFCLOCALPLACEMENT($,#268);
#270=IFCCARTESIANPOINT((0.,0.,0.));
#271=IFCDIRECTION((0.,0.,1.));
#272=IFCDIRECTION((1.,0.,0.));
#273=IFCAXIS2PLACEMENT3D(#270,#271,#272);
#274=IFCLOCALPLACEMENT($,#273);
#275=IFCDOOR('0ztHCGqIrBRxRofhNUhCl5',$,'Door 1',$,$,#495,#285,$,2.1000000000000001,0.90000000000000002,$,$,$);
#276=IFCCARTESIANPOINTLIST3D(((0.,0.,0.),(900.,0.,0.),(900.,80.,0.),(0.,80.,0.),(0.,0.,2100.),(900.,0.,2100.),(900.,80.,2100.),(0.,80.,2100.)));
#277=IFCINDEXEDPOLYGONALFACE((1,2,3,4));
#278=IFCINDEXEDPOLYGONALFACE((5,8,7,6));
#279=IFCINDEXEDPOLYGONALFACE((1,5,6,2));
#280=IFCINDEXEDPOLYGONALFACE((2,6,7,3));
#281=IFCINDEXEDPOLYGONALFACE((3,7,8,4));
#282=IFCINDEXEDPOLYGONALFACE((4,8,5,1));
#283=IFCPOLYGONALFACESET(#276,$,(#277,#278,#279,#280,#281,#282),$);
#284=IFCSHAPEREPRESENTATION(#11,'Body','Tessellation',(#283));
#285=IFCPRODUCTDEFINITIONSHAPE($,$,(#284));
#291=IFCDOOR('3_TTdk3UP9QOig$gyVgpl2',$,'Door 2',$,$,#460,#301,$,2.1000000000000001,0.90000000000000002,$,$,$);
#292=IFCCARTESIANPOINTLIST3D(((0.,0.,0.),(900.,0.,0.),(900.,80.,0.),(0.,80.,0.),(0.,0.,2100.),(900.,0.,2100.),(900.,80.,2100.),(0.,80.,2100.)));
#293=IFCINDEXEDPOLYGONALFACE((1,2,3,4));
#294=IFCINDEXEDPOLYGONALFACE((5,8,7,6));
#295=IFCINDEXEDPOLYGONALFACE((1,5,6,2));
#296=IFCINDEXEDPOLYGONALFACE((2,6,7,3));
#297=IFCINDEXEDPOLYGONALFACE((3,7,8,4));
#298=IFCINDEXEDPOLYGONALFACE((4,8,5,1));
#299=IFCPOLYGONALFACESET(#292,$,(#293,#294,#295,#296,#297,#298),$);
#300=IFCSHAPEREPRESENTATION(#11,'Body','Tessellation',(#299));
#301=IFCPRODUCTDEFINITIONSHAPE($,$,(#300));
#307=IFCDOOR('2IByEwPQj0RQmzJ5pVuT2g',$,'Door 3',$,$,#535,#317,$,2.1000000000000001,0.90000000000000002,$,$,$);
#308=IFCCARTESIANPOINTLIST3D(((0.,0.,0.),(900.,0.,0.),(900.,80.,0.),(0.,80.,0.),(0.,0.,2100.),(900.,0.,2100.),(900.,80.,2100.),(0.,80.,2100.)));
#309=IFCINDEXEDPOLYGONALFACE((1,2,3,4));
#310=IFCINDEXEDPOLYGONALFACE((5,8,7,6));
#311=IFCINDEXEDPOLYGONALFACE((1,5,6,2));
#312=IFCINDEXEDPOLYGONALFACE((2,6,7,3));
#313=IFCINDEXEDPOLYGONALFACE((3,7,8,4));
#314=IFCINDEXEDPOLYGONALFACE((4,8,5,1));
#315=IFCPOLYGONALFACESET(#308,$,(#309,#310,#311,#312,#313,#314),$);
#316=IFCSHAPEREPRESENTATION(#11,'Body','Tessellation',(#315));
#317=IFCPRODUCTDEFINITIONSHAPE($,$,(#316));
#323=IFCDOOR('08YnL0vFTEmePgCf8MglzP',$,'Door 4',$,$,#510,#333,$,2.1000000000000001,0.90000000000000002,$,$,$);
#324=IFCCARTESIANPOINTLIST3D(((0.,0.,0.),(900.,0.,0.),(900.,80.,0.),(0.,80.,0.),(0.,0.,2100.),(900.,0.,2100.),(900.,80.,2100.),(0.,80.,2100.)));
#325=IFCINDEXEDPOLYGONALFACE((1,2,3,4));
#326=IFCINDEXEDPOLYGONALFACE((5,8,7,6));
#327=IFCINDEXEDPOLYGONALFACE((1,5,6,2));
#328=IFCINDEXEDPOLYGONALFACE((2,6,7,3));
#329=IFCINDEXEDPOLYGONALFACE((3,7,8,4));
#330=IFCINDEXEDPOLYGONALFACE((4,8,5,1));
#331=IFCPOLYGONALFACESET(#324,$,(#325,#326,#327,#328,#329,#330),$);
#332=IFCSHAPEREPRESENTATION(#11,'Body','Tessellation',(#331));
#333=IFCPRODUCTDEFINITIONSHAPE($,$,(#332));
#339=IFCDOOR('0BNE1S2V91Qv5vJozEZhSQ',$,'Door 5',$,$,#480,#349,$,2.1000000000000001,0.90000000000000002,$,$,$);
#340=IFCCARTESIANPOINTLIST3D(((0.,0.,0.),(900.,0.,0.),(900.,80.,0.),(0.,80.,0.),(0.,0.,2100.),(900.,0.,2100.),(900.,80.,2100.),(0.,80.,2100.)));
#341=IFCINDEXEDPOLYGONALFACE((1,2,3,4));
#342=IFCINDEXEDPOLYGONALFACE((5,8,7,6));
#343=IFCINDEXEDPOLYGONALFACE((1,5,6,2));
#344=IFCINDEXEDPOLYGONALFACE((2,6,7,3));
#345=IFCINDEXEDPOLYGONALFACE((3,7,8,4));
#346=IFCINDEXEDPOLYGONALFACE((4,8,5,1));
#347=IFCPOLYGONALFACESET(#340,$,(#341,#342,#343,#344,#345,#346),$);
#348=IFCSHAPEREPRESENTATION(#11,'Body','Tessellation',(#347));
#349=IFCPRODUCTDEFINITIONSHAPE($,$,(#348));
#355=IFCWINDOW('0zZzSDwkXEyv2KtVArYlYZ',$,'Window 1',$,$,#455,#365,$,1.,1.2,$,$,$);
#356=IFCCARTESIANPOINTLIST3D(((0.,0.,0.),(1200.,0.,0.),(1200.,80.,0.),(0.,80.,0.),(0.,0.,1000.),(1200.,0.,1000.),(1200.,80.,1000.),(0.,80.,1000.)));
#357=IFCINDEXEDPOLYGONALFACE((1,2,3,4));
#358=IFCINDEXEDPOLYGONALFACE((5,8,7,6));
#359=IFCINDEXEDPOLYGONALFACE((1,5,6,2));
#360=IFCINDEXEDPOLYGONALFACE((2,6,7,3));
#361=IFCINDEXEDPOLYGONALFACE((3,7,8,4));
#362=IFCINDEXEDPOLYGONALFACE((4,8,5,1));
#363=IFCPOLYGONALFACESET(#356,$,(#357,#358,#359,#360,#361,#362),$);
#364=IFCSHAPEREPRESENTATION(#11,'Body','Tessellation',(#363));
#365=IFCPRODUCTDEFINITIONSHAPE($,$,(#364));
#371=IFCWINDOW('0wP18Ca$v1BATV6tk3gCQz',$,'Window 2',$,$,#525,#381,$,1.,1.2,$,$,$);
#372=IFCCARTESIANPOINTLIST3D(((0.,0.,0.),(1200.,0.,0.),(1200.,80.,0.),(0.,80.,0.),(0.,0.,1000.),(1200.,0.,1000.),(1200.,80.,1000.),(0.,80.,1000.)));
#373=IFCINDEXEDPOLYGONALFACE((1,2,3,4));
#374=IFCINDEXEDPOLYGONALFACE((5,8,7,6));
#375=IFCINDEXEDPOLYGONALFACE((1,5,6,2));
#376=IFCINDEXEDPOLYGONALFACE((2,6,7,3));
#377=IFCINDEXEDPOLYGONALFACE((3,7,8,4));
#378=IFCINDEXEDPOLYGONALFACE((4,8,5,1));
#379=IFCPOLYGONALFACESET(#372,$,(#373,#374,#375,#376,#377,#378),$);
#380=IFCSHAPEREPRESENTATION(#11,'Body','Tessellation',(#379));
#381=IFCPRODUCTDEFINITIONSHAPE($,$,(#380));
#387=IFCWINDOW('1aNwuXcjn4WgTSYNJ92tjN',$,'Window 3',$,$,#500,#397,$,1.,1.2,$,$,$);
#388=IFCCARTESIANPOINTLIST3D(((0.,0.,0.),(1200.,0.,0.),(1200.,80.,0.),(0.,80.,0.),(0.,0.,1000.),(1200.,0.,1000.),(1200.,80.,1000.),(0.,80.,1000.)));
#389=IFCINDEXEDPOLYGONALFACE((1,2,3,4));
#390=IFCINDEXEDPOLYGONALFACE((5,8,7,6));
#391=IFCINDEXEDPOLYGONALFACE((1,5,6,2));
#392=IFCINDEXEDPOLYGONALFACE((2,6,7,3));
#393=IFCINDEXEDPOLYGONALFACE((3,7,8,4));
#394=IFCINDEXEDPOLYGONALFACE((4,8,5,1));
#395=IFCPOLYGONALFACESET(#388,$,(#389,#390,#391,#392,#393,#394),$);
#396=IFCSHAPEREPRESENTATION(#11,'Body','Tessellation',(#395));
#397=IFCPRODUCTDEFINITIONSHAPE($,$,(#396));
#403=IFCWINDOW('3UF5M41F91dP8ek5dxKd1D',$,'Window 4',$,$,#465,#413,$,1.,1.2,$,$,$);
#404=IFCCARTESIANPOINTLIST3D(((0.,0.,0.),(1200.,0.,0.),(1200.,80.,0.),(0.,80.,0.),(0.,0.,1000.),(1200.,0.,1000.),(1200.,80.,1000.),(0.,80.,1000.)));
#405=IFCINDEXEDPOLYGONALFACE((1,2,3,4));
#406=IFCINDEXEDPOLYGONALFACE((5,8,7,6));
#407=IFCINDEXEDPOLYGONALFACE((1,5,6,2));
#408=IFCINDEXEDPOLYGONALFACE((2,6,7,3));
#409=IFCINDEXEDPOLYGONALFACE((3,7,8,4));
#410=IFCINDEXEDPOLYGONALFACE((4,8,5,1));
#411=IFCPOLYGONALFACESET(#404,$,(#405,#406,#407,#408,#409,#410),$);
#412=IFCSHAPEREPRESENTATION(#11,'Body','Tessellation',(#411));
#413=IFCPRODUCTDEFINITIONSHAPE($,$,(#412));
#419=IFCWINDOW('0Ko8ZOszjAchRSc0ETngBA',$,'Window 5',$,$,#440,#429,$,1.,1.2,$,$,$);
#420=IFCCARTESIANPOINTLIST3D(((0.,0.,0.),(1200.,0.,0.),(1200.,80.,0.),(0.,80.,0.),(0.,0.,1000.),(1200.,0.,1000.),(1200.,80.,1000.),(0.,80.,1000.)));
#421=IFCINDEXEDPOLYGONALFACE((1,2,3,4));
#422=IFCINDEXEDPOLYGONALFACE((5,8,7,6));
#423=IFCINDEXEDPOLYGONALFACE((1,5,6,2));
#424=IFCINDEXEDPOLYGONALFACE((2,6,7,3));
#425=IFCINDEXEDPOLYGONALFACE((3,7,8,4));
#426=IFCINDEXEDPOLYGONALFACE((4,8,5,1));
#427=IFCPOLYGONALFACESET(#420,$,(#421,#422,#423,#424,#425,#426),$);
#428=IFCSHAPEREPRESENTATION(#11,'Body','Tessellation',(#427));
#429=IFCPRODUCTDEFINITIONSHAPE($,$,(#428));
#435=IFCRELCONTAINEDINSPATIALSTRUCTURE('1oFUd38_f6KOZq0MT9M_di',$,$,$,(#419,#69,#137,#355,#291,#403,#18,#86,#339,#154,#35,#275,#387,#103,#323,#171,#52,#371,#120,#307),#14);
#436=IFCCARTESIANPOINT((10233.333333333334,6960.,1200.));
#437=IFCDIRECTION((0.,0.,1.));
#438=IFCDIRECTION((1.,0.,0.));
#439=IFCAXIS2PLACEMENT3D(#436,#437,#438);
#440=IFCLOCALPLACEMENT($,#439);
#441=IFCCARTESIANPOINT((13000.,0.,0.));
#442=IFCDIRECTION((0.,0.,1.));
#443=IFCDIRECTION((6.123233995736766E-17,1.,0.));
#444=IFCAXIS2PLACEMENT3D(#441,#442,#443);
#445=IFCLOCALPLACEMENT($,#444);
#446=IFCCARTESIANPOINT((8666.6666666666661,0.,0.));
#447=IFCDIRECTION((0.,0.,1.));
#448=IFCDIRECTION((6.123233995736766E-17,1.,0.));
#449=IFCAXIS2PLACEMENT3D(#446,#447,#448);
#450=IFCLOCALPLACEMENT($,#449);
#451=IFCCARTESIANPOINT((1566.6666666666663,6960.,1200.));
#452=IFCDIRECTION((0.,0.,1.));
#453=IFCDIRECTION((1.,0.,0.));
#454=IFCAXIS2PLACEMENT3D(#451,#452,#453);
#455=IFCLOCALPLACEMENT($,#454);
#456=IFCCARTESIANPOINT((3883.3333333333326,-40.,0.));
#457=IFCDIRECTION((0.,0.,1.));
#458=IFCDIRECTION((1.,0.,0.));
#459=IFCAXIS2PLACEMENT3D(#456,#457,#458);
#460=IFCLOCALPLACEMENT($,#459);
#461=IFCCARTESIANPOINT((12960.,4066.6666666666665,1200.));
#462=IFCDIRECTION((0.,0.,1.));
#463=IFCDIRECTION((6.123233995736766E-17,1.,0.));
#464=IFCAXIS2PLACEMENT3D(#461,#462,#463);
#465=IFCLOCALPLACEMENT($,#464);
#466=IFCCARTESIANPOINT((0.,0.,0.));
#467=IFCDIRECTION((0.,0.,1.));
#468=IFCDIRECTION((1.,0.,0.));
#469=IFCAXIS2PLACEMENT3D(#466,#467,#468);
#470=IFCLOCALPLACEMENT($,#469);
#471=IFCCARTESIANPOINT((2166.6666666666665,0.,0.));
#472=IFCDIRECTION((0.,0.,1.));
#473=IFCDIRECTION((6.123233995736766E-17,1.,0.));
#474=IFCAXIS2PLACEMENT3D(#471,#472,#473);
#475=IFCLOCALPLACEMENT($,#474);
#476=IFCCARTESIANPOINT((10383.333333333334,-40.,0.));
#477=IFCDIRECTION((0.,0.,1.));
#478=IFCDIRECTION((1.,0.,0.));
#479=IFCAXIS2PLACEMENT3D(#476,#477,#478);
#480=IFCLOCALPLACEMENT($,#479);
#481=IFCCARTESIANPOINT((10833.333333333334,0.,0.));
#482=IFCDIRECTION((0.,0.,1.));
#483=IFCDIRECTION((6.123233995736766E-17,1.,0.));
#484=IFCAXIS2PLACEMENT3D(#481,#482,#483);
#485=IFCLOCALPLACEMENT($,#484);
#486=IFCCARTESIANPOINT((0.,7000.,0.));
#487=IFCDIRECTION((0.,0.,1.));
#488=IFCDIRECTION((1.,0.,0.));
#489=IFCAXIS2PLACEMENT3D(#486,#487,#488);
#490=IFCLOCALPLACEMENT($,#489);
#491=IFCCARTESIANPOINT((1716.6666666666665,-40.,0.));
#492=IFCDIRECTION((0.,0.,1.));
#493=IFCDIRECTION((1.,0.,0.));
#494=IFCAXIS2PLACEMENT3D(#491,#492,#493);
#495=IFCLOCALPLACEMENT($,#494);
#496=IFCCARTESIANPOINT((5900.,6960.,1200.));
#497=IFCDIRECTION((0.,0.,1.));
#498=IFCDIRECTION((1.,0.,0.));
#499=IFCAXIS2PLACEMENT3D(#496,#497,#498);
#500=IFCLOCALPLACEMENT($,#499);
#501=IFCCARTESIANPOINT((4333.333333333333,0.,0.));
#502=IFCDIRECTION((0.,0.,1.));
#503=IFCDIRECTION((6.123233995736766E-17,1.,0.));
#504=IFCAXIS2PLACEMENT3D(#501,#502,#503);
#505=IFCLOCALPLACEMENT($,#504);
#506=IFCCARTESIANPOINT((8216.6666666666661,-40.,0.));
#507=IFCDIRECTION((0.,0.,1.));
#508=IFCDIRECTION((1.,0.,0.));
#509=IFCAXIS2PLACEMENT3D(#506,#507,#508);
#510=IFCLOCALPLACEMENT($,#509);
#511=IFCCARTESIANPOINT((0.,0.,0.));
#512=IFCDIRECTION((0.,0.,1.));
#513=IFCDIRECTION((1.,0.,0.));
#514=IFCAXIS2PLACEMENT3D(#511,#512,#513);
#515=IFCLOCALPLACEMENT($,#514);
#516=IFCCARTESIANPOINT((0.,0.,0.));
#517=IFCDIRECTION((0.,0.,1.));
#518=IFCDIRECTION((6.123233995736766E-17,1.,0.));
#519=IFCAXIS2PLACEMENT3D(#516,#517,#518);
#520=IFCLOCALPLACEMENT($,#519);
#521=IFCCARTESIANPOINT((12960.,1733.3333333333328,1200.));
#522=IFCDIRECTION((0.,0.,1.));
#523=IFCDIRECTION((6.123233995736766E-17,1.,0.));
#524=IFCAXIS2PLACEMENT3D(#521,#522,#523);
#525=IFCLOCALPLACEMENT($,#524);
#526=IFCCARTESIANPOINT((6500.,0.,0.));
#527=IFCDIRECTION((0.,0.,1.));
#528=IFCDIRECTION((6.123233995736766E-17,1.,0.));
#529=IFCAXIS2PLACEMENT3D(#526,#527,#528);
#530=IFCLOCALPLACEMENT($,#529);
#531=IFCCARTESIANPOINT((6050.,-40.,0.));
#532=IFCDIRECTION((0.,0.,1.));
#533=IFCDIRECTION((1.,0.,0.));
#534=IFCAXIS2PLACEMENT3D(#531,#532,#533);
#535=IFCLOCALPLACEMENT($,#534);
ENDSEC;
END-ISO-10303-21;
