999
FreeCAD v1.1 20260725 (Git shallow)
  0
SECTION
  2
HEADER
  9
$ACADVER
  1
AC1014
  9
$ACADMAINTVER
 70
     9
  9
$DWGCODEPAGE
  3
ANSI_1252
  9
$TEXTSTYLE
  7
STANDARD
  9
$DIMSTYLE
  2
STANDARD
  9
$DIMTXSTY
  7
STANDARD
  9
$CMLSTYLE
  2
STANDARD
  9
$LUNITS
 70
2
  9
$INSUNITS
 70
4
  9
$PEXTMAX
 10
50
 20
50
 30
50
  9
$PEXTMIN
 10
0
 20
0
 30
0
  9
$HANDSEED
  5
FFFF
  0
ENDSEC
  0
SECTION
  2
CLASSES
  0
CLASS
  1
ACDBDICTIONARYWDFLT
  2
AcDbDictionaryWithDefault
  3
ObjectDBX Classes
 90
        0
280
     0
281
     0
  0
CLASS
  1
XRECORD
  2
AcDbXrecord
  3
ObjectDBX Classes
 90
        0
280
     0
281
     0
  0
CLASS
  1
LWPOLYLINE
  2
AcDbPolyline
  3
ObjectDBX Classes
 90
        0
280
     0
281
     1
  0
ENDSEC
  0
SECTION
  2
TABLES
  0
TABLE
  2
VPORT
  5
20
330
0
100
AcDbSymbolTable
 70
     1
  0
VPORT
  5
21
330
20
100
AcDbSymbolTableRecord
100
AcDbViewportTableRecord
  2
*ACTIVE
 70
     0
  0
ENDTAB
  0
TABLE
  2
LTYPE
  5
22
330
0
100
AcDbSymbolTable
 70
     1
  0
LTYPE
  5
23
330
21
100
AcDbSymbolTableRecord
100
AcDbLinetypeTableRecord
  2
BYBLOCK
 70
     0
  3

 72
    65
 73
     0
 40
0.0
  0
LTYPE
  5
24
330
21
100
AcDbSymbolTableRecord
100
AcDbLinetypeTableRecord
  2
BYLAYER
 70
     0
  3

 72
    65
 73
     0
 40
0.0
  0
LTYPE
  5
25
330
21
100
AcDbSymbolTableRecord
100
AcDbLinetypeTableRecord
  2
CONTINUOUS
 70
     0
  3
Solid line
 72
    65
 73
     0
 40
0.0
  0
ENDTAB
  0
TABLE
  2
LAYER
  5
AA2
330
0
100
AcDbSymbolTable
 70
7
  0
LAYER
  5
AA3
330
AA2
100
AcDbSymbolTableRecord
100
AcDbLayerTableRecord
  2
0
 70
   0
 62
   7
  6
CONTINUOUS
  0
LAYER
  5
AA4
330
AA2
100
AcDbSymbolTableRecord
100
AcDbLayerTableRecord
  2
ProjItem
 70
    0
 62
    7
  6
CONTINUOUS
  0
LAYER
  5
AA5
330
AA2
100
AcDbSymbolTableRecord
100
AcDbLayerTableRecord
  2
ProjItem001
 70
    0
 62
    7
  6
CONTINUOUS
  0
LAYER
  5
AA6
330
AA2
100
AcDbSymbolTableRecord
100
AcDbLayerTableRecord
  2
ProjItem002
 70
    0
 62
    7
  6
CONTINUOUS
  0
LAYER
  5
AA7
330
AA2
100
AcDbSymbolTableRecord
100
AcDbLayerTableRecord
  2
DimDia0
 70
    0
 62
    7
  6
CONTINUOUS
  0
LAYER
  5
AA8
330
AA2
100
AcDbSymbolTableRecord
100
AcDbLayerTableRecord
  2
DimDia1
 70
    0
 62
    7
  6
CONTINUOUS
  0
LAYER
  5
AA9
330
AA2
100
AcDbSymbolTableRecord
100
AcDbLayerTableRecord
  2
DimHeight
 70
    0
 62
    7
  6
CONTINUOUS
  0
ENDTAB
  0
TABLE
  2
STYLE
  5
70
330
0
100
AcDbSymbolTable
 70
     2
  0
STYLE
  5
71
330
70
100
AcDbSymbolTableRecord
100
AcDbTextStyleTableRecord
  2
STANDARD
 70
     0
 40
0.0
 41
1.0
 50
0.0
 71
     0
 42
2.5
  3
arial.ttf
  4

  0
STYLE
  5
72
330
70
100
AcDbSymbolTableRecord
100
AcDbTextStyleTableRecord
  2
ANNOTATIVE
 70
     0
 40
0.0
 41
1.0
 50
0.0
 71
     0
 42
2.5
  3
arial.ttf
  4

  0
ENDTAB
  0
TABLE
  2
VIEW
  5
73
330
0
100
AcDbSymbolTable
 70
     0
  0
ENDTAB
  0
TABLE
  2
UCS
  5
74
330
0
100
AcDbSymbolTable
 70
     0
  0
ENDTAB
  0
TABLE
  2
APPID
  5
75
330
0
100
AcDbSymbolTable
 70
     2
  0
APPID
  5
76
330
75
100
AcDbSymbolTableRecord
100
AcDbRegAppTableRecord
  2
ACAD
 70
     0
  0
APPID
  5
77
330
75
100
AcDbSymbolTableRecord
100
AcDbRegAppTableRecord
  2
ACADANNOTATIVE
 70
     0
  0
ENDTAB
  0
TABLE
  2
DIMSTYLE
  5
78
330
0
100
AcDbSymbolTable
 70
     2
  0
DIMSTYLE
105
79
330
78
100
AcDbSymbolTableRecord
100
AcDbDimStyleTableRecord
  2
STANDARD
 70
     0
  3

  4

  5

  6

  7

 40
0.0
 41
2.5
 42
0.625
 43
3.75
 44
1.25
 45
0.0
 46
0.0
 47
0.0
 48
0.0
140
2.5
141
2.5
142
0.0
143
0.03937007874016
144
1.0
145
0.0
146
1.0
147
0.625
 71
     0
 72
     0
 73
     0
 74
     0
 75
     0
 76
     0
 77
     1
 78
     8
170
     0
171
     3
172
     1
173
     0
174
     0
175
     0
176
     0
177
     0
178
     0
270
     2
271
     2
272
     2
273
     2
274
     3
340
71
275
     0
280
     0
281
     0
282
     0
283
     0
284
     8
285
     0
286
     0
287
     3
288
     0
  0
ENDTAB
  0
TABLE
  2
BLOCK_RECORD
  5
A01
330
0
100
AcDbSymbolTable
  70
5
  0
BLOCK_RECORD
  5
A02
330
A01
100
AcDbSymbolTableRecord
100
AcDbBlockTableRecord
  2
*MODEL_SPACE
  0
BLOCK_RECORD
  5
A03
330
A01
100
AcDbSymbolTableRecord
100
AcDbBlockTableRecord
  2
*PAPER_SPACE
  0
BLOCK_RECORD
  5
A89
330
A01
100
AcDbSymbolTableRecord
100
AcDbBlockTableRecord
  2
*DimDia0
  0
BLOCK_RECORD
  5
A91
330
A01
100
AcDbSymbolTableRecord
100
AcDbBlockTableRecord
  2
*DimDia1
  0
BLOCK_RECORD
  5
A99
330
A01
100
AcDbSymbolTableRecord
100
AcDbBlockTableRecord
  2
*DimHeight
  0
ENDTAB
  0
ENDSEC
  0
SECTION
  2
BLOCKS
  0
BLOCK
  5
A04
330
A02
100
AcDbEntity
  8
0
100
AcDbBlockBegin
  2
*MODEL_SPACE
 70
   0
 10
0
 20
0
 30
0
  3
*MODEL_SPACE
  1
 
  0
ENDBLK
  5
A05
330
A02
100
AcDbEntity
  8
0
100
AcDbBlockEnd
  0
BLOCK
  5
A06
330
A03
100
AcDbEntity
 67
1
  8
0
100
AcDbBlockBegin
  2
*PAPER_SPACE
 70
   0
 10
0
 20
0
 30
0
  3
*PAPER_SPACE
  1
 
  0
ENDBLK
  5
A07
330
A03
100
AcDbEntity
 67
    1
  8
0
100
AcDbBlockEnd
  0
BLOCK
  5
A8A
330
A89
100
AcDbEntity
  8
DimDia0
100
AcDbBlockBegin
  2
*DimDia0
 70
   1
 10
0
 20
0
 30
0
  3
*DimDia0
  1
 
  0
LINE
  5
A8B
330
A89
100
AcDbEntity
  8
DimDia0
100
AcDbLine
 10
184.17
 20
119.271
 30
0
 11
143.83
 21
89.7288
 31
0
  0
TEXT
  5
A8C
330
A89
100
AcDbEntity
  8
DimDia0
100
AcDbText
 10
201
 20
137.5
 30
0
 40
3.5
  1
⌀100
  7
STANDARD
 72
1
 11
201
 21
137.5
 31
0
100
AcDbText
  0
SOLID
  5
A8D
330
A89
100
AcDbEntity
  8
0
 62
     0
100
AcDbTrace
 10
180.382
 20
115.981
 30
0
 11
179.889
 21
116.653
 31
0
 12
184.17
 22
119.271
 32
0
 13
184.17
 23
119.271
 33
0
  0
SOLID
  5
A8E
330
A89
100
AcDbEntity
  8
0
 62
     0
100
AcDbTrace
 10
148.111
 20
92.3469
 30
0
 11
147.618
 21
93.0192
 31
0
 12
143.83
 22
89.7288
 32
0
 13
143.83
 23
89.7288
 33
0
  0
ENDBLK
  5
A8F
330
A89
100
AcDbEntity
  8
DimDia0
100
AcDbBlockEnd
  0
BLOCK
  5
A92
330
A91
100
AcDbEntity
  8
DimDia1
100
AcDbBlockBegin
  2
*DimDia1
 70
   1
 10
0
 20
0
 30
0
  3
*DimDia1
  1
 
  0
LINE
  5
A93
330
A91
100
AcDbEntity
  8
DimDia1
100
AcDbLine
 10
153.23
 20
92.8802
 30
0
 11
149.314
 21
90.6639
 31
0
  0
TEXT
  5
A94
330
A91
100
AcDbEntity
  8
DimDia1
100
AcDbText
 10
191.522
 20
120.022
 30
0
 40
3.5
  1
⌀9
  7
STANDARD
 72
1
 11
191.522
 21
120.022
 31
0
100
AcDbText
  0
SOLID
  5
A95
330
A91
100
AcDbEntity
  8
0
 62
     0
100
AcDbTrace
 10
149.084
 20
90.055
 30
0
 11
148.674
 21
90.7803
 31
0
 12
153.23
 22
92.8802
 32
0
 13
153.23
 23
92.8802
 33
0
  0
SOLID
  5
A96
330
A91
100
AcDbEntity
  8
0
 62
     0
100
AcDbTrace
 10
153.871
 20
92.7639
 30
0
 11
153.46
 21
93.4891
 31
0
 12
149.314
 22
90.6639
 32
0
 13
149.314
 23
90.6639
 33
0
  0
ENDBLK
  5
A97
330
A91
100
AcDbEntity
  8
DimDia1
100
AcDbBlockEnd
  0
BLOCK
  5
A9A
330
A99
100
AcDbEntity
  8
DimHeight
100
AcDbBlockBegin
  2
*DimHeight
 70
   1
 10
0
 20
0
 30
0
  3
*DimHeight
  1
 
  0
LINE
  5
A9B
330
A99
100
AcDbEntity
  8
DimHeight
100
AcDbLine
 10
150.25
 20
162.5
 30
0
 11
199.195
 21
162.5
 31
0
  0
LINE
  5
A9C
330
A99
100
AcDbEntity
  8
DimHeight
100
AcDbLine
 10
189
 20
147.5
 30
0
 11
199.195
 21
147.5
 31
0
  0
LINE
  5
A9D
330
A99
100
AcDbEntity
  8
DimHeight
100
AcDbLine
 10
199.195
 20
147.5
 30
0
 11
199.195
 21
162.5
 31
0
  0
TEXT
  5
A9E
330
A99
100
AcDbEntity
  8
DimHeight
100
AcDbText
 10
201
 20
155
 30
0
 40
3.5
  1
30
  7
STANDARD
 72
1
 11
199.195
 21
159.663
 31
0
100
AcDbText
  0
SOLID
  5
A9F
330
A99
100
AcDbEntity
  8
0
 62
     0
100
AcDbTrace
 10
199.612
 20
142.5
 30
0
 11
198.778
 21
142.5
 31
0
 12
199.195
 22
147.5
 32
0
 13
199.195
 23
147.5
 33
0
  0
SOLID
  5
AA0
330
A99
100
AcDbEntity
  8
0
 62
     0
100
AcDbTrace
 10
199.612
 20
167.5
 30
0
 11
198.778
 21
167.5
 31
0
 12
199.195
 22
162.5
 32
0
 13
199.195
 23
162.5
 33
0
  0
ENDBLK
  5
AA1
330
A99
100
AcDbEntity
  8
DimHeight
100
AcDbBlockEnd
  0
ENDSEC
  0
SECTION
  2
ENTITIES
  0
SPLINE
  5
A08
330
A02
100
AcDbEntity
  8
ProjItem
100
AcDbSpline
210
0
220
0
230
1
 70
8
 71
1
 72
17
 73
15
 74
0
 40
3.141592654
 40
3.141592654
 40
3.365992129
 40
3.590391604
 40
3.814791079
 40
4.039190555
 40
4.263590030
 40
4.487989505
 40
4.712388980
 40
4.936788456
 40
5.161187931
 40
5.385587406
 40
5.609986881
 40
5.834386357
 40
6.058785832
 40
6.283185307
 40
6.283185307
 10
139.000000000
 20
153.500000000
 30
0.000000000
 10
139.626802195
 20
153.500000000
 30
0.000000000
 10
141.475778302
 20
153.500000000
 30
0.000000000
 10
144.454212938
 20
153.500000000
 30
0.000000000
 10
148.412754954
 20
153.500000000
 30
0.000000000
 10
153.152906522
 20
153.500000000
 30
0.000000000
 10
158.436976651
 20
153.500000000
 30
0.000000000
 10
164.000000000
 20
153.500000000
 30
0.000000000
 10
169.563023349
 20
153.500000000
 30
0.000000000
 10
174.847093478
 20
153.500000000
 30
0.000000000
 10
179.587245046
 20
153.500000000
 30
0.000000000
 10
183.545787062
 20
153.500000000
 30
0.000000000
 10
186.524221698
 20
153.500000000
 30
0.000000000
 10
188.373197805
 20
153.500000000
 30
0.000000000
 10
189.000000000
 20
153.500000000
 30
0.000000000
  0
LINE
  5
A09
330
A02
100
AcDbEntity
  8
ProjItem
100
AcDbLine
 10
189.000000000
 20
147.500000000
 30
0.000000000
 11
189.000000000
 21
153.500000000
 31
0.000000000
  0
SPLINE
  5
A0A
330
A02
100
AcDbEntity
  8
ProjItem
100
AcDbSpline
210
0
220
0
230
1
 70
8
 71
1
 72
17
 73
15
 74
0
 40
3.141592654
 40
3.141592654
 40
3.365992129
 40
3.590391604
 40
3.814791079
 40
4.039190555
 40
4.263590030
 40
4.487989505
 40
4.712388980
 40
4.936788456
 40
5.161187931
 40
5.385587406
 40
5.609986881
 40
5.834386357
 40
6.058785832
 40
6.283185307
 40
6.283185307
 10
139.000000000
 20
147.500000000
 30
0.000000000
 10
139.626802195
 20
147.500000000
 30
0.000000000
 10
141.475778302
 20
147.500000000
 30
0.000000000
 10
144.454212938
 20
147.500000000
 30
0.000000000
 10
148.412754954
 20
147.500000000
 30
0.000000000
 10
153.152906522
 20
147.500000000
 30
0.000000000
 10
158.436976651
 20
147.500000000
 30
0.000000000
 10
164.000000000
 20
147.500000000
 30
0.000000000
 10
169.563023349
 20
147.500000000
 30
0.000000000
 10
174.847093478
 20
147.500000000
 30
0.000000000
 10
179.587245046
 20
147.500000000
 30
0.000000000
 10
183.545787062
 20
147.500000000
 30
0.000000000
 10
186.524221698
 20
147.500000000
 30
0.000000000
 10
188.373197805
 20
147.500000000
 30
0.000000000
 10
189.000000000
 20
147.500000000
 30
0.000000000
  0
SPLINE
  5
A0B
330
A02
100
AcDbEntity
  8
ProjItem
100
AcDbSpline
210
0
220
0
230
1
 70
8
 71
1
 72
17
 73
15
 74
0
 40
3.141592654
 40
3.141592654
 40
3.365992129
 40
3.590391604
 40
3.814791079
 40
4.039190555
 40
4.263590030
 40
4.487989505
 40
4.712388980
 40
4.936788456
 40
5.161187931
 40
5.385587406
 40
5.609986881
 40
5.834386357
 40
6.058785832
 40
6.283185307
 40
6.283185307
 10
150.250000000
 20
162.500000000
 30
0.000000000
 10
150.594741207
 20
162.500000000
 30
0.000000000
 10
151.611678066
 20
162.500000000
 30
0.000000000
 10
153.249817116
 20
162.500000000
 30
0.000000000
 10
155.427015224
 20
162.500000000
 30
0.000000000
 10
158.034098587
 20
162.500000000
 30
0.000000000
 10
160.940337158
 20
162.500000000
 30
0.000000000
 10
164.000000000
 20
162.500000000
 30
0.000000000
 10
167.059662842
 20
162.500000000
 30
0.000000000
 10
169.965901413
 20
162.500000000
 30
0.000000000
 10
172.572984776
 20
162.500000000
 30
0.000000000
 10
174.750182884
 20
162.500000000
 30
0.000000000
 10
176.388321934
 20
162.500000000
 30
0.000000000
 10
177.405258793
 20
162.500000000
 30
0.000000000
 10
177.750000000
 20
162.500000000
 30
0.000000000
  0
LINE
  5
A0C
330
A02
100
AcDbEntity
  8
ProjItem
100
AcDbLine
 10
177.750000000
 20
153.500000000
 30
0.000000000
 11
177.750000000
 21
162.500000000
 31
0.000000000
  0
LINE
  5
A0D
330
A02
100
AcDbEntity
  8
ProjItem
100
AcDbLine
 10
139.000000000
 20
147.500000000
 30
0.000000000
 11
139.000000000
 21
153.500000000
 31
0.000000000
  0
LINE
  5
A0E
330
A02
100
AcDbEntity
  8
ProjItem
100
AcDbLine
 10
150.250000000
 20
153.500000000
 30
0.000000000
 11
150.250000000
 21
162.500000000
 31
0.000000000
  0
SPLINE
  5
A0F
330
A02
100
AcDbEntity
  8
ProjItem
100
AcDbSpline
210
0
220
0
230
1
 70
8
 71
1
 72
17
 73
15
 74
0
 40
0.000000000
 40
0.000000000
 40
0.224399475
 40
0.448798951
 40
0.673198426
 40
0.897597901
 40
1.121997376
 40
1.346396852
 40
1.570796327
 40
1.795195802
 40
2.019595277
 40
2.243994753
 40
2.468394228
 40
2.692793703
 40
2.917193178
 40
3.141592654
 40
3.141592654
 10
189.000000000
 20
153.500000000
 30
0.000000000
 10
188.373197805
 20
153.500000000
 30
0.000000000
 10
186.524221698
 20
153.500000000
 30
0.000000000
 10
183.545787062
 20
153.500000000
 30
0.000000000
 10
179.587245046
 20
153.500000000
 30
0.000000000
 10
174.847093478
 20
153.500000000
 30
0.000000000
 10
169.563023349
 20
153.500000000
 30
0.000000000
 10
164.000000000
 20
153.500000000
 30
0.000000000
 10
158.436976651
 20
153.500000000
 30
0.000000000
 10
153.152906522
 20
153.500000000
 30
0.000000000
 10
148.412754954
 20
153.500000000
 30
0.000000000
 10
144.454212938
 20
153.500000000
 30
0.000000000
 10
141.475778302
 20
153.500000000
 30
0.000000000
 10
139.626802195
 20
153.500000000
 30
0.000000000
 10
139.000000000
 20
153.500000000
 30
0.000000000
  0
SPLINE
  5
A10
330
A02
100
AcDbEntity
  8
ProjItem
100
AcDbSpline
210
0
220
0
230
1
 70
8
 71
1
 72
17
 73
15
 74
0
 40
0.000000000
 40
0.000000000
 40
0.224399475
 40
0.448798951
 40
0.673198426
 40
0.897597901
 40
1.121997376
 40
1.346396852
 40
1.570796327
 40
1.795195802
 40
2.019595277
 40
2.243994753
 40
2.468394228
 40
2.692793703
 40
2.917193178
 40
3.141592654
 40
3.141592654
 10
189.000000000
 20
147.500000000
 30
0.000000000
 10
188.373197805
 20
147.500000000
 30
0.000000000
 10
186.524221698
 20
147.500000000
 30
0.000000000
 10
183.545787062
 20
147.500000000
 30
0.000000000
 10
179.587245046
 20
147.500000000
 30
0.000000000
 10
174.847093478
 20
147.500000000
 30
0.000000000
 10
169.563023349
 20
147.500000000
 30
0.000000000
 10
164.000000000
 20
147.500000000
 30
0.000000000
 10
158.436976651
 20
147.500000000
 30
0.000000000
 10
153.152906522
 20
147.500000000
 30
0.000000000
 10
148.412754954
 20
147.500000000
 30
0.000000000
 10
144.454212938
 20
147.500000000
 30
0.000000000
 10
141.475778302
 20
147.500000000
 30
0.000000000
 10
139.626802195
 20
147.500000000
 30
0.000000000
 10
139.000000000
 20
147.500000000
 30
0.000000000
  0
SPLINE
  5
A11
330
A02
100
AcDbEntity
  8
ProjItem
100
AcDbSpline
210
0
220
0
230
1
 70
8
 71
1
 72
17
 73
15
 74
0
 40
0.000000000
 40
0.000000000
 40
0.224399475
 40
0.448798951
 40
0.673198426
 40
0.897597901
 40
1.121997376
 40
1.346396852
 40
1.570796327
 40
1.795195802
 40
2.019595277
 40
2.243994753
 40
2.468394228
 40
2.692793703
 40
2.917193178
 40
3.141592654
 40
3.141592654
 10
153.522077939
 20
153.500000000
 30
0.000000000
 10
153.465665741
 20
153.500000000
 30
0.000000000
 10
153.299257891
 20
153.500000000
 30
0.000000000
 10
153.031198774
 20
153.500000000
 30
0.000000000
 10
152.674929993
 20
153.500000000
 30
0.000000000
 10
152.248316352
 20
153.500000000
 30
0.000000000
 10
151.772750040
 20
153.500000000
 30
0.000000000
 10
151.272077939
 20
153.500000000
 30
0.000000000
 10
150.771405837
 20
153.500000000
 30
0.000000000
 10
150.295839526
 20
153.500000000
 30
0.000000000
 10
149.869225884
 20
153.500000000
 30
0.000000000
 10
149.512957103
 20
153.500000000
 30
0.000000000
 10
149.244897986
 20
153.500000000
 30
0.000000000
 10
149.078490136
 20
153.500000000
 30
0.000000000
 10
149.022077939
 20
153.500000000
 30
0.000000000
  0
SPLINE
  5
A12
330
A02
100
AcDbEntity
  8
ProjItem
100
AcDbSpline
210
0
220
0
230
1
 70
8
 71
1
 72
17
 73
15
 74
0
 40
3.141592654
 40
3.141592654
 40
3.365992129
 40
3.590391604
 40
3.814791079
 40
4.039190555
 40
4.263590030
 40
4.487989505
 40
4.712388980
 40
4.936788456
 40
5.161187931
 40
5.385587406
 40
5.609986881
 40
5.834386357
 40
6.058785832
 40
6.283185307
 40
6.283185307
 10
149.022077939
 20
153.500000000
 30
0.000000000
 10
149.078490136
 20
153.500000000
 30
0.000000000
 10
149.244897986
 20
153.500000000
 30
0.000000000
 10
149.512957103
 20
153.500000000
 30
0.000000000
 10
149.869225884
 20
153.500000000
 30
0.000000000
 10
150.295839526
 20
153.500000000
 30
0.000000000
 10
150.771405837
 20
153.500000000
 30
0.000000000
 10
151.272077939
 20
153.500000000
 30
0.000000000
 10
151.772750040
 20
153.500000000
 30
0.000000000
 10
152.248316352
 20
153.500000000
 30
0.000000000
 10
152.674929993
 20
153.500000000
 30
0.000000000
 10
153.031198774
 20
153.500000000
 30
0.000000000
 10
153.299257891
 20
153.500000000
 30
0.000000000
 10
153.465665741
 20
153.500000000
 30
0.000000000
 10
153.522077939
 20
153.500000000
 30
0.000000000
  0
SPLINE
  5
A13
330
A02
100
AcDbEntity
  8
ProjItem
100
AcDbSpline
210
0
220
0
230
1
 70
8
 71
1
 72
17
 73
15
 74
0
 40
0.000000000
 40
0.000000000
 40
0.224399475
 40
0.448798951
 40
0.673198426
 40
0.897597901
 40
1.121997376
 40
1.346396852
 40
1.570796327
 40
1.795195802
 40
2.019595277
 40
2.243994753
 40
2.468394228
 40
2.692793703
 40
2.917193178
 40
3.141592654
 40
3.141592654
 10
178.977922061
 20
153.500000000
 30
0.000000000
 10
178.921509864
 20
153.500000000
 30
0.000000000
 10
178.755102014
 20
153.500000000
 30
0.000000000
 10
178.487042897
 20
153.500000000
 30
0.000000000
 10
178.130774116
 20
153.500000000
 30
0.000000000
 10
177.704160474
 20
153.500000000
 30
0.000000000
 10
177.228594163
 20
153.500000000
 30
0.000000000
 10
176.727922061
 20
153.500000000
 30
0.000000000
 10
176.227249960
 20
153.500000000
 30
0.000000000
 10
175.751683648
 20
153.500000000
 30
0.000000000
 10
175.325070007
 20
153.500000000
 30
0.000000000
 10
174.968801226
 20
153.500000000
 30
0.000000000
 10
174.700742109
 20
153.500000000
 30
0.000000000
 10
174.534334259
 20
153.500000000
 30
0.000000000
 10
174.477922061
 20
153.500000000
 30
0.000000000
  0
SPLINE
  5
A14
330
A02
100
AcDbEntity
  8
ProjItem
100
AcDbSpline
210
0
220
0
230
1
 70
8
 71
1
 72
17
 73
15
 74
0
 40
3.141592654
 40
3.141592654
 40
3.365992129
 40
3.590391604
 40
3.814791079
 40
4.039190555
 40
4.263590030
 40
4.487989505
 40
4.712388980
 40
4.936788456
 40
5.161187931
 40
5.385587406
 40
5.609986881
 40
5.834386357
 40
6.058785832
 40
6.283185307
 40
6.283185307
 10
174.477922061
 20
153.500000000
 30
0.000000000
 10
174.534334259
 20
153.500000000
 30
0.000000000
 10
174.700742109
 20
153.500000000
 30
0.000000000
 10
174.968801226
 20
153.500000000
 30
0.000000000
 10
175.325070007
 20
153.500000000
 30
0.000000000
 10
175.751683648
 20
153.500000000
 30
0.000000000
 10
176.227249960
 20
153.500000000
 30
0.000000000
 10
176.727922061
 20
153.500000000
 30
0.000000000
 10
177.228594163
 20
153.500000000
 30
0.000000000
 10
177.704160474
 20
153.500000000
 30
0.000000000
 10
178.130774116
 20
153.500000000
 30
0.000000000
 10
178.487042897
 20
153.500000000
 30
0.000000000
 10
178.755102014
 20
153.500000000
 30
0.000000000
 10
178.921509864
 20
153.500000000
 30
0.000000000
 10
178.977922061
 20
153.500000000
 30
0.000000000
  0
SPLINE
  5
A15
330
A02
100
AcDbEntity
  8
ProjItem
100
AcDbSpline
210
0
220
0
230
1
 70
8
 71
1
 72
17
 73
15
 74
0
 40
0.000000000
 40
0.000000000
 40
0.224399475
 40
0.448798951
 40
0.673198426
 40
0.897597901
 40
1.121997376
 40
1.346396852
 40
1.570796327
 40
1.795195802
 40
2.019595277
 40
2.243994753
 40
2.468394228
 40
2.692793703
 40
2.917193178
 40
3.141592654
 40
3.141592654
 10
153.522077939
 20
153.500000000
 30
0.000000000
 10
153.465665741
 20
153.500000000
 30
0.000000000
 10
153.299257891
 20
153.500000000
 30
0.000000000
 10
153.031198774
 20
153.500000000
 30
0.000000000
 10
152.674929993
 20
153.500000000
 30
0.000000000
 10
152.248316352
 20
153.500000000
 30
0.000000000
 10
151.772750040
 20
153.500000000
 30
0.000000000
 10
151.272077939
 20
153.500000000
 30
0.000000000
 10
150.771405837
 20
153.500000000
 30
0.000000000
 10
150.295839526
 20
153.500000000
 30
0.000000000
 10
149.869225884
 20
153.500000000
 30
0.000000000
 10
149.512957103
 20
153.500000000
 30
0.000000000
 10
149.244897986
 20
153.500000000
 30
0.000000000
 10
149.078490136
 20
153.500000000
 30
0.000000000
 10
149.022077939
 20
153.500000000
 30
0.000000000
  0
SPLINE
  5
A16
330
A02
100
AcDbEntity
  8
ProjItem
100
AcDbSpline
210
0
220
0
230
1
 70
8
 71
1
 72
17
 73
15
 74
0
 40
3.141592654
 40
3.141592654
 40
3.365992129
 40
3.590391604
 40
3.814791079
 40
4.039190555
 40
4.263590030
 40
4.487989505
 40
4.712388980
 40
4.936788456
 40
5.161187931
 40
5.385587406
 40
5.609986881
 40
5.834386357
 40
6.058785832
 40
6.283185307
 40
6.283185307
 10
149.022077939
 20
153.500000000
 30
0.000000000
 10
149.078490136
 20
153.500000000
 30
0.000000000
 10
149.244897986
 20
153.500000000
 30
0.000000000
 10
149.512957103
 20
153.500000000
 30
0.000000000
 10
149.869225884
 20
153.500000000
 30
0.000000000
 10
150.295839526
 20
153.500000000
 30
0.000000000
 10
150.771405837
 20
153.500000000
 30
0.000000000
 10
151.272077939
 20
153.500000000
 30
0.000000000
 10
151.772750040
 20
153.500000000
 30
0.000000000
 10
152.248316352
 20
153.500000000
 30
0.000000000
 10
152.674929993
 20
153.500000000
 30
0.000000000
 10
153.031198774
 20
153.500000000
 30
0.000000000
 10
153.299257891
 20
153.500000000
 30
0.000000000
 10
153.465665741
 20
153.500000000
 30
0.000000000
 10
153.522077939
 20
153.500000000
 30
0.000000000
  0
SPLINE
  5
A17
330
A02
100
AcDbEntity
  8
ProjItem
100
AcDbSpline
210
0
220
0
230
1
 70
8
 71
1
 72
17
 73
15
 74
0
 40
0.000000000
 40
0.000000000
 40
0.224399475
 40
0.448798951
 40
0.673198426
 40
0.897597901
 40
1.121997376
 40
1.346396852
 40
1.570796327
 40
1.795195802
 40
2.019595277
 40
2.243994753
 40
2.468394228
 40
2.692793703
 40
2.917193178
 40
3.141592654
 40
3.141592654
 10
177.750000000
 20
153.500000000
 30
0.000000000
 10
177.405258793
 20
153.500000000
 30
0.000000000
 10
176.388321934
 20
153.500000000
 30
0.000000000
 10
174.750182884
 20
153.500000000
 30
0.000000000
 10
172.572984776
 20
153.500000000
 30
0.000000000
 10
169.965901413
 20
153.500000000
 30
0.000000000
 10
167.059662842
 20
153.500000000
 30
0.000000000
 10
164.000000000
 20
153.500000000
 30
0.000000000
 10
160.940337158
 20
153.500000000
 30
0.000000000
 10
158.034098587
 20
153.500000000
 30
0.000000000
 10
155.427015224
 20
153.500000000
 30
0.000000000
 10
153.249817116
 20
153.500000000
 30
0.000000000
 10
151.611678066
 20
153.500000000
 30
0.000000000
 10
150.594741207
 20
153.500000000
 30
0.000000000
 10
150.250000000
 20
153.500000000
 30
0.000000000
  0
SPLINE
  5
A18
330
A02
100
AcDbEntity
  8
ProjItem
100
AcDbSpline
210
0
220
0
230
1
 70
8
 71
1
 72
17
 73
15
 74
0
 40
3.141592654
 40
3.141592654
 40
3.365992129
 40
3.590391604
 40
3.814791079
 40
4.039190555
 40
4.263590030
 40
4.487989505
 40
4.712388980
 40
4.936788456
 40
5.161187931
 40
5.385587406
 40
5.609986881
 40
5.834386357
 40
6.058785832
 40
6.283185307
 40
6.283185307
 10
150.250000000
 20
153.500000000
 30
0.000000000
 10
150.594741207
 20
153.500000000
 30
0.000000000
 10
151.611678066
 20
153.500000000
 30
0.000000000
 10
153.249817116
 20
153.500000000
 30
0.000000000
 10
155.427015224
 20
153.500000000
 30
0.000000000
 10
158.034098587
 20
153.500000000
 30
0.000000000
 10
160.940337158
 20
153.500000000
 30
0.000000000
 10
164.000000000
 20
153.500000000
 30
0.000000000
 10
167.059662842
 20
153.500000000
 30
0.000000000
 10
169.965901413
 20
153.500000000
 30
0.000000000
 10
172.572984776
 20
153.500000000
 30
0.000000000
 10
174.750182884
 20
153.500000000
 30
0.000000000
 10
176.388321934
 20
153.500000000
 30
0.000000000
 10
177.405258793
 20
153.500000000
 30
0.000000000
 10
177.750000000
 20
153.500000000
 30
0.000000000
  0
SPLINE
  5
A19
330
A02
100
AcDbEntity
  8
ProjItem
100
AcDbSpline
210
0
220
0
230
1
 70
8
 71
1
 72
17
 73
15
 74
0
 40
0.000000000
 40
0.000000000
 40
0.224399475
 40
0.448798951
 40
0.673198426
 40
0.897597901
 40
1.121997376
 40
1.346396852
 40
1.570796327
 40
1.795195802
 40
2.019595277
 40
2.243994753
 40
2.468394228
 40
2.692793703
 40
2.917193178
 40
3.141592654
 40
3.141592654
 10
178.977922061
 20
153.500000000
 30
0.000000000
 10
178.921509864
 20
153.500000000
 30
0.000000000
 10
178.755102014
 20
153.500000000
 30
0.000000000
 10
178.487042897
 20
153.500000000
 30
0.000000000
 10
178.130774116
 20
153.500000000
 30
0.000000000
 10
177.704160474
 20
153.500000000
 30
0.000000000
 10
177.228594163
 20
153.500000000
 30
0.000000000
 10
176.727922061
 20
153.500000000
 30
0.000000000
 10
176.227249960
 20
153.500000000
 30
0.000000000
 10
175.751683648
 20
153.500000000
 30
0.000000000
 10
175.325070007
 20
153.500000000
 30
0.000000000
 10
174.968801226
 20
153.500000000
 30
0.000000000
 10
174.700742109
 20
153.500000000
 30
0.000000000
 10
174.534334259
 20
153.500000000
 30
0.000000000
 10
174.477922061
 20
153.500000000
 30
0.000000000
  0
SPLINE
  5
A1A
330
A02
100
AcDbEntity
  8
ProjItem
100
AcDbSpline
210
0
220
0
230
1
 70
8
 71
1
 72
17
 73
15
 74
0
 40
3.141592654
 40
3.141592654
 40
3.365992129
 40
3.590391604
 40
3.814791079
 40
4.039190555
 40
4.263590030
 40
4.487989505
 40
4.712388980
 40
4.936788456
 40
5.161187931
 40
5.385587406
 40
5.609986881
 40
5.834386357
 40
6.058785832
 40
6.283185307
 40
6.283185307
 10
174.477922061
 20
153.500000000
 30
0.000000000
 10
174.534334259
 20
153.500000000
 30
0.000000000
 10
174.700742109
 20
153.500000000
 30
0.000000000
 10
174.968801226
 20
153.500000000
 30
0.000000000
 10
175.325070007
 20
153.500000000
 30
0.000000000
 10
175.751683648
 20
153.500000000
 30
0.000000000
 10
176.227249960
 20
153.500000000
 30
0.000000000
 10
176.727922061
 20
153.500000000
 30
0.000000000
 10
177.228594163
 20
153.500000000
 30
0.000000000
 10
177.704160474
 20
153.500000000
 30
0.000000000
 10
178.130774116
 20
153.500000000
 30
0.000000000
 10
178.487042897
 20
153.500000000
 30
0.000000000
 10
178.755102014
 20
153.500000000
 30
0.000000000
 10
178.921509864
 20
153.500000000
 30
0.000000000
 10
178.977922061
 20
153.500000000
 30
0.000000000
  0
SPLINE
  5
A1B
330
A02
100
AcDbEntity
  8
ProjItem
100
AcDbSpline
210
0
220
0
230
1
 70
8
 71
1
 72
17
 73
15
 74
0
 40
0.000000000
 40
0.000000000
 40
0.224399475
 40
0.448798951
 40
0.673198426
 40
0.897597901
 40
1.121997376
 40
1.346396852
 40
1.570796327
 40
1.795195802
 40
2.019595277
 40
2.243994753
 40
2.468394228
 40
2.692793703
 40
2.917193178
 40
3.141592654
 40
3.141592654
 10
153.522077939
 20
147.500000000
 30
0.000000000
 10
153.465665741
 20
147.500000000
 30
0.000000000
 10
153.299257891
 20
147.500000000
 30
0.000000000
 10
153.031198774
 20
147.500000000
 30
0.000000000
 10
152.674929993
 20
147.500000000
 30
0.000000000
 10
152.248316352
 20
147.500000000
 30
0.000000000
 10
151.772750040
 20
147.500000000
 30
0.000000000
 10
151.272077939
 20
147.500000000
 30
0.000000000
 10
150.771405837
 20
147.500000000
 30
0.000000000
 10
150.295839526
 20
147.500000000
 30
0.000000000
 10
149.869225884
 20
147.500000000
 30
0.000000000
 10
149.512957103
 20
147.500000000
 30
0.000000000
 10
149.244897986
 20
147.500000000
 30
0.000000000
 10
149.078490136
 20
147.500000000
 30
0.000000000
 10
149.022077939
 20
147.500000000
 30
0.000000000
  0
SPLINE
  5
A1C
330
A02
100
AcDbEntity
  8
ProjItem
100
AcDbSpline
210
0
220
0
230
1
 70
8
 71
1
 72
17
 73
15
 74
0
 40
3.141592654
 40
3.141592654
 40
3.365992129
 40
3.590391604
 40
3.814791079
 40
4.039190555
 40
4.263590030
 40
4.487989505
 40
4.712388980
 40
4.936788456
 40
5.161187931
 40
5.385587406
 40
5.609986881
 40
5.834386357
 40
6.058785832
 40
6.283185307
 40
6.283185307
 10
149.022077939
 20
147.500000000
 30
0.000000000
 10
149.078490136
 20
147.500000000
 30
0.000000000
 10
149.244897986
 20
147.500000000
 30
0.000000000
 10
149.512957103
 20
147.500000000
 30
0.000000000
 10
149.869225884
 20
147.500000000
 30
0.000000000
 10
150.295839526
 20
147.500000000
 30
0.000000000
 10
150.771405837
 20
147.500000000
 30
0.000000000
 10
151.272077939
 20
147.500000000
 30
0.000000000
 10
151.772750040
 20
147.500000000
 30
0.000000000
 10
152.248316352
 20
147.500000000
 30
0.000000000
 10
152.674929993
 20
147.500000000
 30
0.000000000
 10
153.031198774
 20
147.500000000
 30
0.000000000
 10
153.299257891
 20
147.500000000
 30
0.000000000
 10
153.465665741
 20
147.500000000
 30
0.000000000
 10
153.522077939
 20
147.500000000
 30
0.000000000
  0
SPLINE
  5
A1D
330
A02
100
AcDbEntity
  8
ProjItem
100
AcDbSpline
210
0
220
0
230
1
 70
8
 71
1
 72
17
 73
15
 74
0
 40
0.000000000
 40
0.000000000
 40
0.224399475
 40
0.448798951
 40
0.673198426
 40
0.897597901
 40
1.121997376
 40
1.346396852
 40
1.570796327
 40
1.795195802
 40
2.019595277
 40
2.243994753
 40
2.468394228
 40
2.692793703
 40
2.917193178
 40
3.141592654
 40
3.141592654
 10
178.977922061
 20
147.500000000
 30
0.000000000
 10
178.921509864
 20
147.500000000
 30
0.000000000
 10
178.755102014
 20
147.500000000
 30
0.000000000
 10
178.487042897
 20
147.500000000
 30
0.000000000
 10
178.130774116
 20
147.500000000
 30
0.000000000
 10
177.704160474
 20
147.500000000
 30
0.000000000
 10
177.228594163
 20
147.500000000
 30
0.000000000
 10
176.727922061
 20
147.500000000
 30
0.000000000
 10
176.227249960
 20
147.500000000
 30
0.000000000
 10
175.751683648
 20
147.500000000
 30
0.000000000
 10
175.325070007
 20
147.500000000
 30
0.000000000
 10
174.968801226
 20
147.500000000
 30
0.000000000
 10
174.700742109
 20
147.500000000
 30
0.000000000
 10
174.534334259
 20
147.500000000
 30
0.000000000
 10
174.477922061
 20
147.500000000
 30
0.000000000
  0
SPLINE
  5
A1E
330
A02
100
AcDbEntity
  8
ProjItem
100
AcDbSpline
210
0
220
0
230
1
 70
8
 71
1
 72
17
 73
15
 74
0
 40
3.141592654
 40
3.141592654
 40
3.365992129
 40
3.590391604
 40
3.814791079
 40
4.039190555
 40
4.263590030
 40
4.487989505
 40
4.712388980
 40
4.936788456
 40
5.161187931
 40
5.385587406
 40
5.609986881
 40
5.834386357
 40
6.058785832
 40
6.283185307
 40
6.283185307
 10
174.477922061
 20
147.500000000
 30
0.000000000
 10
174.534334259
 20
147.500000000
 30
0.000000000
 10
174.700742109
 20
147.500000000
 30
0.000000000
 10
174.968801226
 20
147.500000000
 30
0.000000000
 10
175.325070007
 20
147.500000000
 30
0.000000000
 10
175.751683648
 20
147.500000000
 30
0.000000000
 10
176.227249960
 20
147.500000000
 30
0.000000000
 10
176.727922061
 20
147.500000000
 30
0.000000000
 10
177.228594163
 20
147.500000000
 30
0.000000000
 10
177.704160474
 20
147.500000000
 30
0.000000000
 10
178.130774116
 20
147.500000000
 30
0.000000000
 10
178.487042897
 20
147.500000000
 30
0.000000000
 10
178.755102014
 20
147.500000000
 30
0.000000000
 10
178.921509864
 20
147.500000000
 30
0.000000000
 10
178.977922061
 20
147.500000000
 30
0.000000000
  0
SPLINE
  5
A1F
330
A02
100
AcDbEntity
  8
ProjItem
100
AcDbSpline
210
0
220
0
230
1
 70
8
 71
1
 72
17
 73
15
 74
0
 40
0.000000000
 40
0.000000000
 40
0.224399475
 40
0.448798951
 40
0.673198426
 40
0.897597901
 40
1.121997376
 40
1.346396852
 40
1.570796327
 40
1.795195802
 40
2.019595277
 40
2.243994753
 40
2.468394228
 40
2.692793703
 40
2.917193178
 40
3.141592654
 40
3.141592654
 10
153.522077939
 20
147.500000000
 30
0.000000000
 10
153.465665741
 20
147.500000000
 30
0.000000000
 10
153.299257891
 20
147.500000000
 30
0.000000000
 10
153.031198774
 20
147.500000000
 30
0.000000000
 10
152.674929993
 20
147.500000000
 30
0.000000000
 10
152.248316352
 20
147.500000000
 30
0.000000000
 10
151.772750040
 20
147.500000000
 30
0.000000000
 10
151.272077939
 20
147.500000000
 30
0.000000000
 10
150.771405837
 20
147.500000000
 30
0.000000000
 10
150.295839526
 20
147.500000000
 30
0.000000000
 10
149.869225884
 20
147.500000000
 30
0.000000000
 10
149.512957103
 20
147.500000000
 30
0.000000000
 10
149.244897986
 20
147.500000000
 30
0.000000000
 10
149.078490136
 20
147.500000000
 30
0.000000000
 10
149.022077939
 20
147.500000000
 30
0.000000000
  0
SPLINE
  5
A20
330
A02
100
AcDbEntity
  8
ProjItem
100
AcDbSpline
210
0
220
0
230
1
 70
8
 71
1
 72
17
 73
15
 74
0
 40
3.141592654
 40
3.141592654
 40
3.365992129
 40
3.590391604
 40
3.814791079
 40
4.039190555
 40
4.263590030
 40
4.487989505
 40
4.712388980
 40
4.936788456
 40
5.161187931
 40
5.385587406
 40
5.609986881
 40
5.834386357
 40
6.058785832
 40
6.283185307
 40
6.283185307
 10
149.022077939
 20
147.500000000
 30
0.000000000
 10
149.078490136
 20
147.500000000
 30
0.000000000
 10
149.244897986
 20
147.500000000
 30
0.000000000
 10
149.512957103
 20
147.500000000
 30
0.000000000
 10
149.869225884
 20
147.500000000
 30
0.000000000
 10
150.295839526
 20
147.500000000
 30
0.000000000
 10
150.771405837
 20
147.500000000
 30
0.000000000
 10
151.272077939
 20
147.500000000
 30
0.000000000
 10
151.772750040
 20
147.500000000
 30
0.000000000
 10
152.248316352
 20
147.500000000
 30
0.000000000
 10
152.674929993
 20
147.500000000
 30
0.000000000
 10
153.031198774
 20
147.500000000
 30
0.000000000
 10
153.299257891
 20
147.500000000
 30
0.000000000
 10
153.465665741
 20
147.500000000
 30
0.000000000
 10
153.522077939
 20
147.500000000
 30
0.000000000
  0
SPLINE
  5
A21
330
A02
100
AcDbEntity
  8
ProjItem
100
AcDbSpline
210
0
220
0
230
1
 70
8
 71
1
 72
17
 73
15
 74
0
 40
0.000000000
 40
0.000000000
 40
0.224399475
 40
0.448798951
 40
0.673198426
 40
0.897597901
 40
1.121997376
 40
1.346396852
 40
1.570796327
 40
1.795195802
 40
2.019595277
 40
2.243994753
 40
2.468394228
 40
2.692793703
 40
2.917193178
 40
3.141592654
 40
3.141592654
 10
169.000000000
 20
147.500000000
 30
0.000000000
 10
168.874639561
 20
147.500000000
 30
0.000000000
 10
168.504844340
 20
147.500000000
 30
0.000000000
 10
167.909157412
 20
147.500000000
 30
0.000000000
 10
167.117449009
 20
147.500000000
 30
0.000000000
 10
166.169418696
 20
147.500000000
 30
0.000000000
 10
165.112604670
 20
147.500000000
 30
0.000000000
 10
164.000000000
 20
147.500000000
 30
0.000000000
 10
162.887395330
 20
147.500000000
 30
0.000000000
 10
161.830581304
 20
147.500000000
 30
0.000000000
 10
160.882550991
 20
147.500000000
 30
0.000000000
 10
160.090842588
 20
147.500000000
 30
0.000000000
 10
159.495155660
 20
147.500000000
 30
0.000000000
 10
159.125360439
 20
147.500000000
 30
0.000000000
 10
159.000000000
 20
147.500000000
 30
0.000000000
  0
SPLINE
  5
A22
330
A02
100
AcDbEntity
  8
ProjItem
100
AcDbSpline
210
0
220
0
230
1
 70
8
 71
1
 72
17
 73
15
 74
0
 40
3.141592654
 40
3.141592654
 40
3.365992129
 40
3.590391604
 40
3.814791079
 40
4.039190555
 40
4.263590030
 40
4.487989505
 40
4.712388980
 40
4.936788456
 40
5.161187931
 40
5.385587406
 40
5.609986881
 40
5.834386357
 40
6.058785832
 40
6.283185307
 40
6.283185307
 10
159.000000000
 20
147.500000000
 30
0.000000000
 10
159.125360439
 20
147.500000000
 30
0.000000000
 10
159.495155660
 20
147.500000000
 30
0.000000000
 10
160.090842588
 20
147.500000000
 30
0.000000000
 10
160.882550991
 20
147.500000000
 30
0.000000000
 10
161.830581304
 20
147.500000000
 30
0.000000000
 10
162.887395330
 20
147.500000000
 30
0.000000000
 10
164.000000000
 20
147.500000000
 30
0.000000000
 10
165.112604670
 20
147.500000000
 30
0.000000000
 10
166.169418696
 20
147.500000000
 30
0.000000000
 10
167.117449009
 20
147.500000000
 30
0.000000000
 10
167.909157412
 20
147.500000000
 30
0.000000000
 10
168.504844340
 20
147.500000000
 30
0.000000000
 10
168.874639561
 20
147.500000000
 30
0.000000000
 10
169.000000000
 20
147.500000000
 30
0.000000000
  0
SPLINE
  5
A23
330
A02
100
AcDbEntity
  8
ProjItem
100
AcDbSpline
210
0
220
0
230
1
 70
8
 71
1
 72
17
 73
15
 74
0
 40
0.000000000
 40
0.000000000
 40
0.224399475
 40
0.448798951
 40
0.673198426
 40
0.897597901
 40
1.121997376
 40
1.346396852
 40
1.570796327
 40
1.795195802
 40
2.019595277
 40
2.243994753
 40
2.468394228
 40
2.692793703
 40
2.917193178
 40
3.141592654
 40
3.141592654
 10
178.977922061
 20
147.500000000
 30
0.000000000
 10
178.921509864
 20
147.500000000
 30
0.000000000
 10
178.755102014
 20
147.500000000
 30
0.000000000
 10
178.487042897
 20
147.500000000
 30
0.000000000
 10
178.130774116
 20
147.500000000
 30
0.000000000
 10
177.704160474
 20
147.500000000
 30
0.000000000
 10
177.228594163
 20
147.500000000
 30
0.000000000
 10
176.727922061
 20
147.500000000
 30
0.000000000
 10
176.227249960
 20
147.500000000
 30
0.000000000
 10
175.751683648
 20
147.500000000
 30
0.000000000
 10
175.325070007
 20
147.500000000
 30
0.000000000
 10
174.968801226
 20
147.500000000
 30
0.000000000
 10
174.700742109
 20
147.500000000
 30
0.000000000
 10
174.534334259
 20
147.500000000
 30
0.000000000
 10
174.477922061
 20
147.500000000
 30
0.000000000
  0
SPLINE
  5
A24
330
A02
100
AcDbEntity
  8
ProjItem
100
AcDbSpline
210
0
220
0
230
1
 70
8
 71
1
 72
17
 73
15
 74
0
 40
3.141592654
 40
3.141592654
 40
3.365992129
 40
3.590391604
 40
3.814791079
 40
4.039190555
 40
4.263590030
 40
4.487989505
 40
4.712388980
 40
4.936788456
 40
5.161187931
 40
5.385587406
 40
5.609986881
 40
5.834386357
 40
6.058785832
 40
6.283185307
 40
6.283185307
 10
174.477922061
 20
147.500000000
 30
0.000000000
 10
174.534334259
 20
147.500000000
 30
0.000000000
 10
174.700742109
 20
147.500000000
 30
0.000000000
 10
174.968801226
 20
147.500000000
 30
0.000000000
 10
175.325070007
 20
147.500000000
 30
0.000000000
 10
175.751683648
 20
147.500000000
 30
0.000000000
 10
176.227249960
 20
147.500000000
 30
0.000000000
 10
176.727922061
 20
147.500000000
 30
0.000000000
 10
177.228594163
 20
147.500000000
 30
0.000000000
 10
177.704160474
 20
147.500000000
 30
0.000000000
 10
178.130774116
 20
147.500000000
 30
0.000000000
 10
178.487042897
 20
147.500000000
 30
0.000000000
 10
178.755102014
 20
147.500000000
 30
0.000000000
 10
178.921509864
 20
147.500000000
 30
0.000000000
 10
178.977922061
 20
147.500000000
 30
0.000000000
  0
LINE
  5
A25
330
A02
100
AcDbEntity
  8
ProjItem
100
AcDbLine
 10
153.522077939
 20
147.500000000
 30
0.000000000
 11
153.522077939
 21
153.500000000
 31
0.000000000
  0
LINE
  5
A26
330
A02
100
AcDbEntity
  8
ProjItem
100
AcDbLine
 10
178.977922061
 20
147.500000000
 30
0.000000000
 11
178.977922061
 21
153.500000000
 31
0.000000000
  0
LINE
  5
A27
330
A02
100
AcDbEntity
  8
ProjItem
100
AcDbLine
 10
153.522077939
 20
147.500000000
 30
0.000000000
 11
153.522077939
 21
153.500000000
 31
0.000000000
  0
SPLINE
  5
A28
330
A02
100
AcDbEntity
  8
ProjItem
100
AcDbSpline
210
0
220
0
230
1
 70
8
 71
1
 72
17
 73
15
 74
0
 40
0.000000000
 40
0.000000000
 40
0.224399475
 40
0.448798951
 40
0.673198426
 40
0.897597901
 40
1.121997376
 40
1.346396852
 40
1.570796327
 40
1.795195802
 40
2.019595277
 40
2.243994753
 40
2.468394228
 40
2.692793703
 40
2.917193178
 40
3.141592654
 40
3.141592654
 10
177.750000000
 20
162.500000000
 30
0.000000000
 10
177.405258793
 20
162.500000000
 30
0.000000000
 10
176.388321934
 20
162.500000000
 30
0.000000000
 10
174.750182884
 20
162.500000000
 30
0.000000000
 10
172.572984776
 20
162.500000000
 30
0.000000000
 10
169.965901413
 20
162.500000000
 30
0.000000000
 10
167.059662842
 20
162.500000000
 30
0.000000000
 10
164.000000000
 20
162.500000000
 30
0.000000000
 10
160.940337158
 20
162.500000000
 30
0.000000000
 10
158.034098587
 20
162.500000000
 30
0.000000000
 10
155.427015224
 20
162.500000000
 30
0.000000000
 10
153.249817116
 20
162.500000000
 30
0.000000000
 10
151.611678066
 20
162.500000000
 30
0.000000000
 10
150.594741207
 20
162.500000000
 30
0.000000000
 10
150.250000000
 20
162.500000000
 30
0.000000000
  0
LINE
  5
A29
330
A02
100
AcDbEntity
  8
ProjItem
100
AcDbLine
 10
178.977922061
 20
147.500000000
 30
0.000000000
 11
178.977922061
 21
153.500000000
 31
0.000000000
  0
SPLINE
  5
A2A
330
A02
100
AcDbEntity
  8
ProjItem
100
AcDbSpline
210
0
220
0
230
1
 70
8
 71
1
 72
17
 73
15
 74
0
 40
0.000000000
 40
0.000000000
 40
0.224399475
 40
0.448798951
 40
0.673198426
 40
0.897597901
 40
1.121997376
 40
1.346396852
 40
1.570796327
 40
1.795195802
 40
2.019595277
 40
2.243994753
 40
2.468394228
 40
2.692793703
 40
2.917193178
 40
3.141592654
 40
3.141592654
 10
169.000000000
 20
162.500000000
 30
0.000000000
 10
168.874639561
 20
162.500000000
 30
0.000000000
 10
168.504844340
 20
162.500000000
 30
0.000000000
 10
167.909157412
 20
162.500000000
 30
0.000000000
 10
167.117449009
 20
162.500000000
 30
0.000000000
 10
166.169418696
 20
162.500000000
 30
0.000000000
 10
165.112604670
 20
162.500000000
 30
0.000000000
 10
164.000000000
 20
162.500000000
 30
0.000000000
 10
162.887395330
 20
162.500000000
 30
0.000000000
 10
161.830581304
 20
162.500000000
 30
0.000000000
 10
160.882550991
 20
162.500000000
 30
0.000000000
 10
160.090842588
 20
162.500000000
 30
0.000000000
 10
159.495155660
 20
162.500000000
 30
0.000000000
 10
159.125360439
 20
162.500000000
 30
0.000000000
 10
159.000000000
 20
162.500000000
 30
0.000000000
  0
SPLINE
  5
A2B
330
A02
100
AcDbEntity
  8
ProjItem
100
AcDbSpline
210
0
220
0
230
1
 70
8
 71
1
 72
17
 73
15
 74
0
 40
3.141592654
 40
3.141592654
 40
3.365992129
 40
3.590391604
 40
3.814791079
 40
4.039190555
 40
4.263590030
 40
4.487989505
 40
4.712388980
 40
4.936788456
 40
5.161187931
 40
5.385587406
 40
5.609986881
 40
5.834386357
 40
6.058785832
 40
6.283185307
 40
6.283185307
 10
159.000000000
 20
162.500000000
 30
0.000000000
 10
159.125360439
 20
162.500000000
 30
0.000000000
 10
159.495155660
 20
162.500000000
 30
0.000000000
 10
160.090842588
 20
162.500000000
 30
0.000000000
 10
160.882550991
 20
162.500000000
 30
0.000000000
 10
161.830581304
 20
162.500000000
 30
0.000000000
 10
162.887395330
 20
162.500000000
 30
0.000000000
 10
164.000000000
 20
162.500000000
 30
0.000000000
 10
165.112604670
 20
162.500000000
 30
0.000000000
 10
166.169418696
 20
162.500000000
 30
0.000000000
 10
167.117449009
 20
162.500000000
 30
0.000000000
 10
167.909157412
 20
162.500000000
 30
0.000000000
 10
168.504844340
 20
162.500000000
 30
0.000000000
 10
168.874639561
 20
162.500000000
 30
0.000000000
 10
169.000000000
 20
162.500000000
 30
0.000000000
  0
LINE
  5
A2C
330
A02
100
AcDbEntity
  8
ProjItem
100
AcDbLine
 10
169.000000000
 20
147.500000000
 30
0.000000000
 11
169.000000000
 21
162.500000000
 31
0.000000000
  0
LINE
  5
A2D
330
A02
100
AcDbEntity
  8
ProjItem
100
AcDbLine
 10
149.022077939
 20
147.500000000
 30
0.000000000
 11
149.022077939
 21
153.500000000
 31
0.000000000
  0
LINE
  5
A2E
330
A02
100
AcDbEntity
  8
ProjItem
100
AcDbLine
 10
174.477922061
 20
147.500000000
 30
0.000000000
 11
174.477922061
 21
153.500000000
 31
0.000000000
  0
LINE
  5
A2F
330
A02
100
AcDbEntity
  8
ProjItem
100
AcDbLine
 10
149.022077939
 20
147.500000000
 30
0.000000000
 11
149.022077939
 21
153.500000000
 31
0.000000000
  0
LINE
  5
A30
330
A02
100
AcDbEntity
  8
ProjItem
100
AcDbLine
 10
174.477922061
 20
147.500000000
 30
0.000000000
 11
174.477922061
 21
153.500000000
 31
0.000000000
  0
LINE
  5
A31
330
A02
100
AcDbEntity
  8
ProjItem
100
AcDbLine
 10
159.000000000
 20
147.500000000
 30
0.000000000
 11
159.000000000
 21
162.500000000
 31
0.000000000
  0
LINE
  5
A32
330
A02
100
AcDbEntity
  8
ProjItem
100
AcDbLine
 10
164.000000000
 20
147.000000000
 30
0.000000000
 11
164.000000000
 21
163.000000000
 31
0.000000000
  0
LINE
  5
A33
330
A02
100
AcDbEntity
  8
ProjItem
100
AcDbLine
 10
151.272078000
 20
147.000000000
 30
0.000000000
 11
151.272078000
 21
154.000000000
 31
0.000000000
  0
LINE
  5
A34
330
A02
100
AcDbEntity
  8
ProjItem
100
AcDbLine
 10
176.727922000
 20
147.000000000
 30
0.000000000
 11
176.727922000
 21
154.000000000
 31
0.000000000
  0
CIRCLE
  5
A35
330
A02
100
AcDbEntity
  8
ProjItem001
100
AcDbCircle
 10
164.000000000
 20
104.500000000
 30
0.000000000
 40
25.000000000
  0
CIRCLE
  5
A36
330
A02
100
AcDbEntity
  8
ProjItem001
100
AcDbCircle
 10
151.272077939
 20
91.772077939
 30
0.000000000
 40
2.250000000
  0
CIRCLE
  5
A37
330
A02
100
AcDbEntity
  8
ProjItem001
100
AcDbCircle
 10
176.727922061
 20
91.772077939
 30
0.000000000
 40
2.250000000
  0
CIRCLE
  5
A38
330
A02
100
AcDbEntity
  8
ProjItem001
100
AcDbCircle
 10
151.272077939
 20
117.227922061
 30
0.000000000
 40
2.250000000
  0
CIRCLE
  5
A39
330
A02
100
AcDbEntity
  8
ProjItem001
100
AcDbCircle
 10
176.727922061
 20
117.227922061
 30
0.000000000
 40
2.250000000
  0
CIRCLE
  5
A3A
330
A02
100
AcDbEntity
  8
ProjItem001
100
AcDbCircle
 10
164.000000000
 20
104.500000000
 30
0.000000000
 40
13.750000000
  0
CIRCLE
  5
A3B
330
A02
100
AcDbEntity
  8
ProjItem001
100
AcDbCircle
 10
164.000000000
 20
104.500000000
 30
0.000000000
 40
5.000000000
  0
CIRCLE
  5
A3C
330
A02
100
AcDbEntity
  8
ProjItem001
100
AcDbCircle
 10
164.000000000
 20
104.500000000
 30
0.000000000
 40
25.000000000
  0
CIRCLE
  5
A3D
330
A02
100
AcDbEntity
  8
ProjItem001
100
AcDbCircle
 10
164.000000000
 20
104.500000000
 30
0.000000000
 40
13.750000000
  0
CIRCLE
  5
A3E
330
A02
100
AcDbEntity
  8
ProjItem001
100
AcDbCircle
 10
151.272077939
 20
91.772077939
 30
0.000000000
 40
2.250000000
  0
CIRCLE
  5
A3F
330
A02
100
AcDbEntity
  8
ProjItem001
100
AcDbCircle
 10
176.727922061
 20
91.772077939
 30
0.000000000
 40
2.250000000
  0
CIRCLE
  5
A40
330
A02
100
AcDbEntity
  8
ProjItem001
100
AcDbCircle
 10
151.272077939
 20
117.227922061
 30
0.000000000
 40
2.250000000
  0
CIRCLE
  5
A41
330
A02
100
AcDbEntity
  8
ProjItem001
100
AcDbCircle
 10
164.000000000
 20
104.500000000
 30
0.000000000
 40
5.000000000
  0
CIRCLE
  5
A42
330
A02
100
AcDbEntity
  8
ProjItem001
100
AcDbCircle
 10
176.727922061
 20
117.227922061
 30
0.000000000
 40
2.250000000
  0
LINE
  5
A43
330
A02
100
AcDbEntity
  8
ProjItem001
100
AcDbLine
 10
148.459600000
 20
91.772100000
 30
0.000000000
 11
154.084600000
 21
91.772100000
 31
0.000000000
  0
LINE
  5
A44
330
A02
100
AcDbEntity
  8
ProjItem001
100
AcDbLine
 10
151.272100000
 20
88.959600000
 30
0.000000000
 11
151.272100000
 21
94.584600000
 31
0.000000000
  0
LINE
  5
A45
330
A02
100
AcDbEntity
  8
ProjItem001
100
AcDbLine
 10
148.459600000
 20
117.227900000
 30
0.000000000
 11
154.084600000
 21
117.227900000
 31
0.000000000
  0
LINE
  5
A46
330
A02
100
AcDbEntity
  8
ProjItem001
100
AcDbLine
 10
151.272100000
 20
114.415400000
 30
0.000000000
 11
151.272100000
 21
120.040400000
 31
0.000000000
  0
LINE
  5
A47
330
A02
100
AcDbEntity
  8
ProjItem001
100
AcDbLine
 10
137.500000000
 20
104.500000000
 30
0.000000000
 11
190.500000000
 21
104.500000000
 31
0.000000000
  0
LINE
  5
A48
330
A02
100
AcDbEntity
  8
ProjItem001
100
AcDbLine
 10
164.000000000
 20
78.000000000
 30
0.000000000
 11
164.000000000
 21
131.000000000
 31
0.000000000
  0
LINE
  5
A49
330
A02
100
AcDbEntity
  8
ProjItem001
100
AcDbLine
 10
173.915400000
 20
91.772100000
 30
0.000000000
 11
179.540400000
 21
91.772100000
 31
0.000000000
  0
LINE
  5
A4A
330
A02
100
AcDbEntity
  8
ProjItem001
100
AcDbLine
 10
176.727900000
 20
88.959600000
 30
0.000000000
 11
176.727900000
 21
94.584600000
 31
0.000000000
  0
LINE
  5
A4B
330
A02
100
AcDbEntity
  8
ProjItem001
100
AcDbLine
 10
173.915400000
 20
117.227900000
 30
0.000000000
 11
179.540400000
 21
117.227900000
 31
0.000000000
  0
LINE
  5
A4C
330
A02
100
AcDbEntity
  8
ProjItem001
100
AcDbLine
 10
176.727900000
 20
114.415400000
 30
0.000000000
 11
176.727900000
 21
120.040400000
 31
0.000000000
  0
SPLINE
  5
A4D
330
A02
100
AcDbEntity
  8
ProjItem002
100
AcDbSpline
210
0
220
0
230
1
 70
8
 71
1
 72
17
 73
15
 74
0
 40
0.000000000
 40
0.000000000
 40
0.112199738
 40
0.224399475
 40
0.336599213
 40
0.448798951
 40
0.560998688
 40
0.673198426
 40
0.785398163
 40
0.897597901
 40
1.009797639
 40
1.121997376
 40
1.234197114
 40
1.346396852
 40
1.458596589
 40
1.570796327
 40
1.570796327
 10
96.000000000
 20
153.500000000
 30
0.000000000
 10
98.799111903
 20
153.500000000
 30
0.000000000
 10
101.563023349
 20
153.500000000
 30
0.000000000
 10
104.256976549
 20
153.500000000
 30
0.000000000
 10
106.847093478
 20
153.500000000
 30
0.000000000
 10
109.300801913
 20
153.500000000
 30
0.000000000
 10
111.587245046
 20
153.500000000
 30
0.000000000
 10
113.677669530
 20
153.500000000
 30
0.000000000
 10
115.545787062
 20
153.500000000
 30
0.000000000
 10
117.168104981
 20
153.500000000
 30
0.000000000
 10
118.524221698
 20
153.500000000
 30
0.000000000
 10
119.597083258
 20
153.500000000
 30
0.000000000
 10
120.373197805
 20
153.500000000
 30
0.000000000
 10
120.842805247
 20
153.500000000
 30
0.000000000
 10
121.000000000
 20
153.500000000
 30
0.000000000
  0
SPLINE
  5
A4E
330
A02
100
AcDbEntity
  8
ProjItem002
100
AcDbSpline
210
0
220
0
230
1
 70
8
 71
1
 72
17
 73
15
 74
0
 40
4.712388980
 40
4.712388980
 40
4.824588718
 40
4.936788456
 40
5.048988193
 40
5.161187931
 40
5.273387669
 40
5.385587406
 40
5.497787144
 40
5.609986881
 40
5.722186619
 40
5.834386357
 40
5.946586094
 40
6.058785832
 40
6.170985570
 40
6.283185307
 40
6.283185307
 10
71.000000000
 20
153.500000000
 30
0.000000000
 10
71.157194753
 20
153.500000000
 30
0.000000000
 10
71.626802195
 20
153.500000000
 30
0.000000000
 10
72.402916742
 20
153.500000000
 30
0.000000000
 10
73.475778302
 20
153.500000000
 30
0.000000000
 10
74.831895019
 20
153.500000000
 30
0.000000000
 10
76.454212938
 20
153.500000000
 30
0.000000000
 10
78.322330470
 20
153.500000000
 30
0.000000000
 10
80.412754954
 20
153.500000000
 30
0.000000000
 10
82.699198087
 20
153.500000000
 30
0.000000000
 10
85.152906522
 20
153.500000000
 30
0.000000000
 10
87.743023451
 20
153.500000000
 30
0.000000000
 10
90.436976651
 20
153.500000000
 30
0.000000000
 10
93.200888097
 20
153.500000000
 30
0.000000000
 10
96.000000000
 20
153.500000000
 30
0.000000000
  0
SPLINE
  5
A4F
330
A02
100
AcDbEntity
  8
ProjItem002
100
AcDbSpline
210
0
220
0
230
1
 70
8
 71
1
 72
17
 73
15
 74
0
 40
0.000000000
 40
0.000000000
 40
0.112199738
 40
0.224399475
 40
0.336599213
 40
0.448798951
 40
0.560998688
 40
0.673198426
 40
0.785398163
 40
0.897597901
 40
1.009797639
 40
1.121997376
 40
1.234197114
 40
1.346396852
 40
1.458596589
 40
1.570796327
 40
1.570796327
 10
96.000000000
 20
147.500000000
 30
0.000000000
 10
98.799111903
 20
147.500000000
 30
0.000000000
 10
101.563023349
 20
147.500000000
 30
0.000000000
 10
104.256976549
 20
147.500000000
 30
0.000000000
 10
106.847093478
 20
147.500000000
 30
0.000000000
 10
109.300801913
 20
147.500000000
 30
0.000000000
 10
111.587245046
 20
147.500000000
 30
0.000000000
 10
113.677669530
 20
147.500000000
 30
0.000000000
 10
115.545787062
 20
147.500000000
 30
0.000000000
 10
117.168104981
 20
147.500000000
 30
0.000000000
 10
118.524221698
 20
147.500000000
 30
0.000000000
 10
119.597083258
 20
147.500000000
 30
0.000000000
 10
120.373197805
 20
147.500000000
 30
0.000000000
 10
120.842805247
 20
147.500000000
 30
0.000000000
 10
121.000000000
 20
147.500000000
 30
0.000000000
  0
SPLINE
  5
A50
330
A02
100
AcDbEntity
  8
ProjItem002
100
AcDbSpline
210
0
220
0
230
1
 70
8
 71
1
 72
17
 73
15
 74
0
 40
4.712388980
 40
4.712388980
 40
4.824588718
 40
4.936788456
 40
5.048988193
 40
5.161187931
 40
5.273387669
 40
5.385587406
 40
5.497787144
 40
5.609986881
 40
5.722186619
 40
5.834386357
 40
5.946586094
 40
6.058785832
 40
6.170985570
 40
6.283185307
 40
6.283185307
 10
71.000000000
 20
147.500000000
 30
0.000000000
 10
71.157194753
 20
147.500000000
 30
0.000000000
 10
71.626802195
 20
147.500000000
 30
0.000000000
 10
72.402916742
 20
147.500000000
 30
0.000000000
 10
73.475778302
 20
147.500000000
 30
0.000000000
 10
74.831895019
 20
147.500000000
 30
0.000000000
 10
76.454212938
 20
147.500000000
 30
0.000000000
 10
78.322330470
 20
147.500000000
 30
0.000000000
 10
80.412754954
 20
147.500000000
 30
0.000000000
 10
82.699198087
 20
147.500000000
 30
0.000000000
 10
85.152906522
 20
147.500000000
 30
0.000000000
 10
87.743023451
 20
147.500000000
 30
0.000000000
 10
90.436976651
 20
147.500000000
 30
0.000000000
 10
93.200888097
 20
147.500000000
 30
0.000000000
 10
96.000000000
 20
147.500000000
 30
0.000000000
  0
SPLINE
  5
A51
330
A02
100
AcDbEntity
  8
ProjItem002
100
AcDbSpline
210
0
220
0
230
1
 70
8
 71
1
 72
17
 73
15
 74
0
 40
0.000000000
 40
0.000000000
 40
0.112199738
 40
0.224399475
 40
0.336599213
 40
0.448798951
 40
0.560998688
 40
0.673198426
 40
0.785398163
 40
0.897597901
 40
1.009797639
 40
1.121997376
 40
1.234197114
 40
1.346396852
 40
1.458596589
 40
1.570796327
 40
1.570796327
 10
96.000000000
 20
162.500000000
 30
0.000000000
 10
97.539511546
 20
162.500000000
 30
0.000000000
 10
99.059662842
 20
162.500000000
 30
0.000000000
 10
100.541337102
 20
162.500000000
 30
0.000000000
 10
101.965901413
 20
162.500000000
 30
0.000000000
 10
103.315441052
 20
162.500000000
 30
0.000000000
 10
104.572984776
 20
162.500000000
 30
0.000000000
 10
105.722718241
 20
162.500000000
 30
0.000000000
 10
106.750182884
 20
162.500000000
 30
0.000000000
 10
107.642457739
 20
162.500000000
 30
0.000000000
 10
108.388321934
 20
162.500000000
 30
0.000000000
 10
108.978395792
 20
162.500000000
 30
0.000000000
 10
109.405258793
 20
162.500000000
 30
0.000000000
 10
109.663542886
 20
162.500000000
 30
0.000000000
 10
109.750000000
 20
162.500000000
 30
0.000000000
  0
SPLINE
  5
A52
330
A02
100
AcDbEntity
  8
ProjItem002
100
AcDbSpline
210
0
220
0
230
1
 70
8
 71
1
 72
17
 73
15
 74
0
 40
4.712388980
 40
4.712388980
 40
4.824588718
 40
4.936788456
 40
5.048988193
 40
5.161187931
 40
5.273387669
 40
5.385587406
 40
5.497787144
 40
5.609986881
 40
5.722186619
 40
5.834386357
 40
5.946586094
 40
6.058785832
 40
6.170985570
 40
6.283185307
 40
6.283185307
 10
82.250000000
 20
162.500000000
 30
0.000000000
 10
82.336457114
 20
162.500000000
 30
0.000000000
 10
82.594741207
 20
162.500000000
 30
0.000000000
 10
83.021604208
 20
162.500000000
 30
0.000000000
 10
83.611678066
 20
162.500000000
 30
0.000000000
 10
84.357542261
 20
162.500000000
 30
0.000000000
 10
85.249817116
 20
162.500000000
 30
0.000000000
 10
86.277281759
 20
162.500000000
 30
0.000000000
 10
87.427015224
 20
162.500000000
 30
0.000000000
 10
88.684558948
 20
162.500000000
 30
0.000000000
 10
90.034098587
 20
162.500000000
 30
0.000000000
 10
91.458662898
 20
162.500000000
 30
0.000000000
 10
92.940337158
 20
162.500000000
 30
0.000000000
 10
94.460488454
 20
162.500000000
 30
0.000000000
 10
96.000000000
 20
162.500000000
 30
0.000000000
  0
LINE
  5
A53
330
A02
100
AcDbEntity
  8
ProjItem002
100
AcDbLine
 10
121.000000000
 20
147.500000000
 30
0.000000000
 11
121.000000000
 21
153.500000000
 31
0.000000000
  0
LINE
  5
A54
330
A02
100
AcDbEntity
  8
ProjItem002
100
AcDbLine
 10
71.000000000
 20
147.500000000
 30
0.000000000
 11
71.000000000
 21
153.500000000
 31
0.000000000
  0
LINE
  5
A55
330
A02
100
AcDbEntity
  8
ProjItem002
100
AcDbLine
 10
109.750000000
 20
153.500000000
 30
0.000000000
 11
109.750000000
 21
162.500000000
 31
0.000000000
  0
LINE
  5
A56
330
A02
100
AcDbEntity
  8
ProjItem002
100
AcDbLine
 10
82.250000000
 20
153.500000000
 30
0.000000000
 11
82.250000000
 21
162.500000000
 31
0.000000000
  0
SPLINE
  5
A57
330
A02
100
AcDbEntity
  8
ProjItem002
100
AcDbSpline
210
0
220
0
230
1
 70
8
 71
1
 72
17
 73
15
 74
0
 40
1.570796327
 40
1.570796327
 40
1.795195802
 40
2.019595277
 40
2.243994753
 40
2.468394228
 40
2.692793703
 40
2.917193178
 40
3.141592654
 40
3.365992129
 40
3.590391604
 40
3.814791079
 40
4.039190555
 40
4.263590030
 40
4.487989505
 40
4.712388980
 40
4.712388980
 10
121.000000000
 20
153.500000000
 30
0.000000000
 10
120.373197805
 20
153.500000000
 30
0.000000000
 10
118.524221698
 20
153.500000000
 30
0.000000000
 10
115.545787062
 20
153.500000000
 30
0.000000000
 10
111.587245046
 20
153.500000000
 30
0.000000000
 10
106.847093478
 20
153.500000000
 30
0.000000000
 10
101.563023349
 20
153.500000000
 30
0.000000000
 10
96.000000000
 20
153.500000000
 30
0.000000000
 10
90.436976651
 20
153.500000000
 30
0.000000000
 10
85.152906522
 20
153.500000000
 30
0.000000000
 10
80.412754954
 20
153.500000000
 30
0.000000000
 10
76.454212938
 20
153.500000000
 30
0.000000000
 10
73.475778302
 20
153.500000000
 30
0.000000000
 10
71.626802195
 20
153.500000000
 30
0.000000000
 10
71.000000000
 20
153.500000000
 30
0.000000000
  0
SPLINE
  5
A58
330
A02
100
AcDbEntity
  8
ProjItem002
100
AcDbSpline
210
0
220
0
230
1
 70
8
 71
1
 72
17
 73
15
 74
0
 40
1.570796327
 40
1.570796327
 40
1.795195802
 40
2.019595277
 40
2.243994753
 40
2.468394228
 40
2.692793703
 40
2.917193178
 40
3.141592654
 40
3.365992129
 40
3.590391604
 40
3.814791079
 40
4.039190555
 40
4.263590030
 40
4.487989505
 40
4.712388980
 40
4.712388980
 10
121.000000000
 20
147.500000000
 30
0.000000000
 10
120.373197805
 20
147.500000000
 30
0.000000000
 10
118.524221698
 20
147.500000000
 30
0.000000000
 10
115.545787062
 20
147.500000000
 30
0.000000000
 10
111.587245046
 20
147.500000000
 30
0.000000000
 10
106.847093478
 20
147.500000000
 30
0.000000000
 10
101.563023349
 20
147.500000000
 30
0.000000000
 10
96.000000000
 20
147.500000000
 30
0.000000000
 10
90.436976651
 20
147.500000000
 30
0.000000000
 10
85.152906522
 20
147.500000000
 30
0.000000000
 10
80.412754954
 20
147.500000000
 30
0.000000000
 10
76.454212938
 20
147.500000000
 30
0.000000000
 10
73.475778302
 20
147.500000000
 30
0.000000000
 10
71.626802195
 20
147.500000000
 30
0.000000000
 10
71.000000000
 20
147.500000000
 30
0.000000000
  0
SPLINE
  5
A59
330
A02
100
AcDbEntity
  8
ProjItem002
100
AcDbSpline
210
0
220
0
230
1
 70
8
 71
2
 72
30
 73
27
 74
0
 40
0.000000000
 40
0.000000000
 40
0.000000000
 40
0.112199738
 40
0.112199738
 40
0.336599213
 40
0.336599213
 40
0.448798951
 40
0.448798951
 40
0.560998688
 40
0.560998688
 40
0.673198426
 40
0.673198426
 40
0.785398163
 40
0.785398163
 40
0.897597901
 40
0.897597901
 40
1.009797639
 40
1.009797639
 40
1.121997376
 40
1.121997376
 40
1.234197114
 40
1.234197114
 40
1.346396852
 40
1.346396852
 40
1.458596589
 40
1.458596589
 40
1.570796327
 40
1.570796327
 40
1.570796327
 10
83.272077939
 20
153.500000000
 30
0.000000000
 10
83.398037974
 20
153.500000000
 30
0.000000000
 10
83.523998010
 20
153.500000000
 30
0.000000000
 10
83.774515625
 20
153.500000000
 30
0.000000000
 10
84.015205828
 20
153.500000000
 30
0.000000000
 10
84.131761090
 20
153.500000000
 30
0.000000000
 10
84.248316352
 20
153.500000000
 30
0.000000000
 10
84.358733231
 20
153.500000000
 30
0.000000000
 10
84.469150111
 20
153.500000000
 30
0.000000000
 10
84.572040052
 20
153.500000000
 30
0.000000000
 10
84.674929993
 20
153.500000000
 30
0.000000000
 10
84.768999095
 20
153.500000000
 30
0.000000000
 10
84.863068196
 20
153.500000000
 30
0.000000000
 10
84.947133485
 20
153.500000000
 30
0.000000000
 10
85.031198774
 20
153.500000000
 30
0.000000000
 10
85.104203081
 20
153.500000000
 30
0.000000000
 10
85.177207387
 20
153.500000000
 30
0.000000000
 10
85.238232639
 20
153.500000000
 30
0.000000000
 10
85.299257891
 20
153.500000000
 30
0.000000000
 10
85.347536662
 20
153.500000000
 30
0.000000000
 10
85.395815432
 20
153.500000000
 30
0.000000000
 10
85.430740586
 20
153.500000000
 30
0.000000000
 10
85.465665741
 20
153.500000000
 30
0.000000000
 10
85.486798076
 20
153.500000000
 30
0.000000000
 10
85.507930411
 20
153.500000000
 30
0.000000000
 10
85.515004175
 20
153.500000000
 30
0.000000000
 10
85.522077939
 20
153.500000000
 30
0.000000000
  0
SPLINE
  5
A5A
330
A02
100
AcDbEntity
  8
ProjItem002
100
AcDbSpline
210
0
220
0
230
1
 70
8
 71
1
 72
17
 73
15
 74
0
 40
1.570796327
 40
1.570796327
 40
1.795195802
 40
2.019595277
 40
2.243994753
 40
2.468394228
 40
2.692793703
 40
2.917193178
 40
3.141592654
 40
3.365992129
 40
3.590391604
 40
3.814791079
 40
4.039190555
 40
4.263590030
 40
4.487989505
 40
4.712388980
 40
4.712388980
 10
85.522077939
 20
153.500000000
 30
0.000000000
 10
85.465665741
 20
153.500000000
 30
0.000000000
 10
85.299257891
 20
153.500000000
 30
0.000000000
 10
85.031198774
 20
153.500000000
 30
0.000000000
 10
84.674929993
 20
153.500000000
 30
0.000000000
 10
84.248316352
 20
153.500000000
 30
0.000000000
 10
83.772750040
 20
153.500000000
 30
0.000000000
 10
83.272077939
 20
153.500000000
 30
0.000000000
 10
82.771405837
 20
153.500000000
 30
0.000000000
 10
82.295839526
 20
153.500000000
 30
0.000000000
 10
81.869225884
 20
153.500000000
 30
0.000000000
 10
81.512957103
 20
153.500000000
 30
0.000000000
 10
81.244897986
 20
153.500000000
 30
0.000000000
 10
81.078490136
 20
153.500000000
 30
0.000000000
 10
81.022077939
 20
153.500000000
 30
0.000000000
  0
SPLINE
  5
A5B
330
A02
100
AcDbEntity
  8
ProjItem002
100
AcDbSpline
210
0
220
0
230
1
 70
8
 71
2
 72
30
 73
27
 74
0
 40
4.712388980
 40
4.712388980
 40
4.712388980
 40
4.824588718
 40
4.824588718
 40
4.936788456
 40
4.936788456
 40
5.048988193
 40
5.048988193
 40
5.161187931
 40
5.161187931
 40
5.273387669
 40
5.273387669
 40
5.385587406
 40
5.385587406
 40
5.497787144
 40
5.497787144
 40
5.609986881
 40
5.609986881
 40
5.722186619
 40
5.722186619
 40
5.834386357
 40
5.834386357
 40
5.946586094
 40
5.946586094
 40
6.058785832
 40
6.058785832
 40
6.283185307
 40
6.283185307
 40
6.283185307
 10
81.022077939
 20
153.500000000
 30
0.000000000
 10
81.029151703
 20
153.500000000
 30
0.000000000
 10
81.036225466
 20
153.500000000
 30
0.000000000
 10
81.057357801
 20
153.500000000
 30
0.000000000
 10
81.078490136
 20
153.500000000
 30
0.000000000
 10
81.113415291
 20
153.500000000
 30
0.000000000
 10
81.148340445
 20
153.500000000
 30
0.000000000
 10
81.196619216
 20
153.500000000
 30
0.000000000
 10
81.244897986
 20
153.500000000
 30
0.000000000
 10
81.305923238
 20
153.500000000
 30
0.000000000
 10
81.366948490
 20
153.500000000
 30
0.000000000
 10
81.439952797
 20
153.500000000
 30
0.000000000
 10
81.512957103
 20
153.500000000
 30
0.000000000
 10
81.597022392
 20
153.500000000
 30
0.000000000
 10
81.681087681
 20
153.500000000
 30
0.000000000
 10
81.775156783
 20
153.500000000
 30
0.000000000
 10
81.869225884
 20
153.500000000
 30
0.000000000
 10
81.972115825
 20
153.500000000
 30
0.000000000
 10
82.075005766
 20
153.500000000
 30
0.000000000
 10
82.185422646
 20
153.500000000
 30
0.000000000
 10
82.295839526
 20
153.500000000
 30
0.000000000
 10
82.412394787
 20
153.500000000
 30
0.000000000
 10
82.528950049
 20
153.500000000
 30
0.000000000
 10
82.650177943
 20
153.500000000
 30
0.000000000
 10
82.771405837
 20
153.500000000
 30
0.000000000
 10
83.019269489
 20
153.500000000
 30
0.000000000
 10
83.272077939
 20
153.500000000
 30
0.000000000
  0
SPLINE
  5
A5C
330
A02
100
AcDbEntity
  8
ProjItem002
100
AcDbSpline
210
0
220
0
230
1
 70
8
 71
2
 72
30
 73
27
 74
0
 40
0.000000000
 40
0.000000000
 40
0.000000000
 40
0.112199738
 40
0.112199738
 40
0.336599213
 40
0.336599213
 40
0.448798951
 40
0.448798951
 40
0.560998688
 40
0.560998688
 40
0.673198426
 40
0.673198426
 40
0.785398163
 40
0.785398163
 40
0.897597901
 40
0.897597901
 40
1.009797639
 40
1.009797639
 40
1.121997376
 40
1.121997376
 40
1.234197114
 40
1.234197114
 40
1.346396852
 40
1.346396852
 40
1.458596589
 40
1.458596589
 40
1.570796327
 40
1.570796327
 40
1.570796327
 10
83.272077939
 20
153.500000000
 30
0.000000000
 10
83.398037974
 20
153.500000000
 30
0.000000000
 10
83.523998010
 20
153.500000000
 30
0.000000000
 10
83.774515625
 20
153.500000000
 30
0.000000000
 10
84.015205828
 20
153.500000000
 30
0.000000000
 10
84.131761090
 20
153.500000000
 30
0.000000000
 10
84.248316352
 20
153.500000000
 30
0.000000000
 10
84.358733231
 20
153.500000000
 30
0.000000000
 10
84.469150111
 20
153.500000000
 30
0.000000000
 10
84.572040052
 20
153.500000000
 30
0.000000000
 10
84.674929993
 20
153.500000000
 30
0.000000000
 10
84.768999095
 20
153.500000000
 30
0.000000000
 10
84.863068196
 20
153.500000000
 30
0.000000000
 10
84.947133485
 20
153.500000000
 30
0.000000000
 10
85.031198774
 20
153.500000000
 30
0.000000000
 10
85.104203081
 20
153.500000000
 30
0.000000000
 10
85.177207387
 20
153.500000000
 30
0.000000000
 10
85.238232639
 20
153.500000000
 30
0.000000000
 10
85.299257891
 20
153.500000000
 30
0.000000000
 10
85.347536662
 20
153.500000000
 30
0.000000000
 10
85.395815432
 20
153.500000000
 30
0.000000000
 10
85.430740586
 20
153.500000000
 30
0.000000000
 10
85.465665741
 20
153.500000000
 30
0.000000000
 10
85.486798076
 20
153.500000000
 30
0.000000000
 10
85.507930411
 20
153.500000000
 30
0.000000000
 10
85.515004175
 20
153.500000000
 30
0.000000000
 10
85.522077939
 20
153.500000000
 30
0.000000000
  0
SPLINE
  5
A5D
330
A02
100
AcDbEntity
  8
ProjItem002
100
AcDbSpline
210
0
220
0
230
1
 70
8
 71
1
 72
17
 73
15
 74
0
 40
1.570796327
 40
1.570796327
 40
1.795195802
 40
2.019595277
 40
2.243994753
 40
2.468394228
 40
2.692793703
 40
2.917193178
 40
3.141592654
 40
3.365992129
 40
3.590391604
 40
3.814791079
 40
4.039190555
 40
4.263590030
 40
4.487989505
 40
4.712388980
 40
4.712388980
 10
85.522077939
 20
153.500000000
 30
0.000000000
 10
85.465665741
 20
153.500000000
 30
0.000000000
 10
85.299257891
 20
153.500000000
 30
0.000000000
 10
85.031198774
 20
153.500000000
 30
0.000000000
 10
84.674929993
 20
153.500000000
 30
0.000000000
 10
84.248316352
 20
153.500000000
 30
0.000000000
 10
83.772750040
 20
153.500000000
 30
0.000000000
 10
83.272077939
 20
153.500000000
 30
0.000000000
 10
82.771405837
 20
153.500000000
 30
0.000000000
 10
82.295839526
 20
153.500000000
 30
0.000000000
 10
81.869225884
 20
153.500000000
 30
0.000000000
 10
81.512957103
 20
153.500000000
 30
0.000000000
 10
81.244897986
 20
153.500000000
 30
0.000000000
 10
81.078490136
 20
153.500000000
 30
0.000000000
 10
81.022077939
 20
153.500000000
 30
0.000000000
  0
SPLINE
  5
A5E
330
A02
100
AcDbEntity
  8
ProjItem002
100
AcDbSpline
210
0
220
0
230
1
 70
8
 71
2
 72
30
 73
27
 74
0
 40
4.712388980
 40
4.712388980
 40
4.712388980
 40
4.824588718
 40
4.824588718
 40
4.936788456
 40
4.936788456
 40
5.048988193
 40
5.048988193
 40
5.161187931
 40
5.161187931
 40
5.273387669
 40
5.273387669
 40
5.385587406
 40
5.385587406
 40
5.497787144
 40
5.497787144
 40
5.609986881
 40
5.609986881
 40
5.722186619
 40
5.722186619
 40
5.834386357
 40
5.834386357
 40
5.946586094
 40
5.946586094
 40
6.058785832
 40
6.058785832
 40
6.283185307
 40
6.283185307
 40
6.283185307
 10
81.022077939
 20
153.500000000
 30
0.000000000
 10
81.029151703
 20
153.500000000
 30
0.000000000
 10
81.036225466
 20
153.500000000
 30
0.000000000
 10
81.057357801
 20
153.500000000
 30
0.000000000
 10
81.078490136
 20
153.500000000
 30
0.000000000
 10
81.113415291
 20
153.500000000
 30
0.000000000
 10
81.148340445
 20
153.500000000
 30
0.000000000
 10
81.196619216
 20
153.500000000
 30
0.000000000
 10
81.244897986
 20
153.500000000
 30
0.000000000
 10
81.305923238
 20
153.500000000
 30
0.000000000
 10
81.366948490
 20
153.500000000
 30
0.000000000
 10
81.439952797
 20
153.500000000
 30
0.000000000
 10
81.512957103
 20
153.500000000
 30
0.000000000
 10
81.597022392
 20
153.500000000
 30
0.000000000
 10
81.681087681
 20
153.500000000
 30
0.000000000
 10
81.775156783
 20
153.500000000
 30
0.000000000
 10
81.869225884
 20
153.500000000
 30
0.000000000
 10
81.972115825
 20
153.500000000
 30
0.000000000
 10
82.075005766
 20
153.500000000
 30
0.000000000
 10
82.185422646
 20
153.500000000
 30
0.000000000
 10
82.295839526
 20
153.500000000
 30
0.000000000
 10
82.412394787
 20
153.500000000
 30
0.000000000
 10
82.528950049
 20
153.500000000
 30
0.000000000
 10
82.650177943
 20
153.500000000
 30
0.000000000
 10
82.771405837
 20
153.500000000
 30
0.000000000
 10
83.019269489
 20
153.500000000
 30
0.000000000
 10
83.272077939
 20
153.500000000
 30
0.000000000
  0
SPLINE
  5
A5F
330
A02
100
AcDbEntity
  8
ProjItem002
100
AcDbSpline
210
0
220
0
230
1
 70
8
 71
2
 72
30
 73
27
 74
0
 40
0.000000000
 40
0.000000000
 40
0.000000000
 40
0.112199738
 40
0.112199738
 40
0.336599213
 40
0.336599213
 40
0.448798951
 40
0.448798951
 40
0.560998688
 40
0.560998688
 40
0.673198426
 40
0.673198426
 40
0.785398163
 40
0.785398163
 40
0.897597901
 40
0.897597901
 40
1.009797639
 40
1.009797639
 40
1.121997376
 40
1.121997376
 40
1.234197114
 40
1.234197114
 40
1.346396852
 40
1.346396852
 40
1.458596589
 40
1.458596589
 40
1.570796327
 40
1.570796327
 40
1.570796327
 10
108.727922061
 20
153.500000000
 30
0.000000000
 10
108.853882097
 20
153.500000000
 30
0.000000000
 10
108.979842133
 20
153.500000000
 30
0.000000000
 10
109.230359747
 20
153.500000000
 30
0.000000000
 10
109.471049951
 20
153.500000000
 30
0.000000000
 10
109.587605213
 20
153.500000000
 30
0.000000000
 10
109.704160474
 20
153.500000000
 30
0.000000000
 10
109.814577354
 20
153.500000000
 30
0.000000000
 10
109.924994234
 20
153.500000000
 30
0.000000000
 10
110.027884175
 20
153.500000000
 30
0.000000000
 10
110.130774116
 20
153.500000000
 30
0.000000000
 10
110.224843217
 20
153.500000000
 30
0.000000000
 10
110.318912319
 20
153.500000000
 30
0.000000000
 10
110.402977608
 20
153.500000000
 30
0.000000000
 10
110.487042897
 20
153.500000000
 30
0.000000000
 10
110.560047203
 20
153.500000000
 30
0.000000000
 10
110.633051510
 20
153.500000000
 30
0.000000000
 10
110.694076762
 20
153.500000000
 30
0.000000000
 10
110.755102014
 20
153.500000000
 30
0.000000000
 10
110.803380784
 20
153.500000000
 30
0.000000000
 10
110.851659555
 20
153.500000000
 30
0.000000000
 10
110.886584709
 20
153.500000000
 30
0.000000000
 10
110.921509864
 20
153.500000000
 30
0.000000000
 10
110.942642199
 20
153.500000000
 30
0.000000000
 10
110.963774534
 20
153.500000000
 30
0.000000000
 10
110.970848297
 20
153.500000000
 30
0.000000000
 10
110.977922061
 20
153.500000000
 30
0.000000000
  0
SPLINE
  5
A60
330
A02
100
AcDbEntity
  8
ProjItem002
100
AcDbSpline
210
0
220
0
230
1
 70
8
 71
1
 72
17
 73
15
 74
0
 40
1.570796327
 40
1.570796327
 40
1.795195802
 40
2.019595277
 40
2.243994753
 40
2.468394228
 40
2.692793703
 40
2.917193178
 40
3.141592654
 40
3.365992129
 40
3.590391604
 40
3.814791079
 40
4.039190555
 40
4.263590030
 40
4.487989505
 40
4.712388980
 40
4.712388980
 10
110.977922061
 20
153.500000000
 30
0.000000000
 10
110.921509864
 20
153.500000000
 30
0.000000000
 10
110.755102014
 20
153.500000000
 30
0.000000000
 10
110.487042897
 20
153.500000000
 30
0.000000000
 10
110.130774116
 20
153.500000000
 30
0.000000000
 10
109.704160474
 20
153.500000000
 30
0.000000000
 10
109.228594163
 20
153.500000000
 30
0.000000000
 10
108.727922061
 20
153.500000000
 30
0.000000000
 10
108.227249960
 20
153.500000000
 30
0.000000000
 10
107.751683648
 20
153.500000000
 30
0.000000000
 10
107.325070007
 20
153.500000000
 30
0.000000000
 10
106.968801226
 20
153.500000000
 30
0.000000000
 10
106.700742109
 20
153.500000000
 30
0.000000000
 10
106.534334259
 20
153.500000000
 30
0.000000000
 10
106.477922061
 20
153.500000000
 30
0.000000000
  0
SPLINE
  5
A61
330
A02
100
AcDbEntity
  8
ProjItem002
100
AcDbSpline
210
0
220
0
230
1
 70
8
 71
2
 72
30
 73
27
 74
0
 40
4.712388980
 40
4.712388980
 40
4.712388980
 40
4.824588718
 40
4.824588718
 40
4.936788456
 40
4.936788456
 40
5.048988193
 40
5.048988193
 40
5.161187931
 40
5.161187931
 40
5.273387669
 40
5.273387669
 40
5.385587406
 40
5.385587406
 40
5.497787144
 40
5.497787144
 40
5.609986881
 40
5.609986881
 40
5.722186619
 40
5.722186619
 40
5.834386357
 40
5.834386357
 40
5.946586094
 40
5.946586094
 40
6.058785832
 40
6.058785832
 40
6.283185307
 40
6.283185307
 40
6.283185307
 10
106.477922061
 20
153.500000000
 30
0.000000000
 10
106.484995825
 20
153.500000000
 30
0.000000000
 10
106.492069589
 20
153.500000000
 30
0.000000000
 10
106.513201924
 20
153.500000000
 30
0.000000000
 10
106.534334259
 20
153.500000000
 30
0.000000000
 10
106.569259414
 20
153.500000000
 30
0.000000000
 10
106.604184568
 20
153.500000000
 30
0.000000000
 10
106.652463338
 20
153.500000000
 30
0.000000000
 10
106.700742109
 20
153.500000000
 30
0.000000000
 10
106.761767361
 20
153.500000000
 30
0.000000000
 10
106.822792613
 20
153.500000000
 30
0.000000000
 10
106.895796919
 20
153.500000000
 30
0.000000000
 10
106.968801226
 20
153.500000000
 30
0.000000000
 10
107.052866515
 20
153.500000000
 30
0.000000000
 10
107.136931804
 20
153.500000000
 30
0.000000000
 10
107.231000905
 20
153.500000000
 30
0.000000000
 10
107.325070007
 20
153.500000000
 30
0.000000000
 10
107.427959948
 20
153.500000000
 30
0.000000000
 10
107.530849889
 20
153.500000000
 30
0.000000000
 10
107.641266769
 20
153.500000000
 30
0.000000000
 10
107.751683648
 20
153.500000000
 30
0.000000000
 10
107.868238910
 20
153.500000000
 30
0.000000000
 10
107.984794172
 20
153.500000000
 30
0.000000000
 10
108.106022066
 20
153.500000000
 30
0.000000000
 10
108.227249960
 20
153.500000000
 30
0.000000000
 10
108.475113612
 20
153.500000000
 30
0.000000000
 10
108.727922061
 20
153.500000000
 30
0.000000000
  0
SPLINE
  5
A62
330
A02
100
AcDbEntity
  8
ProjItem002
100
AcDbSpline
210
0
220
0
230
1
 70
8
 71
1
 72
17
 73
15
 74
0
 40
0.000000000
 40
0.000000000
 40
0.112199738
 40
0.224399475
 40
0.336599213
 40
0.448798951
 40
0.560998688
 40
0.673198426
 40
0.785398163
 40
0.897597901
 40
1.009797639
 40
1.121997376
 40
1.234197114
 40
1.346396852
 40
1.458596589
 40
1.570796327
 40
1.570796327
 10
96.000000000
 20
153.500000000
 30
0.000000000
 10
97.539511546
 20
153.500000000
 30
0.000000000
 10
99.059662842
 20
153.500000000
 30
0.000000000
 10
100.541337102
 20
153.500000000
 30
0.000000000
 10
101.965901413
 20
153.500000000
 30
0.000000000
 10
103.315441052
 20
153.500000000
 30
0.000000000
 10
104.572984776
 20
153.500000000
 30
0.000000000
 10
105.722718241
 20
153.500000000
 30
0.000000000
 10
106.750182884
 20
153.500000000
 30
0.000000000
 10
107.642457739
 20
153.500000000
 30
0.000000000
 10
108.388321934
 20
153.500000000
 30
0.000000000
 10
108.978395792
 20
153.500000000
 30
0.000000000
 10
109.405258793
 20
153.500000000
 30
0.000000000
 10
109.663542886
 20
153.500000000
 30
0.000000000
 10
109.750000000
 20
153.500000000
 30
0.000000000
  0
SPLINE
  5
A63
330
A02
100
AcDbEntity
  8
ProjItem002
100
AcDbSpline
210
0
220
0
230
1
 70
8
 71
1
 72
17
 73
15
 74
0
 40
1.570796327
 40
1.570796327
 40
1.795195802
 40
2.019595277
 40
2.243994753
 40
2.468394228
 40
2.692793703
 40
2.917193178
 40
3.141592654
 40
3.365992129
 40
3.590391604
 40
3.814791079
 40
4.039190555
 40
4.263590030
 40
4.487989505
 40
4.712388980
 40
4.712388980
 10
109.750000000
 20
153.500000000
 30
0.000000000
 10
109.405258793
 20
153.500000000
 30
0.000000000
 10
108.388321934
 20
153.500000000
 30
0.000000000
 10
106.750182884
 20
153.500000000
 30
0.000000000
 10
104.572984776
 20
153.500000000
 30
0.000000000
 10
101.965901413
 20
153.500000000
 30
0.000000000
 10
99.059662842
 20
153.500000000
 30
0.000000000
 10
96.000000000
 20
153.500000000
 30
0.000000000
 10
92.940337158
 20
153.500000000
 30
0.000000000
 10
90.034098587
 20
153.500000000
 30
0.000000000
 10
87.427015224
 20
153.500000000
 30
0.000000000
 10
85.249817116
 20
153.500000000
 30
0.000000000
 10
83.611678066
 20
153.500000000
 30
0.000000000
 10
82.594741207
 20
153.500000000
 30
0.000000000
 10
82.250000000
 20
153.500000000
 30
0.000000000
  0
SPLINE
  5
A64
330
A02
100
AcDbEntity
  8
ProjItem002
100
AcDbSpline
210
0
220
0
230
1
 70
8
 71
1
 72
17
 73
15
 74
0
 40
4.712388980
 40
4.712388980
 40
4.824588718
 40
4.936788456
 40
5.048988193
 40
5.161187931
 40
5.273387669
 40
5.385587406
 40
5.497787144
 40
5.609986881
 40
5.722186619
 40
5.834386357
 40
5.946586094
 40
6.058785832
 40
6.170985570
 40
6.283185307
 40
6.283185307
 10
82.250000000
 20
153.500000000
 30
0.000000000
 10
82.336457114
 20
153.500000000
 30
0.000000000
 10
82.594741207
 20
153.500000000
 30
0.000000000
 10
83.021604208
 20
153.500000000
 30
0.000000000
 10
83.611678066
 20
153.500000000
 30
0.000000000
 10
84.357542261
 20
153.500000000
 30
0.000000000
 10
85.249817116
 20
153.500000000
 30
0.000000000
 10
86.277281759
 20
153.500000000
 30
0.000000000
 10
87.427015224
 20
153.500000000
 30
0.000000000
 10
88.684558948
 20
153.500000000
 30
0.000000000
 10
90.034098587
 20
153.500000000
 30
0.000000000
 10
91.458662898
 20
153.500000000
 30
0.000000000
 10
92.940337158
 20
153.500000000
 30
0.000000000
 10
94.460488454
 20
153.500000000
 30
0.000000000
 10
96.000000000
 20
153.500000000
 30
0.000000000
  0
SPLINE
  5
A65
330
A02
100
AcDbEntity
  8
ProjItem002
100
AcDbSpline
210
0
220
0
230
1
 70
8
 71
2
 72
30
 73
27
 74
0
 40
0.000000000
 40
0.000000000
 40
0.000000000
 40
0.112199738
 40
0.112199738
 40
0.336599213
 40
0.336599213
 40
0.448798951
 40
0.448798951
 40
0.560998688
 40
0.560998688
 40
0.673198426
 40
0.673198426
 40
0.785398163
 40
0.785398163
 40
0.897597901
 40
0.897597901
 40
1.009797639
 40
1.009797639
 40
1.121997376
 40
1.121997376
 40
1.234197114
 40
1.234197114
 40
1.346396852
 40
1.346396852
 40
1.458596589
 40
1.458596589
 40
1.570796327
 40
1.570796327
 40
1.570796327
 10
108.727922061
 20
153.500000000
 30
0.000000000
 10
108.853882097
 20
153.500000000
 30
0.000000000
 10
108.979842133
 20
153.500000000
 30
0.000000000
 10
109.230359747
 20
153.500000000
 30
0.000000000
 10
109.471049951
 20
153.500000000
 30
0.000000000
 10
109.587605213
 20
153.500000000
 30
0.000000000
 10
109.704160474
 20
153.500000000
 30
0.000000000
 10
109.814577354
 20
153.500000000
 30
0.000000000
 10
109.924994234
 20
153.500000000
 30
0.000000000
 10
110.027884175
 20
153.500000000
 30
0.000000000
 10
110.130774116
 20
153.500000000
 30
0.000000000
 10
110.224843217
 20
153.500000000
 30
0.000000000
 10
110.318912319
 20
153.500000000
 30
0.000000000
 10
110.402977608
 20
153.500000000
 30
0.000000000
 10
110.487042897
 20
153.500000000
 30
0.000000000
 10
110.560047203
 20
153.500000000
 30
0.000000000
 10
110.633051510
 20
153.500000000
 30
0.000000000
 10
110.694076762
 20
153.500000000
 30
0.000000000
 10
110.755102014
 20
153.500000000
 30
0.000000000
 10
110.803380784
 20
153.500000000
 30
0.000000000
 10
110.851659555
 20
153.500000000
 30
0.000000000
 10
110.886584709
 20
153.500000000
 30
0.000000000
 10
110.921509864
 20
153.500000000
 30
0.000000000
 10
110.942642199
 20
153.500000000
 30
0.000000000
 10
110.963774534
 20
153.500000000
 30
0.000000000
 10
110.970848297
 20
153.500000000
 30
0.000000000
 10
110.977922061
 20
153.500000000
 30
0.000000000
  0
SPLINE
  5
A66
330
A02
100
AcDbEntity
  8
ProjItem002
100
AcDbSpline
210
0
220
0
230
1
 70
8
 71
1
 72
17
 73
15
 74
0
 40
1.570796327
 40
1.570796327
 40
1.795195802
 40
2.019595277
 40
2.243994753
 40
2.468394228
 40
2.692793703
 40
2.917193178
 40
3.141592654
 40
3.365992129
 40
3.590391604
 40
3.814791079
 40
4.039190555
 40
4.263590030
 40
4.487989505
 40
4.712388980
 40
4.712388980
 10
110.977922061
 20
153.500000000
 30
0.000000000
 10
110.921509864
 20
153.500000000
 30
0.000000000
 10
110.755102014
 20
153.500000000
 30
0.000000000
 10
110.487042897
 20
153.500000000
 30
0.000000000
 10
110.130774116
 20
153.500000000
 30
0.000000000
 10
109.704160474
 20
153.500000000
 30
0.000000000
 10
109.228594163
 20
153.500000000
 30
0.000000000
 10
108.727922061
 20
153.500000000
 30
0.000000000
 10
108.227249960
 20
153.500000000
 30
0.000000000
 10
107.751683648
 20
153.500000000
 30
0.000000000
 10
107.325070007
 20
153.500000000
 30
0.000000000
 10
106.968801226
 20
153.500000000
 30
0.000000000
 10
106.700742109
 20
153.500000000
 30
0.000000000
 10
106.534334259
 20
153.500000000
 30
0.000000000
 10
106.477922061
 20
153.500000000
 30
0.000000000
  0
SPLINE
  5
A67
330
A02
100
AcDbEntity
  8
ProjItem002
100
AcDbSpline
210
0
220
0
230
1
 70
8
 71
2
 72
30
 73
27
 74
0
 40
4.712388980
 40
4.712388980
 40
4.712388980
 40
4.824588718
 40
4.824588718
 40
4.936788456
 40
4.936788456
 40
5.048988193
 40
5.048988193
 40
5.161187931
 40
5.161187931
 40
5.273387669
 40
5.273387669
 40
5.385587406
 40
5.385587406
 40
5.497787144
 40
5.497787144
 40
5.609986881
 40
5.609986881
 40
5.722186619
 40
5.722186619
 40
5.834386357
 40
5.834386357
 40
5.946586094
 40
5.946586094
 40
6.058785832
 40
6.058785832
 40
6.283185307
 40
6.283185307
 40
6.283185307
 10
106.477922061
 20
153.500000000
 30
0.000000000
 10
106.484995825
 20
153.500000000
 30
0.000000000
 10
106.492069589
 20
153.500000000
 30
0.000000000
 10
106.513201924
 20
153.500000000
 30
0.000000000
 10
106.534334259
 20
153.500000000
 30
0.000000000
 10
106.569259414
 20
153.500000000
 30
0.000000000
 10
106.604184568
 20
153.500000000
 30
0.000000000
 10
106.652463338
 20
153.500000000
 30
0.000000000
 10
106.700742109
 20
153.500000000
 30
0.000000000
 10
106.761767361
 20
153.500000000
 30
0.000000000
 10
106.822792613
 20
153.500000000
 30
0.000000000
 10
106.895796919
 20
153.500000000
 30
0.000000000
 10
106.968801226
 20
153.500000000
 30
0.000000000
 10
107.052866515
 20
153.500000000
 30
0.000000000
 10
107.136931804
 20
153.500000000
 30
0.000000000
 10
107.231000905
 20
153.500000000
 30
0.000000000
 10
107.325070007
 20
153.500000000
 30
0.000000000
 10
107.427959948
 20
153.500000000
 30
0.000000000
 10
107.530849889
 20
153.500000000
 30
0.000000000
 10
107.641266769
 20
153.500000000
 30
0.000000000
 10
107.751683648
 20
153.500000000
 30
0.000000000
 10
107.868238910
 20
153.500000000
 30
0.000000000
 10
107.984794172
 20
153.500000000
 30
0.000000000
 10
108.106022066
 20
153.500000000
 30
0.000000000
 10
108.227249960
 20
153.500000000
 30
0.000000000
 10
108.475113612
 20
153.500000000
 30
0.000000000
 10
108.727922061
 20
153.500000000
 30
0.000000000
  0
SPLINE
  5
A68
330
A02
100
AcDbEntity
  8
ProjItem002
100
AcDbSpline
210
0
220
0
230
1
 70
8
 71
2
 72
30
 73
27
 74
0
 40
0.000000000
 40
0.000000000
 40
0.000000000
 40
0.112199738
 40
0.112199738
 40
0.336599213
 40
0.336599213
 40
0.448798951
 40
0.448798951
 40
0.560998688
 40
0.560998688
 40
0.673198426
 40
0.673198426
 40
0.785398163
 40
0.785398163
 40
0.897597901
 40
0.897597901
 40
1.009797639
 40
1.009797639
 40
1.121997376
 40
1.121997376
 40
1.234197114
 40
1.234197114
 40
1.346396852
 40
1.346396852
 40
1.458596589
 40
1.458596589
 40
1.570796327
 40
1.570796327
 40
1.570796327
 10
83.272077939
 20
147.500000000
 30
0.000000000
 10
83.398037974
 20
147.500000000
 30
0.000000000
 10
83.523998010
 20
147.500000000
 30
0.000000000
 10
83.774515625
 20
147.500000000
 30
0.000000000
 10
84.015205828
 20
147.500000000
 30
0.000000000
 10
84.131761090
 20
147.500000000
 30
0.000000000
 10
84.248316352
 20
147.500000000
 30
0.000000000
 10
84.358733231
 20
147.500000000
 30
0.000000000
 10
84.469150111
 20
147.500000000
 30
0.000000000
 10
84.572040052
 20
147.500000000
 30
0.000000000
 10
84.674929993
 20
147.500000000
 30
0.000000000
 10
84.768999095
 20
147.500000000
 30
0.000000000
 10
84.863068196
 20
147.500000000
 30
0.000000000
 10
84.947133485
 20
147.500000000
 30
0.000000000
 10
85.031198774
 20
147.500000000
 30
0.000000000
 10
85.104203081
 20
147.500000000
 30
0.000000000
 10
85.177207387
 20
147.500000000
 30
0.000000000
 10
85.238232639
 20
147.500000000
 30
0.000000000
 10
85.299257891
 20
147.500000000
 30
0.000000000
 10
85.347536662
 20
147.500000000
 30
0.000000000
 10
85.395815432
 20
147.500000000
 30
0.000000000
 10
85.430740586
 20
147.500000000
 30
0.000000000
 10
85.465665741
 20
147.500000000
 30
0.000000000
 10
85.486798076
 20
147.500000000
 30
0.000000000
 10
85.507930411
 20
147.500000000
 30
0.000000000
 10
85.515004175
 20
147.500000000
 30
0.000000000
 10
85.522077939
 20
147.500000000
 30
0.000000000
  0
SPLINE
  5
A69
330
A02
100
AcDbEntity
  8
ProjItem002
100
AcDbSpline
210
0
220
0
230
1
 70
8
 71
1
 72
17
 73
15
 74
0
 40
1.570796327
 40
1.570796327
 40
1.795195802
 40
2.019595277
 40
2.243994753
 40
2.468394228
 40
2.692793703
 40
2.917193178
 40
3.141592654
 40
3.365992129
 40
3.590391604
 40
3.814791079
 40
4.039190555
 40
4.263590030
 40
4.487989505
 40
4.712388980
 40
4.712388980
 10
85.522077939
 20
147.500000000
 30
0.000000000
 10
85.465665741
 20
147.500000000
 30
0.000000000
 10
85.299257891
 20
147.500000000
 30
0.000000000
 10
85.031198774
 20
147.500000000
 30
0.000000000
 10
84.674929993
 20
147.500000000
 30
0.000000000
 10
84.248316352
 20
147.500000000
 30
0.000000000
 10
83.772750040
 20
147.500000000
 30
0.000000000
 10
83.272077939
 20
147.500000000
 30
0.000000000
 10
82.771405837
 20
147.500000000
 30
0.000000000
 10
82.295839526
 20
147.500000000
 30
0.000000000
 10
81.869225884
 20
147.500000000
 30
0.000000000
 10
81.512957103
 20
147.500000000
 30
0.000000000
 10
81.244897986
 20
147.500000000
 30
0.000000000
 10
81.078490136
 20
147.500000000
 30
0.000000000
 10
81.022077939
 20
147.500000000
 30
0.000000000
  0
SPLINE
  5
A6A
330
A02
100
AcDbEntity
  8
ProjItem002
100
AcDbSpline
210
0
220
0
230
1
 70
8
 71
2
 72
30
 73
27
 74
0
 40
4.712388980
 40
4.712388980
 40
4.712388980
 40
4.824588718
 40
4.824588718
 40
4.936788456
 40
4.936788456
 40
5.048988193
 40
5.048988193
 40
5.161187931
 40
5.161187931
 40
5.273387669
 40
5.273387669
 40
5.385587406
 40
5.385587406
 40
5.497787144
 40
5.497787144
 40
5.609986881
 40
5.609986881
 40
5.722186619
 40
5.722186619
 40
5.834386357
 40
5.834386357
 40
5.946586094
 40
5.946586094
 40
6.058785832
 40
6.058785832
 40
6.283185307
 40
6.283185307
 40
6.283185307
 10
81.022077939
 20
147.500000000
 30
0.000000000
 10
81.029151703
 20
147.500000000
 30
0.000000000
 10
81.036225466
 20
147.500000000
 30
0.000000000
 10
81.057357801
 20
147.500000000
 30
0.000000000
 10
81.078490136
 20
147.500000000
 30
0.000000000
 10
81.113415291
 20
147.500000000
 30
0.000000000
 10
81.148340445
 20
147.500000000
 30
0.000000000
 10
81.196619216
 20
147.500000000
 30
0.000000000
 10
81.244897986
 20
147.500000000
 30
0.000000000
 10
81.305923238
 20
147.500000000
 30
0.000000000
 10
81.366948490
 20
147.500000000
 30
0.000000000
 10
81.439952797
 20
147.500000000
 30
0.000000000
 10
81.512957103
 20
147.500000000
 30
0.000000000
 10
81.597022392
 20
147.500000000
 30
0.000000000
 10
81.681087681
 20
147.500000000
 30
0.000000000
 10
81.775156783
 20
147.500000000
 30
0.000000000
 10
81.869225884
 20
147.500000000
 30
0.000000000
 10
81.972115825
 20
147.500000000
 30
0.000000000
 10
82.075005766
 20
147.500000000
 30
0.000000000
 10
82.185422646
 20
147.500000000
 30
0.000000000
 10
82.295839526
 20
147.500000000
 30
0.000000000
 10
82.412394787
 20
147.500000000
 30
0.000000000
 10
82.528950049
 20
147.500000000
 30
0.000000000
 10
82.650177943
 20
147.500000000
 30
0.000000000
 10
82.771405837
 20
147.500000000
 30
0.000000000
 10
83.019269489
 20
147.500000000
 30
0.000000000
 10
83.272077939
 20
147.500000000
 30
0.000000000
  0
SPLINE
  5
A6B
330
A02
100
AcDbEntity
  8
ProjItem002
100
AcDbSpline
210
0
220
0
230
1
 70
8
 71
2
 72
30
 73
27
 74
0
 40
0.000000000
 40
0.000000000
 40
0.000000000
 40
0.112199738
 40
0.112199738
 40
0.336599213
 40
0.336599213
 40
0.448798951
 40
0.448798951
 40
0.560998688
 40
0.560998688
 40
0.673198426
 40
0.673198426
 40
0.785398163
 40
0.785398163
 40
0.897597901
 40
0.897597901
 40
1.009797639
 40
1.009797639
 40
1.121997376
 40
1.121997376
 40
1.234197114
 40
1.234197114
 40
1.346396852
 40
1.346396852
 40
1.458596589
 40
1.458596589
 40
1.570796327
 40
1.570796327
 40
1.570796327
 10
83.272077939
 20
147.500000000
 30
0.000000000
 10
83.398037974
 20
147.500000000
 30
0.000000000
 10
83.523998010
 20
147.500000000
 30
0.000000000
 10
83.774515625
 20
147.500000000
 30
0.000000000
 10
84.015205828
 20
147.500000000
 30
0.000000000
 10
84.131761090
 20
147.500000000
 30
0.000000000
 10
84.248316352
 20
147.500000000
 30
0.000000000
 10
84.358733231
 20
147.500000000
 30
0.000000000
 10
84.469150111
 20
147.500000000
 30
0.000000000
 10
84.572040052
 20
147.500000000
 30
0.000000000
 10
84.674929993
 20
147.500000000
 30
0.000000000
 10
84.768999095
 20
147.500000000
 30
0.000000000
 10
84.863068196
 20
147.500000000
 30
0.000000000
 10
84.947133485
 20
147.500000000
 30
0.000000000
 10
85.031198774
 20
147.500000000
 30
0.000000000
 10
85.104203081
 20
147.500000000
 30
0.000000000
 10
85.177207387
 20
147.500000000
 30
0.000000000
 10
85.238232639
 20
147.500000000
 30
0.000000000
 10
85.299257891
 20
147.500000000
 30
0.000000000
 10
85.347536662
 20
147.500000000
 30
0.000000000
 10
85.395815432
 20
147.500000000
 30
0.000000000
 10
85.430740586
 20
147.500000000
 30
0.000000000
 10
85.465665741
 20
147.500000000
 30
0.000000000
 10
85.486798076
 20
147.500000000
 30
0.000000000
 10
85.507930411
 20
147.500000000
 30
0.000000000
 10
85.515004175
 20
147.500000000
 30
0.000000000
 10
85.522077939
 20
147.500000000
 30
0.000000000
  0
SPLINE
  5
A6C
330
A02
100
AcDbEntity
  8
ProjItem002
100
AcDbSpline
210
0
220
0
230
1
 70
8
 71
1
 72
17
 73
15
 74
0
 40
1.570796327
 40
1.570796327
 40
1.795195802
 40
2.019595277
 40
2.243994753
 40
2.468394228
 40
2.692793703
 40
2.917193178
 40
3.141592654
 40
3.365992129
 40
3.590391604
 40
3.814791079
 40
4.039190555
 40
4.263590030
 40
4.487989505
 40
4.712388980
 40
4.712388980
 10
85.522077939
 20
147.500000000
 30
0.000000000
 10
85.465665741
 20
147.500000000
 30
0.000000000
 10
85.299257891
 20
147.500000000
 30
0.000000000
 10
85.031198774
 20
147.500000000
 30
0.000000000
 10
84.674929993
 20
147.500000000
 30
0.000000000
 10
84.248316352
 20
147.500000000
 30
0.000000000
 10
83.772750040
 20
147.500000000
 30
0.000000000
 10
83.272077939
 20
147.500000000
 30
0.000000000
 10
82.771405837
 20
147.500000000
 30
0.000000000
 10
82.295839526
 20
147.500000000
 30
0.000000000
 10
81.869225884
 20
147.500000000
 30
0.000000000
 10
81.512957103
 20
147.500000000
 30
0.000000000
 10
81.244897986
 20
147.500000000
 30
0.000000000
 10
81.078490136
 20
147.500000000
 30
0.000000000
 10
81.022077939
 20
147.500000000
 30
0.000000000
  0
SPLINE
  5
A6D
330
A02
100
AcDbEntity
  8
ProjItem002
100
AcDbSpline
210
0
220
0
230
1
 70
8
 71
2
 72
30
 73
27
 74
0
 40
4.712388980
 40
4.712388980
 40
4.712388980
 40
4.824588718
 40
4.824588718
 40
4.936788456
 40
4.936788456
 40
5.048988193
 40
5.048988193
 40
5.161187931
 40
5.161187931
 40
5.273387669
 40
5.273387669
 40
5.385587406
 40
5.385587406
 40
5.497787144
 40
5.497787144
 40
5.609986881
 40
5.609986881
 40
5.722186619
 40
5.722186619
 40
5.834386357
 40
5.834386357
 40
5.946586094
 40
5.946586094
 40
6.058785832
 40
6.058785832
 40
6.283185307
 40
6.283185307
 40
6.283185307
 10
81.022077939
 20
147.500000000
 30
0.000000000
 10
81.029151703
 20
147.500000000
 30
0.000000000
 10
81.036225466
 20
147.500000000
 30
0.000000000
 10
81.057357801
 20
147.500000000
 30
0.000000000
 10
81.078490136
 20
147.500000000
 30
0.000000000
 10
81.113415291
 20
147.500000000
 30
0.000000000
 10
81.148340445
 20
147.500000000
 30
0.000000000
 10
81.196619216
 20
147.500000000
 30
0.000000000
 10
81.244897986
 20
147.500000000
 30
0.000000000
 10
81.305923238
 20
147.500000000
 30
0.000000000
 10
81.366948490
 20
147.500000000
 30
0.000000000
 10
81.439952797
 20
147.500000000
 30
0.000000000
 10
81.512957103
 20
147.500000000
 30
0.000000000
 10
81.597022392
 20
147.500000000
 30
0.000000000
 10
81.681087681
 20
147.500000000
 30
0.000000000
 10
81.775156783
 20
147.500000000
 30
0.000000000
 10
81.869225884
 20
147.500000000
 30
0.000000000
 10
81.972115825
 20
147.500000000
 30
0.000000000
 10
82.075005766
 20
147.500000000
 30
0.000000000
 10
82.185422646
 20
147.500000000
 30
0.000000000
 10
82.295839526
 20
147.500000000
 30
0.000000000
 10
82.412394787
 20
147.500000000
 30
0.000000000
 10
82.528950049
 20
147.500000000
 30
0.000000000
 10
82.650177943
 20
147.500000000
 30
0.000000000
 10
82.771405837
 20
147.500000000
 30
0.000000000
 10
83.019269489
 20
147.500000000
 30
0.000000000
 10
83.272077939
 20
147.500000000
 30
0.000000000
  0
SPLINE
  5
A6E
330
A02
100
AcDbEntity
  8
ProjItem002
100
AcDbSpline
210
0
220
0
230
1
 70
8
 71
2
 72
30
 73
27
 74
0
 40
0.000000000
 40
0.000000000
 40
0.000000000
 40
0.112199738
 40
0.112199738
 40
0.336599213
 40
0.336599213
 40
0.448798951
 40
0.448798951
 40
0.560998688
 40
0.560998688
 40
0.673198426
 40
0.673198426
 40
0.785398163
 40
0.785398163
 40
0.897597901
 40
0.897597901
 40
1.009797639
 40
1.009797639
 40
1.121997376
 40
1.121997376
 40
1.234197114
 40
1.234197114
 40
1.346396852
 40
1.346396852
 40
1.458596589
 40
1.458596589
 40
1.570796327
 40
1.570796327
 40
1.570796327
 10
108.727922061
 20
147.500000000
 30
0.000000000
 10
108.853882097
 20
147.500000000
 30
0.000000000
 10
108.979842133
 20
147.500000000
 30
0.000000000
 10
109.230359747
 20
147.500000000
 30
0.000000000
 10
109.471049951
 20
147.500000000
 30
0.000000000
 10
109.587605213
 20
147.500000000
 30
0.000000000
 10
109.704160474
 20
147.500000000
 30
0.000000000
 10
109.814577354
 20
147.500000000
 30
0.000000000
 10
109.924994234
 20
147.500000000
 30
0.000000000
 10
110.027884175
 20
147.500000000
 30
0.000000000
 10
110.130774116
 20
147.500000000
 30
0.000000000
 10
110.224843217
 20
147.500000000
 30
0.000000000
 10
110.318912319
 20
147.500000000
 30
0.000000000
 10
110.402977608
 20
147.500000000
 30
0.000000000
 10
110.487042897
 20
147.500000000
 30
0.000000000
 10
110.560047203
 20
147.500000000
 30
0.000000000
 10
110.633051510
 20
147.500000000
 30
0.000000000
 10
110.694076762
 20
147.500000000
 30
0.000000000
 10
110.755102014
 20
147.500000000
 30
0.000000000
 10
110.803380784
 20
147.500000000
 30
0.000000000
 10
110.851659555
 20
147.500000000
 30
0.000000000
 10
110.886584709
 20
147.500000000
 30
0.000000000
 10
110.921509864
 20
147.500000000
 30
0.000000000
 10
110.942642199
 20
147.500000000
 30
0.000000000
 10
110.963774534
 20
147.500000000
 30
0.000000000
 10
110.970848297
 20
147.500000000
 30
0.000000000
 10
110.977922061
 20
147.500000000
 30
0.000000000
  0
SPLINE
  5
A6F
330
A02
100
AcDbEntity
  8
ProjItem002
100
AcDbSpline
210
0
220
0
230
1
 70
8
 71
1
 72
17
 73
15
 74
0
 40
1.570796327
 40
1.570796327
 40
1.795195802
 40
2.019595277
 40
2.243994753
 40
2.468394228
 40
2.692793703
 40
2.917193178
 40
3.141592654
 40
3.365992129
 40
3.590391604
 40
3.814791079
 40
4.039190555
 40
4.263590030
 40
4.487989505
 40
4.712388980
 40
4.712388980
 10
110.977922061
 20
147.500000000
 30
0.000000000
 10
110.921509864
 20
147.500000000
 30
0.000000000
 10
110.755102014
 20
147.500000000
 30
0.000000000
 10
110.487042897
 20
147.500000000
 30
0.000000000
 10
110.130774116
 20
147.500000000
 30
0.000000000
 10
109.704160474
 20
147.500000000
 30
0.000000000
 10
109.228594163
 20
147.500000000
 30
0.000000000
 10
108.727922061
 20
147.500000000
 30
0.000000000
 10
108.227249960
 20
147.500000000
 30
0.000000000
 10
107.751683648
 20
147.500000000
 30
0.000000000
 10
107.325070007
 20
147.500000000
 30
0.000000000
 10
106.968801226
 20
147.500000000
 30
0.000000000
 10
106.700742109
 20
147.500000000
 30
0.000000000
 10
106.534334259
 20
147.500000000
 30
0.000000000
 10
106.477922061
 20
147.500000000
 30
0.000000000
  0
SPLINE
  5
A70
330
A02
100
AcDbEntity
  8
ProjItem002
100
AcDbSpline
210
0
220
0
230
1
 70
8
 71
2
 72
30
 73
27
 74
0
 40
4.712388980
 40
4.712388980
 40
4.712388980
 40
4.824588718
 40
4.824588718
 40
4.936788456
 40
4.936788456
 40
5.048988193
 40
5.048988193
 40
5.161187931
 40
5.161187931
 40
5.273387669
 40
5.273387669
 40
5.385587406
 40
5.385587406
 40
5.497787144
 40
5.497787144
 40
5.609986881
 40
5.609986881
 40
5.722186619
 40
5.722186619
 40
5.834386357
 40
5.834386357
 40
5.946586094
 40
5.946586094
 40
6.058785832
 40
6.058785832
 40
6.283185307
 40
6.283185307
 40
6.283185307
 10
106.477922061
 20
147.500000000
 30
0.000000000
 10
106.484995825
 20
147.500000000
 30
0.000000000
 10
106.492069589
 20
147.500000000
 30
0.000000000
 10
106.513201924
 20
147.500000000
 30
0.000000000
 10
106.534334259
 20
147.500000000
 30
0.000000000
 10
106.569259414
 20
147.500000000
 30
0.000000000
 10
106.604184568
 20
147.500000000
 30
0.000000000
 10
106.652463338
 20
147.500000000
 30
0.000000000
 10
106.700742109
 20
147.500000000
 30
0.000000000
 10
106.761767361
 20
147.500000000
 30
0.000000000
 10
106.822792613
 20
147.500000000
 30
0.000000000
 10
106.895796919
 20
147.500000000
 30
0.000000000
 10
106.968801226
 20
147.500000000
 30
0.000000000
 10
107.052866515
 20
147.500000000
 30
0.000000000
 10
107.136931804
 20
147.500000000
 30
0.000000000
 10
107.231000905
 20
147.500000000
 30
0.000000000
 10
107.325070007
 20
147.500000000
 30
0.000000000
 10
107.427959948
 20
147.500000000
 30
0.000000000
 10
107.530849889
 20
147.500000000
 30
0.000000000
 10
107.641266769
 20
147.500000000
 30
0.000000000
 10
107.751683648
 20
147.500000000
 30
0.000000000
 10
107.868238910
 20
147.500000000
 30
0.000000000
 10
107.984794172
 20
147.500000000
 30
0.000000000
 10
108.106022066
 20
147.500000000
 30
0.000000000
 10
108.227249960
 20
147.500000000
 30
0.000000000
 10
108.475113612
 20
147.500000000
 30
0.000000000
 10
108.727922061
 20
147.500000000
 30
0.000000000
  0
SPLINE
  5
A71
330
A02
100
AcDbEntity
  8
ProjItem002
100
AcDbSpline
210
0
220
0
230
1
 70
8
 71
1
 72
17
 73
15
 74
0
 40
0.000000000
 40
0.000000000
 40
0.112199738
 40
0.224399475
 40
0.336599213
 40
0.448798951
 40
0.560998688
 40
0.673198426
 40
0.785398163
 40
0.897597901
 40
1.009797639
 40
1.121997376
 40
1.234197114
 40
1.346396852
 40
1.458596589
 40
1.570796327
 40
1.570796327
 10
96.000000000
 20
147.500000000
 30
0.000000000
 10
96.559822381
 20
147.500000000
 30
0.000000000
 10
97.112604670
 20
147.500000000
 30
0.000000000
 10
97.651395310
 20
147.500000000
 30
0.000000000
 10
98.169418696
 20
147.500000000
 30
0.000000000
 10
98.660160383
 20
147.500000000
 30
0.000000000
 10
99.117449009
 20
147.500000000
 30
0.000000000
 10
99.535533906
 20
147.500000000
 30
0.000000000
 10
99.909157412
 20
147.500000000
 30
0.000000000
 10
100.233620996
 20
147.500000000
 30
0.000000000
 10
100.504844340
 20
147.500000000
 30
0.000000000
 10
100.719416652
 20
147.500000000
 30
0.000000000
 10
100.874639561
 20
147.500000000
 30
0.000000000
 10
100.968561049
 20
147.500000000
 30
0.000000000
 10
101.000000000
 20
147.500000000
 30
0.000000000
  0
SPLINE
  5
A72
330
A02
100
AcDbEntity
  8
ProjItem002
100
AcDbSpline
210
0
220
0
230
1
 70
8
 71
1
 72
17
 73
15
 74
0
 40
1.570796327
 40
1.570796327
 40
1.795195802
 40
2.019595277
 40
2.243994753
 40
2.468394228
 40
2.692793703
 40
2.917193178
 40
3.141592654
 40
3.365992129
 40
3.590391604
 40
3.814791079
 40
4.039190555
 40
4.263590030
 40
4.487989505
 40
4.712388980
 40
4.712388980
 10
101.000000000
 20
147.500000000
 30
0.000000000
 10
100.874639561
 20
147.500000000
 30
0.000000000
 10
100.504844340
 20
147.500000000
 30
0.000000000
 10
99.909157412
 20
147.500000000
 30
0.000000000
 10
99.117449009
 20
147.500000000
 30
0.000000000
 10
98.169418696
 20
147.500000000
 30
0.000000000
 10
97.112604670
 20
147.500000000
 30
0.000000000
 10
96.000000000
 20
147.500000000
 30
0.000000000
 10
94.887395330
 20
147.500000000
 30
0.000000000
 10
93.830581304
 20
147.500000000
 30
0.000000000
 10
92.882550991
 20
147.500000000
 30
0.000000000
 10
92.090842588
 20
147.500000000
 30
0.000000000
 10
91.495155660
 20
147.500000000
 30
0.000000000
 10
91.125360439
 20
147.500000000
 30
0.000000000
 10
91.000000000
 20
147.500000000
 30
0.000000000
  0
SPLINE
  5
A73
330
A02
100
AcDbEntity
  8
ProjItem002
100
AcDbSpline
210
0
220
0
230
1
 70
8
 71
2
 72
30
 73
27
 74
0
 40
4.712388980
 40
4.712388980
 40
4.712388980
 40
4.824588718
 40
4.824588718
 40
4.936788456
 40
4.936788456
 40
5.048988193
 40
5.048988193
 40
5.161187931
 40
5.161187931
 40
5.273387669
 40
5.273387669
 40
5.385587406
 40
5.385587406
 40
5.497787144
 40
5.497787144
 40
5.609986881
 40
5.609986881
 40
5.722186619
 40
5.722186619
 40
5.834386357
 40
5.834386357
 40
5.946586094
 40
5.946586094
 40
6.058785832
 40
6.058785832
 40
6.283185307
 40
6.283185307
 40
6.283185307
 10
91.000000000
 20
147.500000000
 30
0.000000000
 10
91.015719475
 20
147.500000000
 30
0.000000000
 10
91.031438951
 20
147.500000000
 30
0.000000000
 10
91.078399695
 20
147.500000000
 30
0.000000000
 10
91.125360439
 20
147.500000000
 30
0.000000000
 10
91.202971894
 20
147.500000000
 30
0.000000000
 10
91.280583348
 20
147.500000000
 30
0.000000000
 10
91.387869504
 20
147.500000000
 30
0.000000000
 10
91.495155660
 20
147.500000000
 30
0.000000000
 10
91.630767332
 20
147.500000000
 30
0.000000000
 10
91.766379004
 20
147.500000000
 30
0.000000000
 10
91.928610796
 20
147.500000000
 30
0.000000000
 10
92.090842588
 20
147.500000000
 30
0.000000000
 10
92.277654341
 20
147.500000000
 30
0.000000000
 10
92.464466094
 20
147.500000000
 30
0.000000000
 10
92.673508542
 20
147.500000000
 30
0.000000000
 10
92.882550991
 20
147.500000000
 30
0.000000000
 10
93.111195304
 20
147.500000000
 30
0.000000000
 10
93.339839617
 20
147.500000000
 30
0.000000000
 10
93.585210461
 20
147.500000000
 30
0.000000000
 10
93.830581304
 20
147.500000000
 30
0.000000000
 10
94.089592997
 20
147.500000000
 30
0.000000000
 10
94.348604690
 20
147.500000000
 30
0.000000000
 10
94.618000010
 20
147.500000000
 30
0.000000000
 10
94.887395330
 20
147.500000000
 30
0.000000000
 10
95.438203446
 20
147.500000000
 30
0.000000000
 10
96.000000000
 20
147.500000000
 30
0.000000000
  0
SPLINE
  5
A74
330
A02
100
AcDbEntity
  8
ProjItem002
100
AcDbSpline
210
0
220
0
230
1
 70
8
 71
2
 72
30
 73
27
 74
0
 40
0.000000000
 40
0.000000000
 40
0.000000000
 40
0.112199738
 40
0.112199738
 40
0.336599213
 40
0.336599213
 40
0.448798951
 40
0.448798951
 40
0.560998688
 40
0.560998688
 40
0.673198426
 40
0.673198426
 40
0.785398163
 40
0.785398163
 40
0.897597901
 40
0.897597901
 40
1.009797639
 40
1.009797639
 40
1.121997376
 40
1.121997376
 40
1.234197114
 40
1.234197114
 40
1.346396852
 40
1.346396852
 40
1.458596589
 40
1.458596589
 40
1.570796327
 40
1.570796327
 40
1.570796327
 10
108.727922061
 20
147.500000000
 30
0.000000000
 10
108.853882097
 20
147.500000000
 30
0.000000000
 10
108.979842133
 20
147.500000000
 30
0.000000000
 10
109.230359747
 20
147.500000000
 30
0.000000000
 10
109.471049951
 20
147.500000000
 30
0.000000000
 10
109.587605213
 20
147.500000000
 30
0.000000000
 10
109.704160474
 20
147.500000000
 30
0.000000000
 10
109.814577354
 20
147.500000000
 30
0.000000000
 10
109.924994234
 20
147.500000000
 30
0.000000000
 10
110.027884175
 20
147.500000000
 30
0.000000000
 10
110.130774116
 20
147.500000000
 30
0.000000000
 10
110.224843217
 20
147.500000000
 30
0.000000000
 10
110.318912319
 20
147.500000000
 30
0.000000000
 10
110.402977608
 20
147.500000000
 30
0.000000000
 10
110.487042897
 20
147.500000000
 30
0.000000000
 10
110.560047203
 20
147.500000000
 30
0.000000000
 10
110.633051510
 20
147.500000000
 30
0.000000000
 10
110.694076762
 20
147.500000000
 30
0.000000000
 10
110.755102014
 20
147.500000000
 30
0.000000000
 10
110.803380784
 20
147.500000000
 30
0.000000000
 10
110.851659555
 20
147.500000000
 30
0.000000000
 10
110.886584709
 20
147.500000000
 30
0.000000000
 10
110.921509864
 20
147.500000000
 30
0.000000000
 10
110.942642199
 20
147.500000000
 30
0.000000000
 10
110.963774534
 20
147.500000000
 30
0.000000000
 10
110.970848297
 20
147.500000000
 30
0.000000000
 10
110.977922061
 20
147.500000000
 30
0.000000000
  0
SPLINE
  5
A75
330
A02
100
AcDbEntity
  8
ProjItem002
100
AcDbSpline
210
0
220
0
230
1
 70
8
 71
1
 72
17
 73
15
 74
0
 40
1.570796327
 40
1.570796327
 40
1.795195802
 40
2.019595277
 40
2.243994753
 40
2.468394228
 40
2.692793703
 40
2.917193178
 40
3.141592654
 40
3.365992129
 40
3.590391604
 40
3.814791079
 40
4.039190555
 40
4.263590030
 40
4.487989505
 40
4.712388980
 40
4.712388980
 10
110.977922061
 20
147.500000000
 30
0.000000000
 10
110.921509864
 20
147.500000000
 30
0.000000000
 10
110.755102014
 20
147.500000000
 30
0.000000000
 10
110.487042897
 20
147.500000000
 30
0.000000000
 10
110.130774116
 20
147.500000000
 30
0.000000000
 10
109.704160474
 20
147.500000000
 30
0.000000000
 10
109.228594163
 20
147.500000000
 30
0.000000000
 10
108.727922061
 20
147.500000000
 30
0.000000000
 10
108.227249960
 20
147.500000000
 30
0.000000000
 10
107.751683648
 20
147.500000000
 30
0.000000000
 10
107.325070007
 20
147.500000000
 30
0.000000000
 10
106.968801226
 20
147.500000000
 30
0.000000000
 10
106.700742109
 20
147.500000000
 30
0.000000000
 10
106.534334259
 20
147.500000000
 30
0.000000000
 10
106.477922061
 20
147.500000000
 30
0.000000000
  0
SPLINE
  5
A76
330
A02
100
AcDbEntity
  8
ProjItem002
100
AcDbSpline
210
0
220
0
230
1
 70
8
 71
2
 72
30
 73
27
 74
0
 40
4.712388980
 40
4.712388980
 40
4.712388980
 40
4.824588718
 40
4.824588718
 40
4.936788456
 40
4.936788456
 40
5.048988193
 40
5.048988193
 40
5.161187931
 40
5.161187931
 40
5.273387669
 40
5.273387669
 40
5.385587406
 40
5.385587406
 40
5.497787144
 40
5.497787144
 40
5.609986881
 40
5.609986881
 40
5.722186619
 40
5.722186619
 40
5.834386357
 40
5.834386357
 40
5.946586094
 40
5.946586094
 40
6.058785832
 40
6.058785832
 40
6.283185307
 40
6.283185307
 40
6.283185307
 10
106.477922061
 20
147.500000000
 30
0.000000000
 10
106.484995825
 20
147.500000000
 30
0.000000000
 10
106.492069589
 20
147.500000000
 30
0.000000000
 10
106.513201924
 20
147.500000000
 30
0.000000000
 10
106.534334259
 20
147.500000000
 30
0.000000000
 10
106.569259414
 20
147.500000000
 30
0.000000000
 10
106.604184568
 20
147.500000000
 30
0.000000000
 10
106.652463338
 20
147.500000000
 30
0.000000000
 10
106.700742109
 20
147.500000000
 30
0.000000000
 10
106.761767361
 20
147.500000000
 30
0.000000000
 10
106.822792613
 20
147.500000000
 30
0.000000000
 10
106.895796919
 20
147.500000000
 30
0.000000000
 10
106.968801226
 20
147.500000000
 30
0.000000000
 10
107.052866515
 20
147.500000000
 30
0.000000000
 10
107.136931804
 20
147.500000000
 30
0.000000000
 10
107.231000905
 20
147.500000000
 30
0.000000000
 10
107.325070007
 20
147.500000000
 30
0.000000000
 10
107.427959948
 20
147.500000000
 30
0.000000000
 10
107.530849889
 20
147.500000000
 30
0.000000000
 10
107.641266769
 20
147.500000000
 30
0.000000000
 10
107.751683648
 20
147.500000000
 30
0.000000000
 10
107.868238910
 20
147.500000000
 30
0.000000000
 10
107.984794172
 20
147.500000000
 30
0.000000000
 10
108.106022066
 20
147.500000000
 30
0.000000000
 10
108.227249960
 20
147.500000000
 30
0.000000000
 10
108.475113612
 20
147.500000000
 30
0.000000000
 10
108.727922061
 20
147.500000000
 30
0.000000000
  0
SPLINE
  5
A77
330
A02
100
AcDbEntity
  8
ProjItem002
100
AcDbSpline
210
0
220
0
230
1
 70
8
 71
1
 72
17
 73
15
 74
0
 40
1.570796327
 40
1.570796327
 40
1.795195802
 40
2.019595277
 40
2.243994753
 40
2.468394228
 40
2.692793703
 40
2.917193178
 40
3.141592654
 40
3.365992129
 40
3.590391604
 40
3.814791079
 40
4.039190555
 40
4.263590030
 40
4.487989505
 40
4.712388980
 40
4.712388980
 10
109.750000000
 20
162.500000000
 30
0.000000000
 10
109.405258793
 20
162.500000000
 30
0.000000000
 10
108.388321934
 20
162.500000000
 30
0.000000000
 10
106.750182884
 20
162.500000000
 30
0.000000000
 10
104.572984776
 20
162.500000000
 30
0.000000000
 10
101.965901413
 20
162.500000000
 30
0.000000000
 10
99.059662842
 20
162.500000000
 30
0.000000000
 10
96.000000000
 20
162.500000000
 30
0.000000000
 10
92.940337158
 20
162.500000000
 30
0.000000000
 10
90.034098587
 20
162.500000000
 30
0.000000000
 10
87.427015224
 20
162.500000000
 30
0.000000000
 10
85.249817116
 20
162.500000000
 30
0.000000000
 10
83.611678066
 20
162.500000000
 30
0.000000000
 10
82.594741207
 20
162.500000000
 30
0.000000000
 10
82.250000000
 20
162.500000000
 30
0.000000000
  0
SPLINE
  5
A78
330
A02
100
AcDbEntity
  8
ProjItem002
100
AcDbSpline
210
0
220
0
230
1
 70
8
 71
1
 72
17
 73
15
 74
0
 40
0.000000000
 40
0.000000000
 40
0.112199738
 40
0.224399475
 40
0.336599213
 40
0.448798951
 40
0.560998688
 40
0.673198426
 40
0.785398163
 40
0.897597901
 40
1.009797639
 40
1.121997376
 40
1.234197114
 40
1.346396852
 40
1.458596589
 40
1.570796327
 40
1.570796327
 10
96.000000000
 20
162.500000000
 30
0.000000000
 10
96.559822381
 20
162.500000000
 30
0.000000000
 10
97.112604670
 20
162.500000000
 30
0.000000000
 10
97.651395310
 20
162.500000000
 30
0.000000000
 10
98.169418696
 20
162.500000000
 30
0.000000000
 10
98.660160383
 20
162.500000000
 30
0.000000000
 10
99.117449009
 20
162.500000000
 30
0.000000000
 10
99.535533906
 20
162.500000000
 30
0.000000000
 10
99.909157412
 20
162.500000000
 30
0.000000000
 10
100.233620996
 20
162.500000000
 30
0.000000000
 10
100.504844340
 20
162.500000000
 30
0.000000000
 10
100.719416652
 20
162.500000000
 30
0.000000000
 10
100.874639561
 20
162.500000000
 30
0.000000000
 10
100.968561049
 20
162.500000000
 30
0.000000000
 10
101.000000000
 20
162.500000000
 30
0.000000000
  0
SPLINE
  5
A79
330
A02
100
AcDbEntity
  8
ProjItem002
100
AcDbSpline
210
0
220
0
230
1
 70
8
 71
1
 72
17
 73
15
 74
0
 40
1.570796327
 40
1.570796327
 40
1.795195802
 40
2.019595277
 40
2.243994753
 40
2.468394228
 40
2.692793703
 40
2.917193178
 40
3.141592654
 40
3.365992129
 40
3.590391604
 40
3.814791079
 40
4.039190555
 40
4.263590030
 40
4.487989505
 40
4.712388980
 40
4.712388980
 10
101.000000000
 20
162.500000000
 30
0.000000000
 10
100.874639561
 20
162.500000000
 30
0.000000000
 10
100.504844340
 20
162.500000000
 30
0.000000000
 10
99.909157412
 20
162.500000000
 30
0.000000000
 10
99.117449009
 20
162.500000000
 30
0.000000000
 10
98.169418696
 20
162.500000000
 30
0.000000000
 10
97.112604670
 20
162.500000000
 30
0.000000000
 10
96.000000000
 20
162.500000000
 30
0.000000000
 10
94.887395330
 20
162.500000000
 30
0.000000000
 10
93.830581304
 20
162.500000000
 30
0.000000000
 10
92.882550991
 20
162.500000000
 30
0.000000000
 10
92.090842588
 20
162.500000000
 30
0.000000000
 10
91.495155660
 20
162.500000000
 30
0.000000000
 10
91.125360439
 20
162.500000000
 30
0.000000000
 10
91.000000000
 20
162.500000000
 30
0.000000000
  0
SPLINE
  5
A7A
330
A02
100
AcDbEntity
  8
ProjItem002
100
AcDbSpline
210
0
220
0
230
1
 70
8
 71
2
 72
30
 73
27
 74
0
 40
4.712388980
 40
4.712388980
 40
4.712388980
 40
4.824588718
 40
4.824588718
 40
4.936788456
 40
4.936788456
 40
5.048988193
 40
5.048988193
 40
5.161187931
 40
5.161187931
 40
5.273387669
 40
5.273387669
 40
5.385587406
 40
5.385587406
 40
5.497787144
 40
5.497787144
 40
5.609986881
 40
5.609986881
 40
5.722186619
 40
5.722186619
 40
5.834386357
 40
5.834386357
 40
5.946586094
 40
5.946586094
 40
6.058785832
 40
6.058785832
 40
6.283185307
 40
6.283185307
 40
6.283185307
 10
91.000000000
 20
162.500000000
 30
0.000000000
 10
91.015719475
 20
162.500000000
 30
0.000000000
 10
91.031438951
 20
162.500000000
 30
0.000000000
 10
91.078399695
 20
162.500000000
 30
0.000000000
 10
91.125360439
 20
162.500000000
 30
0.000000000
 10
91.202971894
 20
162.500000000
 30
0.000000000
 10
91.280583348
 20
162.500000000
 30
0.000000000
 10
91.387869504
 20
162.500000000
 30
0.000000000
 10
91.495155660
 20
162.500000000
 30
0.000000000
 10
91.630767332
 20
162.500000000
 30
0.000000000
 10
91.766379004
 20
162.500000000
 30
0.000000000
 10
91.928610796
 20
162.500000000
 30
0.000000000
 10
92.090842588
 20
162.500000000
 30
0.000000000
 10
92.277654341
 20
162.500000000
 30
0.000000000
 10
92.464466094
 20
162.500000000
 30
0.000000000
 10
92.673508542
 20
162.500000000
 30
0.000000000
 10
92.882550991
 20
162.500000000
 30
0.000000000
 10
93.111195304
 20
162.500000000
 30
0.000000000
 10
93.339839617
 20
162.500000000
 30
0.000000000
 10
93.585210461
 20
162.500000000
 30
0.000000000
 10
93.830581304
 20
162.500000000
 30
0.000000000
 10
94.089592997
 20
162.500000000
 30
0.000000000
 10
94.348604690
 20
162.500000000
 30
0.000000000
 10
94.618000010
 20
162.500000000
 30
0.000000000
 10
94.887395330
 20
162.500000000
 30
0.000000000
 10
95.438203446
 20
162.500000000
 30
0.000000000
 10
96.000000000
 20
162.500000000
 30
0.000000000
  0
LINE
  5
A7B
330
A02
100
AcDbEntity
  8
ProjItem002
100
AcDbLine
 10
85.522077939
 20
147.500000000
 30
0.000000000
 11
85.522077939
 21
153.500000000
 31
0.000000000
  0
LINE
  5
A7C
330
A02
100
AcDbEntity
  8
ProjItem002
100
AcDbLine
 10
81.022077939
 20
147.500000000
 30
0.000000000
 11
81.022077939
 21
153.500000000
 31
0.000000000
  0
LINE
  5
A7D
330
A02
100
AcDbEntity
  8
ProjItem002
100
AcDbLine
 10
85.522077939
 20
147.500000000
 30
0.000000000
 11
85.522077939
 21
153.500000000
 31
0.000000000
  0
LINE
  5
A7E
330
A02
100
AcDbEntity
  8
ProjItem002
100
AcDbLine
 10
81.022077939
 20
147.500000000
 30
0.000000000
 11
81.022077939
 21
153.500000000
 31
0.000000000
  0
LINE
  5
A7F
330
A02
100
AcDbEntity
  8
ProjItem002
100
AcDbLine
 10
110.977922061
 20
147.500000000
 30
0.000000000
 11
110.977922061
 21
153.500000000
 31
0.000000000
  0
LINE
  5
A80
330
A02
100
AcDbEntity
  8
ProjItem002
100
AcDbLine
 10
106.477922061
 20
147.500000000
 30
0.000000000
 11
106.477922061
 21
153.500000000
 31
0.000000000
  0
LINE
  5
A81
330
A02
100
AcDbEntity
  8
ProjItem002
100
AcDbLine
 10
110.977922061
 20
147.500000000
 30
0.000000000
 11
110.977922061
 21
153.500000000
 31
0.000000000
  0
LINE
  5
A82
330
A02
100
AcDbEntity
  8
ProjItem002
100
AcDbLine
 10
106.477922061
 20
147.500000000
 30
0.000000000
 11
106.477922061
 21
153.500000000
 31
0.000000000
  0
LINE
  5
A83
330
A02
100
AcDbEntity
  8
ProjItem002
100
AcDbLine
 10
101.000000000
 20
147.500000000
 30
0.000000000
 11
101.000000000
 21
162.500000000
 31
0.000000000
  0
LINE
  5
A84
330
A02
100
AcDbEntity
  8
ProjItem002
100
AcDbLine
 10
91.000000000
 20
147.500000000
 30
0.000000000
 11
91.000000000
 21
162.500000000
 31
0.000000000
  0
LINE
  5
A85
330
A02
100
AcDbEntity
  8
ProjItem002
100
AcDbLine
 10
96.000000000
 20
147.000000000
 30
0.000000000
 11
96.000000000
 21
163.000000000
 31
0.000000000
  0
LINE
  5
A86
330
A02
100
AcDbEntity
  8
ProjItem002
100
AcDbLine
 10
83.272078000
 20
147.000000000
 30
0.000000000
 11
83.272078000
 21
154.000000000
 31
0.000000000
  0
LINE
  5
A87
330
A02
100
AcDbEntity
  8
ProjItem002
100
AcDbLine
 10
108.727922000
 20
147.000000000
 30
0.000000000
 11
108.727922000
 21
154.000000000
 31
0.000000000
  0
DIMENSION
  5
A88
330
A02
100
AcDbEntity
  8
DimDia0
100
AcDbDimension
  2
*DimDia0
 10
184.169584499
 20
119.271183472
 30
0.000000000
 11
201.000000000
 21
137.500000000
 31
0.000000000
 70
3
  1
⌀100
  3
STANDARD
100
AcDbDiametricDimension
 15
143.830415501
 25
89.728816528
 35
0.000000000
 40
0
  0
DIMENSION
  5
A90
330
A02
100
AcDbEntity
  8
DimDia1
100
AcDbDimension
  2
*DimDia1
 10
153.230265037
 20
92.880231037
 30
0.000000000
 11
191.522077939
 21
120.022077939
 31
0.000000000
 70
3
  1
⌀9
  3
STANDARD
100
AcDbDiametricDimension
 15
149.313890841
 25
90.663924840
 35
0.000000000
 40
0
  0
DIMENSION
  5
A98
330
A02
100
AcDbEntity
  8
DimHeight
100
AcDbDimension
  2
*DimHeight
 10
199.195029487
 20
159.662840491
 30
0.000000000
 11
201.000000000
 21
155.000000000
 31
0.000000000
 70
32
  1
30
  3
STANDARD
100
AcDbAlignedDimension
 13
189.000000000
 23
147.500000000
 33
0.000000000
 14
150.250000000
 24
162.500000000
 34
0.000000000
 50
90
100
AcDbRotatedDimension
  0
ENDSEC
  0
SECTION
  2
OBJECTS
  0
DICTIONARY
  5
F000
330
0
100
AcDbDictionary
  3
ACAD_GROUP
350
F001
  0
DICTIONARY
  5
F001
330
F000
100
AcDbDictionary
  0
ENDSEC
  0
EOF