ISO-10303-21;
HEADER;
FILE_DESCRIPTION(('ViewDefinition [CoordinationView]'),'2;1');
FILE_NAME('','2026-05-22T15:33:52',(''),(''),'IfcOpenShell 0.8.5-1c5b825','IfcOpenShell 0.8.5-1c5b825','');
FILE_SCHEMA(('IFC4'));
ENDSEC;
DATA;
#1=IFCPROJECT('1kattWBzTA$Qm19lDL0zSw',$,'Clinic Suite Ground Truth',$,$,$,$,(#10),#5);
#2=IFCSIUNIT(*,.LENGTHUNIT.,.MILLI.,.METRE.);
#3=IFCSIUNIT(*,.AREAUNIT.,$,.SQUARE_METRE.);
#4=IFCSIUNIT(*,.VOLUMEUNIT.,$,.CUBIC_METRE.);
#5=IFCUNITASSIGNMENT((#3,#4,#2));
#6=IFCCARTESIANPOINT((0.,0.,0.));
#7=IFCDIRECTION((0.,0.,1.));
#8=IFCDIRECTION((1.,0.,0.));
#9=IFCAXIS2PLACEMENT3D(#6,#7,#8);
#10=IFCGEOMETRICREPRESENTATIONCONTEXT($,'Model',3,1.0000000000000001E-05,#9,$);
#11=IFCGEOMETRICREPRESENTATIONSUBCONTEXT('Body','Model',*,*,*,*,#10,$,.MODEL_VIEW.,$);
#12=IFCSITE('3QKXnlv3v9vetcJEIwWkJ_',$,'Default Site',$,$,$,$,$,$,$,$,$,$,$);
#13=IFCBUILDING('04DWHGlYH4PfZrdFRrOpq8',$,'Archicad Task Building',$,$,$,$,$,$,$,$,$);
#14=IFCRELAGGREGATES('1NR$J4jCH9BuaW8IaKhRyw',$,$,$,#1,(#12));
#15=IFCRELAGGREGATES('32uK6_unLEJPgCQ5naMIvr',$,$,$,#12,(#13));
#16=IFCBUILDINGSTOREY('3gRxmqQk14kACltPpUpACx',$,'Ground Floor',$,$,#22,$,$,$,$);
#17=IFCRELAGGREGATES('0NJrY5nA19EeJdGzz0De3P',$,$,$,#13,(#16));
#18=IFCCARTESIANPOINT((0.,0.,0.));
#19=IFCDIRECTION((0.,0.,1.));
#20=IFCDIRECTION((1.,0.,0.));
#21=IFCAXIS2PLACEMENT3D(#18,#19,#20);
#22=IFCLOCALPLACEMENT($,#21);
#23=IFCWALL('24IcTuJ6H2IfnTmx_WkNr$',$,'Exterior Wall 1',$,$,#45,#34,$,$);
#24=IFCCARTESIANPOINTLIST2D(((0.,0.),(0.,200.),(16000.,200.),(16000.,0.),(0.,0.)));
#25=IFCINDEXEDPOLYCURVE(#24,$,.F.);
#26=IFCDIRECTION((0.,0.,1.));
#27=IFCARBITRARYCLOSEDPROFILEDEF(.AREA.,$,#25);
#28=IFCCARTESIANPOINT((0.,0.,0.));
#29=IFCDIRECTION((0.,0.,1.));
#30=IFCDIRECTION((1.,0.,0.));
#31=IFCAXIS2PLACEMENT3D(#28,#29,#30);
#32=IFCEXTRUDEDAREASOLID(#27,#31,#26,3000.);
#33=IFCSHAPEREPRESENTATION(#11,'Body','SweptSolid',(#32));
#34=IFCPRODUCTDEFINITIONSHAPE($,$,(#33));
#40=IFCRELCONTAINEDINSPATIALSTRUCTURE('1b6PwVkXzEmPeBR7JEahC8',$,$,$,(#963,#1018,#350,#1073,#878,#1128,#68,#538,#46,#23,#310,#332,#90,#222,#200,#266,#112,#244,#156,#178,#453,#134,#793,#288,#368,#708,#623),#16);
#41=IFCCARTESIANPOINT((0.,0.,0.));
#42=IFCDIRECTION((0.,0.,1.));
#43=IFCDIRECTION((1.,0.,0.));
#44=IFCAXIS2PLACEMENT3D(#41,#42,#43);
#45=IFCLOCALPLACEMENT(#22,#44);
#46=IFCWALL('1znHJybGT4YuqB3f21C_lA',$,'Exterior Wall 2',$,$,#67,#57,$,$);
#47=IFCCARTESIANPOINTLIST2D(((0.,0.),(0.,200.),(16000.,200.),(16000.,0.),(0.,0.)));
#48=IFCINDEXEDPOLYCURVE(#47,$,.F.);
#49=IFCDIRECTION((0.,0.,1.));
#50=IFCARBITRARYCLOSEDPROFILEDEF(.AREA.,$,#48);
#51=IFCCARTESIANPOINT((0.,0.,0.));
#52=IFCDIRECTION((0.,0.,1.));
#53=IFCDIRECTION((1.,0.,0.));
#54=IFCAXIS2PLACEMENT3D(#51,#52,#53);
#55=IFCEXTRUDEDAREASOLID(#50,#54,#49,3000.);
#56=IFCSHAPEREPRESENTATION(#11,'Body','SweptSolid',(#55));
#57=IFCPRODUCTDEFINITIONSHAPE($,$,(#56));
#63=IFCCARTESIANPOINT((0.,7000.,0.));
#64=IFCDIRECTION((0.,0.,1.));
#65=IFCDIRECTION((1.,0.,0.));
#66=IFCAXIS2PLACEMENT3D(#63,#64,#65);
#67=IFCLOCALPLACEMENT(#22,#66);
#68=IFCWALL('1CcWpFQW136ACoH64ySpkL',$,'Exterior Wall 3',$,$,#89,#79,$,$);
#69=IFCCARTESIANPOINTLIST2D(((0.,0.),(0.,200.),(7000.,200.),(7000.,0.),(0.,0.)));
#70=IFCINDEXEDPOLYCURVE(#69,$,.F.);
#71=IFCDIRECTION((0.,0.,1.));
#72=IFCARBITRARYCLOSEDPROFILEDEF(.AREA.,$,#70);
#73=IFCCARTESIANPOINT((0.,0.,0.));
#74=IFCDIRECTION((0.,0.,1.));
#75=IFCDIRECTION((1.,0.,0.));
#76=IFCAXIS2PLACEMENT3D(#73,#74,#75);
#77=IFCEXTRUDEDAREASOLID(#72,#76,#71,3000.);
#78=IFCSHAPEREPRESENTATION(#11,'Body','SweptSolid',(#77));
#79=IFCPRODUCTDEFINITIONSHAPE($,$,(#78));
#85=IFCCARTESIANPOINT((0.,0.,0.));
#86=IFCDIRECTION((0.,0.,1.));
#87=IFCDIRECTION((6.123233995736766E-17,1.,0.));
#88=IFCAXIS2PLACEMENT3D(#85,#86,#87);
#89=IFCLOCALPLACEMENT(#22,#88);
#90=IFCWALL('3HWFlbfbbERQpiHelps9KC',$,'Exterior Wall 4',$,$,#111,#101,$,$);
#91=IFCCARTESIANPOINTLIST2D(((0.,0.),(0.,200.),(7000.,200.),(7000.,0.),(0.,0.)));
#92=IFCINDEXEDPOLYCURVE(#91,$,.F.);
#93=IFCDIRECTION((0.,0.,1.));
#94=IFCARBITRARYCLOSEDPROFILEDEF(.AREA.,$,#92);
#95=IFCCARTESIANPOINT((0.,0.,0.));
#96=IFCDIRECTION((0.,0.,1.));
#97=IFCDIRECTION((1.,0.,0.));
#98=IFCAXIS2PLACEMENT3D(#95,#96,#97);
#99=IFCEXTRUDEDAREASOLID(#94,#98,#93,3000.);
#100=IFCSHAPEREPRESENTATION(#11,'Body','SweptSolid',(#99));
#101=IFCPRODUCTDEFINITIONSHAPE($,$,(#100));
#107=IFCCARTESIANPOINT((16000.,0.,0.));
#108=IFCDIRECTION((0.,0.,1.));
#109=IFCDIRECTION((6.123233995736766E-17,1.,0.));
#110=IFCAXIS2PLACEMENT3D(#107,#108,#109);
#111=IFCLOCALPLACEMENT(#22,#110);
#112=IFCWALL('0FCi_6ntPAIRd6HH2Udk0L',$,'Interior Partition 1',$,$,#133,#123,$,$);
#113=IFCCARTESIANPOINTLIST2D(((0.,0.),(0.,120.),(6599.9999999999991,120.),(6599.9999999999991,0.),(0.,0.)));
#114=IFCINDEXEDPOLYCURVE(#113,$,.F.);
#115=IFCDIRECTION((0.,0.,1.));
#116=IFCARBITRARYCLOSEDPROFILEDEF(.AREA.,$,#114);
#117=IFCCARTESIANPOINT((0.,0.,0.));
#118=IFCDIRECTION((0.,0.,1.));
#119=IFCDIRECTION((1.,0.,0.));
#120=IFCAXIS2PLACEMENT3D(#117,#118,#119);
#121=IFCEXTRUDEDAREASOLID(#116,#120,#115,3000.);
#122=IFCSHAPEREPRESENTATION(#11,'Body','SweptSolid',(#121));
#123=IFCPRODUCTDEFINITIONSHAPE($,$,(#122));
#129=IFCCARTESIANPOINT((1454.5454545454545,200.,0.));
#130=IFCDIRECTION((0.,0.,1.));
#131=IFCDIRECTION((6.123233995736766E-17,1.,0.));
#132=IFCAXIS2PLACEMENT3D(#129,#130,#131);
#133=IFCLOCALPLACEMENT(#22,#132);
#134=IFCWALL('0Cf8Xu_NXA0wA$igsPMUvM',$,'Interior Partition 2',$,$,#155,#145,$,$);
#135=IFCCARTESIANPOINTLIST2D(((0.,0.),(0.,120.),(6599.9999999999991,120.),(6599.9999999999991,0.),(0.,0.)));
#136=IFCINDEXEDPOLYCURVE(#135,$,.F.);
#137=IFCDIRECTION((0.,0.,1.));
#138=IFCARBITRARYCLOSEDPROFILEDEF(.AREA.,$,#136);
#139=IFCCARTESIANPOINT((0.,0.,0.));
#140=IFCDIRECTION((0.,0.,1.));
#141=IFCDIRECTION((1.,0.,0.));
#142=IFCAXIS2PLACEMENT3D(#139,#140,#141);
#143=IFCEXTRUDEDAREASOLID(#138,#142,#137,3000.);
#144=IFCSHAPEREPRESENTATION(#11,'Body','SweptSolid',(#143));
#145=IFCPRODUCTDEFINITIONSHAPE($,$,(#144));
#151=IFCCARTESIANPOINT((2909.090909090909,200.,0.));
#152=IFCDIRECTION((0.,0.,1.));
#153=IFCDIRECTION((6.123233995736766E-17,1.,0.));
#154=IFCAXIS2PLACEMENT3D(#151,#152,#153);
#155=IFCLOCALPLACEMENT(#22,#154);
#156=IFCWALL('06ofEKsyn3tQpYaxJK9M0j',$,'Interior Partition 3',$,$,#177,#167,$,$);
#157=IFCCARTESIANPOINTLIST2D(((0.,0.),(0.,120.),(6599.9999999999991,120.),(6599.9999999999991,0.),(0.,0.)));
#158=IFCINDEXEDPOLYCURVE(#157,$,.F.);
#159=IFCDIRECTION((0.,0.,1.));
#160=IFCARBITRARYCLOSEDPROFILEDEF(.AREA.,$,#158);
#161=IFCCARTESIANPOINT((0.,0.,0.));
#162=IFCDIRECTION((0.,0.,1.));
#163=IFCDIRECTION((1.,0.,0.));
#164=IFCAXIS2PLACEMENT3D(#161,#162,#163);
#165=IFCEXTRUDEDAREASOLID(#160,#164,#159,3000.);
#166=IFCSHAPEREPRESENTATION(#11,'Body','SweptSolid',(#165));
#167=IFCPRODUCTDEFINITIONSHAPE($,$,(#166));
#173=IFCCARTESIANPOINT((4363.6363636363631,200.,0.));
#174=IFCDIRECTION((0.,0.,1.));
#175=IFCDIRECTION((6.123233995736766E-17,1.,0.));
#176=IFCAXIS2PLACEMENT3D(#173,#174,#175);
#177=IFCLOCALPLACEMENT(#22,#176);
#178=IFCWALL('2o9woAT3LEIeWcICXNN6jB',$,'Interior Partition 4',$,$,#199,#189,$,$);
#179=IFCCARTESIANPOINTLIST2D(((0.,0.),(0.,120.),(6599.9999999999991,120.),(6599.9999999999991,0.),(0.,0.)));
#180=IFCINDEXEDPOLYCURVE(#179,$,.F.);
#181=IFCDIRECTION((0.,0.,1.));
#182=IFCARBITRARYCLOSEDPROFILEDEF(.AREA.,$,#180);
#183=IFCCARTESIANPOINT((0.,0.,0.));
#184=IFCDIRECTION((0.,0.,1.));
#185=IFCDIRECTION((1.,0.,0.));
#186=IFCAXIS2PLACEMENT3D(#183,#184,#185);
#187=IFCEXTRUDEDAREASOLID(#182,#186,#181,3000.);
#188=IFCSHAPEREPRESENTATION(#11,'Body','SweptSolid',(#187));
#189=IFCPRODUCTDEFINITIONSHAPE($,$,(#188));
#195=IFCCARTESIANPOINT((5818.181818181818,200.,0.));
#196=IFCDIRECTION((0.,0.,1.));
#197=IFCDIRECTION((6.123233995736766E-17,1.,0.));
#198=IFCAXIS2PLACEMENT3D(#195,#196,#197);
#199=IFCLOCALPLACEMENT(#22,#198);
#200=IFCWALL('0wT5ST2xP6RBmriA8X7KEk',$,'Interior Partition 5',$,$,#221,#211,$,$);
#201=IFCCARTESIANPOINTLIST2D(((0.,0.),(0.,120.),(6599.9999999999991,120.),(6599.9999999999991,0.),(0.,0.)));
#202=IFCINDEXEDPOLYCURVE(#201,$,.F.);
#203=IFCDIRECTION((0.,0.,1.));
#204=IFCARBITRARYCLOSEDPROFILEDEF(.AREA.,$,#202);
#205=IFCCARTESIANPOINT((0.,0.,0.));
#206=IFCDIRECTION((0.,0.,1.));
#207=IFCDIRECTION((1.,0.,0.));
#208=IFCAXIS2PLACEMENT3D(#205,#206,#207);
#209=IFCEXTRUDEDAREASOLID(#204,#208,#203,3000.);
#210=IFCSHAPEREPRESENTATION(#11,'Body','SweptSolid',(#209));
#211=IFCPRODUCTDEFINITIONSHAPE($,$,(#210));
#217=IFCCARTESIANPOINT((7272.7272727272721,200.,0.));
#218=IFCDIRECTION((0.,0.,1.));
#219=IFCDIRECTION((6.123233995736766E-17,1.,0.));
#220=IFCAXIS2PLACEMENT3D(#217,#218,#219);
#221=IFCLOCALPLACEMENT(#22,#220);
#222=IFCWALL('0Un4RHjIf65QEZJEb1YY9F',$,'Interior Partition 6',$,$,#243,#233,$,$);
#223=IFCCARTESIANPOINTLIST2D(((0.,0.),(0.,120.),(6599.9999999999991,120.),(6599.9999999999991,0.),(0.,0.)));
#224=IFCINDEXEDPOLYCURVE(#223,$,.F.);
#225=IFCDIRECTION((0.,0.,1.));
#226=IFCARBITRARYCLOSEDPROFILEDEF(.AREA.,$,#224);
#227=IFCCARTESIANPOINT((0.,0.,0.));
#228=IFCDIRECTION((0.,0.,1.));
#229=IFCDIRECTION((1.,0.,0.));
#230=IFCAXIS2PLACEMENT3D(#227,#228,#229);
#231=IFCEXTRUDEDAREASOLID(#226,#230,#225,3000.);
#232=IFCSHAPEREPRESENTATION(#11,'Body','SweptSolid',(#231));
#233=IFCPRODUCTDEFINITIONSHAPE($,$,(#232));
#239=IFCCARTESIANPOINT((8727.2727272727261,200.,0.));
#240=IFCDIRECTION((0.,0.,1.));
#241=IFCDIRECTION((6.123233995736766E-17,1.,0.));
#242=IFCAXIS2PLACEMENT3D(#239,#240,#241);
#243=IFCLOCALPLACEMENT(#22,#242);
#244=IFCWALL('3OLRczspHCF8nhC5TeJCDQ',$,'Interior Partition 7',$,$,#265,#255,$,$);
#245=IFCCARTESIANPOINTLIST2D(((0.,0.),(0.,120.),(6599.9999999999991,120.),(6599.9999999999991,0.),(0.,0.)));
#246=IFCINDEXEDPOLYCURVE(#245,$,.F.);
#247=IFCDIRECTION((0.,0.,1.));
#248=IFCARBITRARYCLOSEDPROFILEDEF(.AREA.,$,#246);
#249=IFCCARTESIANPOINT((0.,0.,0.));
#250=IFCDIRECTION((0.,0.,1.));
#251=IFCDIRECTION((1.,0.,0.));
#252=IFCAXIS2PLACEMENT3D(#249,#250,#251);
#253=IFCEXTRUDEDAREASOLID(#248,#252,#247,3000.);
#254=IFCSHAPEREPRESENTATION(#11,'Body','SweptSolid',(#253));
#255=IFCPRODUCTDEFINITIONSHAPE($,$,(#254));
#261=IFCCARTESIANPOINT((10181.818181818182,200.,0.));
#262=IFCDIRECTION((0.,0.,1.));
#263=IFCDIRECTION((6.123233995736766E-17,1.,0.));
#264=IFCAXIS2PLACEMENT3D(#261,#262,#263);
#265=IFCLOCALPLACEMENT(#22,#264);
#266=IFCWALL('385CUmAE9AH9D_E66O8Ftm',$,'Interior Partition 8',$,$,#287,#277,$,$);
#267=IFCCARTESIANPOINTLIST2D(((0.,0.),(0.,120.),(6599.9999999999991,120.),(6599.9999999999991,0.),(0.,0.)));
#268=IFCINDEXEDPOLYCURVE(#267,$,.F.);
#269=IFCDIRECTION((0.,0.,1.));
#270=IFCARBITRARYCLOSEDPROFILEDEF(.AREA.,$,#268);
#271=IFCCARTESIANPOINT((0.,0.,0.));
#272=IFCDIRECTION((0.,0.,1.));
#273=IFCDIRECTION((1.,0.,0.));
#274=IFCAXIS2PLACEMENT3D(#271,#272,#273);
#275=IFCEXTRUDEDAREASOLID(#270,#274,#269,3000.);
#276=IFCSHAPEREPRESENTATION(#11,'Body','SweptSolid',(#275));
#277=IFCPRODUCTDEFINITIONSHAPE($,$,(#276));
#283=IFCCARTESIANPOINT((11636.363636363636,200.,0.));
#284=IFCDIRECTION((0.,0.,1.));
#285=IFCDIRECTION((6.123233995736766E-17,1.,0.));
#286=IFCAXIS2PLACEMENT3D(#283,#284,#285);
#287=IFCLOCALPLACEMENT(#22,#286);
#288=IFCWALL('1zYdmjuUT2qwpsYildjhMA',$,'Interior Partition 9',$,$,#309,#299,$,$);
#289=IFCCARTESIANPOINTLIST2D(((0.,0.),(0.,120.),(6599.9999999999991,120.),(6599.9999999999991,0.),(0.,0.)));
#290=IFCINDEXEDPOLYCURVE(#289,$,.F.);
#291=IFCDIRECTION((0.,0.,1.));
#292=IFCARBITRARYCLOSEDPROFILEDEF(.AREA.,$,#290);
#293=IFCCARTESIANPOINT((0.,0.,0.));
#294=IFCDIRECTION((0.,0.,1.));
#295=IFCDIRECTION((1.,0.,0.));
#296=IFCAXIS2PLACEMENT3D(#293,#294,#295);
#297=IFCEXTRUDEDAREASOLID(#292,#296,#291,3000.);
#298=IFCSHAPEREPRESENTATION(#11,'Body','SweptSolid',(#297));
#299=IFCPRODUCTDEFINITIONSHAPE($,$,(#298));
#305=IFCCARTESIANPOINT((13090.909090909092,200.,0.));
#306=IFCDIRECTION((0.,0.,1.));
#307=IFCDIRECTION((6.123233995736766E-17,1.,0.));
#308=IFCAXIS2PLACEMENT3D(#305,#306,#307);
#309=IFCLOCALPLACEMENT(#22,#308);
#310=IFCWALL('3UcAnZE9fEbgaYDVxFiyDg',$,'Interior Partition 10',$,$,#331,#321,$,$);
#311=IFCCARTESIANPOINTLIST2D(((0.,0.),(0.,120.),(6599.9999999999991,120.),(6599.9999999999991,0.),(0.,0.)));
#312=IFCINDEXEDPOLYCURVE(#311,$,.F.);
#313=IFCDIRECTION((0.,0.,1.));
#314=IFCARBITRARYCLOSEDPROFILEDEF(.AREA.,$,#312);
#315=IFCCARTESIANPOINT((0.,0.,0.));
#316=IFCDIRECTION((0.,0.,1.));
#317=IFCDIRECTION((1.,0.,0.));
#318=IFCAXIS2PLACEMENT3D(#315,#316,#317);
#319=IFCEXTRUDEDAREASOLID(#314,#318,#313,3000.);
#320=IFCSHAPEREPRESENTATION(#11,'Body','SweptSolid',(#319));
#321=IFCPRODUCTDEFINITIONSHAPE($,$,(#320));
#327=IFCCARTESIANPOINT((14545.454545454544,200.,0.));
#328=IFCDIRECTION((0.,0.,1.));
#329=IFCDIRECTION((6.123233995736766E-17,1.,0.));
#330=IFCAXIS2PLACEMENT3D(#327,#328,#329);
#331=IFCLOCALPLACEMENT(#22,#330);
#332=IFCSLAB('3XSyN4c7rFFfcDCc0w7MuN',$,'Floor Slab 1',$,$,#349,#339,$,$);
#333=IFCCARTESIANPOINTLIST2D(((0.,0.),(16000.,0.),(16000.,7000.),(0.,7000.),(0.,0.)));
#334=IFCINDEXEDPOLYCURVE(#333,$,$);
#335=IFCDIRECTION((0.,0.,1.));
#336=IFCARBITRARYCLOSEDPROFILEDEF(.AREA.,$,#334);
#337=IFCEXTRUDEDAREASOLID(#336,$,#335,200.);
#338=IFCSHAPEREPRESENTATION(#11,'Body','SweptSolid',(#337));
#339=IFCPRODUCTDEFINITIONSHAPE($,$,(#338));
#345=IFCCARTESIANPOINT((0.,0.,0.));
#346=IFCDIRECTION((0.,0.,1.));
#347=IFCDIRECTION((1.,0.,0.));
#348=IFCAXIS2PLACEMENT3D(#345,#346,#347);
#349=IFCLOCALPLACEMENT(#22,#348);
#350=IFCROOF('1LYHU3$Dr8AA$VSJdK881x',$,'Simple Roof 1',$,$,#367,#357,$,$);
#351=IFCCARTESIANPOINTLIST2D(((0.,0.),(16000.,0.),(16000.,7000.),(0.,7000.),(0.,0.)));
#352=IFCINDEXEDPOLYCURVE(#351,$,$);
#353=IFCDIRECTION((0.,0.,1.));
#354=IFCARBITRARYCLOSEDPROFILEDEF(.AREA.,$,#352);
#355=IFCEXTRUDEDAREASOLID(#354,$,#353,180.);
#356=IFCSHAPEREPRESENTATION(#11,'Body','SweptSolid',(#355));
#357=IFCPRODUCTDEFINITIONSHAPE($,$,(#356));
#363=IFCCARTESIANPOINT((0.,0.,3150.));
#364=IFCDIRECTION((0.,0.,1.));
#365=IFCDIRECTION((1.,0.,0.));
#366=IFCAXIS2PLACEMENT3D(#363,#364,#365);
#367=IFCLOCALPLACEMENT(#22,#366);
#368=IFCDOOR('2h7sEtALH0z9xAts5yGWJB',$,'Door 1',$,$,#452,#442,$,$,$,$,$,$);
#369=IFCCARTESIANPOINTLIST2D(((0.,0.),(0.,2.1000000000000001),(0.90000000000000002,2.1000000000000001),(0.90000000000000002,0.),(-24.100000000000001,0.),(-24.100000000000001,-22.899999999999999),(25.,-22.899999999999999),(25.,0.)));
#370=IFCINDEXEDPOLYCURVE(#369,(IFCLINEINDEX((1,2,3,4,5,6,7,8,1))),$);
#371=IFCARBITRARYCLOSEDPROFILEDEF(.AREA.,$,#370);
#372=IFCCARTESIANPOINT((0.,25.,0.));
#373=IFCDIRECTION((0.,-1.,0.));
#374=IFCDIRECTION((1.,0.,0.));
#375=IFCAXIS2PLACEMENT3D(#372,#373,#374);
#376=IFCDIRECTION((0.,0.,-1.));
#377=IFCEXTRUDEDAREASOLID(#371,#375,#376,25.);
#378=IFCCARTESIANPOINTLIST2D(((0.,0.),(0.,2.1000000000000001),(0.90000000000000002,2.1000000000000001),(0.90000000000000002,0.),(-49.100000000000001,0.),(-49.100000000000001,-47.899999999999999),(50.,-47.899999999999999),(50.,0.)));
#379=IFCINDEXEDPOLYCURVE(#378,(IFCLINEINDEX((1,2,3,4,5,6,7,8,1))),$);
#380=IFCARBITRARYCLOSEDPROFILEDEF(.AREA.,$,#379);
#381=IFCCARTESIANPOINT((0.,0.,0.));
#382=IFCDIRECTION((0.,-1.,0.));
#383=IFCDIRECTION((1.,0.,0.));
#384=IFCAXIS2PLACEMENT3D(#381,#382,#383);
#385=IFCDIRECTION((0.,0.,-1.));
#386=IFCEXTRUDEDAREASOLID(#380,#384,#385,25.);
#387=IFCCARTESIANPOINTLIST2D(((0.,0.),(-99.099999999999994,0.),(-99.099999999999994,100.),(0.,100.)));
#388=IFCINDEXEDPOLYCURVE(#387,(IFCLINEINDEX((1,2,3,4,1))),$);
#389=IFCARBITRARYCLOSEDPROFILEDEF(.AREA.,$,#388);
#390=IFCCARTESIANPOINT((50.,0.,0.));
#391=IFCDIRECTION((0.,0.,1.));
#392=IFCDIRECTION((1.,0.,0.));
#393=IFCAXIS2PLACEMENT3D(#390,#391,#392);
#394=IFCDIRECTION((0.,0.,1.));
#395=IFCEXTRUDEDAREASOLID(#389,#393,#394,25.);
#396=IFCCARTESIANPOINTLIST2D(((0.,0.),(0.,27.100000000000001),(50.899999999999999,27.100000000000001),(50.899999999999999,0.),(-24.100000000000001,0.),(-24.100000000000001,-47.899999999999999),(75.,-47.899999999999999),(75.,0.)));
#397=IFCINDEXEDPOLYCURVE(#396,(IFCLINEINDEX((1,2,3,4,5,6,7,8,1))),$);
#398=IFCARBITRARYCLOSEDPROFILEDEF(.AREA.,$,#397);
#399=IFCCARTESIANPOINT((-25.,-5.,0.));
#400=IFCDIRECTION((0.,-1.,0.));
#401=IFCDIRECTION((1.,0.,0.));
#402=IFCAXIS2PLACEMENT3D(#399,#400,#401);
#403=IFCDIRECTION((0.,0.,-1.));
#404=IFCEXTRUDEDAREASOLID(#398,#402,#403,5.);
#405=IFCCARTESIANPOINTLIST2D(((0.,0.),(0.,27.100000000000001),(50.899999999999999,27.100000000000001),(50.899999999999999,0.),(0.89999999999999858,0.),(0.89999999999999858,-22.899999999999999),(50.,-22.899999999999999),(50.,0.)));
#406=IFCINDEXEDPOLYCURVE(#405,(IFCLINEINDEX((1,2,3,4,5,6,7,8,1))),$);
#407=IFCARBITRARYCLOSEDPROFILEDEF(.AREA.,$,#406);
#408=IFCCARTESIANPOINT((-25.,50.,0.));
#409=IFCDIRECTION((0.,-1.,0.));
#410=IFCDIRECTION((1.,0.,0.));
#411=IFCAXIS2PLACEMENT3D(#408,#409,#410);
#412=IFCDIRECTION((0.,0.,-1.));
#413=IFCEXTRUDEDAREASOLID(#407,#411,#412,5.);
#414=IFCCARTESIANPOINTLIST2D(((0.,0.),(-49.100000000000001,0.),(-49.100000000000001,35.),(0.,35.)));
#415=IFCINDEXEDPOLYCURVE(#414,(IFCLINEINDEX((1,2,3,4,1))),$);
#416=IFCARBITRARYCLOSEDPROFILEDEF(.AREA.,$,#415);
#417=IFCCARTESIANPOINT((25.,25.,25.));
#418=IFCDIRECTION((0.,0.,1.));
#419=IFCDIRECTION((1.,0.,0.));
#420=IFCAXIS2PLACEMENT3D(#417,#418,#419);
#421=IFCDIRECTION((0.,0.,1.));
#422=IFCEXTRUDEDAREASOLID(#416,#420,#421,-47.899999999999999);
#423=IFCCARTESIANPOINTLIST2D(((0.,0.),(0.,-40.),(-120.00000000000003,-40.),(-120.00000000000003,-20.),(-20.,-20.),(-20.,0.)));
#424=IFCINDEXEDPOLYCURVE(#423,(IFCLINEINDEX((1,2,3,4,5,6,1))),$);
#425=IFCARBITRARYCLOSEDPROFILEDEF(.AREA.,$,#424);
#426=IFCCARTESIANPOINT((-74.099999999999994,25.,1015.));
#427=IFCDIRECTION((0.,0.,1.));
#428=IFCDIRECTION((1.,0.,0.));
#429=IFCAXIS2PLACEMENT3D(#426,#427,#428);
#430=IFCDIRECTION((0.,0.,1.));
#431=IFCEXTRUDEDAREASOLID(#425,#429,#430,20.);
#432=IFCEXTRUDEDAREASOLID(#433,#436,#440,20.);
#433=IFCARBITRARYCLOSEDPROFILEDEF(.AREA.,$,#434);
#434=IFCINDEXEDPOLYCURVE(#435,(IFCLINEINDEX((1,2,3,4,5,6,1))),$);
#435=IFCCARTESIANPOINTLIST2D(((0.,0.),(0.,40.),(-120.00000000000003,40.),(-120.00000000000003,20.),(-20.,20.),(-20.,0.)));
#436=IFCAXIS2PLACEMENT3D(#437,#438,#439);
#437=IFCCARTESIANPOINT((-74.099999999999994,60.,1015.));
#438=IFCDIRECTION((0.,0.,1.));
#439=IFCDIRECTION((1.,0.,0.));
#440=IFCDIRECTION((0.,0.,1.));
#441=IFCSHAPEREPRESENTATION(#11,'Body','SweptSolid',(#377,#386,#422,#431,#432,#395,#404,#413));
#442=IFCPRODUCTDEFINITIONSHAPE($,$,(#441));
#448=IFCCARTESIANPOINT((800.,-50.,0.));
#449=IFCDIRECTION((0.,0.,1.));
#450=IFCDIRECTION((1.,0.,0.));
#451=IFCAXIS2PLACEMENT3D(#448,#449,#450);
#452=IFCLOCALPLACEMENT(#22,#451);
#453=IFCDOOR('0ejLMBAXP6mPnTaJJD_yhS',$,'Door 2',$,$,#537,#527,$,$,$,$,$,$);
#454=IFCCARTESIANPOINTLIST2D(((0.,0.),(0.,2.1000000000000001),(0.90000000000000002,2.1000000000000001),(0.90000000000000002,0.),(-24.100000000000001,0.),(-24.100000000000001,-22.899999999999999),(25.,-22.899999999999999),(25.,0.)));
#455=IFCINDEXEDPOLYCURVE(#454,(IFCLINEINDEX((1,2,3,4,5,6,7,8,1))),$);
#456=IFCARBITRARYCLOSEDPROFILEDEF(.AREA.,$,#455);
#457=IFCCARTESIANPOINT((0.,25.,0.));
#458=IFCDIRECTION((0.,-1.,0.));
#459=IFCDIRECTION((1.,0.,0.));
#460=IFCAXIS2PLACEMENT3D(#457,#458,#459);
#461=IFCDIRECTION((0.,0.,-1.));
#462=IFCEXTRUDEDAREASOLID(#456,#460,#461,25.);
#463=IFCCARTESIANPOINTLIST2D(((0.,0.),(0.,2.1000000000000001),(0.90000000000000002,2.1000000000000001),(0.90000000000000002,0.),(-49.100000000000001,0.),(-49.100000000000001,-47.899999999999999),(50.,-47.899999999999999),(50.,0.)));
#464=IFCINDEXEDPOLYCURVE(#463,(IFCLINEINDEX((1,2,3,4,5,6,7,8,1))),$);
#465=IFCARBITRARYCLOSEDPROFILEDEF(.AREA.,$,#464);
#466=IFCCARTESIANPOINT((0.,0.,0.));
#467=IFCDIRECTION((0.,-1.,0.));
#468=IFCDIRECTION((1.,0.,0.));
#469=IFCAXIS2PLACEMENT3D(#466,#467,#468);
#470=IFCDIRECTION((0.,0.,-1.));
#471=IFCEXTRUDEDAREASOLID(#465,#469,#470,25.);
#472=IFCCARTESIANPOINTLIST2D(((0.,0.),(-99.099999999999994,0.),(-99.099999999999994,100.),(0.,100.)));
#473=IFCINDEXEDPOLYCURVE(#472,(IFCLINEINDEX((1,2,3,4,1))),$);
#474=IFCARBITRARYCLOSEDPROFILEDEF(.AREA.,$,#473);
#475=IFCCARTESIANPOINT((50.,0.,0.));
#476=IFCDIRECTION((0.,0.,1.));
#477=IFCDIRECTION((1.,0.,0.));
#478=IFCAXIS2PLACEMENT3D(#475,#476,#477);
#479=IFCDIRECTION((0.,0.,1.));
#480=IFCEXTRUDEDAREASOLID(#474,#478,#479,25.);
#481=IFCCARTESIANPOINTLIST2D(((0.,0.),(0.,27.100000000000001),(50.899999999999999,27.100000000000001),(50.899999999999999,0.),(-24.100000000000001,0.),(-24.100000000000001,-47.899999999999999),(75.,-47.899999999999999),(75.,0.)));
#482=IFCINDEXEDPOLYCURVE(#481,(IFCLINEINDEX((1,2,3,4,5,6,7,8,1))),$);
#483=IFCARBITRARYCLOSEDPROFILEDEF(.AREA.,$,#482);
#484=IFCCARTESIANPOINT((-25.,-5.,0.));
#485=IFCDIRECTION((0.,-1.,0.));
#486=IFCDIRECTION((1.,0.,0.));
#487=IFCAXIS2PLACEMENT3D(#484,#485,#486);
#488=IFCDIRECTION((0.,0.,-1.));
#489=IFCEXTRUDEDAREASOLID(#483,#487,#488,5.);
#490=IFCCARTESIANPOINTLIST2D(((0.,0.),(0.,27.100000000000001),(50.899999999999999,27.100000000000001),(50.899999999999999,0.),(0.89999999999999858,0.),(0.89999999999999858,-22.899999999999999),(50.,-22.899999999999999),(50.,0.)));
#491=IFCINDEXEDPOLYCURVE(#490,(IFCLINEINDEX((1,2,3,4,5,6,7,8,1))),$);
#492=IFCARBITRARYCLOSEDPROFILEDEF(.AREA.,$,#491);
#493=IFCCARTESIANPOINT((-25.,50.,0.));
#494=IFCDIRECTION((0.,-1.,0.));
#495=IFCDIRECTION((1.,0.,0.));
#496=IFCAXIS2PLACEMENT3D(#493,#494,#495);
#497=IFCDIRECTION((0.,0.,-1.));
#498=IFCEXTRUDEDAREASOLID(#492,#496,#497,5.);
#499=IFCCARTESIANPOINTLIST2D(((0.,0.),(-49.100000000000001,0.),(-49.100000000000001,35.),(0.,35.)));
#500=IFCINDEXEDPOLYCURVE(#499,(IFCLINEINDEX((1,2,3,4,1))),$);
#501=IFCARBITRARYCLOSEDPROFILEDEF(.AREA.,$,#500);
#502=IFCCARTESIANPOINT((25.,25.,25.));
#503=IFCDIRECTION((0.,0.,1.));
#504=IFCDIRECTION((1.,0.,0.));
#505=IFCAXIS2PLACEMENT3D(#502,#503,#504);
#506=IFCDIRECTION((0.,0.,1.));
#507=IFCEXTRUDEDAREASOLID(#501,#505,#506,-47.899999999999999);
#508=IFCCARTESIANPOINTLIST2D(((0.,0.),(0.,-40.),(-120.00000000000003,-40.),(-120.00000000000003,-20.),(-20.,-20.),(-20.,0.)));
#509=IFCINDEXEDPOLYCURVE(#508,(IFCLINEINDEX((1,2,3,4,5,6,1))),$);
#510=IFCARBITRARYCLOSEDPROFILEDEF(.AREA.,$,#509);
#511=IFCCARTESIANPOINT((-74.099999999999994,25.,1015.));
#512=IFCDIRECTION((0.,0.,1.));
#513=IFCDIRECTION((1.,0.,0.));
#514=IFCAXIS2PLACEMENT3D(#511,#512,#513);
#515=IFCDIRECTION((0.,0.,1.));
#516=IFCEXTRUDEDAREASOLID(#510,#514,#515,20.);
#517=IFCEXTRUDEDAREASOLID(#518,#521,#525,20.);
#518=IFCARBITRARYCLOSEDPROFILEDEF(.AREA.,$,#519);
#519=IFCINDEXEDPOLYCURVE(#520,(IFCLINEINDEX((1,2,3,4,5,6,1))),$);
#520=IFCCARTESIANPOINTLIST2D(((0.,0.),(0.,40.),(-120.00000000000003,40.),(-120.00000000000003,20.),(-20.,20.),(-20.,0.)));
#521=IFCAXIS2PLACEMENT3D(#522,#523,#524);
#522=IFCCARTESIANPOINT((-74.099999999999994,60.,1015.));
#523=IFCDIRECTION((0.,0.,1.));
#524=IFCDIRECTION((1.,0.,0.));
#525=IFCDIRECTION((0.,0.,1.));
#526=IFCSHAPEREPRESENTATION(#11,'Body','SweptSolid',(#462,#471,#507,#516,#517,#480,#489,#498));
#527=IFCPRODUCTDEFINITIONSHAPE($,$,(#526));
#533=IFCCARTESIANPOINT((1550.,-50.,0.));
#534=IFCDIRECTION((0.,0.,1.));
#535=IFCDIRECTION((1.,0.,0.));
#536=IFCAXIS2PLACEMENT3D(#533,#534,#535);
#537=IFCLOCALPLACEMENT(#22,#536);
#538=IFCDOOR('3cc7egZMD56RsVaH_qpDnC',$,'Door 3',$,$,#622,#612,$,$,$,$,$,$);
#539=IFCCARTESIANPOINTLIST2D(((0.,0.),(0.,2.1000000000000001),(0.90000000000000002,2.1000000000000001),(0.90000000000000002,0.),(-24.100000000000001,0.),(-24.100000000000001,-22.899999999999999),(25.,-22.899999999999999),(25.,0.)));
#540=IFCINDEXEDPOLYCURVE(#539,(IFCLINEINDEX((1,2,3,4,5,6,7,8,1))),$);
#541=IFCARBITRARYCLOSEDPROFILEDEF(.AREA.,$,#540);
#542=IFCCARTESIANPOINT((0.,25.,0.));
#543=IFCDIRECTION((0.,-1.,0.));
#544=IFCDIRECTION((1.,0.,0.));
#545=IFCAXIS2PLACEMENT3D(#542,#543,#544);
#546=IFCDIRECTION((0.,0.,-1.));
#547=IFCEXTRUDEDAREASOLID(#541,#545,#546,25.);
#548=IFCCARTESIANPOINTLIST2D(((0.,0.),(0.,2.1000000000000001),(0.90000000000000002,2.1000000000000001),(0.90000000000000002,0.),(-49.100000000000001,0.),(-49.100000000000001,-47.899999999999999),(50.,-47.899999999999999),(50.,0.)));
#549=IFCINDEXEDPOLYCURVE(#548,(IFCLINEINDEX((1,2,3,4,5,6,7,8,1))),$);
#550=IFCARBITRARYCLOSEDPROFILEDEF(.AREA.,$,#549);
#551=IFCCARTESIANPOINT((0.,0.,0.));
#552=IFCDIRECTION((0.,-1.,0.));
#553=IFCDIRECTION((1.,0.,0.));
#554=IFCAXIS2PLACEMENT3D(#551,#552,#553);
#555=IFCDIRECTION((0.,0.,-1.));
#556=IFCEXTRUDEDAREASOLID(#550,#554,#555,25.);
#557=IFCCARTESIANPOINTLIST2D(((0.,0.),(-99.099999999999994,0.),(-99.099999999999994,100.),(0.,100.)));
#558=IFCINDEXEDPOLYCURVE(#557,(IFCLINEINDEX((1,2,3,4,1))),$);
#559=IFCARBITRARYCLOSEDPROFILEDEF(.AREA.,$,#558);
#560=IFCCARTESIANPOINT((50.,0.,0.));
#561=IFCDIRECTION((0.,0.,1.));
#562=IFCDIRECTION((1.,0.,0.));
#563=IFCAXIS2PLACEMENT3D(#560,#561,#562);
#564=IFCDIRECTION((0.,0.,1.));
#565=IFCEXTRUDEDAREASOLID(#559,#563,#564,25.);
#566=IFCCARTESIANPOINTLIST2D(((0.,0.),(0.,27.100000000000001),(50.899999999999999,27.100000000000001),(50.899999999999999,0.),(-24.100000000000001,0.),(-24.100000000000001,-47.899999999999999),(75.,-47.899999999999999),(75.,0.)));
#567=IFCINDEXEDPOLYCURVE(#566,(IFCLINEINDEX((1,2,3,4,5,6,7,8,1))),$);
#568=IFCARBITRARYCLOSEDPROFILEDEF(.AREA.,$,#567);
#569=IFCCARTESIANPOINT((-25.,-5.,0.));
#570=IFCDIRECTION((0.,-1.,0.));
#571=IFCDIRECTION((1.,0.,0.));
#572=IFCAXIS2PLACEMENT3D(#569,#570,#571);
#573=IFCDIRECTION((0.,0.,-1.));
#574=IFCEXTRUDEDAREASOLID(#568,#572,#573,5.);
#575=IFCCARTESIANPOINTLIST2D(((0.,0.),(0.,27.100000000000001),(50.899999999999999,27.100000000000001),(50.899999999999999,0.),(0.89999999999999858,0.),(0.89999999999999858,-22.899999999999999),(50.,-22.899999999999999),(50.,0.)));
#576=IFCINDEXEDPOLYCURVE(#575,(IFCLINEINDEX((1,2,3,4,5,6,7,8,1))),$);
#577=IFCARBITRARYCLOSEDPROFILEDEF(.AREA.,$,#576);
#578=IFCCARTESIANPOINT((-25.,50.,0.));
#579=IFCDIRECTION((0.,-1.,0.));
#580=IFCDIRECTION((1.,0.,0.));
#581=IFCAXIS2PLACEMENT3D(#578,#579,#580);
#582=IFCDIRECTION((0.,0.,-1.));
#583=IFCEXTRUDEDAREASOLID(#577,#581,#582,5.);
#584=IFCCARTESIANPOINTLIST2D(((0.,0.),(-49.100000000000001,0.),(-49.100000000000001,35.),(0.,35.)));
#585=IFCINDEXEDPOLYCURVE(#584,(IFCLINEINDEX((1,2,3,4,1))),$);
#586=IFCARBITRARYCLOSEDPROFILEDEF(.AREA.,$,#585);
#587=IFCCARTESIANPOINT((25.,25.,25.));
#588=IFCDIRECTION((0.,0.,1.));
#589=IFCDIRECTION((1.,0.,0.));
#590=IFCAXIS2PLACEMENT3D(#587,#588,#589);
#591=IFCDIRECTION((0.,0.,1.));
#592=IFCEXTRUDEDAREASOLID(#586,#590,#591,-47.899999999999999);
#593=IFCCARTESIANPOINTLIST2D(((0.,0.),(0.,-40.),(-120.00000000000003,-40.),(-120.00000000000003,-20.),(-20.,-20.),(-20.,0.)));
#594=IFCINDEXEDPOLYCURVE(#593,(IFCLINEINDEX((1,2,3,4,5,6,1))),$);
#595=IFCARBITRARYCLOSEDPROFILEDEF(.AREA.,$,#594);
#596=IFCCARTESIANPOINT((-74.099999999999994,25.,1015.));
#597=IFCDIRECTION((0.,0.,1.));
#598=IFCDIRECTION((1.,0.,0.));
#599=IFCAXIS2PLACEMENT3D(#596,#597,#598);
#600=IFCDIRECTION((0.,0.,1.));
#601=IFCEXTRUDEDAREASOLID(#595,#599,#600,20.);
#602=IFCEXTRUDEDAREASOLID(#603,#606,#610,20.);
#603=IFCARBITRARYCLOSEDPROFILEDEF(.AREA.,$,#604);
#604=IFCINDEXEDPOLYCURVE(#605,(IFCLINEINDEX((1,2,3,4,5,6,1))),$);
#605=IFCCARTESIANPOINTLIST2D(((0.,0.),(0.,40.),(-120.00000000000003,40.),(-120.00000000000003,20.),(-20.,20.),(-20.,0.)));
#606=IFCAXIS2PLACEMENT3D(#607,#608,#609);
#607=IFCCARTESIANPOINT((-74.099999999999994,60.,1015.));
#608=IFCDIRECTION((0.,0.,1.));
#609=IFCDIRECTION((1.,0.,0.));
#610=IFCDIRECTION((0.,0.,1.));
#611=IFCSHAPEREPRESENTATION(#11,'Body','SweptSolid',(#547,#556,#592,#601,#602,#565,#574,#583));
#612=IFCPRODUCTDEFINITIONSHAPE($,$,(#611));
#618=IFCCARTESIANPOINT((2300.,-50.,0.));
#619=IFCDIRECTION((0.,0.,1.));
#620=IFCDIRECTION((1.,0.,0.));
#621=IFCAXIS2PLACEMENT3D(#618,#619,#620);
#622=IFCLOCALPLACEMENT(#22,#621);
#623=IFCDOOR('2cYSjxkpzAWvhZ52A17tt_',$,'Door 4',$,$,#707,#697,$,$,$,$,$,$);
#624=IFCCARTESIANPOINTLIST2D(((0.,0.),(0.,2.1000000000000001),(0.90000000000000002,2.1000000000000001),(0.90000000000000002,0.),(-24.100000000000001,0.),(-24.100000000000001,-22.899999999999999),(25.,-22.899999999999999),(25.,0.)));
#625=IFCINDEXEDPOLYCURVE(#624,(IFCLINEINDEX((1,2,3,4,5,6,7,8,1))),$);
#626=IFCARBITRARYCLOSEDPROFILEDEF(.AREA.,$,#625);
#627=IFCCARTESIANPOINT((0.,25.,0.));
#628=IFCDIRECTION((0.,-1.,0.));
#629=IFCDIRECTION((1.,0.,0.));
#630=IFCAXIS2PLACEMENT3D(#627,#628,#629);
#631=IFCDIRECTION((0.,0.,-1.));
#632=IFCEXTRUDEDAREASOLID(#626,#630,#631,25.);
#633=IFCCARTESIANPOINTLIST2D(((0.,0.),(0.,2.1000000000000001),(0.90000000000000002,2.1000000000000001),(0.90000000000000002,0.),(-49.100000000000001,0.),(-49.100000000000001,-47.899999999999999),(50.,-47.899999999999999),(50.,0.)));
#634=IFCINDEXEDPOLYCURVE(#633,(IFCLINEINDEX((1,2,3,4,5,6,7,8,1))),$);
#635=IFCARBITRARYCLOSEDPROFILEDEF(.AREA.,$,#634);
#636=IFCCARTESIANPOINT((0.,0.,0.));
#637=IFCDIRECTION((0.,-1.,0.));
#638=IFCDIRECTION((1.,0.,0.));
#639=IFCAXIS2PLACEMENT3D(#636,#637,#638);
#640=IFCDIRECTION((0.,0.,-1.));
#641=IFCEXTRUDEDAREASOLID(#635,#639,#640,25.);
#642=IFCCARTESIANPOINTLIST2D(((0.,0.),(-99.099999999999994,0.),(-99.099999999999994,100.),(0.,100.)));
#643=IFCINDEXEDPOLYCURVE(#642,(IFCLINEINDEX((1,2,3,4,1))),$);
#644=IFCARBITRARYCLOSEDPROFILEDEF(.AREA.,$,#643);
#645=IFCCARTESIANPOINT((50.,0.,0.));
#646=IFCDIRECTION((0.,0.,1.));
#647=IFCDIRECTION((1.,0.,0.));
#648=IFCAXIS2PLACEMENT3D(#645,#646,#647);
#649=IFCDIRECTION((0.,0.,1.));
#650=IFCEXTRUDEDAREASOLID(#644,#648,#649,25.);
#651=IFCCARTESIANPOINTLIST2D(((0.,0.),(0.,27.100000000000001),(50.899999999999999,27.100000000000001),(50.899999999999999,0.),(-24.100000000000001,0.),(-24.100000000000001,-47.899999999999999),(75.,-47.899999999999999),(75.,0.)));
#652=IFCINDEXEDPOLYCURVE(#651,(IFCLINEINDEX((1,2,3,4,5,6,7,8,1))),$);
#653=IFCARBITRARYCLOSEDPROFILEDEF(.AREA.,$,#652);
#654=IFCCARTESIANPOINT((-25.,-5.,0.));
#655=IFCDIRECTION((0.,-1.,0.));
#656=IFCDIRECTION((1.,0.,0.));
#657=IFCAXIS2PLACEMENT3D(#654,#655,#656);
#658=IFCDIRECTION((0.,0.,-1.));
#659=IFCEXTRUDEDAREASOLID(#653,#657,#658,5.);
#660=IFCCARTESIANPOINTLIST2D(((0.,0.),(0.,27.100000000000001),(50.899999999999999,27.100000000000001),(50.899999999999999,0.),(0.89999999999999858,0.),(0.89999999999999858,-22.899999999999999),(50.,-22.899999999999999),(50.,0.)));
#661=IFCINDEXEDPOLYCURVE(#660,(IFCLINEINDEX((1,2,3,4,5,6,7,8,1))),$);
#662=IFCARBITRARYCLOSEDPROFILEDEF(.AREA.,$,#661);
#663=IFCCARTESIANPOINT((-25.,50.,0.));
#664=IFCDIRECTION((0.,-1.,0.));
#665=IFCDIRECTION((1.,0.,0.));
#666=IFCAXIS2PLACEMENT3D(#663,#664,#665);
#667=IFCDIRECTION((0.,0.,-1.));
#668=IFCEXTRUDEDAREASOLID(#662,#666,#667,5.);
#669=IFCCARTESIANPOINTLIST2D(((0.,0.),(-49.100000000000001,0.),(-49.100000000000001,35.),(0.,35.)));
#670=IFCINDEXEDPOLYCURVE(#669,(IFCLINEINDEX((1,2,3,4,1))),$);
#671=IFCARBITRARYCLOSEDPROFILEDEF(.AREA.,$,#670);
#672=IFCCARTESIANPOINT((25.,25.,25.));
#673=IFCDIRECTION((0.,0.,1.));
#674=IFCDIRECTION((1.,0.,0.));
#675=IFCAXIS2PLACEMENT3D(#672,#673,#674);
#676=IFCDIRECTION((0.,0.,1.));
#677=IFCEXTRUDEDAREASOLID(#671,#675,#676,-47.899999999999999);
#678=IFCCARTESIANPOINTLIST2D(((0.,0.),(0.,-40.),(-120.00000000000003,-40.),(-120.00000000000003,-20.),(-20.,-20.),(-20.,0.)));
#679=IFCINDEXEDPOLYCURVE(#678,(IFCLINEINDEX((1,2,3,4,5,6,1))),$);
#680=IFCARBITRARYCLOSEDPROFILEDEF(.AREA.,$,#679);
#681=IFCCARTESIANPOINT((-74.099999999999994,25.,1015.));
#682=IFCDIRECTION((0.,0.,1.));
#683=IFCDIRECTION((1.,0.,0.));
#684=IFCAXIS2PLACEMENT3D(#681,#682,#683);
#685=IFCDIRECTION((0.,0.,1.));
#686=IFCEXTRUDEDAREASOLID(#680,#684,#685,20.);
#687=IFCEXTRUDEDAREASOLID(#688,#691,#695,20.);
#688=IFCARBITRARYCLOSEDPROFILEDEF(.AREA.,$,#689);
#689=IFCINDEXEDPOLYCURVE(#690,(IFCLINEINDEX((1,2,3,4,5,6,1))),$);
#690=IFCCARTESIANPOINTLIST2D(((0.,0.),(0.,40.),(-120.00000000000003,40.),(-120.00000000000003,20.),(-20.,20.),(-20.,0.)));
#691=IFCAXIS2PLACEMENT3D(#692,#693,#694);
#692=IFCCARTESIANPOINT((-74.099999999999994,60.,1015.));
#693=IFCDIRECTION((0.,0.,1.));
#694=IFCDIRECTION((1.,0.,0.));
#695=IFCDIRECTION((0.,0.,1.));
#696=IFCSHAPEREPRESENTATION(#11,'Body','SweptSolid',(#632,#641,#677,#686,#687,#650,#659,#668));
#697=IFCPRODUCTDEFINITIONSHAPE($,$,(#696));
#703=IFCCARTESIANPOINT((3049.9999999999995,-50.,0.));
#704=IFCDIRECTION((0.,0.,1.));
#705=IFCDIRECTION((1.,0.,0.));
#706=IFCAXIS2PLACEMENT3D(#703,#704,#705);
#707=IFCLOCALPLACEMENT(#22,#706);
#708=IFCDOOR('1XkTZWcwPEbgrlEXWI8oIQ',$,'Door 5',$,$,#792,#782,$,$,$,$,$,$);
#709=IFCCARTESIANPOINTLIST2D(((0.,0.),(0.,2.1000000000000001),(0.90000000000000002,2.1000000000000001),(0.90000000000000002,0.),(-24.100000000000001,0.),(-24.100000000000001,-22.899999999999999),(25.,-22.899999999999999),(25.,0.)));
#710=IFCINDEXEDPOLYCURVE(#709,(IFCLINEINDEX((1,2,3,4,5,6,7,8,1))),$);
#711=IFCARBITRARYCLOSEDPROFILEDEF(.AREA.,$,#710);
#712=IFCCARTESIANPOINT((0.,25.,0.));
#713=IFCDIRECTION((0.,-1.,0.));
#714=IFCDIRECTION((1.,0.,0.));
#715=IFCAXIS2PLACEMENT3D(#712,#713,#714);
#716=IFCDIRECTION((0.,0.,-1.));
#717=IFCEXTRUDEDAREASOLID(#711,#715,#716,25.);
#718=IFCCARTESIANPOINTLIST2D(((0.,0.),(0.,2.1000000000000001),(0.90000000000000002,2.1000000000000001),(0.90000000000000002,0.),(-49.100000000000001,0.),(-49.100000000000001,-47.899999999999999),(50.,-47.899999999999999),(50.,0.)));
#719=IFCINDEXEDPOLYCURVE(#718,(IFCLINEINDEX((1,2,3,4,5,6,7,8,1))),$);
#720=IFCARBITRARYCLOSEDPROFILEDEF(.AREA.,$,#719);
#721=IFCCARTESIANPOINT((0.,0.,0.));
#722=IFCDIRECTION((0.,-1.,0.));
#723=IFCDIRECTION((1.,0.,0.));
#724=IFCAXIS2PLACEMENT3D(#721,#722,#723);
#725=IFCDIRECTION((0.,0.,-1.));
#726=IFCEXTRUDEDAREASOLID(#720,#724,#725,25.);
#727=IFCCARTESIANPOINTLIST2D(((0.,0.),(-99.099999999999994,0.),(-99.099999999999994,100.),(0.,100.)));
#728=IFCINDEXEDPOLYCURVE(#727,(IFCLINEINDEX((1,2,3,4,1))),$);
#729=IFCARBITRARYCLOSEDPROFILEDEF(.AREA.,$,#728);
#730=IFCCARTESIANPOINT((50.,0.,0.));
#731=IFCDIRECTION((0.,0.,1.));
#732=IFCDIRECTION((1.,0.,0.));
#733=IFCAXIS2PLACEMENT3D(#730,#731,#732);
#734=IFCDIRECTION((0.,0.,1.));
#735=IFCEXTRUDEDAREASOLID(#729,#733,#734,25.);
#736=IFCCARTESIANPOINTLIST2D(((0.,0.),(0.,27.100000000000001),(50.899999999999999,27.100000000000001),(50.899999999999999,0.),(-24.100000000000001,0.),(-24.100000000000001,-47.899999999999999),(75.,-47.899999999999999),(75.,0.)));
#737=IFCINDEXEDPOLYCURVE(#736,(IFCLINEINDEX((1,2,3,4,5,6,7,8,1))),$);
#738=IFCARBITRARYCLOSEDPROFILEDEF(.AREA.,$,#737);
#739=IFCCARTESIANPOINT((-25.,-5.,0.));
#740=IFCDIRECTION((0.,-1.,0.));
#741=IFCDIRECTION((1.,0.,0.));
#742=IFCAXIS2PLACEMENT3D(#739,#740,#741);
#743=IFCDIRECTION((0.,0.,-1.));
#744=IFCEXTRUDEDAREASOLID(#738,#742,#743,5.);
#745=IFCCARTESIANPOINTLIST2D(((0.,0.),(0.,27.100000000000001),(50.899999999999999,27.100000000000001),(50.899999999999999,0.),(0.89999999999999858,0.),(0.89999999999999858,-22.899999999999999),(50.,-22.899999999999999),(50.,0.)));
#746=IFCINDEXEDPOLYCURVE(#745,(IFCLINEINDEX((1,2,3,4,5,6,7,8,1))),$);
#747=IFCARBITRARYCLOSEDPROFILEDEF(.AREA.,$,#746);
#748=IFCCARTESIANPOINT((-25.,50.,0.));
#749=IFCDIRECTION((0.,-1.,0.));
#750=IFCDIRECTION((1.,0.,0.));
#751=IFCAXIS2PLACEMENT3D(#748,#749,#750);
#752=IFCDIRECTION((0.,0.,-1.));
#753=IFCEXTRUDEDAREASOLID(#747,#751,#752,5.);
#754=IFCCARTESIANPOINTLIST2D(((0.,0.),(-49.100000000000001,0.),(-49.100000000000001,35.),(0.,35.)));
#755=IFCINDEXEDPOLYCURVE(#754,(IFCLINEINDEX((1,2,3,4,1))),$);
#756=IFCARBITRARYCLOSEDPROFILEDEF(.AREA.,$,#755);
#757=IFCCARTESIANPOINT((25.,25.,25.));
#758=IFCDIRECTION((0.,0.,1.));
#759=IFCDIRECTION((1.,0.,0.));
#760=IFCAXIS2PLACEMENT3D(#757,#758,#759);
#761=IFCDIRECTION((0.,0.,1.));
#762=IFCEXTRUDEDAREASOLID(#756,#760,#761,-47.899999999999999);
#763=IFCCARTESIANPOINTLIST2D(((0.,0.),(0.,-40.),(-120.00000000000003,-40.),(-120.00000000000003,-20.),(-20.,-20.),(-20.,0.)));
#764=IFCINDEXEDPOLYCURVE(#763,(IFCLINEINDEX((1,2,3,4,5,6,1))),$);
#765=IFCARBITRARYCLOSEDPROFILEDEF(.AREA.,$,#764);
#766=IFCCARTESIANPOINT((-74.099999999999994,25.,1015.));
#767=IFCDIRECTION((0.,0.,1.));
#768=IFCDIRECTION((1.,0.,0.));
#769=IFCAXIS2PLACEMENT3D(#766,#767,#768);
#770=IFCDIRECTION((0.,0.,1.));
#771=IFCEXTRUDEDAREASOLID(#765,#769,#770,20.);
#772=IFCEXTRUDEDAREASOLID(#773,#776,#780,20.);
#773=IFCARBITRARYCLOSEDPROFILEDEF(.AREA.,$,#774);
#774=IFCINDEXEDPOLYCURVE(#775,(IFCLINEINDEX((1,2,3,4,5,6,1))),$);
#775=IFCCARTESIANPOINTLIST2D(((0.,0.),(0.,40.),(-120.00000000000003,40.),(-120.00000000000003,20.),(-20.,20.),(-20.,0.)));
#776=IFCAXIS2PLACEMENT3D(#777,#778,#779);
#777=IFCCARTESIANPOINT((-74.099999999999994,60.,1015.));
#778=IFCDIRECTION((0.,0.,1.));
#779=IFCDIRECTION((1.,0.,0.));
#780=IFCDIRECTION((0.,0.,1.));
#781=IFCSHAPEREPRESENTATION(#11,'Body','SweptSolid',(#717,#726,#762,#771,#772,#735,#744,#753));
#782=IFCPRODUCTDEFINITIONSHAPE($,$,(#781));
#788=IFCCARTESIANPOINT((3799.9999999999995,-50.,0.));
#789=IFCDIRECTION((0.,0.,1.));
#790=IFCDIRECTION((1.,0.,0.));
#791=IFCAXIS2PLACEMENT3D(#788,#789,#790);
#792=IFCLOCALPLACEMENT(#22,#791);
#793=IFCDOOR('1d7RZZ1sr9uAEBLS2Tc3kA',$,'Door 6',$,$,#877,#867,$,$,$,$,$,$);
#794=IFCCARTESIANPOINTLIST2D(((0.,0.),(0.,2.1000000000000001),(0.90000000000000002,2.1000000000000001),(0.90000000000000002,0.),(-24.100000000000001,0.),(-24.100000000000001,-22.899999999999999),(25.,-22.899999999999999),(25.,0.)));
#795=IFCINDEXEDPOLYCURVE(#794,(IFCLINEINDEX((1,2,3,4,5,6,7,8,1))),$);
#796=IFCARBITRARYCLOSEDPROFILEDEF(.AREA.,$,#795);
#797=IFCCARTESIANPOINT((0.,25.,0.));
#798=IFCDIRECTION((0.,-1.,0.));
#799=IFCDIRECTION((1.,0.,0.));
#800=IFCAXIS2PLACEMENT3D(#797,#798,#799);
#801=IFCDIRECTION((0.,0.,-1.));
#802=IFCEXTRUDEDAREASOLID(#796,#800,#801,25.);
#803=IFCCARTESIANPOINTLIST2D(((0.,0.),(0.,2.1000000000000001),(0.90000000000000002,2.1000000000000001),(0.90000000000000002,0.),(-49.100000000000001,0.),(-49.100000000000001,-47.899999999999999),(50.,-47.899999999999999),(50.,0.)));
#804=IFCINDEXEDPOLYCURVE(#803,(IFCLINEINDEX((1,2,3,4,5,6,7,8,1))),$);
#805=IFCARBITRARYCLOSEDPROFILEDEF(.AREA.,$,#804);
#806=IFCCARTESIANPOINT((0.,0.,0.));
#807=IFCDIRECTION((0.,-1.,0.));
#808=IFCDIRECTION((1.,0.,0.));
#809=IFCAXIS2PLACEMENT3D(#806,#807,#808);
#810=IFCDIRECTION((0.,0.,-1.));
#811=IFCEXTRUDEDAREASOLID(#805,#809,#810,25.);
#812=IFCCARTESIANPOINTLIST2D(((0.,0.),(-99.099999999999994,0.),(-99.099999999999994,100.),(0.,100.)));
#813=IFCINDEXEDPOLYCURVE(#812,(IFCLINEINDEX((1,2,3,4,1))),$);
#814=IFCARBITRARYCLOSEDPROFILEDEF(.AREA.,$,#813);
#815=IFCCARTESIANPOINT((50.,0.,0.));
#816=IFCDIRECTION((0.,0.,1.));
#817=IFCDIRECTION((1.,0.,0.));
#818=IFCAXIS2PLACEMENT3D(#815,#816,#817);
#819=IFCDIRECTION((0.,0.,1.));
#820=IFCEXTRUDEDAREASOLID(#814,#818,#819,25.);
#821=IFCCARTESIANPOINTLIST2D(((0.,0.),(0.,27.100000000000001),(50.899999999999999,27.100000000000001),(50.899999999999999,0.),(-24.100000000000001,0.),(-24.100000000000001,-47.899999999999999),(75.,-47.899999999999999),(75.,0.)));
#822=IFCINDEXEDPOLYCURVE(#821,(IFCLINEINDEX((1,2,3,4,5,6,7,8,1))),$);
#823=IFCARBITRARYCLOSEDPROFILEDEF(.AREA.,$,#822);
#824=IFCCARTESIANPOINT((-25.,-5.,0.));
#825=IFCDIRECTION((0.,-1.,0.));
#826=IFCDIRECTION((1.,0.,0.));
#827=IFCAXIS2PLACEMENT3D(#824,#825,#826);
#828=IFCDIRECTION((0.,0.,-1.));
#829=IFCEXTRUDEDAREASOLID(#823,#827,#828,5.);
#830=IFCCARTESIANPOINTLIST2D(((0.,0.),(0.,27.100000000000001),(50.899999999999999,27.100000000000001),(50.899999999999999,0.),(0.89999999999999858,0.),(0.89999999999999858,-22.899999999999999),(50.,-22.899999999999999),(50.,0.)));
#831=IFCINDEXEDPOLYCURVE(#830,(IFCLINEINDEX((1,2,3,4,5,6,7,8,1))),$);
#832=IFCARBITRARYCLOSEDPROFILEDEF(.AREA.,$,#831);
#833=IFCCARTESIANPOINT((-25.,50.,0.));
#834=IFCDIRECTION((0.,-1.,0.));
#835=IFCDIRECTION((1.,0.,0.));
#836=IFCAXIS2PLACEMENT3D(#833,#834,#835);
#837=IFCDIRECTION((0.,0.,-1.));
#838=IFCEXTRUDEDAREASOLID(#832,#836,#837,5.);
#839=IFCCARTESIANPOINTLIST2D(((0.,0.),(-49.100000000000001,0.),(-49.100000000000001,35.),(0.,35.)));
#840=IFCINDEXEDPOLYCURVE(#839,(IFCLINEINDEX((1,2,3,4,1))),$);
#841=IFCARBITRARYCLOSEDPROFILEDEF(.AREA.,$,#840);
#842=IFCCARTESIANPOINT((25.,25.,25.));
#843=IFCDIRECTION((0.,0.,1.));
#844=IFCDIRECTION((1.,0.,0.));
#845=IFCAXIS2PLACEMENT3D(#842,#843,#844);
#846=IFCDIRECTION((0.,0.,1.));
#847=IFCEXTRUDEDAREASOLID(#841,#845,#846,-47.899999999999999);
#848=IFCCARTESIANPOINTLIST2D(((0.,0.),(0.,-40.),(-120.00000000000003,-40.),(-120.00000000000003,-20.),(-20.,-20.),(-20.,0.)));
#849=IFCINDEXEDPOLYCURVE(#848,(IFCLINEINDEX((1,2,3,4,5,6,1))),$);
#850=IFCARBITRARYCLOSEDPROFILEDEF(.AREA.,$,#849);
#851=IFCCARTESIANPOINT((-74.099999999999994,25.,1015.));
#852=IFCDIRECTION((0.,0.,1.));
#853=IFCDIRECTION((1.,0.,0.));
#854=IFCAXIS2PLACEMENT3D(#851,#852,#853);
#855=IFCDIRECTION((0.,0.,1.));
#856=IFCEXTRUDEDAREASOLID(#850,#854,#855,20.);
#857=IFCEXTRUDEDAREASOLID(#858,#861,#865,20.);
#858=IFCARBITRARYCLOSEDPROFILEDEF(.AREA.,$,#859);
#859=IFCINDEXEDPOLYCURVE(#860,(IFCLINEINDEX((1,2,3,4,5,6,1))),$);
#860=IFCCARTESIANPOINTLIST2D(((0.,0.),(0.,40.),(-120.00000000000003,40.),(-120.00000000000003,20.),(-20.,20.),(-20.,0.)));
#861=IFCAXIS2PLACEMENT3D(#862,#863,#864);
#862=IFCCARTESIANPOINT((-74.099999999999994,60.,1015.));
#863=IFCDIRECTION((0.,0.,1.));
#864=IFCDIRECTION((1.,0.,0.));
#865=IFCDIRECTION((0.,0.,1.));
#866=IFCSHAPEREPRESENTATION(#11,'Body','SweptSolid',(#802,#811,#847,#856,#857,#820,#829,#838));
#867=IFCPRODUCTDEFINITIONSHAPE($,$,(#866));
#873=IFCCARTESIANPOINT((4550.,-50.,0.));
#874=IFCDIRECTION((0.,0.,1.));
#875=IFCDIRECTION((1.,0.,0.));
#876=IFCAXIS2PLACEMENT3D(#873,#874,#875);
#877=IFCLOCALPLACEMENT(#22,#876);
#878=IFCDOOR('0FIXWmYfL7WfWNKMGNqKEE',$,'Door 7',$,$,#962,#952,$,$,$,$,$,$);
#879=IFCCARTESIANPOINTLIST2D(((0.,0.),(0.,2.1000000000000001),(0.90000000000000002,2.1000000000000001),(0.90000000000000002,0.),(-24.100000000000001,0.),(-24.100000000000001,-22.899999999999999),(25.,-22.899999999999999),(25.,0.)));
#880=IFCINDEXEDPOLYCURVE(#879,(IFCLINEINDEX((1,2,3,4,5,6,7,8,1))),$);
#881=IFCARBITRARYCLOSEDPROFILEDEF(.AREA.,$,#880);
#882=IFCCARTESIANPOINT((0.,25.,0.));
#883=IFCDIRECTION((0.,-1.,0.));
#884=IFCDIRECTION((1.,0.,0.));
#885=IFCAXIS2PLACEMENT3D(#882,#883,#884);
#886=IFCDIRECTION((0.,0.,-1.));
#887=IFCEXTRUDEDAREASOLID(#881,#885,#886,25.);
#888=IFCCARTESIANPOINTLIST2D(((0.,0.),(0.,2.1000000000000001),(0.90000000000000002,2.1000000000000001),(0.90000000000000002,0.),(-49.100000000000001,0.),(-49.100000000000001,-47.899999999999999),(50.,-47.899999999999999),(50.,0.)));
#889=IFCINDEXEDPOLYCURVE(#888,(IFCLINEINDEX((1,2,3,4,5,6,7,8,1))),$);
#890=IFCARBITRARYCLOSEDPROFILEDEF(.AREA.,$,#889);
#891=IFCCARTESIANPOINT((0.,0.,0.));
#892=IFCDIRECTION((0.,-1.,0.));
#893=IFCDIRECTION((1.,0.,0.));
#894=IFCAXIS2PLACEMENT3D(#891,#892,#893);
#895=IFCDIRECTION((0.,0.,-1.));
#896=IFCEXTRUDEDAREASOLID(#890,#894,#895,25.);
#897=IFCCARTESIANPOINTLIST2D(((0.,0.),(-99.099999999999994,0.),(-99.099999999999994,100.),(0.,100.)));
#898=IFCINDEXEDPOLYCURVE(#897,(IFCLINEINDEX((1,2,3,4,1))),$);
#899=IFCARBITRARYCLOSEDPROFILEDEF(.AREA.,$,#898);
#900=IFCCARTESIANPOINT((50.,0.,0.));
#901=IFCDIRECTION((0.,0.,1.));
#902=IFCDIRECTION((1.,0.,0.));
#903=IFCAXIS2PLACEMENT3D(#900,#901,#902);
#904=IFCDIRECTION((0.,0.,1.));
#905=IFCEXTRUDEDAREASOLID(#899,#903,#904,25.);
#906=IFCCARTESIANPOINTLIST2D(((0.,0.),(0.,27.100000000000001),(50.899999999999999,27.100000000000001),(50.899999999999999,0.),(-24.100000000000001,0.),(-24.100000000000001,-47.899999999999999),(75.,-47.899999999999999),(75.,0.)));
#907=IFCINDEXEDPOLYCURVE(#906,(IFCLINEINDEX((1,2,3,4,5,6,7,8,1))),$);
#908=IFCARBITRARYCLOSEDPROFILEDEF(.AREA.,$,#907);
#909=IFCCARTESIANPOINT((-25.,-5.,0.));
#910=IFCDIRECTION((0.,-1.,0.));
#911=IFCDIRECTION((1.,0.,0.));
#912=IFCAXIS2PLACEMENT3D(#909,#910,#911);
#913=IFCDIRECTION((0.,0.,-1.));
#914=IFCEXTRUDEDAREASOLID(#908,#912,#913,5.);
#915=IFCCARTESIANPOINTLIST2D(((0.,0.),(0.,27.100000000000001),(50.899999999999999,27.100000000000001),(50.899999999999999,0.),(0.89999999999999858,0.),(0.89999999999999858,-22.899999999999999),(50.,-22.899999999999999),(50.,0.)));
#916=IFCINDEXEDPOLYCURVE(#915,(IFCLINEINDEX((1,2,3,4,5,6,7,8,1))),$);
#917=IFCARBITRARYCLOSEDPROFILEDEF(.AREA.,$,#916);
#918=IFCCARTESIANPOINT((-25.,50.,0.));
#919=IFCDIRECTION((0.,-1.,0.));
#920=IFCDIRECTION((1.,0.,0.));
#921=IFCAXIS2PLACEMENT3D(#918,#919,#920);
#922=IFCDIRECTION((0.,0.,-1.));
#923=IFCEXTRUDEDAREASOLID(#917,#921,#922,5.);
#924=IFCCARTESIANPOINTLIST2D(((0.,0.),(-49.100000000000001,0.),(-49.100000000000001,35.),(0.,35.)));
#925=IFCINDEXEDPOLYCURVE(#924,(IFCLINEINDEX((1,2,3,4,1))),$);
#926=IFCARBITRARYCLOSEDPROFILEDEF(.AREA.,$,#925);
#927=IFCCARTESIANPOINT((25.,25.,25.));
#928=IFCDIRECTION((0.,0.,1.));
#929=IFCDIRECTION((1.,0.,0.));
#930=IFCAXIS2PLACEMENT3D(#927,#928,#929);
#931=IFCDIRECTION((0.,0.,1.));
#932=IFCEXTRUDEDAREASOLID(#926,#930,#931,-47.899999999999999);
#933=IFCCARTESIANPOINTLIST2D(((0.,0.),(0.,-40.),(-120.00000000000003,-40.),(-120.00000000000003,-20.),(-20.,-20.),(-20.,0.)));
#934=IFCINDEXEDPOLYCURVE(#933,(IFCLINEINDEX((1,2,3,4,5,6,1))),$);
#935=IFCARBITRARYCLOSEDPROFILEDEF(.AREA.,$,#934);
#936=IFCCARTESIANPOINT((-74.099999999999994,25.,1015.));
#937=IFCDIRECTION((0.,0.,1.));
#938=IFCDIRECTION((1.,0.,0.));
#939=IFCAXIS2PLACEMENT3D(#936,#937,#938);
#940=IFCDIRECTION((0.,0.,1.));
#941=IFCEXTRUDEDAREASOLID(#935,#939,#940,20.);
#942=IFCEXTRUDEDAREASOLID(#943,#946,#950,20.);
#943=IFCARBITRARYCLOSEDPROFILEDEF(.AREA.,$,#944);
#944=IFCINDEXEDPOLYCURVE(#945,(IFCLINEINDEX((1,2,3,4,5,6,1))),$);
#945=IFCCARTESIANPOINTLIST2D(((0.,0.),(0.,40.),(-120.00000000000003,40.),(-120.00000000000003,20.),(-20.,20.),(-20.,0.)));
#946=IFCAXIS2PLACEMENT3D(#947,#948,#949);
#947=IFCCARTESIANPOINT((-74.099999999999994,60.,1015.));
#948=IFCDIRECTION((0.,0.,1.));
#949=IFCDIRECTION((1.,0.,0.));
#950=IFCDIRECTION((0.,0.,1.));
#951=IFCSHAPEREPRESENTATION(#11,'Body','SweptSolid',(#887,#896,#932,#941,#942,#905,#914,#923));
#952=IFCPRODUCTDEFINITIONSHAPE($,$,(#951));
#958=IFCCARTESIANPOINT((5300.,-50.,0.));
#959=IFCDIRECTION((0.,0.,1.));
#960=IFCDIRECTION((1.,0.,0.));
#961=IFCAXIS2PLACEMENT3D(#958,#959,#960);
#962=IFCLOCALPLACEMENT(#22,#961);
#963=IFCWINDOW('0Wcrymqaj9buZVYgMlDsoq',$,'Window 1',$,$,#1017,#1007,$,$,$,$,$,$);
#964=IFCCARTESIANPOINTLIST2D(((0.,0.),(1.2,0.),(1.2,1.1000000000000001),(0.,1.1000000000000001)));
#965=IFCINDEXEDPOLYCURVE(#964,(IFCLINEINDEX((1,2,3,4,1))),$);
#966=IFCCARTESIANPOINTLIST2D(((25.,25.),(-23.799999999999997,25.),(-23.799999999999997,-23.899999999999999),(25.,-23.899999999999999)));
#967=IFCINDEXEDPOLYCURVE(#966,(IFCLINEINDEX((1,2,3,4,1))),$);
#968=IFCARBITRARYPROFILEDEFWITHVOIDS(.AREA.,$,#965,(#967));
#969=IFCCARTESIANPOINT((0.,90.,0.));
#970=IFCDIRECTION((0.,-1.,0.));
#971=IFCDIRECTION((1.,0.,0.));
#972=IFCAXIS2PLACEMENT3D(#969,#970,#971);
#973=IFCDIRECTION((0.,0.,-1.));
#974=IFCEXTRUDEDAREASOLID(#968,#972,#973,10.);
#975=IFCCARTESIANPOINTLIST2D(((0.,0.),(1.2,0.),(1.2,1.1000000000000001),(0.,1.1000000000000001)));
#976=IFCINDEXEDPOLYCURVE(#975,(IFCLINEINDEX((1,2,3,4,1))),$);
#977=IFCCARTESIANPOINTLIST2D(((50.,50.),(-48.799999999999997,50.),(-48.799999999999997,-48.900000000000006),(50.,-48.900000000000006)));
#978=IFCINDEXEDPOLYCURVE(#977,(IFCLINEINDEX((1,2,3,4,1))),$);
#979=IFCARBITRARYPROFILEDEFWITHVOIDS(.AREA.,$,#976,(#978));
#980=IFCCARTESIANPOINT((0.,50.,0.));
#981=IFCDIRECTION((0.,-1.,0.));
#982=IFCDIRECTION((1.,0.,0.));
#983=IFCAXIS2PLACEMENT3D(#980,#981,#982);
#984=IFCDIRECTION((0.,0.,-1.));
#985=IFCEXTRUDEDAREASOLID(#979,#983,#984,40.);
#986=IFCCARTESIANPOINTLIST2D(((0.,0.),(-48.799999999999997,0.),(-48.799999999999997,-48.899999999999999),(0.,-48.899999999999999)));
#987=IFCINDEXEDPOLYCURVE(#986,(IFCLINEINDEX((1,2,3,4,1))),$);
#988=IFCCARTESIANPOINTLIST2D(((35.,35.),(-83.799999999999997,35.),(-83.799999999999997,-83.900000000000006),(35.,-83.900000000000006)));
#989=IFCINDEXEDPOLYCURVE(#988,(IFCLINEINDEX((1,2,3,4,1))),$);
#990=IFCARBITRARYPROFILEDEFWITHVOIDS(.AREA.,$,#987,(#989));
#991=IFCCARTESIANPOINT((25.,90.,25.));
#992=IFCDIRECTION((0.,-1.,0.));
#993=IFCDIRECTION((1.,0.,0.));
#994=IFCAXIS2PLACEMENT3D(#991,#992,#993);
#995=IFCDIRECTION((0.,0.,-1.));
#996=IFCEXTRUDEDAREASOLID(#990,#994,#995,35.);
#997=IFCINDEXEDPOLYCURVE(#998,(IFCLINEINDEX((1,2,3,4,1))),$);
#998=IFCCARTESIANPOINTLIST2D(((35.,35.),(-83.799999999999997,35.),(-83.799999999999997,-83.900000000000006),(35.,-83.900000000000006)));
#999=IFCARBITRARYCLOSEDPROFILEDEF(.AREA.,$,#997);
#1000=IFCCARTESIANPOINT((25.,102.5,25.));
#1001=IFCDIRECTION((0.,-1.,0.));
#1002=IFCDIRECTION((1.,0.,0.));
#1003=IFCAXIS2PLACEMENT3D(#1000,#1001,#1002);
#1004=IFCDIRECTION((0.,0.,-1.));
#1005=IFCEXTRUDEDAREASOLID(#999,#1003,#1004,10.);
#1006=IFCSHAPEREPRESENTATION(#11,'Body','SweptSolid',(#974,#985,#996,#1005));
#1007=IFCPRODUCTDEFINITIONSHAPE($,$,(#1006));
#1013=IFCCARTESIANPOINT((1200.,7050.,1100.));
#1014=IFCDIRECTION((0.,0.,1.));
#1015=IFCDIRECTION((1.,0.,0.));
#1016=IFCAXIS2PLACEMENT3D(#1013,#1014,#1015);
#1017=IFCLOCALPLACEMENT(#22,#1016);
#1018=IFCWINDOW('1vtm4vjR9Aie2w8A7FJKqB',$,'Window 2',$,$,#1072,#1062,$,$,$,$,$,$);
#1019=IFCCARTESIANPOINTLIST2D(((0.,0.),(1.2,0.),(1.2,1.1000000000000001),(0.,1.1000000000000001)));
#1020=IFCINDEXEDPOLYCURVE(#1019,(IFCLINEINDEX((1,2,3,4,1))),$);
#1021=IFCCARTESIANPOINTLIST2D(((25.,25.),(-23.799999999999997,25.),(-23.799999999999997,-23.899999999999999),(25.,-23.899999999999999)));
#1022=IFCINDEXEDPOLYCURVE(#1021,(IFCLINEINDEX((1,2,3,4,1))),$);
#1023=IFCARBITRARYPROFILEDEFWITHVOIDS(.AREA.,$,#1020,(#1022));
#1024=IFCCARTESIANPOINT((0.,90.,0.));
#1025=IFCDIRECTION((0.,-1.,0.));
#1026=IFCDIRECTION((1.,0.,0.));
#1027=IFCAXIS2PLACEMENT3D(#1024,#1025,#1026);
#1028=IFCDIRECTION((0.,0.,-1.));
#1029=IFCEXTRUDEDAREASOLID(#1023,#1027,#1028,10.);
#1030=IFCCARTESIANPOINTLIST2D(((0.,0.),(1.2,0.),(1.2,1.1000000000000001),(0.,1.1000000000000001)));
#1031=IFCINDEXEDPOLYCURVE(#1030,(IFCLINEINDEX((1,2,3,4,1))),$);
#1032=IFCCARTESIANPOINTLIST2D(((50.,50.),(-48.799999999999997,50.),(-48.799999999999997,-48.900000000000006),(50.,-48.900000000000006)));
#1033=IFCINDEXEDPOLYCURVE(#1032,(IFCLINEINDEX((1,2,3,4,1))),$);
#1034=IFCARBITRARYPROFILEDEFWITHVOIDS(.AREA.,$,#1031,(#1033));
#1035=IFCCARTESIANPOINT((0.,50.,0.));
#1036=IFCDIRECTION((0.,-1.,0.));
#1037=IFCDIRECTION((1.,0.,0.));
#1038=IFCAXIS2PLACEMENT3D(#1035,#1036,#1037);
#1039=IFCDIRECTION((0.,0.,-1.));
#1040=IFCEXTRUDEDAREASOLID(#1034,#1038,#1039,40.);
#1041=IFCCARTESIANPOINTLIST2D(((0.,0.),(-48.799999999999997,0.),(-48.799999999999997,-48.899999999999999),(0.,-48.899999999999999)));
#1042=IFCINDEXEDPOLYCURVE(#1041,(IFCLINEINDEX((1,2,3,4,1))),$);
#1043=IFCCARTESIANPOINTLIST2D(((35.,35.),(-83.799999999999997,35.),(-83.799999999999997,-83.900000000000006),(35.,-83.900000000000006)));
#1044=IFCINDEXEDPOLYCURVE(#1043,(IFCLINEINDEX((1,2,3,4,1))),$);
#1045=IFCARBITRARYPROFILEDEFWITHVOIDS(.AREA.,$,#1042,(#1044));
#1046=IFCCARTESIANPOINT((25.,90.,25.));
#1047=IFCDIRECTION((0.,-1.,0.));
#1048=IFCDIRECTION((1.,0.,0.));
#1049=IFCAXIS2PLACEMENT3D(#1046,#1047,#1048);
#1050=IFCDIRECTION((0.,0.,-1.));
#1051=IFCEXTRUDEDAREASOLID(#1045,#1049,#1050,35.);
#1052=IFCINDEXEDPOLYCURVE(#1053,(IFCLINEINDEX((1,2,3,4,1))),$);
#1053=IFCCARTESIANPOINTLIST2D(((35.,35.),(-83.799999999999997,35.),(-83.799999999999997,-83.900000000000006),(35.,-83.900000000000006)));
#1054=IFCARBITRARYCLOSEDPROFILEDEF(.AREA.,$,#1052);
#1055=IFCCARTESIANPOINT((25.,102.5,25.));
#1056=IFCDIRECTION((0.,-1.,0.));
#1057=IFCDIRECTION((1.,0.,0.));
#1058=IFCAXIS2PLACEMENT3D(#1055,#1056,#1057);
#1059=IFCDIRECTION((0.,0.,-1.));
#1060=IFCEXTRUDEDAREASOLID(#1054,#1058,#1059,10.);
#1061=IFCSHAPEREPRESENTATION(#11,'Body','SweptSolid',(#1029,#1040,#1051,#1060));
#1062=IFCPRODUCTDEFINITIONSHAPE($,$,(#1061));
#1068=IFCCARTESIANPOINT((1950.,7050.,1100.));
#1069=IFCDIRECTION((0.,0.,1.));
#1070=IFCDIRECTION((1.,0.,0.));
#1071=IFCAXIS2PLACEMENT3D(#1068,#1069,#1070);
#1072=IFCLOCALPLACEMENT(#22,#1071);
#1073=IFCWINDOW('1iTUR3zHbAcOy0TRIxtXva',$,'Window 3',$,$,#1127,#1117,$,$,$,$,$,$);
#1074=IFCCARTESIANPOINTLIST2D(((0.,0.),(1.2,0.),(1.2,1.1000000000000001),(0.,1.1000000000000001)));
#1075=IFCINDEXEDPOLYCURVE(#1074,(IFCLINEINDEX((1,2,3,4,1))),$);
#1076=IFCCARTESIANPOINTLIST2D(((25.,25.),(-23.799999999999997,25.),(-23.799999999999997,-23.899999999999999),(25.,-23.899999999999999)));
#1077=IFCINDEXEDPOLYCURVE(#1076,(IFCLINEINDEX((1,2,3,4,1))),$);
#1078=IFCARBITRARYPROFILEDEFWITHVOIDS(.AREA.,$,#1075,(#1077));
#1079=IFCCARTESIANPOINT((0.,90.,0.));
#1080=IFCDIRECTION((0.,-1.,0.));
#1081=IFCDIRECTION((1.,0.,0.));
#1082=IFCAXIS2PLACEMENT3D(#1079,#1080,#1081);
#1083=IFCDIRECTION((0.,0.,-1.));
#1084=IFCEXTRUDEDAREASOLID(#1078,#1082,#1083,10.);
#1085=IFCCARTESIANPOINTLIST2D(((0.,0.),(1.2,0.),(1.2,1.1000000000000001),(0.,1.1000000000000001)));
#1086=IFCINDEXEDPOLYCURVE(#1085,(IFCLINEINDEX((1,2,3,4,1))),$);
#1087=IFCCARTESIANPOINTLIST2D(((50.,50.),(-48.799999999999997,50.),(-48.799999999999997,-48.900000000000006),(50.,-48.900000000000006)));
#1088=IFCINDEXEDPOLYCURVE(#1087,(IFCLINEINDEX((1,2,3,4,1))),$);
#1089=IFCARBITRARYPROFILEDEFWITHVOIDS(.AREA.,$,#1086,(#1088));
#1090=IFCCARTESIANPOINT((0.,50.,0.));
#1091=IFCDIRECTION((0.,-1.,0.));
#1092=IFCDIRECTION((1.,0.,0.));
#1093=IFCAXIS2PLACEMENT3D(#1090,#1091,#1092);
#1094=IFCDIRECTION((0.,0.,-1.));
#1095=IFCEXTRUDEDAREASOLID(#1089,#1093,#1094,40.);
#1096=IFCCARTESIANPOINTLIST2D(((0.,0.),(-48.799999999999997,0.),(-48.799999999999997,-48.899999999999999),(0.,-48.899999999999999)));
#1097=IFCINDEXEDPOLYCURVE(#1096,(IFCLINEINDEX((1,2,3,4,1))),$);
#1098=IFCCARTESIANPOINTLIST2D(((35.,35.),(-83.799999999999997,35.),(-83.799999999999997,-83.900000000000006),(35.,-83.900000000000006)));
#1099=IFCINDEXEDPOLYCURVE(#1098,(IFCLINEINDEX((1,2,3,4,1))),$);
#1100=IFCARBITRARYPROFILEDEFWITHVOIDS(.AREA.,$,#1097,(#1099));
#1101=IFCCARTESIANPOINT((25.,90.,25.));
#1102=IFCDIRECTION((0.,-1.,0.));
#1103=IFCDIRECTION((1.,0.,0.));
#1104=IFCAXIS2PLACEMENT3D(#1101,#1102,#1103);
#1105=IFCDIRECTION((0.,0.,-1.));
#1106=IFCEXTRUDEDAREASOLID(#1100,#1104,#1105,35.);
#1107=IFCINDEXEDPOLYCURVE(#1108,(IFCLINEINDEX((1,2,3,4,1))),$);
#1108=IFCCARTESIANPOINTLIST2D(((35.,35.),(-83.799999999999997,35.),(-83.799999999999997,-83.900000000000006),(35.,-83.900000000000006)));
#1109=IFCARBITRARYCLOSEDPROFILEDEF(.AREA.,$,#1107);
#1110=IFCCARTESIANPOINT((25.,102.5,25.));
#1111=IFCDIRECTION((0.,-1.,0.));
#1112=IFCDIRECTION((1.,0.,0.));
#1113=IFCAXIS2PLACEMENT3D(#1110,#1111,#1112);
#1114=IFCDIRECTION((0.,0.,-1.));
#1115=IFCEXTRUDEDAREASOLID(#1109,#1113,#1114,10.);
#1116=IFCSHAPEREPRESENTATION(#11,'Body','SweptSolid',(#1084,#1095,#1106,#1115));
#1117=IFCPRODUCTDEFINITIONSHAPE($,$,(#1116));
#1123=IFCCARTESIANPOINT((2700.,7050.,1100.));
#1124=IFCDIRECTION((0.,0.,1.));
#1125=IFCDIRECTION((1.,0.,0.));
#1126=IFCAXIS2PLACEMENT3D(#1123,#1124,#1125);
#1127=IFCLOCALPLACEMENT(#22,#1126);
#1128=IFCWINDOW('3Ir_tAWPDF0eK0CHnJrvFd',$,'Window 4',$,$,#1182,#1172,$,$,$,$,$,$);
#1129=IFCCARTESIANPOINTLIST2D(((0.,0.),(1.2,0.),(1.2,1.1000000000000001),(0.,1.1000000000000001)));
#1130=IFCINDEXEDPOLYCURVE(#1129,(IFCLINEINDEX((1,2,3,4,1))),$);
#1131=IFCCARTESIANPOINTLIST2D(((25.,25.),(-23.799999999999997,25.),(-23.799999999999997,-23.899999999999999),(25.,-23.899999999999999)));
#1132=IFCINDEXEDPOLYCURVE(#1131,(IFCLINEINDEX((1,2,3,4,1))),$);
#1133=IFCARBITRARYPROFILEDEFWITHVOIDS(.AREA.,$,#1130,(#1132));
#1134=IFCCARTESIANPOINT((0.,90.,0.));
#1135=IFCDIRECTION((0.,-1.,0.));
#1136=IFCDIRECTION((1.,0.,0.));
#1137=IFCAXIS2PLACEMENT3D(#1134,#1135,#1136);
#1138=IFCDIRECTION((0.,0.,-1.));
#1139=IFCEXTRUDEDAREASOLID(#1133,#1137,#1138,10.);
#1140=IFCCARTESIANPOINTLIST2D(((0.,0.),(1.2,0.),(1.2,1.1000000000000001),(0.,1.1000000000000001)));
#1141=IFCINDEXEDPOLYCURVE(#1140,(IFCLINEINDEX((1,2,3,4,1))),$);
#1142=IFCCARTESIANPOINTLIST2D(((50.,50.),(-48.799999999999997,50.),(-48.799999999999997,-48.900000000000006),(50.,-48.900000000000006)));
#1143=IFCINDEXEDPOLYCURVE(#1142,(IFCLINEINDEX((1,2,3,4,1))),$);
#1144=IFCARBITRARYPROFILEDEFWITHVOIDS(.AREA.,$,#1141,(#1143));
#1145=IFCCARTESIANPOINT((0.,50.,0.));
#1146=IFCDIRECTION((0.,-1.,0.));
#1147=IFCDIRECTION((1.,0.,0.));
#1148=IFCAXIS2PLACEMENT3D(#1145,#1146,#1147);
#1149=IFCDIRECTION((0.,0.,-1.));
#1150=IFCEXTRUDEDAREASOLID(#1144,#1148,#1149,40.);
#1151=IFCCARTESIANPOINTLIST2D(((0.,0.),(-48.799999999999997,0.),(-48.799999999999997,-48.899999999999999),(0.,-48.899999999999999)));
#1152=IFCINDEXEDPOLYCURVE(#1151,(IFCLINEINDEX((1,2,3,4,1))),$);
#1153=IFCCARTESIANPOINTLIST2D(((35.,35.),(-83.799999999999997,35.),(-83.799999999999997,-83.900000000000006),(35.,-83.900000000000006)));
#1154=IFCINDEXEDPOLYCURVE(#1153,(IFCLINEINDEX((1,2,3,4,1))),$);
#1155=IFCARBITRARYPROFILEDEFWITHVOIDS(.AREA.,$,#1152,(#1154));
#1156=IFCCARTESIANPOINT((25.,90.,25.));
#1157=IFCDIRECTION((0.,-1.,0.));
#1158=IFCDIRECTION((1.,0.,0.));
#1159=IFCAXIS2PLACEMENT3D(#1156,#1157,#1158);
#1160=IFCDIRECTION((0.,0.,-1.));
#1161=IFCEXTRUDEDAREASOLID(#1155,#1159,#1160,35.);
#1162=IFCINDEXEDPOLYCURVE(#1163,(IFCLINEINDEX((1,2,3,4,1))),$);
#1163=IFCCARTESIANPOINTLIST2D(((35.,35.),(-83.799999999999997,35.),(-83.799999999999997,-83.900000000000006),(35.,-83.900000000000006)));
#1164=IFCARBITRARYCLOSEDPROFILEDEF(.AREA.,$,#1162);
#1165=IFCCARTESIANPOINT((25.,102.5,25.));
#1166=IFCDIRECTION((0.,-1.,0.));
#1167=IFCDIRECTION((1.,0.,0.));
#1168=IFCAXIS2PLACEMENT3D(#1165,#1166,#1167);
#1169=IFCDIRECTION((0.,0.,-1.));
#1170=IFCEXTRUDEDAREASOLID(#1164,#1168,#1169,10.);
#1171=IFCSHAPEREPRESENTATION(#11,'Body','SweptSolid',(#1139,#1150,#1161,#1170));
#1172=IFCPRODUCTDEFINITIONSHAPE($,$,(#1171));
#1178=IFCCARTESIANPOINT((3450.,7050.,1100.));
#1179=IFCDIRECTION((0.,0.,1.));
#1180=IFCDIRECTION((1.,0.,0.));
#1181=IFCAXIS2PLACEMENT3D(#1178,#1179,#1180);
#1182=IFCLOCALPLACEMENT(#22,#1181);
#1183=IFCSPACE('1FdDYpYpLFCPdwzL6lu2QH',$,'RECEPTION',$,$,#1196,#1191,$,$,$,$);
#1184=IFCRELAGGREGATES('1YwoT2nt52NhA0fSr0GLP$',$,$,$,#16,(#1262,#1197,#1236,#1183,#1210,#1249,#1223));
#1185=IFCCARTESIANPOINTLIST2D(((0.,0.),(5083.333333333333,0.),(5083.333333333333,2083.3333333333335),(0.,2083.3333333333335),(0.,0.)));
#1186=IFCINDEXEDPOLYCURVE(#1185,$,$);
#1187=IFCDIRECTION((0.,0.,1.));
#1188=IFCARBITRARYCLOSEDPROFILEDEF(.AREA.,$,#1186);
#1189=IFCEXTRUDEDAREASOLID(#1188,$,#1187,2799.9999999999995);
#1190=IFCSHAPEREPRESENTATION(#11,'Body','SweptSolid',(#1189));
#1191=IFCPRODUCTDEFINITIONSHAPE($,$,(#1190));
#1192=IFCCARTESIANPOINT((100.,100.,0.));
#1193=IFCDIRECTION((0.,0.,1.));
#1194=IFCDIRECTION((1.,0.,0.));
#1195=IFCAXIS2PLACEMENT3D(#1192,#1193,#1194);
#1196=IFCLOCALPLACEMENT(#22,#1195);
#1197=IFCSPACE('1TzIyReI1EthzIVREVNJda',$,'WAITING',$,$,#1209,#1204,$,$,$,$);
#1198=IFCCARTESIANPOINTLIST2D(((0.,0.),(5083.333333333333,0.),(5083.333333333333,2083.3333333333335),(0.,2083.3333333333335),(0.,0.)));
#1199=IFCINDEXEDPOLYCURVE(#1198,$,$);
#1200=IFCDIRECTION((0.,0.,1.));
#1201=IFCARBITRARYCLOSEDPROFILEDEF(.AREA.,$,#1199);
#1202=IFCEXTRUDEDAREASOLID(#1201,$,#1200,2799.9999999999995);
#1203=IFCSHAPEREPRESENTATION(#11,'Body','SweptSolid',(#1202));
#1204=IFCPRODUCTDEFINITIONSHAPE($,$,(#1203));
#1205=IFCCARTESIANPOINT((5433.3333333333321,100.,0.));
#1206=IFCDIRECTION((0.,0.,1.));
#1207=IFCDIRECTION((1.,0.,0.));
#1208=IFCAXIS2PLACEMENT3D(#1205,#1206,#1207);
#1209=IFCLOCALPLACEMENT(#22,#1208);
#1210=IFCSPACE('0x54GaDA11HAh3MLAjiw2z',$,'EXAM-1',$,$,#1222,#1217,$,$,$,$);
#1211=IFCCARTESIANPOINTLIST2D(((0.,0.),(5083.333333333333,0.),(5083.333333333333,2083.3333333333335),(0.,2083.3333333333335),(0.,0.)));
#1212=IFCINDEXEDPOLYCURVE(#1211,$,$);
#1213=IFCDIRECTION((0.,0.,1.));
#1214=IFCARBITRARYCLOSEDPROFILEDEF(.AREA.,$,#1212);
#1215=IFCEXTRUDEDAREASOLID(#1214,$,#1213,2799.9999999999995);
#1216=IFCSHAPEREPRESENTATION(#11,'Body','SweptSolid',(#1215));
#1217=IFCPRODUCTDEFINITIONSHAPE($,$,(#1216));
#1218=IFCCARTESIANPOINT((10766.666666666666,100.,0.));
#1219=IFCDIRECTION((0.,0.,1.));
#1220=IFCDIRECTION((1.,0.,0.));
#1221=IFCAXIS2PLACEMENT3D(#1218,#1219,#1220);
#1222=IFCLOCALPLACEMENT(#22,#1221);
#1223=IFCSPACE('1EDmU8Pd95wuk6gyR2Q7BD',$,'EXAM-2',$,$,#1235,#1230,$,$,$,$);
#1224=IFCCARTESIANPOINTLIST2D(((0.,0.),(5083.333333333333,0.),(5083.333333333333,2083.3333333333335),(0.,2083.3333333333335),(0.,0.)));
#1225=IFCINDEXEDPOLYCURVE(#1224,$,$);
#1226=IFCDIRECTION((0.,0.,1.));
#1227=IFCARBITRARYCLOSEDPROFILEDEF(.AREA.,$,#1225);
#1228=IFCEXTRUDEDAREASOLID(#1227,$,#1226,2799.9999999999995);
#1229=IFCSHAPEREPRESENTATION(#11,'Body','SweptSolid',(#1228));
#1230=IFCPRODUCTDEFINITIONSHAPE($,$,(#1229));
#1231=IFCCARTESIANPOINT((100.,2433.3333333333335,0.));
#1232=IFCDIRECTION((0.,0.,1.));
#1233=IFCDIRECTION((1.,0.,0.));
#1234=IFCAXIS2PLACEMENT3D(#1231,#1232,#1233);
#1235=IFCLOCALPLACEMENT(#22,#1234);
#1236=IFCSPACE('1w9MX5AAP7rP6DvhG6B2XJ',$,'STERILIZATION',$,$,#1248,#1243,$,$,$,$);
#1237=IFCCARTESIANPOINTLIST2D(((0.,0.),(5083.333333333333,0.),(5083.333333333333,2083.3333333333335),(0.,2083.3333333333335),(0.,0.)));
#1238=IFCINDEXEDPOLYCURVE(#1237,$,$);
#1239=IFCDIRECTION((0.,0.,1.));
#1240=IFCARBITRARYCLOSEDPROFILEDEF(.AREA.,$,#1238);
#1241=IFCEXTRUDEDAREASOLID(#1240,$,#1239,2799.9999999999995);
#1242=IFCSHAPEREPRESENTATION(#11,'Body','SweptSolid',(#1241));
#1243=IFCPRODUCTDEFINITIONSHAPE($,$,(#1242));
#1244=IFCCARTESIANPOINT((5433.3333333333321,2433.3333333333335,0.));
#1245=IFCDIRECTION((0.,0.,1.));
#1246=IFCDIRECTION((1.,0.,0.));
#1247=IFCAXIS2PLACEMENT3D(#1244,#1245,#1246);
#1248=IFCLOCALPLACEMENT(#22,#1247);
#1249=IFCSPACE('2w6MwkQJHCaR63ebaQyqAs',$,'STAFF',$,$,#1261,#1256,$,$,$,$);
#1250=IFCCARTESIANPOINTLIST2D(((0.,0.),(5083.333333333333,0.),(5083.333333333333,2083.3333333333335),(0.,2083.3333333333335),(0.,0.)));
#1251=IFCINDEXEDPOLYCURVE(#1250,$,$);
#1252=IFCDIRECTION((0.,0.,1.));
#1253=IFCARBITRARYCLOSEDPROFILEDEF(.AREA.,$,#1251);
#1254=IFCEXTRUDEDAREASOLID(#1253,$,#1252,2799.9999999999995);
#1255=IFCSHAPEREPRESENTATION(#11,'Body','SweptSolid',(#1254));
#1256=IFCPRODUCTDEFINITIONSHAPE($,$,(#1255));
#1257=IFCCARTESIANPOINT((10766.666666666666,2433.3333333333335,0.));
#1258=IFCDIRECTION((0.,0.,1.));
#1259=IFCDIRECTION((1.,0.,0.));
#1260=IFCAXIS2PLACEMENT3D(#1257,#1258,#1259);
#1261=IFCLOCALPLACEMENT(#22,#1260);
#1262=IFCSPACE('2fV4kg$0H7FQXivBUwAnDx',$,'WC',$,$,#1274,#1269,$,$,$,$);
#1263=IFCCARTESIANPOINTLIST2D(((0.,0.),(5083.333333333333,0.),(5083.333333333333,2083.3333333333335),(0.,2083.3333333333335),(0.,0.)));
#1264=IFCINDEXEDPOLYCURVE(#1263,$,$);
#1265=IFCDIRECTION((0.,0.,1.));
#1266=IFCARBITRARYCLOSEDPROFILEDEF(.AREA.,$,#1264);
#1267=IFCEXTRUDEDAREASOLID(#1266,$,#1265,2799.9999999999995);
#1268=IFCSHAPEREPRESENTATION(#11,'Body','SweptSolid',(#1267));
#1269=IFCPRODUCTDEFINITIONSHAPE($,$,(#1268));
#1270=IFCCARTESIANPOINT((100.,4766.6666666666661,0.));
#1271=IFCDIRECTION((0.,0.,1.));
#1272=IFCDIRECTION((1.,0.,0.));
#1273=IFCAXIS2PLACEMENT3D(#1270,#1271,#1272);
#1274=IFCLOCALPLACEMENT(#22,#1273);
ENDSEC;
END-ISO-10303-21;
